<svg xmlns="http://www.w3.org/2000/svg" viewBox="0 0 820 378" style="font-family:system-ui,-apple-system,sans-serif">
  <text x="800" y="11" text-anchor="end" font-size="11" font-weight="600" fill="#6b7280">A-weighting (IEC 61672)</text>
  <line x1="34" y1="16" x2="34" y2="171" stroke="#d1d5db"/>
  <line x1="34" y1="47.0" x2="399" y2="47.0" stroke="#d1d5db"/>
  <text x="216.5" y="197" text-anchor="middle" font-size="9" fill="#6b7280">Hz</text>
  <text x="12" y="93.5" text-anchor="middle" font-size="9" fill="#6b7280" transform="rotate(-90 12 93.5)">dB</text>
  <line x1="67.3" y1="16" x2="67.3" y2="171" stroke="#e5e7eb" stroke-width="0.5"/>
  <line x1="86.8" y1="16" x2="86.8" y2="171" stroke="#e5e7eb" stroke-width="0.5"/>
  <line x1="100.6" y1="16" x2="100.6" y2="171" stroke="#e5e7eb" stroke-width="0.5"/>
  <line x1="111.3" y1="16" x2="111.3" y2="171" stroke="#e5e7eb" stroke-width="0.5"/>
  <line x1="120.0" y1="16" x2="120.0" y2="171" stroke="#e5e7eb" stroke-width="0.5"/>
  <line x1="127.4" y1="16" x2="127.4" y2="171" stroke="#e5e7eb" stroke-width="0.5"/>
  <line x1="133.9" y1="16" x2="133.9" y2="171" stroke="#e5e7eb" stroke-width="0.5"/>
  <line x1="139.5" y1="16" x2="139.5" y2="171" stroke="#e5e7eb" stroke-width="0.5"/>
  <line x1="177.9" y1="16" x2="177.9" y2="171" stroke="#e5e7eb" stroke-width="0.5"/>
  <line x1="197.3" y1="16" x2="197.3" y2="171" stroke="#e5e7eb" stroke-width="0.5"/>
  <line x1="211.1" y1="16" x2="211.1" y2="171" stroke="#e5e7eb" stroke-width="0.5"/>
  <line x1="221.9" y1="16" x2="221.9" y2="171" stroke="#e5e7eb" stroke-width="0.5"/>
  <line x1="230.6" y1="16" x2="230.6" y2="171" stroke="#e5e7eb" stroke-width="0.5"/>
  <line x1="238.0" y1="16" x2="238.0" y2="171" stroke="#e5e7eb" stroke-width="0.5"/>
  <line x1="244.4" y1="16" x2="244.4" y2="171" stroke="#e5e7eb" stroke-width="0.5"/>
  <line x1="250.1" y1="16" x2="250.1" y2="171" stroke="#e5e7eb" stroke-width="0.5"/>
  <line x1="288.4" y1="16" x2="288.4" y2="171" stroke="#e5e7eb" stroke-width="0.5"/>
  <line x1="307.9" y1="16" x2="307.9" y2="171" stroke="#e5e7eb" stroke-width="0.5"/>
  <line x1="321.7" y1="16" x2="321.7" y2="171" stroke="#e5e7eb" stroke-width="0.5"/>
  <line x1="332.4" y1="16" x2="332.4" y2="171" stroke="#e5e7eb" stroke-width="0.5"/>
  <line x1="341.2" y1="16" x2="341.2" y2="171" stroke="#e5e7eb" stroke-width="0.5"/>
  <line x1="348.6" y1="16" x2="348.6" y2="171" stroke="#e5e7eb" stroke-width="0.5"/>
  <line x1="355.0" y1="16" x2="355.0" y2="171" stroke="#e5e7eb" stroke-width="0.5"/>
  <line x1="360.7" y1="16" x2="360.7" y2="171" stroke="#e5e7eb" stroke-width="0.5"/>
  <line x1="399.0" y1="16" x2="399.0" y2="171" stroke="#e5e7eb" stroke-width="0.5"/>
  <line x1="144.6" y1="16" x2="144.6" y2="171" stroke="#e5e7eb" stroke-width="0.5"/>
  <text x="144.6" y="183" text-anchor="middle" font-size="8" fill="#6b7280">100</text>
  <line x1="255.1" y1="16" x2="255.1" y2="171" stroke="#e5e7eb" stroke-width="0.5"/>
  <text x="255.1" y="183" text-anchor="middle" font-size="8" fill="#6b7280">1k</text>
  <line x1="365.7" y1="16" x2="365.7" y2="171" stroke="#e5e7eb" stroke-width="0.5"/>
  <text x="365.7" y="183" text-anchor="middle" font-size="8" fill="#6b7280">10k</text>
  <line x1="34" y1="31.5" x2="399" y2="31.5" stroke="#e5e7eb" stroke-width="0.5"/>
  <line x1="34" y1="62.5" x2="399" y2="62.5" stroke="#e5e7eb" stroke-width="0.5"/>
  <line x1="34" y1="16.0" x2="399" y2="16.0" stroke="#e5e7eb" stroke-width="0.5"/>
  <text x="30" y="19.0" text-anchor="end" font-size="8" fill="#6b7280">+20</text>
  <text x="30" y="50.0" text-anchor="end" font-size="8" fill="#6b7280">0</text>
  <line x1="34" y1="78.0" x2="399" y2="78.0" stroke="#e5e7eb" stroke-width="0.5"/>
  <text x="30" y="81.0" text-anchor="end" font-size="8" fill="#6b7280">-20</text>
  <line x1="34" y1="109.0" x2="399" y2="109.0" stroke="#e5e7eb" stroke-width="0.5"/>
  <text x="30" y="112.0" text-anchor="end" font-size="8" fill="#6b7280">-40</text>
  <line x1="34" y1="140.0" x2="399" y2="140.0" stroke="#e5e7eb" stroke-width="0.5"/>
  <text x="30" y="143.0" text-anchor="end" font-size="8" fill="#6b7280">-60</text>
  <line x1="34" y1="171.0" x2="399" y2="171.0" stroke="#e5e7eb" stroke-width="0.5"/>
  <text x="30" y="174.0" text-anchor="end" font-size="8" fill="#6b7280">-80</text>
  <defs><linearGradient id="g230" x1="0" y1="16" x2="0" y2="171" gradientUnits="userSpaceOnUse">
    <stop offset="0%" stop-color="#4a90d9" stop-opacity="0.15"/>
    <stop offset="100%" stop-color="#4a90d9" stop-opacity="0.02"/>
  </linearGradient></defs>
  <path d="M37.5,152.7 37.5,152.7 70.8,122.2 90.3,107.5 104.1,98.3 114.8,91.9 123.6,87.0 131.0,83.2 137.4,80.0 143.1,77.4 148.1,75.2 152.7,73.2 156.9,71.5 160.7,70.0 164.3,68.6 167.6,67.4 170.7,66.3 173.6,65.3 176.3,64.4 178.9,63.5 181.4,62.7 183.7,62.0 186.0,61.3 188.1,60.6 190.2,60.0 192.1,59.5 194.0,58.9 195.8,58.4 197.6,57.9 199.2,57.5 200.9,57.0 202.4,56.6 204.0,56.2 205.5,55.8 206.9,55.5 208.3,55.1 209.6,54.8 210.9,54.5 212.2,54.2 213.5,53.9 214.7,53.6 215.9,53.4 217.0,53.1 218.2,52.9 219.3,52.6 220.3,52.4 221.4,52.2 222.4,52.0 223.4,51.8 224.4,51.6 225.4,51.4 226.4,51.2 227.3,51.0 228.2,50.8 229.1,50.7 230.0,50.5 230.8,50.4 231.7,50.2 232.5,50.1 233.4,49.9 234.2,49.8 235.7,49.5 237.3,49.3 238.7,49.1 240.2,48.8 241.6,48.6 242.9,48.5 244.2,48.3 245.5,48.1 246.8,47.9 248.0,47.8 249.2,47.7 250.3,47.5 251.4,47.4 252.6,47.3 253.6,47.2 254.7,47.0 255.7,46.9 256.7,46.8 257.7,46.8 258.7,46.7 259.6,46.6 260.6,46.5 261.5,46.4 262.4,46.3 263.3,46.3 264.1,46.2 265.0,46.1 265.8,46.1 266.6,46.0 267.4,46.0 268.6,45.9 269.8,45.8 270.9,45.7 272.0,45.7 273.1,45.6 274.2,45.6 275.2,45.5 276.2,45.5 277.2,45.4 278.2,45.4 279.1,45.3 280.0,45.3 281.0,45.3 281.9,45.2 282.7,45.2 283.6,45.2 284.5,45.1 285.3,45.1 286.1,45.1 286.9,45.1 288.0,45.0 289.0,45.0 290.0,45.0 291.0,45.0 292.0,44.9 292.9,44.9 293.9,44.9 294.8,44.9 295.7,44.9 296.6,44.9 297.4,44.8 298.3,44.8 299.1,44.8 299.9,44.8 300.7,44.8 301.7,44.8 302.7,44.8 303.6,44.8 304.6,44.8 305.5,44.8 306.4,44.8 307.3,44.8 308.1,44.8 309.0,44.8 309.8,44.8 310.6,44.8 311.4,44.8 312.4,44.8 313.3,44.8 314.2,44.8 315.1,44.8 316.0,44.9 316.9,44.9 317.7,44.9 318.6,44.9 319.4,44.9 320.2,44.9 321.1,45.0 322.0,45.0 322.9,45.0 323.8,45.0 324.7,45.0 325.5,45.1 326.3,45.1 327.1,45.1 327.9,45.2 328.8,45.2 329.7,45.2 330.6,45.3 331.4,45.3 332.3,45.3 333.1,45.4 333.9,45.4 334.8,45.5 335.7,45.5 336.5,45.6 337.4,45.6 338.2,45.7 339.0,45.7 339.8,45.8 340.7,45.9 341.6,45.9 342.4,46.0 343.3,46.1 344.1,46.1 344.9,46.2 345.8,46.3 346.6,46.4 347.5,46.5 348.3,46.6 349.1,46.7 350.0,46.8 350.8,46.9 351.7,47.0 352.5,47.1 353.3,47.2 354.1,47.3 355.0,47.5 355.8,47.6 356.6,47.7 357.5,47.9 358.3,48.0 359.1,48.2 360.0,48.4 360.8,48.5 361.6,48.7 362.5,48.9 363.3,49.1 364.1,49.3 364.9,49.5 365.8,49.7 366.6,50.0 367.4,50.2 368.2,50.5 369.1,50.8 369.9,51.0 370.7,51.4 371.6,51.7 372.4,52.0 373.2,52.3 374.0,52.7 374.8,53.1 375.6,53.5 376.5,53.9 377.3,54.4 378.1,54.8 378.9,55.3 379.7,55.9 380.5,56.4 381.4,57.0 382.2,57.7 383.0,58.3 383.8,59.0 384.6,59.8 385.5,60.6 386.3,61.4 387.1,62.4 387.9,63.3 388.7,64.4 389.5,65.6 390.3,66.8 391.2,68.2 392.0,69.6 392.8,71.2 393.6,72.9 394.4,74.8 395.2,77.0 396.0,79.3 396.8,82.1 397.6,85.1 398.5,88.7 L398.5,171.0 L37.5,171.0 Z" fill="url(#g230)"/>
  <defs><clipPath id="pc231"><rect x="34" y="16" width="365" height="155"/></clipPath></defs>
  <polyline points="37.5,152.7 70.8,122.2 90.3,107.5 104.1,98.3 114.8,91.9 123.6,87.0 131.0,83.2 137.4,80.0 143.1,77.4 148.1,75.2 152.7,73.2 156.9,71.5 160.7,70.0 164.3,68.6 167.6,67.4 170.7,66.3 173.6,65.3 176.3,64.4 178.9,63.5 181.4,62.7 183.7,62.0 186.0,61.3 188.1,60.6 190.2,60.0 192.1,59.5 194.0,58.9 195.8,58.4 197.6,57.9 199.2,57.5 200.9,57.0 202.4,56.6 204.0,56.2 205.5,55.8 206.9,55.5 208.3,55.1 209.6,54.8 210.9,54.5 212.2,54.2 213.5,53.9 214.7,53.6 215.9,53.4 217.0,53.1 218.2,52.9 219.3,52.6 220.3,52.4 221.4,52.2 222.4,52.0 223.4,51.8 224.4,51.6 225.4,51.4 226.4,51.2 227.3,51.0 228.2,50.8 229.1,50.7 230.0,50.5 230.8,50.4 231.7,50.2 232.5,50.1 233.4,49.9 234.2,49.8 235.7,49.5 237.3,49.3 238.7,49.1 240.2,48.8 241.6,48.6 242.9,48.5 244.2,48.3 245.5,48.1 246.8,47.9 248.0,47.8 249.2,47.7 250.3,47.5 251.4,47.4 252.6,47.3 253.6,47.2 254.7,47.0 255.7,46.9 256.7,46.8 257.7,46.8 258.7,46.7 259.6,46.6 260.6,46.5 261.5,46.4 262.4,46.3 263.3,46.3 264.1,46.2 265.0,46.1 265.8,46.1 266.6,46.0 267.4,46.0 268.6,45.9 269.8,45.8 270.9,45.7 272.0,45.7 273.1,45.6 274.2,45.6 275.2,45.5 276.2,45.5 277.2,45.4 278.2,45.4 279.1,45.3 280.0,45.3 281.0,45.3 281.9,45.2 282.7,45.2 283.6,45.2 284.5,45.1 285.3,45.1 286.1,45.1 286.9,45.1 288.0,45.0 289.0,45.0 290.0,45.0 291.0,45.0 292.0,44.9 292.9,44.9 293.9,44.9 294.8,44.9 295.7,44.9 296.6,44.9 297.4,44.8 298.3,44.8 299.1,44.8 299.9,44.8 300.7,44.8 301.7,44.8 302.7,44.8 303.6,44.8 304.6,44.8 305.5,44.8 306.4,44.8 307.3,44.8 308.1,44.8 309.0,44.8 309.8,44.8 310.6,44.8 311.4,44.8 312.4,44.8 313.3,44.8 314.2,44.8 315.1,44.8 316.0,44.9 316.9,44.9 317.7,44.9 318.6,44.9 319.4,44.9 320.2,44.9 321.1,45.0 322.0,45.0 322.9,45.0 323.8,45.0 324.7,45.0 325.5,45.1 326.3,45.1 327.1,45.1 327.9,45.2 328.8,45.2 329.7,45.2 330.6,45.3 331.4,45.3 332.3,45.3 333.1,45.4 333.9,45.4 334.8,45.5 335.7,45.5 336.5,45.6 337.4,45.6 338.2,45.7 339.0,45.7 339.8,45.8 340.7,45.9 341.6,45.9 342.4,46.0 343.3,46.1 344.1,46.1 344.9,46.2 345.8,46.3 346.6,46.4 347.5,46.5 348.3,46.6 349.1,46.7 350.0,46.8 350.8,46.9 351.7,47.0 352.5,47.1 353.3,47.2 354.1,47.3 355.0,47.5 355.8,47.6 356.6,47.7 357.5,47.9 358.3,48.0 359.1,48.2 360.0,48.4 360.8,48.5 361.6,48.7 362.5,48.9 363.3,49.1 364.1,49.3 364.9,49.5 365.8,49.7 366.6,50.0 367.4,50.2 368.2,50.5 369.1,50.8 369.9,51.0 370.7,51.4 371.6,51.7 372.4,52.0 373.2,52.3 374.0,52.7 374.8,53.1 375.6,53.5 376.5,53.9 377.3,54.4 378.1,54.8 378.9,55.3 379.7,55.9 380.5,56.4 381.4,57.0 382.2,57.7 383.0,58.3 383.8,59.0 384.6,59.8 385.5,60.6 386.3,61.4 387.1,62.4 387.9,63.3 388.7,64.4 389.5,65.6 390.3,66.8 391.2,68.2 392.0,69.6 392.8,71.2 393.6,72.9 394.4,74.8 395.2,77.0 396.0,79.3 396.8,82.1 397.6,85.1 398.5,88.7" fill="none" stroke="#4a90d9" stroke-width="1.5" stroke-linejoin="round" clip-path="url(#pc231)"/>
  <line x1="435" y1="16" x2="435" y2="171" stroke="#d1d5db"/>
  <line x1="435" y1="93.5" x2="800" y2="93.5" stroke="#d1d5db"/>
  <text x="617.5" y="197" text-anchor="middle" font-size="9" fill="#6b7280">Hz</text>
  <text x="413" y="93.5" text-anchor="middle" font-size="9" fill="#6b7280" transform="rotate(-90 413 93.5)">Phase (deg)</text>
  <line x1="468.3" y1="16" x2="468.3" y2="171" stroke="#e5e7eb" stroke-width="0.5"/>
  <line x1="487.8" y1="16" x2="487.8" y2="171" stroke="#e5e7eb" stroke-width="0.5"/>
  <line x1="501.6" y1="16" x2="501.6" y2="171" stroke="#e5e7eb" stroke-width="0.5"/>
  <line x1="512.3" y1="16" x2="512.3" y2="171" stroke="#e5e7eb" stroke-width="0.5"/>
  <line x1="521.0" y1="16" x2="521.0" y2="171" stroke="#e5e7eb" stroke-width="0.5"/>
  <line x1="528.4" y1="16" x2="528.4" y2="171" stroke="#e5e7eb" stroke-width="0.5"/>
  <line x1="534.9" y1="16" x2="534.9" y2="171" stroke="#e5e7eb" stroke-width="0.5"/>
  <line x1="540.5" y1="16" x2="540.5" y2="171" stroke="#e5e7eb" stroke-width="0.5"/>
  <line x1="578.9" y1="16" x2="578.9" y2="171" stroke="#e5e7eb" stroke-width="0.5"/>
  <line x1="598.3" y1="16" x2="598.3" y2="171" stroke="#e5e7eb" stroke-width="0.5"/>
  <line x1="612.1" y1="16" x2="612.1" y2="171" stroke="#e5e7eb" stroke-width="0.5"/>
  <line x1="622.9" y1="16" x2="622.9" y2="171" stroke="#e5e7eb" stroke-width="0.5"/>
  <line x1="631.6" y1="16" x2="631.6" y2="171" stroke="#e5e7eb" stroke-width="0.5"/>
  <line x1="639.0" y1="16" x2="639.0" y2="171" stroke="#e5e7eb" stroke-width="0.5"/>
  <line x1="645.4" y1="16" x2="645.4" y2="171" stroke="#e5e7eb" stroke-width="0.5"/>
  <line x1="651.1" y1="16" x2="651.1" y2="171" stroke="#e5e7eb" stroke-width="0.5"/>
  <line x1="689.4" y1="16" x2="689.4" y2="171" stroke="#e5e7eb" stroke-width="0.5"/>
  <line x1="708.9" y1="16" x2="708.9" y2="171" stroke="#e5e7eb" stroke-width="0.5"/>
  <line x1="722.7" y1="16" x2="722.7" y2="171" stroke="#e5e7eb" stroke-width="0.5"/>
  <line x1="733.4" y1="16" x2="733.4" y2="171" stroke="#e5e7eb" stroke-width="0.5"/>
  <line x1="742.2" y1="16" x2="742.2" y2="171" stroke="#e5e7eb" stroke-width="0.5"/>
  <line x1="749.6" y1="16" x2="749.6" y2="171" stroke="#e5e7eb" stroke-width="0.5"/>
  <line x1="756.0" y1="16" x2="756.0" y2="171" stroke="#e5e7eb" stroke-width="0.5"/>
  <line x1="761.7" y1="16" x2="761.7" y2="171" stroke="#e5e7eb" stroke-width="0.5"/>
  <line x1="800.0" y1="16" x2="800.0" y2="171" stroke="#e5e7eb" stroke-width="0.5"/>
  <line x1="545.6" y1="16" x2="545.6" y2="171" stroke="#e5e7eb" stroke-width="0.5"/>
  <text x="545.6" y="183" text-anchor="middle" font-size="8" fill="#6b7280">100</text>
  <line x1="656.1" y1="16" x2="656.1" y2="171" stroke="#e5e7eb" stroke-width="0.5"/>
  <text x="656.1" y="183" text-anchor="middle" font-size="8" fill="#6b7280">1k</text>
  <line x1="766.7" y1="16" x2="766.7" y2="171" stroke="#e5e7eb" stroke-width="0.5"/>
  <text x="766.7" y="183" text-anchor="middle" font-size="8" fill="#6b7280">10k</text>
  <line x1="435" y1="58.6" x2="800" y2="58.6" stroke="#e5e7eb" stroke-width="0.5"/>
  <line x1="435" y1="128.4" x2="800" y2="128.4" stroke="#e5e7eb" stroke-width="0.5"/>
  <line x1="435" y1="23.8" x2="800" y2="23.8" stroke="#e5e7eb" stroke-width="0.5"/>
  <text x="431" y="26.8" text-anchor="end" font-size="8" fill="#6b7280">180</text>
  <text x="431" y="96.5" text-anchor="end" font-size="8" fill="#6b7280">0</text>
  <line x1="435" y1="163.3" x2="800" y2="163.3" stroke="#e5e7eb" stroke-width="0.5"/>
  <text x="431" y="166.3" text-anchor="end" font-size="8" fill="#6b7280">-180</text>
  <defs><linearGradient id="g232" x1="0" y1="16" x2="0" y2="93.5" gradientUnits="userSpaceOnUse">
    <stop offset="0%" stop-color="#e74c3c" stop-opacity="0.15"/>
    <stop offset="100%" stop-color="#e74c3c" stop-opacity="0.02"/>
  </linearGradient></defs>
  <defs><linearGradient id="g233" x1="0" y1="171" x2="0" y2="93.5" gradientUnits="userSpaceOnUse">
    <stop offset="0%" stop-color="#e74c3c" stop-opacity="0.15"/>
    <stop offset="100%" stop-color="#e74c3c" stop-opacity="0.02"/>
  </linearGradient></defs>
  <defs><clipPath id="c234"><rect x="435" y="16" width="365" height="77.5"/></clipPath></defs>
  <defs><clipPath id="c235"><rect x="435" y="93.5" width="365" height="77.5"/></clipPath></defs>
  <path d="M438.5,16.0 438.5,16.0 471.8,16.0 491.3,16.0 505.1,16.0 515.8,19.6 524.6,24.2 532.0,27.9 538.4,31.1 544.1,33.9 549.1,36.3 553.7,38.4 557.9,40.4 561.7,42.1 565.3,43.7 568.6,45.2 571.7,46.5 574.6,47.7 577.3,48.9 579.9,50.0 582.4,51.0 584.7,51.9 587.0,52.8 589.1,53.7 591.2,54.5 593.1,55.3 595.0,56.0 596.8,56.7 598.6,57.4 600.2,58.0 601.9,58.7 603.4,59.3 605.0,59.9 606.5,60.4 607.9,61.0 609.3,61.5 610.6,62.0 611.9,62.5 613.2,63.0 614.5,63.5 615.7,63.9 616.9,64.4 618.0,64.8 619.2,65.3 620.3,65.7 621.3,66.1 622.4,66.5 623.4,66.9 624.4,67.2 625.4,67.6 626.4,68.0 627.4,68.3 628.3,68.7 629.2,69.0 630.1,69.4 631.0,69.7 631.8,70.0 632.7,70.3 633.5,70.6 634.4,70.9 635.2,71.2 636.7,71.8 638.3,72.4 639.7,72.9 641.2,73.4 642.6,74.0 643.9,74.4 645.2,74.9 646.5,75.4 647.8,75.8 649.0,76.3 650.2,76.7 651.3,77.1 652.4,77.5 653.6,77.9 654.6,78.3 655.7,78.6 656.7,79.0 657.7,79.3 658.7,79.7 659.7,80.0 660.6,80.3 661.6,80.6 662.5,80.9 663.4,81.2 664.3,81.5 665.1,81.8 666.0,82.1 666.8,82.4 667.6,82.6 668.4,82.9 669.6,83.3 670.8,83.7 671.9,84.0 673.0,84.4 674.1,84.7 675.2,85.1 676.2,85.4 677.2,85.7 678.2,86.0 679.2,86.3 680.1,86.6 681.0,86.9 682.0,87.2 682.9,87.4 683.7,87.7 684.6,88.0 685.5,88.2 686.3,88.5 687.1,88.7 687.9,89.0 689.0,89.3 690.0,89.6 691.0,89.9 692.0,90.2 693.0,90.5 693.9,90.8 694.9,91.0 695.8,91.3 696.7,91.6 697.6,91.8 698.4,92.1 699.3,92.3 700.1,92.6 700.9,92.8 701.7,93.1 702.7,93.4 703.7,93.6 704.6,93.9 705.6,94.2 706.5,94.5 707.4,94.7 708.3,95.0 709.1,95.3 710.0,95.5 710.8,95.8 711.6,96.0 712.4,96.3 713.4,96.6 714.3,96.9 715.2,97.1 716.1,97.4 717.0,97.7 717.9,98.0 718.7,98.2 719.6,98.5 720.4,98.8 721.2,99.0 722.1,99.3 723.0,99.6 723.9,99.9 724.8,100.2 725.7,100.5 726.5,100.8 727.3,101.1 728.1,101.4 728.9,101.7 729.8,102.0 730.7,102.3 731.6,102.6 732.4,102.9 733.3,103.2 734.1,103.5 734.9,103.8 735.8,104.2 736.7,104.5 737.5,104.9 738.4,105.2 739.2,105.5 740.0,105.9 740.8,106.2 741.7,106.6 742.6,106.9 743.4,107.3 744.3,107.7 745.1,108.0 745.9,108.4 746.8,108.8 747.6,109.2 748.5,109.6 749.3,109.9 750.1,110.3 751.0,110.8 751.8,111.2 752.7,111.6 753.5,112.0 754.3,112.5 755.1,112.9 756.0,113.4 756.8,113.8 757.6,114.3 758.5,114.7 759.3,115.2 760.1,115.7 761.0,116.2 761.8,116.7 762.6,117.2 763.5,117.8 764.3,118.3 765.1,118.8 765.9,119.4 766.8,119.9 767.6,120.5 768.4,121.1 769.2,121.7 770.1,122.3 770.9,122.9 771.7,123.5 772.6,124.2 773.4,124.8 774.2,125.5 775.0,126.2 775.8,126.8 776.6,127.5 777.5,128.3 778.3,129.0 779.1,129.7 779.9,130.5 780.7,131.3 781.5,132.1 782.4,132.9 783.2,133.7 784.0,134.5 784.8,135.4 785.6,136.3 786.5,137.2 787.3,138.1 788.1,139.1 788.9,140.0 789.7,141.0 790.5,142.0 791.3,143.0 792.2,144.1 793.0,145.2 793.8,146.3 794.6,147.4 795.4,148.5 796.2,149.7 797.0,150.8 797.8,152.1 798.6,153.3 799.5,154.6 L799.5,93.5 L438.5,93.5 Z" fill="url(#g232)" clip-path="url(#c234)"/>
  <path d="M438.5,16.0 438.5,16.0 471.8,16.0 491.3,16.0 505.1,16.0 515.8,19.6 524.6,24.2 532.0,27.9 538.4,31.1 544.1,33.9 549.1,36.3 553.7,38.4 557.9,40.4 561.7,42.1 565.3,43.7 568.6,45.2 571.7,46.5 574.6,47.7 577.3,48.9 579.9,50.0 582.4,51.0 584.7,51.9 587.0,52.8 589.1,53.7 591.2,54.5 593.1,55.3 595.0,56.0 596.8,56.7 598.6,57.4 600.2,58.0 601.9,58.7 603.4,59.3 605.0,59.9 606.5,60.4 607.9,61.0 609.3,61.5 610.6,62.0 611.9,62.5 613.2,63.0 614.5,63.5 615.7,63.9 616.9,64.4 618.0,64.8 619.2,65.3 620.3,65.7 621.3,66.1 622.4,66.5 623.4,66.9 624.4,67.2 625.4,67.6 626.4,68.0 627.4,68.3 628.3,68.7 629.2,69.0 630.1,69.4 631.0,69.7 631.8,70.0 632.7,70.3 633.5,70.6 634.4,70.9 635.2,71.2 636.7,71.8 638.3,72.4 639.7,72.9 641.2,73.4 642.6,74.0 643.9,74.4 645.2,74.9 646.5,75.4 647.8,75.8 649.0,76.3 650.2,76.7 651.3,77.1 652.4,77.5 653.6,77.9 654.6,78.3 655.7,78.6 656.7,79.0 657.7,79.3 658.7,79.7 659.7,80.0 660.6,80.3 661.6,80.6 662.5,80.9 663.4,81.2 664.3,81.5 665.1,81.8 666.0,82.1 666.8,82.4 667.6,82.6 668.4,82.9 669.6,83.3 670.8,83.7 671.9,84.0 673.0,84.4 674.1,84.7 675.2,85.1 676.2,85.4 677.2,85.7 678.2,86.0 679.2,86.3 680.1,86.6 681.0,86.9 682.0,87.2 682.9,87.4 683.7,87.7 684.6,88.0 685.5,88.2 686.3,88.5 687.1,88.7 687.9,89.0 689.0,89.3 690.0,89.6 691.0,89.9 692.0,90.2 693.0,90.5 693.9,90.8 694.9,91.0 695.8,91.3 696.7,91.6 697.6,91.8 698.4,92.1 699.3,92.3 700.1,92.6 700.9,92.8 701.7,93.1 702.7,93.4 703.7,93.6 704.6,93.9 705.6,94.2 706.5,94.5 707.4,94.7 708.3,95.0 709.1,95.3 710.0,95.5 710.8,95.8 711.6,96.0 712.4,96.3 713.4,96.6 714.3,96.9 715.2,97.1 716.1,97.4 717.0,97.7 717.9,98.0 718.7,98.2 719.6,98.5 720.4,98.8 721.2,99.0 722.1,99.3 723.0,99.6 723.9,99.9 724.8,100.2 725.7,100.5 726.5,100.8 727.3,101.1 728.1,101.4 728.9,101.7 729.8,102.0 730.7,102.3 731.6,102.6 732.4,102.9 733.3,103.2 734.1,103.5 734.9,103.8 735.8,104.2 736.7,104.5 737.5,104.9 738.4,105.2 739.2,105.5 740.0,105.9 740.8,106.2 741.7,106.6 742.6,106.9 743.4,107.3 744.3,107.7 745.1,108.0 745.9,108.4 746.8,108.8 747.6,109.2 748.5,109.6 749.3,109.9 750.1,110.3 751.0,110.8 751.8,111.2 752.7,111.6 753.5,112.0 754.3,112.5 755.1,112.9 756.0,113.4 756.8,113.8 757.6,114.3 758.5,114.7 759.3,115.2 760.1,115.7 761.0,116.2 761.8,116.7 762.6,117.2 763.5,117.8 764.3,118.3 765.1,118.8 765.9,119.4 766.8,119.9 767.6,120.5 768.4,121.1 769.2,121.7 770.1,122.3 770.9,122.9 771.7,123.5 772.6,124.2 773.4,124.8 774.2,125.5 775.0,126.2 775.8,126.8 776.6,127.5 777.5,128.3 778.3,129.0 779.1,129.7 779.9,130.5 780.7,131.3 781.5,132.1 782.4,132.9 783.2,133.7 784.0,134.5 784.8,135.4 785.6,136.3 786.5,137.2 787.3,138.1 788.1,139.1 788.9,140.0 789.7,141.0 790.5,142.0 791.3,143.0 792.2,144.1 793.0,145.2 793.8,146.3 794.6,147.4 795.4,148.5 796.2,149.7 797.0,150.8 797.8,152.1 798.6,153.3 799.5,154.6 L799.5,93.5 L438.5,93.5 Z" fill="url(#g233)" clip-path="url(#c235)"/>
  <defs><clipPath id="pc236"><rect x="435" y="16" width="365" height="155"/></clipPath></defs>
  <polyline points="438.5,-22.0 471.8,-5.1 491.3,6.1 505.1,13.8 515.8,19.6 524.6,24.2 532.0,27.9 538.4,31.1 544.1,33.9 549.1,36.3 553.7,38.4 557.9,40.4 561.7,42.1 565.3,43.7 568.6,45.2 571.7,46.5 574.6,47.7 577.3,48.9 579.9,50.0 582.4,51.0 584.7,51.9 587.0,52.8 589.1,53.7 591.2,54.5 593.1,55.3 595.0,56.0 596.8,56.7 598.6,57.4 600.2,58.0 601.9,58.7 603.4,59.3 605.0,59.9 606.5,60.4 607.9,61.0 609.3,61.5 610.6,62.0 611.9,62.5 613.2,63.0 614.5,63.5 615.7,63.9 616.9,64.4 618.0,64.8 619.2,65.3 620.3,65.7 621.3,66.1 622.4,66.5 623.4,66.9 624.4,67.2 625.4,67.6 626.4,68.0 627.4,68.3 628.3,68.7 629.2,69.0 630.1,69.4 631.0,69.7 631.8,70.0 632.7,70.3 633.5,70.6 634.4,70.9 635.2,71.2 636.7,71.8 638.3,72.4 639.7,72.9 641.2,73.4 642.6,74.0 643.9,74.4 645.2,74.9 646.5,75.4 647.8,75.8 649.0,76.3 650.2,76.7 651.3,77.1 652.4,77.5 653.6,77.9 654.6,78.3 655.7,78.6 656.7,79.0 657.7,79.3 658.7,79.7 659.7,80.0 660.6,80.3 661.6,80.6 662.5,80.9 663.4,81.2 664.3,81.5 665.1,81.8 666.0,82.1 666.8,82.4 667.6,82.6 668.4,82.9 669.6,83.3 670.8,83.7 671.9,84.0 673.0,84.4 674.1,84.7 675.2,85.1 676.2,85.4 677.2,85.7 678.2,86.0 679.2,86.3 680.1,86.6 681.0,86.9 682.0,87.2 682.9,87.4 683.7,87.7 684.6,88.0 685.5,88.2 686.3,88.5 687.1,88.7 687.9,89.0 689.0,89.3 690.0,89.6 691.0,89.9 692.0,90.2 693.0,90.5 693.9,90.8 694.9,91.0 695.8,91.3 696.7,91.6 697.6,91.8 698.4,92.1 699.3,92.3 700.1,92.6 700.9,92.8 701.7,93.1 702.7,93.4 703.7,93.6 704.6,93.9 705.6,94.2 706.5,94.5 707.4,94.7 708.3,95.0 709.1,95.3 710.0,95.5 710.8,95.8 711.6,96.0 712.4,96.3 713.4,96.6 714.3,96.9 715.2,97.1 716.1,97.4 717.0,97.7 717.9,98.0 718.7,98.2 719.6,98.5 720.4,98.8 721.2,99.0 722.1,99.3 723.0,99.6 723.9,99.9 724.8,100.2 725.7,100.5 726.5,100.8 727.3,101.1 728.1,101.4 728.9,101.7 729.8,102.0 730.7,102.3 731.6,102.6 732.4,102.9 733.3,103.2 734.1,103.5 734.9,103.8 735.8,104.2 736.7,104.5 737.5,104.9 738.4,105.2 739.2,105.5 740.0,105.9 740.8,106.2 741.7,106.6 742.6,106.9 743.4,107.3 744.3,107.7 745.1,108.0 745.9,108.4 746.8,108.8 747.6,109.2 748.5,109.6 749.3,109.9 750.1,110.3 751.0,110.8 751.8,111.2 752.7,111.6 753.5,112.0 754.3,112.5 755.1,112.9 756.0,113.4 756.8,113.8 757.6,114.3 758.5,114.7 759.3,115.2 760.1,115.7 761.0,116.2 761.8,116.7 762.6,117.2 763.5,117.8 764.3,118.3 765.1,118.8 765.9,119.4 766.8,119.9 767.6,120.5 768.4,121.1 769.2,121.7 770.1,122.3 770.9,122.9 771.7,123.5 772.6,124.2 773.4,124.8 774.2,125.5 775.0,126.2 775.8,126.8 776.6,127.5 777.5,128.3 778.3,129.0 779.1,129.7 779.9,130.5 780.7,131.3 781.5,132.1 782.4,132.9 783.2,133.7 784.0,134.5 784.8,135.4 785.6,136.3 786.5,137.2 787.3,138.1 788.1,139.1 788.9,140.0 789.7,141.0 790.5,142.0 791.3,143.0 792.2,144.1 793.0,145.2 793.8,146.3 794.6,147.4 795.4,148.5 796.2,149.7 797.0,150.8 797.8,152.1 798.6,153.3 799.5,154.6" fill="none" stroke="#e74c3c" stroke-width="1.5" stroke-linejoin="round" clip-path="url(#pc236)"/>
  <line x1="34" y1="207" x2="34" y2="362" stroke="#d1d5db"/>
  <line x1="34" y1="284.5" x2="399" y2="284.5" stroke="#d1d5db"/>
  <text x="216.5" y="388" text-anchor="middle" font-size="9" fill="#6b7280">Hz</text>
  <text x="12" y="284.5" text-anchor="middle" font-size="9" fill="#6b7280" transform="rotate(-90 12 284.5)">Group delay</text>
  <line x1="67.3" y1="207" x2="67.3" y2="362" stroke="#e5e7eb" stroke-width="0.5"/>
  <line x1="86.8" y1="207" x2="86.8" y2="362" stroke="#e5e7eb" stroke-width="0.5"/>
  <line x1="100.6" y1="207" x2="100.6" y2="362" stroke="#e5e7eb" stroke-width="0.5"/>
  <line x1="111.3" y1="207" x2="111.3" y2="362" stroke="#e5e7eb" stroke-width="0.5"/>
  <line x1="120.0" y1="207" x2="120.0" y2="362" stroke="#e5e7eb" stroke-width="0.5"/>
  <line x1="127.4" y1="207" x2="127.4" y2="362" stroke="#e5e7eb" stroke-width="0.5"/>
  <line x1="133.9" y1="207" x2="133.9" y2="362" stroke="#e5e7eb" stroke-width="0.5"/>
  <line x1="139.5" y1="207" x2="139.5" y2="362" stroke="#e5e7eb" stroke-width="0.5"/>
  <line x1="177.9" y1="207" x2="177.9" y2="362" stroke="#e5e7eb" stroke-width="0.5"/>
  <line x1="197.3" y1="207" x2="197.3" y2="362" stroke="#e5e7eb" stroke-width="0.5"/>
  <line x1="211.1" y1="207" x2="211.1" y2="362" stroke="#e5e7eb" stroke-width="0.5"/>
  <line x1="221.9" y1="207" x2="221.9" y2="362" stroke="#e5e7eb" stroke-width="0.5"/>
  <line x1="230.6" y1="207" x2="230.6" y2="362" stroke="#e5e7eb" stroke-width="0.5"/>
  <line x1="238.0" y1="207" x2="238.0" y2="362" stroke="#e5e7eb" stroke-width="0.5"/>
  <line x1="244.4" y1="207" x2="244.4" y2="362" stroke="#e5e7eb" stroke-width="0.5"/>
  <line x1="250.1" y1="207" x2="250.1" y2="362" stroke="#e5e7eb" stroke-width="0.5"/>
  <line x1="288.4" y1="207" x2="288.4" y2="362" stroke="#e5e7eb" stroke-width="0.5"/>
  <line x1="307.9" y1="207" x2="307.9" y2="362" stroke="#e5e7eb" stroke-width="0.5"/>
  <line x1="321.7" y1="207" x2="321.7" y2="362" stroke="#e5e7eb" stroke-width="0.5"/>
  <line x1="332.4" y1="207" x2="332.4" y2="362" stroke="#e5e7eb" stroke-width="0.5"/>
  <line x1="341.2" y1="207" x2="341.2" y2="362" stroke="#e5e7eb" stroke-width="0.5"/>
  <line x1="348.6" y1="207" x2="348.6" y2="362" stroke="#e5e7eb" stroke-width="0.5"/>
  <line x1="355.0" y1="207" x2="355.0" y2="362" stroke="#e5e7eb" stroke-width="0.5"/>
  <line x1="360.7" y1="207" x2="360.7" y2="362" stroke="#e5e7eb" stroke-width="0.5"/>
  <line x1="399.0" y1="207" x2="399.0" y2="362" stroke="#e5e7eb" stroke-width="0.5"/>
  <line x1="144.6" y1="207" x2="144.6" y2="362" stroke="#e5e7eb" stroke-width="0.5"/>
  <text x="144.6" y="374" text-anchor="middle" font-size="8" fill="#6b7280">100</text>
  <line x1="255.1" y1="207" x2="255.1" y2="362" stroke="#e5e7eb" stroke-width="0.5"/>
  <text x="255.1" y="374" text-anchor="middle" font-size="8" fill="#6b7280">1k</text>
  <line x1="365.7" y1="207" x2="365.7" y2="362" stroke="#e5e7eb" stroke-width="0.5"/>
  <text x="365.7" y="374" text-anchor="middle" font-size="8" fill="#6b7280">10k</text>
  <line x1="34" y1="335.9" x2="399" y2="335.9" stroke="#e5e7eb" stroke-width="0.5"/>
  <text x="30" y="338.9" text-anchor="end" font-size="8" fill="#6b7280">-2000</text>
  <text x="30" y="287.5" text-anchor="end" font-size="8" fill="#6b7280">0</text>
  <line x1="34" y1="233.1" x2="399" y2="233.1" stroke="#e5e7eb" stroke-width="0.5"/>
  <text x="30" y="236.1" text-anchor="end" font-size="8" fill="#6b7280">2000</text>
  <defs><linearGradient id="g237" x1="0" y1="207" x2="0" y2="284.5" gradientUnits="userSpaceOnUse">
    <stop offset="0%" stop-color="#2ecc71" stop-opacity="0.15"/>
    <stop offset="100%" stop-color="#2ecc71" stop-opacity="0.02"/>
  </linearGradient></defs>
  <path d="M37.5,224.9 37.5,224.9 70.8,260.1 90.3,270.6 104.1,275.2 114.8,277.6 123.6,279.2 131.0,280.2 137.4,280.9 143.1,281.5 148.1,281.9 152.7,282.2 156.9,282.5 160.7,282.7 164.3,282.9 167.6,283.1 170.7,283.2 173.6,283.3 176.3,283.4 178.9,283.5 181.4,283.5 183.7,283.6 186.0,283.7 188.1,283.7 190.2,283.8 192.1,283.8 194.0,283.8 195.8,283.9 197.6,283.9 199.2,283.9 200.9,284.0 202.4,284.0 204.0,284.0 205.5,284.0 206.9,284.1 208.3,284.1 209.6,284.1 210.9,284.1 212.2,284.1 213.5,284.1 214.7,284.2 215.9,284.2 217.0,284.2 218.2,284.2 219.3,284.2 220.3,284.2 221.4,284.2 222.4,284.2 223.4,284.3 224.4,284.3 225.4,284.3 226.4,284.3 227.3,284.3 228.2,284.3 229.1,284.3 230.0,284.3 230.8,284.3 231.7,284.3 232.5,284.3 233.4,284.3 234.2,284.3 235.7,284.3 237.3,284.4 238.7,284.4 240.2,284.4 241.6,284.4 242.9,284.4 244.2,284.4 245.5,284.4 246.8,284.4 248.0,284.4 249.2,284.4 250.3,284.4 251.4,284.4 252.6,284.4 253.6,284.4 254.7,284.4 255.7,284.4 256.7,284.4 257.7,284.4 258.7,284.4 259.6,284.4 260.6,284.5 261.5,284.5 262.4,284.5 263.3,284.5 264.1,284.5 265.0,284.5 265.8,284.5 266.6,284.5 267.4,284.5 268.6,284.5 269.8,284.5 270.9,284.5 272.0,284.5 273.1,284.5 274.2,284.5 275.2,284.5 276.2,284.5 277.2,284.5 278.2,284.5 279.1,284.5 280.0,284.5 281.0,284.5 281.9,284.5 282.7,284.5 283.6,284.5 284.5,284.5 285.3,284.5 286.1,284.5 286.9,284.5 288.0,284.5 289.0,284.5 290.0,284.5 291.0,284.5 292.0,284.5 292.9,284.5 293.9,284.5 294.8,284.5 295.7,284.5 296.6,284.5 297.4,284.5 298.3,284.5 299.1,284.5 299.9,284.5 300.7,284.5 301.7,284.5 302.7,284.5 303.6,284.5 304.6,284.5 305.5,284.5 306.4,284.5 307.3,284.5 308.1,284.5 309.0,284.5 309.8,284.5 310.6,284.5 311.4,284.5 312.4,284.5 313.3,284.5 314.2,284.5 315.1,284.5 316.0,284.5 316.9,284.5 317.7,284.5 318.6,284.5 319.4,284.5 320.2,284.5 321.1,284.5 322.0,284.5 322.9,284.5 323.8,284.5 324.7,284.5 325.5,284.5 326.3,284.5 327.1,284.5 327.9,284.5 328.8,284.5 329.7,284.5 330.6,284.5 331.4,284.5 332.3,284.5 333.1,284.5 333.9,284.5 334.8,284.5 335.7,284.5 336.5,284.5 337.4,284.5 338.2,284.5 339.0,284.5 339.8,284.5 340.7,284.5 341.6,284.5 342.4,284.5 343.3,284.5 344.1,284.5 344.9,284.5 345.8,284.5 346.6,284.5 347.5,284.5 348.3,284.5 349.1,284.5 350.0,284.5 350.8,284.5 351.7,284.5 352.5,284.5 353.3,284.5 354.1,284.5 355.0,284.5 355.8,284.5 356.6,284.5 357.5,284.5 358.3,284.5 359.1,284.5 360.0,284.5 360.8,284.5 361.6,284.5 362.5,284.5 363.3,284.5 364.1,284.5 364.9,284.5 365.8,284.5 366.6,284.5 367.4,284.5 368.2,284.5 369.1,284.5 369.9,284.5 370.7,284.5 371.6,284.5 372.4,284.5 373.2,284.5 374.0,284.5 374.8,284.5 375.6,284.5 376.5,284.5 377.3,284.5 378.1,284.5 378.9,284.5 379.7,284.5 380.5,284.5 381.4,284.5 382.2,284.5 383.0,284.5 383.8,284.5 384.6,284.5 385.5,284.5 386.3,284.5 387.1,284.5 387.9,284.6 388.7,284.6 389.5,284.6 390.3,284.6 391.2,284.6 392.0,284.6 392.8,284.6 393.6,284.6 394.4,284.6 395.2,284.6 396.0,284.6 396.8,284.6 397.6,284.6 398.5,284.7 L398.5,284.5 L37.5,284.5 Z" fill="url(#g237)"/>
  <defs><clipPath id="pc238"><rect x="34" y="207" width="365" height="155"/></clipPath></defs>
  <polyline points="37.5,224.9 70.8,260.1 90.3,270.6 104.1,275.2 114.8,277.6 123.6,279.2 131.0,280.2 137.4,280.9 143.1,281.5 148.1,281.9 152.7,282.2 156.9,282.5 160.7,282.7 164.3,282.9 167.6,283.1 170.7,283.2 173.6,283.3 176.3,283.4 178.9,283.5 181.4,283.5 183.7,283.6 186.0,283.7 188.1,283.7 190.2,283.8 192.1,283.8 194.0,283.8 195.8,283.9 197.6,283.9 199.2,283.9 200.9,284.0 202.4,284.0 204.0,284.0 205.5,284.0 206.9,284.1 208.3,284.1 209.6,284.1 210.9,284.1 212.2,284.1 213.5,284.1 214.7,284.2 215.9,284.2 217.0,284.2 218.2,284.2 219.3,284.2 220.3,284.2 221.4,284.2 222.4,284.2 223.4,284.3 224.4,284.3 225.4,284.3 226.4,284.3 227.3,284.3 228.2,284.3 229.1,284.3 230.0,284.3 230.8,284.3 231.7,284.3 232.5,284.3 233.4,284.3 234.2,284.3 235.7,284.3 237.3,284.4 238.7,284.4 240.2,284.4 241.6,284.4 242.9,284.4 244.2,284.4 245.5,284.4 246.8,284.4 248.0,284.4 249.2,284.4 250.3,284.4 251.4,284.4 252.6,284.4 253.6,284.4 254.7,284.4 255.7,284.4 256.7,284.4 257.7,284.4 258.7,284.4 259.6,284.4 260.6,284.5 261.5,284.5 262.4,284.5 263.3,284.5 264.1,284.5 265.0,284.5 265.8,284.5 266.6,284.5 267.4,284.5 268.6,284.5 269.8,284.5 270.9,284.5 272.0,284.5 273.1,284.5 274.2,284.5 275.2,284.5 276.2,284.5 277.2,284.5 278.2,284.5 279.1,284.5 280.0,284.5 281.0,284.5 281.9,284.5 282.7,284.5 283.6,284.5 284.5,284.5 285.3,284.5 286.1,284.5 286.9,284.5 288.0,284.5 289.0,284.5 290.0,284.5 291.0,284.5 292.0,284.5 292.9,284.5 293.9,284.5 294.8,284.5 295.7,284.5 296.6,284.5 297.4,284.5 298.3,284.5 299.1,284.5 299.9,284.5 300.7,284.5 301.7,284.5 302.7,284.5 303.6,284.5 304.6,284.5 305.5,284.5 306.4,284.5 307.3,284.5 308.1,284.5 309.0,284.5 309.8,284.5 310.6,284.5 311.4,284.5 312.4,284.5 313.3,284.5 314.2,284.5 315.1,284.5 316.0,284.5 316.9,284.5 317.7,284.5 318.6,284.5 319.4,284.5 320.2,284.5 321.1,284.5 322.0,284.5 322.9,284.5 323.8,284.5 324.7,284.5 325.5,284.5 326.3,284.5 327.1,284.5 327.9,284.5 328.8,284.5 329.7,284.5 330.6,284.5 331.4,284.5 332.3,284.5 333.1,284.5 333.9,284.5 334.8,284.5 335.7,284.5 336.5,284.5 337.4,284.5 338.2,284.5 339.0,284.5 339.8,284.5 340.7,284.5 341.6,284.5 342.4,284.5 343.3,284.5 344.1,284.5 344.9,284.5 345.8,284.5 346.6,284.5 347.5,284.5 348.3,284.5 349.1,284.5 350.0,284.5 350.8,284.5 351.7,284.5 352.5,284.5 353.3,284.5 354.1,284.5 355.0,284.5 355.8,284.5 356.6,284.5 357.5,284.5 358.3,284.5 359.1,284.5 360.0,284.5 360.8,284.5 361.6,284.5 362.5,284.5 363.3,284.5 364.1,284.5 364.9,284.5 365.8,284.5 366.6,284.5 367.4,284.5 368.2,284.5 369.1,284.5 369.9,284.5 370.7,284.5 371.6,284.5 372.4,284.5 373.2,284.5 374.0,284.5 374.8,284.5 375.6,284.5 376.5,284.5 377.3,284.5 378.1,284.5 378.9,284.5 379.7,284.5 380.5,284.5 381.4,284.5 382.2,284.5 383.0,284.5 383.8,284.5 384.6,284.5 385.5,284.5 386.3,284.5 387.1,284.5 387.9,284.6 388.7,284.6 389.5,284.6 390.3,284.6 391.2,284.6 392.0,284.6 392.8,284.6 393.6,284.6 394.4,284.6 395.2,284.6 396.0,284.6 396.8,284.6 397.6,284.6 398.5,284.7" fill="none" stroke="#2ecc71" stroke-width="1.5" stroke-linejoin="round" clip-path="url(#pc238)"/>
  <line x1="435" y1="207" x2="435" y2="362" stroke="#d1d5db"/>
  <line x1="435" y1="284.5" x2="800" y2="284.5" stroke="#d1d5db"/>
  <text x="617.5" y="388" text-anchor="middle" font-size="9" fill="#6b7280">Samples</text>
  <text x="413" y="284.5" text-anchor="middle" font-size="9" fill="#6b7280" transform="rotate(-90 413 284.5)">Impulse response</text>
  <line x1="435.0" y1="207" x2="435.0" y2="362" stroke="#e5e7eb" stroke-width="0.5"/>
  <text x="435.0" y="374" text-anchor="middle" font-size="8" fill="#6b7280">0</text>
  <line x1="526.3" y1="207" x2="526.3" y2="362" stroke="#e5e7eb" stroke-width="0.5"/>
  <text x="526.3" y="374" text-anchor="middle" font-size="8" fill="#6b7280">32</text>
  <line x1="617.5" y1="207" x2="617.5" y2="362" stroke="#e5e7eb" stroke-width="0.5"/>
  <text x="617.5" y="374" text-anchor="middle" font-size="8" fill="#6b7280">64</text>
  <line x1="708.8" y1="207" x2="708.8" y2="362" stroke="#e5e7eb" stroke-width="0.5"/>
  <text x="708.8" y="374" text-anchor="middle" font-size="8" fill="#6b7280">96</text>
  <line x1="800.0" y1="207" x2="800.0" y2="362" stroke="#e5e7eb" stroke-width="0.5"/>
  <text x="800.0" y="374" text-anchor="middle" font-size="8" fill="#6b7280">128</text>
  <line x1="435" y1="336.8" x2="800" y2="336.8" stroke="#e5e7eb" stroke-width="0.5"/>
  <text x="431" y="339.8" text-anchor="end" font-size="8" fill="#6b7280">-0.4</text>
  <text x="431" y="287.5" text-anchor="end" font-size="8" fill="#6b7280">0</text>
  <line x1="435" y1="232.2" x2="800" y2="232.2" stroke="#e5e7eb" stroke-width="0.5"/>
  <text x="431" y="235.2" text-anchor="end" font-size="8" fill="#6b7280">0.4</text>
  <defs><linearGradient id="g239" x1="0" y1="207" x2="0" y2="284.5" gradientUnits="userSpaceOnUse">
    <stop offset="0%" stop-color="#f39c12" stop-opacity="0.15"/>
    <stop offset="100%" stop-color="#f39c12" stop-opacity="0.02"/>
  </linearGradient></defs>
  <defs><linearGradient id="g240" x1="0" y1="362" x2="0" y2="284.5" gradientUnits="userSpaceOnUse">
    <stop offset="0%" stop-color="#f39c12" stop-opacity="0.15"/>
    <stop offset="100%" stop-color="#f39c12" stop-opacity="0.02"/>
  </linearGradient></defs>
  <defs><clipPath id="c241"><rect x="435" y="207" width="365" height="77.5"/></clipPath></defs>
  <defs><clipPath id="c242"><rect x="435" y="284.5" width="365" height="77.5"/></clipPath></defs>
  <path d="M435.0,239.2 435.0,239.2 437.9,207.0 440.7,268.4 443.6,307.5 446.4,298.5 449.3,297.9 452.1,296.4 455.0,295.2 457.8,294.0 460.7,293.0 463.5,292.1 466.4,291.3 469.2,290.6 472.1,289.9 474.9,289.4 477.8,288.8 480.6,288.3 483.5,287.9 486.3,287.5 489.2,287.2 492.0,286.9 494.9,286.6 497.7,286.4 500.6,286.1 503.4,285.9 506.3,285.7 509.1,285.6 512.0,285.4 514.8,285.3 517.7,285.2 520.5,285.1 523.4,285.0 526.3,284.9 529.1,284.8 532.0,284.8 534.8,284.7 537.7,284.7 540.5,284.6 543.4,284.6 546.2,284.5 549.1,284.5 551.9,284.5 554.8,284.4 557.6,284.4 560.5,284.4 563.3,284.4 566.2,284.4 569.0,284.4 571.9,284.3 574.7,284.3 577.6,284.3 580.4,284.3 583.3,284.3 586.1,284.3 589.0,284.3 591.8,284.3 594.7,284.3 597.5,284.3 600.4,284.3 603.2,284.3 606.1,284.3 608.9,284.3 611.8,284.3 614.6,284.3 617.5,284.3 620.4,284.3 623.2,284.3 626.1,284.3 628.9,284.3 631.8,284.3 634.6,284.3 637.5,284.3 640.3,284.3 643.2,284.3 646.0,284.3 648.9,284.3 651.7,284.3 654.6,284.3 657.4,284.3 660.3,284.3 663.1,284.3 666.0,284.3 668.8,284.3 671.7,284.3 674.5,284.3 677.4,284.3 680.2,284.3 683.1,284.3 685.9,284.3 688.8,284.3 691.6,284.3 694.5,284.3 697.3,284.3 700.2,284.4 703.0,284.4 705.9,284.4 708.8,284.4 711.6,284.4 714.5,284.4 717.3,284.4 720.2,284.4 723.0,284.4 725.9,284.4 728.7,284.4 731.6,284.4 734.4,284.4 737.3,284.4 740.1,284.4 743.0,284.4 745.8,284.4 748.7,284.4 751.5,284.4 754.4,284.4 757.2,284.4 760.1,284.4 762.9,284.4 765.8,284.4 768.6,284.4 771.5,284.4 774.3,284.4 777.2,284.4 780.0,284.4 782.9,284.4 785.7,284.4 788.6,284.4 791.4,284.4 794.3,284.4 797.1,284.4 L797.1,284.5 L435.0,284.5 Z" fill="url(#g239)" clip-path="url(#c241)"/>
  <path d="M435.0,239.2 435.0,239.2 437.9,207.0 440.7,268.4 443.6,307.5 446.4,298.5 449.3,297.9 452.1,296.4 455.0,295.2 457.8,294.0 460.7,293.0 463.5,292.1 466.4,291.3 469.2,290.6 472.1,289.9 474.9,289.4 477.8,288.8 480.6,288.3 483.5,287.9 486.3,287.5 489.2,287.2 492.0,286.9 494.9,286.6 497.7,286.4 500.6,286.1 503.4,285.9 506.3,285.7 509.1,285.6 512.0,285.4 514.8,285.3 517.7,285.2 520.5,285.1 523.4,285.0 526.3,284.9 529.1,284.8 532.0,284.8 534.8,284.7 537.7,284.7 540.5,284.6 543.4,284.6 546.2,284.5 549.1,284.5 551.9,284.5 554.8,284.4 557.6,284.4 560.5,284.4 563.3,284.4 566.2,284.4 569.0,284.4 571.9,284.3 574.7,284.3 577.6,284.3 580.4,284.3 583.3,284.3 586.1,284.3 589.0,284.3 591.8,284.3 594.7,284.3 597.5,284.3 600.4,284.3 603.2,284.3 606.1,284.3 608.9,284.3 611.8,284.3 614.6,284.3 617.5,284.3 620.4,284.3 623.2,284.3 626.1,284.3 628.9,284.3 631.8,284.3 634.6,284.3 637.5,284.3 640.3,284.3 643.2,284.3 646.0,284.3 648.9,284.3 651.7,284.3 654.6,284.3 657.4,284.3 660.3,284.3 663.1,284.3 666.0,284.3 668.8,284.3 671.7,284.3 674.5,284.3 677.4,284.3 680.2,284.3 683.1,284.3 685.9,284.3 688.8,284.3 691.6,284.3 694.5,284.3 697.3,284.3 700.2,284.4 703.0,284.4 705.9,284.4 708.8,284.4 711.6,284.4 714.5,284.4 717.3,284.4 720.2,284.4 723.0,284.4 725.9,284.4 728.7,284.4 731.6,284.4 734.4,284.4 737.3,284.4 740.1,284.4 743.0,284.4 745.8,284.4 748.7,284.4 751.5,284.4 754.4,284.4 757.2,284.4 760.1,284.4 762.9,284.4 765.8,284.4 768.6,284.4 771.5,284.4 774.3,284.4 777.2,284.4 780.0,284.4 782.9,284.4 785.7,284.4 788.6,284.4 791.4,284.4 794.3,284.4 797.1,284.4 L797.1,284.5 L435.0,284.5 Z" fill="url(#g240)" clip-path="url(#c242)"/>
  <defs><clipPath id="pc243"><rect x="435" y="207" width="365" height="155"/></clipPath></defs>
  <polyline points="435.0,239.2 437.9,207.0 440.7,268.4 443.6,307.5 446.4,298.5 449.3,297.9 452.1,296.4 455.0,295.2 457.8,294.0 460.7,293.0 463.5,292.1 466.4,291.3 469.2,290.6 472.1,289.9 474.9,289.4 477.8,288.8 480.6,288.3 483.5,287.9 486.3,287.5 489.2,287.2 492.0,286.9 494.9,286.6 497.7,286.4 500.6,286.1 503.4,285.9 506.3,285.7 509.1,285.6 512.0,285.4 514.8,285.3 517.7,285.2 520.5,285.1 523.4,285.0 526.3,284.9 529.1,284.8 532.0,284.8 534.8,284.7 537.7,284.7 540.5,284.6 543.4,284.6 546.2,284.5 549.1,284.5 551.9,284.5 554.8,284.4 557.6,284.4 560.5,284.4 563.3,284.4 566.2,284.4 569.0,284.4 571.9,284.3 574.7,284.3 577.6,284.3 580.4,284.3 583.3,284.3 586.1,284.3 589.0,284.3 591.8,284.3 594.7,284.3 597.5,284.3 600.4,284.3 603.2,284.3 606.1,284.3 608.9,284.3 611.8,284.3 614.6,284.3 617.5,284.3 620.4,284.3 623.2,284.3 626.1,284.3 628.9,284.3 631.8,284.3 634.6,284.3 637.5,284.3 640.3,284.3 643.2,284.3 646.0,284.3 648.9,284.3 651.7,284.3 654.6,284.3 657.4,284.3 660.3,284.3 663.1,284.3 666.0,284.3 668.8,284.3 671.7,284.3 674.5,284.3 677.4,284.3 680.2,284.3 683.1,284.3 685.9,284.3 688.8,284.3 691.6,284.3 694.5,284.3 697.3,284.3 700.2,284.4 703.0,284.4 705.9,284.4 708.8,284.4 711.6,284.4 714.5,284.4 717.3,284.4 720.2,284.4 723.0,284.4 725.9,284.4 728.7,284.4 731.6,284.4 734.4,284.4 737.3,284.4 740.1,284.4 743.0,284.4 745.8,284.4 748.7,284.4 751.5,284.4 754.4,284.4 757.2,284.4 760.1,284.4 762.9,284.4 765.8,284.4 768.6,284.4 771.5,284.4 774.3,284.4 777.2,284.4 780.0,284.4 782.9,284.4 785.7,284.4 788.6,284.4 791.4,284.4 794.3,284.4 797.1,284.4" fill="none" stroke="#f39c12" stroke-width="1.3" stroke-linejoin="round" clip-path="url(#pc243)"/>
</svg>
