<svg xmlns="http://www.w3.org/2000/svg" viewBox="0 0 820 392" style="font-family:system-ui,-apple-system,sans-serif">
  <text x="800" y="11" text-anchor="end" font-size="11" font-weight="600" fill="#6b7280">Biquad lowshelf, fc=1kHz</text>
  <line x1="34" y1="16" x2="34" y2="171" stroke="#d1d5db"/>
  <line x1="34" y1="47.0" x2="392" y2="47.0" stroke="#d1d5db"/>
  <text x="213" y="197" text-anchor="middle" font-size="9" fill="#6b7280">Hz</text>
  <text x="12" y="93.5" text-anchor="middle" font-size="9" fill="#6b7280" transform="rotate(-90 12 93.5)">dB</text>
  <line x1="66.6" y1="16" x2="66.6" y2="171" stroke="#e5e7eb" stroke-width="0.5"/>
  <line x1="85.7" y1="16" x2="85.7" y2="171" stroke="#e5e7eb" stroke-width="0.5"/>
  <line x1="99.3" y1="16" x2="99.3" y2="171" stroke="#e5e7eb" stroke-width="0.5"/>
  <line x1="109.8" y1="16" x2="109.8" y2="171" stroke="#e5e7eb" stroke-width="0.5"/>
  <line x1="118.4" y1="16" x2="118.4" y2="171" stroke="#e5e7eb" stroke-width="0.5"/>
  <line x1="125.7" y1="16" x2="125.7" y2="171" stroke="#e5e7eb" stroke-width="0.5"/>
  <line x1="131.9" y1="16" x2="131.9" y2="171" stroke="#e5e7eb" stroke-width="0.5"/>
  <line x1="137.5" y1="16" x2="137.5" y2="171" stroke="#e5e7eb" stroke-width="0.5"/>
  <line x1="175.1" y1="16" x2="175.1" y2="171" stroke="#e5e7eb" stroke-width="0.5"/>
  <line x1="194.2" y1="16" x2="194.2" y2="171" stroke="#e5e7eb" stroke-width="0.5"/>
  <line x1="207.7" y1="16" x2="207.7" y2="171" stroke="#e5e7eb" stroke-width="0.5"/>
  <line x1="218.3" y1="16" x2="218.3" y2="171" stroke="#e5e7eb" stroke-width="0.5"/>
  <line x1="226.8" y1="16" x2="226.8" y2="171" stroke="#e5e7eb" stroke-width="0.5"/>
  <line x1="234.1" y1="16" x2="234.1" y2="171" stroke="#e5e7eb" stroke-width="0.5"/>
  <line x1="240.4" y1="16" x2="240.4" y2="171" stroke="#e5e7eb" stroke-width="0.5"/>
  <line x1="245.9" y1="16" x2="245.9" y2="171" stroke="#e5e7eb" stroke-width="0.5"/>
  <line x1="283.5" y1="16" x2="283.5" y2="171" stroke="#e5e7eb" stroke-width="0.5"/>
  <line x1="302.6" y1="16" x2="302.6" y2="171" stroke="#e5e7eb" stroke-width="0.5"/>
  <line x1="316.2" y1="16" x2="316.2" y2="171" stroke="#e5e7eb" stroke-width="0.5"/>
  <line x1="326.7" y1="16" x2="326.7" y2="171" stroke="#e5e7eb" stroke-width="0.5"/>
  <line x1="335.3" y1="16" x2="335.3" y2="171" stroke="#e5e7eb" stroke-width="0.5"/>
  <line x1="342.6" y1="16" x2="342.6" y2="171" stroke="#e5e7eb" stroke-width="0.5"/>
  <line x1="348.8" y1="16" x2="348.8" y2="171" stroke="#e5e7eb" stroke-width="0.5"/>
  <line x1="354.4" y1="16" x2="354.4" y2="171" stroke="#e5e7eb" stroke-width="0.5"/>
  <line x1="392.0" y1="16" x2="392.0" y2="171" stroke="#e5e7eb" stroke-width="0.5"/>
  <line x1="142.5" y1="16" x2="142.5" y2="171" stroke="#e5e7eb" stroke-width="0.5"/>
  <text x="142.5" y="183" text-anchor="middle" font-size="8" fill="#6b7280">100</text>
  <line x1="250.9" y1="16" x2="250.9" y2="171" stroke="#e5e7eb" stroke-width="0.5"/>
  <text x="250.9" y="183" text-anchor="middle" font-size="8" fill="#6b7280">1k</text>
  <line x1="359.4" y1="16" x2="359.4" y2="171" stroke="#e5e7eb" stroke-width="0.5"/>
  <text x="359.4" y="183" text-anchor="middle" font-size="8" fill="#6b7280">10k</text>
  <line x1="34" y1="31.5" x2="392" y2="31.5" stroke="#e5e7eb" stroke-width="0.5"/>
  <line x1="34" y1="62.5" x2="392" y2="62.5" stroke="#e5e7eb" stroke-width="0.5"/>
  <line x1="34" y1="16.0" x2="392" y2="16.0" stroke="#e5e7eb" stroke-width="0.5"/>
  <text x="30" y="19.0" text-anchor="end" font-size="8" fill="#6b7280">+20</text>
  <text x="30" y="50.0" text-anchor="end" font-size="8" fill="#6b7280">0</text>
  <line x1="34" y1="78.0" x2="392" y2="78.0" stroke="#e5e7eb" stroke-width="0.5"/>
  <text x="30" y="81.0" text-anchor="end" font-size="8" fill="#6b7280">-20</text>
  <line x1="34" y1="109.0" x2="392" y2="109.0" stroke="#e5e7eb" stroke-width="0.5"/>
  <text x="30" y="112.0" text-anchor="end" font-size="8" fill="#6b7280">-40</text>
  <line x1="34" y1="140.0" x2="392" y2="140.0" stroke="#e5e7eb" stroke-width="0.5"/>
  <text x="30" y="143.0" text-anchor="end" font-size="8" fill="#6b7280">-60</text>
  <line x1="34" y1="171.0" x2="392" y2="171.0" stroke="#e5e7eb" stroke-width="0.5"/>
  <text x="30" y="174.0" text-anchor="end" font-size="8" fill="#6b7280">-80</text>
  <line x1="250.9" y1="16" x2="250.9" y2="171" stroke="#d1d5db" stroke-width="1" stroke-dasharray="4 3"/>
  <defs><linearGradient id="g284" x1="0" y1="16" x2="0" y2="171" gradientUnits="userSpaceOnUse">
    <stop offset="0%" stop-color="#4a90d9" stop-opacity="0.15"/>
    <stop offset="100%" stop-color="#4a90d9" stop-opacity="0.02"/>
  </linearGradient></defs>
  <path d="M37.5,37.7 37.5,37.7 70.1,37.7 89.2,37.7 102.8,37.7 113.3,37.7 121.9,37.7 129.1,37.7 135.4,37.7 141.0,37.7 145.9,37.7 150.4,37.7 154.5,37.7 158.3,37.7 161.8,37.7 165.0,37.7 168.1,37.7 170.9,37.7 173.6,37.7 176.2,37.7 178.6,37.7 180.9,37.7 183.1,37.7 185.2,37.7 187.2,37.7 189.1,37.8 190.9,37.8 192.7,37.8 194.4,37.8 196.1,37.8 197.7,37.8 199.2,37.8 200.7,37.8 202.2,37.9 203.6,37.9 204.9,37.9 206.3,37.9 207.6,37.9 208.8,38.0 210.0,38.0 211.2,38.0 212.4,38.1 213.5,38.1 214.6,38.1 215.7,38.2 216.8,38.2 217.8,38.3 218.8,38.3 219.8,38.4 220.8,38.4 221.7,38.5 222.7,38.5 223.6,38.6 224.5,38.6 225.4,38.7 226.2,38.8 227.1,38.8 227.9,38.9 228.7,39.0 229.5,39.1 231.1,39.2 232.6,39.4 234.1,39.6 235.5,39.7 236.9,39.9 238.2,40.1 239.6,40.3 240.8,40.5 242.1,40.7 243.3,40.9 244.5,41.1 245.6,41.4 246.7,41.6 247.8,41.8 248.9,42.0 249.9,42.2 251.0,42.4 252.0,42.6 252.9,42.7 253.9,42.9 254.8,43.1 255.8,43.3 256.7,43.4 257.6,43.6 258.4,43.7 259.3,43.9 260.1,44.0 261.0,44.2 261.8,44.3 263.0,44.5 264.1,44.7 265.3,44.8 266.4,45.0 267.5,45.1 268.5,45.2 269.6,45.4 270.6,45.5 271.6,45.6 272.5,45.7 273.5,45.8 274.4,45.8 275.3,45.9 276.2,46.0 277.1,46.1 278.0,46.1 278.8,46.2 279.6,46.2 280.5,46.3 281.3,46.3 282.3,46.4 283.4,46.4 284.4,46.5 285.3,46.5 286.3,46.5 287.3,46.6 288.2,46.6 289.1,46.6 290.0,46.7 290.9,46.7 291.7,46.7 292.6,46.7 293.4,46.7 294.2,46.8 295.0,46.8 296.0,46.8 297.0,46.8 297.9,46.8 298.8,46.8 299.7,46.9 300.6,46.9 301.5,46.9 302.4,46.9 303.2,46.9 304.0,46.9 304.9,46.9 305.8,46.9 306.7,46.9 307.7,46.9 308.6,46.9 309.5,46.9 310.3,46.9 311.2,46.9 312.0,46.9 312.8,47.0 313.7,47.0 314.6,47.0 315.5,47.0 316.4,47.0 317.3,47.0 318.1,47.0 319.0,47.0 319.8,47.0 320.6,47.0 321.4,47.0 322.3,47.0 323.2,47.0 324.1,47.0 324.9,47.0 325.7,47.0 326.6,47.0 327.4,47.0 328.3,47.0 329.1,47.0 330.0,47.0 330.8,47.0 331.7,47.0 332.5,47.0 333.3,47.0 334.2,47.0 335.0,47.0 335.9,47.0 336.7,47.0 337.5,47.0 338.4,47.0 339.2,47.0 340.1,47.0 340.9,47.0 341.7,47.0 342.5,47.0 343.4,47.0 344.2,47.0 345.1,47.0 345.9,47.0 346.7,47.0 347.6,47.0 348.4,47.0 349.2,47.0 350.0,47.0 350.9,47.0 351.7,47.0 352.6,47.0 353.4,47.0 354.2,47.0 355.1,47.0 355.9,47.0 356.7,47.0 357.6,47.0 358.4,47.0 359.2,47.0 360.0,47.0 360.9,47.0 361.7,47.0 362.5,47.0 363.3,47.0 364.2,47.0 365.0,47.0 365.8,47.0 366.6,47.0 367.4,47.0 368.3,47.0 369.1,47.0 369.9,47.0 370.7,47.0 371.5,47.0 372.4,47.0 373.2,47.0 374.0,47.0 374.8,47.0 375.6,47.0 376.4,47.0 377.2,47.0 378.1,47.0 378.9,47.0 379.7,47.0 380.5,47.0 381.3,47.0 382.1,47.0 383.0,47.0 383.8,47.0 384.6,47.0 385.4,47.0 386.2,47.0 387.0,47.0 387.9,47.0 388.7,47.0 389.5,47.0 390.3,47.0 391.1,47.0 391.9,47.0 L391.9,171.0 L37.5,171.0 Z" fill="url(#g284)"/>
  <defs><clipPath id="pc285"><rect x="34" y="16" width="358" height="155"/></clipPath></defs>
  <polyline points="37.5,37.7 70.1,37.7 89.2,37.7 102.8,37.7 113.3,37.7 121.9,37.7 129.1,37.7 135.4,37.7 141.0,37.7 145.9,37.7 150.4,37.7 154.5,37.7 158.3,37.7 161.8,37.7 165.0,37.7 168.1,37.7 170.9,37.7 173.6,37.7 176.2,37.7 178.6,37.7 180.9,37.7 183.1,37.7 185.2,37.7 187.2,37.7 189.1,37.8 190.9,37.8 192.7,37.8 194.4,37.8 196.1,37.8 197.7,37.8 199.2,37.8 200.7,37.8 202.2,37.9 203.6,37.9 204.9,37.9 206.3,37.9 207.6,37.9 208.8,38.0 210.0,38.0 211.2,38.0 212.4,38.1 213.5,38.1 214.6,38.1 215.7,38.2 216.8,38.2 217.8,38.3 218.8,38.3 219.8,38.4 220.8,38.4 221.7,38.5 222.7,38.5 223.6,38.6 224.5,38.6 225.4,38.7 226.2,38.8 227.1,38.8 227.9,38.9 228.7,39.0 229.5,39.1 231.1,39.2 232.6,39.4 234.1,39.6 235.5,39.7 236.9,39.9 238.2,40.1 239.6,40.3 240.8,40.5 242.1,40.7 243.3,40.9 244.5,41.1 245.6,41.4 246.7,41.6 247.8,41.8 248.9,42.0 249.9,42.2 251.0,42.4 252.0,42.6 252.9,42.7 253.9,42.9 254.8,43.1 255.8,43.3 256.7,43.4 257.6,43.6 258.4,43.7 259.3,43.9 260.1,44.0 261.0,44.2 261.8,44.3 263.0,44.5 264.1,44.7 265.3,44.8 266.4,45.0 267.5,45.1 268.5,45.2 269.6,45.4 270.6,45.5 271.6,45.6 272.5,45.7 273.5,45.8 274.4,45.8 275.3,45.9 276.2,46.0 277.1,46.1 278.0,46.1 278.8,46.2 279.6,46.2 280.5,46.3 281.3,46.3 282.3,46.4 283.4,46.4 284.4,46.5 285.3,46.5 286.3,46.5 287.3,46.6 288.2,46.6 289.1,46.6 290.0,46.7 290.9,46.7 291.7,46.7 292.6,46.7 293.4,46.7 294.2,46.8 295.0,46.8 296.0,46.8 297.0,46.8 297.9,46.8 298.8,46.8 299.7,46.9 300.6,46.9 301.5,46.9 302.4,46.9 303.2,46.9 304.0,46.9 304.9,46.9 305.8,46.9 306.7,46.9 307.7,46.9 308.6,46.9 309.5,46.9 310.3,46.9 311.2,46.9 312.0,46.9 312.8,47.0 313.7,47.0 314.6,47.0 315.5,47.0 316.4,47.0 317.3,47.0 318.1,47.0 319.0,47.0 319.8,47.0 320.6,47.0 321.4,47.0 322.3,47.0 323.2,47.0 324.1,47.0 324.9,47.0 325.7,47.0 326.6,47.0 327.4,47.0 328.3,47.0 329.1,47.0 330.0,47.0 330.8,47.0 331.7,47.0 332.5,47.0 333.3,47.0 334.2,47.0 335.0,47.0 335.9,47.0 336.7,47.0 337.5,47.0 338.4,47.0 339.2,47.0 340.1,47.0 340.9,47.0 341.7,47.0 342.5,47.0 343.4,47.0 344.2,47.0 345.1,47.0 345.9,47.0 346.7,47.0 347.6,47.0 348.4,47.0 349.2,47.0 350.0,47.0 350.9,47.0 351.7,47.0 352.6,47.0 353.4,47.0 354.2,47.0 355.1,47.0 355.9,47.0 356.7,47.0 357.6,47.0 358.4,47.0 359.2,47.0 360.0,47.0 360.9,47.0 361.7,47.0 362.5,47.0 363.3,47.0 364.2,47.0 365.0,47.0 365.8,47.0 366.6,47.0 367.4,47.0 368.3,47.0 369.1,47.0 369.9,47.0 370.7,47.0 371.5,47.0 372.4,47.0 373.2,47.0 374.0,47.0 374.8,47.0 375.6,47.0 376.4,47.0 377.2,47.0 378.1,47.0 378.9,47.0 379.7,47.0 380.5,47.0 381.3,47.0 382.1,47.0 383.0,47.0 383.8,47.0 384.6,47.0 385.4,47.0 386.2,47.0 387.0,47.0 387.9,47.0 388.7,47.0 389.5,47.0 390.3,47.0 391.1,47.0 391.9,47.0" fill="none" stroke="#4a90d9" stroke-width="1.5" stroke-linejoin="round" clip-path="url(#pc285)"/>
  <line x1="442" y1="16" x2="442" y2="171" stroke="#d1d5db"/>
  <line x1="442" y1="93.5" x2="800" y2="93.5" stroke="#d1d5db"/>
  <text x="621" y="197" text-anchor="middle" font-size="9" fill="#6b7280">Hz</text>
  <text x="420" y="93.5" text-anchor="middle" font-size="9" fill="#6b7280" transform="rotate(-90 420 93.5)">Phase (deg)</text>
  <line x1="474.6" y1="16" x2="474.6" y2="171" stroke="#e5e7eb" stroke-width="0.5"/>
  <line x1="493.7" y1="16" x2="493.7" y2="171" stroke="#e5e7eb" stroke-width="0.5"/>
  <line x1="507.3" y1="16" x2="507.3" y2="171" stroke="#e5e7eb" stroke-width="0.5"/>
  <line x1="517.8" y1="16" x2="517.8" y2="171" stroke="#e5e7eb" stroke-width="0.5"/>
  <line x1="526.4" y1="16" x2="526.4" y2="171" stroke="#e5e7eb" stroke-width="0.5"/>
  <line x1="533.7" y1="16" x2="533.7" y2="171" stroke="#e5e7eb" stroke-width="0.5"/>
  <line x1="539.9" y1="16" x2="539.9" y2="171" stroke="#e5e7eb" stroke-width="0.5"/>
  <line x1="545.5" y1="16" x2="545.5" y2="171" stroke="#e5e7eb" stroke-width="0.5"/>
  <line x1="583.1" y1="16" x2="583.1" y2="171" stroke="#e5e7eb" stroke-width="0.5"/>
  <line x1="602.2" y1="16" x2="602.2" y2="171" stroke="#e5e7eb" stroke-width="0.5"/>
  <line x1="615.7" y1="16" x2="615.7" y2="171" stroke="#e5e7eb" stroke-width="0.5"/>
  <line x1="626.3" y1="16" x2="626.3" y2="171" stroke="#e5e7eb" stroke-width="0.5"/>
  <line x1="634.8" y1="16" x2="634.8" y2="171" stroke="#e5e7eb" stroke-width="0.5"/>
  <line x1="642.1" y1="16" x2="642.1" y2="171" stroke="#e5e7eb" stroke-width="0.5"/>
  <line x1="648.4" y1="16" x2="648.4" y2="171" stroke="#e5e7eb" stroke-width="0.5"/>
  <line x1="653.9" y1="16" x2="653.9" y2="171" stroke="#e5e7eb" stroke-width="0.5"/>
  <line x1="691.5" y1="16" x2="691.5" y2="171" stroke="#e5e7eb" stroke-width="0.5"/>
  <line x1="710.6" y1="16" x2="710.6" y2="171" stroke="#e5e7eb" stroke-width="0.5"/>
  <line x1="724.2" y1="16" x2="724.2" y2="171" stroke="#e5e7eb" stroke-width="0.5"/>
  <line x1="734.7" y1="16" x2="734.7" y2="171" stroke="#e5e7eb" stroke-width="0.5"/>
  <line x1="743.3" y1="16" x2="743.3" y2="171" stroke="#e5e7eb" stroke-width="0.5"/>
  <line x1="750.6" y1="16" x2="750.6" y2="171" stroke="#e5e7eb" stroke-width="0.5"/>
  <line x1="756.8" y1="16" x2="756.8" y2="171" stroke="#e5e7eb" stroke-width="0.5"/>
  <line x1="762.4" y1="16" x2="762.4" y2="171" stroke="#e5e7eb" stroke-width="0.5"/>
  <line x1="800.0" y1="16" x2="800.0" y2="171" stroke="#e5e7eb" stroke-width="0.5"/>
  <line x1="550.5" y1="16" x2="550.5" y2="171" stroke="#e5e7eb" stroke-width="0.5"/>
  <text x="550.5" y="183" text-anchor="middle" font-size="8" fill="#6b7280">100</text>
  <line x1="658.9" y1="16" x2="658.9" y2="171" stroke="#e5e7eb" stroke-width="0.5"/>
  <text x="658.9" y="183" text-anchor="middle" font-size="8" fill="#6b7280">1k</text>
  <line x1="767.4" y1="16" x2="767.4" y2="171" stroke="#e5e7eb" stroke-width="0.5"/>
  <text x="767.4" y="183" text-anchor="middle" font-size="8" fill="#6b7280">10k</text>
  <line x1="442" y1="54.8" x2="800" y2="54.8" stroke="#e5e7eb" stroke-width="0.5"/>
  <line x1="442" y1="132.3" x2="800" y2="132.3" stroke="#e5e7eb" stroke-width="0.5"/>
  <line x1="442" y1="16.0" x2="800" y2="16.0" stroke="#e5e7eb" stroke-width="0.5"/>
  <text x="438" y="19.0" text-anchor="end" font-size="8" fill="#6b7280">180</text>
  <text x="438" y="96.5" text-anchor="end" font-size="8" fill="#6b7280">0</text>
  <line x1="442" y1="171.0" x2="800" y2="171.0" stroke="#e5e7eb" stroke-width="0.5"/>
  <text x="438" y="174.0" text-anchor="end" font-size="8" fill="#6b7280">-180</text>
  <line x1="658.9" y1="16" x2="658.9" y2="171" stroke="#d1d5db" stroke-width="1" stroke-dasharray="4 3"/>
  <defs><linearGradient id="g286" x1="0" y1="171" x2="0" y2="93.5" gradientUnits="userSpaceOnUse">
    <stop offset="0%" stop-color="#e74c3c" stop-opacity="0.15"/>
    <stop offset="100%" stop-color="#e74c3c" stop-opacity="0.02"/>
  </linearGradient></defs>
  <path d="M445.5,93.6 445.5,93.6 478.1,93.8 497.2,93.9 510.8,94.0 521.3,94.2 529.9,94.3 537.1,94.4 543.4,94.5 549.0,94.7 553.9,94.8 558.4,95.0 562.5,95.1 566.3,95.2 569.8,95.4 573.0,95.5 576.1,95.6 578.9,95.8 581.6,95.9 584.2,96.1 586.6,96.2 588.9,96.4 591.1,96.5 593.2,96.7 595.2,96.8 597.1,97.0 598.9,97.1 600.7,97.3 602.4,97.5 604.1,97.6 605.7,97.8 607.2,97.9 608.7,98.1 610.2,98.3 611.6,98.4 612.9,98.6 614.3,98.8 615.6,99.0 616.8,99.1 618.0,99.3 619.2,99.5 620.4,99.7 621.5,99.8 622.6,100.0 623.7,100.2 624.8,100.4 625.8,100.5 626.8,100.7 627.8,100.9 628.8,101.1 629.7,101.2 630.7,101.4 631.6,101.6 632.5,101.8 633.4,101.9 634.2,102.1 635.1,102.2 635.9,102.4 636.7,102.6 637.5,102.7 639.1,103.0 640.6,103.3 642.1,103.6 643.5,103.8 644.9,104.1 646.2,104.3 647.6,104.5 648.8,104.7 650.1,104.8 651.3,105.0 652.5,105.1 653.6,105.2 654.7,105.2 655.8,105.3 656.9,105.3 657.9,105.4 659.0,105.4 660.0,105.4 660.9,105.3 661.9,105.3 662.8,105.3 663.8,105.2 664.7,105.1 665.6,105.0 666.4,105.0 667.3,104.9 668.1,104.8 669.0,104.7 669.8,104.5 671.0,104.4 672.1,104.2 673.3,104.0 674.4,103.8 675.5,103.6 676.5,103.4 677.6,103.2 678.6,103.0 679.6,102.8 680.5,102.7 681.5,102.5 682.4,102.3 683.3,102.1 684.2,101.9 685.1,101.8 686.0,101.6 686.8,101.4 687.6,101.3 688.5,101.1 689.3,101.0 690.3,100.8 691.4,100.6 692.4,100.4 693.3,100.3 694.3,100.1 695.3,100.0 696.2,99.8 697.1,99.7 698.0,99.5 698.9,99.4 699.7,99.3 700.6,99.1 701.4,99.0 702.2,98.9 703.0,98.8 704.0,98.7 705.0,98.5 705.9,98.4 706.8,98.3 707.7,98.2 708.6,98.1 709.5,98.0 710.4,97.9 711.2,97.8 712.0,97.7 712.9,97.6 713.8,97.5 714.7,97.4 715.7,97.4 716.6,97.3 717.5,97.2 718.3,97.1 719.2,97.0 720.0,97.0 720.8,96.9 721.7,96.8 722.6,96.7 723.5,96.7 724.4,96.6 725.3,96.5 726.1,96.5 727.0,96.4 727.8,96.4 728.6,96.3 729.4,96.2 730.3,96.2 731.2,96.1 732.1,96.1 732.9,96.0 733.7,96.0 734.6,95.9 735.4,95.9 736.3,95.8 737.1,95.8 738.0,95.7 738.8,95.7 739.7,95.6 740.5,95.6 741.3,95.5 742.2,95.5 743.0,95.5 743.9,95.4 744.7,95.4 745.5,95.3 746.4,95.3 747.2,95.3 748.1,95.2 748.9,95.2 749.7,95.1 750.5,95.1 751.4,95.1 752.2,95.0 753.1,95.0 753.9,95.0 754.7,94.9 755.6,94.9 756.4,94.9 757.2,94.9 758.0,94.8 758.9,94.8 759.7,94.8 760.6,94.7 761.4,94.7 762.2,94.7 763.1,94.6 763.9,94.6 764.7,94.6 765.6,94.6 766.4,94.5 767.2,94.5 768.0,94.5 768.9,94.5 769.7,94.4 770.5,94.4 771.3,94.4 772.2,94.4 773.0,94.3 773.8,94.3 774.6,94.3 775.4,94.3 776.3,94.2 777.1,94.2 777.9,94.2 778.7,94.2 779.5,94.2 780.4,94.1 781.2,94.1 782.0,94.1 782.8,94.1 783.6,94.0 784.4,94.0 785.2,94.0 786.1,94.0 786.9,94.0 787.7,93.9 788.5,93.9 789.3,93.9 790.1,93.9 791.0,93.9 791.8,93.8 792.6,93.8 793.4,93.8 794.2,93.8 795.0,93.8 795.9,93.7 796.7,93.7 797.5,93.7 798.3,93.7 799.1,93.7 799.9,93.6 L799.9,93.5 L445.5,93.5 Z" fill="url(#g286)"/>
  <defs><clipPath id="pc287"><rect x="442" y="16" width="358" height="155"/></clipPath></defs>
  <polyline points="445.5,93.6 478.1,93.8 497.2,93.9 510.8,94.0 521.3,94.2 529.9,94.3 537.1,94.4 543.4,94.5 549.0,94.7 553.9,94.8 558.4,95.0 562.5,95.1 566.3,95.2 569.8,95.4 573.0,95.5 576.1,95.6 578.9,95.8 581.6,95.9 584.2,96.1 586.6,96.2 588.9,96.4 591.1,96.5 593.2,96.7 595.2,96.8 597.1,97.0 598.9,97.1 600.7,97.3 602.4,97.5 604.1,97.6 605.7,97.8 607.2,97.9 608.7,98.1 610.2,98.3 611.6,98.4 612.9,98.6 614.3,98.8 615.6,99.0 616.8,99.1 618.0,99.3 619.2,99.5 620.4,99.7 621.5,99.8 622.6,100.0 623.7,100.2 624.8,100.4 625.8,100.5 626.8,100.7 627.8,100.9 628.8,101.1 629.7,101.2 630.7,101.4 631.6,101.6 632.5,101.8 633.4,101.9 634.2,102.1 635.1,102.2 635.9,102.4 636.7,102.6 637.5,102.7 639.1,103.0 640.6,103.3 642.1,103.6 643.5,103.8 644.9,104.1 646.2,104.3 647.6,104.5 648.8,104.7 650.1,104.8 651.3,105.0 652.5,105.1 653.6,105.2 654.7,105.2 655.8,105.3 656.9,105.3 657.9,105.4 659.0,105.4 660.0,105.4 660.9,105.3 661.9,105.3 662.8,105.3 663.8,105.2 664.7,105.1 665.6,105.0 666.4,105.0 667.3,104.9 668.1,104.8 669.0,104.7 669.8,104.5 671.0,104.4 672.1,104.2 673.3,104.0 674.4,103.8 675.5,103.6 676.5,103.4 677.6,103.2 678.6,103.0 679.6,102.8 680.5,102.7 681.5,102.5 682.4,102.3 683.3,102.1 684.2,101.9 685.1,101.8 686.0,101.6 686.8,101.4 687.6,101.3 688.5,101.1 689.3,101.0 690.3,100.8 691.4,100.6 692.4,100.4 693.3,100.3 694.3,100.1 695.3,100.0 696.2,99.8 697.1,99.7 698.0,99.5 698.9,99.4 699.7,99.3 700.6,99.1 701.4,99.0 702.2,98.9 703.0,98.8 704.0,98.7 705.0,98.5 705.9,98.4 706.8,98.3 707.7,98.2 708.6,98.1 709.5,98.0 710.4,97.9 711.2,97.8 712.0,97.7 712.9,97.6 713.8,97.5 714.7,97.4 715.7,97.4 716.6,97.3 717.5,97.2 718.3,97.1 719.2,97.0 720.0,97.0 720.8,96.9 721.7,96.8 722.6,96.7 723.5,96.7 724.4,96.6 725.3,96.5 726.1,96.5 727.0,96.4 727.8,96.4 728.6,96.3 729.4,96.2 730.3,96.2 731.2,96.1 732.1,96.1 732.9,96.0 733.7,96.0 734.6,95.9 735.4,95.9 736.3,95.8 737.1,95.8 738.0,95.7 738.8,95.7 739.7,95.6 740.5,95.6 741.3,95.5 742.2,95.5 743.0,95.5 743.9,95.4 744.7,95.4 745.5,95.3 746.4,95.3 747.2,95.3 748.1,95.2 748.9,95.2 749.7,95.1 750.5,95.1 751.4,95.1 752.2,95.0 753.1,95.0 753.9,95.0 754.7,94.9 755.6,94.9 756.4,94.9 757.2,94.9 758.0,94.8 758.9,94.8 759.7,94.8 760.6,94.7 761.4,94.7 762.2,94.7 763.1,94.6 763.9,94.6 764.7,94.6 765.6,94.6 766.4,94.5 767.2,94.5 768.0,94.5 768.9,94.5 769.7,94.4 770.5,94.4 771.3,94.4 772.2,94.4 773.0,94.3 773.8,94.3 774.6,94.3 775.4,94.3 776.3,94.2 777.1,94.2 777.9,94.2 778.7,94.2 779.5,94.2 780.4,94.1 781.2,94.1 782.0,94.1 782.8,94.1 783.6,94.0 784.4,94.0 785.2,94.0 786.1,94.0 786.9,94.0 787.7,93.9 788.5,93.9 789.3,93.9 790.1,93.9 791.0,93.9 791.8,93.8 792.6,93.8 793.4,93.8 794.2,93.8 795.0,93.8 795.9,93.7 796.7,93.7 797.5,93.7 798.3,93.7 799.1,93.7 799.9,93.6" fill="none" stroke="#e74c3c" stroke-width="1.5" stroke-linejoin="round" clip-path="url(#pc287)"/>
  <line x1="34" y1="221" x2="34" y2="376" stroke="#d1d5db"/>
  <line x1="34" y1="298.5" x2="392" y2="298.5" stroke="#d1d5db"/>
  <text x="213" y="402" text-anchor="middle" font-size="9" fill="#6b7280">Hz</text>
  <text x="12" y="298.5" text-anchor="middle" font-size="9" fill="#6b7280" transform="rotate(-90 12 298.5)">Group delay</text>
  <line x1="66.6" y1="221" x2="66.6" y2="376" stroke="#e5e7eb" stroke-width="0.5"/>
  <line x1="85.7" y1="221" x2="85.7" y2="376" stroke="#e5e7eb" stroke-width="0.5"/>
  <line x1="99.3" y1="221" x2="99.3" y2="376" stroke="#e5e7eb" stroke-width="0.5"/>
  <line x1="109.8" y1="221" x2="109.8" y2="376" stroke="#e5e7eb" stroke-width="0.5"/>
  <line x1="118.4" y1="221" x2="118.4" y2="376" stroke="#e5e7eb" stroke-width="0.5"/>
  <line x1="125.7" y1="221" x2="125.7" y2="376" stroke="#e5e7eb" stroke-width="0.5"/>
  <line x1="131.9" y1="221" x2="131.9" y2="376" stroke="#e5e7eb" stroke-width="0.5"/>
  <line x1="137.5" y1="221" x2="137.5" y2="376" stroke="#e5e7eb" stroke-width="0.5"/>
  <line x1="175.1" y1="221" x2="175.1" y2="376" stroke="#e5e7eb" stroke-width="0.5"/>
  <line x1="194.2" y1="221" x2="194.2" y2="376" stroke="#e5e7eb" stroke-width="0.5"/>
  <line x1="207.7" y1="221" x2="207.7" y2="376" stroke="#e5e7eb" stroke-width="0.5"/>
  <line x1="218.3" y1="221" x2="218.3" y2="376" stroke="#e5e7eb" stroke-width="0.5"/>
  <line x1="226.8" y1="221" x2="226.8" y2="376" stroke="#e5e7eb" stroke-width="0.5"/>
  <line x1="234.1" y1="221" x2="234.1" y2="376" stroke="#e5e7eb" stroke-width="0.5"/>
  <line x1="240.4" y1="221" x2="240.4" y2="376" stroke="#e5e7eb" stroke-width="0.5"/>
  <line x1="245.9" y1="221" x2="245.9" y2="376" stroke="#e5e7eb" stroke-width="0.5"/>
  <line x1="283.5" y1="221" x2="283.5" y2="376" stroke="#e5e7eb" stroke-width="0.5"/>
  <line x1="302.6" y1="221" x2="302.6" y2="376" stroke="#e5e7eb" stroke-width="0.5"/>
  <line x1="316.2" y1="221" x2="316.2" y2="376" stroke="#e5e7eb" stroke-width="0.5"/>
  <line x1="326.7" y1="221" x2="326.7" y2="376" stroke="#e5e7eb" stroke-width="0.5"/>
  <line x1="335.3" y1="221" x2="335.3" y2="376" stroke="#e5e7eb" stroke-width="0.5"/>
  <line x1="342.6" y1="221" x2="342.6" y2="376" stroke="#e5e7eb" stroke-width="0.5"/>
  <line x1="348.8" y1="221" x2="348.8" y2="376" stroke="#e5e7eb" stroke-width="0.5"/>
  <line x1="354.4" y1="221" x2="354.4" y2="376" stroke="#e5e7eb" stroke-width="0.5"/>
  <line x1="392.0" y1="221" x2="392.0" y2="376" stroke="#e5e7eb" stroke-width="0.5"/>
  <line x1="142.5" y1="221" x2="142.5" y2="376" stroke="#e5e7eb" stroke-width="0.5"/>
  <text x="142.5" y="388" text-anchor="middle" font-size="8" fill="#6b7280">100</text>
  <line x1="250.9" y1="221" x2="250.9" y2="376" stroke="#e5e7eb" stroke-width="0.5"/>
  <text x="250.9" y="388" text-anchor="middle" font-size="8" fill="#6b7280">1k</text>
  <line x1="359.4" y1="221" x2="359.4" y2="376" stroke="#e5e7eb" stroke-width="0.5"/>
  <text x="359.4" y="388" text-anchor="middle" font-size="8" fill="#6b7280">10k</text>
  <line x1="34" y1="346.0" x2="392" y2="346.0" stroke="#e5e7eb" stroke-width="0.5"/>
  <text x="30" y="349.0" text-anchor="end" font-size="8" fill="#6b7280">-4</text>
  <text x="30" y="301.5" text-anchor="end" font-size="8" fill="#6b7280">0</text>
  <line x1="34" y1="251.0" x2="392" y2="251.0" stroke="#e5e7eb" stroke-width="0.5"/>
  <text x="30" y="254.0" text-anchor="end" font-size="8" fill="#6b7280">4</text>
  <line x1="250.9" y1="221" x2="250.9" y2="376" stroke="#d1d5db" stroke-width="1" stroke-dasharray="4 3"/>
  <defs><linearGradient id="g288" x1="0" y1="376" x2="0" y2="298.5" gradientUnits="userSpaceOnUse">
    <stop offset="0%" stop-color="#2ecc71" stop-opacity="0.15"/>
    <stop offset="100%" stop-color="#2ecc71" stop-opacity="0.02"/>
  </linearGradient></defs>
  <path d="M37.5,298.5 37.5,298.5 70.1,298.5 89.2,298.5 102.8,298.5 113.3,298.5 121.9,298.6 129.1,298.6 135.4,298.7 141.0,298.7 145.9,298.8 150.4,298.9 154.5,299.0 158.3,299.2 161.8,299.4 165.0,299.5 168.1,299.8 170.9,300.0 173.6,300.3 176.2,300.6 178.6,301.0 180.9,301.4 183.1,301.8 185.2,302.2 187.2,302.7 189.1,303.3 190.9,303.9 192.7,304.5 194.4,305.2 196.1,305.9 197.7,306.6 199.2,307.4 200.7,308.3 202.2,309.2 203.6,310.1 204.9,311.1 206.3,312.2 207.6,313.3 208.8,314.4 210.0,315.5 211.2,316.7 212.4,318.0 213.5,319.3 214.6,320.6 215.7,321.9 216.8,323.3 217.8,324.7 218.8,326.1 219.8,327.5 220.8,328.9 221.7,330.4 222.7,331.8 223.6,333.3 224.5,334.7 225.4,336.1 226.2,337.6 227.1,339.0 227.9,340.4 228.7,341.7 229.5,343.0 231.1,345.6 232.6,347.9 234.1,350.1 235.5,352.0 236.9,353.7 238.2,355.1 239.6,356.2 240.8,357.1 242.1,357.7 243.3,358.0 244.5,358.1 245.6,357.9 246.7,357.6 247.8,356.9 248.9,356.1 249.9,355.2 251.0,354.0 252.0,352.8 252.9,351.4 253.9,349.9 254.8,348.4 255.8,346.8 256.7,345.2 257.6,343.5 258.4,341.8 259.3,340.1 260.1,338.5 261.0,336.8 261.8,335.2 263.0,332.8 264.1,330.5 265.3,328.3 266.4,326.3 267.5,324.3 268.5,322.4 269.6,320.7 270.6,319.1 271.6,317.6 272.5,316.2 273.5,314.9 274.4,313.7 275.3,312.5 276.2,311.5 277.1,310.5 278.0,309.7 278.8,308.9 279.6,308.1 280.5,307.4 281.3,306.8 282.3,306.0 283.4,305.3 284.4,304.7 285.3,304.1 286.3,303.6 287.3,303.2 288.2,302.8 289.1,302.4 290.0,302.1 290.9,301.8 291.7,301.5 292.6,301.3 293.4,301.0 294.2,300.8 295.0,300.6 296.0,300.4 297.0,300.3 297.9,300.1 298.8,299.9 299.7,299.8 300.6,299.7 301.5,299.6 302.4,299.5 303.2,299.4 304.0,299.3 304.9,299.3 305.8,299.2 306.7,299.1 307.7,299.1 308.6,299.0 309.5,299.0 310.3,298.9 311.2,298.9 312.0,298.9 312.8,298.8 313.7,298.8 314.6,298.8 315.5,298.7 316.4,298.7 317.3,298.7 318.1,298.7 319.0,298.7 319.8,298.7 320.6,298.6 321.4,298.6 322.3,298.6 323.2,298.6 324.1,298.6 324.9,298.6 325.7,298.6 326.6,298.6 327.4,298.6 328.3,298.6 329.1,298.6 330.0,298.6 330.8,298.5 331.7,298.5 332.5,298.5 333.3,298.5 334.2,298.5 335.0,298.5 335.9,298.5 336.7,298.5 337.5,298.5 338.4,298.5 339.2,298.5 340.1,298.5 340.9,298.5 341.7,298.5 342.5,298.5 343.4,298.5 344.2,298.5 345.1,298.5 345.9,298.5 346.7,298.5 347.6,298.5 348.4,298.5 349.2,298.5 350.0,298.5 350.9,298.5 351.7,298.5 352.6,298.5 353.4,298.5 354.2,298.5 355.1,298.5 355.9,298.5 356.7,298.5 357.6,298.5 358.4,298.5 359.2,298.5 360.0,298.5 360.9,298.5 361.7,298.5 362.5,298.5 363.3,298.5 364.2,298.5 365.0,298.5 365.8,298.5 366.6,298.5 367.4,298.5 368.3,298.5 369.1,298.5 369.9,298.5 370.7,298.5 371.5,298.5 372.4,298.5 373.2,298.5 374.0,298.5 374.8,298.5 375.6,298.5 376.4,298.5 377.2,298.5 378.1,298.5 378.9,298.5 379.7,298.5 380.5,298.5 381.3,298.5 382.1,298.5 383.0,298.5 383.8,298.5 384.6,298.5 385.4,298.5 386.2,298.5 387.0,298.5 387.9,298.5 388.7,298.5 389.5,298.5 390.3,298.5 391.1,298.5 391.9,298.5 L391.9,298.5 L37.5,298.5 Z" fill="url(#g288)"/>
  <defs><clipPath id="pc289"><rect x="34" y="221" width="358" height="155"/></clipPath></defs>
  <polyline points="37.5,298.5 70.1,298.5 89.2,298.5 102.8,298.5 113.3,298.5 121.9,298.6 129.1,298.6 135.4,298.7 141.0,298.7 145.9,298.8 150.4,298.9 154.5,299.0 158.3,299.2 161.8,299.4 165.0,299.5 168.1,299.8 170.9,300.0 173.6,300.3 176.2,300.6 178.6,301.0 180.9,301.4 183.1,301.8 185.2,302.2 187.2,302.7 189.1,303.3 190.9,303.9 192.7,304.5 194.4,305.2 196.1,305.9 197.7,306.6 199.2,307.4 200.7,308.3 202.2,309.2 203.6,310.1 204.9,311.1 206.3,312.2 207.6,313.3 208.8,314.4 210.0,315.5 211.2,316.7 212.4,318.0 213.5,319.3 214.6,320.6 215.7,321.9 216.8,323.3 217.8,324.7 218.8,326.1 219.8,327.5 220.8,328.9 221.7,330.4 222.7,331.8 223.6,333.3 224.5,334.7 225.4,336.1 226.2,337.6 227.1,339.0 227.9,340.4 228.7,341.7 229.5,343.0 231.1,345.6 232.6,347.9 234.1,350.1 235.5,352.0 236.9,353.7 238.2,355.1 239.6,356.2 240.8,357.1 242.1,357.7 243.3,358.0 244.5,358.1 245.6,357.9 246.7,357.6 247.8,356.9 248.9,356.1 249.9,355.2 251.0,354.0 252.0,352.8 252.9,351.4 253.9,349.9 254.8,348.4 255.8,346.8 256.7,345.2 257.6,343.5 258.4,341.8 259.3,340.1 260.1,338.5 261.0,336.8 261.8,335.2 263.0,332.8 264.1,330.5 265.3,328.3 266.4,326.3 267.5,324.3 268.5,322.4 269.6,320.7 270.6,319.1 271.6,317.6 272.5,316.2 273.5,314.9 274.4,313.7 275.3,312.5 276.2,311.5 277.1,310.5 278.0,309.7 278.8,308.9 279.6,308.1 280.5,307.4 281.3,306.8 282.3,306.0 283.4,305.3 284.4,304.7 285.3,304.1 286.3,303.6 287.3,303.2 288.2,302.8 289.1,302.4 290.0,302.1 290.9,301.8 291.7,301.5 292.6,301.3 293.4,301.0 294.2,300.8 295.0,300.6 296.0,300.4 297.0,300.3 297.9,300.1 298.8,299.9 299.7,299.8 300.6,299.7 301.5,299.6 302.4,299.5 303.2,299.4 304.0,299.3 304.9,299.3 305.8,299.2 306.7,299.1 307.7,299.1 308.6,299.0 309.5,299.0 310.3,298.9 311.2,298.9 312.0,298.9 312.8,298.8 313.7,298.8 314.6,298.8 315.5,298.7 316.4,298.7 317.3,298.7 318.1,298.7 319.0,298.7 319.8,298.7 320.6,298.6 321.4,298.6 322.3,298.6 323.2,298.6 324.1,298.6 324.9,298.6 325.7,298.6 326.6,298.6 327.4,298.6 328.3,298.6 329.1,298.6 330.0,298.6 330.8,298.5 331.7,298.5 332.5,298.5 333.3,298.5 334.2,298.5 335.0,298.5 335.9,298.5 336.7,298.5 337.5,298.5 338.4,298.5 339.2,298.5 340.1,298.5 340.9,298.5 341.7,298.5 342.5,298.5 343.4,298.5 344.2,298.5 345.1,298.5 345.9,298.5 346.7,298.5 347.6,298.5 348.4,298.5 349.2,298.5 350.0,298.5 350.9,298.5 351.7,298.5 352.6,298.5 353.4,298.5 354.2,298.5 355.1,298.5 355.9,298.5 356.7,298.5 357.6,298.5 358.4,298.5 359.2,298.5 360.0,298.5 360.9,298.5 361.7,298.5 362.5,298.5 363.3,298.5 364.2,298.5 365.0,298.5 365.8,298.5 366.6,298.5 367.4,298.5 368.3,298.5 369.1,298.5 369.9,298.5 370.7,298.5 371.5,298.5 372.4,298.5 373.2,298.5 374.0,298.5 374.8,298.5 375.6,298.5 376.4,298.5 377.2,298.5 378.1,298.5 378.9,298.5 379.7,298.5 380.5,298.5 381.3,298.5 382.1,298.5 383.0,298.5 383.8,298.5 384.6,298.5 385.4,298.5 386.2,298.5 387.0,298.5 387.9,298.5 388.7,298.5 389.5,298.5 390.3,298.5 391.1,298.5 391.9,298.5" fill="none" stroke="#2ecc71" stroke-width="1.5" stroke-linejoin="round" clip-path="url(#pc289)"/>
  <line x1="442" y1="221" x2="442" y2="376" stroke="#d1d5db"/>
  <line x1="442" y1="298.5" x2="800" y2="298.5" stroke="#d1d5db"/>
  <text x="621" y="402" text-anchor="middle" font-size="9" fill="#6b7280">Samples</text>
  <text x="420" y="298.5" text-anchor="middle" font-size="9" fill="#6b7280" transform="rotate(-90 420 298.5)">Impulse response</text>
  <line x1="442.0" y1="221" x2="442.0" y2="376" stroke="#e5e7eb" stroke-width="0.5"/>
  <text x="442.0" y="388" text-anchor="middle" font-size="8" fill="#6b7280">0</text>
  <line x1="531.5" y1="221" x2="531.5" y2="376" stroke="#e5e7eb" stroke-width="0.5"/>
  <text x="531.5" y="388" text-anchor="middle" font-size="8" fill="#6b7280">32</text>
  <line x1="621.0" y1="221" x2="621.0" y2="376" stroke="#e5e7eb" stroke-width="0.5"/>
  <text x="621.0" y="388" text-anchor="middle" font-size="8" fill="#6b7280">64</text>
  <line x1="710.5" y1="221" x2="710.5" y2="376" stroke="#e5e7eb" stroke-width="0.5"/>
  <text x="710.5" y="388" text-anchor="middle" font-size="8" fill="#6b7280">96</text>
  <line x1="800.0" y1="221" x2="800.0" y2="376" stroke="#e5e7eb" stroke-width="0.5"/>
  <text x="800.0" y="388" text-anchor="middle" font-size="8" fill="#6b7280">128</text>
  <line x1="442" y1="350.9" x2="800" y2="350.9" stroke="#e5e7eb" stroke-width="0.5"/>
  <text x="438" y="353.9" text-anchor="end" font-size="8" fill="#6b7280">-0.7</text>
  <text x="438" y="301.5" text-anchor="end" font-size="8" fill="#6b7280">0</text>
  <line x1="442" y1="246.1" x2="800" y2="246.1" stroke="#e5e7eb" stroke-width="0.5"/>
  <text x="438" y="249.1" text-anchor="end" font-size="8" fill="#6b7280">0.7</text>
  <defs><linearGradient id="g290" x1="0" y1="221" x2="0" y2="298.5" gradientUnits="userSpaceOnUse">
    <stop offset="0%" stop-color="#f39c12" stop-opacity="0.15"/>
    <stop offset="100%" stop-color="#f39c12" stop-opacity="0.02"/>
  </linearGradient></defs>
  <path d="M442.0,221.0 442.0,221.0 444.8,293.1 447.6,293.1 450.4,293.1 453.2,293.2 456.0,293.4 458.8,293.6 461.6,293.8 464.4,294.1 467.2,294.3 470.0,294.6 472.8,294.9 475.6,295.2 478.4,295.5 481.2,295.8 484.0,296.1 486.8,296.4 489.5,296.6 492.3,296.8 495.1,297.1 497.9,297.3 500.7,297.5 503.5,297.6 506.3,297.8 509.1,297.9 511.9,298.1 514.7,298.2 517.5,298.3 520.3,298.4 523.1,298.5 525.9,298.5 528.7,298.6 531.5,298.6 534.3,298.7 537.1,298.7 539.9,298.7 542.7,298.7 545.5,298.7 548.3,298.7 551.1,298.7 553.9,298.7 556.7,298.7 559.5,298.7 562.3,298.7 565.1,298.7 567.9,298.7 570.7,298.7 573.5,298.7 576.3,298.7 579.0,298.6 581.8,298.6 584.6,298.6 587.4,298.6 590.2,298.6 593.0,298.6 595.8,298.6 598.6,298.6 601.4,298.6 604.2,298.5 607.0,298.5 609.8,298.5 612.6,298.5 615.4,298.5 618.2,298.5 621.0,298.5 623.8,298.5 626.6,298.5 629.4,298.5 632.2,298.5 635.0,298.5 637.8,298.5 640.6,298.5 643.4,298.5 646.2,298.5 649.0,298.5 651.8,298.5 654.6,298.5 657.4,298.5 660.2,298.5 663.0,298.5 665.8,298.5 668.5,298.5 671.3,298.5 674.1,298.5 676.9,298.5 679.7,298.5 682.5,298.5 685.3,298.5 688.1,298.5 690.9,298.5 693.7,298.5 696.5,298.5 699.3,298.5 702.1,298.5 704.9,298.5 707.7,298.5 710.5,298.5 713.3,298.5 716.1,298.5 718.9,298.5 721.7,298.5 724.5,298.5 727.3,298.5 730.1,298.5 732.9,298.5 735.7,298.5 738.5,298.5 741.3,298.5 744.1,298.5 746.9,298.5 749.7,298.5 752.5,298.5 755.3,298.5 758.0,298.5 760.8,298.5 763.6,298.5 766.4,298.5 769.2,298.5 772.0,298.5 774.8,298.5 777.6,298.5 780.4,298.5 783.2,298.5 786.0,298.5 788.8,298.5 791.6,298.5 794.4,298.5 797.2,298.5 L797.2,298.5 L442.0,298.5 Z" fill="url(#g290)"/>
  <defs><clipPath id="pc291"><rect x="442" y="221" width="358" height="155"/></clipPath></defs>
  <polyline points="442.0,221.0 444.8,293.1 447.6,293.1 450.4,293.1 453.2,293.2 456.0,293.4 458.8,293.6 461.6,293.8 464.4,294.1 467.2,294.3 470.0,294.6 472.8,294.9 475.6,295.2 478.4,295.5 481.2,295.8 484.0,296.1 486.8,296.4 489.5,296.6 492.3,296.8 495.1,297.1 497.9,297.3 500.7,297.5 503.5,297.6 506.3,297.8 509.1,297.9 511.9,298.1 514.7,298.2 517.5,298.3 520.3,298.4 523.1,298.5 525.9,298.5 528.7,298.6 531.5,298.6 534.3,298.7 537.1,298.7 539.9,298.7 542.7,298.7 545.5,298.7 548.3,298.7 551.1,298.7 553.9,298.7 556.7,298.7 559.5,298.7 562.3,298.7 565.1,298.7 567.9,298.7 570.7,298.7 573.5,298.7 576.3,298.7 579.0,298.6 581.8,298.6 584.6,298.6 587.4,298.6 590.2,298.6 593.0,298.6 595.8,298.6 598.6,298.6 601.4,298.6 604.2,298.5 607.0,298.5 609.8,298.5 612.6,298.5 615.4,298.5 618.2,298.5 621.0,298.5 623.8,298.5 626.6,298.5 629.4,298.5 632.2,298.5 635.0,298.5 637.8,298.5 640.6,298.5 643.4,298.5 646.2,298.5 649.0,298.5 651.8,298.5 654.6,298.5 657.4,298.5 660.2,298.5 663.0,298.5 665.8,298.5 668.5,298.5 671.3,298.5 674.1,298.5 676.9,298.5 679.7,298.5 682.5,298.5 685.3,298.5 688.1,298.5 690.9,298.5 693.7,298.5 696.5,298.5 699.3,298.5 702.1,298.5 704.9,298.5 707.7,298.5 710.5,298.5 713.3,298.5 716.1,298.5 718.9,298.5 721.7,298.5 724.5,298.5 727.3,298.5 730.1,298.5 732.9,298.5 735.7,298.5 738.5,298.5 741.3,298.5 744.1,298.5 746.9,298.5 749.7,298.5 752.5,298.5 755.3,298.5 758.0,298.5 760.8,298.5 763.6,298.5 766.4,298.5 769.2,298.5 772.0,298.5 774.8,298.5 777.6,298.5 780.4,298.5 783.2,298.5 786.0,298.5 788.8,298.5 791.6,298.5 794.4,298.5 797.2,298.5" fill="none" stroke="#f39c12" stroke-width="1.3" stroke-linejoin="round" clip-path="url(#pc291)"/>
</svg>
