<svg xmlns="http://www.w3.org/2000/svg" viewBox="0 0 820 392" style="font-family:system-ui,-apple-system,sans-serif">
  <text x="800" y="11" text-anchor="end" font-size="11" font-weight="600" fill="#6b7280">Biquad highshelf, fc=1kHz</text>
  <line x1="34" y1="16" x2="34" y2="171" stroke="#d1d5db"/>
  <line x1="34" y1="47.0" x2="392" y2="47.0" stroke="#d1d5db"/>
  <text x="213" y="197" text-anchor="middle" font-size="9" fill="#6b7280">Hz</text>
  <text x="12" y="93.5" text-anchor="middle" font-size="9" fill="#6b7280" transform="rotate(-90 12 93.5)">dB</text>
  <line x1="66.6" y1="16" x2="66.6" y2="171" stroke="#e5e7eb" stroke-width="0.5"/>
  <line x1="85.7" y1="16" x2="85.7" y2="171" stroke="#e5e7eb" stroke-width="0.5"/>
  <line x1="99.3" y1="16" x2="99.3" y2="171" stroke="#e5e7eb" stroke-width="0.5"/>
  <line x1="109.8" y1="16" x2="109.8" y2="171" stroke="#e5e7eb" stroke-width="0.5"/>
  <line x1="118.4" y1="16" x2="118.4" y2="171" stroke="#e5e7eb" stroke-width="0.5"/>
  <line x1="125.7" y1="16" x2="125.7" y2="171" stroke="#e5e7eb" stroke-width="0.5"/>
  <line x1="131.9" y1="16" x2="131.9" y2="171" stroke="#e5e7eb" stroke-width="0.5"/>
  <line x1="137.5" y1="16" x2="137.5" y2="171" stroke="#e5e7eb" stroke-width="0.5"/>
  <line x1="175.1" y1="16" x2="175.1" y2="171" stroke="#e5e7eb" stroke-width="0.5"/>
  <line x1="194.2" y1="16" x2="194.2" y2="171" stroke="#e5e7eb" stroke-width="0.5"/>
  <line x1="207.7" y1="16" x2="207.7" y2="171" stroke="#e5e7eb" stroke-width="0.5"/>
  <line x1="218.3" y1="16" x2="218.3" y2="171" stroke="#e5e7eb" stroke-width="0.5"/>
  <line x1="226.8" y1="16" x2="226.8" y2="171" stroke="#e5e7eb" stroke-width="0.5"/>
  <line x1="234.1" y1="16" x2="234.1" y2="171" stroke="#e5e7eb" stroke-width="0.5"/>
  <line x1="240.4" y1="16" x2="240.4" y2="171" stroke="#e5e7eb" stroke-width="0.5"/>
  <line x1="245.9" y1="16" x2="245.9" y2="171" stroke="#e5e7eb" stroke-width="0.5"/>
  <line x1="283.5" y1="16" x2="283.5" y2="171" stroke="#e5e7eb" stroke-width="0.5"/>
  <line x1="302.6" y1="16" x2="302.6" y2="171" stroke="#e5e7eb" stroke-width="0.5"/>
  <line x1="316.2" y1="16" x2="316.2" y2="171" stroke="#e5e7eb" stroke-width="0.5"/>
  <line x1="326.7" y1="16" x2="326.7" y2="171" stroke="#e5e7eb" stroke-width="0.5"/>
  <line x1="335.3" y1="16" x2="335.3" y2="171" stroke="#e5e7eb" stroke-width="0.5"/>
  <line x1="342.6" y1="16" x2="342.6" y2="171" stroke="#e5e7eb" stroke-width="0.5"/>
  <line x1="348.8" y1="16" x2="348.8" y2="171" stroke="#e5e7eb" stroke-width="0.5"/>
  <line x1="354.4" y1="16" x2="354.4" y2="171" stroke="#e5e7eb" stroke-width="0.5"/>
  <line x1="392.0" y1="16" x2="392.0" y2="171" stroke="#e5e7eb" stroke-width="0.5"/>
  <line x1="142.5" y1="16" x2="142.5" y2="171" stroke="#e5e7eb" stroke-width="0.5"/>
  <text x="142.5" y="183" text-anchor="middle" font-size="8" fill="#6b7280">100</text>
  <line x1="250.9" y1="16" x2="250.9" y2="171" stroke="#e5e7eb" stroke-width="0.5"/>
  <text x="250.9" y="183" text-anchor="middle" font-size="8" fill="#6b7280">1k</text>
  <line x1="359.4" y1="16" x2="359.4" y2="171" stroke="#e5e7eb" stroke-width="0.5"/>
  <text x="359.4" y="183" text-anchor="middle" font-size="8" fill="#6b7280">10k</text>
  <line x1="34" y1="31.5" x2="392" y2="31.5" stroke="#e5e7eb" stroke-width="0.5"/>
  <line x1="34" y1="62.5" x2="392" y2="62.5" stroke="#e5e7eb" stroke-width="0.5"/>
  <line x1="34" y1="16.0" x2="392" y2="16.0" stroke="#e5e7eb" stroke-width="0.5"/>
  <text x="30" y="19.0" text-anchor="end" font-size="8" fill="#6b7280">+20</text>
  <text x="30" y="50.0" text-anchor="end" font-size="8" fill="#6b7280">0</text>
  <line x1="34" y1="78.0" x2="392" y2="78.0" stroke="#e5e7eb" stroke-width="0.5"/>
  <text x="30" y="81.0" text-anchor="end" font-size="8" fill="#6b7280">-20</text>
  <line x1="34" y1="109.0" x2="392" y2="109.0" stroke="#e5e7eb" stroke-width="0.5"/>
  <text x="30" y="112.0" text-anchor="end" font-size="8" fill="#6b7280">-40</text>
  <line x1="34" y1="140.0" x2="392" y2="140.0" stroke="#e5e7eb" stroke-width="0.5"/>
  <text x="30" y="143.0" text-anchor="end" font-size="8" fill="#6b7280">-60</text>
  <line x1="34" y1="171.0" x2="392" y2="171.0" stroke="#e5e7eb" stroke-width="0.5"/>
  <text x="30" y="174.0" text-anchor="end" font-size="8" fill="#6b7280">-80</text>
  <line x1="250.9" y1="16" x2="250.9" y2="171" stroke="#d1d5db" stroke-width="1" stroke-dasharray="4 3"/>
  <defs><linearGradient id="g219" x1="0" y1="16" x2="0" y2="171" gradientUnits="userSpaceOnUse">
    <stop offset="0%" stop-color="#4a90d9" stop-opacity="0.15"/>
    <stop offset="100%" stop-color="#4a90d9" stop-opacity="0.02"/>
  </linearGradient></defs>
  <path d="M37.5,47.0 37.5,47.0 70.1,47.0 89.2,47.0 102.8,47.0 113.3,47.0 121.9,47.0 129.1,47.0 135.4,47.0 141.0,47.0 145.9,47.0 150.4,47.0 154.5,47.0 158.3,47.0 161.8,47.0 165.0,47.0 168.1,47.0 170.9,47.0 173.6,47.0 176.2,47.0 178.6,47.0 180.9,47.0 183.1,47.0 185.2,47.0 187.2,47.0 189.1,46.9 190.9,46.9 192.7,46.9 194.4,46.9 196.1,46.9 197.7,46.9 199.2,46.9 200.7,46.9 202.2,46.8 203.6,46.8 204.9,46.8 206.3,46.8 207.6,46.8 208.8,46.7 210.0,46.7 211.2,46.7 212.4,46.6 213.5,46.6 214.6,46.6 215.7,46.5 216.8,46.5 217.8,46.4 218.8,46.4 219.8,46.3 220.8,46.3 221.7,46.2 222.7,46.2 223.6,46.1 224.5,46.1 225.4,46.0 226.2,45.9 227.1,45.9 227.9,45.8 228.7,45.7 229.5,45.6 231.1,45.5 232.6,45.3 234.1,45.1 235.5,45.0 236.9,44.8 238.2,44.6 239.6,44.4 240.8,44.2 242.1,44.0 243.3,43.8 244.5,43.6 245.6,43.3 246.7,43.1 247.8,42.9 248.9,42.7 249.9,42.5 251.0,42.3 252.0,42.1 252.9,42.0 253.9,41.8 254.8,41.6 255.8,41.4 256.7,41.3 257.6,41.1 258.4,41.0 259.3,40.8 260.1,40.7 261.0,40.5 261.8,40.4 263.0,40.2 264.1,40.0 265.3,39.9 266.4,39.7 267.5,39.6 268.5,39.5 269.6,39.3 270.6,39.2 271.6,39.1 272.5,39.0 273.5,38.9 274.4,38.9 275.3,38.8 276.2,38.7 277.1,38.6 278.0,38.6 278.8,38.5 279.6,38.5 280.5,38.4 281.3,38.4 282.3,38.3 283.4,38.3 284.4,38.2 285.3,38.2 286.3,38.2 287.3,38.1 288.2,38.1 289.1,38.1 290.0,38.0 290.9,38.0 291.7,38.0 292.6,38.0 293.4,38.0 294.2,37.9 295.0,37.9 296.0,37.9 297.0,37.9 297.9,37.9 298.8,37.9 299.7,37.8 300.6,37.8 301.5,37.8 302.4,37.8 303.2,37.8 304.0,37.8 304.9,37.8 305.8,37.8 306.7,37.8 307.7,37.8 308.6,37.8 309.5,37.8 310.3,37.8 311.2,37.8 312.0,37.8 312.8,37.7 313.7,37.7 314.6,37.7 315.5,37.7 316.4,37.7 317.3,37.7 318.1,37.7 319.0,37.7 319.8,37.7 320.6,37.7 321.4,37.7 322.3,37.7 323.2,37.7 324.1,37.7 324.9,37.7 325.7,37.7 326.6,37.7 327.4,37.7 328.3,37.7 329.1,37.7 330.0,37.7 330.8,37.7 331.7,37.7 332.5,37.7 333.3,37.7 334.2,37.7 335.0,37.7 335.9,37.7 336.7,37.7 337.5,37.7 338.4,37.7 339.2,37.7 340.1,37.7 340.9,37.7 341.7,37.7 342.5,37.7 343.4,37.7 344.2,37.7 345.1,37.7 345.9,37.7 346.7,37.7 347.6,37.7 348.4,37.7 349.2,37.7 350.0,37.7 350.9,37.7 351.7,37.7 352.6,37.7 353.4,37.7 354.2,37.7 355.1,37.7 355.9,37.7 356.7,37.7 357.6,37.7 358.4,37.7 359.2,37.7 360.0,37.7 360.9,37.7 361.7,37.7 362.5,37.7 363.3,37.7 364.2,37.7 365.0,37.7 365.8,37.7 366.6,37.7 367.4,37.7 368.3,37.7 369.1,37.7 369.9,37.7 370.7,37.7 371.5,37.7 372.4,37.7 373.2,37.7 374.0,37.7 374.8,37.7 375.6,37.7 376.4,37.7 377.2,37.7 378.1,37.7 378.9,37.7 379.7,37.7 380.5,37.7 381.3,37.7 382.1,37.7 383.0,37.7 383.8,37.7 384.6,37.7 385.4,37.7 386.2,37.7 387.0,37.7 387.9,37.7 388.7,37.7 389.5,37.7 390.3,37.7 391.1,37.7 391.9,37.7 L391.9,171.0 L37.5,171.0 Z" fill="url(#g219)"/>
  <defs><clipPath id="pc220"><rect x="34" y="16" width="358" height="155"/></clipPath></defs>
  <polyline points="37.5,47.0 70.1,47.0 89.2,47.0 102.8,47.0 113.3,47.0 121.9,47.0 129.1,47.0 135.4,47.0 141.0,47.0 145.9,47.0 150.4,47.0 154.5,47.0 158.3,47.0 161.8,47.0 165.0,47.0 168.1,47.0 170.9,47.0 173.6,47.0 176.2,47.0 178.6,47.0 180.9,47.0 183.1,47.0 185.2,47.0 187.2,47.0 189.1,46.9 190.9,46.9 192.7,46.9 194.4,46.9 196.1,46.9 197.7,46.9 199.2,46.9 200.7,46.9 202.2,46.8 203.6,46.8 204.9,46.8 206.3,46.8 207.6,46.8 208.8,46.7 210.0,46.7 211.2,46.7 212.4,46.6 213.5,46.6 214.6,46.6 215.7,46.5 216.8,46.5 217.8,46.4 218.8,46.4 219.8,46.3 220.8,46.3 221.7,46.2 222.7,46.2 223.6,46.1 224.5,46.1 225.4,46.0 226.2,45.9 227.1,45.9 227.9,45.8 228.7,45.7 229.5,45.6 231.1,45.5 232.6,45.3 234.1,45.1 235.5,45.0 236.9,44.8 238.2,44.6 239.6,44.4 240.8,44.2 242.1,44.0 243.3,43.8 244.5,43.6 245.6,43.3 246.7,43.1 247.8,42.9 248.9,42.7 249.9,42.5 251.0,42.3 252.0,42.1 252.9,42.0 253.9,41.8 254.8,41.6 255.8,41.4 256.7,41.3 257.6,41.1 258.4,41.0 259.3,40.8 260.1,40.7 261.0,40.5 261.8,40.4 263.0,40.2 264.1,40.0 265.3,39.9 266.4,39.7 267.5,39.6 268.5,39.5 269.6,39.3 270.6,39.2 271.6,39.1 272.5,39.0 273.5,38.9 274.4,38.9 275.3,38.8 276.2,38.7 277.1,38.6 278.0,38.6 278.8,38.5 279.6,38.5 280.5,38.4 281.3,38.4 282.3,38.3 283.4,38.3 284.4,38.2 285.3,38.2 286.3,38.2 287.3,38.1 288.2,38.1 289.1,38.1 290.0,38.0 290.9,38.0 291.7,38.0 292.6,38.0 293.4,38.0 294.2,37.9 295.0,37.9 296.0,37.9 297.0,37.9 297.9,37.9 298.8,37.9 299.7,37.8 300.6,37.8 301.5,37.8 302.4,37.8 303.2,37.8 304.0,37.8 304.9,37.8 305.8,37.8 306.7,37.8 307.7,37.8 308.6,37.8 309.5,37.8 310.3,37.8 311.2,37.8 312.0,37.8 312.8,37.7 313.7,37.7 314.6,37.7 315.5,37.7 316.4,37.7 317.3,37.7 318.1,37.7 319.0,37.7 319.8,37.7 320.6,37.7 321.4,37.7 322.3,37.7 323.2,37.7 324.1,37.7 324.9,37.7 325.7,37.7 326.6,37.7 327.4,37.7 328.3,37.7 329.1,37.7 330.0,37.7 330.8,37.7 331.7,37.7 332.5,37.7 333.3,37.7 334.2,37.7 335.0,37.7 335.9,37.7 336.7,37.7 337.5,37.7 338.4,37.7 339.2,37.7 340.1,37.7 340.9,37.7 341.7,37.7 342.5,37.7 343.4,37.7 344.2,37.7 345.1,37.7 345.9,37.7 346.7,37.7 347.6,37.7 348.4,37.7 349.2,37.7 350.0,37.7 350.9,37.7 351.7,37.7 352.6,37.7 353.4,37.7 354.2,37.7 355.1,37.7 355.9,37.7 356.7,37.7 357.6,37.7 358.4,37.7 359.2,37.7 360.0,37.7 360.9,37.7 361.7,37.7 362.5,37.7 363.3,37.7 364.2,37.7 365.0,37.7 365.8,37.7 366.6,37.7 367.4,37.7 368.3,37.7 369.1,37.7 369.9,37.7 370.7,37.7 371.5,37.7 372.4,37.7 373.2,37.7 374.0,37.7 374.8,37.7 375.6,37.7 376.4,37.7 377.2,37.7 378.1,37.7 378.9,37.7 379.7,37.7 380.5,37.7 381.3,37.7 382.1,37.7 383.0,37.7 383.8,37.7 384.6,37.7 385.4,37.7 386.2,37.7 387.0,37.7 387.9,37.7 388.7,37.7 389.5,37.7 390.3,37.7 391.1,37.7 391.9,37.7" fill="none" stroke="#4a90d9" stroke-width="1.5" stroke-linejoin="round" clip-path="url(#pc220)"/>
  <line x1="442" y1="16" x2="442" y2="171" stroke="#d1d5db"/>
  <line x1="442" y1="93.5" x2="800" y2="93.5" stroke="#d1d5db"/>
  <text x="621" y="197" text-anchor="middle" font-size="9" fill="#6b7280">Hz</text>
  <text x="420" y="93.5" text-anchor="middle" font-size="9" fill="#6b7280" transform="rotate(-90 420 93.5)">Phase (deg)</text>
  <line x1="474.6" y1="16" x2="474.6" y2="171" stroke="#e5e7eb" stroke-width="0.5"/>
  <line x1="493.7" y1="16" x2="493.7" y2="171" stroke="#e5e7eb" stroke-width="0.5"/>
  <line x1="507.3" y1="16" x2="507.3" y2="171" stroke="#e5e7eb" stroke-width="0.5"/>
  <line x1="517.8" y1="16" x2="517.8" y2="171" stroke="#e5e7eb" stroke-width="0.5"/>
  <line x1="526.4" y1="16" x2="526.4" y2="171" stroke="#e5e7eb" stroke-width="0.5"/>
  <line x1="533.7" y1="16" x2="533.7" y2="171" stroke="#e5e7eb" stroke-width="0.5"/>
  <line x1="539.9" y1="16" x2="539.9" y2="171" stroke="#e5e7eb" stroke-width="0.5"/>
  <line x1="545.5" y1="16" x2="545.5" y2="171" stroke="#e5e7eb" stroke-width="0.5"/>
  <line x1="583.1" y1="16" x2="583.1" y2="171" stroke="#e5e7eb" stroke-width="0.5"/>
  <line x1="602.2" y1="16" x2="602.2" y2="171" stroke="#e5e7eb" stroke-width="0.5"/>
  <line x1="615.7" y1="16" x2="615.7" y2="171" stroke="#e5e7eb" stroke-width="0.5"/>
  <line x1="626.3" y1="16" x2="626.3" y2="171" stroke="#e5e7eb" stroke-width="0.5"/>
  <line x1="634.8" y1="16" x2="634.8" y2="171" stroke="#e5e7eb" stroke-width="0.5"/>
  <line x1="642.1" y1="16" x2="642.1" y2="171" stroke="#e5e7eb" stroke-width="0.5"/>
  <line x1="648.4" y1="16" x2="648.4" y2="171" stroke="#e5e7eb" stroke-width="0.5"/>
  <line x1="653.9" y1="16" x2="653.9" y2="171" stroke="#e5e7eb" stroke-width="0.5"/>
  <line x1="691.5" y1="16" x2="691.5" y2="171" stroke="#e5e7eb" stroke-width="0.5"/>
  <line x1="710.6" y1="16" x2="710.6" y2="171" stroke="#e5e7eb" stroke-width="0.5"/>
  <line x1="724.2" y1="16" x2="724.2" y2="171" stroke="#e5e7eb" stroke-width="0.5"/>
  <line x1="734.7" y1="16" x2="734.7" y2="171" stroke="#e5e7eb" stroke-width="0.5"/>
  <line x1="743.3" y1="16" x2="743.3" y2="171" stroke="#e5e7eb" stroke-width="0.5"/>
  <line x1="750.6" y1="16" x2="750.6" y2="171" stroke="#e5e7eb" stroke-width="0.5"/>
  <line x1="756.8" y1="16" x2="756.8" y2="171" stroke="#e5e7eb" stroke-width="0.5"/>
  <line x1="762.4" y1="16" x2="762.4" y2="171" stroke="#e5e7eb" stroke-width="0.5"/>
  <line x1="800.0" y1="16" x2="800.0" y2="171" stroke="#e5e7eb" stroke-width="0.5"/>
  <line x1="550.5" y1="16" x2="550.5" y2="171" stroke="#e5e7eb" stroke-width="0.5"/>
  <text x="550.5" y="183" text-anchor="middle" font-size="8" fill="#6b7280">100</text>
  <line x1="658.9" y1="16" x2="658.9" y2="171" stroke="#e5e7eb" stroke-width="0.5"/>
  <text x="658.9" y="183" text-anchor="middle" font-size="8" fill="#6b7280">1k</text>
  <line x1="767.4" y1="16" x2="767.4" y2="171" stroke="#e5e7eb" stroke-width="0.5"/>
  <text x="767.4" y="183" text-anchor="middle" font-size="8" fill="#6b7280">10k</text>
  <line x1="442" y1="54.8" x2="800" y2="54.8" stroke="#e5e7eb" stroke-width="0.5"/>
  <line x1="442" y1="132.3" x2="800" y2="132.3" stroke="#e5e7eb" stroke-width="0.5"/>
  <line x1="442" y1="16.0" x2="800" y2="16.0" stroke="#e5e7eb" stroke-width="0.5"/>
  <text x="438" y="19.0" text-anchor="end" font-size="8" fill="#6b7280">180</text>
  <text x="438" y="96.5" text-anchor="end" font-size="8" fill="#6b7280">0</text>
  <line x1="442" y1="171.0" x2="800" y2="171.0" stroke="#e5e7eb" stroke-width="0.5"/>
  <text x="438" y="174.0" text-anchor="end" font-size="8" fill="#6b7280">-180</text>
  <line x1="658.9" y1="16" x2="658.9" y2="171" stroke="#d1d5db" stroke-width="1" stroke-dasharray="4 3"/>
  <defs><linearGradient id="g221" x1="0" y1="16" x2="0" y2="93.5" gradientUnits="userSpaceOnUse">
    <stop offset="0%" stop-color="#e74c3c" stop-opacity="0.15"/>
    <stop offset="100%" stop-color="#e74c3c" stop-opacity="0.02"/>
  </linearGradient></defs>
  <path d="M445.5,93.4 445.5,93.4 478.1,93.2 497.2,93.1 510.8,93.0 521.3,92.8 529.9,92.7 537.1,92.6 543.4,92.5 549.0,92.3 553.9,92.2 558.4,92.0 562.5,91.9 566.3,91.8 569.8,91.6 573.0,91.5 576.1,91.4 578.9,91.2 581.6,91.1 584.2,90.9 586.6,90.8 588.9,90.6 591.1,90.5 593.2,90.3 595.2,90.2 597.1,90.0 598.9,89.9 600.7,89.7 602.4,89.5 604.1,89.4 605.7,89.2 607.2,89.1 608.7,88.9 610.2,88.7 611.6,88.6 612.9,88.4 614.3,88.2 615.6,88.0 616.8,87.9 618.0,87.7 619.2,87.5 620.4,87.3 621.5,87.2 622.6,87.0 623.7,86.8 624.8,86.6 625.8,86.5 626.8,86.3 627.8,86.1 628.8,85.9 629.7,85.8 630.7,85.6 631.6,85.4 632.5,85.2 633.4,85.1 634.2,84.9 635.1,84.8 635.9,84.6 636.7,84.4 637.5,84.3 639.1,84.0 640.6,83.7 642.1,83.4 643.5,83.2 644.9,82.9 646.2,82.7 647.6,82.5 648.8,82.3 650.1,82.2 651.3,82.0 652.5,81.9 653.6,81.8 654.7,81.8 655.8,81.7 656.9,81.7 657.9,81.6 659.0,81.6 660.0,81.6 660.9,81.7 661.9,81.7 662.8,81.7 663.8,81.8 664.7,81.9 665.6,82.0 666.4,82.0 667.3,82.1 668.1,82.2 669.0,82.3 669.8,82.5 671.0,82.6 672.1,82.8 673.3,83.0 674.4,83.2 675.5,83.4 676.5,83.6 677.6,83.8 678.6,84.0 679.6,84.2 680.5,84.3 681.5,84.5 682.4,84.7 683.3,84.9 684.2,85.1 685.1,85.2 686.0,85.4 686.8,85.6 687.6,85.7 688.5,85.9 689.3,86.0 690.3,86.2 691.4,86.4 692.4,86.6 693.3,86.7 694.3,86.9 695.3,87.0 696.2,87.2 697.1,87.3 698.0,87.5 698.9,87.6 699.7,87.7 700.6,87.9 701.4,88.0 702.2,88.1 703.0,88.2 704.0,88.3 705.0,88.5 705.9,88.6 706.8,88.7 707.7,88.8 708.6,88.9 709.5,89.0 710.4,89.1 711.2,89.2 712.0,89.3 712.9,89.4 713.8,89.5 714.7,89.6 715.7,89.6 716.6,89.7 717.5,89.8 718.3,89.9 719.2,90.0 720.0,90.0 720.8,90.1 721.7,90.2 722.6,90.3 723.5,90.3 724.4,90.4 725.3,90.5 726.1,90.5 727.0,90.6 727.8,90.6 728.6,90.7 729.4,90.8 730.3,90.8 731.2,90.9 732.1,90.9 732.9,91.0 733.7,91.0 734.6,91.1 735.4,91.1 736.3,91.2 737.1,91.2 738.0,91.3 738.8,91.3 739.7,91.4 740.5,91.4 741.3,91.5 742.2,91.5 743.0,91.5 743.9,91.6 744.7,91.6 745.5,91.7 746.4,91.7 747.2,91.7 748.1,91.8 748.9,91.8 749.7,91.9 750.5,91.9 751.4,91.9 752.2,92.0 753.1,92.0 753.9,92.0 754.7,92.1 755.6,92.1 756.4,92.1 757.2,92.1 758.0,92.2 758.9,92.2 759.7,92.2 760.6,92.3 761.4,92.3 762.2,92.3 763.1,92.4 763.9,92.4 764.7,92.4 765.6,92.4 766.4,92.5 767.2,92.5 768.0,92.5 768.9,92.5 769.7,92.6 770.5,92.6 771.3,92.6 772.2,92.6 773.0,92.7 773.8,92.7 774.6,92.7 775.4,92.7 776.3,92.8 777.1,92.8 777.9,92.8 778.7,92.8 779.5,92.8 780.4,92.9 781.2,92.9 782.0,92.9 782.8,92.9 783.6,93.0 784.4,93.0 785.2,93.0 786.1,93.0 786.9,93.0 787.7,93.1 788.5,93.1 789.3,93.1 790.1,93.1 791.0,93.1 791.8,93.2 792.6,93.2 793.4,93.2 794.2,93.2 795.0,93.2 795.9,93.3 796.7,93.3 797.5,93.3 798.3,93.3 799.1,93.3 799.9,93.4 L799.9,93.5 L445.5,93.5 Z" fill="url(#g221)"/>
  <defs><clipPath id="pc222"><rect x="442" y="16" width="358" height="155"/></clipPath></defs>
  <polyline points="445.5,93.4 478.1,93.2 497.2,93.1 510.8,93.0 521.3,92.8 529.9,92.7 537.1,92.6 543.4,92.5 549.0,92.3 553.9,92.2 558.4,92.0 562.5,91.9 566.3,91.8 569.8,91.6 573.0,91.5 576.1,91.4 578.9,91.2 581.6,91.1 584.2,90.9 586.6,90.8 588.9,90.6 591.1,90.5 593.2,90.3 595.2,90.2 597.1,90.0 598.9,89.9 600.7,89.7 602.4,89.5 604.1,89.4 605.7,89.2 607.2,89.1 608.7,88.9 610.2,88.7 611.6,88.6 612.9,88.4 614.3,88.2 615.6,88.0 616.8,87.9 618.0,87.7 619.2,87.5 620.4,87.3 621.5,87.2 622.6,87.0 623.7,86.8 624.8,86.6 625.8,86.5 626.8,86.3 627.8,86.1 628.8,85.9 629.7,85.8 630.7,85.6 631.6,85.4 632.5,85.2 633.4,85.1 634.2,84.9 635.1,84.8 635.9,84.6 636.7,84.4 637.5,84.3 639.1,84.0 640.6,83.7 642.1,83.4 643.5,83.2 644.9,82.9 646.2,82.7 647.6,82.5 648.8,82.3 650.1,82.2 651.3,82.0 652.5,81.9 653.6,81.8 654.7,81.8 655.8,81.7 656.9,81.7 657.9,81.6 659.0,81.6 660.0,81.6 660.9,81.7 661.9,81.7 662.8,81.7 663.8,81.8 664.7,81.9 665.6,82.0 666.4,82.0 667.3,82.1 668.1,82.2 669.0,82.3 669.8,82.5 671.0,82.6 672.1,82.8 673.3,83.0 674.4,83.2 675.5,83.4 676.5,83.6 677.6,83.8 678.6,84.0 679.6,84.2 680.5,84.3 681.5,84.5 682.4,84.7 683.3,84.9 684.2,85.1 685.1,85.2 686.0,85.4 686.8,85.6 687.6,85.7 688.5,85.9 689.3,86.0 690.3,86.2 691.4,86.4 692.4,86.6 693.3,86.7 694.3,86.9 695.3,87.0 696.2,87.2 697.1,87.3 698.0,87.5 698.9,87.6 699.7,87.7 700.6,87.9 701.4,88.0 702.2,88.1 703.0,88.2 704.0,88.3 705.0,88.5 705.9,88.6 706.8,88.7 707.7,88.8 708.6,88.9 709.5,89.0 710.4,89.1 711.2,89.2 712.0,89.3 712.9,89.4 713.8,89.5 714.7,89.6 715.7,89.6 716.6,89.7 717.5,89.8 718.3,89.9 719.2,90.0 720.0,90.0 720.8,90.1 721.7,90.2 722.6,90.3 723.5,90.3 724.4,90.4 725.3,90.5 726.1,90.5 727.0,90.6 727.8,90.6 728.6,90.7 729.4,90.8 730.3,90.8 731.2,90.9 732.1,90.9 732.9,91.0 733.7,91.0 734.6,91.1 735.4,91.1 736.3,91.2 737.1,91.2 738.0,91.3 738.8,91.3 739.7,91.4 740.5,91.4 741.3,91.5 742.2,91.5 743.0,91.5 743.9,91.6 744.7,91.6 745.5,91.7 746.4,91.7 747.2,91.7 748.1,91.8 748.9,91.8 749.7,91.9 750.5,91.9 751.4,91.9 752.2,92.0 753.1,92.0 753.9,92.0 754.7,92.1 755.6,92.1 756.4,92.1 757.2,92.1 758.0,92.2 758.9,92.2 759.7,92.2 760.6,92.3 761.4,92.3 762.2,92.3 763.1,92.4 763.9,92.4 764.7,92.4 765.6,92.4 766.4,92.5 767.2,92.5 768.0,92.5 768.9,92.5 769.7,92.6 770.5,92.6 771.3,92.6 772.2,92.6 773.0,92.7 773.8,92.7 774.6,92.7 775.4,92.7 776.3,92.8 777.1,92.8 777.9,92.8 778.7,92.8 779.5,92.8 780.4,92.9 781.2,92.9 782.0,92.9 782.8,92.9 783.6,93.0 784.4,93.0 785.2,93.0 786.1,93.0 786.9,93.0 787.7,93.1 788.5,93.1 789.3,93.1 790.1,93.1 791.0,93.1 791.8,93.2 792.6,93.2 793.4,93.2 794.2,93.2 795.0,93.2 795.9,93.3 796.7,93.3 797.5,93.3 798.3,93.3 799.1,93.3 799.9,93.4" fill="none" stroke="#e74c3c" stroke-width="1.5" stroke-linejoin="round" clip-path="url(#pc222)"/>
  <line x1="34" y1="221" x2="34" y2="376" stroke="#d1d5db"/>
  <line x1="34" y1="298.5" x2="392" y2="298.5" stroke="#d1d5db"/>
  <text x="213" y="402" text-anchor="middle" font-size="9" fill="#6b7280">Hz</text>
  <text x="12" y="298.5" text-anchor="middle" font-size="9" fill="#6b7280" transform="rotate(-90 12 298.5)">Group delay</text>
  <line x1="66.6" y1="221" x2="66.6" y2="376" stroke="#e5e7eb" stroke-width="0.5"/>
  <line x1="85.7" y1="221" x2="85.7" y2="376" stroke="#e5e7eb" stroke-width="0.5"/>
  <line x1="99.3" y1="221" x2="99.3" y2="376" stroke="#e5e7eb" stroke-width="0.5"/>
  <line x1="109.8" y1="221" x2="109.8" y2="376" stroke="#e5e7eb" stroke-width="0.5"/>
  <line x1="118.4" y1="221" x2="118.4" y2="376" stroke="#e5e7eb" stroke-width="0.5"/>
  <line x1="125.7" y1="221" x2="125.7" y2="376" stroke="#e5e7eb" stroke-width="0.5"/>
  <line x1="131.9" y1="221" x2="131.9" y2="376" stroke="#e5e7eb" stroke-width="0.5"/>
  <line x1="137.5" y1="221" x2="137.5" y2="376" stroke="#e5e7eb" stroke-width="0.5"/>
  <line x1="175.1" y1="221" x2="175.1" y2="376" stroke="#e5e7eb" stroke-width="0.5"/>
  <line x1="194.2" y1="221" x2="194.2" y2="376" stroke="#e5e7eb" stroke-width="0.5"/>
  <line x1="207.7" y1="221" x2="207.7" y2="376" stroke="#e5e7eb" stroke-width="0.5"/>
  <line x1="218.3" y1="221" x2="218.3" y2="376" stroke="#e5e7eb" stroke-width="0.5"/>
  <line x1="226.8" y1="221" x2="226.8" y2="376" stroke="#e5e7eb" stroke-width="0.5"/>
  <line x1="234.1" y1="221" x2="234.1" y2="376" stroke="#e5e7eb" stroke-width="0.5"/>
  <line x1="240.4" y1="221" x2="240.4" y2="376" stroke="#e5e7eb" stroke-width="0.5"/>
  <line x1="245.9" y1="221" x2="245.9" y2="376" stroke="#e5e7eb" stroke-width="0.5"/>
  <line x1="283.5" y1="221" x2="283.5" y2="376" stroke="#e5e7eb" stroke-width="0.5"/>
  <line x1="302.6" y1="221" x2="302.6" y2="376" stroke="#e5e7eb" stroke-width="0.5"/>
  <line x1="316.2" y1="221" x2="316.2" y2="376" stroke="#e5e7eb" stroke-width="0.5"/>
  <line x1="326.7" y1="221" x2="326.7" y2="376" stroke="#e5e7eb" stroke-width="0.5"/>
  <line x1="335.3" y1="221" x2="335.3" y2="376" stroke="#e5e7eb" stroke-width="0.5"/>
  <line x1="342.6" y1="221" x2="342.6" y2="376" stroke="#e5e7eb" stroke-width="0.5"/>
  <line x1="348.8" y1="221" x2="348.8" y2="376" stroke="#e5e7eb" stroke-width="0.5"/>
  <line x1="354.4" y1="221" x2="354.4" y2="376" stroke="#e5e7eb" stroke-width="0.5"/>
  <line x1="392.0" y1="221" x2="392.0" y2="376" stroke="#e5e7eb" stroke-width="0.5"/>
  <line x1="142.5" y1="221" x2="142.5" y2="376" stroke="#e5e7eb" stroke-width="0.5"/>
  <text x="142.5" y="388" text-anchor="middle" font-size="8" fill="#6b7280">100</text>
  <line x1="250.9" y1="221" x2="250.9" y2="376" stroke="#e5e7eb" stroke-width="0.5"/>
  <text x="250.9" y="388" text-anchor="middle" font-size="8" fill="#6b7280">1k</text>
  <line x1="359.4" y1="221" x2="359.4" y2="376" stroke="#e5e7eb" stroke-width="0.5"/>
  <text x="359.4" y="388" text-anchor="middle" font-size="8" fill="#6b7280">10k</text>
  <line x1="34" y1="346.0" x2="392" y2="346.0" stroke="#e5e7eb" stroke-width="0.5"/>
  <text x="30" y="349.0" text-anchor="end" font-size="8" fill="#6b7280">-4</text>
  <text x="30" y="301.5" text-anchor="end" font-size="8" fill="#6b7280">0</text>
  <line x1="34" y1="251.0" x2="392" y2="251.0" stroke="#e5e7eb" stroke-width="0.5"/>
  <text x="30" y="254.0" text-anchor="end" font-size="8" fill="#6b7280">4</text>
  <line x1="250.9" y1="221" x2="250.9" y2="376" stroke="#d1d5db" stroke-width="1" stroke-dasharray="4 3"/>
  <defs><linearGradient id="g223" x1="0" y1="376" x2="0" y2="298.5" gradientUnits="userSpaceOnUse">
    <stop offset="0%" stop-color="#2ecc71" stop-opacity="0.15"/>
    <stop offset="100%" stop-color="#2ecc71" stop-opacity="0.02"/>
  </linearGradient></defs>
  <path d="M37.5,298.5 37.5,298.5 70.1,298.5 89.2,298.5 102.8,298.5 113.3,298.5 121.9,298.4 129.1,298.4 135.4,298.3 141.0,298.3 145.9,298.2 150.4,298.1 154.5,298.0 158.3,297.8 161.8,297.6 165.0,297.5 168.1,297.2 170.9,297.0 173.6,296.7 176.2,296.4 178.6,296.0 180.9,295.6 183.1,295.2 185.2,294.8 187.2,294.3 189.1,293.7 190.9,293.1 192.7,292.5 194.4,291.8 196.1,291.1 197.7,290.4 199.2,289.6 200.7,288.7 202.2,287.8 203.6,286.9 204.9,285.9 206.3,284.8 207.6,283.7 208.8,282.6 210.0,281.5 211.2,280.3 212.4,279.0 213.5,277.7 214.6,276.4 215.7,275.1 216.8,273.7 217.8,272.3 218.8,270.9 219.8,269.5 220.8,268.1 221.7,266.6 222.7,265.2 223.6,263.7 224.5,262.3 225.4,260.9 226.2,259.4 227.1,258.0 227.9,256.6 228.7,255.3 229.5,254.0 231.1,251.4 232.6,249.1 234.1,246.9 235.5,245.0 236.9,243.3 238.2,241.9 239.6,240.8 240.8,239.9 242.1,239.3 243.3,239.0 244.5,238.9 245.6,239.1 246.7,239.4 247.8,240.1 248.9,240.9 249.9,241.8 251.0,243.0 252.0,244.2 252.9,245.6 253.9,247.1 254.8,248.6 255.8,250.2 256.7,251.8 257.6,253.5 258.4,255.2 259.3,256.9 260.1,258.5 261.0,260.2 261.8,261.8 263.0,264.2 264.1,266.5 265.3,268.7 266.4,270.7 267.5,272.7 268.5,274.6 269.6,276.3 270.6,277.9 271.6,279.4 272.5,280.8 273.5,282.1 274.4,283.3 275.3,284.5 276.2,285.5 277.1,286.5 278.0,287.3 278.8,288.1 279.6,288.9 280.5,289.6 281.3,290.2 282.3,291.0 283.4,291.7 284.4,292.3 285.3,292.9 286.3,293.4 287.3,293.8 288.2,294.2 289.1,294.6 290.0,294.9 290.9,295.2 291.7,295.5 292.6,295.7 293.4,296.0 294.2,296.2 295.0,296.4 296.0,296.6 297.0,296.7 297.9,296.9 298.8,297.1 299.7,297.2 300.6,297.3 301.5,297.4 302.4,297.5 303.2,297.6 304.0,297.7 304.9,297.7 305.8,297.8 306.7,297.9 307.7,297.9 308.6,298.0 309.5,298.0 310.3,298.1 311.2,298.1 312.0,298.1 312.8,298.2 313.7,298.2 314.6,298.2 315.5,298.3 316.4,298.3 317.3,298.3 318.1,298.3 319.0,298.3 319.8,298.3 320.6,298.4 321.4,298.4 322.3,298.4 323.2,298.4 324.1,298.4 324.9,298.4 325.7,298.4 326.6,298.4 327.4,298.4 328.3,298.4 329.1,298.4 330.0,298.4 330.8,298.5 331.7,298.5 332.5,298.5 333.3,298.5 334.2,298.5 335.0,298.5 335.9,298.5 336.7,298.5 337.5,298.5 338.4,298.5 339.2,298.5 340.1,298.5 340.9,298.5 341.7,298.5 342.5,298.5 343.4,298.5 344.2,298.5 345.1,298.5 345.9,298.5 346.7,298.5 347.6,298.5 348.4,298.5 349.2,298.5 350.0,298.5 350.9,298.5 351.7,298.5 352.6,298.5 353.4,298.5 354.2,298.5 355.1,298.5 355.9,298.5 356.7,298.5 357.6,298.5 358.4,298.5 359.2,298.5 360.0,298.5 360.9,298.5 361.7,298.5 362.5,298.5 363.3,298.5 364.2,298.5 365.0,298.5 365.8,298.5 366.6,298.5 367.4,298.5 368.3,298.5 369.1,298.5 369.9,298.5 370.7,298.5 371.5,298.5 372.4,298.5 373.2,298.5 374.0,298.5 374.8,298.5 375.6,298.5 376.4,298.5 377.2,298.5 378.1,298.5 378.9,298.5 379.7,298.5 380.5,298.5 381.3,298.5 382.1,298.5 383.0,298.5 383.8,298.5 384.6,298.5 385.4,298.5 386.2,298.5 387.0,298.5 387.9,298.5 388.7,298.5 389.5,298.5 390.3,298.5 391.1,298.5 391.9,298.5 L391.9,298.5 L37.5,298.5 Z" fill="url(#g223)"/>
  <defs><clipPath id="pc224"><rect x="34" y="221" width="358" height="155"/></clipPath></defs>
  <polyline points="37.5,298.5 70.1,298.5 89.2,298.5 102.8,298.5 113.3,298.5 121.9,298.4 129.1,298.4 135.4,298.3 141.0,298.3 145.9,298.2 150.4,298.1 154.5,298.0 158.3,297.8 161.8,297.6 165.0,297.5 168.1,297.2 170.9,297.0 173.6,296.7 176.2,296.4 178.6,296.0 180.9,295.6 183.1,295.2 185.2,294.8 187.2,294.3 189.1,293.7 190.9,293.1 192.7,292.5 194.4,291.8 196.1,291.1 197.7,290.4 199.2,289.6 200.7,288.7 202.2,287.8 203.6,286.9 204.9,285.9 206.3,284.8 207.6,283.7 208.8,282.6 210.0,281.5 211.2,280.3 212.4,279.0 213.5,277.7 214.6,276.4 215.7,275.1 216.8,273.7 217.8,272.3 218.8,270.9 219.8,269.5 220.8,268.1 221.7,266.6 222.7,265.2 223.6,263.7 224.5,262.3 225.4,260.9 226.2,259.4 227.1,258.0 227.9,256.6 228.7,255.3 229.5,254.0 231.1,251.4 232.6,249.1 234.1,246.9 235.5,245.0 236.9,243.3 238.2,241.9 239.6,240.8 240.8,239.9 242.1,239.3 243.3,239.0 244.5,238.9 245.6,239.1 246.7,239.4 247.8,240.1 248.9,240.9 249.9,241.8 251.0,243.0 252.0,244.2 252.9,245.6 253.9,247.1 254.8,248.6 255.8,250.2 256.7,251.8 257.6,253.5 258.4,255.2 259.3,256.9 260.1,258.5 261.0,260.2 261.8,261.8 263.0,264.2 264.1,266.5 265.3,268.7 266.4,270.7 267.5,272.7 268.5,274.6 269.6,276.3 270.6,277.9 271.6,279.4 272.5,280.8 273.5,282.1 274.4,283.3 275.3,284.5 276.2,285.5 277.1,286.5 278.0,287.3 278.8,288.1 279.6,288.9 280.5,289.6 281.3,290.2 282.3,291.0 283.4,291.7 284.4,292.3 285.3,292.9 286.3,293.4 287.3,293.8 288.2,294.2 289.1,294.6 290.0,294.9 290.9,295.2 291.7,295.5 292.6,295.7 293.4,296.0 294.2,296.2 295.0,296.4 296.0,296.6 297.0,296.7 297.9,296.9 298.8,297.1 299.7,297.2 300.6,297.3 301.5,297.4 302.4,297.5 303.2,297.6 304.0,297.7 304.9,297.7 305.8,297.8 306.7,297.9 307.7,297.9 308.6,298.0 309.5,298.0 310.3,298.1 311.2,298.1 312.0,298.1 312.8,298.2 313.7,298.2 314.6,298.2 315.5,298.3 316.4,298.3 317.3,298.3 318.1,298.3 319.0,298.3 319.8,298.3 320.6,298.4 321.4,298.4 322.3,298.4 323.2,298.4 324.1,298.4 324.9,298.4 325.7,298.4 326.6,298.4 327.4,298.4 328.3,298.4 329.1,298.4 330.0,298.4 330.8,298.5 331.7,298.5 332.5,298.5 333.3,298.5 334.2,298.5 335.0,298.5 335.9,298.5 336.7,298.5 337.5,298.5 338.4,298.5 339.2,298.5 340.1,298.5 340.9,298.5 341.7,298.5 342.5,298.5 343.4,298.5 344.2,298.5 345.1,298.5 345.9,298.5 346.7,298.5 347.6,298.5 348.4,298.5 349.2,298.5 350.0,298.5 350.9,298.5 351.7,298.5 352.6,298.5 353.4,298.5 354.2,298.5 355.1,298.5 355.9,298.5 356.7,298.5 357.6,298.5 358.4,298.5 359.2,298.5 360.0,298.5 360.9,298.5 361.7,298.5 362.5,298.5 363.3,298.5 364.2,298.5 365.0,298.5 365.8,298.5 366.6,298.5 367.4,298.5 368.3,298.5 369.1,298.5 369.9,298.5 370.7,298.5 371.5,298.5 372.4,298.5 373.2,298.5 374.0,298.5 374.8,298.5 375.6,298.5 376.4,298.5 377.2,298.5 378.1,298.5 378.9,298.5 379.7,298.5 380.5,298.5 381.3,298.5 382.1,298.5 383.0,298.5 383.8,298.5 384.6,298.5 385.4,298.5 386.2,298.5 387.0,298.5 387.9,298.5 388.7,298.5 389.5,298.5 390.3,298.5 391.1,298.5 391.9,298.5" fill="none" stroke="#2ecc71" stroke-width="1.5" stroke-linejoin="round" clip-path="url(#pc224)"/>
  <line x1="442" y1="221" x2="442" y2="376" stroke="#d1d5db"/>
  <line x1="442" y1="298.5" x2="800" y2="298.5" stroke="#d1d5db"/>
  <text x="621" y="402" text-anchor="middle" font-size="9" fill="#6b7280">Samples</text>
  <text x="420" y="298.5" text-anchor="middle" font-size="9" fill="#6b7280" transform="rotate(-90 420 298.5)">Impulse response</text>
  <line x1="442.0" y1="221" x2="442.0" y2="376" stroke="#e5e7eb" stroke-width="0.5"/>
  <text x="442.0" y="388" text-anchor="middle" font-size="8" fill="#6b7280">0</text>
  <line x1="531.5" y1="221" x2="531.5" y2="376" stroke="#e5e7eb" stroke-width="0.5"/>
  <text x="531.5" y="388" text-anchor="middle" font-size="8" fill="#6b7280">32</text>
  <line x1="621.0" y1="221" x2="621.0" y2="376" stroke="#e5e7eb" stroke-width="0.5"/>
  <text x="621.0" y="388" text-anchor="middle" font-size="8" fill="#6b7280">64</text>
  <line x1="710.5" y1="221" x2="710.5" y2="376" stroke="#e5e7eb" stroke-width="0.5"/>
  <text x="710.5" y="388" text-anchor="middle" font-size="8" fill="#6b7280">96</text>
  <line x1="800.0" y1="221" x2="800.0" y2="376" stroke="#e5e7eb" stroke-width="0.5"/>
  <text x="800.0" y="388" text-anchor="middle" font-size="8" fill="#6b7280">128</text>
  <text x="438" y="301.5" text-anchor="end" font-size="8" fill="#6b7280">0</text>
  <defs><linearGradient id="g225" x1="0" y1="221" x2="0" y2="298.5" gradientUnits="userSpaceOnUse">
    <stop offset="0%" stop-color="#f39c12" stop-opacity="0.15"/>
    <stop offset="100%" stop-color="#f39c12" stop-opacity="0.02"/>
  </linearGradient></defs>
  <defs><linearGradient id="g226" x1="0" y1="376" x2="0" y2="298.5" gradientUnits="userSpaceOnUse">
    <stop offset="0%" stop-color="#f39c12" stop-opacity="0.15"/>
    <stop offset="100%" stop-color="#f39c12" stop-opacity="0.02"/>
  </linearGradient></defs>
  <defs><clipPath id="c227"><rect x="442" y="221" width="358" height="77.5"/></clipPath></defs>
  <defs><clipPath id="c228"><rect x="442" y="298.5" width="358" height="77.5"/></clipPath></defs>
  <path d="M442.0,221.0 442.0,221.0 444.8,303.9 447.6,303.5 450.4,303.1 453.2,302.7 456.0,302.3 458.8,301.8 461.6,301.4 464.4,301.0 467.2,300.6 470.0,300.2 472.8,299.9 475.6,299.6 478.4,299.4 481.2,299.1 484.0,298.9 486.8,298.8 489.5,298.6 492.3,298.5 495.1,298.4 497.9,298.4 500.7,298.3 503.5,298.3 506.3,298.3 509.1,298.3 511.9,298.2 514.7,298.3 517.5,298.3 520.3,298.3 523.1,298.3 525.9,298.3 528.7,298.3 531.5,298.4 534.3,298.4 537.1,298.4 539.9,298.4 542.7,298.4 545.5,298.4 548.3,298.4 551.1,298.5 553.9,298.5 556.7,298.5 559.5,298.5 562.3,298.5 565.1,298.5 567.9,298.5 570.7,298.5 573.5,298.5 576.3,298.5 579.0,298.5 581.8,298.5 584.6,298.5 587.4,298.5 590.2,298.5 593.0,298.5 595.8,298.5 598.6,298.5 601.4,298.5 604.2,298.5 607.0,298.5 609.8,298.5 612.6,298.5 615.4,298.5 618.2,298.5 621.0,298.5 623.8,298.5 626.6,298.5 629.4,298.5 632.2,298.5 635.0,298.5 637.8,298.5 640.6,298.5 643.4,298.5 646.2,298.5 649.0,298.5 651.8,298.5 654.6,298.5 657.4,298.5 660.2,298.5 663.0,298.5 665.8,298.5 668.5,298.5 671.3,298.5 674.1,298.5 676.9,298.5 679.7,298.5 682.5,298.5 685.3,298.5 688.1,298.5 690.9,298.5 693.7,298.5 696.5,298.5 699.3,298.5 702.1,298.5 704.9,298.5 707.7,298.5 710.5,298.5 713.3,298.5 716.1,298.5 718.9,298.5 721.7,298.5 724.5,298.5 727.3,298.5 730.1,298.5 732.9,298.5 735.7,298.5 738.5,298.5 741.3,298.5 744.1,298.5 746.9,298.5 749.7,298.5 752.5,298.5 755.3,298.5 758.0,298.5 760.8,298.5 763.6,298.5 766.4,298.5 769.2,298.5 772.0,298.5 774.8,298.5 777.6,298.5 780.4,298.5 783.2,298.5 786.0,298.5 788.8,298.5 791.6,298.5 794.4,298.5 797.2,298.5 L797.2,298.5 L442.0,298.5 Z" fill="url(#g225)" clip-path="url(#c227)"/>
  <path d="M442.0,221.0 442.0,221.0 444.8,303.9 447.6,303.5 450.4,303.1 453.2,302.7 456.0,302.3 458.8,301.8 461.6,301.4 464.4,301.0 467.2,300.6 470.0,300.2 472.8,299.9 475.6,299.6 478.4,299.4 481.2,299.1 484.0,298.9 486.8,298.8 489.5,298.6 492.3,298.5 495.1,298.4 497.9,298.4 500.7,298.3 503.5,298.3 506.3,298.3 509.1,298.3 511.9,298.2 514.7,298.3 517.5,298.3 520.3,298.3 523.1,298.3 525.9,298.3 528.7,298.3 531.5,298.4 534.3,298.4 537.1,298.4 539.9,298.4 542.7,298.4 545.5,298.4 548.3,298.4 551.1,298.5 553.9,298.5 556.7,298.5 559.5,298.5 562.3,298.5 565.1,298.5 567.9,298.5 570.7,298.5 573.5,298.5 576.3,298.5 579.0,298.5 581.8,298.5 584.6,298.5 587.4,298.5 590.2,298.5 593.0,298.5 595.8,298.5 598.6,298.5 601.4,298.5 604.2,298.5 607.0,298.5 609.8,298.5 612.6,298.5 615.4,298.5 618.2,298.5 621.0,298.5 623.8,298.5 626.6,298.5 629.4,298.5 632.2,298.5 635.0,298.5 637.8,298.5 640.6,298.5 643.4,298.5 646.2,298.5 649.0,298.5 651.8,298.5 654.6,298.5 657.4,298.5 660.2,298.5 663.0,298.5 665.8,298.5 668.5,298.5 671.3,298.5 674.1,298.5 676.9,298.5 679.7,298.5 682.5,298.5 685.3,298.5 688.1,298.5 690.9,298.5 693.7,298.5 696.5,298.5 699.3,298.5 702.1,298.5 704.9,298.5 707.7,298.5 710.5,298.5 713.3,298.5 716.1,298.5 718.9,298.5 721.7,298.5 724.5,298.5 727.3,298.5 730.1,298.5 732.9,298.5 735.7,298.5 738.5,298.5 741.3,298.5 744.1,298.5 746.9,298.5 749.7,298.5 752.5,298.5 755.3,298.5 758.0,298.5 760.8,298.5 763.6,298.5 766.4,298.5 769.2,298.5 772.0,298.5 774.8,298.5 777.6,298.5 780.4,298.5 783.2,298.5 786.0,298.5 788.8,298.5 791.6,298.5 794.4,298.5 797.2,298.5 L797.2,298.5 L442.0,298.5 Z" fill="url(#g226)" clip-path="url(#c228)"/>
  <defs><clipPath id="pc229"><rect x="442" y="221" width="358" height="155"/></clipPath></defs>
  <polyline points="442.0,221.0 444.8,303.9 447.6,303.5 450.4,303.1 453.2,302.7 456.0,302.3 458.8,301.8 461.6,301.4 464.4,301.0 467.2,300.6 470.0,300.2 472.8,299.9 475.6,299.6 478.4,299.4 481.2,299.1 484.0,298.9 486.8,298.8 489.5,298.6 492.3,298.5 495.1,298.4 497.9,298.4 500.7,298.3 503.5,298.3 506.3,298.3 509.1,298.3 511.9,298.2 514.7,298.3 517.5,298.3 520.3,298.3 523.1,298.3 525.9,298.3 528.7,298.3 531.5,298.4 534.3,298.4 537.1,298.4 539.9,298.4 542.7,298.4 545.5,298.4 548.3,298.4 551.1,298.5 553.9,298.5 556.7,298.5 559.5,298.5 562.3,298.5 565.1,298.5 567.9,298.5 570.7,298.5 573.5,298.5 576.3,298.5 579.0,298.5 581.8,298.5 584.6,298.5 587.4,298.5 590.2,298.5 593.0,298.5 595.8,298.5 598.6,298.5 601.4,298.5 604.2,298.5 607.0,298.5 609.8,298.5 612.6,298.5 615.4,298.5 618.2,298.5 621.0,298.5 623.8,298.5 626.6,298.5 629.4,298.5 632.2,298.5 635.0,298.5 637.8,298.5 640.6,298.5 643.4,298.5 646.2,298.5 649.0,298.5 651.8,298.5 654.6,298.5 657.4,298.5 660.2,298.5 663.0,298.5 665.8,298.5 668.5,298.5 671.3,298.5 674.1,298.5 676.9,298.5 679.7,298.5 682.5,298.5 685.3,298.5 688.1,298.5 690.9,298.5 693.7,298.5 696.5,298.5 699.3,298.5 702.1,298.5 704.9,298.5 707.7,298.5 710.5,298.5 713.3,298.5 716.1,298.5 718.9,298.5 721.7,298.5 724.5,298.5 727.3,298.5 730.1,298.5 732.9,298.5 735.7,298.5 738.5,298.5 741.3,298.5 744.1,298.5 746.9,298.5 749.7,298.5 752.5,298.5 755.3,298.5 758.0,298.5 760.8,298.5 763.6,298.5 766.4,298.5 769.2,298.5 772.0,298.5 774.8,298.5 777.6,298.5 780.4,298.5 783.2,298.5 786.0,298.5 788.8,298.5 791.6,298.5 794.4,298.5 797.2,298.5" fill="none" stroke="#f39c12" stroke-width="1.3" stroke-linejoin="round" clip-path="url(#pc229)"/>
</svg>
