<svg xmlns="http://www.w3.org/2000/svg" viewBox="0 0 820 392" style="font-family:system-ui,-apple-system,sans-serif">
  <text x="800" y="11" text-anchor="end" font-size="11" font-weight="600" fill="#6b7280">Biquad notch, fc=1kHz</text>
  <line x1="34" y1="16" x2="34" y2="171" stroke="#d1d5db"/>
  <line x1="34" y1="47.0" x2="392" y2="47.0" stroke="#d1d5db"/>
  <text x="213" y="197" text-anchor="middle" font-size="9" fill="#6b7280">Hz</text>
  <text x="12" y="93.5" text-anchor="middle" font-size="9" fill="#6b7280" transform="rotate(-90 12 93.5)">dB</text>
  <line x1="66.6" y1="16" x2="66.6" y2="171" stroke="#e5e7eb" stroke-width="0.5"/>
  <line x1="85.7" y1="16" x2="85.7" y2="171" stroke="#e5e7eb" stroke-width="0.5"/>
  <line x1="99.3" y1="16" x2="99.3" y2="171" stroke="#e5e7eb" stroke-width="0.5"/>
  <line x1="109.8" y1="16" x2="109.8" y2="171" stroke="#e5e7eb" stroke-width="0.5"/>
  <line x1="118.4" y1="16" x2="118.4" y2="171" stroke="#e5e7eb" stroke-width="0.5"/>
  <line x1="125.7" y1="16" x2="125.7" y2="171" stroke="#e5e7eb" stroke-width="0.5"/>
  <line x1="131.9" y1="16" x2="131.9" y2="171" stroke="#e5e7eb" stroke-width="0.5"/>
  <line x1="137.5" y1="16" x2="137.5" y2="171" stroke="#e5e7eb" stroke-width="0.5"/>
  <line x1="175.1" y1="16" x2="175.1" y2="171" stroke="#e5e7eb" stroke-width="0.5"/>
  <line x1="194.2" y1="16" x2="194.2" y2="171" stroke="#e5e7eb" stroke-width="0.5"/>
  <line x1="207.7" y1="16" x2="207.7" y2="171" stroke="#e5e7eb" stroke-width="0.5"/>
  <line x1="218.3" y1="16" x2="218.3" y2="171" stroke="#e5e7eb" stroke-width="0.5"/>
  <line x1="226.8" y1="16" x2="226.8" y2="171" stroke="#e5e7eb" stroke-width="0.5"/>
  <line x1="234.1" y1="16" x2="234.1" y2="171" stroke="#e5e7eb" stroke-width="0.5"/>
  <line x1="240.4" y1="16" x2="240.4" y2="171" stroke="#e5e7eb" stroke-width="0.5"/>
  <line x1="245.9" y1="16" x2="245.9" y2="171" stroke="#e5e7eb" stroke-width="0.5"/>
  <line x1="283.5" y1="16" x2="283.5" y2="171" stroke="#e5e7eb" stroke-width="0.5"/>
  <line x1="302.6" y1="16" x2="302.6" y2="171" stroke="#e5e7eb" stroke-width="0.5"/>
  <line x1="316.2" y1="16" x2="316.2" y2="171" stroke="#e5e7eb" stroke-width="0.5"/>
  <line x1="326.7" y1="16" x2="326.7" y2="171" stroke="#e5e7eb" stroke-width="0.5"/>
  <line x1="335.3" y1="16" x2="335.3" y2="171" stroke="#e5e7eb" stroke-width="0.5"/>
  <line x1="342.6" y1="16" x2="342.6" y2="171" stroke="#e5e7eb" stroke-width="0.5"/>
  <line x1="348.8" y1="16" x2="348.8" y2="171" stroke="#e5e7eb" stroke-width="0.5"/>
  <line x1="354.4" y1="16" x2="354.4" y2="171" stroke="#e5e7eb" stroke-width="0.5"/>
  <line x1="392.0" y1="16" x2="392.0" y2="171" stroke="#e5e7eb" stroke-width="0.5"/>
  <line x1="142.5" y1="16" x2="142.5" y2="171" stroke="#e5e7eb" stroke-width="0.5"/>
  <text x="142.5" y="183" text-anchor="middle" font-size="8" fill="#6b7280">100</text>
  <line x1="250.9" y1="16" x2="250.9" y2="171" stroke="#e5e7eb" stroke-width="0.5"/>
  <text x="250.9" y="183" text-anchor="middle" font-size="8" fill="#6b7280">1k</text>
  <line x1="359.4" y1="16" x2="359.4" y2="171" stroke="#e5e7eb" stroke-width="0.5"/>
  <text x="359.4" y="183" text-anchor="middle" font-size="8" fill="#6b7280">10k</text>
  <line x1="34" y1="31.5" x2="392" y2="31.5" stroke="#e5e7eb" stroke-width="0.5"/>
  <line x1="34" y1="62.5" x2="392" y2="62.5" stroke="#e5e7eb" stroke-width="0.5"/>
  <line x1="34" y1="16.0" x2="392" y2="16.0" stroke="#e5e7eb" stroke-width="0.5"/>
  <text x="30" y="19.0" text-anchor="end" font-size="8" fill="#6b7280">+20</text>
  <text x="30" y="50.0" text-anchor="end" font-size="8" fill="#6b7280">0</text>
  <line x1="34" y1="78.0" x2="392" y2="78.0" stroke="#e5e7eb" stroke-width="0.5"/>
  <text x="30" y="81.0" text-anchor="end" font-size="8" fill="#6b7280">-20</text>
  <line x1="34" y1="109.0" x2="392" y2="109.0" stroke="#e5e7eb" stroke-width="0.5"/>
  <text x="30" y="112.0" text-anchor="end" font-size="8" fill="#6b7280">-40</text>
  <line x1="34" y1="140.0" x2="392" y2="140.0" stroke="#e5e7eb" stroke-width="0.5"/>
  <text x="30" y="143.0" text-anchor="end" font-size="8" fill="#6b7280">-60</text>
  <line x1="34" y1="171.0" x2="392" y2="171.0" stroke="#e5e7eb" stroke-width="0.5"/>
  <text x="30" y="174.0" text-anchor="end" font-size="8" fill="#6b7280">-80</text>
  <line x1="250.9" y1="16" x2="250.9" y2="171" stroke="#d1d5db" stroke-width="1" stroke-dasharray="4 3"/>
  <defs><linearGradient id="g163" x1="0" y1="16" x2="0" y2="171" gradientUnits="userSpaceOnUse">
    <stop offset="0%" stop-color="#4a90d9" stop-opacity="0.15"/>
    <stop offset="100%" stop-color="#4a90d9" stop-opacity="0.02"/>
  </linearGradient></defs>
  <path d="M37.5,47.0 37.5,47.0 70.1,47.0 89.2,47.0 102.8,47.0 113.3,47.0 121.9,47.0 129.1,47.0 135.4,47.0 141.0,47.0 145.9,47.0 150.4,47.0 154.5,47.0 158.3,47.0 161.8,47.0 165.0,47.0 168.1,47.0 170.9,47.0 173.6,47.0 176.2,47.0 178.6,47.0 180.9,47.0 183.1,47.0 185.2,47.0 187.2,47.0 189.1,47.0 190.9,47.0 192.7,47.0 194.4,47.0 196.1,47.0 197.7,47.0 199.2,47.0 200.7,47.0 202.2,47.0 203.6,47.0 204.9,47.0 206.3,47.0 207.6,47.0 208.8,47.0 210.0,47.0 211.2,47.0 212.4,47.0 213.5,47.0 214.6,47.0 215.7,47.0 216.8,47.0 217.8,47.0 218.8,47.0 219.8,47.0 220.8,47.0 221.7,47.0 222.7,47.0 223.6,47.0 224.5,47.0 225.4,47.1 226.2,47.1 227.1,47.1 227.9,47.1 228.7,47.1 229.5,47.1 231.1,47.1 232.6,47.1 234.1,47.1 235.5,47.1 236.9,47.2 238.2,47.2 239.6,47.3 240.8,47.4 242.1,47.5 243.3,47.6 244.5,47.8 245.6,48.2 246.7,48.8 247.8,50.1 248.9,52.8 249.9,60.0 251.0,96.2 252.0,58.9 252.9,52.7 253.9,50.2 254.8,49.0 255.8,48.4 256.7,48.0 257.6,47.8 258.4,47.6 259.3,47.5 260.1,47.4 261.0,47.4 261.8,47.3 263.0,47.2 264.1,47.2 265.3,47.2 266.4,47.1 267.5,47.1 268.5,47.1 269.6,47.1 270.6,47.1 271.6,47.1 272.5,47.1 273.5,47.1 274.4,47.1 275.3,47.1 276.2,47.1 277.1,47.0 278.0,47.0 278.8,47.0 279.6,47.0 280.5,47.0 281.3,47.0 282.3,47.0 283.4,47.0 284.4,47.0 285.3,47.0 286.3,47.0 287.3,47.0 288.2,47.0 289.1,47.0 290.0,47.0 290.9,47.0 291.7,47.0 292.6,47.0 293.4,47.0 294.2,47.0 295.0,47.0 296.0,47.0 297.0,47.0 297.9,47.0 298.8,47.0 299.7,47.0 300.6,47.0 301.5,47.0 302.4,47.0 303.2,47.0 304.0,47.0 304.9,47.0 305.8,47.0 306.7,47.0 307.7,47.0 308.6,47.0 309.5,47.0 310.3,47.0 311.2,47.0 312.0,47.0 312.8,47.0 313.7,47.0 314.6,47.0 315.5,47.0 316.4,47.0 317.3,47.0 318.1,47.0 319.0,47.0 319.8,47.0 320.6,47.0 321.4,47.0 322.3,47.0 323.2,47.0 324.1,47.0 324.9,47.0 325.7,47.0 326.6,47.0 327.4,47.0 328.3,47.0 329.1,47.0 330.0,47.0 330.8,47.0 331.7,47.0 332.5,47.0 333.3,47.0 334.2,47.0 335.0,47.0 335.9,47.0 336.7,47.0 337.5,47.0 338.4,47.0 339.2,47.0 340.1,47.0 340.9,47.0 341.7,47.0 342.5,47.0 343.4,47.0 344.2,47.0 345.1,47.0 345.9,47.0 346.7,47.0 347.6,47.0 348.4,47.0 349.2,47.0 350.0,47.0 350.9,47.0 351.7,47.0 352.6,47.0 353.4,47.0 354.2,47.0 355.1,47.0 355.9,47.0 356.7,47.0 357.6,47.0 358.4,47.0 359.2,47.0 360.0,47.0 360.9,47.0 361.7,47.0 362.5,47.0 363.3,47.0 364.2,47.0 365.0,47.0 365.8,47.0 366.6,47.0 367.4,47.0 368.3,47.0 369.1,47.0 369.9,47.0 370.7,47.0 371.5,47.0 372.4,47.0 373.2,47.0 374.0,47.0 374.8,47.0 375.6,47.0 376.4,47.0 377.2,47.0 378.1,47.0 378.9,47.0 379.7,47.0 380.5,47.0 381.3,47.0 382.1,47.0 383.0,47.0 383.8,47.0 384.6,47.0 385.4,47.0 386.2,47.0 387.0,47.0 387.9,47.0 388.7,47.0 389.5,47.0 390.3,47.0 391.1,47.0 391.9,47.0 L391.9,171.0 L37.5,171.0 Z" fill="url(#g163)"/>
  <defs><clipPath id="pc164"><rect x="34" y="16" width="358" height="155"/></clipPath></defs>
  <polyline points="37.5,47.0 70.1,47.0 89.2,47.0 102.8,47.0 113.3,47.0 121.9,47.0 129.1,47.0 135.4,47.0 141.0,47.0 145.9,47.0 150.4,47.0 154.5,47.0 158.3,47.0 161.8,47.0 165.0,47.0 168.1,47.0 170.9,47.0 173.6,47.0 176.2,47.0 178.6,47.0 180.9,47.0 183.1,47.0 185.2,47.0 187.2,47.0 189.1,47.0 190.9,47.0 192.7,47.0 194.4,47.0 196.1,47.0 197.7,47.0 199.2,47.0 200.7,47.0 202.2,47.0 203.6,47.0 204.9,47.0 206.3,47.0 207.6,47.0 208.8,47.0 210.0,47.0 211.2,47.0 212.4,47.0 213.5,47.0 214.6,47.0 215.7,47.0 216.8,47.0 217.8,47.0 218.8,47.0 219.8,47.0 220.8,47.0 221.7,47.0 222.7,47.0 223.6,47.0 224.5,47.0 225.4,47.1 226.2,47.1 227.1,47.1 227.9,47.1 228.7,47.1 229.5,47.1 231.1,47.1 232.6,47.1 234.1,47.1 235.5,47.1 236.9,47.2 238.2,47.2 239.6,47.3 240.8,47.4 242.1,47.5 243.3,47.6 244.5,47.8 245.6,48.2 246.7,48.8 247.8,50.1 248.9,52.8 249.9,60.0 251.0,96.2 252.0,58.9 252.9,52.7 253.9,50.2 254.8,49.0 255.8,48.4 256.7,48.0 257.6,47.8 258.4,47.6 259.3,47.5 260.1,47.4 261.0,47.4 261.8,47.3 263.0,47.2 264.1,47.2 265.3,47.2 266.4,47.1 267.5,47.1 268.5,47.1 269.6,47.1 270.6,47.1 271.6,47.1 272.5,47.1 273.5,47.1 274.4,47.1 275.3,47.1 276.2,47.1 277.1,47.0 278.0,47.0 278.8,47.0 279.6,47.0 280.5,47.0 281.3,47.0 282.3,47.0 283.4,47.0 284.4,47.0 285.3,47.0 286.3,47.0 287.3,47.0 288.2,47.0 289.1,47.0 290.0,47.0 290.9,47.0 291.7,47.0 292.6,47.0 293.4,47.0 294.2,47.0 295.0,47.0 296.0,47.0 297.0,47.0 297.9,47.0 298.8,47.0 299.7,47.0 300.6,47.0 301.5,47.0 302.4,47.0 303.2,47.0 304.0,47.0 304.9,47.0 305.8,47.0 306.7,47.0 307.7,47.0 308.6,47.0 309.5,47.0 310.3,47.0 311.2,47.0 312.0,47.0 312.8,47.0 313.7,47.0 314.6,47.0 315.5,47.0 316.4,47.0 317.3,47.0 318.1,47.0 319.0,47.0 319.8,47.0 320.6,47.0 321.4,47.0 322.3,47.0 323.2,47.0 324.1,47.0 324.9,47.0 325.7,47.0 326.6,47.0 327.4,47.0 328.3,47.0 329.1,47.0 330.0,47.0 330.8,47.0 331.7,47.0 332.5,47.0 333.3,47.0 334.2,47.0 335.0,47.0 335.9,47.0 336.7,47.0 337.5,47.0 338.4,47.0 339.2,47.0 340.1,47.0 340.9,47.0 341.7,47.0 342.5,47.0 343.4,47.0 344.2,47.0 345.1,47.0 345.9,47.0 346.7,47.0 347.6,47.0 348.4,47.0 349.2,47.0 350.0,47.0 350.9,47.0 351.7,47.0 352.6,47.0 353.4,47.0 354.2,47.0 355.1,47.0 355.9,47.0 356.7,47.0 357.6,47.0 358.4,47.0 359.2,47.0 360.0,47.0 360.9,47.0 361.7,47.0 362.5,47.0 363.3,47.0 364.2,47.0 365.0,47.0 365.8,47.0 366.6,47.0 367.4,47.0 368.3,47.0 369.1,47.0 369.9,47.0 370.7,47.0 371.5,47.0 372.4,47.0 373.2,47.0 374.0,47.0 374.8,47.0 375.6,47.0 376.4,47.0 377.2,47.0 378.1,47.0 378.9,47.0 379.7,47.0 380.5,47.0 381.3,47.0 382.1,47.0 383.0,47.0 383.8,47.0 384.6,47.0 385.4,47.0 386.2,47.0 387.0,47.0 387.9,47.0 388.7,47.0 389.5,47.0 390.3,47.0 391.1,47.0 391.9,47.0" fill="none" stroke="#4a90d9" stroke-width="1.5" stroke-linejoin="round" clip-path="url(#pc164)"/>
  <line x1="442" y1="16" x2="442" y2="171" stroke="#d1d5db"/>
  <line x1="442" y1="93.5" x2="800" y2="93.5" stroke="#d1d5db"/>
  <text x="621" y="197" text-anchor="middle" font-size="9" fill="#6b7280">Hz</text>
  <text x="420" y="93.5" text-anchor="middle" font-size="9" fill="#6b7280" transform="rotate(-90 420 93.5)">Phase (deg)</text>
  <line x1="474.6" y1="16" x2="474.6" y2="171" stroke="#e5e7eb" stroke-width="0.5"/>
  <line x1="493.7" y1="16" x2="493.7" y2="171" stroke="#e5e7eb" stroke-width="0.5"/>
  <line x1="507.3" y1="16" x2="507.3" y2="171" stroke="#e5e7eb" stroke-width="0.5"/>
  <line x1="517.8" y1="16" x2="517.8" y2="171" stroke="#e5e7eb" stroke-width="0.5"/>
  <line x1="526.4" y1="16" x2="526.4" y2="171" stroke="#e5e7eb" stroke-width="0.5"/>
  <line x1="533.7" y1="16" x2="533.7" y2="171" stroke="#e5e7eb" stroke-width="0.5"/>
  <line x1="539.9" y1="16" x2="539.9" y2="171" stroke="#e5e7eb" stroke-width="0.5"/>
  <line x1="545.5" y1="16" x2="545.5" y2="171" stroke="#e5e7eb" stroke-width="0.5"/>
  <line x1="583.1" y1="16" x2="583.1" y2="171" stroke="#e5e7eb" stroke-width="0.5"/>
  <line x1="602.2" y1="16" x2="602.2" y2="171" stroke="#e5e7eb" stroke-width="0.5"/>
  <line x1="615.7" y1="16" x2="615.7" y2="171" stroke="#e5e7eb" stroke-width="0.5"/>
  <line x1="626.3" y1="16" x2="626.3" y2="171" stroke="#e5e7eb" stroke-width="0.5"/>
  <line x1="634.8" y1="16" x2="634.8" y2="171" stroke="#e5e7eb" stroke-width="0.5"/>
  <line x1="642.1" y1="16" x2="642.1" y2="171" stroke="#e5e7eb" stroke-width="0.5"/>
  <line x1="648.4" y1="16" x2="648.4" y2="171" stroke="#e5e7eb" stroke-width="0.5"/>
  <line x1="653.9" y1="16" x2="653.9" y2="171" stroke="#e5e7eb" stroke-width="0.5"/>
  <line x1="691.5" y1="16" x2="691.5" y2="171" stroke="#e5e7eb" stroke-width="0.5"/>
  <line x1="710.6" y1="16" x2="710.6" y2="171" stroke="#e5e7eb" stroke-width="0.5"/>
  <line x1="724.2" y1="16" x2="724.2" y2="171" stroke="#e5e7eb" stroke-width="0.5"/>
  <line x1="734.7" y1="16" x2="734.7" y2="171" stroke="#e5e7eb" stroke-width="0.5"/>
  <line x1="743.3" y1="16" x2="743.3" y2="171" stroke="#e5e7eb" stroke-width="0.5"/>
  <line x1="750.6" y1="16" x2="750.6" y2="171" stroke="#e5e7eb" stroke-width="0.5"/>
  <line x1="756.8" y1="16" x2="756.8" y2="171" stroke="#e5e7eb" stroke-width="0.5"/>
  <line x1="762.4" y1="16" x2="762.4" y2="171" stroke="#e5e7eb" stroke-width="0.5"/>
  <line x1="800.0" y1="16" x2="800.0" y2="171" stroke="#e5e7eb" stroke-width="0.5"/>
  <line x1="550.5" y1="16" x2="550.5" y2="171" stroke="#e5e7eb" stroke-width="0.5"/>
  <text x="550.5" y="183" text-anchor="middle" font-size="8" fill="#6b7280">100</text>
  <line x1="658.9" y1="16" x2="658.9" y2="171" stroke="#e5e7eb" stroke-width="0.5"/>
  <text x="658.9" y="183" text-anchor="middle" font-size="8" fill="#6b7280">1k</text>
  <line x1="767.4" y1="16" x2="767.4" y2="171" stroke="#e5e7eb" stroke-width="0.5"/>
  <text x="767.4" y="183" text-anchor="middle" font-size="8" fill="#6b7280">10k</text>
  <line x1="442" y1="54.8" x2="800" y2="54.8" stroke="#e5e7eb" stroke-width="0.5"/>
  <line x1="442" y1="132.3" x2="800" y2="132.3" stroke="#e5e7eb" stroke-width="0.5"/>
  <line x1="442" y1="16.0" x2="800" y2="16.0" stroke="#e5e7eb" stroke-width="0.5"/>
  <text x="438" y="19.0" text-anchor="end" font-size="8" fill="#6b7280">180</text>
  <text x="438" y="96.5" text-anchor="end" font-size="8" fill="#6b7280">0</text>
  <line x1="442" y1="171.0" x2="800" y2="171.0" stroke="#e5e7eb" stroke-width="0.5"/>
  <text x="438" y="174.0" text-anchor="end" font-size="8" fill="#6b7280">-180</text>
  <line x1="658.9" y1="16" x2="658.9" y2="171" stroke="#d1d5db" stroke-width="1" stroke-dasharray="4 3"/>
  <defs><linearGradient id="g165" x1="0" y1="16" x2="0" y2="93.5" gradientUnits="userSpaceOnUse">
    <stop offset="0%" stop-color="#e74c3c" stop-opacity="0.15"/>
    <stop offset="100%" stop-color="#e74c3c" stop-opacity="0.02"/>
  </linearGradient></defs>
  <defs><linearGradient id="g166" x1="0" y1="171" x2="0" y2="93.5" gradientUnits="userSpaceOnUse">
    <stop offset="0%" stop-color="#e74c3c" stop-opacity="0.15"/>
    <stop offset="100%" stop-color="#e74c3c" stop-opacity="0.02"/>
  </linearGradient></defs>
  <defs><clipPath id="c167"><rect x="442" y="16" width="358" height="77.5"/></clipPath></defs>
  <defs><clipPath id="c168"><rect x="442" y="93.5" width="358" height="77.5"/></clipPath></defs>
  <path d="M445.5,93.5 445.5,93.5 478.1,93.6 497.2,93.6 510.8,93.6 521.3,93.6 529.9,93.7 537.1,93.7 543.4,93.7 549.0,93.7 553.9,93.8 558.4,93.8 562.5,93.8 566.3,93.9 569.8,93.9 573.0,93.9 576.1,93.9 578.9,94.0 581.6,94.0 584.2,94.0 586.6,94.1 588.9,94.1 591.1,94.1 593.2,94.1 595.2,94.2 597.1,94.2 598.9,94.2 600.7,94.3 602.4,94.3 604.1,94.4 605.7,94.4 607.2,94.4 608.7,94.5 610.2,94.5 611.6,94.5 612.9,94.6 614.3,94.6 615.6,94.7 616.8,94.7 618.0,94.8 619.2,94.8 620.4,94.8 621.5,94.9 622.6,94.9 623.7,95.0 624.8,95.1 625.8,95.1 626.8,95.2 627.8,95.2 628.8,95.3 629.7,95.4 630.7,95.4 631.6,95.5 632.5,95.6 633.4,95.7 634.2,95.7 635.1,95.8 635.9,95.9 636.7,96.0 637.5,96.1 639.1,96.3 640.6,96.6 642.1,96.9 643.5,97.2 644.9,97.5 646.2,98.0 647.6,98.5 648.8,99.1 650.1,99.9 651.3,100.8 652.5,102.1 653.6,103.8 654.7,106.1 655.8,109.6 656.9,114.8 657.9,122.6 659.0,55.4 660.0,65.2 660.9,72.4 661.9,77.2 662.8,80.3 663.8,82.4 664.7,84.0 665.6,85.2 666.4,86.1 667.3,86.8 668.1,87.4 669.0,87.9 669.8,88.3 671.0,88.8 672.1,89.2 673.3,89.6 674.4,89.9 675.5,90.1 676.5,90.3 677.6,90.5 678.6,90.7 679.6,90.8 680.5,90.9 681.5,91.0 682.4,91.2 683.3,91.2 684.2,91.3 685.1,91.4 686.0,91.5 686.8,91.6 687.6,91.6 688.5,91.7 689.3,91.7 690.3,91.8 691.4,91.9 692.4,91.9 693.3,92.0 694.3,92.0 695.3,92.1 696.2,92.1 697.1,92.1 698.0,92.2 698.9,92.2 699.7,92.3 700.6,92.3 701.4,92.3 702.2,92.3 703.0,92.4 704.0,92.4 705.0,92.4 705.9,92.5 706.8,92.5 707.7,92.5 708.6,92.5 709.5,92.6 710.4,92.6 711.2,92.6 712.0,92.6 712.9,92.6 713.8,92.7 714.7,92.7 715.7,92.7 716.6,92.7 717.5,92.7 718.3,92.8 719.2,92.8 720.0,92.8 720.8,92.8 721.7,92.8 722.6,92.8 723.5,92.8 724.4,92.9 725.3,92.9 726.1,92.9 727.0,92.9 727.8,92.9 728.6,92.9 729.4,92.9 730.3,93.0 731.2,93.0 732.1,93.0 732.9,93.0 733.7,93.0 734.6,93.0 735.4,93.0 736.3,93.0 737.1,93.0 738.0,93.0 738.8,93.1 739.7,93.1 740.5,93.1 741.3,93.1 742.2,93.1 743.0,93.1 743.9,93.1 744.7,93.1 745.5,93.1 746.4,93.1 747.2,93.1 748.1,93.1 748.9,93.2 749.7,93.2 750.5,93.2 751.4,93.2 752.2,93.2 753.1,93.2 753.9,93.2 754.7,93.2 755.6,93.2 756.4,93.2 757.2,93.2 758.0,93.2 758.9,93.2 759.7,93.2 760.6,93.2 761.4,93.3 762.2,93.3 763.1,93.3 763.9,93.3 764.7,93.3 765.6,93.3 766.4,93.3 767.2,93.3 768.0,93.3 768.9,93.3 769.7,93.3 770.5,93.3 771.3,93.3 772.2,93.3 773.0,93.3 773.8,93.3 774.6,93.3 775.4,93.3 776.3,93.3 777.1,93.4 777.9,93.4 778.7,93.4 779.5,93.4 780.4,93.4 781.2,93.4 782.0,93.4 782.8,93.4 783.6,93.4 784.4,93.4 785.2,93.4 786.1,93.4 786.9,93.4 787.7,93.4 788.5,93.4 789.3,93.4 790.1,93.4 791.0,93.4 791.8,93.4 792.6,93.4 793.4,93.4 794.2,93.4 795.0,93.4 795.9,93.5 796.7,93.5 797.5,93.5 798.3,93.5 799.1,93.5 799.9,93.5 L799.9,93.5 L445.5,93.5 Z" fill="url(#g165)" clip-path="url(#c167)"/>
  <path d="M445.5,93.5 445.5,93.5 478.1,93.6 497.2,93.6 510.8,93.6 521.3,93.6 529.9,93.7 537.1,93.7 543.4,93.7 549.0,93.7 553.9,93.8 558.4,93.8 562.5,93.8 566.3,93.9 569.8,93.9 573.0,93.9 576.1,93.9 578.9,94.0 581.6,94.0 584.2,94.0 586.6,94.1 588.9,94.1 591.1,94.1 593.2,94.1 595.2,94.2 597.1,94.2 598.9,94.2 600.7,94.3 602.4,94.3 604.1,94.4 605.7,94.4 607.2,94.4 608.7,94.5 610.2,94.5 611.6,94.5 612.9,94.6 614.3,94.6 615.6,94.7 616.8,94.7 618.0,94.8 619.2,94.8 620.4,94.8 621.5,94.9 622.6,94.9 623.7,95.0 624.8,95.1 625.8,95.1 626.8,95.2 627.8,95.2 628.8,95.3 629.7,95.4 630.7,95.4 631.6,95.5 632.5,95.6 633.4,95.7 634.2,95.7 635.1,95.8 635.9,95.9 636.7,96.0 637.5,96.1 639.1,96.3 640.6,96.6 642.1,96.9 643.5,97.2 644.9,97.5 646.2,98.0 647.6,98.5 648.8,99.1 650.1,99.9 651.3,100.8 652.5,102.1 653.6,103.8 654.7,106.1 655.8,109.6 656.9,114.8 657.9,122.6 659.0,55.4 660.0,65.2 660.9,72.4 661.9,77.2 662.8,80.3 663.8,82.4 664.7,84.0 665.6,85.2 666.4,86.1 667.3,86.8 668.1,87.4 669.0,87.9 669.8,88.3 671.0,88.8 672.1,89.2 673.3,89.6 674.4,89.9 675.5,90.1 676.5,90.3 677.6,90.5 678.6,90.7 679.6,90.8 680.5,90.9 681.5,91.0 682.4,91.2 683.3,91.2 684.2,91.3 685.1,91.4 686.0,91.5 686.8,91.6 687.6,91.6 688.5,91.7 689.3,91.7 690.3,91.8 691.4,91.9 692.4,91.9 693.3,92.0 694.3,92.0 695.3,92.1 696.2,92.1 697.1,92.1 698.0,92.2 698.9,92.2 699.7,92.3 700.6,92.3 701.4,92.3 702.2,92.3 703.0,92.4 704.0,92.4 705.0,92.4 705.9,92.5 706.8,92.5 707.7,92.5 708.6,92.5 709.5,92.6 710.4,92.6 711.2,92.6 712.0,92.6 712.9,92.6 713.8,92.7 714.7,92.7 715.7,92.7 716.6,92.7 717.5,92.7 718.3,92.8 719.2,92.8 720.0,92.8 720.8,92.8 721.7,92.8 722.6,92.8 723.5,92.8 724.4,92.9 725.3,92.9 726.1,92.9 727.0,92.9 727.8,92.9 728.6,92.9 729.4,92.9 730.3,93.0 731.2,93.0 732.1,93.0 732.9,93.0 733.7,93.0 734.6,93.0 735.4,93.0 736.3,93.0 737.1,93.0 738.0,93.0 738.8,93.1 739.7,93.1 740.5,93.1 741.3,93.1 742.2,93.1 743.0,93.1 743.9,93.1 744.7,93.1 745.5,93.1 746.4,93.1 747.2,93.1 748.1,93.1 748.9,93.2 749.7,93.2 750.5,93.2 751.4,93.2 752.2,93.2 753.1,93.2 753.9,93.2 754.7,93.2 755.6,93.2 756.4,93.2 757.2,93.2 758.0,93.2 758.9,93.2 759.7,93.2 760.6,93.2 761.4,93.3 762.2,93.3 763.1,93.3 763.9,93.3 764.7,93.3 765.6,93.3 766.4,93.3 767.2,93.3 768.0,93.3 768.9,93.3 769.7,93.3 770.5,93.3 771.3,93.3 772.2,93.3 773.0,93.3 773.8,93.3 774.6,93.3 775.4,93.3 776.3,93.3 777.1,93.4 777.9,93.4 778.7,93.4 779.5,93.4 780.4,93.4 781.2,93.4 782.0,93.4 782.8,93.4 783.6,93.4 784.4,93.4 785.2,93.4 786.1,93.4 786.9,93.4 787.7,93.4 788.5,93.4 789.3,93.4 790.1,93.4 791.0,93.4 791.8,93.4 792.6,93.4 793.4,93.4 794.2,93.4 795.0,93.4 795.9,93.5 796.7,93.5 797.5,93.5 798.3,93.5 799.1,93.5 799.9,93.5 L799.9,93.5 L445.5,93.5 Z" fill="url(#g166)" clip-path="url(#c168)"/>
  <defs><clipPath id="pc169"><rect x="442" y="16" width="358" height="155"/></clipPath></defs>
  <polyline points="445.5,93.5 478.1,93.6 497.2,93.6 510.8,93.6 521.3,93.6 529.9,93.7 537.1,93.7 543.4,93.7 549.0,93.7 553.9,93.8 558.4,93.8 562.5,93.8 566.3,93.9 569.8,93.9 573.0,93.9 576.1,93.9 578.9,94.0 581.6,94.0 584.2,94.0 586.6,94.1 588.9,94.1 591.1,94.1 593.2,94.1 595.2,94.2 597.1,94.2 598.9,94.2 600.7,94.3 602.4,94.3 604.1,94.4 605.7,94.4 607.2,94.4 608.7,94.5 610.2,94.5 611.6,94.5 612.9,94.6 614.3,94.6 615.6,94.7 616.8,94.7 618.0,94.8 619.2,94.8 620.4,94.8 621.5,94.9 622.6,94.9 623.7,95.0 624.8,95.1 625.8,95.1 626.8,95.2 627.8,95.2 628.8,95.3 629.7,95.4 630.7,95.4 631.6,95.5 632.5,95.6 633.4,95.7 634.2,95.7 635.1,95.8 635.9,95.9 636.7,96.0 637.5,96.1 639.1,96.3 640.6,96.6 642.1,96.9 643.5,97.2 644.9,97.5 646.2,98.0 647.6,98.5 648.8,99.1 650.1,99.9 651.3,100.8 652.5,102.1 653.6,103.8 654.7,106.1 655.8,109.6 656.9,114.8 657.9,122.6 659.0,55.4 660.0,65.2 660.9,72.4 661.9,77.2 662.8,80.3 663.8,82.4 664.7,84.0 665.6,85.2 666.4,86.1 667.3,86.8 668.1,87.4 669.0,87.9 669.8,88.3 671.0,88.8 672.1,89.2 673.3,89.6 674.4,89.9 675.5,90.1 676.5,90.3 677.6,90.5 678.6,90.7 679.6,90.8 680.5,90.9 681.5,91.0 682.4,91.2 683.3,91.2 684.2,91.3 685.1,91.4 686.0,91.5 686.8,91.6 687.6,91.6 688.5,91.7 689.3,91.7 690.3,91.8 691.4,91.9 692.4,91.9 693.3,92.0 694.3,92.0 695.3,92.1 696.2,92.1 697.1,92.1 698.0,92.2 698.9,92.2 699.7,92.3 700.6,92.3 701.4,92.3 702.2,92.3 703.0,92.4 704.0,92.4 705.0,92.4 705.9,92.5 706.8,92.5 707.7,92.5 708.6,92.5 709.5,92.6 710.4,92.6 711.2,92.6 712.0,92.6 712.9,92.6 713.8,92.7 714.7,92.7 715.7,92.7 716.6,92.7 717.5,92.7 718.3,92.8 719.2,92.8 720.0,92.8 720.8,92.8 721.7,92.8 722.6,92.8 723.5,92.8 724.4,92.9 725.3,92.9 726.1,92.9 727.0,92.9 727.8,92.9 728.6,92.9 729.4,92.9 730.3,93.0 731.2,93.0 732.1,93.0 732.9,93.0 733.7,93.0 734.6,93.0 735.4,93.0 736.3,93.0 737.1,93.0 738.0,93.0 738.8,93.1 739.7,93.1 740.5,93.1 741.3,93.1 742.2,93.1 743.0,93.1 743.9,93.1 744.7,93.1 745.5,93.1 746.4,93.1 747.2,93.1 748.1,93.1 748.9,93.2 749.7,93.2 750.5,93.2 751.4,93.2 752.2,93.2 753.1,93.2 753.9,93.2 754.7,93.2 755.6,93.2 756.4,93.2 757.2,93.2 758.0,93.2 758.9,93.2 759.7,93.2 760.6,93.2 761.4,93.3 762.2,93.3 763.1,93.3 763.9,93.3 764.7,93.3 765.6,93.3 766.4,93.3 767.2,93.3 768.0,93.3 768.9,93.3 769.7,93.3 770.5,93.3 771.3,93.3 772.2,93.3 773.0,93.3 773.8,93.3 774.6,93.3 775.4,93.3 776.3,93.3 777.1,93.4 777.9,93.4 778.7,93.4 779.5,93.4 780.4,93.4 781.2,93.4 782.0,93.4 782.8,93.4 783.6,93.4 784.4,93.4 785.2,93.4 786.1,93.4 786.9,93.4 787.7,93.4 788.5,93.4 789.3,93.4 790.1,93.4 791.0,93.4 791.8,93.4 792.6,93.4 793.4,93.4 794.2,93.4 795.0,93.4 795.9,93.5 796.7,93.5 797.5,93.5 798.3,93.5 799.1,93.5 799.9,93.5" fill="none" stroke="#e74c3c" stroke-width="1.5" stroke-linejoin="round" clip-path="url(#pc169)"/>
  <line x1="34" y1="221" x2="34" y2="376" stroke="#d1d5db"/>
  <line x1="34" y1="298.5" x2="392" y2="298.5" stroke="#d1d5db"/>
  <text x="213" y="402" text-anchor="middle" font-size="9" fill="#6b7280">Hz</text>
  <text x="12" y="298.5" text-anchor="middle" font-size="9" fill="#6b7280" transform="rotate(-90 12 298.5)">Group delay</text>
  <line x1="66.6" y1="221" x2="66.6" y2="376" stroke="#e5e7eb" stroke-width="0.5"/>
  <line x1="85.7" y1="221" x2="85.7" y2="376" stroke="#e5e7eb" stroke-width="0.5"/>
  <line x1="99.3" y1="221" x2="99.3" y2="376" stroke="#e5e7eb" stroke-width="0.5"/>
  <line x1="109.8" y1="221" x2="109.8" y2="376" stroke="#e5e7eb" stroke-width="0.5"/>
  <line x1="118.4" y1="221" x2="118.4" y2="376" stroke="#e5e7eb" stroke-width="0.5"/>
  <line x1="125.7" y1="221" x2="125.7" y2="376" stroke="#e5e7eb" stroke-width="0.5"/>
  <line x1="131.9" y1="221" x2="131.9" y2="376" stroke="#e5e7eb" stroke-width="0.5"/>
  <line x1="137.5" y1="221" x2="137.5" y2="376" stroke="#e5e7eb" stroke-width="0.5"/>
  <line x1="175.1" y1="221" x2="175.1" y2="376" stroke="#e5e7eb" stroke-width="0.5"/>
  <line x1="194.2" y1="221" x2="194.2" y2="376" stroke="#e5e7eb" stroke-width="0.5"/>
  <line x1="207.7" y1="221" x2="207.7" y2="376" stroke="#e5e7eb" stroke-width="0.5"/>
  <line x1="218.3" y1="221" x2="218.3" y2="376" stroke="#e5e7eb" stroke-width="0.5"/>
  <line x1="226.8" y1="221" x2="226.8" y2="376" stroke="#e5e7eb" stroke-width="0.5"/>
  <line x1="234.1" y1="221" x2="234.1" y2="376" stroke="#e5e7eb" stroke-width="0.5"/>
  <line x1="240.4" y1="221" x2="240.4" y2="376" stroke="#e5e7eb" stroke-width="0.5"/>
  <line x1="245.9" y1="221" x2="245.9" y2="376" stroke="#e5e7eb" stroke-width="0.5"/>
  <line x1="283.5" y1="221" x2="283.5" y2="376" stroke="#e5e7eb" stroke-width="0.5"/>
  <line x1="302.6" y1="221" x2="302.6" y2="376" stroke="#e5e7eb" stroke-width="0.5"/>
  <line x1="316.2" y1="221" x2="316.2" y2="376" stroke="#e5e7eb" stroke-width="0.5"/>
  <line x1="326.7" y1="221" x2="326.7" y2="376" stroke="#e5e7eb" stroke-width="0.5"/>
  <line x1="335.3" y1="221" x2="335.3" y2="376" stroke="#e5e7eb" stroke-width="0.5"/>
  <line x1="342.6" y1="221" x2="342.6" y2="376" stroke="#e5e7eb" stroke-width="0.5"/>
  <line x1="348.8" y1="221" x2="348.8" y2="376" stroke="#e5e7eb" stroke-width="0.5"/>
  <line x1="354.4" y1="221" x2="354.4" y2="376" stroke="#e5e7eb" stroke-width="0.5"/>
  <line x1="392.0" y1="221" x2="392.0" y2="376" stroke="#e5e7eb" stroke-width="0.5"/>
  <line x1="142.5" y1="221" x2="142.5" y2="376" stroke="#e5e7eb" stroke-width="0.5"/>
  <text x="142.5" y="388" text-anchor="middle" font-size="8" fill="#6b7280">100</text>
  <line x1="250.9" y1="221" x2="250.9" y2="376" stroke="#e5e7eb" stroke-width="0.5"/>
  <text x="250.9" y="388" text-anchor="middle" font-size="8" fill="#6b7280">1k</text>
  <line x1="359.4" y1="221" x2="359.4" y2="376" stroke="#e5e7eb" stroke-width="0.5"/>
  <text x="359.4" y="388" text-anchor="middle" font-size="8" fill="#6b7280">10k</text>
  <line x1="34" y1="342.5" x2="392" y2="342.5" stroke="#e5e7eb" stroke-width="0.5"/>
  <text x="30" y="345.5" text-anchor="end" font-size="8" fill="#6b7280">-4000</text>
  <text x="30" y="301.5" text-anchor="end" font-size="8" fill="#6b7280">0</text>
  <line x1="34" y1="254.5" x2="392" y2="254.5" stroke="#e5e7eb" stroke-width="0.5"/>
  <text x="30" y="257.5" text-anchor="end" font-size="8" fill="#6b7280">4000</text>
  <line x1="250.9" y1="221" x2="250.9" y2="376" stroke="#d1d5db" stroke-width="1" stroke-dasharray="4 3"/>
  <defs><linearGradient id="g170" x1="0" y1="221" x2="0" y2="298.5" gradientUnits="userSpaceOnUse">
    <stop offset="0%" stop-color="#2ecc71" stop-opacity="0.15"/>
    <stop offset="100%" stop-color="#2ecc71" stop-opacity="0.02"/>
  </linearGradient></defs>
  <defs><linearGradient id="g171" x1="0" y1="376" x2="0" y2="298.5" gradientUnits="userSpaceOnUse">
    <stop offset="0%" stop-color="#2ecc71" stop-opacity="0.15"/>
    <stop offset="100%" stop-color="#2ecc71" stop-opacity="0.02"/>
  </linearGradient></defs>
  <defs><clipPath id="c172"><rect x="34" y="221" width="358" height="77.5"/></clipPath></defs>
  <defs><clipPath id="c173"><rect x="34" y="298.5" width="358" height="77.5"/></clipPath></defs>
  <path d="M37.5,298.5 37.5,298.5 70.1,298.5 89.2,298.5 102.8,298.5 113.3,298.5 121.9,298.5 129.1,298.5 135.4,298.5 141.0,298.5 145.9,298.5 150.4,298.5 154.5,298.5 158.3,298.5 161.8,298.5 165.0,298.5 168.1,298.5 170.9,298.5 173.6,298.5 176.2,298.5 178.6,298.5 180.9,298.5 183.1,298.5 185.2,298.5 187.2,298.5 189.1,298.5 190.9,298.5 192.7,298.5 194.4,298.5 196.1,298.5 197.7,298.5 199.2,298.5 200.7,298.5 202.2,298.5 203.6,298.5 204.9,298.5 206.3,298.5 207.6,298.5 208.8,298.5 210.0,298.5 211.2,298.5 212.4,298.5 213.5,298.5 214.6,298.5 215.7,298.5 216.8,298.5 217.8,298.5 218.8,298.5 219.8,298.5 220.8,298.5 221.7,298.5 222.7,298.5 223.6,298.5 224.5,298.5 225.4,298.5 226.2,298.5 227.1,298.5 227.9,298.5 228.7,298.5 229.5,298.5 231.1,298.5 232.6,298.5 234.1,298.5 235.5,298.5 236.9,298.5 238.2,298.5 239.6,298.5 240.8,298.5 242.1,298.5 243.3,298.5 244.5,298.6 245.6,298.6 246.7,298.7 247.8,299.0 248.9,299.6 249.9,301.8 251.0,238.9 252.0,295.7 252.9,297.5 253.9,298.1 254.8,298.3 255.8,298.4 256.7,298.4 257.6,298.4 258.4,298.5 259.3,298.5 260.1,298.5 261.0,298.5 261.8,298.5 263.0,298.5 264.1,298.5 265.3,298.5 266.4,298.5 267.5,298.5 268.5,298.5 269.6,298.5 270.6,298.5 271.6,298.5 272.5,298.5 273.5,298.5 274.4,298.5 275.3,298.5 276.2,298.5 277.1,298.5 278.0,298.5 278.8,298.5 279.6,298.5 280.5,298.5 281.3,298.5 282.3,298.5 283.4,298.5 284.4,298.5 285.3,298.5 286.3,298.5 287.3,298.5 288.2,298.5 289.1,298.5 290.0,298.5 290.9,298.5 291.7,298.5 292.6,298.5 293.4,298.5 294.2,298.5 295.0,298.5 296.0,298.5 297.0,298.5 297.9,298.5 298.8,298.5 299.7,298.5 300.6,298.5 301.5,298.5 302.4,298.5 303.2,298.5 304.0,298.5 304.9,298.5 305.8,298.5 306.7,298.5 307.7,298.5 308.6,298.5 309.5,298.5 310.3,298.5 311.2,298.5 312.0,298.5 312.8,298.5 313.7,298.5 314.6,298.5 315.5,298.5 316.4,298.5 317.3,298.5 318.1,298.5 319.0,298.5 319.8,298.5 320.6,298.5 321.4,298.5 322.3,298.5 323.2,298.5 324.1,298.5 324.9,298.5 325.7,298.5 326.6,298.5 327.4,298.5 328.3,298.5 329.1,298.5 330.0,298.5 330.8,298.5 331.7,298.5 332.5,298.5 333.3,298.5 334.2,298.5 335.0,298.5 335.9,298.5 336.7,298.5 337.5,298.5 338.4,298.5 339.2,298.5 340.1,298.5 340.9,298.5 341.7,298.5 342.5,298.5 343.4,298.5 344.2,298.5 345.1,298.5 345.9,298.5 346.7,298.5 347.6,298.5 348.4,298.5 349.2,298.5 350.0,298.5 350.9,298.5 351.7,298.5 352.6,298.5 353.4,298.5 354.2,298.5 355.1,298.5 355.9,298.5 356.7,298.5 357.6,298.5 358.4,298.5 359.2,298.5 360.0,298.5 360.9,298.5 361.7,298.5 362.5,298.5 363.3,298.5 364.2,298.5 365.0,298.5 365.8,298.5 366.6,298.5 367.4,298.5 368.3,298.5 369.1,298.5 369.9,298.5 370.7,298.5 371.5,298.5 372.4,298.5 373.2,298.5 374.0,298.5 374.8,298.5 375.6,298.5 376.4,298.5 377.2,298.5 378.1,298.5 378.9,298.5 379.7,298.5 380.5,298.5 381.3,298.5 382.1,298.5 383.0,298.5 383.8,298.5 384.6,298.5 385.4,298.5 386.2,298.5 387.0,298.5 387.9,298.5 388.7,298.5 389.5,298.5 390.3,298.5 391.1,298.5 391.9,298.5 L391.9,298.5 L37.5,298.5 Z" fill="url(#g170)" clip-path="url(#c172)"/>
  <path d="M37.5,298.5 37.5,298.5 70.1,298.5 89.2,298.5 102.8,298.5 113.3,298.5 121.9,298.5 129.1,298.5 135.4,298.5 141.0,298.5 145.9,298.5 150.4,298.5 154.5,298.5 158.3,298.5 161.8,298.5 165.0,298.5 168.1,298.5 170.9,298.5 173.6,298.5 176.2,298.5 178.6,298.5 180.9,298.5 183.1,298.5 185.2,298.5 187.2,298.5 189.1,298.5 190.9,298.5 192.7,298.5 194.4,298.5 196.1,298.5 197.7,298.5 199.2,298.5 200.7,298.5 202.2,298.5 203.6,298.5 204.9,298.5 206.3,298.5 207.6,298.5 208.8,298.5 210.0,298.5 211.2,298.5 212.4,298.5 213.5,298.5 214.6,298.5 215.7,298.5 216.8,298.5 217.8,298.5 218.8,298.5 219.8,298.5 220.8,298.5 221.7,298.5 222.7,298.5 223.6,298.5 224.5,298.5 225.4,298.5 226.2,298.5 227.1,298.5 227.9,298.5 228.7,298.5 229.5,298.5 231.1,298.5 232.6,298.5 234.1,298.5 235.5,298.5 236.9,298.5 238.2,298.5 239.6,298.5 240.8,298.5 242.1,298.5 243.3,298.5 244.5,298.6 245.6,298.6 246.7,298.7 247.8,299.0 248.9,299.6 249.9,301.8 251.0,238.9 252.0,295.7 252.9,297.5 253.9,298.1 254.8,298.3 255.8,298.4 256.7,298.4 257.6,298.4 258.4,298.5 259.3,298.5 260.1,298.5 261.0,298.5 261.8,298.5 263.0,298.5 264.1,298.5 265.3,298.5 266.4,298.5 267.5,298.5 268.5,298.5 269.6,298.5 270.6,298.5 271.6,298.5 272.5,298.5 273.5,298.5 274.4,298.5 275.3,298.5 276.2,298.5 277.1,298.5 278.0,298.5 278.8,298.5 279.6,298.5 280.5,298.5 281.3,298.5 282.3,298.5 283.4,298.5 284.4,298.5 285.3,298.5 286.3,298.5 287.3,298.5 288.2,298.5 289.1,298.5 290.0,298.5 290.9,298.5 291.7,298.5 292.6,298.5 293.4,298.5 294.2,298.5 295.0,298.5 296.0,298.5 297.0,298.5 297.9,298.5 298.8,298.5 299.7,298.5 300.6,298.5 301.5,298.5 302.4,298.5 303.2,298.5 304.0,298.5 304.9,298.5 305.8,298.5 306.7,298.5 307.7,298.5 308.6,298.5 309.5,298.5 310.3,298.5 311.2,298.5 312.0,298.5 312.8,298.5 313.7,298.5 314.6,298.5 315.5,298.5 316.4,298.5 317.3,298.5 318.1,298.5 319.0,298.5 319.8,298.5 320.6,298.5 321.4,298.5 322.3,298.5 323.2,298.5 324.1,298.5 324.9,298.5 325.7,298.5 326.6,298.5 327.4,298.5 328.3,298.5 329.1,298.5 330.0,298.5 330.8,298.5 331.7,298.5 332.5,298.5 333.3,298.5 334.2,298.5 335.0,298.5 335.9,298.5 336.7,298.5 337.5,298.5 338.4,298.5 339.2,298.5 340.1,298.5 340.9,298.5 341.7,298.5 342.5,298.5 343.4,298.5 344.2,298.5 345.1,298.5 345.9,298.5 346.7,298.5 347.6,298.5 348.4,298.5 349.2,298.5 350.0,298.5 350.9,298.5 351.7,298.5 352.6,298.5 353.4,298.5 354.2,298.5 355.1,298.5 355.9,298.5 356.7,298.5 357.6,298.5 358.4,298.5 359.2,298.5 360.0,298.5 360.9,298.5 361.7,298.5 362.5,298.5 363.3,298.5 364.2,298.5 365.0,298.5 365.8,298.5 366.6,298.5 367.4,298.5 368.3,298.5 369.1,298.5 369.9,298.5 370.7,298.5 371.5,298.5 372.4,298.5 373.2,298.5 374.0,298.5 374.8,298.5 375.6,298.5 376.4,298.5 377.2,298.5 378.1,298.5 378.9,298.5 379.7,298.5 380.5,298.5 381.3,298.5 382.1,298.5 383.0,298.5 383.8,298.5 384.6,298.5 385.4,298.5 386.2,298.5 387.0,298.5 387.9,298.5 388.7,298.5 389.5,298.5 390.3,298.5 391.1,298.5 391.9,298.5 L391.9,298.5 L37.5,298.5 Z" fill="url(#g171)" clip-path="url(#c173)"/>
  <defs><clipPath id="pc174"><rect x="34" y="221" width="358" height="155"/></clipPath></defs>
  <polyline points="37.5,298.5 70.1,298.5 89.2,298.5 102.8,298.5 113.3,298.5 121.9,298.5 129.1,298.5 135.4,298.5 141.0,298.5 145.9,298.5 150.4,298.5 154.5,298.5 158.3,298.5 161.8,298.5 165.0,298.5 168.1,298.5 170.9,298.5 173.6,298.5 176.2,298.5 178.6,298.5 180.9,298.5 183.1,298.5 185.2,298.5 187.2,298.5 189.1,298.5 190.9,298.5 192.7,298.5 194.4,298.5 196.1,298.5 197.7,298.5 199.2,298.5 200.7,298.5 202.2,298.5 203.6,298.5 204.9,298.5 206.3,298.5 207.6,298.5 208.8,298.5 210.0,298.5 211.2,298.5 212.4,298.5 213.5,298.5 214.6,298.5 215.7,298.5 216.8,298.5 217.8,298.5 218.8,298.5 219.8,298.5 220.8,298.5 221.7,298.5 222.7,298.5 223.6,298.5 224.5,298.5 225.4,298.5 226.2,298.5 227.1,298.5 227.9,298.5 228.7,298.5 229.5,298.5 231.1,298.5 232.6,298.5 234.1,298.5 235.5,298.5 236.9,298.5 238.2,298.5 239.6,298.5 240.8,298.5 242.1,298.5 243.3,298.5 244.5,298.6 245.6,298.6 246.7,298.7 247.8,299.0 248.9,299.6 249.9,301.8 251.0,238.9 252.0,295.7 252.9,297.5 253.9,298.1 254.8,298.3 255.8,298.4 256.7,298.4 257.6,298.4 258.4,298.5 259.3,298.5 260.1,298.5 261.0,298.5 261.8,298.5 263.0,298.5 264.1,298.5 265.3,298.5 266.4,298.5 267.5,298.5 268.5,298.5 269.6,298.5 270.6,298.5 271.6,298.5 272.5,298.5 273.5,298.5 274.4,298.5 275.3,298.5 276.2,298.5 277.1,298.5 278.0,298.5 278.8,298.5 279.6,298.5 280.5,298.5 281.3,298.5 282.3,298.5 283.4,298.5 284.4,298.5 285.3,298.5 286.3,298.5 287.3,298.5 288.2,298.5 289.1,298.5 290.0,298.5 290.9,298.5 291.7,298.5 292.6,298.5 293.4,298.5 294.2,298.5 295.0,298.5 296.0,298.5 297.0,298.5 297.9,298.5 298.8,298.5 299.7,298.5 300.6,298.5 301.5,298.5 302.4,298.5 303.2,298.5 304.0,298.5 304.9,298.5 305.8,298.5 306.7,298.5 307.7,298.5 308.6,298.5 309.5,298.5 310.3,298.5 311.2,298.5 312.0,298.5 312.8,298.5 313.7,298.5 314.6,298.5 315.5,298.5 316.4,298.5 317.3,298.5 318.1,298.5 319.0,298.5 319.8,298.5 320.6,298.5 321.4,298.5 322.3,298.5 323.2,298.5 324.1,298.5 324.9,298.5 325.7,298.5 326.6,298.5 327.4,298.5 328.3,298.5 329.1,298.5 330.0,298.5 330.8,298.5 331.7,298.5 332.5,298.5 333.3,298.5 334.2,298.5 335.0,298.5 335.9,298.5 336.7,298.5 337.5,298.5 338.4,298.5 339.2,298.5 340.1,298.5 340.9,298.5 341.7,298.5 342.5,298.5 343.4,298.5 344.2,298.5 345.1,298.5 345.9,298.5 346.7,298.5 347.6,298.5 348.4,298.5 349.2,298.5 350.0,298.5 350.9,298.5 351.7,298.5 352.6,298.5 353.4,298.5 354.2,298.5 355.1,298.5 355.9,298.5 356.7,298.5 357.6,298.5 358.4,298.5 359.2,298.5 360.0,298.5 360.9,298.5 361.7,298.5 362.5,298.5 363.3,298.5 364.2,298.5 365.0,298.5 365.8,298.5 366.6,298.5 367.4,298.5 368.3,298.5 369.1,298.5 369.9,298.5 370.7,298.5 371.5,298.5 372.4,298.5 373.2,298.5 374.0,298.5 374.8,298.5 375.6,298.5 376.4,298.5 377.2,298.5 378.1,298.5 378.9,298.5 379.7,298.5 380.5,298.5 381.3,298.5 382.1,298.5 383.0,298.5 383.8,298.5 384.6,298.5 385.4,298.5 386.2,298.5 387.0,298.5 387.9,298.5 388.7,298.5 389.5,298.5 390.3,298.5 391.1,298.5 391.9,298.5" fill="none" stroke="#2ecc71" stroke-width="1.5" stroke-linejoin="round" clip-path="url(#pc174)"/>
  <line x1="442" y1="221" x2="442" y2="376" stroke="#d1d5db"/>
  <line x1="442" y1="298.5" x2="800" y2="298.5" stroke="#d1d5db"/>
  <text x="621" y="402" text-anchor="middle" font-size="9" fill="#6b7280">Samples</text>
  <text x="420" y="298.5" text-anchor="middle" font-size="9" fill="#6b7280" transform="rotate(-90 420 298.5)">Impulse response</text>
  <line x1="442.0" y1="221" x2="442.0" y2="376" stroke="#e5e7eb" stroke-width="0.5"/>
  <text x="442.0" y="388" text-anchor="middle" font-size="8" fill="#6b7280">0</text>
  <line x1="531.5" y1="221" x2="531.5" y2="376" stroke="#e5e7eb" stroke-width="0.5"/>
  <text x="531.5" y="388" text-anchor="middle" font-size="8" fill="#6b7280">32</text>
  <line x1="621.0" y1="221" x2="621.0" y2="376" stroke="#e5e7eb" stroke-width="0.5"/>
  <text x="621.0" y="388" text-anchor="middle" font-size="8" fill="#6b7280">64</text>
  <line x1="710.5" y1="221" x2="710.5" y2="376" stroke="#e5e7eb" stroke-width="0.5"/>
  <text x="710.5" y="388" text-anchor="middle" font-size="8" fill="#6b7280">96</text>
  <line x1="800.0" y1="221" x2="800.0" y2="376" stroke="#e5e7eb" stroke-width="0.5"/>
  <text x="800.0" y="388" text-anchor="middle" font-size="8" fill="#6b7280">128</text>
  <line x1="442" y1="353.1" x2="800" y2="353.1" stroke="#e5e7eb" stroke-width="0.5"/>
  <text x="438" y="356.1" text-anchor="end" font-size="8" fill="#6b7280">-0.7</text>
  <text x="438" y="301.5" text-anchor="end" font-size="8" fill="#6b7280">0</text>
  <line x1="442" y1="243.9" x2="800" y2="243.9" stroke="#e5e7eb" stroke-width="0.5"/>
  <text x="438" y="246.9" text-anchor="end" font-size="8" fill="#6b7280">0.7</text>
  <defs><linearGradient id="g175" x1="0" y1="221" x2="0" y2="298.5" gradientUnits="userSpaceOnUse">
    <stop offset="0%" stop-color="#f39c12" stop-opacity="0.15"/>
    <stop offset="100%" stop-color="#f39c12" stop-opacity="0.02"/>
  </linearGradient></defs>
  <defs><linearGradient id="g176" x1="0" y1="376" x2="0" y2="298.5" gradientUnits="userSpaceOnUse">
    <stop offset="0%" stop-color="#f39c12" stop-opacity="0.15"/>
    <stop offset="100%" stop-color="#f39c12" stop-opacity="0.02"/>
  </linearGradient></defs>
  <defs><clipPath id="c177"><rect x="442" y="221" width="358" height="77.5"/></clipPath></defs>
  <defs><clipPath id="c178"><rect x="442" y="298.5" width="358" height="77.5"/></clipPath></defs>
  <path d="M442.0,221.0 442.0,221.0 444.8,299.6 447.6,299.5 450.4,299.5 453.2,299.4 456.0,299.3 458.8,299.2 461.6,299.0 464.4,298.9 467.2,298.7 470.0,298.6 472.8,298.5 475.6,298.3 478.4,298.2 481.2,298.0 484.0,297.9 486.8,297.8 489.5,297.7 492.3,297.7 495.1,297.6 497.9,297.6 500.7,297.5 503.5,297.6 506.3,297.6 509.1,297.6 511.9,297.7 514.7,297.7 517.5,297.8 520.3,297.9 523.1,298.0 525.9,298.2 528.7,298.3 531.5,298.4 534.3,298.5 537.1,298.7 539.9,298.8 542.7,298.9 545.5,299.0 548.3,299.1 551.1,299.2 553.9,299.2 556.7,299.3 559.5,299.3 562.3,299.3 565.1,299.3 567.9,299.3 570.7,299.3 573.5,299.2 576.3,299.2 579.0,299.1 581.8,299.0 584.6,298.9 587.4,298.8 590.2,298.7 593.0,298.6 595.8,298.5 598.6,298.4 601.4,298.3 604.2,298.2 607.0,298.1 609.8,298.0 612.6,297.9 615.4,297.9 618.2,297.8 621.0,297.8 623.8,297.8 626.6,297.8 629.4,297.8 632.2,297.8 635.0,297.9 637.8,297.9 640.6,298.0 643.4,298.1 646.2,298.1 649.0,298.2 651.8,298.3 654.6,298.4 657.4,298.5 660.2,298.6 663.0,298.7 665.8,298.8 668.5,298.8 671.3,298.9 674.1,299.0 676.9,299.0 679.7,299.1 682.5,299.1 685.3,299.1 688.1,299.1 690.9,299.1 693.7,299.1 696.5,299.0 699.3,299.0 702.1,298.9 704.9,298.9 707.7,298.8 710.5,298.7 713.3,298.7 716.1,298.6 718.9,298.5 721.7,298.4 724.5,298.3 727.3,298.3 730.1,298.2 732.9,298.2 735.7,298.1 738.5,298.1 741.3,298.0 744.1,298.0 746.9,298.0 749.7,298.0 752.5,298.0 755.3,298.0 758.0,298.0 760.8,298.1 763.6,298.1 766.4,298.2 769.2,298.2 772.0,298.3 774.8,298.4 777.6,298.4 780.4,298.5 783.2,298.6 786.0,298.6 788.8,298.7 791.6,298.7 794.4,298.8 797.2,298.8 L797.2,298.5 L442.0,298.5 Z" fill="url(#g175)" clip-path="url(#c177)"/>
  <path d="M442.0,221.0 442.0,221.0 444.8,299.6 447.6,299.5 450.4,299.5 453.2,299.4 456.0,299.3 458.8,299.2 461.6,299.0 464.4,298.9 467.2,298.7 470.0,298.6 472.8,298.5 475.6,298.3 478.4,298.2 481.2,298.0 484.0,297.9 486.8,297.8 489.5,297.7 492.3,297.7 495.1,297.6 497.9,297.6 500.7,297.5 503.5,297.6 506.3,297.6 509.1,297.6 511.9,297.7 514.7,297.7 517.5,297.8 520.3,297.9 523.1,298.0 525.9,298.2 528.7,298.3 531.5,298.4 534.3,298.5 537.1,298.7 539.9,298.8 542.7,298.9 545.5,299.0 548.3,299.1 551.1,299.2 553.9,299.2 556.7,299.3 559.5,299.3 562.3,299.3 565.1,299.3 567.9,299.3 570.7,299.3 573.5,299.2 576.3,299.2 579.0,299.1 581.8,299.0 584.6,298.9 587.4,298.8 590.2,298.7 593.0,298.6 595.8,298.5 598.6,298.4 601.4,298.3 604.2,298.2 607.0,298.1 609.8,298.0 612.6,297.9 615.4,297.9 618.2,297.8 621.0,297.8 623.8,297.8 626.6,297.8 629.4,297.8 632.2,297.8 635.0,297.9 637.8,297.9 640.6,298.0 643.4,298.1 646.2,298.1 649.0,298.2 651.8,298.3 654.6,298.4 657.4,298.5 660.2,298.6 663.0,298.7 665.8,298.8 668.5,298.8 671.3,298.9 674.1,299.0 676.9,299.0 679.7,299.1 682.5,299.1 685.3,299.1 688.1,299.1 690.9,299.1 693.7,299.1 696.5,299.0 699.3,299.0 702.1,298.9 704.9,298.9 707.7,298.8 710.5,298.7 713.3,298.7 716.1,298.6 718.9,298.5 721.7,298.4 724.5,298.3 727.3,298.3 730.1,298.2 732.9,298.2 735.7,298.1 738.5,298.1 741.3,298.0 744.1,298.0 746.9,298.0 749.7,298.0 752.5,298.0 755.3,298.0 758.0,298.0 760.8,298.1 763.6,298.1 766.4,298.2 769.2,298.2 772.0,298.3 774.8,298.4 777.6,298.4 780.4,298.5 783.2,298.6 786.0,298.6 788.8,298.7 791.6,298.7 794.4,298.8 797.2,298.8 L797.2,298.5 L442.0,298.5 Z" fill="url(#g176)" clip-path="url(#c178)"/>
  <defs><clipPath id="pc179"><rect x="442" y="221" width="358" height="155"/></clipPath></defs>
  <polyline points="442.0,221.0 444.8,299.6 447.6,299.5 450.4,299.5 453.2,299.4 456.0,299.3 458.8,299.2 461.6,299.0 464.4,298.9 467.2,298.7 470.0,298.6 472.8,298.5 475.6,298.3 478.4,298.2 481.2,298.0 484.0,297.9 486.8,297.8 489.5,297.7 492.3,297.7 495.1,297.6 497.9,297.6 500.7,297.5 503.5,297.6 506.3,297.6 509.1,297.6 511.9,297.7 514.7,297.7 517.5,297.8 520.3,297.9 523.1,298.0 525.9,298.2 528.7,298.3 531.5,298.4 534.3,298.5 537.1,298.7 539.9,298.8 542.7,298.9 545.5,299.0 548.3,299.1 551.1,299.2 553.9,299.2 556.7,299.3 559.5,299.3 562.3,299.3 565.1,299.3 567.9,299.3 570.7,299.3 573.5,299.2 576.3,299.2 579.0,299.1 581.8,299.0 584.6,298.9 587.4,298.8 590.2,298.7 593.0,298.6 595.8,298.5 598.6,298.4 601.4,298.3 604.2,298.2 607.0,298.1 609.8,298.0 612.6,297.9 615.4,297.9 618.2,297.8 621.0,297.8 623.8,297.8 626.6,297.8 629.4,297.8 632.2,297.8 635.0,297.9 637.8,297.9 640.6,298.0 643.4,298.1 646.2,298.1 649.0,298.2 651.8,298.3 654.6,298.4 657.4,298.5 660.2,298.6 663.0,298.7 665.8,298.8 668.5,298.8 671.3,298.9 674.1,299.0 676.9,299.0 679.7,299.1 682.5,299.1 685.3,299.1 688.1,299.1 690.9,299.1 693.7,299.1 696.5,299.0 699.3,299.0 702.1,298.9 704.9,298.9 707.7,298.8 710.5,298.7 713.3,298.7 716.1,298.6 718.9,298.5 721.7,298.4 724.5,298.3 727.3,298.3 730.1,298.2 732.9,298.2 735.7,298.1 738.5,298.1 741.3,298.0 744.1,298.0 746.9,298.0 749.7,298.0 752.5,298.0 755.3,298.0 758.0,298.0 760.8,298.1 763.6,298.1 766.4,298.2 769.2,298.2 772.0,298.3 774.8,298.4 777.6,298.4 780.4,298.5 783.2,298.6 786.0,298.6 788.8,298.7 791.6,298.7 794.4,298.8 797.2,298.8" fill="none" stroke="#f39c12" stroke-width="1.3" stroke-linejoin="round" clip-path="url(#pc179)"/>
</svg>
