<svg xmlns="http://www.w3.org/2000/svg" viewBox="0 0 820 378" style="font-family:system-ui,-apple-system,sans-serif">
  <text x="800" y="11" text-anchor="end" font-size="11" font-weight="600" fill="#6b7280">Biquad highpass, fc=1kHz</text>
  <line x1="34" y1="16" x2="34" y2="171" stroke="#d1d5db"/>
  <line x1="34" y1="47.0" x2="399" y2="47.0" stroke="#d1d5db"/>
  <text x="216.5" y="197" text-anchor="middle" font-size="9" fill="#6b7280">Hz</text>
  <text x="12" y="93.5" text-anchor="middle" font-size="9" fill="#6b7280" transform="rotate(-90 12 93.5)">dB</text>
  <line x1="67.3" y1="16" x2="67.3" y2="171" stroke="#e5e7eb" stroke-width="0.5"/>
  <line x1="86.8" y1="16" x2="86.8" y2="171" stroke="#e5e7eb" stroke-width="0.5"/>
  <line x1="100.6" y1="16" x2="100.6" y2="171" stroke="#e5e7eb" stroke-width="0.5"/>
  <line x1="111.3" y1="16" x2="111.3" y2="171" stroke="#e5e7eb" stroke-width="0.5"/>
  <line x1="120.0" y1="16" x2="120.0" y2="171" stroke="#e5e7eb" stroke-width="0.5"/>
  <line x1="127.4" y1="16" x2="127.4" y2="171" stroke="#e5e7eb" stroke-width="0.5"/>
  <line x1="133.9" y1="16" x2="133.9" y2="171" stroke="#e5e7eb" stroke-width="0.5"/>
  <line x1="139.5" y1="16" x2="139.5" y2="171" stroke="#e5e7eb" stroke-width="0.5"/>
  <line x1="177.9" y1="16" x2="177.9" y2="171" stroke="#e5e7eb" stroke-width="0.5"/>
  <line x1="197.3" y1="16" x2="197.3" y2="171" stroke="#e5e7eb" stroke-width="0.5"/>
  <line x1="211.1" y1="16" x2="211.1" y2="171" stroke="#e5e7eb" stroke-width="0.5"/>
  <line x1="221.9" y1="16" x2="221.9" y2="171" stroke="#e5e7eb" stroke-width="0.5"/>
  <line x1="230.6" y1="16" x2="230.6" y2="171" stroke="#e5e7eb" stroke-width="0.5"/>
  <line x1="238.0" y1="16" x2="238.0" y2="171" stroke="#e5e7eb" stroke-width="0.5"/>
  <line x1="244.4" y1="16" x2="244.4" y2="171" stroke="#e5e7eb" stroke-width="0.5"/>
  <line x1="250.1" y1="16" x2="250.1" y2="171" stroke="#e5e7eb" stroke-width="0.5"/>
  <line x1="288.4" y1="16" x2="288.4" y2="171" stroke="#e5e7eb" stroke-width="0.5"/>
  <line x1="307.9" y1="16" x2="307.9" y2="171" stroke="#e5e7eb" stroke-width="0.5"/>
  <line x1="321.7" y1="16" x2="321.7" y2="171" stroke="#e5e7eb" stroke-width="0.5"/>
  <line x1="332.4" y1="16" x2="332.4" y2="171" stroke="#e5e7eb" stroke-width="0.5"/>
  <line x1="341.2" y1="16" x2="341.2" y2="171" stroke="#e5e7eb" stroke-width="0.5"/>
  <line x1="348.6" y1="16" x2="348.6" y2="171" stroke="#e5e7eb" stroke-width="0.5"/>
  <line x1="355.0" y1="16" x2="355.0" y2="171" stroke="#e5e7eb" stroke-width="0.5"/>
  <line x1="360.7" y1="16" x2="360.7" y2="171" stroke="#e5e7eb" stroke-width="0.5"/>
  <line x1="399.0" y1="16" x2="399.0" y2="171" stroke="#e5e7eb" stroke-width="0.5"/>
  <line x1="144.6" y1="16" x2="144.6" y2="171" stroke="#e5e7eb" stroke-width="0.5"/>
  <text x="144.6" y="183" text-anchor="middle" font-size="8" fill="#6b7280">100</text>
  <line x1="255.1" y1="16" x2="255.1" y2="171" stroke="#e5e7eb" stroke-width="0.5"/>
  <text x="255.1" y="183" text-anchor="middle" font-size="8" fill="#6b7280">1k</text>
  <line x1="365.7" y1="16" x2="365.7" y2="171" stroke="#e5e7eb" stroke-width="0.5"/>
  <text x="365.7" y="183" text-anchor="middle" font-size="8" fill="#6b7280">10k</text>
  <line x1="34" y1="31.5" x2="399" y2="31.5" stroke="#e5e7eb" stroke-width="0.5"/>
  <line x1="34" y1="62.5" x2="399" y2="62.5" stroke="#e5e7eb" stroke-width="0.5"/>
  <line x1="34" y1="16.0" x2="399" y2="16.0" stroke="#e5e7eb" stroke-width="0.5"/>
  <text x="30" y="19.0" text-anchor="end" font-size="8" fill="#6b7280">+20</text>
  <text x="30" y="50.0" text-anchor="end" font-size="8" fill="#6b7280">0</text>
  <line x1="34" y1="78.0" x2="399" y2="78.0" stroke="#e5e7eb" stroke-width="0.5"/>
  <text x="30" y="81.0" text-anchor="end" font-size="8" fill="#6b7280">-20</text>
  <line x1="34" y1="109.0" x2="399" y2="109.0" stroke="#e5e7eb" stroke-width="0.5"/>
  <text x="30" y="112.0" text-anchor="end" font-size="8" fill="#6b7280">-40</text>
  <line x1="34" y1="140.0" x2="399" y2="140.0" stroke="#e5e7eb" stroke-width="0.5"/>
  <text x="30" y="143.0" text-anchor="end" font-size="8" fill="#6b7280">-60</text>
  <line x1="34" y1="171.0" x2="399" y2="171.0" stroke="#e5e7eb" stroke-width="0.5"/>
  <text x="30" y="174.0" text-anchor="end" font-size="8" fill="#6b7280">-80</text>
  <line x1="255.1" y1="16" x2="255.1" y2="171" stroke="#d1d5db" stroke-width="1" stroke-dasharray="4 3"/>
  <defs><linearGradient id="g138" x1="0" y1="16" x2="0" y2="171" gradientUnits="userSpaceOnUse">
    <stop offset="0%" stop-color="#4a90d9" stop-opacity="0.15"/>
    <stop offset="100%" stop-color="#4a90d9" stop-opacity="0.02"/>
  </linearGradient></defs>
  <path d="M37.5,169.1 37.5,169.1 70.8,150.4 90.3,139.5 104.1,131.7 114.8,125.7 123.6,120.8 131.0,116.6 137.4,113.0 143.1,109.8 148.1,107.0 152.7,104.4 156.9,102.0 160.7,99.9 164.3,97.8 167.6,96.0 170.7,94.2 173.6,92.5 176.3,91.0 178.9,89.5 181.4,88.1 183.7,86.7 186.0,85.5 188.1,84.2 190.2,83.0 192.1,81.9 194.0,80.8 195.8,79.8 197.6,78.7 199.2,77.8 200.9,76.8 202.4,75.9 204.0,75.0 205.5,74.1 206.9,73.3 208.3,72.4 209.6,71.6 210.9,70.9 212.2,70.1 213.5,69.3 214.7,68.6 215.9,67.9 217.0,67.2 218.2,66.5 219.3,65.9 220.3,65.2 221.4,64.6 222.4,64.0 223.4,63.3 224.4,62.7 225.4,62.2 226.4,61.6 227.3,61.0 228.2,60.5 229.1,59.9 230.0,59.4 230.8,58.9 231.7,58.4 232.5,57.9 233.4,57.4 234.2,56.9 235.7,56.0 237.3,55.1 238.7,54.3 240.2,53.5 241.6,52.7 242.9,52.0 244.2,51.4 245.5,50.7 246.8,50.1 248.0,49.6 249.2,49.1 250.3,48.6 251.4,48.2 252.6,47.8 253.6,47.5 254.7,47.1 255.7,46.8 256.7,46.6 257.7,46.4 258.7,46.1 259.6,46.0 260.6,45.8 261.5,45.7 262.4,45.6 263.3,45.5 264.1,45.4 265.0,45.3 265.8,45.2 266.6,45.2 267.4,45.1 268.6,45.1 269.8,45.1 270.9,45.1 272.0,45.1 273.1,45.1 274.2,45.1 275.2,45.1 276.2,45.1 277.2,45.2 278.2,45.2 279.1,45.2 280.0,45.3 281.0,45.3 281.9,45.3 282.7,45.4 283.6,45.4 284.5,45.4 285.3,45.5 286.1,45.5 286.9,45.5 288.0,45.6 289.0,45.6 290.0,45.7 291.0,45.7 292.0,45.8 292.9,45.8 293.9,45.8 294.8,45.9 295.7,45.9 296.6,45.9 297.4,46.0 298.3,46.0 299.1,46.0 299.9,46.1 300.7,46.1 301.7,46.1 302.7,46.2 303.6,46.2 304.6,46.2 305.5,46.2 306.4,46.3 307.3,46.3 308.1,46.3 309.0,46.3 309.8,46.4 310.6,46.4 311.4,46.4 312.4,46.4 313.3,46.5 314.2,46.5 315.1,46.5 316.0,46.5 316.9,46.5 317.7,46.5 318.6,46.6 319.4,46.6 320.2,46.6 321.1,46.6 322.0,46.6 322.9,46.6 323.8,46.6 324.7,46.7 325.5,46.7 326.3,46.7 327.1,46.7 327.9,46.7 328.8,46.7 329.7,46.7 330.6,46.7 331.4,46.7 332.3,46.8 333.1,46.8 333.9,46.8 334.8,46.8 335.7,46.8 336.5,46.8 337.4,46.8 338.2,46.8 339.0,46.8 339.8,46.8 340.7,46.8 341.6,46.8 342.4,46.8 343.3,46.9 344.1,46.9 344.9,46.9 345.8,46.9 346.6,46.9 347.5,46.9 348.3,46.9 349.1,46.9 350.0,46.9 350.8,46.9 351.7,46.9 352.5,46.9 353.3,46.9 354.1,46.9 355.0,46.9 355.8,46.9 356.6,46.9 357.5,46.9 358.3,46.9 359.1,46.9 360.0,46.9 360.8,46.9 361.6,46.9 362.5,46.9 363.3,46.9 364.1,46.9 364.9,47.0 365.8,47.0 366.6,47.0 367.4,47.0 368.2,47.0 369.1,47.0 369.9,47.0 370.7,47.0 371.6,47.0 372.4,47.0 373.2,47.0 374.0,47.0 374.8,47.0 375.6,47.0 376.5,47.0 377.3,47.0 378.1,47.0 378.9,47.0 379.7,47.0 380.5,47.0 381.4,47.0 382.2,47.0 383.0,47.0 383.8,47.0 384.6,47.0 385.5,47.0 386.3,47.0 387.1,47.0 387.9,47.0 388.7,47.0 389.5,47.0 390.3,47.0 391.2,47.0 392.0,47.0 392.8,47.0 393.6,47.0 394.4,47.0 395.2,47.0 396.0,47.0 396.8,47.0 397.6,47.0 398.5,47.0 L398.5,171.0 L37.5,171.0 Z" fill="url(#g138)"/>
  <defs><clipPath id="pc139"><rect x="34" y="16" width="365" height="155"/></clipPath></defs>
  <polyline points="37.5,169.1 70.8,150.4 90.3,139.5 104.1,131.7 114.8,125.7 123.6,120.8 131.0,116.6 137.4,113.0 143.1,109.8 148.1,107.0 152.7,104.4 156.9,102.0 160.7,99.9 164.3,97.8 167.6,96.0 170.7,94.2 173.6,92.5 176.3,91.0 178.9,89.5 181.4,88.1 183.7,86.7 186.0,85.5 188.1,84.2 190.2,83.0 192.1,81.9 194.0,80.8 195.8,79.8 197.6,78.7 199.2,77.8 200.9,76.8 202.4,75.9 204.0,75.0 205.5,74.1 206.9,73.3 208.3,72.4 209.6,71.6 210.9,70.9 212.2,70.1 213.5,69.3 214.7,68.6 215.9,67.9 217.0,67.2 218.2,66.5 219.3,65.9 220.3,65.2 221.4,64.6 222.4,64.0 223.4,63.3 224.4,62.7 225.4,62.2 226.4,61.6 227.3,61.0 228.2,60.5 229.1,59.9 230.0,59.4 230.8,58.9 231.7,58.4 232.5,57.9 233.4,57.4 234.2,56.9 235.7,56.0 237.3,55.1 238.7,54.3 240.2,53.5 241.6,52.7 242.9,52.0 244.2,51.4 245.5,50.7 246.8,50.1 248.0,49.6 249.2,49.1 250.3,48.6 251.4,48.2 252.6,47.8 253.6,47.5 254.7,47.1 255.7,46.8 256.7,46.6 257.7,46.4 258.7,46.1 259.6,46.0 260.6,45.8 261.5,45.7 262.4,45.6 263.3,45.5 264.1,45.4 265.0,45.3 265.8,45.2 266.6,45.2 267.4,45.1 268.6,45.1 269.8,45.1 270.9,45.1 272.0,45.1 273.1,45.1 274.2,45.1 275.2,45.1 276.2,45.1 277.2,45.2 278.2,45.2 279.1,45.2 280.0,45.3 281.0,45.3 281.9,45.3 282.7,45.4 283.6,45.4 284.5,45.4 285.3,45.5 286.1,45.5 286.9,45.5 288.0,45.6 289.0,45.6 290.0,45.7 291.0,45.7 292.0,45.8 292.9,45.8 293.9,45.8 294.8,45.9 295.7,45.9 296.6,45.9 297.4,46.0 298.3,46.0 299.1,46.0 299.9,46.1 300.7,46.1 301.7,46.1 302.7,46.2 303.6,46.2 304.6,46.2 305.5,46.2 306.4,46.3 307.3,46.3 308.1,46.3 309.0,46.3 309.8,46.4 310.6,46.4 311.4,46.4 312.4,46.4 313.3,46.5 314.2,46.5 315.1,46.5 316.0,46.5 316.9,46.5 317.7,46.5 318.6,46.6 319.4,46.6 320.2,46.6 321.1,46.6 322.0,46.6 322.9,46.6 323.8,46.6 324.7,46.7 325.5,46.7 326.3,46.7 327.1,46.7 327.9,46.7 328.8,46.7 329.7,46.7 330.6,46.7 331.4,46.7 332.3,46.8 333.1,46.8 333.9,46.8 334.8,46.8 335.7,46.8 336.5,46.8 337.4,46.8 338.2,46.8 339.0,46.8 339.8,46.8 340.7,46.8 341.6,46.8 342.4,46.8 343.3,46.9 344.1,46.9 344.9,46.9 345.8,46.9 346.6,46.9 347.5,46.9 348.3,46.9 349.1,46.9 350.0,46.9 350.8,46.9 351.7,46.9 352.5,46.9 353.3,46.9 354.1,46.9 355.0,46.9 355.8,46.9 356.6,46.9 357.5,46.9 358.3,46.9 359.1,46.9 360.0,46.9 360.8,46.9 361.6,46.9 362.5,46.9 363.3,46.9 364.1,46.9 364.9,47.0 365.8,47.0 366.6,47.0 367.4,47.0 368.2,47.0 369.1,47.0 369.9,47.0 370.7,47.0 371.6,47.0 372.4,47.0 373.2,47.0 374.0,47.0 374.8,47.0 375.6,47.0 376.5,47.0 377.3,47.0 378.1,47.0 378.9,47.0 379.7,47.0 380.5,47.0 381.4,47.0 382.2,47.0 383.0,47.0 383.8,47.0 384.6,47.0 385.5,47.0 386.3,47.0 387.1,47.0 387.9,47.0 388.7,47.0 389.5,47.0 390.3,47.0 391.2,47.0 392.0,47.0 392.8,47.0 393.6,47.0 394.4,47.0 395.2,47.0 396.0,47.0 396.8,47.0 397.6,47.0 398.5,47.0" fill="none" stroke="#4a90d9" stroke-width="1.5" stroke-linejoin="round" clip-path="url(#pc139)"/>
  <line x1="435" y1="16" x2="435" y2="171" stroke="#d1d5db"/>
  <line x1="435" y1="93.5" x2="800" y2="93.5" stroke="#d1d5db"/>
  <text x="617.5" y="197" text-anchor="middle" font-size="9" fill="#6b7280">Hz</text>
  <text x="413" y="93.5" text-anchor="middle" font-size="9" fill="#6b7280" transform="rotate(-90 413 93.5)">Phase (deg)</text>
  <line x1="468.3" y1="16" x2="468.3" y2="171" stroke="#e5e7eb" stroke-width="0.5"/>
  <line x1="487.8" y1="16" x2="487.8" y2="171" stroke="#e5e7eb" stroke-width="0.5"/>
  <line x1="501.6" y1="16" x2="501.6" y2="171" stroke="#e5e7eb" stroke-width="0.5"/>
  <line x1="512.3" y1="16" x2="512.3" y2="171" stroke="#e5e7eb" stroke-width="0.5"/>
  <line x1="521.0" y1="16" x2="521.0" y2="171" stroke="#e5e7eb" stroke-width="0.5"/>
  <line x1="528.4" y1="16" x2="528.4" y2="171" stroke="#e5e7eb" stroke-width="0.5"/>
  <line x1="534.9" y1="16" x2="534.9" y2="171" stroke="#e5e7eb" stroke-width="0.5"/>
  <line x1="540.5" y1="16" x2="540.5" y2="171" stroke="#e5e7eb" stroke-width="0.5"/>
  <line x1="578.9" y1="16" x2="578.9" y2="171" stroke="#e5e7eb" stroke-width="0.5"/>
  <line x1="598.3" y1="16" x2="598.3" y2="171" stroke="#e5e7eb" stroke-width="0.5"/>
  <line x1="612.1" y1="16" x2="612.1" y2="171" stroke="#e5e7eb" stroke-width="0.5"/>
  <line x1="622.9" y1="16" x2="622.9" y2="171" stroke="#e5e7eb" stroke-width="0.5"/>
  <line x1="631.6" y1="16" x2="631.6" y2="171" stroke="#e5e7eb" stroke-width="0.5"/>
  <line x1="639.0" y1="16" x2="639.0" y2="171" stroke="#e5e7eb" stroke-width="0.5"/>
  <line x1="645.4" y1="16" x2="645.4" y2="171" stroke="#e5e7eb" stroke-width="0.5"/>
  <line x1="651.1" y1="16" x2="651.1" y2="171" stroke="#e5e7eb" stroke-width="0.5"/>
  <line x1="689.4" y1="16" x2="689.4" y2="171" stroke="#e5e7eb" stroke-width="0.5"/>
  <line x1="708.9" y1="16" x2="708.9" y2="171" stroke="#e5e7eb" stroke-width="0.5"/>
  <line x1="722.7" y1="16" x2="722.7" y2="171" stroke="#e5e7eb" stroke-width="0.5"/>
  <line x1="733.4" y1="16" x2="733.4" y2="171" stroke="#e5e7eb" stroke-width="0.5"/>
  <line x1="742.2" y1="16" x2="742.2" y2="171" stroke="#e5e7eb" stroke-width="0.5"/>
  <line x1="749.6" y1="16" x2="749.6" y2="171" stroke="#e5e7eb" stroke-width="0.5"/>
  <line x1="756.0" y1="16" x2="756.0" y2="171" stroke="#e5e7eb" stroke-width="0.5"/>
  <line x1="761.7" y1="16" x2="761.7" y2="171" stroke="#e5e7eb" stroke-width="0.5"/>
  <line x1="800.0" y1="16" x2="800.0" y2="171" stroke="#e5e7eb" stroke-width="0.5"/>
  <line x1="545.6" y1="16" x2="545.6" y2="171" stroke="#e5e7eb" stroke-width="0.5"/>
  <text x="545.6" y="183" text-anchor="middle" font-size="8" fill="#6b7280">100</text>
  <line x1="656.1" y1="16" x2="656.1" y2="171" stroke="#e5e7eb" stroke-width="0.5"/>
  <text x="656.1" y="183" text-anchor="middle" font-size="8" fill="#6b7280">1k</text>
  <line x1="766.7" y1="16" x2="766.7" y2="171" stroke="#e5e7eb" stroke-width="0.5"/>
  <text x="766.7" y="183" text-anchor="middle" font-size="8" fill="#6b7280">10k</text>
  <line x1="435" y1="54.8" x2="800" y2="54.8" stroke="#e5e7eb" stroke-width="0.5"/>
  <line x1="435" y1="132.3" x2="800" y2="132.3" stroke="#e5e7eb" stroke-width="0.5"/>
  <line x1="435" y1="16.0" x2="800" y2="16.0" stroke="#e5e7eb" stroke-width="0.5"/>
  <text x="431" y="19.0" text-anchor="end" font-size="8" fill="#6b7280">180</text>
  <text x="431" y="96.5" text-anchor="end" font-size="8" fill="#6b7280">0</text>
  <line x1="435" y1="171.0" x2="800" y2="171.0" stroke="#e5e7eb" stroke-width="0.5"/>
  <text x="431" y="174.0" text-anchor="end" font-size="8" fill="#6b7280">-180</text>
  <line x1="656.1" y1="16" x2="656.1" y2="171" stroke="#d1d5db" stroke-width="1" stroke-dasharray="4 3"/>
  <defs><linearGradient id="g140" x1="0" y1="16" x2="0" y2="93.5" gradientUnits="userSpaceOnUse">
    <stop offset="0%" stop-color="#e74c3c" stop-opacity="0.15"/>
    <stop offset="100%" stop-color="#e74c3c" stop-opacity="0.02"/>
  </linearGradient></defs>
  <path d="M438.5,16.3 438.5,16.3 471.8,16.5 491.3,16.8 505.1,17.1 515.8,17.3 524.6,17.6 532.0,17.9 538.4,18.1 544.1,18.4 549.1,18.7 553.7,18.9 557.9,19.2 561.7,19.5 565.3,19.8 568.6,20.0 571.7,20.3 574.6,20.6 577.3,20.9 579.9,21.2 582.4,21.5 584.7,21.8 587.0,22.1 589.1,22.4 591.2,22.7 593.1,23.0 595.0,23.3 596.8,23.6 598.6,23.9 600.2,24.2 601.9,24.5 603.4,24.8 605.0,25.2 606.5,25.5 607.9,25.8 609.3,26.2 610.6,26.5 611.9,26.9 613.2,27.2 614.5,27.6 615.7,28.0 616.9,28.4 618.0,28.7 619.2,29.1 620.3,29.5 621.3,29.9 622.4,30.3 623.4,30.7 624.4,31.1 625.4,31.5 626.4,32.0 627.4,32.4 628.3,32.8 629.2,33.3 630.1,33.8 631.0,34.2 631.8,34.7 632.7,35.2 633.5,35.6 634.4,36.1 635.2,36.6 636.7,37.6 638.3,38.7 639.7,39.7 641.2,40.8 642.6,41.9 643.9,43.0 645.2,44.1 646.5,45.3 647.8,46.4 649.0,47.5 650.2,48.7 651.3,49.8 652.4,51.0 653.6,52.1 654.6,53.2 655.7,54.3 656.7,55.3 657.7,56.4 658.7,57.4 659.7,58.4 660.6,59.3 661.6,60.3 662.5,61.2 663.4,62.0 664.3,62.9 665.1,63.7 666.0,64.4 666.8,65.2 667.6,65.9 668.4,66.6 669.6,67.6 670.8,68.5 671.9,69.4 673.0,70.2 674.1,70.9 675.2,71.7 676.2,72.3 677.2,73.0 678.2,73.6 679.2,74.1 680.1,74.7 681.0,75.2 682.0,75.7 682.9,76.1 683.7,76.6 684.6,77.0 685.5,77.4 686.3,77.8 687.1,78.1 687.9,78.5 689.0,78.9 690.0,79.3 691.0,79.7 692.0,80.1 693.0,80.4 693.9,80.7 694.9,81.1 695.8,81.4 696.7,81.6 697.6,81.9 698.4,82.2 699.3,82.4 700.1,82.6 700.9,82.9 701.7,83.1 702.7,83.3 703.7,83.6 704.6,83.8 705.6,84.0 706.5,84.3 707.4,84.5 708.3,84.7 709.1,84.8 710.0,85.0 710.8,85.2 711.6,85.4 712.4,85.5 713.4,85.7 714.3,85.9 715.2,86.0 716.1,86.2 717.0,86.3 717.9,86.5 718.7,86.6 719.6,86.8 720.4,86.9 721.2,87.0 722.1,87.2 723.0,87.3 723.9,87.4 724.8,87.5 725.7,87.7 726.5,87.8 727.3,87.9 728.1,88.0 728.9,88.1 729.8,88.2 730.7,88.3 731.6,88.4 732.4,88.5 733.3,88.6 734.1,88.7 734.9,88.8 735.8,88.9 736.7,89.0 737.5,89.1 738.4,89.2 739.2,89.3 740.0,89.4 740.8,89.4 741.7,89.5 742.6,89.6 743.4,89.7 744.3,89.8 745.1,89.8 745.9,89.9 746.8,90.0 747.6,90.1 748.5,90.1 749.3,90.2 750.1,90.3 751.0,90.3 751.8,90.4 752.7,90.5 753.5,90.5 754.3,90.6 755.1,90.7 756.0,90.7 756.8,90.8 757.6,90.8 758.5,90.9 759.3,91.0 760.1,91.0 761.0,91.1 761.8,91.1 762.6,91.2 763.5,91.2 764.3,91.3 765.1,91.4 765.9,91.4 766.8,91.5 767.6,91.5 768.4,91.6 769.2,91.6 770.1,91.7 770.9,91.7 771.7,91.8 772.6,91.8 773.4,91.8 774.2,91.9 775.0,91.9 775.8,92.0 776.6,92.0 777.5,92.1 778.3,92.1 779.1,92.2 779.9,92.2 780.7,92.2 781.5,92.3 782.4,92.3 783.2,92.4 784.0,92.4 784.8,92.5 785.6,92.5 786.5,92.5 787.3,92.6 788.1,92.6 788.9,92.7 789.7,92.7 790.5,92.8 791.3,92.8 792.2,92.8 793.0,92.9 793.8,92.9 794.6,93.0 795.4,93.0 796.2,93.0 797.0,93.1 797.8,93.1 798.6,93.2 799.5,93.2 L799.5,93.5 L438.5,93.5 Z" fill="url(#g140)"/>
  <defs><clipPath id="pc141"><rect x="435" y="16" width="365" height="155"/></clipPath></defs>
  <polyline points="438.5,16.3 471.8,16.5 491.3,16.8 505.1,17.1 515.8,17.3 524.6,17.6 532.0,17.9 538.4,18.1 544.1,18.4 549.1,18.7 553.7,18.9 557.9,19.2 561.7,19.5 565.3,19.8 568.6,20.0 571.7,20.3 574.6,20.6 577.3,20.9 579.9,21.2 582.4,21.5 584.7,21.8 587.0,22.1 589.1,22.4 591.2,22.7 593.1,23.0 595.0,23.3 596.8,23.6 598.6,23.9 600.2,24.2 601.9,24.5 603.4,24.8 605.0,25.2 606.5,25.5 607.9,25.8 609.3,26.2 610.6,26.5 611.9,26.9 613.2,27.2 614.5,27.6 615.7,28.0 616.9,28.4 618.0,28.7 619.2,29.1 620.3,29.5 621.3,29.9 622.4,30.3 623.4,30.7 624.4,31.1 625.4,31.5 626.4,32.0 627.4,32.4 628.3,32.8 629.2,33.3 630.1,33.8 631.0,34.2 631.8,34.7 632.7,35.2 633.5,35.6 634.4,36.1 635.2,36.6 636.7,37.6 638.3,38.7 639.7,39.7 641.2,40.8 642.6,41.9 643.9,43.0 645.2,44.1 646.5,45.3 647.8,46.4 649.0,47.5 650.2,48.7 651.3,49.8 652.4,51.0 653.6,52.1 654.6,53.2 655.7,54.3 656.7,55.3 657.7,56.4 658.7,57.4 659.7,58.4 660.6,59.3 661.6,60.3 662.5,61.2 663.4,62.0 664.3,62.9 665.1,63.7 666.0,64.4 666.8,65.2 667.6,65.9 668.4,66.6 669.6,67.6 670.8,68.5 671.9,69.4 673.0,70.2 674.1,70.9 675.2,71.7 676.2,72.3 677.2,73.0 678.2,73.6 679.2,74.1 680.1,74.7 681.0,75.2 682.0,75.7 682.9,76.1 683.7,76.6 684.6,77.0 685.5,77.4 686.3,77.8 687.1,78.1 687.9,78.5 689.0,78.9 690.0,79.3 691.0,79.7 692.0,80.1 693.0,80.4 693.9,80.7 694.9,81.1 695.8,81.4 696.7,81.6 697.6,81.9 698.4,82.2 699.3,82.4 700.1,82.6 700.9,82.9 701.7,83.1 702.7,83.3 703.7,83.6 704.6,83.8 705.6,84.0 706.5,84.3 707.4,84.5 708.3,84.7 709.1,84.8 710.0,85.0 710.8,85.2 711.6,85.4 712.4,85.5 713.4,85.7 714.3,85.9 715.2,86.0 716.1,86.2 717.0,86.3 717.9,86.5 718.7,86.6 719.6,86.8 720.4,86.9 721.2,87.0 722.1,87.2 723.0,87.3 723.9,87.4 724.8,87.5 725.7,87.7 726.5,87.8 727.3,87.9 728.1,88.0 728.9,88.1 729.8,88.2 730.7,88.3 731.6,88.4 732.4,88.5 733.3,88.6 734.1,88.7 734.9,88.8 735.8,88.9 736.7,89.0 737.5,89.1 738.4,89.2 739.2,89.3 740.0,89.4 740.8,89.4 741.7,89.5 742.6,89.6 743.4,89.7 744.3,89.8 745.1,89.8 745.9,89.9 746.8,90.0 747.6,90.1 748.5,90.1 749.3,90.2 750.1,90.3 751.0,90.3 751.8,90.4 752.7,90.5 753.5,90.5 754.3,90.6 755.1,90.7 756.0,90.7 756.8,90.8 757.6,90.8 758.5,90.9 759.3,91.0 760.1,91.0 761.0,91.1 761.8,91.1 762.6,91.2 763.5,91.2 764.3,91.3 765.1,91.4 765.9,91.4 766.8,91.5 767.6,91.5 768.4,91.6 769.2,91.6 770.1,91.7 770.9,91.7 771.7,91.8 772.6,91.8 773.4,91.8 774.2,91.9 775.0,91.9 775.8,92.0 776.6,92.0 777.5,92.1 778.3,92.1 779.1,92.2 779.9,92.2 780.7,92.2 781.5,92.3 782.4,92.3 783.2,92.4 784.0,92.4 784.8,92.5 785.6,92.5 786.5,92.5 787.3,92.6 788.1,92.6 788.9,92.7 789.7,92.7 790.5,92.8 791.3,92.8 792.2,92.8 793.0,92.9 793.8,92.9 794.6,93.0 795.4,93.0 796.2,93.0 797.0,93.1 797.8,93.1 798.6,93.2 799.5,93.2" fill="none" stroke="#e74c3c" stroke-width="1.5" stroke-linejoin="round" clip-path="url(#pc141)"/>
  <line x1="34" y1="207" x2="34" y2="362" stroke="#d1d5db"/>
  <line x1="34" y1="284.5" x2="399" y2="284.5" stroke="#d1d5db"/>
  <text x="216.5" y="388" text-anchor="middle" font-size="9" fill="#6b7280">Hz</text>
  <text x="12" y="284.5" text-anchor="middle" font-size="9" fill="#6b7280" transform="rotate(-90 12 284.5)">Group delay</text>
  <line x1="67.3" y1="207" x2="67.3" y2="362" stroke="#e5e7eb" stroke-width="0.5"/>
  <line x1="86.8" y1="207" x2="86.8" y2="362" stroke="#e5e7eb" stroke-width="0.5"/>
  <line x1="100.6" y1="207" x2="100.6" y2="362" stroke="#e5e7eb" stroke-width="0.5"/>
  <line x1="111.3" y1="207" x2="111.3" y2="362" stroke="#e5e7eb" stroke-width="0.5"/>
  <line x1="120.0" y1="207" x2="120.0" y2="362" stroke="#e5e7eb" stroke-width="0.5"/>
  <line x1="127.4" y1="207" x2="127.4" y2="362" stroke="#e5e7eb" stroke-width="0.5"/>
  <line x1="133.9" y1="207" x2="133.9" y2="362" stroke="#e5e7eb" stroke-width="0.5"/>
  <line x1="139.5" y1="207" x2="139.5" y2="362" stroke="#e5e7eb" stroke-width="0.5"/>
  <line x1="177.9" y1="207" x2="177.9" y2="362" stroke="#e5e7eb" stroke-width="0.5"/>
  <line x1="197.3" y1="207" x2="197.3" y2="362" stroke="#e5e7eb" stroke-width="0.5"/>
  <line x1="211.1" y1="207" x2="211.1" y2="362" stroke="#e5e7eb" stroke-width="0.5"/>
  <line x1="221.9" y1="207" x2="221.9" y2="362" stroke="#e5e7eb" stroke-width="0.5"/>
  <line x1="230.6" y1="207" x2="230.6" y2="362" stroke="#e5e7eb" stroke-width="0.5"/>
  <line x1="238.0" y1="207" x2="238.0" y2="362" stroke="#e5e7eb" stroke-width="0.5"/>
  <line x1="244.4" y1="207" x2="244.4" y2="362" stroke="#e5e7eb" stroke-width="0.5"/>
  <line x1="250.1" y1="207" x2="250.1" y2="362" stroke="#e5e7eb" stroke-width="0.5"/>
  <line x1="288.4" y1="207" x2="288.4" y2="362" stroke="#e5e7eb" stroke-width="0.5"/>
  <line x1="307.9" y1="207" x2="307.9" y2="362" stroke="#e5e7eb" stroke-width="0.5"/>
  <line x1="321.7" y1="207" x2="321.7" y2="362" stroke="#e5e7eb" stroke-width="0.5"/>
  <line x1="332.4" y1="207" x2="332.4" y2="362" stroke="#e5e7eb" stroke-width="0.5"/>
  <line x1="341.2" y1="207" x2="341.2" y2="362" stroke="#e5e7eb" stroke-width="0.5"/>
  <line x1="348.6" y1="207" x2="348.6" y2="362" stroke="#e5e7eb" stroke-width="0.5"/>
  <line x1="355.0" y1="207" x2="355.0" y2="362" stroke="#e5e7eb" stroke-width="0.5"/>
  <line x1="360.7" y1="207" x2="360.7" y2="362" stroke="#e5e7eb" stroke-width="0.5"/>
  <line x1="399.0" y1="207" x2="399.0" y2="362" stroke="#e5e7eb" stroke-width="0.5"/>
  <line x1="144.6" y1="207" x2="144.6" y2="362" stroke="#e5e7eb" stroke-width="0.5"/>
  <text x="144.6" y="374" text-anchor="middle" font-size="8" fill="#6b7280">100</text>
  <line x1="255.1" y1="207" x2="255.1" y2="362" stroke="#e5e7eb" stroke-width="0.5"/>
  <text x="255.1" y="374" text-anchor="middle" font-size="8" fill="#6b7280">1k</text>
  <line x1="365.7" y1="207" x2="365.7" y2="362" stroke="#e5e7eb" stroke-width="0.5"/>
  <text x="365.7" y="374" text-anchor="middle" font-size="8" fill="#6b7280">10k</text>
  <line x1="34" y1="325.6" x2="399" y2="325.6" stroke="#e5e7eb" stroke-width="0.5"/>
  <text x="30" y="328.6" text-anchor="end" font-size="8" fill="#6b7280">-900</text>
  <text x="30" y="287.5" text-anchor="end" font-size="8" fill="#6b7280">0</text>
  <line x1="34" y1="243.4" x2="399" y2="243.4" stroke="#e5e7eb" stroke-width="0.5"/>
  <text x="30" y="246.4" text-anchor="end" font-size="8" fill="#6b7280">900</text>
  <line x1="255.1" y1="207" x2="255.1" y2="362" stroke="#d1d5db" stroke-width="1" stroke-dasharray="4 3"/>
  <defs><linearGradient id="g142" x1="0" y1="207" x2="0" y2="284.5" gradientUnits="userSpaceOnUse">
    <stop offset="0%" stop-color="#2ecc71" stop-opacity="0.15"/>
    <stop offset="100%" stop-color="#2ecc71" stop-opacity="0.02"/>
  </linearGradient></defs>
  <path d="M37.5,224.9 37.5,224.9 70.8,254.7 90.3,264.6 104.1,269.6 114.8,272.6 123.6,274.5 131.0,276.0 137.4,277.0 143.1,277.8 148.1,278.5 152.7,279.0 156.9,279.5 160.7,279.9 164.3,280.2 167.6,280.5 170.7,280.7 173.6,280.9 176.3,281.1 178.9,281.3 181.4,281.5 183.7,281.6 186.0,281.7 188.1,281.8 190.2,281.9 192.1,282.0 194.0,282.1 195.8,282.2 197.6,282.3 199.2,282.4 200.9,282.4 202.4,282.5 204.0,282.5 205.5,282.6 206.9,282.6 208.3,282.7 209.6,282.7 210.9,282.8 212.2,282.8 213.5,282.9 214.7,282.9 215.9,282.9 217.0,283.0 218.2,283.0 219.3,283.0 220.3,283.1 221.4,283.1 222.4,283.1 223.4,283.2 224.4,283.2 225.4,283.2 226.4,283.2 227.3,283.3 228.2,283.3 229.1,283.3 230.0,283.3 230.8,283.4 231.7,283.4 232.5,283.4 233.4,283.4 234.2,283.5 235.7,283.5 237.3,283.6 238.7,283.6 240.2,283.6 241.6,283.7 242.9,283.7 244.2,283.8 245.5,283.8 246.8,283.9 248.0,283.9 249.2,284.0 250.3,284.0 251.4,284.0 252.6,284.1 253.6,284.1 254.7,284.2 255.7,284.2 256.7,284.2 257.7,284.3 258.7,284.3 259.6,284.3 260.6,284.3 261.5,284.4 262.4,284.4 263.3,284.4 264.1,284.4 265.0,284.4 265.8,284.4 266.6,284.5 267.4,284.5 268.6,284.5 269.8,284.5 270.9,284.5 272.0,284.5 273.1,284.5 274.2,284.5 275.2,284.5 276.2,284.5 277.2,284.5 278.2,284.5 279.1,284.5 280.0,284.5 281.0,284.5 281.9,284.5 282.7,284.5 283.6,284.5 284.5,284.5 285.3,284.5 286.1,284.5 286.9,284.5 288.0,284.5 289.0,284.5 290.0,284.5 291.0,284.5 292.0,284.5 292.9,284.5 293.9,284.5 294.8,284.5 295.7,284.5 296.6,284.5 297.4,284.5 298.3,284.5 299.1,284.5 299.9,284.5 300.7,284.5 301.7,284.5 302.7,284.5 303.6,284.5 304.6,284.5 305.5,284.5 306.4,284.5 307.3,284.5 308.1,284.5 309.0,284.5 309.8,284.5 310.6,284.5 311.4,284.5 312.4,284.5 313.3,284.5 314.2,284.5 315.1,284.5 316.0,284.5 316.9,284.5 317.7,284.5 318.6,284.5 319.4,284.5 320.2,284.5 321.1,284.5 322.0,284.5 322.9,284.5 323.8,284.5 324.7,284.5 325.5,284.5 326.3,284.5 327.1,284.5 327.9,284.5 328.8,284.5 329.7,284.5 330.6,284.5 331.4,284.5 332.3,284.5 333.1,284.5 333.9,284.5 334.8,284.5 335.7,284.5 336.5,284.5 337.4,284.5 338.2,284.5 339.0,284.5 339.8,284.5 340.7,284.5 341.6,284.5 342.4,284.5 343.3,284.5 344.1,284.5 344.9,284.5 345.8,284.5 346.6,284.5 347.5,284.5 348.3,284.5 349.1,284.5 350.0,284.5 350.8,284.5 351.7,284.5 352.5,284.5 353.3,284.5 354.1,284.5 355.0,284.5 355.8,284.5 356.6,284.5 357.5,284.5 358.3,284.5 359.1,284.5 360.0,284.5 360.8,284.5 361.6,284.5 362.5,284.5 363.3,284.5 364.1,284.5 364.9,284.5 365.8,284.5 366.6,284.5 367.4,284.5 368.2,284.5 369.1,284.5 369.9,284.5 370.7,284.5 371.6,284.5 372.4,284.5 373.2,284.5 374.0,284.5 374.8,284.5 375.6,284.5 376.5,284.5 377.3,284.5 378.1,284.5 378.9,284.5 379.7,284.5 380.5,284.5 381.4,284.5 382.2,284.5 383.0,284.5 383.8,284.5 384.6,284.5 385.5,284.5 386.3,284.5 387.1,284.5 387.9,284.5 388.7,284.5 389.5,284.5 390.3,284.5 391.2,284.5 392.0,284.5 392.8,284.5 393.6,284.5 394.4,284.5 395.2,284.5 396.0,284.5 396.8,284.5 397.6,284.5 398.5,284.5 L398.5,284.5 L37.5,284.5 Z" fill="url(#g142)"/>
  <defs><clipPath id="pc143"><rect x="34" y="207" width="365" height="155"/></clipPath></defs>
  <polyline points="37.5,224.9 70.8,254.7 90.3,264.6 104.1,269.6 114.8,272.6 123.6,274.5 131.0,276.0 137.4,277.0 143.1,277.8 148.1,278.5 152.7,279.0 156.9,279.5 160.7,279.9 164.3,280.2 167.6,280.5 170.7,280.7 173.6,280.9 176.3,281.1 178.9,281.3 181.4,281.5 183.7,281.6 186.0,281.7 188.1,281.8 190.2,281.9 192.1,282.0 194.0,282.1 195.8,282.2 197.6,282.3 199.2,282.4 200.9,282.4 202.4,282.5 204.0,282.5 205.5,282.6 206.9,282.6 208.3,282.7 209.6,282.7 210.9,282.8 212.2,282.8 213.5,282.9 214.7,282.9 215.9,282.9 217.0,283.0 218.2,283.0 219.3,283.0 220.3,283.1 221.4,283.1 222.4,283.1 223.4,283.2 224.4,283.2 225.4,283.2 226.4,283.2 227.3,283.3 228.2,283.3 229.1,283.3 230.0,283.3 230.8,283.4 231.7,283.4 232.5,283.4 233.4,283.4 234.2,283.5 235.7,283.5 237.3,283.6 238.7,283.6 240.2,283.6 241.6,283.7 242.9,283.7 244.2,283.8 245.5,283.8 246.8,283.9 248.0,283.9 249.2,284.0 250.3,284.0 251.4,284.0 252.6,284.1 253.6,284.1 254.7,284.2 255.7,284.2 256.7,284.2 257.7,284.3 258.7,284.3 259.6,284.3 260.6,284.3 261.5,284.4 262.4,284.4 263.3,284.4 264.1,284.4 265.0,284.4 265.8,284.4 266.6,284.5 267.4,284.5 268.6,284.5 269.8,284.5 270.9,284.5 272.0,284.5 273.1,284.5 274.2,284.5 275.2,284.5 276.2,284.5 277.2,284.5 278.2,284.5 279.1,284.5 280.0,284.5 281.0,284.5 281.9,284.5 282.7,284.5 283.6,284.5 284.5,284.5 285.3,284.5 286.1,284.5 286.9,284.5 288.0,284.5 289.0,284.5 290.0,284.5 291.0,284.5 292.0,284.5 292.9,284.5 293.9,284.5 294.8,284.5 295.7,284.5 296.6,284.5 297.4,284.5 298.3,284.5 299.1,284.5 299.9,284.5 300.7,284.5 301.7,284.5 302.7,284.5 303.6,284.5 304.6,284.5 305.5,284.5 306.4,284.5 307.3,284.5 308.1,284.5 309.0,284.5 309.8,284.5 310.6,284.5 311.4,284.5 312.4,284.5 313.3,284.5 314.2,284.5 315.1,284.5 316.0,284.5 316.9,284.5 317.7,284.5 318.6,284.5 319.4,284.5 320.2,284.5 321.1,284.5 322.0,284.5 322.9,284.5 323.8,284.5 324.7,284.5 325.5,284.5 326.3,284.5 327.1,284.5 327.9,284.5 328.8,284.5 329.7,284.5 330.6,284.5 331.4,284.5 332.3,284.5 333.1,284.5 333.9,284.5 334.8,284.5 335.7,284.5 336.5,284.5 337.4,284.5 338.2,284.5 339.0,284.5 339.8,284.5 340.7,284.5 341.6,284.5 342.4,284.5 343.3,284.5 344.1,284.5 344.9,284.5 345.8,284.5 346.6,284.5 347.5,284.5 348.3,284.5 349.1,284.5 350.0,284.5 350.8,284.5 351.7,284.5 352.5,284.5 353.3,284.5 354.1,284.5 355.0,284.5 355.8,284.5 356.6,284.5 357.5,284.5 358.3,284.5 359.1,284.5 360.0,284.5 360.8,284.5 361.6,284.5 362.5,284.5 363.3,284.5 364.1,284.5 364.9,284.5 365.8,284.5 366.6,284.5 367.4,284.5 368.2,284.5 369.1,284.5 369.9,284.5 370.7,284.5 371.6,284.5 372.4,284.5 373.2,284.5 374.0,284.5 374.8,284.5 375.6,284.5 376.5,284.5 377.3,284.5 378.1,284.5 378.9,284.5 379.7,284.5 380.5,284.5 381.4,284.5 382.2,284.5 383.0,284.5 383.8,284.5 384.6,284.5 385.5,284.5 386.3,284.5 387.1,284.5 387.9,284.5 388.7,284.5 389.5,284.5 390.3,284.5 391.2,284.5 392.0,284.5 392.8,284.5 393.6,284.5 394.4,284.5 395.2,284.5 396.0,284.5 396.8,284.5 397.6,284.5 398.5,284.5" fill="none" stroke="#2ecc71" stroke-width="1.5" stroke-linejoin="round" clip-path="url(#pc143)"/>
  <line x1="435" y1="207" x2="435" y2="362" stroke="#d1d5db"/>
  <line x1="435" y1="284.5" x2="800" y2="284.5" stroke="#d1d5db"/>
  <text x="617.5" y="388" text-anchor="middle" font-size="9" fill="#6b7280">Samples</text>
  <text x="413" y="284.5" text-anchor="middle" font-size="9" fill="#6b7280" transform="rotate(-90 413 284.5)">Impulse response</text>
  <line x1="435.0" y1="207" x2="435.0" y2="362" stroke="#e5e7eb" stroke-width="0.5"/>
  <text x="435.0" y="374" text-anchor="middle" font-size="8" fill="#6b7280">0</text>
  <line x1="526.3" y1="207" x2="526.3" y2="362" stroke="#e5e7eb" stroke-width="0.5"/>
  <text x="526.3" y="374" text-anchor="middle" font-size="8" fill="#6b7280">32</text>
  <line x1="617.5" y1="207" x2="617.5" y2="362" stroke="#e5e7eb" stroke-width="0.5"/>
  <text x="617.5" y="374" text-anchor="middle" font-size="8" fill="#6b7280">64</text>
  <line x1="708.8" y1="207" x2="708.8" y2="362" stroke="#e5e7eb" stroke-width="0.5"/>
  <text x="708.8" y="374" text-anchor="middle" font-size="8" fill="#6b7280">96</text>
  <line x1="800.0" y1="207" x2="800.0" y2="362" stroke="#e5e7eb" stroke-width="0.5"/>
  <text x="800.0" y="374" text-anchor="middle" font-size="8" fill="#6b7280">128</text>
  <line x1="435" y1="342.9" x2="800" y2="342.9" stroke="#e5e7eb" stroke-width="0.5"/>
  <text x="431" y="345.9" text-anchor="end" font-size="8" fill="#6b7280">-0.7</text>
  <text x="431" y="287.5" text-anchor="end" font-size="8" fill="#6b7280">0</text>
  <line x1="435" y1="226.1" x2="800" y2="226.1" stroke="#e5e7eb" stroke-width="0.5"/>
  <text x="431" y="229.1" text-anchor="end" font-size="8" fill="#6b7280">0.7</text>
  <defs><linearGradient id="g144" x1="0" y1="207" x2="0" y2="284.5" gradientUnits="userSpaceOnUse">
    <stop offset="0%" stop-color="#f39c12" stop-opacity="0.15"/>
    <stop offset="100%" stop-color="#f39c12" stop-opacity="0.02"/>
  </linearGradient></defs>
  <defs><linearGradient id="g145" x1="0" y1="362" x2="0" y2="284.5" gradientUnits="userSpaceOnUse">
    <stop offset="0%" stop-color="#f39c12" stop-opacity="0.15"/>
    <stop offset="100%" stop-color="#f39c12" stop-opacity="0.02"/>
  </linearGradient></defs>
  <defs><clipPath id="c146"><rect x="435" y="207" width="365" height="77.5"/></clipPath></defs>
  <defs><clipPath id="c147"><rect x="435" y="284.5" width="365" height="77.5"/></clipPath></defs>
  <path d="M435.0,207.0 435.0,207.0 437.9,296.2 440.7,295.9 443.6,295.4 446.4,294.8 449.3,294.1 452.1,293.2 455.0,292.4 457.8,291.5 460.7,290.5 463.5,289.6 466.4,288.7 469.2,287.9 472.1,287.1 474.9,286.3 477.8,285.6 480.6,285.0 483.5,284.5 486.3,284.0 489.2,283.6 492.0,283.3 494.9,283.0 497.7,282.8 500.6,282.7 503.4,282.6 506.3,282.6 509.1,282.6 512.0,282.6 514.8,282.7 517.7,282.8 520.5,282.9 523.4,283.0 526.3,283.1 529.1,283.3 532.0,283.4 534.8,283.6 537.7,283.7 540.5,283.9 543.4,284.0 546.2,284.2 549.1,284.3 551.9,284.4 554.8,284.5 557.6,284.5 560.5,284.6 563.3,284.7 566.2,284.7 569.0,284.8 571.9,284.8 574.7,284.8 577.6,284.8 580.4,284.8 583.3,284.8 586.1,284.8 589.0,284.8 591.8,284.8 594.7,284.8 597.5,284.7 600.4,284.7 603.2,284.7 606.1,284.7 608.9,284.6 611.8,284.6 614.6,284.6 617.5,284.6 620.4,284.5 623.2,284.5 626.1,284.5 628.9,284.5 631.8,284.5 634.6,284.5 637.5,284.5 640.3,284.5 643.2,284.5 646.0,284.5 648.9,284.4 651.7,284.4 654.6,284.4 657.4,284.4 660.3,284.5 663.1,284.5 666.0,284.5 668.8,284.5 671.7,284.5 674.5,284.5 677.4,284.5 680.2,284.5 683.1,284.5 685.9,284.5 688.8,284.5 691.6,284.5 694.5,284.5 697.3,284.5 700.2,284.5 703.0,284.5 705.9,284.5 708.8,284.5 711.6,284.5 714.5,284.5 717.3,284.5 720.2,284.5 723.0,284.5 725.9,284.5 728.7,284.5 731.6,284.5 734.4,284.5 737.3,284.5 740.1,284.5 743.0,284.5 745.8,284.5 748.7,284.5 751.5,284.5 754.4,284.5 757.2,284.5 760.1,284.5 762.9,284.5 765.8,284.5 768.6,284.5 771.5,284.5 774.3,284.5 777.2,284.5 780.0,284.5 782.9,284.5 785.7,284.5 788.6,284.5 791.4,284.5 794.3,284.5 797.1,284.5 L797.1,284.5 L435.0,284.5 Z" fill="url(#g144)" clip-path="url(#c146)"/>
  <path d="M435.0,207.0 435.0,207.0 437.9,296.2 440.7,295.9 443.6,295.4 446.4,294.8 449.3,294.1 452.1,293.2 455.0,292.4 457.8,291.5 460.7,290.5 463.5,289.6 466.4,288.7 469.2,287.9 472.1,287.1 474.9,286.3 477.8,285.6 480.6,285.0 483.5,284.5 486.3,284.0 489.2,283.6 492.0,283.3 494.9,283.0 497.7,282.8 500.6,282.7 503.4,282.6 506.3,282.6 509.1,282.6 512.0,282.6 514.8,282.7 517.7,282.8 520.5,282.9 523.4,283.0 526.3,283.1 529.1,283.3 532.0,283.4 534.8,283.6 537.7,283.7 540.5,283.9 543.4,284.0 546.2,284.2 549.1,284.3 551.9,284.4 554.8,284.5 557.6,284.5 560.5,284.6 563.3,284.7 566.2,284.7 569.0,284.8 571.9,284.8 574.7,284.8 577.6,284.8 580.4,284.8 583.3,284.8 586.1,284.8 589.0,284.8 591.8,284.8 594.7,284.8 597.5,284.7 600.4,284.7 603.2,284.7 606.1,284.7 608.9,284.6 611.8,284.6 614.6,284.6 617.5,284.6 620.4,284.5 623.2,284.5 626.1,284.5 628.9,284.5 631.8,284.5 634.6,284.5 637.5,284.5 640.3,284.5 643.2,284.5 646.0,284.5 648.9,284.4 651.7,284.4 654.6,284.4 657.4,284.4 660.3,284.5 663.1,284.5 666.0,284.5 668.8,284.5 671.7,284.5 674.5,284.5 677.4,284.5 680.2,284.5 683.1,284.5 685.9,284.5 688.8,284.5 691.6,284.5 694.5,284.5 697.3,284.5 700.2,284.5 703.0,284.5 705.9,284.5 708.8,284.5 711.6,284.5 714.5,284.5 717.3,284.5 720.2,284.5 723.0,284.5 725.9,284.5 728.7,284.5 731.6,284.5 734.4,284.5 737.3,284.5 740.1,284.5 743.0,284.5 745.8,284.5 748.7,284.5 751.5,284.5 754.4,284.5 757.2,284.5 760.1,284.5 762.9,284.5 765.8,284.5 768.6,284.5 771.5,284.5 774.3,284.5 777.2,284.5 780.0,284.5 782.9,284.5 785.7,284.5 788.6,284.5 791.4,284.5 794.3,284.5 797.1,284.5 L797.1,284.5 L435.0,284.5 Z" fill="url(#g145)" clip-path="url(#c147)"/>
  <defs><clipPath id="pc148"><rect x="435" y="207" width="365" height="155"/></clipPath></defs>
  <polyline points="435.0,207.0 437.9,296.2 440.7,295.9 443.6,295.4 446.4,294.8 449.3,294.1 452.1,293.2 455.0,292.4 457.8,291.5 460.7,290.5 463.5,289.6 466.4,288.7 469.2,287.9 472.1,287.1 474.9,286.3 477.8,285.6 480.6,285.0 483.5,284.5 486.3,284.0 489.2,283.6 492.0,283.3 494.9,283.0 497.7,282.8 500.6,282.7 503.4,282.6 506.3,282.6 509.1,282.6 512.0,282.6 514.8,282.7 517.7,282.8 520.5,282.9 523.4,283.0 526.3,283.1 529.1,283.3 532.0,283.4 534.8,283.6 537.7,283.7 540.5,283.9 543.4,284.0 546.2,284.2 549.1,284.3 551.9,284.4 554.8,284.5 557.6,284.5 560.5,284.6 563.3,284.7 566.2,284.7 569.0,284.8 571.9,284.8 574.7,284.8 577.6,284.8 580.4,284.8 583.3,284.8 586.1,284.8 589.0,284.8 591.8,284.8 594.7,284.8 597.5,284.7 600.4,284.7 603.2,284.7 606.1,284.7 608.9,284.6 611.8,284.6 614.6,284.6 617.5,284.6 620.4,284.5 623.2,284.5 626.1,284.5 628.9,284.5 631.8,284.5 634.6,284.5 637.5,284.5 640.3,284.5 643.2,284.5 646.0,284.5 648.9,284.4 651.7,284.4 654.6,284.4 657.4,284.4 660.3,284.5 663.1,284.5 666.0,284.5 668.8,284.5 671.7,284.5 674.5,284.5 677.4,284.5 680.2,284.5 683.1,284.5 685.9,284.5 688.8,284.5 691.6,284.5 694.5,284.5 697.3,284.5 700.2,284.5 703.0,284.5 705.9,284.5 708.8,284.5 711.6,284.5 714.5,284.5 717.3,284.5 720.2,284.5 723.0,284.5 725.9,284.5 728.7,284.5 731.6,284.5 734.4,284.5 737.3,284.5 740.1,284.5 743.0,284.5 745.8,284.5 748.7,284.5 751.5,284.5 754.4,284.5 757.2,284.5 760.1,284.5 762.9,284.5 765.8,284.5 768.6,284.5 771.5,284.5 774.3,284.5 777.2,284.5 780.0,284.5 782.9,284.5 785.7,284.5 788.6,284.5 791.4,284.5 794.3,284.5 797.1,284.5" fill="none" stroke="#f39c12" stroke-width="1.3" stroke-linejoin="round" clip-path="url(#pc148)"/>
</svg>
