<svg xmlns="http://www.w3.org/2000/svg" viewBox="0 0 820 378" style="font-family:system-ui,-apple-system,sans-serif">
  <text x="800" y="11" text-anchor="end" font-size="11" font-weight="600" fill="#6b7280">Biquad notch, fc=1kHz</text>
  <line x1="34" y1="16" x2="34" y2="171" stroke="#d1d5db"/>
  <line x1="34" y1="47.0" x2="399" y2="47.0" stroke="#d1d5db"/>
  <text x="216.5" y="197" text-anchor="middle" font-size="9" fill="#6b7280">Hz</text>
  <text x="12" y="93.5" text-anchor="middle" font-size="9" fill="#6b7280" transform="rotate(-90 12 93.5)">dB</text>
  <line x1="67.3" y1="16" x2="67.3" y2="171" stroke="#e5e7eb" stroke-width="0.5"/>
  <line x1="86.8" y1="16" x2="86.8" y2="171" stroke="#e5e7eb" stroke-width="0.5"/>
  <line x1="100.6" y1="16" x2="100.6" y2="171" stroke="#e5e7eb" stroke-width="0.5"/>
  <line x1="111.3" y1="16" x2="111.3" y2="171" stroke="#e5e7eb" stroke-width="0.5"/>
  <line x1="120.0" y1="16" x2="120.0" y2="171" stroke="#e5e7eb" stroke-width="0.5"/>
  <line x1="127.4" y1="16" x2="127.4" y2="171" stroke="#e5e7eb" stroke-width="0.5"/>
  <line x1="133.9" y1="16" x2="133.9" y2="171" stroke="#e5e7eb" stroke-width="0.5"/>
  <line x1="139.5" y1="16" x2="139.5" y2="171" stroke="#e5e7eb" stroke-width="0.5"/>
  <line x1="177.9" y1="16" x2="177.9" y2="171" stroke="#e5e7eb" stroke-width="0.5"/>
  <line x1="197.3" y1="16" x2="197.3" y2="171" stroke="#e5e7eb" stroke-width="0.5"/>
  <line x1="211.1" y1="16" x2="211.1" y2="171" stroke="#e5e7eb" stroke-width="0.5"/>
  <line x1="221.9" y1="16" x2="221.9" y2="171" stroke="#e5e7eb" stroke-width="0.5"/>
  <line x1="230.6" y1="16" x2="230.6" y2="171" stroke="#e5e7eb" stroke-width="0.5"/>
  <line x1="238.0" y1="16" x2="238.0" y2="171" stroke="#e5e7eb" stroke-width="0.5"/>
  <line x1="244.4" y1="16" x2="244.4" y2="171" stroke="#e5e7eb" stroke-width="0.5"/>
  <line x1="250.1" y1="16" x2="250.1" y2="171" stroke="#e5e7eb" stroke-width="0.5"/>
  <line x1="288.4" y1="16" x2="288.4" y2="171" stroke="#e5e7eb" stroke-width="0.5"/>
  <line x1="307.9" y1="16" x2="307.9" y2="171" stroke="#e5e7eb" stroke-width="0.5"/>
  <line x1="321.7" y1="16" x2="321.7" y2="171" stroke="#e5e7eb" stroke-width="0.5"/>
  <line x1="332.4" y1="16" x2="332.4" y2="171" stroke="#e5e7eb" stroke-width="0.5"/>
  <line x1="341.2" y1="16" x2="341.2" y2="171" stroke="#e5e7eb" stroke-width="0.5"/>
  <line x1="348.6" y1="16" x2="348.6" y2="171" stroke="#e5e7eb" stroke-width="0.5"/>
  <line x1="355.0" y1="16" x2="355.0" y2="171" stroke="#e5e7eb" stroke-width="0.5"/>
  <line x1="360.7" y1="16" x2="360.7" y2="171" stroke="#e5e7eb" stroke-width="0.5"/>
  <line x1="399.0" y1="16" x2="399.0" y2="171" stroke="#e5e7eb" stroke-width="0.5"/>
  <line x1="144.6" y1="16" x2="144.6" y2="171" stroke="#e5e7eb" stroke-width="0.5"/>
  <text x="144.6" y="183" text-anchor="middle" font-size="8" fill="#6b7280">100</text>
  <line x1="255.1" y1="16" x2="255.1" y2="171" stroke="#e5e7eb" stroke-width="0.5"/>
  <text x="255.1" y="183" text-anchor="middle" font-size="8" fill="#6b7280">1k</text>
  <line x1="365.7" y1="16" x2="365.7" y2="171" stroke="#e5e7eb" stroke-width="0.5"/>
  <text x="365.7" y="183" text-anchor="middle" font-size="8" fill="#6b7280">10k</text>
  <line x1="34" y1="31.5" x2="399" y2="31.5" stroke="#e5e7eb" stroke-width="0.5"/>
  <line x1="34" y1="62.5" x2="399" y2="62.5" stroke="#e5e7eb" stroke-width="0.5"/>
  <line x1="34" y1="16.0" x2="399" y2="16.0" stroke="#e5e7eb" stroke-width="0.5"/>
  <text x="30" y="19.0" text-anchor="end" font-size="8" fill="#6b7280">+20</text>
  <text x="30" y="50.0" text-anchor="end" font-size="8" fill="#6b7280">0</text>
  <line x1="34" y1="78.0" x2="399" y2="78.0" stroke="#e5e7eb" stroke-width="0.5"/>
  <text x="30" y="81.0" text-anchor="end" font-size="8" fill="#6b7280">-20</text>
  <line x1="34" y1="109.0" x2="399" y2="109.0" stroke="#e5e7eb" stroke-width="0.5"/>
  <text x="30" y="112.0" text-anchor="end" font-size="8" fill="#6b7280">-40</text>
  <line x1="34" y1="140.0" x2="399" y2="140.0" stroke="#e5e7eb" stroke-width="0.5"/>
  <text x="30" y="143.0" text-anchor="end" font-size="8" fill="#6b7280">-60</text>
  <line x1="34" y1="171.0" x2="399" y2="171.0" stroke="#e5e7eb" stroke-width="0.5"/>
  <text x="30" y="174.0" text-anchor="end" font-size="8" fill="#6b7280">-80</text>
  <line x1="255.1" y1="16" x2="255.1" y2="171" stroke="#d1d5db" stroke-width="1" stroke-dasharray="4 3"/>
  <defs><linearGradient id="g163" x1="0" y1="16" x2="0" y2="171" gradientUnits="userSpaceOnUse">
    <stop offset="0%" stop-color="#4a90d9" stop-opacity="0.15"/>
    <stop offset="100%" stop-color="#4a90d9" stop-opacity="0.02"/>
  </linearGradient></defs>
  <path d="M37.5,47.0 37.5,47.0 70.8,47.0 90.3,47.0 104.1,47.0 114.8,47.0 123.6,47.0 131.0,47.0 137.4,47.0 143.1,47.0 148.1,47.0 152.7,47.0 156.9,47.0 160.7,47.0 164.3,47.0 167.6,47.0 170.7,47.0 173.6,47.0 176.3,47.0 178.9,47.0 181.4,47.0 183.7,47.0 186.0,47.0 188.1,47.0 190.2,47.0 192.1,47.0 194.0,47.0 195.8,47.0 197.6,47.0 199.2,47.0 200.9,47.0 202.4,47.0 204.0,47.0 205.5,47.0 206.9,47.0 208.3,47.0 209.6,47.0 210.9,47.0 212.2,47.0 213.5,47.0 214.7,47.0 215.9,47.0 217.0,47.0 218.2,47.0 219.3,47.0 220.3,47.0 221.4,47.0 222.4,47.0 223.4,47.0 224.4,47.0 225.4,47.0 226.4,47.0 227.3,47.0 228.2,47.0 229.1,47.1 230.0,47.1 230.8,47.1 231.7,47.1 232.5,47.1 233.4,47.1 234.2,47.1 235.7,47.1 237.3,47.1 238.7,47.1 240.2,47.2 241.6,47.2 242.9,47.2 244.2,47.3 245.5,47.4 246.8,47.5 248.0,47.7 249.2,48.0 250.3,48.5 251.4,49.4 252.6,51.1 253.6,55.4 254.7,69.5 255.7,66.6 256.7,55.0 257.7,51.2 258.7,49.5 259.6,48.7 260.6,48.2 261.5,47.9 262.4,47.7 263.3,47.6 264.1,47.5 265.0,47.4 265.8,47.3 266.6,47.3 267.4,47.2 268.6,47.2 269.8,47.2 270.9,47.1 272.0,47.1 273.1,47.1 274.2,47.1 275.2,47.1 276.2,47.1 277.2,47.1 278.2,47.1 279.1,47.1 280.0,47.1 281.0,47.1 281.9,47.0 282.7,47.0 283.6,47.0 284.5,47.0 285.3,47.0 286.1,47.0 286.9,47.0 288.0,47.0 289.0,47.0 290.0,47.0 291.0,47.0 292.0,47.0 292.9,47.0 293.9,47.0 294.8,47.0 295.7,47.0 296.6,47.0 297.4,47.0 298.3,47.0 299.1,47.0 299.9,47.0 300.7,47.0 301.7,47.0 302.7,47.0 303.6,47.0 304.6,47.0 305.5,47.0 306.4,47.0 307.3,47.0 308.1,47.0 309.0,47.0 309.8,47.0 310.6,47.0 311.4,47.0 312.4,47.0 313.3,47.0 314.2,47.0 315.1,47.0 316.0,47.0 316.9,47.0 317.7,47.0 318.6,47.0 319.4,47.0 320.2,47.0 321.1,47.0 322.0,47.0 322.9,47.0 323.8,47.0 324.7,47.0 325.5,47.0 326.3,47.0 327.1,47.0 327.9,47.0 328.8,47.0 329.7,47.0 330.6,47.0 331.4,47.0 332.3,47.0 333.1,47.0 333.9,47.0 334.8,47.0 335.7,47.0 336.5,47.0 337.4,47.0 338.2,47.0 339.0,47.0 339.8,47.0 340.7,47.0 341.6,47.0 342.4,47.0 343.3,47.0 344.1,47.0 344.9,47.0 345.8,47.0 346.6,47.0 347.5,47.0 348.3,47.0 349.1,47.0 350.0,47.0 350.8,47.0 351.7,47.0 352.5,47.0 353.3,47.0 354.1,47.0 355.0,47.0 355.8,47.0 356.6,47.0 357.5,47.0 358.3,47.0 359.1,47.0 360.0,47.0 360.8,47.0 361.6,47.0 362.5,47.0 363.3,47.0 364.1,47.0 364.9,47.0 365.8,47.0 366.6,47.0 367.4,47.0 368.2,47.0 369.1,47.0 369.9,47.0 370.7,47.0 371.6,47.0 372.4,47.0 373.2,47.0 374.0,47.0 374.8,47.0 375.6,47.0 376.5,47.0 377.3,47.0 378.1,47.0 378.9,47.0 379.7,47.0 380.5,47.0 381.4,47.0 382.2,47.0 383.0,47.0 383.8,47.0 384.6,47.0 385.5,47.0 386.3,47.0 387.1,47.0 387.9,47.0 388.7,47.0 389.5,47.0 390.3,47.0 391.2,47.0 392.0,47.0 392.8,47.0 393.6,47.0 394.4,47.0 395.2,47.0 396.0,47.0 396.8,47.0 397.6,47.0 398.5,47.0 L398.5,171.0 L37.5,171.0 Z" fill="url(#g163)"/>
  <defs><clipPath id="pc164"><rect x="34" y="16" width="365" height="155"/></clipPath></defs>
  <polyline points="37.5,47.0 70.8,47.0 90.3,47.0 104.1,47.0 114.8,47.0 123.6,47.0 131.0,47.0 137.4,47.0 143.1,47.0 148.1,47.0 152.7,47.0 156.9,47.0 160.7,47.0 164.3,47.0 167.6,47.0 170.7,47.0 173.6,47.0 176.3,47.0 178.9,47.0 181.4,47.0 183.7,47.0 186.0,47.0 188.1,47.0 190.2,47.0 192.1,47.0 194.0,47.0 195.8,47.0 197.6,47.0 199.2,47.0 200.9,47.0 202.4,47.0 204.0,47.0 205.5,47.0 206.9,47.0 208.3,47.0 209.6,47.0 210.9,47.0 212.2,47.0 213.5,47.0 214.7,47.0 215.9,47.0 217.0,47.0 218.2,47.0 219.3,47.0 220.3,47.0 221.4,47.0 222.4,47.0 223.4,47.0 224.4,47.0 225.4,47.0 226.4,47.0 227.3,47.0 228.2,47.0 229.1,47.1 230.0,47.1 230.8,47.1 231.7,47.1 232.5,47.1 233.4,47.1 234.2,47.1 235.7,47.1 237.3,47.1 238.7,47.1 240.2,47.2 241.6,47.2 242.9,47.2 244.2,47.3 245.5,47.4 246.8,47.5 248.0,47.7 249.2,48.0 250.3,48.5 251.4,49.4 252.6,51.1 253.6,55.4 254.7,69.5 255.7,66.6 256.7,55.0 257.7,51.2 258.7,49.5 259.6,48.7 260.6,48.2 261.5,47.9 262.4,47.7 263.3,47.6 264.1,47.5 265.0,47.4 265.8,47.3 266.6,47.3 267.4,47.2 268.6,47.2 269.8,47.2 270.9,47.1 272.0,47.1 273.1,47.1 274.2,47.1 275.2,47.1 276.2,47.1 277.2,47.1 278.2,47.1 279.1,47.1 280.0,47.1 281.0,47.1 281.9,47.0 282.7,47.0 283.6,47.0 284.5,47.0 285.3,47.0 286.1,47.0 286.9,47.0 288.0,47.0 289.0,47.0 290.0,47.0 291.0,47.0 292.0,47.0 292.9,47.0 293.9,47.0 294.8,47.0 295.7,47.0 296.6,47.0 297.4,47.0 298.3,47.0 299.1,47.0 299.9,47.0 300.7,47.0 301.7,47.0 302.7,47.0 303.6,47.0 304.6,47.0 305.5,47.0 306.4,47.0 307.3,47.0 308.1,47.0 309.0,47.0 309.8,47.0 310.6,47.0 311.4,47.0 312.4,47.0 313.3,47.0 314.2,47.0 315.1,47.0 316.0,47.0 316.9,47.0 317.7,47.0 318.6,47.0 319.4,47.0 320.2,47.0 321.1,47.0 322.0,47.0 322.9,47.0 323.8,47.0 324.7,47.0 325.5,47.0 326.3,47.0 327.1,47.0 327.9,47.0 328.8,47.0 329.7,47.0 330.6,47.0 331.4,47.0 332.3,47.0 333.1,47.0 333.9,47.0 334.8,47.0 335.7,47.0 336.5,47.0 337.4,47.0 338.2,47.0 339.0,47.0 339.8,47.0 340.7,47.0 341.6,47.0 342.4,47.0 343.3,47.0 344.1,47.0 344.9,47.0 345.8,47.0 346.6,47.0 347.5,47.0 348.3,47.0 349.1,47.0 350.0,47.0 350.8,47.0 351.7,47.0 352.5,47.0 353.3,47.0 354.1,47.0 355.0,47.0 355.8,47.0 356.6,47.0 357.5,47.0 358.3,47.0 359.1,47.0 360.0,47.0 360.8,47.0 361.6,47.0 362.5,47.0 363.3,47.0 364.1,47.0 364.9,47.0 365.8,47.0 366.6,47.0 367.4,47.0 368.2,47.0 369.1,47.0 369.9,47.0 370.7,47.0 371.6,47.0 372.4,47.0 373.2,47.0 374.0,47.0 374.8,47.0 375.6,47.0 376.5,47.0 377.3,47.0 378.1,47.0 378.9,47.0 379.7,47.0 380.5,47.0 381.4,47.0 382.2,47.0 383.0,47.0 383.8,47.0 384.6,47.0 385.5,47.0 386.3,47.0 387.1,47.0 387.9,47.0 388.7,47.0 389.5,47.0 390.3,47.0 391.2,47.0 392.0,47.0 392.8,47.0 393.6,47.0 394.4,47.0 395.2,47.0 396.0,47.0 396.8,47.0 397.6,47.0 398.5,47.0" fill="none" stroke="#4a90d9" stroke-width="1.5" stroke-linejoin="round" clip-path="url(#pc164)"/>
  <line x1="435" y1="16" x2="435" y2="171" stroke="#d1d5db"/>
  <line x1="435" y1="93.5" x2="800" y2="93.5" stroke="#d1d5db"/>
  <text x="617.5" y="197" text-anchor="middle" font-size="9" fill="#6b7280">Hz</text>
  <text x="413" y="93.5" text-anchor="middle" font-size="9" fill="#6b7280" transform="rotate(-90 413 93.5)">Phase (deg)</text>
  <line x1="468.3" y1="16" x2="468.3" y2="171" stroke="#e5e7eb" stroke-width="0.5"/>
  <line x1="487.8" y1="16" x2="487.8" y2="171" stroke="#e5e7eb" stroke-width="0.5"/>
  <line x1="501.6" y1="16" x2="501.6" y2="171" stroke="#e5e7eb" stroke-width="0.5"/>
  <line x1="512.3" y1="16" x2="512.3" y2="171" stroke="#e5e7eb" stroke-width="0.5"/>
  <line x1="521.0" y1="16" x2="521.0" y2="171" stroke="#e5e7eb" stroke-width="0.5"/>
  <line x1="528.4" y1="16" x2="528.4" y2="171" stroke="#e5e7eb" stroke-width="0.5"/>
  <line x1="534.9" y1="16" x2="534.9" y2="171" stroke="#e5e7eb" stroke-width="0.5"/>
  <line x1="540.5" y1="16" x2="540.5" y2="171" stroke="#e5e7eb" stroke-width="0.5"/>
  <line x1="578.9" y1="16" x2="578.9" y2="171" stroke="#e5e7eb" stroke-width="0.5"/>
  <line x1="598.3" y1="16" x2="598.3" y2="171" stroke="#e5e7eb" stroke-width="0.5"/>
  <line x1="612.1" y1="16" x2="612.1" y2="171" stroke="#e5e7eb" stroke-width="0.5"/>
  <line x1="622.9" y1="16" x2="622.9" y2="171" stroke="#e5e7eb" stroke-width="0.5"/>
  <line x1="631.6" y1="16" x2="631.6" y2="171" stroke="#e5e7eb" stroke-width="0.5"/>
  <line x1="639.0" y1="16" x2="639.0" y2="171" stroke="#e5e7eb" stroke-width="0.5"/>
  <line x1="645.4" y1="16" x2="645.4" y2="171" stroke="#e5e7eb" stroke-width="0.5"/>
  <line x1="651.1" y1="16" x2="651.1" y2="171" stroke="#e5e7eb" stroke-width="0.5"/>
  <line x1="689.4" y1="16" x2="689.4" y2="171" stroke="#e5e7eb" stroke-width="0.5"/>
  <line x1="708.9" y1="16" x2="708.9" y2="171" stroke="#e5e7eb" stroke-width="0.5"/>
  <line x1="722.7" y1="16" x2="722.7" y2="171" stroke="#e5e7eb" stroke-width="0.5"/>
  <line x1="733.4" y1="16" x2="733.4" y2="171" stroke="#e5e7eb" stroke-width="0.5"/>
  <line x1="742.2" y1="16" x2="742.2" y2="171" stroke="#e5e7eb" stroke-width="0.5"/>
  <line x1="749.6" y1="16" x2="749.6" y2="171" stroke="#e5e7eb" stroke-width="0.5"/>
  <line x1="756.0" y1="16" x2="756.0" y2="171" stroke="#e5e7eb" stroke-width="0.5"/>
  <line x1="761.7" y1="16" x2="761.7" y2="171" stroke="#e5e7eb" stroke-width="0.5"/>
  <line x1="800.0" y1="16" x2="800.0" y2="171" stroke="#e5e7eb" stroke-width="0.5"/>
  <line x1="545.6" y1="16" x2="545.6" y2="171" stroke="#e5e7eb" stroke-width="0.5"/>
  <text x="545.6" y="183" text-anchor="middle" font-size="8" fill="#6b7280">100</text>
  <line x1="656.1" y1="16" x2="656.1" y2="171" stroke="#e5e7eb" stroke-width="0.5"/>
  <text x="656.1" y="183" text-anchor="middle" font-size="8" fill="#6b7280">1k</text>
  <line x1="766.7" y1="16" x2="766.7" y2="171" stroke="#e5e7eb" stroke-width="0.5"/>
  <text x="766.7" y="183" text-anchor="middle" font-size="8" fill="#6b7280">10k</text>
  <line x1="435" y1="54.8" x2="800" y2="54.8" stroke="#e5e7eb" stroke-width="0.5"/>
  <line x1="435" y1="132.3" x2="800" y2="132.3" stroke="#e5e7eb" stroke-width="0.5"/>
  <line x1="435" y1="16.0" x2="800" y2="16.0" stroke="#e5e7eb" stroke-width="0.5"/>
  <text x="431" y="19.0" text-anchor="end" font-size="8" fill="#6b7280">180</text>
  <text x="431" y="96.5" text-anchor="end" font-size="8" fill="#6b7280">0</text>
  <line x1="435" y1="171.0" x2="800" y2="171.0" stroke="#e5e7eb" stroke-width="0.5"/>
  <text x="431" y="174.0" text-anchor="end" font-size="8" fill="#6b7280">-180</text>
  <line x1="656.1" y1="16" x2="656.1" y2="171" stroke="#d1d5db" stroke-width="1" stroke-dasharray="4 3"/>
  <defs><linearGradient id="g165" x1="0" y1="16" x2="0" y2="93.5" gradientUnits="userSpaceOnUse">
    <stop offset="0%" stop-color="#e74c3c" stop-opacity="0.15"/>
    <stop offset="100%" stop-color="#e74c3c" stop-opacity="0.02"/>
  </linearGradient></defs>
  <defs><linearGradient id="g166" x1="0" y1="171" x2="0" y2="93.5" gradientUnits="userSpaceOnUse">
    <stop offset="0%" stop-color="#e74c3c" stop-opacity="0.15"/>
    <stop offset="100%" stop-color="#e74c3c" stop-opacity="0.02"/>
  </linearGradient></defs>
  <defs><clipPath id="c167"><rect x="435" y="16" width="365" height="77.5"/></clipPath></defs>
  <defs><clipPath id="c168"><rect x="435" y="93.5" width="365" height="77.5"/></clipPath></defs>
  <path d="M438.5,93.5 438.5,93.5 471.8,93.6 491.3,93.6 505.1,93.6 515.8,93.6 524.6,93.7 532.0,93.7 538.4,93.7 544.1,93.7 549.1,93.8 553.7,93.8 557.9,93.8 561.7,93.9 565.3,93.9 568.6,93.9 571.7,93.9 574.6,94.0 577.3,94.0 579.9,94.0 582.4,94.1 584.7,94.1 587.0,94.1 589.1,94.1 591.2,94.2 593.1,94.2 595.0,94.2 596.8,94.3 598.6,94.3 600.2,94.4 601.9,94.4 603.4,94.4 605.0,94.5 606.5,94.5 607.9,94.5 609.3,94.6 610.6,94.6 611.9,94.7 613.2,94.7 614.5,94.8 615.7,94.8 616.9,94.8 618.0,94.9 619.2,94.9 620.3,95.0 621.3,95.1 622.4,95.1 623.4,95.2 624.4,95.2 625.4,95.3 626.4,95.4 627.4,95.4 628.3,95.5 629.2,95.6 630.1,95.7 631.0,95.7 631.8,95.8 632.7,95.9 633.5,96.0 634.4,96.1 635.2,96.2 636.7,96.4 638.3,96.7 639.7,97.0 641.2,97.4 642.6,97.7 643.9,98.2 645.2,98.8 646.5,99.5 647.8,100.3 649.0,101.4 650.2,102.9 651.3,104.8 652.4,107.7 653.6,111.9 654.6,118.3 655.7,127.6 656.7,60.6 657.7,69.2 658.7,75.0 659.7,78.9 660.6,81.5 661.6,83.3 662.5,84.6 663.4,85.7 664.3,86.5 665.1,87.1 666.0,87.7 666.8,88.1 667.6,88.5 668.4,88.8 669.6,89.2 670.8,89.6 671.9,89.9 673.0,90.1 674.1,90.3 675.2,90.5 676.2,90.7 677.2,90.8 678.2,90.9 679.2,91.0 680.1,91.2 681.0,91.2 682.0,91.3 682.9,91.4 683.7,91.5 684.6,91.6 685.5,91.6 686.3,91.7 687.1,91.7 687.9,91.8 689.0,91.8 690.0,91.9 691.0,92.0 692.0,92.0 693.0,92.1 693.9,92.1 694.9,92.1 695.8,92.2 696.7,92.2 697.6,92.2 698.4,92.3 699.3,92.3 700.1,92.3 700.9,92.4 701.7,92.4 702.7,92.4 703.7,92.5 704.6,92.5 705.6,92.5 706.5,92.5 707.4,92.6 708.3,92.6 709.1,92.6 710.0,92.6 710.8,92.6 711.6,92.7 712.4,92.7 713.4,92.7 714.3,92.7 715.2,92.7 716.1,92.7 717.0,92.8 717.9,92.8 718.7,92.8 719.6,92.8 720.4,92.8 721.2,92.8 722.1,92.9 723.0,92.9 723.9,92.9 724.8,92.9 725.7,92.9 726.5,92.9 727.3,92.9 728.1,92.9 728.9,93.0 729.8,93.0 730.7,93.0 731.6,93.0 732.4,93.0 733.3,93.0 734.1,93.0 734.9,93.0 735.8,93.0 736.7,93.0 737.5,93.1 738.4,93.1 739.2,93.1 740.0,93.1 740.8,93.1 741.7,93.1 742.6,93.1 743.4,93.1 744.3,93.1 745.1,93.1 745.9,93.1 746.8,93.1 747.6,93.2 748.5,93.2 749.3,93.2 750.1,93.2 751.0,93.2 751.8,93.2 752.7,93.2 753.5,93.2 754.3,93.2 755.1,93.2 756.0,93.2 756.8,93.2 757.6,93.2 758.5,93.2 759.3,93.2 760.1,93.3 761.0,93.3 761.8,93.3 762.6,93.3 763.5,93.3 764.3,93.3 765.1,93.3 765.9,93.3 766.8,93.3 767.6,93.3 768.4,93.3 769.2,93.3 770.1,93.3 770.9,93.3 771.7,93.3 772.6,93.3 773.4,93.3 774.2,93.3 775.0,93.3 775.8,93.3 776.6,93.4 777.5,93.4 778.3,93.4 779.1,93.4 779.9,93.4 780.7,93.4 781.5,93.4 782.4,93.4 783.2,93.4 784.0,93.4 784.8,93.4 785.6,93.4 786.5,93.4 787.3,93.4 788.1,93.4 788.9,93.4 789.7,93.4 790.5,93.4 791.3,93.4 792.2,93.4 793.0,93.4 793.8,93.4 794.6,93.4 795.4,93.5 796.2,93.5 797.0,93.5 797.8,93.5 798.6,93.5 799.5,93.5 L799.5,93.5 L438.5,93.5 Z" fill="url(#g165)" clip-path="url(#c167)"/>
  <path d="M438.5,93.5 438.5,93.5 471.8,93.6 491.3,93.6 505.1,93.6 515.8,93.6 524.6,93.7 532.0,93.7 538.4,93.7 544.1,93.7 549.1,93.8 553.7,93.8 557.9,93.8 561.7,93.9 565.3,93.9 568.6,93.9 571.7,93.9 574.6,94.0 577.3,94.0 579.9,94.0 582.4,94.1 584.7,94.1 587.0,94.1 589.1,94.1 591.2,94.2 593.1,94.2 595.0,94.2 596.8,94.3 598.6,94.3 600.2,94.4 601.9,94.4 603.4,94.4 605.0,94.5 606.5,94.5 607.9,94.5 609.3,94.6 610.6,94.6 611.9,94.7 613.2,94.7 614.5,94.8 615.7,94.8 616.9,94.8 618.0,94.9 619.2,94.9 620.3,95.0 621.3,95.1 622.4,95.1 623.4,95.2 624.4,95.2 625.4,95.3 626.4,95.4 627.4,95.4 628.3,95.5 629.2,95.6 630.1,95.7 631.0,95.7 631.8,95.8 632.7,95.9 633.5,96.0 634.4,96.1 635.2,96.2 636.7,96.4 638.3,96.7 639.7,97.0 641.2,97.4 642.6,97.7 643.9,98.2 645.2,98.8 646.5,99.5 647.8,100.3 649.0,101.4 650.2,102.9 651.3,104.8 652.4,107.7 653.6,111.9 654.6,118.3 655.7,127.6 656.7,60.6 657.7,69.2 658.7,75.0 659.7,78.9 660.6,81.5 661.6,83.3 662.5,84.6 663.4,85.7 664.3,86.5 665.1,87.1 666.0,87.7 666.8,88.1 667.6,88.5 668.4,88.8 669.6,89.2 670.8,89.6 671.9,89.9 673.0,90.1 674.1,90.3 675.2,90.5 676.2,90.7 677.2,90.8 678.2,90.9 679.2,91.0 680.1,91.2 681.0,91.2 682.0,91.3 682.9,91.4 683.7,91.5 684.6,91.6 685.5,91.6 686.3,91.7 687.1,91.7 687.9,91.8 689.0,91.8 690.0,91.9 691.0,92.0 692.0,92.0 693.0,92.1 693.9,92.1 694.9,92.1 695.8,92.2 696.7,92.2 697.6,92.2 698.4,92.3 699.3,92.3 700.1,92.3 700.9,92.4 701.7,92.4 702.7,92.4 703.7,92.5 704.6,92.5 705.6,92.5 706.5,92.5 707.4,92.6 708.3,92.6 709.1,92.6 710.0,92.6 710.8,92.6 711.6,92.7 712.4,92.7 713.4,92.7 714.3,92.7 715.2,92.7 716.1,92.7 717.0,92.8 717.9,92.8 718.7,92.8 719.6,92.8 720.4,92.8 721.2,92.8 722.1,92.9 723.0,92.9 723.9,92.9 724.8,92.9 725.7,92.9 726.5,92.9 727.3,92.9 728.1,92.9 728.9,93.0 729.8,93.0 730.7,93.0 731.6,93.0 732.4,93.0 733.3,93.0 734.1,93.0 734.9,93.0 735.8,93.0 736.7,93.0 737.5,93.1 738.4,93.1 739.2,93.1 740.0,93.1 740.8,93.1 741.7,93.1 742.6,93.1 743.4,93.1 744.3,93.1 745.1,93.1 745.9,93.1 746.8,93.1 747.6,93.2 748.5,93.2 749.3,93.2 750.1,93.2 751.0,93.2 751.8,93.2 752.7,93.2 753.5,93.2 754.3,93.2 755.1,93.2 756.0,93.2 756.8,93.2 757.6,93.2 758.5,93.2 759.3,93.2 760.1,93.3 761.0,93.3 761.8,93.3 762.6,93.3 763.5,93.3 764.3,93.3 765.1,93.3 765.9,93.3 766.8,93.3 767.6,93.3 768.4,93.3 769.2,93.3 770.1,93.3 770.9,93.3 771.7,93.3 772.6,93.3 773.4,93.3 774.2,93.3 775.0,93.3 775.8,93.3 776.6,93.4 777.5,93.4 778.3,93.4 779.1,93.4 779.9,93.4 780.7,93.4 781.5,93.4 782.4,93.4 783.2,93.4 784.0,93.4 784.8,93.4 785.6,93.4 786.5,93.4 787.3,93.4 788.1,93.4 788.9,93.4 789.7,93.4 790.5,93.4 791.3,93.4 792.2,93.4 793.0,93.4 793.8,93.4 794.6,93.4 795.4,93.5 796.2,93.5 797.0,93.5 797.8,93.5 798.6,93.5 799.5,93.5 L799.5,93.5 L438.5,93.5 Z" fill="url(#g166)" clip-path="url(#c168)"/>
  <defs><clipPath id="pc169"><rect x="435" y="16" width="365" height="155"/></clipPath></defs>
  <polyline points="438.5,93.5 471.8,93.6 491.3,93.6 505.1,93.6 515.8,93.6 524.6,93.7 532.0,93.7 538.4,93.7 544.1,93.7 549.1,93.8 553.7,93.8 557.9,93.8 561.7,93.9 565.3,93.9 568.6,93.9 571.7,93.9 574.6,94.0 577.3,94.0 579.9,94.0 582.4,94.1 584.7,94.1 587.0,94.1 589.1,94.1 591.2,94.2 593.1,94.2 595.0,94.2 596.8,94.3 598.6,94.3 600.2,94.4 601.9,94.4 603.4,94.4 605.0,94.5 606.5,94.5 607.9,94.5 609.3,94.6 610.6,94.6 611.9,94.7 613.2,94.7 614.5,94.8 615.7,94.8 616.9,94.8 618.0,94.9 619.2,94.9 620.3,95.0 621.3,95.1 622.4,95.1 623.4,95.2 624.4,95.2 625.4,95.3 626.4,95.4 627.4,95.4 628.3,95.5 629.2,95.6 630.1,95.7 631.0,95.7 631.8,95.8 632.7,95.9 633.5,96.0 634.4,96.1 635.2,96.2 636.7,96.4 638.3,96.7 639.7,97.0 641.2,97.4 642.6,97.7 643.9,98.2 645.2,98.8 646.5,99.5 647.8,100.3 649.0,101.4 650.2,102.9 651.3,104.8 652.4,107.7 653.6,111.9 654.6,118.3 655.7,127.6 656.7,60.6 657.7,69.2 658.7,75.0 659.7,78.9 660.6,81.5 661.6,83.3 662.5,84.6 663.4,85.7 664.3,86.5 665.1,87.1 666.0,87.7 666.8,88.1 667.6,88.5 668.4,88.8 669.6,89.2 670.8,89.6 671.9,89.9 673.0,90.1 674.1,90.3 675.2,90.5 676.2,90.7 677.2,90.8 678.2,90.9 679.2,91.0 680.1,91.2 681.0,91.2 682.0,91.3 682.9,91.4 683.7,91.5 684.6,91.6 685.5,91.6 686.3,91.7 687.1,91.7 687.9,91.8 689.0,91.8 690.0,91.9 691.0,92.0 692.0,92.0 693.0,92.1 693.9,92.1 694.9,92.1 695.8,92.2 696.7,92.2 697.6,92.2 698.4,92.3 699.3,92.3 700.1,92.3 700.9,92.4 701.7,92.4 702.7,92.4 703.7,92.5 704.6,92.5 705.6,92.5 706.5,92.5 707.4,92.6 708.3,92.6 709.1,92.6 710.0,92.6 710.8,92.6 711.6,92.7 712.4,92.7 713.4,92.7 714.3,92.7 715.2,92.7 716.1,92.7 717.0,92.8 717.9,92.8 718.7,92.8 719.6,92.8 720.4,92.8 721.2,92.8 722.1,92.9 723.0,92.9 723.9,92.9 724.8,92.9 725.7,92.9 726.5,92.9 727.3,92.9 728.1,92.9 728.9,93.0 729.8,93.0 730.7,93.0 731.6,93.0 732.4,93.0 733.3,93.0 734.1,93.0 734.9,93.0 735.8,93.0 736.7,93.0 737.5,93.1 738.4,93.1 739.2,93.1 740.0,93.1 740.8,93.1 741.7,93.1 742.6,93.1 743.4,93.1 744.3,93.1 745.1,93.1 745.9,93.1 746.8,93.1 747.6,93.2 748.5,93.2 749.3,93.2 750.1,93.2 751.0,93.2 751.8,93.2 752.7,93.2 753.5,93.2 754.3,93.2 755.1,93.2 756.0,93.2 756.8,93.2 757.6,93.2 758.5,93.2 759.3,93.2 760.1,93.3 761.0,93.3 761.8,93.3 762.6,93.3 763.5,93.3 764.3,93.3 765.1,93.3 765.9,93.3 766.8,93.3 767.6,93.3 768.4,93.3 769.2,93.3 770.1,93.3 770.9,93.3 771.7,93.3 772.6,93.3 773.4,93.3 774.2,93.3 775.0,93.3 775.8,93.3 776.6,93.4 777.5,93.4 778.3,93.4 779.1,93.4 779.9,93.4 780.7,93.4 781.5,93.4 782.4,93.4 783.2,93.4 784.0,93.4 784.8,93.4 785.6,93.4 786.5,93.4 787.3,93.4 788.1,93.4 788.9,93.4 789.7,93.4 790.5,93.4 791.3,93.4 792.2,93.4 793.0,93.4 793.8,93.4 794.6,93.4 795.4,93.5 796.2,93.5 797.0,93.5 797.8,93.5 798.6,93.5 799.5,93.5" fill="none" stroke="#e74c3c" stroke-width="1.5" stroke-linejoin="round" clip-path="url(#pc169)"/>
  <line x1="34" y1="207" x2="34" y2="362" stroke="#d1d5db"/>
  <line x1="34" y1="284.5" x2="399" y2="284.5" stroke="#d1d5db"/>
  <text x="216.5" y="388" text-anchor="middle" font-size="9" fill="#6b7280">Hz</text>
  <text x="12" y="284.5" text-anchor="middle" font-size="9" fill="#6b7280" transform="rotate(-90 12 284.5)">Group delay</text>
  <line x1="67.3" y1="207" x2="67.3" y2="362" stroke="#e5e7eb" stroke-width="0.5"/>
  <line x1="86.8" y1="207" x2="86.8" y2="362" stroke="#e5e7eb" stroke-width="0.5"/>
  <line x1="100.6" y1="207" x2="100.6" y2="362" stroke="#e5e7eb" stroke-width="0.5"/>
  <line x1="111.3" y1="207" x2="111.3" y2="362" stroke="#e5e7eb" stroke-width="0.5"/>
  <line x1="120.0" y1="207" x2="120.0" y2="362" stroke="#e5e7eb" stroke-width="0.5"/>
  <line x1="127.4" y1="207" x2="127.4" y2="362" stroke="#e5e7eb" stroke-width="0.5"/>
  <line x1="133.9" y1="207" x2="133.9" y2="362" stroke="#e5e7eb" stroke-width="0.5"/>
  <line x1="139.5" y1="207" x2="139.5" y2="362" stroke="#e5e7eb" stroke-width="0.5"/>
  <line x1="177.9" y1="207" x2="177.9" y2="362" stroke="#e5e7eb" stroke-width="0.5"/>
  <line x1="197.3" y1="207" x2="197.3" y2="362" stroke="#e5e7eb" stroke-width="0.5"/>
  <line x1="211.1" y1="207" x2="211.1" y2="362" stroke="#e5e7eb" stroke-width="0.5"/>
  <line x1="221.9" y1="207" x2="221.9" y2="362" stroke="#e5e7eb" stroke-width="0.5"/>
  <line x1="230.6" y1="207" x2="230.6" y2="362" stroke="#e5e7eb" stroke-width="0.5"/>
  <line x1="238.0" y1="207" x2="238.0" y2="362" stroke="#e5e7eb" stroke-width="0.5"/>
  <line x1="244.4" y1="207" x2="244.4" y2="362" stroke="#e5e7eb" stroke-width="0.5"/>
  <line x1="250.1" y1="207" x2="250.1" y2="362" stroke="#e5e7eb" stroke-width="0.5"/>
  <line x1="288.4" y1="207" x2="288.4" y2="362" stroke="#e5e7eb" stroke-width="0.5"/>
  <line x1="307.9" y1="207" x2="307.9" y2="362" stroke="#e5e7eb" stroke-width="0.5"/>
  <line x1="321.7" y1="207" x2="321.7" y2="362" stroke="#e5e7eb" stroke-width="0.5"/>
  <line x1="332.4" y1="207" x2="332.4" y2="362" stroke="#e5e7eb" stroke-width="0.5"/>
  <line x1="341.2" y1="207" x2="341.2" y2="362" stroke="#e5e7eb" stroke-width="0.5"/>
  <line x1="348.6" y1="207" x2="348.6" y2="362" stroke="#e5e7eb" stroke-width="0.5"/>
  <line x1="355.0" y1="207" x2="355.0" y2="362" stroke="#e5e7eb" stroke-width="0.5"/>
  <line x1="360.7" y1="207" x2="360.7" y2="362" stroke="#e5e7eb" stroke-width="0.5"/>
  <line x1="399.0" y1="207" x2="399.0" y2="362" stroke="#e5e7eb" stroke-width="0.5"/>
  <line x1="144.6" y1="207" x2="144.6" y2="362" stroke="#e5e7eb" stroke-width="0.5"/>
  <text x="144.6" y="374" text-anchor="middle" font-size="8" fill="#6b7280">100</text>
  <line x1="255.1" y1="207" x2="255.1" y2="362" stroke="#e5e7eb" stroke-width="0.5"/>
  <text x="255.1" y="374" text-anchor="middle" font-size="8" fill="#6b7280">1k</text>
  <line x1="365.7" y1="207" x2="365.7" y2="362" stroke="#e5e7eb" stroke-width="0.5"/>
  <text x="365.7" y="374" text-anchor="middle" font-size="8" fill="#6b7280">10k</text>
  <line x1="34" y1="328.5" x2="399" y2="328.5" stroke="#e5e7eb" stroke-width="0.5"/>
  <text x="30" y="331.5" text-anchor="end" font-size="8" fill="#6b7280">-4000</text>
  <text x="30" y="287.5" text-anchor="end" font-size="8" fill="#6b7280">0</text>
  <line x1="34" y1="240.5" x2="399" y2="240.5" stroke="#e5e7eb" stroke-width="0.5"/>
  <text x="30" y="243.5" text-anchor="end" font-size="8" fill="#6b7280">4000</text>
  <line x1="255.1" y1="207" x2="255.1" y2="362" stroke="#d1d5db" stroke-width="1" stroke-dasharray="4 3"/>
  <defs><linearGradient id="g170" x1="0" y1="207" x2="0" y2="284.5" gradientUnits="userSpaceOnUse">
    <stop offset="0%" stop-color="#2ecc71" stop-opacity="0.15"/>
    <stop offset="100%" stop-color="#2ecc71" stop-opacity="0.02"/>
  </linearGradient></defs>
  <defs><linearGradient id="g171" x1="0" y1="362" x2="0" y2="284.5" gradientUnits="userSpaceOnUse">
    <stop offset="0%" stop-color="#2ecc71" stop-opacity="0.15"/>
    <stop offset="100%" stop-color="#2ecc71" stop-opacity="0.02"/>
  </linearGradient></defs>
  <defs><clipPath id="c172"><rect x="34" y="207" width="365" height="77.5"/></clipPath></defs>
  <defs><clipPath id="c173"><rect x="34" y="284.5" width="365" height="77.5"/></clipPath></defs>
  <path d="M37.5,284.5 37.5,284.5 70.8,284.5 90.3,284.5 104.1,284.5 114.8,284.5 123.6,284.5 131.0,284.5 137.4,284.5 143.1,284.5 148.1,284.5 152.7,284.5 156.9,284.5 160.7,284.5 164.3,284.5 167.6,284.5 170.7,284.5 173.6,284.5 176.3,284.5 178.9,284.5 181.4,284.5 183.7,284.5 186.0,284.5 188.1,284.5 190.2,284.5 192.1,284.5 194.0,284.5 195.8,284.5 197.6,284.5 199.2,284.5 200.9,284.5 202.4,284.5 204.0,284.5 205.5,284.5 206.9,284.5 208.3,284.5 209.6,284.5 210.9,284.5 212.2,284.5 213.5,284.5 214.7,284.5 215.9,284.5 217.0,284.5 218.2,284.5 219.3,284.5 220.3,284.5 221.4,284.5 222.4,284.5 223.4,284.5 224.4,284.5 225.4,284.5 226.4,284.5 227.3,284.5 228.2,284.5 229.1,284.5 230.0,284.5 230.8,284.5 231.7,284.5 232.5,284.5 233.4,284.5 234.2,284.5 235.7,284.5 237.3,284.5 238.7,284.5 240.2,284.5 241.6,284.5 242.9,284.5 244.2,284.5 245.5,284.5 246.8,284.5 248.0,284.6 249.2,284.6 250.3,284.7 251.4,284.8 252.6,285.2 253.6,286.3 254.7,292.4 255.7,278.5 256.7,282.9 257.7,283.9 258.7,284.2 259.6,284.3 260.6,284.4 261.5,284.4 262.4,284.5 263.3,284.5 264.1,284.5 265.0,284.5 265.8,284.5 266.6,284.5 267.4,284.5 268.6,284.5 269.8,284.5 270.9,284.5 272.0,284.5 273.1,284.5 274.2,284.5 275.2,284.5 276.2,284.5 277.2,284.5 278.2,284.5 279.1,284.5 280.0,284.5 281.0,284.5 281.9,284.5 282.7,284.5 283.6,284.5 284.5,284.5 285.3,284.5 286.1,284.5 286.9,284.5 288.0,284.5 289.0,284.5 290.0,284.5 291.0,284.5 292.0,284.5 292.9,284.5 293.9,284.5 294.8,284.5 295.7,284.5 296.6,284.5 297.4,284.5 298.3,284.5 299.1,284.5 299.9,284.5 300.7,284.5 301.7,284.5 302.7,284.5 303.6,284.5 304.6,284.5 305.5,284.5 306.4,284.5 307.3,284.5 308.1,284.5 309.0,284.5 309.8,284.5 310.6,284.5 311.4,284.5 312.4,284.5 313.3,284.5 314.2,284.5 315.1,284.5 316.0,284.5 316.9,284.5 317.7,284.5 318.6,284.5 319.4,284.5 320.2,284.5 321.1,284.5 322.0,284.5 322.9,284.5 323.8,284.5 324.7,284.5 325.5,284.5 326.3,284.5 327.1,284.5 327.9,284.5 328.8,284.5 329.7,284.5 330.6,284.5 331.4,284.5 332.3,284.5 333.1,284.5 333.9,284.5 334.8,284.5 335.7,284.5 336.5,284.5 337.4,284.5 338.2,284.5 339.0,284.5 339.8,284.5 340.7,284.5 341.6,284.5 342.4,284.5 343.3,284.5 344.1,284.5 344.9,284.5 345.8,284.5 346.6,284.5 347.5,284.5 348.3,284.5 349.1,284.5 350.0,284.5 350.8,284.5 351.7,284.5 352.5,284.5 353.3,284.5 354.1,284.5 355.0,284.5 355.8,284.5 356.6,284.5 357.5,284.5 358.3,284.5 359.1,284.5 360.0,284.5 360.8,284.5 361.6,284.5 362.5,284.5 363.3,284.5 364.1,284.5 364.9,284.5 365.8,284.5 366.6,284.5 367.4,284.5 368.2,284.5 369.1,284.5 369.9,284.5 370.7,284.5 371.6,284.5 372.4,284.5 373.2,284.5 374.0,284.5 374.8,284.5 375.6,284.5 376.5,284.5 377.3,284.5 378.1,284.5 378.9,284.5 379.7,284.5 380.5,284.5 381.4,284.5 382.2,284.5 383.0,284.5 383.8,284.5 384.6,284.5 385.5,284.5 386.3,284.5 387.1,284.5 387.9,284.5 388.7,284.5 389.5,284.5 390.3,284.5 391.2,284.5 392.0,284.5 392.8,284.5 393.6,284.5 394.4,284.5 395.2,284.5 396.0,284.5 396.8,284.5 397.6,284.5 398.5,284.5 L398.5,284.5 L37.5,284.5 Z" fill="url(#g170)" clip-path="url(#c172)"/>
  <path d="M37.5,284.5 37.5,284.5 70.8,284.5 90.3,284.5 104.1,284.5 114.8,284.5 123.6,284.5 131.0,284.5 137.4,284.5 143.1,284.5 148.1,284.5 152.7,284.5 156.9,284.5 160.7,284.5 164.3,284.5 167.6,284.5 170.7,284.5 173.6,284.5 176.3,284.5 178.9,284.5 181.4,284.5 183.7,284.5 186.0,284.5 188.1,284.5 190.2,284.5 192.1,284.5 194.0,284.5 195.8,284.5 197.6,284.5 199.2,284.5 200.9,284.5 202.4,284.5 204.0,284.5 205.5,284.5 206.9,284.5 208.3,284.5 209.6,284.5 210.9,284.5 212.2,284.5 213.5,284.5 214.7,284.5 215.9,284.5 217.0,284.5 218.2,284.5 219.3,284.5 220.3,284.5 221.4,284.5 222.4,284.5 223.4,284.5 224.4,284.5 225.4,284.5 226.4,284.5 227.3,284.5 228.2,284.5 229.1,284.5 230.0,284.5 230.8,284.5 231.7,284.5 232.5,284.5 233.4,284.5 234.2,284.5 235.7,284.5 237.3,284.5 238.7,284.5 240.2,284.5 241.6,284.5 242.9,284.5 244.2,284.5 245.5,284.5 246.8,284.5 248.0,284.6 249.2,284.6 250.3,284.7 251.4,284.8 252.6,285.2 253.6,286.3 254.7,292.4 255.7,278.5 256.7,282.9 257.7,283.9 258.7,284.2 259.6,284.3 260.6,284.4 261.5,284.4 262.4,284.5 263.3,284.5 264.1,284.5 265.0,284.5 265.8,284.5 266.6,284.5 267.4,284.5 268.6,284.5 269.8,284.5 270.9,284.5 272.0,284.5 273.1,284.5 274.2,284.5 275.2,284.5 276.2,284.5 277.2,284.5 278.2,284.5 279.1,284.5 280.0,284.5 281.0,284.5 281.9,284.5 282.7,284.5 283.6,284.5 284.5,284.5 285.3,284.5 286.1,284.5 286.9,284.5 288.0,284.5 289.0,284.5 290.0,284.5 291.0,284.5 292.0,284.5 292.9,284.5 293.9,284.5 294.8,284.5 295.7,284.5 296.6,284.5 297.4,284.5 298.3,284.5 299.1,284.5 299.9,284.5 300.7,284.5 301.7,284.5 302.7,284.5 303.6,284.5 304.6,284.5 305.5,284.5 306.4,284.5 307.3,284.5 308.1,284.5 309.0,284.5 309.8,284.5 310.6,284.5 311.4,284.5 312.4,284.5 313.3,284.5 314.2,284.5 315.1,284.5 316.0,284.5 316.9,284.5 317.7,284.5 318.6,284.5 319.4,284.5 320.2,284.5 321.1,284.5 322.0,284.5 322.9,284.5 323.8,284.5 324.7,284.5 325.5,284.5 326.3,284.5 327.1,284.5 327.9,284.5 328.8,284.5 329.7,284.5 330.6,284.5 331.4,284.5 332.3,284.5 333.1,284.5 333.9,284.5 334.8,284.5 335.7,284.5 336.5,284.5 337.4,284.5 338.2,284.5 339.0,284.5 339.8,284.5 340.7,284.5 341.6,284.5 342.4,284.5 343.3,284.5 344.1,284.5 344.9,284.5 345.8,284.5 346.6,284.5 347.5,284.5 348.3,284.5 349.1,284.5 350.0,284.5 350.8,284.5 351.7,284.5 352.5,284.5 353.3,284.5 354.1,284.5 355.0,284.5 355.8,284.5 356.6,284.5 357.5,284.5 358.3,284.5 359.1,284.5 360.0,284.5 360.8,284.5 361.6,284.5 362.5,284.5 363.3,284.5 364.1,284.5 364.9,284.5 365.8,284.5 366.6,284.5 367.4,284.5 368.2,284.5 369.1,284.5 369.9,284.5 370.7,284.5 371.6,284.5 372.4,284.5 373.2,284.5 374.0,284.5 374.8,284.5 375.6,284.5 376.5,284.5 377.3,284.5 378.1,284.5 378.9,284.5 379.7,284.5 380.5,284.5 381.4,284.5 382.2,284.5 383.0,284.5 383.8,284.5 384.6,284.5 385.5,284.5 386.3,284.5 387.1,284.5 387.9,284.5 388.7,284.5 389.5,284.5 390.3,284.5 391.2,284.5 392.0,284.5 392.8,284.5 393.6,284.5 394.4,284.5 395.2,284.5 396.0,284.5 396.8,284.5 397.6,284.5 398.5,284.5 L398.5,284.5 L37.5,284.5 Z" fill="url(#g171)" clip-path="url(#c173)"/>
  <defs><clipPath id="pc174"><rect x="34" y="207" width="365" height="155"/></clipPath></defs>
  <polyline points="37.5,284.5 70.8,284.5 90.3,284.5 104.1,284.5 114.8,284.5 123.6,284.5 131.0,284.5 137.4,284.5 143.1,284.5 148.1,284.5 152.7,284.5 156.9,284.5 160.7,284.5 164.3,284.5 167.6,284.5 170.7,284.5 173.6,284.5 176.3,284.5 178.9,284.5 181.4,284.5 183.7,284.5 186.0,284.5 188.1,284.5 190.2,284.5 192.1,284.5 194.0,284.5 195.8,284.5 197.6,284.5 199.2,284.5 200.9,284.5 202.4,284.5 204.0,284.5 205.5,284.5 206.9,284.5 208.3,284.5 209.6,284.5 210.9,284.5 212.2,284.5 213.5,284.5 214.7,284.5 215.9,284.5 217.0,284.5 218.2,284.5 219.3,284.5 220.3,284.5 221.4,284.5 222.4,284.5 223.4,284.5 224.4,284.5 225.4,284.5 226.4,284.5 227.3,284.5 228.2,284.5 229.1,284.5 230.0,284.5 230.8,284.5 231.7,284.5 232.5,284.5 233.4,284.5 234.2,284.5 235.7,284.5 237.3,284.5 238.7,284.5 240.2,284.5 241.6,284.5 242.9,284.5 244.2,284.5 245.5,284.5 246.8,284.5 248.0,284.6 249.2,284.6 250.3,284.7 251.4,284.8 252.6,285.2 253.6,286.3 254.7,292.4 255.7,278.5 256.7,282.9 257.7,283.9 258.7,284.2 259.6,284.3 260.6,284.4 261.5,284.4 262.4,284.5 263.3,284.5 264.1,284.5 265.0,284.5 265.8,284.5 266.6,284.5 267.4,284.5 268.6,284.5 269.8,284.5 270.9,284.5 272.0,284.5 273.1,284.5 274.2,284.5 275.2,284.5 276.2,284.5 277.2,284.5 278.2,284.5 279.1,284.5 280.0,284.5 281.0,284.5 281.9,284.5 282.7,284.5 283.6,284.5 284.5,284.5 285.3,284.5 286.1,284.5 286.9,284.5 288.0,284.5 289.0,284.5 290.0,284.5 291.0,284.5 292.0,284.5 292.9,284.5 293.9,284.5 294.8,284.5 295.7,284.5 296.6,284.5 297.4,284.5 298.3,284.5 299.1,284.5 299.9,284.5 300.7,284.5 301.7,284.5 302.7,284.5 303.6,284.5 304.6,284.5 305.5,284.5 306.4,284.5 307.3,284.5 308.1,284.5 309.0,284.5 309.8,284.5 310.6,284.5 311.4,284.5 312.4,284.5 313.3,284.5 314.2,284.5 315.1,284.5 316.0,284.5 316.9,284.5 317.7,284.5 318.6,284.5 319.4,284.5 320.2,284.5 321.1,284.5 322.0,284.5 322.9,284.5 323.8,284.5 324.7,284.5 325.5,284.5 326.3,284.5 327.1,284.5 327.9,284.5 328.8,284.5 329.7,284.5 330.6,284.5 331.4,284.5 332.3,284.5 333.1,284.5 333.9,284.5 334.8,284.5 335.7,284.5 336.5,284.5 337.4,284.5 338.2,284.5 339.0,284.5 339.8,284.5 340.7,284.5 341.6,284.5 342.4,284.5 343.3,284.5 344.1,284.5 344.9,284.5 345.8,284.5 346.6,284.5 347.5,284.5 348.3,284.5 349.1,284.5 350.0,284.5 350.8,284.5 351.7,284.5 352.5,284.5 353.3,284.5 354.1,284.5 355.0,284.5 355.8,284.5 356.6,284.5 357.5,284.5 358.3,284.5 359.1,284.5 360.0,284.5 360.8,284.5 361.6,284.5 362.5,284.5 363.3,284.5 364.1,284.5 364.9,284.5 365.8,284.5 366.6,284.5 367.4,284.5 368.2,284.5 369.1,284.5 369.9,284.5 370.7,284.5 371.6,284.5 372.4,284.5 373.2,284.5 374.0,284.5 374.8,284.5 375.6,284.5 376.5,284.5 377.3,284.5 378.1,284.5 378.9,284.5 379.7,284.5 380.5,284.5 381.4,284.5 382.2,284.5 383.0,284.5 383.8,284.5 384.6,284.5 385.5,284.5 386.3,284.5 387.1,284.5 387.9,284.5 388.7,284.5 389.5,284.5 390.3,284.5 391.2,284.5 392.0,284.5 392.8,284.5 393.6,284.5 394.4,284.5 395.2,284.5 396.0,284.5 396.8,284.5 397.6,284.5 398.5,284.5" fill="none" stroke="#2ecc71" stroke-width="1.5" stroke-linejoin="round" clip-path="url(#pc174)"/>
  <line x1="435" y1="207" x2="435" y2="362" stroke="#d1d5db"/>
  <line x1="435" y1="284.5" x2="800" y2="284.5" stroke="#d1d5db"/>
  <text x="617.5" y="388" text-anchor="middle" font-size="9" fill="#6b7280">Samples</text>
  <text x="413" y="284.5" text-anchor="middle" font-size="9" fill="#6b7280" transform="rotate(-90 413 284.5)">Impulse response</text>
  <line x1="435.0" y1="207" x2="435.0" y2="362" stroke="#e5e7eb" stroke-width="0.5"/>
  <text x="435.0" y="374" text-anchor="middle" font-size="8" fill="#6b7280">0</text>
  <line x1="526.3" y1="207" x2="526.3" y2="362" stroke="#e5e7eb" stroke-width="0.5"/>
  <text x="526.3" y="374" text-anchor="middle" font-size="8" fill="#6b7280">32</text>
  <line x1="617.5" y1="207" x2="617.5" y2="362" stroke="#e5e7eb" stroke-width="0.5"/>
  <text x="617.5" y="374" text-anchor="middle" font-size="8" fill="#6b7280">64</text>
  <line x1="708.8" y1="207" x2="708.8" y2="362" stroke="#e5e7eb" stroke-width="0.5"/>
  <text x="708.8" y="374" text-anchor="middle" font-size="8" fill="#6b7280">96</text>
  <line x1="800.0" y1="207" x2="800.0" y2="362" stroke="#e5e7eb" stroke-width="0.5"/>
  <text x="800.0" y="374" text-anchor="middle" font-size="8" fill="#6b7280">128</text>
  <line x1="435" y1="339.1" x2="800" y2="339.1" stroke="#e5e7eb" stroke-width="0.5"/>
  <text x="431" y="342.1" text-anchor="end" font-size="8" fill="#6b7280">-0.7</text>
  <text x="431" y="287.5" text-anchor="end" font-size="8" fill="#6b7280">0</text>
  <line x1="435" y1="229.9" x2="800" y2="229.9" stroke="#e5e7eb" stroke-width="0.5"/>
  <text x="431" y="232.9" text-anchor="end" font-size="8" fill="#6b7280">0.7</text>
  <defs><linearGradient id="g175" x1="0" y1="207" x2="0" y2="284.5" gradientUnits="userSpaceOnUse">
    <stop offset="0%" stop-color="#f39c12" stop-opacity="0.15"/>
    <stop offset="100%" stop-color="#f39c12" stop-opacity="0.02"/>
  </linearGradient></defs>
  <defs><linearGradient id="g176" x1="0" y1="362" x2="0" y2="284.5" gradientUnits="userSpaceOnUse">
    <stop offset="0%" stop-color="#f39c12" stop-opacity="0.15"/>
    <stop offset="100%" stop-color="#f39c12" stop-opacity="0.02"/>
  </linearGradient></defs>
  <defs><clipPath id="c177"><rect x="435" y="207" width="365" height="77.5"/></clipPath></defs>
  <defs><clipPath id="c178"><rect x="435" y="284.5" width="365" height="77.5"/></clipPath></defs>
  <path d="M435.0,207.0 435.0,207.0 437.9,285.6 440.7,285.5 443.6,285.5 446.4,285.4 449.3,285.3 452.1,285.2 455.0,285.0 457.8,284.9 460.7,284.7 463.5,284.6 466.4,284.5 469.2,284.3 472.1,284.2 474.9,284.0 477.8,283.9 480.6,283.8 483.5,283.7 486.3,283.7 489.2,283.6 492.0,283.6 494.9,283.5 497.7,283.6 500.6,283.6 503.4,283.6 506.3,283.7 509.1,283.7 512.0,283.8 514.8,283.9 517.7,284.0 520.5,284.2 523.4,284.3 526.3,284.4 529.1,284.5 532.0,284.7 534.8,284.8 537.7,284.9 540.5,285.0 543.4,285.1 546.2,285.2 549.1,285.2 551.9,285.3 554.8,285.3 557.6,285.3 560.5,285.3 563.3,285.3 566.2,285.3 569.0,285.2 571.9,285.2 574.7,285.1 577.6,285.0 580.4,284.9 583.3,284.8 586.1,284.7 589.0,284.6 591.8,284.5 594.7,284.4 597.5,284.3 600.4,284.2 603.2,284.1 606.1,284.0 608.9,283.9 611.8,283.9 614.6,283.8 617.5,283.8 620.4,283.8 623.2,283.8 626.1,283.8 628.9,283.8 631.8,283.9 634.6,283.9 637.5,284.0 640.3,284.1 643.2,284.1 646.0,284.2 648.9,284.3 651.7,284.4 654.6,284.5 657.4,284.6 660.3,284.7 663.1,284.8 666.0,284.8 668.8,284.9 671.7,285.0 674.5,285.0 677.4,285.1 680.2,285.1 683.1,285.1 685.9,285.1 688.8,285.1 691.6,285.1 694.5,285.0 697.3,285.0 700.2,284.9 703.0,284.9 705.9,284.8 708.8,284.7 711.6,284.7 714.5,284.6 717.3,284.5 720.2,284.4 723.0,284.3 725.9,284.3 728.7,284.2 731.6,284.2 734.4,284.1 737.3,284.1 740.1,284.0 743.0,284.0 745.8,284.0 748.7,284.0 751.5,284.0 754.4,284.0 757.2,284.0 760.1,284.1 762.9,284.1 765.8,284.2 768.6,284.2 771.5,284.3 774.3,284.4 777.2,284.4 780.0,284.5 782.9,284.6 785.7,284.6 788.6,284.7 791.4,284.7 794.3,284.8 797.1,284.8 L797.1,284.5 L435.0,284.5 Z" fill="url(#g175)" clip-path="url(#c177)"/>
  <path d="M435.0,207.0 435.0,207.0 437.9,285.6 440.7,285.5 443.6,285.5 446.4,285.4 449.3,285.3 452.1,285.2 455.0,285.0 457.8,284.9 460.7,284.7 463.5,284.6 466.4,284.5 469.2,284.3 472.1,284.2 474.9,284.0 477.8,283.9 480.6,283.8 483.5,283.7 486.3,283.7 489.2,283.6 492.0,283.6 494.9,283.5 497.7,283.6 500.6,283.6 503.4,283.6 506.3,283.7 509.1,283.7 512.0,283.8 514.8,283.9 517.7,284.0 520.5,284.2 523.4,284.3 526.3,284.4 529.1,284.5 532.0,284.7 534.8,284.8 537.7,284.9 540.5,285.0 543.4,285.1 546.2,285.2 549.1,285.2 551.9,285.3 554.8,285.3 557.6,285.3 560.5,285.3 563.3,285.3 566.2,285.3 569.0,285.2 571.9,285.2 574.7,285.1 577.6,285.0 580.4,284.9 583.3,284.8 586.1,284.7 589.0,284.6 591.8,284.5 594.7,284.4 597.5,284.3 600.4,284.2 603.2,284.1 606.1,284.0 608.9,283.9 611.8,283.9 614.6,283.8 617.5,283.8 620.4,283.8 623.2,283.8 626.1,283.8 628.9,283.8 631.8,283.9 634.6,283.9 637.5,284.0 640.3,284.1 643.2,284.1 646.0,284.2 648.9,284.3 651.7,284.4 654.6,284.5 657.4,284.6 660.3,284.7 663.1,284.8 666.0,284.8 668.8,284.9 671.7,285.0 674.5,285.0 677.4,285.1 680.2,285.1 683.1,285.1 685.9,285.1 688.8,285.1 691.6,285.1 694.5,285.0 697.3,285.0 700.2,284.9 703.0,284.9 705.9,284.8 708.8,284.7 711.6,284.7 714.5,284.6 717.3,284.5 720.2,284.4 723.0,284.3 725.9,284.3 728.7,284.2 731.6,284.2 734.4,284.1 737.3,284.1 740.1,284.0 743.0,284.0 745.8,284.0 748.7,284.0 751.5,284.0 754.4,284.0 757.2,284.0 760.1,284.1 762.9,284.1 765.8,284.2 768.6,284.2 771.5,284.3 774.3,284.4 777.2,284.4 780.0,284.5 782.9,284.6 785.7,284.6 788.6,284.7 791.4,284.7 794.3,284.8 797.1,284.8 L797.1,284.5 L435.0,284.5 Z" fill="url(#g176)" clip-path="url(#c178)"/>
  <defs><clipPath id="pc179"><rect x="435" y="207" width="365" height="155"/></clipPath></defs>
  <polyline points="435.0,207.0 437.9,285.6 440.7,285.5 443.6,285.5 446.4,285.4 449.3,285.3 452.1,285.2 455.0,285.0 457.8,284.9 460.7,284.7 463.5,284.6 466.4,284.5 469.2,284.3 472.1,284.2 474.9,284.0 477.8,283.9 480.6,283.8 483.5,283.7 486.3,283.7 489.2,283.6 492.0,283.6 494.9,283.5 497.7,283.6 500.6,283.6 503.4,283.6 506.3,283.7 509.1,283.7 512.0,283.8 514.8,283.9 517.7,284.0 520.5,284.2 523.4,284.3 526.3,284.4 529.1,284.5 532.0,284.7 534.8,284.8 537.7,284.9 540.5,285.0 543.4,285.1 546.2,285.2 549.1,285.2 551.9,285.3 554.8,285.3 557.6,285.3 560.5,285.3 563.3,285.3 566.2,285.3 569.0,285.2 571.9,285.2 574.7,285.1 577.6,285.0 580.4,284.9 583.3,284.8 586.1,284.7 589.0,284.6 591.8,284.5 594.7,284.4 597.5,284.3 600.4,284.2 603.2,284.1 606.1,284.0 608.9,283.9 611.8,283.9 614.6,283.8 617.5,283.8 620.4,283.8 623.2,283.8 626.1,283.8 628.9,283.8 631.8,283.9 634.6,283.9 637.5,284.0 640.3,284.1 643.2,284.1 646.0,284.2 648.9,284.3 651.7,284.4 654.6,284.5 657.4,284.6 660.3,284.7 663.1,284.8 666.0,284.8 668.8,284.9 671.7,285.0 674.5,285.0 677.4,285.1 680.2,285.1 683.1,285.1 685.9,285.1 688.8,285.1 691.6,285.1 694.5,285.0 697.3,285.0 700.2,284.9 703.0,284.9 705.9,284.8 708.8,284.7 711.6,284.7 714.5,284.6 717.3,284.5 720.2,284.4 723.0,284.3 725.9,284.3 728.7,284.2 731.6,284.2 734.4,284.1 737.3,284.1 740.1,284.0 743.0,284.0 745.8,284.0 748.7,284.0 751.5,284.0 754.4,284.0 757.2,284.0 760.1,284.1 762.9,284.1 765.8,284.2 768.6,284.2 771.5,284.3 774.3,284.4 777.2,284.4 780.0,284.5 782.9,284.6 785.7,284.6 788.6,284.7 791.4,284.7 794.3,284.8 797.1,284.8" fill="none" stroke="#f39c12" stroke-width="1.3" stroke-linejoin="round" clip-path="url(#pc179)"/>
</svg>
