<svg xmlns="http://www.w3.org/2000/svg" viewBox="0 0 820 392" style="font-family:system-ui,-apple-system,sans-serif">
  <text x="800" y="11" text-anchor="end" font-size="11" font-weight="600" fill="#6b7280">Biquad bandpass2, fc=1kHz</text>
  <line x1="34" y1="16" x2="34" y2="171" stroke="#d1d5db"/>
  <line x1="34" y1="47.0" x2="392" y2="47.0" stroke="#d1d5db"/>
  <text x="213" y="197" text-anchor="middle" font-size="9" fill="#6b7280">Hz</text>
  <text x="12" y="93.5" text-anchor="middle" font-size="9" fill="#6b7280" transform="rotate(-90 12 93.5)">dB</text>
  <line x1="66.6" y1="16" x2="66.6" y2="171" stroke="#e5e7eb" stroke-width="0.5"/>
  <line x1="85.7" y1="16" x2="85.7" y2="171" stroke="#e5e7eb" stroke-width="0.5"/>
  <line x1="99.3" y1="16" x2="99.3" y2="171" stroke="#e5e7eb" stroke-width="0.5"/>
  <line x1="109.8" y1="16" x2="109.8" y2="171" stroke="#e5e7eb" stroke-width="0.5"/>
  <line x1="118.4" y1="16" x2="118.4" y2="171" stroke="#e5e7eb" stroke-width="0.5"/>
  <line x1="125.7" y1="16" x2="125.7" y2="171" stroke="#e5e7eb" stroke-width="0.5"/>
  <line x1="131.9" y1="16" x2="131.9" y2="171" stroke="#e5e7eb" stroke-width="0.5"/>
  <line x1="137.5" y1="16" x2="137.5" y2="171" stroke="#e5e7eb" stroke-width="0.5"/>
  <line x1="175.1" y1="16" x2="175.1" y2="171" stroke="#e5e7eb" stroke-width="0.5"/>
  <line x1="194.2" y1="16" x2="194.2" y2="171" stroke="#e5e7eb" stroke-width="0.5"/>
  <line x1="207.7" y1="16" x2="207.7" y2="171" stroke="#e5e7eb" stroke-width="0.5"/>
  <line x1="218.3" y1="16" x2="218.3" y2="171" stroke="#e5e7eb" stroke-width="0.5"/>
  <line x1="226.8" y1="16" x2="226.8" y2="171" stroke="#e5e7eb" stroke-width="0.5"/>
  <line x1="234.1" y1="16" x2="234.1" y2="171" stroke="#e5e7eb" stroke-width="0.5"/>
  <line x1="240.4" y1="16" x2="240.4" y2="171" stroke="#e5e7eb" stroke-width="0.5"/>
  <line x1="245.9" y1="16" x2="245.9" y2="171" stroke="#e5e7eb" stroke-width="0.5"/>
  <line x1="283.5" y1="16" x2="283.5" y2="171" stroke="#e5e7eb" stroke-width="0.5"/>
  <line x1="302.6" y1="16" x2="302.6" y2="171" stroke="#e5e7eb" stroke-width="0.5"/>
  <line x1="316.2" y1="16" x2="316.2" y2="171" stroke="#e5e7eb" stroke-width="0.5"/>
  <line x1="326.7" y1="16" x2="326.7" y2="171" stroke="#e5e7eb" stroke-width="0.5"/>
  <line x1="335.3" y1="16" x2="335.3" y2="171" stroke="#e5e7eb" stroke-width="0.5"/>
  <line x1="342.6" y1="16" x2="342.6" y2="171" stroke="#e5e7eb" stroke-width="0.5"/>
  <line x1="348.8" y1="16" x2="348.8" y2="171" stroke="#e5e7eb" stroke-width="0.5"/>
  <line x1="354.4" y1="16" x2="354.4" y2="171" stroke="#e5e7eb" stroke-width="0.5"/>
  <line x1="392.0" y1="16" x2="392.0" y2="171" stroke="#e5e7eb" stroke-width="0.5"/>
  <line x1="142.5" y1="16" x2="142.5" y2="171" stroke="#e5e7eb" stroke-width="0.5"/>
  <text x="142.5" y="183" text-anchor="middle" font-size="8" fill="#6b7280">100</text>
  <line x1="250.9" y1="16" x2="250.9" y2="171" stroke="#e5e7eb" stroke-width="0.5"/>
  <text x="250.9" y="183" text-anchor="middle" font-size="8" fill="#6b7280">1k</text>
  <line x1="359.4" y1="16" x2="359.4" y2="171" stroke="#e5e7eb" stroke-width="0.5"/>
  <text x="359.4" y="183" text-anchor="middle" font-size="8" fill="#6b7280">10k</text>
  <line x1="34" y1="31.5" x2="392" y2="31.5" stroke="#e5e7eb" stroke-width="0.5"/>
  <line x1="34" y1="62.5" x2="392" y2="62.5" stroke="#e5e7eb" stroke-width="0.5"/>
  <line x1="34" y1="16.0" x2="392" y2="16.0" stroke="#e5e7eb" stroke-width="0.5"/>
  <text x="30" y="19.0" text-anchor="end" font-size="8" fill="#6b7280">+20</text>
  <text x="30" y="50.0" text-anchor="end" font-size="8" fill="#6b7280">0</text>
  <line x1="34" y1="78.0" x2="392" y2="78.0" stroke="#e5e7eb" stroke-width="0.5"/>
  <text x="30" y="81.0" text-anchor="end" font-size="8" fill="#6b7280">-20</text>
  <line x1="34" y1="109.0" x2="392" y2="109.0" stroke="#e5e7eb" stroke-width="0.5"/>
  <text x="30" y="112.0" text-anchor="end" font-size="8" fill="#6b7280">-40</text>
  <line x1="34" y1="140.0" x2="392" y2="140.0" stroke="#e5e7eb" stroke-width="0.5"/>
  <text x="30" y="143.0" text-anchor="end" font-size="8" fill="#6b7280">-60</text>
  <line x1="34" y1="171.0" x2="392" y2="171.0" stroke="#e5e7eb" stroke-width="0.5"/>
  <text x="30" y="174.0" text-anchor="end" font-size="8" fill="#6b7280">-80</text>
  <line x1="250.9" y1="16" x2="250.9" y2="171" stroke="#d1d5db" stroke-width="1" stroke-dasharray="4 3"/>
  <defs><linearGradient id="g222" x1="0" y1="16" x2="0" y2="171" gradientUnits="userSpaceOnUse">
    <stop offset="0%" stop-color="#4a90d9" stop-opacity="0.15"/>
    <stop offset="100%" stop-color="#4a90d9" stop-opacity="0.02"/>
  </linearGradient></defs>
  <path d="M37.5,108.0 37.5,108.0 70.1,98.7 89.2,93.2 102.8,89.4 113.3,86.3 121.9,83.9 129.1,81.8 135.4,80.0 141.0,78.4 145.9,77.0 150.4,75.7 154.5,74.5 158.3,73.4 161.8,72.3 165.0,71.4 168.1,70.5 170.9,69.7 173.6,68.9 176.2,68.1 178.6,67.4 180.9,66.7 183.1,66.0 185.2,65.4 187.2,64.8 189.1,64.2 190.9,63.7 192.7,63.1 194.4,62.6 196.1,62.1 197.7,61.6 199.2,61.1 200.7,60.6 202.2,60.2 203.6,59.7 204.9,59.3 206.3,58.9 207.6,58.4 208.8,58.0 210.0,57.6 211.2,57.3 212.4,56.9 213.5,56.5 214.6,56.1 215.7,55.8 216.8,55.4 217.8,55.1 218.8,54.8 219.8,54.4 220.8,54.1 221.7,53.8 222.7,53.5 223.6,53.2 224.5,52.9 225.4,52.6 226.2,52.3 227.1,52.1 227.9,51.8 228.7,51.5 229.5,51.3 231.1,50.8 232.6,50.3 234.1,49.9 235.5,49.5 236.9,49.1 238.2,48.8 239.6,48.4 240.8,48.2 242.1,47.9 243.3,47.7 244.5,47.5 245.6,47.3 246.7,47.2 247.8,47.1 248.9,47.0 249.9,47.0 251.0,47.0 252.0,47.0 252.9,47.1 253.9,47.1 254.8,47.2 255.8,47.3 256.7,47.4 257.6,47.5 258.4,47.7 259.3,47.8 260.1,48.0 261.0,48.2 261.8,48.3 263.0,48.6 264.1,48.9 265.3,49.2 266.4,49.5 267.5,49.8 268.5,50.1 269.6,50.4 270.6,50.8 271.6,51.1 272.5,51.4 273.5,51.7 274.4,52.0 275.3,52.3 276.2,52.6 277.1,52.9 278.0,53.2 278.8,53.4 279.6,53.7 280.5,54.0 281.3,54.3 282.3,54.6 283.4,54.9 284.4,55.3 285.3,55.6 286.3,55.9 287.3,56.3 288.2,56.6 289.1,56.9 290.0,57.2 290.9,57.4 291.7,57.7 292.6,58.0 293.4,58.3 294.2,58.6 295.0,58.8 296.0,59.1 297.0,59.5 297.9,59.8 298.8,60.1 299.7,60.4 300.6,60.6 301.5,60.9 302.4,61.2 303.2,61.5 304.0,61.7 304.9,62.0 305.8,62.3 306.7,62.6 307.7,62.9 308.6,63.2 309.5,63.5 310.3,63.8 311.2,64.0 312.0,64.3 312.8,64.6 313.7,64.8 314.6,65.1 315.5,65.4 316.4,65.7 317.3,66.0 318.1,66.2 319.0,66.5 319.8,66.8 320.6,67.0 321.4,67.3 322.3,67.6 323.2,67.9 324.1,68.1 324.9,68.4 325.7,68.7 326.6,68.9 327.4,69.2 328.3,69.5 329.1,69.8 330.0,70.1 330.8,70.3 331.7,70.6 332.5,70.9 333.3,71.1 334.2,71.4 335.0,71.7 335.9,72.0 336.7,72.3 337.5,72.5 338.4,72.8 339.2,73.1 340.1,73.4 340.9,73.7 341.7,74.0 342.5,74.2 343.4,74.5 344.2,74.8 345.1,75.1 345.9,75.4 346.7,75.7 347.6,76.0 348.4,76.3 349.2,76.6 350.0,76.9 350.9,77.2 351.7,77.5 352.6,77.8 353.4,78.2 354.2,78.5 355.1,78.8 355.9,79.1 356.7,79.4 357.6,79.8 358.4,80.1 359.2,80.5 360.0,80.8 360.9,81.2 361.7,81.5 362.5,81.9 363.3,82.2 364.2,82.6 365.0,83.0 365.8,83.4 366.6,83.8 367.4,84.2 368.3,84.5 369.1,85.0 369.9,85.4 370.7,85.8 371.5,86.3 372.4,86.7 373.2,87.2 374.0,87.7 374.8,88.2 375.6,88.7 376.4,89.2 377.2,89.8 378.1,90.3 378.9,90.9 379.7,91.5 380.5,92.2 381.3,92.9 382.1,93.6 383.0,94.3 383.8,95.1 384.6,96.0 385.4,96.9 386.2,97.8 387.0,98.9 387.9,100.0 388.7,101.3 389.5,102.7 390.3,104.3 391.1,106.1 391.9,108.2 L391.9,171.0 L37.5,171.0 Z" fill="url(#g222)"/>
  <defs><clipPath id="pc223"><rect x="34" y="16" width="358" height="155"/></clipPath></defs>
  <polyline points="37.5,108.0 70.1,98.7 89.2,93.2 102.8,89.4 113.3,86.3 121.9,83.9 129.1,81.8 135.4,80.0 141.0,78.4 145.9,77.0 150.4,75.7 154.5,74.5 158.3,73.4 161.8,72.3 165.0,71.4 168.1,70.5 170.9,69.7 173.6,68.9 176.2,68.1 178.6,67.4 180.9,66.7 183.1,66.0 185.2,65.4 187.2,64.8 189.1,64.2 190.9,63.7 192.7,63.1 194.4,62.6 196.1,62.1 197.7,61.6 199.2,61.1 200.7,60.6 202.2,60.2 203.6,59.7 204.9,59.3 206.3,58.9 207.6,58.4 208.8,58.0 210.0,57.6 211.2,57.3 212.4,56.9 213.5,56.5 214.6,56.1 215.7,55.8 216.8,55.4 217.8,55.1 218.8,54.8 219.8,54.4 220.8,54.1 221.7,53.8 222.7,53.5 223.6,53.2 224.5,52.9 225.4,52.6 226.2,52.3 227.1,52.1 227.9,51.8 228.7,51.5 229.5,51.3 231.1,50.8 232.6,50.3 234.1,49.9 235.5,49.5 236.9,49.1 238.2,48.8 239.6,48.4 240.8,48.2 242.1,47.9 243.3,47.7 244.5,47.5 245.6,47.3 246.7,47.2 247.8,47.1 248.9,47.0 249.9,47.0 251.0,47.0 252.0,47.0 252.9,47.1 253.9,47.1 254.8,47.2 255.8,47.3 256.7,47.4 257.6,47.5 258.4,47.7 259.3,47.8 260.1,48.0 261.0,48.2 261.8,48.3 263.0,48.6 264.1,48.9 265.3,49.2 266.4,49.5 267.5,49.8 268.5,50.1 269.6,50.4 270.6,50.8 271.6,51.1 272.5,51.4 273.5,51.7 274.4,52.0 275.3,52.3 276.2,52.6 277.1,52.9 278.0,53.2 278.8,53.4 279.6,53.7 280.5,54.0 281.3,54.3 282.3,54.6 283.4,54.9 284.4,55.3 285.3,55.6 286.3,55.9 287.3,56.3 288.2,56.6 289.1,56.9 290.0,57.2 290.9,57.4 291.7,57.7 292.6,58.0 293.4,58.3 294.2,58.6 295.0,58.8 296.0,59.1 297.0,59.5 297.9,59.8 298.8,60.1 299.7,60.4 300.6,60.6 301.5,60.9 302.4,61.2 303.2,61.5 304.0,61.7 304.9,62.0 305.8,62.3 306.7,62.6 307.7,62.9 308.6,63.2 309.5,63.5 310.3,63.8 311.2,64.0 312.0,64.3 312.8,64.6 313.7,64.8 314.6,65.1 315.5,65.4 316.4,65.7 317.3,66.0 318.1,66.2 319.0,66.5 319.8,66.8 320.6,67.0 321.4,67.3 322.3,67.6 323.2,67.9 324.1,68.1 324.9,68.4 325.7,68.7 326.6,68.9 327.4,69.2 328.3,69.5 329.1,69.8 330.0,70.1 330.8,70.3 331.7,70.6 332.5,70.9 333.3,71.1 334.2,71.4 335.0,71.7 335.9,72.0 336.7,72.3 337.5,72.5 338.4,72.8 339.2,73.1 340.1,73.4 340.9,73.7 341.7,74.0 342.5,74.2 343.4,74.5 344.2,74.8 345.1,75.1 345.9,75.4 346.7,75.7 347.6,76.0 348.4,76.3 349.2,76.6 350.0,76.9 350.9,77.2 351.7,77.5 352.6,77.8 353.4,78.2 354.2,78.5 355.1,78.8 355.9,79.1 356.7,79.4 357.6,79.8 358.4,80.1 359.2,80.5 360.0,80.8 360.9,81.2 361.7,81.5 362.5,81.9 363.3,82.2 364.2,82.6 365.0,83.0 365.8,83.4 366.6,83.8 367.4,84.2 368.3,84.5 369.1,85.0 369.9,85.4 370.7,85.8 371.5,86.3 372.4,86.7 373.2,87.2 374.0,87.7 374.8,88.2 375.6,88.7 376.4,89.2 377.2,89.8 378.1,90.3 378.9,90.9 379.7,91.5 380.5,92.2 381.3,92.9 382.1,93.6 383.0,94.3 383.8,95.1 384.6,96.0 385.4,96.9 386.2,97.8 387.0,98.9 387.9,100.0 388.7,101.3 389.5,102.7 390.3,104.3 391.1,106.1 391.9,108.2" fill="none" stroke="#4a90d9" stroke-width="1.5" stroke-linejoin="round" clip-path="url(#pc223)"/>
  <line x1="442" y1="16" x2="442" y2="171" stroke="#d1d5db"/>
  <line x1="442" y1="93.5" x2="800" y2="93.5" stroke="#d1d5db"/>
  <text x="621" y="197" text-anchor="middle" font-size="9" fill="#6b7280">Hz</text>
  <text x="420" y="93.5" text-anchor="middle" font-size="9" fill="#6b7280" transform="rotate(-90 420 93.5)">Phase (deg)</text>
  <line x1="474.6" y1="16" x2="474.6" y2="171" stroke="#e5e7eb" stroke-width="0.5"/>
  <line x1="493.7" y1="16" x2="493.7" y2="171" stroke="#e5e7eb" stroke-width="0.5"/>
  <line x1="507.3" y1="16" x2="507.3" y2="171" stroke="#e5e7eb" stroke-width="0.5"/>
  <line x1="517.8" y1="16" x2="517.8" y2="171" stroke="#e5e7eb" stroke-width="0.5"/>
  <line x1="526.4" y1="16" x2="526.4" y2="171" stroke="#e5e7eb" stroke-width="0.5"/>
  <line x1="533.7" y1="16" x2="533.7" y2="171" stroke="#e5e7eb" stroke-width="0.5"/>
  <line x1="539.9" y1="16" x2="539.9" y2="171" stroke="#e5e7eb" stroke-width="0.5"/>
  <line x1="545.5" y1="16" x2="545.5" y2="171" stroke="#e5e7eb" stroke-width="0.5"/>
  <line x1="583.1" y1="16" x2="583.1" y2="171" stroke="#e5e7eb" stroke-width="0.5"/>
  <line x1="602.2" y1="16" x2="602.2" y2="171" stroke="#e5e7eb" stroke-width="0.5"/>
  <line x1="615.7" y1="16" x2="615.7" y2="171" stroke="#e5e7eb" stroke-width="0.5"/>
  <line x1="626.3" y1="16" x2="626.3" y2="171" stroke="#e5e7eb" stroke-width="0.5"/>
  <line x1="634.8" y1="16" x2="634.8" y2="171" stroke="#e5e7eb" stroke-width="0.5"/>
  <line x1="642.1" y1="16" x2="642.1" y2="171" stroke="#e5e7eb" stroke-width="0.5"/>
  <line x1="648.4" y1="16" x2="648.4" y2="171" stroke="#e5e7eb" stroke-width="0.5"/>
  <line x1="653.9" y1="16" x2="653.9" y2="171" stroke="#e5e7eb" stroke-width="0.5"/>
  <line x1="691.5" y1="16" x2="691.5" y2="171" stroke="#e5e7eb" stroke-width="0.5"/>
  <line x1="710.6" y1="16" x2="710.6" y2="171" stroke="#e5e7eb" stroke-width="0.5"/>
  <line x1="724.2" y1="16" x2="724.2" y2="171" stroke="#e5e7eb" stroke-width="0.5"/>
  <line x1="734.7" y1="16" x2="734.7" y2="171" stroke="#e5e7eb" stroke-width="0.5"/>
  <line x1="743.3" y1="16" x2="743.3" y2="171" stroke="#e5e7eb" stroke-width="0.5"/>
  <line x1="750.6" y1="16" x2="750.6" y2="171" stroke="#e5e7eb" stroke-width="0.5"/>
  <line x1="756.8" y1="16" x2="756.8" y2="171" stroke="#e5e7eb" stroke-width="0.5"/>
  <line x1="762.4" y1="16" x2="762.4" y2="171" stroke="#e5e7eb" stroke-width="0.5"/>
  <line x1="800.0" y1="16" x2="800.0" y2="171" stroke="#e5e7eb" stroke-width="0.5"/>
  <line x1="550.5" y1="16" x2="550.5" y2="171" stroke="#e5e7eb" stroke-width="0.5"/>
  <text x="550.5" y="183" text-anchor="middle" font-size="8" fill="#6b7280">100</text>
  <line x1="658.9" y1="16" x2="658.9" y2="171" stroke="#e5e7eb" stroke-width="0.5"/>
  <text x="658.9" y="183" text-anchor="middle" font-size="8" fill="#6b7280">1k</text>
  <line x1="767.4" y1="16" x2="767.4" y2="171" stroke="#e5e7eb" stroke-width="0.5"/>
  <text x="767.4" y="183" text-anchor="middle" font-size="8" fill="#6b7280">10k</text>
  <line x1="442" y1="54.8" x2="800" y2="54.8" stroke="#e5e7eb" stroke-width="0.5"/>
  <line x1="442" y1="132.3" x2="800" y2="132.3" stroke="#e5e7eb" stroke-width="0.5"/>
  <line x1="442" y1="16.0" x2="800" y2="16.0" stroke="#e5e7eb" stroke-width="0.5"/>
  <text x="438" y="19.0" text-anchor="end" font-size="8" fill="#6b7280">180</text>
  <text x="438" y="96.5" text-anchor="end" font-size="8" fill="#6b7280">0</text>
  <line x1="442" y1="171.0" x2="800" y2="171.0" stroke="#e5e7eb" stroke-width="0.5"/>
  <text x="438" y="174.0" text-anchor="end" font-size="8" fill="#6b7280">-180</text>
  <line x1="658.9" y1="16" x2="658.9" y2="171" stroke="#d1d5db" stroke-width="1" stroke-dasharray="4 3"/>
  <defs><linearGradient id="g224" x1="0" y1="16" x2="0" y2="93.5" gradientUnits="userSpaceOnUse">
    <stop offset="0%" stop-color="#e74c3c" stop-opacity="0.15"/>
    <stop offset="100%" stop-color="#e74c3c" stop-opacity="0.02"/>
  </linearGradient></defs>
  <defs><linearGradient id="g225" x1="0" y1="171" x2="0" y2="93.5" gradientUnits="userSpaceOnUse">
    <stop offset="0%" stop-color="#e74c3c" stop-opacity="0.15"/>
    <stop offset="100%" stop-color="#e74c3c" stop-opacity="0.02"/>
  </linearGradient></defs>
  <defs><clipPath id="c226"><rect x="442" y="16" width="358" height="77.5"/></clipPath></defs>
  <defs><clipPath id="c227"><rect x="442" y="93.5" width="358" height="77.5"/></clipPath></defs>
  <path d="M445.5,55.0 445.5,55.0 478.1,55.3 497.2,55.5 510.8,55.8 521.3,56.1 529.9,56.3 537.1,56.6 543.4,56.9 549.0,57.2 553.9,57.4 558.4,57.7 562.5,58.0 566.3,58.2 569.8,58.5 573.0,58.8 576.1,59.1 578.9,59.4 581.6,59.6 584.2,59.9 586.6,60.2 588.9,60.5 591.1,60.8 593.2,61.1 595.2,61.4 597.1,61.7 598.9,62.0 600.7,62.3 602.4,62.6 604.1,63.0 605.7,63.3 607.2,63.6 608.7,63.9 610.2,64.3 611.6,64.6 612.9,64.9 614.3,65.3 615.6,65.6 616.8,66.0 618.0,66.4 619.2,66.7 620.4,67.1 621.5,67.5 622.6,67.9 623.7,68.3 624.8,68.7 625.8,69.1 626.8,69.5 627.8,69.9 628.8,70.3 629.7,70.7 630.7,71.2 631.6,71.6 632.5,72.0 633.4,72.5 634.2,73.0 635.1,73.4 635.9,73.9 636.7,74.4 637.5,74.9 639.1,75.9 640.6,76.9 642.1,77.9 643.5,79.0 644.9,80.1 646.2,81.2 647.6,82.3 648.8,83.4 650.1,84.6 651.3,85.7 652.5,86.9 653.6,88.0 654.7,89.2 655.8,90.3 656.9,91.4 657.9,92.5 659.0,93.6 660.0,94.6 660.9,95.6 661.9,96.6 662.8,97.6 663.8,98.6 664.7,99.5 665.6,100.4 666.4,101.2 667.3,102.0 668.1,102.8 669.0,103.6 669.8,104.3 671.0,105.3 672.1,106.3 673.3,107.2 674.4,108.1 675.5,108.9 676.5,109.7 677.6,110.4 678.6,111.1 679.6,111.7 680.5,112.3 681.5,112.9 682.4,113.4 683.3,114.0 684.2,114.4 685.1,114.9 686.0,115.3 686.8,115.7 687.6,116.1 688.5,116.5 689.3,116.9 690.3,117.3 691.4,117.8 692.4,118.2 693.3,118.5 694.3,118.9 695.3,119.2 696.2,119.6 697.1,119.9 698.0,120.2 698.9,120.5 699.7,120.7 700.6,121.0 701.4,121.2 702.2,121.5 703.0,121.7 704.0,121.9 705.0,122.2 705.9,122.4 706.8,122.7 707.7,122.9 708.6,123.1 709.5,123.3 710.4,123.5 711.2,123.7 712.0,123.8 712.9,124.0 713.8,124.2 714.7,124.4 715.7,124.6 716.6,124.7 717.5,124.9 718.3,125.0 719.2,125.2 720.0,125.3 720.8,125.5 721.7,125.6 722.6,125.7 723.5,125.9 724.4,126.0 725.3,126.2 726.1,126.3 727.0,126.4 727.8,126.5 728.6,126.6 729.4,126.7 730.3,126.9 731.2,127.0 732.1,127.1 732.9,127.2 733.7,127.3 734.6,127.4 735.4,127.5 736.3,127.6 737.1,127.7 738.0,127.8 738.8,127.9 739.7,128.0 740.5,128.0 741.3,128.1 742.2,128.2 743.0,128.3 743.9,128.4 744.7,128.5 745.5,128.5 746.4,128.6 747.2,128.7 748.1,128.8 748.9,128.8 749.7,128.9 750.5,129.0 751.4,129.1 752.2,129.1 753.1,129.2 753.9,129.3 754.7,129.3 755.6,129.4 756.4,129.4 757.2,129.5 758.0,129.6 758.9,129.6 759.7,129.7 760.6,129.7 761.4,129.8 762.2,129.9 763.1,129.9 763.9,130.0 764.7,130.0 765.6,130.1 766.4,130.1 767.2,130.2 768.0,130.2 768.9,130.3 769.7,130.3 770.5,130.4 771.3,130.4 772.2,130.5 773.0,130.5 773.8,130.6 774.6,130.6 775.4,130.7 776.3,130.7 777.1,130.8 777.9,130.8 778.7,130.9 779.5,130.9 780.4,131.0 781.2,131.0 782.0,131.0 782.8,131.1 783.6,131.1 784.4,131.2 785.2,131.2 786.1,131.3 786.9,131.3 787.7,131.3 788.5,131.4 789.3,131.4 790.1,131.5 791.0,131.5 791.8,131.6 792.6,131.6 793.4,131.6 794.2,131.7 795.0,131.7 795.9,131.8 796.7,131.8 797.5,131.9 798.3,131.9 799.1,131.9 799.9,132.0 L799.9,93.5 L445.5,93.5 Z" fill="url(#g224)" clip-path="url(#c226)"/>
  <path d="M445.5,55.0 445.5,55.0 478.1,55.3 497.2,55.5 510.8,55.8 521.3,56.1 529.9,56.3 537.1,56.6 543.4,56.9 549.0,57.2 553.9,57.4 558.4,57.7 562.5,58.0 566.3,58.2 569.8,58.5 573.0,58.8 576.1,59.1 578.9,59.4 581.6,59.6 584.2,59.9 586.6,60.2 588.9,60.5 591.1,60.8 593.2,61.1 595.2,61.4 597.1,61.7 598.9,62.0 600.7,62.3 602.4,62.6 604.1,63.0 605.7,63.3 607.2,63.6 608.7,63.9 610.2,64.3 611.6,64.6 612.9,64.9 614.3,65.3 615.6,65.6 616.8,66.0 618.0,66.4 619.2,66.7 620.4,67.1 621.5,67.5 622.6,67.9 623.7,68.3 624.8,68.7 625.8,69.1 626.8,69.5 627.8,69.9 628.8,70.3 629.7,70.7 630.7,71.2 631.6,71.6 632.5,72.0 633.4,72.5 634.2,73.0 635.1,73.4 635.9,73.9 636.7,74.4 637.5,74.9 639.1,75.9 640.6,76.9 642.1,77.9 643.5,79.0 644.9,80.1 646.2,81.2 647.6,82.3 648.8,83.4 650.1,84.6 651.3,85.7 652.5,86.9 653.6,88.0 654.7,89.2 655.8,90.3 656.9,91.4 657.9,92.5 659.0,93.6 660.0,94.6 660.9,95.6 661.9,96.6 662.8,97.6 663.8,98.6 664.7,99.5 665.6,100.4 666.4,101.2 667.3,102.0 668.1,102.8 669.0,103.6 669.8,104.3 671.0,105.3 672.1,106.3 673.3,107.2 674.4,108.1 675.5,108.9 676.5,109.7 677.6,110.4 678.6,111.1 679.6,111.7 680.5,112.3 681.5,112.9 682.4,113.4 683.3,114.0 684.2,114.4 685.1,114.9 686.0,115.3 686.8,115.7 687.6,116.1 688.5,116.5 689.3,116.9 690.3,117.3 691.4,117.8 692.4,118.2 693.3,118.5 694.3,118.9 695.3,119.2 696.2,119.6 697.1,119.9 698.0,120.2 698.9,120.5 699.7,120.7 700.6,121.0 701.4,121.2 702.2,121.5 703.0,121.7 704.0,121.9 705.0,122.2 705.9,122.4 706.8,122.7 707.7,122.9 708.6,123.1 709.5,123.3 710.4,123.5 711.2,123.7 712.0,123.8 712.9,124.0 713.8,124.2 714.7,124.4 715.7,124.6 716.6,124.7 717.5,124.9 718.3,125.0 719.2,125.2 720.0,125.3 720.8,125.5 721.7,125.6 722.6,125.7 723.5,125.9 724.4,126.0 725.3,126.2 726.1,126.3 727.0,126.4 727.8,126.5 728.6,126.6 729.4,126.7 730.3,126.9 731.2,127.0 732.1,127.1 732.9,127.2 733.7,127.3 734.6,127.4 735.4,127.5 736.3,127.6 737.1,127.7 738.0,127.8 738.8,127.9 739.7,128.0 740.5,128.0 741.3,128.1 742.2,128.2 743.0,128.3 743.9,128.4 744.7,128.5 745.5,128.5 746.4,128.6 747.2,128.7 748.1,128.8 748.9,128.8 749.7,128.9 750.5,129.0 751.4,129.1 752.2,129.1 753.1,129.2 753.9,129.3 754.7,129.3 755.6,129.4 756.4,129.4 757.2,129.5 758.0,129.6 758.9,129.6 759.7,129.7 760.6,129.7 761.4,129.8 762.2,129.9 763.1,129.9 763.9,130.0 764.7,130.0 765.6,130.1 766.4,130.1 767.2,130.2 768.0,130.2 768.9,130.3 769.7,130.3 770.5,130.4 771.3,130.4 772.2,130.5 773.0,130.5 773.8,130.6 774.6,130.6 775.4,130.7 776.3,130.7 777.1,130.8 777.9,130.8 778.7,130.9 779.5,130.9 780.4,131.0 781.2,131.0 782.0,131.0 782.8,131.1 783.6,131.1 784.4,131.2 785.2,131.2 786.1,131.3 786.9,131.3 787.7,131.3 788.5,131.4 789.3,131.4 790.1,131.5 791.0,131.5 791.8,131.6 792.6,131.6 793.4,131.6 794.2,131.7 795.0,131.7 795.9,131.8 796.7,131.8 797.5,131.9 798.3,131.9 799.1,131.9 799.9,132.0 L799.9,93.5 L445.5,93.5 Z" fill="url(#g225)" clip-path="url(#c227)"/>
  <defs><clipPath id="pc228"><rect x="442" y="16" width="358" height="155"/></clipPath></defs>
  <polyline points="445.5,55.0 478.1,55.3 497.2,55.5 510.8,55.8 521.3,56.1 529.9,56.3 537.1,56.6 543.4,56.9 549.0,57.2 553.9,57.4 558.4,57.7 562.5,58.0 566.3,58.2 569.8,58.5 573.0,58.8 576.1,59.1 578.9,59.4 581.6,59.6 584.2,59.9 586.6,60.2 588.9,60.5 591.1,60.8 593.2,61.1 595.2,61.4 597.1,61.7 598.9,62.0 600.7,62.3 602.4,62.6 604.1,63.0 605.7,63.3 607.2,63.6 608.7,63.9 610.2,64.3 611.6,64.6 612.9,64.9 614.3,65.3 615.6,65.6 616.8,66.0 618.0,66.4 619.2,66.7 620.4,67.1 621.5,67.5 622.6,67.9 623.7,68.3 624.8,68.7 625.8,69.1 626.8,69.5 627.8,69.9 628.8,70.3 629.7,70.7 630.7,71.2 631.6,71.6 632.5,72.0 633.4,72.5 634.2,73.0 635.1,73.4 635.9,73.9 636.7,74.4 637.5,74.9 639.1,75.9 640.6,76.9 642.1,77.9 643.5,79.0 644.9,80.1 646.2,81.2 647.6,82.3 648.8,83.4 650.1,84.6 651.3,85.7 652.5,86.9 653.6,88.0 654.7,89.2 655.8,90.3 656.9,91.4 657.9,92.5 659.0,93.6 660.0,94.6 660.9,95.6 661.9,96.6 662.8,97.6 663.8,98.6 664.7,99.5 665.6,100.4 666.4,101.2 667.3,102.0 668.1,102.8 669.0,103.6 669.8,104.3 671.0,105.3 672.1,106.3 673.3,107.2 674.4,108.1 675.5,108.9 676.5,109.7 677.6,110.4 678.6,111.1 679.6,111.7 680.5,112.3 681.5,112.9 682.4,113.4 683.3,114.0 684.2,114.4 685.1,114.9 686.0,115.3 686.8,115.7 687.6,116.1 688.5,116.5 689.3,116.9 690.3,117.3 691.4,117.8 692.4,118.2 693.3,118.5 694.3,118.9 695.3,119.2 696.2,119.6 697.1,119.9 698.0,120.2 698.9,120.5 699.7,120.7 700.6,121.0 701.4,121.2 702.2,121.5 703.0,121.7 704.0,121.9 705.0,122.2 705.9,122.4 706.8,122.7 707.7,122.9 708.6,123.1 709.5,123.3 710.4,123.5 711.2,123.7 712.0,123.8 712.9,124.0 713.8,124.2 714.7,124.4 715.7,124.6 716.6,124.7 717.5,124.9 718.3,125.0 719.2,125.2 720.0,125.3 720.8,125.5 721.7,125.6 722.6,125.7 723.5,125.9 724.4,126.0 725.3,126.2 726.1,126.3 727.0,126.4 727.8,126.5 728.6,126.6 729.4,126.7 730.3,126.9 731.2,127.0 732.1,127.1 732.9,127.2 733.7,127.3 734.6,127.4 735.4,127.5 736.3,127.6 737.1,127.7 738.0,127.8 738.8,127.9 739.7,128.0 740.5,128.0 741.3,128.1 742.2,128.2 743.0,128.3 743.9,128.4 744.7,128.5 745.5,128.5 746.4,128.6 747.2,128.7 748.1,128.8 748.9,128.8 749.7,128.9 750.5,129.0 751.4,129.1 752.2,129.1 753.1,129.2 753.9,129.3 754.7,129.3 755.6,129.4 756.4,129.4 757.2,129.5 758.0,129.6 758.9,129.6 759.7,129.7 760.6,129.7 761.4,129.8 762.2,129.9 763.1,129.9 763.9,130.0 764.7,130.0 765.6,130.1 766.4,130.1 767.2,130.2 768.0,130.2 768.9,130.3 769.7,130.3 770.5,130.4 771.3,130.4 772.2,130.5 773.0,130.5 773.8,130.6 774.6,130.6 775.4,130.7 776.3,130.7 777.1,130.8 777.9,130.8 778.7,130.9 779.5,130.9 780.4,131.0 781.2,131.0 782.0,131.0 782.8,131.1 783.6,131.1 784.4,131.2 785.2,131.2 786.1,131.3 786.9,131.3 787.7,131.3 788.5,131.4 789.3,131.4 790.1,131.5 791.0,131.5 791.8,131.6 792.6,131.6 793.4,131.6 794.2,131.7 795.0,131.7 795.9,131.8 796.7,131.8 797.5,131.9 798.3,131.9 799.1,131.9 799.9,132.0" fill="none" stroke="#e74c3c" stroke-width="1.5" stroke-linejoin="round" clip-path="url(#pc228)"/>
  <line x1="34" y1="221" x2="34" y2="376" stroke="#d1d5db"/>
  <line x1="34" y1="298.5" x2="392" y2="298.5" stroke="#d1d5db"/>
  <text x="213" y="402" text-anchor="middle" font-size="9" fill="#6b7280">Hz</text>
  <text x="12" y="298.5" text-anchor="middle" font-size="9" fill="#6b7280" transform="rotate(-90 12 298.5)">Group delay</text>
  <line x1="66.6" y1="221" x2="66.6" y2="376" stroke="#e5e7eb" stroke-width="0.5"/>
  <line x1="85.7" y1="221" x2="85.7" y2="376" stroke="#e5e7eb" stroke-width="0.5"/>
  <line x1="99.3" y1="221" x2="99.3" y2="376" stroke="#e5e7eb" stroke-width="0.5"/>
  <line x1="109.8" y1="221" x2="109.8" y2="376" stroke="#e5e7eb" stroke-width="0.5"/>
  <line x1="118.4" y1="221" x2="118.4" y2="376" stroke="#e5e7eb" stroke-width="0.5"/>
  <line x1="125.7" y1="221" x2="125.7" y2="376" stroke="#e5e7eb" stroke-width="0.5"/>
  <line x1="131.9" y1="221" x2="131.9" y2="376" stroke="#e5e7eb" stroke-width="0.5"/>
  <line x1="137.5" y1="221" x2="137.5" y2="376" stroke="#e5e7eb" stroke-width="0.5"/>
  <line x1="175.1" y1="221" x2="175.1" y2="376" stroke="#e5e7eb" stroke-width="0.5"/>
  <line x1="194.2" y1="221" x2="194.2" y2="376" stroke="#e5e7eb" stroke-width="0.5"/>
  <line x1="207.7" y1="221" x2="207.7" y2="376" stroke="#e5e7eb" stroke-width="0.5"/>
  <line x1="218.3" y1="221" x2="218.3" y2="376" stroke="#e5e7eb" stroke-width="0.5"/>
  <line x1="226.8" y1="221" x2="226.8" y2="376" stroke="#e5e7eb" stroke-width="0.5"/>
  <line x1="234.1" y1="221" x2="234.1" y2="376" stroke="#e5e7eb" stroke-width="0.5"/>
  <line x1="240.4" y1="221" x2="240.4" y2="376" stroke="#e5e7eb" stroke-width="0.5"/>
  <line x1="245.9" y1="221" x2="245.9" y2="376" stroke="#e5e7eb" stroke-width="0.5"/>
  <line x1="283.5" y1="221" x2="283.5" y2="376" stroke="#e5e7eb" stroke-width="0.5"/>
  <line x1="302.6" y1="221" x2="302.6" y2="376" stroke="#e5e7eb" stroke-width="0.5"/>
  <line x1="316.2" y1="221" x2="316.2" y2="376" stroke="#e5e7eb" stroke-width="0.5"/>
  <line x1="326.7" y1="221" x2="326.7" y2="376" stroke="#e5e7eb" stroke-width="0.5"/>
  <line x1="335.3" y1="221" x2="335.3" y2="376" stroke="#e5e7eb" stroke-width="0.5"/>
  <line x1="342.6" y1="221" x2="342.6" y2="376" stroke="#e5e7eb" stroke-width="0.5"/>
  <line x1="348.8" y1="221" x2="348.8" y2="376" stroke="#e5e7eb" stroke-width="0.5"/>
  <line x1="354.4" y1="221" x2="354.4" y2="376" stroke="#e5e7eb" stroke-width="0.5"/>
  <line x1="392.0" y1="221" x2="392.0" y2="376" stroke="#e5e7eb" stroke-width="0.5"/>
  <line x1="142.5" y1="221" x2="142.5" y2="376" stroke="#e5e7eb" stroke-width="0.5"/>
  <text x="142.5" y="388" text-anchor="middle" font-size="8" fill="#6b7280">100</text>
  <line x1="250.9" y1="221" x2="250.9" y2="376" stroke="#e5e7eb" stroke-width="0.5"/>
  <text x="250.9" y="388" text-anchor="middle" font-size="8" fill="#6b7280">1k</text>
  <line x1="359.4" y1="221" x2="359.4" y2="376" stroke="#e5e7eb" stroke-width="0.5"/>
  <text x="359.4" y="388" text-anchor="middle" font-size="8" fill="#6b7280">10k</text>
  <line x1="34" y1="344.2" x2="392" y2="344.2" stroke="#e5e7eb" stroke-width="0.5"/>
  <text x="30" y="347.2" text-anchor="end" font-size="8" fill="#6b7280">-500</text>
  <text x="30" y="301.5" text-anchor="end" font-size="8" fill="#6b7280">0</text>
  <line x1="34" y1="252.8" x2="392" y2="252.8" stroke="#e5e7eb" stroke-width="0.5"/>
  <text x="30" y="255.8" text-anchor="end" font-size="8" fill="#6b7280">500</text>
  <line x1="250.9" y1="221" x2="250.9" y2="376" stroke="#d1d5db" stroke-width="1" stroke-dasharray="4 3"/>
  <defs><linearGradient id="g229" x1="0" y1="221" x2="0" y2="298.5" gradientUnits="userSpaceOnUse">
    <stop offset="0%" stop-color="#2ecc71" stop-opacity="0.15"/>
    <stop offset="100%" stop-color="#2ecc71" stop-opacity="0.02"/>
  </linearGradient></defs>
  <path d="M37.5,238.9 37.5,238.9 70.1,268.7 89.2,278.6 102.8,283.6 113.3,286.5 121.9,288.5 129.1,289.9 135.4,291.0 141.0,291.8 145.9,292.5 150.4,293.0 154.5,293.5 158.3,293.8 161.8,294.1 165.0,294.4 168.1,294.7 170.9,294.9 173.6,295.1 176.2,295.2 178.6,295.4 180.9,295.5 183.1,295.6 185.2,295.8 187.2,295.9 189.1,296.0 190.9,296.0 192.7,296.1 194.4,296.2 196.1,296.3 197.7,296.3 199.2,296.4 200.7,296.4 202.2,296.5 203.6,296.6 204.9,296.6 206.3,296.6 207.6,296.7 208.8,296.7 210.0,296.8 211.2,296.8 212.4,296.8 213.5,296.9 214.6,296.9 215.7,296.9 216.8,297.0 217.8,297.0 218.8,297.0 219.8,297.1 220.8,297.1 221.7,297.1 222.7,297.2 223.6,297.2 224.5,297.2 225.4,297.2 226.2,297.3 227.1,297.3 227.9,297.3 228.7,297.4 229.5,297.4 231.1,297.4 232.6,297.5 234.1,297.6 235.5,297.6 236.9,297.7 238.2,297.8 239.6,297.8 240.8,297.9 242.1,298.0 243.3,298.0 244.5,298.1 245.6,298.2 246.7,298.3 247.8,298.3 248.9,298.4 249.9,298.4 251.0,298.5 252.0,298.6 252.9,298.6 253.9,298.7 254.8,298.7 255.8,298.7 256.7,298.8 257.6,298.8 258.4,298.8 259.3,298.8 260.1,298.9 261.0,298.9 261.8,298.9 263.0,298.9 264.1,298.9 265.3,298.9 266.4,299.0 267.5,299.0 268.5,299.0 269.6,299.0 270.6,299.0 271.6,299.0 272.5,299.0 273.5,298.9 274.4,298.9 275.3,298.9 276.2,298.9 277.1,298.9 278.0,298.9 278.8,298.9 279.6,298.9 280.5,298.9 281.3,298.9 282.3,298.9 283.4,298.9 284.4,298.9 285.3,298.9 286.3,298.9 287.3,298.8 288.2,298.8 289.1,298.8 290.0,298.8 290.9,298.8 291.7,298.8 292.6,298.8 293.4,298.8 294.2,298.8 295.0,298.8 296.0,298.8 297.0,298.8 297.9,298.8 298.8,298.8 299.7,298.8 300.6,298.8 301.5,298.7 302.4,298.7 303.2,298.7 304.0,298.7 304.9,298.7 305.8,298.7 306.7,298.7 307.7,298.7 308.6,298.7 309.5,298.7 310.3,298.7 311.2,298.7 312.0,298.7 312.8,298.7 313.7,298.7 314.6,298.7 315.5,298.7 316.4,298.7 317.3,298.7 318.1,298.7 319.0,298.7 319.8,298.7 320.6,298.7 321.4,298.7 322.3,298.7 323.2,298.7 324.1,298.7 324.9,298.6 325.7,298.6 326.6,298.6 327.4,298.6 328.3,298.6 329.1,298.6 330.0,298.6 330.8,298.6 331.7,298.6 332.5,298.6 333.3,298.6 334.2,298.6 335.0,298.6 335.9,298.6 336.7,298.6 337.5,298.6 338.4,298.6 339.2,298.6 340.1,298.6 340.9,298.6 341.7,298.6 342.5,298.6 343.4,298.6 344.2,298.6 345.1,298.6 345.9,298.6 346.7,298.6 347.6,298.6 348.4,298.6 349.2,298.6 350.0,298.6 350.9,298.6 351.7,298.6 352.6,298.6 353.4,298.6 354.2,298.6 355.1,298.6 355.9,298.6 356.7,298.6 357.6,298.6 358.4,298.6 359.2,298.6 360.0,298.6 360.9,298.6 361.7,298.6 362.5,298.6 363.3,298.6 364.2,298.6 365.0,298.6 365.8,298.6 366.6,298.6 367.4,298.6 368.3,298.6 369.1,298.6 369.9,298.6 370.7,298.6 371.5,298.6 372.4,298.6 373.2,298.6 374.0,298.6 374.8,298.6 375.6,298.6 376.4,298.6 377.2,298.6 378.1,298.6 378.9,298.6 379.7,298.6 380.5,298.6 381.3,298.6 382.1,298.6 383.0,298.6 383.8,298.6 384.6,298.6 385.4,298.6 386.2,298.7 387.0,298.7 387.9,298.7 388.7,298.7 389.5,298.7 390.3,298.7 391.1,298.8 391.9,298.8 L391.9,298.5 L37.5,298.5 Z" fill="url(#g229)"/>
  <defs><clipPath id="pc230"><rect x="34" y="221" width="358" height="155"/></clipPath></defs>
  <polyline points="37.5,238.9 70.1,268.7 89.2,278.6 102.8,283.6 113.3,286.5 121.9,288.5 129.1,289.9 135.4,291.0 141.0,291.8 145.9,292.5 150.4,293.0 154.5,293.5 158.3,293.8 161.8,294.1 165.0,294.4 168.1,294.7 170.9,294.9 173.6,295.1 176.2,295.2 178.6,295.4 180.9,295.5 183.1,295.6 185.2,295.8 187.2,295.9 189.1,296.0 190.9,296.0 192.7,296.1 194.4,296.2 196.1,296.3 197.7,296.3 199.2,296.4 200.7,296.4 202.2,296.5 203.6,296.6 204.9,296.6 206.3,296.6 207.6,296.7 208.8,296.7 210.0,296.8 211.2,296.8 212.4,296.8 213.5,296.9 214.6,296.9 215.7,296.9 216.8,297.0 217.8,297.0 218.8,297.0 219.8,297.1 220.8,297.1 221.7,297.1 222.7,297.2 223.6,297.2 224.5,297.2 225.4,297.2 226.2,297.3 227.1,297.3 227.9,297.3 228.7,297.4 229.5,297.4 231.1,297.4 232.6,297.5 234.1,297.6 235.5,297.6 236.9,297.7 238.2,297.8 239.6,297.8 240.8,297.9 242.1,298.0 243.3,298.0 244.5,298.1 245.6,298.2 246.7,298.3 247.8,298.3 248.9,298.4 249.9,298.4 251.0,298.5 252.0,298.6 252.9,298.6 253.9,298.7 254.8,298.7 255.8,298.7 256.7,298.8 257.6,298.8 258.4,298.8 259.3,298.8 260.1,298.9 261.0,298.9 261.8,298.9 263.0,298.9 264.1,298.9 265.3,298.9 266.4,299.0 267.5,299.0 268.5,299.0 269.6,299.0 270.6,299.0 271.6,299.0 272.5,299.0 273.5,298.9 274.4,298.9 275.3,298.9 276.2,298.9 277.1,298.9 278.0,298.9 278.8,298.9 279.6,298.9 280.5,298.9 281.3,298.9 282.3,298.9 283.4,298.9 284.4,298.9 285.3,298.9 286.3,298.9 287.3,298.8 288.2,298.8 289.1,298.8 290.0,298.8 290.9,298.8 291.7,298.8 292.6,298.8 293.4,298.8 294.2,298.8 295.0,298.8 296.0,298.8 297.0,298.8 297.9,298.8 298.8,298.8 299.7,298.8 300.6,298.8 301.5,298.7 302.4,298.7 303.2,298.7 304.0,298.7 304.9,298.7 305.8,298.7 306.7,298.7 307.7,298.7 308.6,298.7 309.5,298.7 310.3,298.7 311.2,298.7 312.0,298.7 312.8,298.7 313.7,298.7 314.6,298.7 315.5,298.7 316.4,298.7 317.3,298.7 318.1,298.7 319.0,298.7 319.8,298.7 320.6,298.7 321.4,298.7 322.3,298.7 323.2,298.7 324.1,298.7 324.9,298.6 325.7,298.6 326.6,298.6 327.4,298.6 328.3,298.6 329.1,298.6 330.0,298.6 330.8,298.6 331.7,298.6 332.5,298.6 333.3,298.6 334.2,298.6 335.0,298.6 335.9,298.6 336.7,298.6 337.5,298.6 338.4,298.6 339.2,298.6 340.1,298.6 340.9,298.6 341.7,298.6 342.5,298.6 343.4,298.6 344.2,298.6 345.1,298.6 345.9,298.6 346.7,298.6 347.6,298.6 348.4,298.6 349.2,298.6 350.0,298.6 350.9,298.6 351.7,298.6 352.6,298.6 353.4,298.6 354.2,298.6 355.1,298.6 355.9,298.6 356.7,298.6 357.6,298.6 358.4,298.6 359.2,298.6 360.0,298.6 360.9,298.6 361.7,298.6 362.5,298.6 363.3,298.6 364.2,298.6 365.0,298.6 365.8,298.6 366.6,298.6 367.4,298.6 368.3,298.6 369.1,298.6 369.9,298.6 370.7,298.6 371.5,298.6 372.4,298.6 373.2,298.6 374.0,298.6 374.8,298.6 375.6,298.6 376.4,298.6 377.2,298.6 378.1,298.6 378.9,298.6 379.7,298.6 380.5,298.6 381.3,298.6 382.1,298.6 383.0,298.6 383.8,298.6 384.6,298.6 385.4,298.6 386.2,298.7 387.0,298.7 387.9,298.7 388.7,298.7 389.5,298.7 390.3,298.7 391.1,298.8 391.9,298.8" fill="none" stroke="#2ecc71" stroke-width="1.5" stroke-linejoin="round" clip-path="url(#pc230)"/>
  <line x1="442" y1="221" x2="442" y2="376" stroke="#d1d5db"/>
  <line x1="442" y1="298.5" x2="800" y2="298.5" stroke="#d1d5db"/>
  <text x="621" y="402" text-anchor="middle" font-size="9" fill="#6b7280">Samples</text>
  <text x="420" y="298.5" text-anchor="middle" font-size="9" fill="#6b7280" transform="rotate(-90 420 298.5)">Impulse response</text>
  <line x1="442.0" y1="221" x2="442.0" y2="376" stroke="#e5e7eb" stroke-width="0.5"/>
  <text x="442.0" y="388" text-anchor="middle" font-size="8" fill="#6b7280">0</text>
  <line x1="531.5" y1="221" x2="531.5" y2="376" stroke="#e5e7eb" stroke-width="0.5"/>
  <text x="531.5" y="388" text-anchor="middle" font-size="8" fill="#6b7280">32</text>
  <line x1="621.0" y1="221" x2="621.0" y2="376" stroke="#e5e7eb" stroke-width="0.5"/>
  <text x="621.0" y="388" text-anchor="middle" font-size="8" fill="#6b7280">64</text>
  <line x1="710.5" y1="221" x2="710.5" y2="376" stroke="#e5e7eb" stroke-width="0.5"/>
  <text x="710.5" y="388" text-anchor="middle" font-size="8" fill="#6b7280">96</text>
  <line x1="800.0" y1="221" x2="800.0" y2="376" stroke="#e5e7eb" stroke-width="0.5"/>
  <text x="800.0" y="388" text-anchor="middle" font-size="8" fill="#6b7280">128</text>
  <line x1="442" y1="355.4" x2="800" y2="355.4" stroke="#e5e7eb" stroke-width="0.5"/>
  <text x="438" y="358.4" text-anchor="end" font-size="8" fill="#6b7280">-0.09</text>
  <text x="438" y="301.5" text-anchor="end" font-size="8" fill="#6b7280">0</text>
  <line x1="442" y1="241.6" x2="800" y2="241.6" stroke="#e5e7eb" stroke-width="0.5"/>
  <text x="438" y="244.6" text-anchor="end" font-size="8" fill="#6b7280">0.09</text>
  <defs><linearGradient id="g231" x1="0" y1="221" x2="0" y2="298.5" gradientUnits="userSpaceOnUse">
    <stop offset="0%" stop-color="#f39c12" stop-opacity="0.15"/>
    <stop offset="100%" stop-color="#f39c12" stop-opacity="0.02"/>
  </linearGradient></defs>
  <defs><linearGradient id="g232" x1="0" y1="376" x2="0" y2="298.5" gradientUnits="userSpaceOnUse">
    <stop offset="0%" stop-color="#f39c12" stop-opacity="0.15"/>
    <stop offset="100%" stop-color="#f39c12" stop-opacity="0.02"/>
  </linearGradient></defs>
  <defs><clipPath id="c233"><rect x="442" y="221" width="358" height="77.5"/></clipPath></defs>
  <defs><clipPath id="c234"><rect x="442" y="298.5" width="358" height="77.5"/></clipPath></defs>
  <path d="M442.0,256.6 442.0,256.6 444.8,221.0 447.6,233.5 450.4,245.6 453.2,257.1 456.0,267.9 458.8,277.8 461.6,286.8 464.4,294.8 467.2,301.8 470.0,307.9 472.8,312.9 475.6,317.0 478.4,320.2 481.2,322.6 484.0,324.2 486.8,325.1 489.5,325.4 492.3,325.1 495.1,324.4 497.9,323.3 500.7,321.8 503.5,320.1 506.3,318.3 509.1,316.3 511.9,314.2 514.7,312.1 517.5,310.0 520.3,308.0 523.1,306.1 525.9,304.2 528.7,302.6 531.5,301.0 534.3,299.6 537.1,298.4 539.9,297.4 542.7,296.5 545.5,295.7 548.3,295.1 551.1,294.7 553.9,294.4 556.7,294.2 559.5,294.1 562.3,294.1 565.1,294.2 567.9,294.3 570.7,294.6 573.5,294.8 576.3,295.1 579.0,295.4 581.8,295.8 584.6,296.1 587.4,296.5 590.2,296.8 593.0,297.1 595.8,297.4 598.6,297.7 601.4,298.0 604.2,298.2 607.0,298.4 609.8,298.6 612.6,298.8 615.4,298.9 618.2,299.0 621.0,299.1 623.8,299.2 626.6,299.2 629.4,299.2 632.2,299.2 635.0,299.2 637.8,299.2 640.6,299.2 643.4,299.1 646.2,299.1 649.0,299.0 651.8,299.0 654.6,298.9 657.4,298.9 660.2,298.8 663.0,298.7 665.8,298.7 668.5,298.6 671.3,298.6 674.1,298.6 676.9,298.5 679.7,298.5 682.5,298.5 685.3,298.4 688.1,298.4 690.9,298.4 693.7,298.4 696.5,298.4 699.3,298.4 702.1,298.4 704.9,298.4 707.7,298.4 710.5,298.4 713.3,298.4 716.1,298.4 718.9,298.4 721.7,298.4 724.5,298.4 727.3,298.4 730.1,298.4 732.9,298.5 735.7,298.5 738.5,298.5 741.3,298.5 744.1,298.5 746.9,298.5 749.7,298.5 752.5,298.5 755.3,298.5 758.0,298.5 760.8,298.5 763.6,298.5 766.4,298.5 769.2,298.5 772.0,298.5 774.8,298.5 777.6,298.5 780.4,298.5 783.2,298.5 786.0,298.5 788.8,298.5 791.6,298.5 794.4,298.5 797.2,298.5 L797.2,298.5 L442.0,298.5 Z" fill="url(#g231)" clip-path="url(#c233)"/>
  <path d="M442.0,256.6 442.0,256.6 444.8,221.0 447.6,233.5 450.4,245.6 453.2,257.1 456.0,267.9 458.8,277.8 461.6,286.8 464.4,294.8 467.2,301.8 470.0,307.9 472.8,312.9 475.6,317.0 478.4,320.2 481.2,322.6 484.0,324.2 486.8,325.1 489.5,325.4 492.3,325.1 495.1,324.4 497.9,323.3 500.7,321.8 503.5,320.1 506.3,318.3 509.1,316.3 511.9,314.2 514.7,312.1 517.5,310.0 520.3,308.0 523.1,306.1 525.9,304.2 528.7,302.6 531.5,301.0 534.3,299.6 537.1,298.4 539.9,297.4 542.7,296.5 545.5,295.7 548.3,295.1 551.1,294.7 553.9,294.4 556.7,294.2 559.5,294.1 562.3,294.1 565.1,294.2 567.9,294.3 570.7,294.6 573.5,294.8 576.3,295.1 579.0,295.4 581.8,295.8 584.6,296.1 587.4,296.5 590.2,296.8 593.0,297.1 595.8,297.4 598.6,297.7 601.4,298.0 604.2,298.2 607.0,298.4 609.8,298.6 612.6,298.8 615.4,298.9 618.2,299.0 621.0,299.1 623.8,299.2 626.6,299.2 629.4,299.2 632.2,299.2 635.0,299.2 637.8,299.2 640.6,299.2 643.4,299.1 646.2,299.1 649.0,299.0 651.8,299.0 654.6,298.9 657.4,298.9 660.2,298.8 663.0,298.7 665.8,298.7 668.5,298.6 671.3,298.6 674.1,298.6 676.9,298.5 679.7,298.5 682.5,298.5 685.3,298.4 688.1,298.4 690.9,298.4 693.7,298.4 696.5,298.4 699.3,298.4 702.1,298.4 704.9,298.4 707.7,298.4 710.5,298.4 713.3,298.4 716.1,298.4 718.9,298.4 721.7,298.4 724.5,298.4 727.3,298.4 730.1,298.4 732.9,298.5 735.7,298.5 738.5,298.5 741.3,298.5 744.1,298.5 746.9,298.5 749.7,298.5 752.5,298.5 755.3,298.5 758.0,298.5 760.8,298.5 763.6,298.5 766.4,298.5 769.2,298.5 772.0,298.5 774.8,298.5 777.6,298.5 780.4,298.5 783.2,298.5 786.0,298.5 788.8,298.5 791.6,298.5 794.4,298.5 797.2,298.5 L797.2,298.5 L442.0,298.5 Z" fill="url(#g232)" clip-path="url(#c234)"/>
  <defs><clipPath id="pc235"><rect x="442" y="221" width="358" height="155"/></clipPath></defs>
  <polyline points="442.0,256.6 444.8,221.0 447.6,233.5 450.4,245.6 453.2,257.1 456.0,267.9 458.8,277.8 461.6,286.8 464.4,294.8 467.2,301.8 470.0,307.9 472.8,312.9 475.6,317.0 478.4,320.2 481.2,322.6 484.0,324.2 486.8,325.1 489.5,325.4 492.3,325.1 495.1,324.4 497.9,323.3 500.7,321.8 503.5,320.1 506.3,318.3 509.1,316.3 511.9,314.2 514.7,312.1 517.5,310.0 520.3,308.0 523.1,306.1 525.9,304.2 528.7,302.6 531.5,301.0 534.3,299.6 537.1,298.4 539.9,297.4 542.7,296.5 545.5,295.7 548.3,295.1 551.1,294.7 553.9,294.4 556.7,294.2 559.5,294.1 562.3,294.1 565.1,294.2 567.9,294.3 570.7,294.6 573.5,294.8 576.3,295.1 579.0,295.4 581.8,295.8 584.6,296.1 587.4,296.5 590.2,296.8 593.0,297.1 595.8,297.4 598.6,297.7 601.4,298.0 604.2,298.2 607.0,298.4 609.8,298.6 612.6,298.8 615.4,298.9 618.2,299.0 621.0,299.1 623.8,299.2 626.6,299.2 629.4,299.2 632.2,299.2 635.0,299.2 637.8,299.2 640.6,299.2 643.4,299.1 646.2,299.1 649.0,299.0 651.8,299.0 654.6,298.9 657.4,298.9 660.2,298.8 663.0,298.7 665.8,298.7 668.5,298.6 671.3,298.6 674.1,298.6 676.9,298.5 679.7,298.5 682.5,298.5 685.3,298.4 688.1,298.4 690.9,298.4 693.7,298.4 696.5,298.4 699.3,298.4 702.1,298.4 704.9,298.4 707.7,298.4 710.5,298.4 713.3,298.4 716.1,298.4 718.9,298.4 721.7,298.4 724.5,298.4 727.3,298.4 730.1,298.4 732.9,298.5 735.7,298.5 738.5,298.5 741.3,298.5 744.1,298.5 746.9,298.5 749.7,298.5 752.5,298.5 755.3,298.5 758.0,298.5 760.8,298.5 763.6,298.5 766.4,298.5 769.2,298.5 772.0,298.5 774.8,298.5 777.6,298.5 780.4,298.5 783.2,298.5 786.0,298.5 788.8,298.5 791.6,298.5 794.4,298.5 797.2,298.5" fill="none" stroke="#f39c12" stroke-width="1.3" stroke-linejoin="round" clip-path="url(#pc235)"/>
</svg>
