<svg xmlns="http://www.w3.org/2000/svg" viewBox="0 0 820 378" style="font-family:system-ui,-apple-system,sans-serif">
  <text x="800" y="11" text-anchor="end" font-size="11" font-weight="600" fill="#6b7280">Biquad highshelf, fc=1kHz</text>
  <line x1="34" y1="16" x2="34" y2="171" stroke="#d1d5db"/>
  <line x1="34" y1="47.0" x2="399" y2="47.0" stroke="#d1d5db"/>
  <text x="216.5" y="197" text-anchor="middle" font-size="9" fill="#6b7280">Hz</text>
  <text x="12" y="93.5" text-anchor="middle" font-size="9" fill="#6b7280" transform="rotate(-90 12 93.5)">dB</text>
  <line x1="67.3" y1="16" x2="67.3" y2="171" stroke="#e5e7eb" stroke-width="0.5"/>
  <line x1="86.8" y1="16" x2="86.8" y2="171" stroke="#e5e7eb" stroke-width="0.5"/>
  <line x1="100.6" y1="16" x2="100.6" y2="171" stroke="#e5e7eb" stroke-width="0.5"/>
  <line x1="111.3" y1="16" x2="111.3" y2="171" stroke="#e5e7eb" stroke-width="0.5"/>
  <line x1="120.0" y1="16" x2="120.0" y2="171" stroke="#e5e7eb" stroke-width="0.5"/>
  <line x1="127.4" y1="16" x2="127.4" y2="171" stroke="#e5e7eb" stroke-width="0.5"/>
  <line x1="133.9" y1="16" x2="133.9" y2="171" stroke="#e5e7eb" stroke-width="0.5"/>
  <line x1="139.5" y1="16" x2="139.5" y2="171" stroke="#e5e7eb" stroke-width="0.5"/>
  <line x1="177.9" y1="16" x2="177.9" y2="171" stroke="#e5e7eb" stroke-width="0.5"/>
  <line x1="197.3" y1="16" x2="197.3" y2="171" stroke="#e5e7eb" stroke-width="0.5"/>
  <line x1="211.1" y1="16" x2="211.1" y2="171" stroke="#e5e7eb" stroke-width="0.5"/>
  <line x1="221.9" y1="16" x2="221.9" y2="171" stroke="#e5e7eb" stroke-width="0.5"/>
  <line x1="230.6" y1="16" x2="230.6" y2="171" stroke="#e5e7eb" stroke-width="0.5"/>
  <line x1="238.0" y1="16" x2="238.0" y2="171" stroke="#e5e7eb" stroke-width="0.5"/>
  <line x1="244.4" y1="16" x2="244.4" y2="171" stroke="#e5e7eb" stroke-width="0.5"/>
  <line x1="250.1" y1="16" x2="250.1" y2="171" stroke="#e5e7eb" stroke-width="0.5"/>
  <line x1="288.4" y1="16" x2="288.4" y2="171" stroke="#e5e7eb" stroke-width="0.5"/>
  <line x1="307.9" y1="16" x2="307.9" y2="171" stroke="#e5e7eb" stroke-width="0.5"/>
  <line x1="321.7" y1="16" x2="321.7" y2="171" stroke="#e5e7eb" stroke-width="0.5"/>
  <line x1="332.4" y1="16" x2="332.4" y2="171" stroke="#e5e7eb" stroke-width="0.5"/>
  <line x1="341.2" y1="16" x2="341.2" y2="171" stroke="#e5e7eb" stroke-width="0.5"/>
  <line x1="348.6" y1="16" x2="348.6" y2="171" stroke="#e5e7eb" stroke-width="0.5"/>
  <line x1="355.0" y1="16" x2="355.0" y2="171" stroke="#e5e7eb" stroke-width="0.5"/>
  <line x1="360.7" y1="16" x2="360.7" y2="171" stroke="#e5e7eb" stroke-width="0.5"/>
  <line x1="399.0" y1="16" x2="399.0" y2="171" stroke="#e5e7eb" stroke-width="0.5"/>
  <line x1="144.6" y1="16" x2="144.6" y2="171" stroke="#e5e7eb" stroke-width="0.5"/>
  <text x="144.6" y="183" text-anchor="middle" font-size="8" fill="#6b7280">100</text>
  <line x1="255.1" y1="16" x2="255.1" y2="171" stroke="#e5e7eb" stroke-width="0.5"/>
  <text x="255.1" y="183" text-anchor="middle" font-size="8" fill="#6b7280">1k</text>
  <line x1="365.7" y1="16" x2="365.7" y2="171" stroke="#e5e7eb" stroke-width="0.5"/>
  <text x="365.7" y="183" text-anchor="middle" font-size="8" fill="#6b7280">10k</text>
  <line x1="34" y1="31.5" x2="399" y2="31.5" stroke="#e5e7eb" stroke-width="0.5"/>
  <line x1="34" y1="62.5" x2="399" y2="62.5" stroke="#e5e7eb" stroke-width="0.5"/>
  <line x1="34" y1="16.0" x2="399" y2="16.0" stroke="#e5e7eb" stroke-width="0.5"/>
  <text x="30" y="19.0" text-anchor="end" font-size="8" fill="#6b7280">+20</text>
  <text x="30" y="50.0" text-anchor="end" font-size="8" fill="#6b7280">0</text>
  <line x1="34" y1="78.0" x2="399" y2="78.0" stroke="#e5e7eb" stroke-width="0.5"/>
  <text x="30" y="81.0" text-anchor="end" font-size="8" fill="#6b7280">-20</text>
  <line x1="34" y1="109.0" x2="399" y2="109.0" stroke="#e5e7eb" stroke-width="0.5"/>
  <text x="30" y="112.0" text-anchor="end" font-size="8" fill="#6b7280">-40</text>
  <line x1="34" y1="140.0" x2="399" y2="140.0" stroke="#e5e7eb" stroke-width="0.5"/>
  <text x="30" y="143.0" text-anchor="end" font-size="8" fill="#6b7280">-60</text>
  <line x1="34" y1="171.0" x2="399" y2="171.0" stroke="#e5e7eb" stroke-width="0.5"/>
  <text x="30" y="174.0" text-anchor="end" font-size="8" fill="#6b7280">-80</text>
  <line x1="255.1" y1="16" x2="255.1" y2="171" stroke="#d1d5db" stroke-width="1" stroke-dasharray="4 3"/>
  <defs><linearGradient id="g219" x1="0" y1="16" x2="0" y2="171" gradientUnits="userSpaceOnUse">
    <stop offset="0%" stop-color="#4a90d9" stop-opacity="0.15"/>
    <stop offset="100%" stop-color="#4a90d9" stop-opacity="0.02"/>
  </linearGradient></defs>
  <path d="M37.5,47.0 37.5,47.0 70.8,47.0 90.3,47.0 104.1,47.0 114.8,47.0 123.6,47.0 131.0,47.0 137.4,47.0 143.1,47.0 148.1,47.0 152.7,47.0 156.9,47.0 160.7,47.0 164.3,47.0 167.6,47.0 170.7,47.0 173.6,47.0 176.3,47.0 178.9,47.0 181.4,47.0 183.7,47.0 186.0,47.0 188.1,47.0 190.2,47.0 192.1,46.9 194.0,46.9 195.8,46.9 197.6,46.9 199.2,46.9 200.9,46.9 202.4,46.9 204.0,46.9 205.5,46.8 206.9,46.8 208.3,46.8 209.6,46.8 210.9,46.8 212.2,46.7 213.5,46.7 214.7,46.7 215.9,46.6 217.0,46.6 218.2,46.6 219.3,46.5 220.3,46.5 221.4,46.4 222.4,46.4 223.4,46.3 224.4,46.3 225.4,46.2 226.4,46.2 227.3,46.1 228.2,46.1 229.1,46.0 230.0,45.9 230.8,45.9 231.7,45.8 232.5,45.7 233.4,45.6 234.2,45.6 235.7,45.4 237.3,45.2 238.7,45.0 240.2,44.9 241.6,44.7 242.9,44.5 244.2,44.3 245.5,44.1 246.8,43.9 248.0,43.7 249.2,43.4 250.3,43.2 251.4,43.0 252.6,42.8 253.6,42.6 254.7,42.4 255.7,42.2 256.7,42.1 257.7,41.9 258.7,41.7 259.6,41.5 260.6,41.3 261.5,41.2 262.4,41.0 263.3,40.9 264.1,40.7 265.0,40.6 265.8,40.5 266.6,40.3 267.4,40.2 268.6,40.0 269.8,39.9 270.9,39.7 272.0,39.6 273.1,39.5 274.2,39.3 275.2,39.2 276.2,39.1 277.2,39.0 278.2,38.9 279.1,38.9 280.0,38.8 281.0,38.7 281.9,38.6 282.7,38.6 283.6,38.5 284.5,38.5 285.3,38.4 286.1,38.4 286.9,38.3 288.0,38.3 289.0,38.2 290.0,38.2 291.0,38.2 292.0,38.1 292.9,38.1 293.9,38.1 294.8,38.0 295.7,38.0 296.6,38.0 297.4,38.0 298.3,38.0 299.1,37.9 299.9,37.9 300.7,37.9 301.7,37.9 302.7,37.9 303.6,37.9 304.6,37.9 305.5,37.8 306.4,37.8 307.3,37.8 308.1,37.8 309.0,37.8 309.8,37.8 310.6,37.8 311.4,37.8 312.4,37.8 313.3,37.8 314.2,37.8 315.1,37.8 316.0,37.8 316.9,37.8 317.7,37.8 318.6,37.7 319.4,37.7 320.2,37.7 321.1,37.7 322.0,37.7 322.9,37.7 323.8,37.7 324.7,37.7 325.5,37.7 326.3,37.7 327.1,37.7 327.9,37.7 328.8,37.7 329.7,37.7 330.6,37.7 331.4,37.7 332.3,37.7 333.1,37.7 333.9,37.7 334.8,37.7 335.7,37.7 336.5,37.7 337.4,37.7 338.2,37.7 339.0,37.7 339.8,37.7 340.7,37.7 341.6,37.7 342.4,37.7 343.3,37.7 344.1,37.7 344.9,37.7 345.8,37.7 346.6,37.7 347.5,37.7 348.3,37.7 349.1,37.7 350.0,37.7 350.8,37.7 351.7,37.7 352.5,37.7 353.3,37.7 354.1,37.7 355.0,37.7 355.8,37.7 356.6,37.7 357.5,37.7 358.3,37.7 359.1,37.7 360.0,37.7 360.8,37.7 361.6,37.7 362.5,37.7 363.3,37.7 364.1,37.7 364.9,37.7 365.8,37.7 366.6,37.7 367.4,37.7 368.2,37.7 369.1,37.7 369.9,37.7 370.7,37.7 371.6,37.7 372.4,37.7 373.2,37.7 374.0,37.7 374.8,37.7 375.6,37.7 376.5,37.7 377.3,37.7 378.1,37.7 378.9,37.7 379.7,37.7 380.5,37.7 381.4,37.7 382.2,37.7 383.0,37.7 383.8,37.7 384.6,37.7 385.5,37.7 386.3,37.7 387.1,37.7 387.9,37.7 388.7,37.7 389.5,37.7 390.3,37.7 391.2,37.7 392.0,37.7 392.8,37.7 393.6,37.7 394.4,37.7 395.2,37.7 396.0,37.7 396.8,37.7 397.6,37.7 398.5,37.7 L398.5,171.0 L37.5,171.0 Z" fill="url(#g219)"/>
  <defs><clipPath id="pc220"><rect x="34" y="16" width="365" height="155"/></clipPath></defs>
  <polyline points="37.5,47.0 70.8,47.0 90.3,47.0 104.1,47.0 114.8,47.0 123.6,47.0 131.0,47.0 137.4,47.0 143.1,47.0 148.1,47.0 152.7,47.0 156.9,47.0 160.7,47.0 164.3,47.0 167.6,47.0 170.7,47.0 173.6,47.0 176.3,47.0 178.9,47.0 181.4,47.0 183.7,47.0 186.0,47.0 188.1,47.0 190.2,47.0 192.1,46.9 194.0,46.9 195.8,46.9 197.6,46.9 199.2,46.9 200.9,46.9 202.4,46.9 204.0,46.9 205.5,46.8 206.9,46.8 208.3,46.8 209.6,46.8 210.9,46.8 212.2,46.7 213.5,46.7 214.7,46.7 215.9,46.6 217.0,46.6 218.2,46.6 219.3,46.5 220.3,46.5 221.4,46.4 222.4,46.4 223.4,46.3 224.4,46.3 225.4,46.2 226.4,46.2 227.3,46.1 228.2,46.1 229.1,46.0 230.0,45.9 230.8,45.9 231.7,45.8 232.5,45.7 233.4,45.6 234.2,45.6 235.7,45.4 237.3,45.2 238.7,45.0 240.2,44.9 241.6,44.7 242.9,44.5 244.2,44.3 245.5,44.1 246.8,43.9 248.0,43.7 249.2,43.4 250.3,43.2 251.4,43.0 252.6,42.8 253.6,42.6 254.7,42.4 255.7,42.2 256.7,42.1 257.7,41.9 258.7,41.7 259.6,41.5 260.6,41.3 261.5,41.2 262.4,41.0 263.3,40.9 264.1,40.7 265.0,40.6 265.8,40.5 266.6,40.3 267.4,40.2 268.6,40.0 269.8,39.9 270.9,39.7 272.0,39.6 273.1,39.5 274.2,39.3 275.2,39.2 276.2,39.1 277.2,39.0 278.2,38.9 279.1,38.9 280.0,38.8 281.0,38.7 281.9,38.6 282.7,38.6 283.6,38.5 284.5,38.5 285.3,38.4 286.1,38.4 286.9,38.3 288.0,38.3 289.0,38.2 290.0,38.2 291.0,38.2 292.0,38.1 292.9,38.1 293.9,38.1 294.8,38.0 295.7,38.0 296.6,38.0 297.4,38.0 298.3,38.0 299.1,37.9 299.9,37.9 300.7,37.9 301.7,37.9 302.7,37.9 303.6,37.9 304.6,37.9 305.5,37.8 306.4,37.8 307.3,37.8 308.1,37.8 309.0,37.8 309.8,37.8 310.6,37.8 311.4,37.8 312.4,37.8 313.3,37.8 314.2,37.8 315.1,37.8 316.0,37.8 316.9,37.8 317.7,37.8 318.6,37.7 319.4,37.7 320.2,37.7 321.1,37.7 322.0,37.7 322.9,37.7 323.8,37.7 324.7,37.7 325.5,37.7 326.3,37.7 327.1,37.7 327.9,37.7 328.8,37.7 329.7,37.7 330.6,37.7 331.4,37.7 332.3,37.7 333.1,37.7 333.9,37.7 334.8,37.7 335.7,37.7 336.5,37.7 337.4,37.7 338.2,37.7 339.0,37.7 339.8,37.7 340.7,37.7 341.6,37.7 342.4,37.7 343.3,37.7 344.1,37.7 344.9,37.7 345.8,37.7 346.6,37.7 347.5,37.7 348.3,37.7 349.1,37.7 350.0,37.7 350.8,37.7 351.7,37.7 352.5,37.7 353.3,37.7 354.1,37.7 355.0,37.7 355.8,37.7 356.6,37.7 357.5,37.7 358.3,37.7 359.1,37.7 360.0,37.7 360.8,37.7 361.6,37.7 362.5,37.7 363.3,37.7 364.1,37.7 364.9,37.7 365.8,37.7 366.6,37.7 367.4,37.7 368.2,37.7 369.1,37.7 369.9,37.7 370.7,37.7 371.6,37.7 372.4,37.7 373.2,37.7 374.0,37.7 374.8,37.7 375.6,37.7 376.5,37.7 377.3,37.7 378.1,37.7 378.9,37.7 379.7,37.7 380.5,37.7 381.4,37.7 382.2,37.7 383.0,37.7 383.8,37.7 384.6,37.7 385.5,37.7 386.3,37.7 387.1,37.7 387.9,37.7 388.7,37.7 389.5,37.7 390.3,37.7 391.2,37.7 392.0,37.7 392.8,37.7 393.6,37.7 394.4,37.7 395.2,37.7 396.0,37.7 396.8,37.7 397.6,37.7 398.5,37.7" fill="none" stroke="#4a90d9" stroke-width="1.5" stroke-linejoin="round" clip-path="url(#pc220)"/>
  <line x1="435" y1="16" x2="435" y2="171" stroke="#d1d5db"/>
  <line x1="435" y1="93.5" x2="800" y2="93.5" stroke="#d1d5db"/>
  <text x="617.5" y="197" text-anchor="middle" font-size="9" fill="#6b7280">Hz</text>
  <text x="413" y="93.5" text-anchor="middle" font-size="9" fill="#6b7280" transform="rotate(-90 413 93.5)">Phase (deg)</text>
  <line x1="468.3" y1="16" x2="468.3" y2="171" stroke="#e5e7eb" stroke-width="0.5"/>
  <line x1="487.8" y1="16" x2="487.8" y2="171" stroke="#e5e7eb" stroke-width="0.5"/>
  <line x1="501.6" y1="16" x2="501.6" y2="171" stroke="#e5e7eb" stroke-width="0.5"/>
  <line x1="512.3" y1="16" x2="512.3" y2="171" stroke="#e5e7eb" stroke-width="0.5"/>
  <line x1="521.0" y1="16" x2="521.0" y2="171" stroke="#e5e7eb" stroke-width="0.5"/>
  <line x1="528.4" y1="16" x2="528.4" y2="171" stroke="#e5e7eb" stroke-width="0.5"/>
  <line x1="534.9" y1="16" x2="534.9" y2="171" stroke="#e5e7eb" stroke-width="0.5"/>
  <line x1="540.5" y1="16" x2="540.5" y2="171" stroke="#e5e7eb" stroke-width="0.5"/>
  <line x1="578.9" y1="16" x2="578.9" y2="171" stroke="#e5e7eb" stroke-width="0.5"/>
  <line x1="598.3" y1="16" x2="598.3" y2="171" stroke="#e5e7eb" stroke-width="0.5"/>
  <line x1="612.1" y1="16" x2="612.1" y2="171" stroke="#e5e7eb" stroke-width="0.5"/>
  <line x1="622.9" y1="16" x2="622.9" y2="171" stroke="#e5e7eb" stroke-width="0.5"/>
  <line x1="631.6" y1="16" x2="631.6" y2="171" stroke="#e5e7eb" stroke-width="0.5"/>
  <line x1="639.0" y1="16" x2="639.0" y2="171" stroke="#e5e7eb" stroke-width="0.5"/>
  <line x1="645.4" y1="16" x2="645.4" y2="171" stroke="#e5e7eb" stroke-width="0.5"/>
  <line x1="651.1" y1="16" x2="651.1" y2="171" stroke="#e5e7eb" stroke-width="0.5"/>
  <line x1="689.4" y1="16" x2="689.4" y2="171" stroke="#e5e7eb" stroke-width="0.5"/>
  <line x1="708.9" y1="16" x2="708.9" y2="171" stroke="#e5e7eb" stroke-width="0.5"/>
  <line x1="722.7" y1="16" x2="722.7" y2="171" stroke="#e5e7eb" stroke-width="0.5"/>
  <line x1="733.4" y1="16" x2="733.4" y2="171" stroke="#e5e7eb" stroke-width="0.5"/>
  <line x1="742.2" y1="16" x2="742.2" y2="171" stroke="#e5e7eb" stroke-width="0.5"/>
  <line x1="749.6" y1="16" x2="749.6" y2="171" stroke="#e5e7eb" stroke-width="0.5"/>
  <line x1="756.0" y1="16" x2="756.0" y2="171" stroke="#e5e7eb" stroke-width="0.5"/>
  <line x1="761.7" y1="16" x2="761.7" y2="171" stroke="#e5e7eb" stroke-width="0.5"/>
  <line x1="800.0" y1="16" x2="800.0" y2="171" stroke="#e5e7eb" stroke-width="0.5"/>
  <line x1="545.6" y1="16" x2="545.6" y2="171" stroke="#e5e7eb" stroke-width="0.5"/>
  <text x="545.6" y="183" text-anchor="middle" font-size="8" fill="#6b7280">100</text>
  <line x1="656.1" y1="16" x2="656.1" y2="171" stroke="#e5e7eb" stroke-width="0.5"/>
  <text x="656.1" y="183" text-anchor="middle" font-size="8" fill="#6b7280">1k</text>
  <line x1="766.7" y1="16" x2="766.7" y2="171" stroke="#e5e7eb" stroke-width="0.5"/>
  <text x="766.7" y="183" text-anchor="middle" font-size="8" fill="#6b7280">10k</text>
  <line x1="435" y1="54.8" x2="800" y2="54.8" stroke="#e5e7eb" stroke-width="0.5"/>
  <line x1="435" y1="132.3" x2="800" y2="132.3" stroke="#e5e7eb" stroke-width="0.5"/>
  <line x1="435" y1="16.0" x2="800" y2="16.0" stroke="#e5e7eb" stroke-width="0.5"/>
  <text x="431" y="19.0" text-anchor="end" font-size="8" fill="#6b7280">180</text>
  <text x="431" y="96.5" text-anchor="end" font-size="8" fill="#6b7280">0</text>
  <line x1="435" y1="171.0" x2="800" y2="171.0" stroke="#e5e7eb" stroke-width="0.5"/>
  <text x="431" y="174.0" text-anchor="end" font-size="8" fill="#6b7280">-180</text>
  <line x1="656.1" y1="16" x2="656.1" y2="171" stroke="#d1d5db" stroke-width="1" stroke-dasharray="4 3"/>
  <defs><linearGradient id="g221" x1="0" y1="16" x2="0" y2="93.5" gradientUnits="userSpaceOnUse">
    <stop offset="0%" stop-color="#e74c3c" stop-opacity="0.15"/>
    <stop offset="100%" stop-color="#e74c3c" stop-opacity="0.02"/>
  </linearGradient></defs>
  <path d="M438.5,93.4 438.5,93.4 471.8,93.2 491.3,93.1 505.1,93.0 515.8,92.8 524.6,92.7 532.0,92.6 538.4,92.5 544.1,92.3 549.1,92.2 553.7,92.0 557.9,91.9 561.7,91.8 565.3,91.6 568.6,91.5 571.7,91.4 574.6,91.2 577.3,91.1 579.9,90.9 582.4,90.8 584.7,90.6 587.0,90.5 589.1,90.3 591.2,90.2 593.1,90.0 595.0,89.9 596.8,89.7 598.6,89.5 600.2,89.4 601.9,89.2 603.4,89.1 605.0,88.9 606.5,88.7 607.9,88.6 609.3,88.4 610.6,88.2 611.9,88.0 613.2,87.9 614.5,87.7 615.7,87.5 616.9,87.3 618.0,87.2 619.2,87.0 620.3,86.8 621.3,86.6 622.4,86.5 623.4,86.3 624.4,86.1 625.4,85.9 626.4,85.8 627.4,85.6 628.3,85.4 629.2,85.2 630.1,85.1 631.0,84.9 631.8,84.8 632.7,84.6 633.5,84.4 634.4,84.3 635.2,84.1 636.7,83.8 638.3,83.6 639.7,83.3 641.2,83.0 642.6,82.8 643.9,82.6 645.2,82.4 646.5,82.3 647.8,82.1 649.0,82.0 650.2,81.9 651.3,81.8 652.4,81.7 653.6,81.7 654.6,81.6 655.7,81.6 656.7,81.6 657.7,81.6 658.7,81.7 659.7,81.7 660.6,81.8 661.6,81.8 662.5,81.9 663.4,82.0 664.3,82.1 665.1,82.2 666.0,82.3 666.8,82.4 667.6,82.5 668.4,82.6 669.6,82.8 670.8,83.0 671.9,83.2 673.0,83.4 674.1,83.6 675.2,83.8 676.2,84.0 677.2,84.2 678.2,84.3 679.2,84.5 680.1,84.7 681.0,84.9 682.0,85.1 682.9,85.2 683.7,85.4 684.6,85.6 685.5,85.7 686.3,85.9 687.1,86.0 687.9,86.2 689.0,86.3 690.0,86.5 691.0,86.7 692.0,86.8 693.0,87.0 693.9,87.2 694.9,87.3 695.8,87.4 696.7,87.6 697.6,87.7 698.4,87.8 699.3,87.9 700.1,88.1 700.9,88.2 701.7,88.3 702.7,88.4 703.7,88.5 704.6,88.6 705.6,88.8 706.5,88.9 707.4,89.0 708.3,89.1 709.1,89.2 710.0,89.2 710.8,89.3 711.6,89.4 712.4,89.5 713.4,89.6 714.3,89.7 715.2,89.8 716.1,89.8 717.0,89.9 717.9,90.0 718.7,90.1 719.6,90.1 720.4,90.2 721.2,90.3 722.1,90.3 723.0,90.4 723.9,90.5 724.8,90.5 725.7,90.6 726.5,90.7 727.3,90.7 728.1,90.8 728.9,90.8 729.8,90.9 730.7,90.9 731.6,91.0 732.4,91.0 733.3,91.1 734.1,91.1 734.9,91.2 735.8,91.2 736.7,91.3 737.5,91.3 738.4,91.4 739.2,91.4 740.0,91.5 740.8,91.5 741.7,91.5 742.6,91.6 743.4,91.6 744.3,91.7 745.1,91.7 745.9,91.7 746.8,91.8 747.6,91.8 748.5,91.8 749.3,91.9 750.1,91.9 751.0,91.9 751.8,92.0 752.7,92.0 753.5,92.0 754.3,92.1 755.1,92.1 756.0,92.1 756.8,92.2 757.6,92.2 758.5,92.2 759.3,92.3 760.1,92.3 761.0,92.3 761.8,92.3 762.6,92.4 763.5,92.4 764.3,92.4 765.1,92.4 765.9,92.5 766.8,92.5 767.6,92.5 768.4,92.5 769.2,92.6 770.1,92.6 770.9,92.6 771.7,92.6 772.6,92.7 773.4,92.7 774.2,92.7 775.0,92.7 775.8,92.8 776.6,92.8 777.5,92.8 778.3,92.8 779.1,92.8 779.9,92.9 780.7,92.9 781.5,92.9 782.4,92.9 783.2,92.9 784.0,93.0 784.8,93.0 785.6,93.0 786.5,93.0 787.3,93.1 788.1,93.1 788.9,93.1 789.7,93.1 790.5,93.1 791.3,93.2 792.2,93.2 793.0,93.2 793.8,93.2 794.6,93.2 795.4,93.3 796.2,93.3 797.0,93.3 797.8,93.3 798.6,93.3 799.5,93.4 L799.5,93.5 L438.5,93.5 Z" fill="url(#g221)"/>
  <defs><clipPath id="pc222"><rect x="435" y="16" width="365" height="155"/></clipPath></defs>
  <polyline points="438.5,93.4 471.8,93.2 491.3,93.1 505.1,93.0 515.8,92.8 524.6,92.7 532.0,92.6 538.4,92.5 544.1,92.3 549.1,92.2 553.7,92.0 557.9,91.9 561.7,91.8 565.3,91.6 568.6,91.5 571.7,91.4 574.6,91.2 577.3,91.1 579.9,90.9 582.4,90.8 584.7,90.6 587.0,90.5 589.1,90.3 591.2,90.2 593.1,90.0 595.0,89.9 596.8,89.7 598.6,89.5 600.2,89.4 601.9,89.2 603.4,89.1 605.0,88.9 606.5,88.7 607.9,88.6 609.3,88.4 610.6,88.2 611.9,88.0 613.2,87.9 614.5,87.7 615.7,87.5 616.9,87.3 618.0,87.2 619.2,87.0 620.3,86.8 621.3,86.6 622.4,86.5 623.4,86.3 624.4,86.1 625.4,85.9 626.4,85.8 627.4,85.6 628.3,85.4 629.2,85.2 630.1,85.1 631.0,84.9 631.8,84.8 632.7,84.6 633.5,84.4 634.4,84.3 635.2,84.1 636.7,83.8 638.3,83.6 639.7,83.3 641.2,83.0 642.6,82.8 643.9,82.6 645.2,82.4 646.5,82.3 647.8,82.1 649.0,82.0 650.2,81.9 651.3,81.8 652.4,81.7 653.6,81.7 654.6,81.6 655.7,81.6 656.7,81.6 657.7,81.6 658.7,81.7 659.7,81.7 660.6,81.8 661.6,81.8 662.5,81.9 663.4,82.0 664.3,82.1 665.1,82.2 666.0,82.3 666.8,82.4 667.6,82.5 668.4,82.6 669.6,82.8 670.8,83.0 671.9,83.2 673.0,83.4 674.1,83.6 675.2,83.8 676.2,84.0 677.2,84.2 678.2,84.3 679.2,84.5 680.1,84.7 681.0,84.9 682.0,85.1 682.9,85.2 683.7,85.4 684.6,85.6 685.5,85.7 686.3,85.9 687.1,86.0 687.9,86.2 689.0,86.3 690.0,86.5 691.0,86.7 692.0,86.8 693.0,87.0 693.9,87.2 694.9,87.3 695.8,87.4 696.7,87.6 697.6,87.7 698.4,87.8 699.3,87.9 700.1,88.1 700.9,88.2 701.7,88.3 702.7,88.4 703.7,88.5 704.6,88.6 705.6,88.8 706.5,88.9 707.4,89.0 708.3,89.1 709.1,89.2 710.0,89.2 710.8,89.3 711.6,89.4 712.4,89.5 713.4,89.6 714.3,89.7 715.2,89.8 716.1,89.8 717.0,89.9 717.9,90.0 718.7,90.1 719.6,90.1 720.4,90.2 721.2,90.3 722.1,90.3 723.0,90.4 723.9,90.5 724.8,90.5 725.7,90.6 726.5,90.7 727.3,90.7 728.1,90.8 728.9,90.8 729.8,90.9 730.7,90.9 731.6,91.0 732.4,91.0 733.3,91.1 734.1,91.1 734.9,91.2 735.8,91.2 736.7,91.3 737.5,91.3 738.4,91.4 739.2,91.4 740.0,91.5 740.8,91.5 741.7,91.5 742.6,91.6 743.4,91.6 744.3,91.7 745.1,91.7 745.9,91.7 746.8,91.8 747.6,91.8 748.5,91.8 749.3,91.9 750.1,91.9 751.0,91.9 751.8,92.0 752.7,92.0 753.5,92.0 754.3,92.1 755.1,92.1 756.0,92.1 756.8,92.2 757.6,92.2 758.5,92.2 759.3,92.3 760.1,92.3 761.0,92.3 761.8,92.3 762.6,92.4 763.5,92.4 764.3,92.4 765.1,92.4 765.9,92.5 766.8,92.5 767.6,92.5 768.4,92.5 769.2,92.6 770.1,92.6 770.9,92.6 771.7,92.6 772.6,92.7 773.4,92.7 774.2,92.7 775.0,92.7 775.8,92.8 776.6,92.8 777.5,92.8 778.3,92.8 779.1,92.8 779.9,92.9 780.7,92.9 781.5,92.9 782.4,92.9 783.2,92.9 784.0,93.0 784.8,93.0 785.6,93.0 786.5,93.0 787.3,93.1 788.1,93.1 788.9,93.1 789.7,93.1 790.5,93.1 791.3,93.2 792.2,93.2 793.0,93.2 793.8,93.2 794.6,93.2 795.4,93.3 796.2,93.3 797.0,93.3 797.8,93.3 798.6,93.3 799.5,93.4" fill="none" stroke="#e74c3c" stroke-width="1.5" stroke-linejoin="round" clip-path="url(#pc222)"/>
  <line x1="34" y1="207" x2="34" y2="362" stroke="#d1d5db"/>
  <line x1="34" y1="284.5" x2="399" y2="284.5" stroke="#d1d5db"/>
  <text x="216.5" y="388" text-anchor="middle" font-size="9" fill="#6b7280">Hz</text>
  <text x="12" y="284.5" text-anchor="middle" font-size="9" fill="#6b7280" transform="rotate(-90 12 284.5)">Group delay</text>
  <line x1="67.3" y1="207" x2="67.3" y2="362" stroke="#e5e7eb" stroke-width="0.5"/>
  <line x1="86.8" y1="207" x2="86.8" y2="362" stroke="#e5e7eb" stroke-width="0.5"/>
  <line x1="100.6" y1="207" x2="100.6" y2="362" stroke="#e5e7eb" stroke-width="0.5"/>
  <line x1="111.3" y1="207" x2="111.3" y2="362" stroke="#e5e7eb" stroke-width="0.5"/>
  <line x1="120.0" y1="207" x2="120.0" y2="362" stroke="#e5e7eb" stroke-width="0.5"/>
  <line x1="127.4" y1="207" x2="127.4" y2="362" stroke="#e5e7eb" stroke-width="0.5"/>
  <line x1="133.9" y1="207" x2="133.9" y2="362" stroke="#e5e7eb" stroke-width="0.5"/>
  <line x1="139.5" y1="207" x2="139.5" y2="362" stroke="#e5e7eb" stroke-width="0.5"/>
  <line x1="177.9" y1="207" x2="177.9" y2="362" stroke="#e5e7eb" stroke-width="0.5"/>
  <line x1="197.3" y1="207" x2="197.3" y2="362" stroke="#e5e7eb" stroke-width="0.5"/>
  <line x1="211.1" y1="207" x2="211.1" y2="362" stroke="#e5e7eb" stroke-width="0.5"/>
  <line x1="221.9" y1="207" x2="221.9" y2="362" stroke="#e5e7eb" stroke-width="0.5"/>
  <line x1="230.6" y1="207" x2="230.6" y2="362" stroke="#e5e7eb" stroke-width="0.5"/>
  <line x1="238.0" y1="207" x2="238.0" y2="362" stroke="#e5e7eb" stroke-width="0.5"/>
  <line x1="244.4" y1="207" x2="244.4" y2="362" stroke="#e5e7eb" stroke-width="0.5"/>
  <line x1="250.1" y1="207" x2="250.1" y2="362" stroke="#e5e7eb" stroke-width="0.5"/>
  <line x1="288.4" y1="207" x2="288.4" y2="362" stroke="#e5e7eb" stroke-width="0.5"/>
  <line x1="307.9" y1="207" x2="307.9" y2="362" stroke="#e5e7eb" stroke-width="0.5"/>
  <line x1="321.7" y1="207" x2="321.7" y2="362" stroke="#e5e7eb" stroke-width="0.5"/>
  <line x1="332.4" y1="207" x2="332.4" y2="362" stroke="#e5e7eb" stroke-width="0.5"/>
  <line x1="341.2" y1="207" x2="341.2" y2="362" stroke="#e5e7eb" stroke-width="0.5"/>
  <line x1="348.6" y1="207" x2="348.6" y2="362" stroke="#e5e7eb" stroke-width="0.5"/>
  <line x1="355.0" y1="207" x2="355.0" y2="362" stroke="#e5e7eb" stroke-width="0.5"/>
  <line x1="360.7" y1="207" x2="360.7" y2="362" stroke="#e5e7eb" stroke-width="0.5"/>
  <line x1="399.0" y1="207" x2="399.0" y2="362" stroke="#e5e7eb" stroke-width="0.5"/>
  <line x1="144.6" y1="207" x2="144.6" y2="362" stroke="#e5e7eb" stroke-width="0.5"/>
  <text x="144.6" y="374" text-anchor="middle" font-size="8" fill="#6b7280">100</text>
  <line x1="255.1" y1="207" x2="255.1" y2="362" stroke="#e5e7eb" stroke-width="0.5"/>
  <text x="255.1" y="374" text-anchor="middle" font-size="8" fill="#6b7280">1k</text>
  <line x1="365.7" y1="207" x2="365.7" y2="362" stroke="#e5e7eb" stroke-width="0.5"/>
  <text x="365.7" y="374" text-anchor="middle" font-size="8" fill="#6b7280">10k</text>
  <line x1="34" y1="332.0" x2="399" y2="332.0" stroke="#e5e7eb" stroke-width="0.5"/>
  <text x="30" y="335.0" text-anchor="end" font-size="8" fill="#6b7280">-4</text>
  <text x="30" y="287.5" text-anchor="end" font-size="8" fill="#6b7280">0</text>
  <line x1="34" y1="237.0" x2="399" y2="237.0" stroke="#e5e7eb" stroke-width="0.5"/>
  <text x="30" y="240.0" text-anchor="end" font-size="8" fill="#6b7280">4</text>
  <line x1="255.1" y1="207" x2="255.1" y2="362" stroke="#d1d5db" stroke-width="1" stroke-dasharray="4 3"/>
  <defs><linearGradient id="g223" x1="0" y1="362" x2="0" y2="284.5" gradientUnits="userSpaceOnUse">
    <stop offset="0%" stop-color="#2ecc71" stop-opacity="0.15"/>
    <stop offset="100%" stop-color="#2ecc71" stop-opacity="0.02"/>
  </linearGradient></defs>
  <path d="M37.5,284.5 37.5,284.5 70.8,284.5 90.3,284.5 104.1,284.5 114.8,284.5 123.6,284.4 131.0,284.4 137.4,284.3 143.1,284.3 148.1,284.2 152.7,284.1 156.9,284.0 160.7,283.8 164.3,283.6 167.6,283.5 170.7,283.2 173.6,283.0 176.3,282.7 178.9,282.4 181.4,282.0 183.7,281.6 186.0,281.2 188.1,280.8 190.2,280.3 192.1,279.7 194.0,279.1 195.8,278.5 197.6,277.8 199.2,277.1 200.9,276.4 202.4,275.6 204.0,274.7 205.5,273.8 206.9,272.9 208.3,271.9 209.6,270.8 210.9,269.7 212.2,268.6 213.5,267.5 214.7,266.3 215.9,265.0 217.0,263.7 218.2,262.4 219.3,261.1 220.3,259.7 221.4,258.3 222.4,256.9 223.4,255.5 224.4,254.1 225.4,252.6 226.4,251.2 227.3,249.7 228.2,248.3 229.1,246.9 230.0,245.4 230.8,244.0 231.7,242.6 232.5,241.3 233.4,240.0 234.2,238.7 235.7,236.2 237.3,234.0 238.7,231.9 240.2,230.1 241.6,228.6 242.9,227.3 244.2,226.3 245.5,225.6 246.8,225.1 248.0,224.9 249.2,224.9 250.3,225.2 251.4,225.7 252.6,226.4 253.6,227.3 254.7,228.4 255.7,229.6 256.7,230.9 257.7,232.3 258.7,233.8 259.6,235.4 260.6,237.0 261.5,238.7 262.4,240.3 263.3,242.0 264.1,243.7 265.0,245.4 265.8,247.0 266.6,248.6 267.4,250.2 268.6,252.5 269.8,254.7 270.9,256.7 272.0,258.7 273.1,260.6 274.2,262.3 275.2,263.9 276.2,265.4 277.2,266.8 278.2,268.1 279.1,269.3 280.0,270.5 281.0,271.5 281.9,272.5 282.7,273.3 283.6,274.1 284.5,274.9 285.3,275.6 286.1,276.2 286.9,276.8 288.0,277.5 289.0,278.2 290.0,278.7 291.0,279.2 292.0,279.7 292.9,280.1 293.9,280.5 294.8,280.8 295.7,281.2 296.6,281.4 297.4,281.7 298.3,281.9 299.1,282.1 299.9,282.3 300.7,282.5 301.7,282.7 302.7,282.8 303.6,283.0 304.6,283.1 305.5,283.3 306.4,283.4 307.3,283.5 308.1,283.5 309.0,283.6 309.8,283.7 310.6,283.8 311.4,283.8 312.4,283.9 313.3,283.9 314.2,284.0 315.1,284.0 316.0,284.1 316.9,284.1 317.7,284.1 318.6,284.2 319.4,284.2 320.2,284.2 321.1,284.3 322.0,284.3 322.9,284.3 323.8,284.3 324.7,284.3 325.5,284.3 326.3,284.4 327.1,284.4 327.9,284.4 328.8,284.4 329.7,284.4 330.6,284.4 331.4,284.4 332.3,284.4 333.1,284.4 333.9,284.4 334.8,284.4 335.7,284.4 336.5,284.5 337.4,284.5 338.2,284.5 339.0,284.5 339.8,284.5 340.7,284.5 341.6,284.5 342.4,284.5 343.3,284.5 344.1,284.5 344.9,284.5 345.8,284.5 346.6,284.5 347.5,284.5 348.3,284.5 349.1,284.5 350.0,284.5 350.8,284.5 351.7,284.5 352.5,284.5 353.3,284.5 354.1,284.5 355.0,284.5 355.8,284.5 356.6,284.5 357.5,284.5 358.3,284.5 359.1,284.5 360.0,284.5 360.8,284.5 361.6,284.5 362.5,284.5 363.3,284.5 364.1,284.5 364.9,284.5 365.8,284.5 366.6,284.5 367.4,284.5 368.2,284.5 369.1,284.5 369.9,284.5 370.7,284.5 371.6,284.5 372.4,284.5 373.2,284.5 374.0,284.5 374.8,284.5 375.6,284.5 376.5,284.5 377.3,284.5 378.1,284.5 378.9,284.5 379.7,284.5 380.5,284.5 381.4,284.5 382.2,284.5 383.0,284.5 383.8,284.5 384.6,284.5 385.5,284.5 386.3,284.5 387.1,284.5 387.9,284.5 388.7,284.5 389.5,284.5 390.3,284.5 391.2,284.5 392.0,284.5 392.8,284.5 393.6,284.5 394.4,284.5 395.2,284.5 396.0,284.5 396.8,284.5 397.6,284.5 398.5,284.5 L398.5,284.5 L37.5,284.5 Z" fill="url(#g223)"/>
  <defs><clipPath id="pc224"><rect x="34" y="207" width="365" height="155"/></clipPath></defs>
  <polyline points="37.5,284.5 70.8,284.5 90.3,284.5 104.1,284.5 114.8,284.5 123.6,284.4 131.0,284.4 137.4,284.3 143.1,284.3 148.1,284.2 152.7,284.1 156.9,284.0 160.7,283.8 164.3,283.6 167.6,283.5 170.7,283.2 173.6,283.0 176.3,282.7 178.9,282.4 181.4,282.0 183.7,281.6 186.0,281.2 188.1,280.8 190.2,280.3 192.1,279.7 194.0,279.1 195.8,278.5 197.6,277.8 199.2,277.1 200.9,276.4 202.4,275.6 204.0,274.7 205.5,273.8 206.9,272.9 208.3,271.9 209.6,270.8 210.9,269.7 212.2,268.6 213.5,267.5 214.7,266.3 215.9,265.0 217.0,263.7 218.2,262.4 219.3,261.1 220.3,259.7 221.4,258.3 222.4,256.9 223.4,255.5 224.4,254.1 225.4,252.6 226.4,251.2 227.3,249.7 228.2,248.3 229.1,246.9 230.0,245.4 230.8,244.0 231.7,242.6 232.5,241.3 233.4,240.0 234.2,238.7 235.7,236.2 237.3,234.0 238.7,231.9 240.2,230.1 241.6,228.6 242.9,227.3 244.2,226.3 245.5,225.6 246.8,225.1 248.0,224.9 249.2,224.9 250.3,225.2 251.4,225.7 252.6,226.4 253.6,227.3 254.7,228.4 255.7,229.6 256.7,230.9 257.7,232.3 258.7,233.8 259.6,235.4 260.6,237.0 261.5,238.7 262.4,240.3 263.3,242.0 264.1,243.7 265.0,245.4 265.8,247.0 266.6,248.6 267.4,250.2 268.6,252.5 269.8,254.7 270.9,256.7 272.0,258.7 273.1,260.6 274.2,262.3 275.2,263.9 276.2,265.4 277.2,266.8 278.2,268.1 279.1,269.3 280.0,270.5 281.0,271.5 281.9,272.5 282.7,273.3 283.6,274.1 284.5,274.9 285.3,275.6 286.1,276.2 286.9,276.8 288.0,277.5 289.0,278.2 290.0,278.7 291.0,279.2 292.0,279.7 292.9,280.1 293.9,280.5 294.8,280.8 295.7,281.2 296.6,281.4 297.4,281.7 298.3,281.9 299.1,282.1 299.9,282.3 300.7,282.5 301.7,282.7 302.7,282.8 303.6,283.0 304.6,283.1 305.5,283.3 306.4,283.4 307.3,283.5 308.1,283.5 309.0,283.6 309.8,283.7 310.6,283.8 311.4,283.8 312.4,283.9 313.3,283.9 314.2,284.0 315.1,284.0 316.0,284.1 316.9,284.1 317.7,284.1 318.6,284.2 319.4,284.2 320.2,284.2 321.1,284.3 322.0,284.3 322.9,284.3 323.8,284.3 324.7,284.3 325.5,284.3 326.3,284.4 327.1,284.4 327.9,284.4 328.8,284.4 329.7,284.4 330.6,284.4 331.4,284.4 332.3,284.4 333.1,284.4 333.9,284.4 334.8,284.4 335.7,284.4 336.5,284.5 337.4,284.5 338.2,284.5 339.0,284.5 339.8,284.5 340.7,284.5 341.6,284.5 342.4,284.5 343.3,284.5 344.1,284.5 344.9,284.5 345.8,284.5 346.6,284.5 347.5,284.5 348.3,284.5 349.1,284.5 350.0,284.5 350.8,284.5 351.7,284.5 352.5,284.5 353.3,284.5 354.1,284.5 355.0,284.5 355.8,284.5 356.6,284.5 357.5,284.5 358.3,284.5 359.1,284.5 360.0,284.5 360.8,284.5 361.6,284.5 362.5,284.5 363.3,284.5 364.1,284.5 364.9,284.5 365.8,284.5 366.6,284.5 367.4,284.5 368.2,284.5 369.1,284.5 369.9,284.5 370.7,284.5 371.6,284.5 372.4,284.5 373.2,284.5 374.0,284.5 374.8,284.5 375.6,284.5 376.5,284.5 377.3,284.5 378.1,284.5 378.9,284.5 379.7,284.5 380.5,284.5 381.4,284.5 382.2,284.5 383.0,284.5 383.8,284.5 384.6,284.5 385.5,284.5 386.3,284.5 387.1,284.5 387.9,284.5 388.7,284.5 389.5,284.5 390.3,284.5 391.2,284.5 392.0,284.5 392.8,284.5 393.6,284.5 394.4,284.5 395.2,284.5 396.0,284.5 396.8,284.5 397.6,284.5 398.5,284.5" fill="none" stroke="#2ecc71" stroke-width="1.5" stroke-linejoin="round" clip-path="url(#pc224)"/>
  <line x1="435" y1="207" x2="435" y2="362" stroke="#d1d5db"/>
  <line x1="435" y1="284.5" x2="800" y2="284.5" stroke="#d1d5db"/>
  <text x="617.5" y="388" text-anchor="middle" font-size="9" fill="#6b7280">Samples</text>
  <text x="413" y="284.5" text-anchor="middle" font-size="9" fill="#6b7280" transform="rotate(-90 413 284.5)">Impulse response</text>
  <line x1="435.0" y1="207" x2="435.0" y2="362" stroke="#e5e7eb" stroke-width="0.5"/>
  <text x="435.0" y="374" text-anchor="middle" font-size="8" fill="#6b7280">0</text>
  <line x1="526.3" y1="207" x2="526.3" y2="362" stroke="#e5e7eb" stroke-width="0.5"/>
  <text x="526.3" y="374" text-anchor="middle" font-size="8" fill="#6b7280">32</text>
  <line x1="617.5" y1="207" x2="617.5" y2="362" stroke="#e5e7eb" stroke-width="0.5"/>
  <text x="617.5" y="374" text-anchor="middle" font-size="8" fill="#6b7280">64</text>
  <line x1="708.8" y1="207" x2="708.8" y2="362" stroke="#e5e7eb" stroke-width="0.5"/>
  <text x="708.8" y="374" text-anchor="middle" font-size="8" fill="#6b7280">96</text>
  <line x1="800.0" y1="207" x2="800.0" y2="362" stroke="#e5e7eb" stroke-width="0.5"/>
  <text x="800.0" y="374" text-anchor="middle" font-size="8" fill="#6b7280">128</text>
  <text x="431" y="287.5" text-anchor="end" font-size="8" fill="#6b7280">0</text>
  <defs><linearGradient id="g225" x1="0" y1="207" x2="0" y2="284.5" gradientUnits="userSpaceOnUse">
    <stop offset="0%" stop-color="#f39c12" stop-opacity="0.15"/>
    <stop offset="100%" stop-color="#f39c12" stop-opacity="0.02"/>
  </linearGradient></defs>
  <defs><linearGradient id="g226" x1="0" y1="362" x2="0" y2="284.5" gradientUnits="userSpaceOnUse">
    <stop offset="0%" stop-color="#f39c12" stop-opacity="0.15"/>
    <stop offset="100%" stop-color="#f39c12" stop-opacity="0.02"/>
  </linearGradient></defs>
  <defs><clipPath id="c227"><rect x="435" y="207" width="365" height="77.5"/></clipPath></defs>
  <defs><clipPath id="c228"><rect x="435" y="284.5" width="365" height="77.5"/></clipPath></defs>
  <path d="M435.0,207.0 435.0,207.0 437.9,289.9 440.7,289.5 443.6,289.1 446.4,288.7 449.3,288.3 452.1,287.8 455.0,287.4 457.8,287.0 460.7,286.6 463.5,286.2 466.4,285.9 469.2,285.6 472.1,285.4 474.9,285.1 477.8,284.9 480.6,284.8 483.5,284.6 486.3,284.5 489.2,284.4 492.0,284.4 494.9,284.3 497.7,284.3 500.6,284.3 503.4,284.3 506.3,284.2 509.1,284.3 512.0,284.3 514.8,284.3 517.7,284.3 520.5,284.3 523.4,284.3 526.3,284.4 529.1,284.4 532.0,284.4 534.8,284.4 537.7,284.4 540.5,284.4 543.4,284.4 546.2,284.5 549.1,284.5 551.9,284.5 554.8,284.5 557.6,284.5 560.5,284.5 563.3,284.5 566.2,284.5 569.0,284.5 571.9,284.5 574.7,284.5 577.6,284.5 580.4,284.5 583.3,284.5 586.1,284.5 589.0,284.5 591.8,284.5 594.7,284.5 597.5,284.5 600.4,284.5 603.2,284.5 606.1,284.5 608.9,284.5 611.8,284.5 614.6,284.5 617.5,284.5 620.4,284.5 623.2,284.5 626.1,284.5 628.9,284.5 631.8,284.5 634.6,284.5 637.5,284.5 640.3,284.5 643.2,284.5 646.0,284.5 648.9,284.5 651.7,284.5 654.6,284.5 657.4,284.5 660.3,284.5 663.1,284.5 666.0,284.5 668.8,284.5 671.7,284.5 674.5,284.5 677.4,284.5 680.2,284.5 683.1,284.5 685.9,284.5 688.8,284.5 691.6,284.5 694.5,284.5 697.3,284.5 700.2,284.5 703.0,284.5 705.9,284.5 708.8,284.5 711.6,284.5 714.5,284.5 717.3,284.5 720.2,284.5 723.0,284.5 725.9,284.5 728.7,284.5 731.6,284.5 734.4,284.5 737.3,284.5 740.1,284.5 743.0,284.5 745.8,284.5 748.7,284.5 751.5,284.5 754.4,284.5 757.2,284.5 760.1,284.5 762.9,284.5 765.8,284.5 768.6,284.5 771.5,284.5 774.3,284.5 777.2,284.5 780.0,284.5 782.9,284.5 785.7,284.5 788.6,284.5 791.4,284.5 794.3,284.5 797.1,284.5 L797.1,284.5 L435.0,284.5 Z" fill="url(#g225)" clip-path="url(#c227)"/>
  <path d="M435.0,207.0 435.0,207.0 437.9,289.9 440.7,289.5 443.6,289.1 446.4,288.7 449.3,288.3 452.1,287.8 455.0,287.4 457.8,287.0 460.7,286.6 463.5,286.2 466.4,285.9 469.2,285.6 472.1,285.4 474.9,285.1 477.8,284.9 480.6,284.8 483.5,284.6 486.3,284.5 489.2,284.4 492.0,284.4 494.9,284.3 497.7,284.3 500.6,284.3 503.4,284.3 506.3,284.2 509.1,284.3 512.0,284.3 514.8,284.3 517.7,284.3 520.5,284.3 523.4,284.3 526.3,284.4 529.1,284.4 532.0,284.4 534.8,284.4 537.7,284.4 540.5,284.4 543.4,284.4 546.2,284.5 549.1,284.5 551.9,284.5 554.8,284.5 557.6,284.5 560.5,284.5 563.3,284.5 566.2,284.5 569.0,284.5 571.9,284.5 574.7,284.5 577.6,284.5 580.4,284.5 583.3,284.5 586.1,284.5 589.0,284.5 591.8,284.5 594.7,284.5 597.5,284.5 600.4,284.5 603.2,284.5 606.1,284.5 608.9,284.5 611.8,284.5 614.6,284.5 617.5,284.5 620.4,284.5 623.2,284.5 626.1,284.5 628.9,284.5 631.8,284.5 634.6,284.5 637.5,284.5 640.3,284.5 643.2,284.5 646.0,284.5 648.9,284.5 651.7,284.5 654.6,284.5 657.4,284.5 660.3,284.5 663.1,284.5 666.0,284.5 668.8,284.5 671.7,284.5 674.5,284.5 677.4,284.5 680.2,284.5 683.1,284.5 685.9,284.5 688.8,284.5 691.6,284.5 694.5,284.5 697.3,284.5 700.2,284.5 703.0,284.5 705.9,284.5 708.8,284.5 711.6,284.5 714.5,284.5 717.3,284.5 720.2,284.5 723.0,284.5 725.9,284.5 728.7,284.5 731.6,284.5 734.4,284.5 737.3,284.5 740.1,284.5 743.0,284.5 745.8,284.5 748.7,284.5 751.5,284.5 754.4,284.5 757.2,284.5 760.1,284.5 762.9,284.5 765.8,284.5 768.6,284.5 771.5,284.5 774.3,284.5 777.2,284.5 780.0,284.5 782.9,284.5 785.7,284.5 788.6,284.5 791.4,284.5 794.3,284.5 797.1,284.5 L797.1,284.5 L435.0,284.5 Z" fill="url(#g226)" clip-path="url(#c228)"/>
  <defs><clipPath id="pc229"><rect x="435" y="207" width="365" height="155"/></clipPath></defs>
  <polyline points="435.0,207.0 437.9,289.9 440.7,289.5 443.6,289.1 446.4,288.7 449.3,288.3 452.1,287.8 455.0,287.4 457.8,287.0 460.7,286.6 463.5,286.2 466.4,285.9 469.2,285.6 472.1,285.4 474.9,285.1 477.8,284.9 480.6,284.8 483.5,284.6 486.3,284.5 489.2,284.4 492.0,284.4 494.9,284.3 497.7,284.3 500.6,284.3 503.4,284.3 506.3,284.2 509.1,284.3 512.0,284.3 514.8,284.3 517.7,284.3 520.5,284.3 523.4,284.3 526.3,284.4 529.1,284.4 532.0,284.4 534.8,284.4 537.7,284.4 540.5,284.4 543.4,284.4 546.2,284.5 549.1,284.5 551.9,284.5 554.8,284.5 557.6,284.5 560.5,284.5 563.3,284.5 566.2,284.5 569.0,284.5 571.9,284.5 574.7,284.5 577.6,284.5 580.4,284.5 583.3,284.5 586.1,284.5 589.0,284.5 591.8,284.5 594.7,284.5 597.5,284.5 600.4,284.5 603.2,284.5 606.1,284.5 608.9,284.5 611.8,284.5 614.6,284.5 617.5,284.5 620.4,284.5 623.2,284.5 626.1,284.5 628.9,284.5 631.8,284.5 634.6,284.5 637.5,284.5 640.3,284.5 643.2,284.5 646.0,284.5 648.9,284.5 651.7,284.5 654.6,284.5 657.4,284.5 660.3,284.5 663.1,284.5 666.0,284.5 668.8,284.5 671.7,284.5 674.5,284.5 677.4,284.5 680.2,284.5 683.1,284.5 685.9,284.5 688.8,284.5 691.6,284.5 694.5,284.5 697.3,284.5 700.2,284.5 703.0,284.5 705.9,284.5 708.8,284.5 711.6,284.5 714.5,284.5 717.3,284.5 720.2,284.5 723.0,284.5 725.9,284.5 728.7,284.5 731.6,284.5 734.4,284.5 737.3,284.5 740.1,284.5 743.0,284.5 745.8,284.5 748.7,284.5 751.5,284.5 754.4,284.5 757.2,284.5 760.1,284.5 762.9,284.5 765.8,284.5 768.6,284.5 771.5,284.5 774.3,284.5 777.2,284.5 780.0,284.5 782.9,284.5 785.7,284.5 788.6,284.5 791.4,284.5 794.3,284.5 797.1,284.5" fill="none" stroke="#f39c12" stroke-width="1.3" stroke-linejoin="round" clip-path="url(#pc229)"/>
</svg>
