<svg xmlns="http://www.w3.org/2000/svg" viewBox="0 0 820 378" style="font-family:system-ui,-apple-system,sans-serif">
  <text x="800" y="11" text-anchor="end" font-size="11" font-weight="600" fill="#6b7280">Biquad lowpass, fc=1kHz</text>
  <line x1="34" y1="16" x2="34" y2="171" stroke="#d1d5db"/>
  <line x1="34" y1="47.0" x2="399" y2="47.0" stroke="#d1d5db"/>
  <text x="216.5" y="197" text-anchor="middle" font-size="9" fill="#6b7280">Hz</text>
  <text x="12" y="93.5" text-anchor="middle" font-size="9" fill="#6b7280" transform="rotate(-90 12 93.5)">dB</text>
  <line x1="67.3" y1="16" x2="67.3" y2="171" stroke="#e5e7eb" stroke-width="0.5"/>
  <line x1="86.8" y1="16" x2="86.8" y2="171" stroke="#e5e7eb" stroke-width="0.5"/>
  <line x1="100.6" y1="16" x2="100.6" y2="171" stroke="#e5e7eb" stroke-width="0.5"/>
  <line x1="111.3" y1="16" x2="111.3" y2="171" stroke="#e5e7eb" stroke-width="0.5"/>
  <line x1="120.0" y1="16" x2="120.0" y2="171" stroke="#e5e7eb" stroke-width="0.5"/>
  <line x1="127.4" y1="16" x2="127.4" y2="171" stroke="#e5e7eb" stroke-width="0.5"/>
  <line x1="133.9" y1="16" x2="133.9" y2="171" stroke="#e5e7eb" stroke-width="0.5"/>
  <line x1="139.5" y1="16" x2="139.5" y2="171" stroke="#e5e7eb" stroke-width="0.5"/>
  <line x1="177.9" y1="16" x2="177.9" y2="171" stroke="#e5e7eb" stroke-width="0.5"/>
  <line x1="197.3" y1="16" x2="197.3" y2="171" stroke="#e5e7eb" stroke-width="0.5"/>
  <line x1="211.1" y1="16" x2="211.1" y2="171" stroke="#e5e7eb" stroke-width="0.5"/>
  <line x1="221.9" y1="16" x2="221.9" y2="171" stroke="#e5e7eb" stroke-width="0.5"/>
  <line x1="230.6" y1="16" x2="230.6" y2="171" stroke="#e5e7eb" stroke-width="0.5"/>
  <line x1="238.0" y1="16" x2="238.0" y2="171" stroke="#e5e7eb" stroke-width="0.5"/>
  <line x1="244.4" y1="16" x2="244.4" y2="171" stroke="#e5e7eb" stroke-width="0.5"/>
  <line x1="250.1" y1="16" x2="250.1" y2="171" stroke="#e5e7eb" stroke-width="0.5"/>
  <line x1="288.4" y1="16" x2="288.4" y2="171" stroke="#e5e7eb" stroke-width="0.5"/>
  <line x1="307.9" y1="16" x2="307.9" y2="171" stroke="#e5e7eb" stroke-width="0.5"/>
  <line x1="321.7" y1="16" x2="321.7" y2="171" stroke="#e5e7eb" stroke-width="0.5"/>
  <line x1="332.4" y1="16" x2="332.4" y2="171" stroke="#e5e7eb" stroke-width="0.5"/>
  <line x1="341.2" y1="16" x2="341.2" y2="171" stroke="#e5e7eb" stroke-width="0.5"/>
  <line x1="348.6" y1="16" x2="348.6" y2="171" stroke="#e5e7eb" stroke-width="0.5"/>
  <line x1="355.0" y1="16" x2="355.0" y2="171" stroke="#e5e7eb" stroke-width="0.5"/>
  <line x1="360.7" y1="16" x2="360.7" y2="171" stroke="#e5e7eb" stroke-width="0.5"/>
  <line x1="399.0" y1="16" x2="399.0" y2="171" stroke="#e5e7eb" stroke-width="0.5"/>
  <line x1="144.6" y1="16" x2="144.6" y2="171" stroke="#e5e7eb" stroke-width="0.5"/>
  <text x="144.6" y="183" text-anchor="middle" font-size="8" fill="#6b7280">100</text>
  <line x1="255.1" y1="16" x2="255.1" y2="171" stroke="#e5e7eb" stroke-width="0.5"/>
  <text x="255.1" y="183" text-anchor="middle" font-size="8" fill="#6b7280">1k</text>
  <line x1="365.7" y1="16" x2="365.7" y2="171" stroke="#e5e7eb" stroke-width="0.5"/>
  <text x="365.7" y="183" text-anchor="middle" font-size="8" fill="#6b7280">10k</text>
  <line x1="34" y1="31.5" x2="399" y2="31.5" stroke="#e5e7eb" stroke-width="0.5"/>
  <line x1="34" y1="62.5" x2="399" y2="62.5" stroke="#e5e7eb" stroke-width="0.5"/>
  <line x1="34" y1="16.0" x2="399" y2="16.0" stroke="#e5e7eb" stroke-width="0.5"/>
  <text x="30" y="19.0" text-anchor="end" font-size="8" fill="#6b7280">+20</text>
  <text x="30" y="50.0" text-anchor="end" font-size="8" fill="#6b7280">0</text>
  <line x1="34" y1="78.0" x2="399" y2="78.0" stroke="#e5e7eb" stroke-width="0.5"/>
  <text x="30" y="81.0" text-anchor="end" font-size="8" fill="#6b7280">-20</text>
  <line x1="34" y1="109.0" x2="399" y2="109.0" stroke="#e5e7eb" stroke-width="0.5"/>
  <text x="30" y="112.0" text-anchor="end" font-size="8" fill="#6b7280">-40</text>
  <line x1="34" y1="140.0" x2="399" y2="140.0" stroke="#e5e7eb" stroke-width="0.5"/>
  <text x="30" y="143.0" text-anchor="end" font-size="8" fill="#6b7280">-60</text>
  <line x1="34" y1="171.0" x2="399" y2="171.0" stroke="#e5e7eb" stroke-width="0.5"/>
  <text x="30" y="174.0" text-anchor="end" font-size="8" fill="#6b7280">-80</text>
  <line x1="255.1" y1="16" x2="255.1" y2="171" stroke="#d1d5db" stroke-width="1" stroke-dasharray="4 3"/>
  <defs><linearGradient id="g127" x1="0" y1="16" x2="0" y2="171" gradientUnits="userSpaceOnUse">
    <stop offset="0%" stop-color="#4a90d9" stop-opacity="0.15"/>
    <stop offset="100%" stop-color="#4a90d9" stop-opacity="0.02"/>
  </linearGradient></defs>
  <path d="M37.5,47.0 37.5,47.0 70.8,47.0 90.3,47.0 104.1,47.0 114.8,47.0 123.6,47.0 131.0,47.0 137.4,47.0 143.1,46.9 148.1,46.9 152.7,46.9 156.9,46.9 160.7,46.9 164.3,46.8 167.6,46.8 170.7,46.8 173.6,46.8 176.3,46.8 178.9,46.7 181.4,46.7 183.7,46.7 186.0,46.6 188.1,46.6 190.2,46.6 192.1,46.5 194.0,46.5 195.8,46.5 197.6,46.4 199.2,46.4 200.9,46.3 202.4,46.3 204.0,46.3 205.5,46.2 206.9,46.2 208.3,46.1 209.6,46.1 210.9,46.0 212.2,46.0 213.5,45.9 214.7,45.9 215.9,45.9 217.0,45.8 218.2,45.8 219.3,45.7 220.3,45.7 221.4,45.6 222.4,45.6 223.4,45.5 224.4,45.5 225.4,45.5 226.4,45.4 227.3,45.4 228.2,45.3 229.1,45.3 230.0,45.3 230.8,45.2 231.7,45.2 232.5,45.2 233.4,45.1 234.2,45.1 235.7,45.1 237.3,45.1 238.7,45.1 240.2,45.1 241.6,45.1 242.9,45.2 244.2,45.2 245.5,45.3 246.8,45.4 248.0,45.6 249.2,45.7 250.3,45.9 251.4,46.1 252.6,46.3 253.6,46.6 254.7,46.9 255.7,47.2 256.7,47.5 257.7,47.8 258.7,48.1 259.6,48.5 260.6,48.9 261.5,49.2 262.4,49.6 263.3,50.0 264.1,50.4 265.0,50.8 265.8,51.2 266.6,51.7 267.4,52.1 268.6,52.7 269.8,53.3 270.9,54.0 272.0,54.6 273.1,55.2 274.2,55.8 275.2,56.4 276.2,57.0 277.2,57.6 278.2,58.2 279.1,58.7 280.0,59.3 281.0,59.9 281.9,60.4 282.7,60.9 283.6,61.5 284.5,62.0 285.3,62.5 286.1,63.0 286.9,63.5 288.0,64.1 289.0,64.8 290.0,65.4 291.0,66.0 292.0,66.6 292.9,67.2 293.9,67.7 294.8,68.3 295.7,68.8 296.6,69.4 297.4,69.9 298.3,70.4 299.1,70.9 299.9,71.4 300.7,71.9 301.7,72.5 302.7,73.1 303.6,73.7 304.6,74.3 305.5,74.8 306.4,75.4 307.3,75.9 308.1,76.4 309.0,76.9 309.8,77.4 310.6,77.9 311.4,78.4 312.4,79.0 313.3,79.6 314.2,80.1 315.1,80.7 316.0,81.2 316.9,81.7 317.7,82.2 318.6,82.7 319.4,83.2 320.2,83.7 321.1,84.3 322.0,84.8 322.9,85.4 323.8,85.9 324.7,86.4 325.5,86.9 326.3,87.5 327.1,88.0 327.9,88.4 328.8,89.0 329.7,89.5 330.6,90.1 331.4,90.6 332.3,91.1 333.1,91.6 333.9,92.1 334.8,92.7 335.7,93.3 336.5,93.8 337.4,94.3 338.2,94.9 339.0,95.4 339.8,95.9 340.7,96.5 341.6,97.0 342.4,97.6 343.3,98.1 344.1,98.6 344.9,99.2 345.8,99.7 346.6,100.3 347.5,100.8 348.3,101.4 349.1,101.9 350.0,102.5 350.8,103.1 351.7,103.7 352.5,104.3 353.3,104.8 354.1,105.4 355.0,106.0 355.8,106.6 356.6,107.2 357.5,107.8 358.3,108.4 359.1,109.0 360.0,109.6 360.8,110.2 361.6,110.9 362.5,111.5 363.3,112.2 364.1,112.8 364.9,113.5 365.8,114.1 366.6,114.8 367.4,115.5 368.2,116.2 369.1,116.9 369.9,117.6 370.7,118.3 371.6,119.1 372.4,119.8 373.2,120.6 374.0,121.4 374.8,122.2 375.6,123.0 376.5,123.8 377.3,124.7 378.1,125.5 378.9,126.4 379.7,127.3 380.5,128.3 381.4,129.2 382.2,130.2 383.0,131.3 383.8,132.3 384.6,133.4 385.5,134.6 386.3,135.8 387.1,137.0 387.9,138.3 388.7,139.7 389.5,141.2 390.3,142.7 391.2,144.4 392.0,146.1 392.8,147.9 393.6,149.9 394.4,152.0 395.2,154.4 396.0,157.0 396.8,159.9 397.6,163.1 398.5,166.9 L398.5,171.0 L37.5,171.0 Z" fill="url(#g127)"/>
  <defs><clipPath id="pc128"><rect x="34" y="16" width="365" height="155"/></clipPath></defs>
  <polyline points="37.5,47.0 70.8,47.0 90.3,47.0 104.1,47.0 114.8,47.0 123.6,47.0 131.0,47.0 137.4,47.0 143.1,46.9 148.1,46.9 152.7,46.9 156.9,46.9 160.7,46.9 164.3,46.8 167.6,46.8 170.7,46.8 173.6,46.8 176.3,46.8 178.9,46.7 181.4,46.7 183.7,46.7 186.0,46.6 188.1,46.6 190.2,46.6 192.1,46.5 194.0,46.5 195.8,46.5 197.6,46.4 199.2,46.4 200.9,46.3 202.4,46.3 204.0,46.3 205.5,46.2 206.9,46.2 208.3,46.1 209.6,46.1 210.9,46.0 212.2,46.0 213.5,45.9 214.7,45.9 215.9,45.9 217.0,45.8 218.2,45.8 219.3,45.7 220.3,45.7 221.4,45.6 222.4,45.6 223.4,45.5 224.4,45.5 225.4,45.5 226.4,45.4 227.3,45.4 228.2,45.3 229.1,45.3 230.0,45.3 230.8,45.2 231.7,45.2 232.5,45.2 233.4,45.1 234.2,45.1 235.7,45.1 237.3,45.1 238.7,45.1 240.2,45.1 241.6,45.1 242.9,45.2 244.2,45.2 245.5,45.3 246.8,45.4 248.0,45.6 249.2,45.7 250.3,45.9 251.4,46.1 252.6,46.3 253.6,46.6 254.7,46.9 255.7,47.2 256.7,47.5 257.7,47.8 258.7,48.1 259.6,48.5 260.6,48.9 261.5,49.2 262.4,49.6 263.3,50.0 264.1,50.4 265.0,50.8 265.8,51.2 266.6,51.7 267.4,52.1 268.6,52.7 269.8,53.3 270.9,54.0 272.0,54.6 273.1,55.2 274.2,55.8 275.2,56.4 276.2,57.0 277.2,57.6 278.2,58.2 279.1,58.7 280.0,59.3 281.0,59.9 281.9,60.4 282.7,60.9 283.6,61.5 284.5,62.0 285.3,62.5 286.1,63.0 286.9,63.5 288.0,64.1 289.0,64.8 290.0,65.4 291.0,66.0 292.0,66.6 292.9,67.2 293.9,67.7 294.8,68.3 295.7,68.8 296.6,69.4 297.4,69.9 298.3,70.4 299.1,70.9 299.9,71.4 300.7,71.9 301.7,72.5 302.7,73.1 303.6,73.7 304.6,74.3 305.5,74.8 306.4,75.4 307.3,75.9 308.1,76.4 309.0,76.9 309.8,77.4 310.6,77.9 311.4,78.4 312.4,79.0 313.3,79.6 314.2,80.1 315.1,80.7 316.0,81.2 316.9,81.7 317.7,82.2 318.6,82.7 319.4,83.2 320.2,83.7 321.1,84.3 322.0,84.8 322.9,85.4 323.8,85.9 324.7,86.4 325.5,86.9 326.3,87.5 327.1,88.0 327.9,88.4 328.8,89.0 329.7,89.5 330.6,90.1 331.4,90.6 332.3,91.1 333.1,91.6 333.9,92.1 334.8,92.7 335.7,93.3 336.5,93.8 337.4,94.3 338.2,94.9 339.0,95.4 339.8,95.9 340.7,96.5 341.6,97.0 342.4,97.6 343.3,98.1 344.1,98.6 344.9,99.2 345.8,99.7 346.6,100.3 347.5,100.8 348.3,101.4 349.1,101.9 350.0,102.5 350.8,103.1 351.7,103.7 352.5,104.3 353.3,104.8 354.1,105.4 355.0,106.0 355.8,106.6 356.6,107.2 357.5,107.8 358.3,108.4 359.1,109.0 360.0,109.6 360.8,110.2 361.6,110.9 362.5,111.5 363.3,112.2 364.1,112.8 364.9,113.5 365.8,114.1 366.6,114.8 367.4,115.5 368.2,116.2 369.1,116.9 369.9,117.6 370.7,118.3 371.6,119.1 372.4,119.8 373.2,120.6 374.0,121.4 374.8,122.2 375.6,123.0 376.5,123.8 377.3,124.7 378.1,125.5 378.9,126.4 379.7,127.3 380.5,128.3 381.4,129.2 382.2,130.2 383.0,131.3 383.8,132.3 384.6,133.4 385.5,134.6 386.3,135.8 387.1,137.0 387.9,138.3 388.7,139.7 389.5,141.2 390.3,142.7 391.2,144.4 392.0,146.1 392.8,147.9 393.6,149.9 394.4,152.0 395.2,154.4 396.0,157.0 396.8,159.9 397.6,163.1 398.5,166.9" fill="none" stroke="#4a90d9" stroke-width="1.5" stroke-linejoin="round" clip-path="url(#pc128)"/>
  <line x1="435" y1="16" x2="435" y2="171" stroke="#d1d5db"/>
  <line x1="435" y1="93.5" x2="800" y2="93.5" stroke="#d1d5db"/>
  <text x="617.5" y="197" text-anchor="middle" font-size="9" fill="#6b7280">Hz</text>
  <text x="413" y="93.5" text-anchor="middle" font-size="9" fill="#6b7280" transform="rotate(-90 413 93.5)">Phase (deg)</text>
  <line x1="468.3" y1="16" x2="468.3" y2="171" stroke="#e5e7eb" stroke-width="0.5"/>
  <line x1="487.8" y1="16" x2="487.8" y2="171" stroke="#e5e7eb" stroke-width="0.5"/>
  <line x1="501.6" y1="16" x2="501.6" y2="171" stroke="#e5e7eb" stroke-width="0.5"/>
  <line x1="512.3" y1="16" x2="512.3" y2="171" stroke="#e5e7eb" stroke-width="0.5"/>
  <line x1="521.0" y1="16" x2="521.0" y2="171" stroke="#e5e7eb" stroke-width="0.5"/>
  <line x1="528.4" y1="16" x2="528.4" y2="171" stroke="#e5e7eb" stroke-width="0.5"/>
  <line x1="534.9" y1="16" x2="534.9" y2="171" stroke="#e5e7eb" stroke-width="0.5"/>
  <line x1="540.5" y1="16" x2="540.5" y2="171" stroke="#e5e7eb" stroke-width="0.5"/>
  <line x1="578.9" y1="16" x2="578.9" y2="171" stroke="#e5e7eb" stroke-width="0.5"/>
  <line x1="598.3" y1="16" x2="598.3" y2="171" stroke="#e5e7eb" stroke-width="0.5"/>
  <line x1="612.1" y1="16" x2="612.1" y2="171" stroke="#e5e7eb" stroke-width="0.5"/>
  <line x1="622.9" y1="16" x2="622.9" y2="171" stroke="#e5e7eb" stroke-width="0.5"/>
  <line x1="631.6" y1="16" x2="631.6" y2="171" stroke="#e5e7eb" stroke-width="0.5"/>
  <line x1="639.0" y1="16" x2="639.0" y2="171" stroke="#e5e7eb" stroke-width="0.5"/>
  <line x1="645.4" y1="16" x2="645.4" y2="171" stroke="#e5e7eb" stroke-width="0.5"/>
  <line x1="651.1" y1="16" x2="651.1" y2="171" stroke="#e5e7eb" stroke-width="0.5"/>
  <line x1="689.4" y1="16" x2="689.4" y2="171" stroke="#e5e7eb" stroke-width="0.5"/>
  <line x1="708.9" y1="16" x2="708.9" y2="171" stroke="#e5e7eb" stroke-width="0.5"/>
  <line x1="722.7" y1="16" x2="722.7" y2="171" stroke="#e5e7eb" stroke-width="0.5"/>
  <line x1="733.4" y1="16" x2="733.4" y2="171" stroke="#e5e7eb" stroke-width="0.5"/>
  <line x1="742.2" y1="16" x2="742.2" y2="171" stroke="#e5e7eb" stroke-width="0.5"/>
  <line x1="749.6" y1="16" x2="749.6" y2="171" stroke="#e5e7eb" stroke-width="0.5"/>
  <line x1="756.0" y1="16" x2="756.0" y2="171" stroke="#e5e7eb" stroke-width="0.5"/>
  <line x1="761.7" y1="16" x2="761.7" y2="171" stroke="#e5e7eb" stroke-width="0.5"/>
  <line x1="800.0" y1="16" x2="800.0" y2="171" stroke="#e5e7eb" stroke-width="0.5"/>
  <line x1="545.6" y1="16" x2="545.6" y2="171" stroke="#e5e7eb" stroke-width="0.5"/>
  <text x="545.6" y="183" text-anchor="middle" font-size="8" fill="#6b7280">100</text>
  <line x1="656.1" y1="16" x2="656.1" y2="171" stroke="#e5e7eb" stroke-width="0.5"/>
  <text x="656.1" y="183" text-anchor="middle" font-size="8" fill="#6b7280">1k</text>
  <line x1="766.7" y1="16" x2="766.7" y2="171" stroke="#e5e7eb" stroke-width="0.5"/>
  <text x="766.7" y="183" text-anchor="middle" font-size="8" fill="#6b7280">10k</text>
  <line x1="435" y1="54.8" x2="800" y2="54.8" stroke="#e5e7eb" stroke-width="0.5"/>
  <line x1="435" y1="132.3" x2="800" y2="132.3" stroke="#e5e7eb" stroke-width="0.5"/>
  <line x1="435" y1="16.0" x2="800" y2="16.0" stroke="#e5e7eb" stroke-width="0.5"/>
  <text x="431" y="19.0" text-anchor="end" font-size="8" fill="#6b7280">180</text>
  <text x="431" y="96.5" text-anchor="end" font-size="8" fill="#6b7280">0</text>
  <line x1="435" y1="171.0" x2="800" y2="171.0" stroke="#e5e7eb" stroke-width="0.5"/>
  <text x="431" y="174.0" text-anchor="end" font-size="8" fill="#6b7280">-180</text>
  <line x1="656.1" y1="16" x2="656.1" y2="171" stroke="#d1d5db" stroke-width="1" stroke-dasharray="4 3"/>
  <defs><linearGradient id="g129" x1="0" y1="171" x2="0" y2="93.5" gradientUnits="userSpaceOnUse">
    <stop offset="0%" stop-color="#e74c3c" stop-opacity="0.15"/>
    <stop offset="100%" stop-color="#e74c3c" stop-opacity="0.02"/>
  </linearGradient></defs>
  <path d="M438.5,93.8 438.5,93.8 471.8,94.0 491.3,94.3 505.1,94.6 515.8,94.8 524.6,95.1 532.0,95.4 538.4,95.6 544.1,95.9 549.1,96.2 553.7,96.4 557.9,96.7 561.7,97.0 565.3,97.3 568.6,97.5 571.7,97.8 574.6,98.1 577.3,98.4 579.9,98.7 582.4,99.0 584.7,99.3 587.0,99.6 589.1,99.9 591.2,100.2 593.1,100.5 595.0,100.8 596.8,101.1 598.6,101.4 600.2,101.7 601.9,102.0 603.4,102.3 605.0,102.7 606.5,103.0 607.9,103.3 609.3,103.7 610.6,104.0 611.9,104.4 613.2,104.7 614.5,105.1 615.7,105.5 616.9,105.9 618.0,106.2 619.2,106.6 620.3,107.0 621.3,107.4 622.4,107.8 623.4,108.2 624.4,108.6 625.4,109.0 626.4,109.5 627.4,109.9 628.3,110.3 629.2,110.8 630.1,111.3 631.0,111.7 631.8,112.2 632.7,112.7 633.5,113.1 634.4,113.6 635.2,114.1 636.7,115.1 638.3,116.2 639.7,117.2 641.2,118.3 642.6,119.4 643.9,120.5 645.2,121.6 646.5,122.8 647.8,123.9 649.0,125.0 650.2,126.2 651.3,127.3 652.4,128.5 653.6,129.6 654.6,130.7 655.7,131.8 656.7,132.8 657.7,133.9 658.7,134.9 659.7,135.9 660.6,136.8 661.6,137.8 662.5,138.7 663.4,139.5 664.3,140.4 665.1,141.2 666.0,141.9 666.8,142.7 667.6,143.4 668.4,144.1 669.6,145.1 670.8,146.0 671.9,146.9 673.0,147.7 674.1,148.4 675.2,149.2 676.2,149.8 677.2,150.5 678.2,151.1 679.2,151.6 680.1,152.2 681.0,152.7 682.0,153.2 682.9,153.6 683.7,154.1 684.6,154.5 685.5,154.9 686.3,155.3 687.1,155.6 687.9,156.0 689.0,156.4 690.0,156.8 691.0,157.2 692.0,157.6 693.0,157.9 693.9,158.2 694.9,158.6 695.8,158.9 696.7,159.1 697.6,159.4 698.4,159.7 699.3,159.9 700.1,160.1 700.9,160.4 701.7,160.6 702.7,160.8 703.7,161.1 704.6,161.3 705.6,161.5 706.5,161.8 707.4,162.0 708.3,162.2 709.1,162.3 710.0,162.5 710.8,162.7 711.6,162.9 712.4,163.0 713.4,163.2 714.3,163.4 715.2,163.5 716.1,163.7 717.0,163.8 717.9,164.0 718.7,164.1 719.6,164.3 720.4,164.4 721.2,164.5 722.1,164.7 723.0,164.8 723.9,164.9 724.8,165.0 725.7,165.2 726.5,165.3 727.3,165.4 728.1,165.5 728.9,165.6 729.8,165.7 730.7,165.8 731.6,165.9 732.4,166.0 733.3,166.1 734.1,166.2 734.9,166.3 735.8,166.4 736.7,166.5 737.5,166.6 738.4,166.7 739.2,166.8 740.0,166.9 740.8,166.9 741.7,167.0 742.6,167.1 743.4,167.2 744.3,167.3 745.1,167.3 745.9,167.4 746.8,167.5 747.6,167.6 748.5,167.6 749.3,167.7 750.1,167.8 751.0,167.8 751.8,167.9 752.7,168.0 753.5,168.0 754.3,168.1 755.1,168.2 756.0,168.2 756.8,168.3 757.6,168.3 758.5,168.4 759.3,168.5 760.1,168.5 761.0,168.6 761.8,168.6 762.6,168.7 763.5,168.7 764.3,168.8 765.1,168.9 765.9,168.9 766.8,169.0 767.6,169.0 768.4,169.1 769.2,169.1 770.1,169.2 770.9,169.2 771.7,169.3 772.6,169.3 773.4,169.3 774.2,169.4 775.0,169.4 775.8,169.5 776.6,169.5 777.5,169.6 778.3,169.6 779.1,169.7 779.9,169.7 780.7,169.7 781.5,169.8 782.4,169.8 783.2,169.9 784.0,169.9 784.8,170.0 785.6,170.0 786.5,170.0 787.3,170.1 788.1,170.1 788.9,170.2 789.7,170.2 790.5,170.3 791.3,170.3 792.2,170.3 793.0,170.4 793.8,170.4 794.6,170.5 795.4,170.5 796.2,170.5 797.0,170.6 797.8,170.6 798.6,170.7 799.5,170.7 L799.5,93.5 L438.5,93.5 Z" fill="url(#g129)"/>
  <defs><clipPath id="pc130"><rect x="435" y="16" width="365" height="155"/></clipPath></defs>
  <polyline points="438.5,93.8 471.8,94.0 491.3,94.3 505.1,94.6 515.8,94.8 524.6,95.1 532.0,95.4 538.4,95.6 544.1,95.9 549.1,96.2 553.7,96.4 557.9,96.7 561.7,97.0 565.3,97.3 568.6,97.5 571.7,97.8 574.6,98.1 577.3,98.4 579.9,98.7 582.4,99.0 584.7,99.3 587.0,99.6 589.1,99.9 591.2,100.2 593.1,100.5 595.0,100.8 596.8,101.1 598.6,101.4 600.2,101.7 601.9,102.0 603.4,102.3 605.0,102.7 606.5,103.0 607.9,103.3 609.3,103.7 610.6,104.0 611.9,104.4 613.2,104.7 614.5,105.1 615.7,105.5 616.9,105.9 618.0,106.2 619.2,106.6 620.3,107.0 621.3,107.4 622.4,107.8 623.4,108.2 624.4,108.6 625.4,109.0 626.4,109.5 627.4,109.9 628.3,110.3 629.2,110.8 630.1,111.3 631.0,111.7 631.8,112.2 632.7,112.7 633.5,113.1 634.4,113.6 635.2,114.1 636.7,115.1 638.3,116.2 639.7,117.2 641.2,118.3 642.6,119.4 643.9,120.5 645.2,121.6 646.5,122.8 647.8,123.9 649.0,125.0 650.2,126.2 651.3,127.3 652.4,128.5 653.6,129.6 654.6,130.7 655.7,131.8 656.7,132.8 657.7,133.9 658.7,134.9 659.7,135.9 660.6,136.8 661.6,137.8 662.5,138.7 663.4,139.5 664.3,140.4 665.1,141.2 666.0,141.9 666.8,142.7 667.6,143.4 668.4,144.1 669.6,145.1 670.8,146.0 671.9,146.9 673.0,147.7 674.1,148.4 675.2,149.2 676.2,149.8 677.2,150.5 678.2,151.1 679.2,151.6 680.1,152.2 681.0,152.7 682.0,153.2 682.9,153.6 683.7,154.1 684.6,154.5 685.5,154.9 686.3,155.3 687.1,155.6 687.9,156.0 689.0,156.4 690.0,156.8 691.0,157.2 692.0,157.6 693.0,157.9 693.9,158.2 694.9,158.6 695.8,158.9 696.7,159.1 697.6,159.4 698.4,159.7 699.3,159.9 700.1,160.1 700.9,160.4 701.7,160.6 702.7,160.8 703.7,161.1 704.6,161.3 705.6,161.5 706.5,161.8 707.4,162.0 708.3,162.2 709.1,162.3 710.0,162.5 710.8,162.7 711.6,162.9 712.4,163.0 713.4,163.2 714.3,163.4 715.2,163.5 716.1,163.7 717.0,163.8 717.9,164.0 718.7,164.1 719.6,164.3 720.4,164.4 721.2,164.5 722.1,164.7 723.0,164.8 723.9,164.9 724.8,165.0 725.7,165.2 726.5,165.3 727.3,165.4 728.1,165.5 728.9,165.6 729.8,165.7 730.7,165.8 731.6,165.9 732.4,166.0 733.3,166.1 734.1,166.2 734.9,166.3 735.8,166.4 736.7,166.5 737.5,166.6 738.4,166.7 739.2,166.8 740.0,166.9 740.8,166.9 741.7,167.0 742.6,167.1 743.4,167.2 744.3,167.3 745.1,167.3 745.9,167.4 746.8,167.5 747.6,167.6 748.5,167.6 749.3,167.7 750.1,167.8 751.0,167.8 751.8,167.9 752.7,168.0 753.5,168.0 754.3,168.1 755.1,168.2 756.0,168.2 756.8,168.3 757.6,168.3 758.5,168.4 759.3,168.5 760.1,168.5 761.0,168.6 761.8,168.6 762.6,168.7 763.5,168.7 764.3,168.8 765.1,168.9 765.9,168.9 766.8,169.0 767.6,169.0 768.4,169.1 769.2,169.1 770.1,169.2 770.9,169.2 771.7,169.3 772.6,169.3 773.4,169.3 774.2,169.4 775.0,169.4 775.8,169.5 776.6,169.5 777.5,169.6 778.3,169.6 779.1,169.7 779.9,169.7 780.7,169.7 781.5,169.8 782.4,169.8 783.2,169.9 784.0,169.9 784.8,170.0 785.6,170.0 786.5,170.0 787.3,170.1 788.1,170.1 788.9,170.2 789.7,170.2 790.5,170.3 791.3,170.3 792.2,170.3 793.0,170.4 793.8,170.4 794.6,170.5 795.4,170.5 796.2,170.5 797.0,170.6 797.8,170.6 798.6,170.7 799.5,170.7" fill="none" stroke="#e74c3c" stroke-width="1.5" stroke-linejoin="round" clip-path="url(#pc130)"/>
  <line x1="34" y1="207" x2="34" y2="362" stroke="#d1d5db"/>
  <line x1="34" y1="284.5" x2="399" y2="284.5" stroke="#d1d5db"/>
  <text x="216.5" y="388" text-anchor="middle" font-size="9" fill="#6b7280">Hz</text>
  <text x="12" y="284.5" text-anchor="middle" font-size="9" fill="#6b7280" transform="rotate(-90 12 284.5)">Group delay</text>
  <line x1="67.3" y1="207" x2="67.3" y2="362" stroke="#e5e7eb" stroke-width="0.5"/>
  <line x1="86.8" y1="207" x2="86.8" y2="362" stroke="#e5e7eb" stroke-width="0.5"/>
  <line x1="100.6" y1="207" x2="100.6" y2="362" stroke="#e5e7eb" stroke-width="0.5"/>
  <line x1="111.3" y1="207" x2="111.3" y2="362" stroke="#e5e7eb" stroke-width="0.5"/>
  <line x1="120.0" y1="207" x2="120.0" y2="362" stroke="#e5e7eb" stroke-width="0.5"/>
  <line x1="127.4" y1="207" x2="127.4" y2="362" stroke="#e5e7eb" stroke-width="0.5"/>
  <line x1="133.9" y1="207" x2="133.9" y2="362" stroke="#e5e7eb" stroke-width="0.5"/>
  <line x1="139.5" y1="207" x2="139.5" y2="362" stroke="#e5e7eb" stroke-width="0.5"/>
  <line x1="177.9" y1="207" x2="177.9" y2="362" stroke="#e5e7eb" stroke-width="0.5"/>
  <line x1="197.3" y1="207" x2="197.3" y2="362" stroke="#e5e7eb" stroke-width="0.5"/>
  <line x1="211.1" y1="207" x2="211.1" y2="362" stroke="#e5e7eb" stroke-width="0.5"/>
  <line x1="221.9" y1="207" x2="221.9" y2="362" stroke="#e5e7eb" stroke-width="0.5"/>
  <line x1="230.6" y1="207" x2="230.6" y2="362" stroke="#e5e7eb" stroke-width="0.5"/>
  <line x1="238.0" y1="207" x2="238.0" y2="362" stroke="#e5e7eb" stroke-width="0.5"/>
  <line x1="244.4" y1="207" x2="244.4" y2="362" stroke="#e5e7eb" stroke-width="0.5"/>
  <line x1="250.1" y1="207" x2="250.1" y2="362" stroke="#e5e7eb" stroke-width="0.5"/>
  <line x1="288.4" y1="207" x2="288.4" y2="362" stroke="#e5e7eb" stroke-width="0.5"/>
  <line x1="307.9" y1="207" x2="307.9" y2="362" stroke="#e5e7eb" stroke-width="0.5"/>
  <line x1="321.7" y1="207" x2="321.7" y2="362" stroke="#e5e7eb" stroke-width="0.5"/>
  <line x1="332.4" y1="207" x2="332.4" y2="362" stroke="#e5e7eb" stroke-width="0.5"/>
  <line x1="341.2" y1="207" x2="341.2" y2="362" stroke="#e5e7eb" stroke-width="0.5"/>
  <line x1="348.6" y1="207" x2="348.6" y2="362" stroke="#e5e7eb" stroke-width="0.5"/>
  <line x1="355.0" y1="207" x2="355.0" y2="362" stroke="#e5e7eb" stroke-width="0.5"/>
  <line x1="360.7" y1="207" x2="360.7" y2="362" stroke="#e5e7eb" stroke-width="0.5"/>
  <line x1="399.0" y1="207" x2="399.0" y2="362" stroke="#e5e7eb" stroke-width="0.5"/>
  <line x1="144.6" y1="207" x2="144.6" y2="362" stroke="#e5e7eb" stroke-width="0.5"/>
  <text x="144.6" y="374" text-anchor="middle" font-size="8" fill="#6b7280">100</text>
  <line x1="255.1" y1="207" x2="255.1" y2="362" stroke="#e5e7eb" stroke-width="0.5"/>
  <text x="255.1" y="374" text-anchor="middle" font-size="8" fill="#6b7280">1k</text>
  <line x1="365.7" y1="207" x2="365.7" y2="362" stroke="#e5e7eb" stroke-width="0.5"/>
  <text x="365.7" y="374" text-anchor="middle" font-size="8" fill="#6b7280">10k</text>
  <line x1="34" y1="325.7" x2="399" y2="325.7" stroke="#e5e7eb" stroke-width="0.5"/>
  <text x="30" y="328.7" text-anchor="end" font-size="8" fill="#6b7280">-900</text>
  <text x="30" y="287.5" text-anchor="end" font-size="8" fill="#6b7280">0</text>
  <line x1="34" y1="243.3" x2="399" y2="243.3" stroke="#e5e7eb" stroke-width="0.5"/>
  <text x="30" y="246.3" text-anchor="end" font-size="8" fill="#6b7280">900</text>
  <line x1="255.1" y1="207" x2="255.1" y2="362" stroke="#d1d5db" stroke-width="1" stroke-dasharray="4 3"/>
  <defs><linearGradient id="g131" x1="0" y1="362" x2="0" y2="284.5" gradientUnits="userSpaceOnUse">
    <stop offset="0%" stop-color="#2ecc71" stop-opacity="0.15"/>
    <stop offset="100%" stop-color="#2ecc71" stop-opacity="0.02"/>
  </linearGradient></defs>
  <path d="M37.5,284.5 37.5,284.5 70.8,284.5 90.3,284.5 104.1,284.5 114.8,284.5 123.6,284.5 131.0,284.5 137.4,284.5 143.1,284.5 148.1,284.5 152.7,284.5 156.9,284.5 160.7,284.5 164.3,284.5 167.6,284.4 170.7,284.4 173.6,284.4 176.3,284.4 178.9,284.4 181.4,284.4 183.7,284.4 186.0,284.4 188.1,284.4 190.2,284.4 192.1,284.4 194.0,284.4 195.8,284.4 197.6,284.4 199.2,284.4 200.9,284.4 202.4,284.4 204.0,284.4 205.5,284.4 206.9,284.4 208.3,284.4 209.6,284.4 210.9,284.4 212.2,284.4 213.5,284.4 214.7,284.4 215.9,284.4 217.0,284.4 218.2,284.4 219.3,284.4 220.3,284.4 221.4,284.4 222.4,284.4 223.4,284.4 224.4,284.4 225.4,284.4 226.4,284.4 227.3,284.4 228.2,284.4 229.1,284.4 230.0,284.4 230.8,284.4 231.7,284.4 232.5,284.4 233.4,284.4 234.2,284.5 235.7,284.5 237.3,284.5 238.7,284.5 240.2,284.5 241.6,284.5 242.9,284.6 244.2,284.6 245.5,284.6 246.8,284.6 248.0,284.7 249.2,284.7 250.3,284.7 251.4,284.7 252.6,284.8 253.6,284.8 254.7,284.8 255.7,284.8 256.7,284.9 257.7,284.9 258.7,284.9 259.6,284.9 260.6,284.9 261.5,284.9 262.4,284.9 263.3,284.9 264.1,284.9 265.0,285.0 265.8,285.0 266.6,285.0 267.4,285.0 268.6,285.0 269.8,285.0 270.9,285.0 272.0,285.0 273.1,285.0 274.2,284.9 275.2,284.9 276.2,284.9 277.2,284.9 278.2,284.9 279.1,284.9 280.0,284.9 281.0,284.9 281.9,284.9 282.7,284.9 283.6,284.9 284.5,284.9 285.3,284.9 286.1,284.9 286.9,284.9 288.0,284.9 289.0,284.8 290.0,284.8 291.0,284.8 292.0,284.8 292.9,284.8 293.9,284.8 294.8,284.8 295.7,284.8 296.6,284.8 297.4,284.8 298.3,284.8 299.1,284.8 299.9,284.8 300.7,284.8 301.7,284.8 302.7,284.8 303.6,284.8 304.6,284.7 305.5,284.7 306.4,284.7 307.3,284.7 308.1,284.7 309.0,284.7 309.8,284.7 310.6,284.7 311.4,284.7 312.4,284.7 313.3,284.7 314.2,284.7 315.1,284.7 316.0,284.7 316.9,284.7 317.7,284.7 318.6,284.7 319.4,284.7 320.2,284.7 321.1,284.7 322.0,284.7 322.9,284.7 323.8,284.7 324.7,284.7 325.5,284.7 326.3,284.7 327.1,284.7 327.9,284.7 328.8,284.7 329.7,284.6 330.6,284.6 331.4,284.6 332.3,284.6 333.1,284.6 333.9,284.6 334.8,284.6 335.7,284.6 336.5,284.6 337.4,284.6 338.2,284.6 339.0,284.6 339.8,284.6 340.7,284.6 341.6,284.6 342.4,284.6 343.3,284.6 344.1,284.6 344.9,284.6 345.8,284.6 346.6,284.6 347.5,284.6 348.3,284.6 349.1,284.6 350.0,284.6 350.8,284.6 351.7,284.6 352.5,284.6 353.3,284.6 354.1,284.6 355.0,284.6 355.8,284.6 356.6,284.6 357.5,284.6 358.3,284.6 359.1,284.6 360.0,284.6 360.8,284.6 361.6,284.6 362.5,284.6 363.3,284.6 364.1,284.6 364.9,284.6 365.8,284.6 366.6,284.6 367.4,284.6 368.2,284.6 369.1,284.6 369.9,284.6 370.7,284.6 371.6,284.6 372.4,284.6 373.2,284.6 374.0,284.6 374.8,284.6 375.6,284.6 376.5,284.6 377.3,284.6 378.1,284.6 378.9,284.6 379.7,284.6 380.5,284.6 381.4,284.6 382.2,284.6 383.0,284.6 383.8,284.6 384.6,284.6 385.5,284.6 386.3,284.6 387.1,284.6 387.9,284.6 388.7,284.6 389.5,284.6 390.3,284.6 391.2,284.6 392.0,284.6 392.8,284.7 393.6,284.7 394.4,284.7 395.2,284.7 396.0,284.7 396.8,284.7 397.6,284.8 398.5,284.8 L398.5,284.5 L37.5,284.5 Z" fill="url(#g131)"/>
  <defs><clipPath id="pc132"><rect x="34" y="207" width="365" height="155"/></clipPath></defs>
  <polyline points="37.5,284.5 70.8,284.5 90.3,284.5 104.1,284.5 114.8,284.5 123.6,284.5 131.0,284.5 137.4,284.5 143.1,284.5 148.1,284.5 152.7,284.5 156.9,284.5 160.7,284.5 164.3,284.5 167.6,284.4 170.7,284.4 173.6,284.4 176.3,284.4 178.9,284.4 181.4,284.4 183.7,284.4 186.0,284.4 188.1,284.4 190.2,284.4 192.1,284.4 194.0,284.4 195.8,284.4 197.6,284.4 199.2,284.4 200.9,284.4 202.4,284.4 204.0,284.4 205.5,284.4 206.9,284.4 208.3,284.4 209.6,284.4 210.9,284.4 212.2,284.4 213.5,284.4 214.7,284.4 215.9,284.4 217.0,284.4 218.2,284.4 219.3,284.4 220.3,284.4 221.4,284.4 222.4,284.4 223.4,284.4 224.4,284.4 225.4,284.4 226.4,284.4 227.3,284.4 228.2,284.4 229.1,284.4 230.0,284.4 230.8,284.4 231.7,284.4 232.5,284.4 233.4,284.4 234.2,284.5 235.7,284.5 237.3,284.5 238.7,284.5 240.2,284.5 241.6,284.5 242.9,284.6 244.2,284.6 245.5,284.6 246.8,284.6 248.0,284.7 249.2,284.7 250.3,284.7 251.4,284.7 252.6,284.8 253.6,284.8 254.7,284.8 255.7,284.8 256.7,284.9 257.7,284.9 258.7,284.9 259.6,284.9 260.6,284.9 261.5,284.9 262.4,284.9 263.3,284.9 264.1,284.9 265.0,285.0 265.8,285.0 266.6,285.0 267.4,285.0 268.6,285.0 269.8,285.0 270.9,285.0 272.0,285.0 273.1,285.0 274.2,284.9 275.2,284.9 276.2,284.9 277.2,284.9 278.2,284.9 279.1,284.9 280.0,284.9 281.0,284.9 281.9,284.9 282.7,284.9 283.6,284.9 284.5,284.9 285.3,284.9 286.1,284.9 286.9,284.9 288.0,284.9 289.0,284.8 290.0,284.8 291.0,284.8 292.0,284.8 292.9,284.8 293.9,284.8 294.8,284.8 295.7,284.8 296.6,284.8 297.4,284.8 298.3,284.8 299.1,284.8 299.9,284.8 300.7,284.8 301.7,284.8 302.7,284.8 303.6,284.8 304.6,284.7 305.5,284.7 306.4,284.7 307.3,284.7 308.1,284.7 309.0,284.7 309.8,284.7 310.6,284.7 311.4,284.7 312.4,284.7 313.3,284.7 314.2,284.7 315.1,284.7 316.0,284.7 316.9,284.7 317.7,284.7 318.6,284.7 319.4,284.7 320.2,284.7 321.1,284.7 322.0,284.7 322.9,284.7 323.8,284.7 324.7,284.7 325.5,284.7 326.3,284.7 327.1,284.7 327.9,284.7 328.8,284.7 329.7,284.6 330.6,284.6 331.4,284.6 332.3,284.6 333.1,284.6 333.9,284.6 334.8,284.6 335.7,284.6 336.5,284.6 337.4,284.6 338.2,284.6 339.0,284.6 339.8,284.6 340.7,284.6 341.6,284.6 342.4,284.6 343.3,284.6 344.1,284.6 344.9,284.6 345.8,284.6 346.6,284.6 347.5,284.6 348.3,284.6 349.1,284.6 350.0,284.6 350.8,284.6 351.7,284.6 352.5,284.6 353.3,284.6 354.1,284.6 355.0,284.6 355.8,284.6 356.6,284.6 357.5,284.6 358.3,284.6 359.1,284.6 360.0,284.6 360.8,284.6 361.6,284.6 362.5,284.6 363.3,284.6 364.1,284.6 364.9,284.6 365.8,284.6 366.6,284.6 367.4,284.6 368.2,284.6 369.1,284.6 369.9,284.6 370.7,284.6 371.6,284.6 372.4,284.6 373.2,284.6 374.0,284.6 374.8,284.6 375.6,284.6 376.5,284.6 377.3,284.6 378.1,284.6 378.9,284.6 379.7,284.6 380.5,284.6 381.4,284.6 382.2,284.6 383.0,284.6 383.8,284.6 384.6,284.6 385.5,284.6 386.3,284.6 387.1,284.6 387.9,284.6 388.7,284.6 389.5,284.6 390.3,284.6 391.2,284.6 392.0,284.6 392.8,284.7 393.6,284.7 394.4,284.7 395.2,284.7 396.0,284.7 396.8,284.7 397.6,284.8 398.5,284.8" fill="none" stroke="#2ecc71" stroke-width="1.5" stroke-linejoin="round" clip-path="url(#pc132)"/>
  <line x1="435" y1="207" x2="435" y2="362" stroke="#d1d5db"/>
  <line x1="435" y1="284.5" x2="800" y2="284.5" stroke="#d1d5db"/>
  <text x="617.5" y="388" text-anchor="middle" font-size="9" fill="#6b7280">Samples</text>
  <text x="413" y="284.5" text-anchor="middle" font-size="9" fill="#6b7280" transform="rotate(-90 413 284.5)">Impulse response</text>
  <line x1="435.0" y1="207" x2="435.0" y2="362" stroke="#e5e7eb" stroke-width="0.5"/>
  <text x="435.0" y="374" text-anchor="middle" font-size="8" fill="#6b7280">0</text>
  <line x1="526.3" y1="207" x2="526.3" y2="362" stroke="#e5e7eb" stroke-width="0.5"/>
  <text x="526.3" y="374" text-anchor="middle" font-size="8" fill="#6b7280">32</text>
  <line x1="617.5" y1="207" x2="617.5" y2="362" stroke="#e5e7eb" stroke-width="0.5"/>
  <text x="617.5" y="374" text-anchor="middle" font-size="8" fill="#6b7280">64</text>
  <line x1="708.8" y1="207" x2="708.8" y2="362" stroke="#e5e7eb" stroke-width="0.5"/>
  <text x="708.8" y="374" text-anchor="middle" font-size="8" fill="#6b7280">96</text>
  <line x1="800.0" y1="207" x2="800.0" y2="362" stroke="#e5e7eb" stroke-width="0.5"/>
  <text x="800.0" y="374" text-anchor="middle" font-size="8" fill="#6b7280">128</text>
  <line x1="435" y1="344.5" x2="800" y2="344.5" stroke="#e5e7eb" stroke-width="0.5"/>
  <text x="431" y="347.5" text-anchor="end" font-size="8" fill="#6b7280">-0.06</text>
  <text x="431" y="287.5" text-anchor="end" font-size="8" fill="#6b7280">0</text>
  <line x1="435" y1="224.5" x2="800" y2="224.5" stroke="#e5e7eb" stroke-width="0.5"/>
  <text x="431" y="227.5" text-anchor="end" font-size="8" fill="#6b7280">0.06</text>
  <defs><linearGradient id="g133" x1="0" y1="207" x2="0" y2="284.5" gradientUnits="userSpaceOnUse">
    <stop offset="0%" stop-color="#f39c12" stop-opacity="0.15"/>
    <stop offset="100%" stop-color="#f39c12" stop-opacity="0.02"/>
  </linearGradient></defs>
  <defs><linearGradient id="g134" x1="0" y1="362" x2="0" y2="284.5" gradientUnits="userSpaceOnUse">
    <stop offset="0%" stop-color="#f39c12" stop-opacity="0.15"/>
    <stop offset="100%" stop-color="#f39c12" stop-opacity="0.02"/>
  </linearGradient></defs>
  <defs><clipPath id="c135"><rect x="435" y="207" width="365" height="77.5"/></clipPath></defs>
  <defs><clipPath id="c136"><rect x="435" y="284.5" width="365" height="77.5"/></clipPath></defs>
  <path d="M435.0,279.8 435.0,279.8 437.9,266.3 440.7,250.2 443.6,237.0 446.4,226.3 449.3,218.2 452.1,212.4 455.0,208.8 457.8,207.0 460.7,207.0 463.5,208.4 466.4,211.1 469.2,214.8 472.1,219.4 474.9,224.5 477.8,230.2 480.6,236.1 483.5,242.1 486.3,248.1 489.2,254.1 492.0,259.8 494.9,265.2 497.7,270.3 500.6,274.9 503.4,279.2 506.3,282.9 509.1,286.2 512.0,289.1 514.8,291.4 517.7,293.4 520.5,294.9 523.4,296.0 526.3,296.7 529.1,297.1 532.0,297.2 534.8,297.1 537.7,296.7 540.5,296.2 543.4,295.5 546.2,294.7 549.1,293.8 551.9,292.9 554.8,291.9 557.6,290.9 560.5,289.9 563.3,288.9 566.2,288.0 569.0,287.2 571.9,286.4 574.7,285.7 577.6,285.0 580.4,284.4 583.3,283.9 586.1,283.5 589.0,283.2 591.8,282.9 594.7,282.7 597.5,282.5 600.4,282.5 603.2,282.4 606.1,282.4 608.9,282.5 611.8,282.5 614.6,282.6 617.5,282.8 620.4,282.9 623.2,283.1 626.1,283.2 628.9,283.4 631.8,283.5 634.6,283.7 637.5,283.9 640.3,284.0 643.2,284.1 646.0,284.3 648.9,284.4 651.7,284.5 654.6,284.6 657.4,284.6 660.3,284.7 663.1,284.7 666.0,284.8 668.8,284.8 671.7,284.8 674.5,284.8 677.4,284.8 680.2,284.8 683.1,284.8 685.9,284.8 688.8,284.8 691.6,284.8 694.5,284.7 697.3,284.7 700.2,284.7 703.0,284.7 705.9,284.6 708.8,284.6 711.6,284.6 714.5,284.6 717.3,284.5 720.2,284.5 723.0,284.5 725.9,284.5 728.7,284.5 731.6,284.5 734.4,284.5 737.3,284.5 740.1,284.5 743.0,284.4 745.8,284.4 748.7,284.4 751.5,284.4 754.4,284.4 757.2,284.4 760.1,284.5 762.9,284.5 765.8,284.5 768.6,284.5 771.5,284.5 774.3,284.5 777.2,284.5 780.0,284.5 782.9,284.5 785.7,284.5 788.6,284.5 791.4,284.5 794.3,284.5 797.1,284.5 L797.1,284.5 L435.0,284.5 Z" fill="url(#g133)" clip-path="url(#c135)"/>
  <path d="M435.0,279.8 435.0,279.8 437.9,266.3 440.7,250.2 443.6,237.0 446.4,226.3 449.3,218.2 452.1,212.4 455.0,208.8 457.8,207.0 460.7,207.0 463.5,208.4 466.4,211.1 469.2,214.8 472.1,219.4 474.9,224.5 477.8,230.2 480.6,236.1 483.5,242.1 486.3,248.1 489.2,254.1 492.0,259.8 494.9,265.2 497.7,270.3 500.6,274.9 503.4,279.2 506.3,282.9 509.1,286.2 512.0,289.1 514.8,291.4 517.7,293.4 520.5,294.9 523.4,296.0 526.3,296.7 529.1,297.1 532.0,297.2 534.8,297.1 537.7,296.7 540.5,296.2 543.4,295.5 546.2,294.7 549.1,293.8 551.9,292.9 554.8,291.9 557.6,290.9 560.5,289.9 563.3,288.9 566.2,288.0 569.0,287.2 571.9,286.4 574.7,285.7 577.6,285.0 580.4,284.4 583.3,283.9 586.1,283.5 589.0,283.2 591.8,282.9 594.7,282.7 597.5,282.5 600.4,282.5 603.2,282.4 606.1,282.4 608.9,282.5 611.8,282.5 614.6,282.6 617.5,282.8 620.4,282.9 623.2,283.1 626.1,283.2 628.9,283.4 631.8,283.5 634.6,283.7 637.5,283.9 640.3,284.0 643.2,284.1 646.0,284.3 648.9,284.4 651.7,284.5 654.6,284.6 657.4,284.6 660.3,284.7 663.1,284.7 666.0,284.8 668.8,284.8 671.7,284.8 674.5,284.8 677.4,284.8 680.2,284.8 683.1,284.8 685.9,284.8 688.8,284.8 691.6,284.8 694.5,284.7 697.3,284.7 700.2,284.7 703.0,284.7 705.9,284.6 708.8,284.6 711.6,284.6 714.5,284.6 717.3,284.5 720.2,284.5 723.0,284.5 725.9,284.5 728.7,284.5 731.6,284.5 734.4,284.5 737.3,284.5 740.1,284.5 743.0,284.4 745.8,284.4 748.7,284.4 751.5,284.4 754.4,284.4 757.2,284.4 760.1,284.5 762.9,284.5 765.8,284.5 768.6,284.5 771.5,284.5 774.3,284.5 777.2,284.5 780.0,284.5 782.9,284.5 785.7,284.5 788.6,284.5 791.4,284.5 794.3,284.5 797.1,284.5 L797.1,284.5 L435.0,284.5 Z" fill="url(#g134)" clip-path="url(#c136)"/>
  <defs><clipPath id="pc137"><rect x="435" y="207" width="365" height="155"/></clipPath></defs>
  <polyline points="435.0,279.8 437.9,266.3 440.7,250.2 443.6,237.0 446.4,226.3 449.3,218.2 452.1,212.4 455.0,208.8 457.8,207.0 460.7,207.0 463.5,208.4 466.4,211.1 469.2,214.8 472.1,219.4 474.9,224.5 477.8,230.2 480.6,236.1 483.5,242.1 486.3,248.1 489.2,254.1 492.0,259.8 494.9,265.2 497.7,270.3 500.6,274.9 503.4,279.2 506.3,282.9 509.1,286.2 512.0,289.1 514.8,291.4 517.7,293.4 520.5,294.9 523.4,296.0 526.3,296.7 529.1,297.1 532.0,297.2 534.8,297.1 537.7,296.7 540.5,296.2 543.4,295.5 546.2,294.7 549.1,293.8 551.9,292.9 554.8,291.9 557.6,290.9 560.5,289.9 563.3,288.9 566.2,288.0 569.0,287.2 571.9,286.4 574.7,285.7 577.6,285.0 580.4,284.4 583.3,283.9 586.1,283.5 589.0,283.2 591.8,282.9 594.7,282.7 597.5,282.5 600.4,282.5 603.2,282.4 606.1,282.4 608.9,282.5 611.8,282.5 614.6,282.6 617.5,282.8 620.4,282.9 623.2,283.1 626.1,283.2 628.9,283.4 631.8,283.5 634.6,283.7 637.5,283.9 640.3,284.0 643.2,284.1 646.0,284.3 648.9,284.4 651.7,284.5 654.6,284.6 657.4,284.6 660.3,284.7 663.1,284.7 666.0,284.8 668.8,284.8 671.7,284.8 674.5,284.8 677.4,284.8 680.2,284.8 683.1,284.8 685.9,284.8 688.8,284.8 691.6,284.8 694.5,284.7 697.3,284.7 700.2,284.7 703.0,284.7 705.9,284.6 708.8,284.6 711.6,284.6 714.5,284.6 717.3,284.5 720.2,284.5 723.0,284.5 725.9,284.5 728.7,284.5 731.6,284.5 734.4,284.5 737.3,284.5 740.1,284.5 743.0,284.4 745.8,284.4 748.7,284.4 751.5,284.4 754.4,284.4 757.2,284.4 760.1,284.5 762.9,284.5 765.8,284.5 768.6,284.5 771.5,284.5 774.3,284.5 777.2,284.5 780.0,284.5 782.9,284.5 785.7,284.5 788.6,284.5 791.4,284.5 794.3,284.5 797.1,284.5" fill="none" stroke="#f39c12" stroke-width="1.3" stroke-linejoin="round" clip-path="url(#pc137)"/>
</svg>
