<svg xmlns="http://www.w3.org/2000/svg" viewBox="0 0 820 392" style="font-family:system-ui,-apple-system,sans-serif">
  <text x="800" y="11" text-anchor="end" font-size="11" font-weight="600" fill="#6b7280">Biquad allpass, fc=1kHz</text>
  <line x1="34" y1="16" x2="34" y2="171" stroke="#d1d5db"/>
  <line x1="34" y1="47.0" x2="392" y2="47.0" stroke="#d1d5db"/>
  <text x="213" y="197" text-anchor="middle" font-size="9" fill="#6b7280">Hz</text>
  <text x="12" y="93.5" text-anchor="middle" font-size="9" fill="#6b7280" transform="rotate(-90 12 93.5)">dB</text>
  <line x1="66.6" y1="16" x2="66.6" y2="171" stroke="#e5e7eb" stroke-width="0.5"/>
  <line x1="85.7" y1="16" x2="85.7" y2="171" stroke="#e5e7eb" stroke-width="0.5"/>
  <line x1="99.3" y1="16" x2="99.3" y2="171" stroke="#e5e7eb" stroke-width="0.5"/>
  <line x1="109.8" y1="16" x2="109.8" y2="171" stroke="#e5e7eb" stroke-width="0.5"/>
  <line x1="118.4" y1="16" x2="118.4" y2="171" stroke="#e5e7eb" stroke-width="0.5"/>
  <line x1="125.7" y1="16" x2="125.7" y2="171" stroke="#e5e7eb" stroke-width="0.5"/>
  <line x1="131.9" y1="16" x2="131.9" y2="171" stroke="#e5e7eb" stroke-width="0.5"/>
  <line x1="137.5" y1="16" x2="137.5" y2="171" stroke="#e5e7eb" stroke-width="0.5"/>
  <line x1="175.1" y1="16" x2="175.1" y2="171" stroke="#e5e7eb" stroke-width="0.5"/>
  <line x1="194.2" y1="16" x2="194.2" y2="171" stroke="#e5e7eb" stroke-width="0.5"/>
  <line x1="207.7" y1="16" x2="207.7" y2="171" stroke="#e5e7eb" stroke-width="0.5"/>
  <line x1="218.3" y1="16" x2="218.3" y2="171" stroke="#e5e7eb" stroke-width="0.5"/>
  <line x1="226.8" y1="16" x2="226.8" y2="171" stroke="#e5e7eb" stroke-width="0.5"/>
  <line x1="234.1" y1="16" x2="234.1" y2="171" stroke="#e5e7eb" stroke-width="0.5"/>
  <line x1="240.4" y1="16" x2="240.4" y2="171" stroke="#e5e7eb" stroke-width="0.5"/>
  <line x1="245.9" y1="16" x2="245.9" y2="171" stroke="#e5e7eb" stroke-width="0.5"/>
  <line x1="283.5" y1="16" x2="283.5" y2="171" stroke="#e5e7eb" stroke-width="0.5"/>
  <line x1="302.6" y1="16" x2="302.6" y2="171" stroke="#e5e7eb" stroke-width="0.5"/>
  <line x1="316.2" y1="16" x2="316.2" y2="171" stroke="#e5e7eb" stroke-width="0.5"/>
  <line x1="326.7" y1="16" x2="326.7" y2="171" stroke="#e5e7eb" stroke-width="0.5"/>
  <line x1="335.3" y1="16" x2="335.3" y2="171" stroke="#e5e7eb" stroke-width="0.5"/>
  <line x1="342.6" y1="16" x2="342.6" y2="171" stroke="#e5e7eb" stroke-width="0.5"/>
  <line x1="348.8" y1="16" x2="348.8" y2="171" stroke="#e5e7eb" stroke-width="0.5"/>
  <line x1="354.4" y1="16" x2="354.4" y2="171" stroke="#e5e7eb" stroke-width="0.5"/>
  <line x1="392.0" y1="16" x2="392.0" y2="171" stroke="#e5e7eb" stroke-width="0.5"/>
  <line x1="142.5" y1="16" x2="142.5" y2="171" stroke="#e5e7eb" stroke-width="0.5"/>
  <text x="142.5" y="183" text-anchor="middle" font-size="8" fill="#6b7280">100</text>
  <line x1="250.9" y1="16" x2="250.9" y2="171" stroke="#e5e7eb" stroke-width="0.5"/>
  <text x="250.9" y="183" text-anchor="middle" font-size="8" fill="#6b7280">1k</text>
  <line x1="359.4" y1="16" x2="359.4" y2="171" stroke="#e5e7eb" stroke-width="0.5"/>
  <text x="359.4" y="183" text-anchor="middle" font-size="8" fill="#6b7280">10k</text>
  <line x1="34" y1="31.5" x2="392" y2="31.5" stroke="#e5e7eb" stroke-width="0.5"/>
  <line x1="34" y1="62.5" x2="392" y2="62.5" stroke="#e5e7eb" stroke-width="0.5"/>
  <line x1="34" y1="16.0" x2="392" y2="16.0" stroke="#e5e7eb" stroke-width="0.5"/>
  <text x="30" y="19.0" text-anchor="end" font-size="8" fill="#6b7280">+20</text>
  <text x="30" y="50.0" text-anchor="end" font-size="8" fill="#6b7280">0</text>
  <line x1="34" y1="78.0" x2="392" y2="78.0" stroke="#e5e7eb" stroke-width="0.5"/>
  <text x="30" y="81.0" text-anchor="end" font-size="8" fill="#6b7280">-20</text>
  <line x1="34" y1="109.0" x2="392" y2="109.0" stroke="#e5e7eb" stroke-width="0.5"/>
  <text x="30" y="112.0" text-anchor="end" font-size="8" fill="#6b7280">-40</text>
  <line x1="34" y1="140.0" x2="392" y2="140.0" stroke="#e5e7eb" stroke-width="0.5"/>
  <text x="30" y="143.0" text-anchor="end" font-size="8" fill="#6b7280">-60</text>
  <line x1="34" y1="171.0" x2="392" y2="171.0" stroke="#e5e7eb" stroke-width="0.5"/>
  <text x="30" y="174.0" text-anchor="end" font-size="8" fill="#6b7280">-80</text>
  <line x1="250.9" y1="16" x2="250.9" y2="171" stroke="#d1d5db" stroke-width="1" stroke-dasharray="4 3"/>
  <defs><linearGradient id="g180" x1="0" y1="16" x2="0" y2="171" gradientUnits="userSpaceOnUse">
    <stop offset="0%" stop-color="#4a90d9" stop-opacity="0.15"/>
    <stop offset="100%" stop-color="#4a90d9" stop-opacity="0.02"/>
  </linearGradient></defs>
  <path d="M37.5,47.0 37.5,47.0 70.1,47.0 89.2,47.0 102.8,47.0 113.3,47.0 121.9,47.0 129.1,47.0 135.4,47.0 141.0,47.0 145.9,47.0 150.4,47.0 154.5,47.0 158.3,47.0 161.8,47.0 165.0,47.0 168.1,47.0 170.9,47.0 173.6,47.0 176.2,47.0 178.6,47.0 180.9,47.0 183.1,47.0 185.2,47.0 187.2,47.0 189.1,47.0 190.9,47.0 192.7,47.0 194.4,47.0 196.1,47.0 197.7,47.0 199.2,47.0 200.7,47.0 202.2,47.0 203.6,47.0 204.9,47.0 206.3,47.0 207.6,47.0 208.8,47.0 210.0,47.0 211.2,47.0 212.4,47.0 213.5,47.0 214.6,47.0 215.7,47.0 216.8,47.0 217.8,47.0 218.8,47.0 219.8,47.0 220.8,47.0 221.7,47.0 222.7,47.0 223.6,47.0 224.5,47.0 225.4,47.0 226.2,47.0 227.1,47.0 227.9,47.0 228.7,47.0 229.5,47.0 231.1,47.0 232.6,47.0 234.1,47.0 235.5,47.0 236.9,47.0 238.2,47.0 239.6,47.0 240.8,47.0 242.1,47.0 243.3,47.0 244.5,47.0 245.6,47.0 246.7,47.0 247.8,47.0 248.9,47.0 249.9,47.0 251.0,47.0 252.0,47.0 252.9,47.0 253.9,47.0 254.8,47.0 255.8,47.0 256.7,47.0 257.6,47.0 258.4,47.0 259.3,47.0 260.1,47.0 261.0,47.0 261.8,47.0 263.0,47.0 264.1,47.0 265.3,47.0 266.4,47.0 267.5,47.0 268.5,47.0 269.6,47.0 270.6,47.0 271.6,47.0 272.5,47.0 273.5,47.0 274.4,47.0 275.3,47.0 276.2,47.0 277.1,47.0 278.0,47.0 278.8,47.0 279.6,47.0 280.5,47.0 281.3,47.0 282.3,47.0 283.4,47.0 284.4,47.0 285.3,47.0 286.3,47.0 287.3,47.0 288.2,47.0 289.1,47.0 290.0,47.0 290.9,47.0 291.7,47.0 292.6,47.0 293.4,47.0 294.2,47.0 295.0,47.0 296.0,47.0 297.0,47.0 297.9,47.0 298.8,47.0 299.7,47.0 300.6,47.0 301.5,47.0 302.4,47.0 303.2,47.0 304.0,47.0 304.9,47.0 305.8,47.0 306.7,47.0 307.7,47.0 308.6,47.0 309.5,47.0 310.3,47.0 311.2,47.0 312.0,47.0 312.8,47.0 313.7,47.0 314.6,47.0 315.5,47.0 316.4,47.0 317.3,47.0 318.1,47.0 319.0,47.0 319.8,47.0 320.6,47.0 321.4,47.0 322.3,47.0 323.2,47.0 324.1,47.0 324.9,47.0 325.7,47.0 326.6,47.0 327.4,47.0 328.3,47.0 329.1,47.0 330.0,47.0 330.8,47.0 331.7,47.0 332.5,47.0 333.3,47.0 334.2,47.0 335.0,47.0 335.9,47.0 336.7,47.0 337.5,47.0 338.4,47.0 339.2,47.0 340.1,47.0 340.9,47.0 341.7,47.0 342.5,47.0 343.4,47.0 344.2,47.0 345.1,47.0 345.9,47.0 346.7,47.0 347.6,47.0 348.4,47.0 349.2,47.0 350.0,47.0 350.9,47.0 351.7,47.0 352.6,47.0 353.4,47.0 354.2,47.0 355.1,47.0 355.9,47.0 356.7,47.0 357.6,47.0 358.4,47.0 359.2,47.0 360.0,47.0 360.9,47.0 361.7,47.0 362.5,47.0 363.3,47.0 364.2,47.0 365.0,47.0 365.8,47.0 366.6,47.0 367.4,47.0 368.3,47.0 369.1,47.0 369.9,47.0 370.7,47.0 371.5,47.0 372.4,47.0 373.2,47.0 374.0,47.0 374.8,47.0 375.6,47.0 376.4,47.0 377.2,47.0 378.1,47.0 378.9,47.0 379.7,47.0 380.5,47.0 381.3,47.0 382.1,47.0 383.0,47.0 383.8,47.0 384.6,47.0 385.4,47.0 386.2,47.0 387.0,47.0 387.9,47.0 388.7,47.0 389.5,47.0 390.3,47.0 391.1,47.0 391.9,47.0 L391.9,171.0 L37.5,171.0 Z" fill="url(#g180)"/>
  <defs><clipPath id="pc181"><rect x="34" y="16" width="358" height="155"/></clipPath></defs>
  <polyline points="37.5,47.0 70.1,47.0 89.2,47.0 102.8,47.0 113.3,47.0 121.9,47.0 129.1,47.0 135.4,47.0 141.0,47.0 145.9,47.0 150.4,47.0 154.5,47.0 158.3,47.0 161.8,47.0 165.0,47.0 168.1,47.0 170.9,47.0 173.6,47.0 176.2,47.0 178.6,47.0 180.9,47.0 183.1,47.0 185.2,47.0 187.2,47.0 189.1,47.0 190.9,47.0 192.7,47.0 194.4,47.0 196.1,47.0 197.7,47.0 199.2,47.0 200.7,47.0 202.2,47.0 203.6,47.0 204.9,47.0 206.3,47.0 207.6,47.0 208.8,47.0 210.0,47.0 211.2,47.0 212.4,47.0 213.5,47.0 214.6,47.0 215.7,47.0 216.8,47.0 217.8,47.0 218.8,47.0 219.8,47.0 220.8,47.0 221.7,47.0 222.7,47.0 223.6,47.0 224.5,47.0 225.4,47.0 226.2,47.0 227.1,47.0 227.9,47.0 228.7,47.0 229.5,47.0 231.1,47.0 232.6,47.0 234.1,47.0 235.5,47.0 236.9,47.0 238.2,47.0 239.6,47.0 240.8,47.0 242.1,47.0 243.3,47.0 244.5,47.0 245.6,47.0 246.7,47.0 247.8,47.0 248.9,47.0 249.9,47.0 251.0,47.0 252.0,47.0 252.9,47.0 253.9,47.0 254.8,47.0 255.8,47.0 256.7,47.0 257.6,47.0 258.4,47.0 259.3,47.0 260.1,47.0 261.0,47.0 261.8,47.0 263.0,47.0 264.1,47.0 265.3,47.0 266.4,47.0 267.5,47.0 268.5,47.0 269.6,47.0 270.6,47.0 271.6,47.0 272.5,47.0 273.5,47.0 274.4,47.0 275.3,47.0 276.2,47.0 277.1,47.0 278.0,47.0 278.8,47.0 279.6,47.0 280.5,47.0 281.3,47.0 282.3,47.0 283.4,47.0 284.4,47.0 285.3,47.0 286.3,47.0 287.3,47.0 288.2,47.0 289.1,47.0 290.0,47.0 290.9,47.0 291.7,47.0 292.6,47.0 293.4,47.0 294.2,47.0 295.0,47.0 296.0,47.0 297.0,47.0 297.9,47.0 298.8,47.0 299.7,47.0 300.6,47.0 301.5,47.0 302.4,47.0 303.2,47.0 304.0,47.0 304.9,47.0 305.8,47.0 306.7,47.0 307.7,47.0 308.6,47.0 309.5,47.0 310.3,47.0 311.2,47.0 312.0,47.0 312.8,47.0 313.7,47.0 314.6,47.0 315.5,47.0 316.4,47.0 317.3,47.0 318.1,47.0 319.0,47.0 319.8,47.0 320.6,47.0 321.4,47.0 322.3,47.0 323.2,47.0 324.1,47.0 324.9,47.0 325.7,47.0 326.6,47.0 327.4,47.0 328.3,47.0 329.1,47.0 330.0,47.0 330.8,47.0 331.7,47.0 332.5,47.0 333.3,47.0 334.2,47.0 335.0,47.0 335.9,47.0 336.7,47.0 337.5,47.0 338.4,47.0 339.2,47.0 340.1,47.0 340.9,47.0 341.7,47.0 342.5,47.0 343.4,47.0 344.2,47.0 345.1,47.0 345.9,47.0 346.7,47.0 347.6,47.0 348.4,47.0 349.2,47.0 350.0,47.0 350.9,47.0 351.7,47.0 352.6,47.0 353.4,47.0 354.2,47.0 355.1,47.0 355.9,47.0 356.7,47.0 357.6,47.0 358.4,47.0 359.2,47.0 360.0,47.0 360.9,47.0 361.7,47.0 362.5,47.0 363.3,47.0 364.2,47.0 365.0,47.0 365.8,47.0 366.6,47.0 367.4,47.0 368.3,47.0 369.1,47.0 369.9,47.0 370.7,47.0 371.5,47.0 372.4,47.0 373.2,47.0 374.0,47.0 374.8,47.0 375.6,47.0 376.4,47.0 377.2,47.0 378.1,47.0 378.9,47.0 379.7,47.0 380.5,47.0 381.3,47.0 382.1,47.0 383.0,47.0 383.8,47.0 384.6,47.0 385.4,47.0 386.2,47.0 387.0,47.0 387.9,47.0 388.7,47.0 389.5,47.0 390.3,47.0 391.1,47.0 391.9,47.0" fill="none" stroke="#4a90d9" stroke-width="1.5" stroke-linejoin="round" clip-path="url(#pc181)"/>
  <line x1="442" y1="16" x2="442" y2="171" stroke="#d1d5db"/>
  <line x1="442" y1="93.5" x2="800" y2="93.5" stroke="#d1d5db"/>
  <text x="621" y="197" text-anchor="middle" font-size="9" fill="#6b7280">Hz</text>
  <text x="420" y="93.5" text-anchor="middle" font-size="9" fill="#6b7280" transform="rotate(-90 420 93.5)">Phase (deg)</text>
  <line x1="474.6" y1="16" x2="474.6" y2="171" stroke="#e5e7eb" stroke-width="0.5"/>
  <line x1="493.7" y1="16" x2="493.7" y2="171" stroke="#e5e7eb" stroke-width="0.5"/>
  <line x1="507.3" y1="16" x2="507.3" y2="171" stroke="#e5e7eb" stroke-width="0.5"/>
  <line x1="517.8" y1="16" x2="517.8" y2="171" stroke="#e5e7eb" stroke-width="0.5"/>
  <line x1="526.4" y1="16" x2="526.4" y2="171" stroke="#e5e7eb" stroke-width="0.5"/>
  <line x1="533.7" y1="16" x2="533.7" y2="171" stroke="#e5e7eb" stroke-width="0.5"/>
  <line x1="539.9" y1="16" x2="539.9" y2="171" stroke="#e5e7eb" stroke-width="0.5"/>
  <line x1="545.5" y1="16" x2="545.5" y2="171" stroke="#e5e7eb" stroke-width="0.5"/>
  <line x1="583.1" y1="16" x2="583.1" y2="171" stroke="#e5e7eb" stroke-width="0.5"/>
  <line x1="602.2" y1="16" x2="602.2" y2="171" stroke="#e5e7eb" stroke-width="0.5"/>
  <line x1="615.7" y1="16" x2="615.7" y2="171" stroke="#e5e7eb" stroke-width="0.5"/>
  <line x1="626.3" y1="16" x2="626.3" y2="171" stroke="#e5e7eb" stroke-width="0.5"/>
  <line x1="634.8" y1="16" x2="634.8" y2="171" stroke="#e5e7eb" stroke-width="0.5"/>
  <line x1="642.1" y1="16" x2="642.1" y2="171" stroke="#e5e7eb" stroke-width="0.5"/>
  <line x1="648.4" y1="16" x2="648.4" y2="171" stroke="#e5e7eb" stroke-width="0.5"/>
  <line x1="653.9" y1="16" x2="653.9" y2="171" stroke="#e5e7eb" stroke-width="0.5"/>
  <line x1="691.5" y1="16" x2="691.5" y2="171" stroke="#e5e7eb" stroke-width="0.5"/>
  <line x1="710.6" y1="16" x2="710.6" y2="171" stroke="#e5e7eb" stroke-width="0.5"/>
  <line x1="724.2" y1="16" x2="724.2" y2="171" stroke="#e5e7eb" stroke-width="0.5"/>
  <line x1="734.7" y1="16" x2="734.7" y2="171" stroke="#e5e7eb" stroke-width="0.5"/>
  <line x1="743.3" y1="16" x2="743.3" y2="171" stroke="#e5e7eb" stroke-width="0.5"/>
  <line x1="750.6" y1="16" x2="750.6" y2="171" stroke="#e5e7eb" stroke-width="0.5"/>
  <line x1="756.8" y1="16" x2="756.8" y2="171" stroke="#e5e7eb" stroke-width="0.5"/>
  <line x1="762.4" y1="16" x2="762.4" y2="171" stroke="#e5e7eb" stroke-width="0.5"/>
  <line x1="800.0" y1="16" x2="800.0" y2="171" stroke="#e5e7eb" stroke-width="0.5"/>
  <line x1="550.5" y1="16" x2="550.5" y2="171" stroke="#e5e7eb" stroke-width="0.5"/>
  <text x="550.5" y="183" text-anchor="middle" font-size="8" fill="#6b7280">100</text>
  <line x1="658.9" y1="16" x2="658.9" y2="171" stroke="#e5e7eb" stroke-width="0.5"/>
  <text x="658.9" y="183" text-anchor="middle" font-size="8" fill="#6b7280">1k</text>
  <line x1="767.4" y1="16" x2="767.4" y2="171" stroke="#e5e7eb" stroke-width="0.5"/>
  <text x="767.4" y="183" text-anchor="middle" font-size="8" fill="#6b7280">10k</text>
  <line x1="442" y1="54.8" x2="800" y2="54.8" stroke="#e5e7eb" stroke-width="0.5"/>
  <line x1="442" y1="132.3" x2="800" y2="132.3" stroke="#e5e7eb" stroke-width="0.5"/>
  <line x1="442" y1="16.0" x2="800" y2="16.0" stroke="#e5e7eb" stroke-width="0.5"/>
  <text x="438" y="19.0" text-anchor="end" font-size="8" fill="#6b7280">180</text>
  <text x="438" y="96.5" text-anchor="end" font-size="8" fill="#6b7280">0</text>
  <line x1="442" y1="171.0" x2="800" y2="171.0" stroke="#e5e7eb" stroke-width="0.5"/>
  <text x="438" y="174.0" text-anchor="end" font-size="8" fill="#6b7280">-180</text>
  <line x1="658.9" y1="16" x2="658.9" y2="171" stroke="#d1d5db" stroke-width="1" stroke-dasharray="4 3"/>
  <defs><linearGradient id="g182" x1="0" y1="16" x2="0" y2="93.5" gradientUnits="userSpaceOnUse">
    <stop offset="0%" stop-color="#e74c3c" stop-opacity="0.15"/>
    <stop offset="100%" stop-color="#e74c3c" stop-opacity="0.02"/>
  </linearGradient></defs>
  <defs><linearGradient id="g183" x1="0" y1="171" x2="0" y2="93.5" gradientUnits="userSpaceOnUse">
    <stop offset="0%" stop-color="#e74c3c" stop-opacity="0.15"/>
    <stop offset="100%" stop-color="#e74c3c" stop-opacity="0.02"/>
  </linearGradient></defs>
  <defs><clipPath id="c184"><rect x="442" y="16" width="358" height="77.5"/></clipPath></defs>
  <defs><clipPath id="c185"><rect x="442" y="93.5" width="358" height="77.5"/></clipPath></defs>
  <path d="M445.5,94.0 445.5,94.0 478.1,94.6 497.2,95.1 510.8,95.6 521.3,96.2 529.9,96.7 537.1,97.2 543.4,97.8 549.0,98.3 553.9,98.8 558.4,99.4 562.5,99.9 566.3,100.5 569.8,101.0 573.0,101.6 576.1,102.2 578.9,102.7 581.6,103.3 584.2,103.9 586.6,104.4 588.9,105.0 591.1,105.6 593.2,106.2 595.2,106.8 597.1,107.4 598.9,108.0 600.7,108.6 602.4,109.3 604.1,109.9 605.7,110.5 607.2,111.2 608.7,111.9 610.2,112.5 611.6,113.2 612.9,113.9 614.3,114.6 615.6,115.3 616.8,116.0 618.0,116.7 619.2,117.5 620.4,118.2 621.5,119.0 622.6,119.7 623.7,120.5 624.8,121.3 625.8,122.1 626.8,122.9 627.8,123.8 628.8,124.6 629.7,125.4 630.7,126.3 631.6,127.2 632.5,128.1 633.4,129.0 634.2,129.9 635.1,130.9 635.9,131.8 636.7,132.8 637.5,133.7 639.1,135.7 640.6,137.8 642.1,139.9 643.5,142.0 644.9,144.2 646.2,146.4 647.6,148.6 648.8,150.9 650.1,153.2 651.3,155.4 652.5,157.7 653.6,160.0 654.7,162.3 655.8,164.6 656.9,166.8 657.9,169.0 659.0,171.0 660.0,171.0 660.9,171.0 661.9,171.0 662.8,171.0 663.8,171.0 664.7,171.0 665.6,171.0 666.4,171.0 667.3,171.0 668.1,171.0 669.0,171.0 669.8,171.0 671.0,171.0 672.1,171.0 673.3,171.0 674.4,171.0 675.5,171.0 676.5,171.0 677.6,171.0 678.6,171.0 679.6,171.0 680.5,171.0 681.5,171.0 682.4,171.0 683.3,171.0 684.2,171.0 685.1,171.0 686.0,171.0 686.8,171.0 687.6,171.0 688.5,171.0 689.3,171.0 690.3,171.0 691.4,171.0 692.4,171.0 693.3,171.0 694.3,171.0 695.3,171.0 696.2,171.0 697.1,171.0 698.0,171.0 698.9,171.0 699.7,171.0 700.6,171.0 701.4,171.0 702.2,171.0 703.0,171.0 704.0,171.0 705.0,171.0 705.9,171.0 706.8,74.3 707.7,74.8 708.6,75.2 709.5,75.6 710.4,76.0 711.2,76.3 712.0,76.7 712.9,77.0 713.8,77.4 714.7,77.8 715.7,78.1 716.6,78.5 717.5,78.8 718.3,79.1 719.2,79.4 720.0,79.7 720.8,79.9 721.7,80.2 722.6,80.5 723.5,80.8 724.4,81.1 725.3,81.3 726.1,81.6 727.0,81.8 727.8,82.0 728.6,82.3 729.4,82.5 730.3,82.7 731.2,82.9 732.1,83.2 732.9,83.4 733.7,83.6 734.6,83.8 735.4,84.0 736.3,84.2 737.1,84.4 738.0,84.5 738.8,84.7 739.7,84.9 740.5,85.1 741.3,85.2 742.2,85.4 743.0,85.6 743.9,85.8 744.7,85.9 745.5,86.1 746.4,86.2 747.2,86.4 748.1,86.5 748.9,86.7 749.7,86.8 750.5,87.0 751.4,87.1 752.2,87.2 753.1,87.4 753.9,87.5 754.7,87.6 755.6,87.8 756.4,87.9 757.2,88.0 758.0,88.1 758.9,88.3 759.7,88.4 760.6,88.5 761.4,88.6 762.2,88.7 763.1,88.8 763.9,89.0 764.7,89.1 765.6,89.2 766.4,89.3 767.2,89.4 768.0,89.5 768.9,89.6 769.7,89.7 770.5,89.8 771.3,89.9 772.2,90.0 773.0,90.1 773.8,90.2 774.6,90.3 775.4,90.4 776.3,90.5 777.1,90.6 777.9,90.6 778.7,90.7 779.5,90.8 780.4,90.9 781.2,91.0 782.0,91.1 782.8,91.2 783.6,91.3 784.4,91.4 785.2,91.4 786.1,91.5 786.9,91.6 787.7,91.7 788.5,91.8 789.3,91.9 790.1,91.9 791.0,92.0 791.8,92.1 792.6,92.2 793.4,92.3 794.2,92.4 795.0,92.5 795.9,92.5 796.7,92.6 797.5,92.7 798.3,92.8 799.1,92.9 799.9,93.0 L799.9,93.5 L445.5,93.5 Z" fill="url(#g182)" clip-path="url(#c184)"/>
  <path d="M445.5,94.0 445.5,94.0 478.1,94.6 497.2,95.1 510.8,95.6 521.3,96.2 529.9,96.7 537.1,97.2 543.4,97.8 549.0,98.3 553.9,98.8 558.4,99.4 562.5,99.9 566.3,100.5 569.8,101.0 573.0,101.6 576.1,102.2 578.9,102.7 581.6,103.3 584.2,103.9 586.6,104.4 588.9,105.0 591.1,105.6 593.2,106.2 595.2,106.8 597.1,107.4 598.9,108.0 600.7,108.6 602.4,109.3 604.1,109.9 605.7,110.5 607.2,111.2 608.7,111.9 610.2,112.5 611.6,113.2 612.9,113.9 614.3,114.6 615.6,115.3 616.8,116.0 618.0,116.7 619.2,117.5 620.4,118.2 621.5,119.0 622.6,119.7 623.7,120.5 624.8,121.3 625.8,122.1 626.8,122.9 627.8,123.8 628.8,124.6 629.7,125.4 630.7,126.3 631.6,127.2 632.5,128.1 633.4,129.0 634.2,129.9 635.1,130.9 635.9,131.8 636.7,132.8 637.5,133.7 639.1,135.7 640.6,137.8 642.1,139.9 643.5,142.0 644.9,144.2 646.2,146.4 647.6,148.6 648.8,150.9 650.1,153.2 651.3,155.4 652.5,157.7 653.6,160.0 654.7,162.3 655.8,164.6 656.9,166.8 657.9,169.0 659.0,171.0 660.0,171.0 660.9,171.0 661.9,171.0 662.8,171.0 663.8,171.0 664.7,171.0 665.6,171.0 666.4,171.0 667.3,171.0 668.1,171.0 669.0,171.0 669.8,171.0 671.0,171.0 672.1,171.0 673.3,171.0 674.4,171.0 675.5,171.0 676.5,171.0 677.6,171.0 678.6,171.0 679.6,171.0 680.5,171.0 681.5,171.0 682.4,171.0 683.3,171.0 684.2,171.0 685.1,171.0 686.0,171.0 686.8,171.0 687.6,171.0 688.5,171.0 689.3,171.0 690.3,171.0 691.4,171.0 692.4,171.0 693.3,171.0 694.3,171.0 695.3,171.0 696.2,171.0 697.1,171.0 698.0,171.0 698.9,171.0 699.7,171.0 700.6,171.0 701.4,171.0 702.2,171.0 703.0,171.0 704.0,171.0 705.0,171.0 705.9,171.0 706.8,74.3 707.7,74.8 708.6,75.2 709.5,75.6 710.4,76.0 711.2,76.3 712.0,76.7 712.9,77.0 713.8,77.4 714.7,77.8 715.7,78.1 716.6,78.5 717.5,78.8 718.3,79.1 719.2,79.4 720.0,79.7 720.8,79.9 721.7,80.2 722.6,80.5 723.5,80.8 724.4,81.1 725.3,81.3 726.1,81.6 727.0,81.8 727.8,82.0 728.6,82.3 729.4,82.5 730.3,82.7 731.2,82.9 732.1,83.2 732.9,83.4 733.7,83.6 734.6,83.8 735.4,84.0 736.3,84.2 737.1,84.4 738.0,84.5 738.8,84.7 739.7,84.9 740.5,85.1 741.3,85.2 742.2,85.4 743.0,85.6 743.9,85.8 744.7,85.9 745.5,86.1 746.4,86.2 747.2,86.4 748.1,86.5 748.9,86.7 749.7,86.8 750.5,87.0 751.4,87.1 752.2,87.2 753.1,87.4 753.9,87.5 754.7,87.6 755.6,87.8 756.4,87.9 757.2,88.0 758.0,88.1 758.9,88.3 759.7,88.4 760.6,88.5 761.4,88.6 762.2,88.7 763.1,88.8 763.9,89.0 764.7,89.1 765.6,89.2 766.4,89.3 767.2,89.4 768.0,89.5 768.9,89.6 769.7,89.7 770.5,89.8 771.3,89.9 772.2,90.0 773.0,90.1 773.8,90.2 774.6,90.3 775.4,90.4 776.3,90.5 777.1,90.6 777.9,90.6 778.7,90.7 779.5,90.8 780.4,90.9 781.2,91.0 782.0,91.1 782.8,91.2 783.6,91.3 784.4,91.4 785.2,91.4 786.1,91.5 786.9,91.6 787.7,91.7 788.5,91.8 789.3,91.9 790.1,91.9 791.0,92.0 791.8,92.1 792.6,92.2 793.4,92.3 794.2,92.4 795.0,92.5 795.9,92.5 796.7,92.6 797.5,92.7 798.3,92.8 799.1,92.9 799.9,93.0 L799.9,93.5 L445.5,93.5 Z" fill="url(#g183)" clip-path="url(#c185)"/>
  <defs><clipPath id="pc186"><rect x="442" y="16" width="358" height="155"/></clipPath></defs>
  <polyline points="445.5,94.0 478.1,94.6 497.2,95.1 510.8,95.6 521.3,96.2 529.9,96.7 537.1,97.2 543.4,97.8 549.0,98.3 553.9,98.8 558.4,99.4 562.5,99.9 566.3,100.5 569.8,101.0 573.0,101.6 576.1,102.2 578.9,102.7 581.6,103.3 584.2,103.9 586.6,104.4 588.9,105.0 591.1,105.6 593.2,106.2 595.2,106.8 597.1,107.4 598.9,108.0 600.7,108.6 602.4,109.3 604.1,109.9 605.7,110.5 607.2,111.2 608.7,111.9 610.2,112.5 611.6,113.2 612.9,113.9 614.3,114.6 615.6,115.3 616.8,116.0 618.0,116.7 619.2,117.5 620.4,118.2 621.5,119.0 622.6,119.7 623.7,120.5 624.8,121.3 625.8,122.1 626.8,122.9 627.8,123.8 628.8,124.6 629.7,125.4 630.7,126.3 631.6,127.2 632.5,128.1 633.4,129.0 634.2,129.9 635.1,130.9 635.9,131.8 636.7,132.8 637.5,133.7 639.1,135.7 640.6,137.8 642.1,139.9 643.5,142.0 644.9,144.2 646.2,146.4 647.6,148.6 648.8,150.9 650.1,153.2 651.3,155.4 652.5,157.7 653.6,160.0 654.7,162.3 655.8,164.6 656.9,166.8 657.9,169.0 659.0,171.1 660.0,173.2 660.9,175.3 661.9,177.3 662.8,179.2 663.8,181.1 664.7,182.9 665.6,184.7 666.4,186.4 667.3,188.0 668.1,189.6 669.0,191.1 669.8,192.6 671.0,194.7 672.1,196.6 673.3,198.5 674.4,200.2 675.5,201.8 676.5,203.4 677.6,204.8 678.6,206.2 679.6,207.4 680.5,208.7 681.5,209.8 682.4,210.9 683.3,211.9 684.2,212.9 685.1,213.8 686.0,214.7 686.8,215.5 687.6,216.3 688.5,217.0 689.3,217.8 690.3,218.7 691.4,219.5 692.4,220.3 693.3,221.1 694.3,221.8 695.3,222.5 696.2,223.1 697.1,223.8 698.0,224.3 698.9,224.9 699.7,225.4 700.6,225.9 701.4,226.4 702.2,226.9 703.0,227.3 704.0,227.9 705.0,228.4 705.9,228.9 706.8,74.3 707.7,74.8 708.6,75.2 709.5,75.6 710.4,76.0 711.2,76.3 712.0,76.7 712.9,77.0 713.8,77.4 714.7,77.8 715.7,78.1 716.6,78.5 717.5,78.8 718.3,79.1 719.2,79.4 720.0,79.7 720.8,79.9 721.7,80.2 722.6,80.5 723.5,80.8 724.4,81.1 725.3,81.3 726.1,81.6 727.0,81.8 727.8,82.0 728.6,82.3 729.4,82.5 730.3,82.7 731.2,82.9 732.1,83.2 732.9,83.4 733.7,83.6 734.6,83.8 735.4,84.0 736.3,84.2 737.1,84.4 738.0,84.5 738.8,84.7 739.7,84.9 740.5,85.1 741.3,85.2 742.2,85.4 743.0,85.6 743.9,85.8 744.7,85.9 745.5,86.1 746.4,86.2 747.2,86.4 748.1,86.5 748.9,86.7 749.7,86.8 750.5,87.0 751.4,87.1 752.2,87.2 753.1,87.4 753.9,87.5 754.7,87.6 755.6,87.8 756.4,87.9 757.2,88.0 758.0,88.1 758.9,88.3 759.7,88.4 760.6,88.5 761.4,88.6 762.2,88.7 763.1,88.8 763.9,89.0 764.7,89.1 765.6,89.2 766.4,89.3 767.2,89.4 768.0,89.5 768.9,89.6 769.7,89.7 770.5,89.8 771.3,89.9 772.2,90.0 773.0,90.1 773.8,90.2 774.6,90.3 775.4,90.4 776.3,90.5 777.1,90.6 777.9,90.6 778.7,90.7 779.5,90.8 780.4,90.9 781.2,91.0 782.0,91.1 782.8,91.2 783.6,91.3 784.4,91.4 785.2,91.4 786.1,91.5 786.9,91.6 787.7,91.7 788.5,91.8 789.3,91.9 790.1,91.9 791.0,92.0 791.8,92.1 792.6,92.2 793.4,92.3 794.2,92.4 795.0,92.5 795.9,92.5 796.7,92.6 797.5,92.7 798.3,92.8 799.1,92.9 799.9,93.0" fill="none" stroke="#e74c3c" stroke-width="1.5" stroke-linejoin="round" clip-path="url(#pc186)"/>
  <line x1="34" y1="221" x2="34" y2="376" stroke="#d1d5db"/>
  <line x1="34" y1="298.5" x2="392" y2="298.5" stroke="#d1d5db"/>
  <text x="213" y="402" text-anchor="middle" font-size="9" fill="#6b7280">Hz</text>
  <text x="12" y="298.5" text-anchor="middle" font-size="9" fill="#6b7280" transform="rotate(-90 12 298.5)">Group delay</text>
  <line x1="66.6" y1="221" x2="66.6" y2="376" stroke="#e5e7eb" stroke-width="0.5"/>
  <line x1="85.7" y1="221" x2="85.7" y2="376" stroke="#e5e7eb" stroke-width="0.5"/>
  <line x1="99.3" y1="221" x2="99.3" y2="376" stroke="#e5e7eb" stroke-width="0.5"/>
  <line x1="109.8" y1="221" x2="109.8" y2="376" stroke="#e5e7eb" stroke-width="0.5"/>
  <line x1="118.4" y1="221" x2="118.4" y2="376" stroke="#e5e7eb" stroke-width="0.5"/>
  <line x1="125.7" y1="221" x2="125.7" y2="376" stroke="#e5e7eb" stroke-width="0.5"/>
  <line x1="131.9" y1="221" x2="131.9" y2="376" stroke="#e5e7eb" stroke-width="0.5"/>
  <line x1="137.5" y1="221" x2="137.5" y2="376" stroke="#e5e7eb" stroke-width="0.5"/>
  <line x1="175.1" y1="221" x2="175.1" y2="376" stroke="#e5e7eb" stroke-width="0.5"/>
  <line x1="194.2" y1="221" x2="194.2" y2="376" stroke="#e5e7eb" stroke-width="0.5"/>
  <line x1="207.7" y1="221" x2="207.7" y2="376" stroke="#e5e7eb" stroke-width="0.5"/>
  <line x1="218.3" y1="221" x2="218.3" y2="376" stroke="#e5e7eb" stroke-width="0.5"/>
  <line x1="226.8" y1="221" x2="226.8" y2="376" stroke="#e5e7eb" stroke-width="0.5"/>
  <line x1="234.1" y1="221" x2="234.1" y2="376" stroke="#e5e7eb" stroke-width="0.5"/>
  <line x1="240.4" y1="221" x2="240.4" y2="376" stroke="#e5e7eb" stroke-width="0.5"/>
  <line x1="245.9" y1="221" x2="245.9" y2="376" stroke="#e5e7eb" stroke-width="0.5"/>
  <line x1="283.5" y1="221" x2="283.5" y2="376" stroke="#e5e7eb" stroke-width="0.5"/>
  <line x1="302.6" y1="221" x2="302.6" y2="376" stroke="#e5e7eb" stroke-width="0.5"/>
  <line x1="316.2" y1="221" x2="316.2" y2="376" stroke="#e5e7eb" stroke-width="0.5"/>
  <line x1="326.7" y1="221" x2="326.7" y2="376" stroke="#e5e7eb" stroke-width="0.5"/>
  <line x1="335.3" y1="221" x2="335.3" y2="376" stroke="#e5e7eb" stroke-width="0.5"/>
  <line x1="342.6" y1="221" x2="342.6" y2="376" stroke="#e5e7eb" stroke-width="0.5"/>
  <line x1="348.8" y1="221" x2="348.8" y2="376" stroke="#e5e7eb" stroke-width="0.5"/>
  <line x1="354.4" y1="221" x2="354.4" y2="376" stroke="#e5e7eb" stroke-width="0.5"/>
  <line x1="392.0" y1="221" x2="392.0" y2="376" stroke="#e5e7eb" stroke-width="0.5"/>
  <line x1="142.5" y1="221" x2="142.5" y2="376" stroke="#e5e7eb" stroke-width="0.5"/>
  <text x="142.5" y="388" text-anchor="middle" font-size="8" fill="#6b7280">100</text>
  <line x1="250.9" y1="221" x2="250.9" y2="376" stroke="#e5e7eb" stroke-width="0.5"/>
  <text x="250.9" y="388" text-anchor="middle" font-size="8" fill="#6b7280">1k</text>
  <line x1="359.4" y1="221" x2="359.4" y2="376" stroke="#e5e7eb" stroke-width="0.5"/>
  <text x="359.4" y="388" text-anchor="middle" font-size="8" fill="#6b7280">10k</text>
  <line x1="34" y1="340.2" x2="392" y2="340.2" stroke="#e5e7eb" stroke-width="0.5"/>
  <text x="30" y="343.2" text-anchor="end" font-size="8" fill="#6b7280">-0.7</text>
  <text x="30" y="301.5" text-anchor="end" font-size="8" fill="#6b7280">0</text>
  <line x1="34" y1="256.8" x2="392" y2="256.8" stroke="#e5e7eb" stroke-width="0.5"/>
  <text x="30" y="259.8" text-anchor="end" font-size="8" fill="#6b7280">0.7</text>
  <line x1="250.9" y1="221" x2="250.9" y2="376" stroke="#d1d5db" stroke-width="1" stroke-dasharray="4 3"/>
  <defs><linearGradient id="g187" x1="0" y1="376" x2="0" y2="298.5" gradientUnits="userSpaceOnUse">
    <stop offset="0%" stop-color="#2ecc71" stop-opacity="0.15"/>
    <stop offset="100%" stop-color="#2ecc71" stop-opacity="0.02"/>
  </linearGradient></defs>
  <path d="M37.5,298.5 37.5,298.5 70.1,298.5 89.2,298.5 102.8,298.5 113.3,298.5 121.9,298.5 129.1,298.5 135.4,298.5 141.0,298.5 145.9,298.5 150.4,298.5 154.5,298.5 158.3,298.5 161.8,298.5 165.0,298.5 168.1,298.5 170.9,298.5 173.6,298.5 176.2,298.5 178.6,298.5 180.9,298.5 183.1,298.5 185.2,298.5 187.2,298.5 189.1,298.5 190.9,298.5 192.7,298.5 194.4,298.5 196.1,298.5 197.7,298.5 199.2,298.5 200.7,298.5 202.2,298.5 203.6,298.5 204.9,298.5 206.3,298.5 207.6,298.5 208.8,298.5 210.0,298.5 211.2,298.5 212.4,298.5 213.5,298.5 214.6,298.5 215.7,298.5 216.8,298.5 217.8,298.5 218.8,298.5 219.8,298.5 220.8,298.5 221.7,298.5 222.7,298.5 223.6,298.5 224.5,298.5 225.4,298.5 226.2,298.5 227.1,298.5 227.9,298.5 228.7,298.5 229.5,298.5 231.1,298.5 232.6,298.5 234.1,298.5 235.5,298.5 236.9,298.5 238.2,298.5 239.6,298.5 240.8,298.5 242.1,298.5 243.3,298.5 244.5,298.5 245.6,298.5 246.7,298.5 247.8,298.5 248.9,298.5 249.9,298.5 251.0,298.5 252.0,298.5 252.9,298.5 253.9,298.5 254.8,298.5 255.8,298.5 256.7,298.5 257.6,298.5 258.4,298.5 259.3,298.5 260.1,298.5 261.0,298.5 261.8,298.5 263.0,298.5 264.1,298.5 265.3,298.5 266.4,298.5 267.5,298.5 268.5,298.5 269.6,298.5 270.6,298.5 271.6,298.5 272.5,298.5 273.5,298.5 274.4,298.5 275.3,298.5 276.2,298.5 277.1,298.5 278.0,298.5 278.8,298.5 279.6,298.5 280.5,298.5 281.3,298.5 282.3,298.5 283.4,298.5 284.4,298.5 285.3,298.5 286.3,298.5 287.3,298.5 288.2,298.5 289.1,298.5 290.0,298.5 290.9,298.5 291.7,298.5 292.6,298.5 293.4,298.5 294.2,298.5 295.0,298.5 296.0,298.5 297.0,298.5 297.9,298.5 298.8,298.5 299.7,298.5 300.6,298.5 301.5,298.5 302.4,298.5 303.2,298.5 304.0,298.5 304.9,298.5 305.8,298.5 306.7,298.5 307.7,298.5 308.6,298.5 309.5,298.5 310.3,298.5 311.2,298.5 312.0,298.5 312.8,298.5 313.7,298.5 314.6,298.5 315.5,298.5 316.4,298.5 317.3,298.5 318.1,298.5 319.0,298.5 319.8,298.5 320.6,298.5 321.4,298.5 322.3,298.5 323.2,298.5 324.1,298.5 324.9,298.5 325.7,298.5 326.6,298.5 327.4,298.5 328.3,298.5 329.1,298.5 330.0,298.5 330.8,298.5 331.7,298.5 332.5,298.5 333.3,298.5 334.2,298.5 335.0,298.5 335.9,298.5 336.7,298.5 337.5,298.5 338.4,298.5 339.2,298.5 340.1,298.5 340.9,298.5 341.7,298.5 342.5,298.5 343.4,298.5 344.2,298.5 345.1,298.5 345.9,298.5 346.7,298.5 347.6,298.5 348.4,298.5 349.2,298.5 350.0,298.5 350.9,298.5 351.7,298.5 352.6,298.5 353.4,298.5 354.2,298.5 355.1,298.5 355.9,298.5 356.7,298.5 357.6,298.5 358.4,298.5 359.2,298.5 360.0,298.5 360.9,298.5 361.7,298.5 362.5,298.5 363.3,298.5 364.2,298.5 365.0,298.5 365.8,298.5 366.6,298.5 367.4,298.5 368.3,298.5 369.1,298.5 369.9,298.5 370.7,298.5 371.5,298.5 372.4,298.5 373.2,298.5 374.0,298.5 374.8,298.5 375.6,298.5 376.4,298.5 377.2,298.5 378.1,298.5 378.9,298.5 379.7,298.5 380.5,298.5 381.3,298.5 382.1,298.5 383.0,298.5 383.8,298.5 384.6,298.5 385.4,298.5 386.2,298.5 387.0,298.5 387.9,298.5 388.7,298.5 389.5,298.5 390.3,298.5 391.1,298.5 391.9,298.5 L391.9,298.5 L37.5,298.5 Z" fill="url(#g187)"/>
  <defs><clipPath id="pc188"><rect x="34" y="221" width="358" height="155"/></clipPath></defs>
  <polyline points="37.5,298.5 70.1,298.5 89.2,298.5 102.8,298.5 113.3,298.5 121.9,298.5 129.1,298.5 135.4,298.5 141.0,298.5 145.9,298.5 150.4,298.5 154.5,298.5 158.3,298.5 161.8,298.5 165.0,298.5 168.1,298.5 170.9,298.5 173.6,298.5 176.2,298.5 178.6,298.5 180.9,298.5 183.1,298.5 185.2,298.5 187.2,298.5 189.1,298.5 190.9,298.5 192.7,298.5 194.4,298.5 196.1,298.5 197.7,298.5 199.2,298.5 200.7,298.5 202.2,298.5 203.6,298.5 204.9,298.5 206.3,298.5 207.6,298.5 208.8,298.5 210.0,298.5 211.2,298.5 212.4,298.5 213.5,298.5 214.6,298.5 215.7,298.5 216.8,298.5 217.8,298.5 218.8,298.5 219.8,298.5 220.8,298.5 221.7,298.5 222.7,298.5 223.6,298.5 224.5,298.5 225.4,298.5 226.2,298.5 227.1,298.5 227.9,298.5 228.7,298.5 229.5,298.5 231.1,298.5 232.6,298.5 234.1,298.5 235.5,298.5 236.9,298.5 238.2,298.5 239.6,298.5 240.8,298.5 242.1,298.5 243.3,298.5 244.5,298.5 245.6,298.5 246.7,298.5 247.8,298.5 248.9,298.5 249.9,298.5 251.0,298.5 252.0,298.5 252.9,298.5 253.9,298.5 254.8,298.5 255.8,298.5 256.7,298.5 257.6,298.5 258.4,298.5 259.3,298.5 260.1,298.5 261.0,298.5 261.8,298.5 263.0,298.5 264.1,298.5 265.3,298.5 266.4,298.5 267.5,298.5 268.5,298.5 269.6,298.5 270.6,298.5 271.6,298.5 272.5,298.5 273.5,298.5 274.4,298.5 275.3,298.5 276.2,298.5 277.1,298.5 278.0,298.5 278.8,298.5 279.6,298.5 280.5,298.5 281.3,298.5 282.3,298.5 283.4,298.5 284.4,298.5 285.3,298.5 286.3,298.5 287.3,298.5 288.2,298.5 289.1,298.5 290.0,298.5 290.9,298.5 291.7,298.5 292.6,298.5 293.4,298.5 294.2,298.5 295.0,298.5 296.0,298.5 297.0,298.5 297.9,298.5 298.8,298.5 299.7,298.5 300.6,298.5 301.5,298.5 302.4,298.5 303.2,298.5 304.0,298.5 304.9,298.5 305.8,298.5 306.7,298.5 307.7,298.5 308.6,298.5 309.5,298.5 310.3,298.5 311.2,298.5 312.0,298.5 312.8,298.5 313.7,298.5 314.6,298.5 315.5,298.5 316.4,298.5 317.3,298.5 318.1,298.5 319.0,298.5 319.8,298.5 320.6,298.5 321.4,298.5 322.3,298.5 323.2,298.5 324.1,298.5 324.9,298.5 325.7,298.5 326.6,298.5 327.4,298.5 328.3,298.5 329.1,298.5 330.0,298.5 330.8,298.5 331.7,298.5 332.5,298.5 333.3,298.5 334.2,298.5 335.0,298.5 335.9,298.5 336.7,298.5 337.5,298.5 338.4,298.5 339.2,298.5 340.1,298.5 340.9,298.5 341.7,298.5 342.5,298.5 343.4,298.5 344.2,298.5 345.1,298.5 345.9,298.5 346.7,298.5 347.6,298.5 348.4,298.5 349.2,298.5 350.0,298.5 350.9,298.5 351.7,298.5 352.6,298.5 353.4,298.5 354.2,298.5 355.1,298.5 355.9,298.5 356.7,298.5 357.6,298.5 358.4,298.5 359.2,298.5 360.0,298.5 360.9,298.5 361.7,298.5 362.5,298.5 363.3,298.5 364.2,298.5 365.0,298.5 365.8,298.5 366.6,298.5 367.4,298.5 368.3,298.5 369.1,298.5 369.9,298.5 370.7,298.5 371.5,298.5 372.4,298.5 373.2,298.5 374.0,298.5 374.8,298.5 375.6,298.5 376.4,298.5 377.2,298.5 378.1,298.5 378.9,298.5 379.7,298.5 380.5,298.5 381.3,298.5 382.1,298.5 383.0,298.5 383.8,298.5 384.6,298.5 385.4,298.5 386.2,298.5 387.0,298.5 387.9,298.5 388.7,298.5 389.5,298.5 390.3,298.5 391.1,298.5 391.9,298.5" fill="none" stroke="#2ecc71" stroke-width="1.5" stroke-linejoin="round" clip-path="url(#pc188)"/>
  <line x1="442" y1="221" x2="442" y2="376" stroke="#d1d5db"/>
  <line x1="442" y1="298.5" x2="800" y2="298.5" stroke="#d1d5db"/>
  <text x="621" y="402" text-anchor="middle" font-size="9" fill="#6b7280">Samples</text>
  <text x="420" y="298.5" text-anchor="middle" font-size="9" fill="#6b7280" transform="rotate(-90 420 298.5)">Impulse response</text>
  <line x1="442.0" y1="221" x2="442.0" y2="376" stroke="#e5e7eb" stroke-width="0.5"/>
  <text x="442.0" y="388" text-anchor="middle" font-size="8" fill="#6b7280">0</text>
  <line x1="531.5" y1="221" x2="531.5" y2="376" stroke="#e5e7eb" stroke-width="0.5"/>
  <text x="531.5" y="388" text-anchor="middle" font-size="8" fill="#6b7280">32</text>
  <line x1="621.0" y1="221" x2="621.0" y2="376" stroke="#e5e7eb" stroke-width="0.5"/>
  <text x="621.0" y="388" text-anchor="middle" font-size="8" fill="#6b7280">64</text>
  <line x1="710.5" y1="221" x2="710.5" y2="376" stroke="#e5e7eb" stroke-width="0.5"/>
  <text x="710.5" y="388" text-anchor="middle" font-size="8" fill="#6b7280">96</text>
  <line x1="800.0" y1="221" x2="800.0" y2="376" stroke="#e5e7eb" stroke-width="0.5"/>
  <text x="800.0" y="388" text-anchor="middle" font-size="8" fill="#6b7280">128</text>
  <line x1="442" y1="352.1" x2="800" y2="352.1" stroke="#e5e7eb" stroke-width="0.5"/>
  <text x="438" y="355.1" text-anchor="end" font-size="8" fill="#6b7280">-0.6</text>
  <text x="438" y="301.5" text-anchor="end" font-size="8" fill="#6b7280">0</text>
  <line x1="442" y1="244.9" x2="800" y2="244.9" stroke="#e5e7eb" stroke-width="0.5"/>
  <text x="438" y="247.9" text-anchor="end" font-size="8" fill="#6b7280">0.6</text>
  <defs><linearGradient id="g189" x1="0" y1="221" x2="0" y2="298.5" gradientUnits="userSpaceOnUse">
    <stop offset="0%" stop-color="#f39c12" stop-opacity="0.15"/>
    <stop offset="100%" stop-color="#f39c12" stop-opacity="0.02"/>
  </linearGradient></defs>
  <defs><linearGradient id="g190" x1="0" y1="376" x2="0" y2="298.5" gradientUnits="userSpaceOnUse">
    <stop offset="0%" stop-color="#f39c12" stop-opacity="0.15"/>
    <stop offset="100%" stop-color="#f39c12" stop-opacity="0.02"/>
  </linearGradient></defs>
  <defs><clipPath id="c191"><rect x="442" y="221" width="358" height="77.5"/></clipPath></defs>
  <defs><clipPath id="c192"><rect x="442" y="298.5" width="358" height="77.5"/></clipPath></defs>
  <path d="M442.0,221.0 442.0,221.0 444.8,320.4 447.6,316.9 450.4,313.4 453.2,310.2 456.0,307.1 458.8,304.3 461.6,301.8 464.4,299.5 467.2,297.6 470.0,295.9 472.8,294.4 475.6,293.3 478.4,292.4 481.2,291.7 484.0,291.2 486.8,291.0 489.5,290.9 492.3,291.0 495.1,291.2 497.9,291.5 500.7,291.9 503.5,292.4 506.3,292.9 509.1,293.5 511.9,294.1 514.7,294.7 517.5,295.2 520.3,295.8 523.1,296.4 525.9,296.9 528.7,297.4 531.5,297.8 534.3,298.2 537.1,298.5 539.9,298.8 542.7,299.1 545.5,299.3 548.3,299.5 551.1,299.6 553.9,299.7 556.7,299.7 559.5,299.7 562.3,299.7 565.1,299.7 567.9,299.7 570.7,299.6 573.5,299.5 576.3,299.5 579.0,299.4 581.8,299.3 584.6,299.2 587.4,299.1 590.2,299.0 593.0,298.9 595.8,298.8 598.6,298.7 601.4,298.6 604.2,298.6 607.0,298.5 609.8,298.5 612.6,298.4 615.4,298.4 618.2,298.4 621.0,298.3 623.8,298.3 626.6,298.3 629.4,298.3 632.2,298.3 635.0,298.3 637.8,298.3 640.6,298.3 643.4,298.3 646.2,298.3 649.0,298.4 651.8,298.4 654.6,298.4 657.4,298.4 660.2,298.4 663.0,298.4 665.8,298.4 668.5,298.5 671.3,298.5 674.1,298.5 676.9,298.5 679.7,298.5 682.5,298.5 685.3,298.5 688.1,298.5 690.9,298.5 693.7,298.5 696.5,298.5 699.3,298.5 702.1,298.5 704.9,298.5 707.7,298.5 710.5,298.5 713.3,298.5 716.1,298.5 718.9,298.5 721.7,298.5 724.5,298.5 727.3,298.5 730.1,298.5 732.9,298.5 735.7,298.5 738.5,298.5 741.3,298.5 744.1,298.5 746.9,298.5 749.7,298.5 752.5,298.5 755.3,298.5 758.0,298.5 760.8,298.5 763.6,298.5 766.4,298.5 769.2,298.5 772.0,298.5 774.8,298.5 777.6,298.5 780.4,298.5 783.2,298.5 786.0,298.5 788.8,298.5 791.6,298.5 794.4,298.5 797.2,298.5 L797.2,298.5 L442.0,298.5 Z" fill="url(#g189)" clip-path="url(#c191)"/>
  <path d="M442.0,221.0 442.0,221.0 444.8,320.4 447.6,316.9 450.4,313.4 453.2,310.2 456.0,307.1 458.8,304.3 461.6,301.8 464.4,299.5 467.2,297.6 470.0,295.9 472.8,294.4 475.6,293.3 478.4,292.4 481.2,291.7 484.0,291.2 486.8,291.0 489.5,290.9 492.3,291.0 495.1,291.2 497.9,291.5 500.7,291.9 503.5,292.4 506.3,292.9 509.1,293.5 511.9,294.1 514.7,294.7 517.5,295.2 520.3,295.8 523.1,296.4 525.9,296.9 528.7,297.4 531.5,297.8 534.3,298.2 537.1,298.5 539.9,298.8 542.7,299.1 545.5,299.3 548.3,299.5 551.1,299.6 553.9,299.7 556.7,299.7 559.5,299.7 562.3,299.7 565.1,299.7 567.9,299.7 570.7,299.6 573.5,299.5 576.3,299.5 579.0,299.4 581.8,299.3 584.6,299.2 587.4,299.1 590.2,299.0 593.0,298.9 595.8,298.8 598.6,298.7 601.4,298.6 604.2,298.6 607.0,298.5 609.8,298.5 612.6,298.4 615.4,298.4 618.2,298.4 621.0,298.3 623.8,298.3 626.6,298.3 629.4,298.3 632.2,298.3 635.0,298.3 637.8,298.3 640.6,298.3 643.4,298.3 646.2,298.3 649.0,298.4 651.8,298.4 654.6,298.4 657.4,298.4 660.2,298.4 663.0,298.4 665.8,298.4 668.5,298.5 671.3,298.5 674.1,298.5 676.9,298.5 679.7,298.5 682.5,298.5 685.3,298.5 688.1,298.5 690.9,298.5 693.7,298.5 696.5,298.5 699.3,298.5 702.1,298.5 704.9,298.5 707.7,298.5 710.5,298.5 713.3,298.5 716.1,298.5 718.9,298.5 721.7,298.5 724.5,298.5 727.3,298.5 730.1,298.5 732.9,298.5 735.7,298.5 738.5,298.5 741.3,298.5 744.1,298.5 746.9,298.5 749.7,298.5 752.5,298.5 755.3,298.5 758.0,298.5 760.8,298.5 763.6,298.5 766.4,298.5 769.2,298.5 772.0,298.5 774.8,298.5 777.6,298.5 780.4,298.5 783.2,298.5 786.0,298.5 788.8,298.5 791.6,298.5 794.4,298.5 797.2,298.5 L797.2,298.5 L442.0,298.5 Z" fill="url(#g190)" clip-path="url(#c192)"/>
  <defs><clipPath id="pc193"><rect x="442" y="221" width="358" height="155"/></clipPath></defs>
  <polyline points="442.0,221.0 444.8,320.4 447.6,316.9 450.4,313.4 453.2,310.2 456.0,307.1 458.8,304.3 461.6,301.8 464.4,299.5 467.2,297.6 470.0,295.9 472.8,294.4 475.6,293.3 478.4,292.4 481.2,291.7 484.0,291.2 486.8,291.0 489.5,290.9 492.3,291.0 495.1,291.2 497.9,291.5 500.7,291.9 503.5,292.4 506.3,292.9 509.1,293.5 511.9,294.1 514.7,294.7 517.5,295.2 520.3,295.8 523.1,296.4 525.9,296.9 528.7,297.4 531.5,297.8 534.3,298.2 537.1,298.5 539.9,298.8 542.7,299.1 545.5,299.3 548.3,299.5 551.1,299.6 553.9,299.7 556.7,299.7 559.5,299.7 562.3,299.7 565.1,299.7 567.9,299.7 570.7,299.6 573.5,299.5 576.3,299.5 579.0,299.4 581.8,299.3 584.6,299.2 587.4,299.1 590.2,299.0 593.0,298.9 595.8,298.8 598.6,298.7 601.4,298.6 604.2,298.6 607.0,298.5 609.8,298.5 612.6,298.4 615.4,298.4 618.2,298.4 621.0,298.3 623.8,298.3 626.6,298.3 629.4,298.3 632.2,298.3 635.0,298.3 637.8,298.3 640.6,298.3 643.4,298.3 646.2,298.3 649.0,298.4 651.8,298.4 654.6,298.4 657.4,298.4 660.2,298.4 663.0,298.4 665.8,298.4 668.5,298.5 671.3,298.5 674.1,298.5 676.9,298.5 679.7,298.5 682.5,298.5 685.3,298.5 688.1,298.5 690.9,298.5 693.7,298.5 696.5,298.5 699.3,298.5 702.1,298.5 704.9,298.5 707.7,298.5 710.5,298.5 713.3,298.5 716.1,298.5 718.9,298.5 721.7,298.5 724.5,298.5 727.3,298.5 730.1,298.5 732.9,298.5 735.7,298.5 738.5,298.5 741.3,298.5 744.1,298.5 746.9,298.5 749.7,298.5 752.5,298.5 755.3,298.5 758.0,298.5 760.8,298.5 763.6,298.5 766.4,298.5 769.2,298.5 772.0,298.5 774.8,298.5 777.6,298.5 780.4,298.5 783.2,298.5 786.0,298.5 788.8,298.5 791.6,298.5 794.4,298.5 797.2,298.5" fill="none" stroke="#f39c12" stroke-width="1.3" stroke-linejoin="round" clip-path="url(#pc193)"/>
</svg>
