<svg xmlns="http://www.w3.org/2000/svg" viewBox="0 0 820 392" style="font-family:system-ui,-apple-system,sans-serif">
  <text x="800" y="11" text-anchor="end" font-size="11" font-weight="600" fill="#6b7280">Biquad peaking, fc=1kHz</text>
  <line x1="34" y1="16" x2="34" y2="171" stroke="#d1d5db"/>
  <line x1="34" y1="47.0" x2="392" y2="47.0" stroke="#d1d5db"/>
  <text x="213" y="197" text-anchor="middle" font-size="9" fill="#6b7280">Hz</text>
  <text x="12" y="93.5" text-anchor="middle" font-size="9" fill="#6b7280" transform="rotate(-90 12 93.5)">dB</text>
  <line x1="66.6" y1="16" x2="66.6" y2="171" stroke="#e5e7eb" stroke-width="0.5"/>
  <line x1="85.7" y1="16" x2="85.7" y2="171" stroke="#e5e7eb" stroke-width="0.5"/>
  <line x1="99.3" y1="16" x2="99.3" y2="171" stroke="#e5e7eb" stroke-width="0.5"/>
  <line x1="109.8" y1="16" x2="109.8" y2="171" stroke="#e5e7eb" stroke-width="0.5"/>
  <line x1="118.4" y1="16" x2="118.4" y2="171" stroke="#e5e7eb" stroke-width="0.5"/>
  <line x1="125.7" y1="16" x2="125.7" y2="171" stroke="#e5e7eb" stroke-width="0.5"/>
  <line x1="131.9" y1="16" x2="131.9" y2="171" stroke="#e5e7eb" stroke-width="0.5"/>
  <line x1="137.5" y1="16" x2="137.5" y2="171" stroke="#e5e7eb" stroke-width="0.5"/>
  <line x1="175.1" y1="16" x2="175.1" y2="171" stroke="#e5e7eb" stroke-width="0.5"/>
  <line x1="194.2" y1="16" x2="194.2" y2="171" stroke="#e5e7eb" stroke-width="0.5"/>
  <line x1="207.7" y1="16" x2="207.7" y2="171" stroke="#e5e7eb" stroke-width="0.5"/>
  <line x1="218.3" y1="16" x2="218.3" y2="171" stroke="#e5e7eb" stroke-width="0.5"/>
  <line x1="226.8" y1="16" x2="226.8" y2="171" stroke="#e5e7eb" stroke-width="0.5"/>
  <line x1="234.1" y1="16" x2="234.1" y2="171" stroke="#e5e7eb" stroke-width="0.5"/>
  <line x1="240.4" y1="16" x2="240.4" y2="171" stroke="#e5e7eb" stroke-width="0.5"/>
  <line x1="245.9" y1="16" x2="245.9" y2="171" stroke="#e5e7eb" stroke-width="0.5"/>
  <line x1="283.5" y1="16" x2="283.5" y2="171" stroke="#e5e7eb" stroke-width="0.5"/>
  <line x1="302.6" y1="16" x2="302.6" y2="171" stroke="#e5e7eb" stroke-width="0.5"/>
  <line x1="316.2" y1="16" x2="316.2" y2="171" stroke="#e5e7eb" stroke-width="0.5"/>
  <line x1="326.7" y1="16" x2="326.7" y2="171" stroke="#e5e7eb" stroke-width="0.5"/>
  <line x1="335.3" y1="16" x2="335.3" y2="171" stroke="#e5e7eb" stroke-width="0.5"/>
  <line x1="342.6" y1="16" x2="342.6" y2="171" stroke="#e5e7eb" stroke-width="0.5"/>
  <line x1="348.8" y1="16" x2="348.8" y2="171" stroke="#e5e7eb" stroke-width="0.5"/>
  <line x1="354.4" y1="16" x2="354.4" y2="171" stroke="#e5e7eb" stroke-width="0.5"/>
  <line x1="392.0" y1="16" x2="392.0" y2="171" stroke="#e5e7eb" stroke-width="0.5"/>
  <line x1="142.5" y1="16" x2="142.5" y2="171" stroke="#e5e7eb" stroke-width="0.5"/>
  <text x="142.5" y="183" text-anchor="middle" font-size="8" fill="#6b7280">100</text>
  <line x1="250.9" y1="16" x2="250.9" y2="171" stroke="#e5e7eb" stroke-width="0.5"/>
  <text x="250.9" y="183" text-anchor="middle" font-size="8" fill="#6b7280">1k</text>
  <line x1="359.4" y1="16" x2="359.4" y2="171" stroke="#e5e7eb" stroke-width="0.5"/>
  <text x="359.4" y="183" text-anchor="middle" font-size="8" fill="#6b7280">10k</text>
  <line x1="34" y1="31.5" x2="392" y2="31.5" stroke="#e5e7eb" stroke-width="0.5"/>
  <line x1="34" y1="62.5" x2="392" y2="62.5" stroke="#e5e7eb" stroke-width="0.5"/>
  <line x1="34" y1="16.0" x2="392" y2="16.0" stroke="#e5e7eb" stroke-width="0.5"/>
  <text x="30" y="19.0" text-anchor="end" font-size="8" fill="#6b7280">+20</text>
  <text x="30" y="50.0" text-anchor="end" font-size="8" fill="#6b7280">0</text>
  <line x1="34" y1="78.0" x2="392" y2="78.0" stroke="#e5e7eb" stroke-width="0.5"/>
  <text x="30" y="81.0" text-anchor="end" font-size="8" fill="#6b7280">-20</text>
  <line x1="34" y1="109.0" x2="392" y2="109.0" stroke="#e5e7eb" stroke-width="0.5"/>
  <text x="30" y="112.0" text-anchor="end" font-size="8" fill="#6b7280">-40</text>
  <line x1="34" y1="140.0" x2="392" y2="140.0" stroke="#e5e7eb" stroke-width="0.5"/>
  <text x="30" y="143.0" text-anchor="end" font-size="8" fill="#6b7280">-60</text>
  <line x1="34" y1="171.0" x2="392" y2="171.0" stroke="#e5e7eb" stroke-width="0.5"/>
  <text x="30" y="174.0" text-anchor="end" font-size="8" fill="#6b7280">-80</text>
  <line x1="250.9" y1="16" x2="250.9" y2="171" stroke="#d1d5db" stroke-width="1" stroke-dasharray="4 3"/>
  <defs><linearGradient id="g267" x1="0" y1="16" x2="0" y2="171" gradientUnits="userSpaceOnUse">
    <stop offset="0%" stop-color="#4a90d9" stop-opacity="0.15"/>
    <stop offset="100%" stop-color="#4a90d9" stop-opacity="0.02"/>
  </linearGradient></defs>
  <path d="M37.5,47.0 37.5,47.0 70.1,47.0 89.2,47.0 102.8,47.0 113.3,46.9 121.9,46.9 129.1,46.9 135.4,46.9 141.0,46.8 145.9,46.8 150.4,46.7 154.5,46.7 158.3,46.6 161.8,46.5 165.0,46.5 168.1,46.4 170.9,46.3 173.6,46.3 176.2,46.2 178.6,46.1 180.9,46.0 183.1,45.9 185.2,45.8 187.2,45.7 189.1,45.6 190.9,45.5 192.7,45.4 194.4,45.3 196.1,45.1 197.7,45.0 199.2,44.9 200.7,44.8 202.2,44.6 203.6,44.5 204.9,44.4 206.3,44.2 207.6,44.1 208.8,43.9 210.0,43.8 211.2,43.6 212.4,43.5 213.5,43.3 214.6,43.2 215.7,43.0 216.8,42.9 217.8,42.7 218.8,42.5 219.8,42.4 220.8,42.2 221.7,42.0 222.7,41.9 223.6,41.7 224.5,41.6 225.4,41.4 226.2,41.2 227.1,41.1 227.9,40.9 228.7,40.8 229.5,40.6 231.1,40.3 232.6,40.0 234.1,39.7 235.5,39.5 236.9,39.2 238.2,39.0 239.6,38.7 240.8,38.5 242.1,38.4 243.3,38.2 244.5,38.1 245.6,37.9 246.7,37.9 247.8,37.8 248.9,37.7 249.9,37.7 251.0,37.7 252.0,37.7 252.9,37.7 253.9,37.8 254.8,37.8 255.8,37.9 256.7,38.0 257.6,38.1 258.4,38.2 259.3,38.3 260.1,38.4 261.0,38.5 261.8,38.7 263.0,38.9 264.1,39.1 265.3,39.3 266.4,39.5 267.5,39.7 268.5,39.9 269.6,40.1 270.6,40.3 271.6,40.5 272.5,40.7 273.5,40.9 274.4,41.0 275.3,41.2 276.2,41.4 277.1,41.5 278.0,41.7 278.8,41.9 279.6,42.0 280.5,42.1 281.3,42.3 282.3,42.5 283.4,42.6 284.4,42.8 285.3,42.9 286.3,43.1 287.3,43.2 288.2,43.3 289.1,43.5 290.0,43.6 290.9,43.7 291.7,43.8 292.6,43.9 293.4,44.0 294.2,44.1 295.0,44.2 296.0,44.3 297.0,44.4 297.9,44.5 298.8,44.6 299.7,44.7 300.6,44.8 301.5,44.8 302.4,44.9 303.2,45.0 304.0,45.1 304.9,45.1 305.8,45.2 306.7,45.3 307.7,45.3 308.6,45.4 309.5,45.5 310.3,45.5 311.2,45.6 312.0,45.6 312.8,45.7 313.7,45.7 314.6,45.8 315.5,45.8 316.4,45.9 317.3,45.9 318.1,45.9 319.0,46.0 319.8,46.0 320.6,46.0 321.4,46.1 322.3,46.1 323.2,46.1 324.1,46.2 324.9,46.2 325.7,46.2 326.6,46.3 327.4,46.3 328.3,46.3 329.1,46.3 330.0,46.4 330.8,46.4 331.7,46.4 332.5,46.4 333.3,46.5 334.2,46.5 335.0,46.5 335.9,46.5 336.7,46.5 337.5,46.6 338.4,46.6 339.2,46.6 340.1,46.6 340.9,46.6 341.7,46.6 342.5,46.7 343.4,46.7 344.2,46.7 345.1,46.7 345.9,46.7 346.7,46.7 347.6,46.7 348.4,46.7 349.2,46.8 350.0,46.8 350.9,46.8 351.7,46.8 352.6,46.8 353.4,46.8 354.2,46.8 355.1,46.8 355.9,46.8 356.7,46.8 357.6,46.8 358.4,46.9 359.2,46.9 360.0,46.9 360.9,46.9 361.7,46.9 362.5,46.9 363.3,46.9 364.2,46.9 365.0,46.9 365.8,46.9 366.6,46.9 367.4,46.9 368.3,46.9 369.1,46.9 369.9,46.9 370.7,46.9 371.5,46.9 372.4,46.9 373.2,46.9 374.0,47.0 374.8,47.0 375.6,47.0 376.4,47.0 377.2,47.0 378.1,47.0 378.9,47.0 379.7,47.0 380.5,47.0 381.3,47.0 382.1,47.0 383.0,47.0 383.8,47.0 384.6,47.0 385.4,47.0 386.2,47.0 387.0,47.0 387.9,47.0 388.7,47.0 389.5,47.0 390.3,47.0 391.1,47.0 391.9,47.0 L391.9,171.0 L37.5,171.0 Z" fill="url(#g267)"/>
  <defs><clipPath id="pc268"><rect x="34" y="16" width="358" height="155"/></clipPath></defs>
  <polyline points="37.5,47.0 70.1,47.0 89.2,47.0 102.8,47.0 113.3,46.9 121.9,46.9 129.1,46.9 135.4,46.9 141.0,46.8 145.9,46.8 150.4,46.7 154.5,46.7 158.3,46.6 161.8,46.5 165.0,46.5 168.1,46.4 170.9,46.3 173.6,46.3 176.2,46.2 178.6,46.1 180.9,46.0 183.1,45.9 185.2,45.8 187.2,45.7 189.1,45.6 190.9,45.5 192.7,45.4 194.4,45.3 196.1,45.1 197.7,45.0 199.2,44.9 200.7,44.8 202.2,44.6 203.6,44.5 204.9,44.4 206.3,44.2 207.6,44.1 208.8,43.9 210.0,43.8 211.2,43.6 212.4,43.5 213.5,43.3 214.6,43.2 215.7,43.0 216.8,42.9 217.8,42.7 218.8,42.5 219.8,42.4 220.8,42.2 221.7,42.0 222.7,41.9 223.6,41.7 224.5,41.6 225.4,41.4 226.2,41.2 227.1,41.1 227.9,40.9 228.7,40.8 229.5,40.6 231.1,40.3 232.6,40.0 234.1,39.7 235.5,39.5 236.9,39.2 238.2,39.0 239.6,38.7 240.8,38.5 242.1,38.4 243.3,38.2 244.5,38.1 245.6,37.9 246.7,37.9 247.8,37.8 248.9,37.7 249.9,37.7 251.0,37.7 252.0,37.7 252.9,37.7 253.9,37.8 254.8,37.8 255.8,37.9 256.7,38.0 257.6,38.1 258.4,38.2 259.3,38.3 260.1,38.4 261.0,38.5 261.8,38.7 263.0,38.9 264.1,39.1 265.3,39.3 266.4,39.5 267.5,39.7 268.5,39.9 269.6,40.1 270.6,40.3 271.6,40.5 272.5,40.7 273.5,40.9 274.4,41.0 275.3,41.2 276.2,41.4 277.1,41.5 278.0,41.7 278.8,41.9 279.6,42.0 280.5,42.1 281.3,42.3 282.3,42.5 283.4,42.6 284.4,42.8 285.3,42.9 286.3,43.1 287.3,43.2 288.2,43.3 289.1,43.5 290.0,43.6 290.9,43.7 291.7,43.8 292.6,43.9 293.4,44.0 294.2,44.1 295.0,44.2 296.0,44.3 297.0,44.4 297.9,44.5 298.8,44.6 299.7,44.7 300.6,44.8 301.5,44.8 302.4,44.9 303.2,45.0 304.0,45.1 304.9,45.1 305.8,45.2 306.7,45.3 307.7,45.3 308.6,45.4 309.5,45.5 310.3,45.5 311.2,45.6 312.0,45.6 312.8,45.7 313.7,45.7 314.6,45.8 315.5,45.8 316.4,45.9 317.3,45.9 318.1,45.9 319.0,46.0 319.8,46.0 320.6,46.0 321.4,46.1 322.3,46.1 323.2,46.1 324.1,46.2 324.9,46.2 325.7,46.2 326.6,46.3 327.4,46.3 328.3,46.3 329.1,46.3 330.0,46.4 330.8,46.4 331.7,46.4 332.5,46.4 333.3,46.5 334.2,46.5 335.0,46.5 335.9,46.5 336.7,46.5 337.5,46.6 338.4,46.6 339.2,46.6 340.1,46.6 340.9,46.6 341.7,46.6 342.5,46.7 343.4,46.7 344.2,46.7 345.1,46.7 345.9,46.7 346.7,46.7 347.6,46.7 348.4,46.7 349.2,46.8 350.0,46.8 350.9,46.8 351.7,46.8 352.6,46.8 353.4,46.8 354.2,46.8 355.1,46.8 355.9,46.8 356.7,46.8 357.6,46.8 358.4,46.9 359.2,46.9 360.0,46.9 360.9,46.9 361.7,46.9 362.5,46.9 363.3,46.9 364.2,46.9 365.0,46.9 365.8,46.9 366.6,46.9 367.4,46.9 368.3,46.9 369.1,46.9 369.9,46.9 370.7,46.9 371.5,46.9 372.4,46.9 373.2,46.9 374.0,47.0 374.8,47.0 375.6,47.0 376.4,47.0 377.2,47.0 378.1,47.0 378.9,47.0 379.7,47.0 380.5,47.0 381.3,47.0 382.1,47.0 383.0,47.0 383.8,47.0 384.6,47.0 385.4,47.0 386.2,47.0 387.0,47.0 387.9,47.0 388.7,47.0 389.5,47.0 390.3,47.0 391.1,47.0 391.9,47.0" fill="none" stroke="#4a90d9" stroke-width="1.5" stroke-linejoin="round" clip-path="url(#pc268)"/>
  <line x1="442" y1="16" x2="442" y2="171" stroke="#d1d5db"/>
  <line x1="442" y1="93.5" x2="800" y2="93.5" stroke="#d1d5db"/>
  <text x="621" y="197" text-anchor="middle" font-size="9" fill="#6b7280">Hz</text>
  <text x="420" y="93.5" text-anchor="middle" font-size="9" fill="#6b7280" transform="rotate(-90 420 93.5)">Phase (deg)</text>
  <line x1="474.6" y1="16" x2="474.6" y2="171" stroke="#e5e7eb" stroke-width="0.5"/>
  <line x1="493.7" y1="16" x2="493.7" y2="171" stroke="#e5e7eb" stroke-width="0.5"/>
  <line x1="507.3" y1="16" x2="507.3" y2="171" stroke="#e5e7eb" stroke-width="0.5"/>
  <line x1="517.8" y1="16" x2="517.8" y2="171" stroke="#e5e7eb" stroke-width="0.5"/>
  <line x1="526.4" y1="16" x2="526.4" y2="171" stroke="#e5e7eb" stroke-width="0.5"/>
  <line x1="533.7" y1="16" x2="533.7" y2="171" stroke="#e5e7eb" stroke-width="0.5"/>
  <line x1="539.9" y1="16" x2="539.9" y2="171" stroke="#e5e7eb" stroke-width="0.5"/>
  <line x1="545.5" y1="16" x2="545.5" y2="171" stroke="#e5e7eb" stroke-width="0.5"/>
  <line x1="583.1" y1="16" x2="583.1" y2="171" stroke="#e5e7eb" stroke-width="0.5"/>
  <line x1="602.2" y1="16" x2="602.2" y2="171" stroke="#e5e7eb" stroke-width="0.5"/>
  <line x1="615.7" y1="16" x2="615.7" y2="171" stroke="#e5e7eb" stroke-width="0.5"/>
  <line x1="626.3" y1="16" x2="626.3" y2="171" stroke="#e5e7eb" stroke-width="0.5"/>
  <line x1="634.8" y1="16" x2="634.8" y2="171" stroke="#e5e7eb" stroke-width="0.5"/>
  <line x1="642.1" y1="16" x2="642.1" y2="171" stroke="#e5e7eb" stroke-width="0.5"/>
  <line x1="648.4" y1="16" x2="648.4" y2="171" stroke="#e5e7eb" stroke-width="0.5"/>
  <line x1="653.9" y1="16" x2="653.9" y2="171" stroke="#e5e7eb" stroke-width="0.5"/>
  <line x1="691.5" y1="16" x2="691.5" y2="171" stroke="#e5e7eb" stroke-width="0.5"/>
  <line x1="710.6" y1="16" x2="710.6" y2="171" stroke="#e5e7eb" stroke-width="0.5"/>
  <line x1="724.2" y1="16" x2="724.2" y2="171" stroke="#e5e7eb" stroke-width="0.5"/>
  <line x1="734.7" y1="16" x2="734.7" y2="171" stroke="#e5e7eb" stroke-width="0.5"/>
  <line x1="743.3" y1="16" x2="743.3" y2="171" stroke="#e5e7eb" stroke-width="0.5"/>
  <line x1="750.6" y1="16" x2="750.6" y2="171" stroke="#e5e7eb" stroke-width="0.5"/>
  <line x1="756.8" y1="16" x2="756.8" y2="171" stroke="#e5e7eb" stroke-width="0.5"/>
  <line x1="762.4" y1="16" x2="762.4" y2="171" stroke="#e5e7eb" stroke-width="0.5"/>
  <line x1="800.0" y1="16" x2="800.0" y2="171" stroke="#e5e7eb" stroke-width="0.5"/>
  <line x1="550.5" y1="16" x2="550.5" y2="171" stroke="#e5e7eb" stroke-width="0.5"/>
  <text x="550.5" y="183" text-anchor="middle" font-size="8" fill="#6b7280">100</text>
  <line x1="658.9" y1="16" x2="658.9" y2="171" stroke="#e5e7eb" stroke-width="0.5"/>
  <text x="658.9" y="183" text-anchor="middle" font-size="8" fill="#6b7280">1k</text>
  <line x1="767.4" y1="16" x2="767.4" y2="171" stroke="#e5e7eb" stroke-width="0.5"/>
  <text x="767.4" y="183" text-anchor="middle" font-size="8" fill="#6b7280">10k</text>
  <line x1="442" y1="54.8" x2="800" y2="54.8" stroke="#e5e7eb" stroke-width="0.5"/>
  <line x1="442" y1="132.3" x2="800" y2="132.3" stroke="#e5e7eb" stroke-width="0.5"/>
  <line x1="442" y1="16.0" x2="800" y2="16.0" stroke="#e5e7eb" stroke-width="0.5"/>
  <text x="438" y="19.0" text-anchor="end" font-size="8" fill="#6b7280">180</text>
  <text x="438" y="96.5" text-anchor="end" font-size="8" fill="#6b7280">0</text>
  <line x1="442" y1="171.0" x2="800" y2="171.0" stroke="#e5e7eb" stroke-width="0.5"/>
  <text x="438" y="174.0" text-anchor="end" font-size="8" fill="#6b7280">-180</text>
  <line x1="658.9" y1="16" x2="658.9" y2="171" stroke="#d1d5db" stroke-width="1" stroke-dasharray="4 3"/>
  <defs><linearGradient id="g269" x1="0" y1="16" x2="0" y2="93.5" gradientUnits="userSpaceOnUse">
    <stop offset="0%" stop-color="#e74c3c" stop-opacity="0.15"/>
    <stop offset="100%" stop-color="#e74c3c" stop-opacity="0.02"/>
  </linearGradient></defs>
  <defs><linearGradient id="g270" x1="0" y1="171" x2="0" y2="93.5" gradientUnits="userSpaceOnUse">
    <stop offset="0%" stop-color="#e74c3c" stop-opacity="0.15"/>
    <stop offset="100%" stop-color="#e74c3c" stop-opacity="0.02"/>
  </linearGradient></defs>
  <defs><clipPath id="c271"><rect x="442" y="16" width="358" height="77.5"/></clipPath></defs>
  <defs><clipPath id="c272"><rect x="442" y="93.5" width="358" height="77.5"/></clipPath></defs>
  <path d="M445.5,93.2 445.5,93.2 478.1,93.0 497.2,92.7 510.8,92.4 521.3,92.2 529.9,91.9 537.1,91.7 543.4,91.4 549.0,91.2 553.9,90.9 558.4,90.6 562.5,90.4 566.3,90.2 569.8,89.9 573.0,89.7 576.1,89.4 578.9,89.2 581.6,89.0 584.2,88.8 586.6,88.5 588.9,88.3 591.1,88.1 593.2,87.9 595.2,87.7 597.1,87.5 598.9,87.3 600.7,87.2 602.4,87.0 604.1,86.8 605.7,86.7 607.2,86.5 608.7,86.4 610.2,86.2 611.6,86.1 612.9,86.0 614.3,85.8 615.6,85.7 616.8,85.6 618.0,85.5 619.2,85.5 620.4,85.4 621.5,85.3 622.6,85.3 623.7,85.2 624.8,85.2 625.8,85.2 626.8,85.2 627.8,85.1 628.8,85.1 629.7,85.2 630.7,85.2 631.6,85.2 632.5,85.3 633.4,85.3 634.2,85.4 635.1,85.5 635.9,85.5 636.7,85.6 637.5,85.7 639.1,86.0 640.6,86.3 642.1,86.6 643.5,87.0 644.9,87.3 646.2,87.8 647.6,88.2 648.8,88.7 650.1,89.2 651.3,89.7 652.5,90.3 653.6,90.8 654.7,91.4 655.8,91.9 656.9,92.5 657.9,93.0 659.0,93.5 660.0,94.1 660.9,94.6 661.9,95.1 662.8,95.5 663.8,96.0 664.7,96.4 665.6,96.8 666.4,97.2 667.3,97.6 668.1,98.0 669.0,98.3 669.8,98.6 671.0,99.0 672.1,99.4 673.3,99.8 674.4,100.1 675.5,100.4 676.5,100.6 677.6,100.8 678.6,101.0 679.6,101.2 680.5,101.3 681.5,101.4 682.4,101.5 683.3,101.6 684.2,101.7 685.1,101.7 686.0,101.8 686.8,101.8 687.6,101.8 688.5,101.8 689.3,101.9 690.3,101.9 691.4,101.8 692.4,101.8 693.3,101.8 694.3,101.8 695.3,101.7 696.2,101.7 697.1,101.6 698.0,101.6 698.9,101.5 699.7,101.4 700.6,101.4 701.4,101.3 702.2,101.2 703.0,101.2 704.0,101.1 705.0,101.0 705.9,100.9 706.8,100.8 707.7,100.7 708.6,100.6 709.5,100.6 710.4,100.5 711.2,100.4 712.0,100.3 712.9,100.2 713.8,100.1 714.7,100.0 715.7,99.9 716.6,99.8 717.5,99.7 718.3,99.6 719.2,99.5 720.0,99.5 720.8,99.4 721.7,99.3 722.6,99.2 723.5,99.1 724.4,99.0 725.3,98.9 726.1,98.8 727.0,98.7 727.8,98.7 728.6,98.6 729.4,98.5 730.3,98.4 731.2,98.3 732.1,98.2 732.9,98.2 733.7,98.1 734.6,98.0 735.4,97.9 736.3,97.8 737.1,97.8 738.0,97.7 738.8,97.6 739.7,97.5 740.5,97.5 741.3,97.4 742.2,97.3 743.0,97.2 743.9,97.2 744.7,97.1 745.5,97.0 746.4,97.0 747.2,96.9 748.1,96.8 748.9,96.8 749.7,96.7 750.5,96.6 751.4,96.6 752.2,96.5 753.1,96.5 753.9,96.4 754.7,96.3 755.6,96.3 756.4,96.2 757.2,96.2 758.0,96.1 758.9,96.1 759.7,96.0 760.6,95.9 761.4,95.9 762.2,95.8 763.1,95.8 763.9,95.7 764.7,95.7 765.6,95.6 766.4,95.6 767.2,95.5 768.0,95.5 768.9,95.4 769.7,95.4 770.5,95.3 771.3,95.3 772.2,95.2 773.0,95.2 773.8,95.1 774.6,95.1 775.4,95.0 776.3,95.0 777.1,95.0 777.9,94.9 778.7,94.9 779.5,94.8 780.4,94.8 781.2,94.7 782.0,94.7 782.8,94.7 783.6,94.6 784.4,94.6 785.2,94.5 786.1,94.5 786.9,94.4 787.7,94.4 788.5,94.4 789.3,94.3 790.1,94.3 791.0,94.2 791.8,94.2 792.6,94.1 793.4,94.1 794.2,94.1 795.0,94.0 795.9,94.0 796.7,93.9 797.5,93.9 798.3,93.8 799.1,93.8 799.9,93.8 L799.9,93.5 L445.5,93.5 Z" fill="url(#g269)" clip-path="url(#c271)"/>
  <path d="M445.5,93.2 445.5,93.2 478.1,93.0 497.2,92.7 510.8,92.4 521.3,92.2 529.9,91.9 537.1,91.7 543.4,91.4 549.0,91.2 553.9,90.9 558.4,90.6 562.5,90.4 566.3,90.2 569.8,89.9 573.0,89.7 576.1,89.4 578.9,89.2 581.6,89.0 584.2,88.8 586.6,88.5 588.9,88.3 591.1,88.1 593.2,87.9 595.2,87.7 597.1,87.5 598.9,87.3 600.7,87.2 602.4,87.0 604.1,86.8 605.7,86.7 607.2,86.5 608.7,86.4 610.2,86.2 611.6,86.1 612.9,86.0 614.3,85.8 615.6,85.7 616.8,85.6 618.0,85.5 619.2,85.5 620.4,85.4 621.5,85.3 622.6,85.3 623.7,85.2 624.8,85.2 625.8,85.2 626.8,85.2 627.8,85.1 628.8,85.1 629.7,85.2 630.7,85.2 631.6,85.2 632.5,85.3 633.4,85.3 634.2,85.4 635.1,85.5 635.9,85.5 636.7,85.6 637.5,85.7 639.1,86.0 640.6,86.3 642.1,86.6 643.5,87.0 644.9,87.3 646.2,87.8 647.6,88.2 648.8,88.7 650.1,89.2 651.3,89.7 652.5,90.3 653.6,90.8 654.7,91.4 655.8,91.9 656.9,92.5 657.9,93.0 659.0,93.5 660.0,94.1 660.9,94.6 661.9,95.1 662.8,95.5 663.8,96.0 664.7,96.4 665.6,96.8 666.4,97.2 667.3,97.6 668.1,98.0 669.0,98.3 669.8,98.6 671.0,99.0 672.1,99.4 673.3,99.8 674.4,100.1 675.5,100.4 676.5,100.6 677.6,100.8 678.6,101.0 679.6,101.2 680.5,101.3 681.5,101.4 682.4,101.5 683.3,101.6 684.2,101.7 685.1,101.7 686.0,101.8 686.8,101.8 687.6,101.8 688.5,101.8 689.3,101.9 690.3,101.9 691.4,101.8 692.4,101.8 693.3,101.8 694.3,101.8 695.3,101.7 696.2,101.7 697.1,101.6 698.0,101.6 698.9,101.5 699.7,101.4 700.6,101.4 701.4,101.3 702.2,101.2 703.0,101.2 704.0,101.1 705.0,101.0 705.9,100.9 706.8,100.8 707.7,100.7 708.6,100.6 709.5,100.6 710.4,100.5 711.2,100.4 712.0,100.3 712.9,100.2 713.8,100.1 714.7,100.0 715.7,99.9 716.6,99.8 717.5,99.7 718.3,99.6 719.2,99.5 720.0,99.5 720.8,99.4 721.7,99.3 722.6,99.2 723.5,99.1 724.4,99.0 725.3,98.9 726.1,98.8 727.0,98.7 727.8,98.7 728.6,98.6 729.4,98.5 730.3,98.4 731.2,98.3 732.1,98.2 732.9,98.2 733.7,98.1 734.6,98.0 735.4,97.9 736.3,97.8 737.1,97.8 738.0,97.7 738.8,97.6 739.7,97.5 740.5,97.5 741.3,97.4 742.2,97.3 743.0,97.2 743.9,97.2 744.7,97.1 745.5,97.0 746.4,97.0 747.2,96.9 748.1,96.8 748.9,96.8 749.7,96.7 750.5,96.6 751.4,96.6 752.2,96.5 753.1,96.5 753.9,96.4 754.7,96.3 755.6,96.3 756.4,96.2 757.2,96.2 758.0,96.1 758.9,96.1 759.7,96.0 760.6,95.9 761.4,95.9 762.2,95.8 763.1,95.8 763.9,95.7 764.7,95.7 765.6,95.6 766.4,95.6 767.2,95.5 768.0,95.5 768.9,95.4 769.7,95.4 770.5,95.3 771.3,95.3 772.2,95.2 773.0,95.2 773.8,95.1 774.6,95.1 775.4,95.0 776.3,95.0 777.1,95.0 777.9,94.9 778.7,94.9 779.5,94.8 780.4,94.8 781.2,94.7 782.0,94.7 782.8,94.7 783.6,94.6 784.4,94.6 785.2,94.5 786.1,94.5 786.9,94.4 787.7,94.4 788.5,94.4 789.3,94.3 790.1,94.3 791.0,94.2 791.8,94.2 792.6,94.1 793.4,94.1 794.2,94.1 795.0,94.0 795.9,94.0 796.7,93.9 797.5,93.9 798.3,93.8 799.1,93.8 799.9,93.8 L799.9,93.5 L445.5,93.5 Z" fill="url(#g270)" clip-path="url(#c272)"/>
  <defs><clipPath id="pc273"><rect x="442" y="16" width="358" height="155"/></clipPath></defs>
  <polyline points="445.5,93.2 478.1,93.0 497.2,92.7 510.8,92.4 521.3,92.2 529.9,91.9 537.1,91.7 543.4,91.4 549.0,91.2 553.9,90.9 558.4,90.6 562.5,90.4 566.3,90.2 569.8,89.9 573.0,89.7 576.1,89.4 578.9,89.2 581.6,89.0 584.2,88.8 586.6,88.5 588.9,88.3 591.1,88.1 593.2,87.9 595.2,87.7 597.1,87.5 598.9,87.3 600.7,87.2 602.4,87.0 604.1,86.8 605.7,86.7 607.2,86.5 608.7,86.4 610.2,86.2 611.6,86.1 612.9,86.0 614.3,85.8 615.6,85.7 616.8,85.6 618.0,85.5 619.2,85.5 620.4,85.4 621.5,85.3 622.6,85.3 623.7,85.2 624.8,85.2 625.8,85.2 626.8,85.2 627.8,85.1 628.8,85.1 629.7,85.2 630.7,85.2 631.6,85.2 632.5,85.3 633.4,85.3 634.2,85.4 635.1,85.5 635.9,85.5 636.7,85.6 637.5,85.7 639.1,86.0 640.6,86.3 642.1,86.6 643.5,87.0 644.9,87.3 646.2,87.8 647.6,88.2 648.8,88.7 650.1,89.2 651.3,89.7 652.5,90.3 653.6,90.8 654.7,91.4 655.8,91.9 656.9,92.5 657.9,93.0 659.0,93.5 660.0,94.1 660.9,94.6 661.9,95.1 662.8,95.5 663.8,96.0 664.7,96.4 665.6,96.8 666.4,97.2 667.3,97.6 668.1,98.0 669.0,98.3 669.8,98.6 671.0,99.0 672.1,99.4 673.3,99.8 674.4,100.1 675.5,100.4 676.5,100.6 677.6,100.8 678.6,101.0 679.6,101.2 680.5,101.3 681.5,101.4 682.4,101.5 683.3,101.6 684.2,101.7 685.1,101.7 686.0,101.8 686.8,101.8 687.6,101.8 688.5,101.8 689.3,101.9 690.3,101.9 691.4,101.8 692.4,101.8 693.3,101.8 694.3,101.8 695.3,101.7 696.2,101.7 697.1,101.6 698.0,101.6 698.9,101.5 699.7,101.4 700.6,101.4 701.4,101.3 702.2,101.2 703.0,101.2 704.0,101.1 705.0,101.0 705.9,100.9 706.8,100.8 707.7,100.7 708.6,100.6 709.5,100.6 710.4,100.5 711.2,100.4 712.0,100.3 712.9,100.2 713.8,100.1 714.7,100.0 715.7,99.9 716.6,99.8 717.5,99.7 718.3,99.6 719.2,99.5 720.0,99.5 720.8,99.4 721.7,99.3 722.6,99.2 723.5,99.1 724.4,99.0 725.3,98.9 726.1,98.8 727.0,98.7 727.8,98.7 728.6,98.6 729.4,98.5 730.3,98.4 731.2,98.3 732.1,98.2 732.9,98.2 733.7,98.1 734.6,98.0 735.4,97.9 736.3,97.8 737.1,97.8 738.0,97.7 738.8,97.6 739.7,97.5 740.5,97.5 741.3,97.4 742.2,97.3 743.0,97.2 743.9,97.2 744.7,97.1 745.5,97.0 746.4,97.0 747.2,96.9 748.1,96.8 748.9,96.8 749.7,96.7 750.5,96.6 751.4,96.6 752.2,96.5 753.1,96.5 753.9,96.4 754.7,96.3 755.6,96.3 756.4,96.2 757.2,96.2 758.0,96.1 758.9,96.1 759.7,96.0 760.6,95.9 761.4,95.9 762.2,95.8 763.1,95.8 763.9,95.7 764.7,95.7 765.6,95.6 766.4,95.6 767.2,95.5 768.0,95.5 768.9,95.4 769.7,95.4 770.5,95.3 771.3,95.3 772.2,95.2 773.0,95.2 773.8,95.1 774.6,95.1 775.4,95.0 776.3,95.0 777.1,95.0 777.9,94.9 778.7,94.9 779.5,94.8 780.4,94.8 781.2,94.7 782.0,94.7 782.8,94.7 783.6,94.6 784.4,94.6 785.2,94.5 786.1,94.5 786.9,94.4 787.7,94.4 788.5,94.4 789.3,94.3 790.1,94.3 791.0,94.2 791.8,94.2 792.6,94.1 793.4,94.1 794.2,94.1 795.0,94.0 795.9,94.0 796.7,93.9 797.5,93.9 798.3,93.8 799.1,93.8 799.9,93.8" fill="none" stroke="#e74c3c" stroke-width="1.5" stroke-linejoin="round" clip-path="url(#pc273)"/>
  <line x1="34" y1="221" x2="34" y2="376" stroke="#d1d5db"/>
  <line x1="34" y1="298.5" x2="392" y2="298.5" stroke="#d1d5db"/>
  <text x="213" y="402" text-anchor="middle" font-size="9" fill="#6b7280">Hz</text>
  <text x="12" y="298.5" text-anchor="middle" font-size="9" fill="#6b7280" transform="rotate(-90 12 298.5)">Group delay</text>
  <line x1="66.6" y1="221" x2="66.6" y2="376" stroke="#e5e7eb" stroke-width="0.5"/>
  <line x1="85.7" y1="221" x2="85.7" y2="376" stroke="#e5e7eb" stroke-width="0.5"/>
  <line x1="99.3" y1="221" x2="99.3" y2="376" stroke="#e5e7eb" stroke-width="0.5"/>
  <line x1="109.8" y1="221" x2="109.8" y2="376" stroke="#e5e7eb" stroke-width="0.5"/>
  <line x1="118.4" y1="221" x2="118.4" y2="376" stroke="#e5e7eb" stroke-width="0.5"/>
  <line x1="125.7" y1="221" x2="125.7" y2="376" stroke="#e5e7eb" stroke-width="0.5"/>
  <line x1="131.9" y1="221" x2="131.9" y2="376" stroke="#e5e7eb" stroke-width="0.5"/>
  <line x1="137.5" y1="221" x2="137.5" y2="376" stroke="#e5e7eb" stroke-width="0.5"/>
  <line x1="175.1" y1="221" x2="175.1" y2="376" stroke="#e5e7eb" stroke-width="0.5"/>
  <line x1="194.2" y1="221" x2="194.2" y2="376" stroke="#e5e7eb" stroke-width="0.5"/>
  <line x1="207.7" y1="221" x2="207.7" y2="376" stroke="#e5e7eb" stroke-width="0.5"/>
  <line x1="218.3" y1="221" x2="218.3" y2="376" stroke="#e5e7eb" stroke-width="0.5"/>
  <line x1="226.8" y1="221" x2="226.8" y2="376" stroke="#e5e7eb" stroke-width="0.5"/>
  <line x1="234.1" y1="221" x2="234.1" y2="376" stroke="#e5e7eb" stroke-width="0.5"/>
  <line x1="240.4" y1="221" x2="240.4" y2="376" stroke="#e5e7eb" stroke-width="0.5"/>
  <line x1="245.9" y1="221" x2="245.9" y2="376" stroke="#e5e7eb" stroke-width="0.5"/>
  <line x1="283.5" y1="221" x2="283.5" y2="376" stroke="#e5e7eb" stroke-width="0.5"/>
  <line x1="302.6" y1="221" x2="302.6" y2="376" stroke="#e5e7eb" stroke-width="0.5"/>
  <line x1="316.2" y1="221" x2="316.2" y2="376" stroke="#e5e7eb" stroke-width="0.5"/>
  <line x1="326.7" y1="221" x2="326.7" y2="376" stroke="#e5e7eb" stroke-width="0.5"/>
  <line x1="335.3" y1="221" x2="335.3" y2="376" stroke="#e5e7eb" stroke-width="0.5"/>
  <line x1="342.6" y1="221" x2="342.6" y2="376" stroke="#e5e7eb" stroke-width="0.5"/>
  <line x1="348.8" y1="221" x2="348.8" y2="376" stroke="#e5e7eb" stroke-width="0.5"/>
  <line x1="354.4" y1="221" x2="354.4" y2="376" stroke="#e5e7eb" stroke-width="0.5"/>
  <line x1="392.0" y1="221" x2="392.0" y2="376" stroke="#e5e7eb" stroke-width="0.5"/>
  <line x1="142.5" y1="221" x2="142.5" y2="376" stroke="#e5e7eb" stroke-width="0.5"/>
  <text x="142.5" y="388" text-anchor="middle" font-size="8" fill="#6b7280">100</text>
  <line x1="250.9" y1="221" x2="250.9" y2="376" stroke="#e5e7eb" stroke-width="0.5"/>
  <text x="250.9" y="388" text-anchor="middle" font-size="8" fill="#6b7280">1k</text>
  <line x1="359.4" y1="221" x2="359.4" y2="376" stroke="#e5e7eb" stroke-width="0.5"/>
  <text x="359.4" y="388" text-anchor="middle" font-size="8" fill="#6b7280">10k</text>
  <line x1="34" y1="344.2" x2="392" y2="344.2" stroke="#e5e7eb" stroke-width="0.5"/>
  <text x="30" y="347.2" text-anchor="end" font-size="8" fill="#6b7280">-6</text>
  <text x="30" y="301.5" text-anchor="end" font-size="8" fill="#6b7280">0</text>
  <line x1="34" y1="252.8" x2="392" y2="252.8" stroke="#e5e7eb" stroke-width="0.5"/>
  <text x="30" y="255.8" text-anchor="end" font-size="8" fill="#6b7280">6</text>
  <line x1="250.9" y1="221" x2="250.9" y2="376" stroke="#d1d5db" stroke-width="1" stroke-dasharray="4 3"/>
  <defs><linearGradient id="g274" x1="0" y1="221" x2="0" y2="298.5" gradientUnits="userSpaceOnUse">
    <stop offset="0%" stop-color="#2ecc71" stop-opacity="0.15"/>
    <stop offset="100%" stop-color="#2ecc71" stop-opacity="0.02"/>
  </linearGradient></defs>
  <defs><linearGradient id="g275" x1="0" y1="376" x2="0" y2="298.5" gradientUnits="userSpaceOnUse">
    <stop offset="0%" stop-color="#2ecc71" stop-opacity="0.15"/>
    <stop offset="100%" stop-color="#2ecc71" stop-opacity="0.02"/>
  </linearGradient></defs>
  <defs><clipPath id="c276"><rect x="34" y="221" width="358" height="77.5"/></clipPath></defs>
  <defs><clipPath id="c277"><rect x="34" y="298.5" width="358" height="77.5"/></clipPath></defs>
  <path d="M37.5,296.8 37.5,296.8 70.1,295.1 89.2,293.4 102.8,291.7 113.3,290.0 121.9,288.3 129.1,286.6 135.4,284.9 141.0,283.2 145.9,281.6 150.4,279.9 154.5,278.3 158.3,276.7 161.8,275.1 165.0,273.5 168.1,271.9 170.9,270.3 173.6,268.8 176.2,267.3 178.6,265.8 180.9,264.3 183.1,262.9 185.2,261.5 187.2,260.1 189.1,258.8 190.9,257.4 192.7,256.1 194.4,254.9 196.1,253.6 197.7,252.5 199.2,251.3 200.7,250.2 202.2,249.1 203.6,248.1 204.9,247.1 206.3,246.2 207.6,245.3 208.8,244.4 210.0,243.6 211.2,242.9 212.4,242.2 213.5,241.6 214.6,241.0 215.7,240.5 216.8,240.1 217.8,239.7 218.8,239.4 219.8,239.2 220.8,239.0 221.7,238.9 222.7,238.9 223.6,238.9 224.5,239.1 225.4,239.3 226.2,239.6 227.1,240.0 227.9,240.5 228.7,241.0 229.5,241.7 231.1,243.2 232.6,245.1 234.1,247.4 235.5,250.0 236.9,252.9 238.2,256.1 239.6,259.6 240.8,263.2 242.1,267.1 243.3,271.1 244.5,275.2 245.6,279.4 246.7,283.5 247.8,287.5 248.9,291.4 249.9,295.2 251.0,298.7 252.0,302.0 252.9,305.1 253.9,308.0 254.8,310.5 255.8,312.8 256.7,314.9 257.6,316.7 258.4,318.2 259.3,319.5 260.1,320.6 261.0,321.6 261.8,322.3 263.0,323.1 264.1,323.6 265.3,323.9 266.4,323.9 267.5,323.7 268.5,323.5 269.6,323.1 270.6,322.6 271.6,322.0 272.5,321.4 273.5,320.8 274.4,320.1 275.3,319.5 276.2,318.8 277.1,318.2 278.0,317.5 278.8,316.9 279.6,316.2 280.5,315.6 281.3,315.0 282.3,314.2 283.4,313.5 284.4,312.8 285.3,312.1 286.3,311.5 287.3,310.9 288.2,310.3 289.1,309.7 290.0,309.2 290.9,308.7 291.7,308.3 292.6,307.8 293.4,307.4 294.2,307.0 295.0,306.7 296.0,306.2 297.0,305.8 297.9,305.4 298.8,305.1 299.7,304.8 300.6,304.4 301.5,304.1 302.4,303.9 303.2,303.6 304.0,303.4 304.9,303.1 305.8,302.9 306.7,302.7 307.7,302.4 308.6,302.2 309.5,302.0 310.3,301.9 311.2,301.7 312.0,301.5 312.8,301.4 313.7,301.2 314.6,301.1 315.5,301.0 316.4,300.8 317.3,300.7 318.1,300.6 319.0,300.5 319.8,300.4 320.6,300.3 321.4,300.2 322.3,300.1 323.2,300.0 324.1,300.0 324.9,299.9 325.7,299.8 326.6,299.7 327.4,299.7 328.3,299.6 329.1,299.6 330.0,299.5 330.8,299.5 331.7,299.4 332.5,299.4 333.3,299.3 334.2,299.3 335.0,299.2 335.9,299.2 336.7,299.2 337.5,299.1 338.4,299.1 339.2,299.1 340.1,299.0 340.9,299.0 341.7,299.0 342.5,299.0 343.4,298.9 344.2,298.9 345.1,298.9 345.9,298.9 346.7,298.9 347.6,298.8 348.4,298.8 349.2,298.8 350.0,298.8 350.9,298.8 351.7,298.8 352.6,298.7 353.4,298.7 354.2,298.7 355.1,298.7 355.9,298.7 356.7,298.7 357.6,298.7 358.4,298.7 359.2,298.7 360.0,298.6 360.9,298.6 361.7,298.6 362.5,298.6 363.3,298.6 364.2,298.6 365.0,298.6 365.8,298.6 366.6,298.6 367.4,298.6 368.3,298.6 369.1,298.6 369.9,298.6 370.7,298.6 371.5,298.6 372.4,298.6 373.2,298.6 374.0,298.6 374.8,298.6 375.6,298.6 376.4,298.5 377.2,298.5 378.1,298.5 378.9,298.5 379.7,298.5 380.5,298.5 381.3,298.5 382.1,298.5 383.0,298.5 383.8,298.5 384.6,298.5 385.4,298.5 386.2,298.5 387.0,298.5 387.9,298.5 388.7,298.5 389.5,298.5 390.3,298.5 391.1,298.5 391.9,298.5 L391.9,298.5 L37.5,298.5 Z" fill="url(#g274)" clip-path="url(#c276)"/>
  <path d="M37.5,296.8 37.5,296.8 70.1,295.1 89.2,293.4 102.8,291.7 113.3,290.0 121.9,288.3 129.1,286.6 135.4,284.9 141.0,283.2 145.9,281.6 150.4,279.9 154.5,278.3 158.3,276.7 161.8,275.1 165.0,273.5 168.1,271.9 170.9,270.3 173.6,268.8 176.2,267.3 178.6,265.8 180.9,264.3 183.1,262.9 185.2,261.5 187.2,260.1 189.1,258.8 190.9,257.4 192.7,256.1 194.4,254.9 196.1,253.6 197.7,252.5 199.2,251.3 200.7,250.2 202.2,249.1 203.6,248.1 204.9,247.1 206.3,246.2 207.6,245.3 208.8,244.4 210.0,243.6 211.2,242.9 212.4,242.2 213.5,241.6 214.6,241.0 215.7,240.5 216.8,240.1 217.8,239.7 218.8,239.4 219.8,239.2 220.8,239.0 221.7,238.9 222.7,238.9 223.6,238.9 224.5,239.1 225.4,239.3 226.2,239.6 227.1,240.0 227.9,240.5 228.7,241.0 229.5,241.7 231.1,243.2 232.6,245.1 234.1,247.4 235.5,250.0 236.9,252.9 238.2,256.1 239.6,259.6 240.8,263.2 242.1,267.1 243.3,271.1 244.5,275.2 245.6,279.4 246.7,283.5 247.8,287.5 248.9,291.4 249.9,295.2 251.0,298.7 252.0,302.0 252.9,305.1 253.9,308.0 254.8,310.5 255.8,312.8 256.7,314.9 257.6,316.7 258.4,318.2 259.3,319.5 260.1,320.6 261.0,321.6 261.8,322.3 263.0,323.1 264.1,323.6 265.3,323.9 266.4,323.9 267.5,323.7 268.5,323.5 269.6,323.1 270.6,322.6 271.6,322.0 272.5,321.4 273.5,320.8 274.4,320.1 275.3,319.5 276.2,318.8 277.1,318.2 278.0,317.5 278.8,316.9 279.6,316.2 280.5,315.6 281.3,315.0 282.3,314.2 283.4,313.5 284.4,312.8 285.3,312.1 286.3,311.5 287.3,310.9 288.2,310.3 289.1,309.7 290.0,309.2 290.9,308.7 291.7,308.3 292.6,307.8 293.4,307.4 294.2,307.0 295.0,306.7 296.0,306.2 297.0,305.8 297.9,305.4 298.8,305.1 299.7,304.8 300.6,304.4 301.5,304.1 302.4,303.9 303.2,303.6 304.0,303.4 304.9,303.1 305.8,302.9 306.7,302.7 307.7,302.4 308.6,302.2 309.5,302.0 310.3,301.9 311.2,301.7 312.0,301.5 312.8,301.4 313.7,301.2 314.6,301.1 315.5,301.0 316.4,300.8 317.3,300.7 318.1,300.6 319.0,300.5 319.8,300.4 320.6,300.3 321.4,300.2 322.3,300.1 323.2,300.0 324.1,300.0 324.9,299.9 325.7,299.8 326.6,299.7 327.4,299.7 328.3,299.6 329.1,299.6 330.0,299.5 330.8,299.5 331.7,299.4 332.5,299.4 333.3,299.3 334.2,299.3 335.0,299.2 335.9,299.2 336.7,299.2 337.5,299.1 338.4,299.1 339.2,299.1 340.1,299.0 340.9,299.0 341.7,299.0 342.5,299.0 343.4,298.9 344.2,298.9 345.1,298.9 345.9,298.9 346.7,298.9 347.6,298.8 348.4,298.8 349.2,298.8 350.0,298.8 350.9,298.8 351.7,298.8 352.6,298.7 353.4,298.7 354.2,298.7 355.1,298.7 355.9,298.7 356.7,298.7 357.6,298.7 358.4,298.7 359.2,298.7 360.0,298.6 360.9,298.6 361.7,298.6 362.5,298.6 363.3,298.6 364.2,298.6 365.0,298.6 365.8,298.6 366.6,298.6 367.4,298.6 368.3,298.6 369.1,298.6 369.9,298.6 370.7,298.6 371.5,298.6 372.4,298.6 373.2,298.6 374.0,298.6 374.8,298.6 375.6,298.6 376.4,298.5 377.2,298.5 378.1,298.5 378.9,298.5 379.7,298.5 380.5,298.5 381.3,298.5 382.1,298.5 383.0,298.5 383.8,298.5 384.6,298.5 385.4,298.5 386.2,298.5 387.0,298.5 387.9,298.5 388.7,298.5 389.5,298.5 390.3,298.5 391.1,298.5 391.9,298.5 L391.9,298.5 L37.5,298.5 Z" fill="url(#g275)" clip-path="url(#c277)"/>
  <defs><clipPath id="pc278"><rect x="34" y="221" width="358" height="155"/></clipPath></defs>
  <polyline points="37.5,296.8 70.1,295.1 89.2,293.4 102.8,291.7 113.3,290.0 121.9,288.3 129.1,286.6 135.4,284.9 141.0,283.2 145.9,281.6 150.4,279.9 154.5,278.3 158.3,276.7 161.8,275.1 165.0,273.5 168.1,271.9 170.9,270.3 173.6,268.8 176.2,267.3 178.6,265.8 180.9,264.3 183.1,262.9 185.2,261.5 187.2,260.1 189.1,258.8 190.9,257.4 192.7,256.1 194.4,254.9 196.1,253.6 197.7,252.5 199.2,251.3 200.7,250.2 202.2,249.1 203.6,248.1 204.9,247.1 206.3,246.2 207.6,245.3 208.8,244.4 210.0,243.6 211.2,242.9 212.4,242.2 213.5,241.6 214.6,241.0 215.7,240.5 216.8,240.1 217.8,239.7 218.8,239.4 219.8,239.2 220.8,239.0 221.7,238.9 222.7,238.9 223.6,238.9 224.5,239.1 225.4,239.3 226.2,239.6 227.1,240.0 227.9,240.5 228.7,241.0 229.5,241.7 231.1,243.2 232.6,245.1 234.1,247.4 235.5,250.0 236.9,252.9 238.2,256.1 239.6,259.6 240.8,263.2 242.1,267.1 243.3,271.1 244.5,275.2 245.6,279.4 246.7,283.5 247.8,287.5 248.9,291.4 249.9,295.2 251.0,298.7 252.0,302.0 252.9,305.1 253.9,308.0 254.8,310.5 255.8,312.8 256.7,314.9 257.6,316.7 258.4,318.2 259.3,319.5 260.1,320.6 261.0,321.6 261.8,322.3 263.0,323.1 264.1,323.6 265.3,323.9 266.4,323.9 267.5,323.7 268.5,323.5 269.6,323.1 270.6,322.6 271.6,322.0 272.5,321.4 273.5,320.8 274.4,320.1 275.3,319.5 276.2,318.8 277.1,318.2 278.0,317.5 278.8,316.9 279.6,316.2 280.5,315.6 281.3,315.0 282.3,314.2 283.4,313.5 284.4,312.8 285.3,312.1 286.3,311.5 287.3,310.9 288.2,310.3 289.1,309.7 290.0,309.2 290.9,308.7 291.7,308.3 292.6,307.8 293.4,307.4 294.2,307.0 295.0,306.7 296.0,306.2 297.0,305.8 297.9,305.4 298.8,305.1 299.7,304.8 300.6,304.4 301.5,304.1 302.4,303.9 303.2,303.6 304.0,303.4 304.9,303.1 305.8,302.9 306.7,302.7 307.7,302.4 308.6,302.2 309.5,302.0 310.3,301.9 311.2,301.7 312.0,301.5 312.8,301.4 313.7,301.2 314.6,301.1 315.5,301.0 316.4,300.8 317.3,300.7 318.1,300.6 319.0,300.5 319.8,300.4 320.6,300.3 321.4,300.2 322.3,300.1 323.2,300.0 324.1,300.0 324.9,299.9 325.7,299.8 326.6,299.7 327.4,299.7 328.3,299.6 329.1,299.6 330.0,299.5 330.8,299.5 331.7,299.4 332.5,299.4 333.3,299.3 334.2,299.3 335.0,299.2 335.9,299.2 336.7,299.2 337.5,299.1 338.4,299.1 339.2,299.1 340.1,299.0 340.9,299.0 341.7,299.0 342.5,299.0 343.4,298.9 344.2,298.9 345.1,298.9 345.9,298.9 346.7,298.9 347.6,298.8 348.4,298.8 349.2,298.8 350.0,298.8 350.9,298.8 351.7,298.8 352.6,298.7 353.4,298.7 354.2,298.7 355.1,298.7 355.9,298.7 356.7,298.7 357.6,298.7 358.4,298.7 359.2,298.7 360.0,298.6 360.9,298.6 361.7,298.6 362.5,298.6 363.3,298.6 364.2,298.6 365.0,298.6 365.8,298.6 366.6,298.6 367.4,298.6 368.3,298.6 369.1,298.6 369.9,298.6 370.7,298.6 371.5,298.6 372.4,298.6 373.2,298.6 374.0,298.6 374.8,298.6 375.6,298.6 376.4,298.5 377.2,298.5 378.1,298.5 378.9,298.5 379.7,298.5 380.5,298.5 381.3,298.5 382.1,298.5 383.0,298.5 383.8,298.5 384.6,298.5 385.4,298.5 386.2,298.5 387.0,298.5 387.9,298.5 388.7,298.5 389.5,298.5 390.3,298.5 391.1,298.5 391.9,298.5" fill="none" stroke="#2ecc71" stroke-width="1.5" stroke-linejoin="round" clip-path="url(#pc278)"/>
  <line x1="442" y1="221" x2="442" y2="376" stroke="#d1d5db"/>
  <line x1="442" y1="298.5" x2="800" y2="298.5" stroke="#d1d5db"/>
  <text x="621" y="402" text-anchor="middle" font-size="9" fill="#6b7280">Samples</text>
  <text x="420" y="298.5" text-anchor="middle" font-size="9" fill="#6b7280" transform="rotate(-90 420 298.5)">Impulse response</text>
  <line x1="442.0" y1="221" x2="442.0" y2="376" stroke="#e5e7eb" stroke-width="0.5"/>
  <text x="442.0" y="388" text-anchor="middle" font-size="8" fill="#6b7280">0</text>
  <line x1="531.5" y1="221" x2="531.5" y2="376" stroke="#e5e7eb" stroke-width="0.5"/>
  <text x="531.5" y="388" text-anchor="middle" font-size="8" fill="#6b7280">32</text>
  <line x1="621.0" y1="221" x2="621.0" y2="376" stroke="#e5e7eb" stroke-width="0.5"/>
  <text x="621.0" y="388" text-anchor="middle" font-size="8" fill="#6b7280">64</text>
  <line x1="710.5" y1="221" x2="710.5" y2="376" stroke="#e5e7eb" stroke-width="0.5"/>
  <text x="710.5" y="388" text-anchor="middle" font-size="8" fill="#6b7280">96</text>
  <line x1="800.0" y1="221" x2="800.0" y2="376" stroke="#e5e7eb" stroke-width="0.5"/>
  <text x="800.0" y="388" text-anchor="middle" font-size="8" fill="#6b7280">128</text>
  <line x1="442" y1="356.7" x2="800" y2="356.7" stroke="#e5e7eb" stroke-width="0.5"/>
  <text x="438" y="359.7" text-anchor="end" font-size="8" fill="#6b7280">-0.8</text>
  <text x="438" y="301.5" text-anchor="end" font-size="8" fill="#6b7280">0</text>
  <line x1="442" y1="240.3" x2="800" y2="240.3" stroke="#e5e7eb" stroke-width="0.5"/>
  <text x="438" y="243.3" text-anchor="end" font-size="8" fill="#6b7280">0.8</text>
  <defs><linearGradient id="g279" x1="0" y1="221" x2="0" y2="298.5" gradientUnits="userSpaceOnUse">
    <stop offset="0%" stop-color="#f39c12" stop-opacity="0.15"/>
    <stop offset="100%" stop-color="#f39c12" stop-opacity="0.02"/>
  </linearGradient></defs>
  <defs><linearGradient id="g280" x1="0" y1="376" x2="0" y2="298.5" gradientUnits="userSpaceOnUse">
    <stop offset="0%" stop-color="#f39c12" stop-opacity="0.15"/>
    <stop offset="100%" stop-color="#f39c12" stop-opacity="0.02"/>
  </linearGradient></defs>
  <defs><clipPath id="c281"><rect x="442" y="221" width="358" height="77.5"/></clipPath></defs>
  <defs><clipPath id="c282"><rect x="442" y="298.5" width="358" height="77.5"/></clipPath></defs>
  <path d="M442.0,221.0 442.0,221.0 444.8,289.6 447.6,291.1 450.4,292.4 453.2,293.8 456.0,295.0 458.8,296.1 461.6,297.2 464.4,298.1 467.2,298.9 470.0,299.6 472.8,300.2 475.6,300.6 478.4,301.0 481.2,301.3 484.0,301.4 486.8,301.5 489.5,301.6 492.3,301.5 495.1,301.5 497.9,301.3 500.7,301.2 503.5,301.0 506.3,300.8 509.1,300.5 511.9,300.3 514.7,300.1 517.5,299.8 520.3,299.6 523.1,299.4 525.9,299.2 528.7,299.0 531.5,298.8 534.3,298.6 537.1,298.5 539.9,298.4 542.7,298.3 545.5,298.2 548.3,298.1 551.1,298.1 553.9,298.0 556.7,298.0 559.5,298.0 562.3,298.0 565.1,298.0 567.9,298.0 570.7,298.1 573.5,298.1 576.3,298.1 579.0,298.2 581.8,298.2 584.6,298.2 587.4,298.3 590.2,298.3 593.0,298.3 595.8,298.4 598.6,298.4 601.4,298.4 604.2,298.5 607.0,298.5 609.8,298.5 612.6,298.5 615.4,298.5 618.2,298.6 621.0,298.6 623.8,298.6 626.6,298.6 629.4,298.6 632.2,298.6 635.0,298.6 637.8,298.6 640.6,298.6 643.4,298.6 646.2,298.6 649.0,298.6 651.8,298.6 654.6,298.5 657.4,298.5 660.2,298.5 663.0,298.5 665.8,298.5 668.5,298.5 671.3,298.5 674.1,298.5 676.9,298.5 679.7,298.5 682.5,298.5 685.3,298.5 688.1,298.5 690.9,298.5 693.7,298.5 696.5,298.5 699.3,298.5 702.1,298.5 704.9,298.5 707.7,298.5 710.5,298.5 713.3,298.5 716.1,298.5 718.9,298.5 721.7,298.5 724.5,298.5 727.3,298.5 730.1,298.5 732.9,298.5 735.7,298.5 738.5,298.5 741.3,298.5 744.1,298.5 746.9,298.5 749.7,298.5 752.5,298.5 755.3,298.5 758.0,298.5 760.8,298.5 763.6,298.5 766.4,298.5 769.2,298.5 772.0,298.5 774.8,298.5 777.6,298.5 780.4,298.5 783.2,298.5 786.0,298.5 788.8,298.5 791.6,298.5 794.4,298.5 797.2,298.5 L797.2,298.5 L442.0,298.5 Z" fill="url(#g279)" clip-path="url(#c281)"/>
  <path d="M442.0,221.0 442.0,221.0 444.8,289.6 447.6,291.1 450.4,292.4 453.2,293.8 456.0,295.0 458.8,296.1 461.6,297.2 464.4,298.1 467.2,298.9 470.0,299.6 472.8,300.2 475.6,300.6 478.4,301.0 481.2,301.3 484.0,301.4 486.8,301.5 489.5,301.6 492.3,301.5 495.1,301.5 497.9,301.3 500.7,301.2 503.5,301.0 506.3,300.8 509.1,300.5 511.9,300.3 514.7,300.1 517.5,299.8 520.3,299.6 523.1,299.4 525.9,299.2 528.7,299.0 531.5,298.8 534.3,298.6 537.1,298.5 539.9,298.4 542.7,298.3 545.5,298.2 548.3,298.1 551.1,298.1 553.9,298.0 556.7,298.0 559.5,298.0 562.3,298.0 565.1,298.0 567.9,298.0 570.7,298.1 573.5,298.1 576.3,298.1 579.0,298.2 581.8,298.2 584.6,298.2 587.4,298.3 590.2,298.3 593.0,298.3 595.8,298.4 598.6,298.4 601.4,298.4 604.2,298.5 607.0,298.5 609.8,298.5 612.6,298.5 615.4,298.5 618.2,298.6 621.0,298.6 623.8,298.6 626.6,298.6 629.4,298.6 632.2,298.6 635.0,298.6 637.8,298.6 640.6,298.6 643.4,298.6 646.2,298.6 649.0,298.6 651.8,298.6 654.6,298.5 657.4,298.5 660.2,298.5 663.0,298.5 665.8,298.5 668.5,298.5 671.3,298.5 674.1,298.5 676.9,298.5 679.7,298.5 682.5,298.5 685.3,298.5 688.1,298.5 690.9,298.5 693.7,298.5 696.5,298.5 699.3,298.5 702.1,298.5 704.9,298.5 707.7,298.5 710.5,298.5 713.3,298.5 716.1,298.5 718.9,298.5 721.7,298.5 724.5,298.5 727.3,298.5 730.1,298.5 732.9,298.5 735.7,298.5 738.5,298.5 741.3,298.5 744.1,298.5 746.9,298.5 749.7,298.5 752.5,298.5 755.3,298.5 758.0,298.5 760.8,298.5 763.6,298.5 766.4,298.5 769.2,298.5 772.0,298.5 774.8,298.5 777.6,298.5 780.4,298.5 783.2,298.5 786.0,298.5 788.8,298.5 791.6,298.5 794.4,298.5 797.2,298.5 L797.2,298.5 L442.0,298.5 Z" fill="url(#g280)" clip-path="url(#c282)"/>
  <defs><clipPath id="pc283"><rect x="442" y="221" width="358" height="155"/></clipPath></defs>
  <polyline points="442.0,221.0 444.8,289.6 447.6,291.1 450.4,292.4 453.2,293.8 456.0,295.0 458.8,296.1 461.6,297.2 464.4,298.1 467.2,298.9 470.0,299.6 472.8,300.2 475.6,300.6 478.4,301.0 481.2,301.3 484.0,301.4 486.8,301.5 489.5,301.6 492.3,301.5 495.1,301.5 497.9,301.3 500.7,301.2 503.5,301.0 506.3,300.8 509.1,300.5 511.9,300.3 514.7,300.1 517.5,299.8 520.3,299.6 523.1,299.4 525.9,299.2 528.7,299.0 531.5,298.8 534.3,298.6 537.1,298.5 539.9,298.4 542.7,298.3 545.5,298.2 548.3,298.1 551.1,298.1 553.9,298.0 556.7,298.0 559.5,298.0 562.3,298.0 565.1,298.0 567.9,298.0 570.7,298.1 573.5,298.1 576.3,298.1 579.0,298.2 581.8,298.2 584.6,298.2 587.4,298.3 590.2,298.3 593.0,298.3 595.8,298.4 598.6,298.4 601.4,298.4 604.2,298.5 607.0,298.5 609.8,298.5 612.6,298.5 615.4,298.5 618.2,298.6 621.0,298.6 623.8,298.6 626.6,298.6 629.4,298.6 632.2,298.6 635.0,298.6 637.8,298.6 640.6,298.6 643.4,298.6 646.2,298.6 649.0,298.6 651.8,298.6 654.6,298.5 657.4,298.5 660.2,298.5 663.0,298.5 665.8,298.5 668.5,298.5 671.3,298.5 674.1,298.5 676.9,298.5 679.7,298.5 682.5,298.5 685.3,298.5 688.1,298.5 690.9,298.5 693.7,298.5 696.5,298.5 699.3,298.5 702.1,298.5 704.9,298.5 707.7,298.5 710.5,298.5 713.3,298.5 716.1,298.5 718.9,298.5 721.7,298.5 724.5,298.5 727.3,298.5 730.1,298.5 732.9,298.5 735.7,298.5 738.5,298.5 741.3,298.5 744.1,298.5 746.9,298.5 749.7,298.5 752.5,298.5 755.3,298.5 758.0,298.5 760.8,298.5 763.6,298.5 766.4,298.5 769.2,298.5 772.0,298.5 774.8,298.5 777.6,298.5 780.4,298.5 783.2,298.5 786.0,298.5 788.8,298.5 791.6,298.5 794.4,298.5 797.2,298.5" fill="none" stroke="#f39c12" stroke-width="1.3" stroke-linejoin="round" clip-path="url(#pc283)"/>
</svg>
