<svg xmlns="http://www.w3.org/2000/svg" viewBox="0 0 820 240" style="font-family:system-ui,-apple-system,sans-serif">
  <line x1="34" y1="16" x2="34" y2="196" stroke="#d1d5db"/>
  <line x1="34" y1="52.0" x2="392" y2="52.0" stroke="#d1d5db"/>
  <text x="213" y="222" text-anchor="middle" font-size="9" fill="#6b7280">Hz</text>
  <text x="12" y="106" text-anchor="middle" font-size="9" fill="#6b7280" transform="rotate(-90 12 106)">dB</text>
  <line x1="66.6" y1="16" x2="66.6" y2="196" stroke="#e5e7eb" stroke-width="0.5"/>
  <line x1="85.7" y1="16" x2="85.7" y2="196" stroke="#e5e7eb" stroke-width="0.5"/>
  <line x1="99.3" y1="16" x2="99.3" y2="196" stroke="#e5e7eb" stroke-width="0.5"/>
  <line x1="109.8" y1="16" x2="109.8" y2="196" stroke="#e5e7eb" stroke-width="0.5"/>
  <line x1="118.4" y1="16" x2="118.4" y2="196" stroke="#e5e7eb" stroke-width="0.5"/>
  <line x1="125.7" y1="16" x2="125.7" y2="196" stroke="#e5e7eb" stroke-width="0.5"/>
  <line x1="131.9" y1="16" x2="131.9" y2="196" stroke="#e5e7eb" stroke-width="0.5"/>
  <line x1="137.5" y1="16" x2="137.5" y2="196" stroke="#e5e7eb" stroke-width="0.5"/>
  <line x1="175.1" y1="16" x2="175.1" y2="196" stroke="#e5e7eb" stroke-width="0.5"/>
  <line x1="194.2" y1="16" x2="194.2" y2="196" stroke="#e5e7eb" stroke-width="0.5"/>
  <line x1="207.7" y1="16" x2="207.7" y2="196" stroke="#e5e7eb" stroke-width="0.5"/>
  <line x1="218.3" y1="16" x2="218.3" y2="196" stroke="#e5e7eb" stroke-width="0.5"/>
  <line x1="226.8" y1="16" x2="226.8" y2="196" stroke="#e5e7eb" stroke-width="0.5"/>
  <line x1="234.1" y1="16" x2="234.1" y2="196" stroke="#e5e7eb" stroke-width="0.5"/>
  <line x1="240.4" y1="16" x2="240.4" y2="196" stroke="#e5e7eb" stroke-width="0.5"/>
  <line x1="245.9" y1="16" x2="245.9" y2="196" stroke="#e5e7eb" stroke-width="0.5"/>
  <line x1="283.5" y1="16" x2="283.5" y2="196" stroke="#e5e7eb" stroke-width="0.5"/>
  <line x1="302.6" y1="16" x2="302.6" y2="196" stroke="#e5e7eb" stroke-width="0.5"/>
  <line x1="316.2" y1="16" x2="316.2" y2="196" stroke="#e5e7eb" stroke-width="0.5"/>
  <line x1="326.7" y1="16" x2="326.7" y2="196" stroke="#e5e7eb" stroke-width="0.5"/>
  <line x1="335.3" y1="16" x2="335.3" y2="196" stroke="#e5e7eb" stroke-width="0.5"/>
  <line x1="342.6" y1="16" x2="342.6" y2="196" stroke="#e5e7eb" stroke-width="0.5"/>
  <line x1="348.8" y1="16" x2="348.8" y2="196" stroke="#e5e7eb" stroke-width="0.5"/>
  <line x1="354.4" y1="16" x2="354.4" y2="196" stroke="#e5e7eb" stroke-width="0.5"/>
  <line x1="392.0" y1="16" x2="392.0" y2="196" stroke="#e5e7eb" stroke-width="0.5"/>
  <line x1="142.5" y1="16" x2="142.5" y2="196" stroke="#e5e7eb" stroke-width="0.5"/>
  <text x="142.5" y="208" text-anchor="middle" font-size="8" fill="#6b7280">100</text>
  <line x1="250.9" y1="16" x2="250.9" y2="196" stroke="#e5e7eb" stroke-width="0.5"/>
  <text x="250.9" y="208" text-anchor="middle" font-size="8" fill="#6b7280">1k</text>
  <line x1="359.4" y1="16" x2="359.4" y2="196" stroke="#e5e7eb" stroke-width="0.5"/>
  <text x="359.4" y="208" text-anchor="middle" font-size="8" fill="#6b7280">10k</text>
  <line x1="34" y1="34.0" x2="392" y2="34.0" stroke="#e5e7eb" stroke-width="0.5"/>
  <line x1="34" y1="70.0" x2="392" y2="70.0" stroke="#e5e7eb" stroke-width="0.5"/>
  <line x1="34" y1="16.0" x2="392" y2="16.0" stroke="#e5e7eb" stroke-width="0.5"/>
  <text x="30" y="19.0" text-anchor="end" font-size="8" fill="#6b7280">+20</text>
  <text x="30" y="55.0" text-anchor="end" font-size="8" fill="#6b7280">0</text>
  <line x1="34" y1="88.0" x2="392" y2="88.0" stroke="#e5e7eb" stroke-width="0.5"/>
  <text x="30" y="91.0" text-anchor="end" font-size="8" fill="#6b7280">-20</text>
  <line x1="34" y1="124.0" x2="392" y2="124.0" stroke="#e5e7eb" stroke-width="0.5"/>
  <text x="30" y="127.0" text-anchor="end" font-size="8" fill="#6b7280">-40</text>
  <line x1="34" y1="160.0" x2="392" y2="160.0" stroke="#e5e7eb" stroke-width="0.5"/>
  <text x="30" y="163.0" text-anchor="end" font-size="8" fill="#6b7280">-60</text>
  <line x1="34" y1="196.0" x2="392" y2="196.0" stroke="#e5e7eb" stroke-width="0.5"/>
  <text x="30" y="199.0" text-anchor="end" font-size="8" fill="#6b7280">-80</text>
  <line x1="442" y1="16" x2="442" y2="196" stroke="#d1d5db"/>
  <line x1="442" y1="106.0" x2="800" y2="106.0" stroke="#d1d5db"/>
  <text x="621" y="222" text-anchor="middle" font-size="9" fill="#6b7280">Hz</text>
  <text x="420" y="106" text-anchor="middle" font-size="9" fill="#6b7280" transform="rotate(-90 420 106)">Phase (deg)</text>
  <line x1="474.6" y1="16" x2="474.6" y2="196" stroke="#e5e7eb" stroke-width="0.5"/>
  <line x1="493.7" y1="16" x2="493.7" y2="196" stroke="#e5e7eb" stroke-width="0.5"/>
  <line x1="507.3" y1="16" x2="507.3" y2="196" stroke="#e5e7eb" stroke-width="0.5"/>
  <line x1="517.8" y1="16" x2="517.8" y2="196" stroke="#e5e7eb" stroke-width="0.5"/>
  <line x1="526.4" y1="16" x2="526.4" y2="196" stroke="#e5e7eb" stroke-width="0.5"/>
  <line x1="533.7" y1="16" x2="533.7" y2="196" stroke="#e5e7eb" stroke-width="0.5"/>
  <line x1="539.9" y1="16" x2="539.9" y2="196" stroke="#e5e7eb" stroke-width="0.5"/>
  <line x1="545.5" y1="16" x2="545.5" y2="196" stroke="#e5e7eb" stroke-width="0.5"/>
  <line x1="583.1" y1="16" x2="583.1" y2="196" stroke="#e5e7eb" stroke-width="0.5"/>
  <line x1="602.2" y1="16" x2="602.2" y2="196" stroke="#e5e7eb" stroke-width="0.5"/>
  <line x1="615.7" y1="16" x2="615.7" y2="196" stroke="#e5e7eb" stroke-width="0.5"/>
  <line x1="626.3" y1="16" x2="626.3" y2="196" stroke="#e5e7eb" stroke-width="0.5"/>
  <line x1="634.8" y1="16" x2="634.8" y2="196" stroke="#e5e7eb" stroke-width="0.5"/>
  <line x1="642.1" y1="16" x2="642.1" y2="196" stroke="#e5e7eb" stroke-width="0.5"/>
  <line x1="648.4" y1="16" x2="648.4" y2="196" stroke="#e5e7eb" stroke-width="0.5"/>
  <line x1="653.9" y1="16" x2="653.9" y2="196" stroke="#e5e7eb" stroke-width="0.5"/>
  <line x1="691.5" y1="16" x2="691.5" y2="196" stroke="#e5e7eb" stroke-width="0.5"/>
  <line x1="710.6" y1="16" x2="710.6" y2="196" stroke="#e5e7eb" stroke-width="0.5"/>
  <line x1="724.2" y1="16" x2="724.2" y2="196" stroke="#e5e7eb" stroke-width="0.5"/>
  <line x1="734.7" y1="16" x2="734.7" y2="196" stroke="#e5e7eb" stroke-width="0.5"/>
  <line x1="743.3" y1="16" x2="743.3" y2="196" stroke="#e5e7eb" stroke-width="0.5"/>
  <line x1="750.6" y1="16" x2="750.6" y2="196" stroke="#e5e7eb" stroke-width="0.5"/>
  <line x1="756.8" y1="16" x2="756.8" y2="196" stroke="#e5e7eb" stroke-width="0.5"/>
  <line x1="762.4" y1="16" x2="762.4" y2="196" stroke="#e5e7eb" stroke-width="0.5"/>
  <line x1="800.0" y1="16" x2="800.0" y2="196" stroke="#e5e7eb" stroke-width="0.5"/>
  <line x1="550.5" y1="16" x2="550.5" y2="196" stroke="#e5e7eb" stroke-width="0.5"/>
  <text x="550.5" y="208" text-anchor="middle" font-size="8" fill="#6b7280">100</text>
  <line x1="658.9" y1="16" x2="658.9" y2="196" stroke="#e5e7eb" stroke-width="0.5"/>
  <text x="658.9" y="208" text-anchor="middle" font-size="8" fill="#6b7280">1k</text>
  <line x1="767.4" y1="16" x2="767.4" y2="196" stroke="#e5e7eb" stroke-width="0.5"/>
  <text x="767.4" y="208" text-anchor="middle" font-size="8" fill="#6b7280">10k</text>
  <line x1="442" y1="61.0" x2="800" y2="61.0" stroke="#e5e7eb" stroke-width="0.5"/>
  <line x1="442" y1="151.0" x2="800" y2="151.0" stroke="#e5e7eb" stroke-width="0.5"/>
  <line x1="442" y1="16.0" x2="800" y2="16.0" stroke="#e5e7eb" stroke-width="0.5"/>
  <text x="438" y="19.0" text-anchor="end" font-size="8" fill="#6b7280">180</text>
  <text x="438" y="109.0" text-anchor="end" font-size="8" fill="#6b7280">0</text>
  <line x1="442" y1="196.0" x2="800" y2="196.0" stroke="#e5e7eb" stroke-width="0.5"/>
  <text x="438" y="199.0" text-anchor="end" font-size="8" fill="#6b7280">-180</text>
  <defs><clipPath id="pc22"><rect x="34" y="16" width="358" height="180"/></clipPath></defs>
  <polyline points="37.5,52.0 70.1,52.0 89.2,52.0 102.8,52.0 113.3,52.0 121.9,52.0 129.1,52.0 135.4,52.0 141.0,52.0 145.9,52.0 150.4,52.0 154.5,52.0 158.3,52.0 161.8,52.0 165.0,52.0 168.1,52.0 170.9,52.0 173.6,52.0 176.2,52.0 178.6,52.0 180.9,52.0 183.1,52.0 185.2,52.0 187.2,52.0 189.1,52.0 190.9,52.0 192.7,52.1 194.4,52.1 196.1,52.1 197.7,52.1 199.2,52.1 200.7,52.1 202.2,52.1 203.6,52.1 204.9,52.2 206.3,52.2 207.6,52.2 208.8,52.2 210.0,52.2 211.2,52.3 212.4,52.3 213.5,52.3 214.6,52.4 215.7,52.4 216.8,52.4 217.8,52.5 218.8,52.5 219.8,52.5 220.8,52.6 221.7,52.6 222.7,52.7 223.6,52.7 224.5,52.8 225.4,52.8 226.2,52.9 227.1,53.0 227.9,53.0 228.7,53.1 229.5,53.2 231.1,53.3 232.6,53.5 234.1,53.7 235.5,53.9 236.9,54.1 238.2,54.3 239.6,54.5 240.8,54.8 242.1,55.0 243.3,55.3 244.5,55.6 245.6,55.9 246.7,56.2 247.8,56.5 248.9,56.8 249.9,57.1 251.0,57.4 252.0,57.8 252.9,58.1 253.9,58.5 254.8,58.8 255.8,59.2 256.7,59.6 257.6,60.0 258.4,60.3 259.3,60.7 260.1,61.1 261.0,61.5 261.8,61.9 263.0,62.4 264.1,63.0 265.3,63.6 266.4,64.2 267.5,64.8 268.5,65.3 269.6,65.9 270.6,66.5 271.6,67.0 272.5,67.6 273.5,68.1 274.4,68.7 275.3,69.2 276.2,69.8 277.1,70.3 278.0,70.8 278.8,71.3 279.6,71.9 280.5,72.4 281.3,72.9 282.3,73.5 283.4,74.2 284.4,74.8 285.3,75.4 286.3,76.1 287.3,76.7 288.2,77.3 289.1,77.9 290.0,78.5 290.9,79.0 291.7,79.6 292.6,80.1 293.4,80.7 294.2,81.2 295.0,81.8 296.0,82.4 297.0,83.1 297.9,83.7 298.8,84.3 299.7,84.9 300.6,85.5 301.5,86.1 302.4,86.7 303.2,87.3 304.0,87.8 304.9,88.4 305.8,89.0 306.7,89.7 307.7,90.3 308.6,90.9 309.5,91.5 310.3,92.1 311.2,92.7 312.0,93.3 312.8,93.9 313.7,94.4 314.6,95.1 315.5,95.7 316.4,96.3 317.3,96.9 318.1,97.5 319.0,98.1 319.8,98.7 320.6,99.3 321.4,99.9 322.3,100.5 323.2,101.1 324.1,101.7 324.9,102.4 325.7,103.0 326.6,103.5 327.4,104.1 328.3,104.8 329.1,105.4 330.0,106.0 330.8,106.7 331.7,107.3 332.5,107.9 333.3,108.5 334.2,109.1 335.0,109.8 335.9,110.4 336.7,111.0 337.5,111.6 338.4,112.3 339.2,113.0 340.1,113.6 340.9,114.3 341.7,114.9 342.5,115.5 343.4,116.2 344.2,116.9 345.1,117.6 345.9,118.2 346.7,118.9 347.6,119.6 348.4,120.3 349.2,121.0 350.0,121.6 350.9,122.4 351.7,123.1 352.6,123.8 353.4,124.5 354.2,125.3 355.1,126.0 355.9,126.8 356.7,127.5 357.6,128.3 358.4,129.1 359.2,129.8 360.0,130.6 360.9,131.4 361.7,132.2 362.5,133.1 363.3,133.9 364.2,134.8 365.0,135.7 365.8,136.5 366.6,137.4 367.4,138.4 368.3,139.3 369.1,140.2 369.9,141.2 370.7,142.2 371.5,143.2 372.4,144.3 373.2,145.4 374.0,146.5 374.8,147.6 375.6,148.8 376.4,150.1 377.2,151.3 378.1,152.7 378.9,154.0 379.7,155.5 380.5,157.0 381.3,158.5 382.1,160.2 383.0,161.9 383.8,163.8 384.6,165.7 385.4,167.8 386.2,170.1 387.0,172.5 387.9,175.2 388.7,178.1 389.5,181.4 390.3,185.0 391.1,189.2 391.9,194.1" fill="none" stroke="#4a90d9" stroke-width="1.3" stroke-linejoin="round" clip-path="url(#pc22)"/>
  <defs><clipPath id="pc23"><rect x="442" y="16" width="358" height="180"/></clipPath></defs>
  <polyline points="445.5,106.4 478.1,106.9 497.2,107.3 510.8,107.7 521.3,108.2 529.9,108.6 537.1,109.1 543.4,109.5 549.0,109.9 553.9,110.4 558.4,110.8 562.5,111.3 566.3,111.7 569.8,112.1 573.0,112.6 576.1,113.0 578.9,113.5 581.6,113.9 584.2,114.4 586.6,114.8 588.9,115.3 591.1,115.8 593.2,116.2 595.2,116.7 597.1,117.1 598.9,117.6 600.7,118.1 602.4,118.5 604.1,119.0 605.7,119.5 607.2,120.0 608.7,120.4 610.2,120.9 611.6,121.4 612.9,121.9 614.3,122.4 615.6,122.9 616.8,123.4 618.0,123.9 619.2,124.4 620.4,124.9 621.5,125.4 622.6,125.9 623.7,126.4 624.8,126.9 625.8,127.4 626.8,127.9 627.8,128.4 628.8,128.9 629.7,129.5 630.7,130.0 631.6,130.5 632.5,131.0 633.4,131.6 634.2,132.1 635.1,132.6 635.9,133.1 636.7,133.7 637.5,134.2 639.1,135.2 640.6,136.3 642.1,137.3 643.5,138.4 644.9,139.4 646.2,140.5 647.6,141.5 648.8,142.5 650.1,143.5 651.3,144.5 652.5,145.5 653.6,146.5 654.7,147.4 655.8,148.3 656.9,149.3 657.9,150.2 659.0,151.1 660.0,151.9 660.9,152.8 661.9,153.6 662.8,154.4 663.8,155.2 664.7,156.0 665.6,156.7 666.4,157.4 667.3,158.1 668.1,158.8 669.0,159.5 669.8,160.2 671.0,161.1 672.1,162.0 673.3,162.9 674.4,163.7 675.5,164.5 676.5,165.3 677.6,166.0 678.6,166.7 679.6,167.4 680.5,168.0 681.5,168.7 682.4,169.3 683.3,169.8 684.2,170.4 685.1,170.9 686.0,171.4 686.8,171.9 687.6,172.4 688.5,172.8 689.3,173.3 690.3,173.8 691.4,174.4 692.4,174.9 693.3,175.4 694.3,175.8 695.3,176.3 696.2,176.7 697.1,177.1 698.0,177.5 698.9,177.9 699.7,178.2 700.6,178.6 701.4,178.9 702.2,179.2 703.0,179.6 704.0,179.9 705.0,180.3 705.9,180.6 706.8,181.0 707.7,181.3 708.6,181.6 709.5,181.9 710.4,182.1 711.2,182.4 712.0,182.7 712.9,182.9 713.8,183.2 714.7,183.5 715.7,183.7 716.6,184.0 717.5,184.2 718.3,184.5 719.2,184.7 720.0,184.9 720.8,185.1 721.7,185.3 722.6,185.6 723.5,185.8 724.4,186.0 725.3,186.2 726.1,186.4 727.0,186.6 727.8,186.7 728.6,186.9 729.4,187.1 730.3,187.3 731.2,187.5 732.1,187.6 732.9,187.8 733.7,188.0 734.6,188.1 735.4,188.3 736.3,188.4 737.1,188.6 738.0,188.7 738.8,188.9 739.7,189.0 740.5,189.1 741.3,189.3 742.2,189.4 743.0,189.6 743.9,189.7 744.7,189.8 745.5,189.9 746.4,190.1 747.2,190.2 748.1,190.3 748.9,190.4 749.7,190.5 750.5,190.7 751.4,190.8 752.2,190.9 753.1,191.0 753.9,191.1 754.7,191.2 755.6,191.3 756.4,191.4 757.2,191.5 758.0,191.6 758.9,191.7 759.7,191.8 760.6,191.9 761.4,192.0 762.2,192.1 763.1,192.2 763.9,192.3 764.7,192.4 765.6,192.5 766.4,192.5 767.2,192.6 768.0,192.7 768.9,192.8 769.7,192.9 770.5,193.0 771.3,193.0 772.2,193.1 773.0,193.2 773.8,193.3 774.6,193.4 775.4,193.4 776.3,193.5 777.1,193.6 777.9,193.7 778.7,193.7 779.5,193.8 780.4,193.9 781.2,194.0 782.0,194.0 782.8,194.1 783.6,194.2 784.4,194.2 785.2,194.3 786.1,194.4 786.9,194.4 787.7,194.5 788.5,194.6 789.3,194.7 790.1,194.7 791.0,194.8 791.8,194.9 792.6,194.9 793.4,195.0 794.2,195.1 795.0,195.1 795.9,195.2 796.7,195.3 797.5,195.4 798.3,195.4 799.1,195.5 799.9,195.6" fill="none" stroke="#4a90d9" stroke-width="1.3" stroke-linejoin="round" clip-path="url(#pc23)"/>
  <defs><clipPath id="pc24"><rect x="34" y="16" width="358" height="180"/></clipPath></defs>
  <polyline points="37.5,193.7 70.1,172.1 89.2,159.4 102.8,150.4 113.3,143.4 121.9,137.7 129.1,132.9 135.4,128.7 141.0,125.0 145.9,121.7 150.4,118.8 154.5,116.0 158.3,113.5 161.8,111.2 165.0,109.1 168.1,107.1 170.9,105.2 173.6,103.4 176.2,101.7 178.6,100.1 180.9,98.6 183.1,97.1 185.2,95.7 187.2,94.4 189.1,93.1 190.9,91.9 192.7,90.7 194.4,89.6 196.1,88.5 197.7,87.5 199.2,86.5 200.7,85.5 202.2,84.5 203.6,83.6 204.9,82.7 206.3,81.9 207.6,81.0 208.8,80.2 210.0,79.4 211.2,78.6 212.4,77.9 213.5,77.2 214.6,76.5 215.7,75.8 216.8,75.1 217.8,74.5 218.8,73.8 219.8,73.2 220.8,72.6 221.7,72.0 222.7,71.5 223.6,70.9 224.5,70.4 225.4,69.8 226.2,69.3 227.1,68.8 227.9,68.3 228.7,67.9 229.5,67.4 231.1,66.5 232.6,65.7 234.1,64.9 235.5,64.1 236.9,63.4 238.2,62.7 239.6,62.1 240.8,61.5 242.1,60.9 243.3,60.4 244.5,59.9 245.6,59.4 246.7,58.9 247.8,58.5 248.9,58.1 249.9,57.7 251.0,57.4 252.0,57.1 252.9,56.8 253.9,56.5 254.8,56.2 255.8,56.0 256.7,55.7 257.6,55.5 258.4,55.3 259.3,55.1 260.1,54.9 261.0,54.8 261.8,54.6 263.0,54.4 264.1,54.2 265.3,54.0 266.4,53.9 267.5,53.7 268.5,53.6 269.6,53.4 270.6,53.3 271.6,53.2 272.5,53.1 273.5,53.1 274.4,53.0 275.3,52.9 276.2,52.9 277.1,52.8 278.0,52.7 278.8,52.7 279.6,52.6 280.5,52.6 281.3,52.6 282.3,52.5 283.4,52.5 284.4,52.4 285.3,52.4 286.3,52.4 287.3,52.3 288.2,52.3 289.1,52.3 290.0,52.3 290.9,52.3 291.7,52.2 292.6,52.2 293.4,52.2 294.2,52.2 295.0,52.2 296.0,52.2 297.0,52.1 297.9,52.1 298.8,52.1 299.7,52.1 300.6,52.1 301.5,52.1 302.4,52.1 303.2,52.1 304.0,52.1 304.9,52.1 305.8,52.1 306.7,52.1 307.7,52.1 308.6,52.1 309.5,52.1 310.3,52.0 311.2,52.0 312.0,52.0 312.8,52.0 313.7,52.0 314.6,52.0 315.5,52.0 316.4,52.0 317.3,52.0 318.1,52.0 319.0,52.0 319.8,52.0 320.6,52.0 321.4,52.0 322.3,52.0 323.2,52.0 324.1,52.0 324.9,52.0 325.7,52.0 326.6,52.0 327.4,52.0 328.3,52.0 329.1,52.0 330.0,52.0 330.8,52.0 331.7,52.0 332.5,52.0 333.3,52.0 334.2,52.0 335.0,52.0 335.9,52.0 336.7,52.0 337.5,52.0 338.4,52.0 339.2,52.0 340.1,52.0 340.9,52.0 341.7,52.0 342.5,52.0 343.4,52.0 344.2,52.0 345.1,52.0 345.9,52.0 346.7,52.0 347.6,52.0 348.4,52.0 349.2,52.0 350.0,52.0 350.9,52.0 351.7,52.0 352.6,52.0 353.4,52.0 354.2,52.0 355.1,52.0 355.9,52.0 356.7,52.0 357.6,52.0 358.4,52.0 359.2,52.0 360.0,52.0 360.9,52.0 361.7,52.0 362.5,52.0 363.3,52.0 364.2,52.0 365.0,52.0 365.8,52.0 366.6,52.0 367.4,52.0 368.3,52.0 369.1,52.0 369.9,52.0 370.7,52.0 371.5,52.0 372.4,52.0 373.2,52.0 374.0,52.0 374.8,52.0 375.6,52.0 376.4,52.0 377.2,52.0 378.1,52.0 378.9,52.0 379.7,52.0 380.5,52.0 381.3,52.0 382.1,52.0 383.0,52.0 383.8,52.0 384.6,52.0 385.4,52.0 386.2,52.0 387.0,52.0 387.9,52.0 388.7,52.0 389.5,52.0 390.3,52.0 391.1,52.0 391.9,52.0" fill="none" stroke="#e74c3c" stroke-width="1.3" stroke-linejoin="round" clip-path="url(#pc24)"/>
  <defs><clipPath id="pc25"><rect x="442" y="16" width="358" height="180"/></clipPath></defs>
  <polyline points="445.5,16.4 478.1,16.9 497.2,17.3 510.8,17.7 521.3,18.2 529.9,18.6 537.1,19.1 543.4,19.5 549.0,19.9 553.9,20.4 558.4,20.8 562.5,21.3 566.3,21.7 569.8,22.1 573.0,22.6 576.1,23.0 578.9,23.5 581.6,23.9 584.2,24.4 586.6,24.8 588.9,25.3 591.1,25.8 593.2,26.2 595.2,26.7 597.1,27.1 598.9,27.6 600.7,28.1 602.4,28.5 604.1,29.0 605.7,29.5 607.2,30.0 608.7,30.4 610.2,30.9 611.6,31.4 612.9,31.9 614.3,32.4 615.6,32.9 616.8,33.4 618.0,33.9 619.2,34.4 620.4,34.9 621.5,35.4 622.6,35.9 623.7,36.4 624.8,36.9 625.8,37.4 626.8,37.9 627.8,38.4 628.8,38.9 629.7,39.5 630.7,40.0 631.6,40.5 632.5,41.0 633.4,41.6 634.2,42.1 635.1,42.6 635.9,43.1 636.7,43.7 637.5,44.2 639.1,45.2 640.6,46.3 642.1,47.3 643.5,48.4 644.9,49.4 646.2,50.5 647.6,51.5 648.8,52.5 650.1,53.5 651.3,54.5 652.5,55.5 653.6,56.5 654.7,57.4 655.8,58.3 656.9,59.3 657.9,60.2 659.0,61.1 660.0,61.9 660.9,62.8 661.9,63.6 662.8,64.4 663.8,65.2 664.7,66.0 665.6,66.7 666.4,67.4 667.3,68.1 668.1,68.8 669.0,69.5 669.8,70.2 671.0,71.1 672.1,72.0 673.3,72.9 674.4,73.7 675.5,74.5 676.5,75.3 677.6,76.0 678.6,76.7 679.6,77.4 680.5,78.0 681.5,78.7 682.4,79.3 683.3,79.8 684.2,80.4 685.1,80.9 686.0,81.4 686.8,81.9 687.6,82.4 688.5,82.8 689.3,83.3 690.3,83.8 691.4,84.4 692.4,84.9 693.3,85.4 694.3,85.8 695.3,86.3 696.2,86.7 697.1,87.1 698.0,87.5 698.9,87.9 699.7,88.2 700.6,88.6 701.4,88.9 702.2,89.2 703.0,89.6 704.0,89.9 705.0,90.3 705.9,90.6 706.8,91.0 707.7,91.3 708.6,91.6 709.5,91.9 710.4,92.1 711.2,92.4 712.0,92.7 712.9,92.9 713.8,93.2 714.7,93.5 715.7,93.7 716.6,94.0 717.5,94.2 718.3,94.5 719.2,94.7 720.0,94.9 720.8,95.1 721.7,95.3 722.6,95.6 723.5,95.8 724.4,96.0 725.3,96.2 726.1,96.4 727.0,96.6 727.8,96.7 728.6,96.9 729.4,97.1 730.3,97.3 731.2,97.5 732.1,97.6 732.9,97.8 733.7,98.0 734.6,98.1 735.4,98.3 736.3,98.4 737.1,98.6 738.0,98.7 738.8,98.9 739.7,99.0 740.5,99.1 741.3,99.3 742.2,99.4 743.0,99.6 743.9,99.7 744.7,99.8 745.5,99.9 746.4,100.1 747.2,100.2 748.1,100.3 748.9,100.4 749.7,100.5 750.5,100.7 751.4,100.8 752.2,100.9 753.1,101.0 753.9,101.1 754.7,101.2 755.6,101.3 756.4,101.4 757.2,101.5 758.0,101.6 758.9,101.7 759.7,101.8 760.6,101.9 761.4,102.0 762.2,102.1 763.1,102.2 763.9,102.3 764.7,102.4 765.6,102.5 766.4,102.5 767.2,102.6 768.0,102.7 768.9,102.8 769.7,102.9 770.5,103.0 771.3,103.0 772.2,103.1 773.0,103.2 773.8,103.3 774.6,103.4 775.4,103.4 776.3,103.5 777.1,103.6 777.9,103.7 778.7,103.7 779.5,103.8 780.4,103.9 781.2,104.0 782.0,104.0 782.8,104.1 783.6,104.2 784.4,104.2 785.2,104.3 786.1,104.4 786.9,104.4 787.7,104.5 788.5,104.6 789.3,104.7 790.1,104.7 791.0,104.8 791.8,104.9 792.6,104.9 793.4,105.0 794.2,105.1 795.0,105.1 795.9,105.2 796.7,105.3 797.5,105.4 798.3,105.4 799.1,105.5 799.9,105.6" fill="none" stroke="#e74c3c" stroke-width="1.3" stroke-linejoin="round" clip-path="url(#pc25)"/>
  <defs><clipPath id="pc26"><rect x="34" y="16" width="358" height="180"/></clipPath></defs>
  <polyline points="37.5,133.7 70.1,122.9 89.2,116.5 102.8,112.0 113.3,108.5 121.9,105.6 129.1,103.2 135.4,101.1 141.0,99.2 145.9,97.5 150.4,96.0 154.5,94.6 158.3,93.3 161.8,92.1 165.0,91.0 168.1,90.0 170.9,89.0 173.6,88.0 176.2,87.1 178.6,86.2 180.9,85.4 183.1,84.6 185.2,83.8 187.2,83.1 189.1,82.4 190.9,81.7 192.7,81.0 194.4,80.3 196.1,79.7 197.7,79.1 199.2,78.4 200.7,77.8 202.2,77.3 203.6,76.7 204.9,76.1 206.3,75.5 207.6,75.0 208.8,74.4 210.0,73.9 211.2,73.4 212.4,72.8 213.5,72.3 214.6,71.8 215.7,71.3 216.8,70.8 217.8,70.3 218.8,69.7 219.8,69.2 220.8,68.7 221.7,68.2 222.7,67.8 223.6,67.3 224.5,66.8 225.4,66.3 226.2,65.8 227.1,65.3 227.9,64.8 228.7,64.3 229.5,63.8 231.1,62.9 232.6,61.9 234.1,60.9 235.5,60.0 236.9,59.0 238.2,58.1 239.6,57.2 240.8,56.4 242.1,55.5 243.3,54.8 244.5,54.1 245.6,53.5 246.7,52.9 247.8,52.5 248.9,52.2 249.9,52.1 251.0,52.0 252.0,52.1 252.9,52.2 253.9,52.5 254.8,52.8 255.8,53.2 256.7,53.7 257.6,54.2 258.4,54.7 259.3,55.3 260.1,55.8 261.0,56.4 261.8,56.9 263.0,57.7 264.1,58.5 265.3,59.3 266.4,60.1 267.5,60.8 268.5,61.5 269.6,62.2 270.6,62.8 271.6,63.4 272.5,64.0 273.5,64.6 274.4,65.2 275.3,65.7 276.2,66.2 277.1,66.7 278.0,67.2 278.8,67.6 279.6,68.1 280.5,68.5 281.3,69.0 282.3,69.5 283.4,70.0 284.4,70.5 285.3,71.0 286.3,71.5 287.3,71.9 288.2,72.4 289.1,72.8 290.0,73.2 290.9,73.6 291.7,74.0 292.6,74.4 293.4,74.8 294.2,75.1 295.0,75.5 296.0,75.9 297.0,76.3 297.9,76.7 298.8,77.1 299.7,77.5 300.6,77.9 301.5,78.2 302.4,78.6 303.2,78.9 304.0,79.3 304.9,79.6 305.8,80.0 306.7,80.4 307.7,80.7 308.6,81.1 309.5,81.4 310.3,81.8 311.2,82.1 312.0,82.5 312.8,82.8 313.7,83.1 314.6,83.5 315.5,83.8 316.4,84.2 317.3,84.5 318.1,84.8 319.0,85.2 319.8,85.5 320.6,85.8 321.4,86.1 322.3,86.5 323.2,86.8 324.1,87.1 324.9,87.5 325.7,87.8 326.6,88.1 327.4,88.4 328.3,88.7 329.1,89.1 330.0,89.4 330.8,89.7 331.7,90.1 332.5,90.4 333.3,90.7 334.2,91.0 335.0,91.4 335.9,91.7 336.7,92.0 337.5,92.4 338.4,92.7 339.2,93.0 340.1,93.4 340.9,93.7 341.7,94.0 342.5,94.4 343.4,94.7 344.2,95.1 345.1,95.4 345.9,95.7 346.7,96.1 347.6,96.4 348.4,96.8 349.2,97.1 350.0,97.5 350.9,97.9 351.7,98.2 352.6,98.6 353.4,99.0 354.2,99.3 355.1,99.7 355.9,100.1 356.7,100.5 357.6,100.9 358.4,101.3 359.2,101.7 360.0,102.1 360.9,102.5 361.7,102.9 362.5,103.3 363.3,103.7 364.2,104.2 365.0,104.6 365.8,105.0 366.6,105.5 367.4,106.0 368.3,106.4 369.1,106.9 369.9,107.4 370.7,107.9 371.5,108.4 372.4,108.9 373.2,109.5 374.0,110.0 374.8,110.6 375.6,111.2 376.4,111.8 377.2,112.5 378.1,113.1 378.9,113.8 379.7,114.6 380.5,115.3 381.3,116.1 382.1,116.9 383.0,117.8 383.8,118.7 384.6,119.7 385.4,120.7 386.2,121.9 387.0,123.1 387.9,124.4 388.7,125.9 389.5,127.5 390.3,129.4 391.1,131.4 391.9,133.9" fill="none" stroke="#2ecc71" stroke-width="1.3" stroke-linejoin="round" clip-path="url(#pc26)"/>
  <defs><clipPath id="pc27"><rect x="442" y="16" width="358" height="180"/></clipPath></defs>
  <polyline points="445.5,61.2 478.1,61.3 497.2,61.5 510.8,61.6 521.3,61.8 529.9,61.9 537.1,62.1 543.4,62.2 549.0,62.4 553.9,62.6 558.4,62.7 562.5,62.9 566.3,63.0 569.8,63.2 573.0,63.4 576.1,63.5 578.9,63.7 581.6,63.9 584.2,64.0 586.6,64.2 588.9,64.4 591.1,64.6 593.2,64.8 595.2,64.9 597.1,65.1 598.9,65.3 600.7,65.5 602.4,65.7 604.1,65.9 605.7,66.1 607.2,66.3 608.7,66.5 610.2,66.7 611.6,67.0 612.9,67.2 614.3,67.4 615.6,67.6 616.8,67.9 618.0,68.1 619.2,68.4 620.4,68.7 621.5,68.9 622.6,69.2 623.7,69.5 624.8,69.8 625.8,70.1 626.8,70.4 627.8,70.7 628.8,71.0 629.7,71.4 630.7,71.7 631.6,72.1 632.5,72.4 633.4,72.8 634.2,73.2 635.1,73.6 635.9,74.1 636.7,74.5 637.5,75.0 639.1,76.0 640.6,77.0 642.1,78.2 643.5,79.4 644.9,80.8 646.2,82.3 647.6,83.9 648.8,85.6 650.1,87.4 651.3,89.4 652.5,91.6 653.6,93.8 654.7,96.2 655.8,98.6 656.9,101.1 657.9,103.7 659.0,106.1 660.0,108.6 660.9,110.9 661.9,113.2 662.8,115.3 663.8,117.3 664.7,119.1 665.6,120.8 666.4,122.4 667.3,123.9 668.1,125.2 669.0,126.4 669.8,127.6 671.0,129.1 672.1,130.4 673.3,131.6 674.4,132.7 675.5,133.6 676.5,134.5 677.6,135.3 678.6,136.0 679.6,136.6 680.5,137.2 681.5,137.7 682.4,138.2 683.3,138.7 684.2,139.1 685.1,139.5 686.0,139.9 686.8,140.2 687.6,140.5 688.5,140.8 689.3,141.1 690.3,141.5 691.4,141.8 692.4,142.1 693.3,142.4 694.3,142.6 695.3,142.9 696.2,143.1 697.1,143.3 698.0,143.5 698.9,143.7 699.7,143.9 700.6,144.1 701.4,144.3 702.2,144.4 703.0,144.6 704.0,144.7 705.0,144.9 705.9,145.1 706.8,145.2 707.7,145.4 708.6,145.5 709.5,145.6 710.4,145.7 711.2,145.9 712.0,146.0 712.9,146.1 713.8,146.2 714.7,146.3 715.7,146.4 716.6,146.5 717.5,146.6 718.3,146.7 719.2,146.8 720.0,146.9 720.8,147.0 721.7,147.1 722.6,147.2 723.5,147.2 724.4,147.3 725.3,147.4 726.1,147.5 727.0,147.6 727.8,147.6 728.6,147.7 729.4,147.8 730.3,147.8 731.2,147.9 732.1,148.0 732.9,148.0 733.7,148.1 734.6,148.1 735.4,148.2 736.3,148.3 737.1,148.3 738.0,148.4 738.8,148.4 739.7,148.5 740.5,148.5 741.3,148.6 742.2,148.6 743.0,148.7 743.9,148.7 744.7,148.8 745.5,148.8 746.4,148.9 747.2,148.9 748.1,149.0 748.9,149.0 749.7,149.1 750.5,149.1 751.4,149.1 752.2,149.2 753.1,149.2 753.9,149.3 754.7,149.3 755.6,149.3 756.4,149.4 757.2,149.4 758.0,149.4 758.9,149.5 759.7,149.5 760.6,149.5 761.4,149.6 762.2,149.6 763.1,149.6 763.9,149.7 764.7,149.7 765.6,149.7 766.4,149.8 767.2,149.8 768.0,149.8 768.9,149.9 769.7,149.9 770.5,149.9 771.3,150.0 772.2,150.0 773.0,150.0 773.8,150.0 774.6,150.1 775.4,150.1 776.3,150.1 777.1,150.1 777.9,150.2 778.7,150.2 779.5,150.2 780.4,150.2 781.2,150.3 782.0,150.3 782.8,150.3 783.6,150.4 784.4,150.4 785.2,150.4 786.1,150.4 786.9,150.5 787.7,150.5 788.5,150.5 789.3,150.5 790.1,150.5 791.0,150.6 791.8,150.6 792.6,150.6 793.4,150.6 794.2,150.7 795.0,150.7 795.9,150.7 796.7,150.7 797.5,150.8 798.3,150.8 799.1,150.8 799.9,150.8" fill="none" stroke="#2ecc71" stroke-width="1.3" stroke-linejoin="round" clip-path="url(#pc27)"/>
  <defs><clipPath id="pc28"><rect x="34" y="16" width="358" height="180"/></clipPath></defs>
  <polyline points="37.5,52.0 70.1,52.0 89.2,52.0 102.8,52.0 113.3,52.0 121.9,52.0 129.1,52.0 135.4,52.0 141.0,52.0 145.9,52.0 150.4,52.0 154.5,52.0 158.3,52.0 161.8,52.0 165.0,52.0 168.1,52.0 170.9,52.0 173.6,52.0 176.2,52.0 178.6,52.0 180.9,52.0 183.1,52.0 185.2,52.0 187.2,52.0 189.1,52.0 190.9,52.0 192.7,52.0 194.4,52.0 196.1,52.0 197.7,52.0 199.2,52.0 200.7,52.0 202.2,52.0 203.6,52.0 204.9,52.0 206.3,52.0 207.6,52.0 208.8,52.0 210.0,52.0 211.2,52.0 212.4,52.0 213.5,52.0 214.6,52.0 215.7,52.0 216.8,52.0 217.8,52.0 218.8,52.0 219.8,52.0 220.8,52.0 221.7,52.0 222.7,52.0 223.6,52.1 224.5,52.1 225.4,52.1 226.2,52.1 227.1,52.1 227.9,52.1 228.7,52.1 229.5,52.1 231.1,52.1 232.6,52.1 234.1,52.1 235.5,52.2 236.9,52.2 238.2,52.3 239.6,52.3 240.8,52.4 242.1,52.5 243.3,52.7 244.5,53.0 245.6,53.4 246.7,54.1 247.8,55.6 248.9,58.7 249.9,67.1 251.0,109.1 252.0,65.8 252.9,58.6 253.9,55.7 254.8,54.4 255.8,53.6 256.7,53.2 257.6,52.9 258.4,52.7 259.3,52.6 260.1,52.5 261.0,52.4 261.8,52.3 263.0,52.3 264.1,52.2 265.3,52.2 266.4,52.2 267.5,52.1 268.5,52.1 269.6,52.1 270.6,52.1 271.6,52.1 272.5,52.1 273.5,52.1 274.4,52.1 275.3,52.1 276.2,52.1 277.1,52.1 278.0,52.1 278.8,52.0 279.6,52.0 280.5,52.0 281.3,52.0 282.3,52.0 283.4,52.0 284.4,52.0 285.3,52.0 286.3,52.0 287.3,52.0 288.2,52.0 289.1,52.0 290.0,52.0 290.9,52.0 291.7,52.0 292.6,52.0 293.4,52.0 294.2,52.0 295.0,52.0 296.0,52.0 297.0,52.0 297.9,52.0 298.8,52.0 299.7,52.0 300.6,52.0 301.5,52.0 302.4,52.0 303.2,52.0 304.0,52.0 304.9,52.0 305.8,52.0 306.7,52.0 307.7,52.0 308.6,52.0 309.5,52.0 310.3,52.0 311.2,52.0 312.0,52.0 312.8,52.0 313.7,52.0 314.6,52.0 315.5,52.0 316.4,52.0 317.3,52.0 318.1,52.0 319.0,52.0 319.8,52.0 320.6,52.0 321.4,52.0 322.3,52.0 323.2,52.0 324.1,52.0 324.9,52.0 325.7,52.0 326.6,52.0 327.4,52.0 328.3,52.0 329.1,52.0 330.0,52.0 330.8,52.0 331.7,52.0 332.5,52.0 333.3,52.0 334.2,52.0 335.0,52.0 335.9,52.0 336.7,52.0 337.5,52.0 338.4,52.0 339.2,52.0 340.1,52.0 340.9,52.0 341.7,52.0 342.5,52.0 343.4,52.0 344.2,52.0 345.1,52.0 345.9,52.0 346.7,52.0 347.6,52.0 348.4,52.0 349.2,52.0 350.0,52.0 350.9,52.0 351.7,52.0 352.6,52.0 353.4,52.0 354.2,52.0 355.1,52.0 355.9,52.0 356.7,52.0 357.6,52.0 358.4,52.0 359.2,52.0 360.0,52.0 360.9,52.0 361.7,52.0 362.5,52.0 363.3,52.0 364.2,52.0 365.0,52.0 365.8,52.0 366.6,52.0 367.4,52.0 368.3,52.0 369.1,52.0 369.9,52.0 370.7,52.0 371.5,52.0 372.4,52.0 373.2,52.0 374.0,52.0 374.8,52.0 375.6,52.0 376.4,52.0 377.2,52.0 378.1,52.0 378.9,52.0 379.7,52.0 380.5,52.0 381.3,52.0 382.1,52.0 383.0,52.0 383.8,52.0 384.6,52.0 385.4,52.0 386.2,52.0 387.0,52.0 387.9,52.0 388.7,52.0 389.5,52.0 390.3,52.0 391.1,52.0 391.9,52.0" fill="none" stroke="#f39c12" stroke-width="1.3" stroke-linejoin="round" clip-path="url(#pc28)"/>
  <defs><clipPath id="pc29"><rect x="442" y="16" width="358" height="180"/></clipPath></defs>
  <polyline points="445.5,106.0 478.1,106.1 497.2,106.1 510.8,106.1 521.3,106.2 529.9,106.2 537.1,106.2 543.4,106.2 549.0,106.3 553.9,106.3 558.4,106.3 562.5,106.4 566.3,106.4 569.8,106.4 573.0,106.5 576.1,106.5 578.9,106.5 581.6,106.6 584.2,106.6 586.6,106.6 588.9,106.7 591.1,106.7 593.2,106.8 595.2,106.8 597.1,106.8 598.9,106.9 600.7,106.9 602.4,106.9 604.1,107.0 605.7,107.0 607.2,107.1 608.7,107.1 610.2,107.2 611.6,107.2 612.9,107.3 614.3,107.3 615.6,107.4 616.8,107.4 618.0,107.5 619.2,107.5 620.4,107.6 621.5,107.6 622.6,107.7 623.7,107.7 624.8,107.8 625.8,107.9 626.8,107.9 627.8,108.0 628.8,108.1 629.7,108.2 630.7,108.2 631.6,108.3 632.5,108.4 633.4,108.5 634.2,108.6 635.1,108.7 635.9,108.8 636.7,108.9 637.5,109.0 639.1,109.3 640.6,109.6 642.1,109.9 643.5,110.3 644.9,110.7 646.2,111.2 647.6,111.8 648.8,112.5 650.1,113.4 651.3,114.5 652.5,116.0 653.6,117.9 654.7,120.7 655.8,124.6 656.9,130.7 657.9,139.8 659.0,61.7 660.0,73.2 660.9,81.5 661.9,87.0 662.8,90.7 663.8,93.2 664.7,95.0 665.6,96.3 666.4,97.4 667.3,98.2 668.1,98.9 669.0,99.5 669.8,100.0 671.0,100.6 672.1,101.0 673.3,101.4 674.4,101.8 675.5,102.1 676.5,102.3 677.6,102.5 678.6,102.7 679.6,102.9 680.5,103.0 681.5,103.2 682.4,103.3 683.3,103.4 684.2,103.5 685.1,103.6 686.0,103.7 686.8,103.7 687.6,103.8 688.5,103.9 689.3,103.9 690.3,104.0 691.4,104.1 692.4,104.2 693.3,104.2 694.3,104.3 695.3,104.3 696.2,104.4 697.1,104.4 698.0,104.5 698.9,104.5 699.7,104.6 700.6,104.6 701.4,104.6 702.2,104.7 703.0,104.7 704.0,104.7 705.0,104.8 705.9,104.8 706.8,104.8 707.7,104.9 708.6,104.9 709.5,104.9 710.4,104.9 711.2,105.0 712.0,105.0 712.9,105.0 713.8,105.0 714.7,105.1 715.7,105.1 716.6,105.1 717.5,105.1 718.3,105.1 719.2,105.2 720.0,105.2 720.8,105.2 721.7,105.2 722.6,105.2 723.5,105.2 724.4,105.3 725.3,105.3 726.1,105.3 727.0,105.3 727.8,105.3 728.6,105.3 729.4,105.3 730.3,105.4 731.2,105.4 732.1,105.4 732.9,105.4 733.7,105.4 734.6,105.4 735.4,105.4 736.3,105.5 737.1,105.5 738.0,105.5 738.8,105.5 739.7,105.5 740.5,105.5 741.3,105.5 742.2,105.5 743.0,105.5 743.9,105.5 744.7,105.6 745.5,105.6 746.4,105.6 747.2,105.6 748.1,105.6 748.9,105.6 749.7,105.6 750.5,105.6 751.4,105.6 752.2,105.6 753.1,105.6 753.9,105.7 754.7,105.7 755.6,105.7 756.4,105.7 757.2,105.7 758.0,105.7 758.9,105.7 759.7,105.7 760.6,105.7 761.4,105.7 762.2,105.7 763.1,105.7 763.9,105.7 764.7,105.7 765.6,105.7 766.4,105.8 767.2,105.8 768.0,105.8 768.9,105.8 769.7,105.8 770.5,105.8 771.3,105.8 772.2,105.8 773.0,105.8 773.8,105.8 774.6,105.8 775.4,105.8 776.3,105.8 777.1,105.8 777.9,105.8 778.7,105.8 779.5,105.8 780.4,105.8 781.2,105.9 782.0,105.9 782.8,105.9 783.6,105.9 784.4,105.9 785.2,105.9 786.1,105.9 786.9,105.9 787.7,105.9 788.5,105.9 789.3,105.9 790.1,105.9 791.0,105.9 791.8,105.9 792.6,105.9 793.4,105.9 794.2,105.9 795.0,105.9 795.9,105.9 796.7,105.9 797.5,106.0 798.3,106.0 799.1,106.0 799.9,106.0" fill="none" stroke="#f39c12" stroke-width="1.3" stroke-linejoin="round" clip-path="url(#pc29)"/>
  <defs><clipPath id="pc30"><rect x="34" y="16" width="358" height="180"/></clipPath></defs>
  <polyline points="37.5,52.0 70.1,52.0 89.2,52.0 102.8,52.0 113.3,52.0 121.9,52.0 129.1,51.9 135.4,51.9 141.0,51.9 145.9,51.9 150.4,51.8 154.5,51.8 158.3,51.8 161.8,51.7 165.0,51.7 168.1,51.6 170.9,51.6 173.6,51.6 176.2,51.5 178.6,51.4 180.9,51.4 183.1,51.3 185.2,51.3 187.2,51.2 189.1,51.1 190.9,51.0 192.7,51.0 194.4,50.9 196.1,50.8 197.7,50.7 199.2,50.6 200.7,50.5 202.2,50.4 203.6,50.3 204.9,50.2 206.3,50.1 207.6,49.9 208.8,49.8 210.0,49.7 211.2,49.6 212.4,49.4 213.5,49.3 214.6,49.1 215.7,49.0 216.8,48.8 217.8,48.7 218.8,48.5 219.8,48.4 220.8,48.2 221.7,48.0 222.7,47.8 223.6,47.7 224.5,47.5 225.4,47.3 226.2,47.1 227.1,46.9 227.9,46.7 228.7,46.5 229.5,46.3 231.1,45.9 232.6,45.4 234.1,45.0 235.5,44.6 236.9,44.2 238.2,43.8 239.6,43.4 240.8,43.0 242.1,42.6 243.3,42.3 244.5,42.0 245.6,41.8 246.7,41.6 247.8,41.4 248.9,41.3 249.9,41.2 251.0,41.2 252.0,41.2 252.9,41.3 253.9,41.4 254.8,41.5 255.8,41.7 256.7,41.9 257.6,42.1 258.4,42.3 259.3,42.5 260.1,42.7 261.0,43.0 261.8,43.2 263.0,43.6 264.1,43.9 265.3,44.3 266.4,44.6 267.5,45.0 268.5,45.3 269.6,45.6 270.6,45.8 271.6,46.1 272.5,46.4 273.5,46.6 274.4,46.8 275.3,47.1 276.2,47.3 277.1,47.4 278.0,47.6 278.8,47.8 279.6,48.0 280.5,48.1 281.3,48.3 282.3,48.4 283.4,48.6 284.4,48.8 285.3,48.9 286.3,49.1 287.3,49.2 288.2,49.3 289.1,49.4 290.0,49.5 290.9,49.6 291.7,49.7 292.6,49.8 293.4,49.9 294.2,50.0 295.0,50.1 296.0,50.1 297.0,50.2 297.9,50.3 298.8,50.4 299.7,50.4 300.6,50.5 301.5,50.6 302.4,50.6 303.2,50.7 304.0,50.7 304.9,50.8 305.8,50.8 306.7,50.9 307.7,50.9 308.6,51.0 309.5,51.0 310.3,51.0 311.2,51.1 312.0,51.1 312.8,51.2 313.7,51.2 314.6,51.2 315.5,51.3 316.4,51.3 317.3,51.3 318.1,51.3 319.0,51.4 319.8,51.4 320.6,51.4 321.4,51.4 322.3,51.5 323.2,51.5 324.1,51.5 324.9,51.5 325.7,51.5 326.6,51.6 327.4,51.6 328.3,51.6 329.1,51.6 330.0,51.6 330.8,51.6 331.7,51.7 332.5,51.7 333.3,51.7 334.2,51.7 335.0,51.7 335.9,51.7 336.7,51.7 337.5,51.7 338.4,51.7 339.2,51.8 340.1,51.8 340.9,51.8 341.7,51.8 342.5,51.8 343.4,51.8 344.2,51.8 345.1,51.8 345.9,51.8 346.7,51.8 347.6,51.8 348.4,51.9 349.2,51.9 350.0,51.9 350.9,51.9 351.7,51.9 352.6,51.9 353.4,51.9 354.2,51.9 355.1,51.9 355.9,51.9 356.7,51.9 357.6,51.9 358.4,51.9 359.2,51.9 360.0,51.9 360.9,51.9 361.7,51.9 362.5,51.9 363.3,51.9 364.2,51.9 365.0,51.9 365.8,51.9 366.6,52.0 367.4,52.0 368.3,52.0 369.1,52.0 369.9,52.0 370.7,52.0 371.5,52.0 372.4,52.0 373.2,52.0 374.0,52.0 374.8,52.0 375.6,52.0 376.4,52.0 377.2,52.0 378.1,52.0 378.9,52.0 379.7,52.0 380.5,52.0 381.3,52.0 382.1,52.0 383.0,52.0 383.8,52.0 384.6,52.0 385.4,52.0 386.2,52.0 387.0,52.0 387.9,52.0 388.7,52.0 389.5,52.0 390.3,52.0 391.1,52.0 391.9,52.0" fill="none" stroke="#9b59b6" stroke-width="1.3" stroke-linejoin="round" clip-path="url(#pc30)"/>
  <defs><clipPath id="pc31"><rect x="442" y="16" width="358" height="180"/></clipPath></defs>
  <polyline points="445.5,105.8 478.1,105.6 497.2,105.3 510.8,105.1 521.3,104.9 529.9,104.7 537.1,104.5 543.4,104.3 549.0,104.1 553.9,103.8 558.4,103.6 562.5,103.4 566.3,103.2 569.8,103.0 573.0,102.8 576.1,102.5 578.9,102.3 581.6,102.1 584.2,101.9 586.6,101.7 588.9,101.5 591.1,101.3 593.2,101.1 595.2,100.9 597.1,100.7 598.9,100.5 600.7,100.3 602.4,100.1 604.1,99.9 605.7,99.7 607.2,99.5 608.7,99.3 610.2,99.1 611.6,98.9 612.9,98.7 614.3,98.6 615.6,98.4 616.8,98.2 618.0,98.1 619.2,97.9 620.4,97.7 621.5,97.6 622.6,97.4 623.7,97.3 624.8,97.2 625.8,97.1 626.8,96.9 627.8,96.8 628.8,96.7 629.7,96.6 630.7,96.6 631.6,96.5 632.5,96.4 633.4,96.4 634.2,96.3 635.1,96.3 635.9,96.3 636.7,96.3 637.5,96.3 639.1,96.4 640.6,96.5 642.1,96.7 643.5,97.0 644.9,97.3 646.2,97.8 647.6,98.2 648.8,98.8 650.1,99.4 651.3,100.1 652.5,100.9 653.6,101.7 654.7,102.5 655.8,103.4 656.9,104.3 657.9,105.2 659.0,106.1 660.0,106.9 660.9,107.7 661.9,108.5 662.8,109.3 663.8,110.0 664.7,110.7 665.6,111.3 666.4,111.8 667.3,112.3 668.1,112.8 669.0,113.2 669.8,113.6 671.0,114.0 672.1,114.4 673.3,114.8 674.4,115.0 675.5,115.2 676.5,115.4 677.6,115.5 678.6,115.6 679.6,115.7 680.5,115.7 681.5,115.7 682.4,115.7 683.3,115.7 684.2,115.6 685.1,115.6 686.0,115.5 686.8,115.5 687.6,115.4 688.5,115.3 689.3,115.2 690.3,115.1 691.4,115.0 692.4,114.9 693.3,114.8 694.3,114.6 695.3,114.5 696.2,114.4 697.1,114.3 698.0,114.1 698.9,114.0 699.7,113.9 700.6,113.8 701.4,113.7 702.2,113.6 703.0,113.5 704.0,113.3 705.0,113.2 705.9,113.1 706.8,112.9 707.7,112.8 708.6,112.7 709.5,112.6 710.4,112.5 711.2,112.4 712.0,112.3 712.9,112.2 713.8,112.0 714.7,111.9 715.7,111.8 716.6,111.7 717.5,111.6 718.3,111.5 719.2,111.4 720.0,111.3 720.8,111.2 721.7,111.1 722.6,111.0 723.5,110.9 724.4,110.8 725.3,110.7 726.1,110.7 727.0,110.6 727.8,110.5 728.6,110.4 729.4,110.3 730.3,110.2 731.2,110.2 732.1,110.1 732.9,110.0 733.7,109.9 734.6,109.9 735.4,109.8 736.3,109.7 737.1,109.6 738.0,109.6 738.8,109.5 739.7,109.4 740.5,109.4 741.3,109.3 742.2,109.2 743.0,109.2 743.9,109.1 744.7,109.0 745.5,109.0 746.4,108.9 747.2,108.9 748.1,108.8 748.9,108.7 749.7,108.7 750.5,108.6 751.4,108.6 752.2,108.5 753.1,108.5 753.9,108.4 754.7,108.4 755.6,108.3 756.4,108.3 757.2,108.2 758.0,108.2 758.9,108.1 759.7,108.1 760.6,108.0 761.4,108.0 762.2,107.9 763.1,107.9 763.9,107.8 764.7,107.8 765.6,107.8 766.4,107.7 767.2,107.7 768.0,107.6 768.9,107.6 769.7,107.5 770.5,107.5 771.3,107.5 772.2,107.4 773.0,107.4 773.8,107.4 774.6,107.3 775.4,107.3 776.3,107.2 777.1,107.2 777.9,107.2 778.7,107.1 779.5,107.1 780.4,107.1 781.2,107.0 782.0,107.0 782.8,106.9 783.6,106.9 784.4,106.9 785.2,106.8 786.1,106.8 786.9,106.8 787.7,106.7 788.5,106.7 789.3,106.7 790.1,106.6 791.0,106.6 791.8,106.6 792.6,106.5 793.4,106.5 794.2,106.5 795.0,106.4 795.9,106.4 796.7,106.4 797.5,106.3 798.3,106.3 799.1,106.3 799.9,106.2" fill="none" stroke="#9b59b6" stroke-width="1.3" stroke-linejoin="round" clip-path="url(#pc31)"/>
  <defs><clipPath id="pc32"><rect x="34" y="16" width="358" height="180"/></clipPath></defs>
  <polyline points="37.5,41.2 70.1,41.2 89.2,41.2 102.8,41.2 113.3,41.2 121.9,41.2 129.1,41.2 135.4,41.2 141.0,41.2 145.9,41.2 150.4,41.2 154.5,41.2 158.3,41.2 161.8,41.2 165.0,41.2 168.1,41.2 170.9,41.2 173.6,41.2 176.2,41.2 178.6,41.2 180.9,41.2 183.1,41.2 185.2,41.2 187.2,41.3 189.1,41.3 190.9,41.3 192.7,41.3 194.4,41.3 196.1,41.3 197.7,41.3 199.2,41.3 200.7,41.4 202.2,41.4 203.6,41.4 204.9,41.4 206.3,41.5 207.6,41.5 208.8,41.5 210.0,41.5 211.2,41.6 212.4,41.6 213.5,41.7 214.6,41.7 215.7,41.8 216.8,41.8 217.8,41.9 218.8,41.9 219.8,42.0 220.8,42.0 221.7,42.1 222.7,42.2 223.6,42.2 224.5,42.3 225.4,42.4 226.2,42.4 227.1,42.5 227.9,42.6 228.7,42.7 229.5,42.8 231.1,43.0 232.6,43.2 234.1,43.4 235.5,43.6 236.9,43.8 238.2,44.0 239.6,44.3 240.8,44.5 242.1,44.7 243.3,45.0 244.5,45.2 245.6,45.4 246.7,45.7 247.8,45.9 248.9,46.2 249.9,46.4 251.0,46.6 252.0,46.8 252.9,47.1 253.9,47.3 254.8,47.5 255.8,47.7 256.7,47.9 257.6,48.0 258.4,48.2 259.3,48.4 260.1,48.6 261.0,48.7 261.8,48.9 263.0,49.1 264.1,49.3 265.3,49.5 266.4,49.6 267.5,49.8 268.5,50.0 269.6,50.1 270.6,50.2 271.6,50.3 272.5,50.5 273.5,50.6 274.4,50.7 275.3,50.7 276.2,50.8 277.1,50.9 278.0,51.0 278.8,51.0 279.6,51.1 280.5,51.2 281.3,51.2 282.3,51.3 283.4,51.3 284.4,51.4 285.3,51.4 286.3,51.5 287.3,51.5 288.2,51.5 289.1,51.6 290.0,51.6 290.9,51.6 291.7,51.7 292.6,51.7 293.4,51.7 294.2,51.7 295.0,51.7 296.0,51.8 297.0,51.8 297.9,51.8 298.8,51.8 299.7,51.8 300.6,51.8 301.5,51.9 302.4,51.9 303.2,51.9 304.0,51.9 304.9,51.9 305.8,51.9 306.7,51.9 307.7,51.9 308.6,51.9 309.5,51.9 310.3,51.9 311.2,51.9 312.0,51.9 312.8,51.9 313.7,51.9 314.6,52.0 315.5,52.0 316.4,52.0 317.3,52.0 318.1,52.0 319.0,52.0 319.8,52.0 320.6,52.0 321.4,52.0 322.3,52.0 323.2,52.0 324.1,52.0 324.9,52.0 325.7,52.0 326.6,52.0 327.4,52.0 328.3,52.0 329.1,52.0 330.0,52.0 330.8,52.0 331.7,52.0 332.5,52.0 333.3,52.0 334.2,52.0 335.0,52.0 335.9,52.0 336.7,52.0 337.5,52.0 338.4,52.0 339.2,52.0 340.1,52.0 340.9,52.0 341.7,52.0 342.5,52.0 343.4,52.0 344.2,52.0 345.1,52.0 345.9,52.0 346.7,52.0 347.6,52.0 348.4,52.0 349.2,52.0 350.0,52.0 350.9,52.0 351.7,52.0 352.6,52.0 353.4,52.0 354.2,52.0 355.1,52.0 355.9,52.0 356.7,52.0 357.6,52.0 358.4,52.0 359.2,52.0 360.0,52.0 360.9,52.0 361.7,52.0 362.5,52.0 363.3,52.0 364.2,52.0 365.0,52.0 365.8,52.0 366.6,52.0 367.4,52.0 368.3,52.0 369.1,52.0 369.9,52.0 370.7,52.0 371.5,52.0 372.4,52.0 373.2,52.0 374.0,52.0 374.8,52.0 375.6,52.0 376.4,52.0 377.2,52.0 378.1,52.0 378.9,52.0 379.7,52.0 380.5,52.0 381.3,52.0 382.1,52.0 383.0,52.0 383.8,52.0 384.6,52.0 385.4,52.0 386.2,52.0 387.0,52.0 387.9,52.0 388.7,52.0 389.5,52.0 390.3,52.0 391.1,52.0 391.9,52.0" fill="none" stroke="#1abc9c" stroke-width="1.3" stroke-linejoin="round" clip-path="url(#pc32)"/>
  <defs><clipPath id="pc33"><rect x="442" y="16" width="358" height="180"/></clipPath></defs>
  <polyline points="445.5,106.2 478.1,106.3 497.2,106.5 510.8,106.6 521.3,106.8 529.9,106.9 537.1,107.1 543.4,107.2 549.0,107.4 553.9,107.5 558.4,107.7 562.5,107.8 566.3,108.0 569.8,108.2 573.0,108.3 576.1,108.5 578.9,108.7 581.6,108.8 584.2,109.0 586.6,109.2 588.9,109.3 591.1,109.5 593.2,109.7 595.2,109.9 597.1,110.0 598.9,110.2 600.7,110.4 602.4,110.6 604.1,110.8 605.7,111.0 607.2,111.2 608.7,111.3 610.2,111.5 611.6,111.7 612.9,111.9 614.3,112.1 615.6,112.3 616.8,112.5 618.0,112.7 619.2,112.9 620.4,113.1 621.5,113.4 622.6,113.6 623.7,113.8 624.8,114.0 625.8,114.2 626.8,114.4 627.8,114.6 628.8,114.8 629.7,115.0 630.7,115.2 631.6,115.4 632.5,115.6 633.4,115.8 634.2,116.0 635.1,116.2 635.9,116.3 636.7,116.5 637.5,116.7 639.1,117.1 640.6,117.4 642.1,117.7 643.5,118.0 644.9,118.3 646.2,118.5 647.6,118.8 648.8,119.0 650.1,119.1 651.3,119.3 652.5,119.4 653.6,119.5 654.7,119.6 655.8,119.7 656.9,119.8 657.9,119.8 659.0,119.8 660.0,119.8 660.9,119.8 661.9,119.7 662.8,119.7 663.8,119.6 664.7,119.5 665.6,119.4 666.4,119.3 667.3,119.2 668.1,119.1 669.0,119.0 669.8,118.8 671.0,118.6 672.1,118.4 673.3,118.2 674.4,118.0 675.5,117.8 676.5,117.5 677.6,117.3 678.6,117.1 679.6,116.9 680.5,116.6 681.5,116.4 682.4,116.2 683.3,116.0 684.2,115.8 685.1,115.6 686.0,115.4 686.8,115.2 687.6,115.0 688.5,114.9 689.3,114.7 690.3,114.5 691.4,114.3 692.4,114.1 693.3,113.9 694.3,113.7 695.3,113.5 696.2,113.3 697.1,113.2 698.0,113.0 698.9,112.8 699.7,112.7 700.6,112.6 701.4,112.4 702.2,112.3 703.0,112.2 704.0,112.0 705.0,111.9 705.9,111.7 706.8,111.6 707.7,111.5 708.6,111.3 709.5,111.2 710.4,111.1 711.2,111.0 712.0,110.9 712.9,110.8 713.8,110.7 714.7,110.6 715.7,110.5 716.6,110.4 717.5,110.3 718.3,110.2 719.2,110.1 720.0,110.0 720.8,109.9 721.7,109.9 722.6,109.8 723.5,109.7 724.4,109.6 725.3,109.5 726.1,109.5 727.0,109.4 727.8,109.3 728.6,109.3 729.4,109.2 730.3,109.1 731.2,109.0 732.1,109.0 732.9,108.9 733.7,108.9 734.6,108.8 735.4,108.8 736.3,108.7 737.1,108.6 738.0,108.6 738.8,108.5 739.7,108.5 740.5,108.4 741.3,108.4 742.2,108.3 743.0,108.3 743.9,108.2 744.7,108.2 745.5,108.1 746.4,108.1 747.2,108.0 748.1,108.0 748.9,108.0 749.7,107.9 750.5,107.9 751.4,107.8 752.2,107.8 753.1,107.8 753.9,107.7 754.7,107.7 755.6,107.6 756.4,107.6 757.2,107.6 758.0,107.5 758.9,107.5 759.7,107.5 760.6,107.4 761.4,107.4 762.2,107.4 763.1,107.3 763.9,107.3 764.7,107.3 765.6,107.2 766.4,107.2 767.2,107.2 768.0,107.1 768.9,107.1 769.7,107.1 770.5,107.1 771.3,107.0 772.2,107.0 773.0,107.0 773.8,106.9 774.6,106.9 775.4,106.9 776.3,106.9 777.1,106.8 777.9,106.8 778.7,106.8 779.5,106.8 780.4,106.7 781.2,106.7 782.0,106.7 782.8,106.7 783.6,106.6 784.4,106.6 785.2,106.6 786.1,106.6 786.9,106.5 787.7,106.5 788.5,106.5 789.3,106.5 790.1,106.4 791.0,106.4 791.8,106.4 792.6,106.4 793.4,106.3 794.2,106.3 795.0,106.3 795.9,106.3 796.7,106.2 797.5,106.2 798.3,106.2 799.1,106.2 799.9,106.1" fill="none" stroke="#1abc9c" stroke-width="1.3" stroke-linejoin="round" clip-path="url(#pc33)"/>
  <defs><clipPath id="pc34"><rect x="34" y="16" width="358" height="180"/></clipPath></defs>
  <polyline points="37.5,52.0 70.1,52.0 89.2,52.0 102.8,52.0 113.3,52.0 121.9,52.0 129.1,52.0 135.4,52.0 141.0,52.0 145.9,52.0 150.4,52.0 154.5,52.0 158.3,52.0 161.8,52.0 165.0,52.0 168.1,52.0 170.9,52.0 173.6,52.0 176.2,52.0 178.6,52.0 180.9,52.0 183.1,52.0 185.2,52.0 187.2,51.9 189.1,51.9 190.9,51.9 192.7,51.9 194.4,51.9 196.1,51.9 197.7,51.9 199.2,51.9 200.7,51.8 202.2,51.8 203.6,51.8 204.9,51.8 206.3,51.7 207.6,51.7 208.8,51.7 210.0,51.7 211.2,51.6 212.4,51.6 213.5,51.5 214.6,51.5 215.7,51.4 216.8,51.4 217.8,51.3 218.8,51.3 219.8,51.2 220.8,51.2 221.7,51.1 222.7,51.0 223.6,51.0 224.5,50.9 225.4,50.8 226.2,50.8 227.1,50.7 227.9,50.6 228.7,50.5 229.5,50.4 231.1,50.2 232.6,50.0 234.1,49.8 235.5,49.6 236.9,49.4 238.2,49.2 239.6,48.9 240.8,48.7 242.1,48.5 243.3,48.2 244.5,48.0 245.6,47.8 246.7,47.5 247.8,47.3 248.9,47.0 249.9,46.8 251.0,46.6 252.0,46.4 252.9,46.1 253.9,45.9 254.8,45.7 255.8,45.5 256.7,45.3 257.6,45.2 258.4,45.0 259.3,44.8 260.1,44.6 261.0,44.5 261.8,44.3 263.0,44.1 264.1,43.9 265.3,43.7 266.4,43.6 267.5,43.4 268.5,43.2 269.6,43.1 270.6,43.0 271.6,42.9 272.5,42.7 273.5,42.6 274.4,42.5 275.3,42.5 276.2,42.4 277.1,42.3 278.0,42.2 278.8,42.2 279.6,42.1 280.5,42.0 281.3,42.0 282.3,41.9 283.4,41.9 284.4,41.8 285.3,41.8 286.3,41.7 287.3,41.7 288.2,41.7 289.1,41.6 290.0,41.6 290.9,41.6 291.7,41.5 292.6,41.5 293.4,41.5 294.2,41.5 295.0,41.5 296.0,41.4 297.0,41.4 297.9,41.4 298.8,41.4 299.7,41.4 300.6,41.4 301.5,41.3 302.4,41.3 303.2,41.3 304.0,41.3 304.9,41.3 305.8,41.3 306.7,41.3 307.7,41.3 308.6,41.3 309.5,41.3 310.3,41.3 311.2,41.3 312.0,41.3 312.8,41.3 313.7,41.3 314.6,41.2 315.5,41.2 316.4,41.2 317.3,41.2 318.1,41.2 319.0,41.2 319.8,41.2 320.6,41.2 321.4,41.2 322.3,41.2 323.2,41.2 324.1,41.2 324.9,41.2 325.7,41.2 326.6,41.2 327.4,41.2 328.3,41.2 329.1,41.2 330.0,41.2 330.8,41.2 331.7,41.2 332.5,41.2 333.3,41.2 334.2,41.2 335.0,41.2 335.9,41.2 336.7,41.2 337.5,41.2 338.4,41.2 339.2,41.2 340.1,41.2 340.9,41.2 341.7,41.2 342.5,41.2 343.4,41.2 344.2,41.2 345.1,41.2 345.9,41.2 346.7,41.2 347.6,41.2 348.4,41.2 349.2,41.2 350.0,41.2 350.9,41.2 351.7,41.2 352.6,41.2 353.4,41.2 354.2,41.2 355.1,41.2 355.9,41.2 356.7,41.2 357.6,41.2 358.4,41.2 359.2,41.2 360.0,41.2 360.9,41.2 361.7,41.2 362.5,41.2 363.3,41.2 364.2,41.2 365.0,41.2 365.8,41.2 366.6,41.2 367.4,41.2 368.3,41.2 369.1,41.2 369.9,41.2 370.7,41.2 371.5,41.2 372.4,41.2 373.2,41.2 374.0,41.2 374.8,41.2 375.6,41.2 376.4,41.2 377.2,41.2 378.1,41.2 378.9,41.2 379.7,41.2 380.5,41.2 381.3,41.2 382.1,41.2 383.0,41.2 383.8,41.2 384.6,41.2 385.4,41.2 386.2,41.2 387.0,41.2 387.9,41.2 388.7,41.2 389.5,41.2 390.3,41.2 391.1,41.2 391.9,41.2" fill="none" stroke="#e67e22" stroke-width="1.3" stroke-linejoin="round" clip-path="url(#pc34)"/>
  <defs><clipPath id="pc35"><rect x="442" y="16" width="358" height="180"/></clipPath></defs>
  <polyline points="445.5,105.8 478.1,105.7 497.2,105.5 510.8,105.4 521.3,105.2 529.9,105.1 537.1,104.9 543.4,104.8 549.0,104.6 553.9,104.5 558.4,104.3 562.5,104.2 566.3,104.0 569.8,103.8 573.0,103.7 576.1,103.5 578.9,103.3 581.6,103.2 584.2,103.0 586.6,102.8 588.9,102.7 591.1,102.5 593.2,102.3 595.2,102.1 597.1,102.0 598.9,101.8 600.7,101.6 602.4,101.4 604.1,101.2 605.7,101.0 607.2,100.8 608.7,100.7 610.2,100.5 611.6,100.3 612.9,100.1 614.3,99.9 615.6,99.7 616.8,99.5 618.0,99.3 619.2,99.1 620.4,98.9 621.5,98.6 622.6,98.4 623.7,98.2 624.8,98.0 625.8,97.8 626.8,97.6 627.8,97.4 628.8,97.2 629.7,97.0 630.7,96.8 631.6,96.6 632.5,96.4 633.4,96.2 634.2,96.0 635.1,95.8 635.9,95.7 636.7,95.5 637.5,95.3 639.1,94.9 640.6,94.6 642.1,94.3 643.5,94.0 644.9,93.7 646.2,93.5 647.6,93.2 648.8,93.0 650.1,92.9 651.3,92.7 652.5,92.6 653.6,92.5 654.7,92.4 655.8,92.3 656.9,92.2 657.9,92.2 659.0,92.2 660.0,92.2 660.9,92.2 661.9,92.3 662.8,92.3 663.8,92.4 664.7,92.5 665.6,92.6 666.4,92.7 667.3,92.8 668.1,92.9 669.0,93.0 669.8,93.2 671.0,93.4 672.1,93.6 673.3,93.8 674.4,94.0 675.5,94.2 676.5,94.5 677.6,94.7 678.6,94.9 679.6,95.1 680.5,95.4 681.5,95.6 682.4,95.8 683.3,96.0 684.2,96.2 685.1,96.4 686.0,96.6 686.8,96.8 687.6,97.0 688.5,97.1 689.3,97.3 690.3,97.5 691.4,97.7 692.4,97.9 693.3,98.1 694.3,98.3 695.3,98.5 696.2,98.7 697.1,98.8 698.0,99.0 698.9,99.2 699.7,99.3 700.6,99.4 701.4,99.6 702.2,99.7 703.0,99.8 704.0,100.0 705.0,100.1 705.9,100.3 706.8,100.4 707.7,100.5 708.6,100.7 709.5,100.8 710.4,100.9 711.2,101.0 712.0,101.1 712.9,101.2 713.8,101.3 714.7,101.4 715.7,101.5 716.6,101.6 717.5,101.7 718.3,101.8 719.2,101.9 720.0,102.0 720.8,102.1 721.7,102.1 722.6,102.2 723.5,102.3 724.4,102.4 725.3,102.5 726.1,102.5 727.0,102.6 727.8,102.7 728.6,102.7 729.4,102.8 730.3,102.9 731.2,103.0 732.1,103.0 732.9,103.1 733.7,103.1 734.6,103.2 735.4,103.2 736.3,103.3 737.1,103.4 738.0,103.4 738.8,103.5 739.7,103.5 740.5,103.6 741.3,103.6 742.2,103.7 743.0,103.7 743.9,103.8 744.7,103.8 745.5,103.9 746.4,103.9 747.2,104.0 748.1,104.0 748.9,104.0 749.7,104.1 750.5,104.1 751.4,104.2 752.2,104.2 753.1,104.2 753.9,104.3 754.7,104.3 755.6,104.4 756.4,104.4 757.2,104.4 758.0,104.5 758.9,104.5 759.7,104.5 760.6,104.6 761.4,104.6 762.2,104.6 763.1,104.7 763.9,104.7 764.7,104.7 765.6,104.8 766.4,104.8 767.2,104.8 768.0,104.9 768.9,104.9 769.7,104.9 770.5,104.9 771.3,105.0 772.2,105.0 773.0,105.0 773.8,105.1 774.6,105.1 775.4,105.1 776.3,105.1 777.1,105.2 777.9,105.2 778.7,105.2 779.5,105.2 780.4,105.3 781.2,105.3 782.0,105.3 782.8,105.3 783.6,105.4 784.4,105.4 785.2,105.4 786.1,105.4 786.9,105.5 787.7,105.5 788.5,105.5 789.3,105.5 790.1,105.6 791.0,105.6 791.8,105.6 792.6,105.6 793.4,105.7 794.2,105.7 795.0,105.7 795.9,105.7 796.7,105.8 797.5,105.8 798.3,105.8 799.1,105.8 799.9,105.9" fill="none" stroke="#e67e22" stroke-width="1.3" stroke-linejoin="round" clip-path="url(#pc35)"/>
  <defs><clipPath id="pc36"><rect x="34" y="16" width="358" height="180"/></clipPath></defs>
  <polyline points="37.5,52.0 70.1,52.0 89.2,52.0 102.8,52.0 113.3,52.0 121.9,52.0 129.1,52.0 135.4,52.0 141.0,52.0 145.9,52.0 150.4,52.0 154.5,52.0 158.3,52.0 161.8,52.0 165.0,52.0 168.1,52.0 170.9,52.0 173.6,52.0 176.2,52.0 178.6,52.0 180.9,52.0 183.1,52.0 185.2,52.0 187.2,52.0 189.1,52.0 190.9,52.0 192.7,52.0 194.4,52.0 196.1,52.0 197.7,52.0 199.2,52.0 200.7,52.0 202.2,52.0 203.6,52.0 204.9,52.0 206.3,52.0 207.6,52.0 208.8,52.0 210.0,52.0 211.2,52.0 212.4,52.0 213.5,52.0 214.6,52.0 215.7,52.0 216.8,52.0 217.8,52.0 218.8,52.0 219.8,52.0 220.8,52.0 221.7,52.0 222.7,52.0 223.6,52.0 224.5,52.0 225.4,52.0 226.2,52.0 227.1,52.0 227.9,52.0 228.7,52.0 229.5,52.0 231.1,52.0 232.6,52.0 234.1,52.0 235.5,52.0 236.9,52.0 238.2,52.0 239.6,52.0 240.8,52.0 242.1,52.0 243.3,52.0 244.5,52.0 245.6,52.0 246.7,52.0 247.8,52.0 248.9,52.0 249.9,52.0 251.0,52.0 252.0,52.0 252.9,52.0 253.9,52.0 254.8,52.0 255.8,52.0 256.7,52.0 257.6,52.0 258.4,52.0 259.3,52.0 260.1,52.0 261.0,52.0 261.8,52.0 263.0,52.0 264.1,52.0 265.3,52.0 266.4,52.0 267.5,52.0 268.5,52.0 269.6,52.0 270.6,52.0 271.6,52.0 272.5,52.0 273.5,52.0 274.4,52.0 275.3,52.0 276.2,52.0 277.1,52.0 278.0,52.0 278.8,52.0 279.6,52.0 280.5,52.0 281.3,52.0 282.3,52.0 283.4,52.0 284.4,52.0 285.3,52.0 286.3,52.0 287.3,52.0 288.2,52.0 289.1,52.0 290.0,52.0 290.9,52.0 291.7,52.0 292.6,52.0 293.4,52.0 294.2,52.0 295.0,52.0 296.0,52.0 297.0,52.0 297.9,52.0 298.8,52.0 299.7,52.0 300.6,52.0 301.5,52.0 302.4,52.0 303.2,52.0 304.0,52.0 304.9,52.0 305.8,52.0 306.7,52.0 307.7,52.0 308.6,52.0 309.5,52.0 310.3,52.0 311.2,52.0 312.0,52.0 312.8,52.0 313.7,52.0 314.6,52.0 315.5,52.0 316.4,52.0 317.3,52.0 318.1,52.0 319.0,52.0 319.8,52.0 320.6,52.0 321.4,52.0 322.3,52.0 323.2,52.0 324.1,52.0 324.9,52.0 325.7,52.0 326.6,52.0 327.4,52.0 328.3,52.0 329.1,52.0 330.0,52.0 330.8,52.0 331.7,52.0 332.5,52.0 333.3,52.0 334.2,52.0 335.0,52.0 335.9,52.0 336.7,52.0 337.5,52.0 338.4,52.0 339.2,52.0 340.1,52.0 340.9,52.0 341.7,52.0 342.5,52.0 343.4,52.0 344.2,52.0 345.1,52.0 345.9,52.0 346.7,52.0 347.6,52.0 348.4,52.0 349.2,52.0 350.0,52.0 350.9,52.0 351.7,52.0 352.6,52.0 353.4,52.0 354.2,52.0 355.1,52.0 355.9,52.0 356.7,52.0 357.6,52.0 358.4,52.0 359.2,52.0 360.0,52.0 360.9,52.0 361.7,52.0 362.5,52.0 363.3,52.0 364.2,52.0 365.0,52.0 365.8,52.0 366.6,52.0 367.4,52.0 368.3,52.0 369.1,52.0 369.9,52.0 370.7,52.0 371.5,52.0 372.4,52.0 373.2,52.0 374.0,52.0 374.8,52.0 375.6,52.0 376.4,52.0 377.2,52.0 378.1,52.0 378.9,52.0 379.7,52.0 380.5,52.0 381.3,52.0 382.1,52.0 383.0,52.0 383.8,52.0 384.6,52.0 385.4,52.0 386.2,52.0 387.0,52.0 387.9,52.0 388.7,52.0 389.5,52.0 390.3,52.0 391.1,52.0 391.9,52.0" fill="none" stroke="#34495e" stroke-width="1.3" stroke-linejoin="round" clip-path="url(#pc36)"/>
  <defs><clipPath id="pc37"><rect x="442" y="16" width="358" height="180"/></clipPath></defs>
  <polyline points="445.5,106.6 478.1,107.2 497.2,107.8 510.8,108.5 521.3,109.1 529.9,109.7 537.1,110.3 543.4,111.0 549.0,111.6 553.9,112.2 558.4,112.8 562.5,113.5 566.3,114.1 569.8,114.8 573.0,115.4 576.1,116.0 578.9,116.7 581.6,117.4 584.2,118.0 586.6,118.7 588.9,119.4 591.1,120.1 593.2,120.8 595.2,121.5 597.1,122.2 598.9,122.9 600.7,123.6 602.4,124.3 604.1,125.1 605.7,125.8 607.2,126.6 608.7,127.3 610.2,128.1 611.6,128.9 612.9,129.7 614.3,130.5 615.6,131.3 616.8,132.1 618.0,133.0 619.2,133.8 620.4,134.7 621.5,135.6 622.6,136.5 623.7,137.4 624.8,138.3 625.8,139.2 626.8,140.2 627.8,141.1 628.8,142.1 629.7,143.1 630.7,144.1 631.6,145.1 632.5,146.2 633.4,147.2 634.2,148.3 635.1,149.4 635.9,150.5 636.7,151.6 637.5,152.7 639.1,155.0 640.6,157.4 642.1,159.8 643.5,162.3 644.9,164.8 646.2,167.4 647.6,170.0 648.8,172.6 650.1,175.3 651.3,177.9 652.5,180.6 653.6,183.3 654.7,185.9 655.8,188.5 656.9,191.1 657.9,193.7 659.0,196.1 660.0,198.6 660.9,201.0 661.9,203.3 662.8,205.6 663.8,207.7 664.7,209.9 665.6,211.9 666.4,213.9 667.3,215.8 668.1,217.6 669.0,219.4 669.8,221.1 671.0,223.5 672.1,225.8 673.3,227.9 674.4,229.9 675.5,231.8 676.5,233.6 677.6,235.3 678.6,236.8 679.6,238.3 680.5,239.7 681.5,241.1 682.4,242.3 683.3,243.5 684.2,244.6 685.1,245.7 686.0,246.7 686.8,247.7 687.6,248.6 688.5,249.5 689.3,250.3 690.3,251.4 691.4,252.4 692.4,253.3 693.3,254.2 694.3,255.0 695.3,255.8 696.2,256.6 697.1,257.3 698.0,258.0 698.9,258.6 699.7,259.2 700.6,259.8 701.4,260.4 702.2,260.9 703.0,261.4 704.0,262.1 705.0,262.6 705.9,263.2 706.8,83.7 707.7,84.2 708.6,84.7 709.5,85.2 710.4,85.6 711.2,86.0 712.0,86.5 712.9,86.8 713.8,87.3 714.7,87.7 715.7,88.1 716.6,88.5 717.5,88.9 718.3,89.3 719.2,89.6 720.0,89.9 720.8,90.3 721.7,90.6 722.6,90.9 723.5,91.2 724.4,91.5 725.3,91.8 726.1,92.1 727.0,92.4 727.8,92.7 728.6,92.9 729.4,93.2 730.3,93.5 731.2,93.7 732.1,94.0 732.9,94.2 733.7,94.5 734.6,94.7 735.4,94.9 736.3,95.2 737.1,95.4 738.0,95.6 738.8,95.8 739.7,96.0 740.5,96.2 741.3,96.4 742.2,96.6 743.0,96.8 743.9,97.0 744.7,97.2 745.5,97.4 746.4,97.6 747.2,97.7 748.1,97.9 748.9,98.1 749.7,98.2 750.5,98.4 751.4,98.6 752.2,98.7 753.1,98.9 753.9,99.0 754.7,99.2 755.6,99.3 756.4,99.5 757.2,99.6 758.0,99.8 758.9,99.9 759.7,100.1 760.6,100.2 761.4,100.3 762.2,100.5 763.1,100.6 763.9,100.7 764.7,100.8 765.6,101.0 766.4,101.1 767.2,101.2 768.0,101.3 768.9,101.5 769.7,101.6 770.5,101.7 771.3,101.8 772.2,101.9 773.0,102.0 773.8,102.1 774.6,102.3 775.4,102.4 776.3,102.5 777.1,102.6 777.9,102.7 778.7,102.8 779.5,102.9 780.4,103.0 781.2,103.1 782.0,103.2 782.8,103.3 783.6,103.4 784.4,103.5 785.2,103.6 786.1,103.7 786.9,103.8 787.7,103.9 788.5,104.0 789.3,104.1 790.1,104.2 791.0,104.3 791.8,104.4 792.6,104.5 793.4,104.6 794.2,104.7 795.0,104.8 795.9,104.9 796.7,105.0 797.5,105.1 798.3,105.2 799.1,105.3 799.9,105.4" fill="none" stroke="#34495e" stroke-width="1.3" stroke-linejoin="round" clip-path="url(#pc37)"/>
  <rect x="48" y="84" width="92" height="106" fill="white" fill-opacity="0.85" rx="3"/>
  <line x1="54" y1="95" x2="66" y2="95" stroke="#4a90d9" stroke-width="2"/>
  <text x="70" y="98" font-size="8" fill="#6b7280">lowpass</text>
  <line x1="54" y1="107" x2="66" y2="107" stroke="#e74c3c" stroke-width="2"/>
  <text x="70" y="110" font-size="8" fill="#6b7280">highpass</text>
  <line x1="54" y1="119" x2="66" y2="119" stroke="#2ecc71" stroke-width="2"/>
  <text x="70" y="122" font-size="8" fill="#6b7280">bandpass</text>
  <line x1="54" y1="131" x2="66" y2="131" stroke="#f39c12" stroke-width="2"/>
  <text x="70" y="134" font-size="8" fill="#6b7280">notch</text>
  <line x1="54" y1="143" x2="66" y2="143" stroke="#9b59b6" stroke-width="2"/>
  <text x="70" y="146" font-size="8" fill="#6b7280">peaking</text>
  <line x1="54" y1="155" x2="66" y2="155" stroke="#1abc9c" stroke-width="2"/>
  <text x="70" y="158" font-size="8" fill="#6b7280">lowshelf</text>
  <line x1="54" y1="167" x2="66" y2="167" stroke="#e67e22" stroke-width="2"/>
  <text x="70" y="170" font-size="8" fill="#6b7280">highshelf</text>
  <line x1="54" y1="179" x2="66" y2="179" stroke="#34495e" stroke-width="2"/>
  <text x="70" y="182" font-size="8" fill="#6b7280">allpass</text>
</svg>
