<svg xmlns="http://www.w3.org/2000/svg" viewBox="0 0 820 378" style="font-family:system-ui,-apple-system,sans-serif">
  <text x="800" y="11" text-anchor="end" font-size="11" font-weight="600" fill="#6b7280">Biquad bandpass2, fc=1kHz</text>
  <line x1="34" y1="16" x2="34" y2="171" stroke="#d1d5db"/>
  <line x1="34" y1="47.0" x2="399" y2="47.0" stroke="#d1d5db"/>
  <text x="216.5" y="197" text-anchor="middle" font-size="9" fill="#6b7280">Hz</text>
  <text x="12" y="93.5" text-anchor="middle" font-size="9" fill="#6b7280" transform="rotate(-90 12 93.5)">dB</text>
  <line x1="67.3" y1="16" x2="67.3" y2="171" stroke="#e5e7eb" stroke-width="0.5"/>
  <line x1="86.8" y1="16" x2="86.8" y2="171" stroke="#e5e7eb" stroke-width="0.5"/>
  <line x1="100.6" y1="16" x2="100.6" y2="171" stroke="#e5e7eb" stroke-width="0.5"/>
  <line x1="111.3" y1="16" x2="111.3" y2="171" stroke="#e5e7eb" stroke-width="0.5"/>
  <line x1="120.0" y1="16" x2="120.0" y2="171" stroke="#e5e7eb" stroke-width="0.5"/>
  <line x1="127.4" y1="16" x2="127.4" y2="171" stroke="#e5e7eb" stroke-width="0.5"/>
  <line x1="133.9" y1="16" x2="133.9" y2="171" stroke="#e5e7eb" stroke-width="0.5"/>
  <line x1="139.5" y1="16" x2="139.5" y2="171" stroke="#e5e7eb" stroke-width="0.5"/>
  <line x1="177.9" y1="16" x2="177.9" y2="171" stroke="#e5e7eb" stroke-width="0.5"/>
  <line x1="197.3" y1="16" x2="197.3" y2="171" stroke="#e5e7eb" stroke-width="0.5"/>
  <line x1="211.1" y1="16" x2="211.1" y2="171" stroke="#e5e7eb" stroke-width="0.5"/>
  <line x1="221.9" y1="16" x2="221.9" y2="171" stroke="#e5e7eb" stroke-width="0.5"/>
  <line x1="230.6" y1="16" x2="230.6" y2="171" stroke="#e5e7eb" stroke-width="0.5"/>
  <line x1="238.0" y1="16" x2="238.0" y2="171" stroke="#e5e7eb" stroke-width="0.5"/>
  <line x1="244.4" y1="16" x2="244.4" y2="171" stroke="#e5e7eb" stroke-width="0.5"/>
  <line x1="250.1" y1="16" x2="250.1" y2="171" stroke="#e5e7eb" stroke-width="0.5"/>
  <line x1="288.4" y1="16" x2="288.4" y2="171" stroke="#e5e7eb" stroke-width="0.5"/>
  <line x1="307.9" y1="16" x2="307.9" y2="171" stroke="#e5e7eb" stroke-width="0.5"/>
  <line x1="321.7" y1="16" x2="321.7" y2="171" stroke="#e5e7eb" stroke-width="0.5"/>
  <line x1="332.4" y1="16" x2="332.4" y2="171" stroke="#e5e7eb" stroke-width="0.5"/>
  <line x1="341.2" y1="16" x2="341.2" y2="171" stroke="#e5e7eb" stroke-width="0.5"/>
  <line x1="348.6" y1="16" x2="348.6" y2="171" stroke="#e5e7eb" stroke-width="0.5"/>
  <line x1="355.0" y1="16" x2="355.0" y2="171" stroke="#e5e7eb" stroke-width="0.5"/>
  <line x1="360.7" y1="16" x2="360.7" y2="171" stroke="#e5e7eb" stroke-width="0.5"/>
  <line x1="399.0" y1="16" x2="399.0" y2="171" stroke="#e5e7eb" stroke-width="0.5"/>
  <line x1="144.6" y1="16" x2="144.6" y2="171" stroke="#e5e7eb" stroke-width="0.5"/>
  <text x="144.6" y="183" text-anchor="middle" font-size="8" fill="#6b7280">100</text>
  <line x1="255.1" y1="16" x2="255.1" y2="171" stroke="#e5e7eb" stroke-width="0.5"/>
  <text x="255.1" y="183" text-anchor="middle" font-size="8" fill="#6b7280">1k</text>
  <line x1="365.7" y1="16" x2="365.7" y2="171" stroke="#e5e7eb" stroke-width="0.5"/>
  <text x="365.7" y="183" text-anchor="middle" font-size="8" fill="#6b7280">10k</text>
  <line x1="34" y1="31.5" x2="399" y2="31.5" stroke="#e5e7eb" stroke-width="0.5"/>
  <line x1="34" y1="62.5" x2="399" y2="62.5" stroke="#e5e7eb" stroke-width="0.5"/>
  <line x1="34" y1="16.0" x2="399" y2="16.0" stroke="#e5e7eb" stroke-width="0.5"/>
  <text x="30" y="19.0" text-anchor="end" font-size="8" fill="#6b7280">+20</text>
  <text x="30" y="50.0" text-anchor="end" font-size="8" fill="#6b7280">0</text>
  <line x1="34" y1="78.0" x2="399" y2="78.0" stroke="#e5e7eb" stroke-width="0.5"/>
  <text x="30" y="81.0" text-anchor="end" font-size="8" fill="#6b7280">-20</text>
  <line x1="34" y1="109.0" x2="399" y2="109.0" stroke="#e5e7eb" stroke-width="0.5"/>
  <text x="30" y="112.0" text-anchor="end" font-size="8" fill="#6b7280">-40</text>
  <line x1="34" y1="140.0" x2="399" y2="140.0" stroke="#e5e7eb" stroke-width="0.5"/>
  <text x="30" y="143.0" text-anchor="end" font-size="8" fill="#6b7280">-60</text>
  <line x1="34" y1="171.0" x2="399" y2="171.0" stroke="#e5e7eb" stroke-width="0.5"/>
  <text x="30" y="174.0" text-anchor="end" font-size="8" fill="#6b7280">-80</text>
  <line x1="255.1" y1="16" x2="255.1" y2="171" stroke="#d1d5db" stroke-width="1" stroke-dasharray="4 3"/>
  <defs><linearGradient id="g149" x1="0" y1="16" x2="0" y2="171" gradientUnits="userSpaceOnUse">
    <stop offset="0%" stop-color="#4a90d9" stop-opacity="0.15"/>
    <stop offset="100%" stop-color="#4a90d9" stop-opacity="0.02"/>
  </linearGradient></defs>
  <path d="M37.5,108.0 37.5,108.0 70.8,98.7 90.3,93.2 104.1,89.4 114.8,86.3 123.6,83.9 131.0,81.8 137.4,80.0 143.1,78.4 148.1,77.0 152.7,75.7 156.9,74.5 160.7,73.4 164.3,72.3 167.6,71.4 170.7,70.5 173.6,69.7 176.3,68.9 178.9,68.1 181.4,67.4 183.7,66.7 186.0,66.0 188.1,65.4 190.2,64.8 192.1,64.2 194.0,63.7 195.8,63.1 197.6,62.6 199.2,62.1 200.9,61.6 202.4,61.1 204.0,60.6 205.5,60.2 206.9,59.7 208.3,59.3 209.6,58.9 210.9,58.4 212.2,58.0 213.5,57.6 214.7,57.3 215.9,56.9 217.0,56.5 218.2,56.1 219.3,55.8 220.3,55.4 221.4,55.1 222.4,54.8 223.4,54.4 224.4,54.1 225.4,53.8 226.4,53.5 227.3,53.2 228.2,52.9 229.1,52.6 230.0,52.3 230.8,52.1 231.7,51.8 232.5,51.5 233.4,51.3 234.2,51.0 235.7,50.5 237.3,50.1 238.7,49.7 240.2,49.3 241.6,48.9 242.9,48.6 244.2,48.3 245.5,48.0 246.8,47.8 248.0,47.6 249.2,47.4 250.3,47.3 251.4,47.2 252.6,47.1 253.6,47.0 254.7,47.0 255.7,47.0 256.7,47.0 257.7,47.1 258.7,47.1 259.6,47.2 260.6,47.3 261.5,47.5 262.4,47.6 263.3,47.7 264.1,47.9 265.0,48.1 265.8,48.2 266.6,48.4 267.4,48.6 268.6,48.9 269.8,49.2 270.9,49.5 272.0,49.8 273.1,50.1 274.2,50.4 275.2,50.8 276.2,51.1 277.2,51.4 278.2,51.7 279.1,52.0 280.0,52.3 281.0,52.6 281.9,52.9 282.7,53.2 283.6,53.4 284.5,53.7 285.3,54.0 286.1,54.3 286.9,54.5 288.0,54.9 289.0,55.2 290.0,55.5 291.0,55.9 292.0,56.2 292.9,56.5 293.9,56.8 294.8,57.1 295.7,57.4 296.6,57.7 297.4,57.9 298.3,58.2 299.1,58.5 299.9,58.8 300.7,59.0 301.7,59.3 302.7,59.6 303.6,59.9 304.6,60.2 305.5,60.5 306.4,60.8 307.3,61.1 308.1,61.4 309.0,61.6 309.8,61.9 310.6,62.2 311.4,62.4 312.4,62.7 313.3,63.0 314.2,63.3 315.1,63.6 316.0,63.8 316.9,64.1 317.7,64.4 318.6,64.6 319.4,64.9 320.2,65.2 321.1,65.4 322.0,65.7 322.9,66.0 323.8,66.3 324.7,66.5 325.5,66.8 326.3,67.1 327.1,67.3 327.9,67.6 328.8,67.9 329.7,68.1 330.6,68.4 331.4,68.7 332.3,68.9 333.1,69.2 333.9,69.5 334.8,69.7 335.7,70.0 336.5,70.3 337.4,70.6 338.2,70.8 339.0,71.1 339.8,71.4 340.7,71.6 341.6,71.9 342.4,72.2 343.3,72.5 344.1,72.7 344.9,73.0 345.8,73.3 346.6,73.6 347.5,73.9 348.3,74.1 349.1,74.4 350.0,74.7 350.8,75.0 351.7,75.3 352.5,75.6 353.3,75.9 354.1,76.2 355.0,76.5 355.8,76.8 356.6,77.1 357.5,77.4 358.3,77.7 359.1,78.0 360.0,78.3 360.8,78.6 361.6,78.9 362.5,79.2 363.3,79.6 364.1,79.9 364.9,80.2 365.8,80.5 366.6,80.9 367.4,81.2 368.2,81.6 369.1,81.9 369.9,82.3 370.7,82.7 371.6,83.0 372.4,83.4 373.2,83.8 374.0,84.2 374.8,84.6 375.6,85.0 376.5,85.4 377.3,85.8 378.1,86.2 378.9,86.7 379.7,87.2 380.5,87.6 381.4,88.1 382.2,88.6 383.0,89.1 383.8,89.7 384.6,90.2 385.5,90.8 386.3,91.4 387.1,92.0 387.9,92.7 388.7,93.4 389.5,94.1 390.3,94.8 391.2,95.7 392.0,96.5 392.8,97.5 393.6,98.5 394.4,99.5 395.2,100.7 396.0,102.0 396.8,103.4 397.6,105.1 398.5,106.9 L398.5,171.0 L37.5,171.0 Z" fill="url(#g149)"/>
  <defs><clipPath id="pc150"><rect x="34" y="16" width="365" height="155"/></clipPath></defs>
  <polyline points="37.5,108.0 70.8,98.7 90.3,93.2 104.1,89.4 114.8,86.3 123.6,83.9 131.0,81.8 137.4,80.0 143.1,78.4 148.1,77.0 152.7,75.7 156.9,74.5 160.7,73.4 164.3,72.3 167.6,71.4 170.7,70.5 173.6,69.7 176.3,68.9 178.9,68.1 181.4,67.4 183.7,66.7 186.0,66.0 188.1,65.4 190.2,64.8 192.1,64.2 194.0,63.7 195.8,63.1 197.6,62.6 199.2,62.1 200.9,61.6 202.4,61.1 204.0,60.6 205.5,60.2 206.9,59.7 208.3,59.3 209.6,58.9 210.9,58.4 212.2,58.0 213.5,57.6 214.7,57.3 215.9,56.9 217.0,56.5 218.2,56.1 219.3,55.8 220.3,55.4 221.4,55.1 222.4,54.8 223.4,54.4 224.4,54.1 225.4,53.8 226.4,53.5 227.3,53.2 228.2,52.9 229.1,52.6 230.0,52.3 230.8,52.1 231.7,51.8 232.5,51.5 233.4,51.3 234.2,51.0 235.7,50.5 237.3,50.1 238.7,49.7 240.2,49.3 241.6,48.9 242.9,48.6 244.2,48.3 245.5,48.0 246.8,47.8 248.0,47.6 249.2,47.4 250.3,47.3 251.4,47.2 252.6,47.1 253.6,47.0 254.7,47.0 255.7,47.0 256.7,47.0 257.7,47.1 258.7,47.1 259.6,47.2 260.6,47.3 261.5,47.5 262.4,47.6 263.3,47.7 264.1,47.9 265.0,48.1 265.8,48.2 266.6,48.4 267.4,48.6 268.6,48.9 269.8,49.2 270.9,49.5 272.0,49.8 273.1,50.1 274.2,50.4 275.2,50.8 276.2,51.1 277.2,51.4 278.2,51.7 279.1,52.0 280.0,52.3 281.0,52.6 281.9,52.9 282.7,53.2 283.6,53.4 284.5,53.7 285.3,54.0 286.1,54.3 286.9,54.5 288.0,54.9 289.0,55.2 290.0,55.5 291.0,55.9 292.0,56.2 292.9,56.5 293.9,56.8 294.8,57.1 295.7,57.4 296.6,57.7 297.4,57.9 298.3,58.2 299.1,58.5 299.9,58.8 300.7,59.0 301.7,59.3 302.7,59.6 303.6,59.9 304.6,60.2 305.5,60.5 306.4,60.8 307.3,61.1 308.1,61.4 309.0,61.6 309.8,61.9 310.6,62.2 311.4,62.4 312.4,62.7 313.3,63.0 314.2,63.3 315.1,63.6 316.0,63.8 316.9,64.1 317.7,64.4 318.6,64.6 319.4,64.9 320.2,65.2 321.1,65.4 322.0,65.7 322.9,66.0 323.8,66.3 324.7,66.5 325.5,66.8 326.3,67.1 327.1,67.3 327.9,67.6 328.8,67.9 329.7,68.1 330.6,68.4 331.4,68.7 332.3,68.9 333.1,69.2 333.9,69.5 334.8,69.7 335.7,70.0 336.5,70.3 337.4,70.6 338.2,70.8 339.0,71.1 339.8,71.4 340.7,71.6 341.6,71.9 342.4,72.2 343.3,72.5 344.1,72.7 344.9,73.0 345.8,73.3 346.6,73.6 347.5,73.9 348.3,74.1 349.1,74.4 350.0,74.7 350.8,75.0 351.7,75.3 352.5,75.6 353.3,75.9 354.1,76.2 355.0,76.5 355.8,76.8 356.6,77.1 357.5,77.4 358.3,77.7 359.1,78.0 360.0,78.3 360.8,78.6 361.6,78.9 362.5,79.2 363.3,79.6 364.1,79.9 364.9,80.2 365.8,80.5 366.6,80.9 367.4,81.2 368.2,81.6 369.1,81.9 369.9,82.3 370.7,82.7 371.6,83.0 372.4,83.4 373.2,83.8 374.0,84.2 374.8,84.6 375.6,85.0 376.5,85.4 377.3,85.8 378.1,86.2 378.9,86.7 379.7,87.2 380.5,87.6 381.4,88.1 382.2,88.6 383.0,89.1 383.8,89.7 384.6,90.2 385.5,90.8 386.3,91.4 387.1,92.0 387.9,92.7 388.7,93.4 389.5,94.1 390.3,94.8 391.2,95.7 392.0,96.5 392.8,97.5 393.6,98.5 394.4,99.5 395.2,100.7 396.0,102.0 396.8,103.4 397.6,105.1 398.5,106.9" fill="none" stroke="#4a90d9" stroke-width="1.5" stroke-linejoin="round" clip-path="url(#pc150)"/>
  <line x1="435" y1="16" x2="435" y2="171" stroke="#d1d5db"/>
  <line x1="435" y1="93.5" x2="800" y2="93.5" stroke="#d1d5db"/>
  <text x="617.5" y="197" text-anchor="middle" font-size="9" fill="#6b7280">Hz</text>
  <text x="413" y="93.5" text-anchor="middle" font-size="9" fill="#6b7280" transform="rotate(-90 413 93.5)">Phase (deg)</text>
  <line x1="468.3" y1="16" x2="468.3" y2="171" stroke="#e5e7eb" stroke-width="0.5"/>
  <line x1="487.8" y1="16" x2="487.8" y2="171" stroke="#e5e7eb" stroke-width="0.5"/>
  <line x1="501.6" y1="16" x2="501.6" y2="171" stroke="#e5e7eb" stroke-width="0.5"/>
  <line x1="512.3" y1="16" x2="512.3" y2="171" stroke="#e5e7eb" stroke-width="0.5"/>
  <line x1="521.0" y1="16" x2="521.0" y2="171" stroke="#e5e7eb" stroke-width="0.5"/>
  <line x1="528.4" y1="16" x2="528.4" y2="171" stroke="#e5e7eb" stroke-width="0.5"/>
  <line x1="534.9" y1="16" x2="534.9" y2="171" stroke="#e5e7eb" stroke-width="0.5"/>
  <line x1="540.5" y1="16" x2="540.5" y2="171" stroke="#e5e7eb" stroke-width="0.5"/>
  <line x1="578.9" y1="16" x2="578.9" y2="171" stroke="#e5e7eb" stroke-width="0.5"/>
  <line x1="598.3" y1="16" x2="598.3" y2="171" stroke="#e5e7eb" stroke-width="0.5"/>
  <line x1="612.1" y1="16" x2="612.1" y2="171" stroke="#e5e7eb" stroke-width="0.5"/>
  <line x1="622.9" y1="16" x2="622.9" y2="171" stroke="#e5e7eb" stroke-width="0.5"/>
  <line x1="631.6" y1="16" x2="631.6" y2="171" stroke="#e5e7eb" stroke-width="0.5"/>
  <line x1="639.0" y1="16" x2="639.0" y2="171" stroke="#e5e7eb" stroke-width="0.5"/>
  <line x1="645.4" y1="16" x2="645.4" y2="171" stroke="#e5e7eb" stroke-width="0.5"/>
  <line x1="651.1" y1="16" x2="651.1" y2="171" stroke="#e5e7eb" stroke-width="0.5"/>
  <line x1="689.4" y1="16" x2="689.4" y2="171" stroke="#e5e7eb" stroke-width="0.5"/>
  <line x1="708.9" y1="16" x2="708.9" y2="171" stroke="#e5e7eb" stroke-width="0.5"/>
  <line x1="722.7" y1="16" x2="722.7" y2="171" stroke="#e5e7eb" stroke-width="0.5"/>
  <line x1="733.4" y1="16" x2="733.4" y2="171" stroke="#e5e7eb" stroke-width="0.5"/>
  <line x1="742.2" y1="16" x2="742.2" y2="171" stroke="#e5e7eb" stroke-width="0.5"/>
  <line x1="749.6" y1="16" x2="749.6" y2="171" stroke="#e5e7eb" stroke-width="0.5"/>
  <line x1="756.0" y1="16" x2="756.0" y2="171" stroke="#e5e7eb" stroke-width="0.5"/>
  <line x1="761.7" y1="16" x2="761.7" y2="171" stroke="#e5e7eb" stroke-width="0.5"/>
  <line x1="800.0" y1="16" x2="800.0" y2="171" stroke="#e5e7eb" stroke-width="0.5"/>
  <line x1="545.6" y1="16" x2="545.6" y2="171" stroke="#e5e7eb" stroke-width="0.5"/>
  <text x="545.6" y="183" text-anchor="middle" font-size="8" fill="#6b7280">100</text>
  <line x1="656.1" y1="16" x2="656.1" y2="171" stroke="#e5e7eb" stroke-width="0.5"/>
  <text x="656.1" y="183" text-anchor="middle" font-size="8" fill="#6b7280">1k</text>
  <line x1="766.7" y1="16" x2="766.7" y2="171" stroke="#e5e7eb" stroke-width="0.5"/>
  <text x="766.7" y="183" text-anchor="middle" font-size="8" fill="#6b7280">10k</text>
  <line x1="435" y1="58.6" x2="800" y2="58.6" stroke="#e5e7eb" stroke-width="0.5"/>
  <line x1="435" y1="128.4" x2="800" y2="128.4" stroke="#e5e7eb" stroke-width="0.5"/>
  <line x1="435" y1="23.8" x2="800" y2="23.8" stroke="#e5e7eb" stroke-width="0.5"/>
  <text x="431" y="26.8" text-anchor="end" font-size="8" fill="#6b7280">180</text>
  <text x="431" y="96.5" text-anchor="end" font-size="8" fill="#6b7280">0</text>
  <line x1="435" y1="163.3" x2="800" y2="163.3" stroke="#e5e7eb" stroke-width="0.5"/>
  <text x="431" y="166.3" text-anchor="end" font-size="8" fill="#6b7280">-180</text>
  <line x1="656.1" y1="16" x2="656.1" y2="171" stroke="#d1d5db" stroke-width="1" stroke-dasharray="4 3"/>
  <defs><linearGradient id="g151" x1="0" y1="16" x2="0" y2="93.5" gradientUnits="userSpaceOnUse">
    <stop offset="0%" stop-color="#e74c3c" stop-opacity="0.15"/>
    <stop offset="100%" stop-color="#e74c3c" stop-opacity="0.02"/>
  </linearGradient></defs>
  <defs><linearGradient id="g152" x1="0" y1="171" x2="0" y2="93.5" gradientUnits="userSpaceOnUse">
    <stop offset="0%" stop-color="#e74c3c" stop-opacity="0.15"/>
    <stop offset="100%" stop-color="#e74c3c" stop-opacity="0.02"/>
  </linearGradient></defs>
  <defs><clipPath id="c153"><rect x="435" y="16" width="365" height="77.5"/></clipPath></defs>
  <defs><clipPath id="c154"><rect x="435" y="93.5" width="365" height="77.5"/></clipPath></defs>
  <path d="M438.5,58.9 438.5,58.9 471.8,59.1 491.3,59.3 505.1,59.6 515.8,59.8 524.6,60.1 532.0,60.3 538.4,60.5 544.1,60.8 549.1,61.0 553.7,61.3 557.9,61.5 561.7,61.8 565.3,62.0 568.6,62.3 571.7,62.5 574.6,62.8 577.3,63.0 579.9,63.3 582.4,63.5 584.7,63.8 587.0,64.1 589.1,64.3 591.2,64.6 593.1,64.9 595.0,65.2 596.8,65.4 598.6,65.7 600.2,66.0 601.9,66.3 603.4,66.6 605.0,66.9 606.5,67.2 607.9,67.5 609.3,67.8 610.6,68.1 611.9,68.4 613.2,68.7 614.5,69.1 615.7,69.4 616.9,69.7 618.0,70.1 619.2,70.4 620.3,70.8 621.3,71.1 622.4,71.5 623.4,71.9 624.4,72.2 625.4,72.6 626.4,73.0 627.4,73.4 628.3,73.8 629.2,74.2 630.1,74.6 631.0,75.0 631.8,75.4 632.7,75.9 633.5,76.3 634.4,76.7 635.2,77.2 636.7,78.1 638.3,79.0 639.7,80.0 641.2,80.9 642.6,81.9 643.9,82.9 645.2,83.9 646.5,85.0 647.8,86.0 649.0,87.0 650.2,88.0 651.3,89.1 652.4,90.1 653.6,91.1 654.6,92.1 655.7,93.1 656.7,94.0 657.7,95.0 658.7,95.9 659.7,96.8 660.6,97.6 661.6,98.5 662.5,99.3 663.4,100.1 664.3,100.8 665.1,101.5 666.0,102.2 666.8,102.9 667.6,103.5 668.4,104.2 669.6,105.0 670.8,105.9 671.9,106.6 673.0,107.4 674.1,108.1 675.2,108.7 676.2,109.3 677.2,109.9 678.2,110.4 679.2,111.0 680.1,111.4 681.0,111.9 682.0,112.3 682.9,112.8 683.7,113.1 684.6,113.5 685.5,113.9 686.3,114.2 687.1,114.5 687.9,114.9 689.0,115.2 690.0,115.6 691.0,116.0 692.0,116.3 693.0,116.6 693.9,116.9 694.9,117.2 695.8,117.4 696.7,117.7 697.6,117.9 698.4,118.2 699.3,118.4 700.1,118.6 700.9,118.8 701.7,119.0 702.7,119.2 703.7,119.5 704.6,119.7 705.6,119.9 706.5,120.1 707.4,120.2 708.3,120.4 709.1,120.6 710.0,120.7 710.8,120.9 711.6,121.0 712.4,121.2 713.4,121.3 714.3,121.5 715.2,121.7 716.1,121.8 717.0,121.9 717.9,122.1 718.7,122.2 719.6,122.3 720.4,122.4 721.2,122.5 722.1,122.7 723.0,122.8 723.9,122.9 724.8,123.0 725.7,123.1 726.5,123.2 727.3,123.3 728.1,123.4 728.9,123.5 729.8,123.6 730.7,123.7 731.6,123.8 732.4,123.9 733.3,124.0 734.1,124.1 734.9,124.2 735.8,124.3 736.7,124.3 737.5,124.4 738.4,124.5 739.2,124.6 740.0,124.7 740.8,124.7 741.7,124.8 742.6,124.9 743.4,124.9 744.3,125.0 745.1,125.1 745.9,125.1 746.8,125.2 747.6,125.3 748.5,125.3 749.3,125.4 750.1,125.5 751.0,125.5 751.8,125.6 752.7,125.7 753.5,125.7 754.3,125.8 755.1,125.8 756.0,125.9 756.8,125.9 757.6,126.0 758.5,126.0 759.3,126.1 760.1,126.1 761.0,126.2 761.8,126.2 762.6,126.3 763.5,126.3 764.3,126.4 765.1,126.4 765.9,126.5 766.8,126.5 767.6,126.6 768.4,126.6 769.2,126.7 770.1,126.7 770.9,126.8 771.7,126.8 772.6,126.8 773.4,126.9 774.2,126.9 775.0,127.0 775.8,127.0 776.6,127.1 777.5,127.1 778.3,127.1 779.1,127.2 779.9,127.2 780.7,127.2 781.5,127.3 782.4,127.3 783.2,127.4 784.0,127.4 784.8,127.4 785.6,127.5 786.5,127.5 787.3,127.6 788.1,127.6 788.9,127.6 789.7,127.7 790.5,127.7 791.3,127.7 792.2,127.8 793.0,127.8 793.8,127.9 794.6,127.9 795.4,127.9 796.2,128.0 797.0,128.0 797.8,128.0 798.6,128.1 799.5,128.1 L799.5,93.5 L438.5,93.5 Z" fill="url(#g151)" clip-path="url(#c153)"/>
  <path d="M438.5,58.9 438.5,58.9 471.8,59.1 491.3,59.3 505.1,59.6 515.8,59.8 524.6,60.1 532.0,60.3 538.4,60.5 544.1,60.8 549.1,61.0 553.7,61.3 557.9,61.5 561.7,61.8 565.3,62.0 568.6,62.3 571.7,62.5 574.6,62.8 577.3,63.0 579.9,63.3 582.4,63.5 584.7,63.8 587.0,64.1 589.1,64.3 591.2,64.6 593.1,64.9 595.0,65.2 596.8,65.4 598.6,65.7 600.2,66.0 601.9,66.3 603.4,66.6 605.0,66.9 606.5,67.2 607.9,67.5 609.3,67.8 610.6,68.1 611.9,68.4 613.2,68.7 614.5,69.1 615.7,69.4 616.9,69.7 618.0,70.1 619.2,70.4 620.3,70.8 621.3,71.1 622.4,71.5 623.4,71.9 624.4,72.2 625.4,72.6 626.4,73.0 627.4,73.4 628.3,73.8 629.2,74.2 630.1,74.6 631.0,75.0 631.8,75.4 632.7,75.9 633.5,76.3 634.4,76.7 635.2,77.2 636.7,78.1 638.3,79.0 639.7,80.0 641.2,80.9 642.6,81.9 643.9,82.9 645.2,83.9 646.5,85.0 647.8,86.0 649.0,87.0 650.2,88.0 651.3,89.1 652.4,90.1 653.6,91.1 654.6,92.1 655.7,93.1 656.7,94.0 657.7,95.0 658.7,95.9 659.7,96.8 660.6,97.6 661.6,98.5 662.5,99.3 663.4,100.1 664.3,100.8 665.1,101.5 666.0,102.2 666.8,102.9 667.6,103.5 668.4,104.2 669.6,105.0 670.8,105.9 671.9,106.6 673.0,107.4 674.1,108.1 675.2,108.7 676.2,109.3 677.2,109.9 678.2,110.4 679.2,111.0 680.1,111.4 681.0,111.9 682.0,112.3 682.9,112.8 683.7,113.1 684.6,113.5 685.5,113.9 686.3,114.2 687.1,114.5 687.9,114.9 689.0,115.2 690.0,115.6 691.0,116.0 692.0,116.3 693.0,116.6 693.9,116.9 694.9,117.2 695.8,117.4 696.7,117.7 697.6,117.9 698.4,118.2 699.3,118.4 700.1,118.6 700.9,118.8 701.7,119.0 702.7,119.2 703.7,119.5 704.6,119.7 705.6,119.9 706.5,120.1 707.4,120.2 708.3,120.4 709.1,120.6 710.0,120.7 710.8,120.9 711.6,121.0 712.4,121.2 713.4,121.3 714.3,121.5 715.2,121.7 716.1,121.8 717.0,121.9 717.9,122.1 718.7,122.2 719.6,122.3 720.4,122.4 721.2,122.5 722.1,122.7 723.0,122.8 723.9,122.9 724.8,123.0 725.7,123.1 726.5,123.2 727.3,123.3 728.1,123.4 728.9,123.5 729.8,123.6 730.7,123.7 731.6,123.8 732.4,123.9 733.3,124.0 734.1,124.1 734.9,124.2 735.8,124.3 736.7,124.3 737.5,124.4 738.4,124.5 739.2,124.6 740.0,124.7 740.8,124.7 741.7,124.8 742.6,124.9 743.4,124.9 744.3,125.0 745.1,125.1 745.9,125.1 746.8,125.2 747.6,125.3 748.5,125.3 749.3,125.4 750.1,125.5 751.0,125.5 751.8,125.6 752.7,125.7 753.5,125.7 754.3,125.8 755.1,125.8 756.0,125.9 756.8,125.9 757.6,126.0 758.5,126.0 759.3,126.1 760.1,126.1 761.0,126.2 761.8,126.2 762.6,126.3 763.5,126.3 764.3,126.4 765.1,126.4 765.9,126.5 766.8,126.5 767.6,126.6 768.4,126.6 769.2,126.7 770.1,126.7 770.9,126.8 771.7,126.8 772.6,126.8 773.4,126.9 774.2,126.9 775.0,127.0 775.8,127.0 776.6,127.1 777.5,127.1 778.3,127.1 779.1,127.2 779.9,127.2 780.7,127.2 781.5,127.3 782.4,127.3 783.2,127.4 784.0,127.4 784.8,127.4 785.6,127.5 786.5,127.5 787.3,127.6 788.1,127.6 788.9,127.6 789.7,127.7 790.5,127.7 791.3,127.7 792.2,127.8 793.0,127.8 793.8,127.9 794.6,127.9 795.4,127.9 796.2,128.0 797.0,128.0 797.8,128.0 798.6,128.1 799.5,128.1 L799.5,93.5 L438.5,93.5 Z" fill="url(#g152)" clip-path="url(#c154)"/>
  <defs><clipPath id="pc155"><rect x="435" y="16" width="365" height="155"/></clipPath></defs>
  <polyline points="438.5,58.9 471.8,59.1 491.3,59.3 505.1,59.6 515.8,59.8 524.6,60.1 532.0,60.3 538.4,60.5 544.1,60.8 549.1,61.0 553.7,61.3 557.9,61.5 561.7,61.8 565.3,62.0 568.6,62.3 571.7,62.5 574.6,62.8 577.3,63.0 579.9,63.3 582.4,63.5 584.7,63.8 587.0,64.1 589.1,64.3 591.2,64.6 593.1,64.9 595.0,65.2 596.8,65.4 598.6,65.7 600.2,66.0 601.9,66.3 603.4,66.6 605.0,66.9 606.5,67.2 607.9,67.5 609.3,67.8 610.6,68.1 611.9,68.4 613.2,68.7 614.5,69.1 615.7,69.4 616.9,69.7 618.0,70.1 619.2,70.4 620.3,70.8 621.3,71.1 622.4,71.5 623.4,71.9 624.4,72.2 625.4,72.6 626.4,73.0 627.4,73.4 628.3,73.8 629.2,74.2 630.1,74.6 631.0,75.0 631.8,75.4 632.7,75.9 633.5,76.3 634.4,76.7 635.2,77.2 636.7,78.1 638.3,79.0 639.7,80.0 641.2,80.9 642.6,81.9 643.9,82.9 645.2,83.9 646.5,85.0 647.8,86.0 649.0,87.0 650.2,88.0 651.3,89.1 652.4,90.1 653.6,91.1 654.6,92.1 655.7,93.1 656.7,94.0 657.7,95.0 658.7,95.9 659.7,96.8 660.6,97.6 661.6,98.5 662.5,99.3 663.4,100.1 664.3,100.8 665.1,101.5 666.0,102.2 666.8,102.9 667.6,103.5 668.4,104.2 669.6,105.0 670.8,105.9 671.9,106.6 673.0,107.4 674.1,108.1 675.2,108.7 676.2,109.3 677.2,109.9 678.2,110.4 679.2,111.0 680.1,111.4 681.0,111.9 682.0,112.3 682.9,112.8 683.7,113.1 684.6,113.5 685.5,113.9 686.3,114.2 687.1,114.5 687.9,114.9 689.0,115.2 690.0,115.6 691.0,116.0 692.0,116.3 693.0,116.6 693.9,116.9 694.9,117.2 695.8,117.4 696.7,117.7 697.6,117.9 698.4,118.2 699.3,118.4 700.1,118.6 700.9,118.8 701.7,119.0 702.7,119.2 703.7,119.5 704.6,119.7 705.6,119.9 706.5,120.1 707.4,120.2 708.3,120.4 709.1,120.6 710.0,120.7 710.8,120.9 711.6,121.0 712.4,121.2 713.4,121.3 714.3,121.5 715.2,121.7 716.1,121.8 717.0,121.9 717.9,122.1 718.7,122.2 719.6,122.3 720.4,122.4 721.2,122.5 722.1,122.7 723.0,122.8 723.9,122.9 724.8,123.0 725.7,123.1 726.5,123.2 727.3,123.3 728.1,123.4 728.9,123.5 729.8,123.6 730.7,123.7 731.6,123.8 732.4,123.9 733.3,124.0 734.1,124.1 734.9,124.2 735.8,124.3 736.7,124.3 737.5,124.4 738.4,124.5 739.2,124.6 740.0,124.7 740.8,124.7 741.7,124.8 742.6,124.9 743.4,124.9 744.3,125.0 745.1,125.1 745.9,125.1 746.8,125.2 747.6,125.3 748.5,125.3 749.3,125.4 750.1,125.5 751.0,125.5 751.8,125.6 752.7,125.7 753.5,125.7 754.3,125.8 755.1,125.8 756.0,125.9 756.8,125.9 757.6,126.0 758.5,126.0 759.3,126.1 760.1,126.1 761.0,126.2 761.8,126.2 762.6,126.3 763.5,126.3 764.3,126.4 765.1,126.4 765.9,126.5 766.8,126.5 767.6,126.6 768.4,126.6 769.2,126.7 770.1,126.7 770.9,126.8 771.7,126.8 772.6,126.8 773.4,126.9 774.2,126.9 775.0,127.0 775.8,127.0 776.6,127.1 777.5,127.1 778.3,127.1 779.1,127.2 779.9,127.2 780.7,127.2 781.5,127.3 782.4,127.3 783.2,127.4 784.0,127.4 784.8,127.4 785.6,127.5 786.5,127.5 787.3,127.6 788.1,127.6 788.9,127.6 789.7,127.7 790.5,127.7 791.3,127.7 792.2,127.8 793.0,127.8 793.8,127.9 794.6,127.9 795.4,127.9 796.2,128.0 797.0,128.0 797.8,128.0 798.6,128.1 799.5,128.1" fill="none" stroke="#e74c3c" stroke-width="1.5" stroke-linejoin="round" clip-path="url(#pc155)"/>
  <line x1="34" y1="207" x2="34" y2="362" stroke="#d1d5db"/>
  <line x1="34" y1="284.5" x2="399" y2="284.5" stroke="#d1d5db"/>
  <text x="216.5" y="388" text-anchor="middle" font-size="9" fill="#6b7280">Hz</text>
  <text x="12" y="284.5" text-anchor="middle" font-size="9" fill="#6b7280" transform="rotate(-90 12 284.5)">Group delay</text>
  <line x1="67.3" y1="207" x2="67.3" y2="362" stroke="#e5e7eb" stroke-width="0.5"/>
  <line x1="86.8" y1="207" x2="86.8" y2="362" stroke="#e5e7eb" stroke-width="0.5"/>
  <line x1="100.6" y1="207" x2="100.6" y2="362" stroke="#e5e7eb" stroke-width="0.5"/>
  <line x1="111.3" y1="207" x2="111.3" y2="362" stroke="#e5e7eb" stroke-width="0.5"/>
  <line x1="120.0" y1="207" x2="120.0" y2="362" stroke="#e5e7eb" stroke-width="0.5"/>
  <line x1="127.4" y1="207" x2="127.4" y2="362" stroke="#e5e7eb" stroke-width="0.5"/>
  <line x1="133.9" y1="207" x2="133.9" y2="362" stroke="#e5e7eb" stroke-width="0.5"/>
  <line x1="139.5" y1="207" x2="139.5" y2="362" stroke="#e5e7eb" stroke-width="0.5"/>
  <line x1="177.9" y1="207" x2="177.9" y2="362" stroke="#e5e7eb" stroke-width="0.5"/>
  <line x1="197.3" y1="207" x2="197.3" y2="362" stroke="#e5e7eb" stroke-width="0.5"/>
  <line x1="211.1" y1="207" x2="211.1" y2="362" stroke="#e5e7eb" stroke-width="0.5"/>
  <line x1="221.9" y1="207" x2="221.9" y2="362" stroke="#e5e7eb" stroke-width="0.5"/>
  <line x1="230.6" y1="207" x2="230.6" y2="362" stroke="#e5e7eb" stroke-width="0.5"/>
  <line x1="238.0" y1="207" x2="238.0" y2="362" stroke="#e5e7eb" stroke-width="0.5"/>
  <line x1="244.4" y1="207" x2="244.4" y2="362" stroke="#e5e7eb" stroke-width="0.5"/>
  <line x1="250.1" y1="207" x2="250.1" y2="362" stroke="#e5e7eb" stroke-width="0.5"/>
  <line x1="288.4" y1="207" x2="288.4" y2="362" stroke="#e5e7eb" stroke-width="0.5"/>
  <line x1="307.9" y1="207" x2="307.9" y2="362" stroke="#e5e7eb" stroke-width="0.5"/>
  <line x1="321.7" y1="207" x2="321.7" y2="362" stroke="#e5e7eb" stroke-width="0.5"/>
  <line x1="332.4" y1="207" x2="332.4" y2="362" stroke="#e5e7eb" stroke-width="0.5"/>
  <line x1="341.2" y1="207" x2="341.2" y2="362" stroke="#e5e7eb" stroke-width="0.5"/>
  <line x1="348.6" y1="207" x2="348.6" y2="362" stroke="#e5e7eb" stroke-width="0.5"/>
  <line x1="355.0" y1="207" x2="355.0" y2="362" stroke="#e5e7eb" stroke-width="0.5"/>
  <line x1="360.7" y1="207" x2="360.7" y2="362" stroke="#e5e7eb" stroke-width="0.5"/>
  <line x1="399.0" y1="207" x2="399.0" y2="362" stroke="#e5e7eb" stroke-width="0.5"/>
  <line x1="144.6" y1="207" x2="144.6" y2="362" stroke="#e5e7eb" stroke-width="0.5"/>
  <text x="144.6" y="374" text-anchor="middle" font-size="8" fill="#6b7280">100</text>
  <line x1="255.1" y1="207" x2="255.1" y2="362" stroke="#e5e7eb" stroke-width="0.5"/>
  <text x="255.1" y="374" text-anchor="middle" font-size="8" fill="#6b7280">1k</text>
  <line x1="365.7" y1="207" x2="365.7" y2="362" stroke="#e5e7eb" stroke-width="0.5"/>
  <text x="365.7" y="374" text-anchor="middle" font-size="8" fill="#6b7280">10k</text>
  <line x1="34" y1="330.2" x2="399" y2="330.2" stroke="#e5e7eb" stroke-width="0.5"/>
  <text x="30" y="333.2" text-anchor="end" font-size="8" fill="#6b7280">-500</text>
  <text x="30" y="287.5" text-anchor="end" font-size="8" fill="#6b7280">0</text>
  <line x1="34" y1="238.8" x2="399" y2="238.8" stroke="#e5e7eb" stroke-width="0.5"/>
  <text x="30" y="241.8" text-anchor="end" font-size="8" fill="#6b7280">500</text>
  <line x1="255.1" y1="207" x2="255.1" y2="362" stroke="#d1d5db" stroke-width="1" stroke-dasharray="4 3"/>
  <defs><linearGradient id="g156" x1="0" y1="207" x2="0" y2="284.5" gradientUnits="userSpaceOnUse">
    <stop offset="0%" stop-color="#2ecc71" stop-opacity="0.15"/>
    <stop offset="100%" stop-color="#2ecc71" stop-opacity="0.02"/>
  </linearGradient></defs>
  <path d="M37.5,224.9 37.5,224.9 70.8,254.7 90.3,264.6 104.1,269.6 114.8,272.5 123.6,274.5 131.0,275.9 137.4,277.0 143.1,277.8 148.1,278.5 152.7,279.0 156.9,279.5 160.7,279.8 164.3,280.1 167.6,280.4 170.7,280.7 173.6,280.9 176.3,281.1 178.9,281.2 181.4,281.4 183.7,281.5 186.0,281.6 188.1,281.8 190.2,281.9 192.1,282.0 194.0,282.0 195.8,282.1 197.6,282.2 199.2,282.3 200.9,282.3 202.4,282.4 204.0,282.4 205.5,282.5 206.9,282.6 208.3,282.6 209.6,282.6 210.9,282.7 212.2,282.7 213.5,282.8 214.7,282.8 215.9,282.8 217.0,282.9 218.2,282.9 219.3,282.9 220.3,283.0 221.4,283.0 222.4,283.0 223.4,283.1 224.4,283.1 225.4,283.1 226.4,283.2 227.3,283.2 228.2,283.2 229.1,283.2 230.0,283.3 230.8,283.3 231.7,283.3 232.5,283.4 233.4,283.4 234.2,283.4 235.7,283.5 237.3,283.5 238.7,283.6 240.2,283.7 241.6,283.7 242.9,283.8 244.2,283.9 245.5,283.9 246.8,284.0 248.0,284.1 249.2,284.2 250.3,284.2 251.4,284.3 252.6,284.4 253.6,284.4 254.7,284.5 255.7,284.5 256.7,284.6 257.7,284.6 258.7,284.7 259.6,284.7 260.6,284.8 261.5,284.8 262.4,284.8 263.3,284.8 264.1,284.9 265.0,284.9 265.8,284.9 266.6,284.9 267.4,284.9 268.6,284.9 269.8,284.9 270.9,285.0 272.0,285.0 273.1,285.0 274.2,285.0 275.2,285.0 276.2,285.0 277.2,285.0 278.2,284.9 279.1,284.9 280.0,284.9 281.0,284.9 281.9,284.9 282.7,284.9 283.6,284.9 284.5,284.9 285.3,284.9 286.1,284.9 286.9,284.9 288.0,284.9 289.0,284.9 290.0,284.9 291.0,284.9 292.0,284.8 292.9,284.8 293.9,284.8 294.8,284.8 295.7,284.8 296.6,284.8 297.4,284.8 298.3,284.8 299.1,284.8 299.9,284.8 300.7,284.8 301.7,284.8 302.7,284.8 303.6,284.8 304.6,284.8 305.5,284.8 306.4,284.7 307.3,284.7 308.1,284.7 309.0,284.7 309.8,284.7 310.6,284.7 311.4,284.7 312.4,284.7 313.3,284.7 314.2,284.7 315.1,284.7 316.0,284.7 316.9,284.7 317.7,284.7 318.6,284.7 319.4,284.7 320.2,284.7 321.1,284.7 322.0,284.7 322.9,284.7 323.8,284.7 324.7,284.7 325.5,284.7 326.3,284.7 327.1,284.7 327.9,284.7 328.8,284.7 329.7,284.7 330.6,284.6 331.4,284.6 332.3,284.6 333.1,284.6 333.9,284.6 334.8,284.6 335.7,284.6 336.5,284.6 337.4,284.6 338.2,284.6 339.0,284.6 339.8,284.6 340.7,284.6 341.6,284.6 342.4,284.6 343.3,284.6 344.1,284.6 344.9,284.6 345.8,284.6 346.6,284.6 347.5,284.6 348.3,284.6 349.1,284.6 350.0,284.6 350.8,284.6 351.7,284.6 352.5,284.6 353.3,284.6 354.1,284.6 355.0,284.6 355.8,284.6 356.6,284.6 357.5,284.6 358.3,284.6 359.1,284.6 360.0,284.6 360.8,284.6 361.6,284.6 362.5,284.6 363.3,284.6 364.1,284.6 364.9,284.6 365.8,284.6 366.6,284.6 367.4,284.6 368.2,284.6 369.1,284.6 369.9,284.6 370.7,284.6 371.6,284.6 372.4,284.6 373.2,284.6 374.0,284.6 374.8,284.6 375.6,284.6 376.5,284.6 377.3,284.6 378.1,284.6 378.9,284.6 379.7,284.6 380.5,284.6 381.4,284.6 382.2,284.6 383.0,284.6 383.8,284.6 384.6,284.6 385.5,284.6 386.3,284.6 387.1,284.6 387.9,284.6 388.7,284.6 389.5,284.6 390.3,284.6 391.2,284.6 392.0,284.6 392.8,284.7 393.6,284.7 394.4,284.7 395.2,284.7 396.0,284.7 396.8,284.7 397.6,284.8 398.5,284.8 L398.5,284.5 L37.5,284.5 Z" fill="url(#g156)"/>
  <defs><clipPath id="pc157"><rect x="34" y="207" width="365" height="155"/></clipPath></defs>
  <polyline points="37.5,224.9 70.8,254.7 90.3,264.6 104.1,269.6 114.8,272.5 123.6,274.5 131.0,275.9 137.4,277.0 143.1,277.8 148.1,278.5 152.7,279.0 156.9,279.5 160.7,279.8 164.3,280.1 167.6,280.4 170.7,280.7 173.6,280.9 176.3,281.1 178.9,281.2 181.4,281.4 183.7,281.5 186.0,281.6 188.1,281.8 190.2,281.9 192.1,282.0 194.0,282.0 195.8,282.1 197.6,282.2 199.2,282.3 200.9,282.3 202.4,282.4 204.0,282.4 205.5,282.5 206.9,282.6 208.3,282.6 209.6,282.6 210.9,282.7 212.2,282.7 213.5,282.8 214.7,282.8 215.9,282.8 217.0,282.9 218.2,282.9 219.3,282.9 220.3,283.0 221.4,283.0 222.4,283.0 223.4,283.1 224.4,283.1 225.4,283.1 226.4,283.2 227.3,283.2 228.2,283.2 229.1,283.2 230.0,283.3 230.8,283.3 231.7,283.3 232.5,283.4 233.4,283.4 234.2,283.4 235.7,283.5 237.3,283.5 238.7,283.6 240.2,283.7 241.6,283.7 242.9,283.8 244.2,283.9 245.5,283.9 246.8,284.0 248.0,284.1 249.2,284.2 250.3,284.2 251.4,284.3 252.6,284.4 253.6,284.4 254.7,284.5 255.7,284.5 256.7,284.6 257.7,284.6 258.7,284.7 259.6,284.7 260.6,284.8 261.5,284.8 262.4,284.8 263.3,284.8 264.1,284.9 265.0,284.9 265.8,284.9 266.6,284.9 267.4,284.9 268.6,284.9 269.8,284.9 270.9,285.0 272.0,285.0 273.1,285.0 274.2,285.0 275.2,285.0 276.2,285.0 277.2,285.0 278.2,284.9 279.1,284.9 280.0,284.9 281.0,284.9 281.9,284.9 282.7,284.9 283.6,284.9 284.5,284.9 285.3,284.9 286.1,284.9 286.9,284.9 288.0,284.9 289.0,284.9 290.0,284.9 291.0,284.9 292.0,284.8 292.9,284.8 293.9,284.8 294.8,284.8 295.7,284.8 296.6,284.8 297.4,284.8 298.3,284.8 299.1,284.8 299.9,284.8 300.7,284.8 301.7,284.8 302.7,284.8 303.6,284.8 304.6,284.8 305.5,284.8 306.4,284.7 307.3,284.7 308.1,284.7 309.0,284.7 309.8,284.7 310.6,284.7 311.4,284.7 312.4,284.7 313.3,284.7 314.2,284.7 315.1,284.7 316.0,284.7 316.9,284.7 317.7,284.7 318.6,284.7 319.4,284.7 320.2,284.7 321.1,284.7 322.0,284.7 322.9,284.7 323.8,284.7 324.7,284.7 325.5,284.7 326.3,284.7 327.1,284.7 327.9,284.7 328.8,284.7 329.7,284.7 330.6,284.6 331.4,284.6 332.3,284.6 333.1,284.6 333.9,284.6 334.8,284.6 335.7,284.6 336.5,284.6 337.4,284.6 338.2,284.6 339.0,284.6 339.8,284.6 340.7,284.6 341.6,284.6 342.4,284.6 343.3,284.6 344.1,284.6 344.9,284.6 345.8,284.6 346.6,284.6 347.5,284.6 348.3,284.6 349.1,284.6 350.0,284.6 350.8,284.6 351.7,284.6 352.5,284.6 353.3,284.6 354.1,284.6 355.0,284.6 355.8,284.6 356.6,284.6 357.5,284.6 358.3,284.6 359.1,284.6 360.0,284.6 360.8,284.6 361.6,284.6 362.5,284.6 363.3,284.6 364.1,284.6 364.9,284.6 365.8,284.6 366.6,284.6 367.4,284.6 368.2,284.6 369.1,284.6 369.9,284.6 370.7,284.6 371.6,284.6 372.4,284.6 373.2,284.6 374.0,284.6 374.8,284.6 375.6,284.6 376.5,284.6 377.3,284.6 378.1,284.6 378.9,284.6 379.7,284.6 380.5,284.6 381.4,284.6 382.2,284.6 383.0,284.6 383.8,284.6 384.6,284.6 385.5,284.6 386.3,284.6 387.1,284.6 387.9,284.6 388.7,284.6 389.5,284.6 390.3,284.6 391.2,284.6 392.0,284.6 392.8,284.7 393.6,284.7 394.4,284.7 395.2,284.7 396.0,284.7 396.8,284.7 397.6,284.8 398.5,284.8" fill="none" stroke="#2ecc71" stroke-width="1.5" stroke-linejoin="round" clip-path="url(#pc157)"/>
  <line x1="435" y1="207" x2="435" y2="362" stroke="#d1d5db"/>
  <line x1="435" y1="284.5" x2="800" y2="284.5" stroke="#d1d5db"/>
  <text x="617.5" y="388" text-anchor="middle" font-size="9" fill="#6b7280">Samples</text>
  <text x="413" y="284.5" text-anchor="middle" font-size="9" fill="#6b7280" transform="rotate(-90 413 284.5)">Impulse response</text>
  <line x1="435.0" y1="207" x2="435.0" y2="362" stroke="#e5e7eb" stroke-width="0.5"/>
  <text x="435.0" y="374" text-anchor="middle" font-size="8" fill="#6b7280">0</text>
  <line x1="526.3" y1="207" x2="526.3" y2="362" stroke="#e5e7eb" stroke-width="0.5"/>
  <text x="526.3" y="374" text-anchor="middle" font-size="8" fill="#6b7280">32</text>
  <line x1="617.5" y1="207" x2="617.5" y2="362" stroke="#e5e7eb" stroke-width="0.5"/>
  <text x="617.5" y="374" text-anchor="middle" font-size="8" fill="#6b7280">64</text>
  <line x1="708.8" y1="207" x2="708.8" y2="362" stroke="#e5e7eb" stroke-width="0.5"/>
  <text x="708.8" y="374" text-anchor="middle" font-size="8" fill="#6b7280">96</text>
  <line x1="800.0" y1="207" x2="800.0" y2="362" stroke="#e5e7eb" stroke-width="0.5"/>
  <text x="800.0" y="374" text-anchor="middle" font-size="8" fill="#6b7280">128</text>
  <line x1="435" y1="341.4" x2="800" y2="341.4" stroke="#e5e7eb" stroke-width="0.5"/>
  <text x="431" y="344.4" text-anchor="end" font-size="8" fill="#6b7280">-0.09</text>
  <text x="431" y="287.5" text-anchor="end" font-size="8" fill="#6b7280">0</text>
  <line x1="435" y1="227.6" x2="800" y2="227.6" stroke="#e5e7eb" stroke-width="0.5"/>
  <text x="431" y="230.6" text-anchor="end" font-size="8" fill="#6b7280">0.09</text>
  <defs><linearGradient id="g158" x1="0" y1="207" x2="0" y2="284.5" gradientUnits="userSpaceOnUse">
    <stop offset="0%" stop-color="#f39c12" stop-opacity="0.15"/>
    <stop offset="100%" stop-color="#f39c12" stop-opacity="0.02"/>
  </linearGradient></defs>
  <defs><linearGradient id="g159" x1="0" y1="362" x2="0" y2="284.5" gradientUnits="userSpaceOnUse">
    <stop offset="0%" stop-color="#f39c12" stop-opacity="0.15"/>
    <stop offset="100%" stop-color="#f39c12" stop-opacity="0.02"/>
  </linearGradient></defs>
  <defs><clipPath id="c160"><rect x="435" y="207" width="365" height="77.5"/></clipPath></defs>
  <defs><clipPath id="c161"><rect x="435" y="284.5" width="365" height="77.5"/></clipPath></defs>
  <path d="M435.0,242.6 435.0,242.6 437.9,207.0 440.7,219.5 443.6,231.6 446.4,243.1 449.3,253.9 452.1,263.8 455.0,272.8 457.8,280.8 460.7,287.8 463.5,293.9 466.4,298.9 469.2,303.0 472.1,306.2 474.9,308.6 477.8,310.2 480.6,311.1 483.5,311.4 486.3,311.1 489.2,310.4 492.0,309.3 494.9,307.8 497.7,306.1 500.6,304.3 503.4,302.3 506.3,300.2 509.1,298.1 512.0,296.0 514.8,294.0 517.7,292.1 520.5,290.2 523.4,288.6 526.3,287.0 529.1,285.6 532.0,284.4 534.8,283.4 537.7,282.5 540.5,281.7 543.4,281.1 546.2,280.7 549.1,280.4 551.9,280.2 554.8,280.1 557.6,280.1 560.5,280.2 563.3,280.3 566.2,280.6 569.0,280.8 571.9,281.1 574.7,281.4 577.6,281.8 580.4,282.1 583.3,282.5 586.1,282.8 589.0,283.1 591.8,283.4 594.7,283.7 597.5,284.0 600.4,284.2 603.2,284.4 606.1,284.6 608.9,284.8 611.8,284.9 614.6,285.0 617.5,285.1 620.4,285.2 623.2,285.2 626.1,285.2 628.9,285.2 631.8,285.2 634.6,285.2 637.5,285.2 640.3,285.1 643.2,285.1 646.0,285.0 648.9,285.0 651.7,284.9 654.6,284.9 657.4,284.8 660.3,284.7 663.1,284.7 666.0,284.6 668.8,284.6 671.7,284.6 674.5,284.5 677.4,284.5 680.2,284.5 683.1,284.4 685.9,284.4 688.8,284.4 691.6,284.4 694.5,284.4 697.3,284.4 700.2,284.4 703.0,284.4 705.9,284.4 708.8,284.4 711.6,284.4 714.5,284.4 717.3,284.4 720.2,284.4 723.0,284.4 725.9,284.4 728.7,284.4 731.6,284.5 734.4,284.5 737.3,284.5 740.1,284.5 743.0,284.5 745.8,284.5 748.7,284.5 751.5,284.5 754.4,284.5 757.2,284.5 760.1,284.5 762.9,284.5 765.8,284.5 768.6,284.5 771.5,284.5 774.3,284.5 777.2,284.5 780.0,284.5 782.9,284.5 785.7,284.5 788.6,284.5 791.4,284.5 794.3,284.5 797.1,284.5 L797.1,284.5 L435.0,284.5 Z" fill="url(#g158)" clip-path="url(#c160)"/>
  <path d="M435.0,242.6 435.0,242.6 437.9,207.0 440.7,219.5 443.6,231.6 446.4,243.1 449.3,253.9 452.1,263.8 455.0,272.8 457.8,280.8 460.7,287.8 463.5,293.9 466.4,298.9 469.2,303.0 472.1,306.2 474.9,308.6 477.8,310.2 480.6,311.1 483.5,311.4 486.3,311.1 489.2,310.4 492.0,309.3 494.9,307.8 497.7,306.1 500.6,304.3 503.4,302.3 506.3,300.2 509.1,298.1 512.0,296.0 514.8,294.0 517.7,292.1 520.5,290.2 523.4,288.6 526.3,287.0 529.1,285.6 532.0,284.4 534.8,283.4 537.7,282.5 540.5,281.7 543.4,281.1 546.2,280.7 549.1,280.4 551.9,280.2 554.8,280.1 557.6,280.1 560.5,280.2 563.3,280.3 566.2,280.6 569.0,280.8 571.9,281.1 574.7,281.4 577.6,281.8 580.4,282.1 583.3,282.5 586.1,282.8 589.0,283.1 591.8,283.4 594.7,283.7 597.5,284.0 600.4,284.2 603.2,284.4 606.1,284.6 608.9,284.8 611.8,284.9 614.6,285.0 617.5,285.1 620.4,285.2 623.2,285.2 626.1,285.2 628.9,285.2 631.8,285.2 634.6,285.2 637.5,285.2 640.3,285.1 643.2,285.1 646.0,285.0 648.9,285.0 651.7,284.9 654.6,284.9 657.4,284.8 660.3,284.7 663.1,284.7 666.0,284.6 668.8,284.6 671.7,284.6 674.5,284.5 677.4,284.5 680.2,284.5 683.1,284.4 685.9,284.4 688.8,284.4 691.6,284.4 694.5,284.4 697.3,284.4 700.2,284.4 703.0,284.4 705.9,284.4 708.8,284.4 711.6,284.4 714.5,284.4 717.3,284.4 720.2,284.4 723.0,284.4 725.9,284.4 728.7,284.4 731.6,284.5 734.4,284.5 737.3,284.5 740.1,284.5 743.0,284.5 745.8,284.5 748.7,284.5 751.5,284.5 754.4,284.5 757.2,284.5 760.1,284.5 762.9,284.5 765.8,284.5 768.6,284.5 771.5,284.5 774.3,284.5 777.2,284.5 780.0,284.5 782.9,284.5 785.7,284.5 788.6,284.5 791.4,284.5 794.3,284.5 797.1,284.5 L797.1,284.5 L435.0,284.5 Z" fill="url(#g159)" clip-path="url(#c161)"/>
  <defs><clipPath id="pc162"><rect x="435" y="207" width="365" height="155"/></clipPath></defs>
  <polyline points="435.0,242.6 437.9,207.0 440.7,219.5 443.6,231.6 446.4,243.1 449.3,253.9 452.1,263.8 455.0,272.8 457.8,280.8 460.7,287.8 463.5,293.9 466.4,298.9 469.2,303.0 472.1,306.2 474.9,308.6 477.8,310.2 480.6,311.1 483.5,311.4 486.3,311.1 489.2,310.4 492.0,309.3 494.9,307.8 497.7,306.1 500.6,304.3 503.4,302.3 506.3,300.2 509.1,298.1 512.0,296.0 514.8,294.0 517.7,292.1 520.5,290.2 523.4,288.6 526.3,287.0 529.1,285.6 532.0,284.4 534.8,283.4 537.7,282.5 540.5,281.7 543.4,281.1 546.2,280.7 549.1,280.4 551.9,280.2 554.8,280.1 557.6,280.1 560.5,280.2 563.3,280.3 566.2,280.6 569.0,280.8 571.9,281.1 574.7,281.4 577.6,281.8 580.4,282.1 583.3,282.5 586.1,282.8 589.0,283.1 591.8,283.4 594.7,283.7 597.5,284.0 600.4,284.2 603.2,284.4 606.1,284.6 608.9,284.8 611.8,284.9 614.6,285.0 617.5,285.1 620.4,285.2 623.2,285.2 626.1,285.2 628.9,285.2 631.8,285.2 634.6,285.2 637.5,285.2 640.3,285.1 643.2,285.1 646.0,285.0 648.9,285.0 651.7,284.9 654.6,284.9 657.4,284.8 660.3,284.7 663.1,284.7 666.0,284.6 668.8,284.6 671.7,284.6 674.5,284.5 677.4,284.5 680.2,284.5 683.1,284.4 685.9,284.4 688.8,284.4 691.6,284.4 694.5,284.4 697.3,284.4 700.2,284.4 703.0,284.4 705.9,284.4 708.8,284.4 711.6,284.4 714.5,284.4 717.3,284.4 720.2,284.4 723.0,284.4 725.9,284.4 728.7,284.4 731.6,284.5 734.4,284.5 737.3,284.5 740.1,284.5 743.0,284.5 745.8,284.5 748.7,284.5 751.5,284.5 754.4,284.5 757.2,284.5 760.1,284.5 762.9,284.5 765.8,284.5 768.6,284.5 771.5,284.5 774.3,284.5 777.2,284.5 780.0,284.5 782.9,284.5 785.7,284.5 788.6,284.5 791.4,284.5 794.3,284.5 797.1,284.5" fill="none" stroke="#f39c12" stroke-width="1.3" stroke-linejoin="round" clip-path="url(#pc162)"/>
</svg>
