<svg xmlns="http://www.w3.org/2000/svg" viewBox="0 0 820 392" style="font-family:system-ui,-apple-system,sans-serif">
  <text x="800" y="11" text-anchor="end" font-size="11" font-weight="600" fill="#6b7280">Butterworth orders 1–8, fc=1kHz</text>
  <line x1="34" y1="16" x2="34" y2="171" stroke="#d1d5db"/>
  <line x1="34" y1="47.0" x2="392" y2="47.0" stroke="#d1d5db"/>
  <text x="213" y="197" text-anchor="middle" font-size="9" fill="#6b7280">Hz</text>
  <text x="12" y="93.5" text-anchor="middle" font-size="9" fill="#6b7280" transform="rotate(-90 12 93.5)">dB</text>
  <line x1="66.6" y1="16" x2="66.6" y2="171" stroke="#e5e7eb" stroke-width="0.5"/>
  <line x1="85.7" y1="16" x2="85.7" y2="171" stroke="#e5e7eb" stroke-width="0.5"/>
  <line x1="99.3" y1="16" x2="99.3" y2="171" stroke="#e5e7eb" stroke-width="0.5"/>
  <line x1="109.8" y1="16" x2="109.8" y2="171" stroke="#e5e7eb" stroke-width="0.5"/>
  <line x1="118.4" y1="16" x2="118.4" y2="171" stroke="#e5e7eb" stroke-width="0.5"/>
  <line x1="125.7" y1="16" x2="125.7" y2="171" stroke="#e5e7eb" stroke-width="0.5"/>
  <line x1="131.9" y1="16" x2="131.9" y2="171" stroke="#e5e7eb" stroke-width="0.5"/>
  <line x1="137.5" y1="16" x2="137.5" y2="171" stroke="#e5e7eb" stroke-width="0.5"/>
  <line x1="175.1" y1="16" x2="175.1" y2="171" stroke="#e5e7eb" stroke-width="0.5"/>
  <line x1="194.2" y1="16" x2="194.2" y2="171" stroke="#e5e7eb" stroke-width="0.5"/>
  <line x1="207.7" y1="16" x2="207.7" y2="171" stroke="#e5e7eb" stroke-width="0.5"/>
  <line x1="218.3" y1="16" x2="218.3" y2="171" stroke="#e5e7eb" stroke-width="0.5"/>
  <line x1="226.8" y1="16" x2="226.8" y2="171" stroke="#e5e7eb" stroke-width="0.5"/>
  <line x1="234.1" y1="16" x2="234.1" y2="171" stroke="#e5e7eb" stroke-width="0.5"/>
  <line x1="240.4" y1="16" x2="240.4" y2="171" stroke="#e5e7eb" stroke-width="0.5"/>
  <line x1="245.9" y1="16" x2="245.9" y2="171" stroke="#e5e7eb" stroke-width="0.5"/>
  <line x1="283.5" y1="16" x2="283.5" y2="171" stroke="#e5e7eb" stroke-width="0.5"/>
  <line x1="302.6" y1="16" x2="302.6" y2="171" stroke="#e5e7eb" stroke-width="0.5"/>
  <line x1="316.2" y1="16" x2="316.2" y2="171" stroke="#e5e7eb" stroke-width="0.5"/>
  <line x1="326.7" y1="16" x2="326.7" y2="171" stroke="#e5e7eb" stroke-width="0.5"/>
  <line x1="335.3" y1="16" x2="335.3" y2="171" stroke="#e5e7eb" stroke-width="0.5"/>
  <line x1="342.6" y1="16" x2="342.6" y2="171" stroke="#e5e7eb" stroke-width="0.5"/>
  <line x1="348.8" y1="16" x2="348.8" y2="171" stroke="#e5e7eb" stroke-width="0.5"/>
  <line x1="354.4" y1="16" x2="354.4" y2="171" stroke="#e5e7eb" stroke-width="0.5"/>
  <line x1="392.0" y1="16" x2="392.0" y2="171" stroke="#e5e7eb" stroke-width="0.5"/>
  <line x1="142.5" y1="16" x2="142.5" y2="171" stroke="#e5e7eb" stroke-width="0.5"/>
  <text x="142.5" y="183" text-anchor="middle" font-size="8" fill="#6b7280">100</text>
  <line x1="250.9" y1="16" x2="250.9" y2="171" stroke="#e5e7eb" stroke-width="0.5"/>
  <text x="250.9" y="183" text-anchor="middle" font-size="8" fill="#6b7280">1k</text>
  <line x1="359.4" y1="16" x2="359.4" y2="171" stroke="#e5e7eb" stroke-width="0.5"/>
  <text x="359.4" y="183" text-anchor="middle" font-size="8" fill="#6b7280">10k</text>
  <line x1="34" y1="31.5" x2="392" y2="31.5" stroke="#e5e7eb" stroke-width="0.5"/>
  <line x1="34" y1="62.5" x2="392" y2="62.5" stroke="#e5e7eb" stroke-width="0.5"/>
  <line x1="34" y1="16.0" x2="392" y2="16.0" stroke="#e5e7eb" stroke-width="0.5"/>
  <text x="30" y="19.0" text-anchor="end" font-size="8" fill="#6b7280">+20</text>
  <text x="30" y="50.0" text-anchor="end" font-size="8" fill="#6b7280">0</text>
  <line x1="34" y1="78.0" x2="392" y2="78.0" stroke="#e5e7eb" stroke-width="0.5"/>
  <text x="30" y="81.0" text-anchor="end" font-size="8" fill="#6b7280">-20</text>
  <line x1="34" y1="109.0" x2="392" y2="109.0" stroke="#e5e7eb" stroke-width="0.5"/>
  <text x="30" y="112.0" text-anchor="end" font-size="8" fill="#6b7280">-40</text>
  <line x1="34" y1="140.0" x2="392" y2="140.0" stroke="#e5e7eb" stroke-width="0.5"/>
  <text x="30" y="143.0" text-anchor="end" font-size="8" fill="#6b7280">-60</text>
  <line x1="34" y1="171.0" x2="392" y2="171.0" stroke="#e5e7eb" stroke-width="0.5"/>
  <text x="30" y="174.0" text-anchor="end" font-size="8" fill="#6b7280">-80</text>
  <line x1="250.9" y1="16" x2="250.9" y2="171" stroke="#d1d5db" stroke-width="1" stroke-dasharray="4 3"/>
  <line x1="442" y1="16" x2="442" y2="171" stroke="#d1d5db"/>
  <line x1="442" y1="93.5" x2="800" y2="93.5" stroke="#d1d5db"/>
  <text x="621" y="197" text-anchor="middle" font-size="9" fill="#6b7280">Hz</text>
  <text x="420" y="93.5" text-anchor="middle" font-size="9" fill="#6b7280" transform="rotate(-90 420 93.5)">Phase (deg)</text>
  <line x1="474.6" y1="16" x2="474.6" y2="171" stroke="#e5e7eb" stroke-width="0.5"/>
  <line x1="493.7" y1="16" x2="493.7" y2="171" stroke="#e5e7eb" stroke-width="0.5"/>
  <line x1="507.3" y1="16" x2="507.3" y2="171" stroke="#e5e7eb" stroke-width="0.5"/>
  <line x1="517.8" y1="16" x2="517.8" y2="171" stroke="#e5e7eb" stroke-width="0.5"/>
  <line x1="526.4" y1="16" x2="526.4" y2="171" stroke="#e5e7eb" stroke-width="0.5"/>
  <line x1="533.7" y1="16" x2="533.7" y2="171" stroke="#e5e7eb" stroke-width="0.5"/>
  <line x1="539.9" y1="16" x2="539.9" y2="171" stroke="#e5e7eb" stroke-width="0.5"/>
  <line x1="545.5" y1="16" x2="545.5" y2="171" stroke="#e5e7eb" stroke-width="0.5"/>
  <line x1="583.1" y1="16" x2="583.1" y2="171" stroke="#e5e7eb" stroke-width="0.5"/>
  <line x1="602.2" y1="16" x2="602.2" y2="171" stroke="#e5e7eb" stroke-width="0.5"/>
  <line x1="615.7" y1="16" x2="615.7" y2="171" stroke="#e5e7eb" stroke-width="0.5"/>
  <line x1="626.3" y1="16" x2="626.3" y2="171" stroke="#e5e7eb" stroke-width="0.5"/>
  <line x1="634.8" y1="16" x2="634.8" y2="171" stroke="#e5e7eb" stroke-width="0.5"/>
  <line x1="642.1" y1="16" x2="642.1" y2="171" stroke="#e5e7eb" stroke-width="0.5"/>
  <line x1="648.4" y1="16" x2="648.4" y2="171" stroke="#e5e7eb" stroke-width="0.5"/>
  <line x1="653.9" y1="16" x2="653.9" y2="171" stroke="#e5e7eb" stroke-width="0.5"/>
  <line x1="691.5" y1="16" x2="691.5" y2="171" stroke="#e5e7eb" stroke-width="0.5"/>
  <line x1="710.6" y1="16" x2="710.6" y2="171" stroke="#e5e7eb" stroke-width="0.5"/>
  <line x1="724.2" y1="16" x2="724.2" y2="171" stroke="#e5e7eb" stroke-width="0.5"/>
  <line x1="734.7" y1="16" x2="734.7" y2="171" stroke="#e5e7eb" stroke-width="0.5"/>
  <line x1="743.3" y1="16" x2="743.3" y2="171" stroke="#e5e7eb" stroke-width="0.5"/>
  <line x1="750.6" y1="16" x2="750.6" y2="171" stroke="#e5e7eb" stroke-width="0.5"/>
  <line x1="756.8" y1="16" x2="756.8" y2="171" stroke="#e5e7eb" stroke-width="0.5"/>
  <line x1="762.4" y1="16" x2="762.4" y2="171" stroke="#e5e7eb" stroke-width="0.5"/>
  <line x1="800.0" y1="16" x2="800.0" y2="171" stroke="#e5e7eb" stroke-width="0.5"/>
  <line x1="550.5" y1="16" x2="550.5" y2="171" stroke="#e5e7eb" stroke-width="0.5"/>
  <text x="550.5" y="183" text-anchor="middle" font-size="8" fill="#6b7280">100</text>
  <line x1="658.9" y1="16" x2="658.9" y2="171" stroke="#e5e7eb" stroke-width="0.5"/>
  <text x="658.9" y="183" text-anchor="middle" font-size="8" fill="#6b7280">1k</text>
  <line x1="767.4" y1="16" x2="767.4" y2="171" stroke="#e5e7eb" stroke-width="0.5"/>
  <text x="767.4" y="183" text-anchor="middle" font-size="8" fill="#6b7280">10k</text>
  <line x1="442" y1="54.8" x2="800" y2="54.8" stroke="#e5e7eb" stroke-width="0.5"/>
  <line x1="442" y1="132.3" x2="800" y2="132.3" stroke="#e5e7eb" stroke-width="0.5"/>
  <line x1="442" y1="16.0" x2="800" y2="16.0" stroke="#e5e7eb" stroke-width="0.5"/>
  <text x="438" y="19.0" text-anchor="end" font-size="8" fill="#6b7280">180</text>
  <text x="438" y="96.5" text-anchor="end" font-size="8" fill="#6b7280">0</text>
  <line x1="442" y1="171.0" x2="800" y2="171.0" stroke="#e5e7eb" stroke-width="0.5"/>
  <text x="438" y="174.0" text-anchor="end" font-size="8" fill="#6b7280">-180</text>
  <line x1="658.9" y1="16" x2="658.9" y2="171" stroke="#d1d5db" stroke-width="1" stroke-dasharray="4 3"/>
  <line x1="34" y1="221" x2="34" y2="376" stroke="#d1d5db"/>
  <line x1="34" y1="246.8" x2="392" y2="246.8" stroke="#d1d5db"/>
  <text x="213" y="402" text-anchor="middle" font-size="9" fill="#6b7280">Hz</text>
  <text x="12" y="298.5" text-anchor="middle" font-size="9" fill="#6b7280" transform="rotate(-90 12 298.5)">Group delay</text>
  <line x1="66.6" y1="221" x2="66.6" y2="376" stroke="#e5e7eb" stroke-width="0.5"/>
  <line x1="85.7" y1="221" x2="85.7" y2="376" stroke="#e5e7eb" stroke-width="0.5"/>
  <line x1="99.3" y1="221" x2="99.3" y2="376" stroke="#e5e7eb" stroke-width="0.5"/>
  <line x1="109.8" y1="221" x2="109.8" y2="376" stroke="#e5e7eb" stroke-width="0.5"/>
  <line x1="118.4" y1="221" x2="118.4" y2="376" stroke="#e5e7eb" stroke-width="0.5"/>
  <line x1="125.7" y1="221" x2="125.7" y2="376" stroke="#e5e7eb" stroke-width="0.5"/>
  <line x1="131.9" y1="221" x2="131.9" y2="376" stroke="#e5e7eb" stroke-width="0.5"/>
  <line x1="137.5" y1="221" x2="137.5" y2="376" stroke="#e5e7eb" stroke-width="0.5"/>
  <line x1="175.1" y1="221" x2="175.1" y2="376" stroke="#e5e7eb" stroke-width="0.5"/>
  <line x1="194.2" y1="221" x2="194.2" y2="376" stroke="#e5e7eb" stroke-width="0.5"/>
  <line x1="207.7" y1="221" x2="207.7" y2="376" stroke="#e5e7eb" stroke-width="0.5"/>
  <line x1="218.3" y1="221" x2="218.3" y2="376" stroke="#e5e7eb" stroke-width="0.5"/>
  <line x1="226.8" y1="221" x2="226.8" y2="376" stroke="#e5e7eb" stroke-width="0.5"/>
  <line x1="234.1" y1="221" x2="234.1" y2="376" stroke="#e5e7eb" stroke-width="0.5"/>
  <line x1="240.4" y1="221" x2="240.4" y2="376" stroke="#e5e7eb" stroke-width="0.5"/>
  <line x1="245.9" y1="221" x2="245.9" y2="376" stroke="#e5e7eb" stroke-width="0.5"/>
  <line x1="283.5" y1="221" x2="283.5" y2="376" stroke="#e5e7eb" stroke-width="0.5"/>
  <line x1="302.6" y1="221" x2="302.6" y2="376" stroke="#e5e7eb" stroke-width="0.5"/>
  <line x1="316.2" y1="221" x2="316.2" y2="376" stroke="#e5e7eb" stroke-width="0.5"/>
  <line x1="326.7" y1="221" x2="326.7" y2="376" stroke="#e5e7eb" stroke-width="0.5"/>
  <line x1="335.3" y1="221" x2="335.3" y2="376" stroke="#e5e7eb" stroke-width="0.5"/>
  <line x1="342.6" y1="221" x2="342.6" y2="376" stroke="#e5e7eb" stroke-width="0.5"/>
  <line x1="348.8" y1="221" x2="348.8" y2="376" stroke="#e5e7eb" stroke-width="0.5"/>
  <line x1="354.4" y1="221" x2="354.4" y2="376" stroke="#e5e7eb" stroke-width="0.5"/>
  <line x1="392.0" y1="221" x2="392.0" y2="376" stroke="#e5e7eb" stroke-width="0.5"/>
  <line x1="142.5" y1="221" x2="142.5" y2="376" stroke="#e5e7eb" stroke-width="0.5"/>
  <text x="142.5" y="388" text-anchor="middle" font-size="8" fill="#6b7280">100</text>
  <line x1="250.9" y1="221" x2="250.9" y2="376" stroke="#e5e7eb" stroke-width="0.5"/>
  <text x="250.9" y="388" text-anchor="middle" font-size="8" fill="#6b7280">1k</text>
  <line x1="359.4" y1="221" x2="359.4" y2="376" stroke="#e5e7eb" stroke-width="0.5"/>
  <text x="359.4" y="388" text-anchor="middle" font-size="8" fill="#6b7280">10k</text>
  <line x1="34" y1="370.8" x2="392" y2="370.8" stroke="#e5e7eb" stroke-width="0.5"/>
  <text x="30" y="373.8" text-anchor="end" font-size="8" fill="#6b7280">-24</text>
  <line x1="34" y1="329.5" x2="392" y2="329.5" stroke="#e5e7eb" stroke-width="0.5"/>
  <text x="30" y="332.5" text-anchor="end" font-size="8" fill="#6b7280">-16</text>
  <line x1="34" y1="288.2" x2="392" y2="288.2" stroke="#e5e7eb" stroke-width="0.5"/>
  <text x="30" y="291.2" text-anchor="end" font-size="8" fill="#6b7280">-8</text>
  <text x="30" y="249.8" text-anchor="end" font-size="8" fill="#6b7280">0</text>
  <line x1="250.9" y1="221" x2="250.9" y2="376" stroke="#d1d5db" stroke-width="1" stroke-dasharray="4 3"/>
  <line x1="442" y1="221" x2="442" y2="376" stroke="#d1d5db"/>
  <line x1="442" y1="376.0" x2="800" y2="376.0" stroke="#d1d5db"/>
  <text x="621" y="402" text-anchor="middle" font-size="9" fill="#6b7280">Samples</text>
  <text x="420" y="298.5" text-anchor="middle" font-size="9" fill="#6b7280" transform="rotate(-90 420 298.5)">Step response</text>
  <line x1="442.0" y1="221" x2="442.0" y2="376" stroke="#e5e7eb" stroke-width="0.5"/>
  <text x="442.0" y="388" text-anchor="middle" font-size="8" fill="#6b7280">0</text>
  <line x1="591.2" y1="221" x2="591.2" y2="376" stroke="#e5e7eb" stroke-width="0.5"/>
  <text x="591.2" y="388" text-anchor="middle" font-size="8" fill="#6b7280">50</text>
  <line x1="740.3" y1="221" x2="740.3" y2="376" stroke="#e5e7eb" stroke-width="0.5"/>
  <text x="740.3" y="388" text-anchor="middle" font-size="8" fill="#6b7280">100</text>
  <text x="438" y="379.0" text-anchor="end" font-size="8" fill="#6b7280">0</text>
  <line x1="442" y1="316.4" x2="800" y2="316.4" stroke="#e5e7eb" stroke-width="0.5"/>
  <text x="438" y="319.4" text-anchor="end" font-size="8" fill="#6b7280">0.5</text>
  <line x1="442" y1="256.8" x2="800" y2="256.8" stroke="#e5e7eb" stroke-width="0.5"/>
  <text x="438" y="259.8" text-anchor="end" font-size="8" fill="#6b7280">1</text>
  <defs><clipPath id="pc37"><rect x="34" y="16" width="358" height="155"/></clipPath></defs>
  <polyline points="37.5,47.0 70.1,47.0 89.2,47.0 102.8,47.0 113.3,47.0 121.9,47.0 129.1,47.0 135.4,47.0 141.0,47.1 145.9,47.1 150.4,47.1 154.5,47.1 158.3,47.1 161.8,47.2 165.0,47.2 168.1,47.2 170.9,47.2 173.6,47.2 176.2,47.3 178.6,47.3 180.9,47.3 183.1,47.4 185.2,47.4 187.2,47.4 189.1,47.5 190.9,47.5 192.7,47.5 194.4,47.6 196.1,47.6 197.7,47.7 199.2,47.7 200.7,47.8 202.2,47.8 203.6,47.8 204.9,47.9 206.3,47.9 207.6,48.0 208.8,48.0 210.0,48.1 211.2,48.1 212.4,48.2 213.5,48.2 214.6,48.3 215.7,48.4 216.8,48.4 217.8,48.5 218.8,48.5 219.8,48.6 220.8,48.6 221.7,48.7 222.7,48.8 223.6,48.8 224.5,48.9 225.4,49.0 226.2,49.0 227.1,49.1 227.9,49.1 228.7,49.2 229.5,49.3 231.1,49.4 232.6,49.5 234.1,49.7 235.5,49.8 236.9,50.0 238.2,50.1 239.6,50.2 240.8,50.4 242.1,50.5 243.3,50.7 244.5,50.8 245.6,50.9 246.7,51.1 247.8,51.2 248.9,51.4 249.9,51.5 251.0,51.7 252.0,51.8 252.9,52.0 253.9,52.1 254.8,52.3 255.8,52.4 256.7,52.5 257.6,52.7 258.4,52.8 259.3,53.0 260.1,53.1 261.0,53.3 261.8,53.4 263.0,53.6 264.1,53.8 265.3,54.0 266.4,54.2 267.5,54.5 268.5,54.7 269.6,54.9 270.6,55.1 271.6,55.3 272.5,55.5 273.5,55.7 274.4,55.9 275.3,56.1 276.2,56.2 277.1,56.4 278.0,56.6 278.8,56.8 279.6,57.0 280.5,57.2 281.3,57.4 282.3,57.6 283.4,57.8 284.4,58.1 285.3,58.3 286.3,58.5 287.3,58.8 288.2,59.0 289.1,59.2 290.0,59.4 290.9,59.6 291.7,59.9 292.6,60.1 293.4,60.3 294.2,60.5 295.0,60.7 296.0,60.9 297.0,61.2 297.9,61.4 298.8,61.7 299.7,61.9 300.6,62.1 301.5,62.4 302.4,62.6 303.2,62.8 304.0,63.0 304.9,63.3 305.8,63.5 306.7,63.8 307.7,64.0 308.6,64.3 309.5,64.5 310.3,64.8 311.2,65.0 312.0,65.2 312.8,65.5 313.7,65.7 314.6,65.9 315.5,66.2 316.4,66.5 317.3,66.7 318.1,67.0 319.0,67.2 319.8,67.4 320.6,67.7 321.4,67.9 322.3,68.2 323.2,68.4 324.1,68.7 324.9,68.9 325.7,69.2 326.6,69.4 327.4,69.7 328.3,69.9 329.1,70.2 330.0,70.5 330.8,70.7 331.7,71.0 332.5,71.2 333.3,71.5 334.2,71.8 335.0,72.0 335.9,72.3 336.7,72.6 337.5,72.8 338.4,73.1 339.2,73.4 340.1,73.7 340.9,73.9 341.7,74.2 342.5,74.5 343.4,74.8 344.2,75.0 345.1,75.3 345.9,75.6 346.7,75.9 347.6,76.2 348.4,76.5 349.2,76.8 350.0,77.1 350.9,77.4 351.7,77.7 352.6,78.0 353.4,78.3 354.2,78.6 355.1,78.9 355.9,79.2 356.7,79.6 357.6,79.9 358.4,80.2 359.2,80.6 360.0,80.9 360.9,81.2 361.7,81.6 362.5,81.9 363.3,82.3 364.2,82.7 365.0,83.1 365.8,83.4 366.6,83.8 367.4,84.2 368.3,84.6 369.1,85.0 369.9,85.4 370.7,85.9 371.5,86.3 372.4,86.8 373.2,87.2 374.0,87.7 374.8,88.2 375.6,88.7 376.4,89.2 377.2,89.8 378.1,90.3 378.9,90.9 379.7,91.6 380.5,92.2 381.3,92.9 382.1,93.6 383.0,94.3 383.8,95.1 384.6,96.0 385.4,96.9 386.2,97.8 387.0,98.9 387.9,100.0 388.7,101.3 389.5,102.7 390.3,104.3 391.1,106.1 391.9,108.2" fill="none" stroke="#4a90d9" stroke-width="1.3" stroke-linejoin="round" clip-path="url(#pc37)"/>
  <defs><clipPath id="pc38"><rect x="442" y="16" width="358" height="155"/></clipPath></defs>
  <polyline points="445.5,93.8 478.1,94.0 497.2,94.3 510.8,94.6 521.3,94.8 529.9,95.1 537.1,95.4 543.4,95.6 549.0,95.9 553.9,96.1 558.4,96.4 562.5,96.7 566.3,96.9 569.8,97.2 573.0,97.4 576.1,97.7 578.9,98.0 581.6,98.2 584.2,98.5 586.6,98.7 588.9,99.0 591.1,99.2 593.2,99.5 595.2,99.7 597.1,100.0 598.9,100.2 600.7,100.5 602.4,100.7 604.1,101.0 605.7,101.2 607.2,101.4 608.7,101.7 610.2,101.9 611.6,102.1 612.9,102.4 614.3,102.6 615.6,102.8 616.8,103.1 618.0,103.3 619.2,103.5 620.4,103.7 621.5,104.0 622.6,104.2 623.7,104.4 624.8,104.6 625.8,104.8 626.8,105.0 627.8,105.3 628.8,105.5 629.7,105.7 630.7,105.9 631.6,106.1 632.5,106.3 633.4,106.5 634.2,106.7 635.1,106.9 635.9,107.1 636.7,107.3 637.5,107.4 639.1,107.8 640.6,108.2 642.1,108.6 643.5,108.9 644.9,109.3 646.2,109.6 647.6,109.9 648.8,110.3 650.1,110.6 651.3,110.9 652.5,111.2 653.6,111.5 654.7,111.8 655.8,112.1 656.9,112.3 657.9,112.6 659.0,112.9 660.0,113.2 660.9,113.4 661.9,113.7 662.8,113.9 663.8,114.2 664.7,114.4 665.6,114.6 666.4,114.8 667.3,115.1 668.1,115.3 669.0,115.5 669.8,115.7 671.0,116.0 672.1,116.3 673.3,116.6 674.4,116.9 675.5,117.1 676.5,117.4 677.6,117.7 678.6,117.9 679.6,118.1 680.5,118.4 681.5,118.6 682.4,118.8 683.3,119.0 684.2,119.2 685.1,119.4 686.0,119.6 686.8,119.8 687.6,120.0 688.5,120.2 689.3,120.4 690.3,120.6 691.4,120.8 692.4,121.0 693.3,121.2 694.3,121.4 695.3,121.6 696.2,121.8 697.1,122.0 698.0,122.2 698.9,122.3 699.7,122.5 700.6,122.7 701.4,122.8 702.2,123.0 703.0,123.1 704.0,123.3 705.0,123.5 705.9,123.6 706.8,123.8 707.7,123.9 708.6,124.1 709.5,124.2 710.4,124.4 711.2,124.5 712.0,124.6 712.9,124.8 713.8,124.9 714.7,125.0 715.7,125.2 716.6,125.3 717.5,125.4 718.3,125.6 719.2,125.7 720.0,125.8 720.8,125.9 721.7,126.0 722.6,126.1 723.5,126.3 724.4,126.4 725.3,126.5 726.1,126.6 727.0,126.7 727.8,126.8 728.6,126.9 729.4,127.0 730.3,127.1 731.2,127.2 732.1,127.3 732.9,127.4 733.7,127.5 734.6,127.6 735.4,127.6 736.3,127.7 737.1,127.8 738.0,127.9 738.8,128.0 739.7,128.1 740.5,128.2 741.3,128.2 742.2,128.3 743.0,128.4 743.9,128.5 744.7,128.5 745.5,128.6 746.4,128.7 747.2,128.8 748.1,128.8 748.9,128.9 749.7,129.0 750.5,129.0 751.4,129.1 752.2,129.2 753.1,129.2 753.9,129.3 754.7,129.4 755.6,129.4 756.4,129.5 757.2,129.5 758.0,129.6 758.9,129.7 759.7,129.7 760.6,129.8 761.4,129.8 762.2,129.9 763.1,129.9 763.9,130.0 764.7,130.0 765.6,130.1 766.4,130.2 767.2,130.2 768.0,130.3 768.9,130.3 769.7,130.4 770.5,130.4 771.3,130.5 772.2,130.5 773.0,130.6 773.8,130.6 774.6,130.6 775.4,130.7 776.3,130.7 777.1,130.8 777.9,130.8 778.7,130.9 779.5,130.9 780.4,131.0 781.2,131.0 782.0,131.0 782.8,131.1 783.6,131.1 784.4,131.2 785.2,131.2 786.1,131.3 786.9,131.3 787.7,131.3 788.5,131.4 789.3,131.4 790.1,131.5 791.0,131.5 791.8,131.6 792.6,131.6 793.4,131.6 794.2,131.7 795.0,131.7 795.9,131.8 796.7,131.8 797.5,131.9 798.3,131.9 799.1,131.9 799.9,132.0" fill="none" stroke="#4a90d9" stroke-width="1.3" stroke-linejoin="round" clip-path="url(#pc38)"/>
  <defs><clipPath id="pc39"><rect x="34" y="221" width="358" height="155"/></clipPath></defs>
  <polyline points="37.5,247.2 70.1,247.6 89.2,248.0 102.8,248.4 113.3,248.8 121.9,249.2 129.1,249.5 135.4,249.9 141.0,250.3 145.9,250.7 150.4,251.1 154.5,251.4 158.3,251.8 161.8,252.2 165.0,252.5 168.1,252.9 170.9,253.2 173.6,253.6 176.2,253.9 178.6,254.3 180.9,254.6 183.1,254.9 185.2,255.3 187.2,255.6 189.1,255.9 190.9,256.2 192.7,256.5 194.4,256.8 196.1,257.1 197.7,257.4 199.2,257.7 200.7,258.0 202.2,258.2 203.6,258.5 204.9,258.8 206.3,259.0 207.6,259.3 208.8,259.5 210.0,259.8 211.2,260.0 212.4,260.2 213.5,260.4 214.6,260.6 215.7,260.8 216.8,261.0 217.8,261.2 218.8,261.4 219.8,261.6 220.8,261.8 221.7,262.0 222.7,262.1 223.6,262.3 224.5,262.4 225.4,262.6 226.2,262.7 227.1,262.9 227.9,263.0 228.7,263.1 229.5,263.2 231.1,263.5 232.6,263.7 234.1,263.9 235.5,264.1 236.9,264.2 238.2,264.3 239.6,264.5 240.8,264.6 242.1,264.7 243.3,264.8 244.5,264.8 245.6,264.9 246.7,264.9 247.8,265.0 248.9,265.0 249.9,265.0 251.0,265.0 252.0,265.0 252.9,265.0 253.9,265.0 254.8,265.0 255.8,265.0 256.7,264.9 257.6,264.9 258.4,264.8 259.3,264.8 260.1,264.7 261.0,264.7 261.8,264.6 263.0,264.5 264.1,264.4 265.3,264.3 266.4,264.2 267.5,264.0 268.5,263.9 269.6,263.8 270.6,263.6 271.6,263.5 272.5,263.4 273.5,263.2 274.4,263.1 275.3,263.0 276.2,262.8 277.1,262.7 278.0,262.5 278.8,262.4 279.6,262.2 280.5,262.1 281.3,262.0 282.3,261.8 283.4,261.6 284.4,261.4 285.3,261.2 286.3,261.1 287.3,260.9 288.2,260.7 289.1,260.6 290.0,260.4 290.9,260.2 291.7,260.1 292.6,259.9 293.4,259.8 294.2,259.6 295.0,259.5 296.0,259.3 297.0,259.1 297.9,258.9 298.8,258.8 299.7,258.6 300.6,258.4 301.5,258.3 302.4,258.1 303.2,258.0 304.0,257.8 304.9,257.7 305.8,257.5 306.7,257.4 307.7,257.2 308.6,257.1 309.5,256.9 310.3,256.8 311.2,256.6 312.0,256.5 312.8,256.4 313.7,256.3 314.6,256.1 315.5,256.0 316.4,255.8 317.3,255.7 318.1,255.6 319.0,255.5 319.8,255.4 320.6,255.2 321.4,255.1 322.3,255.0 323.2,254.9 324.1,254.8 324.9,254.7 325.7,254.6 326.6,254.5 327.4,254.4 328.3,254.3 329.1,254.2 330.0,254.1 330.8,254.0 331.7,253.9 332.5,253.8 333.3,253.7 334.2,253.6 335.0,253.5 335.9,253.5 336.7,253.4 337.5,253.3 338.4,253.2 339.2,253.2 340.1,253.1 340.9,253.0 341.7,252.9 342.5,252.9 343.4,252.8 344.2,252.8 345.1,252.7 345.9,252.6 346.7,252.6 347.6,252.5 348.4,252.5 349.2,252.4 350.0,252.4 350.9,252.3 351.7,252.3 352.6,252.3 353.4,252.2 354.2,252.2 355.1,252.1 355.9,252.1 356.7,252.1 357.6,252.1 358.4,252.0 359.2,252.0 360.0,252.0 360.9,252.0 361.7,252.0 362.5,252.0 363.3,252.0 364.2,252.0 365.0,252.0 365.8,252.0 366.6,252.0 367.4,252.0 368.3,252.0 369.1,252.1 369.9,252.1 370.7,252.1 371.5,252.2 372.4,252.2 373.2,252.3 374.0,252.4 374.8,252.4 375.6,252.5 376.4,252.6 377.2,252.8 378.1,252.9 378.9,253.0 379.7,253.2 380.5,253.4 381.3,253.6 382.1,253.8 383.0,254.1 383.8,254.4 384.6,254.8 385.4,255.2 386.2,255.7 387.0,256.3 387.9,257.0 388.7,257.9 389.5,259.0 390.3,260.3 391.1,262.1 391.9,264.5" fill="none" stroke="#4a90d9" stroke-width="1.3" stroke-linejoin="round" clip-path="url(#pc39)"/>
  <defs><clipPath id="pc40"><rect x="442" y="221" width="358" height="155"/></clipPath></defs>
  <polyline points="442.0,368.1 445.0,353.2 448.0,340.4 450.9,329.2 453.9,319.6 456.9,311.2 459.9,304.0 462.9,297.7 465.9,292.2 468.9,287.5 471.8,283.4 474.8,279.9 477.8,276.8 480.8,274.1 483.8,271.8 486.8,269.8 489.7,268.1 492.7,266.6 495.7,265.3 498.7,264.1 501.7,263.1 504.6,262.3 507.6,261.6 510.6,260.9 513.6,260.4 516.6,259.9 519.6,259.5 522.5,259.1 525.5,258.8 528.5,258.5 531.5,258.3 534.5,258.1 537.5,257.9 540.5,257.8 543.4,257.6 546.4,257.5 549.4,257.4 552.4,257.3 555.4,257.3 558.4,257.2 561.3,257.1 564.3,257.1 567.3,257.0 570.3,257.0 573.3,257.0 576.3,256.9 579.2,256.9 582.2,256.9 585.2,256.9 588.2,256.9 591.2,256.9 594.1,256.8 597.1,256.8 600.1,256.8 603.1,256.8 606.1,256.8 609.1,256.8 612.0,256.8 615.0,256.8 618.0,256.8 621.0,256.8 624.0,256.8 627.0,256.8 630.0,256.8 632.9,256.8 635.9,256.8 638.9,256.8 641.9,256.8 644.9,256.8 647.9,256.8 650.8,256.8 653.8,256.8 656.8,256.8 659.8,256.8 662.8,256.8 665.8,256.8 668.7,256.8 671.7,256.8 674.7,256.8 677.7,256.8 680.7,256.8 683.6,256.8 686.6,256.8 689.6,256.8 692.6,256.8 695.6,256.8 698.6,256.8 701.5,256.8 704.5,256.8 707.5,256.8 710.5,256.8 713.5,256.8 716.5,256.8 719.5,256.8 722.4,256.8 725.4,256.8 728.4,256.8 731.4,256.8 734.4,256.8 737.3,256.8 740.3,256.8 743.3,256.8 746.3,256.8 749.3,256.8 752.3,256.8 755.3,256.8 758.2,256.8 761.2,256.8 764.2,256.8 767.2,256.8 770.2,256.8 773.2,256.8 776.1,256.8 779.1,256.8 782.1,256.8 785.1,256.8 788.1,256.8 791.0,256.8 794.0,256.8 797.0,256.8" fill="none" stroke="#4a90d9" stroke-width="1.3" stroke-linejoin="round" clip-path="url(#pc40)"/>
  <defs><clipPath id="pc41"><rect x="34" y="16" width="358" height="155"/></clipPath></defs>
  <polyline points="37.5,47.0 70.1,47.0 89.2,47.0 102.8,47.0 113.3,47.0 121.9,47.0 129.1,47.0 135.4,47.0 141.0,47.0 145.9,47.0 150.4,47.0 154.5,47.0 158.3,47.0 161.8,47.0 165.0,47.0 168.1,47.0 170.9,47.0 173.6,47.0 176.2,47.0 178.6,47.0 180.9,47.0 183.1,47.0 185.2,47.0 187.2,47.0 189.1,47.0 190.9,47.0 192.7,47.0 194.4,47.1 196.1,47.1 197.7,47.1 199.2,47.1 200.7,47.1 202.2,47.1 203.6,47.1 204.9,47.1 206.3,47.1 207.6,47.2 208.8,47.2 210.0,47.2 211.2,47.2 212.4,47.2 213.5,47.3 214.6,47.3 215.7,47.3 216.8,47.4 217.8,47.4 218.8,47.4 219.8,47.5 220.8,47.5 221.7,47.5 222.7,47.6 223.6,47.6 224.5,47.7 225.4,47.7 226.2,47.8 227.1,47.8 227.9,47.9 228.7,47.9 229.5,48.0 231.1,48.1 232.6,48.3 234.1,48.4 235.5,48.6 236.9,48.8 238.2,49.0 239.6,49.2 240.8,49.4 242.1,49.6 243.3,49.8 244.5,50.1 245.6,50.3 246.7,50.6 247.8,50.8 248.9,51.1 249.9,51.4 251.0,51.7 252.0,52.0 252.9,52.3 253.9,52.6 254.8,52.9 255.8,53.2 256.7,53.5 257.6,53.8 258.4,54.2 259.3,54.5 260.1,54.8 261.0,55.2 261.8,55.5 263.0,56.0 264.1,56.5 265.3,57.0 266.4,57.5 267.5,58.0 268.5,58.5 269.6,59.0 270.6,59.5 271.6,59.9 272.5,60.4 273.5,60.9 274.4,61.4 275.3,61.8 276.2,62.3 277.1,62.8 278.0,63.2 278.8,63.7 279.6,64.1 280.5,64.5 281.3,65.0 282.3,65.5 283.4,66.1 284.4,66.6 285.3,67.2 286.3,67.7 287.3,68.2 288.2,68.8 289.1,69.3 290.0,69.8 290.9,70.3 291.7,70.8 292.6,71.2 293.4,71.7 294.2,72.2 295.0,72.6 296.0,73.2 297.0,73.7 297.9,74.3 298.8,74.8 299.7,75.3 300.6,75.9 301.5,76.4 302.4,76.9 303.2,77.4 304.0,77.8 304.9,78.3 305.8,78.9 306.7,79.4 307.7,80.0 308.6,80.5 309.5,81.0 310.3,81.5 311.2,82.1 312.0,82.5 312.8,83.0 313.7,83.5 314.6,84.1 315.5,84.6 316.4,85.2 317.3,85.7 318.1,86.2 319.0,86.7 319.8,87.2 320.6,87.7 321.4,88.2 322.3,88.8 323.2,89.3 324.1,89.8 324.9,90.4 325.7,90.9 326.6,91.4 327.4,91.9 328.3,92.4 329.1,93.0 330.0,93.5 330.8,94.1 331.7,94.6 332.5,95.1 333.3,95.6 334.2,96.2 335.0,96.7 335.9,97.3 336.7,97.8 337.5,98.4 338.4,98.9 339.2,99.5 340.1,100.1 340.9,100.6 341.7,101.2 342.5,101.7 343.4,102.3 344.2,102.9 345.1,103.5 345.9,104.0 346.7,104.6 347.6,105.2 348.4,105.8 349.2,106.4 350.0,107.0 350.9,107.6 351.7,108.2 352.6,108.8 353.4,109.4 354.2,110.1 355.1,110.7 355.9,111.4 356.7,112.0 357.6,112.7 358.4,113.4 359.2,114.0 360.0,114.7 360.9,115.4 361.7,116.1 362.5,116.8 363.3,117.5 364.2,118.3 365.0,119.0 365.8,119.8 366.6,120.6 367.4,121.4 368.3,122.1 369.1,123.0 369.9,123.8 370.7,124.7 371.5,125.6 372.4,126.5 373.2,127.4 374.0,128.4 374.8,129.3 375.6,130.4 376.4,131.4 377.2,132.5 378.1,133.7 378.9,134.9 379.7,136.1 380.5,137.4 381.3,138.7 382.1,140.2 383.0,141.6 383.8,143.2 384.6,144.9 385.4,146.8 386.2,148.7 387.0,150.8 387.9,153.1 388.7,155.6 389.5,158.4 390.3,161.6 391.1,165.1 391.9,169.3" fill="none" stroke="#e74c3c" stroke-width="1.3" stroke-linejoin="round" clip-path="url(#pc41)"/>
  <defs><clipPath id="pc42"><rect x="442" y="16" width="358" height="155"/></clipPath></defs>
  <polyline points="445.5,93.9 478.1,94.3 497.2,94.6 510.8,95.0 521.3,95.4 529.9,95.8 537.1,96.1 543.4,96.5 549.0,96.9 553.9,97.3 558.4,97.6 562.5,98.0 566.3,98.4 569.8,98.8 573.0,99.2 576.1,99.6 578.9,99.9 581.6,100.3 584.2,100.7 586.6,101.1 588.9,101.5 591.1,101.9 593.2,102.3 595.2,102.7 597.1,103.1 598.9,103.5 600.7,103.9 602.4,104.3 604.1,104.7 605.7,105.1 607.2,105.5 608.7,105.9 610.2,106.4 611.6,106.8 612.9,107.2 614.3,107.6 615.6,108.0 616.8,108.5 618.0,108.9 619.2,109.3 620.4,109.7 621.5,110.2 622.6,110.6 623.7,111.1 624.8,111.5 625.8,111.9 626.8,112.4 627.8,112.8 628.8,113.3 629.7,113.7 630.7,114.2 631.6,114.6 632.5,115.1 633.4,115.5 634.2,116.0 635.1,116.4 635.9,116.9 636.7,117.3 637.5,117.8 639.1,118.7 640.6,119.6 642.1,120.5 643.5,121.4 644.9,122.3 646.2,123.2 647.6,124.1 648.8,124.9 650.1,125.8 651.3,126.7 652.5,127.5 653.6,128.3 654.7,129.2 655.8,130.0 656.9,130.8 657.9,131.5 659.0,132.3 660.0,133.0 660.9,133.8 661.9,134.5 662.8,135.2 663.8,135.9 664.7,136.5 665.6,137.2 666.4,137.8 667.3,138.4 668.1,139.0 669.0,139.6 669.8,140.1 671.0,140.9 672.1,141.7 673.3,142.5 674.4,143.2 675.5,143.9 676.5,144.5 677.6,145.2 678.6,145.8 679.6,146.4 680.5,146.9 681.5,147.5 682.4,148.0 683.3,148.5 684.2,148.9 685.1,149.4 686.0,149.8 686.8,150.3 687.6,150.7 688.5,151.1 689.3,151.4 690.3,151.9 691.4,152.4 692.4,152.8 693.3,153.2 694.3,153.6 695.3,154.0 696.2,154.4 697.1,154.7 698.0,155.1 698.9,155.4 699.7,155.7 700.6,156.0 701.4,156.3 702.2,156.6 703.0,156.8 704.0,157.2 705.0,157.5 705.9,157.8 706.8,158.0 707.7,158.3 708.6,158.6 709.5,158.8 710.4,159.1 711.2,159.3 712.0,159.5 712.9,159.7 713.8,160.0 714.7,160.2 715.7,160.4 716.6,160.7 717.5,160.9 718.3,161.1 719.2,161.3 720.0,161.5 720.8,161.6 721.7,161.8 722.6,162.0 723.5,162.2 724.4,162.4 725.3,162.6 726.1,162.7 727.0,162.9 727.8,163.0 728.6,163.2 729.4,163.3 730.3,163.5 731.2,163.6 732.1,163.8 732.9,163.9 733.7,164.1 734.6,164.2 735.4,164.3 736.3,164.5 737.1,164.6 738.0,164.7 738.8,164.9 739.7,165.0 740.5,165.1 741.3,165.2 742.2,165.3 743.0,165.5 743.9,165.6 744.7,165.7 745.5,165.8 746.4,165.9 747.2,166.0 748.1,166.1 748.9,166.2 749.7,166.3 750.5,166.4 751.4,166.5 752.2,166.6 753.1,166.7 753.9,166.8 754.7,166.9 755.6,167.0 756.4,167.1 757.2,167.1 758.0,167.2 758.9,167.3 759.7,167.4 760.6,167.5 761.4,167.6 762.2,167.6 763.1,167.7 763.9,167.8 764.7,167.9 765.6,167.9 766.4,168.0 767.2,168.1 768.0,168.2 768.9,168.2 769.7,168.3 770.5,168.4 771.3,168.5 772.2,168.5 773.0,168.6 773.8,168.7 774.6,168.7 775.4,168.8 776.3,168.9 777.1,168.9 777.9,169.0 778.7,169.0 779.5,169.1 780.4,169.2 781.2,169.2 782.0,169.3 782.8,169.4 783.6,169.4 784.4,169.5 785.2,169.5 786.1,169.6 786.9,169.7 787.7,169.7 788.5,169.8 789.3,169.8 790.1,169.9 791.0,170.0 791.8,170.0 792.6,170.1 793.4,170.1 794.2,170.2 795.0,170.3 795.9,170.3 796.7,170.4 797.5,170.4 798.3,170.5 799.1,170.6 799.9,170.6" fill="none" stroke="#e74c3c" stroke-width="1.3" stroke-linejoin="round" clip-path="url(#pc42)"/>
  <defs><clipPath id="pc43"><rect x="34" y="221" width="358" height="155"/></clipPath></defs>
  <polyline points="37.5,246.8 70.1,246.8 89.2,246.8 102.8,246.8 113.3,246.8 121.9,246.9 129.1,246.9 135.4,246.9 141.0,246.9 145.9,246.9 150.4,247.0 154.5,247.0 158.3,247.0 161.8,247.1 165.0,247.1 168.1,247.2 170.9,247.3 173.6,247.4 176.2,247.4 178.6,247.6 180.9,247.7 183.1,247.8 185.2,247.9 187.2,248.1 189.1,248.2 190.9,248.4 192.7,248.6 194.4,248.8 196.1,249.0 197.7,249.2 199.2,249.5 200.7,249.7 202.2,250.0 203.6,250.3 204.9,250.6 206.3,250.9 207.6,251.3 208.8,251.6 210.0,252.0 211.2,252.4 212.4,252.8 213.5,253.2 214.6,253.7 215.7,254.1 216.8,254.6 217.8,255.1 218.8,255.6 219.8,256.1 220.8,256.7 221.7,257.2 222.7,257.8 223.6,258.4 224.5,259.0 225.4,259.6 226.2,260.2 227.1,260.8 227.9,261.5 228.7,262.1 229.5,262.8 231.1,264.1 232.6,265.5 234.1,266.9 235.5,268.2 236.9,269.6 238.2,271.0 239.6,272.3 240.8,273.6 242.1,274.9 243.3,276.2 244.5,277.4 245.6,278.5 246.7,279.6 247.8,280.6 248.9,281.6 249.9,282.4 251.0,283.3 252.0,284.0 252.9,284.7 253.9,285.3 254.8,285.9 255.8,286.4 256.7,286.8 257.6,287.2 258.4,287.5 259.3,287.8 260.1,288.0 261.0,288.2 261.8,288.3 263.0,288.4 264.1,288.5 265.3,288.4 266.4,288.3 267.5,288.2 268.5,287.9 269.6,287.7 270.6,287.4 271.6,287.1 272.5,286.8 273.5,286.4 274.4,286.0 275.3,285.6 276.2,285.2 277.1,284.8 278.0,284.4 278.8,284.0 279.6,283.5 280.5,283.1 281.3,282.7 282.3,282.1 283.4,281.6 284.4,281.0 285.3,280.5 286.3,280.0 287.3,279.4 288.2,278.9 289.1,278.4 290.0,277.9 290.9,277.5 291.7,277.0 292.6,276.5 293.4,276.1 294.2,275.7 295.0,275.2 296.0,274.7 297.0,274.2 297.9,273.8 298.8,273.3 299.7,272.9 300.6,272.4 301.5,272.0 302.4,271.6 303.2,271.2 304.0,270.8 304.9,270.5 305.8,270.0 306.7,269.6 307.7,269.2 308.6,268.9 309.5,268.5 310.3,268.1 311.2,267.8 312.0,267.5 312.8,267.2 313.7,266.8 314.6,266.5 315.5,266.2 316.4,265.9 317.3,265.5 318.1,265.3 319.0,265.0 319.8,264.7 320.6,264.4 321.4,264.2 322.3,263.9 323.2,263.6 324.1,263.4 324.9,263.1 325.7,262.9 326.6,262.7 327.4,262.4 328.3,262.2 329.1,262.0 330.0,261.8 330.8,261.5 331.7,261.3 332.5,261.2 333.3,261.0 334.2,260.8 335.0,260.6 335.9,260.4 336.7,260.2 337.5,260.1 338.4,259.9 339.2,259.7 340.1,259.6 340.9,259.4 341.7,259.3 342.5,259.1 343.4,259.0 344.2,258.9 345.1,258.7 345.9,258.6 346.7,258.5 347.6,258.4 348.4,258.3 349.2,258.2 350.0,258.1 350.9,258.0 351.7,257.9 352.6,257.8 353.4,257.7 354.2,257.6 355.1,257.6 355.9,257.5 356.7,257.4 357.6,257.4 358.4,257.3 359.2,257.3 360.0,257.2 360.9,257.2 361.7,257.2 362.5,257.2 363.3,257.2 364.2,257.2 365.0,257.2 365.8,257.2 366.6,257.2 367.4,257.2 368.3,257.3 369.1,257.3 369.9,257.4 370.7,257.5 371.5,257.6 372.4,257.7 373.2,257.8 374.0,257.9 374.8,258.1 375.6,258.3 376.4,258.5 377.2,258.7 378.1,258.9 378.9,259.2 379.7,259.6 380.5,259.9 381.3,260.4 382.1,260.8 383.0,261.4 383.8,262.0 384.6,262.7 385.4,263.6 386.2,264.6 387.0,265.8 387.9,267.2 388.7,268.9 389.5,271.1 390.3,273.8 391.1,277.4 391.9,282.3" fill="none" stroke="#e74c3c" stroke-width="1.3" stroke-linejoin="round" clip-path="url(#pc43)"/>
  <defs><clipPath id="pc44"><rect x="442" y="221" width="358" height="155"/></clipPath></defs>
  <polyline points="442.0,375.5 445.0,373.4 448.0,369.5 450.9,364.3 453.9,358.0 456.9,351.1 459.9,343.6 462.9,335.9 465.9,328.2 468.9,320.6 471.8,313.1 474.8,306.0 477.8,299.3 480.8,293.0 483.8,287.2 486.8,281.9 489.7,277.2 492.7,272.9 495.7,269.0 498.7,265.7 501.7,262.8 504.6,260.3 507.6,258.2 510.6,256.5 513.6,255.1 516.6,254.0 519.6,253.1 522.5,252.5 525.5,252.0 528.5,251.7 531.5,251.6 534.5,251.6 537.5,251.7 540.5,251.8 543.4,252.1 546.4,252.3 549.4,252.6 552.4,253.0 555.4,253.3 558.4,253.6 561.3,254.0 564.3,254.3 567.3,254.6 570.3,254.9 573.3,255.2 576.3,255.4 579.2,255.7 582.2,255.9 585.2,256.1 588.2,256.2 591.2,256.4 594.1,256.5 597.1,256.6 600.1,256.7 603.1,256.8 606.1,256.8 609.1,256.9 612.0,256.9 615.0,257.0 618.0,257.0 621.0,257.0 624.0,257.0 627.0,257.0 630.0,257.0 632.9,257.0 635.9,257.0 638.9,257.0 641.9,257.0 644.9,256.9 647.9,256.9 650.8,256.9 653.8,256.9 656.8,256.9 659.8,256.9 662.8,256.9 665.8,256.8 668.7,256.8 671.7,256.8 674.7,256.8 677.7,256.8 680.7,256.8 683.6,256.8 686.6,256.8 689.6,256.8 692.6,256.8 695.6,256.8 698.6,256.8 701.5,256.8 704.5,256.8 707.5,256.8 710.5,256.8 713.5,256.8 716.5,256.8 719.5,256.8 722.4,256.8 725.4,256.8 728.4,256.8 731.4,256.8 734.4,256.8 737.3,256.8 740.3,256.8 743.3,256.8 746.3,256.8 749.3,256.8 752.3,256.8 755.3,256.8 758.2,256.8 761.2,256.8 764.2,256.8 767.2,256.8 770.2,256.8 773.2,256.8 776.1,256.8 779.1,256.8 782.1,256.8 785.1,256.8 788.1,256.8 791.0,256.8 794.0,256.8 797.0,256.8" fill="none" stroke="#e74c3c" stroke-width="1.3" stroke-linejoin="round" clip-path="url(#pc44)"/>
  <defs><clipPath id="pc45"><rect x="34" y="16" width="358" height="155"/></clipPath></defs>
  <polyline points="37.5,47.0 70.1,47.0 89.2,47.0 102.8,47.0 113.3,47.0 121.9,47.0 129.1,47.0 135.4,47.0 141.0,47.0 145.9,47.0 150.4,47.0 154.5,47.0 158.3,47.0 161.8,47.0 165.0,47.0 168.1,47.0 170.9,47.0 173.6,47.0 176.2,47.0 178.6,47.0 180.9,47.0 183.1,47.0 185.2,47.0 187.2,47.0 189.1,47.0 190.9,47.0 192.7,47.0 194.4,47.0 196.1,47.0 197.7,47.0 199.2,47.0 200.7,47.0 202.2,47.0 203.6,47.0 204.9,47.0 206.3,47.0 207.6,47.0 208.8,47.0 210.0,47.0 211.2,47.0 212.4,47.0 213.5,47.0 214.6,47.0 215.7,47.0 216.8,47.0 217.8,47.0 218.8,47.0 219.8,47.0 220.8,47.0 221.7,47.0 222.7,47.1 223.6,47.1 224.5,47.1 225.4,47.1 226.2,47.1 227.1,47.1 227.9,47.1 228.7,47.2 229.5,47.2 231.1,47.2 232.6,47.3 234.1,47.4 235.5,47.5 236.9,47.6 238.2,47.7 239.6,47.9 240.8,48.1 242.1,48.4 243.3,48.6 244.5,48.9 245.6,49.3 246.7,49.7 247.8,50.1 248.9,50.6 249.9,51.1 251.0,51.7 252.0,52.3 252.9,52.9 253.9,53.6 254.8,54.3 255.8,55.0 256.7,55.8 257.6,56.5 258.4,57.3 259.3,58.1 260.1,58.9 261.0,59.7 261.8,60.5 263.0,61.7 264.1,62.9 265.3,64.1 266.4,65.2 267.5,66.4 268.5,67.6 269.6,68.7 270.6,69.8 271.6,70.9 272.5,72.0 273.5,73.1 274.4,74.2 275.3,75.2 276.2,76.2 277.1,77.2 278.0,78.2 278.8,79.2 279.6,80.1 280.5,81.1 281.3,82.0 282.3,83.2 283.4,84.4 284.4,85.6 285.3,86.7 286.3,87.8 287.3,88.9 288.2,90.0 289.1,91.1 290.0,92.1 290.9,93.1 291.7,94.1 292.6,95.1 293.4,96.1 294.2,97.0 295.0,98.0 296.0,99.1 297.0,100.2 297.9,101.3 298.8,102.4 299.7,103.5 300.6,104.5 301.5,105.6 302.4,106.6 303.2,107.6 304.0,108.5 304.9,109.5 305.8,110.6 306.7,111.8 307.7,112.8 308.6,113.9 309.5,115.0 310.3,116.0 311.2,117.0 312.0,118.0 312.8,119.0 313.7,120.0 314.6,121.1 315.5,122.2 316.4,123.3 317.3,124.3 318.1,125.4 319.0,126.4 319.8,127.4 320.6,128.4 321.4,129.4 322.3,130.5 323.2,131.6 324.1,132.6 324.9,133.7 325.7,134.7 326.6,135.8 327.4,136.8 328.3,137.9 329.1,139.0 330.0,140.1 330.8,141.1 331.7,142.2 332.5,143.2 333.3,144.2 334.2,145.4 335.0,146.5 335.9,147.6 336.7,148.6 337.5,149.7 338.4,150.9 339.2,152.0 340.1,153.1 340.9,154.2 341.7,155.3 342.5,156.4 343.4,157.6 344.2,158.8 345.1,159.9 345.9,161.0 346.7,162.2 347.6,163.4 348.4,164.6 349.2,165.7 350.0,166.9 350.9,168.2 351.7,169.4 352.6,170.6 353.4,171.9 354.2,173.2 355.1,174.5 355.9,175.7 356.7,177.0 357.6,178.4 358.4,179.7 359.2,181.0 360.0,182.4 360.9,183.8 361.7,185.2 362.5,186.6 363.3,188.1 364.2,189.6 365.0,191.1 365.8,192.6 366.6,194.1 367.4,195.7 368.3,197.3 369.1,199.0 369.9,200.7 370.7,202.4 371.5,204.1 372.4,206.0 373.2,207.8 374.0,209.7 374.8,211.7 375.6,213.8 376.4,215.9 377.2,218.1 378.1,220.4 378.9,222.7 379.7,225.2 380.5,227.8 381.3,230.5 382.1,233.3 383.0,236.3 383.8,239.5 384.6,242.8 385.4,246.5 386.2,250.4 387.0,254.6 387.9,259.2 388.7,264.3 389.5,269.8 390.3,276.1 391.1,283.2 391.9,291.7" fill="none" stroke="#2ecc71" stroke-width="1.3" stroke-linejoin="round" clip-path="url(#pc45)"/>
  <defs><clipPath id="pc46"><rect x="442" y="16" width="358" height="155"/></clipPath></defs>
  <polyline points="445.5,94.2 478.1,94.9 497.2,95.6 510.8,96.3 521.3,97.0 529.9,97.7 537.1,98.4 543.4,99.0 549.0,99.7 553.9,100.4 558.4,101.1 562.5,101.8 566.3,102.5 569.8,103.2 573.0,103.9 576.1,104.6 578.9,105.3 581.6,106.0 584.2,106.7 586.6,107.4 588.9,108.2 591.1,108.9 593.2,109.6 595.2,110.3 597.1,111.0 598.9,111.7 600.7,112.4 602.4,113.2 604.1,113.9 605.7,114.6 607.2,115.3 608.7,116.1 610.2,116.8 611.6,117.5 612.9,118.3 614.3,119.0 615.6,119.8 616.8,120.5 618.0,121.3 619.2,122.0 620.4,122.8 621.5,123.6 622.6,124.3 623.7,125.1 624.8,125.9 625.8,126.7 626.8,127.5 627.8,128.3 628.8,129.1 629.7,129.9 630.7,130.7 631.6,131.5 632.5,132.3 633.4,133.2 634.2,134.0 635.1,134.9 635.9,135.7 636.7,136.6 637.5,137.5 639.1,139.2 640.6,141.1 642.1,142.9 643.5,144.8 644.9,146.7 646.2,148.7 647.6,150.6 648.8,152.7 650.1,154.7 651.3,156.8 652.5,158.8 653.6,160.9 654.7,163.0 655.8,165.1 656.9,167.1 657.9,169.1 659.0,171.1 660.0,173.1 660.9,175.0 661.9,176.8 662.8,178.6 663.8,180.3 664.7,182.0 665.6,183.6 666.4,185.1 667.3,186.6 668.1,188.0 669.0,189.4 669.8,190.7 671.0,192.5 672.1,194.2 673.3,195.9 674.4,197.4 675.5,198.8 676.5,200.2 677.6,201.5 678.6,202.7 679.6,203.8 680.5,204.9 681.5,205.9 682.4,206.9 683.3,207.8 684.2,208.7 685.1,209.6 686.0,210.4 686.8,211.1 687.6,211.9 688.5,212.6 689.3,213.3 690.3,214.1 691.4,215.0 692.4,215.8 693.3,216.5 694.3,217.2 695.3,217.9 696.2,218.5 697.1,219.2 698.0,219.8 698.9,220.3 699.7,220.9 700.6,221.4 701.4,221.9 702.2,222.4 703.0,222.9 704.0,223.5 705.0,224.0 705.9,224.5 706.8,225.0 707.7,225.5 708.6,226.0 709.5,226.4 710.4,226.8 711.2,227.2 712.0,227.6 712.9,228.0 713.8,228.5 714.7,228.9 715.7,229.3 716.6,229.7 717.5,230.0 718.3,230.4 719.2,230.7 720.0,231.1 720.8,231.4 721.7,231.7 722.6,232.1 723.5,232.4 724.4,232.7 725.3,233.0 726.1,233.3 727.0,233.6 727.8,233.9 728.6,234.2 729.4,234.4 730.3,234.7 731.2,235.0 732.1,235.3 732.9,235.5 733.7,235.8 734.6,236.0 735.4,236.3 736.3,236.5 737.1,236.8 738.0,237.0 738.8,237.2 739.7,237.4 740.5,237.7 741.3,237.9 742.2,238.1 743.0,238.3 743.9,238.5 744.7,238.7 745.5,238.9 746.4,239.1 747.2,239.3 748.1,239.5 748.9,239.7 749.7,239.9 750.5,240.0 751.4,240.2 752.2,240.4 753.1,240.6 753.9,240.7 754.7,240.9 755.6,241.1 756.4,241.2 757.2,241.4 758.0,241.5 758.9,241.7 759.7,241.9 760.6,242.0 761.4,242.1 762.2,242.3 763.1,242.4 763.9,242.6 764.7,242.7 765.6,242.9 766.4,243.0 767.2,243.1 768.0,243.3 768.9,243.4 769.7,243.5 770.5,243.7 771.3,243.8 772.2,243.9 773.0,244.1 773.8,244.2 774.6,244.3 775.4,244.4 776.3,244.5 777.1,244.7 777.9,244.8 778.7,244.9 779.5,245.0 780.4,245.1 781.2,245.2 782.0,245.4 782.8,245.5 783.6,245.6 784.4,245.7 785.2,245.8 786.1,245.9 786.9,246.0 787.7,246.1 788.5,246.3 789.3,246.4 790.1,246.5 791.0,246.6 791.8,246.7 792.6,246.8 793.4,246.9 794.2,247.0 795.0,247.1 795.9,247.2 796.7,247.4 797.5,247.5 798.3,247.6 799.1,247.7 799.9,247.8" fill="none" stroke="#2ecc71" stroke-width="1.3" stroke-linejoin="round" clip-path="url(#pc46)"/>
  <defs><clipPath id="pc47"><rect x="34" y="221" width="358" height="155"/></clipPath></defs>
  <polyline points="37.5,246.8 70.1,246.8 89.2,246.8 102.8,246.8 113.3,246.8 121.9,246.8 129.1,246.8 135.4,246.8 141.0,246.8 145.9,246.8 150.4,246.8 154.5,246.8 158.3,246.8 161.8,246.8 165.0,246.8 168.1,246.8 170.9,246.8 173.6,246.8 176.2,246.8 178.6,246.8 180.9,246.8 183.1,246.8 185.2,246.8 187.2,246.8 189.1,246.8 190.9,246.9 192.7,246.9 194.4,246.9 196.1,246.9 197.7,246.9 199.2,246.9 200.7,246.9 202.2,246.9 203.6,247.0 204.9,247.0 206.3,247.0 207.6,247.1 208.8,247.1 210.0,247.2 211.2,247.2 212.4,247.3 213.5,247.4 214.6,247.5 215.7,247.6 216.8,247.7 217.8,247.9 218.8,248.0 219.8,248.2 220.8,248.5 221.7,248.7 222.7,249.0 223.6,249.3 224.5,249.6 225.4,250.0 226.2,250.5 227.1,250.9 227.9,251.5 228.7,252.0 229.5,252.7 231.1,254.2 232.6,256.0 234.1,258.1 235.5,260.5 236.9,263.3 238.2,266.6 239.6,270.2 240.8,274.3 242.1,278.7 243.3,283.5 244.5,288.5 245.6,293.8 246.7,299.2 247.8,304.6 248.9,309.9 249.9,315.0 251.0,319.9 252.0,324.4 252.9,328.6 253.9,332.3 254.8,335.5 255.8,338.3 256.7,340.7 257.6,342.6 258.4,344.1 259.3,345.3 260.1,346.1 261.0,346.7 261.8,346.9 263.0,347.0 264.1,346.6 265.3,345.9 266.4,345.0 267.5,343.8 268.5,342.6 269.6,341.3 270.6,339.9 271.6,338.5 272.5,337.0 273.5,335.6 274.4,334.1 275.3,332.7 276.2,331.3 277.1,329.9 278.0,328.6 278.8,327.2 279.6,326.0 280.5,324.7 281.3,323.5 282.3,321.9 283.4,320.4 284.4,318.9 285.3,317.5 286.3,316.1 287.3,314.8 288.2,313.5 289.1,312.3 290.0,311.1 290.9,310.0 291.7,308.9 292.6,307.9 293.4,306.9 294.2,305.9 295.0,304.9 296.0,303.8 297.0,302.7 297.9,301.6 298.8,300.6 299.7,299.7 300.6,298.7 301.5,297.8 302.4,297.0 303.2,296.1 304.0,295.3 304.9,294.5 305.8,293.7 306.7,292.8 307.7,292.0 308.6,291.2 309.5,290.4 310.3,289.7 311.2,289.0 312.0,288.3 312.8,287.7 313.7,287.0 314.6,286.3 315.5,285.7 316.4,285.0 317.3,284.4 318.1,283.8 319.0,283.2 319.8,282.6 320.6,282.1 321.4,281.6 322.3,281.0 323.2,280.5 324.1,280.0 324.9,279.5 325.7,279.0 326.6,278.5 327.4,278.1 328.3,277.6 329.1,277.1 330.0,276.7 330.8,276.3 331.7,275.9 332.5,275.5 333.3,275.1 334.2,274.7 335.0,274.3 335.9,274.0 336.7,273.6 337.5,273.3 338.4,273.0 339.2,272.6 340.1,272.3 340.9,272.0 341.7,271.7 342.5,271.4 343.4,271.2 344.2,270.9 345.1,270.6 345.9,270.4 346.7,270.2 347.6,269.9 348.4,269.7 349.2,269.5 350.0,269.3 350.9,269.1 351.7,268.9 352.6,268.7 353.4,268.6 354.2,268.4 355.1,268.3 355.9,268.1 356.7,268.0 357.6,267.9 358.4,267.8 359.2,267.7 360.0,267.7 360.9,267.6 361.7,267.6 362.5,267.5 363.3,267.5 364.2,267.5 365.0,267.5 365.8,267.5 366.6,267.6 367.4,267.7 368.3,267.7 369.1,267.8 369.9,268.0 370.7,268.1 371.5,268.3 372.4,268.5 373.2,268.7 374.0,269.0 374.8,269.3 375.6,269.7 376.4,270.1 377.2,270.5 378.1,271.1 378.9,271.6 379.7,272.3 380.5,273.0 381.3,273.9 382.1,274.8 383.0,275.9 383.8,277.2 384.6,278.6 385.4,280.4 386.2,282.3 387.0,284.7 387.9,287.6 388.7,291.1 389.5,295.3 390.3,300.8 391.1,307.9 391.9,317.7" fill="none" stroke="#2ecc71" stroke-width="1.3" stroke-linejoin="round" clip-path="url(#pc47)"/>
  <defs><clipPath id="pc48"><rect x="442" y="221" width="358" height="155"/></clipPath></defs>
  <polyline points="442.0,376.0 445.0,376.0 448.0,375.9 450.9,375.7 453.9,375.3 456.9,374.7 459.9,373.7 462.9,372.3 465.9,370.4 468.9,368.0 471.8,365.1 474.8,361.6 477.8,357.6 480.8,353.1 483.8,348.1 486.8,342.7 489.7,336.9 492.7,330.9 495.7,324.6 498.7,318.2 501.7,311.7 504.6,305.3 507.6,298.9 510.6,292.7 513.6,286.7 516.6,281.0 519.6,275.6 522.5,270.5 525.5,265.9 528.5,261.7 531.5,258.0 534.5,254.7 537.5,251.9 540.5,249.5 543.4,247.6 546.4,246.1 549.4,245.0 552.4,244.2 555.4,243.9 558.4,243.8 561.3,244.0 564.3,244.4 567.3,245.1 570.3,245.9 573.3,246.8 576.3,247.9 579.2,249.0 582.2,250.1 585.2,251.3 588.2,252.4 591.2,253.5 594.1,254.6 597.1,255.6 600.1,256.5 603.1,257.3 606.1,258.0 609.1,258.7 612.0,259.2 615.0,259.6 618.0,259.9 621.0,260.2 624.0,260.3 627.0,260.4 630.0,260.3 632.9,260.2 635.9,260.1 638.9,259.9 641.9,259.7 644.9,259.4 647.9,259.1 650.8,258.8 653.8,258.5 656.8,258.2 659.8,257.9 662.8,257.6 665.8,257.3 668.7,257.0 671.7,256.8 674.7,256.5 677.7,256.4 680.7,256.2 683.6,256.1 686.6,255.9 689.6,255.9 692.6,255.8 695.6,255.8 698.6,255.8 701.5,255.8 704.5,255.8 707.5,255.9 710.5,255.9 713.5,256.0 716.5,256.1 719.5,256.1 722.4,256.2 725.4,256.3 728.4,256.4 731.4,256.5 734.4,256.6 737.3,256.6 740.3,256.7 743.3,256.8 746.3,256.8 749.3,256.9 752.3,256.9 755.3,257.0 758.2,257.0 761.2,257.0 764.2,257.0 767.2,257.0 770.2,257.0 773.2,257.0 776.1,257.0 779.1,257.0 782.1,257.0 785.1,257.0 788.1,257.0 791.0,256.9 794.0,256.9 797.0,256.9" fill="none" stroke="#2ecc71" stroke-width="1.3" stroke-linejoin="round" clip-path="url(#pc48)"/>
  <defs><clipPath id="pc49"><rect x="34" y="16" width="358" height="155"/></clipPath></defs>
  <polyline points="37.5,47.0 70.1,47.0 89.2,47.0 102.8,47.0 113.3,47.0 121.9,47.0 129.1,47.0 135.4,47.0 141.0,47.0 145.9,47.0 150.4,47.0 154.5,47.0 158.3,47.0 161.8,47.0 165.0,47.0 168.1,47.0 170.9,47.0 173.6,47.0 176.2,47.0 178.6,47.0 180.9,47.0 183.1,47.0 185.2,47.0 187.2,47.0 189.1,47.0 190.9,47.0 192.7,47.0 194.4,47.0 196.1,47.0 197.7,47.0 199.2,47.0 200.7,47.0 202.2,47.0 203.6,47.0 204.9,47.0 206.3,47.0 207.6,47.0 208.8,47.0 210.0,47.0 211.2,47.0 212.4,47.0 213.5,47.0 214.6,47.0 215.7,47.0 216.8,47.0 217.8,47.0 218.8,47.0 219.8,47.0 220.8,47.0 221.7,47.0 222.7,47.0 223.6,47.0 224.5,47.0 225.4,47.0 226.2,47.0 227.1,47.0 227.9,47.0 228.7,47.0 229.5,47.0 231.1,47.0 232.6,47.0 234.1,47.0 235.5,47.0 236.9,47.1 238.2,47.1 239.6,47.1 240.8,47.2 242.1,47.3 243.3,47.5 244.5,47.7 245.6,48.0 246.7,48.5 247.8,49.0 248.9,49.7 249.9,50.7 251.0,51.7 252.0,53.0 252.9,54.4 253.9,56.0 254.8,57.6 255.8,59.4 256.7,61.1 257.6,63.0 258.4,64.8 259.3,66.6 260.1,68.5 261.0,70.3 261.8,72.1 263.0,74.8 264.1,77.5 265.3,80.1 266.4,82.6 267.5,85.1 268.5,87.5 269.6,89.9 270.6,92.2 271.6,94.5 272.5,96.7 273.5,98.9 274.4,101.1 275.3,103.2 276.2,105.3 277.1,107.3 278.0,109.3 278.8,111.2 279.6,113.2 280.5,115.1 281.3,116.9 282.3,119.4 283.4,121.8 284.4,124.1 285.3,126.4 286.3,128.6 287.3,130.8 288.2,133.0 289.1,135.1 290.0,137.2 290.9,139.2 291.7,141.2 292.6,143.2 293.4,145.1 294.2,147.0 295.0,148.9 296.0,151.2 297.0,153.5 297.9,155.7 298.8,157.8 299.7,160.0 300.6,162.1 301.5,164.1 302.4,166.1 303.2,168.1 304.0,170.1 304.9,172.0 305.8,174.3 306.7,176.5 307.7,178.7 308.6,180.8 309.5,182.9 310.3,185.0 311.2,187.1 312.0,189.1 312.8,191.0 313.7,193.0 314.6,195.2 315.5,197.4 316.4,199.6 317.3,201.7 318.1,203.8 319.0,205.8 319.8,207.8 320.6,209.8 321.4,211.8 322.3,214.0 323.2,216.1 324.1,218.3 324.9,220.4 325.7,222.5 326.6,224.5 327.4,226.5 328.3,228.7 329.1,230.9 330.0,233.1 330.8,235.2 331.7,237.3 332.5,239.4 333.3,241.5 334.2,243.7 335.0,245.9 335.9,248.1 336.7,250.3 337.5,252.4 338.4,254.7 339.2,257.0 340.1,259.3 340.9,261.5 341.7,263.7 342.5,265.9 343.4,268.2 344.2,270.5 345.1,272.8 345.9,275.1 346.7,277.3 347.6,279.7 348.4,282.1 349.2,284.5 350.0,286.8 350.9,289.3 351.7,291.8 352.6,294.3 353.4,296.7 354.2,299.3 355.1,301.9 355.9,304.5 356.7,307.0 357.6,309.7 358.4,312.4 359.2,315.1 360.0,317.8 360.9,320.6 361.7,323.4 362.5,326.2 363.3,329.2 364.2,332.2 365.0,335.1 365.8,338.1 366.6,341.3 367.4,344.4 368.3,347.6 369.1,350.9 369.9,354.3 370.7,357.7 371.5,361.3 372.4,364.9 373.2,368.6 374.0,372.5 374.8,376.4 375.6,380.6 376.4,384.8 377.2,389.1 378.1,393.7 378.9,398.4 379.7,403.4 380.5,408.6 381.3,413.9 382.1,419.6 383.0,425.6 383.8,432.0 384.6,438.7 385.4,446.0 386.2,453.7 387.0,462.2 387.9,471.3 388.7,481.5 389.5,492.6 390.3,505.3 391.1,519.5 391.9,536.3" fill="none" stroke="#f39c12" stroke-width="1.3" stroke-linejoin="round" clip-path="url(#pc49)"/>
  <defs><clipPath id="pc50"><rect x="442" y="16" width="358" height="155"/></clipPath></defs>
  <polyline points="445.5,94.9 478.1,96.2 497.2,97.6 510.8,98.9 521.3,100.3 529.9,101.7 537.1,103.0 543.4,104.4 549.0,105.7 553.9,107.1 558.4,108.5 562.5,109.8 566.3,111.2 569.8,112.6 573.0,114.0 576.1,115.3 578.9,116.7 581.6,118.1 584.2,119.5 586.6,120.8 588.9,122.2 591.1,123.6 593.2,125.0 595.2,126.4 597.1,127.8 598.9,129.2 600.7,130.6 602.4,132.0 604.1,133.4 605.7,134.8 607.2,136.2 608.7,137.6 610.2,139.1 611.6,140.5 612.9,141.9 614.3,143.4 615.6,144.8 616.8,146.2 618.0,147.7 619.2,149.2 620.4,150.6 621.5,152.1 622.6,153.6 623.7,155.1 624.8,156.5 625.8,158.0 626.8,159.6 627.8,161.1 628.8,162.6 629.7,164.1 630.7,165.7 631.6,167.2 632.5,168.8 633.4,170.3 634.2,171.9 635.1,173.5 635.9,175.1 636.7,176.7 637.5,178.4 639.1,181.7 640.6,185.0 642.1,188.5 643.5,192.0 644.9,195.6 646.2,199.3 647.6,203.1 648.8,207.1 650.1,211.2 651.3,215.4 652.5,219.9 653.6,224.4 654.7,229.2 655.8,234.0 656.9,238.9 657.9,243.9 659.0,248.8 660.0,253.6 660.9,258.2 661.9,262.7 662.8,266.9 663.8,270.8 664.7,274.5 665.6,278.0 666.4,281.3 667.3,284.3 668.1,287.2 669.0,289.9 669.8,292.5 671.0,296.1 672.1,299.4 673.3,302.4 674.4,305.3 675.5,308.0 676.5,310.5 677.6,312.9 678.6,315.2 679.6,317.3 680.5,319.3 681.5,321.2 682.4,323.0 683.3,324.8 684.2,326.4 685.1,328.0 686.0,329.6 686.8,331.0 687.6,332.4 688.5,333.8 689.3,335.1 690.3,336.7 691.4,338.3 692.4,339.8 693.3,341.2 694.3,342.6 695.3,343.9 696.2,345.1 697.1,346.3 698.0,347.5 698.9,348.6 699.7,349.6 700.6,350.6 701.4,351.6 702.2,352.6 703.0,353.5 704.0,354.6 705.0,355.6 705.9,356.6 706.8,357.6 707.7,358.5 708.6,359.4 709.5,360.3 710.4,361.1 711.2,361.9 712.0,362.7 712.9,363.4 713.8,364.3 714.7,365.1 715.7,365.9 716.6,366.6 717.5,367.4 718.3,368.1 719.2,368.7 720.0,369.4 720.8,370.0 721.7,370.6 722.6,371.3 723.5,372.0 724.4,372.6 725.3,373.2 726.1,373.8 727.0,374.4 727.8,374.9 728.6,375.5 729.4,376.0 730.3,376.5 731.2,377.1 732.1,377.6 732.9,378.1 733.7,378.6 734.6,379.1 735.4,379.5 736.3,380.0 737.1,380.5 738.0,381.0 738.8,381.4 739.7,381.8 740.5,382.2 741.3,382.6 742.2,383.1 743.0,383.5 743.9,383.9 744.7,384.3 745.5,384.7 746.4,385.1 747.2,385.5 748.1,385.8 748.9,386.2 749.7,386.6 750.5,386.9 751.4,387.3 752.2,387.6 753.1,387.9 753.9,388.3 754.7,388.6 755.6,388.9 756.4,389.2 757.2,389.5 758.0,389.8 758.9,390.2 759.7,390.5 760.6,390.8 761.4,391.0 762.2,391.3 763.1,391.6 763.9,391.9 764.7,392.2 765.6,392.5 766.4,392.7 767.2,393.0 768.0,393.3 768.9,393.5 769.7,393.8 770.5,394.0 771.3,394.3 772.2,394.5 773.0,394.8 773.8,395.0 774.6,395.3 775.4,395.5 776.3,395.7 777.1,396.0 777.9,396.2 778.7,396.4 779.5,396.7 780.4,396.9 781.2,397.1 782.0,397.3 782.8,397.6 783.6,397.8 784.4,398.0 785.2,398.2 786.1,398.4 786.9,398.7 787.7,398.9 788.5,399.1 789.3,399.3 790.1,399.5 791.0,399.7 791.8,400.0 792.6,400.2 793.4,400.4 794.2,400.6 795.0,400.8 795.9,401.0 796.7,401.3 797.5,401.5 798.3,401.7 799.1,401.9 799.9,402.2" fill="none" stroke="#f39c12" stroke-width="1.3" stroke-linejoin="round" clip-path="url(#pc50)"/>
  <defs><clipPath id="pc51"><rect x="34" y="221" width="358" height="155"/></clipPath></defs>
  <polyline points="37.5,246.8 70.1,246.8 89.2,246.8 102.8,246.8 113.3,246.8 121.9,246.8 129.1,246.8 135.4,246.8 141.0,246.8 145.9,246.8 150.4,246.8 154.5,246.8 158.3,246.8 161.8,246.8 165.0,246.8 168.1,246.8 170.9,246.8 173.6,246.8 176.2,246.8 178.6,246.8 180.9,246.8 183.1,246.8 185.2,246.8 187.2,246.8 189.1,246.8 190.9,246.8 192.7,246.8 194.4,246.8 196.1,246.8 197.7,246.8 199.2,246.8 200.7,246.8 202.2,246.8 203.6,246.8 204.9,246.8 206.3,246.8 207.6,246.8 208.8,246.8 210.0,246.8 211.2,246.8 212.4,246.8 213.5,246.8 214.6,246.8 215.7,246.8 216.8,246.8 217.8,246.8 218.8,246.8 219.8,246.8 220.8,246.9 221.7,246.9 222.7,246.9 223.6,246.9 224.5,246.9 225.4,246.9 226.2,246.9 227.1,247.0 227.9,247.0 228.7,247.1 229.5,247.1 231.1,247.4 232.6,247.7 234.1,248.2 235.5,249.0 236.9,250.1 238.2,251.9 239.6,254.4 240.8,258.1 242.1,263.3 243.3,270.5 244.5,280.2 245.6,292.8 246.7,308.6 247.8,327.4 248.9,348.6 249.9,371.2 251.0,393.7 252.0,414.7 252.9,432.9 253.9,447.9 254.8,459.4 255.8,467.6 256.7,473.0 257.6,476.2 258.4,477.6 259.3,477.6 260.1,476.6 261.0,475.0 261.8,472.8 263.0,469.0 264.1,464.8 265.3,460.4 266.4,456.0 267.5,451.6 268.5,447.4 269.6,443.2 270.6,439.2 271.6,435.3 272.5,431.6 273.5,428.0 274.4,424.5 275.3,421.2 276.2,418.0 277.1,414.9 278.0,411.9 278.8,409.0 279.6,406.2 280.5,403.5 281.3,400.9 282.3,397.6 283.4,394.5 284.4,391.4 285.3,388.5 286.3,385.7 287.3,383.0 288.2,380.5 289.1,378.0 290.0,375.6 290.9,373.3 291.7,371.1 292.6,369.0 293.4,367.0 294.2,365.0 295.0,363.1 296.0,360.8 297.0,358.6 297.9,356.5 298.8,354.4 299.7,352.5 300.6,350.6 301.5,348.8 302.4,347.1 303.2,345.4 304.0,343.8 304.9,342.3 305.8,340.5 306.7,338.8 307.7,337.1 308.6,335.5 309.5,334.0 310.3,332.6 311.2,331.1 312.0,329.8 312.8,328.5 313.7,327.2 314.6,325.8 315.5,324.5 316.4,323.2 317.3,321.9 318.1,320.7 319.0,319.6 319.8,318.5 320.6,317.4 321.4,316.4 322.3,315.2 323.2,314.1 324.1,313.1 324.9,312.1 325.7,311.1 326.6,310.2 327.4,309.3 328.3,308.4 329.1,307.5 330.0,306.6 330.8,305.7 331.7,304.9 332.5,304.2 333.3,303.4 334.2,302.6 335.0,301.9 335.9,301.1 336.7,300.4 337.5,299.8 338.4,299.1 339.2,298.4 340.1,297.8 340.9,297.2 341.7,296.6 342.5,296.0 343.4,295.5 344.2,294.9 345.1,294.4 345.9,293.9 346.7,293.5 347.6,293.0 348.4,292.6 349.2,292.1 350.0,291.7 350.9,291.3 351.7,291.0 352.6,290.6 353.4,290.3 354.2,290.0 355.1,289.7 355.9,289.5 356.7,289.2 357.6,289.0 358.4,288.8 359.2,288.6 360.0,288.5 360.9,288.4 361.7,288.3 362.5,288.2 363.3,288.2 364.2,288.2 365.0,288.2 365.8,288.2 366.6,288.3 367.4,288.5 368.3,288.6 369.1,288.9 369.9,289.1 370.7,289.4 371.5,289.8 372.4,290.2 373.2,290.7 374.0,291.2 374.8,291.8 375.6,292.6 376.4,293.4 377.2,294.3 378.1,295.3 378.9,296.4 379.7,297.8 380.5,299.3 381.3,300.9 382.1,302.9 383.0,305.0 383.8,307.6 384.6,310.5 385.4,313.9 386.2,317.8 387.0,322.6 387.9,328.3 388.7,335.3 389.5,343.8 390.3,354.8 391.1,369.0 391.9,388.5" fill="none" stroke="#f39c12" stroke-width="1.3" stroke-linejoin="round" clip-path="url(#pc51)"/>
  <defs><clipPath id="pc52"><rect x="442" y="221" width="358" height="155"/></clipPath></defs>
  <polyline points="442.0,376.0 445.0,376.0 448.0,376.0 450.9,376.0 453.9,376.0 456.9,376.0 459.9,376.0 462.9,376.0 465.9,376.0 468.9,376.0 471.8,376.0 474.8,375.9 477.8,375.9 480.8,375.8 483.8,375.7 486.8,375.5 489.7,375.3 492.7,375.0 495.7,374.6 498.7,374.0 501.7,373.4 504.6,372.5 507.6,371.5 510.6,370.2 513.6,368.7 516.6,366.9 519.6,364.9 522.5,362.5 525.5,359.9 528.5,356.9 531.5,353.6 534.5,349.9 537.5,346.0 540.5,341.7 543.4,337.1 546.4,332.3 549.4,327.2 552.4,321.9 555.4,316.5 558.4,310.9 561.3,305.2 564.3,299.5 567.3,293.8 570.3,288.1 573.3,282.6 576.3,277.2 579.2,272.0 582.2,267.0 585.2,262.4 588.2,258.1 591.2,254.1 594.1,250.5 597.1,247.4 600.1,244.6 603.1,242.3 606.1,240.4 609.1,239.0 612.0,238.0 615.0,237.4 618.0,237.2 621.0,237.4 624.0,237.9 627.0,238.7 630.0,239.8 632.9,241.2 635.9,242.7 638.9,244.4 641.9,246.2 644.9,248.1 647.9,250.0 650.8,252.0 653.8,253.9 656.8,255.7 659.8,257.4 662.8,259.0 665.8,260.5 668.7,261.8 671.7,262.9 674.7,263.8 677.7,264.6 680.7,265.1 683.6,265.4 686.6,265.6 689.6,265.6 692.6,265.4 695.6,265.0 698.6,264.5 701.5,263.9 704.5,263.2 707.5,262.4 710.5,261.5 713.5,260.6 716.5,259.6 719.5,258.7 722.4,257.8 725.4,256.9 728.4,256.1 731.4,255.3 734.4,254.6 737.3,254.0 740.3,253.4 743.3,253.0 746.3,252.7 749.3,252.4 752.3,252.3 755.3,252.3 758.2,252.3 761.2,252.4 764.2,252.7 767.2,252.9 770.2,253.3 773.2,253.7 776.1,254.1 779.1,254.6 782.1,255.1 785.1,255.6 788.1,256.0 791.0,256.5 794.0,257.0 797.0,257.4" fill="none" stroke="#f39c12" stroke-width="1.3" stroke-linejoin="round" clip-path="url(#pc52)"/>
  <rect x="48" y="107" width="92" height="58" fill="white" fill-opacity="0.85" rx="3"/>
  <line x1="54" y1="118" x2="66" y2="118" stroke="#4a90d9" stroke-width="2"/>
  <text x="70" y="121" font-size="8" fill="#6b7280">N=1</text>
  <line x1="54" y1="130" x2="66" y2="130" stroke="#e74c3c" stroke-width="2"/>
  <text x="70" y="133" font-size="8" fill="#6b7280">N=2</text>
  <line x1="54" y1="142" x2="66" y2="142" stroke="#2ecc71" stroke-width="2"/>
  <text x="70" y="145" font-size="8" fill="#6b7280">N=4</text>
  <line x1="54" y1="154" x2="66" y2="154" stroke="#f39c12" stroke-width="2"/>
  <text x="70" y="157" font-size="8" fill="#6b7280">N=8</text>
</svg>
