<svg xmlns="http://www.w3.org/2000/svg" viewBox="0 0 820 378" style="font-family:system-ui,-apple-system,sans-serif">
  <text x="800" y="11" text-anchor="end" font-size="11" font-weight="600" fill="#6b7280">Butterworth HP order 4, fc=1kHz</text>
  <line x1="34" y1="16" x2="34" y2="171" stroke="#d1d5db"/>
  <line x1="34" y1="47.0" x2="399" y2="47.0" stroke="#d1d5db"/>
  <text x="216.5" y="197" text-anchor="middle" font-size="9" fill="#6b7280">Hz</text>
  <text x="12" y="93.5" text-anchor="middle" font-size="9" fill="#6b7280" transform="rotate(-90 12 93.5)">dB</text>
  <line x1="67.3" y1="16" x2="67.3" y2="171" stroke="#e5e7eb" stroke-width="0.5"/>
  <line x1="86.8" y1="16" x2="86.8" y2="171" stroke="#e5e7eb" stroke-width="0.5"/>
  <line x1="100.6" y1="16" x2="100.6" y2="171" stroke="#e5e7eb" stroke-width="0.5"/>
  <line x1="111.3" y1="16" x2="111.3" y2="171" stroke="#e5e7eb" stroke-width="0.5"/>
  <line x1="120.0" y1="16" x2="120.0" y2="171" stroke="#e5e7eb" stroke-width="0.5"/>
  <line x1="127.4" y1="16" x2="127.4" y2="171" stroke="#e5e7eb" stroke-width="0.5"/>
  <line x1="133.9" y1="16" x2="133.9" y2="171" stroke="#e5e7eb" stroke-width="0.5"/>
  <line x1="139.5" y1="16" x2="139.5" y2="171" stroke="#e5e7eb" stroke-width="0.5"/>
  <line x1="177.9" y1="16" x2="177.9" y2="171" stroke="#e5e7eb" stroke-width="0.5"/>
  <line x1="197.3" y1="16" x2="197.3" y2="171" stroke="#e5e7eb" stroke-width="0.5"/>
  <line x1="211.1" y1="16" x2="211.1" y2="171" stroke="#e5e7eb" stroke-width="0.5"/>
  <line x1="221.9" y1="16" x2="221.9" y2="171" stroke="#e5e7eb" stroke-width="0.5"/>
  <line x1="230.6" y1="16" x2="230.6" y2="171" stroke="#e5e7eb" stroke-width="0.5"/>
  <line x1="238.0" y1="16" x2="238.0" y2="171" stroke="#e5e7eb" stroke-width="0.5"/>
  <line x1="244.4" y1="16" x2="244.4" y2="171" stroke="#e5e7eb" stroke-width="0.5"/>
  <line x1="250.1" y1="16" x2="250.1" y2="171" stroke="#e5e7eb" stroke-width="0.5"/>
  <line x1="288.4" y1="16" x2="288.4" y2="171" stroke="#e5e7eb" stroke-width="0.5"/>
  <line x1="307.9" y1="16" x2="307.9" y2="171" stroke="#e5e7eb" stroke-width="0.5"/>
  <line x1="321.7" y1="16" x2="321.7" y2="171" stroke="#e5e7eb" stroke-width="0.5"/>
  <line x1="332.4" y1="16" x2="332.4" y2="171" stroke="#e5e7eb" stroke-width="0.5"/>
  <line x1="341.2" y1="16" x2="341.2" y2="171" stroke="#e5e7eb" stroke-width="0.5"/>
  <line x1="348.6" y1="16" x2="348.6" y2="171" stroke="#e5e7eb" stroke-width="0.5"/>
  <line x1="355.0" y1="16" x2="355.0" y2="171" stroke="#e5e7eb" stroke-width="0.5"/>
  <line x1="360.7" y1="16" x2="360.7" y2="171" stroke="#e5e7eb" stroke-width="0.5"/>
  <line x1="399.0" y1="16" x2="399.0" y2="171" stroke="#e5e7eb" stroke-width="0.5"/>
  <line x1="144.6" y1="16" x2="144.6" y2="171" stroke="#e5e7eb" stroke-width="0.5"/>
  <text x="144.6" y="183" text-anchor="middle" font-size="8" fill="#6b7280">100</text>
  <line x1="255.1" y1="16" x2="255.1" y2="171" stroke="#e5e7eb" stroke-width="0.5"/>
  <text x="255.1" y="183" text-anchor="middle" font-size="8" fill="#6b7280">1k</text>
  <line x1="365.7" y1="16" x2="365.7" y2="171" stroke="#e5e7eb" stroke-width="0.5"/>
  <text x="365.7" y="183" text-anchor="middle" font-size="8" fill="#6b7280">10k</text>
  <line x1="34" y1="31.5" x2="399" y2="31.5" stroke="#e5e7eb" stroke-width="0.5"/>
  <line x1="34" y1="62.5" x2="399" y2="62.5" stroke="#e5e7eb" stroke-width="0.5"/>
  <line x1="34" y1="16.0" x2="399" y2="16.0" stroke="#e5e7eb" stroke-width="0.5"/>
  <text x="30" y="19.0" text-anchor="end" font-size="8" fill="#6b7280">+20</text>
  <text x="30" y="50.0" text-anchor="end" font-size="8" fill="#6b7280">0</text>
  <line x1="34" y1="78.0" x2="399" y2="78.0" stroke="#e5e7eb" stroke-width="0.5"/>
  <text x="30" y="81.0" text-anchor="end" font-size="8" fill="#6b7280">-20</text>
  <line x1="34" y1="109.0" x2="399" y2="109.0" stroke="#e5e7eb" stroke-width="0.5"/>
  <text x="30" y="112.0" text-anchor="end" font-size="8" fill="#6b7280">-40</text>
  <line x1="34" y1="140.0" x2="399" y2="140.0" stroke="#e5e7eb" stroke-width="0.5"/>
  <text x="30" y="143.0" text-anchor="end" font-size="8" fill="#6b7280">-60</text>
  <line x1="34" y1="171.0" x2="399" y2="171.0" stroke="#e5e7eb" stroke-width="0.5"/>
  <text x="30" y="174.0" text-anchor="end" font-size="8" fill="#6b7280">-80</text>
  <line x1="255.1" y1="16" x2="255.1" y2="171" stroke="#d1d5db" stroke-width="1" stroke-dasharray="4 3"/>
  <defs><linearGradient id="g49" x1="0" y1="16" x2="0" y2="171" gradientUnits="userSpaceOnUse">
    <stop offset="0%" stop-color="#4a90d9" stop-opacity="0.15"/>
    <stop offset="100%" stop-color="#4a90d9" stop-opacity="0.02"/>
  </linearGradient></defs>
  <path d="M37.5,171.0 37.5,171.0 70.8,171.0 90.3,171.0 104.1,171.0 114.8,171.0 123.6,171.0 131.0,171.0 137.4,171.0 143.1,171.0 148.1,167.1 152.7,162.0 156.9,157.3 160.7,153.0 164.3,149.0 167.6,145.3 170.7,141.8 173.6,138.5 176.3,135.5 178.9,132.5 181.4,129.8 183.7,127.2 186.0,124.6 188.1,122.3 190.2,120.0 192.1,117.8 194.0,115.6 195.8,113.6 197.6,111.7 199.2,109.8 200.9,107.9 202.4,106.2 204.0,104.5 205.5,102.8 206.9,101.2 208.3,99.6 209.6,98.1 210.9,96.6 212.2,95.2 213.5,93.8 214.7,92.4 215.9,91.1 217.0,89.8 218.2,88.6 219.3,87.3 220.3,86.1 221.4,84.9 222.4,83.8 223.4,82.6 224.4,81.5 225.4,80.5 226.4,79.4 227.3,78.4 228.2,77.3 229.1,76.4 230.0,75.4 230.8,74.4 231.7,73.5 232.5,72.6 233.4,71.7 234.2,70.8 235.7,69.1 237.3,67.4 238.7,65.9 240.2,64.4 241.6,62.9 242.9,61.6 244.2,60.3 245.5,59.1 246.8,57.9 248.0,56.8 249.2,55.8 250.3,54.9 251.4,54.1 252.6,53.3 253.6,52.6 254.7,51.9 255.7,51.3 256.7,50.8 257.7,50.4 258.7,50.0 259.6,49.6 260.6,49.3 261.5,49.0 262.4,48.8 263.3,48.5 264.1,48.4 265.0,48.2 265.8,48.0 266.6,47.9 267.4,47.8 268.6,47.7 269.8,47.6 270.9,47.5 272.0,47.4 273.1,47.3 274.2,47.3 275.2,47.2 276.2,47.2 277.2,47.2 278.2,47.1 279.1,47.1 280.0,47.1 281.0,47.1 281.9,47.1 282.7,47.1 283.6,47.1 284.5,47.0 285.3,47.0 286.1,47.0 286.9,47.0 288.0,47.0 289.0,47.0 290.0,47.0 291.0,47.0 292.0,47.0 292.9,47.0 293.9,47.0 294.8,47.0 295.7,47.0 296.6,47.0 297.4,47.0 298.3,47.0 299.1,47.0 299.9,47.0 300.7,47.0 301.7,47.0 302.7,47.0 303.6,47.0 304.6,47.0 305.5,47.0 306.4,47.0 307.3,47.0 308.1,47.0 309.0,47.0 309.8,47.0 310.6,47.0 311.4,47.0 312.4,47.0 313.3,47.0 314.2,47.0 315.1,47.0 316.0,47.0 316.9,47.0 317.7,47.0 318.6,47.0 319.4,47.0 320.2,47.0 321.1,47.0 322.0,47.0 322.9,47.0 323.8,47.0 324.7,47.0 325.5,47.0 326.3,47.0 327.1,47.0 327.9,47.0 328.8,47.0 329.7,47.0 330.6,47.0 331.4,47.0 332.3,47.0 333.1,47.0 333.9,47.0 334.8,47.0 335.7,47.0 336.5,47.0 337.4,47.0 338.2,47.0 339.0,47.0 339.8,47.0 340.7,47.0 341.6,47.0 342.4,47.0 343.3,47.0 344.1,47.0 344.9,47.0 345.8,47.0 346.6,47.0 347.5,47.0 348.3,47.0 349.1,47.0 350.0,47.0 350.8,47.0 351.7,47.0 352.5,47.0 353.3,47.0 354.1,47.0 355.0,47.0 355.8,47.0 356.6,47.0 357.5,47.0 358.3,47.0 359.1,47.0 360.0,47.0 360.8,47.0 361.6,47.0 362.5,47.0 363.3,47.0 364.1,47.0 364.9,47.0 365.8,47.0 366.6,47.0 367.4,47.0 368.2,47.0 369.1,47.0 369.9,47.0 370.7,47.0 371.6,47.0 372.4,47.0 373.2,47.0 374.0,47.0 374.8,47.0 375.6,47.0 376.5,47.0 377.3,47.0 378.1,47.0 378.9,47.0 379.7,47.0 380.5,47.0 381.4,47.0 382.2,47.0 383.0,47.0 383.8,47.0 384.6,47.0 385.5,47.0 386.3,47.0 387.1,47.0 387.9,47.0 388.7,47.0 389.5,47.0 390.3,47.0 391.2,47.0 392.0,47.0 392.8,47.0 393.6,47.0 394.4,47.0 395.2,47.0 396.0,47.0 396.8,47.0 397.6,47.0 398.5,47.0 L398.5,171.0 L37.5,171.0 Z" fill="url(#g49)"/>
  <defs><clipPath id="pc50"><rect x="34" y="16" width="365" height="155"/></clipPath></defs>
  <polyline points="37.5,291.1 70.8,253.8 90.3,232.0 104.1,216.5 114.8,204.4 123.6,194.6 131.0,186.3 137.4,179.1 143.1,172.8 148.1,167.1 152.7,162.0 156.9,157.3 160.7,153.0 164.3,149.0 167.6,145.3 170.7,141.8 173.6,138.5 176.3,135.5 178.9,132.5 181.4,129.8 183.7,127.2 186.0,124.6 188.1,122.3 190.2,120.0 192.1,117.8 194.0,115.6 195.8,113.6 197.6,111.7 199.2,109.8 200.9,107.9 202.4,106.2 204.0,104.5 205.5,102.8 206.9,101.2 208.3,99.6 209.6,98.1 210.9,96.6 212.2,95.2 213.5,93.8 214.7,92.4 215.9,91.1 217.0,89.8 218.2,88.6 219.3,87.3 220.3,86.1 221.4,84.9 222.4,83.8 223.4,82.6 224.4,81.5 225.4,80.5 226.4,79.4 227.3,78.4 228.2,77.3 229.1,76.4 230.0,75.4 230.8,74.4 231.7,73.5 232.5,72.6 233.4,71.7 234.2,70.8 235.7,69.1 237.3,67.4 238.7,65.9 240.2,64.4 241.6,62.9 242.9,61.6 244.2,60.3 245.5,59.1 246.8,57.9 248.0,56.8 249.2,55.8 250.3,54.9 251.4,54.1 252.6,53.3 253.6,52.6 254.7,51.9 255.7,51.3 256.7,50.8 257.7,50.4 258.7,50.0 259.6,49.6 260.6,49.3 261.5,49.0 262.4,48.8 263.3,48.5 264.1,48.4 265.0,48.2 265.8,48.0 266.6,47.9 267.4,47.8 268.6,47.7 269.8,47.6 270.9,47.5 272.0,47.4 273.1,47.3 274.2,47.3 275.2,47.2 276.2,47.2 277.2,47.2 278.2,47.1 279.1,47.1 280.0,47.1 281.0,47.1 281.9,47.1 282.7,47.1 283.6,47.1 284.5,47.0 285.3,47.0 286.1,47.0 286.9,47.0 288.0,47.0 289.0,47.0 290.0,47.0 291.0,47.0 292.0,47.0 292.9,47.0 293.9,47.0 294.8,47.0 295.7,47.0 296.6,47.0 297.4,47.0 298.3,47.0 299.1,47.0 299.9,47.0 300.7,47.0 301.7,47.0 302.7,47.0 303.6,47.0 304.6,47.0 305.5,47.0 306.4,47.0 307.3,47.0 308.1,47.0 309.0,47.0 309.8,47.0 310.6,47.0 311.4,47.0 312.4,47.0 313.3,47.0 314.2,47.0 315.1,47.0 316.0,47.0 316.9,47.0 317.7,47.0 318.6,47.0 319.4,47.0 320.2,47.0 321.1,47.0 322.0,47.0 322.9,47.0 323.8,47.0 324.7,47.0 325.5,47.0 326.3,47.0 327.1,47.0 327.9,47.0 328.8,47.0 329.7,47.0 330.6,47.0 331.4,47.0 332.3,47.0 333.1,47.0 333.9,47.0 334.8,47.0 335.7,47.0 336.5,47.0 337.4,47.0 338.2,47.0 339.0,47.0 339.8,47.0 340.7,47.0 341.6,47.0 342.4,47.0 343.3,47.0 344.1,47.0 344.9,47.0 345.8,47.0 346.6,47.0 347.5,47.0 348.3,47.0 349.1,47.0 350.0,47.0 350.8,47.0 351.7,47.0 352.5,47.0 353.3,47.0 354.1,47.0 355.0,47.0 355.8,47.0 356.6,47.0 357.5,47.0 358.3,47.0 359.1,47.0 360.0,47.0 360.8,47.0 361.6,47.0 362.5,47.0 363.3,47.0 364.1,47.0 364.9,47.0 365.8,47.0 366.6,47.0 367.4,47.0 368.2,47.0 369.1,47.0 369.9,47.0 370.7,47.0 371.6,47.0 372.4,47.0 373.2,47.0 374.0,47.0 374.8,47.0 375.6,47.0 376.5,47.0 377.3,47.0 378.1,47.0 378.9,47.0 379.7,47.0 380.5,47.0 381.4,47.0 382.2,47.0 383.0,47.0 383.8,47.0 384.6,47.0 385.5,47.0 386.3,47.0 387.1,47.0 387.9,47.0 388.7,47.0 389.5,47.0 390.3,47.0 391.2,47.0 392.0,47.0 392.8,47.0 393.6,47.0 394.4,47.0 395.2,47.0 396.0,47.0 396.8,47.0 397.6,47.0 398.5,47.0" fill="none" stroke="#4a90d9" stroke-width="1.5" stroke-linejoin="round" clip-path="url(#pc50)"/>
  <line x1="435" y1="16" x2="435" y2="171" stroke="#d1d5db"/>
  <line x1="435" y1="93.5" x2="800" y2="93.5" stroke="#d1d5db"/>
  <text x="617.5" y="197" text-anchor="middle" font-size="9" fill="#6b7280">Hz</text>
  <text x="413" y="93.5" text-anchor="middle" font-size="9" fill="#6b7280" transform="rotate(-90 413 93.5)">Phase (deg)</text>
  <line x1="468.3" y1="16" x2="468.3" y2="171" stroke="#e5e7eb" stroke-width="0.5"/>
  <line x1="487.8" y1="16" x2="487.8" y2="171" stroke="#e5e7eb" stroke-width="0.5"/>
  <line x1="501.6" y1="16" x2="501.6" y2="171" stroke="#e5e7eb" stroke-width="0.5"/>
  <line x1="512.3" y1="16" x2="512.3" y2="171" stroke="#e5e7eb" stroke-width="0.5"/>
  <line x1="521.0" y1="16" x2="521.0" y2="171" stroke="#e5e7eb" stroke-width="0.5"/>
  <line x1="528.4" y1="16" x2="528.4" y2="171" stroke="#e5e7eb" stroke-width="0.5"/>
  <line x1="534.9" y1="16" x2="534.9" y2="171" stroke="#e5e7eb" stroke-width="0.5"/>
  <line x1="540.5" y1="16" x2="540.5" y2="171" stroke="#e5e7eb" stroke-width="0.5"/>
  <line x1="578.9" y1="16" x2="578.9" y2="171" stroke="#e5e7eb" stroke-width="0.5"/>
  <line x1="598.3" y1="16" x2="598.3" y2="171" stroke="#e5e7eb" stroke-width="0.5"/>
  <line x1="612.1" y1="16" x2="612.1" y2="171" stroke="#e5e7eb" stroke-width="0.5"/>
  <line x1="622.9" y1="16" x2="622.9" y2="171" stroke="#e5e7eb" stroke-width="0.5"/>
  <line x1="631.6" y1="16" x2="631.6" y2="171" stroke="#e5e7eb" stroke-width="0.5"/>
  <line x1="639.0" y1="16" x2="639.0" y2="171" stroke="#e5e7eb" stroke-width="0.5"/>
  <line x1="645.4" y1="16" x2="645.4" y2="171" stroke="#e5e7eb" stroke-width="0.5"/>
  <line x1="651.1" y1="16" x2="651.1" y2="171" stroke="#e5e7eb" stroke-width="0.5"/>
  <line x1="689.4" y1="16" x2="689.4" y2="171" stroke="#e5e7eb" stroke-width="0.5"/>
  <line x1="708.9" y1="16" x2="708.9" y2="171" stroke="#e5e7eb" stroke-width="0.5"/>
  <line x1="722.7" y1="16" x2="722.7" y2="171" stroke="#e5e7eb" stroke-width="0.5"/>
  <line x1="733.4" y1="16" x2="733.4" y2="171" stroke="#e5e7eb" stroke-width="0.5"/>
  <line x1="742.2" y1="16" x2="742.2" y2="171" stroke="#e5e7eb" stroke-width="0.5"/>
  <line x1="749.6" y1="16" x2="749.6" y2="171" stroke="#e5e7eb" stroke-width="0.5"/>
  <line x1="756.0" y1="16" x2="756.0" y2="171" stroke="#e5e7eb" stroke-width="0.5"/>
  <line x1="761.7" y1="16" x2="761.7" y2="171" stroke="#e5e7eb" stroke-width="0.5"/>
  <line x1="800.0" y1="16" x2="800.0" y2="171" stroke="#e5e7eb" stroke-width="0.5"/>
  <line x1="545.6" y1="16" x2="545.6" y2="171" stroke="#e5e7eb" stroke-width="0.5"/>
  <text x="545.6" y="183" text-anchor="middle" font-size="8" fill="#6b7280">100</text>
  <line x1="656.1" y1="16" x2="656.1" y2="171" stroke="#e5e7eb" stroke-width="0.5"/>
  <text x="656.1" y="183" text-anchor="middle" font-size="8" fill="#6b7280">1k</text>
  <line x1="766.7" y1="16" x2="766.7" y2="171" stroke="#e5e7eb" stroke-width="0.5"/>
  <text x="766.7" y="183" text-anchor="middle" font-size="8" fill="#6b7280">10k</text>
  <line x1="435" y1="58.6" x2="800" y2="58.6" stroke="#e5e7eb" stroke-width="0.5"/>
  <line x1="435" y1="128.4" x2="800" y2="128.4" stroke="#e5e7eb" stroke-width="0.5"/>
  <line x1="435" y1="23.8" x2="800" y2="23.8" stroke="#e5e7eb" stroke-width="0.5"/>
  <text x="431" y="26.8" text-anchor="end" font-size="8" fill="#6b7280">180</text>
  <text x="431" y="96.5" text-anchor="end" font-size="8" fill="#6b7280">0</text>
  <line x1="435" y1="163.3" x2="800" y2="163.3" stroke="#e5e7eb" stroke-width="0.5"/>
  <text x="431" y="166.3" text-anchor="end" font-size="8" fill="#6b7280">-180</text>
  <line x1="656.1" y1="16" x2="656.1" y2="171" stroke="#d1d5db" stroke-width="1" stroke-dasharray="4 3"/>
  <defs><linearGradient id="g51" x1="0" y1="16" x2="0" y2="93.5" gradientUnits="userSpaceOnUse">
    <stop offset="0%" stop-color="#e74c3c" stop-opacity="0.15"/>
    <stop offset="100%" stop-color="#e74c3c" stop-opacity="0.02"/>
  </linearGradient></defs>
  <path d="M438.5,16.0 438.5,16.0 471.8,16.0 491.3,16.0 505.1,16.0 515.8,16.0 524.6,16.0 532.0,16.0 538.4,16.0 544.1,16.0 549.1,16.0 553.7,16.0 557.9,16.0 561.7,16.0 565.3,16.0 568.6,16.0 571.7,16.0 574.6,16.0 577.3,16.0 579.9,16.0 582.4,16.0 584.7,16.0 587.0,16.0 589.1,16.0 591.2,16.0 593.1,16.0 595.0,16.0 596.8,16.0 598.6,16.0 600.2,16.0 601.9,16.0 603.4,16.0 605.0,16.0 606.5,16.0 607.9,16.0 609.3,16.0 610.6,16.0 611.9,16.0 613.2,16.0 614.5,16.0 615.7,16.0 616.9,16.0 618.0,16.0 619.2,16.0 620.3,16.0 621.3,16.0 622.4,16.0 623.4,16.0 624.4,16.0 625.4,16.0 626.4,16.0 627.4,16.0 628.3,16.0 629.2,16.0 630.1,16.0 631.0,16.0 631.8,16.0 632.7,16.0 633.5,16.0 634.4,16.0 635.2,16.0 636.7,16.0 638.3,16.0 639.7,16.0 641.2,16.0 642.6,16.0 643.9,16.0 645.2,16.0 646.5,16.0 647.8,16.0 649.0,16.0 650.2,16.0 651.3,16.0 652.4,17.5 653.6,19.3 654.6,21.2 655.7,23.0 656.7,24.7 657.7,26.5 658.7,28.1 659.7,29.8 660.6,31.4 661.6,32.9 662.5,34.4 663.4,35.8 664.3,37.1 665.1,38.4 666.0,39.7 666.8,40.9 667.6,42.0 668.4,43.1 669.6,44.7 670.8,46.1 671.9,47.5 673.0,48.8 674.1,50.0 675.2,51.2 676.2,52.2 677.2,53.3 678.2,54.2 679.2,55.2 680.1,56.1 681.0,56.9 682.0,57.7 682.9,58.4 683.7,59.2 684.6,59.9 685.5,60.5 686.3,61.2 687.1,61.8 687.9,62.4 689.0,63.1 690.0,63.9 691.0,64.5 692.0,65.2 693.0,65.8 693.9,66.4 694.9,67.0 695.8,67.5 696.7,68.0 697.6,68.5 698.4,69.0 699.3,69.5 700.1,69.9 700.9,70.4 701.7,70.8 702.7,71.3 703.7,71.7 704.6,72.2 705.6,72.6 706.5,73.1 707.4,73.5 708.3,73.8 709.1,74.2 710.0,74.6 710.8,74.9 711.6,75.3 712.4,75.6 713.4,76.0 714.3,76.3 715.2,76.7 716.1,77.0 717.0,77.3 717.9,77.6 718.7,77.9 719.6,78.2 720.4,78.5 721.2,78.8 722.1,79.1 723.0,79.3 723.9,79.6 724.8,79.9 725.7,80.2 726.5,80.4 727.3,80.7 728.1,80.9 728.9,81.1 729.8,81.4 730.7,81.6 731.6,81.8 732.4,82.1 733.3,82.3 734.1,82.5 734.9,82.7 735.8,82.9 736.7,83.1 737.5,83.3 738.4,83.5 739.2,83.7 740.0,83.9 740.8,84.1 741.7,84.3 742.6,84.5 743.4,84.6 744.3,84.8 745.1,85.0 745.9,85.2 746.8,85.3 747.6,85.5 748.5,85.7 749.3,85.8 750.1,86.0 751.0,86.1 751.8,86.3 752.7,86.4 753.5,86.6 754.3,86.7 755.1,86.9 756.0,87.0 756.8,87.2 757.6,87.3 758.5,87.4 759.3,87.6 760.1,87.7 761.0,87.8 761.8,88.0 762.6,88.1 763.5,88.2 764.3,88.3 765.1,88.5 765.9,88.6 766.8,88.7 767.6,88.8 768.4,88.9 769.2,89.1 770.1,89.2 770.9,89.3 771.7,89.4 772.6,89.5 773.4,89.6 774.2,89.7 775.0,89.8 775.8,89.9 776.6,90.0 777.5,90.2 778.3,90.3 779.1,90.4 779.9,90.5 780.7,90.6 781.5,90.7 782.4,90.8 783.2,90.9 784.0,91.0 784.8,91.1 785.6,91.2 786.5,91.3 787.3,91.4 788.1,91.5 788.9,91.5 789.7,91.6 790.5,91.7 791.3,91.8 792.2,91.9 793.0,92.0 793.8,92.1 794.6,92.2 795.4,92.3 796.2,92.4 797.0,92.5 797.8,92.6 798.6,92.7 799.5,92.8 L799.5,93.5 L438.5,93.5 Z" fill="url(#g51)"/>
  <defs><clipPath id="pc52"><rect x="435" y="16" width="365" height="155"/></clipPath></defs>
  <polyline points="438.5,-45.4 471.8,-44.8 491.3,-44.1 505.1,-43.5 515.8,-42.9 524.6,-42.3 532.0,-41.6 538.4,-41.0 544.1,-40.4 549.1,-39.8 553.7,-39.1 557.9,-38.5 561.7,-37.9 565.3,-37.2 568.6,-36.6 571.7,-36.0 574.6,-35.3 577.3,-34.7 579.9,-34.1 582.4,-33.4 584.7,-32.8 587.0,-32.2 589.1,-31.5 591.2,-30.9 593.1,-30.2 595.0,-29.6 596.8,-29.0 598.6,-28.3 600.2,-27.7 601.9,-27.0 603.4,-26.3 605.0,-25.7 606.5,-25.0 607.9,-24.4 609.3,-23.7 610.6,-23.0 611.9,-22.4 613.2,-21.7 614.5,-21.0 615.7,-20.3 616.9,-19.6 618.0,-18.9 619.2,-18.3 620.3,-17.6 621.3,-16.9 622.4,-16.1 623.4,-15.4 624.4,-14.7 625.4,-14.0 626.4,-13.3 627.4,-12.5 628.3,-11.8 629.2,-11.0 630.1,-10.3 631.0,-9.5 631.8,-8.8 632.7,-8.0 633.5,-7.2 634.4,-6.4 635.2,-5.6 636.7,-4.0 638.3,-2.4 639.7,-0.7 641.2,1.0 642.6,2.8 643.9,4.5 645.2,6.3 646.5,8.2 647.8,10.0 649.0,11.9 650.2,13.7 651.3,15.6 652.4,17.5 653.6,19.3 654.6,21.2 655.7,23.0 656.7,24.7 657.7,26.5 658.7,28.1 659.7,29.8 660.6,31.4 661.6,32.9 662.5,34.4 663.4,35.8 664.3,37.1 665.1,38.4 666.0,39.7 666.8,40.9 667.6,42.0 668.4,43.1 669.6,44.7 670.8,46.1 671.9,47.5 673.0,48.8 674.1,50.0 675.2,51.2 676.2,52.2 677.2,53.3 678.2,54.2 679.2,55.2 680.1,56.1 681.0,56.9 682.0,57.7 682.9,58.4 683.7,59.2 684.6,59.9 685.5,60.5 686.3,61.2 687.1,61.8 687.9,62.4 689.0,63.1 690.0,63.9 691.0,64.5 692.0,65.2 693.0,65.8 693.9,66.4 694.9,67.0 695.8,67.5 696.7,68.0 697.6,68.5 698.4,69.0 699.3,69.5 700.1,69.9 700.9,70.4 701.7,70.8 702.7,71.3 703.7,71.7 704.6,72.2 705.6,72.6 706.5,73.1 707.4,73.5 708.3,73.8 709.1,74.2 710.0,74.6 710.8,74.9 711.6,75.3 712.4,75.6 713.4,76.0 714.3,76.3 715.2,76.7 716.1,77.0 717.0,77.3 717.9,77.6 718.7,77.9 719.6,78.2 720.4,78.5 721.2,78.8 722.1,79.1 723.0,79.3 723.9,79.6 724.8,79.9 725.7,80.2 726.5,80.4 727.3,80.7 728.1,80.9 728.9,81.1 729.8,81.4 730.7,81.6 731.6,81.8 732.4,82.1 733.3,82.3 734.1,82.5 734.9,82.7 735.8,82.9 736.7,83.1 737.5,83.3 738.4,83.5 739.2,83.7 740.0,83.9 740.8,84.1 741.7,84.3 742.6,84.5 743.4,84.6 744.3,84.8 745.1,85.0 745.9,85.2 746.8,85.3 747.6,85.5 748.5,85.7 749.3,85.8 750.1,86.0 751.0,86.1 751.8,86.3 752.7,86.4 753.5,86.6 754.3,86.7 755.1,86.9 756.0,87.0 756.8,87.2 757.6,87.3 758.5,87.4 759.3,87.6 760.1,87.7 761.0,87.8 761.8,88.0 762.6,88.1 763.5,88.2 764.3,88.3 765.1,88.5 765.9,88.6 766.8,88.7 767.6,88.8 768.4,88.9 769.2,89.1 770.1,89.2 770.9,89.3 771.7,89.4 772.6,89.5 773.4,89.6 774.2,89.7 775.0,89.8 775.8,89.9 776.6,90.0 777.5,90.2 778.3,90.3 779.1,90.4 779.9,90.5 780.7,90.6 781.5,90.7 782.4,90.8 783.2,90.9 784.0,91.0 784.8,91.1 785.6,91.2 786.5,91.3 787.3,91.4 788.1,91.5 788.9,91.5 789.7,91.6 790.5,91.7 791.3,91.8 792.2,91.9 793.0,92.0 793.8,92.1 794.6,92.2 795.4,92.3 796.2,92.4 797.0,92.5 797.8,92.6 798.6,92.7 799.5,92.8" fill="none" stroke="#e74c3c" stroke-width="1.5" stroke-linejoin="round" clip-path="url(#pc52)"/>
  <line x1="34" y1="207" x2="34" y2="362" stroke="#d1d5db"/>
  <line x1="34" y1="284.5" x2="399" y2="284.5" stroke="#d1d5db"/>
  <text x="216.5" y="388" text-anchor="middle" font-size="9" fill="#6b7280">Hz</text>
  <text x="12" y="284.5" text-anchor="middle" font-size="9" fill="#6b7280" transform="rotate(-90 12 284.5)">Group delay</text>
  <line x1="67.3" y1="207" x2="67.3" y2="362" stroke="#e5e7eb" stroke-width="0.5"/>
  <line x1="86.8" y1="207" x2="86.8" y2="362" stroke="#e5e7eb" stroke-width="0.5"/>
  <line x1="100.6" y1="207" x2="100.6" y2="362" stroke="#e5e7eb" stroke-width="0.5"/>
  <line x1="111.3" y1="207" x2="111.3" y2="362" stroke="#e5e7eb" stroke-width="0.5"/>
  <line x1="120.0" y1="207" x2="120.0" y2="362" stroke="#e5e7eb" stroke-width="0.5"/>
  <line x1="127.4" y1="207" x2="127.4" y2="362" stroke="#e5e7eb" stroke-width="0.5"/>
  <line x1="133.9" y1="207" x2="133.9" y2="362" stroke="#e5e7eb" stroke-width="0.5"/>
  <line x1="139.5" y1="207" x2="139.5" y2="362" stroke="#e5e7eb" stroke-width="0.5"/>
  <line x1="177.9" y1="207" x2="177.9" y2="362" stroke="#e5e7eb" stroke-width="0.5"/>
  <line x1="197.3" y1="207" x2="197.3" y2="362" stroke="#e5e7eb" stroke-width="0.5"/>
  <line x1="211.1" y1="207" x2="211.1" y2="362" stroke="#e5e7eb" stroke-width="0.5"/>
  <line x1="221.9" y1="207" x2="221.9" y2="362" stroke="#e5e7eb" stroke-width="0.5"/>
  <line x1="230.6" y1="207" x2="230.6" y2="362" stroke="#e5e7eb" stroke-width="0.5"/>
  <line x1="238.0" y1="207" x2="238.0" y2="362" stroke="#e5e7eb" stroke-width="0.5"/>
  <line x1="244.4" y1="207" x2="244.4" y2="362" stroke="#e5e7eb" stroke-width="0.5"/>
  <line x1="250.1" y1="207" x2="250.1" y2="362" stroke="#e5e7eb" stroke-width="0.5"/>
  <line x1="288.4" y1="207" x2="288.4" y2="362" stroke="#e5e7eb" stroke-width="0.5"/>
  <line x1="307.9" y1="207" x2="307.9" y2="362" stroke="#e5e7eb" stroke-width="0.5"/>
  <line x1="321.7" y1="207" x2="321.7" y2="362" stroke="#e5e7eb" stroke-width="0.5"/>
  <line x1="332.4" y1="207" x2="332.4" y2="362" stroke="#e5e7eb" stroke-width="0.5"/>
  <line x1="341.2" y1="207" x2="341.2" y2="362" stroke="#e5e7eb" stroke-width="0.5"/>
  <line x1="348.6" y1="207" x2="348.6" y2="362" stroke="#e5e7eb" stroke-width="0.5"/>
  <line x1="355.0" y1="207" x2="355.0" y2="362" stroke="#e5e7eb" stroke-width="0.5"/>
  <line x1="360.7" y1="207" x2="360.7" y2="362" stroke="#e5e7eb" stroke-width="0.5"/>
  <line x1="399.0" y1="207" x2="399.0" y2="362" stroke="#e5e7eb" stroke-width="0.5"/>
  <line x1="144.6" y1="207" x2="144.6" y2="362" stroke="#e5e7eb" stroke-width="0.5"/>
  <text x="144.6" y="374" text-anchor="middle" font-size="8" fill="#6b7280">100</text>
  <line x1="255.1" y1="207" x2="255.1" y2="362" stroke="#e5e7eb" stroke-width="0.5"/>
  <text x="255.1" y="374" text-anchor="middle" font-size="8" fill="#6b7280">1k</text>
  <line x1="365.7" y1="207" x2="365.7" y2="362" stroke="#e5e7eb" stroke-width="0.5"/>
  <text x="365.7" y="374" text-anchor="middle" font-size="8" fill="#6b7280">10k</text>
  <line x1="34" y1="330.2" x2="399" y2="330.2" stroke="#e5e7eb" stroke-width="0.5"/>
  <text x="30" y="333.2" text-anchor="end" font-size="8" fill="#6b7280">-2000</text>
  <text x="30" y="287.5" text-anchor="end" font-size="8" fill="#6b7280">0</text>
  <line x1="34" y1="238.8" x2="399" y2="238.8" stroke="#e5e7eb" stroke-width="0.5"/>
  <text x="30" y="241.8" text-anchor="end" font-size="8" fill="#6b7280">2000</text>
  <line x1="255.1" y1="207" x2="255.1" y2="362" stroke="#d1d5db" stroke-width="1" stroke-dasharray="4 3"/>
  <defs><linearGradient id="g53" x1="0" y1="207" x2="0" y2="284.5" gradientUnits="userSpaceOnUse">
    <stop offset="0%" stop-color="#2ecc71" stop-opacity="0.15"/>
    <stop offset="100%" stop-color="#2ecc71" stop-opacity="0.02"/>
  </linearGradient></defs>
  <path d="M37.5,224.9 37.5,224.9 70.8,254.7 90.3,264.6 104.1,269.6 114.8,272.6 123.6,274.6 131.0,276.0 137.4,277.0 143.1,277.9 148.1,278.5 152.7,279.1 156.9,279.5 160.7,279.9 164.3,280.2 167.6,280.5 170.7,280.8 173.6,281.0 176.3,281.2 178.9,281.4 181.4,281.5 183.7,281.7 186.0,281.8 188.1,281.9 190.2,282.0 192.1,282.1 194.0,282.2 195.8,282.3 197.6,282.4 199.2,282.4 200.9,282.5 202.4,282.6 204.0,282.6 205.5,282.7 206.9,282.7 208.3,282.8 209.6,282.8 210.9,282.9 212.2,282.9 213.5,283.0 214.7,283.0 215.9,283.0 217.0,283.1 218.2,283.1 219.3,283.1 220.3,283.2 221.4,283.2 222.4,283.2 223.4,283.3 224.4,283.3 225.4,283.3 226.4,283.3 227.3,283.4 228.2,283.4 229.1,283.4 230.0,283.4 230.8,283.5 231.7,283.5 232.5,283.5 233.4,283.5 234.2,283.5 235.7,283.6 237.3,283.6 238.7,283.7 240.2,283.7 241.6,283.7 242.9,283.8 244.2,283.8 245.5,283.8 246.8,283.9 248.0,283.9 249.2,284.0 250.3,284.0 251.4,284.0 252.6,284.1 253.6,284.1 254.7,284.2 255.7,284.2 256.7,284.2 257.7,284.3 258.7,284.3 259.6,284.3 260.6,284.3 261.5,284.4 262.4,284.4 263.3,284.4 264.1,284.4 265.0,284.4 265.8,284.4 266.6,284.4 267.4,284.4 268.6,284.5 269.8,284.5 270.9,284.5 272.0,284.5 273.1,284.5 274.2,284.5 275.2,284.5 276.2,284.5 277.2,284.5 278.2,284.5 279.1,284.5 280.0,284.5 281.0,284.5 281.9,284.5 282.7,284.5 283.6,284.5 284.5,284.5 285.3,284.5 286.1,284.5 286.9,284.5 288.0,284.5 289.0,284.5 290.0,284.5 291.0,284.5 292.0,284.5 292.9,284.5 293.9,284.5 294.8,284.5 295.7,284.5 296.6,284.5 297.4,284.5 298.3,284.5 299.1,284.5 299.9,284.5 300.7,284.5 301.7,284.5 302.7,284.5 303.6,284.5 304.6,284.5 305.5,284.5 306.4,284.5 307.3,284.5 308.1,284.5 309.0,284.5 309.8,284.5 310.6,284.5 311.4,284.5 312.4,284.5 313.3,284.5 314.2,284.5 315.1,284.5 316.0,284.5 316.9,284.5 317.7,284.5 318.6,284.5 319.4,284.5 320.2,284.5 321.1,284.5 322.0,284.5 322.9,284.5 323.8,284.5 324.7,284.5 325.5,284.5 326.3,284.5 327.1,284.5 327.9,284.5 328.8,284.5 329.7,284.5 330.6,284.5 331.4,284.5 332.3,284.5 333.1,284.5 333.9,284.5 334.8,284.5 335.7,284.5 336.5,284.5 337.4,284.5 338.2,284.5 339.0,284.5 339.8,284.5 340.7,284.5 341.6,284.5 342.4,284.5 343.3,284.5 344.1,284.5 344.9,284.5 345.8,284.5 346.6,284.5 347.5,284.5 348.3,284.5 349.1,284.5 350.0,284.5 350.8,284.5 351.7,284.5 352.5,284.5 353.3,284.5 354.1,284.5 355.0,284.5 355.8,284.5 356.6,284.5 357.5,284.5 358.3,284.5 359.1,284.5 360.0,284.5 360.8,284.5 361.6,284.5 362.5,284.5 363.3,284.5 364.1,284.5 364.9,284.5 365.8,284.5 366.6,284.5 367.4,284.5 368.2,284.5 369.1,284.5 369.9,284.5 370.7,284.5 371.6,284.5 372.4,284.5 373.2,284.5 374.0,284.5 374.8,284.5 375.6,284.5 376.5,284.5 377.3,284.5 378.1,284.5 378.9,284.5 379.7,284.5 380.5,284.5 381.4,284.5 382.2,284.5 383.0,284.5 383.8,284.5 384.6,284.5 385.5,284.5 386.3,284.5 387.1,284.5 387.9,284.5 388.7,284.5 389.5,284.5 390.3,284.5 391.2,284.5 392.0,284.5 392.8,284.5 393.6,284.5 394.4,284.5 395.2,284.5 396.0,284.5 396.8,284.5 397.6,284.5 398.5,284.5 L398.5,284.5 L37.5,284.5 Z" fill="url(#g53)"/>
  <defs><clipPath id="pc54"><rect x="34" y="207" width="365" height="155"/></clipPath></defs>
  <polyline points="37.5,224.9 70.8,254.7 90.3,264.6 104.1,269.6 114.8,272.6 123.6,274.6 131.0,276.0 137.4,277.0 143.1,277.9 148.1,278.5 152.7,279.1 156.9,279.5 160.7,279.9 164.3,280.2 167.6,280.5 170.7,280.8 173.6,281.0 176.3,281.2 178.9,281.4 181.4,281.5 183.7,281.7 186.0,281.8 188.1,281.9 190.2,282.0 192.1,282.1 194.0,282.2 195.8,282.3 197.6,282.4 199.2,282.4 200.9,282.5 202.4,282.6 204.0,282.6 205.5,282.7 206.9,282.7 208.3,282.8 209.6,282.8 210.9,282.9 212.2,282.9 213.5,283.0 214.7,283.0 215.9,283.0 217.0,283.1 218.2,283.1 219.3,283.1 220.3,283.2 221.4,283.2 222.4,283.2 223.4,283.3 224.4,283.3 225.4,283.3 226.4,283.3 227.3,283.4 228.2,283.4 229.1,283.4 230.0,283.4 230.8,283.5 231.7,283.5 232.5,283.5 233.4,283.5 234.2,283.5 235.7,283.6 237.3,283.6 238.7,283.7 240.2,283.7 241.6,283.7 242.9,283.8 244.2,283.8 245.5,283.8 246.8,283.9 248.0,283.9 249.2,284.0 250.3,284.0 251.4,284.0 252.6,284.1 253.6,284.1 254.7,284.2 255.7,284.2 256.7,284.2 257.7,284.3 258.7,284.3 259.6,284.3 260.6,284.3 261.5,284.4 262.4,284.4 263.3,284.4 264.1,284.4 265.0,284.4 265.8,284.4 266.6,284.4 267.4,284.4 268.6,284.5 269.8,284.5 270.9,284.5 272.0,284.5 273.1,284.5 274.2,284.5 275.2,284.5 276.2,284.5 277.2,284.5 278.2,284.5 279.1,284.5 280.0,284.5 281.0,284.5 281.9,284.5 282.7,284.5 283.6,284.5 284.5,284.5 285.3,284.5 286.1,284.5 286.9,284.5 288.0,284.5 289.0,284.5 290.0,284.5 291.0,284.5 292.0,284.5 292.9,284.5 293.9,284.5 294.8,284.5 295.7,284.5 296.6,284.5 297.4,284.5 298.3,284.5 299.1,284.5 299.9,284.5 300.7,284.5 301.7,284.5 302.7,284.5 303.6,284.5 304.6,284.5 305.5,284.5 306.4,284.5 307.3,284.5 308.1,284.5 309.0,284.5 309.8,284.5 310.6,284.5 311.4,284.5 312.4,284.5 313.3,284.5 314.2,284.5 315.1,284.5 316.0,284.5 316.9,284.5 317.7,284.5 318.6,284.5 319.4,284.5 320.2,284.5 321.1,284.5 322.0,284.5 322.9,284.5 323.8,284.5 324.7,284.5 325.5,284.5 326.3,284.5 327.1,284.5 327.9,284.5 328.8,284.5 329.7,284.5 330.6,284.5 331.4,284.5 332.3,284.5 333.1,284.5 333.9,284.5 334.8,284.5 335.7,284.5 336.5,284.5 337.4,284.5 338.2,284.5 339.0,284.5 339.8,284.5 340.7,284.5 341.6,284.5 342.4,284.5 343.3,284.5 344.1,284.5 344.9,284.5 345.8,284.5 346.6,284.5 347.5,284.5 348.3,284.5 349.1,284.5 350.0,284.5 350.8,284.5 351.7,284.5 352.5,284.5 353.3,284.5 354.1,284.5 355.0,284.5 355.8,284.5 356.6,284.5 357.5,284.5 358.3,284.5 359.1,284.5 360.0,284.5 360.8,284.5 361.6,284.5 362.5,284.5 363.3,284.5 364.1,284.5 364.9,284.5 365.8,284.5 366.6,284.5 367.4,284.5 368.2,284.5 369.1,284.5 369.9,284.5 370.7,284.5 371.6,284.5 372.4,284.5 373.2,284.5 374.0,284.5 374.8,284.5 375.6,284.5 376.5,284.5 377.3,284.5 378.1,284.5 378.9,284.5 379.7,284.5 380.5,284.5 381.4,284.5 382.2,284.5 383.0,284.5 383.8,284.5 384.6,284.5 385.5,284.5 386.3,284.5 387.1,284.5 387.9,284.5 388.7,284.5 389.5,284.5 390.3,284.5 391.2,284.5 392.0,284.5 392.8,284.5 393.6,284.5 394.4,284.5 395.2,284.5 396.0,284.5 396.8,284.5 397.6,284.5 398.5,284.5" fill="none" stroke="#2ecc71" stroke-width="1.5" stroke-linejoin="round" clip-path="url(#pc54)"/>
  <line x1="435" y1="207" x2="435" y2="362" stroke="#d1d5db"/>
  <line x1="435" y1="284.5" x2="800" y2="284.5" stroke="#d1d5db"/>
  <text x="617.5" y="388" text-anchor="middle" font-size="9" fill="#6b7280">Samples</text>
  <text x="413" y="284.5" text-anchor="middle" font-size="9" fill="#6b7280" transform="rotate(-90 413 284.5)">Impulse response</text>
  <line x1="435.0" y1="207" x2="435.0" y2="362" stroke="#e5e7eb" stroke-width="0.5"/>
  <text x="435.0" y="374" text-anchor="middle" font-size="8" fill="#6b7280">0</text>
  <line x1="526.3" y1="207" x2="526.3" y2="362" stroke="#e5e7eb" stroke-width="0.5"/>
  <text x="526.3" y="374" text-anchor="middle" font-size="8" fill="#6b7280">32</text>
  <line x1="617.5" y1="207" x2="617.5" y2="362" stroke="#e5e7eb" stroke-width="0.5"/>
  <text x="617.5" y="374" text-anchor="middle" font-size="8" fill="#6b7280">64</text>
  <line x1="708.8" y1="207" x2="708.8" y2="362" stroke="#e5e7eb" stroke-width="0.5"/>
  <text x="708.8" y="374" text-anchor="middle" font-size="8" fill="#6b7280">96</text>
  <line x1="800.0" y1="207" x2="800.0" y2="362" stroke="#e5e7eb" stroke-width="0.5"/>
  <text x="800.0" y="374" text-anchor="middle" font-size="8" fill="#6b7280">128</text>
  <line x1="435" y1="340.5" x2="800" y2="340.5" stroke="#e5e7eb" stroke-width="0.5"/>
  <text x="431" y="343.5" text-anchor="end" font-size="8" fill="#6b7280">-0.6</text>
  <text x="431" y="287.5" text-anchor="end" font-size="8" fill="#6b7280">0</text>
  <line x1="435" y1="228.5" x2="800" y2="228.5" stroke="#e5e7eb" stroke-width="0.5"/>
  <text x="431" y="231.5" text-anchor="end" font-size="8" fill="#6b7280">0.6</text>
  <defs><linearGradient id="g55" x1="0" y1="207" x2="0" y2="284.5" gradientUnits="userSpaceOnUse">
    <stop offset="0%" stop-color="#f39c12" stop-opacity="0.15"/>
    <stop offset="100%" stop-color="#f39c12" stop-opacity="0.02"/>
  </linearGradient></defs>
  <defs><linearGradient id="g56" x1="0" y1="362" x2="0" y2="284.5" gradientUnits="userSpaceOnUse">
    <stop offset="0%" stop-color="#f39c12" stop-opacity="0.15"/>
    <stop offset="100%" stop-color="#f39c12" stop-opacity="0.02"/>
  </linearGradient></defs>
  <defs><clipPath id="c57"><rect x="435" y="207" width="365" height="77.5"/></clipPath></defs>
  <defs><clipPath id="c58"><rect x="435" y="284.5" width="365" height="77.5"/></clipPath></defs>
  <path d="M435.0,207.0 435.0,207.0 437.9,313.3 440.7,307.9 443.6,303.0 446.4,298.7 449.3,295.0 452.1,291.8 455.0,289.1 457.8,286.8 460.7,285.0 463.5,283.5 466.4,282.3 469.2,281.4 472.1,280.8 474.9,280.4 477.8,280.2 480.6,280.2 483.5,280.3 486.3,280.5 489.2,280.8 492.0,281.2 494.9,281.6 497.7,282.1 500.6,282.5 503.4,283.0 506.3,283.5 509.1,283.9 512.0,284.3 514.8,284.7 517.7,285.0 520.5,285.3 523.4,285.5 526.3,285.7 529.1,285.9 532.0,286.0 534.8,286.0 537.7,286.1 540.5,286.0 543.4,286.0 546.2,285.9 549.1,285.8 551.9,285.7 554.8,285.6 557.6,285.5 560.5,285.3 563.3,285.2 566.2,285.1 569.0,284.9 571.9,284.8 574.7,284.7 577.6,284.5 580.4,284.4 583.3,284.3 586.1,284.2 589.0,284.2 591.8,284.1 594.7,284.1 597.5,284.0 600.4,284.0 603.2,284.0 606.1,284.0 608.9,284.0 611.8,284.0 614.6,284.1 617.5,284.1 620.4,284.1 623.2,284.2 626.1,284.2 628.9,284.2 631.8,284.3 634.6,284.3 637.5,284.4 640.3,284.4 643.2,284.4 646.0,284.5 648.9,284.5 651.7,284.5 654.6,284.6 657.4,284.6 660.3,284.6 663.1,284.6 666.0,284.6 668.8,284.6 671.7,284.6 674.5,284.6 677.4,284.6 680.2,284.6 683.1,284.6 685.9,284.6 688.8,284.6 691.6,284.6 694.5,284.6 697.3,284.6 700.2,284.6 703.0,284.5 705.9,284.5 708.8,284.5 711.6,284.5 714.5,284.5 717.3,284.5 720.2,284.5 723.0,284.5 725.9,284.5 728.7,284.5 731.6,284.5 734.4,284.5 737.3,284.5 740.1,284.5 743.0,284.5 745.8,284.5 748.7,284.5 751.5,284.5 754.4,284.5 757.2,284.5 760.1,284.5 762.9,284.5 765.8,284.5 768.6,284.5 771.5,284.5 774.3,284.5 777.2,284.5 780.0,284.5 782.9,284.5 785.7,284.5 788.6,284.5 791.4,284.5 794.3,284.5 797.1,284.5 L797.1,284.5 L435.0,284.5 Z" fill="url(#g55)" clip-path="url(#c57)"/>
  <path d="M435.0,207.0 435.0,207.0 437.9,313.3 440.7,307.9 443.6,303.0 446.4,298.7 449.3,295.0 452.1,291.8 455.0,289.1 457.8,286.8 460.7,285.0 463.5,283.5 466.4,282.3 469.2,281.4 472.1,280.8 474.9,280.4 477.8,280.2 480.6,280.2 483.5,280.3 486.3,280.5 489.2,280.8 492.0,281.2 494.9,281.6 497.7,282.1 500.6,282.5 503.4,283.0 506.3,283.5 509.1,283.9 512.0,284.3 514.8,284.7 517.7,285.0 520.5,285.3 523.4,285.5 526.3,285.7 529.1,285.9 532.0,286.0 534.8,286.0 537.7,286.1 540.5,286.0 543.4,286.0 546.2,285.9 549.1,285.8 551.9,285.7 554.8,285.6 557.6,285.5 560.5,285.3 563.3,285.2 566.2,285.1 569.0,284.9 571.9,284.8 574.7,284.7 577.6,284.5 580.4,284.4 583.3,284.3 586.1,284.2 589.0,284.2 591.8,284.1 594.7,284.1 597.5,284.0 600.4,284.0 603.2,284.0 606.1,284.0 608.9,284.0 611.8,284.0 614.6,284.1 617.5,284.1 620.4,284.1 623.2,284.2 626.1,284.2 628.9,284.2 631.8,284.3 634.6,284.3 637.5,284.4 640.3,284.4 643.2,284.4 646.0,284.5 648.9,284.5 651.7,284.5 654.6,284.6 657.4,284.6 660.3,284.6 663.1,284.6 666.0,284.6 668.8,284.6 671.7,284.6 674.5,284.6 677.4,284.6 680.2,284.6 683.1,284.6 685.9,284.6 688.8,284.6 691.6,284.6 694.5,284.6 697.3,284.6 700.2,284.6 703.0,284.5 705.9,284.5 708.8,284.5 711.6,284.5 714.5,284.5 717.3,284.5 720.2,284.5 723.0,284.5 725.9,284.5 728.7,284.5 731.6,284.5 734.4,284.5 737.3,284.5 740.1,284.5 743.0,284.5 745.8,284.5 748.7,284.5 751.5,284.5 754.4,284.5 757.2,284.5 760.1,284.5 762.9,284.5 765.8,284.5 768.6,284.5 771.5,284.5 774.3,284.5 777.2,284.5 780.0,284.5 782.9,284.5 785.7,284.5 788.6,284.5 791.4,284.5 794.3,284.5 797.1,284.5 L797.1,284.5 L435.0,284.5 Z" fill="url(#g56)" clip-path="url(#c58)"/>
  <defs><clipPath id="pc59"><rect x="435" y="207" width="365" height="155"/></clipPath></defs>
  <polyline points="435.0,207.0 437.9,313.3 440.7,307.9 443.6,303.0 446.4,298.7 449.3,295.0 452.1,291.8 455.0,289.1 457.8,286.8 460.7,285.0 463.5,283.5 466.4,282.3 469.2,281.4 472.1,280.8 474.9,280.4 477.8,280.2 480.6,280.2 483.5,280.3 486.3,280.5 489.2,280.8 492.0,281.2 494.9,281.6 497.7,282.1 500.6,282.5 503.4,283.0 506.3,283.5 509.1,283.9 512.0,284.3 514.8,284.7 517.7,285.0 520.5,285.3 523.4,285.5 526.3,285.7 529.1,285.9 532.0,286.0 534.8,286.0 537.7,286.1 540.5,286.0 543.4,286.0 546.2,285.9 549.1,285.8 551.9,285.7 554.8,285.6 557.6,285.5 560.5,285.3 563.3,285.2 566.2,285.1 569.0,284.9 571.9,284.8 574.7,284.7 577.6,284.5 580.4,284.4 583.3,284.3 586.1,284.2 589.0,284.2 591.8,284.1 594.7,284.1 597.5,284.0 600.4,284.0 603.2,284.0 606.1,284.0 608.9,284.0 611.8,284.0 614.6,284.1 617.5,284.1 620.4,284.1 623.2,284.2 626.1,284.2 628.9,284.2 631.8,284.3 634.6,284.3 637.5,284.4 640.3,284.4 643.2,284.4 646.0,284.5 648.9,284.5 651.7,284.5 654.6,284.6 657.4,284.6 660.3,284.6 663.1,284.6 666.0,284.6 668.8,284.6 671.7,284.6 674.5,284.6 677.4,284.6 680.2,284.6 683.1,284.6 685.9,284.6 688.8,284.6 691.6,284.6 694.5,284.6 697.3,284.6 700.2,284.6 703.0,284.5 705.9,284.5 708.8,284.5 711.6,284.5 714.5,284.5 717.3,284.5 720.2,284.5 723.0,284.5 725.9,284.5 728.7,284.5 731.6,284.5 734.4,284.5 737.3,284.5 740.1,284.5 743.0,284.5 745.8,284.5 748.7,284.5 751.5,284.5 754.4,284.5 757.2,284.5 760.1,284.5 762.9,284.5 765.8,284.5 768.6,284.5 771.5,284.5 774.3,284.5 777.2,284.5 780.0,284.5 782.9,284.5 785.7,284.5 788.6,284.5 791.4,284.5 794.3,284.5 797.1,284.5" fill="none" stroke="#f39c12" stroke-width="1.3" stroke-linejoin="round" clip-path="url(#pc59)"/>
</svg>
