<svg xmlns="http://www.w3.org/2000/svg" viewBox="0 0 820 392" style="font-family:system-ui,-apple-system,sans-serif">
  <text x="800" y="11" text-anchor="end" font-size="11" font-weight="600" fill="#6b7280">Chebyshev Type II order 4, 40dB</text>
  <line x1="34" y1="16" x2="34" y2="171" stroke="#d1d5db"/>
  <line x1="34" y1="47.0" x2="392" y2="47.0" stroke="#d1d5db"/>
  <text x="213" y="197" text-anchor="middle" font-size="9" fill="#6b7280">Hz</text>
  <text x="12" y="93.5" text-anchor="middle" font-size="9" fill="#6b7280" transform="rotate(-90 12 93.5)">dB</text>
  <line x1="66.6" y1="16" x2="66.6" y2="171" stroke="#e5e7eb" stroke-width="0.5"/>
  <line x1="85.7" y1="16" x2="85.7" y2="171" stroke="#e5e7eb" stroke-width="0.5"/>
  <line x1="99.3" y1="16" x2="99.3" y2="171" stroke="#e5e7eb" stroke-width="0.5"/>
  <line x1="109.8" y1="16" x2="109.8" y2="171" stroke="#e5e7eb" stroke-width="0.5"/>
  <line x1="118.4" y1="16" x2="118.4" y2="171" stroke="#e5e7eb" stroke-width="0.5"/>
  <line x1="125.7" y1="16" x2="125.7" y2="171" stroke="#e5e7eb" stroke-width="0.5"/>
  <line x1="131.9" y1="16" x2="131.9" y2="171" stroke="#e5e7eb" stroke-width="0.5"/>
  <line x1="137.5" y1="16" x2="137.5" y2="171" stroke="#e5e7eb" stroke-width="0.5"/>
  <line x1="175.1" y1="16" x2="175.1" y2="171" stroke="#e5e7eb" stroke-width="0.5"/>
  <line x1="194.2" y1="16" x2="194.2" y2="171" stroke="#e5e7eb" stroke-width="0.5"/>
  <line x1="207.7" y1="16" x2="207.7" y2="171" stroke="#e5e7eb" stroke-width="0.5"/>
  <line x1="218.3" y1="16" x2="218.3" y2="171" stroke="#e5e7eb" stroke-width="0.5"/>
  <line x1="226.8" y1="16" x2="226.8" y2="171" stroke="#e5e7eb" stroke-width="0.5"/>
  <line x1="234.1" y1="16" x2="234.1" y2="171" stroke="#e5e7eb" stroke-width="0.5"/>
  <line x1="240.4" y1="16" x2="240.4" y2="171" stroke="#e5e7eb" stroke-width="0.5"/>
  <line x1="245.9" y1="16" x2="245.9" y2="171" stroke="#e5e7eb" stroke-width="0.5"/>
  <line x1="283.5" y1="16" x2="283.5" y2="171" stroke="#e5e7eb" stroke-width="0.5"/>
  <line x1="302.6" y1="16" x2="302.6" y2="171" stroke="#e5e7eb" stroke-width="0.5"/>
  <line x1="316.2" y1="16" x2="316.2" y2="171" stroke="#e5e7eb" stroke-width="0.5"/>
  <line x1="326.7" y1="16" x2="326.7" y2="171" stroke="#e5e7eb" stroke-width="0.5"/>
  <line x1="335.3" y1="16" x2="335.3" y2="171" stroke="#e5e7eb" stroke-width="0.5"/>
  <line x1="342.6" y1="16" x2="342.6" y2="171" stroke="#e5e7eb" stroke-width="0.5"/>
  <line x1="348.8" y1="16" x2="348.8" y2="171" stroke="#e5e7eb" stroke-width="0.5"/>
  <line x1="354.4" y1="16" x2="354.4" y2="171" stroke="#e5e7eb" stroke-width="0.5"/>
  <line x1="392.0" y1="16" x2="392.0" y2="171" stroke="#e5e7eb" stroke-width="0.5"/>
  <line x1="142.5" y1="16" x2="142.5" y2="171" stroke="#e5e7eb" stroke-width="0.5"/>
  <text x="142.5" y="183" text-anchor="middle" font-size="8" fill="#6b7280">100</text>
  <line x1="250.9" y1="16" x2="250.9" y2="171" stroke="#e5e7eb" stroke-width="0.5"/>
  <text x="250.9" y="183" text-anchor="middle" font-size="8" fill="#6b7280">1k</text>
  <line x1="359.4" y1="16" x2="359.4" y2="171" stroke="#e5e7eb" stroke-width="0.5"/>
  <text x="359.4" y="183" text-anchor="middle" font-size="8" fill="#6b7280">10k</text>
  <line x1="34" y1="31.5" x2="392" y2="31.5" stroke="#e5e7eb" stroke-width="0.5"/>
  <line x1="34" y1="62.5" x2="392" y2="62.5" stroke="#e5e7eb" stroke-width="0.5"/>
  <line x1="34" y1="16.0" x2="392" y2="16.0" stroke="#e5e7eb" stroke-width="0.5"/>
  <text x="30" y="19.0" text-anchor="end" font-size="8" fill="#6b7280">+20</text>
  <text x="30" y="50.0" text-anchor="end" font-size="8" fill="#6b7280">0</text>
  <line x1="34" y1="78.0" x2="392" y2="78.0" stroke="#e5e7eb" stroke-width="0.5"/>
  <text x="30" y="81.0" text-anchor="end" font-size="8" fill="#6b7280">-20</text>
  <line x1="34" y1="109.0" x2="392" y2="109.0" stroke="#e5e7eb" stroke-width="0.5"/>
  <text x="30" y="112.0" text-anchor="end" font-size="8" fill="#6b7280">-40</text>
  <line x1="34" y1="140.0" x2="392" y2="140.0" stroke="#e5e7eb" stroke-width="0.5"/>
  <text x="30" y="143.0" text-anchor="end" font-size="8" fill="#6b7280">-60</text>
  <line x1="34" y1="171.0" x2="392" y2="171.0" stroke="#e5e7eb" stroke-width="0.5"/>
  <text x="30" y="174.0" text-anchor="end" font-size="8" fill="#6b7280">-80</text>
  <defs><linearGradient id="g144" x1="0" y1="16" x2="0" y2="171" gradientUnits="userSpaceOnUse">
    <stop offset="0%" stop-color="#4a90d9" stop-opacity="0.15"/>
    <stop offset="100%" stop-color="#4a90d9" stop-opacity="0.02"/>
  </linearGradient></defs>
  <path d="M37.5,47.0 37.5,47.0 70.1,47.0 89.2,47.0 102.8,47.0 113.3,47.0 121.9,47.0 129.1,47.0 135.4,47.0 141.0,47.0 145.9,47.0 150.4,47.0 154.5,47.0 158.3,47.0 161.8,47.0 165.0,47.0 168.1,47.0 170.9,47.0 173.6,47.0 176.2,47.0 178.6,47.0 180.9,47.0 183.1,47.0 185.2,47.0 187.2,47.0 189.1,47.0 190.9,47.0 192.7,47.0 194.4,47.0 196.1,47.0 197.7,47.0 199.2,47.0 200.7,47.0 202.2,47.0 203.6,47.0 204.9,47.0 206.3,47.0 207.6,47.0 208.8,47.0 210.0,47.0 211.2,47.0 212.4,47.0 213.5,47.0 214.6,47.0 215.7,47.0 216.8,47.0 217.8,47.0 218.8,47.0 219.8,47.0 220.8,47.0 221.7,47.0 222.7,47.0 223.6,47.0 224.5,47.1 225.4,47.1 226.2,47.1 227.1,47.1 227.9,47.1 228.7,47.1 229.5,47.1 231.1,47.2 232.6,47.2 234.1,47.3 235.5,47.4 236.9,47.5 238.2,47.6 239.6,47.7 240.8,47.9 242.1,48.2 243.3,48.4 244.5,48.7 245.6,49.1 246.7,49.5 247.8,50.0 248.9,50.5 249.9,51.1 251.0,51.8 252.0,52.5 252.9,53.2 253.9,54.0 254.8,54.9 255.8,55.8 256.7,56.7 257.6,57.7 258.4,58.7 259.3,59.7 260.1,60.7 261.0,61.8 261.8,62.9 263.0,64.5 264.1,66.1 265.3,67.8 266.4,69.5 267.5,71.2 268.5,72.9 269.6,74.6 270.6,76.3 271.6,78.1 272.5,79.8 273.5,81.6 274.4,83.4 275.3,85.3 276.2,87.2 277.1,89.2 278.0,91.2 278.8,93.3 279.6,95.5 280.5,97.8 281.3,100.3 282.3,103.9 283.4,108.1 284.4,113.2 285.3,119.8 286.3,130.5 287.3,171.0 288.2,131.5 289.1,123.5 290.0,119.2 290.9,116.3 291.7,114.4 292.6,112.9 293.4,111.8 294.2,111.0 295.0,110.3 296.0,109.8 297.0,109.4 297.9,109.1 298.8,109.0 299.7,109.0 300.6,109.1 301.5,109.2 302.4,109.4 303.2,109.6 304.0,109.9 304.9,110.2 305.8,110.6 306.7,111.1 307.7,111.7 308.6,112.2 309.5,112.8 310.3,113.5 311.2,114.2 312.0,114.9 312.8,115.7 313.7,116.5 314.6,117.5 315.5,118.6 316.4,119.7 317.3,121.0 318.1,122.3 319.0,123.7 319.8,125.3 320.6,127.0 321.4,128.9 322.3,131.3 323.2,134.2 324.1,137.8 324.9,142.4 325.7,149.3 326.6,163.1 327.4,167.4 328.3,150.3 329.1,143.2 330.0,138.7 330.8,135.5 331.7,133.0 332.5,131.0 333.3,129.3 334.2,127.7 335.0,126.3 335.9,125.1 336.7,124.0 337.5,123.1 338.4,122.2 339.2,121.4 340.1,120.6 340.9,120.0 341.7,119.4 342.5,118.8 343.4,118.2 344.2,117.7 345.1,117.3 345.9,116.8 346.7,116.4 347.6,116.0 348.4,115.6 349.2,115.3 350.0,115.0 350.9,114.7 351.7,114.4 352.6,114.1 353.4,113.8 354.2,113.6 355.1,113.3 355.9,113.1 356.7,112.9 357.6,112.7 358.4,112.5 359.2,112.3 360.0,112.1 360.9,111.9 361.7,111.8 362.5,111.6 363.3,111.5 364.2,111.3 365.0,111.2 365.8,111.1 366.6,110.9 367.4,110.8 368.3,110.7 369.1,110.6 369.9,110.5 370.7,110.4 371.5,110.3 372.4,110.2 373.2,110.1 374.0,110.1 374.8,110.0 375.6,109.9 376.4,109.8 377.2,109.8 378.1,109.7 378.9,109.6 379.7,109.6 380.5,109.5 381.3,109.5 382.1,109.4 383.0,109.4 383.8,109.3 384.6,109.3 385.4,109.3 386.2,109.2 387.0,109.2 387.9,109.2 388.7,109.1 389.5,109.1 390.3,109.1 391.1,109.1 391.9,109.0 L391.9,171.0 L37.5,171.0 Z" fill="url(#g144)"/>
  <defs><clipPath id="pc145"><rect x="34" y="16" width="358" height="155"/></clipPath></defs>
  <polyline points="37.5,47.0 70.1,47.0 89.2,47.0 102.8,47.0 113.3,47.0 121.9,47.0 129.1,47.0 135.4,47.0 141.0,47.0 145.9,47.0 150.4,47.0 154.5,47.0 158.3,47.0 161.8,47.0 165.0,47.0 168.1,47.0 170.9,47.0 173.6,47.0 176.2,47.0 178.6,47.0 180.9,47.0 183.1,47.0 185.2,47.0 187.2,47.0 189.1,47.0 190.9,47.0 192.7,47.0 194.4,47.0 196.1,47.0 197.7,47.0 199.2,47.0 200.7,47.0 202.2,47.0 203.6,47.0 204.9,47.0 206.3,47.0 207.6,47.0 208.8,47.0 210.0,47.0 211.2,47.0 212.4,47.0 213.5,47.0 214.6,47.0 215.7,47.0 216.8,47.0 217.8,47.0 218.8,47.0 219.8,47.0 220.8,47.0 221.7,47.0 222.7,47.0 223.6,47.0 224.5,47.1 225.4,47.1 226.2,47.1 227.1,47.1 227.9,47.1 228.7,47.1 229.5,47.1 231.1,47.2 232.6,47.2 234.1,47.3 235.5,47.4 236.9,47.5 238.2,47.6 239.6,47.7 240.8,47.9 242.1,48.2 243.3,48.4 244.5,48.7 245.6,49.1 246.7,49.5 247.8,50.0 248.9,50.5 249.9,51.1 251.0,51.8 252.0,52.5 252.9,53.2 253.9,54.0 254.8,54.9 255.8,55.8 256.7,56.7 257.6,57.7 258.4,58.7 259.3,59.7 260.1,60.7 261.0,61.8 261.8,62.9 263.0,64.5 264.1,66.1 265.3,67.8 266.4,69.5 267.5,71.2 268.5,72.9 269.6,74.6 270.6,76.3 271.6,78.1 272.5,79.8 273.5,81.6 274.4,83.4 275.3,85.3 276.2,87.2 277.1,89.2 278.0,91.2 278.8,93.3 279.6,95.5 280.5,97.8 281.3,100.3 282.3,103.9 283.4,108.1 284.4,113.2 285.3,119.8 286.3,130.5 287.3,173.8 288.2,131.5 289.1,123.5 290.0,119.2 290.9,116.3 291.7,114.4 292.6,112.9 293.4,111.8 294.2,111.0 295.0,110.3 296.0,109.8 297.0,109.4 297.9,109.1 298.8,109.0 299.7,109.0 300.6,109.1 301.5,109.2 302.4,109.4 303.2,109.6 304.0,109.9 304.9,110.2 305.8,110.6 306.7,111.1 307.7,111.7 308.6,112.2 309.5,112.8 310.3,113.5 311.2,114.2 312.0,114.9 312.8,115.7 313.7,116.5 314.6,117.5 315.5,118.6 316.4,119.7 317.3,121.0 318.1,122.3 319.0,123.7 319.8,125.3 320.6,127.0 321.4,128.9 322.3,131.3 323.2,134.2 324.1,137.8 324.9,142.4 325.7,149.3 326.6,163.1 327.4,167.4 328.3,150.3 329.1,143.2 330.0,138.7 330.8,135.5 331.7,133.0 332.5,131.0 333.3,129.3 334.2,127.7 335.0,126.3 335.9,125.1 336.7,124.0 337.5,123.1 338.4,122.2 339.2,121.4 340.1,120.6 340.9,120.0 341.7,119.4 342.5,118.8 343.4,118.2 344.2,117.7 345.1,117.3 345.9,116.8 346.7,116.4 347.6,116.0 348.4,115.6 349.2,115.3 350.0,115.0 350.9,114.7 351.7,114.4 352.6,114.1 353.4,113.8 354.2,113.6 355.1,113.3 355.9,113.1 356.7,112.9 357.6,112.7 358.4,112.5 359.2,112.3 360.0,112.1 360.9,111.9 361.7,111.8 362.5,111.6 363.3,111.5 364.2,111.3 365.0,111.2 365.8,111.1 366.6,110.9 367.4,110.8 368.3,110.7 369.1,110.6 369.9,110.5 370.7,110.4 371.5,110.3 372.4,110.2 373.2,110.1 374.0,110.1 374.8,110.0 375.6,109.9 376.4,109.8 377.2,109.8 378.1,109.7 378.9,109.6 379.7,109.6 380.5,109.5 381.3,109.5 382.1,109.4 383.0,109.4 383.8,109.3 384.6,109.3 385.4,109.3 386.2,109.2 387.0,109.2 387.9,109.2 388.7,109.1 389.5,109.1 390.3,109.1 391.1,109.1 391.9,109.0" fill="none" stroke="#4a90d9" stroke-width="1.5" stroke-linejoin="round" clip-path="url(#pc145)"/>
  <line x1="442" y1="16" x2="442" y2="171" stroke="#d1d5db"/>
  <line x1="442" y1="93.5" x2="800" y2="93.5" stroke="#d1d5db"/>
  <text x="621" y="197" text-anchor="middle" font-size="9" fill="#6b7280">Hz</text>
  <text x="420" y="93.5" text-anchor="middle" font-size="9" fill="#6b7280" transform="rotate(-90 420 93.5)">Phase (deg)</text>
  <line x1="474.6" y1="16" x2="474.6" y2="171" stroke="#e5e7eb" stroke-width="0.5"/>
  <line x1="493.7" y1="16" x2="493.7" y2="171" stroke="#e5e7eb" stroke-width="0.5"/>
  <line x1="507.3" y1="16" x2="507.3" y2="171" stroke="#e5e7eb" stroke-width="0.5"/>
  <line x1="517.8" y1="16" x2="517.8" y2="171" stroke="#e5e7eb" stroke-width="0.5"/>
  <line x1="526.4" y1="16" x2="526.4" y2="171" stroke="#e5e7eb" stroke-width="0.5"/>
  <line x1="533.7" y1="16" x2="533.7" y2="171" stroke="#e5e7eb" stroke-width="0.5"/>
  <line x1="539.9" y1="16" x2="539.9" y2="171" stroke="#e5e7eb" stroke-width="0.5"/>
  <line x1="545.5" y1="16" x2="545.5" y2="171" stroke="#e5e7eb" stroke-width="0.5"/>
  <line x1="583.1" y1="16" x2="583.1" y2="171" stroke="#e5e7eb" stroke-width="0.5"/>
  <line x1="602.2" y1="16" x2="602.2" y2="171" stroke="#e5e7eb" stroke-width="0.5"/>
  <line x1="615.7" y1="16" x2="615.7" y2="171" stroke="#e5e7eb" stroke-width="0.5"/>
  <line x1="626.3" y1="16" x2="626.3" y2="171" stroke="#e5e7eb" stroke-width="0.5"/>
  <line x1="634.8" y1="16" x2="634.8" y2="171" stroke="#e5e7eb" stroke-width="0.5"/>
  <line x1="642.1" y1="16" x2="642.1" y2="171" stroke="#e5e7eb" stroke-width="0.5"/>
  <line x1="648.4" y1="16" x2="648.4" y2="171" stroke="#e5e7eb" stroke-width="0.5"/>
  <line x1="653.9" y1="16" x2="653.9" y2="171" stroke="#e5e7eb" stroke-width="0.5"/>
  <line x1="691.5" y1="16" x2="691.5" y2="171" stroke="#e5e7eb" stroke-width="0.5"/>
  <line x1="710.6" y1="16" x2="710.6" y2="171" stroke="#e5e7eb" stroke-width="0.5"/>
  <line x1="724.2" y1="16" x2="724.2" y2="171" stroke="#e5e7eb" stroke-width="0.5"/>
  <line x1="734.7" y1="16" x2="734.7" y2="171" stroke="#e5e7eb" stroke-width="0.5"/>
  <line x1="743.3" y1="16" x2="743.3" y2="171" stroke="#e5e7eb" stroke-width="0.5"/>
  <line x1="750.6" y1="16" x2="750.6" y2="171" stroke="#e5e7eb" stroke-width="0.5"/>
  <line x1="756.8" y1="16" x2="756.8" y2="171" stroke="#e5e7eb" stroke-width="0.5"/>
  <line x1="762.4" y1="16" x2="762.4" y2="171" stroke="#e5e7eb" stroke-width="0.5"/>
  <line x1="800.0" y1="16" x2="800.0" y2="171" stroke="#e5e7eb" stroke-width="0.5"/>
  <line x1="550.5" y1="16" x2="550.5" y2="171" stroke="#e5e7eb" stroke-width="0.5"/>
  <text x="550.5" y="183" text-anchor="middle" font-size="8" fill="#6b7280">100</text>
  <line x1="658.9" y1="16" x2="658.9" y2="171" stroke="#e5e7eb" stroke-width="0.5"/>
  <text x="658.9" y="183" text-anchor="middle" font-size="8" fill="#6b7280">1k</text>
  <line x1="767.4" y1="16" x2="767.4" y2="171" stroke="#e5e7eb" stroke-width="0.5"/>
  <text x="767.4" y="183" text-anchor="middle" font-size="8" fill="#6b7280">10k</text>
  <line x1="442" y1="54.8" x2="800" y2="54.8" stroke="#e5e7eb" stroke-width="0.5"/>
  <line x1="442" y1="132.3" x2="800" y2="132.3" stroke="#e5e7eb" stroke-width="0.5"/>
  <line x1="442" y1="16.0" x2="800" y2="16.0" stroke="#e5e7eb" stroke-width="0.5"/>
  <text x="438" y="19.0" text-anchor="end" font-size="8" fill="#6b7280">180</text>
  <text x="438" y="96.5" text-anchor="end" font-size="8" fill="#6b7280">0</text>
  <line x1="442" y1="171.0" x2="800" y2="171.0" stroke="#e5e7eb" stroke-width="0.5"/>
  <text x="438" y="174.0" text-anchor="end" font-size="8" fill="#6b7280">-180</text>
  <defs><linearGradient id="g146" x1="0" y1="16" x2="0" y2="93.5" gradientUnits="userSpaceOnUse">
    <stop offset="0%" stop-color="#e74c3c" stop-opacity="0.15"/>
    <stop offset="100%" stop-color="#e74c3c" stop-opacity="0.02"/>
  </linearGradient></defs>
  <defs><linearGradient id="g147" x1="0" y1="171" x2="0" y2="93.5" gradientUnits="userSpaceOnUse">
    <stop offset="0%" stop-color="#e74c3c" stop-opacity="0.15"/>
    <stop offset="100%" stop-color="#e74c3c" stop-opacity="0.02"/>
  </linearGradient></defs>
  <defs><clipPath id="c148"><rect x="442" y="16" width="358" height="77.5"/></clipPath></defs>
  <defs><clipPath id="c149"><rect x="442" y="93.5" width="358" height="77.5"/></clipPath></defs>
  <path d="M445.5,94.1 445.5,94.1 478.1,94.7 497.2,95.3 510.8,95.9 521.3,96.5 529.9,97.1 537.1,97.7 543.4,98.3 549.0,98.9 553.9,99.5 558.4,100.1 562.5,100.8 566.3,101.4 569.8,102.0 573.0,102.6 576.1,103.2 578.9,103.8 581.6,104.4 584.2,105.0 586.6,105.7 588.9,106.3 591.1,106.9 593.2,107.5 595.2,108.1 597.1,108.8 598.9,109.4 600.7,110.0 602.4,110.7 604.1,111.3 605.7,112.0 607.2,112.6 608.7,113.2 610.2,113.9 611.6,114.5 612.9,115.2 614.3,115.9 615.6,116.5 616.8,117.2 618.0,117.9 619.2,118.6 620.4,119.2 621.5,119.9 622.6,120.6 623.7,121.3 624.8,122.0 625.8,122.7 626.8,123.4 627.8,124.2 628.8,124.9 629.7,125.6 630.7,126.4 631.6,127.1 632.5,127.9 633.4,128.7 634.2,129.4 635.1,130.2 635.9,131.0 636.7,131.8 637.5,132.6 639.1,134.3 640.6,136.0 642.1,137.8 643.5,139.6 644.9,141.4 646.2,143.3 647.6,145.3 648.8,147.3 650.1,149.3 651.3,151.4 652.5,153.6 653.6,155.7 654.7,157.9 655.8,160.1 656.9,162.4 657.9,164.5 659.0,166.7 660.0,168.9 660.9,170.9 661.9,171.0 662.8,171.0 663.8,171.0 664.7,171.0 665.6,171.0 666.4,171.0 667.3,171.0 668.1,171.0 669.0,171.0 669.8,171.0 671.0,171.0 672.1,171.0 673.3,171.0 674.4,171.0 675.5,171.0 676.5,171.0 677.6,171.0 678.6,171.0 679.6,171.0 680.5,171.0 681.5,171.0 682.4,171.0 683.3,171.0 684.2,171.0 685.1,171.0 686.0,171.0 686.8,171.0 687.6,171.0 688.5,171.0 689.3,171.0 690.3,171.0 691.4,171.0 692.4,171.0 693.3,171.0 694.3,171.0 695.3,139.2 696.2,139.9 697.1,140.6 698.0,141.2 698.9,141.8 699.7,142.3 700.6,142.9 701.4,143.4 702.2,143.9 703.0,144.4 704.0,145.0 705.0,145.6 705.9,146.1 706.8,146.6 707.7,147.1 708.6,147.6 709.5,148.0 710.4,148.5 711.2,148.9 712.0,149.3 712.9,149.7 713.8,150.2 714.7,150.6 715.7,151.0 716.6,151.4 717.5,151.8 718.3,152.2 719.2,152.5 720.0,152.9 720.8,153.2 721.7,153.6 722.6,153.9 723.5,154.3 724.4,154.6 725.3,154.9 726.1,155.2 727.0,155.5 727.8,155.8 728.6,156.1 729.4,156.4 730.3,156.7 731.2,157.0 732.1,157.3 732.9,157.5 733.7,157.8 734.6,158.0 735.4,80.8 736.3,81.0 737.1,81.3 738.0,81.5 738.8,81.8 739.7,82.0 740.5,82.2 741.3,82.4 742.2,82.7 743.0,82.9 743.9,83.1 744.7,83.3 745.5,83.5 746.4,83.7 747.2,83.9 748.1,84.1 748.9,84.3 749.7,84.5 750.5,84.7 751.4,84.9 752.2,85.1 753.1,85.2 753.9,85.4 754.7,85.6 755.6,85.8 756.4,85.9 757.2,86.1 758.0,86.3 758.9,86.4 759.7,86.6 760.6,86.7 761.4,86.9 762.2,87.1 763.1,87.2 763.9,87.4 764.7,87.5 765.6,87.6 766.4,87.8 767.2,87.9 768.0,88.1 768.9,88.2 769.7,88.3 770.5,88.5 771.3,88.6 772.2,88.8 773.0,88.9 773.8,89.0 774.6,89.1 775.4,89.3 776.3,89.4 777.1,89.5 777.9,89.6 778.7,89.8 779.5,89.9 780.4,90.0 781.2,90.1 782.0,90.2 782.8,90.4 783.6,90.5 784.4,90.6 785.2,90.7 786.1,90.8 786.9,90.9 787.7,91.1 788.5,91.2 789.3,91.3 790.1,91.4 791.0,91.5 791.8,91.6 792.6,91.7 793.4,91.9 794.2,92.0 795.0,92.1 795.9,92.2 796.7,92.3 797.5,92.4 798.3,92.5 799.1,92.7 799.9,92.8 L799.9,93.5 L445.5,93.5 Z" fill="url(#g146)" clip-path="url(#c148)"/>
  <path d="M445.5,94.1 445.5,94.1 478.1,94.7 497.2,95.3 510.8,95.9 521.3,96.5 529.9,97.1 537.1,97.7 543.4,98.3 549.0,98.9 553.9,99.5 558.4,100.1 562.5,100.8 566.3,101.4 569.8,102.0 573.0,102.6 576.1,103.2 578.9,103.8 581.6,104.4 584.2,105.0 586.6,105.7 588.9,106.3 591.1,106.9 593.2,107.5 595.2,108.1 597.1,108.8 598.9,109.4 600.7,110.0 602.4,110.7 604.1,111.3 605.7,112.0 607.2,112.6 608.7,113.2 610.2,113.9 611.6,114.5 612.9,115.2 614.3,115.9 615.6,116.5 616.8,117.2 618.0,117.9 619.2,118.6 620.4,119.2 621.5,119.9 622.6,120.6 623.7,121.3 624.8,122.0 625.8,122.7 626.8,123.4 627.8,124.2 628.8,124.9 629.7,125.6 630.7,126.4 631.6,127.1 632.5,127.9 633.4,128.7 634.2,129.4 635.1,130.2 635.9,131.0 636.7,131.8 637.5,132.6 639.1,134.3 640.6,136.0 642.1,137.8 643.5,139.6 644.9,141.4 646.2,143.3 647.6,145.3 648.8,147.3 650.1,149.3 651.3,151.4 652.5,153.6 653.6,155.7 654.7,157.9 655.8,160.1 656.9,162.4 657.9,164.5 659.0,166.7 660.0,168.9 660.9,170.9 661.9,171.0 662.8,171.0 663.8,171.0 664.7,171.0 665.6,171.0 666.4,171.0 667.3,171.0 668.1,171.0 669.0,171.0 669.8,171.0 671.0,171.0 672.1,171.0 673.3,171.0 674.4,171.0 675.5,171.0 676.5,171.0 677.6,171.0 678.6,171.0 679.6,171.0 680.5,171.0 681.5,171.0 682.4,171.0 683.3,171.0 684.2,171.0 685.1,171.0 686.0,171.0 686.8,171.0 687.6,171.0 688.5,171.0 689.3,171.0 690.3,171.0 691.4,171.0 692.4,171.0 693.3,171.0 694.3,171.0 695.3,139.2 696.2,139.9 697.1,140.6 698.0,141.2 698.9,141.8 699.7,142.3 700.6,142.9 701.4,143.4 702.2,143.9 703.0,144.4 704.0,145.0 705.0,145.6 705.9,146.1 706.8,146.6 707.7,147.1 708.6,147.6 709.5,148.0 710.4,148.5 711.2,148.9 712.0,149.3 712.9,149.7 713.8,150.2 714.7,150.6 715.7,151.0 716.6,151.4 717.5,151.8 718.3,152.2 719.2,152.5 720.0,152.9 720.8,153.2 721.7,153.6 722.6,153.9 723.5,154.3 724.4,154.6 725.3,154.9 726.1,155.2 727.0,155.5 727.8,155.8 728.6,156.1 729.4,156.4 730.3,156.7 731.2,157.0 732.1,157.3 732.9,157.5 733.7,157.8 734.6,158.0 735.4,80.8 736.3,81.0 737.1,81.3 738.0,81.5 738.8,81.8 739.7,82.0 740.5,82.2 741.3,82.4 742.2,82.7 743.0,82.9 743.9,83.1 744.7,83.3 745.5,83.5 746.4,83.7 747.2,83.9 748.1,84.1 748.9,84.3 749.7,84.5 750.5,84.7 751.4,84.9 752.2,85.1 753.1,85.2 753.9,85.4 754.7,85.6 755.6,85.8 756.4,85.9 757.2,86.1 758.0,86.3 758.9,86.4 759.7,86.6 760.6,86.7 761.4,86.9 762.2,87.1 763.1,87.2 763.9,87.4 764.7,87.5 765.6,87.6 766.4,87.8 767.2,87.9 768.0,88.1 768.9,88.2 769.7,88.3 770.5,88.5 771.3,88.6 772.2,88.8 773.0,88.9 773.8,89.0 774.6,89.1 775.4,89.3 776.3,89.4 777.1,89.5 777.9,89.6 778.7,89.8 779.5,89.9 780.4,90.0 781.2,90.1 782.0,90.2 782.8,90.4 783.6,90.5 784.4,90.6 785.2,90.7 786.1,90.8 786.9,90.9 787.7,91.1 788.5,91.2 789.3,91.3 790.1,91.4 791.0,91.5 791.8,91.6 792.6,91.7 793.4,91.9 794.2,92.0 795.0,92.1 795.9,92.2 796.7,92.3 797.5,92.4 798.3,92.5 799.1,92.7 799.9,92.8 L799.9,93.5 L445.5,93.5 Z" fill="url(#g147)" clip-path="url(#c149)"/>
  <defs><clipPath id="pc150"><rect x="442" y="16" width="358" height="155"/></clipPath></defs>
  <polyline points="445.5,94.1 478.1,94.7 497.2,95.3 510.8,95.9 521.3,96.5 529.9,97.1 537.1,97.7 543.4,98.3 549.0,98.9 553.9,99.5 558.4,100.1 562.5,100.8 566.3,101.4 569.8,102.0 573.0,102.6 576.1,103.2 578.9,103.8 581.6,104.4 584.2,105.0 586.6,105.7 588.9,106.3 591.1,106.9 593.2,107.5 595.2,108.1 597.1,108.8 598.9,109.4 600.7,110.0 602.4,110.7 604.1,111.3 605.7,112.0 607.2,112.6 608.7,113.2 610.2,113.9 611.6,114.5 612.9,115.2 614.3,115.9 615.6,116.5 616.8,117.2 618.0,117.9 619.2,118.6 620.4,119.2 621.5,119.9 622.6,120.6 623.7,121.3 624.8,122.0 625.8,122.7 626.8,123.4 627.8,124.2 628.8,124.9 629.7,125.6 630.7,126.4 631.6,127.1 632.5,127.9 633.4,128.7 634.2,129.4 635.1,130.2 635.9,131.0 636.7,131.8 637.5,132.6 639.1,134.3 640.6,136.0 642.1,137.8 643.5,139.6 644.9,141.4 646.2,143.3 647.6,145.3 648.8,147.3 650.1,149.3 651.3,151.4 652.5,153.6 653.6,155.7 654.7,157.9 655.8,160.1 656.9,162.4 657.9,164.5 659.0,166.7 660.0,168.9 660.9,170.9 661.9,173.0 662.8,175.0 663.8,176.9 664.7,178.7 665.6,180.5 666.4,182.1 667.3,183.8 668.1,185.3 669.0,186.8 669.8,188.2 671.0,190.2 672.1,192.0 673.3,193.8 674.4,195.4 675.5,196.9 676.5,198.3 677.6,199.7 678.6,200.9 679.6,202.1 680.5,203.3 681.5,204.3 682.4,205.4 683.3,206.3 684.2,207.2 685.1,208.1 686.0,208.9 686.8,209.8 687.6,210.5 688.5,211.3 689.3,212.0 690.3,212.9 691.4,213.7 692.4,214.5 693.3,215.3 694.3,216.0 695.3,139.2 696.2,139.9 697.1,140.6 698.0,141.2 698.9,141.8 699.7,142.3 700.6,142.9 701.4,143.4 702.2,143.9 703.0,144.4 704.0,145.0 705.0,145.6 705.9,146.1 706.8,146.6 707.7,147.1 708.6,147.6 709.5,148.0 710.4,148.5 711.2,148.9 712.0,149.3 712.9,149.7 713.8,150.2 714.7,150.6 715.7,151.0 716.6,151.4 717.5,151.8 718.3,152.2 719.2,152.5 720.0,152.9 720.8,153.2 721.7,153.6 722.6,153.9 723.5,154.3 724.4,154.6 725.3,154.9 726.1,155.2 727.0,155.5 727.8,155.8 728.6,156.1 729.4,156.4 730.3,156.7 731.2,157.0 732.1,157.3 732.9,157.5 733.7,157.8 734.6,158.0 735.4,80.8 736.3,81.0 737.1,81.3 738.0,81.5 738.8,81.8 739.7,82.0 740.5,82.2 741.3,82.4 742.2,82.7 743.0,82.9 743.9,83.1 744.7,83.3 745.5,83.5 746.4,83.7 747.2,83.9 748.1,84.1 748.9,84.3 749.7,84.5 750.5,84.7 751.4,84.9 752.2,85.1 753.1,85.2 753.9,85.4 754.7,85.6 755.6,85.8 756.4,85.9 757.2,86.1 758.0,86.3 758.9,86.4 759.7,86.6 760.6,86.7 761.4,86.9 762.2,87.1 763.1,87.2 763.9,87.4 764.7,87.5 765.6,87.6 766.4,87.8 767.2,87.9 768.0,88.1 768.9,88.2 769.7,88.3 770.5,88.5 771.3,88.6 772.2,88.8 773.0,88.9 773.8,89.0 774.6,89.1 775.4,89.3 776.3,89.4 777.1,89.5 777.9,89.6 778.7,89.8 779.5,89.9 780.4,90.0 781.2,90.1 782.0,90.2 782.8,90.4 783.6,90.5 784.4,90.6 785.2,90.7 786.1,90.8 786.9,90.9 787.7,91.1 788.5,91.2 789.3,91.3 790.1,91.4 791.0,91.5 791.8,91.6 792.6,91.7 793.4,91.9 794.2,92.0 795.0,92.1 795.9,92.2 796.7,92.3 797.5,92.4 798.3,92.5 799.1,92.7 799.9,92.8" fill="none" stroke="#e74c3c" stroke-width="1.5" stroke-linejoin="round" clip-path="url(#pc150)"/>
  <line x1="34" y1="221" x2="34" y2="376" stroke="#d1d5db"/>
  <line x1="34" y1="298.5" x2="392" y2="298.5" stroke="#d1d5db"/>
  <text x="213" y="402" text-anchor="middle" font-size="9" fill="#6b7280">Hz</text>
  <text x="12" y="298.5" text-anchor="middle" font-size="9" fill="#6b7280" transform="rotate(-90 12 298.5)">Group delay</text>
  <line x1="66.6" y1="221" x2="66.6" y2="376" stroke="#e5e7eb" stroke-width="0.5"/>
  <line x1="85.7" y1="221" x2="85.7" y2="376" stroke="#e5e7eb" stroke-width="0.5"/>
  <line x1="99.3" y1="221" x2="99.3" y2="376" stroke="#e5e7eb" stroke-width="0.5"/>
  <line x1="109.8" y1="221" x2="109.8" y2="376" stroke="#e5e7eb" stroke-width="0.5"/>
  <line x1="118.4" y1="221" x2="118.4" y2="376" stroke="#e5e7eb" stroke-width="0.5"/>
  <line x1="125.7" y1="221" x2="125.7" y2="376" stroke="#e5e7eb" stroke-width="0.5"/>
  <line x1="131.9" y1="221" x2="131.9" y2="376" stroke="#e5e7eb" stroke-width="0.5"/>
  <line x1="137.5" y1="221" x2="137.5" y2="376" stroke="#e5e7eb" stroke-width="0.5"/>
  <line x1="175.1" y1="221" x2="175.1" y2="376" stroke="#e5e7eb" stroke-width="0.5"/>
  <line x1="194.2" y1="221" x2="194.2" y2="376" stroke="#e5e7eb" stroke-width="0.5"/>
  <line x1="207.7" y1="221" x2="207.7" y2="376" stroke="#e5e7eb" stroke-width="0.5"/>
  <line x1="218.3" y1="221" x2="218.3" y2="376" stroke="#e5e7eb" stroke-width="0.5"/>
  <line x1="226.8" y1="221" x2="226.8" y2="376" stroke="#e5e7eb" stroke-width="0.5"/>
  <line x1="234.1" y1="221" x2="234.1" y2="376" stroke="#e5e7eb" stroke-width="0.5"/>
  <line x1="240.4" y1="221" x2="240.4" y2="376" stroke="#e5e7eb" stroke-width="0.5"/>
  <line x1="245.9" y1="221" x2="245.9" y2="376" stroke="#e5e7eb" stroke-width="0.5"/>
  <line x1="283.5" y1="221" x2="283.5" y2="376" stroke="#e5e7eb" stroke-width="0.5"/>
  <line x1="302.6" y1="221" x2="302.6" y2="376" stroke="#e5e7eb" stroke-width="0.5"/>
  <line x1="316.2" y1="221" x2="316.2" y2="376" stroke="#e5e7eb" stroke-width="0.5"/>
  <line x1="326.7" y1="221" x2="326.7" y2="376" stroke="#e5e7eb" stroke-width="0.5"/>
  <line x1="335.3" y1="221" x2="335.3" y2="376" stroke="#e5e7eb" stroke-width="0.5"/>
  <line x1="342.6" y1="221" x2="342.6" y2="376" stroke="#e5e7eb" stroke-width="0.5"/>
  <line x1="348.8" y1="221" x2="348.8" y2="376" stroke="#e5e7eb" stroke-width="0.5"/>
  <line x1="354.4" y1="221" x2="354.4" y2="376" stroke="#e5e7eb" stroke-width="0.5"/>
  <line x1="392.0" y1="221" x2="392.0" y2="376" stroke="#e5e7eb" stroke-width="0.5"/>
  <line x1="142.5" y1="221" x2="142.5" y2="376" stroke="#e5e7eb" stroke-width="0.5"/>
  <text x="142.5" y="388" text-anchor="middle" font-size="8" fill="#6b7280">100</text>
  <line x1="250.9" y1="221" x2="250.9" y2="376" stroke="#e5e7eb" stroke-width="0.5"/>
  <text x="250.9" y="388" text-anchor="middle" font-size="8" fill="#6b7280">1k</text>
  <line x1="359.4" y1="221" x2="359.4" y2="376" stroke="#e5e7eb" stroke-width="0.5"/>
  <text x="359.4" y="388" text-anchor="middle" font-size="8" fill="#6b7280">10k</text>
  <line x1="34" y1="344.5" x2="392" y2="344.5" stroke="#e5e7eb" stroke-width="0.5"/>
  <text x="30" y="347.5" text-anchor="end" font-size="8" fill="#6b7280">-3000</text>
  <text x="30" y="301.5" text-anchor="end" font-size="8" fill="#6b7280">0</text>
  <line x1="34" y1="252.5" x2="392" y2="252.5" stroke="#e5e7eb" stroke-width="0.5"/>
  <text x="30" y="255.5" text-anchor="end" font-size="8" fill="#6b7280">3000</text>
  <defs><linearGradient id="g151" x1="0" y1="221" x2="0" y2="298.5" gradientUnits="userSpaceOnUse">
    <stop offset="0%" stop-color="#2ecc71" stop-opacity="0.15"/>
    <stop offset="100%" stop-color="#2ecc71" stop-opacity="0.02"/>
  </linearGradient></defs>
  <defs><linearGradient id="g152" x1="0" y1="376" x2="0" y2="298.5" gradientUnits="userSpaceOnUse">
    <stop offset="0%" stop-color="#2ecc71" stop-opacity="0.15"/>
    <stop offset="100%" stop-color="#2ecc71" stop-opacity="0.02"/>
  </linearGradient></defs>
  <defs><clipPath id="c153"><rect x="34" y="221" width="358" height="77.5"/></clipPath></defs>
  <defs><clipPath id="c154"><rect x="34" y="298.5" width="358" height="77.5"/></clipPath></defs>
  <path d="M37.5,298.5 37.5,298.5 70.1,298.5 89.2,298.5 102.8,298.5 113.3,298.5 121.9,298.5 129.1,298.5 135.4,298.5 141.0,298.5 145.9,298.5 150.4,298.5 154.5,298.5 158.3,298.5 161.8,298.5 165.0,298.5 168.1,298.5 170.9,298.5 173.6,298.5 176.2,298.5 178.6,298.5 180.9,298.5 183.1,298.5 185.2,298.5 187.2,298.5 189.1,298.5 190.9,298.5 192.7,298.5 194.4,298.5 196.1,298.5 197.7,298.5 199.2,298.5 200.7,298.5 202.2,298.5 203.6,298.5 204.9,298.5 206.3,298.5 207.6,298.5 208.8,298.5 210.0,298.5 211.2,298.5 212.4,298.5 213.5,298.5 214.6,298.5 215.7,298.5 216.8,298.5 217.8,298.5 218.8,298.5 219.8,298.5 220.8,298.5 221.7,298.5 222.7,298.5 223.6,298.5 224.5,298.5 225.4,298.5 226.2,298.5 227.1,298.5 227.9,298.5 228.7,298.5 229.5,298.5 231.1,298.5 232.6,298.5 234.1,298.5 235.5,298.5 236.9,298.5 238.2,298.6 239.6,298.6 240.8,298.6 242.1,298.6 243.3,298.6 244.5,298.6 245.6,298.6 246.7,298.7 247.8,298.7 248.9,298.7 249.9,298.7 251.0,298.8 252.0,298.8 252.9,298.8 253.9,298.8 254.8,298.8 255.8,298.8 256.7,298.9 257.6,298.9 258.4,298.9 259.3,298.9 260.1,298.9 261.0,298.9 261.8,298.9 263.0,298.9 264.1,298.9 265.3,298.9 266.4,298.9 267.5,298.9 268.5,298.9 269.6,298.9 270.6,298.9 271.6,298.9 272.5,298.9 273.5,298.9 274.4,299.0 275.3,299.0 276.2,299.0 277.1,299.0 278.0,299.0 278.8,299.0 279.6,299.1 280.5,299.1 281.3,299.1 282.3,299.2 283.4,299.3 284.4,299.6 285.3,300.0 286.3,301.3 287.3,238.9 288.2,296.3 289.1,297.5 290.0,297.9 290.9,298.1 291.7,298.2 292.6,298.3 293.4,298.3 294.2,298.4 295.0,298.4 296.0,298.4 297.0,298.5 297.9,298.5 298.8,298.5 299.7,298.5 300.6,298.5 301.5,298.5 302.4,298.5 303.2,298.5 304.0,298.5 304.9,298.6 305.8,298.6 306.7,298.6 307.7,298.6 308.6,298.6 309.5,298.6 310.3,298.6 311.2,298.6 312.0,298.6 312.8,298.6 313.7,298.6 314.6,298.6 315.5,298.6 316.4,298.6 317.3,298.6 318.1,298.6 319.0,298.7 319.8,298.7 320.6,298.7 321.4,298.7 322.3,298.7 323.2,298.8 324.1,298.9 324.9,299.0 325.7,299.3 326.6,300.7 327.4,295.6 328.3,297.7 329.1,298.1 330.0,298.2 330.8,298.3 331.7,298.3 332.5,298.3 333.3,298.4 334.2,298.4 335.0,298.4 335.9,298.4 336.7,298.4 337.5,298.4 338.4,298.4 339.2,298.4 340.1,298.5 340.9,298.5 341.7,298.5 342.5,298.5 343.4,298.5 344.2,298.5 345.1,298.5 345.9,298.5 346.7,298.5 347.6,298.5 348.4,298.5 349.2,298.5 350.0,298.5 350.9,298.5 351.7,298.5 352.6,298.5 353.4,298.5 354.2,298.5 355.1,298.5 355.9,298.5 356.7,298.5 357.6,298.5 358.4,298.5 359.2,298.5 360.0,298.5 360.9,298.5 361.7,298.5 362.5,298.5 363.3,298.5 364.2,298.5 365.0,298.5 365.8,298.5 366.6,298.5 367.4,298.5 368.3,298.5 369.1,298.5 369.9,298.5 370.7,298.5 371.5,298.5 372.4,298.5 373.2,298.5 374.0,298.5 374.8,298.5 375.6,298.5 376.4,298.5 377.2,298.5 378.1,298.5 378.9,298.5 379.7,298.5 380.5,298.5 381.3,298.5 382.1,298.5 383.0,298.5 383.8,298.5 384.6,298.5 385.4,298.5 386.2,298.5 387.0,298.5 387.9,298.5 388.7,298.5 389.5,298.5 390.3,298.5 391.1,298.5 391.9,298.5 L391.9,298.5 L37.5,298.5 Z" fill="url(#g151)" clip-path="url(#c153)"/>
  <path d="M37.5,298.5 37.5,298.5 70.1,298.5 89.2,298.5 102.8,298.5 113.3,298.5 121.9,298.5 129.1,298.5 135.4,298.5 141.0,298.5 145.9,298.5 150.4,298.5 154.5,298.5 158.3,298.5 161.8,298.5 165.0,298.5 168.1,298.5 170.9,298.5 173.6,298.5 176.2,298.5 178.6,298.5 180.9,298.5 183.1,298.5 185.2,298.5 187.2,298.5 189.1,298.5 190.9,298.5 192.7,298.5 194.4,298.5 196.1,298.5 197.7,298.5 199.2,298.5 200.7,298.5 202.2,298.5 203.6,298.5 204.9,298.5 206.3,298.5 207.6,298.5 208.8,298.5 210.0,298.5 211.2,298.5 212.4,298.5 213.5,298.5 214.6,298.5 215.7,298.5 216.8,298.5 217.8,298.5 218.8,298.5 219.8,298.5 220.8,298.5 221.7,298.5 222.7,298.5 223.6,298.5 224.5,298.5 225.4,298.5 226.2,298.5 227.1,298.5 227.9,298.5 228.7,298.5 229.5,298.5 231.1,298.5 232.6,298.5 234.1,298.5 235.5,298.5 236.9,298.5 238.2,298.6 239.6,298.6 240.8,298.6 242.1,298.6 243.3,298.6 244.5,298.6 245.6,298.6 246.7,298.7 247.8,298.7 248.9,298.7 249.9,298.7 251.0,298.8 252.0,298.8 252.9,298.8 253.9,298.8 254.8,298.8 255.8,298.8 256.7,298.9 257.6,298.9 258.4,298.9 259.3,298.9 260.1,298.9 261.0,298.9 261.8,298.9 263.0,298.9 264.1,298.9 265.3,298.9 266.4,298.9 267.5,298.9 268.5,298.9 269.6,298.9 270.6,298.9 271.6,298.9 272.5,298.9 273.5,298.9 274.4,299.0 275.3,299.0 276.2,299.0 277.1,299.0 278.0,299.0 278.8,299.0 279.6,299.1 280.5,299.1 281.3,299.1 282.3,299.2 283.4,299.3 284.4,299.6 285.3,300.0 286.3,301.3 287.3,238.9 288.2,296.3 289.1,297.5 290.0,297.9 290.9,298.1 291.7,298.2 292.6,298.3 293.4,298.3 294.2,298.4 295.0,298.4 296.0,298.4 297.0,298.5 297.9,298.5 298.8,298.5 299.7,298.5 300.6,298.5 301.5,298.5 302.4,298.5 303.2,298.5 304.0,298.5 304.9,298.6 305.8,298.6 306.7,298.6 307.7,298.6 308.6,298.6 309.5,298.6 310.3,298.6 311.2,298.6 312.0,298.6 312.8,298.6 313.7,298.6 314.6,298.6 315.5,298.6 316.4,298.6 317.3,298.6 318.1,298.6 319.0,298.7 319.8,298.7 320.6,298.7 321.4,298.7 322.3,298.7 323.2,298.8 324.1,298.9 324.9,299.0 325.7,299.3 326.6,300.7 327.4,295.6 328.3,297.7 329.1,298.1 330.0,298.2 330.8,298.3 331.7,298.3 332.5,298.3 333.3,298.4 334.2,298.4 335.0,298.4 335.9,298.4 336.7,298.4 337.5,298.4 338.4,298.4 339.2,298.4 340.1,298.5 340.9,298.5 341.7,298.5 342.5,298.5 343.4,298.5 344.2,298.5 345.1,298.5 345.9,298.5 346.7,298.5 347.6,298.5 348.4,298.5 349.2,298.5 350.0,298.5 350.9,298.5 351.7,298.5 352.6,298.5 353.4,298.5 354.2,298.5 355.1,298.5 355.9,298.5 356.7,298.5 357.6,298.5 358.4,298.5 359.2,298.5 360.0,298.5 360.9,298.5 361.7,298.5 362.5,298.5 363.3,298.5 364.2,298.5 365.0,298.5 365.8,298.5 366.6,298.5 367.4,298.5 368.3,298.5 369.1,298.5 369.9,298.5 370.7,298.5 371.5,298.5 372.4,298.5 373.2,298.5 374.0,298.5 374.8,298.5 375.6,298.5 376.4,298.5 377.2,298.5 378.1,298.5 378.9,298.5 379.7,298.5 380.5,298.5 381.3,298.5 382.1,298.5 383.0,298.5 383.8,298.5 384.6,298.5 385.4,298.5 386.2,298.5 387.0,298.5 387.9,298.5 388.7,298.5 389.5,298.5 390.3,298.5 391.1,298.5 391.9,298.5 L391.9,298.5 L37.5,298.5 Z" fill="url(#g152)" clip-path="url(#c154)"/>
  <defs><clipPath id="pc155"><rect x="34" y="221" width="358" height="155"/></clipPath></defs>
  <polyline points="37.5,298.5 70.1,298.5 89.2,298.5 102.8,298.5 113.3,298.5 121.9,298.5 129.1,298.5 135.4,298.5 141.0,298.5 145.9,298.5 150.4,298.5 154.5,298.5 158.3,298.5 161.8,298.5 165.0,298.5 168.1,298.5 170.9,298.5 173.6,298.5 176.2,298.5 178.6,298.5 180.9,298.5 183.1,298.5 185.2,298.5 187.2,298.5 189.1,298.5 190.9,298.5 192.7,298.5 194.4,298.5 196.1,298.5 197.7,298.5 199.2,298.5 200.7,298.5 202.2,298.5 203.6,298.5 204.9,298.5 206.3,298.5 207.6,298.5 208.8,298.5 210.0,298.5 211.2,298.5 212.4,298.5 213.5,298.5 214.6,298.5 215.7,298.5 216.8,298.5 217.8,298.5 218.8,298.5 219.8,298.5 220.8,298.5 221.7,298.5 222.7,298.5 223.6,298.5 224.5,298.5 225.4,298.5 226.2,298.5 227.1,298.5 227.9,298.5 228.7,298.5 229.5,298.5 231.1,298.5 232.6,298.5 234.1,298.5 235.5,298.5 236.9,298.5 238.2,298.6 239.6,298.6 240.8,298.6 242.1,298.6 243.3,298.6 244.5,298.6 245.6,298.6 246.7,298.7 247.8,298.7 248.9,298.7 249.9,298.7 251.0,298.8 252.0,298.8 252.9,298.8 253.9,298.8 254.8,298.8 255.8,298.8 256.7,298.9 257.6,298.9 258.4,298.9 259.3,298.9 260.1,298.9 261.0,298.9 261.8,298.9 263.0,298.9 264.1,298.9 265.3,298.9 266.4,298.9 267.5,298.9 268.5,298.9 269.6,298.9 270.6,298.9 271.6,298.9 272.5,298.9 273.5,298.9 274.4,299.0 275.3,299.0 276.2,299.0 277.1,299.0 278.0,299.0 278.8,299.0 279.6,299.1 280.5,299.1 281.3,299.1 282.3,299.2 283.4,299.3 284.4,299.6 285.3,300.0 286.3,301.3 287.3,238.9 288.2,296.3 289.1,297.5 290.0,297.9 290.9,298.1 291.7,298.2 292.6,298.3 293.4,298.3 294.2,298.4 295.0,298.4 296.0,298.4 297.0,298.5 297.9,298.5 298.8,298.5 299.7,298.5 300.6,298.5 301.5,298.5 302.4,298.5 303.2,298.5 304.0,298.5 304.9,298.6 305.8,298.6 306.7,298.6 307.7,298.6 308.6,298.6 309.5,298.6 310.3,298.6 311.2,298.6 312.0,298.6 312.8,298.6 313.7,298.6 314.6,298.6 315.5,298.6 316.4,298.6 317.3,298.6 318.1,298.6 319.0,298.7 319.8,298.7 320.6,298.7 321.4,298.7 322.3,298.7 323.2,298.8 324.1,298.9 324.9,299.0 325.7,299.3 326.6,300.7 327.4,295.6 328.3,297.7 329.1,298.1 330.0,298.2 330.8,298.3 331.7,298.3 332.5,298.3 333.3,298.4 334.2,298.4 335.0,298.4 335.9,298.4 336.7,298.4 337.5,298.4 338.4,298.4 339.2,298.4 340.1,298.5 340.9,298.5 341.7,298.5 342.5,298.5 343.4,298.5 344.2,298.5 345.1,298.5 345.9,298.5 346.7,298.5 347.6,298.5 348.4,298.5 349.2,298.5 350.0,298.5 350.9,298.5 351.7,298.5 352.6,298.5 353.4,298.5 354.2,298.5 355.1,298.5 355.9,298.5 356.7,298.5 357.6,298.5 358.4,298.5 359.2,298.5 360.0,298.5 360.9,298.5 361.7,298.5 362.5,298.5 363.3,298.5 364.2,298.5 365.0,298.5 365.8,298.5 366.6,298.5 367.4,298.5 368.3,298.5 369.1,298.5 369.9,298.5 370.7,298.5 371.5,298.5 372.4,298.5 373.2,298.5 374.0,298.5 374.8,298.5 375.6,298.5 376.4,298.5 377.2,298.5 378.1,298.5 378.9,298.5 379.7,298.5 380.5,298.5 381.3,298.5 382.1,298.5 383.0,298.5 383.8,298.5 384.6,298.5 385.4,298.5 386.2,298.5 387.0,298.5 387.9,298.5 388.7,298.5 389.5,298.5 390.3,298.5 391.1,298.5 391.9,298.5" fill="none" stroke="#2ecc71" stroke-width="1.5" stroke-linejoin="round" clip-path="url(#pc155)"/>
  <line x1="442" y1="221" x2="442" y2="376" stroke="#d1d5db"/>
  <line x1="442" y1="298.5" x2="800" y2="298.5" stroke="#d1d5db"/>
  <text x="621" y="402" text-anchor="middle" font-size="9" fill="#6b7280">Samples</text>
  <text x="420" y="298.5" text-anchor="middle" font-size="9" fill="#6b7280" transform="rotate(-90 420 298.5)">Impulse response</text>
  <line x1="442.0" y1="221" x2="442.0" y2="376" stroke="#e5e7eb" stroke-width="0.5"/>
  <text x="442.0" y="388" text-anchor="middle" font-size="8" fill="#6b7280">0</text>
  <line x1="531.5" y1="221" x2="531.5" y2="376" stroke="#e5e7eb" stroke-width="0.5"/>
  <text x="531.5" y="388" text-anchor="middle" font-size="8" fill="#6b7280">32</text>
  <line x1="621.0" y1="221" x2="621.0" y2="376" stroke="#e5e7eb" stroke-width="0.5"/>
  <text x="621.0" y="388" text-anchor="middle" font-size="8" fill="#6b7280">64</text>
  <line x1="710.5" y1="221" x2="710.5" y2="376" stroke="#e5e7eb" stroke-width="0.5"/>
  <text x="710.5" y="388" text-anchor="middle" font-size="8" fill="#6b7280">96</text>
  <line x1="800.0" y1="221" x2="800.0" y2="376" stroke="#e5e7eb" stroke-width="0.5"/>
  <text x="800.0" y="388" text-anchor="middle" font-size="8" fill="#6b7280">128</text>
  <line x1="442" y1="357.8" x2="800" y2="357.8" stroke="#e5e7eb" stroke-width="0.5"/>
  <text x="438" y="360.8" text-anchor="end" font-size="8" fill="#6b7280">-0.04</text>
  <text x="438" y="301.5" text-anchor="end" font-size="8" fill="#6b7280">0</text>
  <line x1="442" y1="239.2" x2="800" y2="239.2" stroke="#e5e7eb" stroke-width="0.5"/>
  <text x="438" y="242.2" text-anchor="end" font-size="8" fill="#6b7280">0.04</text>
  <defs><linearGradient id="g156" x1="0" y1="221" x2="0" y2="298.5" gradientUnits="userSpaceOnUse">
    <stop offset="0%" stop-color="#f39c12" stop-opacity="0.15"/>
    <stop offset="100%" stop-color="#f39c12" stop-opacity="0.02"/>
  </linearGradient></defs>
  <defs><linearGradient id="g157" x1="0" y1="376" x2="0" y2="298.5" gradientUnits="userSpaceOnUse">
    <stop offset="0%" stop-color="#f39c12" stop-opacity="0.15"/>
    <stop offset="100%" stop-color="#f39c12" stop-opacity="0.02"/>
  </linearGradient></defs>
  <defs><clipPath id="c158"><rect x="442" y="221" width="358" height="77.5"/></clipPath></defs>
  <defs><clipPath id="c159"><rect x="442" y="298.5" width="358" height="77.5"/></clipPath></defs>
  <path d="M442.0,284.2 442.0,284.2 444.8,295.6 447.6,288.8 450.4,283.5 453.2,279.2 456.0,275.2 458.8,271.3 461.6,267.1 464.4,262.6 467.2,257.9 470.0,253.0 472.8,248.0 475.6,243.0 478.4,238.3 481.2,233.9 484.0,229.9 486.8,226.6 489.5,224.0 492.3,222.1 495.1,221.1 497.9,221.0 500.7,221.7 503.5,223.3 506.3,225.7 509.1,228.9 511.9,232.7 514.7,237.2 517.5,242.1 520.3,247.4 523.1,253.0 525.9,258.8 528.7,264.7 531.5,270.6 534.3,276.4 537.1,281.9 539.9,287.2 542.7,292.2 545.5,296.8 548.3,300.9 551.1,304.6 553.9,307.7 556.7,310.4 559.5,312.6 562.3,314.2 565.1,315.4 567.9,316.2 570.7,316.5 573.5,316.4 576.3,315.9 579.0,315.2 581.8,314.2 584.6,313.0 587.4,311.6 590.2,310.0 593.0,308.4 595.8,306.8 598.6,305.1 601.4,303.5 604.2,301.9 607.0,300.4 609.8,299.0 612.6,297.7 615.4,296.5 618.2,295.6 621.0,294.7 623.8,294.0 626.6,293.5 629.4,293.1 632.2,292.9 635.0,292.8 637.8,292.8 640.6,292.9 643.4,293.2 646.2,293.5 649.0,293.9 651.8,294.3 654.6,294.8 657.4,295.3 660.2,295.9 663.0,296.4 665.8,296.9 668.5,297.4 671.3,297.9 674.1,298.4 676.9,298.8 679.7,299.1 682.5,299.5 685.3,299.7 688.1,300.0 690.9,300.1 693.7,300.3 696.5,300.3 699.3,300.4 702.1,300.4 704.9,300.3 707.7,300.2 710.5,300.1 713.3,300.0 716.1,299.9 718.9,299.7 721.7,299.5 724.5,299.4 727.3,299.2 730.1,299.0 732.9,298.9 735.7,298.7 738.5,298.5 741.3,298.4 744.1,298.3 746.9,298.2 749.7,298.1 752.5,298.0 755.3,298.0 758.0,297.9 760.8,297.9 763.6,297.9 766.4,297.9 769.2,297.9 772.0,297.9 774.8,298.0 777.6,298.0 780.4,298.1 783.2,298.1 786.0,298.2 788.8,298.2 791.6,298.3 794.4,298.3 797.2,298.4 L797.2,298.5 L442.0,298.5 Z" fill="url(#g156)" clip-path="url(#c158)"/>
  <path d="M442.0,284.2 442.0,284.2 444.8,295.6 447.6,288.8 450.4,283.5 453.2,279.2 456.0,275.2 458.8,271.3 461.6,267.1 464.4,262.6 467.2,257.9 470.0,253.0 472.8,248.0 475.6,243.0 478.4,238.3 481.2,233.9 484.0,229.9 486.8,226.6 489.5,224.0 492.3,222.1 495.1,221.1 497.9,221.0 500.7,221.7 503.5,223.3 506.3,225.7 509.1,228.9 511.9,232.7 514.7,237.2 517.5,242.1 520.3,247.4 523.1,253.0 525.9,258.8 528.7,264.7 531.5,270.6 534.3,276.4 537.1,281.9 539.9,287.2 542.7,292.2 545.5,296.8 548.3,300.9 551.1,304.6 553.9,307.7 556.7,310.4 559.5,312.6 562.3,314.2 565.1,315.4 567.9,316.2 570.7,316.5 573.5,316.4 576.3,315.9 579.0,315.2 581.8,314.2 584.6,313.0 587.4,311.6 590.2,310.0 593.0,308.4 595.8,306.8 598.6,305.1 601.4,303.5 604.2,301.9 607.0,300.4 609.8,299.0 612.6,297.7 615.4,296.5 618.2,295.6 621.0,294.7 623.8,294.0 626.6,293.5 629.4,293.1 632.2,292.9 635.0,292.8 637.8,292.8 640.6,292.9 643.4,293.2 646.2,293.5 649.0,293.9 651.8,294.3 654.6,294.8 657.4,295.3 660.2,295.9 663.0,296.4 665.8,296.9 668.5,297.4 671.3,297.9 674.1,298.4 676.9,298.8 679.7,299.1 682.5,299.5 685.3,299.7 688.1,300.0 690.9,300.1 693.7,300.3 696.5,300.3 699.3,300.4 702.1,300.4 704.9,300.3 707.7,300.2 710.5,300.1 713.3,300.0 716.1,299.9 718.9,299.7 721.7,299.5 724.5,299.4 727.3,299.2 730.1,299.0 732.9,298.9 735.7,298.7 738.5,298.5 741.3,298.4 744.1,298.3 746.9,298.2 749.7,298.1 752.5,298.0 755.3,298.0 758.0,297.9 760.8,297.9 763.6,297.9 766.4,297.9 769.2,297.9 772.0,297.9 774.8,298.0 777.6,298.0 780.4,298.1 783.2,298.1 786.0,298.2 788.8,298.2 791.6,298.3 794.4,298.3 797.2,298.4 L797.2,298.5 L442.0,298.5 Z" fill="url(#g157)" clip-path="url(#c159)"/>
  <defs><clipPath id="pc160"><rect x="442" y="221" width="358" height="155"/></clipPath></defs>
  <polyline points="442.0,284.2 444.8,295.6 447.6,288.8 450.4,283.5 453.2,279.2 456.0,275.2 458.8,271.3 461.6,267.1 464.4,262.6 467.2,257.9 470.0,253.0 472.8,248.0 475.6,243.0 478.4,238.3 481.2,233.9 484.0,229.9 486.8,226.6 489.5,224.0 492.3,222.1 495.1,221.1 497.9,221.0 500.7,221.7 503.5,223.3 506.3,225.7 509.1,228.9 511.9,232.7 514.7,237.2 517.5,242.1 520.3,247.4 523.1,253.0 525.9,258.8 528.7,264.7 531.5,270.6 534.3,276.4 537.1,281.9 539.9,287.2 542.7,292.2 545.5,296.8 548.3,300.9 551.1,304.6 553.9,307.7 556.7,310.4 559.5,312.6 562.3,314.2 565.1,315.4 567.9,316.2 570.7,316.5 573.5,316.4 576.3,315.9 579.0,315.2 581.8,314.2 584.6,313.0 587.4,311.6 590.2,310.0 593.0,308.4 595.8,306.8 598.6,305.1 601.4,303.5 604.2,301.9 607.0,300.4 609.8,299.0 612.6,297.7 615.4,296.5 618.2,295.6 621.0,294.7 623.8,294.0 626.6,293.5 629.4,293.1 632.2,292.9 635.0,292.8 637.8,292.8 640.6,292.9 643.4,293.2 646.2,293.5 649.0,293.9 651.8,294.3 654.6,294.8 657.4,295.3 660.2,295.9 663.0,296.4 665.8,296.9 668.5,297.4 671.3,297.9 674.1,298.4 676.9,298.8 679.7,299.1 682.5,299.5 685.3,299.7 688.1,300.0 690.9,300.1 693.7,300.3 696.5,300.3 699.3,300.4 702.1,300.4 704.9,300.3 707.7,300.2 710.5,300.1 713.3,300.0 716.1,299.9 718.9,299.7 721.7,299.5 724.5,299.4 727.3,299.2 730.1,299.0 732.9,298.9 735.7,298.7 738.5,298.5 741.3,298.4 744.1,298.3 746.9,298.2 749.7,298.1 752.5,298.0 755.3,298.0 758.0,297.9 760.8,297.9 763.6,297.9 766.4,297.9 769.2,297.9 772.0,297.9 774.8,298.0 777.6,298.0 780.4,298.1 783.2,298.1 786.0,298.2 788.8,298.2 791.6,298.3 794.4,298.3 797.2,298.4" fill="none" stroke="#f39c12" stroke-width="1.3" stroke-linejoin="round" clip-path="url(#pc160)"/>
</svg>
