<svg xmlns="http://www.w3.org/2000/svg" viewBox="0 0 820 392" style="font-family:system-ui,-apple-system,sans-serif">
  <text x="800" y="11" text-anchor="end" font-size="11" font-weight="600" fill="#6b7280">Chebyshev Type I order 4, 1dB ripple</text>
  <line x1="34" y1="16" x2="34" y2="171" stroke="#d1d5db"/>
  <line x1="34" y1="47.0" x2="392" y2="47.0" stroke="#d1d5db"/>
  <text x="213" y="197" text-anchor="middle" font-size="9" fill="#6b7280">Hz</text>
  <text x="12" y="93.5" text-anchor="middle" font-size="9" fill="#6b7280" transform="rotate(-90 12 93.5)">dB</text>
  <line x1="66.6" y1="16" x2="66.6" y2="171" stroke="#e5e7eb" stroke-width="0.5"/>
  <line x1="85.7" y1="16" x2="85.7" y2="171" stroke="#e5e7eb" stroke-width="0.5"/>
  <line x1="99.3" y1="16" x2="99.3" y2="171" stroke="#e5e7eb" stroke-width="0.5"/>
  <line x1="109.8" y1="16" x2="109.8" y2="171" stroke="#e5e7eb" stroke-width="0.5"/>
  <line x1="118.4" y1="16" x2="118.4" y2="171" stroke="#e5e7eb" stroke-width="0.5"/>
  <line x1="125.7" y1="16" x2="125.7" y2="171" stroke="#e5e7eb" stroke-width="0.5"/>
  <line x1="131.9" y1="16" x2="131.9" y2="171" stroke="#e5e7eb" stroke-width="0.5"/>
  <line x1="137.5" y1="16" x2="137.5" y2="171" stroke="#e5e7eb" stroke-width="0.5"/>
  <line x1="175.1" y1="16" x2="175.1" y2="171" stroke="#e5e7eb" stroke-width="0.5"/>
  <line x1="194.2" y1="16" x2="194.2" y2="171" stroke="#e5e7eb" stroke-width="0.5"/>
  <line x1="207.7" y1="16" x2="207.7" y2="171" stroke="#e5e7eb" stroke-width="0.5"/>
  <line x1="218.3" y1="16" x2="218.3" y2="171" stroke="#e5e7eb" stroke-width="0.5"/>
  <line x1="226.8" y1="16" x2="226.8" y2="171" stroke="#e5e7eb" stroke-width="0.5"/>
  <line x1="234.1" y1="16" x2="234.1" y2="171" stroke="#e5e7eb" stroke-width="0.5"/>
  <line x1="240.4" y1="16" x2="240.4" y2="171" stroke="#e5e7eb" stroke-width="0.5"/>
  <line x1="245.9" y1="16" x2="245.9" y2="171" stroke="#e5e7eb" stroke-width="0.5"/>
  <line x1="283.5" y1="16" x2="283.5" y2="171" stroke="#e5e7eb" stroke-width="0.5"/>
  <line x1="302.6" y1="16" x2="302.6" y2="171" stroke="#e5e7eb" stroke-width="0.5"/>
  <line x1="316.2" y1="16" x2="316.2" y2="171" stroke="#e5e7eb" stroke-width="0.5"/>
  <line x1="326.7" y1="16" x2="326.7" y2="171" stroke="#e5e7eb" stroke-width="0.5"/>
  <line x1="335.3" y1="16" x2="335.3" y2="171" stroke="#e5e7eb" stroke-width="0.5"/>
  <line x1="342.6" y1="16" x2="342.6" y2="171" stroke="#e5e7eb" stroke-width="0.5"/>
  <line x1="348.8" y1="16" x2="348.8" y2="171" stroke="#e5e7eb" stroke-width="0.5"/>
  <line x1="354.4" y1="16" x2="354.4" y2="171" stroke="#e5e7eb" stroke-width="0.5"/>
  <line x1="392.0" y1="16" x2="392.0" y2="171" stroke="#e5e7eb" stroke-width="0.5"/>
  <line x1="142.5" y1="16" x2="142.5" y2="171" stroke="#e5e7eb" stroke-width="0.5"/>
  <text x="142.5" y="183" text-anchor="middle" font-size="8" fill="#6b7280">100</text>
  <line x1="250.9" y1="16" x2="250.9" y2="171" stroke="#e5e7eb" stroke-width="0.5"/>
  <text x="250.9" y="183" text-anchor="middle" font-size="8" fill="#6b7280">1k</text>
  <line x1="359.4" y1="16" x2="359.4" y2="171" stroke="#e5e7eb" stroke-width="0.5"/>
  <text x="359.4" y="183" text-anchor="middle" font-size="8" fill="#6b7280">10k</text>
  <line x1="34" y1="31.5" x2="392" y2="31.5" stroke="#e5e7eb" stroke-width="0.5"/>
  <line x1="34" y1="62.5" x2="392" y2="62.5" stroke="#e5e7eb" stroke-width="0.5"/>
  <line x1="34" y1="16.0" x2="392" y2="16.0" stroke="#e5e7eb" stroke-width="0.5"/>
  <text x="30" y="19.0" text-anchor="end" font-size="8" fill="#6b7280">+20</text>
  <text x="30" y="50.0" text-anchor="end" font-size="8" fill="#6b7280">0</text>
  <line x1="34" y1="78.0" x2="392" y2="78.0" stroke="#e5e7eb" stroke-width="0.5"/>
  <text x="30" y="81.0" text-anchor="end" font-size="8" fill="#6b7280">-20</text>
  <line x1="34" y1="109.0" x2="392" y2="109.0" stroke="#e5e7eb" stroke-width="0.5"/>
  <text x="30" y="112.0" text-anchor="end" font-size="8" fill="#6b7280">-40</text>
  <line x1="34" y1="140.0" x2="392" y2="140.0" stroke="#e5e7eb" stroke-width="0.5"/>
  <text x="30" y="143.0" text-anchor="end" font-size="8" fill="#6b7280">-60</text>
  <line x1="34" y1="171.0" x2="392" y2="171.0" stroke="#e5e7eb" stroke-width="0.5"/>
  <text x="30" y="174.0" text-anchor="end" font-size="8" fill="#6b7280">-80</text>
  <defs><linearGradient id="g133" x1="0" y1="16" x2="0" y2="171" gradientUnits="userSpaceOnUse">
    <stop offset="0%" stop-color="#4a90d9" stop-opacity="0.15"/>
    <stop offset="100%" stop-color="#4a90d9" stop-opacity="0.02"/>
  </linearGradient></defs>
  <path d="M37.5,48.5 37.5,48.5 70.1,48.5 89.2,48.5 102.8,48.5 113.3,48.5 121.9,48.5 129.1,48.4 135.4,48.4 141.0,48.3 145.9,48.3 150.4,48.3 154.5,48.2 158.3,48.1 161.8,48.1 165.0,48.0 168.1,48.0 170.9,47.9 173.6,47.8 176.2,47.8 178.6,47.7 180.9,47.6 183.1,47.6 185.2,47.5 187.2,47.4 189.1,47.4 190.9,47.3 192.7,47.3 194.4,47.2 196.1,47.2 197.7,47.1 199.2,47.1 200.7,47.0 202.2,47.0 203.6,47.0 204.9,47.0 206.3,47.0 207.6,47.0 208.8,47.0 210.0,47.0 211.2,47.1 212.4,47.1 213.5,47.2 214.6,47.2 215.7,47.3 216.8,47.3 217.8,47.4 218.8,47.5 219.8,47.5 220.8,47.6 221.7,47.7 222.7,47.8 223.6,47.8 224.5,47.9 225.4,48.0 226.2,48.1 227.1,48.2 227.9,48.2 228.7,48.3 229.5,48.3 231.1,48.4 232.6,48.5 234.1,48.5 235.5,48.5 236.9,48.5 238.2,48.4 239.6,48.3 240.8,48.1 242.1,47.9 243.3,47.6 244.5,47.4 245.6,47.1 246.7,47.0 247.8,47.0 248.9,47.3 249.9,47.8 251.0,48.6 252.0,49.7 252.9,51.1 253.9,52.6 254.8,54.3 255.8,55.9 256.7,57.6 257.6,59.3 258.4,61.0 259.3,62.6 260.1,64.1 261.0,65.6 261.8,67.1 263.0,69.2 264.1,71.2 265.3,73.1 266.4,74.9 267.5,76.6 268.5,78.3 269.6,79.9 270.6,81.5 271.6,83.0 272.5,84.4 273.5,85.8 274.4,87.2 275.3,88.5 276.2,89.8 277.1,91.0 278.0,92.2 278.8,93.4 279.6,94.5 280.5,95.7 281.3,96.8 282.3,98.2 283.4,99.6 284.4,100.9 285.3,102.2 286.3,103.5 287.3,104.7 288.2,105.9 289.1,107.1 290.0,108.3 290.9,109.4 291.7,110.5 292.6,111.6 293.4,112.6 294.2,113.7 295.0,114.7 296.0,115.9 297.0,117.2 297.9,118.4 298.8,119.5 299.7,120.7 300.6,121.8 301.5,122.9 302.4,123.9 303.2,125.0 304.0,126.0 304.9,127.0 305.8,128.2 306.7,129.4 307.7,130.5 308.6,131.7 309.5,132.8 310.3,133.8 311.2,134.9 312.0,135.9 312.8,137.0 313.7,138.0 314.6,139.1 315.5,140.3 316.4,141.4 317.3,142.5 318.1,143.5 319.0,144.6 319.8,145.6 320.6,146.6 321.4,147.6 322.3,148.8 323.2,149.9 324.1,151.0 324.9,152.0 325.7,153.1 326.6,154.1 327.4,155.2 328.3,156.3 329.1,157.4 330.0,158.5 330.8,159.6 331.7,160.7 332.5,161.7 333.3,162.8 334.2,163.9 335.0,165.0 335.9,166.1 336.7,167.2 337.5,168.3 338.4,169.5 339.2,170.6 340.1,171.0 340.9,171.0 341.7,171.0 342.5,171.0 343.4,171.0 344.2,171.0 345.1,171.0 345.9,171.0 346.7,171.0 347.6,171.0 348.4,171.0 349.2,171.0 350.0,171.0 350.9,171.0 351.7,171.0 352.6,171.0 353.4,171.0 354.2,171.0 355.1,171.0 355.9,171.0 356.7,171.0 357.6,171.0 358.4,171.0 359.2,171.0 360.0,171.0 360.9,171.0 361.7,171.0 362.5,171.0 363.3,171.0 364.2,171.0 365.0,171.0 365.8,171.0 366.6,171.0 367.4,171.0 368.3,171.0 369.1,171.0 369.9,171.0 370.7,171.0 371.5,171.0 372.4,171.0 373.2,171.0 374.0,171.0 374.8,171.0 375.6,171.0 376.4,171.0 377.2,171.0 378.1,171.0 378.9,171.0 379.7,171.0 380.5,171.0 381.3,171.0 382.1,171.0 383.0,171.0 383.8,171.0 384.6,171.0 385.4,171.0 386.2,171.0 387.0,171.0 387.9,171.0 388.7,171.0 389.5,171.0 390.3,171.0 391.1,171.0 391.9,171.0 L391.9,171.0 L37.5,171.0 Z" fill="url(#g133)"/>
  <defs><clipPath id="pc134"><rect x="34" y="16" width="358" height="155"/></clipPath></defs>
  <polyline points="37.5,48.5 70.1,48.5 89.2,48.5 102.8,48.5 113.3,48.5 121.9,48.5 129.1,48.4 135.4,48.4 141.0,48.3 145.9,48.3 150.4,48.3 154.5,48.2 158.3,48.1 161.8,48.1 165.0,48.0 168.1,48.0 170.9,47.9 173.6,47.8 176.2,47.8 178.6,47.7 180.9,47.6 183.1,47.6 185.2,47.5 187.2,47.4 189.1,47.4 190.9,47.3 192.7,47.3 194.4,47.2 196.1,47.2 197.7,47.1 199.2,47.1 200.7,47.0 202.2,47.0 203.6,47.0 204.9,47.0 206.3,47.0 207.6,47.0 208.8,47.0 210.0,47.0 211.2,47.1 212.4,47.1 213.5,47.2 214.6,47.2 215.7,47.3 216.8,47.3 217.8,47.4 218.8,47.5 219.8,47.5 220.8,47.6 221.7,47.7 222.7,47.8 223.6,47.8 224.5,47.9 225.4,48.0 226.2,48.1 227.1,48.2 227.9,48.2 228.7,48.3 229.5,48.3 231.1,48.4 232.6,48.5 234.1,48.5 235.5,48.5 236.9,48.5 238.2,48.4 239.6,48.3 240.8,48.1 242.1,47.9 243.3,47.6 244.5,47.4 245.6,47.1 246.7,47.0 247.8,47.0 248.9,47.3 249.9,47.8 251.0,48.6 252.0,49.7 252.9,51.1 253.9,52.6 254.8,54.3 255.8,55.9 256.7,57.6 257.6,59.3 258.4,61.0 259.3,62.6 260.1,64.1 261.0,65.6 261.8,67.1 263.0,69.2 264.1,71.2 265.3,73.1 266.4,74.9 267.5,76.6 268.5,78.3 269.6,79.9 270.6,81.5 271.6,83.0 272.5,84.4 273.5,85.8 274.4,87.2 275.3,88.5 276.2,89.8 277.1,91.0 278.0,92.2 278.8,93.4 279.6,94.5 280.5,95.7 281.3,96.8 282.3,98.2 283.4,99.6 284.4,100.9 285.3,102.2 286.3,103.5 287.3,104.7 288.2,105.9 289.1,107.1 290.0,108.3 290.9,109.4 291.7,110.5 292.6,111.6 293.4,112.6 294.2,113.7 295.0,114.7 296.0,115.9 297.0,117.2 297.9,118.4 298.8,119.5 299.7,120.7 300.6,121.8 301.5,122.9 302.4,123.9 303.2,125.0 304.0,126.0 304.9,127.0 305.8,128.2 306.7,129.4 307.7,130.5 308.6,131.7 309.5,132.8 310.3,133.8 311.2,134.9 312.0,135.9 312.8,137.0 313.7,138.0 314.6,139.1 315.5,140.3 316.4,141.4 317.3,142.5 318.1,143.5 319.0,144.6 319.8,145.6 320.6,146.6 321.4,147.6 322.3,148.8 323.2,149.9 324.1,151.0 324.9,152.0 325.7,153.1 326.6,154.1 327.4,155.2 328.3,156.3 329.1,157.4 330.0,158.5 330.8,159.6 331.7,160.7 332.5,161.7 333.3,162.8 334.2,163.9 335.0,165.0 335.9,166.1 336.7,167.2 337.5,168.3 338.4,169.5 339.2,170.6 340.1,171.8 340.9,172.9 341.7,174.0 342.5,175.1 343.4,176.3 344.2,177.4 345.1,178.6 345.9,179.7 346.7,180.9 347.6,182.1 348.4,183.3 349.2,184.5 350.0,185.7 350.9,186.9 351.7,188.2 352.6,189.4 353.4,190.6 354.2,191.9 355.1,193.2 355.9,194.5 356.7,195.8 357.6,197.2 358.4,198.5 359.2,199.9 360.0,201.2 360.9,202.6 361.7,204.0 362.5,205.4 363.3,206.9 364.2,208.4 365.0,209.9 365.8,211.4 366.6,213.0 367.4,214.6 368.3,216.1 369.1,217.8 369.9,219.5 370.7,221.2 371.5,223.0 372.4,224.8 373.2,226.7 374.0,228.6 374.8,230.6 375.6,232.7 376.4,234.8 377.2,236.9 378.1,239.2 378.9,241.6 379.7,244.1 380.5,246.7 381.3,249.3 382.1,252.2 383.0,255.2 383.8,258.4 384.6,261.7 385.4,265.4 386.2,269.3 387.0,273.5 387.9,278.1 388.7,283.1 389.5,288.7 390.3,295.0 391.1,302.1 391.9,310.6" fill="none" stroke="#4a90d9" stroke-width="1.5" stroke-linejoin="round" clip-path="url(#pc134)"/>
  <line x1="442" y1="16" x2="442" y2="171" stroke="#d1d5db"/>
  <line x1="442" y1="93.5" x2="800" y2="93.5" stroke="#d1d5db"/>
  <text x="621" y="197" text-anchor="middle" font-size="9" fill="#6b7280">Hz</text>
  <text x="420" y="93.5" text-anchor="middle" font-size="9" fill="#6b7280" transform="rotate(-90 420 93.5)">Phase (deg)</text>
  <line x1="474.6" y1="16" x2="474.6" y2="171" stroke="#e5e7eb" stroke-width="0.5"/>
  <line x1="493.7" y1="16" x2="493.7" y2="171" stroke="#e5e7eb" stroke-width="0.5"/>
  <line x1="507.3" y1="16" x2="507.3" y2="171" stroke="#e5e7eb" stroke-width="0.5"/>
  <line x1="517.8" y1="16" x2="517.8" y2="171" stroke="#e5e7eb" stroke-width="0.5"/>
  <line x1="526.4" y1="16" x2="526.4" y2="171" stroke="#e5e7eb" stroke-width="0.5"/>
  <line x1="533.7" y1="16" x2="533.7" y2="171" stroke="#e5e7eb" stroke-width="0.5"/>
  <line x1="539.9" y1="16" x2="539.9" y2="171" stroke="#e5e7eb" stroke-width="0.5"/>
  <line x1="545.5" y1="16" x2="545.5" y2="171" stroke="#e5e7eb" stroke-width="0.5"/>
  <line x1="583.1" y1="16" x2="583.1" y2="171" stroke="#e5e7eb" stroke-width="0.5"/>
  <line x1="602.2" y1="16" x2="602.2" y2="171" stroke="#e5e7eb" stroke-width="0.5"/>
  <line x1="615.7" y1="16" x2="615.7" y2="171" stroke="#e5e7eb" stroke-width="0.5"/>
  <line x1="626.3" y1="16" x2="626.3" y2="171" stroke="#e5e7eb" stroke-width="0.5"/>
  <line x1="634.8" y1="16" x2="634.8" y2="171" stroke="#e5e7eb" stroke-width="0.5"/>
  <line x1="642.1" y1="16" x2="642.1" y2="171" stroke="#e5e7eb" stroke-width="0.5"/>
  <line x1="648.4" y1="16" x2="648.4" y2="171" stroke="#e5e7eb" stroke-width="0.5"/>
  <line x1="653.9" y1="16" x2="653.9" y2="171" stroke="#e5e7eb" stroke-width="0.5"/>
  <line x1="691.5" y1="16" x2="691.5" y2="171" stroke="#e5e7eb" stroke-width="0.5"/>
  <line x1="710.6" y1="16" x2="710.6" y2="171" stroke="#e5e7eb" stroke-width="0.5"/>
  <line x1="724.2" y1="16" x2="724.2" y2="171" stroke="#e5e7eb" stroke-width="0.5"/>
  <line x1="734.7" y1="16" x2="734.7" y2="171" stroke="#e5e7eb" stroke-width="0.5"/>
  <line x1="743.3" y1="16" x2="743.3" y2="171" stroke="#e5e7eb" stroke-width="0.5"/>
  <line x1="750.6" y1="16" x2="750.6" y2="171" stroke="#e5e7eb" stroke-width="0.5"/>
  <line x1="756.8" y1="16" x2="756.8" y2="171" stroke="#e5e7eb" stroke-width="0.5"/>
  <line x1="762.4" y1="16" x2="762.4" y2="171" stroke="#e5e7eb" stroke-width="0.5"/>
  <line x1="800.0" y1="16" x2="800.0" y2="171" stroke="#e5e7eb" stroke-width="0.5"/>
  <line x1="550.5" y1="16" x2="550.5" y2="171" stroke="#e5e7eb" stroke-width="0.5"/>
  <text x="550.5" y="183" text-anchor="middle" font-size="8" fill="#6b7280">100</text>
  <line x1="658.9" y1="16" x2="658.9" y2="171" stroke="#e5e7eb" stroke-width="0.5"/>
  <text x="658.9" y="183" text-anchor="middle" font-size="8" fill="#6b7280">1k</text>
  <line x1="767.4" y1="16" x2="767.4" y2="171" stroke="#e5e7eb" stroke-width="0.5"/>
  <text x="767.4" y="183" text-anchor="middle" font-size="8" fill="#6b7280">10k</text>
  <line x1="442" y1="54.8" x2="800" y2="54.8" stroke="#e5e7eb" stroke-width="0.5"/>
  <line x1="442" y1="132.3" x2="800" y2="132.3" stroke="#e5e7eb" stroke-width="0.5"/>
  <line x1="442" y1="16.0" x2="800" y2="16.0" stroke="#e5e7eb" stroke-width="0.5"/>
  <text x="438" y="19.0" text-anchor="end" font-size="8" fill="#6b7280">180</text>
  <text x="438" y="96.5" text-anchor="end" font-size="8" fill="#6b7280">0</text>
  <line x1="442" y1="171.0" x2="800" y2="171.0" stroke="#e5e7eb" stroke-width="0.5"/>
  <text x="438" y="174.0" text-anchor="end" font-size="8" fill="#6b7280">-180</text>
  <defs><linearGradient id="g135" x1="0" y1="171" x2="0" y2="93.5" gradientUnits="userSpaceOnUse">
    <stop offset="0%" stop-color="#e74c3c" stop-opacity="0.15"/>
    <stop offset="100%" stop-color="#e74c3c" stop-opacity="0.02"/>
  </linearGradient></defs>
  <path d="M445.5,94.2 445.5,94.2 478.1,94.9 497.2,95.6 510.8,96.4 521.3,97.1 529.9,97.8 537.1,98.5 543.4,99.3 549.0,100.0 553.9,100.8 558.4,101.5 562.5,102.3 566.3,103.1 569.8,103.9 573.0,104.6 576.1,105.4 578.9,106.3 581.6,107.1 584.2,107.9 586.6,108.8 588.9,109.6 591.1,110.5 593.2,111.4 595.2,112.3 597.1,113.2 598.9,114.2 600.7,115.1 602.4,116.1 604.1,117.0 605.7,118.0 607.2,119.0 608.7,120.0 610.2,121.0 611.6,122.0 612.9,123.0 614.3,124.0 615.6,125.1 616.8,126.1 618.0,127.1 619.2,128.1 620.4,129.2 621.5,130.2 622.6,131.2 623.7,132.2 624.8,133.2 625.8,134.2 626.8,135.2 627.8,136.2 628.8,137.2 629.7,138.1 630.7,139.1 631.6,140.0 632.5,141.0 633.4,141.9 634.2,142.8 635.1,143.7 635.9,144.6 636.7,145.5 637.5,146.4 639.1,148.2 640.6,150.0 642.1,151.8 643.5,153.6 644.9,155.5 646.2,157.4 647.6,159.5 648.8,161.6 650.1,164.0 651.3,166.6 652.5,169.4 653.6,171.0 654.7,171.0 655.8,171.0 656.9,171.0 657.9,171.0 659.0,171.0 660.0,171.0 660.9,171.0 661.9,171.0 662.8,171.0 663.8,171.0 664.7,171.0 665.6,171.0 666.4,171.0 667.3,171.0 668.1,171.0 669.0,171.0 669.8,171.0 671.0,171.0 672.1,171.0 673.3,171.0 674.4,171.0 675.5,171.0 676.5,171.0 677.6,171.0 678.6,171.0 679.6,171.0 680.5,171.0 681.5,171.0 682.4,171.0 683.3,171.0 684.2,171.0 685.1,171.0 686.0,171.0 686.8,171.0 687.6,171.0 688.5,171.0 689.3,171.0 690.3,171.0 691.4,171.0 692.4,171.0 693.3,171.0 694.3,171.0 695.3,171.0 696.2,171.0 697.1,171.0 698.0,171.0 698.9,171.0 699.7,171.0 700.6,171.0 701.4,171.0 702.2,171.0 703.0,171.0 704.0,171.0 705.0,171.0 705.9,171.0 706.8,171.0 707.7,171.0 708.6,171.0 709.5,171.0 710.4,171.0 711.2,171.0 712.0,171.0 712.9,171.0 713.8,171.0 714.7,171.0 715.7,171.0 716.6,171.0 717.5,171.0 718.3,171.0 719.2,171.0 720.0,171.0 720.8,171.0 721.7,171.0 722.6,171.0 723.5,171.0 724.4,171.0 725.3,171.0 726.1,171.0 727.0,171.0 727.8,171.0 728.6,171.0 729.4,171.0 730.3,171.0 731.2,171.0 732.1,171.0 732.9,171.0 733.7,171.0 734.6,171.0 735.4,171.0 736.3,171.0 737.1,171.0 738.0,171.0 738.8,171.0 739.7,171.0 740.5,171.0 741.3,171.0 742.2,171.0 743.0,171.0 743.9,171.0 744.7,171.0 745.5,171.0 746.4,171.0 747.2,171.0 748.1,171.0 748.9,171.0 749.7,171.0 750.5,171.0 751.4,171.0 752.2,171.0 753.1,171.0 753.9,171.0 754.7,171.0 755.6,171.0 756.4,171.0 757.2,171.0 758.0,171.0 758.9,171.0 759.7,171.0 760.6,171.0 761.4,171.0 762.2,171.0 763.1,171.0 763.9,171.0 764.7,171.0 765.6,171.0 766.4,171.0 767.2,171.0 768.0,171.0 768.9,171.0 769.7,171.0 770.5,171.0 771.3,171.0 772.2,171.0 773.0,171.0 773.8,171.0 774.6,171.0 775.4,171.0 776.3,171.0 777.1,171.0 777.9,171.0 778.7,171.0 779.5,171.0 780.4,171.0 781.2,171.0 782.0,171.0 782.8,171.0 783.6,171.0 784.4,171.0 785.2,171.0 786.1,171.0 786.9,171.0 787.7,171.0 788.5,171.0 789.3,171.0 790.1,171.0 791.0,171.0 791.8,171.0 792.6,171.0 793.4,171.0 794.2,171.0 795.0,171.0 795.9,171.0 796.7,171.0 797.5,171.0 798.3,171.0 799.1,171.0 799.9,171.0 L799.9,93.5 L445.5,93.5 Z" fill="url(#g135)"/>
  <defs><clipPath id="pc136"><rect x="442" y="16" width="358" height="155"/></clipPath></defs>
  <polyline points="445.5,94.2 478.1,94.9 497.2,95.6 510.8,96.4 521.3,97.1 529.9,97.8 537.1,98.5 543.4,99.3 549.0,100.0 553.9,100.8 558.4,101.5 562.5,102.3 566.3,103.1 569.8,103.9 573.0,104.6 576.1,105.4 578.9,106.3 581.6,107.1 584.2,107.9 586.6,108.8 588.9,109.6 591.1,110.5 593.2,111.4 595.2,112.3 597.1,113.2 598.9,114.2 600.7,115.1 602.4,116.1 604.1,117.0 605.7,118.0 607.2,119.0 608.7,120.0 610.2,121.0 611.6,122.0 612.9,123.0 614.3,124.0 615.6,125.1 616.8,126.1 618.0,127.1 619.2,128.1 620.4,129.2 621.5,130.2 622.6,131.2 623.7,132.2 624.8,133.2 625.8,134.2 626.8,135.2 627.8,136.2 628.8,137.2 629.7,138.1 630.7,139.1 631.6,140.0 632.5,141.0 633.4,141.9 634.2,142.8 635.1,143.7 635.9,144.6 636.7,145.5 637.5,146.4 639.1,148.2 640.6,150.0 642.1,151.8 643.5,153.6 644.9,155.5 646.2,157.4 647.6,159.5 648.8,161.6 650.1,164.0 651.3,166.6 652.5,169.4 653.6,172.6 654.7,176.1 655.8,179.9 656.9,184.0 657.9,188.3 659.0,192.7 660.0,196.8 660.9,200.6 661.9,204.1 662.8,207.1 663.8,209.8 664.7,212.1 665.6,214.2 666.4,216.0 667.3,217.5 668.1,218.9 669.0,220.2 669.8,221.3 671.0,222.8 672.1,224.1 673.3,225.2 674.4,226.2 675.5,227.1 676.5,227.9 677.6,228.7 678.6,229.4 679.6,230.0 680.5,230.6 681.5,231.1 682.4,231.6 683.3,232.1 684.2,232.5 685.1,232.9 686.0,233.3 686.8,233.7 687.6,234.0 688.5,234.3 689.3,234.7 690.3,235.1 691.4,235.4 692.4,235.8 693.3,236.1 694.3,236.4 695.3,236.7 696.2,237.0 697.1,237.3 698.0,237.5 698.9,237.7 699.7,238.0 700.6,238.2 701.4,238.4 702.2,238.6 703.0,238.8 704.0,239.0 705.0,239.3 705.9,239.5 706.8,239.7 707.7,239.9 708.6,240.0 709.5,240.2 710.4,240.4 711.2,240.5 712.0,240.7 712.9,240.8 713.8,241.0 714.7,241.2 715.7,241.3 716.6,241.5 717.5,241.6 718.3,241.8 719.2,241.9 720.0,242.0 720.8,242.2 721.7,242.3 722.6,242.4 723.5,242.5 724.4,242.7 725.3,242.8 726.1,242.9 727.0,243.0 727.8,243.1 728.6,243.2 729.4,243.3 730.3,243.4 731.2,243.5 732.1,243.6 732.9,243.7 733.7,243.8 734.6,243.9 735.4,244.0 736.3,244.1 737.1,244.2 738.0,244.3 738.8,244.4 739.7,244.4 740.5,244.5 741.3,244.6 742.2,244.7 743.0,244.8 743.9,244.8 744.7,244.9 745.5,245.0 746.4,245.1 747.2,245.1 748.1,245.2 748.9,245.3 749.7,245.3 750.5,245.4 751.4,245.5 752.2,245.5 753.1,245.6 753.9,245.7 754.7,245.7 755.6,245.8 756.4,245.8 757.2,245.9 758.0,246.0 758.9,246.0 759.7,246.1 760.6,246.1 761.4,246.2 762.2,246.2 763.1,246.3 763.9,246.3 764.7,246.4 765.6,246.4 766.4,246.5 767.2,246.5 768.0,246.6 768.9,246.6 769.7,246.7 770.5,246.7 771.3,246.8 772.2,246.8 773.0,246.9 773.8,246.9 774.6,247.0 775.4,247.0 776.3,247.1 777.1,247.1 777.9,247.1 778.7,247.2 779.5,247.2 780.4,247.3 781.2,247.3 782.0,247.4 782.8,247.4 783.6,247.4 784.4,247.5 785.2,247.5 786.1,247.6 786.9,247.6 787.7,247.6 788.5,247.7 789.3,247.7 790.1,247.8 791.0,247.8 791.8,247.8 792.6,247.9 793.4,247.9 794.2,248.0 795.0,248.0 795.9,248.0 796.7,248.1 797.5,248.1 798.3,248.2 799.1,248.2 799.9,248.2" fill="none" stroke="#e74c3c" stroke-width="1.5" stroke-linejoin="round" clip-path="url(#pc136)"/>
  <line x1="34" y1="221" x2="34" y2="376" stroke="#d1d5db"/>
  <line x1="34" y1="298.5" x2="392" y2="298.5" stroke="#d1d5db"/>
  <text x="213" y="402" text-anchor="middle" font-size="9" fill="#6b7280">Hz</text>
  <text x="12" y="298.5" text-anchor="middle" font-size="9" fill="#6b7280" transform="rotate(-90 12 298.5)">Group delay</text>
  <line x1="66.6" y1="221" x2="66.6" y2="376" stroke="#e5e7eb" stroke-width="0.5"/>
  <line x1="85.7" y1="221" x2="85.7" y2="376" stroke="#e5e7eb" stroke-width="0.5"/>
  <line x1="99.3" y1="221" x2="99.3" y2="376" stroke="#e5e7eb" stroke-width="0.5"/>
  <line x1="109.8" y1="221" x2="109.8" y2="376" stroke="#e5e7eb" stroke-width="0.5"/>
  <line x1="118.4" y1="221" x2="118.4" y2="376" stroke="#e5e7eb" stroke-width="0.5"/>
  <line x1="125.7" y1="221" x2="125.7" y2="376" stroke="#e5e7eb" stroke-width="0.5"/>
  <line x1="131.9" y1="221" x2="131.9" y2="376" stroke="#e5e7eb" stroke-width="0.5"/>
  <line x1="137.5" y1="221" x2="137.5" y2="376" stroke="#e5e7eb" stroke-width="0.5"/>
  <line x1="175.1" y1="221" x2="175.1" y2="376" stroke="#e5e7eb" stroke-width="0.5"/>
  <line x1="194.2" y1="221" x2="194.2" y2="376" stroke="#e5e7eb" stroke-width="0.5"/>
  <line x1="207.7" y1="221" x2="207.7" y2="376" stroke="#e5e7eb" stroke-width="0.5"/>
  <line x1="218.3" y1="221" x2="218.3" y2="376" stroke="#e5e7eb" stroke-width="0.5"/>
  <line x1="226.8" y1="221" x2="226.8" y2="376" stroke="#e5e7eb" stroke-width="0.5"/>
  <line x1="234.1" y1="221" x2="234.1" y2="376" stroke="#e5e7eb" stroke-width="0.5"/>
  <line x1="240.4" y1="221" x2="240.4" y2="376" stroke="#e5e7eb" stroke-width="0.5"/>
  <line x1="245.9" y1="221" x2="245.9" y2="376" stroke="#e5e7eb" stroke-width="0.5"/>
  <line x1="283.5" y1="221" x2="283.5" y2="376" stroke="#e5e7eb" stroke-width="0.5"/>
  <line x1="302.6" y1="221" x2="302.6" y2="376" stroke="#e5e7eb" stroke-width="0.5"/>
  <line x1="316.2" y1="221" x2="316.2" y2="376" stroke="#e5e7eb" stroke-width="0.5"/>
  <line x1="326.7" y1="221" x2="326.7" y2="376" stroke="#e5e7eb" stroke-width="0.5"/>
  <line x1="335.3" y1="221" x2="335.3" y2="376" stroke="#e5e7eb" stroke-width="0.5"/>
  <line x1="342.6" y1="221" x2="342.6" y2="376" stroke="#e5e7eb" stroke-width="0.5"/>
  <line x1="348.8" y1="221" x2="348.8" y2="376" stroke="#e5e7eb" stroke-width="0.5"/>
  <line x1="354.4" y1="221" x2="354.4" y2="376" stroke="#e5e7eb" stroke-width="0.5"/>
  <line x1="392.0" y1="221" x2="392.0" y2="376" stroke="#e5e7eb" stroke-width="0.5"/>
  <line x1="142.5" y1="221" x2="142.5" y2="376" stroke="#e5e7eb" stroke-width="0.5"/>
  <text x="142.5" y="388" text-anchor="middle" font-size="8" fill="#6b7280">100</text>
  <line x1="250.9" y1="221" x2="250.9" y2="376" stroke="#e5e7eb" stroke-width="0.5"/>
  <text x="250.9" y="388" text-anchor="middle" font-size="8" fill="#6b7280">1k</text>
  <line x1="359.4" y1="221" x2="359.4" y2="376" stroke="#e5e7eb" stroke-width="0.5"/>
  <text x="359.4" y="388" text-anchor="middle" font-size="8" fill="#6b7280">10k</text>
  <line x1="34" y1="344.2" x2="392" y2="344.2" stroke="#e5e7eb" stroke-width="0.5"/>
  <text x="30" y="347.2" text-anchor="end" font-size="8" fill="#6b7280">-2000</text>
  <text x="30" y="301.5" text-anchor="end" font-size="8" fill="#6b7280">0</text>
  <line x1="34" y1="252.8" x2="392" y2="252.8" stroke="#e5e7eb" stroke-width="0.5"/>
  <text x="30" y="255.8" text-anchor="end" font-size="8" fill="#6b7280">2000</text>
  <defs><linearGradient id="g137" x1="0" y1="376" x2="0" y2="298.5" gradientUnits="userSpaceOnUse">
    <stop offset="0%" stop-color="#2ecc71" stop-opacity="0.15"/>
    <stop offset="100%" stop-color="#2ecc71" stop-opacity="0.02"/>
  </linearGradient></defs>
  <path d="M37.5,298.5 37.5,298.5 70.1,298.5 89.2,298.5 102.8,298.5 113.3,298.5 121.9,298.5 129.1,298.5 135.4,298.5 141.0,298.5 145.9,298.4 150.4,298.4 154.5,298.4 158.3,298.4 161.8,298.4 165.0,298.4 168.1,298.4 170.9,298.4 173.6,298.4 176.2,298.4 178.6,298.4 180.9,298.4 183.1,298.4 185.2,298.4 187.2,298.4 189.1,298.4 190.9,298.4 192.7,298.4 194.4,298.4 196.1,298.5 197.7,298.5 199.2,298.5 200.7,298.5 202.2,298.5 203.6,298.5 204.9,298.5 206.3,298.5 207.6,298.5 208.8,298.5 210.0,298.5 211.2,298.5 212.4,298.5 213.5,298.6 214.6,298.6 215.7,298.6 216.8,298.6 217.8,298.6 218.8,298.6 219.8,298.6 220.8,298.6 221.7,298.6 222.7,298.6 223.6,298.6 224.5,298.6 225.4,298.6 226.2,298.6 227.1,298.6 227.9,298.6 228.7,298.6 229.5,298.6 231.1,298.5 232.6,298.5 234.1,298.5 235.5,298.5 236.9,298.5 238.2,298.4 239.6,298.4 240.8,298.4 242.1,298.4 243.3,298.4 244.5,298.4 245.6,298.4 246.7,298.5 247.8,298.6 248.9,298.7 249.9,298.9 251.0,299.0 252.0,299.2 252.9,299.3 253.9,299.4 254.8,299.4 255.8,299.4 256.7,299.4 257.6,299.4 258.4,299.4 259.3,299.4 260.1,299.3 261.0,299.3 261.8,299.3 263.0,299.3 264.1,299.2 265.3,299.2 266.4,299.2 267.5,299.1 268.5,299.1 269.6,299.1 270.6,299.1 271.6,299.0 272.5,299.0 273.5,299.0 274.4,299.0 275.3,299.0 276.2,299.0 277.1,299.0 278.0,298.9 278.8,298.9 279.6,298.9 280.5,298.9 281.3,298.9 282.3,298.9 283.4,298.9 284.4,298.9 285.3,298.9 286.3,298.8 287.3,298.8 288.2,298.8 289.1,298.8 290.0,298.8 290.9,298.8 291.7,298.8 292.6,298.8 293.4,298.8 294.2,298.8 295.0,298.8 296.0,298.8 297.0,298.8 297.9,298.8 298.8,298.8 299.7,298.7 300.6,298.7 301.5,298.7 302.4,298.7 303.2,298.7 304.0,298.7 304.9,298.7 305.8,298.7 306.7,298.7 307.7,298.7 308.6,298.7 309.5,298.7 310.3,298.7 311.2,298.7 312.0,298.7 312.8,298.7 313.7,298.7 314.6,298.7 315.5,298.7 316.4,298.7 317.3,298.7 318.1,298.7 319.0,298.7 319.8,298.7 320.6,298.7 321.4,298.7 322.3,298.7 323.2,298.7 324.1,298.6 324.9,298.6 325.7,298.6 326.6,298.6 327.4,298.6 328.3,298.6 329.1,298.6 330.0,298.6 330.8,298.6 331.7,298.6 332.5,298.6 333.3,298.6 334.2,298.6 335.0,298.6 335.9,298.6 336.7,298.6 337.5,298.6 338.4,298.6 339.2,298.6 340.1,298.6 340.9,298.6 341.7,298.6 342.5,298.6 343.4,298.6 344.2,298.6 345.1,298.6 345.9,298.6 346.7,298.6 347.6,298.6 348.4,298.6 349.2,298.6 350.0,298.6 350.9,298.6 351.7,298.6 352.6,298.6 353.4,298.6 354.2,298.6 355.1,298.6 355.9,298.6 356.7,298.6 357.6,298.6 358.4,298.6 359.2,298.6 360.0,298.6 360.9,298.6 361.7,298.6 362.5,298.6 363.3,298.6 364.2,298.6 365.0,298.6 365.8,298.6 366.6,298.6 367.4,298.6 368.3,298.6 369.1,298.6 369.9,298.6 370.7,298.6 371.5,298.6 372.4,298.6 373.2,298.6 374.0,298.6 374.8,298.6 375.6,298.6 376.4,298.6 377.2,298.6 378.1,298.6 378.9,298.6 379.7,298.6 380.5,298.6 381.3,298.6 382.1,298.6 383.0,298.6 383.8,298.6 384.6,298.6 385.4,298.6 386.2,298.7 387.0,298.7 387.9,298.7 388.7,298.7 389.5,298.7 390.3,298.7 391.1,298.8 391.9,298.8 L391.9,298.5 L37.5,298.5 Z" fill="url(#g137)"/>
  <defs><clipPath id="pc138"><rect x="34" y="221" width="358" height="155"/></clipPath></defs>
  <polyline points="37.5,298.5 70.1,298.5 89.2,298.5 102.8,298.5 113.3,298.5 121.9,298.5 129.1,298.5 135.4,298.5 141.0,298.5 145.9,298.4 150.4,298.4 154.5,298.4 158.3,298.4 161.8,298.4 165.0,298.4 168.1,298.4 170.9,298.4 173.6,298.4 176.2,298.4 178.6,298.4 180.9,298.4 183.1,298.4 185.2,298.4 187.2,298.4 189.1,298.4 190.9,298.4 192.7,298.4 194.4,298.4 196.1,298.5 197.7,298.5 199.2,298.5 200.7,298.5 202.2,298.5 203.6,298.5 204.9,298.5 206.3,298.5 207.6,298.5 208.8,298.5 210.0,298.5 211.2,298.5 212.4,298.5 213.5,298.6 214.6,298.6 215.7,298.6 216.8,298.6 217.8,298.6 218.8,298.6 219.8,298.6 220.8,298.6 221.7,298.6 222.7,298.6 223.6,298.6 224.5,298.6 225.4,298.6 226.2,298.6 227.1,298.6 227.9,298.6 228.7,298.6 229.5,298.6 231.1,298.5 232.6,298.5 234.1,298.5 235.5,298.5 236.9,298.5 238.2,298.4 239.6,298.4 240.8,298.4 242.1,298.4 243.3,298.4 244.5,298.4 245.6,298.4 246.7,298.5 247.8,298.6 248.9,298.7 249.9,298.9 251.0,299.0 252.0,299.2 252.9,299.3 253.9,299.4 254.8,299.4 255.8,299.4 256.7,299.4 257.6,299.4 258.4,299.4 259.3,299.4 260.1,299.3 261.0,299.3 261.8,299.3 263.0,299.3 264.1,299.2 265.3,299.2 266.4,299.2 267.5,299.1 268.5,299.1 269.6,299.1 270.6,299.1 271.6,299.0 272.5,299.0 273.5,299.0 274.4,299.0 275.3,299.0 276.2,299.0 277.1,299.0 278.0,298.9 278.8,298.9 279.6,298.9 280.5,298.9 281.3,298.9 282.3,298.9 283.4,298.9 284.4,298.9 285.3,298.9 286.3,298.8 287.3,298.8 288.2,298.8 289.1,298.8 290.0,298.8 290.9,298.8 291.7,298.8 292.6,298.8 293.4,298.8 294.2,298.8 295.0,298.8 296.0,298.8 297.0,298.8 297.9,298.8 298.8,298.8 299.7,298.7 300.6,298.7 301.5,298.7 302.4,298.7 303.2,298.7 304.0,298.7 304.9,298.7 305.8,298.7 306.7,298.7 307.7,298.7 308.6,298.7 309.5,298.7 310.3,298.7 311.2,298.7 312.0,298.7 312.8,298.7 313.7,298.7 314.6,298.7 315.5,298.7 316.4,298.7 317.3,298.7 318.1,298.7 319.0,298.7 319.8,298.7 320.6,298.7 321.4,298.7 322.3,298.7 323.2,298.7 324.1,298.6 324.9,298.6 325.7,298.6 326.6,298.6 327.4,298.6 328.3,298.6 329.1,298.6 330.0,298.6 330.8,298.6 331.7,298.6 332.5,298.6 333.3,298.6 334.2,298.6 335.0,298.6 335.9,298.6 336.7,298.6 337.5,298.6 338.4,298.6 339.2,298.6 340.1,298.6 340.9,298.6 341.7,298.6 342.5,298.6 343.4,298.6 344.2,298.6 345.1,298.6 345.9,298.6 346.7,298.6 347.6,298.6 348.4,298.6 349.2,298.6 350.0,298.6 350.9,298.6 351.7,298.6 352.6,298.6 353.4,298.6 354.2,298.6 355.1,298.6 355.9,298.6 356.7,298.6 357.6,298.6 358.4,298.6 359.2,298.6 360.0,298.6 360.9,298.6 361.7,298.6 362.5,298.6 363.3,298.6 364.2,298.6 365.0,298.6 365.8,298.6 366.6,298.6 367.4,298.6 368.3,298.6 369.1,298.6 369.9,298.6 370.7,298.6 371.5,298.6 372.4,298.6 373.2,298.6 374.0,298.6 374.8,298.6 375.6,298.6 376.4,298.6 377.2,298.6 378.1,298.6 378.9,298.6 379.7,298.6 380.5,298.6 381.3,298.6 382.1,298.6 383.0,298.6 383.8,298.6 384.6,298.6 385.4,298.6 386.2,298.7 387.0,298.7 387.9,298.7 388.7,298.7 389.5,298.7 390.3,298.7 391.1,298.8 391.9,298.8" fill="none" stroke="#2ecc71" stroke-width="1.5" stroke-linejoin="round" clip-path="url(#pc138)"/>
  <line x1="442" y1="221" x2="442" y2="376" stroke="#d1d5db"/>
  <line x1="442" y1="298.5" x2="800" y2="298.5" stroke="#d1d5db"/>
  <text x="621" y="402" text-anchor="middle" font-size="9" fill="#6b7280">Samples</text>
  <text x="420" y="298.5" text-anchor="middle" font-size="9" fill="#6b7280" transform="rotate(-90 420 298.5)">Impulse response</text>
  <line x1="442.0" y1="221" x2="442.0" y2="376" stroke="#e5e7eb" stroke-width="0.5"/>
  <text x="442.0" y="388" text-anchor="middle" font-size="8" fill="#6b7280">0</text>
  <line x1="531.5" y1="221" x2="531.5" y2="376" stroke="#e5e7eb" stroke-width="0.5"/>
  <text x="531.5" y="388" text-anchor="middle" font-size="8" fill="#6b7280">32</text>
  <line x1="621.0" y1="221" x2="621.0" y2="376" stroke="#e5e7eb" stroke-width="0.5"/>
  <text x="621.0" y="388" text-anchor="middle" font-size="8" fill="#6b7280">64</text>
  <line x1="710.5" y1="221" x2="710.5" y2="376" stroke="#e5e7eb" stroke-width="0.5"/>
  <text x="710.5" y="388" text-anchor="middle" font-size="8" fill="#6b7280">96</text>
  <line x1="800.0" y1="221" x2="800.0" y2="376" stroke="#e5e7eb" stroke-width="0.5"/>
  <text x="800.0" y="388" text-anchor="middle" font-size="8" fill="#6b7280">128</text>
  <line x1="442" y1="361.7" x2="800" y2="361.7" stroke="#e5e7eb" stroke-width="0.5"/>
  <text x="438" y="364.7" text-anchor="end" font-size="8" fill="#6b7280">-0.04</text>
  <text x="438" y="301.5" text-anchor="end" font-size="8" fill="#6b7280">0</text>
  <line x1="442" y1="235.3" x2="800" y2="235.3" stroke="#e5e7eb" stroke-width="0.5"/>
  <text x="438" y="238.3" text-anchor="end" font-size="8" fill="#6b7280">0.04</text>
  <defs><linearGradient id="g139" x1="0" y1="221" x2="0" y2="298.5" gradientUnits="userSpaceOnUse">
    <stop offset="0%" stop-color="#f39c12" stop-opacity="0.15"/>
    <stop offset="100%" stop-color="#f39c12" stop-opacity="0.02"/>
  </linearGradient></defs>
  <defs><linearGradient id="g140" x1="0" y1="376" x2="0" y2="298.5" gradientUnits="userSpaceOnUse">
    <stop offset="0%" stop-color="#f39c12" stop-opacity="0.15"/>
    <stop offset="100%" stop-color="#f39c12" stop-opacity="0.02"/>
  </linearGradient></defs>
  <defs><clipPath id="c141"><rect x="442" y="221" width="358" height="77.5"/></clipPath></defs>
  <defs><clipPath id="c142"><rect x="442" y="298.5" width="358" height="77.5"/></clipPath></defs>
  <path d="M442.0,298.5 442.0,298.5 444.8,298.4 447.6,298.2 450.4,297.7 453.2,296.9 456.0,295.6 458.8,293.8 461.6,291.5 464.4,288.7 467.2,285.3 470.0,281.5 472.8,277.2 475.6,272.6 478.4,267.7 481.2,262.5 484.0,257.3 486.8,252.1 489.5,247.1 492.3,242.2 495.1,237.6 497.9,233.4 500.7,229.8 503.5,226.7 506.3,224.2 509.1,222.4 511.9,221.3 514.7,221.0 517.5,221.4 520.3,222.6 523.1,224.6 525.9,227.2 528.7,230.5 531.5,234.4 534.3,238.9 537.1,243.8 539.9,249.2 542.7,254.8 545.5,260.7 548.3,266.7 551.1,272.7 553.9,278.7 556.7,284.6 559.5,290.2 562.3,295.6 565.1,300.6 567.9,305.1 570.7,309.3 573.5,312.9 576.3,316.0 579.0,318.5 581.8,320.4 584.6,321.8 587.4,322.7 590.2,323.0 593.0,322.8 595.8,322.1 598.6,321.0 601.4,319.6 604.2,317.8 607.0,315.7 609.8,313.4 612.6,311.0 615.4,308.5 618.2,305.9 621.0,303.4 623.8,300.9 626.6,298.5 629.4,296.3 632.2,294.4 635.0,292.6 637.8,291.1 640.6,289.9 643.4,289.0 646.2,288.3 649.0,288.0 651.8,287.9 654.6,288.2 657.4,288.7 660.2,289.4 663.0,290.3 665.8,291.5 668.5,292.8 671.3,294.1 674.1,295.6 676.9,297.2 679.7,298.7 682.5,300.2 685.3,301.7 688.1,303.1 690.9,304.4 693.7,305.5 696.5,306.5 699.3,307.4 702.1,308.0 704.9,308.5 707.7,308.7 710.5,308.8 713.3,308.7 716.1,308.4 718.9,308.0 721.7,307.4 724.5,306.6 727.3,305.7 730.1,304.8 732.9,303.7 735.7,302.6 738.5,301.4 741.3,300.3 744.1,299.1 746.9,298.0 749.7,297.0 752.5,296.0 755.3,295.1 758.0,294.3 760.8,293.6 763.6,293.0 766.4,292.5 769.2,292.2 772.0,292.0 774.8,292.0 777.6,292.0 780.4,292.2 783.2,292.5 786.0,292.9 788.8,293.4 791.6,294.0 794.4,294.6 797.2,295.2 L797.2,298.5 L442.0,298.5 Z" fill="url(#g139)" clip-path="url(#c141)"/>
  <path d="M442.0,298.5 442.0,298.5 444.8,298.4 447.6,298.2 450.4,297.7 453.2,296.9 456.0,295.6 458.8,293.8 461.6,291.5 464.4,288.7 467.2,285.3 470.0,281.5 472.8,277.2 475.6,272.6 478.4,267.7 481.2,262.5 484.0,257.3 486.8,252.1 489.5,247.1 492.3,242.2 495.1,237.6 497.9,233.4 500.7,229.8 503.5,226.7 506.3,224.2 509.1,222.4 511.9,221.3 514.7,221.0 517.5,221.4 520.3,222.6 523.1,224.6 525.9,227.2 528.7,230.5 531.5,234.4 534.3,238.9 537.1,243.8 539.9,249.2 542.7,254.8 545.5,260.7 548.3,266.7 551.1,272.7 553.9,278.7 556.7,284.6 559.5,290.2 562.3,295.6 565.1,300.6 567.9,305.1 570.7,309.3 573.5,312.9 576.3,316.0 579.0,318.5 581.8,320.4 584.6,321.8 587.4,322.7 590.2,323.0 593.0,322.8 595.8,322.1 598.6,321.0 601.4,319.6 604.2,317.8 607.0,315.7 609.8,313.4 612.6,311.0 615.4,308.5 618.2,305.9 621.0,303.4 623.8,300.9 626.6,298.5 629.4,296.3 632.2,294.4 635.0,292.6 637.8,291.1 640.6,289.9 643.4,289.0 646.2,288.3 649.0,288.0 651.8,287.9 654.6,288.2 657.4,288.7 660.2,289.4 663.0,290.3 665.8,291.5 668.5,292.8 671.3,294.1 674.1,295.6 676.9,297.2 679.7,298.7 682.5,300.2 685.3,301.7 688.1,303.1 690.9,304.4 693.7,305.5 696.5,306.5 699.3,307.4 702.1,308.0 704.9,308.5 707.7,308.7 710.5,308.8 713.3,308.7 716.1,308.4 718.9,308.0 721.7,307.4 724.5,306.6 727.3,305.7 730.1,304.8 732.9,303.7 735.7,302.6 738.5,301.4 741.3,300.3 744.1,299.1 746.9,298.0 749.7,297.0 752.5,296.0 755.3,295.1 758.0,294.3 760.8,293.6 763.6,293.0 766.4,292.5 769.2,292.2 772.0,292.0 774.8,292.0 777.6,292.0 780.4,292.2 783.2,292.5 786.0,292.9 788.8,293.4 791.6,294.0 794.4,294.6 797.2,295.2 L797.2,298.5 L442.0,298.5 Z" fill="url(#g140)" clip-path="url(#c142)"/>
  <defs><clipPath id="pc143"><rect x="442" y="221" width="358" height="155"/></clipPath></defs>
  <polyline points="442.0,298.5 444.8,298.4 447.6,298.2 450.4,297.7 453.2,296.9 456.0,295.6 458.8,293.8 461.6,291.5 464.4,288.7 467.2,285.3 470.0,281.5 472.8,277.2 475.6,272.6 478.4,267.7 481.2,262.5 484.0,257.3 486.8,252.1 489.5,247.1 492.3,242.2 495.1,237.6 497.9,233.4 500.7,229.8 503.5,226.7 506.3,224.2 509.1,222.4 511.9,221.3 514.7,221.0 517.5,221.4 520.3,222.6 523.1,224.6 525.9,227.2 528.7,230.5 531.5,234.4 534.3,238.9 537.1,243.8 539.9,249.2 542.7,254.8 545.5,260.7 548.3,266.7 551.1,272.7 553.9,278.7 556.7,284.6 559.5,290.2 562.3,295.6 565.1,300.6 567.9,305.1 570.7,309.3 573.5,312.9 576.3,316.0 579.0,318.5 581.8,320.4 584.6,321.8 587.4,322.7 590.2,323.0 593.0,322.8 595.8,322.1 598.6,321.0 601.4,319.6 604.2,317.8 607.0,315.7 609.8,313.4 612.6,311.0 615.4,308.5 618.2,305.9 621.0,303.4 623.8,300.9 626.6,298.5 629.4,296.3 632.2,294.4 635.0,292.6 637.8,291.1 640.6,289.9 643.4,289.0 646.2,288.3 649.0,288.0 651.8,287.9 654.6,288.2 657.4,288.7 660.2,289.4 663.0,290.3 665.8,291.5 668.5,292.8 671.3,294.1 674.1,295.6 676.9,297.2 679.7,298.7 682.5,300.2 685.3,301.7 688.1,303.1 690.9,304.4 693.7,305.5 696.5,306.5 699.3,307.4 702.1,308.0 704.9,308.5 707.7,308.7 710.5,308.8 713.3,308.7 716.1,308.4 718.9,308.0 721.7,307.4 724.5,306.6 727.3,305.7 730.1,304.8 732.9,303.7 735.7,302.6 738.5,301.4 741.3,300.3 744.1,299.1 746.9,298.0 749.7,297.0 752.5,296.0 755.3,295.1 758.0,294.3 760.8,293.6 763.6,293.0 766.4,292.5 769.2,292.2 772.0,292.0 774.8,292.0 777.6,292.0 780.4,292.2 783.2,292.5 786.0,292.9 788.8,293.4 791.6,294.0 794.4,294.6 797.2,295.2" fill="none" stroke="#f39c12" stroke-width="1.3" stroke-linejoin="round" clip-path="url(#pc143)"/>
</svg>
