<svg xmlns="http://www.w3.org/2000/svg" viewBox="0 0 820 378" style="font-family:system-ui,-apple-system,sans-serif">
  <text x="800" y="11" text-anchor="end" font-size="11" font-weight="600" fill="#6b7280">CIC decimator, R=8, N=3</text>
  <line x1="34" y1="16" x2="34" y2="171" stroke="#d1d5db"/>
  <line x1="34" y1="47.0" x2="399" y2="47.0" stroke="#d1d5db"/>
  <text x="216.5" y="197" text-anchor="middle" font-size="9" fill="#6b7280">Hz</text>
  <text x="12" y="93.5" text-anchor="middle" font-size="9" fill="#6b7280" transform="rotate(-90 12 93.5)">dB</text>
  <line x1="67.3" y1="16" x2="67.3" y2="171" stroke="#e5e7eb" stroke-width="0.5"/>
  <line x1="86.8" y1="16" x2="86.8" y2="171" stroke="#e5e7eb" stroke-width="0.5"/>
  <line x1="100.6" y1="16" x2="100.6" y2="171" stroke="#e5e7eb" stroke-width="0.5"/>
  <line x1="111.3" y1="16" x2="111.3" y2="171" stroke="#e5e7eb" stroke-width="0.5"/>
  <line x1="120.0" y1="16" x2="120.0" y2="171" stroke="#e5e7eb" stroke-width="0.5"/>
  <line x1="127.4" y1="16" x2="127.4" y2="171" stroke="#e5e7eb" stroke-width="0.5"/>
  <line x1="133.9" y1="16" x2="133.9" y2="171" stroke="#e5e7eb" stroke-width="0.5"/>
  <line x1="139.5" y1="16" x2="139.5" y2="171" stroke="#e5e7eb" stroke-width="0.5"/>
  <line x1="177.9" y1="16" x2="177.9" y2="171" stroke="#e5e7eb" stroke-width="0.5"/>
  <line x1="197.3" y1="16" x2="197.3" y2="171" stroke="#e5e7eb" stroke-width="0.5"/>
  <line x1="211.1" y1="16" x2="211.1" y2="171" stroke="#e5e7eb" stroke-width="0.5"/>
  <line x1="221.9" y1="16" x2="221.9" y2="171" stroke="#e5e7eb" stroke-width="0.5"/>
  <line x1="230.6" y1="16" x2="230.6" y2="171" stroke="#e5e7eb" stroke-width="0.5"/>
  <line x1="238.0" y1="16" x2="238.0" y2="171" stroke="#e5e7eb" stroke-width="0.5"/>
  <line x1="244.4" y1="16" x2="244.4" y2="171" stroke="#e5e7eb" stroke-width="0.5"/>
  <line x1="250.1" y1="16" x2="250.1" y2="171" stroke="#e5e7eb" stroke-width="0.5"/>
  <line x1="288.4" y1="16" x2="288.4" y2="171" stroke="#e5e7eb" stroke-width="0.5"/>
  <line x1="307.9" y1="16" x2="307.9" y2="171" stroke="#e5e7eb" stroke-width="0.5"/>
  <line x1="321.7" y1="16" x2="321.7" y2="171" stroke="#e5e7eb" stroke-width="0.5"/>
  <line x1="332.4" y1="16" x2="332.4" y2="171" stroke="#e5e7eb" stroke-width="0.5"/>
  <line x1="341.2" y1="16" x2="341.2" y2="171" stroke="#e5e7eb" stroke-width="0.5"/>
  <line x1="348.6" y1="16" x2="348.6" y2="171" stroke="#e5e7eb" stroke-width="0.5"/>
  <line x1="355.0" y1="16" x2="355.0" y2="171" stroke="#e5e7eb" stroke-width="0.5"/>
  <line x1="360.7" y1="16" x2="360.7" y2="171" stroke="#e5e7eb" stroke-width="0.5"/>
  <line x1="399.0" y1="16" x2="399.0" y2="171" stroke="#e5e7eb" stroke-width="0.5"/>
  <line x1="144.6" y1="16" x2="144.6" y2="171" stroke="#e5e7eb" stroke-width="0.5"/>
  <text x="144.6" y="183" text-anchor="middle" font-size="8" fill="#6b7280">100</text>
  <line x1="255.1" y1="16" x2="255.1" y2="171" stroke="#e5e7eb" stroke-width="0.5"/>
  <text x="255.1" y="183" text-anchor="middle" font-size="8" fill="#6b7280">1k</text>
  <line x1="365.7" y1="16" x2="365.7" y2="171" stroke="#e5e7eb" stroke-width="0.5"/>
  <text x="365.7" y="183" text-anchor="middle" font-size="8" fill="#6b7280">10k</text>
  <line x1="34" y1="31.5" x2="399" y2="31.5" stroke="#e5e7eb" stroke-width="0.5"/>
  <line x1="34" y1="62.5" x2="399" y2="62.5" stroke="#e5e7eb" stroke-width="0.5"/>
  <line x1="34" y1="16.0" x2="399" y2="16.0" stroke="#e5e7eb" stroke-width="0.5"/>
  <text x="30" y="19.0" text-anchor="end" font-size="8" fill="#6b7280">+20</text>
  <text x="30" y="50.0" text-anchor="end" font-size="8" fill="#6b7280">0</text>
  <line x1="34" y1="78.0" x2="399" y2="78.0" stroke="#e5e7eb" stroke-width="0.5"/>
  <text x="30" y="81.0" text-anchor="end" font-size="8" fill="#6b7280">-20</text>
  <line x1="34" y1="109.0" x2="399" y2="109.0" stroke="#e5e7eb" stroke-width="0.5"/>
  <text x="30" y="112.0" text-anchor="end" font-size="8" fill="#6b7280">-40</text>
  <line x1="34" y1="140.0" x2="399" y2="140.0" stroke="#e5e7eb" stroke-width="0.5"/>
  <text x="30" y="143.0" text-anchor="end" font-size="8" fill="#6b7280">-60</text>
  <line x1="34" y1="171.0" x2="399" y2="171.0" stroke="#e5e7eb" stroke-width="0.5"/>
  <text x="30" y="174.0" text-anchor="end" font-size="8" fill="#6b7280">-80</text>
  <defs><linearGradient id="g639" x1="0" y1="16" x2="0" y2="171" gradientUnits="userSpaceOnUse">
    <stop offset="0%" stop-color="#4a90d9" stop-opacity="0.15"/>
    <stop offset="100%" stop-color="#4a90d9" stop-opacity="0.02"/>
  </linearGradient></defs>
  <path d="M37.5,75.0 37.5,75.0 70.8,75.0 90.3,75.0 104.1,75.0 114.8,75.0 123.6,75.0 131.0,75.0 137.4,75.0 143.1,75.0 148.1,75.0 152.7,75.0 156.9,75.0 160.7,75.0 164.3,75.0 167.6,75.0 170.7,75.0 173.6,75.0 176.3,75.0 178.9,75.0 181.4,75.0 183.7,75.0 186.0,75.0 188.1,75.0 190.2,75.0 192.1,75.0 194.0,75.0 195.8,75.0 197.6,75.0 199.2,75.0 200.9,75.0 202.4,75.0 204.0,75.0 205.5,75.0 206.9,75.0 208.3,75.0 209.6,75.0 210.9,75.0 212.2,75.0 213.5,75.0 214.7,75.0 215.9,75.0 217.0,75.0 218.2,75.0 219.3,75.0 220.3,75.0 221.4,75.0 222.4,75.0 223.4,75.0 224.4,75.0 225.4,75.0 226.4,75.0 227.3,75.0 228.2,75.0 229.1,75.0 230.0,75.0 230.8,75.0 231.7,75.0 232.5,75.0 233.4,75.0 234.2,75.0 235.7,75.0 237.3,75.0 238.7,75.0 240.2,75.0 241.6,75.0 242.9,75.0 244.2,75.0 245.5,75.0 246.8,75.0 248.0,75.0 249.2,75.0 250.3,75.0 251.4,75.0 252.6,75.0 253.6,75.0 254.7,75.0 255.7,75.0 256.7,75.0 257.7,75.0 258.7,75.0 259.6,75.0 260.6,75.0 261.5,75.0 262.4,75.0 263.3,75.0 264.1,75.0 265.0,75.0 265.8,75.0 266.6,75.1 267.4,75.1 268.6,75.1 269.8,75.1 270.9,75.1 272.0,75.1 273.1,75.1 274.2,75.1 275.2,75.1 276.2,75.1 277.2,75.1 278.2,75.1 279.1,75.1 280.0,75.1 281.0,75.1 281.9,75.1 282.7,75.1 283.6,75.1 284.5,75.1 285.3,75.1 286.1,75.1 286.9,75.1 288.0,75.1 289.0,75.1 290.0,75.1 291.0,75.1 292.0,75.2 292.9,75.2 293.9,75.2 294.8,75.2 295.7,75.2 296.6,75.2 297.4,75.2 298.3,75.2 299.1,75.2 299.9,75.2 300.7,75.2 301.7,75.2 302.7,75.2 303.6,75.3 304.6,75.3 305.5,75.3 306.4,75.3 307.3,75.3 308.1,75.3 309.0,75.3 309.8,75.3 310.6,75.3 311.4,75.3 312.4,75.4 313.3,75.4 314.2,75.4 315.1,75.4 316.0,75.4 316.9,75.4 317.7,75.5 318.6,75.5 319.4,75.5 320.2,75.5 321.1,75.5 322.0,75.5 322.9,75.6 323.8,75.6 324.7,75.6 325.5,75.6 326.3,75.7 327.1,75.7 327.9,75.7 328.8,75.7 329.7,75.8 330.6,75.8 331.4,75.8 332.3,75.8 333.1,75.9 333.9,75.9 334.8,75.9 335.7,76.0 336.5,76.0 337.4,76.1 338.2,76.1 339.0,76.1 339.8,76.2 340.7,76.2 341.6,76.3 342.4,76.3 343.3,76.4 344.1,76.4 344.9,76.5 345.8,76.5 346.6,76.6 347.5,76.6 348.3,76.7 349.1,76.8 350.0,76.8 350.8,76.9 351.7,77.0 352.5,77.0 353.3,77.1 354.1,77.2 355.0,77.3 355.8,77.4 356.6,77.4 357.5,77.5 358.3,77.6 359.1,77.7 360.0,77.8 360.8,77.9 361.6,78.0 362.5,78.2 363.3,78.3 364.1,78.4 364.9,78.5 365.8,78.7 366.6,78.8 367.4,79.0 368.2,79.1 369.1,79.3 369.9,79.4 370.7,79.6 371.6,79.8 372.4,80.0 373.2,80.2 374.0,80.4 374.8,80.6 375.6,80.8 376.5,81.1 377.3,81.3 378.1,81.6 378.9,81.9 379.7,82.2 380.5,82.5 381.4,82.8 382.2,83.1 383.0,83.5 383.8,83.8 384.6,84.2 385.5,84.6 386.3,85.1 387.1,85.5 387.9,86.0 388.7,86.5 389.5,87.1 390.3,87.7 391.2,88.3 392.0,89.0 392.8,89.7 393.6,90.5 394.4,91.3 395.2,92.2 396.0,93.1 396.8,94.2 397.6,95.3 398.5,96.5 L398.5,171.0 L37.5,171.0 Z" fill="url(#g639)"/>
  <defs><clipPath id="pc640"><rect x="34" y="16" width="365" height="155"/></clipPath></defs>
  <polyline points="37.5,75.0 70.8,75.0 90.3,75.0 104.1,75.0 114.8,75.0 123.6,75.0 131.0,75.0 137.4,75.0 143.1,75.0 148.1,75.0 152.7,75.0 156.9,75.0 160.7,75.0 164.3,75.0 167.6,75.0 170.7,75.0 173.6,75.0 176.3,75.0 178.9,75.0 181.4,75.0 183.7,75.0 186.0,75.0 188.1,75.0 190.2,75.0 192.1,75.0 194.0,75.0 195.8,75.0 197.6,75.0 199.2,75.0 200.9,75.0 202.4,75.0 204.0,75.0 205.5,75.0 206.9,75.0 208.3,75.0 209.6,75.0 210.9,75.0 212.2,75.0 213.5,75.0 214.7,75.0 215.9,75.0 217.0,75.0 218.2,75.0 219.3,75.0 220.3,75.0 221.4,75.0 222.4,75.0 223.4,75.0 224.4,75.0 225.4,75.0 226.4,75.0 227.3,75.0 228.2,75.0 229.1,75.0 230.0,75.0 230.8,75.0 231.7,75.0 232.5,75.0 233.4,75.0 234.2,75.0 235.7,75.0 237.3,75.0 238.7,75.0 240.2,75.0 241.6,75.0 242.9,75.0 244.2,75.0 245.5,75.0 246.8,75.0 248.0,75.0 249.2,75.0 250.3,75.0 251.4,75.0 252.6,75.0 253.6,75.0 254.7,75.0 255.7,75.0 256.7,75.0 257.7,75.0 258.7,75.0 259.6,75.0 260.6,75.0 261.5,75.0 262.4,75.0 263.3,75.0 264.1,75.0 265.0,75.0 265.8,75.0 266.6,75.1 267.4,75.1 268.6,75.1 269.8,75.1 270.9,75.1 272.0,75.1 273.1,75.1 274.2,75.1 275.2,75.1 276.2,75.1 277.2,75.1 278.2,75.1 279.1,75.1 280.0,75.1 281.0,75.1 281.9,75.1 282.7,75.1 283.6,75.1 284.5,75.1 285.3,75.1 286.1,75.1 286.9,75.1 288.0,75.1 289.0,75.1 290.0,75.1 291.0,75.1 292.0,75.2 292.9,75.2 293.9,75.2 294.8,75.2 295.7,75.2 296.6,75.2 297.4,75.2 298.3,75.2 299.1,75.2 299.9,75.2 300.7,75.2 301.7,75.2 302.7,75.2 303.6,75.3 304.6,75.3 305.5,75.3 306.4,75.3 307.3,75.3 308.1,75.3 309.0,75.3 309.8,75.3 310.6,75.3 311.4,75.3 312.4,75.4 313.3,75.4 314.2,75.4 315.1,75.4 316.0,75.4 316.9,75.4 317.7,75.5 318.6,75.5 319.4,75.5 320.2,75.5 321.1,75.5 322.0,75.5 322.9,75.6 323.8,75.6 324.7,75.6 325.5,75.6 326.3,75.7 327.1,75.7 327.9,75.7 328.8,75.7 329.7,75.8 330.6,75.8 331.4,75.8 332.3,75.8 333.1,75.9 333.9,75.9 334.8,75.9 335.7,76.0 336.5,76.0 337.4,76.1 338.2,76.1 339.0,76.1 339.8,76.2 340.7,76.2 341.6,76.3 342.4,76.3 343.3,76.4 344.1,76.4 344.9,76.5 345.8,76.5 346.6,76.6 347.5,76.6 348.3,76.7 349.1,76.8 350.0,76.8 350.8,76.9 351.7,77.0 352.5,77.0 353.3,77.1 354.1,77.2 355.0,77.3 355.8,77.4 356.6,77.4 357.5,77.5 358.3,77.6 359.1,77.7 360.0,77.8 360.8,77.9 361.6,78.0 362.5,78.2 363.3,78.3 364.1,78.4 364.9,78.5 365.8,78.7 366.6,78.8 367.4,79.0 368.2,79.1 369.1,79.3 369.9,79.4 370.7,79.6 371.6,79.8 372.4,80.0 373.2,80.2 374.0,80.4 374.8,80.6 375.6,80.8 376.5,81.1 377.3,81.3 378.1,81.6 378.9,81.9 379.7,82.2 380.5,82.5 381.4,82.8 382.2,83.1 383.0,83.5 383.8,83.8 384.6,84.2 385.5,84.6 386.3,85.1 387.1,85.5 387.9,86.0 388.7,86.5 389.5,87.1 390.3,87.7 391.2,88.3 392.0,89.0 392.8,89.7 393.6,90.5 394.4,91.3 395.2,92.2 396.0,93.1 396.8,94.2 397.6,95.3 398.5,96.5" fill="none" stroke="#4a90d9" stroke-width="1.5" stroke-linejoin="round" clip-path="url(#pc640)"/>
  <line x1="435" y1="16" x2="435" y2="171" stroke="#d1d5db"/>
  <line x1="435" y1="93.5" x2="800" y2="93.5" stroke="#d1d5db"/>
  <text x="617.5" y="197" text-anchor="middle" font-size="9" fill="#6b7280">Hz</text>
  <text x="413" y="93.5" text-anchor="middle" font-size="9" fill="#6b7280" transform="rotate(-90 413 93.5)">Phase (deg)</text>
  <line x1="468.3" y1="16" x2="468.3" y2="171" stroke="#e5e7eb" stroke-width="0.5"/>
  <line x1="487.8" y1="16" x2="487.8" y2="171" stroke="#e5e7eb" stroke-width="0.5"/>
  <line x1="501.6" y1="16" x2="501.6" y2="171" stroke="#e5e7eb" stroke-width="0.5"/>
  <line x1="512.3" y1="16" x2="512.3" y2="171" stroke="#e5e7eb" stroke-width="0.5"/>
  <line x1="521.0" y1="16" x2="521.0" y2="171" stroke="#e5e7eb" stroke-width="0.5"/>
  <line x1="528.4" y1="16" x2="528.4" y2="171" stroke="#e5e7eb" stroke-width="0.5"/>
  <line x1="534.9" y1="16" x2="534.9" y2="171" stroke="#e5e7eb" stroke-width="0.5"/>
  <line x1="540.5" y1="16" x2="540.5" y2="171" stroke="#e5e7eb" stroke-width="0.5"/>
  <line x1="578.9" y1="16" x2="578.9" y2="171" stroke="#e5e7eb" stroke-width="0.5"/>
  <line x1="598.3" y1="16" x2="598.3" y2="171" stroke="#e5e7eb" stroke-width="0.5"/>
  <line x1="612.1" y1="16" x2="612.1" y2="171" stroke="#e5e7eb" stroke-width="0.5"/>
  <line x1="622.9" y1="16" x2="622.9" y2="171" stroke="#e5e7eb" stroke-width="0.5"/>
  <line x1="631.6" y1="16" x2="631.6" y2="171" stroke="#e5e7eb" stroke-width="0.5"/>
  <line x1="639.0" y1="16" x2="639.0" y2="171" stroke="#e5e7eb" stroke-width="0.5"/>
  <line x1="645.4" y1="16" x2="645.4" y2="171" stroke="#e5e7eb" stroke-width="0.5"/>
  <line x1="651.1" y1="16" x2="651.1" y2="171" stroke="#e5e7eb" stroke-width="0.5"/>
  <line x1="689.4" y1="16" x2="689.4" y2="171" stroke="#e5e7eb" stroke-width="0.5"/>
  <line x1="708.9" y1="16" x2="708.9" y2="171" stroke="#e5e7eb" stroke-width="0.5"/>
  <line x1="722.7" y1="16" x2="722.7" y2="171" stroke="#e5e7eb" stroke-width="0.5"/>
  <line x1="733.4" y1="16" x2="733.4" y2="171" stroke="#e5e7eb" stroke-width="0.5"/>
  <line x1="742.2" y1="16" x2="742.2" y2="171" stroke="#e5e7eb" stroke-width="0.5"/>
  <line x1="749.6" y1="16" x2="749.6" y2="171" stroke="#e5e7eb" stroke-width="0.5"/>
  <line x1="756.0" y1="16" x2="756.0" y2="171" stroke="#e5e7eb" stroke-width="0.5"/>
  <line x1="761.7" y1="16" x2="761.7" y2="171" stroke="#e5e7eb" stroke-width="0.5"/>
  <line x1="800.0" y1="16" x2="800.0" y2="171" stroke="#e5e7eb" stroke-width="0.5"/>
  <line x1="545.6" y1="16" x2="545.6" y2="171" stroke="#e5e7eb" stroke-width="0.5"/>
  <text x="545.6" y="183" text-anchor="middle" font-size="8" fill="#6b7280">100</text>
  <line x1="656.1" y1="16" x2="656.1" y2="171" stroke="#e5e7eb" stroke-width="0.5"/>
  <text x="656.1" y="183" text-anchor="middle" font-size="8" fill="#6b7280">1k</text>
  <line x1="766.7" y1="16" x2="766.7" y2="171" stroke="#e5e7eb" stroke-width="0.5"/>
  <text x="766.7" y="183" text-anchor="middle" font-size="8" fill="#6b7280">10k</text>
  <line x1="435" y1="54.8" x2="800" y2="54.8" stroke="#e5e7eb" stroke-width="0.5"/>
  <line x1="435" y1="132.3" x2="800" y2="132.3" stroke="#e5e7eb" stroke-width="0.5"/>
  <line x1="435" y1="16.0" x2="800" y2="16.0" stroke="#e5e7eb" stroke-width="0.5"/>
  <text x="431" y="19.0" text-anchor="end" font-size="8" fill="#6b7280">180</text>
  <text x="431" y="96.5" text-anchor="end" font-size="8" fill="#6b7280">0</text>
  <line x1="435" y1="171.0" x2="800" y2="171.0" stroke="#e5e7eb" stroke-width="0.5"/>
  <text x="431" y="174.0" text-anchor="end" font-size="8" fill="#6b7280">-180</text>
  <defs><linearGradient id="g641" x1="0" y1="171" x2="0" y2="93.5" gradientUnits="userSpaceOnUse">
    <stop offset="0%" stop-color="#e74c3c" stop-opacity="0.15"/>
    <stop offset="100%" stop-color="#e74c3c" stop-opacity="0.02"/>
  </linearGradient></defs>
  <path d="M438.5,93.5 438.5,93.5 471.8,93.5 491.3,93.5 505.1,93.6 515.8,93.6 524.6,93.6 532.0,93.6 538.4,93.6 544.1,93.6 549.1,93.7 553.7,93.7 557.9,93.7 561.7,93.7 565.3,93.7 568.6,93.7 571.7,93.8 574.6,93.8 577.3,93.8 579.9,93.8 582.4,93.8 584.7,93.8 587.0,93.9 589.1,93.9 591.2,93.9 593.1,93.9 595.0,93.9 596.8,93.9 598.6,94.0 600.2,94.0 601.9,94.0 603.4,94.0 605.0,94.0 606.5,94.0 607.9,94.1 609.3,94.1 610.6,94.1 611.9,94.1 613.2,94.1 614.5,94.1 615.7,94.2 616.9,94.2 618.0,94.2 619.2,94.2 620.3,94.2 621.3,94.2 622.4,94.3 623.4,94.3 624.4,94.3 625.4,94.3 626.4,94.3 627.4,94.3 628.3,94.4 629.2,94.4 630.1,94.4 631.0,94.4 631.8,94.4 632.7,94.4 633.5,94.5 634.4,94.5 635.2,94.5 636.7,94.5 638.3,94.6 639.7,94.6 641.2,94.6 642.6,94.7 643.9,94.7 645.2,94.7 646.5,94.8 647.8,94.8 649.0,94.8 650.2,94.9 651.3,94.9 652.4,94.9 653.6,95.0 654.6,95.0 655.7,95.0 656.7,95.1 657.7,95.1 658.7,95.1 659.7,95.2 660.6,95.2 661.6,95.2 662.5,95.3 663.4,95.3 664.3,95.3 665.1,95.4 666.0,95.4 666.8,95.4 667.6,95.5 668.4,95.5 669.6,95.5 670.8,95.6 671.9,95.6 673.0,95.7 674.1,95.7 675.2,95.8 676.2,95.8 677.2,95.9 678.2,95.9 679.2,96.0 680.1,96.0 681.0,96.1 682.0,96.1 682.9,96.2 683.7,96.2 684.6,96.3 685.5,96.3 686.3,96.4 687.1,96.4 687.9,96.5 689.0,96.5 690.0,96.6 691.0,96.7 692.0,96.7 693.0,96.8 693.9,96.9 694.9,96.9 695.8,97.0 696.7,97.1 697.6,97.1 698.4,97.2 699.3,97.3 700.1,97.3 700.9,97.4 701.7,97.5 702.7,97.5 703.7,97.6 704.6,97.7 705.6,97.8 706.5,97.9 707.4,98.0 708.3,98.0 709.1,98.1 710.0,98.2 710.8,98.3 711.6,98.4 712.4,98.5 713.4,98.6 714.3,98.7 715.2,98.7 716.1,98.8 717.0,98.9 717.9,99.0 718.7,99.1 719.6,99.2 720.4,99.3 721.2,99.4 722.1,99.6 723.0,99.7 723.9,99.8 724.8,99.9 725.7,100.0 726.5,100.1 727.3,100.2 728.1,100.4 728.9,100.5 729.8,100.6 730.7,100.7 731.6,100.9 732.4,101.0 733.3,101.1 734.1,101.2 734.9,101.4 735.8,101.5 736.7,101.7 737.5,101.8 738.4,102.0 739.2,102.1 740.0,102.3 740.8,102.4 741.7,102.6 742.6,102.7 743.4,102.9 744.3,103.0 745.1,103.2 745.9,103.4 746.8,103.5 747.6,103.7 748.5,103.9 749.3,104.1 750.1,104.2 751.0,104.4 751.8,104.6 752.7,104.8 753.5,105.0 754.3,105.2 755.1,105.4 756.0,105.6 756.8,105.8 757.6,106.0 758.5,106.2 759.3,106.4 760.1,106.6 761.0,106.8 761.8,107.1 762.6,107.3 763.5,107.5 764.3,107.7 765.1,108.0 765.9,108.2 766.8,108.4 767.6,108.7 768.4,108.9 769.2,109.2 770.1,109.4 770.9,109.6 771.7,109.9 772.6,110.2 773.4,110.4 774.2,110.7 775.0,110.9 775.8,111.2 776.6,111.4 777.5,111.7 778.3,112.0 779.1,112.2 779.9,112.5 780.7,112.7 781.5,113.0 782.4,113.2 783.2,113.5 784.0,113.7 784.8,114.0 785.6,114.2 786.5,114.4 787.3,114.6 788.1,114.8 788.9,115.0 789.7,115.1 790.5,115.3 791.3,115.4 792.2,115.5 793.0,115.5 793.8,115.5 794.6,115.4 795.4,115.2 796.2,114.9 797.0,114.5 797.8,113.9 798.6,113.2 799.5,112.1 L799.5,93.5 L438.5,93.5 Z" fill="url(#g641)"/>
  <defs><clipPath id="pc642"><rect x="435" y="16" width="365" height="155"/></clipPath></defs>
  <polyline points="438.5,93.5 471.8,93.5 491.3,93.5 505.1,93.6 515.8,93.6 524.6,93.6 532.0,93.6 538.4,93.6 544.1,93.6 549.1,93.7 553.7,93.7 557.9,93.7 561.7,93.7 565.3,93.7 568.6,93.7 571.7,93.8 574.6,93.8 577.3,93.8 579.9,93.8 582.4,93.8 584.7,93.8 587.0,93.9 589.1,93.9 591.2,93.9 593.1,93.9 595.0,93.9 596.8,93.9 598.6,94.0 600.2,94.0 601.9,94.0 603.4,94.0 605.0,94.0 606.5,94.0 607.9,94.1 609.3,94.1 610.6,94.1 611.9,94.1 613.2,94.1 614.5,94.1 615.7,94.2 616.9,94.2 618.0,94.2 619.2,94.2 620.3,94.2 621.3,94.2 622.4,94.3 623.4,94.3 624.4,94.3 625.4,94.3 626.4,94.3 627.4,94.3 628.3,94.4 629.2,94.4 630.1,94.4 631.0,94.4 631.8,94.4 632.7,94.4 633.5,94.5 634.4,94.5 635.2,94.5 636.7,94.5 638.3,94.6 639.7,94.6 641.2,94.6 642.6,94.7 643.9,94.7 645.2,94.7 646.5,94.8 647.8,94.8 649.0,94.8 650.2,94.9 651.3,94.9 652.4,94.9 653.6,95.0 654.6,95.0 655.7,95.0 656.7,95.1 657.7,95.1 658.7,95.1 659.7,95.2 660.6,95.2 661.6,95.2 662.5,95.3 663.4,95.3 664.3,95.3 665.1,95.4 666.0,95.4 666.8,95.4 667.6,95.5 668.4,95.5 669.6,95.5 670.8,95.6 671.9,95.6 673.0,95.7 674.1,95.7 675.2,95.8 676.2,95.8 677.2,95.9 678.2,95.9 679.2,96.0 680.1,96.0 681.0,96.1 682.0,96.1 682.9,96.2 683.7,96.2 684.6,96.3 685.5,96.3 686.3,96.4 687.1,96.4 687.9,96.5 689.0,96.5 690.0,96.6 691.0,96.7 692.0,96.7 693.0,96.8 693.9,96.9 694.9,96.9 695.8,97.0 696.7,97.1 697.6,97.1 698.4,97.2 699.3,97.3 700.1,97.3 700.9,97.4 701.7,97.5 702.7,97.5 703.7,97.6 704.6,97.7 705.6,97.8 706.5,97.9 707.4,98.0 708.3,98.0 709.1,98.1 710.0,98.2 710.8,98.3 711.6,98.4 712.4,98.5 713.4,98.6 714.3,98.7 715.2,98.7 716.1,98.8 717.0,98.9 717.9,99.0 718.7,99.1 719.6,99.2 720.4,99.3 721.2,99.4 722.1,99.6 723.0,99.7 723.9,99.8 724.8,99.9 725.7,100.0 726.5,100.1 727.3,100.2 728.1,100.4 728.9,100.5 729.8,100.6 730.7,100.7 731.6,100.9 732.4,101.0 733.3,101.1 734.1,101.2 734.9,101.4 735.8,101.5 736.7,101.7 737.5,101.8 738.4,102.0 739.2,102.1 740.0,102.3 740.8,102.4 741.7,102.6 742.6,102.7 743.4,102.9 744.3,103.0 745.1,103.2 745.9,103.4 746.8,103.5 747.6,103.7 748.5,103.9 749.3,104.1 750.1,104.2 751.0,104.4 751.8,104.6 752.7,104.8 753.5,105.0 754.3,105.2 755.1,105.4 756.0,105.6 756.8,105.8 757.6,106.0 758.5,106.2 759.3,106.4 760.1,106.6 761.0,106.8 761.8,107.1 762.6,107.3 763.5,107.5 764.3,107.7 765.1,108.0 765.9,108.2 766.8,108.4 767.6,108.7 768.4,108.9 769.2,109.2 770.1,109.4 770.9,109.6 771.7,109.9 772.6,110.2 773.4,110.4 774.2,110.7 775.0,110.9 775.8,111.2 776.6,111.4 777.5,111.7 778.3,112.0 779.1,112.2 779.9,112.5 780.7,112.7 781.5,113.0 782.4,113.2 783.2,113.5 784.0,113.7 784.8,114.0 785.6,114.2 786.5,114.4 787.3,114.6 788.1,114.8 788.9,115.0 789.7,115.1 790.5,115.3 791.3,115.4 792.2,115.5 793.0,115.5 793.8,115.5 794.6,115.4 795.4,115.2 796.2,114.9 797.0,114.5 797.8,113.9 798.6,113.2 799.5,112.1" fill="none" stroke="#e74c3c" stroke-width="1.5" stroke-linejoin="round" clip-path="url(#pc642)"/>
  <line x1="34" y1="207" x2="34" y2="362" stroke="#d1d5db"/>
  <line x1="34" y1="284.5" x2="399" y2="284.5" stroke="#d1d5db"/>
  <text x="216.5" y="388" text-anchor="middle" font-size="9" fill="#6b7280">Hz</text>
  <text x="12" y="284.5" text-anchor="middle" font-size="9" fill="#6b7280" transform="rotate(-90 12 284.5)">Group delay</text>
  <line x1="67.3" y1="207" x2="67.3" y2="362" stroke="#e5e7eb" stroke-width="0.5"/>
  <line x1="86.8" y1="207" x2="86.8" y2="362" stroke="#e5e7eb" stroke-width="0.5"/>
  <line x1="100.6" y1="207" x2="100.6" y2="362" stroke="#e5e7eb" stroke-width="0.5"/>
  <line x1="111.3" y1="207" x2="111.3" y2="362" stroke="#e5e7eb" stroke-width="0.5"/>
  <line x1="120.0" y1="207" x2="120.0" y2="362" stroke="#e5e7eb" stroke-width="0.5"/>
  <line x1="127.4" y1="207" x2="127.4" y2="362" stroke="#e5e7eb" stroke-width="0.5"/>
  <line x1="133.9" y1="207" x2="133.9" y2="362" stroke="#e5e7eb" stroke-width="0.5"/>
  <line x1="139.5" y1="207" x2="139.5" y2="362" stroke="#e5e7eb" stroke-width="0.5"/>
  <line x1="177.9" y1="207" x2="177.9" y2="362" stroke="#e5e7eb" stroke-width="0.5"/>
  <line x1="197.3" y1="207" x2="197.3" y2="362" stroke="#e5e7eb" stroke-width="0.5"/>
  <line x1="211.1" y1="207" x2="211.1" y2="362" stroke="#e5e7eb" stroke-width="0.5"/>
  <line x1="221.9" y1="207" x2="221.9" y2="362" stroke="#e5e7eb" stroke-width="0.5"/>
  <line x1="230.6" y1="207" x2="230.6" y2="362" stroke="#e5e7eb" stroke-width="0.5"/>
  <line x1="238.0" y1="207" x2="238.0" y2="362" stroke="#e5e7eb" stroke-width="0.5"/>
  <line x1="244.4" y1="207" x2="244.4" y2="362" stroke="#e5e7eb" stroke-width="0.5"/>
  <line x1="250.1" y1="207" x2="250.1" y2="362" stroke="#e5e7eb" stroke-width="0.5"/>
  <line x1="288.4" y1="207" x2="288.4" y2="362" stroke="#e5e7eb" stroke-width="0.5"/>
  <line x1="307.9" y1="207" x2="307.9" y2="362" stroke="#e5e7eb" stroke-width="0.5"/>
  <line x1="321.7" y1="207" x2="321.7" y2="362" stroke="#e5e7eb" stroke-width="0.5"/>
  <line x1="332.4" y1="207" x2="332.4" y2="362" stroke="#e5e7eb" stroke-width="0.5"/>
  <line x1="341.2" y1="207" x2="341.2" y2="362" stroke="#e5e7eb" stroke-width="0.5"/>
  <line x1="348.6" y1="207" x2="348.6" y2="362" stroke="#e5e7eb" stroke-width="0.5"/>
  <line x1="355.0" y1="207" x2="355.0" y2="362" stroke="#e5e7eb" stroke-width="0.5"/>
  <line x1="360.7" y1="207" x2="360.7" y2="362" stroke="#e5e7eb" stroke-width="0.5"/>
  <line x1="399.0" y1="207" x2="399.0" y2="362" stroke="#e5e7eb" stroke-width="0.5"/>
  <line x1="144.6" y1="207" x2="144.6" y2="362" stroke="#e5e7eb" stroke-width="0.5"/>
  <text x="144.6" y="374" text-anchor="middle" font-size="8" fill="#6b7280">100</text>
  <line x1="255.1" y1="207" x2="255.1" y2="362" stroke="#e5e7eb" stroke-width="0.5"/>
  <text x="255.1" y="374" text-anchor="middle" font-size="8" fill="#6b7280">1k</text>
  <line x1="365.7" y1="207" x2="365.7" y2="362" stroke="#e5e7eb" stroke-width="0.5"/>
  <text x="365.7" y="374" text-anchor="middle" font-size="8" fill="#6b7280">10k</text>
  <line x1="34" y1="326.2" x2="399" y2="326.2" stroke="#e5e7eb" stroke-width="0.5"/>
  <text x="30" y="329.2" text-anchor="end" font-size="8" fill="#6b7280">-0.7</text>
  <text x="30" y="287.5" text-anchor="end" font-size="8" fill="#6b7280">0</text>
  <line x1="34" y1="242.8" x2="399" y2="242.8" stroke="#e5e7eb" stroke-width="0.5"/>
  <text x="30" y="245.8" text-anchor="end" font-size="8" fill="#6b7280">0.7</text>
  <defs><linearGradient id="g643" x1="0" y1="207" x2="0" y2="284.5" gradientUnits="userSpaceOnUse">
    <stop offset="0%" stop-color="#2ecc71" stop-opacity="0.15"/>
    <stop offset="100%" stop-color="#2ecc71" stop-opacity="0.02"/>
  </linearGradient></defs>
  <defs><linearGradient id="g644" x1="0" y1="362" x2="0" y2="284.5" gradientUnits="userSpaceOnUse">
    <stop offset="0%" stop-color="#2ecc71" stop-opacity="0.15"/>
    <stop offset="100%" stop-color="#2ecc71" stop-opacity="0.02"/>
  </linearGradient></defs>
  <defs><clipPath id="c645"><rect x="34" y="207" width="365" height="77.5"/></clipPath></defs>
  <defs><clipPath id="c646"><rect x="34" y="284.5" width="365" height="77.5"/></clipPath></defs>
  <path d="M37.5,258.4 37.5,258.4 70.8,258.4 90.3,258.4 104.1,258.4 114.8,258.4 123.6,258.4 131.0,258.4 137.4,258.4 143.1,258.4 148.1,258.4 152.7,258.4 156.9,258.4 160.7,258.4 164.3,258.4 167.6,258.4 170.7,258.4 173.6,258.4 176.3,258.4 178.9,258.4 181.4,258.4 183.7,258.4 186.0,258.4 188.1,258.4 190.2,258.4 192.1,258.4 194.0,258.4 195.8,258.4 197.6,258.4 199.2,258.4 200.9,258.4 202.4,258.4 204.0,258.4 205.5,258.4 206.9,258.4 208.3,258.4 209.6,258.4 210.9,258.4 212.2,258.4 213.5,258.4 214.7,258.4 215.9,258.4 217.0,258.4 218.2,258.4 219.3,258.4 220.3,258.4 221.4,258.4 222.4,258.4 223.4,258.4 224.4,258.4 225.4,258.4 226.4,258.4 227.3,258.4 228.2,258.4 229.1,258.4 230.0,258.4 230.8,258.4 231.7,258.4 232.5,258.4 233.4,258.4 234.2,258.4 235.7,258.4 237.3,258.4 238.7,258.4 240.2,258.4 241.6,258.4 242.9,258.4 244.2,258.4 245.5,258.4 246.8,258.4 248.0,258.4 249.2,258.4 250.3,258.4 251.4,258.4 252.6,258.4 253.6,258.4 254.7,258.4 255.7,258.4 256.7,258.4 257.7,258.4 258.7,258.4 259.6,258.4 260.6,258.4 261.5,258.4 262.4,258.4 263.3,258.4 264.1,258.4 265.0,258.4 265.8,258.4 266.6,258.4 267.4,258.4 268.6,258.5 269.8,258.5 270.9,258.5 272.0,258.5 273.1,258.5 274.2,258.5 275.2,258.5 276.2,258.5 277.2,258.5 278.2,258.5 279.1,258.5 280.0,258.5 281.0,258.5 281.9,258.5 282.7,258.5 283.6,258.5 284.5,258.5 285.3,258.5 286.1,258.5 286.9,258.5 288.0,258.5 289.0,258.5 290.0,258.5 291.0,258.5 292.0,258.5 292.9,258.5 293.9,258.5 294.8,258.5 295.7,258.5 296.6,258.5 297.4,258.5 298.3,258.5 299.1,258.5 299.9,258.5 300.7,258.5 301.7,258.6 302.7,258.6 303.6,258.6 304.6,258.6 305.5,258.6 306.4,258.6 307.3,258.6 308.1,258.6 309.0,258.6 309.8,258.6 310.6,258.6 311.4,258.6 312.4,258.6 313.3,258.6 314.2,258.6 315.1,258.7 316.0,258.7 316.9,258.7 317.7,258.7 318.6,258.7 319.4,258.7 320.2,258.7 321.1,258.7 322.0,258.7 322.9,258.7 323.8,258.8 324.7,258.8 325.5,258.8 326.3,258.8 327.1,258.8 327.9,258.8 328.8,258.8 329.7,258.9 330.6,258.9 331.4,258.9 332.3,258.9 333.1,258.9 333.9,259.0 334.8,259.0 335.7,259.0 336.5,259.0 337.4,259.1 338.2,259.1 339.0,259.1 339.8,259.1 340.7,259.2 341.6,259.2 342.4,259.2 343.3,259.3 344.1,259.3 344.9,259.3 345.8,259.4 346.6,259.4 347.5,259.4 348.3,259.5 349.1,259.5 350.0,259.6 350.8,259.6 351.7,259.7 352.5,259.7 353.3,259.8 354.1,259.9 355.0,259.9 355.8,260.0 356.6,260.0 357.5,260.1 358.3,260.2 359.1,260.3 360.0,260.4 360.8,260.5 361.6,260.6 362.5,260.7 363.3,260.8 364.1,260.9 364.9,261.0 365.8,261.1 366.6,261.3 367.4,261.4 368.2,261.6 369.1,261.7 369.9,261.9 370.7,262.1 371.6,262.3 372.4,262.5 373.2,262.8 374.0,263.0 374.8,263.3 375.6,263.6 376.5,263.9 377.3,264.3 378.1,264.6 378.9,265.0 379.7,265.5 380.5,266.0 381.4,266.5 382.2,267.1 383.0,267.8 383.8,268.5 384.6,269.4 385.5,270.3 386.3,271.3 387.1,272.5 387.9,273.9 388.7,275.4 389.5,277.2 390.3,279.2 391.2,281.7 392.0,284.5 392.8,287.8 393.6,291.9 394.4,296.7 395.2,302.6 396.0,309.9 396.8,319.1 397.6,330.5 398.5,345.2 L398.5,284.5 L37.5,284.5 Z" fill="url(#g643)" clip-path="url(#c645)"/>
  <path d="M37.5,258.4 37.5,258.4 70.8,258.4 90.3,258.4 104.1,258.4 114.8,258.4 123.6,258.4 131.0,258.4 137.4,258.4 143.1,258.4 148.1,258.4 152.7,258.4 156.9,258.4 160.7,258.4 164.3,258.4 167.6,258.4 170.7,258.4 173.6,258.4 176.3,258.4 178.9,258.4 181.4,258.4 183.7,258.4 186.0,258.4 188.1,258.4 190.2,258.4 192.1,258.4 194.0,258.4 195.8,258.4 197.6,258.4 199.2,258.4 200.9,258.4 202.4,258.4 204.0,258.4 205.5,258.4 206.9,258.4 208.3,258.4 209.6,258.4 210.9,258.4 212.2,258.4 213.5,258.4 214.7,258.4 215.9,258.4 217.0,258.4 218.2,258.4 219.3,258.4 220.3,258.4 221.4,258.4 222.4,258.4 223.4,258.4 224.4,258.4 225.4,258.4 226.4,258.4 227.3,258.4 228.2,258.4 229.1,258.4 230.0,258.4 230.8,258.4 231.7,258.4 232.5,258.4 233.4,258.4 234.2,258.4 235.7,258.4 237.3,258.4 238.7,258.4 240.2,258.4 241.6,258.4 242.9,258.4 244.2,258.4 245.5,258.4 246.8,258.4 248.0,258.4 249.2,258.4 250.3,258.4 251.4,258.4 252.6,258.4 253.6,258.4 254.7,258.4 255.7,258.4 256.7,258.4 257.7,258.4 258.7,258.4 259.6,258.4 260.6,258.4 261.5,258.4 262.4,258.4 263.3,258.4 264.1,258.4 265.0,258.4 265.8,258.4 266.6,258.4 267.4,258.4 268.6,258.5 269.8,258.5 270.9,258.5 272.0,258.5 273.1,258.5 274.2,258.5 275.2,258.5 276.2,258.5 277.2,258.5 278.2,258.5 279.1,258.5 280.0,258.5 281.0,258.5 281.9,258.5 282.7,258.5 283.6,258.5 284.5,258.5 285.3,258.5 286.1,258.5 286.9,258.5 288.0,258.5 289.0,258.5 290.0,258.5 291.0,258.5 292.0,258.5 292.9,258.5 293.9,258.5 294.8,258.5 295.7,258.5 296.6,258.5 297.4,258.5 298.3,258.5 299.1,258.5 299.9,258.5 300.7,258.5 301.7,258.6 302.7,258.6 303.6,258.6 304.6,258.6 305.5,258.6 306.4,258.6 307.3,258.6 308.1,258.6 309.0,258.6 309.8,258.6 310.6,258.6 311.4,258.6 312.4,258.6 313.3,258.6 314.2,258.6 315.1,258.7 316.0,258.7 316.9,258.7 317.7,258.7 318.6,258.7 319.4,258.7 320.2,258.7 321.1,258.7 322.0,258.7 322.9,258.7 323.8,258.8 324.7,258.8 325.5,258.8 326.3,258.8 327.1,258.8 327.9,258.8 328.8,258.8 329.7,258.9 330.6,258.9 331.4,258.9 332.3,258.9 333.1,258.9 333.9,259.0 334.8,259.0 335.7,259.0 336.5,259.0 337.4,259.1 338.2,259.1 339.0,259.1 339.8,259.1 340.7,259.2 341.6,259.2 342.4,259.2 343.3,259.3 344.1,259.3 344.9,259.3 345.8,259.4 346.6,259.4 347.5,259.4 348.3,259.5 349.1,259.5 350.0,259.6 350.8,259.6 351.7,259.7 352.5,259.7 353.3,259.8 354.1,259.9 355.0,259.9 355.8,260.0 356.6,260.0 357.5,260.1 358.3,260.2 359.1,260.3 360.0,260.4 360.8,260.5 361.6,260.6 362.5,260.7 363.3,260.8 364.1,260.9 364.9,261.0 365.8,261.1 366.6,261.3 367.4,261.4 368.2,261.6 369.1,261.7 369.9,261.9 370.7,262.1 371.6,262.3 372.4,262.5 373.2,262.8 374.0,263.0 374.8,263.3 375.6,263.6 376.5,263.9 377.3,264.3 378.1,264.6 378.9,265.0 379.7,265.5 380.5,266.0 381.4,266.5 382.2,267.1 383.0,267.8 383.8,268.5 384.6,269.4 385.5,270.3 386.3,271.3 387.1,272.5 387.9,273.9 388.7,275.4 389.5,277.2 390.3,279.2 391.2,281.7 392.0,284.5 392.8,287.8 393.6,291.9 394.4,296.7 395.2,302.6 396.0,309.9 396.8,319.1 397.6,330.5 398.5,345.2 L398.5,284.5 L37.5,284.5 Z" fill="url(#g644)" clip-path="url(#c646)"/>
  <defs><clipPath id="pc647"><rect x="34" y="207" width="365" height="155"/></clipPath></defs>
  <polyline points="37.5,258.4 70.8,258.4 90.3,258.4 104.1,258.4 114.8,258.4 123.6,258.4 131.0,258.4 137.4,258.4 143.1,258.4 148.1,258.4 152.7,258.4 156.9,258.4 160.7,258.4 164.3,258.4 167.6,258.4 170.7,258.4 173.6,258.4 176.3,258.4 178.9,258.4 181.4,258.4 183.7,258.4 186.0,258.4 188.1,258.4 190.2,258.4 192.1,258.4 194.0,258.4 195.8,258.4 197.6,258.4 199.2,258.4 200.9,258.4 202.4,258.4 204.0,258.4 205.5,258.4 206.9,258.4 208.3,258.4 209.6,258.4 210.9,258.4 212.2,258.4 213.5,258.4 214.7,258.4 215.9,258.4 217.0,258.4 218.2,258.4 219.3,258.4 220.3,258.4 221.4,258.4 222.4,258.4 223.4,258.4 224.4,258.4 225.4,258.4 226.4,258.4 227.3,258.4 228.2,258.4 229.1,258.4 230.0,258.4 230.8,258.4 231.7,258.4 232.5,258.4 233.4,258.4 234.2,258.4 235.7,258.4 237.3,258.4 238.7,258.4 240.2,258.4 241.6,258.4 242.9,258.4 244.2,258.4 245.5,258.4 246.8,258.4 248.0,258.4 249.2,258.4 250.3,258.4 251.4,258.4 252.6,258.4 253.6,258.4 254.7,258.4 255.7,258.4 256.7,258.4 257.7,258.4 258.7,258.4 259.6,258.4 260.6,258.4 261.5,258.4 262.4,258.4 263.3,258.4 264.1,258.4 265.0,258.4 265.8,258.4 266.6,258.4 267.4,258.4 268.6,258.5 269.8,258.5 270.9,258.5 272.0,258.5 273.1,258.5 274.2,258.5 275.2,258.5 276.2,258.5 277.2,258.5 278.2,258.5 279.1,258.5 280.0,258.5 281.0,258.5 281.9,258.5 282.7,258.5 283.6,258.5 284.5,258.5 285.3,258.5 286.1,258.5 286.9,258.5 288.0,258.5 289.0,258.5 290.0,258.5 291.0,258.5 292.0,258.5 292.9,258.5 293.9,258.5 294.8,258.5 295.7,258.5 296.6,258.5 297.4,258.5 298.3,258.5 299.1,258.5 299.9,258.5 300.7,258.5 301.7,258.6 302.7,258.6 303.6,258.6 304.6,258.6 305.5,258.6 306.4,258.6 307.3,258.6 308.1,258.6 309.0,258.6 309.8,258.6 310.6,258.6 311.4,258.6 312.4,258.6 313.3,258.6 314.2,258.6 315.1,258.7 316.0,258.7 316.9,258.7 317.7,258.7 318.6,258.7 319.4,258.7 320.2,258.7 321.1,258.7 322.0,258.7 322.9,258.7 323.8,258.8 324.7,258.8 325.5,258.8 326.3,258.8 327.1,258.8 327.9,258.8 328.8,258.8 329.7,258.9 330.6,258.9 331.4,258.9 332.3,258.9 333.1,258.9 333.9,259.0 334.8,259.0 335.7,259.0 336.5,259.0 337.4,259.1 338.2,259.1 339.0,259.1 339.8,259.1 340.7,259.2 341.6,259.2 342.4,259.2 343.3,259.3 344.1,259.3 344.9,259.3 345.8,259.4 346.6,259.4 347.5,259.4 348.3,259.5 349.1,259.5 350.0,259.6 350.8,259.6 351.7,259.7 352.5,259.7 353.3,259.8 354.1,259.9 355.0,259.9 355.8,260.0 356.6,260.0 357.5,260.1 358.3,260.2 359.1,260.3 360.0,260.4 360.8,260.5 361.6,260.6 362.5,260.7 363.3,260.8 364.1,260.9 364.9,261.0 365.8,261.1 366.6,261.3 367.4,261.4 368.2,261.6 369.1,261.7 369.9,261.9 370.7,262.1 371.6,262.3 372.4,262.5 373.2,262.8 374.0,263.0 374.8,263.3 375.6,263.6 376.5,263.9 377.3,264.3 378.1,264.6 378.9,265.0 379.7,265.5 380.5,266.0 381.4,266.5 382.2,267.1 383.0,267.8 383.8,268.5 384.6,269.4 385.5,270.3 386.3,271.3 387.1,272.5 387.9,273.9 388.7,275.4 389.5,277.2 390.3,279.2 391.2,281.7 392.0,284.5 392.8,287.8 393.6,291.9 394.4,296.7 395.2,302.6 396.0,309.9 396.8,319.1 397.6,330.5 398.5,345.2" fill="none" stroke="#2ecc71" stroke-width="1.5" stroke-linejoin="round" clip-path="url(#pc647)"/>
  <line x1="435" y1="207" x2="435" y2="362" stroke="#d1d5db"/>
  <line x1="435" y1="284.5" x2="800" y2="284.5" stroke="#d1d5db"/>
  <text x="617.5" y="388" text-anchor="middle" font-size="9" fill="#6b7280">Samples</text>
  <text x="413" y="284.5" text-anchor="middle" font-size="9" fill="#6b7280" transform="rotate(-90 413 284.5)">Impulse response</text>
  <line x1="435.0" y1="207" x2="435.0" y2="362" stroke="#e5e7eb" stroke-width="0.5"/>
  <text x="435.0" y="374" text-anchor="middle" font-size="8" fill="#6b7280">0</text>
  <line x1="606.1" y1="207" x2="606.1" y2="362" stroke="#e5e7eb" stroke-width="0.5"/>
  <text x="606.1" y="374" text-anchor="middle" font-size="8" fill="#6b7280">30</text>
  <line x1="777.2" y1="207" x2="777.2" y2="362" stroke="#e5e7eb" stroke-width="0.5"/>
  <text x="777.2" y="374" text-anchor="middle" font-size="8" fill="#6b7280">60</text>
  <line x1="435" y1="339.6" x2="800" y2="339.6" stroke="#e5e7eb" stroke-width="0.5"/>
  <text x="431" y="342.6" text-anchor="end" font-size="8" fill="#6b7280">-0.05</text>
  <text x="431" y="287.5" text-anchor="end" font-size="8" fill="#6b7280">0</text>
  <line x1="435" y1="229.4" x2="800" y2="229.4" stroke="#e5e7eb" stroke-width="0.5"/>
  <text x="431" y="232.4" text-anchor="end" font-size="8" fill="#6b7280">0.05</text>
  <defs><linearGradient id="g648" x1="0" y1="207" x2="0" y2="284.5" gradientUnits="userSpaceOnUse">
    <stop offset="0%" stop-color="#f39c12" stop-opacity="0.15"/>
    <stop offset="100%" stop-color="#f39c12" stop-opacity="0.02"/>
  </linearGradient></defs>
  <path d="M435.0,207.0 435.0,207.0 440.7,224.2 446.4,284.5 452.1,284.5 457.8,284.5 463.5,284.5 469.2,284.5 474.9,284.5 480.6,284.5 486.3,284.5 492.0,284.5 497.7,284.5 503.4,284.5 509.1,284.5 514.8,284.5 520.5,284.5 526.3,284.5 532.0,284.5 537.7,284.5 543.4,284.5 549.1,284.5 554.8,284.5 560.5,284.5 566.2,284.5 571.9,284.5 577.6,284.5 583.3,284.5 589.0,284.5 594.7,284.5 600.4,284.5 606.1,284.5 611.8,284.5 617.5,284.5 623.2,284.5 628.9,284.5 634.6,284.5 640.3,284.5 646.0,284.5 651.7,284.5 657.4,284.5 663.1,284.5 668.8,284.5 674.5,284.5 680.2,284.5 685.9,284.5 691.6,284.5 697.3,284.5 703.0,284.5 708.8,284.5 714.5,284.5 720.2,284.5 725.9,284.5 731.6,284.5 737.3,284.5 743.0,284.5 748.7,284.5 754.4,284.5 760.1,284.5 765.8,284.5 771.5,284.5 777.2,284.5 782.9,284.5 788.6,284.5 794.3,284.5 L794.3,284.5 L435.0,284.5 Z" fill="url(#g648)"/>
  <defs><clipPath id="pc649"><rect x="435" y="207" width="365" height="155"/></clipPath></defs>
  <polyline points="435.0,207.0 440.7,224.2 446.4,284.5 452.1,284.5 457.8,284.5 463.5,284.5 469.2,284.5 474.9,284.5 480.6,284.5 486.3,284.5 492.0,284.5 497.7,284.5 503.4,284.5 509.1,284.5 514.8,284.5 520.5,284.5 526.3,284.5 532.0,284.5 537.7,284.5 543.4,284.5 549.1,284.5 554.8,284.5 560.5,284.5 566.2,284.5 571.9,284.5 577.6,284.5 583.3,284.5 589.0,284.5 594.7,284.5 600.4,284.5 606.1,284.5 611.8,284.5 617.5,284.5 623.2,284.5 628.9,284.5 634.6,284.5 640.3,284.5 646.0,284.5 651.7,284.5 657.4,284.5 663.1,284.5 668.8,284.5 674.5,284.5 680.2,284.5 685.9,284.5 691.6,284.5 697.3,284.5 703.0,284.5 708.8,284.5 714.5,284.5 720.2,284.5 725.9,284.5 731.6,284.5 737.3,284.5 743.0,284.5 748.7,284.5 754.4,284.5 760.1,284.5 765.8,284.5 771.5,284.5 777.2,284.5 782.9,284.5 788.6,284.5 794.3,284.5" fill="none" stroke="#f39c12" stroke-width="1.3" stroke-linejoin="round" clip-path="url(#pc649)"/>
</svg>
