<svg xmlns="http://www.w3.org/2000/svg" viewBox="0 0 820 378" style="font-family:system-ui,-apple-system,sans-serif">
  <text x="800" y="11" text-anchor="end" font-size="11" font-weight="600" fill="#6b7280">Feedback comb, delay=100, gain=0.7</text>
  <line x1="34" y1="16" x2="34" y2="171" stroke="#d1d5db"/>
  <line x1="34" y1="47.0" x2="399" y2="47.0" stroke="#d1d5db"/>
  <text x="216.5" y="197" text-anchor="middle" font-size="9" fill="#6b7280">Hz</text>
  <text x="12" y="93.5" text-anchor="middle" font-size="9" fill="#6b7280" transform="rotate(-90 12 93.5)">dB</text>
  <line x1="67.3" y1="16" x2="67.3" y2="171" stroke="#e5e7eb" stroke-width="0.5"/>
  <line x1="86.8" y1="16" x2="86.8" y2="171" stroke="#e5e7eb" stroke-width="0.5"/>
  <line x1="100.6" y1="16" x2="100.6" y2="171" stroke="#e5e7eb" stroke-width="0.5"/>
  <line x1="111.3" y1="16" x2="111.3" y2="171" stroke="#e5e7eb" stroke-width="0.5"/>
  <line x1="120.0" y1="16" x2="120.0" y2="171" stroke="#e5e7eb" stroke-width="0.5"/>
  <line x1="127.4" y1="16" x2="127.4" y2="171" stroke="#e5e7eb" stroke-width="0.5"/>
  <line x1="133.9" y1="16" x2="133.9" y2="171" stroke="#e5e7eb" stroke-width="0.5"/>
  <line x1="139.5" y1="16" x2="139.5" y2="171" stroke="#e5e7eb" stroke-width="0.5"/>
  <line x1="177.9" y1="16" x2="177.9" y2="171" stroke="#e5e7eb" stroke-width="0.5"/>
  <line x1="197.3" y1="16" x2="197.3" y2="171" stroke="#e5e7eb" stroke-width="0.5"/>
  <line x1="211.1" y1="16" x2="211.1" y2="171" stroke="#e5e7eb" stroke-width="0.5"/>
  <line x1="221.9" y1="16" x2="221.9" y2="171" stroke="#e5e7eb" stroke-width="0.5"/>
  <line x1="230.6" y1="16" x2="230.6" y2="171" stroke="#e5e7eb" stroke-width="0.5"/>
  <line x1="238.0" y1="16" x2="238.0" y2="171" stroke="#e5e7eb" stroke-width="0.5"/>
  <line x1="244.4" y1="16" x2="244.4" y2="171" stroke="#e5e7eb" stroke-width="0.5"/>
  <line x1="250.1" y1="16" x2="250.1" y2="171" stroke="#e5e7eb" stroke-width="0.5"/>
  <line x1="288.4" y1="16" x2="288.4" y2="171" stroke="#e5e7eb" stroke-width="0.5"/>
  <line x1="307.9" y1="16" x2="307.9" y2="171" stroke="#e5e7eb" stroke-width="0.5"/>
  <line x1="321.7" y1="16" x2="321.7" y2="171" stroke="#e5e7eb" stroke-width="0.5"/>
  <line x1="332.4" y1="16" x2="332.4" y2="171" stroke="#e5e7eb" stroke-width="0.5"/>
  <line x1="341.2" y1="16" x2="341.2" y2="171" stroke="#e5e7eb" stroke-width="0.5"/>
  <line x1="348.6" y1="16" x2="348.6" y2="171" stroke="#e5e7eb" stroke-width="0.5"/>
  <line x1="355.0" y1="16" x2="355.0" y2="171" stroke="#e5e7eb" stroke-width="0.5"/>
  <line x1="360.7" y1="16" x2="360.7" y2="171" stroke="#e5e7eb" stroke-width="0.5"/>
  <line x1="399.0" y1="16" x2="399.0" y2="171" stroke="#e5e7eb" stroke-width="0.5"/>
  <line x1="144.6" y1="16" x2="144.6" y2="171" stroke="#e5e7eb" stroke-width="0.5"/>
  <text x="144.6" y="183" text-anchor="middle" font-size="8" fill="#6b7280">100</text>
  <line x1="255.1" y1="16" x2="255.1" y2="171" stroke="#e5e7eb" stroke-width="0.5"/>
  <text x="255.1" y="183" text-anchor="middle" font-size="8" fill="#6b7280">1k</text>
  <line x1="365.7" y1="16" x2="365.7" y2="171" stroke="#e5e7eb" stroke-width="0.5"/>
  <text x="365.7" y="183" text-anchor="middle" font-size="8" fill="#6b7280">10k</text>
  <line x1="34" y1="31.5" x2="399" y2="31.5" stroke="#e5e7eb" stroke-width="0.5"/>
  <line x1="34" y1="62.5" x2="399" y2="62.5" stroke="#e5e7eb" stroke-width="0.5"/>
  <line x1="34" y1="16.0" x2="399" y2="16.0" stroke="#e5e7eb" stroke-width="0.5"/>
  <text x="30" y="19.0" text-anchor="end" font-size="8" fill="#6b7280">+20</text>
  <text x="30" y="50.0" text-anchor="end" font-size="8" fill="#6b7280">0</text>
  <line x1="34" y1="78.0" x2="399" y2="78.0" stroke="#e5e7eb" stroke-width="0.5"/>
  <text x="30" y="81.0" text-anchor="end" font-size="8" fill="#6b7280">-20</text>
  <line x1="34" y1="109.0" x2="399" y2="109.0" stroke="#e5e7eb" stroke-width="0.5"/>
  <text x="30" y="112.0" text-anchor="end" font-size="8" fill="#6b7280">-40</text>
  <line x1="34" y1="140.0" x2="399" y2="140.0" stroke="#e5e7eb" stroke-width="0.5"/>
  <text x="30" y="143.0" text-anchor="end" font-size="8" fill="#6b7280">-60</text>
  <line x1="34" y1="171.0" x2="399" y2="171.0" stroke="#e5e7eb" stroke-width="0.5"/>
  <text x="30" y="174.0" text-anchor="end" font-size="8" fill="#6b7280">-80</text>
  <defs><linearGradient id="g608" x1="0" y1="16" x2="0" y2="171" gradientUnits="userSpaceOnUse">
    <stop offset="0%" stop-color="#4a90d9" stop-opacity="0.15"/>
    <stop offset="100%" stop-color="#4a90d9" stop-opacity="0.02"/>
  </linearGradient></defs>
  <path d="M37.5,32.8 37.5,32.8 70.8,34.0 90.3,35.9 104.1,38.5 114.8,41.8 123.6,45.2 131.0,47.3 137.4,47.8 143.1,47.7 148.1,48.0 152.7,49.2 156.9,51.2 160.7,53.2 164.3,54.1 167.6,53.4 170.7,52.5 173.6,52.2 176.3,52.9 178.9,54.3 181.4,55.6 183.7,55.6 186.0,54.2 188.1,52.8 190.2,52.2 192.1,52.5 194.0,53.4 195.8,54.1 197.6,53.2 199.2,51.1 200.9,49.1 202.4,48.0 204.0,47.7 205.5,47.8 206.9,47.3 208.3,45.0 209.6,41.7 210.9,38.4 212.2,35.8 213.5,33.9 214.7,32.8 215.9,32.5 217.0,32.9 218.2,34.0 219.3,36.0 220.3,38.7 221.4,42.0 222.4,45.3 223.4,47.4 224.4,47.8 225.4,47.7 226.4,48.0 227.3,49.3 228.2,51.3 229.1,53.3 230.0,54.0 230.8,53.4 231.7,52.4 232.5,52.2 233.4,52.9 234.2,54.4 235.7,55.6 237.3,52.8 238.7,52.5 240.2,54.1 241.6,51.0 242.9,47.9 244.2,47.8 245.5,44.9 246.8,38.3 248.0,33.9 249.2,32.5 250.3,34.1 251.4,38.8 252.6,45.4 253.6,47.8 254.7,48.0 255.7,51.4 256.7,54.0 257.7,52.4 258.7,53.0 259.6,55.7 260.6,54.1 261.5,52.2 262.4,53.5 263.3,53.0 264.1,49.0 265.0,47.7 265.8,47.2 266.6,41.4 267.4,35.6 268.6,32.5 269.8,36.1 270.9,45.5 272.0,47.7 273.1,51.4 274.2,53.3 275.2,53.0 276.2,55.5 277.2,52.2 278.2,54.0 279.1,48.9 280.0,47.8 281.0,41.3 281.9,33.7 282.7,33.0 283.6,39.0 284.5,47.5 285.3,48.1 286.1,53.5 286.9,52.3 288.0,55.7 289.0,52.2 290.0,52.9 291.0,47.7 292.0,41.1 292.9,32.7 293.9,36.3 294.8,47.6 295.7,49.5 296.6,53.2 297.4,54.6 298.3,52.6 299.1,54.0 299.9,47.8 300.7,44.4 301.7,32.7 302.7,39.3 303.6,47.7 304.6,54.0 305.5,54.7 306.4,52.2 307.3,50.6 308.1,46.9 309.0,33.6 309.8,36.5 310.6,47.8 311.4,53.6 312.4,54.7 313.3,52.7 314.2,47.8 315.1,37.6 316.0,34.5 316.9,47.8 317.7,54.0 318.6,55.8 319.4,53.7 320.2,47.7 321.1,33.5 322.0,43.1 322.9,52.0 323.8,54.9 324.7,53.8 325.5,47.8 326.3,32.6 327.1,46.2 327.9,53.8 328.8,55.1 329.7,50.2 330.6,37.3 331.4,39.9 332.3,52.1 333.1,55.8 333.9,52.3 334.8,37.2 335.7,43.5 336.5,53.9 337.4,52.4 338.2,47.7 339.0,32.6 339.8,47.7 340.7,55.1 341.6,50.0 342.4,33.2 343.3,47.7 344.1,53.6 344.9,52.1 345.8,33.2 346.6,47.8 347.5,55.8 348.3,47.7 349.1,33.5 350.0,54.0 350.8,53.1 351.7,36.6 352.5,47.7 353.3,55.8 354.1,47.6 355.0,44.3 355.8,53.9 356.6,47.7 357.5,37.8 358.3,52.6 359.1,47.7 360.0,41.1 360.8,54.0 361.6,47.5 362.5,47.8 363.3,53.0 364.1,36.1 364.9,53.0 365.8,51.4 366.6,38.3 367.4,55.6 368.2,38.7 369.1,53.2 369.9,49.2 370.7,47.3 371.6,52.5 372.4,34.0 373.2,55.7 374.0,33.9 374.8,52.2 375.6,41.4 376.5,53.3 377.3,44.7 378.1,54.0 378.9,44.5 379.7,53.2 380.5,41.0 381.4,52.3 382.2,33.6 383.0,55.8 383.8,34.5 384.6,52.7 385.5,47.8 386.3,47.7 387.1,53.0 387.9,32.6 388.7,52.2 389.5,47.7 390.3,43.5 391.2,55.0 392.0,47.8 392.8,46.2 393.6,54.9 394.4,47.7 395.2,36.6 396.0,53.1 396.8,53.7 397.6,37.8 398.5,45.7 L398.5,171.0 L37.5,171.0 Z" fill="url(#g608)"/>
  <defs><clipPath id="pc609"><rect x="34" y="16" width="365" height="155"/></clipPath></defs>
  <polyline points="37.5,32.8 70.8,34.0 90.3,35.9 104.1,38.5 114.8,41.8 123.6,45.2 131.0,47.3 137.4,47.8 143.1,47.7 148.1,48.0 152.7,49.2 156.9,51.2 160.7,53.2 164.3,54.1 167.6,53.4 170.7,52.5 173.6,52.2 176.3,52.9 178.9,54.3 181.4,55.6 183.7,55.6 186.0,54.2 188.1,52.8 190.2,52.2 192.1,52.5 194.0,53.4 195.8,54.1 197.6,53.2 199.2,51.1 200.9,49.1 202.4,48.0 204.0,47.7 205.5,47.8 206.9,47.3 208.3,45.0 209.6,41.7 210.9,38.4 212.2,35.8 213.5,33.9 214.7,32.8 215.9,32.5 217.0,32.9 218.2,34.0 219.3,36.0 220.3,38.7 221.4,42.0 222.4,45.3 223.4,47.4 224.4,47.8 225.4,47.7 226.4,48.0 227.3,49.3 228.2,51.3 229.1,53.3 230.0,54.0 230.8,53.4 231.7,52.4 232.5,52.2 233.4,52.9 234.2,54.4 235.7,55.6 237.3,52.8 238.7,52.5 240.2,54.1 241.6,51.0 242.9,47.9 244.2,47.8 245.5,44.9 246.8,38.3 248.0,33.9 249.2,32.5 250.3,34.1 251.4,38.8 252.6,45.4 253.6,47.8 254.7,48.0 255.7,51.4 256.7,54.0 257.7,52.4 258.7,53.0 259.6,55.7 260.6,54.1 261.5,52.2 262.4,53.5 263.3,53.0 264.1,49.0 265.0,47.7 265.8,47.2 266.6,41.4 267.4,35.6 268.6,32.5 269.8,36.1 270.9,45.5 272.0,47.7 273.1,51.4 274.2,53.3 275.2,53.0 276.2,55.5 277.2,52.2 278.2,54.0 279.1,48.9 280.0,47.8 281.0,41.3 281.9,33.7 282.7,33.0 283.6,39.0 284.5,47.5 285.3,48.1 286.1,53.5 286.9,52.3 288.0,55.7 289.0,52.2 290.0,52.9 291.0,47.7 292.0,41.1 292.9,32.7 293.9,36.3 294.8,47.6 295.7,49.5 296.6,53.2 297.4,54.6 298.3,52.6 299.1,54.0 299.9,47.8 300.7,44.4 301.7,32.7 302.7,39.3 303.6,47.7 304.6,54.0 305.5,54.7 306.4,52.2 307.3,50.6 308.1,46.9 309.0,33.6 309.8,36.5 310.6,47.8 311.4,53.6 312.4,54.7 313.3,52.7 314.2,47.8 315.1,37.6 316.0,34.5 316.9,47.8 317.7,54.0 318.6,55.8 319.4,53.7 320.2,47.7 321.1,33.5 322.0,43.1 322.9,52.0 323.8,54.9 324.7,53.8 325.5,47.8 326.3,32.6 327.1,46.2 327.9,53.8 328.8,55.1 329.7,50.2 330.6,37.3 331.4,39.9 332.3,52.1 333.1,55.8 333.9,52.3 334.8,37.2 335.7,43.5 336.5,53.9 337.4,52.4 338.2,47.7 339.0,32.6 339.8,47.7 340.7,55.1 341.6,50.0 342.4,33.2 343.3,47.7 344.1,53.6 344.9,52.1 345.8,33.2 346.6,47.8 347.5,55.8 348.3,47.7 349.1,33.5 350.0,54.0 350.8,53.1 351.7,36.6 352.5,47.7 353.3,55.8 354.1,47.6 355.0,44.3 355.8,53.9 356.6,47.7 357.5,37.8 358.3,52.6 359.1,47.7 360.0,41.1 360.8,54.0 361.6,47.5 362.5,47.8 363.3,53.0 364.1,36.1 364.9,53.0 365.8,51.4 366.6,38.3 367.4,55.6 368.2,38.7 369.1,53.2 369.9,49.2 370.7,47.3 371.6,52.5 372.4,34.0 373.2,55.7 374.0,33.9 374.8,52.2 375.6,41.4 376.5,53.3 377.3,44.7 378.1,54.0 378.9,44.5 379.7,53.2 380.5,41.0 381.4,52.3 382.2,33.6 383.0,55.8 383.8,34.5 384.6,52.7 385.5,47.8 386.3,47.7 387.1,53.0 387.9,32.6 388.7,52.2 389.5,47.7 390.3,43.5 391.2,55.0 392.0,47.8 392.8,46.2 393.6,54.9 394.4,47.7 395.2,36.6 396.0,53.1 396.8,53.7 397.6,37.8 398.5,45.7" fill="none" stroke="#4a90d9" stroke-width="1.5" stroke-linejoin="round" clip-path="url(#pc609)"/>
  <line x1="435" y1="16" x2="435" y2="171" stroke="#d1d5db"/>
  <line x1="435" y1="93.5" x2="800" y2="93.5" stroke="#d1d5db"/>
  <text x="617.5" y="197" text-anchor="middle" font-size="9" fill="#6b7280">Hz</text>
  <text x="413" y="93.5" text-anchor="middle" font-size="9" fill="#6b7280" transform="rotate(-90 413 93.5)">Phase (deg)</text>
  <line x1="468.3" y1="16" x2="468.3" y2="171" stroke="#e5e7eb" stroke-width="0.5"/>
  <line x1="487.8" y1="16" x2="487.8" y2="171" stroke="#e5e7eb" stroke-width="0.5"/>
  <line x1="501.6" y1="16" x2="501.6" y2="171" stroke="#e5e7eb" stroke-width="0.5"/>
  <line x1="512.3" y1="16" x2="512.3" y2="171" stroke="#e5e7eb" stroke-width="0.5"/>
  <line x1="521.0" y1="16" x2="521.0" y2="171" stroke="#e5e7eb" stroke-width="0.5"/>
  <line x1="528.4" y1="16" x2="528.4" y2="171" stroke="#e5e7eb" stroke-width="0.5"/>
  <line x1="534.9" y1="16" x2="534.9" y2="171" stroke="#e5e7eb" stroke-width="0.5"/>
  <line x1="540.5" y1="16" x2="540.5" y2="171" stroke="#e5e7eb" stroke-width="0.5"/>
  <line x1="578.9" y1="16" x2="578.9" y2="171" stroke="#e5e7eb" stroke-width="0.5"/>
  <line x1="598.3" y1="16" x2="598.3" y2="171" stroke="#e5e7eb" stroke-width="0.5"/>
  <line x1="612.1" y1="16" x2="612.1" y2="171" stroke="#e5e7eb" stroke-width="0.5"/>
  <line x1="622.9" y1="16" x2="622.9" y2="171" stroke="#e5e7eb" stroke-width="0.5"/>
  <line x1="631.6" y1="16" x2="631.6" y2="171" stroke="#e5e7eb" stroke-width="0.5"/>
  <line x1="639.0" y1="16" x2="639.0" y2="171" stroke="#e5e7eb" stroke-width="0.5"/>
  <line x1="645.4" y1="16" x2="645.4" y2="171" stroke="#e5e7eb" stroke-width="0.5"/>
  <line x1="651.1" y1="16" x2="651.1" y2="171" stroke="#e5e7eb" stroke-width="0.5"/>
  <line x1="689.4" y1="16" x2="689.4" y2="171" stroke="#e5e7eb" stroke-width="0.5"/>
  <line x1="708.9" y1="16" x2="708.9" y2="171" stroke="#e5e7eb" stroke-width="0.5"/>
  <line x1="722.7" y1="16" x2="722.7" y2="171" stroke="#e5e7eb" stroke-width="0.5"/>
  <line x1="733.4" y1="16" x2="733.4" y2="171" stroke="#e5e7eb" stroke-width="0.5"/>
  <line x1="742.2" y1="16" x2="742.2" y2="171" stroke="#e5e7eb" stroke-width="0.5"/>
  <line x1="749.6" y1="16" x2="749.6" y2="171" stroke="#e5e7eb" stroke-width="0.5"/>
  <line x1="756.0" y1="16" x2="756.0" y2="171" stroke="#e5e7eb" stroke-width="0.5"/>
  <line x1="761.7" y1="16" x2="761.7" y2="171" stroke="#e5e7eb" stroke-width="0.5"/>
  <line x1="800.0" y1="16" x2="800.0" y2="171" stroke="#e5e7eb" stroke-width="0.5"/>
  <line x1="545.6" y1="16" x2="545.6" y2="171" stroke="#e5e7eb" stroke-width="0.5"/>
  <text x="545.6" y="183" text-anchor="middle" font-size="8" fill="#6b7280">100</text>
  <line x1="656.1" y1="16" x2="656.1" y2="171" stroke="#e5e7eb" stroke-width="0.5"/>
  <text x="656.1" y="183" text-anchor="middle" font-size="8" fill="#6b7280">1k</text>
  <line x1="766.7" y1="16" x2="766.7" y2="171" stroke="#e5e7eb" stroke-width="0.5"/>
  <text x="766.7" y="183" text-anchor="middle" font-size="8" fill="#6b7280">10k</text>
  <line x1="435" y1="58.6" x2="800" y2="58.6" stroke="#e5e7eb" stroke-width="0.5"/>
  <line x1="435" y1="128.4" x2="800" y2="128.4" stroke="#e5e7eb" stroke-width="0.5"/>
  <line x1="435" y1="23.8" x2="800" y2="23.8" stroke="#e5e7eb" stroke-width="0.5"/>
  <text x="431" y="26.8" text-anchor="end" font-size="8" fill="#6b7280">180</text>
  <text x="431" y="96.5" text-anchor="end" font-size="8" fill="#6b7280">0</text>
  <line x1="435" y1="163.3" x2="800" y2="163.3" stroke="#e5e7eb" stroke-width="0.5"/>
  <text x="431" y="166.3" text-anchor="end" font-size="8" fill="#6b7280">-180</text>
  <defs><linearGradient id="g610" x1="0" y1="16" x2="0" y2="93.5" gradientUnits="userSpaceOnUse">
    <stop offset="0%" stop-color="#e74c3c" stop-opacity="0.15"/>
    <stop offset="100%" stop-color="#e74c3c" stop-opacity="0.02"/>
  </linearGradient></defs>
  <defs><linearGradient id="g611" x1="0" y1="171" x2="0" y2="93.5" gradientUnits="userSpaceOnUse">
    <stop offset="0%" stop-color="#e74c3c" stop-opacity="0.15"/>
    <stop offset="100%" stop-color="#e74c3c" stop-opacity="0.02"/>
  </linearGradient></defs>
  <defs><clipPath id="c612"><rect x="435" y="16" width="365" height="77.5"/></clipPath></defs>
  <defs><clipPath id="c613"><rect x="435" y="93.5" width="365" height="77.5"/></clipPath></defs>
  <path d="M438.5,98.7 438.5,98.7 471.8,103.6 491.3,108.1 505.1,111.5 515.8,113.3 524.6,112.5 532.0,109.6 538.4,106.9 544.1,106.1 549.1,106.8 553.7,107.7 557.9,107.6 561.7,105.4 565.3,101.5 568.6,98.5 571.7,97.7 574.6,98.2 577.3,98.8 579.9,98.2 582.4,95.4 584.7,91.4 587.0,88.8 589.1,88.2 591.2,88.8 593.1,89.3 595.0,88.4 596.8,85.4 598.6,81.5 600.2,79.4 601.9,79.3 603.4,80.2 605.0,80.9 606.5,80.1 607.9,77.3 609.3,74.4 610.6,73.8 611.9,75.6 613.2,79.1 614.5,83.6 615.7,88.5 616.9,93.7 618.0,98.9 619.2,103.8 620.3,108.2 621.3,111.6 622.4,113.3 623.4,112.4 624.4,109.5 625.4,106.8 626.4,106.1 627.4,106.9 628.3,107.7 629.2,107.5 630.1,105.2 631.0,101.3 631.8,98.5 632.7,97.7 633.5,98.2 634.4,98.8 635.2,98.1 636.7,91.3 638.3,88.2 639.7,89.3 641.2,85.2 642.6,79.3 643.9,80.3 645.2,80.0 646.5,74.3 647.8,75.7 649.0,83.7 650.2,93.9 651.3,104.0 652.4,111.7 653.6,112.4 654.6,106.7 655.7,106.9 656.7,107.5 657.7,101.2 658.7,97.7 659.7,98.8 660.6,95.1 661.6,88.6 662.5,88.9 663.4,88.2 664.3,81.3 665.1,79.4 666.0,80.9 666.8,77.0 667.6,73.8 668.4,79.4 669.6,94.1 670.8,108.5 671.9,112.3 673.0,106.1 674.1,107.4 675.2,98.3 676.2,98.8 677.2,91.0 678.2,88.9 679.2,84.9 680.1,79.4 681.0,79.8 682.0,73.9 682.9,84.1 683.7,99.5 684.6,111.9 685.5,109.1 686.3,107.0 687.1,104.8 687.9,97.7 689.0,94.8 690.0,88.9 691.0,81.0 692.0,80.9 693.0,73.9 693.9,89.3 694.9,108.8 695.8,108.9 696.7,107.8 697.6,98.2 698.4,97.8 699.3,88.3 700.1,84.6 700.9,80.4 701.7,74.0 702.7,89.5 703.7,112.1 704.6,106.2 705.6,100.6 706.5,97.7 707.4,89.0 708.3,79.2 709.1,76.5 710.0,84.7 710.8,109.1 711.6,106.5 712.4,104.3 713.4,97.6 714.3,89.2 715.2,80.5 716.1,76.5 717.0,105.1 717.9,106.4 718.7,100.3 719.6,94.2 720.4,87.6 721.2,80.8 722.1,85.1 723.0,113.3 723.9,107.1 724.8,97.4 725.7,87.5 726.5,79.2 727.3,90.4 728.1,111.5 728.9,103.9 729.8,90.1 730.7,79.1 731.6,76.9 732.4,112.5 733.3,106.9 734.1,93.7 734.9,80.3 735.8,77.0 736.7,113.3 737.5,99.8 738.4,88.4 739.2,80.7 740.0,96.2 740.8,106.4 741.7,97.0 742.6,79.1 743.4,86.1 744.3,106.2 745.1,98.7 745.9,80.0 746.8,86.3 747.6,106.4 748.5,93.0 749.3,80.7 750.1,101.9 751.0,102.9 751.8,89.0 752.7,77.7 753.5,106.1 754.3,92.7 755.1,78.3 756.0,113.0 756.8,98.5 757.6,80.8 758.5,110.8 759.3,98.7 760.1,80.8 761.0,113.1 761.8,98.5 762.6,77.9 763.5,107.2 764.3,88.2 765.1,78.5 765.9,105.7 766.8,79.5 767.6,111.3 768.4,95.7 769.2,75.4 770.1,105.5 770.9,79.3 771.7,109.6 772.6,89.3 773.4,103.8 774.2,95.3 775.0,83.7 775.8,98.3 776.6,73.8 777.5,98.3 778.3,74.2 779.1,100.9 779.9,74.1 780.7,98.2 781.5,74.0 782.4,98.4 783.2,84.7 784.0,94.3 784.8,105.1 785.6,89.2 786.5,106.4 787.3,80.8 788.1,98.0 788.9,90.6 789.7,89.1 790.5,106.3 791.3,73.7 792.2,89.8 793.0,107.9 793.8,75.5 794.6,89.6 795.4,106.2 796.2,77.7 797.0,88.9 797.8,99.1 798.6,110.8 799.5,74.9 L799.5,93.5 L438.5,93.5 Z" fill="url(#g610)" clip-path="url(#c612)"/>
  <path d="M438.5,98.7 438.5,98.7 471.8,103.6 491.3,108.1 505.1,111.5 515.8,113.3 524.6,112.5 532.0,109.6 538.4,106.9 544.1,106.1 549.1,106.8 553.7,107.7 557.9,107.6 561.7,105.4 565.3,101.5 568.6,98.5 571.7,97.7 574.6,98.2 577.3,98.8 579.9,98.2 582.4,95.4 584.7,91.4 587.0,88.8 589.1,88.2 591.2,88.8 593.1,89.3 595.0,88.4 596.8,85.4 598.6,81.5 600.2,79.4 601.9,79.3 603.4,80.2 605.0,80.9 606.5,80.1 607.9,77.3 609.3,74.4 610.6,73.8 611.9,75.6 613.2,79.1 614.5,83.6 615.7,88.5 616.9,93.7 618.0,98.9 619.2,103.8 620.3,108.2 621.3,111.6 622.4,113.3 623.4,112.4 624.4,109.5 625.4,106.8 626.4,106.1 627.4,106.9 628.3,107.7 629.2,107.5 630.1,105.2 631.0,101.3 631.8,98.5 632.7,97.7 633.5,98.2 634.4,98.8 635.2,98.1 636.7,91.3 638.3,88.2 639.7,89.3 641.2,85.2 642.6,79.3 643.9,80.3 645.2,80.0 646.5,74.3 647.8,75.7 649.0,83.7 650.2,93.9 651.3,104.0 652.4,111.7 653.6,112.4 654.6,106.7 655.7,106.9 656.7,107.5 657.7,101.2 658.7,97.7 659.7,98.8 660.6,95.1 661.6,88.6 662.5,88.9 663.4,88.2 664.3,81.3 665.1,79.4 666.0,80.9 666.8,77.0 667.6,73.8 668.4,79.4 669.6,94.1 670.8,108.5 671.9,112.3 673.0,106.1 674.1,107.4 675.2,98.3 676.2,98.8 677.2,91.0 678.2,88.9 679.2,84.9 680.1,79.4 681.0,79.8 682.0,73.9 682.9,84.1 683.7,99.5 684.6,111.9 685.5,109.1 686.3,107.0 687.1,104.8 687.9,97.7 689.0,94.8 690.0,88.9 691.0,81.0 692.0,80.9 693.0,73.9 693.9,89.3 694.9,108.8 695.8,108.9 696.7,107.8 697.6,98.2 698.4,97.8 699.3,88.3 700.1,84.6 700.9,80.4 701.7,74.0 702.7,89.5 703.7,112.1 704.6,106.2 705.6,100.6 706.5,97.7 707.4,89.0 708.3,79.2 709.1,76.5 710.0,84.7 710.8,109.1 711.6,106.5 712.4,104.3 713.4,97.6 714.3,89.2 715.2,80.5 716.1,76.5 717.0,105.1 717.9,106.4 718.7,100.3 719.6,94.2 720.4,87.6 721.2,80.8 722.1,85.1 723.0,113.3 723.9,107.1 724.8,97.4 725.7,87.5 726.5,79.2 727.3,90.4 728.1,111.5 728.9,103.9 729.8,90.1 730.7,79.1 731.6,76.9 732.4,112.5 733.3,106.9 734.1,93.7 734.9,80.3 735.8,77.0 736.7,113.3 737.5,99.8 738.4,88.4 739.2,80.7 740.0,96.2 740.8,106.4 741.7,97.0 742.6,79.1 743.4,86.1 744.3,106.2 745.1,98.7 745.9,80.0 746.8,86.3 747.6,106.4 748.5,93.0 749.3,80.7 750.1,101.9 751.0,102.9 751.8,89.0 752.7,77.7 753.5,106.1 754.3,92.7 755.1,78.3 756.0,113.0 756.8,98.5 757.6,80.8 758.5,110.8 759.3,98.7 760.1,80.8 761.0,113.1 761.8,98.5 762.6,77.9 763.5,107.2 764.3,88.2 765.1,78.5 765.9,105.7 766.8,79.5 767.6,111.3 768.4,95.7 769.2,75.4 770.1,105.5 770.9,79.3 771.7,109.6 772.6,89.3 773.4,103.8 774.2,95.3 775.0,83.7 775.8,98.3 776.6,73.8 777.5,98.3 778.3,74.2 779.1,100.9 779.9,74.1 780.7,98.2 781.5,74.0 782.4,98.4 783.2,84.7 784.0,94.3 784.8,105.1 785.6,89.2 786.5,106.4 787.3,80.8 788.1,98.0 788.9,90.6 789.7,89.1 790.5,106.3 791.3,73.7 792.2,89.8 793.0,107.9 793.8,75.5 794.6,89.6 795.4,106.2 796.2,77.7 797.0,88.9 797.8,99.1 798.6,110.8 799.5,74.9 L799.5,93.5 L438.5,93.5 Z" fill="url(#g611)" clip-path="url(#c613)"/>
  <defs><clipPath id="pc614"><rect x="435" y="16" width="365" height="155"/></clipPath></defs>
  <polyline points="438.5,98.7 471.8,103.6 491.3,108.1 505.1,111.5 515.8,113.3 524.6,112.5 532.0,109.6 538.4,106.9 544.1,106.1 549.1,106.8 553.7,107.7 557.9,107.6 561.7,105.4 565.3,101.5 568.6,98.5 571.7,97.7 574.6,98.2 577.3,98.8 579.9,98.2 582.4,95.4 584.7,91.4 587.0,88.8 589.1,88.2 591.2,88.8 593.1,89.3 595.0,88.4 596.8,85.4 598.6,81.5 600.2,79.4 601.9,79.3 603.4,80.2 605.0,80.9 606.5,80.1 607.9,77.3 609.3,74.4 610.6,73.8 611.9,75.6 613.2,79.1 614.5,83.6 615.7,88.5 616.9,93.7 618.0,98.9 619.2,103.8 620.3,108.2 621.3,111.6 622.4,113.3 623.4,112.4 624.4,109.5 625.4,106.8 626.4,106.1 627.4,106.9 628.3,107.7 629.2,107.5 630.1,105.2 631.0,101.3 631.8,98.5 632.7,97.7 633.5,98.2 634.4,98.8 635.2,98.1 636.7,91.3 638.3,88.2 639.7,89.3 641.2,85.2 642.6,79.3 643.9,80.3 645.2,80.0 646.5,74.3 647.8,75.7 649.0,83.7 650.2,93.9 651.3,104.0 652.4,111.7 653.6,112.4 654.6,106.7 655.7,106.9 656.7,107.5 657.7,101.2 658.7,97.7 659.7,98.8 660.6,95.1 661.6,88.6 662.5,88.9 663.4,88.2 664.3,81.3 665.1,79.4 666.0,80.9 666.8,77.0 667.6,73.8 668.4,79.4 669.6,94.1 670.8,108.5 671.9,112.3 673.0,106.1 674.1,107.4 675.2,98.3 676.2,98.8 677.2,91.0 678.2,88.9 679.2,84.9 680.1,79.4 681.0,79.8 682.0,73.9 682.9,84.1 683.7,99.5 684.6,111.9 685.5,109.1 686.3,107.0 687.1,104.8 687.9,97.7 689.0,94.8 690.0,88.9 691.0,81.0 692.0,80.9 693.0,73.9 693.9,89.3 694.9,108.8 695.8,108.9 696.7,107.8 697.6,98.2 698.4,97.8 699.3,88.3 700.1,84.6 700.9,80.4 701.7,74.0 702.7,89.5 703.7,112.1 704.6,106.2 705.6,100.6 706.5,97.7 707.4,89.0 708.3,79.2 709.1,76.5 710.0,84.7 710.8,109.1 711.6,106.5 712.4,104.3 713.4,97.6 714.3,89.2 715.2,80.5 716.1,76.5 717.0,105.1 717.9,106.4 718.7,100.3 719.6,94.2 720.4,87.6 721.2,80.8 722.1,85.1 723.0,113.3 723.9,107.1 724.8,97.4 725.7,87.5 726.5,79.2 727.3,90.4 728.1,111.5 728.9,103.9 729.8,90.1 730.7,79.1 731.6,76.9 732.4,112.5 733.3,106.9 734.1,93.7 734.9,80.3 735.8,77.0 736.7,113.3 737.5,99.8 738.4,88.4 739.2,80.7 740.0,96.2 740.8,106.4 741.7,97.0 742.6,79.1 743.4,86.1 744.3,106.2 745.1,98.7 745.9,80.0 746.8,86.3 747.6,106.4 748.5,93.0 749.3,80.7 750.1,101.9 751.0,102.9 751.8,89.0 752.7,77.7 753.5,106.1 754.3,92.7 755.1,78.3 756.0,113.0 756.8,98.5 757.6,80.8 758.5,110.8 759.3,98.7 760.1,80.8 761.0,113.1 761.8,98.5 762.6,77.9 763.5,107.2 764.3,88.2 765.1,78.5 765.9,105.7 766.8,79.5 767.6,111.3 768.4,95.7 769.2,75.4 770.1,105.5 770.9,79.3 771.7,109.6 772.6,89.3 773.4,103.8 774.2,95.3 775.0,83.7 775.8,98.3 776.6,73.8 777.5,98.3 778.3,74.2 779.1,100.9 779.9,74.1 780.7,98.2 781.5,74.0 782.4,98.4 783.2,84.7 784.0,94.3 784.8,105.1 785.6,89.2 786.5,106.4 787.3,80.8 788.1,98.0 788.9,90.6 789.7,89.1 790.5,106.3 791.3,73.7 792.2,89.8 793.0,107.9 793.8,75.5 794.6,89.6 795.4,106.2 796.2,77.7 797.0,88.9 797.8,99.1 798.6,110.8 799.5,74.9" fill="none" stroke="#e74c3c" stroke-width="1.5" stroke-linejoin="round" clip-path="url(#pc614)"/>
  <line x1="34" y1="207" x2="34" y2="362" stroke="#d1d5db"/>
  <line x1="34" y1="284.5" x2="399" y2="284.5" stroke="#d1d5db"/>
  <text x="216.5" y="388" text-anchor="middle" font-size="9" fill="#6b7280">Hz</text>
  <text x="12" y="284.5" text-anchor="middle" font-size="9" fill="#6b7280" transform="rotate(-90 12 284.5)">Group delay</text>
  <line x1="67.3" y1="207" x2="67.3" y2="362" stroke="#e5e7eb" stroke-width="0.5"/>
  <line x1="86.8" y1="207" x2="86.8" y2="362" stroke="#e5e7eb" stroke-width="0.5"/>
  <line x1="100.6" y1="207" x2="100.6" y2="362" stroke="#e5e7eb" stroke-width="0.5"/>
  <line x1="111.3" y1="207" x2="111.3" y2="362" stroke="#e5e7eb" stroke-width="0.5"/>
  <line x1="120.0" y1="207" x2="120.0" y2="362" stroke="#e5e7eb" stroke-width="0.5"/>
  <line x1="127.4" y1="207" x2="127.4" y2="362" stroke="#e5e7eb" stroke-width="0.5"/>
  <line x1="133.9" y1="207" x2="133.9" y2="362" stroke="#e5e7eb" stroke-width="0.5"/>
  <line x1="139.5" y1="207" x2="139.5" y2="362" stroke="#e5e7eb" stroke-width="0.5"/>
  <line x1="177.9" y1="207" x2="177.9" y2="362" stroke="#e5e7eb" stroke-width="0.5"/>
  <line x1="197.3" y1="207" x2="197.3" y2="362" stroke="#e5e7eb" stroke-width="0.5"/>
  <line x1="211.1" y1="207" x2="211.1" y2="362" stroke="#e5e7eb" stroke-width="0.5"/>
  <line x1="221.9" y1="207" x2="221.9" y2="362" stroke="#e5e7eb" stroke-width="0.5"/>
  <line x1="230.6" y1="207" x2="230.6" y2="362" stroke="#e5e7eb" stroke-width="0.5"/>
  <line x1="238.0" y1="207" x2="238.0" y2="362" stroke="#e5e7eb" stroke-width="0.5"/>
  <line x1="244.4" y1="207" x2="244.4" y2="362" stroke="#e5e7eb" stroke-width="0.5"/>
  <line x1="250.1" y1="207" x2="250.1" y2="362" stroke="#e5e7eb" stroke-width="0.5"/>
  <line x1="288.4" y1="207" x2="288.4" y2="362" stroke="#e5e7eb" stroke-width="0.5"/>
  <line x1="307.9" y1="207" x2="307.9" y2="362" stroke="#e5e7eb" stroke-width="0.5"/>
  <line x1="321.7" y1="207" x2="321.7" y2="362" stroke="#e5e7eb" stroke-width="0.5"/>
  <line x1="332.4" y1="207" x2="332.4" y2="362" stroke="#e5e7eb" stroke-width="0.5"/>
  <line x1="341.2" y1="207" x2="341.2" y2="362" stroke="#e5e7eb" stroke-width="0.5"/>
  <line x1="348.6" y1="207" x2="348.6" y2="362" stroke="#e5e7eb" stroke-width="0.5"/>
  <line x1="355.0" y1="207" x2="355.0" y2="362" stroke="#e5e7eb" stroke-width="0.5"/>
  <line x1="360.7" y1="207" x2="360.7" y2="362" stroke="#e5e7eb" stroke-width="0.5"/>
  <line x1="399.0" y1="207" x2="399.0" y2="362" stroke="#e5e7eb" stroke-width="0.5"/>
  <line x1="144.6" y1="207" x2="144.6" y2="362" stroke="#e5e7eb" stroke-width="0.5"/>
  <text x="144.6" y="374" text-anchor="middle" font-size="8" fill="#6b7280">100</text>
  <line x1="255.1" y1="207" x2="255.1" y2="362" stroke="#e5e7eb" stroke-width="0.5"/>
  <text x="255.1" y="374" text-anchor="middle" font-size="8" fill="#6b7280">1k</text>
  <line x1="365.7" y1="207" x2="365.7" y2="362" stroke="#e5e7eb" stroke-width="0.5"/>
  <text x="365.7" y="374" text-anchor="middle" font-size="8" fill="#6b7280">10k</text>
  <line x1="34" y1="323.7" x2="399" y2="323.7" stroke="#e5e7eb" stroke-width="0.5"/>
  <text x="30" y="326.7" text-anchor="end" font-size="8" fill="#6b7280">-100</text>
  <text x="30" y="287.5" text-anchor="end" font-size="8" fill="#6b7280">0</text>
  <line x1="34" y1="245.3" x2="399" y2="245.3" stroke="#e5e7eb" stroke-width="0.5"/>
  <text x="30" y="248.3" text-anchor="end" font-size="8" fill="#6b7280">100</text>
  <defs><linearGradient id="g615" x1="0" y1="207" x2="0" y2="284.5" gradientUnits="userSpaceOnUse">
    <stop offset="0%" stop-color="#2ecc71" stop-opacity="0.15"/>
    <stop offset="100%" stop-color="#2ecc71" stop-opacity="0.02"/>
  </linearGradient></defs>
  <defs><linearGradient id="g616" x1="0" y1="362" x2="0" y2="284.5" gradientUnits="userSpaceOnUse">
    <stop offset="0%" stop-color="#2ecc71" stop-opacity="0.15"/>
    <stop offset="100%" stop-color="#2ecc71" stop-opacity="0.02"/>
  </linearGradient></defs>
  <defs><clipPath id="c617"><rect x="34" y="207" width="365" height="77.5"/></clipPath></defs>
  <defs><clipPath id="c618"><rect x="34" y="284.5" width="365" height="77.5"/></clipPath></defs>
  <path d="M37.5,226.2 37.5,226.2 70.8,230.6 90.3,239.3 104.1,254.6 114.8,278.6 123.6,305.6 131.0,317.0 137.4,304.4 143.1,284.8 148.1,275.3 152.7,280.0 156.9,298.2 160.7,319.5 164.3,323.7 167.6,306.3 170.7,286.3 173.6,278.1 176.3,284.7 178.9,303.9 181.4,323.3 183.7,322.8 186.0,303.0 188.1,284.1 190.2,278.2 192.1,286.9 194.0,307.2 195.8,324.0 197.6,318.9 199.2,297.3 200.9,279.6 202.4,275.4 204.0,285.5 205.5,305.2 206.9,317.1 208.3,304.7 209.6,277.5 210.9,253.8 212.2,238.9 213.5,230.4 214.7,226.1 215.9,224.9 217.0,226.3 218.2,230.9 219.3,239.8 220.3,255.4 221.4,279.7 222.4,306.5 223.4,316.9 224.4,303.6 225.4,284.2 226.4,275.2 227.3,280.5 228.2,299.1 229.1,320.2 230.0,323.4 230.8,305.4 231.7,285.7 232.5,278.1 233.4,285.2 234.2,304.8 235.7,322.3 237.3,283.6 238.7,287.6 240.2,324.3 241.6,296.4 242.9,275.5 244.2,306.0 245.5,303.7 246.8,253.1 248.0,230.1 249.2,224.9 250.3,231.1 251.4,256.2 252.6,307.4 253.6,302.8 254.7,275.1 255.7,300.0 256.7,323.0 257.7,285.1 258.7,285.8 259.6,324.2 260.6,301.2 261.5,278.4 262.4,309.0 263.3,317.5 264.1,278.7 265.0,286.9 265.8,317.0 266.6,275.3 267.4,238.0 268.6,224.9 269.8,240.7 270.9,308.2 272.0,283.0 273.1,300.9 274.2,303.6 275.2,286.4 276.2,321.1 277.2,278.5 278.2,324.8 279.1,278.3 280.0,307.5 281.0,274.2 281.9,229.7 282.7,226.7 283.6,257.8 284.5,316.4 285.3,275.0 286.1,321.8 286.9,284.0 288.0,324.9 289.0,278.6 290.0,316.0 291.0,288.3 292.0,273.1 292.9,225.7 293.9,241.7 294.8,316.2 295.7,282.7 296.6,301.8 297.4,308.5 298.3,281.8 299.1,325.0 299.9,276.3 300.7,299.7 301.7,225.7 302.7,259.6 303.6,281.3 304.6,321.0 305.5,309.4 306.4,279.0 307.3,292.0 308.1,316.4 309.0,229.0 309.8,242.8 310.6,298.7 311.4,323.2 312.4,310.3 313.3,291.8 314.2,276.8 315.1,248.8 316.0,232.8 316.9,297.8 317.7,319.8 318.6,325.9 319.4,314.1 320.2,291.3 321.1,228.6 322.0,288.7 322.9,306.5 323.8,312.0 324.7,314.9 325.5,311.6 326.3,225.4 327.1,313.1 327.9,324.2 328.8,316.2 329.7,288.8 330.6,246.9 331.4,264.1 332.3,308.3 333.1,326.2 333.9,310.1 334.8,246.3 335.7,292.1 336.5,317.2 337.4,279.5 338.2,294.5 339.0,225.2 339.8,278.1 340.7,315.4 341.6,286.6 342.4,227.7 343.3,292.9 344.1,294.3 344.9,307.4 345.8,227.6 346.6,277.4 347.5,326.1 348.3,279.8 349.1,228.6 350.0,325.1 350.8,299.2 351.7,243.3 352.5,290.5 353.3,325.7 354.1,315.5 355.0,298.7 355.8,297.7 356.6,281.3 357.5,250.2 358.3,281.8 359.1,281.9 360.0,273.1 360.8,299.4 361.6,316.4 362.5,307.5 363.3,286.4 364.1,240.7 364.9,317.5 365.8,300.0 366.6,253.1 367.4,322.3 368.2,255.4 369.1,318.9 369.9,280.0 370.7,317.0 371.6,286.9 372.4,230.9 373.2,323.8 374.0,230.1 374.8,278.1 375.6,275.3 376.5,303.6 377.3,301.8 378.1,322.1 378.9,300.8 379.7,301.8 380.5,272.1 381.4,278.4 382.2,229.0 383.0,325.7 383.8,232.8 384.6,292.6 385.5,297.0 386.3,292.1 387.1,297.5 387.9,225.3 388.7,280.3 389.5,278.5 390.3,292.1 391.2,313.7 392.0,312.2 392.8,313.1 393.6,312.0 394.4,291.3 395.2,243.3 396.0,300.1 396.8,312.4 397.6,250.2 398.5,309.8 L398.5,284.5 L37.5,284.5 Z" fill="url(#g615)" clip-path="url(#c617)"/>
  <path d="M37.5,226.2 37.5,226.2 70.8,230.6 90.3,239.3 104.1,254.6 114.8,278.6 123.6,305.6 131.0,317.0 137.4,304.4 143.1,284.8 148.1,275.3 152.7,280.0 156.9,298.2 160.7,319.5 164.3,323.7 167.6,306.3 170.7,286.3 173.6,278.1 176.3,284.7 178.9,303.9 181.4,323.3 183.7,322.8 186.0,303.0 188.1,284.1 190.2,278.2 192.1,286.9 194.0,307.2 195.8,324.0 197.6,318.9 199.2,297.3 200.9,279.6 202.4,275.4 204.0,285.5 205.5,305.2 206.9,317.1 208.3,304.7 209.6,277.5 210.9,253.8 212.2,238.9 213.5,230.4 214.7,226.1 215.9,224.9 217.0,226.3 218.2,230.9 219.3,239.8 220.3,255.4 221.4,279.7 222.4,306.5 223.4,316.9 224.4,303.6 225.4,284.2 226.4,275.2 227.3,280.5 228.2,299.1 229.1,320.2 230.0,323.4 230.8,305.4 231.7,285.7 232.5,278.1 233.4,285.2 234.2,304.8 235.7,322.3 237.3,283.6 238.7,287.6 240.2,324.3 241.6,296.4 242.9,275.5 244.2,306.0 245.5,303.7 246.8,253.1 248.0,230.1 249.2,224.9 250.3,231.1 251.4,256.2 252.6,307.4 253.6,302.8 254.7,275.1 255.7,300.0 256.7,323.0 257.7,285.1 258.7,285.8 259.6,324.2 260.6,301.2 261.5,278.4 262.4,309.0 263.3,317.5 264.1,278.7 265.0,286.9 265.8,317.0 266.6,275.3 267.4,238.0 268.6,224.9 269.8,240.7 270.9,308.2 272.0,283.0 273.1,300.9 274.2,303.6 275.2,286.4 276.2,321.1 277.2,278.5 278.2,324.8 279.1,278.3 280.0,307.5 281.0,274.2 281.9,229.7 282.7,226.7 283.6,257.8 284.5,316.4 285.3,275.0 286.1,321.8 286.9,284.0 288.0,324.9 289.0,278.6 290.0,316.0 291.0,288.3 292.0,273.1 292.9,225.7 293.9,241.7 294.8,316.2 295.7,282.7 296.6,301.8 297.4,308.5 298.3,281.8 299.1,325.0 299.9,276.3 300.7,299.7 301.7,225.7 302.7,259.6 303.6,281.3 304.6,321.0 305.5,309.4 306.4,279.0 307.3,292.0 308.1,316.4 309.0,229.0 309.8,242.8 310.6,298.7 311.4,323.2 312.4,310.3 313.3,291.8 314.2,276.8 315.1,248.8 316.0,232.8 316.9,297.8 317.7,319.8 318.6,325.9 319.4,314.1 320.2,291.3 321.1,228.6 322.0,288.7 322.9,306.5 323.8,312.0 324.7,314.9 325.5,311.6 326.3,225.4 327.1,313.1 327.9,324.2 328.8,316.2 329.7,288.8 330.6,246.9 331.4,264.1 332.3,308.3 333.1,326.2 333.9,310.1 334.8,246.3 335.7,292.1 336.5,317.2 337.4,279.5 338.2,294.5 339.0,225.2 339.8,278.1 340.7,315.4 341.6,286.6 342.4,227.7 343.3,292.9 344.1,294.3 344.9,307.4 345.8,227.6 346.6,277.4 347.5,326.1 348.3,279.8 349.1,228.6 350.0,325.1 350.8,299.2 351.7,243.3 352.5,290.5 353.3,325.7 354.1,315.5 355.0,298.7 355.8,297.7 356.6,281.3 357.5,250.2 358.3,281.8 359.1,281.9 360.0,273.1 360.8,299.4 361.6,316.4 362.5,307.5 363.3,286.4 364.1,240.7 364.9,317.5 365.8,300.0 366.6,253.1 367.4,322.3 368.2,255.4 369.1,318.9 369.9,280.0 370.7,317.0 371.6,286.9 372.4,230.9 373.2,323.8 374.0,230.1 374.8,278.1 375.6,275.3 376.5,303.6 377.3,301.8 378.1,322.1 378.9,300.8 379.7,301.8 380.5,272.1 381.4,278.4 382.2,229.0 383.0,325.7 383.8,232.8 384.6,292.6 385.5,297.0 386.3,292.1 387.1,297.5 387.9,225.3 388.7,280.3 389.5,278.5 390.3,292.1 391.2,313.7 392.0,312.2 392.8,313.1 393.6,312.0 394.4,291.3 395.2,243.3 396.0,300.1 396.8,312.4 397.6,250.2 398.5,309.8 L398.5,284.5 L37.5,284.5 Z" fill="url(#g616)" clip-path="url(#c618)"/>
  <defs><clipPath id="pc619"><rect x="34" y="207" width="365" height="155"/></clipPath></defs>
  <polyline points="37.5,226.2 70.8,230.6 90.3,239.3 104.1,254.6 114.8,278.6 123.6,305.6 131.0,317.0 137.4,304.4 143.1,284.8 148.1,275.3 152.7,280.0 156.9,298.2 160.7,319.5 164.3,323.7 167.6,306.3 170.7,286.3 173.6,278.1 176.3,284.7 178.9,303.9 181.4,323.3 183.7,322.8 186.0,303.0 188.1,284.1 190.2,278.2 192.1,286.9 194.0,307.2 195.8,324.0 197.6,318.9 199.2,297.3 200.9,279.6 202.4,275.4 204.0,285.5 205.5,305.2 206.9,317.1 208.3,304.7 209.6,277.5 210.9,253.8 212.2,238.9 213.5,230.4 214.7,226.1 215.9,224.9 217.0,226.3 218.2,230.9 219.3,239.8 220.3,255.4 221.4,279.7 222.4,306.5 223.4,316.9 224.4,303.6 225.4,284.2 226.4,275.2 227.3,280.5 228.2,299.1 229.1,320.2 230.0,323.4 230.8,305.4 231.7,285.7 232.5,278.1 233.4,285.2 234.2,304.8 235.7,322.3 237.3,283.6 238.7,287.6 240.2,324.3 241.6,296.4 242.9,275.5 244.2,306.0 245.5,303.7 246.8,253.1 248.0,230.1 249.2,224.9 250.3,231.1 251.4,256.2 252.6,307.4 253.6,302.8 254.7,275.1 255.7,300.0 256.7,323.0 257.7,285.1 258.7,285.8 259.6,324.2 260.6,301.2 261.5,278.4 262.4,309.0 263.3,317.5 264.1,278.7 265.0,286.9 265.8,317.0 266.6,275.3 267.4,238.0 268.6,224.9 269.8,240.7 270.9,308.2 272.0,283.0 273.1,300.9 274.2,303.6 275.2,286.4 276.2,321.1 277.2,278.5 278.2,324.8 279.1,278.3 280.0,307.5 281.0,274.2 281.9,229.7 282.7,226.7 283.6,257.8 284.5,316.4 285.3,275.0 286.1,321.8 286.9,284.0 288.0,324.9 289.0,278.6 290.0,316.0 291.0,288.3 292.0,273.1 292.9,225.7 293.9,241.7 294.8,316.2 295.7,282.7 296.6,301.8 297.4,308.5 298.3,281.8 299.1,325.0 299.9,276.3 300.7,299.7 301.7,225.7 302.7,259.6 303.6,281.3 304.6,321.0 305.5,309.4 306.4,279.0 307.3,292.0 308.1,316.4 309.0,229.0 309.8,242.8 310.6,298.7 311.4,323.2 312.4,310.3 313.3,291.8 314.2,276.8 315.1,248.8 316.0,232.8 316.9,297.8 317.7,319.8 318.6,325.9 319.4,314.1 320.2,291.3 321.1,228.6 322.0,288.7 322.9,306.5 323.8,312.0 324.7,314.9 325.5,311.6 326.3,225.4 327.1,313.1 327.9,324.2 328.8,316.2 329.7,288.8 330.6,246.9 331.4,264.1 332.3,308.3 333.1,326.2 333.9,310.1 334.8,246.3 335.7,292.1 336.5,317.2 337.4,279.5 338.2,294.5 339.0,225.2 339.8,278.1 340.7,315.4 341.6,286.6 342.4,227.7 343.3,292.9 344.1,294.3 344.9,307.4 345.8,227.6 346.6,277.4 347.5,326.1 348.3,279.8 349.1,228.6 350.0,325.1 350.8,299.2 351.7,243.3 352.5,290.5 353.3,325.7 354.1,315.5 355.0,298.7 355.8,297.7 356.6,281.3 357.5,250.2 358.3,281.8 359.1,281.9 360.0,273.1 360.8,299.4 361.6,316.4 362.5,307.5 363.3,286.4 364.1,240.7 364.9,317.5 365.8,300.0 366.6,253.1 367.4,322.3 368.2,255.4 369.1,318.9 369.9,280.0 370.7,317.0 371.6,286.9 372.4,230.9 373.2,323.8 374.0,230.1 374.8,278.1 375.6,275.3 376.5,303.6 377.3,301.8 378.1,322.1 378.9,300.8 379.7,301.8 380.5,272.1 381.4,278.4 382.2,229.0 383.0,325.7 383.8,232.8 384.6,292.6 385.5,297.0 386.3,292.1 387.1,297.5 387.9,225.3 388.7,280.3 389.5,278.5 390.3,292.1 391.2,313.7 392.0,312.2 392.8,313.1 393.6,312.0 394.4,291.3 395.2,243.3 396.0,300.1 396.8,312.4 397.6,250.2 398.5,309.8" fill="none" stroke="#2ecc71" stroke-width="1.5" stroke-linejoin="round" clip-path="url(#pc619)"/>
  <line x1="435" y1="207" x2="435" y2="362" stroke="#d1d5db"/>
  <line x1="435" y1="284.5" x2="800" y2="284.5" stroke="#d1d5db"/>
  <text x="617.5" y="388" text-anchor="middle" font-size="9" fill="#6b7280">Samples</text>
  <text x="413" y="284.5" text-anchor="middle" font-size="9" fill="#6b7280" transform="rotate(-90 413 284.5)">Impulse response</text>
  <line x1="435.0" y1="207" x2="435.0" y2="362" stroke="#e5e7eb" stroke-width="0.5"/>
  <text x="435.0" y="374" text-anchor="middle" font-size="8" fill="#6b7280">0</text>
  <line x1="577.6" y1="207" x2="577.6" y2="362" stroke="#e5e7eb" stroke-width="0.5"/>
  <text x="577.6" y="374" text-anchor="middle" font-size="8" fill="#6b7280">200</text>
  <line x1="720.2" y1="207" x2="720.2" y2="362" stroke="#e5e7eb" stroke-width="0.5"/>
  <text x="720.2" y="374" text-anchor="middle" font-size="8" fill="#6b7280">400</text>
  <line x1="435" y1="338.8" x2="800" y2="338.8" stroke="#e5e7eb" stroke-width="0.5"/>
  <text x="431" y="341.8" text-anchor="end" font-size="8" fill="#6b7280">-0.7</text>
  <text x="431" y="287.5" text-anchor="end" font-size="8" fill="#6b7280">0</text>
  <line x1="435" y1="230.3" x2="800" y2="230.3" stroke="#e5e7eb" stroke-width="0.5"/>
  <text x="431" y="233.3" text-anchor="end" font-size="8" fill="#6b7280">0.7</text>
  <defs><linearGradient id="g620" x1="0" y1="207" x2="0" y2="284.5" gradientUnits="userSpaceOnUse">
    <stop offset="0%" stop-color="#f39c12" stop-opacity="0.15"/>
    <stop offset="100%" stop-color="#f39c12" stop-opacity="0.02"/>
  </linearGradient></defs>
  <path d="M435.0,207.0 435.0,207.0 436.4,284.5 437.9,284.5 439.3,284.5 440.7,284.5 442.1,284.5 443.6,284.5 445.0,284.5 446.4,284.5 447.8,284.5 449.3,284.5 450.7,284.5 452.1,284.5 453.5,284.5 455.0,284.5 456.4,284.5 457.8,284.5 459.2,284.5 460.7,284.5 462.1,284.5 463.5,284.5 464.9,284.5 466.4,284.5 467.8,284.5 469.2,284.5 470.6,284.5 472.1,284.5 473.5,284.5 474.9,284.5 476.3,284.5 477.8,284.5 479.2,284.5 480.6,284.5 482.1,284.5 483.5,284.5 484.9,284.5 486.3,284.5 487.8,284.5 489.2,284.5 490.6,284.5 492.0,284.5 493.5,284.5 494.9,284.5 496.3,284.5 497.7,284.5 499.2,284.5 500.6,284.5 502.0,284.5 503.4,284.5 504.9,284.5 506.3,230.3 507.7,284.5 509.1,284.5 510.6,284.5 512.0,284.5 513.4,284.5 514.8,284.5 516.3,284.5 517.7,284.5 519.1,284.5 520.5,284.5 522.0,284.5 523.4,284.5 524.8,284.5 526.3,284.5 527.7,284.5 529.1,284.5 530.5,284.5 532.0,284.5 533.4,284.5 534.8,284.5 536.2,284.5 537.7,284.5 539.1,284.5 540.5,284.5 541.9,284.5 543.4,284.5 544.8,284.5 546.2,284.5 547.6,284.5 549.1,284.5 550.5,284.5 551.9,284.5 553.3,284.5 554.8,284.5 556.2,284.5 557.6,284.5 559.0,284.5 560.5,284.5 561.9,284.5 563.3,284.5 564.7,284.5 566.2,284.5 567.6,284.5 569.0,284.5 570.4,284.5 571.9,284.5 573.3,284.5 574.7,284.5 576.2,284.5 577.6,246.5 579.0,284.5 580.4,284.5 581.9,284.5 583.3,284.5 584.7,284.5 586.1,284.5 587.6,284.5 589.0,284.5 590.4,284.5 591.8,284.5 593.3,284.5 594.7,284.5 596.1,284.5 597.5,284.5 599.0,284.5 600.4,284.5 601.8,284.5 603.2,284.5 604.7,284.5 606.1,284.5 607.5,284.5 608.9,284.5 610.4,284.5 611.8,284.5 613.2,284.5 614.6,284.5 616.1,284.5 617.5,284.5 618.9,284.5 620.4,284.5 621.8,284.5 623.2,284.5 624.6,284.5 626.1,284.5 627.5,284.5 628.9,284.5 630.3,284.5 631.8,284.5 633.2,284.5 634.6,284.5 636.0,284.5 637.5,284.5 638.9,284.5 640.3,284.5 641.7,284.5 643.2,284.5 644.6,284.5 646.0,284.5 647.4,284.5 648.9,257.9 650.3,284.5 651.7,284.5 653.1,284.5 654.6,284.5 656.0,284.5 657.4,284.5 658.8,284.5 660.3,284.5 661.7,284.5 663.1,284.5 664.6,284.5 666.0,284.5 667.4,284.5 668.8,284.5 670.3,284.5 671.7,284.5 673.1,284.5 674.5,284.5 676.0,284.5 677.4,284.5 678.8,284.5 680.2,284.5 681.7,284.5 683.1,284.5 684.5,284.5 685.9,284.5 687.4,284.5 688.8,284.5 690.2,284.5 691.6,284.5 693.1,284.5 694.5,284.5 695.9,284.5 697.3,284.5 698.8,284.5 700.2,284.5 701.6,284.5 703.0,284.5 704.5,284.5 705.9,284.5 707.3,284.5 708.8,284.5 710.2,284.5 711.6,284.5 713.0,284.5 714.5,284.5 715.9,284.5 717.3,284.5 718.7,284.5 720.2,265.9 721.6,284.5 723.0,284.5 724.4,284.5 725.9,284.5 727.3,284.5 728.7,284.5 730.1,284.5 731.6,284.5 733.0,284.5 734.4,284.5 735.8,284.5 737.3,284.5 738.7,284.5 740.1,284.5 741.5,284.5 743.0,284.5 744.4,284.5 745.8,284.5 747.2,284.5 748.7,284.5 750.1,284.5 751.5,284.5 752.9,284.5 754.4,284.5 755.8,284.5 757.2,284.5 758.7,284.5 760.1,284.5 761.5,284.5 762.9,284.5 764.4,284.5 765.8,284.5 767.2,284.5 768.6,284.5 770.1,284.5 771.5,284.5 772.9,284.5 774.3,284.5 775.8,284.5 777.2,284.5 778.6,284.5 780.0,284.5 781.5,284.5 782.9,284.5 784.3,284.5 785.7,284.5 787.2,284.5 788.6,284.5 790.0,284.5 791.4,271.5 792.9,284.5 794.3,284.5 795.7,284.5 797.1,284.5 798.6,284.5 799.3,284.5 L799.3,284.5 L435.0,284.5 Z" fill="url(#g620)"/>
  <defs><clipPath id="pc621"><rect x="435" y="207" width="365" height="155"/></clipPath></defs>
  <polyline points="435.0,207.0 436.4,284.5 437.9,284.5 439.3,284.5 440.7,284.5 442.1,284.5 443.6,284.5 445.0,284.5 446.4,284.5 447.8,284.5 449.3,284.5 450.7,284.5 452.1,284.5 453.5,284.5 455.0,284.5 456.4,284.5 457.8,284.5 459.2,284.5 460.7,284.5 462.1,284.5 463.5,284.5 464.9,284.5 466.4,284.5 467.8,284.5 469.2,284.5 470.6,284.5 472.1,284.5 473.5,284.5 474.9,284.5 476.3,284.5 477.8,284.5 479.2,284.5 480.6,284.5 482.1,284.5 483.5,284.5 484.9,284.5 486.3,284.5 487.8,284.5 489.2,284.5 490.6,284.5 492.0,284.5 493.5,284.5 494.9,284.5 496.3,284.5 497.7,284.5 499.2,284.5 500.6,284.5 502.0,284.5 503.4,284.5 504.9,284.5 506.3,230.3 507.7,284.5 509.1,284.5 510.6,284.5 512.0,284.5 513.4,284.5 514.8,284.5 516.3,284.5 517.7,284.5 519.1,284.5 520.5,284.5 522.0,284.5 523.4,284.5 524.8,284.5 526.3,284.5 527.7,284.5 529.1,284.5 530.5,284.5 532.0,284.5 533.4,284.5 534.8,284.5 536.2,284.5 537.7,284.5 539.1,284.5 540.5,284.5 541.9,284.5 543.4,284.5 544.8,284.5 546.2,284.5 547.6,284.5 549.1,284.5 550.5,284.5 551.9,284.5 553.3,284.5 554.8,284.5 556.2,284.5 557.6,284.5 559.0,284.5 560.5,284.5 561.9,284.5 563.3,284.5 564.7,284.5 566.2,284.5 567.6,284.5 569.0,284.5 570.4,284.5 571.9,284.5 573.3,284.5 574.7,284.5 576.2,284.5 577.6,246.5 579.0,284.5 580.4,284.5 581.9,284.5 583.3,284.5 584.7,284.5 586.1,284.5 587.6,284.5 589.0,284.5 590.4,284.5 591.8,284.5 593.3,284.5 594.7,284.5 596.1,284.5 597.5,284.5 599.0,284.5 600.4,284.5 601.8,284.5 603.2,284.5 604.7,284.5 606.1,284.5 607.5,284.5 608.9,284.5 610.4,284.5 611.8,284.5 613.2,284.5 614.6,284.5 616.1,284.5 617.5,284.5 618.9,284.5 620.4,284.5 621.8,284.5 623.2,284.5 624.6,284.5 626.1,284.5 627.5,284.5 628.9,284.5 630.3,284.5 631.8,284.5 633.2,284.5 634.6,284.5 636.0,284.5 637.5,284.5 638.9,284.5 640.3,284.5 641.7,284.5 643.2,284.5 644.6,284.5 646.0,284.5 647.4,284.5 648.9,257.9 650.3,284.5 651.7,284.5 653.1,284.5 654.6,284.5 656.0,284.5 657.4,284.5 658.8,284.5 660.3,284.5 661.7,284.5 663.1,284.5 664.6,284.5 666.0,284.5 667.4,284.5 668.8,284.5 670.3,284.5 671.7,284.5 673.1,284.5 674.5,284.5 676.0,284.5 677.4,284.5 678.8,284.5 680.2,284.5 681.7,284.5 683.1,284.5 684.5,284.5 685.9,284.5 687.4,284.5 688.8,284.5 690.2,284.5 691.6,284.5 693.1,284.5 694.5,284.5 695.9,284.5 697.3,284.5 698.8,284.5 700.2,284.5 701.6,284.5 703.0,284.5 704.5,284.5 705.9,284.5 707.3,284.5 708.8,284.5 710.2,284.5 711.6,284.5 713.0,284.5 714.5,284.5 715.9,284.5 717.3,284.5 718.7,284.5 720.2,265.9 721.6,284.5 723.0,284.5 724.4,284.5 725.9,284.5 727.3,284.5 728.7,284.5 730.1,284.5 731.6,284.5 733.0,284.5 734.4,284.5 735.8,284.5 737.3,284.5 738.7,284.5 740.1,284.5 741.5,284.5 743.0,284.5 744.4,284.5 745.8,284.5 747.2,284.5 748.7,284.5 750.1,284.5 751.5,284.5 752.9,284.5 754.4,284.5 755.8,284.5 757.2,284.5 758.7,284.5 760.1,284.5 761.5,284.5 762.9,284.5 764.4,284.5 765.8,284.5 767.2,284.5 768.6,284.5 770.1,284.5 771.5,284.5 772.9,284.5 774.3,284.5 775.8,284.5 777.2,284.5 778.6,284.5 780.0,284.5 781.5,284.5 782.9,284.5 784.3,284.5 785.7,284.5 787.2,284.5 788.6,284.5 790.0,284.5 791.4,271.5 792.9,284.5 794.3,284.5 795.7,284.5 797.1,284.5 798.6,284.5 799.3,284.5" fill="none" stroke="#f39c12" stroke-width="1.3" stroke-linejoin="round" clip-path="url(#pc621)"/>
</svg>
