<svg xmlns="http://www.w3.org/2000/svg" viewBox="0 0 820 392" style="font-family:system-ui,-apple-system,sans-serif">
  <text x="800" y="11" text-anchor="end" font-size="11" font-weight="600" fill="#6b7280">Decimate anti-alias filter, factor 4</text>
  <line x1="34" y1="16" x2="34" y2="171" stroke="#d1d5db"/>
  <line x1="34" y1="47.0" x2="392" y2="47.0" stroke="#d1d5db"/>
  <text x="213" y="197" text-anchor="middle" font-size="9" fill="#6b7280">Hz</text>
  <text x="12" y="93.5" text-anchor="middle" font-size="9" fill="#6b7280" transform="rotate(-90 12 93.5)">dB</text>
  <line x1="66.6" y1="16" x2="66.6" y2="171" stroke="#e5e7eb" stroke-width="0.5"/>
  <line x1="85.7" y1="16" x2="85.7" y2="171" stroke="#e5e7eb" stroke-width="0.5"/>
  <line x1="99.3" y1="16" x2="99.3" y2="171" stroke="#e5e7eb" stroke-width="0.5"/>
  <line x1="109.8" y1="16" x2="109.8" y2="171" stroke="#e5e7eb" stroke-width="0.5"/>
  <line x1="118.4" y1="16" x2="118.4" y2="171" stroke="#e5e7eb" stroke-width="0.5"/>
  <line x1="125.7" y1="16" x2="125.7" y2="171" stroke="#e5e7eb" stroke-width="0.5"/>
  <line x1="131.9" y1="16" x2="131.9" y2="171" stroke="#e5e7eb" stroke-width="0.5"/>
  <line x1="137.5" y1="16" x2="137.5" y2="171" stroke="#e5e7eb" stroke-width="0.5"/>
  <line x1="175.1" y1="16" x2="175.1" y2="171" stroke="#e5e7eb" stroke-width="0.5"/>
  <line x1="194.2" y1="16" x2="194.2" y2="171" stroke="#e5e7eb" stroke-width="0.5"/>
  <line x1="207.7" y1="16" x2="207.7" y2="171" stroke="#e5e7eb" stroke-width="0.5"/>
  <line x1="218.3" y1="16" x2="218.3" y2="171" stroke="#e5e7eb" stroke-width="0.5"/>
  <line x1="226.8" y1="16" x2="226.8" y2="171" stroke="#e5e7eb" stroke-width="0.5"/>
  <line x1="234.1" y1="16" x2="234.1" y2="171" stroke="#e5e7eb" stroke-width="0.5"/>
  <line x1="240.4" y1="16" x2="240.4" y2="171" stroke="#e5e7eb" stroke-width="0.5"/>
  <line x1="245.9" y1="16" x2="245.9" y2="171" stroke="#e5e7eb" stroke-width="0.5"/>
  <line x1="283.5" y1="16" x2="283.5" y2="171" stroke="#e5e7eb" stroke-width="0.5"/>
  <line x1="302.6" y1="16" x2="302.6" y2="171" stroke="#e5e7eb" stroke-width="0.5"/>
  <line x1="316.2" y1="16" x2="316.2" y2="171" stroke="#e5e7eb" stroke-width="0.5"/>
  <line x1="326.7" y1="16" x2="326.7" y2="171" stroke="#e5e7eb" stroke-width="0.5"/>
  <line x1="335.3" y1="16" x2="335.3" y2="171" stroke="#e5e7eb" stroke-width="0.5"/>
  <line x1="342.6" y1="16" x2="342.6" y2="171" stroke="#e5e7eb" stroke-width="0.5"/>
  <line x1="348.8" y1="16" x2="348.8" y2="171" stroke="#e5e7eb" stroke-width="0.5"/>
  <line x1="354.4" y1="16" x2="354.4" y2="171" stroke="#e5e7eb" stroke-width="0.5"/>
  <line x1="392.0" y1="16" x2="392.0" y2="171" stroke="#e5e7eb" stroke-width="0.5"/>
  <line x1="142.5" y1="16" x2="142.5" y2="171" stroke="#e5e7eb" stroke-width="0.5"/>
  <text x="142.5" y="183" text-anchor="middle" font-size="8" fill="#6b7280">100</text>
  <line x1="250.9" y1="16" x2="250.9" y2="171" stroke="#e5e7eb" stroke-width="0.5"/>
  <text x="250.9" y="183" text-anchor="middle" font-size="8" fill="#6b7280">1k</text>
  <line x1="359.4" y1="16" x2="359.4" y2="171" stroke="#e5e7eb" stroke-width="0.5"/>
  <text x="359.4" y="183" text-anchor="middle" font-size="8" fill="#6b7280">10k</text>
  <line x1="34" y1="31.5" x2="392" y2="31.5" stroke="#e5e7eb" stroke-width="0.5"/>
  <line x1="34" y1="62.5" x2="392" y2="62.5" stroke="#e5e7eb" stroke-width="0.5"/>
  <line x1="34" y1="16.0" x2="392" y2="16.0" stroke="#e5e7eb" stroke-width="0.5"/>
  <text x="30" y="19.0" text-anchor="end" font-size="8" fill="#6b7280">+20</text>
  <text x="30" y="50.0" text-anchor="end" font-size="8" fill="#6b7280">0</text>
  <line x1="34" y1="78.0" x2="392" y2="78.0" stroke="#e5e7eb" stroke-width="0.5"/>
  <text x="30" y="81.0" text-anchor="end" font-size="8" fill="#6b7280">-20</text>
  <line x1="34" y1="109.0" x2="392" y2="109.0" stroke="#e5e7eb" stroke-width="0.5"/>
  <text x="30" y="112.0" text-anchor="end" font-size="8" fill="#6b7280">-40</text>
  <line x1="34" y1="140.0" x2="392" y2="140.0" stroke="#e5e7eb" stroke-width="0.5"/>
  <text x="30" y="143.0" text-anchor="end" font-size="8" fill="#6b7280">-60</text>
  <line x1="34" y1="171.0" x2="392" y2="171.0" stroke="#e5e7eb" stroke-width="0.5"/>
  <text x="30" y="174.0" text-anchor="end" font-size="8" fill="#6b7280">-80</text>
  <defs><linearGradient id="g661" x1="0" y1="16" x2="0" y2="171" gradientUnits="userSpaceOnUse">
    <stop offset="0%" stop-color="#4a90d9" stop-opacity="0.15"/>
    <stop offset="100%" stop-color="#4a90d9" stop-opacity="0.02"/>
  </linearGradient></defs>
  <path d="M37.5,47.0 37.5,47.0 70.1,47.0 89.2,47.0 102.8,47.0 113.3,47.0 121.9,47.0 129.1,47.0 135.4,47.0 141.0,47.0 145.9,47.0 150.4,47.0 154.5,47.0 158.3,47.0 161.8,47.0 165.0,47.0 168.1,47.0 170.9,47.0 173.6,47.0 176.2,47.0 178.6,47.0 180.9,47.0 183.1,47.0 185.2,47.0 187.2,47.0 189.1,47.0 190.9,47.0 192.7,47.0 194.4,47.0 196.1,47.0 197.7,47.0 199.2,47.0 200.7,47.0 202.2,47.0 203.6,47.0 204.9,47.0 206.3,47.0 207.6,47.0 208.8,47.0 210.0,47.0 211.2,47.0 212.4,47.0 213.5,47.0 214.6,47.0 215.7,47.0 216.8,47.0 217.8,47.0 218.8,47.0 219.8,47.0 220.8,47.0 221.7,47.0 222.7,47.0 223.6,47.0 224.5,47.0 225.4,47.0 226.2,47.0 227.1,47.0 227.9,47.0 228.7,47.0 229.5,47.0 231.1,47.0 232.6,47.0 234.1,47.0 235.5,47.0 236.9,47.0 238.2,47.0 239.6,47.0 240.8,47.0 242.1,47.0 243.3,47.0 244.5,47.0 245.6,47.0 246.7,47.0 247.8,47.0 248.9,47.0 249.9,47.0 251.0,47.0 252.0,47.0 252.9,47.0 253.9,47.0 254.8,47.0 255.8,47.0 256.7,47.0 257.6,47.0 258.4,47.0 259.3,47.0 260.1,47.0 261.0,47.0 261.8,47.0 263.0,47.0 264.1,47.0 265.3,47.0 266.4,47.0 267.5,47.0 268.5,47.0 269.6,47.0 270.6,47.0 271.6,47.0 272.5,47.0 273.5,47.0 274.4,47.0 275.3,47.0 276.2,47.0 277.1,47.0 278.0,47.0 278.8,47.0 279.6,47.0 280.5,47.0 281.3,47.0 282.3,47.0 283.4,47.0 284.4,47.0 285.3,47.0 286.3,47.0 287.3,47.0 288.2,47.0 289.1,47.0 290.0,47.0 290.9,47.0 291.7,47.0 292.6,47.0 293.4,47.0 294.2,47.0 295.0,47.0 296.0,47.0 297.0,47.0 297.9,47.0 298.8,47.0 299.7,47.0 300.6,47.0 301.5,47.0 302.4,47.0 303.2,47.0 304.0,47.0 304.9,47.0 305.8,47.0 306.7,47.0 307.7,47.0 308.6,47.0 309.5,47.0 310.3,47.0 311.2,47.0 312.0,47.0 312.8,47.0 313.7,47.0 314.6,47.0 315.5,47.0 316.4,47.0 317.3,47.0 318.1,47.0 319.0,47.0 319.8,47.0 320.6,47.1 321.4,47.3 322.3,47.8 323.2,48.6 324.1,49.8 324.9,51.6 325.7,54.1 326.6,57.3 327.4,61.4 328.3,67.4 329.1,75.1 330.0,85.2 330.8,98.9 331.7,121.2 332.5,136.8 333.3,133.1 334.2,137.4 335.0,137.3 335.9,138.6 336.7,158.1 337.5,140.8 338.4,134.3 339.2,144.2 340.1,144.1 340.9,134.7 341.7,142.6 342.5,147.7 343.4,135.8 344.2,146.0 345.1,144.1 345.9,137.2 346.7,154.0 347.6,141.1 348.4,140.5 349.2,161.2 350.0,139.4 350.9,151.1 351.7,143.7 352.6,142.9 353.4,156.0 354.2,141.3 355.1,171.0 355.9,142.2 356.7,155.9 357.6,144.0 358.4,152.0 359.2,146.0 360.0,149.6 360.9,147.4 361.7,150.6 362.5,147.8 363.3,153.3 364.2,146.6 365.0,159.6 365.8,146.2 366.6,171.0 367.4,146.4 368.3,161.5 369.1,149.6 369.9,150.2 370.7,161.0 371.5,147.5 372.4,160.6 373.2,152.5 374.0,148.9 374.8,171.0 375.6,152.5 376.4,149.4 377.2,166.1 378.1,156.4 378.9,149.4 379.7,154.3 380.5,171.0 381.3,153.8 382.1,150.1 383.0,154.2 383.8,171.0 384.6,162.5 385.4,153.3 386.2,150.8 387.0,151.9 387.9,156.3 388.7,164.1 389.5,171.0 390.3,171.0 391.1,161.7 391.9,158.2 L391.9,171.0 L37.5,171.0 Z" fill="url(#g661)"/>
  <defs><clipPath id="pc662"><rect x="34" y="16" width="358" height="155"/></clipPath></defs>
  <polyline points="37.5,47.0 70.1,47.0 89.2,47.0 102.8,47.0 113.3,47.0 121.9,47.0 129.1,47.0 135.4,47.0 141.0,47.0 145.9,47.0 150.4,47.0 154.5,47.0 158.3,47.0 161.8,47.0 165.0,47.0 168.1,47.0 170.9,47.0 173.6,47.0 176.2,47.0 178.6,47.0 180.9,47.0 183.1,47.0 185.2,47.0 187.2,47.0 189.1,47.0 190.9,47.0 192.7,47.0 194.4,47.0 196.1,47.0 197.7,47.0 199.2,47.0 200.7,47.0 202.2,47.0 203.6,47.0 204.9,47.0 206.3,47.0 207.6,47.0 208.8,47.0 210.0,47.0 211.2,47.0 212.4,47.0 213.5,47.0 214.6,47.0 215.7,47.0 216.8,47.0 217.8,47.0 218.8,47.0 219.8,47.0 220.8,47.0 221.7,47.0 222.7,47.0 223.6,47.0 224.5,47.0 225.4,47.0 226.2,47.0 227.1,47.0 227.9,47.0 228.7,47.0 229.5,47.0 231.1,47.0 232.6,47.0 234.1,47.0 235.5,47.0 236.9,47.0 238.2,47.0 239.6,47.0 240.8,47.0 242.1,47.0 243.3,47.0 244.5,47.0 245.6,47.0 246.7,47.0 247.8,47.0 248.9,47.0 249.9,47.0 251.0,47.0 252.0,47.0 252.9,47.0 253.9,47.0 254.8,47.0 255.8,47.0 256.7,47.0 257.6,47.0 258.4,47.0 259.3,47.0 260.1,47.0 261.0,47.0 261.8,47.0 263.0,47.0 264.1,47.0 265.3,47.0 266.4,47.0 267.5,47.0 268.5,47.0 269.6,47.0 270.6,47.0 271.6,47.0 272.5,47.0 273.5,47.0 274.4,47.0 275.3,47.0 276.2,47.0 277.1,47.0 278.0,47.0 278.8,47.0 279.6,47.0 280.5,47.0 281.3,47.0 282.3,47.0 283.4,47.0 284.4,47.0 285.3,47.0 286.3,47.0 287.3,47.0 288.2,47.0 289.1,47.0 290.0,47.0 290.9,47.0 291.7,47.0 292.6,47.0 293.4,47.0 294.2,47.0 295.0,47.0 296.0,47.0 297.0,47.0 297.9,47.0 298.8,47.0 299.7,47.0 300.6,47.0 301.5,47.0 302.4,47.0 303.2,47.0 304.0,47.0 304.9,47.0 305.8,47.0 306.7,47.0 307.7,47.0 308.6,47.0 309.5,47.0 310.3,47.0 311.2,47.0 312.0,47.0 312.8,47.0 313.7,47.0 314.6,47.0 315.5,47.0 316.4,47.0 317.3,47.0 318.1,47.0 319.0,47.0 319.8,47.0 320.6,47.1 321.4,47.3 322.3,47.8 323.2,48.6 324.1,49.8 324.9,51.6 325.7,54.1 326.6,57.3 327.4,61.4 328.3,67.4 329.1,75.1 330.0,85.2 330.8,98.9 331.7,121.2 332.5,136.8 333.3,133.1 334.2,137.4 335.0,137.3 335.9,138.6 336.7,158.1 337.5,140.8 338.4,134.3 339.2,144.2 340.1,144.1 340.9,134.7 341.7,142.6 342.5,147.7 343.4,135.8 344.2,146.0 345.1,144.1 345.9,137.2 346.7,154.0 347.6,141.1 348.4,140.5 349.2,161.2 350.0,139.4 350.9,151.1 351.7,143.7 352.6,142.9 353.4,156.0 354.2,141.3 355.1,193.9 355.9,142.2 356.7,155.9 357.6,144.0 358.4,152.0 359.2,146.0 360.0,149.6 360.9,147.4 361.7,150.6 362.5,147.8 363.3,153.3 364.2,146.6 365.0,159.6 365.8,146.2 366.6,184.7 367.4,146.4 368.3,161.5 369.1,149.6 369.9,150.2 370.7,161.0 371.5,147.5 372.4,160.6 373.2,152.5 374.0,148.9 374.8,173.6 375.6,152.5 376.4,149.4 377.2,166.1 378.1,156.4 378.9,149.4 379.7,154.3 380.5,196.3 381.3,153.8 382.1,150.1 383.0,154.2 383.8,171.6 384.6,162.5 385.4,153.3 386.2,150.8 387.0,151.9 387.9,156.3 388.7,164.1 389.5,195.7 390.3,171.6 391.1,161.7 391.9,158.2" fill="none" stroke="#4a90d9" stroke-width="1.5" stroke-linejoin="round" clip-path="url(#pc662)"/>
  <line x1="442" y1="16" x2="442" y2="171" stroke="#d1d5db"/>
  <line x1="442" y1="93.5" x2="800" y2="93.5" stroke="#d1d5db"/>
  <text x="621" y="197" text-anchor="middle" font-size="9" fill="#6b7280">Hz</text>
  <text x="420" y="93.5" text-anchor="middle" font-size="9" fill="#6b7280" transform="rotate(-90 420 93.5)">Phase (deg)</text>
  <line x1="474.6" y1="16" x2="474.6" y2="171" stroke="#e5e7eb" stroke-width="0.5"/>
  <line x1="493.7" y1="16" x2="493.7" y2="171" stroke="#e5e7eb" stroke-width="0.5"/>
  <line x1="507.3" y1="16" x2="507.3" y2="171" stroke="#e5e7eb" stroke-width="0.5"/>
  <line x1="517.8" y1="16" x2="517.8" y2="171" stroke="#e5e7eb" stroke-width="0.5"/>
  <line x1="526.4" y1="16" x2="526.4" y2="171" stroke="#e5e7eb" stroke-width="0.5"/>
  <line x1="533.7" y1="16" x2="533.7" y2="171" stroke="#e5e7eb" stroke-width="0.5"/>
  <line x1="539.9" y1="16" x2="539.9" y2="171" stroke="#e5e7eb" stroke-width="0.5"/>
  <line x1="545.5" y1="16" x2="545.5" y2="171" stroke="#e5e7eb" stroke-width="0.5"/>
  <line x1="583.1" y1="16" x2="583.1" y2="171" stroke="#e5e7eb" stroke-width="0.5"/>
  <line x1="602.2" y1="16" x2="602.2" y2="171" stroke="#e5e7eb" stroke-width="0.5"/>
  <line x1="615.7" y1="16" x2="615.7" y2="171" stroke="#e5e7eb" stroke-width="0.5"/>
  <line x1="626.3" y1="16" x2="626.3" y2="171" stroke="#e5e7eb" stroke-width="0.5"/>
  <line x1="634.8" y1="16" x2="634.8" y2="171" stroke="#e5e7eb" stroke-width="0.5"/>
  <line x1="642.1" y1="16" x2="642.1" y2="171" stroke="#e5e7eb" stroke-width="0.5"/>
  <line x1="648.4" y1="16" x2="648.4" y2="171" stroke="#e5e7eb" stroke-width="0.5"/>
  <line x1="653.9" y1="16" x2="653.9" y2="171" stroke="#e5e7eb" stroke-width="0.5"/>
  <line x1="691.5" y1="16" x2="691.5" y2="171" stroke="#e5e7eb" stroke-width="0.5"/>
  <line x1="710.6" y1="16" x2="710.6" y2="171" stroke="#e5e7eb" stroke-width="0.5"/>
  <line x1="724.2" y1="16" x2="724.2" y2="171" stroke="#e5e7eb" stroke-width="0.5"/>
  <line x1="734.7" y1="16" x2="734.7" y2="171" stroke="#e5e7eb" stroke-width="0.5"/>
  <line x1="743.3" y1="16" x2="743.3" y2="171" stroke="#e5e7eb" stroke-width="0.5"/>
  <line x1="750.6" y1="16" x2="750.6" y2="171" stroke="#e5e7eb" stroke-width="0.5"/>
  <line x1="756.8" y1="16" x2="756.8" y2="171" stroke="#e5e7eb" stroke-width="0.5"/>
  <line x1="762.4" y1="16" x2="762.4" y2="171" stroke="#e5e7eb" stroke-width="0.5"/>
  <line x1="800.0" y1="16" x2="800.0" y2="171" stroke="#e5e7eb" stroke-width="0.5"/>
  <line x1="550.5" y1="16" x2="550.5" y2="171" stroke="#e5e7eb" stroke-width="0.5"/>
  <text x="550.5" y="183" text-anchor="middle" font-size="8" fill="#6b7280">100</text>
  <line x1="658.9" y1="16" x2="658.9" y2="171" stroke="#e5e7eb" stroke-width="0.5"/>
  <text x="658.9" y="183" text-anchor="middle" font-size="8" fill="#6b7280">1k</text>
  <line x1="767.4" y1="16" x2="767.4" y2="171" stroke="#e5e7eb" stroke-width="0.5"/>
  <text x="767.4" y="183" text-anchor="middle" font-size="8" fill="#6b7280">10k</text>
  <line x1="442" y1="54.8" x2="800" y2="54.8" stroke="#e5e7eb" stroke-width="0.5"/>
  <line x1="442" y1="132.3" x2="800" y2="132.3" stroke="#e5e7eb" stroke-width="0.5"/>
  <line x1="442" y1="16.0" x2="800" y2="16.0" stroke="#e5e7eb" stroke-width="0.5"/>
  <text x="438" y="19.0" text-anchor="end" font-size="8" fill="#6b7280">180</text>
  <text x="438" y="96.5" text-anchor="end" font-size="8" fill="#6b7280">0</text>
  <line x1="442" y1="171.0" x2="800" y2="171.0" stroke="#e5e7eb" stroke-width="0.5"/>
  <text x="438" y="174.0" text-anchor="end" font-size="8" fill="#6b7280">-180</text>
  <defs><linearGradient id="g663" x1="0" y1="16" x2="0" y2="93.5" gradientUnits="userSpaceOnUse">
    <stop offset="0%" stop-color="#e74c3c" stop-opacity="0.15"/>
    <stop offset="100%" stop-color="#e74c3c" stop-opacity="0.02"/>
  </linearGradient></defs>
  <defs><linearGradient id="g664" x1="0" y1="171" x2="0" y2="93.5" gradientUnits="userSpaceOnUse">
    <stop offset="0%" stop-color="#e74c3c" stop-opacity="0.15"/>
    <stop offset="100%" stop-color="#e74c3c" stop-opacity="0.02"/>
  </linearGradient></defs>
  <defs><clipPath id="c665"><rect x="442" y="16" width="358" height="77.5"/></clipPath></defs>
  <defs><clipPath id="c666"><rect x="442" y="93.5" width="358" height="77.5"/></clipPath></defs>
  <path d="M445.5,95.8 445.5,95.8 478.1,98.0 497.2,100.3 510.8,102.6 521.3,104.9 529.9,107.1 537.1,109.4 543.4,111.7 549.0,113.9 553.9,116.2 558.4,118.5 562.5,120.7 566.3,123.0 569.8,125.3 573.0,127.6 576.1,129.8 578.9,132.1 581.6,134.4 584.2,136.6 586.6,138.9 588.9,141.2 591.1,143.5 593.2,145.7 595.2,148.0 597.1,150.3 598.9,152.5 600.7,154.8 602.4,157.1 604.1,159.3 605.7,161.6 607.2,163.9 608.7,166.2 610.2,168.4 611.6,170.7 612.9,18.0 614.3,20.2 615.6,22.5 616.8,24.8 618.0,27.0 619.2,29.3 620.4,31.6 621.5,33.9 622.6,36.1 623.7,38.4 624.8,40.7 625.8,42.9 626.8,45.2 627.8,47.5 628.8,49.8 629.7,52.0 630.7,54.3 631.6,56.6 632.5,58.8 633.4,61.1 634.2,63.4 635.1,65.6 635.9,67.9 636.7,70.2 637.5,72.5 639.1,77.0 640.6,81.5 642.1,86.1 643.5,90.6 644.9,95.2 646.2,99.7 647.6,104.2 648.8,108.8 650.1,113.3 651.3,117.9 652.5,122.4 653.6,127.0 654.7,131.5 655.8,136.0 656.9,140.6 657.9,145.1 659.0,149.7 660.0,154.2 660.9,158.7 661.9,163.3 662.8,167.8 663.8,17.4 664.7,21.9 665.6,26.4 666.4,31.0 667.3,35.5 668.1,40.1 669.0,44.6 669.8,49.1 671.0,56.0 672.1,62.8 673.3,69.6 674.4,76.4 675.5,83.2 676.5,90.0 677.6,96.8 678.6,103.6 679.6,110.5 680.5,117.3 681.5,124.1 682.4,130.9 683.3,137.7 684.2,144.5 685.1,151.3 686.0,158.1 686.8,164.9 687.6,16.8 688.5,23.6 689.3,30.4 690.3,39.5 691.4,48.5 692.4,57.6 693.3,66.7 694.3,75.8 695.3,84.9 696.2,94.0 697.1,103.0 698.0,112.1 698.9,121.2 699.7,130.3 700.6,139.4 701.4,148.4 702.2,157.5 703.0,166.6 704.0,23.0 705.0,34.3 705.9,45.7 706.8,57.0 707.7,68.4 708.6,79.7 709.5,91.1 710.4,102.4 711.2,113.8 712.0,125.1 712.9,136.5 713.8,150.1 714.7,163.7 715.7,22.4 716.6,36.0 717.5,49.6 718.3,63.2 719.2,76.8 720.0,90.5 720.8,104.1 721.7,117.7 722.6,133.6 723.5,149.5 724.4,165.4 725.3,26.3 726.1,42.2 727.0,58.1 727.8,74.0 728.6,89.9 729.4,105.8 730.3,123.9 731.2,142.1 732.1,160.3 732.9,23.4 733.7,41.6 734.6,59.7 735.4,77.9 736.3,98.3 737.1,118.8 738.0,139.2 738.8,159.6 739.7,25.1 740.5,123.0 741.3,143.5 742.2,166.2 743.0,33.9 743.9,56.6 744.7,79.3 745.5,24.5 746.4,49.5 747.2,74.4 748.1,21.9 748.9,46.9 749.7,71.9 750.5,19.3 751.4,46.6 752.2,73.8 753.1,23.6 753.9,50.8 754.7,78.1 755.6,30.1 756.4,59.6 757.2,166.6 758.0,41.1 758.9,72.9 759.7,27.2 760.6,59.0 761.4,168.3 762.2,47.3 763.1,81.4 763.9,37.9 764.7,72.0 765.6,30.8 766.4,67.2 767.2,26.0 768.0,62.3 768.9,23.4 769.7,62.0 770.5,23.1 771.3,64.0 772.2,27.4 773.0,68.2 773.8,31.6 774.6,74.7 775.4,40.4 776.3,161.0 777.1,51.4 777.9,19.3 778.7,64.7 779.5,34.9 780.4,160.1 781.2,52.8 782.0,25.2 782.8,152.7 783.6,49.9 784.4,24.6 785.2,154.3 786.1,53.8 786.9,30.8 787.7,165.1 788.5,66.9 789.3,46.1 790.1,27.7 791.0,164.2 791.8,148.0 792.6,54.3 793.4,40.4 794.2,26.4 795.0,169.8 795.9,158.1 796.7,148.7 797.5,139.4 798.3,54.8 799.1,47.6 799.9,42.8 L799.9,93.5 L445.5,93.5 Z" fill="url(#g663)" clip-path="url(#c665)"/>
  <path d="M445.5,95.8 445.5,95.8 478.1,98.0 497.2,100.3 510.8,102.6 521.3,104.9 529.9,107.1 537.1,109.4 543.4,111.7 549.0,113.9 553.9,116.2 558.4,118.5 562.5,120.7 566.3,123.0 569.8,125.3 573.0,127.6 576.1,129.8 578.9,132.1 581.6,134.4 584.2,136.6 586.6,138.9 588.9,141.2 591.1,143.5 593.2,145.7 595.2,148.0 597.1,150.3 598.9,152.5 600.7,154.8 602.4,157.1 604.1,159.3 605.7,161.6 607.2,163.9 608.7,166.2 610.2,168.4 611.6,170.7 612.9,18.0 614.3,20.2 615.6,22.5 616.8,24.8 618.0,27.0 619.2,29.3 620.4,31.6 621.5,33.9 622.6,36.1 623.7,38.4 624.8,40.7 625.8,42.9 626.8,45.2 627.8,47.5 628.8,49.8 629.7,52.0 630.7,54.3 631.6,56.6 632.5,58.8 633.4,61.1 634.2,63.4 635.1,65.6 635.9,67.9 636.7,70.2 637.5,72.5 639.1,77.0 640.6,81.5 642.1,86.1 643.5,90.6 644.9,95.2 646.2,99.7 647.6,104.2 648.8,108.8 650.1,113.3 651.3,117.9 652.5,122.4 653.6,127.0 654.7,131.5 655.8,136.0 656.9,140.6 657.9,145.1 659.0,149.7 660.0,154.2 660.9,158.7 661.9,163.3 662.8,167.8 663.8,17.4 664.7,21.9 665.6,26.4 666.4,31.0 667.3,35.5 668.1,40.1 669.0,44.6 669.8,49.1 671.0,56.0 672.1,62.8 673.3,69.6 674.4,76.4 675.5,83.2 676.5,90.0 677.6,96.8 678.6,103.6 679.6,110.5 680.5,117.3 681.5,124.1 682.4,130.9 683.3,137.7 684.2,144.5 685.1,151.3 686.0,158.1 686.8,164.9 687.6,16.8 688.5,23.6 689.3,30.4 690.3,39.5 691.4,48.5 692.4,57.6 693.3,66.7 694.3,75.8 695.3,84.9 696.2,94.0 697.1,103.0 698.0,112.1 698.9,121.2 699.7,130.3 700.6,139.4 701.4,148.4 702.2,157.5 703.0,166.6 704.0,23.0 705.0,34.3 705.9,45.7 706.8,57.0 707.7,68.4 708.6,79.7 709.5,91.1 710.4,102.4 711.2,113.8 712.0,125.1 712.9,136.5 713.8,150.1 714.7,163.7 715.7,22.4 716.6,36.0 717.5,49.6 718.3,63.2 719.2,76.8 720.0,90.5 720.8,104.1 721.7,117.7 722.6,133.6 723.5,149.5 724.4,165.4 725.3,26.3 726.1,42.2 727.0,58.1 727.8,74.0 728.6,89.9 729.4,105.8 730.3,123.9 731.2,142.1 732.1,160.3 732.9,23.4 733.7,41.6 734.6,59.7 735.4,77.9 736.3,98.3 737.1,118.8 738.0,139.2 738.8,159.6 739.7,25.1 740.5,123.0 741.3,143.5 742.2,166.2 743.0,33.9 743.9,56.6 744.7,79.3 745.5,24.5 746.4,49.5 747.2,74.4 748.1,21.9 748.9,46.9 749.7,71.9 750.5,19.3 751.4,46.6 752.2,73.8 753.1,23.6 753.9,50.8 754.7,78.1 755.6,30.1 756.4,59.6 757.2,166.6 758.0,41.1 758.9,72.9 759.7,27.2 760.6,59.0 761.4,168.3 762.2,47.3 763.1,81.4 763.9,37.9 764.7,72.0 765.6,30.8 766.4,67.2 767.2,26.0 768.0,62.3 768.9,23.4 769.7,62.0 770.5,23.1 771.3,64.0 772.2,27.4 773.0,68.2 773.8,31.6 774.6,74.7 775.4,40.4 776.3,161.0 777.1,51.4 777.9,19.3 778.7,64.7 779.5,34.9 780.4,160.1 781.2,52.8 782.0,25.2 782.8,152.7 783.6,49.9 784.4,24.6 785.2,154.3 786.1,53.8 786.9,30.8 787.7,165.1 788.5,66.9 789.3,46.1 790.1,27.7 791.0,164.2 791.8,148.0 792.6,54.3 793.4,40.4 794.2,26.4 795.0,169.8 795.9,158.1 796.7,148.7 797.5,139.4 798.3,54.8 799.1,47.6 799.9,42.8 L799.9,93.5 L445.5,93.5 Z" fill="url(#g664)" clip-path="url(#c666)"/>
  <defs><clipPath id="pc667"><rect x="442" y="16" width="358" height="155"/></clipPath></defs>
  <polyline points="445.5,95.8 478.1,98.0 497.2,100.3 510.8,102.6 521.3,104.9 529.9,107.1 537.1,109.4 543.4,111.7 549.0,113.9 553.9,116.2 558.4,118.5 562.5,120.7 566.3,123.0 569.8,125.3 573.0,127.6 576.1,129.8 578.9,132.1 581.6,134.4 584.2,136.6 586.6,138.9 588.9,141.2 591.1,143.5 593.2,145.7 595.2,148.0 597.1,150.3 598.9,152.5 600.7,154.8 602.4,157.1 604.1,159.3 605.7,161.6 607.2,163.9 608.7,166.2 610.2,168.4 611.6,170.7 612.9,18.0 614.3,20.2 615.6,22.5 616.8,24.8 618.0,27.0 619.2,29.3 620.4,31.6 621.5,33.9 622.6,36.1 623.7,38.4 624.8,40.7 625.8,42.9 626.8,45.2 627.8,47.5 628.8,49.8 629.7,52.0 630.7,54.3 631.6,56.6 632.5,58.8 633.4,61.1 634.2,63.4 635.1,65.6 635.9,67.9 636.7,70.2 637.5,72.5 639.1,77.0 640.6,81.5 642.1,86.1 643.5,90.6 644.9,95.2 646.2,99.7 647.6,104.2 648.8,108.8 650.1,113.3 651.3,117.9 652.5,122.4 653.6,127.0 654.7,131.5 655.8,136.0 656.9,140.6 657.9,145.1 659.0,149.7 660.0,154.2 660.9,158.7 661.9,163.3 662.8,167.8 663.8,17.4 664.7,21.9 665.6,26.4 666.4,31.0 667.3,35.5 668.1,40.1 669.0,44.6 669.8,49.1 671.0,56.0 672.1,62.8 673.3,69.6 674.4,76.4 675.5,83.2 676.5,90.0 677.6,96.8 678.6,103.6 679.6,110.5 680.5,117.3 681.5,124.1 682.4,130.9 683.3,137.7 684.2,144.5 685.1,151.3 686.0,158.1 686.8,164.9 687.6,16.8 688.5,23.6 689.3,30.4 690.3,39.5 691.4,48.5 692.4,57.6 693.3,66.7 694.3,75.8 695.3,84.9 696.2,94.0 697.1,103.0 698.0,112.1 698.9,121.2 699.7,130.3 700.6,139.4 701.4,148.4 702.2,157.5 703.0,166.6 704.0,23.0 705.0,34.3 705.9,45.7 706.8,57.0 707.7,68.4 708.6,79.7 709.5,91.1 710.4,102.4 711.2,113.8 712.0,125.1 712.9,136.5 713.8,150.1 714.7,163.7 715.7,22.4 716.6,36.0 717.5,49.6 718.3,63.2 719.2,76.8 720.0,90.5 720.8,104.1 721.7,117.7 722.6,133.6 723.5,149.5 724.4,165.4 725.3,26.3 726.1,42.2 727.0,58.1 727.8,74.0 728.6,89.9 729.4,105.8 730.3,123.9 731.2,142.1 732.1,160.3 732.9,23.4 733.7,41.6 734.6,59.7 735.4,77.9 736.3,98.3 737.1,118.8 738.0,139.2 738.8,159.6 739.7,25.1 740.5,123.0 741.3,143.5 742.2,166.2 743.0,33.9 743.9,56.6 744.7,79.3 745.5,24.5 746.4,49.5 747.2,74.4 748.1,21.9 748.9,46.9 749.7,71.9 750.5,19.3 751.4,46.6 752.2,73.8 753.1,23.6 753.9,50.8 754.7,78.1 755.6,30.1 756.4,59.6 757.2,166.6 758.0,41.1 758.9,72.9 759.7,27.2 760.6,59.0 761.4,168.3 762.2,47.3 763.1,81.4 763.9,37.9 764.7,72.0 765.6,30.8 766.4,67.2 767.2,26.0 768.0,62.3 768.9,23.4 769.7,62.0 770.5,23.1 771.3,64.0 772.2,27.4 773.0,68.2 773.8,31.6 774.6,74.7 775.4,40.4 776.3,161.0 777.1,51.4 777.9,19.3 778.7,64.7 779.5,34.9 780.4,160.1 781.2,52.8 782.0,25.2 782.8,152.7 783.6,49.9 784.4,24.6 785.2,154.3 786.1,53.8 786.9,30.8 787.7,165.1 788.5,66.9 789.3,46.1 790.1,27.7 791.0,164.2 791.8,148.0 792.6,54.3 793.4,40.4 794.2,26.4 795.0,169.8 795.9,158.1 796.7,148.7 797.5,139.4 798.3,54.8 799.1,47.6 799.9,42.8" fill="none" stroke="#e74c3c" stroke-width="1.5" stroke-linejoin="round" clip-path="url(#pc667)"/>
  <line x1="34" y1="221" x2="34" y2="376" stroke="#d1d5db"/>
  <line x1="34" y1="298.5" x2="392" y2="298.5" stroke="#d1d5db"/>
  <text x="213" y="402" text-anchor="middle" font-size="9" fill="#6b7280">Hz</text>
  <text x="12" y="298.5" text-anchor="middle" font-size="9" fill="#6b7280" transform="rotate(-90 12 298.5)">Group delay</text>
  <line x1="66.6" y1="221" x2="66.6" y2="376" stroke="#e5e7eb" stroke-width="0.5"/>
  <line x1="85.7" y1="221" x2="85.7" y2="376" stroke="#e5e7eb" stroke-width="0.5"/>
  <line x1="99.3" y1="221" x2="99.3" y2="376" stroke="#e5e7eb" stroke-width="0.5"/>
  <line x1="109.8" y1="221" x2="109.8" y2="376" stroke="#e5e7eb" stroke-width="0.5"/>
  <line x1="118.4" y1="221" x2="118.4" y2="376" stroke="#e5e7eb" stroke-width="0.5"/>
  <line x1="125.7" y1="221" x2="125.7" y2="376" stroke="#e5e7eb" stroke-width="0.5"/>
  <line x1="131.9" y1="221" x2="131.9" y2="376" stroke="#e5e7eb" stroke-width="0.5"/>
  <line x1="137.5" y1="221" x2="137.5" y2="376" stroke="#e5e7eb" stroke-width="0.5"/>
  <line x1="175.1" y1="221" x2="175.1" y2="376" stroke="#e5e7eb" stroke-width="0.5"/>
  <line x1="194.2" y1="221" x2="194.2" y2="376" stroke="#e5e7eb" stroke-width="0.5"/>
  <line x1="207.7" y1="221" x2="207.7" y2="376" stroke="#e5e7eb" stroke-width="0.5"/>
  <line x1="218.3" y1="221" x2="218.3" y2="376" stroke="#e5e7eb" stroke-width="0.5"/>
  <line x1="226.8" y1="221" x2="226.8" y2="376" stroke="#e5e7eb" stroke-width="0.5"/>
  <line x1="234.1" y1="221" x2="234.1" y2="376" stroke="#e5e7eb" stroke-width="0.5"/>
  <line x1="240.4" y1="221" x2="240.4" y2="376" stroke="#e5e7eb" stroke-width="0.5"/>
  <line x1="245.9" y1="221" x2="245.9" y2="376" stroke="#e5e7eb" stroke-width="0.5"/>
  <line x1="283.5" y1="221" x2="283.5" y2="376" stroke="#e5e7eb" stroke-width="0.5"/>
  <line x1="302.6" y1="221" x2="302.6" y2="376" stroke="#e5e7eb" stroke-width="0.5"/>
  <line x1="316.2" y1="221" x2="316.2" y2="376" stroke="#e5e7eb" stroke-width="0.5"/>
  <line x1="326.7" y1="221" x2="326.7" y2="376" stroke="#e5e7eb" stroke-width="0.5"/>
  <line x1="335.3" y1="221" x2="335.3" y2="376" stroke="#e5e7eb" stroke-width="0.5"/>
  <line x1="342.6" y1="221" x2="342.6" y2="376" stroke="#e5e7eb" stroke-width="0.5"/>
  <line x1="348.8" y1="221" x2="348.8" y2="376" stroke="#e5e7eb" stroke-width="0.5"/>
  <line x1="354.4" y1="221" x2="354.4" y2="376" stroke="#e5e7eb" stroke-width="0.5"/>
  <line x1="392.0" y1="221" x2="392.0" y2="376" stroke="#e5e7eb" stroke-width="0.5"/>
  <line x1="142.5" y1="221" x2="142.5" y2="376" stroke="#e5e7eb" stroke-width="0.5"/>
  <text x="142.5" y="388" text-anchor="middle" font-size="8" fill="#6b7280">100</text>
  <line x1="250.9" y1="221" x2="250.9" y2="376" stroke="#e5e7eb" stroke-width="0.5"/>
  <text x="250.9" y="388" text-anchor="middle" font-size="8" fill="#6b7280">1k</text>
  <line x1="359.4" y1="221" x2="359.4" y2="376" stroke="#e5e7eb" stroke-width="0.5"/>
  <text x="359.4" y="388" text-anchor="middle" font-size="8" fill="#6b7280">10k</text>
  <line x1="34" y1="341.8" x2="392" y2="341.8" stroke="#e5e7eb" stroke-width="0.5"/>
  <text x="30" y="344.8" text-anchor="end" font-size="8" fill="#6b7280">-700</text>
  <text x="30" y="301.5" text-anchor="end" font-size="8" fill="#6b7280">0</text>
  <line x1="34" y1="255.2" x2="392" y2="255.2" stroke="#e5e7eb" stroke-width="0.5"/>
  <text x="30" y="258.2" text-anchor="end" font-size="8" fill="#6b7280">700</text>
  <defs><linearGradient id="g668" x1="0" y1="221" x2="0" y2="298.5" gradientUnits="userSpaceOnUse">
    <stop offset="0%" stop-color="#2ecc71" stop-opacity="0.15"/>
    <stop offset="100%" stop-color="#2ecc71" stop-opacity="0.02"/>
  </linearGradient></defs>
  <defs><linearGradient id="g669" x1="0" y1="376" x2="0" y2="298.5" gradientUnits="userSpaceOnUse">
    <stop offset="0%" stop-color="#2ecc71" stop-opacity="0.15"/>
    <stop offset="100%" stop-color="#2ecc71" stop-opacity="0.02"/>
  </linearGradient></defs>
  <defs><clipPath id="c670"><rect x="34" y="221" width="358" height="77.5"/></clipPath></defs>
  <defs><clipPath id="c671"><rect x="34" y="298.5" width="358" height="77.5"/></clipPath></defs>
  <path d="M37.5,294.8 37.5,294.8 70.1,294.8 89.2,294.8 102.8,294.8 113.3,294.8 121.9,294.8 129.1,294.8 135.4,294.8 141.0,294.8 145.9,294.8 150.4,294.8 154.5,294.8 158.3,294.8 161.8,294.8 165.0,294.8 168.1,294.8 170.9,294.8 173.6,294.8 176.2,294.8 178.6,294.8 180.9,294.8 183.1,294.8 185.2,294.8 187.2,294.8 189.1,294.8 190.9,294.8 192.7,294.8 194.4,294.8 196.1,294.8 197.7,294.8 199.2,294.8 200.7,294.8 202.2,294.8 203.6,294.8 204.9,294.8 206.3,294.8 207.6,294.8 208.8,294.8 210.0,294.8 211.2,294.8 212.4,294.8 213.5,294.8 214.6,294.8 215.7,294.8 216.8,294.8 217.8,294.8 218.8,294.8 219.8,294.8 220.8,294.8 221.7,294.8 222.7,294.8 223.6,294.8 224.5,294.8 225.4,294.8 226.2,294.8 227.1,294.8 227.9,294.8 228.7,294.8 229.5,294.8 231.1,294.8 232.6,294.8 234.1,294.8 235.5,294.8 236.9,294.8 238.2,294.8 239.6,294.8 240.8,294.8 242.1,294.8 243.3,294.8 244.5,294.8 245.6,294.8 246.7,294.8 247.8,294.8 248.9,294.8 249.9,294.8 251.0,294.8 252.0,294.8 252.9,294.8 253.9,294.8 254.8,294.8 255.8,294.8 256.7,294.8 257.6,294.8 258.4,294.8 259.3,294.8 260.1,294.8 261.0,294.8 261.8,294.8 263.0,294.8 264.1,294.8 265.3,294.8 266.4,294.8 267.5,294.8 268.5,294.8 269.6,294.8 270.6,294.8 271.6,294.8 272.5,294.8 273.5,294.8 274.4,294.8 275.3,294.8 276.2,294.8 277.1,294.8 278.0,294.8 278.8,294.8 279.6,294.8 280.5,294.8 281.3,294.8 282.3,294.8 283.4,294.8 284.4,294.8 285.3,294.8 286.3,294.8 287.3,294.8 288.2,294.8 289.1,294.8 290.0,294.8 290.9,294.8 291.7,294.8 292.6,294.8 293.4,294.8 294.2,294.8 295.0,294.8 296.0,294.8 297.0,294.8 297.9,294.8 298.8,294.8 299.7,294.8 300.6,294.8 301.5,294.8 302.4,294.8 303.2,294.8 304.0,294.8 304.9,294.8 305.8,294.8 306.7,294.8 307.7,294.8 308.6,294.8 309.5,294.8 310.3,294.8 311.2,294.8 312.0,294.8 312.8,294.8 313.7,294.8 314.6,294.8 315.5,294.8 316.4,294.8 317.3,294.8 318.1,294.8 319.0,294.8 319.8,294.8 320.6,294.8 321.4,294.8 322.3,294.8 323.2,294.8 324.1,294.8 324.9,294.8 325.7,294.8 326.6,294.8 327.4,294.8 328.3,294.8 329.1,294.8 330.0,294.8 330.8,294.8 331.7,294.8 332.5,294.8 333.3,294.8 334.2,294.8 335.0,294.8 335.9,294.8 336.7,294.8 337.5,294.8 338.4,294.8 339.2,294.8 340.1,294.8 340.9,294.8 341.7,294.8 342.5,294.8 343.4,294.8 344.2,294.8 345.1,294.8 345.9,294.8 346.7,294.8 347.6,294.8 348.4,294.8 349.2,294.8 350.0,294.8 350.9,294.8 351.7,294.8 352.6,294.8 353.4,294.8 354.2,294.8 355.1,358.1 355.9,294.8 356.7,294.8 357.6,294.8 358.4,294.8 359.2,294.8 360.0,294.8 360.9,294.8 361.7,294.8 362.5,294.8 363.3,294.8 364.2,294.8 365.0,294.8 365.8,294.8 366.6,358.1 367.4,294.8 368.3,294.8 369.1,294.8 369.9,294.8 370.7,294.8 371.5,294.8 372.4,294.8 373.2,294.8 374.0,294.8 374.8,294.8 375.6,294.8 376.4,294.8 377.2,294.8 378.1,294.8 378.9,294.8 379.7,294.8 380.5,358.1 381.3,294.8 382.1,294.8 383.0,294.8 383.8,294.8 384.6,294.8 385.4,294.8 386.2,294.8 387.0,294.8 387.9,294.8 388.7,294.8 389.5,358.1 390.3,294.8 391.1,294.8 391.9,294.8 L391.9,298.5 L37.5,298.5 Z" fill="url(#g668)" clip-path="url(#c670)"/>
  <path d="M37.5,294.8 37.5,294.8 70.1,294.8 89.2,294.8 102.8,294.8 113.3,294.8 121.9,294.8 129.1,294.8 135.4,294.8 141.0,294.8 145.9,294.8 150.4,294.8 154.5,294.8 158.3,294.8 161.8,294.8 165.0,294.8 168.1,294.8 170.9,294.8 173.6,294.8 176.2,294.8 178.6,294.8 180.9,294.8 183.1,294.8 185.2,294.8 187.2,294.8 189.1,294.8 190.9,294.8 192.7,294.8 194.4,294.8 196.1,294.8 197.7,294.8 199.2,294.8 200.7,294.8 202.2,294.8 203.6,294.8 204.9,294.8 206.3,294.8 207.6,294.8 208.8,294.8 210.0,294.8 211.2,294.8 212.4,294.8 213.5,294.8 214.6,294.8 215.7,294.8 216.8,294.8 217.8,294.8 218.8,294.8 219.8,294.8 220.8,294.8 221.7,294.8 222.7,294.8 223.6,294.8 224.5,294.8 225.4,294.8 226.2,294.8 227.1,294.8 227.9,294.8 228.7,294.8 229.5,294.8 231.1,294.8 232.6,294.8 234.1,294.8 235.5,294.8 236.9,294.8 238.2,294.8 239.6,294.8 240.8,294.8 242.1,294.8 243.3,294.8 244.5,294.8 245.6,294.8 246.7,294.8 247.8,294.8 248.9,294.8 249.9,294.8 251.0,294.8 252.0,294.8 252.9,294.8 253.9,294.8 254.8,294.8 255.8,294.8 256.7,294.8 257.6,294.8 258.4,294.8 259.3,294.8 260.1,294.8 261.0,294.8 261.8,294.8 263.0,294.8 264.1,294.8 265.3,294.8 266.4,294.8 267.5,294.8 268.5,294.8 269.6,294.8 270.6,294.8 271.6,294.8 272.5,294.8 273.5,294.8 274.4,294.8 275.3,294.8 276.2,294.8 277.1,294.8 278.0,294.8 278.8,294.8 279.6,294.8 280.5,294.8 281.3,294.8 282.3,294.8 283.4,294.8 284.4,294.8 285.3,294.8 286.3,294.8 287.3,294.8 288.2,294.8 289.1,294.8 290.0,294.8 290.9,294.8 291.7,294.8 292.6,294.8 293.4,294.8 294.2,294.8 295.0,294.8 296.0,294.8 297.0,294.8 297.9,294.8 298.8,294.8 299.7,294.8 300.6,294.8 301.5,294.8 302.4,294.8 303.2,294.8 304.0,294.8 304.9,294.8 305.8,294.8 306.7,294.8 307.7,294.8 308.6,294.8 309.5,294.8 310.3,294.8 311.2,294.8 312.0,294.8 312.8,294.8 313.7,294.8 314.6,294.8 315.5,294.8 316.4,294.8 317.3,294.8 318.1,294.8 319.0,294.8 319.8,294.8 320.6,294.8 321.4,294.8 322.3,294.8 323.2,294.8 324.1,294.8 324.9,294.8 325.7,294.8 326.6,294.8 327.4,294.8 328.3,294.8 329.1,294.8 330.0,294.8 330.8,294.8 331.7,294.8 332.5,294.8 333.3,294.8 334.2,294.8 335.0,294.8 335.9,294.8 336.7,294.8 337.5,294.8 338.4,294.8 339.2,294.8 340.1,294.8 340.9,294.8 341.7,294.8 342.5,294.8 343.4,294.8 344.2,294.8 345.1,294.8 345.9,294.8 346.7,294.8 347.6,294.8 348.4,294.8 349.2,294.8 350.0,294.8 350.9,294.8 351.7,294.8 352.6,294.8 353.4,294.8 354.2,294.8 355.1,358.1 355.9,294.8 356.7,294.8 357.6,294.8 358.4,294.8 359.2,294.8 360.0,294.8 360.9,294.8 361.7,294.8 362.5,294.8 363.3,294.8 364.2,294.8 365.0,294.8 365.8,294.8 366.6,358.1 367.4,294.8 368.3,294.8 369.1,294.8 369.9,294.8 370.7,294.8 371.5,294.8 372.4,294.8 373.2,294.8 374.0,294.8 374.8,294.8 375.6,294.8 376.4,294.8 377.2,294.8 378.1,294.8 378.9,294.8 379.7,294.8 380.5,358.1 381.3,294.8 382.1,294.8 383.0,294.8 383.8,294.8 384.6,294.8 385.4,294.8 386.2,294.8 387.0,294.8 387.9,294.8 388.7,294.8 389.5,358.1 390.3,294.8 391.1,294.8 391.9,294.8 L391.9,298.5 L37.5,298.5 Z" fill="url(#g669)" clip-path="url(#c671)"/>
  <defs><clipPath id="pc672"><rect x="34" y="221" width="358" height="155"/></clipPath></defs>
  <polyline points="37.5,294.8 70.1,294.8 89.2,294.8 102.8,294.8 113.3,294.8 121.9,294.8 129.1,294.8 135.4,294.8 141.0,294.8 145.9,294.8 150.4,294.8 154.5,294.8 158.3,294.8 161.8,294.8 165.0,294.8 168.1,294.8 170.9,294.8 173.6,294.8 176.2,294.8 178.6,294.8 180.9,294.8 183.1,294.8 185.2,294.8 187.2,294.8 189.1,294.8 190.9,294.8 192.7,294.8 194.4,294.8 196.1,294.8 197.7,294.8 199.2,294.8 200.7,294.8 202.2,294.8 203.6,294.8 204.9,294.8 206.3,294.8 207.6,294.8 208.8,294.8 210.0,294.8 211.2,294.8 212.4,294.8 213.5,294.8 214.6,294.8 215.7,294.8 216.8,294.8 217.8,294.8 218.8,294.8 219.8,294.8 220.8,294.8 221.7,294.8 222.7,294.8 223.6,294.8 224.5,294.8 225.4,294.8 226.2,294.8 227.1,294.8 227.9,294.8 228.7,294.8 229.5,294.8 231.1,294.8 232.6,294.8 234.1,294.8 235.5,294.8 236.9,294.8 238.2,294.8 239.6,294.8 240.8,294.8 242.1,294.8 243.3,294.8 244.5,294.8 245.6,294.8 246.7,294.8 247.8,294.8 248.9,294.8 249.9,294.8 251.0,294.8 252.0,294.8 252.9,294.8 253.9,294.8 254.8,294.8 255.8,294.8 256.7,294.8 257.6,294.8 258.4,294.8 259.3,294.8 260.1,294.8 261.0,294.8 261.8,294.8 263.0,294.8 264.1,294.8 265.3,294.8 266.4,294.8 267.5,294.8 268.5,294.8 269.6,294.8 270.6,294.8 271.6,294.8 272.5,294.8 273.5,294.8 274.4,294.8 275.3,294.8 276.2,294.8 277.1,294.8 278.0,294.8 278.8,294.8 279.6,294.8 280.5,294.8 281.3,294.8 282.3,294.8 283.4,294.8 284.4,294.8 285.3,294.8 286.3,294.8 287.3,294.8 288.2,294.8 289.1,294.8 290.0,294.8 290.9,294.8 291.7,294.8 292.6,294.8 293.4,294.8 294.2,294.8 295.0,294.8 296.0,294.8 297.0,294.8 297.9,294.8 298.8,294.8 299.7,294.8 300.6,294.8 301.5,294.8 302.4,294.8 303.2,294.8 304.0,294.8 304.9,294.8 305.8,294.8 306.7,294.8 307.7,294.8 308.6,294.8 309.5,294.8 310.3,294.8 311.2,294.8 312.0,294.8 312.8,294.8 313.7,294.8 314.6,294.8 315.5,294.8 316.4,294.8 317.3,294.8 318.1,294.8 319.0,294.8 319.8,294.8 320.6,294.8 321.4,294.8 322.3,294.8 323.2,294.8 324.1,294.8 324.9,294.8 325.7,294.8 326.6,294.8 327.4,294.8 328.3,294.8 329.1,294.8 330.0,294.8 330.8,294.8 331.7,294.8 332.5,294.8 333.3,294.8 334.2,294.8 335.0,294.8 335.9,294.8 336.7,294.8 337.5,294.8 338.4,294.8 339.2,294.8 340.1,294.8 340.9,294.8 341.7,294.8 342.5,294.8 343.4,294.8 344.2,294.8 345.1,294.8 345.9,294.8 346.7,294.8 347.6,294.8 348.4,294.8 349.2,294.8 350.0,294.8 350.9,294.8 351.7,294.8 352.6,294.8 353.4,294.8 354.2,294.8 355.1,358.1 355.9,294.8 356.7,294.8 357.6,294.8 358.4,294.8 359.2,294.8 360.0,294.8 360.9,294.8 361.7,294.8 362.5,294.8 363.3,294.8 364.2,294.8 365.0,294.8 365.8,294.8 366.6,358.1 367.4,294.8 368.3,294.8 369.1,294.8 369.9,294.8 370.7,294.8 371.5,294.8 372.4,294.8 373.2,294.8 374.0,294.8 374.8,294.8 375.6,294.8 376.4,294.8 377.2,294.8 378.1,294.8 378.9,294.8 379.7,294.8 380.5,358.1 381.3,294.8 382.1,294.8 383.0,294.8 383.8,294.8 384.6,294.8 385.4,294.8 386.2,294.8 387.0,294.8 387.9,294.8 388.7,294.8 389.5,358.1 390.3,294.8 391.1,294.8 391.9,294.8" fill="none" stroke="#2ecc71" stroke-width="1.5" stroke-linejoin="round" clip-path="url(#pc672)"/>
  <line x1="442" y1="221" x2="442" y2="376" stroke="#d1d5db"/>
  <line x1="442" y1="298.5" x2="800" y2="298.5" stroke="#d1d5db"/>
  <text x="621" y="402" text-anchor="middle" font-size="9" fill="#6b7280">Samples</text>
  <text x="420" y="298.5" text-anchor="middle" font-size="9" fill="#6b7280" transform="rotate(-90 420 298.5)">Impulse response</text>
  <line x1="442.0" y1="221" x2="442.0" y2="376" stroke="#e5e7eb" stroke-width="0.5"/>
  <text x="442.0" y="388" text-anchor="middle" font-size="8" fill="#6b7280">0</text>
  <line x1="589.9" y1="221" x2="589.9" y2="376" stroke="#e5e7eb" stroke-width="0.5"/>
  <text x="589.9" y="388" text-anchor="middle" font-size="8" fill="#6b7280">50</text>
  <line x1="737.9" y1="221" x2="737.9" y2="376" stroke="#e5e7eb" stroke-width="0.5"/>
  <text x="737.9" y="388" text-anchor="middle" font-size="8" fill="#6b7280">100</text>
  <line x1="442" y1="367.4" x2="800" y2="367.4" stroke="#e5e7eb" stroke-width="0.5"/>
  <text x="438" y="370.4" text-anchor="end" font-size="8" fill="#6b7280">-0.2</text>
  <text x="438" y="301.5" text-anchor="end" font-size="8" fill="#6b7280">0</text>
  <line x1="442" y1="229.6" x2="800" y2="229.6" stroke="#e5e7eb" stroke-width="0.5"/>
  <text x="438" y="232.6" text-anchor="end" font-size="8" fill="#6b7280">0.2</text>
  <defs><linearGradient id="g673" x1="0" y1="221" x2="0" y2="298.5" gradientUnits="userSpaceOnUse">
    <stop offset="0%" stop-color="#f39c12" stop-opacity="0.15"/>
    <stop offset="100%" stop-color="#f39c12" stop-opacity="0.02"/>
  </linearGradient></defs>
  <defs><linearGradient id="g674" x1="0" y1="376" x2="0" y2="298.5" gradientUnits="userSpaceOnUse">
    <stop offset="0%" stop-color="#f39c12" stop-opacity="0.15"/>
    <stop offset="100%" stop-color="#f39c12" stop-opacity="0.02"/>
  </linearGradient></defs>
  <defs><clipPath id="c675"><rect x="442" y="221" width="358" height="77.5"/></clipPath></defs>
  <defs><clipPath id="c676"><rect x="442" y="298.5" width="358" height="77.5"/></clipPath></defs>
  <path d="M442.0,298.6 442.0,298.6 445.0,298.6 447.9,298.5 450.9,298.4 453.8,298.3 456.8,298.3 459.8,298.4 462.7,298.6 465.7,298.7 468.6,298.8 471.6,298.7 474.5,298.5 477.5,298.3 480.5,298.1 483.4,298.1 486.4,298.3 489.3,298.7 492.3,299.0 495.3,299.2 498.2,299.0 501.2,298.5 504.1,297.9 507.1,297.5 510.0,297.6 513.0,298.1 516.0,299.0 518.9,299.8 521.9,300.0 524.8,299.5 527.8,298.4 530.8,297.1 533.7,296.4 536.7,296.6 539.6,297.9 542.6,299.7 545.6,301.2 548.5,301.5 551.5,300.3 554.4,297.9 557.4,295.5 560.3,294.3 563.3,295.0 566.3,297.7 569.2,301.3 572.2,304.0 575.1,304.3 578.1,301.6 581.1,296.7 584.0,291.8 587.0,289.3 589.9,291.2 592.9,297.6 595.9,306.2 598.8,313.3 601.8,314.4 604.7,306.8 607.7,290.1 610.6,267.5 613.6,244.5 616.6,227.3 619.5,221.0 622.5,227.3 625.4,244.5 628.4,267.5 631.4,290.1 634.3,306.8 637.3,314.4 640.2,313.3 643.2,306.2 646.1,297.6 649.1,291.2 652.1,289.3 655.0,291.8 658.0,296.7 660.9,301.6 663.9,304.3 666.9,304.0 669.8,301.3 672.8,297.7 675.7,295.0 678.7,294.3 681.7,295.5 684.6,297.9 687.6,300.3 690.5,301.5 693.5,301.2 696.4,299.7 699.4,297.9 702.4,296.6 705.3,296.4 708.3,297.1 711.2,298.4 714.2,299.5 717.2,300.0 720.1,299.8 723.1,299.0 726.0,298.1 729.0,297.6 732.0,297.5 734.9,297.9 737.9,298.5 740.8,299.0 743.8,299.2 746.7,299.0 749.7,298.7 752.7,298.3 755.6,298.1 758.6,298.1 761.5,298.3 764.5,298.5 767.5,298.7 770.4,298.8 773.4,298.7 776.3,298.6 779.3,298.4 782.2,298.3 785.2,298.3 788.2,298.4 791.1,298.5 794.1,298.6 797.0,298.6 L797.0,298.5 L442.0,298.5 Z" fill="url(#g673)" clip-path="url(#c675)"/>
  <path d="M442.0,298.6 442.0,298.6 445.0,298.6 447.9,298.5 450.9,298.4 453.8,298.3 456.8,298.3 459.8,298.4 462.7,298.6 465.7,298.7 468.6,298.8 471.6,298.7 474.5,298.5 477.5,298.3 480.5,298.1 483.4,298.1 486.4,298.3 489.3,298.7 492.3,299.0 495.3,299.2 498.2,299.0 501.2,298.5 504.1,297.9 507.1,297.5 510.0,297.6 513.0,298.1 516.0,299.0 518.9,299.8 521.9,300.0 524.8,299.5 527.8,298.4 530.8,297.1 533.7,296.4 536.7,296.6 539.6,297.9 542.6,299.7 545.6,301.2 548.5,301.5 551.5,300.3 554.4,297.9 557.4,295.5 560.3,294.3 563.3,295.0 566.3,297.7 569.2,301.3 572.2,304.0 575.1,304.3 578.1,301.6 581.1,296.7 584.0,291.8 587.0,289.3 589.9,291.2 592.9,297.6 595.9,306.2 598.8,313.3 601.8,314.4 604.7,306.8 607.7,290.1 610.6,267.5 613.6,244.5 616.6,227.3 619.5,221.0 622.5,227.3 625.4,244.5 628.4,267.5 631.4,290.1 634.3,306.8 637.3,314.4 640.2,313.3 643.2,306.2 646.1,297.6 649.1,291.2 652.1,289.3 655.0,291.8 658.0,296.7 660.9,301.6 663.9,304.3 666.9,304.0 669.8,301.3 672.8,297.7 675.7,295.0 678.7,294.3 681.7,295.5 684.6,297.9 687.6,300.3 690.5,301.5 693.5,301.2 696.4,299.7 699.4,297.9 702.4,296.6 705.3,296.4 708.3,297.1 711.2,298.4 714.2,299.5 717.2,300.0 720.1,299.8 723.1,299.0 726.0,298.1 729.0,297.6 732.0,297.5 734.9,297.9 737.9,298.5 740.8,299.0 743.8,299.2 746.7,299.0 749.7,298.7 752.7,298.3 755.6,298.1 758.6,298.1 761.5,298.3 764.5,298.5 767.5,298.7 770.4,298.8 773.4,298.7 776.3,298.6 779.3,298.4 782.2,298.3 785.2,298.3 788.2,298.4 791.1,298.5 794.1,298.6 797.0,298.6 L797.0,298.5 L442.0,298.5 Z" fill="url(#g674)" clip-path="url(#c676)"/>
  <defs><clipPath id="pc677"><rect x="442" y="221" width="358" height="155"/></clipPath></defs>
  <polyline points="442.0,298.6 445.0,298.6 447.9,298.5 450.9,298.4 453.8,298.3 456.8,298.3 459.8,298.4 462.7,298.6 465.7,298.7 468.6,298.8 471.6,298.7 474.5,298.5 477.5,298.3 480.5,298.1 483.4,298.1 486.4,298.3 489.3,298.7 492.3,299.0 495.3,299.2 498.2,299.0 501.2,298.5 504.1,297.9 507.1,297.5 510.0,297.6 513.0,298.1 516.0,299.0 518.9,299.8 521.9,300.0 524.8,299.5 527.8,298.4 530.8,297.1 533.7,296.4 536.7,296.6 539.6,297.9 542.6,299.7 545.6,301.2 548.5,301.5 551.5,300.3 554.4,297.9 557.4,295.5 560.3,294.3 563.3,295.0 566.3,297.7 569.2,301.3 572.2,304.0 575.1,304.3 578.1,301.6 581.1,296.7 584.0,291.8 587.0,289.3 589.9,291.2 592.9,297.6 595.9,306.2 598.8,313.3 601.8,314.4 604.7,306.8 607.7,290.1 610.6,267.5 613.6,244.5 616.6,227.3 619.5,221.0 622.5,227.3 625.4,244.5 628.4,267.5 631.4,290.1 634.3,306.8 637.3,314.4 640.2,313.3 643.2,306.2 646.1,297.6 649.1,291.2 652.1,289.3 655.0,291.8 658.0,296.7 660.9,301.6 663.9,304.3 666.9,304.0 669.8,301.3 672.8,297.7 675.7,295.0 678.7,294.3 681.7,295.5 684.6,297.9 687.6,300.3 690.5,301.5 693.5,301.2 696.4,299.7 699.4,297.9 702.4,296.6 705.3,296.4 708.3,297.1 711.2,298.4 714.2,299.5 717.2,300.0 720.1,299.8 723.1,299.0 726.0,298.1 729.0,297.6 732.0,297.5 734.9,297.9 737.9,298.5 740.8,299.0 743.8,299.2 746.7,299.0 749.7,298.7 752.7,298.3 755.6,298.1 758.6,298.1 761.5,298.3 764.5,298.5 767.5,298.7 770.4,298.8 773.4,298.7 776.3,298.6 779.3,298.4 782.2,298.3 785.2,298.3 788.2,298.4 791.1,298.5 794.1,298.6 797.0,298.6" fill="none" stroke="#f39c12" stroke-width="1.3" stroke-linejoin="round" clip-path="url(#pc677)"/>
</svg>
