<svg xmlns="http://www.w3.org/2000/svg" viewBox="0 0 820 378" style="font-family:system-ui,-apple-system,sans-serif">
  <text x="800" y="11" text-anchor="end" font-size="11" font-weight="600" fill="#6b7280">Decimate anti-alias filter, factor 4</text>
  <line x1="34" y1="16" x2="34" y2="171" stroke="#d1d5db"/>
  <line x1="34" y1="47.0" x2="399" y2="47.0" stroke="#d1d5db"/>
  <text x="216.5" y="197" text-anchor="middle" font-size="9" fill="#6b7280">Hz</text>
  <text x="12" y="93.5" text-anchor="middle" font-size="9" fill="#6b7280" transform="rotate(-90 12 93.5)">dB</text>
  <line x1="67.3" y1="16" x2="67.3" y2="171" stroke="#e5e7eb" stroke-width="0.5"/>
  <line x1="86.8" y1="16" x2="86.8" y2="171" stroke="#e5e7eb" stroke-width="0.5"/>
  <line x1="100.6" y1="16" x2="100.6" y2="171" stroke="#e5e7eb" stroke-width="0.5"/>
  <line x1="111.3" y1="16" x2="111.3" y2="171" stroke="#e5e7eb" stroke-width="0.5"/>
  <line x1="120.0" y1="16" x2="120.0" y2="171" stroke="#e5e7eb" stroke-width="0.5"/>
  <line x1="127.4" y1="16" x2="127.4" y2="171" stroke="#e5e7eb" stroke-width="0.5"/>
  <line x1="133.9" y1="16" x2="133.9" y2="171" stroke="#e5e7eb" stroke-width="0.5"/>
  <line x1="139.5" y1="16" x2="139.5" y2="171" stroke="#e5e7eb" stroke-width="0.5"/>
  <line x1="177.9" y1="16" x2="177.9" y2="171" stroke="#e5e7eb" stroke-width="0.5"/>
  <line x1="197.3" y1="16" x2="197.3" y2="171" stroke="#e5e7eb" stroke-width="0.5"/>
  <line x1="211.1" y1="16" x2="211.1" y2="171" stroke="#e5e7eb" stroke-width="0.5"/>
  <line x1="221.9" y1="16" x2="221.9" y2="171" stroke="#e5e7eb" stroke-width="0.5"/>
  <line x1="230.6" y1="16" x2="230.6" y2="171" stroke="#e5e7eb" stroke-width="0.5"/>
  <line x1="238.0" y1="16" x2="238.0" y2="171" stroke="#e5e7eb" stroke-width="0.5"/>
  <line x1="244.4" y1="16" x2="244.4" y2="171" stroke="#e5e7eb" stroke-width="0.5"/>
  <line x1="250.1" y1="16" x2="250.1" y2="171" stroke="#e5e7eb" stroke-width="0.5"/>
  <line x1="288.4" y1="16" x2="288.4" y2="171" stroke="#e5e7eb" stroke-width="0.5"/>
  <line x1="307.9" y1="16" x2="307.9" y2="171" stroke="#e5e7eb" stroke-width="0.5"/>
  <line x1="321.7" y1="16" x2="321.7" y2="171" stroke="#e5e7eb" stroke-width="0.5"/>
  <line x1="332.4" y1="16" x2="332.4" y2="171" stroke="#e5e7eb" stroke-width="0.5"/>
  <line x1="341.2" y1="16" x2="341.2" y2="171" stroke="#e5e7eb" stroke-width="0.5"/>
  <line x1="348.6" y1="16" x2="348.6" y2="171" stroke="#e5e7eb" stroke-width="0.5"/>
  <line x1="355.0" y1="16" x2="355.0" y2="171" stroke="#e5e7eb" stroke-width="0.5"/>
  <line x1="360.7" y1="16" x2="360.7" y2="171" stroke="#e5e7eb" stroke-width="0.5"/>
  <line x1="399.0" y1="16" x2="399.0" y2="171" stroke="#e5e7eb" stroke-width="0.5"/>
  <line x1="144.6" y1="16" x2="144.6" y2="171" stroke="#e5e7eb" stroke-width="0.5"/>
  <text x="144.6" y="183" text-anchor="middle" font-size="8" fill="#6b7280">100</text>
  <line x1="255.1" y1="16" x2="255.1" y2="171" stroke="#e5e7eb" stroke-width="0.5"/>
  <text x="255.1" y="183" text-anchor="middle" font-size="8" fill="#6b7280">1k</text>
  <line x1="365.7" y1="16" x2="365.7" y2="171" stroke="#e5e7eb" stroke-width="0.5"/>
  <text x="365.7" y="183" text-anchor="middle" font-size="8" fill="#6b7280">10k</text>
  <line x1="34" y1="31.5" x2="399" y2="31.5" stroke="#e5e7eb" stroke-width="0.5"/>
  <line x1="34" y1="62.5" x2="399" y2="62.5" stroke="#e5e7eb" stroke-width="0.5"/>
  <line x1="34" y1="16.0" x2="399" y2="16.0" stroke="#e5e7eb" stroke-width="0.5"/>
  <text x="30" y="19.0" text-anchor="end" font-size="8" fill="#6b7280">+20</text>
  <text x="30" y="50.0" text-anchor="end" font-size="8" fill="#6b7280">0</text>
  <line x1="34" y1="78.0" x2="399" y2="78.0" stroke="#e5e7eb" stroke-width="0.5"/>
  <text x="30" y="81.0" text-anchor="end" font-size="8" fill="#6b7280">-20</text>
  <line x1="34" y1="109.0" x2="399" y2="109.0" stroke="#e5e7eb" stroke-width="0.5"/>
  <text x="30" y="112.0" text-anchor="end" font-size="8" fill="#6b7280">-40</text>
  <line x1="34" y1="140.0" x2="399" y2="140.0" stroke="#e5e7eb" stroke-width="0.5"/>
  <text x="30" y="143.0" text-anchor="end" font-size="8" fill="#6b7280">-60</text>
  <line x1="34" y1="171.0" x2="399" y2="171.0" stroke="#e5e7eb" stroke-width="0.5"/>
  <text x="30" y="174.0" text-anchor="end" font-size="8" fill="#6b7280">-80</text>
  <defs><linearGradient id="g591" x1="0" y1="16" x2="0" y2="171" gradientUnits="userSpaceOnUse">
    <stop offset="0%" stop-color="#4a90d9" stop-opacity="0.15"/>
    <stop offset="100%" stop-color="#4a90d9" stop-opacity="0.02"/>
  </linearGradient></defs>
  <path d="M37.5,47.0 37.5,47.0 70.8,47.0 90.3,47.0 104.1,47.0 114.8,47.0 123.6,47.0 131.0,47.0 137.4,47.0 143.1,47.0 148.1,47.0 152.7,47.0 156.9,47.0 160.7,47.0 164.3,47.0 167.6,47.0 170.7,47.0 173.6,47.0 176.3,47.0 178.9,47.0 181.4,47.0 183.7,47.0 186.0,47.0 188.1,47.0 190.2,47.0 192.1,47.0 194.0,47.0 195.8,47.0 197.6,47.0 199.2,47.0 200.9,47.0 202.4,47.0 204.0,47.0 205.5,47.0 206.9,47.0 208.3,47.0 209.6,47.0 210.9,47.0 212.2,47.0 213.5,47.0 214.7,47.0 215.9,47.0 217.0,47.0 218.2,47.0 219.3,47.0 220.3,47.0 221.4,47.0 222.4,47.0 223.4,47.0 224.4,47.0 225.4,47.0 226.4,47.0 227.3,47.0 228.2,47.0 229.1,47.0 230.0,47.0 230.8,47.0 231.7,47.0 232.5,47.0 233.4,47.0 234.2,47.0 235.7,47.0 237.3,47.0 238.7,47.0 240.2,47.0 241.6,47.0 242.9,47.0 244.2,47.0 245.5,47.0 246.8,47.0 248.0,47.0 249.2,47.0 250.3,47.0 251.4,47.0 252.6,47.0 253.6,47.0 254.7,47.0 255.7,47.0 256.7,47.0 257.7,47.0 258.7,47.0 259.6,47.0 260.6,47.0 261.5,47.0 262.4,47.0 263.3,47.0 264.1,47.0 265.0,47.0 265.8,47.0 266.6,47.0 267.4,47.0 268.6,47.0 269.8,47.0 270.9,47.0 272.0,47.0 273.1,47.0 274.2,47.0 275.2,47.0 276.2,47.0 277.2,47.0 278.2,47.0 279.1,47.0 280.0,47.0 281.0,47.0 281.9,47.0 282.7,47.0 283.6,47.0 284.5,47.0 285.3,47.0 286.1,47.0 286.9,47.0 288.0,47.0 289.0,47.0 290.0,47.0 291.0,47.0 292.0,47.0 292.9,47.0 293.9,47.0 294.8,47.0 295.7,47.0 296.6,47.0 297.4,47.0 298.3,47.0 299.1,47.0 299.9,47.0 300.7,47.0 301.7,47.0 302.7,47.0 303.6,47.0 304.6,47.0 305.5,47.0 306.4,47.0 307.3,47.0 308.1,47.0 309.0,47.0 309.8,47.0 310.6,47.0 311.4,47.0 312.4,47.0 313.3,47.0 314.2,47.0 315.1,47.0 316.0,47.0 316.9,47.0 317.7,47.0 318.6,47.0 319.4,47.0 320.2,47.0 321.1,47.0 322.0,47.0 322.9,47.0 323.8,47.0 324.7,47.0 325.5,47.0 326.3,47.1 327.1,47.3 327.9,47.8 328.8,48.6 329.7,49.8 330.6,51.6 331.4,54.1 332.3,57.3 333.1,61.4 333.9,66.7 334.8,74.1 335.7,83.9 336.5,97.1 337.4,117.8 338.2,139.7 339.0,132.7 339.8,136.8 340.7,137.5 341.6,137.7 342.4,149.8 343.3,144.4 344.1,134.5 344.9,137.9 345.8,160.7 346.6,135.8 347.5,137.4 348.3,171.0 349.1,137.5 350.0,138.7 350.8,162.3 351.7,137.5 352.5,142.3 353.3,152.0 354.1,138.2 355.0,152.3 355.8,142.9 356.6,141.0 357.5,168.4 358.3,140.3 359.1,152.8 360.0,144.4 360.8,144.1 361.6,153.0 362.5,142.5 363.3,171.0 364.1,142.7 364.9,167.6 365.8,143.8 366.6,159.0 367.4,145.2 368.2,157.1 369.1,145.6 369.9,158.4 370.7,145.7 371.6,169.4 372.4,145.8 373.2,171.0 374.0,146.7 374.8,158.4 375.6,149.6 376.5,150.2 377.3,161.0 378.1,147.6 378.9,164.1 379.7,151.4 380.5,150.0 381.4,171.0 382.2,150.0 383.0,151.9 383.8,171.0 384.6,150.8 385.5,150.7 386.3,169.5 387.1,155.9 387.9,149.9 388.7,154.2 389.5,171.0 390.3,157.5 391.2,151.2 392.0,151.3 392.8,158.1 393.6,171.0 394.4,161.8 395.2,154.3 396.0,151.5 396.8,151.4 397.6,153.1 398.5,155.7 L398.5,171.0 L37.5,171.0 Z" fill="url(#g591)"/>
  <defs><clipPath id="pc592"><rect x="34" y="16" width="365" height="155"/></clipPath></defs>
  <polyline points="37.5,47.0 70.8,47.0 90.3,47.0 104.1,47.0 114.8,47.0 123.6,47.0 131.0,47.0 137.4,47.0 143.1,47.0 148.1,47.0 152.7,47.0 156.9,47.0 160.7,47.0 164.3,47.0 167.6,47.0 170.7,47.0 173.6,47.0 176.3,47.0 178.9,47.0 181.4,47.0 183.7,47.0 186.0,47.0 188.1,47.0 190.2,47.0 192.1,47.0 194.0,47.0 195.8,47.0 197.6,47.0 199.2,47.0 200.9,47.0 202.4,47.0 204.0,47.0 205.5,47.0 206.9,47.0 208.3,47.0 209.6,47.0 210.9,47.0 212.2,47.0 213.5,47.0 214.7,47.0 215.9,47.0 217.0,47.0 218.2,47.0 219.3,47.0 220.3,47.0 221.4,47.0 222.4,47.0 223.4,47.0 224.4,47.0 225.4,47.0 226.4,47.0 227.3,47.0 228.2,47.0 229.1,47.0 230.0,47.0 230.8,47.0 231.7,47.0 232.5,47.0 233.4,47.0 234.2,47.0 235.7,47.0 237.3,47.0 238.7,47.0 240.2,47.0 241.6,47.0 242.9,47.0 244.2,47.0 245.5,47.0 246.8,47.0 248.0,47.0 249.2,47.0 250.3,47.0 251.4,47.0 252.6,47.0 253.6,47.0 254.7,47.0 255.7,47.0 256.7,47.0 257.7,47.0 258.7,47.0 259.6,47.0 260.6,47.0 261.5,47.0 262.4,47.0 263.3,47.0 264.1,47.0 265.0,47.0 265.8,47.0 266.6,47.0 267.4,47.0 268.6,47.0 269.8,47.0 270.9,47.0 272.0,47.0 273.1,47.0 274.2,47.0 275.2,47.0 276.2,47.0 277.2,47.0 278.2,47.0 279.1,47.0 280.0,47.0 281.0,47.0 281.9,47.0 282.7,47.0 283.6,47.0 284.5,47.0 285.3,47.0 286.1,47.0 286.9,47.0 288.0,47.0 289.0,47.0 290.0,47.0 291.0,47.0 292.0,47.0 292.9,47.0 293.9,47.0 294.8,47.0 295.7,47.0 296.6,47.0 297.4,47.0 298.3,47.0 299.1,47.0 299.9,47.0 300.7,47.0 301.7,47.0 302.7,47.0 303.6,47.0 304.6,47.0 305.5,47.0 306.4,47.0 307.3,47.0 308.1,47.0 309.0,47.0 309.8,47.0 310.6,47.0 311.4,47.0 312.4,47.0 313.3,47.0 314.2,47.0 315.1,47.0 316.0,47.0 316.9,47.0 317.7,47.0 318.6,47.0 319.4,47.0 320.2,47.0 321.1,47.0 322.0,47.0 322.9,47.0 323.8,47.0 324.7,47.0 325.5,47.0 326.3,47.1 327.1,47.3 327.9,47.8 328.8,48.6 329.7,49.8 330.6,51.6 331.4,54.1 332.3,57.3 333.1,61.4 333.9,66.7 334.8,74.1 335.7,83.9 336.5,97.1 337.4,117.8 338.2,139.7 339.0,132.7 339.8,136.8 340.7,137.5 341.6,137.7 342.4,149.8 343.3,144.4 344.1,134.5 344.9,137.9 345.8,160.7 346.6,135.8 347.5,137.4 348.3,178.1 349.1,137.5 350.0,138.7 350.8,162.3 351.7,137.5 352.5,142.3 353.3,152.0 354.1,138.2 355.0,152.3 355.8,142.9 356.6,141.0 357.5,168.4 358.3,140.3 359.1,152.8 360.0,144.4 360.8,144.1 361.6,153.0 362.5,142.5 363.3,174.1 364.1,142.7 364.9,167.6 365.8,143.8 366.6,159.0 367.4,145.2 368.2,157.1 369.1,145.6 369.9,158.4 370.7,145.7 371.6,169.4 372.4,145.8 373.2,190.5 374.0,146.7 374.8,158.4 375.6,149.6 376.5,150.2 377.3,161.0 378.1,147.6 378.9,164.1 379.7,151.4 380.5,150.0 381.4,194.9 382.2,150.0 383.0,151.9 383.8,181.9 384.6,150.8 385.5,150.7 386.3,169.5 387.1,155.9 387.9,149.9 388.7,154.2 389.5,181.5 390.3,157.5 391.2,151.2 392.0,151.3 392.8,158.1 393.6,185.5 394.4,161.8 395.2,154.3 396.0,151.5 396.8,151.4 397.6,153.1 398.5,155.7" fill="none" stroke="#4a90d9" stroke-width="1.5" stroke-linejoin="round" clip-path="url(#pc592)"/>
  <line x1="435" y1="16" x2="435" y2="171" stroke="#d1d5db"/>
  <line x1="435" y1="93.5" x2="800" y2="93.5" stroke="#d1d5db"/>
  <text x="617.5" y="197" text-anchor="middle" font-size="9" fill="#6b7280">Hz</text>
  <text x="413" y="93.5" text-anchor="middle" font-size="9" fill="#6b7280" transform="rotate(-90 413 93.5)">Phase (deg)</text>
  <line x1="468.3" y1="16" x2="468.3" y2="171" stroke="#e5e7eb" stroke-width="0.5"/>
  <line x1="487.8" y1="16" x2="487.8" y2="171" stroke="#e5e7eb" stroke-width="0.5"/>
  <line x1="501.6" y1="16" x2="501.6" y2="171" stroke="#e5e7eb" stroke-width="0.5"/>
  <line x1="512.3" y1="16" x2="512.3" y2="171" stroke="#e5e7eb" stroke-width="0.5"/>
  <line x1="521.0" y1="16" x2="521.0" y2="171" stroke="#e5e7eb" stroke-width="0.5"/>
  <line x1="528.4" y1="16" x2="528.4" y2="171" stroke="#e5e7eb" stroke-width="0.5"/>
  <line x1="534.9" y1="16" x2="534.9" y2="171" stroke="#e5e7eb" stroke-width="0.5"/>
  <line x1="540.5" y1="16" x2="540.5" y2="171" stroke="#e5e7eb" stroke-width="0.5"/>
  <line x1="578.9" y1="16" x2="578.9" y2="171" stroke="#e5e7eb" stroke-width="0.5"/>
  <line x1="598.3" y1="16" x2="598.3" y2="171" stroke="#e5e7eb" stroke-width="0.5"/>
  <line x1="612.1" y1="16" x2="612.1" y2="171" stroke="#e5e7eb" stroke-width="0.5"/>
  <line x1="622.9" y1="16" x2="622.9" y2="171" stroke="#e5e7eb" stroke-width="0.5"/>
  <line x1="631.6" y1="16" x2="631.6" y2="171" stroke="#e5e7eb" stroke-width="0.5"/>
  <line x1="639.0" y1="16" x2="639.0" y2="171" stroke="#e5e7eb" stroke-width="0.5"/>
  <line x1="645.4" y1="16" x2="645.4" y2="171" stroke="#e5e7eb" stroke-width="0.5"/>
  <line x1="651.1" y1="16" x2="651.1" y2="171" stroke="#e5e7eb" stroke-width="0.5"/>
  <line x1="689.4" y1="16" x2="689.4" y2="171" stroke="#e5e7eb" stroke-width="0.5"/>
  <line x1="708.9" y1="16" x2="708.9" y2="171" stroke="#e5e7eb" stroke-width="0.5"/>
  <line x1="722.7" y1="16" x2="722.7" y2="171" stroke="#e5e7eb" stroke-width="0.5"/>
  <line x1="733.4" y1="16" x2="733.4" y2="171" stroke="#e5e7eb" stroke-width="0.5"/>
  <line x1="742.2" y1="16" x2="742.2" y2="171" stroke="#e5e7eb" stroke-width="0.5"/>
  <line x1="749.6" y1="16" x2="749.6" y2="171" stroke="#e5e7eb" stroke-width="0.5"/>
  <line x1="756.0" y1="16" x2="756.0" y2="171" stroke="#e5e7eb" stroke-width="0.5"/>
  <line x1="761.7" y1="16" x2="761.7" y2="171" stroke="#e5e7eb" stroke-width="0.5"/>
  <line x1="800.0" y1="16" x2="800.0" y2="171" stroke="#e5e7eb" stroke-width="0.5"/>
  <line x1="545.6" y1="16" x2="545.6" y2="171" stroke="#e5e7eb" stroke-width="0.5"/>
  <text x="545.6" y="183" text-anchor="middle" font-size="8" fill="#6b7280">100</text>
  <line x1="656.1" y1="16" x2="656.1" y2="171" stroke="#e5e7eb" stroke-width="0.5"/>
  <text x="656.1" y="183" text-anchor="middle" font-size="8" fill="#6b7280">1k</text>
  <line x1="766.7" y1="16" x2="766.7" y2="171" stroke="#e5e7eb" stroke-width="0.5"/>
  <text x="766.7" y="183" text-anchor="middle" font-size="8" fill="#6b7280">10k</text>
  <line x1="435" y1="58.6" x2="800" y2="58.6" stroke="#e5e7eb" stroke-width="0.5"/>
  <line x1="435" y1="128.4" x2="800" y2="128.4" stroke="#e5e7eb" stroke-width="0.5"/>
  <line x1="435" y1="23.8" x2="800" y2="23.8" stroke="#e5e7eb" stroke-width="0.5"/>
  <text x="431" y="26.8" text-anchor="end" font-size="8" fill="#6b7280">180</text>
  <text x="431" y="96.5" text-anchor="end" font-size="8" fill="#6b7280">0</text>
  <line x1="435" y1="163.3" x2="800" y2="163.3" stroke="#e5e7eb" stroke-width="0.5"/>
  <text x="431" y="166.3" text-anchor="end" font-size="8" fill="#6b7280">-180</text>
  <defs><linearGradient id="g593" x1="0" y1="16" x2="0" y2="93.5" gradientUnits="userSpaceOnUse">
    <stop offset="0%" stop-color="#e74c3c" stop-opacity="0.15"/>
    <stop offset="100%" stop-color="#e74c3c" stop-opacity="0.02"/>
  </linearGradient></defs>
  <defs><linearGradient id="g594" x1="0" y1="171" x2="0" y2="93.5" gradientUnits="userSpaceOnUse">
    <stop offset="0%" stop-color="#e74c3c" stop-opacity="0.15"/>
    <stop offset="100%" stop-color="#e74c3c" stop-opacity="0.02"/>
  </linearGradient></defs>
  <defs><clipPath id="c595"><rect x="435" y="16" width="365" height="77.5"/></clipPath></defs>
  <defs><clipPath id="c596"><rect x="435" y="93.5" width="365" height="77.5"/></clipPath></defs>
  <path d="M438.5,95.5 438.5,95.5 471.8,97.6 491.3,99.6 505.1,101.7 515.8,103.7 524.6,105.8 532.0,107.8 538.4,109.8 544.1,111.9 549.1,113.9 553.7,116.0 557.9,118.0 561.7,120.1 565.3,122.1 568.6,124.2 571.7,126.2 574.6,128.2 577.3,130.3 579.9,132.3 582.4,134.4 584.7,136.4 587.0,138.5 589.1,140.5 591.2,142.5 593.1,144.6 595.0,146.6 596.8,148.7 598.6,150.7 600.2,152.8 601.9,154.8 603.4,156.8 605.0,158.9 606.5,160.9 607.9,163.0 609.3,25.5 610.6,27.6 611.9,29.6 613.2,31.7 614.5,33.7 615.7,35.7 616.9,37.8 618.0,39.8 619.2,41.9 620.3,43.9 621.3,46.0 622.4,48.0 623.4,50.0 624.4,52.1 625.4,54.1 626.4,56.2 627.4,58.2 628.3,60.3 629.2,62.3 630.1,64.3 631.0,66.4 631.8,68.4 632.7,70.5 633.5,72.5 634.4,74.6 635.2,76.6 636.7,80.7 638.3,84.8 639.7,88.9 641.2,93.0 642.6,97.0 643.9,101.1 645.2,105.2 646.5,109.3 647.8,113.4 649.0,117.5 650.2,121.6 651.3,125.7 652.4,129.7 653.6,133.8 654.6,137.9 655.7,142.0 656.7,146.1 657.7,150.2 658.7,154.3 659.7,158.3 660.6,162.4 661.6,27.0 662.5,31.1 663.4,35.2 664.3,39.3 665.1,43.4 666.0,47.5 666.8,51.5 667.6,55.6 668.4,59.7 669.6,65.8 670.8,72.0 671.9,78.1 673.0,84.2 674.1,90.4 675.2,96.5 676.2,102.6 677.2,108.8 678.2,114.9 679.2,121.0 680.1,127.1 681.0,133.3 682.0,139.4 682.9,145.5 683.7,151.7 684.6,157.8 685.5,24.4 686.3,30.6 687.1,36.7 687.9,42.8 689.0,51.0 690.0,59.2 691.0,67.3 692.0,75.5 693.0,83.7 693.9,91.9 694.9,100.0 695.8,108.2 696.7,116.4 697.6,124.6 698.4,132.7 699.3,140.9 700.1,149.1 700.9,157.3 701.7,25.9 702.7,36.1 703.7,46.4 704.6,56.6 705.6,66.8 706.5,77.0 707.4,87.2 708.3,97.5 709.1,107.7 710.0,117.9 710.8,128.1 711.6,138.3 712.4,148.5 713.4,160.8 714.3,33.6 715.2,45.8 716.1,58.1 717.0,70.3 717.9,82.6 718.7,94.9 719.6,107.1 720.4,119.4 721.2,131.6 722.1,145.9 723.0,160.3 723.9,35.1 724.8,49.4 725.7,63.7 726.5,78.0 727.3,92.3 728.1,106.6 728.9,120.9 729.8,137.2 730.7,153.6 731.6,30.4 732.4,46.8 733.3,63.1 734.1,79.5 734.9,95.8 735.8,114.2 736.7,132.6 737.5,151.0 738.4,29.9 739.2,118.0 740.0,136.4 740.8,154.8 741.7,35.7 742.6,56.2 743.4,76.6 744.3,27.3 745.1,47.7 745.9,68.2 746.8,160.4 747.6,43.4 748.5,65.8 749.3,158.1 750.1,41.1 751.0,65.6 751.8,159.8 752.7,44.9 753.5,69.4 754.3,24.2 755.1,50.7 756.0,77.3 756.8,34.1 757.6,60.7 758.5,157.0 759.3,46.1 760.1,74.7 761.0,33.6 761.8,62.2 762.6,162.6 763.5,53.7 764.3,154.1 765.1,45.3 765.9,78.0 766.8,40.9 767.6,73.6 768.4,36.6 769.2,71.3 770.1,36.3 770.9,71.0 771.7,38.1 772.6,74.8 773.4,41.9 774.2,148.4 775.0,47.7 775.8,156.3 776.6,55.6 777.5,26.7 778.3,67.6 779.1,38.7 779.9,151.4 780.7,54.8 781.5,28.0 782.4,72.9 783.2,48.1 784.0,162.8 784.8,70.3 785.6,47.6 786.5,26.9 787.3,145.7 788.1,55.2 788.9,36.6 789.7,157.4 790.5,140.8 791.3,54.4 792.2,39.8 793.0,25.2 793.8,150.2 794.6,137.6 795.4,55.4 796.2,44.9 797.0,34.4 797.8,25.9 798.6,157.0 799.5,150.6 L799.5,93.5 L438.5,93.5 Z" fill="url(#g593)" clip-path="url(#c595)"/>
  <path d="M438.5,95.5 438.5,95.5 471.8,97.6 491.3,99.6 505.1,101.7 515.8,103.7 524.6,105.8 532.0,107.8 538.4,109.8 544.1,111.9 549.1,113.9 553.7,116.0 557.9,118.0 561.7,120.1 565.3,122.1 568.6,124.2 571.7,126.2 574.6,128.2 577.3,130.3 579.9,132.3 582.4,134.4 584.7,136.4 587.0,138.5 589.1,140.5 591.2,142.5 593.1,144.6 595.0,146.6 596.8,148.7 598.6,150.7 600.2,152.8 601.9,154.8 603.4,156.8 605.0,158.9 606.5,160.9 607.9,163.0 609.3,25.5 610.6,27.6 611.9,29.6 613.2,31.7 614.5,33.7 615.7,35.7 616.9,37.8 618.0,39.8 619.2,41.9 620.3,43.9 621.3,46.0 622.4,48.0 623.4,50.0 624.4,52.1 625.4,54.1 626.4,56.2 627.4,58.2 628.3,60.3 629.2,62.3 630.1,64.3 631.0,66.4 631.8,68.4 632.7,70.5 633.5,72.5 634.4,74.6 635.2,76.6 636.7,80.7 638.3,84.8 639.7,88.9 641.2,93.0 642.6,97.0 643.9,101.1 645.2,105.2 646.5,109.3 647.8,113.4 649.0,117.5 650.2,121.6 651.3,125.7 652.4,129.7 653.6,133.8 654.6,137.9 655.7,142.0 656.7,146.1 657.7,150.2 658.7,154.3 659.7,158.3 660.6,162.4 661.6,27.0 662.5,31.1 663.4,35.2 664.3,39.3 665.1,43.4 666.0,47.5 666.8,51.5 667.6,55.6 668.4,59.7 669.6,65.8 670.8,72.0 671.9,78.1 673.0,84.2 674.1,90.4 675.2,96.5 676.2,102.6 677.2,108.8 678.2,114.9 679.2,121.0 680.1,127.1 681.0,133.3 682.0,139.4 682.9,145.5 683.7,151.7 684.6,157.8 685.5,24.4 686.3,30.6 687.1,36.7 687.9,42.8 689.0,51.0 690.0,59.2 691.0,67.3 692.0,75.5 693.0,83.7 693.9,91.9 694.9,100.0 695.8,108.2 696.7,116.4 697.6,124.6 698.4,132.7 699.3,140.9 700.1,149.1 700.9,157.3 701.7,25.9 702.7,36.1 703.7,46.4 704.6,56.6 705.6,66.8 706.5,77.0 707.4,87.2 708.3,97.5 709.1,107.7 710.0,117.9 710.8,128.1 711.6,138.3 712.4,148.5 713.4,160.8 714.3,33.6 715.2,45.8 716.1,58.1 717.0,70.3 717.9,82.6 718.7,94.9 719.6,107.1 720.4,119.4 721.2,131.6 722.1,145.9 723.0,160.3 723.9,35.1 724.8,49.4 725.7,63.7 726.5,78.0 727.3,92.3 728.1,106.6 728.9,120.9 729.8,137.2 730.7,153.6 731.6,30.4 732.4,46.8 733.3,63.1 734.1,79.5 734.9,95.8 735.8,114.2 736.7,132.6 737.5,151.0 738.4,29.9 739.2,118.0 740.0,136.4 740.8,154.8 741.7,35.7 742.6,56.2 743.4,76.6 744.3,27.3 745.1,47.7 745.9,68.2 746.8,160.4 747.6,43.4 748.5,65.8 749.3,158.1 750.1,41.1 751.0,65.6 751.8,159.8 752.7,44.9 753.5,69.4 754.3,24.2 755.1,50.7 756.0,77.3 756.8,34.1 757.6,60.7 758.5,157.0 759.3,46.1 760.1,74.7 761.0,33.6 761.8,62.2 762.6,162.6 763.5,53.7 764.3,154.1 765.1,45.3 765.9,78.0 766.8,40.9 767.6,73.6 768.4,36.6 769.2,71.3 770.1,36.3 770.9,71.0 771.7,38.1 772.6,74.8 773.4,41.9 774.2,148.4 775.0,47.7 775.8,156.3 776.6,55.6 777.5,26.7 778.3,67.6 779.1,38.7 779.9,151.4 780.7,54.8 781.5,28.0 782.4,72.9 783.2,48.1 784.0,162.8 784.8,70.3 785.6,47.6 786.5,26.9 787.3,145.7 788.1,55.2 788.9,36.6 789.7,157.4 790.5,140.8 791.3,54.4 792.2,39.8 793.0,25.2 793.8,150.2 794.6,137.6 795.4,55.4 796.2,44.9 797.0,34.4 797.8,25.9 798.6,157.0 799.5,150.6 L799.5,93.5 L438.5,93.5 Z" fill="url(#g594)" clip-path="url(#c596)"/>
  <defs><clipPath id="pc597"><rect x="435" y="16" width="365" height="155"/></clipPath></defs>
  <polyline points="438.5,95.5 471.8,97.6 491.3,99.6 505.1,101.7 515.8,103.7 524.6,105.8 532.0,107.8 538.4,109.8 544.1,111.9 549.1,113.9 553.7,116.0 557.9,118.0 561.7,120.1 565.3,122.1 568.6,124.2 571.7,126.2 574.6,128.2 577.3,130.3 579.9,132.3 582.4,134.4 584.7,136.4 587.0,138.5 589.1,140.5 591.2,142.5 593.1,144.6 595.0,146.6 596.8,148.7 598.6,150.7 600.2,152.8 601.9,154.8 603.4,156.8 605.0,158.9 606.5,160.9 607.9,163.0 609.3,25.5 610.6,27.6 611.9,29.6 613.2,31.7 614.5,33.7 615.7,35.7 616.9,37.8 618.0,39.8 619.2,41.9 620.3,43.9 621.3,46.0 622.4,48.0 623.4,50.0 624.4,52.1 625.4,54.1 626.4,56.2 627.4,58.2 628.3,60.3 629.2,62.3 630.1,64.3 631.0,66.4 631.8,68.4 632.7,70.5 633.5,72.5 634.4,74.6 635.2,76.6 636.7,80.7 638.3,84.8 639.7,88.9 641.2,93.0 642.6,97.0 643.9,101.1 645.2,105.2 646.5,109.3 647.8,113.4 649.0,117.5 650.2,121.6 651.3,125.7 652.4,129.7 653.6,133.8 654.6,137.9 655.7,142.0 656.7,146.1 657.7,150.2 658.7,154.3 659.7,158.3 660.6,162.4 661.6,27.0 662.5,31.1 663.4,35.2 664.3,39.3 665.1,43.4 666.0,47.5 666.8,51.5 667.6,55.6 668.4,59.7 669.6,65.8 670.8,72.0 671.9,78.1 673.0,84.2 674.1,90.4 675.2,96.5 676.2,102.6 677.2,108.8 678.2,114.9 679.2,121.0 680.1,127.1 681.0,133.3 682.0,139.4 682.9,145.5 683.7,151.7 684.6,157.8 685.5,24.4 686.3,30.6 687.1,36.7 687.9,42.8 689.0,51.0 690.0,59.2 691.0,67.3 692.0,75.5 693.0,83.7 693.9,91.9 694.9,100.0 695.8,108.2 696.7,116.4 697.6,124.6 698.4,132.7 699.3,140.9 700.1,149.1 700.9,157.3 701.7,25.9 702.7,36.1 703.7,46.4 704.6,56.6 705.6,66.8 706.5,77.0 707.4,87.2 708.3,97.5 709.1,107.7 710.0,117.9 710.8,128.1 711.6,138.3 712.4,148.5 713.4,160.8 714.3,33.6 715.2,45.8 716.1,58.1 717.0,70.3 717.9,82.6 718.7,94.9 719.6,107.1 720.4,119.4 721.2,131.6 722.1,145.9 723.0,160.3 723.9,35.1 724.8,49.4 725.7,63.7 726.5,78.0 727.3,92.3 728.1,106.6 728.9,120.9 729.8,137.2 730.7,153.6 731.6,30.4 732.4,46.8 733.3,63.1 734.1,79.5 734.9,95.8 735.8,114.2 736.7,132.6 737.5,151.0 738.4,29.9 739.2,118.0 740.0,136.4 740.8,154.8 741.7,35.7 742.6,56.2 743.4,76.6 744.3,27.3 745.1,47.7 745.9,68.2 746.8,160.4 747.6,43.4 748.5,65.8 749.3,158.1 750.1,41.1 751.0,65.6 751.8,159.8 752.7,44.9 753.5,69.4 754.3,24.2 755.1,50.7 756.0,77.3 756.8,34.1 757.6,60.7 758.5,157.0 759.3,46.1 760.1,74.7 761.0,33.6 761.8,62.2 762.6,162.6 763.5,53.7 764.3,154.1 765.1,45.3 765.9,78.0 766.8,40.9 767.6,73.6 768.4,36.6 769.2,71.3 770.1,36.3 770.9,71.0 771.7,38.1 772.6,74.8 773.4,41.9 774.2,148.4 775.0,47.7 775.8,156.3 776.6,55.6 777.5,26.7 778.3,67.6 779.1,38.7 779.9,151.4 780.7,54.8 781.5,28.0 782.4,72.9 783.2,48.1 784.0,162.8 784.8,70.3 785.6,47.6 786.5,26.9 787.3,145.7 788.1,55.2 788.9,36.6 789.7,157.4 790.5,140.8 791.3,54.4 792.2,39.8 793.0,25.2 793.8,150.2 794.6,137.6 795.4,55.4 796.2,44.9 797.0,34.4 797.8,25.9 798.6,157.0 799.5,150.6" fill="none" stroke="#e74c3c" stroke-width="1.5" stroke-linejoin="round" clip-path="url(#pc597)"/>
  <line x1="34" y1="207" x2="34" y2="362" stroke="#d1d5db"/>
  <line x1="34" y1="284.5" x2="399" y2="284.5" stroke="#d1d5db"/>
  <text x="216.5" y="388" text-anchor="middle" font-size="9" fill="#6b7280">Hz</text>
  <text x="12" y="284.5" text-anchor="middle" font-size="9" fill="#6b7280" transform="rotate(-90 12 284.5)">Group delay</text>
  <line x1="67.3" y1="207" x2="67.3" y2="362" stroke="#e5e7eb" stroke-width="0.5"/>
  <line x1="86.8" y1="207" x2="86.8" y2="362" stroke="#e5e7eb" stroke-width="0.5"/>
  <line x1="100.6" y1="207" x2="100.6" y2="362" stroke="#e5e7eb" stroke-width="0.5"/>
  <line x1="111.3" y1="207" x2="111.3" y2="362" stroke="#e5e7eb" stroke-width="0.5"/>
  <line x1="120.0" y1="207" x2="120.0" y2="362" stroke="#e5e7eb" stroke-width="0.5"/>
  <line x1="127.4" y1="207" x2="127.4" y2="362" stroke="#e5e7eb" stroke-width="0.5"/>
  <line x1="133.9" y1="207" x2="133.9" y2="362" stroke="#e5e7eb" stroke-width="0.5"/>
  <line x1="139.5" y1="207" x2="139.5" y2="362" stroke="#e5e7eb" stroke-width="0.5"/>
  <line x1="177.9" y1="207" x2="177.9" y2="362" stroke="#e5e7eb" stroke-width="0.5"/>
  <line x1="197.3" y1="207" x2="197.3" y2="362" stroke="#e5e7eb" stroke-width="0.5"/>
  <line x1="211.1" y1="207" x2="211.1" y2="362" stroke="#e5e7eb" stroke-width="0.5"/>
  <line x1="221.9" y1="207" x2="221.9" y2="362" stroke="#e5e7eb" stroke-width="0.5"/>
  <line x1="230.6" y1="207" x2="230.6" y2="362" stroke="#e5e7eb" stroke-width="0.5"/>
  <line x1="238.0" y1="207" x2="238.0" y2="362" stroke="#e5e7eb" stroke-width="0.5"/>
  <line x1="244.4" y1="207" x2="244.4" y2="362" stroke="#e5e7eb" stroke-width="0.5"/>
  <line x1="250.1" y1="207" x2="250.1" y2="362" stroke="#e5e7eb" stroke-width="0.5"/>
  <line x1="288.4" y1="207" x2="288.4" y2="362" stroke="#e5e7eb" stroke-width="0.5"/>
  <line x1="307.9" y1="207" x2="307.9" y2="362" stroke="#e5e7eb" stroke-width="0.5"/>
  <line x1="321.7" y1="207" x2="321.7" y2="362" stroke="#e5e7eb" stroke-width="0.5"/>
  <line x1="332.4" y1="207" x2="332.4" y2="362" stroke="#e5e7eb" stroke-width="0.5"/>
  <line x1="341.2" y1="207" x2="341.2" y2="362" stroke="#e5e7eb" stroke-width="0.5"/>
  <line x1="348.6" y1="207" x2="348.6" y2="362" stroke="#e5e7eb" stroke-width="0.5"/>
  <line x1="355.0" y1="207" x2="355.0" y2="362" stroke="#e5e7eb" stroke-width="0.5"/>
  <line x1="360.7" y1="207" x2="360.7" y2="362" stroke="#e5e7eb" stroke-width="0.5"/>
  <line x1="399.0" y1="207" x2="399.0" y2="362" stroke="#e5e7eb" stroke-width="0.5"/>
  <line x1="144.6" y1="207" x2="144.6" y2="362" stroke="#e5e7eb" stroke-width="0.5"/>
  <text x="144.6" y="374" text-anchor="middle" font-size="8" fill="#6b7280">100</text>
  <line x1="255.1" y1="207" x2="255.1" y2="362" stroke="#e5e7eb" stroke-width="0.5"/>
  <text x="255.1" y="374" text-anchor="middle" font-size="8" fill="#6b7280">1k</text>
  <line x1="365.7" y1="207" x2="365.7" y2="362" stroke="#e5e7eb" stroke-width="0.5"/>
  <text x="365.7" y="374" text-anchor="middle" font-size="8" fill="#6b7280">10k</text>
  <line x1="34" y1="327.8" x2="399" y2="327.8" stroke="#e5e7eb" stroke-width="0.5"/>
  <text x="30" y="330.8" text-anchor="end" font-size="8" fill="#6b7280">-700</text>
  <text x="30" y="287.5" text-anchor="end" font-size="8" fill="#6b7280">0</text>
  <line x1="34" y1="241.2" x2="399" y2="241.2" stroke="#e5e7eb" stroke-width="0.5"/>
  <text x="30" y="244.2" text-anchor="end" font-size="8" fill="#6b7280">700</text>
  <defs><linearGradient id="g598" x1="0" y1="207" x2="0" y2="284.5" gradientUnits="userSpaceOnUse">
    <stop offset="0%" stop-color="#2ecc71" stop-opacity="0.15"/>
    <stop offset="100%" stop-color="#2ecc71" stop-opacity="0.02"/>
  </linearGradient></defs>
  <defs><linearGradient id="g599" x1="0" y1="362" x2="0" y2="284.5" gradientUnits="userSpaceOnUse">
    <stop offset="0%" stop-color="#2ecc71" stop-opacity="0.15"/>
    <stop offset="100%" stop-color="#2ecc71" stop-opacity="0.02"/>
  </linearGradient></defs>
  <defs><clipPath id="c600"><rect x="34" y="207" width="365" height="77.5"/></clipPath></defs>
  <defs><clipPath id="c601"><rect x="34" y="284.5" width="365" height="77.5"/></clipPath></defs>
  <path d="M37.5,280.8 37.5,280.8 70.8,280.8 90.3,280.8 104.1,280.8 114.8,280.8 123.6,280.8 131.0,280.8 137.4,280.8 143.1,280.8 148.1,280.8 152.7,280.8 156.9,280.8 160.7,280.8 164.3,280.8 167.6,280.8 170.7,280.8 173.6,280.8 176.3,280.8 178.9,280.8 181.4,280.8 183.7,280.8 186.0,280.8 188.1,280.8 190.2,280.8 192.1,280.8 194.0,280.8 195.8,280.8 197.6,280.8 199.2,280.8 200.9,280.8 202.4,280.8 204.0,280.8 205.5,280.8 206.9,280.8 208.3,280.8 209.6,280.8 210.9,280.8 212.2,280.8 213.5,280.8 214.7,280.8 215.9,280.8 217.0,280.8 218.2,280.8 219.3,280.8 220.3,280.8 221.4,280.8 222.4,280.8 223.4,280.8 224.4,280.8 225.4,280.8 226.4,280.8 227.3,280.8 228.2,280.8 229.1,280.8 230.0,280.8 230.8,280.8 231.7,280.8 232.5,280.8 233.4,280.8 234.2,280.8 235.7,280.8 237.3,280.8 238.7,280.8 240.2,280.8 241.6,280.8 242.9,280.8 244.2,280.8 245.5,280.8 246.8,280.8 248.0,280.8 249.2,280.8 250.3,280.8 251.4,280.8 252.6,280.8 253.6,280.8 254.7,280.8 255.7,280.8 256.7,280.8 257.7,280.8 258.7,280.8 259.6,280.8 260.6,280.8 261.5,280.8 262.4,280.8 263.3,280.8 264.1,280.8 265.0,280.8 265.8,280.8 266.6,280.8 267.4,280.8 268.6,280.8 269.8,280.8 270.9,280.8 272.0,280.8 273.1,280.8 274.2,280.8 275.2,280.8 276.2,280.8 277.2,280.8 278.2,280.8 279.1,280.8 280.0,280.8 281.0,280.8 281.9,280.8 282.7,280.8 283.6,280.8 284.5,280.8 285.3,280.8 286.1,280.8 286.9,280.8 288.0,280.8 289.0,280.8 290.0,280.8 291.0,280.8 292.0,280.8 292.9,280.8 293.9,280.8 294.8,280.8 295.7,280.8 296.6,280.8 297.4,280.8 298.3,280.8 299.1,280.8 299.9,280.8 300.7,280.8 301.7,280.8 302.7,280.8 303.6,280.8 304.6,280.8 305.5,280.8 306.4,280.8 307.3,280.8 308.1,280.8 309.0,280.8 309.8,280.8 310.6,280.8 311.4,280.8 312.4,280.8 313.3,280.8 314.2,280.8 315.1,280.8 316.0,280.8 316.9,280.8 317.7,280.8 318.6,280.8 319.4,280.8 320.2,280.8 321.1,280.8 322.0,280.8 322.9,280.8 323.8,280.8 324.7,280.8 325.5,280.8 326.3,280.8 327.1,280.8 327.9,280.8 328.8,280.8 329.7,280.8 330.6,280.8 331.4,280.8 332.3,280.8 333.1,280.8 333.9,280.8 334.8,280.8 335.7,280.8 336.5,280.8 337.4,280.8 338.2,280.8 339.0,280.8 339.8,280.8 340.7,280.8 341.6,280.8 342.4,280.8 343.3,280.8 344.1,280.8 344.9,280.8 345.8,280.8 346.6,280.8 347.5,280.8 348.3,344.1 349.1,280.8 350.0,280.8 350.8,280.8 351.7,280.8 352.5,280.8 353.3,280.8 354.1,280.8 355.0,280.8 355.8,280.8 356.6,280.8 357.5,280.8 358.3,280.8 359.1,280.8 360.0,280.8 360.8,280.8 361.6,280.8 362.5,280.8 363.3,280.8 364.1,280.8 364.9,280.8 365.8,280.8 366.6,280.8 367.4,280.8 368.2,280.8 369.1,280.8 369.9,280.8 370.7,280.8 371.6,280.8 372.4,280.8 373.2,344.1 374.0,280.8 374.8,280.8 375.6,280.8 376.5,280.8 377.3,280.8 378.1,280.8 378.9,280.8 379.7,280.8 380.5,280.8 381.4,344.1 382.2,280.8 383.0,280.8 383.8,344.1 384.6,280.8 385.5,280.8 386.3,280.8 387.1,280.8 387.9,280.8 388.7,280.8 389.5,280.8 390.3,280.8 391.2,280.8 392.0,280.8 392.8,280.8 393.6,344.1 394.4,280.8 395.2,280.8 396.0,280.8 396.8,280.8 397.6,280.8 398.5,280.8 L398.5,284.5 L37.5,284.5 Z" fill="url(#g598)" clip-path="url(#c600)"/>
  <path d="M37.5,280.8 37.5,280.8 70.8,280.8 90.3,280.8 104.1,280.8 114.8,280.8 123.6,280.8 131.0,280.8 137.4,280.8 143.1,280.8 148.1,280.8 152.7,280.8 156.9,280.8 160.7,280.8 164.3,280.8 167.6,280.8 170.7,280.8 173.6,280.8 176.3,280.8 178.9,280.8 181.4,280.8 183.7,280.8 186.0,280.8 188.1,280.8 190.2,280.8 192.1,280.8 194.0,280.8 195.8,280.8 197.6,280.8 199.2,280.8 200.9,280.8 202.4,280.8 204.0,280.8 205.5,280.8 206.9,280.8 208.3,280.8 209.6,280.8 210.9,280.8 212.2,280.8 213.5,280.8 214.7,280.8 215.9,280.8 217.0,280.8 218.2,280.8 219.3,280.8 220.3,280.8 221.4,280.8 222.4,280.8 223.4,280.8 224.4,280.8 225.4,280.8 226.4,280.8 227.3,280.8 228.2,280.8 229.1,280.8 230.0,280.8 230.8,280.8 231.7,280.8 232.5,280.8 233.4,280.8 234.2,280.8 235.7,280.8 237.3,280.8 238.7,280.8 240.2,280.8 241.6,280.8 242.9,280.8 244.2,280.8 245.5,280.8 246.8,280.8 248.0,280.8 249.2,280.8 250.3,280.8 251.4,280.8 252.6,280.8 253.6,280.8 254.7,280.8 255.7,280.8 256.7,280.8 257.7,280.8 258.7,280.8 259.6,280.8 260.6,280.8 261.5,280.8 262.4,280.8 263.3,280.8 264.1,280.8 265.0,280.8 265.8,280.8 266.6,280.8 267.4,280.8 268.6,280.8 269.8,280.8 270.9,280.8 272.0,280.8 273.1,280.8 274.2,280.8 275.2,280.8 276.2,280.8 277.2,280.8 278.2,280.8 279.1,280.8 280.0,280.8 281.0,280.8 281.9,280.8 282.7,280.8 283.6,280.8 284.5,280.8 285.3,280.8 286.1,280.8 286.9,280.8 288.0,280.8 289.0,280.8 290.0,280.8 291.0,280.8 292.0,280.8 292.9,280.8 293.9,280.8 294.8,280.8 295.7,280.8 296.6,280.8 297.4,280.8 298.3,280.8 299.1,280.8 299.9,280.8 300.7,280.8 301.7,280.8 302.7,280.8 303.6,280.8 304.6,280.8 305.5,280.8 306.4,280.8 307.3,280.8 308.1,280.8 309.0,280.8 309.8,280.8 310.6,280.8 311.4,280.8 312.4,280.8 313.3,280.8 314.2,280.8 315.1,280.8 316.0,280.8 316.9,280.8 317.7,280.8 318.6,280.8 319.4,280.8 320.2,280.8 321.1,280.8 322.0,280.8 322.9,280.8 323.8,280.8 324.7,280.8 325.5,280.8 326.3,280.8 327.1,280.8 327.9,280.8 328.8,280.8 329.7,280.8 330.6,280.8 331.4,280.8 332.3,280.8 333.1,280.8 333.9,280.8 334.8,280.8 335.7,280.8 336.5,280.8 337.4,280.8 338.2,280.8 339.0,280.8 339.8,280.8 340.7,280.8 341.6,280.8 342.4,280.8 343.3,280.8 344.1,280.8 344.9,280.8 345.8,280.8 346.6,280.8 347.5,280.8 348.3,344.1 349.1,280.8 350.0,280.8 350.8,280.8 351.7,280.8 352.5,280.8 353.3,280.8 354.1,280.8 355.0,280.8 355.8,280.8 356.6,280.8 357.5,280.8 358.3,280.8 359.1,280.8 360.0,280.8 360.8,280.8 361.6,280.8 362.5,280.8 363.3,280.8 364.1,280.8 364.9,280.8 365.8,280.8 366.6,280.8 367.4,280.8 368.2,280.8 369.1,280.8 369.9,280.8 370.7,280.8 371.6,280.8 372.4,280.8 373.2,344.1 374.0,280.8 374.8,280.8 375.6,280.8 376.5,280.8 377.3,280.8 378.1,280.8 378.9,280.8 379.7,280.8 380.5,280.8 381.4,344.1 382.2,280.8 383.0,280.8 383.8,344.1 384.6,280.8 385.5,280.8 386.3,280.8 387.1,280.8 387.9,280.8 388.7,280.8 389.5,280.8 390.3,280.8 391.2,280.8 392.0,280.8 392.8,280.8 393.6,344.1 394.4,280.8 395.2,280.8 396.0,280.8 396.8,280.8 397.6,280.8 398.5,280.8 L398.5,284.5 L37.5,284.5 Z" fill="url(#g599)" clip-path="url(#c601)"/>
  <defs><clipPath id="pc602"><rect x="34" y="207" width="365" height="155"/></clipPath></defs>
  <polyline points="37.5,280.8 70.8,280.8 90.3,280.8 104.1,280.8 114.8,280.8 123.6,280.8 131.0,280.8 137.4,280.8 143.1,280.8 148.1,280.8 152.7,280.8 156.9,280.8 160.7,280.8 164.3,280.8 167.6,280.8 170.7,280.8 173.6,280.8 176.3,280.8 178.9,280.8 181.4,280.8 183.7,280.8 186.0,280.8 188.1,280.8 190.2,280.8 192.1,280.8 194.0,280.8 195.8,280.8 197.6,280.8 199.2,280.8 200.9,280.8 202.4,280.8 204.0,280.8 205.5,280.8 206.9,280.8 208.3,280.8 209.6,280.8 210.9,280.8 212.2,280.8 213.5,280.8 214.7,280.8 215.9,280.8 217.0,280.8 218.2,280.8 219.3,280.8 220.3,280.8 221.4,280.8 222.4,280.8 223.4,280.8 224.4,280.8 225.4,280.8 226.4,280.8 227.3,280.8 228.2,280.8 229.1,280.8 230.0,280.8 230.8,280.8 231.7,280.8 232.5,280.8 233.4,280.8 234.2,280.8 235.7,280.8 237.3,280.8 238.7,280.8 240.2,280.8 241.6,280.8 242.9,280.8 244.2,280.8 245.5,280.8 246.8,280.8 248.0,280.8 249.2,280.8 250.3,280.8 251.4,280.8 252.6,280.8 253.6,280.8 254.7,280.8 255.7,280.8 256.7,280.8 257.7,280.8 258.7,280.8 259.6,280.8 260.6,280.8 261.5,280.8 262.4,280.8 263.3,280.8 264.1,280.8 265.0,280.8 265.8,280.8 266.6,280.8 267.4,280.8 268.6,280.8 269.8,280.8 270.9,280.8 272.0,280.8 273.1,280.8 274.2,280.8 275.2,280.8 276.2,280.8 277.2,280.8 278.2,280.8 279.1,280.8 280.0,280.8 281.0,280.8 281.9,280.8 282.7,280.8 283.6,280.8 284.5,280.8 285.3,280.8 286.1,280.8 286.9,280.8 288.0,280.8 289.0,280.8 290.0,280.8 291.0,280.8 292.0,280.8 292.9,280.8 293.9,280.8 294.8,280.8 295.7,280.8 296.6,280.8 297.4,280.8 298.3,280.8 299.1,280.8 299.9,280.8 300.7,280.8 301.7,280.8 302.7,280.8 303.6,280.8 304.6,280.8 305.5,280.8 306.4,280.8 307.3,280.8 308.1,280.8 309.0,280.8 309.8,280.8 310.6,280.8 311.4,280.8 312.4,280.8 313.3,280.8 314.2,280.8 315.1,280.8 316.0,280.8 316.9,280.8 317.7,280.8 318.6,280.8 319.4,280.8 320.2,280.8 321.1,280.8 322.0,280.8 322.9,280.8 323.8,280.8 324.7,280.8 325.5,280.8 326.3,280.8 327.1,280.8 327.9,280.8 328.8,280.8 329.7,280.8 330.6,280.8 331.4,280.8 332.3,280.8 333.1,280.8 333.9,280.8 334.8,280.8 335.7,280.8 336.5,280.8 337.4,280.8 338.2,280.8 339.0,280.8 339.8,280.8 340.7,280.8 341.6,280.8 342.4,280.8 343.3,280.8 344.1,280.8 344.9,280.8 345.8,280.8 346.6,280.8 347.5,280.8 348.3,344.1 349.1,280.8 350.0,280.8 350.8,280.8 351.7,280.8 352.5,280.8 353.3,280.8 354.1,280.8 355.0,280.8 355.8,280.8 356.6,280.8 357.5,280.8 358.3,280.8 359.1,280.8 360.0,280.8 360.8,280.8 361.6,280.8 362.5,280.8 363.3,280.8 364.1,280.8 364.9,280.8 365.8,280.8 366.6,280.8 367.4,280.8 368.2,280.8 369.1,280.8 369.9,280.8 370.7,280.8 371.6,280.8 372.4,280.8 373.2,344.1 374.0,280.8 374.8,280.8 375.6,280.8 376.5,280.8 377.3,280.8 378.1,280.8 378.9,280.8 379.7,280.8 380.5,280.8 381.4,344.1 382.2,280.8 383.0,280.8 383.8,344.1 384.6,280.8 385.5,280.8 386.3,280.8 387.1,280.8 387.9,280.8 388.7,280.8 389.5,280.8 390.3,280.8 391.2,280.8 392.0,280.8 392.8,280.8 393.6,344.1 394.4,280.8 395.2,280.8 396.0,280.8 396.8,280.8 397.6,280.8 398.5,280.8" fill="none" stroke="#2ecc71" stroke-width="1.5" stroke-linejoin="round" clip-path="url(#pc602)"/>
  <line x1="435" y1="207" x2="435" y2="362" stroke="#d1d5db"/>
  <line x1="435" y1="284.5" x2="800" y2="284.5" stroke="#d1d5db"/>
  <text x="617.5" y="388" text-anchor="middle" font-size="9" fill="#6b7280">Samples</text>
  <text x="413" y="284.5" text-anchor="middle" font-size="9" fill="#6b7280" transform="rotate(-90 413 284.5)">Impulse response</text>
  <line x1="435.0" y1="207" x2="435.0" y2="362" stroke="#e5e7eb" stroke-width="0.5"/>
  <text x="435.0" y="374" text-anchor="middle" font-size="8" fill="#6b7280">0</text>
  <line x1="585.8" y1="207" x2="585.8" y2="362" stroke="#e5e7eb" stroke-width="0.5"/>
  <text x="585.8" y="374" text-anchor="middle" font-size="8" fill="#6b7280">50</text>
  <line x1="736.7" y1="207" x2="736.7" y2="362" stroke="#e5e7eb" stroke-width="0.5"/>
  <text x="736.7" y="374" text-anchor="middle" font-size="8" fill="#6b7280">100</text>
  <line x1="435" y1="353.4" x2="800" y2="353.4" stroke="#e5e7eb" stroke-width="0.5"/>
  <text x="431" y="356.4" text-anchor="end" font-size="8" fill="#6b7280">-0.2</text>
  <text x="431" y="287.5" text-anchor="end" font-size="8" fill="#6b7280">0</text>
  <line x1="435" y1="215.6" x2="800" y2="215.6" stroke="#e5e7eb" stroke-width="0.5"/>
  <text x="431" y="218.6" text-anchor="end" font-size="8" fill="#6b7280">0.2</text>
  <defs><linearGradient id="g603" x1="0" y1="207" x2="0" y2="284.5" gradientUnits="userSpaceOnUse">
    <stop offset="0%" stop-color="#f39c12" stop-opacity="0.15"/>
    <stop offset="100%" stop-color="#f39c12" stop-opacity="0.02"/>
  </linearGradient></defs>
  <defs><linearGradient id="g604" x1="0" y1="362" x2="0" y2="284.5" gradientUnits="userSpaceOnUse">
    <stop offset="0%" stop-color="#f39c12" stop-opacity="0.15"/>
    <stop offset="100%" stop-color="#f39c12" stop-opacity="0.02"/>
  </linearGradient></defs>
  <defs><clipPath id="c605"><rect x="435" y="207" width="365" height="77.5"/></clipPath></defs>
  <defs><clipPath id="c606"><rect x="435" y="284.5" width="365" height="77.5"/></clipPath></defs>
  <path d="M435.0,284.6 435.0,284.6 438.0,284.6 441.0,284.5 444.0,284.4 447.1,284.3 450.1,284.3 453.1,284.4 456.1,284.6 459.1,284.7 462.1,284.8 465.2,284.7 468.2,284.5 471.2,284.3 474.2,284.1 477.2,284.1 480.2,284.3 483.3,284.7 486.3,285.0 489.3,285.2 492.3,285.0 495.3,284.5 498.3,283.9 501.4,283.5 504.4,283.6 507.4,284.1 510.4,285.0 513.4,285.8 516.4,286.0 519.5,285.5 522.5,284.4 525.5,283.1 528.5,282.4 531.5,282.6 534.5,283.9 537.6,285.7 540.6,287.2 543.6,287.5 546.6,286.3 549.6,283.9 552.6,281.5 555.7,280.3 558.7,281.0 561.7,283.7 564.7,287.3 567.7,290.0 570.7,290.3 573.8,287.6 576.8,282.7 579.8,277.8 582.8,275.3 585.8,277.2 588.8,283.6 591.9,292.2 594.9,299.3 597.9,300.4 600.9,292.8 603.9,276.1 606.9,253.5 610.0,230.5 613.0,213.3 616.0,207.0 619.0,213.3 622.0,230.5 625.0,253.5 628.1,276.1 631.1,292.8 634.1,300.4 637.1,299.3 640.1,292.2 643.1,283.6 646.2,277.2 649.2,275.3 652.2,277.8 655.2,282.7 658.2,287.6 661.2,290.3 664.3,290.0 667.3,287.3 670.3,283.7 673.3,281.0 676.3,280.3 679.3,281.5 682.4,283.9 685.4,286.3 688.4,287.5 691.4,287.2 694.4,285.7 697.4,283.9 700.5,282.6 703.5,282.4 706.5,283.1 709.5,284.4 712.5,285.5 715.5,286.0 718.6,285.8 721.6,285.0 724.6,284.1 727.6,283.6 730.6,283.5 733.6,283.9 736.7,284.5 739.7,285.0 742.7,285.2 745.7,285.0 748.7,284.7 751.7,284.3 754.8,284.1 757.8,284.1 760.8,284.3 763.8,284.5 766.8,284.7 769.8,284.8 772.9,284.7 775.9,284.6 778.9,284.4 781.9,284.3 784.9,284.3 787.9,284.4 791.0,284.5 794.0,284.6 797.0,284.6 L797.0,284.5 L435.0,284.5 Z" fill="url(#g603)" clip-path="url(#c605)"/>
  <path d="M435.0,284.6 435.0,284.6 438.0,284.6 441.0,284.5 444.0,284.4 447.1,284.3 450.1,284.3 453.1,284.4 456.1,284.6 459.1,284.7 462.1,284.8 465.2,284.7 468.2,284.5 471.2,284.3 474.2,284.1 477.2,284.1 480.2,284.3 483.3,284.7 486.3,285.0 489.3,285.2 492.3,285.0 495.3,284.5 498.3,283.9 501.4,283.5 504.4,283.6 507.4,284.1 510.4,285.0 513.4,285.8 516.4,286.0 519.5,285.5 522.5,284.4 525.5,283.1 528.5,282.4 531.5,282.6 534.5,283.9 537.6,285.7 540.6,287.2 543.6,287.5 546.6,286.3 549.6,283.9 552.6,281.5 555.7,280.3 558.7,281.0 561.7,283.7 564.7,287.3 567.7,290.0 570.7,290.3 573.8,287.6 576.8,282.7 579.8,277.8 582.8,275.3 585.8,277.2 588.8,283.6 591.9,292.2 594.9,299.3 597.9,300.4 600.9,292.8 603.9,276.1 606.9,253.5 610.0,230.5 613.0,213.3 616.0,207.0 619.0,213.3 622.0,230.5 625.0,253.5 628.1,276.1 631.1,292.8 634.1,300.4 637.1,299.3 640.1,292.2 643.1,283.6 646.2,277.2 649.2,275.3 652.2,277.8 655.2,282.7 658.2,287.6 661.2,290.3 664.3,290.0 667.3,287.3 670.3,283.7 673.3,281.0 676.3,280.3 679.3,281.5 682.4,283.9 685.4,286.3 688.4,287.5 691.4,287.2 694.4,285.7 697.4,283.9 700.5,282.6 703.5,282.4 706.5,283.1 709.5,284.4 712.5,285.5 715.5,286.0 718.6,285.8 721.6,285.0 724.6,284.1 727.6,283.6 730.6,283.5 733.6,283.9 736.7,284.5 739.7,285.0 742.7,285.2 745.7,285.0 748.7,284.7 751.7,284.3 754.8,284.1 757.8,284.1 760.8,284.3 763.8,284.5 766.8,284.7 769.8,284.8 772.9,284.7 775.9,284.6 778.9,284.4 781.9,284.3 784.9,284.3 787.9,284.4 791.0,284.5 794.0,284.6 797.0,284.6 L797.0,284.5 L435.0,284.5 Z" fill="url(#g604)" clip-path="url(#c606)"/>
  <defs><clipPath id="pc607"><rect x="435" y="207" width="365" height="155"/></clipPath></defs>
  <polyline points="435.0,284.6 438.0,284.6 441.0,284.5 444.0,284.4 447.1,284.3 450.1,284.3 453.1,284.4 456.1,284.6 459.1,284.7 462.1,284.8 465.2,284.7 468.2,284.5 471.2,284.3 474.2,284.1 477.2,284.1 480.2,284.3 483.3,284.7 486.3,285.0 489.3,285.2 492.3,285.0 495.3,284.5 498.3,283.9 501.4,283.5 504.4,283.6 507.4,284.1 510.4,285.0 513.4,285.8 516.4,286.0 519.5,285.5 522.5,284.4 525.5,283.1 528.5,282.4 531.5,282.6 534.5,283.9 537.6,285.7 540.6,287.2 543.6,287.5 546.6,286.3 549.6,283.9 552.6,281.5 555.7,280.3 558.7,281.0 561.7,283.7 564.7,287.3 567.7,290.0 570.7,290.3 573.8,287.6 576.8,282.7 579.8,277.8 582.8,275.3 585.8,277.2 588.8,283.6 591.9,292.2 594.9,299.3 597.9,300.4 600.9,292.8 603.9,276.1 606.9,253.5 610.0,230.5 613.0,213.3 616.0,207.0 619.0,213.3 622.0,230.5 625.0,253.5 628.1,276.1 631.1,292.8 634.1,300.4 637.1,299.3 640.1,292.2 643.1,283.6 646.2,277.2 649.2,275.3 652.2,277.8 655.2,282.7 658.2,287.6 661.2,290.3 664.3,290.0 667.3,287.3 670.3,283.7 673.3,281.0 676.3,280.3 679.3,281.5 682.4,283.9 685.4,286.3 688.4,287.5 691.4,287.2 694.4,285.7 697.4,283.9 700.5,282.6 703.5,282.4 706.5,283.1 709.5,284.4 712.5,285.5 715.5,286.0 718.6,285.8 721.6,285.0 724.6,284.1 727.6,283.6 730.6,283.5 733.6,283.9 736.7,284.5 739.7,285.0 742.7,285.2 745.7,285.0 748.7,284.7 751.7,284.3 754.8,284.1 757.8,284.1 760.8,284.3 763.8,284.5 766.8,284.7 769.8,284.8 772.9,284.7 775.9,284.6 778.9,284.4 781.9,284.3 784.9,284.3 787.9,284.4 791.0,284.5 794.0,284.6 797.0,284.6" fill="none" stroke="#f39c12" stroke-width="1.3" stroke-linejoin="round" clip-path="url(#pc607)"/>
</svg>
