<svg xmlns="http://www.w3.org/2000/svg" viewBox="0 0 820 378" style="font-family:system-ui,-apple-system,sans-serif">
  <text x="800" y="11" text-anchor="end" font-size="11" font-weight="600" fill="#6b7280">Differentiator, 31 taps</text>
  <line x1="34" y1="16" x2="34" y2="171" stroke="#d1d5db"/>
  <line x1="34" y1="47.0" x2="399" y2="47.0" stroke="#d1d5db"/>
  <text x="216.5" y="197" text-anchor="middle" font-size="9" fill="#6b7280">Hz</text>
  <text x="12" y="93.5" text-anchor="middle" font-size="9" fill="#6b7280" transform="rotate(-90 12 93.5)">dB</text>
  <line x1="67.3" y1="16" x2="67.3" y2="171" stroke="#e5e7eb" stroke-width="0.5"/>
  <line x1="86.8" y1="16" x2="86.8" y2="171" stroke="#e5e7eb" stroke-width="0.5"/>
  <line x1="100.6" y1="16" x2="100.6" y2="171" stroke="#e5e7eb" stroke-width="0.5"/>
  <line x1="111.3" y1="16" x2="111.3" y2="171" stroke="#e5e7eb" stroke-width="0.5"/>
  <line x1="120.0" y1="16" x2="120.0" y2="171" stroke="#e5e7eb" stroke-width="0.5"/>
  <line x1="127.4" y1="16" x2="127.4" y2="171" stroke="#e5e7eb" stroke-width="0.5"/>
  <line x1="133.9" y1="16" x2="133.9" y2="171" stroke="#e5e7eb" stroke-width="0.5"/>
  <line x1="139.5" y1="16" x2="139.5" y2="171" stroke="#e5e7eb" stroke-width="0.5"/>
  <line x1="177.9" y1="16" x2="177.9" y2="171" stroke="#e5e7eb" stroke-width="0.5"/>
  <line x1="197.3" y1="16" x2="197.3" y2="171" stroke="#e5e7eb" stroke-width="0.5"/>
  <line x1="211.1" y1="16" x2="211.1" y2="171" stroke="#e5e7eb" stroke-width="0.5"/>
  <line x1="221.9" y1="16" x2="221.9" y2="171" stroke="#e5e7eb" stroke-width="0.5"/>
  <line x1="230.6" y1="16" x2="230.6" y2="171" stroke="#e5e7eb" stroke-width="0.5"/>
  <line x1="238.0" y1="16" x2="238.0" y2="171" stroke="#e5e7eb" stroke-width="0.5"/>
  <line x1="244.4" y1="16" x2="244.4" y2="171" stroke="#e5e7eb" stroke-width="0.5"/>
  <line x1="250.1" y1="16" x2="250.1" y2="171" stroke="#e5e7eb" stroke-width="0.5"/>
  <line x1="288.4" y1="16" x2="288.4" y2="171" stroke="#e5e7eb" stroke-width="0.5"/>
  <line x1="307.9" y1="16" x2="307.9" y2="171" stroke="#e5e7eb" stroke-width="0.5"/>
  <line x1="321.7" y1="16" x2="321.7" y2="171" stroke="#e5e7eb" stroke-width="0.5"/>
  <line x1="332.4" y1="16" x2="332.4" y2="171" stroke="#e5e7eb" stroke-width="0.5"/>
  <line x1="341.2" y1="16" x2="341.2" y2="171" stroke="#e5e7eb" stroke-width="0.5"/>
  <line x1="348.6" y1="16" x2="348.6" y2="171" stroke="#e5e7eb" stroke-width="0.5"/>
  <line x1="355.0" y1="16" x2="355.0" y2="171" stroke="#e5e7eb" stroke-width="0.5"/>
  <line x1="360.7" y1="16" x2="360.7" y2="171" stroke="#e5e7eb" stroke-width="0.5"/>
  <line x1="399.0" y1="16" x2="399.0" y2="171" stroke="#e5e7eb" stroke-width="0.5"/>
  <line x1="144.6" y1="16" x2="144.6" y2="171" stroke="#e5e7eb" stroke-width="0.5"/>
  <text x="144.6" y="183" text-anchor="middle" font-size="8" fill="#6b7280">100</text>
  <line x1="255.1" y1="16" x2="255.1" y2="171" stroke="#e5e7eb" stroke-width="0.5"/>
  <text x="255.1" y="183" text-anchor="middle" font-size="8" fill="#6b7280">1k</text>
  <line x1="365.7" y1="16" x2="365.7" y2="171" stroke="#e5e7eb" stroke-width="0.5"/>
  <text x="365.7" y="183" text-anchor="middle" font-size="8" fill="#6b7280">10k</text>
  <line x1="34" y1="31.5" x2="399" y2="31.5" stroke="#e5e7eb" stroke-width="0.5"/>
  <line x1="34" y1="62.5" x2="399" y2="62.5" stroke="#e5e7eb" stroke-width="0.5"/>
  <line x1="34" y1="16.0" x2="399" y2="16.0" stroke="#e5e7eb" stroke-width="0.5"/>
  <text x="30" y="19.0" text-anchor="end" font-size="8" fill="#6b7280">+20</text>
  <text x="30" y="50.0" text-anchor="end" font-size="8" fill="#6b7280">0</text>
  <line x1="34" y1="78.0" x2="399" y2="78.0" stroke="#e5e7eb" stroke-width="0.5"/>
  <text x="30" y="81.0" text-anchor="end" font-size="8" fill="#6b7280">-20</text>
  <line x1="34" y1="109.0" x2="399" y2="109.0" stroke="#e5e7eb" stroke-width="0.5"/>
  <text x="30" y="112.0" text-anchor="end" font-size="8" fill="#6b7280">-40</text>
  <line x1="34" y1="140.0" x2="399" y2="140.0" stroke="#e5e7eb" stroke-width="0.5"/>
  <text x="30" y="143.0" text-anchor="end" font-size="8" fill="#6b7280">-60</text>
  <line x1="34" y1="171.0" x2="399" y2="171.0" stroke="#e5e7eb" stroke-width="0.5"/>
  <text x="30" y="174.0" text-anchor="end" font-size="8" fill="#6b7280">-80</text>
  <defs><linearGradient id="g356" x1="0" y1="16" x2="0" y2="171" gradientUnits="userSpaceOnUse">
    <stop offset="0%" stop-color="#4a90d9" stop-opacity="0.15"/>
    <stop offset="100%" stop-color="#4a90d9" stop-opacity="0.02"/>
  </linearGradient></defs>
  <path d="M37.5,133.2 37.5,133.2 70.8,123.9 90.3,118.4 104.1,114.5 114.8,111.5 123.6,109.1 131.0,107.0 137.4,105.2 143.1,103.6 148.1,102.2 152.7,100.9 156.9,99.8 160.7,98.7 164.3,97.7 167.6,96.8 170.7,95.9 173.6,95.1 176.3,94.3 178.9,93.6 181.4,92.9 183.7,92.3 186.0,91.6 188.1,91.0 190.2,90.5 192.1,89.9 194.0,89.4 195.8,88.9 197.6,88.4 199.2,87.9 200.9,87.5 202.4,87.1 204.0,86.6 205.5,86.2 206.9,85.8 208.3,85.4 209.6,85.1 210.9,84.7 212.2,84.4 213.5,84.0 214.7,83.7 215.9,83.4 217.0,83.0 218.2,82.7 219.3,82.4 220.3,82.1 221.4,81.8 222.4,81.6 223.4,81.3 224.4,81.0 225.4,80.8 226.4,80.5 227.3,80.2 228.2,80.0 229.1,79.8 230.0,79.5 230.8,79.3 231.7,79.1 232.5,78.8 233.4,78.6 234.2,78.4 235.7,78.0 237.3,77.6 238.7,77.2 240.2,76.8 241.6,76.4 242.9,76.1 244.2,75.7 245.5,75.4 246.8,75.0 248.0,74.7 249.2,74.4 250.3,74.1 251.4,73.8 252.6,73.5 253.6,73.2 254.7,73.0 255.7,72.7 256.7,72.4 257.7,72.2 258.7,71.9 259.6,71.7 260.6,71.4 261.5,71.2 262.4,71.0 263.3,70.7 264.1,70.5 265.0,70.3 265.8,70.1 266.6,69.9 267.4,69.7 268.6,69.4 269.8,69.1 270.9,68.8 272.0,68.5 273.1,68.2 274.2,67.9 275.2,67.7 276.2,67.4 277.2,67.2 278.2,66.9 279.1,66.7 280.0,66.4 281.0,66.2 281.9,65.9 282.7,65.7 283.6,65.5 284.5,65.2 285.3,65.0 286.1,64.8 286.9,64.6 288.0,64.3 289.0,64.0 290.0,63.7 291.0,63.4 292.0,63.1 292.9,62.9 293.9,62.6 294.8,62.3 295.7,62.1 296.6,61.8 297.4,61.6 298.3,61.3 299.1,61.0 299.9,60.8 300.7,60.6 301.7,60.3 302.7,60.0 303.6,59.7 304.6,59.4 305.5,59.1 306.4,58.8 307.3,58.6 308.1,58.3 309.0,58.1 309.8,57.8 310.6,57.6 311.4,57.3 312.4,57.1 313.3,56.8 314.2,56.5 315.1,56.3 316.0,56.0 316.9,55.8 317.7,55.6 318.6,55.3 319.4,55.1 320.2,54.9 321.1,54.7 322.0,54.4 322.9,54.2 323.8,54.0 324.7,53.7 325.5,53.5 326.3,53.3 327.1,53.1 327.9,52.9 328.8,52.7 329.7,52.4 330.6,52.2 331.4,51.9 332.3,51.7 333.1,51.5 333.9,51.2 334.8,51.0 335.7,50.7 336.5,50.5 337.4,50.2 338.2,50.0 339.0,49.7 339.8,49.5 340.7,49.2 341.6,48.9 342.4,48.7 343.3,48.4 344.1,48.2 344.9,48.0 345.8,47.8 346.6,47.5 347.5,47.3 348.3,47.1 349.1,46.9 350.0,46.7 350.8,46.4 351.7,46.2 352.5,46.0 353.3,45.8 354.1,45.5 355.0,45.3 355.8,45.1 356.6,44.8 357.5,44.6 358.3,44.3 359.1,44.1 360.0,43.8 360.8,43.6 361.6,43.3 362.5,43.1 363.3,42.9 364.1,42.6 364.9,42.4 365.8,42.2 366.6,42.0 367.4,41.8 368.2,41.6 369.1,41.4 369.9,41.1 370.7,40.9 371.6,40.6 372.4,40.4 373.2,40.1 374.0,39.9 374.8,39.6 375.6,39.4 376.5,39.2 377.3,39.0 378.1,38.8 378.9,38.6 379.7,38.4 380.5,38.1 381.4,37.9 382.2,37.6 383.0,37.4 383.8,37.1 384.6,36.9 385.5,36.6 386.3,36.4 387.1,36.2 387.9,36.0 388.7,35.8 389.5,35.6 390.3,35.4 391.2,35.1 392.0,34.9 392.8,34.6 393.6,34.4 394.4,34.1 395.2,33.9 396.0,33.7 396.8,33.4 397.6,33.3 398.5,33.3 L398.5,171.0 L37.5,171.0 Z" fill="url(#g356)"/>
  <defs><clipPath id="pc357"><rect x="34" y="16" width="365" height="155"/></clipPath></defs>
  <polyline points="37.5,133.2 70.8,123.9 90.3,118.4 104.1,114.5 114.8,111.5 123.6,109.1 131.0,107.0 137.4,105.2 143.1,103.6 148.1,102.2 152.7,100.9 156.9,99.8 160.7,98.7 164.3,97.7 167.6,96.8 170.7,95.9 173.6,95.1 176.3,94.3 178.9,93.6 181.4,92.9 183.7,92.3 186.0,91.6 188.1,91.0 190.2,90.5 192.1,89.9 194.0,89.4 195.8,88.9 197.6,88.4 199.2,87.9 200.9,87.5 202.4,87.1 204.0,86.6 205.5,86.2 206.9,85.8 208.3,85.4 209.6,85.1 210.9,84.7 212.2,84.4 213.5,84.0 214.7,83.7 215.9,83.4 217.0,83.0 218.2,82.7 219.3,82.4 220.3,82.1 221.4,81.8 222.4,81.6 223.4,81.3 224.4,81.0 225.4,80.8 226.4,80.5 227.3,80.2 228.2,80.0 229.1,79.8 230.0,79.5 230.8,79.3 231.7,79.1 232.5,78.8 233.4,78.6 234.2,78.4 235.7,78.0 237.3,77.6 238.7,77.2 240.2,76.8 241.6,76.4 242.9,76.1 244.2,75.7 245.5,75.4 246.8,75.0 248.0,74.7 249.2,74.4 250.3,74.1 251.4,73.8 252.6,73.5 253.6,73.2 254.7,73.0 255.7,72.7 256.7,72.4 257.7,72.2 258.7,71.9 259.6,71.7 260.6,71.4 261.5,71.2 262.4,71.0 263.3,70.7 264.1,70.5 265.0,70.3 265.8,70.1 266.6,69.9 267.4,69.7 268.6,69.4 269.8,69.1 270.9,68.8 272.0,68.5 273.1,68.2 274.2,67.9 275.2,67.7 276.2,67.4 277.2,67.2 278.2,66.9 279.1,66.7 280.0,66.4 281.0,66.2 281.9,65.9 282.7,65.7 283.6,65.5 284.5,65.2 285.3,65.0 286.1,64.8 286.9,64.6 288.0,64.3 289.0,64.0 290.0,63.7 291.0,63.4 292.0,63.1 292.9,62.9 293.9,62.6 294.8,62.3 295.7,62.1 296.6,61.8 297.4,61.6 298.3,61.3 299.1,61.0 299.9,60.8 300.7,60.6 301.7,60.3 302.7,60.0 303.6,59.7 304.6,59.4 305.5,59.1 306.4,58.8 307.3,58.6 308.1,58.3 309.0,58.1 309.8,57.8 310.6,57.6 311.4,57.3 312.4,57.1 313.3,56.8 314.2,56.5 315.1,56.3 316.0,56.0 316.9,55.8 317.7,55.6 318.6,55.3 319.4,55.1 320.2,54.9 321.1,54.7 322.0,54.4 322.9,54.2 323.8,54.0 324.7,53.7 325.5,53.5 326.3,53.3 327.1,53.1 327.9,52.9 328.8,52.7 329.7,52.4 330.6,52.2 331.4,51.9 332.3,51.7 333.1,51.5 333.9,51.2 334.8,51.0 335.7,50.7 336.5,50.5 337.4,50.2 338.2,50.0 339.0,49.7 339.8,49.5 340.7,49.2 341.6,48.9 342.4,48.7 343.3,48.4 344.1,48.2 344.9,48.0 345.8,47.8 346.6,47.5 347.5,47.3 348.3,47.1 349.1,46.9 350.0,46.7 350.8,46.4 351.7,46.2 352.5,46.0 353.3,45.8 354.1,45.5 355.0,45.3 355.8,45.1 356.6,44.8 357.5,44.6 358.3,44.3 359.1,44.1 360.0,43.8 360.8,43.6 361.6,43.3 362.5,43.1 363.3,42.9 364.1,42.6 364.9,42.4 365.8,42.2 366.6,42.0 367.4,41.8 368.2,41.6 369.1,41.4 369.9,41.1 370.7,40.9 371.6,40.6 372.4,40.4 373.2,40.1 374.0,39.9 374.8,39.6 375.6,39.4 376.5,39.2 377.3,39.0 378.1,38.8 378.9,38.6 379.7,38.4 380.5,38.1 381.4,37.9 382.2,37.6 383.0,37.4 383.8,37.1 384.6,36.9 385.5,36.6 386.3,36.4 387.1,36.2 387.9,36.0 388.7,35.8 389.5,35.6 390.3,35.4 391.2,35.1 392.0,34.9 392.8,34.6 393.6,34.4 394.4,34.1 395.2,33.9 396.0,33.7 396.8,33.4 397.6,33.3 398.5,33.3" fill="none" stroke="#4a90d9" stroke-width="1.5" stroke-linejoin="round" clip-path="url(#pc357)"/>
  <line x1="435" y1="16" x2="435" y2="171" stroke="#d1d5db"/>
  <line x1="435" y1="93.5" x2="800" y2="93.5" stroke="#d1d5db"/>
  <text x="617.5" y="197" text-anchor="middle" font-size="9" fill="#6b7280">Hz</text>
  <text x="413" y="93.5" text-anchor="middle" font-size="9" fill="#6b7280" transform="rotate(-90 413 93.5)">Phase (deg)</text>
  <line x1="468.3" y1="16" x2="468.3" y2="171" stroke="#e5e7eb" stroke-width="0.5"/>
  <line x1="487.8" y1="16" x2="487.8" y2="171" stroke="#e5e7eb" stroke-width="0.5"/>
  <line x1="501.6" y1="16" x2="501.6" y2="171" stroke="#e5e7eb" stroke-width="0.5"/>
  <line x1="512.3" y1="16" x2="512.3" y2="171" stroke="#e5e7eb" stroke-width="0.5"/>
  <line x1="521.0" y1="16" x2="521.0" y2="171" stroke="#e5e7eb" stroke-width="0.5"/>
  <line x1="528.4" y1="16" x2="528.4" y2="171" stroke="#e5e7eb" stroke-width="0.5"/>
  <line x1="534.9" y1="16" x2="534.9" y2="171" stroke="#e5e7eb" stroke-width="0.5"/>
  <line x1="540.5" y1="16" x2="540.5" y2="171" stroke="#e5e7eb" stroke-width="0.5"/>
  <line x1="578.9" y1="16" x2="578.9" y2="171" stroke="#e5e7eb" stroke-width="0.5"/>
  <line x1="598.3" y1="16" x2="598.3" y2="171" stroke="#e5e7eb" stroke-width="0.5"/>
  <line x1="612.1" y1="16" x2="612.1" y2="171" stroke="#e5e7eb" stroke-width="0.5"/>
  <line x1="622.9" y1="16" x2="622.9" y2="171" stroke="#e5e7eb" stroke-width="0.5"/>
  <line x1="631.6" y1="16" x2="631.6" y2="171" stroke="#e5e7eb" stroke-width="0.5"/>
  <line x1="639.0" y1="16" x2="639.0" y2="171" stroke="#e5e7eb" stroke-width="0.5"/>
  <line x1="645.4" y1="16" x2="645.4" y2="171" stroke="#e5e7eb" stroke-width="0.5"/>
  <line x1="651.1" y1="16" x2="651.1" y2="171" stroke="#e5e7eb" stroke-width="0.5"/>
  <line x1="689.4" y1="16" x2="689.4" y2="171" stroke="#e5e7eb" stroke-width="0.5"/>
  <line x1="708.9" y1="16" x2="708.9" y2="171" stroke="#e5e7eb" stroke-width="0.5"/>
  <line x1="722.7" y1="16" x2="722.7" y2="171" stroke="#e5e7eb" stroke-width="0.5"/>
  <line x1="733.4" y1="16" x2="733.4" y2="171" stroke="#e5e7eb" stroke-width="0.5"/>
  <line x1="742.2" y1="16" x2="742.2" y2="171" stroke="#e5e7eb" stroke-width="0.5"/>
  <line x1="749.6" y1="16" x2="749.6" y2="171" stroke="#e5e7eb" stroke-width="0.5"/>
  <line x1="756.0" y1="16" x2="756.0" y2="171" stroke="#e5e7eb" stroke-width="0.5"/>
  <line x1="761.7" y1="16" x2="761.7" y2="171" stroke="#e5e7eb" stroke-width="0.5"/>
  <line x1="800.0" y1="16" x2="800.0" y2="171" stroke="#e5e7eb" stroke-width="0.5"/>
  <line x1="545.6" y1="16" x2="545.6" y2="171" stroke="#e5e7eb" stroke-width="0.5"/>
  <text x="545.6" y="183" text-anchor="middle" font-size="8" fill="#6b7280">100</text>
  <line x1="656.1" y1="16" x2="656.1" y2="171" stroke="#e5e7eb" stroke-width="0.5"/>
  <text x="656.1" y="183" text-anchor="middle" font-size="8" fill="#6b7280">1k</text>
  <line x1="766.7" y1="16" x2="766.7" y2="171" stroke="#e5e7eb" stroke-width="0.5"/>
  <text x="766.7" y="183" text-anchor="middle" font-size="8" fill="#6b7280">10k</text>
  <line x1="435" y1="54.8" x2="800" y2="54.8" stroke="#e5e7eb" stroke-width="0.5"/>
  <line x1="435" y1="132.3" x2="800" y2="132.3" stroke="#e5e7eb" stroke-width="0.5"/>
  <line x1="435" y1="16.0" x2="800" y2="16.0" stroke="#e5e7eb" stroke-width="0.5"/>
  <text x="431" y="19.0" text-anchor="end" font-size="8" fill="#6b7280">180</text>
  <text x="431" y="96.5" text-anchor="end" font-size="8" fill="#6b7280">0</text>
  <line x1="435" y1="171.0" x2="800" y2="171.0" stroke="#e5e7eb" stroke-width="0.5"/>
  <text x="431" y="174.0" text-anchor="end" font-size="8" fill="#6b7280">-180</text>
  <defs><linearGradient id="g358" x1="0" y1="16" x2="0" y2="93.5" gradientUnits="userSpaceOnUse">
    <stop offset="0%" stop-color="#e74c3c" stop-opacity="0.15"/>
    <stop offset="100%" stop-color="#e74c3c" stop-opacity="0.02"/>
  </linearGradient></defs>
  <defs><linearGradient id="g359" x1="0" y1="171" x2="0" y2="93.5" gradientUnits="userSpaceOnUse">
    <stop offset="0%" stop-color="#e74c3c" stop-opacity="0.15"/>
    <stop offset="100%" stop-color="#e74c3c" stop-opacity="0.02"/>
  </linearGradient></defs>
  <defs><clipPath id="c360"><rect x="435" y="16" width="365" height="77.5"/></clipPath></defs>
  <defs><clipPath id="c361"><rect x="435" y="93.5" width="365" height="77.5"/></clipPath></defs>
  <path d="M438.5,55.3 438.5,55.3 471.8,55.9 491.3,56.5 505.1,57.0 515.8,57.6 524.6,58.2 532.0,58.7 538.4,59.3 544.1,59.9 549.1,60.4 553.7,61.0 557.9,61.6 561.7,62.1 565.3,62.7 568.6,63.3 571.7,63.8 574.6,64.4 577.3,65.0 579.9,65.5 582.4,66.1 584.7,66.7 587.0,67.2 589.1,67.8 591.2,68.4 593.1,68.9 595.0,69.5 596.8,70.1 598.6,70.6 600.2,71.2 601.9,71.8 603.4,72.3 605.0,72.9 606.5,73.5 607.9,74.0 609.3,74.6 610.6,75.2 611.9,75.8 613.2,76.3 614.5,76.9 615.7,77.5 616.9,78.0 618.0,78.6 619.2,79.2 620.3,79.7 621.3,80.3 622.4,80.9 623.4,81.4 624.4,82.0 625.4,82.6 626.4,83.1 627.4,83.7 628.3,84.3 629.2,84.8 630.1,85.4 631.0,86.0 631.8,86.5 632.7,87.1 633.5,87.7 634.4,88.2 635.2,88.8 636.7,89.9 638.3,91.1 639.7,92.2 641.2,93.3 642.6,94.5 643.9,95.6 645.2,96.8 646.5,97.9 647.8,99.0 649.0,100.2 650.2,101.3 651.3,102.4 652.4,103.6 653.6,104.7 654.6,105.8 655.7,107.0 656.7,108.1 657.7,109.2 658.7,110.4 659.7,111.5 660.6,112.6 661.6,113.8 662.5,114.9 663.4,116.1 664.3,117.2 665.1,118.3 666.0,119.5 666.8,120.6 667.6,121.7 668.4,122.9 669.6,124.6 670.8,126.3 671.9,128.0 673.0,129.7 674.1,131.4 675.2,133.1 676.2,134.8 677.2,136.5 678.2,138.2 679.2,139.9 680.1,141.6 681.0,143.3 682.0,145.0 682.9,146.7 683.7,148.4 684.6,150.1 685.5,151.8 686.3,153.5 687.1,155.2 687.9,156.9 689.0,159.2 690.0,161.5 691.0,163.7 692.0,166.0 693.0,168.3 693.9,170.5 694.9,17.8 695.8,20.1 696.7,22.4 697.6,24.6 698.4,26.9 699.3,29.2 700.1,31.4 700.9,33.7 701.7,36.0 702.7,38.8 703.7,41.7 704.6,44.5 705.6,47.3 706.5,50.2 707.4,53.0 708.3,55.8 709.1,58.7 710.0,61.5 710.8,64.4 711.6,67.2 712.4,70.0 713.4,73.4 714.3,76.8 715.2,80.3 716.1,83.7 717.0,87.1 717.9,90.5 718.7,93.9 719.6,97.3 720.4,100.7 721.2,104.1 722.1,108.1 723.0,112.0 723.9,116.0 724.8,120.0 725.7,124.0 726.5,127.9 727.3,131.9 728.1,135.9 728.9,139.9 729.8,144.4 730.7,148.9 731.6,153.5 732.4,158.0 733.3,162.6 734.1,167.1 734.9,16.6 735.8,21.8 736.7,26.9 737.5,32.0 738.4,37.1 739.2,42.2 740.0,47.3 740.8,52.4 741.7,58.1 742.6,63.8 743.4,69.4 744.3,75.1 745.1,80.8 745.9,86.5 746.8,92.7 747.6,98.9 748.5,105.2 749.3,111.4 750.1,117.7 751.0,124.5 751.8,131.3 752.7,138.1 753.5,144.9 754.3,151.7 755.1,159.1 756.0,166.5 756.8,18.9 757.6,26.3 758.5,33.6 759.3,41.6 760.1,49.5 761.0,57.5 761.8,65.4 762.6,73.9 763.5,82.5 764.3,91.0 765.1,99.5 765.9,108.6 766.8,117.6 767.6,126.7 768.4,135.8 769.2,145.5 770.1,155.1 770.9,164.8 771.7,20.0 772.6,30.2 773.4,40.4 774.2,50.6 775.0,61.4 775.8,72.2 776.6,83.0 777.5,94.3 778.3,105.7 779.1,117.0 779.9,129.0 780.7,140.9 781.5,152.8 782.4,165.3 783.2,22.8 784.0,35.3 784.8,48.3 785.6,61.4 786.5,75.0 787.3,88.6 788.1,102.2 788.9,116.4 789.7,130.6 790.5,145.4 791.3,160.1 792.2,20.5 793.0,35.8 793.8,51.1 794.6,67.0 795.4,82.9 796.2,99.4 797.0,115.8 797.8,132.9 798.6,149.9 799.5,167.5 L799.5,93.5 L438.5,93.5 Z" fill="url(#g358)" clip-path="url(#c360)"/>
  <path d="M438.5,55.3 438.5,55.3 471.8,55.9 491.3,56.5 505.1,57.0 515.8,57.6 524.6,58.2 532.0,58.7 538.4,59.3 544.1,59.9 549.1,60.4 553.7,61.0 557.9,61.6 561.7,62.1 565.3,62.7 568.6,63.3 571.7,63.8 574.6,64.4 577.3,65.0 579.9,65.5 582.4,66.1 584.7,66.7 587.0,67.2 589.1,67.8 591.2,68.4 593.1,68.9 595.0,69.5 596.8,70.1 598.6,70.6 600.2,71.2 601.9,71.8 603.4,72.3 605.0,72.9 606.5,73.5 607.9,74.0 609.3,74.6 610.6,75.2 611.9,75.8 613.2,76.3 614.5,76.9 615.7,77.5 616.9,78.0 618.0,78.6 619.2,79.2 620.3,79.7 621.3,80.3 622.4,80.9 623.4,81.4 624.4,82.0 625.4,82.6 626.4,83.1 627.4,83.7 628.3,84.3 629.2,84.8 630.1,85.4 631.0,86.0 631.8,86.5 632.7,87.1 633.5,87.7 634.4,88.2 635.2,88.8 636.7,89.9 638.3,91.1 639.7,92.2 641.2,93.3 642.6,94.5 643.9,95.6 645.2,96.8 646.5,97.9 647.8,99.0 649.0,100.2 650.2,101.3 651.3,102.4 652.4,103.6 653.6,104.7 654.6,105.8 655.7,107.0 656.7,108.1 657.7,109.2 658.7,110.4 659.7,111.5 660.6,112.6 661.6,113.8 662.5,114.9 663.4,116.1 664.3,117.2 665.1,118.3 666.0,119.5 666.8,120.6 667.6,121.7 668.4,122.9 669.6,124.6 670.8,126.3 671.9,128.0 673.0,129.7 674.1,131.4 675.2,133.1 676.2,134.8 677.2,136.5 678.2,138.2 679.2,139.9 680.1,141.6 681.0,143.3 682.0,145.0 682.9,146.7 683.7,148.4 684.6,150.1 685.5,151.8 686.3,153.5 687.1,155.2 687.9,156.9 689.0,159.2 690.0,161.5 691.0,163.7 692.0,166.0 693.0,168.3 693.9,170.5 694.9,17.8 695.8,20.1 696.7,22.4 697.6,24.6 698.4,26.9 699.3,29.2 700.1,31.4 700.9,33.7 701.7,36.0 702.7,38.8 703.7,41.7 704.6,44.5 705.6,47.3 706.5,50.2 707.4,53.0 708.3,55.8 709.1,58.7 710.0,61.5 710.8,64.4 711.6,67.2 712.4,70.0 713.4,73.4 714.3,76.8 715.2,80.3 716.1,83.7 717.0,87.1 717.9,90.5 718.7,93.9 719.6,97.3 720.4,100.7 721.2,104.1 722.1,108.1 723.0,112.0 723.9,116.0 724.8,120.0 725.7,124.0 726.5,127.9 727.3,131.9 728.1,135.9 728.9,139.9 729.8,144.4 730.7,148.9 731.6,153.5 732.4,158.0 733.3,162.6 734.1,167.1 734.9,16.6 735.8,21.8 736.7,26.9 737.5,32.0 738.4,37.1 739.2,42.2 740.0,47.3 740.8,52.4 741.7,58.1 742.6,63.8 743.4,69.4 744.3,75.1 745.1,80.8 745.9,86.5 746.8,92.7 747.6,98.9 748.5,105.2 749.3,111.4 750.1,117.7 751.0,124.5 751.8,131.3 752.7,138.1 753.5,144.9 754.3,151.7 755.1,159.1 756.0,166.5 756.8,18.9 757.6,26.3 758.5,33.6 759.3,41.6 760.1,49.5 761.0,57.5 761.8,65.4 762.6,73.9 763.5,82.5 764.3,91.0 765.1,99.5 765.9,108.6 766.8,117.6 767.6,126.7 768.4,135.8 769.2,145.5 770.1,155.1 770.9,164.8 771.7,20.0 772.6,30.2 773.4,40.4 774.2,50.6 775.0,61.4 775.8,72.2 776.6,83.0 777.5,94.3 778.3,105.7 779.1,117.0 779.9,129.0 780.7,140.9 781.5,152.8 782.4,165.3 783.2,22.8 784.0,35.3 784.8,48.3 785.6,61.4 786.5,75.0 787.3,88.6 788.1,102.2 788.9,116.4 789.7,130.6 790.5,145.4 791.3,160.1 792.2,20.5 793.0,35.8 793.8,51.1 794.6,67.0 795.4,82.9 796.2,99.4 797.0,115.8 797.8,132.9 798.6,149.9 799.5,167.5 L799.5,93.5 L438.5,93.5 Z" fill="url(#g359)" clip-path="url(#c361)"/>
  <defs><clipPath id="pc362"><rect x="435" y="16" width="365" height="155"/></clipPath></defs>
  <polyline points="438.5,55.3 471.8,55.9 491.3,56.5 505.1,57.0 515.8,57.6 524.6,58.2 532.0,58.7 538.4,59.3 544.1,59.9 549.1,60.4 553.7,61.0 557.9,61.6 561.7,62.1 565.3,62.7 568.6,63.3 571.7,63.8 574.6,64.4 577.3,65.0 579.9,65.5 582.4,66.1 584.7,66.7 587.0,67.2 589.1,67.8 591.2,68.4 593.1,68.9 595.0,69.5 596.8,70.1 598.6,70.6 600.2,71.2 601.9,71.8 603.4,72.3 605.0,72.9 606.5,73.5 607.9,74.0 609.3,74.6 610.6,75.2 611.9,75.8 613.2,76.3 614.5,76.9 615.7,77.5 616.9,78.0 618.0,78.6 619.2,79.2 620.3,79.7 621.3,80.3 622.4,80.9 623.4,81.4 624.4,82.0 625.4,82.6 626.4,83.1 627.4,83.7 628.3,84.3 629.2,84.8 630.1,85.4 631.0,86.0 631.8,86.5 632.7,87.1 633.5,87.7 634.4,88.2 635.2,88.8 636.7,89.9 638.3,91.1 639.7,92.2 641.2,93.3 642.6,94.5 643.9,95.6 645.2,96.8 646.5,97.9 647.8,99.0 649.0,100.2 650.2,101.3 651.3,102.4 652.4,103.6 653.6,104.7 654.6,105.8 655.7,107.0 656.7,108.1 657.7,109.2 658.7,110.4 659.7,111.5 660.6,112.6 661.6,113.8 662.5,114.9 663.4,116.1 664.3,117.2 665.1,118.3 666.0,119.5 666.8,120.6 667.6,121.7 668.4,122.9 669.6,124.6 670.8,126.3 671.9,128.0 673.0,129.7 674.1,131.4 675.2,133.1 676.2,134.8 677.2,136.5 678.2,138.2 679.2,139.9 680.1,141.6 681.0,143.3 682.0,145.0 682.9,146.7 683.7,148.4 684.6,150.1 685.5,151.8 686.3,153.5 687.1,155.2 687.9,156.9 689.0,159.2 690.0,161.5 691.0,163.7 692.0,166.0 693.0,168.3 693.9,170.5 694.9,17.8 695.8,20.1 696.7,22.4 697.6,24.6 698.4,26.9 699.3,29.2 700.1,31.4 700.9,33.7 701.7,36.0 702.7,38.8 703.7,41.7 704.6,44.5 705.6,47.3 706.5,50.2 707.4,53.0 708.3,55.8 709.1,58.7 710.0,61.5 710.8,64.4 711.6,67.2 712.4,70.0 713.4,73.4 714.3,76.8 715.2,80.3 716.1,83.7 717.0,87.1 717.9,90.5 718.7,93.9 719.6,97.3 720.4,100.7 721.2,104.1 722.1,108.1 723.0,112.0 723.9,116.0 724.8,120.0 725.7,124.0 726.5,127.9 727.3,131.9 728.1,135.9 728.9,139.9 729.8,144.4 730.7,148.9 731.6,153.5 732.4,158.0 733.3,162.6 734.1,167.1 734.9,16.6 735.8,21.8 736.7,26.9 737.5,32.0 738.4,37.1 739.2,42.2 740.0,47.3 740.8,52.4 741.7,58.1 742.6,63.8 743.4,69.4 744.3,75.1 745.1,80.8 745.9,86.5 746.8,92.7 747.6,98.9 748.5,105.2 749.3,111.4 750.1,117.7 751.0,124.5 751.8,131.3 752.7,138.1 753.5,144.9 754.3,151.7 755.1,159.1 756.0,166.5 756.8,18.9 757.6,26.3 758.5,33.6 759.3,41.6 760.1,49.5 761.0,57.5 761.8,65.4 762.6,73.9 763.5,82.5 764.3,91.0 765.1,99.5 765.9,108.6 766.8,117.6 767.6,126.7 768.4,135.8 769.2,145.5 770.1,155.1 770.9,164.8 771.7,20.0 772.6,30.2 773.4,40.4 774.2,50.6 775.0,61.4 775.8,72.2 776.6,83.0 777.5,94.3 778.3,105.7 779.1,117.0 779.9,129.0 780.7,140.9 781.5,152.8 782.4,165.3 783.2,22.8 784.0,35.3 784.8,48.3 785.6,61.4 786.5,75.0 787.3,88.6 788.1,102.2 788.9,116.4 789.7,130.6 790.5,145.4 791.3,160.1 792.2,20.5 793.0,35.8 793.8,51.1 794.6,67.0 795.4,82.9 796.2,99.4 797.0,115.8 797.8,132.9 798.6,149.9 799.5,167.5" fill="none" stroke="#e74c3c" stroke-width="1.5" stroke-linejoin="round" clip-path="url(#pc362)"/>
  <line x1="34" y1="207" x2="34" y2="362" stroke="#d1d5db"/>
  <line x1="34" y1="284.5" x2="399" y2="284.5" stroke="#d1d5db"/>
  <text x="216.5" y="388" text-anchor="middle" font-size="9" fill="#6b7280">Hz</text>
  <text x="12" y="284.5" text-anchor="middle" font-size="9" fill="#6b7280" transform="rotate(-90 12 284.5)">Group delay</text>
  <line x1="67.3" y1="207" x2="67.3" y2="362" stroke="#e5e7eb" stroke-width="0.5"/>
  <line x1="86.8" y1="207" x2="86.8" y2="362" stroke="#e5e7eb" stroke-width="0.5"/>
  <line x1="100.6" y1="207" x2="100.6" y2="362" stroke="#e5e7eb" stroke-width="0.5"/>
  <line x1="111.3" y1="207" x2="111.3" y2="362" stroke="#e5e7eb" stroke-width="0.5"/>
  <line x1="120.0" y1="207" x2="120.0" y2="362" stroke="#e5e7eb" stroke-width="0.5"/>
  <line x1="127.4" y1="207" x2="127.4" y2="362" stroke="#e5e7eb" stroke-width="0.5"/>
  <line x1="133.9" y1="207" x2="133.9" y2="362" stroke="#e5e7eb" stroke-width="0.5"/>
  <line x1="139.5" y1="207" x2="139.5" y2="362" stroke="#e5e7eb" stroke-width="0.5"/>
  <line x1="177.9" y1="207" x2="177.9" y2="362" stroke="#e5e7eb" stroke-width="0.5"/>
  <line x1="197.3" y1="207" x2="197.3" y2="362" stroke="#e5e7eb" stroke-width="0.5"/>
  <line x1="211.1" y1="207" x2="211.1" y2="362" stroke="#e5e7eb" stroke-width="0.5"/>
  <line x1="221.9" y1="207" x2="221.9" y2="362" stroke="#e5e7eb" stroke-width="0.5"/>
  <line x1="230.6" y1="207" x2="230.6" y2="362" stroke="#e5e7eb" stroke-width="0.5"/>
  <line x1="238.0" y1="207" x2="238.0" y2="362" stroke="#e5e7eb" stroke-width="0.5"/>
  <line x1="244.4" y1="207" x2="244.4" y2="362" stroke="#e5e7eb" stroke-width="0.5"/>
  <line x1="250.1" y1="207" x2="250.1" y2="362" stroke="#e5e7eb" stroke-width="0.5"/>
  <line x1="288.4" y1="207" x2="288.4" y2="362" stroke="#e5e7eb" stroke-width="0.5"/>
  <line x1="307.9" y1="207" x2="307.9" y2="362" stroke="#e5e7eb" stroke-width="0.5"/>
  <line x1="321.7" y1="207" x2="321.7" y2="362" stroke="#e5e7eb" stroke-width="0.5"/>
  <line x1="332.4" y1="207" x2="332.4" y2="362" stroke="#e5e7eb" stroke-width="0.5"/>
  <line x1="341.2" y1="207" x2="341.2" y2="362" stroke="#e5e7eb" stroke-width="0.5"/>
  <line x1="348.6" y1="207" x2="348.6" y2="362" stroke="#e5e7eb" stroke-width="0.5"/>
  <line x1="355.0" y1="207" x2="355.0" y2="362" stroke="#e5e7eb" stroke-width="0.5"/>
  <line x1="360.7" y1="207" x2="360.7" y2="362" stroke="#e5e7eb" stroke-width="0.5"/>
  <line x1="399.0" y1="207" x2="399.0" y2="362" stroke="#e5e7eb" stroke-width="0.5"/>
  <line x1="144.6" y1="207" x2="144.6" y2="362" stroke="#e5e7eb" stroke-width="0.5"/>
  <text x="144.6" y="374" text-anchor="middle" font-size="8" fill="#6b7280">100</text>
  <line x1="255.1" y1="207" x2="255.1" y2="362" stroke="#e5e7eb" stroke-width="0.5"/>
  <text x="255.1" y="374" text-anchor="middle" font-size="8" fill="#6b7280">1k</text>
  <line x1="365.7" y1="207" x2="365.7" y2="362" stroke="#e5e7eb" stroke-width="0.5"/>
  <text x="365.7" y="374" text-anchor="middle" font-size="8" fill="#6b7280">10k</text>
  <line x1="34" y1="329.7" x2="399" y2="329.7" stroke="#e5e7eb" stroke-width="0.5"/>
  <text x="30" y="332.7" text-anchor="end" font-size="8" fill="#6b7280">-400</text>
  <text x="30" y="287.5" text-anchor="end" font-size="8" fill="#6b7280">0</text>
  <line x1="34" y1="239.3" x2="399" y2="239.3" stroke="#e5e7eb" stroke-width="0.5"/>
  <text x="30" y="242.3" text-anchor="end" font-size="8" fill="#6b7280">400</text>
  <defs><linearGradient id="g363" x1="0" y1="207" x2="0" y2="284.5" gradientUnits="userSpaceOnUse">
    <stop offset="0%" stop-color="#2ecc71" stop-opacity="0.15"/>
    <stop offset="100%" stop-color="#2ecc71" stop-opacity="0.02"/>
  </linearGradient></defs>
  <path d="M37.5,224.9 37.5,224.9 70.8,282.8 90.3,282.8 104.1,282.8 114.8,282.8 123.6,282.8 131.0,282.8 137.4,282.8 143.1,282.8 148.1,282.8 152.7,282.8 156.9,282.8 160.7,282.8 164.3,282.8 167.6,282.8 170.7,282.8 173.6,282.8 176.3,282.8 178.9,282.8 181.4,282.8 183.7,282.8 186.0,282.8 188.1,282.8 190.2,282.8 192.1,282.8 194.0,282.8 195.8,282.8 197.6,282.8 199.2,282.8 200.9,282.8 202.4,282.8 204.0,282.8 205.5,282.8 206.9,282.8 208.3,282.8 209.6,282.8 210.9,282.8 212.2,282.8 213.5,282.8 214.7,282.8 215.9,282.8 217.0,282.8 218.2,282.8 219.3,282.8 220.3,282.8 221.4,282.8 222.4,282.8 223.4,282.8 224.4,282.8 225.4,282.8 226.4,282.8 227.3,282.8 228.2,282.8 229.1,282.8 230.0,282.8 230.8,282.8 231.7,282.8 232.5,282.8 233.4,282.8 234.2,282.8 235.7,282.8 237.3,282.8 238.7,282.8 240.2,282.8 241.6,282.8 242.9,282.8 244.2,282.8 245.5,282.8 246.8,282.8 248.0,282.8 249.2,282.8 250.3,282.8 251.4,282.8 252.6,282.8 253.6,282.8 254.7,282.8 255.7,282.8 256.7,282.8 257.7,282.8 258.7,282.8 259.6,282.8 260.6,282.8 261.5,282.8 262.4,282.8 263.3,282.8 264.1,282.8 265.0,282.8 265.8,282.8 266.6,282.8 267.4,282.8 268.6,282.8 269.8,282.8 270.9,282.8 272.0,282.8 273.1,282.8 274.2,282.8 275.2,282.8 276.2,282.8 277.2,282.8 278.2,282.8 279.1,282.8 280.0,282.8 281.0,282.8 281.9,282.8 282.7,282.8 283.6,282.8 284.5,282.8 285.3,282.8 286.1,282.8 286.9,282.8 288.0,282.8 289.0,282.8 290.0,282.8 291.0,282.8 292.0,282.8 292.9,282.8 293.9,282.8 294.8,282.8 295.7,282.8 296.6,282.8 297.4,282.8 298.3,282.8 299.1,282.8 299.9,282.8 300.7,282.8 301.7,282.8 302.7,282.8 303.6,282.8 304.6,282.8 305.5,282.8 306.4,282.8 307.3,282.8 308.1,282.8 309.0,282.8 309.8,282.8 310.6,282.8 311.4,282.8 312.4,282.8 313.3,282.8 314.2,282.8 315.1,282.8 316.0,282.8 316.9,282.8 317.7,282.8 318.6,282.8 319.4,282.8 320.2,282.8 321.1,282.8 322.0,282.8 322.9,282.8 323.8,282.8 324.7,282.8 325.5,282.8 326.3,282.8 327.1,282.8 327.9,282.8 328.8,282.8 329.7,282.8 330.6,282.8 331.4,282.8 332.3,282.8 333.1,282.8 333.9,282.8 334.8,282.8 335.7,282.8 336.5,282.8 337.4,282.8 338.2,282.8 339.0,282.8 339.8,282.8 340.7,282.8 341.6,282.8 342.4,282.8 343.3,282.8 344.1,282.8 344.9,282.8 345.8,282.8 346.6,282.8 347.5,282.8 348.3,282.8 349.1,282.8 350.0,282.8 350.8,282.8 351.7,282.8 352.5,282.8 353.3,282.8 354.1,282.8 355.0,282.8 355.8,282.8 356.6,282.8 357.5,282.8 358.3,282.8 359.1,282.8 360.0,282.8 360.8,282.8 361.6,282.8 362.5,282.8 363.3,282.8 364.1,282.8 364.9,282.8 365.8,282.8 366.6,282.8 367.4,282.8 368.2,282.8 369.1,282.8 369.9,282.8 370.7,282.8 371.6,282.8 372.4,282.8 373.2,282.8 374.0,282.8 374.8,282.8 375.6,282.8 376.5,282.8 377.3,282.8 378.1,282.8 378.9,282.8 379.7,282.8 380.5,282.8 381.4,282.8 382.2,282.8 383.0,282.8 383.8,282.8 384.6,282.8 385.5,282.8 386.3,282.8 387.1,282.8 387.9,282.8 388.7,282.8 389.5,282.8 390.3,282.8 391.2,282.8 392.0,282.8 392.8,282.8 393.6,282.8 394.4,282.8 395.2,282.8 396.0,282.8 396.8,282.8 397.6,282.8 398.5,282.8 L398.5,284.5 L37.5,284.5 Z" fill="url(#g363)"/>
  <defs><clipPath id="pc364"><rect x="34" y="207" width="365" height="155"/></clipPath></defs>
  <polyline points="37.5,224.9 70.8,282.8 90.3,282.8 104.1,282.8 114.8,282.8 123.6,282.8 131.0,282.8 137.4,282.8 143.1,282.8 148.1,282.8 152.7,282.8 156.9,282.8 160.7,282.8 164.3,282.8 167.6,282.8 170.7,282.8 173.6,282.8 176.3,282.8 178.9,282.8 181.4,282.8 183.7,282.8 186.0,282.8 188.1,282.8 190.2,282.8 192.1,282.8 194.0,282.8 195.8,282.8 197.6,282.8 199.2,282.8 200.9,282.8 202.4,282.8 204.0,282.8 205.5,282.8 206.9,282.8 208.3,282.8 209.6,282.8 210.9,282.8 212.2,282.8 213.5,282.8 214.7,282.8 215.9,282.8 217.0,282.8 218.2,282.8 219.3,282.8 220.3,282.8 221.4,282.8 222.4,282.8 223.4,282.8 224.4,282.8 225.4,282.8 226.4,282.8 227.3,282.8 228.2,282.8 229.1,282.8 230.0,282.8 230.8,282.8 231.7,282.8 232.5,282.8 233.4,282.8 234.2,282.8 235.7,282.8 237.3,282.8 238.7,282.8 240.2,282.8 241.6,282.8 242.9,282.8 244.2,282.8 245.5,282.8 246.8,282.8 248.0,282.8 249.2,282.8 250.3,282.8 251.4,282.8 252.6,282.8 253.6,282.8 254.7,282.8 255.7,282.8 256.7,282.8 257.7,282.8 258.7,282.8 259.6,282.8 260.6,282.8 261.5,282.8 262.4,282.8 263.3,282.8 264.1,282.8 265.0,282.8 265.8,282.8 266.6,282.8 267.4,282.8 268.6,282.8 269.8,282.8 270.9,282.8 272.0,282.8 273.1,282.8 274.2,282.8 275.2,282.8 276.2,282.8 277.2,282.8 278.2,282.8 279.1,282.8 280.0,282.8 281.0,282.8 281.9,282.8 282.7,282.8 283.6,282.8 284.5,282.8 285.3,282.8 286.1,282.8 286.9,282.8 288.0,282.8 289.0,282.8 290.0,282.8 291.0,282.8 292.0,282.8 292.9,282.8 293.9,282.8 294.8,282.8 295.7,282.8 296.6,282.8 297.4,282.8 298.3,282.8 299.1,282.8 299.9,282.8 300.7,282.8 301.7,282.8 302.7,282.8 303.6,282.8 304.6,282.8 305.5,282.8 306.4,282.8 307.3,282.8 308.1,282.8 309.0,282.8 309.8,282.8 310.6,282.8 311.4,282.8 312.4,282.8 313.3,282.8 314.2,282.8 315.1,282.8 316.0,282.8 316.9,282.8 317.7,282.8 318.6,282.8 319.4,282.8 320.2,282.8 321.1,282.8 322.0,282.8 322.9,282.8 323.8,282.8 324.7,282.8 325.5,282.8 326.3,282.8 327.1,282.8 327.9,282.8 328.8,282.8 329.7,282.8 330.6,282.8 331.4,282.8 332.3,282.8 333.1,282.8 333.9,282.8 334.8,282.8 335.7,282.8 336.5,282.8 337.4,282.8 338.2,282.8 339.0,282.8 339.8,282.8 340.7,282.8 341.6,282.8 342.4,282.8 343.3,282.8 344.1,282.8 344.9,282.8 345.8,282.8 346.6,282.8 347.5,282.8 348.3,282.8 349.1,282.8 350.0,282.8 350.8,282.8 351.7,282.8 352.5,282.8 353.3,282.8 354.1,282.8 355.0,282.8 355.8,282.8 356.6,282.8 357.5,282.8 358.3,282.8 359.1,282.8 360.0,282.8 360.8,282.8 361.6,282.8 362.5,282.8 363.3,282.8 364.1,282.8 364.9,282.8 365.8,282.8 366.6,282.8 367.4,282.8 368.2,282.8 369.1,282.8 369.9,282.8 370.7,282.8 371.6,282.8 372.4,282.8 373.2,282.8 374.0,282.8 374.8,282.8 375.6,282.8 376.5,282.8 377.3,282.8 378.1,282.8 378.9,282.8 379.7,282.8 380.5,282.8 381.4,282.8 382.2,282.8 383.0,282.8 383.8,282.8 384.6,282.8 385.5,282.8 386.3,282.8 387.1,282.8 387.9,282.8 388.7,282.8 389.5,282.8 390.3,282.8 391.2,282.8 392.0,282.8 392.8,282.8 393.6,282.8 394.4,282.8 395.2,282.8 396.0,282.8 396.8,282.8 397.6,282.8 398.5,282.8" fill="none" stroke="#2ecc71" stroke-width="1.5" stroke-linejoin="round" clip-path="url(#pc364)"/>
  <line x1="435" y1="207" x2="435" y2="362" stroke="#d1d5db"/>
  <line x1="435" y1="284.5" x2="800" y2="284.5" stroke="#d1d5db"/>
  <text x="617.5" y="388" text-anchor="middle" font-size="9" fill="#6b7280">Samples</text>
  <text x="413" y="284.5" text-anchor="middle" font-size="9" fill="#6b7280" transform="rotate(-90 413 284.5)">Impulse response</text>
  <line x1="435.0" y1="207" x2="435.0" y2="362" stroke="#e5e7eb" stroke-width="0.5"/>
  <text x="435.0" y="374" text-anchor="middle" font-size="8" fill="#6b7280">0</text>
  <line x1="670.5" y1="207" x2="670.5" y2="362" stroke="#e5e7eb" stroke-width="0.5"/>
  <text x="670.5" y="374" text-anchor="middle" font-size="8" fill="#6b7280">20</text>
  <line x1="435" y1="339.3" x2="800" y2="339.3" stroke="#e5e7eb" stroke-width="0.5"/>
  <text x="431" y="342.3" text-anchor="end" font-size="8" fill="#6b7280">-0.7</text>
  <text x="431" y="287.5" text-anchor="end" font-size="8" fill="#6b7280">0</text>
  <line x1="435" y1="229.7" x2="800" y2="229.7" stroke="#e5e7eb" stroke-width="0.5"/>
  <text x="431" y="232.7" text-anchor="end" font-size="8" fill="#6b7280">0.7</text>
  <defs><linearGradient id="g365" x1="0" y1="207" x2="0" y2="284.5" gradientUnits="userSpaceOnUse">
    <stop offset="0%" stop-color="#f39c12" stop-opacity="0.15"/>
    <stop offset="100%" stop-color="#f39c12" stop-opacity="0.02"/>
  </linearGradient></defs>
  <defs><linearGradient id="g366" x1="0" y1="362" x2="0" y2="284.5" gradientUnits="userSpaceOnUse">
    <stop offset="0%" stop-color="#f39c12" stop-opacity="0.15"/>
    <stop offset="100%" stop-color="#f39c12" stop-opacity="0.02"/>
  </linearGradient></defs>
  <defs><clipPath id="c367"><rect x="435" y="207" width="365" height="77.5"/></clipPath></defs>
  <defs><clipPath id="c368"><rect x="435" y="284.5" width="365" height="77.5"/></clipPath></defs>
  <path d="M435.0,284.1 435.0,284.1 446.8,285.0 458.5,283.8 470.3,285.6 482.1,282.8 493.9,286.9 505.6,281.0 517.4,289.3 529.2,277.9 541.0,293.4 552.7,272.4 564.5,301.1 576.3,260.7 588.1,322.1 599.8,207.0 611.6,284.5 623.4,362.0 635.2,246.9 646.9,308.3 658.7,267.9 670.5,296.6 682.3,275.6 694.0,291.1 705.8,279.7 717.6,288.0 729.4,282.1 741.1,286.2 752.9,283.4 764.7,285.2 776.5,284.0 788.2,284.9 L788.2,284.5 L435.0,284.5 Z" fill="url(#g365)" clip-path="url(#c367)"/>
  <path d="M435.0,284.1 435.0,284.1 446.8,285.0 458.5,283.8 470.3,285.6 482.1,282.8 493.9,286.9 505.6,281.0 517.4,289.3 529.2,277.9 541.0,293.4 552.7,272.4 564.5,301.1 576.3,260.7 588.1,322.1 599.8,207.0 611.6,284.5 623.4,362.0 635.2,246.9 646.9,308.3 658.7,267.9 670.5,296.6 682.3,275.6 694.0,291.1 705.8,279.7 717.6,288.0 729.4,282.1 741.1,286.2 752.9,283.4 764.7,285.2 776.5,284.0 788.2,284.9 L788.2,284.5 L435.0,284.5 Z" fill="url(#g366)" clip-path="url(#c368)"/>
  <defs><clipPath id="pc369"><rect x="435" y="207" width="365" height="155"/></clipPath></defs>
  <polyline points="435.0,284.1 446.8,285.0 458.5,283.8 470.3,285.6 482.1,282.8 493.9,286.9 505.6,281.0 517.4,289.3 529.2,277.9 541.0,293.4 552.7,272.4 564.5,301.1 576.3,260.7 588.1,322.1 599.8,207.0 611.6,284.5 623.4,362.0 635.2,246.9 646.9,308.3 658.7,267.9 670.5,296.6 682.3,275.6 694.0,291.1 705.8,279.7 717.6,288.0 729.4,282.1 741.1,286.2 752.9,283.4 764.7,285.2 776.5,284.0 788.2,284.9" fill="none" stroke="#f39c12" stroke-width="1.3" stroke-linejoin="round" clip-path="url(#pc369)"/>
</svg>
