<svg xmlns="http://www.w3.org/2000/svg" viewBox="0 0 820 392" style="font-family:system-ui,-apple-system,sans-serif">
  <text x="800" y="11" text-anchor="end" font-size="11" font-weight="600" fill="#6b7280">Differentiator, 31 taps</text>
  <line x1="34" y1="16" x2="34" y2="171" stroke="#d1d5db"/>
  <line x1="34" y1="47.0" x2="392" y2="47.0" stroke="#d1d5db"/>
  <text x="213" y="197" text-anchor="middle" font-size="9" fill="#6b7280">Hz</text>
  <text x="12" y="93.5" text-anchor="middle" font-size="9" fill="#6b7280" transform="rotate(-90 12 93.5)">dB</text>
  <line x1="66.6" y1="16" x2="66.6" y2="171" stroke="#e5e7eb" stroke-width="0.5"/>
  <line x1="85.7" y1="16" x2="85.7" y2="171" stroke="#e5e7eb" stroke-width="0.5"/>
  <line x1="99.3" y1="16" x2="99.3" y2="171" stroke="#e5e7eb" stroke-width="0.5"/>
  <line x1="109.8" y1="16" x2="109.8" y2="171" stroke="#e5e7eb" stroke-width="0.5"/>
  <line x1="118.4" y1="16" x2="118.4" y2="171" stroke="#e5e7eb" stroke-width="0.5"/>
  <line x1="125.7" y1="16" x2="125.7" y2="171" stroke="#e5e7eb" stroke-width="0.5"/>
  <line x1="131.9" y1="16" x2="131.9" y2="171" stroke="#e5e7eb" stroke-width="0.5"/>
  <line x1="137.5" y1="16" x2="137.5" y2="171" stroke="#e5e7eb" stroke-width="0.5"/>
  <line x1="175.1" y1="16" x2="175.1" y2="171" stroke="#e5e7eb" stroke-width="0.5"/>
  <line x1="194.2" y1="16" x2="194.2" y2="171" stroke="#e5e7eb" stroke-width="0.5"/>
  <line x1="207.7" y1="16" x2="207.7" y2="171" stroke="#e5e7eb" stroke-width="0.5"/>
  <line x1="218.3" y1="16" x2="218.3" y2="171" stroke="#e5e7eb" stroke-width="0.5"/>
  <line x1="226.8" y1="16" x2="226.8" y2="171" stroke="#e5e7eb" stroke-width="0.5"/>
  <line x1="234.1" y1="16" x2="234.1" y2="171" stroke="#e5e7eb" stroke-width="0.5"/>
  <line x1="240.4" y1="16" x2="240.4" y2="171" stroke="#e5e7eb" stroke-width="0.5"/>
  <line x1="245.9" y1="16" x2="245.9" y2="171" stroke="#e5e7eb" stroke-width="0.5"/>
  <line x1="283.5" y1="16" x2="283.5" y2="171" stroke="#e5e7eb" stroke-width="0.5"/>
  <line x1="302.6" y1="16" x2="302.6" y2="171" stroke="#e5e7eb" stroke-width="0.5"/>
  <line x1="316.2" y1="16" x2="316.2" y2="171" stroke="#e5e7eb" stroke-width="0.5"/>
  <line x1="326.7" y1="16" x2="326.7" y2="171" stroke="#e5e7eb" stroke-width="0.5"/>
  <line x1="335.3" y1="16" x2="335.3" y2="171" stroke="#e5e7eb" stroke-width="0.5"/>
  <line x1="342.6" y1="16" x2="342.6" y2="171" stroke="#e5e7eb" stroke-width="0.5"/>
  <line x1="348.8" y1="16" x2="348.8" y2="171" stroke="#e5e7eb" stroke-width="0.5"/>
  <line x1="354.4" y1="16" x2="354.4" y2="171" stroke="#e5e7eb" stroke-width="0.5"/>
  <line x1="392.0" y1="16" x2="392.0" y2="171" stroke="#e5e7eb" stroke-width="0.5"/>
  <line x1="142.5" y1="16" x2="142.5" y2="171" stroke="#e5e7eb" stroke-width="0.5"/>
  <text x="142.5" y="183" text-anchor="middle" font-size="8" fill="#6b7280">100</text>
  <line x1="250.9" y1="16" x2="250.9" y2="171" stroke="#e5e7eb" stroke-width="0.5"/>
  <text x="250.9" y="183" text-anchor="middle" font-size="8" fill="#6b7280">1k</text>
  <line x1="359.4" y1="16" x2="359.4" y2="171" stroke="#e5e7eb" stroke-width="0.5"/>
  <text x="359.4" y="183" text-anchor="middle" font-size="8" fill="#6b7280">10k</text>
  <line x1="34" y1="31.5" x2="392" y2="31.5" stroke="#e5e7eb" stroke-width="0.5"/>
  <line x1="34" y1="62.5" x2="392" y2="62.5" stroke="#e5e7eb" stroke-width="0.5"/>
  <line x1="34" y1="16.0" x2="392" y2="16.0" stroke="#e5e7eb" stroke-width="0.5"/>
  <text x="30" y="19.0" text-anchor="end" font-size="8" fill="#6b7280">+20</text>
  <text x="30" y="50.0" text-anchor="end" font-size="8" fill="#6b7280">0</text>
  <line x1="34" y1="78.0" x2="392" y2="78.0" stroke="#e5e7eb" stroke-width="0.5"/>
  <text x="30" y="81.0" text-anchor="end" font-size="8" fill="#6b7280">-20</text>
  <line x1="34" y1="109.0" x2="392" y2="109.0" stroke="#e5e7eb" stroke-width="0.5"/>
  <text x="30" y="112.0" text-anchor="end" font-size="8" fill="#6b7280">-40</text>
  <line x1="34" y1="140.0" x2="392" y2="140.0" stroke="#e5e7eb" stroke-width="0.5"/>
  <text x="30" y="143.0" text-anchor="end" font-size="8" fill="#6b7280">-60</text>
  <line x1="34" y1="171.0" x2="392" y2="171.0" stroke="#e5e7eb" stroke-width="0.5"/>
  <text x="30" y="174.0" text-anchor="end" font-size="8" fill="#6b7280">-80</text>
  <defs><linearGradient id="g429" x1="0" y1="16" x2="0" y2="171" gradientUnits="userSpaceOnUse">
    <stop offset="0%" stop-color="#4a90d9" stop-opacity="0.15"/>
    <stop offset="100%" stop-color="#4a90d9" stop-opacity="0.02"/>
  </linearGradient></defs>
  <path d="M37.5,133.2 37.5,133.2 70.1,123.9 89.2,118.4 102.8,114.5 113.3,111.5 121.9,109.1 129.1,107.0 135.4,105.2 141.0,103.6 145.9,102.2 150.4,100.9 154.5,99.8 158.3,98.7 161.8,97.7 165.0,96.8 168.1,95.9 170.9,95.1 173.6,94.3 176.2,93.6 178.6,92.9 180.9,92.3 183.1,91.6 185.2,91.0 187.2,90.5 189.1,89.9 190.9,89.4 192.7,88.9 194.4,88.4 196.1,87.9 197.7,87.5 199.2,87.1 200.7,86.6 202.2,86.2 203.6,85.8 204.9,85.4 206.3,85.1 207.6,84.7 208.8,84.4 210.0,84.0 211.2,83.7 212.4,83.4 213.5,83.0 214.6,82.7 215.7,82.4 216.8,82.1 217.8,81.8 218.8,81.6 219.8,81.3 220.8,81.0 221.7,80.8 222.7,80.5 223.6,80.2 224.5,80.0 225.4,79.8 226.2,79.5 227.1,79.3 227.9,79.1 228.7,78.8 229.5,78.6 231.1,78.2 232.6,77.8 234.1,77.4 235.5,77.0 236.9,76.6 238.2,76.2 239.6,75.9 240.8,75.5 242.1,75.2 243.3,74.9 244.5,74.6 245.6,74.3 246.7,74.0 247.8,73.7 248.9,73.4 249.9,73.1 251.0,72.8 252.0,72.6 252.9,72.3 253.9,72.1 254.8,71.8 255.8,71.6 256.7,71.3 257.6,71.1 258.4,70.9 259.3,70.6 260.1,70.4 261.0,70.2 261.8,70.0 263.0,69.7 264.1,69.4 265.3,69.1 266.4,68.8 267.5,68.5 268.5,68.2 269.6,67.9 270.6,67.7 271.6,67.4 272.5,67.2 273.5,66.9 274.4,66.7 275.3,66.4 276.2,66.2 277.1,65.9 278.0,65.7 278.8,65.5 279.6,65.2 280.5,65.0 281.3,64.8 282.3,64.5 283.4,64.2 284.4,63.9 285.3,63.6 286.3,63.3 287.3,63.1 288.2,62.8 289.1,62.5 290.0,62.3 290.9,62.0 291.7,61.7 292.6,61.5 293.4,61.2 294.2,61.0 295.0,60.7 296.0,60.4 297.0,60.1 297.9,59.9 298.8,59.6 299.7,59.3 300.6,59.0 301.5,58.7 302.4,58.5 303.2,58.2 304.0,58.0 304.9,57.7 305.8,57.4 306.7,57.1 307.7,56.9 308.6,56.6 309.5,56.4 310.3,56.1 311.2,55.9 312.0,55.6 312.8,55.4 313.7,55.2 314.6,54.9 315.5,54.7 316.4,54.4 317.3,54.2 318.1,54.0 319.0,53.8 319.8,53.6 320.6,53.3 321.4,53.1 322.3,52.9 323.2,52.7 324.1,52.4 324.9,52.2 325.7,51.9 326.6,51.7 327.4,51.5 328.3,51.2 329.1,51.0 330.0,50.7 330.8,50.4 331.7,50.2 332.5,49.9 333.3,49.7 334.2,49.4 335.0,49.1 335.9,48.9 336.7,48.6 337.5,48.4 338.4,48.1 339.2,47.9 340.1,47.7 340.9,47.4 341.7,47.2 342.5,47.0 343.4,46.8 344.2,46.6 345.1,46.4 345.9,46.1 346.7,45.9 347.6,45.7 348.4,45.4 349.2,45.2 350.0,44.9 350.9,44.7 351.7,44.4 352.6,44.2 353.4,43.9 354.2,43.6 355.1,43.4 355.9,43.2 356.7,42.9 357.6,42.7 358.4,42.5 359.2,42.3 360.0,42.1 360.9,41.8 361.7,41.6 362.5,41.4 363.3,41.1 364.2,40.9 365.0,40.6 365.8,40.4 366.6,40.1 367.4,39.9 368.3,39.6 369.1,39.4 369.9,39.2 370.7,39.0 371.5,38.8 372.4,38.6 373.2,38.3 374.0,38.1 374.8,37.9 375.6,37.6 376.4,37.3 377.2,37.1 378.1,36.8 378.9,36.6 379.7,36.4 380.5,36.2 381.3,36.0 382.1,35.8 383.0,35.5 383.8,35.3 384.6,35.0 385.4,34.8 386.2,34.5 387.0,34.3 387.9,34.0 388.7,33.8 389.5,33.6 390.3,33.3 391.1,33.3 391.9,33.4 L391.9,171.0 L37.5,171.0 Z" fill="url(#g429)"/>
  <defs><clipPath id="pc430"><rect x="34" y="16" width="358" height="155"/></clipPath></defs>
  <polyline points="37.5,133.2 70.1,123.9 89.2,118.4 102.8,114.5 113.3,111.5 121.9,109.1 129.1,107.0 135.4,105.2 141.0,103.6 145.9,102.2 150.4,100.9 154.5,99.8 158.3,98.7 161.8,97.7 165.0,96.8 168.1,95.9 170.9,95.1 173.6,94.3 176.2,93.6 178.6,92.9 180.9,92.3 183.1,91.6 185.2,91.0 187.2,90.5 189.1,89.9 190.9,89.4 192.7,88.9 194.4,88.4 196.1,87.9 197.7,87.5 199.2,87.1 200.7,86.6 202.2,86.2 203.6,85.8 204.9,85.4 206.3,85.1 207.6,84.7 208.8,84.4 210.0,84.0 211.2,83.7 212.4,83.4 213.5,83.0 214.6,82.7 215.7,82.4 216.8,82.1 217.8,81.8 218.8,81.6 219.8,81.3 220.8,81.0 221.7,80.8 222.7,80.5 223.6,80.2 224.5,80.0 225.4,79.8 226.2,79.5 227.1,79.3 227.9,79.1 228.7,78.8 229.5,78.6 231.1,78.2 232.6,77.8 234.1,77.4 235.5,77.0 236.9,76.6 238.2,76.2 239.6,75.9 240.8,75.5 242.1,75.2 243.3,74.9 244.5,74.6 245.6,74.3 246.7,74.0 247.8,73.7 248.9,73.4 249.9,73.1 251.0,72.8 252.0,72.6 252.9,72.3 253.9,72.1 254.8,71.8 255.8,71.6 256.7,71.3 257.6,71.1 258.4,70.9 259.3,70.6 260.1,70.4 261.0,70.2 261.8,70.0 263.0,69.7 264.1,69.4 265.3,69.1 266.4,68.8 267.5,68.5 268.5,68.2 269.6,67.9 270.6,67.7 271.6,67.4 272.5,67.2 273.5,66.9 274.4,66.7 275.3,66.4 276.2,66.2 277.1,65.9 278.0,65.7 278.8,65.5 279.6,65.2 280.5,65.0 281.3,64.8 282.3,64.5 283.4,64.2 284.4,63.9 285.3,63.6 286.3,63.3 287.3,63.1 288.2,62.8 289.1,62.5 290.0,62.3 290.9,62.0 291.7,61.7 292.6,61.5 293.4,61.2 294.2,61.0 295.0,60.7 296.0,60.4 297.0,60.1 297.9,59.9 298.8,59.6 299.7,59.3 300.6,59.0 301.5,58.7 302.4,58.5 303.2,58.2 304.0,58.0 304.9,57.7 305.8,57.4 306.7,57.1 307.7,56.9 308.6,56.6 309.5,56.4 310.3,56.1 311.2,55.9 312.0,55.6 312.8,55.4 313.7,55.2 314.6,54.9 315.5,54.7 316.4,54.4 317.3,54.2 318.1,54.0 319.0,53.8 319.8,53.6 320.6,53.3 321.4,53.1 322.3,52.9 323.2,52.7 324.1,52.4 324.9,52.2 325.7,51.9 326.6,51.7 327.4,51.5 328.3,51.2 329.1,51.0 330.0,50.7 330.8,50.4 331.7,50.2 332.5,49.9 333.3,49.7 334.2,49.4 335.0,49.1 335.9,48.9 336.7,48.6 337.5,48.4 338.4,48.1 339.2,47.9 340.1,47.7 340.9,47.4 341.7,47.2 342.5,47.0 343.4,46.8 344.2,46.6 345.1,46.4 345.9,46.1 346.7,45.9 347.6,45.7 348.4,45.4 349.2,45.2 350.0,44.9 350.9,44.7 351.7,44.4 352.6,44.2 353.4,43.9 354.2,43.6 355.1,43.4 355.9,43.2 356.7,42.9 357.6,42.7 358.4,42.5 359.2,42.3 360.0,42.1 360.9,41.8 361.7,41.6 362.5,41.4 363.3,41.1 364.2,40.9 365.0,40.6 365.8,40.4 366.6,40.1 367.4,39.9 368.3,39.6 369.1,39.4 369.9,39.2 370.7,39.0 371.5,38.8 372.4,38.6 373.2,38.3 374.0,38.1 374.8,37.9 375.6,37.6 376.4,37.3 377.2,37.1 378.1,36.8 378.9,36.6 379.7,36.4 380.5,36.2 381.3,36.0 382.1,35.8 383.0,35.5 383.8,35.3 384.6,35.0 385.4,34.8 386.2,34.5 387.0,34.3 387.9,34.0 388.7,33.8 389.5,33.6 390.3,33.3 391.1,33.3 391.9,33.4" fill="none" stroke="#4a90d9" stroke-width="1.5" stroke-linejoin="round" clip-path="url(#pc430)"/>
  <line x1="442" y1="16" x2="442" y2="171" stroke="#d1d5db"/>
  <line x1="442" y1="93.5" x2="800" y2="93.5" stroke="#d1d5db"/>
  <text x="621" y="197" text-anchor="middle" font-size="9" fill="#6b7280">Hz</text>
  <text x="420" y="93.5" text-anchor="middle" font-size="9" fill="#6b7280" transform="rotate(-90 420 93.5)">Phase (deg)</text>
  <line x1="474.6" y1="16" x2="474.6" y2="171" stroke="#e5e7eb" stroke-width="0.5"/>
  <line x1="493.7" y1="16" x2="493.7" y2="171" stroke="#e5e7eb" stroke-width="0.5"/>
  <line x1="507.3" y1="16" x2="507.3" y2="171" stroke="#e5e7eb" stroke-width="0.5"/>
  <line x1="517.8" y1="16" x2="517.8" y2="171" stroke="#e5e7eb" stroke-width="0.5"/>
  <line x1="526.4" y1="16" x2="526.4" y2="171" stroke="#e5e7eb" stroke-width="0.5"/>
  <line x1="533.7" y1="16" x2="533.7" y2="171" stroke="#e5e7eb" stroke-width="0.5"/>
  <line x1="539.9" y1="16" x2="539.9" y2="171" stroke="#e5e7eb" stroke-width="0.5"/>
  <line x1="545.5" y1="16" x2="545.5" y2="171" stroke="#e5e7eb" stroke-width="0.5"/>
  <line x1="583.1" y1="16" x2="583.1" y2="171" stroke="#e5e7eb" stroke-width="0.5"/>
  <line x1="602.2" y1="16" x2="602.2" y2="171" stroke="#e5e7eb" stroke-width="0.5"/>
  <line x1="615.7" y1="16" x2="615.7" y2="171" stroke="#e5e7eb" stroke-width="0.5"/>
  <line x1="626.3" y1="16" x2="626.3" y2="171" stroke="#e5e7eb" stroke-width="0.5"/>
  <line x1="634.8" y1="16" x2="634.8" y2="171" stroke="#e5e7eb" stroke-width="0.5"/>
  <line x1="642.1" y1="16" x2="642.1" y2="171" stroke="#e5e7eb" stroke-width="0.5"/>
  <line x1="648.4" y1="16" x2="648.4" y2="171" stroke="#e5e7eb" stroke-width="0.5"/>
  <line x1="653.9" y1="16" x2="653.9" y2="171" stroke="#e5e7eb" stroke-width="0.5"/>
  <line x1="691.5" y1="16" x2="691.5" y2="171" stroke="#e5e7eb" stroke-width="0.5"/>
  <line x1="710.6" y1="16" x2="710.6" y2="171" stroke="#e5e7eb" stroke-width="0.5"/>
  <line x1="724.2" y1="16" x2="724.2" y2="171" stroke="#e5e7eb" stroke-width="0.5"/>
  <line x1="734.7" y1="16" x2="734.7" y2="171" stroke="#e5e7eb" stroke-width="0.5"/>
  <line x1="743.3" y1="16" x2="743.3" y2="171" stroke="#e5e7eb" stroke-width="0.5"/>
  <line x1="750.6" y1="16" x2="750.6" y2="171" stroke="#e5e7eb" stroke-width="0.5"/>
  <line x1="756.8" y1="16" x2="756.8" y2="171" stroke="#e5e7eb" stroke-width="0.5"/>
  <line x1="762.4" y1="16" x2="762.4" y2="171" stroke="#e5e7eb" stroke-width="0.5"/>
  <line x1="800.0" y1="16" x2="800.0" y2="171" stroke="#e5e7eb" stroke-width="0.5"/>
  <line x1="550.5" y1="16" x2="550.5" y2="171" stroke="#e5e7eb" stroke-width="0.5"/>
  <text x="550.5" y="183" text-anchor="middle" font-size="8" fill="#6b7280">100</text>
  <line x1="658.9" y1="16" x2="658.9" y2="171" stroke="#e5e7eb" stroke-width="0.5"/>
  <text x="658.9" y="183" text-anchor="middle" font-size="8" fill="#6b7280">1k</text>
  <line x1="767.4" y1="16" x2="767.4" y2="171" stroke="#e5e7eb" stroke-width="0.5"/>
  <text x="767.4" y="183" text-anchor="middle" font-size="8" fill="#6b7280">10k</text>
  <line x1="442" y1="54.8" x2="800" y2="54.8" stroke="#e5e7eb" stroke-width="0.5"/>
  <line x1="442" y1="132.3" x2="800" y2="132.3" stroke="#e5e7eb" stroke-width="0.5"/>
  <line x1="442" y1="16.0" x2="800" y2="16.0" stroke="#e5e7eb" stroke-width="0.5"/>
  <text x="438" y="19.0" text-anchor="end" font-size="8" fill="#6b7280">180</text>
  <text x="438" y="96.5" text-anchor="end" font-size="8" fill="#6b7280">0</text>
  <line x1="442" y1="171.0" x2="800" y2="171.0" stroke="#e5e7eb" stroke-width="0.5"/>
  <text x="438" y="174.0" text-anchor="end" font-size="8" fill="#6b7280">-180</text>
  <defs><linearGradient id="g431" x1="0" y1="16" x2="0" y2="93.5" gradientUnits="userSpaceOnUse">
    <stop offset="0%" stop-color="#e74c3c" stop-opacity="0.15"/>
    <stop offset="100%" stop-color="#e74c3c" stop-opacity="0.02"/>
  </linearGradient></defs>
  <defs><linearGradient id="g432" x1="0" y1="171" x2="0" y2="93.5" gradientUnits="userSpaceOnUse">
    <stop offset="0%" stop-color="#e74c3c" stop-opacity="0.15"/>
    <stop offset="100%" stop-color="#e74c3c" stop-opacity="0.02"/>
  </linearGradient></defs>
  <defs><clipPath id="c433"><rect x="442" y="16" width="358" height="77.5"/></clipPath></defs>
  <defs><clipPath id="c434"><rect x="442" y="93.5" width="358" height="77.5"/></clipPath></defs>
  <path d="M445.5,55.3 445.5,55.3 478.1,55.9 497.2,56.5 510.8,57.0 521.3,57.6 529.9,58.2 537.1,58.7 543.4,59.3 549.0,59.9 553.9,60.4 558.4,61.0 562.5,61.6 566.3,62.1 569.8,62.7 573.0,63.3 576.1,63.8 578.9,64.4 581.6,65.0 584.2,65.5 586.6,66.1 588.9,66.7 591.1,67.2 593.2,67.8 595.2,68.4 597.1,68.9 598.9,69.5 600.7,70.1 602.4,70.6 604.1,71.2 605.7,71.8 607.2,72.3 608.7,72.9 610.2,73.5 611.6,74.0 612.9,74.6 614.3,75.2 615.6,75.8 616.8,76.3 618.0,76.9 619.2,77.5 620.4,78.0 621.5,78.6 622.6,79.2 623.7,79.7 624.8,80.3 625.8,80.9 626.8,81.4 627.8,82.0 628.8,82.6 629.7,83.1 630.7,83.7 631.6,84.3 632.5,84.8 633.4,85.4 634.2,86.0 635.1,86.5 635.9,87.1 636.7,87.7 637.5,88.2 639.1,89.4 640.6,90.5 642.1,91.6 643.5,92.8 644.9,93.9 646.2,95.1 647.6,96.2 648.8,97.3 650.1,98.5 651.3,99.6 652.5,100.7 653.6,101.9 654.7,103.0 655.8,104.1 656.9,105.3 657.9,106.4 659.0,107.5 660.0,108.7 660.9,109.8 661.9,110.9 662.8,112.1 663.8,113.2 664.7,114.4 665.6,115.5 666.4,116.6 667.3,117.8 668.1,118.9 669.0,120.0 669.8,121.2 671.0,122.9 672.1,124.6 673.3,126.3 674.4,128.0 675.5,129.7 676.5,131.4 677.6,133.1 678.6,134.8 679.6,136.5 680.5,138.2 681.5,139.9 682.4,141.6 683.3,143.3 684.2,145.0 685.1,146.7 686.0,148.4 686.8,150.1 687.6,151.8 688.5,153.5 689.3,155.2 690.3,157.5 691.4,159.8 692.4,162.0 693.3,164.3 694.3,166.6 695.3,168.8 696.2,16.1 697.1,18.4 698.0,20.7 698.9,22.9 699.7,25.2 700.6,27.5 701.4,29.7 702.2,32.0 703.0,34.3 704.0,37.1 705.0,40.0 705.9,42.8 706.8,45.6 707.7,48.5 708.6,51.3 709.5,54.1 710.4,57.0 711.2,59.8 712.0,62.7 712.9,65.5 713.8,68.9 714.7,72.3 715.7,75.7 716.6,79.1 717.5,82.5 718.3,85.9 719.2,89.3 720.0,92.7 720.8,96.1 721.7,99.6 722.6,103.5 723.5,107.5 724.4,111.5 725.3,115.4 726.1,119.4 727.0,123.4 727.8,127.4 728.6,131.3 729.4,135.3 730.3,139.9 731.2,144.4 732.1,148.9 732.9,153.5 733.7,158.0 734.6,162.6 735.4,167.1 736.3,17.2 737.1,22.3 738.0,27.4 738.8,32.5 739.7,37.6 740.5,42.8 741.3,47.9 742.2,53.5 743.0,59.2 743.9,64.9 744.7,70.6 745.5,76.2 746.4,82.5 747.2,88.7 748.1,95.0 748.9,101.2 749.7,107.5 750.5,113.7 751.4,120.5 752.2,127.3 753.1,134.1 753.9,141.0 754.7,147.8 755.6,155.1 756.4,162.5 757.2,169.9 758.0,22.3 758.9,30.2 759.7,38.2 760.6,46.1 761.4,54.1 762.2,62.6 763.1,71.1 763.9,79.6 764.7,88.1 765.6,97.2 766.4,106.3 767.2,115.4 768.0,124.5 768.9,134.1 769.7,143.8 770.5,153.4 771.3,163.6 772.2,18.8 773.0,29.1 773.8,39.3 774.6,50.1 775.4,60.8 776.3,71.6 777.1,83.0 777.9,94.3 778.7,105.7 779.5,117.6 780.4,129.5 781.2,141.4 782.0,153.9 782.8,166.4 783.6,24.5 784.4,37.5 785.2,50.6 786.1,64.2 786.9,77.8 787.7,92.0 788.5,106.2 789.3,120.4 790.1,135.2 791.0,149.9 791.8,165.2 792.6,25.6 793.4,41.5 794.2,57.4 795.0,73.8 795.9,90.3 796.7,107.3 797.5,124.3 798.3,141.9 799.1,159.5 799.9,22.7 L799.9,93.5 L445.5,93.5 Z" fill="url(#g431)" clip-path="url(#c433)"/>
  <path d="M445.5,55.3 445.5,55.3 478.1,55.9 497.2,56.5 510.8,57.0 521.3,57.6 529.9,58.2 537.1,58.7 543.4,59.3 549.0,59.9 553.9,60.4 558.4,61.0 562.5,61.6 566.3,62.1 569.8,62.7 573.0,63.3 576.1,63.8 578.9,64.4 581.6,65.0 584.2,65.5 586.6,66.1 588.9,66.7 591.1,67.2 593.2,67.8 595.2,68.4 597.1,68.9 598.9,69.5 600.7,70.1 602.4,70.6 604.1,71.2 605.7,71.8 607.2,72.3 608.7,72.9 610.2,73.5 611.6,74.0 612.9,74.6 614.3,75.2 615.6,75.8 616.8,76.3 618.0,76.9 619.2,77.5 620.4,78.0 621.5,78.6 622.6,79.2 623.7,79.7 624.8,80.3 625.8,80.9 626.8,81.4 627.8,82.0 628.8,82.6 629.7,83.1 630.7,83.7 631.6,84.3 632.5,84.8 633.4,85.4 634.2,86.0 635.1,86.5 635.9,87.1 636.7,87.7 637.5,88.2 639.1,89.4 640.6,90.5 642.1,91.6 643.5,92.8 644.9,93.9 646.2,95.1 647.6,96.2 648.8,97.3 650.1,98.5 651.3,99.6 652.5,100.7 653.6,101.9 654.7,103.0 655.8,104.1 656.9,105.3 657.9,106.4 659.0,107.5 660.0,108.7 660.9,109.8 661.9,110.9 662.8,112.1 663.8,113.2 664.7,114.4 665.6,115.5 666.4,116.6 667.3,117.8 668.1,118.9 669.0,120.0 669.8,121.2 671.0,122.9 672.1,124.6 673.3,126.3 674.4,128.0 675.5,129.7 676.5,131.4 677.6,133.1 678.6,134.8 679.6,136.5 680.5,138.2 681.5,139.9 682.4,141.6 683.3,143.3 684.2,145.0 685.1,146.7 686.0,148.4 686.8,150.1 687.6,151.8 688.5,153.5 689.3,155.2 690.3,157.5 691.4,159.8 692.4,162.0 693.3,164.3 694.3,166.6 695.3,168.8 696.2,16.1 697.1,18.4 698.0,20.7 698.9,22.9 699.7,25.2 700.6,27.5 701.4,29.7 702.2,32.0 703.0,34.3 704.0,37.1 705.0,40.0 705.9,42.8 706.8,45.6 707.7,48.5 708.6,51.3 709.5,54.1 710.4,57.0 711.2,59.8 712.0,62.7 712.9,65.5 713.8,68.9 714.7,72.3 715.7,75.7 716.6,79.1 717.5,82.5 718.3,85.9 719.2,89.3 720.0,92.7 720.8,96.1 721.7,99.6 722.6,103.5 723.5,107.5 724.4,111.5 725.3,115.4 726.1,119.4 727.0,123.4 727.8,127.4 728.6,131.3 729.4,135.3 730.3,139.9 731.2,144.4 732.1,148.9 732.9,153.5 733.7,158.0 734.6,162.6 735.4,167.1 736.3,17.2 737.1,22.3 738.0,27.4 738.8,32.5 739.7,37.6 740.5,42.8 741.3,47.9 742.2,53.5 743.0,59.2 743.9,64.9 744.7,70.6 745.5,76.2 746.4,82.5 747.2,88.7 748.1,95.0 748.9,101.2 749.7,107.5 750.5,113.7 751.4,120.5 752.2,127.3 753.1,134.1 753.9,141.0 754.7,147.8 755.6,155.1 756.4,162.5 757.2,169.9 758.0,22.3 758.9,30.2 759.7,38.2 760.6,46.1 761.4,54.1 762.2,62.6 763.1,71.1 763.9,79.6 764.7,88.1 765.6,97.2 766.4,106.3 767.2,115.4 768.0,124.5 768.9,134.1 769.7,143.8 770.5,153.4 771.3,163.6 772.2,18.8 773.0,29.1 773.8,39.3 774.6,50.1 775.4,60.8 776.3,71.6 777.1,83.0 777.9,94.3 778.7,105.7 779.5,117.6 780.4,129.5 781.2,141.4 782.0,153.9 782.8,166.4 783.6,24.5 784.4,37.5 785.2,50.6 786.1,64.2 786.9,77.8 787.7,92.0 788.5,106.2 789.3,120.4 790.1,135.2 791.0,149.9 791.8,165.2 792.6,25.6 793.4,41.5 794.2,57.4 795.0,73.8 795.9,90.3 796.7,107.3 797.5,124.3 798.3,141.9 799.1,159.5 799.9,22.7 L799.9,93.5 L445.5,93.5 Z" fill="url(#g432)" clip-path="url(#c434)"/>
  <defs><clipPath id="pc435"><rect x="442" y="16" width="358" height="155"/></clipPath></defs>
  <polyline points="445.5,55.3 478.1,55.9 497.2,56.5 510.8,57.0 521.3,57.6 529.9,58.2 537.1,58.7 543.4,59.3 549.0,59.9 553.9,60.4 558.4,61.0 562.5,61.6 566.3,62.1 569.8,62.7 573.0,63.3 576.1,63.8 578.9,64.4 581.6,65.0 584.2,65.5 586.6,66.1 588.9,66.7 591.1,67.2 593.2,67.8 595.2,68.4 597.1,68.9 598.9,69.5 600.7,70.1 602.4,70.6 604.1,71.2 605.7,71.8 607.2,72.3 608.7,72.9 610.2,73.5 611.6,74.0 612.9,74.6 614.3,75.2 615.6,75.8 616.8,76.3 618.0,76.9 619.2,77.5 620.4,78.0 621.5,78.6 622.6,79.2 623.7,79.7 624.8,80.3 625.8,80.9 626.8,81.4 627.8,82.0 628.8,82.6 629.7,83.1 630.7,83.7 631.6,84.3 632.5,84.8 633.4,85.4 634.2,86.0 635.1,86.5 635.9,87.1 636.7,87.7 637.5,88.2 639.1,89.4 640.6,90.5 642.1,91.6 643.5,92.8 644.9,93.9 646.2,95.1 647.6,96.2 648.8,97.3 650.1,98.5 651.3,99.6 652.5,100.7 653.6,101.9 654.7,103.0 655.8,104.1 656.9,105.3 657.9,106.4 659.0,107.5 660.0,108.7 660.9,109.8 661.9,110.9 662.8,112.1 663.8,113.2 664.7,114.4 665.6,115.5 666.4,116.6 667.3,117.8 668.1,118.9 669.0,120.0 669.8,121.2 671.0,122.9 672.1,124.6 673.3,126.3 674.4,128.0 675.5,129.7 676.5,131.4 677.6,133.1 678.6,134.8 679.6,136.5 680.5,138.2 681.5,139.9 682.4,141.6 683.3,143.3 684.2,145.0 685.1,146.7 686.0,148.4 686.8,150.1 687.6,151.8 688.5,153.5 689.3,155.2 690.3,157.5 691.4,159.8 692.4,162.0 693.3,164.3 694.3,166.6 695.3,168.8 696.2,16.1 697.1,18.4 698.0,20.7 698.9,22.9 699.7,25.2 700.6,27.5 701.4,29.7 702.2,32.0 703.0,34.3 704.0,37.1 705.0,40.0 705.9,42.8 706.8,45.6 707.7,48.5 708.6,51.3 709.5,54.1 710.4,57.0 711.2,59.8 712.0,62.7 712.9,65.5 713.8,68.9 714.7,72.3 715.7,75.7 716.6,79.1 717.5,82.5 718.3,85.9 719.2,89.3 720.0,92.7 720.8,96.1 721.7,99.6 722.6,103.5 723.5,107.5 724.4,111.5 725.3,115.4 726.1,119.4 727.0,123.4 727.8,127.4 728.6,131.3 729.4,135.3 730.3,139.9 731.2,144.4 732.1,148.9 732.9,153.5 733.7,158.0 734.6,162.6 735.4,167.1 736.3,17.2 737.1,22.3 738.0,27.4 738.8,32.5 739.7,37.6 740.5,42.8 741.3,47.9 742.2,53.5 743.0,59.2 743.9,64.9 744.7,70.6 745.5,76.2 746.4,82.5 747.2,88.7 748.1,95.0 748.9,101.2 749.7,107.5 750.5,113.7 751.4,120.5 752.2,127.3 753.1,134.1 753.9,141.0 754.7,147.8 755.6,155.1 756.4,162.5 757.2,169.9 758.0,22.3 758.9,30.2 759.7,38.2 760.6,46.1 761.4,54.1 762.2,62.6 763.1,71.1 763.9,79.6 764.7,88.1 765.6,97.2 766.4,106.3 767.2,115.4 768.0,124.5 768.9,134.1 769.7,143.8 770.5,153.4 771.3,163.6 772.2,18.8 773.0,29.1 773.8,39.3 774.6,50.1 775.4,60.8 776.3,71.6 777.1,83.0 777.9,94.3 778.7,105.7 779.5,117.6 780.4,129.5 781.2,141.4 782.0,153.9 782.8,166.4 783.6,24.5 784.4,37.5 785.2,50.6 786.1,64.2 786.9,77.8 787.7,92.0 788.5,106.2 789.3,120.4 790.1,135.2 791.0,149.9 791.8,165.2 792.6,25.6 793.4,41.5 794.2,57.4 795.0,73.8 795.9,90.3 796.7,107.3 797.5,124.3 798.3,141.9 799.1,159.5 799.9,22.7" fill="none" stroke="#e74c3c" stroke-width="1.5" stroke-linejoin="round" clip-path="url(#pc435)"/>
  <line x1="34" y1="221" x2="34" y2="376" stroke="#d1d5db"/>
  <line x1="34" y1="298.5" x2="392" y2="298.5" stroke="#d1d5db"/>
  <text x="213" y="402" text-anchor="middle" font-size="9" fill="#6b7280">Hz</text>
  <text x="12" y="298.5" text-anchor="middle" font-size="9" fill="#6b7280" transform="rotate(-90 12 298.5)">Group delay</text>
  <line x1="66.6" y1="221" x2="66.6" y2="376" stroke="#e5e7eb" stroke-width="0.5"/>
  <line x1="85.7" y1="221" x2="85.7" y2="376" stroke="#e5e7eb" stroke-width="0.5"/>
  <line x1="99.3" y1="221" x2="99.3" y2="376" stroke="#e5e7eb" stroke-width="0.5"/>
  <line x1="109.8" y1="221" x2="109.8" y2="376" stroke="#e5e7eb" stroke-width="0.5"/>
  <line x1="118.4" y1="221" x2="118.4" y2="376" stroke="#e5e7eb" stroke-width="0.5"/>
  <line x1="125.7" y1="221" x2="125.7" y2="376" stroke="#e5e7eb" stroke-width="0.5"/>
  <line x1="131.9" y1="221" x2="131.9" y2="376" stroke="#e5e7eb" stroke-width="0.5"/>
  <line x1="137.5" y1="221" x2="137.5" y2="376" stroke="#e5e7eb" stroke-width="0.5"/>
  <line x1="175.1" y1="221" x2="175.1" y2="376" stroke="#e5e7eb" stroke-width="0.5"/>
  <line x1="194.2" y1="221" x2="194.2" y2="376" stroke="#e5e7eb" stroke-width="0.5"/>
  <line x1="207.7" y1="221" x2="207.7" y2="376" stroke="#e5e7eb" stroke-width="0.5"/>
  <line x1="218.3" y1="221" x2="218.3" y2="376" stroke="#e5e7eb" stroke-width="0.5"/>
  <line x1="226.8" y1="221" x2="226.8" y2="376" stroke="#e5e7eb" stroke-width="0.5"/>
  <line x1="234.1" y1="221" x2="234.1" y2="376" stroke="#e5e7eb" stroke-width="0.5"/>
  <line x1="240.4" y1="221" x2="240.4" y2="376" stroke="#e5e7eb" stroke-width="0.5"/>
  <line x1="245.9" y1="221" x2="245.9" y2="376" stroke="#e5e7eb" stroke-width="0.5"/>
  <line x1="283.5" y1="221" x2="283.5" y2="376" stroke="#e5e7eb" stroke-width="0.5"/>
  <line x1="302.6" y1="221" x2="302.6" y2="376" stroke="#e5e7eb" stroke-width="0.5"/>
  <line x1="316.2" y1="221" x2="316.2" y2="376" stroke="#e5e7eb" stroke-width="0.5"/>
  <line x1="326.7" y1="221" x2="326.7" y2="376" stroke="#e5e7eb" stroke-width="0.5"/>
  <line x1="335.3" y1="221" x2="335.3" y2="376" stroke="#e5e7eb" stroke-width="0.5"/>
  <line x1="342.6" y1="221" x2="342.6" y2="376" stroke="#e5e7eb" stroke-width="0.5"/>
  <line x1="348.8" y1="221" x2="348.8" y2="376" stroke="#e5e7eb" stroke-width="0.5"/>
  <line x1="354.4" y1="221" x2="354.4" y2="376" stroke="#e5e7eb" stroke-width="0.5"/>
  <line x1="392.0" y1="221" x2="392.0" y2="376" stroke="#e5e7eb" stroke-width="0.5"/>
  <line x1="142.5" y1="221" x2="142.5" y2="376" stroke="#e5e7eb" stroke-width="0.5"/>
  <text x="142.5" y="388" text-anchor="middle" font-size="8" fill="#6b7280">100</text>
  <line x1="250.9" y1="221" x2="250.9" y2="376" stroke="#e5e7eb" stroke-width="0.5"/>
  <text x="250.9" y="388" text-anchor="middle" font-size="8" fill="#6b7280">1k</text>
  <line x1="359.4" y1="221" x2="359.4" y2="376" stroke="#e5e7eb" stroke-width="0.5"/>
  <text x="359.4" y="388" text-anchor="middle" font-size="8" fill="#6b7280">10k</text>
  <line x1="34" y1="343.7" x2="392" y2="343.7" stroke="#e5e7eb" stroke-width="0.5"/>
  <text x="30" y="346.7" text-anchor="end" font-size="8" fill="#6b7280">-400</text>
  <text x="30" y="301.5" text-anchor="end" font-size="8" fill="#6b7280">0</text>
  <line x1="34" y1="253.3" x2="392" y2="253.3" stroke="#e5e7eb" stroke-width="0.5"/>
  <text x="30" y="256.3" text-anchor="end" font-size="8" fill="#6b7280">400</text>
  <defs><linearGradient id="g436" x1="0" y1="221" x2="0" y2="298.5" gradientUnits="userSpaceOnUse">
    <stop offset="0%" stop-color="#2ecc71" stop-opacity="0.15"/>
    <stop offset="100%" stop-color="#2ecc71" stop-opacity="0.02"/>
  </linearGradient></defs>
  <path d="M37.5,238.9 37.5,238.9 70.1,296.8 89.2,296.8 102.8,296.8 113.3,296.8 121.9,296.8 129.1,296.8 135.4,296.8 141.0,296.8 145.9,296.8 150.4,296.8 154.5,296.8 158.3,296.8 161.8,296.8 165.0,296.8 168.1,296.8 170.9,296.8 173.6,296.8 176.2,296.8 178.6,296.8 180.9,296.8 183.1,296.8 185.2,296.8 187.2,296.8 189.1,296.8 190.9,296.8 192.7,296.8 194.4,296.8 196.1,296.8 197.7,296.8 199.2,296.8 200.7,296.8 202.2,296.8 203.6,296.8 204.9,296.8 206.3,296.8 207.6,296.8 208.8,296.8 210.0,296.8 211.2,296.8 212.4,296.8 213.5,296.8 214.6,296.8 215.7,296.8 216.8,296.8 217.8,296.8 218.8,296.8 219.8,296.8 220.8,296.8 221.7,296.8 222.7,296.8 223.6,296.8 224.5,296.8 225.4,296.8 226.2,296.8 227.1,296.8 227.9,296.8 228.7,296.8 229.5,296.8 231.1,296.8 232.6,296.8 234.1,296.8 235.5,296.8 236.9,296.8 238.2,296.8 239.6,296.8 240.8,296.8 242.1,296.8 243.3,296.8 244.5,296.8 245.6,296.8 246.7,296.8 247.8,296.8 248.9,296.8 249.9,296.8 251.0,296.8 252.0,296.8 252.9,296.8 253.9,296.8 254.8,296.8 255.8,296.8 256.7,296.8 257.6,296.8 258.4,296.8 259.3,296.8 260.1,296.8 261.0,296.8 261.8,296.8 263.0,296.8 264.1,296.8 265.3,296.8 266.4,296.8 267.5,296.8 268.5,296.8 269.6,296.8 270.6,296.8 271.6,296.8 272.5,296.8 273.5,296.8 274.4,296.8 275.3,296.8 276.2,296.8 277.1,296.8 278.0,296.8 278.8,296.8 279.6,296.8 280.5,296.8 281.3,296.8 282.3,296.8 283.4,296.8 284.4,296.8 285.3,296.8 286.3,296.8 287.3,296.8 288.2,296.8 289.1,296.8 290.0,296.8 290.9,296.8 291.7,296.8 292.6,296.8 293.4,296.8 294.2,296.8 295.0,296.8 296.0,296.8 297.0,296.8 297.9,296.8 298.8,296.8 299.7,296.8 300.6,296.8 301.5,296.8 302.4,296.8 303.2,296.8 304.0,296.8 304.9,296.8 305.8,296.8 306.7,296.8 307.7,296.8 308.6,296.8 309.5,296.8 310.3,296.8 311.2,296.8 312.0,296.8 312.8,296.8 313.7,296.8 314.6,296.8 315.5,296.8 316.4,296.8 317.3,296.8 318.1,296.8 319.0,296.8 319.8,296.8 320.6,296.8 321.4,296.8 322.3,296.8 323.2,296.8 324.1,296.8 324.9,296.8 325.7,296.8 326.6,296.8 327.4,296.8 328.3,296.8 329.1,296.8 330.0,296.8 330.8,296.8 331.7,296.8 332.5,296.8 333.3,296.8 334.2,296.8 335.0,296.8 335.9,296.8 336.7,296.8 337.5,296.8 338.4,296.8 339.2,296.8 340.1,296.8 340.9,296.8 341.7,296.8 342.5,296.8 343.4,296.8 344.2,296.8 345.1,296.8 345.9,296.8 346.7,296.8 347.6,296.8 348.4,296.8 349.2,296.8 350.0,296.8 350.9,296.8 351.7,296.8 352.6,296.8 353.4,296.8 354.2,296.8 355.1,296.8 355.9,296.8 356.7,296.8 357.6,296.8 358.4,296.8 359.2,296.8 360.0,296.8 360.9,296.8 361.7,296.8 362.5,296.8 363.3,296.8 364.2,296.8 365.0,296.8 365.8,296.8 366.6,296.8 367.4,296.8 368.3,296.8 369.1,296.8 369.9,296.8 370.7,296.8 371.5,296.8 372.4,296.8 373.2,296.8 374.0,296.8 374.8,296.8 375.6,296.8 376.4,296.8 377.2,296.8 378.1,296.8 378.9,296.8 379.7,296.8 380.5,296.8 381.3,296.8 382.1,296.8 383.0,296.8 383.8,296.8 384.6,296.8 385.4,296.8 386.2,296.8 387.0,296.8 387.9,296.8 388.7,296.8 389.5,296.8 390.3,296.8 391.1,296.8 391.9,296.8 L391.9,298.5 L37.5,298.5 Z" fill="url(#g436)"/>
  <defs><clipPath id="pc437"><rect x="34" y="221" width="358" height="155"/></clipPath></defs>
  <polyline points="37.5,238.9 70.1,296.8 89.2,296.8 102.8,296.8 113.3,296.8 121.9,296.8 129.1,296.8 135.4,296.8 141.0,296.8 145.9,296.8 150.4,296.8 154.5,296.8 158.3,296.8 161.8,296.8 165.0,296.8 168.1,296.8 170.9,296.8 173.6,296.8 176.2,296.8 178.6,296.8 180.9,296.8 183.1,296.8 185.2,296.8 187.2,296.8 189.1,296.8 190.9,296.8 192.7,296.8 194.4,296.8 196.1,296.8 197.7,296.8 199.2,296.8 200.7,296.8 202.2,296.8 203.6,296.8 204.9,296.8 206.3,296.8 207.6,296.8 208.8,296.8 210.0,296.8 211.2,296.8 212.4,296.8 213.5,296.8 214.6,296.8 215.7,296.8 216.8,296.8 217.8,296.8 218.8,296.8 219.8,296.8 220.8,296.8 221.7,296.8 222.7,296.8 223.6,296.8 224.5,296.8 225.4,296.8 226.2,296.8 227.1,296.8 227.9,296.8 228.7,296.8 229.5,296.8 231.1,296.8 232.6,296.8 234.1,296.8 235.5,296.8 236.9,296.8 238.2,296.8 239.6,296.8 240.8,296.8 242.1,296.8 243.3,296.8 244.5,296.8 245.6,296.8 246.7,296.8 247.8,296.8 248.9,296.8 249.9,296.8 251.0,296.8 252.0,296.8 252.9,296.8 253.9,296.8 254.8,296.8 255.8,296.8 256.7,296.8 257.6,296.8 258.4,296.8 259.3,296.8 260.1,296.8 261.0,296.8 261.8,296.8 263.0,296.8 264.1,296.8 265.3,296.8 266.4,296.8 267.5,296.8 268.5,296.8 269.6,296.8 270.6,296.8 271.6,296.8 272.5,296.8 273.5,296.8 274.4,296.8 275.3,296.8 276.2,296.8 277.1,296.8 278.0,296.8 278.8,296.8 279.6,296.8 280.5,296.8 281.3,296.8 282.3,296.8 283.4,296.8 284.4,296.8 285.3,296.8 286.3,296.8 287.3,296.8 288.2,296.8 289.1,296.8 290.0,296.8 290.9,296.8 291.7,296.8 292.6,296.8 293.4,296.8 294.2,296.8 295.0,296.8 296.0,296.8 297.0,296.8 297.9,296.8 298.8,296.8 299.7,296.8 300.6,296.8 301.5,296.8 302.4,296.8 303.2,296.8 304.0,296.8 304.9,296.8 305.8,296.8 306.7,296.8 307.7,296.8 308.6,296.8 309.5,296.8 310.3,296.8 311.2,296.8 312.0,296.8 312.8,296.8 313.7,296.8 314.6,296.8 315.5,296.8 316.4,296.8 317.3,296.8 318.1,296.8 319.0,296.8 319.8,296.8 320.6,296.8 321.4,296.8 322.3,296.8 323.2,296.8 324.1,296.8 324.9,296.8 325.7,296.8 326.6,296.8 327.4,296.8 328.3,296.8 329.1,296.8 330.0,296.8 330.8,296.8 331.7,296.8 332.5,296.8 333.3,296.8 334.2,296.8 335.0,296.8 335.9,296.8 336.7,296.8 337.5,296.8 338.4,296.8 339.2,296.8 340.1,296.8 340.9,296.8 341.7,296.8 342.5,296.8 343.4,296.8 344.2,296.8 345.1,296.8 345.9,296.8 346.7,296.8 347.6,296.8 348.4,296.8 349.2,296.8 350.0,296.8 350.9,296.8 351.7,296.8 352.6,296.8 353.4,296.8 354.2,296.8 355.1,296.8 355.9,296.8 356.7,296.8 357.6,296.8 358.4,296.8 359.2,296.8 360.0,296.8 360.9,296.8 361.7,296.8 362.5,296.8 363.3,296.8 364.2,296.8 365.0,296.8 365.8,296.8 366.6,296.8 367.4,296.8 368.3,296.8 369.1,296.8 369.9,296.8 370.7,296.8 371.5,296.8 372.4,296.8 373.2,296.8 374.0,296.8 374.8,296.8 375.6,296.8 376.4,296.8 377.2,296.8 378.1,296.8 378.9,296.8 379.7,296.8 380.5,296.8 381.3,296.8 382.1,296.8 383.0,296.8 383.8,296.8 384.6,296.8 385.4,296.8 386.2,296.8 387.0,296.8 387.9,296.8 388.7,296.8 389.5,296.8 390.3,296.8 391.1,296.8 391.9,296.8" fill="none" stroke="#2ecc71" stroke-width="1.5" stroke-linejoin="round" clip-path="url(#pc437)"/>
  <line x1="442" y1="221" x2="442" y2="376" stroke="#d1d5db"/>
  <line x1="442" y1="298.5" x2="800" y2="298.5" stroke="#d1d5db"/>
  <text x="621" y="402" text-anchor="middle" font-size="9" fill="#6b7280">Samples</text>
  <text x="420" y="298.5" text-anchor="middle" font-size="9" fill="#6b7280" transform="rotate(-90 420 298.5)">Impulse response</text>
  <line x1="442.0" y1="221" x2="442.0" y2="376" stroke="#e5e7eb" stroke-width="0.5"/>
  <text x="442.0" y="388" text-anchor="middle" font-size="8" fill="#6b7280">0</text>
  <line x1="673.0" y1="221" x2="673.0" y2="376" stroke="#e5e7eb" stroke-width="0.5"/>
  <text x="673.0" y="388" text-anchor="middle" font-size="8" fill="#6b7280">20</text>
  <line x1="442" y1="353.3" x2="800" y2="353.3" stroke="#e5e7eb" stroke-width="0.5"/>
  <text x="438" y="356.3" text-anchor="end" font-size="8" fill="#6b7280">-0.7</text>
  <text x="438" y="301.5" text-anchor="end" font-size="8" fill="#6b7280">0</text>
  <line x1="442" y1="243.7" x2="800" y2="243.7" stroke="#e5e7eb" stroke-width="0.5"/>
  <text x="438" y="246.7" text-anchor="end" font-size="8" fill="#6b7280">0.7</text>
  <defs><linearGradient id="g438" x1="0" y1="221" x2="0" y2="298.5" gradientUnits="userSpaceOnUse">
    <stop offset="0%" stop-color="#f39c12" stop-opacity="0.15"/>
    <stop offset="100%" stop-color="#f39c12" stop-opacity="0.02"/>
  </linearGradient></defs>
  <defs><linearGradient id="g439" x1="0" y1="376" x2="0" y2="298.5" gradientUnits="userSpaceOnUse">
    <stop offset="0%" stop-color="#f39c12" stop-opacity="0.15"/>
    <stop offset="100%" stop-color="#f39c12" stop-opacity="0.02"/>
  </linearGradient></defs>
  <defs><clipPath id="c440"><rect x="442" y="221" width="358" height="77.5"/></clipPath></defs>
  <defs><clipPath id="c441"><rect x="442" y="298.5" width="358" height="77.5"/></clipPath></defs>
  <path d="M442.0,298.1 442.0,298.1 453.5,299.0 465.1,297.8 476.6,299.6 488.2,296.8 499.7,300.9 511.3,295.0 522.8,303.3 534.4,291.9 545.9,307.4 557.5,286.4 569.0,315.1 580.6,274.7 592.1,336.1 603.7,221.0 615.2,298.5 626.8,376.0 638.3,260.9 649.9,322.3 661.4,281.9 673.0,310.6 684.5,289.6 696.1,305.1 707.6,293.7 719.2,302.0 730.7,296.1 742.3,300.2 753.8,297.4 765.4,299.2 776.9,298.0 788.5,298.9 L788.5,298.5 L442.0,298.5 Z" fill="url(#g438)" clip-path="url(#c440)"/>
  <path d="M442.0,298.1 442.0,298.1 453.5,299.0 465.1,297.8 476.6,299.6 488.2,296.8 499.7,300.9 511.3,295.0 522.8,303.3 534.4,291.9 545.9,307.4 557.5,286.4 569.0,315.1 580.6,274.7 592.1,336.1 603.7,221.0 615.2,298.5 626.8,376.0 638.3,260.9 649.9,322.3 661.4,281.9 673.0,310.6 684.5,289.6 696.1,305.1 707.6,293.7 719.2,302.0 730.7,296.1 742.3,300.2 753.8,297.4 765.4,299.2 776.9,298.0 788.5,298.9 L788.5,298.5 L442.0,298.5 Z" fill="url(#g439)" clip-path="url(#c441)"/>
  <defs><clipPath id="pc442"><rect x="442" y="221" width="358" height="155"/></clipPath></defs>
  <polyline points="442.0,298.1 453.5,299.0 465.1,297.8 476.6,299.6 488.2,296.8 499.7,300.9 511.3,295.0 522.8,303.3 534.4,291.9 545.9,307.4 557.5,286.4 569.0,315.1 580.6,274.7 592.1,336.1 603.7,221.0 615.2,298.5 626.8,376.0 638.3,260.9 649.9,322.3 661.4,281.9 673.0,310.6 684.5,289.6 696.1,305.1 707.6,293.7 719.2,302.0 730.7,296.1 742.3,300.2 753.8,297.4 765.4,299.2 776.9,298.0 788.5,298.9" fill="none" stroke="#f39c12" stroke-width="1.3" stroke-linejoin="round" clip-path="url(#pc442)"/>
</svg>
