<svg xmlns="http://www.w3.org/2000/svg" viewBox="0 0 820 378" style="font-family:system-ui,-apple-system,sans-serif">
  <text x="800" y="11" text-anchor="end" font-size="11" font-weight="600" fill="#6b7280">Dynamic smoothing, fc=1–5kHz</text>
  <line x1="34" y1="16" x2="34" y2="171" stroke="#d1d5db"/>
  <line x1="34" y1="47.0" x2="399" y2="47.0" stroke="#d1d5db"/>
  <text x="216.5" y="197" text-anchor="middle" font-size="9" fill="#6b7280">Hz</text>
  <text x="12" y="93.5" text-anchor="middle" font-size="9" fill="#6b7280" transform="rotate(-90 12 93.5)">dB</text>
  <line x1="67.3" y1="16" x2="67.3" y2="171" stroke="#e5e7eb" stroke-width="0.5"/>
  <line x1="86.8" y1="16" x2="86.8" y2="171" stroke="#e5e7eb" stroke-width="0.5"/>
  <line x1="100.6" y1="16" x2="100.6" y2="171" stroke="#e5e7eb" stroke-width="0.5"/>
  <line x1="111.3" y1="16" x2="111.3" y2="171" stroke="#e5e7eb" stroke-width="0.5"/>
  <line x1="120.0" y1="16" x2="120.0" y2="171" stroke="#e5e7eb" stroke-width="0.5"/>
  <line x1="127.4" y1="16" x2="127.4" y2="171" stroke="#e5e7eb" stroke-width="0.5"/>
  <line x1="133.9" y1="16" x2="133.9" y2="171" stroke="#e5e7eb" stroke-width="0.5"/>
  <line x1="139.5" y1="16" x2="139.5" y2="171" stroke="#e5e7eb" stroke-width="0.5"/>
  <line x1="177.9" y1="16" x2="177.9" y2="171" stroke="#e5e7eb" stroke-width="0.5"/>
  <line x1="197.3" y1="16" x2="197.3" y2="171" stroke="#e5e7eb" stroke-width="0.5"/>
  <line x1="211.1" y1="16" x2="211.1" y2="171" stroke="#e5e7eb" stroke-width="0.5"/>
  <line x1="221.9" y1="16" x2="221.9" y2="171" stroke="#e5e7eb" stroke-width="0.5"/>
  <line x1="230.6" y1="16" x2="230.6" y2="171" stroke="#e5e7eb" stroke-width="0.5"/>
  <line x1="238.0" y1="16" x2="238.0" y2="171" stroke="#e5e7eb" stroke-width="0.5"/>
  <line x1="244.4" y1="16" x2="244.4" y2="171" stroke="#e5e7eb" stroke-width="0.5"/>
  <line x1="250.1" y1="16" x2="250.1" y2="171" stroke="#e5e7eb" stroke-width="0.5"/>
  <line x1="288.4" y1="16" x2="288.4" y2="171" stroke="#e5e7eb" stroke-width="0.5"/>
  <line x1="307.9" y1="16" x2="307.9" y2="171" stroke="#e5e7eb" stroke-width="0.5"/>
  <line x1="321.7" y1="16" x2="321.7" y2="171" stroke="#e5e7eb" stroke-width="0.5"/>
  <line x1="332.4" y1="16" x2="332.4" y2="171" stroke="#e5e7eb" stroke-width="0.5"/>
  <line x1="341.2" y1="16" x2="341.2" y2="171" stroke="#e5e7eb" stroke-width="0.5"/>
  <line x1="348.6" y1="16" x2="348.6" y2="171" stroke="#e5e7eb" stroke-width="0.5"/>
  <line x1="355.0" y1="16" x2="355.0" y2="171" stroke="#e5e7eb" stroke-width="0.5"/>
  <line x1="360.7" y1="16" x2="360.7" y2="171" stroke="#e5e7eb" stroke-width="0.5"/>
  <line x1="399.0" y1="16" x2="399.0" y2="171" stroke="#e5e7eb" stroke-width="0.5"/>
  <line x1="144.6" y1="16" x2="144.6" y2="171" stroke="#e5e7eb" stroke-width="0.5"/>
  <text x="144.6" y="183" text-anchor="middle" font-size="8" fill="#6b7280">100</text>
  <line x1="255.1" y1="16" x2="255.1" y2="171" stroke="#e5e7eb" stroke-width="0.5"/>
  <text x="255.1" y="183" text-anchor="middle" font-size="8" fill="#6b7280">1k</text>
  <line x1="365.7" y1="16" x2="365.7" y2="171" stroke="#e5e7eb" stroke-width="0.5"/>
  <text x="365.7" y="183" text-anchor="middle" font-size="8" fill="#6b7280">10k</text>
  <line x1="34" y1="31.5" x2="399" y2="31.5" stroke="#e5e7eb" stroke-width="0.5"/>
  <line x1="34" y1="62.5" x2="399" y2="62.5" stroke="#e5e7eb" stroke-width="0.5"/>
  <line x1="34" y1="16.0" x2="399" y2="16.0" stroke="#e5e7eb" stroke-width="0.5"/>
  <text x="30" y="19.0" text-anchor="end" font-size="8" fill="#6b7280">+20</text>
  <text x="30" y="50.0" text-anchor="end" font-size="8" fill="#6b7280">0</text>
  <line x1="34" y1="78.0" x2="399" y2="78.0" stroke="#e5e7eb" stroke-width="0.5"/>
  <text x="30" y="81.0" text-anchor="end" font-size="8" fill="#6b7280">-20</text>
  <line x1="34" y1="109.0" x2="399" y2="109.0" stroke="#e5e7eb" stroke-width="0.5"/>
  <text x="30" y="112.0" text-anchor="end" font-size="8" fill="#6b7280">-40</text>
  <line x1="34" y1="140.0" x2="399" y2="140.0" stroke="#e5e7eb" stroke-width="0.5"/>
  <text x="30" y="143.0" text-anchor="end" font-size="8" fill="#6b7280">-60</text>
  <line x1="34" y1="171.0" x2="399" y2="171.0" stroke="#e5e7eb" stroke-width="0.5"/>
  <text x="30" y="174.0" text-anchor="end" font-size="8" fill="#6b7280">-80</text>
  <defs><linearGradient id="g655" x1="0" y1="16" x2="0" y2="171" gradientUnits="userSpaceOnUse">
    <stop offset="0%" stop-color="#4a90d9" stop-opacity="0.15"/>
    <stop offset="100%" stop-color="#4a90d9" stop-opacity="0.02"/>
  </linearGradient></defs>
  <path d="M37.5,16.0 37.5,16.0 70.8,16.0 90.3,16.0 104.1,16.0 114.8,16.0 123.6,16.0 131.0,16.0 137.4,16.0 143.1,16.0 148.1,16.0 152.7,16.0 156.9,16.0 160.7,16.0 164.3,16.0 167.6,25.2 170.7,64.1 173.6,28.6 176.3,19.8 178.9,16.0 181.4,16.0 183.7,16.0 186.0,16.0 188.1,16.0 190.2,16.0 192.1,16.0 194.0,16.0 195.8,16.0 197.6,16.8 199.2,20.3 200.9,25.5 202.4,34.3 204.0,64.3 205.5,38.4 206.9,28.8 208.3,23.8 209.6,20.8 210.9,18.9 212.2,17.7 213.5,17.2 214.7,17.2 215.9,17.7 217.0,18.7 218.2,20.4 219.3,22.7 220.3,26.0 221.4,30.9 222.4,39.2 223.4,64.4 224.4,44.7 225.4,34.4 226.4,29.2 227.3,25.9 228.2,23.8 229.1,22.5 230.0,21.9 230.8,21.7 231.7,22.1 232.5,23.0 233.4,24.5 234.2,26.7 235.7,34.6 237.3,64.4 238.7,38.6 240.2,29.7 241.6,26.1 242.9,25.1 244.2,26.3 245.5,29.8 246.8,37.4 248.0,64.4 249.2,42.0 250.3,32.8 251.4,29.0 252.6,27.8 253.6,28.8 254.7,32.2 255.7,39.6 256.7,64.4 257.7,44.9 258.7,35.3 259.6,31.4 260.6,30.1 261.5,31.0 262.4,34.2 263.3,41.4 264.1,64.4 265.0,47.4 265.8,37.5 266.6,33.4 267.4,32.1 268.6,34.1 269.8,42.9 270.9,64.1 272.0,39.4 273.1,34.2 274.2,34.5 275.2,40.2 276.2,64.5 277.2,45.2 278.2,36.8 279.1,35.4 280.0,38.8 281.0,51.6 281.9,53.8 282.7,40.1 283.6,36.7 284.5,38.3 285.3,46.4 286.1,74.3 286.9,44.3 288.0,37.9 289.0,41.1 290.0,64.5 291.0,45.6 292.0,39.1 292.9,42.1 293.9,64.5 294.8,46.9 295.7,40.2 296.6,43.0 297.4,64.6 298.3,48.2 299.1,41.2 299.9,43.9 300.7,64.6 301.7,46.2 302.7,42.3 303.6,55.4 304.6,50.4 305.5,42.8 306.4,50.9 307.3,56.6 308.1,43.9 309.0,48.3 309.8,67.5 310.6,45.5 311.4,46.8 312.4,69.1 313.3,45.5 314.2,52.5 315.1,54.5 316.0,46.0 316.9,64.7 317.7,49.4 318.6,48.6 319.4,74.2 320.2,47.6 321.1,58.0 322.0,50.9 322.9,51.5 323.8,58.2 324.7,49.0 325.5,79.4 326.3,49.0 327.1,64.9 327.9,51.3 328.8,59.0 329.7,51.9 330.6,59.3 331.4,52.5 332.3,59.5 333.1,53.1 333.9,59.7 334.8,52.4 335.7,74.2 336.5,52.0 337.4,72.9 338.2,53.6 339.0,60.7 339.8,57.5 340.7,54.5 341.6,84.9 342.4,54.7 343.3,59.3 344.1,65.4 344.9,54.6 345.8,64.0 346.6,65.6 347.5,55.5 348.3,61.6 349.1,71.5 350.0,57.8 350.8,57.2 351.7,67.1 352.5,71.0 353.3,58.7 354.1,57.8 355.0,62.0 355.8,75.5 356.6,70.6 357.5,61.1 358.3,59.3 359.1,59.6 360.0,62.2 360.8,67.8 361.6,72.6 362.5,78.2 363.3,79.3 364.1,74.6 364.9,74.4 365.8,74.2 366.6,74.0 367.4,73.9 368.2,77.5 369.1,78.4 369.9,75.9 370.7,69.6 371.6,65.8 372.4,64.3 373.2,64.5 374.0,68.0 374.8,75.4 375.6,74.3 376.5,66.8 377.3,66.4 378.1,72.4 378.9,72.9 379.7,66.9 380.5,70.6 381.4,73.6 382.2,67.7 383.0,73.8 383.8,70.0 384.6,71.0 385.5,71.7 386.3,71.2 387.1,72.2 387.9,72.3 388.7,71.0 389.5,74.5 390.3,70.9 391.2,72.4 392.0,74.1 392.8,71.8 393.6,72.1 394.4,73.7 395.2,73.8 396.0,73.0 396.8,72.7 397.6,72.8 398.5,73.0 L398.5,171.0 L37.5,171.0 Z" fill="url(#g655)"/>
  <defs><clipPath id="pc656"><rect x="34" y="16" width="365" height="155"/></clipPath></defs>
  <polyline points="37.5,-10.4 70.8,-10.2 90.3,-9.7 104.1,-9.1 114.8,-8.3 123.6,-7.3 131.0,-6.0 137.4,-4.5 143.1,-2.7 148.1,-0.5 152.7,2.2 156.9,5.5 160.7,9.8 164.3,15.6 167.6,25.2 170.7,64.1 173.6,28.6 176.3,19.8 178.9,15.4 181.4,12.7 183.7,11.1 186.0,10.3 188.1,10.0 190.2,10.3 192.1,11.1 194.0,12.3 195.8,14.2 197.6,16.8 199.2,20.3 200.9,25.5 202.4,34.3 204.0,64.3 205.5,38.4 206.9,28.8 208.3,23.8 209.6,20.8 210.9,18.9 212.2,17.7 213.5,17.2 214.7,17.2 215.9,17.7 217.0,18.7 218.2,20.4 219.3,22.7 220.3,26.0 221.4,30.9 222.4,39.2 223.4,64.4 224.4,44.7 225.4,34.4 226.4,29.2 227.3,25.9 228.2,23.8 229.1,22.5 230.0,21.9 230.8,21.7 231.7,22.1 232.5,23.0 233.4,24.5 234.2,26.7 235.7,34.6 237.3,64.4 238.7,38.6 240.2,29.7 241.6,26.1 242.9,25.1 244.2,26.3 245.5,29.8 246.8,37.4 248.0,64.4 249.2,42.0 250.3,32.8 251.4,29.0 252.6,27.8 253.6,28.8 254.7,32.2 255.7,39.6 256.7,64.4 257.7,44.9 258.7,35.3 259.6,31.4 260.6,30.1 261.5,31.0 262.4,34.2 263.3,41.4 264.1,64.4 265.0,47.4 265.8,37.5 266.6,33.4 267.4,32.1 268.6,34.1 269.8,42.9 270.9,64.1 272.0,39.4 273.1,34.2 274.2,34.5 275.2,40.2 276.2,64.5 277.2,45.2 278.2,36.8 279.1,35.4 280.0,38.8 281.0,51.6 281.9,53.8 282.7,40.1 283.6,36.7 284.5,38.3 285.3,46.4 286.1,74.3 286.9,44.3 288.0,37.9 289.0,41.1 290.0,64.5 291.0,45.6 292.0,39.1 292.9,42.1 293.9,64.5 294.8,46.9 295.7,40.2 296.6,43.0 297.4,64.6 298.3,48.2 299.1,41.2 299.9,43.9 300.7,64.6 301.7,46.2 302.7,42.3 303.6,55.4 304.6,50.4 305.5,42.8 306.4,50.9 307.3,56.6 308.1,43.9 309.0,48.3 309.8,67.5 310.6,45.5 311.4,46.8 312.4,69.1 313.3,45.5 314.2,52.5 315.1,54.5 316.0,46.0 316.9,64.7 317.7,49.4 318.6,48.6 319.4,74.2 320.2,47.6 321.1,58.0 322.0,50.9 322.9,51.5 323.8,58.2 324.7,49.0 325.5,79.4 326.3,49.0 327.1,64.9 327.9,51.3 328.8,59.0 329.7,51.9 330.6,59.3 331.4,52.5 332.3,59.5 333.1,53.1 333.9,59.7 334.8,52.4 335.7,74.2 336.5,52.0 337.4,72.9 338.2,53.6 339.0,60.7 339.8,57.5 340.7,54.5 341.6,84.9 342.4,54.7 343.3,59.3 344.1,65.4 344.9,54.6 345.8,64.0 346.6,65.6 347.5,55.5 348.3,61.6 349.1,71.5 350.0,57.8 350.8,57.2 351.7,67.1 352.5,71.0 353.3,58.7 354.1,57.8 355.0,62.0 355.8,75.5 356.6,70.6 357.5,61.1 358.3,59.3 359.1,59.6 360.0,62.2 360.8,67.8 361.6,72.6 362.5,78.2 363.3,79.3 364.1,74.6 364.9,74.4 365.8,74.2 366.6,74.0 367.4,73.9 368.2,77.5 369.1,78.4 369.9,75.9 370.7,69.6 371.6,65.8 372.4,64.3 373.2,64.5 374.0,68.0 374.8,75.4 375.6,74.3 376.5,66.8 377.3,66.4 378.1,72.4 378.9,72.9 379.7,66.9 380.5,70.6 381.4,73.6 382.2,67.7 383.0,73.8 383.8,70.0 384.6,71.0 385.5,71.7 386.3,71.2 387.1,72.2 387.9,72.3 388.7,71.0 389.5,74.5 390.3,70.9 391.2,72.4 392.0,74.1 392.8,71.8 393.6,72.1 394.4,73.7 395.2,73.8 396.0,73.0 396.8,72.7 397.6,72.8 398.5,73.0" fill="none" stroke="#4a90d9" stroke-width="1.5" stroke-linejoin="round" clip-path="url(#pc656)"/>
  <line x1="435" y1="16" x2="435" y2="171" stroke="#d1d5db"/>
  <line x1="435" y1="93.5" x2="800" y2="93.5" stroke="#d1d5db"/>
  <text x="617.5" y="197" text-anchor="middle" font-size="9" fill="#6b7280">Hz</text>
  <text x="413" y="93.5" text-anchor="middle" font-size="9" fill="#6b7280" transform="rotate(-90 413 93.5)">Phase (deg)</text>
  <line x1="468.3" y1="16" x2="468.3" y2="171" stroke="#e5e7eb" stroke-width="0.5"/>
  <line x1="487.8" y1="16" x2="487.8" y2="171" stroke="#e5e7eb" stroke-width="0.5"/>
  <line x1="501.6" y1="16" x2="501.6" y2="171" stroke="#e5e7eb" stroke-width="0.5"/>
  <line x1="512.3" y1="16" x2="512.3" y2="171" stroke="#e5e7eb" stroke-width="0.5"/>
  <line x1="521.0" y1="16" x2="521.0" y2="171" stroke="#e5e7eb" stroke-width="0.5"/>
  <line x1="528.4" y1="16" x2="528.4" y2="171" stroke="#e5e7eb" stroke-width="0.5"/>
  <line x1="534.9" y1="16" x2="534.9" y2="171" stroke="#e5e7eb" stroke-width="0.5"/>
  <line x1="540.5" y1="16" x2="540.5" y2="171" stroke="#e5e7eb" stroke-width="0.5"/>
  <line x1="578.9" y1="16" x2="578.9" y2="171" stroke="#e5e7eb" stroke-width="0.5"/>
  <line x1="598.3" y1="16" x2="598.3" y2="171" stroke="#e5e7eb" stroke-width="0.5"/>
  <line x1="612.1" y1="16" x2="612.1" y2="171" stroke="#e5e7eb" stroke-width="0.5"/>
  <line x1="622.9" y1="16" x2="622.9" y2="171" stroke="#e5e7eb" stroke-width="0.5"/>
  <line x1="631.6" y1="16" x2="631.6" y2="171" stroke="#e5e7eb" stroke-width="0.5"/>
  <line x1="639.0" y1="16" x2="639.0" y2="171" stroke="#e5e7eb" stroke-width="0.5"/>
  <line x1="645.4" y1="16" x2="645.4" y2="171" stroke="#e5e7eb" stroke-width="0.5"/>
  <line x1="651.1" y1="16" x2="651.1" y2="171" stroke="#e5e7eb" stroke-width="0.5"/>
  <line x1="689.4" y1="16" x2="689.4" y2="171" stroke="#e5e7eb" stroke-width="0.5"/>
  <line x1="708.9" y1="16" x2="708.9" y2="171" stroke="#e5e7eb" stroke-width="0.5"/>
  <line x1="722.7" y1="16" x2="722.7" y2="171" stroke="#e5e7eb" stroke-width="0.5"/>
  <line x1="733.4" y1="16" x2="733.4" y2="171" stroke="#e5e7eb" stroke-width="0.5"/>
  <line x1="742.2" y1="16" x2="742.2" y2="171" stroke="#e5e7eb" stroke-width="0.5"/>
  <line x1="749.6" y1="16" x2="749.6" y2="171" stroke="#e5e7eb" stroke-width="0.5"/>
  <line x1="756.0" y1="16" x2="756.0" y2="171" stroke="#e5e7eb" stroke-width="0.5"/>
  <line x1="761.7" y1="16" x2="761.7" y2="171" stroke="#e5e7eb" stroke-width="0.5"/>
  <line x1="800.0" y1="16" x2="800.0" y2="171" stroke="#e5e7eb" stroke-width="0.5"/>
  <line x1="545.6" y1="16" x2="545.6" y2="171" stroke="#e5e7eb" stroke-width="0.5"/>
  <text x="545.6" y="183" text-anchor="middle" font-size="8" fill="#6b7280">100</text>
  <line x1="656.1" y1="16" x2="656.1" y2="171" stroke="#e5e7eb" stroke-width="0.5"/>
  <text x="656.1" y="183" text-anchor="middle" font-size="8" fill="#6b7280">1k</text>
  <line x1="766.7" y1="16" x2="766.7" y2="171" stroke="#e5e7eb" stroke-width="0.5"/>
  <text x="766.7" y="183" text-anchor="middle" font-size="8" fill="#6b7280">10k</text>
  <line x1="435" y1="58.6" x2="800" y2="58.6" stroke="#e5e7eb" stroke-width="0.5"/>
  <line x1="435" y1="128.4" x2="800" y2="128.4" stroke="#e5e7eb" stroke-width="0.5"/>
  <line x1="435" y1="23.8" x2="800" y2="23.8" stroke="#e5e7eb" stroke-width="0.5"/>
  <text x="431" y="26.8" text-anchor="end" font-size="8" fill="#6b7280">180</text>
  <text x="431" y="96.5" text-anchor="end" font-size="8" fill="#6b7280">0</text>
  <line x1="435" y1="163.3" x2="800" y2="163.3" stroke="#e5e7eb" stroke-width="0.5"/>
  <text x="431" y="166.3" text-anchor="end" font-size="8" fill="#6b7280">-180</text>
  <defs><linearGradient id="g657" x1="0" y1="16" x2="0" y2="93.5" gradientUnits="userSpaceOnUse">
    <stop offset="0%" stop-color="#e74c3c" stop-opacity="0.15"/>
    <stop offset="100%" stop-color="#e74c3c" stop-opacity="0.02"/>
  </linearGradient></defs>
  <defs><linearGradient id="g658" x1="0" y1="171" x2="0" y2="93.5" gradientUnits="userSpaceOnUse">
    <stop offset="0%" stop-color="#e74c3c" stop-opacity="0.15"/>
    <stop offset="100%" stop-color="#e74c3c" stop-opacity="0.02"/>
  </linearGradient></defs>
  <defs><clipPath id="c659"><rect x="435" y="16" width="365" height="77.5"/></clipPath></defs>
  <defs><clipPath id="c660"><rect x="435" y="93.5" width="365" height="77.5"/></clipPath></defs>
  <path d="M438.5,97.9 438.5,97.9 471.8,102.2 491.3,106.6 505.1,110.9 515.8,115.3 524.6,119.6 532.0,124.0 538.4,128.3 544.1,132.7 549.1,137.0 553.7,141.4 557.9,145.7 561.7,150.1 565.3,154.4 568.6,158.6 571.7,159.0 574.6,98.1 577.3,102.3 579.9,106.6 582.4,111.0 584.7,115.3 587.0,119.7 589.1,124.0 591.2,128.4 593.1,132.7 595.0,137.1 596.8,141.4 598.6,145.7 600.2,150.1 601.9,154.4 603.4,158.7 605.0,161.3 606.5,98.1 607.9,102.3 609.3,106.6 610.6,111.0 611.9,115.3 613.2,119.7 614.5,124.0 615.7,128.4 616.9,132.7 618.0,137.1 619.2,141.4 620.3,145.8 621.3,150.1 622.4,154.4 623.4,158.7 624.4,162.2 625.4,98.1 626.4,102.3 627.4,106.6 628.3,111.0 629.2,115.3 630.1,119.6 631.0,124.0 631.8,128.4 632.7,132.7 633.5,137.1 634.4,141.4 635.2,145.8 636.7,154.4 638.3,162.7 639.7,102.3 641.2,110.9 642.6,119.6 643.9,128.3 645.2,137.1 646.5,145.8 647.8,154.5 649.0,163.0 650.2,102.2 651.3,110.9 652.4,119.6 653.6,128.3 654.6,137.1 655.7,145.8 656.7,154.5 657.7,23.8 658.7,102.2 659.7,110.9 660.6,119.6 661.6,128.3 662.5,137.1 663.4,145.8 664.3,154.5 665.1,24.0 666.0,102.1 666.8,110.9 667.6,119.6 668.4,128.3 669.6,141.4 670.8,154.6 671.9,97.3 673.0,110.8 674.1,123.9 675.2,137.1 676.2,150.2 677.2,24.5 678.2,106.4 679.2,119.5 680.1,132.7 681.0,145.8 682.0,159.2 682.9,101.7 683.7,115.1 684.6,128.3 685.5,141.5 686.3,154.7 687.1,95.4 687.9,110.7 689.0,128.3 690.0,145.9 691.0,25.0 692.0,110.6 693.0,128.3 693.9,145.9 694.9,25.1 695.8,110.5 696.7,128.3 697.6,145.9 698.4,25.3 699.3,110.4 700.1,128.2 700.9,145.9 701.7,25.4 702.7,114.9 703.7,137.1 704.6,159.7 705.6,110.3 706.5,132.6 707.4,155.1 708.3,105.4 709.1,128.2 710.0,150.5 710.8,99.3 711.6,123.7 712.4,146.0 713.4,98.7 714.3,128.1 715.2,155.2 716.1,109.8 717.0,137.1 717.9,26.3 718.7,119.0 719.6,146.1 720.4,96.2 721.2,128.0 722.1,160.4 723.0,118.8 723.9,150.8 724.8,109.0 725.7,141.6 726.5,91.8 727.3,132.5 728.1,27.0 728.9,123.2 729.8,160.8 730.7,123.1 731.6,160.9 732.4,123.0 733.3,161.0 734.1,123.0 734.9,161.1 735.8,127.6 736.7,36.4 737.5,136.9 738.4,98.4 739.2,146.3 740.0,112.3 740.8,156.2 741.7,127.3 742.6,60.6 743.4,146.4 744.3,117.0 745.1,28.3 745.9,136.7 746.8,110.8 747.6,28.5 748.5,141.5 749.3,116.1 750.1,36.8 751.0,151.5 751.8,131.4 752.7,108.7 753.5,37.0 754.3,151.5 755.1,136.2 756.0,120.2 756.8,95.9 757.6,37.2 758.5,157.0 759.3,146.3 760.1,135.8 761.0,124.8 761.8,111.8 762.6,102.5 763.5,87.5 764.3,65.0 765.1,48.1 765.9,48.0 766.8,47.9 767.6,47.8 768.4,47.8 769.2,61.4 770.1,78.6 770.9,93.7 771.7,113.5 772.6,127.2 773.4,139.3 774.2,151.1 775.0,30.9 775.8,58.7 776.6,99.4 777.5,131.7 778.3,157.0 779.1,47.4 779.9,106.5 780.7,143.6 781.5,38.7 782.4,103.9 783.2,149.6 784.0,56.8 784.8,127.6 785.6,38.7 786.5,118.3 787.3,38.6 788.1,116.9 788.9,46.9 789.7,131.9 790.5,75.2 791.3,161.7 792.2,121.7 793.0,73.9 793.8,29.4 794.6,136.3 795.4,100.8 796.2,72.3 797.0,45.2 797.8,27.8 798.6,150.1 799.5,141.0 L799.5,93.5 L438.5,93.5 Z" fill="url(#g657)" clip-path="url(#c659)"/>
  <path d="M438.5,97.9 438.5,97.9 471.8,102.2 491.3,106.6 505.1,110.9 515.8,115.3 524.6,119.6 532.0,124.0 538.4,128.3 544.1,132.7 549.1,137.0 553.7,141.4 557.9,145.7 561.7,150.1 565.3,154.4 568.6,158.6 571.7,159.0 574.6,98.1 577.3,102.3 579.9,106.6 582.4,111.0 584.7,115.3 587.0,119.7 589.1,124.0 591.2,128.4 593.1,132.7 595.0,137.1 596.8,141.4 598.6,145.7 600.2,150.1 601.9,154.4 603.4,158.7 605.0,161.3 606.5,98.1 607.9,102.3 609.3,106.6 610.6,111.0 611.9,115.3 613.2,119.7 614.5,124.0 615.7,128.4 616.9,132.7 618.0,137.1 619.2,141.4 620.3,145.8 621.3,150.1 622.4,154.4 623.4,158.7 624.4,162.2 625.4,98.1 626.4,102.3 627.4,106.6 628.3,111.0 629.2,115.3 630.1,119.6 631.0,124.0 631.8,128.4 632.7,132.7 633.5,137.1 634.4,141.4 635.2,145.8 636.7,154.4 638.3,162.7 639.7,102.3 641.2,110.9 642.6,119.6 643.9,128.3 645.2,137.1 646.5,145.8 647.8,154.5 649.0,163.0 650.2,102.2 651.3,110.9 652.4,119.6 653.6,128.3 654.6,137.1 655.7,145.8 656.7,154.5 657.7,23.8 658.7,102.2 659.7,110.9 660.6,119.6 661.6,128.3 662.5,137.1 663.4,145.8 664.3,154.5 665.1,24.0 666.0,102.1 666.8,110.9 667.6,119.6 668.4,128.3 669.6,141.4 670.8,154.6 671.9,97.3 673.0,110.8 674.1,123.9 675.2,137.1 676.2,150.2 677.2,24.5 678.2,106.4 679.2,119.5 680.1,132.7 681.0,145.8 682.0,159.2 682.9,101.7 683.7,115.1 684.6,128.3 685.5,141.5 686.3,154.7 687.1,95.4 687.9,110.7 689.0,128.3 690.0,145.9 691.0,25.0 692.0,110.6 693.0,128.3 693.9,145.9 694.9,25.1 695.8,110.5 696.7,128.3 697.6,145.9 698.4,25.3 699.3,110.4 700.1,128.2 700.9,145.9 701.7,25.4 702.7,114.9 703.7,137.1 704.6,159.7 705.6,110.3 706.5,132.6 707.4,155.1 708.3,105.4 709.1,128.2 710.0,150.5 710.8,99.3 711.6,123.7 712.4,146.0 713.4,98.7 714.3,128.1 715.2,155.2 716.1,109.8 717.0,137.1 717.9,26.3 718.7,119.0 719.6,146.1 720.4,96.2 721.2,128.0 722.1,160.4 723.0,118.8 723.9,150.8 724.8,109.0 725.7,141.6 726.5,91.8 727.3,132.5 728.1,27.0 728.9,123.2 729.8,160.8 730.7,123.1 731.6,160.9 732.4,123.0 733.3,161.0 734.1,123.0 734.9,161.1 735.8,127.6 736.7,36.4 737.5,136.9 738.4,98.4 739.2,146.3 740.0,112.3 740.8,156.2 741.7,127.3 742.6,60.6 743.4,146.4 744.3,117.0 745.1,28.3 745.9,136.7 746.8,110.8 747.6,28.5 748.5,141.5 749.3,116.1 750.1,36.8 751.0,151.5 751.8,131.4 752.7,108.7 753.5,37.0 754.3,151.5 755.1,136.2 756.0,120.2 756.8,95.9 757.6,37.2 758.5,157.0 759.3,146.3 760.1,135.8 761.0,124.8 761.8,111.8 762.6,102.5 763.5,87.5 764.3,65.0 765.1,48.1 765.9,48.0 766.8,47.9 767.6,47.8 768.4,47.8 769.2,61.4 770.1,78.6 770.9,93.7 771.7,113.5 772.6,127.2 773.4,139.3 774.2,151.1 775.0,30.9 775.8,58.7 776.6,99.4 777.5,131.7 778.3,157.0 779.1,47.4 779.9,106.5 780.7,143.6 781.5,38.7 782.4,103.9 783.2,149.6 784.0,56.8 784.8,127.6 785.6,38.7 786.5,118.3 787.3,38.6 788.1,116.9 788.9,46.9 789.7,131.9 790.5,75.2 791.3,161.7 792.2,121.7 793.0,73.9 793.8,29.4 794.6,136.3 795.4,100.8 796.2,72.3 797.0,45.2 797.8,27.8 798.6,150.1 799.5,141.0 L799.5,93.5 L438.5,93.5 Z" fill="url(#g658)" clip-path="url(#c660)"/>
  <defs><clipPath id="pc661"><rect x="435" y="16" width="365" height="155"/></clipPath></defs>
  <polyline points="438.5,97.9 471.8,102.2 491.3,106.6 505.1,110.9 515.8,115.3 524.6,119.6 532.0,124.0 538.4,128.3 544.1,132.7 549.1,137.0 553.7,141.4 557.9,145.7 561.7,150.1 565.3,154.4 568.6,158.6 571.7,159.0 574.6,98.1 577.3,102.3 579.9,106.6 582.4,111.0 584.7,115.3 587.0,119.7 589.1,124.0 591.2,128.4 593.1,132.7 595.0,137.1 596.8,141.4 598.6,145.7 600.2,150.1 601.9,154.4 603.4,158.7 605.0,161.3 606.5,98.1 607.9,102.3 609.3,106.6 610.6,111.0 611.9,115.3 613.2,119.7 614.5,124.0 615.7,128.4 616.9,132.7 618.0,137.1 619.2,141.4 620.3,145.8 621.3,150.1 622.4,154.4 623.4,158.7 624.4,162.2 625.4,98.1 626.4,102.3 627.4,106.6 628.3,111.0 629.2,115.3 630.1,119.6 631.0,124.0 631.8,128.4 632.7,132.7 633.5,137.1 634.4,141.4 635.2,145.8 636.7,154.4 638.3,162.7 639.7,102.3 641.2,110.9 642.6,119.6 643.9,128.3 645.2,137.1 646.5,145.8 647.8,154.5 649.0,163.0 650.2,102.2 651.3,110.9 652.4,119.6 653.6,128.3 654.6,137.1 655.7,145.8 656.7,154.5 657.7,23.8 658.7,102.2 659.7,110.9 660.6,119.6 661.6,128.3 662.5,137.1 663.4,145.8 664.3,154.5 665.1,24.0 666.0,102.1 666.8,110.9 667.6,119.6 668.4,128.3 669.6,141.4 670.8,154.6 671.9,97.3 673.0,110.8 674.1,123.9 675.2,137.1 676.2,150.2 677.2,24.5 678.2,106.4 679.2,119.5 680.1,132.7 681.0,145.8 682.0,159.2 682.9,101.7 683.7,115.1 684.6,128.3 685.5,141.5 686.3,154.7 687.1,95.4 687.9,110.7 689.0,128.3 690.0,145.9 691.0,25.0 692.0,110.6 693.0,128.3 693.9,145.9 694.9,25.1 695.8,110.5 696.7,128.3 697.6,145.9 698.4,25.3 699.3,110.4 700.1,128.2 700.9,145.9 701.7,25.4 702.7,114.9 703.7,137.1 704.6,159.7 705.6,110.3 706.5,132.6 707.4,155.1 708.3,105.4 709.1,128.2 710.0,150.5 710.8,99.3 711.6,123.7 712.4,146.0 713.4,98.7 714.3,128.1 715.2,155.2 716.1,109.8 717.0,137.1 717.9,26.3 718.7,119.0 719.6,146.1 720.4,96.2 721.2,128.0 722.1,160.4 723.0,118.8 723.9,150.8 724.8,109.0 725.7,141.6 726.5,91.8 727.3,132.5 728.1,27.0 728.9,123.2 729.8,160.8 730.7,123.1 731.6,160.9 732.4,123.0 733.3,161.0 734.1,123.0 734.9,161.1 735.8,127.6 736.7,36.4 737.5,136.9 738.4,98.4 739.2,146.3 740.0,112.3 740.8,156.2 741.7,127.3 742.6,60.6 743.4,146.4 744.3,117.0 745.1,28.3 745.9,136.7 746.8,110.8 747.6,28.5 748.5,141.5 749.3,116.1 750.1,36.8 751.0,151.5 751.8,131.4 752.7,108.7 753.5,37.0 754.3,151.5 755.1,136.2 756.0,120.2 756.8,95.9 757.6,37.2 758.5,157.0 759.3,146.3 760.1,135.8 761.0,124.8 761.8,111.8 762.6,102.5 763.5,87.5 764.3,65.0 765.1,48.1 765.9,48.0 766.8,47.9 767.6,47.8 768.4,47.8 769.2,61.4 770.1,78.6 770.9,93.7 771.7,113.5 772.6,127.2 773.4,139.3 774.2,151.1 775.0,30.9 775.8,58.7 776.6,99.4 777.5,131.7 778.3,157.0 779.1,47.4 779.9,106.5 780.7,143.6 781.5,38.7 782.4,103.9 783.2,149.6 784.0,56.8 784.8,127.6 785.6,38.7 786.5,118.3 787.3,38.6 788.1,116.9 788.9,46.9 789.7,131.9 790.5,75.2 791.3,161.7 792.2,121.7 793.0,73.9 793.8,29.4 794.6,136.3 795.4,100.8 796.2,72.3 797.0,45.2 797.8,27.8 798.6,150.1 799.5,141.0" fill="none" stroke="#e74c3c" stroke-width="1.5" stroke-linejoin="round" clip-path="url(#pc661)"/>
  <line x1="34" y1="207" x2="34" y2="362" stroke="#d1d5db"/>
  <line x1="34" y1="284.5" x2="399" y2="284.5" stroke="#d1d5db"/>
  <text x="216.5" y="388" text-anchor="middle" font-size="9" fill="#6b7280">Hz</text>
  <text x="12" y="284.5" text-anchor="middle" font-size="9" fill="#6b7280" transform="rotate(-90 12 284.5)">Group delay</text>
  <line x1="67.3" y1="207" x2="67.3" y2="362" stroke="#e5e7eb" stroke-width="0.5"/>
  <line x1="86.8" y1="207" x2="86.8" y2="362" stroke="#e5e7eb" stroke-width="0.5"/>
  <line x1="100.6" y1="207" x2="100.6" y2="362" stroke="#e5e7eb" stroke-width="0.5"/>
  <line x1="111.3" y1="207" x2="111.3" y2="362" stroke="#e5e7eb" stroke-width="0.5"/>
  <line x1="120.0" y1="207" x2="120.0" y2="362" stroke="#e5e7eb" stroke-width="0.5"/>
  <line x1="127.4" y1="207" x2="127.4" y2="362" stroke="#e5e7eb" stroke-width="0.5"/>
  <line x1="133.9" y1="207" x2="133.9" y2="362" stroke="#e5e7eb" stroke-width="0.5"/>
  <line x1="139.5" y1="207" x2="139.5" y2="362" stroke="#e5e7eb" stroke-width="0.5"/>
  <line x1="177.9" y1="207" x2="177.9" y2="362" stroke="#e5e7eb" stroke-width="0.5"/>
  <line x1="197.3" y1="207" x2="197.3" y2="362" stroke="#e5e7eb" stroke-width="0.5"/>
  <line x1="211.1" y1="207" x2="211.1" y2="362" stroke="#e5e7eb" stroke-width="0.5"/>
  <line x1="221.9" y1="207" x2="221.9" y2="362" stroke="#e5e7eb" stroke-width="0.5"/>
  <line x1="230.6" y1="207" x2="230.6" y2="362" stroke="#e5e7eb" stroke-width="0.5"/>
  <line x1="238.0" y1="207" x2="238.0" y2="362" stroke="#e5e7eb" stroke-width="0.5"/>
  <line x1="244.4" y1="207" x2="244.4" y2="362" stroke="#e5e7eb" stroke-width="0.5"/>
  <line x1="250.1" y1="207" x2="250.1" y2="362" stroke="#e5e7eb" stroke-width="0.5"/>
  <line x1="288.4" y1="207" x2="288.4" y2="362" stroke="#e5e7eb" stroke-width="0.5"/>
  <line x1="307.9" y1="207" x2="307.9" y2="362" stroke="#e5e7eb" stroke-width="0.5"/>
  <line x1="321.7" y1="207" x2="321.7" y2="362" stroke="#e5e7eb" stroke-width="0.5"/>
  <line x1="332.4" y1="207" x2="332.4" y2="362" stroke="#e5e7eb" stroke-width="0.5"/>
  <line x1="341.2" y1="207" x2="341.2" y2="362" stroke="#e5e7eb" stroke-width="0.5"/>
  <line x1="348.6" y1="207" x2="348.6" y2="362" stroke="#e5e7eb" stroke-width="0.5"/>
  <line x1="355.0" y1="207" x2="355.0" y2="362" stroke="#e5e7eb" stroke-width="0.5"/>
  <line x1="360.7" y1="207" x2="360.7" y2="362" stroke="#e5e7eb" stroke-width="0.5"/>
  <line x1="399.0" y1="207" x2="399.0" y2="362" stroke="#e5e7eb" stroke-width="0.5"/>
  <line x1="144.6" y1="207" x2="144.6" y2="362" stroke="#e5e7eb" stroke-width="0.5"/>
  <text x="144.6" y="374" text-anchor="middle" font-size="8" fill="#6b7280">100</text>
  <line x1="255.1" y1="207" x2="255.1" y2="362" stroke="#e5e7eb" stroke-width="0.5"/>
  <text x="255.1" y="374" text-anchor="middle" font-size="8" fill="#6b7280">1k</text>
  <line x1="365.7" y1="207" x2="365.7" y2="362" stroke="#e5e7eb" stroke-width="0.5"/>
  <text x="365.7" y="374" text-anchor="middle" font-size="8" fill="#6b7280">10k</text>
  <line x1="34" y1="325.3" x2="399" y2="325.3" stroke="#e5e7eb" stroke-width="0.5"/>
  <text x="30" y="328.3" text-anchor="end" font-size="8" fill="#6b7280">-700</text>
  <text x="30" y="287.5" text-anchor="end" font-size="8" fill="#6b7280">0</text>
  <line x1="34" y1="243.7" x2="399" y2="243.7" stroke="#e5e7eb" stroke-width="0.5"/>
  <text x="30" y="246.7" text-anchor="end" font-size="8" fill="#6b7280">700</text>
  <defs><linearGradient id="g662" x1="0" y1="207" x2="0" y2="284.5" gradientUnits="userSpaceOnUse">
    <stop offset="0%" stop-color="#2ecc71" stop-opacity="0.15"/>
    <stop offset="100%" stop-color="#2ecc71" stop-opacity="0.02"/>
  </linearGradient></defs>
  <defs><linearGradient id="g663" x1="0" y1="362" x2="0" y2="284.5" gradientUnits="userSpaceOnUse">
    <stop offset="0%" stop-color="#2ecc71" stop-opacity="0.15"/>
    <stop offset="100%" stop-color="#2ecc71" stop-opacity="0.02"/>
  </linearGradient></defs>
  <defs><clipPath id="c664"><rect x="34" y="207" width="365" height="77.5"/></clipPath></defs>
  <defs><clipPath id="c665"><rect x="34" y="284.5" width="365" height="77.5"/></clipPath></defs>
  <path d="M37.5,277.1 37.5,277.1 70.8,277.1 90.3,277.1 104.1,277.1 114.8,277.1 123.6,277.1 131.0,277.1 137.4,277.1 143.1,277.1 148.1,277.1 152.7,277.1 156.9,277.1 160.7,277.1 164.3,277.2 167.6,280.6 170.7,336.2 173.6,332.9 176.3,277.2 178.9,277.1 181.4,277.1 183.7,277.1 186.0,277.1 188.1,277.1 190.2,277.1 192.1,277.1 194.0,277.1 195.8,277.1 197.6,277.1 199.2,277.1 200.9,277.2 202.4,278.6 204.0,336.3 205.5,334.9 206.9,277.2 208.3,277.1 209.6,277.1 210.9,277.1 212.2,277.1 213.5,277.1 214.7,277.1 215.9,277.1 217.0,277.1 218.2,277.1 219.3,277.1 220.3,277.1 221.4,277.1 222.4,277.9 223.4,336.3 224.4,335.7 225.4,277.2 226.4,277.1 227.3,277.1 228.2,277.1 229.1,277.1 230.0,277.1 230.8,277.1 231.7,277.1 232.5,277.1 233.4,277.1 234.2,277.1 235.7,277.1 237.3,336.4 238.7,277.2 240.2,277.1 241.6,277.1 242.9,277.1 244.2,277.1 245.5,277.1 246.8,277.1 248.0,336.6 249.2,277.1 250.3,277.1 251.4,277.1 252.6,277.0 253.6,277.0 254.7,277.0 255.7,277.0 256.7,336.7 257.7,277.0 258.7,277.0 259.6,277.0 260.6,277.0 261.5,277.0 262.4,277.0 263.3,277.0 264.1,337.0 265.0,276.9 265.8,277.0 266.6,277.0 267.4,277.0 268.6,277.0 269.8,277.0 270.9,337.3 272.0,277.0 273.1,277.0 274.2,277.0 275.2,277.0 276.2,337.7 277.2,276.9 278.2,277.0 279.1,277.0 280.0,277.0 281.0,276.4 281.9,275.9 282.7,277.0 283.6,277.0 284.5,277.0 285.3,276.8 286.1,338.1 286.9,276.9 288.0,277.0 289.0,276.9 290.0,340.2 291.0,276.9 292.0,277.0 292.9,276.9 293.9,342.1 294.8,276.8 295.7,277.0 296.6,276.9 297.4,226.1 298.3,276.7 299.1,276.9 299.9,276.9 300.7,232.5 301.7,276.8 302.7,276.9 303.6,275.9 304.6,276.6 305.5,276.9 306.4,276.5 307.3,275.7 308.1,276.9 309.0,276.7 309.8,234.3 310.6,276.8 311.4,276.8 312.4,231.3 313.3,276.8 314.2,276.4 315.1,276.2 316.0,276.8 316.9,268.6 317.7,276.7 318.6,276.7 319.4,228.3 320.2,276.8 321.1,275.4 322.0,276.6 322.9,276.5 323.8,275.4 324.7,276.7 325.5,228.2 326.3,276.7 327.1,271.1 327.9,276.5 328.8,275.2 329.7,276.5 330.6,275.2 331.4,276.4 332.3,275.1 333.1,276.4 333.9,275.1 334.8,276.5 335.7,245.7 336.5,276.5 337.4,252.6 338.2,276.3 339.0,274.8 339.8,275.7 340.7,276.2 341.6,234.4 342.4,276.2 343.3,275.4 344.1,272.3 344.9,276.2 345.8,273.5 346.6,272.3 347.5,276.1 348.3,274.7 349.1,264.2 350.0,275.7 350.8,275.9 351.7,271.4 352.5,266.0 353.3,275.6 354.1,275.8 355.0,274.7 355.8,257.0 356.6,267.5 357.5,275.0 358.3,275.5 359.1,275.5 360.0,274.7 360.8,271.4 361.6,265.3 362.5,253.8 363.3,251.9 364.1,261.9 364.9,262.5 365.8,263.1 366.6,263.6 367.4,264.1 368.2,257.3 369.1,255.8 369.9,260.9 370.7,270.6 371.6,273.5 372.4,274.2 373.2,274.2 374.0,272.2 374.8,263.0 375.6,265.0 376.5,273.2 377.3,273.4 378.1,268.1 378.9,267.7 379.7,273.3 380.5,270.6 381.4,267.2 382.2,272.9 383.0,267.1 383.8,271.5 384.6,270.6 385.5,270.0 386.3,270.6 387.1,269.7 387.9,269.6 388.7,271.0 389.5,267.2 390.3,271.3 391.2,269.9 392.0,268.0 392.8,270.6 393.6,270.5 394.4,268.8 395.2,268.8 396.0,269.8 396.8,270.1 397.6,270.1 398.5,270.0 L398.5,284.5 L37.5,284.5 Z" fill="url(#g662)" clip-path="url(#c664)"/>
  <path d="M37.5,277.1 37.5,277.1 70.8,277.1 90.3,277.1 104.1,277.1 114.8,277.1 123.6,277.1 131.0,277.1 137.4,277.1 143.1,277.1 148.1,277.1 152.7,277.1 156.9,277.1 160.7,277.1 164.3,277.2 167.6,280.6 170.7,336.2 173.6,332.9 176.3,277.2 178.9,277.1 181.4,277.1 183.7,277.1 186.0,277.1 188.1,277.1 190.2,277.1 192.1,277.1 194.0,277.1 195.8,277.1 197.6,277.1 199.2,277.1 200.9,277.2 202.4,278.6 204.0,336.3 205.5,334.9 206.9,277.2 208.3,277.1 209.6,277.1 210.9,277.1 212.2,277.1 213.5,277.1 214.7,277.1 215.9,277.1 217.0,277.1 218.2,277.1 219.3,277.1 220.3,277.1 221.4,277.1 222.4,277.9 223.4,336.3 224.4,335.7 225.4,277.2 226.4,277.1 227.3,277.1 228.2,277.1 229.1,277.1 230.0,277.1 230.8,277.1 231.7,277.1 232.5,277.1 233.4,277.1 234.2,277.1 235.7,277.1 237.3,336.4 238.7,277.2 240.2,277.1 241.6,277.1 242.9,277.1 244.2,277.1 245.5,277.1 246.8,277.1 248.0,336.6 249.2,277.1 250.3,277.1 251.4,277.1 252.6,277.0 253.6,277.0 254.7,277.0 255.7,277.0 256.7,336.7 257.7,277.0 258.7,277.0 259.6,277.0 260.6,277.0 261.5,277.0 262.4,277.0 263.3,277.0 264.1,337.0 265.0,276.9 265.8,277.0 266.6,277.0 267.4,277.0 268.6,277.0 269.8,277.0 270.9,337.3 272.0,277.0 273.1,277.0 274.2,277.0 275.2,277.0 276.2,337.7 277.2,276.9 278.2,277.0 279.1,277.0 280.0,277.0 281.0,276.4 281.9,275.9 282.7,277.0 283.6,277.0 284.5,277.0 285.3,276.8 286.1,338.1 286.9,276.9 288.0,277.0 289.0,276.9 290.0,340.2 291.0,276.9 292.0,277.0 292.9,276.9 293.9,342.1 294.8,276.8 295.7,277.0 296.6,276.9 297.4,226.1 298.3,276.7 299.1,276.9 299.9,276.9 300.7,232.5 301.7,276.8 302.7,276.9 303.6,275.9 304.6,276.6 305.5,276.9 306.4,276.5 307.3,275.7 308.1,276.9 309.0,276.7 309.8,234.3 310.6,276.8 311.4,276.8 312.4,231.3 313.3,276.8 314.2,276.4 315.1,276.2 316.0,276.8 316.9,268.6 317.7,276.7 318.6,276.7 319.4,228.3 320.2,276.8 321.1,275.4 322.0,276.6 322.9,276.5 323.8,275.4 324.7,276.7 325.5,228.2 326.3,276.7 327.1,271.1 327.9,276.5 328.8,275.2 329.7,276.5 330.6,275.2 331.4,276.4 332.3,275.1 333.1,276.4 333.9,275.1 334.8,276.5 335.7,245.7 336.5,276.5 337.4,252.6 338.2,276.3 339.0,274.8 339.8,275.7 340.7,276.2 341.6,234.4 342.4,276.2 343.3,275.4 344.1,272.3 344.9,276.2 345.8,273.5 346.6,272.3 347.5,276.1 348.3,274.7 349.1,264.2 350.0,275.7 350.8,275.9 351.7,271.4 352.5,266.0 353.3,275.6 354.1,275.8 355.0,274.7 355.8,257.0 356.6,267.5 357.5,275.0 358.3,275.5 359.1,275.5 360.0,274.7 360.8,271.4 361.6,265.3 362.5,253.8 363.3,251.9 364.1,261.9 364.9,262.5 365.8,263.1 366.6,263.6 367.4,264.1 368.2,257.3 369.1,255.8 369.9,260.9 370.7,270.6 371.6,273.5 372.4,274.2 373.2,274.2 374.0,272.2 374.8,263.0 375.6,265.0 376.5,273.2 377.3,273.4 378.1,268.1 378.9,267.7 379.7,273.3 380.5,270.6 381.4,267.2 382.2,272.9 383.0,267.1 383.8,271.5 384.6,270.6 385.5,270.0 386.3,270.6 387.1,269.7 387.9,269.6 388.7,271.0 389.5,267.2 390.3,271.3 391.2,269.9 392.0,268.0 392.8,270.6 393.6,270.5 394.4,268.8 395.2,268.8 396.0,269.8 396.8,270.1 397.6,270.1 398.5,270.0 L398.5,284.5 L37.5,284.5 Z" fill="url(#g663)" clip-path="url(#c665)"/>
  <defs><clipPath id="pc666"><rect x="34" y="207" width="365" height="155"/></clipPath></defs>
  <polyline points="37.5,277.1 70.8,277.1 90.3,277.1 104.1,277.1 114.8,277.1 123.6,277.1 131.0,277.1 137.4,277.1 143.1,277.1 148.1,277.1 152.7,277.1 156.9,277.1 160.7,277.1 164.3,277.2 167.6,280.6 170.7,336.2 173.6,332.9 176.3,277.2 178.9,277.1 181.4,277.1 183.7,277.1 186.0,277.1 188.1,277.1 190.2,277.1 192.1,277.1 194.0,277.1 195.8,277.1 197.6,277.1 199.2,277.1 200.9,277.2 202.4,278.6 204.0,336.3 205.5,334.9 206.9,277.2 208.3,277.1 209.6,277.1 210.9,277.1 212.2,277.1 213.5,277.1 214.7,277.1 215.9,277.1 217.0,277.1 218.2,277.1 219.3,277.1 220.3,277.1 221.4,277.1 222.4,277.9 223.4,336.3 224.4,335.7 225.4,277.2 226.4,277.1 227.3,277.1 228.2,277.1 229.1,277.1 230.0,277.1 230.8,277.1 231.7,277.1 232.5,277.1 233.4,277.1 234.2,277.1 235.7,277.1 237.3,336.4 238.7,277.2 240.2,277.1 241.6,277.1 242.9,277.1 244.2,277.1 245.5,277.1 246.8,277.1 248.0,336.6 249.2,277.1 250.3,277.1 251.4,277.1 252.6,277.0 253.6,277.0 254.7,277.0 255.7,277.0 256.7,336.7 257.7,277.0 258.7,277.0 259.6,277.0 260.6,277.0 261.5,277.0 262.4,277.0 263.3,277.0 264.1,337.0 265.0,276.9 265.8,277.0 266.6,277.0 267.4,277.0 268.6,277.0 269.8,277.0 270.9,337.3 272.0,277.0 273.1,277.0 274.2,277.0 275.2,277.0 276.2,337.7 277.2,276.9 278.2,277.0 279.1,277.0 280.0,277.0 281.0,276.4 281.9,275.9 282.7,277.0 283.6,277.0 284.5,277.0 285.3,276.8 286.1,338.1 286.9,276.9 288.0,277.0 289.0,276.9 290.0,340.2 291.0,276.9 292.0,277.0 292.9,276.9 293.9,342.1 294.8,276.8 295.7,277.0 296.6,276.9 297.4,226.1 298.3,276.7 299.1,276.9 299.9,276.9 300.7,232.5 301.7,276.8 302.7,276.9 303.6,275.9 304.6,276.6 305.5,276.9 306.4,276.5 307.3,275.7 308.1,276.9 309.0,276.7 309.8,234.3 310.6,276.8 311.4,276.8 312.4,231.3 313.3,276.8 314.2,276.4 315.1,276.2 316.0,276.8 316.9,268.6 317.7,276.7 318.6,276.7 319.4,228.3 320.2,276.8 321.1,275.4 322.0,276.6 322.9,276.5 323.8,275.4 324.7,276.7 325.5,228.2 326.3,276.7 327.1,271.1 327.9,276.5 328.8,275.2 329.7,276.5 330.6,275.2 331.4,276.4 332.3,275.1 333.1,276.4 333.9,275.1 334.8,276.5 335.7,245.7 336.5,276.5 337.4,252.6 338.2,276.3 339.0,274.8 339.8,275.7 340.7,276.2 341.6,234.4 342.4,276.2 343.3,275.4 344.1,272.3 344.9,276.2 345.8,273.5 346.6,272.3 347.5,276.1 348.3,274.7 349.1,264.2 350.0,275.7 350.8,275.9 351.7,271.4 352.5,266.0 353.3,275.6 354.1,275.8 355.0,274.7 355.8,257.0 356.6,267.5 357.5,275.0 358.3,275.5 359.1,275.5 360.0,274.7 360.8,271.4 361.6,265.3 362.5,253.8 363.3,251.9 364.1,261.9 364.9,262.5 365.8,263.1 366.6,263.6 367.4,264.1 368.2,257.3 369.1,255.8 369.9,260.9 370.7,270.6 371.6,273.5 372.4,274.2 373.2,274.2 374.0,272.2 374.8,263.0 375.6,265.0 376.5,273.2 377.3,273.4 378.1,268.1 378.9,267.7 379.7,273.3 380.5,270.6 381.4,267.2 382.2,272.9 383.0,267.1 383.8,271.5 384.6,270.6 385.5,270.0 386.3,270.6 387.1,269.7 387.9,269.6 388.7,271.0 389.5,267.2 390.3,271.3 391.2,269.9 392.0,268.0 392.8,270.6 393.6,270.5 394.4,268.8 395.2,268.8 396.0,269.8 396.8,270.1 397.6,270.1 398.5,270.0" fill="none" stroke="#2ecc71" stroke-width="1.5" stroke-linejoin="round" clip-path="url(#pc666)"/>
  <line x1="435" y1="207" x2="435" y2="362" stroke="#d1d5db"/>
  <line x1="435" y1="284.5" x2="800" y2="284.5" stroke="#d1d5db"/>
  <text x="617.5" y="388" text-anchor="middle" font-size="9" fill="#6b7280">Samples</text>
  <text x="413" y="284.5" text-anchor="middle" font-size="9" fill="#6b7280" transform="rotate(-90 413 284.5)">Impulse response</text>
  <line x1="435.0" y1="207" x2="435.0" y2="362" stroke="#e5e7eb" stroke-width="0.5"/>
  <text x="435.0" y="374" text-anchor="middle" font-size="8" fill="#6b7280">0</text>
  <line x1="563.3" y1="207" x2="563.3" y2="362" stroke="#e5e7eb" stroke-width="0.5"/>
  <text x="563.3" y="374" text-anchor="middle" font-size="8" fill="#6b7280">90</text>
  <line x1="691.6" y1="207" x2="691.6" y2="362" stroke="#e5e7eb" stroke-width="0.5"/>
  <text x="691.6" y="374" text-anchor="middle" font-size="8" fill="#6b7280">180</text>
  <line x1="435" y1="339.5" x2="800" y2="339.5" stroke="#e5e7eb" stroke-width="0.5"/>
  <text x="431" y="342.5" text-anchor="end" font-size="8" fill="#6b7280">-0.2</text>
  <text x="431" y="287.5" text-anchor="end" font-size="8" fill="#6b7280">0</text>
  <line x1="435" y1="229.5" x2="800" y2="229.5" stroke="#e5e7eb" stroke-width="0.5"/>
  <text x="431" y="232.5" text-anchor="end" font-size="8" fill="#6b7280">0.2</text>
  <defs><linearGradient id="g667" x1="0" y1="207" x2="0" y2="284.5" gradientUnits="userSpaceOnUse">
    <stop offset="0%" stop-color="#f39c12" stop-opacity="0.15"/>
    <stop offset="100%" stop-color="#f39c12" stop-opacity="0.02"/>
  </linearGradient></defs>
  <path d="M435.0,264.3 435.0,264.3 436.4,225.5 437.9,207.0 439.3,207.0 440.7,207.0 442.1,207.0 443.6,207.0 445.0,207.0 446.4,207.0 447.8,207.0 449.3,207.0 450.7,207.0 452.1,207.0 453.5,207.0 455.0,207.0 456.4,207.0 457.8,207.0 459.2,207.0 460.7,207.0 462.1,207.0 463.5,207.0 464.9,207.0 466.4,207.0 467.8,207.0 469.2,207.0 470.6,207.0 472.1,207.0 473.5,207.0 474.9,207.0 476.3,207.0 477.8,207.0 479.2,207.0 480.6,207.0 482.1,207.0 483.5,207.0 484.9,207.0 486.3,207.0 487.8,207.0 489.2,207.0 490.6,207.0 492.0,207.1 493.5,207.1 494.9,207.1 496.3,207.1 497.7,207.1 499.2,207.1 500.6,207.1 502.0,207.1 503.4,207.1 504.9,207.1 506.3,207.1 507.7,207.1 509.1,207.1 510.6,207.1 512.0,207.1 513.4,207.1 514.8,207.1 516.3,207.1 517.7,207.1 519.1,207.1 520.5,207.1 522.0,207.1 523.4,207.1 524.8,207.1 526.3,207.1 527.7,207.1 529.1,207.1 530.5,207.1 532.0,207.1 533.4,207.1 534.8,207.1 536.2,207.1 537.7,207.1 539.1,207.1 540.5,207.1 541.9,207.1 543.4,207.1 544.8,207.1 546.2,207.1 547.6,207.1 549.1,207.1 550.5,207.1 551.9,207.1 553.3,207.1 554.8,207.1 556.2,207.1 557.6,207.1 559.0,207.1 560.5,207.1 561.9,207.1 563.3,207.1 564.7,207.1 566.2,207.1 567.6,207.1 569.0,207.1 570.4,207.1 571.9,207.1 573.3,207.1 574.7,207.1 576.2,207.1 577.6,207.1 579.0,207.1 580.4,207.1 581.9,207.1 583.3,207.1 584.7,207.1 586.1,207.1 587.6,207.1 589.0,207.1 590.4,207.1 591.8,207.1 593.3,207.2 594.7,207.2 596.1,207.2 597.5,207.2 599.0,207.2 600.4,207.2 601.8,207.2 603.2,207.2 604.7,207.2 606.1,207.2 607.5,207.2 608.9,207.2 610.4,207.2 611.8,207.2 613.2,207.2 614.6,207.2 616.1,207.2 617.5,207.2 618.9,207.2 620.4,207.2 621.8,207.2 623.2,207.2 624.6,207.2 626.1,207.2 627.5,207.2 628.9,207.2 630.3,207.2 631.8,207.2 633.2,207.2 634.6,207.2 636.0,207.2 637.5,207.2 638.9,207.2 640.3,207.2 641.7,207.2 643.2,207.2 644.6,207.2 646.0,207.2 647.4,207.2 648.9,207.2 650.3,207.2 651.7,207.2 653.1,207.2 654.6,207.2 656.0,207.2 657.4,207.2 658.8,207.2 660.3,207.2 661.7,207.2 663.1,207.2 664.6,207.2 666.0,207.2 667.4,207.2 668.8,207.2 670.3,207.2 671.7,207.2 673.1,207.2 674.5,207.2 676.0,207.2 677.4,207.2 678.8,207.2 680.2,207.2 681.7,207.2 683.1,207.2 684.5,207.2 685.9,207.2 687.4,207.2 688.8,207.2 690.2,207.3 691.6,207.3 693.1,207.3 694.5,207.3 695.9,207.3 697.3,207.3 698.8,207.3 700.2,207.3 701.6,207.3 703.0,207.3 704.5,207.3 705.9,207.3 707.3,207.3 708.8,207.3 710.2,207.3 711.6,207.3 713.0,207.3 714.5,207.3 715.9,207.3 717.3,207.3 718.7,207.3 720.2,207.3 721.6,207.3 723.0,207.3 724.4,207.3 725.9,207.3 727.3,207.3 728.7,207.3 730.1,207.3 731.6,207.3 733.0,207.3 734.4,207.3 735.8,207.3 737.3,207.3 738.7,207.3 740.1,207.3 741.5,207.3 743.0,207.3 744.4,207.3 745.8,207.3 747.2,207.3 748.7,207.3 750.1,207.3 751.5,207.3 752.9,207.3 754.4,207.3 755.8,207.3 757.2,207.3 758.7,207.3 760.1,207.3 761.5,207.3 762.9,207.3 764.4,207.3 765.8,207.3 767.2,207.3 768.6,207.3 770.1,207.3 771.5,207.3 772.9,207.3 774.3,207.3 775.8,207.3 777.2,207.3 778.6,207.3 780.0,207.3 781.5,207.4 782.9,207.4 784.3,207.4 785.7,207.4 787.2,207.4 788.6,207.4 790.0,207.4 791.4,207.4 792.9,207.4 794.3,207.4 795.7,207.4 797.1,207.4 798.6,207.4 L798.6,284.5 L435.0,284.5 Z" fill="url(#g667)"/>
  <defs><clipPath id="pc668"><rect x="435" y="207" width="365" height="155"/></clipPath></defs>
  <polyline points="435.0,264.3 436.4,225.5 437.9,207.0 439.3,207.0 440.7,207.0 442.1,207.0 443.6,207.0 445.0,207.0 446.4,207.0 447.8,207.0 449.3,207.0 450.7,207.0 452.1,207.0 453.5,207.0 455.0,207.0 456.4,207.0 457.8,207.0 459.2,207.0 460.7,207.0 462.1,207.0 463.5,207.0 464.9,207.0 466.4,207.0 467.8,207.0 469.2,207.0 470.6,207.0 472.1,207.0 473.5,207.0 474.9,207.0 476.3,207.0 477.8,207.0 479.2,207.0 480.6,207.0 482.1,207.0 483.5,207.0 484.9,207.0 486.3,207.0 487.8,207.0 489.2,207.0 490.6,207.0 492.0,207.1 493.5,207.1 494.9,207.1 496.3,207.1 497.7,207.1 499.2,207.1 500.6,207.1 502.0,207.1 503.4,207.1 504.9,207.1 506.3,207.1 507.7,207.1 509.1,207.1 510.6,207.1 512.0,207.1 513.4,207.1 514.8,207.1 516.3,207.1 517.7,207.1 519.1,207.1 520.5,207.1 522.0,207.1 523.4,207.1 524.8,207.1 526.3,207.1 527.7,207.1 529.1,207.1 530.5,207.1 532.0,207.1 533.4,207.1 534.8,207.1 536.2,207.1 537.7,207.1 539.1,207.1 540.5,207.1 541.9,207.1 543.4,207.1 544.8,207.1 546.2,207.1 547.6,207.1 549.1,207.1 550.5,207.1 551.9,207.1 553.3,207.1 554.8,207.1 556.2,207.1 557.6,207.1 559.0,207.1 560.5,207.1 561.9,207.1 563.3,207.1 564.7,207.1 566.2,207.1 567.6,207.1 569.0,207.1 570.4,207.1 571.9,207.1 573.3,207.1 574.7,207.1 576.2,207.1 577.6,207.1 579.0,207.1 580.4,207.1 581.9,207.1 583.3,207.1 584.7,207.1 586.1,207.1 587.6,207.1 589.0,207.1 590.4,207.1 591.8,207.1 593.3,207.2 594.7,207.2 596.1,207.2 597.5,207.2 599.0,207.2 600.4,207.2 601.8,207.2 603.2,207.2 604.7,207.2 606.1,207.2 607.5,207.2 608.9,207.2 610.4,207.2 611.8,207.2 613.2,207.2 614.6,207.2 616.1,207.2 617.5,207.2 618.9,207.2 620.4,207.2 621.8,207.2 623.2,207.2 624.6,207.2 626.1,207.2 627.5,207.2 628.9,207.2 630.3,207.2 631.8,207.2 633.2,207.2 634.6,207.2 636.0,207.2 637.5,207.2 638.9,207.2 640.3,207.2 641.7,207.2 643.2,207.2 644.6,207.2 646.0,207.2 647.4,207.2 648.9,207.2 650.3,207.2 651.7,207.2 653.1,207.2 654.6,207.2 656.0,207.2 657.4,207.2 658.8,207.2 660.3,207.2 661.7,207.2 663.1,207.2 664.6,207.2 666.0,207.2 667.4,207.2 668.8,207.2 670.3,207.2 671.7,207.2 673.1,207.2 674.5,207.2 676.0,207.2 677.4,207.2 678.8,207.2 680.2,207.2 681.7,207.2 683.1,207.2 684.5,207.2 685.9,207.2 687.4,207.2 688.8,207.2 690.2,207.3 691.6,207.3 693.1,207.3 694.5,207.3 695.9,207.3 697.3,207.3 698.8,207.3 700.2,207.3 701.6,207.3 703.0,207.3 704.5,207.3 705.9,207.3 707.3,207.3 708.8,207.3 710.2,207.3 711.6,207.3 713.0,207.3 714.5,207.3 715.9,207.3 717.3,207.3 718.7,207.3 720.2,207.3 721.6,207.3 723.0,207.3 724.4,207.3 725.9,207.3 727.3,207.3 728.7,207.3 730.1,207.3 731.6,207.3 733.0,207.3 734.4,207.3 735.8,207.3 737.3,207.3 738.7,207.3 740.1,207.3 741.5,207.3 743.0,207.3 744.4,207.3 745.8,207.3 747.2,207.3 748.7,207.3 750.1,207.3 751.5,207.3 752.9,207.3 754.4,207.3 755.8,207.3 757.2,207.3 758.7,207.3 760.1,207.3 761.5,207.3 762.9,207.3 764.4,207.3 765.8,207.3 767.2,207.3 768.6,207.3 770.1,207.3 771.5,207.3 772.9,207.3 774.3,207.3 775.8,207.3 777.2,207.3 778.6,207.3 780.0,207.3 781.5,207.4 782.9,207.4 784.3,207.4 785.7,207.4 787.2,207.4 788.6,207.4 790.0,207.4 791.4,207.4 792.9,207.4 794.3,207.4 795.7,207.4 797.1,207.4 798.6,207.4" fill="none" stroke="#f39c12" stroke-width="1.3" stroke-linejoin="round" clip-path="url(#pc668)"/>
</svg>
