<svg xmlns="http://www.w3.org/2000/svg" viewBox="0 0 820 392" style="font-family:system-ui,-apple-system,sans-serif">
  <text x="800" y="11" text-anchor="end" font-size="11" font-weight="600" fill="#6b7280">Elliptic order 4, 1dB/40dB</text>
  <line x1="34" y1="16" x2="34" y2="171" stroke="#d1d5db"/>
  <line x1="34" y1="47.0" x2="392" y2="47.0" stroke="#d1d5db"/>
  <text x="213" y="197" text-anchor="middle" font-size="9" fill="#6b7280">Hz</text>
  <text x="12" y="93.5" text-anchor="middle" font-size="9" fill="#6b7280" transform="rotate(-90 12 93.5)">dB</text>
  <line x1="66.6" y1="16" x2="66.6" y2="171" stroke="#e5e7eb" stroke-width="0.5"/>
  <line x1="85.7" y1="16" x2="85.7" y2="171" stroke="#e5e7eb" stroke-width="0.5"/>
  <line x1="99.3" y1="16" x2="99.3" y2="171" stroke="#e5e7eb" stroke-width="0.5"/>
  <line x1="109.8" y1="16" x2="109.8" y2="171" stroke="#e5e7eb" stroke-width="0.5"/>
  <line x1="118.4" y1="16" x2="118.4" y2="171" stroke="#e5e7eb" stroke-width="0.5"/>
  <line x1="125.7" y1="16" x2="125.7" y2="171" stroke="#e5e7eb" stroke-width="0.5"/>
  <line x1="131.9" y1="16" x2="131.9" y2="171" stroke="#e5e7eb" stroke-width="0.5"/>
  <line x1="137.5" y1="16" x2="137.5" y2="171" stroke="#e5e7eb" stroke-width="0.5"/>
  <line x1="175.1" y1="16" x2="175.1" y2="171" stroke="#e5e7eb" stroke-width="0.5"/>
  <line x1="194.2" y1="16" x2="194.2" y2="171" stroke="#e5e7eb" stroke-width="0.5"/>
  <line x1="207.7" y1="16" x2="207.7" y2="171" stroke="#e5e7eb" stroke-width="0.5"/>
  <line x1="218.3" y1="16" x2="218.3" y2="171" stroke="#e5e7eb" stroke-width="0.5"/>
  <line x1="226.8" y1="16" x2="226.8" y2="171" stroke="#e5e7eb" stroke-width="0.5"/>
  <line x1="234.1" y1="16" x2="234.1" y2="171" stroke="#e5e7eb" stroke-width="0.5"/>
  <line x1="240.4" y1="16" x2="240.4" y2="171" stroke="#e5e7eb" stroke-width="0.5"/>
  <line x1="245.9" y1="16" x2="245.9" y2="171" stroke="#e5e7eb" stroke-width="0.5"/>
  <line x1="283.5" y1="16" x2="283.5" y2="171" stroke="#e5e7eb" stroke-width="0.5"/>
  <line x1="302.6" y1="16" x2="302.6" y2="171" stroke="#e5e7eb" stroke-width="0.5"/>
  <line x1="316.2" y1="16" x2="316.2" y2="171" stroke="#e5e7eb" stroke-width="0.5"/>
  <line x1="326.7" y1="16" x2="326.7" y2="171" stroke="#e5e7eb" stroke-width="0.5"/>
  <line x1="335.3" y1="16" x2="335.3" y2="171" stroke="#e5e7eb" stroke-width="0.5"/>
  <line x1="342.6" y1="16" x2="342.6" y2="171" stroke="#e5e7eb" stroke-width="0.5"/>
  <line x1="348.8" y1="16" x2="348.8" y2="171" stroke="#e5e7eb" stroke-width="0.5"/>
  <line x1="354.4" y1="16" x2="354.4" y2="171" stroke="#e5e7eb" stroke-width="0.5"/>
  <line x1="392.0" y1="16" x2="392.0" y2="171" stroke="#e5e7eb" stroke-width="0.5"/>
  <line x1="142.5" y1="16" x2="142.5" y2="171" stroke="#e5e7eb" stroke-width="0.5"/>
  <text x="142.5" y="183" text-anchor="middle" font-size="8" fill="#6b7280">100</text>
  <line x1="250.9" y1="16" x2="250.9" y2="171" stroke="#e5e7eb" stroke-width="0.5"/>
  <text x="250.9" y="183" text-anchor="middle" font-size="8" fill="#6b7280">1k</text>
  <line x1="359.4" y1="16" x2="359.4" y2="171" stroke="#e5e7eb" stroke-width="0.5"/>
  <text x="359.4" y="183" text-anchor="middle" font-size="8" fill="#6b7280">10k</text>
  <line x1="34" y1="31.5" x2="392" y2="31.5" stroke="#e5e7eb" stroke-width="0.5"/>
  <line x1="34" y1="62.5" x2="392" y2="62.5" stroke="#e5e7eb" stroke-width="0.5"/>
  <line x1="34" y1="16.0" x2="392" y2="16.0" stroke="#e5e7eb" stroke-width="0.5"/>
  <text x="30" y="19.0" text-anchor="end" font-size="8" fill="#6b7280">+20</text>
  <text x="30" y="50.0" text-anchor="end" font-size="8" fill="#6b7280">0</text>
  <line x1="34" y1="78.0" x2="392" y2="78.0" stroke="#e5e7eb" stroke-width="0.5"/>
  <text x="30" y="81.0" text-anchor="end" font-size="8" fill="#6b7280">-20</text>
  <line x1="34" y1="109.0" x2="392" y2="109.0" stroke="#e5e7eb" stroke-width="0.5"/>
  <text x="30" y="112.0" text-anchor="end" font-size="8" fill="#6b7280">-40</text>
  <line x1="34" y1="140.0" x2="392" y2="140.0" stroke="#e5e7eb" stroke-width="0.5"/>
  <text x="30" y="143.0" text-anchor="end" font-size="8" fill="#6b7280">-60</text>
  <line x1="34" y1="171.0" x2="392" y2="171.0" stroke="#e5e7eb" stroke-width="0.5"/>
  <text x="30" y="174.0" text-anchor="end" font-size="8" fill="#6b7280">-80</text>
  <defs><linearGradient id="g88" x1="0" y1="16" x2="0" y2="171" gradientUnits="userSpaceOnUse">
    <stop offset="0%" stop-color="#4a90d9" stop-opacity="0.15"/>
    <stop offset="100%" stop-color="#4a90d9" stop-opacity="0.02"/>
  </linearGradient></defs>
  <path d="M37.5,48.5 37.5,48.5 70.1,48.5 89.2,48.5 102.8,48.5 113.3,48.5 121.9,48.5 129.1,48.5 135.4,48.4 141.0,48.4 145.9,48.4 150.4,48.3 154.5,48.3 158.3,48.2 161.8,48.2 165.0,48.1 168.1,48.1 170.9,48.0 173.6,48.0 176.2,47.9 178.6,47.9 180.9,47.8 183.1,47.7 185.2,47.7 187.2,47.6 189.1,47.6 190.9,47.5 192.7,47.4 194.4,47.4 196.1,47.3 197.7,47.3 199.2,47.2 200.7,47.2 202.2,47.1 203.6,47.1 204.9,47.1 206.3,47.0 207.6,47.0 208.8,47.0 210.0,47.0 211.2,47.0 212.4,47.0 213.5,47.0 214.6,47.0 215.7,47.1 216.8,47.1 217.8,47.1 218.8,47.2 219.8,47.2 220.8,47.3 221.7,47.3 222.7,47.4 223.6,47.5 224.5,47.5 225.4,47.6 226.2,47.7 227.1,47.8 227.9,47.8 228.7,47.9 229.5,48.0 231.1,48.2 232.6,48.3 234.1,48.4 235.5,48.5 236.9,48.5 238.2,48.5 239.6,48.5 240.8,48.4 242.1,48.2 243.3,48.0 244.5,47.7 245.6,47.4 246.7,47.2 247.8,47.0 248.9,47.1 249.9,47.6 251.0,48.6 252.0,50.2 252.9,52.3 253.9,54.6 254.8,57.1 255.8,59.7 256.7,62.3 257.6,64.8 258.4,67.3 259.3,69.7 260.1,72.1 261.0,74.5 261.8,76.8 263.0,80.3 264.1,83.9 265.3,87.5 266.4,91.2 267.5,95.2 268.5,99.5 269.6,104.3 270.6,110.2 271.6,117.9 272.5,131.4 273.5,144.1 274.4,125.8 275.3,119.5 276.2,116.0 277.1,113.7 278.0,112.1 278.8,111.0 279.6,110.3 280.5,109.7 281.3,109.4 282.3,109.1 283.4,109.0 284.4,109.1 285.3,109.2 286.3,109.5 287.3,109.8 288.2,110.2 289.1,110.7 290.0,111.2 290.9,111.8 291.7,112.4 292.6,113.0 293.4,113.7 294.2,114.4 295.0,115.2 296.0,116.2 297.0,117.3 297.9,118.4 298.8,119.6 299.7,121.0 300.6,122.4 301.5,123.9 302.4,125.6 303.2,127.4 304.0,129.5 304.9,131.9 305.8,135.3 306.7,139.6 307.7,145.6 308.6,156.0 309.5,171.0 310.3,153.5 311.2,145.2 312.0,140.3 312.8,136.8 313.7,134.1 314.6,131.7 315.5,129.7 316.4,128.1 317.3,126.6 318.1,125.4 319.0,124.4 319.8,123.4 320.6,122.6 321.4,121.8 322.3,121.0 323.2,120.3 324.1,119.7 324.9,119.1 325.7,118.6 326.6,118.1 327.4,117.7 328.3,117.2 329.1,116.8 330.0,116.4 330.8,116.0 331.7,115.7 332.5,115.4 333.3,115.1 334.2,114.8 335.0,114.5 335.9,114.3 336.7,114.0 337.5,113.8 338.4,113.6 339.2,113.3 340.1,113.1 340.9,112.9 341.7,112.8 342.5,112.6 343.4,112.4 344.2,112.3 345.1,112.1 345.9,112.0 346.7,111.8 347.6,111.7 348.4,111.6 349.2,111.5 350.0,111.3 350.9,111.2 351.7,111.1 352.6,111.0 353.4,110.9 354.2,110.8 355.1,110.7 355.9,110.7 356.7,110.6 357.6,110.5 358.4,110.4 359.2,110.3 360.0,110.3 360.9,110.2 361.7,110.1 362.5,110.1 363.3,110.0 364.2,110.0 365.0,109.9 365.8,109.9 366.6,109.8 367.4,109.8 368.3,109.7 369.1,109.7 369.9,109.6 370.7,109.6 371.5,109.6 372.4,109.5 373.2,109.5 374.0,109.5 374.8,109.4 375.6,109.4 376.4,109.4 377.2,109.3 378.1,109.3 378.9,109.3 379.7,109.3 380.5,109.2 381.3,109.2 382.1,109.2 383.0,109.2 383.8,109.1 384.6,109.1 385.4,109.1 386.2,109.1 387.0,109.1 387.9,109.1 388.7,109.1 389.5,109.0 390.3,109.0 391.1,109.0 391.9,109.0 L391.9,171.0 L37.5,171.0 Z" fill="url(#g88)"/>
  <defs><clipPath id="pc89"><rect x="34" y="16" width="358" height="155"/></clipPath></defs>
  <polyline points="37.5,48.5 70.1,48.5 89.2,48.5 102.8,48.5 113.3,48.5 121.9,48.5 129.1,48.5 135.4,48.4 141.0,48.4 145.9,48.4 150.4,48.3 154.5,48.3 158.3,48.2 161.8,48.2 165.0,48.1 168.1,48.1 170.9,48.0 173.6,48.0 176.2,47.9 178.6,47.9 180.9,47.8 183.1,47.7 185.2,47.7 187.2,47.6 189.1,47.6 190.9,47.5 192.7,47.4 194.4,47.4 196.1,47.3 197.7,47.3 199.2,47.2 200.7,47.2 202.2,47.1 203.6,47.1 204.9,47.1 206.3,47.0 207.6,47.0 208.8,47.0 210.0,47.0 211.2,47.0 212.4,47.0 213.5,47.0 214.6,47.0 215.7,47.1 216.8,47.1 217.8,47.1 218.8,47.2 219.8,47.2 220.8,47.3 221.7,47.3 222.7,47.4 223.6,47.5 224.5,47.5 225.4,47.6 226.2,47.7 227.1,47.8 227.9,47.8 228.7,47.9 229.5,48.0 231.1,48.2 232.6,48.3 234.1,48.4 235.5,48.5 236.9,48.5 238.2,48.5 239.6,48.5 240.8,48.4 242.1,48.2 243.3,48.0 244.5,47.7 245.6,47.4 246.7,47.2 247.8,47.0 248.9,47.1 249.9,47.6 251.0,48.6 252.0,50.2 252.9,52.3 253.9,54.6 254.8,57.1 255.8,59.7 256.7,62.3 257.6,64.8 258.4,67.3 259.3,69.7 260.1,72.1 261.0,74.5 261.8,76.8 263.0,80.3 264.1,83.9 265.3,87.5 266.4,91.2 267.5,95.2 268.5,99.5 269.6,104.3 270.6,110.2 271.6,117.9 272.5,131.4 273.5,144.1 274.4,125.8 275.3,119.5 276.2,116.0 277.1,113.7 278.0,112.1 278.8,111.0 279.6,110.3 280.5,109.7 281.3,109.4 282.3,109.1 283.4,109.0 284.4,109.1 285.3,109.2 286.3,109.5 287.3,109.8 288.2,110.2 289.1,110.7 290.0,111.2 290.9,111.8 291.7,112.4 292.6,113.0 293.4,113.7 294.2,114.4 295.0,115.2 296.0,116.2 297.0,117.3 297.9,118.4 298.8,119.6 299.7,121.0 300.6,122.4 301.5,123.9 302.4,125.6 303.2,127.4 304.0,129.5 304.9,131.9 305.8,135.3 306.7,139.6 307.7,145.6 308.6,156.0 309.5,183.9 310.3,153.5 311.2,145.2 312.0,140.3 312.8,136.8 313.7,134.1 314.6,131.7 315.5,129.7 316.4,128.1 317.3,126.6 318.1,125.4 319.0,124.4 319.8,123.4 320.6,122.6 321.4,121.8 322.3,121.0 323.2,120.3 324.1,119.7 324.9,119.1 325.7,118.6 326.6,118.1 327.4,117.7 328.3,117.2 329.1,116.8 330.0,116.4 330.8,116.0 331.7,115.7 332.5,115.4 333.3,115.1 334.2,114.8 335.0,114.5 335.9,114.3 336.7,114.0 337.5,113.8 338.4,113.6 339.2,113.3 340.1,113.1 340.9,112.9 341.7,112.8 342.5,112.6 343.4,112.4 344.2,112.3 345.1,112.1 345.9,112.0 346.7,111.8 347.6,111.7 348.4,111.6 349.2,111.5 350.0,111.3 350.9,111.2 351.7,111.1 352.6,111.0 353.4,110.9 354.2,110.8 355.1,110.7 355.9,110.7 356.7,110.6 357.6,110.5 358.4,110.4 359.2,110.3 360.0,110.3 360.9,110.2 361.7,110.1 362.5,110.1 363.3,110.0 364.2,110.0 365.0,109.9 365.8,109.9 366.6,109.8 367.4,109.8 368.3,109.7 369.1,109.7 369.9,109.6 370.7,109.6 371.5,109.6 372.4,109.5 373.2,109.5 374.0,109.5 374.8,109.4 375.6,109.4 376.4,109.4 377.2,109.3 378.1,109.3 378.9,109.3 379.7,109.3 380.5,109.2 381.3,109.2 382.1,109.2 383.0,109.2 383.8,109.1 384.6,109.1 385.4,109.1 386.2,109.1 387.0,109.1 387.9,109.1 388.7,109.1 389.5,109.0 390.3,109.0 391.1,109.0 391.9,109.0" fill="none" stroke="#4a90d9" stroke-width="1.5" stroke-linejoin="round" clip-path="url(#pc89)"/>
  <line x1="442" y1="16" x2="442" y2="171" stroke="#d1d5db"/>
  <line x1="442" y1="93.5" x2="800" y2="93.5" stroke="#d1d5db"/>
  <text x="621" y="197" text-anchor="middle" font-size="9" fill="#6b7280">Hz</text>
  <text x="420" y="93.5" text-anchor="middle" font-size="9" fill="#6b7280" transform="rotate(-90 420 93.5)">Phase (deg)</text>
  <line x1="474.6" y1="16" x2="474.6" y2="171" stroke="#e5e7eb" stroke-width="0.5"/>
  <line x1="493.7" y1="16" x2="493.7" y2="171" stroke="#e5e7eb" stroke-width="0.5"/>
  <line x1="507.3" y1="16" x2="507.3" y2="171" stroke="#e5e7eb" stroke-width="0.5"/>
  <line x1="517.8" y1="16" x2="517.8" y2="171" stroke="#e5e7eb" stroke-width="0.5"/>
  <line x1="526.4" y1="16" x2="526.4" y2="171" stroke="#e5e7eb" stroke-width="0.5"/>
  <line x1="533.7" y1="16" x2="533.7" y2="171" stroke="#e5e7eb" stroke-width="0.5"/>
  <line x1="539.9" y1="16" x2="539.9" y2="171" stroke="#e5e7eb" stroke-width="0.5"/>
  <line x1="545.5" y1="16" x2="545.5" y2="171" stroke="#e5e7eb" stroke-width="0.5"/>
  <line x1="583.1" y1="16" x2="583.1" y2="171" stroke="#e5e7eb" stroke-width="0.5"/>
  <line x1="602.2" y1="16" x2="602.2" y2="171" stroke="#e5e7eb" stroke-width="0.5"/>
  <line x1="615.7" y1="16" x2="615.7" y2="171" stroke="#e5e7eb" stroke-width="0.5"/>
  <line x1="626.3" y1="16" x2="626.3" y2="171" stroke="#e5e7eb" stroke-width="0.5"/>
  <line x1="634.8" y1="16" x2="634.8" y2="171" stroke="#e5e7eb" stroke-width="0.5"/>
  <line x1="642.1" y1="16" x2="642.1" y2="171" stroke="#e5e7eb" stroke-width="0.5"/>
  <line x1="648.4" y1="16" x2="648.4" y2="171" stroke="#e5e7eb" stroke-width="0.5"/>
  <line x1="653.9" y1="16" x2="653.9" y2="171" stroke="#e5e7eb" stroke-width="0.5"/>
  <line x1="691.5" y1="16" x2="691.5" y2="171" stroke="#e5e7eb" stroke-width="0.5"/>
  <line x1="710.6" y1="16" x2="710.6" y2="171" stroke="#e5e7eb" stroke-width="0.5"/>
  <line x1="724.2" y1="16" x2="724.2" y2="171" stroke="#e5e7eb" stroke-width="0.5"/>
  <line x1="734.7" y1="16" x2="734.7" y2="171" stroke="#e5e7eb" stroke-width="0.5"/>
  <line x1="743.3" y1="16" x2="743.3" y2="171" stroke="#e5e7eb" stroke-width="0.5"/>
  <line x1="750.6" y1="16" x2="750.6" y2="171" stroke="#e5e7eb" stroke-width="0.5"/>
  <line x1="756.8" y1="16" x2="756.8" y2="171" stroke="#e5e7eb" stroke-width="0.5"/>
  <line x1="762.4" y1="16" x2="762.4" y2="171" stroke="#e5e7eb" stroke-width="0.5"/>
  <line x1="800.0" y1="16" x2="800.0" y2="171" stroke="#e5e7eb" stroke-width="0.5"/>
  <line x1="550.5" y1="16" x2="550.5" y2="171" stroke="#e5e7eb" stroke-width="0.5"/>
  <text x="550.5" y="183" text-anchor="middle" font-size="8" fill="#6b7280">100</text>
  <line x1="658.9" y1="16" x2="658.9" y2="171" stroke="#e5e7eb" stroke-width="0.5"/>
  <text x="658.9" y="183" text-anchor="middle" font-size="8" fill="#6b7280">1k</text>
  <line x1="767.4" y1="16" x2="767.4" y2="171" stroke="#e5e7eb" stroke-width="0.5"/>
  <text x="767.4" y="183" text-anchor="middle" font-size="8" fill="#6b7280">10k</text>
  <line x1="442" y1="54.8" x2="800" y2="54.8" stroke="#e5e7eb" stroke-width="0.5"/>
  <line x1="442" y1="132.3" x2="800" y2="132.3" stroke="#e5e7eb" stroke-width="0.5"/>
  <line x1="442" y1="16.0" x2="800" y2="16.0" stroke="#e5e7eb" stroke-width="0.5"/>
  <text x="438" y="19.0" text-anchor="end" font-size="8" fill="#6b7280">180</text>
  <text x="438" y="96.5" text-anchor="end" font-size="8" fill="#6b7280">0</text>
  <line x1="442" y1="171.0" x2="800" y2="171.0" stroke="#e5e7eb" stroke-width="0.5"/>
  <text x="438" y="174.0" text-anchor="end" font-size="8" fill="#6b7280">-180</text>
  <defs><linearGradient id="g90" x1="0" y1="16" x2="0" y2="93.5" gradientUnits="userSpaceOnUse">
    <stop offset="0%" stop-color="#e74c3c" stop-opacity="0.15"/>
    <stop offset="100%" stop-color="#e74c3c" stop-opacity="0.02"/>
  </linearGradient></defs>
  <defs><linearGradient id="g91" x1="0" y1="171" x2="0" y2="93.5" gradientUnits="userSpaceOnUse">
    <stop offset="0%" stop-color="#e74c3c" stop-opacity="0.15"/>
    <stop offset="100%" stop-color="#e74c3c" stop-opacity="0.02"/>
  </linearGradient></defs>
  <defs><clipPath id="c92"><rect x="442" y="16" width="358" height="77.5"/></clipPath></defs>
  <defs><clipPath id="c93"><rect x="442" y="93.5" width="358" height="77.5"/></clipPath></defs>
  <path d="M445.5,94.1 445.5,94.1 478.1,94.7 497.2,95.3 510.8,95.9 521.3,96.5 529.9,97.1 537.1,97.7 543.4,98.3 549.0,98.9 553.9,99.5 558.4,100.1 562.5,100.7 566.3,101.4 569.8,102.0 573.0,102.7 576.1,103.3 578.9,104.0 581.6,104.7 584.2,105.3 586.6,106.0 588.9,106.7 591.1,107.5 593.2,108.2 595.2,108.9 597.1,109.7 598.9,110.4 600.7,111.2 602.4,112.0 604.1,112.8 605.7,113.6 607.2,114.4 608.7,115.3 610.2,116.1 611.6,117.0 612.9,117.8 614.3,118.7 615.6,119.6 616.8,120.5 618.0,121.4 619.2,122.3 620.4,123.2 621.5,124.2 622.6,125.1 623.7,126.0 624.8,126.9 625.8,127.9 626.8,128.8 627.8,129.8 628.8,130.7 629.7,131.6 630.7,132.6 631.6,133.5 632.5,134.4 633.4,135.3 634.2,136.2 635.1,137.2 635.9,138.1 636.7,139.0 637.5,139.9 639.1,141.7 640.6,143.4 642.1,145.2 643.5,147.0 644.9,148.8 646.2,150.7 647.6,152.7 648.8,154.8 650.1,157.0 651.3,159.5 652.5,162.2 653.6,165.4 654.7,169.1 655.8,171.0 656.9,171.0 657.9,171.0 659.0,171.0 660.0,171.0 660.9,171.0 661.9,171.0 662.8,171.0 663.8,171.0 664.7,171.0 665.6,171.0 666.4,171.0 667.3,171.0 668.1,171.0 669.0,171.0 669.8,171.0 671.0,171.0 672.1,171.0 673.3,171.0 674.4,171.0 675.5,171.0 676.5,171.0 677.6,171.0 678.6,171.0 679.6,171.0 680.5,171.0 681.5,154.0 682.4,154.5 683.3,155.0 684.2,155.4 685.1,155.8 686.0,156.1 686.8,156.5 687.6,156.8 688.5,157.1 689.3,157.4 690.3,157.8 691.4,158.2 692.4,158.5 693.3,158.8 694.3,159.1 695.3,159.4 696.2,159.7 697.1,160.0 698.0,160.2 698.9,160.4 699.7,160.7 700.6,160.9 701.4,161.1 702.2,161.3 703.0,161.5 704.0,161.7 705.0,161.9 705.9,162.1 706.8,162.3 707.7,162.5 708.6,162.7 709.5,162.8 710.4,163.0 711.2,163.2 712.0,163.3 712.9,163.5 713.8,163.6 714.7,163.8 715.7,164.0 716.6,164.1 717.5,86.7 718.3,86.9 719.2,87.0 720.0,87.1 720.8,87.3 721.7,87.4 722.6,87.5 723.5,87.6 724.4,87.8 725.3,87.9 726.1,88.0 727.0,88.1 727.8,88.2 728.6,88.3 729.4,88.4 730.3,88.5 731.2,88.6 732.1,88.7 732.9,88.8 733.7,88.9 734.6,89.0 735.4,89.1 736.3,89.2 737.1,89.2 738.0,89.3 738.8,89.4 739.7,89.5 740.5,89.6 741.3,89.7 742.2,89.7 743.0,89.8 743.9,89.9 744.7,90.0 745.5,90.0 746.4,90.1 747.2,90.2 748.1,90.2 748.9,90.3 749.7,90.4 750.5,90.4 751.4,90.5 752.2,90.6 753.1,90.6 753.9,90.7 754.7,90.8 755.6,90.8 756.4,90.9 757.2,90.9 758.0,91.0 758.9,91.0 759.7,91.1 760.6,91.2 761.4,91.2 762.2,91.3 763.1,91.3 763.9,91.4 764.7,91.4 765.6,91.5 766.4,91.5 767.2,91.6 768.0,91.6 768.9,91.7 769.7,91.7 770.5,91.8 771.3,91.8 772.2,91.9 773.0,91.9 773.8,91.9 774.6,92.0 775.4,92.0 776.3,92.1 777.1,92.1 777.9,92.2 778.7,92.2 779.5,92.2 780.4,92.3 781.2,92.3 782.0,92.4 782.8,92.4 783.6,92.5 784.4,92.5 785.2,92.5 786.1,92.6 786.9,92.6 787.7,92.7 788.5,92.7 789.3,92.7 790.1,92.8 791.0,92.8 791.8,92.9 792.6,92.9 793.4,92.9 794.2,93.0 795.0,93.0 795.9,93.0 796.7,93.1 797.5,93.1 798.3,93.2 799.1,93.2 799.9,93.3 L799.9,93.5 L445.5,93.5 Z" fill="url(#g90)" clip-path="url(#c92)"/>
  <path d="M445.5,94.1 445.5,94.1 478.1,94.7 497.2,95.3 510.8,95.9 521.3,96.5 529.9,97.1 537.1,97.7 543.4,98.3 549.0,98.9 553.9,99.5 558.4,100.1 562.5,100.7 566.3,101.4 569.8,102.0 573.0,102.7 576.1,103.3 578.9,104.0 581.6,104.7 584.2,105.3 586.6,106.0 588.9,106.7 591.1,107.5 593.2,108.2 595.2,108.9 597.1,109.7 598.9,110.4 600.7,111.2 602.4,112.0 604.1,112.8 605.7,113.6 607.2,114.4 608.7,115.3 610.2,116.1 611.6,117.0 612.9,117.8 614.3,118.7 615.6,119.6 616.8,120.5 618.0,121.4 619.2,122.3 620.4,123.2 621.5,124.2 622.6,125.1 623.7,126.0 624.8,126.9 625.8,127.9 626.8,128.8 627.8,129.8 628.8,130.7 629.7,131.6 630.7,132.6 631.6,133.5 632.5,134.4 633.4,135.3 634.2,136.2 635.1,137.2 635.9,138.1 636.7,139.0 637.5,139.9 639.1,141.7 640.6,143.4 642.1,145.2 643.5,147.0 644.9,148.8 646.2,150.7 647.6,152.7 648.8,154.8 650.1,157.0 651.3,159.5 652.5,162.2 653.6,165.4 654.7,169.1 655.8,171.0 656.9,171.0 657.9,171.0 659.0,171.0 660.0,171.0 660.9,171.0 661.9,171.0 662.8,171.0 663.8,171.0 664.7,171.0 665.6,171.0 666.4,171.0 667.3,171.0 668.1,171.0 669.0,171.0 669.8,171.0 671.0,171.0 672.1,171.0 673.3,171.0 674.4,171.0 675.5,171.0 676.5,171.0 677.6,171.0 678.6,171.0 679.6,171.0 680.5,171.0 681.5,154.0 682.4,154.5 683.3,155.0 684.2,155.4 685.1,155.8 686.0,156.1 686.8,156.5 687.6,156.8 688.5,157.1 689.3,157.4 690.3,157.8 691.4,158.2 692.4,158.5 693.3,158.8 694.3,159.1 695.3,159.4 696.2,159.7 697.1,160.0 698.0,160.2 698.9,160.4 699.7,160.7 700.6,160.9 701.4,161.1 702.2,161.3 703.0,161.5 704.0,161.7 705.0,161.9 705.9,162.1 706.8,162.3 707.7,162.5 708.6,162.7 709.5,162.8 710.4,163.0 711.2,163.2 712.0,163.3 712.9,163.5 713.8,163.6 714.7,163.8 715.7,164.0 716.6,164.1 717.5,86.7 718.3,86.9 719.2,87.0 720.0,87.1 720.8,87.3 721.7,87.4 722.6,87.5 723.5,87.6 724.4,87.8 725.3,87.9 726.1,88.0 727.0,88.1 727.8,88.2 728.6,88.3 729.4,88.4 730.3,88.5 731.2,88.6 732.1,88.7 732.9,88.8 733.7,88.9 734.6,89.0 735.4,89.1 736.3,89.2 737.1,89.2 738.0,89.3 738.8,89.4 739.7,89.5 740.5,89.6 741.3,89.7 742.2,89.7 743.0,89.8 743.9,89.9 744.7,90.0 745.5,90.0 746.4,90.1 747.2,90.2 748.1,90.2 748.9,90.3 749.7,90.4 750.5,90.4 751.4,90.5 752.2,90.6 753.1,90.6 753.9,90.7 754.7,90.8 755.6,90.8 756.4,90.9 757.2,90.9 758.0,91.0 758.9,91.0 759.7,91.1 760.6,91.2 761.4,91.2 762.2,91.3 763.1,91.3 763.9,91.4 764.7,91.4 765.6,91.5 766.4,91.5 767.2,91.6 768.0,91.6 768.9,91.7 769.7,91.7 770.5,91.8 771.3,91.8 772.2,91.9 773.0,91.9 773.8,91.9 774.6,92.0 775.4,92.0 776.3,92.1 777.1,92.1 777.9,92.2 778.7,92.2 779.5,92.2 780.4,92.3 781.2,92.3 782.0,92.4 782.8,92.4 783.6,92.5 784.4,92.5 785.2,92.5 786.1,92.6 786.9,92.6 787.7,92.7 788.5,92.7 789.3,92.7 790.1,92.8 791.0,92.8 791.8,92.9 792.6,92.9 793.4,92.9 794.2,93.0 795.0,93.0 795.9,93.0 796.7,93.1 797.5,93.1 798.3,93.2 799.1,93.2 799.9,93.3 L799.9,93.5 L445.5,93.5 Z" fill="url(#g91)" clip-path="url(#c93)"/>
  <defs><clipPath id="pc94"><rect x="442" y="16" width="358" height="155"/></clipPath></defs>
  <polyline points="445.5,94.1 478.1,94.7 497.2,95.3 510.8,95.9 521.3,96.5 529.9,97.1 537.1,97.7 543.4,98.3 549.0,98.9 553.9,99.5 558.4,100.1 562.5,100.7 566.3,101.4 569.8,102.0 573.0,102.7 576.1,103.3 578.9,104.0 581.6,104.7 584.2,105.3 586.6,106.0 588.9,106.7 591.1,107.5 593.2,108.2 595.2,108.9 597.1,109.7 598.9,110.4 600.7,111.2 602.4,112.0 604.1,112.8 605.7,113.6 607.2,114.4 608.7,115.3 610.2,116.1 611.6,117.0 612.9,117.8 614.3,118.7 615.6,119.6 616.8,120.5 618.0,121.4 619.2,122.3 620.4,123.2 621.5,124.2 622.6,125.1 623.7,126.0 624.8,126.9 625.8,127.9 626.8,128.8 627.8,129.8 628.8,130.7 629.7,131.6 630.7,132.6 631.6,133.5 632.5,134.4 633.4,135.3 634.2,136.2 635.1,137.2 635.9,138.1 636.7,139.0 637.5,139.9 639.1,141.7 640.6,143.4 642.1,145.2 643.5,147.0 644.9,148.8 646.2,150.7 647.6,152.7 648.8,154.8 650.1,157.0 651.3,159.5 652.5,162.2 653.6,165.4 654.7,169.1 655.8,173.3 656.9,178.2 657.9,183.6 659.0,189.3 660.0,194.7 660.9,199.7 661.9,204.0 662.8,207.6 663.8,210.6 664.7,213.1 665.6,215.2 666.4,217.0 667.3,218.6 668.1,220.0 669.0,221.2 669.8,222.2 671.0,223.7 672.1,224.9 673.3,226.0 674.4,226.9 675.5,227.8 676.5,228.5 677.6,229.2 678.6,229.9 679.6,230.5 680.5,231.0 681.5,154.0 682.4,154.5 683.3,155.0 684.2,155.4 685.1,155.8 686.0,156.1 686.8,156.5 687.6,156.8 688.5,157.1 689.3,157.4 690.3,157.8 691.4,158.2 692.4,158.5 693.3,158.8 694.3,159.1 695.3,159.4 696.2,159.7 697.1,160.0 698.0,160.2 698.9,160.4 699.7,160.7 700.6,160.9 701.4,161.1 702.2,161.3 703.0,161.5 704.0,161.7 705.0,161.9 705.9,162.1 706.8,162.3 707.7,162.5 708.6,162.7 709.5,162.8 710.4,163.0 711.2,163.2 712.0,163.3 712.9,163.5 713.8,163.6 714.7,163.8 715.7,164.0 716.6,164.1 717.5,86.7 718.3,86.9 719.2,87.0 720.0,87.1 720.8,87.3 721.7,87.4 722.6,87.5 723.5,87.6 724.4,87.8 725.3,87.9 726.1,88.0 727.0,88.1 727.8,88.2 728.6,88.3 729.4,88.4 730.3,88.5 731.2,88.6 732.1,88.7 732.9,88.8 733.7,88.9 734.6,89.0 735.4,89.1 736.3,89.2 737.1,89.2 738.0,89.3 738.8,89.4 739.7,89.5 740.5,89.6 741.3,89.7 742.2,89.7 743.0,89.8 743.9,89.9 744.7,90.0 745.5,90.0 746.4,90.1 747.2,90.2 748.1,90.2 748.9,90.3 749.7,90.4 750.5,90.4 751.4,90.5 752.2,90.6 753.1,90.6 753.9,90.7 754.7,90.8 755.6,90.8 756.4,90.9 757.2,90.9 758.0,91.0 758.9,91.0 759.7,91.1 760.6,91.2 761.4,91.2 762.2,91.3 763.1,91.3 763.9,91.4 764.7,91.4 765.6,91.5 766.4,91.5 767.2,91.6 768.0,91.6 768.9,91.7 769.7,91.7 770.5,91.8 771.3,91.8 772.2,91.9 773.0,91.9 773.8,91.9 774.6,92.0 775.4,92.0 776.3,92.1 777.1,92.1 777.9,92.2 778.7,92.2 779.5,92.2 780.4,92.3 781.2,92.3 782.0,92.4 782.8,92.4 783.6,92.5 784.4,92.5 785.2,92.5 786.1,92.6 786.9,92.6 787.7,92.7 788.5,92.7 789.3,92.7 790.1,92.8 791.0,92.8 791.8,92.9 792.6,92.9 793.4,92.9 794.2,93.0 795.0,93.0 795.9,93.0 796.7,93.1 797.5,93.1 798.3,93.2 799.1,93.2 799.9,93.3" fill="none" stroke="#e74c3c" stroke-width="1.5" stroke-linejoin="round" clip-path="url(#pc94)"/>
  <line x1="34" y1="221" x2="34" y2="376" stroke="#d1d5db"/>
  <line x1="34" y1="298.5" x2="392" y2="298.5" stroke="#d1d5db"/>
  <text x="213" y="402" text-anchor="middle" font-size="9" fill="#6b7280">Hz</text>
  <text x="12" y="298.5" text-anchor="middle" font-size="9" fill="#6b7280" transform="rotate(-90 12 298.5)">Group delay</text>
  <line x1="66.6" y1="221" x2="66.6" y2="376" stroke="#e5e7eb" stroke-width="0.5"/>
  <line x1="85.7" y1="221" x2="85.7" y2="376" stroke="#e5e7eb" stroke-width="0.5"/>
  <line x1="99.3" y1="221" x2="99.3" y2="376" stroke="#e5e7eb" stroke-width="0.5"/>
  <line x1="109.8" y1="221" x2="109.8" y2="376" stroke="#e5e7eb" stroke-width="0.5"/>
  <line x1="118.4" y1="221" x2="118.4" y2="376" stroke="#e5e7eb" stroke-width="0.5"/>
  <line x1="125.7" y1="221" x2="125.7" y2="376" stroke="#e5e7eb" stroke-width="0.5"/>
  <line x1="131.9" y1="221" x2="131.9" y2="376" stroke="#e5e7eb" stroke-width="0.5"/>
  <line x1="137.5" y1="221" x2="137.5" y2="376" stroke="#e5e7eb" stroke-width="0.5"/>
  <line x1="175.1" y1="221" x2="175.1" y2="376" stroke="#e5e7eb" stroke-width="0.5"/>
  <line x1="194.2" y1="221" x2="194.2" y2="376" stroke="#e5e7eb" stroke-width="0.5"/>
  <line x1="207.7" y1="221" x2="207.7" y2="376" stroke="#e5e7eb" stroke-width="0.5"/>
  <line x1="218.3" y1="221" x2="218.3" y2="376" stroke="#e5e7eb" stroke-width="0.5"/>
  <line x1="226.8" y1="221" x2="226.8" y2="376" stroke="#e5e7eb" stroke-width="0.5"/>
  <line x1="234.1" y1="221" x2="234.1" y2="376" stroke="#e5e7eb" stroke-width="0.5"/>
  <line x1="240.4" y1="221" x2="240.4" y2="376" stroke="#e5e7eb" stroke-width="0.5"/>
  <line x1="245.9" y1="221" x2="245.9" y2="376" stroke="#e5e7eb" stroke-width="0.5"/>
  <line x1="283.5" y1="221" x2="283.5" y2="376" stroke="#e5e7eb" stroke-width="0.5"/>
  <line x1="302.6" y1="221" x2="302.6" y2="376" stroke="#e5e7eb" stroke-width="0.5"/>
  <line x1="316.2" y1="221" x2="316.2" y2="376" stroke="#e5e7eb" stroke-width="0.5"/>
  <line x1="326.7" y1="221" x2="326.7" y2="376" stroke="#e5e7eb" stroke-width="0.5"/>
  <line x1="335.3" y1="221" x2="335.3" y2="376" stroke="#e5e7eb" stroke-width="0.5"/>
  <line x1="342.6" y1="221" x2="342.6" y2="376" stroke="#e5e7eb" stroke-width="0.5"/>
  <line x1="348.8" y1="221" x2="348.8" y2="376" stroke="#e5e7eb" stroke-width="0.5"/>
  <line x1="354.4" y1="221" x2="354.4" y2="376" stroke="#e5e7eb" stroke-width="0.5"/>
  <line x1="392.0" y1="221" x2="392.0" y2="376" stroke="#e5e7eb" stroke-width="0.5"/>
  <line x1="142.5" y1="221" x2="142.5" y2="376" stroke="#e5e7eb" stroke-width="0.5"/>
  <text x="142.5" y="388" text-anchor="middle" font-size="8" fill="#6b7280">100</text>
  <line x1="250.9" y1="221" x2="250.9" y2="376" stroke="#e5e7eb" stroke-width="0.5"/>
  <text x="250.9" y="388" text-anchor="middle" font-size="8" fill="#6b7280">1k</text>
  <line x1="359.4" y1="221" x2="359.4" y2="376" stroke="#e5e7eb" stroke-width="0.5"/>
  <text x="359.4" y="388" text-anchor="middle" font-size="8" fill="#6b7280">10k</text>
  <line x1="34" y1="341.7" x2="392" y2="341.7" stroke="#e5e7eb" stroke-width="0.5"/>
  <text x="30" y="344.7" text-anchor="end" font-size="8" fill="#6b7280">-5000</text>
  <text x="30" y="301.5" text-anchor="end" font-size="8" fill="#6b7280">0</text>
  <line x1="34" y1="255.3" x2="392" y2="255.3" stroke="#e5e7eb" stroke-width="0.5"/>
  <text x="30" y="258.3" text-anchor="end" font-size="8" fill="#6b7280">5000</text>
  <defs><linearGradient id="g95" x1="0" y1="221" x2="0" y2="298.5" gradientUnits="userSpaceOnUse">
    <stop offset="0%" stop-color="#2ecc71" stop-opacity="0.15"/>
    <stop offset="100%" stop-color="#2ecc71" stop-opacity="0.02"/>
  </linearGradient></defs>
  <defs><linearGradient id="g96" x1="0" y1="376" x2="0" y2="298.5" gradientUnits="userSpaceOnUse">
    <stop offset="0%" stop-color="#2ecc71" stop-opacity="0.15"/>
    <stop offset="100%" stop-color="#2ecc71" stop-opacity="0.02"/>
  </linearGradient></defs>
  <defs><clipPath id="c97"><rect x="34" y="221" width="358" height="77.5"/></clipPath></defs>
  <defs><clipPath id="c98"><rect x="34" y="298.5" width="358" height="77.5"/></clipPath></defs>
  <path d="M37.5,298.5 37.5,298.5 70.1,298.5 89.2,298.5 102.8,298.5 113.3,298.5 121.9,298.5 129.1,298.5 135.4,298.5 141.0,298.5 145.9,298.5 150.4,298.5 154.5,298.5 158.3,298.5 161.8,298.5 165.0,298.5 168.1,298.5 170.9,298.5 173.6,298.5 176.2,298.5 178.6,298.5 180.9,298.5 183.1,298.5 185.2,298.5 187.2,298.5 189.1,298.5 190.9,298.5 192.7,298.5 194.4,298.5 196.1,298.5 197.7,298.5 199.2,298.5 200.7,298.5 202.2,298.5 203.6,298.5 204.9,298.5 206.3,298.5 207.6,298.5 208.8,298.5 210.0,298.5 211.2,298.5 212.4,298.5 213.5,298.5 214.6,298.5 215.7,298.5 216.8,298.5 217.8,298.5 218.8,298.5 219.8,298.5 220.8,298.5 221.7,298.5 222.7,298.5 223.6,298.5 224.5,298.5 225.4,298.5 226.2,298.5 227.1,298.5 227.9,298.5 228.7,298.5 229.5,298.5 231.1,298.5 232.6,298.5 234.1,298.5 235.5,298.5 236.9,298.5 238.2,298.5 239.6,298.5 240.8,298.5 242.1,298.5 243.3,298.4 244.5,298.4 245.6,298.4 246.7,298.5 247.8,298.5 248.9,298.6 249.9,298.7 251.0,298.8 252.0,298.9 252.9,299.0 253.9,299.0 254.8,299.0 255.8,299.0 256.7,299.0 257.6,299.0 258.4,299.0 259.3,299.0 260.1,299.0 261.0,299.0 261.8,299.0 263.0,299.0 264.1,299.0 265.3,299.0 266.4,299.0 267.5,299.1 268.5,299.1 269.6,299.2 270.6,299.4 271.6,299.8 272.5,301.4 273.5,292.5 274.4,297.2 275.3,297.9 276.2,298.1 277.1,298.2 278.0,298.3 278.8,298.4 279.6,298.4 280.5,298.4 281.3,298.5 282.3,298.5 283.4,298.5 284.4,298.5 285.3,298.5 286.3,298.5 287.3,298.5 288.2,298.5 289.1,298.6 290.0,298.6 290.9,298.6 291.7,298.6 292.6,298.6 293.4,298.6 294.2,298.6 295.0,298.6 296.0,298.6 297.0,298.6 297.9,298.6 298.8,298.6 299.7,298.6 300.6,298.6 301.5,298.6 302.4,298.6 303.2,298.7 304.0,298.7 304.9,298.7 305.8,298.8 306.7,298.8 307.7,299.0 308.6,299.6 309.5,290.3 310.3,297.7 311.2,298.1 312.0,298.2 312.8,298.3 313.7,298.3 314.6,298.4 315.5,298.4 316.4,298.4 317.3,298.4 318.1,298.4 319.0,298.4 319.8,298.4 320.6,298.5 321.4,298.5 322.3,298.5 323.2,298.5 324.1,298.5 324.9,298.5 325.7,298.5 326.6,298.5 327.4,298.5 328.3,298.5 329.1,298.5 330.0,298.5 330.8,298.5 331.7,298.5 332.5,298.5 333.3,298.5 334.2,298.5 335.0,298.5 335.9,298.5 336.7,298.5 337.5,298.5 338.4,298.5 339.2,298.5 340.1,298.5 340.9,298.5 341.7,298.5 342.5,298.5 343.4,298.5 344.2,298.5 345.1,298.5 345.9,298.5 346.7,298.5 347.6,298.5 348.4,298.5 349.2,298.5 350.0,298.5 350.9,298.5 351.7,298.5 352.6,298.5 353.4,298.5 354.2,298.5 355.1,298.5 355.9,298.5 356.7,298.5 357.6,298.5 358.4,298.5 359.2,298.5 360.0,298.5 360.9,298.5 361.7,298.5 362.5,298.5 363.3,298.5 364.2,298.5 365.0,298.5 365.8,298.5 366.6,298.5 367.4,298.5 368.3,298.5 369.1,298.5 369.9,298.5 370.7,298.5 371.5,298.5 372.4,298.5 373.2,298.5 374.0,298.5 374.8,298.5 375.6,298.5 376.4,298.5 377.2,298.5 378.1,298.5 378.9,298.5 379.7,298.5 380.5,298.5 381.3,298.5 382.1,298.5 383.0,298.5 383.8,298.5 384.6,298.5 385.4,298.5 386.2,298.5 387.0,298.5 387.9,298.5 388.7,298.5 389.5,298.5 390.3,298.5 391.1,298.5 391.9,298.5 L391.9,298.5 L37.5,298.5 Z" fill="url(#g95)" clip-path="url(#c97)"/>
  <path d="M37.5,298.5 37.5,298.5 70.1,298.5 89.2,298.5 102.8,298.5 113.3,298.5 121.9,298.5 129.1,298.5 135.4,298.5 141.0,298.5 145.9,298.5 150.4,298.5 154.5,298.5 158.3,298.5 161.8,298.5 165.0,298.5 168.1,298.5 170.9,298.5 173.6,298.5 176.2,298.5 178.6,298.5 180.9,298.5 183.1,298.5 185.2,298.5 187.2,298.5 189.1,298.5 190.9,298.5 192.7,298.5 194.4,298.5 196.1,298.5 197.7,298.5 199.2,298.5 200.7,298.5 202.2,298.5 203.6,298.5 204.9,298.5 206.3,298.5 207.6,298.5 208.8,298.5 210.0,298.5 211.2,298.5 212.4,298.5 213.5,298.5 214.6,298.5 215.7,298.5 216.8,298.5 217.8,298.5 218.8,298.5 219.8,298.5 220.8,298.5 221.7,298.5 222.7,298.5 223.6,298.5 224.5,298.5 225.4,298.5 226.2,298.5 227.1,298.5 227.9,298.5 228.7,298.5 229.5,298.5 231.1,298.5 232.6,298.5 234.1,298.5 235.5,298.5 236.9,298.5 238.2,298.5 239.6,298.5 240.8,298.5 242.1,298.5 243.3,298.4 244.5,298.4 245.6,298.4 246.7,298.5 247.8,298.5 248.9,298.6 249.9,298.7 251.0,298.8 252.0,298.9 252.9,299.0 253.9,299.0 254.8,299.0 255.8,299.0 256.7,299.0 257.6,299.0 258.4,299.0 259.3,299.0 260.1,299.0 261.0,299.0 261.8,299.0 263.0,299.0 264.1,299.0 265.3,299.0 266.4,299.0 267.5,299.1 268.5,299.1 269.6,299.2 270.6,299.4 271.6,299.8 272.5,301.4 273.5,292.5 274.4,297.2 275.3,297.9 276.2,298.1 277.1,298.2 278.0,298.3 278.8,298.4 279.6,298.4 280.5,298.4 281.3,298.5 282.3,298.5 283.4,298.5 284.4,298.5 285.3,298.5 286.3,298.5 287.3,298.5 288.2,298.5 289.1,298.6 290.0,298.6 290.9,298.6 291.7,298.6 292.6,298.6 293.4,298.6 294.2,298.6 295.0,298.6 296.0,298.6 297.0,298.6 297.9,298.6 298.8,298.6 299.7,298.6 300.6,298.6 301.5,298.6 302.4,298.6 303.2,298.7 304.0,298.7 304.9,298.7 305.8,298.8 306.7,298.8 307.7,299.0 308.6,299.6 309.5,290.3 310.3,297.7 311.2,298.1 312.0,298.2 312.8,298.3 313.7,298.3 314.6,298.4 315.5,298.4 316.4,298.4 317.3,298.4 318.1,298.4 319.0,298.4 319.8,298.4 320.6,298.5 321.4,298.5 322.3,298.5 323.2,298.5 324.1,298.5 324.9,298.5 325.7,298.5 326.6,298.5 327.4,298.5 328.3,298.5 329.1,298.5 330.0,298.5 330.8,298.5 331.7,298.5 332.5,298.5 333.3,298.5 334.2,298.5 335.0,298.5 335.9,298.5 336.7,298.5 337.5,298.5 338.4,298.5 339.2,298.5 340.1,298.5 340.9,298.5 341.7,298.5 342.5,298.5 343.4,298.5 344.2,298.5 345.1,298.5 345.9,298.5 346.7,298.5 347.6,298.5 348.4,298.5 349.2,298.5 350.0,298.5 350.9,298.5 351.7,298.5 352.6,298.5 353.4,298.5 354.2,298.5 355.1,298.5 355.9,298.5 356.7,298.5 357.6,298.5 358.4,298.5 359.2,298.5 360.0,298.5 360.9,298.5 361.7,298.5 362.5,298.5 363.3,298.5 364.2,298.5 365.0,298.5 365.8,298.5 366.6,298.5 367.4,298.5 368.3,298.5 369.1,298.5 369.9,298.5 370.7,298.5 371.5,298.5 372.4,298.5 373.2,298.5 374.0,298.5 374.8,298.5 375.6,298.5 376.4,298.5 377.2,298.5 378.1,298.5 378.9,298.5 379.7,298.5 380.5,298.5 381.3,298.5 382.1,298.5 383.0,298.5 383.8,298.5 384.6,298.5 385.4,298.5 386.2,298.5 387.0,298.5 387.9,298.5 388.7,298.5 389.5,298.5 390.3,298.5 391.1,298.5 391.9,298.5 L391.9,298.5 L37.5,298.5 Z" fill="url(#g96)" clip-path="url(#c98)"/>
  <defs><clipPath id="pc99"><rect x="34" y="221" width="358" height="155"/></clipPath></defs>
  <polyline points="37.5,298.5 70.1,298.5 89.2,298.5 102.8,298.5 113.3,298.5 121.9,298.5 129.1,298.5 135.4,298.5 141.0,298.5 145.9,298.5 150.4,298.5 154.5,298.5 158.3,298.5 161.8,298.5 165.0,298.5 168.1,298.5 170.9,298.5 173.6,298.5 176.2,298.5 178.6,298.5 180.9,298.5 183.1,298.5 185.2,298.5 187.2,298.5 189.1,298.5 190.9,298.5 192.7,298.5 194.4,298.5 196.1,298.5 197.7,298.5 199.2,298.5 200.7,298.5 202.2,298.5 203.6,298.5 204.9,298.5 206.3,298.5 207.6,298.5 208.8,298.5 210.0,298.5 211.2,298.5 212.4,298.5 213.5,298.5 214.6,298.5 215.7,298.5 216.8,298.5 217.8,298.5 218.8,298.5 219.8,298.5 220.8,298.5 221.7,298.5 222.7,298.5 223.6,298.5 224.5,298.5 225.4,298.5 226.2,298.5 227.1,298.5 227.9,298.5 228.7,298.5 229.5,298.5 231.1,298.5 232.6,298.5 234.1,298.5 235.5,298.5 236.9,298.5 238.2,298.5 239.6,298.5 240.8,298.5 242.1,298.5 243.3,298.4 244.5,298.4 245.6,298.4 246.7,298.5 247.8,298.5 248.9,298.6 249.9,298.7 251.0,298.8 252.0,298.9 252.9,299.0 253.9,299.0 254.8,299.0 255.8,299.0 256.7,299.0 257.6,299.0 258.4,299.0 259.3,299.0 260.1,299.0 261.0,299.0 261.8,299.0 263.0,299.0 264.1,299.0 265.3,299.0 266.4,299.0 267.5,299.1 268.5,299.1 269.6,299.2 270.6,299.4 271.6,299.8 272.5,301.4 273.5,292.5 274.4,297.2 275.3,297.9 276.2,298.1 277.1,298.2 278.0,298.3 278.8,298.4 279.6,298.4 280.5,298.4 281.3,298.5 282.3,298.5 283.4,298.5 284.4,298.5 285.3,298.5 286.3,298.5 287.3,298.5 288.2,298.5 289.1,298.6 290.0,298.6 290.9,298.6 291.7,298.6 292.6,298.6 293.4,298.6 294.2,298.6 295.0,298.6 296.0,298.6 297.0,298.6 297.9,298.6 298.8,298.6 299.7,298.6 300.6,298.6 301.5,298.6 302.4,298.6 303.2,298.7 304.0,298.7 304.9,298.7 305.8,298.8 306.7,298.8 307.7,299.0 308.6,299.6 309.5,290.3 310.3,297.7 311.2,298.1 312.0,298.2 312.8,298.3 313.7,298.3 314.6,298.4 315.5,298.4 316.4,298.4 317.3,298.4 318.1,298.4 319.0,298.4 319.8,298.4 320.6,298.5 321.4,298.5 322.3,298.5 323.2,298.5 324.1,298.5 324.9,298.5 325.7,298.5 326.6,298.5 327.4,298.5 328.3,298.5 329.1,298.5 330.0,298.5 330.8,298.5 331.7,298.5 332.5,298.5 333.3,298.5 334.2,298.5 335.0,298.5 335.9,298.5 336.7,298.5 337.5,298.5 338.4,298.5 339.2,298.5 340.1,298.5 340.9,298.5 341.7,298.5 342.5,298.5 343.4,298.5 344.2,298.5 345.1,298.5 345.9,298.5 346.7,298.5 347.6,298.5 348.4,298.5 349.2,298.5 350.0,298.5 350.9,298.5 351.7,298.5 352.6,298.5 353.4,298.5 354.2,298.5 355.1,298.5 355.9,298.5 356.7,298.5 357.6,298.5 358.4,298.5 359.2,298.5 360.0,298.5 360.9,298.5 361.7,298.5 362.5,298.5 363.3,298.5 364.2,298.5 365.0,298.5 365.8,298.5 366.6,298.5 367.4,298.5 368.3,298.5 369.1,298.5 369.9,298.5 370.7,298.5 371.5,298.5 372.4,298.5 373.2,298.5 374.0,298.5 374.8,298.5 375.6,298.5 376.4,298.5 377.2,298.5 378.1,298.5 378.9,298.5 379.7,298.5 380.5,298.5 381.3,298.5 382.1,298.5 383.0,298.5 383.8,298.5 384.6,298.5 385.4,298.5 386.2,298.5 387.0,298.5 387.9,298.5 388.7,298.5 389.5,298.5 390.3,298.5 391.1,298.5 391.9,298.5" fill="none" stroke="#2ecc71" stroke-width="1.5" stroke-linejoin="round" clip-path="url(#pc99)"/>
  <line x1="442" y1="221" x2="442" y2="376" stroke="#d1d5db"/>
  <line x1="442" y1="298.5" x2="800" y2="298.5" stroke="#d1d5db"/>
  <text x="621" y="402" text-anchor="middle" font-size="9" fill="#6b7280">Samples</text>
  <text x="420" y="298.5" text-anchor="middle" font-size="9" fill="#6b7280" transform="rotate(-90 420 298.5)">Impulse response</text>
  <line x1="442.0" y1="221" x2="442.0" y2="376" stroke="#e5e7eb" stroke-width="0.5"/>
  <text x="442.0" y="388" text-anchor="middle" font-size="8" fill="#6b7280">0</text>
  <line x1="531.5" y1="221" x2="531.5" y2="376" stroke="#e5e7eb" stroke-width="0.5"/>
  <text x="531.5" y="388" text-anchor="middle" font-size="8" fill="#6b7280">32</text>
  <line x1="621.0" y1="221" x2="621.0" y2="376" stroke="#e5e7eb" stroke-width="0.5"/>
  <text x="621.0" y="388" text-anchor="middle" font-size="8" fill="#6b7280">64</text>
  <line x1="710.5" y1="221" x2="710.5" y2="376" stroke="#e5e7eb" stroke-width="0.5"/>
  <text x="710.5" y="388" text-anchor="middle" font-size="8" fill="#6b7280">96</text>
  <line x1="800.0" y1="221" x2="800.0" y2="376" stroke="#e5e7eb" stroke-width="0.5"/>
  <text x="800.0" y="388" text-anchor="middle" font-size="8" fill="#6b7280">128</text>
  <line x1="442" y1="367.4" x2="800" y2="367.4" stroke="#e5e7eb" stroke-width="0.5"/>
  <text x="438" y="370.4" text-anchor="end" font-size="8" fill="#6b7280">-0.04</text>
  <text x="438" y="301.5" text-anchor="end" font-size="8" fill="#6b7280">0</text>
  <line x1="442" y1="229.6" x2="800" y2="229.6" stroke="#e5e7eb" stroke-width="0.5"/>
  <text x="438" y="232.6" text-anchor="end" font-size="8" fill="#6b7280">0.04</text>
  <defs><linearGradient id="g100" x1="0" y1="221" x2="0" y2="298.5" gradientUnits="userSpaceOnUse">
    <stop offset="0%" stop-color="#f39c12" stop-opacity="0.15"/>
    <stop offset="100%" stop-color="#f39c12" stop-opacity="0.02"/>
  </linearGradient></defs>
  <defs><linearGradient id="g101" x1="0" y1="376" x2="0" y2="298.5" gradientUnits="userSpaceOnUse">
    <stop offset="0%" stop-color="#f39c12" stop-opacity="0.15"/>
    <stop offset="100%" stop-color="#f39c12" stop-opacity="0.02"/>
  </linearGradient></defs>
  <defs><clipPath id="c102"><rect x="442" y="221" width="358" height="77.5"/></clipPath></defs>
  <defs><clipPath id="c103"><rect x="442" y="298.5" width="358" height="77.5"/></clipPath></defs>
  <path d="M442.0,281.2 442.0,281.2 444.8,296.2 447.6,291.9 450.4,287.9 453.2,284.2 456.0,280.6 458.8,277.1 461.6,273.5 464.4,269.9 467.2,266.2 470.0,262.4 472.8,258.4 475.6,254.4 478.4,250.4 481.2,246.4 484.0,242.5 486.8,238.7 489.5,235.0 492.3,231.7 495.1,228.7 497.9,226.1 500.7,224.0 503.5,222.4 506.3,221.4 509.1,221.0 511.9,221.3 514.7,222.2 517.5,223.8 520.3,226.0 523.1,228.9 525.9,232.4 528.7,236.5 531.5,241.1 534.3,246.2 537.1,251.7 539.9,257.5 542.7,263.5 545.5,269.7 548.3,275.9 551.1,282.1 553.9,288.2 556.7,294.2 559.5,299.8 562.3,305.1 565.1,310.0 567.9,314.4 570.7,318.3 573.5,321.6 576.3,324.4 579.0,326.5 581.8,328.0 584.6,329.0 587.4,329.3 590.2,329.0 593.0,328.2 595.8,327.0 598.6,325.2 601.4,323.1 604.2,320.6 607.0,317.9 609.8,314.9 612.6,311.8 615.4,308.7 618.2,305.5 621.0,302.4 623.8,299.4 626.6,296.5 629.4,293.9 632.2,291.6 635.0,289.5 637.8,287.8 640.6,286.4 643.4,285.4 646.2,284.7 649.0,284.4 651.8,284.5 654.6,284.9 657.4,285.6 660.2,286.7 663.0,287.9 665.8,289.4 668.5,291.1 671.3,292.9 674.1,294.8 676.9,296.7 679.7,298.7 682.5,300.6 685.3,302.4 688.1,304.2 690.9,305.7 693.7,307.1 696.5,308.3 699.3,309.3 702.1,310.0 704.9,310.5 707.7,310.7 710.5,310.7 713.3,310.4 716.1,309.9 718.9,309.2 721.7,308.3 724.5,307.2 727.3,305.9 730.1,304.6 732.9,303.1 735.7,301.6 738.5,300.1 741.3,298.6 744.1,297.1 746.9,295.6 749.7,294.3 752.5,293.1 755.3,292.0 758.0,291.0 760.8,290.3 763.6,289.7 766.4,289.3 769.2,289.1 772.0,289.0 774.8,289.2 777.6,289.5 780.4,290.0 783.2,290.6 786.0,291.4 788.8,292.3 791.6,293.3 794.4,294.3 797.2,295.4 L797.2,298.5 L442.0,298.5 Z" fill="url(#g100)" clip-path="url(#c102)"/>
  <path d="M442.0,281.2 442.0,281.2 444.8,296.2 447.6,291.9 450.4,287.9 453.2,284.2 456.0,280.6 458.8,277.1 461.6,273.5 464.4,269.9 467.2,266.2 470.0,262.4 472.8,258.4 475.6,254.4 478.4,250.4 481.2,246.4 484.0,242.5 486.8,238.7 489.5,235.0 492.3,231.7 495.1,228.7 497.9,226.1 500.7,224.0 503.5,222.4 506.3,221.4 509.1,221.0 511.9,221.3 514.7,222.2 517.5,223.8 520.3,226.0 523.1,228.9 525.9,232.4 528.7,236.5 531.5,241.1 534.3,246.2 537.1,251.7 539.9,257.5 542.7,263.5 545.5,269.7 548.3,275.9 551.1,282.1 553.9,288.2 556.7,294.2 559.5,299.8 562.3,305.1 565.1,310.0 567.9,314.4 570.7,318.3 573.5,321.6 576.3,324.4 579.0,326.5 581.8,328.0 584.6,329.0 587.4,329.3 590.2,329.0 593.0,328.2 595.8,327.0 598.6,325.2 601.4,323.1 604.2,320.6 607.0,317.9 609.8,314.9 612.6,311.8 615.4,308.7 618.2,305.5 621.0,302.4 623.8,299.4 626.6,296.5 629.4,293.9 632.2,291.6 635.0,289.5 637.8,287.8 640.6,286.4 643.4,285.4 646.2,284.7 649.0,284.4 651.8,284.5 654.6,284.9 657.4,285.6 660.2,286.7 663.0,287.9 665.8,289.4 668.5,291.1 671.3,292.9 674.1,294.8 676.9,296.7 679.7,298.7 682.5,300.6 685.3,302.4 688.1,304.2 690.9,305.7 693.7,307.1 696.5,308.3 699.3,309.3 702.1,310.0 704.9,310.5 707.7,310.7 710.5,310.7 713.3,310.4 716.1,309.9 718.9,309.2 721.7,308.3 724.5,307.2 727.3,305.9 730.1,304.6 732.9,303.1 735.7,301.6 738.5,300.1 741.3,298.6 744.1,297.1 746.9,295.6 749.7,294.3 752.5,293.1 755.3,292.0 758.0,291.0 760.8,290.3 763.6,289.7 766.4,289.3 769.2,289.1 772.0,289.0 774.8,289.2 777.6,289.5 780.4,290.0 783.2,290.6 786.0,291.4 788.8,292.3 791.6,293.3 794.4,294.3 797.2,295.4 L797.2,298.5 L442.0,298.5 Z" fill="url(#g101)" clip-path="url(#c103)"/>
  <defs><clipPath id="pc104"><rect x="442" y="221" width="358" height="155"/></clipPath></defs>
  <polyline points="442.0,281.2 444.8,296.2 447.6,291.9 450.4,287.9 453.2,284.2 456.0,280.6 458.8,277.1 461.6,273.5 464.4,269.9 467.2,266.2 470.0,262.4 472.8,258.4 475.6,254.4 478.4,250.4 481.2,246.4 484.0,242.5 486.8,238.7 489.5,235.0 492.3,231.7 495.1,228.7 497.9,226.1 500.7,224.0 503.5,222.4 506.3,221.4 509.1,221.0 511.9,221.3 514.7,222.2 517.5,223.8 520.3,226.0 523.1,228.9 525.9,232.4 528.7,236.5 531.5,241.1 534.3,246.2 537.1,251.7 539.9,257.5 542.7,263.5 545.5,269.7 548.3,275.9 551.1,282.1 553.9,288.2 556.7,294.2 559.5,299.8 562.3,305.1 565.1,310.0 567.9,314.4 570.7,318.3 573.5,321.6 576.3,324.4 579.0,326.5 581.8,328.0 584.6,329.0 587.4,329.3 590.2,329.0 593.0,328.2 595.8,327.0 598.6,325.2 601.4,323.1 604.2,320.6 607.0,317.9 609.8,314.9 612.6,311.8 615.4,308.7 618.2,305.5 621.0,302.4 623.8,299.4 626.6,296.5 629.4,293.9 632.2,291.6 635.0,289.5 637.8,287.8 640.6,286.4 643.4,285.4 646.2,284.7 649.0,284.4 651.8,284.5 654.6,284.9 657.4,285.6 660.2,286.7 663.0,287.9 665.8,289.4 668.5,291.1 671.3,292.9 674.1,294.8 676.9,296.7 679.7,298.7 682.5,300.6 685.3,302.4 688.1,304.2 690.9,305.7 693.7,307.1 696.5,308.3 699.3,309.3 702.1,310.0 704.9,310.5 707.7,310.7 710.5,310.7 713.3,310.4 716.1,309.9 718.9,309.2 721.7,308.3 724.5,307.2 727.3,305.9 730.1,304.6 732.9,303.1 735.7,301.6 738.5,300.1 741.3,298.6 744.1,297.1 746.9,295.6 749.7,294.3 752.5,293.1 755.3,292.0 758.0,291.0 760.8,290.3 763.6,289.7 766.4,289.3 769.2,289.1 772.0,289.0 774.8,289.2 777.6,289.5 780.4,290.0 783.2,290.6 786.0,291.4 788.8,292.3 791.6,293.3 794.4,294.3 797.2,295.4" fill="none" stroke="#f39c12" stroke-width="1.3" stroke-linejoin="round" clip-path="url(#pc104)"/>
</svg>
