<svg xmlns="http://www.w3.org/2000/svg" viewBox="0 0 820 378" style="font-family:system-ui,-apple-system,sans-serif">
  <text x="800" y="11" text-anchor="end" font-size="11" font-weight="600" fill="#6b7280">Farrow fractional delay, d=3.7</text>
  <line x1="34" y1="16" x2="34" y2="171" stroke="#d1d5db"/>
  <line x1="34" y1="47.0" x2="399" y2="47.0" stroke="#d1d5db"/>
  <text x="216.5" y="197" text-anchor="middle" font-size="9" fill="#6b7280">Hz</text>
  <text x="12" y="93.5" text-anchor="middle" font-size="9" fill="#6b7280" transform="rotate(-90 12 93.5)">dB</text>
  <line x1="67.3" y1="16" x2="67.3" y2="171" stroke="#e5e7eb" stroke-width="0.5"/>
  <line x1="86.8" y1="16" x2="86.8" y2="171" stroke="#e5e7eb" stroke-width="0.5"/>
  <line x1="100.6" y1="16" x2="100.6" y2="171" stroke="#e5e7eb" stroke-width="0.5"/>
  <line x1="111.3" y1="16" x2="111.3" y2="171" stroke="#e5e7eb" stroke-width="0.5"/>
  <line x1="120.0" y1="16" x2="120.0" y2="171" stroke="#e5e7eb" stroke-width="0.5"/>
  <line x1="127.4" y1="16" x2="127.4" y2="171" stroke="#e5e7eb" stroke-width="0.5"/>
  <line x1="133.9" y1="16" x2="133.9" y2="171" stroke="#e5e7eb" stroke-width="0.5"/>
  <line x1="139.5" y1="16" x2="139.5" y2="171" stroke="#e5e7eb" stroke-width="0.5"/>
  <line x1="177.9" y1="16" x2="177.9" y2="171" stroke="#e5e7eb" stroke-width="0.5"/>
  <line x1="197.3" y1="16" x2="197.3" y2="171" stroke="#e5e7eb" stroke-width="0.5"/>
  <line x1="211.1" y1="16" x2="211.1" y2="171" stroke="#e5e7eb" stroke-width="0.5"/>
  <line x1="221.9" y1="16" x2="221.9" y2="171" stroke="#e5e7eb" stroke-width="0.5"/>
  <line x1="230.6" y1="16" x2="230.6" y2="171" stroke="#e5e7eb" stroke-width="0.5"/>
  <line x1="238.0" y1="16" x2="238.0" y2="171" stroke="#e5e7eb" stroke-width="0.5"/>
  <line x1="244.4" y1="16" x2="244.4" y2="171" stroke="#e5e7eb" stroke-width="0.5"/>
  <line x1="250.1" y1="16" x2="250.1" y2="171" stroke="#e5e7eb" stroke-width="0.5"/>
  <line x1="288.4" y1="16" x2="288.4" y2="171" stroke="#e5e7eb" stroke-width="0.5"/>
  <line x1="307.9" y1="16" x2="307.9" y2="171" stroke="#e5e7eb" stroke-width="0.5"/>
  <line x1="321.7" y1="16" x2="321.7" y2="171" stroke="#e5e7eb" stroke-width="0.5"/>
  <line x1="332.4" y1="16" x2="332.4" y2="171" stroke="#e5e7eb" stroke-width="0.5"/>
  <line x1="341.2" y1="16" x2="341.2" y2="171" stroke="#e5e7eb" stroke-width="0.5"/>
  <line x1="348.6" y1="16" x2="348.6" y2="171" stroke="#e5e7eb" stroke-width="0.5"/>
  <line x1="355.0" y1="16" x2="355.0" y2="171" stroke="#e5e7eb" stroke-width="0.5"/>
  <line x1="360.7" y1="16" x2="360.7" y2="171" stroke="#e5e7eb" stroke-width="0.5"/>
  <line x1="399.0" y1="16" x2="399.0" y2="171" stroke="#e5e7eb" stroke-width="0.5"/>
  <line x1="144.6" y1="16" x2="144.6" y2="171" stroke="#e5e7eb" stroke-width="0.5"/>
  <text x="144.6" y="183" text-anchor="middle" font-size="8" fill="#6b7280">100</text>
  <line x1="255.1" y1="16" x2="255.1" y2="171" stroke="#e5e7eb" stroke-width="0.5"/>
  <text x="255.1" y="183" text-anchor="middle" font-size="8" fill="#6b7280">1k</text>
  <line x1="365.7" y1="16" x2="365.7" y2="171" stroke="#e5e7eb" stroke-width="0.5"/>
  <text x="365.7" y="183" text-anchor="middle" font-size="8" fill="#6b7280">10k</text>
  <line x1="34" y1="31.5" x2="399" y2="31.5" stroke="#e5e7eb" stroke-width="0.5"/>
  <line x1="34" y1="62.5" x2="399" y2="62.5" stroke="#e5e7eb" stroke-width="0.5"/>
  <line x1="34" y1="16.0" x2="399" y2="16.0" stroke="#e5e7eb" stroke-width="0.5"/>
  <text x="30" y="19.0" text-anchor="end" font-size="8" fill="#6b7280">+20</text>
  <text x="30" y="50.0" text-anchor="end" font-size="8" fill="#6b7280">0</text>
  <line x1="34" y1="78.0" x2="399" y2="78.0" stroke="#e5e7eb" stroke-width="0.5"/>
  <text x="30" y="81.0" text-anchor="end" font-size="8" fill="#6b7280">-20</text>
  <line x1="34" y1="109.0" x2="399" y2="109.0" stroke="#e5e7eb" stroke-width="0.5"/>
  <text x="30" y="112.0" text-anchor="end" font-size="8" fill="#6b7280">-40</text>
  <line x1="34" y1="140.0" x2="399" y2="140.0" stroke="#e5e7eb" stroke-width="0.5"/>
  <text x="30" y="143.0" text-anchor="end" font-size="8" fill="#6b7280">-60</text>
  <line x1="34" y1="171.0" x2="399" y2="171.0" stroke="#e5e7eb" stroke-width="0.5"/>
  <text x="30" y="174.0" text-anchor="end" font-size="8" fill="#6b7280">-80</text>
  <defs><linearGradient id="g664" x1="0" y1="16" x2="0" y2="171" gradientUnits="userSpaceOnUse">
    <stop offset="0%" stop-color="#4a90d9" stop-opacity="0.15"/>
    <stop offset="100%" stop-color="#4a90d9" stop-opacity="0.02"/>
  </linearGradient></defs>
  <path d="M37.5,47.0 37.5,47.0 70.8,47.0 90.3,47.0 104.1,47.0 114.8,47.0 123.6,47.0 131.0,47.0 137.4,47.0 143.1,47.0 148.1,47.0 152.7,47.0 156.9,47.0 160.7,47.0 164.3,47.0 167.6,47.0 170.7,47.0 173.6,47.0 176.3,47.0 178.9,47.0 181.4,47.0 183.7,47.0 186.0,47.0 188.1,47.0 190.2,47.0 192.1,47.0 194.0,47.0 195.8,47.0 197.6,47.0 199.2,47.0 200.9,47.0 202.4,47.0 204.0,47.0 205.5,47.0 206.9,47.0 208.3,47.0 209.6,47.0 210.9,47.0 212.2,47.0 213.5,47.0 214.7,47.0 215.9,47.0 217.0,47.0 218.2,47.0 219.3,47.0 220.3,47.0 221.4,47.0 222.4,47.0 223.4,47.0 224.4,47.0 225.4,47.0 226.4,47.0 227.3,47.0 228.2,47.0 229.1,47.0 230.0,47.0 230.8,47.0 231.7,47.0 232.5,47.0 233.4,47.0 234.2,47.0 235.7,47.0 237.3,47.0 238.7,47.0 240.2,47.0 241.6,47.0 242.9,47.0 244.2,47.0 245.5,47.0 246.8,47.0 248.0,47.0 249.2,47.0 250.3,47.0 251.4,47.0 252.6,47.0 253.6,47.0 254.7,47.0 255.7,47.0 256.7,47.0 257.7,47.0 258.7,47.0 259.6,47.0 260.6,47.0 261.5,47.0 262.4,47.0 263.3,47.0 264.1,47.0 265.0,47.0 265.8,47.0 266.6,47.0 267.4,47.0 268.6,47.0 269.8,47.0 270.9,47.0 272.0,47.0 273.1,47.0 274.2,47.0 275.2,47.0 276.2,47.0 277.2,47.0 278.2,47.0 279.1,47.0 280.0,47.0 281.0,47.0 281.9,47.0 282.7,47.0 283.6,47.0 284.5,47.0 285.3,47.0 286.1,47.0 286.9,47.0 288.0,47.0 289.0,47.0 290.0,47.0 291.0,47.0 292.0,47.0 292.9,47.0 293.9,47.0 294.8,47.0 295.7,47.0 296.6,47.0 297.4,47.0 298.3,47.0 299.1,47.0 299.9,47.0 300.7,47.0 301.7,47.0 302.7,47.0 303.6,47.0 304.6,47.0 305.5,47.0 306.4,47.0 307.3,47.0 308.1,47.0 309.0,47.0 309.8,47.0 310.6,47.0 311.4,47.0 312.4,47.0 313.3,47.0 314.2,47.0 315.1,47.0 316.0,47.0 316.9,47.0 317.7,47.0 318.6,47.0 319.4,47.0 320.2,47.0 321.1,47.0 322.0,47.0 322.9,47.0 323.8,47.0 324.7,47.0 325.5,47.0 326.3,47.0 327.1,47.0 327.9,47.0 328.8,47.0 329.7,47.1 330.6,47.1 331.4,47.1 332.3,47.1 333.1,47.1 333.9,47.1 334.8,47.1 335.7,47.1 336.5,47.1 337.4,47.1 338.2,47.1 339.0,47.1 339.8,47.1 340.7,47.1 341.6,47.1 342.4,47.1 343.3,47.2 344.1,47.2 344.9,47.2 345.8,47.2 346.6,47.2 347.5,47.2 348.3,47.2 349.1,47.2 350.0,47.3 350.8,47.3 351.7,47.3 352.5,47.3 353.3,47.3 354.1,47.4 355.0,47.4 355.8,47.4 356.6,47.4 357.5,47.5 358.3,47.5 359.1,47.5 360.0,47.6 360.8,47.6 361.6,47.7 362.5,47.7 363.3,47.8 364.1,47.8 364.9,47.9 365.8,47.9 366.6,48.0 367.4,48.0 368.2,48.1 369.1,48.2 369.9,48.3 370.7,48.3 371.6,48.4 372.4,48.5 373.2,48.6 374.0,48.7 374.8,48.8 375.6,48.9 376.5,49.1 377.3,49.2 378.1,49.3 378.9,49.5 379.7,49.6 380.5,49.8 381.4,50.0 382.2,50.2 383.0,50.4 383.8,50.6 384.6,50.8 385.5,51.0 386.3,51.3 387.1,51.5 387.9,51.8 388.7,52.1 389.5,52.4 390.3,52.7 391.2,53.0 392.0,53.4 392.8,53.7 393.6,54.1 394.4,54.4 395.2,54.8 396.0,55.2 396.8,55.5 397.6,55.9 398.5,56.3 L398.5,171.0 L37.5,171.0 Z" fill="url(#g664)"/>
  <defs><clipPath id="pc665"><rect x="34" y="16" width="365" height="155"/></clipPath></defs>
  <polyline points="37.5,47.0 70.8,47.0 90.3,47.0 104.1,47.0 114.8,47.0 123.6,47.0 131.0,47.0 137.4,47.0 143.1,47.0 148.1,47.0 152.7,47.0 156.9,47.0 160.7,47.0 164.3,47.0 167.6,47.0 170.7,47.0 173.6,47.0 176.3,47.0 178.9,47.0 181.4,47.0 183.7,47.0 186.0,47.0 188.1,47.0 190.2,47.0 192.1,47.0 194.0,47.0 195.8,47.0 197.6,47.0 199.2,47.0 200.9,47.0 202.4,47.0 204.0,47.0 205.5,47.0 206.9,47.0 208.3,47.0 209.6,47.0 210.9,47.0 212.2,47.0 213.5,47.0 214.7,47.0 215.9,47.0 217.0,47.0 218.2,47.0 219.3,47.0 220.3,47.0 221.4,47.0 222.4,47.0 223.4,47.0 224.4,47.0 225.4,47.0 226.4,47.0 227.3,47.0 228.2,47.0 229.1,47.0 230.0,47.0 230.8,47.0 231.7,47.0 232.5,47.0 233.4,47.0 234.2,47.0 235.7,47.0 237.3,47.0 238.7,47.0 240.2,47.0 241.6,47.0 242.9,47.0 244.2,47.0 245.5,47.0 246.8,47.0 248.0,47.0 249.2,47.0 250.3,47.0 251.4,47.0 252.6,47.0 253.6,47.0 254.7,47.0 255.7,47.0 256.7,47.0 257.7,47.0 258.7,47.0 259.6,47.0 260.6,47.0 261.5,47.0 262.4,47.0 263.3,47.0 264.1,47.0 265.0,47.0 265.8,47.0 266.6,47.0 267.4,47.0 268.6,47.0 269.8,47.0 270.9,47.0 272.0,47.0 273.1,47.0 274.2,47.0 275.2,47.0 276.2,47.0 277.2,47.0 278.2,47.0 279.1,47.0 280.0,47.0 281.0,47.0 281.9,47.0 282.7,47.0 283.6,47.0 284.5,47.0 285.3,47.0 286.1,47.0 286.9,47.0 288.0,47.0 289.0,47.0 290.0,47.0 291.0,47.0 292.0,47.0 292.9,47.0 293.9,47.0 294.8,47.0 295.7,47.0 296.6,47.0 297.4,47.0 298.3,47.0 299.1,47.0 299.9,47.0 300.7,47.0 301.7,47.0 302.7,47.0 303.6,47.0 304.6,47.0 305.5,47.0 306.4,47.0 307.3,47.0 308.1,47.0 309.0,47.0 309.8,47.0 310.6,47.0 311.4,47.0 312.4,47.0 313.3,47.0 314.2,47.0 315.1,47.0 316.0,47.0 316.9,47.0 317.7,47.0 318.6,47.0 319.4,47.0 320.2,47.0 321.1,47.0 322.0,47.0 322.9,47.0 323.8,47.0 324.7,47.0 325.5,47.0 326.3,47.0 327.1,47.0 327.9,47.0 328.8,47.0 329.7,47.1 330.6,47.1 331.4,47.1 332.3,47.1 333.1,47.1 333.9,47.1 334.8,47.1 335.7,47.1 336.5,47.1 337.4,47.1 338.2,47.1 339.0,47.1 339.8,47.1 340.7,47.1 341.6,47.1 342.4,47.1 343.3,47.2 344.1,47.2 344.9,47.2 345.8,47.2 346.6,47.2 347.5,47.2 348.3,47.2 349.1,47.2 350.0,47.3 350.8,47.3 351.7,47.3 352.5,47.3 353.3,47.3 354.1,47.4 355.0,47.4 355.8,47.4 356.6,47.4 357.5,47.5 358.3,47.5 359.1,47.5 360.0,47.6 360.8,47.6 361.6,47.7 362.5,47.7 363.3,47.8 364.1,47.8 364.9,47.9 365.8,47.9 366.6,48.0 367.4,48.0 368.2,48.1 369.1,48.2 369.9,48.3 370.7,48.3 371.6,48.4 372.4,48.5 373.2,48.6 374.0,48.7 374.8,48.8 375.6,48.9 376.5,49.1 377.3,49.2 378.1,49.3 378.9,49.5 379.7,49.6 380.5,49.8 381.4,50.0 382.2,50.2 383.0,50.4 383.8,50.6 384.6,50.8 385.5,51.0 386.3,51.3 387.1,51.5 387.9,51.8 388.7,52.1 389.5,52.4 390.3,52.7 391.2,53.0 392.0,53.4 392.8,53.7 393.6,54.1 394.4,54.4 395.2,54.8 396.0,55.2 396.8,55.5 397.6,55.9 398.5,56.3" fill="none" stroke="#4a90d9" stroke-width="1.5" stroke-linejoin="round" clip-path="url(#pc665)"/>
  <line x1="435" y1="16" x2="435" y2="171" stroke="#d1d5db"/>
  <line x1="435" y1="93.5" x2="800" y2="93.5" stroke="#d1d5db"/>
  <text x="617.5" y="197" text-anchor="middle" font-size="9" fill="#6b7280">Hz</text>
  <text x="413" y="93.5" text-anchor="middle" font-size="9" fill="#6b7280" transform="rotate(-90 413 93.5)">Phase (deg)</text>
  <line x1="468.3" y1="16" x2="468.3" y2="171" stroke="#e5e7eb" stroke-width="0.5"/>
  <line x1="487.8" y1="16" x2="487.8" y2="171" stroke="#e5e7eb" stroke-width="0.5"/>
  <line x1="501.6" y1="16" x2="501.6" y2="171" stroke="#e5e7eb" stroke-width="0.5"/>
  <line x1="512.3" y1="16" x2="512.3" y2="171" stroke="#e5e7eb" stroke-width="0.5"/>
  <line x1="521.0" y1="16" x2="521.0" y2="171" stroke="#e5e7eb" stroke-width="0.5"/>
  <line x1="528.4" y1="16" x2="528.4" y2="171" stroke="#e5e7eb" stroke-width="0.5"/>
  <line x1="534.9" y1="16" x2="534.9" y2="171" stroke="#e5e7eb" stroke-width="0.5"/>
  <line x1="540.5" y1="16" x2="540.5" y2="171" stroke="#e5e7eb" stroke-width="0.5"/>
  <line x1="578.9" y1="16" x2="578.9" y2="171" stroke="#e5e7eb" stroke-width="0.5"/>
  <line x1="598.3" y1="16" x2="598.3" y2="171" stroke="#e5e7eb" stroke-width="0.5"/>
  <line x1="612.1" y1="16" x2="612.1" y2="171" stroke="#e5e7eb" stroke-width="0.5"/>
  <line x1="622.9" y1="16" x2="622.9" y2="171" stroke="#e5e7eb" stroke-width="0.5"/>
  <line x1="631.6" y1="16" x2="631.6" y2="171" stroke="#e5e7eb" stroke-width="0.5"/>
  <line x1="639.0" y1="16" x2="639.0" y2="171" stroke="#e5e7eb" stroke-width="0.5"/>
  <line x1="645.4" y1="16" x2="645.4" y2="171" stroke="#e5e7eb" stroke-width="0.5"/>
  <line x1="651.1" y1="16" x2="651.1" y2="171" stroke="#e5e7eb" stroke-width="0.5"/>
  <line x1="689.4" y1="16" x2="689.4" y2="171" stroke="#e5e7eb" stroke-width="0.5"/>
  <line x1="708.9" y1="16" x2="708.9" y2="171" stroke="#e5e7eb" stroke-width="0.5"/>
  <line x1="722.7" y1="16" x2="722.7" y2="171" stroke="#e5e7eb" stroke-width="0.5"/>
  <line x1="733.4" y1="16" x2="733.4" y2="171" stroke="#e5e7eb" stroke-width="0.5"/>
  <line x1="742.2" y1="16" x2="742.2" y2="171" stroke="#e5e7eb" stroke-width="0.5"/>
  <line x1="749.6" y1="16" x2="749.6" y2="171" stroke="#e5e7eb" stroke-width="0.5"/>
  <line x1="756.0" y1="16" x2="756.0" y2="171" stroke="#e5e7eb" stroke-width="0.5"/>
  <line x1="761.7" y1="16" x2="761.7" y2="171" stroke="#e5e7eb" stroke-width="0.5"/>
  <line x1="800.0" y1="16" x2="800.0" y2="171" stroke="#e5e7eb" stroke-width="0.5"/>
  <line x1="545.6" y1="16" x2="545.6" y2="171" stroke="#e5e7eb" stroke-width="0.5"/>
  <text x="545.6" y="183" text-anchor="middle" font-size="8" fill="#6b7280">100</text>
  <line x1="656.1" y1="16" x2="656.1" y2="171" stroke="#e5e7eb" stroke-width="0.5"/>
  <text x="656.1" y="183" text-anchor="middle" font-size="8" fill="#6b7280">1k</text>
  <line x1="766.7" y1="16" x2="766.7" y2="171" stroke="#e5e7eb" stroke-width="0.5"/>
  <text x="766.7" y="183" text-anchor="middle" font-size="8" fill="#6b7280">10k</text>
  <line x1="435" y1="54.8" x2="800" y2="54.8" stroke="#e5e7eb" stroke-width="0.5"/>
  <line x1="435" y1="132.3" x2="800" y2="132.3" stroke="#e5e7eb" stroke-width="0.5"/>
  <line x1="435" y1="16.0" x2="800" y2="16.0" stroke="#e5e7eb" stroke-width="0.5"/>
  <text x="431" y="19.0" text-anchor="end" font-size="8" fill="#6b7280">180</text>
  <text x="431" y="96.5" text-anchor="end" font-size="8" fill="#6b7280">0</text>
  <line x1="435" y1="171.0" x2="800" y2="171.0" stroke="#e5e7eb" stroke-width="0.5"/>
  <text x="431" y="174.0" text-anchor="end" font-size="8" fill="#6b7280">-180</text>
  <defs><linearGradient id="g666" x1="0" y1="16" x2="0" y2="93.5" gradientUnits="userSpaceOnUse">
    <stop offset="0%" stop-color="#e74c3c" stop-opacity="0.15"/>
    <stop offset="100%" stop-color="#e74c3c" stop-opacity="0.02"/>
  </linearGradient></defs>
  <defs><linearGradient id="g667" x1="0" y1="171" x2="0" y2="93.5" gradientUnits="userSpaceOnUse">
    <stop offset="0%" stop-color="#e74c3c" stop-opacity="0.15"/>
    <stop offset="100%" stop-color="#e74c3c" stop-opacity="0.02"/>
  </linearGradient></defs>
  <defs><clipPath id="c668"><rect x="435" y="16" width="365" height="77.5"/></clipPath></defs>
  <defs><clipPath id="c669"><rect x="435" y="93.5" width="365" height="77.5"/></clipPath></defs>
  <path d="M438.5,94.2 438.5,94.2 471.8,95.0 491.3,95.7 505.1,96.5 515.8,97.2 524.6,98.0 532.0,98.7 538.4,99.5 544.1,100.2 549.1,101.0 553.7,101.7 557.9,102.4 561.7,103.2 565.3,103.9 568.6,104.7 571.7,105.4 574.6,106.2 577.3,106.9 579.9,107.7 582.4,108.4 584.7,109.2 587.0,109.9 589.1,110.6 591.2,111.4 593.1,112.1 595.0,112.9 596.8,113.6 598.6,114.4 600.2,115.1 601.9,115.9 603.4,116.6 605.0,117.4 606.5,118.1 607.9,118.8 609.3,119.6 610.6,120.3 611.9,121.1 613.2,121.8 614.5,122.6 615.7,123.3 616.9,124.1 618.0,124.8 619.2,125.6 620.3,126.3 621.3,127.0 622.4,127.8 623.4,128.5 624.4,129.3 625.4,130.0 626.4,130.8 627.4,131.5 628.3,132.3 629.2,133.0 630.1,133.8 631.0,134.5 631.8,135.2 632.7,136.0 633.5,136.7 634.4,137.5 635.2,138.2 636.7,139.7 638.3,141.2 639.7,142.7 641.2,144.2 642.6,145.7 643.9,147.2 645.2,148.7 646.5,150.2 647.8,151.6 649.0,153.1 650.2,154.6 651.3,156.1 652.4,157.6 653.6,159.1 654.6,160.6 655.7,162.1 656.7,163.6 657.7,165.1 658.7,166.6 659.7,168.0 660.6,169.5 661.6,16.0 662.5,17.5 663.4,19.0 664.3,20.5 665.1,22.0 666.0,23.5 666.8,25.0 667.6,26.5 668.4,28.0 669.6,30.2 670.8,32.4 671.9,34.7 673.0,36.9 674.1,39.1 675.2,41.4 676.2,43.6 677.2,45.8 678.2,48.1 679.2,50.3 680.1,52.6 681.0,54.8 682.0,57.0 682.9,59.3 683.7,61.5 684.6,63.7 685.5,66.0 686.3,68.2 687.1,70.5 687.9,72.7 689.0,75.7 690.0,78.7 691.0,81.6 692.0,84.6 693.0,87.6 693.9,90.6 694.9,93.6 695.8,96.5 696.7,99.5 697.6,102.5 698.4,105.5 699.3,108.5 700.1,111.5 700.9,114.4 701.7,117.4 702.7,121.1 703.7,124.9 704.6,128.6 705.6,132.3 706.5,136.1 707.4,139.8 708.3,143.5 709.1,147.2 710.0,151.0 710.8,154.7 711.6,158.4 712.4,162.1 713.4,166.6 714.3,16.1 715.2,20.6 716.1,25.0 717.0,29.5 717.9,34.0 718.7,38.5 719.6,42.9 720.4,47.4 721.2,51.9 722.1,57.1 723.0,62.3 723.9,67.5 724.8,72.8 725.7,78.0 726.5,83.2 727.3,88.4 728.1,93.6 728.9,98.8 729.8,104.8 730.7,110.8 731.6,116.7 732.4,122.7 733.3,128.7 734.1,134.6 734.9,140.6 735.8,147.3 736.7,154.0 737.5,160.7 738.4,167.4 739.2,19.2 740.0,25.9 740.8,32.6 741.7,40.0 742.6,47.5 743.4,55.0 744.3,62.4 745.1,69.9 745.9,77.3 746.8,85.5 747.6,93.7 748.5,101.9 749.3,110.1 750.1,118.4 751.0,127.3 751.8,136.3 752.7,145.2 753.5,154.2 754.3,163.1 755.1,17.8 756.0,27.5 756.8,37.2 757.6,46.9 758.5,56.6 759.3,67.1 760.1,77.5 761.0,88.0 761.8,98.5 762.6,109.7 763.5,120.9 764.3,132.1 765.1,143.3 765.9,155.2 766.8,167.2 767.6,24.2 768.4,36.1 769.2,48.8 770.1,61.6 770.9,74.3 771.7,87.8 772.6,101.2 773.4,114.7 774.2,128.2 775.0,142.4 775.8,156.7 776.6,170.9 777.5,30.9 778.3,46.0 779.1,61.0 779.9,76.8 780.7,92.5 781.5,108.3 782.4,124.9 783.2,141.5 784.0,158.1 784.8,20.4 785.6,37.8 786.5,56.0 787.3,74.1 788.1,92.3 788.9,111.3 789.7,130.3 790.5,150.1 791.3,170.0 792.2,35.6 793.0,56.3 793.8,77.0 794.6,98.6 795.4,120.2 796.2,142.6 797.0,165.1 797.8,33.5 798.6,56.9 799.5,81.2 L799.5,93.5 L438.5,93.5 Z" fill="url(#g666)" clip-path="url(#c668)"/>
  <path d="M438.5,94.2 438.5,94.2 471.8,95.0 491.3,95.7 505.1,96.5 515.8,97.2 524.6,98.0 532.0,98.7 538.4,99.5 544.1,100.2 549.1,101.0 553.7,101.7 557.9,102.4 561.7,103.2 565.3,103.9 568.6,104.7 571.7,105.4 574.6,106.2 577.3,106.9 579.9,107.7 582.4,108.4 584.7,109.2 587.0,109.9 589.1,110.6 591.2,111.4 593.1,112.1 595.0,112.9 596.8,113.6 598.6,114.4 600.2,115.1 601.9,115.9 603.4,116.6 605.0,117.4 606.5,118.1 607.9,118.8 609.3,119.6 610.6,120.3 611.9,121.1 613.2,121.8 614.5,122.6 615.7,123.3 616.9,124.1 618.0,124.8 619.2,125.6 620.3,126.3 621.3,127.0 622.4,127.8 623.4,128.5 624.4,129.3 625.4,130.0 626.4,130.8 627.4,131.5 628.3,132.3 629.2,133.0 630.1,133.8 631.0,134.5 631.8,135.2 632.7,136.0 633.5,136.7 634.4,137.5 635.2,138.2 636.7,139.7 638.3,141.2 639.7,142.7 641.2,144.2 642.6,145.7 643.9,147.2 645.2,148.7 646.5,150.2 647.8,151.6 649.0,153.1 650.2,154.6 651.3,156.1 652.4,157.6 653.6,159.1 654.6,160.6 655.7,162.1 656.7,163.6 657.7,165.1 658.7,166.6 659.7,168.0 660.6,169.5 661.6,16.0 662.5,17.5 663.4,19.0 664.3,20.5 665.1,22.0 666.0,23.5 666.8,25.0 667.6,26.5 668.4,28.0 669.6,30.2 670.8,32.4 671.9,34.7 673.0,36.9 674.1,39.1 675.2,41.4 676.2,43.6 677.2,45.8 678.2,48.1 679.2,50.3 680.1,52.6 681.0,54.8 682.0,57.0 682.9,59.3 683.7,61.5 684.6,63.7 685.5,66.0 686.3,68.2 687.1,70.5 687.9,72.7 689.0,75.7 690.0,78.7 691.0,81.6 692.0,84.6 693.0,87.6 693.9,90.6 694.9,93.6 695.8,96.5 696.7,99.5 697.6,102.5 698.4,105.5 699.3,108.5 700.1,111.5 700.9,114.4 701.7,117.4 702.7,121.1 703.7,124.9 704.6,128.6 705.6,132.3 706.5,136.1 707.4,139.8 708.3,143.5 709.1,147.2 710.0,151.0 710.8,154.7 711.6,158.4 712.4,162.1 713.4,166.6 714.3,16.1 715.2,20.6 716.1,25.0 717.0,29.5 717.9,34.0 718.7,38.5 719.6,42.9 720.4,47.4 721.2,51.9 722.1,57.1 723.0,62.3 723.9,67.5 724.8,72.8 725.7,78.0 726.5,83.2 727.3,88.4 728.1,93.6 728.9,98.8 729.8,104.8 730.7,110.8 731.6,116.7 732.4,122.7 733.3,128.7 734.1,134.6 734.9,140.6 735.8,147.3 736.7,154.0 737.5,160.7 738.4,167.4 739.2,19.2 740.0,25.9 740.8,32.6 741.7,40.0 742.6,47.5 743.4,55.0 744.3,62.4 745.1,69.9 745.9,77.3 746.8,85.5 747.6,93.7 748.5,101.9 749.3,110.1 750.1,118.4 751.0,127.3 751.8,136.3 752.7,145.2 753.5,154.2 754.3,163.1 755.1,17.8 756.0,27.5 756.8,37.2 757.6,46.9 758.5,56.6 759.3,67.1 760.1,77.5 761.0,88.0 761.8,98.5 762.6,109.7 763.5,120.9 764.3,132.1 765.1,143.3 765.9,155.2 766.8,167.2 767.6,24.2 768.4,36.1 769.2,48.8 770.1,61.6 770.9,74.3 771.7,87.8 772.6,101.2 773.4,114.7 774.2,128.2 775.0,142.4 775.8,156.7 776.6,170.9 777.5,30.9 778.3,46.0 779.1,61.0 779.9,76.8 780.7,92.5 781.5,108.3 782.4,124.9 783.2,141.5 784.0,158.1 784.8,20.4 785.6,37.8 786.5,56.0 787.3,74.1 788.1,92.3 788.9,111.3 789.7,130.3 790.5,150.1 791.3,170.0 792.2,35.6 793.0,56.3 793.8,77.0 794.6,98.6 795.4,120.2 796.2,142.6 797.0,165.1 797.8,33.5 798.6,56.9 799.5,81.2 L799.5,93.5 L438.5,93.5 Z" fill="url(#g667)" clip-path="url(#c669)"/>
  <defs><clipPath id="pc670"><rect x="435" y="16" width="365" height="155"/></clipPath></defs>
  <polyline points="438.5,94.2 471.8,95.0 491.3,95.7 505.1,96.5 515.8,97.2 524.6,98.0 532.0,98.7 538.4,99.5 544.1,100.2 549.1,101.0 553.7,101.7 557.9,102.4 561.7,103.2 565.3,103.9 568.6,104.7 571.7,105.4 574.6,106.2 577.3,106.9 579.9,107.7 582.4,108.4 584.7,109.2 587.0,109.9 589.1,110.6 591.2,111.4 593.1,112.1 595.0,112.9 596.8,113.6 598.6,114.4 600.2,115.1 601.9,115.9 603.4,116.6 605.0,117.4 606.5,118.1 607.9,118.8 609.3,119.6 610.6,120.3 611.9,121.1 613.2,121.8 614.5,122.6 615.7,123.3 616.9,124.1 618.0,124.8 619.2,125.6 620.3,126.3 621.3,127.0 622.4,127.8 623.4,128.5 624.4,129.3 625.4,130.0 626.4,130.8 627.4,131.5 628.3,132.3 629.2,133.0 630.1,133.8 631.0,134.5 631.8,135.2 632.7,136.0 633.5,136.7 634.4,137.5 635.2,138.2 636.7,139.7 638.3,141.2 639.7,142.7 641.2,144.2 642.6,145.7 643.9,147.2 645.2,148.7 646.5,150.2 647.8,151.6 649.0,153.1 650.2,154.6 651.3,156.1 652.4,157.6 653.6,159.1 654.6,160.6 655.7,162.1 656.7,163.6 657.7,165.1 658.7,166.6 659.7,168.0 660.6,169.5 661.6,16.0 662.5,17.5 663.4,19.0 664.3,20.5 665.1,22.0 666.0,23.5 666.8,25.0 667.6,26.5 668.4,28.0 669.6,30.2 670.8,32.4 671.9,34.7 673.0,36.9 674.1,39.1 675.2,41.4 676.2,43.6 677.2,45.8 678.2,48.1 679.2,50.3 680.1,52.6 681.0,54.8 682.0,57.0 682.9,59.3 683.7,61.5 684.6,63.7 685.5,66.0 686.3,68.2 687.1,70.5 687.9,72.7 689.0,75.7 690.0,78.7 691.0,81.6 692.0,84.6 693.0,87.6 693.9,90.6 694.9,93.6 695.8,96.5 696.7,99.5 697.6,102.5 698.4,105.5 699.3,108.5 700.1,111.5 700.9,114.4 701.7,117.4 702.7,121.1 703.7,124.9 704.6,128.6 705.6,132.3 706.5,136.1 707.4,139.8 708.3,143.5 709.1,147.2 710.0,151.0 710.8,154.7 711.6,158.4 712.4,162.1 713.4,166.6 714.3,16.1 715.2,20.6 716.1,25.0 717.0,29.5 717.9,34.0 718.7,38.5 719.6,42.9 720.4,47.4 721.2,51.9 722.1,57.1 723.0,62.3 723.9,67.5 724.8,72.8 725.7,78.0 726.5,83.2 727.3,88.4 728.1,93.6 728.9,98.8 729.8,104.8 730.7,110.8 731.6,116.7 732.4,122.7 733.3,128.7 734.1,134.6 734.9,140.6 735.8,147.3 736.7,154.0 737.5,160.7 738.4,167.4 739.2,19.2 740.0,25.9 740.8,32.6 741.7,40.0 742.6,47.5 743.4,55.0 744.3,62.4 745.1,69.9 745.9,77.3 746.8,85.5 747.6,93.7 748.5,101.9 749.3,110.1 750.1,118.4 751.0,127.3 751.8,136.3 752.7,145.2 753.5,154.2 754.3,163.1 755.1,17.8 756.0,27.5 756.8,37.2 757.6,46.9 758.5,56.6 759.3,67.1 760.1,77.5 761.0,88.0 761.8,98.5 762.6,109.7 763.5,120.9 764.3,132.1 765.1,143.3 765.9,155.2 766.8,167.2 767.6,24.2 768.4,36.1 769.2,48.8 770.1,61.6 770.9,74.3 771.7,87.8 772.6,101.2 773.4,114.7 774.2,128.2 775.0,142.4 775.8,156.7 776.6,170.9 777.5,30.9 778.3,46.0 779.1,61.0 779.9,76.8 780.7,92.5 781.5,108.3 782.4,124.9 783.2,141.5 784.0,158.1 784.8,20.4 785.6,37.8 786.5,56.0 787.3,74.1 788.1,92.3 788.9,111.3 789.7,130.3 790.5,150.1 791.3,170.0 792.2,35.6 793.0,56.3 793.8,77.0 794.6,98.6 795.4,120.2 796.2,142.6 797.0,165.1 797.8,33.5 798.6,56.9 799.5,81.2" fill="none" stroke="#e74c3c" stroke-width="1.5" stroke-linejoin="round" clip-path="url(#pc670)"/>
  <line x1="34" y1="207" x2="34" y2="362" stroke="#d1d5db"/>
  <line x1="34" y1="284.5" x2="399" y2="284.5" stroke="#d1d5db"/>
  <text x="216.5" y="388" text-anchor="middle" font-size="9" fill="#6b7280">Hz</text>
  <text x="12" y="284.5" text-anchor="middle" font-size="9" fill="#6b7280" transform="rotate(-90 12 284.5)">Group delay</text>
  <line x1="67.3" y1="207" x2="67.3" y2="362" stroke="#e5e7eb" stroke-width="0.5"/>
  <line x1="86.8" y1="207" x2="86.8" y2="362" stroke="#e5e7eb" stroke-width="0.5"/>
  <line x1="100.6" y1="207" x2="100.6" y2="362" stroke="#e5e7eb" stroke-width="0.5"/>
  <line x1="111.3" y1="207" x2="111.3" y2="362" stroke="#e5e7eb" stroke-width="0.5"/>
  <line x1="120.0" y1="207" x2="120.0" y2="362" stroke="#e5e7eb" stroke-width="0.5"/>
  <line x1="127.4" y1="207" x2="127.4" y2="362" stroke="#e5e7eb" stroke-width="0.5"/>
  <line x1="133.9" y1="207" x2="133.9" y2="362" stroke="#e5e7eb" stroke-width="0.5"/>
  <line x1="139.5" y1="207" x2="139.5" y2="362" stroke="#e5e7eb" stroke-width="0.5"/>
  <line x1="177.9" y1="207" x2="177.9" y2="362" stroke="#e5e7eb" stroke-width="0.5"/>
  <line x1="197.3" y1="207" x2="197.3" y2="362" stroke="#e5e7eb" stroke-width="0.5"/>
  <line x1="211.1" y1="207" x2="211.1" y2="362" stroke="#e5e7eb" stroke-width="0.5"/>
  <line x1="221.9" y1="207" x2="221.9" y2="362" stroke="#e5e7eb" stroke-width="0.5"/>
  <line x1="230.6" y1="207" x2="230.6" y2="362" stroke="#e5e7eb" stroke-width="0.5"/>
  <line x1="238.0" y1="207" x2="238.0" y2="362" stroke="#e5e7eb" stroke-width="0.5"/>
  <line x1="244.4" y1="207" x2="244.4" y2="362" stroke="#e5e7eb" stroke-width="0.5"/>
  <line x1="250.1" y1="207" x2="250.1" y2="362" stroke="#e5e7eb" stroke-width="0.5"/>
  <line x1="288.4" y1="207" x2="288.4" y2="362" stroke="#e5e7eb" stroke-width="0.5"/>
  <line x1="307.9" y1="207" x2="307.9" y2="362" stroke="#e5e7eb" stroke-width="0.5"/>
  <line x1="321.7" y1="207" x2="321.7" y2="362" stroke="#e5e7eb" stroke-width="0.5"/>
  <line x1="332.4" y1="207" x2="332.4" y2="362" stroke="#e5e7eb" stroke-width="0.5"/>
  <line x1="341.2" y1="207" x2="341.2" y2="362" stroke="#e5e7eb" stroke-width="0.5"/>
  <line x1="348.6" y1="207" x2="348.6" y2="362" stroke="#e5e7eb" stroke-width="0.5"/>
  <line x1="355.0" y1="207" x2="355.0" y2="362" stroke="#e5e7eb" stroke-width="0.5"/>
  <line x1="360.7" y1="207" x2="360.7" y2="362" stroke="#e5e7eb" stroke-width="0.5"/>
  <line x1="399.0" y1="207" x2="399.0" y2="362" stroke="#e5e7eb" stroke-width="0.5"/>
  <line x1="144.6" y1="207" x2="144.6" y2="362" stroke="#e5e7eb" stroke-width="0.5"/>
  <text x="144.6" y="374" text-anchor="middle" font-size="8" fill="#6b7280">100</text>
  <line x1="255.1" y1="207" x2="255.1" y2="362" stroke="#e5e7eb" stroke-width="0.5"/>
  <text x="255.1" y="374" text-anchor="middle" font-size="8" fill="#6b7280">1k</text>
  <line x1="365.7" y1="207" x2="365.7" y2="362" stroke="#e5e7eb" stroke-width="0.5"/>
  <text x="365.7" y="374" text-anchor="middle" font-size="8" fill="#6b7280">10k</text>
  <line x1="34" y1="343.2" x2="399" y2="343.2" stroke="#e5e7eb" stroke-width="0.5"/>
  <text x="30" y="346.2" text-anchor="end" font-size="8" fill="#6b7280">-20</text>
  <text x="30" y="287.5" text-anchor="end" font-size="8" fill="#6b7280">0</text>
  <line x1="34" y1="225.8" x2="399" y2="225.8" stroke="#e5e7eb" stroke-width="0.5"/>
  <text x="30" y="228.8" text-anchor="end" font-size="8" fill="#6b7280">20</text>
  <defs><linearGradient id="g671" x1="0" y1="207" x2="0" y2="284.5" gradientUnits="userSpaceOnUse">
    <stop offset="0%" stop-color="#2ecc71" stop-opacity="0.15"/>
    <stop offset="100%" stop-color="#2ecc71" stop-opacity="0.02"/>
  </linearGradient></defs>
  <path d="M37.5,226.7 37.5,226.7 70.8,226.7 90.3,226.7 104.1,226.7 114.8,226.7 123.6,226.7 131.0,226.7 137.4,226.7 143.1,226.7 148.1,226.7 152.7,226.7 156.9,226.7 160.7,226.7 164.3,226.7 167.6,226.7 170.7,226.7 173.6,226.7 176.3,226.7 178.9,226.7 181.4,226.7 183.7,226.7 186.0,226.7 188.1,226.7 190.2,226.7 192.1,226.7 194.0,226.7 195.8,226.7 197.6,226.7 199.2,226.7 200.9,226.7 202.4,226.7 204.0,226.7 205.5,226.7 206.9,226.7 208.3,226.7 209.6,226.7 210.9,226.7 212.2,226.7 213.5,226.7 214.7,226.7 215.9,226.7 217.0,226.7 218.2,226.7 219.3,226.7 220.3,226.7 221.4,226.7 222.4,226.7 223.4,226.7 224.4,226.7 225.4,226.7 226.4,226.7 227.3,226.7 228.2,226.7 229.1,226.7 230.0,226.7 230.8,226.7 231.7,226.7 232.5,226.7 233.4,226.7 234.2,226.7 235.7,226.7 237.3,226.7 238.7,226.7 240.2,226.7 241.6,226.7 242.9,226.7 244.2,226.7 245.5,226.7 246.8,226.7 248.0,226.7 249.2,226.7 250.3,226.7 251.4,226.7 252.6,226.7 253.6,226.7 254.7,226.7 255.7,226.7 256.7,226.7 257.7,226.7 258.7,226.7 259.6,226.7 260.6,226.7 261.5,226.7 262.4,226.7 263.3,226.7 264.1,226.7 265.0,226.7 265.8,226.7 266.6,226.7 267.4,226.7 268.6,226.7 269.8,226.7 270.9,226.7 272.0,226.7 273.1,226.7 274.2,226.7 275.2,226.7 276.2,226.7 277.2,226.7 278.2,226.7 279.1,226.7 280.0,226.7 281.0,226.7 281.9,226.7 282.7,226.7 283.6,226.7 284.5,226.7 285.3,226.7 286.1,226.7 286.9,226.7 288.0,226.7 289.0,226.7 290.0,226.7 291.0,226.7 292.0,226.7 292.9,226.7 293.9,226.7 294.8,226.7 295.7,226.7 296.6,226.7 297.4,226.7 298.3,226.7 299.1,226.7 299.9,226.7 300.7,226.7 301.7,226.7 302.7,226.7 303.6,226.7 304.6,226.7 305.5,226.7 306.4,226.7 307.3,226.7 308.1,226.7 309.0,226.7 309.8,226.7 310.6,226.7 311.4,226.7 312.4,226.7 313.3,226.7 314.2,226.7 315.1,226.7 316.0,226.7 316.9,226.7 317.7,226.7 318.6,226.7 319.4,226.7 320.2,226.7 321.1,226.7 322.0,226.7 322.9,226.7 323.8,226.7 324.7,226.7 325.5,226.7 326.3,226.7 327.1,226.7 327.9,226.7 328.8,226.7 329.7,226.7 330.6,226.7 331.4,226.7 332.3,226.7 333.1,226.7 333.9,226.7 334.8,226.7 335.7,226.7 336.5,226.7 337.4,226.7 338.2,226.7 339.0,226.7 339.8,226.7 340.7,226.7 341.6,226.7 342.4,226.7 343.3,226.7 344.1,226.7 344.9,226.7 345.8,226.7 346.6,226.7 347.5,226.7 348.3,226.7 349.1,226.7 350.0,226.7 350.8,226.7 351.7,226.7 352.5,226.7 353.3,226.7 354.1,226.6 355.0,226.6 355.8,226.6 356.6,226.6 357.5,226.6 358.3,226.6 359.1,226.6 360.0,226.6 360.8,226.6 361.6,226.6 362.5,226.6 363.3,226.6 364.1,226.6 364.9,226.6 365.8,226.6 366.6,226.5 367.4,226.5 368.2,226.5 369.1,226.5 369.9,226.5 370.7,226.5 371.6,226.5 372.4,226.4 373.2,226.4 374.0,226.4 374.8,226.4 375.6,226.3 376.5,226.3 377.3,226.3 378.1,226.3 378.9,226.2 379.7,226.2 380.5,226.2 381.4,226.1 382.2,226.1 383.0,226.0 383.8,226.0 384.6,225.9 385.5,225.8 386.3,225.8 387.1,225.7 387.9,225.6 388.7,225.5 389.5,225.4 390.3,225.3 391.2,225.2 392.0,225.1 392.8,224.9 393.6,224.8 394.4,224.6 395.2,224.4 396.0,224.2 396.8,224.0 397.6,223.8 398.5,223.6 L398.5,284.5 L37.5,284.5 Z" fill="url(#g671)"/>
  <defs><clipPath id="pc672"><rect x="34" y="207" width="365" height="155"/></clipPath></defs>
  <polyline points="37.5,226.7 70.8,226.7 90.3,226.7 104.1,226.7 114.8,226.7 123.6,226.7 131.0,226.7 137.4,226.7 143.1,226.7 148.1,226.7 152.7,226.7 156.9,226.7 160.7,226.7 164.3,226.7 167.6,226.7 170.7,226.7 173.6,226.7 176.3,226.7 178.9,226.7 181.4,226.7 183.7,226.7 186.0,226.7 188.1,226.7 190.2,226.7 192.1,226.7 194.0,226.7 195.8,226.7 197.6,226.7 199.2,226.7 200.9,226.7 202.4,226.7 204.0,226.7 205.5,226.7 206.9,226.7 208.3,226.7 209.6,226.7 210.9,226.7 212.2,226.7 213.5,226.7 214.7,226.7 215.9,226.7 217.0,226.7 218.2,226.7 219.3,226.7 220.3,226.7 221.4,226.7 222.4,226.7 223.4,226.7 224.4,226.7 225.4,226.7 226.4,226.7 227.3,226.7 228.2,226.7 229.1,226.7 230.0,226.7 230.8,226.7 231.7,226.7 232.5,226.7 233.4,226.7 234.2,226.7 235.7,226.7 237.3,226.7 238.7,226.7 240.2,226.7 241.6,226.7 242.9,226.7 244.2,226.7 245.5,226.7 246.8,226.7 248.0,226.7 249.2,226.7 250.3,226.7 251.4,226.7 252.6,226.7 253.6,226.7 254.7,226.7 255.7,226.7 256.7,226.7 257.7,226.7 258.7,226.7 259.6,226.7 260.6,226.7 261.5,226.7 262.4,226.7 263.3,226.7 264.1,226.7 265.0,226.7 265.8,226.7 266.6,226.7 267.4,226.7 268.6,226.7 269.8,226.7 270.9,226.7 272.0,226.7 273.1,226.7 274.2,226.7 275.2,226.7 276.2,226.7 277.2,226.7 278.2,226.7 279.1,226.7 280.0,226.7 281.0,226.7 281.9,226.7 282.7,226.7 283.6,226.7 284.5,226.7 285.3,226.7 286.1,226.7 286.9,226.7 288.0,226.7 289.0,226.7 290.0,226.7 291.0,226.7 292.0,226.7 292.9,226.7 293.9,226.7 294.8,226.7 295.7,226.7 296.6,226.7 297.4,226.7 298.3,226.7 299.1,226.7 299.9,226.7 300.7,226.7 301.7,226.7 302.7,226.7 303.6,226.7 304.6,226.7 305.5,226.7 306.4,226.7 307.3,226.7 308.1,226.7 309.0,226.7 309.8,226.7 310.6,226.7 311.4,226.7 312.4,226.7 313.3,226.7 314.2,226.7 315.1,226.7 316.0,226.7 316.9,226.7 317.7,226.7 318.6,226.7 319.4,226.7 320.2,226.7 321.1,226.7 322.0,226.7 322.9,226.7 323.8,226.7 324.7,226.7 325.5,226.7 326.3,226.7 327.1,226.7 327.9,226.7 328.8,226.7 329.7,226.7 330.6,226.7 331.4,226.7 332.3,226.7 333.1,226.7 333.9,226.7 334.8,226.7 335.7,226.7 336.5,226.7 337.4,226.7 338.2,226.7 339.0,226.7 339.8,226.7 340.7,226.7 341.6,226.7 342.4,226.7 343.3,226.7 344.1,226.7 344.9,226.7 345.8,226.7 346.6,226.7 347.5,226.7 348.3,226.7 349.1,226.7 350.0,226.7 350.8,226.7 351.7,226.7 352.5,226.7 353.3,226.7 354.1,226.6 355.0,226.6 355.8,226.6 356.6,226.6 357.5,226.6 358.3,226.6 359.1,226.6 360.0,226.6 360.8,226.6 361.6,226.6 362.5,226.6 363.3,226.6 364.1,226.6 364.9,226.6 365.8,226.6 366.6,226.5 367.4,226.5 368.2,226.5 369.1,226.5 369.9,226.5 370.7,226.5 371.6,226.5 372.4,226.4 373.2,226.4 374.0,226.4 374.8,226.4 375.6,226.3 376.5,226.3 377.3,226.3 378.1,226.3 378.9,226.2 379.7,226.2 380.5,226.2 381.4,226.1 382.2,226.1 383.0,226.0 383.8,226.0 384.6,225.9 385.5,225.8 386.3,225.8 387.1,225.7 387.9,225.6 388.7,225.5 389.5,225.4 390.3,225.3 391.2,225.2 392.0,225.1 392.8,224.9 393.6,224.8 394.4,224.6 395.2,224.4 396.0,224.2 396.8,224.0 397.6,223.8 398.5,223.6" fill="none" stroke="#2ecc71" stroke-width="1.5" stroke-linejoin="round" clip-path="url(#pc672)"/>
  <line x1="435" y1="207" x2="435" y2="362" stroke="#d1d5db"/>
  <line x1="435" y1="284.5" x2="800" y2="284.5" stroke="#d1d5db"/>
  <text x="617.5" y="388" text-anchor="middle" font-size="9" fill="#6b7280">Samples</text>
  <text x="413" y="284.5" text-anchor="middle" font-size="9" fill="#6b7280" transform="rotate(-90 413 284.5)">Impulse response</text>
  <line x1="435.0" y1="207" x2="435.0" y2="362" stroke="#e5e7eb" stroke-width="0.5"/>
  <text x="435.0" y="374" text-anchor="middle" font-size="8" fill="#6b7280">0</text>
  <line x1="617.5" y1="207" x2="617.5" y2="362" stroke="#e5e7eb" stroke-width="0.5"/>
  <text x="617.5" y="374" text-anchor="middle" font-size="8" fill="#6b7280">20</text>
  <line x1="800.0" y1="207" x2="800.0" y2="362" stroke="#e5e7eb" stroke-width="0.5"/>
  <text x="800.0" y="374" text-anchor="middle" font-size="8" fill="#6b7280">40</text>
  <line x1="435" y1="344.6" x2="800" y2="344.6" stroke="#e5e7eb" stroke-width="0.5"/>
  <text x="431" y="347.6" text-anchor="end" font-size="8" fill="#6b7280">-0.6</text>
  <text x="431" y="287.5" text-anchor="end" font-size="8" fill="#6b7280">0</text>
  <line x1="435" y1="224.4" x2="800" y2="224.4" stroke="#e5e7eb" stroke-width="0.5"/>
  <text x="431" y="227.4" text-anchor="end" font-size="8" fill="#6b7280">0.6</text>
  <defs><linearGradient id="g673" x1="0" y1="207" x2="0" y2="284.5" gradientUnits="userSpaceOnUse">
    <stop offset="0%" stop-color="#f39c12" stop-opacity="0.15"/>
    <stop offset="100%" stop-color="#f39c12" stop-opacity="0.02"/>
  </linearGradient></defs>
  <defs><linearGradient id="g674" x1="0" y1="362" x2="0" y2="284.5" gradientUnits="userSpaceOnUse">
    <stop offset="0%" stop-color="#f39c12" stop-opacity="0.15"/>
    <stop offset="100%" stop-color="#f39c12" stop-opacity="0.02"/>
  </linearGradient></defs>
  <defs><clipPath id="c675"><rect x="435" y="207" width="365" height="77.5"/></clipPath></defs>
  <defs><clipPath id="c676"><rect x="435" y="284.5" width="365" height="77.5"/></clipPath></defs>
  <path d="M435.0,284.5 435.0,284.5 444.1,284.5 453.3,284.5 462.4,284.5 471.5,284.5 480.6,284.5 489.8,284.5 498.9,284.5 508.0,284.5 517.1,284.5 526.3,284.5 535.4,284.5 544.5,284.5 553.6,284.5 562.8,284.5 571.9,284.5 581.0,284.5 590.1,284.5 599.3,289.1 608.4,251.3 617.5,207.0 626.6,290.5 635.8,284.5 644.9,284.5 654.0,284.5 663.1,284.5 672.3,284.5 681.4,284.5 690.5,284.5 699.6,284.5 708.8,284.5 717.9,284.5 727.0,284.5 736.1,284.5 745.3,284.5 754.4,284.5 763.5,284.5 772.6,284.5 781.8,284.5 790.9,284.5 L790.9,284.5 L435.0,284.5 Z" fill="url(#g673)" clip-path="url(#c675)"/>
  <path d="M435.0,284.5 435.0,284.5 444.1,284.5 453.3,284.5 462.4,284.5 471.5,284.5 480.6,284.5 489.8,284.5 498.9,284.5 508.0,284.5 517.1,284.5 526.3,284.5 535.4,284.5 544.5,284.5 553.6,284.5 562.8,284.5 571.9,284.5 581.0,284.5 590.1,284.5 599.3,289.1 608.4,251.3 617.5,207.0 626.6,290.5 635.8,284.5 644.9,284.5 654.0,284.5 663.1,284.5 672.3,284.5 681.4,284.5 690.5,284.5 699.6,284.5 708.8,284.5 717.9,284.5 727.0,284.5 736.1,284.5 745.3,284.5 754.4,284.5 763.5,284.5 772.6,284.5 781.8,284.5 790.9,284.5 L790.9,284.5 L435.0,284.5 Z" fill="url(#g674)" clip-path="url(#c676)"/>
  <defs><clipPath id="pc677"><rect x="435" y="207" width="365" height="155"/></clipPath></defs>
  <polyline points="435.0,284.5 444.1,284.5 453.3,284.5 462.4,284.5 471.5,284.5 480.6,284.5 489.8,284.5 498.9,284.5 508.0,284.5 517.1,284.5 526.3,284.5 535.4,284.5 544.5,284.5 553.6,284.5 562.8,284.5 571.9,284.5 581.0,284.5 590.1,284.5 599.3,289.1 608.4,251.3 617.5,207.0 626.6,290.5 635.8,284.5 644.9,284.5 654.0,284.5 663.1,284.5 672.3,284.5 681.4,284.5 690.5,284.5 699.6,284.5 708.8,284.5 717.9,284.5 727.0,284.5 736.1,284.5 745.3,284.5 754.4,284.5 763.5,284.5 772.6,284.5 781.8,284.5 790.9,284.5" fill="none" stroke="#f39c12" stroke-width="1.3" stroke-linejoin="round" clip-path="url(#pc677)"/>
</svg>
