<svg xmlns="http://www.w3.org/2000/svg" viewBox="0 0 820 392" style="font-family:system-ui,-apple-system,sans-serif">
  <text x="800" y="11" text-anchor="end" font-size="11" font-weight="600" fill="#6b7280">firls lowpass, 63 taps</text>
  <line x1="34" y1="16" x2="34" y2="171" stroke="#d1d5db"/>
  <line x1="34" y1="47.0" x2="392" y2="47.0" stroke="#d1d5db"/>
  <text x="213" y="197" text-anchor="middle" font-size="9" fill="#6b7280">Hz</text>
  <text x="12" y="93.5" text-anchor="middle" font-size="9" fill="#6b7280" transform="rotate(-90 12 93.5)">dB</text>
  <line x1="66.6" y1="16" x2="66.6" y2="171" stroke="#e5e7eb" stroke-width="0.5"/>
  <line x1="85.7" y1="16" x2="85.7" y2="171" stroke="#e5e7eb" stroke-width="0.5"/>
  <line x1="99.3" y1="16" x2="99.3" y2="171" stroke="#e5e7eb" stroke-width="0.5"/>
  <line x1="109.8" y1="16" x2="109.8" y2="171" stroke="#e5e7eb" stroke-width="0.5"/>
  <line x1="118.4" y1="16" x2="118.4" y2="171" stroke="#e5e7eb" stroke-width="0.5"/>
  <line x1="125.7" y1="16" x2="125.7" y2="171" stroke="#e5e7eb" stroke-width="0.5"/>
  <line x1="131.9" y1="16" x2="131.9" y2="171" stroke="#e5e7eb" stroke-width="0.5"/>
  <line x1="137.5" y1="16" x2="137.5" y2="171" stroke="#e5e7eb" stroke-width="0.5"/>
  <line x1="175.1" y1="16" x2="175.1" y2="171" stroke="#e5e7eb" stroke-width="0.5"/>
  <line x1="194.2" y1="16" x2="194.2" y2="171" stroke="#e5e7eb" stroke-width="0.5"/>
  <line x1="207.7" y1="16" x2="207.7" y2="171" stroke="#e5e7eb" stroke-width="0.5"/>
  <line x1="218.3" y1="16" x2="218.3" y2="171" stroke="#e5e7eb" stroke-width="0.5"/>
  <line x1="226.8" y1="16" x2="226.8" y2="171" stroke="#e5e7eb" stroke-width="0.5"/>
  <line x1="234.1" y1="16" x2="234.1" y2="171" stroke="#e5e7eb" stroke-width="0.5"/>
  <line x1="240.4" y1="16" x2="240.4" y2="171" stroke="#e5e7eb" stroke-width="0.5"/>
  <line x1="245.9" y1="16" x2="245.9" y2="171" stroke="#e5e7eb" stroke-width="0.5"/>
  <line x1="283.5" y1="16" x2="283.5" y2="171" stroke="#e5e7eb" stroke-width="0.5"/>
  <line x1="302.6" y1="16" x2="302.6" y2="171" stroke="#e5e7eb" stroke-width="0.5"/>
  <line x1="316.2" y1="16" x2="316.2" y2="171" stroke="#e5e7eb" stroke-width="0.5"/>
  <line x1="326.7" y1="16" x2="326.7" y2="171" stroke="#e5e7eb" stroke-width="0.5"/>
  <line x1="335.3" y1="16" x2="335.3" y2="171" stroke="#e5e7eb" stroke-width="0.5"/>
  <line x1="342.6" y1="16" x2="342.6" y2="171" stroke="#e5e7eb" stroke-width="0.5"/>
  <line x1="348.8" y1="16" x2="348.8" y2="171" stroke="#e5e7eb" stroke-width="0.5"/>
  <line x1="354.4" y1="16" x2="354.4" y2="171" stroke="#e5e7eb" stroke-width="0.5"/>
  <line x1="392.0" y1="16" x2="392.0" y2="171" stroke="#e5e7eb" stroke-width="0.5"/>
  <line x1="142.5" y1="16" x2="142.5" y2="171" stroke="#e5e7eb" stroke-width="0.5"/>
  <text x="142.5" y="183" text-anchor="middle" font-size="8" fill="#6b7280">100</text>
  <line x1="250.9" y1="16" x2="250.9" y2="171" stroke="#e5e7eb" stroke-width="0.5"/>
  <text x="250.9" y="183" text-anchor="middle" font-size="8" fill="#6b7280">1k</text>
  <line x1="359.4" y1="16" x2="359.4" y2="171" stroke="#e5e7eb" stroke-width="0.5"/>
  <text x="359.4" y="183" text-anchor="middle" font-size="8" fill="#6b7280">10k</text>
  <line x1="34" y1="31.5" x2="392" y2="31.5" stroke="#e5e7eb" stroke-width="0.5"/>
  <line x1="34" y1="62.5" x2="392" y2="62.5" stroke="#e5e7eb" stroke-width="0.5"/>
  <line x1="34" y1="16.0" x2="392" y2="16.0" stroke="#e5e7eb" stroke-width="0.5"/>
  <text x="30" y="19.0" text-anchor="end" font-size="8" fill="#6b7280">+20</text>
  <text x="30" y="50.0" text-anchor="end" font-size="8" fill="#6b7280">0</text>
  <line x1="34" y1="78.0" x2="392" y2="78.0" stroke="#e5e7eb" stroke-width="0.5"/>
  <text x="30" y="81.0" text-anchor="end" font-size="8" fill="#6b7280">-20</text>
  <line x1="34" y1="109.0" x2="392" y2="109.0" stroke="#e5e7eb" stroke-width="0.5"/>
  <text x="30" y="112.0" text-anchor="end" font-size="8" fill="#6b7280">-40</text>
  <line x1="34" y1="140.0" x2="392" y2="140.0" stroke="#e5e7eb" stroke-width="0.5"/>
  <text x="30" y="143.0" text-anchor="end" font-size="8" fill="#6b7280">-60</text>
  <line x1="34" y1="171.0" x2="392" y2="171.0" stroke="#e5e7eb" stroke-width="0.5"/>
  <text x="30" y="174.0" text-anchor="end" font-size="8" fill="#6b7280">-80</text>
  <defs><linearGradient id="g308" x1="0" y1="16" x2="0" y2="171" gradientUnits="userSpaceOnUse">
    <stop offset="0%" stop-color="#4a90d9" stop-opacity="0.15"/>
    <stop offset="100%" stop-color="#4a90d9" stop-opacity="0.02"/>
  </linearGradient></defs>
  <path d="M37.5,47.0 37.5,47.0 70.1,47.0 89.2,47.0 102.8,47.0 113.3,47.0 121.9,47.0 129.1,47.0 135.4,47.0 141.0,47.0 145.9,47.0 150.4,47.0 154.5,47.0 158.3,47.0 161.8,47.0 165.0,47.0 168.1,47.0 170.9,47.0 173.6,47.0 176.2,47.0 178.6,47.0 180.9,47.0 183.1,47.0 185.2,47.0 187.2,47.0 189.1,47.0 190.9,47.0 192.7,47.0 194.4,47.0 196.1,47.0 197.7,47.0 199.2,47.0 200.7,47.0 202.2,47.0 203.6,47.0 204.9,47.0 206.3,47.0 207.6,47.0 208.8,47.0 210.0,47.0 211.2,47.0 212.4,47.0 213.5,47.0 214.6,47.0 215.7,47.0 216.8,47.0 217.8,47.0 218.8,47.0 219.8,47.0 220.8,47.0 221.7,47.0 222.7,47.0 223.6,47.0 224.5,47.0 225.4,47.0 226.2,47.0 227.1,47.0 227.9,47.0 228.7,47.0 229.5,47.0 231.1,47.0 232.6,47.0 234.1,47.0 235.5,47.0 236.9,47.0 238.2,47.0 239.6,47.0 240.8,47.0 242.1,47.0 243.3,47.0 244.5,47.0 245.6,47.0 246.7,47.0 247.8,47.0 248.9,47.0 249.9,47.0 251.0,47.0 252.0,47.0 252.9,47.0 253.9,47.0 254.8,47.0 255.8,47.0 256.7,47.0 257.6,47.0 258.4,47.0 259.3,47.0 260.1,47.0 261.0,47.0 261.8,47.0 263.0,47.0 264.1,47.0 265.3,47.0 266.4,47.0 267.5,47.0 268.5,47.0 269.6,47.0 270.6,47.0 271.6,47.0 272.5,47.0 273.5,47.0 274.4,47.0 275.3,47.0 276.2,47.0 277.1,47.0 278.0,47.0 278.8,47.0 279.6,47.0 280.5,47.0 281.3,47.0 282.3,47.0 283.4,47.0 284.4,47.0 285.3,47.0 286.3,47.0 287.3,47.0 288.2,47.0 289.1,47.0 290.0,47.0 290.9,47.0 291.7,47.0 292.6,47.0 293.4,47.0 294.2,47.0 295.0,47.0 296.0,47.0 297.0,47.0 297.9,47.0 298.8,47.0 299.7,47.0 300.6,47.0 301.5,47.0 302.4,47.0 303.2,47.0 304.0,47.0 304.9,47.0 305.8,47.0 306.7,47.0 307.7,47.0 308.6,47.0 309.5,47.0 310.3,47.0 311.2,47.0 312.0,47.0 312.8,47.0 313.7,47.0 314.6,47.0 315.5,47.0 316.4,47.0 317.3,47.0 318.1,47.0 319.0,47.0 319.8,47.0 320.6,47.0 321.4,47.0 322.3,47.0 323.2,47.0 324.1,47.0 324.9,47.0 325.7,47.0 326.6,47.0 327.4,47.0 328.3,47.0 329.1,47.0 330.0,47.0 330.8,47.0 331.7,47.0 332.5,47.0 333.3,47.0 334.2,47.0 335.0,47.0 335.9,47.0 336.7,47.0 337.5,47.0 338.4,47.0 339.2,47.0 340.1,47.1 340.9,47.3 341.7,47.6 342.5,48.1 343.4,48.9 344.2,49.9 345.1,51.3 345.9,53.1 346.7,55.3 347.6,58.3 348.4,61.9 349.2,66.4 350.0,71.7 350.9,78.8 351.7,87.8 352.6,99.7 353.4,118.2 354.2,141.8 355.1,135.7 355.9,169.5 356.7,142.2 357.6,142.0 358.4,162.9 359.2,149.7 360.0,145.2 360.9,154.4 361.7,162.5 362.5,149.4 363.3,152.7 364.2,171.0 365.0,154.7 365.8,153.4 366.6,170.2 367.4,161.0 368.3,155.6 369.1,166.5 369.9,166.8 370.7,158.2 371.5,167.5 372.4,170.2 373.2,160.8 374.0,171.0 374.8,170.5 375.6,163.5 376.4,171.0 377.2,168.7 378.1,167.5 378.9,171.0 379.7,168.0 380.5,171.0 381.3,171.0 382.1,171.0 383.0,171.0 383.8,171.0 384.6,171.0 385.4,171.0 386.2,171.0 387.0,171.0 387.9,171.0 388.7,171.0 389.5,171.0 390.3,171.0 391.1,171.0 391.9,171.0 L391.9,171.0 L37.5,171.0 Z" fill="url(#g308)"/>
  <defs><clipPath id="pc309"><rect x="34" y="16" width="358" height="155"/></clipPath></defs>
  <polyline points="37.5,47.0 70.1,47.0 89.2,47.0 102.8,47.0 113.3,47.0 121.9,47.0 129.1,47.0 135.4,47.0 141.0,47.0 145.9,47.0 150.4,47.0 154.5,47.0 158.3,47.0 161.8,47.0 165.0,47.0 168.1,47.0 170.9,47.0 173.6,47.0 176.2,47.0 178.6,47.0 180.9,47.0 183.1,47.0 185.2,47.0 187.2,47.0 189.1,47.0 190.9,47.0 192.7,47.0 194.4,47.0 196.1,47.0 197.7,47.0 199.2,47.0 200.7,47.0 202.2,47.0 203.6,47.0 204.9,47.0 206.3,47.0 207.6,47.0 208.8,47.0 210.0,47.0 211.2,47.0 212.4,47.0 213.5,47.0 214.6,47.0 215.7,47.0 216.8,47.0 217.8,47.0 218.8,47.0 219.8,47.0 220.8,47.0 221.7,47.0 222.7,47.0 223.6,47.0 224.5,47.0 225.4,47.0 226.2,47.0 227.1,47.0 227.9,47.0 228.7,47.0 229.5,47.0 231.1,47.0 232.6,47.0 234.1,47.0 235.5,47.0 236.9,47.0 238.2,47.0 239.6,47.0 240.8,47.0 242.1,47.0 243.3,47.0 244.5,47.0 245.6,47.0 246.7,47.0 247.8,47.0 248.9,47.0 249.9,47.0 251.0,47.0 252.0,47.0 252.9,47.0 253.9,47.0 254.8,47.0 255.8,47.0 256.7,47.0 257.6,47.0 258.4,47.0 259.3,47.0 260.1,47.0 261.0,47.0 261.8,47.0 263.0,47.0 264.1,47.0 265.3,47.0 266.4,47.0 267.5,47.0 268.5,47.0 269.6,47.0 270.6,47.0 271.6,47.0 272.5,47.0 273.5,47.0 274.4,47.0 275.3,47.0 276.2,47.0 277.1,47.0 278.0,47.0 278.8,47.0 279.6,47.0 280.5,47.0 281.3,47.0 282.3,47.0 283.4,47.0 284.4,47.0 285.3,47.0 286.3,47.0 287.3,47.0 288.2,47.0 289.1,47.0 290.0,47.0 290.9,47.0 291.7,47.0 292.6,47.0 293.4,47.0 294.2,47.0 295.0,47.0 296.0,47.0 297.0,47.0 297.9,47.0 298.8,47.0 299.7,47.0 300.6,47.0 301.5,47.0 302.4,47.0 303.2,47.0 304.0,47.0 304.9,47.0 305.8,47.0 306.7,47.0 307.7,47.0 308.6,47.0 309.5,47.0 310.3,47.0 311.2,47.0 312.0,47.0 312.8,47.0 313.7,47.0 314.6,47.0 315.5,47.0 316.4,47.0 317.3,47.0 318.1,47.0 319.0,47.0 319.8,47.0 320.6,47.0 321.4,47.0 322.3,47.0 323.2,47.0 324.1,47.0 324.9,47.0 325.7,47.0 326.6,47.0 327.4,47.0 328.3,47.0 329.1,47.0 330.0,47.0 330.8,47.0 331.7,47.0 332.5,47.0 333.3,47.0 334.2,47.0 335.0,47.0 335.9,47.0 336.7,47.0 337.5,47.0 338.4,47.0 339.2,47.0 340.1,47.1 340.9,47.3 341.7,47.6 342.5,48.1 343.4,48.9 344.2,49.9 345.1,51.3 345.9,53.1 346.7,55.3 347.6,58.3 348.4,61.9 349.2,66.4 350.0,71.7 350.9,78.8 351.7,87.8 352.6,99.7 353.4,118.2 354.2,141.8 355.1,135.7 355.9,169.5 356.7,142.2 357.6,142.0 358.4,162.9 359.2,149.7 360.0,145.2 360.9,154.4 361.7,162.5 362.5,149.4 363.3,152.7 364.2,227.4 365.0,154.7 365.8,153.4 366.6,170.2 367.4,161.0 368.3,155.6 369.1,166.5 369.9,166.8 370.7,158.2 371.5,167.5 372.4,170.2 373.2,160.8 374.0,171.2 374.8,170.5 375.6,163.5 376.4,181.7 377.2,168.7 378.1,167.5 378.9,197.9 379.7,168.0 380.5,176.9 381.3,176.0 382.1,171.4 383.0,203.7 383.8,172.5 384.6,186.6 385.4,176.8 386.2,180.6 387.0,183.1 387.9,180.1 388.7,190.3 389.5,181.8 390.3,196.5 391.1,184.9 391.9,199.2" fill="none" stroke="#4a90d9" stroke-width="1.5" stroke-linejoin="round" clip-path="url(#pc309)"/>
  <line x1="442" y1="16" x2="442" y2="171" stroke="#d1d5db"/>
  <line x1="442" y1="93.5" x2="800" y2="93.5" stroke="#d1d5db"/>
  <text x="621" y="197" text-anchor="middle" font-size="9" fill="#6b7280">Hz</text>
  <text x="420" y="93.5" text-anchor="middle" font-size="9" fill="#6b7280" transform="rotate(-90 420 93.5)">Phase (deg)</text>
  <line x1="474.6" y1="16" x2="474.6" y2="171" stroke="#e5e7eb" stroke-width="0.5"/>
  <line x1="493.7" y1="16" x2="493.7" y2="171" stroke="#e5e7eb" stroke-width="0.5"/>
  <line x1="507.3" y1="16" x2="507.3" y2="171" stroke="#e5e7eb" stroke-width="0.5"/>
  <line x1="517.8" y1="16" x2="517.8" y2="171" stroke="#e5e7eb" stroke-width="0.5"/>
  <line x1="526.4" y1="16" x2="526.4" y2="171" stroke="#e5e7eb" stroke-width="0.5"/>
  <line x1="533.7" y1="16" x2="533.7" y2="171" stroke="#e5e7eb" stroke-width="0.5"/>
  <line x1="539.9" y1="16" x2="539.9" y2="171" stroke="#e5e7eb" stroke-width="0.5"/>
  <line x1="545.5" y1="16" x2="545.5" y2="171" stroke="#e5e7eb" stroke-width="0.5"/>
  <line x1="583.1" y1="16" x2="583.1" y2="171" stroke="#e5e7eb" stroke-width="0.5"/>
  <line x1="602.2" y1="16" x2="602.2" y2="171" stroke="#e5e7eb" stroke-width="0.5"/>
  <line x1="615.7" y1="16" x2="615.7" y2="171" stroke="#e5e7eb" stroke-width="0.5"/>
  <line x1="626.3" y1="16" x2="626.3" y2="171" stroke="#e5e7eb" stroke-width="0.5"/>
  <line x1="634.8" y1="16" x2="634.8" y2="171" stroke="#e5e7eb" stroke-width="0.5"/>
  <line x1="642.1" y1="16" x2="642.1" y2="171" stroke="#e5e7eb" stroke-width="0.5"/>
  <line x1="648.4" y1="16" x2="648.4" y2="171" stroke="#e5e7eb" stroke-width="0.5"/>
  <line x1="653.9" y1="16" x2="653.9" y2="171" stroke="#e5e7eb" stroke-width="0.5"/>
  <line x1="691.5" y1="16" x2="691.5" y2="171" stroke="#e5e7eb" stroke-width="0.5"/>
  <line x1="710.6" y1="16" x2="710.6" y2="171" stroke="#e5e7eb" stroke-width="0.5"/>
  <line x1="724.2" y1="16" x2="724.2" y2="171" stroke="#e5e7eb" stroke-width="0.5"/>
  <line x1="734.7" y1="16" x2="734.7" y2="171" stroke="#e5e7eb" stroke-width="0.5"/>
  <line x1="743.3" y1="16" x2="743.3" y2="171" stroke="#e5e7eb" stroke-width="0.5"/>
  <line x1="750.6" y1="16" x2="750.6" y2="171" stroke="#e5e7eb" stroke-width="0.5"/>
  <line x1="756.8" y1="16" x2="756.8" y2="171" stroke="#e5e7eb" stroke-width="0.5"/>
  <line x1="762.4" y1="16" x2="762.4" y2="171" stroke="#e5e7eb" stroke-width="0.5"/>
  <line x1="800.0" y1="16" x2="800.0" y2="171" stroke="#e5e7eb" stroke-width="0.5"/>
  <line x1="550.5" y1="16" x2="550.5" y2="171" stroke="#e5e7eb" stroke-width="0.5"/>
  <text x="550.5" y="183" text-anchor="middle" font-size="8" fill="#6b7280">100</text>
  <line x1="658.9" y1="16" x2="658.9" y2="171" stroke="#e5e7eb" stroke-width="0.5"/>
  <text x="658.9" y="183" text-anchor="middle" font-size="8" fill="#6b7280">1k</text>
  <line x1="767.4" y1="16" x2="767.4" y2="171" stroke="#e5e7eb" stroke-width="0.5"/>
  <text x="767.4" y="183" text-anchor="middle" font-size="8" fill="#6b7280">10k</text>
  <line x1="442" y1="54.8" x2="800" y2="54.8" stroke="#e5e7eb" stroke-width="0.5"/>
  <line x1="442" y1="132.3" x2="800" y2="132.3" stroke="#e5e7eb" stroke-width="0.5"/>
  <line x1="442" y1="16.0" x2="800" y2="16.0" stroke="#e5e7eb" stroke-width="0.5"/>
  <text x="438" y="19.0" text-anchor="end" font-size="8" fill="#6b7280">180</text>
  <text x="438" y="96.5" text-anchor="end" font-size="8" fill="#6b7280">0</text>
  <line x1="442" y1="171.0" x2="800" y2="171.0" stroke="#e5e7eb" stroke-width="0.5"/>
  <text x="438" y="174.0" text-anchor="end" font-size="8" fill="#6b7280">-180</text>
  <defs><linearGradient id="g310" x1="0" y1="16" x2="0" y2="93.5" gradientUnits="userSpaceOnUse">
    <stop offset="0%" stop-color="#e74c3c" stop-opacity="0.15"/>
    <stop offset="100%" stop-color="#e74c3c" stop-opacity="0.02"/>
  </linearGradient></defs>
  <defs><linearGradient id="g311" x1="0" y1="171" x2="0" y2="93.5" gradientUnits="userSpaceOnUse">
    <stop offset="0%" stop-color="#e74c3c" stop-opacity="0.15"/>
    <stop offset="100%" stop-color="#e74c3c" stop-opacity="0.02"/>
  </linearGradient></defs>
  <defs><clipPath id="c312"><rect x="442" y="16" width="358" height="77.5"/></clipPath></defs>
  <defs><clipPath id="c313"><rect x="442" y="93.5" width="358" height="77.5"/></clipPath></defs>
  <path d="M445.5,94.7 445.5,94.7 478.1,95.8 497.2,97.0 510.8,98.2 521.3,99.4 529.9,100.5 537.1,101.7 543.4,102.9 549.0,104.1 553.9,105.2 558.4,106.4 562.5,107.6 566.3,108.8 569.8,109.9 573.0,111.1 576.1,112.3 578.9,113.4 581.6,114.6 584.2,115.8 586.6,117.0 588.9,118.1 591.1,119.3 593.2,120.5 595.2,121.7 597.1,122.8 598.9,124.0 600.7,125.2 602.4,126.3 604.1,127.5 605.7,128.7 607.2,129.9 608.7,131.0 610.2,132.2 611.6,133.4 612.9,134.6 614.3,135.7 615.6,136.9 616.8,138.1 618.0,139.3 619.2,140.4 620.4,141.6 621.5,142.8 622.6,143.9 623.7,145.1 624.8,146.3 625.8,147.5 626.8,148.6 627.8,149.8 628.8,151.0 629.7,152.2 630.7,153.3 631.6,154.5 632.5,155.7 633.4,156.8 634.2,158.0 635.1,159.2 635.9,160.4 636.7,161.5 637.5,162.7 639.1,165.1 640.6,167.4 642.1,169.8 643.5,17.1 644.9,19.4 646.2,21.8 647.6,24.1 648.8,26.5 650.1,28.8 651.3,31.2 652.5,33.5 653.6,35.9 654.7,38.2 655.8,40.6 656.9,42.9 657.9,45.3 659.0,47.6 660.0,49.9 660.9,52.3 661.9,54.6 662.8,57.0 663.8,59.3 664.7,61.7 665.6,64.0 666.4,66.4 667.3,68.7 668.1,71.1 669.0,73.4 669.8,75.8 671.0,79.3 672.1,82.8 673.3,86.3 674.4,89.8 675.5,93.3 676.5,96.9 677.6,100.4 678.6,103.9 679.6,107.4 680.5,110.9 681.5,114.5 682.4,118.0 683.3,121.5 684.2,125.0 685.1,128.5 686.0,132.1 686.8,135.6 687.6,139.1 688.5,142.6 689.3,146.1 690.3,150.8 691.4,155.5 692.4,160.2 693.3,164.9 694.3,169.6 695.3,19.3 696.2,24.0 697.1,28.7 698.0,33.4 698.9,38.1 699.7,42.8 700.6,47.4 701.4,52.1 702.2,56.8 703.0,61.5 704.0,67.4 705.0,73.3 705.9,79.1 706.8,85.0 707.7,90.9 708.6,96.7 709.5,102.6 710.4,108.4 711.2,114.3 712.0,120.2 712.9,126.0 713.8,133.1 714.7,140.1 715.7,147.2 716.6,154.2 717.5,161.2 718.3,168.3 719.2,20.3 720.0,27.4 720.8,34.4 721.7,41.4 722.6,49.6 723.5,57.9 724.4,66.1 725.3,74.3 726.1,82.5 727.0,90.7 727.8,98.9 728.6,107.1 729.4,115.3 730.3,124.7 731.2,134.1 732.1,143.5 732.9,152.9 733.7,162.3 734.6,16.6 735.4,26.0 736.3,36.6 737.1,47.1 738.0,57.7 738.8,68.3 739.7,78.8 740.5,89.4 741.3,99.9 742.2,111.7 743.0,123.4 743.9,135.1 744.7,146.9 745.5,158.6 746.4,16.5 747.2,29.4 748.1,42.3 748.9,55.2 749.7,68.1 750.5,81.0 751.4,95.1 752.2,109.2 753.1,123.2 753.9,137.3 754.7,151.4 755.6,166.6 756.4,26.9 757.2,42.1 758.0,57.4 758.9,73.8 759.7,90.2 760.6,106.7 761.4,123.1 762.2,63.2 763.1,80.8 763.9,98.4 764.7,38.5 765.6,57.2 766.4,76.0 767.2,17.3 768.0,36.1 768.9,56.0 769.7,153.4 770.5,18.4 771.3,39.5 772.2,138.1 773.0,159.2 773.8,25.3 774.6,47.6 775.4,147.4 776.3,169.7 777.1,38.2 777.9,139.1 778.7,162.6 779.5,32.2 780.4,134.4 781.2,159.0 782.0,29.8 782.8,133.1 783.6,160.1 784.4,32.1 785.2,136.6 786.1,164.7 786.9,115.4 787.7,144.7 788.5,19.0 789.3,125.9 790.1,156.4 791.0,109.4 791.8,141.0 792.6,17.7 793.4,128.0 794.2,160.9 795.0,117.4 795.9,151.4 796.7,109.1 797.5,144.3 798.3,103.2 799.1,139.6 799.9,99.6 L799.9,93.5 L445.5,93.5 Z" fill="url(#g310)" clip-path="url(#c312)"/>
  <path d="M445.5,94.7 445.5,94.7 478.1,95.8 497.2,97.0 510.8,98.2 521.3,99.4 529.9,100.5 537.1,101.7 543.4,102.9 549.0,104.1 553.9,105.2 558.4,106.4 562.5,107.6 566.3,108.8 569.8,109.9 573.0,111.1 576.1,112.3 578.9,113.4 581.6,114.6 584.2,115.8 586.6,117.0 588.9,118.1 591.1,119.3 593.2,120.5 595.2,121.7 597.1,122.8 598.9,124.0 600.7,125.2 602.4,126.3 604.1,127.5 605.7,128.7 607.2,129.9 608.7,131.0 610.2,132.2 611.6,133.4 612.9,134.6 614.3,135.7 615.6,136.9 616.8,138.1 618.0,139.3 619.2,140.4 620.4,141.6 621.5,142.8 622.6,143.9 623.7,145.1 624.8,146.3 625.8,147.5 626.8,148.6 627.8,149.8 628.8,151.0 629.7,152.2 630.7,153.3 631.6,154.5 632.5,155.7 633.4,156.8 634.2,158.0 635.1,159.2 635.9,160.4 636.7,161.5 637.5,162.7 639.1,165.1 640.6,167.4 642.1,169.8 643.5,17.1 644.9,19.4 646.2,21.8 647.6,24.1 648.8,26.5 650.1,28.8 651.3,31.2 652.5,33.5 653.6,35.9 654.7,38.2 655.8,40.6 656.9,42.9 657.9,45.3 659.0,47.6 660.0,49.9 660.9,52.3 661.9,54.6 662.8,57.0 663.8,59.3 664.7,61.7 665.6,64.0 666.4,66.4 667.3,68.7 668.1,71.1 669.0,73.4 669.8,75.8 671.0,79.3 672.1,82.8 673.3,86.3 674.4,89.8 675.5,93.3 676.5,96.9 677.6,100.4 678.6,103.9 679.6,107.4 680.5,110.9 681.5,114.5 682.4,118.0 683.3,121.5 684.2,125.0 685.1,128.5 686.0,132.1 686.8,135.6 687.6,139.1 688.5,142.6 689.3,146.1 690.3,150.8 691.4,155.5 692.4,160.2 693.3,164.9 694.3,169.6 695.3,19.3 696.2,24.0 697.1,28.7 698.0,33.4 698.9,38.1 699.7,42.8 700.6,47.4 701.4,52.1 702.2,56.8 703.0,61.5 704.0,67.4 705.0,73.3 705.9,79.1 706.8,85.0 707.7,90.9 708.6,96.7 709.5,102.6 710.4,108.4 711.2,114.3 712.0,120.2 712.9,126.0 713.8,133.1 714.7,140.1 715.7,147.2 716.6,154.2 717.5,161.2 718.3,168.3 719.2,20.3 720.0,27.4 720.8,34.4 721.7,41.4 722.6,49.6 723.5,57.9 724.4,66.1 725.3,74.3 726.1,82.5 727.0,90.7 727.8,98.9 728.6,107.1 729.4,115.3 730.3,124.7 731.2,134.1 732.1,143.5 732.9,152.9 733.7,162.3 734.6,16.6 735.4,26.0 736.3,36.6 737.1,47.1 738.0,57.7 738.8,68.3 739.7,78.8 740.5,89.4 741.3,99.9 742.2,111.7 743.0,123.4 743.9,135.1 744.7,146.9 745.5,158.6 746.4,16.5 747.2,29.4 748.1,42.3 748.9,55.2 749.7,68.1 750.5,81.0 751.4,95.1 752.2,109.2 753.1,123.2 753.9,137.3 754.7,151.4 755.6,166.6 756.4,26.9 757.2,42.1 758.0,57.4 758.9,73.8 759.7,90.2 760.6,106.7 761.4,123.1 762.2,63.2 763.1,80.8 763.9,98.4 764.7,38.5 765.6,57.2 766.4,76.0 767.2,17.3 768.0,36.1 768.9,56.0 769.7,153.4 770.5,18.4 771.3,39.5 772.2,138.1 773.0,159.2 773.8,25.3 774.6,47.6 775.4,147.4 776.3,169.7 777.1,38.2 777.9,139.1 778.7,162.6 779.5,32.2 780.4,134.4 781.2,159.0 782.0,29.8 782.8,133.1 783.6,160.1 784.4,32.1 785.2,136.6 786.1,164.7 786.9,115.4 787.7,144.7 788.5,19.0 789.3,125.9 790.1,156.4 791.0,109.4 791.8,141.0 792.6,17.7 793.4,128.0 794.2,160.9 795.0,117.4 795.9,151.4 796.7,109.1 797.5,144.3 798.3,103.2 799.1,139.6 799.9,99.6 L799.9,93.5 L445.5,93.5 Z" fill="url(#g311)" clip-path="url(#c313)"/>
  <defs><clipPath id="pc314"><rect x="442" y="16" width="358" height="155"/></clipPath></defs>
  <polyline points="445.5,94.7 478.1,95.8 497.2,97.0 510.8,98.2 521.3,99.4 529.9,100.5 537.1,101.7 543.4,102.9 549.0,104.1 553.9,105.2 558.4,106.4 562.5,107.6 566.3,108.8 569.8,109.9 573.0,111.1 576.1,112.3 578.9,113.4 581.6,114.6 584.2,115.8 586.6,117.0 588.9,118.1 591.1,119.3 593.2,120.5 595.2,121.7 597.1,122.8 598.9,124.0 600.7,125.2 602.4,126.3 604.1,127.5 605.7,128.7 607.2,129.9 608.7,131.0 610.2,132.2 611.6,133.4 612.9,134.6 614.3,135.7 615.6,136.9 616.8,138.1 618.0,139.3 619.2,140.4 620.4,141.6 621.5,142.8 622.6,143.9 623.7,145.1 624.8,146.3 625.8,147.5 626.8,148.6 627.8,149.8 628.8,151.0 629.7,152.2 630.7,153.3 631.6,154.5 632.5,155.7 633.4,156.8 634.2,158.0 635.1,159.2 635.9,160.4 636.7,161.5 637.5,162.7 639.1,165.1 640.6,167.4 642.1,169.8 643.5,17.1 644.9,19.4 646.2,21.8 647.6,24.1 648.8,26.5 650.1,28.8 651.3,31.2 652.5,33.5 653.6,35.9 654.7,38.2 655.8,40.6 656.9,42.9 657.9,45.3 659.0,47.6 660.0,49.9 660.9,52.3 661.9,54.6 662.8,57.0 663.8,59.3 664.7,61.7 665.6,64.0 666.4,66.4 667.3,68.7 668.1,71.1 669.0,73.4 669.8,75.8 671.0,79.3 672.1,82.8 673.3,86.3 674.4,89.8 675.5,93.3 676.5,96.9 677.6,100.4 678.6,103.9 679.6,107.4 680.5,110.9 681.5,114.5 682.4,118.0 683.3,121.5 684.2,125.0 685.1,128.5 686.0,132.1 686.8,135.6 687.6,139.1 688.5,142.6 689.3,146.1 690.3,150.8 691.4,155.5 692.4,160.2 693.3,164.9 694.3,169.6 695.3,19.3 696.2,24.0 697.1,28.7 698.0,33.4 698.9,38.1 699.7,42.8 700.6,47.4 701.4,52.1 702.2,56.8 703.0,61.5 704.0,67.4 705.0,73.3 705.9,79.1 706.8,85.0 707.7,90.9 708.6,96.7 709.5,102.6 710.4,108.4 711.2,114.3 712.0,120.2 712.9,126.0 713.8,133.1 714.7,140.1 715.7,147.2 716.6,154.2 717.5,161.2 718.3,168.3 719.2,20.3 720.0,27.4 720.8,34.4 721.7,41.4 722.6,49.6 723.5,57.9 724.4,66.1 725.3,74.3 726.1,82.5 727.0,90.7 727.8,98.9 728.6,107.1 729.4,115.3 730.3,124.7 731.2,134.1 732.1,143.5 732.9,152.9 733.7,162.3 734.6,16.6 735.4,26.0 736.3,36.6 737.1,47.1 738.0,57.7 738.8,68.3 739.7,78.8 740.5,89.4 741.3,99.9 742.2,111.7 743.0,123.4 743.9,135.1 744.7,146.9 745.5,158.6 746.4,16.5 747.2,29.4 748.1,42.3 748.9,55.2 749.7,68.1 750.5,81.0 751.4,95.1 752.2,109.2 753.1,123.2 753.9,137.3 754.7,151.4 755.6,166.6 756.4,26.9 757.2,42.1 758.0,57.4 758.9,73.8 759.7,90.2 760.6,106.7 761.4,123.1 762.2,63.2 763.1,80.8 763.9,98.4 764.7,38.5 765.6,57.2 766.4,76.0 767.2,17.3 768.0,36.1 768.9,56.0 769.7,153.4 770.5,18.4 771.3,39.5 772.2,138.1 773.0,159.2 773.8,25.3 774.6,47.6 775.4,147.4 776.3,169.7 777.1,38.2 777.9,139.1 778.7,162.6 779.5,32.2 780.4,134.4 781.2,159.0 782.0,29.8 782.8,133.1 783.6,160.1 784.4,32.1 785.2,136.6 786.1,164.7 786.9,115.4 787.7,144.7 788.5,19.0 789.3,125.9 790.1,156.4 791.0,109.4 791.8,141.0 792.6,17.7 793.4,128.0 794.2,160.9 795.0,117.4 795.9,151.4 796.7,109.1 797.5,144.3 798.3,103.2 799.1,139.6 799.9,99.6" fill="none" stroke="#e74c3c" stroke-width="1.5" stroke-linejoin="round" clip-path="url(#pc314)"/>
  <line x1="34" y1="221" x2="34" y2="376" stroke="#d1d5db"/>
  <line x1="34" y1="298.5" x2="392" y2="298.5" stroke="#d1d5db"/>
  <text x="213" y="402" text-anchor="middle" font-size="9" fill="#6b7280">Hz</text>
  <text x="12" y="298.5" text-anchor="middle" font-size="9" fill="#6b7280" transform="rotate(-90 12 298.5)">Group delay</text>
  <line x1="66.6" y1="221" x2="66.6" y2="376" stroke="#e5e7eb" stroke-width="0.5"/>
  <line x1="85.7" y1="221" x2="85.7" y2="376" stroke="#e5e7eb" stroke-width="0.5"/>
  <line x1="99.3" y1="221" x2="99.3" y2="376" stroke="#e5e7eb" stroke-width="0.5"/>
  <line x1="109.8" y1="221" x2="109.8" y2="376" stroke="#e5e7eb" stroke-width="0.5"/>
  <line x1="118.4" y1="221" x2="118.4" y2="376" stroke="#e5e7eb" stroke-width="0.5"/>
  <line x1="125.7" y1="221" x2="125.7" y2="376" stroke="#e5e7eb" stroke-width="0.5"/>
  <line x1="131.9" y1="221" x2="131.9" y2="376" stroke="#e5e7eb" stroke-width="0.5"/>
  <line x1="137.5" y1="221" x2="137.5" y2="376" stroke="#e5e7eb" stroke-width="0.5"/>
  <line x1="175.1" y1="221" x2="175.1" y2="376" stroke="#e5e7eb" stroke-width="0.5"/>
  <line x1="194.2" y1="221" x2="194.2" y2="376" stroke="#e5e7eb" stroke-width="0.5"/>
  <line x1="207.7" y1="221" x2="207.7" y2="376" stroke="#e5e7eb" stroke-width="0.5"/>
  <line x1="218.3" y1="221" x2="218.3" y2="376" stroke="#e5e7eb" stroke-width="0.5"/>
  <line x1="226.8" y1="221" x2="226.8" y2="376" stroke="#e5e7eb" stroke-width="0.5"/>
  <line x1="234.1" y1="221" x2="234.1" y2="376" stroke="#e5e7eb" stroke-width="0.5"/>
  <line x1="240.4" y1="221" x2="240.4" y2="376" stroke="#e5e7eb" stroke-width="0.5"/>
  <line x1="245.9" y1="221" x2="245.9" y2="376" stroke="#e5e7eb" stroke-width="0.5"/>
  <line x1="283.5" y1="221" x2="283.5" y2="376" stroke="#e5e7eb" stroke-width="0.5"/>
  <line x1="302.6" y1="221" x2="302.6" y2="376" stroke="#e5e7eb" stroke-width="0.5"/>
  <line x1="316.2" y1="221" x2="316.2" y2="376" stroke="#e5e7eb" stroke-width="0.5"/>
  <line x1="326.7" y1="221" x2="326.7" y2="376" stroke="#e5e7eb" stroke-width="0.5"/>
  <line x1="335.3" y1="221" x2="335.3" y2="376" stroke="#e5e7eb" stroke-width="0.5"/>
  <line x1="342.6" y1="221" x2="342.6" y2="376" stroke="#e5e7eb" stroke-width="0.5"/>
  <line x1="348.8" y1="221" x2="348.8" y2="376" stroke="#e5e7eb" stroke-width="0.5"/>
  <line x1="354.4" y1="221" x2="354.4" y2="376" stroke="#e5e7eb" stroke-width="0.5"/>
  <line x1="392.0" y1="221" x2="392.0" y2="376" stroke="#e5e7eb" stroke-width="0.5"/>
  <line x1="142.5" y1="221" x2="142.5" y2="376" stroke="#e5e7eb" stroke-width="0.5"/>
  <text x="142.5" y="388" text-anchor="middle" font-size="8" fill="#6b7280">100</text>
  <line x1="250.9" y1="221" x2="250.9" y2="376" stroke="#e5e7eb" stroke-width="0.5"/>
  <text x="250.9" y="388" text-anchor="middle" font-size="8" fill="#6b7280">1k</text>
  <line x1="359.4" y1="221" x2="359.4" y2="376" stroke="#e5e7eb" stroke-width="0.5"/>
  <text x="359.4" y="388" text-anchor="middle" font-size="8" fill="#6b7280">10k</text>
  <line x1="34" y1="340.5" x2="392" y2="340.5" stroke="#e5e7eb" stroke-width="0.5"/>
  <text x="30" y="343.5" text-anchor="end" font-size="8" fill="#6b7280">-700</text>
  <text x="30" y="301.5" text-anchor="end" font-size="8" fill="#6b7280">0</text>
  <line x1="34" y1="256.5" x2="392" y2="256.5" stroke="#e5e7eb" stroke-width="0.5"/>
  <text x="30" y="259.5" text-anchor="end" font-size="8" fill="#6b7280">700</text>
  <defs><linearGradient id="g315" x1="0" y1="221" x2="0" y2="298.5" gradientUnits="userSpaceOnUse">
    <stop offset="0%" stop-color="#2ecc71" stop-opacity="0.15"/>
    <stop offset="100%" stop-color="#2ecc71" stop-opacity="0.02"/>
  </linearGradient></defs>
  <defs><linearGradient id="g316" x1="0" y1="376" x2="0" y2="298.5" gradientUnits="userSpaceOnUse">
    <stop offset="0%" stop-color="#2ecc71" stop-opacity="0.15"/>
    <stop offset="100%" stop-color="#2ecc71" stop-opacity="0.02"/>
  </linearGradient></defs>
  <defs><clipPath id="c317"><rect x="34" y="221" width="358" height="77.5"/></clipPath></defs>
  <defs><clipPath id="c318"><rect x="34" y="298.5" width="358" height="77.5"/></clipPath></defs>
  <path d="M37.5,296.6 37.5,296.6 70.1,296.6 89.2,296.6 102.8,296.6 113.3,296.6 121.9,296.6 129.1,296.6 135.4,296.6 141.0,296.6 145.9,296.6 150.4,296.6 154.5,296.6 158.3,296.6 161.8,296.6 165.0,296.6 168.1,296.6 170.9,296.6 173.6,296.6 176.2,296.6 178.6,296.6 180.9,296.6 183.1,296.6 185.2,296.6 187.2,296.6 189.1,296.6 190.9,296.6 192.7,296.6 194.4,296.6 196.1,296.6 197.7,296.6 199.2,296.6 200.7,296.6 202.2,296.6 203.6,296.6 204.9,296.6 206.3,296.6 207.6,296.6 208.8,296.6 210.0,296.6 211.2,296.6 212.4,296.6 213.5,296.6 214.6,296.6 215.7,296.6 216.8,296.6 217.8,296.6 218.8,296.6 219.8,296.6 220.8,296.6 221.7,296.6 222.7,296.6 223.6,296.6 224.5,296.6 225.4,296.6 226.2,296.6 227.1,296.6 227.9,296.6 228.7,296.6 229.5,296.6 231.1,296.6 232.6,296.6 234.1,296.6 235.5,296.6 236.9,296.6 238.2,296.6 239.6,296.6 240.8,296.6 242.1,296.6 243.3,296.6 244.5,296.6 245.6,296.6 246.7,296.6 247.8,296.6 248.9,296.6 249.9,296.6 251.0,296.6 252.0,296.6 252.9,296.6 253.9,296.6 254.8,296.6 255.8,296.6 256.7,296.6 257.6,296.6 258.4,296.6 259.3,296.6 260.1,296.6 261.0,296.6 261.8,296.6 263.0,296.6 264.1,296.6 265.3,296.6 266.4,296.6 267.5,296.6 268.5,296.6 269.6,296.6 270.6,296.6 271.6,296.6 272.5,296.6 273.5,296.6 274.4,296.6 275.3,296.6 276.2,296.6 277.1,296.6 278.0,296.6 278.8,296.6 279.6,296.6 280.5,296.6 281.3,296.6 282.3,296.6 283.4,296.6 284.4,296.6 285.3,296.6 286.3,296.6 287.3,296.6 288.2,296.6 289.1,296.6 290.0,296.6 290.9,296.6 291.7,296.6 292.6,296.6 293.4,296.6 294.2,296.6 295.0,296.6 296.0,296.6 297.0,296.6 297.9,296.6 298.8,296.6 299.7,296.6 300.6,296.6 301.5,296.6 302.4,296.6 303.2,296.6 304.0,296.6 304.9,296.6 305.8,296.6 306.7,296.6 307.7,296.6 308.6,296.6 309.5,296.6 310.3,296.6 311.2,296.6 312.0,296.6 312.8,296.6 313.7,296.6 314.6,296.6 315.5,296.6 316.4,296.6 317.3,296.6 318.1,296.6 319.0,296.6 319.8,296.6 320.6,296.6 321.4,296.6 322.3,296.6 323.2,296.6 324.1,296.6 324.9,296.6 325.7,296.6 326.6,296.6 327.4,296.6 328.3,296.6 329.1,296.6 330.0,296.6 330.8,296.6 331.7,296.6 332.5,296.6 333.3,296.6 334.2,296.6 335.0,296.6 335.9,296.6 336.7,296.6 337.5,296.6 338.4,296.6 339.2,296.6 340.1,296.6 340.9,296.6 341.7,296.6 342.5,296.6 343.4,296.6 344.2,296.6 345.1,296.6 345.9,296.6 346.7,296.6 347.6,296.6 348.4,296.6 349.2,296.6 350.0,296.6 350.9,296.6 351.7,296.6 352.6,296.6 353.4,296.6 354.2,296.6 355.1,296.6 355.9,296.6 356.7,296.6 357.6,296.6 358.4,296.6 359.2,296.6 360.0,296.6 360.9,296.6 361.7,296.6 362.5,296.6 363.3,296.6 364.2,358.1 365.0,296.6 365.8,296.6 366.6,296.6 367.4,296.6 368.3,296.6 369.1,296.6 369.9,296.6 370.7,296.6 371.5,296.6 372.4,296.6 373.2,296.6 374.0,296.6 374.8,296.6 375.6,296.6 376.4,296.6 377.2,296.6 378.1,296.6 378.9,296.6 379.7,296.6 380.5,296.6 381.3,296.6 382.1,296.6 383.0,296.6 383.8,296.6 384.6,296.6 385.4,296.6 386.2,296.6 387.0,296.6 387.9,296.6 388.7,296.6 389.5,296.6 390.3,296.6 391.1,296.6 391.9,296.6 L391.9,298.5 L37.5,298.5 Z" fill="url(#g315)" clip-path="url(#c317)"/>
  <path d="M37.5,296.6 37.5,296.6 70.1,296.6 89.2,296.6 102.8,296.6 113.3,296.6 121.9,296.6 129.1,296.6 135.4,296.6 141.0,296.6 145.9,296.6 150.4,296.6 154.5,296.6 158.3,296.6 161.8,296.6 165.0,296.6 168.1,296.6 170.9,296.6 173.6,296.6 176.2,296.6 178.6,296.6 180.9,296.6 183.1,296.6 185.2,296.6 187.2,296.6 189.1,296.6 190.9,296.6 192.7,296.6 194.4,296.6 196.1,296.6 197.7,296.6 199.2,296.6 200.7,296.6 202.2,296.6 203.6,296.6 204.9,296.6 206.3,296.6 207.6,296.6 208.8,296.6 210.0,296.6 211.2,296.6 212.4,296.6 213.5,296.6 214.6,296.6 215.7,296.6 216.8,296.6 217.8,296.6 218.8,296.6 219.8,296.6 220.8,296.6 221.7,296.6 222.7,296.6 223.6,296.6 224.5,296.6 225.4,296.6 226.2,296.6 227.1,296.6 227.9,296.6 228.7,296.6 229.5,296.6 231.1,296.6 232.6,296.6 234.1,296.6 235.5,296.6 236.9,296.6 238.2,296.6 239.6,296.6 240.8,296.6 242.1,296.6 243.3,296.6 244.5,296.6 245.6,296.6 246.7,296.6 247.8,296.6 248.9,296.6 249.9,296.6 251.0,296.6 252.0,296.6 252.9,296.6 253.9,296.6 254.8,296.6 255.8,296.6 256.7,296.6 257.6,296.6 258.4,296.6 259.3,296.6 260.1,296.6 261.0,296.6 261.8,296.6 263.0,296.6 264.1,296.6 265.3,296.6 266.4,296.6 267.5,296.6 268.5,296.6 269.6,296.6 270.6,296.6 271.6,296.6 272.5,296.6 273.5,296.6 274.4,296.6 275.3,296.6 276.2,296.6 277.1,296.6 278.0,296.6 278.8,296.6 279.6,296.6 280.5,296.6 281.3,296.6 282.3,296.6 283.4,296.6 284.4,296.6 285.3,296.6 286.3,296.6 287.3,296.6 288.2,296.6 289.1,296.6 290.0,296.6 290.9,296.6 291.7,296.6 292.6,296.6 293.4,296.6 294.2,296.6 295.0,296.6 296.0,296.6 297.0,296.6 297.9,296.6 298.8,296.6 299.7,296.6 300.6,296.6 301.5,296.6 302.4,296.6 303.2,296.6 304.0,296.6 304.9,296.6 305.8,296.6 306.7,296.6 307.7,296.6 308.6,296.6 309.5,296.6 310.3,296.6 311.2,296.6 312.0,296.6 312.8,296.6 313.7,296.6 314.6,296.6 315.5,296.6 316.4,296.6 317.3,296.6 318.1,296.6 319.0,296.6 319.8,296.6 320.6,296.6 321.4,296.6 322.3,296.6 323.2,296.6 324.1,296.6 324.9,296.6 325.7,296.6 326.6,296.6 327.4,296.6 328.3,296.6 329.1,296.6 330.0,296.6 330.8,296.6 331.7,296.6 332.5,296.6 333.3,296.6 334.2,296.6 335.0,296.6 335.9,296.6 336.7,296.6 337.5,296.6 338.4,296.6 339.2,296.6 340.1,296.6 340.9,296.6 341.7,296.6 342.5,296.6 343.4,296.6 344.2,296.6 345.1,296.6 345.9,296.6 346.7,296.6 347.6,296.6 348.4,296.6 349.2,296.6 350.0,296.6 350.9,296.6 351.7,296.6 352.6,296.6 353.4,296.6 354.2,296.6 355.1,296.6 355.9,296.6 356.7,296.6 357.6,296.6 358.4,296.6 359.2,296.6 360.0,296.6 360.9,296.6 361.7,296.6 362.5,296.6 363.3,296.6 364.2,358.1 365.0,296.6 365.8,296.6 366.6,296.6 367.4,296.6 368.3,296.6 369.1,296.6 369.9,296.6 370.7,296.6 371.5,296.6 372.4,296.6 373.2,296.6 374.0,296.6 374.8,296.6 375.6,296.6 376.4,296.6 377.2,296.6 378.1,296.6 378.9,296.6 379.7,296.6 380.5,296.6 381.3,296.6 382.1,296.6 383.0,296.6 383.8,296.6 384.6,296.6 385.4,296.6 386.2,296.6 387.0,296.6 387.9,296.6 388.7,296.6 389.5,296.6 390.3,296.6 391.1,296.6 391.9,296.6 L391.9,298.5 L37.5,298.5 Z" fill="url(#g316)" clip-path="url(#c318)"/>
  <defs><clipPath id="pc319"><rect x="34" y="221" width="358" height="155"/></clipPath></defs>
  <polyline points="37.5,296.6 70.1,296.6 89.2,296.6 102.8,296.6 113.3,296.6 121.9,296.6 129.1,296.6 135.4,296.6 141.0,296.6 145.9,296.6 150.4,296.6 154.5,296.6 158.3,296.6 161.8,296.6 165.0,296.6 168.1,296.6 170.9,296.6 173.6,296.6 176.2,296.6 178.6,296.6 180.9,296.6 183.1,296.6 185.2,296.6 187.2,296.6 189.1,296.6 190.9,296.6 192.7,296.6 194.4,296.6 196.1,296.6 197.7,296.6 199.2,296.6 200.7,296.6 202.2,296.6 203.6,296.6 204.9,296.6 206.3,296.6 207.6,296.6 208.8,296.6 210.0,296.6 211.2,296.6 212.4,296.6 213.5,296.6 214.6,296.6 215.7,296.6 216.8,296.6 217.8,296.6 218.8,296.6 219.8,296.6 220.8,296.6 221.7,296.6 222.7,296.6 223.6,296.6 224.5,296.6 225.4,296.6 226.2,296.6 227.1,296.6 227.9,296.6 228.7,296.6 229.5,296.6 231.1,296.6 232.6,296.6 234.1,296.6 235.5,296.6 236.9,296.6 238.2,296.6 239.6,296.6 240.8,296.6 242.1,296.6 243.3,296.6 244.5,296.6 245.6,296.6 246.7,296.6 247.8,296.6 248.9,296.6 249.9,296.6 251.0,296.6 252.0,296.6 252.9,296.6 253.9,296.6 254.8,296.6 255.8,296.6 256.7,296.6 257.6,296.6 258.4,296.6 259.3,296.6 260.1,296.6 261.0,296.6 261.8,296.6 263.0,296.6 264.1,296.6 265.3,296.6 266.4,296.6 267.5,296.6 268.5,296.6 269.6,296.6 270.6,296.6 271.6,296.6 272.5,296.6 273.5,296.6 274.4,296.6 275.3,296.6 276.2,296.6 277.1,296.6 278.0,296.6 278.8,296.6 279.6,296.6 280.5,296.6 281.3,296.6 282.3,296.6 283.4,296.6 284.4,296.6 285.3,296.6 286.3,296.6 287.3,296.6 288.2,296.6 289.1,296.6 290.0,296.6 290.9,296.6 291.7,296.6 292.6,296.6 293.4,296.6 294.2,296.6 295.0,296.6 296.0,296.6 297.0,296.6 297.9,296.6 298.8,296.6 299.7,296.6 300.6,296.6 301.5,296.6 302.4,296.6 303.2,296.6 304.0,296.6 304.9,296.6 305.8,296.6 306.7,296.6 307.7,296.6 308.6,296.6 309.5,296.6 310.3,296.6 311.2,296.6 312.0,296.6 312.8,296.6 313.7,296.6 314.6,296.6 315.5,296.6 316.4,296.6 317.3,296.6 318.1,296.6 319.0,296.6 319.8,296.6 320.6,296.6 321.4,296.6 322.3,296.6 323.2,296.6 324.1,296.6 324.9,296.6 325.7,296.6 326.6,296.6 327.4,296.6 328.3,296.6 329.1,296.6 330.0,296.6 330.8,296.6 331.7,296.6 332.5,296.6 333.3,296.6 334.2,296.6 335.0,296.6 335.9,296.6 336.7,296.6 337.5,296.6 338.4,296.6 339.2,296.6 340.1,296.6 340.9,296.6 341.7,296.6 342.5,296.6 343.4,296.6 344.2,296.6 345.1,296.6 345.9,296.6 346.7,296.6 347.6,296.6 348.4,296.6 349.2,296.6 350.0,296.6 350.9,296.6 351.7,296.6 352.6,296.6 353.4,296.6 354.2,296.6 355.1,296.6 355.9,296.6 356.7,296.6 357.6,296.6 358.4,296.6 359.2,296.6 360.0,296.6 360.9,296.6 361.7,296.6 362.5,296.6 363.3,296.6 364.2,358.1 365.0,296.6 365.8,296.6 366.6,296.6 367.4,296.6 368.3,296.6 369.1,296.6 369.9,296.6 370.7,296.6 371.5,296.6 372.4,296.6 373.2,296.6 374.0,296.6 374.8,296.6 375.6,296.6 376.4,296.6 377.2,296.6 378.1,296.6 378.9,296.6 379.7,296.6 380.5,296.6 381.3,296.6 382.1,296.6 383.0,296.6 383.8,296.6 384.6,296.6 385.4,296.6 386.2,296.6 387.0,296.6 387.9,296.6 388.7,296.6 389.5,296.6 390.3,296.6 391.1,296.6 391.9,296.6" fill="none" stroke="#2ecc71" stroke-width="1.5" stroke-linejoin="round" clip-path="url(#pc319)"/>
  <line x1="442" y1="221" x2="442" y2="376" stroke="#d1d5db"/>
  <line x1="442" y1="298.5" x2="800" y2="298.5" stroke="#d1d5db"/>
  <text x="621" y="402" text-anchor="middle" font-size="9" fill="#6b7280">Samples</text>
  <text x="420" y="298.5" text-anchor="middle" font-size="9" fill="#6b7280" transform="rotate(-90 420 298.5)">Impulse response</text>
  <line x1="442.0" y1="221" x2="442.0" y2="376" stroke="#e5e7eb" stroke-width="0.5"/>
  <text x="442.0" y="388" text-anchor="middle" font-size="8" fill="#6b7280">0</text>
  <line x1="612.5" y1="221" x2="612.5" y2="376" stroke="#e5e7eb" stroke-width="0.5"/>
  <text x="612.5" y="388" text-anchor="middle" font-size="8" fill="#6b7280">30</text>
  <line x1="783.0" y1="221" x2="783.0" y2="376" stroke="#e5e7eb" stroke-width="0.5"/>
  <text x="783.0" y="388" text-anchor="middle" font-size="8" fill="#6b7280">60</text>
  <line x1="442" y1="365.1" x2="800" y2="365.1" stroke="#e5e7eb" stroke-width="0.5"/>
  <text x="438" y="368.1" text-anchor="end" font-size="8" fill="#6b7280">-0.3</text>
  <text x="438" y="301.5" text-anchor="end" font-size="8" fill="#6b7280">0</text>
  <line x1="442" y1="231.9" x2="800" y2="231.9" stroke="#e5e7eb" stroke-width="0.5"/>
  <text x="438" y="234.9" text-anchor="end" font-size="8" fill="#6b7280">0.3</text>
  <defs><linearGradient id="g320" x1="0" y1="221" x2="0" y2="298.5" gradientUnits="userSpaceOnUse">
    <stop offset="0%" stop-color="#f39c12" stop-opacity="0.15"/>
    <stop offset="100%" stop-color="#f39c12" stop-opacity="0.02"/>
  </linearGradient></defs>
  <defs><linearGradient id="g321" x1="0" y1="376" x2="0" y2="298.5" gradientUnits="userSpaceOnUse">
    <stop offset="0%" stop-color="#f39c12" stop-opacity="0.15"/>
    <stop offset="100%" stop-color="#f39c12" stop-opacity="0.02"/>
  </linearGradient></defs>
  <defs><clipPath id="c322"><rect x="442" y="221" width="358" height="77.5"/></clipPath></defs>
  <defs><clipPath id="c323"><rect x="442" y="298.5" width="358" height="77.5"/></clipPath></defs>
  <path d="M442.0,298.4 442.0,298.4 447.7,298.4 453.4,298.4 459.0,298.7 464.7,298.8 470.4,298.6 476.1,298.1 481.8,297.9 487.5,298.4 493.1,299.3 498.8,299.4 504.5,298.4 510.2,297.1 515.9,297.2 521.6,298.9 527.2,300.8 532.9,300.3 538.6,297.4 544.3,294.9 550.0,296.2 555.7,300.8 561.3,304.1 567.0,301.3 572.7,293.9 578.4,289.6 584.1,295.3 589.7,308.1 595.4,314.6 601.1,301.9 606.8,270.1 612.5,235.8 618.2,221.0 623.8,235.8 629.5,270.1 635.2,301.9 640.9,314.6 646.6,308.1 652.3,295.3 657.9,289.6 663.6,293.9 669.3,301.3 675.0,304.1 680.7,300.8 686.3,296.2 692.0,294.9 697.7,297.4 703.4,300.3 709.1,300.8 714.8,298.9 720.4,297.2 726.1,297.1 731.8,298.4 737.5,299.4 743.2,299.3 748.9,298.4 754.5,297.9 760.2,298.1 765.9,298.6 771.6,298.8 777.3,298.7 783.0,298.4 788.6,298.4 794.3,298.4 L794.3,298.5 L442.0,298.5 Z" fill="url(#g320)" clip-path="url(#c322)"/>
  <path d="M442.0,298.4 442.0,298.4 447.7,298.4 453.4,298.4 459.0,298.7 464.7,298.8 470.4,298.6 476.1,298.1 481.8,297.9 487.5,298.4 493.1,299.3 498.8,299.4 504.5,298.4 510.2,297.1 515.9,297.2 521.6,298.9 527.2,300.8 532.9,300.3 538.6,297.4 544.3,294.9 550.0,296.2 555.7,300.8 561.3,304.1 567.0,301.3 572.7,293.9 578.4,289.6 584.1,295.3 589.7,308.1 595.4,314.6 601.1,301.9 606.8,270.1 612.5,235.8 618.2,221.0 623.8,235.8 629.5,270.1 635.2,301.9 640.9,314.6 646.6,308.1 652.3,295.3 657.9,289.6 663.6,293.9 669.3,301.3 675.0,304.1 680.7,300.8 686.3,296.2 692.0,294.9 697.7,297.4 703.4,300.3 709.1,300.8 714.8,298.9 720.4,297.2 726.1,297.1 731.8,298.4 737.5,299.4 743.2,299.3 748.9,298.4 754.5,297.9 760.2,298.1 765.9,298.6 771.6,298.8 777.3,298.7 783.0,298.4 788.6,298.4 794.3,298.4 L794.3,298.5 L442.0,298.5 Z" fill="url(#g321)" clip-path="url(#c323)"/>
  <defs><clipPath id="pc324"><rect x="442" y="221" width="358" height="155"/></clipPath></defs>
  <polyline points="442.0,298.4 447.7,298.4 453.4,298.4 459.0,298.7 464.7,298.8 470.4,298.6 476.1,298.1 481.8,297.9 487.5,298.4 493.1,299.3 498.8,299.4 504.5,298.4 510.2,297.1 515.9,297.2 521.6,298.9 527.2,300.8 532.9,300.3 538.6,297.4 544.3,294.9 550.0,296.2 555.7,300.8 561.3,304.1 567.0,301.3 572.7,293.9 578.4,289.6 584.1,295.3 589.7,308.1 595.4,314.6 601.1,301.9 606.8,270.1 612.5,235.8 618.2,221.0 623.8,235.8 629.5,270.1 635.2,301.9 640.9,314.6 646.6,308.1 652.3,295.3 657.9,289.6 663.6,293.9 669.3,301.3 675.0,304.1 680.7,300.8 686.3,296.2 692.0,294.9 697.7,297.4 703.4,300.3 709.1,300.8 714.8,298.9 720.4,297.2 726.1,297.1 731.8,298.4 737.5,299.4 743.2,299.3 748.9,298.4 754.5,297.9 760.2,298.1 765.9,298.6 771.6,298.8 777.3,298.7 783.0,298.4 788.6,298.4 794.3,298.4" fill="none" stroke="#f39c12" stroke-width="1.3" stroke-linejoin="round" clip-path="url(#pc324)"/>
</svg>
