<svg xmlns="http://www.w3.org/2000/svg" viewBox="0 0 820 392" style="font-family:system-ui,-apple-system,sans-serif">
  <text x="800" y="11" text-anchor="end" font-size="11" font-weight="600" fill="#6b7280">firwin highpass, 63 taps, fc=1kHz</text>
  <line x1="34" y1="16" x2="34" y2="171" stroke="#d1d5db"/>
  <line x1="34" y1="47.0" x2="392" y2="47.0" stroke="#d1d5db"/>
  <text x="213" y="197" text-anchor="middle" font-size="9" fill="#6b7280">Hz</text>
  <text x="12" y="93.5" text-anchor="middle" font-size="9" fill="#6b7280" transform="rotate(-90 12 93.5)">dB</text>
  <line x1="66.6" y1="16" x2="66.6" y2="171" stroke="#e5e7eb" stroke-width="0.5"/>
  <line x1="85.7" y1="16" x2="85.7" y2="171" stroke="#e5e7eb" stroke-width="0.5"/>
  <line x1="99.3" y1="16" x2="99.3" y2="171" stroke="#e5e7eb" stroke-width="0.5"/>
  <line x1="109.8" y1="16" x2="109.8" y2="171" stroke="#e5e7eb" stroke-width="0.5"/>
  <line x1="118.4" y1="16" x2="118.4" y2="171" stroke="#e5e7eb" stroke-width="0.5"/>
  <line x1="125.7" y1="16" x2="125.7" y2="171" stroke="#e5e7eb" stroke-width="0.5"/>
  <line x1="131.9" y1="16" x2="131.9" y2="171" stroke="#e5e7eb" stroke-width="0.5"/>
  <line x1="137.5" y1="16" x2="137.5" y2="171" stroke="#e5e7eb" stroke-width="0.5"/>
  <line x1="175.1" y1="16" x2="175.1" y2="171" stroke="#e5e7eb" stroke-width="0.5"/>
  <line x1="194.2" y1="16" x2="194.2" y2="171" stroke="#e5e7eb" stroke-width="0.5"/>
  <line x1="207.7" y1="16" x2="207.7" y2="171" stroke="#e5e7eb" stroke-width="0.5"/>
  <line x1="218.3" y1="16" x2="218.3" y2="171" stroke="#e5e7eb" stroke-width="0.5"/>
  <line x1="226.8" y1="16" x2="226.8" y2="171" stroke="#e5e7eb" stroke-width="0.5"/>
  <line x1="234.1" y1="16" x2="234.1" y2="171" stroke="#e5e7eb" stroke-width="0.5"/>
  <line x1="240.4" y1="16" x2="240.4" y2="171" stroke="#e5e7eb" stroke-width="0.5"/>
  <line x1="245.9" y1="16" x2="245.9" y2="171" stroke="#e5e7eb" stroke-width="0.5"/>
  <line x1="283.5" y1="16" x2="283.5" y2="171" stroke="#e5e7eb" stroke-width="0.5"/>
  <line x1="302.6" y1="16" x2="302.6" y2="171" stroke="#e5e7eb" stroke-width="0.5"/>
  <line x1="316.2" y1="16" x2="316.2" y2="171" stroke="#e5e7eb" stroke-width="0.5"/>
  <line x1="326.7" y1="16" x2="326.7" y2="171" stroke="#e5e7eb" stroke-width="0.5"/>
  <line x1="335.3" y1="16" x2="335.3" y2="171" stroke="#e5e7eb" stroke-width="0.5"/>
  <line x1="342.6" y1="16" x2="342.6" y2="171" stroke="#e5e7eb" stroke-width="0.5"/>
  <line x1="348.8" y1="16" x2="348.8" y2="171" stroke="#e5e7eb" stroke-width="0.5"/>
  <line x1="354.4" y1="16" x2="354.4" y2="171" stroke="#e5e7eb" stroke-width="0.5"/>
  <line x1="392.0" y1="16" x2="392.0" y2="171" stroke="#e5e7eb" stroke-width="0.5"/>
  <line x1="142.5" y1="16" x2="142.5" y2="171" stroke="#e5e7eb" stroke-width="0.5"/>
  <text x="142.5" y="183" text-anchor="middle" font-size="8" fill="#6b7280">100</text>
  <line x1="250.9" y1="16" x2="250.9" y2="171" stroke="#e5e7eb" stroke-width="0.5"/>
  <text x="250.9" y="183" text-anchor="middle" font-size="8" fill="#6b7280">1k</text>
  <line x1="359.4" y1="16" x2="359.4" y2="171" stroke="#e5e7eb" stroke-width="0.5"/>
  <text x="359.4" y="183" text-anchor="middle" font-size="8" fill="#6b7280">10k</text>
  <line x1="34" y1="31.5" x2="392" y2="31.5" stroke="#e5e7eb" stroke-width="0.5"/>
  <line x1="34" y1="62.5" x2="392" y2="62.5" stroke="#e5e7eb" stroke-width="0.5"/>
  <line x1="34" y1="16.0" x2="392" y2="16.0" stroke="#e5e7eb" stroke-width="0.5"/>
  <text x="30" y="19.0" text-anchor="end" font-size="8" fill="#6b7280">+20</text>
  <text x="30" y="50.0" text-anchor="end" font-size="8" fill="#6b7280">0</text>
  <line x1="34" y1="78.0" x2="392" y2="78.0" stroke="#e5e7eb" stroke-width="0.5"/>
  <text x="30" y="81.0" text-anchor="end" font-size="8" fill="#6b7280">-20</text>
  <line x1="34" y1="109.0" x2="392" y2="109.0" stroke="#e5e7eb" stroke-width="0.5"/>
  <text x="30" y="112.0" text-anchor="end" font-size="8" fill="#6b7280">-40</text>
  <line x1="34" y1="140.0" x2="392" y2="140.0" stroke="#e5e7eb" stroke-width="0.5"/>
  <text x="30" y="143.0" text-anchor="end" font-size="8" fill="#6b7280">-60</text>
  <line x1="34" y1="171.0" x2="392" y2="171.0" stroke="#e5e7eb" stroke-width="0.5"/>
  <text x="30" y="174.0" text-anchor="end" font-size="8" fill="#6b7280">-80</text>
  <line x1="250.9" y1="16" x2="250.9" y2="171" stroke="#d1d5db" stroke-width="1" stroke-dasharray="4 3"/>
  <defs><linearGradient id="g277" x1="0" y1="16" x2="0" y2="171" gradientUnits="userSpaceOnUse">
    <stop offset="0%" stop-color="#4a90d9" stop-opacity="0.15"/>
    <stop offset="100%" stop-color="#4a90d9" stop-opacity="0.02"/>
  </linearGradient></defs>
  <path d="M37.5,92.9 37.5,92.9 70.1,92.8 89.2,92.7 102.8,92.5 113.3,92.3 121.9,92.0 129.1,91.7 135.4,91.4 141.0,91.0 145.9,90.6 150.4,90.2 154.5,89.7 158.3,89.2 161.8,88.7 165.0,88.2 168.1,87.7 170.9,87.1 173.6,86.6 176.2,86.0 178.6,85.4 180.9,84.8 183.1,84.3 185.2,83.7 187.2,83.1 189.1,82.5 190.9,82.0 192.7,81.4 194.4,80.8 196.1,80.3 197.7,79.7 199.2,79.1 200.7,78.6 202.2,78.1 203.6,77.5 204.9,77.0 206.3,76.5 207.6,75.9 208.8,75.4 210.0,74.9 211.2,74.4 212.4,73.9 213.5,73.5 214.6,73.0 215.7,72.5 216.8,72.1 217.8,71.6 218.8,71.1 219.8,70.7 220.8,70.3 221.7,69.8 222.7,69.4 223.6,69.0 224.5,68.6 225.4,68.2 226.2,67.8 227.1,67.4 227.9,67.0 228.7,66.6 229.5,66.2 231.1,65.5 232.6,64.8 234.1,64.1 235.5,63.4 236.9,62.8 238.2,62.1 239.6,61.5 240.8,60.9 242.1,60.3 243.3,59.8 244.5,59.2 245.6,58.7 246.7,58.2 247.8,57.7 248.9,57.2 249.9,56.8 251.0,56.3 252.0,55.9 252.9,55.5 253.9,55.1 254.8,54.7 255.8,54.3 256.7,53.9 257.6,53.6 258.4,53.2 259.3,52.9 260.1,52.6 261.0,52.3 261.8,52.0 263.0,51.6 264.1,51.2 265.3,50.8 266.4,50.4 267.5,50.1 268.5,49.8 269.6,49.5 270.6,49.3 271.6,49.0 272.5,48.8 273.5,48.6 274.4,48.4 275.3,48.2 276.2,48.1 277.1,47.9 278.0,47.8 278.8,47.7 279.6,47.6 280.5,47.5 281.3,47.4 282.3,47.3 283.4,47.2 284.4,47.2 285.3,47.1 286.3,47.1 287.3,47.0 288.2,47.0 289.1,47.0 290.0,47.0 290.9,47.0 291.7,47.0 292.6,47.0 293.4,47.0 294.2,47.0 295.0,47.0 296.0,47.0 297.0,47.0 297.9,47.0 298.8,47.0 299.7,47.0 300.6,47.0 301.5,47.0 302.4,47.0 303.2,47.0 304.0,47.0 304.9,47.0 305.8,47.0 306.7,47.0 307.7,47.0 308.6,47.0 309.5,47.0 310.3,47.0 311.2,47.0 312.0,47.0 312.8,47.0 313.7,47.0 314.6,47.0 315.5,47.0 316.4,47.0 317.3,47.0 318.1,47.0 319.0,47.0 319.8,47.0 320.6,47.0 321.4,47.0 322.3,47.0 323.2,47.0 324.1,47.0 324.9,47.0 325.7,47.0 326.6,47.0 327.4,47.0 328.3,47.0 329.1,47.0 330.0,47.0 330.8,47.0 331.7,47.0 332.5,47.0 333.3,47.0 334.2,47.0 335.0,47.0 335.9,47.0 336.7,47.0 337.5,47.0 338.4,47.0 339.2,47.0 340.1,47.0 340.9,47.0 341.7,47.0 342.5,47.0 343.4,47.0 344.2,47.0 345.1,47.0 345.9,47.0 346.7,47.0 347.6,47.0 348.4,47.0 349.2,47.0 350.0,47.0 350.9,47.0 351.7,47.0 352.6,47.0 353.4,47.0 354.2,47.0 355.1,47.0 355.9,47.0 356.7,47.0 357.6,47.0 358.4,47.0 359.2,47.0 360.0,47.0 360.9,47.0 361.7,47.0 362.5,47.0 363.3,47.0 364.2,47.0 365.0,47.0 365.8,47.0 366.6,47.0 367.4,47.0 368.3,47.0 369.1,47.0 369.9,47.0 370.7,47.0 371.5,47.0 372.4,47.0 373.2,47.0 374.0,47.0 374.8,47.0 375.6,47.0 376.4,47.0 377.2,47.0 378.1,47.0 378.9,47.0 379.7,47.0 380.5,47.0 381.3,47.0 382.1,47.0 383.0,47.0 383.8,47.0 384.6,47.0 385.4,47.0 386.2,47.0 387.0,47.0 387.9,47.0 388.7,47.0 389.5,47.0 390.3,47.0 391.1,47.0 391.9,47.0 L391.9,171.0 L37.5,171.0 Z" fill="url(#g277)"/>
  <defs><clipPath id="pc278"><rect x="34" y="16" width="358" height="155"/></clipPath></defs>
  <polyline points="37.5,92.9 70.1,92.8 89.2,92.7 102.8,92.5 113.3,92.3 121.9,92.0 129.1,91.7 135.4,91.4 141.0,91.0 145.9,90.6 150.4,90.2 154.5,89.7 158.3,89.2 161.8,88.7 165.0,88.2 168.1,87.7 170.9,87.1 173.6,86.6 176.2,86.0 178.6,85.4 180.9,84.8 183.1,84.3 185.2,83.7 187.2,83.1 189.1,82.5 190.9,82.0 192.7,81.4 194.4,80.8 196.1,80.3 197.7,79.7 199.2,79.1 200.7,78.6 202.2,78.1 203.6,77.5 204.9,77.0 206.3,76.5 207.6,75.9 208.8,75.4 210.0,74.9 211.2,74.4 212.4,73.9 213.5,73.5 214.6,73.0 215.7,72.5 216.8,72.1 217.8,71.6 218.8,71.1 219.8,70.7 220.8,70.3 221.7,69.8 222.7,69.4 223.6,69.0 224.5,68.6 225.4,68.2 226.2,67.8 227.1,67.4 227.9,67.0 228.7,66.6 229.5,66.2 231.1,65.5 232.6,64.8 234.1,64.1 235.5,63.4 236.9,62.8 238.2,62.1 239.6,61.5 240.8,60.9 242.1,60.3 243.3,59.8 244.5,59.2 245.6,58.7 246.7,58.2 247.8,57.7 248.9,57.2 249.9,56.8 251.0,56.3 252.0,55.9 252.9,55.5 253.9,55.1 254.8,54.7 255.8,54.3 256.7,53.9 257.6,53.6 258.4,53.2 259.3,52.9 260.1,52.6 261.0,52.3 261.8,52.0 263.0,51.6 264.1,51.2 265.3,50.8 266.4,50.4 267.5,50.1 268.5,49.8 269.6,49.5 270.6,49.3 271.6,49.0 272.5,48.8 273.5,48.6 274.4,48.4 275.3,48.2 276.2,48.1 277.1,47.9 278.0,47.8 278.8,47.7 279.6,47.6 280.5,47.5 281.3,47.4 282.3,47.3 283.4,47.2 284.4,47.2 285.3,47.1 286.3,47.1 287.3,47.0 288.2,47.0 289.1,47.0 290.0,47.0 290.9,47.0 291.7,47.0 292.6,47.0 293.4,47.0 294.2,47.0 295.0,47.0 296.0,47.0 297.0,47.0 297.9,47.0 298.8,47.0 299.7,47.0 300.6,47.0 301.5,47.0 302.4,47.0 303.2,47.0 304.0,47.0 304.9,47.0 305.8,47.0 306.7,47.0 307.7,47.0 308.6,47.0 309.5,47.0 310.3,47.0 311.2,47.0 312.0,47.0 312.8,47.0 313.7,47.0 314.6,47.0 315.5,47.0 316.4,47.0 317.3,47.0 318.1,47.0 319.0,47.0 319.8,47.0 320.6,47.0 321.4,47.0 322.3,47.0 323.2,47.0 324.1,47.0 324.9,47.0 325.7,47.0 326.6,47.0 327.4,47.0 328.3,47.0 329.1,47.0 330.0,47.0 330.8,47.0 331.7,47.0 332.5,47.0 333.3,47.0 334.2,47.0 335.0,47.0 335.9,47.0 336.7,47.0 337.5,47.0 338.4,47.0 339.2,47.0 340.1,47.0 340.9,47.0 341.7,47.0 342.5,47.0 343.4,47.0 344.2,47.0 345.1,47.0 345.9,47.0 346.7,47.0 347.6,47.0 348.4,47.0 349.2,47.0 350.0,47.0 350.9,47.0 351.7,47.0 352.6,47.0 353.4,47.0 354.2,47.0 355.1,47.0 355.9,47.0 356.7,47.0 357.6,47.0 358.4,47.0 359.2,47.0 360.0,47.0 360.9,47.0 361.7,47.0 362.5,47.0 363.3,47.0 364.2,47.0 365.0,47.0 365.8,47.0 366.6,47.0 367.4,47.0 368.3,47.0 369.1,47.0 369.9,47.0 370.7,47.0 371.5,47.0 372.4,47.0 373.2,47.0 374.0,47.0 374.8,47.0 375.6,47.0 376.4,47.0 377.2,47.0 378.1,47.0 378.9,47.0 379.7,47.0 380.5,47.0 381.3,47.0 382.1,47.0 383.0,47.0 383.8,47.0 384.6,47.0 385.4,47.0 386.2,47.0 387.0,47.0 387.9,47.0 388.7,47.0 389.5,47.0 390.3,47.0 391.1,47.0 391.9,47.0" fill="none" stroke="#4a90d9" stroke-width="1.5" stroke-linejoin="round" clip-path="url(#pc278)"/>
  <line x1="442" y1="16" x2="442" y2="171" stroke="#d1d5db"/>
  <line x1="442" y1="93.5" x2="800" y2="93.5" stroke="#d1d5db"/>
  <text x="621" y="197" text-anchor="middle" font-size="9" fill="#6b7280">Hz</text>
  <text x="420" y="93.5" text-anchor="middle" font-size="9" fill="#6b7280" transform="rotate(-90 420 93.5)">Phase (deg)</text>
  <line x1="474.6" y1="16" x2="474.6" y2="171" stroke="#e5e7eb" stroke-width="0.5"/>
  <line x1="493.7" y1="16" x2="493.7" y2="171" stroke="#e5e7eb" stroke-width="0.5"/>
  <line x1="507.3" y1="16" x2="507.3" y2="171" stroke="#e5e7eb" stroke-width="0.5"/>
  <line x1="517.8" y1="16" x2="517.8" y2="171" stroke="#e5e7eb" stroke-width="0.5"/>
  <line x1="526.4" y1="16" x2="526.4" y2="171" stroke="#e5e7eb" stroke-width="0.5"/>
  <line x1="533.7" y1="16" x2="533.7" y2="171" stroke="#e5e7eb" stroke-width="0.5"/>
  <line x1="539.9" y1="16" x2="539.9" y2="171" stroke="#e5e7eb" stroke-width="0.5"/>
  <line x1="545.5" y1="16" x2="545.5" y2="171" stroke="#e5e7eb" stroke-width="0.5"/>
  <line x1="583.1" y1="16" x2="583.1" y2="171" stroke="#e5e7eb" stroke-width="0.5"/>
  <line x1="602.2" y1="16" x2="602.2" y2="171" stroke="#e5e7eb" stroke-width="0.5"/>
  <line x1="615.7" y1="16" x2="615.7" y2="171" stroke="#e5e7eb" stroke-width="0.5"/>
  <line x1="626.3" y1="16" x2="626.3" y2="171" stroke="#e5e7eb" stroke-width="0.5"/>
  <line x1="634.8" y1="16" x2="634.8" y2="171" stroke="#e5e7eb" stroke-width="0.5"/>
  <line x1="642.1" y1="16" x2="642.1" y2="171" stroke="#e5e7eb" stroke-width="0.5"/>
  <line x1="648.4" y1="16" x2="648.4" y2="171" stroke="#e5e7eb" stroke-width="0.5"/>
  <line x1="653.9" y1="16" x2="653.9" y2="171" stroke="#e5e7eb" stroke-width="0.5"/>
  <line x1="691.5" y1="16" x2="691.5" y2="171" stroke="#e5e7eb" stroke-width="0.5"/>
  <line x1="710.6" y1="16" x2="710.6" y2="171" stroke="#e5e7eb" stroke-width="0.5"/>
  <line x1="724.2" y1="16" x2="724.2" y2="171" stroke="#e5e7eb" stroke-width="0.5"/>
  <line x1="734.7" y1="16" x2="734.7" y2="171" stroke="#e5e7eb" stroke-width="0.5"/>
  <line x1="743.3" y1="16" x2="743.3" y2="171" stroke="#e5e7eb" stroke-width="0.5"/>
  <line x1="750.6" y1="16" x2="750.6" y2="171" stroke="#e5e7eb" stroke-width="0.5"/>
  <line x1="756.8" y1="16" x2="756.8" y2="171" stroke="#e5e7eb" stroke-width="0.5"/>
  <line x1="762.4" y1="16" x2="762.4" y2="171" stroke="#e5e7eb" stroke-width="0.5"/>
  <line x1="800.0" y1="16" x2="800.0" y2="171" stroke="#e5e7eb" stroke-width="0.5"/>
  <line x1="550.5" y1="16" x2="550.5" y2="171" stroke="#e5e7eb" stroke-width="0.5"/>
  <text x="550.5" y="183" text-anchor="middle" font-size="8" fill="#6b7280">100</text>
  <line x1="658.9" y1="16" x2="658.9" y2="171" stroke="#e5e7eb" stroke-width="0.5"/>
  <text x="658.9" y="183" text-anchor="middle" font-size="8" fill="#6b7280">1k</text>
  <line x1="767.4" y1="16" x2="767.4" y2="171" stroke="#e5e7eb" stroke-width="0.5"/>
  <text x="767.4" y="183" text-anchor="middle" font-size="8" fill="#6b7280">10k</text>
  <line x1="442" y1="54.8" x2="800" y2="54.8" stroke="#e5e7eb" stroke-width="0.5"/>
  <line x1="442" y1="132.3" x2="800" y2="132.3" stroke="#e5e7eb" stroke-width="0.5"/>
  <line x1="442" y1="16.0" x2="800" y2="16.0" stroke="#e5e7eb" stroke-width="0.5"/>
  <text x="438" y="19.0" text-anchor="end" font-size="8" fill="#6b7280">180</text>
  <text x="438" y="96.5" text-anchor="end" font-size="8" fill="#6b7280">0</text>
  <line x1="442" y1="171.0" x2="800" y2="171.0" stroke="#e5e7eb" stroke-width="0.5"/>
  <text x="438" y="174.0" text-anchor="end" font-size="8" fill="#6b7280">-180</text>
  <line x1="658.9" y1="16" x2="658.9" y2="171" stroke="#d1d5db" stroke-width="1" stroke-dasharray="4 3"/>
  <defs><linearGradient id="g279" x1="0" y1="16" x2="0" y2="93.5" gradientUnits="userSpaceOnUse">
    <stop offset="0%" stop-color="#e74c3c" stop-opacity="0.15"/>
    <stop offset="100%" stop-color="#e74c3c" stop-opacity="0.02"/>
  </linearGradient></defs>
  <defs><linearGradient id="g280" x1="0" y1="171" x2="0" y2="93.5" gradientUnits="userSpaceOnUse">
    <stop offset="0%" stop-color="#e74c3c" stop-opacity="0.15"/>
    <stop offset="100%" stop-color="#e74c3c" stop-opacity="0.02"/>
  </linearGradient></defs>
  <defs><clipPath id="c281"><rect x="442" y="16" width="358" height="77.5"/></clipPath></defs>
  <defs><clipPath id="c282"><rect x="442" y="93.5" width="358" height="77.5"/></clipPath></defs>
  <path d="M445.5,94.7 445.5,94.7 478.1,95.8 497.2,97.0 510.8,98.2 521.3,99.4 529.9,100.5 537.1,101.7 543.4,102.9 549.0,104.1 553.9,105.2 558.4,106.4 562.5,107.6 566.3,108.8 569.8,109.9 573.0,111.1 576.1,112.3 578.9,113.4 581.6,114.6 584.2,115.8 586.6,117.0 588.9,118.1 591.1,119.3 593.2,120.5 595.2,121.7 597.1,122.8 598.9,124.0 600.7,125.2 602.4,126.3 604.1,127.5 605.7,128.7 607.2,129.9 608.7,131.0 610.2,132.2 611.6,133.4 612.9,134.6 614.3,135.7 615.6,136.9 616.8,138.1 618.0,139.3 619.2,140.4 620.4,141.6 621.5,142.8 622.6,143.9 623.7,145.1 624.8,146.3 625.8,147.5 626.8,148.6 627.8,149.8 628.8,151.0 629.7,152.2 630.7,153.3 631.6,154.5 632.5,155.7 633.4,156.8 634.2,158.0 635.1,159.2 635.9,160.4 636.7,161.5 637.5,162.7 639.1,165.1 640.6,167.4 642.1,169.8 643.5,17.1 644.9,19.4 646.2,21.8 647.6,24.1 648.8,26.5 650.1,28.8 651.3,31.2 652.5,33.5 653.6,35.9 654.7,38.2 655.8,40.6 656.9,42.9 657.9,45.3 659.0,47.6 660.0,49.9 660.9,52.3 661.9,54.6 662.8,57.0 663.8,59.3 664.7,61.7 665.6,64.0 666.4,66.4 667.3,68.7 668.1,71.1 669.0,73.4 669.8,75.8 671.0,79.3 672.1,82.8 673.3,86.3 674.4,89.8 675.5,93.3 676.5,96.9 677.6,100.4 678.6,103.9 679.6,107.4 680.5,110.9 681.5,114.5 682.4,118.0 683.3,121.5 684.2,125.0 685.1,128.5 686.0,132.1 686.8,135.6 687.6,139.1 688.5,142.6 689.3,146.1 690.3,150.8 691.4,155.5 692.4,160.2 693.3,164.9 694.3,169.6 695.3,19.3 696.2,24.0 697.1,28.7 698.0,33.4 698.9,38.1 699.7,42.8 700.6,47.4 701.4,52.1 702.2,56.8 703.0,61.5 704.0,67.4 705.0,73.3 705.9,79.1 706.8,85.0 707.7,90.9 708.6,96.7 709.5,102.6 710.4,108.4 711.2,114.3 712.0,120.2 712.9,126.0 713.8,133.1 714.7,140.1 715.7,147.2 716.6,154.2 717.5,161.2 718.3,168.3 719.2,20.3 720.0,27.4 720.8,34.4 721.7,41.4 722.6,49.6 723.5,57.9 724.4,66.1 725.3,74.3 726.1,82.5 727.0,90.7 727.8,98.9 728.6,107.1 729.4,115.3 730.3,124.7 731.2,134.1 732.1,143.5 732.9,152.9 733.7,162.3 734.6,16.6 735.4,26.0 736.3,36.6 737.1,47.1 738.0,57.7 738.8,68.3 739.7,78.8 740.5,89.4 741.3,99.9 742.2,111.7 743.0,123.4 743.9,135.1 744.7,146.9 745.5,158.6 746.4,16.5 747.2,29.4 748.1,42.3 748.9,55.2 749.7,68.1 750.5,81.0 751.4,95.1 752.2,109.2 753.1,123.2 753.9,137.3 754.7,151.4 755.6,166.6 756.4,26.9 757.2,42.1 758.0,57.4 758.9,73.8 759.7,90.2 760.6,106.7 761.4,123.1 762.2,140.7 763.1,158.3 763.9,20.9 764.7,38.5 765.6,57.2 766.4,76.0 767.2,94.8 768.0,113.6 768.9,133.5 769.7,153.4 770.5,18.4 771.3,39.5 772.2,60.6 773.0,81.7 773.8,102.8 774.6,125.1 775.4,147.4 776.3,169.7 777.1,38.2 777.9,61.6 778.7,85.1 779.5,109.7 780.4,134.4 781.2,159.0 782.0,29.8 782.8,55.6 783.6,82.6 784.4,109.6 785.2,136.6 786.1,164.7 786.9,37.9 787.7,67.2 788.5,96.5 789.3,125.9 790.1,156.4 791.0,31.9 791.8,63.5 792.6,95.2 793.4,128.0 794.2,160.9 795.0,39.9 795.9,73.9 796.7,109.1 797.5,144.3 798.3,25.7 799.1,62.1 799.9,99.6 L799.9,93.5 L445.5,93.5 Z" fill="url(#g279)" clip-path="url(#c281)"/>
  <path d="M445.5,94.7 445.5,94.7 478.1,95.8 497.2,97.0 510.8,98.2 521.3,99.4 529.9,100.5 537.1,101.7 543.4,102.9 549.0,104.1 553.9,105.2 558.4,106.4 562.5,107.6 566.3,108.8 569.8,109.9 573.0,111.1 576.1,112.3 578.9,113.4 581.6,114.6 584.2,115.8 586.6,117.0 588.9,118.1 591.1,119.3 593.2,120.5 595.2,121.7 597.1,122.8 598.9,124.0 600.7,125.2 602.4,126.3 604.1,127.5 605.7,128.7 607.2,129.9 608.7,131.0 610.2,132.2 611.6,133.4 612.9,134.6 614.3,135.7 615.6,136.9 616.8,138.1 618.0,139.3 619.2,140.4 620.4,141.6 621.5,142.8 622.6,143.9 623.7,145.1 624.8,146.3 625.8,147.5 626.8,148.6 627.8,149.8 628.8,151.0 629.7,152.2 630.7,153.3 631.6,154.5 632.5,155.7 633.4,156.8 634.2,158.0 635.1,159.2 635.9,160.4 636.7,161.5 637.5,162.7 639.1,165.1 640.6,167.4 642.1,169.8 643.5,17.1 644.9,19.4 646.2,21.8 647.6,24.1 648.8,26.5 650.1,28.8 651.3,31.2 652.5,33.5 653.6,35.9 654.7,38.2 655.8,40.6 656.9,42.9 657.9,45.3 659.0,47.6 660.0,49.9 660.9,52.3 661.9,54.6 662.8,57.0 663.8,59.3 664.7,61.7 665.6,64.0 666.4,66.4 667.3,68.7 668.1,71.1 669.0,73.4 669.8,75.8 671.0,79.3 672.1,82.8 673.3,86.3 674.4,89.8 675.5,93.3 676.5,96.9 677.6,100.4 678.6,103.9 679.6,107.4 680.5,110.9 681.5,114.5 682.4,118.0 683.3,121.5 684.2,125.0 685.1,128.5 686.0,132.1 686.8,135.6 687.6,139.1 688.5,142.6 689.3,146.1 690.3,150.8 691.4,155.5 692.4,160.2 693.3,164.9 694.3,169.6 695.3,19.3 696.2,24.0 697.1,28.7 698.0,33.4 698.9,38.1 699.7,42.8 700.6,47.4 701.4,52.1 702.2,56.8 703.0,61.5 704.0,67.4 705.0,73.3 705.9,79.1 706.8,85.0 707.7,90.9 708.6,96.7 709.5,102.6 710.4,108.4 711.2,114.3 712.0,120.2 712.9,126.0 713.8,133.1 714.7,140.1 715.7,147.2 716.6,154.2 717.5,161.2 718.3,168.3 719.2,20.3 720.0,27.4 720.8,34.4 721.7,41.4 722.6,49.6 723.5,57.9 724.4,66.1 725.3,74.3 726.1,82.5 727.0,90.7 727.8,98.9 728.6,107.1 729.4,115.3 730.3,124.7 731.2,134.1 732.1,143.5 732.9,152.9 733.7,162.3 734.6,16.6 735.4,26.0 736.3,36.6 737.1,47.1 738.0,57.7 738.8,68.3 739.7,78.8 740.5,89.4 741.3,99.9 742.2,111.7 743.0,123.4 743.9,135.1 744.7,146.9 745.5,158.6 746.4,16.5 747.2,29.4 748.1,42.3 748.9,55.2 749.7,68.1 750.5,81.0 751.4,95.1 752.2,109.2 753.1,123.2 753.9,137.3 754.7,151.4 755.6,166.6 756.4,26.9 757.2,42.1 758.0,57.4 758.9,73.8 759.7,90.2 760.6,106.7 761.4,123.1 762.2,140.7 763.1,158.3 763.9,20.9 764.7,38.5 765.6,57.2 766.4,76.0 767.2,94.8 768.0,113.6 768.9,133.5 769.7,153.4 770.5,18.4 771.3,39.5 772.2,60.6 773.0,81.7 773.8,102.8 774.6,125.1 775.4,147.4 776.3,169.7 777.1,38.2 777.9,61.6 778.7,85.1 779.5,109.7 780.4,134.4 781.2,159.0 782.0,29.8 782.8,55.6 783.6,82.6 784.4,109.6 785.2,136.6 786.1,164.7 786.9,37.9 787.7,67.2 788.5,96.5 789.3,125.9 790.1,156.4 791.0,31.9 791.8,63.5 792.6,95.2 793.4,128.0 794.2,160.9 795.0,39.9 795.9,73.9 796.7,109.1 797.5,144.3 798.3,25.7 799.1,62.1 799.9,99.6 L799.9,93.5 L445.5,93.5 Z" fill="url(#g280)" clip-path="url(#c282)"/>
  <defs><clipPath id="pc283"><rect x="442" y="16" width="358" height="155"/></clipPath></defs>
  <polyline points="445.5,94.7 478.1,95.8 497.2,97.0 510.8,98.2 521.3,99.4 529.9,100.5 537.1,101.7 543.4,102.9 549.0,104.1 553.9,105.2 558.4,106.4 562.5,107.6 566.3,108.8 569.8,109.9 573.0,111.1 576.1,112.3 578.9,113.4 581.6,114.6 584.2,115.8 586.6,117.0 588.9,118.1 591.1,119.3 593.2,120.5 595.2,121.7 597.1,122.8 598.9,124.0 600.7,125.2 602.4,126.3 604.1,127.5 605.7,128.7 607.2,129.9 608.7,131.0 610.2,132.2 611.6,133.4 612.9,134.6 614.3,135.7 615.6,136.9 616.8,138.1 618.0,139.3 619.2,140.4 620.4,141.6 621.5,142.8 622.6,143.9 623.7,145.1 624.8,146.3 625.8,147.5 626.8,148.6 627.8,149.8 628.8,151.0 629.7,152.2 630.7,153.3 631.6,154.5 632.5,155.7 633.4,156.8 634.2,158.0 635.1,159.2 635.9,160.4 636.7,161.5 637.5,162.7 639.1,165.1 640.6,167.4 642.1,169.8 643.5,17.1 644.9,19.4 646.2,21.8 647.6,24.1 648.8,26.5 650.1,28.8 651.3,31.2 652.5,33.5 653.6,35.9 654.7,38.2 655.8,40.6 656.9,42.9 657.9,45.3 659.0,47.6 660.0,49.9 660.9,52.3 661.9,54.6 662.8,57.0 663.8,59.3 664.7,61.7 665.6,64.0 666.4,66.4 667.3,68.7 668.1,71.1 669.0,73.4 669.8,75.8 671.0,79.3 672.1,82.8 673.3,86.3 674.4,89.8 675.5,93.3 676.5,96.9 677.6,100.4 678.6,103.9 679.6,107.4 680.5,110.9 681.5,114.5 682.4,118.0 683.3,121.5 684.2,125.0 685.1,128.5 686.0,132.1 686.8,135.6 687.6,139.1 688.5,142.6 689.3,146.1 690.3,150.8 691.4,155.5 692.4,160.2 693.3,164.9 694.3,169.6 695.3,19.3 696.2,24.0 697.1,28.7 698.0,33.4 698.9,38.1 699.7,42.8 700.6,47.4 701.4,52.1 702.2,56.8 703.0,61.5 704.0,67.4 705.0,73.3 705.9,79.1 706.8,85.0 707.7,90.9 708.6,96.7 709.5,102.6 710.4,108.4 711.2,114.3 712.0,120.2 712.9,126.0 713.8,133.1 714.7,140.1 715.7,147.2 716.6,154.2 717.5,161.2 718.3,168.3 719.2,20.3 720.0,27.4 720.8,34.4 721.7,41.4 722.6,49.6 723.5,57.9 724.4,66.1 725.3,74.3 726.1,82.5 727.0,90.7 727.8,98.9 728.6,107.1 729.4,115.3 730.3,124.7 731.2,134.1 732.1,143.5 732.9,152.9 733.7,162.3 734.6,16.6 735.4,26.0 736.3,36.6 737.1,47.1 738.0,57.7 738.8,68.3 739.7,78.8 740.5,89.4 741.3,99.9 742.2,111.7 743.0,123.4 743.9,135.1 744.7,146.9 745.5,158.6 746.4,16.5 747.2,29.4 748.1,42.3 748.9,55.2 749.7,68.1 750.5,81.0 751.4,95.1 752.2,109.2 753.1,123.2 753.9,137.3 754.7,151.4 755.6,166.6 756.4,26.9 757.2,42.1 758.0,57.4 758.9,73.8 759.7,90.2 760.6,106.7 761.4,123.1 762.2,140.7 763.1,158.3 763.9,20.9 764.7,38.5 765.6,57.2 766.4,76.0 767.2,94.8 768.0,113.6 768.9,133.5 769.7,153.4 770.5,18.4 771.3,39.5 772.2,60.6 773.0,81.7 773.8,102.8 774.6,125.1 775.4,147.4 776.3,169.7 777.1,38.2 777.9,61.6 778.7,85.1 779.5,109.7 780.4,134.4 781.2,159.0 782.0,29.8 782.8,55.6 783.6,82.6 784.4,109.6 785.2,136.6 786.1,164.7 786.9,37.9 787.7,67.2 788.5,96.5 789.3,125.9 790.1,156.4 791.0,31.9 791.8,63.5 792.6,95.2 793.4,128.0 794.2,160.9 795.0,39.9 795.9,73.9 796.7,109.1 797.5,144.3 798.3,25.7 799.1,62.1 799.9,99.6" fill="none" stroke="#e74c3c" stroke-width="1.5" stroke-linejoin="round" clip-path="url(#pc283)"/>
  <line x1="34" y1="221" x2="34" y2="376" stroke="#d1d5db"/>
  <line x1="34" y1="298.5" x2="392" y2="298.5" stroke="#d1d5db"/>
  <text x="213" y="402" text-anchor="middle" font-size="9" fill="#6b7280">Hz</text>
  <text x="12" y="298.5" text-anchor="middle" font-size="9" fill="#6b7280" transform="rotate(-90 12 298.5)">Group delay</text>
  <line x1="66.6" y1="221" x2="66.6" y2="376" stroke="#e5e7eb" stroke-width="0.5"/>
  <line x1="85.7" y1="221" x2="85.7" y2="376" stroke="#e5e7eb" stroke-width="0.5"/>
  <line x1="99.3" y1="221" x2="99.3" y2="376" stroke="#e5e7eb" stroke-width="0.5"/>
  <line x1="109.8" y1="221" x2="109.8" y2="376" stroke="#e5e7eb" stroke-width="0.5"/>
  <line x1="118.4" y1="221" x2="118.4" y2="376" stroke="#e5e7eb" stroke-width="0.5"/>
  <line x1="125.7" y1="221" x2="125.7" y2="376" stroke="#e5e7eb" stroke-width="0.5"/>
  <line x1="131.9" y1="221" x2="131.9" y2="376" stroke="#e5e7eb" stroke-width="0.5"/>
  <line x1="137.5" y1="221" x2="137.5" y2="376" stroke="#e5e7eb" stroke-width="0.5"/>
  <line x1="175.1" y1="221" x2="175.1" y2="376" stroke="#e5e7eb" stroke-width="0.5"/>
  <line x1="194.2" y1="221" x2="194.2" y2="376" stroke="#e5e7eb" stroke-width="0.5"/>
  <line x1="207.7" y1="221" x2="207.7" y2="376" stroke="#e5e7eb" stroke-width="0.5"/>
  <line x1="218.3" y1="221" x2="218.3" y2="376" stroke="#e5e7eb" stroke-width="0.5"/>
  <line x1="226.8" y1="221" x2="226.8" y2="376" stroke="#e5e7eb" stroke-width="0.5"/>
  <line x1="234.1" y1="221" x2="234.1" y2="376" stroke="#e5e7eb" stroke-width="0.5"/>
  <line x1="240.4" y1="221" x2="240.4" y2="376" stroke="#e5e7eb" stroke-width="0.5"/>
  <line x1="245.9" y1="221" x2="245.9" y2="376" stroke="#e5e7eb" stroke-width="0.5"/>
  <line x1="283.5" y1="221" x2="283.5" y2="376" stroke="#e5e7eb" stroke-width="0.5"/>
  <line x1="302.6" y1="221" x2="302.6" y2="376" stroke="#e5e7eb" stroke-width="0.5"/>
  <line x1="316.2" y1="221" x2="316.2" y2="376" stroke="#e5e7eb" stroke-width="0.5"/>
  <line x1="326.7" y1="221" x2="326.7" y2="376" stroke="#e5e7eb" stroke-width="0.5"/>
  <line x1="335.3" y1="221" x2="335.3" y2="376" stroke="#e5e7eb" stroke-width="0.5"/>
  <line x1="342.6" y1="221" x2="342.6" y2="376" stroke="#e5e7eb" stroke-width="0.5"/>
  <line x1="348.8" y1="221" x2="348.8" y2="376" stroke="#e5e7eb" stroke-width="0.5"/>
  <line x1="354.4" y1="221" x2="354.4" y2="376" stroke="#e5e7eb" stroke-width="0.5"/>
  <line x1="392.0" y1="221" x2="392.0" y2="376" stroke="#e5e7eb" stroke-width="0.5"/>
  <line x1="142.5" y1="221" x2="142.5" y2="376" stroke="#e5e7eb" stroke-width="0.5"/>
  <text x="142.5" y="388" text-anchor="middle" font-size="8" fill="#6b7280">100</text>
  <line x1="250.9" y1="221" x2="250.9" y2="376" stroke="#e5e7eb" stroke-width="0.5"/>
  <text x="250.9" y="388" text-anchor="middle" font-size="8" fill="#6b7280">1k</text>
  <line x1="359.4" y1="221" x2="359.4" y2="376" stroke="#e5e7eb" stroke-width="0.5"/>
  <text x="359.4" y="388" text-anchor="middle" font-size="8" fill="#6b7280">10k</text>
  <line x1="34" y1="356.2" x2="392" y2="356.2" stroke="#e5e7eb" stroke-width="0.5"/>
  <text x="30" y="359.2" text-anchor="end" font-size="8" fill="#6b7280">-30</text>
  <text x="30" y="301.5" text-anchor="end" font-size="8" fill="#6b7280">0</text>
  <line x1="34" y1="240.8" x2="392" y2="240.8" stroke="#e5e7eb" stroke-width="0.5"/>
  <text x="30" y="243.8" text-anchor="end" font-size="8" fill="#6b7280">30</text>
  <line x1="250.9" y1="221" x2="250.9" y2="376" stroke="#d1d5db" stroke-width="1" stroke-dasharray="4 3"/>
  <defs><linearGradient id="g284" x1="0" y1="221" x2="0" y2="298.5" gradientUnits="userSpaceOnUse">
    <stop offset="0%" stop-color="#2ecc71" stop-opacity="0.15"/>
    <stop offset="100%" stop-color="#2ecc71" stop-opacity="0.02"/>
  </linearGradient></defs>
  <path d="M37.5,238.9 37.5,238.9 70.1,238.9 89.2,238.9 102.8,238.9 113.3,238.9 121.9,238.9 129.1,238.9 135.4,238.9 141.0,238.9 145.9,238.9 150.4,238.9 154.5,238.9 158.3,238.9 161.8,238.9 165.0,238.9 168.1,238.9 170.9,238.9 173.6,238.9 176.2,238.9 178.6,238.9 180.9,238.9 183.1,238.9 185.2,238.9 187.2,238.9 189.1,238.9 190.9,238.9 192.7,238.9 194.4,238.9 196.1,238.9 197.7,238.9 199.2,238.9 200.7,238.9 202.2,238.9 203.6,238.9 204.9,238.9 206.3,238.9 207.6,238.9 208.8,238.9 210.0,238.9 211.2,238.9 212.4,238.9 213.5,238.9 214.6,238.9 215.7,238.9 216.8,238.9 217.8,238.9 218.8,238.9 219.8,238.9 220.8,238.9 221.7,238.9 222.7,238.9 223.6,238.9 224.5,238.9 225.4,238.9 226.2,238.9 227.1,238.9 227.9,238.9 228.7,238.9 229.5,238.9 231.1,238.9 232.6,238.9 234.1,238.9 235.5,238.9 236.9,238.9 238.2,238.9 239.6,238.9 240.8,238.9 242.1,238.9 243.3,238.9 244.5,238.9 245.6,238.9 246.7,238.9 247.8,238.9 248.9,238.9 249.9,238.9 251.0,238.9 252.0,238.9 252.9,238.9 253.9,238.9 254.8,238.9 255.8,238.9 256.7,238.9 257.6,238.9 258.4,238.9 259.3,238.9 260.1,238.9 261.0,238.9 261.8,238.9 263.0,238.9 264.1,238.9 265.3,238.9 266.4,238.9 267.5,238.9 268.5,238.9 269.6,238.9 270.6,238.9 271.6,238.9 272.5,238.9 273.5,238.9 274.4,238.9 275.3,238.9 276.2,238.9 277.1,238.9 278.0,238.9 278.8,238.9 279.6,238.9 280.5,238.9 281.3,238.9 282.3,238.9 283.4,238.9 284.4,238.9 285.3,238.9 286.3,238.9 287.3,238.9 288.2,238.9 289.1,238.9 290.0,238.9 290.9,238.9 291.7,238.9 292.6,238.9 293.4,238.9 294.2,238.9 295.0,238.9 296.0,238.9 297.0,238.9 297.9,238.9 298.8,238.9 299.7,238.9 300.6,238.9 301.5,238.9 302.4,238.9 303.2,238.9 304.0,238.9 304.9,238.9 305.8,238.9 306.7,238.9 307.7,238.9 308.6,238.9 309.5,238.9 310.3,238.9 311.2,238.9 312.0,238.9 312.8,238.9 313.7,238.9 314.6,238.9 315.5,238.9 316.4,238.9 317.3,238.9 318.1,238.9 319.0,238.9 319.8,238.9 320.6,238.9 321.4,238.9 322.3,238.9 323.2,238.9 324.1,238.9 324.9,238.9 325.7,238.9 326.6,238.9 327.4,238.9 328.3,238.9 329.1,238.9 330.0,238.9 330.8,238.9 331.7,238.9 332.5,238.9 333.3,238.9 334.2,238.9 335.0,238.9 335.9,238.9 336.7,238.9 337.5,238.9 338.4,238.9 339.2,238.9 340.1,238.9 340.9,238.9 341.7,238.9 342.5,238.9 343.4,238.9 344.2,238.9 345.1,238.9 345.9,238.9 346.7,238.9 347.6,238.9 348.4,238.9 349.2,238.9 350.0,238.9 350.9,238.9 351.7,238.9 352.6,238.9 353.4,238.9 354.2,238.9 355.1,238.9 355.9,238.9 356.7,238.9 357.6,238.9 358.4,238.9 359.2,238.9 360.0,238.9 360.9,238.9 361.7,238.9 362.5,238.9 363.3,238.9 364.2,238.9 365.0,238.9 365.8,238.9 366.6,238.9 367.4,238.9 368.3,238.9 369.1,238.9 369.9,238.9 370.7,238.9 371.5,238.9 372.4,238.9 373.2,238.9 374.0,238.9 374.8,238.9 375.6,238.9 376.4,238.9 377.2,238.9 378.1,238.9 378.9,238.9 379.7,238.9 380.5,238.9 381.3,238.9 382.1,238.9 383.0,238.9 383.8,238.9 384.6,238.9 385.4,238.9 386.2,238.9 387.0,238.9 387.9,238.9 388.7,238.9 389.5,238.9 390.3,238.9 391.1,238.9 391.9,238.9 L391.9,298.5 L37.5,298.5 Z" fill="url(#g284)"/>
  <defs><clipPath id="pc285"><rect x="34" y="221" width="358" height="155"/></clipPath></defs>
  <polyline points="37.5,238.9 70.1,238.9 89.2,238.9 102.8,238.9 113.3,238.9 121.9,238.9 129.1,238.9 135.4,238.9 141.0,238.9 145.9,238.9 150.4,238.9 154.5,238.9 158.3,238.9 161.8,238.9 165.0,238.9 168.1,238.9 170.9,238.9 173.6,238.9 176.2,238.9 178.6,238.9 180.9,238.9 183.1,238.9 185.2,238.9 187.2,238.9 189.1,238.9 190.9,238.9 192.7,238.9 194.4,238.9 196.1,238.9 197.7,238.9 199.2,238.9 200.7,238.9 202.2,238.9 203.6,238.9 204.9,238.9 206.3,238.9 207.6,238.9 208.8,238.9 210.0,238.9 211.2,238.9 212.4,238.9 213.5,238.9 214.6,238.9 215.7,238.9 216.8,238.9 217.8,238.9 218.8,238.9 219.8,238.9 220.8,238.9 221.7,238.9 222.7,238.9 223.6,238.9 224.5,238.9 225.4,238.9 226.2,238.9 227.1,238.9 227.9,238.9 228.7,238.9 229.5,238.9 231.1,238.9 232.6,238.9 234.1,238.9 235.5,238.9 236.9,238.9 238.2,238.9 239.6,238.9 240.8,238.9 242.1,238.9 243.3,238.9 244.5,238.9 245.6,238.9 246.7,238.9 247.8,238.9 248.9,238.9 249.9,238.9 251.0,238.9 252.0,238.9 252.9,238.9 253.9,238.9 254.8,238.9 255.8,238.9 256.7,238.9 257.6,238.9 258.4,238.9 259.3,238.9 260.1,238.9 261.0,238.9 261.8,238.9 263.0,238.9 264.1,238.9 265.3,238.9 266.4,238.9 267.5,238.9 268.5,238.9 269.6,238.9 270.6,238.9 271.6,238.9 272.5,238.9 273.5,238.9 274.4,238.9 275.3,238.9 276.2,238.9 277.1,238.9 278.0,238.9 278.8,238.9 279.6,238.9 280.5,238.9 281.3,238.9 282.3,238.9 283.4,238.9 284.4,238.9 285.3,238.9 286.3,238.9 287.3,238.9 288.2,238.9 289.1,238.9 290.0,238.9 290.9,238.9 291.7,238.9 292.6,238.9 293.4,238.9 294.2,238.9 295.0,238.9 296.0,238.9 297.0,238.9 297.9,238.9 298.8,238.9 299.7,238.9 300.6,238.9 301.5,238.9 302.4,238.9 303.2,238.9 304.0,238.9 304.9,238.9 305.8,238.9 306.7,238.9 307.7,238.9 308.6,238.9 309.5,238.9 310.3,238.9 311.2,238.9 312.0,238.9 312.8,238.9 313.7,238.9 314.6,238.9 315.5,238.9 316.4,238.9 317.3,238.9 318.1,238.9 319.0,238.9 319.8,238.9 320.6,238.9 321.4,238.9 322.3,238.9 323.2,238.9 324.1,238.9 324.9,238.9 325.7,238.9 326.6,238.9 327.4,238.9 328.3,238.9 329.1,238.9 330.0,238.9 330.8,238.9 331.7,238.9 332.5,238.9 333.3,238.9 334.2,238.9 335.0,238.9 335.9,238.9 336.7,238.9 337.5,238.9 338.4,238.9 339.2,238.9 340.1,238.9 340.9,238.9 341.7,238.9 342.5,238.9 343.4,238.9 344.2,238.9 345.1,238.9 345.9,238.9 346.7,238.9 347.6,238.9 348.4,238.9 349.2,238.9 350.0,238.9 350.9,238.9 351.7,238.9 352.6,238.9 353.4,238.9 354.2,238.9 355.1,238.9 355.9,238.9 356.7,238.9 357.6,238.9 358.4,238.9 359.2,238.9 360.0,238.9 360.9,238.9 361.7,238.9 362.5,238.9 363.3,238.9 364.2,238.9 365.0,238.9 365.8,238.9 366.6,238.9 367.4,238.9 368.3,238.9 369.1,238.9 369.9,238.9 370.7,238.9 371.5,238.9 372.4,238.9 373.2,238.9 374.0,238.9 374.8,238.9 375.6,238.9 376.4,238.9 377.2,238.9 378.1,238.9 378.9,238.9 379.7,238.9 380.5,238.9 381.3,238.9 382.1,238.9 383.0,238.9 383.8,238.9 384.6,238.9 385.4,238.9 386.2,238.9 387.0,238.9 387.9,238.9 388.7,238.9 389.5,238.9 390.3,238.9 391.1,238.9 391.9,238.9" fill="none" stroke="#2ecc71" stroke-width="1.5" stroke-linejoin="round" clip-path="url(#pc285)"/>
  <line x1="442" y1="221" x2="442" y2="376" stroke="#d1d5db"/>
  <line x1="442" y1="298.5" x2="800" y2="298.5" stroke="#d1d5db"/>
  <text x="621" y="402" text-anchor="middle" font-size="9" fill="#6b7280">Samples</text>
  <text x="420" y="298.5" text-anchor="middle" font-size="9" fill="#6b7280" transform="rotate(-90 420 298.5)">Impulse response</text>
  <line x1="442.0" y1="221" x2="442.0" y2="376" stroke="#e5e7eb" stroke-width="0.5"/>
  <text x="442.0" y="388" text-anchor="middle" font-size="8" fill="#6b7280">0</text>
  <line x1="612.5" y1="221" x2="612.5" y2="376" stroke="#e5e7eb" stroke-width="0.5"/>
  <text x="612.5" y="388" text-anchor="middle" font-size="8" fill="#6b7280">30</text>
  <line x1="783.0" y1="221" x2="783.0" y2="376" stroke="#e5e7eb" stroke-width="0.5"/>
  <text x="783.0" y="388" text-anchor="middle" font-size="8" fill="#6b7280">60</text>
  <line x1="442" y1="355.3" x2="800" y2="355.3" stroke="#e5e7eb" stroke-width="0.5"/>
  <text x="438" y="358.3" text-anchor="end" font-size="8" fill="#6b7280">-0.7</text>
  <text x="438" y="301.5" text-anchor="end" font-size="8" fill="#6b7280">0</text>
  <line x1="442" y1="241.7" x2="800" y2="241.7" stroke="#e5e7eb" stroke-width="0.5"/>
  <text x="438" y="244.7" text-anchor="end" font-size="8" fill="#6b7280">0.7</text>
  <defs><linearGradient id="g286" x1="0" y1="221" x2="0" y2="298.5" gradientUnits="userSpaceOnUse">
    <stop offset="0%" stop-color="#f39c12" stop-opacity="0.15"/>
    <stop offset="100%" stop-color="#f39c12" stop-opacity="0.02"/>
  </linearGradient></defs>
  <defs><linearGradient id="g287" x1="0" y1="376" x2="0" y2="298.5" gradientUnits="userSpaceOnUse">
    <stop offset="0%" stop-color="#f39c12" stop-opacity="0.15"/>
    <stop offset="100%" stop-color="#f39c12" stop-opacity="0.02"/>
  </linearGradient></defs>
  <defs><clipPath id="c288"><rect x="442" y="221" width="358" height="77.5"/></clipPath></defs>
  <defs><clipPath id="c289"><rect x="442" y="298.5" width="358" height="77.5"/></clipPath></defs>
  <path d="M442.0,298.4 442.0,298.4 447.7,298.4 453.4,298.4 459.0,298.4 464.7,298.4 470.4,298.4 476.1,298.4 481.8,298.4 487.5,298.5 493.1,298.5 498.8,298.6 504.5,298.6 510.2,298.7 515.9,298.8 521.6,299.0 527.2,299.1 532.9,299.3 538.6,299.5 544.3,299.8 550.0,300.0 555.7,300.2 561.3,300.5 567.0,300.8 572.7,301.0 578.4,301.3 584.1,301.5 589.7,301.7 595.4,301.9 601.1,302.0 606.8,302.1 612.5,302.2 618.2,221.0 623.8,302.2 629.5,302.1 635.2,302.0 640.9,301.9 646.6,301.7 652.3,301.5 657.9,301.3 663.6,301.0 669.3,300.8 675.0,300.5 680.7,300.2 686.3,300.0 692.0,299.8 697.7,299.5 703.4,299.3 709.1,299.1 714.8,299.0 720.4,298.8 726.1,298.7 731.8,298.6 737.5,298.6 743.2,298.5 748.9,298.5 754.5,298.4 760.2,298.4 765.9,298.4 771.6,298.4 777.3,298.4 783.0,298.4 788.6,298.4 794.3,298.4 L794.3,298.5 L442.0,298.5 Z" fill="url(#g286)" clip-path="url(#c288)"/>
  <path d="M442.0,298.4 442.0,298.4 447.7,298.4 453.4,298.4 459.0,298.4 464.7,298.4 470.4,298.4 476.1,298.4 481.8,298.4 487.5,298.5 493.1,298.5 498.8,298.6 504.5,298.6 510.2,298.7 515.9,298.8 521.6,299.0 527.2,299.1 532.9,299.3 538.6,299.5 544.3,299.8 550.0,300.0 555.7,300.2 561.3,300.5 567.0,300.8 572.7,301.0 578.4,301.3 584.1,301.5 589.7,301.7 595.4,301.9 601.1,302.0 606.8,302.1 612.5,302.2 618.2,221.0 623.8,302.2 629.5,302.1 635.2,302.0 640.9,301.9 646.6,301.7 652.3,301.5 657.9,301.3 663.6,301.0 669.3,300.8 675.0,300.5 680.7,300.2 686.3,300.0 692.0,299.8 697.7,299.5 703.4,299.3 709.1,299.1 714.8,299.0 720.4,298.8 726.1,298.7 731.8,298.6 737.5,298.6 743.2,298.5 748.9,298.5 754.5,298.4 760.2,298.4 765.9,298.4 771.6,298.4 777.3,298.4 783.0,298.4 788.6,298.4 794.3,298.4 L794.3,298.5 L442.0,298.5 Z" fill="url(#g287)" clip-path="url(#c289)"/>
  <defs><clipPath id="pc290"><rect x="442" y="221" width="358" height="155"/></clipPath></defs>
  <polyline points="442.0,298.4 447.7,298.4 453.4,298.4 459.0,298.4 464.7,298.4 470.4,298.4 476.1,298.4 481.8,298.4 487.5,298.5 493.1,298.5 498.8,298.6 504.5,298.6 510.2,298.7 515.9,298.8 521.6,299.0 527.2,299.1 532.9,299.3 538.6,299.5 544.3,299.8 550.0,300.0 555.7,300.2 561.3,300.5 567.0,300.8 572.7,301.0 578.4,301.3 584.1,301.5 589.7,301.7 595.4,301.9 601.1,302.0 606.8,302.1 612.5,302.2 618.2,221.0 623.8,302.2 629.5,302.1 635.2,302.0 640.9,301.9 646.6,301.7 652.3,301.5 657.9,301.3 663.6,301.0 669.3,300.8 675.0,300.5 680.7,300.2 686.3,300.0 692.0,299.8 697.7,299.5 703.4,299.3 709.1,299.1 714.8,299.0 720.4,298.8 726.1,298.7 731.8,298.6 737.5,298.6 743.2,298.5 748.9,298.5 754.5,298.4 760.2,298.4 765.9,298.4 771.6,298.4 777.3,298.4 783.0,298.4 788.6,298.4 794.3,298.4" fill="none" stroke="#f39c12" stroke-width="1.3" stroke-linejoin="round" clip-path="url(#pc290)"/>
</svg>
