<svg xmlns="http://www.w3.org/2000/svg" viewBox="0 0 820 378" style="font-family:system-ui,-apple-system,sans-serif">
  <text x="800" y="11" text-anchor="end" font-size="11" font-weight="600" fill="#6b7280">firwin lowpass, 63 taps, fc=1kHz</text>
  <line x1="34" y1="16" x2="34" y2="171" stroke="#d1d5db"/>
  <line x1="34" y1="47.0" x2="399" y2="47.0" stroke="#d1d5db"/>
  <text x="216.5" y="197" text-anchor="middle" font-size="9" fill="#6b7280">Hz</text>
  <text x="12" y="93.5" text-anchor="middle" font-size="9" fill="#6b7280" transform="rotate(-90 12 93.5)">dB</text>
  <line x1="67.3" y1="16" x2="67.3" y2="171" stroke="#e5e7eb" stroke-width="0.5"/>
  <line x1="86.8" y1="16" x2="86.8" y2="171" stroke="#e5e7eb" stroke-width="0.5"/>
  <line x1="100.6" y1="16" x2="100.6" y2="171" stroke="#e5e7eb" stroke-width="0.5"/>
  <line x1="111.3" y1="16" x2="111.3" y2="171" stroke="#e5e7eb" stroke-width="0.5"/>
  <line x1="120.0" y1="16" x2="120.0" y2="171" stroke="#e5e7eb" stroke-width="0.5"/>
  <line x1="127.4" y1="16" x2="127.4" y2="171" stroke="#e5e7eb" stroke-width="0.5"/>
  <line x1="133.9" y1="16" x2="133.9" y2="171" stroke="#e5e7eb" stroke-width="0.5"/>
  <line x1="139.5" y1="16" x2="139.5" y2="171" stroke="#e5e7eb" stroke-width="0.5"/>
  <line x1="177.9" y1="16" x2="177.9" y2="171" stroke="#e5e7eb" stroke-width="0.5"/>
  <line x1="197.3" y1="16" x2="197.3" y2="171" stroke="#e5e7eb" stroke-width="0.5"/>
  <line x1="211.1" y1="16" x2="211.1" y2="171" stroke="#e5e7eb" stroke-width="0.5"/>
  <line x1="221.9" y1="16" x2="221.9" y2="171" stroke="#e5e7eb" stroke-width="0.5"/>
  <line x1="230.6" y1="16" x2="230.6" y2="171" stroke="#e5e7eb" stroke-width="0.5"/>
  <line x1="238.0" y1="16" x2="238.0" y2="171" stroke="#e5e7eb" stroke-width="0.5"/>
  <line x1="244.4" y1="16" x2="244.4" y2="171" stroke="#e5e7eb" stroke-width="0.5"/>
  <line x1="250.1" y1="16" x2="250.1" y2="171" stroke="#e5e7eb" stroke-width="0.5"/>
  <line x1="288.4" y1="16" x2="288.4" y2="171" stroke="#e5e7eb" stroke-width="0.5"/>
  <line x1="307.9" y1="16" x2="307.9" y2="171" stroke="#e5e7eb" stroke-width="0.5"/>
  <line x1="321.7" y1="16" x2="321.7" y2="171" stroke="#e5e7eb" stroke-width="0.5"/>
  <line x1="332.4" y1="16" x2="332.4" y2="171" stroke="#e5e7eb" stroke-width="0.5"/>
  <line x1="341.2" y1="16" x2="341.2" y2="171" stroke="#e5e7eb" stroke-width="0.5"/>
  <line x1="348.6" y1="16" x2="348.6" y2="171" stroke="#e5e7eb" stroke-width="0.5"/>
  <line x1="355.0" y1="16" x2="355.0" y2="171" stroke="#e5e7eb" stroke-width="0.5"/>
  <line x1="360.7" y1="16" x2="360.7" y2="171" stroke="#e5e7eb" stroke-width="0.5"/>
  <line x1="399.0" y1="16" x2="399.0" y2="171" stroke="#e5e7eb" stroke-width="0.5"/>
  <line x1="144.6" y1="16" x2="144.6" y2="171" stroke="#e5e7eb" stroke-width="0.5"/>
  <text x="144.6" y="183" text-anchor="middle" font-size="8" fill="#6b7280">100</text>
  <line x1="255.1" y1="16" x2="255.1" y2="171" stroke="#e5e7eb" stroke-width="0.5"/>
  <text x="255.1" y="183" text-anchor="middle" font-size="8" fill="#6b7280">1k</text>
  <line x1="365.7" y1="16" x2="365.7" y2="171" stroke="#e5e7eb" stroke-width="0.5"/>
  <text x="365.7" y="183" text-anchor="middle" font-size="8" fill="#6b7280">10k</text>
  <line x1="34" y1="31.5" x2="399" y2="31.5" stroke="#e5e7eb" stroke-width="0.5"/>
  <line x1="34" y1="62.5" x2="399" y2="62.5" stroke="#e5e7eb" stroke-width="0.5"/>
  <line x1="34" y1="16.0" x2="399" y2="16.0" stroke="#e5e7eb" stroke-width="0.5"/>
  <text x="30" y="19.0" text-anchor="end" font-size="8" fill="#6b7280">+20</text>
  <text x="30" y="50.0" text-anchor="end" font-size="8" fill="#6b7280">0</text>
  <line x1="34" y1="78.0" x2="399" y2="78.0" stroke="#e5e7eb" stroke-width="0.5"/>
  <text x="30" y="81.0" text-anchor="end" font-size="8" fill="#6b7280">-20</text>
  <line x1="34" y1="109.0" x2="399" y2="109.0" stroke="#e5e7eb" stroke-width="0.5"/>
  <text x="30" y="112.0" text-anchor="end" font-size="8" fill="#6b7280">-40</text>
  <line x1="34" y1="140.0" x2="399" y2="140.0" stroke="#e5e7eb" stroke-width="0.5"/>
  <text x="30" y="143.0" text-anchor="end" font-size="8" fill="#6b7280">-60</text>
  <line x1="34" y1="171.0" x2="399" y2="171.0" stroke="#e5e7eb" stroke-width="0.5"/>
  <text x="30" y="174.0" text-anchor="end" font-size="8" fill="#6b7280">-80</text>
  <line x1="255.1" y1="16" x2="255.1" y2="171" stroke="#d1d5db" stroke-width="1" stroke-dasharray="4 3"/>
  <defs><linearGradient id="g260" x1="0" y1="16" x2="0" y2="171" gradientUnits="userSpaceOnUse">
    <stop offset="0%" stop-color="#4a90d9" stop-opacity="0.15"/>
    <stop offset="100%" stop-color="#4a90d9" stop-opacity="0.02"/>
  </linearGradient></defs>
  <path d="M37.5,47.0 37.5,47.0 70.8,47.0 90.3,47.0 104.1,47.0 114.8,47.0 123.6,47.0 131.0,47.0 137.4,47.1 143.1,47.1 148.1,47.1 152.7,47.1 156.9,47.1 160.7,47.1 164.3,47.2 167.6,47.2 170.7,47.2 173.6,47.2 176.3,47.3 178.9,47.3 181.4,47.3 183.7,47.4 186.0,47.4 188.1,47.5 190.2,47.5 192.1,47.5 194.0,47.6 195.8,47.6 197.6,47.7 199.2,47.7 200.9,47.8 202.4,47.8 204.0,47.9 205.5,48.0 206.9,48.0 208.3,48.1 209.6,48.1 210.9,48.2 212.2,48.3 213.5,48.4 214.7,48.4 215.9,48.5 217.0,48.6 218.2,48.7 219.3,48.7 220.3,48.8 221.4,48.9 222.4,49.0 223.4,49.1 224.4,49.2 225.4,49.3 226.4,49.4 227.3,49.5 228.2,49.6 229.1,49.7 230.0,49.8 230.8,49.9 231.7,50.0 232.5,50.1 233.4,50.2 234.2,50.4 235.7,50.6 237.3,50.9 238.7,51.1 240.2,51.4 241.6,51.7 242.9,52.0 244.2,52.3 245.5,52.6 246.8,53.0 248.0,53.3 249.2,53.7 250.3,54.0 251.4,54.4 252.6,54.8 253.6,55.2 254.7,55.7 255.7,56.1 256.7,56.6 257.7,57.0 258.7,57.5 259.6,58.0 260.6,58.5 261.5,59.1 262.4,59.6 263.3,60.2 264.1,60.8 265.0,61.4 265.8,62.0 266.6,62.6 267.4,63.3 268.6,64.3 269.8,65.4 270.9,66.5 272.0,67.7 273.1,69.0 274.2,70.3 275.2,71.6 276.2,73.0 277.2,74.5 278.2,76.1 279.1,77.7 280.0,79.4 281.0,81.2 281.9,83.1 282.7,85.0 283.6,87.1 284.5,89.3 285.3,91.7 286.1,94.2 286.9,96.8 288.0,100.6 289.0,104.8 290.0,109.5 291.0,114.9 292.0,121.2 292.9,129.1 293.9,140.3 294.8,167.1 295.7,152.9 296.6,145.6 297.4,143.7 298.3,143.7 299.1,144.9 299.9,146.4 300.7,147.8 301.7,148.3 302.7,146.9 303.6,144.1 304.6,140.8 305.5,137.6 306.4,134.8 307.3,132.7 308.1,131.1 309.0,130.2 309.8,129.9 310.6,130.3 311.4,131.5 312.4,134.4 313.3,139.7 314.2,151.5 315.1,160.3 316.0,142.0 316.9,135.1 317.7,131.3 318.6,129.2 319.4,128.4 320.2,128.7 321.1,130.6 322.0,134.6 322.9,142.8 323.8,171.0 324.7,144.6 325.5,135.7 326.3,131.4 327.1,129.5 327.9,129.2 328.8,130.9 329.7,135.1 330.6,144.6 331.4,170.2 332.3,141.6 333.1,134.3 333.9,131.1 334.8,130.4 335.7,132.3 336.5,137.7 337.4,152.4 338.2,151.0 339.0,137.8 339.8,133.0 340.7,131.6 341.6,133.5 342.4,139.7 343.3,161.2 344.1,146.1 344.9,136.4 345.8,132.9 346.6,133.7 347.5,139.0 348.3,157.2 349.1,147.5 350.0,136.5 350.8,133.9 351.7,136.0 352.5,145.0 353.3,163.6 354.1,139.9 355.0,135.1 355.8,136.2 356.6,144.7 357.5,165.0 358.3,140.2 359.1,135.8 360.0,138.2 360.8,151.4 361.6,149.1 362.5,137.9 363.3,137.2 364.1,145.1 364.9,158.7 365.8,139.8 366.6,137.6 367.4,144.8 368.2,159.6 369.1,140.1 369.9,138.6 370.7,150.0 371.6,150.0 372.4,139.1 373.2,141.4 374.0,171.0 374.8,142.7 375.6,139.6 376.5,152.5 377.3,147.7 378.1,139.7 378.9,147.9 379.7,151.8 380.5,140.3 381.4,147.4 382.2,152.3 383.0,140.7 383.8,149.8 384.6,149.2 385.5,141.2 386.3,159.9 387.1,144.5 387.9,143.5 388.7,164.5 389.5,141.7 390.3,153.0 391.2,145.6 392.0,144.4 392.8,157.4 393.6,142.2 394.4,171.0 395.2,142.8 396.0,153.5 396.8,144.8 397.6,148.5 398.5,147.0 L398.5,171.0 L37.5,171.0 Z" fill="url(#g260)"/>
  <defs><clipPath id="pc261"><rect x="34" y="16" width="365" height="155"/></clipPath></defs>
  <polyline points="37.5,47.0 70.8,47.0 90.3,47.0 104.1,47.0 114.8,47.0 123.6,47.0 131.0,47.0 137.4,47.1 143.1,47.1 148.1,47.1 152.7,47.1 156.9,47.1 160.7,47.1 164.3,47.2 167.6,47.2 170.7,47.2 173.6,47.2 176.3,47.3 178.9,47.3 181.4,47.3 183.7,47.4 186.0,47.4 188.1,47.5 190.2,47.5 192.1,47.5 194.0,47.6 195.8,47.6 197.6,47.7 199.2,47.7 200.9,47.8 202.4,47.8 204.0,47.9 205.5,48.0 206.9,48.0 208.3,48.1 209.6,48.1 210.9,48.2 212.2,48.3 213.5,48.4 214.7,48.4 215.9,48.5 217.0,48.6 218.2,48.7 219.3,48.7 220.3,48.8 221.4,48.9 222.4,49.0 223.4,49.1 224.4,49.2 225.4,49.3 226.4,49.4 227.3,49.5 228.2,49.6 229.1,49.7 230.0,49.8 230.8,49.9 231.7,50.0 232.5,50.1 233.4,50.2 234.2,50.4 235.7,50.6 237.3,50.9 238.7,51.1 240.2,51.4 241.6,51.7 242.9,52.0 244.2,52.3 245.5,52.6 246.8,53.0 248.0,53.3 249.2,53.7 250.3,54.0 251.4,54.4 252.6,54.8 253.6,55.2 254.7,55.7 255.7,56.1 256.7,56.6 257.7,57.0 258.7,57.5 259.6,58.0 260.6,58.5 261.5,59.1 262.4,59.6 263.3,60.2 264.1,60.8 265.0,61.4 265.8,62.0 266.6,62.6 267.4,63.3 268.6,64.3 269.8,65.4 270.9,66.5 272.0,67.7 273.1,69.0 274.2,70.3 275.2,71.6 276.2,73.0 277.2,74.5 278.2,76.1 279.1,77.7 280.0,79.4 281.0,81.2 281.9,83.1 282.7,85.0 283.6,87.1 284.5,89.3 285.3,91.7 286.1,94.2 286.9,96.8 288.0,100.6 289.0,104.8 290.0,109.5 291.0,114.9 292.0,121.2 292.9,129.1 293.9,140.3 294.8,167.1 295.7,152.9 296.6,145.6 297.4,143.7 298.3,143.7 299.1,144.9 299.9,146.4 300.7,147.8 301.7,148.3 302.7,146.9 303.6,144.1 304.6,140.8 305.5,137.6 306.4,134.8 307.3,132.7 308.1,131.1 309.0,130.2 309.8,129.9 310.6,130.3 311.4,131.5 312.4,134.4 313.3,139.7 314.2,151.5 315.1,160.3 316.0,142.0 316.9,135.1 317.7,131.3 318.6,129.2 319.4,128.4 320.2,128.7 321.1,130.6 322.0,134.6 322.9,142.8 323.8,180.3 324.7,144.6 325.5,135.7 326.3,131.4 327.1,129.5 327.9,129.2 328.8,130.9 329.7,135.1 330.6,144.6 331.4,170.2 332.3,141.6 333.1,134.3 333.9,131.1 334.8,130.4 335.7,132.3 336.5,137.7 337.4,152.4 338.2,151.0 339.0,137.8 339.8,133.0 340.7,131.6 341.6,133.5 342.4,139.7 343.3,161.2 344.1,146.1 344.9,136.4 345.8,132.9 346.6,133.7 347.5,139.0 348.3,157.2 349.1,147.5 350.0,136.5 350.8,133.9 351.7,136.0 352.5,145.0 353.3,163.6 354.1,139.9 355.0,135.1 355.8,136.2 356.6,144.7 357.5,165.0 358.3,140.2 359.1,135.8 360.0,138.2 360.8,151.4 361.6,149.1 362.5,137.9 363.3,137.2 364.1,145.1 364.9,158.7 365.8,139.8 366.6,137.6 367.4,144.8 368.2,159.6 369.1,140.1 369.9,138.6 370.7,150.0 371.6,150.0 372.4,139.1 373.2,141.4 374.0,179.9 374.8,142.7 375.6,139.6 376.5,152.5 377.3,147.7 378.1,139.7 378.9,147.9 379.7,151.8 380.5,140.3 381.4,147.4 382.2,152.3 383.0,140.7 383.8,149.8 384.6,149.2 385.5,141.2 386.3,159.9 387.1,144.5 387.9,143.5 388.7,164.5 389.5,141.7 390.3,153.0 391.2,145.6 392.0,144.4 392.8,157.4 393.6,142.2 394.4,171.7 395.2,142.8 396.0,153.5 396.8,144.8 397.6,148.5 398.5,147.0" fill="none" stroke="#4a90d9" stroke-width="1.5" stroke-linejoin="round" clip-path="url(#pc261)"/>
  <line x1="435" y1="16" x2="435" y2="171" stroke="#d1d5db"/>
  <line x1="435" y1="93.5" x2="800" y2="93.5" stroke="#d1d5db"/>
  <text x="617.5" y="197" text-anchor="middle" font-size="9" fill="#6b7280">Hz</text>
  <text x="413" y="93.5" text-anchor="middle" font-size="9" fill="#6b7280" transform="rotate(-90 413 93.5)">Phase (deg)</text>
  <line x1="468.3" y1="16" x2="468.3" y2="171" stroke="#e5e7eb" stroke-width="0.5"/>
  <line x1="487.8" y1="16" x2="487.8" y2="171" stroke="#e5e7eb" stroke-width="0.5"/>
  <line x1="501.6" y1="16" x2="501.6" y2="171" stroke="#e5e7eb" stroke-width="0.5"/>
  <line x1="512.3" y1="16" x2="512.3" y2="171" stroke="#e5e7eb" stroke-width="0.5"/>
  <line x1="521.0" y1="16" x2="521.0" y2="171" stroke="#e5e7eb" stroke-width="0.5"/>
  <line x1="528.4" y1="16" x2="528.4" y2="171" stroke="#e5e7eb" stroke-width="0.5"/>
  <line x1="534.9" y1="16" x2="534.9" y2="171" stroke="#e5e7eb" stroke-width="0.5"/>
  <line x1="540.5" y1="16" x2="540.5" y2="171" stroke="#e5e7eb" stroke-width="0.5"/>
  <line x1="578.9" y1="16" x2="578.9" y2="171" stroke="#e5e7eb" stroke-width="0.5"/>
  <line x1="598.3" y1="16" x2="598.3" y2="171" stroke="#e5e7eb" stroke-width="0.5"/>
  <line x1="612.1" y1="16" x2="612.1" y2="171" stroke="#e5e7eb" stroke-width="0.5"/>
  <line x1="622.9" y1="16" x2="622.9" y2="171" stroke="#e5e7eb" stroke-width="0.5"/>
  <line x1="631.6" y1="16" x2="631.6" y2="171" stroke="#e5e7eb" stroke-width="0.5"/>
  <line x1="639.0" y1="16" x2="639.0" y2="171" stroke="#e5e7eb" stroke-width="0.5"/>
  <line x1="645.4" y1="16" x2="645.4" y2="171" stroke="#e5e7eb" stroke-width="0.5"/>
  <line x1="651.1" y1="16" x2="651.1" y2="171" stroke="#e5e7eb" stroke-width="0.5"/>
  <line x1="689.4" y1="16" x2="689.4" y2="171" stroke="#e5e7eb" stroke-width="0.5"/>
  <line x1="708.9" y1="16" x2="708.9" y2="171" stroke="#e5e7eb" stroke-width="0.5"/>
  <line x1="722.7" y1="16" x2="722.7" y2="171" stroke="#e5e7eb" stroke-width="0.5"/>
  <line x1="733.4" y1="16" x2="733.4" y2="171" stroke="#e5e7eb" stroke-width="0.5"/>
  <line x1="742.2" y1="16" x2="742.2" y2="171" stroke="#e5e7eb" stroke-width="0.5"/>
  <line x1="749.6" y1="16" x2="749.6" y2="171" stroke="#e5e7eb" stroke-width="0.5"/>
  <line x1="756.0" y1="16" x2="756.0" y2="171" stroke="#e5e7eb" stroke-width="0.5"/>
  <line x1="761.7" y1="16" x2="761.7" y2="171" stroke="#e5e7eb" stroke-width="0.5"/>
  <line x1="800.0" y1="16" x2="800.0" y2="171" stroke="#e5e7eb" stroke-width="0.5"/>
  <line x1="545.6" y1="16" x2="545.6" y2="171" stroke="#e5e7eb" stroke-width="0.5"/>
  <text x="545.6" y="183" text-anchor="middle" font-size="8" fill="#6b7280">100</text>
  <line x1="656.1" y1="16" x2="656.1" y2="171" stroke="#e5e7eb" stroke-width="0.5"/>
  <text x="656.1" y="183" text-anchor="middle" font-size="8" fill="#6b7280">1k</text>
  <line x1="766.7" y1="16" x2="766.7" y2="171" stroke="#e5e7eb" stroke-width="0.5"/>
  <text x="766.7" y="183" text-anchor="middle" font-size="8" fill="#6b7280">10k</text>
  <line x1="435" y1="54.8" x2="800" y2="54.8" stroke="#e5e7eb" stroke-width="0.5"/>
  <line x1="435" y1="132.3" x2="800" y2="132.3" stroke="#e5e7eb" stroke-width="0.5"/>
  <line x1="435" y1="16.0" x2="800" y2="16.0" stroke="#e5e7eb" stroke-width="0.5"/>
  <text x="431" y="19.0" text-anchor="end" font-size="8" fill="#6b7280">180</text>
  <text x="431" y="96.5" text-anchor="end" font-size="8" fill="#6b7280">0</text>
  <line x1="435" y1="171.0" x2="800" y2="171.0" stroke="#e5e7eb" stroke-width="0.5"/>
  <text x="431" y="174.0" text-anchor="end" font-size="8" fill="#6b7280">-180</text>
  <line x1="656.1" y1="16" x2="656.1" y2="171" stroke="#d1d5db" stroke-width="1" stroke-dasharray="4 3"/>
  <defs><linearGradient id="g262" x1="0" y1="16" x2="0" y2="93.5" gradientUnits="userSpaceOnUse">
    <stop offset="0%" stop-color="#e74c3c" stop-opacity="0.15"/>
    <stop offset="100%" stop-color="#e74c3c" stop-opacity="0.02"/>
  </linearGradient></defs>
  <defs><linearGradient id="g263" x1="0" y1="171" x2="0" y2="93.5" gradientUnits="userSpaceOnUse">
    <stop offset="0%" stop-color="#e74c3c" stop-opacity="0.15"/>
    <stop offset="100%" stop-color="#e74c3c" stop-opacity="0.02"/>
  </linearGradient></defs>
  <defs><clipPath id="c264"><rect x="435" y="16" width="365" height="77.5"/></clipPath></defs>
  <defs><clipPath id="c265"><rect x="435" y="93.5" width="365" height="77.5"/></clipPath></defs>
  <path d="M438.5,94.7 438.5,94.7 471.8,95.8 491.3,97.0 505.1,98.2 515.8,99.4 524.6,100.5 532.0,101.7 538.4,102.9 544.1,104.1 549.1,105.2 553.7,106.4 557.9,107.6 561.7,108.8 565.3,109.9 568.6,111.1 571.7,112.3 574.6,113.4 577.3,114.6 579.9,115.8 582.4,117.0 584.7,118.1 587.0,119.3 589.1,120.5 591.2,121.7 593.1,122.8 595.0,124.0 596.8,125.2 598.6,126.3 600.2,127.5 601.9,128.7 603.4,129.9 605.0,131.0 606.5,132.2 607.9,133.4 609.3,134.6 610.6,135.7 611.9,136.9 613.2,138.1 614.5,139.3 615.7,140.4 616.9,141.6 618.0,142.8 619.2,143.9 620.3,145.1 621.3,146.3 622.4,147.5 623.4,148.6 624.4,149.8 625.4,151.0 626.4,152.2 627.4,153.3 628.3,154.5 629.2,155.7 630.1,156.8 631.0,158.0 631.8,159.2 632.7,160.4 633.5,161.5 634.4,162.7 635.2,163.9 636.7,166.2 638.3,168.6 639.7,170.9 641.2,18.3 642.6,20.6 643.9,23.0 645.2,25.3 646.5,27.7 647.8,30.0 649.0,32.3 650.2,34.7 651.3,37.0 652.4,39.4 653.6,41.7 654.6,44.1 655.7,46.4 656.7,48.8 657.7,51.1 658.7,53.5 659.7,55.8 660.6,58.2 661.6,60.5 662.5,62.8 663.4,65.2 664.3,67.5 665.1,69.9 666.0,72.2 666.8,74.6 667.6,76.9 668.4,79.3 669.6,82.8 670.8,86.3 671.9,89.8 673.0,93.3 674.1,96.9 675.2,100.4 676.2,103.9 677.2,107.4 678.2,110.9 679.2,114.5 680.1,118.0 681.0,121.5 682.0,125.0 682.9,128.5 683.7,132.1 684.6,135.6 685.5,139.1 686.3,142.6 687.1,146.1 687.9,149.7 689.0,154.3 690.0,159.0 691.0,163.7 692.0,168.4 693.0,18.1 693.9,22.8 694.9,27.5 695.8,32.2 696.7,114.4 697.6,119.1 698.4,123.8 699.3,128.5 700.1,133.2 700.9,137.9 701.7,142.5 702.7,148.4 703.7,154.3 704.6,160.1 705.6,166.0 706.5,16.9 707.4,22.7 708.3,28.6 709.1,34.5 710.0,40.3 710.8,46.2 711.6,52.1 712.4,57.9 713.4,65.0 714.3,72.0 715.2,79.0 716.1,163.6 717.0,170.6 717.9,22.7 718.7,29.7 719.6,36.7 720.4,43.8 721.2,50.8 722.1,59.0 723.0,67.2 723.9,75.4 724.8,83.7 725.7,169.4 726.5,22.6 727.3,30.8 728.1,39.0 728.9,47.2 729.8,56.6 730.7,66.0 731.6,75.4 732.4,162.3 733.3,16.6 734.1,26.0 734.9,35.4 735.8,46.0 736.7,56.5 737.5,67.1 738.4,77.6 739.2,165.7 740.0,21.3 740.8,31.8 741.7,43.5 742.6,55.3 743.4,67.0 744.3,78.7 745.1,168.0 745.9,24.7 746.8,37.6 747.6,50.5 748.5,63.4 749.3,76.3 750.1,166.7 751.0,25.8 751.8,39.9 752.7,54.0 753.5,68.0 754.3,159.6 755.1,19.9 756.0,35.1 756.8,50.4 757.6,65.6 758.5,158.4 759.3,19.8 760.1,36.2 761.0,52.6 761.8,69.1 762.6,164.2 763.5,26.7 764.3,44.3 765.1,61.9 765.9,158.2 766.8,22.0 767.6,40.7 768.4,59.5 769.2,157.0 770.1,21.9 770.9,41.8 771.7,63.0 772.6,161.6 773.4,27.7 774.2,48.8 775.0,71.1 775.8,170.9 776.6,38.2 777.5,61.6 778.3,162.6 779.1,31.1 779.9,55.7 780.7,157.8 781.5,27.5 782.4,53.3 783.2,156.6 784.0,27.4 784.8,54.4 785.6,158.9 786.5,32.0 787.3,60.2 788.1,165.8 788.9,40.1 789.7,147.0 790.5,22.5 791.3,53.0 792.2,162.1 793.0,38.8 793.8,148.0 794.6,25.8 795.4,58.7 796.2,170.2 797.0,49.2 797.8,161.9 798.6,42.1 799.5,156.0 L799.5,93.5 L438.5,93.5 Z" fill="url(#g262)" clip-path="url(#c264)"/>
  <path d="M438.5,94.7 438.5,94.7 471.8,95.8 491.3,97.0 505.1,98.2 515.8,99.4 524.6,100.5 532.0,101.7 538.4,102.9 544.1,104.1 549.1,105.2 553.7,106.4 557.9,107.6 561.7,108.8 565.3,109.9 568.6,111.1 571.7,112.3 574.6,113.4 577.3,114.6 579.9,115.8 582.4,117.0 584.7,118.1 587.0,119.3 589.1,120.5 591.2,121.7 593.1,122.8 595.0,124.0 596.8,125.2 598.6,126.3 600.2,127.5 601.9,128.7 603.4,129.9 605.0,131.0 606.5,132.2 607.9,133.4 609.3,134.6 610.6,135.7 611.9,136.9 613.2,138.1 614.5,139.3 615.7,140.4 616.9,141.6 618.0,142.8 619.2,143.9 620.3,145.1 621.3,146.3 622.4,147.5 623.4,148.6 624.4,149.8 625.4,151.0 626.4,152.2 627.4,153.3 628.3,154.5 629.2,155.7 630.1,156.8 631.0,158.0 631.8,159.2 632.7,160.4 633.5,161.5 634.4,162.7 635.2,163.9 636.7,166.2 638.3,168.6 639.7,170.9 641.2,18.3 642.6,20.6 643.9,23.0 645.2,25.3 646.5,27.7 647.8,30.0 649.0,32.3 650.2,34.7 651.3,37.0 652.4,39.4 653.6,41.7 654.6,44.1 655.7,46.4 656.7,48.8 657.7,51.1 658.7,53.5 659.7,55.8 660.6,58.2 661.6,60.5 662.5,62.8 663.4,65.2 664.3,67.5 665.1,69.9 666.0,72.2 666.8,74.6 667.6,76.9 668.4,79.3 669.6,82.8 670.8,86.3 671.9,89.8 673.0,93.3 674.1,96.9 675.2,100.4 676.2,103.9 677.2,107.4 678.2,110.9 679.2,114.5 680.1,118.0 681.0,121.5 682.0,125.0 682.9,128.5 683.7,132.1 684.6,135.6 685.5,139.1 686.3,142.6 687.1,146.1 687.9,149.7 689.0,154.3 690.0,159.0 691.0,163.7 692.0,168.4 693.0,18.1 693.9,22.8 694.9,27.5 695.8,32.2 696.7,114.4 697.6,119.1 698.4,123.8 699.3,128.5 700.1,133.2 700.9,137.9 701.7,142.5 702.7,148.4 703.7,154.3 704.6,160.1 705.6,166.0 706.5,16.9 707.4,22.7 708.3,28.6 709.1,34.5 710.0,40.3 710.8,46.2 711.6,52.1 712.4,57.9 713.4,65.0 714.3,72.0 715.2,79.0 716.1,163.6 717.0,170.6 717.9,22.7 718.7,29.7 719.6,36.7 720.4,43.8 721.2,50.8 722.1,59.0 723.0,67.2 723.9,75.4 724.8,83.7 725.7,169.4 726.5,22.6 727.3,30.8 728.1,39.0 728.9,47.2 729.8,56.6 730.7,66.0 731.6,75.4 732.4,162.3 733.3,16.6 734.1,26.0 734.9,35.4 735.8,46.0 736.7,56.5 737.5,67.1 738.4,77.6 739.2,165.7 740.0,21.3 740.8,31.8 741.7,43.5 742.6,55.3 743.4,67.0 744.3,78.7 745.1,168.0 745.9,24.7 746.8,37.6 747.6,50.5 748.5,63.4 749.3,76.3 750.1,166.7 751.0,25.8 751.8,39.9 752.7,54.0 753.5,68.0 754.3,159.6 755.1,19.9 756.0,35.1 756.8,50.4 757.6,65.6 758.5,158.4 759.3,19.8 760.1,36.2 761.0,52.6 761.8,69.1 762.6,164.2 763.5,26.7 764.3,44.3 765.1,61.9 765.9,158.2 766.8,22.0 767.6,40.7 768.4,59.5 769.2,157.0 770.1,21.9 770.9,41.8 771.7,63.0 772.6,161.6 773.4,27.7 774.2,48.8 775.0,71.1 775.8,170.9 776.6,38.2 777.5,61.6 778.3,162.6 779.1,31.1 779.9,55.7 780.7,157.8 781.5,27.5 782.4,53.3 783.2,156.6 784.0,27.4 784.8,54.4 785.6,158.9 786.5,32.0 787.3,60.2 788.1,165.8 788.9,40.1 789.7,147.0 790.5,22.5 791.3,53.0 792.2,162.1 793.0,38.8 793.8,148.0 794.6,25.8 795.4,58.7 796.2,170.2 797.0,49.2 797.8,161.9 798.6,42.1 799.5,156.0 L799.5,93.5 L438.5,93.5 Z" fill="url(#g263)" clip-path="url(#c265)"/>
  <defs><clipPath id="pc266"><rect x="435" y="16" width="365" height="155"/></clipPath></defs>
  <polyline points="438.5,94.7 471.8,95.8 491.3,97.0 505.1,98.2 515.8,99.4 524.6,100.5 532.0,101.7 538.4,102.9 544.1,104.1 549.1,105.2 553.7,106.4 557.9,107.6 561.7,108.8 565.3,109.9 568.6,111.1 571.7,112.3 574.6,113.4 577.3,114.6 579.9,115.8 582.4,117.0 584.7,118.1 587.0,119.3 589.1,120.5 591.2,121.7 593.1,122.8 595.0,124.0 596.8,125.2 598.6,126.3 600.2,127.5 601.9,128.7 603.4,129.9 605.0,131.0 606.5,132.2 607.9,133.4 609.3,134.6 610.6,135.7 611.9,136.9 613.2,138.1 614.5,139.3 615.7,140.4 616.9,141.6 618.0,142.8 619.2,143.9 620.3,145.1 621.3,146.3 622.4,147.5 623.4,148.6 624.4,149.8 625.4,151.0 626.4,152.2 627.4,153.3 628.3,154.5 629.2,155.7 630.1,156.8 631.0,158.0 631.8,159.2 632.7,160.4 633.5,161.5 634.4,162.7 635.2,163.9 636.7,166.2 638.3,168.6 639.7,170.9 641.2,18.3 642.6,20.6 643.9,23.0 645.2,25.3 646.5,27.7 647.8,30.0 649.0,32.3 650.2,34.7 651.3,37.0 652.4,39.4 653.6,41.7 654.6,44.1 655.7,46.4 656.7,48.8 657.7,51.1 658.7,53.5 659.7,55.8 660.6,58.2 661.6,60.5 662.5,62.8 663.4,65.2 664.3,67.5 665.1,69.9 666.0,72.2 666.8,74.6 667.6,76.9 668.4,79.3 669.6,82.8 670.8,86.3 671.9,89.8 673.0,93.3 674.1,96.9 675.2,100.4 676.2,103.9 677.2,107.4 678.2,110.9 679.2,114.5 680.1,118.0 681.0,121.5 682.0,125.0 682.9,128.5 683.7,132.1 684.6,135.6 685.5,139.1 686.3,142.6 687.1,146.1 687.9,149.7 689.0,154.3 690.0,159.0 691.0,163.7 692.0,168.4 693.0,18.1 693.9,22.8 694.9,27.5 695.8,32.2 696.7,114.4 697.6,119.1 698.4,123.8 699.3,128.5 700.1,133.2 700.9,137.9 701.7,142.5 702.7,148.4 703.7,154.3 704.6,160.1 705.6,166.0 706.5,16.9 707.4,22.7 708.3,28.6 709.1,34.5 710.0,40.3 710.8,46.2 711.6,52.1 712.4,57.9 713.4,65.0 714.3,72.0 715.2,79.0 716.1,163.6 717.0,170.6 717.9,22.7 718.7,29.7 719.6,36.7 720.4,43.8 721.2,50.8 722.1,59.0 723.0,67.2 723.9,75.4 724.8,83.7 725.7,169.4 726.5,22.6 727.3,30.8 728.1,39.0 728.9,47.2 729.8,56.6 730.7,66.0 731.6,75.4 732.4,162.3 733.3,16.6 734.1,26.0 734.9,35.4 735.8,46.0 736.7,56.5 737.5,67.1 738.4,77.6 739.2,165.7 740.0,21.3 740.8,31.8 741.7,43.5 742.6,55.3 743.4,67.0 744.3,78.7 745.1,168.0 745.9,24.7 746.8,37.6 747.6,50.5 748.5,63.4 749.3,76.3 750.1,166.7 751.0,25.8 751.8,39.9 752.7,54.0 753.5,68.0 754.3,159.6 755.1,19.9 756.0,35.1 756.8,50.4 757.6,65.6 758.5,158.4 759.3,19.8 760.1,36.2 761.0,52.6 761.8,69.1 762.6,164.2 763.5,26.7 764.3,44.3 765.1,61.9 765.9,158.2 766.8,22.0 767.6,40.7 768.4,59.5 769.2,157.0 770.1,21.9 770.9,41.8 771.7,63.0 772.6,161.6 773.4,27.7 774.2,48.8 775.0,71.1 775.8,170.9 776.6,38.2 777.5,61.6 778.3,162.6 779.1,31.1 779.9,55.7 780.7,157.8 781.5,27.5 782.4,53.3 783.2,156.6 784.0,27.4 784.8,54.4 785.6,158.9 786.5,32.0 787.3,60.2 788.1,165.8 788.9,40.1 789.7,147.0 790.5,22.5 791.3,53.0 792.2,162.1 793.0,38.8 793.8,148.0 794.6,25.8 795.4,58.7 796.2,170.2 797.0,49.2 797.8,161.9 798.6,42.1 799.5,156.0" fill="none" stroke="#e74c3c" stroke-width="1.5" stroke-linejoin="round" clip-path="url(#pc266)"/>
  <line x1="34" y1="207" x2="34" y2="362" stroke="#d1d5db"/>
  <line x1="34" y1="284.5" x2="399" y2="284.5" stroke="#d1d5db"/>
  <text x="216.5" y="388" text-anchor="middle" font-size="9" fill="#6b7280">Hz</text>
  <text x="12" y="284.5" text-anchor="middle" font-size="9" fill="#6b7280" transform="rotate(-90 12 284.5)">Group delay</text>
  <line x1="67.3" y1="207" x2="67.3" y2="362" stroke="#e5e7eb" stroke-width="0.5"/>
  <line x1="86.8" y1="207" x2="86.8" y2="362" stroke="#e5e7eb" stroke-width="0.5"/>
  <line x1="100.6" y1="207" x2="100.6" y2="362" stroke="#e5e7eb" stroke-width="0.5"/>
  <line x1="111.3" y1="207" x2="111.3" y2="362" stroke="#e5e7eb" stroke-width="0.5"/>
  <line x1="120.0" y1="207" x2="120.0" y2="362" stroke="#e5e7eb" stroke-width="0.5"/>
  <line x1="127.4" y1="207" x2="127.4" y2="362" stroke="#e5e7eb" stroke-width="0.5"/>
  <line x1="133.9" y1="207" x2="133.9" y2="362" stroke="#e5e7eb" stroke-width="0.5"/>
  <line x1="139.5" y1="207" x2="139.5" y2="362" stroke="#e5e7eb" stroke-width="0.5"/>
  <line x1="177.9" y1="207" x2="177.9" y2="362" stroke="#e5e7eb" stroke-width="0.5"/>
  <line x1="197.3" y1="207" x2="197.3" y2="362" stroke="#e5e7eb" stroke-width="0.5"/>
  <line x1="211.1" y1="207" x2="211.1" y2="362" stroke="#e5e7eb" stroke-width="0.5"/>
  <line x1="221.9" y1="207" x2="221.9" y2="362" stroke="#e5e7eb" stroke-width="0.5"/>
  <line x1="230.6" y1="207" x2="230.6" y2="362" stroke="#e5e7eb" stroke-width="0.5"/>
  <line x1="238.0" y1="207" x2="238.0" y2="362" stroke="#e5e7eb" stroke-width="0.5"/>
  <line x1="244.4" y1="207" x2="244.4" y2="362" stroke="#e5e7eb" stroke-width="0.5"/>
  <line x1="250.1" y1="207" x2="250.1" y2="362" stroke="#e5e7eb" stroke-width="0.5"/>
  <line x1="288.4" y1="207" x2="288.4" y2="362" stroke="#e5e7eb" stroke-width="0.5"/>
  <line x1="307.9" y1="207" x2="307.9" y2="362" stroke="#e5e7eb" stroke-width="0.5"/>
  <line x1="321.7" y1="207" x2="321.7" y2="362" stroke="#e5e7eb" stroke-width="0.5"/>
  <line x1="332.4" y1="207" x2="332.4" y2="362" stroke="#e5e7eb" stroke-width="0.5"/>
  <line x1="341.2" y1="207" x2="341.2" y2="362" stroke="#e5e7eb" stroke-width="0.5"/>
  <line x1="348.6" y1="207" x2="348.6" y2="362" stroke="#e5e7eb" stroke-width="0.5"/>
  <line x1="355.0" y1="207" x2="355.0" y2="362" stroke="#e5e7eb" stroke-width="0.5"/>
  <line x1="360.7" y1="207" x2="360.7" y2="362" stroke="#e5e7eb" stroke-width="0.5"/>
  <line x1="399.0" y1="207" x2="399.0" y2="362" stroke="#e5e7eb" stroke-width="0.5"/>
  <line x1="144.6" y1="207" x2="144.6" y2="362" stroke="#e5e7eb" stroke-width="0.5"/>
  <text x="144.6" y="374" text-anchor="middle" font-size="8" fill="#6b7280">100</text>
  <line x1="255.1" y1="207" x2="255.1" y2="362" stroke="#e5e7eb" stroke-width="0.5"/>
  <text x="255.1" y="374" text-anchor="middle" font-size="8" fill="#6b7280">1k</text>
  <line x1="365.7" y1="207" x2="365.7" y2="362" stroke="#e5e7eb" stroke-width="0.5"/>
  <text x="365.7" y="374" text-anchor="middle" font-size="8" fill="#6b7280">10k</text>
  <line x1="34" y1="326.5" x2="399" y2="326.5" stroke="#e5e7eb" stroke-width="0.5"/>
  <text x="30" y="329.5" text-anchor="end" font-size="8" fill="#6b7280">-700</text>
  <text x="30" y="287.5" text-anchor="end" font-size="8" fill="#6b7280">0</text>
  <line x1="34" y1="242.5" x2="399" y2="242.5" stroke="#e5e7eb" stroke-width="0.5"/>
  <text x="30" y="245.5" text-anchor="end" font-size="8" fill="#6b7280">700</text>
  <line x1="255.1" y1="207" x2="255.1" y2="362" stroke="#d1d5db" stroke-width="1" stroke-dasharray="4 3"/>
  <defs><linearGradient id="g267" x1="0" y1="207" x2="0" y2="284.5" gradientUnits="userSpaceOnUse">
    <stop offset="0%" stop-color="#2ecc71" stop-opacity="0.15"/>
    <stop offset="100%" stop-color="#2ecc71" stop-opacity="0.02"/>
  </linearGradient></defs>
  <defs><linearGradient id="g268" x1="0" y1="362" x2="0" y2="284.5" gradientUnits="userSpaceOnUse">
    <stop offset="0%" stop-color="#2ecc71" stop-opacity="0.15"/>
    <stop offset="100%" stop-color="#2ecc71" stop-opacity="0.02"/>
  </linearGradient></defs>
  <defs><clipPath id="c269"><rect x="34" y="207" width="365" height="77.5"/></clipPath></defs>
  <defs><clipPath id="c270"><rect x="34" y="284.5" width="365" height="77.5"/></clipPath></defs>
  <path d="M37.5,282.6 37.5,282.6 70.8,282.6 90.3,282.6 104.1,282.6 114.8,282.6 123.6,282.6 131.0,282.6 137.4,282.6 143.1,282.6 148.1,282.6 152.7,282.6 156.9,282.6 160.7,282.6 164.3,282.6 167.6,282.6 170.7,282.6 173.6,282.6 176.3,282.6 178.9,282.6 181.4,282.6 183.7,282.6 186.0,282.6 188.1,282.6 190.2,282.6 192.1,282.6 194.0,282.6 195.8,282.6 197.6,282.6 199.2,282.6 200.9,282.6 202.4,282.6 204.0,282.6 205.5,282.6 206.9,282.6 208.3,282.6 209.6,282.6 210.9,282.6 212.2,282.6 213.5,282.6 214.7,282.6 215.9,282.6 217.0,282.6 218.2,282.6 219.3,282.6 220.3,282.6 221.4,282.6 222.4,282.6 223.4,282.6 224.4,282.6 225.4,282.6 226.4,282.6 227.3,282.6 228.2,282.6 229.1,282.6 230.0,282.6 230.8,282.6 231.7,282.6 232.5,282.6 233.4,282.6 234.2,282.6 235.7,282.6 237.3,282.6 238.7,282.6 240.2,282.6 241.6,282.6 242.9,282.6 244.2,282.6 245.5,282.6 246.8,282.6 248.0,282.6 249.2,282.6 250.3,282.6 251.4,282.6 252.6,282.6 253.6,282.6 254.7,282.6 255.7,282.6 256.7,282.6 257.7,282.6 258.7,282.6 259.6,282.6 260.6,282.6 261.5,282.6 262.4,282.6 263.3,282.6 264.1,282.6 265.0,282.6 265.8,282.6 266.6,282.6 267.4,282.6 268.6,282.6 269.8,282.6 270.9,282.6 272.0,282.6 273.1,282.6 274.2,282.6 275.2,282.6 276.2,282.6 277.2,282.6 278.2,282.6 279.1,282.6 280.0,282.6 281.0,282.6 281.9,282.6 282.7,282.6 283.6,282.6 284.5,282.6 285.3,282.6 286.1,282.6 286.9,282.6 288.0,282.6 289.0,282.6 290.0,282.6 291.0,282.6 292.0,282.6 292.9,282.6 293.9,282.6 294.8,344.1 295.7,282.6 296.6,282.6 297.4,282.6 298.3,282.6 299.1,282.6 299.9,282.6 300.7,282.6 301.7,282.6 302.7,282.6 303.6,282.6 304.6,282.6 305.5,282.6 306.4,282.6 307.3,282.6 308.1,282.6 309.0,282.6 309.8,282.6 310.6,282.6 311.4,282.6 312.4,282.6 313.3,282.6 314.2,282.6 315.1,282.6 316.0,282.6 316.9,282.6 317.7,282.6 318.6,282.6 319.4,282.6 320.2,282.6 321.1,282.6 322.0,282.6 322.9,282.6 323.8,344.1 324.7,282.6 325.5,282.6 326.3,282.6 327.1,282.6 327.9,282.6 328.8,282.6 329.7,282.6 330.6,282.6 331.4,282.6 332.3,282.6 333.1,282.6 333.9,282.6 334.8,282.6 335.7,282.6 336.5,282.6 337.4,282.6 338.2,282.6 339.0,282.6 339.8,282.6 340.7,282.6 341.6,282.6 342.4,282.6 343.3,282.6 344.1,282.6 344.9,282.6 345.8,282.6 346.6,282.6 347.5,282.6 348.3,282.6 349.1,282.6 350.0,282.6 350.8,282.6 351.7,282.6 352.5,282.6 353.3,282.6 354.1,282.6 355.0,282.6 355.8,282.6 356.6,282.6 357.5,282.6 358.3,282.6 359.1,282.6 360.0,282.6 360.8,282.6 361.6,282.6 362.5,282.6 363.3,282.6 364.1,282.6 364.9,282.6 365.8,282.6 366.6,282.6 367.4,282.6 368.2,282.6 369.1,282.6 369.9,282.6 370.7,282.6 371.6,282.6 372.4,282.6 373.2,282.6 374.0,344.1 374.8,282.6 375.6,282.6 376.5,282.6 377.3,282.6 378.1,282.6 378.9,282.6 379.7,282.6 380.5,282.6 381.4,282.6 382.2,282.6 383.0,282.6 383.8,282.6 384.6,282.6 385.5,282.6 386.3,282.6 387.1,282.6 387.9,282.6 388.7,282.6 389.5,282.6 390.3,282.6 391.2,282.6 392.0,282.6 392.8,282.6 393.6,282.6 394.4,282.6 395.2,282.6 396.0,282.6 396.8,282.6 397.6,282.6 398.5,282.6 L398.5,284.5 L37.5,284.5 Z" fill="url(#g267)" clip-path="url(#c269)"/>
  <path d="M37.5,282.6 37.5,282.6 70.8,282.6 90.3,282.6 104.1,282.6 114.8,282.6 123.6,282.6 131.0,282.6 137.4,282.6 143.1,282.6 148.1,282.6 152.7,282.6 156.9,282.6 160.7,282.6 164.3,282.6 167.6,282.6 170.7,282.6 173.6,282.6 176.3,282.6 178.9,282.6 181.4,282.6 183.7,282.6 186.0,282.6 188.1,282.6 190.2,282.6 192.1,282.6 194.0,282.6 195.8,282.6 197.6,282.6 199.2,282.6 200.9,282.6 202.4,282.6 204.0,282.6 205.5,282.6 206.9,282.6 208.3,282.6 209.6,282.6 210.9,282.6 212.2,282.6 213.5,282.6 214.7,282.6 215.9,282.6 217.0,282.6 218.2,282.6 219.3,282.6 220.3,282.6 221.4,282.6 222.4,282.6 223.4,282.6 224.4,282.6 225.4,282.6 226.4,282.6 227.3,282.6 228.2,282.6 229.1,282.6 230.0,282.6 230.8,282.6 231.7,282.6 232.5,282.6 233.4,282.6 234.2,282.6 235.7,282.6 237.3,282.6 238.7,282.6 240.2,282.6 241.6,282.6 242.9,282.6 244.2,282.6 245.5,282.6 246.8,282.6 248.0,282.6 249.2,282.6 250.3,282.6 251.4,282.6 252.6,282.6 253.6,282.6 254.7,282.6 255.7,282.6 256.7,282.6 257.7,282.6 258.7,282.6 259.6,282.6 260.6,282.6 261.5,282.6 262.4,282.6 263.3,282.6 264.1,282.6 265.0,282.6 265.8,282.6 266.6,282.6 267.4,282.6 268.6,282.6 269.8,282.6 270.9,282.6 272.0,282.6 273.1,282.6 274.2,282.6 275.2,282.6 276.2,282.6 277.2,282.6 278.2,282.6 279.1,282.6 280.0,282.6 281.0,282.6 281.9,282.6 282.7,282.6 283.6,282.6 284.5,282.6 285.3,282.6 286.1,282.6 286.9,282.6 288.0,282.6 289.0,282.6 290.0,282.6 291.0,282.6 292.0,282.6 292.9,282.6 293.9,282.6 294.8,344.1 295.7,282.6 296.6,282.6 297.4,282.6 298.3,282.6 299.1,282.6 299.9,282.6 300.7,282.6 301.7,282.6 302.7,282.6 303.6,282.6 304.6,282.6 305.5,282.6 306.4,282.6 307.3,282.6 308.1,282.6 309.0,282.6 309.8,282.6 310.6,282.6 311.4,282.6 312.4,282.6 313.3,282.6 314.2,282.6 315.1,282.6 316.0,282.6 316.9,282.6 317.7,282.6 318.6,282.6 319.4,282.6 320.2,282.6 321.1,282.6 322.0,282.6 322.9,282.6 323.8,344.1 324.7,282.6 325.5,282.6 326.3,282.6 327.1,282.6 327.9,282.6 328.8,282.6 329.7,282.6 330.6,282.6 331.4,282.6 332.3,282.6 333.1,282.6 333.9,282.6 334.8,282.6 335.7,282.6 336.5,282.6 337.4,282.6 338.2,282.6 339.0,282.6 339.8,282.6 340.7,282.6 341.6,282.6 342.4,282.6 343.3,282.6 344.1,282.6 344.9,282.6 345.8,282.6 346.6,282.6 347.5,282.6 348.3,282.6 349.1,282.6 350.0,282.6 350.8,282.6 351.7,282.6 352.5,282.6 353.3,282.6 354.1,282.6 355.0,282.6 355.8,282.6 356.6,282.6 357.5,282.6 358.3,282.6 359.1,282.6 360.0,282.6 360.8,282.6 361.6,282.6 362.5,282.6 363.3,282.6 364.1,282.6 364.9,282.6 365.8,282.6 366.6,282.6 367.4,282.6 368.2,282.6 369.1,282.6 369.9,282.6 370.7,282.6 371.6,282.6 372.4,282.6 373.2,282.6 374.0,344.1 374.8,282.6 375.6,282.6 376.5,282.6 377.3,282.6 378.1,282.6 378.9,282.6 379.7,282.6 380.5,282.6 381.4,282.6 382.2,282.6 383.0,282.6 383.8,282.6 384.6,282.6 385.5,282.6 386.3,282.6 387.1,282.6 387.9,282.6 388.7,282.6 389.5,282.6 390.3,282.6 391.2,282.6 392.0,282.6 392.8,282.6 393.6,282.6 394.4,282.6 395.2,282.6 396.0,282.6 396.8,282.6 397.6,282.6 398.5,282.6 L398.5,284.5 L37.5,284.5 Z" fill="url(#g268)" clip-path="url(#c270)"/>
  <defs><clipPath id="pc271"><rect x="34" y="207" width="365" height="155"/></clipPath></defs>
  <polyline points="37.5,282.6 70.8,282.6 90.3,282.6 104.1,282.6 114.8,282.6 123.6,282.6 131.0,282.6 137.4,282.6 143.1,282.6 148.1,282.6 152.7,282.6 156.9,282.6 160.7,282.6 164.3,282.6 167.6,282.6 170.7,282.6 173.6,282.6 176.3,282.6 178.9,282.6 181.4,282.6 183.7,282.6 186.0,282.6 188.1,282.6 190.2,282.6 192.1,282.6 194.0,282.6 195.8,282.6 197.6,282.6 199.2,282.6 200.9,282.6 202.4,282.6 204.0,282.6 205.5,282.6 206.9,282.6 208.3,282.6 209.6,282.6 210.9,282.6 212.2,282.6 213.5,282.6 214.7,282.6 215.9,282.6 217.0,282.6 218.2,282.6 219.3,282.6 220.3,282.6 221.4,282.6 222.4,282.6 223.4,282.6 224.4,282.6 225.4,282.6 226.4,282.6 227.3,282.6 228.2,282.6 229.1,282.6 230.0,282.6 230.8,282.6 231.7,282.6 232.5,282.6 233.4,282.6 234.2,282.6 235.7,282.6 237.3,282.6 238.7,282.6 240.2,282.6 241.6,282.6 242.9,282.6 244.2,282.6 245.5,282.6 246.8,282.6 248.0,282.6 249.2,282.6 250.3,282.6 251.4,282.6 252.6,282.6 253.6,282.6 254.7,282.6 255.7,282.6 256.7,282.6 257.7,282.6 258.7,282.6 259.6,282.6 260.6,282.6 261.5,282.6 262.4,282.6 263.3,282.6 264.1,282.6 265.0,282.6 265.8,282.6 266.6,282.6 267.4,282.6 268.6,282.6 269.8,282.6 270.9,282.6 272.0,282.6 273.1,282.6 274.2,282.6 275.2,282.6 276.2,282.6 277.2,282.6 278.2,282.6 279.1,282.6 280.0,282.6 281.0,282.6 281.9,282.6 282.7,282.6 283.6,282.6 284.5,282.6 285.3,282.6 286.1,282.6 286.9,282.6 288.0,282.6 289.0,282.6 290.0,282.6 291.0,282.6 292.0,282.6 292.9,282.6 293.9,282.6 294.8,344.1 295.7,282.6 296.6,282.6 297.4,282.6 298.3,282.6 299.1,282.6 299.9,282.6 300.7,282.6 301.7,282.6 302.7,282.6 303.6,282.6 304.6,282.6 305.5,282.6 306.4,282.6 307.3,282.6 308.1,282.6 309.0,282.6 309.8,282.6 310.6,282.6 311.4,282.6 312.4,282.6 313.3,282.6 314.2,282.6 315.1,282.6 316.0,282.6 316.9,282.6 317.7,282.6 318.6,282.6 319.4,282.6 320.2,282.6 321.1,282.6 322.0,282.6 322.9,282.6 323.8,344.1 324.7,282.6 325.5,282.6 326.3,282.6 327.1,282.6 327.9,282.6 328.8,282.6 329.7,282.6 330.6,282.6 331.4,282.6 332.3,282.6 333.1,282.6 333.9,282.6 334.8,282.6 335.7,282.6 336.5,282.6 337.4,282.6 338.2,282.6 339.0,282.6 339.8,282.6 340.7,282.6 341.6,282.6 342.4,282.6 343.3,282.6 344.1,282.6 344.9,282.6 345.8,282.6 346.6,282.6 347.5,282.6 348.3,282.6 349.1,282.6 350.0,282.6 350.8,282.6 351.7,282.6 352.5,282.6 353.3,282.6 354.1,282.6 355.0,282.6 355.8,282.6 356.6,282.6 357.5,282.6 358.3,282.6 359.1,282.6 360.0,282.6 360.8,282.6 361.6,282.6 362.5,282.6 363.3,282.6 364.1,282.6 364.9,282.6 365.8,282.6 366.6,282.6 367.4,282.6 368.2,282.6 369.1,282.6 369.9,282.6 370.7,282.6 371.6,282.6 372.4,282.6 373.2,282.6 374.0,344.1 374.8,282.6 375.6,282.6 376.5,282.6 377.3,282.6 378.1,282.6 378.9,282.6 379.7,282.6 380.5,282.6 381.4,282.6 382.2,282.6 383.0,282.6 383.8,282.6 384.6,282.6 385.5,282.6 386.3,282.6 387.1,282.6 387.9,282.6 388.7,282.6 389.5,282.6 390.3,282.6 391.2,282.6 392.0,282.6 392.8,282.6 393.6,282.6 394.4,282.6 395.2,282.6 396.0,282.6 396.8,282.6 397.6,282.6 398.5,282.6" fill="none" stroke="#2ecc71" stroke-width="1.5" stroke-linejoin="round" clip-path="url(#pc271)"/>
  <line x1="435" y1="207" x2="435" y2="362" stroke="#d1d5db"/>
  <line x1="435" y1="284.5" x2="800" y2="284.5" stroke="#d1d5db"/>
  <text x="617.5" y="388" text-anchor="middle" font-size="9" fill="#6b7280">Samples</text>
  <text x="413" y="284.5" text-anchor="middle" font-size="9" fill="#6b7280" transform="rotate(-90 413 284.5)">Impulse response</text>
  <line x1="435.0" y1="207" x2="435.0" y2="362" stroke="#e5e7eb" stroke-width="0.5"/>
  <text x="435.0" y="374" text-anchor="middle" font-size="8" fill="#6b7280">0</text>
  <line x1="608.8" y1="207" x2="608.8" y2="362" stroke="#e5e7eb" stroke-width="0.5"/>
  <text x="608.8" y="374" text-anchor="middle" font-size="8" fill="#6b7280">30</text>
  <line x1="782.6" y1="207" x2="782.6" y2="362" stroke="#e5e7eb" stroke-width="0.5"/>
  <text x="782.6" y="374" text-anchor="middle" font-size="8" fill="#6b7280">60</text>
  <line x1="435" y1="350.6" x2="800" y2="350.6" stroke="#e5e7eb" stroke-width="0.5"/>
  <text x="431" y="353.6" text-anchor="end" font-size="8" fill="#6b7280">-0.04</text>
  <text x="431" y="287.5" text-anchor="end" font-size="8" fill="#6b7280">0</text>
  <line x1="435" y1="218.4" x2="800" y2="218.4" stroke="#e5e7eb" stroke-width="0.5"/>
  <text x="431" y="221.4" text-anchor="end" font-size="8" fill="#6b7280">0.04</text>
  <defs><linearGradient id="g272" x1="0" y1="207" x2="0" y2="284.5" gradientUnits="userSpaceOnUse">
    <stop offset="0%" stop-color="#f39c12" stop-opacity="0.15"/>
    <stop offset="100%" stop-color="#f39c12" stop-opacity="0.02"/>
  </linearGradient></defs>
  <defs><linearGradient id="g273" x1="0" y1="362" x2="0" y2="284.5" gradientUnits="userSpaceOnUse">
    <stop offset="0%" stop-color="#f39c12" stop-opacity="0.15"/>
    <stop offset="100%" stop-color="#f39c12" stop-opacity="0.02"/>
  </linearGradient></defs>
  <defs><clipPath id="c274"><rect x="435" y="207" width="365" height="77.5"/></clipPath></defs>
  <defs><clipPath id="c275"><rect x="435" y="284.5" width="365" height="77.5"/></clipPath></defs>
  <path d="M435.0,285.8 435.0,285.8 440.8,285.9 446.6,285.9 452.4,286.0 458.2,286.0 464.0,286.0 469.8,285.9 475.6,285.7 481.3,285.2 487.1,284.5 492.9,283.4 498.7,281.9 504.5,279.9 510.3,277.5 516.1,274.6 521.9,271.2 527.7,267.3 533.5,262.9 539.3,258.2 545.1,253.1 550.9,247.8 556.7,242.3 562.5,236.9 568.3,231.6 574.0,226.5 579.8,221.7 585.6,217.5 591.4,213.9 597.2,210.9 603.0,208.8 608.8,207.4 614.6,207.0 620.4,207.4 626.2,208.8 632.0,210.9 637.8,213.9 643.6,217.5 649.4,221.7 655.2,226.5 661.0,231.6 666.7,236.9 672.5,242.3 678.3,247.8 684.1,253.1 689.9,258.2 695.7,262.9 701.5,267.3 707.3,271.2 713.1,274.6 718.9,277.5 724.7,279.9 730.5,281.9 736.3,283.4 742.1,284.5 747.9,285.2 753.7,285.7 759.4,285.9 765.2,286.0 771.0,286.0 776.8,286.0 782.6,285.9 788.4,285.9 794.2,285.8 L794.2,284.5 L435.0,284.5 Z" fill="url(#g272)" clip-path="url(#c274)"/>
  <path d="M435.0,285.8 435.0,285.8 440.8,285.9 446.6,285.9 452.4,286.0 458.2,286.0 464.0,286.0 469.8,285.9 475.6,285.7 481.3,285.2 487.1,284.5 492.9,283.4 498.7,281.9 504.5,279.9 510.3,277.5 516.1,274.6 521.9,271.2 527.7,267.3 533.5,262.9 539.3,258.2 545.1,253.1 550.9,247.8 556.7,242.3 562.5,236.9 568.3,231.6 574.0,226.5 579.8,221.7 585.6,217.5 591.4,213.9 597.2,210.9 603.0,208.8 608.8,207.4 614.6,207.0 620.4,207.4 626.2,208.8 632.0,210.9 637.8,213.9 643.6,217.5 649.4,221.7 655.2,226.5 661.0,231.6 666.7,236.9 672.5,242.3 678.3,247.8 684.1,253.1 689.9,258.2 695.7,262.9 701.5,267.3 707.3,271.2 713.1,274.6 718.9,277.5 724.7,279.9 730.5,281.9 736.3,283.4 742.1,284.5 747.9,285.2 753.7,285.7 759.4,285.9 765.2,286.0 771.0,286.0 776.8,286.0 782.6,285.9 788.4,285.9 794.2,285.8 L794.2,284.5 L435.0,284.5 Z" fill="url(#g273)" clip-path="url(#c275)"/>
  <defs><clipPath id="pc276"><rect x="435" y="207" width="365" height="155"/></clipPath></defs>
  <polyline points="435.0,285.8 440.8,285.9 446.6,285.9 452.4,286.0 458.2,286.0 464.0,286.0 469.8,285.9 475.6,285.7 481.3,285.2 487.1,284.5 492.9,283.4 498.7,281.9 504.5,279.9 510.3,277.5 516.1,274.6 521.9,271.2 527.7,267.3 533.5,262.9 539.3,258.2 545.1,253.1 550.9,247.8 556.7,242.3 562.5,236.9 568.3,231.6 574.0,226.5 579.8,221.7 585.6,217.5 591.4,213.9 597.2,210.9 603.0,208.8 608.8,207.4 614.6,207.0 620.4,207.4 626.2,208.8 632.0,210.9 637.8,213.9 643.6,217.5 649.4,221.7 655.2,226.5 661.0,231.6 666.7,236.9 672.5,242.3 678.3,247.8 684.1,253.1 689.9,258.2 695.7,262.9 701.5,267.3 707.3,271.2 713.1,274.6 718.9,277.5 724.7,279.9 730.5,281.9 736.3,283.4 742.1,284.5 747.9,285.2 753.7,285.7 759.4,285.9 765.2,286.0 771.0,286.0 776.8,286.0 782.6,285.9 788.4,285.9 794.2,285.8" fill="none" stroke="#f39c12" stroke-width="1.3" stroke-linejoin="round" clip-path="url(#pc276)"/>
</svg>
