<svg xmlns="http://www.w3.org/2000/svg" viewBox="0 0 820 378" style="font-family:system-ui,-apple-system,sans-serif">
  <text x="800" y="11" text-anchor="end" font-size="11" font-weight="600" fill="#6b7280">firwin bandpass, 127 taps</text>
  <line x1="34" y1="16" x2="34" y2="171" stroke="#d1d5db"/>
  <line x1="34" y1="47.0" x2="399" y2="47.0" stroke="#d1d5db"/>
  <text x="216.5" y="197" text-anchor="middle" font-size="9" fill="#6b7280">Hz</text>
  <text x="12" y="93.5" text-anchor="middle" font-size="9" fill="#6b7280" transform="rotate(-90 12 93.5)">dB</text>
  <line x1="67.3" y1="16" x2="67.3" y2="171" stroke="#e5e7eb" stroke-width="0.5"/>
  <line x1="86.8" y1="16" x2="86.8" y2="171" stroke="#e5e7eb" stroke-width="0.5"/>
  <line x1="100.6" y1="16" x2="100.6" y2="171" stroke="#e5e7eb" stroke-width="0.5"/>
  <line x1="111.3" y1="16" x2="111.3" y2="171" stroke="#e5e7eb" stroke-width="0.5"/>
  <line x1="120.0" y1="16" x2="120.0" y2="171" stroke="#e5e7eb" stroke-width="0.5"/>
  <line x1="127.4" y1="16" x2="127.4" y2="171" stroke="#e5e7eb" stroke-width="0.5"/>
  <line x1="133.9" y1="16" x2="133.9" y2="171" stroke="#e5e7eb" stroke-width="0.5"/>
  <line x1="139.5" y1="16" x2="139.5" y2="171" stroke="#e5e7eb" stroke-width="0.5"/>
  <line x1="177.9" y1="16" x2="177.9" y2="171" stroke="#e5e7eb" stroke-width="0.5"/>
  <line x1="197.3" y1="16" x2="197.3" y2="171" stroke="#e5e7eb" stroke-width="0.5"/>
  <line x1="211.1" y1="16" x2="211.1" y2="171" stroke="#e5e7eb" stroke-width="0.5"/>
  <line x1="221.9" y1="16" x2="221.9" y2="171" stroke="#e5e7eb" stroke-width="0.5"/>
  <line x1="230.6" y1="16" x2="230.6" y2="171" stroke="#e5e7eb" stroke-width="0.5"/>
  <line x1="238.0" y1="16" x2="238.0" y2="171" stroke="#e5e7eb" stroke-width="0.5"/>
  <line x1="244.4" y1="16" x2="244.4" y2="171" stroke="#e5e7eb" stroke-width="0.5"/>
  <line x1="250.1" y1="16" x2="250.1" y2="171" stroke="#e5e7eb" stroke-width="0.5"/>
  <line x1="288.4" y1="16" x2="288.4" y2="171" stroke="#e5e7eb" stroke-width="0.5"/>
  <line x1="307.9" y1="16" x2="307.9" y2="171" stroke="#e5e7eb" stroke-width="0.5"/>
  <line x1="321.7" y1="16" x2="321.7" y2="171" stroke="#e5e7eb" stroke-width="0.5"/>
  <line x1="332.4" y1="16" x2="332.4" y2="171" stroke="#e5e7eb" stroke-width="0.5"/>
  <line x1="341.2" y1="16" x2="341.2" y2="171" stroke="#e5e7eb" stroke-width="0.5"/>
  <line x1="348.6" y1="16" x2="348.6" y2="171" stroke="#e5e7eb" stroke-width="0.5"/>
  <line x1="355.0" y1="16" x2="355.0" y2="171" stroke="#e5e7eb" stroke-width="0.5"/>
  <line x1="360.7" y1="16" x2="360.7" y2="171" stroke="#e5e7eb" stroke-width="0.5"/>
  <line x1="399.0" y1="16" x2="399.0" y2="171" stroke="#e5e7eb" stroke-width="0.5"/>
  <line x1="144.6" y1="16" x2="144.6" y2="171" stroke="#e5e7eb" stroke-width="0.5"/>
  <text x="144.6" y="183" text-anchor="middle" font-size="8" fill="#6b7280">100</text>
  <line x1="255.1" y1="16" x2="255.1" y2="171" stroke="#e5e7eb" stroke-width="0.5"/>
  <text x="255.1" y="183" text-anchor="middle" font-size="8" fill="#6b7280">1k</text>
  <line x1="365.7" y1="16" x2="365.7" y2="171" stroke="#e5e7eb" stroke-width="0.5"/>
  <text x="365.7" y="183" text-anchor="middle" font-size="8" fill="#6b7280">10k</text>
  <line x1="34" y1="31.5" x2="399" y2="31.5" stroke="#e5e7eb" stroke-width="0.5"/>
  <line x1="34" y1="62.5" x2="399" y2="62.5" stroke="#e5e7eb" stroke-width="0.5"/>
  <line x1="34" y1="16.0" x2="399" y2="16.0" stroke="#e5e7eb" stroke-width="0.5"/>
  <text x="30" y="19.0" text-anchor="end" font-size="8" fill="#6b7280">+20</text>
  <text x="30" y="50.0" text-anchor="end" font-size="8" fill="#6b7280">0</text>
  <line x1="34" y1="78.0" x2="399" y2="78.0" stroke="#e5e7eb" stroke-width="0.5"/>
  <text x="30" y="81.0" text-anchor="end" font-size="8" fill="#6b7280">-20</text>
  <line x1="34" y1="109.0" x2="399" y2="109.0" stroke="#e5e7eb" stroke-width="0.5"/>
  <text x="30" y="112.0" text-anchor="end" font-size="8" fill="#6b7280">-40</text>
  <line x1="34" y1="140.0" x2="399" y2="140.0" stroke="#e5e7eb" stroke-width="0.5"/>
  <text x="30" y="143.0" text-anchor="end" font-size="8" fill="#6b7280">-60</text>
  <line x1="34" y1="171.0" x2="399" y2="171.0" stroke="#e5e7eb" stroke-width="0.5"/>
  <text x="30" y="174.0" text-anchor="end" font-size="8" fill="#6b7280">-80</text>
  <defs><linearGradient id="g291" x1="0" y1="16" x2="0" y2="171" gradientUnits="userSpaceOnUse">
    <stop offset="0%" stop-color="#4a90d9" stop-opacity="0.15"/>
    <stop offset="100%" stop-color="#4a90d9" stop-opacity="0.02"/>
  </linearGradient></defs>
  <path d="M37.5,95.4 37.5,95.4 70.8,95.1 90.3,94.5 104.1,93.7 114.8,92.7 123.6,91.7 131.0,90.5 137.4,89.3 143.1,88.0 148.1,86.7 152.7,85.4 156.9,84.1 160.7,82.9 164.3,81.6 167.6,80.4 170.7,79.2 173.6,78.1 176.3,77.0 178.9,75.9 181.4,74.8 183.7,73.8 186.0,72.8 188.1,71.9 190.2,70.9 192.1,70.0 194.0,69.2 195.8,68.3 197.6,67.5 199.2,66.7 200.9,66.0 202.4,65.2 204.0,64.5 205.5,63.8 206.9,63.2 208.3,62.5 209.6,61.9 210.9,61.3 212.2,60.7 213.5,60.1 214.7,59.6 215.9,59.0 217.0,58.5 218.2,58.0 219.3,57.5 220.3,57.0 221.4,56.6 222.4,56.1 223.4,55.7 224.4,55.3 225.4,54.9 226.4,54.5 227.3,54.1 228.2,53.8 229.1,53.4 230.0,53.1 230.8,52.8 231.7,52.5 232.5,52.2 233.4,51.9 234.2,51.6 235.7,51.1 237.3,50.6 238.7,50.1 240.2,49.7 241.6,49.4 242.9,49.0 244.2,48.7 245.5,48.5 246.8,48.2 248.0,48.0 249.2,47.8 250.3,47.7 251.4,47.5 252.6,47.4 253.6,47.3 254.7,47.2 255.7,47.2 256.7,47.1 257.7,47.1 258.7,47.1 259.6,47.0 260.6,47.0 261.5,47.0 262.4,47.0 263.3,47.0 264.1,47.0 265.0,47.0 265.8,47.0 266.6,47.0 267.4,47.0 268.6,47.0 269.8,47.0 270.9,47.0 272.0,47.1 273.1,47.1 274.2,47.2 275.2,47.3 276.2,47.4 277.2,47.6 278.2,47.8 279.1,48.1 280.0,48.4 281.0,48.8 281.9,49.3 282.7,49.9 283.6,50.5 284.5,51.2 285.3,52.1 286.1,53.0 286.9,54.1 288.0,55.6 289.0,57.4 290.0,59.5 291.0,61.8 292.0,64.4 292.9,67.3 293.9,70.6 294.8,74.3 295.7,78.5 296.6,83.3 297.4,89.0 298.3,95.7 299.1,104.2 299.9,116.3 300.7,147.2 301.7,127.3 302.7,124.1 303.6,127.1 304.6,134.7 305.5,150.8 306.4,160.1 307.3,150.2 308.1,153.3 309.0,171.0 309.8,160.2 310.6,151.3 311.4,150.2 312.4,156.5 313.3,171.0 314.2,153.5 315.1,147.5 316.0,147.5 316.9,153.4 317.7,171.0 318.6,156.6 319.4,148.7 320.2,147.3 321.1,152.0 322.0,171.0 322.9,156.8 323.8,149.2 324.7,149.4 325.5,157.0 326.3,171.0 327.1,154.7 327.9,150.1 328.8,153.0 329.7,171.0 330.6,159.1 331.4,151.6 332.3,153.6 333.1,169.6 333.9,162.4 334.8,152.9 335.7,155.9 336.5,171.0 337.4,158.2 338.2,154.0 339.0,161.5 339.8,171.0 340.7,155.8 341.6,157.6 342.4,171.0 343.3,158.7 344.1,156.8 344.9,171.0 345.8,161.6 346.6,157.4 347.5,171.0 348.3,162.0 349.1,158.3 350.0,171.0 350.8,160.5 351.7,161.2 352.5,171.0 353.3,159.5 354.1,168.3 355.0,165.4 355.8,161.0 356.6,171.0 357.5,160.8 358.3,171.0 359.1,164.2 360.0,164.4 360.8,171.0 361.6,162.3 362.5,171.0 363.3,162.1 364.1,171.0 364.9,162.5 365.8,171.0 366.6,163.0 367.4,171.0 368.2,163.4 369.1,171.0 369.9,163.8 370.7,171.0 371.6,165.6 372.4,171.0 373.2,169.3 374.0,166.6 374.8,171.0 375.6,165.1 376.5,171.0 377.3,169.9 378.1,167.0 378.9,171.0 379.7,167.7 380.5,168.9 381.4,171.0 382.2,168.4 383.0,168.4 383.8,171.0 384.6,171.0 385.5,167.1 386.3,171.0 387.1,171.0 387.9,171.0 388.7,167.7 389.5,169.7 390.3,171.0 391.2,171.0 392.0,171.0 392.8,169.6 393.6,168.3 394.4,169.5 395.2,171.0 396.0,171.0 396.8,171.0 397.6,171.0 398.5,171.0 L398.5,171.0 L37.5,171.0 Z" fill="url(#g291)"/>
  <defs><clipPath id="pc292"><rect x="34" y="16" width="365" height="155"/></clipPath></defs>
  <polyline points="37.5,95.4 70.8,95.1 90.3,94.5 104.1,93.7 114.8,92.7 123.6,91.7 131.0,90.5 137.4,89.3 143.1,88.0 148.1,86.7 152.7,85.4 156.9,84.1 160.7,82.9 164.3,81.6 167.6,80.4 170.7,79.2 173.6,78.1 176.3,77.0 178.9,75.9 181.4,74.8 183.7,73.8 186.0,72.8 188.1,71.9 190.2,70.9 192.1,70.0 194.0,69.2 195.8,68.3 197.6,67.5 199.2,66.7 200.9,66.0 202.4,65.2 204.0,64.5 205.5,63.8 206.9,63.2 208.3,62.5 209.6,61.9 210.9,61.3 212.2,60.7 213.5,60.1 214.7,59.6 215.9,59.0 217.0,58.5 218.2,58.0 219.3,57.5 220.3,57.0 221.4,56.6 222.4,56.1 223.4,55.7 224.4,55.3 225.4,54.9 226.4,54.5 227.3,54.1 228.2,53.8 229.1,53.4 230.0,53.1 230.8,52.8 231.7,52.5 232.5,52.2 233.4,51.9 234.2,51.6 235.7,51.1 237.3,50.6 238.7,50.1 240.2,49.7 241.6,49.4 242.9,49.0 244.2,48.7 245.5,48.5 246.8,48.2 248.0,48.0 249.2,47.8 250.3,47.7 251.4,47.5 252.6,47.4 253.6,47.3 254.7,47.2 255.7,47.2 256.7,47.1 257.7,47.1 258.7,47.1 259.6,47.0 260.6,47.0 261.5,47.0 262.4,47.0 263.3,47.0 264.1,47.0 265.0,47.0 265.8,47.0 266.6,47.0 267.4,47.0 268.6,47.0 269.8,47.0 270.9,47.0 272.0,47.1 273.1,47.1 274.2,47.2 275.2,47.3 276.2,47.4 277.2,47.6 278.2,47.8 279.1,48.1 280.0,48.4 281.0,48.8 281.9,49.3 282.7,49.9 283.6,50.5 284.5,51.2 285.3,52.1 286.1,53.0 286.9,54.1 288.0,55.6 289.0,57.4 290.0,59.5 291.0,61.8 292.0,64.4 292.9,67.3 293.9,70.6 294.8,74.3 295.7,78.5 296.6,83.3 297.4,89.0 298.3,95.7 299.1,104.2 299.9,116.3 300.7,147.2 301.7,127.3 302.7,124.1 303.6,127.1 304.6,134.7 305.5,150.8 306.4,160.1 307.3,150.2 308.1,153.3 309.0,172.7 309.8,160.2 310.6,151.3 311.4,150.2 312.4,156.5 313.3,185.2 314.2,153.5 315.1,147.5 316.0,147.5 316.9,153.4 317.7,181.8 318.6,156.6 319.4,148.7 320.2,147.3 321.1,152.0 322.0,176.0 322.9,156.8 323.8,149.2 324.7,149.4 325.5,157.0 326.3,182.1 327.1,154.7 327.9,150.1 328.8,153.0 329.7,173.2 330.6,159.1 331.4,151.6 332.3,153.6 333.1,169.6 333.9,162.4 334.8,152.9 335.7,155.9 336.5,189.6 337.4,158.2 338.2,154.0 339.0,161.5 339.8,174.0 340.7,155.8 341.6,157.6 342.4,203.4 343.3,158.7 344.1,156.8 344.9,173.2 345.8,161.6 346.6,157.4 347.5,175.4 348.3,162.0 349.1,158.3 350.0,185.2 350.8,160.5 351.7,161.2 352.5,181.2 353.3,159.5 354.1,168.3 355.0,165.4 355.8,161.0 356.6,194.7 357.5,160.8 358.3,171.6 359.1,164.2 360.0,164.4 360.8,172.4 361.6,162.3 362.5,182.8 363.3,162.1 364.1,209.5 364.9,162.5 365.8,197.2 366.6,163.0 367.4,191.4 368.2,163.4 369.1,212.7 369.9,163.8 370.7,181.6 371.6,165.6 372.4,171.7 373.2,169.3 374.0,166.6 374.8,184.3 375.6,165.1 376.5,178.1 377.3,169.9 378.1,167.0 378.9,214.1 379.7,167.7 380.5,168.9 381.4,206.9 382.2,168.4 383.0,168.4 383.8,191.0 384.6,172.2 385.5,167.1 386.3,172.1 387.1,210.7 387.9,172.6 388.7,167.7 389.5,169.7 390.3,179.5 391.2,201.1 392.0,175.7 392.8,169.6 393.6,168.3 394.4,169.5 395.2,172.4 396.0,178.1 396.8,185.6 397.6,206.5 398.5,204.4" fill="none" stroke="#4a90d9" stroke-width="1.5" stroke-linejoin="round" clip-path="url(#pc292)"/>
  <line x1="435" y1="16" x2="435" y2="171" stroke="#d1d5db"/>
  <line x1="435" y1="93.5" x2="800" y2="93.5" stroke="#d1d5db"/>
  <text x="617.5" y="197" text-anchor="middle" font-size="9" fill="#6b7280">Hz</text>
  <text x="413" y="93.5" text-anchor="middle" font-size="9" fill="#6b7280" transform="rotate(-90 413 93.5)">Phase (deg)</text>
  <line x1="468.3" y1="16" x2="468.3" y2="171" stroke="#e5e7eb" stroke-width="0.5"/>
  <line x1="487.8" y1="16" x2="487.8" y2="171" stroke="#e5e7eb" stroke-width="0.5"/>
  <line x1="501.6" y1="16" x2="501.6" y2="171" stroke="#e5e7eb" stroke-width="0.5"/>
  <line x1="512.3" y1="16" x2="512.3" y2="171" stroke="#e5e7eb" stroke-width="0.5"/>
  <line x1="521.0" y1="16" x2="521.0" y2="171" stroke="#e5e7eb" stroke-width="0.5"/>
  <line x1="528.4" y1="16" x2="528.4" y2="171" stroke="#e5e7eb" stroke-width="0.5"/>
  <line x1="534.9" y1="16" x2="534.9" y2="171" stroke="#e5e7eb" stroke-width="0.5"/>
  <line x1="540.5" y1="16" x2="540.5" y2="171" stroke="#e5e7eb" stroke-width="0.5"/>
  <line x1="578.9" y1="16" x2="578.9" y2="171" stroke="#e5e7eb" stroke-width="0.5"/>
  <line x1="598.3" y1="16" x2="598.3" y2="171" stroke="#e5e7eb" stroke-width="0.5"/>
  <line x1="612.1" y1="16" x2="612.1" y2="171" stroke="#e5e7eb" stroke-width="0.5"/>
  <line x1="622.9" y1="16" x2="622.9" y2="171" stroke="#e5e7eb" stroke-width="0.5"/>
  <line x1="631.6" y1="16" x2="631.6" y2="171" stroke="#e5e7eb" stroke-width="0.5"/>
  <line x1="639.0" y1="16" x2="639.0" y2="171" stroke="#e5e7eb" stroke-width="0.5"/>
  <line x1="645.4" y1="16" x2="645.4" y2="171" stroke="#e5e7eb" stroke-width="0.5"/>
  <line x1="651.1" y1="16" x2="651.1" y2="171" stroke="#e5e7eb" stroke-width="0.5"/>
  <line x1="689.4" y1="16" x2="689.4" y2="171" stroke="#e5e7eb" stroke-width="0.5"/>
  <line x1="708.9" y1="16" x2="708.9" y2="171" stroke="#e5e7eb" stroke-width="0.5"/>
  <line x1="722.7" y1="16" x2="722.7" y2="171" stroke="#e5e7eb" stroke-width="0.5"/>
  <line x1="733.4" y1="16" x2="733.4" y2="171" stroke="#e5e7eb" stroke-width="0.5"/>
  <line x1="742.2" y1="16" x2="742.2" y2="171" stroke="#e5e7eb" stroke-width="0.5"/>
  <line x1="749.6" y1="16" x2="749.6" y2="171" stroke="#e5e7eb" stroke-width="0.5"/>
  <line x1="756.0" y1="16" x2="756.0" y2="171" stroke="#e5e7eb" stroke-width="0.5"/>
  <line x1="761.7" y1="16" x2="761.7" y2="171" stroke="#e5e7eb" stroke-width="0.5"/>
  <line x1="800.0" y1="16" x2="800.0" y2="171" stroke="#e5e7eb" stroke-width="0.5"/>
  <line x1="545.6" y1="16" x2="545.6" y2="171" stroke="#e5e7eb" stroke-width="0.5"/>
  <text x="545.6" y="183" text-anchor="middle" font-size="8" fill="#6b7280">100</text>
  <line x1="656.1" y1="16" x2="656.1" y2="171" stroke="#e5e7eb" stroke-width="0.5"/>
  <text x="656.1" y="183" text-anchor="middle" font-size="8" fill="#6b7280">1k</text>
  <line x1="766.7" y1="16" x2="766.7" y2="171" stroke="#e5e7eb" stroke-width="0.5"/>
  <text x="766.7" y="183" text-anchor="middle" font-size="8" fill="#6b7280">10k</text>
  <line x1="435" y1="54.8" x2="800" y2="54.8" stroke="#e5e7eb" stroke-width="0.5"/>
  <line x1="435" y1="132.3" x2="800" y2="132.3" stroke="#e5e7eb" stroke-width="0.5"/>
  <line x1="435" y1="16.0" x2="800" y2="16.0" stroke="#e5e7eb" stroke-width="0.5"/>
  <text x="431" y="19.0" text-anchor="end" font-size="8" fill="#6b7280">180</text>
  <text x="431" y="96.5" text-anchor="end" font-size="8" fill="#6b7280">0</text>
  <line x1="435" y1="171.0" x2="800" y2="171.0" stroke="#e5e7eb" stroke-width="0.5"/>
  <text x="431" y="174.0" text-anchor="end" font-size="8" fill="#6b7280">-180</text>
  <defs><linearGradient id="g293" x1="0" y1="16" x2="0" y2="93.5" gradientUnits="userSpaceOnUse">
    <stop offset="0%" stop-color="#e74c3c" stop-opacity="0.15"/>
    <stop offset="100%" stop-color="#e74c3c" stop-opacity="0.02"/>
  </linearGradient></defs>
  <defs><linearGradient id="g294" x1="0" y1="171" x2="0" y2="93.5" gradientUnits="userSpaceOnUse">
    <stop offset="0%" stop-color="#e74c3c" stop-opacity="0.15"/>
    <stop offset="100%" stop-color="#e74c3c" stop-opacity="0.02"/>
  </linearGradient></defs>
  <defs><clipPath id="c295"><rect x="435" y="16" width="365" height="77.5"/></clipPath></defs>
  <defs><clipPath id="c296"><rect x="435" y="93.5" width="365" height="77.5"/></clipPath></defs>
  <path d="M438.5,95.9 438.5,95.9 471.8,98.3 491.3,100.7 505.1,103.0 515.8,105.4 524.6,107.8 532.0,110.2 538.4,112.6 544.1,115.0 549.1,117.3 553.7,119.7 557.9,122.1 561.7,124.5 565.3,126.9 568.6,129.3 571.7,131.6 574.6,134.0 577.3,136.4 579.9,138.8 582.4,141.2 584.7,143.6 587.0,145.9 589.1,148.3 591.2,150.7 593.1,153.1 595.0,155.5 596.8,157.9 598.6,160.3 600.2,162.6 601.9,165.0 603.4,167.4 605.0,169.8 606.5,17.2 607.9,19.6 609.3,21.9 610.6,24.3 611.9,26.7 613.2,29.1 614.5,31.5 615.7,33.9 616.9,36.2 618.0,38.6 619.2,41.0 620.3,43.4 621.3,45.8 622.4,48.2 623.4,50.5 624.4,52.9 625.4,55.3 626.4,57.7 627.4,60.1 628.3,62.5 629.2,64.9 630.1,67.2 631.0,69.6 631.8,72.0 632.7,74.4 633.5,76.8 634.4,79.2 635.2,81.5 636.7,86.3 638.3,91.1 639.7,95.8 641.2,100.6 642.6,105.4 643.9,110.2 645.2,114.9 646.5,119.7 647.8,124.5 649.0,129.2 650.2,134.0 651.3,138.8 652.4,143.5 653.6,148.3 654.6,153.1 655.7,157.8 656.7,162.6 657.7,167.4 658.7,17.1 659.7,21.9 660.6,26.7 661.6,31.4 662.5,36.2 663.4,41.0 664.3,45.7 665.1,50.5 666.0,55.3 666.8,60.0 667.6,64.8 668.4,69.6 669.6,76.7 670.8,83.9 671.9,91.0 673.0,98.2 674.1,105.3 675.2,112.5 676.2,119.6 677.2,126.8 678.2,134.0 679.2,141.1 680.1,148.3 681.0,155.4 682.0,162.6 682.9,169.7 683.7,21.9 684.6,29.0 685.5,36.2 686.3,43.3 687.1,50.5 687.9,57.6 689.0,67.2 690.0,76.7 691.0,86.2 692.0,95.8 693.0,105.3 693.9,114.8 694.9,124.4 695.8,133.9 696.7,143.5 697.6,153.0 698.4,162.5 699.3,17.1 700.1,26.6 700.9,36.1 701.7,45.7 702.7,135.1 703.7,147.0 704.6,158.9 705.6,170.8 706.5,27.8 707.4,117.2 708.3,129.1 709.1,141.0 710.0,152.9 710.8,87.4 711.6,99.3 712.4,111.2 713.4,125.5 714.3,62.3 715.2,76.6 716.1,90.9 717.0,105.2 717.9,119.5 718.7,133.8 719.6,70.6 720.4,84.9 721.2,99.3 722.1,115.9 723.0,132.6 723.9,71.8 724.8,88.5 725.7,105.2 726.5,121.9 727.3,61.1 728.1,77.8 728.9,94.4 729.8,113.5 730.7,132.6 731.6,74.2 732.4,93.2 733.3,112.3 734.1,131.4 734.9,73.0 735.8,94.4 736.7,115.9 737.5,137.3 738.4,81.3 739.2,102.7 740.0,124.2 740.8,68.1 741.7,92.0 742.6,115.8 743.4,139.7 744.3,86.0 745.1,109.8 745.9,133.7 746.8,82.4 747.6,108.6 748.5,134.9 749.3,83.6 750.1,109.8 751.0,138.4 751.8,89.5 752.7,118.1 753.5,69.2 754.3,97.9 755.1,128.8 756.0,82.3 756.8,113.3 757.6,66.8 758.5,97.8 759.3,131.2 760.1,87.1 761.0,120.4 761.8,76.3 762.6,112.1 763.5,70.3 764.3,106.1 765.1,141.9 765.9,102.5 766.8,140.7 767.6,101.3 768.4,139.4 769.2,102.5 770.1,65.5 770.9,106.0 771.7,71.4 772.6,114.4 773.4,79.8 774.2,122.7 775.0,90.5 775.8,135.8 776.6,103.6 777.5,73.7 778.3,121.4 779.1,91.6 779.9,64.2 780.7,114.2 781.5,86.8 782.4,139.3 783.2,114.2 784.0,89.1 784.8,66.5 785.6,121.3 786.5,101.0 787.3,80.7 788.1,138.0 788.9,120.1 789.7,102.2 790.5,86.7 791.3,71.1 792.2,135.5 793.0,122.4 793.8,109.2 794.6,98.5 795.4,87.7 796.2,79.4 797.0,71.0 797.8,65.0 798.6,59.1 799.5,133.0 L799.5,93.5 L438.5,93.5 Z" fill="url(#g293)" clip-path="url(#c295)"/>
  <path d="M438.5,95.9 438.5,95.9 471.8,98.3 491.3,100.7 505.1,103.0 515.8,105.4 524.6,107.8 532.0,110.2 538.4,112.6 544.1,115.0 549.1,117.3 553.7,119.7 557.9,122.1 561.7,124.5 565.3,126.9 568.6,129.3 571.7,131.6 574.6,134.0 577.3,136.4 579.9,138.8 582.4,141.2 584.7,143.6 587.0,145.9 589.1,148.3 591.2,150.7 593.1,153.1 595.0,155.5 596.8,157.9 598.6,160.3 600.2,162.6 601.9,165.0 603.4,167.4 605.0,169.8 606.5,17.2 607.9,19.6 609.3,21.9 610.6,24.3 611.9,26.7 613.2,29.1 614.5,31.5 615.7,33.9 616.9,36.2 618.0,38.6 619.2,41.0 620.3,43.4 621.3,45.8 622.4,48.2 623.4,50.5 624.4,52.9 625.4,55.3 626.4,57.7 627.4,60.1 628.3,62.5 629.2,64.9 630.1,67.2 631.0,69.6 631.8,72.0 632.7,74.4 633.5,76.8 634.4,79.2 635.2,81.5 636.7,86.3 638.3,91.1 639.7,95.8 641.2,100.6 642.6,105.4 643.9,110.2 645.2,114.9 646.5,119.7 647.8,124.5 649.0,129.2 650.2,134.0 651.3,138.8 652.4,143.5 653.6,148.3 654.6,153.1 655.7,157.8 656.7,162.6 657.7,167.4 658.7,17.1 659.7,21.9 660.6,26.7 661.6,31.4 662.5,36.2 663.4,41.0 664.3,45.7 665.1,50.5 666.0,55.3 666.8,60.0 667.6,64.8 668.4,69.6 669.6,76.7 670.8,83.9 671.9,91.0 673.0,98.2 674.1,105.3 675.2,112.5 676.2,119.6 677.2,126.8 678.2,134.0 679.2,141.1 680.1,148.3 681.0,155.4 682.0,162.6 682.9,169.7 683.7,21.9 684.6,29.0 685.5,36.2 686.3,43.3 687.1,50.5 687.9,57.6 689.0,67.2 690.0,76.7 691.0,86.2 692.0,95.8 693.0,105.3 693.9,114.8 694.9,124.4 695.8,133.9 696.7,143.5 697.6,153.0 698.4,162.5 699.3,17.1 700.1,26.6 700.9,36.1 701.7,45.7 702.7,135.1 703.7,147.0 704.6,158.9 705.6,170.8 706.5,27.8 707.4,117.2 708.3,129.1 709.1,141.0 710.0,152.9 710.8,87.4 711.6,99.3 712.4,111.2 713.4,125.5 714.3,62.3 715.2,76.6 716.1,90.9 717.0,105.2 717.9,119.5 718.7,133.8 719.6,70.6 720.4,84.9 721.2,99.3 722.1,115.9 723.0,132.6 723.9,71.8 724.8,88.5 725.7,105.2 726.5,121.9 727.3,61.1 728.1,77.8 728.9,94.4 729.8,113.5 730.7,132.6 731.6,74.2 732.4,93.2 733.3,112.3 734.1,131.4 734.9,73.0 735.8,94.4 736.7,115.9 737.5,137.3 738.4,81.3 739.2,102.7 740.0,124.2 740.8,68.1 741.7,92.0 742.6,115.8 743.4,139.7 744.3,86.0 745.1,109.8 745.9,133.7 746.8,82.4 747.6,108.6 748.5,134.9 749.3,83.6 750.1,109.8 751.0,138.4 751.8,89.5 752.7,118.1 753.5,69.2 754.3,97.9 755.1,128.8 756.0,82.3 756.8,113.3 757.6,66.8 758.5,97.8 759.3,131.2 760.1,87.1 761.0,120.4 761.8,76.3 762.6,112.1 763.5,70.3 764.3,106.1 765.1,141.9 765.9,102.5 766.8,140.7 767.6,101.3 768.4,139.4 769.2,102.5 770.1,65.5 770.9,106.0 771.7,71.4 772.6,114.4 773.4,79.8 774.2,122.7 775.0,90.5 775.8,135.8 776.6,103.6 777.5,73.7 778.3,121.4 779.1,91.6 779.9,64.2 780.7,114.2 781.5,86.8 782.4,139.3 783.2,114.2 784.0,89.1 784.8,66.5 785.6,121.3 786.5,101.0 787.3,80.7 788.1,138.0 788.9,120.1 789.7,102.2 790.5,86.7 791.3,71.1 792.2,135.5 793.0,122.4 793.8,109.2 794.6,98.5 795.4,87.7 796.2,79.4 797.0,71.0 797.8,65.0 798.6,59.1 799.5,133.0 L799.5,93.5 L438.5,93.5 Z" fill="url(#g294)" clip-path="url(#c296)"/>
  <defs><clipPath id="pc297"><rect x="435" y="16" width="365" height="155"/></clipPath></defs>
  <polyline points="438.5,95.9 471.8,98.3 491.3,100.7 505.1,103.0 515.8,105.4 524.6,107.8 532.0,110.2 538.4,112.6 544.1,115.0 549.1,117.3 553.7,119.7 557.9,122.1 561.7,124.5 565.3,126.9 568.6,129.3 571.7,131.6 574.6,134.0 577.3,136.4 579.9,138.8 582.4,141.2 584.7,143.6 587.0,145.9 589.1,148.3 591.2,150.7 593.1,153.1 595.0,155.5 596.8,157.9 598.6,160.3 600.2,162.6 601.9,165.0 603.4,167.4 605.0,169.8 606.5,17.2 607.9,19.6 609.3,21.9 610.6,24.3 611.9,26.7 613.2,29.1 614.5,31.5 615.7,33.9 616.9,36.2 618.0,38.6 619.2,41.0 620.3,43.4 621.3,45.8 622.4,48.2 623.4,50.5 624.4,52.9 625.4,55.3 626.4,57.7 627.4,60.1 628.3,62.5 629.2,64.9 630.1,67.2 631.0,69.6 631.8,72.0 632.7,74.4 633.5,76.8 634.4,79.2 635.2,81.5 636.7,86.3 638.3,91.1 639.7,95.8 641.2,100.6 642.6,105.4 643.9,110.2 645.2,114.9 646.5,119.7 647.8,124.5 649.0,129.2 650.2,134.0 651.3,138.8 652.4,143.5 653.6,148.3 654.6,153.1 655.7,157.8 656.7,162.6 657.7,167.4 658.7,17.1 659.7,21.9 660.6,26.7 661.6,31.4 662.5,36.2 663.4,41.0 664.3,45.7 665.1,50.5 666.0,55.3 666.8,60.0 667.6,64.8 668.4,69.6 669.6,76.7 670.8,83.9 671.9,91.0 673.0,98.2 674.1,105.3 675.2,112.5 676.2,119.6 677.2,126.8 678.2,134.0 679.2,141.1 680.1,148.3 681.0,155.4 682.0,162.6 682.9,169.7 683.7,21.9 684.6,29.0 685.5,36.2 686.3,43.3 687.1,50.5 687.9,57.6 689.0,67.2 690.0,76.7 691.0,86.2 692.0,95.8 693.0,105.3 693.9,114.8 694.9,124.4 695.8,133.9 696.7,143.5 697.6,153.0 698.4,162.5 699.3,17.1 700.1,26.6 700.9,36.1 701.7,45.7 702.7,135.1 703.7,147.0 704.6,158.9 705.6,170.8 706.5,27.8 707.4,117.2 708.3,129.1 709.1,141.0 710.0,152.9 710.8,87.4 711.6,99.3 712.4,111.2 713.4,125.5 714.3,62.3 715.2,76.6 716.1,90.9 717.0,105.2 717.9,119.5 718.7,133.8 719.6,70.6 720.4,84.9 721.2,99.3 722.1,115.9 723.0,132.6 723.9,71.8 724.8,88.5 725.7,105.2 726.5,121.9 727.3,61.1 728.1,77.8 728.9,94.4 729.8,113.5 730.7,132.6 731.6,74.2 732.4,93.2 733.3,112.3 734.1,131.4 734.9,73.0 735.8,94.4 736.7,115.9 737.5,137.3 738.4,81.3 739.2,102.7 740.0,124.2 740.8,68.1 741.7,92.0 742.6,115.8 743.4,139.7 744.3,86.0 745.1,109.8 745.9,133.7 746.8,82.4 747.6,108.6 748.5,134.9 749.3,83.6 750.1,109.8 751.0,138.4 751.8,89.5 752.7,118.1 753.5,69.2 754.3,97.9 755.1,128.8 756.0,82.3 756.8,113.3 757.6,66.8 758.5,97.8 759.3,131.2 760.1,87.1 761.0,120.4 761.8,76.3 762.6,112.1 763.5,70.3 764.3,106.1 765.1,141.9 765.9,102.5 766.8,140.7 767.6,101.3 768.4,139.4 769.2,102.5 770.1,65.5 770.9,106.0 771.7,71.4 772.6,114.4 773.4,79.8 774.2,122.7 775.0,90.5 775.8,135.8 776.6,103.6 777.5,73.7 778.3,121.4 779.1,91.6 779.9,64.2 780.7,114.2 781.5,86.8 782.4,139.3 783.2,114.2 784.0,89.1 784.8,66.5 785.6,121.3 786.5,101.0 787.3,80.7 788.1,138.0 788.9,120.1 789.7,102.2 790.5,86.7 791.3,71.1 792.2,135.5 793.0,122.4 793.8,109.2 794.6,98.5 795.4,87.7 796.2,79.4 797.0,71.0 797.8,65.0 798.6,59.1 799.5,133.0" fill="none" stroke="#e74c3c" stroke-width="1.5" stroke-linejoin="round" clip-path="url(#pc297)"/>
  <line x1="34" y1="207" x2="34" y2="362" stroke="#d1d5db"/>
  <line x1="34" y1="284.5" x2="399" y2="284.5" stroke="#d1d5db"/>
  <text x="216.5" y="388" text-anchor="middle" font-size="9" fill="#6b7280">Hz</text>
  <text x="12" y="284.5" text-anchor="middle" font-size="9" fill="#6b7280" transform="rotate(-90 12 284.5)">Group delay</text>
  <line x1="67.3" y1="207" x2="67.3" y2="362" stroke="#e5e7eb" stroke-width="0.5"/>
  <line x1="86.8" y1="207" x2="86.8" y2="362" stroke="#e5e7eb" stroke-width="0.5"/>
  <line x1="100.6" y1="207" x2="100.6" y2="362" stroke="#e5e7eb" stroke-width="0.5"/>
  <line x1="111.3" y1="207" x2="111.3" y2="362" stroke="#e5e7eb" stroke-width="0.5"/>
  <line x1="120.0" y1="207" x2="120.0" y2="362" stroke="#e5e7eb" stroke-width="0.5"/>
  <line x1="127.4" y1="207" x2="127.4" y2="362" stroke="#e5e7eb" stroke-width="0.5"/>
  <line x1="133.9" y1="207" x2="133.9" y2="362" stroke="#e5e7eb" stroke-width="0.5"/>
  <line x1="139.5" y1="207" x2="139.5" y2="362" stroke="#e5e7eb" stroke-width="0.5"/>
  <line x1="177.9" y1="207" x2="177.9" y2="362" stroke="#e5e7eb" stroke-width="0.5"/>
  <line x1="197.3" y1="207" x2="197.3" y2="362" stroke="#e5e7eb" stroke-width="0.5"/>
  <line x1="211.1" y1="207" x2="211.1" y2="362" stroke="#e5e7eb" stroke-width="0.5"/>
  <line x1="221.9" y1="207" x2="221.9" y2="362" stroke="#e5e7eb" stroke-width="0.5"/>
  <line x1="230.6" y1="207" x2="230.6" y2="362" stroke="#e5e7eb" stroke-width="0.5"/>
  <line x1="238.0" y1="207" x2="238.0" y2="362" stroke="#e5e7eb" stroke-width="0.5"/>
  <line x1="244.4" y1="207" x2="244.4" y2="362" stroke="#e5e7eb" stroke-width="0.5"/>
  <line x1="250.1" y1="207" x2="250.1" y2="362" stroke="#e5e7eb" stroke-width="0.5"/>
  <line x1="288.4" y1="207" x2="288.4" y2="362" stroke="#e5e7eb" stroke-width="0.5"/>
  <line x1="307.9" y1="207" x2="307.9" y2="362" stroke="#e5e7eb" stroke-width="0.5"/>
  <line x1="321.7" y1="207" x2="321.7" y2="362" stroke="#e5e7eb" stroke-width="0.5"/>
  <line x1="332.4" y1="207" x2="332.4" y2="362" stroke="#e5e7eb" stroke-width="0.5"/>
  <line x1="341.2" y1="207" x2="341.2" y2="362" stroke="#e5e7eb" stroke-width="0.5"/>
  <line x1="348.6" y1="207" x2="348.6" y2="362" stroke="#e5e7eb" stroke-width="0.5"/>
  <line x1="355.0" y1="207" x2="355.0" y2="362" stroke="#e5e7eb" stroke-width="0.5"/>
  <line x1="360.7" y1="207" x2="360.7" y2="362" stroke="#e5e7eb" stroke-width="0.5"/>
  <line x1="399.0" y1="207" x2="399.0" y2="362" stroke="#e5e7eb" stroke-width="0.5"/>
  <line x1="144.6" y1="207" x2="144.6" y2="362" stroke="#e5e7eb" stroke-width="0.5"/>
  <text x="144.6" y="374" text-anchor="middle" font-size="8" fill="#6b7280">100</text>
  <line x1="255.1" y1="207" x2="255.1" y2="362" stroke="#e5e7eb" stroke-width="0.5"/>
  <text x="255.1" y="374" text-anchor="middle" font-size="8" fill="#6b7280">1k</text>
  <line x1="365.7" y1="207" x2="365.7" y2="362" stroke="#e5e7eb" stroke-width="0.5"/>
  <text x="365.7" y="374" text-anchor="middle" font-size="8" fill="#6b7280">10k</text>
  <line x1="34" y1="327.9" x2="399" y2="327.9" stroke="#e5e7eb" stroke-width="0.5"/>
  <text x="30" y="330.9" text-anchor="end" font-size="8" fill="#6b7280">-700</text>
  <text x="30" y="287.5" text-anchor="end" font-size="8" fill="#6b7280">0</text>
  <line x1="34" y1="241.1" x2="399" y2="241.1" stroke="#e5e7eb" stroke-width="0.5"/>
  <text x="30" y="244.1" text-anchor="end" font-size="8" fill="#6b7280">700</text>
  <defs><linearGradient id="g298" x1="0" y1="207" x2="0" y2="284.5" gradientUnits="userSpaceOnUse">
    <stop offset="0%" stop-color="#2ecc71" stop-opacity="0.15"/>
    <stop offset="100%" stop-color="#2ecc71" stop-opacity="0.02"/>
  </linearGradient></defs>
  <defs><linearGradient id="g299" x1="0" y1="362" x2="0" y2="284.5" gradientUnits="userSpaceOnUse">
    <stop offset="0%" stop-color="#2ecc71" stop-opacity="0.15"/>
    <stop offset="100%" stop-color="#2ecc71" stop-opacity="0.02"/>
  </linearGradient></defs>
  <defs><clipPath id="c300"><rect x="34" y="207" width="365" height="77.5"/></clipPath></defs>
  <defs><clipPath id="c301"><rect x="34" y="284.5" width="365" height="77.5"/></clipPath></defs>
  <path d="M37.5,280.6 37.5,280.6 70.8,280.6 90.3,280.6 104.1,280.6 114.8,280.6 123.6,280.6 131.0,280.6 137.4,280.6 143.1,280.6 148.1,280.6 152.7,280.6 156.9,280.6 160.7,280.6 164.3,280.6 167.6,280.6 170.7,280.6 173.6,280.6 176.3,280.6 178.9,280.6 181.4,280.6 183.7,280.6 186.0,280.6 188.1,280.6 190.2,280.6 192.1,280.6 194.0,280.6 195.8,280.6 197.6,280.6 199.2,280.6 200.9,280.6 202.4,280.6 204.0,280.6 205.5,280.6 206.9,280.6 208.3,280.6 209.6,280.6 210.9,280.6 212.2,280.6 213.5,280.6 214.7,280.6 215.9,280.6 217.0,280.6 218.2,280.6 219.3,280.6 220.3,280.6 221.4,280.6 222.4,280.6 223.4,280.6 224.4,280.6 225.4,280.6 226.4,280.6 227.3,280.6 228.2,280.6 229.1,280.6 230.0,280.6 230.8,280.6 231.7,280.6 232.5,280.6 233.4,280.6 234.2,280.6 235.7,280.6 237.3,280.6 238.7,280.6 240.2,280.6 241.6,280.6 242.9,280.6 244.2,280.6 245.5,280.6 246.8,280.6 248.0,280.6 249.2,280.6 250.3,280.6 251.4,280.6 252.6,280.6 253.6,280.6 254.7,280.6 255.7,280.6 256.7,280.6 257.7,280.6 258.7,280.6 259.6,280.6 260.6,280.6 261.5,280.6 262.4,280.6 263.3,280.6 264.1,280.6 265.0,280.6 265.8,280.6 266.6,280.6 267.4,280.6 268.6,280.6 269.8,280.6 270.9,280.6 272.0,280.6 273.1,280.6 274.2,280.6 275.2,280.6 276.2,280.6 277.2,280.6 278.2,280.6 279.1,280.6 280.0,280.6 281.0,280.6 281.9,280.6 282.7,280.6 283.6,280.6 284.5,280.6 285.3,280.6 286.1,280.6 286.9,280.6 288.0,280.6 289.0,280.6 290.0,280.6 291.0,280.6 292.0,280.6 292.9,280.6 293.9,280.6 294.8,280.6 295.7,280.6 296.6,280.6 297.4,280.6 298.3,280.6 299.1,280.6 299.9,280.6 300.7,344.1 301.7,280.6 302.7,280.6 303.6,280.6 304.6,280.6 305.5,280.6 306.4,280.6 307.3,280.6 308.1,280.6 309.0,280.6 309.8,280.6 310.6,280.6 311.4,280.6 312.4,280.6 313.3,344.1 314.2,280.6 315.1,280.6 316.0,280.6 316.9,280.6 317.7,344.1 318.6,280.6 319.4,280.6 320.2,280.6 321.1,280.6 322.0,280.6 322.9,280.6 323.8,280.6 324.7,280.6 325.5,280.6 326.3,344.1 327.1,280.6 327.9,280.6 328.8,280.6 329.7,280.6 330.6,280.6 331.4,280.6 332.3,280.6 333.1,280.6 333.9,280.6 334.8,280.6 335.7,280.6 336.5,344.1 337.4,280.6 338.2,280.6 339.0,280.6 339.8,280.6 340.7,280.6 341.6,280.6 342.4,344.1 343.3,280.6 344.1,280.6 344.9,280.6 345.8,280.6 346.6,280.6 347.5,280.6 348.3,280.6 349.1,280.6 350.0,280.6 350.8,280.6 351.7,280.6 352.5,280.6 353.3,280.6 354.1,280.6 355.0,280.6 355.8,280.6 356.6,344.1 357.5,280.6 358.3,280.6 359.1,280.6 360.0,280.6 360.8,280.6 361.6,280.6 362.5,280.6 363.3,280.6 364.1,344.1 364.9,280.6 365.8,344.1 366.6,280.6 367.4,280.6 368.2,280.6 369.1,344.1 369.9,280.6 370.7,280.6 371.6,280.6 372.4,280.6 373.2,280.6 374.0,280.6 374.8,280.6 375.6,280.6 376.5,280.6 377.3,280.6 378.1,280.6 378.9,344.1 379.7,280.6 380.5,280.6 381.4,344.1 382.2,280.6 383.0,280.6 383.8,280.6 384.6,280.6 385.5,280.6 386.3,280.6 387.1,344.1 387.9,280.6 388.7,280.6 389.5,280.6 390.3,280.6 391.2,344.1 392.0,280.6 392.8,280.6 393.6,280.6 394.4,280.6 395.2,280.6 396.0,280.6 396.8,280.6 397.6,344.1 398.5,344.1 L398.5,284.5 L37.5,284.5 Z" fill="url(#g298)" clip-path="url(#c300)"/>
  <path d="M37.5,280.6 37.5,280.6 70.8,280.6 90.3,280.6 104.1,280.6 114.8,280.6 123.6,280.6 131.0,280.6 137.4,280.6 143.1,280.6 148.1,280.6 152.7,280.6 156.9,280.6 160.7,280.6 164.3,280.6 167.6,280.6 170.7,280.6 173.6,280.6 176.3,280.6 178.9,280.6 181.4,280.6 183.7,280.6 186.0,280.6 188.1,280.6 190.2,280.6 192.1,280.6 194.0,280.6 195.8,280.6 197.6,280.6 199.2,280.6 200.9,280.6 202.4,280.6 204.0,280.6 205.5,280.6 206.9,280.6 208.3,280.6 209.6,280.6 210.9,280.6 212.2,280.6 213.5,280.6 214.7,280.6 215.9,280.6 217.0,280.6 218.2,280.6 219.3,280.6 220.3,280.6 221.4,280.6 222.4,280.6 223.4,280.6 224.4,280.6 225.4,280.6 226.4,280.6 227.3,280.6 228.2,280.6 229.1,280.6 230.0,280.6 230.8,280.6 231.7,280.6 232.5,280.6 233.4,280.6 234.2,280.6 235.7,280.6 237.3,280.6 238.7,280.6 240.2,280.6 241.6,280.6 242.9,280.6 244.2,280.6 245.5,280.6 246.8,280.6 248.0,280.6 249.2,280.6 250.3,280.6 251.4,280.6 252.6,280.6 253.6,280.6 254.7,280.6 255.7,280.6 256.7,280.6 257.7,280.6 258.7,280.6 259.6,280.6 260.6,280.6 261.5,280.6 262.4,280.6 263.3,280.6 264.1,280.6 265.0,280.6 265.8,280.6 266.6,280.6 267.4,280.6 268.6,280.6 269.8,280.6 270.9,280.6 272.0,280.6 273.1,280.6 274.2,280.6 275.2,280.6 276.2,280.6 277.2,280.6 278.2,280.6 279.1,280.6 280.0,280.6 281.0,280.6 281.9,280.6 282.7,280.6 283.6,280.6 284.5,280.6 285.3,280.6 286.1,280.6 286.9,280.6 288.0,280.6 289.0,280.6 290.0,280.6 291.0,280.6 292.0,280.6 292.9,280.6 293.9,280.6 294.8,280.6 295.7,280.6 296.6,280.6 297.4,280.6 298.3,280.6 299.1,280.6 299.9,280.6 300.7,344.1 301.7,280.6 302.7,280.6 303.6,280.6 304.6,280.6 305.5,280.6 306.4,280.6 307.3,280.6 308.1,280.6 309.0,280.6 309.8,280.6 310.6,280.6 311.4,280.6 312.4,280.6 313.3,344.1 314.2,280.6 315.1,280.6 316.0,280.6 316.9,280.6 317.7,344.1 318.6,280.6 319.4,280.6 320.2,280.6 321.1,280.6 322.0,280.6 322.9,280.6 323.8,280.6 324.7,280.6 325.5,280.6 326.3,344.1 327.1,280.6 327.9,280.6 328.8,280.6 329.7,280.6 330.6,280.6 331.4,280.6 332.3,280.6 333.1,280.6 333.9,280.6 334.8,280.6 335.7,280.6 336.5,344.1 337.4,280.6 338.2,280.6 339.0,280.6 339.8,280.6 340.7,280.6 341.6,280.6 342.4,344.1 343.3,280.6 344.1,280.6 344.9,280.6 345.8,280.6 346.6,280.6 347.5,280.6 348.3,280.6 349.1,280.6 350.0,280.6 350.8,280.6 351.7,280.6 352.5,280.6 353.3,280.6 354.1,280.6 355.0,280.6 355.8,280.6 356.6,344.1 357.5,280.6 358.3,280.6 359.1,280.6 360.0,280.6 360.8,280.6 361.6,280.6 362.5,280.6 363.3,280.6 364.1,344.1 364.9,280.6 365.8,344.1 366.6,280.6 367.4,280.6 368.2,280.6 369.1,344.1 369.9,280.6 370.7,280.6 371.6,280.6 372.4,280.6 373.2,280.6 374.0,280.6 374.8,280.6 375.6,280.6 376.5,280.6 377.3,280.6 378.1,280.6 378.9,344.1 379.7,280.6 380.5,280.6 381.4,344.1 382.2,280.6 383.0,280.6 383.8,280.6 384.6,280.6 385.5,280.6 386.3,280.6 387.1,344.1 387.9,280.6 388.7,280.6 389.5,280.6 390.3,280.6 391.2,344.1 392.0,280.6 392.8,280.6 393.6,280.6 394.4,280.6 395.2,280.6 396.0,280.6 396.8,280.6 397.6,344.1 398.5,344.1 L398.5,284.5 L37.5,284.5 Z" fill="url(#g299)" clip-path="url(#c301)"/>
  <defs><clipPath id="pc302"><rect x="34" y="207" width="365" height="155"/></clipPath></defs>
  <polyline points="37.5,280.6 70.8,280.6 90.3,280.6 104.1,280.6 114.8,280.6 123.6,280.6 131.0,280.6 137.4,280.6 143.1,280.6 148.1,280.6 152.7,280.6 156.9,280.6 160.7,280.6 164.3,280.6 167.6,280.6 170.7,280.6 173.6,280.6 176.3,280.6 178.9,280.6 181.4,280.6 183.7,280.6 186.0,280.6 188.1,280.6 190.2,280.6 192.1,280.6 194.0,280.6 195.8,280.6 197.6,280.6 199.2,280.6 200.9,280.6 202.4,280.6 204.0,280.6 205.5,280.6 206.9,280.6 208.3,280.6 209.6,280.6 210.9,280.6 212.2,280.6 213.5,280.6 214.7,280.6 215.9,280.6 217.0,280.6 218.2,280.6 219.3,280.6 220.3,280.6 221.4,280.6 222.4,280.6 223.4,280.6 224.4,280.6 225.4,280.6 226.4,280.6 227.3,280.6 228.2,280.6 229.1,280.6 230.0,280.6 230.8,280.6 231.7,280.6 232.5,280.6 233.4,280.6 234.2,280.6 235.7,280.6 237.3,280.6 238.7,280.6 240.2,280.6 241.6,280.6 242.9,280.6 244.2,280.6 245.5,280.6 246.8,280.6 248.0,280.6 249.2,280.6 250.3,280.6 251.4,280.6 252.6,280.6 253.6,280.6 254.7,280.6 255.7,280.6 256.7,280.6 257.7,280.6 258.7,280.6 259.6,280.6 260.6,280.6 261.5,280.6 262.4,280.6 263.3,280.6 264.1,280.6 265.0,280.6 265.8,280.6 266.6,280.6 267.4,280.6 268.6,280.6 269.8,280.6 270.9,280.6 272.0,280.6 273.1,280.6 274.2,280.6 275.2,280.6 276.2,280.6 277.2,280.6 278.2,280.6 279.1,280.6 280.0,280.6 281.0,280.6 281.9,280.6 282.7,280.6 283.6,280.6 284.5,280.6 285.3,280.6 286.1,280.6 286.9,280.6 288.0,280.6 289.0,280.6 290.0,280.6 291.0,280.6 292.0,280.6 292.9,280.6 293.9,280.6 294.8,280.6 295.7,280.6 296.6,280.6 297.4,280.6 298.3,280.6 299.1,280.6 299.9,280.6 300.7,344.1 301.7,280.6 302.7,280.6 303.6,280.6 304.6,280.6 305.5,280.6 306.4,280.6 307.3,280.6 308.1,280.6 309.0,280.6 309.8,280.6 310.6,280.6 311.4,280.6 312.4,280.6 313.3,344.1 314.2,280.6 315.1,280.6 316.0,280.6 316.9,280.6 317.7,344.1 318.6,280.6 319.4,280.6 320.2,280.6 321.1,280.6 322.0,280.6 322.9,280.6 323.8,280.6 324.7,280.6 325.5,280.6 326.3,344.1 327.1,280.6 327.9,280.6 328.8,280.6 329.7,280.6 330.6,280.6 331.4,280.6 332.3,280.6 333.1,280.6 333.9,280.6 334.8,280.6 335.7,280.6 336.5,344.1 337.4,280.6 338.2,280.6 339.0,280.6 339.8,280.6 340.7,280.6 341.6,280.6 342.4,344.1 343.3,280.6 344.1,280.6 344.9,280.6 345.8,280.6 346.6,280.6 347.5,280.6 348.3,280.6 349.1,280.6 350.0,280.6 350.8,280.6 351.7,280.6 352.5,280.6 353.3,280.6 354.1,280.6 355.0,280.6 355.8,280.6 356.6,344.1 357.5,280.6 358.3,280.6 359.1,280.6 360.0,280.6 360.8,280.6 361.6,280.6 362.5,280.6 363.3,280.6 364.1,344.1 364.9,280.6 365.8,344.1 366.6,280.6 367.4,280.6 368.2,280.6 369.1,344.1 369.9,280.6 370.7,280.6 371.6,280.6 372.4,280.6 373.2,280.6 374.0,280.6 374.8,280.6 375.6,280.6 376.5,280.6 377.3,280.6 378.1,280.6 378.9,344.1 379.7,280.6 380.5,280.6 381.4,344.1 382.2,280.6 383.0,280.6 383.8,280.6 384.6,280.6 385.5,280.6 386.3,280.6 387.1,344.1 387.9,280.6 388.7,280.6 389.5,280.6 390.3,280.6 391.2,344.1 392.0,280.6 392.8,280.6 393.6,280.6 394.4,280.6 395.2,280.6 396.0,280.6 396.8,280.6 397.6,344.1 398.5,344.1" fill="none" stroke="#2ecc71" stroke-width="1.5" stroke-linejoin="round" clip-path="url(#pc302)"/>
  <line x1="435" y1="207" x2="435" y2="362" stroke="#d1d5db"/>
  <line x1="435" y1="284.5" x2="800" y2="284.5" stroke="#d1d5db"/>
  <text x="617.5" y="388" text-anchor="middle" font-size="9" fill="#6b7280">Samples</text>
  <text x="413" y="284.5" text-anchor="middle" font-size="9" fill="#6b7280" transform="rotate(-90 413 284.5)">Impulse response</text>
  <line x1="435.0" y1="207" x2="435.0" y2="362" stroke="#e5e7eb" stroke-width="0.5"/>
  <text x="435.0" y="374" text-anchor="middle" font-size="8" fill="#6b7280">0</text>
  <line x1="578.7" y1="207" x2="578.7" y2="362" stroke="#e5e7eb" stroke-width="0.5"/>
  <text x="578.7" y="374" text-anchor="middle" font-size="8" fill="#6b7280">50</text>
  <line x1="722.4" y1="207" x2="722.4" y2="362" stroke="#e5e7eb" stroke-width="0.5"/>
  <text x="722.4" y="374" text-anchor="middle" font-size="8" fill="#6b7280">100</text>
  <line x1="435" y1="341.6" x2="800" y2="341.6" stroke="#e5e7eb" stroke-width="0.5"/>
  <text x="431" y="344.6" text-anchor="end" font-size="8" fill="#6b7280">-0.05</text>
  <text x="431" y="287.5" text-anchor="end" font-size="8" fill="#6b7280">0</text>
  <line x1="435" y1="227.4" x2="800" y2="227.4" stroke="#e5e7eb" stroke-width="0.5"/>
  <text x="431" y="230.4" text-anchor="end" font-size="8" fill="#6b7280">0.05</text>
  <defs><linearGradient id="g303" x1="0" y1="207" x2="0" y2="284.5" gradientUnits="userSpaceOnUse">
    <stop offset="0%" stop-color="#f39c12" stop-opacity="0.15"/>
    <stop offset="100%" stop-color="#f39c12" stop-opacity="0.02"/>
  </linearGradient></defs>
  <defs><linearGradient id="g304" x1="0" y1="362" x2="0" y2="284.5" gradientUnits="userSpaceOnUse">
    <stop offset="0%" stop-color="#f39c12" stop-opacity="0.15"/>
    <stop offset="100%" stop-color="#f39c12" stop-opacity="0.02"/>
  </linearGradient></defs>
  <defs><clipPath id="c305"><rect x="435" y="207" width="365" height="77.5"/></clipPath></defs>
  <defs><clipPath id="c306"><rect x="435" y="284.5" width="365" height="77.5"/></clipPath></defs>
  <path d="M435.0,284.4 435.0,284.4 437.9,284.5 440.7,284.5 443.6,284.5 446.5,284.5 449.4,284.4 452.2,284.3 455.1,284.1 458.0,283.9 460.9,283.7 463.7,283.4 466.6,283.2 469.5,282.9 472.4,282.7 475.2,282.7 478.1,282.7 481.0,282.9 483.9,283.3 486.7,283.9 489.6,284.6 492.5,285.4 495.4,286.4 498.2,287.4 501.1,288.3 504.0,289.2 506.9,289.8 509.7,290.1 512.6,290.2 515.5,289.9 518.3,289.2 521.2,288.3 524.1,287.2 527.0,286.1 529.8,285.0 532.7,284.2 535.6,283.9 538.5,284.1 541.3,285.0 544.2,286.8 547.1,289.5 550.0,292.9 552.8,297.0 555.7,301.7 558.6,306.6 561.5,311.4 564.3,315.7 567.2,319.2 570.1,321.5 573.0,322.3 575.8,321.2 578.7,318.2 581.6,313.1 584.4,306.0 587.3,297.0 590.2,286.5 593.1,274.9 595.9,262.7 598.8,250.4 601.7,238.7 604.6,228.1 607.4,219.3 610.3,212.6 613.2,208.4 616.1,207.0 618.9,208.4 621.8,212.6 624.7,219.3 627.6,228.1 630.4,238.7 633.3,250.4 636.2,262.7 639.1,274.9 641.9,286.5 644.8,297.0 647.7,306.0 650.6,313.1 653.4,318.2 656.3,321.2 659.2,322.3 662.0,321.5 664.9,319.2 667.8,315.7 670.7,311.4 673.5,306.6 676.4,301.7 679.3,297.0 682.2,292.9 685.0,289.5 687.9,286.8 690.8,285.0 693.7,284.1 696.5,283.9 699.4,284.2 702.3,285.0 705.2,286.1 708.0,287.2 710.9,288.3 713.8,289.2 716.7,289.9 719.5,290.2 722.4,290.1 725.3,289.8 728.1,289.2 731.0,288.3 733.9,287.4 736.8,286.4 739.6,285.4 742.5,284.6 745.4,283.9 748.3,283.3 751.1,282.9 754.0,282.7 756.9,282.7 759.8,282.7 762.6,282.9 765.5,283.2 768.4,283.4 771.3,283.7 774.1,283.9 777.0,284.1 779.9,284.3 782.8,284.4 785.6,284.5 788.5,284.5 791.4,284.5 794.3,284.5 797.1,284.4 L797.1,284.5 L435.0,284.5 Z" fill="url(#g303)" clip-path="url(#c305)"/>
  <path d="M435.0,284.4 435.0,284.4 437.9,284.5 440.7,284.5 443.6,284.5 446.5,284.5 449.4,284.4 452.2,284.3 455.1,284.1 458.0,283.9 460.9,283.7 463.7,283.4 466.6,283.2 469.5,282.9 472.4,282.7 475.2,282.7 478.1,282.7 481.0,282.9 483.9,283.3 486.7,283.9 489.6,284.6 492.5,285.4 495.4,286.4 498.2,287.4 501.1,288.3 504.0,289.2 506.9,289.8 509.7,290.1 512.6,290.2 515.5,289.9 518.3,289.2 521.2,288.3 524.1,287.2 527.0,286.1 529.8,285.0 532.7,284.2 535.6,283.9 538.5,284.1 541.3,285.0 544.2,286.8 547.1,289.5 550.0,292.9 552.8,297.0 555.7,301.7 558.6,306.6 561.5,311.4 564.3,315.7 567.2,319.2 570.1,321.5 573.0,322.3 575.8,321.2 578.7,318.2 581.6,313.1 584.4,306.0 587.3,297.0 590.2,286.5 593.1,274.9 595.9,262.7 598.8,250.4 601.7,238.7 604.6,228.1 607.4,219.3 610.3,212.6 613.2,208.4 616.1,207.0 618.9,208.4 621.8,212.6 624.7,219.3 627.6,228.1 630.4,238.7 633.3,250.4 636.2,262.7 639.1,274.9 641.9,286.5 644.8,297.0 647.7,306.0 650.6,313.1 653.4,318.2 656.3,321.2 659.2,322.3 662.0,321.5 664.9,319.2 667.8,315.7 670.7,311.4 673.5,306.6 676.4,301.7 679.3,297.0 682.2,292.9 685.0,289.5 687.9,286.8 690.8,285.0 693.7,284.1 696.5,283.9 699.4,284.2 702.3,285.0 705.2,286.1 708.0,287.2 710.9,288.3 713.8,289.2 716.7,289.9 719.5,290.2 722.4,290.1 725.3,289.8 728.1,289.2 731.0,288.3 733.9,287.4 736.8,286.4 739.6,285.4 742.5,284.6 745.4,283.9 748.3,283.3 751.1,282.9 754.0,282.7 756.9,282.7 759.8,282.7 762.6,282.9 765.5,283.2 768.4,283.4 771.3,283.7 774.1,283.9 777.0,284.1 779.9,284.3 782.8,284.4 785.6,284.5 788.5,284.5 791.4,284.5 794.3,284.5 797.1,284.4 L797.1,284.5 L435.0,284.5 Z" fill="url(#g304)" clip-path="url(#c306)"/>
  <defs><clipPath id="pc307"><rect x="435" y="207" width="365" height="155"/></clipPath></defs>
  <polyline points="435.0,284.4 437.9,284.5 440.7,284.5 443.6,284.5 446.5,284.5 449.4,284.4 452.2,284.3 455.1,284.1 458.0,283.9 460.9,283.7 463.7,283.4 466.6,283.2 469.5,282.9 472.4,282.7 475.2,282.7 478.1,282.7 481.0,282.9 483.9,283.3 486.7,283.9 489.6,284.6 492.5,285.4 495.4,286.4 498.2,287.4 501.1,288.3 504.0,289.2 506.9,289.8 509.7,290.1 512.6,290.2 515.5,289.9 518.3,289.2 521.2,288.3 524.1,287.2 527.0,286.1 529.8,285.0 532.7,284.2 535.6,283.9 538.5,284.1 541.3,285.0 544.2,286.8 547.1,289.5 550.0,292.9 552.8,297.0 555.7,301.7 558.6,306.6 561.5,311.4 564.3,315.7 567.2,319.2 570.1,321.5 573.0,322.3 575.8,321.2 578.7,318.2 581.6,313.1 584.4,306.0 587.3,297.0 590.2,286.5 593.1,274.9 595.9,262.7 598.8,250.4 601.7,238.7 604.6,228.1 607.4,219.3 610.3,212.6 613.2,208.4 616.1,207.0 618.9,208.4 621.8,212.6 624.7,219.3 627.6,228.1 630.4,238.7 633.3,250.4 636.2,262.7 639.1,274.9 641.9,286.5 644.8,297.0 647.7,306.0 650.6,313.1 653.4,318.2 656.3,321.2 659.2,322.3 662.0,321.5 664.9,319.2 667.8,315.7 670.7,311.4 673.5,306.6 676.4,301.7 679.3,297.0 682.2,292.9 685.0,289.5 687.9,286.8 690.8,285.0 693.7,284.1 696.5,283.9 699.4,284.2 702.3,285.0 705.2,286.1 708.0,287.2 710.9,288.3 713.8,289.2 716.7,289.9 719.5,290.2 722.4,290.1 725.3,289.8 728.1,289.2 731.0,288.3 733.9,287.4 736.8,286.4 739.6,285.4 742.5,284.6 745.4,283.9 748.3,283.3 751.1,282.9 754.0,282.7 756.9,282.7 759.8,282.7 762.6,282.9 765.5,283.2 768.4,283.4 771.3,283.7 774.1,283.9 777.0,284.1 779.9,284.3 782.8,284.4 785.6,284.5 788.5,284.5 791.4,284.5 794.3,284.5 797.1,284.4" fill="none" stroke="#f39c12" stroke-width="1.3" stroke-linejoin="round" clip-path="url(#pc307)"/>
</svg>
