<svg xmlns="http://www.w3.org/2000/svg" viewBox="0 0 820 392" style="font-family:system-ui,-apple-system,sans-serif">
  <text x="800" y="11" text-anchor="end" font-size="11" font-weight="600" fill="#6b7280">firwin lowpass, 63 taps, fc=1kHz</text>
  <line x1="34" y1="16" x2="34" y2="171" stroke="#d1d5db"/>
  <line x1="34" y1="47.0" x2="392" y2="47.0" stroke="#d1d5db"/>
  <text x="213" y="197" text-anchor="middle" font-size="9" fill="#6b7280">Hz</text>
  <text x="12" y="93.5" text-anchor="middle" font-size="9" fill="#6b7280" transform="rotate(-90 12 93.5)">dB</text>
  <line x1="66.6" y1="16" x2="66.6" y2="171" stroke="#e5e7eb" stroke-width="0.5"/>
  <line x1="85.7" y1="16" x2="85.7" y2="171" stroke="#e5e7eb" stroke-width="0.5"/>
  <line x1="99.3" y1="16" x2="99.3" y2="171" stroke="#e5e7eb" stroke-width="0.5"/>
  <line x1="109.8" y1="16" x2="109.8" y2="171" stroke="#e5e7eb" stroke-width="0.5"/>
  <line x1="118.4" y1="16" x2="118.4" y2="171" stroke="#e5e7eb" stroke-width="0.5"/>
  <line x1="125.7" y1="16" x2="125.7" y2="171" stroke="#e5e7eb" stroke-width="0.5"/>
  <line x1="131.9" y1="16" x2="131.9" y2="171" stroke="#e5e7eb" stroke-width="0.5"/>
  <line x1="137.5" y1="16" x2="137.5" y2="171" stroke="#e5e7eb" stroke-width="0.5"/>
  <line x1="175.1" y1="16" x2="175.1" y2="171" stroke="#e5e7eb" stroke-width="0.5"/>
  <line x1="194.2" y1="16" x2="194.2" y2="171" stroke="#e5e7eb" stroke-width="0.5"/>
  <line x1="207.7" y1="16" x2="207.7" y2="171" stroke="#e5e7eb" stroke-width="0.5"/>
  <line x1="218.3" y1="16" x2="218.3" y2="171" stroke="#e5e7eb" stroke-width="0.5"/>
  <line x1="226.8" y1="16" x2="226.8" y2="171" stroke="#e5e7eb" stroke-width="0.5"/>
  <line x1="234.1" y1="16" x2="234.1" y2="171" stroke="#e5e7eb" stroke-width="0.5"/>
  <line x1="240.4" y1="16" x2="240.4" y2="171" stroke="#e5e7eb" stroke-width="0.5"/>
  <line x1="245.9" y1="16" x2="245.9" y2="171" stroke="#e5e7eb" stroke-width="0.5"/>
  <line x1="283.5" y1="16" x2="283.5" y2="171" stroke="#e5e7eb" stroke-width="0.5"/>
  <line x1="302.6" y1="16" x2="302.6" y2="171" stroke="#e5e7eb" stroke-width="0.5"/>
  <line x1="316.2" y1="16" x2="316.2" y2="171" stroke="#e5e7eb" stroke-width="0.5"/>
  <line x1="326.7" y1="16" x2="326.7" y2="171" stroke="#e5e7eb" stroke-width="0.5"/>
  <line x1="335.3" y1="16" x2="335.3" y2="171" stroke="#e5e7eb" stroke-width="0.5"/>
  <line x1="342.6" y1="16" x2="342.6" y2="171" stroke="#e5e7eb" stroke-width="0.5"/>
  <line x1="348.8" y1="16" x2="348.8" y2="171" stroke="#e5e7eb" stroke-width="0.5"/>
  <line x1="354.4" y1="16" x2="354.4" y2="171" stroke="#e5e7eb" stroke-width="0.5"/>
  <line x1="392.0" y1="16" x2="392.0" y2="171" stroke="#e5e7eb" stroke-width="0.5"/>
  <line x1="142.5" y1="16" x2="142.5" y2="171" stroke="#e5e7eb" stroke-width="0.5"/>
  <text x="142.5" y="183" text-anchor="middle" font-size="8" fill="#6b7280">100</text>
  <line x1="250.9" y1="16" x2="250.9" y2="171" stroke="#e5e7eb" stroke-width="0.5"/>
  <text x="250.9" y="183" text-anchor="middle" font-size="8" fill="#6b7280">1k</text>
  <line x1="359.4" y1="16" x2="359.4" y2="171" stroke="#e5e7eb" stroke-width="0.5"/>
  <text x="359.4" y="183" text-anchor="middle" font-size="8" fill="#6b7280">10k</text>
  <line x1="34" y1="31.5" x2="392" y2="31.5" stroke="#e5e7eb" stroke-width="0.5"/>
  <line x1="34" y1="62.5" x2="392" y2="62.5" stroke="#e5e7eb" stroke-width="0.5"/>
  <line x1="34" y1="16.0" x2="392" y2="16.0" stroke="#e5e7eb" stroke-width="0.5"/>
  <text x="30" y="19.0" text-anchor="end" font-size="8" fill="#6b7280">+20</text>
  <text x="30" y="50.0" text-anchor="end" font-size="8" fill="#6b7280">0</text>
  <line x1="34" y1="78.0" x2="392" y2="78.0" stroke="#e5e7eb" stroke-width="0.5"/>
  <text x="30" y="81.0" text-anchor="end" font-size="8" fill="#6b7280">-20</text>
  <line x1="34" y1="109.0" x2="392" y2="109.0" stroke="#e5e7eb" stroke-width="0.5"/>
  <text x="30" y="112.0" text-anchor="end" font-size="8" fill="#6b7280">-40</text>
  <line x1="34" y1="140.0" x2="392" y2="140.0" stroke="#e5e7eb" stroke-width="0.5"/>
  <text x="30" y="143.0" text-anchor="end" font-size="8" fill="#6b7280">-60</text>
  <line x1="34" y1="171.0" x2="392" y2="171.0" stroke="#e5e7eb" stroke-width="0.5"/>
  <text x="30" y="174.0" text-anchor="end" font-size="8" fill="#6b7280">-80</text>
  <line x1="250.9" y1="16" x2="250.9" y2="171" stroke="#d1d5db" stroke-width="1" stroke-dasharray="4 3"/>
  <defs><linearGradient id="g260" x1="0" y1="16" x2="0" y2="171" gradientUnits="userSpaceOnUse">
    <stop offset="0%" stop-color="#4a90d9" stop-opacity="0.15"/>
    <stop offset="100%" stop-color="#4a90d9" stop-opacity="0.02"/>
  </linearGradient></defs>
  <path d="M37.5,47.0 37.5,47.0 70.1,47.0 89.2,47.0 102.8,47.0 113.3,47.0 121.9,47.0 129.1,47.0 135.4,47.1 141.0,47.1 145.9,47.1 150.4,47.1 154.5,47.1 158.3,47.1 161.8,47.2 165.0,47.2 168.1,47.2 170.9,47.2 173.6,47.3 176.2,47.3 178.6,47.3 180.9,47.4 183.1,47.4 185.2,47.5 187.2,47.5 189.1,47.5 190.9,47.6 192.7,47.6 194.4,47.7 196.1,47.7 197.7,47.8 199.2,47.8 200.7,47.9 202.2,48.0 203.6,48.0 204.9,48.1 206.3,48.1 207.6,48.2 208.8,48.3 210.0,48.4 211.2,48.4 212.4,48.5 213.5,48.6 214.6,48.7 215.7,48.7 216.8,48.8 217.8,48.9 218.8,49.0 219.8,49.1 220.8,49.2 221.7,49.3 222.7,49.4 223.6,49.5 224.5,49.6 225.4,49.7 226.2,49.8 227.1,49.9 227.9,50.0 228.7,50.1 229.5,50.2 231.1,50.5 232.6,50.7 234.1,51.0 235.5,51.3 236.9,51.5 238.2,51.8 239.6,52.1 240.8,52.5 242.1,52.8 243.3,53.1 244.5,53.5 245.6,53.8 246.7,54.2 247.8,54.6 248.9,55.0 249.9,55.4 251.0,55.9 252.0,56.3 252.9,56.8 253.9,57.3 254.8,57.8 255.8,58.3 256.7,58.8 257.6,59.3 258.4,59.9 259.3,60.5 260.1,61.1 261.0,61.7 261.8,62.3 263.0,63.3 264.1,64.3 265.3,65.4 266.4,66.5 267.5,67.7 268.5,69.0 269.6,70.3 270.6,71.6 271.6,73.0 272.5,74.5 273.5,76.1 274.4,77.7 275.3,79.4 276.2,81.2 277.1,83.1 278.0,85.0 278.8,87.1 279.6,89.3 280.5,91.7 281.3,94.2 282.3,97.7 283.4,101.6 284.4,105.9 285.3,110.8 286.3,116.4 287.3,123.0 288.2,131.5 289.1,144.2 290.0,171.0 290.9,150.1 291.7,144.8 292.6,143.5 293.4,144.0 294.2,145.2 295.0,146.8 296.0,148.2 297.0,148.0 297.9,145.9 298.8,142.8 299.7,139.5 300.6,136.4 301.5,133.9 302.4,132.0 303.2,130.6 304.0,130.0 304.9,130.0 305.8,130.9 306.7,133.2 307.7,137.6 308.6,146.2 309.5,171.0 310.3,145.8 311.2,136.9 312.0,132.3 312.8,129.8 313.7,128.6 314.6,128.6 315.5,130.2 316.4,133.9 317.3,141.2 318.1,164.6 319.0,146.8 319.8,136.5 320.6,131.9 321.4,129.7 322.3,129.2 323.2,130.9 324.1,135.1 324.9,144.6 325.7,170.2 326.6,141.6 327.4,134.3 328.3,130.9 329.1,130.5 330.0,132.7 330.8,138.7 331.7,156.0 332.5,148.5 333.3,137.0 334.2,132.4 335.0,131.7 335.9,134.3 336.7,141.9 337.5,171.0 338.4,142.0 339.2,134.6 340.1,132.8 340.9,135.0 341.7,142.8 342.5,171.0 343.4,141.2 344.2,134.8 345.1,134.2 345.9,138.5 346.7,154.6 347.6,147.0 348.4,136.7 349.2,134.9 350.0,138.9 350.9,158.5 351.7,145.4 352.6,136.7 353.4,136.4 354.2,144.4 355.1,161.3 355.9,139.9 356.7,136.6 357.6,141.7 358.4,171.0 359.2,141.9 360.0,137.3 360.9,142.4 361.7,171.0 362.5,141.5 363.3,138.3 364.2,147.5 365.0,153.2 365.8,139.5 366.6,141.0 367.4,170.5 368.3,143.3 369.1,139.6 369.9,152.5 370.7,147.7 371.5,139.8 372.4,149.0 373.2,150.5 374.0,140.2 374.8,149.4 375.6,148.7 376.4,140.7 377.2,155.4 378.1,145.2 378.9,142.2 379.7,171.0 380.5,142.0 381.3,147.6 382.1,149.9 383.0,142.1 383.8,171.0 384.6,142.4 385.4,151.9 386.2,145.9 387.0,145.6 387.9,151.8 388.7,143.4 389.5,160.1 390.3,142.7 391.1,170.4 391.9,142.6 L391.9,171.0 L37.5,171.0 Z" fill="url(#g260)"/>
  <defs><clipPath id="pc261"><rect x="34" y="16" width="358" height="155"/></clipPath></defs>
  <polyline points="37.5,47.0 70.1,47.0 89.2,47.0 102.8,47.0 113.3,47.0 121.9,47.0 129.1,47.0 135.4,47.1 141.0,47.1 145.9,47.1 150.4,47.1 154.5,47.1 158.3,47.1 161.8,47.2 165.0,47.2 168.1,47.2 170.9,47.2 173.6,47.3 176.2,47.3 178.6,47.3 180.9,47.4 183.1,47.4 185.2,47.5 187.2,47.5 189.1,47.5 190.9,47.6 192.7,47.6 194.4,47.7 196.1,47.7 197.7,47.8 199.2,47.8 200.7,47.9 202.2,48.0 203.6,48.0 204.9,48.1 206.3,48.1 207.6,48.2 208.8,48.3 210.0,48.4 211.2,48.4 212.4,48.5 213.5,48.6 214.6,48.7 215.7,48.7 216.8,48.8 217.8,48.9 218.8,49.0 219.8,49.1 220.8,49.2 221.7,49.3 222.7,49.4 223.6,49.5 224.5,49.6 225.4,49.7 226.2,49.8 227.1,49.9 227.9,50.0 228.7,50.1 229.5,50.2 231.1,50.5 232.6,50.7 234.1,51.0 235.5,51.3 236.9,51.5 238.2,51.8 239.6,52.1 240.8,52.5 242.1,52.8 243.3,53.1 244.5,53.5 245.6,53.8 246.7,54.2 247.8,54.6 248.9,55.0 249.9,55.4 251.0,55.9 252.0,56.3 252.9,56.8 253.9,57.3 254.8,57.8 255.8,58.3 256.7,58.8 257.6,59.3 258.4,59.9 259.3,60.5 260.1,61.1 261.0,61.7 261.8,62.3 263.0,63.3 264.1,64.3 265.3,65.4 266.4,66.5 267.5,67.7 268.5,69.0 269.6,70.3 270.6,71.6 271.6,73.0 272.5,74.5 273.5,76.1 274.4,77.7 275.3,79.4 276.2,81.2 277.1,83.1 278.0,85.0 278.8,87.1 279.6,89.3 280.5,91.7 281.3,94.2 282.3,97.7 283.4,101.6 284.4,105.9 285.3,110.8 286.3,116.4 287.3,123.0 288.2,131.5 289.1,144.2 290.0,190.6 290.9,150.1 291.7,144.8 292.6,143.5 293.4,144.0 294.2,145.2 295.0,146.8 296.0,148.2 297.0,148.0 297.9,145.9 298.8,142.8 299.7,139.5 300.6,136.4 301.5,133.9 302.4,132.0 303.2,130.6 304.0,130.0 304.9,130.0 305.8,130.9 306.7,133.2 307.7,137.6 308.6,146.2 309.5,215.9 310.3,145.8 311.2,136.9 312.0,132.3 312.8,129.8 313.7,128.6 314.6,128.6 315.5,130.2 316.4,133.9 317.3,141.2 318.1,164.6 319.0,146.8 319.8,136.5 320.6,131.9 321.4,129.7 322.3,129.2 323.2,130.9 324.1,135.1 324.9,144.6 325.7,170.2 326.6,141.6 327.4,134.3 328.3,130.9 329.1,130.5 330.0,132.7 330.8,138.7 331.7,156.0 332.5,148.5 333.3,137.0 334.2,132.4 335.0,131.7 335.9,134.3 336.7,141.9 337.5,185.2 338.4,142.0 339.2,134.6 340.1,132.8 340.9,135.0 341.7,142.8 342.5,184.2 343.4,141.2 344.2,134.8 345.1,134.2 345.9,138.5 346.7,154.6 347.6,147.0 348.4,136.7 349.2,134.9 350.0,138.9 350.9,158.5 351.7,145.4 352.6,136.7 353.4,136.4 354.2,144.4 355.1,161.3 355.9,139.9 356.7,136.6 357.6,141.7 358.4,202.1 359.2,141.9 360.0,137.3 360.9,142.4 361.7,177.1 362.5,141.5 363.3,138.3 364.2,147.5 365.0,153.2 365.8,139.5 366.6,141.0 367.4,170.5 368.3,143.3 369.1,139.6 369.9,152.5 370.7,147.7 371.5,139.8 372.4,149.0 373.2,150.5 374.0,140.2 374.8,149.4 375.6,148.7 376.4,140.7 377.2,155.4 378.1,145.2 378.9,142.2 379.7,184.8 380.5,142.0 381.3,147.6 382.1,149.9 383.0,142.1 383.8,200.9 384.6,142.4 385.4,151.9 386.2,145.9 387.0,145.6 387.9,151.8 388.7,143.4 389.5,160.1 390.3,142.7 391.1,170.4 391.9,142.6" fill="none" stroke="#4a90d9" stroke-width="1.5" stroke-linejoin="round" clip-path="url(#pc261)"/>
  <line x1="442" y1="16" x2="442" y2="171" stroke="#d1d5db"/>
  <line x1="442" y1="93.5" x2="800" y2="93.5" stroke="#d1d5db"/>
  <text x="621" y="197" text-anchor="middle" font-size="9" fill="#6b7280">Hz</text>
  <text x="420" y="93.5" text-anchor="middle" font-size="9" fill="#6b7280" transform="rotate(-90 420 93.5)">Phase (deg)</text>
  <line x1="474.6" y1="16" x2="474.6" y2="171" stroke="#e5e7eb" stroke-width="0.5"/>
  <line x1="493.7" y1="16" x2="493.7" y2="171" stroke="#e5e7eb" stroke-width="0.5"/>
  <line x1="507.3" y1="16" x2="507.3" y2="171" stroke="#e5e7eb" stroke-width="0.5"/>
  <line x1="517.8" y1="16" x2="517.8" y2="171" stroke="#e5e7eb" stroke-width="0.5"/>
  <line x1="526.4" y1="16" x2="526.4" y2="171" stroke="#e5e7eb" stroke-width="0.5"/>
  <line x1="533.7" y1="16" x2="533.7" y2="171" stroke="#e5e7eb" stroke-width="0.5"/>
  <line x1="539.9" y1="16" x2="539.9" y2="171" stroke="#e5e7eb" stroke-width="0.5"/>
  <line x1="545.5" y1="16" x2="545.5" y2="171" stroke="#e5e7eb" stroke-width="0.5"/>
  <line x1="583.1" y1="16" x2="583.1" y2="171" stroke="#e5e7eb" stroke-width="0.5"/>
  <line x1="602.2" y1="16" x2="602.2" y2="171" stroke="#e5e7eb" stroke-width="0.5"/>
  <line x1="615.7" y1="16" x2="615.7" y2="171" stroke="#e5e7eb" stroke-width="0.5"/>
  <line x1="626.3" y1="16" x2="626.3" y2="171" stroke="#e5e7eb" stroke-width="0.5"/>
  <line x1="634.8" y1="16" x2="634.8" y2="171" stroke="#e5e7eb" stroke-width="0.5"/>
  <line x1="642.1" y1="16" x2="642.1" y2="171" stroke="#e5e7eb" stroke-width="0.5"/>
  <line x1="648.4" y1="16" x2="648.4" y2="171" stroke="#e5e7eb" stroke-width="0.5"/>
  <line x1="653.9" y1="16" x2="653.9" y2="171" stroke="#e5e7eb" stroke-width="0.5"/>
  <line x1="691.5" y1="16" x2="691.5" y2="171" stroke="#e5e7eb" stroke-width="0.5"/>
  <line x1="710.6" y1="16" x2="710.6" y2="171" stroke="#e5e7eb" stroke-width="0.5"/>
  <line x1="724.2" y1="16" x2="724.2" y2="171" stroke="#e5e7eb" stroke-width="0.5"/>
  <line x1="734.7" y1="16" x2="734.7" y2="171" stroke="#e5e7eb" stroke-width="0.5"/>
  <line x1="743.3" y1="16" x2="743.3" y2="171" stroke="#e5e7eb" stroke-width="0.5"/>
  <line x1="750.6" y1="16" x2="750.6" y2="171" stroke="#e5e7eb" stroke-width="0.5"/>
  <line x1="756.8" y1="16" x2="756.8" y2="171" stroke="#e5e7eb" stroke-width="0.5"/>
  <line x1="762.4" y1="16" x2="762.4" y2="171" stroke="#e5e7eb" stroke-width="0.5"/>
  <line x1="800.0" y1="16" x2="800.0" y2="171" stroke="#e5e7eb" stroke-width="0.5"/>
  <line x1="550.5" y1="16" x2="550.5" y2="171" stroke="#e5e7eb" stroke-width="0.5"/>
  <text x="550.5" y="183" text-anchor="middle" font-size="8" fill="#6b7280">100</text>
  <line x1="658.9" y1="16" x2="658.9" y2="171" stroke="#e5e7eb" stroke-width="0.5"/>
  <text x="658.9" y="183" text-anchor="middle" font-size="8" fill="#6b7280">1k</text>
  <line x1="767.4" y1="16" x2="767.4" y2="171" stroke="#e5e7eb" stroke-width="0.5"/>
  <text x="767.4" y="183" text-anchor="middle" font-size="8" fill="#6b7280">10k</text>
  <line x1="442" y1="54.8" x2="800" y2="54.8" stroke="#e5e7eb" stroke-width="0.5"/>
  <line x1="442" y1="132.3" x2="800" y2="132.3" stroke="#e5e7eb" stroke-width="0.5"/>
  <line x1="442" y1="16.0" x2="800" y2="16.0" stroke="#e5e7eb" stroke-width="0.5"/>
  <text x="438" y="19.0" text-anchor="end" font-size="8" fill="#6b7280">180</text>
  <text x="438" y="96.5" text-anchor="end" font-size="8" fill="#6b7280">0</text>
  <line x1="442" y1="171.0" x2="800" y2="171.0" stroke="#e5e7eb" stroke-width="0.5"/>
  <text x="438" y="174.0" text-anchor="end" font-size="8" fill="#6b7280">-180</text>
  <line x1="658.9" y1="16" x2="658.9" y2="171" stroke="#d1d5db" stroke-width="1" stroke-dasharray="4 3"/>
  <defs><linearGradient id="g262" x1="0" y1="16" x2="0" y2="93.5" gradientUnits="userSpaceOnUse">
    <stop offset="0%" stop-color="#e74c3c" stop-opacity="0.15"/>
    <stop offset="100%" stop-color="#e74c3c" stop-opacity="0.02"/>
  </linearGradient></defs>
  <defs><linearGradient id="g263" x1="0" y1="171" x2="0" y2="93.5" gradientUnits="userSpaceOnUse">
    <stop offset="0%" stop-color="#e74c3c" stop-opacity="0.15"/>
    <stop offset="100%" stop-color="#e74c3c" stop-opacity="0.02"/>
  </linearGradient></defs>
  <defs><clipPath id="c264"><rect x="442" y="16" width="358" height="77.5"/></clipPath></defs>
  <defs><clipPath id="c265"><rect x="442" y="93.5" width="358" height="77.5"/></clipPath></defs>
  <path d="M445.5,94.7 445.5,94.7 478.1,95.8 497.2,97.0 510.8,98.2 521.3,99.4 529.9,100.5 537.1,101.7 543.4,102.9 549.0,104.1 553.9,105.2 558.4,106.4 562.5,107.6 566.3,108.8 569.8,109.9 573.0,111.1 576.1,112.3 578.9,113.4 581.6,114.6 584.2,115.8 586.6,117.0 588.9,118.1 591.1,119.3 593.2,120.5 595.2,121.7 597.1,122.8 598.9,124.0 600.7,125.2 602.4,126.3 604.1,127.5 605.7,128.7 607.2,129.9 608.7,131.0 610.2,132.2 611.6,133.4 612.9,134.6 614.3,135.7 615.6,136.9 616.8,138.1 618.0,139.3 619.2,140.4 620.4,141.6 621.5,142.8 622.6,143.9 623.7,145.1 624.8,146.3 625.8,147.5 626.8,148.6 627.8,149.8 628.8,151.0 629.7,152.2 630.7,153.3 631.6,154.5 632.5,155.7 633.4,156.8 634.2,158.0 635.1,159.2 635.9,160.4 636.7,161.5 637.5,162.7 639.1,165.1 640.6,167.4 642.1,169.8 643.5,17.1 644.9,19.4 646.2,21.8 647.6,24.1 648.8,26.5 650.1,28.8 651.3,31.2 652.5,33.5 653.6,35.9 654.7,38.2 655.8,40.6 656.9,42.9 657.9,45.3 659.0,47.6 660.0,49.9 660.9,52.3 661.9,54.6 662.8,57.0 663.8,59.3 664.7,61.7 665.6,64.0 666.4,66.4 667.3,68.7 668.1,71.1 669.0,73.4 669.8,75.8 671.0,79.3 672.1,82.8 673.3,86.3 674.4,89.8 675.5,93.3 676.5,96.9 677.6,100.4 678.6,103.9 679.6,107.4 680.5,110.9 681.5,114.5 682.4,118.0 683.3,121.5 684.2,125.0 685.1,128.5 686.0,132.1 686.8,135.6 687.6,139.1 688.5,142.6 689.3,146.1 690.3,150.8 691.4,155.5 692.4,160.2 693.3,164.9 694.3,169.6 695.3,19.3 696.2,24.0 697.1,28.7 698.0,110.9 698.9,115.6 699.7,120.3 700.6,124.9 701.4,129.6 702.2,134.3 703.0,139.0 704.0,144.9 705.0,150.8 705.9,156.6 706.8,162.5 707.7,168.4 708.6,19.2 709.5,25.1 710.4,30.9 711.2,36.8 712.0,42.7 712.9,48.5 713.8,55.6 714.7,62.6 715.7,69.7 716.6,76.7 717.5,161.2 718.3,168.3 719.2,20.3 720.0,27.4 720.8,34.4 721.7,41.4 722.6,49.6 723.5,57.9 724.4,66.1 725.3,74.3 726.1,82.5 727.0,168.2 727.8,21.4 728.6,29.6 729.4,37.8 730.3,47.2 731.2,56.6 732.1,66.0 732.9,75.4 733.7,162.3 734.6,16.6 735.4,26.0 736.3,36.6 737.1,47.1 738.0,57.7 738.8,68.3 739.7,78.8 740.5,166.9 741.3,22.4 742.2,34.2 743.0,45.9 743.9,57.6 744.7,69.4 745.5,81.1 746.4,16.5 747.2,29.4 748.1,42.3 748.9,55.2 749.7,68.1 750.5,158.5 751.4,17.6 752.2,31.7 753.1,45.7 753.9,59.8 754.7,73.9 755.6,166.6 756.4,26.9 757.2,42.1 758.0,57.4 758.9,73.8 759.7,167.7 760.6,29.2 761.4,45.6 762.2,63.2 763.1,158.3 763.9,20.9 764.7,38.5 765.6,57.2 766.4,153.5 767.2,17.3 768.0,36.1 768.9,56.0 769.7,153.4 770.5,18.4 771.3,39.5 772.2,60.6 773.0,159.2 773.8,25.3 774.6,47.6 775.4,69.9 776.3,169.7 777.1,38.2 777.9,61.6 778.7,162.6 779.5,32.2 780.4,56.9 781.2,159.0 782.0,29.8 782.8,55.6 783.6,160.1 784.4,32.1 785.2,59.1 786.1,164.7 786.9,37.9 787.7,144.7 788.5,19.0 789.3,48.4 790.1,156.4 791.0,31.9 791.8,63.5 792.6,17.7 793.4,50.5 794.2,160.9 795.0,39.9 795.9,151.4 796.7,31.6 797.5,144.3 798.3,25.7 799.1,139.6 799.9,22.1 L799.9,93.5 L445.5,93.5 Z" fill="url(#g262)" clip-path="url(#c264)"/>
  <path d="M445.5,94.7 445.5,94.7 478.1,95.8 497.2,97.0 510.8,98.2 521.3,99.4 529.9,100.5 537.1,101.7 543.4,102.9 549.0,104.1 553.9,105.2 558.4,106.4 562.5,107.6 566.3,108.8 569.8,109.9 573.0,111.1 576.1,112.3 578.9,113.4 581.6,114.6 584.2,115.8 586.6,117.0 588.9,118.1 591.1,119.3 593.2,120.5 595.2,121.7 597.1,122.8 598.9,124.0 600.7,125.2 602.4,126.3 604.1,127.5 605.7,128.7 607.2,129.9 608.7,131.0 610.2,132.2 611.6,133.4 612.9,134.6 614.3,135.7 615.6,136.9 616.8,138.1 618.0,139.3 619.2,140.4 620.4,141.6 621.5,142.8 622.6,143.9 623.7,145.1 624.8,146.3 625.8,147.5 626.8,148.6 627.8,149.8 628.8,151.0 629.7,152.2 630.7,153.3 631.6,154.5 632.5,155.7 633.4,156.8 634.2,158.0 635.1,159.2 635.9,160.4 636.7,161.5 637.5,162.7 639.1,165.1 640.6,167.4 642.1,169.8 643.5,17.1 644.9,19.4 646.2,21.8 647.6,24.1 648.8,26.5 650.1,28.8 651.3,31.2 652.5,33.5 653.6,35.9 654.7,38.2 655.8,40.6 656.9,42.9 657.9,45.3 659.0,47.6 660.0,49.9 660.9,52.3 661.9,54.6 662.8,57.0 663.8,59.3 664.7,61.7 665.6,64.0 666.4,66.4 667.3,68.7 668.1,71.1 669.0,73.4 669.8,75.8 671.0,79.3 672.1,82.8 673.3,86.3 674.4,89.8 675.5,93.3 676.5,96.9 677.6,100.4 678.6,103.9 679.6,107.4 680.5,110.9 681.5,114.5 682.4,118.0 683.3,121.5 684.2,125.0 685.1,128.5 686.0,132.1 686.8,135.6 687.6,139.1 688.5,142.6 689.3,146.1 690.3,150.8 691.4,155.5 692.4,160.2 693.3,164.9 694.3,169.6 695.3,19.3 696.2,24.0 697.1,28.7 698.0,110.9 698.9,115.6 699.7,120.3 700.6,124.9 701.4,129.6 702.2,134.3 703.0,139.0 704.0,144.9 705.0,150.8 705.9,156.6 706.8,162.5 707.7,168.4 708.6,19.2 709.5,25.1 710.4,30.9 711.2,36.8 712.0,42.7 712.9,48.5 713.8,55.6 714.7,62.6 715.7,69.7 716.6,76.7 717.5,161.2 718.3,168.3 719.2,20.3 720.0,27.4 720.8,34.4 721.7,41.4 722.6,49.6 723.5,57.9 724.4,66.1 725.3,74.3 726.1,82.5 727.0,168.2 727.8,21.4 728.6,29.6 729.4,37.8 730.3,47.2 731.2,56.6 732.1,66.0 732.9,75.4 733.7,162.3 734.6,16.6 735.4,26.0 736.3,36.6 737.1,47.1 738.0,57.7 738.8,68.3 739.7,78.8 740.5,166.9 741.3,22.4 742.2,34.2 743.0,45.9 743.9,57.6 744.7,69.4 745.5,81.1 746.4,16.5 747.2,29.4 748.1,42.3 748.9,55.2 749.7,68.1 750.5,158.5 751.4,17.6 752.2,31.7 753.1,45.7 753.9,59.8 754.7,73.9 755.6,166.6 756.4,26.9 757.2,42.1 758.0,57.4 758.9,73.8 759.7,167.7 760.6,29.2 761.4,45.6 762.2,63.2 763.1,158.3 763.9,20.9 764.7,38.5 765.6,57.2 766.4,153.5 767.2,17.3 768.0,36.1 768.9,56.0 769.7,153.4 770.5,18.4 771.3,39.5 772.2,60.6 773.0,159.2 773.8,25.3 774.6,47.6 775.4,69.9 776.3,169.7 777.1,38.2 777.9,61.6 778.7,162.6 779.5,32.2 780.4,56.9 781.2,159.0 782.0,29.8 782.8,55.6 783.6,160.1 784.4,32.1 785.2,59.1 786.1,164.7 786.9,37.9 787.7,144.7 788.5,19.0 789.3,48.4 790.1,156.4 791.0,31.9 791.8,63.5 792.6,17.7 793.4,50.5 794.2,160.9 795.0,39.9 795.9,151.4 796.7,31.6 797.5,144.3 798.3,25.7 799.1,139.6 799.9,22.1 L799.9,93.5 L445.5,93.5 Z" fill="url(#g263)" clip-path="url(#c265)"/>
  <defs><clipPath id="pc266"><rect x="442" y="16" width="358" height="155"/></clipPath></defs>
  <polyline points="445.5,94.7 478.1,95.8 497.2,97.0 510.8,98.2 521.3,99.4 529.9,100.5 537.1,101.7 543.4,102.9 549.0,104.1 553.9,105.2 558.4,106.4 562.5,107.6 566.3,108.8 569.8,109.9 573.0,111.1 576.1,112.3 578.9,113.4 581.6,114.6 584.2,115.8 586.6,117.0 588.9,118.1 591.1,119.3 593.2,120.5 595.2,121.7 597.1,122.8 598.9,124.0 600.7,125.2 602.4,126.3 604.1,127.5 605.7,128.7 607.2,129.9 608.7,131.0 610.2,132.2 611.6,133.4 612.9,134.6 614.3,135.7 615.6,136.9 616.8,138.1 618.0,139.3 619.2,140.4 620.4,141.6 621.5,142.8 622.6,143.9 623.7,145.1 624.8,146.3 625.8,147.5 626.8,148.6 627.8,149.8 628.8,151.0 629.7,152.2 630.7,153.3 631.6,154.5 632.5,155.7 633.4,156.8 634.2,158.0 635.1,159.2 635.9,160.4 636.7,161.5 637.5,162.7 639.1,165.1 640.6,167.4 642.1,169.8 643.5,17.1 644.9,19.4 646.2,21.8 647.6,24.1 648.8,26.5 650.1,28.8 651.3,31.2 652.5,33.5 653.6,35.9 654.7,38.2 655.8,40.6 656.9,42.9 657.9,45.3 659.0,47.6 660.0,49.9 660.9,52.3 661.9,54.6 662.8,57.0 663.8,59.3 664.7,61.7 665.6,64.0 666.4,66.4 667.3,68.7 668.1,71.1 669.0,73.4 669.8,75.8 671.0,79.3 672.1,82.8 673.3,86.3 674.4,89.8 675.5,93.3 676.5,96.9 677.6,100.4 678.6,103.9 679.6,107.4 680.5,110.9 681.5,114.5 682.4,118.0 683.3,121.5 684.2,125.0 685.1,128.5 686.0,132.1 686.8,135.6 687.6,139.1 688.5,142.6 689.3,146.1 690.3,150.8 691.4,155.5 692.4,160.2 693.3,164.9 694.3,169.6 695.3,19.3 696.2,24.0 697.1,28.7 698.0,110.9 698.9,115.6 699.7,120.3 700.6,124.9 701.4,129.6 702.2,134.3 703.0,139.0 704.0,144.9 705.0,150.8 705.9,156.6 706.8,162.5 707.7,168.4 708.6,19.2 709.5,25.1 710.4,30.9 711.2,36.8 712.0,42.7 712.9,48.5 713.8,55.6 714.7,62.6 715.7,69.7 716.6,76.7 717.5,161.2 718.3,168.3 719.2,20.3 720.0,27.4 720.8,34.4 721.7,41.4 722.6,49.6 723.5,57.9 724.4,66.1 725.3,74.3 726.1,82.5 727.0,168.2 727.8,21.4 728.6,29.6 729.4,37.8 730.3,47.2 731.2,56.6 732.1,66.0 732.9,75.4 733.7,162.3 734.6,16.6 735.4,26.0 736.3,36.6 737.1,47.1 738.0,57.7 738.8,68.3 739.7,78.8 740.5,166.9 741.3,22.4 742.2,34.2 743.0,45.9 743.9,57.6 744.7,69.4 745.5,81.1 746.4,16.5 747.2,29.4 748.1,42.3 748.9,55.2 749.7,68.1 750.5,158.5 751.4,17.6 752.2,31.7 753.1,45.7 753.9,59.8 754.7,73.9 755.6,166.6 756.4,26.9 757.2,42.1 758.0,57.4 758.9,73.8 759.7,167.7 760.6,29.2 761.4,45.6 762.2,63.2 763.1,158.3 763.9,20.9 764.7,38.5 765.6,57.2 766.4,153.5 767.2,17.3 768.0,36.1 768.9,56.0 769.7,153.4 770.5,18.4 771.3,39.5 772.2,60.6 773.0,159.2 773.8,25.3 774.6,47.6 775.4,69.9 776.3,169.7 777.1,38.2 777.9,61.6 778.7,162.6 779.5,32.2 780.4,56.9 781.2,159.0 782.0,29.8 782.8,55.6 783.6,160.1 784.4,32.1 785.2,59.1 786.1,164.7 786.9,37.9 787.7,144.7 788.5,19.0 789.3,48.4 790.1,156.4 791.0,31.9 791.8,63.5 792.6,17.7 793.4,50.5 794.2,160.9 795.0,39.9 795.9,151.4 796.7,31.6 797.5,144.3 798.3,25.7 799.1,139.6 799.9,22.1" fill="none" stroke="#e74c3c" stroke-width="1.5" stroke-linejoin="round" clip-path="url(#pc266)"/>
  <line x1="34" y1="221" x2="34" y2="376" stroke="#d1d5db"/>
  <line x1="34" y1="298.5" x2="392" y2="298.5" stroke="#d1d5db"/>
  <text x="213" y="402" text-anchor="middle" font-size="9" fill="#6b7280">Hz</text>
  <text x="12" y="298.5" text-anchor="middle" font-size="9" fill="#6b7280" transform="rotate(-90 12 298.5)">Group delay</text>
  <line x1="66.6" y1="221" x2="66.6" y2="376" stroke="#e5e7eb" stroke-width="0.5"/>
  <line x1="85.7" y1="221" x2="85.7" y2="376" stroke="#e5e7eb" stroke-width="0.5"/>
  <line x1="99.3" y1="221" x2="99.3" y2="376" stroke="#e5e7eb" stroke-width="0.5"/>
  <line x1="109.8" y1="221" x2="109.8" y2="376" stroke="#e5e7eb" stroke-width="0.5"/>
  <line x1="118.4" y1="221" x2="118.4" y2="376" stroke="#e5e7eb" stroke-width="0.5"/>
  <line x1="125.7" y1="221" x2="125.7" y2="376" stroke="#e5e7eb" stroke-width="0.5"/>
  <line x1="131.9" y1="221" x2="131.9" y2="376" stroke="#e5e7eb" stroke-width="0.5"/>
  <line x1="137.5" y1="221" x2="137.5" y2="376" stroke="#e5e7eb" stroke-width="0.5"/>
  <line x1="175.1" y1="221" x2="175.1" y2="376" stroke="#e5e7eb" stroke-width="0.5"/>
  <line x1="194.2" y1="221" x2="194.2" y2="376" stroke="#e5e7eb" stroke-width="0.5"/>
  <line x1="207.7" y1="221" x2="207.7" y2="376" stroke="#e5e7eb" stroke-width="0.5"/>
  <line x1="218.3" y1="221" x2="218.3" y2="376" stroke="#e5e7eb" stroke-width="0.5"/>
  <line x1="226.8" y1="221" x2="226.8" y2="376" stroke="#e5e7eb" stroke-width="0.5"/>
  <line x1="234.1" y1="221" x2="234.1" y2="376" stroke="#e5e7eb" stroke-width="0.5"/>
  <line x1="240.4" y1="221" x2="240.4" y2="376" stroke="#e5e7eb" stroke-width="0.5"/>
  <line x1="245.9" y1="221" x2="245.9" y2="376" stroke="#e5e7eb" stroke-width="0.5"/>
  <line x1="283.5" y1="221" x2="283.5" y2="376" stroke="#e5e7eb" stroke-width="0.5"/>
  <line x1="302.6" y1="221" x2="302.6" y2="376" stroke="#e5e7eb" stroke-width="0.5"/>
  <line x1="316.2" y1="221" x2="316.2" y2="376" stroke="#e5e7eb" stroke-width="0.5"/>
  <line x1="326.7" y1="221" x2="326.7" y2="376" stroke="#e5e7eb" stroke-width="0.5"/>
  <line x1="335.3" y1="221" x2="335.3" y2="376" stroke="#e5e7eb" stroke-width="0.5"/>
  <line x1="342.6" y1="221" x2="342.6" y2="376" stroke="#e5e7eb" stroke-width="0.5"/>
  <line x1="348.8" y1="221" x2="348.8" y2="376" stroke="#e5e7eb" stroke-width="0.5"/>
  <line x1="354.4" y1="221" x2="354.4" y2="376" stroke="#e5e7eb" stroke-width="0.5"/>
  <line x1="392.0" y1="221" x2="392.0" y2="376" stroke="#e5e7eb" stroke-width="0.5"/>
  <line x1="142.5" y1="221" x2="142.5" y2="376" stroke="#e5e7eb" stroke-width="0.5"/>
  <text x="142.5" y="388" text-anchor="middle" font-size="8" fill="#6b7280">100</text>
  <line x1="250.9" y1="221" x2="250.9" y2="376" stroke="#e5e7eb" stroke-width="0.5"/>
  <text x="250.9" y="388" text-anchor="middle" font-size="8" fill="#6b7280">1k</text>
  <line x1="359.4" y1="221" x2="359.4" y2="376" stroke="#e5e7eb" stroke-width="0.5"/>
  <text x="359.4" y="388" text-anchor="middle" font-size="8" fill="#6b7280">10k</text>
  <line x1="34" y1="340.5" x2="392" y2="340.5" stroke="#e5e7eb" stroke-width="0.5"/>
  <text x="30" y="343.5" text-anchor="end" font-size="8" fill="#6b7280">-700</text>
  <text x="30" y="301.5" text-anchor="end" font-size="8" fill="#6b7280">0</text>
  <line x1="34" y1="256.5" x2="392" y2="256.5" stroke="#e5e7eb" stroke-width="0.5"/>
  <text x="30" y="259.5" text-anchor="end" font-size="8" fill="#6b7280">700</text>
  <line x1="250.9" y1="221" x2="250.9" y2="376" stroke="#d1d5db" stroke-width="1" stroke-dasharray="4 3"/>
  <defs><linearGradient id="g267" x1="0" y1="221" x2="0" y2="298.5" gradientUnits="userSpaceOnUse">
    <stop offset="0%" stop-color="#2ecc71" stop-opacity="0.15"/>
    <stop offset="100%" stop-color="#2ecc71" stop-opacity="0.02"/>
  </linearGradient></defs>
  <defs><linearGradient id="g268" x1="0" y1="376" x2="0" y2="298.5" gradientUnits="userSpaceOnUse">
    <stop offset="0%" stop-color="#2ecc71" stop-opacity="0.15"/>
    <stop offset="100%" stop-color="#2ecc71" stop-opacity="0.02"/>
  </linearGradient></defs>
  <defs><clipPath id="c269"><rect x="34" y="221" width="358" height="77.5"/></clipPath></defs>
  <defs><clipPath id="c270"><rect x="34" y="298.5" width="358" height="77.5"/></clipPath></defs>
  <path d="M37.5,296.6 37.5,296.6 70.1,296.6 89.2,296.6 102.8,296.6 113.3,296.6 121.9,296.6 129.1,296.6 135.4,296.6 141.0,296.6 145.9,296.6 150.4,296.6 154.5,296.6 158.3,296.6 161.8,296.6 165.0,296.6 168.1,296.6 170.9,296.6 173.6,296.6 176.2,296.6 178.6,296.6 180.9,296.6 183.1,296.6 185.2,296.6 187.2,296.6 189.1,296.6 190.9,296.6 192.7,296.6 194.4,296.6 196.1,296.6 197.7,296.6 199.2,296.6 200.7,296.6 202.2,296.6 203.6,296.6 204.9,296.6 206.3,296.6 207.6,296.6 208.8,296.6 210.0,296.6 211.2,296.6 212.4,296.6 213.5,296.6 214.6,296.6 215.7,296.6 216.8,296.6 217.8,296.6 218.8,296.6 219.8,296.6 220.8,296.6 221.7,296.6 222.7,296.6 223.6,296.6 224.5,296.6 225.4,296.6 226.2,296.6 227.1,296.6 227.9,296.6 228.7,296.6 229.5,296.6 231.1,296.6 232.6,296.6 234.1,296.6 235.5,296.6 236.9,296.6 238.2,296.6 239.6,296.6 240.8,296.6 242.1,296.6 243.3,296.6 244.5,296.6 245.6,296.6 246.7,296.6 247.8,296.6 248.9,296.6 249.9,296.6 251.0,296.6 252.0,296.6 252.9,296.6 253.9,296.6 254.8,296.6 255.8,296.6 256.7,296.6 257.6,296.6 258.4,296.6 259.3,296.6 260.1,296.6 261.0,296.6 261.8,296.6 263.0,296.6 264.1,296.6 265.3,296.6 266.4,296.6 267.5,296.6 268.5,296.6 269.6,296.6 270.6,296.6 271.6,296.6 272.5,296.6 273.5,296.6 274.4,296.6 275.3,296.6 276.2,296.6 277.1,296.6 278.0,296.6 278.8,296.6 279.6,296.6 280.5,296.6 281.3,296.6 282.3,296.6 283.4,296.6 284.4,296.6 285.3,296.6 286.3,296.6 287.3,296.6 288.2,296.6 289.1,296.6 290.0,358.1 290.9,296.6 291.7,296.6 292.6,296.6 293.4,296.6 294.2,296.6 295.0,296.6 296.0,296.6 297.0,296.6 297.9,296.6 298.8,296.6 299.7,296.6 300.6,296.6 301.5,296.6 302.4,296.6 303.2,296.6 304.0,296.6 304.9,296.6 305.8,296.6 306.7,296.6 307.7,296.6 308.6,296.6 309.5,358.1 310.3,296.6 311.2,296.6 312.0,296.6 312.8,296.6 313.7,296.6 314.6,296.6 315.5,296.6 316.4,296.6 317.3,296.6 318.1,296.6 319.0,296.6 319.8,296.6 320.6,296.6 321.4,296.6 322.3,296.6 323.2,296.6 324.1,296.6 324.9,296.6 325.7,296.6 326.6,296.6 327.4,296.6 328.3,296.6 329.1,296.6 330.0,296.6 330.8,296.6 331.7,296.6 332.5,296.6 333.3,296.6 334.2,296.6 335.0,296.6 335.9,296.6 336.7,296.6 337.5,358.1 338.4,296.6 339.2,296.6 340.1,296.6 340.9,296.6 341.7,296.6 342.5,358.1 343.4,296.6 344.2,296.6 345.1,296.6 345.9,296.6 346.7,296.6 347.6,296.6 348.4,296.6 349.2,296.6 350.0,296.6 350.9,296.6 351.7,296.6 352.6,296.6 353.4,296.6 354.2,296.6 355.1,296.6 355.9,296.6 356.7,296.6 357.6,296.6 358.4,358.1 359.2,296.6 360.0,296.6 360.9,296.6 361.7,296.6 362.5,296.6 363.3,296.6 364.2,296.6 365.0,296.6 365.8,296.6 366.6,296.6 367.4,296.6 368.3,296.6 369.1,296.6 369.9,296.6 370.7,296.6 371.5,296.6 372.4,296.6 373.2,296.6 374.0,296.6 374.8,296.6 375.6,296.6 376.4,296.6 377.2,296.6 378.1,296.6 378.9,296.6 379.7,358.1 380.5,296.6 381.3,296.6 382.1,296.6 383.0,296.6 383.8,358.1 384.6,296.6 385.4,296.6 386.2,296.6 387.0,296.6 387.9,296.6 388.7,296.6 389.5,296.6 390.3,296.6 391.1,296.6 391.9,296.6 L391.9,298.5 L37.5,298.5 Z" fill="url(#g267)" clip-path="url(#c269)"/>
  <path d="M37.5,296.6 37.5,296.6 70.1,296.6 89.2,296.6 102.8,296.6 113.3,296.6 121.9,296.6 129.1,296.6 135.4,296.6 141.0,296.6 145.9,296.6 150.4,296.6 154.5,296.6 158.3,296.6 161.8,296.6 165.0,296.6 168.1,296.6 170.9,296.6 173.6,296.6 176.2,296.6 178.6,296.6 180.9,296.6 183.1,296.6 185.2,296.6 187.2,296.6 189.1,296.6 190.9,296.6 192.7,296.6 194.4,296.6 196.1,296.6 197.7,296.6 199.2,296.6 200.7,296.6 202.2,296.6 203.6,296.6 204.9,296.6 206.3,296.6 207.6,296.6 208.8,296.6 210.0,296.6 211.2,296.6 212.4,296.6 213.5,296.6 214.6,296.6 215.7,296.6 216.8,296.6 217.8,296.6 218.8,296.6 219.8,296.6 220.8,296.6 221.7,296.6 222.7,296.6 223.6,296.6 224.5,296.6 225.4,296.6 226.2,296.6 227.1,296.6 227.9,296.6 228.7,296.6 229.5,296.6 231.1,296.6 232.6,296.6 234.1,296.6 235.5,296.6 236.9,296.6 238.2,296.6 239.6,296.6 240.8,296.6 242.1,296.6 243.3,296.6 244.5,296.6 245.6,296.6 246.7,296.6 247.8,296.6 248.9,296.6 249.9,296.6 251.0,296.6 252.0,296.6 252.9,296.6 253.9,296.6 254.8,296.6 255.8,296.6 256.7,296.6 257.6,296.6 258.4,296.6 259.3,296.6 260.1,296.6 261.0,296.6 261.8,296.6 263.0,296.6 264.1,296.6 265.3,296.6 266.4,296.6 267.5,296.6 268.5,296.6 269.6,296.6 270.6,296.6 271.6,296.6 272.5,296.6 273.5,296.6 274.4,296.6 275.3,296.6 276.2,296.6 277.1,296.6 278.0,296.6 278.8,296.6 279.6,296.6 280.5,296.6 281.3,296.6 282.3,296.6 283.4,296.6 284.4,296.6 285.3,296.6 286.3,296.6 287.3,296.6 288.2,296.6 289.1,296.6 290.0,358.1 290.9,296.6 291.7,296.6 292.6,296.6 293.4,296.6 294.2,296.6 295.0,296.6 296.0,296.6 297.0,296.6 297.9,296.6 298.8,296.6 299.7,296.6 300.6,296.6 301.5,296.6 302.4,296.6 303.2,296.6 304.0,296.6 304.9,296.6 305.8,296.6 306.7,296.6 307.7,296.6 308.6,296.6 309.5,358.1 310.3,296.6 311.2,296.6 312.0,296.6 312.8,296.6 313.7,296.6 314.6,296.6 315.5,296.6 316.4,296.6 317.3,296.6 318.1,296.6 319.0,296.6 319.8,296.6 320.6,296.6 321.4,296.6 322.3,296.6 323.2,296.6 324.1,296.6 324.9,296.6 325.7,296.6 326.6,296.6 327.4,296.6 328.3,296.6 329.1,296.6 330.0,296.6 330.8,296.6 331.7,296.6 332.5,296.6 333.3,296.6 334.2,296.6 335.0,296.6 335.9,296.6 336.7,296.6 337.5,358.1 338.4,296.6 339.2,296.6 340.1,296.6 340.9,296.6 341.7,296.6 342.5,358.1 343.4,296.6 344.2,296.6 345.1,296.6 345.9,296.6 346.7,296.6 347.6,296.6 348.4,296.6 349.2,296.6 350.0,296.6 350.9,296.6 351.7,296.6 352.6,296.6 353.4,296.6 354.2,296.6 355.1,296.6 355.9,296.6 356.7,296.6 357.6,296.6 358.4,358.1 359.2,296.6 360.0,296.6 360.9,296.6 361.7,296.6 362.5,296.6 363.3,296.6 364.2,296.6 365.0,296.6 365.8,296.6 366.6,296.6 367.4,296.6 368.3,296.6 369.1,296.6 369.9,296.6 370.7,296.6 371.5,296.6 372.4,296.6 373.2,296.6 374.0,296.6 374.8,296.6 375.6,296.6 376.4,296.6 377.2,296.6 378.1,296.6 378.9,296.6 379.7,358.1 380.5,296.6 381.3,296.6 382.1,296.6 383.0,296.6 383.8,358.1 384.6,296.6 385.4,296.6 386.2,296.6 387.0,296.6 387.9,296.6 388.7,296.6 389.5,296.6 390.3,296.6 391.1,296.6 391.9,296.6 L391.9,298.5 L37.5,298.5 Z" fill="url(#g268)" clip-path="url(#c270)"/>
  <defs><clipPath id="pc271"><rect x="34" y="221" width="358" height="155"/></clipPath></defs>
  <polyline points="37.5,296.6 70.1,296.6 89.2,296.6 102.8,296.6 113.3,296.6 121.9,296.6 129.1,296.6 135.4,296.6 141.0,296.6 145.9,296.6 150.4,296.6 154.5,296.6 158.3,296.6 161.8,296.6 165.0,296.6 168.1,296.6 170.9,296.6 173.6,296.6 176.2,296.6 178.6,296.6 180.9,296.6 183.1,296.6 185.2,296.6 187.2,296.6 189.1,296.6 190.9,296.6 192.7,296.6 194.4,296.6 196.1,296.6 197.7,296.6 199.2,296.6 200.7,296.6 202.2,296.6 203.6,296.6 204.9,296.6 206.3,296.6 207.6,296.6 208.8,296.6 210.0,296.6 211.2,296.6 212.4,296.6 213.5,296.6 214.6,296.6 215.7,296.6 216.8,296.6 217.8,296.6 218.8,296.6 219.8,296.6 220.8,296.6 221.7,296.6 222.7,296.6 223.6,296.6 224.5,296.6 225.4,296.6 226.2,296.6 227.1,296.6 227.9,296.6 228.7,296.6 229.5,296.6 231.1,296.6 232.6,296.6 234.1,296.6 235.5,296.6 236.9,296.6 238.2,296.6 239.6,296.6 240.8,296.6 242.1,296.6 243.3,296.6 244.5,296.6 245.6,296.6 246.7,296.6 247.8,296.6 248.9,296.6 249.9,296.6 251.0,296.6 252.0,296.6 252.9,296.6 253.9,296.6 254.8,296.6 255.8,296.6 256.7,296.6 257.6,296.6 258.4,296.6 259.3,296.6 260.1,296.6 261.0,296.6 261.8,296.6 263.0,296.6 264.1,296.6 265.3,296.6 266.4,296.6 267.5,296.6 268.5,296.6 269.6,296.6 270.6,296.6 271.6,296.6 272.5,296.6 273.5,296.6 274.4,296.6 275.3,296.6 276.2,296.6 277.1,296.6 278.0,296.6 278.8,296.6 279.6,296.6 280.5,296.6 281.3,296.6 282.3,296.6 283.4,296.6 284.4,296.6 285.3,296.6 286.3,296.6 287.3,296.6 288.2,296.6 289.1,296.6 290.0,358.1 290.9,296.6 291.7,296.6 292.6,296.6 293.4,296.6 294.2,296.6 295.0,296.6 296.0,296.6 297.0,296.6 297.9,296.6 298.8,296.6 299.7,296.6 300.6,296.6 301.5,296.6 302.4,296.6 303.2,296.6 304.0,296.6 304.9,296.6 305.8,296.6 306.7,296.6 307.7,296.6 308.6,296.6 309.5,358.1 310.3,296.6 311.2,296.6 312.0,296.6 312.8,296.6 313.7,296.6 314.6,296.6 315.5,296.6 316.4,296.6 317.3,296.6 318.1,296.6 319.0,296.6 319.8,296.6 320.6,296.6 321.4,296.6 322.3,296.6 323.2,296.6 324.1,296.6 324.9,296.6 325.7,296.6 326.6,296.6 327.4,296.6 328.3,296.6 329.1,296.6 330.0,296.6 330.8,296.6 331.7,296.6 332.5,296.6 333.3,296.6 334.2,296.6 335.0,296.6 335.9,296.6 336.7,296.6 337.5,358.1 338.4,296.6 339.2,296.6 340.1,296.6 340.9,296.6 341.7,296.6 342.5,358.1 343.4,296.6 344.2,296.6 345.1,296.6 345.9,296.6 346.7,296.6 347.6,296.6 348.4,296.6 349.2,296.6 350.0,296.6 350.9,296.6 351.7,296.6 352.6,296.6 353.4,296.6 354.2,296.6 355.1,296.6 355.9,296.6 356.7,296.6 357.6,296.6 358.4,358.1 359.2,296.6 360.0,296.6 360.9,296.6 361.7,296.6 362.5,296.6 363.3,296.6 364.2,296.6 365.0,296.6 365.8,296.6 366.6,296.6 367.4,296.6 368.3,296.6 369.1,296.6 369.9,296.6 370.7,296.6 371.5,296.6 372.4,296.6 373.2,296.6 374.0,296.6 374.8,296.6 375.6,296.6 376.4,296.6 377.2,296.6 378.1,296.6 378.9,296.6 379.7,358.1 380.5,296.6 381.3,296.6 382.1,296.6 383.0,296.6 383.8,358.1 384.6,296.6 385.4,296.6 386.2,296.6 387.0,296.6 387.9,296.6 388.7,296.6 389.5,296.6 390.3,296.6 391.1,296.6 391.9,296.6" fill="none" stroke="#2ecc71" stroke-width="1.5" stroke-linejoin="round" clip-path="url(#pc271)"/>
  <line x1="442" y1="221" x2="442" y2="376" stroke="#d1d5db"/>
  <line x1="442" y1="298.5" x2="800" y2="298.5" stroke="#d1d5db"/>
  <text x="621" y="402" text-anchor="middle" font-size="9" fill="#6b7280">Samples</text>
  <text x="420" y="298.5" text-anchor="middle" font-size="9" fill="#6b7280" transform="rotate(-90 420 298.5)">Impulse response</text>
  <line x1="442.0" y1="221" x2="442.0" y2="376" stroke="#e5e7eb" stroke-width="0.5"/>
  <text x="442.0" y="388" text-anchor="middle" font-size="8" fill="#6b7280">0</text>
  <line x1="612.5" y1="221" x2="612.5" y2="376" stroke="#e5e7eb" stroke-width="0.5"/>
  <text x="612.5" y="388" text-anchor="middle" font-size="8" fill="#6b7280">30</text>
  <line x1="783.0" y1="221" x2="783.0" y2="376" stroke="#e5e7eb" stroke-width="0.5"/>
  <text x="783.0" y="388" text-anchor="middle" font-size="8" fill="#6b7280">60</text>
  <line x1="442" y1="364.6" x2="800" y2="364.6" stroke="#e5e7eb" stroke-width="0.5"/>
  <text x="438" y="367.6" text-anchor="end" font-size="8" fill="#6b7280">-0.04</text>
  <text x="438" y="301.5" text-anchor="end" font-size="8" fill="#6b7280">0</text>
  <line x1="442" y1="232.4" x2="800" y2="232.4" stroke="#e5e7eb" stroke-width="0.5"/>
  <text x="438" y="235.4" text-anchor="end" font-size="8" fill="#6b7280">0.04</text>
  <defs><linearGradient id="g272" x1="0" y1="221" x2="0" y2="298.5" gradientUnits="userSpaceOnUse">
    <stop offset="0%" stop-color="#f39c12" stop-opacity="0.15"/>
    <stop offset="100%" stop-color="#f39c12" stop-opacity="0.02"/>
  </linearGradient></defs>
  <defs><linearGradient id="g273" x1="0" y1="376" x2="0" y2="298.5" gradientUnits="userSpaceOnUse">
    <stop offset="0%" stop-color="#f39c12" stop-opacity="0.15"/>
    <stop offset="100%" stop-color="#f39c12" stop-opacity="0.02"/>
  </linearGradient></defs>
  <defs><clipPath id="c274"><rect x="442" y="221" width="358" height="77.5"/></clipPath></defs>
  <defs><clipPath id="c275"><rect x="442" y="298.5" width="358" height="77.5"/></clipPath></defs>
  <path d="M442.0,299.8 442.0,299.8 447.7,299.9 453.4,299.9 459.0,300.0 464.7,300.0 470.4,300.0 476.1,299.9 481.8,299.7 487.5,299.2 493.1,298.5 498.8,297.4 504.5,295.9 510.2,293.9 515.9,291.5 521.6,288.6 527.2,285.2 532.9,281.3 538.6,276.9 544.3,272.2 550.0,267.1 555.7,261.8 561.3,256.3 567.0,250.9 572.7,245.6 578.4,240.5 584.1,235.7 589.7,231.5 595.4,227.9 601.1,224.9 606.8,222.8 612.5,221.4 618.2,221.0 623.8,221.4 629.5,222.8 635.2,224.9 640.9,227.9 646.6,231.5 652.3,235.7 657.9,240.5 663.6,245.6 669.3,250.9 675.0,256.3 680.7,261.8 686.3,267.1 692.0,272.2 697.7,276.9 703.4,281.3 709.1,285.2 714.8,288.6 720.4,291.5 726.1,293.9 731.8,295.9 737.5,297.4 743.2,298.5 748.9,299.2 754.5,299.7 760.2,299.9 765.9,300.0 771.6,300.0 777.3,300.0 783.0,299.9 788.6,299.9 794.3,299.8 L794.3,298.5 L442.0,298.5 Z" fill="url(#g272)" clip-path="url(#c274)"/>
  <path d="M442.0,299.8 442.0,299.8 447.7,299.9 453.4,299.9 459.0,300.0 464.7,300.0 470.4,300.0 476.1,299.9 481.8,299.7 487.5,299.2 493.1,298.5 498.8,297.4 504.5,295.9 510.2,293.9 515.9,291.5 521.6,288.6 527.2,285.2 532.9,281.3 538.6,276.9 544.3,272.2 550.0,267.1 555.7,261.8 561.3,256.3 567.0,250.9 572.7,245.6 578.4,240.5 584.1,235.7 589.7,231.5 595.4,227.9 601.1,224.9 606.8,222.8 612.5,221.4 618.2,221.0 623.8,221.4 629.5,222.8 635.2,224.9 640.9,227.9 646.6,231.5 652.3,235.7 657.9,240.5 663.6,245.6 669.3,250.9 675.0,256.3 680.7,261.8 686.3,267.1 692.0,272.2 697.7,276.9 703.4,281.3 709.1,285.2 714.8,288.6 720.4,291.5 726.1,293.9 731.8,295.9 737.5,297.4 743.2,298.5 748.9,299.2 754.5,299.7 760.2,299.9 765.9,300.0 771.6,300.0 777.3,300.0 783.0,299.9 788.6,299.9 794.3,299.8 L794.3,298.5 L442.0,298.5 Z" fill="url(#g273)" clip-path="url(#c275)"/>
  <defs><clipPath id="pc276"><rect x="442" y="221" width="358" height="155"/></clipPath></defs>
  <polyline points="442.0,299.8 447.7,299.9 453.4,299.9 459.0,300.0 464.7,300.0 470.4,300.0 476.1,299.9 481.8,299.7 487.5,299.2 493.1,298.5 498.8,297.4 504.5,295.9 510.2,293.9 515.9,291.5 521.6,288.6 527.2,285.2 532.9,281.3 538.6,276.9 544.3,272.2 550.0,267.1 555.7,261.8 561.3,256.3 567.0,250.9 572.7,245.6 578.4,240.5 584.1,235.7 589.7,231.5 595.4,227.9 601.1,224.9 606.8,222.8 612.5,221.4 618.2,221.0 623.8,221.4 629.5,222.8 635.2,224.9 640.9,227.9 646.6,231.5 652.3,235.7 657.9,240.5 663.6,245.6 669.3,250.9 675.0,256.3 680.7,261.8 686.3,267.1 692.0,272.2 697.7,276.9 703.4,281.3 709.1,285.2 714.8,288.6 720.4,291.5 726.1,293.9 731.8,295.9 737.5,297.4 743.2,298.5 748.9,299.2 754.5,299.7 760.2,299.9 765.9,300.0 771.6,300.0 777.3,300.0 783.0,299.9 788.6,299.9 794.3,299.8" fill="none" stroke="#f39c12" stroke-width="1.3" stroke-linejoin="round" clip-path="url(#pc276)"/>
</svg>
