<svg xmlns="http://www.w3.org/2000/svg" viewBox="0 0 820 378" style="font-family:system-ui,-apple-system,sans-serif">
  <text x="800" y="11" text-anchor="end" font-size="11" font-weight="600" fill="#6b7280">firwin2 bandpass, 201 taps</text>
  <line x1="34" y1="16" x2="34" y2="171" stroke="#d1d5db"/>
  <line x1="34" y1="47.0" x2="399" y2="47.0" stroke="#d1d5db"/>
  <text x="216.5" y="197" text-anchor="middle" font-size="9" fill="#6b7280">Hz</text>
  <text x="12" y="93.5" text-anchor="middle" font-size="9" fill="#6b7280" transform="rotate(-90 12 93.5)">dB</text>
  <line x1="67.3" y1="16" x2="67.3" y2="171" stroke="#e5e7eb" stroke-width="0.5"/>
  <line x1="86.8" y1="16" x2="86.8" y2="171" stroke="#e5e7eb" stroke-width="0.5"/>
  <line x1="100.6" y1="16" x2="100.6" y2="171" stroke="#e5e7eb" stroke-width="0.5"/>
  <line x1="111.3" y1="16" x2="111.3" y2="171" stroke="#e5e7eb" stroke-width="0.5"/>
  <line x1="120.0" y1="16" x2="120.0" y2="171" stroke="#e5e7eb" stroke-width="0.5"/>
  <line x1="127.4" y1="16" x2="127.4" y2="171" stroke="#e5e7eb" stroke-width="0.5"/>
  <line x1="133.9" y1="16" x2="133.9" y2="171" stroke="#e5e7eb" stroke-width="0.5"/>
  <line x1="139.5" y1="16" x2="139.5" y2="171" stroke="#e5e7eb" stroke-width="0.5"/>
  <line x1="177.9" y1="16" x2="177.9" y2="171" stroke="#e5e7eb" stroke-width="0.5"/>
  <line x1="197.3" y1="16" x2="197.3" y2="171" stroke="#e5e7eb" stroke-width="0.5"/>
  <line x1="211.1" y1="16" x2="211.1" y2="171" stroke="#e5e7eb" stroke-width="0.5"/>
  <line x1="221.9" y1="16" x2="221.9" y2="171" stroke="#e5e7eb" stroke-width="0.5"/>
  <line x1="230.6" y1="16" x2="230.6" y2="171" stroke="#e5e7eb" stroke-width="0.5"/>
  <line x1="238.0" y1="16" x2="238.0" y2="171" stroke="#e5e7eb" stroke-width="0.5"/>
  <line x1="244.4" y1="16" x2="244.4" y2="171" stroke="#e5e7eb" stroke-width="0.5"/>
  <line x1="250.1" y1="16" x2="250.1" y2="171" stroke="#e5e7eb" stroke-width="0.5"/>
  <line x1="288.4" y1="16" x2="288.4" y2="171" stroke="#e5e7eb" stroke-width="0.5"/>
  <line x1="307.9" y1="16" x2="307.9" y2="171" stroke="#e5e7eb" stroke-width="0.5"/>
  <line x1="321.7" y1="16" x2="321.7" y2="171" stroke="#e5e7eb" stroke-width="0.5"/>
  <line x1="332.4" y1="16" x2="332.4" y2="171" stroke="#e5e7eb" stroke-width="0.5"/>
  <line x1="341.2" y1="16" x2="341.2" y2="171" stroke="#e5e7eb" stroke-width="0.5"/>
  <line x1="348.6" y1="16" x2="348.6" y2="171" stroke="#e5e7eb" stroke-width="0.5"/>
  <line x1="355.0" y1="16" x2="355.0" y2="171" stroke="#e5e7eb" stroke-width="0.5"/>
  <line x1="360.7" y1="16" x2="360.7" y2="171" stroke="#e5e7eb" stroke-width="0.5"/>
  <line x1="399.0" y1="16" x2="399.0" y2="171" stroke="#e5e7eb" stroke-width="0.5"/>
  <line x1="144.6" y1="16" x2="144.6" y2="171" stroke="#e5e7eb" stroke-width="0.5"/>
  <text x="144.6" y="183" text-anchor="middle" font-size="8" fill="#6b7280">100</text>
  <line x1="255.1" y1="16" x2="255.1" y2="171" stroke="#e5e7eb" stroke-width="0.5"/>
  <text x="255.1" y="183" text-anchor="middle" font-size="8" fill="#6b7280">1k</text>
  <line x1="365.7" y1="16" x2="365.7" y2="171" stroke="#e5e7eb" stroke-width="0.5"/>
  <text x="365.7" y="183" text-anchor="middle" font-size="8" fill="#6b7280">10k</text>
  <line x1="34" y1="31.5" x2="399" y2="31.5" stroke="#e5e7eb" stroke-width="0.5"/>
  <line x1="34" y1="62.5" x2="399" y2="62.5" stroke="#e5e7eb" stroke-width="0.5"/>
  <line x1="34" y1="16.0" x2="399" y2="16.0" stroke="#e5e7eb" stroke-width="0.5"/>
  <text x="30" y="19.0" text-anchor="end" font-size="8" fill="#6b7280">+20</text>
  <text x="30" y="50.0" text-anchor="end" font-size="8" fill="#6b7280">0</text>
  <line x1="34" y1="78.0" x2="399" y2="78.0" stroke="#e5e7eb" stroke-width="0.5"/>
  <text x="30" y="81.0" text-anchor="end" font-size="8" fill="#6b7280">-20</text>
  <line x1="34" y1="109.0" x2="399" y2="109.0" stroke="#e5e7eb" stroke-width="0.5"/>
  <text x="30" y="112.0" text-anchor="end" font-size="8" fill="#6b7280">-40</text>
  <line x1="34" y1="140.0" x2="399" y2="140.0" stroke="#e5e7eb" stroke-width="0.5"/>
  <text x="30" y="143.0" text-anchor="end" font-size="8" fill="#6b7280">-60</text>
  <line x1="34" y1="171.0" x2="399" y2="171.0" stroke="#e5e7eb" stroke-width="0.5"/>
  <text x="30" y="174.0" text-anchor="end" font-size="8" fill="#6b7280">-80</text>
  <defs><linearGradient id="g535" x1="0" y1="16" x2="0" y2="171" gradientUnits="userSpaceOnUse">
    <stop offset="0%" stop-color="#4a90d9" stop-opacity="0.15"/>
    <stop offset="100%" stop-color="#4a90d9" stop-opacity="0.02"/>
  </linearGradient></defs>
  <path d="M37.5,171.0 37.5,171.0 70.8,171.0 90.3,171.0 104.1,171.0 114.8,171.0 123.6,171.0 131.0,171.0 137.4,171.0 143.1,171.0 148.1,171.0 152.7,171.0 156.9,171.0 160.7,171.0 164.3,171.0 167.6,171.0 170.7,171.0 173.6,171.0 176.3,171.0 178.9,171.0 181.4,171.0 183.7,171.0 186.0,171.0 188.1,171.0 190.2,171.0 192.1,171.0 194.0,171.0 195.8,171.0 197.6,171.0 199.2,171.0 200.9,171.0 202.4,171.0 204.0,171.0 205.5,171.0 206.9,171.0 208.3,171.0 209.6,171.0 210.9,171.0 212.2,171.0 213.5,171.0 214.7,171.0 215.9,171.0 217.0,171.0 218.2,171.0 219.3,171.0 220.3,171.0 221.4,171.0 222.4,171.0 223.4,171.0 224.4,171.0 225.4,171.0 226.4,171.0 227.3,171.0 228.2,171.0 229.1,171.0 230.0,171.0 230.8,171.0 231.7,171.0 232.5,171.0 233.4,171.0 234.2,171.0 235.7,171.0 237.3,171.0 238.7,171.0 240.2,171.0 241.6,171.0 242.9,171.0 244.2,171.0 245.5,171.0 246.8,171.0 248.0,171.0 249.2,171.0 250.3,171.0 251.4,171.0 252.6,171.0 253.6,171.0 254.7,171.0 255.7,171.0 256.7,171.0 257.7,171.0 258.7,171.0 259.6,171.0 260.6,171.0 261.5,171.0 262.4,171.0 263.3,171.0 264.1,171.0 265.0,171.0 265.8,171.0 266.6,171.0 267.4,171.0 268.6,171.0 269.8,171.0 270.9,171.0 272.0,171.0 273.1,171.0 274.2,171.0 275.2,171.0 276.2,171.0 277.2,171.0 278.2,171.0 279.1,171.0 280.0,171.0 281.0,171.0 281.9,171.0 282.7,171.0 283.6,171.0 284.5,171.0 285.3,171.0 286.1,171.0 286.9,171.0 288.0,171.0 289.0,171.0 290.0,171.0 291.0,171.0 292.0,171.0 292.9,171.0 293.9,171.0 294.8,171.0 295.7,171.0 296.6,171.0 297.4,171.0 298.3,171.0 299.1,171.0 299.9,171.0 300.7,171.0 301.7,171.0 302.7,171.0 303.6,171.0 304.6,171.0 305.5,171.0 306.4,171.0 307.3,171.0 308.1,171.0 309.0,171.0 309.8,171.0 310.6,171.0 311.4,171.0 312.4,171.0 313.3,171.0 314.2,171.0 315.1,171.0 316.0,171.0 316.9,171.0 317.7,171.0 318.6,171.0 319.4,171.0 320.2,171.0 321.1,171.0 322.0,171.0 322.9,171.0 323.8,144.6 324.7,127.1 325.5,114.7 326.3,105.2 327.1,97.7 327.9,91.8 328.8,86.5 329.7,82.5 330.6,79.2 331.4,76.6 332.3,74.4 333.1,72.5 333.9,70.9 334.8,69.3 335.7,67.8 336.5,66.5 337.4,65.3 338.2,64.2 339.0,63.2 339.8,62.2 340.7,61.2 341.6,60.3 342.4,59.5 343.3,58.7 344.1,57.9 344.9,57.2 345.8,56.4 346.6,55.7 347.5,55.0 348.3,54.4 349.1,53.8 350.0,53.2 350.8,52.5 351.7,52.0 352.5,51.4 353.3,50.9 354.1,50.3 355.0,49.8 355.8,49.3 356.6,48.8 357.5,48.3 358.3,47.8 359.1,47.4 360.0,47.1 360.8,47.0 361.6,47.0 362.5,47.0 363.3,47.0 364.1,47.0 364.9,47.0 365.8,47.0 366.6,47.0 367.4,47.0 368.2,47.0 369.1,47.0 369.9,47.0 370.7,47.0 371.6,47.0 372.4,47.0 373.2,47.0 374.0,47.0 374.8,47.0 375.6,47.0 376.5,47.0 377.3,47.0 378.1,47.0 378.9,47.0 379.7,47.0 380.5,47.0 381.4,47.0 382.2,47.0 383.0,47.0 383.8,47.0 384.6,47.0 385.5,47.0 386.3,47.0 387.1,47.0 387.9,47.0 388.7,47.0 389.5,47.0 390.3,47.0 391.2,47.0 392.0,47.0 392.8,47.1 393.6,47.7 394.4,48.7 395.2,49.9 396.0,51.1 396.8,52.5 397.6,54.1 398.5,55.9 L398.5,171.0 L37.5,171.0 Z" fill="url(#g535)"/>
  <defs><clipPath id="pc536"><rect x="34" y="16" width="365" height="155"/></clipPath></defs>
  <polyline points="37.5,254.1 70.8,253.9 90.3,253.7 104.1,253.4 114.8,253.1 123.6,252.8 131.0,252.7 137.4,252.6 143.1,252.8 148.1,253.2 152.7,253.9 156.9,255.1 160.7,256.9 164.3,259.6 167.6,263.8 170.7,271.6 173.6,301.8 176.3,273.1 178.9,262.4 181.4,256.2 183.7,251.9 186.0,248.6 188.1,245.9 190.2,243.8 192.1,242.1 194.0,240.8 195.8,239.7 197.6,239.0 199.2,238.6 200.9,238.4 202.4,238.6 204.0,239.0 205.5,239.9 206.9,241.2 208.3,243.2 209.6,245.9 210.9,250.1 212.2,257.0 213.5,275.1 214.7,265.8 215.9,253.2 217.0,246.7 218.2,242.4 219.3,239.3 220.3,236.9 221.4,235.0 222.4,233.6 223.4,232.6 224.4,231.9 225.4,231.5 226.4,231.4 227.3,231.7 228.2,232.2 229.1,233.2 230.0,234.7 230.8,236.7 231.7,239.6 232.5,243.9 233.4,251.0 234.2,269.7 235.7,247.2 237.3,236.7 238.7,231.4 240.2,228.4 241.6,226.9 242.9,226.7 244.2,227.9 245.5,230.6 246.8,236.2 248.0,249.9 249.2,250.5 250.3,235.4 251.4,229.0 252.6,225.4 253.6,223.5 254.7,223.0 255.7,223.7 256.7,226.0 257.7,230.6 258.7,240.4 259.6,260.4 260.6,235.1 261.5,227.3 262.4,223.1 263.3,220.8 264.1,219.9 265.0,220.3 265.8,222.2 266.6,226.0 267.4,233.8 268.6,246.6 269.8,226.1 270.9,219.6 272.0,217.3 273.1,217.9 274.2,222.1 275.2,234.3 276.2,237.7 277.2,222.0 278.2,216.5 279.1,214.7 280.0,215.8 281.0,220.8 281.9,236.3 282.7,230.9 283.6,218.4 284.5,213.6 285.3,212.3 286.1,214.0 286.9,220.0 288.0,252.8 289.0,217.3 290.0,210.9 291.0,210.5 292.0,216.3 292.9,257.1 293.9,216.5 294.8,209.1 295.7,208.1 296.6,213.0 297.4,237.8 298.3,216.0 299.1,207.3 299.9,205.7 300.7,209.8 301.7,257.5 302.7,209.3 303.6,203.5 304.6,206.7 305.5,234.4 306.4,208.3 307.3,201.5 308.1,203.8 309.0,224.2 309.8,207.7 310.6,199.7 311.4,201.1 312.4,227.9 313.3,202.5 314.2,197.7 315.1,205.9 316.0,213.0 316.9,198.5 317.7,198.5 318.6,207.3 319.4,243.8 320.2,201.4 321.1,183.8 322.0,175.9 322.9,181.3 323.8,144.6 324.7,127.1 325.5,114.7 326.3,105.2 327.1,97.7 327.9,91.8 328.8,86.5 329.7,82.5 330.6,79.2 331.4,76.6 332.3,74.4 333.1,72.5 333.9,70.9 334.8,69.3 335.7,67.8 336.5,66.5 337.4,65.3 338.2,64.2 339.0,63.2 339.8,62.2 340.7,61.2 341.6,60.3 342.4,59.5 343.3,58.7 344.1,57.9 344.9,57.2 345.8,56.4 346.6,55.7 347.5,55.0 348.3,54.4 349.1,53.8 350.0,53.2 350.8,52.5 351.7,52.0 352.5,51.4 353.3,50.9 354.1,50.3 355.0,49.8 355.8,49.3 356.6,48.8 357.5,48.3 358.3,47.8 359.1,47.4 360.0,47.1 360.8,47.0 361.6,47.0 362.5,47.0 363.3,47.0 364.1,47.0 364.9,47.0 365.8,47.0 366.6,47.0 367.4,47.0 368.2,47.0 369.1,47.0 369.9,47.0 370.7,47.0 371.6,47.0 372.4,47.0 373.2,47.0 374.0,47.0 374.8,47.0 375.6,47.0 376.5,47.0 377.3,47.0 378.1,47.0 378.9,47.0 379.7,47.0 380.5,47.0 381.4,47.0 382.2,47.0 383.0,47.0 383.8,47.0 384.6,47.0 385.5,47.0 386.3,47.0 387.1,47.0 387.9,47.0 388.7,47.0 389.5,47.0 390.3,47.0 391.2,47.0 392.0,47.0 392.8,47.1 393.6,47.7 394.4,48.7 395.2,49.9 396.0,51.1 396.8,52.5 397.6,54.1 398.5,55.9" fill="none" stroke="#4a90d9" stroke-width="1.5" stroke-linejoin="round" clip-path="url(#pc536)"/>
  <line x1="435" y1="16" x2="435" y2="171" stroke="#d1d5db"/>
  <line x1="435" y1="93.5" x2="800" y2="93.5" stroke="#d1d5db"/>
  <text x="617.5" y="197" text-anchor="middle" font-size="9" fill="#6b7280">Hz</text>
  <text x="413" y="93.5" text-anchor="middle" font-size="9" fill="#6b7280" transform="rotate(-90 413 93.5)">Phase (deg)</text>
  <line x1="468.3" y1="16" x2="468.3" y2="171" stroke="#e5e7eb" stroke-width="0.5"/>
  <line x1="487.8" y1="16" x2="487.8" y2="171" stroke="#e5e7eb" stroke-width="0.5"/>
  <line x1="501.6" y1="16" x2="501.6" y2="171" stroke="#e5e7eb" stroke-width="0.5"/>
  <line x1="512.3" y1="16" x2="512.3" y2="171" stroke="#e5e7eb" stroke-width="0.5"/>
  <line x1="521.0" y1="16" x2="521.0" y2="171" stroke="#e5e7eb" stroke-width="0.5"/>
  <line x1="528.4" y1="16" x2="528.4" y2="171" stroke="#e5e7eb" stroke-width="0.5"/>
  <line x1="534.9" y1="16" x2="534.9" y2="171" stroke="#e5e7eb" stroke-width="0.5"/>
  <line x1="540.5" y1="16" x2="540.5" y2="171" stroke="#e5e7eb" stroke-width="0.5"/>
  <line x1="578.9" y1="16" x2="578.9" y2="171" stroke="#e5e7eb" stroke-width="0.5"/>
  <line x1="598.3" y1="16" x2="598.3" y2="171" stroke="#e5e7eb" stroke-width="0.5"/>
  <line x1="612.1" y1="16" x2="612.1" y2="171" stroke="#e5e7eb" stroke-width="0.5"/>
  <line x1="622.9" y1="16" x2="622.9" y2="171" stroke="#e5e7eb" stroke-width="0.5"/>
  <line x1="631.6" y1="16" x2="631.6" y2="171" stroke="#e5e7eb" stroke-width="0.5"/>
  <line x1="639.0" y1="16" x2="639.0" y2="171" stroke="#e5e7eb" stroke-width="0.5"/>
  <line x1="645.4" y1="16" x2="645.4" y2="171" stroke="#e5e7eb" stroke-width="0.5"/>
  <line x1="651.1" y1="16" x2="651.1" y2="171" stroke="#e5e7eb" stroke-width="0.5"/>
  <line x1="689.4" y1="16" x2="689.4" y2="171" stroke="#e5e7eb" stroke-width="0.5"/>
  <line x1="708.9" y1="16" x2="708.9" y2="171" stroke="#e5e7eb" stroke-width="0.5"/>
  <line x1="722.7" y1="16" x2="722.7" y2="171" stroke="#e5e7eb" stroke-width="0.5"/>
  <line x1="733.4" y1="16" x2="733.4" y2="171" stroke="#e5e7eb" stroke-width="0.5"/>
  <line x1="742.2" y1="16" x2="742.2" y2="171" stroke="#e5e7eb" stroke-width="0.5"/>
  <line x1="749.6" y1="16" x2="749.6" y2="171" stroke="#e5e7eb" stroke-width="0.5"/>
  <line x1="756.0" y1="16" x2="756.0" y2="171" stroke="#e5e7eb" stroke-width="0.5"/>
  <line x1="761.7" y1="16" x2="761.7" y2="171" stroke="#e5e7eb" stroke-width="0.5"/>
  <line x1="800.0" y1="16" x2="800.0" y2="171" stroke="#e5e7eb" stroke-width="0.5"/>
  <line x1="545.6" y1="16" x2="545.6" y2="171" stroke="#e5e7eb" stroke-width="0.5"/>
  <text x="545.6" y="183" text-anchor="middle" font-size="8" fill="#6b7280">100</text>
  <line x1="656.1" y1="16" x2="656.1" y2="171" stroke="#e5e7eb" stroke-width="0.5"/>
  <text x="656.1" y="183" text-anchor="middle" font-size="8" fill="#6b7280">1k</text>
  <line x1="766.7" y1="16" x2="766.7" y2="171" stroke="#e5e7eb" stroke-width="0.5"/>
  <text x="766.7" y="183" text-anchor="middle" font-size="8" fill="#6b7280">10k</text>
  <line x1="435" y1="58.6" x2="800" y2="58.6" stroke="#e5e7eb" stroke-width="0.5"/>
  <line x1="435" y1="128.4" x2="800" y2="128.4" stroke="#e5e7eb" stroke-width="0.5"/>
  <line x1="435" y1="23.8" x2="800" y2="23.8" stroke="#e5e7eb" stroke-width="0.5"/>
  <text x="431" y="26.8" text-anchor="end" font-size="8" fill="#6b7280">180</text>
  <text x="431" y="96.5" text-anchor="end" font-size="8" fill="#6b7280">0</text>
  <line x1="435" y1="163.3" x2="800" y2="163.3" stroke="#e5e7eb" stroke-width="0.5"/>
  <text x="431" y="166.3" text-anchor="end" font-size="8" fill="#6b7280">-180</text>
  <defs><linearGradient id="g537" x1="0" y1="16" x2="0" y2="93.5" gradientUnits="userSpaceOnUse">
    <stop offset="0%" stop-color="#e74c3c" stop-opacity="0.15"/>
    <stop offset="100%" stop-color="#e74c3c" stop-opacity="0.02"/>
  </linearGradient></defs>
  <defs><linearGradient id="g538" x1="0" y1="171" x2="0" y2="93.5" gradientUnits="userSpaceOnUse">
    <stop offset="0%" stop-color="#e74c3c" stop-opacity="0.15"/>
    <stop offset="100%" stop-color="#e74c3c" stop-opacity="0.02"/>
  </linearGradient></defs>
  <defs><clipPath id="c539"><rect x="435" y="16" width="365" height="77.5"/></clipPath></defs>
  <defs><clipPath id="c540"><rect x="435" y="93.5" width="365" height="77.5"/></clipPath></defs>
  <path d="M438.5,96.9 438.5,96.9 471.8,100.3 491.3,103.7 505.1,107.1 515.8,110.5 524.6,113.9 532.0,117.3 538.4,120.7 544.1,124.2 549.1,127.6 553.7,131.0 557.9,134.4 561.7,137.8 565.3,141.2 568.6,144.6 571.7,148.0 574.6,151.4 577.3,85.1 579.9,88.5 582.4,91.9 584.7,95.3 587.0,98.7 589.1,102.1 591.2,105.5 593.1,108.9 595.0,112.3 596.8,115.7 598.6,119.1 600.2,122.5 601.9,125.9 603.4,129.3 605.0,132.7 606.5,136.1 607.9,139.5 609.3,143.0 610.6,146.4 611.9,149.8 613.2,153.2 614.5,156.6 615.7,90.2 616.9,93.6 618.0,97.0 619.2,100.4 620.3,103.9 621.3,107.3 622.4,110.7 623.4,114.1 624.4,117.5 625.4,120.9 626.4,124.3 627.4,127.7 628.3,131.1 629.2,134.5 630.1,137.9 631.0,141.3 631.8,144.7 632.7,148.1 633.5,151.5 634.4,154.9 635.2,158.3 636.7,95.4 638.3,102.2 639.7,109.0 641.2,115.8 642.6,122.7 643.9,129.5 645.2,136.3 646.5,143.1 647.8,149.9 649.0,156.7 650.2,93.8 651.3,100.6 652.4,107.4 653.6,114.2 654.6,121.0 655.7,127.8 656.7,134.6 657.7,141.5 658.7,148.3 659.7,155.1 660.6,92.1 661.6,98.9 662.5,105.8 663.4,112.6 664.3,119.4 665.1,126.2 666.0,133.0 666.8,139.8 667.6,146.6 668.4,153.4 669.6,93.9 670.8,104.1 671.9,114.3 673.0,124.6 674.1,134.8 675.2,145.0 676.2,155.2 677.2,95.7 678.2,105.9 679.2,116.1 680.1,126.3 681.0,136.5 682.0,146.8 682.9,157.0 683.7,97.5 684.6,107.7 685.5,117.9 686.3,128.1 687.1,138.3 687.9,148.5 689.0,92.4 690.0,106.0 691.0,119.7 692.0,133.3 693.0,146.9 693.9,160.5 694.9,104.4 695.8,118.0 696.7,131.6 697.6,145.3 698.4,158.9 699.3,102.8 700.1,116.4 700.9,130.0 701.7,143.6 702.7,160.7 703.7,107.9 704.6,125.0 705.6,142.0 706.5,159.0 707.4,106.3 708.3,123.3 709.1,140.4 710.0,157.4 710.8,104.7 711.6,121.7 712.4,138.7 713.4,159.2 714.3,109.8 715.2,130.3 716.1,150.7 717.0,101.4 717.9,121.8 718.7,142.3 719.6,162.7 720.4,113.4 721.2,133.8 722.1,157.7 723.0,42.0 723.9,135.6 724.8,159.4 725.7,43.8 726.5,67.6 727.3,91.5 728.1,115.3 728.9,139.1 729.8,26.9 730.7,54.1 731.6,81.4 732.4,108.6 733.3,135.9 734.1,163.1 734.9,50.9 735.8,81.5 736.7,112.2 737.5,142.8 738.4,34.0 739.2,64.6 740.0,95.3 740.8,125.9 741.7,160.0 742.6,54.5 743.4,88.6 744.3,122.7 745.1,156.7 745.9,51.3 746.8,88.7 747.6,126.2 748.5,24.2 749.3,61.6 750.1,99.1 751.0,140.0 751.8,41.3 752.7,82.2 753.5,123.1 754.3,24.4 755.1,68.7 756.0,113.0 756.8,157.3 757.6,62.0 758.5,106.3 759.3,154.0 760.1,62.2 761.0,109.8 761.8,157.5 762.6,69.1 763.5,120.2 764.3,31.8 765.1,82.9 765.9,137.4 766.8,52.4 767.6,106.9 768.4,161.3 769.2,79.7 770.1,137.6 770.9,56.0 771.7,117.3 772.6,39.1 773.4,100.4 774.2,161.8 775.0,87.0 775.8,151.7 776.6,76.9 777.5,145.0 778.3,73.6 779.1,141.7 779.9,73.7 780.7,145.3 781.5,77.3 782.4,152.2 783.2,87.6 784.0,162.6 784.8,101.4 785.6,40.2 786.5,122.0 787.3,64.2 788.1,145.9 788.9,91.6 789.7,37.2 790.5,125.8 791.3,74.8 792.2,27.3 793.0,119.2 793.8,71.7 794.6,27.6 795.4,122.9 796.2,82.2 797.0,41.5 797.8,143.6 798.6,106.3 799.5,72.4 L799.5,93.5 L438.5,93.5 Z" fill="url(#g537)" clip-path="url(#c539)"/>
  <path d="M438.5,96.9 438.5,96.9 471.8,100.3 491.3,103.7 505.1,107.1 515.8,110.5 524.6,113.9 532.0,117.3 538.4,120.7 544.1,124.2 549.1,127.6 553.7,131.0 557.9,134.4 561.7,137.8 565.3,141.2 568.6,144.6 571.7,148.0 574.6,151.4 577.3,85.1 579.9,88.5 582.4,91.9 584.7,95.3 587.0,98.7 589.1,102.1 591.2,105.5 593.1,108.9 595.0,112.3 596.8,115.7 598.6,119.1 600.2,122.5 601.9,125.9 603.4,129.3 605.0,132.7 606.5,136.1 607.9,139.5 609.3,143.0 610.6,146.4 611.9,149.8 613.2,153.2 614.5,156.6 615.7,90.2 616.9,93.6 618.0,97.0 619.2,100.4 620.3,103.9 621.3,107.3 622.4,110.7 623.4,114.1 624.4,117.5 625.4,120.9 626.4,124.3 627.4,127.7 628.3,131.1 629.2,134.5 630.1,137.9 631.0,141.3 631.8,144.7 632.7,148.1 633.5,151.5 634.4,154.9 635.2,158.3 636.7,95.4 638.3,102.2 639.7,109.0 641.2,115.8 642.6,122.7 643.9,129.5 645.2,136.3 646.5,143.1 647.8,149.9 649.0,156.7 650.2,93.8 651.3,100.6 652.4,107.4 653.6,114.2 654.6,121.0 655.7,127.8 656.7,134.6 657.7,141.5 658.7,148.3 659.7,155.1 660.6,92.1 661.6,98.9 662.5,105.8 663.4,112.6 664.3,119.4 665.1,126.2 666.0,133.0 666.8,139.8 667.6,146.6 668.4,153.4 669.6,93.9 670.8,104.1 671.9,114.3 673.0,124.6 674.1,134.8 675.2,145.0 676.2,155.2 677.2,95.7 678.2,105.9 679.2,116.1 680.1,126.3 681.0,136.5 682.0,146.8 682.9,157.0 683.7,97.5 684.6,107.7 685.5,117.9 686.3,128.1 687.1,138.3 687.9,148.5 689.0,92.4 690.0,106.0 691.0,119.7 692.0,133.3 693.0,146.9 693.9,160.5 694.9,104.4 695.8,118.0 696.7,131.6 697.6,145.3 698.4,158.9 699.3,102.8 700.1,116.4 700.9,130.0 701.7,143.6 702.7,160.7 703.7,107.9 704.6,125.0 705.6,142.0 706.5,159.0 707.4,106.3 708.3,123.3 709.1,140.4 710.0,157.4 710.8,104.7 711.6,121.7 712.4,138.7 713.4,159.2 714.3,109.8 715.2,130.3 716.1,150.7 717.0,101.4 717.9,121.8 718.7,142.3 719.6,162.7 720.4,113.4 721.2,133.8 722.1,157.7 723.0,42.0 723.9,135.6 724.8,159.4 725.7,43.8 726.5,67.6 727.3,91.5 728.1,115.3 728.9,139.1 729.8,26.9 730.7,54.1 731.6,81.4 732.4,108.6 733.3,135.9 734.1,163.1 734.9,50.9 735.8,81.5 736.7,112.2 737.5,142.8 738.4,34.0 739.2,64.6 740.0,95.3 740.8,125.9 741.7,160.0 742.6,54.5 743.4,88.6 744.3,122.7 745.1,156.7 745.9,51.3 746.8,88.7 747.6,126.2 748.5,24.2 749.3,61.6 750.1,99.1 751.0,140.0 751.8,41.3 752.7,82.2 753.5,123.1 754.3,24.4 755.1,68.7 756.0,113.0 756.8,157.3 757.6,62.0 758.5,106.3 759.3,154.0 760.1,62.2 761.0,109.8 761.8,157.5 762.6,69.1 763.5,120.2 764.3,31.8 765.1,82.9 765.9,137.4 766.8,52.4 767.6,106.9 768.4,161.3 769.2,79.7 770.1,137.6 770.9,56.0 771.7,117.3 772.6,39.1 773.4,100.4 774.2,161.8 775.0,87.0 775.8,151.7 776.6,76.9 777.5,145.0 778.3,73.6 779.1,141.7 779.9,73.7 780.7,145.3 781.5,77.3 782.4,152.2 783.2,87.6 784.0,162.6 784.8,101.4 785.6,40.2 786.5,122.0 787.3,64.2 788.1,145.9 788.9,91.6 789.7,37.2 790.5,125.8 791.3,74.8 792.2,27.3 793.0,119.2 793.8,71.7 794.6,27.6 795.4,122.9 796.2,82.2 797.0,41.5 797.8,143.6 798.6,106.3 799.5,72.4 L799.5,93.5 L438.5,93.5 Z" fill="url(#g538)" clip-path="url(#c540)"/>
  <defs><clipPath id="pc541"><rect x="435" y="16" width="365" height="155"/></clipPath></defs>
  <polyline points="438.5,96.9 471.8,100.3 491.3,103.7 505.1,107.1 515.8,110.5 524.6,113.9 532.0,117.3 538.4,120.7 544.1,124.2 549.1,127.6 553.7,131.0 557.9,134.4 561.7,137.8 565.3,141.2 568.6,144.6 571.7,148.0 574.6,151.4 577.3,85.1 579.9,88.5 582.4,91.9 584.7,95.3 587.0,98.7 589.1,102.1 591.2,105.5 593.1,108.9 595.0,112.3 596.8,115.7 598.6,119.1 600.2,122.5 601.9,125.9 603.4,129.3 605.0,132.7 606.5,136.1 607.9,139.5 609.3,143.0 610.6,146.4 611.9,149.8 613.2,153.2 614.5,156.6 615.7,90.2 616.9,93.6 618.0,97.0 619.2,100.4 620.3,103.9 621.3,107.3 622.4,110.7 623.4,114.1 624.4,117.5 625.4,120.9 626.4,124.3 627.4,127.7 628.3,131.1 629.2,134.5 630.1,137.9 631.0,141.3 631.8,144.7 632.7,148.1 633.5,151.5 634.4,154.9 635.2,158.3 636.7,95.4 638.3,102.2 639.7,109.0 641.2,115.8 642.6,122.7 643.9,129.5 645.2,136.3 646.5,143.1 647.8,149.9 649.0,156.7 650.2,93.8 651.3,100.6 652.4,107.4 653.6,114.2 654.6,121.0 655.7,127.8 656.7,134.6 657.7,141.5 658.7,148.3 659.7,155.1 660.6,92.1 661.6,98.9 662.5,105.8 663.4,112.6 664.3,119.4 665.1,126.2 666.0,133.0 666.8,139.8 667.6,146.6 668.4,153.4 669.6,93.9 670.8,104.1 671.9,114.3 673.0,124.6 674.1,134.8 675.2,145.0 676.2,155.2 677.2,95.7 678.2,105.9 679.2,116.1 680.1,126.3 681.0,136.5 682.0,146.8 682.9,157.0 683.7,97.5 684.6,107.7 685.5,117.9 686.3,128.1 687.1,138.3 687.9,148.5 689.0,92.4 690.0,106.0 691.0,119.7 692.0,133.3 693.0,146.9 693.9,160.5 694.9,104.4 695.8,118.0 696.7,131.6 697.6,145.3 698.4,158.9 699.3,102.8 700.1,116.4 700.9,130.0 701.7,143.6 702.7,160.7 703.7,107.9 704.6,125.0 705.6,142.0 706.5,159.0 707.4,106.3 708.3,123.3 709.1,140.4 710.0,157.4 710.8,104.7 711.6,121.7 712.4,138.7 713.4,159.2 714.3,109.8 715.2,130.3 716.1,150.7 717.0,101.4 717.9,121.8 718.7,142.3 719.6,162.7 720.4,113.4 721.2,133.8 722.1,157.7 723.0,42.0 723.9,135.6 724.8,159.4 725.7,43.8 726.5,67.6 727.3,91.5 728.1,115.3 728.9,139.1 729.8,26.9 730.7,54.1 731.6,81.4 732.4,108.6 733.3,135.9 734.1,163.1 734.9,50.9 735.8,81.5 736.7,112.2 737.5,142.8 738.4,34.0 739.2,64.6 740.0,95.3 740.8,125.9 741.7,160.0 742.6,54.5 743.4,88.6 744.3,122.7 745.1,156.7 745.9,51.3 746.8,88.7 747.6,126.2 748.5,24.2 749.3,61.6 750.1,99.1 751.0,140.0 751.8,41.3 752.7,82.2 753.5,123.1 754.3,24.4 755.1,68.7 756.0,113.0 756.8,157.3 757.6,62.0 758.5,106.3 759.3,154.0 760.1,62.2 761.0,109.8 761.8,157.5 762.6,69.1 763.5,120.2 764.3,31.8 765.1,82.9 765.9,137.4 766.8,52.4 767.6,106.9 768.4,161.3 769.2,79.7 770.1,137.6 770.9,56.0 771.7,117.3 772.6,39.1 773.4,100.4 774.2,161.8 775.0,87.0 775.8,151.7 776.6,76.9 777.5,145.0 778.3,73.6 779.1,141.7 779.9,73.7 780.7,145.3 781.5,77.3 782.4,152.2 783.2,87.6 784.0,162.6 784.8,101.4 785.6,40.2 786.5,122.0 787.3,64.2 788.1,145.9 788.9,91.6 789.7,37.2 790.5,125.8 791.3,74.8 792.2,27.3 793.0,119.2 793.8,71.7 794.6,27.6 795.4,122.9 796.2,82.2 797.0,41.5 797.8,143.6 798.6,106.3 799.5,72.4" fill="none" stroke="#e74c3c" stroke-width="1.5" stroke-linejoin="round" clip-path="url(#pc541)"/>
  <line x1="34" y1="207" x2="34" y2="362" stroke="#d1d5db"/>
  <line x1="34" y1="284.5" x2="399" y2="284.5" stroke="#d1d5db"/>
  <text x="216.5" y="388" text-anchor="middle" font-size="9" fill="#6b7280">Hz</text>
  <text x="12" y="284.5" text-anchor="middle" font-size="9" fill="#6b7280" transform="rotate(-90 12 284.5)">Group delay</text>
  <line x1="67.3" y1="207" x2="67.3" y2="362" stroke="#e5e7eb" stroke-width="0.5"/>
  <line x1="86.8" y1="207" x2="86.8" y2="362" stroke="#e5e7eb" stroke-width="0.5"/>
  <line x1="100.6" y1="207" x2="100.6" y2="362" stroke="#e5e7eb" stroke-width="0.5"/>
  <line x1="111.3" y1="207" x2="111.3" y2="362" stroke="#e5e7eb" stroke-width="0.5"/>
  <line x1="120.0" y1="207" x2="120.0" y2="362" stroke="#e5e7eb" stroke-width="0.5"/>
  <line x1="127.4" y1="207" x2="127.4" y2="362" stroke="#e5e7eb" stroke-width="0.5"/>
  <line x1="133.9" y1="207" x2="133.9" y2="362" stroke="#e5e7eb" stroke-width="0.5"/>
  <line x1="139.5" y1="207" x2="139.5" y2="362" stroke="#e5e7eb" stroke-width="0.5"/>
  <line x1="177.9" y1="207" x2="177.9" y2="362" stroke="#e5e7eb" stroke-width="0.5"/>
  <line x1="197.3" y1="207" x2="197.3" y2="362" stroke="#e5e7eb" stroke-width="0.5"/>
  <line x1="211.1" y1="207" x2="211.1" y2="362" stroke="#e5e7eb" stroke-width="0.5"/>
  <line x1="221.9" y1="207" x2="221.9" y2="362" stroke="#e5e7eb" stroke-width="0.5"/>
  <line x1="230.6" y1="207" x2="230.6" y2="362" stroke="#e5e7eb" stroke-width="0.5"/>
  <line x1="238.0" y1="207" x2="238.0" y2="362" stroke="#e5e7eb" stroke-width="0.5"/>
  <line x1="244.4" y1="207" x2="244.4" y2="362" stroke="#e5e7eb" stroke-width="0.5"/>
  <line x1="250.1" y1="207" x2="250.1" y2="362" stroke="#e5e7eb" stroke-width="0.5"/>
  <line x1="288.4" y1="207" x2="288.4" y2="362" stroke="#e5e7eb" stroke-width="0.5"/>
  <line x1="307.9" y1="207" x2="307.9" y2="362" stroke="#e5e7eb" stroke-width="0.5"/>
  <line x1="321.7" y1="207" x2="321.7" y2="362" stroke="#e5e7eb" stroke-width="0.5"/>
  <line x1="332.4" y1="207" x2="332.4" y2="362" stroke="#e5e7eb" stroke-width="0.5"/>
  <line x1="341.2" y1="207" x2="341.2" y2="362" stroke="#e5e7eb" stroke-width="0.5"/>
  <line x1="348.6" y1="207" x2="348.6" y2="362" stroke="#e5e7eb" stroke-width="0.5"/>
  <line x1="355.0" y1="207" x2="355.0" y2="362" stroke="#e5e7eb" stroke-width="0.5"/>
  <line x1="360.7" y1="207" x2="360.7" y2="362" stroke="#e5e7eb" stroke-width="0.5"/>
  <line x1="399.0" y1="207" x2="399.0" y2="362" stroke="#e5e7eb" stroke-width="0.5"/>
  <line x1="144.6" y1="207" x2="144.6" y2="362" stroke="#e5e7eb" stroke-width="0.5"/>
  <text x="144.6" y="374" text-anchor="middle" font-size="8" fill="#6b7280">100</text>
  <line x1="255.1" y1="207" x2="255.1" y2="362" stroke="#e5e7eb" stroke-width="0.5"/>
  <text x="255.1" y="374" text-anchor="middle" font-size="8" fill="#6b7280">1k</text>
  <line x1="365.7" y1="207" x2="365.7" y2="362" stroke="#e5e7eb" stroke-width="0.5"/>
  <text x="365.7" y="374" text-anchor="middle" font-size="8" fill="#6b7280">10k</text>
  <line x1="34" y1="329.7" x2="399" y2="329.7" stroke="#e5e7eb" stroke-width="0.5"/>
  <text x="30" y="332.7" text-anchor="end" font-size="8" fill="#6b7280">-700</text>
  <text x="30" y="287.5" text-anchor="end" font-size="8" fill="#6b7280">0</text>
  <line x1="34" y1="239.3" x2="399" y2="239.3" stroke="#e5e7eb" stroke-width="0.5"/>
  <text x="30" y="242.3" text-anchor="end" font-size="8" fill="#6b7280">700</text>
  <defs><linearGradient id="g542" x1="0" y1="207" x2="0" y2="284.5" gradientUnits="userSpaceOnUse">
    <stop offset="0%" stop-color="#2ecc71" stop-opacity="0.15"/>
    <stop offset="100%" stop-color="#2ecc71" stop-opacity="0.02"/>
  </linearGradient></defs>
  <defs><linearGradient id="g543" x1="0" y1="362" x2="0" y2="284.5" gradientUnits="userSpaceOnUse">
    <stop offset="0%" stop-color="#2ecc71" stop-opacity="0.15"/>
    <stop offset="100%" stop-color="#2ecc71" stop-opacity="0.02"/>
  </linearGradient></defs>
  <defs><clipPath id="c544"><rect x="34" y="207" width="365" height="77.5"/></clipPath></defs>
  <defs><clipPath id="c545"><rect x="34" y="284.5" width="365" height="77.5"/></clipPath></defs>
  <path d="M37.5,278.0 37.5,278.0 70.8,278.0 90.3,278.0 104.1,278.0 114.8,278.0 123.6,278.0 131.0,278.0 137.4,278.0 143.1,278.0 148.1,278.0 152.7,278.0 156.9,278.0 160.7,278.0 164.3,278.0 167.6,278.0 170.7,278.0 173.6,344.1 176.3,344.1 178.9,278.0 181.4,278.0 183.7,278.0 186.0,278.0 188.1,278.0 190.2,278.0 192.1,278.0 194.0,278.0 195.8,278.0 197.6,278.0 199.2,278.0 200.9,278.0 202.4,278.0 204.0,278.0 205.5,278.0 206.9,278.0 208.3,278.0 209.6,278.0 210.9,278.0 212.2,278.0 213.5,344.1 214.7,344.1 215.9,278.0 217.0,278.0 218.2,278.0 219.3,278.0 220.3,278.0 221.4,278.0 222.4,278.0 223.4,278.0 224.4,278.0 225.4,278.0 226.4,278.0 227.3,278.0 228.2,278.0 229.1,278.0 230.0,278.0 230.8,278.0 231.7,278.0 232.5,278.0 233.4,278.0 234.2,344.1 235.7,278.0 237.3,278.0 238.7,278.0 240.2,278.0 241.6,278.0 242.9,278.0 244.2,278.0 245.5,278.0 246.8,278.0 248.0,278.0 249.2,344.1 250.3,278.0 251.4,278.0 252.6,278.0 253.6,278.0 254.7,278.0 255.7,278.0 256.7,278.0 257.7,278.0 258.7,278.0 259.6,344.1 260.6,278.0 261.5,278.0 262.4,278.0 263.3,278.0 264.1,278.0 265.0,278.0 265.8,278.0 266.6,278.0 267.4,278.0 268.6,344.1 269.8,278.0 270.9,278.0 272.0,278.0 273.1,278.0 274.2,278.0 275.2,278.0 276.2,278.0 277.2,278.0 278.2,278.0 279.1,278.0 280.0,278.0 281.0,278.0 281.9,278.0 282.7,278.0 283.6,278.0 284.5,278.0 285.3,278.0 286.1,278.0 286.9,278.0 288.0,344.1 289.0,278.0 290.0,278.0 291.0,278.0 292.0,278.0 292.9,344.1 293.9,278.0 294.8,278.0 295.7,278.0 296.6,278.0 297.4,344.1 298.3,278.0 299.1,278.0 299.9,278.0 300.7,278.0 301.7,344.1 302.7,278.0 303.6,278.0 304.6,278.0 305.5,344.1 306.4,278.0 307.3,278.0 308.1,278.0 309.0,278.0 309.8,278.0 310.6,278.0 311.4,278.0 312.4,344.1 313.3,278.0 314.2,278.0 315.1,278.0 316.0,278.0 316.9,278.0 317.7,278.0 318.6,278.0 319.4,344.1 320.2,278.0 321.1,278.0 322.0,278.0 322.9,278.0 323.8,278.0 324.7,278.0 325.5,278.0 326.3,278.0 327.1,278.0 327.9,278.0 328.8,278.0 329.7,278.0 330.6,278.0 331.4,278.0 332.3,278.0 333.1,278.0 333.9,278.0 334.8,278.0 335.7,278.0 336.5,278.0 337.4,278.0 338.2,278.0 339.0,278.0 339.8,278.0 340.7,278.0 341.6,278.0 342.4,278.0 343.3,278.0 344.1,278.0 344.9,278.0 345.8,278.0 346.6,278.0 347.5,278.0 348.3,278.0 349.1,278.0 350.0,278.0 350.8,278.0 351.7,278.0 352.5,278.0 353.3,278.0 354.1,278.0 355.0,278.0 355.8,278.0 356.6,278.0 357.5,278.0 358.3,278.0 359.1,278.0 360.0,278.0 360.8,278.0 361.6,278.0 362.5,278.0 363.3,278.0 364.1,278.0 364.9,278.0 365.8,278.0 366.6,278.0 367.4,278.0 368.2,278.0 369.1,278.0 369.9,278.0 370.7,278.0 371.6,278.0 372.4,278.0 373.2,278.0 374.0,278.0 374.8,278.0 375.6,278.0 376.5,278.0 377.3,278.0 378.1,278.0 378.9,278.0 379.7,278.0 380.5,278.0 381.4,278.0 382.2,278.0 383.0,278.0 383.8,278.0 384.6,278.0 385.5,278.0 386.3,278.0 387.1,278.0 387.9,278.0 388.7,278.0 389.5,278.0 390.3,278.0 391.2,278.0 392.0,278.0 392.8,278.0 393.6,278.0 394.4,278.0 395.2,278.0 396.0,278.0 396.8,278.0 397.6,278.0 398.5,278.0 L398.5,284.5 L37.5,284.5 Z" fill="url(#g542)" clip-path="url(#c544)"/>
  <path d="M37.5,278.0 37.5,278.0 70.8,278.0 90.3,278.0 104.1,278.0 114.8,278.0 123.6,278.0 131.0,278.0 137.4,278.0 143.1,278.0 148.1,278.0 152.7,278.0 156.9,278.0 160.7,278.0 164.3,278.0 167.6,278.0 170.7,278.0 173.6,344.1 176.3,344.1 178.9,278.0 181.4,278.0 183.7,278.0 186.0,278.0 188.1,278.0 190.2,278.0 192.1,278.0 194.0,278.0 195.8,278.0 197.6,278.0 199.2,278.0 200.9,278.0 202.4,278.0 204.0,278.0 205.5,278.0 206.9,278.0 208.3,278.0 209.6,278.0 210.9,278.0 212.2,278.0 213.5,344.1 214.7,344.1 215.9,278.0 217.0,278.0 218.2,278.0 219.3,278.0 220.3,278.0 221.4,278.0 222.4,278.0 223.4,278.0 224.4,278.0 225.4,278.0 226.4,278.0 227.3,278.0 228.2,278.0 229.1,278.0 230.0,278.0 230.8,278.0 231.7,278.0 232.5,278.0 233.4,278.0 234.2,344.1 235.7,278.0 237.3,278.0 238.7,278.0 240.2,278.0 241.6,278.0 242.9,278.0 244.2,278.0 245.5,278.0 246.8,278.0 248.0,278.0 249.2,344.1 250.3,278.0 251.4,278.0 252.6,278.0 253.6,278.0 254.7,278.0 255.7,278.0 256.7,278.0 257.7,278.0 258.7,278.0 259.6,344.1 260.6,278.0 261.5,278.0 262.4,278.0 263.3,278.0 264.1,278.0 265.0,278.0 265.8,278.0 266.6,278.0 267.4,278.0 268.6,344.1 269.8,278.0 270.9,278.0 272.0,278.0 273.1,278.0 274.2,278.0 275.2,278.0 276.2,278.0 277.2,278.0 278.2,278.0 279.1,278.0 280.0,278.0 281.0,278.0 281.9,278.0 282.7,278.0 283.6,278.0 284.5,278.0 285.3,278.0 286.1,278.0 286.9,278.0 288.0,344.1 289.0,278.0 290.0,278.0 291.0,278.0 292.0,278.0 292.9,344.1 293.9,278.0 294.8,278.0 295.7,278.0 296.6,278.0 297.4,344.1 298.3,278.0 299.1,278.0 299.9,278.0 300.7,278.0 301.7,344.1 302.7,278.0 303.6,278.0 304.6,278.0 305.5,344.1 306.4,278.0 307.3,278.0 308.1,278.0 309.0,278.0 309.8,278.0 310.6,278.0 311.4,278.0 312.4,344.1 313.3,278.0 314.2,278.0 315.1,278.0 316.0,278.0 316.9,278.0 317.7,278.0 318.6,278.0 319.4,344.1 320.2,278.0 321.1,278.0 322.0,278.0 322.9,278.0 323.8,278.0 324.7,278.0 325.5,278.0 326.3,278.0 327.1,278.0 327.9,278.0 328.8,278.0 329.7,278.0 330.6,278.0 331.4,278.0 332.3,278.0 333.1,278.0 333.9,278.0 334.8,278.0 335.7,278.0 336.5,278.0 337.4,278.0 338.2,278.0 339.0,278.0 339.8,278.0 340.7,278.0 341.6,278.0 342.4,278.0 343.3,278.0 344.1,278.0 344.9,278.0 345.8,278.0 346.6,278.0 347.5,278.0 348.3,278.0 349.1,278.0 350.0,278.0 350.8,278.0 351.7,278.0 352.5,278.0 353.3,278.0 354.1,278.0 355.0,278.0 355.8,278.0 356.6,278.0 357.5,278.0 358.3,278.0 359.1,278.0 360.0,278.0 360.8,278.0 361.6,278.0 362.5,278.0 363.3,278.0 364.1,278.0 364.9,278.0 365.8,278.0 366.6,278.0 367.4,278.0 368.2,278.0 369.1,278.0 369.9,278.0 370.7,278.0 371.6,278.0 372.4,278.0 373.2,278.0 374.0,278.0 374.8,278.0 375.6,278.0 376.5,278.0 377.3,278.0 378.1,278.0 378.9,278.0 379.7,278.0 380.5,278.0 381.4,278.0 382.2,278.0 383.0,278.0 383.8,278.0 384.6,278.0 385.5,278.0 386.3,278.0 387.1,278.0 387.9,278.0 388.7,278.0 389.5,278.0 390.3,278.0 391.2,278.0 392.0,278.0 392.8,278.0 393.6,278.0 394.4,278.0 395.2,278.0 396.0,278.0 396.8,278.0 397.6,278.0 398.5,278.0 L398.5,284.5 L37.5,284.5 Z" fill="url(#g543)" clip-path="url(#c545)"/>
  <defs><clipPath id="pc546"><rect x="34" y="207" width="365" height="155"/></clipPath></defs>
  <polyline points="37.5,278.0 70.8,278.0 90.3,278.0 104.1,278.0 114.8,278.0 123.6,278.0 131.0,278.0 137.4,278.0 143.1,278.0 148.1,278.0 152.7,278.0 156.9,278.0 160.7,278.0 164.3,278.0 167.6,278.0 170.7,278.0 173.6,344.1 176.3,344.1 178.9,278.0 181.4,278.0 183.7,278.0 186.0,278.0 188.1,278.0 190.2,278.0 192.1,278.0 194.0,278.0 195.8,278.0 197.6,278.0 199.2,278.0 200.9,278.0 202.4,278.0 204.0,278.0 205.5,278.0 206.9,278.0 208.3,278.0 209.6,278.0 210.9,278.0 212.2,278.0 213.5,344.1 214.7,344.1 215.9,278.0 217.0,278.0 218.2,278.0 219.3,278.0 220.3,278.0 221.4,278.0 222.4,278.0 223.4,278.0 224.4,278.0 225.4,278.0 226.4,278.0 227.3,278.0 228.2,278.0 229.1,278.0 230.0,278.0 230.8,278.0 231.7,278.0 232.5,278.0 233.4,278.0 234.2,344.1 235.7,278.0 237.3,278.0 238.7,278.0 240.2,278.0 241.6,278.0 242.9,278.0 244.2,278.0 245.5,278.0 246.8,278.0 248.0,278.0 249.2,344.1 250.3,278.0 251.4,278.0 252.6,278.0 253.6,278.0 254.7,278.0 255.7,278.0 256.7,278.0 257.7,278.0 258.7,278.0 259.6,344.1 260.6,278.0 261.5,278.0 262.4,278.0 263.3,278.0 264.1,278.0 265.0,278.0 265.8,278.0 266.6,278.0 267.4,278.0 268.6,344.1 269.8,278.0 270.9,278.0 272.0,278.0 273.1,278.0 274.2,278.0 275.2,278.0 276.2,278.0 277.2,278.0 278.2,278.0 279.1,278.0 280.0,278.0 281.0,278.0 281.9,278.0 282.7,278.0 283.6,278.0 284.5,278.0 285.3,278.0 286.1,278.0 286.9,278.0 288.0,344.1 289.0,278.0 290.0,278.0 291.0,278.0 292.0,278.0 292.9,344.1 293.9,278.0 294.8,278.0 295.7,278.0 296.6,278.0 297.4,344.1 298.3,278.0 299.1,278.0 299.9,278.0 300.7,278.0 301.7,344.1 302.7,278.0 303.6,278.0 304.6,278.0 305.5,344.1 306.4,278.0 307.3,278.0 308.1,278.0 309.0,278.0 309.8,278.0 310.6,278.0 311.4,278.0 312.4,344.1 313.3,278.0 314.2,278.0 315.1,278.0 316.0,278.0 316.9,278.0 317.7,278.0 318.6,278.0 319.4,344.1 320.2,278.0 321.1,278.0 322.0,278.0 322.9,278.0 323.8,278.0 324.7,278.0 325.5,278.0 326.3,278.0 327.1,278.0 327.9,278.0 328.8,278.0 329.7,278.0 330.6,278.0 331.4,278.0 332.3,278.0 333.1,278.0 333.9,278.0 334.8,278.0 335.7,278.0 336.5,278.0 337.4,278.0 338.2,278.0 339.0,278.0 339.8,278.0 340.7,278.0 341.6,278.0 342.4,278.0 343.3,278.0 344.1,278.0 344.9,278.0 345.8,278.0 346.6,278.0 347.5,278.0 348.3,278.0 349.1,278.0 350.0,278.0 350.8,278.0 351.7,278.0 352.5,278.0 353.3,278.0 354.1,278.0 355.0,278.0 355.8,278.0 356.6,278.0 357.5,278.0 358.3,278.0 359.1,278.0 360.0,278.0 360.8,278.0 361.6,278.0 362.5,278.0 363.3,278.0 364.1,278.0 364.9,278.0 365.8,278.0 366.6,278.0 367.4,278.0 368.2,278.0 369.1,278.0 369.9,278.0 370.7,278.0 371.6,278.0 372.4,278.0 373.2,278.0 374.0,278.0 374.8,278.0 375.6,278.0 376.5,278.0 377.3,278.0 378.1,278.0 378.9,278.0 379.7,278.0 380.5,278.0 381.4,278.0 382.2,278.0 383.0,278.0 383.8,278.0 384.6,278.0 385.5,278.0 386.3,278.0 387.1,278.0 387.9,278.0 388.7,278.0 389.5,278.0 390.3,278.0 391.2,278.0 392.0,278.0 392.8,278.0 393.6,278.0 394.4,278.0 395.2,278.0 396.0,278.0 396.8,278.0 397.6,278.0 398.5,278.0" fill="none" stroke="#2ecc71" stroke-width="1.5" stroke-linejoin="round" clip-path="url(#pc546)"/>
  <line x1="435" y1="207" x2="435" y2="362" stroke="#d1d5db"/>
  <line x1="435" y1="284.5" x2="800" y2="284.5" stroke="#d1d5db"/>
  <text x="617.5" y="388" text-anchor="middle" font-size="9" fill="#6b7280">Samples</text>
  <text x="413" y="284.5" text-anchor="middle" font-size="9" fill="#6b7280" transform="rotate(-90 413 284.5)">Impulse response</text>
  <line x1="435.0" y1="207" x2="435.0" y2="362" stroke="#e5e7eb" stroke-width="0.5"/>
  <text x="435.0" y="374" text-anchor="middle" font-size="8" fill="#6b7280">0</text>
  <line x1="562.1" y1="207" x2="562.1" y2="362" stroke="#e5e7eb" stroke-width="0.5"/>
  <text x="562.1" y="374" text-anchor="middle" font-size="8" fill="#6b7280">70</text>
  <line x1="689.2" y1="207" x2="689.2" y2="362" stroke="#e5e7eb" stroke-width="0.5"/>
  <text x="689.2" y="374" text-anchor="middle" font-size="8" fill="#6b7280">140</text>
  <line x1="435" y1="336.2" x2="800" y2="336.2" stroke="#e5e7eb" stroke-width="0.5"/>
  <text x="431" y="339.2" text-anchor="end" font-size="8" fill="#6b7280">-0.4</text>
  <text x="431" y="287.5" text-anchor="end" font-size="8" fill="#6b7280">0</text>
  <line x1="435" y1="232.8" x2="800" y2="232.8" stroke="#e5e7eb" stroke-width="0.5"/>
  <text x="431" y="235.8" text-anchor="end" font-size="8" fill="#6b7280">0.4</text>
  <defs><linearGradient id="g547" x1="0" y1="207" x2="0" y2="284.5" gradientUnits="userSpaceOnUse">
    <stop offset="0%" stop-color="#f39c12" stop-opacity="0.15"/>
    <stop offset="100%" stop-color="#f39c12" stop-opacity="0.02"/>
  </linearGradient></defs>
  <defs><linearGradient id="g548" x1="0" y1="362" x2="0" y2="284.5" gradientUnits="userSpaceOnUse">
    <stop offset="0%" stop-color="#f39c12" stop-opacity="0.15"/>
    <stop offset="100%" stop-color="#f39c12" stop-opacity="0.02"/>
  </linearGradient></defs>
  <defs><clipPath id="c549"><rect x="435" y="207" width="365" height="77.5"/></clipPath></defs>
  <defs><clipPath id="c550"><rect x="435" y="284.5" width="365" height="77.5"/></clipPath></defs>
  <path d="M435.0,284.5 435.0,284.5 436.8,284.5 438.6,284.5 440.4,284.5 442.3,284.5 444.1,284.5 445.9,284.5 447.7,284.5 449.5,284.5 451.3,284.5 453.2,284.5 455.0,284.5 456.8,284.5 458.6,284.5 460.4,284.5 462.2,284.5 464.1,284.5 465.9,284.5 467.7,284.5 469.5,284.5 471.3,284.5 473.1,284.5 475.0,284.5 476.8,284.5 478.6,284.5 480.4,284.5 482.2,284.5 484.0,284.5 485.8,284.5 487.7,284.5 489.5,284.5 491.3,284.5 493.1,284.5 494.9,284.5 496.7,284.5 498.6,284.5 500.4,284.5 502.2,284.5 504.0,284.5 505.8,284.5 507.6,284.5 509.5,284.5 511.3,284.5 513.1,284.5 514.9,284.5 516.7,284.5 518.5,284.5 520.3,284.5 522.2,284.5 524.0,284.5 525.8,284.5 527.6,284.5 529.4,284.5 531.2,284.5 533.1,284.5 534.9,284.4 536.7,284.5 538.5,284.5 540.3,284.5 542.1,284.5 544.0,284.5 545.8,284.5 547.6,284.6 549.4,284.5 551.2,284.5 553.0,284.3 554.9,284.5 556.7,284.5 558.5,284.6 560.3,284.5 562.1,284.5 563.9,284.5 565.7,284.6 567.6,284.4 569.4,284.6 571.2,284.1 573.0,284.6 574.8,284.4 576.6,284.7 578.5,284.5 580.3,284.5 582.1,284.6 583.9,284.8 585.7,284.3 587.5,284.7 589.4,283.4 591.2,284.7 593.0,284.2 594.8,285.3 596.6,284.7 598.4,284.5 600.2,284.7 602.1,286.3 603.9,283.4 605.7,285.7 607.5,274.1 609.3,287.3 611.1,278.6 613.0,314.1 614.8,304.7 616.6,207.0 618.4,304.7 620.2,314.1 622.0,278.6 623.9,287.3 625.7,274.1 627.5,285.7 629.3,283.4 631.1,286.3 632.9,284.7 634.8,284.5 636.6,284.7 638.4,285.3 640.2,284.2 642.0,284.7 643.8,283.4 645.6,284.7 647.5,284.3 649.3,284.8 651.1,284.6 652.9,284.5 654.7,284.5 656.5,284.7 658.4,284.4 660.2,284.6 662.0,284.1 663.8,284.6 665.6,284.4 667.4,284.6 669.3,284.5 671.1,284.5 672.9,284.5 674.7,284.6 676.5,284.5 678.3,284.5 680.1,284.3 682.0,284.5 683.8,284.5 685.6,284.6 687.4,284.5 689.2,284.5 691.0,284.5 692.9,284.5 694.7,284.5 696.5,284.5 698.3,284.4 700.1,284.5 701.9,284.5 703.8,284.5 705.6,284.5 707.4,284.5 709.2,284.5 711.0,284.5 712.8,284.5 714.7,284.5 716.5,284.5 718.3,284.5 720.1,284.5 721.9,284.5 723.7,284.5 725.5,284.5 727.4,284.5 729.2,284.5 731.0,284.5 732.8,284.5 734.6,284.5 736.4,284.5 738.3,284.5 740.1,284.5 741.9,284.5 743.7,284.5 745.5,284.5 747.3,284.5 749.2,284.5 751.0,284.5 752.8,284.5 754.6,284.5 756.4,284.5 758.2,284.5 760.0,284.5 761.9,284.5 763.7,284.5 765.5,284.5 767.3,284.5 769.1,284.5 770.9,284.5 772.8,284.5 774.6,284.5 776.4,284.5 778.2,284.5 780.0,284.5 781.8,284.5 783.7,284.5 785.5,284.5 787.3,284.5 789.1,284.5 790.9,284.5 792.7,284.5 794.6,284.5 796.4,284.5 798.2,284.5 L798.2,284.5 L435.0,284.5 Z" fill="url(#g547)" clip-path="url(#c549)"/>
  <path d="M435.0,284.5 435.0,284.5 436.8,284.5 438.6,284.5 440.4,284.5 442.3,284.5 444.1,284.5 445.9,284.5 447.7,284.5 449.5,284.5 451.3,284.5 453.2,284.5 455.0,284.5 456.8,284.5 458.6,284.5 460.4,284.5 462.2,284.5 464.1,284.5 465.9,284.5 467.7,284.5 469.5,284.5 471.3,284.5 473.1,284.5 475.0,284.5 476.8,284.5 478.6,284.5 480.4,284.5 482.2,284.5 484.0,284.5 485.8,284.5 487.7,284.5 489.5,284.5 491.3,284.5 493.1,284.5 494.9,284.5 496.7,284.5 498.6,284.5 500.4,284.5 502.2,284.5 504.0,284.5 505.8,284.5 507.6,284.5 509.5,284.5 511.3,284.5 513.1,284.5 514.9,284.5 516.7,284.5 518.5,284.5 520.3,284.5 522.2,284.5 524.0,284.5 525.8,284.5 527.6,284.5 529.4,284.5 531.2,284.5 533.1,284.5 534.9,284.4 536.7,284.5 538.5,284.5 540.3,284.5 542.1,284.5 544.0,284.5 545.8,284.5 547.6,284.6 549.4,284.5 551.2,284.5 553.0,284.3 554.9,284.5 556.7,284.5 558.5,284.6 560.3,284.5 562.1,284.5 563.9,284.5 565.7,284.6 567.6,284.4 569.4,284.6 571.2,284.1 573.0,284.6 574.8,284.4 576.6,284.7 578.5,284.5 580.3,284.5 582.1,284.6 583.9,284.8 585.7,284.3 587.5,284.7 589.4,283.4 591.2,284.7 593.0,284.2 594.8,285.3 596.6,284.7 598.4,284.5 600.2,284.7 602.1,286.3 603.9,283.4 605.7,285.7 607.5,274.1 609.3,287.3 611.1,278.6 613.0,314.1 614.8,304.7 616.6,207.0 618.4,304.7 620.2,314.1 622.0,278.6 623.9,287.3 625.7,274.1 627.5,285.7 629.3,283.4 631.1,286.3 632.9,284.7 634.8,284.5 636.6,284.7 638.4,285.3 640.2,284.2 642.0,284.7 643.8,283.4 645.6,284.7 647.5,284.3 649.3,284.8 651.1,284.6 652.9,284.5 654.7,284.5 656.5,284.7 658.4,284.4 660.2,284.6 662.0,284.1 663.8,284.6 665.6,284.4 667.4,284.6 669.3,284.5 671.1,284.5 672.9,284.5 674.7,284.6 676.5,284.5 678.3,284.5 680.1,284.3 682.0,284.5 683.8,284.5 685.6,284.6 687.4,284.5 689.2,284.5 691.0,284.5 692.9,284.5 694.7,284.5 696.5,284.5 698.3,284.4 700.1,284.5 701.9,284.5 703.8,284.5 705.6,284.5 707.4,284.5 709.2,284.5 711.0,284.5 712.8,284.5 714.7,284.5 716.5,284.5 718.3,284.5 720.1,284.5 721.9,284.5 723.7,284.5 725.5,284.5 727.4,284.5 729.2,284.5 731.0,284.5 732.8,284.5 734.6,284.5 736.4,284.5 738.3,284.5 740.1,284.5 741.9,284.5 743.7,284.5 745.5,284.5 747.3,284.5 749.2,284.5 751.0,284.5 752.8,284.5 754.6,284.5 756.4,284.5 758.2,284.5 760.0,284.5 761.9,284.5 763.7,284.5 765.5,284.5 767.3,284.5 769.1,284.5 770.9,284.5 772.8,284.5 774.6,284.5 776.4,284.5 778.2,284.5 780.0,284.5 781.8,284.5 783.7,284.5 785.5,284.5 787.3,284.5 789.1,284.5 790.9,284.5 792.7,284.5 794.6,284.5 796.4,284.5 798.2,284.5 L798.2,284.5 L435.0,284.5 Z" fill="url(#g548)" clip-path="url(#c550)"/>
  <defs><clipPath id="pc551"><rect x="435" y="207" width="365" height="155"/></clipPath></defs>
  <polyline points="435.0,284.5 436.8,284.5 438.6,284.5 440.4,284.5 442.3,284.5 444.1,284.5 445.9,284.5 447.7,284.5 449.5,284.5 451.3,284.5 453.2,284.5 455.0,284.5 456.8,284.5 458.6,284.5 460.4,284.5 462.2,284.5 464.1,284.5 465.9,284.5 467.7,284.5 469.5,284.5 471.3,284.5 473.1,284.5 475.0,284.5 476.8,284.5 478.6,284.5 480.4,284.5 482.2,284.5 484.0,284.5 485.8,284.5 487.7,284.5 489.5,284.5 491.3,284.5 493.1,284.5 494.9,284.5 496.7,284.5 498.6,284.5 500.4,284.5 502.2,284.5 504.0,284.5 505.8,284.5 507.6,284.5 509.5,284.5 511.3,284.5 513.1,284.5 514.9,284.5 516.7,284.5 518.5,284.5 520.3,284.5 522.2,284.5 524.0,284.5 525.8,284.5 527.6,284.5 529.4,284.5 531.2,284.5 533.1,284.5 534.9,284.4 536.7,284.5 538.5,284.5 540.3,284.5 542.1,284.5 544.0,284.5 545.8,284.5 547.6,284.6 549.4,284.5 551.2,284.5 553.0,284.3 554.9,284.5 556.7,284.5 558.5,284.6 560.3,284.5 562.1,284.5 563.9,284.5 565.7,284.6 567.6,284.4 569.4,284.6 571.2,284.1 573.0,284.6 574.8,284.4 576.6,284.7 578.5,284.5 580.3,284.5 582.1,284.6 583.9,284.8 585.7,284.3 587.5,284.7 589.4,283.4 591.2,284.7 593.0,284.2 594.8,285.3 596.6,284.7 598.4,284.5 600.2,284.7 602.1,286.3 603.9,283.4 605.7,285.7 607.5,274.1 609.3,287.3 611.1,278.6 613.0,314.1 614.8,304.7 616.6,207.0 618.4,304.7 620.2,314.1 622.0,278.6 623.9,287.3 625.7,274.1 627.5,285.7 629.3,283.4 631.1,286.3 632.9,284.7 634.8,284.5 636.6,284.7 638.4,285.3 640.2,284.2 642.0,284.7 643.8,283.4 645.6,284.7 647.5,284.3 649.3,284.8 651.1,284.6 652.9,284.5 654.7,284.5 656.5,284.7 658.4,284.4 660.2,284.6 662.0,284.1 663.8,284.6 665.6,284.4 667.4,284.6 669.3,284.5 671.1,284.5 672.9,284.5 674.7,284.6 676.5,284.5 678.3,284.5 680.1,284.3 682.0,284.5 683.8,284.5 685.6,284.6 687.4,284.5 689.2,284.5 691.0,284.5 692.9,284.5 694.7,284.5 696.5,284.5 698.3,284.4 700.1,284.5 701.9,284.5 703.8,284.5 705.6,284.5 707.4,284.5 709.2,284.5 711.0,284.5 712.8,284.5 714.7,284.5 716.5,284.5 718.3,284.5 720.1,284.5 721.9,284.5 723.7,284.5 725.5,284.5 727.4,284.5 729.2,284.5 731.0,284.5 732.8,284.5 734.6,284.5 736.4,284.5 738.3,284.5 740.1,284.5 741.9,284.5 743.7,284.5 745.5,284.5 747.3,284.5 749.2,284.5 751.0,284.5 752.8,284.5 754.6,284.5 756.4,284.5 758.2,284.5 760.0,284.5 761.9,284.5 763.7,284.5 765.5,284.5 767.3,284.5 769.1,284.5 770.9,284.5 772.8,284.5 774.6,284.5 776.4,284.5 778.2,284.5 780.0,284.5 781.8,284.5 783.7,284.5 785.5,284.5 787.3,284.5 789.1,284.5 790.9,284.5 792.7,284.5 794.6,284.5 796.4,284.5 798.2,284.5" fill="none" stroke="#f39c12" stroke-width="1.3" stroke-linejoin="round" clip-path="url(#pc551)"/>
</svg>
