<svg xmlns="http://www.w3.org/2000/svg" viewBox="0 0 820 392" style="font-family:system-ui,-apple-system,sans-serif">
  <text x="800" y="11" text-anchor="end" font-size="11" font-weight="600" fill="#6b7280">Gaussian IIR, σ=5</text>
  <line x1="34" y1="16" x2="34" y2="171" stroke="#d1d5db"/>
  <line x1="34" y1="47.0" x2="392" y2="47.0" stroke="#d1d5db"/>
  <text x="213" y="197" text-anchor="middle" font-size="9" fill="#6b7280">Hz</text>
  <text x="12" y="93.5" text-anchor="middle" font-size="9" fill="#6b7280" transform="rotate(-90 12 93.5)">dB</text>
  <line x1="66.6" y1="16" x2="66.6" y2="171" stroke="#e5e7eb" stroke-width="0.5"/>
  <line x1="85.7" y1="16" x2="85.7" y2="171" stroke="#e5e7eb" stroke-width="0.5"/>
  <line x1="99.3" y1="16" x2="99.3" y2="171" stroke="#e5e7eb" stroke-width="0.5"/>
  <line x1="109.8" y1="16" x2="109.8" y2="171" stroke="#e5e7eb" stroke-width="0.5"/>
  <line x1="118.4" y1="16" x2="118.4" y2="171" stroke="#e5e7eb" stroke-width="0.5"/>
  <line x1="125.7" y1="16" x2="125.7" y2="171" stroke="#e5e7eb" stroke-width="0.5"/>
  <line x1="131.9" y1="16" x2="131.9" y2="171" stroke="#e5e7eb" stroke-width="0.5"/>
  <line x1="137.5" y1="16" x2="137.5" y2="171" stroke="#e5e7eb" stroke-width="0.5"/>
  <line x1="175.1" y1="16" x2="175.1" y2="171" stroke="#e5e7eb" stroke-width="0.5"/>
  <line x1="194.2" y1="16" x2="194.2" y2="171" stroke="#e5e7eb" stroke-width="0.5"/>
  <line x1="207.7" y1="16" x2="207.7" y2="171" stroke="#e5e7eb" stroke-width="0.5"/>
  <line x1="218.3" y1="16" x2="218.3" y2="171" stroke="#e5e7eb" stroke-width="0.5"/>
  <line x1="226.8" y1="16" x2="226.8" y2="171" stroke="#e5e7eb" stroke-width="0.5"/>
  <line x1="234.1" y1="16" x2="234.1" y2="171" stroke="#e5e7eb" stroke-width="0.5"/>
  <line x1="240.4" y1="16" x2="240.4" y2="171" stroke="#e5e7eb" stroke-width="0.5"/>
  <line x1="245.9" y1="16" x2="245.9" y2="171" stroke="#e5e7eb" stroke-width="0.5"/>
  <line x1="283.5" y1="16" x2="283.5" y2="171" stroke="#e5e7eb" stroke-width="0.5"/>
  <line x1="302.6" y1="16" x2="302.6" y2="171" stroke="#e5e7eb" stroke-width="0.5"/>
  <line x1="316.2" y1="16" x2="316.2" y2="171" stroke="#e5e7eb" stroke-width="0.5"/>
  <line x1="326.7" y1="16" x2="326.7" y2="171" stroke="#e5e7eb" stroke-width="0.5"/>
  <line x1="335.3" y1="16" x2="335.3" y2="171" stroke="#e5e7eb" stroke-width="0.5"/>
  <line x1="342.6" y1="16" x2="342.6" y2="171" stroke="#e5e7eb" stroke-width="0.5"/>
  <line x1="348.8" y1="16" x2="348.8" y2="171" stroke="#e5e7eb" stroke-width="0.5"/>
  <line x1="354.4" y1="16" x2="354.4" y2="171" stroke="#e5e7eb" stroke-width="0.5"/>
  <line x1="392.0" y1="16" x2="392.0" y2="171" stroke="#e5e7eb" stroke-width="0.5"/>
  <line x1="142.5" y1="16" x2="142.5" y2="171" stroke="#e5e7eb" stroke-width="0.5"/>
  <text x="142.5" y="183" text-anchor="middle" font-size="8" fill="#6b7280">100</text>
  <line x1="250.9" y1="16" x2="250.9" y2="171" stroke="#e5e7eb" stroke-width="0.5"/>
  <text x="250.9" y="183" text-anchor="middle" font-size="8" fill="#6b7280">1k</text>
  <line x1="359.4" y1="16" x2="359.4" y2="171" stroke="#e5e7eb" stroke-width="0.5"/>
  <text x="359.4" y="183" text-anchor="middle" font-size="8" fill="#6b7280">10k</text>
  <line x1="34" y1="31.5" x2="392" y2="31.5" stroke="#e5e7eb" stroke-width="0.5"/>
  <line x1="34" y1="62.5" x2="392" y2="62.5" stroke="#e5e7eb" stroke-width="0.5"/>
  <line x1="34" y1="16.0" x2="392" y2="16.0" stroke="#e5e7eb" stroke-width="0.5"/>
  <text x="30" y="19.0" text-anchor="end" font-size="8" fill="#6b7280">+20</text>
  <text x="30" y="50.0" text-anchor="end" font-size="8" fill="#6b7280">0</text>
  <line x1="34" y1="78.0" x2="392" y2="78.0" stroke="#e5e7eb" stroke-width="0.5"/>
  <text x="30" y="81.0" text-anchor="end" font-size="8" fill="#6b7280">-20</text>
  <line x1="34" y1="109.0" x2="392" y2="109.0" stroke="#e5e7eb" stroke-width="0.5"/>
  <text x="30" y="112.0" text-anchor="end" font-size="8" fill="#6b7280">-40</text>
  <line x1="34" y1="140.0" x2="392" y2="140.0" stroke="#e5e7eb" stroke-width="0.5"/>
  <text x="30" y="143.0" text-anchor="end" font-size="8" fill="#6b7280">-60</text>
  <line x1="34" y1="171.0" x2="392" y2="171.0" stroke="#e5e7eb" stroke-width="0.5"/>
  <text x="30" y="174.0" text-anchor="end" font-size="8" fill="#6b7280">-80</text>
  <defs><linearGradient id="g555" x1="0" y1="16" x2="0" y2="171" gradientUnits="userSpaceOnUse">
    <stop offset="0%" stop-color="#4a90d9" stop-opacity="0.15"/>
    <stop offset="100%" stop-color="#4a90d9" stop-opacity="0.02"/>
  </linearGradient></defs>
  <path d="M37.5,16.0 37.5,16.0 70.1,16.0 89.2,16.0 102.8,16.0 113.3,16.0 121.9,16.0 129.1,16.0 135.4,16.0 141.0,16.0 145.9,16.0 150.4,16.0 154.5,16.0 158.3,16.0 161.8,16.0 165.0,16.0 168.1,16.0 170.9,16.0 173.6,16.0 176.2,16.0 178.6,16.0 180.9,16.0 183.1,16.0 185.2,16.0 187.2,16.0 189.1,16.0 190.9,16.0 192.7,16.0 194.4,16.0 196.1,16.0 197.7,16.0 199.2,16.0 200.7,16.0 202.2,16.0 203.6,16.0 204.9,16.0 206.3,16.0 207.6,16.0 208.8,16.0 210.0,16.0 211.2,16.0 212.4,16.0 213.5,16.0 214.6,16.0 215.7,16.0 216.8,16.0 217.8,16.0 218.8,16.0 219.8,16.0 220.8,16.0 221.7,16.0 222.7,16.0 223.6,16.0 224.5,16.0 225.4,16.0 226.2,16.0 227.1,16.0 227.9,16.0 228.7,16.0 229.5,16.0 231.1,16.0 232.6,16.0 234.1,16.0 235.5,16.0 236.9,16.0 238.2,16.0 239.6,16.0 240.8,16.0 242.1,16.0 243.3,16.0 244.5,16.0 245.6,16.0 246.7,16.0 247.8,16.0 248.9,16.0 249.9,16.0 251.0,16.0 252.0,16.0 252.9,16.0 253.9,16.0 254.8,16.0 255.8,16.0 256.7,16.0 257.6,16.0 258.4,16.0 259.3,16.0 260.1,16.0 261.0,16.0 261.8,16.1 263.0,16.2 264.1,16.4 265.3,16.6 266.4,16.7 267.5,16.9 268.5,17.1 269.6,17.2 270.6,17.4 271.6,17.6 272.5,17.8 273.5,18.0 274.4,18.2 275.3,18.4 276.2,18.6 277.1,18.8 278.0,19.0 278.8,19.2 279.6,19.4 280.5,19.6 281.3,19.8 282.3,20.1 283.4,20.4 284.4,20.7 285.3,21.0 286.3,21.3 287.3,21.6 288.2,21.9 289.1,22.2 290.0,22.6 290.9,22.9 291.7,23.2 292.6,23.5 293.4,23.9 294.2,24.2 295.0,24.5 296.0,25.0 297.0,25.4 297.9,25.8 298.8,26.2 299.7,26.7 300.6,27.1 301.5,27.5 302.4,27.9 303.2,28.4 304.0,28.8 304.9,29.2 305.8,29.7 306.7,30.2 307.7,30.7 308.6,31.2 309.5,31.6 310.3,32.1 311.2,32.6 312.0,33.0 312.8,33.5 313.7,33.9 314.6,34.4 315.5,34.9 316.4,35.4 317.3,35.8 318.1,36.3 319.0,36.7 319.8,37.1 320.6,37.5 321.4,37.9 322.3,38.4 323.2,38.8 324.1,39.2 324.9,39.6 325.7,40.0 326.6,40.3 327.4,40.7 328.3,41.1 329.1,41.4 330.0,41.8 330.8,42.1 331.7,42.4 332.5,42.7 333.3,43.0 334.2,43.3 335.0,43.6 335.9,43.9 336.7,44.2 337.5,44.5 338.4,44.8 339.2,45.0 340.1,45.3 340.9,45.5 341.7,45.8 342.5,46.0 343.4,46.3 344.2,46.5 345.1,46.7 345.9,47.0 346.7,47.2 347.6,47.4 348.4,47.6 349.2,47.8 350.0,48.0 350.9,48.2 351.7,48.4 352.6,48.6 353.4,48.8 354.2,49.0 355.1,49.2 355.9,49.4 356.7,49.6 357.6,49.8 358.4,50.0 359.2,50.2 360.0,50.4 360.9,50.5 361.7,50.7 362.5,50.9 363.3,51.1 364.2,51.3 365.0,51.4 365.8,51.6 366.6,51.8 367.4,51.9 368.3,52.1 369.1,52.2 369.9,52.4 370.7,52.6 371.5,52.7 372.4,52.9 373.2,53.0 374.0,53.1 374.8,53.3 375.6,53.4 376.4,53.6 377.2,53.7 378.1,53.8 378.9,54.0 379.7,54.1 380.5,54.2 381.3,54.3 382.1,54.4 383.0,54.5 383.8,54.6 384.6,54.7 385.4,54.8 386.2,54.9 387.0,55.0 387.9,55.1 388.7,55.2 389.5,55.2 390.3,55.3 391.1,55.4 391.9,55.4 L391.9,171.0 L37.5,171.0 Z" fill="url(#g555)"/>
  <defs><clipPath id="pc556"><rect x="34" y="16" width="358" height="155"/></clipPath></defs>
  <polyline points="37.5,12.8 70.1,12.8 89.2,12.8 102.8,12.8 113.3,12.8 121.9,12.8 129.1,12.8 135.4,12.8 141.0,12.8 145.9,12.8 150.4,12.9 154.5,12.9 158.3,12.9 161.8,12.9 165.0,12.9 168.1,12.9 170.9,12.9 173.6,12.9 176.2,12.9 178.6,12.9 180.9,12.9 183.1,12.9 185.2,13.0 187.2,13.0 189.1,13.0 190.9,13.0 192.7,13.0 194.4,13.0 196.1,13.0 197.7,13.1 199.2,13.1 200.7,13.1 202.2,13.1 203.6,13.1 204.9,13.1 206.3,13.2 207.6,13.2 208.8,13.2 210.0,13.2 211.2,13.2 212.4,13.3 213.5,13.3 214.6,13.3 215.7,13.3 216.8,13.3 217.8,13.4 218.8,13.4 219.8,13.4 220.8,13.4 221.7,13.5 222.7,13.5 223.6,13.5 224.5,13.5 225.4,13.6 226.2,13.6 227.1,13.6 227.9,13.6 228.7,13.7 229.5,13.7 231.1,13.8 232.6,13.8 234.1,13.9 235.5,14.0 236.9,14.0 238.2,14.1 239.6,14.2 240.8,14.2 242.1,14.3 243.3,14.4 244.5,14.4 245.6,14.5 246.7,14.6 247.8,14.7 248.9,14.8 249.9,14.9 251.0,14.9 252.0,15.0 252.9,15.1 253.9,15.2 254.8,15.3 255.8,15.4 256.7,15.5 257.6,15.6 258.4,15.7 259.3,15.8 260.1,15.9 261.0,16.0 261.8,16.1 263.0,16.2 264.1,16.4 265.3,16.6 266.4,16.7 267.5,16.9 268.5,17.1 269.6,17.2 270.6,17.4 271.6,17.6 272.5,17.8 273.5,18.0 274.4,18.2 275.3,18.4 276.2,18.6 277.1,18.8 278.0,19.0 278.8,19.2 279.6,19.4 280.5,19.6 281.3,19.8 282.3,20.1 283.4,20.4 284.4,20.7 285.3,21.0 286.3,21.3 287.3,21.6 288.2,21.9 289.1,22.2 290.0,22.6 290.9,22.9 291.7,23.2 292.6,23.5 293.4,23.9 294.2,24.2 295.0,24.5 296.0,25.0 297.0,25.4 297.9,25.8 298.8,26.2 299.7,26.7 300.6,27.1 301.5,27.5 302.4,27.9 303.2,28.4 304.0,28.8 304.9,29.2 305.8,29.7 306.7,30.2 307.7,30.7 308.6,31.2 309.5,31.6 310.3,32.1 311.2,32.6 312.0,33.0 312.8,33.5 313.7,33.9 314.6,34.4 315.5,34.9 316.4,35.4 317.3,35.8 318.1,36.3 319.0,36.7 319.8,37.1 320.6,37.5 321.4,37.9 322.3,38.4 323.2,38.8 324.1,39.2 324.9,39.6 325.7,40.0 326.6,40.3 327.4,40.7 328.3,41.1 329.1,41.4 330.0,41.8 330.8,42.1 331.7,42.4 332.5,42.7 333.3,43.0 334.2,43.3 335.0,43.6 335.9,43.9 336.7,44.2 337.5,44.5 338.4,44.8 339.2,45.0 340.1,45.3 340.9,45.5 341.7,45.8 342.5,46.0 343.4,46.3 344.2,46.5 345.1,46.7 345.9,47.0 346.7,47.2 347.6,47.4 348.4,47.6 349.2,47.8 350.0,48.0 350.9,48.2 351.7,48.4 352.6,48.6 353.4,48.8 354.2,49.0 355.1,49.2 355.9,49.4 356.7,49.6 357.6,49.8 358.4,50.0 359.2,50.2 360.0,50.4 360.9,50.5 361.7,50.7 362.5,50.9 363.3,51.1 364.2,51.3 365.0,51.4 365.8,51.6 366.6,51.8 367.4,51.9 368.3,52.1 369.1,52.2 369.9,52.4 370.7,52.6 371.5,52.7 372.4,52.9 373.2,53.0 374.0,53.1 374.8,53.3 375.6,53.4 376.4,53.6 377.2,53.7 378.1,53.8 378.9,54.0 379.7,54.1 380.5,54.2 381.3,54.3 382.1,54.4 383.0,54.5 383.8,54.6 384.6,54.7 385.4,54.8 386.2,54.9 387.0,55.0 387.9,55.1 388.7,55.2 389.5,55.2 390.3,55.3 391.1,55.4 391.9,55.4" fill="none" stroke="#4a90d9" stroke-width="1.5" stroke-linejoin="round" clip-path="url(#pc556)"/>
  <line x1="442" y1="16" x2="442" y2="171" stroke="#d1d5db"/>
  <line x1="442" y1="93.5" x2="800" y2="93.5" stroke="#d1d5db"/>
  <text x="621" y="197" text-anchor="middle" font-size="9" fill="#6b7280">Hz</text>
  <text x="420" y="93.5" text-anchor="middle" font-size="9" fill="#6b7280" transform="rotate(-90 420 93.5)">Phase (deg)</text>
  <line x1="474.6" y1="16" x2="474.6" y2="171" stroke="#e5e7eb" stroke-width="0.5"/>
  <line x1="493.7" y1="16" x2="493.7" y2="171" stroke="#e5e7eb" stroke-width="0.5"/>
  <line x1="507.3" y1="16" x2="507.3" y2="171" stroke="#e5e7eb" stroke-width="0.5"/>
  <line x1="517.8" y1="16" x2="517.8" y2="171" stroke="#e5e7eb" stroke-width="0.5"/>
  <line x1="526.4" y1="16" x2="526.4" y2="171" stroke="#e5e7eb" stroke-width="0.5"/>
  <line x1="533.7" y1="16" x2="533.7" y2="171" stroke="#e5e7eb" stroke-width="0.5"/>
  <line x1="539.9" y1="16" x2="539.9" y2="171" stroke="#e5e7eb" stroke-width="0.5"/>
  <line x1="545.5" y1="16" x2="545.5" y2="171" stroke="#e5e7eb" stroke-width="0.5"/>
  <line x1="583.1" y1="16" x2="583.1" y2="171" stroke="#e5e7eb" stroke-width="0.5"/>
  <line x1="602.2" y1="16" x2="602.2" y2="171" stroke="#e5e7eb" stroke-width="0.5"/>
  <line x1="615.7" y1="16" x2="615.7" y2="171" stroke="#e5e7eb" stroke-width="0.5"/>
  <line x1="626.3" y1="16" x2="626.3" y2="171" stroke="#e5e7eb" stroke-width="0.5"/>
  <line x1="634.8" y1="16" x2="634.8" y2="171" stroke="#e5e7eb" stroke-width="0.5"/>
  <line x1="642.1" y1="16" x2="642.1" y2="171" stroke="#e5e7eb" stroke-width="0.5"/>
  <line x1="648.4" y1="16" x2="648.4" y2="171" stroke="#e5e7eb" stroke-width="0.5"/>
  <line x1="653.9" y1="16" x2="653.9" y2="171" stroke="#e5e7eb" stroke-width="0.5"/>
  <line x1="691.5" y1="16" x2="691.5" y2="171" stroke="#e5e7eb" stroke-width="0.5"/>
  <line x1="710.6" y1="16" x2="710.6" y2="171" stroke="#e5e7eb" stroke-width="0.5"/>
  <line x1="724.2" y1="16" x2="724.2" y2="171" stroke="#e5e7eb" stroke-width="0.5"/>
  <line x1="734.7" y1="16" x2="734.7" y2="171" stroke="#e5e7eb" stroke-width="0.5"/>
  <line x1="743.3" y1="16" x2="743.3" y2="171" stroke="#e5e7eb" stroke-width="0.5"/>
  <line x1="750.6" y1="16" x2="750.6" y2="171" stroke="#e5e7eb" stroke-width="0.5"/>
  <line x1="756.8" y1="16" x2="756.8" y2="171" stroke="#e5e7eb" stroke-width="0.5"/>
  <line x1="762.4" y1="16" x2="762.4" y2="171" stroke="#e5e7eb" stroke-width="0.5"/>
  <line x1="800.0" y1="16" x2="800.0" y2="171" stroke="#e5e7eb" stroke-width="0.5"/>
  <line x1="550.5" y1="16" x2="550.5" y2="171" stroke="#e5e7eb" stroke-width="0.5"/>
  <text x="550.5" y="183" text-anchor="middle" font-size="8" fill="#6b7280">100</text>
  <line x1="658.9" y1="16" x2="658.9" y2="171" stroke="#e5e7eb" stroke-width="0.5"/>
  <text x="658.9" y="183" text-anchor="middle" font-size="8" fill="#6b7280">1k</text>
  <line x1="767.4" y1="16" x2="767.4" y2="171" stroke="#e5e7eb" stroke-width="0.5"/>
  <text x="767.4" y="183" text-anchor="middle" font-size="8" fill="#6b7280">10k</text>
  <line x1="442" y1="54.8" x2="800" y2="54.8" stroke="#e5e7eb" stroke-width="0.5"/>
  <line x1="442" y1="132.3" x2="800" y2="132.3" stroke="#e5e7eb" stroke-width="0.5"/>
  <line x1="442" y1="16.0" x2="800" y2="16.0" stroke="#e5e7eb" stroke-width="0.5"/>
  <text x="438" y="19.0" text-anchor="end" font-size="8" fill="#6b7280">180</text>
  <text x="438" y="96.5" text-anchor="end" font-size="8" fill="#6b7280">0</text>
  <line x1="442" y1="171.0" x2="800" y2="171.0" stroke="#e5e7eb" stroke-width="0.5"/>
  <text x="438" y="174.0" text-anchor="end" font-size="8" fill="#6b7280">-180</text>
  <defs><linearGradient id="g557" x1="0" y1="171" x2="0" y2="93.5" gradientUnits="userSpaceOnUse">
    <stop offset="0%" stop-color="#e74c3c" stop-opacity="0.15"/>
    <stop offset="100%" stop-color="#e74c3c" stop-opacity="0.02"/>
  </linearGradient></defs>
  <path d="M445.5,93.7 445.5,93.7 478.1,93.9 497.2,94.1 510.8,94.3 521.3,94.5 529.9,94.7 537.1,94.9 543.4,95.1 549.0,95.3 553.9,95.5 558.4,95.7 562.5,95.9 566.3,96.1 569.8,96.3 573.0,96.5 576.1,96.7 578.9,96.9 581.6,97.1 584.2,97.3 586.6,97.5 588.9,97.7 591.1,97.9 593.2,98.1 595.2,98.3 597.1,98.5 598.9,98.6 600.7,98.8 602.4,99.0 604.1,99.2 605.7,99.4 607.2,99.6 608.7,99.8 610.2,100.0 611.6,100.2 612.9,100.4 614.3,100.6 615.6,100.8 616.8,101.0 618.0,101.2 619.2,101.4 620.4,101.6 621.5,101.8 622.6,102.0 623.7,102.1 624.8,102.3 625.8,102.5 626.8,102.7 627.8,102.9 628.8,103.1 629.7,103.3 630.7,103.5 631.6,103.7 632.5,103.9 633.4,104.1 634.2,104.2 635.1,104.4 635.9,104.6 636.7,104.8 637.5,105.0 639.1,105.4 640.6,105.7 642.1,106.1 643.5,106.5 644.9,106.8 646.2,107.2 647.6,107.6 648.8,107.9 650.1,108.3 651.3,108.7 652.5,109.0 653.6,109.4 654.7,109.7 655.8,110.1 656.9,110.4 657.9,110.8 659.0,111.1 660.0,111.5 660.9,111.8 661.9,112.2 662.8,112.5 663.8,112.9 664.7,113.2 665.6,113.5 666.4,113.9 667.3,114.2 668.1,114.5 669.0,114.9 669.8,115.2 671.0,115.7 672.1,116.2 673.3,116.6 674.4,117.1 675.5,117.6 676.5,118.0 677.6,118.5 678.6,119.0 679.6,119.4 680.5,119.9 681.5,120.3 682.4,120.7 683.3,121.2 684.2,121.6 685.1,122.0 686.0,122.4 686.8,122.8 687.6,123.2 688.5,123.6 689.3,124.0 690.3,124.5 691.4,125.0 692.4,125.5 693.3,126.0 694.3,126.4 695.3,126.9 696.2,127.3 697.1,127.8 698.0,128.2 698.9,128.6 699.7,128.9 700.6,129.3 701.4,129.7 702.2,130.0 703.0,130.3 704.0,130.7 705.0,131.1 705.9,131.4 706.8,131.7 707.7,132.0 708.6,132.3 709.5,132.5 710.4,132.8 711.2,133.0 712.0,133.2 712.9,133.3 713.8,133.5 714.7,133.6 715.7,133.7 716.6,133.8 717.5,133.9 718.3,133.9 719.2,134.0 720.0,133.9 720.8,133.9 721.7,133.9 722.6,133.8 723.5,133.7 724.4,133.6 725.3,133.4 726.1,133.3 727.0,133.1 727.8,132.9 728.6,132.7 729.4,132.5 730.3,132.2 731.2,131.9 732.1,131.7 732.9,131.4 733.7,131.1 734.6,130.8 735.4,130.5 736.3,130.1 737.1,129.8 738.0,129.4 738.8,129.1 739.7,128.7 740.5,128.3 741.3,128.0 742.2,127.6 743.0,127.2 743.9,126.9 744.7,126.5 745.5,126.1 746.4,125.7 747.2,125.3 748.1,124.9 748.9,124.6 749.7,124.2 750.5,123.8 751.4,123.4 752.2,123.1 753.1,122.7 753.9,122.3 754.7,122.0 755.6,121.6 756.4,121.2 757.2,120.8 758.0,120.5 758.9,120.1 759.7,119.7 760.6,119.3 761.4,119.0 762.2,118.6 763.1,118.2 763.9,117.8 764.7,117.5 765.6,117.1 766.4,116.7 767.2,116.3 768.0,115.9 768.9,115.5 769.7,115.2 770.5,114.8 771.3,114.4 772.2,114.0 773.0,113.6 773.8,113.2 774.6,112.8 775.4,112.4 776.3,111.9 777.1,111.5 777.9,111.1 778.7,110.7 779.5,110.2 780.4,109.8 781.2,109.4 782.0,108.9 782.8,108.5 783.6,108.0 784.4,107.5 785.2,107.1 786.1,106.6 786.9,106.1 787.7,105.6 788.5,105.1 789.3,104.6 790.1,104.1 791.0,103.6 791.8,103.0 792.6,102.5 793.4,102.0 794.2,101.4 795.0,100.8 795.9,100.3 796.7,99.7 797.5,99.1 798.3,98.5 799.1,97.9 799.9,97.3 L799.9,93.5 L445.5,93.5 Z" fill="url(#g557)"/>
  <defs><clipPath id="pc558"><rect x="442" y="16" width="358" height="155"/></clipPath></defs>
  <polyline points="445.5,93.7 478.1,93.9 497.2,94.1 510.8,94.3 521.3,94.5 529.9,94.7 537.1,94.9 543.4,95.1 549.0,95.3 553.9,95.5 558.4,95.7 562.5,95.9 566.3,96.1 569.8,96.3 573.0,96.5 576.1,96.7 578.9,96.9 581.6,97.1 584.2,97.3 586.6,97.5 588.9,97.7 591.1,97.9 593.2,98.1 595.2,98.3 597.1,98.5 598.9,98.6 600.7,98.8 602.4,99.0 604.1,99.2 605.7,99.4 607.2,99.6 608.7,99.8 610.2,100.0 611.6,100.2 612.9,100.4 614.3,100.6 615.6,100.8 616.8,101.0 618.0,101.2 619.2,101.4 620.4,101.6 621.5,101.8 622.6,102.0 623.7,102.1 624.8,102.3 625.8,102.5 626.8,102.7 627.8,102.9 628.8,103.1 629.7,103.3 630.7,103.5 631.6,103.7 632.5,103.9 633.4,104.1 634.2,104.2 635.1,104.4 635.9,104.6 636.7,104.8 637.5,105.0 639.1,105.4 640.6,105.7 642.1,106.1 643.5,106.5 644.9,106.8 646.2,107.2 647.6,107.6 648.8,107.9 650.1,108.3 651.3,108.7 652.5,109.0 653.6,109.4 654.7,109.7 655.8,110.1 656.9,110.4 657.9,110.8 659.0,111.1 660.0,111.5 660.9,111.8 661.9,112.2 662.8,112.5 663.8,112.9 664.7,113.2 665.6,113.5 666.4,113.9 667.3,114.2 668.1,114.5 669.0,114.9 669.8,115.2 671.0,115.7 672.1,116.2 673.3,116.6 674.4,117.1 675.5,117.6 676.5,118.0 677.6,118.5 678.6,119.0 679.6,119.4 680.5,119.9 681.5,120.3 682.4,120.7 683.3,121.2 684.2,121.6 685.1,122.0 686.0,122.4 686.8,122.8 687.6,123.2 688.5,123.6 689.3,124.0 690.3,124.5 691.4,125.0 692.4,125.5 693.3,126.0 694.3,126.4 695.3,126.9 696.2,127.3 697.1,127.8 698.0,128.2 698.9,128.6 699.7,128.9 700.6,129.3 701.4,129.7 702.2,130.0 703.0,130.3 704.0,130.7 705.0,131.1 705.9,131.4 706.8,131.7 707.7,132.0 708.6,132.3 709.5,132.5 710.4,132.8 711.2,133.0 712.0,133.2 712.9,133.3 713.8,133.5 714.7,133.6 715.7,133.7 716.6,133.8 717.5,133.9 718.3,133.9 719.2,134.0 720.0,133.9 720.8,133.9 721.7,133.9 722.6,133.8 723.5,133.7 724.4,133.6 725.3,133.4 726.1,133.3 727.0,133.1 727.8,132.9 728.6,132.7 729.4,132.5 730.3,132.2 731.2,131.9 732.1,131.7 732.9,131.4 733.7,131.1 734.6,130.8 735.4,130.5 736.3,130.1 737.1,129.8 738.0,129.4 738.8,129.1 739.7,128.7 740.5,128.3 741.3,128.0 742.2,127.6 743.0,127.2 743.9,126.9 744.7,126.5 745.5,126.1 746.4,125.7 747.2,125.3 748.1,124.9 748.9,124.6 749.7,124.2 750.5,123.8 751.4,123.4 752.2,123.1 753.1,122.7 753.9,122.3 754.7,122.0 755.6,121.6 756.4,121.2 757.2,120.8 758.0,120.5 758.9,120.1 759.7,119.7 760.6,119.3 761.4,119.0 762.2,118.6 763.1,118.2 763.9,117.8 764.7,117.5 765.6,117.1 766.4,116.7 767.2,116.3 768.0,115.9 768.9,115.5 769.7,115.2 770.5,114.8 771.3,114.4 772.2,114.0 773.0,113.6 773.8,113.2 774.6,112.8 775.4,112.4 776.3,111.9 777.1,111.5 777.9,111.1 778.7,110.7 779.5,110.2 780.4,109.8 781.2,109.4 782.0,108.9 782.8,108.5 783.6,108.0 784.4,107.5 785.2,107.1 786.1,106.6 786.9,106.1 787.7,105.6 788.5,105.1 789.3,104.6 790.1,104.1 791.0,103.6 791.8,103.0 792.6,102.5 793.4,102.0 794.2,101.4 795.0,100.8 795.9,100.3 796.7,99.7 797.5,99.1 798.3,98.5 799.1,97.9 799.9,97.3" fill="none" stroke="#e74c3c" stroke-width="1.5" stroke-linejoin="round" clip-path="url(#pc558)"/>
  <line x1="34" y1="221" x2="34" y2="376" stroke="#d1d5db"/>
  <line x1="34" y1="298.5" x2="392" y2="298.5" stroke="#d1d5db"/>
  <text x="213" y="402" text-anchor="middle" font-size="9" fill="#6b7280">Hz</text>
  <text x="12" y="298.5" text-anchor="middle" font-size="9" fill="#6b7280" transform="rotate(-90 12 298.5)">Group delay</text>
  <line x1="66.6" y1="221" x2="66.6" y2="376" stroke="#e5e7eb" stroke-width="0.5"/>
  <line x1="85.7" y1="221" x2="85.7" y2="376" stroke="#e5e7eb" stroke-width="0.5"/>
  <line x1="99.3" y1="221" x2="99.3" y2="376" stroke="#e5e7eb" stroke-width="0.5"/>
  <line x1="109.8" y1="221" x2="109.8" y2="376" stroke="#e5e7eb" stroke-width="0.5"/>
  <line x1="118.4" y1="221" x2="118.4" y2="376" stroke="#e5e7eb" stroke-width="0.5"/>
  <line x1="125.7" y1="221" x2="125.7" y2="376" stroke="#e5e7eb" stroke-width="0.5"/>
  <line x1="131.9" y1="221" x2="131.9" y2="376" stroke="#e5e7eb" stroke-width="0.5"/>
  <line x1="137.5" y1="221" x2="137.5" y2="376" stroke="#e5e7eb" stroke-width="0.5"/>
  <line x1="175.1" y1="221" x2="175.1" y2="376" stroke="#e5e7eb" stroke-width="0.5"/>
  <line x1="194.2" y1="221" x2="194.2" y2="376" stroke="#e5e7eb" stroke-width="0.5"/>
  <line x1="207.7" y1="221" x2="207.7" y2="376" stroke="#e5e7eb" stroke-width="0.5"/>
  <line x1="218.3" y1="221" x2="218.3" y2="376" stroke="#e5e7eb" stroke-width="0.5"/>
  <line x1="226.8" y1="221" x2="226.8" y2="376" stroke="#e5e7eb" stroke-width="0.5"/>
  <line x1="234.1" y1="221" x2="234.1" y2="376" stroke="#e5e7eb" stroke-width="0.5"/>
  <line x1="240.4" y1="221" x2="240.4" y2="376" stroke="#e5e7eb" stroke-width="0.5"/>
  <line x1="245.9" y1="221" x2="245.9" y2="376" stroke="#e5e7eb" stroke-width="0.5"/>
  <line x1="283.5" y1="221" x2="283.5" y2="376" stroke="#e5e7eb" stroke-width="0.5"/>
  <line x1="302.6" y1="221" x2="302.6" y2="376" stroke="#e5e7eb" stroke-width="0.5"/>
  <line x1="316.2" y1="221" x2="316.2" y2="376" stroke="#e5e7eb" stroke-width="0.5"/>
  <line x1="326.7" y1="221" x2="326.7" y2="376" stroke="#e5e7eb" stroke-width="0.5"/>
  <line x1="335.3" y1="221" x2="335.3" y2="376" stroke="#e5e7eb" stroke-width="0.5"/>
  <line x1="342.6" y1="221" x2="342.6" y2="376" stroke="#e5e7eb" stroke-width="0.5"/>
  <line x1="348.8" y1="221" x2="348.8" y2="376" stroke="#e5e7eb" stroke-width="0.5"/>
  <line x1="354.4" y1="221" x2="354.4" y2="376" stroke="#e5e7eb" stroke-width="0.5"/>
  <line x1="392.0" y1="221" x2="392.0" y2="376" stroke="#e5e7eb" stroke-width="0.5"/>
  <line x1="142.5" y1="221" x2="142.5" y2="376" stroke="#e5e7eb" stroke-width="0.5"/>
  <text x="142.5" y="388" text-anchor="middle" font-size="8" fill="#6b7280">100</text>
  <line x1="250.9" y1="221" x2="250.9" y2="376" stroke="#e5e7eb" stroke-width="0.5"/>
  <text x="250.9" y="388" text-anchor="middle" font-size="8" fill="#6b7280">1k</text>
  <line x1="359.4" y1="221" x2="359.4" y2="376" stroke="#e5e7eb" stroke-width="0.5"/>
  <text x="359.4" y="388" text-anchor="middle" font-size="8" fill="#6b7280">10k</text>
  <line x1="34" y1="343.9" x2="392" y2="343.9" stroke="#e5e7eb" stroke-width="0.5"/>
  <text x="30" y="346.9" text-anchor="end" font-size="8" fill="#6b7280">-4</text>
  <text x="30" y="301.5" text-anchor="end" font-size="8" fill="#6b7280">0</text>
  <line x1="34" y1="253.1" x2="392" y2="253.1" stroke="#e5e7eb" stroke-width="0.5"/>
  <text x="30" y="256.1" text-anchor="end" font-size="8" fill="#6b7280">4</text>
  <defs><linearGradient id="g559" x1="0" y1="221" x2="0" y2="298.5" gradientUnits="userSpaceOnUse">
    <stop offset="0%" stop-color="#2ecc71" stop-opacity="0.15"/>
    <stop offset="100%" stop-color="#2ecc71" stop-opacity="0.02"/>
  </linearGradient></defs>
  <defs><linearGradient id="g560" x1="0" y1="376" x2="0" y2="298.5" gradientUnits="userSpaceOnUse">
    <stop offset="0%" stop-color="#2ecc71" stop-opacity="0.15"/>
    <stop offset="100%" stop-color="#2ecc71" stop-opacity="0.02"/>
  </linearGradient></defs>
  <defs><clipPath id="c561"><rect x="34" y="221" width="358" height="77.5"/></clipPath></defs>
  <defs><clipPath id="c562"><rect x="34" y="298.5" width="358" height="77.5"/></clipPath></defs>
  <path d="M37.5,238.9 37.5,238.9 70.1,238.9 89.2,238.9 102.8,238.9 113.3,238.9 121.9,238.9 129.1,238.9 135.4,239.0 141.0,239.0 145.9,239.0 150.4,239.0 154.5,239.0 158.3,239.1 161.8,239.1 165.0,239.1 168.1,239.2 170.9,239.2 173.6,239.2 176.2,239.3 178.6,239.3 180.9,239.4 183.1,239.4 185.2,239.5 187.2,239.5 189.1,239.6 190.9,239.6 192.7,239.7 194.4,239.7 196.1,239.8 197.7,239.9 199.2,239.9 200.7,240.0 202.2,240.1 203.6,240.1 204.9,240.2 206.3,240.3 207.6,240.4 208.8,240.4 210.0,240.5 211.2,240.6 212.4,240.7 213.5,240.8 214.6,240.8 215.7,240.9 216.8,241.0 217.8,241.1 218.8,241.2 219.8,241.3 220.8,241.4 221.7,241.5 222.7,241.6 223.6,241.7 224.5,241.8 225.4,241.9 226.2,241.9 227.1,242.1 227.9,242.2 228.7,242.3 229.5,242.4 231.1,242.6 232.6,242.8 234.1,243.0 235.5,243.2 236.9,243.5 238.2,243.7 239.6,243.9 240.8,244.1 242.1,244.4 243.3,244.6 244.5,244.9 245.6,245.1 246.7,245.4 247.8,245.6 248.9,245.8 249.9,246.1 251.0,246.4 252.0,246.6 252.9,246.9 253.9,247.1 254.8,247.4 255.8,247.7 256.7,247.9 257.6,248.2 258.4,248.5 259.3,248.7 260.1,249.0 261.0,249.3 261.8,249.6 263.0,250.0 264.1,250.4 265.3,250.9 266.4,251.3 267.5,251.8 268.5,252.3 269.6,252.7 270.6,253.2 271.6,253.7 272.5,254.2 273.5,254.7 274.4,255.2 275.3,255.8 276.2,256.3 277.1,256.9 278.0,257.5 278.8,258.1 279.6,258.7 280.5,259.3 281.3,259.9 282.3,260.8 283.4,261.6 284.4,262.5 285.3,263.5 286.3,264.4 287.3,265.4 288.2,266.4 289.1,267.4 290.0,268.4 290.9,269.4 291.7,270.5 292.6,271.5 293.4,272.6 294.2,273.7 295.0,274.8 296.0,276.1 297.0,277.5 297.9,278.9 298.8,280.2 299.7,281.6 300.6,282.9 301.5,284.2 302.4,285.5 303.2,286.8 304.0,288.0 304.9,289.3 305.8,290.7 306.7,292.1 307.7,293.4 308.6,294.7 309.5,295.9 310.3,297.1 311.2,298.3 312.0,299.3 312.8,300.3 313.7,301.3 314.6,302.3 315.5,303.3 316.4,304.2 317.3,305.0 318.1,305.7 319.0,306.4 319.8,307.0 320.6,307.5 321.4,308.0 322.3,308.5 323.2,308.9 324.1,309.3 324.9,309.5 325.7,309.8 326.6,310.0 327.4,310.1 328.3,310.2 329.1,310.3 330.0,310.3 330.8,310.3 331.7,310.3 332.5,310.2 333.3,310.1 334.2,310.0 335.0,309.9 335.9,309.7 336.7,309.6 337.5,309.4 338.4,309.2 339.2,309.0 340.1,308.9 340.9,308.7 341.7,308.5 342.5,308.3 343.4,308.1 344.2,307.9 345.1,307.8 345.9,307.6 346.7,307.4 347.6,307.3 348.4,307.1 349.2,306.9 350.0,306.8 350.9,306.7 351.7,306.5 352.6,306.4 353.4,306.3 354.2,306.1 355.1,306.0 355.9,305.9 356.7,305.8 357.6,305.7 358.4,305.6 359.2,305.6 360.0,305.5 360.9,305.4 361.7,305.3 362.5,305.3 363.3,305.2 364.2,305.1 365.0,305.1 365.8,305.0 366.6,305.0 367.4,304.9 368.3,304.9 369.1,304.8 369.9,304.8 370.7,304.8 371.5,304.7 372.4,304.7 373.2,304.7 374.0,304.6 374.8,304.6 375.6,304.6 376.4,304.6 377.2,304.6 378.1,304.5 378.9,304.5 379.7,304.5 380.5,304.5 381.3,304.5 382.1,304.4 383.0,304.4 383.8,304.4 384.6,304.4 385.4,304.4 386.2,304.4 387.0,304.4 387.9,304.4 388.7,304.4 389.5,304.4 390.3,304.4 391.1,304.4 391.9,304.3 L391.9,298.5 L37.5,298.5 Z" fill="url(#g559)" clip-path="url(#c561)"/>
  <path d="M37.5,238.9 37.5,238.9 70.1,238.9 89.2,238.9 102.8,238.9 113.3,238.9 121.9,238.9 129.1,238.9 135.4,239.0 141.0,239.0 145.9,239.0 150.4,239.0 154.5,239.0 158.3,239.1 161.8,239.1 165.0,239.1 168.1,239.2 170.9,239.2 173.6,239.2 176.2,239.3 178.6,239.3 180.9,239.4 183.1,239.4 185.2,239.5 187.2,239.5 189.1,239.6 190.9,239.6 192.7,239.7 194.4,239.7 196.1,239.8 197.7,239.9 199.2,239.9 200.7,240.0 202.2,240.1 203.6,240.1 204.9,240.2 206.3,240.3 207.6,240.4 208.8,240.4 210.0,240.5 211.2,240.6 212.4,240.7 213.5,240.8 214.6,240.8 215.7,240.9 216.8,241.0 217.8,241.1 218.8,241.2 219.8,241.3 220.8,241.4 221.7,241.5 222.7,241.6 223.6,241.7 224.5,241.8 225.4,241.9 226.2,241.9 227.1,242.1 227.9,242.2 228.7,242.3 229.5,242.4 231.1,242.6 232.6,242.8 234.1,243.0 235.5,243.2 236.9,243.5 238.2,243.7 239.6,243.9 240.8,244.1 242.1,244.4 243.3,244.6 244.5,244.9 245.6,245.1 246.7,245.4 247.8,245.6 248.9,245.8 249.9,246.1 251.0,246.4 252.0,246.6 252.9,246.9 253.9,247.1 254.8,247.4 255.8,247.7 256.7,247.9 257.6,248.2 258.4,248.5 259.3,248.7 260.1,249.0 261.0,249.3 261.8,249.6 263.0,250.0 264.1,250.4 265.3,250.9 266.4,251.3 267.5,251.8 268.5,252.3 269.6,252.7 270.6,253.2 271.6,253.7 272.5,254.2 273.5,254.7 274.4,255.2 275.3,255.8 276.2,256.3 277.1,256.9 278.0,257.5 278.8,258.1 279.6,258.7 280.5,259.3 281.3,259.9 282.3,260.8 283.4,261.6 284.4,262.5 285.3,263.5 286.3,264.4 287.3,265.4 288.2,266.4 289.1,267.4 290.0,268.4 290.9,269.4 291.7,270.5 292.6,271.5 293.4,272.6 294.2,273.7 295.0,274.8 296.0,276.1 297.0,277.5 297.9,278.9 298.8,280.2 299.7,281.6 300.6,282.9 301.5,284.2 302.4,285.5 303.2,286.8 304.0,288.0 304.9,289.3 305.8,290.7 306.7,292.1 307.7,293.4 308.6,294.7 309.5,295.9 310.3,297.1 311.2,298.3 312.0,299.3 312.8,300.3 313.7,301.3 314.6,302.3 315.5,303.3 316.4,304.2 317.3,305.0 318.1,305.7 319.0,306.4 319.8,307.0 320.6,307.5 321.4,308.0 322.3,308.5 323.2,308.9 324.1,309.3 324.9,309.5 325.7,309.8 326.6,310.0 327.4,310.1 328.3,310.2 329.1,310.3 330.0,310.3 330.8,310.3 331.7,310.3 332.5,310.2 333.3,310.1 334.2,310.0 335.0,309.9 335.9,309.7 336.7,309.6 337.5,309.4 338.4,309.2 339.2,309.0 340.1,308.9 340.9,308.7 341.7,308.5 342.5,308.3 343.4,308.1 344.2,307.9 345.1,307.8 345.9,307.6 346.7,307.4 347.6,307.3 348.4,307.1 349.2,306.9 350.0,306.8 350.9,306.7 351.7,306.5 352.6,306.4 353.4,306.3 354.2,306.1 355.1,306.0 355.9,305.9 356.7,305.8 357.6,305.7 358.4,305.6 359.2,305.6 360.0,305.5 360.9,305.4 361.7,305.3 362.5,305.3 363.3,305.2 364.2,305.1 365.0,305.1 365.8,305.0 366.6,305.0 367.4,304.9 368.3,304.9 369.1,304.8 369.9,304.8 370.7,304.8 371.5,304.7 372.4,304.7 373.2,304.7 374.0,304.6 374.8,304.6 375.6,304.6 376.4,304.6 377.2,304.6 378.1,304.5 378.9,304.5 379.7,304.5 380.5,304.5 381.3,304.5 382.1,304.4 383.0,304.4 383.8,304.4 384.6,304.4 385.4,304.4 386.2,304.4 387.0,304.4 387.9,304.4 388.7,304.4 389.5,304.4 390.3,304.4 391.1,304.4 391.9,304.3 L391.9,298.5 L37.5,298.5 Z" fill="url(#g560)" clip-path="url(#c562)"/>
  <defs><clipPath id="pc563"><rect x="34" y="221" width="358" height="155"/></clipPath></defs>
  <polyline points="37.5,238.9 70.1,238.9 89.2,238.9 102.8,238.9 113.3,238.9 121.9,238.9 129.1,238.9 135.4,239.0 141.0,239.0 145.9,239.0 150.4,239.0 154.5,239.0 158.3,239.1 161.8,239.1 165.0,239.1 168.1,239.2 170.9,239.2 173.6,239.2 176.2,239.3 178.6,239.3 180.9,239.4 183.1,239.4 185.2,239.5 187.2,239.5 189.1,239.6 190.9,239.6 192.7,239.7 194.4,239.7 196.1,239.8 197.7,239.9 199.2,239.9 200.7,240.0 202.2,240.1 203.6,240.1 204.9,240.2 206.3,240.3 207.6,240.4 208.8,240.4 210.0,240.5 211.2,240.6 212.4,240.7 213.5,240.8 214.6,240.8 215.7,240.9 216.8,241.0 217.8,241.1 218.8,241.2 219.8,241.3 220.8,241.4 221.7,241.5 222.7,241.6 223.6,241.7 224.5,241.8 225.4,241.9 226.2,241.9 227.1,242.1 227.9,242.2 228.7,242.3 229.5,242.4 231.1,242.6 232.6,242.8 234.1,243.0 235.5,243.2 236.9,243.5 238.2,243.7 239.6,243.9 240.8,244.1 242.1,244.4 243.3,244.6 244.5,244.9 245.6,245.1 246.7,245.4 247.8,245.6 248.9,245.8 249.9,246.1 251.0,246.4 252.0,246.6 252.9,246.9 253.9,247.1 254.8,247.4 255.8,247.7 256.7,247.9 257.6,248.2 258.4,248.5 259.3,248.7 260.1,249.0 261.0,249.3 261.8,249.6 263.0,250.0 264.1,250.4 265.3,250.9 266.4,251.3 267.5,251.8 268.5,252.3 269.6,252.7 270.6,253.2 271.6,253.7 272.5,254.2 273.5,254.7 274.4,255.2 275.3,255.8 276.2,256.3 277.1,256.9 278.0,257.5 278.8,258.1 279.6,258.7 280.5,259.3 281.3,259.9 282.3,260.8 283.4,261.6 284.4,262.5 285.3,263.5 286.3,264.4 287.3,265.4 288.2,266.4 289.1,267.4 290.0,268.4 290.9,269.4 291.7,270.5 292.6,271.5 293.4,272.6 294.2,273.7 295.0,274.8 296.0,276.1 297.0,277.5 297.9,278.9 298.8,280.2 299.7,281.6 300.6,282.9 301.5,284.2 302.4,285.5 303.2,286.8 304.0,288.0 304.9,289.3 305.8,290.7 306.7,292.1 307.7,293.4 308.6,294.7 309.5,295.9 310.3,297.1 311.2,298.3 312.0,299.3 312.8,300.3 313.7,301.3 314.6,302.3 315.5,303.3 316.4,304.2 317.3,305.0 318.1,305.7 319.0,306.4 319.8,307.0 320.6,307.5 321.4,308.0 322.3,308.5 323.2,308.9 324.1,309.3 324.9,309.5 325.7,309.8 326.6,310.0 327.4,310.1 328.3,310.2 329.1,310.3 330.0,310.3 330.8,310.3 331.7,310.3 332.5,310.2 333.3,310.1 334.2,310.0 335.0,309.9 335.9,309.7 336.7,309.6 337.5,309.4 338.4,309.2 339.2,309.0 340.1,308.9 340.9,308.7 341.7,308.5 342.5,308.3 343.4,308.1 344.2,307.9 345.1,307.8 345.9,307.6 346.7,307.4 347.6,307.3 348.4,307.1 349.2,306.9 350.0,306.8 350.9,306.7 351.7,306.5 352.6,306.4 353.4,306.3 354.2,306.1 355.1,306.0 355.9,305.9 356.7,305.8 357.6,305.7 358.4,305.6 359.2,305.6 360.0,305.5 360.9,305.4 361.7,305.3 362.5,305.3 363.3,305.2 364.2,305.1 365.0,305.1 365.8,305.0 366.6,305.0 367.4,304.9 368.3,304.9 369.1,304.8 369.9,304.8 370.7,304.8 371.5,304.7 372.4,304.7 373.2,304.7 374.0,304.6 374.8,304.6 375.6,304.6 376.4,304.6 377.2,304.6 378.1,304.5 378.9,304.5 379.7,304.5 380.5,304.5 381.3,304.5 382.1,304.4 383.0,304.4 383.8,304.4 384.6,304.4 385.4,304.4 386.2,304.4 387.0,304.4 387.9,304.4 388.7,304.4 389.5,304.4 390.3,304.4 391.1,304.4 391.9,304.3" fill="none" stroke="#2ecc71" stroke-width="1.5" stroke-linejoin="round" clip-path="url(#pc563)"/>
  <line x1="442" y1="221" x2="442" y2="376" stroke="#d1d5db"/>
  <line x1="442" y1="298.5" x2="800" y2="298.5" stroke="#d1d5db"/>
  <text x="621" y="402" text-anchor="middle" font-size="9" fill="#6b7280">Samples</text>
  <text x="420" y="298.5" text-anchor="middle" font-size="9" fill="#6b7280" transform="rotate(-90 420 298.5)">Impulse response</text>
  <line x1="442.0" y1="221" x2="442.0" y2="376" stroke="#e5e7eb" stroke-width="0.5"/>
  <text x="442.0" y="388" text-anchor="middle" font-size="8" fill="#6b7280">0</text>
  <line x1="567.9" y1="221" x2="567.9" y2="376" stroke="#e5e7eb" stroke-width="0.5"/>
  <text x="567.9" y="388" text-anchor="middle" font-size="8" fill="#6b7280">90</text>
  <line x1="693.7" y1="221" x2="693.7" y2="376" stroke="#e5e7eb" stroke-width="0.5"/>
  <text x="693.7" y="388" text-anchor="middle" font-size="8" fill="#6b7280">180</text>
  <line x1="442" y1="350.8" x2="800" y2="350.8" stroke="#e5e7eb" stroke-width="0.5"/>
  <text x="438" y="353.8" text-anchor="end" font-size="8" fill="#6b7280">-0.9</text>
  <text x="438" y="301.5" text-anchor="end" font-size="8" fill="#6b7280">0</text>
  <line x1="442" y1="246.2" x2="800" y2="246.2" stroke="#e5e7eb" stroke-width="0.5"/>
  <text x="438" y="249.2" text-anchor="end" font-size="8" fill="#6b7280">0.9</text>
  <defs><linearGradient id="g564" x1="0" y1="221" x2="0" y2="298.5" gradientUnits="userSpaceOnUse">
    <stop offset="0%" stop-color="#f39c12" stop-opacity="0.15"/>
    <stop offset="100%" stop-color="#f39c12" stop-opacity="0.02"/>
  </linearGradient></defs>
  <path d="M442.0,234.2 442.0,234.2 443.4,228.1 444.8,222.9 446.2,221.0 447.6,222.9 449.0,228.1 450.4,235.7 451.8,244.5 453.2,253.6 454.6,262.3 456.0,270.2 457.4,276.9 458.8,282.5 460.2,286.9 461.6,290.3 463.0,292.8 464.4,294.7 465.8,295.9 467.2,296.8 468.6,297.3 470.0,297.7 471.4,297.9 472.8,298.1 474.2,298.1 475.6,298.2 477.0,298.2 478.4,298.3 479.8,298.3 481.2,298.3 482.6,298.4 484.0,298.4 485.4,298.4 486.8,298.4 488.1,298.4 489.5,298.5 490.9,298.5 492.3,298.5 493.7,298.5 495.1,298.5 496.5,298.5 497.9,298.5 499.3,298.5 500.7,298.5 502.1,298.5 503.5,298.5 504.9,298.5 506.3,298.5 507.7,298.5 509.1,298.5 510.5,298.5 511.9,298.5 513.3,298.5 514.7,298.5 516.1,298.5 517.5,298.5 518.9,298.5 520.3,298.5 521.7,298.5 523.1,298.5 524.5,298.5 525.9,298.5 527.3,298.5 528.7,298.5 530.1,298.5 531.5,298.5 532.9,298.5 534.3,298.5 535.7,298.5 537.1,298.5 538.5,298.5 539.9,298.5 541.3,298.5 542.7,298.5 544.1,298.5 545.5,298.5 546.9,298.5 548.3,298.5 549.7,298.5 551.1,298.5 552.5,298.5 553.9,298.5 555.3,298.5 556.7,298.5 558.1,298.5 559.5,298.5 560.9,298.5 562.3,298.5 563.7,298.5 565.1,298.5 566.5,298.5 567.9,298.5 569.3,298.5 570.7,298.5 572.1,298.5 573.5,298.5 574.9,298.5 576.3,298.5 577.6,298.5 579.0,298.5 580.4,298.5 581.8,298.5 583.2,298.5 584.6,298.5 586.0,298.5 587.4,298.5 588.8,298.5 590.2,298.5 591.6,298.5 593.0,298.5 594.4,298.5 595.8,298.5 597.2,298.5 598.6,298.5 600.0,298.5 601.4,298.5 602.8,298.5 604.2,298.5 605.6,298.5 607.0,298.5 608.4,298.5 609.8,298.5 611.2,298.5 612.6,298.5 614.0,298.5 615.4,298.5 616.8,298.5 618.2,298.5 619.6,298.5 621.0,298.5 622.4,298.5 623.8,298.5 625.2,298.5 626.6,298.5 628.0,298.5 629.4,298.5 630.8,298.5 632.2,298.5 633.6,298.5 635.0,298.5 636.4,298.5 637.8,298.5 639.2,298.5 640.6,298.5 642.0,298.5 643.4,298.5 644.8,298.5 646.2,298.5 647.6,298.5 649.0,298.5 650.4,298.5 651.8,298.5 653.2,298.5 654.6,298.5 656.0,298.5 657.4,298.5 658.8,298.5 660.2,298.5 661.6,298.5 663.0,298.5 664.4,298.5 665.8,298.5 667.1,298.5 668.5,298.5 669.9,298.5 671.3,298.5 672.7,298.5 674.1,298.5 675.5,298.5 676.9,298.5 678.3,298.5 679.7,298.5 681.1,298.5 682.5,298.5 683.9,298.5 685.3,298.5 686.7,298.5 688.1,298.5 689.5,298.5 690.9,298.5 692.3,298.5 693.7,298.5 695.1,298.5 696.5,298.5 697.9,298.5 699.3,298.5 700.7,298.5 702.1,298.5 703.5,298.5 704.9,298.5 706.3,298.5 707.7,298.5 709.1,298.5 710.5,298.5 711.9,298.5 713.3,298.5 714.7,298.5 716.1,298.5 717.5,298.5 718.9,298.5 720.3,298.5 721.7,298.5 723.1,298.5 724.5,298.5 725.9,298.5 727.3,298.5 728.7,298.5 730.1,298.5 731.5,298.5 732.9,298.5 734.3,298.5 735.7,298.5 737.1,298.5 738.5,298.5 739.9,298.5 741.3,298.5 742.7,298.5 744.1,298.5 745.5,298.5 746.9,298.5 748.3,298.5 749.7,298.5 751.1,298.5 752.5,298.5 753.9,298.5 755.3,298.5 756.6,298.5 758.0,298.5 759.4,298.5 760.8,298.5 762.2,298.5 763.6,298.5 765.0,298.5 766.4,298.5 767.8,298.5 769.2,298.5 770.6,298.5 772.0,298.5 773.4,298.5 774.8,298.5 776.2,298.5 777.6,298.5 779.0,298.5 780.4,298.5 781.8,298.5 783.2,298.5 784.6,298.5 786.0,298.5 787.4,298.5 788.8,298.5 790.2,298.5 791.6,298.5 793.0,298.5 794.4,298.5 795.8,298.5 797.2,298.5 798.6,298.5 L798.6,298.5 L442.0,298.5 Z" fill="url(#g564)"/>
  <defs><clipPath id="pc565"><rect x="442" y="221" width="358" height="155"/></clipPath></defs>
  <polyline points="442.0,234.2 443.4,228.1 444.8,222.9 446.2,221.0 447.6,222.9 449.0,228.1 450.4,235.7 451.8,244.5 453.2,253.6 454.6,262.3 456.0,270.2 457.4,276.9 458.8,282.5 460.2,286.9 461.6,290.3 463.0,292.8 464.4,294.7 465.8,295.9 467.2,296.8 468.6,297.3 470.0,297.7 471.4,297.9 472.8,298.1 474.2,298.1 475.6,298.2 477.0,298.2 478.4,298.3 479.8,298.3 481.2,298.3 482.6,298.4 484.0,298.4 485.4,298.4 486.8,298.4 488.1,298.4 489.5,298.5 490.9,298.5 492.3,298.5 493.7,298.5 495.1,298.5 496.5,298.5 497.9,298.5 499.3,298.5 500.7,298.5 502.1,298.5 503.5,298.5 504.9,298.5 506.3,298.5 507.7,298.5 509.1,298.5 510.5,298.5 511.9,298.5 513.3,298.5 514.7,298.5 516.1,298.5 517.5,298.5 518.9,298.5 520.3,298.5 521.7,298.5 523.1,298.5 524.5,298.5 525.9,298.5 527.3,298.5 528.7,298.5 530.1,298.5 531.5,298.5 532.9,298.5 534.3,298.5 535.7,298.5 537.1,298.5 538.5,298.5 539.9,298.5 541.3,298.5 542.7,298.5 544.1,298.5 545.5,298.5 546.9,298.5 548.3,298.5 549.7,298.5 551.1,298.5 552.5,298.5 553.9,298.5 555.3,298.5 556.7,298.5 558.1,298.5 559.5,298.5 560.9,298.5 562.3,298.5 563.7,298.5 565.1,298.5 566.5,298.5 567.9,298.5 569.3,298.5 570.7,298.5 572.1,298.5 573.5,298.5 574.9,298.5 576.3,298.5 577.6,298.5 579.0,298.5 580.4,298.5 581.8,298.5 583.2,298.5 584.6,298.5 586.0,298.5 587.4,298.5 588.8,298.5 590.2,298.5 591.6,298.5 593.0,298.5 594.4,298.5 595.8,298.5 597.2,298.5 598.6,298.5 600.0,298.5 601.4,298.5 602.8,298.5 604.2,298.5 605.6,298.5 607.0,298.5 608.4,298.5 609.8,298.5 611.2,298.5 612.6,298.5 614.0,298.5 615.4,298.5 616.8,298.5 618.2,298.5 619.6,298.5 621.0,298.5 622.4,298.5 623.8,298.5 625.2,298.5 626.6,298.5 628.0,298.5 629.4,298.5 630.8,298.5 632.2,298.5 633.6,298.5 635.0,298.5 636.4,298.5 637.8,298.5 639.2,298.5 640.6,298.5 642.0,298.5 643.4,298.5 644.8,298.5 646.2,298.5 647.6,298.5 649.0,298.5 650.4,298.5 651.8,298.5 653.2,298.5 654.6,298.5 656.0,298.5 657.4,298.5 658.8,298.5 660.2,298.5 661.6,298.5 663.0,298.5 664.4,298.5 665.8,298.5 667.1,298.5 668.5,298.5 669.9,298.5 671.3,298.5 672.7,298.5 674.1,298.5 675.5,298.5 676.9,298.5 678.3,298.5 679.7,298.5 681.1,298.5 682.5,298.5 683.9,298.5 685.3,298.5 686.7,298.5 688.1,298.5 689.5,298.5 690.9,298.5 692.3,298.5 693.7,298.5 695.1,298.5 696.5,298.5 697.9,298.5 699.3,298.5 700.7,298.5 702.1,298.5 703.5,298.5 704.9,298.5 706.3,298.5 707.7,298.5 709.1,298.5 710.5,298.5 711.9,298.5 713.3,298.5 714.7,298.5 716.1,298.5 717.5,298.5 718.9,298.5 720.3,298.5 721.7,298.5 723.1,298.5 724.5,298.5 725.9,298.5 727.3,298.5 728.7,298.5 730.1,298.5 731.5,298.5 732.9,298.5 734.3,298.5 735.7,298.5 737.1,298.5 738.5,298.5 739.9,298.5 741.3,298.5 742.7,298.5 744.1,298.5 745.5,298.5 746.9,298.5 748.3,298.5 749.7,298.5 751.1,298.5 752.5,298.5 753.9,298.5 755.3,298.5 756.6,298.5 758.0,298.5 759.4,298.5 760.8,298.5 762.2,298.5 763.6,298.5 765.0,298.5 766.4,298.5 767.8,298.5 769.2,298.5 770.6,298.5 772.0,298.5 773.4,298.5 774.8,298.5 776.2,298.5 777.6,298.5 779.0,298.5 780.4,298.5 781.8,298.5 783.2,298.5 784.6,298.5 786.0,298.5 787.4,298.5 788.8,298.5 790.2,298.5 791.6,298.5 793.0,298.5 794.4,298.5 795.8,298.5 797.2,298.5 798.6,298.5" fill="none" stroke="#f39c12" stroke-width="1.3" stroke-linejoin="round" clip-path="url(#pc565)"/>
</svg>
