<svg xmlns="http://www.w3.org/2000/svg" viewBox="0 0 820 378" style="font-family:system-ui,-apple-system,sans-serif">
  <text x="800" y="11" text-anchor="end" font-size="11" font-weight="600" fill="#6b7280">Gaussian IIR, σ=5</text>
  <line x1="34" y1="16" x2="34" y2="171" stroke="#d1d5db"/>
  <line x1="34" y1="47.0" x2="399" y2="47.0" stroke="#d1d5db"/>
  <text x="216.5" y="197" text-anchor="middle" font-size="9" fill="#6b7280">Hz</text>
  <text x="12" y="93.5" text-anchor="middle" font-size="9" fill="#6b7280" transform="rotate(-90 12 93.5)">dB</text>
  <line x1="67.3" y1="16" x2="67.3" y2="171" stroke="#e5e7eb" stroke-width="0.5"/>
  <line x1="86.8" y1="16" x2="86.8" y2="171" stroke="#e5e7eb" stroke-width="0.5"/>
  <line x1="100.6" y1="16" x2="100.6" y2="171" stroke="#e5e7eb" stroke-width="0.5"/>
  <line x1="111.3" y1="16" x2="111.3" y2="171" stroke="#e5e7eb" stroke-width="0.5"/>
  <line x1="120.0" y1="16" x2="120.0" y2="171" stroke="#e5e7eb" stroke-width="0.5"/>
  <line x1="127.4" y1="16" x2="127.4" y2="171" stroke="#e5e7eb" stroke-width="0.5"/>
  <line x1="133.9" y1="16" x2="133.9" y2="171" stroke="#e5e7eb" stroke-width="0.5"/>
  <line x1="139.5" y1="16" x2="139.5" y2="171" stroke="#e5e7eb" stroke-width="0.5"/>
  <line x1="177.9" y1="16" x2="177.9" y2="171" stroke="#e5e7eb" stroke-width="0.5"/>
  <line x1="197.3" y1="16" x2="197.3" y2="171" stroke="#e5e7eb" stroke-width="0.5"/>
  <line x1="211.1" y1="16" x2="211.1" y2="171" stroke="#e5e7eb" stroke-width="0.5"/>
  <line x1="221.9" y1="16" x2="221.9" y2="171" stroke="#e5e7eb" stroke-width="0.5"/>
  <line x1="230.6" y1="16" x2="230.6" y2="171" stroke="#e5e7eb" stroke-width="0.5"/>
  <line x1="238.0" y1="16" x2="238.0" y2="171" stroke="#e5e7eb" stroke-width="0.5"/>
  <line x1="244.4" y1="16" x2="244.4" y2="171" stroke="#e5e7eb" stroke-width="0.5"/>
  <line x1="250.1" y1="16" x2="250.1" y2="171" stroke="#e5e7eb" stroke-width="0.5"/>
  <line x1="288.4" y1="16" x2="288.4" y2="171" stroke="#e5e7eb" stroke-width="0.5"/>
  <line x1="307.9" y1="16" x2="307.9" y2="171" stroke="#e5e7eb" stroke-width="0.5"/>
  <line x1="321.7" y1="16" x2="321.7" y2="171" stroke="#e5e7eb" stroke-width="0.5"/>
  <line x1="332.4" y1="16" x2="332.4" y2="171" stroke="#e5e7eb" stroke-width="0.5"/>
  <line x1="341.2" y1="16" x2="341.2" y2="171" stroke="#e5e7eb" stroke-width="0.5"/>
  <line x1="348.6" y1="16" x2="348.6" y2="171" stroke="#e5e7eb" stroke-width="0.5"/>
  <line x1="355.0" y1="16" x2="355.0" y2="171" stroke="#e5e7eb" stroke-width="0.5"/>
  <line x1="360.7" y1="16" x2="360.7" y2="171" stroke="#e5e7eb" stroke-width="0.5"/>
  <line x1="399.0" y1="16" x2="399.0" y2="171" stroke="#e5e7eb" stroke-width="0.5"/>
  <line x1="144.6" y1="16" x2="144.6" y2="171" stroke="#e5e7eb" stroke-width="0.5"/>
  <text x="144.6" y="183" text-anchor="middle" font-size="8" fill="#6b7280">100</text>
  <line x1="255.1" y1="16" x2="255.1" y2="171" stroke="#e5e7eb" stroke-width="0.5"/>
  <text x="255.1" y="183" text-anchor="middle" font-size="8" fill="#6b7280">1k</text>
  <line x1="365.7" y1="16" x2="365.7" y2="171" stroke="#e5e7eb" stroke-width="0.5"/>
  <text x="365.7" y="183" text-anchor="middle" font-size="8" fill="#6b7280">10k</text>
  <line x1="34" y1="31.5" x2="399" y2="31.5" stroke="#e5e7eb" stroke-width="0.5"/>
  <line x1="34" y1="62.5" x2="399" y2="62.5" stroke="#e5e7eb" stroke-width="0.5"/>
  <line x1="34" y1="16.0" x2="399" y2="16.0" stroke="#e5e7eb" stroke-width="0.5"/>
  <text x="30" y="19.0" text-anchor="end" font-size="8" fill="#6b7280">+20</text>
  <text x="30" y="50.0" text-anchor="end" font-size="8" fill="#6b7280">0</text>
  <line x1="34" y1="78.0" x2="399" y2="78.0" stroke="#e5e7eb" stroke-width="0.5"/>
  <text x="30" y="81.0" text-anchor="end" font-size="8" fill="#6b7280">-20</text>
  <line x1="34" y1="109.0" x2="399" y2="109.0" stroke="#e5e7eb" stroke-width="0.5"/>
  <text x="30" y="112.0" text-anchor="end" font-size="8" fill="#6b7280">-40</text>
  <line x1="34" y1="140.0" x2="399" y2="140.0" stroke="#e5e7eb" stroke-width="0.5"/>
  <text x="30" y="143.0" text-anchor="end" font-size="8" fill="#6b7280">-60</text>
  <line x1="34" y1="171.0" x2="399" y2="171.0" stroke="#e5e7eb" stroke-width="0.5"/>
  <text x="30" y="174.0" text-anchor="end" font-size="8" fill="#6b7280">-80</text>
  <defs><linearGradient id="g482" x1="0" y1="16" x2="0" y2="171" gradientUnits="userSpaceOnUse">
    <stop offset="0%" stop-color="#4a90d9" stop-opacity="0.15"/>
    <stop offset="100%" stop-color="#4a90d9" stop-opacity="0.02"/>
  </linearGradient></defs>
  <path d="M37.5,16.0 37.5,16.0 70.8,16.0 90.3,16.0 104.1,16.0 114.8,16.0 123.6,16.0 131.0,16.0 137.4,16.0 143.1,16.0 148.1,16.0 152.7,16.0 156.9,16.0 160.7,16.0 164.3,16.0 167.6,16.0 170.7,16.0 173.6,16.0 176.3,16.0 178.9,16.0 181.4,16.0 183.7,16.0 186.0,16.0 188.1,16.0 190.2,16.0 192.1,16.0 194.0,16.0 195.8,16.0 197.6,16.0 199.2,16.0 200.9,16.0 202.4,16.0 204.0,16.0 205.5,16.0 206.9,16.0 208.3,16.0 209.6,16.0 210.9,16.0 212.2,16.0 213.5,16.0 214.7,16.0 215.9,16.0 217.0,16.0 218.2,16.0 219.3,16.0 220.3,16.0 221.4,16.0 222.4,16.0 223.4,16.0 224.4,16.0 225.4,16.0 226.4,16.0 227.3,16.0 228.2,16.0 229.1,16.0 230.0,16.0 230.8,16.0 231.7,16.0 232.5,16.0 233.4,16.0 234.2,16.0 235.7,16.0 237.3,16.0 238.7,16.0 240.2,16.0 241.6,16.0 242.9,16.0 244.2,16.0 245.5,16.0 246.8,16.0 248.0,16.0 249.2,16.0 250.3,16.0 251.4,16.0 252.6,16.0 253.6,16.0 254.7,16.0 255.7,16.0 256.7,16.0 257.7,16.0 258.7,16.0 259.6,16.0 260.6,16.0 261.5,16.0 262.4,16.0 263.3,16.0 264.1,16.0 265.0,16.0 265.8,16.0 266.6,16.1 267.4,16.2 268.6,16.4 269.8,16.6 270.9,16.7 272.0,16.9 273.1,17.1 274.2,17.2 275.2,17.4 276.2,17.6 277.2,17.8 278.2,18.0 279.1,18.2 280.0,18.4 281.0,18.6 281.9,18.8 282.7,19.0 283.6,19.2 284.5,19.4 285.3,19.6 286.1,19.8 286.9,20.0 288.0,20.3 289.0,20.6 290.0,20.9 291.0,21.2 292.0,21.5 292.9,21.8 293.9,22.2 294.8,22.5 295.7,22.8 296.6,23.1 297.4,23.5 298.3,23.8 299.1,24.1 299.9,24.5 300.7,24.8 301.7,25.2 302.7,25.6 303.6,26.1 304.6,26.5 305.5,26.9 306.4,27.3 307.3,27.8 308.1,28.2 309.0,28.6 309.8,29.0 310.6,29.5 311.4,29.9 312.4,30.4 313.3,30.8 314.2,31.3 315.1,31.8 316.0,32.3 316.9,32.7 317.7,33.2 318.6,33.6 319.4,34.0 320.2,34.5 321.1,35.0 322.0,35.4 322.9,35.9 323.8,36.3 324.7,36.8 325.5,37.2 326.3,37.6 327.1,38.0 327.9,38.4 328.8,38.8 329.7,39.2 330.6,39.6 331.4,40.0 332.3,40.3 333.1,40.7 333.9,41.0 334.8,41.4 335.7,41.7 336.5,42.1 337.4,42.4 338.2,42.7 339.0,43.0 339.8,43.3 340.7,43.6 341.6,43.9 342.4,44.2 343.3,44.4 344.1,44.7 344.9,44.9 345.8,45.2 346.6,45.5 347.5,45.7 348.3,45.9 349.1,46.2 350.0,46.4 350.8,46.6 351.7,46.9 352.5,47.1 353.3,47.3 354.1,47.5 355.0,47.7 355.8,47.9 356.6,48.1 357.5,48.3 358.3,48.5 359.1,48.7 360.0,48.9 360.8,49.1 361.6,49.3 362.5,49.5 363.3,49.7 364.1,49.9 364.9,50.0 365.8,50.2 366.6,50.4 367.4,50.6 368.2,50.8 369.1,50.9 369.9,51.1 370.7,51.3 371.6,51.4 372.4,51.6 373.2,51.8 374.0,51.9 374.8,52.1 375.6,52.2 376.5,52.4 377.3,52.6 378.1,52.7 378.9,52.8 379.7,53.0 380.5,53.1 381.4,53.3 382.2,53.4 383.0,53.5 383.8,53.7 384.6,53.8 385.5,53.9 386.3,54.1 387.1,54.2 387.9,54.3 388.7,54.4 389.5,54.5 390.3,54.6 391.2,54.7 392.0,54.8 392.8,54.9 393.6,55.0 394.4,55.1 395.2,55.1 396.0,55.2 396.8,55.3 397.6,55.3 398.5,55.4 L398.5,171.0 L37.5,171.0 Z" fill="url(#g482)"/>
  <defs><clipPath id="pc483"><rect x="34" y="16" width="365" height="155"/></clipPath></defs>
  <polyline points="37.5,12.8 70.8,12.8 90.3,12.8 104.1,12.8 114.8,12.8 123.6,12.8 131.0,12.8 137.4,12.8 143.1,12.8 148.1,12.8 152.7,12.9 156.9,12.9 160.7,12.9 164.3,12.9 167.6,12.9 170.7,12.9 173.6,12.9 176.3,12.9 178.9,12.9 181.4,12.9 183.7,12.9 186.0,12.9 188.1,13.0 190.2,13.0 192.1,13.0 194.0,13.0 195.8,13.0 197.6,13.0 199.2,13.0 200.9,13.1 202.4,13.1 204.0,13.1 205.5,13.1 206.9,13.1 208.3,13.1 209.6,13.2 210.9,13.2 212.2,13.2 213.5,13.2 214.7,13.2 215.9,13.3 217.0,13.3 218.2,13.3 219.3,13.3 220.3,13.3 221.4,13.4 222.4,13.4 223.4,13.4 224.4,13.4 225.4,13.5 226.4,13.5 227.3,13.5 228.2,13.5 229.1,13.6 230.0,13.6 230.8,13.6 231.7,13.6 232.5,13.7 233.4,13.7 234.2,13.7 235.7,13.8 237.3,13.9 238.7,13.9 240.2,14.0 241.6,14.1 242.9,14.1 244.2,14.2 245.5,14.3 246.8,14.3 248.0,14.4 249.2,14.5 250.3,14.6 251.4,14.6 252.6,14.7 253.6,14.8 254.7,14.9 255.7,15.0 256.7,15.1 257.7,15.2 258.7,15.2 259.6,15.3 260.6,15.4 261.5,15.5 262.4,15.6 263.3,15.7 264.1,15.8 265.0,15.9 265.8,16.0 266.6,16.1 267.4,16.2 268.6,16.4 269.8,16.6 270.9,16.7 272.0,16.9 273.1,17.1 274.2,17.2 275.2,17.4 276.2,17.6 277.2,17.8 278.2,18.0 279.1,18.2 280.0,18.4 281.0,18.6 281.9,18.8 282.7,19.0 283.6,19.2 284.5,19.4 285.3,19.6 286.1,19.8 286.9,20.0 288.0,20.3 289.0,20.6 290.0,20.9 291.0,21.2 292.0,21.5 292.9,21.8 293.9,22.2 294.8,22.5 295.7,22.8 296.6,23.1 297.4,23.5 298.3,23.8 299.1,24.1 299.9,24.5 300.7,24.8 301.7,25.2 302.7,25.6 303.6,26.1 304.6,26.5 305.5,26.9 306.4,27.3 307.3,27.8 308.1,28.2 309.0,28.6 309.8,29.0 310.6,29.5 311.4,29.9 312.4,30.4 313.3,30.8 314.2,31.3 315.1,31.8 316.0,32.3 316.9,32.7 317.7,33.2 318.6,33.6 319.4,34.0 320.2,34.5 321.1,35.0 322.0,35.4 322.9,35.9 323.8,36.3 324.7,36.8 325.5,37.2 326.3,37.6 327.1,38.0 327.9,38.4 328.8,38.8 329.7,39.2 330.6,39.6 331.4,40.0 332.3,40.3 333.1,40.7 333.9,41.0 334.8,41.4 335.7,41.7 336.5,42.1 337.4,42.4 338.2,42.7 339.0,43.0 339.8,43.3 340.7,43.6 341.6,43.9 342.4,44.2 343.3,44.4 344.1,44.7 344.9,44.9 345.8,45.2 346.6,45.5 347.5,45.7 348.3,45.9 349.1,46.2 350.0,46.4 350.8,46.6 351.7,46.9 352.5,47.1 353.3,47.3 354.1,47.5 355.0,47.7 355.8,47.9 356.6,48.1 357.5,48.3 358.3,48.5 359.1,48.7 360.0,48.9 360.8,49.1 361.6,49.3 362.5,49.5 363.3,49.7 364.1,49.9 364.9,50.0 365.8,50.2 366.6,50.4 367.4,50.6 368.2,50.8 369.1,50.9 369.9,51.1 370.7,51.3 371.6,51.4 372.4,51.6 373.2,51.8 374.0,51.9 374.8,52.1 375.6,52.2 376.5,52.4 377.3,52.6 378.1,52.7 378.9,52.8 379.7,53.0 380.5,53.1 381.4,53.3 382.2,53.4 383.0,53.5 383.8,53.7 384.6,53.8 385.5,53.9 386.3,54.1 387.1,54.2 387.9,54.3 388.7,54.4 389.5,54.5 390.3,54.6 391.2,54.7 392.0,54.8 392.8,54.9 393.6,55.0 394.4,55.1 395.2,55.1 396.0,55.2 396.8,55.3 397.6,55.3 398.5,55.4" fill="none" stroke="#4a90d9" stroke-width="1.5" stroke-linejoin="round" clip-path="url(#pc483)"/>
  <line x1="435" y1="16" x2="435" y2="171" stroke="#d1d5db"/>
  <line x1="435" y1="93.5" x2="800" y2="93.5" stroke="#d1d5db"/>
  <text x="617.5" y="197" text-anchor="middle" font-size="9" fill="#6b7280">Hz</text>
  <text x="413" y="93.5" text-anchor="middle" font-size="9" fill="#6b7280" transform="rotate(-90 413 93.5)">Phase (deg)</text>
  <line x1="468.3" y1="16" x2="468.3" y2="171" stroke="#e5e7eb" stroke-width="0.5"/>
  <line x1="487.8" y1="16" x2="487.8" y2="171" stroke="#e5e7eb" stroke-width="0.5"/>
  <line x1="501.6" y1="16" x2="501.6" y2="171" stroke="#e5e7eb" stroke-width="0.5"/>
  <line x1="512.3" y1="16" x2="512.3" y2="171" stroke="#e5e7eb" stroke-width="0.5"/>
  <line x1="521.0" y1="16" x2="521.0" y2="171" stroke="#e5e7eb" stroke-width="0.5"/>
  <line x1="528.4" y1="16" x2="528.4" y2="171" stroke="#e5e7eb" stroke-width="0.5"/>
  <line x1="534.9" y1="16" x2="534.9" y2="171" stroke="#e5e7eb" stroke-width="0.5"/>
  <line x1="540.5" y1="16" x2="540.5" y2="171" stroke="#e5e7eb" stroke-width="0.5"/>
  <line x1="578.9" y1="16" x2="578.9" y2="171" stroke="#e5e7eb" stroke-width="0.5"/>
  <line x1="598.3" y1="16" x2="598.3" y2="171" stroke="#e5e7eb" stroke-width="0.5"/>
  <line x1="612.1" y1="16" x2="612.1" y2="171" stroke="#e5e7eb" stroke-width="0.5"/>
  <line x1="622.9" y1="16" x2="622.9" y2="171" stroke="#e5e7eb" stroke-width="0.5"/>
  <line x1="631.6" y1="16" x2="631.6" y2="171" stroke="#e5e7eb" stroke-width="0.5"/>
  <line x1="639.0" y1="16" x2="639.0" y2="171" stroke="#e5e7eb" stroke-width="0.5"/>
  <line x1="645.4" y1="16" x2="645.4" y2="171" stroke="#e5e7eb" stroke-width="0.5"/>
  <line x1="651.1" y1="16" x2="651.1" y2="171" stroke="#e5e7eb" stroke-width="0.5"/>
  <line x1="689.4" y1="16" x2="689.4" y2="171" stroke="#e5e7eb" stroke-width="0.5"/>
  <line x1="708.9" y1="16" x2="708.9" y2="171" stroke="#e5e7eb" stroke-width="0.5"/>
  <line x1="722.7" y1="16" x2="722.7" y2="171" stroke="#e5e7eb" stroke-width="0.5"/>
  <line x1="733.4" y1="16" x2="733.4" y2="171" stroke="#e5e7eb" stroke-width="0.5"/>
  <line x1="742.2" y1="16" x2="742.2" y2="171" stroke="#e5e7eb" stroke-width="0.5"/>
  <line x1="749.6" y1="16" x2="749.6" y2="171" stroke="#e5e7eb" stroke-width="0.5"/>
  <line x1="756.0" y1="16" x2="756.0" y2="171" stroke="#e5e7eb" stroke-width="0.5"/>
  <line x1="761.7" y1="16" x2="761.7" y2="171" stroke="#e5e7eb" stroke-width="0.5"/>
  <line x1="800.0" y1="16" x2="800.0" y2="171" stroke="#e5e7eb" stroke-width="0.5"/>
  <line x1="545.6" y1="16" x2="545.6" y2="171" stroke="#e5e7eb" stroke-width="0.5"/>
  <text x="545.6" y="183" text-anchor="middle" font-size="8" fill="#6b7280">100</text>
  <line x1="656.1" y1="16" x2="656.1" y2="171" stroke="#e5e7eb" stroke-width="0.5"/>
  <text x="656.1" y="183" text-anchor="middle" font-size="8" fill="#6b7280">1k</text>
  <line x1="766.7" y1="16" x2="766.7" y2="171" stroke="#e5e7eb" stroke-width="0.5"/>
  <text x="766.7" y="183" text-anchor="middle" font-size="8" fill="#6b7280">10k</text>
  <line x1="435" y1="54.8" x2="800" y2="54.8" stroke="#e5e7eb" stroke-width="0.5"/>
  <line x1="435" y1="132.3" x2="800" y2="132.3" stroke="#e5e7eb" stroke-width="0.5"/>
  <line x1="435" y1="16.0" x2="800" y2="16.0" stroke="#e5e7eb" stroke-width="0.5"/>
  <text x="431" y="19.0" text-anchor="end" font-size="8" fill="#6b7280">180</text>
  <text x="431" y="96.5" text-anchor="end" font-size="8" fill="#6b7280">0</text>
  <line x1="435" y1="171.0" x2="800" y2="171.0" stroke="#e5e7eb" stroke-width="0.5"/>
  <text x="431" y="174.0" text-anchor="end" font-size="8" fill="#6b7280">-180</text>
  <defs><linearGradient id="g484" x1="0" y1="171" x2="0" y2="93.5" gradientUnits="userSpaceOnUse">
    <stop offset="0%" stop-color="#e74c3c" stop-opacity="0.15"/>
    <stop offset="100%" stop-color="#e74c3c" stop-opacity="0.02"/>
  </linearGradient></defs>
  <path d="M438.5,93.7 438.5,93.7 471.8,93.9 491.3,94.1 505.1,94.3 515.8,94.5 524.6,94.7 532.0,94.9 538.4,95.1 544.1,95.3 549.1,95.5 553.7,95.7 557.9,95.9 561.7,96.1 565.3,96.3 568.6,96.5 571.7,96.7 574.6,96.9 577.3,97.1 579.9,97.3 582.4,97.5 584.7,97.7 587.0,97.9 589.1,98.1 591.2,98.3 593.1,98.5 595.0,98.6 596.8,98.8 598.6,99.0 600.2,99.2 601.9,99.4 603.4,99.6 605.0,99.8 606.5,100.0 607.9,100.2 609.3,100.4 610.6,100.6 611.9,100.8 613.2,101.0 614.5,101.2 615.7,101.4 616.9,101.6 618.0,101.8 619.2,102.0 620.3,102.1 621.3,102.3 622.4,102.5 623.4,102.7 624.4,102.9 625.4,103.1 626.4,103.3 627.4,103.5 628.3,103.7 629.2,103.9 630.1,104.1 631.0,104.2 631.8,104.4 632.7,104.6 633.5,104.8 634.4,105.0 635.2,105.2 636.7,105.6 638.3,105.9 639.7,106.3 641.2,106.7 642.6,107.0 643.9,107.4 645.2,107.8 646.5,108.1 647.8,108.5 649.0,108.8 650.2,109.2 651.3,109.6 652.4,109.9 653.6,110.3 654.6,110.6 655.7,111.0 656.7,111.3 657.7,111.7 658.7,112.0 659.7,112.3 660.6,112.7 661.6,113.0 662.5,113.4 663.4,113.7 664.3,114.0 665.1,114.4 666.0,114.7 666.8,115.0 667.6,115.4 668.4,115.7 669.6,116.2 670.8,116.6 671.9,117.1 673.0,117.6 674.1,118.0 675.2,118.5 676.2,119.0 677.2,119.4 678.2,119.9 679.2,120.3 680.1,120.7 681.0,121.2 682.0,121.6 682.9,122.0 683.7,122.4 684.6,122.8 685.5,123.2 686.3,123.6 687.1,124.0 687.9,124.4 689.0,124.9 690.0,125.4 691.0,125.9 692.0,126.3 693.0,126.8 693.9,127.2 694.9,127.6 695.8,128.1 696.7,128.5 697.6,128.8 698.4,129.2 699.3,129.6 700.1,129.9 700.9,130.2 701.7,130.6 702.7,130.9 703.7,131.3 704.6,131.6 705.6,131.9 706.5,132.2 707.4,132.4 708.3,132.7 709.1,132.9 710.0,133.1 710.8,133.3 711.6,133.4 712.4,133.5 713.4,133.7 714.3,133.8 715.2,133.9 716.1,133.9 717.0,133.9 717.9,134.0 718.7,133.9 719.6,133.9 720.4,133.9 721.2,133.8 722.1,133.7 723.0,133.6 723.9,133.4 724.8,133.2 725.7,133.1 726.5,132.9 727.3,132.7 728.1,132.4 728.9,132.2 729.8,131.9 730.7,131.7 731.6,131.4 732.4,131.1 733.3,130.8 734.1,130.5 734.9,130.2 735.8,129.8 736.7,129.4 737.5,129.1 738.4,128.7 739.2,128.4 740.0,128.0 740.8,127.7 741.7,127.3 742.6,126.9 743.4,126.6 744.3,126.2 745.1,125.8 745.9,125.5 746.8,125.1 747.6,124.7 748.5,124.3 749.3,124.0 750.1,123.6 751.0,123.2 751.8,122.8 752.7,122.5 753.5,122.1 754.3,121.8 755.1,121.4 756.0,121.0 756.8,120.6 757.6,120.3 758.5,119.9 759.3,119.5 760.1,119.2 761.0,118.8 761.8,118.5 762.6,118.1 763.5,117.7 764.3,117.3 765.1,117.0 765.9,116.6 766.8,116.2 767.6,115.8 768.4,115.5 769.2,115.1 770.1,114.7 770.9,114.3 771.7,113.9 772.6,113.5 773.4,113.1 774.2,112.7 775.0,112.3 775.8,111.9 776.6,111.5 777.5,111.1 778.3,110.7 779.1,110.3 779.9,109.8 780.7,109.4 781.5,109.0 782.4,108.5 783.2,108.1 784.0,107.6 784.8,107.2 785.6,106.7 786.5,106.2 787.3,105.7 788.1,105.2 788.9,104.8 789.7,104.3 790.5,103.7 791.3,103.2 792.2,102.7 793.0,102.2 793.8,101.6 794.6,101.1 795.4,100.5 796.2,100.0 797.0,99.4 797.8,98.8 798.6,98.2 799.5,97.6 L799.5,93.5 L438.5,93.5 Z" fill="url(#g484)"/>
  <defs><clipPath id="pc485"><rect x="435" y="16" width="365" height="155"/></clipPath></defs>
  <polyline points="438.5,93.7 471.8,93.9 491.3,94.1 505.1,94.3 515.8,94.5 524.6,94.7 532.0,94.9 538.4,95.1 544.1,95.3 549.1,95.5 553.7,95.7 557.9,95.9 561.7,96.1 565.3,96.3 568.6,96.5 571.7,96.7 574.6,96.9 577.3,97.1 579.9,97.3 582.4,97.5 584.7,97.7 587.0,97.9 589.1,98.1 591.2,98.3 593.1,98.5 595.0,98.6 596.8,98.8 598.6,99.0 600.2,99.2 601.9,99.4 603.4,99.6 605.0,99.8 606.5,100.0 607.9,100.2 609.3,100.4 610.6,100.6 611.9,100.8 613.2,101.0 614.5,101.2 615.7,101.4 616.9,101.6 618.0,101.8 619.2,102.0 620.3,102.1 621.3,102.3 622.4,102.5 623.4,102.7 624.4,102.9 625.4,103.1 626.4,103.3 627.4,103.5 628.3,103.7 629.2,103.9 630.1,104.1 631.0,104.2 631.8,104.4 632.7,104.6 633.5,104.8 634.4,105.0 635.2,105.2 636.7,105.6 638.3,105.9 639.7,106.3 641.2,106.7 642.6,107.0 643.9,107.4 645.2,107.8 646.5,108.1 647.8,108.5 649.0,108.8 650.2,109.2 651.3,109.6 652.4,109.9 653.6,110.3 654.6,110.6 655.7,111.0 656.7,111.3 657.7,111.7 658.7,112.0 659.7,112.3 660.6,112.7 661.6,113.0 662.5,113.4 663.4,113.7 664.3,114.0 665.1,114.4 666.0,114.7 666.8,115.0 667.6,115.4 668.4,115.7 669.6,116.2 670.8,116.6 671.9,117.1 673.0,117.6 674.1,118.0 675.2,118.5 676.2,119.0 677.2,119.4 678.2,119.9 679.2,120.3 680.1,120.7 681.0,121.2 682.0,121.6 682.9,122.0 683.7,122.4 684.6,122.8 685.5,123.2 686.3,123.6 687.1,124.0 687.9,124.4 689.0,124.9 690.0,125.4 691.0,125.9 692.0,126.3 693.0,126.8 693.9,127.2 694.9,127.6 695.8,128.1 696.7,128.5 697.6,128.8 698.4,129.2 699.3,129.6 700.1,129.9 700.9,130.2 701.7,130.6 702.7,130.9 703.7,131.3 704.6,131.6 705.6,131.9 706.5,132.2 707.4,132.4 708.3,132.7 709.1,132.9 710.0,133.1 710.8,133.3 711.6,133.4 712.4,133.5 713.4,133.7 714.3,133.8 715.2,133.9 716.1,133.9 717.0,133.9 717.9,134.0 718.7,133.9 719.6,133.9 720.4,133.9 721.2,133.8 722.1,133.7 723.0,133.6 723.9,133.4 724.8,133.2 725.7,133.1 726.5,132.9 727.3,132.7 728.1,132.4 728.9,132.2 729.8,131.9 730.7,131.7 731.6,131.4 732.4,131.1 733.3,130.8 734.1,130.5 734.9,130.2 735.8,129.8 736.7,129.4 737.5,129.1 738.4,128.7 739.2,128.4 740.0,128.0 740.8,127.7 741.7,127.3 742.6,126.9 743.4,126.6 744.3,126.2 745.1,125.8 745.9,125.5 746.8,125.1 747.6,124.7 748.5,124.3 749.3,124.0 750.1,123.6 751.0,123.2 751.8,122.8 752.7,122.5 753.5,122.1 754.3,121.8 755.1,121.4 756.0,121.0 756.8,120.6 757.6,120.3 758.5,119.9 759.3,119.5 760.1,119.2 761.0,118.8 761.8,118.5 762.6,118.1 763.5,117.7 764.3,117.3 765.1,117.0 765.9,116.6 766.8,116.2 767.6,115.8 768.4,115.5 769.2,115.1 770.1,114.7 770.9,114.3 771.7,113.9 772.6,113.5 773.4,113.1 774.2,112.7 775.0,112.3 775.8,111.9 776.6,111.5 777.5,111.1 778.3,110.7 779.1,110.3 779.9,109.8 780.7,109.4 781.5,109.0 782.4,108.5 783.2,108.1 784.0,107.6 784.8,107.2 785.6,106.7 786.5,106.2 787.3,105.7 788.1,105.2 788.9,104.8 789.7,104.3 790.5,103.7 791.3,103.2 792.2,102.7 793.0,102.2 793.8,101.6 794.6,101.1 795.4,100.5 796.2,100.0 797.0,99.4 797.8,98.8 798.6,98.2 799.5,97.6" fill="none" stroke="#e74c3c" stroke-width="1.5" stroke-linejoin="round" clip-path="url(#pc485)"/>
  <line x1="34" y1="207" x2="34" y2="362" stroke="#d1d5db"/>
  <line x1="34" y1="284.5" x2="399" y2="284.5" stroke="#d1d5db"/>
  <text x="216.5" y="388" text-anchor="middle" font-size="9" fill="#6b7280">Hz</text>
  <text x="12" y="284.5" text-anchor="middle" font-size="9" fill="#6b7280" transform="rotate(-90 12 284.5)">Group delay</text>
  <line x1="67.3" y1="207" x2="67.3" y2="362" stroke="#e5e7eb" stroke-width="0.5"/>
  <line x1="86.8" y1="207" x2="86.8" y2="362" stroke="#e5e7eb" stroke-width="0.5"/>
  <line x1="100.6" y1="207" x2="100.6" y2="362" stroke="#e5e7eb" stroke-width="0.5"/>
  <line x1="111.3" y1="207" x2="111.3" y2="362" stroke="#e5e7eb" stroke-width="0.5"/>
  <line x1="120.0" y1="207" x2="120.0" y2="362" stroke="#e5e7eb" stroke-width="0.5"/>
  <line x1="127.4" y1="207" x2="127.4" y2="362" stroke="#e5e7eb" stroke-width="0.5"/>
  <line x1="133.9" y1="207" x2="133.9" y2="362" stroke="#e5e7eb" stroke-width="0.5"/>
  <line x1="139.5" y1="207" x2="139.5" y2="362" stroke="#e5e7eb" stroke-width="0.5"/>
  <line x1="177.9" y1="207" x2="177.9" y2="362" stroke="#e5e7eb" stroke-width="0.5"/>
  <line x1="197.3" y1="207" x2="197.3" y2="362" stroke="#e5e7eb" stroke-width="0.5"/>
  <line x1="211.1" y1="207" x2="211.1" y2="362" stroke="#e5e7eb" stroke-width="0.5"/>
  <line x1="221.9" y1="207" x2="221.9" y2="362" stroke="#e5e7eb" stroke-width="0.5"/>
  <line x1="230.6" y1="207" x2="230.6" y2="362" stroke="#e5e7eb" stroke-width="0.5"/>
  <line x1="238.0" y1="207" x2="238.0" y2="362" stroke="#e5e7eb" stroke-width="0.5"/>
  <line x1="244.4" y1="207" x2="244.4" y2="362" stroke="#e5e7eb" stroke-width="0.5"/>
  <line x1="250.1" y1="207" x2="250.1" y2="362" stroke="#e5e7eb" stroke-width="0.5"/>
  <line x1="288.4" y1="207" x2="288.4" y2="362" stroke="#e5e7eb" stroke-width="0.5"/>
  <line x1="307.9" y1="207" x2="307.9" y2="362" stroke="#e5e7eb" stroke-width="0.5"/>
  <line x1="321.7" y1="207" x2="321.7" y2="362" stroke="#e5e7eb" stroke-width="0.5"/>
  <line x1="332.4" y1="207" x2="332.4" y2="362" stroke="#e5e7eb" stroke-width="0.5"/>
  <line x1="341.2" y1="207" x2="341.2" y2="362" stroke="#e5e7eb" stroke-width="0.5"/>
  <line x1="348.6" y1="207" x2="348.6" y2="362" stroke="#e5e7eb" stroke-width="0.5"/>
  <line x1="355.0" y1="207" x2="355.0" y2="362" stroke="#e5e7eb" stroke-width="0.5"/>
  <line x1="360.7" y1="207" x2="360.7" y2="362" stroke="#e5e7eb" stroke-width="0.5"/>
  <line x1="399.0" y1="207" x2="399.0" y2="362" stroke="#e5e7eb" stroke-width="0.5"/>
  <line x1="144.6" y1="207" x2="144.6" y2="362" stroke="#e5e7eb" stroke-width="0.5"/>
  <text x="144.6" y="374" text-anchor="middle" font-size="8" fill="#6b7280">100</text>
  <line x1="255.1" y1="207" x2="255.1" y2="362" stroke="#e5e7eb" stroke-width="0.5"/>
  <text x="255.1" y="374" text-anchor="middle" font-size="8" fill="#6b7280">1k</text>
  <line x1="365.7" y1="207" x2="365.7" y2="362" stroke="#e5e7eb" stroke-width="0.5"/>
  <text x="365.7" y="374" text-anchor="middle" font-size="8" fill="#6b7280">10k</text>
  <line x1="34" y1="329.9" x2="399" y2="329.9" stroke="#e5e7eb" stroke-width="0.5"/>
  <text x="30" y="332.9" text-anchor="end" font-size="8" fill="#6b7280">-4</text>
  <text x="30" y="287.5" text-anchor="end" font-size="8" fill="#6b7280">0</text>
  <line x1="34" y1="239.1" x2="399" y2="239.1" stroke="#e5e7eb" stroke-width="0.5"/>
  <text x="30" y="242.1" text-anchor="end" font-size="8" fill="#6b7280">4</text>
  <defs><linearGradient id="g486" x1="0" y1="207" x2="0" y2="284.5" gradientUnits="userSpaceOnUse">
    <stop offset="0%" stop-color="#2ecc71" stop-opacity="0.15"/>
    <stop offset="100%" stop-color="#2ecc71" stop-opacity="0.02"/>
  </linearGradient></defs>
  <defs><linearGradient id="g487" x1="0" y1="362" x2="0" y2="284.5" gradientUnits="userSpaceOnUse">
    <stop offset="0%" stop-color="#2ecc71" stop-opacity="0.15"/>
    <stop offset="100%" stop-color="#2ecc71" stop-opacity="0.02"/>
  </linearGradient></defs>
  <defs><clipPath id="c488"><rect x="34" y="207" width="365" height="77.5"/></clipPath></defs>
  <defs><clipPath id="c489"><rect x="34" y="284.5" width="365" height="77.5"/></clipPath></defs>
  <path d="M37.5,224.9 37.5,224.9 70.8,224.9 90.3,224.9 104.1,224.9 114.8,224.9 123.6,224.9 131.0,224.9 137.4,225.0 143.1,225.0 148.1,225.0 152.7,225.0 156.9,225.0 160.7,225.1 164.3,225.1 167.6,225.1 170.7,225.2 173.6,225.2 176.3,225.2 178.9,225.3 181.4,225.3 183.7,225.4 186.0,225.4 188.1,225.5 190.2,225.5 192.1,225.6 194.0,225.6 195.8,225.7 197.6,225.7 199.2,225.8 200.9,225.9 202.4,225.9 204.0,226.0 205.5,226.1 206.9,226.1 208.3,226.2 209.6,226.3 210.9,226.4 212.2,226.4 213.5,226.5 214.7,226.6 215.9,226.7 217.0,226.8 218.2,226.8 219.3,226.9 220.3,227.0 221.4,227.1 222.4,227.2 223.4,227.3 224.4,227.4 225.4,227.5 226.4,227.6 227.3,227.7 228.2,227.8 229.1,227.9 230.0,227.9 230.8,228.1 231.7,228.2 232.5,228.3 233.4,228.4 234.2,228.5 235.7,228.7 237.3,228.9 238.7,229.1 240.2,229.3 241.6,229.6 242.9,229.8 244.2,230.0 245.5,230.3 246.8,230.5 248.0,230.7 249.2,231.0 250.3,231.2 251.4,231.5 252.6,231.7 253.6,232.0 254.7,232.2 255.7,232.5 256.7,232.7 257.7,233.0 258.7,233.3 259.6,233.5 260.6,233.8 261.5,234.1 262.4,234.3 263.3,234.6 264.1,234.9 265.0,235.2 265.8,235.4 266.6,235.7 267.4,236.0 268.6,236.4 269.8,236.9 270.9,237.3 272.0,237.8 273.1,238.3 274.2,238.7 275.2,239.2 276.2,239.7 277.2,240.2 278.2,240.7 279.1,241.2 280.0,241.8 281.0,242.3 281.9,242.9 282.7,243.5 283.6,244.1 284.5,244.7 285.3,245.3 286.1,245.9 286.9,246.5 288.0,247.4 289.0,248.3 290.0,249.2 291.0,250.2 292.0,251.1 292.9,252.1 293.9,253.1 294.8,254.1 295.7,255.2 296.6,256.2 297.4,257.3 298.3,258.3 299.1,259.4 299.9,260.5 300.7,261.6 301.7,262.9 302.7,264.3 303.6,265.7 304.6,267.0 305.5,268.4 306.4,269.7 307.3,271.0 308.1,272.3 309.0,273.5 309.8,274.8 310.6,276.0 311.4,277.2 312.4,278.5 313.3,279.9 314.2,281.1 315.1,282.3 316.0,283.5 316.9,284.6 317.7,285.7 318.6,286.7 319.4,287.6 320.2,288.5 321.1,289.4 322.0,290.3 322.9,291.1 323.8,291.8 324.7,292.5 325.5,293.1 326.3,293.6 327.1,294.1 327.9,294.5 328.8,294.9 329.7,295.3 330.6,295.5 331.4,295.8 332.3,296.0 333.1,296.1 333.9,296.2 334.8,296.3 335.7,296.3 336.5,296.3 337.4,296.3 338.2,296.2 339.0,296.1 339.8,296.0 340.7,295.9 341.6,295.8 342.4,295.6 343.3,295.4 344.1,295.3 344.9,295.1 345.8,294.9 346.6,294.7 347.5,294.6 348.3,294.4 349.1,294.2 350.0,294.0 350.8,293.8 351.7,293.7 352.5,293.5 353.3,293.3 354.1,293.2 355.0,293.0 355.8,292.9 356.6,292.7 357.5,292.6 358.3,292.5 359.1,292.3 360.0,292.2 360.8,292.1 361.6,292.0 362.5,291.9 363.3,291.8 364.1,291.7 364.9,291.6 365.8,291.5 366.6,291.5 367.4,291.4 368.2,291.3 369.1,291.2 369.9,291.2 370.7,291.1 371.6,291.1 372.4,291.0 373.2,291.0 374.0,290.9 374.8,290.9 375.6,290.8 376.5,290.8 377.3,290.8 378.1,290.7 378.9,290.7 379.7,290.7 380.5,290.6 381.4,290.6 382.2,290.6 383.0,290.6 383.8,290.6 384.6,290.5 385.5,290.5 386.3,290.5 387.1,290.5 387.9,290.5 388.7,290.5 389.5,290.4 390.3,290.4 391.2,290.4 392.0,290.4 392.8,290.4 393.6,290.4 394.4,290.4 395.2,290.4 396.0,290.4 396.8,290.4 397.6,290.4 398.5,290.4 L398.5,284.5 L37.5,284.5 Z" fill="url(#g486)" clip-path="url(#c488)"/>
  <path d="M37.5,224.9 37.5,224.9 70.8,224.9 90.3,224.9 104.1,224.9 114.8,224.9 123.6,224.9 131.0,224.9 137.4,225.0 143.1,225.0 148.1,225.0 152.7,225.0 156.9,225.0 160.7,225.1 164.3,225.1 167.6,225.1 170.7,225.2 173.6,225.2 176.3,225.2 178.9,225.3 181.4,225.3 183.7,225.4 186.0,225.4 188.1,225.5 190.2,225.5 192.1,225.6 194.0,225.6 195.8,225.7 197.6,225.7 199.2,225.8 200.9,225.9 202.4,225.9 204.0,226.0 205.5,226.1 206.9,226.1 208.3,226.2 209.6,226.3 210.9,226.4 212.2,226.4 213.5,226.5 214.7,226.6 215.9,226.7 217.0,226.8 218.2,226.8 219.3,226.9 220.3,227.0 221.4,227.1 222.4,227.2 223.4,227.3 224.4,227.4 225.4,227.5 226.4,227.6 227.3,227.7 228.2,227.8 229.1,227.9 230.0,227.9 230.8,228.1 231.7,228.2 232.5,228.3 233.4,228.4 234.2,228.5 235.7,228.7 237.3,228.9 238.7,229.1 240.2,229.3 241.6,229.6 242.9,229.8 244.2,230.0 245.5,230.3 246.8,230.5 248.0,230.7 249.2,231.0 250.3,231.2 251.4,231.5 252.6,231.7 253.6,232.0 254.7,232.2 255.7,232.5 256.7,232.7 257.7,233.0 258.7,233.3 259.6,233.5 260.6,233.8 261.5,234.1 262.4,234.3 263.3,234.6 264.1,234.9 265.0,235.2 265.8,235.4 266.6,235.7 267.4,236.0 268.6,236.4 269.8,236.9 270.9,237.3 272.0,237.8 273.1,238.3 274.2,238.7 275.2,239.2 276.2,239.7 277.2,240.2 278.2,240.7 279.1,241.2 280.0,241.8 281.0,242.3 281.9,242.9 282.7,243.5 283.6,244.1 284.5,244.7 285.3,245.3 286.1,245.9 286.9,246.5 288.0,247.4 289.0,248.3 290.0,249.2 291.0,250.2 292.0,251.1 292.9,252.1 293.9,253.1 294.8,254.1 295.7,255.2 296.6,256.2 297.4,257.3 298.3,258.3 299.1,259.4 299.9,260.5 300.7,261.6 301.7,262.9 302.7,264.3 303.6,265.7 304.6,267.0 305.5,268.4 306.4,269.7 307.3,271.0 308.1,272.3 309.0,273.5 309.8,274.8 310.6,276.0 311.4,277.2 312.4,278.5 313.3,279.9 314.2,281.1 315.1,282.3 316.0,283.5 316.9,284.6 317.7,285.7 318.6,286.7 319.4,287.6 320.2,288.5 321.1,289.4 322.0,290.3 322.9,291.1 323.8,291.8 324.7,292.5 325.5,293.1 326.3,293.6 327.1,294.1 327.9,294.5 328.8,294.9 329.7,295.3 330.6,295.5 331.4,295.8 332.3,296.0 333.1,296.1 333.9,296.2 334.8,296.3 335.7,296.3 336.5,296.3 337.4,296.3 338.2,296.2 339.0,296.1 339.8,296.0 340.7,295.9 341.6,295.8 342.4,295.6 343.3,295.4 344.1,295.3 344.9,295.1 345.8,294.9 346.6,294.7 347.5,294.6 348.3,294.4 349.1,294.2 350.0,294.0 350.8,293.8 351.7,293.7 352.5,293.5 353.3,293.3 354.1,293.2 355.0,293.0 355.8,292.9 356.6,292.7 357.5,292.6 358.3,292.5 359.1,292.3 360.0,292.2 360.8,292.1 361.6,292.0 362.5,291.9 363.3,291.8 364.1,291.7 364.9,291.6 365.8,291.5 366.6,291.5 367.4,291.4 368.2,291.3 369.1,291.2 369.9,291.2 370.7,291.1 371.6,291.1 372.4,291.0 373.2,291.0 374.0,290.9 374.8,290.9 375.6,290.8 376.5,290.8 377.3,290.8 378.1,290.7 378.9,290.7 379.7,290.7 380.5,290.6 381.4,290.6 382.2,290.6 383.0,290.6 383.8,290.6 384.6,290.5 385.5,290.5 386.3,290.5 387.1,290.5 387.9,290.5 388.7,290.5 389.5,290.4 390.3,290.4 391.2,290.4 392.0,290.4 392.8,290.4 393.6,290.4 394.4,290.4 395.2,290.4 396.0,290.4 396.8,290.4 397.6,290.4 398.5,290.4 L398.5,284.5 L37.5,284.5 Z" fill="url(#g487)" clip-path="url(#c489)"/>
  <defs><clipPath id="pc490"><rect x="34" y="207" width="365" height="155"/></clipPath></defs>
  <polyline points="37.5,224.9 70.8,224.9 90.3,224.9 104.1,224.9 114.8,224.9 123.6,224.9 131.0,224.9 137.4,225.0 143.1,225.0 148.1,225.0 152.7,225.0 156.9,225.0 160.7,225.1 164.3,225.1 167.6,225.1 170.7,225.2 173.6,225.2 176.3,225.2 178.9,225.3 181.4,225.3 183.7,225.4 186.0,225.4 188.1,225.5 190.2,225.5 192.1,225.6 194.0,225.6 195.8,225.7 197.6,225.7 199.2,225.8 200.9,225.9 202.4,225.9 204.0,226.0 205.5,226.1 206.9,226.1 208.3,226.2 209.6,226.3 210.9,226.4 212.2,226.4 213.5,226.5 214.7,226.6 215.9,226.7 217.0,226.8 218.2,226.8 219.3,226.9 220.3,227.0 221.4,227.1 222.4,227.2 223.4,227.3 224.4,227.4 225.4,227.5 226.4,227.6 227.3,227.7 228.2,227.8 229.1,227.9 230.0,227.9 230.8,228.1 231.7,228.2 232.5,228.3 233.4,228.4 234.2,228.5 235.7,228.7 237.3,228.9 238.7,229.1 240.2,229.3 241.6,229.6 242.9,229.8 244.2,230.0 245.5,230.3 246.8,230.5 248.0,230.7 249.2,231.0 250.3,231.2 251.4,231.5 252.6,231.7 253.6,232.0 254.7,232.2 255.7,232.5 256.7,232.7 257.7,233.0 258.7,233.3 259.6,233.5 260.6,233.8 261.5,234.1 262.4,234.3 263.3,234.6 264.1,234.9 265.0,235.2 265.8,235.4 266.6,235.7 267.4,236.0 268.6,236.4 269.8,236.9 270.9,237.3 272.0,237.8 273.1,238.3 274.2,238.7 275.2,239.2 276.2,239.7 277.2,240.2 278.2,240.7 279.1,241.2 280.0,241.8 281.0,242.3 281.9,242.9 282.7,243.5 283.6,244.1 284.5,244.7 285.3,245.3 286.1,245.9 286.9,246.5 288.0,247.4 289.0,248.3 290.0,249.2 291.0,250.2 292.0,251.1 292.9,252.1 293.9,253.1 294.8,254.1 295.7,255.2 296.6,256.2 297.4,257.3 298.3,258.3 299.1,259.4 299.9,260.5 300.7,261.6 301.7,262.9 302.7,264.3 303.6,265.7 304.6,267.0 305.5,268.4 306.4,269.7 307.3,271.0 308.1,272.3 309.0,273.5 309.8,274.8 310.6,276.0 311.4,277.2 312.4,278.5 313.3,279.9 314.2,281.1 315.1,282.3 316.0,283.5 316.9,284.6 317.7,285.7 318.6,286.7 319.4,287.6 320.2,288.5 321.1,289.4 322.0,290.3 322.9,291.1 323.8,291.8 324.7,292.5 325.5,293.1 326.3,293.6 327.1,294.1 327.9,294.5 328.8,294.9 329.7,295.3 330.6,295.5 331.4,295.8 332.3,296.0 333.1,296.1 333.9,296.2 334.8,296.3 335.7,296.3 336.5,296.3 337.4,296.3 338.2,296.2 339.0,296.1 339.8,296.0 340.7,295.9 341.6,295.8 342.4,295.6 343.3,295.4 344.1,295.3 344.9,295.1 345.8,294.9 346.6,294.7 347.5,294.6 348.3,294.4 349.1,294.2 350.0,294.0 350.8,293.8 351.7,293.7 352.5,293.5 353.3,293.3 354.1,293.2 355.0,293.0 355.8,292.9 356.6,292.7 357.5,292.6 358.3,292.5 359.1,292.3 360.0,292.2 360.8,292.1 361.6,292.0 362.5,291.9 363.3,291.8 364.1,291.7 364.9,291.6 365.8,291.5 366.6,291.5 367.4,291.4 368.2,291.3 369.1,291.2 369.9,291.2 370.7,291.1 371.6,291.1 372.4,291.0 373.2,291.0 374.0,290.9 374.8,290.9 375.6,290.8 376.5,290.8 377.3,290.8 378.1,290.7 378.9,290.7 379.7,290.7 380.5,290.6 381.4,290.6 382.2,290.6 383.0,290.6 383.8,290.6 384.6,290.5 385.5,290.5 386.3,290.5 387.1,290.5 387.9,290.5 388.7,290.5 389.5,290.4 390.3,290.4 391.2,290.4 392.0,290.4 392.8,290.4 393.6,290.4 394.4,290.4 395.2,290.4 396.0,290.4 396.8,290.4 397.6,290.4 398.5,290.4" fill="none" stroke="#2ecc71" stroke-width="1.5" stroke-linejoin="round" clip-path="url(#pc490)"/>
  <line x1="435" y1="207" x2="435" y2="362" stroke="#d1d5db"/>
  <line x1="435" y1="284.5" x2="800" y2="284.5" stroke="#d1d5db"/>
  <text x="617.5" y="388" text-anchor="middle" font-size="9" fill="#6b7280">Samples</text>
  <text x="413" y="284.5" text-anchor="middle" font-size="9" fill="#6b7280" transform="rotate(-90 413 284.5)">Impulse response</text>
  <line x1="435.0" y1="207" x2="435.0" y2="362" stroke="#e5e7eb" stroke-width="0.5"/>
  <text x="435.0" y="374" text-anchor="middle" font-size="8" fill="#6b7280">0</text>
  <line x1="563.3" y1="207" x2="563.3" y2="362" stroke="#e5e7eb" stroke-width="0.5"/>
  <text x="563.3" y="374" text-anchor="middle" font-size="8" fill="#6b7280">90</text>
  <line x1="691.6" y1="207" x2="691.6" y2="362" stroke="#e5e7eb" stroke-width="0.5"/>
  <text x="691.6" y="374" text-anchor="middle" font-size="8" fill="#6b7280">180</text>
  <line x1="435" y1="336.8" x2="800" y2="336.8" stroke="#e5e7eb" stroke-width="0.5"/>
  <text x="431" y="339.8" text-anchor="end" font-size="8" fill="#6b7280">-0.9</text>
  <text x="431" y="287.5" text-anchor="end" font-size="8" fill="#6b7280">0</text>
  <line x1="435" y1="232.2" x2="800" y2="232.2" stroke="#e5e7eb" stroke-width="0.5"/>
  <text x="431" y="235.2" text-anchor="end" font-size="8" fill="#6b7280">0.9</text>
  <defs><linearGradient id="g491" x1="0" y1="207" x2="0" y2="284.5" gradientUnits="userSpaceOnUse">
    <stop offset="0%" stop-color="#f39c12" stop-opacity="0.15"/>
    <stop offset="100%" stop-color="#f39c12" stop-opacity="0.02"/>
  </linearGradient></defs>
  <path d="M435.0,220.2 435.0,220.2 436.4,214.1 437.9,208.9 439.3,207.0 440.7,208.9 442.1,214.1 443.6,221.7 445.0,230.5 446.4,239.6 447.8,248.3 449.3,256.2 450.7,262.9 452.1,268.5 453.5,272.9 455.0,276.3 456.4,278.8 457.8,280.7 459.2,281.9 460.7,282.8 462.1,283.3 463.5,283.7 464.9,283.9 466.4,284.1 467.8,284.1 469.2,284.2 470.6,284.2 472.1,284.3 473.5,284.3 474.9,284.3 476.3,284.4 477.8,284.4 479.2,284.4 480.6,284.4 482.1,284.4 483.5,284.5 484.9,284.5 486.3,284.5 487.8,284.5 489.2,284.5 490.6,284.5 492.0,284.5 493.5,284.5 494.9,284.5 496.3,284.5 497.7,284.5 499.2,284.5 500.6,284.5 502.0,284.5 503.4,284.5 504.9,284.5 506.3,284.5 507.7,284.5 509.1,284.5 510.6,284.5 512.0,284.5 513.4,284.5 514.8,284.5 516.3,284.5 517.7,284.5 519.1,284.5 520.5,284.5 522.0,284.5 523.4,284.5 524.8,284.5 526.3,284.5 527.7,284.5 529.1,284.5 530.5,284.5 532.0,284.5 533.4,284.5 534.8,284.5 536.2,284.5 537.7,284.5 539.1,284.5 540.5,284.5 541.9,284.5 543.4,284.5 544.8,284.5 546.2,284.5 547.6,284.5 549.1,284.5 550.5,284.5 551.9,284.5 553.3,284.5 554.8,284.5 556.2,284.5 557.6,284.5 559.0,284.5 560.5,284.5 561.9,284.5 563.3,284.5 564.7,284.5 566.2,284.5 567.6,284.5 569.0,284.5 570.4,284.5 571.9,284.5 573.3,284.5 574.7,284.5 576.2,284.5 577.6,284.5 579.0,284.5 580.4,284.5 581.9,284.5 583.3,284.5 584.7,284.5 586.1,284.5 587.6,284.5 589.0,284.5 590.4,284.5 591.8,284.5 593.3,284.5 594.7,284.5 596.1,284.5 597.5,284.5 599.0,284.5 600.4,284.5 601.8,284.5 603.2,284.5 604.7,284.5 606.1,284.5 607.5,284.5 608.9,284.5 610.4,284.5 611.8,284.5 613.2,284.5 614.6,284.5 616.1,284.5 617.5,284.5 618.9,284.5 620.4,284.5 621.8,284.5 623.2,284.5 624.6,284.5 626.1,284.5 627.5,284.5 628.9,284.5 630.3,284.5 631.8,284.5 633.2,284.5 634.6,284.5 636.0,284.5 637.5,284.5 638.9,284.5 640.3,284.5 641.7,284.5 643.2,284.5 644.6,284.5 646.0,284.5 647.4,284.5 648.9,284.5 650.3,284.5 651.7,284.5 653.1,284.5 654.6,284.5 656.0,284.5 657.4,284.5 658.8,284.5 660.3,284.5 661.7,284.5 663.1,284.5 664.6,284.5 666.0,284.5 667.4,284.5 668.8,284.5 670.3,284.5 671.7,284.5 673.1,284.5 674.5,284.5 676.0,284.5 677.4,284.5 678.8,284.5 680.2,284.5 681.7,284.5 683.1,284.5 684.5,284.5 685.9,284.5 687.4,284.5 688.8,284.5 690.2,284.5 691.6,284.5 693.1,284.5 694.5,284.5 695.9,284.5 697.3,284.5 698.8,284.5 700.2,284.5 701.6,284.5 703.0,284.5 704.5,284.5 705.9,284.5 707.3,284.5 708.8,284.5 710.2,284.5 711.6,284.5 713.0,284.5 714.5,284.5 715.9,284.5 717.3,284.5 718.7,284.5 720.2,284.5 721.6,284.5 723.0,284.5 724.4,284.5 725.9,284.5 727.3,284.5 728.7,284.5 730.1,284.5 731.6,284.5 733.0,284.5 734.4,284.5 735.8,284.5 737.3,284.5 738.7,284.5 740.1,284.5 741.5,284.5 743.0,284.5 744.4,284.5 745.8,284.5 747.2,284.5 748.7,284.5 750.1,284.5 751.5,284.5 752.9,284.5 754.4,284.5 755.8,284.5 757.2,284.5 758.7,284.5 760.1,284.5 761.5,284.5 762.9,284.5 764.4,284.5 765.8,284.5 767.2,284.5 768.6,284.5 770.1,284.5 771.5,284.5 772.9,284.5 774.3,284.5 775.8,284.5 777.2,284.5 778.6,284.5 780.0,284.5 781.5,284.5 782.9,284.5 784.3,284.5 785.7,284.5 787.2,284.5 788.6,284.5 790.0,284.5 791.4,284.5 792.9,284.5 794.3,284.5 795.7,284.5 797.1,284.5 798.6,284.5 L798.6,284.5 L435.0,284.5 Z" fill="url(#g491)"/>
  <defs><clipPath id="pc492"><rect x="435" y="207" width="365" height="155"/></clipPath></defs>
  <polyline points="435.0,220.2 436.4,214.1 437.9,208.9 439.3,207.0 440.7,208.9 442.1,214.1 443.6,221.7 445.0,230.5 446.4,239.6 447.8,248.3 449.3,256.2 450.7,262.9 452.1,268.5 453.5,272.9 455.0,276.3 456.4,278.8 457.8,280.7 459.2,281.9 460.7,282.8 462.1,283.3 463.5,283.7 464.9,283.9 466.4,284.1 467.8,284.1 469.2,284.2 470.6,284.2 472.1,284.3 473.5,284.3 474.9,284.3 476.3,284.4 477.8,284.4 479.2,284.4 480.6,284.4 482.1,284.4 483.5,284.5 484.9,284.5 486.3,284.5 487.8,284.5 489.2,284.5 490.6,284.5 492.0,284.5 493.5,284.5 494.9,284.5 496.3,284.5 497.7,284.5 499.2,284.5 500.6,284.5 502.0,284.5 503.4,284.5 504.9,284.5 506.3,284.5 507.7,284.5 509.1,284.5 510.6,284.5 512.0,284.5 513.4,284.5 514.8,284.5 516.3,284.5 517.7,284.5 519.1,284.5 520.5,284.5 522.0,284.5 523.4,284.5 524.8,284.5 526.3,284.5 527.7,284.5 529.1,284.5 530.5,284.5 532.0,284.5 533.4,284.5 534.8,284.5 536.2,284.5 537.7,284.5 539.1,284.5 540.5,284.5 541.9,284.5 543.4,284.5 544.8,284.5 546.2,284.5 547.6,284.5 549.1,284.5 550.5,284.5 551.9,284.5 553.3,284.5 554.8,284.5 556.2,284.5 557.6,284.5 559.0,284.5 560.5,284.5 561.9,284.5 563.3,284.5 564.7,284.5 566.2,284.5 567.6,284.5 569.0,284.5 570.4,284.5 571.9,284.5 573.3,284.5 574.7,284.5 576.2,284.5 577.6,284.5 579.0,284.5 580.4,284.5 581.9,284.5 583.3,284.5 584.7,284.5 586.1,284.5 587.6,284.5 589.0,284.5 590.4,284.5 591.8,284.5 593.3,284.5 594.7,284.5 596.1,284.5 597.5,284.5 599.0,284.5 600.4,284.5 601.8,284.5 603.2,284.5 604.7,284.5 606.1,284.5 607.5,284.5 608.9,284.5 610.4,284.5 611.8,284.5 613.2,284.5 614.6,284.5 616.1,284.5 617.5,284.5 618.9,284.5 620.4,284.5 621.8,284.5 623.2,284.5 624.6,284.5 626.1,284.5 627.5,284.5 628.9,284.5 630.3,284.5 631.8,284.5 633.2,284.5 634.6,284.5 636.0,284.5 637.5,284.5 638.9,284.5 640.3,284.5 641.7,284.5 643.2,284.5 644.6,284.5 646.0,284.5 647.4,284.5 648.9,284.5 650.3,284.5 651.7,284.5 653.1,284.5 654.6,284.5 656.0,284.5 657.4,284.5 658.8,284.5 660.3,284.5 661.7,284.5 663.1,284.5 664.6,284.5 666.0,284.5 667.4,284.5 668.8,284.5 670.3,284.5 671.7,284.5 673.1,284.5 674.5,284.5 676.0,284.5 677.4,284.5 678.8,284.5 680.2,284.5 681.7,284.5 683.1,284.5 684.5,284.5 685.9,284.5 687.4,284.5 688.8,284.5 690.2,284.5 691.6,284.5 693.1,284.5 694.5,284.5 695.9,284.5 697.3,284.5 698.8,284.5 700.2,284.5 701.6,284.5 703.0,284.5 704.5,284.5 705.9,284.5 707.3,284.5 708.8,284.5 710.2,284.5 711.6,284.5 713.0,284.5 714.5,284.5 715.9,284.5 717.3,284.5 718.7,284.5 720.2,284.5 721.6,284.5 723.0,284.5 724.4,284.5 725.9,284.5 727.3,284.5 728.7,284.5 730.1,284.5 731.6,284.5 733.0,284.5 734.4,284.5 735.8,284.5 737.3,284.5 738.7,284.5 740.1,284.5 741.5,284.5 743.0,284.5 744.4,284.5 745.8,284.5 747.2,284.5 748.7,284.5 750.1,284.5 751.5,284.5 752.9,284.5 754.4,284.5 755.8,284.5 757.2,284.5 758.7,284.5 760.1,284.5 761.5,284.5 762.9,284.5 764.4,284.5 765.8,284.5 767.2,284.5 768.6,284.5 770.1,284.5 771.5,284.5 772.9,284.5 774.3,284.5 775.8,284.5 777.2,284.5 778.6,284.5 780.0,284.5 781.5,284.5 782.9,284.5 784.3,284.5 785.7,284.5 787.2,284.5 788.6,284.5 790.0,284.5 791.4,284.5 792.9,284.5 794.3,284.5 795.7,284.5 797.1,284.5 798.6,284.5" fill="none" stroke="#f39c12" stroke-width="1.3" stroke-linejoin="round" clip-path="url(#pc492)"/>
</svg>
