<svg xmlns="http://www.w3.org/2000/svg" viewBox="0 0 820 378" style="font-family:system-ui,-apple-system,sans-serif">
  <text x="800" y="11" text-anchor="end" font-size="11" font-weight="600" fill="#6b7280">Half-band FIR, 31 taps</text>
  <line x1="34" y1="16" x2="34" y2="171" stroke="#d1d5db"/>
  <line x1="34" y1="47.0" x2="399" y2="47.0" stroke="#d1d5db"/>
  <text x="216.5" y="197" text-anchor="middle" font-size="9" fill="#6b7280">Hz</text>
  <text x="12" y="93.5" text-anchor="middle" font-size="9" fill="#6b7280" transform="rotate(-90 12 93.5)">dB</text>
  <line x1="67.3" y1="16" x2="67.3" y2="171" stroke="#e5e7eb" stroke-width="0.5"/>
  <line x1="86.8" y1="16" x2="86.8" y2="171" stroke="#e5e7eb" stroke-width="0.5"/>
  <line x1="100.6" y1="16" x2="100.6" y2="171" stroke="#e5e7eb" stroke-width="0.5"/>
  <line x1="111.3" y1="16" x2="111.3" y2="171" stroke="#e5e7eb" stroke-width="0.5"/>
  <line x1="120.0" y1="16" x2="120.0" y2="171" stroke="#e5e7eb" stroke-width="0.5"/>
  <line x1="127.4" y1="16" x2="127.4" y2="171" stroke="#e5e7eb" stroke-width="0.5"/>
  <line x1="133.9" y1="16" x2="133.9" y2="171" stroke="#e5e7eb" stroke-width="0.5"/>
  <line x1="139.5" y1="16" x2="139.5" y2="171" stroke="#e5e7eb" stroke-width="0.5"/>
  <line x1="177.9" y1="16" x2="177.9" y2="171" stroke="#e5e7eb" stroke-width="0.5"/>
  <line x1="197.3" y1="16" x2="197.3" y2="171" stroke="#e5e7eb" stroke-width="0.5"/>
  <line x1="211.1" y1="16" x2="211.1" y2="171" stroke="#e5e7eb" stroke-width="0.5"/>
  <line x1="221.9" y1="16" x2="221.9" y2="171" stroke="#e5e7eb" stroke-width="0.5"/>
  <line x1="230.6" y1="16" x2="230.6" y2="171" stroke="#e5e7eb" stroke-width="0.5"/>
  <line x1="238.0" y1="16" x2="238.0" y2="171" stroke="#e5e7eb" stroke-width="0.5"/>
  <line x1="244.4" y1="16" x2="244.4" y2="171" stroke="#e5e7eb" stroke-width="0.5"/>
  <line x1="250.1" y1="16" x2="250.1" y2="171" stroke="#e5e7eb" stroke-width="0.5"/>
  <line x1="288.4" y1="16" x2="288.4" y2="171" stroke="#e5e7eb" stroke-width="0.5"/>
  <line x1="307.9" y1="16" x2="307.9" y2="171" stroke="#e5e7eb" stroke-width="0.5"/>
  <line x1="321.7" y1="16" x2="321.7" y2="171" stroke="#e5e7eb" stroke-width="0.5"/>
  <line x1="332.4" y1="16" x2="332.4" y2="171" stroke="#e5e7eb" stroke-width="0.5"/>
  <line x1="341.2" y1="16" x2="341.2" y2="171" stroke="#e5e7eb" stroke-width="0.5"/>
  <line x1="348.6" y1="16" x2="348.6" y2="171" stroke="#e5e7eb" stroke-width="0.5"/>
  <line x1="355.0" y1="16" x2="355.0" y2="171" stroke="#e5e7eb" stroke-width="0.5"/>
  <line x1="360.7" y1="16" x2="360.7" y2="171" stroke="#e5e7eb" stroke-width="0.5"/>
  <line x1="399.0" y1="16" x2="399.0" y2="171" stroke="#e5e7eb" stroke-width="0.5"/>
  <line x1="144.6" y1="16" x2="144.6" y2="171" stroke="#e5e7eb" stroke-width="0.5"/>
  <text x="144.6" y="183" text-anchor="middle" font-size="8" fill="#6b7280">100</text>
  <line x1="255.1" y1="16" x2="255.1" y2="171" stroke="#e5e7eb" stroke-width="0.5"/>
  <text x="255.1" y="183" text-anchor="middle" font-size="8" fill="#6b7280">1k</text>
  <line x1="365.7" y1="16" x2="365.7" y2="171" stroke="#e5e7eb" stroke-width="0.5"/>
  <text x="365.7" y="183" text-anchor="middle" font-size="8" fill="#6b7280">10k</text>
  <line x1="34" y1="31.5" x2="399" y2="31.5" stroke="#e5e7eb" stroke-width="0.5"/>
  <line x1="34" y1="62.5" x2="399" y2="62.5" stroke="#e5e7eb" stroke-width="0.5"/>
  <line x1="34" y1="16.0" x2="399" y2="16.0" stroke="#e5e7eb" stroke-width="0.5"/>
  <text x="30" y="19.0" text-anchor="end" font-size="8" fill="#6b7280">+20</text>
  <text x="30" y="50.0" text-anchor="end" font-size="8" fill="#6b7280">0</text>
  <line x1="34" y1="78.0" x2="399" y2="78.0" stroke="#e5e7eb" stroke-width="0.5"/>
  <text x="30" y="81.0" text-anchor="end" font-size="8" fill="#6b7280">-20</text>
  <line x1="34" y1="109.0" x2="399" y2="109.0" stroke="#e5e7eb" stroke-width="0.5"/>
  <text x="30" y="112.0" text-anchor="end" font-size="8" fill="#6b7280">-40</text>
  <line x1="34" y1="140.0" x2="399" y2="140.0" stroke="#e5e7eb" stroke-width="0.5"/>
  <text x="30" y="143.0" text-anchor="end" font-size="8" fill="#6b7280">-60</text>
  <line x1="34" y1="171.0" x2="399" y2="171.0" stroke="#e5e7eb" stroke-width="0.5"/>
  <text x="30" y="174.0" text-anchor="end" font-size="8" fill="#6b7280">-80</text>
  <defs><linearGradient id="g625" x1="0" y1="16" x2="0" y2="171" gradientUnits="userSpaceOnUse">
    <stop offset="0%" stop-color="#4a90d9" stop-opacity="0.15"/>
    <stop offset="100%" stop-color="#4a90d9" stop-opacity="0.02"/>
  </linearGradient></defs>
  <path d="M37.5,47.0 37.5,47.0 70.8,47.0 90.3,47.0 104.1,47.0 114.8,47.0 123.6,47.0 131.0,47.0 137.4,47.0 143.1,47.0 148.1,47.0 152.7,47.0 156.9,47.0 160.7,47.0 164.3,47.0 167.6,47.0 170.7,47.0 173.6,47.0 176.3,47.0 178.9,47.0 181.4,47.0 183.7,47.0 186.0,47.0 188.1,47.0 190.2,47.0 192.1,47.0 194.0,47.0 195.8,47.0 197.6,47.0 199.2,47.0 200.9,47.0 202.4,47.0 204.0,47.0 205.5,47.0 206.9,47.0 208.3,47.0 209.6,47.0 210.9,47.0 212.2,47.0 213.5,47.0 214.7,47.0 215.9,47.0 217.0,47.0 218.2,47.0 219.3,47.0 220.3,47.0 221.4,47.0 222.4,47.0 223.4,47.0 224.4,47.0 225.4,47.0 226.4,47.0 227.3,47.0 228.2,47.0 229.1,47.0 230.0,47.0 230.8,47.0 231.7,47.0 232.5,47.0 233.4,47.0 234.2,47.0 235.7,47.0 237.3,47.0 238.7,47.0 240.2,47.0 241.6,47.0 242.9,47.0 244.2,47.0 245.5,47.0 246.8,47.0 248.0,47.0 249.2,47.0 250.3,47.0 251.4,47.0 252.6,47.0 253.6,47.0 254.7,47.0 255.7,47.0 256.7,47.0 257.7,47.0 258.7,47.0 259.6,47.0 260.6,47.0 261.5,47.0 262.4,47.0 263.3,47.0 264.1,47.0 265.0,47.0 265.8,47.0 266.6,47.0 267.4,47.0 268.6,47.0 269.8,47.0 270.9,47.0 272.0,47.0 273.1,47.0 274.2,47.0 275.2,47.0 276.2,47.0 277.2,47.0 278.2,47.0 279.1,47.0 280.0,47.0 281.0,47.0 281.9,47.0 282.7,47.0 283.6,47.0 284.5,47.0 285.3,47.0 286.1,47.0 286.9,47.0 288.0,47.0 289.0,47.0 290.0,47.0 291.0,47.0 292.0,47.0 292.9,47.0 293.9,47.0 294.8,47.0 295.7,47.0 296.6,47.0 297.4,47.0 298.3,47.0 299.1,47.0 299.9,47.0 300.7,47.0 301.7,47.0 302.7,47.0 303.6,47.0 304.6,47.0 305.5,47.0 306.4,47.0 307.3,47.0 308.1,47.0 309.0,47.0 309.8,47.0 310.6,47.0 311.4,47.0 312.4,47.0 313.3,47.0 314.2,47.0 315.1,47.0 316.0,47.0 316.9,47.0 317.7,47.0 318.6,47.0 319.4,47.0 320.2,47.0 321.1,47.0 322.0,47.0 322.9,47.0 323.8,47.0 324.7,47.0 325.5,47.0 326.3,47.0 327.1,47.0 327.9,47.0 328.8,47.0 329.7,47.0 330.6,47.0 331.4,47.0 332.3,47.0 333.1,47.0 333.9,47.0 334.8,47.0 335.7,47.0 336.5,47.0 337.4,47.0 338.2,47.0 339.0,47.0 339.8,47.0 340.7,47.0 341.6,47.0 342.4,47.0 343.3,47.0 344.1,47.0 344.9,47.0 345.8,47.0 346.6,47.0 347.5,47.0 348.3,47.0 349.1,47.0 350.0,47.0 350.8,47.0 351.7,47.0 352.5,47.0 353.3,47.1 354.1,47.1 355.0,47.1 355.8,47.2 356.6,47.2 357.5,47.3 358.3,47.4 359.1,47.6 360.0,47.7 360.8,48.0 361.6,48.2 362.5,48.6 363.3,48.9 364.1,49.4 364.9,49.9 365.8,50.6 366.6,51.3 367.4,52.1 368.2,53.1 369.1,54.2 369.9,55.4 370.7,56.9 371.6,58.6 372.4,60.4 373.2,62.4 374.0,64.8 374.8,67.4 375.6,70.2 376.5,73.6 377.3,77.3 378.1,81.3 378.9,86.1 379.7,91.4 380.5,97.3 381.4,104.3 382.2,112.5 383.0,122.1 383.8,134.4 384.6,151.1 385.5,171.0 386.3,171.0 387.1,171.0 387.9,171.0 388.7,171.0 389.5,171.0 390.3,171.0 391.2,171.0 392.0,171.0 392.8,171.0 393.6,171.0 394.4,171.0 395.2,171.0 396.0,171.0 396.8,171.0 397.6,171.0 398.5,171.0 L398.5,171.0 L37.5,171.0 Z" fill="url(#g625)"/>
  <defs><clipPath id="pc626"><rect x="34" y="16" width="365" height="155"/></clipPath></defs>
  <polyline points="37.5,47.0 70.8,47.0 90.3,47.0 104.1,47.0 114.8,47.0 123.6,47.0 131.0,47.0 137.4,47.0 143.1,47.0 148.1,47.0 152.7,47.0 156.9,47.0 160.7,47.0 164.3,47.0 167.6,47.0 170.7,47.0 173.6,47.0 176.3,47.0 178.9,47.0 181.4,47.0 183.7,47.0 186.0,47.0 188.1,47.0 190.2,47.0 192.1,47.0 194.0,47.0 195.8,47.0 197.6,47.0 199.2,47.0 200.9,47.0 202.4,47.0 204.0,47.0 205.5,47.0 206.9,47.0 208.3,47.0 209.6,47.0 210.9,47.0 212.2,47.0 213.5,47.0 214.7,47.0 215.9,47.0 217.0,47.0 218.2,47.0 219.3,47.0 220.3,47.0 221.4,47.0 222.4,47.0 223.4,47.0 224.4,47.0 225.4,47.0 226.4,47.0 227.3,47.0 228.2,47.0 229.1,47.0 230.0,47.0 230.8,47.0 231.7,47.0 232.5,47.0 233.4,47.0 234.2,47.0 235.7,47.0 237.3,47.0 238.7,47.0 240.2,47.0 241.6,47.0 242.9,47.0 244.2,47.0 245.5,47.0 246.8,47.0 248.0,47.0 249.2,47.0 250.3,47.0 251.4,47.0 252.6,47.0 253.6,47.0 254.7,47.0 255.7,47.0 256.7,47.0 257.7,47.0 258.7,47.0 259.6,47.0 260.6,47.0 261.5,47.0 262.4,47.0 263.3,47.0 264.1,47.0 265.0,47.0 265.8,47.0 266.6,47.0 267.4,47.0 268.6,47.0 269.8,47.0 270.9,47.0 272.0,47.0 273.1,47.0 274.2,47.0 275.2,47.0 276.2,47.0 277.2,47.0 278.2,47.0 279.1,47.0 280.0,47.0 281.0,47.0 281.9,47.0 282.7,47.0 283.6,47.0 284.5,47.0 285.3,47.0 286.1,47.0 286.9,47.0 288.0,47.0 289.0,47.0 290.0,47.0 291.0,47.0 292.0,47.0 292.9,47.0 293.9,47.0 294.8,47.0 295.7,47.0 296.6,47.0 297.4,47.0 298.3,47.0 299.1,47.0 299.9,47.0 300.7,47.0 301.7,47.0 302.7,47.0 303.6,47.0 304.6,47.0 305.5,47.0 306.4,47.0 307.3,47.0 308.1,47.0 309.0,47.0 309.8,47.0 310.6,47.0 311.4,47.0 312.4,47.0 313.3,47.0 314.2,47.0 315.1,47.0 316.0,47.0 316.9,47.0 317.7,47.0 318.6,47.0 319.4,47.0 320.2,47.0 321.1,47.0 322.0,47.0 322.9,47.0 323.8,47.0 324.7,47.0 325.5,47.0 326.3,47.0 327.1,47.0 327.9,47.0 328.8,47.0 329.7,47.0 330.6,47.0 331.4,47.0 332.3,47.0 333.1,47.0 333.9,47.0 334.8,47.0 335.7,47.0 336.5,47.0 337.4,47.0 338.2,47.0 339.0,47.0 339.8,47.0 340.7,47.0 341.6,47.0 342.4,47.0 343.3,47.0 344.1,47.0 344.9,47.0 345.8,47.0 346.6,47.0 347.5,47.0 348.3,47.0 349.1,47.0 350.0,47.0 350.8,47.0 351.7,47.0 352.5,47.0 353.3,47.1 354.1,47.1 355.0,47.1 355.8,47.2 356.6,47.2 357.5,47.3 358.3,47.4 359.1,47.6 360.0,47.7 360.8,48.0 361.6,48.2 362.5,48.6 363.3,48.9 364.1,49.4 364.9,49.9 365.8,50.6 366.6,51.3 367.4,52.1 368.2,53.1 369.1,54.2 369.9,55.4 370.7,56.9 371.6,58.6 372.4,60.4 373.2,62.4 374.0,64.8 374.8,67.4 375.6,70.2 376.5,73.6 377.3,77.3 378.1,81.3 378.9,86.1 379.7,91.4 380.5,97.3 381.4,104.3 382.2,112.5 383.0,122.1 383.8,134.4 384.6,151.1 385.5,187.1 386.3,185.4 387.1,203.1 387.9,180.4 388.7,180.2 389.5,191.9 390.3,200.8 391.2,189.3 392.0,195.1 392.8,207.7 393.6,187.3 394.4,183.6 395.2,186.6 396.0,199.1 396.8,207.8 397.6,197.7 398.5,208.7" fill="none" stroke="#4a90d9" stroke-width="1.5" stroke-linejoin="round" clip-path="url(#pc626)"/>
  <line x1="435" y1="16" x2="435" y2="171" stroke="#d1d5db"/>
  <line x1="435" y1="93.5" x2="800" y2="93.5" stroke="#d1d5db"/>
  <text x="617.5" y="197" text-anchor="middle" font-size="9" fill="#6b7280">Hz</text>
  <text x="413" y="93.5" text-anchor="middle" font-size="9" fill="#6b7280" transform="rotate(-90 413 93.5)">Phase (deg)</text>
  <line x1="468.3" y1="16" x2="468.3" y2="171" stroke="#e5e7eb" stroke-width="0.5"/>
  <line x1="487.8" y1="16" x2="487.8" y2="171" stroke="#e5e7eb" stroke-width="0.5"/>
  <line x1="501.6" y1="16" x2="501.6" y2="171" stroke="#e5e7eb" stroke-width="0.5"/>
  <line x1="512.3" y1="16" x2="512.3" y2="171" stroke="#e5e7eb" stroke-width="0.5"/>
  <line x1="521.0" y1="16" x2="521.0" y2="171" stroke="#e5e7eb" stroke-width="0.5"/>
  <line x1="528.4" y1="16" x2="528.4" y2="171" stroke="#e5e7eb" stroke-width="0.5"/>
  <line x1="534.9" y1="16" x2="534.9" y2="171" stroke="#e5e7eb" stroke-width="0.5"/>
  <line x1="540.5" y1="16" x2="540.5" y2="171" stroke="#e5e7eb" stroke-width="0.5"/>
  <line x1="578.9" y1="16" x2="578.9" y2="171" stroke="#e5e7eb" stroke-width="0.5"/>
  <line x1="598.3" y1="16" x2="598.3" y2="171" stroke="#e5e7eb" stroke-width="0.5"/>
  <line x1="612.1" y1="16" x2="612.1" y2="171" stroke="#e5e7eb" stroke-width="0.5"/>
  <line x1="622.9" y1="16" x2="622.9" y2="171" stroke="#e5e7eb" stroke-width="0.5"/>
  <line x1="631.6" y1="16" x2="631.6" y2="171" stroke="#e5e7eb" stroke-width="0.5"/>
  <line x1="639.0" y1="16" x2="639.0" y2="171" stroke="#e5e7eb" stroke-width="0.5"/>
  <line x1="645.4" y1="16" x2="645.4" y2="171" stroke="#e5e7eb" stroke-width="0.5"/>
  <line x1="651.1" y1="16" x2="651.1" y2="171" stroke="#e5e7eb" stroke-width="0.5"/>
  <line x1="689.4" y1="16" x2="689.4" y2="171" stroke="#e5e7eb" stroke-width="0.5"/>
  <line x1="708.9" y1="16" x2="708.9" y2="171" stroke="#e5e7eb" stroke-width="0.5"/>
  <line x1="722.7" y1="16" x2="722.7" y2="171" stroke="#e5e7eb" stroke-width="0.5"/>
  <line x1="733.4" y1="16" x2="733.4" y2="171" stroke="#e5e7eb" stroke-width="0.5"/>
  <line x1="742.2" y1="16" x2="742.2" y2="171" stroke="#e5e7eb" stroke-width="0.5"/>
  <line x1="749.6" y1="16" x2="749.6" y2="171" stroke="#e5e7eb" stroke-width="0.5"/>
  <line x1="756.0" y1="16" x2="756.0" y2="171" stroke="#e5e7eb" stroke-width="0.5"/>
  <line x1="761.7" y1="16" x2="761.7" y2="171" stroke="#e5e7eb" stroke-width="0.5"/>
  <line x1="800.0" y1="16" x2="800.0" y2="171" stroke="#e5e7eb" stroke-width="0.5"/>
  <line x1="545.6" y1="16" x2="545.6" y2="171" stroke="#e5e7eb" stroke-width="0.5"/>
  <text x="545.6" y="183" text-anchor="middle" font-size="8" fill="#6b7280">100</text>
  <line x1="656.1" y1="16" x2="656.1" y2="171" stroke="#e5e7eb" stroke-width="0.5"/>
  <text x="656.1" y="183" text-anchor="middle" font-size="8" fill="#6b7280">1k</text>
  <line x1="766.7" y1="16" x2="766.7" y2="171" stroke="#e5e7eb" stroke-width="0.5"/>
  <text x="766.7" y="183" text-anchor="middle" font-size="8" fill="#6b7280">10k</text>
  <line x1="435" y1="58.6" x2="800" y2="58.6" stroke="#e5e7eb" stroke-width="0.5"/>
  <line x1="435" y1="128.4" x2="800" y2="128.4" stroke="#e5e7eb" stroke-width="0.5"/>
  <line x1="435" y1="23.8" x2="800" y2="23.8" stroke="#e5e7eb" stroke-width="0.5"/>
  <text x="431" y="26.8" text-anchor="end" font-size="8" fill="#6b7280">180</text>
  <text x="431" y="96.5" text-anchor="end" font-size="8" fill="#6b7280">0</text>
  <line x1="435" y1="163.3" x2="800" y2="163.3" stroke="#e5e7eb" stroke-width="0.5"/>
  <text x="431" y="166.3" text-anchor="end" font-size="8" fill="#6b7280">-180</text>
  <defs><linearGradient id="g627" x1="0" y1="16" x2="0" y2="93.5" gradientUnits="userSpaceOnUse">
    <stop offset="0%" stop-color="#e74c3c" stop-opacity="0.15"/>
    <stop offset="100%" stop-color="#e74c3c" stop-opacity="0.02"/>
  </linearGradient></defs>
  <defs><linearGradient id="g628" x1="0" y1="171" x2="0" y2="93.5" gradientUnits="userSpaceOnUse">
    <stop offset="0%" stop-color="#e74c3c" stop-opacity="0.15"/>
    <stop offset="100%" stop-color="#e74c3c" stop-opacity="0.02"/>
  </linearGradient></defs>
  <defs><clipPath id="c629"><rect x="435" y="16" width="365" height="77.5"/></clipPath></defs>
  <defs><clipPath id="c630"><rect x="435" y="93.5" width="365" height="77.5"/></clipPath></defs>
  <path d="M438.5,94.0 438.5,94.0 471.8,94.5 491.3,95.0 505.1,95.5 515.8,96.1 524.6,96.6 532.0,97.1 538.4,97.6 544.1,98.1 549.1,98.6 553.7,99.1 557.9,99.6 561.7,100.1 565.3,100.7 568.6,101.2 571.7,101.7 574.6,102.2 577.3,102.7 579.9,103.2 582.4,103.7 584.7,104.2 587.0,104.7 589.1,105.2 591.2,105.8 593.1,106.3 595.0,106.8 596.8,107.3 598.6,107.8 600.2,108.3 601.9,108.8 603.4,109.3 605.0,109.8 606.5,110.4 607.9,110.9 609.3,111.4 610.6,111.9 611.9,112.4 613.2,112.9 614.5,113.4 615.7,113.9 616.9,114.4 618.0,115.0 619.2,115.5 620.3,116.0 621.3,116.5 622.4,117.0 623.4,117.5 624.4,118.0 625.4,118.5 626.4,119.0 627.4,119.6 628.3,120.1 629.2,120.6 630.1,121.1 631.0,121.6 631.8,122.1 632.7,122.6 633.5,123.1 634.4,123.6 635.2,124.2 636.7,125.2 638.3,126.2 639.7,127.2 641.2,128.2 642.6,129.3 643.9,130.3 645.2,131.3 646.5,132.3 647.8,133.3 649.0,134.4 650.2,135.4 651.3,136.4 652.4,137.4 653.6,138.5 654.6,139.5 655.7,140.5 656.7,141.5 657.7,142.5 658.7,143.6 659.7,144.6 660.6,145.6 661.6,146.6 662.5,147.7 663.4,148.7 664.3,149.7 665.1,150.7 666.0,151.7 666.8,152.8 667.6,153.8 668.4,154.8 669.6,156.3 670.8,157.9 671.9,159.4 673.0,160.9 674.1,162.5 675.2,24.5 676.2,26.0 677.2,27.6 678.2,29.1 679.2,30.6 680.1,32.2 681.0,33.7 682.0,35.2 682.9,36.8 683.7,38.3 684.6,39.8 685.5,41.4 686.3,42.9 687.1,44.4 687.9,46.0 689.0,48.0 690.0,50.0 691.0,52.1 692.0,54.1 693.0,56.2 693.9,58.2 694.9,60.3 695.8,62.3 696.7,64.3 697.6,66.4 698.4,68.4 699.3,70.5 700.1,72.5 700.9,74.6 701.7,76.6 702.7,79.2 703.7,81.7 704.6,84.3 705.6,86.8 706.5,89.4 707.4,91.9 708.3,94.5 709.1,97.0 710.0,99.6 710.8,102.2 711.6,104.7 712.4,107.3 713.4,110.3 714.3,113.4 715.2,116.5 716.1,119.5 717.0,122.6 717.9,125.7 718.7,128.7 719.6,131.8 720.4,134.8 721.2,137.9 722.1,141.5 723.0,145.1 723.9,148.6 724.8,152.2 725.7,155.8 726.5,159.4 727.3,162.9 728.1,27.0 728.9,30.6 729.8,34.7 730.7,38.8 731.6,42.9 732.4,46.9 733.3,51.0 734.1,55.1 734.9,59.2 735.8,63.8 736.7,68.4 737.5,73.0 738.4,77.6 739.2,82.2 740.0,86.8 740.8,91.4 741.7,96.5 742.6,101.6 743.4,106.7 744.3,111.8 745.1,116.9 745.9,122.0 746.8,127.7 747.6,133.3 748.5,138.9 749.3,144.5 750.1,150.1 751.0,156.3 751.8,162.4 752.7,29.0 753.5,35.2 754.3,41.3 755.1,47.9 756.0,54.6 756.8,61.2 757.6,67.9 758.5,74.5 759.3,81.6 760.1,88.8 761.0,96.0 761.8,103.1 762.6,110.8 763.5,118.4 764.3,126.1 765.1,133.8 765.9,141.9 766.8,150.1 767.6,158.3 768.4,27.0 769.2,35.6 770.1,44.3 770.9,53.0 771.7,62.2 772.6,71.4 773.4,80.6 774.2,89.8 775.0,99.5 775.8,109.2 776.6,118.9 777.5,129.1 778.3,139.3 779.1,149.6 779.9,160.3 780.7,31.5 781.5,42.2 782.4,53.5 783.2,64.7 784.0,76.0 784.8,87.7 785.6,99.5 786.5,111.7 787.3,54.2 788.1,136.2 788.9,149.0 789.7,161.8 790.5,35.6 791.3,118.6 792.2,132.4 793.0,146.2 793.8,90.2 794.6,104.5 795.4,118.8 796.2,133.7 797.0,148.5 797.8,94.0 798.6,109.4 799.5,125.2 L799.5,93.5 L438.5,93.5 Z" fill="url(#g627)" clip-path="url(#c629)"/>
  <path d="M438.5,94.0 438.5,94.0 471.8,94.5 491.3,95.0 505.1,95.5 515.8,96.1 524.6,96.6 532.0,97.1 538.4,97.6 544.1,98.1 549.1,98.6 553.7,99.1 557.9,99.6 561.7,100.1 565.3,100.7 568.6,101.2 571.7,101.7 574.6,102.2 577.3,102.7 579.9,103.2 582.4,103.7 584.7,104.2 587.0,104.7 589.1,105.2 591.2,105.8 593.1,106.3 595.0,106.8 596.8,107.3 598.6,107.8 600.2,108.3 601.9,108.8 603.4,109.3 605.0,109.8 606.5,110.4 607.9,110.9 609.3,111.4 610.6,111.9 611.9,112.4 613.2,112.9 614.5,113.4 615.7,113.9 616.9,114.4 618.0,115.0 619.2,115.5 620.3,116.0 621.3,116.5 622.4,117.0 623.4,117.5 624.4,118.0 625.4,118.5 626.4,119.0 627.4,119.6 628.3,120.1 629.2,120.6 630.1,121.1 631.0,121.6 631.8,122.1 632.7,122.6 633.5,123.1 634.4,123.6 635.2,124.2 636.7,125.2 638.3,126.2 639.7,127.2 641.2,128.2 642.6,129.3 643.9,130.3 645.2,131.3 646.5,132.3 647.8,133.3 649.0,134.4 650.2,135.4 651.3,136.4 652.4,137.4 653.6,138.5 654.6,139.5 655.7,140.5 656.7,141.5 657.7,142.5 658.7,143.6 659.7,144.6 660.6,145.6 661.6,146.6 662.5,147.7 663.4,148.7 664.3,149.7 665.1,150.7 666.0,151.7 666.8,152.8 667.6,153.8 668.4,154.8 669.6,156.3 670.8,157.9 671.9,159.4 673.0,160.9 674.1,162.5 675.2,24.5 676.2,26.0 677.2,27.6 678.2,29.1 679.2,30.6 680.1,32.2 681.0,33.7 682.0,35.2 682.9,36.8 683.7,38.3 684.6,39.8 685.5,41.4 686.3,42.9 687.1,44.4 687.9,46.0 689.0,48.0 690.0,50.0 691.0,52.1 692.0,54.1 693.0,56.2 693.9,58.2 694.9,60.3 695.8,62.3 696.7,64.3 697.6,66.4 698.4,68.4 699.3,70.5 700.1,72.5 700.9,74.6 701.7,76.6 702.7,79.2 703.7,81.7 704.6,84.3 705.6,86.8 706.5,89.4 707.4,91.9 708.3,94.5 709.1,97.0 710.0,99.6 710.8,102.2 711.6,104.7 712.4,107.3 713.4,110.3 714.3,113.4 715.2,116.5 716.1,119.5 717.0,122.6 717.9,125.7 718.7,128.7 719.6,131.8 720.4,134.8 721.2,137.9 722.1,141.5 723.0,145.1 723.9,148.6 724.8,152.2 725.7,155.8 726.5,159.4 727.3,162.9 728.1,27.0 728.9,30.6 729.8,34.7 730.7,38.8 731.6,42.9 732.4,46.9 733.3,51.0 734.1,55.1 734.9,59.2 735.8,63.8 736.7,68.4 737.5,73.0 738.4,77.6 739.2,82.2 740.0,86.8 740.8,91.4 741.7,96.5 742.6,101.6 743.4,106.7 744.3,111.8 745.1,116.9 745.9,122.0 746.8,127.7 747.6,133.3 748.5,138.9 749.3,144.5 750.1,150.1 751.0,156.3 751.8,162.4 752.7,29.0 753.5,35.2 754.3,41.3 755.1,47.9 756.0,54.6 756.8,61.2 757.6,67.9 758.5,74.5 759.3,81.6 760.1,88.8 761.0,96.0 761.8,103.1 762.6,110.8 763.5,118.4 764.3,126.1 765.1,133.8 765.9,141.9 766.8,150.1 767.6,158.3 768.4,27.0 769.2,35.6 770.1,44.3 770.9,53.0 771.7,62.2 772.6,71.4 773.4,80.6 774.2,89.8 775.0,99.5 775.8,109.2 776.6,118.9 777.5,129.1 778.3,139.3 779.1,149.6 779.9,160.3 780.7,31.5 781.5,42.2 782.4,53.5 783.2,64.7 784.0,76.0 784.8,87.7 785.6,99.5 786.5,111.7 787.3,54.2 788.1,136.2 788.9,149.0 789.7,161.8 790.5,35.6 791.3,118.6 792.2,132.4 793.0,146.2 793.8,90.2 794.6,104.5 795.4,118.8 796.2,133.7 797.0,148.5 797.8,94.0 798.6,109.4 799.5,125.2 L799.5,93.5 L438.5,93.5 Z" fill="url(#g628)" clip-path="url(#c630)"/>
  <defs><clipPath id="pc631"><rect x="435" y="16" width="365" height="155"/></clipPath></defs>
  <polyline points="438.5,94.0 471.8,94.5 491.3,95.0 505.1,95.5 515.8,96.1 524.6,96.6 532.0,97.1 538.4,97.6 544.1,98.1 549.1,98.6 553.7,99.1 557.9,99.6 561.7,100.1 565.3,100.7 568.6,101.2 571.7,101.7 574.6,102.2 577.3,102.7 579.9,103.2 582.4,103.7 584.7,104.2 587.0,104.7 589.1,105.2 591.2,105.8 593.1,106.3 595.0,106.8 596.8,107.3 598.6,107.8 600.2,108.3 601.9,108.8 603.4,109.3 605.0,109.8 606.5,110.4 607.9,110.9 609.3,111.4 610.6,111.9 611.9,112.4 613.2,112.9 614.5,113.4 615.7,113.9 616.9,114.4 618.0,115.0 619.2,115.5 620.3,116.0 621.3,116.5 622.4,117.0 623.4,117.5 624.4,118.0 625.4,118.5 626.4,119.0 627.4,119.6 628.3,120.1 629.2,120.6 630.1,121.1 631.0,121.6 631.8,122.1 632.7,122.6 633.5,123.1 634.4,123.6 635.2,124.2 636.7,125.2 638.3,126.2 639.7,127.2 641.2,128.2 642.6,129.3 643.9,130.3 645.2,131.3 646.5,132.3 647.8,133.3 649.0,134.4 650.2,135.4 651.3,136.4 652.4,137.4 653.6,138.5 654.6,139.5 655.7,140.5 656.7,141.5 657.7,142.5 658.7,143.6 659.7,144.6 660.6,145.6 661.6,146.6 662.5,147.7 663.4,148.7 664.3,149.7 665.1,150.7 666.0,151.7 666.8,152.8 667.6,153.8 668.4,154.8 669.6,156.3 670.8,157.9 671.9,159.4 673.0,160.9 674.1,162.5 675.2,24.5 676.2,26.0 677.2,27.6 678.2,29.1 679.2,30.6 680.1,32.2 681.0,33.7 682.0,35.2 682.9,36.8 683.7,38.3 684.6,39.8 685.5,41.4 686.3,42.9 687.1,44.4 687.9,46.0 689.0,48.0 690.0,50.0 691.0,52.1 692.0,54.1 693.0,56.2 693.9,58.2 694.9,60.3 695.8,62.3 696.7,64.3 697.6,66.4 698.4,68.4 699.3,70.5 700.1,72.5 700.9,74.6 701.7,76.6 702.7,79.2 703.7,81.7 704.6,84.3 705.6,86.8 706.5,89.4 707.4,91.9 708.3,94.5 709.1,97.0 710.0,99.6 710.8,102.2 711.6,104.7 712.4,107.3 713.4,110.3 714.3,113.4 715.2,116.5 716.1,119.5 717.0,122.6 717.9,125.7 718.7,128.7 719.6,131.8 720.4,134.8 721.2,137.9 722.1,141.5 723.0,145.1 723.9,148.6 724.8,152.2 725.7,155.8 726.5,159.4 727.3,162.9 728.1,27.0 728.9,30.6 729.8,34.7 730.7,38.8 731.6,42.9 732.4,46.9 733.3,51.0 734.1,55.1 734.9,59.2 735.8,63.8 736.7,68.4 737.5,73.0 738.4,77.6 739.2,82.2 740.0,86.8 740.8,91.4 741.7,96.5 742.6,101.6 743.4,106.7 744.3,111.8 745.1,116.9 745.9,122.0 746.8,127.7 747.6,133.3 748.5,138.9 749.3,144.5 750.1,150.1 751.0,156.3 751.8,162.4 752.7,29.0 753.5,35.2 754.3,41.3 755.1,47.9 756.0,54.6 756.8,61.2 757.6,67.9 758.5,74.5 759.3,81.6 760.1,88.8 761.0,96.0 761.8,103.1 762.6,110.8 763.5,118.4 764.3,126.1 765.1,133.8 765.9,141.9 766.8,150.1 767.6,158.3 768.4,27.0 769.2,35.6 770.1,44.3 770.9,53.0 771.7,62.2 772.6,71.4 773.4,80.6 774.2,89.8 775.0,99.5 775.8,109.2 776.6,118.9 777.5,129.1 778.3,139.3 779.1,149.6 779.9,160.3 780.7,31.5 781.5,42.2 782.4,53.5 783.2,64.7 784.0,76.0 784.8,87.7 785.6,99.5 786.5,111.7 787.3,54.2 788.1,136.2 788.9,149.0 789.7,161.8 790.5,35.6 791.3,118.6 792.2,132.4 793.0,146.2 793.8,90.2 794.6,104.5 795.4,118.8 796.2,133.7 797.0,148.5 797.8,94.0 798.6,109.4 799.5,125.2" fill="none" stroke="#e74c3c" stroke-width="1.5" stroke-linejoin="round" clip-path="url(#pc631)"/>
  <line x1="34" y1="207" x2="34" y2="362" stroke="#d1d5db"/>
  <line x1="34" y1="284.5" x2="399" y2="284.5" stroke="#d1d5db"/>
  <text x="216.5" y="388" text-anchor="middle" font-size="9" fill="#6b7280">Hz</text>
  <text x="12" y="284.5" text-anchor="middle" font-size="9" fill="#6b7280" transform="rotate(-90 12 284.5)">Group delay</text>
  <line x1="67.3" y1="207" x2="67.3" y2="362" stroke="#e5e7eb" stroke-width="0.5"/>
  <line x1="86.8" y1="207" x2="86.8" y2="362" stroke="#e5e7eb" stroke-width="0.5"/>
  <line x1="100.6" y1="207" x2="100.6" y2="362" stroke="#e5e7eb" stroke-width="0.5"/>
  <line x1="111.3" y1="207" x2="111.3" y2="362" stroke="#e5e7eb" stroke-width="0.5"/>
  <line x1="120.0" y1="207" x2="120.0" y2="362" stroke="#e5e7eb" stroke-width="0.5"/>
  <line x1="127.4" y1="207" x2="127.4" y2="362" stroke="#e5e7eb" stroke-width="0.5"/>
  <line x1="133.9" y1="207" x2="133.9" y2="362" stroke="#e5e7eb" stroke-width="0.5"/>
  <line x1="139.5" y1="207" x2="139.5" y2="362" stroke="#e5e7eb" stroke-width="0.5"/>
  <line x1="177.9" y1="207" x2="177.9" y2="362" stroke="#e5e7eb" stroke-width="0.5"/>
  <line x1="197.3" y1="207" x2="197.3" y2="362" stroke="#e5e7eb" stroke-width="0.5"/>
  <line x1="211.1" y1="207" x2="211.1" y2="362" stroke="#e5e7eb" stroke-width="0.5"/>
  <line x1="221.9" y1="207" x2="221.9" y2="362" stroke="#e5e7eb" stroke-width="0.5"/>
  <line x1="230.6" y1="207" x2="230.6" y2="362" stroke="#e5e7eb" stroke-width="0.5"/>
  <line x1="238.0" y1="207" x2="238.0" y2="362" stroke="#e5e7eb" stroke-width="0.5"/>
  <line x1="244.4" y1="207" x2="244.4" y2="362" stroke="#e5e7eb" stroke-width="0.5"/>
  <line x1="250.1" y1="207" x2="250.1" y2="362" stroke="#e5e7eb" stroke-width="0.5"/>
  <line x1="288.4" y1="207" x2="288.4" y2="362" stroke="#e5e7eb" stroke-width="0.5"/>
  <line x1="307.9" y1="207" x2="307.9" y2="362" stroke="#e5e7eb" stroke-width="0.5"/>
  <line x1="321.7" y1="207" x2="321.7" y2="362" stroke="#e5e7eb" stroke-width="0.5"/>
  <line x1="332.4" y1="207" x2="332.4" y2="362" stroke="#e5e7eb" stroke-width="0.5"/>
  <line x1="341.2" y1="207" x2="341.2" y2="362" stroke="#e5e7eb" stroke-width="0.5"/>
  <line x1="348.6" y1="207" x2="348.6" y2="362" stroke="#e5e7eb" stroke-width="0.5"/>
  <line x1="355.0" y1="207" x2="355.0" y2="362" stroke="#e5e7eb" stroke-width="0.5"/>
  <line x1="360.7" y1="207" x2="360.7" y2="362" stroke="#e5e7eb" stroke-width="0.5"/>
  <line x1="399.0" y1="207" x2="399.0" y2="362" stroke="#e5e7eb" stroke-width="0.5"/>
  <line x1="144.6" y1="207" x2="144.6" y2="362" stroke="#e5e7eb" stroke-width="0.5"/>
  <text x="144.6" y="374" text-anchor="middle" font-size="8" fill="#6b7280">100</text>
  <line x1="255.1" y1="207" x2="255.1" y2="362" stroke="#e5e7eb" stroke-width="0.5"/>
  <text x="255.1" y="374" text-anchor="middle" font-size="8" fill="#6b7280">1k</text>
  <line x1="365.7" y1="207" x2="365.7" y2="362" stroke="#e5e7eb" stroke-width="0.5"/>
  <text x="365.7" y="374" text-anchor="middle" font-size="8" fill="#6b7280">10k</text>
  <line x1="34" y1="325.9" x2="399" y2="325.9" stroke="#e5e7eb" stroke-width="0.5"/>
  <text x="30" y="328.9" text-anchor="end" font-size="8" fill="#6b7280">-700</text>
  <text x="30" y="287.5" text-anchor="end" font-size="8" fill="#6b7280">0</text>
  <line x1="34" y1="243.1" x2="399" y2="243.1" stroke="#e5e7eb" stroke-width="0.5"/>
  <text x="30" y="246.1" text-anchor="end" font-size="8" fill="#6b7280">700</text>
  <defs><linearGradient id="g632" x1="0" y1="207" x2="0" y2="284.5" gradientUnits="userSpaceOnUse">
    <stop offset="0%" stop-color="#2ecc71" stop-opacity="0.15"/>
    <stop offset="100%" stop-color="#2ecc71" stop-opacity="0.02"/>
  </linearGradient></defs>
  <path d="M37.5,283.6 37.5,283.6 70.8,283.6 90.3,283.6 104.1,283.6 114.8,283.6 123.6,283.6 131.0,283.6 137.4,283.6 143.1,283.6 148.1,283.6 152.7,283.6 156.9,283.6 160.7,283.6 164.3,283.6 167.6,283.6 170.7,283.6 173.6,283.6 176.3,283.6 178.9,283.6 181.4,283.6 183.7,283.6 186.0,283.6 188.1,283.6 190.2,283.6 192.1,283.6 194.0,283.6 195.8,283.6 197.6,283.6 199.2,283.6 200.9,283.6 202.4,283.6 204.0,283.6 205.5,283.6 206.9,283.6 208.3,283.6 209.6,283.6 210.9,283.6 212.2,283.6 213.5,283.6 214.7,283.6 215.9,283.6 217.0,283.6 218.2,283.6 219.3,283.6 220.3,283.6 221.4,283.6 222.4,283.6 223.4,283.6 224.4,283.6 225.4,283.6 226.4,283.6 227.3,283.6 228.2,283.6 229.1,283.6 230.0,283.6 230.8,283.6 231.7,283.6 232.5,283.6 233.4,283.6 234.2,283.6 235.7,283.6 237.3,283.6 238.7,283.6 240.2,283.6 241.6,283.6 242.9,283.6 244.2,283.6 245.5,283.6 246.8,283.6 248.0,283.6 249.2,283.6 250.3,283.6 251.4,283.6 252.6,283.6 253.6,283.6 254.7,283.6 255.7,283.6 256.7,283.6 257.7,283.6 258.7,283.6 259.6,283.6 260.6,283.6 261.5,283.6 262.4,283.6 263.3,283.6 264.1,283.6 265.0,283.6 265.8,283.6 266.6,283.6 267.4,283.6 268.6,283.6 269.8,283.6 270.9,283.6 272.0,283.6 273.1,283.6 274.2,283.6 275.2,283.6 276.2,283.6 277.2,283.6 278.2,283.6 279.1,283.6 280.0,283.6 281.0,283.6 281.9,283.6 282.7,283.6 283.6,283.6 284.5,283.6 285.3,283.6 286.1,283.6 286.9,283.6 288.0,283.6 289.0,283.6 290.0,283.6 291.0,283.6 292.0,283.6 292.9,283.6 293.9,283.6 294.8,283.6 295.7,283.6 296.6,283.6 297.4,283.6 298.3,283.6 299.1,283.6 299.9,283.6 300.7,283.6 301.7,283.6 302.7,283.6 303.6,283.6 304.6,283.6 305.5,283.6 306.4,283.6 307.3,283.6 308.1,283.6 309.0,283.6 309.8,283.6 310.6,283.6 311.4,283.6 312.4,283.6 313.3,283.6 314.2,283.6 315.1,283.6 316.0,283.6 316.9,283.6 317.7,283.6 318.6,283.6 319.4,283.6 320.2,283.6 321.1,283.6 322.0,283.6 322.9,283.6 323.8,283.6 324.7,283.6 325.5,283.6 326.3,283.6 327.1,283.6 327.9,283.6 328.8,283.6 329.7,283.6 330.6,283.6 331.4,283.6 332.3,283.6 333.1,283.6 333.9,283.6 334.8,283.6 335.7,283.6 336.5,283.6 337.4,283.6 338.2,283.6 339.0,283.6 339.8,283.6 340.7,283.6 341.6,283.6 342.4,283.6 343.3,283.6 344.1,283.6 344.9,283.6 345.8,283.6 346.6,283.6 347.5,283.6 348.3,283.6 349.1,283.6 350.0,283.6 350.8,283.6 351.7,283.6 352.5,283.6 353.3,283.6 354.1,283.6 355.0,283.6 355.8,283.6 356.6,283.6 357.5,283.6 358.3,283.6 359.1,283.6 360.0,283.6 360.8,283.6 361.6,283.6 362.5,283.6 363.3,283.6 364.1,283.6 364.9,283.6 365.8,283.6 366.6,283.6 367.4,283.6 368.2,283.6 369.1,283.6 369.9,283.6 370.7,283.6 371.6,283.6 372.4,283.6 373.2,283.6 374.0,283.6 374.8,283.6 375.6,283.6 376.5,283.6 377.3,283.6 378.1,283.6 378.9,283.6 379.7,283.6 380.5,283.6 381.4,283.6 382.2,283.6 383.0,283.6 383.8,283.6 384.6,283.6 385.5,283.6 386.3,283.6 387.1,283.6 387.9,283.6 388.7,283.6 389.5,283.6 390.3,283.6 391.2,283.6 392.0,283.6 392.8,283.6 393.6,283.6 394.4,283.6 395.2,283.6 396.0,283.6 396.8,283.6 397.6,283.6 398.5,283.6 L398.5,284.5 L37.5,284.5 Z" fill="url(#g632)"/>
  <defs><clipPath id="pc633"><rect x="34" y="207" width="365" height="155"/></clipPath></defs>
  <polyline points="37.5,283.6 70.8,283.6 90.3,283.6 104.1,283.6 114.8,283.6 123.6,283.6 131.0,283.6 137.4,283.6 143.1,283.6 148.1,283.6 152.7,283.6 156.9,283.6 160.7,283.6 164.3,283.6 167.6,283.6 170.7,283.6 173.6,283.6 176.3,283.6 178.9,283.6 181.4,283.6 183.7,283.6 186.0,283.6 188.1,283.6 190.2,283.6 192.1,283.6 194.0,283.6 195.8,283.6 197.6,283.6 199.2,283.6 200.9,283.6 202.4,283.6 204.0,283.6 205.5,283.6 206.9,283.6 208.3,283.6 209.6,283.6 210.9,283.6 212.2,283.6 213.5,283.6 214.7,283.6 215.9,283.6 217.0,283.6 218.2,283.6 219.3,283.6 220.3,283.6 221.4,283.6 222.4,283.6 223.4,283.6 224.4,283.6 225.4,283.6 226.4,283.6 227.3,283.6 228.2,283.6 229.1,283.6 230.0,283.6 230.8,283.6 231.7,283.6 232.5,283.6 233.4,283.6 234.2,283.6 235.7,283.6 237.3,283.6 238.7,283.6 240.2,283.6 241.6,283.6 242.9,283.6 244.2,283.6 245.5,283.6 246.8,283.6 248.0,283.6 249.2,283.6 250.3,283.6 251.4,283.6 252.6,283.6 253.6,283.6 254.7,283.6 255.7,283.6 256.7,283.6 257.7,283.6 258.7,283.6 259.6,283.6 260.6,283.6 261.5,283.6 262.4,283.6 263.3,283.6 264.1,283.6 265.0,283.6 265.8,283.6 266.6,283.6 267.4,283.6 268.6,283.6 269.8,283.6 270.9,283.6 272.0,283.6 273.1,283.6 274.2,283.6 275.2,283.6 276.2,283.6 277.2,283.6 278.2,283.6 279.1,283.6 280.0,283.6 281.0,283.6 281.9,283.6 282.7,283.6 283.6,283.6 284.5,283.6 285.3,283.6 286.1,283.6 286.9,283.6 288.0,283.6 289.0,283.6 290.0,283.6 291.0,283.6 292.0,283.6 292.9,283.6 293.9,283.6 294.8,283.6 295.7,283.6 296.6,283.6 297.4,283.6 298.3,283.6 299.1,283.6 299.9,283.6 300.7,283.6 301.7,283.6 302.7,283.6 303.6,283.6 304.6,283.6 305.5,283.6 306.4,283.6 307.3,283.6 308.1,283.6 309.0,283.6 309.8,283.6 310.6,283.6 311.4,283.6 312.4,283.6 313.3,283.6 314.2,283.6 315.1,283.6 316.0,283.6 316.9,283.6 317.7,283.6 318.6,283.6 319.4,283.6 320.2,283.6 321.1,283.6 322.0,283.6 322.9,283.6 323.8,283.6 324.7,283.6 325.5,283.6 326.3,283.6 327.1,283.6 327.9,283.6 328.8,283.6 329.7,283.6 330.6,283.6 331.4,283.6 332.3,283.6 333.1,283.6 333.9,283.6 334.8,283.6 335.7,283.6 336.5,283.6 337.4,283.6 338.2,283.6 339.0,283.6 339.8,283.6 340.7,283.6 341.6,283.6 342.4,283.6 343.3,283.6 344.1,283.6 344.9,283.6 345.8,283.6 346.6,283.6 347.5,283.6 348.3,283.6 349.1,283.6 350.0,283.6 350.8,283.6 351.7,283.6 352.5,283.6 353.3,283.6 354.1,283.6 355.0,283.6 355.8,283.6 356.6,283.6 357.5,283.6 358.3,283.6 359.1,283.6 360.0,283.6 360.8,283.6 361.6,283.6 362.5,283.6 363.3,283.6 364.1,283.6 364.9,283.6 365.8,283.6 366.6,283.6 367.4,283.6 368.2,283.6 369.1,283.6 369.9,283.6 370.7,283.6 371.6,283.6 372.4,283.6 373.2,283.6 374.0,283.6 374.8,283.6 375.6,283.6 376.5,283.6 377.3,283.6 378.1,283.6 378.9,283.6 379.7,283.6 380.5,283.6 381.4,283.6 382.2,283.6 383.0,283.6 383.8,283.6 384.6,283.6 385.5,283.6 386.3,283.6 387.1,283.6 387.9,283.6 388.7,283.6 389.5,283.6 390.3,283.6 391.2,283.6 392.0,283.6 392.8,283.6 393.6,283.6 394.4,283.6 395.2,283.6 396.0,283.6 396.8,283.6 397.6,283.6 398.5,283.6" fill="none" stroke="#2ecc71" stroke-width="1.5" stroke-linejoin="round" clip-path="url(#pc633)"/>
  <line x1="435" y1="207" x2="435" y2="362" stroke="#d1d5db"/>
  <line x1="435" y1="284.5" x2="800" y2="284.5" stroke="#d1d5db"/>
  <text x="617.5" y="388" text-anchor="middle" font-size="9" fill="#6b7280">Samples</text>
  <text x="413" y="284.5" text-anchor="middle" font-size="9" fill="#6b7280" transform="rotate(-90 413 284.5)">Impulse response</text>
  <line x1="435.0" y1="207" x2="435.0" y2="362" stroke="#e5e7eb" stroke-width="0.5"/>
  <text x="435.0" y="374" text-anchor="middle" font-size="8" fill="#6b7280">0</text>
  <line x1="670.5" y1="207" x2="670.5" y2="362" stroke="#e5e7eb" stroke-width="0.5"/>
  <text x="670.5" y="374" text-anchor="middle" font-size="8" fill="#6b7280">20</text>
  <line x1="435" y1="346.5" x2="800" y2="346.5" stroke="#e5e7eb" stroke-width="0.5"/>
  <text x="431" y="349.5" text-anchor="end" font-size="8" fill="#6b7280">-0.4</text>
  <text x="431" y="287.5" text-anchor="end" font-size="8" fill="#6b7280">0</text>
  <line x1="435" y1="222.5" x2="800" y2="222.5" stroke="#e5e7eb" stroke-width="0.5"/>
  <text x="431" y="225.5" text-anchor="end" font-size="8" fill="#6b7280">0.4</text>
  <defs><linearGradient id="g634" x1="0" y1="207" x2="0" y2="284.5" gradientUnits="userSpaceOnUse">
    <stop offset="0%" stop-color="#f39c12" stop-opacity="0.15"/>
    <stop offset="100%" stop-color="#f39c12" stop-opacity="0.02"/>
  </linearGradient></defs>
  <defs><linearGradient id="g635" x1="0" y1="362" x2="0" y2="284.5" gradientUnits="userSpaceOnUse">
    <stop offset="0%" stop-color="#f39c12" stop-opacity="0.15"/>
    <stop offset="100%" stop-color="#f39c12" stop-opacity="0.02"/>
  </linearGradient></defs>
  <defs><clipPath id="c636"><rect x="435" y="207" width="365" height="77.5"/></clipPath></defs>
  <defs><clipPath id="c637"><rect x="435" y="284.5" width="365" height="77.5"/></clipPath></defs>
  <path d="M435.0,284.5 435.0,284.5 446.8,284.5 458.5,284.4 470.3,284.5 482.1,284.8 493.9,284.5 505.6,283.4 517.4,284.5 529.2,287.3 541.0,284.5 552.7,278.3 564.5,284.5 576.3,298.5 588.1,284.5 599.8,236.0 611.6,207.0 623.4,236.0 635.2,284.5 646.9,298.5 658.7,284.5 670.5,278.3 682.3,284.5 694.0,287.3 705.8,284.5 717.6,283.4 729.4,284.5 741.1,284.8 752.9,284.5 764.7,284.4 776.5,284.5 788.2,284.5 L788.2,284.5 L435.0,284.5 Z" fill="url(#g634)" clip-path="url(#c636)"/>
  <path d="M435.0,284.5 435.0,284.5 446.8,284.5 458.5,284.4 470.3,284.5 482.1,284.8 493.9,284.5 505.6,283.4 517.4,284.5 529.2,287.3 541.0,284.5 552.7,278.3 564.5,284.5 576.3,298.5 588.1,284.5 599.8,236.0 611.6,207.0 623.4,236.0 635.2,284.5 646.9,298.5 658.7,284.5 670.5,278.3 682.3,284.5 694.0,287.3 705.8,284.5 717.6,283.4 729.4,284.5 741.1,284.8 752.9,284.5 764.7,284.4 776.5,284.5 788.2,284.5 L788.2,284.5 L435.0,284.5 Z" fill="url(#g635)" clip-path="url(#c637)"/>
  <defs><clipPath id="pc638"><rect x="435" y="207" width="365" height="155"/></clipPath></defs>
  <polyline points="435.0,284.5 446.8,284.5 458.5,284.4 470.3,284.5 482.1,284.8 493.9,284.5 505.6,283.4 517.4,284.5 529.2,287.3 541.0,284.5 552.7,278.3 564.5,284.5 576.3,298.5 588.1,284.5 599.8,236.0 611.6,207.0 623.4,236.0 635.2,284.5 646.9,298.5 658.7,284.5 670.5,278.3 682.3,284.5 694.0,287.3 705.8,284.5 717.6,283.4 729.4,284.5 741.1,284.8 752.9,284.5 764.7,284.4 776.5,284.5 788.2,284.5" fill="none" stroke="#f39c12" stroke-width="1.3" stroke-linejoin="round" clip-path="url(#pc638)"/>
</svg>
