<svg xmlns="http://www.w3.org/2000/svg" viewBox="0 0 820 392" style="font-family:system-ui,-apple-system,sans-serif">
  <text x="800" y="11" text-anchor="end" font-size="11" font-weight="600" fill="#6b7280">Half-band FIR, 31 taps</text>
  <line x1="34" y1="16" x2="34" y2="171" stroke="#d1d5db"/>
  <line x1="34" y1="47.0" x2="392" y2="47.0" stroke="#d1d5db"/>
  <text x="213" y="197" text-anchor="middle" font-size="9" fill="#6b7280">Hz</text>
  <text x="12" y="93.5" text-anchor="middle" font-size="9" fill="#6b7280" transform="rotate(-90 12 93.5)">dB</text>
  <line x1="66.6" y1="16" x2="66.6" y2="171" stroke="#e5e7eb" stroke-width="0.5"/>
  <line x1="85.7" y1="16" x2="85.7" y2="171" stroke="#e5e7eb" stroke-width="0.5"/>
  <line x1="99.3" y1="16" x2="99.3" y2="171" stroke="#e5e7eb" stroke-width="0.5"/>
  <line x1="109.8" y1="16" x2="109.8" y2="171" stroke="#e5e7eb" stroke-width="0.5"/>
  <line x1="118.4" y1="16" x2="118.4" y2="171" stroke="#e5e7eb" stroke-width="0.5"/>
  <line x1="125.7" y1="16" x2="125.7" y2="171" stroke="#e5e7eb" stroke-width="0.5"/>
  <line x1="131.9" y1="16" x2="131.9" y2="171" stroke="#e5e7eb" stroke-width="0.5"/>
  <line x1="137.5" y1="16" x2="137.5" y2="171" stroke="#e5e7eb" stroke-width="0.5"/>
  <line x1="175.1" y1="16" x2="175.1" y2="171" stroke="#e5e7eb" stroke-width="0.5"/>
  <line x1="194.2" y1="16" x2="194.2" y2="171" stroke="#e5e7eb" stroke-width="0.5"/>
  <line x1="207.7" y1="16" x2="207.7" y2="171" stroke="#e5e7eb" stroke-width="0.5"/>
  <line x1="218.3" y1="16" x2="218.3" y2="171" stroke="#e5e7eb" stroke-width="0.5"/>
  <line x1="226.8" y1="16" x2="226.8" y2="171" stroke="#e5e7eb" stroke-width="0.5"/>
  <line x1="234.1" y1="16" x2="234.1" y2="171" stroke="#e5e7eb" stroke-width="0.5"/>
  <line x1="240.4" y1="16" x2="240.4" y2="171" stroke="#e5e7eb" stroke-width="0.5"/>
  <line x1="245.9" y1="16" x2="245.9" y2="171" stroke="#e5e7eb" stroke-width="0.5"/>
  <line x1="283.5" y1="16" x2="283.5" y2="171" stroke="#e5e7eb" stroke-width="0.5"/>
  <line x1="302.6" y1="16" x2="302.6" y2="171" stroke="#e5e7eb" stroke-width="0.5"/>
  <line x1="316.2" y1="16" x2="316.2" y2="171" stroke="#e5e7eb" stroke-width="0.5"/>
  <line x1="326.7" y1="16" x2="326.7" y2="171" stroke="#e5e7eb" stroke-width="0.5"/>
  <line x1="335.3" y1="16" x2="335.3" y2="171" stroke="#e5e7eb" stroke-width="0.5"/>
  <line x1="342.6" y1="16" x2="342.6" y2="171" stroke="#e5e7eb" stroke-width="0.5"/>
  <line x1="348.8" y1="16" x2="348.8" y2="171" stroke="#e5e7eb" stroke-width="0.5"/>
  <line x1="354.4" y1="16" x2="354.4" y2="171" stroke="#e5e7eb" stroke-width="0.5"/>
  <line x1="392.0" y1="16" x2="392.0" y2="171" stroke="#e5e7eb" stroke-width="0.5"/>
  <line x1="142.5" y1="16" x2="142.5" y2="171" stroke="#e5e7eb" stroke-width="0.5"/>
  <text x="142.5" y="183" text-anchor="middle" font-size="8" fill="#6b7280">100</text>
  <line x1="250.9" y1="16" x2="250.9" y2="171" stroke="#e5e7eb" stroke-width="0.5"/>
  <text x="250.9" y="183" text-anchor="middle" font-size="8" fill="#6b7280">1k</text>
  <line x1="359.4" y1="16" x2="359.4" y2="171" stroke="#e5e7eb" stroke-width="0.5"/>
  <text x="359.4" y="183" text-anchor="middle" font-size="8" fill="#6b7280">10k</text>
  <line x1="34" y1="31.5" x2="392" y2="31.5" stroke="#e5e7eb" stroke-width="0.5"/>
  <line x1="34" y1="62.5" x2="392" y2="62.5" stroke="#e5e7eb" stroke-width="0.5"/>
  <line x1="34" y1="16.0" x2="392" y2="16.0" stroke="#e5e7eb" stroke-width="0.5"/>
  <text x="30" y="19.0" text-anchor="end" font-size="8" fill="#6b7280">+20</text>
  <text x="30" y="50.0" text-anchor="end" font-size="8" fill="#6b7280">0</text>
  <line x1="34" y1="78.0" x2="392" y2="78.0" stroke="#e5e7eb" stroke-width="0.5"/>
  <text x="30" y="81.0" text-anchor="end" font-size="8" fill="#6b7280">-20</text>
  <line x1="34" y1="109.0" x2="392" y2="109.0" stroke="#e5e7eb" stroke-width="0.5"/>
  <text x="30" y="112.0" text-anchor="end" font-size="8" fill="#6b7280">-40</text>
  <line x1="34" y1="140.0" x2="392" y2="140.0" stroke="#e5e7eb" stroke-width="0.5"/>
  <text x="30" y="143.0" text-anchor="end" font-size="8" fill="#6b7280">-60</text>
  <line x1="34" y1="171.0" x2="392" y2="171.0" stroke="#e5e7eb" stroke-width="0.5"/>
  <text x="30" y="174.0" text-anchor="end" font-size="8" fill="#6b7280">-80</text>
  <defs><linearGradient id="g622" x1="0" y1="16" x2="0" y2="171" gradientUnits="userSpaceOnUse">
    <stop offset="0%" stop-color="#4a90d9" stop-opacity="0.15"/>
    <stop offset="100%" stop-color="#4a90d9" stop-opacity="0.02"/>
  </linearGradient></defs>
  <path d="M37.5,47.0 37.5,47.0 70.1,47.0 89.2,47.0 102.8,47.0 113.3,47.0 121.9,47.0 129.1,47.0 135.4,47.0 141.0,47.0 145.9,47.0 150.4,47.0 154.5,47.0 158.3,47.0 161.8,47.0 165.0,47.0 168.1,47.0 170.9,47.0 173.6,47.0 176.2,47.0 178.6,47.0 180.9,47.0 183.1,47.0 185.2,47.0 187.2,47.0 189.1,47.0 190.9,47.0 192.7,47.0 194.4,47.0 196.1,47.0 197.7,47.0 199.2,47.0 200.7,47.0 202.2,47.0 203.6,47.0 204.9,47.0 206.3,47.0 207.6,47.0 208.8,47.0 210.0,47.0 211.2,47.0 212.4,47.0 213.5,47.0 214.6,47.0 215.7,47.0 216.8,47.0 217.8,47.0 218.8,47.0 219.8,47.0 220.8,47.0 221.7,47.0 222.7,47.0 223.6,47.0 224.5,47.0 225.4,47.0 226.2,47.0 227.1,47.0 227.9,47.0 228.7,47.0 229.5,47.0 231.1,47.0 232.6,47.0 234.1,47.0 235.5,47.0 236.9,47.0 238.2,47.0 239.6,47.0 240.8,47.0 242.1,47.0 243.3,47.0 244.5,47.0 245.6,47.0 246.7,47.0 247.8,47.0 248.9,47.0 249.9,47.0 251.0,47.0 252.0,47.0 252.9,47.0 253.9,47.0 254.8,47.0 255.8,47.0 256.7,47.0 257.6,47.0 258.4,47.0 259.3,47.0 260.1,47.0 261.0,47.0 261.8,47.0 263.0,47.0 264.1,47.0 265.3,47.0 266.4,47.0 267.5,47.0 268.5,47.0 269.6,47.0 270.6,47.0 271.6,47.0 272.5,47.0 273.5,47.0 274.4,47.0 275.3,47.0 276.2,47.0 277.1,47.0 278.0,47.0 278.8,47.0 279.6,47.0 280.5,47.0 281.3,47.0 282.3,47.0 283.4,47.0 284.4,47.0 285.3,47.0 286.3,47.0 287.3,47.0 288.2,47.0 289.1,47.0 290.0,47.0 290.9,47.0 291.7,47.0 292.6,47.0 293.4,47.0 294.2,47.0 295.0,47.0 296.0,47.0 297.0,47.0 297.9,47.0 298.8,47.0 299.7,47.0 300.6,47.0 301.5,47.0 302.4,47.0 303.2,47.0 304.0,47.0 304.9,47.0 305.8,47.0 306.7,47.0 307.7,47.0 308.6,47.0 309.5,47.0 310.3,47.0 311.2,47.0 312.0,47.0 312.8,47.0 313.7,47.0 314.6,47.0 315.5,47.0 316.4,47.0 317.3,47.0 318.1,47.0 319.0,47.0 319.8,47.0 320.6,47.0 321.4,47.0 322.3,47.0 323.2,47.0 324.1,47.0 324.9,47.0 325.7,47.0 326.6,47.0 327.4,47.0 328.3,47.0 329.1,47.0 330.0,47.0 330.8,47.0 331.7,47.0 332.5,47.0 333.3,47.0 334.2,47.0 335.0,47.0 335.9,47.0 336.7,47.0 337.5,47.0 338.4,47.0 339.2,47.0 340.1,47.0 340.9,47.0 341.7,47.0 342.5,47.0 343.4,47.0 344.2,47.0 345.1,47.0 345.9,47.0 346.7,47.0 347.6,47.1 348.4,47.1 349.2,47.1 350.0,47.2 350.9,47.3 351.7,47.4 352.6,47.5 353.4,47.7 354.2,47.9 355.1,48.1 355.9,48.4 356.7,48.8 357.6,49.2 358.4,49.8 359.2,50.4 360.0,51.1 360.9,51.9 361.7,52.9 362.5,54.0 363.3,55.3 364.2,56.8 365.0,58.4 365.8,60.2 366.6,62.3 367.4,64.6 368.3,67.2 369.1,70.2 369.9,73.6 370.7,77.3 371.5,81.5 372.4,86.3 373.2,91.6 374.0,97.9 374.8,105.0 375.6,113.7 376.4,124.0 377.2,136.9 378.1,155.9 378.9,171.0 379.7,171.0 380.5,171.0 381.3,171.0 382.1,171.0 383.0,171.0 383.8,171.0 384.6,171.0 385.4,171.0 386.2,171.0 387.0,171.0 387.9,171.0 388.7,171.0 389.5,171.0 390.3,171.0 391.1,171.0 391.9,171.0 L391.9,171.0 L37.5,171.0 Z" fill="url(#g622)"/>
  <defs><clipPath id="pc623"><rect x="34" y="16" width="358" height="155"/></clipPath></defs>
  <polyline points="37.5,47.0 70.1,47.0 89.2,47.0 102.8,47.0 113.3,47.0 121.9,47.0 129.1,47.0 135.4,47.0 141.0,47.0 145.9,47.0 150.4,47.0 154.5,47.0 158.3,47.0 161.8,47.0 165.0,47.0 168.1,47.0 170.9,47.0 173.6,47.0 176.2,47.0 178.6,47.0 180.9,47.0 183.1,47.0 185.2,47.0 187.2,47.0 189.1,47.0 190.9,47.0 192.7,47.0 194.4,47.0 196.1,47.0 197.7,47.0 199.2,47.0 200.7,47.0 202.2,47.0 203.6,47.0 204.9,47.0 206.3,47.0 207.6,47.0 208.8,47.0 210.0,47.0 211.2,47.0 212.4,47.0 213.5,47.0 214.6,47.0 215.7,47.0 216.8,47.0 217.8,47.0 218.8,47.0 219.8,47.0 220.8,47.0 221.7,47.0 222.7,47.0 223.6,47.0 224.5,47.0 225.4,47.0 226.2,47.0 227.1,47.0 227.9,47.0 228.7,47.0 229.5,47.0 231.1,47.0 232.6,47.0 234.1,47.0 235.5,47.0 236.9,47.0 238.2,47.0 239.6,47.0 240.8,47.0 242.1,47.0 243.3,47.0 244.5,47.0 245.6,47.0 246.7,47.0 247.8,47.0 248.9,47.0 249.9,47.0 251.0,47.0 252.0,47.0 252.9,47.0 253.9,47.0 254.8,47.0 255.8,47.0 256.7,47.0 257.6,47.0 258.4,47.0 259.3,47.0 260.1,47.0 261.0,47.0 261.8,47.0 263.0,47.0 264.1,47.0 265.3,47.0 266.4,47.0 267.5,47.0 268.5,47.0 269.6,47.0 270.6,47.0 271.6,47.0 272.5,47.0 273.5,47.0 274.4,47.0 275.3,47.0 276.2,47.0 277.1,47.0 278.0,47.0 278.8,47.0 279.6,47.0 280.5,47.0 281.3,47.0 282.3,47.0 283.4,47.0 284.4,47.0 285.3,47.0 286.3,47.0 287.3,47.0 288.2,47.0 289.1,47.0 290.0,47.0 290.9,47.0 291.7,47.0 292.6,47.0 293.4,47.0 294.2,47.0 295.0,47.0 296.0,47.0 297.0,47.0 297.9,47.0 298.8,47.0 299.7,47.0 300.6,47.0 301.5,47.0 302.4,47.0 303.2,47.0 304.0,47.0 304.9,47.0 305.8,47.0 306.7,47.0 307.7,47.0 308.6,47.0 309.5,47.0 310.3,47.0 311.2,47.0 312.0,47.0 312.8,47.0 313.7,47.0 314.6,47.0 315.5,47.0 316.4,47.0 317.3,47.0 318.1,47.0 319.0,47.0 319.8,47.0 320.6,47.0 321.4,47.0 322.3,47.0 323.2,47.0 324.1,47.0 324.9,47.0 325.7,47.0 326.6,47.0 327.4,47.0 328.3,47.0 329.1,47.0 330.0,47.0 330.8,47.0 331.7,47.0 332.5,47.0 333.3,47.0 334.2,47.0 335.0,47.0 335.9,47.0 336.7,47.0 337.5,47.0 338.4,47.0 339.2,47.0 340.1,47.0 340.9,47.0 341.7,47.0 342.5,47.0 343.4,47.0 344.2,47.0 345.1,47.0 345.9,47.0 346.7,47.0 347.6,47.1 348.4,47.1 349.2,47.1 350.0,47.2 350.9,47.3 351.7,47.4 352.6,47.5 353.4,47.7 354.2,47.9 355.1,48.1 355.9,48.4 356.7,48.8 357.6,49.2 358.4,49.8 359.2,50.4 360.0,51.1 360.9,51.9 361.7,52.9 362.5,54.0 363.3,55.3 364.2,56.8 365.0,58.4 365.8,60.2 366.6,62.3 367.4,64.6 368.3,67.2 369.1,70.2 369.9,73.6 370.7,77.3 371.5,81.5 372.4,86.3 373.2,91.6 374.0,97.9 374.8,105.0 375.6,113.7 376.4,124.0 377.2,136.9 378.1,155.9 378.9,227.4 379.7,188.4 380.5,190.4 381.3,179.3 382.1,182.2 383.0,201.5 383.8,193.6 384.6,189.6 385.4,203.4 386.2,195.1 387.0,184.8 387.9,184.1 388.7,190.8 389.5,223.4 390.3,199.3 391.1,200.4 391.9,216.5" fill="none" stroke="#4a90d9" stroke-width="1.5" stroke-linejoin="round" clip-path="url(#pc623)"/>
  <line x1="442" y1="16" x2="442" y2="171" stroke="#d1d5db"/>
  <line x1="442" y1="93.5" x2="800" y2="93.5" stroke="#d1d5db"/>
  <text x="621" y="197" text-anchor="middle" font-size="9" fill="#6b7280">Hz</text>
  <text x="420" y="93.5" text-anchor="middle" font-size="9" fill="#6b7280" transform="rotate(-90 420 93.5)">Phase (deg)</text>
  <line x1="474.6" y1="16" x2="474.6" y2="171" stroke="#e5e7eb" stroke-width="0.5"/>
  <line x1="493.7" y1="16" x2="493.7" y2="171" stroke="#e5e7eb" stroke-width="0.5"/>
  <line x1="507.3" y1="16" x2="507.3" y2="171" stroke="#e5e7eb" stroke-width="0.5"/>
  <line x1="517.8" y1="16" x2="517.8" y2="171" stroke="#e5e7eb" stroke-width="0.5"/>
  <line x1="526.4" y1="16" x2="526.4" y2="171" stroke="#e5e7eb" stroke-width="0.5"/>
  <line x1="533.7" y1="16" x2="533.7" y2="171" stroke="#e5e7eb" stroke-width="0.5"/>
  <line x1="539.9" y1="16" x2="539.9" y2="171" stroke="#e5e7eb" stroke-width="0.5"/>
  <line x1="545.5" y1="16" x2="545.5" y2="171" stroke="#e5e7eb" stroke-width="0.5"/>
  <line x1="583.1" y1="16" x2="583.1" y2="171" stroke="#e5e7eb" stroke-width="0.5"/>
  <line x1="602.2" y1="16" x2="602.2" y2="171" stroke="#e5e7eb" stroke-width="0.5"/>
  <line x1="615.7" y1="16" x2="615.7" y2="171" stroke="#e5e7eb" stroke-width="0.5"/>
  <line x1="626.3" y1="16" x2="626.3" y2="171" stroke="#e5e7eb" stroke-width="0.5"/>
  <line x1="634.8" y1="16" x2="634.8" y2="171" stroke="#e5e7eb" stroke-width="0.5"/>
  <line x1="642.1" y1="16" x2="642.1" y2="171" stroke="#e5e7eb" stroke-width="0.5"/>
  <line x1="648.4" y1="16" x2="648.4" y2="171" stroke="#e5e7eb" stroke-width="0.5"/>
  <line x1="653.9" y1="16" x2="653.9" y2="171" stroke="#e5e7eb" stroke-width="0.5"/>
  <line x1="691.5" y1="16" x2="691.5" y2="171" stroke="#e5e7eb" stroke-width="0.5"/>
  <line x1="710.6" y1="16" x2="710.6" y2="171" stroke="#e5e7eb" stroke-width="0.5"/>
  <line x1="724.2" y1="16" x2="724.2" y2="171" stroke="#e5e7eb" stroke-width="0.5"/>
  <line x1="734.7" y1="16" x2="734.7" y2="171" stroke="#e5e7eb" stroke-width="0.5"/>
  <line x1="743.3" y1="16" x2="743.3" y2="171" stroke="#e5e7eb" stroke-width="0.5"/>
  <line x1="750.6" y1="16" x2="750.6" y2="171" stroke="#e5e7eb" stroke-width="0.5"/>
  <line x1="756.8" y1="16" x2="756.8" y2="171" stroke="#e5e7eb" stroke-width="0.5"/>
  <line x1="762.4" y1="16" x2="762.4" y2="171" stroke="#e5e7eb" stroke-width="0.5"/>
  <line x1="800.0" y1="16" x2="800.0" y2="171" stroke="#e5e7eb" stroke-width="0.5"/>
  <line x1="550.5" y1="16" x2="550.5" y2="171" stroke="#e5e7eb" stroke-width="0.5"/>
  <text x="550.5" y="183" text-anchor="middle" font-size="8" fill="#6b7280">100</text>
  <line x1="658.9" y1="16" x2="658.9" y2="171" stroke="#e5e7eb" stroke-width="0.5"/>
  <text x="658.9" y="183" text-anchor="middle" font-size="8" fill="#6b7280">1k</text>
  <line x1="767.4" y1="16" x2="767.4" y2="171" stroke="#e5e7eb" stroke-width="0.5"/>
  <text x="767.4" y="183" text-anchor="middle" font-size="8" fill="#6b7280">10k</text>
  <line x1="442" y1="54.8" x2="800" y2="54.8" stroke="#e5e7eb" stroke-width="0.5"/>
  <line x1="442" y1="132.3" x2="800" y2="132.3" stroke="#e5e7eb" stroke-width="0.5"/>
  <line x1="442" y1="16.0" x2="800" y2="16.0" stroke="#e5e7eb" stroke-width="0.5"/>
  <text x="438" y="19.0" text-anchor="end" font-size="8" fill="#6b7280">180</text>
  <text x="438" y="96.5" text-anchor="end" font-size="8" fill="#6b7280">0</text>
  <line x1="442" y1="171.0" x2="800" y2="171.0" stroke="#e5e7eb" stroke-width="0.5"/>
  <text x="438" y="174.0" text-anchor="end" font-size="8" fill="#6b7280">-180</text>
  <defs><linearGradient id="g624" x1="0" y1="16" x2="0" y2="93.5" gradientUnits="userSpaceOnUse">
    <stop offset="0%" stop-color="#e74c3c" stop-opacity="0.15"/>
    <stop offset="100%" stop-color="#e74c3c" stop-opacity="0.02"/>
  </linearGradient></defs>
  <defs><linearGradient id="g625" x1="0" y1="171" x2="0" y2="93.5" gradientUnits="userSpaceOnUse">
    <stop offset="0%" stop-color="#e74c3c" stop-opacity="0.15"/>
    <stop offset="100%" stop-color="#e74c3c" stop-opacity="0.02"/>
  </linearGradient></defs>
  <defs><clipPath id="c626"><rect x="442" y="16" width="358" height="77.5"/></clipPath></defs>
  <defs><clipPath id="c627"><rect x="442" y="93.5" width="358" height="77.5"/></clipPath></defs>
  <path d="M445.5,94.1 445.5,94.1 478.1,94.6 497.2,95.2 510.8,95.8 521.3,96.3 529.9,96.9 537.1,97.5 543.4,98.0 549.0,98.6 553.9,99.2 558.4,99.7 562.5,100.3 566.3,100.9 569.8,101.4 573.0,102.0 576.1,102.6 578.9,103.1 581.6,103.7 584.2,104.3 586.6,104.9 588.9,105.4 591.1,106.0 593.2,106.6 595.2,107.1 597.1,107.7 598.9,108.3 600.7,108.8 602.4,109.4 604.1,110.0 605.7,110.5 607.2,111.1 608.7,111.7 610.2,112.2 611.6,112.8 612.9,113.4 614.3,113.9 615.6,114.5 616.8,115.1 618.0,115.6 619.2,116.2 620.4,116.8 621.5,117.3 622.6,117.9 623.7,118.5 624.8,119.0 625.8,119.6 626.8,120.2 627.8,120.7 628.8,121.3 629.7,121.9 630.7,122.4 631.6,123.0 632.5,123.6 633.4,124.2 634.2,124.7 635.1,125.3 635.9,125.9 636.7,126.4 637.5,127.0 639.1,128.1 640.6,129.3 642.1,130.4 643.5,131.5 644.9,132.7 646.2,133.8 647.6,134.9 648.8,136.1 650.1,137.2 651.3,138.3 652.5,139.5 653.6,140.6 654.7,141.7 655.8,142.9 656.9,144.0 657.9,145.2 659.0,146.3 660.0,147.4 660.9,148.6 661.9,149.7 662.8,150.8 663.8,152.0 664.7,153.1 665.6,154.2 666.4,155.4 667.3,156.5 668.1,157.6 669.0,158.8 669.8,159.9 671.0,161.6 672.1,163.3 673.3,165.0 674.4,166.7 675.5,168.4 676.5,170.1 677.6,16.8 678.6,18.5 679.6,20.2 680.5,21.9 681.5,23.6 682.4,25.3 683.3,27.0 684.2,28.8 685.1,30.5 686.0,32.2 686.8,33.9 687.6,35.6 688.5,37.3 689.3,39.0 690.3,41.2 691.4,43.5 692.4,45.8 693.3,48.1 694.3,50.3 695.3,52.6 696.2,54.9 697.1,57.1 698.0,59.4 698.9,61.7 699.7,63.9 700.6,66.2 701.4,68.5 702.2,70.8 703.0,73.0 704.0,75.9 705.0,78.7 705.9,81.5 706.8,84.4 707.7,87.2 708.6,90.1 709.5,92.9 710.4,95.7 711.2,98.6 712.0,101.4 712.9,104.2 713.8,107.7 714.7,111.1 715.7,114.5 716.6,117.9 717.5,121.3 718.3,124.7 719.2,128.1 720.0,131.5 720.8,134.9 721.7,138.3 722.6,142.3 723.5,146.3 724.4,150.2 725.3,154.2 726.1,158.2 727.0,162.1 727.8,166.1 728.6,170.1 729.4,19.1 730.3,23.6 731.2,28.1 732.1,32.7 732.9,37.2 733.7,41.8 734.6,46.3 735.4,50.9 736.3,56.0 737.1,61.1 738.0,66.2 738.8,71.3 739.7,76.4 740.5,81.5 741.3,86.6 742.2,92.3 743.0,98.0 743.9,103.6 744.7,109.3 745.5,115.0 746.4,121.2 747.2,127.5 748.1,133.7 748.9,140.0 749.7,146.2 750.5,152.5 751.4,159.3 752.2,166.1 753.1,17.9 753.9,24.7 754.7,31.5 755.6,38.9 756.4,46.3 757.2,53.7 758.0,61.0 758.9,69.0 759.7,76.9 760.6,84.9 761.4,92.8 762.2,101.3 763.1,109.8 763.9,118.4 764.7,126.9 765.6,136.0 766.4,145.0 767.2,154.1 768.0,163.2 768.9,17.9 769.7,27.5 770.5,37.2 771.3,47.4 772.2,57.6 773.0,67.8 773.8,78.0 774.6,88.8 775.4,99.6 776.3,110.4 777.1,121.7 777.9,133.1 778.7,144.4 779.5,156.4 780.4,168.3 781.2,25.2 782.0,37.7 782.8,50.2 783.6,63.2 784.4,76.3 785.2,89.3 786.1,103.0 786.9,39.1 787.7,53.3 788.5,145.0 789.3,159.2 790.1,18.9 791.0,33.7 791.8,126.5 792.6,141.8 793.4,157.7 794.2,96.1 795.0,112.6 795.9,129.0 796.7,146.1 797.5,163.1 798.3,103.2 799.1,120.8 799.9,61.4 L799.9,93.5 L445.5,93.5 Z" fill="url(#g624)" clip-path="url(#c626)"/>
  <path d="M445.5,94.1 445.5,94.1 478.1,94.6 497.2,95.2 510.8,95.8 521.3,96.3 529.9,96.9 537.1,97.5 543.4,98.0 549.0,98.6 553.9,99.2 558.4,99.7 562.5,100.3 566.3,100.9 569.8,101.4 573.0,102.0 576.1,102.6 578.9,103.1 581.6,103.7 584.2,104.3 586.6,104.9 588.9,105.4 591.1,106.0 593.2,106.6 595.2,107.1 597.1,107.7 598.9,108.3 600.7,108.8 602.4,109.4 604.1,110.0 605.7,110.5 607.2,111.1 608.7,111.7 610.2,112.2 611.6,112.8 612.9,113.4 614.3,113.9 615.6,114.5 616.8,115.1 618.0,115.6 619.2,116.2 620.4,116.8 621.5,117.3 622.6,117.9 623.7,118.5 624.8,119.0 625.8,119.6 626.8,120.2 627.8,120.7 628.8,121.3 629.7,121.9 630.7,122.4 631.6,123.0 632.5,123.6 633.4,124.2 634.2,124.7 635.1,125.3 635.9,125.9 636.7,126.4 637.5,127.0 639.1,128.1 640.6,129.3 642.1,130.4 643.5,131.5 644.9,132.7 646.2,133.8 647.6,134.9 648.8,136.1 650.1,137.2 651.3,138.3 652.5,139.5 653.6,140.6 654.7,141.7 655.8,142.9 656.9,144.0 657.9,145.2 659.0,146.3 660.0,147.4 660.9,148.6 661.9,149.7 662.8,150.8 663.8,152.0 664.7,153.1 665.6,154.2 666.4,155.4 667.3,156.5 668.1,157.6 669.0,158.8 669.8,159.9 671.0,161.6 672.1,163.3 673.3,165.0 674.4,166.7 675.5,168.4 676.5,170.1 677.6,16.8 678.6,18.5 679.6,20.2 680.5,21.9 681.5,23.6 682.4,25.3 683.3,27.0 684.2,28.8 685.1,30.5 686.0,32.2 686.8,33.9 687.6,35.6 688.5,37.3 689.3,39.0 690.3,41.2 691.4,43.5 692.4,45.8 693.3,48.1 694.3,50.3 695.3,52.6 696.2,54.9 697.1,57.1 698.0,59.4 698.9,61.7 699.7,63.9 700.6,66.2 701.4,68.5 702.2,70.8 703.0,73.0 704.0,75.9 705.0,78.7 705.9,81.5 706.8,84.4 707.7,87.2 708.6,90.1 709.5,92.9 710.4,95.7 711.2,98.6 712.0,101.4 712.9,104.2 713.8,107.7 714.7,111.1 715.7,114.5 716.6,117.9 717.5,121.3 718.3,124.7 719.2,128.1 720.0,131.5 720.8,134.9 721.7,138.3 722.6,142.3 723.5,146.3 724.4,150.2 725.3,154.2 726.1,158.2 727.0,162.1 727.8,166.1 728.6,170.1 729.4,19.1 730.3,23.6 731.2,28.1 732.1,32.7 732.9,37.2 733.7,41.8 734.6,46.3 735.4,50.9 736.3,56.0 737.1,61.1 738.0,66.2 738.8,71.3 739.7,76.4 740.5,81.5 741.3,86.6 742.2,92.3 743.0,98.0 743.9,103.6 744.7,109.3 745.5,115.0 746.4,121.2 747.2,127.5 748.1,133.7 748.9,140.0 749.7,146.2 750.5,152.5 751.4,159.3 752.2,166.1 753.1,17.9 753.9,24.7 754.7,31.5 755.6,38.9 756.4,46.3 757.2,53.7 758.0,61.0 758.9,69.0 759.7,76.9 760.6,84.9 761.4,92.8 762.2,101.3 763.1,109.8 763.9,118.4 764.7,126.9 765.6,136.0 766.4,145.0 767.2,154.1 768.0,163.2 768.9,17.9 769.7,27.5 770.5,37.2 771.3,47.4 772.2,57.6 773.0,67.8 773.8,78.0 774.6,88.8 775.4,99.6 776.3,110.4 777.1,121.7 777.9,133.1 778.7,144.4 779.5,156.4 780.4,168.3 781.2,25.2 782.0,37.7 782.8,50.2 783.6,63.2 784.4,76.3 785.2,89.3 786.1,103.0 786.9,39.1 787.7,53.3 788.5,145.0 789.3,159.2 790.1,18.9 791.0,33.7 791.8,126.5 792.6,141.8 793.4,157.7 794.2,96.1 795.0,112.6 795.9,129.0 796.7,146.1 797.5,163.1 798.3,103.2 799.1,120.8 799.9,61.4 L799.9,93.5 L445.5,93.5 Z" fill="url(#g625)" clip-path="url(#c627)"/>
  <defs><clipPath id="pc628"><rect x="442" y="16" width="358" height="155"/></clipPath></defs>
  <polyline points="445.5,94.1 478.1,94.6 497.2,95.2 510.8,95.8 521.3,96.3 529.9,96.9 537.1,97.5 543.4,98.0 549.0,98.6 553.9,99.2 558.4,99.7 562.5,100.3 566.3,100.9 569.8,101.4 573.0,102.0 576.1,102.6 578.9,103.1 581.6,103.7 584.2,104.3 586.6,104.9 588.9,105.4 591.1,106.0 593.2,106.6 595.2,107.1 597.1,107.7 598.9,108.3 600.7,108.8 602.4,109.4 604.1,110.0 605.7,110.5 607.2,111.1 608.7,111.7 610.2,112.2 611.6,112.8 612.9,113.4 614.3,113.9 615.6,114.5 616.8,115.1 618.0,115.6 619.2,116.2 620.4,116.8 621.5,117.3 622.6,117.9 623.7,118.5 624.8,119.0 625.8,119.6 626.8,120.2 627.8,120.7 628.8,121.3 629.7,121.9 630.7,122.4 631.6,123.0 632.5,123.6 633.4,124.2 634.2,124.7 635.1,125.3 635.9,125.9 636.7,126.4 637.5,127.0 639.1,128.1 640.6,129.3 642.1,130.4 643.5,131.5 644.9,132.7 646.2,133.8 647.6,134.9 648.8,136.1 650.1,137.2 651.3,138.3 652.5,139.5 653.6,140.6 654.7,141.7 655.8,142.9 656.9,144.0 657.9,145.2 659.0,146.3 660.0,147.4 660.9,148.6 661.9,149.7 662.8,150.8 663.8,152.0 664.7,153.1 665.6,154.2 666.4,155.4 667.3,156.5 668.1,157.6 669.0,158.8 669.8,159.9 671.0,161.6 672.1,163.3 673.3,165.0 674.4,166.7 675.5,168.4 676.5,170.1 677.6,16.8 678.6,18.5 679.6,20.2 680.5,21.9 681.5,23.6 682.4,25.3 683.3,27.0 684.2,28.8 685.1,30.5 686.0,32.2 686.8,33.9 687.6,35.6 688.5,37.3 689.3,39.0 690.3,41.2 691.4,43.5 692.4,45.8 693.3,48.1 694.3,50.3 695.3,52.6 696.2,54.9 697.1,57.1 698.0,59.4 698.9,61.7 699.7,63.9 700.6,66.2 701.4,68.5 702.2,70.8 703.0,73.0 704.0,75.9 705.0,78.7 705.9,81.5 706.8,84.4 707.7,87.2 708.6,90.1 709.5,92.9 710.4,95.7 711.2,98.6 712.0,101.4 712.9,104.2 713.8,107.7 714.7,111.1 715.7,114.5 716.6,117.9 717.5,121.3 718.3,124.7 719.2,128.1 720.0,131.5 720.8,134.9 721.7,138.3 722.6,142.3 723.5,146.3 724.4,150.2 725.3,154.2 726.1,158.2 727.0,162.1 727.8,166.1 728.6,170.1 729.4,19.1 730.3,23.6 731.2,28.1 732.1,32.7 732.9,37.2 733.7,41.8 734.6,46.3 735.4,50.9 736.3,56.0 737.1,61.1 738.0,66.2 738.8,71.3 739.7,76.4 740.5,81.5 741.3,86.6 742.2,92.3 743.0,98.0 743.9,103.6 744.7,109.3 745.5,115.0 746.4,121.2 747.2,127.5 748.1,133.7 748.9,140.0 749.7,146.2 750.5,152.5 751.4,159.3 752.2,166.1 753.1,17.9 753.9,24.7 754.7,31.5 755.6,38.9 756.4,46.3 757.2,53.7 758.0,61.0 758.9,69.0 759.7,76.9 760.6,84.9 761.4,92.8 762.2,101.3 763.1,109.8 763.9,118.4 764.7,126.9 765.6,136.0 766.4,145.0 767.2,154.1 768.0,163.2 768.9,17.9 769.7,27.5 770.5,37.2 771.3,47.4 772.2,57.6 773.0,67.8 773.8,78.0 774.6,88.8 775.4,99.6 776.3,110.4 777.1,121.7 777.9,133.1 778.7,144.4 779.5,156.4 780.4,168.3 781.2,25.2 782.0,37.7 782.8,50.2 783.6,63.2 784.4,76.3 785.2,89.3 786.1,103.0 786.9,39.1 787.7,53.3 788.5,145.0 789.3,159.2 790.1,18.9 791.0,33.7 791.8,126.5 792.6,141.8 793.4,157.7 794.2,96.1 795.0,112.6 795.9,129.0 796.7,146.1 797.5,163.1 798.3,103.2 799.1,120.8 799.9,61.4" fill="none" stroke="#e74c3c" stroke-width="1.5" stroke-linejoin="round" clip-path="url(#pc628)"/>
  <line x1="34" y1="221" x2="34" y2="376" stroke="#d1d5db"/>
  <line x1="34" y1="298.5" x2="392" y2="298.5" stroke="#d1d5db"/>
  <text x="213" y="402" text-anchor="middle" font-size="9" fill="#6b7280">Hz</text>
  <text x="12" y="298.5" text-anchor="middle" font-size="9" fill="#6b7280" transform="rotate(-90 12 298.5)">Group delay</text>
  <line x1="66.6" y1="221" x2="66.6" y2="376" stroke="#e5e7eb" stroke-width="0.5"/>
  <line x1="85.7" y1="221" x2="85.7" y2="376" stroke="#e5e7eb" stroke-width="0.5"/>
  <line x1="99.3" y1="221" x2="99.3" y2="376" stroke="#e5e7eb" stroke-width="0.5"/>
  <line x1="109.8" y1="221" x2="109.8" y2="376" stroke="#e5e7eb" stroke-width="0.5"/>
  <line x1="118.4" y1="221" x2="118.4" y2="376" stroke="#e5e7eb" stroke-width="0.5"/>
  <line x1="125.7" y1="221" x2="125.7" y2="376" stroke="#e5e7eb" stroke-width="0.5"/>
  <line x1="131.9" y1="221" x2="131.9" y2="376" stroke="#e5e7eb" stroke-width="0.5"/>
  <line x1="137.5" y1="221" x2="137.5" y2="376" stroke="#e5e7eb" stroke-width="0.5"/>
  <line x1="175.1" y1="221" x2="175.1" y2="376" stroke="#e5e7eb" stroke-width="0.5"/>
  <line x1="194.2" y1="221" x2="194.2" y2="376" stroke="#e5e7eb" stroke-width="0.5"/>
  <line x1="207.7" y1="221" x2="207.7" y2="376" stroke="#e5e7eb" stroke-width="0.5"/>
  <line x1="218.3" y1="221" x2="218.3" y2="376" stroke="#e5e7eb" stroke-width="0.5"/>
  <line x1="226.8" y1="221" x2="226.8" y2="376" stroke="#e5e7eb" stroke-width="0.5"/>
  <line x1="234.1" y1="221" x2="234.1" y2="376" stroke="#e5e7eb" stroke-width="0.5"/>
  <line x1="240.4" y1="221" x2="240.4" y2="376" stroke="#e5e7eb" stroke-width="0.5"/>
  <line x1="245.9" y1="221" x2="245.9" y2="376" stroke="#e5e7eb" stroke-width="0.5"/>
  <line x1="283.5" y1="221" x2="283.5" y2="376" stroke="#e5e7eb" stroke-width="0.5"/>
  <line x1="302.6" y1="221" x2="302.6" y2="376" stroke="#e5e7eb" stroke-width="0.5"/>
  <line x1="316.2" y1="221" x2="316.2" y2="376" stroke="#e5e7eb" stroke-width="0.5"/>
  <line x1="326.7" y1="221" x2="326.7" y2="376" stroke="#e5e7eb" stroke-width="0.5"/>
  <line x1="335.3" y1="221" x2="335.3" y2="376" stroke="#e5e7eb" stroke-width="0.5"/>
  <line x1="342.6" y1="221" x2="342.6" y2="376" stroke="#e5e7eb" stroke-width="0.5"/>
  <line x1="348.8" y1="221" x2="348.8" y2="376" stroke="#e5e7eb" stroke-width="0.5"/>
  <line x1="354.4" y1="221" x2="354.4" y2="376" stroke="#e5e7eb" stroke-width="0.5"/>
  <line x1="392.0" y1="221" x2="392.0" y2="376" stroke="#e5e7eb" stroke-width="0.5"/>
  <line x1="142.5" y1="221" x2="142.5" y2="376" stroke="#e5e7eb" stroke-width="0.5"/>
  <text x="142.5" y="388" text-anchor="middle" font-size="8" fill="#6b7280">100</text>
  <line x1="250.9" y1="221" x2="250.9" y2="376" stroke="#e5e7eb" stroke-width="0.5"/>
  <text x="250.9" y="388" text-anchor="middle" font-size="8" fill="#6b7280">1k</text>
  <line x1="359.4" y1="221" x2="359.4" y2="376" stroke="#e5e7eb" stroke-width="0.5"/>
  <text x="359.4" y="388" text-anchor="middle" font-size="8" fill="#6b7280">10k</text>
  <line x1="34" y1="339.9" x2="392" y2="339.9" stroke="#e5e7eb" stroke-width="0.5"/>
  <text x="30" y="342.9" text-anchor="end" font-size="8" fill="#6b7280">-700</text>
  <text x="30" y="301.5" text-anchor="end" font-size="8" fill="#6b7280">0</text>
  <line x1="34" y1="257.1" x2="392" y2="257.1" stroke="#e5e7eb" stroke-width="0.5"/>
  <text x="30" y="260.1" text-anchor="end" font-size="8" fill="#6b7280">700</text>
  <defs><linearGradient id="g629" x1="0" y1="221" x2="0" y2="298.5" gradientUnits="userSpaceOnUse">
    <stop offset="0%" stop-color="#2ecc71" stop-opacity="0.15"/>
    <stop offset="100%" stop-color="#2ecc71" stop-opacity="0.02"/>
  </linearGradient></defs>
  <defs><linearGradient id="g630" x1="0" y1="376" x2="0" y2="298.5" gradientUnits="userSpaceOnUse">
    <stop offset="0%" stop-color="#2ecc71" stop-opacity="0.15"/>
    <stop offset="100%" stop-color="#2ecc71" stop-opacity="0.02"/>
  </linearGradient></defs>
  <defs><clipPath id="c631"><rect x="34" y="221" width="358" height="77.5"/></clipPath></defs>
  <defs><clipPath id="c632"><rect x="34" y="298.5" width="358" height="77.5"/></clipPath></defs>
  <path d="M37.5,297.6 37.5,297.6 70.1,297.6 89.2,297.6 102.8,297.6 113.3,297.6 121.9,297.6 129.1,297.6 135.4,297.6 141.0,297.6 145.9,297.6 150.4,297.6 154.5,297.6 158.3,297.6 161.8,297.6 165.0,297.6 168.1,297.6 170.9,297.6 173.6,297.6 176.2,297.6 178.6,297.6 180.9,297.6 183.1,297.6 185.2,297.6 187.2,297.6 189.1,297.6 190.9,297.6 192.7,297.6 194.4,297.6 196.1,297.6 197.7,297.6 199.2,297.6 200.7,297.6 202.2,297.6 203.6,297.6 204.9,297.6 206.3,297.6 207.6,297.6 208.8,297.6 210.0,297.6 211.2,297.6 212.4,297.6 213.5,297.6 214.6,297.6 215.7,297.6 216.8,297.6 217.8,297.6 218.8,297.6 219.8,297.6 220.8,297.6 221.7,297.6 222.7,297.6 223.6,297.6 224.5,297.6 225.4,297.6 226.2,297.6 227.1,297.6 227.9,297.6 228.7,297.6 229.5,297.6 231.1,297.6 232.6,297.6 234.1,297.6 235.5,297.6 236.9,297.6 238.2,297.6 239.6,297.6 240.8,297.6 242.1,297.6 243.3,297.6 244.5,297.6 245.6,297.6 246.7,297.6 247.8,297.6 248.9,297.6 249.9,297.6 251.0,297.6 252.0,297.6 252.9,297.6 253.9,297.6 254.8,297.6 255.8,297.6 256.7,297.6 257.6,297.6 258.4,297.6 259.3,297.6 260.1,297.6 261.0,297.6 261.8,297.6 263.0,297.6 264.1,297.6 265.3,297.6 266.4,297.6 267.5,297.6 268.5,297.6 269.6,297.6 270.6,297.6 271.6,297.6 272.5,297.6 273.5,297.6 274.4,297.6 275.3,297.6 276.2,297.6 277.1,297.6 278.0,297.6 278.8,297.6 279.6,297.6 280.5,297.6 281.3,297.6 282.3,297.6 283.4,297.6 284.4,297.6 285.3,297.6 286.3,297.6 287.3,297.6 288.2,297.6 289.1,297.6 290.0,297.6 290.9,297.6 291.7,297.6 292.6,297.6 293.4,297.6 294.2,297.6 295.0,297.6 296.0,297.6 297.0,297.6 297.9,297.6 298.8,297.6 299.7,297.6 300.6,297.6 301.5,297.6 302.4,297.6 303.2,297.6 304.0,297.6 304.9,297.6 305.8,297.6 306.7,297.6 307.7,297.6 308.6,297.6 309.5,297.6 310.3,297.6 311.2,297.6 312.0,297.6 312.8,297.6 313.7,297.6 314.6,297.6 315.5,297.6 316.4,297.6 317.3,297.6 318.1,297.6 319.0,297.6 319.8,297.6 320.6,297.6 321.4,297.6 322.3,297.6 323.2,297.6 324.1,297.6 324.9,297.6 325.7,297.6 326.6,297.6 327.4,297.6 328.3,297.6 329.1,297.6 330.0,297.6 330.8,297.6 331.7,297.6 332.5,297.6 333.3,297.6 334.2,297.6 335.0,297.6 335.9,297.6 336.7,297.6 337.5,297.6 338.4,297.6 339.2,297.6 340.1,297.6 340.9,297.6 341.7,297.6 342.5,297.6 343.4,297.6 344.2,297.6 345.1,297.6 345.9,297.6 346.7,297.6 347.6,297.6 348.4,297.6 349.2,297.6 350.0,297.6 350.9,297.6 351.7,297.6 352.6,297.6 353.4,297.6 354.2,297.6 355.1,297.6 355.9,297.6 356.7,297.6 357.6,297.6 358.4,297.6 359.2,297.6 360.0,297.6 360.9,297.6 361.7,297.6 362.5,297.6 363.3,297.6 364.2,297.6 365.0,297.6 365.8,297.6 366.6,297.6 367.4,297.6 368.3,297.6 369.1,297.6 369.9,297.6 370.7,297.6 371.5,297.6 372.4,297.6 373.2,297.6 374.0,297.6 374.8,297.6 375.6,297.6 376.4,297.6 377.2,297.6 378.1,297.6 378.9,358.1 379.7,297.6 380.5,297.6 381.3,297.6 382.1,297.6 383.0,297.6 383.8,297.6 384.6,297.6 385.4,297.6 386.2,297.6 387.0,297.6 387.9,297.6 388.7,297.6 389.5,297.6 390.3,297.6 391.1,297.6 391.9,297.6 L391.9,298.5 L37.5,298.5 Z" fill="url(#g629)" clip-path="url(#c631)"/>
  <path d="M37.5,297.6 37.5,297.6 70.1,297.6 89.2,297.6 102.8,297.6 113.3,297.6 121.9,297.6 129.1,297.6 135.4,297.6 141.0,297.6 145.9,297.6 150.4,297.6 154.5,297.6 158.3,297.6 161.8,297.6 165.0,297.6 168.1,297.6 170.9,297.6 173.6,297.6 176.2,297.6 178.6,297.6 180.9,297.6 183.1,297.6 185.2,297.6 187.2,297.6 189.1,297.6 190.9,297.6 192.7,297.6 194.4,297.6 196.1,297.6 197.7,297.6 199.2,297.6 200.7,297.6 202.2,297.6 203.6,297.6 204.9,297.6 206.3,297.6 207.6,297.6 208.8,297.6 210.0,297.6 211.2,297.6 212.4,297.6 213.5,297.6 214.6,297.6 215.7,297.6 216.8,297.6 217.8,297.6 218.8,297.6 219.8,297.6 220.8,297.6 221.7,297.6 222.7,297.6 223.6,297.6 224.5,297.6 225.4,297.6 226.2,297.6 227.1,297.6 227.9,297.6 228.7,297.6 229.5,297.6 231.1,297.6 232.6,297.6 234.1,297.6 235.5,297.6 236.9,297.6 238.2,297.6 239.6,297.6 240.8,297.6 242.1,297.6 243.3,297.6 244.5,297.6 245.6,297.6 246.7,297.6 247.8,297.6 248.9,297.6 249.9,297.6 251.0,297.6 252.0,297.6 252.9,297.6 253.9,297.6 254.8,297.6 255.8,297.6 256.7,297.6 257.6,297.6 258.4,297.6 259.3,297.6 260.1,297.6 261.0,297.6 261.8,297.6 263.0,297.6 264.1,297.6 265.3,297.6 266.4,297.6 267.5,297.6 268.5,297.6 269.6,297.6 270.6,297.6 271.6,297.6 272.5,297.6 273.5,297.6 274.4,297.6 275.3,297.6 276.2,297.6 277.1,297.6 278.0,297.6 278.8,297.6 279.6,297.6 280.5,297.6 281.3,297.6 282.3,297.6 283.4,297.6 284.4,297.6 285.3,297.6 286.3,297.6 287.3,297.6 288.2,297.6 289.1,297.6 290.0,297.6 290.9,297.6 291.7,297.6 292.6,297.6 293.4,297.6 294.2,297.6 295.0,297.6 296.0,297.6 297.0,297.6 297.9,297.6 298.8,297.6 299.7,297.6 300.6,297.6 301.5,297.6 302.4,297.6 303.2,297.6 304.0,297.6 304.9,297.6 305.8,297.6 306.7,297.6 307.7,297.6 308.6,297.6 309.5,297.6 310.3,297.6 311.2,297.6 312.0,297.6 312.8,297.6 313.7,297.6 314.6,297.6 315.5,297.6 316.4,297.6 317.3,297.6 318.1,297.6 319.0,297.6 319.8,297.6 320.6,297.6 321.4,297.6 322.3,297.6 323.2,297.6 324.1,297.6 324.9,297.6 325.7,297.6 326.6,297.6 327.4,297.6 328.3,297.6 329.1,297.6 330.0,297.6 330.8,297.6 331.7,297.6 332.5,297.6 333.3,297.6 334.2,297.6 335.0,297.6 335.9,297.6 336.7,297.6 337.5,297.6 338.4,297.6 339.2,297.6 340.1,297.6 340.9,297.6 341.7,297.6 342.5,297.6 343.4,297.6 344.2,297.6 345.1,297.6 345.9,297.6 346.7,297.6 347.6,297.6 348.4,297.6 349.2,297.6 350.0,297.6 350.9,297.6 351.7,297.6 352.6,297.6 353.4,297.6 354.2,297.6 355.1,297.6 355.9,297.6 356.7,297.6 357.6,297.6 358.4,297.6 359.2,297.6 360.0,297.6 360.9,297.6 361.7,297.6 362.5,297.6 363.3,297.6 364.2,297.6 365.0,297.6 365.8,297.6 366.6,297.6 367.4,297.6 368.3,297.6 369.1,297.6 369.9,297.6 370.7,297.6 371.5,297.6 372.4,297.6 373.2,297.6 374.0,297.6 374.8,297.6 375.6,297.6 376.4,297.6 377.2,297.6 378.1,297.6 378.9,358.1 379.7,297.6 380.5,297.6 381.3,297.6 382.1,297.6 383.0,297.6 383.8,297.6 384.6,297.6 385.4,297.6 386.2,297.6 387.0,297.6 387.9,297.6 388.7,297.6 389.5,297.6 390.3,297.6 391.1,297.6 391.9,297.6 L391.9,298.5 L37.5,298.5 Z" fill="url(#g630)" clip-path="url(#c632)"/>
  <defs><clipPath id="pc633"><rect x="34" y="221" width="358" height="155"/></clipPath></defs>
  <polyline points="37.5,297.6 70.1,297.6 89.2,297.6 102.8,297.6 113.3,297.6 121.9,297.6 129.1,297.6 135.4,297.6 141.0,297.6 145.9,297.6 150.4,297.6 154.5,297.6 158.3,297.6 161.8,297.6 165.0,297.6 168.1,297.6 170.9,297.6 173.6,297.6 176.2,297.6 178.6,297.6 180.9,297.6 183.1,297.6 185.2,297.6 187.2,297.6 189.1,297.6 190.9,297.6 192.7,297.6 194.4,297.6 196.1,297.6 197.7,297.6 199.2,297.6 200.7,297.6 202.2,297.6 203.6,297.6 204.9,297.6 206.3,297.6 207.6,297.6 208.8,297.6 210.0,297.6 211.2,297.6 212.4,297.6 213.5,297.6 214.6,297.6 215.7,297.6 216.8,297.6 217.8,297.6 218.8,297.6 219.8,297.6 220.8,297.6 221.7,297.6 222.7,297.6 223.6,297.6 224.5,297.6 225.4,297.6 226.2,297.6 227.1,297.6 227.9,297.6 228.7,297.6 229.5,297.6 231.1,297.6 232.6,297.6 234.1,297.6 235.5,297.6 236.9,297.6 238.2,297.6 239.6,297.6 240.8,297.6 242.1,297.6 243.3,297.6 244.5,297.6 245.6,297.6 246.7,297.6 247.8,297.6 248.9,297.6 249.9,297.6 251.0,297.6 252.0,297.6 252.9,297.6 253.9,297.6 254.8,297.6 255.8,297.6 256.7,297.6 257.6,297.6 258.4,297.6 259.3,297.6 260.1,297.6 261.0,297.6 261.8,297.6 263.0,297.6 264.1,297.6 265.3,297.6 266.4,297.6 267.5,297.6 268.5,297.6 269.6,297.6 270.6,297.6 271.6,297.6 272.5,297.6 273.5,297.6 274.4,297.6 275.3,297.6 276.2,297.6 277.1,297.6 278.0,297.6 278.8,297.6 279.6,297.6 280.5,297.6 281.3,297.6 282.3,297.6 283.4,297.6 284.4,297.6 285.3,297.6 286.3,297.6 287.3,297.6 288.2,297.6 289.1,297.6 290.0,297.6 290.9,297.6 291.7,297.6 292.6,297.6 293.4,297.6 294.2,297.6 295.0,297.6 296.0,297.6 297.0,297.6 297.9,297.6 298.8,297.6 299.7,297.6 300.6,297.6 301.5,297.6 302.4,297.6 303.2,297.6 304.0,297.6 304.9,297.6 305.8,297.6 306.7,297.6 307.7,297.6 308.6,297.6 309.5,297.6 310.3,297.6 311.2,297.6 312.0,297.6 312.8,297.6 313.7,297.6 314.6,297.6 315.5,297.6 316.4,297.6 317.3,297.6 318.1,297.6 319.0,297.6 319.8,297.6 320.6,297.6 321.4,297.6 322.3,297.6 323.2,297.6 324.1,297.6 324.9,297.6 325.7,297.6 326.6,297.6 327.4,297.6 328.3,297.6 329.1,297.6 330.0,297.6 330.8,297.6 331.7,297.6 332.5,297.6 333.3,297.6 334.2,297.6 335.0,297.6 335.9,297.6 336.7,297.6 337.5,297.6 338.4,297.6 339.2,297.6 340.1,297.6 340.9,297.6 341.7,297.6 342.5,297.6 343.4,297.6 344.2,297.6 345.1,297.6 345.9,297.6 346.7,297.6 347.6,297.6 348.4,297.6 349.2,297.6 350.0,297.6 350.9,297.6 351.7,297.6 352.6,297.6 353.4,297.6 354.2,297.6 355.1,297.6 355.9,297.6 356.7,297.6 357.6,297.6 358.4,297.6 359.2,297.6 360.0,297.6 360.9,297.6 361.7,297.6 362.5,297.6 363.3,297.6 364.2,297.6 365.0,297.6 365.8,297.6 366.6,297.6 367.4,297.6 368.3,297.6 369.1,297.6 369.9,297.6 370.7,297.6 371.5,297.6 372.4,297.6 373.2,297.6 374.0,297.6 374.8,297.6 375.6,297.6 376.4,297.6 377.2,297.6 378.1,297.6 378.9,358.1 379.7,297.6 380.5,297.6 381.3,297.6 382.1,297.6 383.0,297.6 383.8,297.6 384.6,297.6 385.4,297.6 386.2,297.6 387.0,297.6 387.9,297.6 388.7,297.6 389.5,297.6 390.3,297.6 391.1,297.6 391.9,297.6" fill="none" stroke="#2ecc71" stroke-width="1.5" stroke-linejoin="round" clip-path="url(#pc633)"/>
  <line x1="442" y1="221" x2="442" y2="376" stroke="#d1d5db"/>
  <line x1="442" y1="298.5" x2="800" y2="298.5" stroke="#d1d5db"/>
  <text x="621" y="402" text-anchor="middle" font-size="9" fill="#6b7280">Samples</text>
  <text x="420" y="298.5" text-anchor="middle" font-size="9" fill="#6b7280" transform="rotate(-90 420 298.5)">Impulse response</text>
  <line x1="442.0" y1="221" x2="442.0" y2="376" stroke="#e5e7eb" stroke-width="0.5"/>
  <text x="442.0" y="388" text-anchor="middle" font-size="8" fill="#6b7280">0</text>
  <line x1="673.0" y1="221" x2="673.0" y2="376" stroke="#e5e7eb" stroke-width="0.5"/>
  <text x="673.0" y="388" text-anchor="middle" font-size="8" fill="#6b7280">20</text>
  <line x1="442" y1="360.5" x2="800" y2="360.5" stroke="#e5e7eb" stroke-width="0.5"/>
  <text x="438" y="363.5" text-anchor="end" font-size="8" fill="#6b7280">-0.4</text>
  <text x="438" y="301.5" text-anchor="end" font-size="8" fill="#6b7280">0</text>
  <line x1="442" y1="236.5" x2="800" y2="236.5" stroke="#e5e7eb" stroke-width="0.5"/>
  <text x="438" y="239.5" text-anchor="end" font-size="8" fill="#6b7280">0.4</text>
  <defs><linearGradient id="g634" x1="0" y1="221" x2="0" y2="298.5" gradientUnits="userSpaceOnUse">
    <stop offset="0%" stop-color="#f39c12" stop-opacity="0.15"/>
    <stop offset="100%" stop-color="#f39c12" stop-opacity="0.02"/>
  </linearGradient></defs>
  <defs><linearGradient id="g635" x1="0" y1="376" x2="0" y2="298.5" gradientUnits="userSpaceOnUse">
    <stop offset="0%" stop-color="#f39c12" stop-opacity="0.15"/>
    <stop offset="100%" stop-color="#f39c12" stop-opacity="0.02"/>
  </linearGradient></defs>
  <defs><clipPath id="c636"><rect x="442" y="221" width="358" height="77.5"/></clipPath></defs>
  <defs><clipPath id="c637"><rect x="442" y="298.5" width="358" height="77.5"/></clipPath></defs>
  <path d="M442.0,298.5 442.0,298.5 453.5,298.5 465.1,298.4 476.6,298.5 488.2,298.8 499.7,298.5 511.3,297.4 522.8,298.5 534.4,301.3 545.9,298.5 557.5,292.3 569.0,298.5 580.6,312.5 592.1,298.5 603.7,250.0 615.2,221.0 626.8,250.0 638.3,298.5 649.9,312.5 661.4,298.5 673.0,292.3 684.5,298.5 696.1,301.3 707.6,298.5 719.2,297.4 730.7,298.5 742.3,298.8 753.8,298.5 765.4,298.4 776.9,298.5 788.5,298.5 L788.5,298.5 L442.0,298.5 Z" fill="url(#g634)" clip-path="url(#c636)"/>
  <path d="M442.0,298.5 442.0,298.5 453.5,298.5 465.1,298.4 476.6,298.5 488.2,298.8 499.7,298.5 511.3,297.4 522.8,298.5 534.4,301.3 545.9,298.5 557.5,292.3 569.0,298.5 580.6,312.5 592.1,298.5 603.7,250.0 615.2,221.0 626.8,250.0 638.3,298.5 649.9,312.5 661.4,298.5 673.0,292.3 684.5,298.5 696.1,301.3 707.6,298.5 719.2,297.4 730.7,298.5 742.3,298.8 753.8,298.5 765.4,298.4 776.9,298.5 788.5,298.5 L788.5,298.5 L442.0,298.5 Z" fill="url(#g635)" clip-path="url(#c637)"/>
  <defs><clipPath id="pc638"><rect x="442" y="221" width="358" height="155"/></clipPath></defs>
  <polyline points="442.0,298.5 453.5,298.5 465.1,298.4 476.6,298.5 488.2,298.8 499.7,298.5 511.3,297.4 522.8,298.5 534.4,301.3 545.9,298.5 557.5,292.3 569.0,298.5 580.6,312.5 592.1,298.5 603.7,250.0 615.2,221.0 626.8,250.0 638.3,298.5 649.9,312.5 661.4,298.5 673.0,292.3 684.5,298.5 696.1,301.3 707.6,298.5 719.2,297.4 730.7,298.5 742.3,298.8 753.8,298.5 765.4,298.4 776.9,298.5 788.5,298.5" fill="none" stroke="#f39c12" stroke-width="1.3" stroke-linejoin="round" clip-path="url(#pc638)"/>
</svg>
