<svg xmlns="http://www.w3.org/2000/svg" viewBox="0 0 820 378" style="font-family:system-ui,-apple-system,sans-serif">
  <text x="800" y="11" text-anchor="end" font-size="11" font-weight="600" fill="#6b7280">Hilbert transform, 63 taps</text>
  <line x1="34" y1="16" x2="34" y2="171" stroke="#d1d5db"/>
  <line x1="34" y1="47.0" x2="399" y2="47.0" stroke="#d1d5db"/>
  <text x="216.5" y="197" text-anchor="middle" font-size="9" fill="#6b7280">Hz</text>
  <text x="12" y="93.5" text-anchor="middle" font-size="9" fill="#6b7280" transform="rotate(-90 12 93.5)">dB</text>
  <line x1="67.3" y1="16" x2="67.3" y2="171" stroke="#e5e7eb" stroke-width="0.5"/>
  <line x1="86.8" y1="16" x2="86.8" y2="171" stroke="#e5e7eb" stroke-width="0.5"/>
  <line x1="100.6" y1="16" x2="100.6" y2="171" stroke="#e5e7eb" stroke-width="0.5"/>
  <line x1="111.3" y1="16" x2="111.3" y2="171" stroke="#e5e7eb" stroke-width="0.5"/>
  <line x1="120.0" y1="16" x2="120.0" y2="171" stroke="#e5e7eb" stroke-width="0.5"/>
  <line x1="127.4" y1="16" x2="127.4" y2="171" stroke="#e5e7eb" stroke-width="0.5"/>
  <line x1="133.9" y1="16" x2="133.9" y2="171" stroke="#e5e7eb" stroke-width="0.5"/>
  <line x1="139.5" y1="16" x2="139.5" y2="171" stroke="#e5e7eb" stroke-width="0.5"/>
  <line x1="177.9" y1="16" x2="177.9" y2="171" stroke="#e5e7eb" stroke-width="0.5"/>
  <line x1="197.3" y1="16" x2="197.3" y2="171" stroke="#e5e7eb" stroke-width="0.5"/>
  <line x1="211.1" y1="16" x2="211.1" y2="171" stroke="#e5e7eb" stroke-width="0.5"/>
  <line x1="221.9" y1="16" x2="221.9" y2="171" stroke="#e5e7eb" stroke-width="0.5"/>
  <line x1="230.6" y1="16" x2="230.6" y2="171" stroke="#e5e7eb" stroke-width="0.5"/>
  <line x1="238.0" y1="16" x2="238.0" y2="171" stroke="#e5e7eb" stroke-width="0.5"/>
  <line x1="244.4" y1="16" x2="244.4" y2="171" stroke="#e5e7eb" stroke-width="0.5"/>
  <line x1="250.1" y1="16" x2="250.1" y2="171" stroke="#e5e7eb" stroke-width="0.5"/>
  <line x1="288.4" y1="16" x2="288.4" y2="171" stroke="#e5e7eb" stroke-width="0.5"/>
  <line x1="307.9" y1="16" x2="307.9" y2="171" stroke="#e5e7eb" stroke-width="0.5"/>
  <line x1="321.7" y1="16" x2="321.7" y2="171" stroke="#e5e7eb" stroke-width="0.5"/>
  <line x1="332.4" y1="16" x2="332.4" y2="171" stroke="#e5e7eb" stroke-width="0.5"/>
  <line x1="341.2" y1="16" x2="341.2" y2="171" stroke="#e5e7eb" stroke-width="0.5"/>
  <line x1="348.6" y1="16" x2="348.6" y2="171" stroke="#e5e7eb" stroke-width="0.5"/>
  <line x1="355.0" y1="16" x2="355.0" y2="171" stroke="#e5e7eb" stroke-width="0.5"/>
  <line x1="360.7" y1="16" x2="360.7" y2="171" stroke="#e5e7eb" stroke-width="0.5"/>
  <line x1="399.0" y1="16" x2="399.0" y2="171" stroke="#e5e7eb" stroke-width="0.5"/>
  <line x1="144.6" y1="16" x2="144.6" y2="171" stroke="#e5e7eb" stroke-width="0.5"/>
  <text x="144.6" y="183" text-anchor="middle" font-size="8" fill="#6b7280">100</text>
  <line x1="255.1" y1="16" x2="255.1" y2="171" stroke="#e5e7eb" stroke-width="0.5"/>
  <text x="255.1" y="183" text-anchor="middle" font-size="8" fill="#6b7280">1k</text>
  <line x1="365.7" y1="16" x2="365.7" y2="171" stroke="#e5e7eb" stroke-width="0.5"/>
  <text x="365.7" y="183" text-anchor="middle" font-size="8" fill="#6b7280">10k</text>
  <line x1="34" y1="31.5" x2="399" y2="31.5" stroke="#e5e7eb" stroke-width="0.5"/>
  <line x1="34" y1="62.5" x2="399" y2="62.5" stroke="#e5e7eb" stroke-width="0.5"/>
  <line x1="34" y1="16.0" x2="399" y2="16.0" stroke="#e5e7eb" stroke-width="0.5"/>
  <text x="30" y="19.0" text-anchor="end" font-size="8" fill="#6b7280">+20</text>
  <text x="30" y="50.0" text-anchor="end" font-size="8" fill="#6b7280">0</text>
  <line x1="34" y1="78.0" x2="399" y2="78.0" stroke="#e5e7eb" stroke-width="0.5"/>
  <text x="30" y="81.0" text-anchor="end" font-size="8" fill="#6b7280">-20</text>
  <line x1="34" y1="109.0" x2="399" y2="109.0" stroke="#e5e7eb" stroke-width="0.5"/>
  <text x="30" y="112.0" text-anchor="end" font-size="8" fill="#6b7280">-40</text>
  <line x1="34" y1="140.0" x2="399" y2="140.0" stroke="#e5e7eb" stroke-width="0.5"/>
  <text x="30" y="143.0" text-anchor="end" font-size="8" fill="#6b7280">-60</text>
  <line x1="34" y1="171.0" x2="399" y2="171.0" stroke="#e5e7eb" stroke-width="0.5"/>
  <text x="30" y="174.0" text-anchor="end" font-size="8" fill="#6b7280">-80</text>
  <defs><linearGradient id="g428" x1="0" y1="16" x2="0" y2="171" gradientUnits="userSpaceOnUse">
    <stop offset="0%" stop-color="#4a90d9" stop-opacity="0.15"/>
    <stop offset="100%" stop-color="#4a90d9" stop-opacity="0.02"/>
  </linearGradient></defs>
  <path d="M37.5,102.3 37.5,102.3 70.8,93.0 90.3,87.5 104.1,83.7 114.8,80.7 123.6,78.2 131.0,76.2 137.4,74.4 143.1,72.8 148.1,71.4 152.7,70.1 156.9,69.0 160.7,67.9 164.3,67.0 167.6,66.0 170.7,65.2 173.6,64.4 176.3,63.7 178.9,63.0 181.4,62.3 183.7,61.7 186.0,61.1 188.1,60.5 190.2,60.0 192.1,59.5 194.0,59.0 195.8,58.5 197.6,58.1 199.2,57.7 200.9,57.3 202.4,56.9 204.0,56.5 205.5,56.1 206.9,55.8 208.3,55.5 209.6,55.1 210.9,54.8 212.2,54.5 213.5,54.2 214.7,54.0 215.9,53.7 217.0,53.4 218.2,53.2 219.3,52.9 220.3,52.7 221.4,52.5 222.4,52.3 223.4,52.1 224.4,51.8 225.4,51.7 226.4,51.5 227.3,51.3 228.2,51.1 229.1,50.9 230.0,50.8 230.8,50.6 231.7,50.5 232.5,50.3 233.4,50.2 234.2,50.0 235.7,49.8 237.3,49.5 238.7,49.3 240.2,49.1 241.6,48.9 242.9,48.7 244.2,48.5 245.5,48.4 246.8,48.2 248.0,48.1 249.2,48.0 250.3,47.9 251.4,47.8 252.6,47.7 253.6,47.6 254.7,47.5 255.7,47.4 256.7,47.4 257.7,47.3 258.7,47.3 259.6,47.2 260.6,47.2 261.5,47.1 262.4,47.1 263.3,47.1 264.1,47.0 265.0,47.0 265.8,47.0 266.6,47.0 267.4,47.0 268.6,47.0 269.8,47.0 270.9,47.0 272.0,46.9 273.1,46.9 274.2,46.9 275.2,46.9 276.2,46.9 277.2,46.9 278.2,46.9 279.1,47.0 280.0,47.0 281.0,47.0 281.9,47.0 282.7,47.0 283.6,47.0 284.5,47.0 285.3,47.0 286.1,47.0 286.9,47.0 288.0,47.0 289.0,47.0 290.0,47.0 291.0,47.0 292.0,47.0 292.9,47.0 293.9,47.0 294.8,47.0 295.7,47.0 296.6,47.0 297.4,47.0 298.3,47.0 299.1,47.0 299.9,47.0 300.7,47.0 301.7,47.0 302.7,47.0 303.6,47.0 304.6,47.0 305.5,47.0 306.4,47.0 307.3,47.0 308.1,47.0 309.0,47.0 309.8,47.0 310.6,47.0 311.4,47.0 312.4,47.0 313.3,47.0 314.2,47.0 315.1,47.0 316.0,47.0 316.9,47.0 317.7,47.0 318.6,47.0 319.4,47.0 320.2,47.0 321.1,47.0 322.0,47.0 322.9,47.0 323.8,47.0 324.7,47.0 325.5,47.0 326.3,47.0 327.1,47.0 327.9,47.0 328.8,47.0 329.7,47.0 330.6,47.0 331.4,47.0 332.3,47.0 333.1,47.0 333.9,47.0 334.8,47.0 335.7,47.0 336.5,47.0 337.4,47.0 338.2,47.0 339.0,47.0 339.8,47.0 340.7,47.0 341.6,47.0 342.4,47.0 343.3,47.0 344.1,47.0 344.9,47.0 345.8,47.0 346.6,47.0 347.5,47.0 348.3,47.0 349.1,47.0 350.0,47.0 350.8,47.0 351.7,47.0 352.5,47.0 353.3,47.0 354.1,47.0 355.0,47.0 355.8,47.0 356.6,47.0 357.5,47.0 358.3,47.0 359.1,47.0 360.0,47.0 360.8,47.0 361.6,47.0 362.5,47.0 363.3,47.0 364.1,47.0 364.9,47.0 365.8,47.0 366.6,47.0 367.4,47.0 368.2,47.0 369.1,47.0 369.9,47.0 370.7,47.0 371.6,47.0 372.4,47.0 373.2,47.0 374.0,47.0 374.8,47.0 375.6,47.0 376.5,47.0 377.3,47.0 378.1,47.0 378.9,47.0 379.7,47.0 380.5,47.0 381.4,47.0 382.2,47.0 383.0,47.0 383.8,47.0 384.6,47.0 385.5,47.0 386.3,47.0 387.1,47.0 387.9,47.0 388.7,47.0 389.5,47.0 390.3,47.0 391.2,47.0 392.0,47.0 392.8,47.0 393.6,47.0 394.4,47.0 395.2,47.0 396.0,47.0 396.8,47.0 397.6,47.0 398.5,47.0 L398.5,171.0 L37.5,171.0 Z" fill="url(#g428)"/>
  <defs><clipPath id="pc429"><rect x="34" y="16" width="365" height="155"/></clipPath></defs>
  <polyline points="37.5,102.3 70.8,93.0 90.3,87.5 104.1,83.7 114.8,80.7 123.6,78.2 131.0,76.2 137.4,74.4 143.1,72.8 148.1,71.4 152.7,70.1 156.9,69.0 160.7,67.9 164.3,67.0 167.6,66.0 170.7,65.2 173.6,64.4 176.3,63.7 178.9,63.0 181.4,62.3 183.7,61.7 186.0,61.1 188.1,60.5 190.2,60.0 192.1,59.5 194.0,59.0 195.8,58.5 197.6,58.1 199.2,57.7 200.9,57.3 202.4,56.9 204.0,56.5 205.5,56.1 206.9,55.8 208.3,55.5 209.6,55.1 210.9,54.8 212.2,54.5 213.5,54.2 214.7,54.0 215.9,53.7 217.0,53.4 218.2,53.2 219.3,52.9 220.3,52.7 221.4,52.5 222.4,52.3 223.4,52.1 224.4,51.8 225.4,51.7 226.4,51.5 227.3,51.3 228.2,51.1 229.1,50.9 230.0,50.8 230.8,50.6 231.7,50.5 232.5,50.3 233.4,50.2 234.2,50.0 235.7,49.8 237.3,49.5 238.7,49.3 240.2,49.1 241.6,48.9 242.9,48.7 244.2,48.5 245.5,48.4 246.8,48.2 248.0,48.1 249.2,48.0 250.3,47.9 251.4,47.8 252.6,47.7 253.6,47.6 254.7,47.5 255.7,47.4 256.7,47.4 257.7,47.3 258.7,47.3 259.6,47.2 260.6,47.2 261.5,47.1 262.4,47.1 263.3,47.1 264.1,47.0 265.0,47.0 265.8,47.0 266.6,47.0 267.4,47.0 268.6,47.0 269.8,47.0 270.9,47.0 272.0,46.9 273.1,46.9 274.2,46.9 275.2,46.9 276.2,46.9 277.2,46.9 278.2,46.9 279.1,47.0 280.0,47.0 281.0,47.0 281.9,47.0 282.7,47.0 283.6,47.0 284.5,47.0 285.3,47.0 286.1,47.0 286.9,47.0 288.0,47.0 289.0,47.0 290.0,47.0 291.0,47.0 292.0,47.0 292.9,47.0 293.9,47.0 294.8,47.0 295.7,47.0 296.6,47.0 297.4,47.0 298.3,47.0 299.1,47.0 299.9,47.0 300.7,47.0 301.7,47.0 302.7,47.0 303.6,47.0 304.6,47.0 305.5,47.0 306.4,47.0 307.3,47.0 308.1,47.0 309.0,47.0 309.8,47.0 310.6,47.0 311.4,47.0 312.4,47.0 313.3,47.0 314.2,47.0 315.1,47.0 316.0,47.0 316.9,47.0 317.7,47.0 318.6,47.0 319.4,47.0 320.2,47.0 321.1,47.0 322.0,47.0 322.9,47.0 323.8,47.0 324.7,47.0 325.5,47.0 326.3,47.0 327.1,47.0 327.9,47.0 328.8,47.0 329.7,47.0 330.6,47.0 331.4,47.0 332.3,47.0 333.1,47.0 333.9,47.0 334.8,47.0 335.7,47.0 336.5,47.0 337.4,47.0 338.2,47.0 339.0,47.0 339.8,47.0 340.7,47.0 341.6,47.0 342.4,47.0 343.3,47.0 344.1,47.0 344.9,47.0 345.8,47.0 346.6,47.0 347.5,47.0 348.3,47.0 349.1,47.0 350.0,47.0 350.8,47.0 351.7,47.0 352.5,47.0 353.3,47.0 354.1,47.0 355.0,47.0 355.8,47.0 356.6,47.0 357.5,47.0 358.3,47.0 359.1,47.0 360.0,47.0 360.8,47.0 361.6,47.0 362.5,47.0 363.3,47.0 364.1,47.0 364.9,47.0 365.8,47.0 366.6,47.0 367.4,47.0 368.2,47.0 369.1,47.0 369.9,47.0 370.7,47.0 371.6,47.0 372.4,47.0 373.2,47.0 374.0,47.0 374.8,47.0 375.6,47.0 376.5,47.0 377.3,47.0 378.1,47.0 378.9,47.0 379.7,47.0 380.5,47.0 381.4,47.0 382.2,47.0 383.0,47.0 383.8,47.0 384.6,47.0 385.5,47.0 386.3,47.0 387.1,47.0 387.9,47.0 388.7,47.0 389.5,47.0 390.3,47.0 391.2,47.0 392.0,47.0 392.8,47.0 393.6,47.0 394.4,47.0 395.2,47.0 396.0,47.0 396.8,47.0 397.6,47.0 398.5,47.0" fill="none" stroke="#4a90d9" stroke-width="1.5" stroke-linejoin="round" clip-path="url(#pc429)"/>
  <line x1="435" y1="16" x2="435" y2="171" stroke="#d1d5db"/>
  <line x1="435" y1="93.5" x2="800" y2="93.5" stroke="#d1d5db"/>
  <text x="617.5" y="197" text-anchor="middle" font-size="9" fill="#6b7280">Hz</text>
  <text x="413" y="93.5" text-anchor="middle" font-size="9" fill="#6b7280" transform="rotate(-90 413 93.5)">Phase (deg)</text>
  <line x1="468.3" y1="16" x2="468.3" y2="171" stroke="#e5e7eb" stroke-width="0.5"/>
  <line x1="487.8" y1="16" x2="487.8" y2="171" stroke="#e5e7eb" stroke-width="0.5"/>
  <line x1="501.6" y1="16" x2="501.6" y2="171" stroke="#e5e7eb" stroke-width="0.5"/>
  <line x1="512.3" y1="16" x2="512.3" y2="171" stroke="#e5e7eb" stroke-width="0.5"/>
  <line x1="521.0" y1="16" x2="521.0" y2="171" stroke="#e5e7eb" stroke-width="0.5"/>
  <line x1="528.4" y1="16" x2="528.4" y2="171" stroke="#e5e7eb" stroke-width="0.5"/>
  <line x1="534.9" y1="16" x2="534.9" y2="171" stroke="#e5e7eb" stroke-width="0.5"/>
  <line x1="540.5" y1="16" x2="540.5" y2="171" stroke="#e5e7eb" stroke-width="0.5"/>
  <line x1="578.9" y1="16" x2="578.9" y2="171" stroke="#e5e7eb" stroke-width="0.5"/>
  <line x1="598.3" y1="16" x2="598.3" y2="171" stroke="#e5e7eb" stroke-width="0.5"/>
  <line x1="612.1" y1="16" x2="612.1" y2="171" stroke="#e5e7eb" stroke-width="0.5"/>
  <line x1="622.9" y1="16" x2="622.9" y2="171" stroke="#e5e7eb" stroke-width="0.5"/>
  <line x1="631.6" y1="16" x2="631.6" y2="171" stroke="#e5e7eb" stroke-width="0.5"/>
  <line x1="639.0" y1="16" x2="639.0" y2="171" stroke="#e5e7eb" stroke-width="0.5"/>
  <line x1="645.4" y1="16" x2="645.4" y2="171" stroke="#e5e7eb" stroke-width="0.5"/>
  <line x1="651.1" y1="16" x2="651.1" y2="171" stroke="#e5e7eb" stroke-width="0.5"/>
  <line x1="689.4" y1="16" x2="689.4" y2="171" stroke="#e5e7eb" stroke-width="0.5"/>
  <line x1="708.9" y1="16" x2="708.9" y2="171" stroke="#e5e7eb" stroke-width="0.5"/>
  <line x1="722.7" y1="16" x2="722.7" y2="171" stroke="#e5e7eb" stroke-width="0.5"/>
  <line x1="733.4" y1="16" x2="733.4" y2="171" stroke="#e5e7eb" stroke-width="0.5"/>
  <line x1="742.2" y1="16" x2="742.2" y2="171" stroke="#e5e7eb" stroke-width="0.5"/>
  <line x1="749.6" y1="16" x2="749.6" y2="171" stroke="#e5e7eb" stroke-width="0.5"/>
  <line x1="756.0" y1="16" x2="756.0" y2="171" stroke="#e5e7eb" stroke-width="0.5"/>
  <line x1="761.7" y1="16" x2="761.7" y2="171" stroke="#e5e7eb" stroke-width="0.5"/>
  <line x1="800.0" y1="16" x2="800.0" y2="171" stroke="#e5e7eb" stroke-width="0.5"/>
  <line x1="545.6" y1="16" x2="545.6" y2="171" stroke="#e5e7eb" stroke-width="0.5"/>
  <text x="545.6" y="183" text-anchor="middle" font-size="8" fill="#6b7280">100</text>
  <line x1="656.1" y1="16" x2="656.1" y2="171" stroke="#e5e7eb" stroke-width="0.5"/>
  <text x="656.1" y="183" text-anchor="middle" font-size="8" fill="#6b7280">1k</text>
  <line x1="766.7" y1="16" x2="766.7" y2="171" stroke="#e5e7eb" stroke-width="0.5"/>
  <text x="766.7" y="183" text-anchor="middle" font-size="8" fill="#6b7280">10k</text>
  <line x1="435" y1="58.6" x2="800" y2="58.6" stroke="#e5e7eb" stroke-width="0.5"/>
  <line x1="435" y1="128.4" x2="800" y2="128.4" stroke="#e5e7eb" stroke-width="0.5"/>
  <line x1="435" y1="23.8" x2="800" y2="23.8" stroke="#e5e7eb" stroke-width="0.5"/>
  <text x="431" y="26.8" text-anchor="end" font-size="8" fill="#6b7280">180</text>
  <text x="431" y="96.5" text-anchor="end" font-size="8" fill="#6b7280">0</text>
  <line x1="435" y1="163.3" x2="800" y2="163.3" stroke="#e5e7eb" stroke-width="0.5"/>
  <text x="431" y="166.3" text-anchor="end" font-size="8" fill="#6b7280">-180</text>
  <defs><linearGradient id="g430" x1="0" y1="16" x2="0" y2="93.5" gradientUnits="userSpaceOnUse">
    <stop offset="0%" stop-color="#e74c3c" stop-opacity="0.15"/>
    <stop offset="100%" stop-color="#e74c3c" stop-opacity="0.02"/>
  </linearGradient></defs>
  <defs><linearGradient id="g431" x1="0" y1="171" x2="0" y2="93.5" gradientUnits="userSpaceOnUse">
    <stop offset="0%" stop-color="#e74c3c" stop-opacity="0.15"/>
    <stop offset="100%" stop-color="#e74c3c" stop-opacity="0.02"/>
  </linearGradient></defs>
  <defs><clipPath id="c432"><rect x="435" y="16" width="365" height="77.5"/></clipPath></defs>
  <defs><clipPath id="c433"><rect x="435" y="93.5" width="365" height="77.5"/></clipPath></defs>
  <path d="M438.5,129.4 438.5,129.4 471.8,130.5 491.3,131.5 505.1,132.6 515.8,133.7 524.6,134.7 532.0,135.8 538.4,136.8 544.1,137.9 549.1,138.9 553.7,140.0 557.9,141.0 561.7,142.1 565.3,143.2 568.6,144.2 571.7,145.3 574.6,146.3 577.3,147.4 579.9,148.4 582.4,149.5 584.7,150.5 587.0,151.6 589.1,152.7 591.2,153.7 593.1,154.8 595.0,155.8 596.8,156.9 598.6,157.9 600.2,159.0 601.9,160.0 603.4,161.1 605.0,162.2 606.5,163.2 607.9,24.8 609.3,25.8 610.6,26.9 611.9,27.9 613.2,29.0 614.5,30.1 615.7,31.1 616.9,32.2 618.0,33.2 619.2,34.3 620.3,35.3 621.3,36.4 622.4,37.4 623.4,38.5 624.4,39.6 625.4,40.6 626.4,41.7 627.4,42.7 628.3,43.8 629.2,44.8 630.1,45.9 631.0,46.9 631.8,48.0 632.7,49.1 633.5,50.1 634.4,51.2 635.2,52.2 636.7,54.3 638.3,56.4 639.7,58.6 641.2,60.7 642.6,62.8 643.9,64.9 645.2,67.0 646.5,69.1 647.8,71.2 649.0,73.3 650.2,75.4 651.3,77.6 652.4,79.7 653.6,81.8 654.6,83.9 655.7,86.0 656.7,88.1 657.7,90.2 658.7,92.3 659.7,94.5 660.6,96.6 661.6,98.7 662.5,100.8 663.4,102.9 664.3,105.0 665.1,107.1 666.0,109.2 666.8,111.3 667.6,113.5 668.4,115.6 669.6,118.7 670.8,121.9 671.9,125.1 673.0,128.2 674.1,131.4 675.2,134.6 676.2,137.7 677.2,140.9 678.2,144.1 679.2,147.2 680.1,150.4 681.0,153.6 682.0,156.7 682.9,159.9 683.7,163.1 684.6,26.7 685.5,29.9 686.3,33.1 687.1,36.2 687.9,39.4 689.0,43.6 690.0,47.9 691.0,52.1 692.0,56.3 693.0,60.5 693.9,64.8 694.9,69.0 695.8,73.2 696.7,77.4 697.6,81.6 698.4,85.9 699.3,90.1 700.1,94.3 700.9,98.5 701.7,102.8 702.7,108.0 703.7,113.3 704.6,118.6 705.6,123.9 706.5,129.2 707.4,134.4 708.3,139.7 709.1,145.0 710.0,150.3 710.8,155.6 711.6,160.8 712.4,26.6 713.4,32.9 714.3,39.3 715.2,45.6 716.1,51.9 717.0,58.3 717.9,64.6 718.7,71.0 719.6,77.3 720.4,83.6 721.2,90.0 722.1,97.3 723.0,104.7 723.9,112.1 724.8,119.5 725.7,126.9 726.5,134.3 727.3,141.7 728.1,149.1 728.9,156.5 729.8,25.4 730.7,33.9 731.6,42.3 732.4,50.8 733.3,59.2 734.1,67.7 734.9,76.1 735.8,85.6 736.7,95.1 737.5,104.6 738.4,114.1 739.2,123.6 740.0,133.1 740.8,142.6 741.7,153.2 742.6,24.2 743.4,34.8 744.3,45.3 745.1,55.9 745.9,66.5 746.8,78.1 747.6,89.7 748.5,101.3 749.3,112.9 750.1,124.5 751.0,137.2 751.8,149.9 752.7,162.5 753.5,35.7 754.3,48.4 755.1,62.1 756.0,75.8 756.8,89.5 757.6,103.3 758.5,117.0 759.3,131.8 760.1,146.6 761.0,161.3 761.8,36.6 762.6,52.5 763.5,68.3 764.3,84.1 765.1,100.0 765.9,116.9 766.8,133.8 767.6,150.6 768.4,28.0 769.2,46.0 770.1,63.9 770.9,81.9 771.7,100.9 772.6,119.9 773.4,138.9 774.2,157.9 775.0,38.5 775.8,58.5 776.6,78.6 777.5,99.7 778.3,120.8 779.1,141.9 779.9,24.6 780.7,46.8 781.5,68.9 782.4,92.2 783.2,115.4 784.0,138.6 784.8,162.9 785.6,47.7 786.5,73.0 787.3,98.4 788.1,123.7 788.9,150.1 789.7,37.0 790.5,64.4 791.3,91.9 792.2,120.4 793.0,148.9 793.8,37.9 794.6,67.5 795.4,97.0 796.2,127.7 797.0,158.3 797.8,50.5 798.6,82.1 799.5,114.9 L799.5,93.5 L438.5,93.5 Z" fill="url(#g430)" clip-path="url(#c432)"/>
  <path d="M438.5,129.4 438.5,129.4 471.8,130.5 491.3,131.5 505.1,132.6 515.8,133.7 524.6,134.7 532.0,135.8 538.4,136.8 544.1,137.9 549.1,138.9 553.7,140.0 557.9,141.0 561.7,142.1 565.3,143.2 568.6,144.2 571.7,145.3 574.6,146.3 577.3,147.4 579.9,148.4 582.4,149.5 584.7,150.5 587.0,151.6 589.1,152.7 591.2,153.7 593.1,154.8 595.0,155.8 596.8,156.9 598.6,157.9 600.2,159.0 601.9,160.0 603.4,161.1 605.0,162.2 606.5,163.2 607.9,24.8 609.3,25.8 610.6,26.9 611.9,27.9 613.2,29.0 614.5,30.1 615.7,31.1 616.9,32.2 618.0,33.2 619.2,34.3 620.3,35.3 621.3,36.4 622.4,37.4 623.4,38.5 624.4,39.6 625.4,40.6 626.4,41.7 627.4,42.7 628.3,43.8 629.2,44.8 630.1,45.9 631.0,46.9 631.8,48.0 632.7,49.1 633.5,50.1 634.4,51.2 635.2,52.2 636.7,54.3 638.3,56.4 639.7,58.6 641.2,60.7 642.6,62.8 643.9,64.9 645.2,67.0 646.5,69.1 647.8,71.2 649.0,73.3 650.2,75.4 651.3,77.6 652.4,79.7 653.6,81.8 654.6,83.9 655.7,86.0 656.7,88.1 657.7,90.2 658.7,92.3 659.7,94.5 660.6,96.6 661.6,98.7 662.5,100.8 663.4,102.9 664.3,105.0 665.1,107.1 666.0,109.2 666.8,111.3 667.6,113.5 668.4,115.6 669.6,118.7 670.8,121.9 671.9,125.1 673.0,128.2 674.1,131.4 675.2,134.6 676.2,137.7 677.2,140.9 678.2,144.1 679.2,147.2 680.1,150.4 681.0,153.6 682.0,156.7 682.9,159.9 683.7,163.1 684.6,26.7 685.5,29.9 686.3,33.1 687.1,36.2 687.9,39.4 689.0,43.6 690.0,47.9 691.0,52.1 692.0,56.3 693.0,60.5 693.9,64.8 694.9,69.0 695.8,73.2 696.7,77.4 697.6,81.6 698.4,85.9 699.3,90.1 700.1,94.3 700.9,98.5 701.7,102.8 702.7,108.0 703.7,113.3 704.6,118.6 705.6,123.9 706.5,129.2 707.4,134.4 708.3,139.7 709.1,145.0 710.0,150.3 710.8,155.6 711.6,160.8 712.4,26.6 713.4,32.9 714.3,39.3 715.2,45.6 716.1,51.9 717.0,58.3 717.9,64.6 718.7,71.0 719.6,77.3 720.4,83.6 721.2,90.0 722.1,97.3 723.0,104.7 723.9,112.1 724.8,119.5 725.7,126.9 726.5,134.3 727.3,141.7 728.1,149.1 728.9,156.5 729.8,25.4 730.7,33.9 731.6,42.3 732.4,50.8 733.3,59.2 734.1,67.7 734.9,76.1 735.8,85.6 736.7,95.1 737.5,104.6 738.4,114.1 739.2,123.6 740.0,133.1 740.8,142.6 741.7,153.2 742.6,24.2 743.4,34.8 744.3,45.3 745.1,55.9 745.9,66.5 746.8,78.1 747.6,89.7 748.5,101.3 749.3,112.9 750.1,124.5 751.0,137.2 751.8,149.9 752.7,162.5 753.5,35.7 754.3,48.4 755.1,62.1 756.0,75.8 756.8,89.5 757.6,103.3 758.5,117.0 759.3,131.8 760.1,146.6 761.0,161.3 761.8,36.6 762.6,52.5 763.5,68.3 764.3,84.1 765.1,100.0 765.9,116.9 766.8,133.8 767.6,150.6 768.4,28.0 769.2,46.0 770.1,63.9 770.9,81.9 771.7,100.9 772.6,119.9 773.4,138.9 774.2,157.9 775.0,38.5 775.8,58.5 776.6,78.6 777.5,99.7 778.3,120.8 779.1,141.9 779.9,24.6 780.7,46.8 781.5,68.9 782.4,92.2 783.2,115.4 784.0,138.6 784.8,162.9 785.6,47.7 786.5,73.0 787.3,98.4 788.1,123.7 788.9,150.1 789.7,37.0 790.5,64.4 791.3,91.9 792.2,120.4 793.0,148.9 793.8,37.9 794.6,67.5 795.4,97.0 796.2,127.7 797.0,158.3 797.8,50.5 798.6,82.1 799.5,114.9 L799.5,93.5 L438.5,93.5 Z" fill="url(#g431)" clip-path="url(#c433)"/>
  <defs><clipPath id="pc434"><rect x="435" y="16" width="365" height="155"/></clipPath></defs>
  <polyline points="438.5,129.4 471.8,130.5 491.3,131.5 505.1,132.6 515.8,133.7 524.6,134.7 532.0,135.8 538.4,136.8 544.1,137.9 549.1,138.9 553.7,140.0 557.9,141.0 561.7,142.1 565.3,143.2 568.6,144.2 571.7,145.3 574.6,146.3 577.3,147.4 579.9,148.4 582.4,149.5 584.7,150.5 587.0,151.6 589.1,152.7 591.2,153.7 593.1,154.8 595.0,155.8 596.8,156.9 598.6,157.9 600.2,159.0 601.9,160.0 603.4,161.1 605.0,162.2 606.5,163.2 607.9,24.8 609.3,25.8 610.6,26.9 611.9,27.9 613.2,29.0 614.5,30.1 615.7,31.1 616.9,32.2 618.0,33.2 619.2,34.3 620.3,35.3 621.3,36.4 622.4,37.4 623.4,38.5 624.4,39.6 625.4,40.6 626.4,41.7 627.4,42.7 628.3,43.8 629.2,44.8 630.1,45.9 631.0,46.9 631.8,48.0 632.7,49.1 633.5,50.1 634.4,51.2 635.2,52.2 636.7,54.3 638.3,56.4 639.7,58.6 641.2,60.7 642.6,62.8 643.9,64.9 645.2,67.0 646.5,69.1 647.8,71.2 649.0,73.3 650.2,75.4 651.3,77.6 652.4,79.7 653.6,81.8 654.6,83.9 655.7,86.0 656.7,88.1 657.7,90.2 658.7,92.3 659.7,94.5 660.6,96.6 661.6,98.7 662.5,100.8 663.4,102.9 664.3,105.0 665.1,107.1 666.0,109.2 666.8,111.3 667.6,113.5 668.4,115.6 669.6,118.7 670.8,121.9 671.9,125.1 673.0,128.2 674.1,131.4 675.2,134.6 676.2,137.7 677.2,140.9 678.2,144.1 679.2,147.2 680.1,150.4 681.0,153.6 682.0,156.7 682.9,159.9 683.7,163.1 684.6,26.7 685.5,29.9 686.3,33.1 687.1,36.2 687.9,39.4 689.0,43.6 690.0,47.9 691.0,52.1 692.0,56.3 693.0,60.5 693.9,64.8 694.9,69.0 695.8,73.2 696.7,77.4 697.6,81.6 698.4,85.9 699.3,90.1 700.1,94.3 700.9,98.5 701.7,102.8 702.7,108.0 703.7,113.3 704.6,118.6 705.6,123.9 706.5,129.2 707.4,134.4 708.3,139.7 709.1,145.0 710.0,150.3 710.8,155.6 711.6,160.8 712.4,26.6 713.4,32.9 714.3,39.3 715.2,45.6 716.1,51.9 717.0,58.3 717.9,64.6 718.7,71.0 719.6,77.3 720.4,83.6 721.2,90.0 722.1,97.3 723.0,104.7 723.9,112.1 724.8,119.5 725.7,126.9 726.5,134.3 727.3,141.7 728.1,149.1 728.9,156.5 729.8,25.4 730.7,33.9 731.6,42.3 732.4,50.8 733.3,59.2 734.1,67.7 734.9,76.1 735.8,85.6 736.7,95.1 737.5,104.6 738.4,114.1 739.2,123.6 740.0,133.1 740.8,142.6 741.7,153.2 742.6,24.2 743.4,34.8 744.3,45.3 745.1,55.9 745.9,66.5 746.8,78.1 747.6,89.7 748.5,101.3 749.3,112.9 750.1,124.5 751.0,137.2 751.8,149.9 752.7,162.5 753.5,35.7 754.3,48.4 755.1,62.1 756.0,75.8 756.8,89.5 757.6,103.3 758.5,117.0 759.3,131.8 760.1,146.6 761.0,161.3 761.8,36.6 762.6,52.5 763.5,68.3 764.3,84.1 765.1,100.0 765.9,116.9 766.8,133.8 767.6,150.6 768.4,28.0 769.2,46.0 770.1,63.9 770.9,81.9 771.7,100.9 772.6,119.9 773.4,138.9 774.2,157.9 775.0,38.5 775.8,58.5 776.6,78.6 777.5,99.7 778.3,120.8 779.1,141.9 779.9,24.6 780.7,46.8 781.5,68.9 782.4,92.2 783.2,115.4 784.0,138.6 784.8,162.9 785.6,47.7 786.5,73.0 787.3,98.4 788.1,123.7 788.9,150.1 789.7,37.0 790.5,64.4 791.3,91.9 792.2,120.4 793.0,148.9 793.8,37.9 794.6,67.5 795.4,97.0 796.2,127.7 797.0,158.3 797.8,50.5 798.6,82.1 799.5,114.9" fill="none" stroke="#e74c3c" stroke-width="1.5" stroke-linejoin="round" clip-path="url(#pc434)"/>
  <line x1="34" y1="207" x2="34" y2="362" stroke="#d1d5db"/>
  <line x1="34" y1="284.5" x2="399" y2="284.5" stroke="#d1d5db"/>
  <text x="216.5" y="388" text-anchor="middle" font-size="9" fill="#6b7280">Hz</text>
  <text x="12" y="284.5" text-anchor="middle" font-size="9" fill="#6b7280" transform="rotate(-90 12 284.5)">Group delay</text>
  <line x1="67.3" y1="207" x2="67.3" y2="362" stroke="#e5e7eb" stroke-width="0.5"/>
  <line x1="86.8" y1="207" x2="86.8" y2="362" stroke="#e5e7eb" stroke-width="0.5"/>
  <line x1="100.6" y1="207" x2="100.6" y2="362" stroke="#e5e7eb" stroke-width="0.5"/>
  <line x1="111.3" y1="207" x2="111.3" y2="362" stroke="#e5e7eb" stroke-width="0.5"/>
  <line x1="120.0" y1="207" x2="120.0" y2="362" stroke="#e5e7eb" stroke-width="0.5"/>
  <line x1="127.4" y1="207" x2="127.4" y2="362" stroke="#e5e7eb" stroke-width="0.5"/>
  <line x1="133.9" y1="207" x2="133.9" y2="362" stroke="#e5e7eb" stroke-width="0.5"/>
  <line x1="139.5" y1="207" x2="139.5" y2="362" stroke="#e5e7eb" stroke-width="0.5"/>
  <line x1="177.9" y1="207" x2="177.9" y2="362" stroke="#e5e7eb" stroke-width="0.5"/>
  <line x1="197.3" y1="207" x2="197.3" y2="362" stroke="#e5e7eb" stroke-width="0.5"/>
  <line x1="211.1" y1="207" x2="211.1" y2="362" stroke="#e5e7eb" stroke-width="0.5"/>
  <line x1="221.9" y1="207" x2="221.9" y2="362" stroke="#e5e7eb" stroke-width="0.5"/>
  <line x1="230.6" y1="207" x2="230.6" y2="362" stroke="#e5e7eb" stroke-width="0.5"/>
  <line x1="238.0" y1="207" x2="238.0" y2="362" stroke="#e5e7eb" stroke-width="0.5"/>
  <line x1="244.4" y1="207" x2="244.4" y2="362" stroke="#e5e7eb" stroke-width="0.5"/>
  <line x1="250.1" y1="207" x2="250.1" y2="362" stroke="#e5e7eb" stroke-width="0.5"/>
  <line x1="288.4" y1="207" x2="288.4" y2="362" stroke="#e5e7eb" stroke-width="0.5"/>
  <line x1="307.9" y1="207" x2="307.9" y2="362" stroke="#e5e7eb" stroke-width="0.5"/>
  <line x1="321.7" y1="207" x2="321.7" y2="362" stroke="#e5e7eb" stroke-width="0.5"/>
  <line x1="332.4" y1="207" x2="332.4" y2="362" stroke="#e5e7eb" stroke-width="0.5"/>
  <line x1="341.2" y1="207" x2="341.2" y2="362" stroke="#e5e7eb" stroke-width="0.5"/>
  <line x1="348.6" y1="207" x2="348.6" y2="362" stroke="#e5e7eb" stroke-width="0.5"/>
  <line x1="355.0" y1="207" x2="355.0" y2="362" stroke="#e5e7eb" stroke-width="0.5"/>
  <line x1="360.7" y1="207" x2="360.7" y2="362" stroke="#e5e7eb" stroke-width="0.5"/>
  <line x1="399.0" y1="207" x2="399.0" y2="362" stroke="#e5e7eb" stroke-width="0.5"/>
  <line x1="144.6" y1="207" x2="144.6" y2="362" stroke="#e5e7eb" stroke-width="0.5"/>
  <text x="144.6" y="374" text-anchor="middle" font-size="8" fill="#6b7280">100</text>
  <line x1="255.1" y1="207" x2="255.1" y2="362" stroke="#e5e7eb" stroke-width="0.5"/>
  <text x="255.1" y="374" text-anchor="middle" font-size="8" fill="#6b7280">1k</text>
  <line x1="365.7" y1="207" x2="365.7" y2="362" stroke="#e5e7eb" stroke-width="0.5"/>
  <text x="365.7" y="374" text-anchor="middle" font-size="8" fill="#6b7280">10k</text>
  <line x1="34" y1="328.4" x2="399" y2="328.4" stroke="#e5e7eb" stroke-width="0.5"/>
  <text x="30" y="331.4" text-anchor="end" font-size="8" fill="#6b7280">-400</text>
  <text x="30" y="287.5" text-anchor="end" font-size="8" fill="#6b7280">0</text>
  <line x1="34" y1="240.6" x2="399" y2="240.6" stroke="#e5e7eb" stroke-width="0.5"/>
  <text x="30" y="243.6" text-anchor="end" font-size="8" fill="#6b7280">400</text>
  <defs><linearGradient id="g435" x1="0" y1="207" x2="0" y2="284.5" gradientUnits="userSpaceOnUse">
    <stop offset="0%" stop-color="#2ecc71" stop-opacity="0.15"/>
    <stop offset="100%" stop-color="#2ecc71" stop-opacity="0.02"/>
  </linearGradient></defs>
  <path d="M37.5,224.9 37.5,224.9 70.8,281.1 90.3,281.1 104.1,281.1 114.8,281.1 123.6,281.1 131.0,281.1 137.4,281.1 143.1,281.1 148.1,281.1 152.7,281.1 156.9,281.1 160.7,281.1 164.3,281.1 167.6,281.1 170.7,281.1 173.6,281.1 176.3,281.1 178.9,281.1 181.4,281.1 183.7,281.1 186.0,281.1 188.1,281.1 190.2,281.1 192.1,281.1 194.0,281.1 195.8,281.1 197.6,281.1 199.2,281.1 200.9,281.1 202.4,281.1 204.0,281.1 205.5,281.1 206.9,281.1 208.3,281.1 209.6,281.1 210.9,281.1 212.2,281.1 213.5,281.1 214.7,281.1 215.9,281.1 217.0,281.1 218.2,281.1 219.3,281.1 220.3,281.1 221.4,281.1 222.4,281.1 223.4,281.1 224.4,281.1 225.4,281.1 226.4,281.1 227.3,281.1 228.2,281.1 229.1,281.1 230.0,281.1 230.8,281.1 231.7,281.1 232.5,281.1 233.4,281.1 234.2,281.1 235.7,281.1 237.3,281.1 238.7,281.1 240.2,281.1 241.6,281.1 242.9,281.1 244.2,281.1 245.5,281.1 246.8,281.1 248.0,281.1 249.2,281.1 250.3,281.1 251.4,281.1 252.6,281.1 253.6,281.1 254.7,281.1 255.7,281.1 256.7,281.1 257.7,281.1 258.7,281.1 259.6,281.1 260.6,281.1 261.5,281.1 262.4,281.1 263.3,281.1 264.1,281.1 265.0,281.1 265.8,281.1 266.6,281.1 267.4,281.1 268.6,281.1 269.8,281.1 270.9,281.1 272.0,281.1 273.1,281.1 274.2,281.1 275.2,281.1 276.2,281.1 277.2,281.1 278.2,281.1 279.1,281.1 280.0,281.1 281.0,281.1 281.9,281.1 282.7,281.1 283.6,281.1 284.5,281.1 285.3,281.1 286.1,281.1 286.9,281.1 288.0,281.1 289.0,281.1 290.0,281.1 291.0,281.1 292.0,281.1 292.9,281.1 293.9,281.1 294.8,281.1 295.7,281.1 296.6,281.1 297.4,281.1 298.3,281.1 299.1,281.1 299.9,281.1 300.7,281.1 301.7,281.1 302.7,281.1 303.6,281.1 304.6,281.1 305.5,281.1 306.4,281.1 307.3,281.1 308.1,281.1 309.0,281.1 309.8,281.1 310.6,281.1 311.4,281.1 312.4,281.1 313.3,281.1 314.2,281.1 315.1,281.1 316.0,281.1 316.9,281.1 317.7,281.1 318.6,281.1 319.4,281.1 320.2,281.1 321.1,281.1 322.0,281.1 322.9,281.1 323.8,281.1 324.7,281.1 325.5,281.1 326.3,281.1 327.1,281.1 327.9,281.1 328.8,281.1 329.7,281.1 330.6,281.1 331.4,281.1 332.3,281.1 333.1,281.1 333.9,281.1 334.8,281.1 335.7,281.1 336.5,281.1 337.4,281.1 338.2,281.1 339.0,281.1 339.8,281.1 340.7,281.1 341.6,281.1 342.4,281.1 343.3,281.1 344.1,281.1 344.9,281.1 345.8,281.1 346.6,281.1 347.5,281.1 348.3,281.1 349.1,281.1 350.0,281.1 350.8,281.1 351.7,281.1 352.5,281.1 353.3,281.1 354.1,281.1 355.0,281.1 355.8,281.1 356.6,281.1 357.5,281.1 358.3,281.1 359.1,281.1 360.0,281.1 360.8,281.1 361.6,281.1 362.5,281.1 363.3,281.1 364.1,281.1 364.9,281.1 365.8,281.1 366.6,281.1 367.4,281.1 368.2,281.1 369.1,281.1 369.9,281.1 370.7,281.1 371.6,281.1 372.4,281.1 373.2,281.1 374.0,281.1 374.8,281.1 375.6,281.1 376.5,281.1 377.3,281.1 378.1,281.1 378.9,281.1 379.7,281.1 380.5,281.1 381.4,281.1 382.2,281.1 383.0,281.1 383.8,281.1 384.6,281.1 385.5,281.1 386.3,281.1 387.1,281.1 387.9,281.1 388.7,281.1 389.5,281.1 390.3,281.1 391.2,281.1 392.0,281.1 392.8,281.1 393.6,281.1 394.4,281.1 395.2,281.1 396.0,281.1 396.8,281.1 397.6,281.1 398.5,281.1 L398.5,284.5 L37.5,284.5 Z" fill="url(#g435)"/>
  <defs><clipPath id="pc436"><rect x="34" y="207" width="365" height="155"/></clipPath></defs>
  <polyline points="37.5,224.9 70.8,281.1 90.3,281.1 104.1,281.1 114.8,281.1 123.6,281.1 131.0,281.1 137.4,281.1 143.1,281.1 148.1,281.1 152.7,281.1 156.9,281.1 160.7,281.1 164.3,281.1 167.6,281.1 170.7,281.1 173.6,281.1 176.3,281.1 178.9,281.1 181.4,281.1 183.7,281.1 186.0,281.1 188.1,281.1 190.2,281.1 192.1,281.1 194.0,281.1 195.8,281.1 197.6,281.1 199.2,281.1 200.9,281.1 202.4,281.1 204.0,281.1 205.5,281.1 206.9,281.1 208.3,281.1 209.6,281.1 210.9,281.1 212.2,281.1 213.5,281.1 214.7,281.1 215.9,281.1 217.0,281.1 218.2,281.1 219.3,281.1 220.3,281.1 221.4,281.1 222.4,281.1 223.4,281.1 224.4,281.1 225.4,281.1 226.4,281.1 227.3,281.1 228.2,281.1 229.1,281.1 230.0,281.1 230.8,281.1 231.7,281.1 232.5,281.1 233.4,281.1 234.2,281.1 235.7,281.1 237.3,281.1 238.7,281.1 240.2,281.1 241.6,281.1 242.9,281.1 244.2,281.1 245.5,281.1 246.8,281.1 248.0,281.1 249.2,281.1 250.3,281.1 251.4,281.1 252.6,281.1 253.6,281.1 254.7,281.1 255.7,281.1 256.7,281.1 257.7,281.1 258.7,281.1 259.6,281.1 260.6,281.1 261.5,281.1 262.4,281.1 263.3,281.1 264.1,281.1 265.0,281.1 265.8,281.1 266.6,281.1 267.4,281.1 268.6,281.1 269.8,281.1 270.9,281.1 272.0,281.1 273.1,281.1 274.2,281.1 275.2,281.1 276.2,281.1 277.2,281.1 278.2,281.1 279.1,281.1 280.0,281.1 281.0,281.1 281.9,281.1 282.7,281.1 283.6,281.1 284.5,281.1 285.3,281.1 286.1,281.1 286.9,281.1 288.0,281.1 289.0,281.1 290.0,281.1 291.0,281.1 292.0,281.1 292.9,281.1 293.9,281.1 294.8,281.1 295.7,281.1 296.6,281.1 297.4,281.1 298.3,281.1 299.1,281.1 299.9,281.1 300.7,281.1 301.7,281.1 302.7,281.1 303.6,281.1 304.6,281.1 305.5,281.1 306.4,281.1 307.3,281.1 308.1,281.1 309.0,281.1 309.8,281.1 310.6,281.1 311.4,281.1 312.4,281.1 313.3,281.1 314.2,281.1 315.1,281.1 316.0,281.1 316.9,281.1 317.7,281.1 318.6,281.1 319.4,281.1 320.2,281.1 321.1,281.1 322.0,281.1 322.9,281.1 323.8,281.1 324.7,281.1 325.5,281.1 326.3,281.1 327.1,281.1 327.9,281.1 328.8,281.1 329.7,281.1 330.6,281.1 331.4,281.1 332.3,281.1 333.1,281.1 333.9,281.1 334.8,281.1 335.7,281.1 336.5,281.1 337.4,281.1 338.2,281.1 339.0,281.1 339.8,281.1 340.7,281.1 341.6,281.1 342.4,281.1 343.3,281.1 344.1,281.1 344.9,281.1 345.8,281.1 346.6,281.1 347.5,281.1 348.3,281.1 349.1,281.1 350.0,281.1 350.8,281.1 351.7,281.1 352.5,281.1 353.3,281.1 354.1,281.1 355.0,281.1 355.8,281.1 356.6,281.1 357.5,281.1 358.3,281.1 359.1,281.1 360.0,281.1 360.8,281.1 361.6,281.1 362.5,281.1 363.3,281.1 364.1,281.1 364.9,281.1 365.8,281.1 366.6,281.1 367.4,281.1 368.2,281.1 369.1,281.1 369.9,281.1 370.7,281.1 371.6,281.1 372.4,281.1 373.2,281.1 374.0,281.1 374.8,281.1 375.6,281.1 376.5,281.1 377.3,281.1 378.1,281.1 378.9,281.1 379.7,281.1 380.5,281.1 381.4,281.1 382.2,281.1 383.0,281.1 383.8,281.1 384.6,281.1 385.5,281.1 386.3,281.1 387.1,281.1 387.9,281.1 388.7,281.1 389.5,281.1 390.3,281.1 391.2,281.1 392.0,281.1 392.8,281.1 393.6,281.1 394.4,281.1 395.2,281.1 396.0,281.1 396.8,281.1 397.6,281.1 398.5,281.1" fill="none" stroke="#2ecc71" stroke-width="1.5" stroke-linejoin="round" clip-path="url(#pc436)"/>
  <line x1="435" y1="207" x2="435" y2="362" stroke="#d1d5db"/>
  <line x1="435" y1="284.5" x2="800" y2="284.5" stroke="#d1d5db"/>
  <text x="617.5" y="388" text-anchor="middle" font-size="9" fill="#6b7280">Samples</text>
  <text x="413" y="284.5" text-anchor="middle" font-size="9" fill="#6b7280" transform="rotate(-90 413 284.5)">Impulse response</text>
  <line x1="435.0" y1="207" x2="435.0" y2="362" stroke="#e5e7eb" stroke-width="0.5"/>
  <text x="435.0" y="374" text-anchor="middle" font-size="8" fill="#6b7280">0</text>
  <line x1="608.8" y1="207" x2="608.8" y2="362" stroke="#e5e7eb" stroke-width="0.5"/>
  <text x="608.8" y="374" text-anchor="middle" font-size="8" fill="#6b7280">30</text>
  <line x1="782.6" y1="207" x2="782.6" y2="362" stroke="#e5e7eb" stroke-width="0.5"/>
  <text x="782.6" y="374" text-anchor="middle" font-size="8" fill="#6b7280">60</text>
  <line x1="435" y1="345.5" x2="800" y2="345.5" stroke="#e5e7eb" stroke-width="0.5"/>
  <text x="431" y="348.5" text-anchor="end" font-size="8" fill="#6b7280">-0.5</text>
  <text x="431" y="287.5" text-anchor="end" font-size="8" fill="#6b7280">0</text>
  <line x1="435" y1="223.5" x2="800" y2="223.5" stroke="#e5e7eb" stroke-width="0.5"/>
  <text x="431" y="226.5" text-anchor="end" font-size="8" fill="#6b7280">0.5</text>
  <defs><linearGradient id="g437" x1="0" y1="207" x2="0" y2="284.5" gradientUnits="userSpaceOnUse">
    <stop offset="0%" stop-color="#f39c12" stop-opacity="0.15"/>
    <stop offset="100%" stop-color="#f39c12" stop-opacity="0.02"/>
  </linearGradient></defs>
  <defs><linearGradient id="g438" x1="0" y1="362" x2="0" y2="284.5" gradientUnits="userSpaceOnUse">
    <stop offset="0%" stop-color="#f39c12" stop-opacity="0.15"/>
    <stop offset="100%" stop-color="#f39c12" stop-opacity="0.02"/>
  </linearGradient></defs>
  <defs><clipPath id="c439"><rect x="435" y="207" width="365" height="77.5"/></clipPath></defs>
  <defs><clipPath id="c440"><rect x="435" y="284.5" width="365" height="77.5"/></clipPath></defs>
  <path d="M435.0,284.7 435.0,284.7 440.8,284.5 446.6,284.7 452.4,284.5 458.2,284.8 464.0,284.5 469.8,285.0 475.6,284.5 481.3,285.3 487.1,284.5 492.9,285.6 498.7,284.5 504.5,286.1 510.3,284.5 516.1,286.6 521.9,284.5 527.7,287.4 533.5,284.5 539.3,288.4 545.1,284.5 550.9,289.7 556.7,284.5 562.5,291.6 568.3,284.5 574.0,294.4 579.8,284.5 585.6,299.1 591.4,284.5 597.2,309.8 603.0,284.5 608.8,362.0 614.6,284.5 620.4,207.0 626.2,284.5 632.0,259.2 637.8,284.5 643.6,269.9 649.4,284.5 655.2,274.6 661.0,284.5 666.7,277.4 672.5,284.5 678.3,279.3 684.1,284.5 689.9,280.6 695.7,284.5 701.5,281.6 707.3,284.5 713.1,282.4 718.9,284.5 724.7,282.9 730.5,284.5 736.3,283.4 742.1,284.5 747.9,283.7 753.7,284.5 759.4,284.0 765.2,284.5 771.0,284.2 776.8,284.5 782.6,284.3 788.4,284.5 794.2,284.3 L794.2,284.5 L435.0,284.5 Z" fill="url(#g437)" clip-path="url(#c439)"/>
  <path d="M435.0,284.7 435.0,284.7 440.8,284.5 446.6,284.7 452.4,284.5 458.2,284.8 464.0,284.5 469.8,285.0 475.6,284.5 481.3,285.3 487.1,284.5 492.9,285.6 498.7,284.5 504.5,286.1 510.3,284.5 516.1,286.6 521.9,284.5 527.7,287.4 533.5,284.5 539.3,288.4 545.1,284.5 550.9,289.7 556.7,284.5 562.5,291.6 568.3,284.5 574.0,294.4 579.8,284.5 585.6,299.1 591.4,284.5 597.2,309.8 603.0,284.5 608.8,362.0 614.6,284.5 620.4,207.0 626.2,284.5 632.0,259.2 637.8,284.5 643.6,269.9 649.4,284.5 655.2,274.6 661.0,284.5 666.7,277.4 672.5,284.5 678.3,279.3 684.1,284.5 689.9,280.6 695.7,284.5 701.5,281.6 707.3,284.5 713.1,282.4 718.9,284.5 724.7,282.9 730.5,284.5 736.3,283.4 742.1,284.5 747.9,283.7 753.7,284.5 759.4,284.0 765.2,284.5 771.0,284.2 776.8,284.5 782.6,284.3 788.4,284.5 794.2,284.3 L794.2,284.5 L435.0,284.5 Z" fill="url(#g438)" clip-path="url(#c440)"/>
  <defs><clipPath id="pc441"><rect x="435" y="207" width="365" height="155"/></clipPath></defs>
  <polyline points="435.0,284.7 440.8,284.5 446.6,284.7 452.4,284.5 458.2,284.8 464.0,284.5 469.8,285.0 475.6,284.5 481.3,285.3 487.1,284.5 492.9,285.6 498.7,284.5 504.5,286.1 510.3,284.5 516.1,286.6 521.9,284.5 527.7,287.4 533.5,284.5 539.3,288.4 545.1,284.5 550.9,289.7 556.7,284.5 562.5,291.6 568.3,284.5 574.0,294.4 579.8,284.5 585.6,299.1 591.4,284.5 597.2,309.8 603.0,284.5 608.8,362.0 614.6,284.5 620.4,207.0 626.2,284.5 632.0,259.2 637.8,284.5 643.6,269.9 649.4,284.5 655.2,274.6 661.0,284.5 666.7,277.4 672.5,284.5 678.3,279.3 684.1,284.5 689.9,280.6 695.7,284.5 701.5,281.6 707.3,284.5 713.1,282.4 718.9,284.5 724.7,282.9 730.5,284.5 736.3,283.4 742.1,284.5 747.9,283.7 753.7,284.5 759.4,284.0 765.2,284.5 771.0,284.2 776.8,284.5 782.6,284.3 788.4,284.5 794.2,284.3" fill="none" stroke="#f39c12" stroke-width="1.3" stroke-linejoin="round" clip-path="url(#pc441)"/>
</svg>
