<svg xmlns="http://www.w3.org/2000/svg" viewBox="0 0 820 392" style="font-family:system-ui,-apple-system,sans-serif">
  <text x="800" y="11" text-anchor="end" font-size="11" font-weight="600" fill="#6b7280">Hilbert transform, 63 taps</text>
  <line x1="34" y1="16" x2="34" y2="171" stroke="#d1d5db"/>
  <line x1="34" y1="47.0" x2="392" y2="47.0" stroke="#d1d5db"/>
  <text x="213" y="197" text-anchor="middle" font-size="9" fill="#6b7280">Hz</text>
  <text x="12" y="93.5" text-anchor="middle" font-size="9" fill="#6b7280" transform="rotate(-90 12 93.5)">dB</text>
  <line x1="66.6" y1="16" x2="66.6" y2="171" stroke="#e5e7eb" stroke-width="0.5"/>
  <line x1="85.7" y1="16" x2="85.7" y2="171" stroke="#e5e7eb" stroke-width="0.5"/>
  <line x1="99.3" y1="16" x2="99.3" y2="171" stroke="#e5e7eb" stroke-width="0.5"/>
  <line x1="109.8" y1="16" x2="109.8" y2="171" stroke="#e5e7eb" stroke-width="0.5"/>
  <line x1="118.4" y1="16" x2="118.4" y2="171" stroke="#e5e7eb" stroke-width="0.5"/>
  <line x1="125.7" y1="16" x2="125.7" y2="171" stroke="#e5e7eb" stroke-width="0.5"/>
  <line x1="131.9" y1="16" x2="131.9" y2="171" stroke="#e5e7eb" stroke-width="0.5"/>
  <line x1="137.5" y1="16" x2="137.5" y2="171" stroke="#e5e7eb" stroke-width="0.5"/>
  <line x1="175.1" y1="16" x2="175.1" y2="171" stroke="#e5e7eb" stroke-width="0.5"/>
  <line x1="194.2" y1="16" x2="194.2" y2="171" stroke="#e5e7eb" stroke-width="0.5"/>
  <line x1="207.7" y1="16" x2="207.7" y2="171" stroke="#e5e7eb" stroke-width="0.5"/>
  <line x1="218.3" y1="16" x2="218.3" y2="171" stroke="#e5e7eb" stroke-width="0.5"/>
  <line x1="226.8" y1="16" x2="226.8" y2="171" stroke="#e5e7eb" stroke-width="0.5"/>
  <line x1="234.1" y1="16" x2="234.1" y2="171" stroke="#e5e7eb" stroke-width="0.5"/>
  <line x1="240.4" y1="16" x2="240.4" y2="171" stroke="#e5e7eb" stroke-width="0.5"/>
  <line x1="245.9" y1="16" x2="245.9" y2="171" stroke="#e5e7eb" stroke-width="0.5"/>
  <line x1="283.5" y1="16" x2="283.5" y2="171" stroke="#e5e7eb" stroke-width="0.5"/>
  <line x1="302.6" y1="16" x2="302.6" y2="171" stroke="#e5e7eb" stroke-width="0.5"/>
  <line x1="316.2" y1="16" x2="316.2" y2="171" stroke="#e5e7eb" stroke-width="0.5"/>
  <line x1="326.7" y1="16" x2="326.7" y2="171" stroke="#e5e7eb" stroke-width="0.5"/>
  <line x1="335.3" y1="16" x2="335.3" y2="171" stroke="#e5e7eb" stroke-width="0.5"/>
  <line x1="342.6" y1="16" x2="342.6" y2="171" stroke="#e5e7eb" stroke-width="0.5"/>
  <line x1="348.8" y1="16" x2="348.8" y2="171" stroke="#e5e7eb" stroke-width="0.5"/>
  <line x1="354.4" y1="16" x2="354.4" y2="171" stroke="#e5e7eb" stroke-width="0.5"/>
  <line x1="392.0" y1="16" x2="392.0" y2="171" stroke="#e5e7eb" stroke-width="0.5"/>
  <line x1="142.5" y1="16" x2="142.5" y2="171" stroke="#e5e7eb" stroke-width="0.5"/>
  <text x="142.5" y="183" text-anchor="middle" font-size="8" fill="#6b7280">100</text>
  <line x1="250.9" y1="16" x2="250.9" y2="171" stroke="#e5e7eb" stroke-width="0.5"/>
  <text x="250.9" y="183" text-anchor="middle" font-size="8" fill="#6b7280">1k</text>
  <line x1="359.4" y1="16" x2="359.4" y2="171" stroke="#e5e7eb" stroke-width="0.5"/>
  <text x="359.4" y="183" text-anchor="middle" font-size="8" fill="#6b7280">10k</text>
  <line x1="34" y1="31.5" x2="392" y2="31.5" stroke="#e5e7eb" stroke-width="0.5"/>
  <line x1="34" y1="62.5" x2="392" y2="62.5" stroke="#e5e7eb" stroke-width="0.5"/>
  <line x1="34" y1="16.0" x2="392" y2="16.0" stroke="#e5e7eb" stroke-width="0.5"/>
  <text x="30" y="19.0" text-anchor="end" font-size="8" fill="#6b7280">+20</text>
  <text x="30" y="50.0" text-anchor="end" font-size="8" fill="#6b7280">0</text>
  <line x1="34" y1="78.0" x2="392" y2="78.0" stroke="#e5e7eb" stroke-width="0.5"/>
  <text x="30" y="81.0" text-anchor="end" font-size="8" fill="#6b7280">-20</text>
  <line x1="34" y1="109.0" x2="392" y2="109.0" stroke="#e5e7eb" stroke-width="0.5"/>
  <text x="30" y="112.0" text-anchor="end" font-size="8" fill="#6b7280">-40</text>
  <line x1="34" y1="140.0" x2="392" y2="140.0" stroke="#e5e7eb" stroke-width="0.5"/>
  <text x="30" y="143.0" text-anchor="end" font-size="8" fill="#6b7280">-60</text>
  <line x1="34" y1="171.0" x2="392" y2="171.0" stroke="#e5e7eb" stroke-width="0.5"/>
  <text x="30" y="174.0" text-anchor="end" font-size="8" fill="#6b7280">-80</text>
  <defs><linearGradient id="g415" x1="0" y1="16" x2="0" y2="171" gradientUnits="userSpaceOnUse">
    <stop offset="0%" stop-color="#4a90d9" stop-opacity="0.15"/>
    <stop offset="100%" stop-color="#4a90d9" stop-opacity="0.02"/>
  </linearGradient></defs>
  <path d="M37.5,102.3 37.5,102.3 70.1,93.0 89.2,87.5 102.8,83.7 113.3,80.7 121.9,78.2 129.1,76.2 135.4,74.4 141.0,72.8 145.9,71.4 150.4,70.1 154.5,69.0 158.3,67.9 161.8,67.0 165.0,66.0 168.1,65.2 170.9,64.4 173.6,63.7 176.2,63.0 178.6,62.3 180.9,61.7 183.1,61.1 185.2,60.5 187.2,60.0 189.1,59.5 190.9,59.0 192.7,58.5 194.4,58.1 196.1,57.7 197.7,57.3 199.2,56.9 200.7,56.5 202.2,56.1 203.6,55.8 204.9,55.5 206.3,55.1 207.6,54.8 208.8,54.5 210.0,54.2 211.2,54.0 212.4,53.7 213.5,53.4 214.6,53.2 215.7,52.9 216.8,52.7 217.8,52.5 218.8,52.3 219.8,52.1 220.8,51.8 221.7,51.7 222.7,51.5 223.6,51.3 224.5,51.1 225.4,50.9 226.2,50.8 227.1,50.6 227.9,50.5 228.7,50.3 229.5,50.2 231.1,49.9 232.6,49.6 234.1,49.4 235.5,49.2 236.9,49.0 238.2,48.8 239.6,48.6 240.8,48.4 242.1,48.3 243.3,48.2 244.5,48.0 245.6,47.9 246.7,47.8 247.8,47.7 248.9,47.6 249.9,47.5 251.0,47.5 252.0,47.4 252.9,47.3 253.9,47.3 254.8,47.2 255.8,47.2 256.7,47.1 257.6,47.1 258.4,47.1 259.3,47.1 260.1,47.0 261.0,47.0 261.8,47.0 263.0,47.0 264.1,47.0 265.3,47.0 266.4,47.0 267.5,46.9 268.5,46.9 269.6,46.9 270.6,46.9 271.6,46.9 272.5,46.9 273.5,46.9 274.4,47.0 275.3,47.0 276.2,47.0 277.1,47.0 278.0,47.0 278.8,47.0 279.6,47.0 280.5,47.0 281.3,47.0 282.3,47.0 283.4,47.0 284.4,47.0 285.3,47.0 286.3,47.0 287.3,47.0 288.2,47.0 289.1,47.0 290.0,47.0 290.9,47.0 291.7,47.0 292.6,47.0 293.4,47.0 294.2,47.0 295.0,47.0 296.0,47.0 297.0,47.0 297.9,47.0 298.8,47.0 299.7,47.0 300.6,47.0 301.5,47.0 302.4,47.0 303.2,47.0 304.0,47.0 304.9,47.0 305.8,47.0 306.7,47.0 307.7,47.0 308.6,47.0 309.5,47.0 310.3,47.0 311.2,47.0 312.0,47.0 312.8,47.0 313.7,47.0 314.6,47.0 315.5,47.0 316.4,47.0 317.3,47.0 318.1,47.0 319.0,47.0 319.8,47.0 320.6,47.0 321.4,47.0 322.3,47.0 323.2,47.0 324.1,47.0 324.9,47.0 325.7,47.0 326.6,47.0 327.4,47.0 328.3,47.0 329.1,47.0 330.0,47.0 330.8,47.0 331.7,47.0 332.5,47.0 333.3,47.0 334.2,47.0 335.0,47.0 335.9,47.0 336.7,47.0 337.5,47.0 338.4,47.0 339.2,47.0 340.1,47.0 340.9,47.0 341.7,47.0 342.5,47.0 343.4,47.0 344.2,47.0 345.1,47.0 345.9,47.0 346.7,47.0 347.6,47.0 348.4,47.0 349.2,47.0 350.0,47.0 350.9,47.0 351.7,47.0 352.6,47.0 353.4,47.0 354.2,47.0 355.1,47.0 355.9,47.0 356.7,47.0 357.6,47.0 358.4,47.0 359.2,47.0 360.0,47.0 360.9,47.0 361.7,47.0 362.5,47.0 363.3,47.0 364.2,47.0 365.0,47.0 365.8,47.0 366.6,47.0 367.4,47.0 368.3,47.0 369.1,47.0 369.9,47.0 370.7,47.0 371.5,47.0 372.4,47.0 373.2,47.0 374.0,47.0 374.8,47.0 375.6,47.0 376.4,47.0 377.2,47.0 378.1,47.0 378.9,47.0 379.7,47.0 380.5,47.0 381.3,47.0 382.1,47.0 383.0,47.0 383.8,47.0 384.6,47.0 385.4,47.0 386.2,47.0 387.0,47.0 387.9,47.0 388.7,47.0 389.5,47.0 390.3,47.0 391.1,47.0 391.9,47.0 L391.9,171.0 L37.5,171.0 Z" fill="url(#g415)"/>
  <defs><clipPath id="pc416"><rect x="34" y="16" width="358" height="155"/></clipPath></defs>
  <polyline points="37.5,102.3 70.1,93.0 89.2,87.5 102.8,83.7 113.3,80.7 121.9,78.2 129.1,76.2 135.4,74.4 141.0,72.8 145.9,71.4 150.4,70.1 154.5,69.0 158.3,67.9 161.8,67.0 165.0,66.0 168.1,65.2 170.9,64.4 173.6,63.7 176.2,63.0 178.6,62.3 180.9,61.7 183.1,61.1 185.2,60.5 187.2,60.0 189.1,59.5 190.9,59.0 192.7,58.5 194.4,58.1 196.1,57.7 197.7,57.3 199.2,56.9 200.7,56.5 202.2,56.1 203.6,55.8 204.9,55.5 206.3,55.1 207.6,54.8 208.8,54.5 210.0,54.2 211.2,54.0 212.4,53.7 213.5,53.4 214.6,53.2 215.7,52.9 216.8,52.7 217.8,52.5 218.8,52.3 219.8,52.1 220.8,51.8 221.7,51.7 222.7,51.5 223.6,51.3 224.5,51.1 225.4,50.9 226.2,50.8 227.1,50.6 227.9,50.5 228.7,50.3 229.5,50.2 231.1,49.9 232.6,49.6 234.1,49.4 235.5,49.2 236.9,49.0 238.2,48.8 239.6,48.6 240.8,48.4 242.1,48.3 243.3,48.2 244.5,48.0 245.6,47.9 246.7,47.8 247.8,47.7 248.9,47.6 249.9,47.5 251.0,47.5 252.0,47.4 252.9,47.3 253.9,47.3 254.8,47.2 255.8,47.2 256.7,47.1 257.6,47.1 258.4,47.1 259.3,47.1 260.1,47.0 261.0,47.0 261.8,47.0 263.0,47.0 264.1,47.0 265.3,47.0 266.4,47.0 267.5,46.9 268.5,46.9 269.6,46.9 270.6,46.9 271.6,46.9 272.5,46.9 273.5,46.9 274.4,47.0 275.3,47.0 276.2,47.0 277.1,47.0 278.0,47.0 278.8,47.0 279.6,47.0 280.5,47.0 281.3,47.0 282.3,47.0 283.4,47.0 284.4,47.0 285.3,47.0 286.3,47.0 287.3,47.0 288.2,47.0 289.1,47.0 290.0,47.0 290.9,47.0 291.7,47.0 292.6,47.0 293.4,47.0 294.2,47.0 295.0,47.0 296.0,47.0 297.0,47.0 297.9,47.0 298.8,47.0 299.7,47.0 300.6,47.0 301.5,47.0 302.4,47.0 303.2,47.0 304.0,47.0 304.9,47.0 305.8,47.0 306.7,47.0 307.7,47.0 308.6,47.0 309.5,47.0 310.3,47.0 311.2,47.0 312.0,47.0 312.8,47.0 313.7,47.0 314.6,47.0 315.5,47.0 316.4,47.0 317.3,47.0 318.1,47.0 319.0,47.0 319.8,47.0 320.6,47.0 321.4,47.0 322.3,47.0 323.2,47.0 324.1,47.0 324.9,47.0 325.7,47.0 326.6,47.0 327.4,47.0 328.3,47.0 329.1,47.0 330.0,47.0 330.8,47.0 331.7,47.0 332.5,47.0 333.3,47.0 334.2,47.0 335.0,47.0 335.9,47.0 336.7,47.0 337.5,47.0 338.4,47.0 339.2,47.0 340.1,47.0 340.9,47.0 341.7,47.0 342.5,47.0 343.4,47.0 344.2,47.0 345.1,47.0 345.9,47.0 346.7,47.0 347.6,47.0 348.4,47.0 349.2,47.0 350.0,47.0 350.9,47.0 351.7,47.0 352.6,47.0 353.4,47.0 354.2,47.0 355.1,47.0 355.9,47.0 356.7,47.0 357.6,47.0 358.4,47.0 359.2,47.0 360.0,47.0 360.9,47.0 361.7,47.0 362.5,47.0 363.3,47.0 364.2,47.0 365.0,47.0 365.8,47.0 366.6,47.0 367.4,47.0 368.3,47.0 369.1,47.0 369.9,47.0 370.7,47.0 371.5,47.0 372.4,47.0 373.2,47.0 374.0,47.0 374.8,47.0 375.6,47.0 376.4,47.0 377.2,47.0 378.1,47.0 378.9,47.0 379.7,47.0 380.5,47.0 381.3,47.0 382.1,47.0 383.0,47.0 383.8,47.0 384.6,47.0 385.4,47.0 386.2,47.0 387.0,47.0 387.9,47.0 388.7,47.0 389.5,47.0 390.3,47.0 391.1,47.0 391.9,47.0" fill="none" stroke="#4a90d9" stroke-width="1.5" stroke-linejoin="round" clip-path="url(#pc416)"/>
  <line x1="442" y1="16" x2="442" y2="171" stroke="#d1d5db"/>
  <line x1="442" y1="93.5" x2="800" y2="93.5" stroke="#d1d5db"/>
  <text x="621" y="197" text-anchor="middle" font-size="9" fill="#6b7280">Hz</text>
  <text x="420" y="93.5" text-anchor="middle" font-size="9" fill="#6b7280" transform="rotate(-90 420 93.5)">Phase (deg)</text>
  <line x1="474.6" y1="16" x2="474.6" y2="171" stroke="#e5e7eb" stroke-width="0.5"/>
  <line x1="493.7" y1="16" x2="493.7" y2="171" stroke="#e5e7eb" stroke-width="0.5"/>
  <line x1="507.3" y1="16" x2="507.3" y2="171" stroke="#e5e7eb" stroke-width="0.5"/>
  <line x1="517.8" y1="16" x2="517.8" y2="171" stroke="#e5e7eb" stroke-width="0.5"/>
  <line x1="526.4" y1="16" x2="526.4" y2="171" stroke="#e5e7eb" stroke-width="0.5"/>
  <line x1="533.7" y1="16" x2="533.7" y2="171" stroke="#e5e7eb" stroke-width="0.5"/>
  <line x1="539.9" y1="16" x2="539.9" y2="171" stroke="#e5e7eb" stroke-width="0.5"/>
  <line x1="545.5" y1="16" x2="545.5" y2="171" stroke="#e5e7eb" stroke-width="0.5"/>
  <line x1="583.1" y1="16" x2="583.1" y2="171" stroke="#e5e7eb" stroke-width="0.5"/>
  <line x1="602.2" y1="16" x2="602.2" y2="171" stroke="#e5e7eb" stroke-width="0.5"/>
  <line x1="615.7" y1="16" x2="615.7" y2="171" stroke="#e5e7eb" stroke-width="0.5"/>
  <line x1="626.3" y1="16" x2="626.3" y2="171" stroke="#e5e7eb" stroke-width="0.5"/>
  <line x1="634.8" y1="16" x2="634.8" y2="171" stroke="#e5e7eb" stroke-width="0.5"/>
  <line x1="642.1" y1="16" x2="642.1" y2="171" stroke="#e5e7eb" stroke-width="0.5"/>
  <line x1="648.4" y1="16" x2="648.4" y2="171" stroke="#e5e7eb" stroke-width="0.5"/>
  <line x1="653.9" y1="16" x2="653.9" y2="171" stroke="#e5e7eb" stroke-width="0.5"/>
  <line x1="691.5" y1="16" x2="691.5" y2="171" stroke="#e5e7eb" stroke-width="0.5"/>
  <line x1="710.6" y1="16" x2="710.6" y2="171" stroke="#e5e7eb" stroke-width="0.5"/>
  <line x1="724.2" y1="16" x2="724.2" y2="171" stroke="#e5e7eb" stroke-width="0.5"/>
  <line x1="734.7" y1="16" x2="734.7" y2="171" stroke="#e5e7eb" stroke-width="0.5"/>
  <line x1="743.3" y1="16" x2="743.3" y2="171" stroke="#e5e7eb" stroke-width="0.5"/>
  <line x1="750.6" y1="16" x2="750.6" y2="171" stroke="#e5e7eb" stroke-width="0.5"/>
  <line x1="756.8" y1="16" x2="756.8" y2="171" stroke="#e5e7eb" stroke-width="0.5"/>
  <line x1="762.4" y1="16" x2="762.4" y2="171" stroke="#e5e7eb" stroke-width="0.5"/>
  <line x1="800.0" y1="16" x2="800.0" y2="171" stroke="#e5e7eb" stroke-width="0.5"/>
  <line x1="550.5" y1="16" x2="550.5" y2="171" stroke="#e5e7eb" stroke-width="0.5"/>
  <text x="550.5" y="183" text-anchor="middle" font-size="8" fill="#6b7280">100</text>
  <line x1="658.9" y1="16" x2="658.9" y2="171" stroke="#e5e7eb" stroke-width="0.5"/>
  <text x="658.9" y="183" text-anchor="middle" font-size="8" fill="#6b7280">1k</text>
  <line x1="767.4" y1="16" x2="767.4" y2="171" stroke="#e5e7eb" stroke-width="0.5"/>
  <text x="767.4" y="183" text-anchor="middle" font-size="8" fill="#6b7280">10k</text>
  <line x1="442" y1="54.8" x2="800" y2="54.8" stroke="#e5e7eb" stroke-width="0.5"/>
  <line x1="442" y1="132.3" x2="800" y2="132.3" stroke="#e5e7eb" stroke-width="0.5"/>
  <line x1="442" y1="16.0" x2="800" y2="16.0" stroke="#e5e7eb" stroke-width="0.5"/>
  <text x="438" y="19.0" text-anchor="end" font-size="8" fill="#6b7280">180</text>
  <text x="438" y="96.5" text-anchor="end" font-size="8" fill="#6b7280">0</text>
  <line x1="442" y1="171.0" x2="800" y2="171.0" stroke="#e5e7eb" stroke-width="0.5"/>
  <text x="438" y="174.0" text-anchor="end" font-size="8" fill="#6b7280">-180</text>
  <defs><linearGradient id="g417" x1="0" y1="16" x2="0" y2="93.5" gradientUnits="userSpaceOnUse">
    <stop offset="0%" stop-color="#e74c3c" stop-opacity="0.15"/>
    <stop offset="100%" stop-color="#e74c3c" stop-opacity="0.02"/>
  </linearGradient></defs>
  <defs><linearGradient id="g418" x1="0" y1="171" x2="0" y2="93.5" gradientUnits="userSpaceOnUse">
    <stop offset="0%" stop-color="#e74c3c" stop-opacity="0.15"/>
    <stop offset="100%" stop-color="#e74c3c" stop-opacity="0.02"/>
  </linearGradient></defs>
  <defs><clipPath id="c419"><rect x="442" y="16" width="358" height="77.5"/></clipPath></defs>
  <defs><clipPath id="c420"><rect x="442" y="93.5" width="358" height="77.5"/></clipPath></defs>
  <path d="M445.5,133.4 445.5,133.4 478.1,134.6 497.2,135.8 510.8,136.9 521.3,138.1 529.9,139.3 537.1,140.5 543.4,141.6 549.0,142.8 553.9,144.0 558.4,145.2 562.5,146.3 566.3,147.5 569.8,148.7 573.0,149.8 576.1,151.0 578.9,152.2 581.6,153.4 584.2,154.5 586.6,155.7 588.9,156.9 591.1,158.1 593.2,159.2 595.2,160.4 597.1,161.6 598.9,162.8 600.7,163.9 602.4,165.1 604.1,166.3 605.7,167.4 607.2,168.6 608.7,169.8 610.2,171.0 611.6,17.1 612.9,18.3 614.3,19.5 615.6,20.7 616.8,21.8 618.0,23.0 619.2,24.2 620.4,25.3 621.5,26.5 622.6,27.7 623.7,28.9 624.8,30.0 625.8,31.2 626.8,32.4 627.8,33.6 628.8,34.7 629.7,35.9 630.7,37.1 631.6,38.3 632.5,39.4 633.4,40.6 634.2,41.8 635.1,42.9 635.9,44.1 636.7,45.3 637.5,46.5 639.1,48.8 640.6,51.2 642.1,53.5 643.5,55.8 644.9,58.2 646.2,60.5 647.6,62.9 648.8,65.2 650.1,67.6 651.3,69.9 652.5,72.3 653.6,74.6 654.7,77.0 655.8,79.3 656.9,81.7 657.9,84.0 659.0,86.3 660.0,88.7 660.9,91.0 661.9,93.4 662.8,95.7 663.8,98.1 664.7,100.4 665.6,102.8 666.4,105.1 667.3,107.5 668.1,109.8 669.0,112.2 669.8,114.5 671.0,118.0 672.1,121.5 673.3,125.1 674.4,128.6 675.5,132.1 676.5,135.6 677.6,139.1 678.6,142.7 679.6,146.2 680.5,149.7 681.5,153.2 682.4,156.7 683.3,160.3 684.2,163.8 685.1,167.3 686.0,170.8 686.8,19.3 687.6,22.8 688.5,26.4 689.3,29.9 690.3,34.6 691.4,39.3 692.4,44.0 693.3,48.7 694.3,53.3 695.3,58.0 696.2,62.7 697.1,67.4 698.0,72.1 698.9,76.8 699.7,81.5 700.6,86.2 701.4,90.9 702.2,95.6 703.0,100.3 704.0,106.1 705.0,112.0 705.9,117.9 706.8,123.7 707.7,129.6 708.6,135.5 709.5,141.3 710.4,147.2 711.2,153.1 712.0,158.9 712.9,164.8 713.8,16.8 714.7,23.9 715.7,30.9 716.6,37.9 717.5,45.0 718.3,52.0 719.2,59.1 720.0,66.1 720.8,73.1 721.7,80.2 722.6,88.4 723.5,96.6 724.4,104.8 725.3,113.0 726.1,121.2 727.0,129.4 727.8,137.7 728.6,145.9 729.4,154.1 730.3,163.5 731.2,17.9 732.1,27.2 732.9,36.6 733.7,46.0 734.6,55.4 735.4,64.8 736.3,75.3 737.1,85.9 738.0,96.5 738.8,107.0 739.7,117.6 740.5,128.1 741.3,138.7 742.2,150.4 743.0,162.1 743.9,18.9 744.7,30.6 745.5,42.3 746.4,55.2 747.2,68.1 748.1,81.1 748.9,94.0 749.7,106.9 750.5,119.8 751.4,133.8 752.2,147.9 753.1,162.0 753.9,21.1 754.7,35.1 755.6,50.4 756.4,65.6 757.2,80.9 758.0,96.1 758.9,112.6 759.7,129.0 760.6,145.4 761.4,161.8 762.2,24.4 763.1,42.0 763.9,59.6 764.7,77.2 765.6,96.0 766.4,114.8 767.2,133.5 768.0,152.3 768.9,17.2 769.7,37.2 770.5,57.1 771.3,78.2 772.2,99.4 773.0,120.5 773.8,141.6 774.6,163.9 775.4,31.2 776.3,53.5 777.1,76.9 777.9,100.4 778.7,123.8 779.5,148.5 780.4,18.1 781.2,42.8 782.0,68.6 782.8,94.4 783.6,121.4 784.4,148.3 785.2,20.3 786.1,48.5 786.9,76.6 787.7,105.9 788.5,135.3 789.3,164.6 790.1,40.1 791.0,70.6 791.8,102.3 792.6,134.0 793.4,166.8 794.2,44.6 795.0,78.7 795.9,112.7 796.7,147.9 797.5,28.1 798.3,64.4 799.1,100.8 799.9,138.3 L799.9,93.5 L445.5,93.5 Z" fill="url(#g417)" clip-path="url(#c419)"/>
  <path d="M445.5,133.4 445.5,133.4 478.1,134.6 497.2,135.8 510.8,136.9 521.3,138.1 529.9,139.3 537.1,140.5 543.4,141.6 549.0,142.8 553.9,144.0 558.4,145.2 562.5,146.3 566.3,147.5 569.8,148.7 573.0,149.8 576.1,151.0 578.9,152.2 581.6,153.4 584.2,154.5 586.6,155.7 588.9,156.9 591.1,158.1 593.2,159.2 595.2,160.4 597.1,161.6 598.9,162.8 600.7,163.9 602.4,165.1 604.1,166.3 605.7,167.4 607.2,168.6 608.7,169.8 610.2,171.0 611.6,17.1 612.9,18.3 614.3,19.5 615.6,20.7 616.8,21.8 618.0,23.0 619.2,24.2 620.4,25.3 621.5,26.5 622.6,27.7 623.7,28.9 624.8,30.0 625.8,31.2 626.8,32.4 627.8,33.6 628.8,34.7 629.7,35.9 630.7,37.1 631.6,38.3 632.5,39.4 633.4,40.6 634.2,41.8 635.1,42.9 635.9,44.1 636.7,45.3 637.5,46.5 639.1,48.8 640.6,51.2 642.1,53.5 643.5,55.8 644.9,58.2 646.2,60.5 647.6,62.9 648.8,65.2 650.1,67.6 651.3,69.9 652.5,72.3 653.6,74.6 654.7,77.0 655.8,79.3 656.9,81.7 657.9,84.0 659.0,86.3 660.0,88.7 660.9,91.0 661.9,93.4 662.8,95.7 663.8,98.1 664.7,100.4 665.6,102.8 666.4,105.1 667.3,107.5 668.1,109.8 669.0,112.2 669.8,114.5 671.0,118.0 672.1,121.5 673.3,125.1 674.4,128.6 675.5,132.1 676.5,135.6 677.6,139.1 678.6,142.7 679.6,146.2 680.5,149.7 681.5,153.2 682.4,156.7 683.3,160.3 684.2,163.8 685.1,167.3 686.0,170.8 686.8,19.3 687.6,22.8 688.5,26.4 689.3,29.9 690.3,34.6 691.4,39.3 692.4,44.0 693.3,48.7 694.3,53.3 695.3,58.0 696.2,62.7 697.1,67.4 698.0,72.1 698.9,76.8 699.7,81.5 700.6,86.2 701.4,90.9 702.2,95.6 703.0,100.3 704.0,106.1 705.0,112.0 705.9,117.9 706.8,123.7 707.7,129.6 708.6,135.5 709.5,141.3 710.4,147.2 711.2,153.1 712.0,158.9 712.9,164.8 713.8,16.8 714.7,23.9 715.7,30.9 716.6,37.9 717.5,45.0 718.3,52.0 719.2,59.1 720.0,66.1 720.8,73.1 721.7,80.2 722.6,88.4 723.5,96.6 724.4,104.8 725.3,113.0 726.1,121.2 727.0,129.4 727.8,137.7 728.6,145.9 729.4,154.1 730.3,163.5 731.2,17.9 732.1,27.2 732.9,36.6 733.7,46.0 734.6,55.4 735.4,64.8 736.3,75.3 737.1,85.9 738.0,96.5 738.8,107.0 739.7,117.6 740.5,128.1 741.3,138.7 742.2,150.4 743.0,162.1 743.9,18.9 744.7,30.6 745.5,42.3 746.4,55.2 747.2,68.1 748.1,81.1 748.9,94.0 749.7,106.9 750.5,119.8 751.4,133.8 752.2,147.9 753.1,162.0 753.9,21.1 754.7,35.1 755.6,50.4 756.4,65.6 757.2,80.9 758.0,96.1 758.9,112.6 759.7,129.0 760.6,145.4 761.4,161.8 762.2,24.4 763.1,42.0 763.9,59.6 764.7,77.2 765.6,96.0 766.4,114.8 767.2,133.5 768.0,152.3 768.9,17.2 769.7,37.2 770.5,57.1 771.3,78.2 772.2,99.4 773.0,120.5 773.8,141.6 774.6,163.9 775.4,31.2 776.3,53.5 777.1,76.9 777.9,100.4 778.7,123.8 779.5,148.5 780.4,18.1 781.2,42.8 782.0,68.6 782.8,94.4 783.6,121.4 784.4,148.3 785.2,20.3 786.1,48.5 786.9,76.6 787.7,105.9 788.5,135.3 789.3,164.6 790.1,40.1 791.0,70.6 791.8,102.3 792.6,134.0 793.4,166.8 794.2,44.6 795.0,78.7 795.9,112.7 796.7,147.9 797.5,28.1 798.3,64.4 799.1,100.8 799.9,138.3 L799.9,93.5 L445.5,93.5 Z" fill="url(#g418)" clip-path="url(#c420)"/>
  <defs><clipPath id="pc421"><rect x="442" y="16" width="358" height="155"/></clipPath></defs>
  <polyline points="445.5,133.4 478.1,134.6 497.2,135.8 510.8,136.9 521.3,138.1 529.9,139.3 537.1,140.5 543.4,141.6 549.0,142.8 553.9,144.0 558.4,145.2 562.5,146.3 566.3,147.5 569.8,148.7 573.0,149.8 576.1,151.0 578.9,152.2 581.6,153.4 584.2,154.5 586.6,155.7 588.9,156.9 591.1,158.1 593.2,159.2 595.2,160.4 597.1,161.6 598.9,162.8 600.7,163.9 602.4,165.1 604.1,166.3 605.7,167.4 607.2,168.6 608.7,169.8 610.2,171.0 611.6,17.1 612.9,18.3 614.3,19.5 615.6,20.7 616.8,21.8 618.0,23.0 619.2,24.2 620.4,25.3 621.5,26.5 622.6,27.7 623.7,28.9 624.8,30.0 625.8,31.2 626.8,32.4 627.8,33.6 628.8,34.7 629.7,35.9 630.7,37.1 631.6,38.3 632.5,39.4 633.4,40.6 634.2,41.8 635.1,42.9 635.9,44.1 636.7,45.3 637.5,46.5 639.1,48.8 640.6,51.2 642.1,53.5 643.5,55.8 644.9,58.2 646.2,60.5 647.6,62.9 648.8,65.2 650.1,67.6 651.3,69.9 652.5,72.3 653.6,74.6 654.7,77.0 655.8,79.3 656.9,81.7 657.9,84.0 659.0,86.3 660.0,88.7 660.9,91.0 661.9,93.4 662.8,95.7 663.8,98.1 664.7,100.4 665.6,102.8 666.4,105.1 667.3,107.5 668.1,109.8 669.0,112.2 669.8,114.5 671.0,118.0 672.1,121.5 673.3,125.1 674.4,128.6 675.5,132.1 676.5,135.6 677.6,139.1 678.6,142.7 679.6,146.2 680.5,149.7 681.5,153.2 682.4,156.7 683.3,160.3 684.2,163.8 685.1,167.3 686.0,170.8 686.8,19.3 687.6,22.8 688.5,26.4 689.3,29.9 690.3,34.6 691.4,39.3 692.4,44.0 693.3,48.7 694.3,53.3 695.3,58.0 696.2,62.7 697.1,67.4 698.0,72.1 698.9,76.8 699.7,81.5 700.6,86.2 701.4,90.9 702.2,95.6 703.0,100.3 704.0,106.1 705.0,112.0 705.9,117.9 706.8,123.7 707.7,129.6 708.6,135.5 709.5,141.3 710.4,147.2 711.2,153.1 712.0,158.9 712.9,164.8 713.8,16.8 714.7,23.9 715.7,30.9 716.6,37.9 717.5,45.0 718.3,52.0 719.2,59.1 720.0,66.1 720.8,73.1 721.7,80.2 722.6,88.4 723.5,96.6 724.4,104.8 725.3,113.0 726.1,121.2 727.0,129.4 727.8,137.7 728.6,145.9 729.4,154.1 730.3,163.5 731.2,17.9 732.1,27.2 732.9,36.6 733.7,46.0 734.6,55.4 735.4,64.8 736.3,75.3 737.1,85.9 738.0,96.5 738.8,107.0 739.7,117.6 740.5,128.1 741.3,138.7 742.2,150.4 743.0,162.1 743.9,18.9 744.7,30.6 745.5,42.3 746.4,55.2 747.2,68.1 748.1,81.1 748.9,94.0 749.7,106.9 750.5,119.8 751.4,133.8 752.2,147.9 753.1,162.0 753.9,21.1 754.7,35.1 755.6,50.4 756.4,65.6 757.2,80.9 758.0,96.1 758.9,112.6 759.7,129.0 760.6,145.4 761.4,161.8 762.2,24.4 763.1,42.0 763.9,59.6 764.7,77.2 765.6,96.0 766.4,114.8 767.2,133.5 768.0,152.3 768.9,17.2 769.7,37.2 770.5,57.1 771.3,78.2 772.2,99.4 773.0,120.5 773.8,141.6 774.6,163.9 775.4,31.2 776.3,53.5 777.1,76.9 777.9,100.4 778.7,123.8 779.5,148.5 780.4,18.1 781.2,42.8 782.0,68.6 782.8,94.4 783.6,121.4 784.4,148.3 785.2,20.3 786.1,48.5 786.9,76.6 787.7,105.9 788.5,135.3 789.3,164.6 790.1,40.1 791.0,70.6 791.8,102.3 792.6,134.0 793.4,166.8 794.2,44.6 795.0,78.7 795.9,112.7 796.7,147.9 797.5,28.1 798.3,64.4 799.1,100.8 799.9,138.3" fill="none" stroke="#e74c3c" stroke-width="1.5" stroke-linejoin="round" clip-path="url(#pc421)"/>
  <line x1="34" y1="221" x2="34" y2="376" stroke="#d1d5db"/>
  <line x1="34" y1="298.5" x2="392" y2="298.5" stroke="#d1d5db"/>
  <text x="213" y="402" text-anchor="middle" font-size="9" fill="#6b7280">Hz</text>
  <text x="12" y="298.5" text-anchor="middle" font-size="9" fill="#6b7280" transform="rotate(-90 12 298.5)">Group delay</text>
  <line x1="66.6" y1="221" x2="66.6" y2="376" stroke="#e5e7eb" stroke-width="0.5"/>
  <line x1="85.7" y1="221" x2="85.7" y2="376" stroke="#e5e7eb" stroke-width="0.5"/>
  <line x1="99.3" y1="221" x2="99.3" y2="376" stroke="#e5e7eb" stroke-width="0.5"/>
  <line x1="109.8" y1="221" x2="109.8" y2="376" stroke="#e5e7eb" stroke-width="0.5"/>
  <line x1="118.4" y1="221" x2="118.4" y2="376" stroke="#e5e7eb" stroke-width="0.5"/>
  <line x1="125.7" y1="221" x2="125.7" y2="376" stroke="#e5e7eb" stroke-width="0.5"/>
  <line x1="131.9" y1="221" x2="131.9" y2="376" stroke="#e5e7eb" stroke-width="0.5"/>
  <line x1="137.5" y1="221" x2="137.5" y2="376" stroke="#e5e7eb" stroke-width="0.5"/>
  <line x1="175.1" y1="221" x2="175.1" y2="376" stroke="#e5e7eb" stroke-width="0.5"/>
  <line x1="194.2" y1="221" x2="194.2" y2="376" stroke="#e5e7eb" stroke-width="0.5"/>
  <line x1="207.7" y1="221" x2="207.7" y2="376" stroke="#e5e7eb" stroke-width="0.5"/>
  <line x1="218.3" y1="221" x2="218.3" y2="376" stroke="#e5e7eb" stroke-width="0.5"/>
  <line x1="226.8" y1="221" x2="226.8" y2="376" stroke="#e5e7eb" stroke-width="0.5"/>
  <line x1="234.1" y1="221" x2="234.1" y2="376" stroke="#e5e7eb" stroke-width="0.5"/>
  <line x1="240.4" y1="221" x2="240.4" y2="376" stroke="#e5e7eb" stroke-width="0.5"/>
  <line x1="245.9" y1="221" x2="245.9" y2="376" stroke="#e5e7eb" stroke-width="0.5"/>
  <line x1="283.5" y1="221" x2="283.5" y2="376" stroke="#e5e7eb" stroke-width="0.5"/>
  <line x1="302.6" y1="221" x2="302.6" y2="376" stroke="#e5e7eb" stroke-width="0.5"/>
  <line x1="316.2" y1="221" x2="316.2" y2="376" stroke="#e5e7eb" stroke-width="0.5"/>
  <line x1="326.7" y1="221" x2="326.7" y2="376" stroke="#e5e7eb" stroke-width="0.5"/>
  <line x1="335.3" y1="221" x2="335.3" y2="376" stroke="#e5e7eb" stroke-width="0.5"/>
  <line x1="342.6" y1="221" x2="342.6" y2="376" stroke="#e5e7eb" stroke-width="0.5"/>
  <line x1="348.8" y1="221" x2="348.8" y2="376" stroke="#e5e7eb" stroke-width="0.5"/>
  <line x1="354.4" y1="221" x2="354.4" y2="376" stroke="#e5e7eb" stroke-width="0.5"/>
  <line x1="392.0" y1="221" x2="392.0" y2="376" stroke="#e5e7eb" stroke-width="0.5"/>
  <line x1="142.5" y1="221" x2="142.5" y2="376" stroke="#e5e7eb" stroke-width="0.5"/>
  <text x="142.5" y="388" text-anchor="middle" font-size="8" fill="#6b7280">100</text>
  <line x1="250.9" y1="221" x2="250.9" y2="376" stroke="#e5e7eb" stroke-width="0.5"/>
  <text x="250.9" y="388" text-anchor="middle" font-size="8" fill="#6b7280">1k</text>
  <line x1="359.4" y1="221" x2="359.4" y2="376" stroke="#e5e7eb" stroke-width="0.5"/>
  <text x="359.4" y="388" text-anchor="middle" font-size="8" fill="#6b7280">10k</text>
  <line x1="34" y1="342.4" x2="392" y2="342.4" stroke="#e5e7eb" stroke-width="0.5"/>
  <text x="30" y="345.4" text-anchor="end" font-size="8" fill="#6b7280">-400</text>
  <text x="30" y="301.5" text-anchor="end" font-size="8" fill="#6b7280">0</text>
  <line x1="34" y1="254.6" x2="392" y2="254.6" stroke="#e5e7eb" stroke-width="0.5"/>
  <text x="30" y="257.6" text-anchor="end" font-size="8" fill="#6b7280">400</text>
  <defs><linearGradient id="g422" x1="0" y1="221" x2="0" y2="298.5" gradientUnits="userSpaceOnUse">
    <stop offset="0%" stop-color="#2ecc71" stop-opacity="0.15"/>
    <stop offset="100%" stop-color="#2ecc71" stop-opacity="0.02"/>
  </linearGradient></defs>
  <path d="M37.5,238.9 37.5,238.9 70.1,295.1 89.2,295.1 102.8,295.1 113.3,295.1 121.9,295.1 129.1,295.1 135.4,295.1 141.0,295.1 145.9,295.1 150.4,295.1 154.5,295.1 158.3,295.1 161.8,295.1 165.0,295.1 168.1,295.1 170.9,295.1 173.6,295.1 176.2,295.1 178.6,295.1 180.9,295.1 183.1,295.1 185.2,295.1 187.2,295.1 189.1,295.1 190.9,295.1 192.7,295.1 194.4,295.1 196.1,295.1 197.7,295.1 199.2,295.1 200.7,295.1 202.2,295.1 203.6,295.1 204.9,295.1 206.3,295.1 207.6,295.1 208.8,295.1 210.0,295.1 211.2,295.1 212.4,295.1 213.5,295.1 214.6,295.1 215.7,295.1 216.8,295.1 217.8,295.1 218.8,295.1 219.8,295.1 220.8,295.1 221.7,295.1 222.7,295.1 223.6,295.1 224.5,295.1 225.4,295.1 226.2,295.1 227.1,295.1 227.9,295.1 228.7,295.1 229.5,295.1 231.1,295.1 232.6,295.1 234.1,295.1 235.5,295.1 236.9,295.1 238.2,295.1 239.6,295.1 240.8,295.1 242.1,295.1 243.3,295.1 244.5,295.1 245.6,295.1 246.7,295.1 247.8,295.1 248.9,295.1 249.9,295.1 251.0,295.1 252.0,295.1 252.9,295.1 253.9,295.1 254.8,295.1 255.8,295.1 256.7,295.1 257.6,295.1 258.4,295.1 259.3,295.1 260.1,295.1 261.0,295.1 261.8,295.1 263.0,295.1 264.1,295.1 265.3,295.1 266.4,295.1 267.5,295.1 268.5,295.1 269.6,295.1 270.6,295.1 271.6,295.1 272.5,295.1 273.5,295.1 274.4,295.1 275.3,295.1 276.2,295.1 277.1,295.1 278.0,295.1 278.8,295.1 279.6,295.1 280.5,295.1 281.3,295.1 282.3,295.1 283.4,295.1 284.4,295.1 285.3,295.1 286.3,295.1 287.3,295.1 288.2,295.1 289.1,295.1 290.0,295.1 290.9,295.1 291.7,295.1 292.6,295.1 293.4,295.1 294.2,295.1 295.0,295.1 296.0,295.1 297.0,295.1 297.9,295.1 298.8,295.1 299.7,295.1 300.6,295.1 301.5,295.1 302.4,295.1 303.2,295.1 304.0,295.1 304.9,295.1 305.8,295.1 306.7,295.1 307.7,295.1 308.6,295.1 309.5,295.1 310.3,295.1 311.2,295.1 312.0,295.1 312.8,295.1 313.7,295.1 314.6,295.1 315.5,295.1 316.4,295.1 317.3,295.1 318.1,295.1 319.0,295.1 319.8,295.1 320.6,295.1 321.4,295.1 322.3,295.1 323.2,295.1 324.1,295.1 324.9,295.1 325.7,295.1 326.6,295.1 327.4,295.1 328.3,295.1 329.1,295.1 330.0,295.1 330.8,295.1 331.7,295.1 332.5,295.1 333.3,295.1 334.2,295.1 335.0,295.1 335.9,295.1 336.7,295.1 337.5,295.1 338.4,295.1 339.2,295.1 340.1,295.1 340.9,295.1 341.7,295.1 342.5,295.1 343.4,295.1 344.2,295.1 345.1,295.1 345.9,295.1 346.7,295.1 347.6,295.1 348.4,295.1 349.2,295.1 350.0,295.1 350.9,295.1 351.7,295.1 352.6,295.1 353.4,295.1 354.2,295.1 355.1,295.1 355.9,295.1 356.7,295.1 357.6,295.1 358.4,295.1 359.2,295.1 360.0,295.1 360.9,295.1 361.7,295.1 362.5,295.1 363.3,295.1 364.2,295.1 365.0,295.1 365.8,295.1 366.6,295.1 367.4,295.1 368.3,295.1 369.1,295.1 369.9,295.1 370.7,295.1 371.5,295.1 372.4,295.1 373.2,295.1 374.0,295.1 374.8,295.1 375.6,295.1 376.4,295.1 377.2,295.1 378.1,295.1 378.9,295.1 379.7,295.1 380.5,295.1 381.3,295.1 382.1,295.1 383.0,295.1 383.8,295.1 384.6,295.1 385.4,295.1 386.2,295.1 387.0,295.1 387.9,295.1 388.7,295.1 389.5,295.1 390.3,295.1 391.1,295.1 391.9,295.1 L391.9,298.5 L37.5,298.5 Z" fill="url(#g422)"/>
  <defs><clipPath id="pc423"><rect x="34" y="221" width="358" height="155"/></clipPath></defs>
  <polyline points="37.5,238.9 70.1,295.1 89.2,295.1 102.8,295.1 113.3,295.1 121.9,295.1 129.1,295.1 135.4,295.1 141.0,295.1 145.9,295.1 150.4,295.1 154.5,295.1 158.3,295.1 161.8,295.1 165.0,295.1 168.1,295.1 170.9,295.1 173.6,295.1 176.2,295.1 178.6,295.1 180.9,295.1 183.1,295.1 185.2,295.1 187.2,295.1 189.1,295.1 190.9,295.1 192.7,295.1 194.4,295.1 196.1,295.1 197.7,295.1 199.2,295.1 200.7,295.1 202.2,295.1 203.6,295.1 204.9,295.1 206.3,295.1 207.6,295.1 208.8,295.1 210.0,295.1 211.2,295.1 212.4,295.1 213.5,295.1 214.6,295.1 215.7,295.1 216.8,295.1 217.8,295.1 218.8,295.1 219.8,295.1 220.8,295.1 221.7,295.1 222.7,295.1 223.6,295.1 224.5,295.1 225.4,295.1 226.2,295.1 227.1,295.1 227.9,295.1 228.7,295.1 229.5,295.1 231.1,295.1 232.6,295.1 234.1,295.1 235.5,295.1 236.9,295.1 238.2,295.1 239.6,295.1 240.8,295.1 242.1,295.1 243.3,295.1 244.5,295.1 245.6,295.1 246.7,295.1 247.8,295.1 248.9,295.1 249.9,295.1 251.0,295.1 252.0,295.1 252.9,295.1 253.9,295.1 254.8,295.1 255.8,295.1 256.7,295.1 257.6,295.1 258.4,295.1 259.3,295.1 260.1,295.1 261.0,295.1 261.8,295.1 263.0,295.1 264.1,295.1 265.3,295.1 266.4,295.1 267.5,295.1 268.5,295.1 269.6,295.1 270.6,295.1 271.6,295.1 272.5,295.1 273.5,295.1 274.4,295.1 275.3,295.1 276.2,295.1 277.1,295.1 278.0,295.1 278.8,295.1 279.6,295.1 280.5,295.1 281.3,295.1 282.3,295.1 283.4,295.1 284.4,295.1 285.3,295.1 286.3,295.1 287.3,295.1 288.2,295.1 289.1,295.1 290.0,295.1 290.9,295.1 291.7,295.1 292.6,295.1 293.4,295.1 294.2,295.1 295.0,295.1 296.0,295.1 297.0,295.1 297.9,295.1 298.8,295.1 299.7,295.1 300.6,295.1 301.5,295.1 302.4,295.1 303.2,295.1 304.0,295.1 304.9,295.1 305.8,295.1 306.7,295.1 307.7,295.1 308.6,295.1 309.5,295.1 310.3,295.1 311.2,295.1 312.0,295.1 312.8,295.1 313.7,295.1 314.6,295.1 315.5,295.1 316.4,295.1 317.3,295.1 318.1,295.1 319.0,295.1 319.8,295.1 320.6,295.1 321.4,295.1 322.3,295.1 323.2,295.1 324.1,295.1 324.9,295.1 325.7,295.1 326.6,295.1 327.4,295.1 328.3,295.1 329.1,295.1 330.0,295.1 330.8,295.1 331.7,295.1 332.5,295.1 333.3,295.1 334.2,295.1 335.0,295.1 335.9,295.1 336.7,295.1 337.5,295.1 338.4,295.1 339.2,295.1 340.1,295.1 340.9,295.1 341.7,295.1 342.5,295.1 343.4,295.1 344.2,295.1 345.1,295.1 345.9,295.1 346.7,295.1 347.6,295.1 348.4,295.1 349.2,295.1 350.0,295.1 350.9,295.1 351.7,295.1 352.6,295.1 353.4,295.1 354.2,295.1 355.1,295.1 355.9,295.1 356.7,295.1 357.6,295.1 358.4,295.1 359.2,295.1 360.0,295.1 360.9,295.1 361.7,295.1 362.5,295.1 363.3,295.1 364.2,295.1 365.0,295.1 365.8,295.1 366.6,295.1 367.4,295.1 368.3,295.1 369.1,295.1 369.9,295.1 370.7,295.1 371.5,295.1 372.4,295.1 373.2,295.1 374.0,295.1 374.8,295.1 375.6,295.1 376.4,295.1 377.2,295.1 378.1,295.1 378.9,295.1 379.7,295.1 380.5,295.1 381.3,295.1 382.1,295.1 383.0,295.1 383.8,295.1 384.6,295.1 385.4,295.1 386.2,295.1 387.0,295.1 387.9,295.1 388.7,295.1 389.5,295.1 390.3,295.1 391.1,295.1 391.9,295.1" fill="none" stroke="#2ecc71" stroke-width="1.5" stroke-linejoin="round" clip-path="url(#pc423)"/>
  <line x1="442" y1="221" x2="442" y2="376" stroke="#d1d5db"/>
  <line x1="442" y1="298.5" x2="800" y2="298.5" stroke="#d1d5db"/>
  <text x="621" y="402" text-anchor="middle" font-size="9" fill="#6b7280">Samples</text>
  <text x="420" y="298.5" text-anchor="middle" font-size="9" fill="#6b7280" transform="rotate(-90 420 298.5)">Impulse response</text>
  <line x1="442.0" y1="221" x2="442.0" y2="376" stroke="#e5e7eb" stroke-width="0.5"/>
  <text x="442.0" y="388" text-anchor="middle" font-size="8" fill="#6b7280">0</text>
  <line x1="612.5" y1="221" x2="612.5" y2="376" stroke="#e5e7eb" stroke-width="0.5"/>
  <text x="612.5" y="388" text-anchor="middle" font-size="8" fill="#6b7280">30</text>
  <line x1="783.0" y1="221" x2="783.0" y2="376" stroke="#e5e7eb" stroke-width="0.5"/>
  <text x="783.0" y="388" text-anchor="middle" font-size="8" fill="#6b7280">60</text>
  <line x1="442" y1="359.5" x2="800" y2="359.5" stroke="#e5e7eb" stroke-width="0.5"/>
  <text x="438" y="362.5" text-anchor="end" font-size="8" fill="#6b7280">-0.5</text>
  <text x="438" y="301.5" text-anchor="end" font-size="8" fill="#6b7280">0</text>
  <line x1="442" y1="237.5" x2="800" y2="237.5" stroke="#e5e7eb" stroke-width="0.5"/>
  <text x="438" y="240.5" text-anchor="end" font-size="8" fill="#6b7280">0.5</text>
  <defs><linearGradient id="g424" x1="0" y1="221" x2="0" y2="298.5" gradientUnits="userSpaceOnUse">
    <stop offset="0%" stop-color="#f39c12" stop-opacity="0.15"/>
    <stop offset="100%" stop-color="#f39c12" stop-opacity="0.02"/>
  </linearGradient></defs>
  <defs><linearGradient id="g425" x1="0" y1="376" x2="0" y2="298.5" gradientUnits="userSpaceOnUse">
    <stop offset="0%" stop-color="#f39c12" stop-opacity="0.15"/>
    <stop offset="100%" stop-color="#f39c12" stop-opacity="0.02"/>
  </linearGradient></defs>
  <defs><clipPath id="c426"><rect x="442" y="221" width="358" height="77.5"/></clipPath></defs>
  <defs><clipPath id="c427"><rect x="442" y="298.5" width="358" height="77.5"/></clipPath></defs>
  <path d="M442.0,298.7 442.0,298.7 447.7,298.5 453.4,298.7 459.0,298.5 464.7,298.8 470.4,298.5 476.1,299.0 481.8,298.5 487.5,299.3 493.1,298.5 498.8,299.6 504.5,298.5 510.2,300.1 515.9,298.5 521.6,300.6 527.2,298.5 532.9,301.4 538.6,298.5 544.3,302.4 550.0,298.5 555.7,303.7 561.3,298.5 567.0,305.6 572.7,298.5 578.4,308.4 584.1,298.5 589.7,313.1 595.4,298.5 601.1,323.8 606.8,298.5 612.5,376.0 618.2,298.5 623.8,221.0 629.5,298.5 635.2,273.2 640.9,298.5 646.6,283.9 652.3,298.5 657.9,288.6 663.6,298.5 669.3,291.4 675.0,298.5 680.7,293.3 686.3,298.5 692.0,294.6 697.7,298.5 703.4,295.6 709.1,298.5 714.8,296.4 720.4,298.5 726.1,296.9 731.8,298.5 737.5,297.4 743.2,298.5 748.9,297.7 754.5,298.5 760.2,298.0 765.9,298.5 771.6,298.2 777.3,298.5 783.0,298.3 788.6,298.5 794.3,298.3 L794.3,298.5 L442.0,298.5 Z" fill="url(#g424)" clip-path="url(#c426)"/>
  <path d="M442.0,298.7 442.0,298.7 447.7,298.5 453.4,298.7 459.0,298.5 464.7,298.8 470.4,298.5 476.1,299.0 481.8,298.5 487.5,299.3 493.1,298.5 498.8,299.6 504.5,298.5 510.2,300.1 515.9,298.5 521.6,300.6 527.2,298.5 532.9,301.4 538.6,298.5 544.3,302.4 550.0,298.5 555.7,303.7 561.3,298.5 567.0,305.6 572.7,298.5 578.4,308.4 584.1,298.5 589.7,313.1 595.4,298.5 601.1,323.8 606.8,298.5 612.5,376.0 618.2,298.5 623.8,221.0 629.5,298.5 635.2,273.2 640.9,298.5 646.6,283.9 652.3,298.5 657.9,288.6 663.6,298.5 669.3,291.4 675.0,298.5 680.7,293.3 686.3,298.5 692.0,294.6 697.7,298.5 703.4,295.6 709.1,298.5 714.8,296.4 720.4,298.5 726.1,296.9 731.8,298.5 737.5,297.4 743.2,298.5 748.9,297.7 754.5,298.5 760.2,298.0 765.9,298.5 771.6,298.2 777.3,298.5 783.0,298.3 788.6,298.5 794.3,298.3 L794.3,298.5 L442.0,298.5 Z" fill="url(#g425)" clip-path="url(#c427)"/>
  <defs><clipPath id="pc428"><rect x="442" y="221" width="358" height="155"/></clipPath></defs>
  <polyline points="442.0,298.7 447.7,298.5 453.4,298.7 459.0,298.5 464.7,298.8 470.4,298.5 476.1,299.0 481.8,298.5 487.5,299.3 493.1,298.5 498.8,299.6 504.5,298.5 510.2,300.1 515.9,298.5 521.6,300.6 527.2,298.5 532.9,301.4 538.6,298.5 544.3,302.4 550.0,298.5 555.7,303.7 561.3,298.5 567.0,305.6 572.7,298.5 578.4,308.4 584.1,298.5 589.7,313.1 595.4,298.5 601.1,323.8 606.8,298.5 612.5,376.0 618.2,298.5 623.8,221.0 629.5,298.5 635.2,273.2 640.9,298.5 646.6,283.9 652.3,298.5 657.9,288.6 663.6,298.5 669.3,291.4 675.0,298.5 680.7,293.3 686.3,298.5 692.0,294.6 697.7,298.5 703.4,295.6 709.1,298.5 714.8,296.4 720.4,298.5 726.1,296.9 731.8,298.5 737.5,297.4 743.2,298.5 748.9,297.7 754.5,298.5 760.2,298.0 765.9,298.5 771.6,298.2 777.3,298.5 783.0,298.3 788.6,298.5 794.3,298.3" fill="none" stroke="#f39c12" stroke-width="1.3" stroke-linejoin="round" clip-path="url(#pc428)"/>
</svg>
