<svg xmlns="http://www.w3.org/2000/svg" viewBox="0 0 820 392" style="font-family:system-ui,-apple-system,sans-serif">
  <text x="800" y="11" text-anchor="end" font-size="11" font-weight="600" fill="#6b7280">IIR families, order 4, fc=1kHz</text>
  <line x1="34" y1="16" x2="34" y2="171" stroke="#d1d5db"/>
  <line x1="34" y1="47.0" x2="392" y2="47.0" stroke="#d1d5db"/>
  <text x="213" y="197" text-anchor="middle" font-size="9" fill="#6b7280">Hz</text>
  <text x="12" y="93.5" text-anchor="middle" font-size="9" fill="#6b7280" transform="rotate(-90 12 93.5)">dB</text>
  <line x1="66.6" y1="16" x2="66.6" y2="171" stroke="#e5e7eb" stroke-width="0.5"/>
  <line x1="85.7" y1="16" x2="85.7" y2="171" stroke="#e5e7eb" stroke-width="0.5"/>
  <line x1="99.3" y1="16" x2="99.3" y2="171" stroke="#e5e7eb" stroke-width="0.5"/>
  <line x1="109.8" y1="16" x2="109.8" y2="171" stroke="#e5e7eb" stroke-width="0.5"/>
  <line x1="118.4" y1="16" x2="118.4" y2="171" stroke="#e5e7eb" stroke-width="0.5"/>
  <line x1="125.7" y1="16" x2="125.7" y2="171" stroke="#e5e7eb" stroke-width="0.5"/>
  <line x1="131.9" y1="16" x2="131.9" y2="171" stroke="#e5e7eb" stroke-width="0.5"/>
  <line x1="137.5" y1="16" x2="137.5" y2="171" stroke="#e5e7eb" stroke-width="0.5"/>
  <line x1="175.1" y1="16" x2="175.1" y2="171" stroke="#e5e7eb" stroke-width="0.5"/>
  <line x1="194.2" y1="16" x2="194.2" y2="171" stroke="#e5e7eb" stroke-width="0.5"/>
  <line x1="207.7" y1="16" x2="207.7" y2="171" stroke="#e5e7eb" stroke-width="0.5"/>
  <line x1="218.3" y1="16" x2="218.3" y2="171" stroke="#e5e7eb" stroke-width="0.5"/>
  <line x1="226.8" y1="16" x2="226.8" y2="171" stroke="#e5e7eb" stroke-width="0.5"/>
  <line x1="234.1" y1="16" x2="234.1" y2="171" stroke="#e5e7eb" stroke-width="0.5"/>
  <line x1="240.4" y1="16" x2="240.4" y2="171" stroke="#e5e7eb" stroke-width="0.5"/>
  <line x1="245.9" y1="16" x2="245.9" y2="171" stroke="#e5e7eb" stroke-width="0.5"/>
  <line x1="283.5" y1="16" x2="283.5" y2="171" stroke="#e5e7eb" stroke-width="0.5"/>
  <line x1="302.6" y1="16" x2="302.6" y2="171" stroke="#e5e7eb" stroke-width="0.5"/>
  <line x1="316.2" y1="16" x2="316.2" y2="171" stroke="#e5e7eb" stroke-width="0.5"/>
  <line x1="326.7" y1="16" x2="326.7" y2="171" stroke="#e5e7eb" stroke-width="0.5"/>
  <line x1="335.3" y1="16" x2="335.3" y2="171" stroke="#e5e7eb" stroke-width="0.5"/>
  <line x1="342.6" y1="16" x2="342.6" y2="171" stroke="#e5e7eb" stroke-width="0.5"/>
  <line x1="348.8" y1="16" x2="348.8" y2="171" stroke="#e5e7eb" stroke-width="0.5"/>
  <line x1="354.4" y1="16" x2="354.4" y2="171" stroke="#e5e7eb" stroke-width="0.5"/>
  <line x1="392.0" y1="16" x2="392.0" y2="171" stroke="#e5e7eb" stroke-width="0.5"/>
  <line x1="142.5" y1="16" x2="142.5" y2="171" stroke="#e5e7eb" stroke-width="0.5"/>
  <text x="142.5" y="183" text-anchor="middle" font-size="8" fill="#6b7280">100</text>
  <line x1="250.9" y1="16" x2="250.9" y2="171" stroke="#e5e7eb" stroke-width="0.5"/>
  <text x="250.9" y="183" text-anchor="middle" font-size="8" fill="#6b7280">1k</text>
  <line x1="359.4" y1="16" x2="359.4" y2="171" stroke="#e5e7eb" stroke-width="0.5"/>
  <text x="359.4" y="183" text-anchor="middle" font-size="8" fill="#6b7280">10k</text>
  <line x1="34" y1="31.5" x2="392" y2="31.5" stroke="#e5e7eb" stroke-width="0.5"/>
  <line x1="34" y1="62.5" x2="392" y2="62.5" stroke="#e5e7eb" stroke-width="0.5"/>
  <line x1="34" y1="16.0" x2="392" y2="16.0" stroke="#e5e7eb" stroke-width="0.5"/>
  <text x="30" y="19.0" text-anchor="end" font-size="8" fill="#6b7280">+20</text>
  <text x="30" y="50.0" text-anchor="end" font-size="8" fill="#6b7280">0</text>
  <line x1="34" y1="78.0" x2="392" y2="78.0" stroke="#e5e7eb" stroke-width="0.5"/>
  <text x="30" y="81.0" text-anchor="end" font-size="8" fill="#6b7280">-20</text>
  <line x1="34" y1="109.0" x2="392" y2="109.0" stroke="#e5e7eb" stroke-width="0.5"/>
  <text x="30" y="112.0" text-anchor="end" font-size="8" fill="#6b7280">-40</text>
  <line x1="34" y1="140.0" x2="392" y2="140.0" stroke="#e5e7eb" stroke-width="0.5"/>
  <text x="30" y="143.0" text-anchor="end" font-size="8" fill="#6b7280">-60</text>
  <line x1="34" y1="171.0" x2="392" y2="171.0" stroke="#e5e7eb" stroke-width="0.5"/>
  <text x="30" y="174.0" text-anchor="end" font-size="8" fill="#6b7280">-80</text>
  <line x1="250.9" y1="16" x2="250.9" y2="171" stroke="#d1d5db" stroke-width="1" stroke-dasharray="4 3"/>
  <line x1="442" y1="16" x2="442" y2="171" stroke="#d1d5db"/>
  <line x1="442" y1="93.5" x2="800" y2="93.5" stroke="#d1d5db"/>
  <text x="621" y="197" text-anchor="middle" font-size="9" fill="#6b7280">Hz</text>
  <text x="420" y="93.5" text-anchor="middle" font-size="9" fill="#6b7280" transform="rotate(-90 420 93.5)">Phase (deg)</text>
  <line x1="474.6" y1="16" x2="474.6" y2="171" stroke="#e5e7eb" stroke-width="0.5"/>
  <line x1="493.7" y1="16" x2="493.7" y2="171" stroke="#e5e7eb" stroke-width="0.5"/>
  <line x1="507.3" y1="16" x2="507.3" y2="171" stroke="#e5e7eb" stroke-width="0.5"/>
  <line x1="517.8" y1="16" x2="517.8" y2="171" stroke="#e5e7eb" stroke-width="0.5"/>
  <line x1="526.4" y1="16" x2="526.4" y2="171" stroke="#e5e7eb" stroke-width="0.5"/>
  <line x1="533.7" y1="16" x2="533.7" y2="171" stroke="#e5e7eb" stroke-width="0.5"/>
  <line x1="539.9" y1="16" x2="539.9" y2="171" stroke="#e5e7eb" stroke-width="0.5"/>
  <line x1="545.5" y1="16" x2="545.5" y2="171" stroke="#e5e7eb" stroke-width="0.5"/>
  <line x1="583.1" y1="16" x2="583.1" y2="171" stroke="#e5e7eb" stroke-width="0.5"/>
  <line x1="602.2" y1="16" x2="602.2" y2="171" stroke="#e5e7eb" stroke-width="0.5"/>
  <line x1="615.7" y1="16" x2="615.7" y2="171" stroke="#e5e7eb" stroke-width="0.5"/>
  <line x1="626.3" y1="16" x2="626.3" y2="171" stroke="#e5e7eb" stroke-width="0.5"/>
  <line x1="634.8" y1="16" x2="634.8" y2="171" stroke="#e5e7eb" stroke-width="0.5"/>
  <line x1="642.1" y1="16" x2="642.1" y2="171" stroke="#e5e7eb" stroke-width="0.5"/>
  <line x1="648.4" y1="16" x2="648.4" y2="171" stroke="#e5e7eb" stroke-width="0.5"/>
  <line x1="653.9" y1="16" x2="653.9" y2="171" stroke="#e5e7eb" stroke-width="0.5"/>
  <line x1="691.5" y1="16" x2="691.5" y2="171" stroke="#e5e7eb" stroke-width="0.5"/>
  <line x1="710.6" y1="16" x2="710.6" y2="171" stroke="#e5e7eb" stroke-width="0.5"/>
  <line x1="724.2" y1="16" x2="724.2" y2="171" stroke="#e5e7eb" stroke-width="0.5"/>
  <line x1="734.7" y1="16" x2="734.7" y2="171" stroke="#e5e7eb" stroke-width="0.5"/>
  <line x1="743.3" y1="16" x2="743.3" y2="171" stroke="#e5e7eb" stroke-width="0.5"/>
  <line x1="750.6" y1="16" x2="750.6" y2="171" stroke="#e5e7eb" stroke-width="0.5"/>
  <line x1="756.8" y1="16" x2="756.8" y2="171" stroke="#e5e7eb" stroke-width="0.5"/>
  <line x1="762.4" y1="16" x2="762.4" y2="171" stroke="#e5e7eb" stroke-width="0.5"/>
  <line x1="800.0" y1="16" x2="800.0" y2="171" stroke="#e5e7eb" stroke-width="0.5"/>
  <line x1="550.5" y1="16" x2="550.5" y2="171" stroke="#e5e7eb" stroke-width="0.5"/>
  <text x="550.5" y="183" text-anchor="middle" font-size="8" fill="#6b7280">100</text>
  <line x1="658.9" y1="16" x2="658.9" y2="171" stroke="#e5e7eb" stroke-width="0.5"/>
  <text x="658.9" y="183" text-anchor="middle" font-size="8" fill="#6b7280">1k</text>
  <line x1="767.4" y1="16" x2="767.4" y2="171" stroke="#e5e7eb" stroke-width="0.5"/>
  <text x="767.4" y="183" text-anchor="middle" font-size="8" fill="#6b7280">10k</text>
  <line x1="442" y1="54.8" x2="800" y2="54.8" stroke="#e5e7eb" stroke-width="0.5"/>
  <line x1="442" y1="132.3" x2="800" y2="132.3" stroke="#e5e7eb" stroke-width="0.5"/>
  <line x1="442" y1="16.0" x2="800" y2="16.0" stroke="#e5e7eb" stroke-width="0.5"/>
  <text x="438" y="19.0" text-anchor="end" font-size="8" fill="#6b7280">180</text>
  <text x="438" y="96.5" text-anchor="end" font-size="8" fill="#6b7280">0</text>
  <line x1="442" y1="171.0" x2="800" y2="171.0" stroke="#e5e7eb" stroke-width="0.5"/>
  <text x="438" y="174.0" text-anchor="end" font-size="8" fill="#6b7280">-180</text>
  <line x1="658.9" y1="16" x2="658.9" y2="171" stroke="#d1d5db" stroke-width="1" stroke-dasharray="4 3"/>
  <line x1="34" y1="221" x2="34" y2="376" stroke="#d1d5db"/>
  <line x1="34" y1="246.8" x2="392" y2="246.8" stroke="#d1d5db"/>
  <text x="213" y="402" text-anchor="middle" font-size="9" fill="#6b7280">Hz</text>
  <text x="12" y="298.5" text-anchor="middle" font-size="9" fill="#6b7280" transform="rotate(-90 12 298.5)">Group delay</text>
  <line x1="66.6" y1="221" x2="66.6" y2="376" stroke="#e5e7eb" stroke-width="0.5"/>
  <line x1="85.7" y1="221" x2="85.7" y2="376" stroke="#e5e7eb" stroke-width="0.5"/>
  <line x1="99.3" y1="221" x2="99.3" y2="376" stroke="#e5e7eb" stroke-width="0.5"/>
  <line x1="109.8" y1="221" x2="109.8" y2="376" stroke="#e5e7eb" stroke-width="0.5"/>
  <line x1="118.4" y1="221" x2="118.4" y2="376" stroke="#e5e7eb" stroke-width="0.5"/>
  <line x1="125.7" y1="221" x2="125.7" y2="376" stroke="#e5e7eb" stroke-width="0.5"/>
  <line x1="131.9" y1="221" x2="131.9" y2="376" stroke="#e5e7eb" stroke-width="0.5"/>
  <line x1="137.5" y1="221" x2="137.5" y2="376" stroke="#e5e7eb" stroke-width="0.5"/>
  <line x1="175.1" y1="221" x2="175.1" y2="376" stroke="#e5e7eb" stroke-width="0.5"/>
  <line x1="194.2" y1="221" x2="194.2" y2="376" stroke="#e5e7eb" stroke-width="0.5"/>
  <line x1="207.7" y1="221" x2="207.7" y2="376" stroke="#e5e7eb" stroke-width="0.5"/>
  <line x1="218.3" y1="221" x2="218.3" y2="376" stroke="#e5e7eb" stroke-width="0.5"/>
  <line x1="226.8" y1="221" x2="226.8" y2="376" stroke="#e5e7eb" stroke-width="0.5"/>
  <line x1="234.1" y1="221" x2="234.1" y2="376" stroke="#e5e7eb" stroke-width="0.5"/>
  <line x1="240.4" y1="221" x2="240.4" y2="376" stroke="#e5e7eb" stroke-width="0.5"/>
  <line x1="245.9" y1="221" x2="245.9" y2="376" stroke="#e5e7eb" stroke-width="0.5"/>
  <line x1="283.5" y1="221" x2="283.5" y2="376" stroke="#e5e7eb" stroke-width="0.5"/>
  <line x1="302.6" y1="221" x2="302.6" y2="376" stroke="#e5e7eb" stroke-width="0.5"/>
  <line x1="316.2" y1="221" x2="316.2" y2="376" stroke="#e5e7eb" stroke-width="0.5"/>
  <line x1="326.7" y1="221" x2="326.7" y2="376" stroke="#e5e7eb" stroke-width="0.5"/>
  <line x1="335.3" y1="221" x2="335.3" y2="376" stroke="#e5e7eb" stroke-width="0.5"/>
  <line x1="342.6" y1="221" x2="342.6" y2="376" stroke="#e5e7eb" stroke-width="0.5"/>
  <line x1="348.8" y1="221" x2="348.8" y2="376" stroke="#e5e7eb" stroke-width="0.5"/>
  <line x1="354.4" y1="221" x2="354.4" y2="376" stroke="#e5e7eb" stroke-width="0.5"/>
  <line x1="392.0" y1="221" x2="392.0" y2="376" stroke="#e5e7eb" stroke-width="0.5"/>
  <line x1="142.5" y1="221" x2="142.5" y2="376" stroke="#e5e7eb" stroke-width="0.5"/>
  <text x="142.5" y="388" text-anchor="middle" font-size="8" fill="#6b7280">100</text>
  <line x1="250.9" y1="221" x2="250.9" y2="376" stroke="#e5e7eb" stroke-width="0.5"/>
  <text x="250.9" y="388" text-anchor="middle" font-size="8" fill="#6b7280">1k</text>
  <line x1="359.4" y1="221" x2="359.4" y2="376" stroke="#e5e7eb" stroke-width="0.5"/>
  <text x="359.4" y="388" text-anchor="middle" font-size="8" fill="#6b7280">10k</text>
  <text x="30" y="249.8" text-anchor="end" font-size="8" fill="#6b7280">0</text>
  <line x1="34" y1="272.7" x2="392" y2="272.7" stroke="#e5e7eb" stroke-width="0.5"/>
  <text x="30" y="275.7" text-anchor="end" font-size="8" fill="#6b7280">-5</text>
  <line x1="34" y1="298.5" x2="392" y2="298.5" stroke="#e5e7eb" stroke-width="0.5"/>
  <text x="30" y="301.5" text-anchor="end" font-size="8" fill="#6b7280">-10</text>
  <line x1="34" y1="324.3" x2="392" y2="324.3" stroke="#e5e7eb" stroke-width="0.5"/>
  <text x="30" y="327.3" text-anchor="end" font-size="8" fill="#6b7280">-15</text>
  <line x1="34" y1="350.2" x2="392" y2="350.2" stroke="#e5e7eb" stroke-width="0.5"/>
  <text x="30" y="353.2" text-anchor="end" font-size="8" fill="#6b7280">-20</text>
  <line x1="250.9" y1="221" x2="250.9" y2="376" stroke="#d1d5db" stroke-width="1" stroke-dasharray="4 3"/>
  <line x1="442" y1="221" x2="442" y2="376" stroke="#d1d5db"/>
  <line x1="442" y1="298.5" x2="800" y2="298.5" stroke="#d1d5db"/>
  <text x="621" y="402" text-anchor="middle" font-size="9" fill="#6b7280">Samples</text>
  <text x="420" y="298.5" text-anchor="middle" font-size="9" fill="#6b7280" transform="rotate(-90 420 298.5)">Impulse</text>
  <line x1="442.0" y1="221" x2="442.0" y2="376" stroke="#e5e7eb" stroke-width="0.5"/>
  <text x="442.0" y="388" text-anchor="middle" font-size="8" fill="#6b7280">0</text>
  <line x1="531.5" y1="221" x2="531.5" y2="376" stroke="#e5e7eb" stroke-width="0.5"/>
  <text x="531.5" y="388" text-anchor="middle" font-size="8" fill="#6b7280">32</text>
  <line x1="621.0" y1="221" x2="621.0" y2="376" stroke="#e5e7eb" stroke-width="0.5"/>
  <text x="621.0" y="388" text-anchor="middle" font-size="8" fill="#6b7280">64</text>
  <line x1="710.5" y1="221" x2="710.5" y2="376" stroke="#e5e7eb" stroke-width="0.5"/>
  <text x="710.5" y="388" text-anchor="middle" font-size="8" fill="#6b7280">96</text>
  <line x1="800.0" y1="221" x2="800.0" y2="376" stroke="#e5e7eb" stroke-width="0.5"/>
  <text x="800.0" y="388" text-anchor="middle" font-size="8" fill="#6b7280">128</text>
  <line x1="442" y1="364.9" x2="800" y2="364.9" stroke="#e5e7eb" stroke-width="0.5"/>
  <text x="438" y="367.9" text-anchor="end" font-size="8" fill="#6b7280">-0.3</text>
  <text x="438" y="301.5" text-anchor="end" font-size="8" fill="#6b7280">0</text>
  <line x1="442" y1="232.1" x2="800" y2="232.1" stroke="#e5e7eb" stroke-width="0.5"/>
  <text x="438" y="235.1" text-anchor="end" font-size="8" fill="#6b7280">0.3</text>
  <defs><clipPath id="pc0"><rect x="34" y="16" width="358" height="155"/></clipPath></defs>
  <polyline points="37.5,47.0 70.1,47.0 89.2,47.0 102.8,47.0 113.3,47.0 121.9,47.0 129.1,47.0 135.4,47.0 141.0,47.0 145.9,47.0 150.4,47.0 154.5,47.0 158.3,47.0 161.8,47.0 165.0,47.0 168.1,47.0 170.9,47.0 173.6,47.0 176.2,47.0 178.6,47.0 180.9,47.0 183.1,47.0 185.2,47.0 187.2,47.0 189.1,47.0 190.9,47.0 192.7,47.0 194.4,47.0 196.1,47.0 197.7,47.0 199.2,47.0 200.7,47.0 202.2,47.0 203.6,47.0 204.9,47.0 206.3,47.0 207.6,47.0 208.8,47.0 210.0,47.0 211.2,47.0 212.4,47.0 213.5,47.0 214.6,47.0 215.7,47.0 216.8,47.0 217.8,47.0 218.8,47.0 219.8,47.0 220.8,47.0 221.7,47.0 222.7,47.1 223.6,47.1 224.5,47.1 225.4,47.1 226.2,47.1 227.1,47.1 227.9,47.1 228.7,47.2 229.5,47.2 231.1,47.2 232.6,47.3 234.1,47.4 235.5,47.5 236.9,47.6 238.2,47.7 239.6,47.9 240.8,48.1 242.1,48.4 243.3,48.6 244.5,48.9 245.6,49.3 246.7,49.7 247.8,50.1 248.9,50.6 249.9,51.1 251.0,51.7 252.0,52.3 252.9,52.9 253.9,53.6 254.8,54.3 255.8,55.0 256.7,55.8 257.6,56.5 258.4,57.3 259.3,58.1 260.1,58.9 261.0,59.7 261.8,60.5 263.0,61.7 264.1,62.9 265.3,64.1 266.4,65.2 267.5,66.4 268.5,67.6 269.6,68.7 270.6,69.8 271.6,70.9 272.5,72.0 273.5,73.1 274.4,74.2 275.3,75.2 276.2,76.2 277.1,77.2 278.0,78.2 278.8,79.2 279.6,80.1 280.5,81.1 281.3,82.0 282.3,83.2 283.4,84.4 284.4,85.6 285.3,86.7 286.3,87.8 287.3,88.9 288.2,90.0 289.1,91.1 290.0,92.1 290.9,93.1 291.7,94.1 292.6,95.1 293.4,96.1 294.2,97.0 295.0,98.0 296.0,99.1 297.0,100.2 297.9,101.3 298.8,102.4 299.7,103.5 300.6,104.5 301.5,105.6 302.4,106.6 303.2,107.6 304.0,108.5 304.9,109.5 305.8,110.6 306.7,111.8 307.7,112.8 308.6,113.9 309.5,115.0 310.3,116.0 311.2,117.0 312.0,118.0 312.8,119.0 313.7,120.0 314.6,121.1 315.5,122.2 316.4,123.3 317.3,124.3 318.1,125.4 319.0,126.4 319.8,127.4 320.6,128.4 321.4,129.4 322.3,130.5 323.2,131.6 324.1,132.6 324.9,133.7 325.7,134.7 326.6,135.8 327.4,136.8 328.3,137.9 329.1,139.0 330.0,140.1 330.8,141.1 331.7,142.2 332.5,143.2 333.3,144.2 334.2,145.4 335.0,146.5 335.9,147.6 336.7,148.6 337.5,149.7 338.4,150.9 339.2,152.0 340.1,153.1 340.9,154.2 341.7,155.3 342.5,156.4 343.4,157.6 344.2,158.8 345.1,159.9 345.9,161.0 346.7,162.2 347.6,163.4 348.4,164.6 349.2,165.7 350.0,166.9 350.9,168.2 351.7,169.4 352.6,170.6 353.4,171.9 354.2,173.2 355.1,174.5 355.9,175.7 356.7,177.0 357.6,178.4 358.4,179.7 359.2,181.0 360.0,182.4 360.9,183.8 361.7,185.2 362.5,186.6 363.3,188.1 364.2,189.6 365.0,191.1 365.8,192.6 366.6,194.1 367.4,195.7 368.3,197.3 369.1,199.0 369.9,200.7 370.7,202.4 371.5,204.1 372.4,206.0 373.2,207.8 374.0,209.7 374.8,211.7 375.6,213.8 376.4,215.9 377.2,218.1 378.1,220.4 378.9,222.7 379.7,225.2 380.5,227.8 381.3,230.5 382.1,233.3 383.0,236.3 383.8,239.5 384.6,242.8 385.4,246.5 386.2,250.4 387.0,254.6 387.9,259.2 388.7,264.3 389.5,269.8 390.3,276.1 391.1,283.2 391.9,291.7" fill="none" stroke="#4a90d9" stroke-width="1.3" stroke-linejoin="round" clip-path="url(#pc0)"/>
  <defs><clipPath id="pc1"><rect x="442" y="16" width="358" height="155"/></clipPath></defs>
  <polyline points="445.5,94.2 478.1,94.9 497.2,95.6 510.8,96.3 521.3,97.0 529.9,97.7 537.1,98.4 543.4,99.0 549.0,99.7 553.9,100.4 558.4,101.1 562.5,101.8 566.3,102.5 569.8,103.2 573.0,103.9 576.1,104.6 578.9,105.3 581.6,106.0 584.2,106.7 586.6,107.4 588.9,108.2 591.1,108.9 593.2,109.6 595.2,110.3 597.1,111.0 598.9,111.7 600.7,112.4 602.4,113.2 604.1,113.9 605.7,114.6 607.2,115.3 608.7,116.1 610.2,116.8 611.6,117.5 612.9,118.3 614.3,119.0 615.6,119.8 616.8,120.5 618.0,121.3 619.2,122.0 620.4,122.8 621.5,123.6 622.6,124.3 623.7,125.1 624.8,125.9 625.8,126.7 626.8,127.5 627.8,128.3 628.8,129.1 629.7,129.9 630.7,130.7 631.6,131.5 632.5,132.3 633.4,133.2 634.2,134.0 635.1,134.9 635.9,135.7 636.7,136.6 637.5,137.5 639.1,139.2 640.6,141.1 642.1,142.9 643.5,144.8 644.9,146.7 646.2,148.7 647.6,150.6 648.8,152.7 650.1,154.7 651.3,156.8 652.5,158.8 653.6,160.9 654.7,163.0 655.8,165.1 656.9,167.1 657.9,169.1 659.0,171.1 660.0,173.1 660.9,175.0 661.9,176.8 662.8,178.6 663.8,180.3 664.7,182.0 665.6,183.6 666.4,185.1 667.3,186.6 668.1,188.0 669.0,189.4 669.8,190.7 671.0,192.5 672.1,194.2 673.3,195.9 674.4,197.4 675.5,198.8 676.5,200.2 677.6,201.5 678.6,202.7 679.6,203.8 680.5,204.9 681.5,205.9 682.4,206.9 683.3,207.8 684.2,208.7 685.1,209.6 686.0,210.4 686.8,211.1 687.6,211.9 688.5,212.6 689.3,213.3 690.3,214.1 691.4,215.0 692.4,215.8 693.3,216.5 694.3,217.2 695.3,217.9 696.2,218.5 697.1,219.2 698.0,219.8 698.9,220.3 699.7,220.9 700.6,221.4 701.4,221.9 702.2,222.4 703.0,222.9 704.0,223.5 705.0,224.0 705.9,224.5 706.8,225.0 707.7,225.5 708.6,226.0 709.5,226.4 710.4,226.8 711.2,227.2 712.0,227.6 712.9,228.0 713.8,228.5 714.7,228.9 715.7,229.3 716.6,229.7 717.5,230.0 718.3,230.4 719.2,230.7 720.0,231.1 720.8,231.4 721.7,231.7 722.6,232.1 723.5,232.4 724.4,232.7 725.3,233.0 726.1,233.3 727.0,233.6 727.8,233.9 728.6,234.2 729.4,234.4 730.3,234.7 731.2,235.0 732.1,235.3 732.9,235.5 733.7,235.8 734.6,236.0 735.4,236.3 736.3,236.5 737.1,236.8 738.0,237.0 738.8,237.2 739.7,237.4 740.5,237.7 741.3,237.9 742.2,238.1 743.0,238.3 743.9,238.5 744.7,238.7 745.5,238.9 746.4,239.1 747.2,239.3 748.1,239.5 748.9,239.7 749.7,239.9 750.5,240.0 751.4,240.2 752.2,240.4 753.1,240.6 753.9,240.7 754.7,240.9 755.6,241.1 756.4,241.2 757.2,241.4 758.0,241.5 758.9,241.7 759.7,241.9 760.6,242.0 761.4,242.1 762.2,242.3 763.1,242.4 763.9,242.6 764.7,242.7 765.6,242.9 766.4,243.0 767.2,243.1 768.0,243.3 768.9,243.4 769.7,243.5 770.5,243.7 771.3,243.8 772.2,243.9 773.0,244.1 773.8,244.2 774.6,244.3 775.4,244.4 776.3,244.5 777.1,244.7 777.9,244.8 778.7,244.9 779.5,245.0 780.4,245.1 781.2,245.2 782.0,245.4 782.8,245.5 783.6,245.6 784.4,245.7 785.2,245.8 786.1,245.9 786.9,246.0 787.7,246.1 788.5,246.3 789.3,246.4 790.1,246.5 791.0,246.6 791.8,246.7 792.6,246.8 793.4,246.9 794.2,247.0 795.0,247.1 795.9,247.2 796.7,247.4 797.5,247.5 798.3,247.6 799.1,247.7 799.9,247.8" fill="none" stroke="#4a90d9" stroke-width="1.3" stroke-linejoin="round" clip-path="url(#pc1)"/>
  <defs><clipPath id="pc2"><rect x="34" y="221" width="358" height="155"/></clipPath></defs>
  <polyline points="37.5,246.8 70.1,246.8 89.2,246.8 102.8,246.8 113.3,246.8 121.9,246.8 129.1,246.8 135.4,246.8 141.0,246.8 145.9,246.8 150.4,246.8 154.5,246.8 158.3,246.8 161.8,246.8 165.0,246.8 168.1,246.8 170.9,246.8 173.6,246.8 176.2,246.8 178.6,246.8 180.9,246.8 183.1,246.8 185.2,246.8 187.2,246.8 189.1,246.8 190.9,246.9 192.7,246.9 194.4,246.9 196.1,246.9 197.7,246.9 199.2,246.9 200.7,246.9 202.2,246.9 203.6,247.0 204.9,247.0 206.3,247.0 207.6,247.1 208.8,247.1 210.0,247.2 211.2,247.2 212.4,247.3 213.5,247.4 214.6,247.5 215.7,247.6 216.8,247.7 217.8,247.9 218.8,248.0 219.8,248.2 220.8,248.5 221.7,248.7 222.7,249.0 223.6,249.3 224.5,249.6 225.4,250.0 226.2,250.5 227.1,250.9 227.9,251.5 228.7,252.0 229.5,252.7 231.1,254.2 232.6,256.0 234.1,258.1 235.5,260.5 236.9,263.3 238.2,266.6 239.6,270.2 240.8,274.3 242.1,278.7 243.3,283.5 244.5,288.5 245.6,293.8 246.7,299.2 247.8,304.6 248.9,309.9 249.9,315.0 251.0,319.9 252.0,324.4 252.9,328.6 253.9,332.3 254.8,335.5 255.8,338.3 256.7,340.7 257.6,342.6 258.4,344.1 259.3,345.3 260.1,346.1 261.0,346.7 261.8,346.9 263.0,347.0 264.1,346.6 265.3,345.9 266.4,345.0 267.5,343.8 268.5,342.6 269.6,341.3 270.6,339.9 271.6,338.5 272.5,337.0 273.5,335.6 274.4,334.1 275.3,332.7 276.2,331.3 277.1,329.9 278.0,328.6 278.8,327.2 279.6,326.0 280.5,324.7 281.3,323.5 282.3,321.9 283.4,320.4 284.4,318.9 285.3,317.5 286.3,316.1 287.3,314.8 288.2,313.5 289.1,312.3 290.0,311.1 290.9,310.0 291.7,308.9 292.6,307.9 293.4,306.9 294.2,305.9 295.0,304.9 296.0,303.8 297.0,302.7 297.9,301.6 298.8,300.6 299.7,299.7 300.6,298.7 301.5,297.8 302.4,297.0 303.2,296.1 304.0,295.3 304.9,294.5 305.8,293.7 306.7,292.8 307.7,292.0 308.6,291.2 309.5,290.4 310.3,289.7 311.2,289.0 312.0,288.3 312.8,287.7 313.7,287.0 314.6,286.3 315.5,285.7 316.4,285.0 317.3,284.4 318.1,283.8 319.0,283.2 319.8,282.6 320.6,282.1 321.4,281.6 322.3,281.0 323.2,280.5 324.1,280.0 324.9,279.5 325.7,279.0 326.6,278.5 327.4,278.1 328.3,277.6 329.1,277.1 330.0,276.7 330.8,276.3 331.7,275.9 332.5,275.5 333.3,275.1 334.2,274.7 335.0,274.3 335.9,274.0 336.7,273.6 337.5,273.3 338.4,273.0 339.2,272.6 340.1,272.3 340.9,272.0 341.7,271.7 342.5,271.4 343.4,271.2 344.2,270.9 345.1,270.6 345.9,270.4 346.7,270.2 347.6,269.9 348.4,269.7 349.2,269.5 350.0,269.3 350.9,269.1 351.7,268.9 352.6,268.7 353.4,268.6 354.2,268.4 355.1,268.3 355.9,268.1 356.7,268.0 357.6,267.9 358.4,267.8 359.2,267.7 360.0,267.7 360.9,267.6 361.7,267.6 362.5,267.5 363.3,267.5 364.2,267.5 365.0,267.5 365.8,267.5 366.6,267.6 367.4,267.7 368.3,267.7 369.1,267.8 369.9,268.0 370.7,268.1 371.5,268.3 372.4,268.5 373.2,268.7 374.0,269.0 374.8,269.3 375.6,269.7 376.4,270.1 377.2,270.5 378.1,271.1 378.9,271.6 379.7,272.3 380.5,273.0 381.3,273.9 382.1,274.8 383.0,275.9 383.8,277.2 384.6,278.6 385.4,280.4 386.2,282.3 387.0,284.7 387.9,287.6 388.7,291.1 389.5,295.3 390.3,300.8 391.1,307.9 391.9,317.7" fill="none" stroke="#4a90d9" stroke-width="1.3" stroke-linejoin="round" clip-path="url(#pc2)"/>
  <defs><linearGradient id="g3" x1="0" y1="221" x2="0" y2="298.5" gradientUnits="userSpaceOnUse">
    <stop offset="0%" stop-color="#4a90d9" stop-opacity="0.15"/>
    <stop offset="100%" stop-color="#4a90d9" stop-opacity="0.02"/>
  </linearGradient></defs>
  <defs><linearGradient id="g4" x1="0" y1="376" x2="0" y2="298.5" gradientUnits="userSpaceOnUse">
    <stop offset="0%" stop-color="#4a90d9" stop-opacity="0.15"/>
    <stop offset="100%" stop-color="#4a90d9" stop-opacity="0.02"/>
  </linearGradient></defs>
  <defs><clipPath id="c5"><rect x="442" y="221" width="358" height="77.5"/></clipPath></defs>
  <defs><clipPath id="c6"><rect x="442" y="298.5" width="358" height="77.5"/></clipPath></defs>
  <path d="M442.0,298.5 442.0,298.5 444.8,298.5 447.6,298.4 450.4,298.2 453.2,297.8 456.0,297.3 458.8,296.7 461.6,295.9 464.4,295.0 467.2,294.1 470.0,293.1 472.8,292.0 475.6,291.1 478.4,290.1 481.2,289.2 484.0,288.5 486.8,287.8 489.5,287.3 492.3,286.9 495.1,286.6 497.9,286.5 500.7,286.5 503.5,286.7 506.3,287.0 509.1,287.4 511.9,287.9 514.7,288.5 517.5,289.2 520.3,289.9 523.1,290.7 525.9,291.6 528.7,292.4 531.5,293.3 534.3,294.1 537.1,294.9 539.9,295.7 542.7,296.4 545.5,297.1 548.3,297.8 551.1,298.4 553.9,298.9 556.7,299.3 559.5,299.7 562.3,300.0 565.1,300.3 567.9,300.4 570.7,300.6 573.5,300.6 576.3,300.7 579.0,300.6 581.8,300.6 584.6,300.5 587.4,300.3 590.2,300.2 593.0,300.0 595.8,299.8 598.6,299.7 601.4,299.5 604.2,299.3 607.0,299.1 609.8,298.9 612.6,298.8 615.4,298.6 618.2,298.5 621.0,298.3 623.8,298.2 626.6,298.1 629.4,298.1 632.2,298.0 635.0,298.0 637.8,297.9 640.6,297.9 643.4,297.9 646.2,297.9 649.0,297.9 651.8,298.0 654.6,298.0 657.4,298.1 660.2,298.1 663.0,298.1 665.8,298.2 668.5,298.2 671.3,298.3 674.1,298.3 676.9,298.4 679.7,298.4 682.5,298.5 685.3,298.5 688.1,298.6 690.9,298.6 693.7,298.6 696.5,298.6 699.3,298.6 702.1,298.7 704.9,298.7 707.7,298.7 710.5,298.7 713.3,298.7 716.1,298.7 718.9,298.6 721.7,298.6 724.5,298.6 727.3,298.6 730.1,298.6 732.9,298.6 735.7,298.6 738.5,298.6 741.3,298.5 744.1,298.5 746.9,298.5 749.7,298.5 752.5,298.5 755.3,298.5 758.0,298.5 760.8,298.5 763.6,298.5 766.4,298.5 769.2,298.5 772.0,298.5 774.8,298.5 777.6,298.5 780.4,298.5 783.2,298.5 786.0,298.5 788.8,298.5 791.6,298.5 794.4,298.5 797.2,298.5 L797.2,298.5 L442.0,298.5 Z" fill="url(#g3)" clip-path="url(#c5)"/>
  <path d="M442.0,298.5 442.0,298.5 444.8,298.5 447.6,298.4 450.4,298.2 453.2,297.8 456.0,297.3 458.8,296.7 461.6,295.9 464.4,295.0 467.2,294.1 470.0,293.1 472.8,292.0 475.6,291.1 478.4,290.1 481.2,289.2 484.0,288.5 486.8,287.8 489.5,287.3 492.3,286.9 495.1,286.6 497.9,286.5 500.7,286.5 503.5,286.7 506.3,287.0 509.1,287.4 511.9,287.9 514.7,288.5 517.5,289.2 520.3,289.9 523.1,290.7 525.9,291.6 528.7,292.4 531.5,293.3 534.3,294.1 537.1,294.9 539.9,295.7 542.7,296.4 545.5,297.1 548.3,297.8 551.1,298.4 553.9,298.9 556.7,299.3 559.5,299.7 562.3,300.0 565.1,300.3 567.9,300.4 570.7,300.6 573.5,300.6 576.3,300.7 579.0,300.6 581.8,300.6 584.6,300.5 587.4,300.3 590.2,300.2 593.0,300.0 595.8,299.8 598.6,299.7 601.4,299.5 604.2,299.3 607.0,299.1 609.8,298.9 612.6,298.8 615.4,298.6 618.2,298.5 621.0,298.3 623.8,298.2 626.6,298.1 629.4,298.1 632.2,298.0 635.0,298.0 637.8,297.9 640.6,297.9 643.4,297.9 646.2,297.9 649.0,297.9 651.8,298.0 654.6,298.0 657.4,298.1 660.2,298.1 663.0,298.1 665.8,298.2 668.5,298.2 671.3,298.3 674.1,298.3 676.9,298.4 679.7,298.4 682.5,298.5 685.3,298.5 688.1,298.6 690.9,298.6 693.7,298.6 696.5,298.6 699.3,298.6 702.1,298.7 704.9,298.7 707.7,298.7 710.5,298.7 713.3,298.7 716.1,298.7 718.9,298.6 721.7,298.6 724.5,298.6 727.3,298.6 730.1,298.6 732.9,298.6 735.7,298.6 738.5,298.6 741.3,298.5 744.1,298.5 746.9,298.5 749.7,298.5 752.5,298.5 755.3,298.5 758.0,298.5 760.8,298.5 763.6,298.5 766.4,298.5 769.2,298.5 772.0,298.5 774.8,298.5 777.6,298.5 780.4,298.5 783.2,298.5 786.0,298.5 788.8,298.5 791.6,298.5 794.4,298.5 797.2,298.5 L797.2,298.5 L442.0,298.5 Z" fill="url(#g4)" clip-path="url(#c6)"/>
  <defs><clipPath id="pc7"><rect x="442" y="221" width="358" height="155"/></clipPath></defs>
  <polyline points="442.0,298.5 444.8,298.5 447.6,298.4 450.4,298.2 453.2,297.8 456.0,297.3 458.8,296.7 461.6,295.9 464.4,295.0 467.2,294.1 470.0,293.1 472.8,292.0 475.6,291.1 478.4,290.1 481.2,289.2 484.0,288.5 486.8,287.8 489.5,287.3 492.3,286.9 495.1,286.6 497.9,286.5 500.7,286.5 503.5,286.7 506.3,287.0 509.1,287.4 511.9,287.9 514.7,288.5 517.5,289.2 520.3,289.9 523.1,290.7 525.9,291.6 528.7,292.4 531.5,293.3 534.3,294.1 537.1,294.9 539.9,295.7 542.7,296.4 545.5,297.1 548.3,297.8 551.1,298.4 553.9,298.9 556.7,299.3 559.5,299.7 562.3,300.0 565.1,300.3 567.9,300.4 570.7,300.6 573.5,300.6 576.3,300.7 579.0,300.6 581.8,300.6 584.6,300.5 587.4,300.3 590.2,300.2 593.0,300.0 595.8,299.8 598.6,299.7 601.4,299.5 604.2,299.3 607.0,299.1 609.8,298.9 612.6,298.8 615.4,298.6 618.2,298.5 621.0,298.3 623.8,298.2 626.6,298.1 629.4,298.1 632.2,298.0 635.0,298.0 637.8,297.9 640.6,297.9 643.4,297.9 646.2,297.9 649.0,297.9 651.8,298.0 654.6,298.0 657.4,298.1 660.2,298.1 663.0,298.1 665.8,298.2 668.5,298.2 671.3,298.3 674.1,298.3 676.9,298.4 679.7,298.4 682.5,298.5 685.3,298.5 688.1,298.6 690.9,298.6 693.7,298.6 696.5,298.6 699.3,298.6 702.1,298.7 704.9,298.7 707.7,298.7 710.5,298.7 713.3,298.7 716.1,298.7 718.9,298.6 721.7,298.6 724.5,298.6 727.3,298.6 730.1,298.6 732.9,298.6 735.7,298.6 738.5,298.6 741.3,298.5 744.1,298.5 746.9,298.5 749.7,298.5 752.5,298.5 755.3,298.5 758.0,298.5 760.8,298.5 763.6,298.5 766.4,298.5 769.2,298.5 772.0,298.5 774.8,298.5 777.6,298.5 780.4,298.5 783.2,298.5 786.0,298.5 788.8,298.5 791.6,298.5 794.4,298.5 797.2,298.5" fill="none" stroke="#4a90d9" stroke-width="1.3" stroke-linejoin="round" clip-path="url(#pc7)"/>
  <defs><clipPath id="pc8"><rect x="34" y="16" width="358" height="155"/></clipPath></defs>
  <polyline points="37.5,48.5 70.1,48.5 89.2,48.5 102.8,48.5 113.3,48.5 121.9,48.5 129.1,48.4 135.4,48.4 141.0,48.3 145.9,48.3 150.4,48.3 154.5,48.2 158.3,48.1 161.8,48.1 165.0,48.0 168.1,48.0 170.9,47.9 173.6,47.8 176.2,47.8 178.6,47.7 180.9,47.6 183.1,47.6 185.2,47.5 187.2,47.4 189.1,47.4 190.9,47.3 192.7,47.3 194.4,47.2 196.1,47.2 197.7,47.1 199.2,47.1 200.7,47.0 202.2,47.0 203.6,47.0 204.9,47.0 206.3,47.0 207.6,47.0 208.8,47.0 210.0,47.0 211.2,47.1 212.4,47.1 213.5,47.2 214.6,47.2 215.7,47.3 216.8,47.3 217.8,47.4 218.8,47.5 219.8,47.5 220.8,47.6 221.7,47.7 222.7,47.8 223.6,47.8 224.5,47.9 225.4,48.0 226.2,48.1 227.1,48.2 227.9,48.2 228.7,48.3 229.5,48.3 231.1,48.4 232.6,48.5 234.1,48.5 235.5,48.5 236.9,48.5 238.2,48.4 239.6,48.3 240.8,48.1 242.1,47.9 243.3,47.6 244.5,47.4 245.6,47.1 246.7,47.0 247.8,47.0 248.9,47.3 249.9,47.8 251.0,48.6 252.0,49.7 252.9,51.1 253.9,52.6 254.8,54.3 255.8,55.9 256.7,57.6 257.6,59.3 258.4,61.0 259.3,62.6 260.1,64.1 261.0,65.6 261.8,67.1 263.0,69.2 264.1,71.2 265.3,73.1 266.4,74.9 267.5,76.6 268.5,78.3 269.6,79.9 270.6,81.5 271.6,83.0 272.5,84.4 273.5,85.8 274.4,87.2 275.3,88.5 276.2,89.8 277.1,91.0 278.0,92.2 278.8,93.4 279.6,94.5 280.5,95.7 281.3,96.8 282.3,98.2 283.4,99.6 284.4,100.9 285.3,102.2 286.3,103.5 287.3,104.7 288.2,105.9 289.1,107.1 290.0,108.3 290.9,109.4 291.7,110.5 292.6,111.6 293.4,112.6 294.2,113.7 295.0,114.7 296.0,115.9 297.0,117.2 297.9,118.4 298.8,119.5 299.7,120.7 300.6,121.8 301.5,122.9 302.4,123.9 303.2,125.0 304.0,126.0 304.9,127.0 305.8,128.2 306.7,129.4 307.7,130.5 308.6,131.7 309.5,132.8 310.3,133.8 311.2,134.9 312.0,135.9 312.8,137.0 313.7,138.0 314.6,139.1 315.5,140.3 316.4,141.4 317.3,142.5 318.1,143.5 319.0,144.6 319.8,145.6 320.6,146.6 321.4,147.6 322.3,148.8 323.2,149.9 324.1,151.0 324.9,152.0 325.7,153.1 326.6,154.1 327.4,155.2 328.3,156.3 329.1,157.4 330.0,158.5 330.8,159.6 331.7,160.7 332.5,161.7 333.3,162.8 334.2,163.9 335.0,165.0 335.9,166.1 336.7,167.2 337.5,168.3 338.4,169.5 339.2,170.6 340.1,171.8 340.9,172.9 341.7,174.0 342.5,175.1 343.4,176.3 344.2,177.4 345.1,178.6 345.9,179.7 346.7,180.9 347.6,182.1 348.4,183.3 349.2,184.5 350.0,185.7 350.9,186.9 351.7,188.2 352.6,189.4 353.4,190.6 354.2,191.9 355.1,193.2 355.9,194.5 356.7,195.8 357.6,197.2 358.4,198.5 359.2,199.9 360.0,201.2 360.9,202.6 361.7,204.0 362.5,205.4 363.3,206.9 364.2,208.4 365.0,209.9 365.8,211.4 366.6,213.0 367.4,214.6 368.3,216.1 369.1,217.8 369.9,219.5 370.7,221.2 371.5,223.0 372.4,224.8 373.2,226.7 374.0,228.6 374.8,230.6 375.6,232.7 376.4,234.8 377.2,236.9 378.1,239.2 378.9,241.6 379.7,244.1 380.5,246.7 381.3,249.3 382.1,252.2 383.0,255.2 383.8,258.4 384.6,261.7 385.4,265.4 386.2,269.3 387.0,273.5 387.9,278.1 388.7,283.1 389.5,288.7 390.3,295.0 391.1,302.1 391.9,310.6" fill="none" stroke="#e74c3c" stroke-width="1.3" stroke-linejoin="round" clip-path="url(#pc8)"/>
  <defs><clipPath id="pc9"><rect x="442" y="16" width="358" height="155"/></clipPath></defs>
  <polyline points="445.5,94.2 478.1,94.9 497.2,95.6 510.8,96.4 521.3,97.1 529.9,97.8 537.1,98.5 543.4,99.3 549.0,100.0 553.9,100.8 558.4,101.5 562.5,102.3 566.3,103.1 569.8,103.9 573.0,104.6 576.1,105.4 578.9,106.3 581.6,107.1 584.2,107.9 586.6,108.8 588.9,109.6 591.1,110.5 593.2,111.4 595.2,112.3 597.1,113.2 598.9,114.2 600.7,115.1 602.4,116.1 604.1,117.0 605.7,118.0 607.2,119.0 608.7,120.0 610.2,121.0 611.6,122.0 612.9,123.0 614.3,124.0 615.6,125.1 616.8,126.1 618.0,127.1 619.2,128.1 620.4,129.2 621.5,130.2 622.6,131.2 623.7,132.2 624.8,133.2 625.8,134.2 626.8,135.2 627.8,136.2 628.8,137.2 629.7,138.1 630.7,139.1 631.6,140.0 632.5,141.0 633.4,141.9 634.2,142.8 635.1,143.7 635.9,144.6 636.7,145.5 637.5,146.4 639.1,148.2 640.6,150.0 642.1,151.8 643.5,153.6 644.9,155.5 646.2,157.4 647.6,159.5 648.8,161.6 650.1,164.0 651.3,166.6 652.5,169.4 653.6,172.6 654.7,176.1 655.8,179.9 656.9,184.0 657.9,188.3 659.0,192.7 660.0,196.8 660.9,200.6 661.9,204.1 662.8,207.1 663.8,209.8 664.7,212.1 665.6,214.2 666.4,216.0 667.3,217.5 668.1,218.9 669.0,220.2 669.8,221.3 671.0,222.8 672.1,224.1 673.3,225.2 674.4,226.2 675.5,227.1 676.5,227.9 677.6,228.7 678.6,229.4 679.6,230.0 680.5,230.6 681.5,231.1 682.4,231.6 683.3,232.1 684.2,232.5 685.1,232.9 686.0,233.3 686.8,233.7 687.6,234.0 688.5,234.3 689.3,234.7 690.3,235.1 691.4,235.4 692.4,235.8 693.3,236.1 694.3,236.4 695.3,236.7 696.2,237.0 697.1,237.3 698.0,237.5 698.9,237.7 699.7,238.0 700.6,238.2 701.4,238.4 702.2,238.6 703.0,238.8 704.0,239.0 705.0,239.3 705.9,239.5 706.8,239.7 707.7,239.9 708.6,240.0 709.5,240.2 710.4,240.4 711.2,240.5 712.0,240.7 712.9,240.8 713.8,241.0 714.7,241.2 715.7,241.3 716.6,241.5 717.5,241.6 718.3,241.8 719.2,241.9 720.0,242.0 720.8,242.2 721.7,242.3 722.6,242.4 723.5,242.5 724.4,242.7 725.3,242.8 726.1,242.9 727.0,243.0 727.8,243.1 728.6,243.2 729.4,243.3 730.3,243.4 731.2,243.5 732.1,243.6 732.9,243.7 733.7,243.8 734.6,243.9 735.4,244.0 736.3,244.1 737.1,244.2 738.0,244.3 738.8,244.4 739.7,244.4 740.5,244.5 741.3,244.6 742.2,244.7 743.0,244.8 743.9,244.8 744.7,244.9 745.5,245.0 746.4,245.1 747.2,245.1 748.1,245.2 748.9,245.3 749.7,245.3 750.5,245.4 751.4,245.5 752.2,245.5 753.1,245.6 753.9,245.7 754.7,245.7 755.6,245.8 756.4,245.8 757.2,245.9 758.0,246.0 758.9,246.0 759.7,246.1 760.6,246.1 761.4,246.2 762.2,246.2 763.1,246.3 763.9,246.3 764.7,246.4 765.6,246.4 766.4,246.5 767.2,246.5 768.0,246.6 768.9,246.6 769.7,246.7 770.5,246.7 771.3,246.8 772.2,246.8 773.0,246.9 773.8,246.9 774.6,247.0 775.4,247.0 776.3,247.1 777.1,247.1 777.9,247.1 778.7,247.2 779.5,247.2 780.4,247.3 781.2,247.3 782.0,247.4 782.8,247.4 783.6,247.4 784.4,247.5 785.2,247.5 786.1,247.6 786.9,247.6 787.7,247.6 788.5,247.7 789.3,247.7 790.1,247.8 791.0,247.8 791.8,247.8 792.6,247.9 793.4,247.9 794.2,248.0 795.0,248.0 795.9,248.0 796.7,248.1 797.5,248.1 798.3,248.2 799.1,248.2 799.9,248.2" fill="none" stroke="#e74c3c" stroke-width="1.3" stroke-linejoin="round" clip-path="url(#pc9)"/>
  <defs><clipPath id="pc10"><rect x="34" y="221" width="358" height="155"/></clipPath></defs>
  <polyline points="37.5,245.6 70.1,244.3 89.2,243.0 102.8,241.8 113.3,240.6 121.9,239.4 129.1,238.2 135.4,237.1 141.0,236.0 145.9,235.0 150.4,234.1 154.5,233.2 158.3,232.4 161.8,231.7 165.0,231.1 168.1,230.6 170.9,230.2 173.6,229.9 176.2,229.8 178.6,229.7 180.9,229.8 183.1,230.1 185.2,230.5 187.2,231.0 189.1,231.7 190.9,232.5 192.7,233.5 194.4,234.6 196.1,235.9 197.7,237.2 199.2,238.7 200.7,240.4 202.2,242.1 203.6,243.9 204.9,245.7 206.3,247.6 207.6,249.5 208.8,251.4 210.0,253.3 211.2,255.1 212.4,256.9 213.5,258.6 214.6,260.1 215.7,261.6 216.8,262.8 217.8,264.0 218.8,264.9 219.8,265.7 220.8,266.3 221.7,266.6 222.7,266.8 223.6,266.8 224.5,266.6 225.4,266.1 226.2,265.5 227.1,264.6 227.9,263.6 228.7,262.3 229.5,260.9 231.1,257.5 232.6,253.4 234.1,248.7 235.5,243.5 236.9,237.9 238.2,232.1 239.6,226.4 240.8,221.2 242.1,217.2 243.3,215.4 244.5,217.1 245.6,224.1 246.7,238.4 247.8,261.4 248.9,292.9 249.9,330.4 251.0,368.8 252.0,402.9 252.9,429.0 253.9,446.3 254.8,455.7 255.8,459.1 256.7,458.3 257.6,455.0 258.4,450.0 259.3,444.3 260.1,438.2 261.0,432.0 261.8,426.0 263.0,417.4 264.1,409.4 265.3,402.1 266.4,395.3 267.5,389.2 268.5,383.6 269.6,378.5 270.6,373.7 271.6,369.4 272.5,365.4 273.5,361.6 274.4,358.2 275.3,354.9 276.2,351.9 277.1,349.0 278.0,346.4 278.8,343.9 279.6,341.5 280.5,339.3 281.3,337.1 282.3,334.5 283.4,332.0 284.4,329.7 285.3,327.5 286.3,325.4 287.3,323.5 288.2,321.6 289.1,319.9 290.0,318.3 290.9,316.7 291.7,315.2 292.6,313.8 293.4,312.4 294.2,311.1 295.0,309.9 296.0,308.4 297.0,307.0 297.9,305.7 298.8,304.4 299.7,303.2 300.6,302.1 301.5,301.0 302.4,300.0 303.2,299.0 304.0,298.0 304.9,297.1 305.8,296.0 306.7,295.0 307.7,294.1 308.6,293.2 309.5,292.3 310.3,291.4 311.2,290.6 312.0,289.9 312.8,289.1 313.7,288.4 314.6,287.7 315.5,286.9 316.4,286.2 317.3,285.5 318.1,284.8 319.0,284.2 319.8,283.6 320.6,283.0 321.4,282.4 322.3,281.8 323.2,281.2 324.1,280.7 324.9,280.1 325.7,279.6 326.6,279.1 327.4,278.7 328.3,278.1 329.1,277.7 330.0,277.2 330.8,276.7 331.7,276.3 332.5,275.9 333.3,275.5 334.2,275.1 335.0,274.7 335.9,274.3 336.7,273.9 337.5,273.6 338.4,273.2 339.2,272.9 340.1,272.6 340.9,272.2 341.7,271.9 342.5,271.7 343.4,271.4 344.2,271.1 345.1,270.8 345.9,270.6 346.7,270.3 347.6,270.1 348.4,269.8 349.2,269.6 350.0,269.4 350.9,269.2 351.7,269.0 352.6,268.8 353.4,268.7 354.2,268.5 355.1,268.4 355.9,268.2 356.7,268.1 357.6,268.0 358.4,267.9 359.2,267.8 360.0,267.7 360.9,267.7 361.7,267.6 362.5,267.6 363.3,267.6 364.2,267.6 365.0,267.6 365.8,267.6 366.6,267.6 367.4,267.7 368.3,267.8 369.1,267.9 369.9,268.0 370.7,268.2 371.5,268.3 372.4,268.5 373.2,268.8 374.0,269.1 374.8,269.4 375.6,269.7 376.4,270.1 377.2,270.6 378.1,271.1 378.9,271.7 379.7,272.3 380.5,273.1 381.3,273.9 382.1,274.9 383.0,275.9 383.8,277.2 384.6,278.7 385.4,280.4 386.2,282.3 387.0,284.7 387.9,287.6 388.7,291.1 389.5,295.3 390.3,300.8 391.1,307.9 391.9,317.7" fill="none" stroke="#e74c3c" stroke-width="1.3" stroke-linejoin="round" clip-path="url(#pc10)"/>
  <defs><linearGradient id="g11" x1="0" y1="221" x2="0" y2="298.5" gradientUnits="userSpaceOnUse">
    <stop offset="0%" stop-color="#e74c3c" stop-opacity="0.15"/>
    <stop offset="100%" stop-color="#e74c3c" stop-opacity="0.02"/>
  </linearGradient></defs>
  <defs><linearGradient id="g12" x1="0" y1="376" x2="0" y2="298.5" gradientUnits="userSpaceOnUse">
    <stop offset="0%" stop-color="#e74c3c" stop-opacity="0.15"/>
    <stop offset="100%" stop-color="#e74c3c" stop-opacity="0.02"/>
  </linearGradient></defs>
  <defs><clipPath id="c13"><rect x="442" y="221" width="358" height="77.5"/></clipPath></defs>
  <defs><clipPath id="c14"><rect x="442" y="298.5" width="358" height="77.5"/></clipPath></defs>
  <path d="M442.0,298.5 442.0,298.5 444.8,298.5 447.6,298.5 450.4,298.4 453.2,298.3 456.0,298.1 458.8,297.8 461.6,297.5 464.4,297.1 467.2,296.7 470.0,296.1 472.8,295.5 475.6,294.9 478.4,294.2 481.2,293.5 484.0,292.7 486.8,292.0 489.5,291.3 492.3,290.6 495.1,290.0 497.9,289.4 500.7,288.9 503.5,288.4 506.3,288.1 509.1,287.8 511.9,287.7 514.7,287.6 517.5,287.7 520.3,287.9 523.1,288.1 525.9,288.5 528.7,289.0 531.5,289.5 534.3,290.1 537.1,290.8 539.9,291.6 542.7,292.4 545.5,293.2 548.3,294.0 551.1,294.9 553.9,295.7 556.7,296.5 559.5,297.3 562.3,298.1 565.1,298.8 567.9,299.4 570.7,300.0 573.5,300.5 576.3,300.9 579.0,301.3 581.8,301.6 584.6,301.8 587.4,301.9 590.2,301.9 593.0,301.9 595.8,301.8 598.6,301.7 601.4,301.5 604.2,301.2 607.0,300.9 609.8,300.6 612.6,300.3 615.4,299.9 618.2,299.5 621.0,299.2 623.8,298.8 626.6,298.5 629.4,298.2 632.2,297.9 635.0,297.7 637.8,297.5 640.6,297.3 643.4,297.2 646.2,297.1 649.0,297.0 651.8,297.0 654.6,297.1 657.4,297.1 660.2,297.2 663.0,297.4 665.8,297.5 668.5,297.7 671.3,297.9 674.1,298.1 676.9,298.3 679.7,298.5 682.5,298.7 685.3,298.9 688.1,299.1 690.9,299.3 693.7,299.5 696.5,299.6 699.3,299.7 702.1,299.8 704.9,299.9 707.7,299.9 710.5,299.9 713.3,299.9 716.1,299.9 718.9,299.8 721.7,299.7 724.5,299.6 727.3,299.5 730.1,299.4 732.9,299.2 735.7,299.1 738.5,298.9 741.3,298.8 744.1,298.6 746.9,298.4 749.7,298.3 752.5,298.1 755.3,298.0 758.0,297.9 760.8,297.8 763.6,297.7 766.4,297.7 769.2,297.6 772.0,297.6 774.8,297.6 777.6,297.6 780.4,297.6 783.2,297.7 786.0,297.7 788.8,297.8 791.6,297.9 794.4,297.9 797.2,298.0 L797.2,298.5 L442.0,298.5 Z" fill="url(#g11)" clip-path="url(#c13)"/>
  <path d="M442.0,298.5 442.0,298.5 444.8,298.5 447.6,298.5 450.4,298.4 453.2,298.3 456.0,298.1 458.8,297.8 461.6,297.5 464.4,297.1 467.2,296.7 470.0,296.1 472.8,295.5 475.6,294.9 478.4,294.2 481.2,293.5 484.0,292.7 486.8,292.0 489.5,291.3 492.3,290.6 495.1,290.0 497.9,289.4 500.7,288.9 503.5,288.4 506.3,288.1 509.1,287.8 511.9,287.7 514.7,287.6 517.5,287.7 520.3,287.9 523.1,288.1 525.9,288.5 528.7,289.0 531.5,289.5 534.3,290.1 537.1,290.8 539.9,291.6 542.7,292.4 545.5,293.2 548.3,294.0 551.1,294.9 553.9,295.7 556.7,296.5 559.5,297.3 562.3,298.1 565.1,298.8 567.9,299.4 570.7,300.0 573.5,300.5 576.3,300.9 579.0,301.3 581.8,301.6 584.6,301.8 587.4,301.9 590.2,301.9 593.0,301.9 595.8,301.8 598.6,301.7 601.4,301.5 604.2,301.2 607.0,300.9 609.8,300.6 612.6,300.3 615.4,299.9 618.2,299.5 621.0,299.2 623.8,298.8 626.6,298.5 629.4,298.2 632.2,297.9 635.0,297.7 637.8,297.5 640.6,297.3 643.4,297.2 646.2,297.1 649.0,297.0 651.8,297.0 654.6,297.1 657.4,297.1 660.2,297.2 663.0,297.4 665.8,297.5 668.5,297.7 671.3,297.9 674.1,298.1 676.9,298.3 679.7,298.5 682.5,298.7 685.3,298.9 688.1,299.1 690.9,299.3 693.7,299.5 696.5,299.6 699.3,299.7 702.1,299.8 704.9,299.9 707.7,299.9 710.5,299.9 713.3,299.9 716.1,299.9 718.9,299.8 721.7,299.7 724.5,299.6 727.3,299.5 730.1,299.4 732.9,299.2 735.7,299.1 738.5,298.9 741.3,298.8 744.1,298.6 746.9,298.4 749.7,298.3 752.5,298.1 755.3,298.0 758.0,297.9 760.8,297.8 763.6,297.7 766.4,297.7 769.2,297.6 772.0,297.6 774.8,297.6 777.6,297.6 780.4,297.6 783.2,297.7 786.0,297.7 788.8,297.8 791.6,297.9 794.4,297.9 797.2,298.0 L797.2,298.5 L442.0,298.5 Z" fill="url(#g12)" clip-path="url(#c14)"/>
  <defs><clipPath id="pc15"><rect x="442" y="221" width="358" height="155"/></clipPath></defs>
  <polyline points="442.0,298.5 444.8,298.5 447.6,298.5 450.4,298.4 453.2,298.3 456.0,298.1 458.8,297.8 461.6,297.5 464.4,297.1 467.2,296.7 470.0,296.1 472.8,295.5 475.6,294.9 478.4,294.2 481.2,293.5 484.0,292.7 486.8,292.0 489.5,291.3 492.3,290.6 495.1,290.0 497.9,289.4 500.7,288.9 503.5,288.4 506.3,288.1 509.1,287.8 511.9,287.7 514.7,287.6 517.5,287.7 520.3,287.9 523.1,288.1 525.9,288.5 528.7,289.0 531.5,289.5 534.3,290.1 537.1,290.8 539.9,291.6 542.7,292.4 545.5,293.2 548.3,294.0 551.1,294.9 553.9,295.7 556.7,296.5 559.5,297.3 562.3,298.1 565.1,298.8 567.9,299.4 570.7,300.0 573.5,300.5 576.3,300.9 579.0,301.3 581.8,301.6 584.6,301.8 587.4,301.9 590.2,301.9 593.0,301.9 595.8,301.8 598.6,301.7 601.4,301.5 604.2,301.2 607.0,300.9 609.8,300.6 612.6,300.3 615.4,299.9 618.2,299.5 621.0,299.2 623.8,298.8 626.6,298.5 629.4,298.2 632.2,297.9 635.0,297.7 637.8,297.5 640.6,297.3 643.4,297.2 646.2,297.1 649.0,297.0 651.8,297.0 654.6,297.1 657.4,297.1 660.2,297.2 663.0,297.4 665.8,297.5 668.5,297.7 671.3,297.9 674.1,298.1 676.9,298.3 679.7,298.5 682.5,298.7 685.3,298.9 688.1,299.1 690.9,299.3 693.7,299.5 696.5,299.6 699.3,299.7 702.1,299.8 704.9,299.9 707.7,299.9 710.5,299.9 713.3,299.9 716.1,299.9 718.9,299.8 721.7,299.7 724.5,299.6 727.3,299.5 730.1,299.4 732.9,299.2 735.7,299.1 738.5,298.9 741.3,298.8 744.1,298.6 746.9,298.4 749.7,298.3 752.5,298.1 755.3,298.0 758.0,297.9 760.8,297.8 763.6,297.7 766.4,297.7 769.2,297.6 772.0,297.6 774.8,297.6 777.6,297.6 780.4,297.6 783.2,297.7 786.0,297.7 788.8,297.8 791.6,297.9 794.4,297.9 797.2,298.0" fill="none" stroke="#e74c3c" stroke-width="1.3" stroke-linejoin="round" clip-path="url(#pc15)"/>
  <defs><clipPath id="pc16"><rect x="34" y="16" width="358" height="155"/></clipPath></defs>
  <polyline points="37.5,48.5 70.1,48.5 89.2,48.5 102.8,48.5 113.3,48.5 121.9,48.5 129.1,48.5 135.4,48.4 141.0,48.4 145.9,48.4 150.4,48.3 154.5,48.3 158.3,48.2 161.8,48.2 165.0,48.1 168.1,48.1 170.9,48.0 173.6,48.0 176.2,47.9 178.6,47.9 180.9,47.8 183.1,47.7 185.2,47.7 187.2,47.6 189.1,47.6 190.9,47.5 192.7,47.4 194.4,47.4 196.1,47.3 197.7,47.3 199.2,47.2 200.7,47.2 202.2,47.1 203.6,47.1 204.9,47.1 206.3,47.0 207.6,47.0 208.8,47.0 210.0,47.0 211.2,47.0 212.4,47.0 213.5,47.0 214.6,47.0 215.7,47.1 216.8,47.1 217.8,47.1 218.8,47.2 219.8,47.2 220.8,47.3 221.7,47.3 222.7,47.4 223.6,47.5 224.5,47.5 225.4,47.6 226.2,47.7 227.1,47.8 227.9,47.8 228.7,47.9 229.5,48.0 231.1,48.2 232.6,48.3 234.1,48.4 235.5,48.5 236.9,48.5 238.2,48.5 239.6,48.5 240.8,48.4 242.1,48.2 243.3,48.0 244.5,47.7 245.6,47.4 246.7,47.2 247.8,47.0 248.9,47.1 249.9,47.6 251.0,48.6 252.0,50.2 252.9,52.3 253.9,54.6 254.8,57.1 255.8,59.7 256.7,62.3 257.6,64.8 258.4,67.3 259.3,69.7 260.1,72.1 261.0,74.5 261.8,76.8 263.0,80.3 264.1,83.9 265.3,87.5 266.4,91.2 267.5,95.2 268.5,99.5 269.6,104.3 270.6,110.2 271.6,117.9 272.5,131.4 273.5,144.1 274.4,125.8 275.3,119.5 276.2,116.0 277.1,113.7 278.0,112.1 278.8,111.0 279.6,110.3 280.5,109.7 281.3,109.4 282.3,109.1 283.4,109.0 284.4,109.1 285.3,109.2 286.3,109.5 287.3,109.8 288.2,110.2 289.1,110.7 290.0,111.2 290.9,111.8 291.7,112.4 292.6,113.0 293.4,113.7 294.2,114.4 295.0,115.2 296.0,116.2 297.0,117.3 297.9,118.4 298.8,119.6 299.7,121.0 300.6,122.4 301.5,123.9 302.4,125.6 303.2,127.4 304.0,129.5 304.9,131.9 305.8,135.3 306.7,139.6 307.7,145.6 308.6,156.0 309.5,183.9 310.3,153.5 311.2,145.2 312.0,140.3 312.8,136.8 313.7,134.1 314.6,131.7 315.5,129.7 316.4,128.1 317.3,126.6 318.1,125.4 319.0,124.4 319.8,123.4 320.6,122.6 321.4,121.8 322.3,121.0 323.2,120.3 324.1,119.7 324.9,119.1 325.7,118.6 326.6,118.1 327.4,117.7 328.3,117.2 329.1,116.8 330.0,116.4 330.8,116.0 331.7,115.7 332.5,115.4 333.3,115.1 334.2,114.8 335.0,114.5 335.9,114.3 336.7,114.0 337.5,113.8 338.4,113.6 339.2,113.3 340.1,113.1 340.9,112.9 341.7,112.8 342.5,112.6 343.4,112.4 344.2,112.3 345.1,112.1 345.9,112.0 346.7,111.8 347.6,111.7 348.4,111.6 349.2,111.5 350.0,111.3 350.9,111.2 351.7,111.1 352.6,111.0 353.4,110.9 354.2,110.8 355.1,110.7 355.9,110.7 356.7,110.6 357.6,110.5 358.4,110.4 359.2,110.3 360.0,110.3 360.9,110.2 361.7,110.1 362.5,110.1 363.3,110.0 364.2,110.0 365.0,109.9 365.8,109.9 366.6,109.8 367.4,109.8 368.3,109.7 369.1,109.7 369.9,109.6 370.7,109.6 371.5,109.6 372.4,109.5 373.2,109.5 374.0,109.5 374.8,109.4 375.6,109.4 376.4,109.4 377.2,109.3 378.1,109.3 378.9,109.3 379.7,109.3 380.5,109.2 381.3,109.2 382.1,109.2 383.0,109.2 383.8,109.1 384.6,109.1 385.4,109.1 386.2,109.1 387.0,109.1 387.9,109.1 388.7,109.1 389.5,109.0 390.3,109.0 391.1,109.0 391.9,109.0" fill="none" stroke="#2ecc71" stroke-width="1.3" stroke-linejoin="round" clip-path="url(#pc16)"/>
  <defs><clipPath id="pc17"><rect x="442" y="16" width="358" height="155"/></clipPath></defs>
  <polyline points="445.5,94.1 478.1,94.7 497.2,95.3 510.8,95.9 521.3,96.5 529.9,97.1 537.1,97.7 543.4,98.3 549.0,98.9 553.9,99.5 558.4,100.1 562.5,100.7 566.3,101.4 569.8,102.0 573.0,102.7 576.1,103.3 578.9,104.0 581.6,104.7 584.2,105.3 586.6,106.0 588.9,106.7 591.1,107.5 593.2,108.2 595.2,108.9 597.1,109.7 598.9,110.4 600.7,111.2 602.4,112.0 604.1,112.8 605.7,113.6 607.2,114.4 608.7,115.3 610.2,116.1 611.6,117.0 612.9,117.8 614.3,118.7 615.6,119.6 616.8,120.5 618.0,121.4 619.2,122.3 620.4,123.2 621.5,124.2 622.6,125.1 623.7,126.0 624.8,126.9 625.8,127.9 626.8,128.8 627.8,129.8 628.8,130.7 629.7,131.6 630.7,132.6 631.6,133.5 632.5,134.4 633.4,135.3 634.2,136.2 635.1,137.2 635.9,138.1 636.7,139.0 637.5,139.9 639.1,141.7 640.6,143.4 642.1,145.2 643.5,147.0 644.9,148.8 646.2,150.7 647.6,152.7 648.8,154.8 650.1,157.0 651.3,159.5 652.5,162.2 653.6,165.4 654.7,169.1 655.8,173.3 656.9,178.2 657.9,183.6 659.0,189.3 660.0,194.7 660.9,199.7 661.9,204.0 662.8,207.6 663.8,210.6 664.7,213.1 665.6,215.2 666.4,217.0 667.3,218.6 668.1,220.0 669.0,221.2 669.8,222.2 671.0,223.7 672.1,224.9 673.3,226.0 674.4,226.9 675.5,227.8 676.5,228.5 677.6,229.2 678.6,229.9 679.6,230.5 680.5,231.0 681.5,154.0 682.4,154.5 683.3,155.0 684.2,155.4 685.1,155.8 686.0,156.1 686.8,156.5 687.6,156.8 688.5,157.1 689.3,157.4 690.3,157.8 691.4,158.2 692.4,158.5 693.3,158.8 694.3,159.1 695.3,159.4 696.2,159.7 697.1,160.0 698.0,160.2 698.9,160.4 699.7,160.7 700.6,160.9 701.4,161.1 702.2,161.3 703.0,161.5 704.0,161.7 705.0,161.9 705.9,162.1 706.8,162.3 707.7,162.5 708.6,162.7 709.5,162.8 710.4,163.0 711.2,163.2 712.0,163.3 712.9,163.5 713.8,163.6 714.7,163.8 715.7,164.0 716.6,164.1 717.5,86.7 718.3,86.9 719.2,87.0 720.0,87.1 720.8,87.3 721.7,87.4 722.6,87.5 723.5,87.6 724.4,87.8 725.3,87.9 726.1,88.0 727.0,88.1 727.8,88.2 728.6,88.3 729.4,88.4 730.3,88.5 731.2,88.6 732.1,88.7 732.9,88.8 733.7,88.9 734.6,89.0 735.4,89.1 736.3,89.2 737.1,89.2 738.0,89.3 738.8,89.4 739.7,89.5 740.5,89.6 741.3,89.7 742.2,89.7 743.0,89.8 743.9,89.9 744.7,90.0 745.5,90.0 746.4,90.1 747.2,90.2 748.1,90.2 748.9,90.3 749.7,90.4 750.5,90.4 751.4,90.5 752.2,90.6 753.1,90.6 753.9,90.7 754.7,90.8 755.6,90.8 756.4,90.9 757.2,90.9 758.0,91.0 758.9,91.0 759.7,91.1 760.6,91.2 761.4,91.2 762.2,91.3 763.1,91.3 763.9,91.4 764.7,91.4 765.6,91.5 766.4,91.5 767.2,91.6 768.0,91.6 768.9,91.7 769.7,91.7 770.5,91.8 771.3,91.8 772.2,91.9 773.0,91.9 773.8,91.9 774.6,92.0 775.4,92.0 776.3,92.1 777.1,92.1 777.9,92.2 778.7,92.2 779.5,92.2 780.4,92.3 781.2,92.3 782.0,92.4 782.8,92.4 783.6,92.5 784.4,92.5 785.2,92.5 786.1,92.6 786.9,92.6 787.7,92.7 788.5,92.7 789.3,92.7 790.1,92.8 791.0,92.8 791.8,92.9 792.6,92.9 793.4,92.9 794.2,93.0 795.0,93.0 795.9,93.0 796.7,93.1 797.5,93.1 798.3,93.2 799.1,93.2 799.9,93.3" fill="none" stroke="#2ecc71" stroke-width="1.3" stroke-linejoin="round" clip-path="url(#pc17)"/>
  <defs><clipPath id="pc18"><rect x="34" y="221" width="358" height="155"/></clipPath></defs>
  <polyline points="37.5,245.9 70.1,244.9 89.2,243.9 102.8,243.0 113.3,242.0 121.9,241.1 129.1,240.2 135.4,239.3 141.0,238.5 145.9,237.6 150.4,236.9 154.5,236.1 158.3,235.4 161.8,234.7 165.0,234.1 168.1,233.6 170.9,233.1 173.6,232.6 176.2,232.3 178.6,232.0 180.9,231.8 183.1,231.7 185.2,231.6 187.2,231.7 189.1,231.9 190.9,232.1 192.7,232.5 194.4,233.0 196.1,233.6 197.7,234.3 199.2,235.1 200.7,236.0 202.2,237.0 203.6,238.2 204.9,239.4 206.3,240.8 207.6,242.2 208.8,243.7 210.0,245.2 211.2,246.9 212.4,248.5 213.5,250.2 214.6,251.9 215.7,253.5 216.8,255.2 217.8,256.8 218.8,258.3 219.8,259.8 220.8,261.2 221.7,262.4 222.7,263.5 223.6,264.5 224.5,265.3 225.4,266.0 226.2,266.4 227.1,266.7 227.9,266.8 228.7,266.7 229.5,266.3 231.1,265.0 232.6,262.8 234.1,259.6 235.5,255.5 236.9,250.4 238.2,244.4 239.6,237.7 240.8,230.3 242.1,222.6 243.3,215.5 244.5,210.4 245.6,209.6 246.7,217.4 247.8,239.1 248.9,280.1 249.9,340.9 251.0,412.1 252.0,477.7 252.9,525.5 253.9,553.3 254.8,565.6 255.8,568.1 256.7,565.4 257.6,560.4 258.4,554.8 259.3,549.6 260.1,545.2 261.0,542.0 261.8,540.1 263.0,540.0 264.1,543.7 265.3,552.0 266.4,566.3 267.5,589.1 268.5,625.2 269.6,684.5 270.6,792.3 271.6,1033.0 272.5,1975.8 273.5,-3356.5 274.4,-501.2 275.3,-129.5 276.2,15.6 277.1,92.2 278.0,139.1 278.8,170.7 279.6,193.1 280.5,209.9 281.3,222.8 282.3,236.0 283.4,246.1 284.4,254.0 285.3,260.4 286.3,265.6 287.3,270.1 288.2,274.0 289.1,277.4 290.0,280.4 290.9,283.3 291.7,285.9 292.6,288.4 293.4,290.9 294.2,293.4 295.0,295.9 296.0,299.1 297.0,302.5 297.9,306.2 298.8,310.4 299.7,315.1 300.6,320.5 301.5,327.0 302.4,334.8 303.2,344.6 304.0,357.1 304.9,373.9 305.8,403.5 306.7,453.5 307.7,556.6 308.6,892.5 309.5,-4664.8 310.3,-245.2 311.2,-6.9 312.0,78.3 312.8,122.0 313.7,148.5 314.6,168.8 315.5,182.6 316.4,192.7 317.3,200.3 318.1,206.3 319.0,211.1 319.8,215.0 320.6,218.3 321.4,221.0 322.3,223.7 323.2,226.0 324.1,227.9 324.9,229.6 325.7,231.0 326.6,232.3 327.4,233.4 328.3,234.5 329.1,235.5 330.0,236.4 330.8,237.2 331.7,237.9 332.5,238.5 333.3,239.0 334.2,239.6 335.0,240.1 335.9,240.6 336.7,241.0 337.5,241.4 338.4,241.7 339.2,242.1 340.1,242.4 340.9,242.7 341.7,242.9 342.5,243.1 343.4,243.4 344.2,243.6 345.1,243.8 345.9,244.0 346.7,244.1 347.6,244.3 348.4,244.5 349.2,244.6 350.0,244.7 350.9,244.9 351.7,245.0 352.6,245.1 353.4,245.2 354.2,245.3 355.1,245.4 355.9,245.5 356.7,245.5 357.6,245.6 358.4,245.7 359.2,245.7 360.0,245.8 360.9,245.9 361.7,245.9 362.5,246.0 363.3,246.0 364.2,246.1 365.0,246.1 365.8,246.1 366.6,246.2 367.4,246.2 368.3,246.3 369.1,246.3 369.9,246.3 370.7,246.4 371.5,246.4 372.4,246.4 373.2,246.4 374.0,246.5 374.8,246.5 375.6,246.5 376.4,246.5 377.2,246.5 378.1,246.6 378.9,246.6 379.7,246.6 380.5,246.6 381.3,246.6 382.1,246.6 383.0,246.7 383.8,246.7 384.6,246.7 385.4,246.7 386.2,246.7 387.0,246.7 387.9,246.7 388.7,246.7 389.5,246.7 390.3,246.8 391.1,246.8 391.9,246.8" fill="none" stroke="#2ecc71" stroke-width="1.3" stroke-linejoin="round" clip-path="url(#pc18)"/>
  <defs><linearGradient id="g19" x1="0" y1="221" x2="0" y2="298.5" gradientUnits="userSpaceOnUse">
    <stop offset="0%" stop-color="#2ecc71" stop-opacity="0.15"/>
    <stop offset="100%" stop-color="#2ecc71" stop-opacity="0.02"/>
  </linearGradient></defs>
  <defs><linearGradient id="g20" x1="0" y1="376" x2="0" y2="298.5" gradientUnits="userSpaceOnUse">
    <stop offset="0%" stop-color="#2ecc71" stop-opacity="0.15"/>
    <stop offset="100%" stop-color="#2ecc71" stop-opacity="0.02"/>
  </linearGradient></defs>
  <defs><clipPath id="c21"><rect x="442" y="221" width="358" height="77.5"/></clipPath></defs>
  <defs><clipPath id="c22"><rect x="442" y="298.5" width="358" height="77.5"/></clipPath></defs>
  <path d="M442.0,296.3 442.0,296.3 444.8,298.2 447.6,297.6 450.4,297.1 453.2,296.7 456.0,296.2 458.8,295.7 461.6,295.3 464.4,294.8 467.2,294.3 470.0,293.9 472.8,293.3 475.6,292.8 478.4,292.3 481.2,291.8 484.0,291.3 486.8,290.8 489.5,290.3 492.3,289.9 495.1,289.5 497.9,289.2 500.7,288.9 503.5,288.7 506.3,288.6 509.1,288.5 511.9,288.6 514.7,288.7 517.5,288.9 520.3,289.2 523.1,289.6 525.9,290.0 528.7,290.5 531.5,291.1 534.3,291.8 537.1,292.5 539.9,293.2 542.7,294.0 545.5,294.8 548.3,295.6 551.1,296.4 553.9,297.2 556.7,297.9 559.5,298.7 562.3,299.3 565.1,300.0 567.9,300.5 570.7,301.0 573.5,301.5 576.3,301.8 579.0,302.1 581.8,302.3 584.6,302.4 587.4,302.5 590.2,302.4 593.0,302.3 595.8,302.2 598.6,301.9 601.4,301.7 604.2,301.3 607.0,301.0 609.8,300.6 612.6,300.2 615.4,299.8 618.2,299.4 621.0,299.0 623.8,298.6 626.6,298.2 629.4,297.9 632.2,297.6 635.0,297.3 637.8,297.1 640.6,296.9 643.4,296.8 646.2,296.7 649.0,296.7 651.8,296.7 654.6,296.8 657.4,296.8 660.2,297.0 663.0,297.1 665.8,297.3 668.5,297.5 671.3,297.8 674.1,298.0 676.9,298.3 679.7,298.5 682.5,298.8 685.3,299.0 688.1,299.2 690.9,299.4 693.7,299.6 696.5,299.8 699.3,299.9 702.1,300.0 704.9,300.0 707.7,300.1 710.5,300.1 713.3,300.0 716.1,300.0 718.9,299.9 721.7,299.8 724.5,299.6 727.3,299.5 730.1,299.3 732.9,299.1 735.7,298.9 738.5,298.7 741.3,298.5 744.1,298.3 746.9,298.1 749.7,298.0 752.5,297.8 755.3,297.7 758.0,297.5 760.8,297.4 763.6,297.4 766.4,297.3 769.2,297.3 772.0,297.3 774.8,297.3 777.6,297.3 780.4,297.4 783.2,297.5 786.0,297.6 788.8,297.7 791.6,297.8 794.4,298.0 797.2,298.1 L797.2,298.5 L442.0,298.5 Z" fill="url(#g19)" clip-path="url(#c21)"/>
  <path d="M442.0,296.3 442.0,296.3 444.8,298.2 447.6,297.6 450.4,297.1 453.2,296.7 456.0,296.2 458.8,295.7 461.6,295.3 464.4,294.8 467.2,294.3 470.0,293.9 472.8,293.3 475.6,292.8 478.4,292.3 481.2,291.8 484.0,291.3 486.8,290.8 489.5,290.3 492.3,289.9 495.1,289.5 497.9,289.2 500.7,288.9 503.5,288.7 506.3,288.6 509.1,288.5 511.9,288.6 514.7,288.7 517.5,288.9 520.3,289.2 523.1,289.6 525.9,290.0 528.7,290.5 531.5,291.1 534.3,291.8 537.1,292.5 539.9,293.2 542.7,294.0 545.5,294.8 548.3,295.6 551.1,296.4 553.9,297.2 556.7,297.9 559.5,298.7 562.3,299.3 565.1,300.0 567.9,300.5 570.7,301.0 573.5,301.5 576.3,301.8 579.0,302.1 581.8,302.3 584.6,302.4 587.4,302.5 590.2,302.4 593.0,302.3 595.8,302.2 598.6,301.9 601.4,301.7 604.2,301.3 607.0,301.0 609.8,300.6 612.6,300.2 615.4,299.8 618.2,299.4 621.0,299.0 623.8,298.6 626.6,298.2 629.4,297.9 632.2,297.6 635.0,297.3 637.8,297.1 640.6,296.9 643.4,296.8 646.2,296.7 649.0,296.7 651.8,296.7 654.6,296.8 657.4,296.8 660.2,297.0 663.0,297.1 665.8,297.3 668.5,297.5 671.3,297.8 674.1,298.0 676.9,298.3 679.7,298.5 682.5,298.8 685.3,299.0 688.1,299.2 690.9,299.4 693.7,299.6 696.5,299.8 699.3,299.9 702.1,300.0 704.9,300.0 707.7,300.1 710.5,300.1 713.3,300.0 716.1,300.0 718.9,299.9 721.7,299.8 724.5,299.6 727.3,299.5 730.1,299.3 732.9,299.1 735.7,298.9 738.5,298.7 741.3,298.5 744.1,298.3 746.9,298.1 749.7,298.0 752.5,297.8 755.3,297.7 758.0,297.5 760.8,297.4 763.6,297.4 766.4,297.3 769.2,297.3 772.0,297.3 774.8,297.3 777.6,297.3 780.4,297.4 783.2,297.5 786.0,297.6 788.8,297.7 791.6,297.8 794.4,298.0 797.2,298.1 L797.2,298.5 L442.0,298.5 Z" fill="url(#g20)" clip-path="url(#c22)"/>
  <defs><clipPath id="pc23"><rect x="442" y="221" width="358" height="155"/></clipPath></defs>
  <polyline points="442.0,296.3 444.8,298.2 447.6,297.6 450.4,297.1 453.2,296.7 456.0,296.2 458.8,295.7 461.6,295.3 464.4,294.8 467.2,294.3 470.0,293.9 472.8,293.3 475.6,292.8 478.4,292.3 481.2,291.8 484.0,291.3 486.8,290.8 489.5,290.3 492.3,289.9 495.1,289.5 497.9,289.2 500.7,288.9 503.5,288.7 506.3,288.6 509.1,288.5 511.9,288.6 514.7,288.7 517.5,288.9 520.3,289.2 523.1,289.6 525.9,290.0 528.7,290.5 531.5,291.1 534.3,291.8 537.1,292.5 539.9,293.2 542.7,294.0 545.5,294.8 548.3,295.6 551.1,296.4 553.9,297.2 556.7,297.9 559.5,298.7 562.3,299.3 565.1,300.0 567.9,300.5 570.7,301.0 573.5,301.5 576.3,301.8 579.0,302.1 581.8,302.3 584.6,302.4 587.4,302.5 590.2,302.4 593.0,302.3 595.8,302.2 598.6,301.9 601.4,301.7 604.2,301.3 607.0,301.0 609.8,300.6 612.6,300.2 615.4,299.8 618.2,299.4 621.0,299.0 623.8,298.6 626.6,298.2 629.4,297.9 632.2,297.6 635.0,297.3 637.8,297.1 640.6,296.9 643.4,296.8 646.2,296.7 649.0,296.7 651.8,296.7 654.6,296.8 657.4,296.8 660.2,297.0 663.0,297.1 665.8,297.3 668.5,297.5 671.3,297.8 674.1,298.0 676.9,298.3 679.7,298.5 682.5,298.8 685.3,299.0 688.1,299.2 690.9,299.4 693.7,299.6 696.5,299.8 699.3,299.9 702.1,300.0 704.9,300.0 707.7,300.1 710.5,300.1 713.3,300.0 716.1,300.0 718.9,299.9 721.7,299.8 724.5,299.6 727.3,299.5 730.1,299.3 732.9,299.1 735.7,298.9 738.5,298.7 741.3,298.5 744.1,298.3 746.9,298.1 749.7,298.0 752.5,297.8 755.3,297.7 758.0,297.5 760.8,297.4 763.6,297.4 766.4,297.3 769.2,297.3 772.0,297.3 774.8,297.3 777.6,297.3 780.4,297.4 783.2,297.5 786.0,297.6 788.8,297.7 791.6,297.8 794.4,298.0 797.2,298.1" fill="none" stroke="#2ecc71" stroke-width="1.3" stroke-linejoin="round" clip-path="url(#pc23)"/>
  <defs><clipPath id="pc24"><rect x="34" y="16" width="358" height="155"/></clipPath></defs>
  <polyline points="37.5,47.0 70.1,47.0 89.2,47.0 102.8,47.0 113.3,47.0 121.9,47.0 129.1,47.0 135.4,47.0 141.0,47.0 145.9,47.0 150.4,47.1 154.5,47.1 158.3,47.1 161.8,47.1 165.0,47.1 168.1,47.1 170.9,47.1 173.6,47.2 176.2,47.2 178.6,47.2 180.9,47.2 183.1,47.2 185.2,47.3 187.2,47.3 189.1,47.3 190.9,47.3 192.7,47.4 194.4,47.4 196.1,47.4 197.7,47.5 199.2,47.5 200.7,47.5 202.2,47.5 203.6,47.6 204.9,47.6 206.3,47.7 207.6,47.7 208.8,47.7 210.0,47.8 211.2,47.8 212.4,47.8 213.5,47.9 214.6,47.9 215.7,48.0 216.8,48.0 217.8,48.1 218.8,48.1 219.8,48.2 220.8,48.2 221.7,48.3 222.7,48.3 223.6,48.4 224.5,48.4 225.4,48.5 226.2,48.5 227.1,48.6 227.9,48.7 228.7,48.7 229.5,48.8 231.1,48.9 232.6,49.0 234.1,49.2 235.5,49.3 236.9,49.5 238.2,49.6 239.6,49.8 240.8,49.9 242.1,50.1 243.3,50.3 244.5,50.5 245.6,50.7 246.7,50.8 247.8,51.0 248.9,51.3 249.9,51.5 251.0,51.7 252.0,51.9 252.9,52.1 253.9,52.4 254.8,52.6 255.8,52.9 256.7,53.1 257.6,53.4 258.4,53.7 259.3,53.9 260.1,54.2 261.0,54.5 261.8,54.8 263.0,55.3 264.1,55.7 265.3,56.2 266.4,56.7 267.5,57.2 268.5,57.8 269.6,58.3 270.6,58.9 271.6,59.4 272.5,60.0 273.5,60.6 274.4,61.2 275.3,61.8 276.2,62.4 277.1,63.0 278.0,63.6 278.8,64.2 279.6,64.9 280.5,65.5 281.3,66.1 282.3,67.0 283.4,67.8 284.4,68.7 285.3,69.5 286.3,70.4 287.3,71.2 288.2,72.1 289.1,72.9 290.0,73.7 290.9,74.6 291.7,75.4 292.6,76.2 293.4,77.0 294.2,77.8 295.0,78.6 296.0,79.6 297.0,80.6 297.9,81.6 298.8,82.5 299.7,83.5 300.6,84.4 301.5,85.3 302.4,86.3 303.2,87.2 304.0,88.1 304.9,88.9 305.8,90.0 306.7,91.0 307.7,92.0 308.6,93.0 309.5,94.0 310.3,95.0 311.2,96.0 312.0,96.9 312.8,97.9 313.7,98.8 314.6,99.8 315.5,100.9 316.4,101.9 317.3,102.9 318.1,103.9 319.0,104.9 319.8,105.9 320.6,106.9 321.4,107.8 322.3,108.9 323.2,109.9 324.1,111.0 324.9,112.0 325.7,113.0 326.6,114.0 327.4,115.0 328.3,116.1 329.1,117.2 330.0,118.2 330.8,119.3 331.7,120.3 332.5,121.3 333.3,122.3 334.2,123.4 335.0,124.5 335.9,125.6 336.7,126.7 337.5,127.7 338.4,128.8 339.2,130.0 340.1,131.1 340.9,132.2 341.7,133.3 342.5,134.3 343.4,135.5 344.2,136.7 345.1,137.8 345.9,138.9 346.7,140.0 347.6,141.2 348.4,142.4 349.2,143.6 350.0,144.8 350.9,146.0 351.7,147.2 352.6,148.5 353.4,149.7 354.2,151.0 355.1,152.2 355.9,153.5 356.7,154.8 357.6,156.1 358.4,157.5 359.2,158.8 360.0,160.1 360.9,161.5 361.7,162.9 362.5,164.4 363.3,165.8 364.2,167.3 365.0,168.8 365.8,170.3 366.6,171.9 367.4,173.4 368.3,175.0 369.1,176.7 369.9,178.4 370.7,180.1 371.5,181.8 372.4,183.7 373.2,185.5 374.0,187.4 374.8,189.4 375.6,191.5 376.4,193.6 377.2,195.7 378.1,198.0 378.9,200.4 379.7,202.9 380.5,205.5 381.3,208.1 382.1,211.0 383.0,214.0 383.8,217.2 384.6,220.5 385.4,224.2 386.2,228.0 387.0,232.3 387.9,236.8 388.7,241.9 389.5,247.5 390.3,253.8 391.1,260.9 391.9,269.3" fill="none" stroke="#f39c12" stroke-width="1.3" stroke-linejoin="round" clip-path="url(#pc24)"/>
  <defs><clipPath id="pc25"><rect x="442" y="16" width="358" height="155"/></clipPath></defs>
  <polyline points="445.5,94.1 478.1,94.6 497.2,95.2 510.8,95.7 521.3,96.3 529.9,96.9 537.1,97.4 543.4,98.0 549.0,98.5 553.9,99.1 558.4,99.7 562.5,100.2 566.3,100.8 569.8,101.3 573.0,101.9 576.1,102.5 578.9,103.0 581.6,103.6 584.2,104.2 586.6,104.7 588.9,105.3 591.1,105.8 593.2,106.4 595.2,107.0 597.1,107.5 598.9,108.1 600.7,108.6 602.4,109.2 604.1,109.8 605.7,110.3 607.2,110.9 608.7,111.4 610.2,112.0 611.6,112.6 612.9,113.1 614.3,113.7 615.6,114.2 616.8,114.8 618.0,115.4 619.2,115.9 620.4,116.5 621.5,117.0 622.6,117.6 623.7,118.2 624.8,118.7 625.8,119.3 626.8,119.9 627.8,120.4 628.8,121.0 629.7,121.5 630.7,122.1 631.6,122.7 632.5,123.2 633.4,123.8 634.2,124.3 635.1,124.9 635.9,125.5 636.7,126.0 637.5,126.6 639.1,127.7 640.6,128.8 642.1,130.0 643.5,131.1 644.9,132.2 646.2,133.3 647.6,134.4 648.8,135.6 650.1,136.7 651.3,137.8 652.5,138.9 653.6,140.0 654.7,141.2 655.8,142.3 656.9,143.4 657.9,144.5 659.0,145.6 660.0,146.7 660.9,147.8 661.9,148.9 662.8,150.0 663.8,151.1 664.7,152.2 665.6,153.3 666.4,154.3 667.3,155.4 668.1,156.5 669.0,157.5 669.8,158.6 671.0,160.1 672.1,161.7 673.3,163.2 674.4,164.7 675.5,166.2 676.5,167.7 677.6,169.1 678.6,170.5 679.6,171.9 680.5,173.3 681.5,174.6 682.4,175.9 683.3,177.2 684.2,178.4 685.1,179.6 686.0,180.8 686.8,182.0 687.6,183.1 688.5,184.2 689.3,185.3 690.3,186.7 691.4,188.0 692.4,189.3 693.3,190.6 694.3,191.8 695.3,192.9 696.2,194.1 697.1,195.1 698.0,196.2 698.9,197.2 699.7,198.2 700.6,199.1 701.4,200.0 702.2,200.9 703.0,201.8 704.0,202.8 705.0,203.8 705.9,204.7 706.8,205.6 707.7,206.5 708.6,207.3 709.5,208.1 710.4,208.9 711.2,209.7 712.0,210.4 712.9,211.1 713.8,211.9 714.7,212.7 715.7,213.4 716.6,214.1 717.5,214.8 718.3,215.5 719.2,216.1 720.0,216.7 720.8,217.3 721.7,217.9 722.6,218.6 723.5,219.2 724.4,219.8 725.3,220.3 726.1,220.9 727.0,221.4 727.8,222.0 728.6,222.4 729.4,222.9 730.3,223.5 731.2,224.0 732.1,224.5 732.9,224.9 733.7,225.4 734.6,225.8 735.4,226.3 736.3,226.7 737.1,227.2 738.0,227.6 738.8,228.0 739.7,228.4 740.5,228.8 741.3,229.2 742.2,229.6 743.0,230.0 743.9,230.4 744.7,230.7 745.5,231.1 746.4,231.4 747.2,231.8 748.1,232.2 748.9,232.5 749.7,232.8 750.5,233.1 751.4,233.5 752.2,233.8 753.1,234.1 753.9,234.4 754.7,234.7 755.6,235.0 756.4,235.3 757.2,235.6 758.0,235.9 758.9,236.2 759.7,236.4 760.6,236.7 761.4,237.0 762.2,237.3 763.1,237.5 763.9,237.8 764.7,238.0 765.6,238.3 766.4,238.6 767.2,238.8 768.0,239.0 768.9,239.3 769.7,239.5 770.5,239.8 771.3,240.0 772.2,240.2 773.0,240.5 773.8,240.7 774.6,240.9 775.4,241.1 776.3,241.3 777.1,241.6 777.9,241.8 778.7,242.0 779.5,242.2 780.4,242.4 781.2,242.6 782.0,242.8 782.8,243.0 783.6,243.2 784.4,243.4 785.2,243.6 786.1,243.8 786.9,244.0 787.7,244.2 788.5,244.4 789.3,244.6 790.1,244.8 791.0,245.0 791.8,245.2 792.6,245.4 793.4,245.6 794.2,245.8 795.0,246.0 795.9,246.2 796.7,246.4 797.5,246.6 798.3,246.8 799.1,247.0 799.9,247.3" fill="none" stroke="#f39c12" stroke-width="1.3" stroke-linejoin="round" clip-path="url(#pc25)"/>
  <defs><clipPath id="pc26"><rect x="34" y="221" width="358" height="155"/></clipPath></defs>
  <polyline points="37.5,247.1 70.1,247.3 89.2,247.6 102.8,247.8 113.3,248.1 121.9,248.3 129.1,248.6 135.4,248.8 141.0,249.1 145.9,249.3 150.4,249.6 154.5,249.8 158.3,250.1 161.8,250.3 165.0,250.6 168.1,250.8 170.9,251.1 173.6,251.3 176.2,251.6 178.6,251.8 180.9,252.1 183.1,252.3 185.2,252.6 187.2,252.8 189.1,253.1 190.9,253.4 192.7,253.6 194.4,253.9 196.1,254.1 197.7,254.4 199.2,254.7 200.7,254.9 202.2,255.2 203.6,255.4 204.9,255.7 206.3,256.0 207.6,256.2 208.8,256.5 210.0,256.8 211.2,257.0 212.4,257.3 213.5,257.6 214.6,257.9 215.7,258.1 216.8,258.4 217.8,258.7 218.8,259.0 219.8,259.2 220.8,259.5 221.7,259.8 222.7,260.1 223.6,260.4 224.5,260.7 225.4,261.0 226.2,261.3 227.1,261.6 227.9,261.9 228.7,262.2 229.5,262.5 231.1,263.1 232.6,263.7 234.1,264.3 235.5,265.0 236.9,265.6 238.2,266.3 239.6,267.0 240.8,267.7 242.1,268.4 243.3,269.1 244.5,269.8 245.6,270.5 246.7,271.3 247.8,272.1 248.9,272.8 249.9,273.6 251.0,274.4 252.0,275.3 252.9,276.1 253.9,276.9 254.8,277.7 255.8,278.6 256.7,279.4 257.6,280.3 258.4,281.1 259.3,282.0 260.1,282.8 261.0,283.7 261.8,284.5 263.0,285.7 264.1,287.0 265.3,288.1 266.4,289.3 267.5,290.4 268.5,291.4 269.6,292.4 270.6,293.3 271.6,294.2 272.5,295.0 273.5,295.8 274.4,296.5 275.3,297.1 276.2,297.6 277.1,298.1 278.0,298.5 278.8,298.9 279.6,299.2 280.5,299.4 281.3,299.6 282.3,299.8 283.4,299.9 284.4,299.9 285.3,299.9 286.3,299.8 287.3,299.7 288.2,299.5 289.1,299.2 290.0,298.9 290.9,298.6 291.7,298.3 292.6,297.9 293.4,297.6 294.2,297.2 295.0,296.8 296.0,296.2 297.0,295.7 297.9,295.2 298.8,294.6 299.7,294.1 300.6,293.5 301.5,293.0 302.4,292.4 303.2,291.9 304.0,291.3 304.9,290.8 305.8,290.2 306.7,289.6 307.7,289.0 308.6,288.4 309.5,287.8 310.3,287.2 311.2,286.7 312.0,286.1 312.8,285.6 313.7,285.1 314.6,284.5 315.5,284.0 316.4,283.4 317.3,282.9 318.1,282.4 319.0,281.9 319.8,281.4 320.6,281.0 321.4,280.5 322.3,280.0 323.2,279.5 324.1,279.1 324.9,278.6 325.7,278.2 326.6,277.8 327.4,277.4 328.3,276.9 329.1,276.5 330.0,276.1 330.8,275.7 331.7,275.4 332.5,275.0 333.3,274.6 334.2,274.3 335.0,273.9 335.9,273.6 336.7,273.3 337.5,272.9 338.4,272.6 339.2,272.3 340.1,272.0 340.9,271.7 341.7,271.4 342.5,271.2 343.4,270.9 344.2,270.7 345.1,270.4 345.9,270.2 346.7,270.0 347.6,269.7 348.4,269.5 349.2,269.3 350.0,269.1 350.9,268.9 351.7,268.8 352.6,268.6 353.4,268.5 354.2,268.3 355.1,268.2 355.9,268.0 356.7,267.9 357.6,267.8 358.4,267.7 359.2,267.7 360.0,267.6 360.9,267.5 361.7,267.5 362.5,267.5 363.3,267.4 364.2,267.4 365.0,267.5 365.8,267.5 366.6,267.5 367.4,267.6 368.3,267.7 369.1,267.8 369.9,267.9 370.7,268.1 371.5,268.3 372.4,268.5 373.2,268.7 374.0,269.0 374.8,269.3 375.6,269.7 376.4,270.1 377.2,270.5 378.1,271.0 378.9,271.6 379.7,272.3 380.5,273.0 381.3,273.9 382.1,274.8 383.0,275.9 383.8,277.2 384.6,278.6 385.4,280.3 386.2,282.3 387.0,284.7 387.9,287.5 388.7,291.0 389.5,295.3 390.3,300.8 391.1,307.9 391.9,317.7" fill="none" stroke="#f39c12" stroke-width="1.3" stroke-linejoin="round" clip-path="url(#pc26)"/>
  <defs><linearGradient id="g27" x1="0" y1="376" x2="0" y2="298.5" gradientUnits="userSpaceOnUse">
    <stop offset="0%" stop-color="#f39c12" stop-opacity="0.15"/>
    <stop offset="100%" stop-color="#f39c12" stop-opacity="0.02"/>
  </linearGradient></defs>
  <path d="M442.0,298.5 442.0,298.5 444.8,298.3 447.6,297.9 450.4,297.1 453.2,295.9 456.0,294.4 458.8,292.6 461.6,290.8 464.4,289.1 467.2,287.6 470.0,286.3 472.8,285.3 475.6,284.6 478.4,284.3 481.2,284.4 484.0,284.7 486.8,285.3 489.5,286.0 492.3,287.0 495.1,288.0 497.9,289.1 500.7,290.2 503.5,291.3 506.3,292.4 509.1,293.4 511.9,294.3 514.7,295.2 517.5,295.9 520.3,296.5 523.1,297.1 525.9,297.5 528.7,297.9 531.5,298.2 534.3,298.4 537.1,298.5 539.9,298.6 542.7,298.7 545.5,298.8 548.3,298.8 551.1,298.8 553.9,298.7 556.7,298.7 559.5,298.7 562.3,298.6 565.1,298.6 567.9,298.6 570.7,298.6 573.5,298.5 576.3,298.5 579.0,298.5 581.8,298.5 584.6,298.5 587.4,298.5 590.2,298.5 593.0,298.5 595.8,298.5 598.6,298.5 601.4,298.5 604.2,298.5 607.0,298.5 609.8,298.5 612.6,298.5 615.4,298.5 618.2,298.5 621.0,298.5 623.8,298.5 626.6,298.5 629.4,298.5 632.2,298.5 635.0,298.5 637.8,298.5 640.6,298.5 643.4,298.5 646.2,298.5 649.0,298.5 651.8,298.5 654.6,298.5 657.4,298.5 660.2,298.5 663.0,298.5 665.8,298.5 668.5,298.5 671.3,298.5 674.1,298.5 676.9,298.5 679.7,298.5 682.5,298.5 685.3,298.5 688.1,298.5 690.9,298.5 693.7,298.5 696.5,298.5 699.3,298.5 702.1,298.5 704.9,298.5 707.7,298.5 710.5,298.5 713.3,298.5 716.1,298.5 718.9,298.5 721.7,298.5 724.5,298.5 727.3,298.5 730.1,298.5 732.9,298.5 735.7,298.5 738.5,298.5 741.3,298.5 744.1,298.5 746.9,298.5 749.7,298.5 752.5,298.5 755.3,298.5 758.0,298.5 760.8,298.5 763.6,298.5 766.4,298.5 769.2,298.5 772.0,298.5 774.8,298.5 777.6,298.5 780.4,298.5 783.2,298.5 786.0,298.5 788.8,298.5 791.6,298.5 794.4,298.5 797.2,298.5 L797.2,298.5 L442.0,298.5 Z" fill="url(#g27)"/>
  <defs><clipPath id="pc28"><rect x="442" y="221" width="358" height="155"/></clipPath></defs>
  <polyline points="442.0,298.5 444.8,298.3 447.6,297.9 450.4,297.1 453.2,295.9 456.0,294.4 458.8,292.6 461.6,290.8 464.4,289.1 467.2,287.6 470.0,286.3 472.8,285.3 475.6,284.6 478.4,284.3 481.2,284.4 484.0,284.7 486.8,285.3 489.5,286.0 492.3,287.0 495.1,288.0 497.9,289.1 500.7,290.2 503.5,291.3 506.3,292.4 509.1,293.4 511.9,294.3 514.7,295.2 517.5,295.9 520.3,296.5 523.1,297.1 525.9,297.5 528.7,297.9 531.5,298.2 534.3,298.4 537.1,298.5 539.9,298.6 542.7,298.7 545.5,298.8 548.3,298.8 551.1,298.8 553.9,298.7 556.7,298.7 559.5,298.7 562.3,298.6 565.1,298.6 567.9,298.6 570.7,298.6 573.5,298.5 576.3,298.5 579.0,298.5 581.8,298.5 584.6,298.5 587.4,298.5 590.2,298.5 593.0,298.5 595.8,298.5 598.6,298.5 601.4,298.5 604.2,298.5 607.0,298.5 609.8,298.5 612.6,298.5 615.4,298.5 618.2,298.5 621.0,298.5 623.8,298.5 626.6,298.5 629.4,298.5 632.2,298.5 635.0,298.5 637.8,298.5 640.6,298.5 643.4,298.5 646.2,298.5 649.0,298.5 651.8,298.5 654.6,298.5 657.4,298.5 660.2,298.5 663.0,298.5 665.8,298.5 668.5,298.5 671.3,298.5 674.1,298.5 676.9,298.5 679.7,298.5 682.5,298.5 685.3,298.5 688.1,298.5 690.9,298.5 693.7,298.5 696.5,298.5 699.3,298.5 702.1,298.5 704.9,298.5 707.7,298.5 710.5,298.5 713.3,298.5 716.1,298.5 718.9,298.5 721.7,298.5 724.5,298.5 727.3,298.5 730.1,298.5 732.9,298.5 735.7,298.5 738.5,298.5 741.3,298.5 744.1,298.5 746.9,298.5 749.7,298.5 752.5,298.5 755.3,298.5 758.0,298.5 760.8,298.5 763.6,298.5 766.4,298.5 769.2,298.5 772.0,298.5 774.8,298.5 777.6,298.5 780.4,298.5 783.2,298.5 786.0,298.5 788.8,298.5 791.6,298.5 794.4,298.5 797.2,298.5" fill="none" stroke="#f39c12" stroke-width="1.3" stroke-linejoin="round" clip-path="url(#pc28)"/>
  <defs><clipPath id="pc29"><rect x="34" y="16" width="358" height="155"/></clipPath></defs>
  <polyline points="37.5,47.0 70.1,47.0 89.2,47.0 102.8,47.0 113.3,47.0 121.9,47.0 129.1,47.0 135.4,47.0 141.0,47.0 145.9,47.0 150.4,47.0 154.5,47.0 158.3,47.0 161.8,47.0 165.0,47.0 168.1,47.0 170.9,47.0 173.6,47.0 176.2,47.0 178.6,47.0 180.9,47.0 183.1,47.1 185.2,47.1 187.2,47.1 189.1,47.1 190.9,47.1 192.7,47.1 194.4,47.1 196.1,47.1 197.7,47.2 199.2,47.2 200.7,47.2 202.2,47.2 203.6,47.2 204.9,47.3 206.3,47.3 207.6,47.3 208.8,47.3 210.0,47.4 211.2,47.4 212.4,47.4 213.5,47.4 214.6,47.5 215.7,47.5 216.8,47.5 217.8,47.5 218.8,47.6 219.8,47.6 220.8,47.6 221.7,47.6 222.7,47.7 223.6,47.7 224.5,47.7 225.4,47.7 226.2,47.7 227.1,47.7 227.9,47.8 228.7,47.8 229.5,47.8 231.1,47.8 232.6,47.8 234.1,47.8 235.5,47.8 236.9,47.8 238.2,47.8 239.6,47.8 240.8,47.9 242.1,48.0 243.3,48.1 244.5,48.4 245.6,48.7 246.7,49.0 247.8,49.6 248.9,50.2 249.9,50.9 251.0,51.7 252.0,52.6 252.9,53.6 253.9,54.7 254.8,55.8 255.8,57.0 256.7,58.1 257.6,59.3 258.4,60.5 259.3,61.7 260.1,62.8 261.0,64.0 261.8,65.1 263.0,66.8 264.1,68.4 265.3,70.0 266.4,71.6 267.5,73.1 268.5,74.5 269.6,75.9 270.6,77.3 271.6,78.6 272.5,79.9 273.5,81.2 274.4,82.4 275.3,83.7 276.2,84.8 277.1,86.0 278.0,87.1 278.8,88.2 279.6,89.3 280.5,90.3 281.3,91.4 282.3,92.7 283.4,94.0 284.4,95.3 285.3,96.6 286.3,97.8 287.3,99.0 288.2,100.1 289.1,101.3 290.0,102.4 290.9,103.5 291.7,104.5 292.6,105.6 293.4,106.6 294.2,107.6 295.0,108.6 296.0,109.8 297.0,111.0 297.9,112.2 298.8,113.3 299.7,114.4 300.6,115.5 301.5,116.6 302.4,117.6 303.2,118.7 304.0,119.7 304.9,120.7 305.8,121.8 306.7,123.0 307.7,124.1 308.6,125.2 309.5,126.3 310.3,127.4 311.2,128.4 312.0,129.4 312.8,130.4 313.7,131.4 314.6,132.6 315.5,133.7 316.4,134.8 317.3,135.9 318.1,136.9 319.0,138.0 319.8,139.0 320.6,140.0 321.4,141.0 322.3,142.1 323.2,143.2 324.1,144.3 324.9,145.4 325.7,146.4 326.6,147.5 327.4,148.5 328.3,149.6 329.1,150.7 330.0,151.8 330.8,152.9 331.7,154.0 332.5,155.0 333.3,156.1 334.2,157.2 335.0,158.3 335.9,159.4 336.7,160.5 337.5,161.6 338.4,162.7 339.2,163.9 340.1,165.0 340.9,166.1 341.7,167.2 342.5,168.3 343.4,169.5 344.2,170.7 345.1,171.8 345.9,173.0 346.7,174.1 347.6,175.3 348.4,176.5 349.2,177.7 350.0,178.9 350.9,180.1 351.7,181.4 352.6,182.6 353.4,183.8 354.2,185.1 355.1,186.4 355.9,187.7 356.7,189.0 357.6,190.4 358.4,191.7 359.2,193.0 360.0,194.4 360.9,195.8 361.7,197.2 362.5,198.6 363.3,200.1 364.2,201.6 365.0,203.1 365.8,204.6 366.6,206.2 367.4,207.7 368.3,209.3 369.1,211.0 369.9,212.7 370.7,214.4 371.5,216.2 372.4,218.0 373.2,219.8 374.0,221.8 374.8,223.7 375.6,225.8 376.4,227.9 377.2,230.1 378.1,232.4 378.9,234.8 379.7,237.3 380.5,239.9 381.3,242.5 382.1,245.4 383.0,248.3 383.8,251.5 384.6,254.9 385.4,258.6 386.2,262.4 387.0,266.7 387.9,271.2 388.7,276.3 389.5,281.9 390.3,288.2 391.1,295.3 391.9,303.7" fill="none" stroke="#9b59b6" stroke-width="1.3" stroke-linejoin="round" clip-path="url(#pc29)"/>
  <defs><clipPath id="pc30"><rect x="442" y="16" width="358" height="155"/></clipPath></defs>
  <polyline points="445.5,94.3 478.1,95.1 497.2,95.9 510.8,96.7 521.3,97.5 529.9,98.3 537.1,99.2 543.4,100.0 549.0,100.8 553.9,101.6 558.4,102.4 562.5,103.2 566.3,104.0 569.8,104.9 573.0,105.7 576.1,106.5 578.9,107.3 581.6,108.2 584.2,109.0 586.6,109.8 588.9,110.6 591.1,111.5 593.2,112.3 595.2,113.1 597.1,114.0 598.9,114.8 600.7,115.7 602.4,116.5 604.1,117.4 605.7,118.2 607.2,119.1 608.7,119.9 610.2,120.8 611.6,121.6 612.9,122.5 614.3,123.3 615.6,124.2 616.8,125.0 618.0,125.9 619.2,126.7 620.4,127.6 621.5,128.4 622.6,129.3 623.7,130.2 624.8,131.0 625.8,131.9 626.8,132.8 627.8,133.6 628.8,134.5 629.7,135.4 630.7,136.2 631.6,137.1 632.5,138.0 633.4,138.9 634.2,139.8 635.1,140.7 635.9,141.6 636.7,142.5 637.5,143.5 639.1,145.4 640.6,147.3 642.1,149.3 643.5,151.3 644.9,153.5 646.2,155.7 647.6,158.0 648.8,160.5 650.1,163.0 651.3,165.7 652.5,168.4 653.6,171.3 654.7,174.2 655.8,177.1 656.9,180.0 657.9,182.9 659.0,185.7 660.0,188.4 660.9,191.0 661.9,193.4 662.8,195.6 663.8,197.7 664.7,199.7 665.6,201.5 666.4,203.2 667.3,204.7 668.1,206.1 669.0,207.5 669.8,208.7 671.0,210.4 672.1,212.0 673.3,213.4 674.4,214.7 675.5,215.8 676.5,216.9 677.6,217.9 678.6,218.8 679.6,219.7 680.5,220.5 681.5,221.3 682.4,222.0 683.3,222.7 684.2,223.3 685.1,223.9 686.0,224.5 686.8,225.0 687.6,225.5 688.5,226.0 689.3,226.5 690.3,227.1 691.4,227.6 692.4,228.2 693.3,228.7 694.3,229.1 695.3,229.6 696.2,230.0 697.1,230.4 698.0,230.8 698.9,231.2 699.7,231.5 700.6,231.9 701.4,232.2 702.2,232.5 703.0,232.8 704.0,233.2 705.0,233.5 705.9,233.9 706.8,234.2 707.7,234.5 708.6,234.8 709.5,235.1 710.4,235.3 711.2,235.6 712.0,235.8 712.9,236.1 713.8,236.3 714.7,236.6 715.7,236.9 716.6,237.1 717.5,237.3 718.3,237.6 719.2,237.8 720.0,238.0 720.8,238.2 721.7,238.4 722.6,238.6 723.5,238.8 724.4,239.0 725.3,239.2 726.1,239.4 727.0,239.5 727.8,239.7 728.6,239.9 729.4,240.0 730.3,240.2 731.2,240.4 732.1,240.5 732.9,240.7 733.7,240.9 734.6,241.0 735.4,241.1 736.3,241.3 737.1,241.4 738.0,241.6 738.8,241.7 739.7,241.9 740.5,242.0 741.3,242.1 742.2,242.2 743.0,242.4 743.9,242.5 744.7,242.6 745.5,242.7 746.4,242.9 747.2,243.0 748.1,243.1 748.9,243.2 749.7,243.3 750.5,243.4 751.4,243.5 752.2,243.6 753.1,243.7 753.9,243.8 754.7,243.9 755.6,244.0 756.4,244.1 757.2,244.2 758.0,244.3 758.9,244.4 759.7,244.5 760.6,244.6 761.4,244.7 762.2,244.8 763.1,244.9 763.9,245.0 764.7,245.0 765.6,245.1 766.4,245.2 767.2,245.3 768.0,245.4 768.9,245.5 769.7,245.5 770.5,245.6 771.3,245.7 772.2,245.8 773.0,245.8 773.8,245.9 774.6,246.0 775.4,246.1 776.3,246.1 777.1,246.2 777.9,246.3 778.7,246.3 779.5,246.4 780.4,246.5 781.2,246.6 782.0,246.6 782.8,246.7 783.6,246.8 784.4,246.8 785.2,246.9 786.1,247.0 786.9,247.0 787.7,247.1 788.5,247.2 789.3,247.2 790.1,247.3 791.0,247.4 791.8,247.4 792.6,247.5 793.4,247.6 794.2,247.6 795.0,247.7 795.9,247.7 796.7,247.8 797.5,247.9 798.3,248.0 799.1,248.0 799.9,248.1" fill="none" stroke="#9b59b6" stroke-width="1.3" stroke-linejoin="round" clip-path="url(#pc30)"/>
  <defs><clipPath id="pc31"><rect x="34" y="221" width="358" height="155"/></clipPath></defs>
  <polyline points="37.5,246.8 70.1,246.8 89.2,246.8 102.8,246.9 113.3,246.9 121.9,246.9 129.1,246.9 135.4,247.0 141.0,247.0 145.9,247.1 150.4,247.2 154.5,247.3 158.3,247.4 161.8,247.5 165.0,247.7 168.1,247.8 170.9,248.0 173.6,248.2 176.2,248.4 178.6,248.6 180.9,248.8 183.1,249.1 185.2,249.3 187.2,249.6 189.1,249.9 190.9,250.2 192.7,250.4 194.4,250.7 196.1,251.0 197.7,251.3 199.2,251.6 200.7,251.8 202.2,252.1 203.6,252.3 204.9,252.6 206.3,252.8 207.6,252.9 208.8,253.1 210.0,253.2 211.2,253.3 212.4,253.4 213.5,253.4 214.6,253.4 215.7,253.4 216.8,253.3 217.8,253.2 218.8,253.0 219.8,252.8 220.8,252.6 221.7,252.3 222.7,252.0 223.6,251.7 224.5,251.3 225.4,250.9 226.2,250.5 227.1,250.0 227.9,249.6 228.7,249.2 229.5,248.7 231.1,247.9 232.6,247.2 234.1,246.9 235.5,246.9 236.9,247.7 238.2,249.2 239.6,251.9 240.8,256.0 242.1,261.7 243.3,269.3 244.5,278.8 245.6,290.0 246.7,302.8 247.8,316.6 248.9,330.6 249.9,344.2 251.0,356.7 252.0,367.5 252.9,376.5 253.9,383.4 254.8,388.5 255.8,391.8 256.7,393.7 257.6,394.5 258.4,394.3 259.3,393.4 260.1,392.0 261.0,390.1 261.8,388.0 263.0,384.6 264.1,380.9 265.3,377.2 266.4,373.5 267.5,369.9 268.5,366.5 269.6,363.2 270.6,360.0 271.6,357.0 272.5,354.1 273.5,351.4 274.4,348.8 275.3,346.3 276.2,344.0 277.1,341.7 278.0,339.6 278.8,337.6 279.6,335.7 280.5,333.8 281.3,332.1 282.3,329.8 283.4,327.7 284.4,325.7 285.3,323.8 286.3,322.0 287.3,320.3 288.2,318.7 289.1,317.2 290.0,315.7 290.9,314.3 291.7,313.0 292.6,311.7 293.4,310.5 294.2,309.3 295.0,308.1 296.0,306.8 297.0,305.5 297.9,304.3 298.8,303.1 299.7,302.0 300.6,300.9 301.5,299.9 302.4,298.9 303.2,298.0 304.0,297.1 304.9,296.2 305.8,295.2 306.7,294.3 307.7,293.3 308.6,292.5 309.5,291.6 310.3,290.8 311.2,290.1 312.0,289.3 312.8,288.6 313.7,288.0 314.6,287.2 315.5,286.5 316.4,285.8 317.3,285.1 318.1,284.5 319.0,283.9 319.8,283.3 320.6,282.7 321.4,282.2 322.3,281.6 323.2,281.0 324.1,280.4 324.9,279.9 325.7,279.4 326.6,278.9 327.4,278.5 328.3,278.0 329.1,277.5 330.0,277.0 330.8,276.6 331.7,276.2 332.5,275.8 333.3,275.4 334.2,275.0 335.0,274.6 335.9,274.2 336.7,273.8 337.5,273.5 338.4,273.1 339.2,272.8 340.1,272.5 340.9,272.2 341.7,271.9 342.5,271.6 343.4,271.3 344.2,271.0 345.1,270.7 345.9,270.5 346.7,270.3 347.6,270.0 348.4,269.8 349.2,269.6 350.0,269.4 350.9,269.2 351.7,269.0 352.6,268.8 353.4,268.6 354.2,268.5 355.1,268.3 355.9,268.2 356.7,268.1 357.6,268.0 358.4,267.9 359.2,267.8 360.0,267.7 360.9,267.6 361.7,267.6 362.5,267.6 363.3,267.5 364.2,267.5 365.0,267.5 365.8,267.6 366.6,267.6 367.4,267.7 368.3,267.8 369.1,267.9 369.9,268.0 370.7,268.1 371.5,268.3 372.4,268.5 373.2,268.8 374.0,269.0 374.8,269.4 375.6,269.7 376.4,270.1 377.2,270.6 378.1,271.1 378.9,271.7 379.7,272.3 380.5,273.1 381.3,273.9 382.1,274.9 383.0,275.9 383.8,277.2 384.6,278.7 385.4,280.4 386.2,282.3 387.0,284.7 387.9,287.6 388.7,291.1 389.5,295.3 390.3,300.8 391.1,307.9 391.9,317.7" fill="none" stroke="#9b59b6" stroke-width="1.3" stroke-linejoin="round" clip-path="url(#pc31)"/>
  <defs><linearGradient id="g32" x1="0" y1="221" x2="0" y2="298.5" gradientUnits="userSpaceOnUse">
    <stop offset="0%" stop-color="#9b59b6" stop-opacity="0.15"/>
    <stop offset="100%" stop-color="#9b59b6" stop-opacity="0.02"/>
  </linearGradient></defs>
  <defs><linearGradient id="g33" x1="0" y1="376" x2="0" y2="298.5" gradientUnits="userSpaceOnUse">
    <stop offset="0%" stop-color="#9b59b6" stop-opacity="0.15"/>
    <stop offset="100%" stop-color="#9b59b6" stop-opacity="0.02"/>
  </linearGradient></defs>
  <defs><clipPath id="c34"><rect x="442" y="221" width="358" height="77.5"/></clipPath></defs>
  <defs><clipPath id="c35"><rect x="442" y="298.5" width="358" height="77.5"/></clipPath></defs>
  <path d="M442.0,298.5 442.0,298.5 444.8,298.5 447.6,298.4 450.4,298.3 453.2,298.2 456.0,297.9 458.8,297.5 461.6,297.1 464.4,296.6 467.2,296.0 470.0,295.3 472.8,294.5 475.6,293.8 478.4,293.0 481.2,292.2 484.0,291.4 486.8,290.7 489.5,289.9 492.3,289.3 495.1,288.7 497.9,288.3 500.7,287.9 503.5,287.6 506.3,287.4 509.1,287.3 511.9,287.4 514.7,287.5 517.5,287.8 520.3,288.2 523.1,288.6 525.9,289.1 528.7,289.7 531.5,290.4 534.3,291.1 537.1,291.9 539.9,292.7 542.7,293.5 545.5,294.3 548.3,295.1 551.1,295.8 553.9,296.6 556.7,297.3 559.5,297.9 562.3,298.5 565.1,299.1 567.9,299.6 570.7,300.0 573.5,300.3 576.3,300.6 579.0,300.8 581.8,301.0 584.6,301.0 587.4,301.1 590.2,301.0 593.0,301.0 595.8,300.8 598.6,300.7 601.4,300.5 604.2,300.3 607.0,300.0 609.8,299.8 612.6,299.5 615.4,299.2 618.2,299.0 621.0,298.7 623.8,298.5 626.6,298.3 629.4,298.1 632.2,297.9 635.0,297.7 637.8,297.6 640.6,297.5 643.4,297.4 646.2,297.3 649.0,297.3 651.8,297.3 654.6,297.3 657.4,297.4 660.2,297.5 663.0,297.5 665.8,297.6 668.5,297.7 671.3,297.8 674.1,298.0 676.9,298.1 679.7,298.2 682.5,298.3 685.3,298.5 688.1,298.6 690.9,298.7 693.7,298.8 696.5,298.8 699.3,298.9 702.1,299.0 704.9,299.0 707.7,299.1 710.5,299.1 713.3,299.1 716.1,299.1 718.9,299.1 721.7,299.1 724.5,299.0 727.3,299.0 730.1,299.0 732.9,298.9 735.7,298.9 738.5,298.8 741.3,298.7 744.1,298.7 746.9,298.6 749.7,298.6 752.5,298.5 755.3,298.5 758.0,298.4 760.8,298.4 763.6,298.3 766.4,298.3 769.2,298.3 772.0,298.3 774.8,298.2 777.6,298.2 780.4,298.2 783.2,298.2 786.0,298.2 788.8,298.2 791.6,298.3 794.4,298.3 797.2,298.3 L797.2,298.5 L442.0,298.5 Z" fill="url(#g32)" clip-path="url(#c34)"/>
  <path d="M442.0,298.5 442.0,298.5 444.8,298.5 447.6,298.4 450.4,298.3 453.2,298.2 456.0,297.9 458.8,297.5 461.6,297.1 464.4,296.6 467.2,296.0 470.0,295.3 472.8,294.5 475.6,293.8 478.4,293.0 481.2,292.2 484.0,291.4 486.8,290.7 489.5,289.9 492.3,289.3 495.1,288.7 497.9,288.3 500.7,287.9 503.5,287.6 506.3,287.4 509.1,287.3 511.9,287.4 514.7,287.5 517.5,287.8 520.3,288.2 523.1,288.6 525.9,289.1 528.7,289.7 531.5,290.4 534.3,291.1 537.1,291.9 539.9,292.7 542.7,293.5 545.5,294.3 548.3,295.1 551.1,295.8 553.9,296.6 556.7,297.3 559.5,297.9 562.3,298.5 565.1,299.1 567.9,299.6 570.7,300.0 573.5,300.3 576.3,300.6 579.0,300.8 581.8,301.0 584.6,301.0 587.4,301.1 590.2,301.0 593.0,301.0 595.8,300.8 598.6,300.7 601.4,300.5 604.2,300.3 607.0,300.0 609.8,299.8 612.6,299.5 615.4,299.2 618.2,299.0 621.0,298.7 623.8,298.5 626.6,298.3 629.4,298.1 632.2,297.9 635.0,297.7 637.8,297.6 640.6,297.5 643.4,297.4 646.2,297.3 649.0,297.3 651.8,297.3 654.6,297.3 657.4,297.4 660.2,297.5 663.0,297.5 665.8,297.6 668.5,297.7 671.3,297.8 674.1,298.0 676.9,298.1 679.7,298.2 682.5,298.3 685.3,298.5 688.1,298.6 690.9,298.7 693.7,298.8 696.5,298.8 699.3,298.9 702.1,299.0 704.9,299.0 707.7,299.1 710.5,299.1 713.3,299.1 716.1,299.1 718.9,299.1 721.7,299.1 724.5,299.0 727.3,299.0 730.1,299.0 732.9,298.9 735.7,298.9 738.5,298.8 741.3,298.7 744.1,298.7 746.9,298.6 749.7,298.6 752.5,298.5 755.3,298.5 758.0,298.4 760.8,298.4 763.6,298.3 766.4,298.3 769.2,298.3 772.0,298.3 774.8,298.2 777.6,298.2 780.4,298.2 783.2,298.2 786.0,298.2 788.8,298.2 791.6,298.3 794.4,298.3 797.2,298.3 L797.2,298.5 L442.0,298.5 Z" fill="url(#g33)" clip-path="url(#c35)"/>
  <defs><clipPath id="pc36"><rect x="442" y="221" width="358" height="155"/></clipPath></defs>
  <polyline points="442.0,298.5 444.8,298.5 447.6,298.4 450.4,298.3 453.2,298.2 456.0,297.9 458.8,297.5 461.6,297.1 464.4,296.6 467.2,296.0 470.0,295.3 472.8,294.5 475.6,293.8 478.4,293.0 481.2,292.2 484.0,291.4 486.8,290.7 489.5,289.9 492.3,289.3 495.1,288.7 497.9,288.3 500.7,287.9 503.5,287.6 506.3,287.4 509.1,287.3 511.9,287.4 514.7,287.5 517.5,287.8 520.3,288.2 523.1,288.6 525.9,289.1 528.7,289.7 531.5,290.4 534.3,291.1 537.1,291.9 539.9,292.7 542.7,293.5 545.5,294.3 548.3,295.1 551.1,295.8 553.9,296.6 556.7,297.3 559.5,297.9 562.3,298.5 565.1,299.1 567.9,299.6 570.7,300.0 573.5,300.3 576.3,300.6 579.0,300.8 581.8,301.0 584.6,301.0 587.4,301.1 590.2,301.0 593.0,301.0 595.8,300.8 598.6,300.7 601.4,300.5 604.2,300.3 607.0,300.0 609.8,299.8 612.6,299.5 615.4,299.2 618.2,299.0 621.0,298.7 623.8,298.5 626.6,298.3 629.4,298.1 632.2,297.9 635.0,297.7 637.8,297.6 640.6,297.5 643.4,297.4 646.2,297.3 649.0,297.3 651.8,297.3 654.6,297.3 657.4,297.4 660.2,297.5 663.0,297.5 665.8,297.6 668.5,297.7 671.3,297.8 674.1,298.0 676.9,298.1 679.7,298.2 682.5,298.3 685.3,298.5 688.1,298.6 690.9,298.7 693.7,298.8 696.5,298.8 699.3,298.9 702.1,299.0 704.9,299.0 707.7,299.1 710.5,299.1 713.3,299.1 716.1,299.1 718.9,299.1 721.7,299.1 724.5,299.0 727.3,299.0 730.1,299.0 732.9,298.9 735.7,298.9 738.5,298.8 741.3,298.7 744.1,298.7 746.9,298.6 749.7,298.6 752.5,298.5 755.3,298.5 758.0,298.4 760.8,298.4 763.6,298.3 766.4,298.3 769.2,298.3 772.0,298.3 774.8,298.2 777.6,298.2 780.4,298.2 783.2,298.2 786.0,298.2 788.8,298.2 791.6,298.3 794.4,298.3 797.2,298.3" fill="none" stroke="#9b59b6" stroke-width="1.3" stroke-linejoin="round" clip-path="url(#pc36)"/>
  <rect x="48" y="95" width="92" height="70" fill="white" fill-opacity="0.85" rx="3"/>
  <line x1="54" y1="106" x2="66" y2="106" stroke="#4a90d9" stroke-width="2"/>
  <text x="70" y="109" font-size="8" fill="#6b7280">Butterworth</text>
  <line x1="54" y1="118" x2="66" y2="118" stroke="#e74c3c" stroke-width="2"/>
  <text x="70" y="121" font-size="8" fill="#6b7280">Chebyshev I</text>
  <line x1="54" y1="130" x2="66" y2="130" stroke="#2ecc71" stroke-width="2"/>
  <text x="70" y="133" font-size="8" fill="#6b7280">Elliptic</text>
  <line x1="54" y1="142" x2="66" y2="142" stroke="#f39c12" stroke-width="2"/>
  <text x="70" y="145" font-size="8" fill="#6b7280">Bessel</text>
  <line x1="54" y1="154" x2="66" y2="154" stroke="#9b59b6" stroke-width="2"/>
  <text x="70" y="157" font-size="8" fill="#6b7280">Legendre</text>
</svg>
