<svg xmlns="http://www.w3.org/2000/svg" viewBox="0 0 820 392" style="font-family:system-ui,-apple-system,sans-serif">
  <text x="800" y="11" text-anchor="end" font-size="11" font-weight="600" fill="#6b7280">Integrator (Simpson's rule)</text>
  <line x1="34" y1="16" x2="34" y2="171" stroke="#d1d5db"/>
  <line x1="34" y1="47.0" x2="392" y2="47.0" stroke="#d1d5db"/>
  <text x="213" y="197" text-anchor="middle" font-size="9" fill="#6b7280">Hz</text>
  <text x="12" y="93.5" text-anchor="middle" font-size="9" fill="#6b7280" transform="rotate(-90 12 93.5)">dB</text>
  <line x1="66.6" y1="16" x2="66.6" y2="171" stroke="#e5e7eb" stroke-width="0.5"/>
  <line x1="85.7" y1="16" x2="85.7" y2="171" stroke="#e5e7eb" stroke-width="0.5"/>
  <line x1="99.3" y1="16" x2="99.3" y2="171" stroke="#e5e7eb" stroke-width="0.5"/>
  <line x1="109.8" y1="16" x2="109.8" y2="171" stroke="#e5e7eb" stroke-width="0.5"/>
  <line x1="118.4" y1="16" x2="118.4" y2="171" stroke="#e5e7eb" stroke-width="0.5"/>
  <line x1="125.7" y1="16" x2="125.7" y2="171" stroke="#e5e7eb" stroke-width="0.5"/>
  <line x1="131.9" y1="16" x2="131.9" y2="171" stroke="#e5e7eb" stroke-width="0.5"/>
  <line x1="137.5" y1="16" x2="137.5" y2="171" stroke="#e5e7eb" stroke-width="0.5"/>
  <line x1="175.1" y1="16" x2="175.1" y2="171" stroke="#e5e7eb" stroke-width="0.5"/>
  <line x1="194.2" y1="16" x2="194.2" y2="171" stroke="#e5e7eb" stroke-width="0.5"/>
  <line x1="207.7" y1="16" x2="207.7" y2="171" stroke="#e5e7eb" stroke-width="0.5"/>
  <line x1="218.3" y1="16" x2="218.3" y2="171" stroke="#e5e7eb" stroke-width="0.5"/>
  <line x1="226.8" y1="16" x2="226.8" y2="171" stroke="#e5e7eb" stroke-width="0.5"/>
  <line x1="234.1" y1="16" x2="234.1" y2="171" stroke="#e5e7eb" stroke-width="0.5"/>
  <line x1="240.4" y1="16" x2="240.4" y2="171" stroke="#e5e7eb" stroke-width="0.5"/>
  <line x1="245.9" y1="16" x2="245.9" y2="171" stroke="#e5e7eb" stroke-width="0.5"/>
  <line x1="283.5" y1="16" x2="283.5" y2="171" stroke="#e5e7eb" stroke-width="0.5"/>
  <line x1="302.6" y1="16" x2="302.6" y2="171" stroke="#e5e7eb" stroke-width="0.5"/>
  <line x1="316.2" y1="16" x2="316.2" y2="171" stroke="#e5e7eb" stroke-width="0.5"/>
  <line x1="326.7" y1="16" x2="326.7" y2="171" stroke="#e5e7eb" stroke-width="0.5"/>
  <line x1="335.3" y1="16" x2="335.3" y2="171" stroke="#e5e7eb" stroke-width="0.5"/>
  <line x1="342.6" y1="16" x2="342.6" y2="171" stroke="#e5e7eb" stroke-width="0.5"/>
  <line x1="348.8" y1="16" x2="348.8" y2="171" stroke="#e5e7eb" stroke-width="0.5"/>
  <line x1="354.4" y1="16" x2="354.4" y2="171" stroke="#e5e7eb" stroke-width="0.5"/>
  <line x1="392.0" y1="16" x2="392.0" y2="171" stroke="#e5e7eb" stroke-width="0.5"/>
  <line x1="142.5" y1="16" x2="142.5" y2="171" stroke="#e5e7eb" stroke-width="0.5"/>
  <text x="142.5" y="183" text-anchor="middle" font-size="8" fill="#6b7280">100</text>
  <line x1="250.9" y1="16" x2="250.9" y2="171" stroke="#e5e7eb" stroke-width="0.5"/>
  <text x="250.9" y="183" text-anchor="middle" font-size="8" fill="#6b7280">1k</text>
  <line x1="359.4" y1="16" x2="359.4" y2="171" stroke="#e5e7eb" stroke-width="0.5"/>
  <text x="359.4" y="183" text-anchor="middle" font-size="8" fill="#6b7280">10k</text>
  <line x1="34" y1="31.5" x2="392" y2="31.5" stroke="#e5e7eb" stroke-width="0.5"/>
  <line x1="34" y1="62.5" x2="392" y2="62.5" stroke="#e5e7eb" stroke-width="0.5"/>
  <line x1="34" y1="16.0" x2="392" y2="16.0" stroke="#e5e7eb" stroke-width="0.5"/>
  <text x="30" y="19.0" text-anchor="end" font-size="8" fill="#6b7280">+20</text>
  <text x="30" y="50.0" text-anchor="end" font-size="8" fill="#6b7280">0</text>
  <line x1="34" y1="78.0" x2="392" y2="78.0" stroke="#e5e7eb" stroke-width="0.5"/>
  <text x="30" y="81.0" text-anchor="end" font-size="8" fill="#6b7280">-20</text>
  <line x1="34" y1="109.0" x2="392" y2="109.0" stroke="#e5e7eb" stroke-width="0.5"/>
  <text x="30" y="112.0" text-anchor="end" font-size="8" fill="#6b7280">-40</text>
  <line x1="34" y1="140.0" x2="392" y2="140.0" stroke="#e5e7eb" stroke-width="0.5"/>
  <text x="30" y="143.0" text-anchor="end" font-size="8" fill="#6b7280">-60</text>
  <line x1="34" y1="171.0" x2="392" y2="171.0" stroke="#e5e7eb" stroke-width="0.5"/>
  <text x="30" y="174.0" text-anchor="end" font-size="8" fill="#6b7280">-80</text>
  <defs><linearGradient id="g566" x1="0" y1="16" x2="0" y2="171" gradientUnits="userSpaceOnUse">
    <stop offset="0%" stop-color="#4a90d9" stop-opacity="0.15"/>
    <stop offset="100%" stop-color="#4a90d9" stop-opacity="0.02"/>
  </linearGradient></defs>
  <path d="M37.5,47.0 37.5,47.0 70.1,47.0 89.2,47.0 102.8,47.0 113.3,47.0 121.9,47.0 129.1,47.0 135.4,47.0 141.0,47.0 145.9,47.0 150.4,47.0 154.5,47.0 158.3,47.0 161.8,47.0 165.0,47.0 168.1,47.0 170.9,47.0 173.6,47.0 176.2,47.0 178.6,47.0 180.9,47.0 183.1,47.0 185.2,47.0 187.2,47.0 189.1,47.0 190.9,47.0 192.7,47.0 194.4,47.0 196.1,47.0 197.7,47.0 199.2,47.0 200.7,47.0 202.2,47.0 203.6,47.0 204.9,47.0 206.3,47.0 207.6,47.0 208.8,47.0 210.0,47.0 211.2,47.0 212.4,47.0 213.5,47.0 214.6,47.0 215.7,47.0 216.8,47.0 217.8,47.0 218.8,47.0 219.8,47.0 220.8,47.0 221.7,47.0 222.7,47.0 223.6,47.0 224.5,47.0 225.4,47.0 226.2,47.0 227.1,47.0 227.9,47.0 228.7,47.0 229.5,47.0 231.1,47.0 232.6,47.0 234.1,47.0 235.5,47.0 236.9,47.0 238.2,47.0 239.6,47.0 240.8,47.0 242.1,47.0 243.3,47.0 244.5,47.0 245.6,47.0 246.7,47.0 247.8,47.0 248.9,47.0 249.9,47.0 251.0,47.0 252.0,47.0 252.9,47.0 253.9,47.1 254.8,47.1 255.8,47.1 256.7,47.1 257.6,47.1 258.4,47.1 259.3,47.1 260.1,47.1 261.0,47.1 261.8,47.1 263.0,47.1 264.1,47.1 265.3,47.1 266.4,47.1 267.5,47.1 268.5,47.1 269.6,47.1 270.6,47.1 271.6,47.1 272.5,47.1 273.5,47.1 274.4,47.1 275.3,47.1 276.2,47.1 277.1,47.1 278.0,47.1 278.8,47.1 279.6,47.2 280.5,47.2 281.3,47.2 282.3,47.2 283.4,47.2 284.4,47.2 285.3,47.2 286.3,47.2 287.3,47.2 288.2,47.2 289.1,47.2 290.0,47.2 290.9,47.2 291.7,47.3 292.6,47.3 293.4,47.3 294.2,47.3 295.0,47.3 296.0,47.3 297.0,47.3 297.9,47.3 298.8,47.3 299.7,47.4 300.6,47.4 301.5,47.4 302.4,47.4 303.2,47.4 304.0,47.4 304.9,47.5 305.8,47.5 306.7,47.5 307.7,47.5 308.6,47.5 309.5,47.5 310.3,47.6 311.2,47.6 312.0,47.6 312.8,47.6 313.7,47.7 314.6,47.7 315.5,47.7 316.4,47.7 317.3,47.8 318.1,47.8 319.0,47.8 319.8,47.8 320.6,47.9 321.4,47.9 322.3,47.9 323.2,48.0 324.1,48.0 324.9,48.1 325.7,48.1 326.6,48.1 327.4,48.2 328.3,48.2 329.1,48.3 330.0,48.3 330.8,48.4 331.7,48.4 332.5,48.5 333.3,48.5 334.2,48.6 335.0,48.6 335.9,48.7 336.7,48.7 337.5,48.8 338.4,48.9 339.2,48.9 340.1,49.0 340.9,49.1 341.7,49.2 342.5,49.2 343.4,49.3 344.2,49.4 345.1,49.5 345.9,49.6 346.7,49.7 347.6,49.8 348.4,49.9 349.2,50.0 350.0,50.1 350.9,50.2 351.7,50.3 352.6,50.4 353.4,50.5 354.2,50.6 355.1,50.8 355.9,50.9 356.7,51.0 357.6,51.2 358.4,51.3 359.2,51.5 360.0,51.6 360.9,51.8 361.7,52.0 362.5,52.1 363.3,52.3 364.2,52.5 365.0,52.7 365.8,52.9 366.6,53.1 367.4,53.3 368.3,53.5 369.1,53.7 369.9,54.0 370.7,54.2 371.5,54.4 372.4,54.7 373.2,54.9 374.0,55.2 374.8,55.4 375.6,55.7 376.4,56.0 377.2,56.2 378.1,56.5 378.9,56.8 379.7,57.1 380.5,57.4 381.3,57.7 382.1,58.0 383.0,58.3 383.8,58.6 384.6,58.9 385.4,59.2 386.2,59.5 387.0,59.8 387.9,60.0 388.7,60.3 389.5,60.6 390.3,60.8 391.1,61.0 391.9,61.2 L391.9,171.0 L37.5,171.0 Z" fill="url(#g566)"/>
  <defs><clipPath id="pc567"><rect x="34" y="16" width="358" height="155"/></clipPath></defs>
  <polyline points="37.5,47.0 70.1,47.0 89.2,47.0 102.8,47.0 113.3,47.0 121.9,47.0 129.1,47.0 135.4,47.0 141.0,47.0 145.9,47.0 150.4,47.0 154.5,47.0 158.3,47.0 161.8,47.0 165.0,47.0 168.1,47.0 170.9,47.0 173.6,47.0 176.2,47.0 178.6,47.0 180.9,47.0 183.1,47.0 185.2,47.0 187.2,47.0 189.1,47.0 190.9,47.0 192.7,47.0 194.4,47.0 196.1,47.0 197.7,47.0 199.2,47.0 200.7,47.0 202.2,47.0 203.6,47.0 204.9,47.0 206.3,47.0 207.6,47.0 208.8,47.0 210.0,47.0 211.2,47.0 212.4,47.0 213.5,47.0 214.6,47.0 215.7,47.0 216.8,47.0 217.8,47.0 218.8,47.0 219.8,47.0 220.8,47.0 221.7,47.0 222.7,47.0 223.6,47.0 224.5,47.0 225.4,47.0 226.2,47.0 227.1,47.0 227.9,47.0 228.7,47.0 229.5,47.0 231.1,47.0 232.6,47.0 234.1,47.0 235.5,47.0 236.9,47.0 238.2,47.0 239.6,47.0 240.8,47.0 242.1,47.0 243.3,47.0 244.5,47.0 245.6,47.0 246.7,47.0 247.8,47.0 248.9,47.0 249.9,47.0 251.0,47.0 252.0,47.0 252.9,47.0 253.9,47.1 254.8,47.1 255.8,47.1 256.7,47.1 257.6,47.1 258.4,47.1 259.3,47.1 260.1,47.1 261.0,47.1 261.8,47.1 263.0,47.1 264.1,47.1 265.3,47.1 266.4,47.1 267.5,47.1 268.5,47.1 269.6,47.1 270.6,47.1 271.6,47.1 272.5,47.1 273.5,47.1 274.4,47.1 275.3,47.1 276.2,47.1 277.1,47.1 278.0,47.1 278.8,47.1 279.6,47.2 280.5,47.2 281.3,47.2 282.3,47.2 283.4,47.2 284.4,47.2 285.3,47.2 286.3,47.2 287.3,47.2 288.2,47.2 289.1,47.2 290.0,47.2 290.9,47.2 291.7,47.3 292.6,47.3 293.4,47.3 294.2,47.3 295.0,47.3 296.0,47.3 297.0,47.3 297.9,47.3 298.8,47.3 299.7,47.4 300.6,47.4 301.5,47.4 302.4,47.4 303.2,47.4 304.0,47.4 304.9,47.5 305.8,47.5 306.7,47.5 307.7,47.5 308.6,47.5 309.5,47.5 310.3,47.6 311.2,47.6 312.0,47.6 312.8,47.6 313.7,47.7 314.6,47.7 315.5,47.7 316.4,47.7 317.3,47.8 318.1,47.8 319.0,47.8 319.8,47.8 320.6,47.9 321.4,47.9 322.3,47.9 323.2,48.0 324.1,48.0 324.9,48.1 325.7,48.1 326.6,48.1 327.4,48.2 328.3,48.2 329.1,48.3 330.0,48.3 330.8,48.4 331.7,48.4 332.5,48.5 333.3,48.5 334.2,48.6 335.0,48.6 335.9,48.7 336.7,48.7 337.5,48.8 338.4,48.9 339.2,48.9 340.1,49.0 340.9,49.1 341.7,49.2 342.5,49.2 343.4,49.3 344.2,49.4 345.1,49.5 345.9,49.6 346.7,49.7 347.6,49.8 348.4,49.9 349.2,50.0 350.0,50.1 350.9,50.2 351.7,50.3 352.6,50.4 353.4,50.5 354.2,50.6 355.1,50.8 355.9,50.9 356.7,51.0 357.6,51.2 358.4,51.3 359.2,51.5 360.0,51.6 360.9,51.8 361.7,52.0 362.5,52.1 363.3,52.3 364.2,52.5 365.0,52.7 365.8,52.9 366.6,53.1 367.4,53.3 368.3,53.5 369.1,53.7 369.9,54.0 370.7,54.2 371.5,54.4 372.4,54.7 373.2,54.9 374.0,55.2 374.8,55.4 375.6,55.7 376.4,56.0 377.2,56.2 378.1,56.5 378.9,56.8 379.7,57.1 380.5,57.4 381.3,57.7 382.1,58.0 383.0,58.3 383.8,58.6 384.6,58.9 385.4,59.2 386.2,59.5 387.0,59.8 387.9,60.0 388.7,60.3 389.5,60.6 390.3,60.8 391.1,61.0 391.9,61.2" fill="none" stroke="#4a90d9" stroke-width="1.5" stroke-linejoin="round" clip-path="url(#pc567)"/>
  <line x1="442" y1="16" x2="442" y2="171" stroke="#d1d5db"/>
  <line x1="442" y1="93.5" x2="800" y2="93.5" stroke="#d1d5db"/>
  <text x="621" y="197" text-anchor="middle" font-size="9" fill="#6b7280">Hz</text>
  <text x="420" y="93.5" text-anchor="middle" font-size="9" fill="#6b7280" transform="rotate(-90 420 93.5)">Phase (deg)</text>
  <line x1="474.6" y1="16" x2="474.6" y2="171" stroke="#e5e7eb" stroke-width="0.5"/>
  <line x1="493.7" y1="16" x2="493.7" y2="171" stroke="#e5e7eb" stroke-width="0.5"/>
  <line x1="507.3" y1="16" x2="507.3" y2="171" stroke="#e5e7eb" stroke-width="0.5"/>
  <line x1="517.8" y1="16" x2="517.8" y2="171" stroke="#e5e7eb" stroke-width="0.5"/>
  <line x1="526.4" y1="16" x2="526.4" y2="171" stroke="#e5e7eb" stroke-width="0.5"/>
  <line x1="533.7" y1="16" x2="533.7" y2="171" stroke="#e5e7eb" stroke-width="0.5"/>
  <line x1="539.9" y1="16" x2="539.9" y2="171" stroke="#e5e7eb" stroke-width="0.5"/>
  <line x1="545.5" y1="16" x2="545.5" y2="171" stroke="#e5e7eb" stroke-width="0.5"/>
  <line x1="583.1" y1="16" x2="583.1" y2="171" stroke="#e5e7eb" stroke-width="0.5"/>
  <line x1="602.2" y1="16" x2="602.2" y2="171" stroke="#e5e7eb" stroke-width="0.5"/>
  <line x1="615.7" y1="16" x2="615.7" y2="171" stroke="#e5e7eb" stroke-width="0.5"/>
  <line x1="626.3" y1="16" x2="626.3" y2="171" stroke="#e5e7eb" stroke-width="0.5"/>
  <line x1="634.8" y1="16" x2="634.8" y2="171" stroke="#e5e7eb" stroke-width="0.5"/>
  <line x1="642.1" y1="16" x2="642.1" y2="171" stroke="#e5e7eb" stroke-width="0.5"/>
  <line x1="648.4" y1="16" x2="648.4" y2="171" stroke="#e5e7eb" stroke-width="0.5"/>
  <line x1="653.9" y1="16" x2="653.9" y2="171" stroke="#e5e7eb" stroke-width="0.5"/>
  <line x1="691.5" y1="16" x2="691.5" y2="171" stroke="#e5e7eb" stroke-width="0.5"/>
  <line x1="710.6" y1="16" x2="710.6" y2="171" stroke="#e5e7eb" stroke-width="0.5"/>
  <line x1="724.2" y1="16" x2="724.2" y2="171" stroke="#e5e7eb" stroke-width="0.5"/>
  <line x1="734.7" y1="16" x2="734.7" y2="171" stroke="#e5e7eb" stroke-width="0.5"/>
  <line x1="743.3" y1="16" x2="743.3" y2="171" stroke="#e5e7eb" stroke-width="0.5"/>
  <line x1="750.6" y1="16" x2="750.6" y2="171" stroke="#e5e7eb" stroke-width="0.5"/>
  <line x1="756.8" y1="16" x2="756.8" y2="171" stroke="#e5e7eb" stroke-width="0.5"/>
  <line x1="762.4" y1="16" x2="762.4" y2="171" stroke="#e5e7eb" stroke-width="0.5"/>
  <line x1="800.0" y1="16" x2="800.0" y2="171" stroke="#e5e7eb" stroke-width="0.5"/>
  <line x1="550.5" y1="16" x2="550.5" y2="171" stroke="#e5e7eb" stroke-width="0.5"/>
  <text x="550.5" y="183" text-anchor="middle" font-size="8" fill="#6b7280">100</text>
  <line x1="658.9" y1="16" x2="658.9" y2="171" stroke="#e5e7eb" stroke-width="0.5"/>
  <text x="658.9" y="183" text-anchor="middle" font-size="8" fill="#6b7280">1k</text>
  <line x1="767.4" y1="16" x2="767.4" y2="171" stroke="#e5e7eb" stroke-width="0.5"/>
  <text x="767.4" y="183" text-anchor="middle" font-size="8" fill="#6b7280">10k</text>
  <line x1="442" y1="54.8" x2="800" y2="54.8" stroke="#e5e7eb" stroke-width="0.5"/>
  <line x1="442" y1="132.3" x2="800" y2="132.3" stroke="#e5e7eb" stroke-width="0.5"/>
  <line x1="442" y1="16.0" x2="800" y2="16.0" stroke="#e5e7eb" stroke-width="0.5"/>
  <text x="438" y="19.0" text-anchor="end" font-size="8" fill="#6b7280">180</text>
  <text x="438" y="96.5" text-anchor="end" font-size="8" fill="#6b7280">0</text>
  <line x1="442" y1="171.0" x2="800" y2="171.0" stroke="#e5e7eb" stroke-width="0.5"/>
  <text x="438" y="174.0" text-anchor="end" font-size="8" fill="#6b7280">-180</text>
  <defs><linearGradient id="g568" x1="0" y1="171" x2="0" y2="93.5" gradientUnits="userSpaceOnUse">
    <stop offset="0%" stop-color="#e74c3c" stop-opacity="0.15"/>
    <stop offset="100%" stop-color="#e74c3c" stop-opacity="0.02"/>
  </linearGradient></defs>
  <path d="M445.5,93.5 445.5,93.5 478.1,93.6 497.2,93.6 510.8,93.7 521.3,93.7 529.9,93.7 537.1,93.8 543.4,93.8 549.0,93.8 553.9,93.9 558.4,93.9 562.5,94.0 566.3,94.0 569.8,94.0 573.0,94.1 576.1,94.1 578.9,94.1 581.6,94.2 584.2,94.2 586.6,94.3 588.9,94.3 591.1,94.3 593.2,94.4 595.2,94.4 597.1,94.4 598.9,94.5 600.7,94.5 602.4,94.6 604.1,94.6 605.7,94.6 607.2,94.7 608.7,94.7 610.2,94.7 611.6,94.8 612.9,94.8 614.3,94.9 615.6,94.9 616.8,94.9 618.0,95.0 619.2,95.0 620.4,95.1 621.5,95.1 622.6,95.1 623.7,95.2 624.8,95.2 625.8,95.2 626.8,95.3 627.8,95.3 628.8,95.4 629.7,95.4 630.7,95.4 631.6,95.5 632.5,95.5 633.4,95.5 634.2,95.6 635.1,95.6 635.9,95.7 636.7,95.7 637.5,95.7 639.1,95.8 640.6,95.9 642.1,96.0 643.5,96.0 644.9,96.1 646.2,96.2 647.6,96.3 648.8,96.3 650.1,96.4 651.3,96.5 652.5,96.6 653.6,96.6 654.7,96.7 655.8,96.8 656.9,96.9 657.9,96.9 659.0,97.0 660.0,97.1 660.9,97.2 661.9,97.2 662.8,97.3 663.8,97.4 664.7,97.5 665.6,97.5 666.4,97.6 667.3,97.7 668.1,97.8 669.0,97.9 669.8,97.9 671.0,98.0 672.1,98.2 673.3,98.3 674.4,98.4 675.5,98.5 676.5,98.6 677.6,98.7 678.6,98.8 679.6,98.9 680.5,99.1 681.5,99.2 682.4,99.3 683.3,99.4 684.2,99.5 685.1,99.6 686.0,99.7 686.8,99.9 687.6,100.0 688.5,100.1 689.3,100.2 690.3,100.3 691.4,100.5 692.4,100.7 693.3,100.8 694.3,101.0 695.3,101.1 696.2,101.3 697.1,101.4 698.0,101.6 698.9,101.7 699.7,101.9 700.6,102.0 701.4,102.2 702.2,102.3 703.0,102.5 704.0,102.7 705.0,102.8 705.9,103.0 706.8,103.2 707.7,103.4 708.6,103.6 709.5,103.8 710.4,104.0 711.2,104.2 712.0,104.4 712.9,104.5 713.8,104.8 714.7,105.0 715.7,105.2 716.6,105.5 717.5,105.7 718.3,105.9 719.2,106.1 720.0,106.4 720.8,106.6 721.7,106.8 722.6,107.1 723.5,107.4 724.4,107.6 725.3,107.9 726.1,108.1 727.0,108.4 727.8,108.7 728.6,108.9 729.4,109.2 730.3,109.5 731.2,109.8 732.1,110.1 732.9,110.4 733.7,110.7 734.6,111.0 735.4,111.3 736.3,111.7 737.1,112.0 738.0,112.3 738.8,112.7 739.7,113.0 740.5,113.4 741.3,113.7 742.2,114.1 743.0,114.5 743.9,114.8 744.7,115.2 745.5,115.6 746.4,116.0 747.2,116.4 748.1,116.8 748.9,117.3 749.7,117.7 750.5,118.1 751.4,118.6 752.2,119.0 753.1,119.5 753.9,119.9 754.7,120.4 755.6,120.9 756.4,121.4 757.2,121.8 758.0,122.3 758.9,122.9 759.7,123.4 760.6,123.9 761.4,124.5 762.2,125.0 763.1,125.6 763.9,126.2 764.7,126.7 765.6,127.3 766.4,127.9 767.2,128.5 768.0,129.1 768.9,129.8 769.7,130.4 770.5,131.1 771.3,131.8 772.2,132.4 773.0,133.1 773.8,133.8 774.6,134.5 775.4,135.2 776.3,136.0 777.1,136.7 777.9,137.5 778.7,138.2 779.5,139.0 780.4,139.8 781.2,140.6 782.0,141.4 782.8,142.3 783.6,143.1 784.4,144.0 785.2,144.9 786.1,145.8 786.9,146.7 787.7,147.7 788.5,148.6 789.3,149.5 790.1,150.5 791.0,151.5 791.8,152.5 792.6,153.6 793.4,154.6 794.2,155.7 795.0,156.8 795.9,157.9 796.7,159.0 797.5,160.1 798.3,161.3 799.1,162.5 799.9,163.7 L799.9,93.5 L445.5,93.5 Z" fill="url(#g568)"/>
  <defs><clipPath id="pc569"><rect x="442" y="16" width="358" height="155"/></clipPath></defs>
  <polyline points="445.5,93.5 478.1,93.6 497.2,93.6 510.8,93.7 521.3,93.7 529.9,93.7 537.1,93.8 543.4,93.8 549.0,93.8 553.9,93.9 558.4,93.9 562.5,94.0 566.3,94.0 569.8,94.0 573.0,94.1 576.1,94.1 578.9,94.1 581.6,94.2 584.2,94.2 586.6,94.3 588.9,94.3 591.1,94.3 593.2,94.4 595.2,94.4 597.1,94.4 598.9,94.5 600.7,94.5 602.4,94.6 604.1,94.6 605.7,94.6 607.2,94.7 608.7,94.7 610.2,94.7 611.6,94.8 612.9,94.8 614.3,94.9 615.6,94.9 616.8,94.9 618.0,95.0 619.2,95.0 620.4,95.1 621.5,95.1 622.6,95.1 623.7,95.2 624.8,95.2 625.8,95.2 626.8,95.3 627.8,95.3 628.8,95.4 629.7,95.4 630.7,95.4 631.6,95.5 632.5,95.5 633.4,95.5 634.2,95.6 635.1,95.6 635.9,95.7 636.7,95.7 637.5,95.7 639.1,95.8 640.6,95.9 642.1,96.0 643.5,96.0 644.9,96.1 646.2,96.2 647.6,96.3 648.8,96.3 650.1,96.4 651.3,96.5 652.5,96.6 653.6,96.6 654.7,96.7 655.8,96.8 656.9,96.9 657.9,96.9 659.0,97.0 660.0,97.1 660.9,97.2 661.9,97.2 662.8,97.3 663.8,97.4 664.7,97.5 665.6,97.5 666.4,97.6 667.3,97.7 668.1,97.8 669.0,97.9 669.8,97.9 671.0,98.0 672.1,98.2 673.3,98.3 674.4,98.4 675.5,98.5 676.5,98.6 677.6,98.7 678.6,98.8 679.6,98.9 680.5,99.1 681.5,99.2 682.4,99.3 683.3,99.4 684.2,99.5 685.1,99.6 686.0,99.7 686.8,99.9 687.6,100.0 688.5,100.1 689.3,100.2 690.3,100.3 691.4,100.5 692.4,100.7 693.3,100.8 694.3,101.0 695.3,101.1 696.2,101.3 697.1,101.4 698.0,101.6 698.9,101.7 699.7,101.9 700.6,102.0 701.4,102.2 702.2,102.3 703.0,102.5 704.0,102.7 705.0,102.8 705.9,103.0 706.8,103.2 707.7,103.4 708.6,103.6 709.5,103.8 710.4,104.0 711.2,104.2 712.0,104.4 712.9,104.5 713.8,104.8 714.7,105.0 715.7,105.2 716.6,105.5 717.5,105.7 718.3,105.9 719.2,106.1 720.0,106.4 720.8,106.6 721.7,106.8 722.6,107.1 723.5,107.4 724.4,107.6 725.3,107.9 726.1,108.1 727.0,108.4 727.8,108.7 728.6,108.9 729.4,109.2 730.3,109.5 731.2,109.8 732.1,110.1 732.9,110.4 733.7,110.7 734.6,111.0 735.4,111.3 736.3,111.7 737.1,112.0 738.0,112.3 738.8,112.7 739.7,113.0 740.5,113.4 741.3,113.7 742.2,114.1 743.0,114.5 743.9,114.8 744.7,115.2 745.5,115.6 746.4,116.0 747.2,116.4 748.1,116.8 748.9,117.3 749.7,117.7 750.5,118.1 751.4,118.6 752.2,119.0 753.1,119.5 753.9,119.9 754.7,120.4 755.6,120.9 756.4,121.4 757.2,121.8 758.0,122.3 758.9,122.9 759.7,123.4 760.6,123.9 761.4,124.5 762.2,125.0 763.1,125.6 763.9,126.2 764.7,126.7 765.6,127.3 766.4,127.9 767.2,128.5 768.0,129.1 768.9,129.8 769.7,130.4 770.5,131.1 771.3,131.8 772.2,132.4 773.0,133.1 773.8,133.8 774.6,134.5 775.4,135.2 776.3,136.0 777.1,136.7 777.9,137.5 778.7,138.2 779.5,139.0 780.4,139.8 781.2,140.6 782.0,141.4 782.8,142.3 783.6,143.1 784.4,144.0 785.2,144.9 786.1,145.8 786.9,146.7 787.7,147.7 788.5,148.6 789.3,149.5 790.1,150.5 791.0,151.5 791.8,152.5 792.6,153.6 793.4,154.6 794.2,155.7 795.0,156.8 795.9,157.9 796.7,159.0 797.5,160.1 798.3,161.3 799.1,162.5 799.9,163.7" fill="none" stroke="#e74c3c" stroke-width="1.5" stroke-linejoin="round" clip-path="url(#pc569)"/>
  <line x1="34" y1="221" x2="34" y2="376" stroke="#d1d5db"/>
  <line x1="34" y1="298.5" x2="392" y2="298.5" stroke="#d1d5db"/>
  <text x="213" y="402" text-anchor="middle" font-size="9" fill="#6b7280">Hz</text>
  <text x="12" y="298.5" text-anchor="middle" font-size="9" fill="#6b7280" transform="rotate(-90 12 298.5)">Group delay</text>
  <line x1="66.6" y1="221" x2="66.6" y2="376" stroke="#e5e7eb" stroke-width="0.5"/>
  <line x1="85.7" y1="221" x2="85.7" y2="376" stroke="#e5e7eb" stroke-width="0.5"/>
  <line x1="99.3" y1="221" x2="99.3" y2="376" stroke="#e5e7eb" stroke-width="0.5"/>
  <line x1="109.8" y1="221" x2="109.8" y2="376" stroke="#e5e7eb" stroke-width="0.5"/>
  <line x1="118.4" y1="221" x2="118.4" y2="376" stroke="#e5e7eb" stroke-width="0.5"/>
  <line x1="125.7" y1="221" x2="125.7" y2="376" stroke="#e5e7eb" stroke-width="0.5"/>
  <line x1="131.9" y1="221" x2="131.9" y2="376" stroke="#e5e7eb" stroke-width="0.5"/>
  <line x1="137.5" y1="221" x2="137.5" y2="376" stroke="#e5e7eb" stroke-width="0.5"/>
  <line x1="175.1" y1="221" x2="175.1" y2="376" stroke="#e5e7eb" stroke-width="0.5"/>
  <line x1="194.2" y1="221" x2="194.2" y2="376" stroke="#e5e7eb" stroke-width="0.5"/>
  <line x1="207.7" y1="221" x2="207.7" y2="376" stroke="#e5e7eb" stroke-width="0.5"/>
  <line x1="218.3" y1="221" x2="218.3" y2="376" stroke="#e5e7eb" stroke-width="0.5"/>
  <line x1="226.8" y1="221" x2="226.8" y2="376" stroke="#e5e7eb" stroke-width="0.5"/>
  <line x1="234.1" y1="221" x2="234.1" y2="376" stroke="#e5e7eb" stroke-width="0.5"/>
  <line x1="240.4" y1="221" x2="240.4" y2="376" stroke="#e5e7eb" stroke-width="0.5"/>
  <line x1="245.9" y1="221" x2="245.9" y2="376" stroke="#e5e7eb" stroke-width="0.5"/>
  <line x1="283.5" y1="221" x2="283.5" y2="376" stroke="#e5e7eb" stroke-width="0.5"/>
  <line x1="302.6" y1="221" x2="302.6" y2="376" stroke="#e5e7eb" stroke-width="0.5"/>
  <line x1="316.2" y1="221" x2="316.2" y2="376" stroke="#e5e7eb" stroke-width="0.5"/>
  <line x1="326.7" y1="221" x2="326.7" y2="376" stroke="#e5e7eb" stroke-width="0.5"/>
  <line x1="335.3" y1="221" x2="335.3" y2="376" stroke="#e5e7eb" stroke-width="0.5"/>
  <line x1="342.6" y1="221" x2="342.6" y2="376" stroke="#e5e7eb" stroke-width="0.5"/>
  <line x1="348.8" y1="221" x2="348.8" y2="376" stroke="#e5e7eb" stroke-width="0.5"/>
  <line x1="354.4" y1="221" x2="354.4" y2="376" stroke="#e5e7eb" stroke-width="0.5"/>
  <line x1="392.0" y1="221" x2="392.0" y2="376" stroke="#e5e7eb" stroke-width="0.5"/>
  <line x1="142.5" y1="221" x2="142.5" y2="376" stroke="#e5e7eb" stroke-width="0.5"/>
  <text x="142.5" y="388" text-anchor="middle" font-size="8" fill="#6b7280">100</text>
  <line x1="250.9" y1="221" x2="250.9" y2="376" stroke="#e5e7eb" stroke-width="0.5"/>
  <text x="250.9" y="388" text-anchor="middle" font-size="8" fill="#6b7280">1k</text>
  <line x1="359.4" y1="221" x2="359.4" y2="376" stroke="#e5e7eb" stroke-width="0.5"/>
  <text x="359.4" y="388" text-anchor="middle" font-size="8" fill="#6b7280">10k</text>
  <line x1="34" y1="340.2" x2="392" y2="340.2" stroke="#e5e7eb" stroke-width="0.5"/>
  <text x="30" y="343.2" text-anchor="end" font-size="8" fill="#6b7280">-0.7</text>
  <text x="30" y="301.5" text-anchor="end" font-size="8" fill="#6b7280">0</text>
  <line x1="34" y1="256.8" x2="392" y2="256.8" stroke="#e5e7eb" stroke-width="0.5"/>
  <text x="30" y="259.8" text-anchor="end" font-size="8" fill="#6b7280">0.7</text>
  <defs><linearGradient id="g570" x1="0" y1="221" x2="0" y2="298.5" gradientUnits="userSpaceOnUse">
    <stop offset="0%" stop-color="#2ecc71" stop-opacity="0.15"/>
    <stop offset="100%" stop-color="#2ecc71" stop-opacity="0.02"/>
  </linearGradient></defs>
  <path d="M37.5,238.9 37.5,238.9 70.1,238.9 89.2,238.9 102.8,238.9 113.3,238.9 121.9,238.9 129.1,238.9 135.4,238.9 141.0,238.9 145.9,238.9 150.4,238.9 154.5,238.9 158.3,238.9 161.8,238.9 165.0,238.9 168.1,238.9 170.9,238.9 173.6,238.9 176.2,238.9 178.6,238.9 180.9,238.9 183.1,238.9 185.2,238.9 187.2,238.9 189.1,238.9 190.9,238.9 192.7,238.9 194.4,238.9 196.1,238.9 197.7,238.9 199.2,238.9 200.7,238.9 202.2,238.9 203.6,238.9 204.9,238.9 206.3,238.9 207.6,238.9 208.8,238.9 210.0,238.9 211.2,238.9 212.4,238.9 213.5,238.9 214.6,238.9 215.7,238.9 216.8,238.9 217.8,238.9 218.8,238.9 219.8,238.9 220.8,238.9 221.7,238.9 222.7,238.9 223.6,238.9 224.5,238.9 225.4,238.9 226.2,238.9 227.1,238.9 227.9,238.9 228.7,238.9 229.5,238.9 231.1,238.9 232.6,238.9 234.1,238.9 235.5,238.9 236.9,238.9 238.2,238.9 239.6,238.9 240.8,238.9 242.1,238.9 243.3,238.9 244.5,238.9 245.6,238.9 246.7,238.9 247.8,238.9 248.9,238.9 249.9,238.9 251.0,238.9 252.0,238.9 252.9,238.9 253.9,238.9 254.8,238.9 255.8,238.9 256.7,238.9 257.6,238.9 258.4,238.9 259.3,238.9 260.1,238.9 261.0,238.9 261.8,238.9 263.0,238.9 264.1,238.9 265.3,238.9 266.4,238.9 267.5,238.9 268.5,238.9 269.6,238.9 270.6,238.9 271.6,238.9 272.5,238.9 273.5,238.9 274.4,238.9 275.3,238.9 276.2,238.9 277.1,238.9 278.0,238.9 278.8,238.9 279.6,238.9 280.5,238.9 281.3,238.9 282.3,238.9 283.4,238.9 284.4,238.9 285.3,238.9 286.3,238.9 287.3,238.9 288.2,238.9 289.1,238.9 290.0,238.9 290.9,238.9 291.7,238.9 292.6,238.9 293.4,238.9 294.2,238.9 295.0,238.9 296.0,238.9 297.0,238.9 297.9,238.9 298.8,238.9 299.7,238.9 300.6,238.9 301.5,238.9 302.4,238.9 303.2,238.9 304.0,238.9 304.9,238.9 305.8,238.9 306.7,238.9 307.7,238.9 308.6,238.9 309.5,238.9 310.3,238.9 311.2,238.9 312.0,238.9 312.8,238.9 313.7,238.9 314.6,238.9 315.5,238.9 316.4,238.9 317.3,238.9 318.1,238.9 319.0,238.9 319.8,238.9 320.6,238.9 321.4,238.9 322.3,238.9 323.2,238.9 324.1,238.9 324.9,238.9 325.7,238.9 326.6,238.9 327.4,238.9 328.3,238.9 329.1,238.9 330.0,238.9 330.8,238.9 331.7,238.9 332.5,238.9 333.3,238.9 334.2,238.9 335.0,238.9 335.9,238.9 336.7,238.9 337.5,238.9 338.4,238.9 339.2,238.9 340.1,238.9 340.9,238.9 341.7,238.9 342.5,238.9 343.4,238.9 344.2,238.9 345.1,238.9 345.9,238.9 346.7,238.9 347.6,238.9 348.4,238.9 349.2,238.9 350.0,238.9 350.9,238.9 351.7,238.9 352.6,238.9 353.4,238.9 354.2,238.9 355.1,238.9 355.9,238.9 356.7,238.9 357.6,238.9 358.4,238.9 359.2,238.9 360.0,238.9 360.9,238.9 361.7,238.9 362.5,238.9 363.3,238.9 364.2,238.9 365.0,238.9 365.8,238.9 366.6,238.9 367.4,238.9 368.3,238.9 369.1,238.9 369.9,238.9 370.7,238.9 371.5,238.9 372.4,238.9 373.2,238.9 374.0,238.9 374.8,238.9 375.6,238.9 376.4,238.9 377.2,238.9 378.1,238.9 378.9,238.9 379.7,238.9 380.5,238.9 381.3,238.9 382.1,238.9 383.0,238.9 383.8,238.9 384.6,238.9 385.4,238.9 386.2,238.9 387.0,238.9 387.9,238.9 388.7,238.9 389.5,238.9 390.3,238.9 391.1,238.9 391.9,238.9 L391.9,298.5 L37.5,298.5 Z" fill="url(#g570)"/>
  <defs><clipPath id="pc571"><rect x="34" y="221" width="358" height="155"/></clipPath></defs>
  <polyline points="37.5,238.9 70.1,238.9 89.2,238.9 102.8,238.9 113.3,238.9 121.9,238.9 129.1,238.9 135.4,238.9 141.0,238.9 145.9,238.9 150.4,238.9 154.5,238.9 158.3,238.9 161.8,238.9 165.0,238.9 168.1,238.9 170.9,238.9 173.6,238.9 176.2,238.9 178.6,238.9 180.9,238.9 183.1,238.9 185.2,238.9 187.2,238.9 189.1,238.9 190.9,238.9 192.7,238.9 194.4,238.9 196.1,238.9 197.7,238.9 199.2,238.9 200.7,238.9 202.2,238.9 203.6,238.9 204.9,238.9 206.3,238.9 207.6,238.9 208.8,238.9 210.0,238.9 211.2,238.9 212.4,238.9 213.5,238.9 214.6,238.9 215.7,238.9 216.8,238.9 217.8,238.9 218.8,238.9 219.8,238.9 220.8,238.9 221.7,238.9 222.7,238.9 223.6,238.9 224.5,238.9 225.4,238.9 226.2,238.9 227.1,238.9 227.9,238.9 228.7,238.9 229.5,238.9 231.1,238.9 232.6,238.9 234.1,238.9 235.5,238.9 236.9,238.9 238.2,238.9 239.6,238.9 240.8,238.9 242.1,238.9 243.3,238.9 244.5,238.9 245.6,238.9 246.7,238.9 247.8,238.9 248.9,238.9 249.9,238.9 251.0,238.9 252.0,238.9 252.9,238.9 253.9,238.9 254.8,238.9 255.8,238.9 256.7,238.9 257.6,238.9 258.4,238.9 259.3,238.9 260.1,238.9 261.0,238.9 261.8,238.9 263.0,238.9 264.1,238.9 265.3,238.9 266.4,238.9 267.5,238.9 268.5,238.9 269.6,238.9 270.6,238.9 271.6,238.9 272.5,238.9 273.5,238.9 274.4,238.9 275.3,238.9 276.2,238.9 277.1,238.9 278.0,238.9 278.8,238.9 279.6,238.9 280.5,238.9 281.3,238.9 282.3,238.9 283.4,238.9 284.4,238.9 285.3,238.9 286.3,238.9 287.3,238.9 288.2,238.9 289.1,238.9 290.0,238.9 290.9,238.9 291.7,238.9 292.6,238.9 293.4,238.9 294.2,238.9 295.0,238.9 296.0,238.9 297.0,238.9 297.9,238.9 298.8,238.9 299.7,238.9 300.6,238.9 301.5,238.9 302.4,238.9 303.2,238.9 304.0,238.9 304.9,238.9 305.8,238.9 306.7,238.9 307.7,238.9 308.6,238.9 309.5,238.9 310.3,238.9 311.2,238.9 312.0,238.9 312.8,238.9 313.7,238.9 314.6,238.9 315.5,238.9 316.4,238.9 317.3,238.9 318.1,238.9 319.0,238.9 319.8,238.9 320.6,238.9 321.4,238.9 322.3,238.9 323.2,238.9 324.1,238.9 324.9,238.9 325.7,238.9 326.6,238.9 327.4,238.9 328.3,238.9 329.1,238.9 330.0,238.9 330.8,238.9 331.7,238.9 332.5,238.9 333.3,238.9 334.2,238.9 335.0,238.9 335.9,238.9 336.7,238.9 337.5,238.9 338.4,238.9 339.2,238.9 340.1,238.9 340.9,238.9 341.7,238.9 342.5,238.9 343.4,238.9 344.2,238.9 345.1,238.9 345.9,238.9 346.7,238.9 347.6,238.9 348.4,238.9 349.2,238.9 350.0,238.9 350.9,238.9 351.7,238.9 352.6,238.9 353.4,238.9 354.2,238.9 355.1,238.9 355.9,238.9 356.7,238.9 357.6,238.9 358.4,238.9 359.2,238.9 360.0,238.9 360.9,238.9 361.7,238.9 362.5,238.9 363.3,238.9 364.2,238.9 365.0,238.9 365.8,238.9 366.6,238.9 367.4,238.9 368.3,238.9 369.1,238.9 369.9,238.9 370.7,238.9 371.5,238.9 372.4,238.9 373.2,238.9 374.0,238.9 374.8,238.9 375.6,238.9 376.4,238.9 377.2,238.9 378.1,238.9 378.9,238.9 379.7,238.9 380.5,238.9 381.3,238.9 382.1,238.9 383.0,238.9 383.8,238.9 384.6,238.9 385.4,238.9 386.2,238.9 387.0,238.9 387.9,238.9 388.7,238.9 389.5,238.9 390.3,238.9 391.1,238.9 391.9,238.9" fill="none" stroke="#2ecc71" stroke-width="1.5" stroke-linejoin="round" clip-path="url(#pc571)"/>
  <line x1="442" y1="221" x2="442" y2="376" stroke="#d1d5db"/>
  <line x1="442" y1="298.5" x2="800" y2="298.5" stroke="#d1d5db"/>
  <text x="621" y="402" text-anchor="middle" font-size="9" fill="#6b7280">Samples</text>
  <text x="420" y="298.5" text-anchor="middle" font-size="9" fill="#6b7280" transform="rotate(-90 420 298.5)">Impulse response</text>
  <line x1="442.0" y1="221" x2="442.0" y2="376" stroke="#e5e7eb" stroke-width="0.5"/>
  <text x="442.0" y="388" text-anchor="middle" font-size="8" fill="#6b7280">0</text>
  <line x1="561.3" y1="221" x2="561.3" y2="376" stroke="#e5e7eb" stroke-width="0.5"/>
  <text x="561.3" y="388" text-anchor="middle" font-size="8" fill="#6b7280">1</text>
  <line x1="680.7" y1="221" x2="680.7" y2="376" stroke="#e5e7eb" stroke-width="0.5"/>
  <text x="680.7" y="388" text-anchor="middle" font-size="8" fill="#6b7280">2</text>
  <line x1="800.0" y1="221" x2="800.0" y2="376" stroke="#e5e7eb" stroke-width="0.5"/>
  <text x="800.0" y="388" text-anchor="middle" font-size="8" fill="#6b7280">3</text>
  <line x1="442" y1="356.6" x2="800" y2="356.6" stroke="#e5e7eb" stroke-width="0.5"/>
  <text x="438" y="359.6" text-anchor="end" font-size="8" fill="#6b7280">-0.5</text>
  <text x="438" y="301.5" text-anchor="end" font-size="8" fill="#6b7280">0</text>
  <line x1="442" y1="240.4" x2="800" y2="240.4" stroke="#e5e7eb" stroke-width="0.5"/>
  <text x="438" y="243.4" text-anchor="end" font-size="8" fill="#6b7280">0.5</text>
  <defs><linearGradient id="g572" x1="0" y1="221" x2="0" y2="298.5" gradientUnits="userSpaceOnUse">
    <stop offset="0%" stop-color="#f39c12" stop-opacity="0.15"/>
    <stop offset="100%" stop-color="#f39c12" stop-opacity="0.02"/>
  </linearGradient></defs>
  <path d="M442.0,279.1 442.0,279.1 561.3,221.0 680.7,279.1 L680.7,298.5 L442.0,298.5 Z" fill="url(#g572)"/>
  <defs><clipPath id="pc573"><rect x="442" y="221" width="358" height="155"/></clipPath></defs>
  <polyline points="442.0,279.1 561.3,221.0 680.7,279.1" fill="none" stroke="#f39c12" stroke-width="1.3" stroke-linejoin="round" clip-path="url(#pc573)"/>
</svg>
