<svg xmlns="http://www.w3.org/2000/svg" viewBox="0 0 820 378" style="font-family:system-ui,-apple-system,sans-serif">
  <text x="800" y="11" text-anchor="end" font-size="11" font-weight="600" fill="#6b7280">Interpolate anti-image filter, factor 4</text>
  <line x1="34" y1="16" x2="34" y2="171" stroke="#d1d5db"/>
  <line x1="34" y1="47.0" x2="399" y2="47.0" stroke="#d1d5db"/>
  <text x="216.5" y="197" text-anchor="middle" font-size="9" fill="#6b7280">Hz</text>
  <text x="12" y="93.5" text-anchor="middle" font-size="9" fill="#6b7280" transform="rotate(-90 12 93.5)">dB</text>
  <line x1="67.3" y1="16" x2="67.3" y2="171" stroke="#e5e7eb" stroke-width="0.5"/>
  <line x1="86.8" y1="16" x2="86.8" y2="171" stroke="#e5e7eb" stroke-width="0.5"/>
  <line x1="100.6" y1="16" x2="100.6" y2="171" stroke="#e5e7eb" stroke-width="0.5"/>
  <line x1="111.3" y1="16" x2="111.3" y2="171" stroke="#e5e7eb" stroke-width="0.5"/>
  <line x1="120.0" y1="16" x2="120.0" y2="171" stroke="#e5e7eb" stroke-width="0.5"/>
  <line x1="127.4" y1="16" x2="127.4" y2="171" stroke="#e5e7eb" stroke-width="0.5"/>
  <line x1="133.9" y1="16" x2="133.9" y2="171" stroke="#e5e7eb" stroke-width="0.5"/>
  <line x1="139.5" y1="16" x2="139.5" y2="171" stroke="#e5e7eb" stroke-width="0.5"/>
  <line x1="177.9" y1="16" x2="177.9" y2="171" stroke="#e5e7eb" stroke-width="0.5"/>
  <line x1="197.3" y1="16" x2="197.3" y2="171" stroke="#e5e7eb" stroke-width="0.5"/>
  <line x1="211.1" y1="16" x2="211.1" y2="171" stroke="#e5e7eb" stroke-width="0.5"/>
  <line x1="221.9" y1="16" x2="221.9" y2="171" stroke="#e5e7eb" stroke-width="0.5"/>
  <line x1="230.6" y1="16" x2="230.6" y2="171" stroke="#e5e7eb" stroke-width="0.5"/>
  <line x1="238.0" y1="16" x2="238.0" y2="171" stroke="#e5e7eb" stroke-width="0.5"/>
  <line x1="244.4" y1="16" x2="244.4" y2="171" stroke="#e5e7eb" stroke-width="0.5"/>
  <line x1="250.1" y1="16" x2="250.1" y2="171" stroke="#e5e7eb" stroke-width="0.5"/>
  <line x1="288.4" y1="16" x2="288.4" y2="171" stroke="#e5e7eb" stroke-width="0.5"/>
  <line x1="307.9" y1="16" x2="307.9" y2="171" stroke="#e5e7eb" stroke-width="0.5"/>
  <line x1="321.7" y1="16" x2="321.7" y2="171" stroke="#e5e7eb" stroke-width="0.5"/>
  <line x1="332.4" y1="16" x2="332.4" y2="171" stroke="#e5e7eb" stroke-width="0.5"/>
  <line x1="341.2" y1="16" x2="341.2" y2="171" stroke="#e5e7eb" stroke-width="0.5"/>
  <line x1="348.6" y1="16" x2="348.6" y2="171" stroke="#e5e7eb" stroke-width="0.5"/>
  <line x1="355.0" y1="16" x2="355.0" y2="171" stroke="#e5e7eb" stroke-width="0.5"/>
  <line x1="360.7" y1="16" x2="360.7" y2="171" stroke="#e5e7eb" stroke-width="0.5"/>
  <line x1="399.0" y1="16" x2="399.0" y2="171" stroke="#e5e7eb" stroke-width="0.5"/>
  <line x1="144.6" y1="16" x2="144.6" y2="171" stroke="#e5e7eb" stroke-width="0.5"/>
  <text x="144.6" y="183" text-anchor="middle" font-size="8" fill="#6b7280">100</text>
  <line x1="255.1" y1="16" x2="255.1" y2="171" stroke="#e5e7eb" stroke-width="0.5"/>
  <text x="255.1" y="183" text-anchor="middle" font-size="8" fill="#6b7280">1k</text>
  <line x1="365.7" y1="16" x2="365.7" y2="171" stroke="#e5e7eb" stroke-width="0.5"/>
  <text x="365.7" y="183" text-anchor="middle" font-size="8" fill="#6b7280">10k</text>
  <line x1="34" y1="31.5" x2="399" y2="31.5" stroke="#e5e7eb" stroke-width="0.5"/>
  <line x1="34" y1="62.5" x2="399" y2="62.5" stroke="#e5e7eb" stroke-width="0.5"/>
  <line x1="34" y1="16.0" x2="399" y2="16.0" stroke="#e5e7eb" stroke-width="0.5"/>
  <text x="30" y="19.0" text-anchor="end" font-size="8" fill="#6b7280">+20</text>
  <text x="30" y="50.0" text-anchor="end" font-size="8" fill="#6b7280">0</text>
  <line x1="34" y1="78.0" x2="399" y2="78.0" stroke="#e5e7eb" stroke-width="0.5"/>
  <text x="30" y="81.0" text-anchor="end" font-size="8" fill="#6b7280">-20</text>
  <line x1="34" y1="109.0" x2="399" y2="109.0" stroke="#e5e7eb" stroke-width="0.5"/>
  <text x="30" y="112.0" text-anchor="end" font-size="8" fill="#6b7280">-40</text>
  <line x1="34" y1="140.0" x2="399" y2="140.0" stroke="#e5e7eb" stroke-width="0.5"/>
  <text x="30" y="143.0" text-anchor="end" font-size="8" fill="#6b7280">-60</text>
  <line x1="34" y1="171.0" x2="399" y2="171.0" stroke="#e5e7eb" stroke-width="0.5"/>
  <text x="30" y="174.0" text-anchor="end" font-size="8" fill="#6b7280">-80</text>
  <defs><linearGradient id="g608" x1="0" y1="16" x2="0" y2="171" gradientUnits="userSpaceOnUse">
    <stop offset="0%" stop-color="#4a90d9" stop-opacity="0.15"/>
    <stop offset="100%" stop-color="#4a90d9" stop-opacity="0.02"/>
  </linearGradient></defs>
  <path d="M37.5,47.0 37.5,47.0 70.8,47.0 90.3,47.0 104.1,47.0 114.8,47.0 123.6,47.0 131.0,47.0 137.4,47.0 143.1,47.0 148.1,47.0 152.7,47.0 156.9,47.0 160.7,47.0 164.3,47.0 167.6,47.0 170.7,47.0 173.6,47.0 176.3,47.0 178.9,47.0 181.4,47.0 183.7,47.0 186.0,47.0 188.1,47.0 190.2,47.0 192.1,47.0 194.0,47.0 195.8,47.0 197.6,47.0 199.2,47.0 200.9,47.0 202.4,47.0 204.0,47.0 205.5,47.0 206.9,47.0 208.3,47.0 209.6,47.0 210.9,47.0 212.2,47.0 213.5,47.0 214.7,47.0 215.9,47.0 217.0,47.0 218.2,47.0 219.3,47.0 220.3,47.0 221.4,47.0 222.4,47.0 223.4,47.0 224.4,47.0 225.4,47.0 226.4,47.0 227.3,47.0 228.2,47.0 229.1,47.0 230.0,47.0 230.8,47.0 231.7,47.0 232.5,47.0 233.4,47.0 234.2,47.0 235.7,47.0 237.3,47.0 238.7,47.0 240.2,47.0 241.6,47.0 242.9,47.0 244.2,47.0 245.5,47.0 246.8,47.0 248.0,47.0 249.2,47.0 250.3,47.0 251.4,47.0 252.6,47.0 253.6,47.0 254.7,47.0 255.7,47.0 256.7,47.0 257.7,47.0 258.7,47.0 259.6,47.0 260.6,47.0 261.5,47.0 262.4,47.0 263.3,47.0 264.1,47.0 265.0,47.0 265.8,47.0 266.6,47.0 267.4,47.0 268.6,47.0 269.8,47.0 270.9,47.0 272.0,47.0 273.1,47.0 274.2,47.0 275.2,47.0 276.2,47.0 277.2,47.0 278.2,47.0 279.1,47.0 280.0,47.0 281.0,47.0 281.9,47.0 282.7,47.0 283.6,47.0 284.5,47.0 285.3,47.0 286.1,47.0 286.9,47.0 288.0,47.0 289.0,47.0 290.0,47.0 291.0,47.0 292.0,47.0 292.9,47.0 293.9,47.0 294.8,47.0 295.7,47.0 296.6,47.0 297.4,47.0 298.3,47.0 299.1,47.0 299.9,47.0 300.7,47.0 301.7,47.0 302.7,47.0 303.6,47.0 304.6,47.0 305.5,47.0 306.4,47.0 307.3,47.0 308.1,47.0 309.0,47.0 309.8,47.0 310.6,47.0 311.4,47.0 312.4,47.0 313.3,47.0 314.2,47.0 315.1,47.0 316.0,47.0 316.9,47.0 317.7,47.0 318.6,47.0 319.4,47.0 320.2,47.0 321.1,47.0 322.0,47.0 322.9,47.0 323.8,47.0 324.7,47.0 325.5,47.0 326.3,47.0 327.1,47.0 327.9,47.0 328.8,47.0 329.7,47.0 330.6,47.0 331.4,47.0 332.3,47.2 333.1,47.6 333.9,48.2 334.8,49.4 335.7,51.3 336.5,54.0 337.4,57.7 338.2,62.5 339.0,68.8 339.8,76.8 340.7,88.9 341.6,107.0 342.4,153.9 343.3,130.0 344.1,138.3 344.9,146.0 345.8,143.9 346.6,150.0 347.5,152.2 348.3,139.1 349.1,143.2 350.0,155.3 350.8,139.3 351.7,146.3 352.5,151.2 353.3,140.5 354.1,154.0 355.0,146.1 355.8,143.5 356.6,171.0 357.5,144.1 358.3,151.8 359.1,150.7 360.0,146.4 360.8,171.0 361.6,146.4 362.5,165.7 363.3,148.9 364.1,155.2 364.9,152.5 365.8,153.3 366.6,156.5 367.4,152.3 368.2,159.5 369.1,153.3 369.9,160.7 370.7,155.0 371.6,158.4 372.4,157.9 373.2,157.1 374.0,163.7 374.8,155.2 375.6,171.0 376.5,155.4 377.3,168.8 378.1,159.3 378.9,158.7 379.7,171.0 380.5,157.5 381.4,164.8 382.2,168.3 383.0,158.4 383.8,168.3 384.6,168.8 385.5,159.5 386.3,164.6 387.1,171.0 387.9,162.6 388.7,161.1 389.5,169.6 390.3,171.0 391.2,165.2 392.0,161.7 392.8,164.4 393.6,171.0 394.4,171.0 395.2,169.7 396.0,164.2 396.8,162.9 397.6,163.5 398.5,165.4 L398.5,171.0 L37.5,171.0 Z" fill="url(#g608)"/>
  <defs><clipPath id="pc609"><rect x="34" y="16" width="365" height="155"/></clipPath></defs>
  <polyline points="37.5,47.0 70.8,47.0 90.3,47.0 104.1,47.0 114.8,47.0 123.6,47.0 131.0,47.0 137.4,47.0 143.1,47.0 148.1,47.0 152.7,47.0 156.9,47.0 160.7,47.0 164.3,47.0 167.6,47.0 170.7,47.0 173.6,47.0 176.3,47.0 178.9,47.0 181.4,47.0 183.7,47.0 186.0,47.0 188.1,47.0 190.2,47.0 192.1,47.0 194.0,47.0 195.8,47.0 197.6,47.0 199.2,47.0 200.9,47.0 202.4,47.0 204.0,47.0 205.5,47.0 206.9,47.0 208.3,47.0 209.6,47.0 210.9,47.0 212.2,47.0 213.5,47.0 214.7,47.0 215.9,47.0 217.0,47.0 218.2,47.0 219.3,47.0 220.3,47.0 221.4,47.0 222.4,47.0 223.4,47.0 224.4,47.0 225.4,47.0 226.4,47.0 227.3,47.0 228.2,47.0 229.1,47.0 230.0,47.0 230.8,47.0 231.7,47.0 232.5,47.0 233.4,47.0 234.2,47.0 235.7,47.0 237.3,47.0 238.7,47.0 240.2,47.0 241.6,47.0 242.9,47.0 244.2,47.0 245.5,47.0 246.8,47.0 248.0,47.0 249.2,47.0 250.3,47.0 251.4,47.0 252.6,47.0 253.6,47.0 254.7,47.0 255.7,47.0 256.7,47.0 257.7,47.0 258.7,47.0 259.6,47.0 260.6,47.0 261.5,47.0 262.4,47.0 263.3,47.0 264.1,47.0 265.0,47.0 265.8,47.0 266.6,47.0 267.4,47.0 268.6,47.0 269.8,47.0 270.9,47.0 272.0,47.0 273.1,47.0 274.2,47.0 275.2,47.0 276.2,47.0 277.2,47.0 278.2,47.0 279.1,47.0 280.0,47.0 281.0,47.0 281.9,47.0 282.7,47.0 283.6,47.0 284.5,47.0 285.3,47.0 286.1,47.0 286.9,47.0 288.0,47.0 289.0,47.0 290.0,47.0 291.0,47.0 292.0,47.0 292.9,47.0 293.9,47.0 294.8,47.0 295.7,47.0 296.6,47.0 297.4,47.0 298.3,47.0 299.1,47.0 299.9,47.0 300.7,47.0 301.7,47.0 302.7,47.0 303.6,47.0 304.6,47.0 305.5,47.0 306.4,47.0 307.3,47.0 308.1,47.0 309.0,47.0 309.8,47.0 310.6,47.0 311.4,47.0 312.4,47.0 313.3,47.0 314.2,47.0 315.1,47.0 316.0,47.0 316.9,47.0 317.7,47.0 318.6,47.0 319.4,47.0 320.2,47.0 321.1,47.0 322.0,47.0 322.9,47.0 323.8,47.0 324.7,47.0 325.5,47.0 326.3,47.0 327.1,47.0 327.9,47.0 328.8,47.0 329.7,47.0 330.6,47.0 331.4,47.0 332.3,47.2 333.1,47.6 333.9,48.2 334.8,49.4 335.7,51.3 336.5,54.0 337.4,57.7 338.2,62.5 339.0,68.8 339.8,76.8 340.7,88.9 341.6,107.0 342.4,153.9 343.3,130.0 344.1,138.3 344.9,146.0 345.8,143.9 346.6,150.0 347.5,152.2 348.3,139.1 349.1,143.2 350.0,155.3 350.8,139.3 351.7,146.3 352.5,151.2 353.3,140.5 354.1,154.0 355.0,146.1 355.8,143.5 356.6,181.7 357.5,144.1 358.3,151.8 359.1,150.7 360.0,146.4 360.8,173.6 361.6,146.4 362.5,165.7 363.3,148.9 364.1,155.2 364.9,152.5 365.8,153.3 366.6,156.5 367.4,152.3 368.2,159.5 369.1,153.3 369.9,160.7 370.7,155.0 371.6,158.4 372.4,157.9 373.2,157.1 374.0,163.7 374.8,155.2 375.6,180.3 376.5,155.4 377.3,168.8 378.1,159.3 378.9,158.7 379.7,179.6 380.5,157.5 381.4,164.8 382.2,168.3 383.0,158.4 383.8,168.3 384.6,168.8 385.5,159.5 386.3,164.6 387.1,184.5 387.9,162.6 388.7,161.1 389.5,169.6 390.3,183.0 391.2,165.2 392.0,161.7 392.8,164.4 393.6,174.4 394.4,187.6 395.2,169.7 396.0,164.2 396.8,162.9 397.6,163.5 398.5,165.4" fill="none" stroke="#4a90d9" stroke-width="1.5" stroke-linejoin="round" clip-path="url(#pc609)"/>
  <line x1="435" y1="16" x2="435" y2="171" stroke="#d1d5db"/>
  <line x1="435" y1="93.5" x2="800" y2="93.5" stroke="#d1d5db"/>
  <text x="617.5" y="197" text-anchor="middle" font-size="9" fill="#6b7280">Hz</text>
  <text x="413" y="93.5" text-anchor="middle" font-size="9" fill="#6b7280" transform="rotate(-90 413 93.5)">Phase (deg)</text>
  <line x1="468.3" y1="16" x2="468.3" y2="171" stroke="#e5e7eb" stroke-width="0.5"/>
  <line x1="487.8" y1="16" x2="487.8" y2="171" stroke="#e5e7eb" stroke-width="0.5"/>
  <line x1="501.6" y1="16" x2="501.6" y2="171" stroke="#e5e7eb" stroke-width="0.5"/>
  <line x1="512.3" y1="16" x2="512.3" y2="171" stroke="#e5e7eb" stroke-width="0.5"/>
  <line x1="521.0" y1="16" x2="521.0" y2="171" stroke="#e5e7eb" stroke-width="0.5"/>
  <line x1="528.4" y1="16" x2="528.4" y2="171" stroke="#e5e7eb" stroke-width="0.5"/>
  <line x1="534.9" y1="16" x2="534.9" y2="171" stroke="#e5e7eb" stroke-width="0.5"/>
  <line x1="540.5" y1="16" x2="540.5" y2="171" stroke="#e5e7eb" stroke-width="0.5"/>
  <line x1="578.9" y1="16" x2="578.9" y2="171" stroke="#e5e7eb" stroke-width="0.5"/>
  <line x1="598.3" y1="16" x2="598.3" y2="171" stroke="#e5e7eb" stroke-width="0.5"/>
  <line x1="612.1" y1="16" x2="612.1" y2="171" stroke="#e5e7eb" stroke-width="0.5"/>
  <line x1="622.9" y1="16" x2="622.9" y2="171" stroke="#e5e7eb" stroke-width="0.5"/>
  <line x1="631.6" y1="16" x2="631.6" y2="171" stroke="#e5e7eb" stroke-width="0.5"/>
  <line x1="639.0" y1="16" x2="639.0" y2="171" stroke="#e5e7eb" stroke-width="0.5"/>
  <line x1="645.4" y1="16" x2="645.4" y2="171" stroke="#e5e7eb" stroke-width="0.5"/>
  <line x1="651.1" y1="16" x2="651.1" y2="171" stroke="#e5e7eb" stroke-width="0.5"/>
  <line x1="689.4" y1="16" x2="689.4" y2="171" stroke="#e5e7eb" stroke-width="0.5"/>
  <line x1="708.9" y1="16" x2="708.9" y2="171" stroke="#e5e7eb" stroke-width="0.5"/>
  <line x1="722.7" y1="16" x2="722.7" y2="171" stroke="#e5e7eb" stroke-width="0.5"/>
  <line x1="733.4" y1="16" x2="733.4" y2="171" stroke="#e5e7eb" stroke-width="0.5"/>
  <line x1="742.2" y1="16" x2="742.2" y2="171" stroke="#e5e7eb" stroke-width="0.5"/>
  <line x1="749.6" y1="16" x2="749.6" y2="171" stroke="#e5e7eb" stroke-width="0.5"/>
  <line x1="756.0" y1="16" x2="756.0" y2="171" stroke="#e5e7eb" stroke-width="0.5"/>
  <line x1="761.7" y1="16" x2="761.7" y2="171" stroke="#e5e7eb" stroke-width="0.5"/>
  <line x1="800.0" y1="16" x2="800.0" y2="171" stroke="#e5e7eb" stroke-width="0.5"/>
  <line x1="545.6" y1="16" x2="545.6" y2="171" stroke="#e5e7eb" stroke-width="0.5"/>
  <text x="545.6" y="183" text-anchor="middle" font-size="8" fill="#6b7280">100</text>
  <line x1="656.1" y1="16" x2="656.1" y2="171" stroke="#e5e7eb" stroke-width="0.5"/>
  <text x="656.1" y="183" text-anchor="middle" font-size="8" fill="#6b7280">1k</text>
  <line x1="766.7" y1="16" x2="766.7" y2="171" stroke="#e5e7eb" stroke-width="0.5"/>
  <text x="766.7" y="183" text-anchor="middle" font-size="8" fill="#6b7280">10k</text>
  <line x1="435" y1="54.8" x2="800" y2="54.8" stroke="#e5e7eb" stroke-width="0.5"/>
  <line x1="435" y1="132.3" x2="800" y2="132.3" stroke="#e5e7eb" stroke-width="0.5"/>
  <line x1="435" y1="16.0" x2="800" y2="16.0" stroke="#e5e7eb" stroke-width="0.5"/>
  <text x="431" y="19.0" text-anchor="end" font-size="8" fill="#6b7280">180</text>
  <text x="431" y="96.5" text-anchor="end" font-size="8" fill="#6b7280">0</text>
  <line x1="435" y1="171.0" x2="800" y2="171.0" stroke="#e5e7eb" stroke-width="0.5"/>
  <text x="431" y="174.0" text-anchor="end" font-size="8" fill="#6b7280">-180</text>
  <defs><linearGradient id="g610" x1="0" y1="16" x2="0" y2="93.5" gradientUnits="userSpaceOnUse">
    <stop offset="0%" stop-color="#e74c3c" stop-opacity="0.15"/>
    <stop offset="100%" stop-color="#e74c3c" stop-opacity="0.02"/>
  </linearGradient></defs>
  <defs><linearGradient id="g611" x1="0" y1="171" x2="0" y2="93.5" gradientUnits="userSpaceOnUse">
    <stop offset="0%" stop-color="#e74c3c" stop-opacity="0.15"/>
    <stop offset="100%" stop-color="#e74c3c" stop-opacity="0.02"/>
  </linearGradient></defs>
  <defs><clipPath id="c612"><rect x="435" y="16" width="365" height="77.5"/></clipPath></defs>
  <defs><clipPath id="c613"><rect x="435" y="93.5" width="365" height="77.5"/></clipPath></defs>
  <path d="M438.5,95.8 438.5,95.8 471.8,98.0 491.3,100.3 505.1,102.6 515.8,104.9 524.6,107.1 532.0,109.4 538.4,111.7 544.1,113.9 549.1,116.2 553.7,118.5 557.9,120.7 561.7,123.0 565.3,125.3 568.6,127.6 571.7,129.8 574.6,132.1 577.3,134.4 579.9,136.6 582.4,138.9 584.7,141.2 587.0,143.5 589.1,145.7 591.2,148.0 593.1,150.3 595.0,152.5 596.8,154.8 598.6,157.1 600.2,159.3 601.9,161.6 603.4,163.9 605.0,166.2 606.5,168.4 607.9,170.7 609.3,18.0 610.6,20.2 611.9,22.5 613.2,24.8 614.5,27.0 615.7,29.3 616.9,31.6 618.0,33.9 619.2,36.1 620.3,38.4 621.3,40.7 622.4,42.9 623.4,45.2 624.4,47.5 625.4,49.8 626.4,52.0 627.4,54.3 628.3,56.6 629.2,58.8 630.1,61.1 631.0,63.4 631.8,65.6 632.7,67.9 633.5,70.2 634.4,72.5 635.2,74.7 636.7,79.3 638.3,83.8 639.7,88.4 641.2,92.9 642.6,97.4 643.9,102.0 645.2,106.5 646.5,111.1 647.8,115.6 649.0,120.1 650.2,124.7 651.3,129.2 652.4,133.8 653.6,138.3 654.6,142.8 655.7,147.4 656.7,151.9 657.7,156.5 658.7,161.0 659.7,165.6 660.6,170.1 661.6,19.6 662.5,24.2 663.4,28.7 664.3,33.3 665.1,37.8 666.0,42.3 666.8,46.9 667.6,51.4 668.4,56.0 669.6,62.8 670.8,69.6 671.9,76.4 673.0,83.2 674.1,90.0 675.2,96.8 676.2,103.6 677.2,110.5 678.2,117.3 679.2,124.1 680.1,130.9 681.0,137.7 682.0,144.5 682.9,151.3 683.7,158.1 684.6,164.9 685.5,16.8 686.3,23.6 687.1,30.4 687.9,37.2 689.0,46.3 690.0,55.4 691.0,64.4 692.0,73.5 693.0,82.6 693.9,91.7 694.9,100.8 695.8,109.8 696.7,118.9 697.6,128.0 698.4,137.1 699.3,146.2 700.1,155.3 700.9,164.3 701.7,18.4 702.7,29.8 703.7,41.1 704.6,52.5 705.6,63.8 706.5,75.2 707.4,86.5 708.3,97.9 709.1,109.2 710.0,120.6 710.8,131.9 711.6,143.3 712.4,154.7 713.4,168.3 714.3,26.9 715.2,40.5 716.1,54.1 717.0,67.8 717.9,81.4 718.7,95.0 719.6,108.6 720.4,122.3 721.2,135.9 722.1,151.8 723.0,167.7 723.9,28.6 724.8,44.5 725.7,60.4 726.5,76.2 727.3,92.1 728.1,108.0 728.9,123.9 729.8,142.1 730.7,160.3 731.6,23.4 732.4,41.6 733.3,59.7 734.1,77.9 734.9,96.1 735.8,116.5 736.7,136.9 737.5,157.4 738.4,22.8 739.2,43.2 740.0,63.7 740.8,84.1 741.7,106.8 742.6,129.5 743.4,74.7 744.3,97.4 745.1,120.1 745.9,142.8 746.8,167.8 747.6,37.8 748.5,140.3 749.3,165.2 750.1,35.2 751.0,140.0 751.8,167.2 752.7,39.5 753.5,144.2 754.3,16.5 755.1,46.0 756.0,153.0 756.8,27.5 757.6,134.5 758.5,164.0 759.3,40.8 760.1,150.1 761.0,26.9 761.8,136.2 762.6,170.2 763.5,49.3 764.3,160.9 765.1,39.9 765.9,153.7 766.8,35.1 767.6,148.9 768.4,30.2 769.2,146.3 770.1,29.9 770.9,146.0 771.7,31.9 772.6,150.3 773.4,36.1 774.2,154.5 775.0,42.6 775.8,163.3 776.6,51.4 777.5,19.3 778.3,142.2 779.1,32.7 779.9,157.8 780.7,50.5 781.5,20.7 782.4,148.1 783.2,43.1 784.0,170.5 784.8,145.3 785.6,42.5 786.5,19.5 787.3,151.5 788.1,51.0 788.9,30.2 789.7,164.5 790.5,146.0 791.3,50.1 792.2,33.9 793.0,17.7 793.8,156.5 794.6,142.5 795.4,51.1 796.2,39.5 797.0,27.8 797.8,18.4 798.6,164.0 799.5,156.9 L799.5,93.5 L438.5,93.5 Z" fill="url(#g610)" clip-path="url(#c612)"/>
  <path d="M438.5,95.8 438.5,95.8 471.8,98.0 491.3,100.3 505.1,102.6 515.8,104.9 524.6,107.1 532.0,109.4 538.4,111.7 544.1,113.9 549.1,116.2 553.7,118.5 557.9,120.7 561.7,123.0 565.3,125.3 568.6,127.6 571.7,129.8 574.6,132.1 577.3,134.4 579.9,136.6 582.4,138.9 584.7,141.2 587.0,143.5 589.1,145.7 591.2,148.0 593.1,150.3 595.0,152.5 596.8,154.8 598.6,157.1 600.2,159.3 601.9,161.6 603.4,163.9 605.0,166.2 606.5,168.4 607.9,170.7 609.3,18.0 610.6,20.2 611.9,22.5 613.2,24.8 614.5,27.0 615.7,29.3 616.9,31.6 618.0,33.9 619.2,36.1 620.3,38.4 621.3,40.7 622.4,42.9 623.4,45.2 624.4,47.5 625.4,49.8 626.4,52.0 627.4,54.3 628.3,56.6 629.2,58.8 630.1,61.1 631.0,63.4 631.8,65.6 632.7,67.9 633.5,70.2 634.4,72.5 635.2,74.7 636.7,79.3 638.3,83.8 639.7,88.4 641.2,92.9 642.6,97.4 643.9,102.0 645.2,106.5 646.5,111.1 647.8,115.6 649.0,120.1 650.2,124.7 651.3,129.2 652.4,133.8 653.6,138.3 654.6,142.8 655.7,147.4 656.7,151.9 657.7,156.5 658.7,161.0 659.7,165.6 660.6,170.1 661.6,19.6 662.5,24.2 663.4,28.7 664.3,33.3 665.1,37.8 666.0,42.3 666.8,46.9 667.6,51.4 668.4,56.0 669.6,62.8 670.8,69.6 671.9,76.4 673.0,83.2 674.1,90.0 675.2,96.8 676.2,103.6 677.2,110.5 678.2,117.3 679.2,124.1 680.1,130.9 681.0,137.7 682.0,144.5 682.9,151.3 683.7,158.1 684.6,164.9 685.5,16.8 686.3,23.6 687.1,30.4 687.9,37.2 689.0,46.3 690.0,55.4 691.0,64.4 692.0,73.5 693.0,82.6 693.9,91.7 694.9,100.8 695.8,109.8 696.7,118.9 697.6,128.0 698.4,137.1 699.3,146.2 700.1,155.3 700.9,164.3 701.7,18.4 702.7,29.8 703.7,41.1 704.6,52.5 705.6,63.8 706.5,75.2 707.4,86.5 708.3,97.9 709.1,109.2 710.0,120.6 710.8,131.9 711.6,143.3 712.4,154.7 713.4,168.3 714.3,26.9 715.2,40.5 716.1,54.1 717.0,67.8 717.9,81.4 718.7,95.0 719.6,108.6 720.4,122.3 721.2,135.9 722.1,151.8 723.0,167.7 723.9,28.6 724.8,44.5 725.7,60.4 726.5,76.2 727.3,92.1 728.1,108.0 728.9,123.9 729.8,142.1 730.7,160.3 731.6,23.4 732.4,41.6 733.3,59.7 734.1,77.9 734.9,96.1 735.8,116.5 736.7,136.9 737.5,157.4 738.4,22.8 739.2,43.2 740.0,63.7 740.8,84.1 741.7,106.8 742.6,129.5 743.4,74.7 744.3,97.4 745.1,120.1 745.9,142.8 746.8,167.8 747.6,37.8 748.5,140.3 749.3,165.2 750.1,35.2 751.0,140.0 751.8,167.2 752.7,39.5 753.5,144.2 754.3,16.5 755.1,46.0 756.0,153.0 756.8,27.5 757.6,134.5 758.5,164.0 759.3,40.8 760.1,150.1 761.0,26.9 761.8,136.2 762.6,170.2 763.5,49.3 764.3,160.9 765.1,39.9 765.9,153.7 766.8,35.1 767.6,148.9 768.4,30.2 769.2,146.3 770.1,29.9 770.9,146.0 771.7,31.9 772.6,150.3 773.4,36.1 774.2,154.5 775.0,42.6 775.8,163.3 776.6,51.4 777.5,19.3 778.3,142.2 779.1,32.7 779.9,157.8 780.7,50.5 781.5,20.7 782.4,148.1 783.2,43.1 784.0,170.5 784.8,145.3 785.6,42.5 786.5,19.5 787.3,151.5 788.1,51.0 788.9,30.2 789.7,164.5 790.5,146.0 791.3,50.1 792.2,33.9 793.0,17.7 793.8,156.5 794.6,142.5 795.4,51.1 796.2,39.5 797.0,27.8 797.8,18.4 798.6,164.0 799.5,156.9 L799.5,93.5 L438.5,93.5 Z" fill="url(#g611)" clip-path="url(#c613)"/>
  <defs><clipPath id="pc614"><rect x="435" y="16" width="365" height="155"/></clipPath></defs>
  <polyline points="438.5,95.8 471.8,98.0 491.3,100.3 505.1,102.6 515.8,104.9 524.6,107.1 532.0,109.4 538.4,111.7 544.1,113.9 549.1,116.2 553.7,118.5 557.9,120.7 561.7,123.0 565.3,125.3 568.6,127.6 571.7,129.8 574.6,132.1 577.3,134.4 579.9,136.6 582.4,138.9 584.7,141.2 587.0,143.5 589.1,145.7 591.2,148.0 593.1,150.3 595.0,152.5 596.8,154.8 598.6,157.1 600.2,159.3 601.9,161.6 603.4,163.9 605.0,166.2 606.5,168.4 607.9,170.7 609.3,18.0 610.6,20.2 611.9,22.5 613.2,24.8 614.5,27.0 615.7,29.3 616.9,31.6 618.0,33.9 619.2,36.1 620.3,38.4 621.3,40.7 622.4,42.9 623.4,45.2 624.4,47.5 625.4,49.8 626.4,52.0 627.4,54.3 628.3,56.6 629.2,58.8 630.1,61.1 631.0,63.4 631.8,65.6 632.7,67.9 633.5,70.2 634.4,72.5 635.2,74.7 636.7,79.3 638.3,83.8 639.7,88.4 641.2,92.9 642.6,97.4 643.9,102.0 645.2,106.5 646.5,111.1 647.8,115.6 649.0,120.1 650.2,124.7 651.3,129.2 652.4,133.8 653.6,138.3 654.6,142.8 655.7,147.4 656.7,151.9 657.7,156.5 658.7,161.0 659.7,165.6 660.6,170.1 661.6,19.6 662.5,24.2 663.4,28.7 664.3,33.3 665.1,37.8 666.0,42.3 666.8,46.9 667.6,51.4 668.4,56.0 669.6,62.8 670.8,69.6 671.9,76.4 673.0,83.2 674.1,90.0 675.2,96.8 676.2,103.6 677.2,110.5 678.2,117.3 679.2,124.1 680.1,130.9 681.0,137.7 682.0,144.5 682.9,151.3 683.7,158.1 684.6,164.9 685.5,16.8 686.3,23.6 687.1,30.4 687.9,37.2 689.0,46.3 690.0,55.4 691.0,64.4 692.0,73.5 693.0,82.6 693.9,91.7 694.9,100.8 695.8,109.8 696.7,118.9 697.6,128.0 698.4,137.1 699.3,146.2 700.1,155.3 700.9,164.3 701.7,18.4 702.7,29.8 703.7,41.1 704.6,52.5 705.6,63.8 706.5,75.2 707.4,86.5 708.3,97.9 709.1,109.2 710.0,120.6 710.8,131.9 711.6,143.3 712.4,154.7 713.4,168.3 714.3,26.9 715.2,40.5 716.1,54.1 717.0,67.8 717.9,81.4 718.7,95.0 719.6,108.6 720.4,122.3 721.2,135.9 722.1,151.8 723.0,167.7 723.9,28.6 724.8,44.5 725.7,60.4 726.5,76.2 727.3,92.1 728.1,108.0 728.9,123.9 729.8,142.1 730.7,160.3 731.6,23.4 732.4,41.6 733.3,59.7 734.1,77.9 734.9,96.1 735.8,116.5 736.7,136.9 737.5,157.4 738.4,22.8 739.2,43.2 740.0,63.7 740.8,84.1 741.7,106.8 742.6,129.5 743.4,74.7 744.3,97.4 745.1,120.1 745.9,142.8 746.8,167.8 747.6,37.8 748.5,140.3 749.3,165.2 750.1,35.2 751.0,140.0 751.8,167.2 752.7,39.5 753.5,144.2 754.3,16.5 755.1,46.0 756.0,153.0 756.8,27.5 757.6,134.5 758.5,164.0 759.3,40.8 760.1,150.1 761.0,26.9 761.8,136.2 762.6,170.2 763.5,49.3 764.3,160.9 765.1,39.9 765.9,153.7 766.8,35.1 767.6,148.9 768.4,30.2 769.2,146.3 770.1,29.9 770.9,146.0 771.7,31.9 772.6,150.3 773.4,36.1 774.2,154.5 775.0,42.6 775.8,163.3 776.6,51.4 777.5,19.3 778.3,142.2 779.1,32.7 779.9,157.8 780.7,50.5 781.5,20.7 782.4,148.1 783.2,43.1 784.0,170.5 784.8,145.3 785.6,42.5 786.5,19.5 787.3,151.5 788.1,51.0 788.9,30.2 789.7,164.5 790.5,146.0 791.3,50.1 792.2,33.9 793.0,17.7 793.8,156.5 794.6,142.5 795.4,51.1 796.2,39.5 797.0,27.8 797.8,18.4 798.6,164.0 799.5,156.9" fill="none" stroke="#e74c3c" stroke-width="1.5" stroke-linejoin="round" clip-path="url(#pc614)"/>
  <line x1="34" y1="207" x2="34" y2="362" stroke="#d1d5db"/>
  <line x1="34" y1="284.5" x2="399" y2="284.5" stroke="#d1d5db"/>
  <text x="216.5" y="388" text-anchor="middle" font-size="9" fill="#6b7280">Hz</text>
  <text x="12" y="284.5" text-anchor="middle" font-size="9" fill="#6b7280" transform="rotate(-90 12 284.5)">Group delay</text>
  <line x1="67.3" y1="207" x2="67.3" y2="362" stroke="#e5e7eb" stroke-width="0.5"/>
  <line x1="86.8" y1="207" x2="86.8" y2="362" stroke="#e5e7eb" stroke-width="0.5"/>
  <line x1="100.6" y1="207" x2="100.6" y2="362" stroke="#e5e7eb" stroke-width="0.5"/>
  <line x1="111.3" y1="207" x2="111.3" y2="362" stroke="#e5e7eb" stroke-width="0.5"/>
  <line x1="120.0" y1="207" x2="120.0" y2="362" stroke="#e5e7eb" stroke-width="0.5"/>
  <line x1="127.4" y1="207" x2="127.4" y2="362" stroke="#e5e7eb" stroke-width="0.5"/>
  <line x1="133.9" y1="207" x2="133.9" y2="362" stroke="#e5e7eb" stroke-width="0.5"/>
  <line x1="139.5" y1="207" x2="139.5" y2="362" stroke="#e5e7eb" stroke-width="0.5"/>
  <line x1="177.9" y1="207" x2="177.9" y2="362" stroke="#e5e7eb" stroke-width="0.5"/>
  <line x1="197.3" y1="207" x2="197.3" y2="362" stroke="#e5e7eb" stroke-width="0.5"/>
  <line x1="211.1" y1="207" x2="211.1" y2="362" stroke="#e5e7eb" stroke-width="0.5"/>
  <line x1="221.9" y1="207" x2="221.9" y2="362" stroke="#e5e7eb" stroke-width="0.5"/>
  <line x1="230.6" y1="207" x2="230.6" y2="362" stroke="#e5e7eb" stroke-width="0.5"/>
  <line x1="238.0" y1="207" x2="238.0" y2="362" stroke="#e5e7eb" stroke-width="0.5"/>
  <line x1="244.4" y1="207" x2="244.4" y2="362" stroke="#e5e7eb" stroke-width="0.5"/>
  <line x1="250.1" y1="207" x2="250.1" y2="362" stroke="#e5e7eb" stroke-width="0.5"/>
  <line x1="288.4" y1="207" x2="288.4" y2="362" stroke="#e5e7eb" stroke-width="0.5"/>
  <line x1="307.9" y1="207" x2="307.9" y2="362" stroke="#e5e7eb" stroke-width="0.5"/>
  <line x1="321.7" y1="207" x2="321.7" y2="362" stroke="#e5e7eb" stroke-width="0.5"/>
  <line x1="332.4" y1="207" x2="332.4" y2="362" stroke="#e5e7eb" stroke-width="0.5"/>
  <line x1="341.2" y1="207" x2="341.2" y2="362" stroke="#e5e7eb" stroke-width="0.5"/>
  <line x1="348.6" y1="207" x2="348.6" y2="362" stroke="#e5e7eb" stroke-width="0.5"/>
  <line x1="355.0" y1="207" x2="355.0" y2="362" stroke="#e5e7eb" stroke-width="0.5"/>
  <line x1="360.7" y1="207" x2="360.7" y2="362" stroke="#e5e7eb" stroke-width="0.5"/>
  <line x1="399.0" y1="207" x2="399.0" y2="362" stroke="#e5e7eb" stroke-width="0.5"/>
  <line x1="144.6" y1="207" x2="144.6" y2="362" stroke="#e5e7eb" stroke-width="0.5"/>
  <text x="144.6" y="374" text-anchor="middle" font-size="8" fill="#6b7280">100</text>
  <line x1="255.1" y1="207" x2="255.1" y2="362" stroke="#e5e7eb" stroke-width="0.5"/>
  <text x="255.1" y="374" text-anchor="middle" font-size="8" fill="#6b7280">1k</text>
  <line x1="365.7" y1="207" x2="365.7" y2="362" stroke="#e5e7eb" stroke-width="0.5"/>
  <text x="365.7" y="374" text-anchor="middle" font-size="8" fill="#6b7280">10k</text>
  <line x1="34" y1="327.8" x2="399" y2="327.8" stroke="#e5e7eb" stroke-width="0.5"/>
  <text x="30" y="330.8" text-anchor="end" font-size="8" fill="#6b7280">-700</text>
  <text x="30" y="287.5" text-anchor="end" font-size="8" fill="#6b7280">0</text>
  <line x1="34" y1="241.2" x2="399" y2="241.2" stroke="#e5e7eb" stroke-width="0.5"/>
  <text x="30" y="244.2" text-anchor="end" font-size="8" fill="#6b7280">700</text>
  <defs><linearGradient id="g615" x1="0" y1="207" x2="0" y2="284.5" gradientUnits="userSpaceOnUse">
    <stop offset="0%" stop-color="#2ecc71" stop-opacity="0.15"/>
    <stop offset="100%" stop-color="#2ecc71" stop-opacity="0.02"/>
  </linearGradient></defs>
  <defs><linearGradient id="g616" x1="0" y1="362" x2="0" y2="284.5" gradientUnits="userSpaceOnUse">
    <stop offset="0%" stop-color="#2ecc71" stop-opacity="0.15"/>
    <stop offset="100%" stop-color="#2ecc71" stop-opacity="0.02"/>
  </linearGradient></defs>
  <defs><clipPath id="c617"><rect x="34" y="207" width="365" height="77.5"/></clipPath></defs>
  <defs><clipPath id="c618"><rect x="34" y="284.5" width="365" height="77.5"/></clipPath></defs>
  <path d="M37.5,280.8 37.5,280.8 70.8,280.8 90.3,280.8 104.1,280.8 114.8,280.8 123.6,280.8 131.0,280.8 137.4,280.8 143.1,280.8 148.1,280.8 152.7,280.8 156.9,280.8 160.7,280.8 164.3,280.8 167.6,280.8 170.7,280.8 173.6,280.8 176.3,280.8 178.9,280.8 181.4,280.8 183.7,280.8 186.0,280.8 188.1,280.8 190.2,280.8 192.1,280.8 194.0,280.8 195.8,280.8 197.6,280.8 199.2,280.8 200.9,280.8 202.4,280.8 204.0,280.8 205.5,280.8 206.9,280.8 208.3,280.8 209.6,280.8 210.9,280.8 212.2,280.8 213.5,280.8 214.7,280.8 215.9,280.8 217.0,280.8 218.2,280.8 219.3,280.8 220.3,280.8 221.4,280.8 222.4,280.8 223.4,280.8 224.4,280.8 225.4,280.8 226.4,280.8 227.3,280.8 228.2,280.8 229.1,280.8 230.0,280.8 230.8,280.8 231.7,280.8 232.5,280.8 233.4,280.8 234.2,280.8 235.7,280.8 237.3,280.8 238.7,280.8 240.2,280.8 241.6,280.8 242.9,280.8 244.2,280.8 245.5,280.8 246.8,280.8 248.0,280.8 249.2,280.8 250.3,280.8 251.4,280.8 252.6,280.8 253.6,280.8 254.7,280.8 255.7,280.8 256.7,280.8 257.7,280.8 258.7,280.8 259.6,280.8 260.6,280.8 261.5,280.8 262.4,280.8 263.3,280.8 264.1,280.8 265.0,280.8 265.8,280.8 266.6,280.8 267.4,280.8 268.6,280.8 269.8,280.8 270.9,280.8 272.0,280.8 273.1,280.8 274.2,280.8 275.2,280.8 276.2,280.8 277.2,280.8 278.2,280.8 279.1,280.8 280.0,280.8 281.0,280.8 281.9,280.8 282.7,280.8 283.6,280.8 284.5,280.8 285.3,280.8 286.1,280.8 286.9,280.8 288.0,280.8 289.0,280.8 290.0,280.8 291.0,280.8 292.0,280.8 292.9,280.8 293.9,280.8 294.8,280.8 295.7,280.8 296.6,280.8 297.4,280.8 298.3,280.8 299.1,280.8 299.9,280.8 300.7,280.8 301.7,280.8 302.7,280.8 303.6,280.8 304.6,280.8 305.5,280.8 306.4,280.8 307.3,280.8 308.1,280.8 309.0,280.8 309.8,280.8 310.6,280.8 311.4,280.8 312.4,280.8 313.3,280.8 314.2,280.8 315.1,280.8 316.0,280.8 316.9,280.8 317.7,280.8 318.6,280.8 319.4,280.8 320.2,280.8 321.1,280.8 322.0,280.8 322.9,280.8 323.8,280.8 324.7,280.8 325.5,280.8 326.3,280.8 327.1,280.8 327.9,280.8 328.8,280.8 329.7,280.8 330.6,280.8 331.4,280.8 332.3,280.8 333.1,280.8 333.9,280.8 334.8,280.8 335.7,280.8 336.5,280.8 337.4,280.8 338.2,280.8 339.0,280.8 339.8,280.8 340.7,280.8 341.6,280.8 342.4,344.1 343.3,280.8 344.1,280.8 344.9,280.8 345.8,280.8 346.6,280.8 347.5,280.8 348.3,280.8 349.1,280.8 350.0,280.8 350.8,280.8 351.7,280.8 352.5,280.8 353.3,280.8 354.1,280.8 355.0,280.8 355.8,280.8 356.6,344.1 357.5,280.8 358.3,280.8 359.1,280.8 360.0,280.8 360.8,280.8 361.6,280.8 362.5,280.8 363.3,280.8 364.1,280.8 364.9,280.8 365.8,280.8 366.6,280.8 367.4,280.8 368.2,280.8 369.1,280.8 369.9,280.8 370.7,280.8 371.6,280.8 372.4,280.8 373.2,280.8 374.0,280.8 374.8,280.8 375.6,280.8 376.5,280.8 377.3,280.8 378.1,280.8 378.9,280.8 379.7,280.8 380.5,280.8 381.4,280.8 382.2,280.8 383.0,280.8 383.8,280.8 384.6,280.8 385.5,280.8 386.3,280.8 387.1,280.8 387.9,280.8 388.7,280.8 389.5,280.8 390.3,280.8 391.2,280.8 392.0,280.8 392.8,280.8 393.6,280.8 394.4,280.8 395.2,280.8 396.0,280.8 396.8,280.8 397.6,280.8 398.5,280.8 L398.5,284.5 L37.5,284.5 Z" fill="url(#g615)" clip-path="url(#c617)"/>
  <path d="M37.5,280.8 37.5,280.8 70.8,280.8 90.3,280.8 104.1,280.8 114.8,280.8 123.6,280.8 131.0,280.8 137.4,280.8 143.1,280.8 148.1,280.8 152.7,280.8 156.9,280.8 160.7,280.8 164.3,280.8 167.6,280.8 170.7,280.8 173.6,280.8 176.3,280.8 178.9,280.8 181.4,280.8 183.7,280.8 186.0,280.8 188.1,280.8 190.2,280.8 192.1,280.8 194.0,280.8 195.8,280.8 197.6,280.8 199.2,280.8 200.9,280.8 202.4,280.8 204.0,280.8 205.5,280.8 206.9,280.8 208.3,280.8 209.6,280.8 210.9,280.8 212.2,280.8 213.5,280.8 214.7,280.8 215.9,280.8 217.0,280.8 218.2,280.8 219.3,280.8 220.3,280.8 221.4,280.8 222.4,280.8 223.4,280.8 224.4,280.8 225.4,280.8 226.4,280.8 227.3,280.8 228.2,280.8 229.1,280.8 230.0,280.8 230.8,280.8 231.7,280.8 232.5,280.8 233.4,280.8 234.2,280.8 235.7,280.8 237.3,280.8 238.7,280.8 240.2,280.8 241.6,280.8 242.9,280.8 244.2,280.8 245.5,280.8 246.8,280.8 248.0,280.8 249.2,280.8 250.3,280.8 251.4,280.8 252.6,280.8 253.6,280.8 254.7,280.8 255.7,280.8 256.7,280.8 257.7,280.8 258.7,280.8 259.6,280.8 260.6,280.8 261.5,280.8 262.4,280.8 263.3,280.8 264.1,280.8 265.0,280.8 265.8,280.8 266.6,280.8 267.4,280.8 268.6,280.8 269.8,280.8 270.9,280.8 272.0,280.8 273.1,280.8 274.2,280.8 275.2,280.8 276.2,280.8 277.2,280.8 278.2,280.8 279.1,280.8 280.0,280.8 281.0,280.8 281.9,280.8 282.7,280.8 283.6,280.8 284.5,280.8 285.3,280.8 286.1,280.8 286.9,280.8 288.0,280.8 289.0,280.8 290.0,280.8 291.0,280.8 292.0,280.8 292.9,280.8 293.9,280.8 294.8,280.8 295.7,280.8 296.6,280.8 297.4,280.8 298.3,280.8 299.1,280.8 299.9,280.8 300.7,280.8 301.7,280.8 302.7,280.8 303.6,280.8 304.6,280.8 305.5,280.8 306.4,280.8 307.3,280.8 308.1,280.8 309.0,280.8 309.8,280.8 310.6,280.8 311.4,280.8 312.4,280.8 313.3,280.8 314.2,280.8 315.1,280.8 316.0,280.8 316.9,280.8 317.7,280.8 318.6,280.8 319.4,280.8 320.2,280.8 321.1,280.8 322.0,280.8 322.9,280.8 323.8,280.8 324.7,280.8 325.5,280.8 326.3,280.8 327.1,280.8 327.9,280.8 328.8,280.8 329.7,280.8 330.6,280.8 331.4,280.8 332.3,280.8 333.1,280.8 333.9,280.8 334.8,280.8 335.7,280.8 336.5,280.8 337.4,280.8 338.2,280.8 339.0,280.8 339.8,280.8 340.7,280.8 341.6,280.8 342.4,344.1 343.3,280.8 344.1,280.8 344.9,280.8 345.8,280.8 346.6,280.8 347.5,280.8 348.3,280.8 349.1,280.8 350.0,280.8 350.8,280.8 351.7,280.8 352.5,280.8 353.3,280.8 354.1,280.8 355.0,280.8 355.8,280.8 356.6,344.1 357.5,280.8 358.3,280.8 359.1,280.8 360.0,280.8 360.8,280.8 361.6,280.8 362.5,280.8 363.3,280.8 364.1,280.8 364.9,280.8 365.8,280.8 366.6,280.8 367.4,280.8 368.2,280.8 369.1,280.8 369.9,280.8 370.7,280.8 371.6,280.8 372.4,280.8 373.2,280.8 374.0,280.8 374.8,280.8 375.6,280.8 376.5,280.8 377.3,280.8 378.1,280.8 378.9,280.8 379.7,280.8 380.5,280.8 381.4,280.8 382.2,280.8 383.0,280.8 383.8,280.8 384.6,280.8 385.5,280.8 386.3,280.8 387.1,280.8 387.9,280.8 388.7,280.8 389.5,280.8 390.3,280.8 391.2,280.8 392.0,280.8 392.8,280.8 393.6,280.8 394.4,280.8 395.2,280.8 396.0,280.8 396.8,280.8 397.6,280.8 398.5,280.8 L398.5,284.5 L37.5,284.5 Z" fill="url(#g616)" clip-path="url(#c618)"/>
  <defs><clipPath id="pc619"><rect x="34" y="207" width="365" height="155"/></clipPath></defs>
  <polyline points="37.5,280.8 70.8,280.8 90.3,280.8 104.1,280.8 114.8,280.8 123.6,280.8 131.0,280.8 137.4,280.8 143.1,280.8 148.1,280.8 152.7,280.8 156.9,280.8 160.7,280.8 164.3,280.8 167.6,280.8 170.7,280.8 173.6,280.8 176.3,280.8 178.9,280.8 181.4,280.8 183.7,280.8 186.0,280.8 188.1,280.8 190.2,280.8 192.1,280.8 194.0,280.8 195.8,280.8 197.6,280.8 199.2,280.8 200.9,280.8 202.4,280.8 204.0,280.8 205.5,280.8 206.9,280.8 208.3,280.8 209.6,280.8 210.9,280.8 212.2,280.8 213.5,280.8 214.7,280.8 215.9,280.8 217.0,280.8 218.2,280.8 219.3,280.8 220.3,280.8 221.4,280.8 222.4,280.8 223.4,280.8 224.4,280.8 225.4,280.8 226.4,280.8 227.3,280.8 228.2,280.8 229.1,280.8 230.0,280.8 230.8,280.8 231.7,280.8 232.5,280.8 233.4,280.8 234.2,280.8 235.7,280.8 237.3,280.8 238.7,280.8 240.2,280.8 241.6,280.8 242.9,280.8 244.2,280.8 245.5,280.8 246.8,280.8 248.0,280.8 249.2,280.8 250.3,280.8 251.4,280.8 252.6,280.8 253.6,280.8 254.7,280.8 255.7,280.8 256.7,280.8 257.7,280.8 258.7,280.8 259.6,280.8 260.6,280.8 261.5,280.8 262.4,280.8 263.3,280.8 264.1,280.8 265.0,280.8 265.8,280.8 266.6,280.8 267.4,280.8 268.6,280.8 269.8,280.8 270.9,280.8 272.0,280.8 273.1,280.8 274.2,280.8 275.2,280.8 276.2,280.8 277.2,280.8 278.2,280.8 279.1,280.8 280.0,280.8 281.0,280.8 281.9,280.8 282.7,280.8 283.6,280.8 284.5,280.8 285.3,280.8 286.1,280.8 286.9,280.8 288.0,280.8 289.0,280.8 290.0,280.8 291.0,280.8 292.0,280.8 292.9,280.8 293.9,280.8 294.8,280.8 295.7,280.8 296.6,280.8 297.4,280.8 298.3,280.8 299.1,280.8 299.9,280.8 300.7,280.8 301.7,280.8 302.7,280.8 303.6,280.8 304.6,280.8 305.5,280.8 306.4,280.8 307.3,280.8 308.1,280.8 309.0,280.8 309.8,280.8 310.6,280.8 311.4,280.8 312.4,280.8 313.3,280.8 314.2,280.8 315.1,280.8 316.0,280.8 316.9,280.8 317.7,280.8 318.6,280.8 319.4,280.8 320.2,280.8 321.1,280.8 322.0,280.8 322.9,280.8 323.8,280.8 324.7,280.8 325.5,280.8 326.3,280.8 327.1,280.8 327.9,280.8 328.8,280.8 329.7,280.8 330.6,280.8 331.4,280.8 332.3,280.8 333.1,280.8 333.9,280.8 334.8,280.8 335.7,280.8 336.5,280.8 337.4,280.8 338.2,280.8 339.0,280.8 339.8,280.8 340.7,280.8 341.6,280.8 342.4,344.1 343.3,280.8 344.1,280.8 344.9,280.8 345.8,280.8 346.6,280.8 347.5,280.8 348.3,280.8 349.1,280.8 350.0,280.8 350.8,280.8 351.7,280.8 352.5,280.8 353.3,280.8 354.1,280.8 355.0,280.8 355.8,280.8 356.6,344.1 357.5,280.8 358.3,280.8 359.1,280.8 360.0,280.8 360.8,280.8 361.6,280.8 362.5,280.8 363.3,280.8 364.1,280.8 364.9,280.8 365.8,280.8 366.6,280.8 367.4,280.8 368.2,280.8 369.1,280.8 369.9,280.8 370.7,280.8 371.6,280.8 372.4,280.8 373.2,280.8 374.0,280.8 374.8,280.8 375.6,280.8 376.5,280.8 377.3,280.8 378.1,280.8 378.9,280.8 379.7,280.8 380.5,280.8 381.4,280.8 382.2,280.8 383.0,280.8 383.8,280.8 384.6,280.8 385.5,280.8 386.3,280.8 387.1,280.8 387.9,280.8 388.7,280.8 389.5,280.8 390.3,280.8 391.2,280.8 392.0,280.8 392.8,280.8 393.6,280.8 394.4,280.8 395.2,280.8 396.0,280.8 396.8,280.8 397.6,280.8 398.5,280.8" fill="none" stroke="#2ecc71" stroke-width="1.5" stroke-linejoin="round" clip-path="url(#pc619)"/>
  <line x1="435" y1="207" x2="435" y2="362" stroke="#d1d5db"/>
  <line x1="435" y1="284.5" x2="800" y2="284.5" stroke="#d1d5db"/>
  <text x="617.5" y="388" text-anchor="middle" font-size="9" fill="#6b7280">Samples</text>
  <text x="413" y="284.5" text-anchor="middle" font-size="9" fill="#6b7280" transform="rotate(-90 413 284.5)">Impulse response</text>
  <line x1="435.0" y1="207" x2="435.0" y2="362" stroke="#e5e7eb" stroke-width="0.5"/>
  <text x="435.0" y="374" text-anchor="middle" font-size="8" fill="#6b7280">0</text>
  <line x1="585.8" y1="207" x2="585.8" y2="362" stroke="#e5e7eb" stroke-width="0.5"/>
  <text x="585.8" y="374" text-anchor="middle" font-size="8" fill="#6b7280">50</text>
  <line x1="736.7" y1="207" x2="736.7" y2="362" stroke="#e5e7eb" stroke-width="0.5"/>
  <text x="736.7" y="374" text-anchor="middle" font-size="8" fill="#6b7280">100</text>
  <line x1="435" y1="346.6" x2="800" y2="346.6" stroke="#e5e7eb" stroke-width="0.5"/>
  <text x="431" y="349.6" text-anchor="end" font-size="8" fill="#6b7280">-0.2</text>
  <text x="431" y="287.5" text-anchor="end" font-size="8" fill="#6b7280">0</text>
  <line x1="435" y1="222.4" x2="800" y2="222.4" stroke="#e5e7eb" stroke-width="0.5"/>
  <text x="431" y="225.4" text-anchor="end" font-size="8" fill="#6b7280">0.2</text>
  <defs><linearGradient id="g620" x1="0" y1="207" x2="0" y2="284.5" gradientUnits="userSpaceOnUse">
    <stop offset="0%" stop-color="#f39c12" stop-opacity="0.15"/>
    <stop offset="100%" stop-color="#f39c12" stop-opacity="0.02"/>
  </linearGradient></defs>
  <defs><linearGradient id="g621" x1="0" y1="362" x2="0" y2="284.5" gradientUnits="userSpaceOnUse">
    <stop offset="0%" stop-color="#f39c12" stop-opacity="0.15"/>
    <stop offset="100%" stop-color="#f39c12" stop-opacity="0.02"/>
  </linearGradient></defs>
  <defs><clipPath id="c622"><rect x="435" y="207" width="365" height="77.5"/></clipPath></defs>
  <defs><clipPath id="c623"><rect x="435" y="284.5" width="365" height="77.5"/></clipPath></defs>
  <path d="M435.0,284.5 435.0,284.5 438.0,284.4 441.0,284.4 444.0,284.4 447.1,284.5 450.1,284.6 453.1,284.7 456.1,284.6 459.1,284.5 462.1,284.3 465.2,284.2 468.2,284.3 471.2,284.5 474.2,284.8 477.2,284.9 480.2,284.8 483.3,284.5 486.3,284.1 489.3,283.9 492.3,284.0 495.3,284.5 498.3,285.1 501.4,285.4 504.4,285.2 507.4,284.5 510.4,283.7 513.4,283.2 516.4,283.5 519.5,284.5 522.5,285.7 525.5,286.3 528.5,285.9 531.5,284.5 534.5,282.9 537.6,282.1 540.6,282.7 543.6,284.5 546.6,286.6 549.6,287.8 552.6,287.0 555.7,284.5 558.7,281.6 561.7,280.1 564.7,281.1 567.7,284.5 570.7,288.5 573.8,290.7 576.8,289.3 579.8,284.5 582.8,278.6 585.8,275.2 588.8,277.1 591.9,284.5 594.9,294.2 597.9,300.6 600.9,298.2 603.9,284.5 606.9,261.4 610.0,235.3 613.0,214.8 616.0,207.0 619.0,214.8 622.0,235.3 625.0,261.4 628.1,284.5 631.1,298.2 634.1,300.6 637.1,294.2 640.1,284.5 643.1,277.1 646.2,275.2 649.2,278.6 652.2,284.5 655.2,289.3 658.2,290.7 661.2,288.5 664.3,284.5 667.3,281.1 670.3,280.1 673.3,281.6 676.3,284.5 679.3,287.0 682.4,287.8 685.4,286.6 688.4,284.5 691.4,282.7 694.4,282.1 697.4,282.9 700.5,284.5 703.5,285.9 706.5,286.3 709.5,285.7 712.5,284.5 715.5,283.5 718.6,283.2 721.6,283.7 724.6,284.5 727.6,285.2 730.6,285.4 733.6,285.1 736.7,284.5 739.7,284.0 742.7,283.9 745.7,284.1 748.7,284.5 751.7,284.8 754.8,284.9 757.8,284.8 760.8,284.5 763.8,284.3 766.8,284.2 769.8,284.3 772.9,284.5 775.9,284.6 778.9,284.7 781.9,284.6 784.9,284.5 787.9,284.4 791.0,284.4 794.0,284.4 797.0,284.5 L797.0,284.5 L435.0,284.5 Z" fill="url(#g620)" clip-path="url(#c622)"/>
  <path d="M435.0,284.5 435.0,284.5 438.0,284.4 441.0,284.4 444.0,284.4 447.1,284.5 450.1,284.6 453.1,284.7 456.1,284.6 459.1,284.5 462.1,284.3 465.2,284.2 468.2,284.3 471.2,284.5 474.2,284.8 477.2,284.9 480.2,284.8 483.3,284.5 486.3,284.1 489.3,283.9 492.3,284.0 495.3,284.5 498.3,285.1 501.4,285.4 504.4,285.2 507.4,284.5 510.4,283.7 513.4,283.2 516.4,283.5 519.5,284.5 522.5,285.7 525.5,286.3 528.5,285.9 531.5,284.5 534.5,282.9 537.6,282.1 540.6,282.7 543.6,284.5 546.6,286.6 549.6,287.8 552.6,287.0 555.7,284.5 558.7,281.6 561.7,280.1 564.7,281.1 567.7,284.5 570.7,288.5 573.8,290.7 576.8,289.3 579.8,284.5 582.8,278.6 585.8,275.2 588.8,277.1 591.9,284.5 594.9,294.2 597.9,300.6 600.9,298.2 603.9,284.5 606.9,261.4 610.0,235.3 613.0,214.8 616.0,207.0 619.0,214.8 622.0,235.3 625.0,261.4 628.1,284.5 631.1,298.2 634.1,300.6 637.1,294.2 640.1,284.5 643.1,277.1 646.2,275.2 649.2,278.6 652.2,284.5 655.2,289.3 658.2,290.7 661.2,288.5 664.3,284.5 667.3,281.1 670.3,280.1 673.3,281.6 676.3,284.5 679.3,287.0 682.4,287.8 685.4,286.6 688.4,284.5 691.4,282.7 694.4,282.1 697.4,282.9 700.5,284.5 703.5,285.9 706.5,286.3 709.5,285.7 712.5,284.5 715.5,283.5 718.6,283.2 721.6,283.7 724.6,284.5 727.6,285.2 730.6,285.4 733.6,285.1 736.7,284.5 739.7,284.0 742.7,283.9 745.7,284.1 748.7,284.5 751.7,284.8 754.8,284.9 757.8,284.8 760.8,284.5 763.8,284.3 766.8,284.2 769.8,284.3 772.9,284.5 775.9,284.6 778.9,284.7 781.9,284.6 784.9,284.5 787.9,284.4 791.0,284.4 794.0,284.4 797.0,284.5 L797.0,284.5 L435.0,284.5 Z" fill="url(#g621)" clip-path="url(#c623)"/>
  <defs><clipPath id="pc624"><rect x="435" y="207" width="365" height="155"/></clipPath></defs>
  <polyline points="435.0,284.5 438.0,284.4 441.0,284.4 444.0,284.4 447.1,284.5 450.1,284.6 453.1,284.7 456.1,284.6 459.1,284.5 462.1,284.3 465.2,284.2 468.2,284.3 471.2,284.5 474.2,284.8 477.2,284.9 480.2,284.8 483.3,284.5 486.3,284.1 489.3,283.9 492.3,284.0 495.3,284.5 498.3,285.1 501.4,285.4 504.4,285.2 507.4,284.5 510.4,283.7 513.4,283.2 516.4,283.5 519.5,284.5 522.5,285.7 525.5,286.3 528.5,285.9 531.5,284.5 534.5,282.9 537.6,282.1 540.6,282.7 543.6,284.5 546.6,286.6 549.6,287.8 552.6,287.0 555.7,284.5 558.7,281.6 561.7,280.1 564.7,281.1 567.7,284.5 570.7,288.5 573.8,290.7 576.8,289.3 579.8,284.5 582.8,278.6 585.8,275.2 588.8,277.1 591.9,284.5 594.9,294.2 597.9,300.6 600.9,298.2 603.9,284.5 606.9,261.4 610.0,235.3 613.0,214.8 616.0,207.0 619.0,214.8 622.0,235.3 625.0,261.4 628.1,284.5 631.1,298.2 634.1,300.6 637.1,294.2 640.1,284.5 643.1,277.1 646.2,275.2 649.2,278.6 652.2,284.5 655.2,289.3 658.2,290.7 661.2,288.5 664.3,284.5 667.3,281.1 670.3,280.1 673.3,281.6 676.3,284.5 679.3,287.0 682.4,287.8 685.4,286.6 688.4,284.5 691.4,282.7 694.4,282.1 697.4,282.9 700.5,284.5 703.5,285.9 706.5,286.3 709.5,285.7 712.5,284.5 715.5,283.5 718.6,283.2 721.6,283.7 724.6,284.5 727.6,285.2 730.6,285.4 733.6,285.1 736.7,284.5 739.7,284.0 742.7,283.9 745.7,284.1 748.7,284.5 751.7,284.8 754.8,284.9 757.8,284.8 760.8,284.5 763.8,284.3 766.8,284.2 769.8,284.3 772.9,284.5 775.9,284.6 778.9,284.7 781.9,284.6 784.9,284.5 787.9,284.4 791.0,284.4 794.0,284.4 797.0,284.5" fill="none" stroke="#f39c12" stroke-width="1.3" stroke-linejoin="round" clip-path="url(#pc624)"/>
</svg>
