<svg xmlns="http://www.w3.org/2000/svg" viewBox="0 0 820 378" style="font-family:system-ui,-apple-system,sans-serif">
  <text x="800" y="11" text-anchor="end" font-size="11" font-weight="600" fill="#6b7280">K-weighting (ITU-R BS.1770)</text>
  <line x1="34" y1="16" x2="34" y2="171" stroke="#d1d5db"/>
  <line x1="34" y1="47.0" x2="399" y2="47.0" stroke="#d1d5db"/>
  <text x="216.5" y="197" text-anchor="middle" font-size="9" fill="#6b7280">Hz</text>
  <text x="12" y="93.5" text-anchor="middle" font-size="9" fill="#6b7280" transform="rotate(-90 12 93.5)">dB</text>
  <line x1="67.3" y1="16" x2="67.3" y2="171" stroke="#e5e7eb" stroke-width="0.5"/>
  <line x1="86.8" y1="16" x2="86.8" y2="171" stroke="#e5e7eb" stroke-width="0.5"/>
  <line x1="100.6" y1="16" x2="100.6" y2="171" stroke="#e5e7eb" stroke-width="0.5"/>
  <line x1="111.3" y1="16" x2="111.3" y2="171" stroke="#e5e7eb" stroke-width="0.5"/>
  <line x1="120.0" y1="16" x2="120.0" y2="171" stroke="#e5e7eb" stroke-width="0.5"/>
  <line x1="127.4" y1="16" x2="127.4" y2="171" stroke="#e5e7eb" stroke-width="0.5"/>
  <line x1="133.9" y1="16" x2="133.9" y2="171" stroke="#e5e7eb" stroke-width="0.5"/>
  <line x1="139.5" y1="16" x2="139.5" y2="171" stroke="#e5e7eb" stroke-width="0.5"/>
  <line x1="177.9" y1="16" x2="177.9" y2="171" stroke="#e5e7eb" stroke-width="0.5"/>
  <line x1="197.3" y1="16" x2="197.3" y2="171" stroke="#e5e7eb" stroke-width="0.5"/>
  <line x1="211.1" y1="16" x2="211.1" y2="171" stroke="#e5e7eb" stroke-width="0.5"/>
  <line x1="221.9" y1="16" x2="221.9" y2="171" stroke="#e5e7eb" stroke-width="0.5"/>
  <line x1="230.6" y1="16" x2="230.6" y2="171" stroke="#e5e7eb" stroke-width="0.5"/>
  <line x1="238.0" y1="16" x2="238.0" y2="171" stroke="#e5e7eb" stroke-width="0.5"/>
  <line x1="244.4" y1="16" x2="244.4" y2="171" stroke="#e5e7eb" stroke-width="0.5"/>
  <line x1="250.1" y1="16" x2="250.1" y2="171" stroke="#e5e7eb" stroke-width="0.5"/>
  <line x1="288.4" y1="16" x2="288.4" y2="171" stroke="#e5e7eb" stroke-width="0.5"/>
  <line x1="307.9" y1="16" x2="307.9" y2="171" stroke="#e5e7eb" stroke-width="0.5"/>
  <line x1="321.7" y1="16" x2="321.7" y2="171" stroke="#e5e7eb" stroke-width="0.5"/>
  <line x1="332.4" y1="16" x2="332.4" y2="171" stroke="#e5e7eb" stroke-width="0.5"/>
  <line x1="341.2" y1="16" x2="341.2" y2="171" stroke="#e5e7eb" stroke-width="0.5"/>
  <line x1="348.6" y1="16" x2="348.6" y2="171" stroke="#e5e7eb" stroke-width="0.5"/>
  <line x1="355.0" y1="16" x2="355.0" y2="171" stroke="#e5e7eb" stroke-width="0.5"/>
  <line x1="360.7" y1="16" x2="360.7" y2="171" stroke="#e5e7eb" stroke-width="0.5"/>
  <line x1="399.0" y1="16" x2="399.0" y2="171" stroke="#e5e7eb" stroke-width="0.5"/>
  <line x1="144.6" y1="16" x2="144.6" y2="171" stroke="#e5e7eb" stroke-width="0.5"/>
  <text x="144.6" y="183" text-anchor="middle" font-size="8" fill="#6b7280">100</text>
  <line x1="255.1" y1="16" x2="255.1" y2="171" stroke="#e5e7eb" stroke-width="0.5"/>
  <text x="255.1" y="183" text-anchor="middle" font-size="8" fill="#6b7280">1k</text>
  <line x1="365.7" y1="16" x2="365.7" y2="171" stroke="#e5e7eb" stroke-width="0.5"/>
  <text x="365.7" y="183" text-anchor="middle" font-size="8" fill="#6b7280">10k</text>
  <line x1="34" y1="31.5" x2="399" y2="31.5" stroke="#e5e7eb" stroke-width="0.5"/>
  <line x1="34" y1="62.5" x2="399" y2="62.5" stroke="#e5e7eb" stroke-width="0.5"/>
  <line x1="34" y1="16.0" x2="399" y2="16.0" stroke="#e5e7eb" stroke-width="0.5"/>
  <text x="30" y="19.0" text-anchor="end" font-size="8" fill="#6b7280">+20</text>
  <text x="30" y="50.0" text-anchor="end" font-size="8" fill="#6b7280">0</text>
  <line x1="34" y1="78.0" x2="399" y2="78.0" stroke="#e5e7eb" stroke-width="0.5"/>
  <text x="30" y="81.0" text-anchor="end" font-size="8" fill="#6b7280">-20</text>
  <line x1="34" y1="109.0" x2="399" y2="109.0" stroke="#e5e7eb" stroke-width="0.5"/>
  <text x="30" y="112.0" text-anchor="end" font-size="8" fill="#6b7280">-40</text>
  <line x1="34" y1="140.0" x2="399" y2="140.0" stroke="#e5e7eb" stroke-width="0.5"/>
  <text x="30" y="143.0" text-anchor="end" font-size="8" fill="#6b7280">-60</text>
  <line x1="34" y1="171.0" x2="399" y2="171.0" stroke="#e5e7eb" stroke-width="0.5"/>
  <text x="30" y="174.0" text-anchor="end" font-size="8" fill="#6b7280">-80</text>
  <defs><linearGradient id="g258" x1="0" y1="16" x2="0" y2="171" gradientUnits="userSpaceOnUse">
    <stop offset="0%" stop-color="#4a90d9" stop-opacity="0.15"/>
    <stop offset="100%" stop-color="#4a90d9" stop-opacity="0.02"/>
  </linearGradient></defs>
  <path d="M37.5,79.9 37.5,79.9 70.8,64.3 90.3,57.4 104.1,53.8 114.8,51.7 123.6,50.4 131.0,49.6 137.4,49.0 143.1,48.6 148.1,48.3 152.7,48.1 156.9,47.9 160.7,47.7 164.3,47.6 167.6,47.5 170.7,47.5 173.6,47.4 176.3,47.4 178.9,47.3 181.4,47.3 183.7,47.2 186.0,47.2 188.1,47.2 190.2,47.2 192.1,47.1 194.0,47.1 195.8,47.1 197.6,47.1 199.2,47.1 200.9,47.1 202.4,47.1 204.0,47.0 205.5,47.0 206.9,47.0 208.3,47.0 209.6,47.0 210.9,47.0 212.2,47.0 213.5,47.0 214.7,47.0 215.9,47.0 217.0,46.9 218.2,46.9 219.3,46.9 220.3,46.9 221.4,46.9 222.4,46.9 223.4,46.9 224.4,46.9 225.4,46.8 226.4,46.8 227.3,46.8 228.2,46.8 229.1,46.8 230.0,46.8 230.8,46.8 231.7,46.7 232.5,46.7 233.4,46.7 234.2,46.7 235.7,46.6 237.3,46.6 238.7,46.5 240.2,46.5 241.6,46.4 242.9,46.4 244.2,46.3 245.5,46.3 246.8,46.2 248.0,46.1 249.2,46.0 250.3,46.0 251.4,45.9 252.6,45.8 253.6,45.7 254.7,45.6 255.7,45.5 256.7,45.4 257.7,45.4 258.7,45.3 259.6,45.2 260.6,45.1 261.5,45.0 262.4,44.9 263.3,44.8 264.1,44.6 265.0,44.5 265.8,44.4 266.6,44.3 267.4,44.2 268.6,44.1 269.8,43.9 270.9,43.8 272.0,43.7 273.1,43.5 274.2,43.4 275.2,43.3 276.2,43.1 277.2,43.0 278.2,42.9 279.1,42.8 280.0,42.7 281.0,42.6 281.9,42.5 282.7,42.4 283.6,42.3 284.5,42.2 285.3,42.2 286.1,42.1 286.9,42.0 288.0,41.9 289.0,41.8 290.0,41.8 291.0,41.7 292.0,41.6 292.9,41.6 293.9,41.5 294.8,41.5 295.7,41.4 296.6,41.4 297.4,41.3 298.3,41.3 299.1,41.3 299.9,41.2 300.7,41.2 301.7,41.2 302.7,41.1 303.6,41.1 304.6,41.1 305.5,41.1 306.4,41.0 307.3,41.0 308.1,41.0 309.0,41.0 309.8,41.0 310.6,40.9 311.4,40.9 312.4,40.9 313.3,40.9 314.2,40.9 315.1,40.9 316.0,40.9 316.9,40.9 317.7,40.8 318.6,40.8 319.4,40.8 320.2,40.8 321.1,40.8 322.0,40.8 322.9,40.8 323.8,40.8 324.7,40.8 325.5,40.8 326.3,40.8 327.1,40.8 327.9,40.8 328.8,40.8 329.7,40.8 330.6,40.8 331.4,40.8 332.3,40.8 333.1,40.8 333.9,40.8 334.8,40.8 335.7,40.8 336.5,40.8 337.4,40.8 338.2,40.8 339.0,40.8 339.8,40.7 340.7,40.7 341.6,40.7 342.4,40.7 343.3,40.7 344.1,40.7 344.9,40.7 345.8,40.7 346.6,40.7 347.5,40.7 348.3,40.7 349.1,40.7 350.0,40.7 350.8,40.7 351.7,40.7 352.5,40.7 353.3,40.7 354.1,40.7 355.0,40.7 355.8,40.7 356.6,40.7 357.5,40.7 358.3,40.7 359.1,40.7 360.0,40.7 360.8,40.7 361.6,40.7 362.5,40.7 363.3,40.7 364.1,40.7 364.9,40.7 365.8,40.7 366.6,40.7 367.4,40.7 368.2,40.7 369.1,40.7 369.9,40.7 370.7,40.7 371.6,40.7 372.4,40.7 373.2,40.7 374.0,40.7 374.8,40.7 375.6,40.7 376.5,40.7 377.3,40.7 378.1,40.7 378.9,40.7 379.7,40.7 380.5,40.7 381.4,40.7 382.2,40.7 383.0,40.7 383.8,40.7 384.6,40.7 385.5,40.7 386.3,40.7 387.1,40.7 387.9,40.7 388.7,40.7 389.5,40.7 390.3,40.7 391.2,40.7 392.0,40.7 392.8,40.7 393.6,40.7 394.4,40.7 395.2,40.7 396.0,40.7 396.8,40.7 397.6,40.7 398.5,40.7 L398.5,171.0 L37.5,171.0 Z" fill="url(#g258)"/>
  <defs><clipPath id="pc259"><rect x="34" y="16" width="365" height="155"/></clipPath></defs>
  <polyline points="37.5,79.9 70.8,64.3 90.3,57.4 104.1,53.8 114.8,51.7 123.6,50.4 131.0,49.6 137.4,49.0 143.1,48.6 148.1,48.3 152.7,48.1 156.9,47.9 160.7,47.7 164.3,47.6 167.6,47.5 170.7,47.5 173.6,47.4 176.3,47.4 178.9,47.3 181.4,47.3 183.7,47.2 186.0,47.2 188.1,47.2 190.2,47.2 192.1,47.1 194.0,47.1 195.8,47.1 197.6,47.1 199.2,47.1 200.9,47.1 202.4,47.1 204.0,47.0 205.5,47.0 206.9,47.0 208.3,47.0 209.6,47.0 210.9,47.0 212.2,47.0 213.5,47.0 214.7,47.0 215.9,47.0 217.0,46.9 218.2,46.9 219.3,46.9 220.3,46.9 221.4,46.9 222.4,46.9 223.4,46.9 224.4,46.9 225.4,46.8 226.4,46.8 227.3,46.8 228.2,46.8 229.1,46.8 230.0,46.8 230.8,46.8 231.7,46.7 232.5,46.7 233.4,46.7 234.2,46.7 235.7,46.6 237.3,46.6 238.7,46.5 240.2,46.5 241.6,46.4 242.9,46.4 244.2,46.3 245.5,46.3 246.8,46.2 248.0,46.1 249.2,46.0 250.3,46.0 251.4,45.9 252.6,45.8 253.6,45.7 254.7,45.6 255.7,45.5 256.7,45.4 257.7,45.4 258.7,45.3 259.6,45.2 260.6,45.1 261.5,45.0 262.4,44.9 263.3,44.8 264.1,44.6 265.0,44.5 265.8,44.4 266.6,44.3 267.4,44.2 268.6,44.1 269.8,43.9 270.9,43.8 272.0,43.7 273.1,43.5 274.2,43.4 275.2,43.3 276.2,43.1 277.2,43.0 278.2,42.9 279.1,42.8 280.0,42.7 281.0,42.6 281.9,42.5 282.7,42.4 283.6,42.3 284.5,42.2 285.3,42.2 286.1,42.1 286.9,42.0 288.0,41.9 289.0,41.8 290.0,41.8 291.0,41.7 292.0,41.6 292.9,41.6 293.9,41.5 294.8,41.5 295.7,41.4 296.6,41.4 297.4,41.3 298.3,41.3 299.1,41.3 299.9,41.2 300.7,41.2 301.7,41.2 302.7,41.1 303.6,41.1 304.6,41.1 305.5,41.1 306.4,41.0 307.3,41.0 308.1,41.0 309.0,41.0 309.8,41.0 310.6,40.9 311.4,40.9 312.4,40.9 313.3,40.9 314.2,40.9 315.1,40.9 316.0,40.9 316.9,40.9 317.7,40.8 318.6,40.8 319.4,40.8 320.2,40.8 321.1,40.8 322.0,40.8 322.9,40.8 323.8,40.8 324.7,40.8 325.5,40.8 326.3,40.8 327.1,40.8 327.9,40.8 328.8,40.8 329.7,40.8 330.6,40.8 331.4,40.8 332.3,40.8 333.1,40.8 333.9,40.8 334.8,40.8 335.7,40.8 336.5,40.8 337.4,40.8 338.2,40.8 339.0,40.8 339.8,40.7 340.7,40.7 341.6,40.7 342.4,40.7 343.3,40.7 344.1,40.7 344.9,40.7 345.8,40.7 346.6,40.7 347.5,40.7 348.3,40.7 349.1,40.7 350.0,40.7 350.8,40.7 351.7,40.7 352.5,40.7 353.3,40.7 354.1,40.7 355.0,40.7 355.8,40.7 356.6,40.7 357.5,40.7 358.3,40.7 359.1,40.7 360.0,40.7 360.8,40.7 361.6,40.7 362.5,40.7 363.3,40.7 364.1,40.7 364.9,40.7 365.8,40.7 366.6,40.7 367.4,40.7 368.2,40.7 369.1,40.7 369.9,40.7 370.7,40.7 371.6,40.7 372.4,40.7 373.2,40.7 374.0,40.7 374.8,40.7 375.6,40.7 376.5,40.7 377.3,40.7 378.1,40.7 378.9,40.7 379.7,40.7 380.5,40.7 381.4,40.7 382.2,40.7 383.0,40.7 383.8,40.7 384.6,40.7 385.5,40.7 386.3,40.7 387.1,40.7 387.9,40.7 388.7,40.7 389.5,40.7 390.3,40.7 391.2,40.7 392.0,40.7 392.8,40.7 393.6,40.7 394.4,40.7 395.2,40.7 396.0,40.7 396.8,40.7 397.6,40.7 398.5,40.7" fill="none" stroke="#4a90d9" stroke-width="1.5" stroke-linejoin="round" clip-path="url(#pc259)"/>
  <line x1="435" y1="16" x2="435" y2="171" stroke="#d1d5db"/>
  <line x1="435" y1="93.5" x2="800" y2="93.5" stroke="#d1d5db"/>
  <text x="617.5" y="197" text-anchor="middle" font-size="9" fill="#6b7280">Hz</text>
  <text x="413" y="93.5" text-anchor="middle" font-size="9" fill="#6b7280" transform="rotate(-90 413 93.5)">Phase (deg)</text>
  <line x1="468.3" y1="16" x2="468.3" y2="171" stroke="#e5e7eb" stroke-width="0.5"/>
  <line x1="487.8" y1="16" x2="487.8" y2="171" stroke="#e5e7eb" stroke-width="0.5"/>
  <line x1="501.6" y1="16" x2="501.6" y2="171" stroke="#e5e7eb" stroke-width="0.5"/>
  <line x1="512.3" y1="16" x2="512.3" y2="171" stroke="#e5e7eb" stroke-width="0.5"/>
  <line x1="521.0" y1="16" x2="521.0" y2="171" stroke="#e5e7eb" stroke-width="0.5"/>
  <line x1="528.4" y1="16" x2="528.4" y2="171" stroke="#e5e7eb" stroke-width="0.5"/>
  <line x1="534.9" y1="16" x2="534.9" y2="171" stroke="#e5e7eb" stroke-width="0.5"/>
  <line x1="540.5" y1="16" x2="540.5" y2="171" stroke="#e5e7eb" stroke-width="0.5"/>
  <line x1="578.9" y1="16" x2="578.9" y2="171" stroke="#e5e7eb" stroke-width="0.5"/>
  <line x1="598.3" y1="16" x2="598.3" y2="171" stroke="#e5e7eb" stroke-width="0.5"/>
  <line x1="612.1" y1="16" x2="612.1" y2="171" stroke="#e5e7eb" stroke-width="0.5"/>
  <line x1="622.9" y1="16" x2="622.9" y2="171" stroke="#e5e7eb" stroke-width="0.5"/>
  <line x1="631.6" y1="16" x2="631.6" y2="171" stroke="#e5e7eb" stroke-width="0.5"/>
  <line x1="639.0" y1="16" x2="639.0" y2="171" stroke="#e5e7eb" stroke-width="0.5"/>
  <line x1="645.4" y1="16" x2="645.4" y2="171" stroke="#e5e7eb" stroke-width="0.5"/>
  <line x1="651.1" y1="16" x2="651.1" y2="171" stroke="#e5e7eb" stroke-width="0.5"/>
  <line x1="689.4" y1="16" x2="689.4" y2="171" stroke="#e5e7eb" stroke-width="0.5"/>
  <line x1="708.9" y1="16" x2="708.9" y2="171" stroke="#e5e7eb" stroke-width="0.5"/>
  <line x1="722.7" y1="16" x2="722.7" y2="171" stroke="#e5e7eb" stroke-width="0.5"/>
  <line x1="733.4" y1="16" x2="733.4" y2="171" stroke="#e5e7eb" stroke-width="0.5"/>
  <line x1="742.2" y1="16" x2="742.2" y2="171" stroke="#e5e7eb" stroke-width="0.5"/>
  <line x1="749.6" y1="16" x2="749.6" y2="171" stroke="#e5e7eb" stroke-width="0.5"/>
  <line x1="756.0" y1="16" x2="756.0" y2="171" stroke="#e5e7eb" stroke-width="0.5"/>
  <line x1="761.7" y1="16" x2="761.7" y2="171" stroke="#e5e7eb" stroke-width="0.5"/>
  <line x1="800.0" y1="16" x2="800.0" y2="171" stroke="#e5e7eb" stroke-width="0.5"/>
  <line x1="545.6" y1="16" x2="545.6" y2="171" stroke="#e5e7eb" stroke-width="0.5"/>
  <text x="545.6" y="183" text-anchor="middle" font-size="8" fill="#6b7280">100</text>
  <line x1="656.1" y1="16" x2="656.1" y2="171" stroke="#e5e7eb" stroke-width="0.5"/>
  <text x="656.1" y="183" text-anchor="middle" font-size="8" fill="#6b7280">1k</text>
  <line x1="766.7" y1="16" x2="766.7" y2="171" stroke="#e5e7eb" stroke-width="0.5"/>
  <text x="766.7" y="183" text-anchor="middle" font-size="8" fill="#6b7280">10k</text>
  <line x1="435" y1="58.6" x2="800" y2="58.6" stroke="#e5e7eb" stroke-width="0.5"/>
  <line x1="435" y1="128.4" x2="800" y2="128.4" stroke="#e5e7eb" stroke-width="0.5"/>
  <line x1="435" y1="23.8" x2="800" y2="23.8" stroke="#e5e7eb" stroke-width="0.5"/>
  <text x="431" y="26.8" text-anchor="end" font-size="8" fill="#6b7280">180</text>
  <text x="431" y="96.5" text-anchor="end" font-size="8" fill="#6b7280">0</text>
  <line x1="435" y1="163.3" x2="800" y2="163.3" stroke="#e5e7eb" stroke-width="0.5"/>
  <text x="431" y="166.3" text-anchor="end" font-size="8" fill="#6b7280">-180</text>
  <defs><linearGradient id="g260" x1="0" y1="16" x2="0" y2="93.5" gradientUnits="userSpaceOnUse">
    <stop offset="0%" stop-color="#e74c3c" stop-opacity="0.15"/>
    <stop offset="100%" stop-color="#e74c3c" stop-opacity="0.02"/>
  </linearGradient></defs>
  <path d="M438.5,36.9 438.5,36.9 471.8,48.1 491.3,56.7 505.1,63.0 515.8,67.6 524.6,71.1 532.0,73.8 538.4,75.9 544.1,77.6 549.1,79.0 553.7,80.1 557.9,81.1 561.7,81.9 565.3,82.6 568.6,83.2 571.7,83.7 574.6,84.1 577.3,84.5 579.9,84.9 582.4,85.2 584.7,85.5 587.0,85.7 589.1,85.9 591.2,86.1 593.1,86.3 595.0,86.5 596.8,86.6 598.6,86.7 600.2,86.8 601.9,86.9 603.4,87.0 605.0,87.1 606.5,87.2 607.9,87.2 609.3,87.3 610.6,87.3 611.9,87.4 613.2,87.4 614.5,87.4 615.7,87.4 616.9,87.5 618.0,87.5 619.2,87.5 620.3,87.5 621.3,87.5 622.4,87.5 623.4,87.5 624.4,87.5 625.4,87.5 626.4,87.4 627.4,87.4 628.3,87.4 629.2,87.4 630.1,87.4 631.0,87.3 631.8,87.3 632.7,87.3 633.5,87.2 634.4,87.2 635.2,87.2 636.7,87.1 638.3,87.0 639.7,86.9 641.2,86.8 642.6,86.7 643.9,86.6 645.2,86.5 646.5,86.4 647.8,86.4 649.0,86.3 650.2,86.2 651.3,86.1 652.4,86.0 653.6,85.9 654.6,85.8 655.7,85.7 656.7,85.7 657.7,85.6 658.7,85.5 659.7,85.5 660.6,85.4 661.6,85.4 662.5,85.3 663.4,85.3 664.3,85.2 665.1,85.2 666.0,85.2 666.8,85.2 667.6,85.2 668.4,85.2 669.6,85.2 670.8,85.2 671.9,85.2 673.0,85.2 674.1,85.3 675.2,85.3 676.2,85.4 677.2,85.5 678.2,85.5 679.2,85.6 680.1,85.7 681.0,85.8 682.0,85.9 682.9,86.0 683.7,86.1 684.6,86.2 685.5,86.3 686.3,86.4 687.1,86.5 687.9,86.6 689.0,86.7 690.0,86.8 691.0,87.0 692.0,87.1 693.0,87.2 693.9,87.3 694.9,87.5 695.8,87.6 696.7,87.7 697.6,87.8 698.4,87.9 699.3,88.0 700.1,88.2 700.9,88.3 701.7,88.4 702.7,88.5 703.7,88.6 704.6,88.7 705.6,88.8 706.5,88.9 707.4,89.0 708.3,89.1 709.1,89.2 710.0,89.3 710.8,89.4 711.6,89.5 712.4,89.5 713.4,89.6 714.3,89.7 715.2,89.8 716.1,89.9 717.0,90.0 717.9,90.0 718.7,90.1 719.6,90.2 720.4,90.3 721.2,90.3 722.1,90.4 723.0,90.5 723.9,90.5 724.8,90.6 725.7,90.7 726.5,90.7 727.3,90.8 728.1,90.8 728.9,90.9 729.8,90.9 730.7,91.0 731.6,91.0 732.4,91.1 733.3,91.1 734.1,91.2 734.9,91.2 735.8,91.3 736.7,91.3 737.5,91.4 738.4,91.4 739.2,91.5 740.0,91.5 740.8,91.6 741.7,91.6 742.6,91.6 743.4,91.7 744.3,91.7 745.1,91.8 745.9,91.8 746.8,91.8 747.6,91.9 748.5,91.9 749.3,91.9 750.1,92.0 751.0,92.0 751.8,92.0 752.7,92.1 753.5,92.1 754.3,92.1 755.1,92.2 756.0,92.2 756.8,92.2 757.6,92.2 758.5,92.3 759.3,92.3 760.1,92.3 761.0,92.4 761.8,92.4 762.6,92.4 763.5,92.4 764.3,92.5 765.1,92.5 765.9,92.5 766.8,92.5 767.6,92.6 768.4,92.6 769.2,92.6 770.1,92.6 770.9,92.7 771.7,92.7 772.6,92.7 773.4,92.7 774.2,92.7 775.0,92.8 775.8,92.8 776.6,92.8 777.5,92.8 778.3,92.9 779.1,92.9 779.9,92.9 780.7,92.9 781.5,92.9 782.4,93.0 783.2,93.0 784.0,93.0 784.8,93.0 785.6,93.0 786.5,93.1 787.3,93.1 788.1,93.1 788.9,93.1 789.7,93.1 790.5,93.1 791.3,93.2 792.2,93.2 793.0,93.2 793.8,93.2 794.6,93.2 795.4,93.3 796.2,93.3 797.0,93.3 797.8,93.3 798.6,93.3 799.5,93.4 L799.5,93.5 L438.5,93.5 Z" fill="url(#g260)"/>
  <defs><clipPath id="pc261"><rect x="435" y="16" width="365" height="155"/></clipPath></defs>
  <polyline points="438.5,36.9 471.8,48.1 491.3,56.7 505.1,63.0 515.8,67.6 524.6,71.1 532.0,73.8 538.4,75.9 544.1,77.6 549.1,79.0 553.7,80.1 557.9,81.1 561.7,81.9 565.3,82.6 568.6,83.2 571.7,83.7 574.6,84.1 577.3,84.5 579.9,84.9 582.4,85.2 584.7,85.5 587.0,85.7 589.1,85.9 591.2,86.1 593.1,86.3 595.0,86.5 596.8,86.6 598.6,86.7 600.2,86.8 601.9,86.9 603.4,87.0 605.0,87.1 606.5,87.2 607.9,87.2 609.3,87.3 610.6,87.3 611.9,87.4 613.2,87.4 614.5,87.4 615.7,87.4 616.9,87.5 618.0,87.5 619.2,87.5 620.3,87.5 621.3,87.5 622.4,87.5 623.4,87.5 624.4,87.5 625.4,87.5 626.4,87.4 627.4,87.4 628.3,87.4 629.2,87.4 630.1,87.4 631.0,87.3 631.8,87.3 632.7,87.3 633.5,87.2 634.4,87.2 635.2,87.2 636.7,87.1 638.3,87.0 639.7,86.9 641.2,86.8 642.6,86.7 643.9,86.6 645.2,86.5 646.5,86.4 647.8,86.4 649.0,86.3 650.2,86.2 651.3,86.1 652.4,86.0 653.6,85.9 654.6,85.8 655.7,85.7 656.7,85.7 657.7,85.6 658.7,85.5 659.7,85.5 660.6,85.4 661.6,85.4 662.5,85.3 663.4,85.3 664.3,85.2 665.1,85.2 666.0,85.2 666.8,85.2 667.6,85.2 668.4,85.2 669.6,85.2 670.8,85.2 671.9,85.2 673.0,85.2 674.1,85.3 675.2,85.3 676.2,85.4 677.2,85.5 678.2,85.5 679.2,85.6 680.1,85.7 681.0,85.8 682.0,85.9 682.9,86.0 683.7,86.1 684.6,86.2 685.5,86.3 686.3,86.4 687.1,86.5 687.9,86.6 689.0,86.7 690.0,86.8 691.0,87.0 692.0,87.1 693.0,87.2 693.9,87.3 694.9,87.5 695.8,87.6 696.7,87.7 697.6,87.8 698.4,87.9 699.3,88.0 700.1,88.2 700.9,88.3 701.7,88.4 702.7,88.5 703.7,88.6 704.6,88.7 705.6,88.8 706.5,88.9 707.4,89.0 708.3,89.1 709.1,89.2 710.0,89.3 710.8,89.4 711.6,89.5 712.4,89.5 713.4,89.6 714.3,89.7 715.2,89.8 716.1,89.9 717.0,90.0 717.9,90.0 718.7,90.1 719.6,90.2 720.4,90.3 721.2,90.3 722.1,90.4 723.0,90.5 723.9,90.5 724.8,90.6 725.7,90.7 726.5,90.7 727.3,90.8 728.1,90.8 728.9,90.9 729.8,90.9 730.7,91.0 731.6,91.0 732.4,91.1 733.3,91.1 734.1,91.2 734.9,91.2 735.8,91.3 736.7,91.3 737.5,91.4 738.4,91.4 739.2,91.5 740.0,91.5 740.8,91.6 741.7,91.6 742.6,91.6 743.4,91.7 744.3,91.7 745.1,91.8 745.9,91.8 746.8,91.8 747.6,91.9 748.5,91.9 749.3,91.9 750.1,92.0 751.0,92.0 751.8,92.0 752.7,92.1 753.5,92.1 754.3,92.1 755.1,92.2 756.0,92.2 756.8,92.2 757.6,92.2 758.5,92.3 759.3,92.3 760.1,92.3 761.0,92.4 761.8,92.4 762.6,92.4 763.5,92.4 764.3,92.5 765.1,92.5 765.9,92.5 766.8,92.5 767.6,92.6 768.4,92.6 769.2,92.6 770.1,92.6 770.9,92.7 771.7,92.7 772.6,92.7 773.4,92.7 774.2,92.7 775.0,92.8 775.8,92.8 776.6,92.8 777.5,92.8 778.3,92.9 779.1,92.9 779.9,92.9 780.7,92.9 781.5,92.9 782.4,93.0 783.2,93.0 784.0,93.0 784.8,93.0 785.6,93.0 786.5,93.1 787.3,93.1 788.1,93.1 788.9,93.1 789.7,93.1 790.5,93.1 791.3,93.2 792.2,93.2 793.0,93.2 793.8,93.2 794.6,93.2 795.4,93.3 796.2,93.3 797.0,93.3 797.8,93.3 798.6,93.3 799.5,93.4" fill="none" stroke="#e74c3c" stroke-width="1.5" stroke-linejoin="round" clip-path="url(#pc261)"/>
  <line x1="34" y1="207" x2="34" y2="362" stroke="#d1d5db"/>
  <line x1="34" y1="284.5" x2="399" y2="284.5" stroke="#d1d5db"/>
  <text x="216.5" y="388" text-anchor="middle" font-size="9" fill="#6b7280">Hz</text>
  <text x="12" y="284.5" text-anchor="middle" font-size="9" fill="#6b7280" transform="rotate(-90 12 284.5)">Group delay</text>
  <line x1="67.3" y1="207" x2="67.3" y2="362" stroke="#e5e7eb" stroke-width="0.5"/>
  <line x1="86.8" y1="207" x2="86.8" y2="362" stroke="#e5e7eb" stroke-width="0.5"/>
  <line x1="100.6" y1="207" x2="100.6" y2="362" stroke="#e5e7eb" stroke-width="0.5"/>
  <line x1="111.3" y1="207" x2="111.3" y2="362" stroke="#e5e7eb" stroke-width="0.5"/>
  <line x1="120.0" y1="207" x2="120.0" y2="362" stroke="#e5e7eb" stroke-width="0.5"/>
  <line x1="127.4" y1="207" x2="127.4" y2="362" stroke="#e5e7eb" stroke-width="0.5"/>
  <line x1="133.9" y1="207" x2="133.9" y2="362" stroke="#e5e7eb" stroke-width="0.5"/>
  <line x1="139.5" y1="207" x2="139.5" y2="362" stroke="#e5e7eb" stroke-width="0.5"/>
  <line x1="177.9" y1="207" x2="177.9" y2="362" stroke="#e5e7eb" stroke-width="0.5"/>
  <line x1="197.3" y1="207" x2="197.3" y2="362" stroke="#e5e7eb" stroke-width="0.5"/>
  <line x1="211.1" y1="207" x2="211.1" y2="362" stroke="#e5e7eb" stroke-width="0.5"/>
  <line x1="221.9" y1="207" x2="221.9" y2="362" stroke="#e5e7eb" stroke-width="0.5"/>
  <line x1="230.6" y1="207" x2="230.6" y2="362" stroke="#e5e7eb" stroke-width="0.5"/>
  <line x1="238.0" y1="207" x2="238.0" y2="362" stroke="#e5e7eb" stroke-width="0.5"/>
  <line x1="244.4" y1="207" x2="244.4" y2="362" stroke="#e5e7eb" stroke-width="0.5"/>
  <line x1="250.1" y1="207" x2="250.1" y2="362" stroke="#e5e7eb" stroke-width="0.5"/>
  <line x1="288.4" y1="207" x2="288.4" y2="362" stroke="#e5e7eb" stroke-width="0.5"/>
  <line x1="307.9" y1="207" x2="307.9" y2="362" stroke="#e5e7eb" stroke-width="0.5"/>
  <line x1="321.7" y1="207" x2="321.7" y2="362" stroke="#e5e7eb" stroke-width="0.5"/>
  <line x1="332.4" y1="207" x2="332.4" y2="362" stroke="#e5e7eb" stroke-width="0.5"/>
  <line x1="341.2" y1="207" x2="341.2" y2="362" stroke="#e5e7eb" stroke-width="0.5"/>
  <line x1="348.6" y1="207" x2="348.6" y2="362" stroke="#e5e7eb" stroke-width="0.5"/>
  <line x1="355.0" y1="207" x2="355.0" y2="362" stroke="#e5e7eb" stroke-width="0.5"/>
  <line x1="360.7" y1="207" x2="360.7" y2="362" stroke="#e5e7eb" stroke-width="0.5"/>
  <line x1="399.0" y1="207" x2="399.0" y2="362" stroke="#e5e7eb" stroke-width="0.5"/>
  <line x1="144.6" y1="207" x2="144.6" y2="362" stroke="#e5e7eb" stroke-width="0.5"/>
  <text x="144.6" y="374" text-anchor="middle" font-size="8" fill="#6b7280">100</text>
  <line x1="255.1" y1="207" x2="255.1" y2="362" stroke="#e5e7eb" stroke-width="0.5"/>
  <text x="255.1" y="374" text-anchor="middle" font-size="8" fill="#6b7280">1k</text>
  <line x1="365.7" y1="207" x2="365.7" y2="362" stroke="#e5e7eb" stroke-width="0.5"/>
  <text x="365.7" y="374" text-anchor="middle" font-size="8" fill="#6b7280">10k</text>
  <line x1="34" y1="324.5" x2="399" y2="324.5" stroke="#e5e7eb" stroke-width="0.5"/>
  <text x="30" y="327.5" text-anchor="end" font-size="8" fill="#6b7280">-800</text>
  <text x="30" y="287.5" text-anchor="end" font-size="8" fill="#6b7280">0</text>
  <line x1="34" y1="244.5" x2="399" y2="244.5" stroke="#e5e7eb" stroke-width="0.5"/>
  <text x="30" y="247.5" text-anchor="end" font-size="8" fill="#6b7280">800</text>
  <defs><linearGradient id="g262" x1="0" y1="207" x2="0" y2="284.5" gradientUnits="userSpaceOnUse">
    <stop offset="0%" stop-color="#2ecc71" stop-opacity="0.15"/>
    <stop offset="100%" stop-color="#2ecc71" stop-opacity="0.02"/>
  </linearGradient></defs>
  <path d="M37.5,224.9 37.5,224.9 70.8,260.8 90.3,272.7 104.1,278.0 114.8,280.6 123.6,282.0 131.0,282.8 137.4,283.3 143.1,283.7 148.1,283.9 152.7,284.0 156.9,284.1 160.7,284.2 164.3,284.3 167.6,284.3 170.7,284.3 173.6,284.4 176.3,284.4 178.9,284.4 181.4,284.4 183.7,284.4 186.0,284.4 188.1,284.4 190.2,284.4 192.1,284.5 194.0,284.5 195.8,284.5 197.6,284.5 199.2,284.5 200.9,284.5 202.4,284.5 204.0,284.5 205.5,284.5 206.9,284.5 208.3,284.5 209.6,284.5 210.9,284.5 212.2,284.5 213.5,284.5 214.7,284.5 215.9,284.5 217.0,284.5 218.2,284.5 219.3,284.5 220.3,284.5 221.4,284.5 222.4,284.5 223.4,284.5 224.4,284.5 225.4,284.5 226.4,284.5 227.3,284.5 228.2,284.5 229.1,284.5 230.0,284.5 230.8,284.5 231.7,284.5 232.5,284.5 233.4,284.5 234.2,284.5 235.7,284.4 237.3,284.4 238.7,284.4 240.2,284.4 241.6,284.4 242.9,284.4 244.2,284.4 245.5,284.4 246.8,284.4 248.0,284.4 249.2,284.4 250.3,284.4 251.4,284.4 252.6,284.4 253.6,284.4 254.7,284.4 255.7,284.4 256.7,284.4 257.7,284.4 258.7,284.4 259.6,284.4 260.6,284.4 261.5,284.4 262.4,284.4 263.3,284.4 264.1,284.4 265.0,284.4 265.8,284.4 266.6,284.4 267.4,284.4 268.6,284.4 269.8,284.4 270.9,284.4 272.0,284.4 273.1,284.4 274.2,284.4 275.2,284.4 276.2,284.4 277.2,284.4 278.2,284.4 279.1,284.4 280.0,284.4 281.0,284.4 281.9,284.4 282.7,284.4 283.6,284.4 284.5,284.4 285.3,284.4 286.1,284.4 286.9,284.4 288.0,284.4 289.0,284.5 290.0,284.5 291.0,284.5 292.0,284.5 292.9,284.5 293.9,284.5 294.8,284.5 295.7,284.5 296.6,284.5 297.4,284.5 298.3,284.5 299.1,284.5 299.9,284.5 300.7,284.5 301.7,284.5 302.7,284.5 303.6,284.5 304.6,284.5 305.5,284.5 306.4,284.5 307.3,284.5 308.1,284.5 309.0,284.5 309.8,284.5 310.6,284.5 311.4,284.5 312.4,284.5 313.3,284.5 314.2,284.5 315.1,284.5 316.0,284.5 316.9,284.5 317.7,284.5 318.6,284.5 319.4,284.5 320.2,284.5 321.1,284.5 322.0,284.5 322.9,284.5 323.8,284.5 324.7,284.5 325.5,284.5 326.3,284.5 327.1,284.5 327.9,284.5 328.8,284.5 329.7,284.5 330.6,284.5 331.4,284.5 332.3,284.5 333.1,284.5 333.9,284.5 334.8,284.5 335.7,284.5 336.5,284.5 337.4,284.5 338.2,284.5 339.0,284.5 339.8,284.5 340.7,284.5 341.6,284.5 342.4,284.5 343.3,284.5 344.1,284.5 344.9,284.5 345.8,284.5 346.6,284.5 347.5,284.5 348.3,284.5 349.1,284.5 350.0,284.5 350.8,284.5 351.7,284.5 352.5,284.5 353.3,284.5 354.1,284.5 355.0,284.5 355.8,284.5 356.6,284.5 357.5,284.5 358.3,284.5 359.1,284.5 360.0,284.5 360.8,284.5 361.6,284.5 362.5,284.5 363.3,284.5 364.1,284.5 364.9,284.5 365.8,284.5 366.6,284.5 367.4,284.5 368.2,284.5 369.1,284.5 369.9,284.5 370.7,284.5 371.6,284.5 372.4,284.5 373.2,284.5 374.0,284.5 374.8,284.5 375.6,284.5 376.5,284.5 377.3,284.5 378.1,284.5 378.9,284.5 379.7,284.5 380.5,284.5 381.4,284.5 382.2,284.5 383.0,284.5 383.8,284.5 384.6,284.5 385.5,284.5 386.3,284.5 387.1,284.5 387.9,284.5 388.7,284.5 389.5,284.5 390.3,284.5 391.2,284.5 392.0,284.5 392.8,284.5 393.6,284.5 394.4,284.5 395.2,284.5 396.0,284.5 396.8,284.5 397.6,284.5 398.5,284.5 L398.5,284.5 L37.5,284.5 Z" fill="url(#g262)"/>
  <defs><clipPath id="pc263"><rect x="34" y="207" width="365" height="155"/></clipPath></defs>
  <polyline points="37.5,224.9 70.8,260.8 90.3,272.7 104.1,278.0 114.8,280.6 123.6,282.0 131.0,282.8 137.4,283.3 143.1,283.7 148.1,283.9 152.7,284.0 156.9,284.1 160.7,284.2 164.3,284.3 167.6,284.3 170.7,284.3 173.6,284.4 176.3,284.4 178.9,284.4 181.4,284.4 183.7,284.4 186.0,284.4 188.1,284.4 190.2,284.4 192.1,284.5 194.0,284.5 195.8,284.5 197.6,284.5 199.2,284.5 200.9,284.5 202.4,284.5 204.0,284.5 205.5,284.5 206.9,284.5 208.3,284.5 209.6,284.5 210.9,284.5 212.2,284.5 213.5,284.5 214.7,284.5 215.9,284.5 217.0,284.5 218.2,284.5 219.3,284.5 220.3,284.5 221.4,284.5 222.4,284.5 223.4,284.5 224.4,284.5 225.4,284.5 226.4,284.5 227.3,284.5 228.2,284.5 229.1,284.5 230.0,284.5 230.8,284.5 231.7,284.5 232.5,284.5 233.4,284.5 234.2,284.5 235.7,284.4 237.3,284.4 238.7,284.4 240.2,284.4 241.6,284.4 242.9,284.4 244.2,284.4 245.5,284.4 246.8,284.4 248.0,284.4 249.2,284.4 250.3,284.4 251.4,284.4 252.6,284.4 253.6,284.4 254.7,284.4 255.7,284.4 256.7,284.4 257.7,284.4 258.7,284.4 259.6,284.4 260.6,284.4 261.5,284.4 262.4,284.4 263.3,284.4 264.1,284.4 265.0,284.4 265.8,284.4 266.6,284.4 267.4,284.4 268.6,284.4 269.8,284.4 270.9,284.4 272.0,284.4 273.1,284.4 274.2,284.4 275.2,284.4 276.2,284.4 277.2,284.4 278.2,284.4 279.1,284.4 280.0,284.4 281.0,284.4 281.9,284.4 282.7,284.4 283.6,284.4 284.5,284.4 285.3,284.4 286.1,284.4 286.9,284.4 288.0,284.4 289.0,284.5 290.0,284.5 291.0,284.5 292.0,284.5 292.9,284.5 293.9,284.5 294.8,284.5 295.7,284.5 296.6,284.5 297.4,284.5 298.3,284.5 299.1,284.5 299.9,284.5 300.7,284.5 301.7,284.5 302.7,284.5 303.6,284.5 304.6,284.5 305.5,284.5 306.4,284.5 307.3,284.5 308.1,284.5 309.0,284.5 309.8,284.5 310.6,284.5 311.4,284.5 312.4,284.5 313.3,284.5 314.2,284.5 315.1,284.5 316.0,284.5 316.9,284.5 317.7,284.5 318.6,284.5 319.4,284.5 320.2,284.5 321.1,284.5 322.0,284.5 322.9,284.5 323.8,284.5 324.7,284.5 325.5,284.5 326.3,284.5 327.1,284.5 327.9,284.5 328.8,284.5 329.7,284.5 330.6,284.5 331.4,284.5 332.3,284.5 333.1,284.5 333.9,284.5 334.8,284.5 335.7,284.5 336.5,284.5 337.4,284.5 338.2,284.5 339.0,284.5 339.8,284.5 340.7,284.5 341.6,284.5 342.4,284.5 343.3,284.5 344.1,284.5 344.9,284.5 345.8,284.5 346.6,284.5 347.5,284.5 348.3,284.5 349.1,284.5 350.0,284.5 350.8,284.5 351.7,284.5 352.5,284.5 353.3,284.5 354.1,284.5 355.0,284.5 355.8,284.5 356.6,284.5 357.5,284.5 358.3,284.5 359.1,284.5 360.0,284.5 360.8,284.5 361.6,284.5 362.5,284.5 363.3,284.5 364.1,284.5 364.9,284.5 365.8,284.5 366.6,284.5 367.4,284.5 368.2,284.5 369.1,284.5 369.9,284.5 370.7,284.5 371.6,284.5 372.4,284.5 373.2,284.5 374.0,284.5 374.8,284.5 375.6,284.5 376.5,284.5 377.3,284.5 378.1,284.5 378.9,284.5 379.7,284.5 380.5,284.5 381.4,284.5 382.2,284.5 383.0,284.5 383.8,284.5 384.6,284.5 385.5,284.5 386.3,284.5 387.1,284.5 387.9,284.5 388.7,284.5 389.5,284.5 390.3,284.5 391.2,284.5 392.0,284.5 392.8,284.5 393.6,284.5 394.4,284.5 395.2,284.5 396.0,284.5 396.8,284.5 397.6,284.5 398.5,284.5" fill="none" stroke="#2ecc71" stroke-width="1.5" stroke-linejoin="round" clip-path="url(#pc263)"/>
  <line x1="435" y1="207" x2="435" y2="362" stroke="#d1d5db"/>
  <line x1="435" y1="284.5" x2="800" y2="284.5" stroke="#d1d5db"/>
  <text x="617.5" y="388" text-anchor="middle" font-size="9" fill="#6b7280">Samples</text>
  <text x="413" y="284.5" text-anchor="middle" font-size="9" fill="#6b7280" transform="rotate(-90 413 284.5)">Impulse response</text>
  <line x1="435.0" y1="207" x2="435.0" y2="362" stroke="#e5e7eb" stroke-width="0.5"/>
  <text x="435.0" y="374" text-anchor="middle" font-size="8" fill="#6b7280">0</text>
  <line x1="526.3" y1="207" x2="526.3" y2="362" stroke="#e5e7eb" stroke-width="0.5"/>
  <text x="526.3" y="374" text-anchor="middle" font-size="8" fill="#6b7280">32</text>
  <line x1="617.5" y1="207" x2="617.5" y2="362" stroke="#e5e7eb" stroke-width="0.5"/>
  <text x="617.5" y="374" text-anchor="middle" font-size="8" fill="#6b7280">64</text>
  <line x1="708.8" y1="207" x2="708.8" y2="362" stroke="#e5e7eb" stroke-width="0.5"/>
  <text x="708.8" y="374" text-anchor="middle" font-size="8" fill="#6b7280">96</text>
  <line x1="800.0" y1="207" x2="800.0" y2="362" stroke="#e5e7eb" stroke-width="0.5"/>
  <text x="800.0" y="374" text-anchor="middle" font-size="8" fill="#6b7280">128</text>
  <text x="431" y="287.5" text-anchor="end" font-size="8" fill="#6b7280">0</text>
  <defs><linearGradient id="g264" x1="0" y1="207" x2="0" y2="284.5" gradientUnits="userSpaceOnUse">
    <stop offset="0%" stop-color="#f39c12" stop-opacity="0.15"/>
    <stop offset="100%" stop-color="#f39c12" stop-opacity="0.02"/>
  </linearGradient></defs>
  <defs><linearGradient id="g265" x1="0" y1="362" x2="0" y2="284.5" gradientUnits="userSpaceOnUse">
    <stop offset="0%" stop-color="#f39c12" stop-opacity="0.15"/>
    <stop offset="100%" stop-color="#f39c12" stop-opacity="0.02"/>
  </linearGradient></defs>
  <defs><clipPath id="c266"><rect x="435" y="207" width="365" height="77.5"/></clipPath></defs>
  <defs><clipPath id="c267"><rect x="435" y="284.5" width="365" height="77.5"/></clipPath></defs>
  <path d="M435.0,207.0 435.0,207.0 437.9,290.1 440.7,289.7 443.6,289.2 446.4,288.6 449.3,288.1 452.1,287.5 455.0,287.0 457.8,286.6 460.7,286.2 463.5,285.8 466.4,285.5 469.2,285.3 472.1,285.1 474.9,285.0 477.8,284.9 480.6,284.8 483.5,284.7 486.3,284.7 489.2,284.7 492.0,284.7 494.9,284.7 497.7,284.7 500.6,284.7 503.4,284.8 506.3,284.8 509.1,284.8 512.0,284.8 514.8,284.8 517.7,284.8 520.5,284.9 523.4,284.9 526.3,284.9 529.1,284.9 532.0,284.9 534.8,284.9 537.7,284.9 540.5,284.9 543.4,284.9 546.2,284.9 549.1,284.9 551.9,284.9 554.8,284.9 557.6,284.9 560.5,284.9 563.3,284.9 566.2,284.9 569.0,284.9 571.9,284.8 574.7,284.8 577.6,284.8 580.4,284.8 583.3,284.8 586.1,284.8 589.0,284.8 591.8,284.8 594.7,284.8 597.5,284.8 600.4,284.8 603.2,284.8 606.1,284.8 608.9,284.8 611.8,284.8 614.6,284.8 617.5,284.8 620.4,284.8 623.2,284.8 626.1,284.8 628.9,284.8 631.8,284.8 634.6,284.8 637.5,284.8 640.3,284.8 643.2,284.8 646.0,284.8 648.9,284.8 651.7,284.8 654.6,284.8 657.4,284.8 660.3,284.8 663.1,284.8 666.0,284.8 668.8,284.8 671.7,284.8 674.5,284.8 677.4,284.8 680.2,284.8 683.1,284.8 685.9,284.8 688.8,284.7 691.6,284.7 694.5,284.7 697.3,284.7 700.2,284.7 703.0,284.7 705.9,284.7 708.8,284.7 711.6,284.7 714.5,284.7 717.3,284.7 720.2,284.7 723.0,284.7 725.9,284.7 728.7,284.7 731.6,284.7 734.4,284.7 737.3,284.7 740.1,284.7 743.0,284.7 745.8,284.7 748.7,284.7 751.5,284.7 754.4,284.7 757.2,284.7 760.1,284.7 762.9,284.7 765.8,284.7 768.6,284.7 771.5,284.7 774.3,284.7 777.2,284.7 780.0,284.7 782.9,284.7 785.7,284.7 788.6,284.7 791.4,284.7 794.3,284.7 797.1,284.7 L797.1,284.5 L435.0,284.5 Z" fill="url(#g264)" clip-path="url(#c266)"/>
  <path d="M435.0,207.0 435.0,207.0 437.9,290.1 440.7,289.7 443.6,289.2 446.4,288.6 449.3,288.1 452.1,287.5 455.0,287.0 457.8,286.6 460.7,286.2 463.5,285.8 466.4,285.5 469.2,285.3 472.1,285.1 474.9,285.0 477.8,284.9 480.6,284.8 483.5,284.7 486.3,284.7 489.2,284.7 492.0,284.7 494.9,284.7 497.7,284.7 500.6,284.7 503.4,284.8 506.3,284.8 509.1,284.8 512.0,284.8 514.8,284.8 517.7,284.8 520.5,284.9 523.4,284.9 526.3,284.9 529.1,284.9 532.0,284.9 534.8,284.9 537.7,284.9 540.5,284.9 543.4,284.9 546.2,284.9 549.1,284.9 551.9,284.9 554.8,284.9 557.6,284.9 560.5,284.9 563.3,284.9 566.2,284.9 569.0,284.9 571.9,284.8 574.7,284.8 577.6,284.8 580.4,284.8 583.3,284.8 586.1,284.8 589.0,284.8 591.8,284.8 594.7,284.8 597.5,284.8 600.4,284.8 603.2,284.8 606.1,284.8 608.9,284.8 611.8,284.8 614.6,284.8 617.5,284.8 620.4,284.8 623.2,284.8 626.1,284.8 628.9,284.8 631.8,284.8 634.6,284.8 637.5,284.8 640.3,284.8 643.2,284.8 646.0,284.8 648.9,284.8 651.7,284.8 654.6,284.8 657.4,284.8 660.3,284.8 663.1,284.8 666.0,284.8 668.8,284.8 671.7,284.8 674.5,284.8 677.4,284.8 680.2,284.8 683.1,284.8 685.9,284.8 688.8,284.7 691.6,284.7 694.5,284.7 697.3,284.7 700.2,284.7 703.0,284.7 705.9,284.7 708.8,284.7 711.6,284.7 714.5,284.7 717.3,284.7 720.2,284.7 723.0,284.7 725.9,284.7 728.7,284.7 731.6,284.7 734.4,284.7 737.3,284.7 740.1,284.7 743.0,284.7 745.8,284.7 748.7,284.7 751.5,284.7 754.4,284.7 757.2,284.7 760.1,284.7 762.9,284.7 765.8,284.7 768.6,284.7 771.5,284.7 774.3,284.7 777.2,284.7 780.0,284.7 782.9,284.7 785.7,284.7 788.6,284.7 791.4,284.7 794.3,284.7 797.1,284.7 L797.1,284.5 L435.0,284.5 Z" fill="url(#g265)" clip-path="url(#c267)"/>
  <defs><clipPath id="pc268"><rect x="435" y="207" width="365" height="155"/></clipPath></defs>
  <polyline points="435.0,207.0 437.9,290.1 440.7,289.7 443.6,289.2 446.4,288.6 449.3,288.1 452.1,287.5 455.0,287.0 457.8,286.6 460.7,286.2 463.5,285.8 466.4,285.5 469.2,285.3 472.1,285.1 474.9,285.0 477.8,284.9 480.6,284.8 483.5,284.7 486.3,284.7 489.2,284.7 492.0,284.7 494.9,284.7 497.7,284.7 500.6,284.7 503.4,284.8 506.3,284.8 509.1,284.8 512.0,284.8 514.8,284.8 517.7,284.8 520.5,284.9 523.4,284.9 526.3,284.9 529.1,284.9 532.0,284.9 534.8,284.9 537.7,284.9 540.5,284.9 543.4,284.9 546.2,284.9 549.1,284.9 551.9,284.9 554.8,284.9 557.6,284.9 560.5,284.9 563.3,284.9 566.2,284.9 569.0,284.9 571.9,284.8 574.7,284.8 577.6,284.8 580.4,284.8 583.3,284.8 586.1,284.8 589.0,284.8 591.8,284.8 594.7,284.8 597.5,284.8 600.4,284.8 603.2,284.8 606.1,284.8 608.9,284.8 611.8,284.8 614.6,284.8 617.5,284.8 620.4,284.8 623.2,284.8 626.1,284.8 628.9,284.8 631.8,284.8 634.6,284.8 637.5,284.8 640.3,284.8 643.2,284.8 646.0,284.8 648.9,284.8 651.7,284.8 654.6,284.8 657.4,284.8 660.3,284.8 663.1,284.8 666.0,284.8 668.8,284.8 671.7,284.8 674.5,284.8 677.4,284.8 680.2,284.8 683.1,284.8 685.9,284.8 688.8,284.7 691.6,284.7 694.5,284.7 697.3,284.7 700.2,284.7 703.0,284.7 705.9,284.7 708.8,284.7 711.6,284.7 714.5,284.7 717.3,284.7 720.2,284.7 723.0,284.7 725.9,284.7 728.7,284.7 731.6,284.7 734.4,284.7 737.3,284.7 740.1,284.7 743.0,284.7 745.8,284.7 748.7,284.7 751.5,284.7 754.4,284.7 757.2,284.7 760.1,284.7 762.9,284.7 765.8,284.7 768.6,284.7 771.5,284.7 774.3,284.7 777.2,284.7 780.0,284.7 782.9,284.7 785.7,284.7 788.6,284.7 791.4,284.7 794.3,284.7 797.1,284.7" fill="none" stroke="#f39c12" stroke-width="1.3" stroke-linejoin="round" clip-path="url(#pc268)"/>
</svg>
