<svg xmlns="http://www.w3.org/2000/svg" viewBox="0 0 820 378" style="font-family:system-ui,-apple-system,sans-serif">
  <text x="800" y="11" text-anchor="end" font-size="11" font-weight="600" fill="#6b7280">Korg35 ZDF, fc=1kHz, res=0.3</text>
  <line x1="34" y1="16" x2="34" y2="171" stroke="#d1d5db"/>
  <line x1="34" y1="47.0" x2="399" y2="47.0" stroke="#d1d5db"/>
  <text x="216.5" y="197" text-anchor="middle" font-size="9" fill="#6b7280">Hz</text>
  <text x="12" y="93.5" text-anchor="middle" font-size="9" fill="#6b7280" transform="rotate(-90 12 93.5)">dB</text>
  <line x1="67.3" y1="16" x2="67.3" y2="171" stroke="#e5e7eb" stroke-width="0.5"/>
  <line x1="86.8" y1="16" x2="86.8" y2="171" stroke="#e5e7eb" stroke-width="0.5"/>
  <line x1="100.6" y1="16" x2="100.6" y2="171" stroke="#e5e7eb" stroke-width="0.5"/>
  <line x1="111.3" y1="16" x2="111.3" y2="171" stroke="#e5e7eb" stroke-width="0.5"/>
  <line x1="120.0" y1="16" x2="120.0" y2="171" stroke="#e5e7eb" stroke-width="0.5"/>
  <line x1="127.4" y1="16" x2="127.4" y2="171" stroke="#e5e7eb" stroke-width="0.5"/>
  <line x1="133.9" y1="16" x2="133.9" y2="171" stroke="#e5e7eb" stroke-width="0.5"/>
  <line x1="139.5" y1="16" x2="139.5" y2="171" stroke="#e5e7eb" stroke-width="0.5"/>
  <line x1="177.9" y1="16" x2="177.9" y2="171" stroke="#e5e7eb" stroke-width="0.5"/>
  <line x1="197.3" y1="16" x2="197.3" y2="171" stroke="#e5e7eb" stroke-width="0.5"/>
  <line x1="211.1" y1="16" x2="211.1" y2="171" stroke="#e5e7eb" stroke-width="0.5"/>
  <line x1="221.9" y1="16" x2="221.9" y2="171" stroke="#e5e7eb" stroke-width="0.5"/>
  <line x1="230.6" y1="16" x2="230.6" y2="171" stroke="#e5e7eb" stroke-width="0.5"/>
  <line x1="238.0" y1="16" x2="238.0" y2="171" stroke="#e5e7eb" stroke-width="0.5"/>
  <line x1="244.4" y1="16" x2="244.4" y2="171" stroke="#e5e7eb" stroke-width="0.5"/>
  <line x1="250.1" y1="16" x2="250.1" y2="171" stroke="#e5e7eb" stroke-width="0.5"/>
  <line x1="288.4" y1="16" x2="288.4" y2="171" stroke="#e5e7eb" stroke-width="0.5"/>
  <line x1="307.9" y1="16" x2="307.9" y2="171" stroke="#e5e7eb" stroke-width="0.5"/>
  <line x1="321.7" y1="16" x2="321.7" y2="171" stroke="#e5e7eb" stroke-width="0.5"/>
  <line x1="332.4" y1="16" x2="332.4" y2="171" stroke="#e5e7eb" stroke-width="0.5"/>
  <line x1="341.2" y1="16" x2="341.2" y2="171" stroke="#e5e7eb" stroke-width="0.5"/>
  <line x1="348.6" y1="16" x2="348.6" y2="171" stroke="#e5e7eb" stroke-width="0.5"/>
  <line x1="355.0" y1="16" x2="355.0" y2="171" stroke="#e5e7eb" stroke-width="0.5"/>
  <line x1="360.7" y1="16" x2="360.7" y2="171" stroke="#e5e7eb" stroke-width="0.5"/>
  <line x1="399.0" y1="16" x2="399.0" y2="171" stroke="#e5e7eb" stroke-width="0.5"/>
  <line x1="144.6" y1="16" x2="144.6" y2="171" stroke="#e5e7eb" stroke-width="0.5"/>
  <text x="144.6" y="183" text-anchor="middle" font-size="8" fill="#6b7280">100</text>
  <line x1="255.1" y1="16" x2="255.1" y2="171" stroke="#e5e7eb" stroke-width="0.5"/>
  <text x="255.1" y="183" text-anchor="middle" font-size="8" fill="#6b7280">1k</text>
  <line x1="365.7" y1="16" x2="365.7" y2="171" stroke="#e5e7eb" stroke-width="0.5"/>
  <text x="365.7" y="183" text-anchor="middle" font-size="8" fill="#6b7280">10k</text>
  <line x1="34" y1="31.5" x2="399" y2="31.5" stroke="#e5e7eb" stroke-width="0.5"/>
  <line x1="34" y1="62.5" x2="399" y2="62.5" stroke="#e5e7eb" stroke-width="0.5"/>
  <line x1="34" y1="16.0" x2="399" y2="16.0" stroke="#e5e7eb" stroke-width="0.5"/>
  <text x="30" y="19.0" text-anchor="end" font-size="8" fill="#6b7280">+20</text>
  <text x="30" y="50.0" text-anchor="end" font-size="8" fill="#6b7280">0</text>
  <line x1="34" y1="78.0" x2="399" y2="78.0" stroke="#e5e7eb" stroke-width="0.5"/>
  <text x="30" y="81.0" text-anchor="end" font-size="8" fill="#6b7280">-20</text>
  <line x1="34" y1="109.0" x2="399" y2="109.0" stroke="#e5e7eb" stroke-width="0.5"/>
  <text x="30" y="112.0" text-anchor="end" font-size="8" fill="#6b7280">-40</text>
  <line x1="34" y1="140.0" x2="399" y2="140.0" stroke="#e5e7eb" stroke-width="0.5"/>
  <text x="30" y="143.0" text-anchor="end" font-size="8" fill="#6b7280">-60</text>
  <line x1="34" y1="171.0" x2="399" y2="171.0" stroke="#e5e7eb" stroke-width="0.5"/>
  <text x="30" y="174.0" text-anchor="end" font-size="8" fill="#6b7280">-80</text>
  <line x1="255.1" y1="16" x2="255.1" y2="171" stroke="#d1d5db" stroke-width="1" stroke-dasharray="4 3"/>
  <defs><linearGradient id="g521" x1="0" y1="16" x2="0" y2="171" gradientUnits="userSpaceOnUse">
    <stop offset="0%" stop-color="#4a90d9" stop-opacity="0.15"/>
    <stop offset="100%" stop-color="#4a90d9" stop-opacity="0.02"/>
  </linearGradient></defs>
  <path d="M37.5,57.3 37.5,57.3 70.8,57.3 90.3,57.3 104.1,57.3 114.8,57.3 123.6,57.3 131.0,57.3 137.4,57.3 143.1,57.3 148.1,57.4 152.7,57.4 156.9,57.4 160.7,57.4 164.3,57.4 167.6,57.4 170.7,57.4 173.6,57.4 176.3,57.4 178.9,57.4 181.4,57.4 183.7,57.4 186.0,57.4 188.1,57.4 190.2,57.5 192.1,57.5 194.0,57.5 195.8,57.5 197.6,57.5 199.2,57.5 200.9,57.5 202.4,57.6 204.0,57.6 205.5,57.6 206.9,57.6 208.3,57.6 209.6,57.6 210.9,57.7 212.2,57.7 213.5,57.7 214.7,57.7 215.9,57.8 217.0,57.8 218.2,57.8 219.3,57.8 220.3,57.9 221.4,57.9 222.4,57.9 223.4,58.0 224.4,58.0 225.4,58.0 226.4,58.1 227.3,58.1 228.2,58.1 229.1,58.2 230.0,58.2 230.8,58.2 231.7,58.3 232.5,58.3 233.4,58.4 234.2,58.4 235.7,58.5 237.3,58.6 238.7,58.7 240.2,58.8 241.6,58.9 242.9,59.1 244.2,59.2 245.5,59.3 246.8,59.5 248.0,59.6 249.2,59.7 250.3,59.9 251.4,60.1 252.6,60.2 253.6,60.4 254.7,60.6 255.7,60.7 256.7,60.9 257.7,61.1 258.7,61.3 259.6,61.5 260.6,61.7 261.5,61.9 262.4,62.1 263.3,62.3 264.1,62.6 265.0,62.8 265.8,63.0 266.6,63.2 267.4,63.4 268.6,63.8 269.8,64.1 270.9,64.5 272.0,64.9 273.1,65.2 274.2,65.6 275.2,66.0 276.2,66.3 277.2,66.7 278.2,67.1 279.1,67.4 280.0,67.8 281.0,68.2 281.9,68.5 282.7,68.9 283.6,69.3 284.5,69.6 285.3,70.0 286.1,70.4 286.9,70.7 288.0,71.2 289.0,71.7 290.0,72.2 291.0,72.6 292.0,73.1 292.9,73.6 293.9,74.0 294.8,74.5 295.7,74.9 296.6,75.4 297.4,75.8 298.3,76.2 299.1,76.6 299.9,77.1 300.7,77.5 301.7,78.0 302.7,78.5 303.6,79.0 304.6,79.5 305.5,80.0 306.4,80.5 307.3,81.0 308.1,81.4 309.0,81.9 309.8,82.3 310.6,82.8 311.4,83.2 312.4,83.8 313.3,84.3 314.2,84.8 315.1,85.3 316.0,85.8 316.9,86.3 317.7,86.7 318.6,87.2 319.4,87.7 320.2,88.1 321.1,88.7 322.0,89.2 322.9,89.7 323.8,90.2 324.7,90.7 325.5,91.2 326.3,91.7 327.1,92.2 327.9,92.6 328.8,93.2 329.7,93.7 330.6,94.2 331.4,94.7 332.3,95.2 333.1,95.7 333.9,96.2 334.8,96.7 335.7,97.3 336.5,97.8 337.4,98.3 338.2,98.8 339.0,99.4 339.8,99.9 340.7,100.4 341.6,100.9 342.4,101.5 343.3,102.0 344.1,102.5 344.9,103.0 345.8,103.6 346.6,104.2 347.5,104.7 348.3,105.3 349.1,105.8 350.0,106.4 350.8,106.9 351.7,107.5 352.5,108.1 353.3,108.6 354.1,109.2 355.0,109.8 355.8,110.4 356.6,111.0 357.5,111.6 358.3,112.2 359.1,112.8 360.0,113.4 360.8,114.0 361.6,114.6 362.5,115.3 363.3,115.9 364.1,116.5 364.9,117.2 365.8,117.9 366.6,118.5 367.4,119.2 368.2,119.9 369.1,120.6 369.9,121.3 370.7,122.0 371.6,122.8 372.4,123.5 373.2,124.3 374.0,125.1 374.8,125.9 375.6,126.7 376.5,127.5 377.3,128.3 378.1,129.2 378.9,130.1 379.7,131.0 380.5,131.9 381.4,132.9 382.2,133.9 383.0,134.9 383.8,136.0 384.6,137.1 385.5,138.3 386.3,139.5 387.1,140.7 387.9,142.0 388.7,143.4 389.5,144.8 390.3,146.4 391.2,148.0 392.0,149.7 392.8,151.6 393.6,153.6 394.4,155.7 395.2,158.1 396.0,160.6 396.8,163.5 397.6,166.8 398.5,170.5 L398.5,171.0 L37.5,171.0 Z" fill="url(#g521)"/>
  <defs><clipPath id="pc522"><rect x="34" y="16" width="365" height="155"/></clipPath></defs>
  <polyline points="37.5,57.3 70.8,57.3 90.3,57.3 104.1,57.3 114.8,57.3 123.6,57.3 131.0,57.3 137.4,57.3 143.1,57.3 148.1,57.4 152.7,57.4 156.9,57.4 160.7,57.4 164.3,57.4 167.6,57.4 170.7,57.4 173.6,57.4 176.3,57.4 178.9,57.4 181.4,57.4 183.7,57.4 186.0,57.4 188.1,57.4 190.2,57.5 192.1,57.5 194.0,57.5 195.8,57.5 197.6,57.5 199.2,57.5 200.9,57.5 202.4,57.6 204.0,57.6 205.5,57.6 206.9,57.6 208.3,57.6 209.6,57.6 210.9,57.7 212.2,57.7 213.5,57.7 214.7,57.7 215.9,57.8 217.0,57.8 218.2,57.8 219.3,57.8 220.3,57.9 221.4,57.9 222.4,57.9 223.4,58.0 224.4,58.0 225.4,58.0 226.4,58.1 227.3,58.1 228.2,58.1 229.1,58.2 230.0,58.2 230.8,58.2 231.7,58.3 232.5,58.3 233.4,58.4 234.2,58.4 235.7,58.5 237.3,58.6 238.7,58.7 240.2,58.8 241.6,58.9 242.9,59.1 244.2,59.2 245.5,59.3 246.8,59.5 248.0,59.6 249.2,59.7 250.3,59.9 251.4,60.1 252.6,60.2 253.6,60.4 254.7,60.6 255.7,60.7 256.7,60.9 257.7,61.1 258.7,61.3 259.6,61.5 260.6,61.7 261.5,61.9 262.4,62.1 263.3,62.3 264.1,62.6 265.0,62.8 265.8,63.0 266.6,63.2 267.4,63.4 268.6,63.8 269.8,64.1 270.9,64.5 272.0,64.9 273.1,65.2 274.2,65.6 275.2,66.0 276.2,66.3 277.2,66.7 278.2,67.1 279.1,67.4 280.0,67.8 281.0,68.2 281.9,68.5 282.7,68.9 283.6,69.3 284.5,69.6 285.3,70.0 286.1,70.4 286.9,70.7 288.0,71.2 289.0,71.7 290.0,72.2 291.0,72.6 292.0,73.1 292.9,73.6 293.9,74.0 294.8,74.5 295.7,74.9 296.6,75.4 297.4,75.8 298.3,76.2 299.1,76.6 299.9,77.1 300.7,77.5 301.7,78.0 302.7,78.5 303.6,79.0 304.6,79.5 305.5,80.0 306.4,80.5 307.3,81.0 308.1,81.4 309.0,81.9 309.8,82.3 310.6,82.8 311.4,83.2 312.4,83.8 313.3,84.3 314.2,84.8 315.1,85.3 316.0,85.8 316.9,86.3 317.7,86.7 318.6,87.2 319.4,87.7 320.2,88.1 321.1,88.7 322.0,89.2 322.9,89.7 323.8,90.2 324.7,90.7 325.5,91.2 326.3,91.7 327.1,92.2 327.9,92.6 328.8,93.2 329.7,93.7 330.6,94.2 331.4,94.7 332.3,95.2 333.1,95.7 333.9,96.2 334.8,96.7 335.7,97.3 336.5,97.8 337.4,98.3 338.2,98.8 339.0,99.4 339.8,99.9 340.7,100.4 341.6,100.9 342.4,101.5 343.3,102.0 344.1,102.5 344.9,103.0 345.8,103.6 346.6,104.2 347.5,104.7 348.3,105.3 349.1,105.8 350.0,106.4 350.8,106.9 351.7,107.5 352.5,108.1 353.3,108.6 354.1,109.2 355.0,109.8 355.8,110.4 356.6,111.0 357.5,111.6 358.3,112.2 359.1,112.8 360.0,113.4 360.8,114.0 361.6,114.6 362.5,115.3 363.3,115.9 364.1,116.5 364.9,117.2 365.8,117.9 366.6,118.5 367.4,119.2 368.2,119.9 369.1,120.6 369.9,121.3 370.7,122.0 371.6,122.8 372.4,123.5 373.2,124.3 374.0,125.1 374.8,125.9 375.6,126.7 376.5,127.5 377.3,128.3 378.1,129.2 378.9,130.1 379.7,131.0 380.5,131.9 381.4,132.9 382.2,133.9 383.0,134.9 383.8,136.0 384.6,137.1 385.5,138.3 386.3,139.5 387.1,140.7 387.9,142.0 388.7,143.4 389.5,144.8 390.3,146.4 391.2,148.0 392.0,149.7 392.8,151.6 393.6,153.6 394.4,155.7 395.2,158.1 396.0,160.6 396.8,163.5 397.6,166.8 398.5,170.5" fill="none" stroke="#4a90d9" stroke-width="1.5" stroke-linejoin="round" clip-path="url(#pc522)"/>
  <line x1="435" y1="16" x2="435" y2="171" stroke="#d1d5db"/>
  <line x1="435" y1="93.5" x2="800" y2="93.5" stroke="#d1d5db"/>
  <text x="617.5" y="197" text-anchor="middle" font-size="9" fill="#6b7280">Hz</text>
  <text x="413" y="93.5" text-anchor="middle" font-size="9" fill="#6b7280" transform="rotate(-90 413 93.5)">Phase (deg)</text>
  <line x1="468.3" y1="16" x2="468.3" y2="171" stroke="#e5e7eb" stroke-width="0.5"/>
  <line x1="487.8" y1="16" x2="487.8" y2="171" stroke="#e5e7eb" stroke-width="0.5"/>
  <line x1="501.6" y1="16" x2="501.6" y2="171" stroke="#e5e7eb" stroke-width="0.5"/>
  <line x1="512.3" y1="16" x2="512.3" y2="171" stroke="#e5e7eb" stroke-width="0.5"/>
  <line x1="521.0" y1="16" x2="521.0" y2="171" stroke="#e5e7eb" stroke-width="0.5"/>
  <line x1="528.4" y1="16" x2="528.4" y2="171" stroke="#e5e7eb" stroke-width="0.5"/>
  <line x1="534.9" y1="16" x2="534.9" y2="171" stroke="#e5e7eb" stroke-width="0.5"/>
  <line x1="540.5" y1="16" x2="540.5" y2="171" stroke="#e5e7eb" stroke-width="0.5"/>
  <line x1="578.9" y1="16" x2="578.9" y2="171" stroke="#e5e7eb" stroke-width="0.5"/>
  <line x1="598.3" y1="16" x2="598.3" y2="171" stroke="#e5e7eb" stroke-width="0.5"/>
  <line x1="612.1" y1="16" x2="612.1" y2="171" stroke="#e5e7eb" stroke-width="0.5"/>
  <line x1="622.9" y1="16" x2="622.9" y2="171" stroke="#e5e7eb" stroke-width="0.5"/>
  <line x1="631.6" y1="16" x2="631.6" y2="171" stroke="#e5e7eb" stroke-width="0.5"/>
  <line x1="639.0" y1="16" x2="639.0" y2="171" stroke="#e5e7eb" stroke-width="0.5"/>
  <line x1="645.4" y1="16" x2="645.4" y2="171" stroke="#e5e7eb" stroke-width="0.5"/>
  <line x1="651.1" y1="16" x2="651.1" y2="171" stroke="#e5e7eb" stroke-width="0.5"/>
  <line x1="689.4" y1="16" x2="689.4" y2="171" stroke="#e5e7eb" stroke-width="0.5"/>
  <line x1="708.9" y1="16" x2="708.9" y2="171" stroke="#e5e7eb" stroke-width="0.5"/>
  <line x1="722.7" y1="16" x2="722.7" y2="171" stroke="#e5e7eb" stroke-width="0.5"/>
  <line x1="733.4" y1="16" x2="733.4" y2="171" stroke="#e5e7eb" stroke-width="0.5"/>
  <line x1="742.2" y1="16" x2="742.2" y2="171" stroke="#e5e7eb" stroke-width="0.5"/>
  <line x1="749.6" y1="16" x2="749.6" y2="171" stroke="#e5e7eb" stroke-width="0.5"/>
  <line x1="756.0" y1="16" x2="756.0" y2="171" stroke="#e5e7eb" stroke-width="0.5"/>
  <line x1="761.7" y1="16" x2="761.7" y2="171" stroke="#e5e7eb" stroke-width="0.5"/>
  <line x1="800.0" y1="16" x2="800.0" y2="171" stroke="#e5e7eb" stroke-width="0.5"/>
  <line x1="545.6" y1="16" x2="545.6" y2="171" stroke="#e5e7eb" stroke-width="0.5"/>
  <text x="545.6" y="183" text-anchor="middle" font-size="8" fill="#6b7280">100</text>
  <line x1="656.1" y1="16" x2="656.1" y2="171" stroke="#e5e7eb" stroke-width="0.5"/>
  <text x="656.1" y="183" text-anchor="middle" font-size="8" fill="#6b7280">1k</text>
  <line x1="766.7" y1="16" x2="766.7" y2="171" stroke="#e5e7eb" stroke-width="0.5"/>
  <text x="766.7" y="183" text-anchor="middle" font-size="8" fill="#6b7280">10k</text>
  <line x1="435" y1="58.6" x2="800" y2="58.6" stroke="#e5e7eb" stroke-width="0.5"/>
  <line x1="435" y1="128.4" x2="800" y2="128.4" stroke="#e5e7eb" stroke-width="0.5"/>
  <line x1="435" y1="23.8" x2="800" y2="23.8" stroke="#e5e7eb" stroke-width="0.5"/>
  <text x="431" y="26.8" text-anchor="end" font-size="8" fill="#6b7280">180</text>
  <text x="431" y="96.5" text-anchor="end" font-size="8" fill="#6b7280">0</text>
  <line x1="435" y1="163.3" x2="800" y2="163.3" stroke="#e5e7eb" stroke-width="0.5"/>
  <text x="431" y="166.3" text-anchor="end" font-size="8" fill="#6b7280">-180</text>
  <line x1="656.1" y1="16" x2="656.1" y2="171" stroke="#d1d5db" stroke-width="1" stroke-dasharray="4 3"/>
  <defs><linearGradient id="g523" x1="0" y1="171" x2="0" y2="93.5" gradientUnits="userSpaceOnUse">
    <stop offset="0%" stop-color="#e74c3c" stop-opacity="0.15"/>
    <stop offset="100%" stop-color="#e74c3c" stop-opacity="0.02"/>
  </linearGradient></defs>
  <path d="M438.5,93.8 438.5,93.8 471.8,94.1 491.3,94.4 505.1,94.7 515.8,95.0 524.6,95.2 532.0,95.5 538.4,95.8 544.1,96.1 549.1,96.4 553.7,96.7 557.9,97.0 561.7,97.3 565.3,97.6 568.6,97.9 571.7,98.2 574.6,98.5 577.3,98.8 579.9,99.0 582.4,99.3 584.7,99.6 587.0,99.9 589.1,100.2 591.2,100.5 593.1,100.8 595.0,101.1 596.8,101.4 598.6,101.7 600.2,102.0 601.9,102.3 603.4,102.6 605.0,102.9 606.5,103.2 607.9,103.5 609.3,103.8 610.6,104.1 611.9,104.4 613.2,104.7 614.5,105.0 615.7,105.3 616.9,105.6 618.0,105.9 619.2,106.3 620.3,106.6 621.3,106.9 622.4,107.2 623.4,107.5 624.4,107.8 625.4,108.1 626.4,108.4 627.4,108.7 628.3,109.0 629.2,109.3 630.1,109.6 631.0,110.0 631.8,110.3 632.7,110.6 633.5,110.9 634.4,111.2 635.2,111.5 636.7,112.1 638.3,112.7 639.7,113.4 641.2,114.0 642.6,114.6 643.9,115.2 645.2,115.8 646.5,116.4 647.8,117.1 649.0,117.7 650.2,118.3 651.3,118.9 652.4,119.5 653.6,120.1 654.6,120.6 655.7,121.2 656.7,121.8 657.7,122.4 658.7,122.9 659.7,123.5 660.6,124.0 661.6,124.6 662.5,125.1 663.4,125.6 664.3,126.2 665.1,126.7 666.0,127.2 666.8,127.7 667.6,128.2 668.4,128.6 669.6,129.3 670.8,130.0 671.9,130.7 673.0,131.4 674.1,132.0 675.2,132.6 676.2,133.2 677.2,133.8 678.2,134.3 679.2,134.9 680.1,135.4 681.0,135.9 682.0,136.4 682.9,136.9 683.7,137.4 684.6,137.9 685.5,138.3 686.3,138.7 687.1,139.2 687.9,139.6 689.0,140.1 690.0,140.6 691.0,141.1 692.0,141.5 693.0,142.0 693.9,142.4 694.9,142.8 695.8,143.2 696.7,143.6 697.6,144.0 698.4,144.4 699.3,144.7 700.1,145.1 700.9,145.4 701.7,145.7 702.7,146.1 703.7,146.4 704.6,146.8 705.6,147.1 706.5,147.5 707.4,147.8 708.3,148.1 709.1,148.4 710.0,148.6 710.8,148.9 711.6,149.2 712.4,149.4 713.4,149.7 714.3,150.0 715.2,150.3 716.1,150.5 717.0,150.8 717.9,151.0 718.7,151.2 719.6,151.5 720.4,151.7 721.2,151.9 722.1,152.1 723.0,152.3 723.9,152.6 724.8,152.8 725.7,153.0 726.5,153.2 727.3,153.4 728.1,153.5 728.9,153.7 729.8,153.9 730.7,154.1 731.6,154.3 732.4,154.4 733.3,154.6 734.1,154.8 734.9,154.9 735.8,155.1 736.7,155.3 737.5,155.4 738.4,155.6 739.2,155.7 740.0,155.9 740.8,156.0 741.7,156.2 742.6,156.3 743.4,156.5 744.3,156.6 745.1,156.7 745.9,156.8 746.8,157.0 747.6,157.1 748.5,157.2 749.3,157.4 750.1,157.5 751.0,157.6 751.8,157.7 752.7,157.8 753.5,158.0 754.3,158.1 755.1,158.2 756.0,158.3 756.8,158.4 757.6,158.5 758.5,158.6 759.3,158.7 760.1,158.8 761.0,158.9 761.8,159.0 762.6,159.1 763.5,159.2 764.3,159.3 765.1,159.4 765.9,159.5 766.8,159.6 767.6,159.7 768.4,159.8 769.2,159.8 770.1,159.9 770.9,160.0 771.7,160.1 772.6,160.2 773.4,160.3 774.2,160.4 775.0,160.4 775.8,160.5 776.6,160.6 777.5,160.7 778.3,160.8 779.1,160.8 779.9,160.9 780.7,161.0 781.5,161.1 782.4,161.2 783.2,161.2 784.0,161.3 784.8,161.4 785.6,161.5 786.5,161.5 787.3,161.6 788.1,161.7 788.9,161.8 789.7,161.8 790.5,161.9 791.3,162.0 792.2,162.1 793.0,162.1 793.8,162.2 794.6,162.3 795.4,162.4 796.2,162.4 797.0,162.5 797.8,162.6 798.6,162.7 799.5,162.7 L799.5,93.5 L438.5,93.5 Z" fill="url(#g523)"/>
  <defs><clipPath id="pc524"><rect x="435" y="16" width="365" height="155"/></clipPath></defs>
  <polyline points="438.5,93.8 471.8,94.1 491.3,94.4 505.1,94.7 515.8,95.0 524.6,95.2 532.0,95.5 538.4,95.8 544.1,96.1 549.1,96.4 553.7,96.7 557.9,97.0 561.7,97.3 565.3,97.6 568.6,97.9 571.7,98.2 574.6,98.5 577.3,98.8 579.9,99.0 582.4,99.3 584.7,99.6 587.0,99.9 589.1,100.2 591.2,100.5 593.1,100.8 595.0,101.1 596.8,101.4 598.6,101.7 600.2,102.0 601.9,102.3 603.4,102.6 605.0,102.9 606.5,103.2 607.9,103.5 609.3,103.8 610.6,104.1 611.9,104.4 613.2,104.7 614.5,105.0 615.7,105.3 616.9,105.6 618.0,105.9 619.2,106.3 620.3,106.6 621.3,106.9 622.4,107.2 623.4,107.5 624.4,107.8 625.4,108.1 626.4,108.4 627.4,108.7 628.3,109.0 629.2,109.3 630.1,109.6 631.0,110.0 631.8,110.3 632.7,110.6 633.5,110.9 634.4,111.2 635.2,111.5 636.7,112.1 638.3,112.7 639.7,113.4 641.2,114.0 642.6,114.6 643.9,115.2 645.2,115.8 646.5,116.4 647.8,117.1 649.0,117.7 650.2,118.3 651.3,118.9 652.4,119.5 653.6,120.1 654.6,120.6 655.7,121.2 656.7,121.8 657.7,122.4 658.7,122.9 659.7,123.5 660.6,124.0 661.6,124.6 662.5,125.1 663.4,125.6 664.3,126.2 665.1,126.7 666.0,127.2 666.8,127.7 667.6,128.2 668.4,128.6 669.6,129.3 670.8,130.0 671.9,130.7 673.0,131.4 674.1,132.0 675.2,132.6 676.2,133.2 677.2,133.8 678.2,134.3 679.2,134.9 680.1,135.4 681.0,135.9 682.0,136.4 682.9,136.9 683.7,137.4 684.6,137.9 685.5,138.3 686.3,138.7 687.1,139.2 687.9,139.6 689.0,140.1 690.0,140.6 691.0,141.1 692.0,141.5 693.0,142.0 693.9,142.4 694.9,142.8 695.8,143.2 696.7,143.6 697.6,144.0 698.4,144.4 699.3,144.7 700.1,145.1 700.9,145.4 701.7,145.7 702.7,146.1 703.7,146.4 704.6,146.8 705.6,147.1 706.5,147.5 707.4,147.8 708.3,148.1 709.1,148.4 710.0,148.6 710.8,148.9 711.6,149.2 712.4,149.4 713.4,149.7 714.3,150.0 715.2,150.3 716.1,150.5 717.0,150.8 717.9,151.0 718.7,151.2 719.6,151.5 720.4,151.7 721.2,151.9 722.1,152.1 723.0,152.3 723.9,152.6 724.8,152.8 725.7,153.0 726.5,153.2 727.3,153.4 728.1,153.5 728.9,153.7 729.8,153.9 730.7,154.1 731.6,154.3 732.4,154.4 733.3,154.6 734.1,154.8 734.9,154.9 735.8,155.1 736.7,155.3 737.5,155.4 738.4,155.6 739.2,155.7 740.0,155.9 740.8,156.0 741.7,156.2 742.6,156.3 743.4,156.5 744.3,156.6 745.1,156.7 745.9,156.8 746.8,157.0 747.6,157.1 748.5,157.2 749.3,157.4 750.1,157.5 751.0,157.6 751.8,157.7 752.7,157.8 753.5,158.0 754.3,158.1 755.1,158.2 756.0,158.3 756.8,158.4 757.6,158.5 758.5,158.6 759.3,158.7 760.1,158.8 761.0,158.9 761.8,159.0 762.6,159.1 763.5,159.2 764.3,159.3 765.1,159.4 765.9,159.5 766.8,159.6 767.6,159.7 768.4,159.8 769.2,159.8 770.1,159.9 770.9,160.0 771.7,160.1 772.6,160.2 773.4,160.3 774.2,160.4 775.0,160.4 775.8,160.5 776.6,160.6 777.5,160.7 778.3,160.8 779.1,160.8 779.9,160.9 780.7,161.0 781.5,161.1 782.4,161.2 783.2,161.2 784.0,161.3 784.8,161.4 785.6,161.5 786.5,161.5 787.3,161.6 788.1,161.7 788.9,161.8 789.7,161.8 790.5,161.9 791.3,162.0 792.2,162.1 793.0,162.1 793.8,162.2 794.6,162.3 795.4,162.4 796.2,162.4 797.0,162.5 797.8,162.6 798.6,162.7 799.5,162.7" fill="none" stroke="#e74c3c" stroke-width="1.5" stroke-linejoin="round" clip-path="url(#pc524)"/>
  <line x1="34" y1="207" x2="34" y2="362" stroke="#d1d5db"/>
  <line x1="34" y1="284.5" x2="399" y2="284.5" stroke="#d1d5db"/>
  <text x="216.5" y="388" text-anchor="middle" font-size="9" fill="#6b7280">Hz</text>
  <text x="12" y="284.5" text-anchor="middle" font-size="9" fill="#6b7280" transform="rotate(-90 12 284.5)">Group delay</text>
  <line x1="67.3" y1="207" x2="67.3" y2="362" stroke="#e5e7eb" stroke-width="0.5"/>
  <line x1="86.8" y1="207" x2="86.8" y2="362" stroke="#e5e7eb" stroke-width="0.5"/>
  <line x1="100.6" y1="207" x2="100.6" y2="362" stroke="#e5e7eb" stroke-width="0.5"/>
  <line x1="111.3" y1="207" x2="111.3" y2="362" stroke="#e5e7eb" stroke-width="0.5"/>
  <line x1="120.0" y1="207" x2="120.0" y2="362" stroke="#e5e7eb" stroke-width="0.5"/>
  <line x1="127.4" y1="207" x2="127.4" y2="362" stroke="#e5e7eb" stroke-width="0.5"/>
  <line x1="133.9" y1="207" x2="133.9" y2="362" stroke="#e5e7eb" stroke-width="0.5"/>
  <line x1="139.5" y1="207" x2="139.5" y2="362" stroke="#e5e7eb" stroke-width="0.5"/>
  <line x1="177.9" y1="207" x2="177.9" y2="362" stroke="#e5e7eb" stroke-width="0.5"/>
  <line x1="197.3" y1="207" x2="197.3" y2="362" stroke="#e5e7eb" stroke-width="0.5"/>
  <line x1="211.1" y1="207" x2="211.1" y2="362" stroke="#e5e7eb" stroke-width="0.5"/>
  <line x1="221.9" y1="207" x2="221.9" y2="362" stroke="#e5e7eb" stroke-width="0.5"/>
  <line x1="230.6" y1="207" x2="230.6" y2="362" stroke="#e5e7eb" stroke-width="0.5"/>
  <line x1="238.0" y1="207" x2="238.0" y2="362" stroke="#e5e7eb" stroke-width="0.5"/>
  <line x1="244.4" y1="207" x2="244.4" y2="362" stroke="#e5e7eb" stroke-width="0.5"/>
  <line x1="250.1" y1="207" x2="250.1" y2="362" stroke="#e5e7eb" stroke-width="0.5"/>
  <line x1="288.4" y1="207" x2="288.4" y2="362" stroke="#e5e7eb" stroke-width="0.5"/>
  <line x1="307.9" y1="207" x2="307.9" y2="362" stroke="#e5e7eb" stroke-width="0.5"/>
  <line x1="321.7" y1="207" x2="321.7" y2="362" stroke="#e5e7eb" stroke-width="0.5"/>
  <line x1="332.4" y1="207" x2="332.4" y2="362" stroke="#e5e7eb" stroke-width="0.5"/>
  <line x1="341.2" y1="207" x2="341.2" y2="362" stroke="#e5e7eb" stroke-width="0.5"/>
  <line x1="348.6" y1="207" x2="348.6" y2="362" stroke="#e5e7eb" stroke-width="0.5"/>
  <line x1="355.0" y1="207" x2="355.0" y2="362" stroke="#e5e7eb" stroke-width="0.5"/>
  <line x1="360.7" y1="207" x2="360.7" y2="362" stroke="#e5e7eb" stroke-width="0.5"/>
  <line x1="399.0" y1="207" x2="399.0" y2="362" stroke="#e5e7eb" stroke-width="0.5"/>
  <line x1="144.6" y1="207" x2="144.6" y2="362" stroke="#e5e7eb" stroke-width="0.5"/>
  <text x="144.6" y="374" text-anchor="middle" font-size="8" fill="#6b7280">100</text>
  <line x1="255.1" y1="207" x2="255.1" y2="362" stroke="#e5e7eb" stroke-width="0.5"/>
  <text x="255.1" y="374" text-anchor="middle" font-size="8" fill="#6b7280">1k</text>
  <line x1="365.7" y1="207" x2="365.7" y2="362" stroke="#e5e7eb" stroke-width="0.5"/>
  <text x="365.7" y="374" text-anchor="middle" font-size="8" fill="#6b7280">10k</text>
  <line x1="34" y1="323.7" x2="399" y2="323.7" stroke="#e5e7eb" stroke-width="0.5"/>
  <text x="30" y="326.7" text-anchor="end" font-size="8" fill="#6b7280">-6</text>
  <text x="30" y="287.5" text-anchor="end" font-size="8" fill="#6b7280">0</text>
  <line x1="34" y1="245.3" x2="399" y2="245.3" stroke="#e5e7eb" stroke-width="0.5"/>
  <text x="30" y="248.3" text-anchor="end" font-size="8" fill="#6b7280">6</text>
  <line x1="255.1" y1="207" x2="255.1" y2="362" stroke="#d1d5db" stroke-width="1" stroke-dasharray="4 3"/>
  <defs><linearGradient id="g525" x1="0" y1="207" x2="0" y2="284.5" gradientUnits="userSpaceOnUse">
    <stop offset="0%" stop-color="#2ecc71" stop-opacity="0.15"/>
    <stop offset="100%" stop-color="#2ecc71" stop-opacity="0.02"/>
  </linearGradient></defs>
  <path d="M37.5,228.8 37.5,228.8 70.8,228.8 90.3,228.7 104.1,228.7 114.8,228.7 123.6,228.7 131.0,228.7 137.4,228.6 143.1,228.6 148.1,228.5 152.7,228.5 156.9,228.4 160.7,228.4 164.3,228.3 167.6,228.3 170.7,228.2 173.6,228.1 176.3,228.1 178.9,228.0 181.4,227.9 183.7,227.8 186.0,227.8 188.1,227.7 190.2,227.6 192.1,227.5 194.0,227.4 195.8,227.3 197.6,227.2 199.2,227.1 200.9,227.0 202.4,226.9 204.0,226.8 205.5,226.7 206.9,226.6 208.3,226.5 209.6,226.4 210.9,226.3 212.2,226.2 213.5,226.1 214.7,226.0 215.9,225.9 217.0,225.8 218.2,225.8 219.3,225.7 220.3,225.6 221.4,225.5 222.4,225.4 223.4,225.4 224.4,225.3 225.4,225.2 226.4,225.2 227.3,225.1 228.2,225.1 229.1,225.0 230.0,225.0 230.8,224.9 231.7,224.9 232.5,224.9 233.4,224.9 234.2,224.9 235.7,224.9 237.3,224.9 238.7,225.0 240.2,225.1 241.6,225.3 242.9,225.4 244.2,225.6 245.5,225.9 246.8,226.2 248.0,226.5 249.2,226.8 250.3,227.2 251.4,227.7 252.6,228.1 253.6,228.6 254.7,229.1 255.7,229.7 256.7,230.3 257.7,230.9 258.7,231.5 259.6,232.2 260.6,232.8 261.5,233.5 262.4,234.2 263.3,235.0 264.1,235.7 265.0,236.5 265.8,237.2 266.6,238.0 267.4,238.7 268.6,239.9 269.8,241.1 270.9,242.2 272.0,243.4 273.1,244.5 274.2,245.6 275.2,246.7 276.2,247.8 277.2,248.9 278.2,249.9 279.1,250.9 280.0,251.9 281.0,252.9 281.9,253.8 282.7,254.7 283.6,255.6 284.5,256.5 285.3,257.3 286.1,258.1 286.9,258.9 288.0,259.8 289.0,260.8 290.0,261.7 291.0,262.5 292.0,263.3 292.9,264.1 293.9,264.9 294.8,265.6 295.7,266.2 296.6,266.9 297.4,267.5 298.3,268.1 299.1,268.6 299.9,269.1 300.7,269.6 301.7,270.2 302.7,270.8 303.6,271.3 304.6,271.8 305.5,272.3 306.4,272.8 307.3,273.2 308.1,273.6 309.0,274.0 309.8,274.3 310.6,274.7 311.4,275.0 312.4,275.4 313.3,275.7 314.2,276.1 315.1,276.4 316.0,276.7 316.9,277.0 317.7,277.2 318.6,277.5 319.4,277.7 320.2,277.9 321.1,278.2 322.0,278.4 322.9,278.6 323.8,278.9 324.7,279.1 325.5,279.2 326.3,279.4 327.1,279.6 327.9,279.8 328.8,279.9 329.7,280.1 330.6,280.2 331.4,280.4 332.3,280.5 333.1,280.7 333.9,280.8 334.8,280.9 335.7,281.0 336.5,281.2 337.4,281.3 338.2,281.4 339.0,281.5 339.8,281.6 340.7,281.7 341.6,281.8 342.4,281.9 343.3,282.0 344.1,282.0 344.9,282.1 345.8,282.2 346.6,282.3 347.5,282.3 348.3,282.4 349.1,282.5 350.0,282.5 350.8,282.6 351.7,282.7 352.5,282.7 353.3,282.8 354.1,282.8 355.0,282.9 355.8,282.9 356.6,283.0 357.5,283.0 358.3,283.1 359.1,283.1 360.0,283.2 360.8,283.2 361.6,283.2 362.5,283.3 363.3,283.3 364.1,283.3 364.9,283.4 365.8,283.4 366.6,283.4 367.4,283.5 368.2,283.5 369.1,283.5 369.9,283.5 370.7,283.6 371.6,283.6 372.4,283.6 373.2,283.6 374.0,283.7 374.8,283.7 375.6,283.7 376.5,283.7 377.3,283.7 378.1,283.8 378.9,283.8 379.7,283.8 380.5,283.8 381.4,283.8 382.2,283.8 383.0,283.9 383.8,283.9 384.6,283.9 385.5,283.9 386.3,283.9 387.1,283.9 387.9,283.9 388.7,283.9 389.5,283.9 390.3,284.0 391.2,284.0 392.0,284.0 392.8,284.0 393.6,284.0 394.4,284.0 395.2,284.0 396.0,284.0 396.8,284.0 397.6,284.0 398.5,284.0 L398.5,284.5 L37.5,284.5 Z" fill="url(#g525)"/>
  <defs><clipPath id="pc526"><rect x="34" y="207" width="365" height="155"/></clipPath></defs>
  <polyline points="37.5,228.8 70.8,228.8 90.3,228.7 104.1,228.7 114.8,228.7 123.6,228.7 131.0,228.7 137.4,228.6 143.1,228.6 148.1,228.5 152.7,228.5 156.9,228.4 160.7,228.4 164.3,228.3 167.6,228.3 170.7,228.2 173.6,228.1 176.3,228.1 178.9,228.0 181.4,227.9 183.7,227.8 186.0,227.8 188.1,227.7 190.2,227.6 192.1,227.5 194.0,227.4 195.8,227.3 197.6,227.2 199.2,227.1 200.9,227.0 202.4,226.9 204.0,226.8 205.5,226.7 206.9,226.6 208.3,226.5 209.6,226.4 210.9,226.3 212.2,226.2 213.5,226.1 214.7,226.0 215.9,225.9 217.0,225.8 218.2,225.8 219.3,225.7 220.3,225.6 221.4,225.5 222.4,225.4 223.4,225.4 224.4,225.3 225.4,225.2 226.4,225.2 227.3,225.1 228.2,225.1 229.1,225.0 230.0,225.0 230.8,224.9 231.7,224.9 232.5,224.9 233.4,224.9 234.2,224.9 235.7,224.9 237.3,224.9 238.7,225.0 240.2,225.1 241.6,225.3 242.9,225.4 244.2,225.6 245.5,225.9 246.8,226.2 248.0,226.5 249.2,226.8 250.3,227.2 251.4,227.7 252.6,228.1 253.6,228.6 254.7,229.1 255.7,229.7 256.7,230.3 257.7,230.9 258.7,231.5 259.6,232.2 260.6,232.8 261.5,233.5 262.4,234.2 263.3,235.0 264.1,235.7 265.0,236.5 265.8,237.2 266.6,238.0 267.4,238.7 268.6,239.9 269.8,241.1 270.9,242.2 272.0,243.4 273.1,244.5 274.2,245.6 275.2,246.7 276.2,247.8 277.2,248.9 278.2,249.9 279.1,250.9 280.0,251.9 281.0,252.9 281.9,253.8 282.7,254.7 283.6,255.6 284.5,256.5 285.3,257.3 286.1,258.1 286.9,258.9 288.0,259.8 289.0,260.8 290.0,261.7 291.0,262.5 292.0,263.3 292.9,264.1 293.9,264.9 294.8,265.6 295.7,266.2 296.6,266.9 297.4,267.5 298.3,268.1 299.1,268.6 299.9,269.1 300.7,269.6 301.7,270.2 302.7,270.8 303.6,271.3 304.6,271.8 305.5,272.3 306.4,272.8 307.3,273.2 308.1,273.6 309.0,274.0 309.8,274.3 310.6,274.7 311.4,275.0 312.4,275.4 313.3,275.7 314.2,276.1 315.1,276.4 316.0,276.7 316.9,277.0 317.7,277.2 318.6,277.5 319.4,277.7 320.2,277.9 321.1,278.2 322.0,278.4 322.9,278.6 323.8,278.9 324.7,279.1 325.5,279.2 326.3,279.4 327.1,279.6 327.9,279.8 328.8,279.9 329.7,280.1 330.6,280.2 331.4,280.4 332.3,280.5 333.1,280.7 333.9,280.8 334.8,280.9 335.7,281.0 336.5,281.2 337.4,281.3 338.2,281.4 339.0,281.5 339.8,281.6 340.7,281.7 341.6,281.8 342.4,281.9 343.3,282.0 344.1,282.0 344.9,282.1 345.8,282.2 346.6,282.3 347.5,282.3 348.3,282.4 349.1,282.5 350.0,282.5 350.8,282.6 351.7,282.7 352.5,282.7 353.3,282.8 354.1,282.8 355.0,282.9 355.8,282.9 356.6,283.0 357.5,283.0 358.3,283.1 359.1,283.1 360.0,283.2 360.8,283.2 361.6,283.2 362.5,283.3 363.3,283.3 364.1,283.3 364.9,283.4 365.8,283.4 366.6,283.4 367.4,283.5 368.2,283.5 369.1,283.5 369.9,283.5 370.7,283.6 371.6,283.6 372.4,283.6 373.2,283.6 374.0,283.7 374.8,283.7 375.6,283.7 376.5,283.7 377.3,283.7 378.1,283.8 378.9,283.8 379.7,283.8 380.5,283.8 381.4,283.8 382.2,283.8 383.0,283.9 383.8,283.9 384.6,283.9 385.5,283.9 386.3,283.9 387.1,283.9 387.9,283.9 388.7,283.9 389.5,283.9 390.3,284.0 391.2,284.0 392.0,284.0 392.8,284.0 393.6,284.0 394.4,284.0 395.2,284.0 396.0,284.0 396.8,284.0 397.6,284.0 398.5,284.0" fill="none" stroke="#2ecc71" stroke-width="1.5" stroke-linejoin="round" clip-path="url(#pc526)"/>
  <line x1="435" y1="207" x2="435" y2="362" stroke="#d1d5db"/>
  <line x1="435" y1="284.5" x2="800" y2="284.5" stroke="#d1d5db"/>
  <text x="617.5" y="388" text-anchor="middle" font-size="9" fill="#6b7280">Samples</text>
  <text x="413" y="284.5" text-anchor="middle" font-size="9" fill="#6b7280" transform="rotate(-90 413 284.5)">Impulse response</text>
  <line x1="435.0" y1="207" x2="435.0" y2="362" stroke="#e5e7eb" stroke-width="0.5"/>
  <text x="435.0" y="374" text-anchor="middle" font-size="8" fill="#6b7280">0</text>
  <line x1="563.3" y1="207" x2="563.3" y2="362" stroke="#e5e7eb" stroke-width="0.5"/>
  <text x="563.3" y="374" text-anchor="middle" font-size="8" fill="#6b7280">90</text>
  <line x1="691.6" y1="207" x2="691.6" y2="362" stroke="#e5e7eb" stroke-width="0.5"/>
  <text x="691.6" y="374" text-anchor="middle" font-size="8" fill="#6b7280">180</text>
  <line x1="435" y1="348.3" x2="800" y2="348.3" stroke="#e5e7eb" stroke-width="0.5"/>
  <text x="431" y="351.3" text-anchor="end" font-size="8" fill="#6b7280">-0.03</text>
  <text x="431" y="287.5" text-anchor="end" font-size="8" fill="#6b7280">0</text>
  <line x1="435" y1="220.7" x2="800" y2="220.7" stroke="#e5e7eb" stroke-width="0.5"/>
  <text x="431" y="223.7" text-anchor="end" font-size="8" fill="#6b7280">0.03</text>
  <defs><linearGradient id="g527" x1="0" y1="207" x2="0" y2="284.5" gradientUnits="userSpaceOnUse">
    <stop offset="0%" stop-color="#f39c12" stop-opacity="0.15"/>
    <stop offset="100%" stop-color="#f39c12" stop-opacity="0.02"/>
  </linearGradient></defs>
  <defs><linearGradient id="g528" x1="0" y1="362" x2="0" y2="284.5" gradientUnits="userSpaceOnUse">
    <stop offset="0%" stop-color="#f39c12" stop-opacity="0.15"/>
    <stop offset="100%" stop-color="#f39c12" stop-opacity="0.02"/>
  </linearGradient></defs>
  <defs><clipPath id="c529"><rect x="435" y="207" width="365" height="77.5"/></clipPath></defs>
  <defs><clipPath id="c530"><rect x="435" y="284.5" width="365" height="77.5"/></clipPath></defs>
  <path d="M435.0,277.3 435.0,277.3 436.4,257.8 437.9,236.7 439.3,222.2 440.7,213.1 442.1,208.4 443.6,207.0 445.0,208.2 446.4,211.4 447.8,215.9 449.3,221.2 450.7,227.1 452.1,233.2 453.5,239.3 455.0,245.2 456.4,250.7 457.8,255.9 459.2,260.6 460.7,264.8 462.1,268.6 463.5,271.9 464.9,274.7 466.4,277.2 467.8,279.2 469.2,280.9 470.6,282.2 472.1,283.3 473.5,284.2 474.9,284.9 476.3,285.3 477.8,285.7 479.2,285.9 480.6,286.0 482.1,286.1 483.5,286.1 484.9,286.0 486.3,285.9 487.8,285.8 489.2,285.7 490.6,285.6 492.0,285.5 493.5,285.3 494.9,285.2 496.3,285.1 497.7,285.0 499.2,284.9 500.6,284.8 502.0,284.8 503.4,284.7 504.9,284.7 506.3,284.6 507.7,284.6 509.1,284.6 510.6,284.5 512.0,284.5 513.4,284.5 514.8,284.5 516.3,284.5 517.7,284.5 519.1,284.5 520.5,284.5 522.0,284.5 523.4,284.5 524.8,284.5 526.3,284.5 527.7,284.5 529.1,284.5 530.5,284.5 532.0,284.5 533.4,284.5 534.8,284.5 536.2,284.5 537.7,284.5 539.1,284.5 540.5,284.5 541.9,284.5 543.4,284.5 544.8,284.5 546.2,284.5 547.6,284.5 549.1,284.5 550.5,284.5 551.9,284.5 553.3,284.5 554.8,284.5 556.2,284.5 557.6,284.5 559.0,284.5 560.5,284.5 561.9,284.5 563.3,284.5 564.7,284.5 566.2,284.5 567.6,284.5 569.0,284.5 570.4,284.5 571.9,284.5 573.3,284.5 574.7,284.5 576.2,284.5 577.6,284.5 579.0,284.5 580.4,284.5 581.9,284.5 583.3,284.5 584.7,284.5 586.1,284.5 587.6,284.5 589.0,284.5 590.4,284.5 591.8,284.5 593.3,284.5 594.7,284.5 596.1,284.5 597.5,284.5 599.0,284.5 600.4,284.5 601.8,284.5 603.2,284.5 604.7,284.5 606.1,284.5 607.5,284.5 608.9,284.5 610.4,284.5 611.8,284.5 613.2,284.5 614.6,284.5 616.1,284.5 617.5,284.5 618.9,284.5 620.4,284.5 621.8,284.5 623.2,284.5 624.6,284.5 626.1,284.5 627.5,284.5 628.9,284.5 630.3,284.5 631.8,284.5 633.2,284.5 634.6,284.5 636.0,284.5 637.5,284.5 638.9,284.5 640.3,284.5 641.7,284.5 643.2,284.5 644.6,284.5 646.0,284.5 647.4,284.5 648.9,284.5 650.3,284.5 651.7,284.5 653.1,284.5 654.6,284.5 656.0,284.5 657.4,284.5 658.8,284.5 660.3,284.5 661.7,284.5 663.1,284.5 664.6,284.5 666.0,284.5 667.4,284.5 668.8,284.5 670.3,284.5 671.7,284.5 673.1,284.5 674.5,284.5 676.0,284.5 677.4,284.5 678.8,284.5 680.2,284.5 681.7,284.5 683.1,284.5 684.5,284.5 685.9,284.5 687.4,284.5 688.8,284.5 690.2,284.5 691.6,284.5 693.1,284.5 694.5,284.5 695.9,284.5 697.3,284.5 698.8,284.5 700.2,284.5 701.6,284.5 703.0,284.5 704.5,284.5 705.9,284.5 707.3,284.5 708.8,284.5 710.2,284.5 711.6,284.5 713.0,284.5 714.5,284.5 715.9,284.5 717.3,284.5 718.7,284.5 720.2,284.5 721.6,284.5 723.0,284.5 724.4,284.5 725.9,284.5 727.3,284.5 728.7,284.5 730.1,284.5 731.6,284.5 733.0,284.5 734.4,284.5 735.8,284.5 737.3,284.5 738.7,284.5 740.1,284.5 741.5,284.5 743.0,284.5 744.4,284.5 745.8,284.5 747.2,284.5 748.7,284.5 750.1,284.5 751.5,284.5 752.9,284.5 754.4,284.5 755.8,284.5 757.2,284.5 758.7,284.5 760.1,284.5 761.5,284.5 762.9,284.5 764.4,284.5 765.8,284.5 767.2,284.5 768.6,284.5 770.1,284.5 771.5,284.5 772.9,284.5 774.3,284.5 775.8,284.5 777.2,284.5 778.6,284.5 780.0,284.5 781.5,284.5 782.9,284.5 784.3,284.5 785.7,284.5 787.2,284.5 788.6,284.5 790.0,284.5 791.4,284.5 792.9,284.5 794.3,284.5 795.7,284.5 797.1,284.5 798.6,284.5 L798.6,284.5 L435.0,284.5 Z" fill="url(#g527)" clip-path="url(#c529)"/>
  <path d="M435.0,277.3 435.0,277.3 436.4,257.8 437.9,236.7 439.3,222.2 440.7,213.1 442.1,208.4 443.6,207.0 445.0,208.2 446.4,211.4 447.8,215.9 449.3,221.2 450.7,227.1 452.1,233.2 453.5,239.3 455.0,245.2 456.4,250.7 457.8,255.9 459.2,260.6 460.7,264.8 462.1,268.6 463.5,271.9 464.9,274.7 466.4,277.2 467.8,279.2 469.2,280.9 470.6,282.2 472.1,283.3 473.5,284.2 474.9,284.9 476.3,285.3 477.8,285.7 479.2,285.9 480.6,286.0 482.1,286.1 483.5,286.1 484.9,286.0 486.3,285.9 487.8,285.8 489.2,285.7 490.6,285.6 492.0,285.5 493.5,285.3 494.9,285.2 496.3,285.1 497.7,285.0 499.2,284.9 500.6,284.8 502.0,284.8 503.4,284.7 504.9,284.7 506.3,284.6 507.7,284.6 509.1,284.6 510.6,284.5 512.0,284.5 513.4,284.5 514.8,284.5 516.3,284.5 517.7,284.5 519.1,284.5 520.5,284.5 522.0,284.5 523.4,284.5 524.8,284.5 526.3,284.5 527.7,284.5 529.1,284.5 530.5,284.5 532.0,284.5 533.4,284.5 534.8,284.5 536.2,284.5 537.7,284.5 539.1,284.5 540.5,284.5 541.9,284.5 543.4,284.5 544.8,284.5 546.2,284.5 547.6,284.5 549.1,284.5 550.5,284.5 551.9,284.5 553.3,284.5 554.8,284.5 556.2,284.5 557.6,284.5 559.0,284.5 560.5,284.5 561.9,284.5 563.3,284.5 564.7,284.5 566.2,284.5 567.6,284.5 569.0,284.5 570.4,284.5 571.9,284.5 573.3,284.5 574.7,284.5 576.2,284.5 577.6,284.5 579.0,284.5 580.4,284.5 581.9,284.5 583.3,284.5 584.7,284.5 586.1,284.5 587.6,284.5 589.0,284.5 590.4,284.5 591.8,284.5 593.3,284.5 594.7,284.5 596.1,284.5 597.5,284.5 599.0,284.5 600.4,284.5 601.8,284.5 603.2,284.5 604.7,284.5 606.1,284.5 607.5,284.5 608.9,284.5 610.4,284.5 611.8,284.5 613.2,284.5 614.6,284.5 616.1,284.5 617.5,284.5 618.9,284.5 620.4,284.5 621.8,284.5 623.2,284.5 624.6,284.5 626.1,284.5 627.5,284.5 628.9,284.5 630.3,284.5 631.8,284.5 633.2,284.5 634.6,284.5 636.0,284.5 637.5,284.5 638.9,284.5 640.3,284.5 641.7,284.5 643.2,284.5 644.6,284.5 646.0,284.5 647.4,284.5 648.9,284.5 650.3,284.5 651.7,284.5 653.1,284.5 654.6,284.5 656.0,284.5 657.4,284.5 658.8,284.5 660.3,284.5 661.7,284.5 663.1,284.5 664.6,284.5 666.0,284.5 667.4,284.5 668.8,284.5 670.3,284.5 671.7,284.5 673.1,284.5 674.5,284.5 676.0,284.5 677.4,284.5 678.8,284.5 680.2,284.5 681.7,284.5 683.1,284.5 684.5,284.5 685.9,284.5 687.4,284.5 688.8,284.5 690.2,284.5 691.6,284.5 693.1,284.5 694.5,284.5 695.9,284.5 697.3,284.5 698.8,284.5 700.2,284.5 701.6,284.5 703.0,284.5 704.5,284.5 705.9,284.5 707.3,284.5 708.8,284.5 710.2,284.5 711.6,284.5 713.0,284.5 714.5,284.5 715.9,284.5 717.3,284.5 718.7,284.5 720.2,284.5 721.6,284.5 723.0,284.5 724.4,284.5 725.9,284.5 727.3,284.5 728.7,284.5 730.1,284.5 731.6,284.5 733.0,284.5 734.4,284.5 735.8,284.5 737.3,284.5 738.7,284.5 740.1,284.5 741.5,284.5 743.0,284.5 744.4,284.5 745.8,284.5 747.2,284.5 748.7,284.5 750.1,284.5 751.5,284.5 752.9,284.5 754.4,284.5 755.8,284.5 757.2,284.5 758.7,284.5 760.1,284.5 761.5,284.5 762.9,284.5 764.4,284.5 765.8,284.5 767.2,284.5 768.6,284.5 770.1,284.5 771.5,284.5 772.9,284.5 774.3,284.5 775.8,284.5 777.2,284.5 778.6,284.5 780.0,284.5 781.5,284.5 782.9,284.5 784.3,284.5 785.7,284.5 787.2,284.5 788.6,284.5 790.0,284.5 791.4,284.5 792.9,284.5 794.3,284.5 795.7,284.5 797.1,284.5 798.6,284.5 L798.6,284.5 L435.0,284.5 Z" fill="url(#g528)" clip-path="url(#c530)"/>
  <defs><clipPath id="pc531"><rect x="435" y="207" width="365" height="155"/></clipPath></defs>
  <polyline points="435.0,277.3 436.4,257.8 437.9,236.7 439.3,222.2 440.7,213.1 442.1,208.4 443.6,207.0 445.0,208.2 446.4,211.4 447.8,215.9 449.3,221.2 450.7,227.1 452.1,233.2 453.5,239.3 455.0,245.2 456.4,250.7 457.8,255.9 459.2,260.6 460.7,264.8 462.1,268.6 463.5,271.9 464.9,274.7 466.4,277.2 467.8,279.2 469.2,280.9 470.6,282.2 472.1,283.3 473.5,284.2 474.9,284.9 476.3,285.3 477.8,285.7 479.2,285.9 480.6,286.0 482.1,286.1 483.5,286.1 484.9,286.0 486.3,285.9 487.8,285.8 489.2,285.7 490.6,285.6 492.0,285.5 493.5,285.3 494.9,285.2 496.3,285.1 497.7,285.0 499.2,284.9 500.6,284.8 502.0,284.8 503.4,284.7 504.9,284.7 506.3,284.6 507.7,284.6 509.1,284.6 510.6,284.5 512.0,284.5 513.4,284.5 514.8,284.5 516.3,284.5 517.7,284.5 519.1,284.5 520.5,284.5 522.0,284.5 523.4,284.5 524.8,284.5 526.3,284.5 527.7,284.5 529.1,284.5 530.5,284.5 532.0,284.5 533.4,284.5 534.8,284.5 536.2,284.5 537.7,284.5 539.1,284.5 540.5,284.5 541.9,284.5 543.4,284.5 544.8,284.5 546.2,284.5 547.6,284.5 549.1,284.5 550.5,284.5 551.9,284.5 553.3,284.5 554.8,284.5 556.2,284.5 557.6,284.5 559.0,284.5 560.5,284.5 561.9,284.5 563.3,284.5 564.7,284.5 566.2,284.5 567.6,284.5 569.0,284.5 570.4,284.5 571.9,284.5 573.3,284.5 574.7,284.5 576.2,284.5 577.6,284.5 579.0,284.5 580.4,284.5 581.9,284.5 583.3,284.5 584.7,284.5 586.1,284.5 587.6,284.5 589.0,284.5 590.4,284.5 591.8,284.5 593.3,284.5 594.7,284.5 596.1,284.5 597.5,284.5 599.0,284.5 600.4,284.5 601.8,284.5 603.2,284.5 604.7,284.5 606.1,284.5 607.5,284.5 608.9,284.5 610.4,284.5 611.8,284.5 613.2,284.5 614.6,284.5 616.1,284.5 617.5,284.5 618.9,284.5 620.4,284.5 621.8,284.5 623.2,284.5 624.6,284.5 626.1,284.5 627.5,284.5 628.9,284.5 630.3,284.5 631.8,284.5 633.2,284.5 634.6,284.5 636.0,284.5 637.5,284.5 638.9,284.5 640.3,284.5 641.7,284.5 643.2,284.5 644.6,284.5 646.0,284.5 647.4,284.5 648.9,284.5 650.3,284.5 651.7,284.5 653.1,284.5 654.6,284.5 656.0,284.5 657.4,284.5 658.8,284.5 660.3,284.5 661.7,284.5 663.1,284.5 664.6,284.5 666.0,284.5 667.4,284.5 668.8,284.5 670.3,284.5 671.7,284.5 673.1,284.5 674.5,284.5 676.0,284.5 677.4,284.5 678.8,284.5 680.2,284.5 681.7,284.5 683.1,284.5 684.5,284.5 685.9,284.5 687.4,284.5 688.8,284.5 690.2,284.5 691.6,284.5 693.1,284.5 694.5,284.5 695.9,284.5 697.3,284.5 698.8,284.5 700.2,284.5 701.6,284.5 703.0,284.5 704.5,284.5 705.9,284.5 707.3,284.5 708.8,284.5 710.2,284.5 711.6,284.5 713.0,284.5 714.5,284.5 715.9,284.5 717.3,284.5 718.7,284.5 720.2,284.5 721.6,284.5 723.0,284.5 724.4,284.5 725.9,284.5 727.3,284.5 728.7,284.5 730.1,284.5 731.6,284.5 733.0,284.5 734.4,284.5 735.8,284.5 737.3,284.5 738.7,284.5 740.1,284.5 741.5,284.5 743.0,284.5 744.4,284.5 745.8,284.5 747.2,284.5 748.7,284.5 750.1,284.5 751.5,284.5 752.9,284.5 754.4,284.5 755.8,284.5 757.2,284.5 758.7,284.5 760.1,284.5 761.5,284.5 762.9,284.5 764.4,284.5 765.8,284.5 767.2,284.5 768.6,284.5 770.1,284.5 771.5,284.5 772.9,284.5 774.3,284.5 775.8,284.5 777.2,284.5 778.6,284.5 780.0,284.5 781.5,284.5 782.9,284.5 784.3,284.5 785.7,284.5 787.2,284.5 788.6,284.5 790.0,284.5 791.4,284.5 792.9,284.5 794.3,284.5 795.7,284.5 797.1,284.5 798.6,284.5" fill="none" stroke="#f39c12" stroke-width="1.3" stroke-linejoin="round" clip-path="url(#pc531)"/>
</svg>
