<svg xmlns="http://www.w3.org/2000/svg" viewBox="0 0 820 392" style="font-family:system-ui,-apple-system,sans-serif">
  <text x="800" y="11" text-anchor="end" font-size="11" font-weight="600" fill="#6b7280">Leaky integrator, λ=0.95</text>
  <line x1="34" y1="16" x2="34" y2="171" stroke="#d1d5db"/>
  <line x1="34" y1="47.0" x2="392" y2="47.0" stroke="#d1d5db"/>
  <text x="213" y="197" text-anchor="middle" font-size="9" fill="#6b7280">Hz</text>
  <text x="12" y="93.5" text-anchor="middle" font-size="9" fill="#6b7280" transform="rotate(-90 12 93.5)">dB</text>
  <line x1="66.6" y1="16" x2="66.6" y2="171" stroke="#e5e7eb" stroke-width="0.5"/>
  <line x1="85.7" y1="16" x2="85.7" y2="171" stroke="#e5e7eb" stroke-width="0.5"/>
  <line x1="99.3" y1="16" x2="99.3" y2="171" stroke="#e5e7eb" stroke-width="0.5"/>
  <line x1="109.8" y1="16" x2="109.8" y2="171" stroke="#e5e7eb" stroke-width="0.5"/>
  <line x1="118.4" y1="16" x2="118.4" y2="171" stroke="#e5e7eb" stroke-width="0.5"/>
  <line x1="125.7" y1="16" x2="125.7" y2="171" stroke="#e5e7eb" stroke-width="0.5"/>
  <line x1="131.9" y1="16" x2="131.9" y2="171" stroke="#e5e7eb" stroke-width="0.5"/>
  <line x1="137.5" y1="16" x2="137.5" y2="171" stroke="#e5e7eb" stroke-width="0.5"/>
  <line x1="175.1" y1="16" x2="175.1" y2="171" stroke="#e5e7eb" stroke-width="0.5"/>
  <line x1="194.2" y1="16" x2="194.2" y2="171" stroke="#e5e7eb" stroke-width="0.5"/>
  <line x1="207.7" y1="16" x2="207.7" y2="171" stroke="#e5e7eb" stroke-width="0.5"/>
  <line x1="218.3" y1="16" x2="218.3" y2="171" stroke="#e5e7eb" stroke-width="0.5"/>
  <line x1="226.8" y1="16" x2="226.8" y2="171" stroke="#e5e7eb" stroke-width="0.5"/>
  <line x1="234.1" y1="16" x2="234.1" y2="171" stroke="#e5e7eb" stroke-width="0.5"/>
  <line x1="240.4" y1="16" x2="240.4" y2="171" stroke="#e5e7eb" stroke-width="0.5"/>
  <line x1="245.9" y1="16" x2="245.9" y2="171" stroke="#e5e7eb" stroke-width="0.5"/>
  <line x1="283.5" y1="16" x2="283.5" y2="171" stroke="#e5e7eb" stroke-width="0.5"/>
  <line x1="302.6" y1="16" x2="302.6" y2="171" stroke="#e5e7eb" stroke-width="0.5"/>
  <line x1="316.2" y1="16" x2="316.2" y2="171" stroke="#e5e7eb" stroke-width="0.5"/>
  <line x1="326.7" y1="16" x2="326.7" y2="171" stroke="#e5e7eb" stroke-width="0.5"/>
  <line x1="335.3" y1="16" x2="335.3" y2="171" stroke="#e5e7eb" stroke-width="0.5"/>
  <line x1="342.6" y1="16" x2="342.6" y2="171" stroke="#e5e7eb" stroke-width="0.5"/>
  <line x1="348.8" y1="16" x2="348.8" y2="171" stroke="#e5e7eb" stroke-width="0.5"/>
  <line x1="354.4" y1="16" x2="354.4" y2="171" stroke="#e5e7eb" stroke-width="0.5"/>
  <line x1="392.0" y1="16" x2="392.0" y2="171" stroke="#e5e7eb" stroke-width="0.5"/>
  <line x1="142.5" y1="16" x2="142.5" y2="171" stroke="#e5e7eb" stroke-width="0.5"/>
  <text x="142.5" y="183" text-anchor="middle" font-size="8" fill="#6b7280">100</text>
  <line x1="250.9" y1="16" x2="250.9" y2="171" stroke="#e5e7eb" stroke-width="0.5"/>
  <text x="250.9" y="183" text-anchor="middle" font-size="8" fill="#6b7280">1k</text>
  <line x1="359.4" y1="16" x2="359.4" y2="171" stroke="#e5e7eb" stroke-width="0.5"/>
  <text x="359.4" y="183" text-anchor="middle" font-size="8" fill="#6b7280">10k</text>
  <line x1="34" y1="31.5" x2="392" y2="31.5" stroke="#e5e7eb" stroke-width="0.5"/>
  <line x1="34" y1="62.5" x2="392" y2="62.5" stroke="#e5e7eb" stroke-width="0.5"/>
  <line x1="34" y1="16.0" x2="392" y2="16.0" stroke="#e5e7eb" stroke-width="0.5"/>
  <text x="30" y="19.0" text-anchor="end" font-size="8" fill="#6b7280">+20</text>
  <text x="30" y="50.0" text-anchor="end" font-size="8" fill="#6b7280">0</text>
  <line x1="34" y1="78.0" x2="392" y2="78.0" stroke="#e5e7eb" stroke-width="0.5"/>
  <text x="30" y="81.0" text-anchor="end" font-size="8" fill="#6b7280">-20</text>
  <line x1="34" y1="109.0" x2="392" y2="109.0" stroke="#e5e7eb" stroke-width="0.5"/>
  <text x="30" y="112.0" text-anchor="end" font-size="8" fill="#6b7280">-40</text>
  <line x1="34" y1="140.0" x2="392" y2="140.0" stroke="#e5e7eb" stroke-width="0.5"/>
  <text x="30" y="143.0" text-anchor="end" font-size="8" fill="#6b7280">-60</text>
  <line x1="34" y1="171.0" x2="392" y2="171.0" stroke="#e5e7eb" stroke-width="0.5"/>
  <text x="30" y="174.0" text-anchor="end" font-size="8" fill="#6b7280">-80</text>
  <defs><linearGradient id="g544" x1="0" y1="16" x2="0" y2="171" gradientUnits="userSpaceOnUse">
    <stop offset="0%" stop-color="#4a90d9" stop-opacity="0.15"/>
    <stop offset="100%" stop-color="#4a90d9" stop-opacity="0.02"/>
  </linearGradient></defs>
  <path d="M37.5,47.0 37.5,47.0 70.1,47.0 89.2,47.1 102.8,47.1 113.3,47.1 121.9,47.2 129.1,47.3 135.4,47.4 141.0,47.5 145.9,47.6 150.4,47.7 154.5,47.8 158.3,47.9 161.8,48.1 165.0,48.2 168.1,48.4 170.9,48.5 173.6,48.7 176.2,48.9 178.6,49.1 180.9,49.2 183.1,49.4 185.2,49.6 187.2,49.8 189.1,50.0 190.9,50.2 192.7,50.4 194.4,50.6 196.1,50.8 197.7,51.0 199.2,51.2 200.7,51.4 202.2,51.6 203.6,51.8 204.9,52.0 206.3,52.2 207.6,52.4 208.8,52.6 210.0,52.8 211.2,53.0 212.4,53.2 213.5,53.4 214.6,53.6 215.7,53.8 216.8,54.0 217.8,54.1 218.8,54.3 219.8,54.5 220.8,54.7 221.7,54.9 222.7,55.1 223.6,55.3 224.5,55.5 225.4,55.6 226.2,55.8 227.1,56.0 227.9,56.2 228.7,56.3 229.5,56.5 231.1,56.9 232.6,57.2 234.1,57.5 235.5,57.8 236.9,58.2 238.2,58.5 239.6,58.8 240.8,59.1 242.1,59.4 243.3,59.7 244.5,60.0 245.6,60.2 246.7,60.5 247.8,60.8 248.9,61.1 249.9,61.3 251.0,61.6 252.0,61.8 252.9,62.1 253.9,62.3 254.8,62.6 255.8,62.8 256.7,63.0 257.6,63.3 258.4,63.5 259.3,63.7 260.1,63.9 261.0,64.2 261.8,64.4 263.0,64.7 264.1,65.0 265.3,65.3 266.4,65.6 267.5,65.9 268.5,66.2 269.6,66.4 270.6,66.7 271.6,67.0 272.5,67.2 273.5,67.5 274.4,67.8 275.3,68.0 276.2,68.2 277.1,68.5 278.0,68.7 278.8,69.0 279.6,69.2 280.5,69.4 281.3,69.6 282.3,69.9 283.4,70.2 284.4,70.5 285.3,70.8 286.3,71.0 287.3,71.3 288.2,71.5 289.1,71.8 290.0,72.0 290.9,72.3 291.7,72.5 292.6,72.7 293.4,73.0 294.2,73.2 295.0,73.4 296.0,73.7 297.0,74.0 297.9,74.2 298.8,74.5 299.7,74.7 300.6,75.0 301.5,75.2 302.4,75.5 303.2,75.7 304.0,75.9 304.9,76.2 305.8,76.4 306.7,76.7 307.7,76.9 308.6,77.2 309.5,77.4 310.3,77.7 311.2,77.9 312.0,78.1 312.8,78.4 313.7,78.6 314.6,78.8 315.5,79.1 316.4,79.3 317.3,79.6 318.1,79.8 319.0,80.1 319.8,80.3 320.6,80.5 321.4,80.7 322.3,81.0 323.2,81.2 324.1,81.4 324.9,81.7 325.7,81.9 326.6,82.1 327.4,82.4 328.3,82.6 329.1,82.8 330.0,83.1 330.8,83.3 331.7,83.5 332.5,83.7 333.3,84.0 334.2,84.2 335.0,84.4 335.9,84.6 336.7,84.9 337.5,85.1 338.4,85.3 339.2,85.5 340.1,85.8 340.9,86.0 341.7,86.2 342.5,86.4 343.4,86.6 344.2,86.8 345.1,87.1 345.9,87.3 346.7,87.5 347.6,87.7 348.4,87.9 349.2,88.1 350.0,88.3 350.9,88.5 351.7,88.8 352.6,89.0 353.4,89.2 354.2,89.4 355.1,89.6 355.9,89.8 356.7,90.0 357.6,90.2 358.4,90.4 359.2,90.6 360.0,90.8 360.9,91.0 361.7,91.1 362.5,91.3 363.3,91.5 364.2,91.7 365.0,91.9 365.8,92.1 366.6,92.3 367.4,92.4 368.3,92.6 369.1,92.8 369.9,92.9 370.7,93.1 371.5,93.3 372.4,93.4 373.2,93.6 374.0,93.7 374.8,93.9 375.6,94.1 376.4,94.2 377.2,94.3 378.1,94.5 378.9,94.6 379.7,94.8 380.5,94.9 381.3,95.0 382.1,95.1 383.0,95.2 383.8,95.4 384.6,95.5 385.4,95.6 386.2,95.7 387.0,95.8 387.9,95.8 388.7,95.9 389.5,96.0 390.3,96.1 391.1,96.1 391.9,96.2 L391.9,171.0 L37.5,171.0 Z" fill="url(#g544)"/>
  <defs><clipPath id="pc545"><rect x="34" y="16" width="358" height="155"/></clipPath></defs>
  <polyline points="37.5,47.0 70.1,47.0 89.2,47.1 102.8,47.1 113.3,47.1 121.9,47.2 129.1,47.3 135.4,47.4 141.0,47.5 145.9,47.6 150.4,47.7 154.5,47.8 158.3,47.9 161.8,48.1 165.0,48.2 168.1,48.4 170.9,48.5 173.6,48.7 176.2,48.9 178.6,49.1 180.9,49.2 183.1,49.4 185.2,49.6 187.2,49.8 189.1,50.0 190.9,50.2 192.7,50.4 194.4,50.6 196.1,50.8 197.7,51.0 199.2,51.2 200.7,51.4 202.2,51.6 203.6,51.8 204.9,52.0 206.3,52.2 207.6,52.4 208.8,52.6 210.0,52.8 211.2,53.0 212.4,53.2 213.5,53.4 214.6,53.6 215.7,53.8 216.8,54.0 217.8,54.1 218.8,54.3 219.8,54.5 220.8,54.7 221.7,54.9 222.7,55.1 223.6,55.3 224.5,55.5 225.4,55.6 226.2,55.8 227.1,56.0 227.9,56.2 228.7,56.3 229.5,56.5 231.1,56.9 232.6,57.2 234.1,57.5 235.5,57.8 236.9,58.2 238.2,58.5 239.6,58.8 240.8,59.1 242.1,59.4 243.3,59.7 244.5,60.0 245.6,60.2 246.7,60.5 247.8,60.8 248.9,61.1 249.9,61.3 251.0,61.6 252.0,61.8 252.9,62.1 253.9,62.3 254.8,62.6 255.8,62.8 256.7,63.0 257.6,63.3 258.4,63.5 259.3,63.7 260.1,63.9 261.0,64.2 261.8,64.4 263.0,64.7 264.1,65.0 265.3,65.3 266.4,65.6 267.5,65.9 268.5,66.2 269.6,66.4 270.6,66.7 271.6,67.0 272.5,67.2 273.5,67.5 274.4,67.8 275.3,68.0 276.2,68.2 277.1,68.5 278.0,68.7 278.8,69.0 279.6,69.2 280.5,69.4 281.3,69.6 282.3,69.9 283.4,70.2 284.4,70.5 285.3,70.8 286.3,71.0 287.3,71.3 288.2,71.5 289.1,71.8 290.0,72.0 290.9,72.3 291.7,72.5 292.6,72.7 293.4,73.0 294.2,73.2 295.0,73.4 296.0,73.7 297.0,74.0 297.9,74.2 298.8,74.5 299.7,74.7 300.6,75.0 301.5,75.2 302.4,75.5 303.2,75.7 304.0,75.9 304.9,76.2 305.8,76.4 306.7,76.7 307.7,76.9 308.6,77.2 309.5,77.4 310.3,77.7 311.2,77.9 312.0,78.1 312.8,78.4 313.7,78.6 314.6,78.8 315.5,79.1 316.4,79.3 317.3,79.6 318.1,79.8 319.0,80.1 319.8,80.3 320.6,80.5 321.4,80.7 322.3,81.0 323.2,81.2 324.1,81.4 324.9,81.7 325.7,81.9 326.6,82.1 327.4,82.4 328.3,82.6 329.1,82.8 330.0,83.1 330.8,83.3 331.7,83.5 332.5,83.7 333.3,84.0 334.2,84.2 335.0,84.4 335.9,84.6 336.7,84.9 337.5,85.1 338.4,85.3 339.2,85.5 340.1,85.8 340.9,86.0 341.7,86.2 342.5,86.4 343.4,86.6 344.2,86.8 345.1,87.1 345.9,87.3 346.7,87.5 347.6,87.7 348.4,87.9 349.2,88.1 350.0,88.3 350.9,88.5 351.7,88.8 352.6,89.0 353.4,89.2 354.2,89.4 355.1,89.6 355.9,89.8 356.7,90.0 357.6,90.2 358.4,90.4 359.2,90.6 360.0,90.8 360.9,91.0 361.7,91.1 362.5,91.3 363.3,91.5 364.2,91.7 365.0,91.9 365.8,92.1 366.6,92.3 367.4,92.4 368.3,92.6 369.1,92.8 369.9,92.9 370.7,93.1 371.5,93.3 372.4,93.4 373.2,93.6 374.0,93.7 374.8,93.9 375.6,94.1 376.4,94.2 377.2,94.3 378.1,94.5 378.9,94.6 379.7,94.8 380.5,94.9 381.3,95.0 382.1,95.1 383.0,95.2 383.8,95.4 384.6,95.5 385.4,95.6 386.2,95.7 387.0,95.8 387.9,95.8 388.7,95.9 389.5,96.0 390.3,96.1 391.1,96.1 391.9,96.2" fill="none" stroke="#4a90d9" stroke-width="1.5" stroke-linejoin="round" clip-path="url(#pc545)"/>
  <line x1="442" y1="16" x2="442" y2="171" stroke="#d1d5db"/>
  <line x1="442" y1="93.5" x2="800" y2="93.5" stroke="#d1d5db"/>
  <text x="621" y="197" text-anchor="middle" font-size="9" fill="#6b7280">Hz</text>
  <text x="420" y="93.5" text-anchor="middle" font-size="9" fill="#6b7280" transform="rotate(-90 420 93.5)">Phase (deg)</text>
  <line x1="474.6" y1="16" x2="474.6" y2="171" stroke="#e5e7eb" stroke-width="0.5"/>
  <line x1="493.7" y1="16" x2="493.7" y2="171" stroke="#e5e7eb" stroke-width="0.5"/>
  <line x1="507.3" y1="16" x2="507.3" y2="171" stroke="#e5e7eb" stroke-width="0.5"/>
  <line x1="517.8" y1="16" x2="517.8" y2="171" stroke="#e5e7eb" stroke-width="0.5"/>
  <line x1="526.4" y1="16" x2="526.4" y2="171" stroke="#e5e7eb" stroke-width="0.5"/>
  <line x1="533.7" y1="16" x2="533.7" y2="171" stroke="#e5e7eb" stroke-width="0.5"/>
  <line x1="539.9" y1="16" x2="539.9" y2="171" stroke="#e5e7eb" stroke-width="0.5"/>
  <line x1="545.5" y1="16" x2="545.5" y2="171" stroke="#e5e7eb" stroke-width="0.5"/>
  <line x1="583.1" y1="16" x2="583.1" y2="171" stroke="#e5e7eb" stroke-width="0.5"/>
  <line x1="602.2" y1="16" x2="602.2" y2="171" stroke="#e5e7eb" stroke-width="0.5"/>
  <line x1="615.7" y1="16" x2="615.7" y2="171" stroke="#e5e7eb" stroke-width="0.5"/>
  <line x1="626.3" y1="16" x2="626.3" y2="171" stroke="#e5e7eb" stroke-width="0.5"/>
  <line x1="634.8" y1="16" x2="634.8" y2="171" stroke="#e5e7eb" stroke-width="0.5"/>
  <line x1="642.1" y1="16" x2="642.1" y2="171" stroke="#e5e7eb" stroke-width="0.5"/>
  <line x1="648.4" y1="16" x2="648.4" y2="171" stroke="#e5e7eb" stroke-width="0.5"/>
  <line x1="653.9" y1="16" x2="653.9" y2="171" stroke="#e5e7eb" stroke-width="0.5"/>
  <line x1="691.5" y1="16" x2="691.5" y2="171" stroke="#e5e7eb" stroke-width="0.5"/>
  <line x1="710.6" y1="16" x2="710.6" y2="171" stroke="#e5e7eb" stroke-width="0.5"/>
  <line x1="724.2" y1="16" x2="724.2" y2="171" stroke="#e5e7eb" stroke-width="0.5"/>
  <line x1="734.7" y1="16" x2="734.7" y2="171" stroke="#e5e7eb" stroke-width="0.5"/>
  <line x1="743.3" y1="16" x2="743.3" y2="171" stroke="#e5e7eb" stroke-width="0.5"/>
  <line x1="750.6" y1="16" x2="750.6" y2="171" stroke="#e5e7eb" stroke-width="0.5"/>
  <line x1="756.8" y1="16" x2="756.8" y2="171" stroke="#e5e7eb" stroke-width="0.5"/>
  <line x1="762.4" y1="16" x2="762.4" y2="171" stroke="#e5e7eb" stroke-width="0.5"/>
  <line x1="800.0" y1="16" x2="800.0" y2="171" stroke="#e5e7eb" stroke-width="0.5"/>
  <line x1="550.5" y1="16" x2="550.5" y2="171" stroke="#e5e7eb" stroke-width="0.5"/>
  <text x="550.5" y="183" text-anchor="middle" font-size="8" fill="#6b7280">100</text>
  <line x1="658.9" y1="16" x2="658.9" y2="171" stroke="#e5e7eb" stroke-width="0.5"/>
  <text x="658.9" y="183" text-anchor="middle" font-size="8" fill="#6b7280">1k</text>
  <line x1="767.4" y1="16" x2="767.4" y2="171" stroke="#e5e7eb" stroke-width="0.5"/>
  <text x="767.4" y="183" text-anchor="middle" font-size="8" fill="#6b7280">10k</text>
  <line x1="442" y1="54.8" x2="800" y2="54.8" stroke="#e5e7eb" stroke-width="0.5"/>
  <line x1="442" y1="132.3" x2="800" y2="132.3" stroke="#e5e7eb" stroke-width="0.5"/>
  <line x1="442" y1="16.0" x2="800" y2="16.0" stroke="#e5e7eb" stroke-width="0.5"/>
  <text x="438" y="19.0" text-anchor="end" font-size="8" fill="#6b7280">180</text>
  <text x="438" y="96.5" text-anchor="end" font-size="8" fill="#6b7280">0</text>
  <line x1="442" y1="171.0" x2="800" y2="171.0" stroke="#e5e7eb" stroke-width="0.5"/>
  <text x="438" y="174.0" text-anchor="end" font-size="8" fill="#6b7280">-180</text>
  <defs><linearGradient id="g546" x1="0" y1="171" x2="0" y2="93.5" gradientUnits="userSpaceOnUse">
    <stop offset="0%" stop-color="#e74c3c" stop-opacity="0.15"/>
    <stop offset="100%" stop-color="#e74c3c" stop-opacity="0.02"/>
  </linearGradient></defs>
  <path d="M445.5,94.2 445.5,94.2 478.1,94.9 497.2,95.7 510.8,96.4 521.3,97.1 529.9,97.8 537.1,98.5 543.4,99.1 549.0,99.8 553.9,100.5 558.4,101.1 562.5,101.8 566.3,102.4 569.8,103.0 573.0,103.6 576.1,104.2 578.9,104.8 581.6,105.3 584.2,105.9 586.6,106.4 588.9,106.9 591.1,107.4 593.2,107.9 595.2,108.4 597.1,108.9 598.9,109.3 600.7,109.8 602.4,110.2 604.1,110.6 605.7,111.0 607.2,111.4 608.7,111.7 610.2,112.1 611.6,112.4 612.9,112.8 614.3,113.1 615.6,113.4 616.8,113.7 618.0,114.0 619.2,114.3 620.4,114.6 621.5,114.9 622.6,115.1 623.7,115.4 624.8,115.6 625.8,115.9 626.8,116.1 627.8,116.3 628.8,116.6 629.7,116.8 630.7,117.0 631.6,117.2 632.5,117.4 633.4,117.6 634.2,117.7 635.1,117.9 635.9,118.1 636.7,118.3 637.5,118.4 639.1,118.7 640.6,119.0 642.1,119.3 643.5,119.6 644.9,119.8 646.2,120.1 647.6,120.3 648.8,120.5 650.1,120.7 651.3,120.9 652.5,121.1 653.6,121.2 654.7,121.4 655.8,121.6 656.9,121.7 657.9,121.9 659.0,122.0 660.0,122.1 660.9,122.2 661.9,122.4 662.8,122.5 663.8,122.6 664.7,122.7 665.6,122.8 666.4,122.9 667.3,122.9 668.1,123.0 669.0,123.1 669.8,123.2 671.0,123.3 672.1,123.4 673.3,123.5 674.4,123.6 675.5,123.7 676.5,123.7 677.6,123.8 678.6,123.9 679.6,123.9 680.5,124.0 681.5,124.0 682.4,124.1 683.3,124.1 684.2,124.2 685.1,124.2 686.0,124.2 686.8,124.3 687.6,124.3 688.5,124.3 689.3,124.3 690.3,124.3 691.4,124.4 692.4,124.4 693.3,124.4 694.3,124.4 695.3,124.4 696.2,124.4 697.1,124.4 698.0,124.4 698.9,124.4 699.7,124.4 700.6,124.4 701.4,124.4 702.2,124.4 703.0,124.3 704.0,124.3 705.0,124.3 705.9,124.3 706.8,124.2 707.7,124.2 708.6,124.2 709.5,124.1 710.4,124.1 711.2,124.0 712.0,124.0 712.9,124.0 713.8,123.9 714.7,123.8 715.7,123.8 716.6,123.7 717.5,123.7 718.3,123.6 719.2,123.5 720.0,123.5 720.8,123.4 721.7,123.3 722.6,123.2 723.5,123.1 724.4,123.0 725.3,123.0 726.1,122.9 727.0,122.8 727.8,122.7 728.6,122.6 729.4,122.5 730.3,122.4 731.2,122.3 732.1,122.1 732.9,122.0 733.7,121.9 734.6,121.8 735.4,121.7 736.3,121.5 737.1,121.4 738.0,121.3 738.8,121.1 739.7,121.0 740.5,120.8 741.3,120.7 742.2,120.5 743.0,120.4 743.9,120.2 744.7,120.0 745.5,119.9 746.4,119.7 747.2,119.5 748.1,119.3 748.9,119.2 749.7,119.0 750.5,118.8 751.4,118.6 752.2,118.4 753.1,118.2 753.9,118.0 754.7,117.8 755.6,117.5 756.4,117.3 757.2,117.1 758.0,116.9 758.9,116.6 759.7,116.4 760.6,116.1 761.4,115.9 762.2,115.6 763.1,115.4 763.9,115.1 764.7,114.8 765.6,114.6 766.4,114.3 767.2,114.0 768.0,113.7 768.9,113.4 769.7,113.1 770.5,112.8 771.3,112.5 772.2,112.2 773.0,111.8 773.8,111.5 774.6,111.2 775.4,110.8 776.3,110.5 777.1,110.1 777.9,109.8 778.7,109.4 779.5,109.0 780.4,108.6 781.2,108.2 782.0,107.8 782.8,107.4 783.6,107.0 784.4,106.6 785.2,106.2 786.1,105.7 786.9,105.3 787.7,104.9 788.5,104.4 789.3,103.9 790.1,103.5 791.0,103.0 791.8,102.5 792.6,102.0 793.4,101.5 794.2,101.0 795.0,100.4 795.9,99.9 796.7,99.3 797.5,98.8 798.3,98.2 799.1,97.6 799.9,97.1 L799.9,93.5 L445.5,93.5 Z" fill="url(#g546)"/>
  <defs><clipPath id="pc547"><rect x="442" y="16" width="358" height="155"/></clipPath></defs>
  <polyline points="445.5,94.2 478.1,94.9 497.2,95.7 510.8,96.4 521.3,97.1 529.9,97.8 537.1,98.5 543.4,99.1 549.0,99.8 553.9,100.5 558.4,101.1 562.5,101.8 566.3,102.4 569.8,103.0 573.0,103.6 576.1,104.2 578.9,104.8 581.6,105.3 584.2,105.9 586.6,106.4 588.9,106.9 591.1,107.4 593.2,107.9 595.2,108.4 597.1,108.9 598.9,109.3 600.7,109.8 602.4,110.2 604.1,110.6 605.7,111.0 607.2,111.4 608.7,111.7 610.2,112.1 611.6,112.4 612.9,112.8 614.3,113.1 615.6,113.4 616.8,113.7 618.0,114.0 619.2,114.3 620.4,114.6 621.5,114.9 622.6,115.1 623.7,115.4 624.8,115.6 625.8,115.9 626.8,116.1 627.8,116.3 628.8,116.6 629.7,116.8 630.7,117.0 631.6,117.2 632.5,117.4 633.4,117.6 634.2,117.7 635.1,117.9 635.9,118.1 636.7,118.3 637.5,118.4 639.1,118.7 640.6,119.0 642.1,119.3 643.5,119.6 644.9,119.8 646.2,120.1 647.6,120.3 648.8,120.5 650.1,120.7 651.3,120.9 652.5,121.1 653.6,121.2 654.7,121.4 655.8,121.6 656.9,121.7 657.9,121.9 659.0,122.0 660.0,122.1 660.9,122.2 661.9,122.4 662.8,122.5 663.8,122.6 664.7,122.7 665.6,122.8 666.4,122.9 667.3,122.9 668.1,123.0 669.0,123.1 669.8,123.2 671.0,123.3 672.1,123.4 673.3,123.5 674.4,123.6 675.5,123.7 676.5,123.7 677.6,123.8 678.6,123.9 679.6,123.9 680.5,124.0 681.5,124.0 682.4,124.1 683.3,124.1 684.2,124.2 685.1,124.2 686.0,124.2 686.8,124.3 687.6,124.3 688.5,124.3 689.3,124.3 690.3,124.3 691.4,124.4 692.4,124.4 693.3,124.4 694.3,124.4 695.3,124.4 696.2,124.4 697.1,124.4 698.0,124.4 698.9,124.4 699.7,124.4 700.6,124.4 701.4,124.4 702.2,124.4 703.0,124.3 704.0,124.3 705.0,124.3 705.9,124.3 706.8,124.2 707.7,124.2 708.6,124.2 709.5,124.1 710.4,124.1 711.2,124.0 712.0,124.0 712.9,124.0 713.8,123.9 714.7,123.8 715.7,123.8 716.6,123.7 717.5,123.7 718.3,123.6 719.2,123.5 720.0,123.5 720.8,123.4 721.7,123.3 722.6,123.2 723.5,123.1 724.4,123.0 725.3,123.0 726.1,122.9 727.0,122.8 727.8,122.7 728.6,122.6 729.4,122.5 730.3,122.4 731.2,122.3 732.1,122.1 732.9,122.0 733.7,121.9 734.6,121.8 735.4,121.7 736.3,121.5 737.1,121.4 738.0,121.3 738.8,121.1 739.7,121.0 740.5,120.8 741.3,120.7 742.2,120.5 743.0,120.4 743.9,120.2 744.7,120.0 745.5,119.9 746.4,119.7 747.2,119.5 748.1,119.3 748.9,119.2 749.7,119.0 750.5,118.8 751.4,118.6 752.2,118.4 753.1,118.2 753.9,118.0 754.7,117.8 755.6,117.5 756.4,117.3 757.2,117.1 758.0,116.9 758.9,116.6 759.7,116.4 760.6,116.1 761.4,115.9 762.2,115.6 763.1,115.4 763.9,115.1 764.7,114.8 765.6,114.6 766.4,114.3 767.2,114.0 768.0,113.7 768.9,113.4 769.7,113.1 770.5,112.8 771.3,112.5 772.2,112.2 773.0,111.8 773.8,111.5 774.6,111.2 775.4,110.8 776.3,110.5 777.1,110.1 777.9,109.8 778.7,109.4 779.5,109.0 780.4,108.6 781.2,108.2 782.0,107.8 782.8,107.4 783.6,107.0 784.4,106.6 785.2,106.2 786.1,105.7 786.9,105.3 787.7,104.9 788.5,104.4 789.3,103.9 790.1,103.5 791.0,103.0 791.8,102.5 792.6,102.0 793.4,101.5 794.2,101.0 795.0,100.4 795.9,99.9 796.7,99.3 797.5,98.8 798.3,98.2 799.1,97.6 799.9,97.1" fill="none" stroke="#e74c3c" stroke-width="1.5" stroke-linejoin="round" clip-path="url(#pc547)"/>
  <line x1="34" y1="221" x2="34" y2="376" stroke="#d1d5db"/>
  <line x1="34" y1="298.5" x2="392" y2="298.5" stroke="#d1d5db"/>
  <text x="213" y="402" text-anchor="middle" font-size="9" fill="#6b7280">Hz</text>
  <text x="12" y="298.5" text-anchor="middle" font-size="9" fill="#6b7280" transform="rotate(-90 12 298.5)">Group delay</text>
  <line x1="66.6" y1="221" x2="66.6" y2="376" stroke="#e5e7eb" stroke-width="0.5"/>
  <line x1="85.7" y1="221" x2="85.7" y2="376" stroke="#e5e7eb" stroke-width="0.5"/>
  <line x1="99.3" y1="221" x2="99.3" y2="376" stroke="#e5e7eb" stroke-width="0.5"/>
  <line x1="109.8" y1="221" x2="109.8" y2="376" stroke="#e5e7eb" stroke-width="0.5"/>
  <line x1="118.4" y1="221" x2="118.4" y2="376" stroke="#e5e7eb" stroke-width="0.5"/>
  <line x1="125.7" y1="221" x2="125.7" y2="376" stroke="#e5e7eb" stroke-width="0.5"/>
  <line x1="131.9" y1="221" x2="131.9" y2="376" stroke="#e5e7eb" stroke-width="0.5"/>
  <line x1="137.5" y1="221" x2="137.5" y2="376" stroke="#e5e7eb" stroke-width="0.5"/>
  <line x1="175.1" y1="221" x2="175.1" y2="376" stroke="#e5e7eb" stroke-width="0.5"/>
  <line x1="194.2" y1="221" x2="194.2" y2="376" stroke="#e5e7eb" stroke-width="0.5"/>
  <line x1="207.7" y1="221" x2="207.7" y2="376" stroke="#e5e7eb" stroke-width="0.5"/>
  <line x1="218.3" y1="221" x2="218.3" y2="376" stroke="#e5e7eb" stroke-width="0.5"/>
  <line x1="226.8" y1="221" x2="226.8" y2="376" stroke="#e5e7eb" stroke-width="0.5"/>
  <line x1="234.1" y1="221" x2="234.1" y2="376" stroke="#e5e7eb" stroke-width="0.5"/>
  <line x1="240.4" y1="221" x2="240.4" y2="376" stroke="#e5e7eb" stroke-width="0.5"/>
  <line x1="245.9" y1="221" x2="245.9" y2="376" stroke="#e5e7eb" stroke-width="0.5"/>
  <line x1="283.5" y1="221" x2="283.5" y2="376" stroke="#e5e7eb" stroke-width="0.5"/>
  <line x1="302.6" y1="221" x2="302.6" y2="376" stroke="#e5e7eb" stroke-width="0.5"/>
  <line x1="316.2" y1="221" x2="316.2" y2="376" stroke="#e5e7eb" stroke-width="0.5"/>
  <line x1="326.7" y1="221" x2="326.7" y2="376" stroke="#e5e7eb" stroke-width="0.5"/>
  <line x1="335.3" y1="221" x2="335.3" y2="376" stroke="#e5e7eb" stroke-width="0.5"/>
  <line x1="342.6" y1="221" x2="342.6" y2="376" stroke="#e5e7eb" stroke-width="0.5"/>
  <line x1="348.8" y1="221" x2="348.8" y2="376" stroke="#e5e7eb" stroke-width="0.5"/>
  <line x1="354.4" y1="221" x2="354.4" y2="376" stroke="#e5e7eb" stroke-width="0.5"/>
  <line x1="392.0" y1="221" x2="392.0" y2="376" stroke="#e5e7eb" stroke-width="0.5"/>
  <line x1="142.5" y1="221" x2="142.5" y2="376" stroke="#e5e7eb" stroke-width="0.5"/>
  <text x="142.5" y="388" text-anchor="middle" font-size="8" fill="#6b7280">100</text>
  <line x1="250.9" y1="221" x2="250.9" y2="376" stroke="#e5e7eb" stroke-width="0.5"/>
  <text x="250.9" y="388" text-anchor="middle" font-size="8" fill="#6b7280">1k</text>
  <line x1="359.4" y1="221" x2="359.4" y2="376" stroke="#e5e7eb" stroke-width="0.5"/>
  <text x="359.4" y="388" text-anchor="middle" font-size="8" fill="#6b7280">10k</text>
  <line x1="34" y1="361.3" x2="392" y2="361.3" stroke="#e5e7eb" stroke-width="0.5"/>
  <text x="30" y="364.3" text-anchor="end" font-size="8" fill="#6b7280">-20</text>
  <text x="30" y="301.5" text-anchor="end" font-size="8" fill="#6b7280">0</text>
  <line x1="34" y1="235.7" x2="392" y2="235.7" stroke="#e5e7eb" stroke-width="0.5"/>
  <text x="30" y="238.7" text-anchor="end" font-size="8" fill="#6b7280">20</text>
  <defs><linearGradient id="g548" x1="0" y1="221" x2="0" y2="298.5" gradientUnits="userSpaceOnUse">
    <stop offset="0%" stop-color="#2ecc71" stop-opacity="0.15"/>
    <stop offset="100%" stop-color="#2ecc71" stop-opacity="0.02"/>
  </linearGradient></defs>
  <defs><linearGradient id="g549" x1="0" y1="376" x2="0" y2="298.5" gradientUnits="userSpaceOnUse">
    <stop offset="0%" stop-color="#2ecc71" stop-opacity="0.15"/>
    <stop offset="100%" stop-color="#2ecc71" stop-opacity="0.02"/>
  </linearGradient></defs>
  <defs><clipPath id="c550"><rect x="34" y="221" width="358" height="77.5"/></clipPath></defs>
  <defs><clipPath id="c551"><rect x="34" y="298.5" width="358" height="77.5"/></clipPath></defs>
  <path d="M37.5,238.9 37.5,238.9 70.1,239.0 89.2,239.3 102.8,239.7 113.3,240.2 121.9,240.7 129.1,241.4 135.4,242.1 141.0,243.0 145.9,243.8 150.4,244.8 154.5,245.8 158.3,246.9 161.8,248.0 165.0,249.1 168.1,250.2 170.9,251.4 173.6,252.6 176.2,253.8 178.6,254.9 180.9,256.1 183.1,257.3 185.2,258.5 187.2,259.6 189.1,260.8 190.9,261.9 192.7,263.0 194.4,264.1 196.1,265.1 197.7,266.1 199.2,267.1 200.7,268.1 202.2,269.0 203.6,269.9 204.9,270.8 206.3,271.7 207.6,272.5 208.8,273.3 210.0,274.1 211.2,274.9 212.4,275.6 213.5,276.3 214.6,277.0 215.7,277.6 216.8,278.3 217.8,278.9 218.8,279.5 219.8,280.0 220.8,280.6 221.7,281.1 222.7,281.6 223.6,282.1 224.5,282.6 225.4,283.1 226.2,283.5 227.1,284.0 227.9,284.4 228.7,284.8 229.5,285.2 231.1,285.9 232.6,286.6 234.1,287.2 235.5,287.8 236.9,288.4 238.2,288.9 239.6,289.4 240.8,289.9 242.1,290.3 243.3,290.8 244.5,291.1 245.6,291.5 246.7,291.8 247.8,292.2 248.9,292.5 249.9,292.8 251.0,293.0 252.0,293.3 252.9,293.6 253.9,293.8 254.8,294.0 255.8,294.2 256.7,294.4 257.6,294.6 258.4,294.8 259.3,295.0 260.1,295.1 261.0,295.3 261.8,295.4 263.0,295.6 264.1,295.8 265.3,296.0 266.4,296.2 267.5,296.4 268.5,296.5 269.6,296.7 270.6,296.8 271.6,296.9 272.5,297.0 273.5,297.2 274.4,297.3 275.3,297.4 276.2,297.5 277.1,297.6 278.0,297.6 278.8,297.7 279.6,297.8 280.5,297.9 281.3,297.9 282.3,298.0 283.4,298.1 284.4,298.2 285.3,298.3 286.3,298.3 287.3,298.4 288.2,298.5 289.1,298.5 290.0,298.6 290.9,298.6 291.7,298.7 292.6,298.7 293.4,298.8 294.2,298.8 295.0,298.9 296.0,298.9 297.0,299.0 297.9,299.0 298.8,299.0 299.7,299.1 300.6,299.1 301.5,299.1 302.4,299.2 303.2,299.2 304.0,299.2 304.9,299.3 305.8,299.3 306.7,299.3 307.7,299.4 308.6,299.4 309.5,299.4 310.3,299.4 311.2,299.5 312.0,299.5 312.8,299.5 313.7,299.5 314.6,299.5 315.5,299.6 316.4,299.6 317.3,299.6 318.1,299.6 319.0,299.6 319.8,299.6 320.6,299.6 321.4,299.7 322.3,299.7 323.2,299.7 324.1,299.7 324.9,299.7 325.7,299.7 326.6,299.7 327.4,299.7 328.3,299.8 329.1,299.8 330.0,299.8 330.8,299.8 331.7,299.8 332.5,299.8 333.3,299.8 334.2,299.8 335.0,299.8 335.9,299.8 336.7,299.9 337.5,299.9 338.4,299.9 339.2,299.9 340.1,299.9 340.9,299.9 341.7,299.9 342.5,299.9 343.4,299.9 344.2,299.9 345.1,299.9 345.9,299.9 346.7,299.9 347.6,299.9 348.4,299.9 349.2,299.9 350.0,299.9 350.9,299.9 351.7,299.9 352.6,300.0 353.4,300.0 354.2,300.0 355.1,300.0 355.9,300.0 356.7,300.0 357.6,300.0 358.4,300.0 359.2,300.0 360.0,300.0 360.9,300.0 361.7,300.0 362.5,300.0 363.3,300.0 364.2,300.0 365.0,300.0 365.8,300.0 366.6,300.0 367.4,300.0 368.3,300.0 369.1,300.0 369.9,300.0 370.7,300.0 371.5,300.0 372.4,300.0 373.2,300.0 374.0,300.0 374.8,300.0 375.6,300.0 376.4,300.0 377.2,300.0 378.1,300.0 378.9,300.0 379.7,300.0 380.5,300.0 381.3,300.0 382.1,300.0 383.0,300.0 383.8,300.0 384.6,300.0 385.4,300.0 386.2,300.0 387.0,300.0 387.9,300.0 388.7,300.0 389.5,300.0 390.3,300.0 391.1,300.0 391.9,300.0 L391.9,298.5 L37.5,298.5 Z" fill="url(#g548)" clip-path="url(#c550)"/>
  <path d="M37.5,238.9 37.5,238.9 70.1,239.0 89.2,239.3 102.8,239.7 113.3,240.2 121.9,240.7 129.1,241.4 135.4,242.1 141.0,243.0 145.9,243.8 150.4,244.8 154.5,245.8 158.3,246.9 161.8,248.0 165.0,249.1 168.1,250.2 170.9,251.4 173.6,252.6 176.2,253.8 178.6,254.9 180.9,256.1 183.1,257.3 185.2,258.5 187.2,259.6 189.1,260.8 190.9,261.9 192.7,263.0 194.4,264.1 196.1,265.1 197.7,266.1 199.2,267.1 200.7,268.1 202.2,269.0 203.6,269.9 204.9,270.8 206.3,271.7 207.6,272.5 208.8,273.3 210.0,274.1 211.2,274.9 212.4,275.6 213.5,276.3 214.6,277.0 215.7,277.6 216.8,278.3 217.8,278.9 218.8,279.5 219.8,280.0 220.8,280.6 221.7,281.1 222.7,281.6 223.6,282.1 224.5,282.6 225.4,283.1 226.2,283.5 227.1,284.0 227.9,284.4 228.7,284.8 229.5,285.2 231.1,285.9 232.6,286.6 234.1,287.2 235.5,287.8 236.9,288.4 238.2,288.9 239.6,289.4 240.8,289.9 242.1,290.3 243.3,290.8 244.5,291.1 245.6,291.5 246.7,291.8 247.8,292.2 248.9,292.5 249.9,292.8 251.0,293.0 252.0,293.3 252.9,293.6 253.9,293.8 254.8,294.0 255.8,294.2 256.7,294.4 257.6,294.6 258.4,294.8 259.3,295.0 260.1,295.1 261.0,295.3 261.8,295.4 263.0,295.6 264.1,295.8 265.3,296.0 266.4,296.2 267.5,296.4 268.5,296.5 269.6,296.7 270.6,296.8 271.6,296.9 272.5,297.0 273.5,297.2 274.4,297.3 275.3,297.4 276.2,297.5 277.1,297.6 278.0,297.6 278.8,297.7 279.6,297.8 280.5,297.9 281.3,297.9 282.3,298.0 283.4,298.1 284.4,298.2 285.3,298.3 286.3,298.3 287.3,298.4 288.2,298.5 289.1,298.5 290.0,298.6 290.9,298.6 291.7,298.7 292.6,298.7 293.4,298.8 294.2,298.8 295.0,298.9 296.0,298.9 297.0,299.0 297.9,299.0 298.8,299.0 299.7,299.1 300.6,299.1 301.5,299.1 302.4,299.2 303.2,299.2 304.0,299.2 304.9,299.3 305.8,299.3 306.7,299.3 307.7,299.4 308.6,299.4 309.5,299.4 310.3,299.4 311.2,299.5 312.0,299.5 312.8,299.5 313.7,299.5 314.6,299.5 315.5,299.6 316.4,299.6 317.3,299.6 318.1,299.6 319.0,299.6 319.8,299.6 320.6,299.6 321.4,299.7 322.3,299.7 323.2,299.7 324.1,299.7 324.9,299.7 325.7,299.7 326.6,299.7 327.4,299.7 328.3,299.8 329.1,299.8 330.0,299.8 330.8,299.8 331.7,299.8 332.5,299.8 333.3,299.8 334.2,299.8 335.0,299.8 335.9,299.8 336.7,299.9 337.5,299.9 338.4,299.9 339.2,299.9 340.1,299.9 340.9,299.9 341.7,299.9 342.5,299.9 343.4,299.9 344.2,299.9 345.1,299.9 345.9,299.9 346.7,299.9 347.6,299.9 348.4,299.9 349.2,299.9 350.0,299.9 350.9,299.9 351.7,299.9 352.6,300.0 353.4,300.0 354.2,300.0 355.1,300.0 355.9,300.0 356.7,300.0 357.6,300.0 358.4,300.0 359.2,300.0 360.0,300.0 360.9,300.0 361.7,300.0 362.5,300.0 363.3,300.0 364.2,300.0 365.0,300.0 365.8,300.0 366.6,300.0 367.4,300.0 368.3,300.0 369.1,300.0 369.9,300.0 370.7,300.0 371.5,300.0 372.4,300.0 373.2,300.0 374.0,300.0 374.8,300.0 375.6,300.0 376.4,300.0 377.2,300.0 378.1,300.0 378.9,300.0 379.7,300.0 380.5,300.0 381.3,300.0 382.1,300.0 383.0,300.0 383.8,300.0 384.6,300.0 385.4,300.0 386.2,300.0 387.0,300.0 387.9,300.0 388.7,300.0 389.5,300.0 390.3,300.0 391.1,300.0 391.9,300.0 L391.9,298.5 L37.5,298.5 Z" fill="url(#g549)" clip-path="url(#c551)"/>
  <defs><clipPath id="pc552"><rect x="34" y="221" width="358" height="155"/></clipPath></defs>
  <polyline points="37.5,238.9 70.1,239.0 89.2,239.3 102.8,239.7 113.3,240.2 121.9,240.7 129.1,241.4 135.4,242.1 141.0,243.0 145.9,243.8 150.4,244.8 154.5,245.8 158.3,246.9 161.8,248.0 165.0,249.1 168.1,250.2 170.9,251.4 173.6,252.6 176.2,253.8 178.6,254.9 180.9,256.1 183.1,257.3 185.2,258.5 187.2,259.6 189.1,260.8 190.9,261.9 192.7,263.0 194.4,264.1 196.1,265.1 197.7,266.1 199.2,267.1 200.7,268.1 202.2,269.0 203.6,269.9 204.9,270.8 206.3,271.7 207.6,272.5 208.8,273.3 210.0,274.1 211.2,274.9 212.4,275.6 213.5,276.3 214.6,277.0 215.7,277.6 216.8,278.3 217.8,278.9 218.8,279.5 219.8,280.0 220.8,280.6 221.7,281.1 222.7,281.6 223.6,282.1 224.5,282.6 225.4,283.1 226.2,283.5 227.1,284.0 227.9,284.4 228.7,284.8 229.5,285.2 231.1,285.9 232.6,286.6 234.1,287.2 235.5,287.8 236.9,288.4 238.2,288.9 239.6,289.4 240.8,289.9 242.1,290.3 243.3,290.8 244.5,291.1 245.6,291.5 246.7,291.8 247.8,292.2 248.9,292.5 249.9,292.8 251.0,293.0 252.0,293.3 252.9,293.6 253.9,293.8 254.8,294.0 255.8,294.2 256.7,294.4 257.6,294.6 258.4,294.8 259.3,295.0 260.1,295.1 261.0,295.3 261.8,295.4 263.0,295.6 264.1,295.8 265.3,296.0 266.4,296.2 267.5,296.4 268.5,296.5 269.6,296.7 270.6,296.8 271.6,296.9 272.5,297.0 273.5,297.2 274.4,297.3 275.3,297.4 276.2,297.5 277.1,297.6 278.0,297.6 278.8,297.7 279.6,297.8 280.5,297.9 281.3,297.9 282.3,298.0 283.4,298.1 284.4,298.2 285.3,298.3 286.3,298.3 287.3,298.4 288.2,298.5 289.1,298.5 290.0,298.6 290.9,298.6 291.7,298.7 292.6,298.7 293.4,298.8 294.2,298.8 295.0,298.9 296.0,298.9 297.0,299.0 297.9,299.0 298.8,299.0 299.7,299.1 300.6,299.1 301.5,299.1 302.4,299.2 303.2,299.2 304.0,299.2 304.9,299.3 305.8,299.3 306.7,299.3 307.7,299.4 308.6,299.4 309.5,299.4 310.3,299.4 311.2,299.5 312.0,299.5 312.8,299.5 313.7,299.5 314.6,299.5 315.5,299.6 316.4,299.6 317.3,299.6 318.1,299.6 319.0,299.6 319.8,299.6 320.6,299.6 321.4,299.7 322.3,299.7 323.2,299.7 324.1,299.7 324.9,299.7 325.7,299.7 326.6,299.7 327.4,299.7 328.3,299.8 329.1,299.8 330.0,299.8 330.8,299.8 331.7,299.8 332.5,299.8 333.3,299.8 334.2,299.8 335.0,299.8 335.9,299.8 336.7,299.9 337.5,299.9 338.4,299.9 339.2,299.9 340.1,299.9 340.9,299.9 341.7,299.9 342.5,299.9 343.4,299.9 344.2,299.9 345.1,299.9 345.9,299.9 346.7,299.9 347.6,299.9 348.4,299.9 349.2,299.9 350.0,299.9 350.9,299.9 351.7,299.9 352.6,300.0 353.4,300.0 354.2,300.0 355.1,300.0 355.9,300.0 356.7,300.0 357.6,300.0 358.4,300.0 359.2,300.0 360.0,300.0 360.9,300.0 361.7,300.0 362.5,300.0 363.3,300.0 364.2,300.0 365.0,300.0 365.8,300.0 366.6,300.0 367.4,300.0 368.3,300.0 369.1,300.0 369.9,300.0 370.7,300.0 371.5,300.0 372.4,300.0 373.2,300.0 374.0,300.0 374.8,300.0 375.6,300.0 376.4,300.0 377.2,300.0 378.1,300.0 378.9,300.0 379.7,300.0 380.5,300.0 381.3,300.0 382.1,300.0 383.0,300.0 383.8,300.0 384.6,300.0 385.4,300.0 386.2,300.0 387.0,300.0 387.9,300.0 388.7,300.0 389.5,300.0 390.3,300.0 391.1,300.0 391.9,300.0" fill="none" stroke="#2ecc71" stroke-width="1.5" stroke-linejoin="round" clip-path="url(#pc552)"/>
  <line x1="442" y1="221" x2="442" y2="376" stroke="#d1d5db"/>
  <line x1="442" y1="298.5" x2="800" y2="298.5" stroke="#d1d5db"/>
  <text x="621" y="402" text-anchor="middle" font-size="9" fill="#6b7280">Samples</text>
  <text x="420" y="298.5" text-anchor="middle" font-size="9" fill="#6b7280" transform="rotate(-90 420 298.5)">Impulse response</text>
  <line x1="442.0" y1="221" x2="442.0" y2="376" stroke="#e5e7eb" stroke-width="0.5"/>
  <text x="442.0" y="388" text-anchor="middle" font-size="8" fill="#6b7280">0</text>
  <line x1="567.9" y1="221" x2="567.9" y2="376" stroke="#e5e7eb" stroke-width="0.5"/>
  <text x="567.9" y="388" text-anchor="middle" font-size="8" fill="#6b7280">90</text>
  <line x1="693.7" y1="221" x2="693.7" y2="376" stroke="#e5e7eb" stroke-width="0.5"/>
  <text x="693.7" y="388" text-anchor="middle" font-size="8" fill="#6b7280">180</text>
  <line x1="442" y1="360.5" x2="800" y2="360.5" stroke="#e5e7eb" stroke-width="0.5"/>
  <text x="438" y="363.5" text-anchor="end" font-size="8" fill="#6b7280">-0.04</text>
  <text x="438" y="301.5" text-anchor="end" font-size="8" fill="#6b7280">0</text>
  <line x1="442" y1="236.5" x2="800" y2="236.5" stroke="#e5e7eb" stroke-width="0.5"/>
  <text x="438" y="239.5" text-anchor="end" font-size="8" fill="#6b7280">0.04</text>
  <defs><linearGradient id="g553" x1="0" y1="221" x2="0" y2="298.5" gradientUnits="userSpaceOnUse">
    <stop offset="0%" stop-color="#f39c12" stop-opacity="0.15"/>
    <stop offset="100%" stop-color="#f39c12" stop-opacity="0.02"/>
  </linearGradient></defs>
  <path d="M442.0,221.0 442.0,221.0 443.4,224.9 444.8,228.6 446.2,232.1 447.6,235.4 449.0,238.5 450.4,241.5 451.8,244.4 453.2,247.1 454.6,249.7 456.0,252.1 457.4,254.4 458.8,256.6 460.2,258.7 461.6,260.7 463.0,262.6 464.4,264.4 465.8,266.1 467.2,267.7 468.6,269.3 470.0,270.7 471.4,272.1 472.8,273.4 474.2,274.7 475.6,275.9 477.0,277.0 478.4,278.1 479.8,279.1 481.2,280.1 482.6,281.0 484.0,281.9 485.4,282.7 486.8,283.5 488.1,284.2 489.5,285.0 490.9,285.6 492.3,286.3 493.7,286.9 495.1,287.5 496.5,288.0 497.9,288.5 499.3,289.0 500.7,289.5 502.1,290.0 503.5,290.4 504.9,290.8 506.3,291.2 507.7,291.5 509.1,291.9 510.5,292.2 511.9,292.5 513.3,292.8 514.7,293.1 516.1,293.4 517.5,293.6 518.9,293.9 520.3,294.1 521.7,294.3 523.1,294.5 524.5,294.7 525.9,294.9 527.3,295.1 528.7,295.3 530.1,295.4 531.5,295.6 532.9,295.7 534.3,295.9 535.7,296.0 537.1,296.1 538.5,296.2 539.9,296.4 541.3,296.5 542.7,296.6 544.1,296.7 545.5,296.8 546.9,296.8 548.3,296.9 549.7,297.0 551.1,297.1 552.5,297.2 553.9,297.2 555.3,297.3 556.7,297.3 558.1,297.4 559.5,297.5 560.9,297.5 562.3,297.6 563.7,297.6 565.1,297.7 566.5,297.7 567.9,297.7 569.3,297.8 570.7,297.8 572.1,297.8 573.5,297.9 574.9,297.9 576.3,297.9 577.6,298.0 579.0,298.0 580.4,298.0 581.8,298.0 583.2,298.1 584.6,298.1 586.0,298.1 587.4,298.1 588.8,298.1 590.2,298.2 591.6,298.2 593.0,298.2 594.4,298.2 595.8,298.2 597.2,298.2 598.6,298.3 600.0,298.3 601.4,298.3 602.8,298.3 604.2,298.3 605.6,298.3 607.0,298.3 608.4,298.3 609.8,298.3 611.2,298.3 612.6,298.4 614.0,298.4 615.4,298.4 616.8,298.4 618.2,298.4 619.6,298.4 621.0,298.4 622.4,298.4 623.8,298.4 625.2,298.4 626.6,298.4 628.0,298.4 629.4,298.4 630.8,298.4 632.2,298.4 633.6,298.4 635.0,298.4 636.4,298.4 637.8,298.4 639.2,298.4 640.6,298.4 642.0,298.4 643.4,298.5 644.8,298.5 646.2,298.5 647.6,298.5 649.0,298.5 650.4,298.5 651.8,298.5 653.2,298.5 654.6,298.5 656.0,298.5 657.4,298.5 658.8,298.5 660.2,298.5 661.6,298.5 663.0,298.5 664.4,298.5 665.8,298.5 667.1,298.5 668.5,298.5 669.9,298.5 671.3,298.5 672.7,298.5 674.1,298.5 675.5,298.5 676.9,298.5 678.3,298.5 679.7,298.5 681.1,298.5 682.5,298.5 683.9,298.5 685.3,298.5 686.7,298.5 688.1,298.5 689.5,298.5 690.9,298.5 692.3,298.5 693.7,298.5 695.1,298.5 696.5,298.5 697.9,298.5 699.3,298.5 700.7,298.5 702.1,298.5 703.5,298.5 704.9,298.5 706.3,298.5 707.7,298.5 709.1,298.5 710.5,298.5 711.9,298.5 713.3,298.5 714.7,298.5 716.1,298.5 717.5,298.5 718.9,298.5 720.3,298.5 721.7,298.5 723.1,298.5 724.5,298.5 725.9,298.5 727.3,298.5 728.7,298.5 730.1,298.5 731.5,298.5 732.9,298.5 734.3,298.5 735.7,298.5 737.1,298.5 738.5,298.5 739.9,298.5 741.3,298.5 742.7,298.5 744.1,298.5 745.5,298.5 746.9,298.5 748.3,298.5 749.7,298.5 751.1,298.5 752.5,298.5 753.9,298.5 755.3,298.5 756.6,298.5 758.0,298.5 759.4,298.5 760.8,298.5 762.2,298.5 763.6,298.5 765.0,298.5 766.4,298.5 767.8,298.5 769.2,298.5 770.6,298.5 772.0,298.5 773.4,298.5 774.8,298.5 776.2,298.5 777.6,298.5 779.0,298.5 780.4,298.5 781.8,298.5 783.2,298.5 784.6,298.5 786.0,298.5 787.4,298.5 788.8,298.5 790.2,298.5 791.6,298.5 793.0,298.5 794.4,298.5 795.8,298.5 797.2,298.5 798.6,298.5 L798.6,298.5 L442.0,298.5 Z" fill="url(#g553)"/>
  <defs><clipPath id="pc554"><rect x="442" y="221" width="358" height="155"/></clipPath></defs>
  <polyline points="442.0,221.0 443.4,224.9 444.8,228.6 446.2,232.1 447.6,235.4 449.0,238.5 450.4,241.5 451.8,244.4 453.2,247.1 454.6,249.7 456.0,252.1 457.4,254.4 458.8,256.6 460.2,258.7 461.6,260.7 463.0,262.6 464.4,264.4 465.8,266.1 467.2,267.7 468.6,269.3 470.0,270.7 471.4,272.1 472.8,273.4 474.2,274.7 475.6,275.9 477.0,277.0 478.4,278.1 479.8,279.1 481.2,280.1 482.6,281.0 484.0,281.9 485.4,282.7 486.8,283.5 488.1,284.2 489.5,285.0 490.9,285.6 492.3,286.3 493.7,286.9 495.1,287.5 496.5,288.0 497.9,288.5 499.3,289.0 500.7,289.5 502.1,290.0 503.5,290.4 504.9,290.8 506.3,291.2 507.7,291.5 509.1,291.9 510.5,292.2 511.9,292.5 513.3,292.8 514.7,293.1 516.1,293.4 517.5,293.6 518.9,293.9 520.3,294.1 521.7,294.3 523.1,294.5 524.5,294.7 525.9,294.9 527.3,295.1 528.7,295.3 530.1,295.4 531.5,295.6 532.9,295.7 534.3,295.9 535.7,296.0 537.1,296.1 538.5,296.2 539.9,296.4 541.3,296.5 542.7,296.6 544.1,296.7 545.5,296.8 546.9,296.8 548.3,296.9 549.7,297.0 551.1,297.1 552.5,297.2 553.9,297.2 555.3,297.3 556.7,297.3 558.1,297.4 559.5,297.5 560.9,297.5 562.3,297.6 563.7,297.6 565.1,297.7 566.5,297.7 567.9,297.7 569.3,297.8 570.7,297.8 572.1,297.8 573.5,297.9 574.9,297.9 576.3,297.9 577.6,298.0 579.0,298.0 580.4,298.0 581.8,298.0 583.2,298.1 584.6,298.1 586.0,298.1 587.4,298.1 588.8,298.1 590.2,298.2 591.6,298.2 593.0,298.2 594.4,298.2 595.8,298.2 597.2,298.2 598.6,298.3 600.0,298.3 601.4,298.3 602.8,298.3 604.2,298.3 605.6,298.3 607.0,298.3 608.4,298.3 609.8,298.3 611.2,298.3 612.6,298.4 614.0,298.4 615.4,298.4 616.8,298.4 618.2,298.4 619.6,298.4 621.0,298.4 622.4,298.4 623.8,298.4 625.2,298.4 626.6,298.4 628.0,298.4 629.4,298.4 630.8,298.4 632.2,298.4 633.6,298.4 635.0,298.4 636.4,298.4 637.8,298.4 639.2,298.4 640.6,298.4 642.0,298.4 643.4,298.5 644.8,298.5 646.2,298.5 647.6,298.5 649.0,298.5 650.4,298.5 651.8,298.5 653.2,298.5 654.6,298.5 656.0,298.5 657.4,298.5 658.8,298.5 660.2,298.5 661.6,298.5 663.0,298.5 664.4,298.5 665.8,298.5 667.1,298.5 668.5,298.5 669.9,298.5 671.3,298.5 672.7,298.5 674.1,298.5 675.5,298.5 676.9,298.5 678.3,298.5 679.7,298.5 681.1,298.5 682.5,298.5 683.9,298.5 685.3,298.5 686.7,298.5 688.1,298.5 689.5,298.5 690.9,298.5 692.3,298.5 693.7,298.5 695.1,298.5 696.5,298.5 697.9,298.5 699.3,298.5 700.7,298.5 702.1,298.5 703.5,298.5 704.9,298.5 706.3,298.5 707.7,298.5 709.1,298.5 710.5,298.5 711.9,298.5 713.3,298.5 714.7,298.5 716.1,298.5 717.5,298.5 718.9,298.5 720.3,298.5 721.7,298.5 723.1,298.5 724.5,298.5 725.9,298.5 727.3,298.5 728.7,298.5 730.1,298.5 731.5,298.5 732.9,298.5 734.3,298.5 735.7,298.5 737.1,298.5 738.5,298.5 739.9,298.5 741.3,298.5 742.7,298.5 744.1,298.5 745.5,298.5 746.9,298.5 748.3,298.5 749.7,298.5 751.1,298.5 752.5,298.5 753.9,298.5 755.3,298.5 756.6,298.5 758.0,298.5 759.4,298.5 760.8,298.5 762.2,298.5 763.6,298.5 765.0,298.5 766.4,298.5 767.8,298.5 769.2,298.5 770.6,298.5 772.0,298.5 773.4,298.5 774.8,298.5 776.2,298.5 777.6,298.5 779.0,298.5 780.4,298.5 781.8,298.5 783.2,298.5 784.6,298.5 786.0,298.5 787.4,298.5 788.8,298.5 790.2,298.5 791.6,298.5 793.0,298.5 794.4,298.5 795.8,298.5 797.2,298.5 798.6,298.5" fill="none" stroke="#f39c12" stroke-width="1.3" stroke-linejoin="round" clip-path="url(#pc554)"/>
</svg>
