<svg xmlns="http://www.w3.org/2000/svg" viewBox="0 0 820 392" style="font-family:system-ui,-apple-system,sans-serif">
  <text x="800" y="11" text-anchor="end" font-size="11" font-weight="600" fill="#6b7280">Linkwitz-Riley LR4, low band</text>
  <line x1="34" y1="16" x2="34" y2="171" stroke="#d1d5db"/>
  <line x1="34" y1="47.0" x2="392" y2="47.0" stroke="#d1d5db"/>
  <text x="213" y="197" text-anchor="middle" font-size="9" fill="#6b7280">Hz</text>
  <text x="12" y="93.5" text-anchor="middle" font-size="9" fill="#6b7280" transform="rotate(-90 12 93.5)">dB</text>
  <line x1="66.6" y1="16" x2="66.6" y2="171" stroke="#e5e7eb" stroke-width="0.5"/>
  <line x1="85.7" y1="16" x2="85.7" y2="171" stroke="#e5e7eb" stroke-width="0.5"/>
  <line x1="99.3" y1="16" x2="99.3" y2="171" stroke="#e5e7eb" stroke-width="0.5"/>
  <line x1="109.8" y1="16" x2="109.8" y2="171" stroke="#e5e7eb" stroke-width="0.5"/>
  <line x1="118.4" y1="16" x2="118.4" y2="171" stroke="#e5e7eb" stroke-width="0.5"/>
  <line x1="125.7" y1="16" x2="125.7" y2="171" stroke="#e5e7eb" stroke-width="0.5"/>
  <line x1="131.9" y1="16" x2="131.9" y2="171" stroke="#e5e7eb" stroke-width="0.5"/>
  <line x1="137.5" y1="16" x2="137.5" y2="171" stroke="#e5e7eb" stroke-width="0.5"/>
  <line x1="175.1" y1="16" x2="175.1" y2="171" stroke="#e5e7eb" stroke-width="0.5"/>
  <line x1="194.2" y1="16" x2="194.2" y2="171" stroke="#e5e7eb" stroke-width="0.5"/>
  <line x1="207.7" y1="16" x2="207.7" y2="171" stroke="#e5e7eb" stroke-width="0.5"/>
  <line x1="218.3" y1="16" x2="218.3" y2="171" stroke="#e5e7eb" stroke-width="0.5"/>
  <line x1="226.8" y1="16" x2="226.8" y2="171" stroke="#e5e7eb" stroke-width="0.5"/>
  <line x1="234.1" y1="16" x2="234.1" y2="171" stroke="#e5e7eb" stroke-width="0.5"/>
  <line x1="240.4" y1="16" x2="240.4" y2="171" stroke="#e5e7eb" stroke-width="0.5"/>
  <line x1="245.9" y1="16" x2="245.9" y2="171" stroke="#e5e7eb" stroke-width="0.5"/>
  <line x1="283.5" y1="16" x2="283.5" y2="171" stroke="#e5e7eb" stroke-width="0.5"/>
  <line x1="302.6" y1="16" x2="302.6" y2="171" stroke="#e5e7eb" stroke-width="0.5"/>
  <line x1="316.2" y1="16" x2="316.2" y2="171" stroke="#e5e7eb" stroke-width="0.5"/>
  <line x1="326.7" y1="16" x2="326.7" y2="171" stroke="#e5e7eb" stroke-width="0.5"/>
  <line x1="335.3" y1="16" x2="335.3" y2="171" stroke="#e5e7eb" stroke-width="0.5"/>
  <line x1="342.6" y1="16" x2="342.6" y2="171" stroke="#e5e7eb" stroke-width="0.5"/>
  <line x1="348.8" y1="16" x2="348.8" y2="171" stroke="#e5e7eb" stroke-width="0.5"/>
  <line x1="354.4" y1="16" x2="354.4" y2="171" stroke="#e5e7eb" stroke-width="0.5"/>
  <line x1="392.0" y1="16" x2="392.0" y2="171" stroke="#e5e7eb" stroke-width="0.5"/>
  <line x1="142.5" y1="16" x2="142.5" y2="171" stroke="#e5e7eb" stroke-width="0.5"/>
  <text x="142.5" y="183" text-anchor="middle" font-size="8" fill="#6b7280">100</text>
  <line x1="250.9" y1="16" x2="250.9" y2="171" stroke="#e5e7eb" stroke-width="0.5"/>
  <text x="250.9" y="183" text-anchor="middle" font-size="8" fill="#6b7280">1k</text>
  <line x1="359.4" y1="16" x2="359.4" y2="171" stroke="#e5e7eb" stroke-width="0.5"/>
  <text x="359.4" y="183" text-anchor="middle" font-size="8" fill="#6b7280">10k</text>
  <line x1="34" y1="31.5" x2="392" y2="31.5" stroke="#e5e7eb" stroke-width="0.5"/>
  <line x1="34" y1="62.5" x2="392" y2="62.5" stroke="#e5e7eb" stroke-width="0.5"/>
  <line x1="34" y1="16.0" x2="392" y2="16.0" stroke="#e5e7eb" stroke-width="0.5"/>
  <text x="30" y="19.0" text-anchor="end" font-size="8" fill="#6b7280">+20</text>
  <text x="30" y="50.0" text-anchor="end" font-size="8" fill="#6b7280">0</text>
  <line x1="34" y1="78.0" x2="392" y2="78.0" stroke="#e5e7eb" stroke-width="0.5"/>
  <text x="30" y="81.0" text-anchor="end" font-size="8" fill="#6b7280">-20</text>
  <line x1="34" y1="109.0" x2="392" y2="109.0" stroke="#e5e7eb" stroke-width="0.5"/>
  <text x="30" y="112.0" text-anchor="end" font-size="8" fill="#6b7280">-40</text>
  <line x1="34" y1="140.0" x2="392" y2="140.0" stroke="#e5e7eb" stroke-width="0.5"/>
  <text x="30" y="143.0" text-anchor="end" font-size="8" fill="#6b7280">-60</text>
  <line x1="34" y1="171.0" x2="392" y2="171.0" stroke="#e5e7eb" stroke-width="0.5"/>
  <text x="30" y="174.0" text-anchor="end" font-size="8" fill="#6b7280">-80</text>
  <defs><linearGradient id="g230" x1="0" y1="16" x2="0" y2="171" gradientUnits="userSpaceOnUse">
    <stop offset="0%" stop-color="#4a90d9" stop-opacity="0.15"/>
    <stop offset="100%" stop-color="#4a90d9" stop-opacity="0.02"/>
  </linearGradient></defs>
  <path d="M37.5,47.0 37.5,47.0 70.1,47.0 89.2,47.0 102.8,47.0 113.3,47.0 121.9,47.0 129.1,47.0 135.4,47.0 141.0,47.0 145.9,47.0 150.4,47.0 154.5,47.0 158.3,47.0 161.8,47.0 165.0,47.0 168.1,47.0 170.9,47.0 173.6,47.0 176.2,47.0 178.6,47.0 180.9,47.0 183.1,47.0 185.2,47.1 187.2,47.1 189.1,47.1 190.9,47.1 192.7,47.1 194.4,47.1 196.1,47.1 197.7,47.1 199.2,47.2 200.7,47.2 202.2,47.2 203.6,47.2 204.9,47.3 206.3,47.3 207.6,47.3 208.8,47.4 210.0,47.4 211.2,47.5 212.4,47.5 213.5,47.5 214.6,47.6 215.7,47.7 216.8,47.7 217.8,47.8 218.8,47.9 219.8,47.9 220.8,48.0 221.7,48.1 222.7,48.2 223.6,48.3 224.5,48.4 225.4,48.5 226.2,48.6 227.1,48.7 227.9,48.8 228.7,48.9 229.5,49.0 231.1,49.3 232.6,49.6 234.1,49.9 235.5,50.2 236.9,50.6 238.2,50.9 239.6,51.3 240.8,51.8 242.1,52.2 243.3,52.7 244.5,53.1 245.6,53.6 246.7,54.1 247.8,54.7 248.9,55.2 249.9,55.8 251.0,56.4 252.0,57.0 252.9,57.6 253.9,58.2 254.8,58.8 255.8,59.4 256.7,60.1 257.6,60.7 258.4,61.3 259.3,62.0 260.1,62.7 261.0,63.3 261.8,64.0 263.0,65.0 264.1,66.0 265.3,67.0 266.4,68.0 267.5,69.0 268.5,69.9 269.6,70.9 270.6,71.9 271.6,72.9 272.5,73.8 273.5,74.8 274.4,75.7 275.3,76.7 276.2,77.6 277.1,78.5 278.0,79.4 278.8,80.3 279.6,81.2 280.5,82.1 281.3,82.9 282.3,84.1 283.4,85.2 284.4,86.3 285.3,87.4 286.3,88.4 287.3,89.5 288.2,90.5 289.1,91.6 290.0,92.6 290.9,93.5 291.7,94.5 292.6,95.5 293.4,96.4 294.2,97.3 295.0,98.3 296.0,99.4 297.0,100.5 297.9,101.6 298.8,102.6 299.7,103.7 300.6,104.7 301.5,105.7 302.4,106.7 303.2,107.7 304.0,108.7 304.9,109.6 305.8,110.8 306.7,111.9 307.7,112.9 308.6,114.0 309.5,115.1 310.3,116.1 311.2,117.1 312.0,118.1 312.8,119.1 313.7,120.0 314.6,121.2 315.5,122.2 316.4,123.3 317.3,124.4 318.1,125.4 319.0,126.4 319.8,127.4 320.6,128.4 321.4,129.4 322.3,130.5 323.2,131.6 324.1,132.7 324.9,133.7 325.7,134.8 326.6,135.8 327.4,136.8 328.3,137.9 329.1,139.0 330.0,140.1 330.8,141.1 331.7,142.2 332.5,143.2 333.3,144.2 334.2,145.4 335.0,146.5 335.9,147.6 336.7,148.6 337.5,149.7 338.4,150.9 339.2,152.0 340.1,153.1 340.9,154.2 341.7,155.3 342.5,156.4 343.4,157.6 344.2,158.8 345.1,159.9 345.9,161.0 346.7,162.2 347.6,163.4 348.4,164.6 349.2,165.8 350.0,166.9 350.9,168.2 351.7,169.4 352.6,170.6 353.4,171.0 354.2,171.0 355.1,171.0 355.9,171.0 356.7,171.0 357.6,171.0 358.4,171.0 359.2,171.0 360.0,171.0 360.9,171.0 361.7,171.0 362.5,171.0 363.3,171.0 364.2,171.0 365.0,171.0 365.8,171.0 366.6,171.0 367.4,171.0 368.3,171.0 369.1,171.0 369.9,171.0 370.7,171.0 371.5,171.0 372.4,171.0 373.2,171.0 374.0,171.0 374.8,171.0 375.6,171.0 376.4,171.0 377.2,171.0 378.1,171.0 378.9,171.0 379.7,171.0 380.5,171.0 381.3,171.0 382.1,171.0 383.0,171.0 383.8,171.0 384.6,171.0 385.4,171.0 386.2,171.0 387.0,171.0 387.9,171.0 388.7,171.0 389.5,171.0 390.3,171.0 391.1,171.0 391.9,171.0 L391.9,171.0 L37.5,171.0 Z" fill="url(#g230)"/>
  <defs><clipPath id="pc231"><rect x="34" y="16" width="358" height="155"/></clipPath></defs>
  <polyline points="37.5,47.0 70.1,47.0 89.2,47.0 102.8,47.0 113.3,47.0 121.9,47.0 129.1,47.0 135.4,47.0 141.0,47.0 145.9,47.0 150.4,47.0 154.5,47.0 158.3,47.0 161.8,47.0 165.0,47.0 168.1,47.0 170.9,47.0 173.6,47.0 176.2,47.0 178.6,47.0 180.9,47.0 183.1,47.0 185.2,47.1 187.2,47.1 189.1,47.1 190.9,47.1 192.7,47.1 194.4,47.1 196.1,47.1 197.7,47.1 199.2,47.2 200.7,47.2 202.2,47.2 203.6,47.2 204.9,47.3 206.3,47.3 207.6,47.3 208.8,47.4 210.0,47.4 211.2,47.5 212.4,47.5 213.5,47.5 214.6,47.6 215.7,47.7 216.8,47.7 217.8,47.8 218.8,47.9 219.8,47.9 220.8,48.0 221.7,48.1 222.7,48.2 223.6,48.3 224.5,48.4 225.4,48.5 226.2,48.6 227.1,48.7 227.9,48.8 228.7,48.9 229.5,49.0 231.1,49.3 232.6,49.6 234.1,49.9 235.5,50.2 236.9,50.6 238.2,50.9 239.6,51.3 240.8,51.8 242.1,52.2 243.3,52.7 244.5,53.1 245.6,53.6 246.7,54.1 247.8,54.7 248.9,55.2 249.9,55.8 251.0,56.4 252.0,57.0 252.9,57.6 253.9,58.2 254.8,58.8 255.8,59.4 256.7,60.1 257.6,60.7 258.4,61.3 259.3,62.0 260.1,62.7 261.0,63.3 261.8,64.0 263.0,65.0 264.1,66.0 265.3,67.0 266.4,68.0 267.5,69.0 268.5,69.9 269.6,70.9 270.6,71.9 271.6,72.9 272.5,73.8 273.5,74.8 274.4,75.7 275.3,76.7 276.2,77.6 277.1,78.5 278.0,79.4 278.8,80.3 279.6,81.2 280.5,82.1 281.3,82.9 282.3,84.1 283.4,85.2 284.4,86.3 285.3,87.4 286.3,88.4 287.3,89.5 288.2,90.5 289.1,91.6 290.0,92.6 290.9,93.5 291.7,94.5 292.6,95.5 293.4,96.4 294.2,97.3 295.0,98.3 296.0,99.4 297.0,100.5 297.9,101.6 298.8,102.6 299.7,103.7 300.6,104.7 301.5,105.7 302.4,106.7 303.2,107.7 304.0,108.7 304.9,109.6 305.8,110.8 306.7,111.9 307.7,112.9 308.6,114.0 309.5,115.1 310.3,116.1 311.2,117.1 312.0,118.1 312.8,119.1 313.7,120.0 314.6,121.2 315.5,122.2 316.4,123.3 317.3,124.4 318.1,125.4 319.0,126.4 319.8,127.4 320.6,128.4 321.4,129.4 322.3,130.5 323.2,131.6 324.1,132.7 324.9,133.7 325.7,134.8 326.6,135.8 327.4,136.8 328.3,137.9 329.1,139.0 330.0,140.1 330.8,141.1 331.7,142.2 332.5,143.2 333.3,144.2 334.2,145.4 335.0,146.5 335.9,147.6 336.7,148.6 337.5,149.7 338.4,150.9 339.2,152.0 340.1,153.1 340.9,154.2 341.7,155.3 342.5,156.4 343.4,157.6 344.2,158.8 345.1,159.9 345.9,161.0 346.7,162.2 347.6,163.4 348.4,164.6 349.2,165.8 350.0,166.9 350.9,168.2 351.7,169.4 352.6,170.6 353.4,171.9 354.2,173.2 355.1,174.5 355.9,175.7 356.7,177.0 357.6,178.4 358.4,179.7 359.2,181.0 360.0,182.4 360.9,183.8 361.7,185.2 362.5,186.6 363.3,188.1 364.2,189.6 365.0,191.1 365.8,192.6 366.6,194.1 367.4,195.7 368.3,197.3 369.1,199.0 369.9,200.7 370.7,202.4 371.5,204.1 372.4,206.0 373.2,207.8 374.0,209.7 374.8,211.7 375.6,213.8 376.4,215.9 377.2,218.1 378.1,220.4 378.9,222.7 379.7,225.2 380.5,227.8 381.3,230.5 382.1,233.3 383.0,236.3 383.8,239.5 384.6,242.8 385.4,246.5 386.2,250.4 387.0,254.6 387.9,259.2 388.7,264.3 389.5,269.8 390.3,276.1 391.1,283.2 391.9,291.7" fill="none" stroke="#4a90d9" stroke-width="1.5" stroke-linejoin="round" clip-path="url(#pc231)"/>
  <line x1="442" y1="16" x2="442" y2="171" stroke="#d1d5db"/>
  <line x1="442" y1="93.5" x2="800" y2="93.5" stroke="#d1d5db"/>
  <text x="621" y="197" text-anchor="middle" font-size="9" fill="#6b7280">Hz</text>
  <text x="420" y="93.5" text-anchor="middle" font-size="9" fill="#6b7280" transform="rotate(-90 420 93.5)">Phase (deg)</text>
  <line x1="474.6" y1="16" x2="474.6" y2="171" stroke="#e5e7eb" stroke-width="0.5"/>
  <line x1="493.7" y1="16" x2="493.7" y2="171" stroke="#e5e7eb" stroke-width="0.5"/>
  <line x1="507.3" y1="16" x2="507.3" y2="171" stroke="#e5e7eb" stroke-width="0.5"/>
  <line x1="517.8" y1="16" x2="517.8" y2="171" stroke="#e5e7eb" stroke-width="0.5"/>
  <line x1="526.4" y1="16" x2="526.4" y2="171" stroke="#e5e7eb" stroke-width="0.5"/>
  <line x1="533.7" y1="16" x2="533.7" y2="171" stroke="#e5e7eb" stroke-width="0.5"/>
  <line x1="539.9" y1="16" x2="539.9" y2="171" stroke="#e5e7eb" stroke-width="0.5"/>
  <line x1="545.5" y1="16" x2="545.5" y2="171" stroke="#e5e7eb" stroke-width="0.5"/>
  <line x1="583.1" y1="16" x2="583.1" y2="171" stroke="#e5e7eb" stroke-width="0.5"/>
  <line x1="602.2" y1="16" x2="602.2" y2="171" stroke="#e5e7eb" stroke-width="0.5"/>
  <line x1="615.7" y1="16" x2="615.7" y2="171" stroke="#e5e7eb" stroke-width="0.5"/>
  <line x1="626.3" y1="16" x2="626.3" y2="171" stroke="#e5e7eb" stroke-width="0.5"/>
  <line x1="634.8" y1="16" x2="634.8" y2="171" stroke="#e5e7eb" stroke-width="0.5"/>
  <line x1="642.1" y1="16" x2="642.1" y2="171" stroke="#e5e7eb" stroke-width="0.5"/>
  <line x1="648.4" y1="16" x2="648.4" y2="171" stroke="#e5e7eb" stroke-width="0.5"/>
  <line x1="653.9" y1="16" x2="653.9" y2="171" stroke="#e5e7eb" stroke-width="0.5"/>
  <line x1="691.5" y1="16" x2="691.5" y2="171" stroke="#e5e7eb" stroke-width="0.5"/>
  <line x1="710.6" y1="16" x2="710.6" y2="171" stroke="#e5e7eb" stroke-width="0.5"/>
  <line x1="724.2" y1="16" x2="724.2" y2="171" stroke="#e5e7eb" stroke-width="0.5"/>
  <line x1="734.7" y1="16" x2="734.7" y2="171" stroke="#e5e7eb" stroke-width="0.5"/>
  <line x1="743.3" y1="16" x2="743.3" y2="171" stroke="#e5e7eb" stroke-width="0.5"/>
  <line x1="750.6" y1="16" x2="750.6" y2="171" stroke="#e5e7eb" stroke-width="0.5"/>
  <line x1="756.8" y1="16" x2="756.8" y2="171" stroke="#e5e7eb" stroke-width="0.5"/>
  <line x1="762.4" y1="16" x2="762.4" y2="171" stroke="#e5e7eb" stroke-width="0.5"/>
  <line x1="800.0" y1="16" x2="800.0" y2="171" stroke="#e5e7eb" stroke-width="0.5"/>
  <line x1="550.5" y1="16" x2="550.5" y2="171" stroke="#e5e7eb" stroke-width="0.5"/>
  <text x="550.5" y="183" text-anchor="middle" font-size="8" fill="#6b7280">100</text>
  <line x1="658.9" y1="16" x2="658.9" y2="171" stroke="#e5e7eb" stroke-width="0.5"/>
  <text x="658.9" y="183" text-anchor="middle" font-size="8" fill="#6b7280">1k</text>
  <line x1="767.4" y1="16" x2="767.4" y2="171" stroke="#e5e7eb" stroke-width="0.5"/>
  <text x="767.4" y="183" text-anchor="middle" font-size="8" fill="#6b7280">10k</text>
  <line x1="442" y1="54.8" x2="800" y2="54.8" stroke="#e5e7eb" stroke-width="0.5"/>
  <line x1="442" y1="132.3" x2="800" y2="132.3" stroke="#e5e7eb" stroke-width="0.5"/>
  <line x1="442" y1="16.0" x2="800" y2="16.0" stroke="#e5e7eb" stroke-width="0.5"/>
  <text x="438" y="19.0" text-anchor="end" font-size="8" fill="#6b7280">180</text>
  <text x="438" y="96.5" text-anchor="end" font-size="8" fill="#6b7280">0</text>
  <line x1="442" y1="171.0" x2="800" y2="171.0" stroke="#e5e7eb" stroke-width="0.5"/>
  <text x="438" y="174.0" text-anchor="end" font-size="8" fill="#6b7280">-180</text>
  <defs><linearGradient id="g232" x1="0" y1="171" x2="0" y2="93.5" gradientUnits="userSpaceOnUse">
    <stop offset="0%" stop-color="#e74c3c" stop-opacity="0.15"/>
    <stop offset="100%" stop-color="#e74c3c" stop-opacity="0.02"/>
  </linearGradient></defs>
  <path d="M445.5,94.2 445.5,94.2 478.1,95.0 497.2,95.8 510.8,96.5 521.3,97.3 529.9,98.0 537.1,98.8 543.4,99.5 549.0,100.3 553.9,101.0 558.4,101.8 562.5,102.5 566.3,103.3 569.8,104.1 573.0,104.8 576.1,105.6 578.9,106.4 581.6,107.2 584.2,107.9 586.6,108.7 588.9,109.5 591.1,110.3 593.2,111.1 595.2,111.9 597.1,112.7 598.9,113.5 600.7,114.3 602.4,115.1 604.1,115.9 605.7,116.7 607.2,117.6 608.7,118.4 610.2,119.2 611.6,120.0 612.9,120.9 614.3,121.7 615.6,122.6 616.8,123.4 618.0,124.3 619.2,125.1 620.4,126.0 621.5,126.9 622.6,127.7 623.7,128.6 624.8,129.5 625.8,130.4 626.8,131.2 627.8,132.1 628.8,133.0 629.7,133.9 630.7,134.8 631.6,135.7 632.5,136.6 633.4,137.5 634.2,138.4 635.1,139.3 635.9,140.2 636.7,141.1 637.5,142.0 639.1,143.8 640.6,145.7 642.1,147.5 643.5,149.3 644.9,151.1 646.2,152.8 647.6,154.6 648.8,156.4 650.1,158.1 651.3,159.8 652.5,161.5 653.6,163.2 654.7,164.8 655.8,166.4 656.9,168.0 657.9,169.6 659.0,171.0 660.0,171.0 660.9,171.0 661.9,171.0 662.8,171.0 663.8,171.0 664.7,171.0 665.6,171.0 666.4,171.0 667.3,171.0 668.1,171.0 669.0,171.0 669.8,171.0 671.0,171.0 672.1,171.0 673.3,171.0 674.4,171.0 675.5,171.0 676.5,171.0 677.6,171.0 678.6,171.0 679.6,171.0 680.5,171.0 681.5,171.0 682.4,171.0 683.3,171.0 684.2,171.0 685.1,171.0 686.0,171.0 686.8,171.0 687.6,171.0 688.5,171.0 689.3,171.0 690.3,171.0 691.4,171.0 692.4,171.0 693.3,171.0 694.3,171.0 695.3,171.0 696.2,171.0 697.1,171.0 698.0,171.0 698.9,171.0 699.7,171.0 700.6,171.0 701.4,171.0 702.2,171.0 703.0,171.0 704.0,171.0 705.0,171.0 705.9,171.0 706.8,171.0 707.7,171.0 708.6,171.0 709.5,171.0 710.4,171.0 711.2,171.0 712.0,171.0 712.9,171.0 713.8,171.0 714.7,171.0 715.7,171.0 716.6,171.0 717.5,171.0 718.3,171.0 719.2,171.0 720.0,171.0 720.8,171.0 721.7,171.0 722.6,171.0 723.5,171.0 724.4,171.0 725.3,171.0 726.1,171.0 727.0,171.0 727.8,171.0 728.6,171.0 729.4,171.0 730.3,171.0 731.2,171.0 732.1,171.0 732.9,171.0 733.7,171.0 734.6,171.0 735.4,171.0 736.3,171.0 737.1,171.0 738.0,171.0 738.8,171.0 739.7,171.0 740.5,171.0 741.3,171.0 742.2,171.0 743.0,171.0 743.9,171.0 744.7,171.0 745.5,171.0 746.4,171.0 747.2,171.0 748.1,171.0 748.9,171.0 749.7,171.0 750.5,171.0 751.4,171.0 752.2,171.0 753.1,171.0 753.9,171.0 754.7,171.0 755.6,171.0 756.4,171.0 757.2,171.0 758.0,171.0 758.9,171.0 759.7,171.0 760.6,171.0 761.4,171.0 762.2,171.0 763.1,171.0 763.9,171.0 764.7,171.0 765.6,171.0 766.4,171.0 767.2,171.0 768.0,171.0 768.9,171.0 769.7,171.0 770.5,171.0 771.3,171.0 772.2,171.0 773.0,171.0 773.8,171.0 774.6,171.0 775.4,171.0 776.3,171.0 777.1,171.0 777.9,171.0 778.7,171.0 779.5,171.0 780.4,171.0 781.2,171.0 782.0,171.0 782.8,171.0 783.6,171.0 784.4,171.0 785.2,171.0 786.1,171.0 786.9,171.0 787.7,171.0 788.5,171.0 789.3,171.0 790.1,171.0 791.0,171.0 791.8,171.0 792.6,171.0 793.4,171.0 794.2,171.0 795.0,171.0 795.9,171.0 796.7,171.0 797.5,171.0 798.3,171.0 799.1,171.0 799.9,171.0 L799.9,93.5 L445.5,93.5 Z" fill="url(#g232)"/>
  <defs><clipPath id="pc233"><rect x="442" y="16" width="358" height="155"/></clipPath></defs>
  <polyline points="445.5,94.2 478.1,95.0 497.2,95.8 510.8,96.5 521.3,97.3 529.9,98.0 537.1,98.8 543.4,99.5 549.0,100.3 553.9,101.0 558.4,101.8 562.5,102.5 566.3,103.3 569.8,104.1 573.0,104.8 576.1,105.6 578.9,106.4 581.6,107.2 584.2,107.9 586.6,108.7 588.9,109.5 591.1,110.3 593.2,111.1 595.2,111.9 597.1,112.7 598.9,113.5 600.7,114.3 602.4,115.1 604.1,115.9 605.7,116.7 607.2,117.6 608.7,118.4 610.2,119.2 611.6,120.0 612.9,120.9 614.3,121.7 615.6,122.6 616.8,123.4 618.0,124.3 619.2,125.1 620.4,126.0 621.5,126.9 622.6,127.7 623.7,128.6 624.8,129.5 625.8,130.4 626.8,131.2 627.8,132.1 628.8,133.0 629.7,133.9 630.7,134.8 631.6,135.7 632.5,136.6 633.4,137.5 634.2,138.4 635.1,139.3 635.9,140.2 636.7,141.1 637.5,142.0 639.1,143.8 640.6,145.7 642.1,147.5 643.5,149.3 644.9,151.1 646.2,152.8 647.6,154.6 648.8,156.4 650.1,158.1 651.3,159.8 652.5,161.5 653.6,163.2 654.7,164.8 655.8,166.4 656.9,168.0 657.9,169.6 659.0,171.1 660.0,172.6 660.9,174.0 661.9,175.5 662.8,176.8 663.8,178.2 664.7,179.5 665.6,180.8 666.4,182.1 667.3,183.3 668.1,184.5 669.0,185.6 669.8,186.8 671.0,188.4 672.1,190.0 673.3,191.5 674.4,192.9 675.5,194.3 676.5,195.6 677.6,196.9 678.6,198.1 679.6,199.2 680.5,200.3 681.5,201.4 682.4,202.4 683.3,203.4 684.2,204.4 685.1,205.3 686.0,206.2 686.8,207.0 687.6,207.8 688.5,208.6 689.3,209.4 690.3,210.3 691.4,211.2 692.4,212.1 693.3,213.0 694.3,213.8 695.3,214.5 696.2,215.3 697.1,216.0 698.0,216.6 698.9,217.3 699.7,217.9 700.6,218.5 701.4,219.1 702.2,219.6 703.0,220.2 704.0,220.8 705.0,221.4 705.9,222.0 706.8,222.6 707.7,223.1 708.6,223.7 709.5,224.2 710.4,224.6 711.2,225.1 712.0,225.5 712.9,226.0 713.8,226.5 714.7,226.9 715.7,227.4 716.6,227.8 717.5,228.3 718.3,228.7 719.2,229.0 720.0,229.4 720.8,229.8 721.7,230.1 722.6,230.5 723.5,230.9 724.4,231.3 725.3,231.6 726.1,231.9 727.0,232.3 727.8,232.6 728.6,232.9 729.4,233.2 730.3,233.5 731.2,233.8 732.1,234.1 732.9,234.4 733.7,234.6 734.6,234.9 735.4,235.2 736.3,235.4 737.1,235.7 738.0,236.0 738.8,236.2 739.7,236.5 740.5,236.7 741.3,236.9 742.2,237.2 743.0,237.4 743.9,237.6 744.7,237.9 745.5,238.1 746.4,238.3 747.2,238.5 748.1,238.7 748.9,238.9 749.7,239.1 750.5,239.3 751.4,239.5 752.2,239.7 753.1,239.9 753.9,240.1 754.7,240.2 755.6,240.4 756.4,240.6 757.2,240.8 758.0,240.9 758.9,241.1 759.7,241.3 760.6,241.5 761.4,241.6 762.2,241.8 763.1,241.9 763.9,242.1 764.7,242.2 765.6,242.4 766.4,242.5 767.2,242.7 768.0,242.8 768.9,243.0 769.7,243.1 770.5,243.3 771.3,243.4 772.2,243.6 773.0,243.7 773.8,243.8 774.6,244.0 775.4,244.1 776.3,244.2 777.1,244.3 777.9,244.5 778.7,244.6 779.5,244.7 780.4,244.9 781.2,245.0 782.0,245.1 782.8,245.2 783.6,245.3 784.4,245.5 785.2,245.6 786.1,245.7 786.9,245.8 787.7,245.9 788.5,246.1 789.3,246.2 790.1,246.3 791.0,246.4 791.8,246.5 792.6,246.7 793.4,246.8 794.2,246.9 795.0,247.0 795.9,247.1 796.7,247.3 797.5,247.4 798.3,247.5 799.1,247.6 799.9,247.8" fill="none" stroke="#e74c3c" stroke-width="1.5" stroke-linejoin="round" clip-path="url(#pc233)"/>
  <line x1="34" y1="221" x2="34" y2="376" stroke="#d1d5db"/>
  <line x1="34" y1="298.5" x2="392" y2="298.5" stroke="#d1d5db"/>
  <text x="213" y="402" text-anchor="middle" font-size="9" fill="#6b7280">Hz</text>
  <text x="12" y="298.5" text-anchor="middle" font-size="9" fill="#6b7280" transform="rotate(-90 12 298.5)">Group delay</text>
  <line x1="66.6" y1="221" x2="66.6" y2="376" stroke="#e5e7eb" stroke-width="0.5"/>
  <line x1="85.7" y1="221" x2="85.7" y2="376" stroke="#e5e7eb" stroke-width="0.5"/>
  <line x1="99.3" y1="221" x2="99.3" y2="376" stroke="#e5e7eb" stroke-width="0.5"/>
  <line x1="109.8" y1="221" x2="109.8" y2="376" stroke="#e5e7eb" stroke-width="0.5"/>
  <line x1="118.4" y1="221" x2="118.4" y2="376" stroke="#e5e7eb" stroke-width="0.5"/>
  <line x1="125.7" y1="221" x2="125.7" y2="376" stroke="#e5e7eb" stroke-width="0.5"/>
  <line x1="131.9" y1="221" x2="131.9" y2="376" stroke="#e5e7eb" stroke-width="0.5"/>
  <line x1="137.5" y1="221" x2="137.5" y2="376" stroke="#e5e7eb" stroke-width="0.5"/>
  <line x1="175.1" y1="221" x2="175.1" y2="376" stroke="#e5e7eb" stroke-width="0.5"/>
  <line x1="194.2" y1="221" x2="194.2" y2="376" stroke="#e5e7eb" stroke-width="0.5"/>
  <line x1="207.7" y1="221" x2="207.7" y2="376" stroke="#e5e7eb" stroke-width="0.5"/>
  <line x1="218.3" y1="221" x2="218.3" y2="376" stroke="#e5e7eb" stroke-width="0.5"/>
  <line x1="226.8" y1="221" x2="226.8" y2="376" stroke="#e5e7eb" stroke-width="0.5"/>
  <line x1="234.1" y1="221" x2="234.1" y2="376" stroke="#e5e7eb" stroke-width="0.5"/>
  <line x1="240.4" y1="221" x2="240.4" y2="376" stroke="#e5e7eb" stroke-width="0.5"/>
  <line x1="245.9" y1="221" x2="245.9" y2="376" stroke="#e5e7eb" stroke-width="0.5"/>
  <line x1="283.5" y1="221" x2="283.5" y2="376" stroke="#e5e7eb" stroke-width="0.5"/>
  <line x1="302.6" y1="221" x2="302.6" y2="376" stroke="#e5e7eb" stroke-width="0.5"/>
  <line x1="316.2" y1="221" x2="316.2" y2="376" stroke="#e5e7eb" stroke-width="0.5"/>
  <line x1="326.7" y1="221" x2="326.7" y2="376" stroke="#e5e7eb" stroke-width="0.5"/>
  <line x1="335.3" y1="221" x2="335.3" y2="376" stroke="#e5e7eb" stroke-width="0.5"/>
  <line x1="342.6" y1="221" x2="342.6" y2="376" stroke="#e5e7eb" stroke-width="0.5"/>
  <line x1="348.8" y1="221" x2="348.8" y2="376" stroke="#e5e7eb" stroke-width="0.5"/>
  <line x1="354.4" y1="221" x2="354.4" y2="376" stroke="#e5e7eb" stroke-width="0.5"/>
  <line x1="392.0" y1="221" x2="392.0" y2="376" stroke="#e5e7eb" stroke-width="0.5"/>
  <line x1="142.5" y1="221" x2="142.5" y2="376" stroke="#e5e7eb" stroke-width="0.5"/>
  <text x="142.5" y="388" text-anchor="middle" font-size="8" fill="#6b7280">100</text>
  <line x1="250.9" y1="221" x2="250.9" y2="376" stroke="#e5e7eb" stroke-width="0.5"/>
  <text x="250.9" y="388" text-anchor="middle" font-size="8" fill="#6b7280">1k</text>
  <line x1="359.4" y1="221" x2="359.4" y2="376" stroke="#e5e7eb" stroke-width="0.5"/>
  <text x="359.4" y="388" text-anchor="middle" font-size="8" fill="#6b7280">10k</text>
  <line x1="34" y1="344.2" x2="392" y2="344.2" stroke="#e5e7eb" stroke-width="0.5"/>
  <text x="30" y="347.2" text-anchor="end" font-size="8" fill="#6b7280">-2000</text>
  <text x="30" y="301.5" text-anchor="end" font-size="8" fill="#6b7280">0</text>
  <line x1="34" y1="252.8" x2="392" y2="252.8" stroke="#e5e7eb" stroke-width="0.5"/>
  <text x="30" y="255.8" text-anchor="end" font-size="8" fill="#6b7280">2000</text>
  <defs><linearGradient id="g234" x1="0" y1="376" x2="0" y2="298.5" gradientUnits="userSpaceOnUse">
    <stop offset="0%" stop-color="#2ecc71" stop-opacity="0.15"/>
    <stop offset="100%" stop-color="#2ecc71" stop-opacity="0.02"/>
  </linearGradient></defs>
  <path d="M37.5,298.5 37.5,298.5 70.1,298.5 89.2,298.5 102.8,298.5 113.3,298.5 121.9,298.5 129.1,298.5 135.4,298.5 141.0,298.5 145.9,298.5 150.4,298.5 154.5,298.5 158.3,298.5 161.8,298.5 165.0,298.5 168.1,298.5 170.9,298.5 173.6,298.5 176.2,298.5 178.6,298.5 180.9,298.5 183.1,298.5 185.2,298.5 187.2,298.5 189.1,298.5 190.9,298.5 192.7,298.5 194.4,298.5 196.1,298.5 197.7,298.5 199.2,298.5 200.7,298.5 202.2,298.5 203.6,298.5 204.9,298.5 206.3,298.5 207.6,298.5 208.8,298.5 210.0,298.5 211.2,298.5 212.4,298.6 213.5,298.6 214.6,298.6 215.7,298.6 216.8,298.6 217.8,298.6 218.8,298.6 219.8,298.6 220.8,298.6 221.7,298.6 222.7,298.6 223.6,298.6 224.5,298.6 225.4,298.6 226.2,298.6 227.1,298.6 227.9,298.6 228.7,298.6 229.5,298.6 231.1,298.7 232.6,298.7 234.1,298.7 235.5,298.7 236.9,298.7 238.2,298.7 239.6,298.7 240.8,298.7 242.1,298.7 243.3,298.8 244.5,298.8 245.6,298.8 246.7,298.8 247.8,298.8 248.9,298.8 249.9,298.8 251.0,298.8 252.0,298.8 252.9,298.8 253.9,298.8 254.8,298.8 255.8,298.9 256.7,298.9 257.6,298.9 258.4,298.9 259.3,298.9 260.1,298.9 261.0,298.9 261.8,298.9 263.0,298.9 264.1,298.9 265.3,298.9 266.4,298.9 267.5,298.9 268.5,298.9 269.6,298.9 270.6,298.9 271.6,298.9 272.5,298.9 273.5,298.9 274.4,298.8 275.3,298.8 276.2,298.8 277.1,298.8 278.0,298.8 278.8,298.8 279.6,298.8 280.5,298.8 281.3,298.8 282.3,298.8 283.4,298.8 284.4,298.8 285.3,298.8 286.3,298.8 287.3,298.8 288.2,298.8 289.1,298.8 290.0,298.8 290.9,298.8 291.7,298.8 292.6,298.8 293.4,298.8 294.2,298.8 295.0,298.8 296.0,298.7 297.0,298.7 297.9,298.7 298.8,298.7 299.7,298.7 300.6,298.7 301.5,298.7 302.4,298.7 303.2,298.7 304.0,298.7 304.9,298.7 305.8,298.7 306.7,298.7 307.7,298.7 308.6,298.7 309.5,298.7 310.3,298.7 311.2,298.7 312.0,298.7 312.8,298.7 313.7,298.7 314.6,298.7 315.5,298.7 316.4,298.7 317.3,298.7 318.1,298.7 319.0,298.7 319.8,298.7 320.6,298.7 321.4,298.7 322.3,298.7 323.2,298.6 324.1,298.6 324.9,298.6 325.7,298.6 326.6,298.6 327.4,298.6 328.3,298.6 329.1,298.6 330.0,298.6 330.8,298.6 331.7,298.6 332.5,298.6 333.3,298.6 334.2,298.6 335.0,298.6 335.9,298.6 336.7,298.6 337.5,298.6 338.4,298.6 339.2,298.6 340.1,298.6 340.9,298.6 341.7,298.6 342.5,298.6 343.4,298.6 344.2,298.6 345.1,298.6 345.9,298.6 346.7,298.6 347.6,298.6 348.4,298.6 349.2,298.6 350.0,298.6 350.9,298.6 351.7,298.6 352.6,298.6 353.4,298.6 354.2,298.6 355.1,298.6 355.9,298.6 356.7,298.6 357.6,298.6 358.4,298.6 359.2,298.6 360.0,298.6 360.9,298.6 361.7,298.6 362.5,298.6 363.3,298.6 364.2,298.6 365.0,298.6 365.8,298.6 366.6,298.6 367.4,298.6 368.3,298.6 369.1,298.6 369.9,298.6 370.7,298.6 371.5,298.6 372.4,298.6 373.2,298.6 374.0,298.6 374.8,298.6 375.6,298.6 376.4,298.6 377.2,298.6 378.1,298.6 378.9,298.6 379.7,298.6 380.5,298.6 381.3,298.6 382.1,298.6 383.0,298.6 383.8,298.6 384.6,298.6 385.4,298.6 386.2,298.7 387.0,298.7 387.9,298.7 388.7,298.7 389.5,298.7 390.3,298.7 391.1,298.8 391.9,298.8 L391.9,298.5 L37.5,298.5 Z" fill="url(#g234)"/>
  <defs><clipPath id="pc235"><rect x="34" y="221" width="358" height="155"/></clipPath></defs>
  <polyline points="37.5,298.5 70.1,298.5 89.2,298.5 102.8,298.5 113.3,298.5 121.9,298.5 129.1,298.5 135.4,298.5 141.0,298.5 145.9,298.5 150.4,298.5 154.5,298.5 158.3,298.5 161.8,298.5 165.0,298.5 168.1,298.5 170.9,298.5 173.6,298.5 176.2,298.5 178.6,298.5 180.9,298.5 183.1,298.5 185.2,298.5 187.2,298.5 189.1,298.5 190.9,298.5 192.7,298.5 194.4,298.5 196.1,298.5 197.7,298.5 199.2,298.5 200.7,298.5 202.2,298.5 203.6,298.5 204.9,298.5 206.3,298.5 207.6,298.5 208.8,298.5 210.0,298.5 211.2,298.5 212.4,298.6 213.5,298.6 214.6,298.6 215.7,298.6 216.8,298.6 217.8,298.6 218.8,298.6 219.8,298.6 220.8,298.6 221.7,298.6 222.7,298.6 223.6,298.6 224.5,298.6 225.4,298.6 226.2,298.6 227.1,298.6 227.9,298.6 228.7,298.6 229.5,298.6 231.1,298.7 232.6,298.7 234.1,298.7 235.5,298.7 236.9,298.7 238.2,298.7 239.6,298.7 240.8,298.7 242.1,298.7 243.3,298.8 244.5,298.8 245.6,298.8 246.7,298.8 247.8,298.8 248.9,298.8 249.9,298.8 251.0,298.8 252.0,298.8 252.9,298.8 253.9,298.8 254.8,298.8 255.8,298.9 256.7,298.9 257.6,298.9 258.4,298.9 259.3,298.9 260.1,298.9 261.0,298.9 261.8,298.9 263.0,298.9 264.1,298.9 265.3,298.9 266.4,298.9 267.5,298.9 268.5,298.9 269.6,298.9 270.6,298.9 271.6,298.9 272.5,298.9 273.5,298.9 274.4,298.8 275.3,298.8 276.2,298.8 277.1,298.8 278.0,298.8 278.8,298.8 279.6,298.8 280.5,298.8 281.3,298.8 282.3,298.8 283.4,298.8 284.4,298.8 285.3,298.8 286.3,298.8 287.3,298.8 288.2,298.8 289.1,298.8 290.0,298.8 290.9,298.8 291.7,298.8 292.6,298.8 293.4,298.8 294.2,298.8 295.0,298.8 296.0,298.7 297.0,298.7 297.9,298.7 298.8,298.7 299.7,298.7 300.6,298.7 301.5,298.7 302.4,298.7 303.2,298.7 304.0,298.7 304.9,298.7 305.8,298.7 306.7,298.7 307.7,298.7 308.6,298.7 309.5,298.7 310.3,298.7 311.2,298.7 312.0,298.7 312.8,298.7 313.7,298.7 314.6,298.7 315.5,298.7 316.4,298.7 317.3,298.7 318.1,298.7 319.0,298.7 319.8,298.7 320.6,298.7 321.4,298.7 322.3,298.7 323.2,298.6 324.1,298.6 324.9,298.6 325.7,298.6 326.6,298.6 327.4,298.6 328.3,298.6 329.1,298.6 330.0,298.6 330.8,298.6 331.7,298.6 332.5,298.6 333.3,298.6 334.2,298.6 335.0,298.6 335.9,298.6 336.7,298.6 337.5,298.6 338.4,298.6 339.2,298.6 340.1,298.6 340.9,298.6 341.7,298.6 342.5,298.6 343.4,298.6 344.2,298.6 345.1,298.6 345.9,298.6 346.7,298.6 347.6,298.6 348.4,298.6 349.2,298.6 350.0,298.6 350.9,298.6 351.7,298.6 352.6,298.6 353.4,298.6 354.2,298.6 355.1,298.6 355.9,298.6 356.7,298.6 357.6,298.6 358.4,298.6 359.2,298.6 360.0,298.6 360.9,298.6 361.7,298.6 362.5,298.6 363.3,298.6 364.2,298.6 365.0,298.6 365.8,298.6 366.6,298.6 367.4,298.6 368.3,298.6 369.1,298.6 369.9,298.6 370.7,298.6 371.5,298.6 372.4,298.6 373.2,298.6 374.0,298.6 374.8,298.6 375.6,298.6 376.4,298.6 377.2,298.6 378.1,298.6 378.9,298.6 379.7,298.6 380.5,298.6 381.3,298.6 382.1,298.6 383.0,298.6 383.8,298.6 384.6,298.6 385.4,298.6 386.2,298.7 387.0,298.7 387.9,298.7 388.7,298.7 389.5,298.7 390.3,298.7 391.1,298.8 391.9,298.8" fill="none" stroke="#2ecc71" stroke-width="1.5" stroke-linejoin="round" clip-path="url(#pc235)"/>
  <line x1="442" y1="221" x2="442" y2="376" stroke="#d1d5db"/>
  <line x1="442" y1="298.5" x2="800" y2="298.5" stroke="#d1d5db"/>
  <text x="621" y="402" text-anchor="middle" font-size="9" fill="#6b7280">Samples</text>
  <text x="420" y="298.5" text-anchor="middle" font-size="9" fill="#6b7280" transform="rotate(-90 420 298.5)">Impulse response</text>
  <line x1="442.0" y1="221" x2="442.0" y2="376" stroke="#e5e7eb" stroke-width="0.5"/>
  <text x="442.0" y="388" text-anchor="middle" font-size="8" fill="#6b7280">0</text>
  <line x1="531.5" y1="221" x2="531.5" y2="376" stroke="#e5e7eb" stroke-width="0.5"/>
  <text x="531.5" y="388" text-anchor="middle" font-size="8" fill="#6b7280">32</text>
  <line x1="621.0" y1="221" x2="621.0" y2="376" stroke="#e5e7eb" stroke-width="0.5"/>
  <text x="621.0" y="388" text-anchor="middle" font-size="8" fill="#6b7280">64</text>
  <line x1="710.5" y1="221" x2="710.5" y2="376" stroke="#e5e7eb" stroke-width="0.5"/>
  <text x="710.5" y="388" text-anchor="middle" font-size="8" fill="#6b7280">96</text>
  <line x1="800.0" y1="221" x2="800.0" y2="376" stroke="#e5e7eb" stroke-width="0.5"/>
  <text x="800.0" y="388" text-anchor="middle" font-size="8" fill="#6b7280">128</text>
  <line x1="442" y1="363.7" x2="800" y2="363.7" stroke="#e5e7eb" stroke-width="0.5"/>
  <text x="438" y="366.7" text-anchor="end" font-size="8" fill="#6b7280">-0.04</text>
  <text x="438" y="301.5" text-anchor="end" font-size="8" fill="#6b7280">0</text>
  <line x1="442" y1="233.3" x2="800" y2="233.3" stroke="#e5e7eb" stroke-width="0.5"/>
  <text x="438" y="236.3" text-anchor="end" font-size="8" fill="#6b7280">0.04</text>
  <defs><linearGradient id="g236" x1="0" y1="221" x2="0" y2="298.5" gradientUnits="userSpaceOnUse">
    <stop offset="0%" stop-color="#f39c12" stop-opacity="0.15"/>
    <stop offset="100%" stop-color="#f39c12" stop-opacity="0.02"/>
  </linearGradient></defs>
  <defs><linearGradient id="g237" x1="0" y1="376" x2="0" y2="298.5" gradientUnits="userSpaceOnUse">
    <stop offset="0%" stop-color="#f39c12" stop-opacity="0.15"/>
    <stop offset="100%" stop-color="#f39c12" stop-opacity="0.02"/>
  </linearGradient></defs>
  <defs><clipPath id="c238"><rect x="442" y="221" width="358" height="77.5"/></clipPath></defs>
  <defs><clipPath id="c239"><rect x="442" y="298.5" width="358" height="77.5"/></clipPath></defs>
  <path d="M442.0,298.5 442.0,298.5 444.8,298.2 447.6,297.5 450.4,296.0 453.2,293.5 456.0,290.0 458.8,285.6 461.6,280.3 464.4,274.4 467.2,268.1 470.0,261.6 472.8,255.1 475.6,248.8 478.4,242.9 481.2,237.5 484.0,232.7 486.8,228.7 489.5,225.5 492.3,223.1 495.1,221.7 497.9,221.0 500.7,221.2 503.5,222.1 506.3,223.7 509.1,226.0 511.9,228.9 514.7,232.2 517.5,235.9 520.3,239.9 523.1,244.2 525.9,248.6 528.7,253.1 531.5,257.6 534.3,262.0 537.1,266.4 539.9,270.6 542.7,274.6 545.5,278.4 548.3,282.0 551.1,285.3 553.9,288.3 556.7,291.0 559.5,293.5 562.3,295.7 565.1,297.6 567.9,299.2 570.7,300.6 573.5,301.8 576.3,302.7 579.0,303.5 581.8,304.0 584.6,304.4 587.4,304.7 590.2,304.8 593.0,304.8 595.8,304.7 598.6,304.5 601.4,304.3 604.2,304.0 607.0,303.6 609.8,303.3 612.6,302.9 615.4,302.5 618.2,302.1 621.0,301.7 623.8,301.3 626.6,301.0 629.4,300.6 632.2,300.3 635.0,300.0 637.8,299.7 640.6,299.5 643.4,299.2 646.2,299.0 649.0,298.9 651.8,298.7 654.6,298.6 657.4,298.4 660.2,298.4 663.0,298.3 665.8,298.2 668.5,298.2 671.3,298.1 674.1,298.1 676.9,298.1 679.7,298.1 682.5,298.1 685.3,298.1 688.1,298.1 690.9,298.1 693.7,298.2 696.5,298.2 699.3,298.2 702.1,298.2 704.9,298.3 707.7,298.3 710.5,298.3 713.3,298.3 716.1,298.4 718.9,298.4 721.7,298.4 724.5,298.4 727.3,298.4 730.1,298.4 732.9,298.5 735.7,298.5 738.5,298.5 741.3,298.5 744.1,298.5 746.9,298.5 749.7,298.5 752.5,298.5 755.3,298.5 758.0,298.5 760.8,298.5 763.6,298.5 766.4,298.5 769.2,298.5 772.0,298.5 774.8,298.5 777.6,298.5 780.4,298.5 783.2,298.5 786.0,298.5 788.8,298.5 791.6,298.5 794.4,298.5 797.2,298.5 L797.2,298.5 L442.0,298.5 Z" fill="url(#g236)" clip-path="url(#c238)"/>
  <path d="M442.0,298.5 442.0,298.5 444.8,298.2 447.6,297.5 450.4,296.0 453.2,293.5 456.0,290.0 458.8,285.6 461.6,280.3 464.4,274.4 467.2,268.1 470.0,261.6 472.8,255.1 475.6,248.8 478.4,242.9 481.2,237.5 484.0,232.7 486.8,228.7 489.5,225.5 492.3,223.1 495.1,221.7 497.9,221.0 500.7,221.2 503.5,222.1 506.3,223.7 509.1,226.0 511.9,228.9 514.7,232.2 517.5,235.9 520.3,239.9 523.1,244.2 525.9,248.6 528.7,253.1 531.5,257.6 534.3,262.0 537.1,266.4 539.9,270.6 542.7,274.6 545.5,278.4 548.3,282.0 551.1,285.3 553.9,288.3 556.7,291.0 559.5,293.5 562.3,295.7 565.1,297.6 567.9,299.2 570.7,300.6 573.5,301.8 576.3,302.7 579.0,303.5 581.8,304.0 584.6,304.4 587.4,304.7 590.2,304.8 593.0,304.8 595.8,304.7 598.6,304.5 601.4,304.3 604.2,304.0 607.0,303.6 609.8,303.3 612.6,302.9 615.4,302.5 618.2,302.1 621.0,301.7 623.8,301.3 626.6,301.0 629.4,300.6 632.2,300.3 635.0,300.0 637.8,299.7 640.6,299.5 643.4,299.2 646.2,299.0 649.0,298.9 651.8,298.7 654.6,298.6 657.4,298.4 660.2,298.4 663.0,298.3 665.8,298.2 668.5,298.2 671.3,298.1 674.1,298.1 676.9,298.1 679.7,298.1 682.5,298.1 685.3,298.1 688.1,298.1 690.9,298.1 693.7,298.2 696.5,298.2 699.3,298.2 702.1,298.2 704.9,298.3 707.7,298.3 710.5,298.3 713.3,298.3 716.1,298.4 718.9,298.4 721.7,298.4 724.5,298.4 727.3,298.4 730.1,298.4 732.9,298.5 735.7,298.5 738.5,298.5 741.3,298.5 744.1,298.5 746.9,298.5 749.7,298.5 752.5,298.5 755.3,298.5 758.0,298.5 760.8,298.5 763.6,298.5 766.4,298.5 769.2,298.5 772.0,298.5 774.8,298.5 777.6,298.5 780.4,298.5 783.2,298.5 786.0,298.5 788.8,298.5 791.6,298.5 794.4,298.5 797.2,298.5 L797.2,298.5 L442.0,298.5 Z" fill="url(#g237)" clip-path="url(#c239)"/>
  <defs><clipPath id="pc240"><rect x="442" y="221" width="358" height="155"/></clipPath></defs>
  <polyline points="442.0,298.5 444.8,298.2 447.6,297.5 450.4,296.0 453.2,293.5 456.0,290.0 458.8,285.6 461.6,280.3 464.4,274.4 467.2,268.1 470.0,261.6 472.8,255.1 475.6,248.8 478.4,242.9 481.2,237.5 484.0,232.7 486.8,228.7 489.5,225.5 492.3,223.1 495.1,221.7 497.9,221.0 500.7,221.2 503.5,222.1 506.3,223.7 509.1,226.0 511.9,228.9 514.7,232.2 517.5,235.9 520.3,239.9 523.1,244.2 525.9,248.6 528.7,253.1 531.5,257.6 534.3,262.0 537.1,266.4 539.9,270.6 542.7,274.6 545.5,278.4 548.3,282.0 551.1,285.3 553.9,288.3 556.7,291.0 559.5,293.5 562.3,295.7 565.1,297.6 567.9,299.2 570.7,300.6 573.5,301.8 576.3,302.7 579.0,303.5 581.8,304.0 584.6,304.4 587.4,304.7 590.2,304.8 593.0,304.8 595.8,304.7 598.6,304.5 601.4,304.3 604.2,304.0 607.0,303.6 609.8,303.3 612.6,302.9 615.4,302.5 618.2,302.1 621.0,301.7 623.8,301.3 626.6,301.0 629.4,300.6 632.2,300.3 635.0,300.0 637.8,299.7 640.6,299.5 643.4,299.2 646.2,299.0 649.0,298.9 651.8,298.7 654.6,298.6 657.4,298.4 660.2,298.4 663.0,298.3 665.8,298.2 668.5,298.2 671.3,298.1 674.1,298.1 676.9,298.1 679.7,298.1 682.5,298.1 685.3,298.1 688.1,298.1 690.9,298.1 693.7,298.2 696.5,298.2 699.3,298.2 702.1,298.2 704.9,298.3 707.7,298.3 710.5,298.3 713.3,298.3 716.1,298.4 718.9,298.4 721.7,298.4 724.5,298.4 727.3,298.4 730.1,298.4 732.9,298.5 735.7,298.5 738.5,298.5 741.3,298.5 744.1,298.5 746.9,298.5 749.7,298.5 752.5,298.5 755.3,298.5 758.0,298.5 760.8,298.5 763.6,298.5 766.4,298.5 769.2,298.5 772.0,298.5 774.8,298.5 777.6,298.5 780.4,298.5 783.2,298.5 786.0,298.5 788.8,298.5 791.6,298.5 794.4,298.5 797.2,298.5" fill="none" stroke="#f39c12" stroke-width="1.3" stroke-linejoin="round" clip-path="url(#pc240)"/>
</svg>
