<svg xmlns="http://www.w3.org/2000/svg" viewBox="0 0 820 378" style="font-family:system-ui,-apple-system,sans-serif">
  <text x="800" y="11" text-anchor="end" font-size="11" font-weight="600" fill="#6b7280">Linkwitz-Riley LR4, high band</text>
  <line x1="34" y1="16" x2="34" y2="171" stroke="#d1d5db"/>
  <line x1="34" y1="47.0" x2="399" y2="47.0" stroke="#d1d5db"/>
  <text x="216.5" y="197" text-anchor="middle" font-size="9" fill="#6b7280">Hz</text>
  <text x="12" y="93.5" text-anchor="middle" font-size="9" fill="#6b7280" transform="rotate(-90 12 93.5)">dB</text>
  <line x1="67.3" y1="16" x2="67.3" y2="171" stroke="#e5e7eb" stroke-width="0.5"/>
  <line x1="86.8" y1="16" x2="86.8" y2="171" stroke="#e5e7eb" stroke-width="0.5"/>
  <line x1="100.6" y1="16" x2="100.6" y2="171" stroke="#e5e7eb" stroke-width="0.5"/>
  <line x1="111.3" y1="16" x2="111.3" y2="171" stroke="#e5e7eb" stroke-width="0.5"/>
  <line x1="120.0" y1="16" x2="120.0" y2="171" stroke="#e5e7eb" stroke-width="0.5"/>
  <line x1="127.4" y1="16" x2="127.4" y2="171" stroke="#e5e7eb" stroke-width="0.5"/>
  <line x1="133.9" y1="16" x2="133.9" y2="171" stroke="#e5e7eb" stroke-width="0.5"/>
  <line x1="139.5" y1="16" x2="139.5" y2="171" stroke="#e5e7eb" stroke-width="0.5"/>
  <line x1="177.9" y1="16" x2="177.9" y2="171" stroke="#e5e7eb" stroke-width="0.5"/>
  <line x1="197.3" y1="16" x2="197.3" y2="171" stroke="#e5e7eb" stroke-width="0.5"/>
  <line x1="211.1" y1="16" x2="211.1" y2="171" stroke="#e5e7eb" stroke-width="0.5"/>
  <line x1="221.9" y1="16" x2="221.9" y2="171" stroke="#e5e7eb" stroke-width="0.5"/>
  <line x1="230.6" y1="16" x2="230.6" y2="171" stroke="#e5e7eb" stroke-width="0.5"/>
  <line x1="238.0" y1="16" x2="238.0" y2="171" stroke="#e5e7eb" stroke-width="0.5"/>
  <line x1="244.4" y1="16" x2="244.4" y2="171" stroke="#e5e7eb" stroke-width="0.5"/>
  <line x1="250.1" y1="16" x2="250.1" y2="171" stroke="#e5e7eb" stroke-width="0.5"/>
  <line x1="288.4" y1="16" x2="288.4" y2="171" stroke="#e5e7eb" stroke-width="0.5"/>
  <line x1="307.9" y1="16" x2="307.9" y2="171" stroke="#e5e7eb" stroke-width="0.5"/>
  <line x1="321.7" y1="16" x2="321.7" y2="171" stroke="#e5e7eb" stroke-width="0.5"/>
  <line x1="332.4" y1="16" x2="332.4" y2="171" stroke="#e5e7eb" stroke-width="0.5"/>
  <line x1="341.2" y1="16" x2="341.2" y2="171" stroke="#e5e7eb" stroke-width="0.5"/>
  <line x1="348.6" y1="16" x2="348.6" y2="171" stroke="#e5e7eb" stroke-width="0.5"/>
  <line x1="355.0" y1="16" x2="355.0" y2="171" stroke="#e5e7eb" stroke-width="0.5"/>
  <line x1="360.7" y1="16" x2="360.7" y2="171" stroke="#e5e7eb" stroke-width="0.5"/>
  <line x1="399.0" y1="16" x2="399.0" y2="171" stroke="#e5e7eb" stroke-width="0.5"/>
  <line x1="144.6" y1="16" x2="144.6" y2="171" stroke="#e5e7eb" stroke-width="0.5"/>
  <text x="144.6" y="183" text-anchor="middle" font-size="8" fill="#6b7280">100</text>
  <line x1="255.1" y1="16" x2="255.1" y2="171" stroke="#e5e7eb" stroke-width="0.5"/>
  <text x="255.1" y="183" text-anchor="middle" font-size="8" fill="#6b7280">1k</text>
  <line x1="365.7" y1="16" x2="365.7" y2="171" stroke="#e5e7eb" stroke-width="0.5"/>
  <text x="365.7" y="183" text-anchor="middle" font-size="8" fill="#6b7280">10k</text>
  <line x1="34" y1="31.5" x2="399" y2="31.5" stroke="#e5e7eb" stroke-width="0.5"/>
  <line x1="34" y1="62.5" x2="399" y2="62.5" stroke="#e5e7eb" stroke-width="0.5"/>
  <line x1="34" y1="16.0" x2="399" y2="16.0" stroke="#e5e7eb" stroke-width="0.5"/>
  <text x="30" y="19.0" text-anchor="end" font-size="8" fill="#6b7280">+20</text>
  <text x="30" y="50.0" text-anchor="end" font-size="8" fill="#6b7280">0</text>
  <line x1="34" y1="78.0" x2="399" y2="78.0" stroke="#e5e7eb" stroke-width="0.5"/>
  <text x="30" y="81.0" text-anchor="end" font-size="8" fill="#6b7280">-20</text>
  <line x1="34" y1="109.0" x2="399" y2="109.0" stroke="#e5e7eb" stroke-width="0.5"/>
  <text x="30" y="112.0" text-anchor="end" font-size="8" fill="#6b7280">-40</text>
  <line x1="34" y1="140.0" x2="399" y2="140.0" stroke="#e5e7eb" stroke-width="0.5"/>
  <text x="30" y="143.0" text-anchor="end" font-size="8" fill="#6b7280">-60</text>
  <line x1="34" y1="171.0" x2="399" y2="171.0" stroke="#e5e7eb" stroke-width="0.5"/>
  <text x="30" y="174.0" text-anchor="end" font-size="8" fill="#6b7280">-80</text>
  <defs><linearGradient id="g302" x1="0" y1="16" x2="0" y2="171" gradientUnits="userSpaceOnUse">
    <stop offset="0%" stop-color="#4a90d9" stop-opacity="0.15"/>
    <stop offset="100%" stop-color="#4a90d9" stop-opacity="0.02"/>
  </linearGradient></defs>
  <path d="M37.5,171.0 37.5,171.0 70.8,171.0 90.3,171.0 104.1,171.0 114.8,171.0 123.6,171.0 131.0,171.0 137.4,171.0 143.1,171.0 148.1,167.1 152.7,162.0 156.9,157.3 160.7,153.0 164.3,149.0 167.6,145.3 170.7,141.8 173.6,138.5 176.3,135.5 178.9,132.6 181.4,129.8 183.7,127.2 186.0,124.7 188.1,122.3 190.2,120.0 192.1,117.8 194.0,115.7 195.8,113.7 197.6,111.8 199.2,109.9 200.9,108.1 202.4,106.3 204.0,104.7 205.5,103.0 206.9,101.4 208.3,99.9 209.6,98.4 210.9,97.0 212.2,95.6 213.5,94.2 214.7,92.9 215.9,91.6 217.0,90.4 218.2,89.1 219.3,88.0 220.3,86.8 221.4,85.7 222.4,84.6 223.4,83.5 224.4,82.5 225.4,81.5 226.4,80.5 227.3,79.6 228.2,78.6 229.1,77.7 230.0,76.8 230.8,76.0 231.7,75.1 232.5,74.3 233.4,73.5 234.2,72.7 235.7,71.2 237.3,69.8 238.7,68.5 240.2,67.2 241.6,66.0 242.9,64.9 244.2,63.8 245.5,62.8 246.8,61.9 248.0,61.0 249.2,60.1 250.3,59.3 251.4,58.6 252.6,57.9 253.6,57.2 254.7,56.6 255.7,56.0 256.7,55.5 257.7,55.0 258.7,54.5 259.6,54.0 260.6,53.6 261.5,53.2 262.4,52.9 263.3,52.5 264.1,52.2 265.0,51.9 265.8,51.6 266.6,51.4 267.4,51.1 268.6,50.8 269.8,50.5 270.9,50.2 272.0,49.9 273.1,49.7 274.2,49.5 275.2,49.3 276.2,49.1 277.2,49.0 278.2,48.8 279.1,48.7 280.0,48.6 281.0,48.5 281.9,48.4 282.7,48.3 283.6,48.2 284.5,48.1 285.3,48.0 286.1,48.0 286.9,47.9 288.0,47.8 289.0,47.8 290.0,47.7 291.0,47.6 292.0,47.6 292.9,47.6 293.9,47.5 294.8,47.5 295.7,47.4 296.6,47.4 297.4,47.4 298.3,47.4 299.1,47.3 299.9,47.3 300.7,47.3 301.7,47.3 302.7,47.2 303.6,47.2 304.6,47.2 305.5,47.2 306.4,47.2 307.3,47.2 308.1,47.2 309.0,47.1 309.8,47.1 310.6,47.1 311.4,47.1 312.4,47.1 313.3,47.1 314.2,47.1 315.1,47.1 316.0,47.1 316.9,47.1 317.7,47.1 318.6,47.1 319.4,47.1 320.2,47.1 321.1,47.0 322.0,47.0 322.9,47.0 323.8,47.0 324.7,47.0 325.5,47.0 326.3,47.0 327.1,47.0 327.9,47.0 328.8,47.0 329.7,47.0 330.6,47.0 331.4,47.0 332.3,47.0 333.1,47.0 333.9,47.0 334.8,47.0 335.7,47.0 336.5,47.0 337.4,47.0 338.2,47.0 339.0,47.0 339.8,47.0 340.7,47.0 341.6,47.0 342.4,47.0 343.3,47.0 344.1,47.0 344.9,47.0 345.8,47.0 346.6,47.0 347.5,47.0 348.3,47.0 349.1,47.0 350.0,47.0 350.8,47.0 351.7,47.0 352.5,47.0 353.3,47.0 354.1,47.0 355.0,47.0 355.8,47.0 356.6,47.0 357.5,47.0 358.3,47.0 359.1,47.0 360.0,47.0 360.8,47.0 361.6,47.0 362.5,47.0 363.3,47.0 364.1,47.0 364.9,47.0 365.8,47.0 366.6,47.0 367.4,47.0 368.2,47.0 369.1,47.0 369.9,47.0 370.7,47.0 371.6,47.0 372.4,47.0 373.2,47.0 374.0,47.0 374.8,47.0 375.6,47.0 376.5,47.0 377.3,47.0 378.1,47.0 378.9,47.0 379.7,47.0 380.5,47.0 381.4,47.0 382.2,47.0 383.0,47.0 383.8,47.0 384.6,47.0 385.5,47.0 386.3,47.0 387.1,47.0 387.9,47.0 388.7,47.0 389.5,47.0 390.3,47.0 391.2,47.0 392.0,47.0 392.8,47.0 393.6,47.0 394.4,47.0 395.2,47.0 396.0,47.0 396.8,47.0 397.6,47.0 398.5,47.0 L398.5,171.0 L37.5,171.0 Z" fill="url(#g302)"/>
  <defs><clipPath id="pc303"><rect x="34" y="16" width="365" height="155"/></clipPath></defs>
  <polyline points="37.5,291.1 70.8,253.8 90.3,232.0 104.1,216.5 114.8,204.4 123.6,194.6 131.0,186.3 137.4,179.1 143.1,172.8 148.1,167.1 152.7,162.0 156.9,157.3 160.7,153.0 164.3,149.0 167.6,145.3 170.7,141.8 173.6,138.5 176.3,135.5 178.9,132.6 181.4,129.8 183.7,127.2 186.0,124.7 188.1,122.3 190.2,120.0 192.1,117.8 194.0,115.7 195.8,113.7 197.6,111.8 199.2,109.9 200.9,108.1 202.4,106.3 204.0,104.7 205.5,103.0 206.9,101.4 208.3,99.9 209.6,98.4 210.9,97.0 212.2,95.6 213.5,94.2 214.7,92.9 215.9,91.6 217.0,90.4 218.2,89.1 219.3,88.0 220.3,86.8 221.4,85.7 222.4,84.6 223.4,83.5 224.4,82.5 225.4,81.5 226.4,80.5 227.3,79.6 228.2,78.6 229.1,77.7 230.0,76.8 230.8,76.0 231.7,75.1 232.5,74.3 233.4,73.5 234.2,72.7 235.7,71.2 237.3,69.8 238.7,68.5 240.2,67.2 241.6,66.0 242.9,64.9 244.2,63.8 245.5,62.8 246.8,61.9 248.0,61.0 249.2,60.1 250.3,59.3 251.4,58.6 252.6,57.9 253.6,57.2 254.7,56.6 255.7,56.0 256.7,55.5 257.7,55.0 258.7,54.5 259.6,54.0 260.6,53.6 261.5,53.2 262.4,52.9 263.3,52.5 264.1,52.2 265.0,51.9 265.8,51.6 266.6,51.4 267.4,51.1 268.6,50.8 269.8,50.5 270.9,50.2 272.0,49.9 273.1,49.7 274.2,49.5 275.2,49.3 276.2,49.1 277.2,49.0 278.2,48.8 279.1,48.7 280.0,48.6 281.0,48.5 281.9,48.4 282.7,48.3 283.6,48.2 284.5,48.1 285.3,48.0 286.1,48.0 286.9,47.9 288.0,47.8 289.0,47.8 290.0,47.7 291.0,47.6 292.0,47.6 292.9,47.6 293.9,47.5 294.8,47.5 295.7,47.4 296.6,47.4 297.4,47.4 298.3,47.4 299.1,47.3 299.9,47.3 300.7,47.3 301.7,47.3 302.7,47.2 303.6,47.2 304.6,47.2 305.5,47.2 306.4,47.2 307.3,47.2 308.1,47.2 309.0,47.1 309.8,47.1 310.6,47.1 311.4,47.1 312.4,47.1 313.3,47.1 314.2,47.1 315.1,47.1 316.0,47.1 316.9,47.1 317.7,47.1 318.6,47.1 319.4,47.1 320.2,47.1 321.1,47.0 322.0,47.0 322.9,47.0 323.8,47.0 324.7,47.0 325.5,47.0 326.3,47.0 327.1,47.0 327.9,47.0 328.8,47.0 329.7,47.0 330.6,47.0 331.4,47.0 332.3,47.0 333.1,47.0 333.9,47.0 334.8,47.0 335.7,47.0 336.5,47.0 337.4,47.0 338.2,47.0 339.0,47.0 339.8,47.0 340.7,47.0 341.6,47.0 342.4,47.0 343.3,47.0 344.1,47.0 344.9,47.0 345.8,47.0 346.6,47.0 347.5,47.0 348.3,47.0 349.1,47.0 350.0,47.0 350.8,47.0 351.7,47.0 352.5,47.0 353.3,47.0 354.1,47.0 355.0,47.0 355.8,47.0 356.6,47.0 357.5,47.0 358.3,47.0 359.1,47.0 360.0,47.0 360.8,47.0 361.6,47.0 362.5,47.0 363.3,47.0 364.1,47.0 364.9,47.0 365.8,47.0 366.6,47.0 367.4,47.0 368.2,47.0 369.1,47.0 369.9,47.0 370.7,47.0 371.6,47.0 372.4,47.0 373.2,47.0 374.0,47.0 374.8,47.0 375.6,47.0 376.5,47.0 377.3,47.0 378.1,47.0 378.9,47.0 379.7,47.0 380.5,47.0 381.4,47.0 382.2,47.0 383.0,47.0 383.8,47.0 384.6,47.0 385.5,47.0 386.3,47.0 387.1,47.0 387.9,47.0 388.7,47.0 389.5,47.0 390.3,47.0 391.2,47.0 392.0,47.0 392.8,47.0 393.6,47.0 394.4,47.0 395.2,47.0 396.0,47.0 396.8,47.0 397.6,47.0 398.5,47.0" fill="none" stroke="#4a90d9" stroke-width="1.5" stroke-linejoin="round" clip-path="url(#pc303)"/>
  <line x1="435" y1="16" x2="435" y2="171" stroke="#d1d5db"/>
  <line x1="435" y1="93.5" x2="800" y2="93.5" stroke="#d1d5db"/>
  <text x="617.5" y="197" text-anchor="middle" font-size="9" fill="#6b7280">Hz</text>
  <text x="413" y="93.5" text-anchor="middle" font-size="9" fill="#6b7280" transform="rotate(-90 413 93.5)">Phase (deg)</text>
  <line x1="468.3" y1="16" x2="468.3" y2="171" stroke="#e5e7eb" stroke-width="0.5"/>
  <line x1="487.8" y1="16" x2="487.8" y2="171" stroke="#e5e7eb" stroke-width="0.5"/>
  <line x1="501.6" y1="16" x2="501.6" y2="171" stroke="#e5e7eb" stroke-width="0.5"/>
  <line x1="512.3" y1="16" x2="512.3" y2="171" stroke="#e5e7eb" stroke-width="0.5"/>
  <line x1="521.0" y1="16" x2="521.0" y2="171" stroke="#e5e7eb" stroke-width="0.5"/>
  <line x1="528.4" y1="16" x2="528.4" y2="171" stroke="#e5e7eb" stroke-width="0.5"/>
  <line x1="534.9" y1="16" x2="534.9" y2="171" stroke="#e5e7eb" stroke-width="0.5"/>
  <line x1="540.5" y1="16" x2="540.5" y2="171" stroke="#e5e7eb" stroke-width="0.5"/>
  <line x1="578.9" y1="16" x2="578.9" y2="171" stroke="#e5e7eb" stroke-width="0.5"/>
  <line x1="598.3" y1="16" x2="598.3" y2="171" stroke="#e5e7eb" stroke-width="0.5"/>
  <line x1="612.1" y1="16" x2="612.1" y2="171" stroke="#e5e7eb" stroke-width="0.5"/>
  <line x1="622.9" y1="16" x2="622.9" y2="171" stroke="#e5e7eb" stroke-width="0.5"/>
  <line x1="631.6" y1="16" x2="631.6" y2="171" stroke="#e5e7eb" stroke-width="0.5"/>
  <line x1="639.0" y1="16" x2="639.0" y2="171" stroke="#e5e7eb" stroke-width="0.5"/>
  <line x1="645.4" y1="16" x2="645.4" y2="171" stroke="#e5e7eb" stroke-width="0.5"/>
  <line x1="651.1" y1="16" x2="651.1" y2="171" stroke="#e5e7eb" stroke-width="0.5"/>
  <line x1="689.4" y1="16" x2="689.4" y2="171" stroke="#e5e7eb" stroke-width="0.5"/>
  <line x1="708.9" y1="16" x2="708.9" y2="171" stroke="#e5e7eb" stroke-width="0.5"/>
  <line x1="722.7" y1="16" x2="722.7" y2="171" stroke="#e5e7eb" stroke-width="0.5"/>
  <line x1="733.4" y1="16" x2="733.4" y2="171" stroke="#e5e7eb" stroke-width="0.5"/>
  <line x1="742.2" y1="16" x2="742.2" y2="171" stroke="#e5e7eb" stroke-width="0.5"/>
  <line x1="749.6" y1="16" x2="749.6" y2="171" stroke="#e5e7eb" stroke-width="0.5"/>
  <line x1="756.0" y1="16" x2="756.0" y2="171" stroke="#e5e7eb" stroke-width="0.5"/>
  <line x1="761.7" y1="16" x2="761.7" y2="171" stroke="#e5e7eb" stroke-width="0.5"/>
  <line x1="800.0" y1="16" x2="800.0" y2="171" stroke="#e5e7eb" stroke-width="0.5"/>
  <line x1="545.6" y1="16" x2="545.6" y2="171" stroke="#e5e7eb" stroke-width="0.5"/>
  <text x="545.6" y="183" text-anchor="middle" font-size="8" fill="#6b7280">100</text>
  <line x1="656.1" y1="16" x2="656.1" y2="171" stroke="#e5e7eb" stroke-width="0.5"/>
  <text x="656.1" y="183" text-anchor="middle" font-size="8" fill="#6b7280">1k</text>
  <line x1="766.7" y1="16" x2="766.7" y2="171" stroke="#e5e7eb" stroke-width="0.5"/>
  <text x="766.7" y="183" text-anchor="middle" font-size="8" fill="#6b7280">10k</text>
  <line x1="435" y1="58.6" x2="800" y2="58.6" stroke="#e5e7eb" stroke-width="0.5"/>
  <line x1="435" y1="128.4" x2="800" y2="128.4" stroke="#e5e7eb" stroke-width="0.5"/>
  <line x1="435" y1="23.8" x2="800" y2="23.8" stroke="#e5e7eb" stroke-width="0.5"/>
  <text x="431" y="26.8" text-anchor="end" font-size="8" fill="#6b7280">180</text>
  <text x="431" y="96.5" text-anchor="end" font-size="8" fill="#6b7280">0</text>
  <line x1="435" y1="163.3" x2="800" y2="163.3" stroke="#e5e7eb" stroke-width="0.5"/>
  <text x="431" y="166.3" text-anchor="end" font-size="8" fill="#6b7280">-180</text>
  <defs><linearGradient id="g304" x1="0" y1="16" x2="0" y2="93.5" gradientUnits="userSpaceOnUse">
    <stop offset="0%" stop-color="#e74c3c" stop-opacity="0.15"/>
    <stop offset="100%" stop-color="#e74c3c" stop-opacity="0.02"/>
  </linearGradient></defs>
  <path d="M438.5,16.0 438.5,16.0 471.8,16.0 491.3,16.0 505.1,16.0 515.8,16.0 524.6,16.0 532.0,16.0 538.4,16.0 544.1,16.0 549.1,16.0 553.7,16.0 557.9,16.0 561.7,16.0 565.3,16.0 568.6,16.0 571.7,16.0 574.6,16.0 577.3,16.0 579.9,16.0 582.4,16.0 584.7,16.0 587.0,16.0 589.1,16.0 591.2,16.0 593.1,16.0 595.0,16.0 596.8,16.0 598.6,16.0 600.2,16.0 601.9,16.0 603.4,16.0 605.0,16.0 606.5,16.0 607.9,16.0 609.3,16.0 610.6,16.0 611.9,16.0 613.2,16.0 614.5,16.0 615.7,16.0 616.9,16.0 618.0,16.0 619.2,16.0 620.3,16.0 621.3,16.0 622.4,16.0 623.4,16.0 624.4,16.0 625.4,16.0 626.4,16.0 627.4,16.0 628.3,16.0 629.2,16.0 630.1,16.0 631.0,16.0 631.8,16.0 632.7,16.0 633.5,16.0 634.4,16.0 635.2,16.0 636.7,16.0 638.3,16.0 639.7,16.0 641.2,16.0 642.6,16.0 643.9,16.0 645.2,16.0 646.5,16.0 647.8,16.0 649.0,16.0 650.2,16.0 651.3,17.5 652.4,18.9 653.6,20.4 654.6,21.8 655.7,23.2 656.7,24.5 657.7,25.8 658.7,27.1 659.7,28.4 660.6,29.6 661.6,30.8 662.5,32.0 663.4,33.2 664.3,34.3 665.1,35.4 666.0,36.4 666.8,37.4 667.6,38.4 668.4,39.4 669.6,40.8 670.8,42.2 671.9,43.5 673.0,44.7 674.1,45.9 675.2,47.0 676.2,48.1 677.2,49.2 678.2,50.2 679.2,51.1 680.1,52.0 681.0,52.9 682.0,53.8 682.9,54.6 683.7,55.4 684.6,56.2 685.5,56.9 686.3,57.6 687.1,58.3 687.9,58.9 689.0,59.8 690.0,60.6 691.0,61.3 692.0,62.1 693.0,62.8 693.9,63.4 694.9,64.1 695.8,64.7 696.7,65.3 697.6,65.8 698.4,66.4 699.3,66.9 700.1,67.4 700.9,67.9 701.7,68.4 702.7,68.9 703.7,69.5 704.6,70.0 705.6,70.5 706.5,71.0 707.4,71.4 708.3,71.9 709.1,72.3 710.0,72.7 710.8,73.1 711.6,73.4 712.4,73.8 713.4,74.2 714.3,74.6 715.2,75.0 716.1,75.4 717.0,75.8 717.9,76.1 718.7,76.4 719.6,76.8 720.4,77.1 721.2,77.4 722.1,77.7 723.0,78.0 723.9,78.3 724.8,78.6 725.7,78.9 726.5,79.2 727.3,79.5 728.1,79.7 728.9,80.0 729.8,80.3 730.7,80.5 731.6,80.8 732.4,81.0 733.3,81.3 734.1,81.5 734.9,81.7 735.8,82.0 736.7,82.2 737.5,82.4 738.4,82.6 739.2,82.9 740.0,83.1 740.8,83.3 741.7,83.5 742.6,83.7 743.4,83.9 744.3,84.1 745.1,84.3 745.9,84.4 746.8,84.6 747.6,84.8 748.5,85.0 749.3,85.2 750.1,85.3 751.0,85.5 751.8,85.7 752.7,85.8 753.5,86.0 754.3,86.2 755.1,86.3 756.0,86.5 756.8,86.6 757.6,86.8 758.5,86.9 759.3,87.1 760.1,87.2 761.0,87.4 761.8,87.5 762.6,87.6 763.5,87.8 764.3,87.9 765.1,88.0 765.9,88.2 766.8,88.3 767.6,88.4 768.4,88.6 769.2,88.7 770.1,88.8 770.9,88.9 771.7,89.1 772.6,89.2 773.4,89.3 774.2,89.4 775.0,89.5 775.8,89.6 776.6,89.8 777.5,89.9 778.3,90.0 779.1,90.1 779.9,90.2 780.7,90.3 781.5,90.4 782.4,90.5 783.2,90.6 784.0,90.8 784.8,90.9 785.6,91.0 786.5,91.1 787.3,91.2 788.1,91.3 788.9,91.4 789.7,91.5 790.5,91.6 791.3,91.7 792.2,91.8 793.0,91.9 793.8,92.0 794.6,92.1 795.4,92.2 796.2,92.3 797.0,92.4 797.8,92.6 798.6,92.7 799.5,92.8 L799.5,93.5 L438.5,93.5 Z" fill="url(#g304)"/>
  <defs><clipPath id="pc305"><rect x="435" y="16" width="365" height="155"/></clipPath></defs>
  <polyline points="438.5,-45.3 471.8,-44.6 491.3,-44.0 505.1,-43.3 515.8,-42.6 524.6,-41.9 532.0,-41.3 538.4,-40.6 544.1,-39.9 549.1,-39.2 553.7,-38.5 557.9,-37.9 561.7,-37.2 565.3,-36.5 568.6,-35.8 571.7,-35.1 574.6,-34.4 577.3,-33.7 579.9,-33.0 582.4,-32.3 584.7,-31.6 587.0,-30.9 589.1,-30.2 591.2,-29.5 593.1,-28.7 595.0,-28.0 596.8,-27.3 598.6,-26.6 600.2,-25.8 601.9,-25.1 603.4,-24.4 605.0,-23.6 606.5,-22.9 607.9,-22.1 609.3,-21.4 610.6,-20.6 611.9,-19.8 613.2,-19.1 614.5,-18.3 615.7,-17.5 616.9,-16.8 618.0,-16.0 619.2,-15.2 620.3,-14.4 621.3,-13.6 622.4,-12.8 623.4,-12.0 624.4,-11.2 625.4,-10.4 626.4,-9.6 627.4,-8.8 628.3,-8.0 629.2,-7.2 630.1,-6.4 631.0,-5.6 631.8,-4.8 632.7,-4.0 633.5,-3.1 634.4,-2.3 635.2,-1.5 636.7,0.1 638.3,1.8 639.7,3.4 641.2,5.0 642.6,6.6 643.9,8.2 645.2,9.8 646.5,11.4 647.8,12.9 649.0,14.5 650.2,16.0 651.3,17.5 652.4,18.9 653.6,20.4 654.6,21.8 655.7,23.2 656.7,24.5 657.7,25.8 658.7,27.1 659.7,28.4 660.6,29.6 661.6,30.8 662.5,32.0 663.4,33.2 664.3,34.3 665.1,35.4 666.0,36.4 666.8,37.4 667.6,38.4 668.4,39.4 669.6,40.8 670.8,42.2 671.9,43.5 673.0,44.7 674.1,45.9 675.2,47.0 676.2,48.1 677.2,49.2 678.2,50.2 679.2,51.1 680.1,52.0 681.0,52.9 682.0,53.8 682.9,54.6 683.7,55.4 684.6,56.2 685.5,56.9 686.3,57.6 687.1,58.3 687.9,58.9 689.0,59.8 690.0,60.6 691.0,61.3 692.0,62.1 693.0,62.8 693.9,63.4 694.9,64.1 695.8,64.7 696.7,65.3 697.6,65.8 698.4,66.4 699.3,66.9 700.1,67.4 700.9,67.9 701.7,68.4 702.7,68.9 703.7,69.5 704.6,70.0 705.6,70.5 706.5,71.0 707.4,71.4 708.3,71.9 709.1,72.3 710.0,72.7 710.8,73.1 711.6,73.4 712.4,73.8 713.4,74.2 714.3,74.6 715.2,75.0 716.1,75.4 717.0,75.8 717.9,76.1 718.7,76.4 719.6,76.8 720.4,77.1 721.2,77.4 722.1,77.7 723.0,78.0 723.9,78.3 724.8,78.6 725.7,78.9 726.5,79.2 727.3,79.5 728.1,79.7 728.9,80.0 729.8,80.3 730.7,80.5 731.6,80.8 732.4,81.0 733.3,81.3 734.1,81.5 734.9,81.7 735.8,82.0 736.7,82.2 737.5,82.4 738.4,82.6 739.2,82.9 740.0,83.1 740.8,83.3 741.7,83.5 742.6,83.7 743.4,83.9 744.3,84.1 745.1,84.3 745.9,84.4 746.8,84.6 747.6,84.8 748.5,85.0 749.3,85.2 750.1,85.3 751.0,85.5 751.8,85.7 752.7,85.8 753.5,86.0 754.3,86.2 755.1,86.3 756.0,86.5 756.8,86.6 757.6,86.8 758.5,86.9 759.3,87.1 760.1,87.2 761.0,87.4 761.8,87.5 762.6,87.6 763.5,87.8 764.3,87.9 765.1,88.0 765.9,88.2 766.8,88.3 767.6,88.4 768.4,88.6 769.2,88.7 770.1,88.8 770.9,88.9 771.7,89.1 772.6,89.2 773.4,89.3 774.2,89.4 775.0,89.5 775.8,89.6 776.6,89.8 777.5,89.9 778.3,90.0 779.1,90.1 779.9,90.2 780.7,90.3 781.5,90.4 782.4,90.5 783.2,90.6 784.0,90.8 784.8,90.9 785.6,91.0 786.5,91.1 787.3,91.2 788.1,91.3 788.9,91.4 789.7,91.5 790.5,91.6 791.3,91.7 792.2,91.8 793.0,91.9 793.8,92.0 794.6,92.1 795.4,92.2 796.2,92.3 797.0,92.4 797.8,92.6 798.6,92.7 799.5,92.8" fill="none" stroke="#e74c3c" stroke-width="1.5" stroke-linejoin="round" clip-path="url(#pc305)"/>
  <line x1="34" y1="207" x2="34" y2="362" stroke="#d1d5db"/>
  <line x1="34" y1="284.5" x2="399" y2="284.5" stroke="#d1d5db"/>
  <text x="216.5" y="388" text-anchor="middle" font-size="9" fill="#6b7280">Hz</text>
  <text x="12" y="284.5" text-anchor="middle" font-size="9" fill="#6b7280" transform="rotate(-90 12 284.5)">Group delay</text>
  <line x1="67.3" y1="207" x2="67.3" y2="362" stroke="#e5e7eb" stroke-width="0.5"/>
  <line x1="86.8" y1="207" x2="86.8" y2="362" stroke="#e5e7eb" stroke-width="0.5"/>
  <line x1="100.6" y1="207" x2="100.6" y2="362" stroke="#e5e7eb" stroke-width="0.5"/>
  <line x1="111.3" y1="207" x2="111.3" y2="362" stroke="#e5e7eb" stroke-width="0.5"/>
  <line x1="120.0" y1="207" x2="120.0" y2="362" stroke="#e5e7eb" stroke-width="0.5"/>
  <line x1="127.4" y1="207" x2="127.4" y2="362" stroke="#e5e7eb" stroke-width="0.5"/>
  <line x1="133.9" y1="207" x2="133.9" y2="362" stroke="#e5e7eb" stroke-width="0.5"/>
  <line x1="139.5" y1="207" x2="139.5" y2="362" stroke="#e5e7eb" stroke-width="0.5"/>
  <line x1="177.9" y1="207" x2="177.9" y2="362" stroke="#e5e7eb" stroke-width="0.5"/>
  <line x1="197.3" y1="207" x2="197.3" y2="362" stroke="#e5e7eb" stroke-width="0.5"/>
  <line x1="211.1" y1="207" x2="211.1" y2="362" stroke="#e5e7eb" stroke-width="0.5"/>
  <line x1="221.9" y1="207" x2="221.9" y2="362" stroke="#e5e7eb" stroke-width="0.5"/>
  <line x1="230.6" y1="207" x2="230.6" y2="362" stroke="#e5e7eb" stroke-width="0.5"/>
  <line x1="238.0" y1="207" x2="238.0" y2="362" stroke="#e5e7eb" stroke-width="0.5"/>
  <line x1="244.4" y1="207" x2="244.4" y2="362" stroke="#e5e7eb" stroke-width="0.5"/>
  <line x1="250.1" y1="207" x2="250.1" y2="362" stroke="#e5e7eb" stroke-width="0.5"/>
  <line x1="288.4" y1="207" x2="288.4" y2="362" stroke="#e5e7eb" stroke-width="0.5"/>
  <line x1="307.9" y1="207" x2="307.9" y2="362" stroke="#e5e7eb" stroke-width="0.5"/>
  <line x1="321.7" y1="207" x2="321.7" y2="362" stroke="#e5e7eb" stroke-width="0.5"/>
  <line x1="332.4" y1="207" x2="332.4" y2="362" stroke="#e5e7eb" stroke-width="0.5"/>
  <line x1="341.2" y1="207" x2="341.2" y2="362" stroke="#e5e7eb" stroke-width="0.5"/>
  <line x1="348.6" y1="207" x2="348.6" y2="362" stroke="#e5e7eb" stroke-width="0.5"/>
  <line x1="355.0" y1="207" x2="355.0" y2="362" stroke="#e5e7eb" stroke-width="0.5"/>
  <line x1="360.7" y1="207" x2="360.7" y2="362" stroke="#e5e7eb" stroke-width="0.5"/>
  <line x1="399.0" y1="207" x2="399.0" y2="362" stroke="#e5e7eb" stroke-width="0.5"/>
  <line x1="144.6" y1="207" x2="144.6" y2="362" stroke="#e5e7eb" stroke-width="0.5"/>
  <text x="144.6" y="374" text-anchor="middle" font-size="8" fill="#6b7280">100</text>
  <line x1="255.1" y1="207" x2="255.1" y2="362" stroke="#e5e7eb" stroke-width="0.5"/>
  <text x="255.1" y="374" text-anchor="middle" font-size="8" fill="#6b7280">1k</text>
  <line x1="365.7" y1="207" x2="365.7" y2="362" stroke="#e5e7eb" stroke-width="0.5"/>
  <text x="365.7" y="374" text-anchor="middle" font-size="8" fill="#6b7280">10k</text>
  <line x1="34" y1="330.2" x2="399" y2="330.2" stroke="#e5e7eb" stroke-width="0.5"/>
  <text x="30" y="333.2" text-anchor="end" font-size="8" fill="#6b7280">-2000</text>
  <text x="30" y="287.5" text-anchor="end" font-size="8" fill="#6b7280">0</text>
  <line x1="34" y1="238.8" x2="399" y2="238.8" stroke="#e5e7eb" stroke-width="0.5"/>
  <text x="30" y="241.8" text-anchor="end" font-size="8" fill="#6b7280">2000</text>
  <defs><linearGradient id="g306" x1="0" y1="207" x2="0" y2="284.5" gradientUnits="userSpaceOnUse">
    <stop offset="0%" stop-color="#2ecc71" stop-opacity="0.15"/>
    <stop offset="100%" stop-color="#2ecc71" stop-opacity="0.02"/>
  </linearGradient></defs>
  <path d="M37.5,224.9 37.5,224.9 70.8,254.7 90.3,264.6 104.1,269.6 114.8,272.6 123.6,274.6 131.0,276.0 137.4,277.0 143.1,277.9 148.1,278.5 152.7,279.1 156.9,279.5 160.7,279.9 164.3,280.2 167.6,280.5 170.7,280.8 173.6,281.0 176.3,281.2 178.9,281.4 181.4,281.5 183.7,281.7 186.0,281.8 188.1,281.9 190.2,282.0 192.1,282.1 194.0,282.2 195.8,282.3 197.6,282.4 199.2,282.5 200.9,282.5 202.4,282.6 204.0,282.7 205.5,282.7 206.9,282.8 208.3,282.8 209.6,282.9 210.9,282.9 212.2,283.0 213.5,283.0 214.7,283.1 215.9,283.1 217.0,283.1 218.2,283.2 219.3,283.2 220.3,283.2 221.4,283.3 222.4,283.3 223.4,283.3 224.4,283.4 225.4,283.4 226.4,283.4 227.3,283.5 228.2,283.5 229.1,283.5 230.0,283.5 230.8,283.6 231.7,283.6 232.5,283.6 233.4,283.6 234.2,283.7 235.7,283.7 237.3,283.7 238.7,283.8 240.2,283.8 241.6,283.9 242.9,283.9 244.2,283.9 245.5,284.0 246.8,284.0 248.0,284.0 249.2,284.0 250.3,284.1 251.4,284.1 252.6,284.1 253.6,284.1 254.7,284.2 255.7,284.2 256.7,284.2 257.7,284.2 258.7,284.2 259.6,284.3 260.6,284.3 261.5,284.3 262.4,284.3 263.3,284.3 264.1,284.3 265.0,284.3 265.8,284.3 266.6,284.4 267.4,284.4 268.6,284.4 269.8,284.4 270.9,284.4 272.0,284.4 273.1,284.4 274.2,284.4 275.2,284.4 276.2,284.4 277.2,284.4 278.2,284.4 279.1,284.5 280.0,284.5 281.0,284.5 281.9,284.5 282.7,284.5 283.6,284.5 284.5,284.5 285.3,284.5 286.1,284.5 286.9,284.5 288.0,284.5 289.0,284.5 290.0,284.5 291.0,284.5 292.0,284.5 292.9,284.5 293.9,284.5 294.8,284.5 295.7,284.5 296.6,284.5 297.4,284.5 298.3,284.5 299.1,284.5 299.9,284.5 300.7,284.5 301.7,284.5 302.7,284.5 303.6,284.5 304.6,284.5 305.5,284.5 306.4,284.5 307.3,284.5 308.1,284.5 309.0,284.5 309.8,284.5 310.6,284.5 311.4,284.5 312.4,284.5 313.3,284.5 314.2,284.5 315.1,284.5 316.0,284.5 316.9,284.5 317.7,284.5 318.6,284.5 319.4,284.5 320.2,284.5 321.1,284.5 322.0,284.5 322.9,284.5 323.8,284.5 324.7,284.5 325.5,284.5 326.3,284.5 327.1,284.5 327.9,284.5 328.8,284.5 329.7,284.5 330.6,284.5 331.4,284.5 332.3,284.5 333.1,284.5 333.9,284.5 334.8,284.5 335.7,284.5 336.5,284.5 337.4,284.5 338.2,284.5 339.0,284.5 339.8,284.5 340.7,284.5 341.6,284.5 342.4,284.5 343.3,284.5 344.1,284.5 344.9,284.5 345.8,284.5 346.6,284.5 347.5,284.5 348.3,284.5 349.1,284.5 350.0,284.5 350.8,284.5 351.7,284.5 352.5,284.5 353.3,284.5 354.1,284.5 355.0,284.5 355.8,284.5 356.6,284.5 357.5,284.5 358.3,284.5 359.1,284.5 360.0,284.5 360.8,284.5 361.6,284.5 362.5,284.5 363.3,284.5 364.1,284.5 364.9,284.5 365.8,284.5 366.6,284.5 367.4,284.5 368.2,284.5 369.1,284.5 369.9,284.5 370.7,284.5 371.6,284.5 372.4,284.5 373.2,284.5 374.0,284.5 374.8,284.5 375.6,284.5 376.5,284.5 377.3,284.5 378.1,284.5 378.9,284.5 379.7,284.5 380.5,284.5 381.4,284.5 382.2,284.5 383.0,284.5 383.8,284.5 384.6,284.5 385.5,284.5 386.3,284.5 387.1,284.5 387.9,284.5 388.7,284.5 389.5,284.5 390.3,284.5 391.2,284.5 392.0,284.5 392.8,284.5 393.6,284.5 394.4,284.5 395.2,284.5 396.0,284.5 396.8,284.5 397.6,284.5 398.5,284.5 L398.5,284.5 L37.5,284.5 Z" fill="url(#g306)"/>
  <defs><clipPath id="pc307"><rect x="34" y="207" width="365" height="155"/></clipPath></defs>
  <polyline points="37.5,224.9 70.8,254.7 90.3,264.6 104.1,269.6 114.8,272.6 123.6,274.6 131.0,276.0 137.4,277.0 143.1,277.9 148.1,278.5 152.7,279.1 156.9,279.5 160.7,279.9 164.3,280.2 167.6,280.5 170.7,280.8 173.6,281.0 176.3,281.2 178.9,281.4 181.4,281.5 183.7,281.7 186.0,281.8 188.1,281.9 190.2,282.0 192.1,282.1 194.0,282.2 195.8,282.3 197.6,282.4 199.2,282.5 200.9,282.5 202.4,282.6 204.0,282.7 205.5,282.7 206.9,282.8 208.3,282.8 209.6,282.9 210.9,282.9 212.2,283.0 213.5,283.0 214.7,283.1 215.9,283.1 217.0,283.1 218.2,283.2 219.3,283.2 220.3,283.2 221.4,283.3 222.4,283.3 223.4,283.3 224.4,283.4 225.4,283.4 226.4,283.4 227.3,283.5 228.2,283.5 229.1,283.5 230.0,283.5 230.8,283.6 231.7,283.6 232.5,283.6 233.4,283.6 234.2,283.7 235.7,283.7 237.3,283.7 238.7,283.8 240.2,283.8 241.6,283.9 242.9,283.9 244.2,283.9 245.5,284.0 246.8,284.0 248.0,284.0 249.2,284.0 250.3,284.1 251.4,284.1 252.6,284.1 253.6,284.1 254.7,284.2 255.7,284.2 256.7,284.2 257.7,284.2 258.7,284.2 259.6,284.3 260.6,284.3 261.5,284.3 262.4,284.3 263.3,284.3 264.1,284.3 265.0,284.3 265.8,284.3 266.6,284.4 267.4,284.4 268.6,284.4 269.8,284.4 270.9,284.4 272.0,284.4 273.1,284.4 274.2,284.4 275.2,284.4 276.2,284.4 277.2,284.4 278.2,284.4 279.1,284.5 280.0,284.5 281.0,284.5 281.9,284.5 282.7,284.5 283.6,284.5 284.5,284.5 285.3,284.5 286.1,284.5 286.9,284.5 288.0,284.5 289.0,284.5 290.0,284.5 291.0,284.5 292.0,284.5 292.9,284.5 293.9,284.5 294.8,284.5 295.7,284.5 296.6,284.5 297.4,284.5 298.3,284.5 299.1,284.5 299.9,284.5 300.7,284.5 301.7,284.5 302.7,284.5 303.6,284.5 304.6,284.5 305.5,284.5 306.4,284.5 307.3,284.5 308.1,284.5 309.0,284.5 309.8,284.5 310.6,284.5 311.4,284.5 312.4,284.5 313.3,284.5 314.2,284.5 315.1,284.5 316.0,284.5 316.9,284.5 317.7,284.5 318.6,284.5 319.4,284.5 320.2,284.5 321.1,284.5 322.0,284.5 322.9,284.5 323.8,284.5 324.7,284.5 325.5,284.5 326.3,284.5 327.1,284.5 327.9,284.5 328.8,284.5 329.7,284.5 330.6,284.5 331.4,284.5 332.3,284.5 333.1,284.5 333.9,284.5 334.8,284.5 335.7,284.5 336.5,284.5 337.4,284.5 338.2,284.5 339.0,284.5 339.8,284.5 340.7,284.5 341.6,284.5 342.4,284.5 343.3,284.5 344.1,284.5 344.9,284.5 345.8,284.5 346.6,284.5 347.5,284.5 348.3,284.5 349.1,284.5 350.0,284.5 350.8,284.5 351.7,284.5 352.5,284.5 353.3,284.5 354.1,284.5 355.0,284.5 355.8,284.5 356.6,284.5 357.5,284.5 358.3,284.5 359.1,284.5 360.0,284.5 360.8,284.5 361.6,284.5 362.5,284.5 363.3,284.5 364.1,284.5 364.9,284.5 365.8,284.5 366.6,284.5 367.4,284.5 368.2,284.5 369.1,284.5 369.9,284.5 370.7,284.5 371.6,284.5 372.4,284.5 373.2,284.5 374.0,284.5 374.8,284.5 375.6,284.5 376.5,284.5 377.3,284.5 378.1,284.5 378.9,284.5 379.7,284.5 380.5,284.5 381.4,284.5 382.2,284.5 383.0,284.5 383.8,284.5 384.6,284.5 385.5,284.5 386.3,284.5 387.1,284.5 387.9,284.5 388.7,284.5 389.5,284.5 390.3,284.5 391.2,284.5 392.0,284.5 392.8,284.5 393.6,284.5 394.4,284.5 395.2,284.5 396.0,284.5 396.8,284.5 397.6,284.5 398.5,284.5" fill="none" stroke="#2ecc71" stroke-width="1.5" stroke-linejoin="round" clip-path="url(#pc307)"/>
  <line x1="435" y1="207" x2="435" y2="362" stroke="#d1d5db"/>
  <line x1="435" y1="284.5" x2="800" y2="284.5" stroke="#d1d5db"/>
  <text x="617.5" y="388" text-anchor="middle" font-size="9" fill="#6b7280">Samples</text>
  <text x="413" y="284.5" text-anchor="middle" font-size="9" fill="#6b7280" transform="rotate(-90 413 284.5)">Impulse response</text>
  <line x1="435.0" y1="207" x2="435.0" y2="362" stroke="#e5e7eb" stroke-width="0.5"/>
  <text x="435.0" y="374" text-anchor="middle" font-size="8" fill="#6b7280">0</text>
  <line x1="526.3" y1="207" x2="526.3" y2="362" stroke="#e5e7eb" stroke-width="0.5"/>
  <text x="526.3" y="374" text-anchor="middle" font-size="8" fill="#6b7280">32</text>
  <line x1="617.5" y1="207" x2="617.5" y2="362" stroke="#e5e7eb" stroke-width="0.5"/>
  <text x="617.5" y="374" text-anchor="middle" font-size="8" fill="#6b7280">64</text>
  <line x1="708.8" y1="207" x2="708.8" y2="362" stroke="#e5e7eb" stroke-width="0.5"/>
  <text x="708.8" y="374" text-anchor="middle" font-size="8" fill="#6b7280">96</text>
  <line x1="800.0" y1="207" x2="800.0" y2="362" stroke="#e5e7eb" stroke-width="0.5"/>
  <text x="800.0" y="374" text-anchor="middle" font-size="8" fill="#6b7280">128</text>
  <line x1="435" y1="341.4" x2="800" y2="341.4" stroke="#e5e7eb" stroke-width="0.5"/>
  <text x="431" y="344.4" text-anchor="end" font-size="8" fill="#6b7280">-0.6</text>
  <text x="431" y="287.5" text-anchor="end" font-size="8" fill="#6b7280">0</text>
  <line x1="435" y1="227.6" x2="800" y2="227.6" stroke="#e5e7eb" stroke-width="0.5"/>
  <text x="431" y="230.6" text-anchor="end" font-size="8" fill="#6b7280">0.6</text>
  <defs><linearGradient id="g308" x1="0" y1="207" x2="0" y2="284.5" gradientUnits="userSpaceOnUse">
    <stop offset="0%" stop-color="#f39c12" stop-opacity="0.15"/>
    <stop offset="100%" stop-color="#f39c12" stop-opacity="0.02"/>
  </linearGradient></defs>
  <defs><linearGradient id="g309" x1="0" y1="362" x2="0" y2="284.5" gradientUnits="userSpaceOnUse">
    <stop offset="0%" stop-color="#f39c12" stop-opacity="0.15"/>
    <stop offset="100%" stop-color="#f39c12" stop-opacity="0.02"/>
  </linearGradient></defs>
  <defs><clipPath id="c310"><rect x="435" y="207" width="365" height="77.5"/></clipPath></defs>
  <defs><clipPath id="c311"><rect x="435" y="284.5" width="365" height="77.5"/></clipPath></defs>
  <path d="M435.0,207.0 435.0,207.0 437.9,315.6 440.7,309.1 443.6,303.4 446.4,298.4 449.3,294.2 452.1,290.7 455.0,287.8 457.8,285.5 460.7,283.7 463.5,282.3 466.4,281.4 469.2,280.8 472.1,280.4 474.9,280.3 477.8,280.4 480.6,280.6 483.5,280.9 486.3,281.3 489.2,281.7 492.0,282.2 494.9,282.7 497.7,283.1 500.6,283.5 503.4,283.9 506.3,284.2 509.1,284.6 512.0,284.8 514.8,285.0 517.7,285.2 520.5,285.3 523.4,285.4 526.3,285.5 529.1,285.5 532.0,285.5 534.8,285.5 537.7,285.5 540.5,285.4 543.4,285.4 546.2,285.3 549.1,285.2 551.9,285.1 554.8,285.0 557.6,285.0 560.5,284.9 563.3,284.8 566.2,284.7 569.0,284.7 571.9,284.6 574.7,284.5 577.6,284.5 580.4,284.5 583.3,284.4 586.1,284.4 589.0,284.4 591.8,284.4 594.7,284.3 597.5,284.3 600.4,284.3 603.2,284.3 606.1,284.3 608.9,284.3 611.8,284.3 614.6,284.4 617.5,284.4 620.4,284.4 623.2,284.4 626.1,284.4 628.9,284.4 631.8,284.4 634.6,284.4 637.5,284.4 640.3,284.4 643.2,284.5 646.0,284.5 648.9,284.5 651.7,284.5 654.6,284.5 657.4,284.5 660.3,284.5 663.1,284.5 666.0,284.5 668.8,284.5 671.7,284.5 674.5,284.5 677.4,284.5 680.2,284.5 683.1,284.5 685.9,284.5 688.8,284.5 691.6,284.5 694.5,284.5 697.3,284.5 700.2,284.5 703.0,284.5 705.9,284.5 708.8,284.5 711.6,284.5 714.5,284.5 717.3,284.5 720.2,284.5 723.0,284.5 725.9,284.5 728.7,284.5 731.6,284.5 734.4,284.5 737.3,284.5 740.1,284.5 743.0,284.5 745.8,284.5 748.7,284.5 751.5,284.5 754.4,284.5 757.2,284.5 760.1,284.5 762.9,284.5 765.8,284.5 768.6,284.5 771.5,284.5 774.3,284.5 777.2,284.5 780.0,284.5 782.9,284.5 785.7,284.5 788.6,284.5 791.4,284.5 794.3,284.5 797.1,284.5 L797.1,284.5 L435.0,284.5 Z" fill="url(#g308)" clip-path="url(#c310)"/>
  <path d="M435.0,207.0 435.0,207.0 437.9,315.6 440.7,309.1 443.6,303.4 446.4,298.4 449.3,294.2 452.1,290.7 455.0,287.8 457.8,285.5 460.7,283.7 463.5,282.3 466.4,281.4 469.2,280.8 472.1,280.4 474.9,280.3 477.8,280.4 480.6,280.6 483.5,280.9 486.3,281.3 489.2,281.7 492.0,282.2 494.9,282.7 497.7,283.1 500.6,283.5 503.4,283.9 506.3,284.2 509.1,284.6 512.0,284.8 514.8,285.0 517.7,285.2 520.5,285.3 523.4,285.4 526.3,285.5 529.1,285.5 532.0,285.5 534.8,285.5 537.7,285.5 540.5,285.4 543.4,285.4 546.2,285.3 549.1,285.2 551.9,285.1 554.8,285.0 557.6,285.0 560.5,284.9 563.3,284.8 566.2,284.7 569.0,284.7 571.9,284.6 574.7,284.5 577.6,284.5 580.4,284.5 583.3,284.4 586.1,284.4 589.0,284.4 591.8,284.4 594.7,284.3 597.5,284.3 600.4,284.3 603.2,284.3 606.1,284.3 608.9,284.3 611.8,284.3 614.6,284.4 617.5,284.4 620.4,284.4 623.2,284.4 626.1,284.4 628.9,284.4 631.8,284.4 634.6,284.4 637.5,284.4 640.3,284.4 643.2,284.5 646.0,284.5 648.9,284.5 651.7,284.5 654.6,284.5 657.4,284.5 660.3,284.5 663.1,284.5 666.0,284.5 668.8,284.5 671.7,284.5 674.5,284.5 677.4,284.5 680.2,284.5 683.1,284.5 685.9,284.5 688.8,284.5 691.6,284.5 694.5,284.5 697.3,284.5 700.2,284.5 703.0,284.5 705.9,284.5 708.8,284.5 711.6,284.5 714.5,284.5 717.3,284.5 720.2,284.5 723.0,284.5 725.9,284.5 728.7,284.5 731.6,284.5 734.4,284.5 737.3,284.5 740.1,284.5 743.0,284.5 745.8,284.5 748.7,284.5 751.5,284.5 754.4,284.5 757.2,284.5 760.1,284.5 762.9,284.5 765.8,284.5 768.6,284.5 771.5,284.5 774.3,284.5 777.2,284.5 780.0,284.5 782.9,284.5 785.7,284.5 788.6,284.5 791.4,284.5 794.3,284.5 797.1,284.5 L797.1,284.5 L435.0,284.5 Z" fill="url(#g309)" clip-path="url(#c311)"/>
  <defs><clipPath id="pc312"><rect x="435" y="207" width="365" height="155"/></clipPath></defs>
  <polyline points="435.0,207.0 437.9,315.6 440.7,309.1 443.6,303.4 446.4,298.4 449.3,294.2 452.1,290.7 455.0,287.8 457.8,285.5 460.7,283.7 463.5,282.3 466.4,281.4 469.2,280.8 472.1,280.4 474.9,280.3 477.8,280.4 480.6,280.6 483.5,280.9 486.3,281.3 489.2,281.7 492.0,282.2 494.9,282.7 497.7,283.1 500.6,283.5 503.4,283.9 506.3,284.2 509.1,284.6 512.0,284.8 514.8,285.0 517.7,285.2 520.5,285.3 523.4,285.4 526.3,285.5 529.1,285.5 532.0,285.5 534.8,285.5 537.7,285.5 540.5,285.4 543.4,285.4 546.2,285.3 549.1,285.2 551.9,285.1 554.8,285.0 557.6,285.0 560.5,284.9 563.3,284.8 566.2,284.7 569.0,284.7 571.9,284.6 574.7,284.5 577.6,284.5 580.4,284.5 583.3,284.4 586.1,284.4 589.0,284.4 591.8,284.4 594.7,284.3 597.5,284.3 600.4,284.3 603.2,284.3 606.1,284.3 608.9,284.3 611.8,284.3 614.6,284.4 617.5,284.4 620.4,284.4 623.2,284.4 626.1,284.4 628.9,284.4 631.8,284.4 634.6,284.4 637.5,284.4 640.3,284.4 643.2,284.5 646.0,284.5 648.9,284.5 651.7,284.5 654.6,284.5 657.4,284.5 660.3,284.5 663.1,284.5 666.0,284.5 668.8,284.5 671.7,284.5 674.5,284.5 677.4,284.5 680.2,284.5 683.1,284.5 685.9,284.5 688.8,284.5 691.6,284.5 694.5,284.5 697.3,284.5 700.2,284.5 703.0,284.5 705.9,284.5 708.8,284.5 711.6,284.5 714.5,284.5 717.3,284.5 720.2,284.5 723.0,284.5 725.9,284.5 728.7,284.5 731.6,284.5 734.4,284.5 737.3,284.5 740.1,284.5 743.0,284.5 745.8,284.5 748.7,284.5 751.5,284.5 754.4,284.5 757.2,284.5 760.1,284.5 762.9,284.5 765.8,284.5 768.6,284.5 771.5,284.5 774.3,284.5 777.2,284.5 780.0,284.5 782.9,284.5 785.7,284.5 788.6,284.5 791.4,284.5 794.3,284.5 797.1,284.5" fill="none" stroke="#f39c12" stroke-width="1.3" stroke-linejoin="round" clip-path="url(#pc312)"/>
</svg>
