<svg xmlns="http://www.w3.org/2000/svg" viewBox="0 0 820 378" style="font-family:system-ui,-apple-system,sans-serif">
  <text x="800" y="11" text-anchor="end" font-size="11" font-weight="600" fill="#6b7280">LMS convergence, μ=0.05</text>
  <line x1="34" y1="16" x2="34" y2="171" stroke="#d1d5db"/>
  <line x1="34" y1="47.0" x2="399" y2="47.0" stroke="#d1d5db"/>
  <text x="216.5" y="197" text-anchor="middle" font-size="9" fill="#6b7280">Hz</text>
  <text x="12" y="93.5" text-anchor="middle" font-size="9" fill="#6b7280" transform="rotate(-90 12 93.5)">dB</text>
  <line x1="67.3" y1="16" x2="67.3" y2="171" stroke="#e5e7eb" stroke-width="0.5"/>
  <line x1="86.8" y1="16" x2="86.8" y2="171" stroke="#e5e7eb" stroke-width="0.5"/>
  <line x1="100.6" y1="16" x2="100.6" y2="171" stroke="#e5e7eb" stroke-width="0.5"/>
  <line x1="111.3" y1="16" x2="111.3" y2="171" stroke="#e5e7eb" stroke-width="0.5"/>
  <line x1="120.0" y1="16" x2="120.0" y2="171" stroke="#e5e7eb" stroke-width="0.5"/>
  <line x1="127.4" y1="16" x2="127.4" y2="171" stroke="#e5e7eb" stroke-width="0.5"/>
  <line x1="133.9" y1="16" x2="133.9" y2="171" stroke="#e5e7eb" stroke-width="0.5"/>
  <line x1="139.5" y1="16" x2="139.5" y2="171" stroke="#e5e7eb" stroke-width="0.5"/>
  <line x1="177.9" y1="16" x2="177.9" y2="171" stroke="#e5e7eb" stroke-width="0.5"/>
  <line x1="197.3" y1="16" x2="197.3" y2="171" stroke="#e5e7eb" stroke-width="0.5"/>
  <line x1="211.1" y1="16" x2="211.1" y2="171" stroke="#e5e7eb" stroke-width="0.5"/>
  <line x1="221.9" y1="16" x2="221.9" y2="171" stroke="#e5e7eb" stroke-width="0.5"/>
  <line x1="230.6" y1="16" x2="230.6" y2="171" stroke="#e5e7eb" stroke-width="0.5"/>
  <line x1="238.0" y1="16" x2="238.0" y2="171" stroke="#e5e7eb" stroke-width="0.5"/>
  <line x1="244.4" y1="16" x2="244.4" y2="171" stroke="#e5e7eb" stroke-width="0.5"/>
  <line x1="250.1" y1="16" x2="250.1" y2="171" stroke="#e5e7eb" stroke-width="0.5"/>
  <line x1="288.4" y1="16" x2="288.4" y2="171" stroke="#e5e7eb" stroke-width="0.5"/>
  <line x1="307.9" y1="16" x2="307.9" y2="171" stroke="#e5e7eb" stroke-width="0.5"/>
  <line x1="321.7" y1="16" x2="321.7" y2="171" stroke="#e5e7eb" stroke-width="0.5"/>
  <line x1="332.4" y1="16" x2="332.4" y2="171" stroke="#e5e7eb" stroke-width="0.5"/>
  <line x1="341.2" y1="16" x2="341.2" y2="171" stroke="#e5e7eb" stroke-width="0.5"/>
  <line x1="348.6" y1="16" x2="348.6" y2="171" stroke="#e5e7eb" stroke-width="0.5"/>
  <line x1="355.0" y1="16" x2="355.0" y2="171" stroke="#e5e7eb" stroke-width="0.5"/>
  <line x1="360.7" y1="16" x2="360.7" y2="171" stroke="#e5e7eb" stroke-width="0.5"/>
  <line x1="399.0" y1="16" x2="399.0" y2="171" stroke="#e5e7eb" stroke-width="0.5"/>
  <line x1="144.6" y1="16" x2="144.6" y2="171" stroke="#e5e7eb" stroke-width="0.5"/>
  <text x="144.6" y="183" text-anchor="middle" font-size="8" fill="#6b7280">100</text>
  <line x1="255.1" y1="16" x2="255.1" y2="171" stroke="#e5e7eb" stroke-width="0.5"/>
  <text x="255.1" y="183" text-anchor="middle" font-size="8" fill="#6b7280">1k</text>
  <line x1="365.7" y1="16" x2="365.7" y2="171" stroke="#e5e7eb" stroke-width="0.5"/>
  <text x="365.7" y="183" text-anchor="middle" font-size="8" fill="#6b7280">10k</text>
  <line x1="34" y1="31.5" x2="399" y2="31.5" stroke="#e5e7eb" stroke-width="0.5"/>
  <line x1="34" y1="62.5" x2="399" y2="62.5" stroke="#e5e7eb" stroke-width="0.5"/>
  <line x1="34" y1="16.0" x2="399" y2="16.0" stroke="#e5e7eb" stroke-width="0.5"/>
  <text x="30" y="19.0" text-anchor="end" font-size="8" fill="#6b7280">+20</text>
  <text x="30" y="50.0" text-anchor="end" font-size="8" fill="#6b7280">0</text>
  <line x1="34" y1="78.0" x2="399" y2="78.0" stroke="#e5e7eb" stroke-width="0.5"/>
  <text x="30" y="81.0" text-anchor="end" font-size="8" fill="#6b7280">-20</text>
  <line x1="34" y1="109.0" x2="399" y2="109.0" stroke="#e5e7eb" stroke-width="0.5"/>
  <text x="30" y="112.0" text-anchor="end" font-size="8" fill="#6b7280">-40</text>
  <line x1="34" y1="140.0" x2="399" y2="140.0" stroke="#e5e7eb" stroke-width="0.5"/>
  <text x="30" y="143.0" text-anchor="end" font-size="8" fill="#6b7280">-60</text>
  <line x1="34" y1="171.0" x2="399" y2="171.0" stroke="#e5e7eb" stroke-width="0.5"/>
  <text x="30" y="174.0" text-anchor="end" font-size="8" fill="#6b7280">-80</text>
  <defs><linearGradient id="g706" x1="0" y1="16" x2="0" y2="171" gradientUnits="userSpaceOnUse">
    <stop offset="0%" stop-color="#4a90d9" stop-opacity="0.15"/>
    <stop offset="100%" stop-color="#4a90d9" stop-opacity="0.02"/>
  </linearGradient></defs>
  <path d="M37.5,49.9 37.5,49.9 70.8,50.3 90.3,50.9 104.1,51.8 114.8,53.1 123.6,54.7 131.0,56.8 137.4,59.5 143.1,63.0 148.1,67.5 152.7,72.7 156.9,74.4 160.7,70.3 164.3,65.6 167.6,62.0 170.7,59.2 173.6,57.0 176.3,55.4 178.9,54.1 181.4,53.1 183.7,52.4 186.0,51.9 188.1,51.5 190.2,51.4 192.1,51.3 194.0,51.4 195.8,51.5 197.6,51.7 199.2,52.0 200.9,52.2 202.4,52.5 204.0,52.6 205.5,52.8 206.9,52.8 208.3,52.7 209.6,52.6 210.9,52.4 212.2,52.2 213.5,51.9 214.7,51.7 215.9,51.4 217.0,51.3 218.2,51.1 219.3,51.1 220.3,51.1 221.4,51.2 222.4,51.3 223.4,51.5 224.4,51.7 225.4,51.9 226.4,52.1 227.3,52.4 228.2,52.7 229.1,53.0 230.0,53.4 230.8,53.9 231.7,54.2 232.5,54.4 233.4,54.4 234.2,54.1 235.7,52.3 237.3,49.9 238.7,47.5 240.2,45.7 241.6,44.7 242.9,44.3 244.2,44.5 245.5,45.3 246.8,46.8 248.0,49.1 249.2,52.3 250.3,56.6 251.4,60.9 252.6,60.7 253.6,56.7 254.7,53.0 255.7,50.4 256.7,48.6 257.7,47.5 258.7,46.8 259.6,46.5 260.6,46.3 261.5,46.3 262.4,46.4 263.3,46.5 264.1,46.5 265.0,46.2 265.8,45.7 266.6,44.8 267.4,43.9 268.6,42.3 269.8,41.2 270.9,40.7 272.0,40.6 273.1,40.7 274.2,40.7 275.2,40.6 276.2,40.9 277.2,41.9 278.2,43.4 279.1,44.7 280.0,45.2 281.0,44.7 281.9,44.0 282.7,43.3 283.6,42.8 284.5,42.3 285.3,42.0 286.1,42.1 286.9,42.9 288.0,45.4 289.0,49.8 290.0,56.5 291.0,64.6 292.0,65.2 292.9,59.3 293.9,54.7 294.8,51.5 295.7,49.6 296.6,48.6 297.4,48.3 298.3,48.9 299.1,50.6 299.9,51.9 300.7,50.6 301.7,47.2 302.7,45.5 303.6,44.9 304.6,43.1 305.5,40.8 306.4,39.8 307.3,40.2 308.1,41.3 309.0,42.1 309.8,42.4 310.6,42.1 311.4,42.4 312.4,44.7 313.3,49.4 314.2,49.1 315.1,43.6 316.0,40.8 316.9,40.0 317.7,40.2 318.6,39.9 319.4,38.9 320.2,39.1 321.1,40.3 322.0,43.1 322.9,45.0 323.8,41.8 324.7,41.0 325.5,45.9 326.3,52.8 327.1,45.2 327.9,43.1 328.8,46.9 329.7,71.5 330.6,51.4 331.4,46.5 332.3,49.0 333.1,56.0 333.9,49.6 334.8,46.3 335.7,49.0 336.5,48.5 337.4,45.8 338.2,43.8 339.0,49.7 339.8,54.5 340.7,45.1 341.6,44.0 342.4,43.5 343.3,39.0 344.1,41.8 344.9,42.8 345.8,46.4 346.6,49.1 347.5,54.1 348.3,51.3 349.1,45.2 350.0,46.4 350.8,41.4 351.7,40.0 352.5,41.0 353.3,37.3 354.1,35.6 355.0,36.5 355.8,39.2 356.6,39.5 357.5,40.5 358.3,44.6 359.1,53.1 360.0,60.4 360.8,53.7 361.6,56.6 362.5,67.5 363.3,66.1 364.1,57.8 364.9,58.6 365.8,54.9 366.6,41.9 367.4,46.5 368.2,53.0 369.1,66.9 369.9,44.4 370.7,43.8 371.6,52.1 372.4,47.0 373.2,44.1 374.0,65.7 374.8,55.2 375.6,44.6 376.5,49.2 377.3,38.9 378.1,46.6 378.9,40.4 379.7,35.0 380.5,36.4 381.4,38.8 382.2,42.8 383.0,49.6 383.8,41.2 384.6,51.6 385.5,34.2 386.3,48.9 387.1,31.9 387.9,31.5 388.7,31.9 389.5,29.4 390.3,39.5 391.2,42.5 392.0,69.5 392.8,43.1 393.6,42.5 394.4,28.8 395.2,28.8 396.0,29.2 396.8,26.6 397.6,30.0 398.5,40.2 L398.5,171.0 L37.5,171.0 Z" fill="url(#g706)"/>
  <defs><clipPath id="pc707"><rect x="34" y="16" width="365" height="155"/></clipPath></defs>
  <polyline points="37.5,49.9 70.8,50.3 90.3,50.9 104.1,51.8 114.8,53.1 123.6,54.7 131.0,56.8 137.4,59.5 143.1,63.0 148.1,67.5 152.7,72.7 156.9,74.4 160.7,70.3 164.3,65.6 167.6,62.0 170.7,59.2 173.6,57.0 176.3,55.4 178.9,54.1 181.4,53.1 183.7,52.4 186.0,51.9 188.1,51.5 190.2,51.4 192.1,51.3 194.0,51.4 195.8,51.5 197.6,51.7 199.2,52.0 200.9,52.2 202.4,52.5 204.0,52.6 205.5,52.8 206.9,52.8 208.3,52.7 209.6,52.6 210.9,52.4 212.2,52.2 213.5,51.9 214.7,51.7 215.9,51.4 217.0,51.3 218.2,51.1 219.3,51.1 220.3,51.1 221.4,51.2 222.4,51.3 223.4,51.5 224.4,51.7 225.4,51.9 226.4,52.1 227.3,52.4 228.2,52.7 229.1,53.0 230.0,53.4 230.8,53.9 231.7,54.2 232.5,54.4 233.4,54.4 234.2,54.1 235.7,52.3 237.3,49.9 238.7,47.5 240.2,45.7 241.6,44.7 242.9,44.3 244.2,44.5 245.5,45.3 246.8,46.8 248.0,49.1 249.2,52.3 250.3,56.6 251.4,60.9 252.6,60.7 253.6,56.7 254.7,53.0 255.7,50.4 256.7,48.6 257.7,47.5 258.7,46.8 259.6,46.5 260.6,46.3 261.5,46.3 262.4,46.4 263.3,46.5 264.1,46.5 265.0,46.2 265.8,45.7 266.6,44.8 267.4,43.9 268.6,42.3 269.8,41.2 270.9,40.7 272.0,40.6 273.1,40.7 274.2,40.7 275.2,40.6 276.2,40.9 277.2,41.9 278.2,43.4 279.1,44.7 280.0,45.2 281.0,44.7 281.9,44.0 282.7,43.3 283.6,42.8 284.5,42.3 285.3,42.0 286.1,42.1 286.9,42.9 288.0,45.4 289.0,49.8 290.0,56.5 291.0,64.6 292.0,65.2 292.9,59.3 293.9,54.7 294.8,51.5 295.7,49.6 296.6,48.6 297.4,48.3 298.3,48.9 299.1,50.6 299.9,51.9 300.7,50.6 301.7,47.2 302.7,45.5 303.6,44.9 304.6,43.1 305.5,40.8 306.4,39.8 307.3,40.2 308.1,41.3 309.0,42.1 309.8,42.4 310.6,42.1 311.4,42.4 312.4,44.7 313.3,49.4 314.2,49.1 315.1,43.6 316.0,40.8 316.9,40.0 317.7,40.2 318.6,39.9 319.4,38.9 320.2,39.1 321.1,40.3 322.0,43.1 322.9,45.0 323.8,41.8 324.7,41.0 325.5,45.9 326.3,52.8 327.1,45.2 327.9,43.1 328.8,46.9 329.7,71.5 330.6,51.4 331.4,46.5 332.3,49.0 333.1,56.0 333.9,49.6 334.8,46.3 335.7,49.0 336.5,48.5 337.4,45.8 338.2,43.8 339.0,49.7 339.8,54.5 340.7,45.1 341.6,44.0 342.4,43.5 343.3,39.0 344.1,41.8 344.9,42.8 345.8,46.4 346.6,49.1 347.5,54.1 348.3,51.3 349.1,45.2 350.0,46.4 350.8,41.4 351.7,40.0 352.5,41.0 353.3,37.3 354.1,35.6 355.0,36.5 355.8,39.2 356.6,39.5 357.5,40.5 358.3,44.6 359.1,53.1 360.0,60.4 360.8,53.7 361.6,56.6 362.5,67.5 363.3,66.1 364.1,57.8 364.9,58.6 365.8,54.9 366.6,41.9 367.4,46.5 368.2,53.0 369.1,66.9 369.9,44.4 370.7,43.8 371.6,52.1 372.4,47.0 373.2,44.1 374.0,65.7 374.8,55.2 375.6,44.6 376.5,49.2 377.3,38.9 378.1,46.6 378.9,40.4 379.7,35.0 380.5,36.4 381.4,38.8 382.2,42.8 383.0,49.6 383.8,41.2 384.6,51.6 385.5,34.2 386.3,48.9 387.1,31.9 387.9,31.5 388.7,31.9 389.5,29.4 390.3,39.5 391.2,42.5 392.0,69.5 392.8,43.1 393.6,42.5 394.4,28.8 395.2,28.8 396.0,29.2 396.8,26.6 397.6,30.0 398.5,40.2" fill="none" stroke="#4a90d9" stroke-width="1.5" stroke-linejoin="round" clip-path="url(#pc707)"/>
  <line x1="435" y1="16" x2="435" y2="171" stroke="#d1d5db"/>
  <line x1="435" y1="93.5" x2="800" y2="93.5" stroke="#d1d5db"/>
  <text x="617.5" y="197" text-anchor="middle" font-size="9" fill="#6b7280">Hz</text>
  <text x="413" y="93.5" text-anchor="middle" font-size="9" fill="#6b7280" transform="rotate(-90 413 93.5)">Phase (deg)</text>
  <line x1="468.3" y1="16" x2="468.3" y2="171" stroke="#e5e7eb" stroke-width="0.5"/>
  <line x1="487.8" y1="16" x2="487.8" y2="171" stroke="#e5e7eb" stroke-width="0.5"/>
  <line x1="501.6" y1="16" x2="501.6" y2="171" stroke="#e5e7eb" stroke-width="0.5"/>
  <line x1="512.3" y1="16" x2="512.3" y2="171" stroke="#e5e7eb" stroke-width="0.5"/>
  <line x1="521.0" y1="16" x2="521.0" y2="171" stroke="#e5e7eb" stroke-width="0.5"/>
  <line x1="528.4" y1="16" x2="528.4" y2="171" stroke="#e5e7eb" stroke-width="0.5"/>
  <line x1="534.9" y1="16" x2="534.9" y2="171" stroke="#e5e7eb" stroke-width="0.5"/>
  <line x1="540.5" y1="16" x2="540.5" y2="171" stroke="#e5e7eb" stroke-width="0.5"/>
  <line x1="578.9" y1="16" x2="578.9" y2="171" stroke="#e5e7eb" stroke-width="0.5"/>
  <line x1="598.3" y1="16" x2="598.3" y2="171" stroke="#e5e7eb" stroke-width="0.5"/>
  <line x1="612.1" y1="16" x2="612.1" y2="171" stroke="#e5e7eb" stroke-width="0.5"/>
  <line x1="622.9" y1="16" x2="622.9" y2="171" stroke="#e5e7eb" stroke-width="0.5"/>
  <line x1="631.6" y1="16" x2="631.6" y2="171" stroke="#e5e7eb" stroke-width="0.5"/>
  <line x1="639.0" y1="16" x2="639.0" y2="171" stroke="#e5e7eb" stroke-width="0.5"/>
  <line x1="645.4" y1="16" x2="645.4" y2="171" stroke="#e5e7eb" stroke-width="0.5"/>
  <line x1="651.1" y1="16" x2="651.1" y2="171" stroke="#e5e7eb" stroke-width="0.5"/>
  <line x1="689.4" y1="16" x2="689.4" y2="171" stroke="#e5e7eb" stroke-width="0.5"/>
  <line x1="708.9" y1="16" x2="708.9" y2="171" stroke="#e5e7eb" stroke-width="0.5"/>
  <line x1="722.7" y1="16" x2="722.7" y2="171" stroke="#e5e7eb" stroke-width="0.5"/>
  <line x1="733.4" y1="16" x2="733.4" y2="171" stroke="#e5e7eb" stroke-width="0.5"/>
  <line x1="742.2" y1="16" x2="742.2" y2="171" stroke="#e5e7eb" stroke-width="0.5"/>
  <line x1="749.6" y1="16" x2="749.6" y2="171" stroke="#e5e7eb" stroke-width="0.5"/>
  <line x1="756.0" y1="16" x2="756.0" y2="171" stroke="#e5e7eb" stroke-width="0.5"/>
  <line x1="761.7" y1="16" x2="761.7" y2="171" stroke="#e5e7eb" stroke-width="0.5"/>
  <line x1="800.0" y1="16" x2="800.0" y2="171" stroke="#e5e7eb" stroke-width="0.5"/>
  <line x1="545.6" y1="16" x2="545.6" y2="171" stroke="#e5e7eb" stroke-width="0.5"/>
  <text x="545.6" y="183" text-anchor="middle" font-size="8" fill="#6b7280">100</text>
  <line x1="656.1" y1="16" x2="656.1" y2="171" stroke="#e5e7eb" stroke-width="0.5"/>
  <text x="656.1" y="183" text-anchor="middle" font-size="8" fill="#6b7280">1k</text>
  <line x1="766.7" y1="16" x2="766.7" y2="171" stroke="#e5e7eb" stroke-width="0.5"/>
  <text x="766.7" y="183" text-anchor="middle" font-size="8" fill="#6b7280">10k</text>
  <line x1="435" y1="54.8" x2="800" y2="54.8" stroke="#e5e7eb" stroke-width="0.5"/>
  <line x1="435" y1="132.3" x2="800" y2="132.3" stroke="#e5e7eb" stroke-width="0.5"/>
  <line x1="435" y1="16.0" x2="800" y2="16.0" stroke="#e5e7eb" stroke-width="0.5"/>
  <text x="431" y="19.0" text-anchor="end" font-size="8" fill="#6b7280">180</text>
  <text x="431" y="96.5" text-anchor="end" font-size="8" fill="#6b7280">0</text>
  <line x1="435" y1="171.0" x2="800" y2="171.0" stroke="#e5e7eb" stroke-width="0.5"/>
  <text x="431" y="174.0" text-anchor="end" font-size="8" fill="#6b7280">-180</text>
  <defs><linearGradient id="g708" x1="0" y1="16" x2="0" y2="93.5" gradientUnits="userSpaceOnUse">
    <stop offset="0%" stop-color="#e74c3c" stop-opacity="0.15"/>
    <stop offset="100%" stop-color="#e74c3c" stop-opacity="0.02"/>
  </linearGradient></defs>
  <defs><linearGradient id="g709" x1="0" y1="171" x2="0" y2="93.5" gradientUnits="userSpaceOnUse">
    <stop offset="0%" stop-color="#e74c3c" stop-opacity="0.15"/>
    <stop offset="100%" stop-color="#e74c3c" stop-opacity="0.02"/>
  </linearGradient></defs>
  <defs><clipPath id="c710"><rect x="435" y="16" width="365" height="77.5"/></clipPath></defs>
  <defs><clipPath id="c711"><rect x="435" y="93.5" width="365" height="77.5"/></clipPath></defs>
  <path d="M438.5,97.2 438.5,97.2 471.8,100.9 491.3,104.7 505.1,108.5 515.8,112.4 524.6,116.5 532.0,120.9 538.4,125.7 544.1,131.5 549.1,139.5 553.7,152.8 557.9,18.7 561.7,35.8 565.3,45.4 568.6,51.6 571.7,56.3 574.6,60.2 577.3,63.7 579.9,66.8 582.4,69.6 584.7,72.2 587.0,74.6 589.1,76.8 591.2,78.8 593.1,80.6 595.0,82.2 596.8,83.5 598.6,84.6 600.2,85.5 601.9,86.1 603.4,86.5 605.0,86.7 606.5,86.8 607.9,86.8 609.3,86.8 610.6,86.8 611.9,86.9 613.2,87.1 614.5,87.4 615.7,87.8 616.9,88.3 618.0,88.9 619.2,89.6 620.3,90.3 621.3,91.0 622.4,91.6 623.4,92.2 624.4,92.7 625.4,93.2 626.4,93.5 627.4,93.8 628.3,94.0 629.2,94.1 630.1,94.0 631.0,93.8 631.8,93.3 632.7,92.4 633.5,91.1 634.4,89.5 635.2,87.8 636.7,85.1 638.3,84.5 639.7,86.1 641.2,89.2 642.6,93.0 643.9,97.2 645.2,101.4 646.5,105.5 647.8,109.2 649.0,112.3 650.2,114.2 651.3,113.2 652.4,106.0 653.6,93.9 654.6,87.6 655.7,86.6 656.7,87.9 657.7,90.0 658.7,92.2 659.7,94.3 660.6,96.1 661.6,97.7 662.5,98.9 663.4,99.8 664.3,100.2 665.1,100.2 666.0,99.9 666.8,99.7 667.6,99.8 668.4,100.3 669.6,102.1 670.8,105.1 671.9,108.5 673.0,111.6 674.1,114.0 675.2,116.3 676.2,119.0 677.2,122.4 678.2,125.4 679.2,127.3 680.1,127.3 681.0,126.4 682.0,126.1 682.9,127.1 683.7,128.9 684.6,131.4 685.5,134.5 686.3,138.6 687.1,143.7 687.9,149.8 689.0,158.9 690.0,168.8 691.0,25.1 692.0,44.0 693.0,73.7 693.9,90.0 694.9,98.6 695.8,105.1 696.7,110.7 697.6,115.6 698.4,120.0 699.3,123.8 700.1,125.5 700.9,123.1 701.7,119.2 702.7,119.7 703.7,123.2 704.6,125.4 705.6,126.4 706.5,130.3 707.4,136.2 708.3,141.8 709.1,145.4 710.0,147.5 710.8,149.2 711.6,151.7 712.4,155.8 713.4,160.8 714.3,160.0 715.2,149.3 716.1,148.7 717.0,154.7 717.9,160.4 718.7,165.0 719.6,167.6 720.4,17.4 721.2,23.1 722.1,29.5 723.0,34.1 723.9,31.8 724.8,33.3 725.7,43.7 726.5,53.6 727.3,44.2 728.1,41.7 728.9,54.2 729.8,71.2 730.7,96.6 731.6,32.8 732.4,51.0 733.3,62.6 734.1,62.2 734.9,53.4 735.8,66.9 736.7,72.9 737.5,72.9 738.4,78.5 739.2,89.8 740.0,105.0 740.8,84.5 741.7,94.1 742.6,104.4 743.4,108.8 744.3,121.3 745.1,135.8 745.9,141.3 746.8,155.2 747.6,153.0 748.5,155.3 749.3,146.1 750.1,153.3 751.0,161.0 751.8,161.1 752.7,19.6 753.5,23.5 754.3,27.9 755.1,40.8 756.0,51.9 756.8,60.6 757.6,65.9 758.5,77.1 759.3,88.6 760.1,96.8 761.0,84.8 761.8,85.8 762.6,110.0 763.5,124.3 764.3,40.7 765.1,105.6 765.9,27.6 766.8,165.8 767.6,45.9 768.4,69.1 769.2,68.5 770.1,46.8 770.9,66.2 771.7,85.9 772.6,113.1 773.4,54.2 774.2,97.1 775.0,125.8 775.8,123.4 776.6,76.5 777.5,98.9 778.3,117.6 779.1,161.5 779.9,38.1 780.7,71.3 781.5,92.2 782.4,106.8 783.2,129.0 784.0,103.7 784.8,141.5 785.6,83.1 786.5,128.3 787.3,147.0 788.1,143.7 788.9,25.0 789.7,16.1 790.5,61.2 791.3,69.9 792.2,62.7 793.0,148.0 793.8,86.9 794.6,154.7 795.4,64.2 796.2,78.9 797.0,108.3 797.8,119.6 798.6,152.8 799.5,158.5 L799.5,93.5 L438.5,93.5 Z" fill="url(#g708)" clip-path="url(#c710)"/>
  <path d="M438.5,97.2 438.5,97.2 471.8,100.9 491.3,104.7 505.1,108.5 515.8,112.4 524.6,116.5 532.0,120.9 538.4,125.7 544.1,131.5 549.1,139.5 553.7,152.8 557.9,18.7 561.7,35.8 565.3,45.4 568.6,51.6 571.7,56.3 574.6,60.2 577.3,63.7 579.9,66.8 582.4,69.6 584.7,72.2 587.0,74.6 589.1,76.8 591.2,78.8 593.1,80.6 595.0,82.2 596.8,83.5 598.6,84.6 600.2,85.5 601.9,86.1 603.4,86.5 605.0,86.7 606.5,86.8 607.9,86.8 609.3,86.8 610.6,86.8 611.9,86.9 613.2,87.1 614.5,87.4 615.7,87.8 616.9,88.3 618.0,88.9 619.2,89.6 620.3,90.3 621.3,91.0 622.4,91.6 623.4,92.2 624.4,92.7 625.4,93.2 626.4,93.5 627.4,93.8 628.3,94.0 629.2,94.1 630.1,94.0 631.0,93.8 631.8,93.3 632.7,92.4 633.5,91.1 634.4,89.5 635.2,87.8 636.7,85.1 638.3,84.5 639.7,86.1 641.2,89.2 642.6,93.0 643.9,97.2 645.2,101.4 646.5,105.5 647.8,109.2 649.0,112.3 650.2,114.2 651.3,113.2 652.4,106.0 653.6,93.9 654.6,87.6 655.7,86.6 656.7,87.9 657.7,90.0 658.7,92.2 659.7,94.3 660.6,96.1 661.6,97.7 662.5,98.9 663.4,99.8 664.3,100.2 665.1,100.2 666.0,99.9 666.8,99.7 667.6,99.8 668.4,100.3 669.6,102.1 670.8,105.1 671.9,108.5 673.0,111.6 674.1,114.0 675.2,116.3 676.2,119.0 677.2,122.4 678.2,125.4 679.2,127.3 680.1,127.3 681.0,126.4 682.0,126.1 682.9,127.1 683.7,128.9 684.6,131.4 685.5,134.5 686.3,138.6 687.1,143.7 687.9,149.8 689.0,158.9 690.0,168.8 691.0,25.1 692.0,44.0 693.0,73.7 693.9,90.0 694.9,98.6 695.8,105.1 696.7,110.7 697.6,115.6 698.4,120.0 699.3,123.8 700.1,125.5 700.9,123.1 701.7,119.2 702.7,119.7 703.7,123.2 704.6,125.4 705.6,126.4 706.5,130.3 707.4,136.2 708.3,141.8 709.1,145.4 710.0,147.5 710.8,149.2 711.6,151.7 712.4,155.8 713.4,160.8 714.3,160.0 715.2,149.3 716.1,148.7 717.0,154.7 717.9,160.4 718.7,165.0 719.6,167.6 720.4,17.4 721.2,23.1 722.1,29.5 723.0,34.1 723.9,31.8 724.8,33.3 725.7,43.7 726.5,53.6 727.3,44.2 728.1,41.7 728.9,54.2 729.8,71.2 730.7,96.6 731.6,32.8 732.4,51.0 733.3,62.6 734.1,62.2 734.9,53.4 735.8,66.9 736.7,72.9 737.5,72.9 738.4,78.5 739.2,89.8 740.0,105.0 740.8,84.5 741.7,94.1 742.6,104.4 743.4,108.8 744.3,121.3 745.1,135.8 745.9,141.3 746.8,155.2 747.6,153.0 748.5,155.3 749.3,146.1 750.1,153.3 751.0,161.0 751.8,161.1 752.7,19.6 753.5,23.5 754.3,27.9 755.1,40.8 756.0,51.9 756.8,60.6 757.6,65.9 758.5,77.1 759.3,88.6 760.1,96.8 761.0,84.8 761.8,85.8 762.6,110.0 763.5,124.3 764.3,40.7 765.1,105.6 765.9,27.6 766.8,165.8 767.6,45.9 768.4,69.1 769.2,68.5 770.1,46.8 770.9,66.2 771.7,85.9 772.6,113.1 773.4,54.2 774.2,97.1 775.0,125.8 775.8,123.4 776.6,76.5 777.5,98.9 778.3,117.6 779.1,161.5 779.9,38.1 780.7,71.3 781.5,92.2 782.4,106.8 783.2,129.0 784.0,103.7 784.8,141.5 785.6,83.1 786.5,128.3 787.3,147.0 788.1,143.7 788.9,25.0 789.7,16.1 790.5,61.2 791.3,69.9 792.2,62.7 793.0,148.0 793.8,86.9 794.6,154.7 795.4,64.2 796.2,78.9 797.0,108.3 797.8,119.6 798.6,152.8 799.5,158.5 L799.5,93.5 L438.5,93.5 Z" fill="url(#g709)" clip-path="url(#c711)"/>
  <defs><clipPath id="pc712"><rect x="435" y="16" width="365" height="155"/></clipPath></defs>
  <polyline points="438.5,97.2 471.8,100.9 491.3,104.7 505.1,108.5 515.8,112.4 524.6,116.5 532.0,120.9 538.4,125.7 544.1,131.5 549.1,139.5 553.7,152.8 557.9,18.7 561.7,35.8 565.3,45.4 568.6,51.6 571.7,56.3 574.6,60.2 577.3,63.7 579.9,66.8 582.4,69.6 584.7,72.2 587.0,74.6 589.1,76.8 591.2,78.8 593.1,80.6 595.0,82.2 596.8,83.5 598.6,84.6 600.2,85.5 601.9,86.1 603.4,86.5 605.0,86.7 606.5,86.8 607.9,86.8 609.3,86.8 610.6,86.8 611.9,86.9 613.2,87.1 614.5,87.4 615.7,87.8 616.9,88.3 618.0,88.9 619.2,89.6 620.3,90.3 621.3,91.0 622.4,91.6 623.4,92.2 624.4,92.7 625.4,93.2 626.4,93.5 627.4,93.8 628.3,94.0 629.2,94.1 630.1,94.0 631.0,93.8 631.8,93.3 632.7,92.4 633.5,91.1 634.4,89.5 635.2,87.8 636.7,85.1 638.3,84.5 639.7,86.1 641.2,89.2 642.6,93.0 643.9,97.2 645.2,101.4 646.5,105.5 647.8,109.2 649.0,112.3 650.2,114.2 651.3,113.2 652.4,106.0 653.6,93.9 654.6,87.6 655.7,86.6 656.7,87.9 657.7,90.0 658.7,92.2 659.7,94.3 660.6,96.1 661.6,97.7 662.5,98.9 663.4,99.8 664.3,100.2 665.1,100.2 666.0,99.9 666.8,99.7 667.6,99.8 668.4,100.3 669.6,102.1 670.8,105.1 671.9,108.5 673.0,111.6 674.1,114.0 675.2,116.3 676.2,119.0 677.2,122.4 678.2,125.4 679.2,127.3 680.1,127.3 681.0,126.4 682.0,126.1 682.9,127.1 683.7,128.9 684.6,131.4 685.5,134.5 686.3,138.6 687.1,143.7 687.9,149.8 689.0,158.9 690.0,168.8 691.0,25.1 692.0,44.0 693.0,73.7 693.9,90.0 694.9,98.6 695.8,105.1 696.7,110.7 697.6,115.6 698.4,120.0 699.3,123.8 700.1,125.5 700.9,123.1 701.7,119.2 702.7,119.7 703.7,123.2 704.6,125.4 705.6,126.4 706.5,130.3 707.4,136.2 708.3,141.8 709.1,145.4 710.0,147.5 710.8,149.2 711.6,151.7 712.4,155.8 713.4,160.8 714.3,160.0 715.2,149.3 716.1,148.7 717.0,154.7 717.9,160.4 718.7,165.0 719.6,167.6 720.4,17.4 721.2,23.1 722.1,29.5 723.0,34.1 723.9,31.8 724.8,33.3 725.7,43.7 726.5,53.6 727.3,44.2 728.1,41.7 728.9,54.2 729.8,71.2 730.7,96.6 731.6,32.8 732.4,51.0 733.3,62.6 734.1,62.2 734.9,53.4 735.8,66.9 736.7,72.9 737.5,72.9 738.4,78.5 739.2,89.8 740.0,105.0 740.8,84.5 741.7,94.1 742.6,104.4 743.4,108.8 744.3,121.3 745.1,135.8 745.9,141.3 746.8,155.2 747.6,153.0 748.5,155.3 749.3,146.1 750.1,153.3 751.0,161.0 751.8,161.1 752.7,19.6 753.5,23.5 754.3,27.9 755.1,40.8 756.0,51.9 756.8,60.6 757.6,65.9 758.5,77.1 759.3,88.6 760.1,96.8 761.0,84.8 761.8,85.8 762.6,110.0 763.5,124.3 764.3,40.7 765.1,105.6 765.9,27.6 766.8,165.8 767.6,45.9 768.4,69.1 769.2,68.5 770.1,46.8 770.9,66.2 771.7,85.9 772.6,113.1 773.4,54.2 774.2,97.1 775.0,125.8 775.8,123.4 776.6,76.5 777.5,98.9 778.3,117.6 779.1,161.5 779.9,38.1 780.7,71.3 781.5,92.2 782.4,106.8 783.2,129.0 784.0,103.7 784.8,141.5 785.6,83.1 786.5,128.3 787.3,147.0 788.1,143.7 788.9,25.0 789.7,16.1 790.5,61.2 791.3,69.9 792.2,62.7 793.0,148.0 793.8,86.9 794.6,154.7 795.4,64.2 796.2,78.9 797.0,108.3 797.8,119.6 798.6,152.8 799.5,158.5" fill="none" stroke="#e74c3c" stroke-width="1.5" stroke-linejoin="round" clip-path="url(#pc712)"/>
  <line x1="34" y1="207" x2="34" y2="362" stroke="#d1d5db"/>
  <line x1="34" y1="284.5" x2="399" y2="284.5" stroke="#d1d5db"/>
  <text x="216.5" y="388" text-anchor="middle" font-size="9" fill="#6b7280">Hz</text>
  <text x="12" y="284.5" text-anchor="middle" font-size="9" fill="#6b7280" transform="rotate(-90 12 284.5)">Group delay</text>
  <line x1="67.3" y1="207" x2="67.3" y2="362" stroke="#e5e7eb" stroke-width="0.5"/>
  <line x1="86.8" y1="207" x2="86.8" y2="362" stroke="#e5e7eb" stroke-width="0.5"/>
  <line x1="100.6" y1="207" x2="100.6" y2="362" stroke="#e5e7eb" stroke-width="0.5"/>
  <line x1="111.3" y1="207" x2="111.3" y2="362" stroke="#e5e7eb" stroke-width="0.5"/>
  <line x1="120.0" y1="207" x2="120.0" y2="362" stroke="#e5e7eb" stroke-width="0.5"/>
  <line x1="127.4" y1="207" x2="127.4" y2="362" stroke="#e5e7eb" stroke-width="0.5"/>
  <line x1="133.9" y1="207" x2="133.9" y2="362" stroke="#e5e7eb" stroke-width="0.5"/>
  <line x1="139.5" y1="207" x2="139.5" y2="362" stroke="#e5e7eb" stroke-width="0.5"/>
  <line x1="177.9" y1="207" x2="177.9" y2="362" stroke="#e5e7eb" stroke-width="0.5"/>
  <line x1="197.3" y1="207" x2="197.3" y2="362" stroke="#e5e7eb" stroke-width="0.5"/>
  <line x1="211.1" y1="207" x2="211.1" y2="362" stroke="#e5e7eb" stroke-width="0.5"/>
  <line x1="221.9" y1="207" x2="221.9" y2="362" stroke="#e5e7eb" stroke-width="0.5"/>
  <line x1="230.6" y1="207" x2="230.6" y2="362" stroke="#e5e7eb" stroke-width="0.5"/>
  <line x1="238.0" y1="207" x2="238.0" y2="362" stroke="#e5e7eb" stroke-width="0.5"/>
  <line x1="244.4" y1="207" x2="244.4" y2="362" stroke="#e5e7eb" stroke-width="0.5"/>
  <line x1="250.1" y1="207" x2="250.1" y2="362" stroke="#e5e7eb" stroke-width="0.5"/>
  <line x1="288.4" y1="207" x2="288.4" y2="362" stroke="#e5e7eb" stroke-width="0.5"/>
  <line x1="307.9" y1="207" x2="307.9" y2="362" stroke="#e5e7eb" stroke-width="0.5"/>
  <line x1="321.7" y1="207" x2="321.7" y2="362" stroke="#e5e7eb" stroke-width="0.5"/>
  <line x1="332.4" y1="207" x2="332.4" y2="362" stroke="#e5e7eb" stroke-width="0.5"/>
  <line x1="341.2" y1="207" x2="341.2" y2="362" stroke="#e5e7eb" stroke-width="0.5"/>
  <line x1="348.6" y1="207" x2="348.6" y2="362" stroke="#e5e7eb" stroke-width="0.5"/>
  <line x1="355.0" y1="207" x2="355.0" y2="362" stroke="#e5e7eb" stroke-width="0.5"/>
  <line x1="360.7" y1="207" x2="360.7" y2="362" stroke="#e5e7eb" stroke-width="0.5"/>
  <line x1="399.0" y1="207" x2="399.0" y2="362" stroke="#e5e7eb" stroke-width="0.5"/>
  <line x1="144.6" y1="207" x2="144.6" y2="362" stroke="#e5e7eb" stroke-width="0.5"/>
  <text x="144.6" y="374" text-anchor="middle" font-size="8" fill="#6b7280">100</text>
  <line x1="255.1" y1="207" x2="255.1" y2="362" stroke="#e5e7eb" stroke-width="0.5"/>
  <text x="255.1" y="374" text-anchor="middle" font-size="8" fill="#6b7280">1k</text>
  <line x1="365.7" y1="207" x2="365.7" y2="362" stroke="#e5e7eb" stroke-width="0.5"/>
  <text x="365.7" y="374" text-anchor="middle" font-size="8" fill="#6b7280">10k</text>
  <line x1="34" y1="324.7" x2="399" y2="324.7" stroke="#e5e7eb" stroke-width="0.5"/>
  <text x="30" y="327.7" text-anchor="end" font-size="8" fill="#6b7280">-600</text>
  <text x="30" y="287.5" text-anchor="end" font-size="8" fill="#6b7280">0</text>
  <line x1="34" y1="244.3" x2="399" y2="244.3" stroke="#e5e7eb" stroke-width="0.5"/>
  <text x="30" y="247.3" text-anchor="end" font-size="8" fill="#6b7280">600</text>
  <defs><linearGradient id="g713" x1="0" y1="207" x2="0" y2="284.5" gradientUnits="userSpaceOnUse">
    <stop offset="0%" stop-color="#2ecc71" stop-opacity="0.15"/>
    <stop offset="100%" stop-color="#2ecc71" stop-opacity="0.02"/>
  </linearGradient></defs>
  <defs><linearGradient id="g714" x1="0" y1="362" x2="0" y2="284.5" gradientUnits="userSpaceOnUse">
    <stop offset="0%" stop-color="#2ecc71" stop-opacity="0.15"/>
    <stop offset="100%" stop-color="#2ecc71" stop-opacity="0.02"/>
  </linearGradient></defs>
  <defs><clipPath id="c715"><rect x="34" y="207" width="365" height="77.5"/></clipPath></defs>
  <defs><clipPath id="c716"><rect x="34" y="284.5" width="365" height="77.5"/></clipPath></defs>
  <path d="M37.5,277.9 37.5,277.9 70.8,277.9 90.3,277.8 104.1,277.7 114.8,277.4 123.6,277.0 131.0,276.4 137.4,275.1 143.1,272.3 148.1,265.6 152.7,254.2 156.9,250.9 160.7,260.9 164.3,270.5 167.6,274.8 170.7,276.9 173.6,278.0 176.3,278.7 178.9,279.3 181.4,279.7 183.7,280.1 186.0,280.4 188.1,280.8 190.2,281.2 192.1,281.5 194.0,281.9 195.8,282.3 197.6,282.8 199.2,283.2 200.9,283.6 202.4,283.9 204.0,284.2 205.5,284.4 206.9,284.5 208.3,284.5 209.6,284.4 210.9,284.3 212.2,284.1 213.5,283.9 214.7,283.7 215.9,283.5 217.0,283.4 218.2,283.3 219.3,283.3 220.3,283.3 221.4,283.4 222.4,283.5 223.4,283.7 224.4,283.8 225.4,284.0 226.4,284.1 227.3,284.2 228.2,284.4 229.1,284.7 230.0,285.2 230.8,285.7 231.7,286.4 232.5,287.0 233.4,287.4 234.2,287.4 235.7,286.0 237.3,284.0 238.7,282.4 240.2,281.4 241.6,280.9 242.9,280.8 244.2,280.8 245.5,281.1 246.8,281.5 248.0,282.2 249.2,283.8 250.3,287.7 251.4,294.1 252.6,293.4 253.6,287.3 254.7,284.1 255.7,282.9 256.7,282.6 257.7,282.6 258.7,282.8 259.6,283.0 260.6,283.3 261.5,283.6 262.4,283.9 263.3,284.3 264.1,284.6 265.0,284.7 265.8,284.6 266.6,284.3 267.4,283.8 268.6,283.0 269.8,282.6 270.9,282.5 272.0,282.9 273.1,283.2 274.2,283.1 275.2,282.7 276.2,282.5 277.2,283.0 278.2,283.9 279.1,284.9 280.0,285.0 281.0,284.3 281.9,283.6 282.7,283.2 283.6,282.9 284.5,282.4 285.3,281.8 286.1,281.2 286.9,280.7 288.0,280.3 289.0,280.0 290.0,278.6 291.0,272.7 292.0,273.7 292.9,279.7 293.9,281.3 294.8,281.9 295.7,282.1 296.6,282.5 297.4,282.7 298.3,283.1 299.1,284.6 299.9,286.4 300.7,285.5 301.7,283.5 302.7,283.3 303.6,284.2 304.6,283.7 305.5,282.6 306.4,282.3 307.3,282.9 308.1,283.6 309.0,283.9 309.8,283.9 310.6,283.3 311.4,282.9 312.4,283.4 313.3,286.7 314.2,286.7 315.1,283.2 316.0,282.6 316.9,282.9 317.7,283.5 318.6,283.6 319.4,282.8 320.2,282.9 321.1,283.0 322.0,284.0 322.9,285.5 323.8,282.7 324.7,281.5 325.5,283.2 326.3,289.6 327.1,282.0 327.9,281.1 328.8,280.3 329.7,263.2 330.6,279.9 331.4,281.1 332.3,282.6 333.1,288.5 333.9,283.0 334.8,282.1 335.7,284.2 336.5,284.0 337.4,283.1 338.2,281.3 339.0,282.9 339.8,286.6 340.7,282.2 341.6,282.8 342.4,284.0 343.3,281.2 344.1,283.2 344.9,282.8 345.8,283.3 346.6,283.0 347.5,286.1 348.3,284.7 349.1,282.5 350.0,284.8 350.8,282.7 351.7,283.2 352.5,284.4 353.3,282.9 354.1,282.8 355.0,283.0 355.8,283.9 356.6,283.3 357.5,282.9 358.3,283.1 359.1,284.4 360.0,286.8 360.8,282.6 361.6,281.9 362.5,280.7 363.3,276.4 364.1,275.4 364.9,278.6 365.8,282.5 366.6,280.7 367.4,282.1 368.2,283.2 369.1,299.2 369.9,283.2 370.7,282.7 371.6,280.1 372.4,280.1 373.2,282.3 374.0,283.2 374.8,274.1 375.6,279.5 376.5,283.8 377.3,279.8 378.1,282.8 378.9,282.1 379.7,282.3 380.5,283.2 381.4,284.1 382.2,282.7 383.0,284.0 383.8,280.4 384.6,280.5 385.5,281.2 386.3,288.3 387.1,282.2 387.9,281.8 388.7,282.2 389.5,281.3 390.3,281.2 391.2,281.5 392.0,253.3 392.8,281.0 393.6,276.3 394.4,281.5 395.2,282.2 396.0,283.5 396.8,283.2 397.6,283.7 398.5,284.3 L398.5,284.5 L37.5,284.5 Z" fill="url(#g713)" clip-path="url(#c715)"/>
  <path d="M37.5,277.9 37.5,277.9 70.8,277.9 90.3,277.8 104.1,277.7 114.8,277.4 123.6,277.0 131.0,276.4 137.4,275.1 143.1,272.3 148.1,265.6 152.7,254.2 156.9,250.9 160.7,260.9 164.3,270.5 167.6,274.8 170.7,276.9 173.6,278.0 176.3,278.7 178.9,279.3 181.4,279.7 183.7,280.1 186.0,280.4 188.1,280.8 190.2,281.2 192.1,281.5 194.0,281.9 195.8,282.3 197.6,282.8 199.2,283.2 200.9,283.6 202.4,283.9 204.0,284.2 205.5,284.4 206.9,284.5 208.3,284.5 209.6,284.4 210.9,284.3 212.2,284.1 213.5,283.9 214.7,283.7 215.9,283.5 217.0,283.4 218.2,283.3 219.3,283.3 220.3,283.3 221.4,283.4 222.4,283.5 223.4,283.7 224.4,283.8 225.4,284.0 226.4,284.1 227.3,284.2 228.2,284.4 229.1,284.7 230.0,285.2 230.8,285.7 231.7,286.4 232.5,287.0 233.4,287.4 234.2,287.4 235.7,286.0 237.3,284.0 238.7,282.4 240.2,281.4 241.6,280.9 242.9,280.8 244.2,280.8 245.5,281.1 246.8,281.5 248.0,282.2 249.2,283.8 250.3,287.7 251.4,294.1 252.6,293.4 253.6,287.3 254.7,284.1 255.7,282.9 256.7,282.6 257.7,282.6 258.7,282.8 259.6,283.0 260.6,283.3 261.5,283.6 262.4,283.9 263.3,284.3 264.1,284.6 265.0,284.7 265.8,284.6 266.6,284.3 267.4,283.8 268.6,283.0 269.8,282.6 270.9,282.5 272.0,282.9 273.1,283.2 274.2,283.1 275.2,282.7 276.2,282.5 277.2,283.0 278.2,283.9 279.1,284.9 280.0,285.0 281.0,284.3 281.9,283.6 282.7,283.2 283.6,282.9 284.5,282.4 285.3,281.8 286.1,281.2 286.9,280.7 288.0,280.3 289.0,280.0 290.0,278.6 291.0,272.7 292.0,273.7 292.9,279.7 293.9,281.3 294.8,281.9 295.7,282.1 296.6,282.5 297.4,282.7 298.3,283.1 299.1,284.6 299.9,286.4 300.7,285.5 301.7,283.5 302.7,283.3 303.6,284.2 304.6,283.7 305.5,282.6 306.4,282.3 307.3,282.9 308.1,283.6 309.0,283.9 309.8,283.9 310.6,283.3 311.4,282.9 312.4,283.4 313.3,286.7 314.2,286.7 315.1,283.2 316.0,282.6 316.9,282.9 317.7,283.5 318.6,283.6 319.4,282.8 320.2,282.9 321.1,283.0 322.0,284.0 322.9,285.5 323.8,282.7 324.7,281.5 325.5,283.2 326.3,289.6 327.1,282.0 327.9,281.1 328.8,280.3 329.7,263.2 330.6,279.9 331.4,281.1 332.3,282.6 333.1,288.5 333.9,283.0 334.8,282.1 335.7,284.2 336.5,284.0 337.4,283.1 338.2,281.3 339.0,282.9 339.8,286.6 340.7,282.2 341.6,282.8 342.4,284.0 343.3,281.2 344.1,283.2 344.9,282.8 345.8,283.3 346.6,283.0 347.5,286.1 348.3,284.7 349.1,282.5 350.0,284.8 350.8,282.7 351.7,283.2 352.5,284.4 353.3,282.9 354.1,282.8 355.0,283.0 355.8,283.9 356.6,283.3 357.5,282.9 358.3,283.1 359.1,284.4 360.0,286.8 360.8,282.6 361.6,281.9 362.5,280.7 363.3,276.4 364.1,275.4 364.9,278.6 365.8,282.5 366.6,280.7 367.4,282.1 368.2,283.2 369.1,299.2 369.9,283.2 370.7,282.7 371.6,280.1 372.4,280.1 373.2,282.3 374.0,283.2 374.8,274.1 375.6,279.5 376.5,283.8 377.3,279.8 378.1,282.8 378.9,282.1 379.7,282.3 380.5,283.2 381.4,284.1 382.2,282.7 383.0,284.0 383.8,280.4 384.6,280.5 385.5,281.2 386.3,288.3 387.1,282.2 387.9,281.8 388.7,282.2 389.5,281.3 390.3,281.2 391.2,281.5 392.0,253.3 392.8,281.0 393.6,276.3 394.4,281.5 395.2,282.2 396.0,283.5 396.8,283.2 397.6,283.7 398.5,284.3 L398.5,284.5 L37.5,284.5 Z" fill="url(#g714)" clip-path="url(#c716)"/>
  <defs><clipPath id="pc717"><rect x="34" y="207" width="365" height="155"/></clipPath></defs>
  <polyline points="37.5,277.9 70.8,277.9 90.3,277.8 104.1,277.7 114.8,277.4 123.6,277.0 131.0,276.4 137.4,275.1 143.1,272.3 148.1,265.6 152.7,254.2 156.9,250.9 160.7,260.9 164.3,270.5 167.6,274.8 170.7,276.9 173.6,278.0 176.3,278.7 178.9,279.3 181.4,279.7 183.7,280.1 186.0,280.4 188.1,280.8 190.2,281.2 192.1,281.5 194.0,281.9 195.8,282.3 197.6,282.8 199.2,283.2 200.9,283.6 202.4,283.9 204.0,284.2 205.5,284.4 206.9,284.5 208.3,284.5 209.6,284.4 210.9,284.3 212.2,284.1 213.5,283.9 214.7,283.7 215.9,283.5 217.0,283.4 218.2,283.3 219.3,283.3 220.3,283.3 221.4,283.4 222.4,283.5 223.4,283.7 224.4,283.8 225.4,284.0 226.4,284.1 227.3,284.2 228.2,284.4 229.1,284.7 230.0,285.2 230.8,285.7 231.7,286.4 232.5,287.0 233.4,287.4 234.2,287.4 235.7,286.0 237.3,284.0 238.7,282.4 240.2,281.4 241.6,280.9 242.9,280.8 244.2,280.8 245.5,281.1 246.8,281.5 248.0,282.2 249.2,283.8 250.3,287.7 251.4,294.1 252.6,293.4 253.6,287.3 254.7,284.1 255.7,282.9 256.7,282.6 257.7,282.6 258.7,282.8 259.6,283.0 260.6,283.3 261.5,283.6 262.4,283.9 263.3,284.3 264.1,284.6 265.0,284.7 265.8,284.6 266.6,284.3 267.4,283.8 268.6,283.0 269.8,282.6 270.9,282.5 272.0,282.9 273.1,283.2 274.2,283.1 275.2,282.7 276.2,282.5 277.2,283.0 278.2,283.9 279.1,284.9 280.0,285.0 281.0,284.3 281.9,283.6 282.7,283.2 283.6,282.9 284.5,282.4 285.3,281.8 286.1,281.2 286.9,280.7 288.0,280.3 289.0,280.0 290.0,278.6 291.0,272.7 292.0,273.7 292.9,279.7 293.9,281.3 294.8,281.9 295.7,282.1 296.6,282.5 297.4,282.7 298.3,283.1 299.1,284.6 299.9,286.4 300.7,285.5 301.7,283.5 302.7,283.3 303.6,284.2 304.6,283.7 305.5,282.6 306.4,282.3 307.3,282.9 308.1,283.6 309.0,283.9 309.8,283.9 310.6,283.3 311.4,282.9 312.4,283.4 313.3,286.7 314.2,286.7 315.1,283.2 316.0,282.6 316.9,282.9 317.7,283.5 318.6,283.6 319.4,282.8 320.2,282.9 321.1,283.0 322.0,284.0 322.9,285.5 323.8,282.7 324.7,281.5 325.5,283.2 326.3,289.6 327.1,282.0 327.9,281.1 328.8,280.3 329.7,263.2 330.6,279.9 331.4,281.1 332.3,282.6 333.1,288.5 333.9,283.0 334.8,282.1 335.7,284.2 336.5,284.0 337.4,283.1 338.2,281.3 339.0,282.9 339.8,286.6 340.7,282.2 341.6,282.8 342.4,284.0 343.3,281.2 344.1,283.2 344.9,282.8 345.8,283.3 346.6,283.0 347.5,286.1 348.3,284.7 349.1,282.5 350.0,284.8 350.8,282.7 351.7,283.2 352.5,284.4 353.3,282.9 354.1,282.8 355.0,283.0 355.8,283.9 356.6,283.3 357.5,282.9 358.3,283.1 359.1,284.4 360.0,286.8 360.8,282.6 361.6,281.9 362.5,280.7 363.3,276.4 364.1,275.4 364.9,278.6 365.8,282.5 366.6,280.7 367.4,282.1 368.2,283.2 369.1,299.2 369.9,283.2 370.7,282.7 371.6,280.1 372.4,280.1 373.2,282.3 374.0,283.2 374.8,274.1 375.6,279.5 376.5,283.8 377.3,279.8 378.1,282.8 378.9,282.1 379.7,282.3 380.5,283.2 381.4,284.1 382.2,282.7 383.0,284.0 383.8,280.4 384.6,280.5 385.5,281.2 386.3,288.3 387.1,282.2 387.9,281.8 388.7,282.2 389.5,281.3 390.3,281.2 391.2,281.5 392.0,253.3 392.8,281.0 393.6,276.3 394.4,281.5 395.2,282.2 396.0,283.5 396.8,283.2 397.6,283.7 398.5,284.3" fill="none" stroke="#2ecc71" stroke-width="1.5" stroke-linejoin="round" clip-path="url(#pc717)"/>
  <line x1="435" y1="207" x2="435" y2="362" stroke="#d1d5db"/>
  <line x1="435" y1="284.5" x2="800" y2="284.5" stroke="#d1d5db"/>
  <text x="617.5" y="388" text-anchor="middle" font-size="9" fill="#6b7280">Samples</text>
  <text x="413" y="284.5" text-anchor="middle" font-size="9" fill="#6b7280" transform="rotate(-90 413 284.5)">Impulse response</text>
  <line x1="435.0" y1="207" x2="435.0" y2="362" stroke="#e5e7eb" stroke-width="0.5"/>
  <text x="435.0" y="374" text-anchor="middle" font-size="8" fill="#6b7280">0</text>
  <line x1="577.6" y1="207" x2="577.6" y2="362" stroke="#e5e7eb" stroke-width="0.5"/>
  <text x="577.6" y="374" text-anchor="middle" font-size="8" fill="#6b7280">200</text>
  <line x1="720.2" y1="207" x2="720.2" y2="362" stroke="#e5e7eb" stroke-width="0.5"/>
  <text x="720.2" y="374" text-anchor="middle" font-size="8" fill="#6b7280">400</text>
  <line x1="435" y1="346.4" x2="800" y2="346.4" stroke="#e5e7eb" stroke-width="0.5"/>
  <text x="431" y="349.4" text-anchor="end" font-size="8" fill="#6b7280">-0.6</text>
  <text x="431" y="287.5" text-anchor="end" font-size="8" fill="#6b7280">0</text>
  <line x1="435" y1="222.6" x2="800" y2="222.6" stroke="#e5e7eb" stroke-width="0.5"/>
  <text x="431" y="225.6" text-anchor="end" font-size="8" fill="#6b7280">0.6</text>
  <defs><linearGradient id="g718" x1="0" y1="207" x2="0" y2="284.5" gradientUnits="userSpaceOnUse">
    <stop offset="0%" stop-color="#f39c12" stop-opacity="0.15"/>
    <stop offset="100%" stop-color="#f39c12" stop-opacity="0.02"/>
  </linearGradient></defs>
  <defs><linearGradient id="g719" x1="0" y1="362" x2="0" y2="284.5" gradientUnits="userSpaceOnUse">
    <stop offset="0%" stop-color="#f39c12" stop-opacity="0.15"/>
    <stop offset="100%" stop-color="#f39c12" stop-opacity="0.02"/>
  </linearGradient></defs>
  <defs><clipPath id="c720"><rect x="435" y="207" width="365" height="77.5"/></clipPath></defs>
  <defs><clipPath id="c721"><rect x="435" y="284.5" width="365" height="77.5"/></clipPath></defs>
  <path d="M435.0,273.0 435.0,273.0 436.4,284.0 437.9,252.2 439.3,288.8 440.7,273.2 442.1,234.1 443.6,266.6 445.0,283.5 446.4,261.6 447.8,320.9 449.3,332.6 450.7,341.0 452.1,316.3 453.5,271.1 455.0,301.0 456.4,307.9 457.8,277.1 459.2,318.7 460.7,285.4 462.1,264.3 463.5,279.7 464.9,266.4 466.4,300.0 467.8,283.6 469.2,274.1 470.6,274.3 472.1,270.7 473.5,285.3 474.9,256.8 476.3,262.7 477.8,263.6 479.2,273.5 480.6,276.0 482.1,298.1 483.5,289.5 484.9,298.5 486.3,280.2 487.8,286.9 489.2,285.7 490.6,284.3 492.0,261.2 493.5,282.7 494.9,303.9 496.3,284.4 497.7,273.5 499.2,288.8 500.6,276.6 502.0,272.5 503.4,287.5 504.9,284.5 506.3,279.6 507.7,270.3 509.1,277.9 510.6,285.5 512.0,286.5 513.4,284.2 514.8,294.2 516.3,284.7 517.7,279.2 519.1,279.6 520.5,289.8 522.0,284.4 523.4,276.3 524.8,276.9 526.3,282.5 527.7,292.8 529.1,278.5 530.5,285.5 532.0,287.4 533.4,289.3 534.8,283.3 536.2,280.6 537.7,286.7 539.1,283.2 540.5,287.4 541.9,281.0 543.4,283.5 544.8,283.6 546.2,281.8 547.6,283.2 549.1,285.7 550.5,285.0 551.9,279.0 553.3,281.4 554.8,281.7 556.2,283.5 557.6,283.2 559.0,281.0 560.5,284.1 561.9,286.6 563.3,286.4 564.7,284.5 566.2,281.5 567.6,281.0 569.0,283.0 570.4,284.1 571.9,287.9 573.3,285.5 574.7,287.3 576.2,282.7 577.6,284.0 579.0,283.9 580.4,285.0 581.9,284.0 583.3,283.3 584.7,284.3 586.1,283.1 587.6,285.7 589.0,283.9 590.4,283.6 591.8,284.4 593.3,285.1 594.7,284.0 596.1,284.1 597.5,284.4 599.0,286.1 600.4,284.2 601.8,284.3 603.2,284.5 604.7,284.5 606.1,284.9 607.5,284.7 608.9,284.4 610.4,284.6 611.8,285.1 613.2,284.7 614.6,284.4 616.1,284.0 617.5,285.1 618.9,284.8 620.4,284.1 621.8,284.5 623.2,284.0 624.6,284.9 626.1,284.7 627.5,284.7 628.9,283.5 630.3,285.1 631.8,284.2 633.2,284.6 634.6,284.5 636.0,284.3 637.5,284.1 638.9,284.4 640.3,283.9 641.7,284.0 643.2,284.2 644.6,284.5 646.0,284.2 647.4,284.5 648.9,284.2 650.3,285.1 651.7,284.2 653.1,284.9 654.6,284.3 656.0,284.4 657.4,284.1 658.8,284.4 660.3,284.5 661.7,284.5 663.1,284.5 664.6,284.5 666.0,284.6 667.4,284.3 668.8,284.5 670.3,284.3 671.7,284.6 673.1,284.6 674.5,284.7 676.0,284.5 677.4,284.5 678.8,284.3 680.2,284.5 681.7,284.5 683.1,284.6 684.5,284.5 685.9,284.5 687.4,284.5 688.8,284.5 690.2,284.5 691.6,284.6 693.1,284.5 694.5,284.5 695.9,284.5 697.3,284.5 698.8,284.5 700.2,284.6 701.6,284.5 703.0,284.4 704.5,284.4 705.9,284.5 707.3,284.6 708.8,284.6 710.2,284.5 711.6,284.5 713.0,284.5 714.5,284.5 715.9,284.5 717.3,284.5 718.7,284.5 720.2,284.5 721.6,284.4 723.0,284.5 724.4,284.5 725.9,284.5 727.3,284.5 728.7,284.5 730.1,284.5 731.6,284.5 733.0,284.5 734.4,284.5 735.8,284.5 737.3,284.5 738.7,284.5 740.1,284.5 741.5,284.5 743.0,284.5 744.4,284.5 745.8,284.5 747.2,284.5 748.7,284.5 750.1,284.5 751.5,284.5 752.9,284.5 754.4,284.5 755.8,284.5 757.2,284.5 758.7,284.5 760.1,284.5 761.5,284.5 762.9,284.5 764.4,284.5 765.8,284.5 767.2,284.5 768.6,284.5 770.1,284.5 771.5,284.5 772.9,284.5 774.3,284.5 775.8,284.5 777.2,284.5 778.6,284.5 780.0,284.5 781.5,284.5 782.9,284.5 784.3,284.5 785.7,284.5 787.2,284.5 788.6,284.5 790.0,284.5 791.4,284.5 792.9,284.5 794.3,284.5 795.7,284.5 797.1,284.5 798.6,284.5 799.3,284.5 L799.3,284.5 L435.0,284.5 Z" fill="url(#g718)" clip-path="url(#c720)"/>
  <path d="M435.0,273.0 435.0,273.0 436.4,284.0 437.9,252.2 439.3,288.8 440.7,273.2 442.1,234.1 443.6,266.6 445.0,283.5 446.4,261.6 447.8,320.9 449.3,332.6 450.7,341.0 452.1,316.3 453.5,271.1 455.0,301.0 456.4,307.9 457.8,277.1 459.2,318.7 460.7,285.4 462.1,264.3 463.5,279.7 464.9,266.4 466.4,300.0 467.8,283.6 469.2,274.1 470.6,274.3 472.1,270.7 473.5,285.3 474.9,256.8 476.3,262.7 477.8,263.6 479.2,273.5 480.6,276.0 482.1,298.1 483.5,289.5 484.9,298.5 486.3,280.2 487.8,286.9 489.2,285.7 490.6,284.3 492.0,261.2 493.5,282.7 494.9,303.9 496.3,284.4 497.7,273.5 499.2,288.8 500.6,276.6 502.0,272.5 503.4,287.5 504.9,284.5 506.3,279.6 507.7,270.3 509.1,277.9 510.6,285.5 512.0,286.5 513.4,284.2 514.8,294.2 516.3,284.7 517.7,279.2 519.1,279.6 520.5,289.8 522.0,284.4 523.4,276.3 524.8,276.9 526.3,282.5 527.7,292.8 529.1,278.5 530.5,285.5 532.0,287.4 533.4,289.3 534.8,283.3 536.2,280.6 537.7,286.7 539.1,283.2 540.5,287.4 541.9,281.0 543.4,283.5 544.8,283.6 546.2,281.8 547.6,283.2 549.1,285.7 550.5,285.0 551.9,279.0 553.3,281.4 554.8,281.7 556.2,283.5 557.6,283.2 559.0,281.0 560.5,284.1 561.9,286.6 563.3,286.4 564.7,284.5 566.2,281.5 567.6,281.0 569.0,283.0 570.4,284.1 571.9,287.9 573.3,285.5 574.7,287.3 576.2,282.7 577.6,284.0 579.0,283.9 580.4,285.0 581.9,284.0 583.3,283.3 584.7,284.3 586.1,283.1 587.6,285.7 589.0,283.9 590.4,283.6 591.8,284.4 593.3,285.1 594.7,284.0 596.1,284.1 597.5,284.4 599.0,286.1 600.4,284.2 601.8,284.3 603.2,284.5 604.7,284.5 606.1,284.9 607.5,284.7 608.9,284.4 610.4,284.6 611.8,285.1 613.2,284.7 614.6,284.4 616.1,284.0 617.5,285.1 618.9,284.8 620.4,284.1 621.8,284.5 623.2,284.0 624.6,284.9 626.1,284.7 627.5,284.7 628.9,283.5 630.3,285.1 631.8,284.2 633.2,284.6 634.6,284.5 636.0,284.3 637.5,284.1 638.9,284.4 640.3,283.9 641.7,284.0 643.2,284.2 644.6,284.5 646.0,284.2 647.4,284.5 648.9,284.2 650.3,285.1 651.7,284.2 653.1,284.9 654.6,284.3 656.0,284.4 657.4,284.1 658.8,284.4 660.3,284.5 661.7,284.5 663.1,284.5 664.6,284.5 666.0,284.6 667.4,284.3 668.8,284.5 670.3,284.3 671.7,284.6 673.1,284.6 674.5,284.7 676.0,284.5 677.4,284.5 678.8,284.3 680.2,284.5 681.7,284.5 683.1,284.6 684.5,284.5 685.9,284.5 687.4,284.5 688.8,284.5 690.2,284.5 691.6,284.6 693.1,284.5 694.5,284.5 695.9,284.5 697.3,284.5 698.8,284.5 700.2,284.6 701.6,284.5 703.0,284.4 704.5,284.4 705.9,284.5 707.3,284.6 708.8,284.6 710.2,284.5 711.6,284.5 713.0,284.5 714.5,284.5 715.9,284.5 717.3,284.5 718.7,284.5 720.2,284.5 721.6,284.4 723.0,284.5 724.4,284.5 725.9,284.5 727.3,284.5 728.7,284.5 730.1,284.5 731.6,284.5 733.0,284.5 734.4,284.5 735.8,284.5 737.3,284.5 738.7,284.5 740.1,284.5 741.5,284.5 743.0,284.5 744.4,284.5 745.8,284.5 747.2,284.5 748.7,284.5 750.1,284.5 751.5,284.5 752.9,284.5 754.4,284.5 755.8,284.5 757.2,284.5 758.7,284.5 760.1,284.5 761.5,284.5 762.9,284.5 764.4,284.5 765.8,284.5 767.2,284.5 768.6,284.5 770.1,284.5 771.5,284.5 772.9,284.5 774.3,284.5 775.8,284.5 777.2,284.5 778.6,284.5 780.0,284.5 781.5,284.5 782.9,284.5 784.3,284.5 785.7,284.5 787.2,284.5 788.6,284.5 790.0,284.5 791.4,284.5 792.9,284.5 794.3,284.5 795.7,284.5 797.1,284.5 798.6,284.5 799.3,284.5 L799.3,284.5 L435.0,284.5 Z" fill="url(#g719)" clip-path="url(#c721)"/>
  <defs><clipPath id="pc722"><rect x="435" y="207" width="365" height="155"/></clipPath></defs>
  <polyline points="435.0,273.0 436.4,284.0 437.9,252.2 439.3,288.8 440.7,273.2 442.1,234.1 443.6,266.6 445.0,283.5 446.4,261.6 447.8,320.9 449.3,332.6 450.7,341.0 452.1,316.3 453.5,271.1 455.0,301.0 456.4,307.9 457.8,277.1 459.2,318.7 460.7,285.4 462.1,264.3 463.5,279.7 464.9,266.4 466.4,300.0 467.8,283.6 469.2,274.1 470.6,274.3 472.1,270.7 473.5,285.3 474.9,256.8 476.3,262.7 477.8,263.6 479.2,273.5 480.6,276.0 482.1,298.1 483.5,289.5 484.9,298.5 486.3,280.2 487.8,286.9 489.2,285.7 490.6,284.3 492.0,261.2 493.5,282.7 494.9,303.9 496.3,284.4 497.7,273.5 499.2,288.8 500.6,276.6 502.0,272.5 503.4,287.5 504.9,284.5 506.3,279.6 507.7,270.3 509.1,277.9 510.6,285.5 512.0,286.5 513.4,284.2 514.8,294.2 516.3,284.7 517.7,279.2 519.1,279.6 520.5,289.8 522.0,284.4 523.4,276.3 524.8,276.9 526.3,282.5 527.7,292.8 529.1,278.5 530.5,285.5 532.0,287.4 533.4,289.3 534.8,283.3 536.2,280.6 537.7,286.7 539.1,283.2 540.5,287.4 541.9,281.0 543.4,283.5 544.8,283.6 546.2,281.8 547.6,283.2 549.1,285.7 550.5,285.0 551.9,279.0 553.3,281.4 554.8,281.7 556.2,283.5 557.6,283.2 559.0,281.0 560.5,284.1 561.9,286.6 563.3,286.4 564.7,284.5 566.2,281.5 567.6,281.0 569.0,283.0 570.4,284.1 571.9,287.9 573.3,285.5 574.7,287.3 576.2,282.7 577.6,284.0 579.0,283.9 580.4,285.0 581.9,284.0 583.3,283.3 584.7,284.3 586.1,283.1 587.6,285.7 589.0,283.9 590.4,283.6 591.8,284.4 593.3,285.1 594.7,284.0 596.1,284.1 597.5,284.4 599.0,286.1 600.4,284.2 601.8,284.3 603.2,284.5 604.7,284.5 606.1,284.9 607.5,284.7 608.9,284.4 610.4,284.6 611.8,285.1 613.2,284.7 614.6,284.4 616.1,284.0 617.5,285.1 618.9,284.8 620.4,284.1 621.8,284.5 623.2,284.0 624.6,284.9 626.1,284.7 627.5,284.7 628.9,283.5 630.3,285.1 631.8,284.2 633.2,284.6 634.6,284.5 636.0,284.3 637.5,284.1 638.9,284.4 640.3,283.9 641.7,284.0 643.2,284.2 644.6,284.5 646.0,284.2 647.4,284.5 648.9,284.2 650.3,285.1 651.7,284.2 653.1,284.9 654.6,284.3 656.0,284.4 657.4,284.1 658.8,284.4 660.3,284.5 661.7,284.5 663.1,284.5 664.6,284.5 666.0,284.6 667.4,284.3 668.8,284.5 670.3,284.3 671.7,284.6 673.1,284.6 674.5,284.7 676.0,284.5 677.4,284.5 678.8,284.3 680.2,284.5 681.7,284.5 683.1,284.6 684.5,284.5 685.9,284.5 687.4,284.5 688.8,284.5 690.2,284.5 691.6,284.6 693.1,284.5 694.5,284.5 695.9,284.5 697.3,284.5 698.8,284.5 700.2,284.6 701.6,284.5 703.0,284.4 704.5,284.4 705.9,284.5 707.3,284.6 708.8,284.6 710.2,284.5 711.6,284.5 713.0,284.5 714.5,284.5 715.9,284.5 717.3,284.5 718.7,284.5 720.2,284.5 721.6,284.4 723.0,284.5 724.4,284.5 725.9,284.5 727.3,284.5 728.7,284.5 730.1,284.5 731.6,284.5 733.0,284.5 734.4,284.5 735.8,284.5 737.3,284.5 738.7,284.5 740.1,284.5 741.5,284.5 743.0,284.5 744.4,284.5 745.8,284.5 747.2,284.5 748.7,284.5 750.1,284.5 751.5,284.5 752.9,284.5 754.4,284.5 755.8,284.5 757.2,284.5 758.7,284.5 760.1,284.5 761.5,284.5 762.9,284.5 764.4,284.5 765.8,284.5 767.2,284.5 768.6,284.5 770.1,284.5 771.5,284.5 772.9,284.5 774.3,284.5 775.8,284.5 777.2,284.5 778.6,284.5 780.0,284.5 781.5,284.5 782.9,284.5 784.3,284.5 785.7,284.5 787.2,284.5 788.6,284.5 790.0,284.5 791.4,284.5 792.9,284.5 794.3,284.5 795.7,284.5 797.1,284.5 798.6,284.5 799.3,284.5" fill="none" stroke="#f39c12" stroke-width="1.3" stroke-linejoin="round" clip-path="url(#pc722)"/>
</svg>
