<svg xmlns="http://www.w3.org/2000/svg" viewBox="0 0 820 392" style="font-family:system-ui,-apple-system,sans-serif">
  <text x="800" y="11" text-anchor="end" font-size="11" font-weight="600" fill="#6b7280">Matched filter (raised cosine template)</text>
  <line x1="34" y1="16" x2="34" y2="171" stroke="#d1d5db"/>
  <line x1="34" y1="47.0" x2="392" y2="47.0" stroke="#d1d5db"/>
  <text x="213" y="197" text-anchor="middle" font-size="9" fill="#6b7280">Hz</text>
  <text x="12" y="93.5" text-anchor="middle" font-size="9" fill="#6b7280" transform="rotate(-90 12 93.5)">dB</text>
  <line x1="66.6" y1="16" x2="66.6" y2="171" stroke="#e5e7eb" stroke-width="0.5"/>
  <line x1="85.7" y1="16" x2="85.7" y2="171" stroke="#e5e7eb" stroke-width="0.5"/>
  <line x1="99.3" y1="16" x2="99.3" y2="171" stroke="#e5e7eb" stroke-width="0.5"/>
  <line x1="109.8" y1="16" x2="109.8" y2="171" stroke="#e5e7eb" stroke-width="0.5"/>
  <line x1="118.4" y1="16" x2="118.4" y2="171" stroke="#e5e7eb" stroke-width="0.5"/>
  <line x1="125.7" y1="16" x2="125.7" y2="171" stroke="#e5e7eb" stroke-width="0.5"/>
  <line x1="131.9" y1="16" x2="131.9" y2="171" stroke="#e5e7eb" stroke-width="0.5"/>
  <line x1="137.5" y1="16" x2="137.5" y2="171" stroke="#e5e7eb" stroke-width="0.5"/>
  <line x1="175.1" y1="16" x2="175.1" y2="171" stroke="#e5e7eb" stroke-width="0.5"/>
  <line x1="194.2" y1="16" x2="194.2" y2="171" stroke="#e5e7eb" stroke-width="0.5"/>
  <line x1="207.7" y1="16" x2="207.7" y2="171" stroke="#e5e7eb" stroke-width="0.5"/>
  <line x1="218.3" y1="16" x2="218.3" y2="171" stroke="#e5e7eb" stroke-width="0.5"/>
  <line x1="226.8" y1="16" x2="226.8" y2="171" stroke="#e5e7eb" stroke-width="0.5"/>
  <line x1="234.1" y1="16" x2="234.1" y2="171" stroke="#e5e7eb" stroke-width="0.5"/>
  <line x1="240.4" y1="16" x2="240.4" y2="171" stroke="#e5e7eb" stroke-width="0.5"/>
  <line x1="245.9" y1="16" x2="245.9" y2="171" stroke="#e5e7eb" stroke-width="0.5"/>
  <line x1="283.5" y1="16" x2="283.5" y2="171" stroke="#e5e7eb" stroke-width="0.5"/>
  <line x1="302.6" y1="16" x2="302.6" y2="171" stroke="#e5e7eb" stroke-width="0.5"/>
  <line x1="316.2" y1="16" x2="316.2" y2="171" stroke="#e5e7eb" stroke-width="0.5"/>
  <line x1="326.7" y1="16" x2="326.7" y2="171" stroke="#e5e7eb" stroke-width="0.5"/>
  <line x1="335.3" y1="16" x2="335.3" y2="171" stroke="#e5e7eb" stroke-width="0.5"/>
  <line x1="342.6" y1="16" x2="342.6" y2="171" stroke="#e5e7eb" stroke-width="0.5"/>
  <line x1="348.8" y1="16" x2="348.8" y2="171" stroke="#e5e7eb" stroke-width="0.5"/>
  <line x1="354.4" y1="16" x2="354.4" y2="171" stroke="#e5e7eb" stroke-width="0.5"/>
  <line x1="392.0" y1="16" x2="392.0" y2="171" stroke="#e5e7eb" stroke-width="0.5"/>
  <line x1="142.5" y1="16" x2="142.5" y2="171" stroke="#e5e7eb" stroke-width="0.5"/>
  <text x="142.5" y="183" text-anchor="middle" font-size="8" fill="#6b7280">100</text>
  <line x1="250.9" y1="16" x2="250.9" y2="171" stroke="#e5e7eb" stroke-width="0.5"/>
  <text x="250.9" y="183" text-anchor="middle" font-size="8" fill="#6b7280">1k</text>
  <line x1="359.4" y1="16" x2="359.4" y2="171" stroke="#e5e7eb" stroke-width="0.5"/>
  <text x="359.4" y="183" text-anchor="middle" font-size="8" fill="#6b7280">10k</text>
  <line x1="34" y1="31.5" x2="392" y2="31.5" stroke="#e5e7eb" stroke-width="0.5"/>
  <line x1="34" y1="62.5" x2="392" y2="62.5" stroke="#e5e7eb" stroke-width="0.5"/>
  <line x1="34" y1="16.0" x2="392" y2="16.0" stroke="#e5e7eb" stroke-width="0.5"/>
  <text x="30" y="19.0" text-anchor="end" font-size="8" fill="#6b7280">+20</text>
  <text x="30" y="50.0" text-anchor="end" font-size="8" fill="#6b7280">0</text>
  <line x1="34" y1="78.0" x2="392" y2="78.0" stroke="#e5e7eb" stroke-width="0.5"/>
  <text x="30" y="81.0" text-anchor="end" font-size="8" fill="#6b7280">-20</text>
  <line x1="34" y1="109.0" x2="392" y2="109.0" stroke="#e5e7eb" stroke-width="0.5"/>
  <text x="30" y="112.0" text-anchor="end" font-size="8" fill="#6b7280">-40</text>
  <line x1="34" y1="140.0" x2="392" y2="140.0" stroke="#e5e7eb" stroke-width="0.5"/>
  <text x="30" y="143.0" text-anchor="end" font-size="8" fill="#6b7280">-60</text>
  <line x1="34" y1="171.0" x2="392" y2="171.0" stroke="#e5e7eb" stroke-width="0.5"/>
  <text x="30" y="174.0" text-anchor="end" font-size="8" fill="#6b7280">-80</text>
  <defs><linearGradient id="g625" x1="0" y1="16" x2="0" y2="171" gradientUnits="userSpaceOnUse">
    <stop offset="0%" stop-color="#4a90d9" stop-opacity="0.15"/>
    <stop offset="100%" stop-color="#4a90d9" stop-opacity="0.02"/>
  </linearGradient></defs>
  <path d="M37.5,37.1 37.5,37.1 70.1,37.1 89.2,37.1 102.8,37.1 113.3,37.1 121.9,37.1 129.1,37.1 135.4,37.1 141.0,37.1 145.9,37.1 150.4,37.1 154.5,37.1 158.3,37.1 161.8,37.1 165.0,37.1 168.1,37.1 170.9,37.1 173.6,37.1 176.2,37.1 178.6,37.1 180.9,37.1 183.1,37.1 185.2,37.1 187.2,37.1 189.1,37.1 190.9,37.1 192.7,37.1 194.4,37.1 196.1,37.1 197.7,37.1 199.2,37.1 200.7,37.1 202.2,37.1 203.6,37.1 204.9,37.1 206.3,37.1 207.6,37.1 208.8,37.1 210.0,37.1 211.2,37.1 212.4,37.1 213.5,37.1 214.6,37.1 215.7,37.1 216.8,37.1 217.8,37.1 218.8,37.1 219.8,37.1 220.8,37.0 221.7,37.0 222.7,37.0 223.6,37.0 224.5,37.0 225.4,37.0 226.2,37.0 227.1,37.0 227.9,37.0 228.7,37.0 229.5,37.0 231.1,37.0 232.6,37.0 234.1,37.0 235.5,37.0 236.9,37.0 238.2,37.0 239.6,37.0 240.8,37.0 242.1,37.0 243.3,37.0 244.5,37.0 245.6,37.0 246.7,37.0 247.8,37.0 248.9,37.0 249.9,37.0 251.0,37.0 252.0,37.0 252.9,37.0 253.9,37.0 254.8,37.0 255.8,37.0 256.7,37.0 257.6,37.0 258.4,37.0 259.3,37.0 260.1,37.0 261.0,37.0 261.8,37.0 263.0,37.0 264.1,37.0 265.3,37.0 266.4,37.0 267.5,37.0 268.5,37.0 269.6,37.0 270.6,37.1 271.6,37.1 272.5,37.1 273.5,37.1 274.4,37.1 275.3,37.1 276.2,37.1 277.1,37.1 278.0,37.1 278.8,37.1 279.6,37.1 280.5,37.1 281.3,37.1 282.3,37.1 283.4,37.1 284.4,37.1 285.3,37.1 286.3,37.1 287.3,37.1 288.2,37.1 289.1,37.1 290.0,37.1 290.9,37.1 291.7,37.1 292.6,37.1 293.4,37.1 294.2,37.1 295.0,37.1 296.0,37.0 297.0,37.0 297.9,37.0 298.8,37.0 299.7,37.0 300.6,37.0 301.5,37.0 302.4,37.0 303.2,37.0 304.0,37.0 304.9,37.0 305.8,37.0 306.7,37.0 307.7,37.0 308.6,37.0 309.5,37.0 310.3,37.0 311.2,37.1 312.0,37.1 312.8,37.2 313.7,37.2 314.6,37.3 315.5,37.4 316.4,37.6 317.3,37.7 318.1,37.9 319.0,38.1 319.8,38.3 320.6,38.5 321.4,38.8 322.3,39.2 323.2,39.6 324.1,40.0 324.9,40.5 325.7,41.0 326.6,41.6 327.4,42.2 328.3,43.0 329.1,43.8 330.0,44.8 330.8,45.8 331.7,46.9 332.5,48.1 333.3,49.4 334.2,50.9 335.0,52.6 335.9,54.5 336.7,56.5 337.5,58.7 338.4,61.4 339.2,64.3 340.1,67.6 340.9,71.3 341.7,75.5 342.5,80.4 343.4,87.0 344.2,95.6 345.1,109.8 345.9,128.7 346.7,110.0 347.6,106.0 348.4,106.0 349.2,108.5 350.0,113.7 350.9,124.7 351.7,148.3 352.6,123.5 353.4,117.7 354.2,116.0 355.1,116.9 355.9,120.3 356.7,127.4 357.6,149.0 358.4,136.4 359.2,126.9 360.0,123.8 360.9,123.9 361.7,126.8 362.5,133.9 363.3,159.2 364.2,140.2 365.0,131.7 365.8,129.2 366.6,130.1 367.4,135.0 368.3,147.9 369.1,151.3 369.9,137.5 370.7,133.7 371.5,134.2 372.4,139.4 373.2,155.8 374.0,149.7 374.8,139.2 375.6,136.8 376.4,139.5 377.2,149.8 378.1,160.4 378.9,143.1 379.7,139.4 380.5,141.8 381.3,153.2 382.1,158.1 383.0,143.9 383.8,141.5 384.6,146.2 385.4,171.0 386.2,149.6 387.0,143.1 387.9,145.2 388.7,161.9 389.5,153.2 390.3,144.3 391.1,146.0 391.9,164.5 L391.9,171.0 L37.5,171.0 Z" fill="url(#g625)"/>
  <defs><clipPath id="pc626"><rect x="34" y="16" width="358" height="155"/></clipPath></defs>
  <polyline points="37.5,37.1 70.1,37.1 89.2,37.1 102.8,37.1 113.3,37.1 121.9,37.1 129.1,37.1 135.4,37.1 141.0,37.1 145.9,37.1 150.4,37.1 154.5,37.1 158.3,37.1 161.8,37.1 165.0,37.1 168.1,37.1 170.9,37.1 173.6,37.1 176.2,37.1 178.6,37.1 180.9,37.1 183.1,37.1 185.2,37.1 187.2,37.1 189.1,37.1 190.9,37.1 192.7,37.1 194.4,37.1 196.1,37.1 197.7,37.1 199.2,37.1 200.7,37.1 202.2,37.1 203.6,37.1 204.9,37.1 206.3,37.1 207.6,37.1 208.8,37.1 210.0,37.1 211.2,37.1 212.4,37.1 213.5,37.1 214.6,37.1 215.7,37.1 216.8,37.1 217.8,37.1 218.8,37.1 219.8,37.1 220.8,37.0 221.7,37.0 222.7,37.0 223.6,37.0 224.5,37.0 225.4,37.0 226.2,37.0 227.1,37.0 227.9,37.0 228.7,37.0 229.5,37.0 231.1,37.0 232.6,37.0 234.1,37.0 235.5,37.0 236.9,37.0 238.2,37.0 239.6,37.0 240.8,37.0 242.1,37.0 243.3,37.0 244.5,37.0 245.6,37.0 246.7,37.0 247.8,37.0 248.9,37.0 249.9,37.0 251.0,37.0 252.0,37.0 252.9,37.0 253.9,37.0 254.8,37.0 255.8,37.0 256.7,37.0 257.6,37.0 258.4,37.0 259.3,37.0 260.1,37.0 261.0,37.0 261.8,37.0 263.0,37.0 264.1,37.0 265.3,37.0 266.4,37.0 267.5,37.0 268.5,37.0 269.6,37.0 270.6,37.1 271.6,37.1 272.5,37.1 273.5,37.1 274.4,37.1 275.3,37.1 276.2,37.1 277.1,37.1 278.0,37.1 278.8,37.1 279.6,37.1 280.5,37.1 281.3,37.1 282.3,37.1 283.4,37.1 284.4,37.1 285.3,37.1 286.3,37.1 287.3,37.1 288.2,37.1 289.1,37.1 290.0,37.1 290.9,37.1 291.7,37.1 292.6,37.1 293.4,37.1 294.2,37.1 295.0,37.1 296.0,37.0 297.0,37.0 297.9,37.0 298.8,37.0 299.7,37.0 300.6,37.0 301.5,37.0 302.4,37.0 303.2,37.0 304.0,37.0 304.9,37.0 305.8,37.0 306.7,37.0 307.7,37.0 308.6,37.0 309.5,37.0 310.3,37.0 311.2,37.1 312.0,37.1 312.8,37.2 313.7,37.2 314.6,37.3 315.5,37.4 316.4,37.6 317.3,37.7 318.1,37.9 319.0,38.1 319.8,38.3 320.6,38.5 321.4,38.8 322.3,39.2 323.2,39.6 324.1,40.0 324.9,40.5 325.7,41.0 326.6,41.6 327.4,42.2 328.3,43.0 329.1,43.8 330.0,44.8 330.8,45.8 331.7,46.9 332.5,48.1 333.3,49.4 334.2,50.9 335.0,52.6 335.9,54.5 336.7,56.5 337.5,58.7 338.4,61.4 339.2,64.3 340.1,67.6 340.9,71.3 341.7,75.5 342.5,80.4 343.4,87.0 344.2,95.6 345.1,109.8 345.9,128.7 346.7,110.0 347.6,106.0 348.4,106.0 349.2,108.5 350.0,113.7 350.9,124.7 351.7,148.3 352.6,123.5 353.4,117.7 354.2,116.0 355.1,116.9 355.9,120.3 356.7,127.4 357.6,149.0 358.4,136.4 359.2,126.9 360.0,123.8 360.9,123.9 361.7,126.8 362.5,133.9 363.3,159.2 364.2,140.2 365.0,131.7 365.8,129.2 366.6,130.1 367.4,135.0 368.3,147.9 369.1,151.3 369.9,137.5 370.7,133.7 371.5,134.2 372.4,139.4 373.2,155.8 374.0,149.7 374.8,139.2 375.6,136.8 376.4,139.5 377.2,149.8 378.1,160.4 378.9,143.1 379.7,139.4 380.5,141.8 381.3,153.2 382.1,158.1 383.0,143.9 383.8,141.5 384.6,146.2 385.4,174.8 386.2,149.6 387.0,143.1 387.9,145.2 388.7,161.9 389.5,153.2 390.3,144.3 391.1,146.0 391.9,164.5" fill="none" stroke="#4a90d9" stroke-width="1.5" stroke-linejoin="round" clip-path="url(#pc626)"/>
  <line x1="442" y1="16" x2="442" y2="171" stroke="#d1d5db"/>
  <line x1="442" y1="93.5" x2="800" y2="93.5" stroke="#d1d5db"/>
  <text x="621" y="197" text-anchor="middle" font-size="9" fill="#6b7280">Hz</text>
  <text x="420" y="93.5" text-anchor="middle" font-size="9" fill="#6b7280" transform="rotate(-90 420 93.5)">Phase (deg)</text>
  <line x1="474.6" y1="16" x2="474.6" y2="171" stroke="#e5e7eb" stroke-width="0.5"/>
  <line x1="493.7" y1="16" x2="493.7" y2="171" stroke="#e5e7eb" stroke-width="0.5"/>
  <line x1="507.3" y1="16" x2="507.3" y2="171" stroke="#e5e7eb" stroke-width="0.5"/>
  <line x1="517.8" y1="16" x2="517.8" y2="171" stroke="#e5e7eb" stroke-width="0.5"/>
  <line x1="526.4" y1="16" x2="526.4" y2="171" stroke="#e5e7eb" stroke-width="0.5"/>
  <line x1="533.7" y1="16" x2="533.7" y2="171" stroke="#e5e7eb" stroke-width="0.5"/>
  <line x1="539.9" y1="16" x2="539.9" y2="171" stroke="#e5e7eb" stroke-width="0.5"/>
  <line x1="545.5" y1="16" x2="545.5" y2="171" stroke="#e5e7eb" stroke-width="0.5"/>
  <line x1="583.1" y1="16" x2="583.1" y2="171" stroke="#e5e7eb" stroke-width="0.5"/>
  <line x1="602.2" y1="16" x2="602.2" y2="171" stroke="#e5e7eb" stroke-width="0.5"/>
  <line x1="615.7" y1="16" x2="615.7" y2="171" stroke="#e5e7eb" stroke-width="0.5"/>
  <line x1="626.3" y1="16" x2="626.3" y2="171" stroke="#e5e7eb" stroke-width="0.5"/>
  <line x1="634.8" y1="16" x2="634.8" y2="171" stroke="#e5e7eb" stroke-width="0.5"/>
  <line x1="642.1" y1="16" x2="642.1" y2="171" stroke="#e5e7eb" stroke-width="0.5"/>
  <line x1="648.4" y1="16" x2="648.4" y2="171" stroke="#e5e7eb" stroke-width="0.5"/>
  <line x1="653.9" y1="16" x2="653.9" y2="171" stroke="#e5e7eb" stroke-width="0.5"/>
  <line x1="691.5" y1="16" x2="691.5" y2="171" stroke="#e5e7eb" stroke-width="0.5"/>
  <line x1="710.6" y1="16" x2="710.6" y2="171" stroke="#e5e7eb" stroke-width="0.5"/>
  <line x1="724.2" y1="16" x2="724.2" y2="171" stroke="#e5e7eb" stroke-width="0.5"/>
  <line x1="734.7" y1="16" x2="734.7" y2="171" stroke="#e5e7eb" stroke-width="0.5"/>
  <line x1="743.3" y1="16" x2="743.3" y2="171" stroke="#e5e7eb" stroke-width="0.5"/>
  <line x1="750.6" y1="16" x2="750.6" y2="171" stroke="#e5e7eb" stroke-width="0.5"/>
  <line x1="756.8" y1="16" x2="756.8" y2="171" stroke="#e5e7eb" stroke-width="0.5"/>
  <line x1="762.4" y1="16" x2="762.4" y2="171" stroke="#e5e7eb" stroke-width="0.5"/>
  <line x1="800.0" y1="16" x2="800.0" y2="171" stroke="#e5e7eb" stroke-width="0.5"/>
  <line x1="550.5" y1="16" x2="550.5" y2="171" stroke="#e5e7eb" stroke-width="0.5"/>
  <text x="550.5" y="183" text-anchor="middle" font-size="8" fill="#6b7280">100</text>
  <line x1="658.9" y1="16" x2="658.9" y2="171" stroke="#e5e7eb" stroke-width="0.5"/>
  <text x="658.9" y="183" text-anchor="middle" font-size="8" fill="#6b7280">1k</text>
  <line x1="767.4" y1="16" x2="767.4" y2="171" stroke="#e5e7eb" stroke-width="0.5"/>
  <text x="767.4" y="183" text-anchor="middle" font-size="8" fill="#6b7280">10k</text>
  <line x1="442" y1="54.8" x2="800" y2="54.8" stroke="#e5e7eb" stroke-width="0.5"/>
  <line x1="442" y1="132.3" x2="800" y2="132.3" stroke="#e5e7eb" stroke-width="0.5"/>
  <line x1="442" y1="16.0" x2="800" y2="16.0" stroke="#e5e7eb" stroke-width="0.5"/>
  <text x="438" y="19.0" text-anchor="end" font-size="8" fill="#6b7280">180</text>
  <text x="438" y="96.5" text-anchor="end" font-size="8" fill="#6b7280">0</text>
  <line x1="442" y1="171.0" x2="800" y2="171.0" stroke="#e5e7eb" stroke-width="0.5"/>
  <text x="438" y="174.0" text-anchor="end" font-size="8" fill="#6b7280">-180</text>
  <defs><linearGradient id="g627" x1="0" y1="16" x2="0" y2="93.5" gradientUnits="userSpaceOnUse">
    <stop offset="0%" stop-color="#e74c3c" stop-opacity="0.15"/>
    <stop offset="100%" stop-color="#e74c3c" stop-opacity="0.02"/>
  </linearGradient></defs>
  <defs><linearGradient id="g628" x1="0" y1="171" x2="0" y2="93.5" gradientUnits="userSpaceOnUse">
    <stop offset="0%" stop-color="#e74c3c" stop-opacity="0.15"/>
    <stop offset="100%" stop-color="#e74c3c" stop-opacity="0.02"/>
  </linearGradient></defs>
  <defs><clipPath id="c629"><rect x="442" y="16" width="358" height="77.5"/></clipPath></defs>
  <defs><clipPath id="c630"><rect x="442" y="93.5" width="358" height="77.5"/></clipPath></defs>
  <path d="M445.5,94.1 445.5,94.1 478.1,94.7 497.2,95.3 510.8,95.9 521.3,96.5 529.9,97.1 537.1,97.7 543.4,98.3 549.0,98.9 553.9,99.6 558.4,100.2 562.5,100.8 566.3,101.4 569.8,102.0 573.0,102.6 576.1,103.2 578.9,103.8 581.6,104.4 584.2,105.0 586.6,105.6 588.9,106.2 591.1,106.8 593.2,107.4 595.2,108.0 597.1,108.6 598.9,109.2 600.7,109.8 602.4,110.5 604.1,111.1 605.7,111.7 607.2,112.3 608.7,112.9 610.2,113.5 611.6,114.1 612.9,114.7 614.3,115.3 615.6,115.9 616.8,116.5 618.0,117.1 619.2,117.7 620.4,118.3 621.5,118.9 622.6,119.5 623.7,120.1 624.8,120.7 625.8,121.4 626.8,122.0 627.8,122.6 628.8,123.2 629.7,123.8 630.7,124.4 631.6,125.0 632.5,125.6 633.4,126.2 634.2,126.8 635.1,127.4 635.9,128.0 636.7,128.6 637.5,129.2 639.1,130.4 640.6,131.6 642.1,132.9 643.5,134.1 644.9,135.3 646.2,136.5 647.6,137.7 648.8,138.9 650.1,140.1 651.3,141.3 652.5,142.5 653.6,143.8 654.7,145.0 655.8,146.2 656.9,147.4 657.9,148.6 659.0,149.8 660.0,151.0 660.9,152.2 661.9,153.4 662.8,154.7 663.8,155.9 664.7,157.1 665.6,158.3 666.4,159.5 667.3,160.7 668.1,161.9 669.0,163.1 669.8,164.3 671.0,166.2 672.1,168.0 673.3,169.8 674.4,16.6 675.5,18.4 676.5,20.2 677.6,22.1 678.6,23.9 679.6,25.7 680.5,27.5 681.5,29.3 682.4,31.1 683.3,33.0 684.2,34.8 685.1,36.6 686.0,38.4 686.8,40.2 687.6,42.0 688.5,43.9 689.3,45.7 690.3,48.1 691.4,50.5 692.4,52.9 693.3,55.4 694.3,57.8 695.3,60.2 696.2,62.6 697.1,65.0 698.0,67.5 698.9,69.9 699.7,72.3 700.6,74.7 701.4,77.2 702.2,79.6 703.0,82.0 704.0,85.0 705.0,88.1 705.9,91.1 706.8,94.1 707.7,97.1 708.6,100.2 709.5,103.2 710.4,106.2 711.2,109.2 712.0,112.3 712.9,115.3 713.8,118.9 714.7,122.6 715.7,126.2 716.6,129.8 717.5,133.5 718.3,137.1 719.2,140.7 720.0,144.4 720.8,148.0 721.7,151.6 722.6,155.9 723.5,160.1 724.4,164.3 725.3,168.6 726.1,17.8 727.0,22.1 727.8,26.3 728.6,30.5 729.4,34.8 730.3,39.6 731.2,44.5 732.1,49.3 732.9,54.1 733.7,59.0 734.6,63.8 735.4,68.7 736.3,74.1 737.1,79.6 738.0,85.0 738.8,90.5 739.7,95.9 740.5,101.4 741.3,106.8 742.2,112.9 743.0,118.9 743.9,125.0 744.7,131.0 745.5,137.1 746.4,143.8 747.2,150.4 748.1,157.1 748.9,163.7 749.7,170.4 750.5,22.1 751.4,29.3 752.2,36.6 753.1,43.9 753.9,128.6 754.7,135.9 755.6,143.8 756.4,151.6 757.2,159.5 758.0,167.4 758.9,20.8 759.7,106.8 760.6,115.3 761.4,123.8 762.2,132.9 763.1,141.9 763.9,151.0 764.7,160.1 765.6,169.8 766.4,102.0 767.2,111.7 768.0,121.4 768.9,131.6 769.7,141.9 770.5,152.2 771.3,163.1 772.2,96.5 773.0,107.4 773.8,118.3 774.6,129.8 775.4,141.3 776.3,152.8 777.1,87.4 777.9,99.6 778.7,111.7 779.5,124.4 780.4,137.1 781.2,149.8 782.0,85.6 782.8,98.9 783.6,112.9 784.4,126.8 785.2,140.7 786.1,77.8 786.9,92.3 787.7,107.4 788.5,122.6 789.3,137.7 790.1,75.9 791.0,91.7 791.8,108.0 792.6,124.4 793.4,141.3 794.2,80.8 795.0,98.3 795.9,115.9 796.7,134.1 797.5,74.7 798.3,93.5 799.1,112.3 799.9,131.6 L799.9,93.5 L445.5,93.5 Z" fill="url(#g627)" clip-path="url(#c629)"/>
  <path d="M445.5,94.1 445.5,94.1 478.1,94.7 497.2,95.3 510.8,95.9 521.3,96.5 529.9,97.1 537.1,97.7 543.4,98.3 549.0,98.9 553.9,99.6 558.4,100.2 562.5,100.8 566.3,101.4 569.8,102.0 573.0,102.6 576.1,103.2 578.9,103.8 581.6,104.4 584.2,105.0 586.6,105.6 588.9,106.2 591.1,106.8 593.2,107.4 595.2,108.0 597.1,108.6 598.9,109.2 600.7,109.8 602.4,110.5 604.1,111.1 605.7,111.7 607.2,112.3 608.7,112.9 610.2,113.5 611.6,114.1 612.9,114.7 614.3,115.3 615.6,115.9 616.8,116.5 618.0,117.1 619.2,117.7 620.4,118.3 621.5,118.9 622.6,119.5 623.7,120.1 624.8,120.7 625.8,121.4 626.8,122.0 627.8,122.6 628.8,123.2 629.7,123.8 630.7,124.4 631.6,125.0 632.5,125.6 633.4,126.2 634.2,126.8 635.1,127.4 635.9,128.0 636.7,128.6 637.5,129.2 639.1,130.4 640.6,131.6 642.1,132.9 643.5,134.1 644.9,135.3 646.2,136.5 647.6,137.7 648.8,138.9 650.1,140.1 651.3,141.3 652.5,142.5 653.6,143.8 654.7,145.0 655.8,146.2 656.9,147.4 657.9,148.6 659.0,149.8 660.0,151.0 660.9,152.2 661.9,153.4 662.8,154.7 663.8,155.9 664.7,157.1 665.6,158.3 666.4,159.5 667.3,160.7 668.1,161.9 669.0,163.1 669.8,164.3 671.0,166.2 672.1,168.0 673.3,169.8 674.4,16.6 675.5,18.4 676.5,20.2 677.6,22.1 678.6,23.9 679.6,25.7 680.5,27.5 681.5,29.3 682.4,31.1 683.3,33.0 684.2,34.8 685.1,36.6 686.0,38.4 686.8,40.2 687.6,42.0 688.5,43.9 689.3,45.7 690.3,48.1 691.4,50.5 692.4,52.9 693.3,55.4 694.3,57.8 695.3,60.2 696.2,62.6 697.1,65.0 698.0,67.5 698.9,69.9 699.7,72.3 700.6,74.7 701.4,77.2 702.2,79.6 703.0,82.0 704.0,85.0 705.0,88.1 705.9,91.1 706.8,94.1 707.7,97.1 708.6,100.2 709.5,103.2 710.4,106.2 711.2,109.2 712.0,112.3 712.9,115.3 713.8,118.9 714.7,122.6 715.7,126.2 716.6,129.8 717.5,133.5 718.3,137.1 719.2,140.7 720.0,144.4 720.8,148.0 721.7,151.6 722.6,155.9 723.5,160.1 724.4,164.3 725.3,168.6 726.1,17.8 727.0,22.1 727.8,26.3 728.6,30.5 729.4,34.8 730.3,39.6 731.2,44.5 732.1,49.3 732.9,54.1 733.7,59.0 734.6,63.8 735.4,68.7 736.3,74.1 737.1,79.6 738.0,85.0 738.8,90.5 739.7,95.9 740.5,101.4 741.3,106.8 742.2,112.9 743.0,118.9 743.9,125.0 744.7,131.0 745.5,137.1 746.4,143.8 747.2,150.4 748.1,157.1 748.9,163.7 749.7,170.4 750.5,22.1 751.4,29.3 752.2,36.6 753.1,43.9 753.9,128.6 754.7,135.9 755.6,143.8 756.4,151.6 757.2,159.5 758.0,167.4 758.9,20.8 759.7,106.8 760.6,115.3 761.4,123.8 762.2,132.9 763.1,141.9 763.9,151.0 764.7,160.1 765.6,169.8 766.4,102.0 767.2,111.7 768.0,121.4 768.9,131.6 769.7,141.9 770.5,152.2 771.3,163.1 772.2,96.5 773.0,107.4 773.8,118.3 774.6,129.8 775.4,141.3 776.3,152.8 777.1,87.4 777.9,99.6 778.7,111.7 779.5,124.4 780.4,137.1 781.2,149.8 782.0,85.6 782.8,98.9 783.6,112.9 784.4,126.8 785.2,140.7 786.1,77.8 786.9,92.3 787.7,107.4 788.5,122.6 789.3,137.7 790.1,75.9 791.0,91.7 791.8,108.0 792.6,124.4 793.4,141.3 794.2,80.8 795.0,98.3 795.9,115.9 796.7,134.1 797.5,74.7 798.3,93.5 799.1,112.3 799.9,131.6 L799.9,93.5 L445.5,93.5 Z" fill="url(#g628)" clip-path="url(#c630)"/>
  <defs><clipPath id="pc631"><rect x="442" y="16" width="358" height="155"/></clipPath></defs>
  <polyline points="445.5,94.1 478.1,94.7 497.2,95.3 510.8,95.9 521.3,96.5 529.9,97.1 537.1,97.7 543.4,98.3 549.0,98.9 553.9,99.6 558.4,100.2 562.5,100.8 566.3,101.4 569.8,102.0 573.0,102.6 576.1,103.2 578.9,103.8 581.6,104.4 584.2,105.0 586.6,105.6 588.9,106.2 591.1,106.8 593.2,107.4 595.2,108.0 597.1,108.6 598.9,109.2 600.7,109.8 602.4,110.5 604.1,111.1 605.7,111.7 607.2,112.3 608.7,112.9 610.2,113.5 611.6,114.1 612.9,114.7 614.3,115.3 615.6,115.9 616.8,116.5 618.0,117.1 619.2,117.7 620.4,118.3 621.5,118.9 622.6,119.5 623.7,120.1 624.8,120.7 625.8,121.4 626.8,122.0 627.8,122.6 628.8,123.2 629.7,123.8 630.7,124.4 631.6,125.0 632.5,125.6 633.4,126.2 634.2,126.8 635.1,127.4 635.9,128.0 636.7,128.6 637.5,129.2 639.1,130.4 640.6,131.6 642.1,132.9 643.5,134.1 644.9,135.3 646.2,136.5 647.6,137.7 648.8,138.9 650.1,140.1 651.3,141.3 652.5,142.5 653.6,143.8 654.7,145.0 655.8,146.2 656.9,147.4 657.9,148.6 659.0,149.8 660.0,151.0 660.9,152.2 661.9,153.4 662.8,154.7 663.8,155.9 664.7,157.1 665.6,158.3 666.4,159.5 667.3,160.7 668.1,161.9 669.0,163.1 669.8,164.3 671.0,166.2 672.1,168.0 673.3,169.8 674.4,16.6 675.5,18.4 676.5,20.2 677.6,22.1 678.6,23.9 679.6,25.7 680.5,27.5 681.5,29.3 682.4,31.1 683.3,33.0 684.2,34.8 685.1,36.6 686.0,38.4 686.8,40.2 687.6,42.0 688.5,43.9 689.3,45.7 690.3,48.1 691.4,50.5 692.4,52.9 693.3,55.4 694.3,57.8 695.3,60.2 696.2,62.6 697.1,65.0 698.0,67.5 698.9,69.9 699.7,72.3 700.6,74.7 701.4,77.2 702.2,79.6 703.0,82.0 704.0,85.0 705.0,88.1 705.9,91.1 706.8,94.1 707.7,97.1 708.6,100.2 709.5,103.2 710.4,106.2 711.2,109.2 712.0,112.3 712.9,115.3 713.8,118.9 714.7,122.6 715.7,126.2 716.6,129.8 717.5,133.5 718.3,137.1 719.2,140.7 720.0,144.4 720.8,148.0 721.7,151.6 722.6,155.9 723.5,160.1 724.4,164.3 725.3,168.6 726.1,17.8 727.0,22.1 727.8,26.3 728.6,30.5 729.4,34.8 730.3,39.6 731.2,44.5 732.1,49.3 732.9,54.1 733.7,59.0 734.6,63.8 735.4,68.7 736.3,74.1 737.1,79.6 738.0,85.0 738.8,90.5 739.7,95.9 740.5,101.4 741.3,106.8 742.2,112.9 743.0,118.9 743.9,125.0 744.7,131.0 745.5,137.1 746.4,143.8 747.2,150.4 748.1,157.1 748.9,163.7 749.7,170.4 750.5,22.1 751.4,29.3 752.2,36.6 753.1,43.9 753.9,128.6 754.7,135.9 755.6,143.8 756.4,151.6 757.2,159.5 758.0,167.4 758.9,20.8 759.7,106.8 760.6,115.3 761.4,123.8 762.2,132.9 763.1,141.9 763.9,151.0 764.7,160.1 765.6,169.8 766.4,102.0 767.2,111.7 768.0,121.4 768.9,131.6 769.7,141.9 770.5,152.2 771.3,163.1 772.2,96.5 773.0,107.4 773.8,118.3 774.6,129.8 775.4,141.3 776.3,152.8 777.1,87.4 777.9,99.6 778.7,111.7 779.5,124.4 780.4,137.1 781.2,149.8 782.0,85.6 782.8,98.9 783.6,112.9 784.4,126.8 785.2,140.7 786.1,77.8 786.9,92.3 787.7,107.4 788.5,122.6 789.3,137.7 790.1,75.9 791.0,91.7 791.8,108.0 792.6,124.4 793.4,141.3 794.2,80.8 795.0,98.3 795.9,115.9 796.7,134.1 797.5,74.7 798.3,93.5 799.1,112.3 799.9,131.6" fill="none" stroke="#e74c3c" stroke-width="1.5" stroke-linejoin="round" clip-path="url(#pc631)"/>
  <line x1="34" y1="221" x2="34" y2="376" stroke="#d1d5db"/>
  <line x1="34" y1="298.5" x2="392" y2="298.5" stroke="#d1d5db"/>
  <text x="213" y="402" text-anchor="middle" font-size="9" fill="#6b7280">Hz</text>
  <text x="12" y="298.5" text-anchor="middle" font-size="9" fill="#6b7280" transform="rotate(-90 12 298.5)">Group delay</text>
  <line x1="66.6" y1="221" x2="66.6" y2="376" stroke="#e5e7eb" stroke-width="0.5"/>
  <line x1="85.7" y1="221" x2="85.7" y2="376" stroke="#e5e7eb" stroke-width="0.5"/>
  <line x1="99.3" y1="221" x2="99.3" y2="376" stroke="#e5e7eb" stroke-width="0.5"/>
  <line x1="109.8" y1="221" x2="109.8" y2="376" stroke="#e5e7eb" stroke-width="0.5"/>
  <line x1="118.4" y1="221" x2="118.4" y2="376" stroke="#e5e7eb" stroke-width="0.5"/>
  <line x1="125.7" y1="221" x2="125.7" y2="376" stroke="#e5e7eb" stroke-width="0.5"/>
  <line x1="131.9" y1="221" x2="131.9" y2="376" stroke="#e5e7eb" stroke-width="0.5"/>
  <line x1="137.5" y1="221" x2="137.5" y2="376" stroke="#e5e7eb" stroke-width="0.5"/>
  <line x1="175.1" y1="221" x2="175.1" y2="376" stroke="#e5e7eb" stroke-width="0.5"/>
  <line x1="194.2" y1="221" x2="194.2" y2="376" stroke="#e5e7eb" stroke-width="0.5"/>
  <line x1="207.7" y1="221" x2="207.7" y2="376" stroke="#e5e7eb" stroke-width="0.5"/>
  <line x1="218.3" y1="221" x2="218.3" y2="376" stroke="#e5e7eb" stroke-width="0.5"/>
  <line x1="226.8" y1="221" x2="226.8" y2="376" stroke="#e5e7eb" stroke-width="0.5"/>
  <line x1="234.1" y1="221" x2="234.1" y2="376" stroke="#e5e7eb" stroke-width="0.5"/>
  <line x1="240.4" y1="221" x2="240.4" y2="376" stroke="#e5e7eb" stroke-width="0.5"/>
  <line x1="245.9" y1="221" x2="245.9" y2="376" stroke="#e5e7eb" stroke-width="0.5"/>
  <line x1="283.5" y1="221" x2="283.5" y2="376" stroke="#e5e7eb" stroke-width="0.5"/>
  <line x1="302.6" y1="221" x2="302.6" y2="376" stroke="#e5e7eb" stroke-width="0.5"/>
  <line x1="316.2" y1="221" x2="316.2" y2="376" stroke="#e5e7eb" stroke-width="0.5"/>
  <line x1="326.7" y1="221" x2="326.7" y2="376" stroke="#e5e7eb" stroke-width="0.5"/>
  <line x1="335.3" y1="221" x2="335.3" y2="376" stroke="#e5e7eb" stroke-width="0.5"/>
  <line x1="342.6" y1="221" x2="342.6" y2="376" stroke="#e5e7eb" stroke-width="0.5"/>
  <line x1="348.8" y1="221" x2="348.8" y2="376" stroke="#e5e7eb" stroke-width="0.5"/>
  <line x1="354.4" y1="221" x2="354.4" y2="376" stroke="#e5e7eb" stroke-width="0.5"/>
  <line x1="392.0" y1="221" x2="392.0" y2="376" stroke="#e5e7eb" stroke-width="0.5"/>
  <line x1="142.5" y1="221" x2="142.5" y2="376" stroke="#e5e7eb" stroke-width="0.5"/>
  <text x="142.5" y="388" text-anchor="middle" font-size="8" fill="#6b7280">100</text>
  <line x1="250.9" y1="221" x2="250.9" y2="376" stroke="#e5e7eb" stroke-width="0.5"/>
  <text x="250.9" y="388" text-anchor="middle" font-size="8" fill="#6b7280">1k</text>
  <line x1="359.4" y1="221" x2="359.4" y2="376" stroke="#e5e7eb" stroke-width="0.5"/>
  <text x="359.4" y="388" text-anchor="middle" font-size="8" fill="#6b7280">10k</text>
  <line x1="34" y1="339.9" x2="392" y2="339.9" stroke="#e5e7eb" stroke-width="0.5"/>
  <text x="30" y="342.9" text-anchor="end" font-size="8" fill="#6b7280">-700</text>
  <text x="30" y="301.5" text-anchor="end" font-size="8" fill="#6b7280">0</text>
  <line x1="34" y1="257.1" x2="392" y2="257.1" stroke="#e5e7eb" stroke-width="0.5"/>
  <text x="30" y="260.1" text-anchor="end" font-size="8" fill="#6b7280">700</text>
  <defs><linearGradient id="g632" x1="0" y1="221" x2="0" y2="298.5" gradientUnits="userSpaceOnUse">
    <stop offset="0%" stop-color="#2ecc71" stop-opacity="0.15"/>
    <stop offset="100%" stop-color="#2ecc71" stop-opacity="0.02"/>
  </linearGradient></defs>
  <path d="M37.5,297.6 37.5,297.6 70.1,297.6 89.2,297.6 102.8,297.6 113.3,297.6 121.9,297.6 129.1,297.6 135.4,297.6 141.0,297.6 145.9,297.6 150.4,297.6 154.5,297.6 158.3,297.6 161.8,297.6 165.0,297.6 168.1,297.6 170.9,297.6 173.6,297.6 176.2,297.6 178.6,297.6 180.9,297.6 183.1,297.6 185.2,297.6 187.2,297.6 189.1,297.6 190.9,297.6 192.7,297.6 194.4,297.6 196.1,297.6 197.7,297.6 199.2,297.6 200.7,297.6 202.2,297.6 203.6,297.6 204.9,297.6 206.3,297.6 207.6,297.6 208.8,297.6 210.0,297.6 211.2,297.6 212.4,297.6 213.5,297.6 214.6,297.6 215.7,297.6 216.8,297.6 217.8,297.6 218.8,297.6 219.8,297.6 220.8,297.6 221.7,297.6 222.7,297.6 223.6,297.6 224.5,297.6 225.4,297.6 226.2,297.6 227.1,297.6 227.9,297.6 228.7,297.6 229.5,297.6 231.1,297.6 232.6,297.6 234.1,297.6 235.5,297.6 236.9,297.6 238.2,297.6 239.6,297.6 240.8,297.6 242.1,297.6 243.3,297.6 244.5,297.6 245.6,297.6 246.7,297.6 247.8,297.6 248.9,297.6 249.9,297.6 251.0,297.6 252.0,297.6 252.9,297.6 253.9,297.6 254.8,297.6 255.8,297.6 256.7,297.6 257.6,297.6 258.4,297.6 259.3,297.6 260.1,297.6 261.0,297.6 261.8,297.6 263.0,297.6 264.1,297.6 265.3,297.6 266.4,297.6 267.5,297.6 268.5,297.6 269.6,297.6 270.6,297.6 271.6,297.6 272.5,297.6 273.5,297.6 274.4,297.6 275.3,297.6 276.2,297.6 277.1,297.6 278.0,297.6 278.8,297.6 279.6,297.6 280.5,297.6 281.3,297.6 282.3,297.6 283.4,297.6 284.4,297.6 285.3,297.6 286.3,297.6 287.3,297.6 288.2,297.6 289.1,297.6 290.0,297.6 290.9,297.6 291.7,297.6 292.6,297.6 293.4,297.6 294.2,297.6 295.0,297.6 296.0,297.6 297.0,297.6 297.9,297.6 298.8,297.6 299.7,297.6 300.6,297.6 301.5,297.6 302.4,297.6 303.2,297.6 304.0,297.6 304.9,297.6 305.8,297.6 306.7,297.6 307.7,297.6 308.6,297.6 309.5,297.6 310.3,297.6 311.2,297.6 312.0,297.6 312.8,297.6 313.7,297.6 314.6,297.6 315.5,297.6 316.4,297.6 317.3,297.6 318.1,297.6 319.0,297.6 319.8,297.6 320.6,297.6 321.4,297.6 322.3,297.6 323.2,297.6 324.1,297.6 324.9,297.6 325.7,297.6 326.6,297.6 327.4,297.6 328.3,297.6 329.1,297.6 330.0,297.6 330.8,297.6 331.7,297.6 332.5,297.6 333.3,297.6 334.2,297.6 335.0,297.6 335.9,297.6 336.7,297.6 337.5,297.6 338.4,297.6 339.2,297.6 340.1,297.6 340.9,297.6 341.7,297.6 342.5,297.6 343.4,297.6 344.2,297.6 345.1,297.6 345.9,297.6 346.7,297.6 347.6,297.6 348.4,297.6 349.2,297.6 350.0,297.6 350.9,297.6 351.7,297.6 352.6,297.6 353.4,297.6 354.2,297.6 355.1,297.6 355.9,297.6 356.7,297.6 357.6,297.6 358.4,297.6 359.2,297.6 360.0,297.6 360.9,297.6 361.7,297.6 362.5,297.6 363.3,297.6 364.2,297.6 365.0,297.6 365.8,297.6 366.6,297.6 367.4,297.6 368.3,297.6 369.1,297.6 369.9,297.6 370.7,297.6 371.5,297.6 372.4,297.6 373.2,297.6 374.0,297.6 374.8,297.6 375.6,297.6 376.4,297.6 377.2,297.6 378.1,297.6 378.9,297.6 379.7,297.6 380.5,297.6 381.3,297.6 382.1,297.6 383.0,297.6 383.8,297.6 384.6,297.6 385.4,297.6 386.2,297.6 387.0,297.6 387.9,297.6 388.7,297.6 389.5,297.6 390.3,297.6 391.1,297.6 391.9,297.6 L391.9,298.5 L37.5,298.5 Z" fill="url(#g632)"/>
  <defs><clipPath id="pc633"><rect x="34" y="221" width="358" height="155"/></clipPath></defs>
  <polyline points="37.5,297.6 70.1,297.6 89.2,297.6 102.8,297.6 113.3,297.6 121.9,297.6 129.1,297.6 135.4,297.6 141.0,297.6 145.9,297.6 150.4,297.6 154.5,297.6 158.3,297.6 161.8,297.6 165.0,297.6 168.1,297.6 170.9,297.6 173.6,297.6 176.2,297.6 178.6,297.6 180.9,297.6 183.1,297.6 185.2,297.6 187.2,297.6 189.1,297.6 190.9,297.6 192.7,297.6 194.4,297.6 196.1,297.6 197.7,297.6 199.2,297.6 200.7,297.6 202.2,297.6 203.6,297.6 204.9,297.6 206.3,297.6 207.6,297.6 208.8,297.6 210.0,297.6 211.2,297.6 212.4,297.6 213.5,297.6 214.6,297.6 215.7,297.6 216.8,297.6 217.8,297.6 218.8,297.6 219.8,297.6 220.8,297.6 221.7,297.6 222.7,297.6 223.6,297.6 224.5,297.6 225.4,297.6 226.2,297.6 227.1,297.6 227.9,297.6 228.7,297.6 229.5,297.6 231.1,297.6 232.6,297.6 234.1,297.6 235.5,297.6 236.9,297.6 238.2,297.6 239.6,297.6 240.8,297.6 242.1,297.6 243.3,297.6 244.5,297.6 245.6,297.6 246.7,297.6 247.8,297.6 248.9,297.6 249.9,297.6 251.0,297.6 252.0,297.6 252.9,297.6 253.9,297.6 254.8,297.6 255.8,297.6 256.7,297.6 257.6,297.6 258.4,297.6 259.3,297.6 260.1,297.6 261.0,297.6 261.8,297.6 263.0,297.6 264.1,297.6 265.3,297.6 266.4,297.6 267.5,297.6 268.5,297.6 269.6,297.6 270.6,297.6 271.6,297.6 272.5,297.6 273.5,297.6 274.4,297.6 275.3,297.6 276.2,297.6 277.1,297.6 278.0,297.6 278.8,297.6 279.6,297.6 280.5,297.6 281.3,297.6 282.3,297.6 283.4,297.6 284.4,297.6 285.3,297.6 286.3,297.6 287.3,297.6 288.2,297.6 289.1,297.6 290.0,297.6 290.9,297.6 291.7,297.6 292.6,297.6 293.4,297.6 294.2,297.6 295.0,297.6 296.0,297.6 297.0,297.6 297.9,297.6 298.8,297.6 299.7,297.6 300.6,297.6 301.5,297.6 302.4,297.6 303.2,297.6 304.0,297.6 304.9,297.6 305.8,297.6 306.7,297.6 307.7,297.6 308.6,297.6 309.5,297.6 310.3,297.6 311.2,297.6 312.0,297.6 312.8,297.6 313.7,297.6 314.6,297.6 315.5,297.6 316.4,297.6 317.3,297.6 318.1,297.6 319.0,297.6 319.8,297.6 320.6,297.6 321.4,297.6 322.3,297.6 323.2,297.6 324.1,297.6 324.9,297.6 325.7,297.6 326.6,297.6 327.4,297.6 328.3,297.6 329.1,297.6 330.0,297.6 330.8,297.6 331.7,297.6 332.5,297.6 333.3,297.6 334.2,297.6 335.0,297.6 335.9,297.6 336.7,297.6 337.5,297.6 338.4,297.6 339.2,297.6 340.1,297.6 340.9,297.6 341.7,297.6 342.5,297.6 343.4,297.6 344.2,297.6 345.1,297.6 345.9,297.6 346.7,297.6 347.6,297.6 348.4,297.6 349.2,297.6 350.0,297.6 350.9,297.6 351.7,297.6 352.6,297.6 353.4,297.6 354.2,297.6 355.1,297.6 355.9,297.6 356.7,297.6 357.6,297.6 358.4,297.6 359.2,297.6 360.0,297.6 360.9,297.6 361.7,297.6 362.5,297.6 363.3,297.6 364.2,297.6 365.0,297.6 365.8,297.6 366.6,297.6 367.4,297.6 368.3,297.6 369.1,297.6 369.9,297.6 370.7,297.6 371.5,297.6 372.4,297.6 373.2,297.6 374.0,297.6 374.8,297.6 375.6,297.6 376.4,297.6 377.2,297.6 378.1,297.6 378.9,297.6 379.7,297.6 380.5,297.6 381.3,297.6 382.1,297.6 383.0,297.6 383.8,297.6 384.6,297.6 385.4,297.6 386.2,297.6 387.0,297.6 387.9,297.6 388.7,297.6 389.5,297.6 390.3,297.6 391.1,297.6 391.9,297.6" fill="none" stroke="#2ecc71" stroke-width="1.5" stroke-linejoin="round" clip-path="url(#pc633)"/>
  <line x1="442" y1="221" x2="442" y2="376" stroke="#d1d5db"/>
  <line x1="442" y1="298.5" x2="800" y2="298.5" stroke="#d1d5db"/>
  <text x="621" y="402" text-anchor="middle" font-size="9" fill="#6b7280">Samples</text>
  <text x="420" y="298.5" text-anchor="middle" font-size="9" fill="#6b7280" transform="rotate(-90 420 298.5)">Impulse response</text>
  <line x1="442.0" y1="221" x2="442.0" y2="376" stroke="#e5e7eb" stroke-width="0.5"/>
  <text x="442.0" y="388" text-anchor="middle" font-size="8" fill="#6b7280">0</text>
  <line x1="659.0" y1="221" x2="659.0" y2="376" stroke="#e5e7eb" stroke-width="0.5"/>
  <text x="659.0" y="388" text-anchor="middle" font-size="8" fill="#6b7280">20</text>
  <line x1="442" y1="357.7" x2="800" y2="357.7" stroke="#e5e7eb" stroke-width="0.5"/>
  <text x="438" y="360.7" text-anchor="end" font-size="8" fill="#6b7280">-0.4</text>
  <text x="438" y="301.5" text-anchor="end" font-size="8" fill="#6b7280">0</text>
  <line x1="442" y1="239.3" x2="800" y2="239.3" stroke="#e5e7eb" stroke-width="0.5"/>
  <text x="438" y="242.3" text-anchor="end" font-size="8" fill="#6b7280">0.4</text>
  <defs><linearGradient id="g634" x1="0" y1="221" x2="0" y2="298.5" gradientUnits="userSpaceOnUse">
    <stop offset="0%" stop-color="#f39c12" stop-opacity="0.15"/>
    <stop offset="100%" stop-color="#f39c12" stop-opacity="0.02"/>
  </linearGradient></defs>
  <defs><linearGradient id="g635" x1="0" y1="376" x2="0" y2="298.5" gradientUnits="userSpaceOnUse">
    <stop offset="0%" stop-color="#f39c12" stop-opacity="0.15"/>
    <stop offset="100%" stop-color="#f39c12" stop-opacity="0.02"/>
  </linearGradient></defs>
  <defs><clipPath id="c636"><rect x="442" y="221" width="358" height="77.5"/></clipPath></defs>
  <defs><clipPath id="c637"><rect x="442" y="298.5" width="358" height="77.5"/></clipPath></defs>
  <path d="M442.0,298.5 442.0,298.5 452.8,298.9 463.7,299.6 474.5,299.7 485.4,298.5 496.2,296.2 507.1,294.1 517.9,294.4 528.8,298.5 539.6,305.4 550.5,311.1 561.3,310.1 572.2,298.5 583.0,276.7 593.9,250.6 604.7,229.2 615.6,221.0 626.4,229.2 637.3,250.6 648.1,276.7 659.0,298.5 669.8,310.1 680.7,311.1 691.5,305.4 702.4,298.5 713.2,294.4 724.1,294.1 734.9,296.2 745.8,298.5 756.6,299.7 767.5,299.6 778.3,298.9 789.2,298.5 L789.2,298.5 L442.0,298.5 Z" fill="url(#g634)" clip-path="url(#c636)"/>
  <path d="M442.0,298.5 442.0,298.5 452.8,298.9 463.7,299.6 474.5,299.7 485.4,298.5 496.2,296.2 507.1,294.1 517.9,294.4 528.8,298.5 539.6,305.4 550.5,311.1 561.3,310.1 572.2,298.5 583.0,276.7 593.9,250.6 604.7,229.2 615.6,221.0 626.4,229.2 637.3,250.6 648.1,276.7 659.0,298.5 669.8,310.1 680.7,311.1 691.5,305.4 702.4,298.5 713.2,294.4 724.1,294.1 734.9,296.2 745.8,298.5 756.6,299.7 767.5,299.6 778.3,298.9 789.2,298.5 L789.2,298.5 L442.0,298.5 Z" fill="url(#g635)" clip-path="url(#c637)"/>
  <defs><clipPath id="pc638"><rect x="442" y="221" width="358" height="155"/></clipPath></defs>
  <polyline points="442.0,298.5 452.8,298.9 463.7,299.6 474.5,299.7 485.4,298.5 496.2,296.2 507.1,294.1 517.9,294.4 528.8,298.5 539.6,305.4 550.5,311.1 561.3,310.1 572.2,298.5 583.0,276.7 593.9,250.6 604.7,229.2 615.6,221.0 626.4,229.2 637.3,250.6 648.1,276.7 659.0,298.5 669.8,310.1 680.7,311.1 691.5,305.4 702.4,298.5 713.2,294.4 724.1,294.1 734.9,296.2 745.8,298.5 756.6,299.7 767.5,299.6 778.3,298.9 789.2,298.5" fill="none" stroke="#f39c12" stroke-width="1.3" stroke-linejoin="round" clip-path="url(#pc638)"/>
</svg>
