<svg xmlns="http://www.w3.org/2000/svg" viewBox="0 0 820 378" style="font-family:system-ui,-apple-system,sans-serif">
  <text x="800" y="11" text-anchor="end" font-size="11" font-weight="600" fill="#6b7280">Matched filter (raised cosine template)</text>
  <line x1="34" y1="16" x2="34" y2="171" stroke="#d1d5db"/>
  <line x1="34" y1="47.0" x2="399" y2="47.0" stroke="#d1d5db"/>
  <text x="216.5" y="197" text-anchor="middle" font-size="9" fill="#6b7280">Hz</text>
  <text x="12" y="93.5" text-anchor="middle" font-size="9" fill="#6b7280" transform="rotate(-90 12 93.5)">dB</text>
  <line x1="67.3" y1="16" x2="67.3" y2="171" stroke="#e5e7eb" stroke-width="0.5"/>
  <line x1="86.8" y1="16" x2="86.8" y2="171" stroke="#e5e7eb" stroke-width="0.5"/>
  <line x1="100.6" y1="16" x2="100.6" y2="171" stroke="#e5e7eb" stroke-width="0.5"/>
  <line x1="111.3" y1="16" x2="111.3" y2="171" stroke="#e5e7eb" stroke-width="0.5"/>
  <line x1="120.0" y1="16" x2="120.0" y2="171" stroke="#e5e7eb" stroke-width="0.5"/>
  <line x1="127.4" y1="16" x2="127.4" y2="171" stroke="#e5e7eb" stroke-width="0.5"/>
  <line x1="133.9" y1="16" x2="133.9" y2="171" stroke="#e5e7eb" stroke-width="0.5"/>
  <line x1="139.5" y1="16" x2="139.5" y2="171" stroke="#e5e7eb" stroke-width="0.5"/>
  <line x1="177.9" y1="16" x2="177.9" y2="171" stroke="#e5e7eb" stroke-width="0.5"/>
  <line x1="197.3" y1="16" x2="197.3" y2="171" stroke="#e5e7eb" stroke-width="0.5"/>
  <line x1="211.1" y1="16" x2="211.1" y2="171" stroke="#e5e7eb" stroke-width="0.5"/>
  <line x1="221.9" y1="16" x2="221.9" y2="171" stroke="#e5e7eb" stroke-width="0.5"/>
  <line x1="230.6" y1="16" x2="230.6" y2="171" stroke="#e5e7eb" stroke-width="0.5"/>
  <line x1="238.0" y1="16" x2="238.0" y2="171" stroke="#e5e7eb" stroke-width="0.5"/>
  <line x1="244.4" y1="16" x2="244.4" y2="171" stroke="#e5e7eb" stroke-width="0.5"/>
  <line x1="250.1" y1="16" x2="250.1" y2="171" stroke="#e5e7eb" stroke-width="0.5"/>
  <line x1="288.4" y1="16" x2="288.4" y2="171" stroke="#e5e7eb" stroke-width="0.5"/>
  <line x1="307.9" y1="16" x2="307.9" y2="171" stroke="#e5e7eb" stroke-width="0.5"/>
  <line x1="321.7" y1="16" x2="321.7" y2="171" stroke="#e5e7eb" stroke-width="0.5"/>
  <line x1="332.4" y1="16" x2="332.4" y2="171" stroke="#e5e7eb" stroke-width="0.5"/>
  <line x1="341.2" y1="16" x2="341.2" y2="171" stroke="#e5e7eb" stroke-width="0.5"/>
  <line x1="348.6" y1="16" x2="348.6" y2="171" stroke="#e5e7eb" stroke-width="0.5"/>
  <line x1="355.0" y1="16" x2="355.0" y2="171" stroke="#e5e7eb" stroke-width="0.5"/>
  <line x1="360.7" y1="16" x2="360.7" y2="171" stroke="#e5e7eb" stroke-width="0.5"/>
  <line x1="399.0" y1="16" x2="399.0" y2="171" stroke="#e5e7eb" stroke-width="0.5"/>
  <line x1="144.6" y1="16" x2="144.6" y2="171" stroke="#e5e7eb" stroke-width="0.5"/>
  <text x="144.6" y="183" text-anchor="middle" font-size="8" fill="#6b7280">100</text>
  <line x1="255.1" y1="16" x2="255.1" y2="171" stroke="#e5e7eb" stroke-width="0.5"/>
  <text x="255.1" y="183" text-anchor="middle" font-size="8" fill="#6b7280">1k</text>
  <line x1="365.7" y1="16" x2="365.7" y2="171" stroke="#e5e7eb" stroke-width="0.5"/>
  <text x="365.7" y="183" text-anchor="middle" font-size="8" fill="#6b7280">10k</text>
  <line x1="34" y1="31.5" x2="399" y2="31.5" stroke="#e5e7eb" stroke-width="0.5"/>
  <line x1="34" y1="62.5" x2="399" y2="62.5" stroke="#e5e7eb" stroke-width="0.5"/>
  <line x1="34" y1="16.0" x2="399" y2="16.0" stroke="#e5e7eb" stroke-width="0.5"/>
  <text x="30" y="19.0" text-anchor="end" font-size="8" fill="#6b7280">+20</text>
  <text x="30" y="50.0" text-anchor="end" font-size="8" fill="#6b7280">0</text>
  <line x1="34" y1="78.0" x2="399" y2="78.0" stroke="#e5e7eb" stroke-width="0.5"/>
  <text x="30" y="81.0" text-anchor="end" font-size="8" fill="#6b7280">-20</text>
  <line x1="34" y1="109.0" x2="399" y2="109.0" stroke="#e5e7eb" stroke-width="0.5"/>
  <text x="30" y="112.0" text-anchor="end" font-size="8" fill="#6b7280">-40</text>
  <line x1="34" y1="140.0" x2="399" y2="140.0" stroke="#e5e7eb" stroke-width="0.5"/>
  <text x="30" y="143.0" text-anchor="end" font-size="8" fill="#6b7280">-60</text>
  <line x1="34" y1="171.0" x2="399" y2="171.0" stroke="#e5e7eb" stroke-width="0.5"/>
  <text x="30" y="174.0" text-anchor="end" font-size="8" fill="#6b7280">-80</text>
  <defs><linearGradient id="g552" x1="0" y1="16" x2="0" y2="171" gradientUnits="userSpaceOnUse">
    <stop offset="0%" stop-color="#4a90d9" stop-opacity="0.15"/>
    <stop offset="100%" stop-color="#4a90d9" stop-opacity="0.02"/>
  </linearGradient></defs>
  <path d="M37.5,37.1 37.5,37.1 70.8,37.1 90.3,37.1 104.1,37.1 114.8,37.1 123.6,37.1 131.0,37.1 137.4,37.1 143.1,37.1 148.1,37.1 152.7,37.1 156.9,37.1 160.7,37.1 164.3,37.1 167.6,37.1 170.7,37.1 173.6,37.1 176.3,37.1 178.9,37.1 181.4,37.1 183.7,37.1 186.0,37.1 188.1,37.1 190.2,37.1 192.1,37.1 194.0,37.1 195.8,37.1 197.6,37.1 199.2,37.1 200.9,37.1 202.4,37.1 204.0,37.1 205.5,37.1 206.9,37.1 208.3,37.1 209.6,37.1 210.9,37.1 212.2,37.1 213.5,37.1 214.7,37.1 215.9,37.1 217.0,37.1 218.2,37.1 219.3,37.1 220.3,37.1 221.4,37.1 222.4,37.1 223.4,37.1 224.4,37.0 225.4,37.0 226.4,37.0 227.3,37.0 228.2,37.0 229.1,37.0 230.0,37.0 230.8,37.0 231.7,37.0 232.5,37.0 233.4,37.0 234.2,37.0 235.7,37.0 237.3,37.0 238.7,37.0 240.2,37.0 241.6,37.0 242.9,37.0 244.2,37.0 245.5,37.0 246.8,37.0 248.0,37.0 249.2,37.0 250.3,37.0 251.4,37.0 252.6,37.0 253.6,37.0 254.7,37.0 255.7,37.0 256.7,37.0 257.7,37.0 258.7,37.0 259.6,37.0 260.6,37.0 261.5,37.0 262.4,37.0 263.3,37.0 264.1,37.0 265.0,37.0 265.8,37.0 266.6,37.0 267.4,37.0 268.6,37.0 269.8,37.0 270.9,37.0 272.0,37.0 273.1,37.0 274.2,37.0 275.2,37.1 276.2,37.1 277.2,37.1 278.2,37.1 279.1,37.1 280.0,37.1 281.0,37.1 281.9,37.1 282.7,37.1 283.6,37.1 284.5,37.1 285.3,37.1 286.1,37.1 286.9,37.1 288.0,37.1 289.0,37.1 290.0,37.1 291.0,37.1 292.0,37.1 292.9,37.1 293.9,37.1 294.8,37.1 295.7,37.1 296.6,37.1 297.4,37.1 298.3,37.1 299.1,37.1 299.9,37.1 300.7,37.1 301.7,37.0 302.7,37.0 303.6,37.0 304.6,37.0 305.5,37.0 306.4,37.0 307.3,37.0 308.1,37.0 309.0,37.0 309.8,37.0 310.6,37.0 311.4,37.0 312.4,37.0 313.3,37.0 314.2,37.0 315.1,37.0 316.0,37.1 316.9,37.1 317.7,37.1 318.6,37.2 319.4,37.3 320.2,37.3 321.1,37.5 322.0,37.6 322.9,37.7 323.8,37.9 324.7,38.1 325.5,38.3 326.3,38.6 327.1,38.9 327.9,39.2 328.8,39.6 329.7,40.0 330.6,40.5 331.4,41.0 332.3,41.6 333.1,42.2 333.9,42.9 334.8,43.8 335.7,44.7 336.5,45.7 337.4,46.8 338.2,48.0 339.0,49.2 339.8,50.6 340.7,52.3 341.6,54.1 342.4,56.1 343.3,58.3 344.1,60.6 344.9,63.2 345.8,66.4 346.6,69.9 347.5,73.9 348.3,78.6 349.1,84.1 350.0,91.6 350.8,102.7 351.7,131.1 352.5,114.0 353.3,107.1 354.1,105.6 355.0,107.0 355.8,110.9 356.6,118.1 357.5,134.7 358.3,131.5 359.1,120.3 360.0,116.6 360.8,116.0 361.6,117.7 362.5,122.2 363.3,131.3 364.1,171.0 364.9,132.9 365.8,125.8 366.6,123.6 367.4,124.2 368.2,127.7 369.1,135.9 369.9,171.0 370.7,138.7 371.6,131.2 372.4,129.1 373.2,130.3 374.0,135.4 374.8,149.2 375.6,151.3 376.5,137.5 377.3,133.7 378.1,134.1 378.9,139.0 379.7,154.3 380.5,151.7 381.4,139.7 382.2,136.8 383.0,138.6 383.8,147.0 384.6,171.0 385.5,144.9 386.3,139.7 387.1,140.5 387.9,148.4 388.7,171.0 389.5,146.2 390.3,141.5 391.2,143.7 392.0,156.6 392.8,156.9 393.6,144.5 394.4,143.3 395.2,150.7 396.0,171.0 396.8,147.1 397.6,144.0 398.5,150.3 L398.5,171.0 L37.5,171.0 Z" fill="url(#g552)"/>
  <defs><clipPath id="pc553"><rect x="34" y="16" width="365" height="155"/></clipPath></defs>
  <polyline points="37.5,37.1 70.8,37.1 90.3,37.1 104.1,37.1 114.8,37.1 123.6,37.1 131.0,37.1 137.4,37.1 143.1,37.1 148.1,37.1 152.7,37.1 156.9,37.1 160.7,37.1 164.3,37.1 167.6,37.1 170.7,37.1 173.6,37.1 176.3,37.1 178.9,37.1 181.4,37.1 183.7,37.1 186.0,37.1 188.1,37.1 190.2,37.1 192.1,37.1 194.0,37.1 195.8,37.1 197.6,37.1 199.2,37.1 200.9,37.1 202.4,37.1 204.0,37.1 205.5,37.1 206.9,37.1 208.3,37.1 209.6,37.1 210.9,37.1 212.2,37.1 213.5,37.1 214.7,37.1 215.9,37.1 217.0,37.1 218.2,37.1 219.3,37.1 220.3,37.1 221.4,37.1 222.4,37.1 223.4,37.1 224.4,37.0 225.4,37.0 226.4,37.0 227.3,37.0 228.2,37.0 229.1,37.0 230.0,37.0 230.8,37.0 231.7,37.0 232.5,37.0 233.4,37.0 234.2,37.0 235.7,37.0 237.3,37.0 238.7,37.0 240.2,37.0 241.6,37.0 242.9,37.0 244.2,37.0 245.5,37.0 246.8,37.0 248.0,37.0 249.2,37.0 250.3,37.0 251.4,37.0 252.6,37.0 253.6,37.0 254.7,37.0 255.7,37.0 256.7,37.0 257.7,37.0 258.7,37.0 259.6,37.0 260.6,37.0 261.5,37.0 262.4,37.0 263.3,37.0 264.1,37.0 265.0,37.0 265.8,37.0 266.6,37.0 267.4,37.0 268.6,37.0 269.8,37.0 270.9,37.0 272.0,37.0 273.1,37.0 274.2,37.0 275.2,37.1 276.2,37.1 277.2,37.1 278.2,37.1 279.1,37.1 280.0,37.1 281.0,37.1 281.9,37.1 282.7,37.1 283.6,37.1 284.5,37.1 285.3,37.1 286.1,37.1 286.9,37.1 288.0,37.1 289.0,37.1 290.0,37.1 291.0,37.1 292.0,37.1 292.9,37.1 293.9,37.1 294.8,37.1 295.7,37.1 296.6,37.1 297.4,37.1 298.3,37.1 299.1,37.1 299.9,37.1 300.7,37.1 301.7,37.0 302.7,37.0 303.6,37.0 304.6,37.0 305.5,37.0 306.4,37.0 307.3,37.0 308.1,37.0 309.0,37.0 309.8,37.0 310.6,37.0 311.4,37.0 312.4,37.0 313.3,37.0 314.2,37.0 315.1,37.0 316.0,37.1 316.9,37.1 317.7,37.1 318.6,37.2 319.4,37.3 320.2,37.3 321.1,37.5 322.0,37.6 322.9,37.7 323.8,37.9 324.7,38.1 325.5,38.3 326.3,38.6 327.1,38.9 327.9,39.2 328.8,39.6 329.7,40.0 330.6,40.5 331.4,41.0 332.3,41.6 333.1,42.2 333.9,42.9 334.8,43.8 335.7,44.7 336.5,45.7 337.4,46.8 338.2,48.0 339.0,49.2 339.8,50.6 340.7,52.3 341.6,54.1 342.4,56.1 343.3,58.3 344.1,60.6 344.9,63.2 345.8,66.4 346.6,69.9 347.5,73.9 348.3,78.6 349.1,84.1 350.0,91.6 350.8,102.7 351.7,131.1 352.5,114.0 353.3,107.1 354.1,105.6 355.0,107.0 355.8,110.9 356.6,118.1 357.5,134.7 358.3,131.5 359.1,120.3 360.0,116.6 360.8,116.0 361.6,117.7 362.5,122.2 363.3,131.3 364.1,190.1 364.9,132.9 365.8,125.8 366.6,123.6 367.4,124.2 368.2,127.7 369.1,135.9 369.9,172.0 370.7,138.7 371.6,131.2 372.4,129.1 373.2,130.3 374.0,135.4 374.8,149.2 375.6,151.3 376.5,137.5 377.3,133.7 378.1,134.1 378.9,139.0 379.7,154.3 380.5,151.7 381.4,139.7 382.2,136.8 383.0,138.6 383.8,147.0 384.6,174.7 385.5,144.9 386.3,139.7 387.1,140.5 387.9,148.4 388.7,176.0 389.5,146.2 390.3,141.5 391.2,143.7 392.0,156.6 392.8,156.9 393.6,144.5 394.4,143.3 395.2,150.7 396.0,171.2 396.8,147.1 397.6,144.0 398.5,150.3" fill="none" stroke="#4a90d9" stroke-width="1.5" stroke-linejoin="round" clip-path="url(#pc553)"/>
  <line x1="435" y1="16" x2="435" y2="171" stroke="#d1d5db"/>
  <line x1="435" y1="93.5" x2="800" y2="93.5" stroke="#d1d5db"/>
  <text x="617.5" y="197" text-anchor="middle" font-size="9" fill="#6b7280">Hz</text>
  <text x="413" y="93.5" text-anchor="middle" font-size="9" fill="#6b7280" transform="rotate(-90 413 93.5)">Phase (deg)</text>
  <line x1="468.3" y1="16" x2="468.3" y2="171" stroke="#e5e7eb" stroke-width="0.5"/>
  <line x1="487.8" y1="16" x2="487.8" y2="171" stroke="#e5e7eb" stroke-width="0.5"/>
  <line x1="501.6" y1="16" x2="501.6" y2="171" stroke="#e5e7eb" stroke-width="0.5"/>
  <line x1="512.3" y1="16" x2="512.3" y2="171" stroke="#e5e7eb" stroke-width="0.5"/>
  <line x1="521.0" y1="16" x2="521.0" y2="171" stroke="#e5e7eb" stroke-width="0.5"/>
  <line x1="528.4" y1="16" x2="528.4" y2="171" stroke="#e5e7eb" stroke-width="0.5"/>
  <line x1="534.9" y1="16" x2="534.9" y2="171" stroke="#e5e7eb" stroke-width="0.5"/>
  <line x1="540.5" y1="16" x2="540.5" y2="171" stroke="#e5e7eb" stroke-width="0.5"/>
  <line x1="578.9" y1="16" x2="578.9" y2="171" stroke="#e5e7eb" stroke-width="0.5"/>
  <line x1="598.3" y1="16" x2="598.3" y2="171" stroke="#e5e7eb" stroke-width="0.5"/>
  <line x1="612.1" y1="16" x2="612.1" y2="171" stroke="#e5e7eb" stroke-width="0.5"/>
  <line x1="622.9" y1="16" x2="622.9" y2="171" stroke="#e5e7eb" stroke-width="0.5"/>
  <line x1="631.6" y1="16" x2="631.6" y2="171" stroke="#e5e7eb" stroke-width="0.5"/>
  <line x1="639.0" y1="16" x2="639.0" y2="171" stroke="#e5e7eb" stroke-width="0.5"/>
  <line x1="645.4" y1="16" x2="645.4" y2="171" stroke="#e5e7eb" stroke-width="0.5"/>
  <line x1="651.1" y1="16" x2="651.1" y2="171" stroke="#e5e7eb" stroke-width="0.5"/>
  <line x1="689.4" y1="16" x2="689.4" y2="171" stroke="#e5e7eb" stroke-width="0.5"/>
  <line x1="708.9" y1="16" x2="708.9" y2="171" stroke="#e5e7eb" stroke-width="0.5"/>
  <line x1="722.7" y1="16" x2="722.7" y2="171" stroke="#e5e7eb" stroke-width="0.5"/>
  <line x1="733.4" y1="16" x2="733.4" y2="171" stroke="#e5e7eb" stroke-width="0.5"/>
  <line x1="742.2" y1="16" x2="742.2" y2="171" stroke="#e5e7eb" stroke-width="0.5"/>
  <line x1="749.6" y1="16" x2="749.6" y2="171" stroke="#e5e7eb" stroke-width="0.5"/>
  <line x1="756.0" y1="16" x2="756.0" y2="171" stroke="#e5e7eb" stroke-width="0.5"/>
  <line x1="761.7" y1="16" x2="761.7" y2="171" stroke="#e5e7eb" stroke-width="0.5"/>
  <line x1="800.0" y1="16" x2="800.0" y2="171" stroke="#e5e7eb" stroke-width="0.5"/>
  <line x1="545.6" y1="16" x2="545.6" y2="171" stroke="#e5e7eb" stroke-width="0.5"/>
  <text x="545.6" y="183" text-anchor="middle" font-size="8" fill="#6b7280">100</text>
  <line x1="656.1" y1="16" x2="656.1" y2="171" stroke="#e5e7eb" stroke-width="0.5"/>
  <text x="656.1" y="183" text-anchor="middle" font-size="8" fill="#6b7280">1k</text>
  <line x1="766.7" y1="16" x2="766.7" y2="171" stroke="#e5e7eb" stroke-width="0.5"/>
  <text x="766.7" y="183" text-anchor="middle" font-size="8" fill="#6b7280">10k</text>
  <line x1="435" y1="54.8" x2="800" y2="54.8" stroke="#e5e7eb" stroke-width="0.5"/>
  <line x1="435" y1="132.3" x2="800" y2="132.3" stroke="#e5e7eb" stroke-width="0.5"/>
  <line x1="435" y1="16.0" x2="800" y2="16.0" stroke="#e5e7eb" stroke-width="0.5"/>
  <text x="431" y="19.0" text-anchor="end" font-size="8" fill="#6b7280">180</text>
  <text x="431" y="96.5" text-anchor="end" font-size="8" fill="#6b7280">0</text>
  <line x1="435" y1="171.0" x2="800" y2="171.0" stroke="#e5e7eb" stroke-width="0.5"/>
  <text x="431" y="174.0" text-anchor="end" font-size="8" fill="#6b7280">-180</text>
  <defs><linearGradient id="g554" x1="0" y1="16" x2="0" y2="93.5" gradientUnits="userSpaceOnUse">
    <stop offset="0%" stop-color="#e74c3c" stop-opacity="0.15"/>
    <stop offset="100%" stop-color="#e74c3c" stop-opacity="0.02"/>
  </linearGradient></defs>
  <defs><linearGradient id="g555" x1="0" y1="171" x2="0" y2="93.5" gradientUnits="userSpaceOnUse">
    <stop offset="0%" stop-color="#e74c3c" stop-opacity="0.15"/>
    <stop offset="100%" stop-color="#e74c3c" stop-opacity="0.02"/>
  </linearGradient></defs>
  <defs><clipPath id="c556"><rect x="435" y="16" width="365" height="77.5"/></clipPath></defs>
  <defs><clipPath id="c557"><rect x="435" y="93.5" width="365" height="77.5"/></clipPath></defs>
  <path d="M438.5,94.1 438.5,94.1 471.8,94.7 491.3,95.3 505.1,95.9 515.8,96.5 524.6,97.1 532.0,97.7 538.4,98.3 544.1,98.9 549.1,99.6 553.7,100.2 557.9,100.8 561.7,101.4 565.3,102.0 568.6,102.6 571.7,103.2 574.6,103.8 577.3,104.4 579.9,105.0 582.4,105.6 584.7,106.2 587.0,106.8 589.1,107.4 591.2,108.0 593.1,108.6 595.0,109.2 596.8,109.8 598.6,110.5 600.2,111.1 601.9,111.7 603.4,112.3 605.0,112.9 606.5,113.5 607.9,114.1 609.3,114.7 610.6,115.3 611.9,115.9 613.2,116.5 614.5,117.1 615.7,117.7 616.9,118.3 618.0,118.9 619.2,119.5 620.3,120.1 621.3,120.7 622.4,121.4 623.4,122.0 624.4,122.6 625.4,123.2 626.4,123.8 627.4,124.4 628.3,125.0 629.2,125.6 630.1,126.2 631.0,126.8 631.8,127.4 632.7,128.0 633.5,128.6 634.4,129.2 635.2,129.8 636.7,131.0 638.3,132.3 639.7,133.5 641.2,134.7 642.6,135.9 643.9,137.1 645.2,138.3 646.5,139.5 647.8,140.7 649.0,141.9 650.2,143.1 651.3,144.4 652.4,145.6 653.6,146.8 654.6,148.0 655.7,149.2 656.7,150.4 657.7,151.6 658.7,152.8 659.7,154.0 660.6,155.3 661.6,156.5 662.5,157.7 663.4,158.9 664.3,160.1 665.1,161.3 666.0,162.5 666.8,163.7 667.6,164.9 668.4,166.2 669.6,168.0 670.8,169.8 671.9,16.6 673.0,18.4 674.1,20.2 675.2,22.1 676.2,23.9 677.2,25.7 678.2,27.5 679.2,29.3 680.1,31.1 681.0,33.0 682.0,34.8 682.9,36.6 683.7,38.4 684.6,40.2 685.5,42.0 686.3,43.9 687.1,45.7 687.9,47.5 689.0,49.9 690.0,52.3 691.0,54.8 692.0,57.2 693.0,59.6 693.9,62.0 694.9,64.4 695.8,66.9 696.7,69.3 697.6,71.7 698.4,74.1 699.3,76.5 700.1,79.0 700.9,81.4 701.7,83.8 702.7,86.8 703.7,89.9 704.6,92.9 705.6,95.9 706.5,98.9 707.4,102.0 708.3,105.0 709.1,108.0 710.0,111.1 710.8,114.1 711.6,117.1 712.4,120.1 713.4,123.8 714.3,127.4 715.2,131.0 716.1,134.7 717.0,138.3 717.9,141.9 718.7,145.6 719.6,149.2 720.4,152.8 721.2,156.5 722.1,160.7 723.0,164.9 723.9,169.2 724.8,18.4 725.7,22.7 726.5,26.9 727.3,31.1 728.1,35.4 728.9,39.6 729.8,44.5 730.7,49.3 731.6,54.1 732.4,59.0 733.3,63.8 734.1,68.7 734.9,73.5 735.8,79.0 736.7,84.4 737.5,89.9 738.4,95.3 739.2,100.8 740.0,106.2 740.8,111.7 741.7,117.7 742.6,123.8 743.4,129.8 744.3,135.9 745.1,141.9 745.9,148.0 746.8,154.7 747.6,161.3 748.5,168.0 749.3,19.6 750.1,26.3 751.0,33.6 751.8,40.8 752.7,48.1 753.5,132.9 754.3,140.1 755.1,148.0 756.0,155.9 756.8,163.7 757.6,16.6 758.5,24.5 759.3,110.5 760.1,118.9 761.0,127.4 761.8,135.9 762.6,145.0 763.5,154.0 764.3,163.1 765.1,17.2 765.9,104.4 766.8,114.1 767.6,123.8 768.4,133.5 769.2,143.8 770.1,154.0 770.9,164.3 771.7,97.7 772.6,108.6 773.4,119.5 774.2,130.4 775.0,141.9 775.8,153.4 776.6,87.4 777.5,99.6 778.3,111.7 779.1,123.8 779.9,136.5 780.7,149.2 781.5,84.4 782.4,97.7 783.2,111.1 784.0,124.4 784.8,138.3 785.6,74.7 786.5,89.3 787.3,103.8 788.1,118.3 788.9,133.5 789.7,71.1 790.5,86.8 791.3,102.6 792.2,118.9 793.0,135.3 793.8,74.1 794.6,91.1 795.4,108.0 796.2,125.6 797.0,65.6 797.8,83.8 798.6,102.0 799.5,120.7 L799.5,93.5 L438.5,93.5 Z" fill="url(#g554)" clip-path="url(#c556)"/>
  <path d="M438.5,94.1 438.5,94.1 471.8,94.7 491.3,95.3 505.1,95.9 515.8,96.5 524.6,97.1 532.0,97.7 538.4,98.3 544.1,98.9 549.1,99.6 553.7,100.2 557.9,100.8 561.7,101.4 565.3,102.0 568.6,102.6 571.7,103.2 574.6,103.8 577.3,104.4 579.9,105.0 582.4,105.6 584.7,106.2 587.0,106.8 589.1,107.4 591.2,108.0 593.1,108.6 595.0,109.2 596.8,109.8 598.6,110.5 600.2,111.1 601.9,111.7 603.4,112.3 605.0,112.9 606.5,113.5 607.9,114.1 609.3,114.7 610.6,115.3 611.9,115.9 613.2,116.5 614.5,117.1 615.7,117.7 616.9,118.3 618.0,118.9 619.2,119.5 620.3,120.1 621.3,120.7 622.4,121.4 623.4,122.0 624.4,122.6 625.4,123.2 626.4,123.8 627.4,124.4 628.3,125.0 629.2,125.6 630.1,126.2 631.0,126.8 631.8,127.4 632.7,128.0 633.5,128.6 634.4,129.2 635.2,129.8 636.7,131.0 638.3,132.3 639.7,133.5 641.2,134.7 642.6,135.9 643.9,137.1 645.2,138.3 646.5,139.5 647.8,140.7 649.0,141.9 650.2,143.1 651.3,144.4 652.4,145.6 653.6,146.8 654.6,148.0 655.7,149.2 656.7,150.4 657.7,151.6 658.7,152.8 659.7,154.0 660.6,155.3 661.6,156.5 662.5,157.7 663.4,158.9 664.3,160.1 665.1,161.3 666.0,162.5 666.8,163.7 667.6,164.9 668.4,166.2 669.6,168.0 670.8,169.8 671.9,16.6 673.0,18.4 674.1,20.2 675.2,22.1 676.2,23.9 677.2,25.7 678.2,27.5 679.2,29.3 680.1,31.1 681.0,33.0 682.0,34.8 682.9,36.6 683.7,38.4 684.6,40.2 685.5,42.0 686.3,43.9 687.1,45.7 687.9,47.5 689.0,49.9 690.0,52.3 691.0,54.8 692.0,57.2 693.0,59.6 693.9,62.0 694.9,64.4 695.8,66.9 696.7,69.3 697.6,71.7 698.4,74.1 699.3,76.5 700.1,79.0 700.9,81.4 701.7,83.8 702.7,86.8 703.7,89.9 704.6,92.9 705.6,95.9 706.5,98.9 707.4,102.0 708.3,105.0 709.1,108.0 710.0,111.1 710.8,114.1 711.6,117.1 712.4,120.1 713.4,123.8 714.3,127.4 715.2,131.0 716.1,134.7 717.0,138.3 717.9,141.9 718.7,145.6 719.6,149.2 720.4,152.8 721.2,156.5 722.1,160.7 723.0,164.9 723.9,169.2 724.8,18.4 725.7,22.7 726.5,26.9 727.3,31.1 728.1,35.4 728.9,39.6 729.8,44.5 730.7,49.3 731.6,54.1 732.4,59.0 733.3,63.8 734.1,68.7 734.9,73.5 735.8,79.0 736.7,84.4 737.5,89.9 738.4,95.3 739.2,100.8 740.0,106.2 740.8,111.7 741.7,117.7 742.6,123.8 743.4,129.8 744.3,135.9 745.1,141.9 745.9,148.0 746.8,154.7 747.6,161.3 748.5,168.0 749.3,19.6 750.1,26.3 751.0,33.6 751.8,40.8 752.7,48.1 753.5,132.9 754.3,140.1 755.1,148.0 756.0,155.9 756.8,163.7 757.6,16.6 758.5,24.5 759.3,110.5 760.1,118.9 761.0,127.4 761.8,135.9 762.6,145.0 763.5,154.0 764.3,163.1 765.1,17.2 765.9,104.4 766.8,114.1 767.6,123.8 768.4,133.5 769.2,143.8 770.1,154.0 770.9,164.3 771.7,97.7 772.6,108.6 773.4,119.5 774.2,130.4 775.0,141.9 775.8,153.4 776.6,87.4 777.5,99.6 778.3,111.7 779.1,123.8 779.9,136.5 780.7,149.2 781.5,84.4 782.4,97.7 783.2,111.1 784.0,124.4 784.8,138.3 785.6,74.7 786.5,89.3 787.3,103.8 788.1,118.3 788.9,133.5 789.7,71.1 790.5,86.8 791.3,102.6 792.2,118.9 793.0,135.3 793.8,74.1 794.6,91.1 795.4,108.0 796.2,125.6 797.0,65.6 797.8,83.8 798.6,102.0 799.5,120.7 L799.5,93.5 L438.5,93.5 Z" fill="url(#g555)" clip-path="url(#c557)"/>
  <defs><clipPath id="pc558"><rect x="435" y="16" width="365" height="155"/></clipPath></defs>
  <polyline points="438.5,94.1 471.8,94.7 491.3,95.3 505.1,95.9 515.8,96.5 524.6,97.1 532.0,97.7 538.4,98.3 544.1,98.9 549.1,99.6 553.7,100.2 557.9,100.8 561.7,101.4 565.3,102.0 568.6,102.6 571.7,103.2 574.6,103.8 577.3,104.4 579.9,105.0 582.4,105.6 584.7,106.2 587.0,106.8 589.1,107.4 591.2,108.0 593.1,108.6 595.0,109.2 596.8,109.8 598.6,110.5 600.2,111.1 601.9,111.7 603.4,112.3 605.0,112.9 606.5,113.5 607.9,114.1 609.3,114.7 610.6,115.3 611.9,115.9 613.2,116.5 614.5,117.1 615.7,117.7 616.9,118.3 618.0,118.9 619.2,119.5 620.3,120.1 621.3,120.7 622.4,121.4 623.4,122.0 624.4,122.6 625.4,123.2 626.4,123.8 627.4,124.4 628.3,125.0 629.2,125.6 630.1,126.2 631.0,126.8 631.8,127.4 632.7,128.0 633.5,128.6 634.4,129.2 635.2,129.8 636.7,131.0 638.3,132.3 639.7,133.5 641.2,134.7 642.6,135.9 643.9,137.1 645.2,138.3 646.5,139.5 647.8,140.7 649.0,141.9 650.2,143.1 651.3,144.4 652.4,145.6 653.6,146.8 654.6,148.0 655.7,149.2 656.7,150.4 657.7,151.6 658.7,152.8 659.7,154.0 660.6,155.3 661.6,156.5 662.5,157.7 663.4,158.9 664.3,160.1 665.1,161.3 666.0,162.5 666.8,163.7 667.6,164.9 668.4,166.2 669.6,168.0 670.8,169.8 671.9,16.6 673.0,18.4 674.1,20.2 675.2,22.1 676.2,23.9 677.2,25.7 678.2,27.5 679.2,29.3 680.1,31.1 681.0,33.0 682.0,34.8 682.9,36.6 683.7,38.4 684.6,40.2 685.5,42.0 686.3,43.9 687.1,45.7 687.9,47.5 689.0,49.9 690.0,52.3 691.0,54.8 692.0,57.2 693.0,59.6 693.9,62.0 694.9,64.4 695.8,66.9 696.7,69.3 697.6,71.7 698.4,74.1 699.3,76.5 700.1,79.0 700.9,81.4 701.7,83.8 702.7,86.8 703.7,89.9 704.6,92.9 705.6,95.9 706.5,98.9 707.4,102.0 708.3,105.0 709.1,108.0 710.0,111.1 710.8,114.1 711.6,117.1 712.4,120.1 713.4,123.8 714.3,127.4 715.2,131.0 716.1,134.7 717.0,138.3 717.9,141.9 718.7,145.6 719.6,149.2 720.4,152.8 721.2,156.5 722.1,160.7 723.0,164.9 723.9,169.2 724.8,18.4 725.7,22.7 726.5,26.9 727.3,31.1 728.1,35.4 728.9,39.6 729.8,44.5 730.7,49.3 731.6,54.1 732.4,59.0 733.3,63.8 734.1,68.7 734.9,73.5 735.8,79.0 736.7,84.4 737.5,89.9 738.4,95.3 739.2,100.8 740.0,106.2 740.8,111.7 741.7,117.7 742.6,123.8 743.4,129.8 744.3,135.9 745.1,141.9 745.9,148.0 746.8,154.7 747.6,161.3 748.5,168.0 749.3,19.6 750.1,26.3 751.0,33.6 751.8,40.8 752.7,48.1 753.5,132.9 754.3,140.1 755.1,148.0 756.0,155.9 756.8,163.7 757.6,16.6 758.5,24.5 759.3,110.5 760.1,118.9 761.0,127.4 761.8,135.9 762.6,145.0 763.5,154.0 764.3,163.1 765.1,17.2 765.9,104.4 766.8,114.1 767.6,123.8 768.4,133.5 769.2,143.8 770.1,154.0 770.9,164.3 771.7,97.7 772.6,108.6 773.4,119.5 774.2,130.4 775.0,141.9 775.8,153.4 776.6,87.4 777.5,99.6 778.3,111.7 779.1,123.8 779.9,136.5 780.7,149.2 781.5,84.4 782.4,97.7 783.2,111.1 784.0,124.4 784.8,138.3 785.6,74.7 786.5,89.3 787.3,103.8 788.1,118.3 788.9,133.5 789.7,71.1 790.5,86.8 791.3,102.6 792.2,118.9 793.0,135.3 793.8,74.1 794.6,91.1 795.4,108.0 796.2,125.6 797.0,65.6 797.8,83.8 798.6,102.0 799.5,120.7" fill="none" stroke="#e74c3c" stroke-width="1.5" stroke-linejoin="round" clip-path="url(#pc558)"/>
  <line x1="34" y1="207" x2="34" y2="362" stroke="#d1d5db"/>
  <line x1="34" y1="284.5" x2="399" y2="284.5" stroke="#d1d5db"/>
  <text x="216.5" y="388" text-anchor="middle" font-size="9" fill="#6b7280">Hz</text>
  <text x="12" y="284.5" text-anchor="middle" font-size="9" fill="#6b7280" transform="rotate(-90 12 284.5)">Group delay</text>
  <line x1="67.3" y1="207" x2="67.3" y2="362" stroke="#e5e7eb" stroke-width="0.5"/>
  <line x1="86.8" y1="207" x2="86.8" y2="362" stroke="#e5e7eb" stroke-width="0.5"/>
  <line x1="100.6" y1="207" x2="100.6" y2="362" stroke="#e5e7eb" stroke-width="0.5"/>
  <line x1="111.3" y1="207" x2="111.3" y2="362" stroke="#e5e7eb" stroke-width="0.5"/>
  <line x1="120.0" y1="207" x2="120.0" y2="362" stroke="#e5e7eb" stroke-width="0.5"/>
  <line x1="127.4" y1="207" x2="127.4" y2="362" stroke="#e5e7eb" stroke-width="0.5"/>
  <line x1="133.9" y1="207" x2="133.9" y2="362" stroke="#e5e7eb" stroke-width="0.5"/>
  <line x1="139.5" y1="207" x2="139.5" y2="362" stroke="#e5e7eb" stroke-width="0.5"/>
  <line x1="177.9" y1="207" x2="177.9" y2="362" stroke="#e5e7eb" stroke-width="0.5"/>
  <line x1="197.3" y1="207" x2="197.3" y2="362" stroke="#e5e7eb" stroke-width="0.5"/>
  <line x1="211.1" y1="207" x2="211.1" y2="362" stroke="#e5e7eb" stroke-width="0.5"/>
  <line x1="221.9" y1="207" x2="221.9" y2="362" stroke="#e5e7eb" stroke-width="0.5"/>
  <line x1="230.6" y1="207" x2="230.6" y2="362" stroke="#e5e7eb" stroke-width="0.5"/>
  <line x1="238.0" y1="207" x2="238.0" y2="362" stroke="#e5e7eb" stroke-width="0.5"/>
  <line x1="244.4" y1="207" x2="244.4" y2="362" stroke="#e5e7eb" stroke-width="0.5"/>
  <line x1="250.1" y1="207" x2="250.1" y2="362" stroke="#e5e7eb" stroke-width="0.5"/>
  <line x1="288.4" y1="207" x2="288.4" y2="362" stroke="#e5e7eb" stroke-width="0.5"/>
  <line x1="307.9" y1="207" x2="307.9" y2="362" stroke="#e5e7eb" stroke-width="0.5"/>
  <line x1="321.7" y1="207" x2="321.7" y2="362" stroke="#e5e7eb" stroke-width="0.5"/>
  <line x1="332.4" y1="207" x2="332.4" y2="362" stroke="#e5e7eb" stroke-width="0.5"/>
  <line x1="341.2" y1="207" x2="341.2" y2="362" stroke="#e5e7eb" stroke-width="0.5"/>
  <line x1="348.6" y1="207" x2="348.6" y2="362" stroke="#e5e7eb" stroke-width="0.5"/>
  <line x1="355.0" y1="207" x2="355.0" y2="362" stroke="#e5e7eb" stroke-width="0.5"/>
  <line x1="360.7" y1="207" x2="360.7" y2="362" stroke="#e5e7eb" stroke-width="0.5"/>
  <line x1="399.0" y1="207" x2="399.0" y2="362" stroke="#e5e7eb" stroke-width="0.5"/>
  <line x1="144.6" y1="207" x2="144.6" y2="362" stroke="#e5e7eb" stroke-width="0.5"/>
  <text x="144.6" y="374" text-anchor="middle" font-size="8" fill="#6b7280">100</text>
  <line x1="255.1" y1="207" x2="255.1" y2="362" stroke="#e5e7eb" stroke-width="0.5"/>
  <text x="255.1" y="374" text-anchor="middle" font-size="8" fill="#6b7280">1k</text>
  <line x1="365.7" y1="207" x2="365.7" y2="362" stroke="#e5e7eb" stroke-width="0.5"/>
  <text x="365.7" y="374" text-anchor="middle" font-size="8" fill="#6b7280">10k</text>
  <line x1="34" y1="325.9" x2="399" y2="325.9" stroke="#e5e7eb" stroke-width="0.5"/>
  <text x="30" y="328.9" text-anchor="end" font-size="8" fill="#6b7280">-700</text>
  <text x="30" y="287.5" text-anchor="end" font-size="8" fill="#6b7280">0</text>
  <line x1="34" y1="243.1" x2="399" y2="243.1" stroke="#e5e7eb" stroke-width="0.5"/>
  <text x="30" y="246.1" text-anchor="end" font-size="8" fill="#6b7280">700</text>
  <defs><linearGradient id="g559" x1="0" y1="207" x2="0" y2="284.5" gradientUnits="userSpaceOnUse">
    <stop offset="0%" stop-color="#2ecc71" stop-opacity="0.15"/>
    <stop offset="100%" stop-color="#2ecc71" stop-opacity="0.02"/>
  </linearGradient></defs>
  <defs><linearGradient id="g560" x1="0" y1="362" x2="0" y2="284.5" gradientUnits="userSpaceOnUse">
    <stop offset="0%" stop-color="#2ecc71" stop-opacity="0.15"/>
    <stop offset="100%" stop-color="#2ecc71" stop-opacity="0.02"/>
  </linearGradient></defs>
  <defs><clipPath id="c561"><rect x="34" y="207" width="365" height="77.5"/></clipPath></defs>
  <defs><clipPath id="c562"><rect x="34" y="284.5" width="365" height="77.5"/></clipPath></defs>
  <path d="M37.5,283.6 37.5,283.6 70.8,283.6 90.3,283.6 104.1,283.6 114.8,283.6 123.6,283.6 131.0,283.6 137.4,283.6 143.1,283.6 148.1,283.6 152.7,283.6 156.9,283.6 160.7,283.6 164.3,283.6 167.6,283.6 170.7,283.6 173.6,283.6 176.3,283.6 178.9,283.6 181.4,283.6 183.7,283.6 186.0,283.6 188.1,283.6 190.2,283.6 192.1,283.6 194.0,283.6 195.8,283.6 197.6,283.6 199.2,283.6 200.9,283.6 202.4,283.6 204.0,283.6 205.5,283.6 206.9,283.6 208.3,283.6 209.6,283.6 210.9,283.6 212.2,283.6 213.5,283.6 214.7,283.6 215.9,283.6 217.0,283.6 218.2,283.6 219.3,283.6 220.3,283.6 221.4,283.6 222.4,283.6 223.4,283.6 224.4,283.6 225.4,283.6 226.4,283.6 227.3,283.6 228.2,283.6 229.1,283.6 230.0,283.6 230.8,283.6 231.7,283.6 232.5,283.6 233.4,283.6 234.2,283.6 235.7,283.6 237.3,283.6 238.7,283.6 240.2,283.6 241.6,283.6 242.9,283.6 244.2,283.6 245.5,283.6 246.8,283.6 248.0,283.6 249.2,283.6 250.3,283.6 251.4,283.6 252.6,283.6 253.6,283.6 254.7,283.6 255.7,283.6 256.7,283.6 257.7,283.6 258.7,283.6 259.6,283.6 260.6,283.6 261.5,283.6 262.4,283.6 263.3,283.6 264.1,283.6 265.0,283.6 265.8,283.6 266.6,283.6 267.4,283.6 268.6,283.6 269.8,283.6 270.9,283.6 272.0,283.6 273.1,283.6 274.2,283.6 275.2,283.6 276.2,283.6 277.2,283.6 278.2,283.6 279.1,283.6 280.0,283.6 281.0,283.6 281.9,283.6 282.7,283.6 283.6,283.6 284.5,283.6 285.3,283.6 286.1,283.6 286.9,283.6 288.0,283.6 289.0,283.6 290.0,283.6 291.0,283.6 292.0,283.6 292.9,283.6 293.9,283.6 294.8,283.6 295.7,283.6 296.6,283.6 297.4,283.6 298.3,283.6 299.1,283.6 299.9,283.6 300.7,283.6 301.7,283.6 302.7,283.6 303.6,283.6 304.6,283.6 305.5,283.6 306.4,283.6 307.3,283.6 308.1,283.6 309.0,283.6 309.8,283.6 310.6,283.6 311.4,283.6 312.4,283.6 313.3,283.6 314.2,283.6 315.1,283.6 316.0,283.6 316.9,283.6 317.7,283.6 318.6,283.6 319.4,283.6 320.2,283.6 321.1,283.6 322.0,283.6 322.9,283.6 323.8,283.6 324.7,283.6 325.5,283.6 326.3,283.6 327.1,283.6 327.9,283.6 328.8,283.6 329.7,283.6 330.6,283.6 331.4,283.6 332.3,283.6 333.1,283.6 333.9,283.6 334.8,283.6 335.7,283.6 336.5,283.6 337.4,283.6 338.2,283.6 339.0,283.6 339.8,283.6 340.7,283.6 341.6,283.6 342.4,283.6 343.3,283.6 344.1,283.6 344.9,283.6 345.8,283.6 346.6,283.6 347.5,283.6 348.3,283.6 349.1,283.6 350.0,283.6 350.8,283.6 351.7,283.6 352.5,283.6 353.3,283.6 354.1,283.6 355.0,283.6 355.8,283.6 356.6,283.6 357.5,283.6 358.3,283.6 359.1,283.6 360.0,283.6 360.8,283.6 361.6,283.6 362.5,283.6 363.3,283.6 364.1,344.1 364.9,283.6 365.8,283.6 366.6,283.6 367.4,283.6 368.2,283.6 369.1,283.6 369.9,283.6 370.7,283.6 371.6,283.6 372.4,283.6 373.2,283.6 374.0,283.6 374.8,283.6 375.6,283.6 376.5,283.6 377.3,283.6 378.1,283.6 378.9,283.6 379.7,283.6 380.5,283.6 381.4,283.6 382.2,283.6 383.0,283.6 383.8,283.6 384.6,283.6 385.5,283.6 386.3,283.6 387.1,283.6 387.9,283.6 388.7,283.6 389.5,283.6 390.3,283.6 391.2,283.6 392.0,283.6 392.8,283.6 393.6,283.6 394.4,283.6 395.2,283.6 396.0,283.6 396.8,283.6 397.6,283.6 398.5,283.6 L398.5,284.5 L37.5,284.5 Z" fill="url(#g559)" clip-path="url(#c561)"/>
  <path d="M37.5,283.6 37.5,283.6 70.8,283.6 90.3,283.6 104.1,283.6 114.8,283.6 123.6,283.6 131.0,283.6 137.4,283.6 143.1,283.6 148.1,283.6 152.7,283.6 156.9,283.6 160.7,283.6 164.3,283.6 167.6,283.6 170.7,283.6 173.6,283.6 176.3,283.6 178.9,283.6 181.4,283.6 183.7,283.6 186.0,283.6 188.1,283.6 190.2,283.6 192.1,283.6 194.0,283.6 195.8,283.6 197.6,283.6 199.2,283.6 200.9,283.6 202.4,283.6 204.0,283.6 205.5,283.6 206.9,283.6 208.3,283.6 209.6,283.6 210.9,283.6 212.2,283.6 213.5,283.6 214.7,283.6 215.9,283.6 217.0,283.6 218.2,283.6 219.3,283.6 220.3,283.6 221.4,283.6 222.4,283.6 223.4,283.6 224.4,283.6 225.4,283.6 226.4,283.6 227.3,283.6 228.2,283.6 229.1,283.6 230.0,283.6 230.8,283.6 231.7,283.6 232.5,283.6 233.4,283.6 234.2,283.6 235.7,283.6 237.3,283.6 238.7,283.6 240.2,283.6 241.6,283.6 242.9,283.6 244.2,283.6 245.5,283.6 246.8,283.6 248.0,283.6 249.2,283.6 250.3,283.6 251.4,283.6 252.6,283.6 253.6,283.6 254.7,283.6 255.7,283.6 256.7,283.6 257.7,283.6 258.7,283.6 259.6,283.6 260.6,283.6 261.5,283.6 262.4,283.6 263.3,283.6 264.1,283.6 265.0,283.6 265.8,283.6 266.6,283.6 267.4,283.6 268.6,283.6 269.8,283.6 270.9,283.6 272.0,283.6 273.1,283.6 274.2,283.6 275.2,283.6 276.2,283.6 277.2,283.6 278.2,283.6 279.1,283.6 280.0,283.6 281.0,283.6 281.9,283.6 282.7,283.6 283.6,283.6 284.5,283.6 285.3,283.6 286.1,283.6 286.9,283.6 288.0,283.6 289.0,283.6 290.0,283.6 291.0,283.6 292.0,283.6 292.9,283.6 293.9,283.6 294.8,283.6 295.7,283.6 296.6,283.6 297.4,283.6 298.3,283.6 299.1,283.6 299.9,283.6 300.7,283.6 301.7,283.6 302.7,283.6 303.6,283.6 304.6,283.6 305.5,283.6 306.4,283.6 307.3,283.6 308.1,283.6 309.0,283.6 309.8,283.6 310.6,283.6 311.4,283.6 312.4,283.6 313.3,283.6 314.2,283.6 315.1,283.6 316.0,283.6 316.9,283.6 317.7,283.6 318.6,283.6 319.4,283.6 320.2,283.6 321.1,283.6 322.0,283.6 322.9,283.6 323.8,283.6 324.7,283.6 325.5,283.6 326.3,283.6 327.1,283.6 327.9,283.6 328.8,283.6 329.7,283.6 330.6,283.6 331.4,283.6 332.3,283.6 333.1,283.6 333.9,283.6 334.8,283.6 335.7,283.6 336.5,283.6 337.4,283.6 338.2,283.6 339.0,283.6 339.8,283.6 340.7,283.6 341.6,283.6 342.4,283.6 343.3,283.6 344.1,283.6 344.9,283.6 345.8,283.6 346.6,283.6 347.5,283.6 348.3,283.6 349.1,283.6 350.0,283.6 350.8,283.6 351.7,283.6 352.5,283.6 353.3,283.6 354.1,283.6 355.0,283.6 355.8,283.6 356.6,283.6 357.5,283.6 358.3,283.6 359.1,283.6 360.0,283.6 360.8,283.6 361.6,283.6 362.5,283.6 363.3,283.6 364.1,344.1 364.9,283.6 365.8,283.6 366.6,283.6 367.4,283.6 368.2,283.6 369.1,283.6 369.9,283.6 370.7,283.6 371.6,283.6 372.4,283.6 373.2,283.6 374.0,283.6 374.8,283.6 375.6,283.6 376.5,283.6 377.3,283.6 378.1,283.6 378.9,283.6 379.7,283.6 380.5,283.6 381.4,283.6 382.2,283.6 383.0,283.6 383.8,283.6 384.6,283.6 385.5,283.6 386.3,283.6 387.1,283.6 387.9,283.6 388.7,283.6 389.5,283.6 390.3,283.6 391.2,283.6 392.0,283.6 392.8,283.6 393.6,283.6 394.4,283.6 395.2,283.6 396.0,283.6 396.8,283.6 397.6,283.6 398.5,283.6 L398.5,284.5 L37.5,284.5 Z" fill="url(#g560)" clip-path="url(#c562)"/>
  <defs><clipPath id="pc563"><rect x="34" y="207" width="365" height="155"/></clipPath></defs>
  <polyline points="37.5,283.6 70.8,283.6 90.3,283.6 104.1,283.6 114.8,283.6 123.6,283.6 131.0,283.6 137.4,283.6 143.1,283.6 148.1,283.6 152.7,283.6 156.9,283.6 160.7,283.6 164.3,283.6 167.6,283.6 170.7,283.6 173.6,283.6 176.3,283.6 178.9,283.6 181.4,283.6 183.7,283.6 186.0,283.6 188.1,283.6 190.2,283.6 192.1,283.6 194.0,283.6 195.8,283.6 197.6,283.6 199.2,283.6 200.9,283.6 202.4,283.6 204.0,283.6 205.5,283.6 206.9,283.6 208.3,283.6 209.6,283.6 210.9,283.6 212.2,283.6 213.5,283.6 214.7,283.6 215.9,283.6 217.0,283.6 218.2,283.6 219.3,283.6 220.3,283.6 221.4,283.6 222.4,283.6 223.4,283.6 224.4,283.6 225.4,283.6 226.4,283.6 227.3,283.6 228.2,283.6 229.1,283.6 230.0,283.6 230.8,283.6 231.7,283.6 232.5,283.6 233.4,283.6 234.2,283.6 235.7,283.6 237.3,283.6 238.7,283.6 240.2,283.6 241.6,283.6 242.9,283.6 244.2,283.6 245.5,283.6 246.8,283.6 248.0,283.6 249.2,283.6 250.3,283.6 251.4,283.6 252.6,283.6 253.6,283.6 254.7,283.6 255.7,283.6 256.7,283.6 257.7,283.6 258.7,283.6 259.6,283.6 260.6,283.6 261.5,283.6 262.4,283.6 263.3,283.6 264.1,283.6 265.0,283.6 265.8,283.6 266.6,283.6 267.4,283.6 268.6,283.6 269.8,283.6 270.9,283.6 272.0,283.6 273.1,283.6 274.2,283.6 275.2,283.6 276.2,283.6 277.2,283.6 278.2,283.6 279.1,283.6 280.0,283.6 281.0,283.6 281.9,283.6 282.7,283.6 283.6,283.6 284.5,283.6 285.3,283.6 286.1,283.6 286.9,283.6 288.0,283.6 289.0,283.6 290.0,283.6 291.0,283.6 292.0,283.6 292.9,283.6 293.9,283.6 294.8,283.6 295.7,283.6 296.6,283.6 297.4,283.6 298.3,283.6 299.1,283.6 299.9,283.6 300.7,283.6 301.7,283.6 302.7,283.6 303.6,283.6 304.6,283.6 305.5,283.6 306.4,283.6 307.3,283.6 308.1,283.6 309.0,283.6 309.8,283.6 310.6,283.6 311.4,283.6 312.4,283.6 313.3,283.6 314.2,283.6 315.1,283.6 316.0,283.6 316.9,283.6 317.7,283.6 318.6,283.6 319.4,283.6 320.2,283.6 321.1,283.6 322.0,283.6 322.9,283.6 323.8,283.6 324.7,283.6 325.5,283.6 326.3,283.6 327.1,283.6 327.9,283.6 328.8,283.6 329.7,283.6 330.6,283.6 331.4,283.6 332.3,283.6 333.1,283.6 333.9,283.6 334.8,283.6 335.7,283.6 336.5,283.6 337.4,283.6 338.2,283.6 339.0,283.6 339.8,283.6 340.7,283.6 341.6,283.6 342.4,283.6 343.3,283.6 344.1,283.6 344.9,283.6 345.8,283.6 346.6,283.6 347.5,283.6 348.3,283.6 349.1,283.6 350.0,283.6 350.8,283.6 351.7,283.6 352.5,283.6 353.3,283.6 354.1,283.6 355.0,283.6 355.8,283.6 356.6,283.6 357.5,283.6 358.3,283.6 359.1,283.6 360.0,283.6 360.8,283.6 361.6,283.6 362.5,283.6 363.3,283.6 364.1,344.1 364.9,283.6 365.8,283.6 366.6,283.6 367.4,283.6 368.2,283.6 369.1,283.6 369.9,283.6 370.7,283.6 371.6,283.6 372.4,283.6 373.2,283.6 374.0,283.6 374.8,283.6 375.6,283.6 376.5,283.6 377.3,283.6 378.1,283.6 378.9,283.6 379.7,283.6 380.5,283.6 381.4,283.6 382.2,283.6 383.0,283.6 383.8,283.6 384.6,283.6 385.5,283.6 386.3,283.6 387.1,283.6 387.9,283.6 388.7,283.6 389.5,283.6 390.3,283.6 391.2,283.6 392.0,283.6 392.8,283.6 393.6,283.6 394.4,283.6 395.2,283.6 396.0,283.6 396.8,283.6 397.6,283.6 398.5,283.6" fill="none" stroke="#2ecc71" stroke-width="1.5" stroke-linejoin="round" clip-path="url(#pc563)"/>
  <line x1="435" y1="207" x2="435" y2="362" stroke="#d1d5db"/>
  <line x1="435" y1="284.5" x2="800" y2="284.5" stroke="#d1d5db"/>
  <text x="617.5" y="388" text-anchor="middle" font-size="9" fill="#6b7280">Samples</text>
  <text x="413" y="284.5" text-anchor="middle" font-size="9" fill="#6b7280" transform="rotate(-90 413 284.5)">Impulse response</text>
  <line x1="435.0" y1="207" x2="435.0" y2="362" stroke="#e5e7eb" stroke-width="0.5"/>
  <text x="435.0" y="374" text-anchor="middle" font-size="8" fill="#6b7280">0</text>
  <line x1="656.2" y1="207" x2="656.2" y2="362" stroke="#e5e7eb" stroke-width="0.5"/>
  <text x="656.2" y="374" text-anchor="middle" font-size="8" fill="#6b7280">20</text>
  <line x1="435" y1="343.7" x2="800" y2="343.7" stroke="#e5e7eb" stroke-width="0.5"/>
  <text x="431" y="346.7" text-anchor="end" font-size="8" fill="#6b7280">-0.4</text>
  <text x="431" y="287.5" text-anchor="end" font-size="8" fill="#6b7280">0</text>
  <line x1="435" y1="225.3" x2="800" y2="225.3" stroke="#e5e7eb" stroke-width="0.5"/>
  <text x="431" y="228.3" text-anchor="end" font-size="8" fill="#6b7280">0.4</text>
  <defs><linearGradient id="g564" x1="0" y1="207" x2="0" y2="284.5" gradientUnits="userSpaceOnUse">
    <stop offset="0%" stop-color="#f39c12" stop-opacity="0.15"/>
    <stop offset="100%" stop-color="#f39c12" stop-opacity="0.02"/>
  </linearGradient></defs>
  <defs><linearGradient id="g565" x1="0" y1="362" x2="0" y2="284.5" gradientUnits="userSpaceOnUse">
    <stop offset="0%" stop-color="#f39c12" stop-opacity="0.15"/>
    <stop offset="100%" stop-color="#f39c12" stop-opacity="0.02"/>
  </linearGradient></defs>
  <defs><clipPath id="c566"><rect x="435" y="207" width="365" height="77.5"/></clipPath></defs>
  <defs><clipPath id="c567"><rect x="435" y="284.5" width="365" height="77.5"/></clipPath></defs>
  <path d="M435.0,284.5 435.0,284.5 446.1,284.9 457.1,285.6 468.2,285.7 479.2,284.5 490.3,282.2 501.4,280.1 512.4,280.4 523.5,284.5 534.5,291.4 545.6,297.1 556.7,296.1 567.7,284.5 578.8,262.7 589.8,236.6 600.9,215.2 612.0,207.0 623.0,215.2 634.1,236.6 645.2,262.7 656.2,284.5 667.3,296.1 678.3,297.1 689.4,291.4 700.5,284.5 711.5,280.4 722.6,280.1 733.6,282.2 744.7,284.5 755.8,285.7 766.8,285.6 777.9,284.9 788.9,284.5 L788.9,284.5 L435.0,284.5 Z" fill="url(#g564)" clip-path="url(#c566)"/>
  <path d="M435.0,284.5 435.0,284.5 446.1,284.9 457.1,285.6 468.2,285.7 479.2,284.5 490.3,282.2 501.4,280.1 512.4,280.4 523.5,284.5 534.5,291.4 545.6,297.1 556.7,296.1 567.7,284.5 578.8,262.7 589.8,236.6 600.9,215.2 612.0,207.0 623.0,215.2 634.1,236.6 645.2,262.7 656.2,284.5 667.3,296.1 678.3,297.1 689.4,291.4 700.5,284.5 711.5,280.4 722.6,280.1 733.6,282.2 744.7,284.5 755.8,285.7 766.8,285.6 777.9,284.9 788.9,284.5 L788.9,284.5 L435.0,284.5 Z" fill="url(#g565)" clip-path="url(#c567)"/>
  <defs><clipPath id="pc568"><rect x="435" y="207" width="365" height="155"/></clipPath></defs>
  <polyline points="435.0,284.5 446.1,284.9 457.1,285.6 468.2,285.7 479.2,284.5 490.3,282.2 501.4,280.1 512.4,280.4 523.5,284.5 534.5,291.4 545.6,297.1 556.7,296.1 567.7,284.5 578.8,262.7 589.8,236.6 600.9,215.2 612.0,207.0 623.0,215.2 634.1,236.6 645.2,262.7 656.2,284.5 667.3,296.1 678.3,297.1 689.4,291.4 700.5,284.5 711.5,280.4 722.6,280.1 733.6,282.2 744.7,284.5 755.8,285.7 766.8,285.6 777.9,284.9 788.9,284.5" fill="none" stroke="#f39c12" stroke-width="1.3" stroke-linejoin="round" clip-path="url(#pc568)"/>
</svg>
