<svg xmlns="http://www.w3.org/2000/svg" viewBox="0 0 820 378" style="font-family:system-ui,-apple-system,sans-serif">
  <text x="800" y="11" text-anchor="end" font-size="11" font-weight="600" fill="#6b7280">Minimum-phase FIR, 65 taps, fc=1kHz</text>
  <line x1="34" y1="16" x2="34" y2="171" stroke="#d1d5db"/>
  <line x1="34" y1="47.0" x2="399" y2="47.0" stroke="#d1d5db"/>
  <text x="216.5" y="197" text-anchor="middle" font-size="9" fill="#6b7280">Hz</text>
  <text x="12" y="93.5" text-anchor="middle" font-size="9" fill="#6b7280" transform="rotate(-90 12 93.5)">dB</text>
  <line x1="67.3" y1="16" x2="67.3" y2="171" stroke="#e5e7eb" stroke-width="0.5"/>
  <line x1="86.8" y1="16" x2="86.8" y2="171" stroke="#e5e7eb" stroke-width="0.5"/>
  <line x1="100.6" y1="16" x2="100.6" y2="171" stroke="#e5e7eb" stroke-width="0.5"/>
  <line x1="111.3" y1="16" x2="111.3" y2="171" stroke="#e5e7eb" stroke-width="0.5"/>
  <line x1="120.0" y1="16" x2="120.0" y2="171" stroke="#e5e7eb" stroke-width="0.5"/>
  <line x1="127.4" y1="16" x2="127.4" y2="171" stroke="#e5e7eb" stroke-width="0.5"/>
  <line x1="133.9" y1="16" x2="133.9" y2="171" stroke="#e5e7eb" stroke-width="0.5"/>
  <line x1="139.5" y1="16" x2="139.5" y2="171" stroke="#e5e7eb" stroke-width="0.5"/>
  <line x1="177.9" y1="16" x2="177.9" y2="171" stroke="#e5e7eb" stroke-width="0.5"/>
  <line x1="197.3" y1="16" x2="197.3" y2="171" stroke="#e5e7eb" stroke-width="0.5"/>
  <line x1="211.1" y1="16" x2="211.1" y2="171" stroke="#e5e7eb" stroke-width="0.5"/>
  <line x1="221.9" y1="16" x2="221.9" y2="171" stroke="#e5e7eb" stroke-width="0.5"/>
  <line x1="230.6" y1="16" x2="230.6" y2="171" stroke="#e5e7eb" stroke-width="0.5"/>
  <line x1="238.0" y1="16" x2="238.0" y2="171" stroke="#e5e7eb" stroke-width="0.5"/>
  <line x1="244.4" y1="16" x2="244.4" y2="171" stroke="#e5e7eb" stroke-width="0.5"/>
  <line x1="250.1" y1="16" x2="250.1" y2="171" stroke="#e5e7eb" stroke-width="0.5"/>
  <line x1="288.4" y1="16" x2="288.4" y2="171" stroke="#e5e7eb" stroke-width="0.5"/>
  <line x1="307.9" y1="16" x2="307.9" y2="171" stroke="#e5e7eb" stroke-width="0.5"/>
  <line x1="321.7" y1="16" x2="321.7" y2="171" stroke="#e5e7eb" stroke-width="0.5"/>
  <line x1="332.4" y1="16" x2="332.4" y2="171" stroke="#e5e7eb" stroke-width="0.5"/>
  <line x1="341.2" y1="16" x2="341.2" y2="171" stroke="#e5e7eb" stroke-width="0.5"/>
  <line x1="348.6" y1="16" x2="348.6" y2="171" stroke="#e5e7eb" stroke-width="0.5"/>
  <line x1="355.0" y1="16" x2="355.0" y2="171" stroke="#e5e7eb" stroke-width="0.5"/>
  <line x1="360.7" y1="16" x2="360.7" y2="171" stroke="#e5e7eb" stroke-width="0.5"/>
  <line x1="399.0" y1="16" x2="399.0" y2="171" stroke="#e5e7eb" stroke-width="0.5"/>
  <line x1="144.6" y1="16" x2="144.6" y2="171" stroke="#e5e7eb" stroke-width="0.5"/>
  <text x="144.6" y="183" text-anchor="middle" font-size="8" fill="#6b7280">100</text>
  <line x1="255.1" y1="16" x2="255.1" y2="171" stroke="#e5e7eb" stroke-width="0.5"/>
  <text x="255.1" y="183" text-anchor="middle" font-size="8" fill="#6b7280">1k</text>
  <line x1="365.7" y1="16" x2="365.7" y2="171" stroke="#e5e7eb" stroke-width="0.5"/>
  <text x="365.7" y="183" text-anchor="middle" font-size="8" fill="#6b7280">10k</text>
  <line x1="34" y1="31.5" x2="399" y2="31.5" stroke="#e5e7eb" stroke-width="0.5"/>
  <line x1="34" y1="62.5" x2="399" y2="62.5" stroke="#e5e7eb" stroke-width="0.5"/>
  <line x1="34" y1="16.0" x2="399" y2="16.0" stroke="#e5e7eb" stroke-width="0.5"/>
  <text x="30" y="19.0" text-anchor="end" font-size="8" fill="#6b7280">+20</text>
  <text x="30" y="50.0" text-anchor="end" font-size="8" fill="#6b7280">0</text>
  <line x1="34" y1="78.0" x2="399" y2="78.0" stroke="#e5e7eb" stroke-width="0.5"/>
  <text x="30" y="81.0" text-anchor="end" font-size="8" fill="#6b7280">-20</text>
  <line x1="34" y1="109.0" x2="399" y2="109.0" stroke="#e5e7eb" stroke-width="0.5"/>
  <text x="30" y="112.0" text-anchor="end" font-size="8" fill="#6b7280">-40</text>
  <line x1="34" y1="140.0" x2="399" y2="140.0" stroke="#e5e7eb" stroke-width="0.5"/>
  <text x="30" y="143.0" text-anchor="end" font-size="8" fill="#6b7280">-60</text>
  <line x1="34" y1="171.0" x2="399" y2="171.0" stroke="#e5e7eb" stroke-width="0.5"/>
  <text x="30" y="174.0" text-anchor="end" font-size="8" fill="#6b7280">-80</text>
  <line x1="255.1" y1="16" x2="255.1" y2="171" stroke="#d1d5db" stroke-width="1" stroke-dasharray="4 3"/>
  <defs><linearGradient id="g771" x1="0" y1="16" x2="0" y2="171" gradientUnits="userSpaceOnUse">
    <stop offset="0%" stop-color="#4a90d9" stop-opacity="0.15"/>
    <stop offset="100%" stop-color="#4a90d9" stop-opacity="0.02"/>
  </linearGradient></defs>
  <path d="M37.5,47.0 37.5,47.0 70.8,47.0 90.3,47.0 104.1,47.0 114.8,47.0 123.6,47.0 131.0,47.0 137.4,47.1 143.1,47.1 148.1,47.1 152.7,47.1 156.9,47.1 160.7,47.1 164.3,47.2 167.6,47.2 170.7,47.2 173.6,47.2 176.3,47.3 178.9,47.3 181.4,47.3 183.7,47.4 186.0,47.4 188.1,47.4 190.2,47.5 192.1,47.5 194.0,47.6 195.8,47.6 197.6,47.7 199.2,47.7 200.9,47.8 202.4,47.8 204.0,47.9 205.5,47.9 206.9,48.0 208.3,48.1 209.6,48.1 210.9,48.2 212.2,48.3 213.5,48.3 214.7,48.4 215.9,48.5 217.0,48.6 218.2,48.6 219.3,48.7 220.3,48.8 221.4,48.9 222.4,49.0 223.4,49.1 224.4,49.2 225.4,49.2 226.4,49.3 227.3,49.4 228.2,49.5 229.1,49.6 230.0,49.8 230.8,49.9 231.7,50.0 232.5,50.1 233.4,50.2 234.2,50.3 235.7,50.6 237.3,50.8 238.7,51.1 240.2,51.4 241.6,51.7 242.9,52.0 244.2,52.3 245.5,52.6 246.8,53.0 248.0,53.3 249.2,53.7 250.3,54.1 251.4,54.5 252.6,54.9 253.6,55.3 254.7,55.8 255.7,56.2 256.7,56.7 257.7,57.2 258.7,57.7 259.6,58.2 260.6,58.7 261.5,59.3 262.4,59.9 263.3,60.5 264.1,61.1 265.0,61.7 265.8,62.4 266.6,63.0 267.4,63.7 268.6,64.8 269.8,65.9 270.9,67.1 272.0,68.4 273.1,69.7 274.2,71.0 275.2,72.5 276.2,74.0 277.2,75.5 278.2,77.2 279.1,78.9 280.0,80.7 281.0,82.6 281.9,84.6 282.7,86.7 283.6,89.0 284.5,91.3 285.3,93.9 286.1,96.5 286.9,99.4 288.0,103.5 289.0,108.1 290.0,113.3 291.0,119.3 292.0,126.6 292.9,136.1 293.9,151.2 294.8,157.2 295.7,147.7 296.6,144.5 297.4,143.6 298.3,143.5 299.1,143.6 299.9,143.3 300.7,142.6 301.7,141.0 302.7,139.0 303.6,136.9 304.6,134.8 305.5,133.0 306.4,131.6 307.3,130.7 308.1,130.4 309.0,130.8 309.8,132.0 310.6,134.2 311.4,137.8 312.4,145.5 313.3,154.0 314.2,143.3 315.1,136.0 316.0,131.8 316.9,129.5 317.7,128.4 318.6,128.6 319.4,129.9 320.2,132.7 321.1,139.1 322.0,155.9 322.9,149.6 323.8,137.3 324.7,132.1 325.5,129.7 326.3,129.0 327.1,130.0 327.9,132.9 328.8,139.7 329.7,156.6 330.6,144.6 331.4,135.4 332.3,131.5 333.1,130.1 333.9,131.0 334.8,134.8 335.7,143.8 336.5,156.2 337.4,140.2 338.2,134.0 339.0,131.9 339.8,132.7 340.7,137.2 341.6,150.6 342.4,152.2 343.3,138.2 344.1,133.8 344.9,133.4 345.8,137.1 346.6,149.2 347.5,152.7 348.3,138.6 349.1,134.6 350.0,135.3 350.8,142.0 351.7,164.4 352.5,142.7 353.3,136.2 354.1,135.9 355.0,142.2 355.8,164.1 356.6,142.6 357.5,136.6 358.3,137.6 359.1,147.6 360.0,154.1 360.8,139.5 361.6,137.2 362.5,143.3 363.3,169.3 364.1,141.9 364.9,137.7 365.8,143.2 366.6,171.0 367.4,142.0 368.2,138.4 369.1,145.8 369.9,153.5 370.7,139.7 371.6,140.3 372.4,160.2 373.2,145.3 374.0,139.5 374.8,148.1 375.6,152.9 376.5,140.2 377.3,145.1 378.1,158.7 378.9,141.1 379.7,145.0 380.5,158.6 381.4,141.3 382.2,146.9 383.0,153.5 383.8,141.4 384.6,152.6 385.5,146.7 386.3,142.6 387.1,171.0 387.9,142.5 388.7,148.4 389.5,148.5 390.3,142.8 391.2,169.1 392.0,142.5 392.8,157.6 393.6,144.5 394.4,149.0 395.2,147.8 396.0,146.0 396.8,151.0 397.6,144.9 398.5,153.1 L398.5,171.0 L37.5,171.0 Z" fill="url(#g771)"/>
  <defs><clipPath id="pc772"><rect x="34" y="16" width="365" height="155"/></clipPath></defs>
  <polyline points="37.5,47.0 70.8,47.0 90.3,47.0 104.1,47.0 114.8,47.0 123.6,47.0 131.0,47.0 137.4,47.1 143.1,47.1 148.1,47.1 152.7,47.1 156.9,47.1 160.7,47.1 164.3,47.2 167.6,47.2 170.7,47.2 173.6,47.2 176.3,47.3 178.9,47.3 181.4,47.3 183.7,47.4 186.0,47.4 188.1,47.4 190.2,47.5 192.1,47.5 194.0,47.6 195.8,47.6 197.6,47.7 199.2,47.7 200.9,47.8 202.4,47.8 204.0,47.9 205.5,47.9 206.9,48.0 208.3,48.1 209.6,48.1 210.9,48.2 212.2,48.3 213.5,48.3 214.7,48.4 215.9,48.5 217.0,48.6 218.2,48.6 219.3,48.7 220.3,48.8 221.4,48.9 222.4,49.0 223.4,49.1 224.4,49.2 225.4,49.2 226.4,49.3 227.3,49.4 228.2,49.5 229.1,49.6 230.0,49.8 230.8,49.9 231.7,50.0 232.5,50.1 233.4,50.2 234.2,50.3 235.7,50.6 237.3,50.8 238.7,51.1 240.2,51.4 241.6,51.7 242.9,52.0 244.2,52.3 245.5,52.6 246.8,53.0 248.0,53.3 249.2,53.7 250.3,54.1 251.4,54.5 252.6,54.9 253.6,55.3 254.7,55.8 255.7,56.2 256.7,56.7 257.7,57.2 258.7,57.7 259.6,58.2 260.6,58.7 261.5,59.3 262.4,59.9 263.3,60.5 264.1,61.1 265.0,61.7 265.8,62.4 266.6,63.0 267.4,63.7 268.6,64.8 269.8,65.9 270.9,67.1 272.0,68.4 273.1,69.7 274.2,71.0 275.2,72.5 276.2,74.0 277.2,75.5 278.2,77.2 279.1,78.9 280.0,80.7 281.0,82.6 281.9,84.6 282.7,86.7 283.6,89.0 284.5,91.3 285.3,93.9 286.1,96.5 286.9,99.4 288.0,103.5 289.0,108.1 290.0,113.3 291.0,119.3 292.0,126.6 292.9,136.1 293.9,151.2 294.8,157.2 295.7,147.7 296.6,144.5 297.4,143.6 298.3,143.5 299.1,143.6 299.9,143.3 300.7,142.6 301.7,141.0 302.7,139.0 303.6,136.9 304.6,134.8 305.5,133.0 306.4,131.6 307.3,130.7 308.1,130.4 309.0,130.8 309.8,132.0 310.6,134.2 311.4,137.8 312.4,145.5 313.3,154.0 314.2,143.3 315.1,136.0 316.0,131.8 316.9,129.5 317.7,128.4 318.6,128.6 319.4,129.9 320.2,132.7 321.1,139.1 322.0,155.9 322.9,149.6 323.8,137.3 324.7,132.1 325.5,129.7 326.3,129.0 327.1,130.0 327.9,132.9 328.8,139.7 329.7,156.6 330.6,144.6 331.4,135.4 332.3,131.5 333.1,130.1 333.9,131.0 334.8,134.8 335.7,143.8 336.5,156.2 337.4,140.2 338.2,134.0 339.0,131.9 339.8,132.7 340.7,137.2 341.6,150.6 342.4,152.2 343.3,138.2 344.1,133.8 344.9,133.4 345.8,137.1 346.6,149.2 347.5,152.7 348.3,138.6 349.1,134.6 350.0,135.3 350.8,142.0 351.7,164.4 352.5,142.7 353.3,136.2 354.1,135.9 355.0,142.2 355.8,164.1 356.6,142.6 357.5,136.6 358.3,137.6 359.1,147.6 360.0,154.1 360.8,139.5 361.6,137.2 362.5,143.3 363.3,169.3 364.1,141.9 364.9,137.7 365.8,143.2 366.6,176.4 367.4,142.0 368.2,138.4 369.1,145.8 369.9,153.5 370.7,139.7 371.6,140.3 372.4,160.2 373.2,145.3 374.0,139.5 374.8,148.1 375.6,152.9 376.5,140.2 377.3,145.1 378.1,158.7 378.9,141.1 379.7,145.0 380.5,158.6 381.4,141.3 382.2,146.9 383.0,153.5 383.8,141.4 384.6,152.6 385.5,146.7 386.3,142.6 387.1,199.5 387.9,142.5 388.7,148.4 389.5,148.5 390.3,142.8 391.2,169.1 392.0,142.5 392.8,157.6 393.6,144.5 394.4,149.0 395.2,147.8 396.0,146.0 396.8,151.0 397.6,144.9 398.5,153.1" fill="none" stroke="#4a90d9" stroke-width="1.5" stroke-linejoin="round" clip-path="url(#pc772)"/>
  <line x1="435" y1="16" x2="435" y2="171" stroke="#d1d5db"/>
  <line x1="435" y1="93.5" x2="800" y2="93.5" stroke="#d1d5db"/>
  <text x="617.5" y="197" text-anchor="middle" font-size="9" fill="#6b7280">Hz</text>
  <text x="413" y="93.5" text-anchor="middle" font-size="9" fill="#6b7280" transform="rotate(-90 413 93.5)">Phase (deg)</text>
  <line x1="468.3" y1="16" x2="468.3" y2="171" stroke="#e5e7eb" stroke-width="0.5"/>
  <line x1="487.8" y1="16" x2="487.8" y2="171" stroke="#e5e7eb" stroke-width="0.5"/>
  <line x1="501.6" y1="16" x2="501.6" y2="171" stroke="#e5e7eb" stroke-width="0.5"/>
  <line x1="512.3" y1="16" x2="512.3" y2="171" stroke="#e5e7eb" stroke-width="0.5"/>
  <line x1="521.0" y1="16" x2="521.0" y2="171" stroke="#e5e7eb" stroke-width="0.5"/>
  <line x1="528.4" y1="16" x2="528.4" y2="171" stroke="#e5e7eb" stroke-width="0.5"/>
  <line x1="534.9" y1="16" x2="534.9" y2="171" stroke="#e5e7eb" stroke-width="0.5"/>
  <line x1="540.5" y1="16" x2="540.5" y2="171" stroke="#e5e7eb" stroke-width="0.5"/>
  <line x1="578.9" y1="16" x2="578.9" y2="171" stroke="#e5e7eb" stroke-width="0.5"/>
  <line x1="598.3" y1="16" x2="598.3" y2="171" stroke="#e5e7eb" stroke-width="0.5"/>
  <line x1="612.1" y1="16" x2="612.1" y2="171" stroke="#e5e7eb" stroke-width="0.5"/>
  <line x1="622.9" y1="16" x2="622.9" y2="171" stroke="#e5e7eb" stroke-width="0.5"/>
  <line x1="631.6" y1="16" x2="631.6" y2="171" stroke="#e5e7eb" stroke-width="0.5"/>
  <line x1="639.0" y1="16" x2="639.0" y2="171" stroke="#e5e7eb" stroke-width="0.5"/>
  <line x1="645.4" y1="16" x2="645.4" y2="171" stroke="#e5e7eb" stroke-width="0.5"/>
  <line x1="651.1" y1="16" x2="651.1" y2="171" stroke="#e5e7eb" stroke-width="0.5"/>
  <line x1="689.4" y1="16" x2="689.4" y2="171" stroke="#e5e7eb" stroke-width="0.5"/>
  <line x1="708.9" y1="16" x2="708.9" y2="171" stroke="#e5e7eb" stroke-width="0.5"/>
  <line x1="722.7" y1="16" x2="722.7" y2="171" stroke="#e5e7eb" stroke-width="0.5"/>
  <line x1="733.4" y1="16" x2="733.4" y2="171" stroke="#e5e7eb" stroke-width="0.5"/>
  <line x1="742.2" y1="16" x2="742.2" y2="171" stroke="#e5e7eb" stroke-width="0.5"/>
  <line x1="749.6" y1="16" x2="749.6" y2="171" stroke="#e5e7eb" stroke-width="0.5"/>
  <line x1="756.0" y1="16" x2="756.0" y2="171" stroke="#e5e7eb" stroke-width="0.5"/>
  <line x1="761.7" y1="16" x2="761.7" y2="171" stroke="#e5e7eb" stroke-width="0.5"/>
  <line x1="800.0" y1="16" x2="800.0" y2="171" stroke="#e5e7eb" stroke-width="0.5"/>
  <line x1="545.6" y1="16" x2="545.6" y2="171" stroke="#e5e7eb" stroke-width="0.5"/>
  <text x="545.6" y="183" text-anchor="middle" font-size="8" fill="#6b7280">100</text>
  <line x1="656.1" y1="16" x2="656.1" y2="171" stroke="#e5e7eb" stroke-width="0.5"/>
  <text x="656.1" y="183" text-anchor="middle" font-size="8" fill="#6b7280">1k</text>
  <line x1="766.7" y1="16" x2="766.7" y2="171" stroke="#e5e7eb" stroke-width="0.5"/>
  <text x="766.7" y="183" text-anchor="middle" font-size="8" fill="#6b7280">10k</text>
  <line x1="435" y1="58.6" x2="800" y2="58.6" stroke="#e5e7eb" stroke-width="0.5"/>
  <line x1="435" y1="128.4" x2="800" y2="128.4" stroke="#e5e7eb" stroke-width="0.5"/>
  <line x1="435" y1="23.8" x2="800" y2="23.8" stroke="#e5e7eb" stroke-width="0.5"/>
  <text x="431" y="26.8" text-anchor="end" font-size="8" fill="#6b7280">180</text>
  <text x="431" y="96.5" text-anchor="end" font-size="8" fill="#6b7280">0</text>
  <line x1="435" y1="163.3" x2="800" y2="163.3" stroke="#e5e7eb" stroke-width="0.5"/>
  <text x="431" y="166.3" text-anchor="end" font-size="8" fill="#6b7280">-180</text>
  <line x1="656.1" y1="16" x2="656.1" y2="171" stroke="#d1d5db" stroke-width="1" stroke-dasharray="4 3"/>
  <defs><linearGradient id="g773" x1="0" y1="16" x2="0" y2="93.5" gradientUnits="userSpaceOnUse">
    <stop offset="0%" stop-color="#e74c3c" stop-opacity="0.15"/>
    <stop offset="100%" stop-color="#e74c3c" stop-opacity="0.02"/>
  </linearGradient></defs>
  <defs><linearGradient id="g774" x1="0" y1="171" x2="0" y2="93.5" gradientUnits="userSpaceOnUse">
    <stop offset="0%" stop-color="#e74c3c" stop-opacity="0.15"/>
    <stop offset="100%" stop-color="#e74c3c" stop-opacity="0.02"/>
  </linearGradient></defs>
  <defs><clipPath id="c775"><rect x="435" y="16" width="365" height="77.5"/></clipPath></defs>
  <defs><clipPath id="c776"><rect x="435" y="93.5" width="365" height="77.5"/></clipPath></defs>
  <path d="M438.5,94.2 438.5,94.2 471.8,95.0 491.3,95.7 505.1,96.5 515.8,97.2 524.6,98.0 532.0,98.7 538.4,99.4 544.1,100.2 549.1,100.9 553.7,101.7 557.9,102.4 561.7,103.2 565.3,103.9 568.6,104.6 571.7,105.4 574.6,106.1 577.3,106.9 579.9,107.6 582.4,108.4 584.7,109.1 587.0,109.9 589.1,110.6 591.2,111.4 593.1,112.1 595.0,112.9 596.8,113.6 598.6,114.4 600.2,115.1 601.9,115.9 603.4,116.6 605.0,117.4 606.5,118.1 607.9,118.9 609.3,119.7 610.6,120.4 611.9,121.2 613.2,121.9 614.5,122.7 615.7,123.5 616.9,124.2 618.0,125.0 619.2,125.8 620.3,126.5 621.3,127.3 622.4,128.1 623.4,128.8 624.4,129.6 625.4,130.4 626.4,131.1 627.4,131.9 628.3,132.7 629.2,133.5 630.1,134.2 631.0,135.0 631.8,135.8 632.7,136.6 633.5,137.4 634.4,138.1 635.2,138.9 636.7,140.5 638.3,142.1 639.7,143.7 641.2,145.2 642.6,146.8 643.9,148.4 645.2,150.0 646.5,151.6 647.8,153.2 649.0,154.8 650.2,156.5 651.3,158.1 652.4,159.7 653.6,161.3 654.6,163.0 655.7,25.1 656.7,26.7 657.7,28.4 658.7,30.0 659.7,31.7 660.6,33.3 661.6,35.0 662.5,36.6 663.4,38.3 664.3,40.0 665.1,41.6 666.0,43.3 666.8,45.0 667.6,46.6 668.4,48.3 669.6,50.8 670.8,53.3 671.9,55.9 673.0,58.4 674.1,60.9 675.2,63.4 676.2,65.9 677.2,68.4 678.2,70.9 679.2,73.3 680.1,75.8 681.0,78.2 682.0,80.7 682.9,83.1 683.7,85.5 684.6,87.8 685.5,90.1 686.3,92.4 687.1,94.6 687.9,96.7 689.0,99.5 690.0,102.0 691.0,104.4 692.0,106.3 693.0,107.7 693.9,107.7 694.9,101.8 695.8,60.5 696.7,50.9 697.6,48.2 698.4,45.7 699.3,42.5 700.1,38.5 700.9,34.1 701.7,29.9 702.7,25.3 703.7,161.4 704.6,159.3 705.6,158.6 706.5,159.0 707.4,160.4 708.3,162.7 709.1,26.0 710.0,29.5 710.8,33.5 711.6,38.2 712.4,43.9 713.4,54.5 714.3,86.3 715.2,112.7 716.1,122.8 717.0,130.1 717.9,136.7 718.7,143.0 719.6,149.3 720.4,155.5 721.2,161.7 722.1,29.8 723.0,39.4 723.9,110.9 724.8,119.4 725.7,127.1 726.5,134.6 727.3,142.2 728.1,149.9 728.9,158.0 729.8,29.2 730.7,53.9 731.6,103.1 732.4,115.6 733.3,125.4 734.1,134.7 734.9,143.9 735.8,154.9 736.7,29.1 737.5,77.7 738.4,104.6 739.2,116.6 740.0,127.1 740.8,137.0 741.7,147.9 742.6,158.4 743.4,100.0 744.3,110.3 745.1,120.8 745.9,131.1 746.8,142.0 747.6,150.3 748.5,104.1 749.3,111.0 750.1,121.5 751.0,133.2 751.8,143.8 752.7,126.9 753.5,107.3 754.3,117.7 755.1,130.1 756.0,141.5 756.8,124.4 757.6,107.2 758.5,118.7 759.3,132.0 760.1,143.4 761.0,102.8 761.8,111.0 762.6,125.6 763.5,140.1 764.3,107.8 765.1,106.5 765.9,122.8 766.8,139.9 767.6,84.3 768.4,104.6 769.2,124.1 770.1,146.7 770.9,73.2 771.7,103.3 772.6,124.6 773.4,147.9 774.2,92.2 775.0,113.2 775.8,132.4 776.6,88.6 777.5,107.4 778.3,126.8 779.1,90.5 779.9,105.1 780.7,125.0 781.5,91.2 782.4,105.8 783.2,126.3 784.0,89.7 784.8,109.3 785.6,130.5 786.5,92.9 787.3,117.2 788.1,108.1 788.9,101.1 789.7,131.0 790.5,79.9 791.3,111.6 792.2,58.1 793.0,98.2 793.8,125.5 794.6,89.5 795.4,117.0 796.2,84.1 797.0,111.7 797.8,81.1 798.6,108.6 799.5,79.4 L799.5,93.5 L438.5,93.5 Z" fill="url(#g773)" clip-path="url(#c775)"/>
  <path d="M438.5,94.2 438.5,94.2 471.8,95.0 491.3,95.7 505.1,96.5 515.8,97.2 524.6,98.0 532.0,98.7 538.4,99.4 544.1,100.2 549.1,100.9 553.7,101.7 557.9,102.4 561.7,103.2 565.3,103.9 568.6,104.6 571.7,105.4 574.6,106.1 577.3,106.9 579.9,107.6 582.4,108.4 584.7,109.1 587.0,109.9 589.1,110.6 591.2,111.4 593.1,112.1 595.0,112.9 596.8,113.6 598.6,114.4 600.2,115.1 601.9,115.9 603.4,116.6 605.0,117.4 606.5,118.1 607.9,118.9 609.3,119.7 610.6,120.4 611.9,121.2 613.2,121.9 614.5,122.7 615.7,123.5 616.9,124.2 618.0,125.0 619.2,125.8 620.3,126.5 621.3,127.3 622.4,128.1 623.4,128.8 624.4,129.6 625.4,130.4 626.4,131.1 627.4,131.9 628.3,132.7 629.2,133.5 630.1,134.2 631.0,135.0 631.8,135.8 632.7,136.6 633.5,137.4 634.4,138.1 635.2,138.9 636.7,140.5 638.3,142.1 639.7,143.7 641.2,145.2 642.6,146.8 643.9,148.4 645.2,150.0 646.5,151.6 647.8,153.2 649.0,154.8 650.2,156.5 651.3,158.1 652.4,159.7 653.6,161.3 654.6,163.0 655.7,25.1 656.7,26.7 657.7,28.4 658.7,30.0 659.7,31.7 660.6,33.3 661.6,35.0 662.5,36.6 663.4,38.3 664.3,40.0 665.1,41.6 666.0,43.3 666.8,45.0 667.6,46.6 668.4,48.3 669.6,50.8 670.8,53.3 671.9,55.9 673.0,58.4 674.1,60.9 675.2,63.4 676.2,65.9 677.2,68.4 678.2,70.9 679.2,73.3 680.1,75.8 681.0,78.2 682.0,80.7 682.9,83.1 683.7,85.5 684.6,87.8 685.5,90.1 686.3,92.4 687.1,94.6 687.9,96.7 689.0,99.5 690.0,102.0 691.0,104.4 692.0,106.3 693.0,107.7 693.9,107.7 694.9,101.8 695.8,60.5 696.7,50.9 697.6,48.2 698.4,45.7 699.3,42.5 700.1,38.5 700.9,34.1 701.7,29.9 702.7,25.3 703.7,161.4 704.6,159.3 705.6,158.6 706.5,159.0 707.4,160.4 708.3,162.7 709.1,26.0 710.0,29.5 710.8,33.5 711.6,38.2 712.4,43.9 713.4,54.5 714.3,86.3 715.2,112.7 716.1,122.8 717.0,130.1 717.9,136.7 718.7,143.0 719.6,149.3 720.4,155.5 721.2,161.7 722.1,29.8 723.0,39.4 723.9,110.9 724.8,119.4 725.7,127.1 726.5,134.6 727.3,142.2 728.1,149.9 728.9,158.0 729.8,29.2 730.7,53.9 731.6,103.1 732.4,115.6 733.3,125.4 734.1,134.7 734.9,143.9 735.8,154.9 736.7,29.1 737.5,77.7 738.4,104.6 739.2,116.6 740.0,127.1 740.8,137.0 741.7,147.9 742.6,158.4 743.4,100.0 744.3,110.3 745.1,120.8 745.9,131.1 746.8,142.0 747.6,150.3 748.5,104.1 749.3,111.0 750.1,121.5 751.0,133.2 751.8,143.8 752.7,126.9 753.5,107.3 754.3,117.7 755.1,130.1 756.0,141.5 756.8,124.4 757.6,107.2 758.5,118.7 759.3,132.0 760.1,143.4 761.0,102.8 761.8,111.0 762.6,125.6 763.5,140.1 764.3,107.8 765.1,106.5 765.9,122.8 766.8,139.9 767.6,84.3 768.4,104.6 769.2,124.1 770.1,146.7 770.9,73.2 771.7,103.3 772.6,124.6 773.4,147.9 774.2,92.2 775.0,113.2 775.8,132.4 776.6,88.6 777.5,107.4 778.3,126.8 779.1,90.5 779.9,105.1 780.7,125.0 781.5,91.2 782.4,105.8 783.2,126.3 784.0,89.7 784.8,109.3 785.6,130.5 786.5,92.9 787.3,117.2 788.1,108.1 788.9,101.1 789.7,131.0 790.5,79.9 791.3,111.6 792.2,58.1 793.0,98.2 793.8,125.5 794.6,89.5 795.4,117.0 796.2,84.1 797.0,111.7 797.8,81.1 798.6,108.6 799.5,79.4 L799.5,93.5 L438.5,93.5 Z" fill="url(#g774)" clip-path="url(#c776)"/>
  <defs><clipPath id="pc777"><rect x="435" y="16" width="365" height="155"/></clipPath></defs>
  <polyline points="438.5,94.2 471.8,95.0 491.3,95.7 505.1,96.5 515.8,97.2 524.6,98.0 532.0,98.7 538.4,99.4 544.1,100.2 549.1,100.9 553.7,101.7 557.9,102.4 561.7,103.2 565.3,103.9 568.6,104.6 571.7,105.4 574.6,106.1 577.3,106.9 579.9,107.6 582.4,108.4 584.7,109.1 587.0,109.9 589.1,110.6 591.2,111.4 593.1,112.1 595.0,112.9 596.8,113.6 598.6,114.4 600.2,115.1 601.9,115.9 603.4,116.6 605.0,117.4 606.5,118.1 607.9,118.9 609.3,119.7 610.6,120.4 611.9,121.2 613.2,121.9 614.5,122.7 615.7,123.5 616.9,124.2 618.0,125.0 619.2,125.8 620.3,126.5 621.3,127.3 622.4,128.1 623.4,128.8 624.4,129.6 625.4,130.4 626.4,131.1 627.4,131.9 628.3,132.7 629.2,133.5 630.1,134.2 631.0,135.0 631.8,135.8 632.7,136.6 633.5,137.4 634.4,138.1 635.2,138.9 636.7,140.5 638.3,142.1 639.7,143.7 641.2,145.2 642.6,146.8 643.9,148.4 645.2,150.0 646.5,151.6 647.8,153.2 649.0,154.8 650.2,156.5 651.3,158.1 652.4,159.7 653.6,161.3 654.6,163.0 655.7,25.1 656.7,26.7 657.7,28.4 658.7,30.0 659.7,31.7 660.6,33.3 661.6,35.0 662.5,36.6 663.4,38.3 664.3,40.0 665.1,41.6 666.0,43.3 666.8,45.0 667.6,46.6 668.4,48.3 669.6,50.8 670.8,53.3 671.9,55.9 673.0,58.4 674.1,60.9 675.2,63.4 676.2,65.9 677.2,68.4 678.2,70.9 679.2,73.3 680.1,75.8 681.0,78.2 682.0,80.7 682.9,83.1 683.7,85.5 684.6,87.8 685.5,90.1 686.3,92.4 687.1,94.6 687.9,96.7 689.0,99.5 690.0,102.0 691.0,104.4 692.0,106.3 693.0,107.7 693.9,107.7 694.9,101.8 695.8,60.5 696.7,50.9 697.6,48.2 698.4,45.7 699.3,42.5 700.1,38.5 700.9,34.1 701.7,29.9 702.7,25.3 703.7,161.4 704.6,159.3 705.6,158.6 706.5,159.0 707.4,160.4 708.3,162.7 709.1,26.0 710.0,29.5 710.8,33.5 711.6,38.2 712.4,43.9 713.4,54.5 714.3,86.3 715.2,112.7 716.1,122.8 717.0,130.1 717.9,136.7 718.7,143.0 719.6,149.3 720.4,155.5 721.2,161.7 722.1,29.8 723.0,39.4 723.9,110.9 724.8,119.4 725.7,127.1 726.5,134.6 727.3,142.2 728.1,149.9 728.9,158.0 729.8,29.2 730.7,53.9 731.6,103.1 732.4,115.6 733.3,125.4 734.1,134.7 734.9,143.9 735.8,154.9 736.7,29.1 737.5,77.7 738.4,104.6 739.2,116.6 740.0,127.1 740.8,137.0 741.7,147.9 742.6,158.4 743.4,100.0 744.3,110.3 745.1,120.8 745.9,131.1 746.8,142.0 747.6,150.3 748.5,104.1 749.3,111.0 750.1,121.5 751.0,133.2 751.8,143.8 752.7,126.9 753.5,107.3 754.3,117.7 755.1,130.1 756.0,141.5 756.8,124.4 757.6,107.2 758.5,118.7 759.3,132.0 760.1,143.4 761.0,102.8 761.8,111.0 762.6,125.6 763.5,140.1 764.3,107.8 765.1,106.5 765.9,122.8 766.8,139.9 767.6,84.3 768.4,104.6 769.2,124.1 770.1,146.7 770.9,73.2 771.7,103.3 772.6,124.6 773.4,147.9 774.2,92.2 775.0,113.2 775.8,132.4 776.6,88.6 777.5,107.4 778.3,126.8 779.1,90.5 779.9,105.1 780.7,125.0 781.5,91.2 782.4,105.8 783.2,126.3 784.0,89.7 784.8,109.3 785.6,130.5 786.5,92.9 787.3,117.2 788.1,108.1 788.9,101.1 789.7,131.0 790.5,79.9 791.3,111.6 792.2,58.1 793.0,98.2 793.8,125.5 794.6,89.5 795.4,117.0 796.2,84.1 797.0,111.7 797.8,81.1 798.6,108.6 799.5,79.4" fill="none" stroke="#e74c3c" stroke-width="1.5" stroke-linejoin="round" clip-path="url(#pc777)"/>
  <line x1="34" y1="207" x2="34" y2="362" stroke="#d1d5db"/>
  <line x1="34" y1="284.5" x2="399" y2="284.5" stroke="#d1d5db"/>
  <text x="216.5" y="388" text-anchor="middle" font-size="9" fill="#6b7280">Hz</text>
  <text x="12" y="284.5" text-anchor="middle" font-size="9" fill="#6b7280" transform="rotate(-90 12 284.5)">Group delay</text>
  <line x1="67.3" y1="207" x2="67.3" y2="362" stroke="#e5e7eb" stroke-width="0.5"/>
  <line x1="86.8" y1="207" x2="86.8" y2="362" stroke="#e5e7eb" stroke-width="0.5"/>
  <line x1="100.6" y1="207" x2="100.6" y2="362" stroke="#e5e7eb" stroke-width="0.5"/>
  <line x1="111.3" y1="207" x2="111.3" y2="362" stroke="#e5e7eb" stroke-width="0.5"/>
  <line x1="120.0" y1="207" x2="120.0" y2="362" stroke="#e5e7eb" stroke-width="0.5"/>
  <line x1="127.4" y1="207" x2="127.4" y2="362" stroke="#e5e7eb" stroke-width="0.5"/>
  <line x1="133.9" y1="207" x2="133.9" y2="362" stroke="#e5e7eb" stroke-width="0.5"/>
  <line x1="139.5" y1="207" x2="139.5" y2="362" stroke="#e5e7eb" stroke-width="0.5"/>
  <line x1="177.9" y1="207" x2="177.9" y2="362" stroke="#e5e7eb" stroke-width="0.5"/>
  <line x1="197.3" y1="207" x2="197.3" y2="362" stroke="#e5e7eb" stroke-width="0.5"/>
  <line x1="211.1" y1="207" x2="211.1" y2="362" stroke="#e5e7eb" stroke-width="0.5"/>
  <line x1="221.9" y1="207" x2="221.9" y2="362" stroke="#e5e7eb" stroke-width="0.5"/>
  <line x1="230.6" y1="207" x2="230.6" y2="362" stroke="#e5e7eb" stroke-width="0.5"/>
  <line x1="238.0" y1="207" x2="238.0" y2="362" stroke="#e5e7eb" stroke-width="0.5"/>
  <line x1="244.4" y1="207" x2="244.4" y2="362" stroke="#e5e7eb" stroke-width="0.5"/>
  <line x1="250.1" y1="207" x2="250.1" y2="362" stroke="#e5e7eb" stroke-width="0.5"/>
  <line x1="288.4" y1="207" x2="288.4" y2="362" stroke="#e5e7eb" stroke-width="0.5"/>
  <line x1="307.9" y1="207" x2="307.9" y2="362" stroke="#e5e7eb" stroke-width="0.5"/>
  <line x1="321.7" y1="207" x2="321.7" y2="362" stroke="#e5e7eb" stroke-width="0.5"/>
  <line x1="332.4" y1="207" x2="332.4" y2="362" stroke="#e5e7eb" stroke-width="0.5"/>
  <line x1="341.2" y1="207" x2="341.2" y2="362" stroke="#e5e7eb" stroke-width="0.5"/>
  <line x1="348.6" y1="207" x2="348.6" y2="362" stroke="#e5e7eb" stroke-width="0.5"/>
  <line x1="355.0" y1="207" x2="355.0" y2="362" stroke="#e5e7eb" stroke-width="0.5"/>
  <line x1="360.7" y1="207" x2="360.7" y2="362" stroke="#e5e7eb" stroke-width="0.5"/>
  <line x1="399.0" y1="207" x2="399.0" y2="362" stroke="#e5e7eb" stroke-width="0.5"/>
  <line x1="144.6" y1="207" x2="144.6" y2="362" stroke="#e5e7eb" stroke-width="0.5"/>
  <text x="144.6" y="374" text-anchor="middle" font-size="8" fill="#6b7280">100</text>
  <line x1="255.1" y1="207" x2="255.1" y2="362" stroke="#e5e7eb" stroke-width="0.5"/>
  <text x="255.1" y="374" text-anchor="middle" font-size="8" fill="#6b7280">1k</text>
  <line x1="365.7" y1="207" x2="365.7" y2="362" stroke="#e5e7eb" stroke-width="0.5"/>
  <text x="365.7" y="374" text-anchor="middle" font-size="8" fill="#6b7280">10k</text>
  <line x1="34" y1="328.3" x2="399" y2="328.3" stroke="#e5e7eb" stroke-width="0.5"/>
  <text x="30" y="331.3" text-anchor="end" font-size="8" fill="#6b7280">-700</text>
  <text x="30" y="287.5" text-anchor="end" font-size="8" fill="#6b7280">0</text>
  <line x1="34" y1="240.7" x2="399" y2="240.7" stroke="#e5e7eb" stroke-width="0.5"/>
  <text x="30" y="243.7" text-anchor="end" font-size="8" fill="#6b7280">700</text>
  <line x1="255.1" y1="207" x2="255.1" y2="362" stroke="#d1d5db" stroke-width="1" stroke-dasharray="4 3"/>
  <defs><linearGradient id="g778" x1="0" y1="207" x2="0" y2="284.5" gradientUnits="userSpaceOnUse">
    <stop offset="0%" stop-color="#2ecc71" stop-opacity="0.15"/>
    <stop offset="100%" stop-color="#2ecc71" stop-opacity="0.02"/>
  </linearGradient></defs>
  <defs><linearGradient id="g779" x1="0" y1="362" x2="0" y2="284.5" gradientUnits="userSpaceOnUse">
    <stop offset="0%" stop-color="#2ecc71" stop-opacity="0.15"/>
    <stop offset="100%" stop-color="#2ecc71" stop-opacity="0.02"/>
  </linearGradient></defs>
  <defs><clipPath id="c780"><rect x="34" y="207" width="365" height="77.5"/></clipPath></defs>
  <defs><clipPath id="c781"><rect x="34" y="284.5" width="365" height="77.5"/></clipPath></defs>
  <path d="M37.5,283.1 37.5,283.1 70.8,283.1 90.3,283.1 104.1,283.1 114.8,283.1 123.6,283.1 131.0,283.1 137.4,283.1 143.1,283.1 148.1,283.1 152.7,283.1 156.9,283.1 160.7,283.1 164.3,283.1 167.6,283.1 170.7,283.1 173.6,283.1 176.3,283.1 178.9,283.1 181.4,283.1 183.7,283.1 186.0,283.1 188.1,283.1 190.2,283.1 192.1,283.1 194.0,283.1 195.8,283.1 197.6,283.1 199.2,283.1 200.9,283.1 202.4,283.1 204.0,283.1 205.5,283.1 206.9,283.1 208.3,283.1 209.6,283.1 210.9,283.1 212.2,283.1 213.5,283.1 214.7,283.1 215.9,283.1 217.0,283.1 218.2,283.1 219.3,283.1 220.3,283.1 221.4,283.1 222.4,283.1 223.4,283.1 224.4,283.1 225.4,283.1 226.4,283.1 227.3,283.1 228.2,283.1 229.1,283.1 230.0,283.1 230.8,283.1 231.7,283.1 232.5,283.1 233.4,283.1 234.2,283.1 235.7,283.1 237.3,283.1 238.7,283.0 240.2,283.0 241.6,283.0 242.9,283.0 244.2,283.0 245.5,283.0 246.8,283.0 248.0,283.0 249.2,283.0 250.3,283.0 251.4,283.0 252.6,283.0 253.6,283.0 254.7,283.0 255.7,283.0 256.7,283.0 257.7,283.0 258.7,283.0 259.6,283.0 260.6,283.0 261.5,283.0 262.4,283.0 263.3,283.0 264.1,283.0 265.0,283.0 265.8,283.0 266.6,283.0 267.4,283.0 268.6,283.0 269.8,283.0 270.9,283.0 272.0,283.0 273.1,283.0 274.2,283.0 275.2,283.0 276.2,283.0 277.2,283.0 278.2,283.0 279.1,283.0 280.0,283.0 281.0,283.0 281.9,283.0 282.7,283.1 283.6,283.1 284.5,283.1 285.3,283.1 286.1,283.2 286.9,283.2 288.0,283.3 289.0,283.4 290.0,283.5 291.0,283.7 292.0,284.1 292.9,285.1 293.9,292.6 294.8,296.9 295.7,286.2 296.6,285.6 297.4,285.8 298.3,286.2 299.1,286.4 299.9,286.5 300.7,286.4 301.7,286.0 302.7,285.5 303.6,285.0 304.6,284.5 305.5,284.1 306.4,283.8 307.3,283.6 308.1,283.3 309.0,283.1 309.8,282.9 310.6,282.6 311.4,282.1 312.4,279.7 313.3,270.9 314.2,280.3 315.1,282.0 316.0,282.4 316.9,282.5 317.7,282.6 318.6,282.6 319.4,282.6 320.2,282.6 321.1,282.4 322.0,280.0 322.9,281.7 323.8,282.5 324.7,282.5 325.5,282.5 326.3,282.5 327.1,282.4 327.9,282.3 328.8,281.6 329.7,270.2 330.6,280.6 331.4,282.1 332.3,282.3 333.1,282.4 333.9,282.4 334.8,282.1 335.7,280.8 336.5,271.4 337.4,281.6 338.2,282.3 339.0,282.4 339.8,282.5 340.7,282.5 341.6,282.7 342.4,282.7 343.3,282.6 344.1,282.6 344.9,282.6 345.8,282.8 346.6,284.1 347.5,285.1 348.3,282.8 349.1,282.7 350.0,282.7 350.8,283.2 351.7,299.7 352.5,283.2 353.3,282.8 354.1,282.8 355.0,283.2 355.8,298.3 356.6,283.2 357.5,282.8 358.3,282.8 359.1,283.7 360.0,285.5 360.8,282.8 361.6,282.7 362.5,282.9 363.3,299.9 364.1,282.7 364.9,282.6 365.8,282.5 366.6,268.0 367.4,282.4 368.2,282.3 369.1,281.4 369.9,278.8 370.7,282.2 371.6,282.4 372.4,280.6 373.2,282.4 374.0,282.5 374.8,282.9 375.6,283.3 376.5,282.6 377.3,282.9 378.1,285.8 378.9,282.7 379.7,282.9 380.5,286.1 381.4,282.7 382.2,283.0 383.0,284.0 383.8,282.7 384.6,283.4 385.5,282.8 386.3,282.6 387.1,335.6 387.9,282.5 388.7,281.9 389.5,281.8 390.3,282.4 391.2,274.1 392.0,282.5 392.8,283.3 393.6,282.6 394.4,283.0 395.2,282.9 396.0,282.9 396.8,283.3 397.6,282.8 398.5,283.5 L398.5,284.5 L37.5,284.5 Z" fill="url(#g778)" clip-path="url(#c780)"/>
  <path d="M37.5,283.1 37.5,283.1 70.8,283.1 90.3,283.1 104.1,283.1 114.8,283.1 123.6,283.1 131.0,283.1 137.4,283.1 143.1,283.1 148.1,283.1 152.7,283.1 156.9,283.1 160.7,283.1 164.3,283.1 167.6,283.1 170.7,283.1 173.6,283.1 176.3,283.1 178.9,283.1 181.4,283.1 183.7,283.1 186.0,283.1 188.1,283.1 190.2,283.1 192.1,283.1 194.0,283.1 195.8,283.1 197.6,283.1 199.2,283.1 200.9,283.1 202.4,283.1 204.0,283.1 205.5,283.1 206.9,283.1 208.3,283.1 209.6,283.1 210.9,283.1 212.2,283.1 213.5,283.1 214.7,283.1 215.9,283.1 217.0,283.1 218.2,283.1 219.3,283.1 220.3,283.1 221.4,283.1 222.4,283.1 223.4,283.1 224.4,283.1 225.4,283.1 226.4,283.1 227.3,283.1 228.2,283.1 229.1,283.1 230.0,283.1 230.8,283.1 231.7,283.1 232.5,283.1 233.4,283.1 234.2,283.1 235.7,283.1 237.3,283.1 238.7,283.0 240.2,283.0 241.6,283.0 242.9,283.0 244.2,283.0 245.5,283.0 246.8,283.0 248.0,283.0 249.2,283.0 250.3,283.0 251.4,283.0 252.6,283.0 253.6,283.0 254.7,283.0 255.7,283.0 256.7,283.0 257.7,283.0 258.7,283.0 259.6,283.0 260.6,283.0 261.5,283.0 262.4,283.0 263.3,283.0 264.1,283.0 265.0,283.0 265.8,283.0 266.6,283.0 267.4,283.0 268.6,283.0 269.8,283.0 270.9,283.0 272.0,283.0 273.1,283.0 274.2,283.0 275.2,283.0 276.2,283.0 277.2,283.0 278.2,283.0 279.1,283.0 280.0,283.0 281.0,283.0 281.9,283.0 282.7,283.1 283.6,283.1 284.5,283.1 285.3,283.1 286.1,283.2 286.9,283.2 288.0,283.3 289.0,283.4 290.0,283.5 291.0,283.7 292.0,284.1 292.9,285.1 293.9,292.6 294.8,296.9 295.7,286.2 296.6,285.6 297.4,285.8 298.3,286.2 299.1,286.4 299.9,286.5 300.7,286.4 301.7,286.0 302.7,285.5 303.6,285.0 304.6,284.5 305.5,284.1 306.4,283.8 307.3,283.6 308.1,283.3 309.0,283.1 309.8,282.9 310.6,282.6 311.4,282.1 312.4,279.7 313.3,270.9 314.2,280.3 315.1,282.0 316.0,282.4 316.9,282.5 317.7,282.6 318.6,282.6 319.4,282.6 320.2,282.6 321.1,282.4 322.0,280.0 322.9,281.7 323.8,282.5 324.7,282.5 325.5,282.5 326.3,282.5 327.1,282.4 327.9,282.3 328.8,281.6 329.7,270.2 330.6,280.6 331.4,282.1 332.3,282.3 333.1,282.4 333.9,282.4 334.8,282.1 335.7,280.8 336.5,271.4 337.4,281.6 338.2,282.3 339.0,282.4 339.8,282.5 340.7,282.5 341.6,282.7 342.4,282.7 343.3,282.6 344.1,282.6 344.9,282.6 345.8,282.8 346.6,284.1 347.5,285.1 348.3,282.8 349.1,282.7 350.0,282.7 350.8,283.2 351.7,299.7 352.5,283.2 353.3,282.8 354.1,282.8 355.0,283.2 355.8,298.3 356.6,283.2 357.5,282.8 358.3,282.8 359.1,283.7 360.0,285.5 360.8,282.8 361.6,282.7 362.5,282.9 363.3,299.9 364.1,282.7 364.9,282.6 365.8,282.5 366.6,268.0 367.4,282.4 368.2,282.3 369.1,281.4 369.9,278.8 370.7,282.2 371.6,282.4 372.4,280.6 373.2,282.4 374.0,282.5 374.8,282.9 375.6,283.3 376.5,282.6 377.3,282.9 378.1,285.8 378.9,282.7 379.7,282.9 380.5,286.1 381.4,282.7 382.2,283.0 383.0,284.0 383.8,282.7 384.6,283.4 385.5,282.8 386.3,282.6 387.1,335.6 387.9,282.5 388.7,281.9 389.5,281.8 390.3,282.4 391.2,274.1 392.0,282.5 392.8,283.3 393.6,282.6 394.4,283.0 395.2,282.9 396.0,282.9 396.8,283.3 397.6,282.8 398.5,283.5 L398.5,284.5 L37.5,284.5 Z" fill="url(#g779)" clip-path="url(#c781)"/>
  <defs><clipPath id="pc782"><rect x="34" y="207" width="365" height="155"/></clipPath></defs>
  <polyline points="37.5,283.1 70.8,283.1 90.3,283.1 104.1,283.1 114.8,283.1 123.6,283.1 131.0,283.1 137.4,283.1 143.1,283.1 148.1,283.1 152.7,283.1 156.9,283.1 160.7,283.1 164.3,283.1 167.6,283.1 170.7,283.1 173.6,283.1 176.3,283.1 178.9,283.1 181.4,283.1 183.7,283.1 186.0,283.1 188.1,283.1 190.2,283.1 192.1,283.1 194.0,283.1 195.8,283.1 197.6,283.1 199.2,283.1 200.9,283.1 202.4,283.1 204.0,283.1 205.5,283.1 206.9,283.1 208.3,283.1 209.6,283.1 210.9,283.1 212.2,283.1 213.5,283.1 214.7,283.1 215.9,283.1 217.0,283.1 218.2,283.1 219.3,283.1 220.3,283.1 221.4,283.1 222.4,283.1 223.4,283.1 224.4,283.1 225.4,283.1 226.4,283.1 227.3,283.1 228.2,283.1 229.1,283.1 230.0,283.1 230.8,283.1 231.7,283.1 232.5,283.1 233.4,283.1 234.2,283.1 235.7,283.1 237.3,283.1 238.7,283.0 240.2,283.0 241.6,283.0 242.9,283.0 244.2,283.0 245.5,283.0 246.8,283.0 248.0,283.0 249.2,283.0 250.3,283.0 251.4,283.0 252.6,283.0 253.6,283.0 254.7,283.0 255.7,283.0 256.7,283.0 257.7,283.0 258.7,283.0 259.6,283.0 260.6,283.0 261.5,283.0 262.4,283.0 263.3,283.0 264.1,283.0 265.0,283.0 265.8,283.0 266.6,283.0 267.4,283.0 268.6,283.0 269.8,283.0 270.9,283.0 272.0,283.0 273.1,283.0 274.2,283.0 275.2,283.0 276.2,283.0 277.2,283.0 278.2,283.0 279.1,283.0 280.0,283.0 281.0,283.0 281.9,283.0 282.7,283.1 283.6,283.1 284.5,283.1 285.3,283.1 286.1,283.2 286.9,283.2 288.0,283.3 289.0,283.4 290.0,283.5 291.0,283.7 292.0,284.1 292.9,285.1 293.9,292.6 294.8,296.9 295.7,286.2 296.6,285.6 297.4,285.8 298.3,286.2 299.1,286.4 299.9,286.5 300.7,286.4 301.7,286.0 302.7,285.5 303.6,285.0 304.6,284.5 305.5,284.1 306.4,283.8 307.3,283.6 308.1,283.3 309.0,283.1 309.8,282.9 310.6,282.6 311.4,282.1 312.4,279.7 313.3,270.9 314.2,280.3 315.1,282.0 316.0,282.4 316.9,282.5 317.7,282.6 318.6,282.6 319.4,282.6 320.2,282.6 321.1,282.4 322.0,280.0 322.9,281.7 323.8,282.5 324.7,282.5 325.5,282.5 326.3,282.5 327.1,282.4 327.9,282.3 328.8,281.6 329.7,270.2 330.6,280.6 331.4,282.1 332.3,282.3 333.1,282.4 333.9,282.4 334.8,282.1 335.7,280.8 336.5,271.4 337.4,281.6 338.2,282.3 339.0,282.4 339.8,282.5 340.7,282.5 341.6,282.7 342.4,282.7 343.3,282.6 344.1,282.6 344.9,282.6 345.8,282.8 346.6,284.1 347.5,285.1 348.3,282.8 349.1,282.7 350.0,282.7 350.8,283.2 351.7,299.7 352.5,283.2 353.3,282.8 354.1,282.8 355.0,283.2 355.8,298.3 356.6,283.2 357.5,282.8 358.3,282.8 359.1,283.7 360.0,285.5 360.8,282.8 361.6,282.7 362.5,282.9 363.3,299.9 364.1,282.7 364.9,282.6 365.8,282.5 366.6,268.0 367.4,282.4 368.2,282.3 369.1,281.4 369.9,278.8 370.7,282.2 371.6,282.4 372.4,280.6 373.2,282.4 374.0,282.5 374.8,282.9 375.6,283.3 376.5,282.6 377.3,282.9 378.1,285.8 378.9,282.7 379.7,282.9 380.5,286.1 381.4,282.7 382.2,283.0 383.0,284.0 383.8,282.7 384.6,283.4 385.5,282.8 386.3,282.6 387.1,335.6 387.9,282.5 388.7,281.9 389.5,281.8 390.3,282.4 391.2,274.1 392.0,282.5 392.8,283.3 393.6,282.6 394.4,283.0 395.2,282.9 396.0,282.9 396.8,283.3 397.6,282.8 398.5,283.5" fill="none" stroke="#2ecc71" stroke-width="1.5" stroke-linejoin="round" clip-path="url(#pc782)"/>
  <line x1="435" y1="207" x2="435" y2="362" stroke="#d1d5db"/>
  <line x1="435" y1="284.5" x2="800" y2="284.5" stroke="#d1d5db"/>
  <text x="617.5" y="388" text-anchor="middle" font-size="9" fill="#6b7280">Samples</text>
  <text x="413" y="284.5" text-anchor="middle" font-size="9" fill="#6b7280" transform="rotate(-90 413 284.5)">Impulse response</text>
  <line x1="435.0" y1="207" x2="435.0" y2="362" stroke="#e5e7eb" stroke-width="0.5"/>
  <text x="435.0" y="374" text-anchor="middle" font-size="8" fill="#6b7280">0</text>
  <line x1="603.5" y1="207" x2="603.5" y2="362" stroke="#e5e7eb" stroke-width="0.5"/>
  <text x="603.5" y="374" text-anchor="middle" font-size="8" fill="#6b7280">30</text>
  <line x1="771.9" y1="207" x2="771.9" y2="362" stroke="#e5e7eb" stroke-width="0.5"/>
  <text x="771.9" y="374" text-anchor="middle" font-size="8" fill="#6b7280">60</text>
  <line x1="435" y1="351.1" x2="800" y2="351.1" stroke="#e5e7eb" stroke-width="0.5"/>
  <text x="431" y="354.1" text-anchor="end" font-size="8" fill="#6b7280">-0.04</text>
  <text x="431" y="287.5" text-anchor="end" font-size="8" fill="#6b7280">0</text>
  <line x1="435" y1="217.9" x2="800" y2="217.9" stroke="#e5e7eb" stroke-width="0.5"/>
  <text x="431" y="220.9" text-anchor="end" font-size="8" fill="#6b7280">0.04</text>
  <defs><linearGradient id="g783" x1="0" y1="207" x2="0" y2="284.5" gradientUnits="userSpaceOnUse">
    <stop offset="0%" stop-color="#f39c12" stop-opacity="0.15"/>
    <stop offset="100%" stop-color="#f39c12" stop-opacity="0.02"/>
  </linearGradient></defs>
  <defs><linearGradient id="g784" x1="0" y1="362" x2="0" y2="284.5" gradientUnits="userSpaceOnUse">
    <stop offset="0%" stop-color="#f39c12" stop-opacity="0.15"/>
    <stop offset="100%" stop-color="#f39c12" stop-opacity="0.02"/>
  </linearGradient></defs>
  <defs><clipPath id="c785"><rect x="435" y="207" width="365" height="77.5"/></clipPath></defs>
  <defs><clipPath id="c786"><rect x="435" y="284.5" width="365" height="77.5"/></clipPath></defs>
  <path d="M435.0,282.7 435.0,282.7 440.6,281.8 446.2,280.5 451.8,278.8 457.5,276.7 463.1,274.2 468.7,271.2 474.3,267.7 479.9,263.9 485.5,259.6 491.2,255.0 496.8,250.1 502.4,245.0 508.0,239.9 513.6,234.7 519.2,229.6 524.8,224.9 530.5,220.4 536.1,216.5 541.7,213.1 547.3,210.4 552.9,208.4 558.5,207.3 564.2,207.0 569.8,207.6 575.4,209.1 581.0,211.4 586.6,214.5 592.2,218.3 597.8,222.7 603.5,227.5 609.1,232.8 614.7,238.2 620.3,243.8 625.9,249.3 631.5,254.7 637.2,259.8 642.8,264.7 648.4,269.1 654.0,273.2 659.6,276.7 665.2,279.8 670.8,282.3 676.5,284.4 682.1,285.9 687.7,287.1 693.3,287.8 698.9,288.2 704.5,288.4 710.2,288.3 715.8,288.0 721.4,287.6 727.0,287.1 732.6,286.6 738.2,286.1 743.8,285.7 749.5,285.3 755.1,285.2 760.7,285.0 766.3,284.9 771.9,284.7 777.5,284.6 783.2,284.3 788.8,284.0 794.4,283.5 L794.4,284.5 L435.0,284.5 Z" fill="url(#g783)" clip-path="url(#c785)"/>
  <path d="M435.0,282.7 435.0,282.7 440.6,281.8 446.2,280.5 451.8,278.8 457.5,276.7 463.1,274.2 468.7,271.2 474.3,267.7 479.9,263.9 485.5,259.6 491.2,255.0 496.8,250.1 502.4,245.0 508.0,239.9 513.6,234.7 519.2,229.6 524.8,224.9 530.5,220.4 536.1,216.5 541.7,213.1 547.3,210.4 552.9,208.4 558.5,207.3 564.2,207.0 569.8,207.6 575.4,209.1 581.0,211.4 586.6,214.5 592.2,218.3 597.8,222.7 603.5,227.5 609.1,232.8 614.7,238.2 620.3,243.8 625.9,249.3 631.5,254.7 637.2,259.8 642.8,264.7 648.4,269.1 654.0,273.2 659.6,276.7 665.2,279.8 670.8,282.3 676.5,284.4 682.1,285.9 687.7,287.1 693.3,287.8 698.9,288.2 704.5,288.4 710.2,288.3 715.8,288.0 721.4,287.6 727.0,287.1 732.6,286.6 738.2,286.1 743.8,285.7 749.5,285.3 755.1,285.2 760.7,285.0 766.3,284.9 771.9,284.7 777.5,284.6 783.2,284.3 788.8,284.0 794.4,283.5 L794.4,284.5 L435.0,284.5 Z" fill="url(#g784)" clip-path="url(#c786)"/>
  <defs><clipPath id="pc787"><rect x="435" y="207" width="365" height="155"/></clipPath></defs>
  <polyline points="435.0,282.7 440.6,281.8 446.2,280.5 451.8,278.8 457.5,276.7 463.1,274.2 468.7,271.2 474.3,267.7 479.9,263.9 485.5,259.6 491.2,255.0 496.8,250.1 502.4,245.0 508.0,239.9 513.6,234.7 519.2,229.6 524.8,224.9 530.5,220.4 536.1,216.5 541.7,213.1 547.3,210.4 552.9,208.4 558.5,207.3 564.2,207.0 569.8,207.6 575.4,209.1 581.0,211.4 586.6,214.5 592.2,218.3 597.8,222.7 603.5,227.5 609.1,232.8 614.7,238.2 620.3,243.8 625.9,249.3 631.5,254.7 637.2,259.8 642.8,264.7 648.4,269.1 654.0,273.2 659.6,276.7 665.2,279.8 670.8,282.3 676.5,284.4 682.1,285.9 687.7,287.1 693.3,287.8 698.9,288.2 704.5,288.4 710.2,288.3 715.8,288.0 721.4,287.6 727.0,287.1 732.6,286.6 738.2,286.1 743.8,285.7 749.5,285.3 755.1,285.2 760.7,285.0 766.3,284.9 771.9,284.7 777.5,284.6 783.2,284.3 788.8,284.0 794.4,283.5" fill="none" stroke="#f39c12" stroke-width="1.3" stroke-linejoin="round" clip-path="url(#pc787)"/>
</svg>
