<svg xmlns="http://www.w3.org/2000/svg" viewBox="0 0 820 392" style="font-family:system-ui,-apple-system,sans-serif">
  <text x="800" y="11" text-anchor="end" font-size="11" font-weight="600" fill="#6b7280">One-pole lowpass, fc=1kHz</text>
  <line x1="34" y1="16" x2="34" y2="171" stroke="#d1d5db"/>
  <line x1="34" y1="47.0" x2="392" y2="47.0" stroke="#d1d5db"/>
  <text x="213" y="197" text-anchor="middle" font-size="9" fill="#6b7280">Hz</text>
  <text x="12" y="93.5" text-anchor="middle" font-size="9" fill="#6b7280" transform="rotate(-90 12 93.5)">dB</text>
  <line x1="66.6" y1="16" x2="66.6" y2="171" stroke="#e5e7eb" stroke-width="0.5"/>
  <line x1="85.7" y1="16" x2="85.7" y2="171" stroke="#e5e7eb" stroke-width="0.5"/>
  <line x1="99.3" y1="16" x2="99.3" y2="171" stroke="#e5e7eb" stroke-width="0.5"/>
  <line x1="109.8" y1="16" x2="109.8" y2="171" stroke="#e5e7eb" stroke-width="0.5"/>
  <line x1="118.4" y1="16" x2="118.4" y2="171" stroke="#e5e7eb" stroke-width="0.5"/>
  <line x1="125.7" y1="16" x2="125.7" y2="171" stroke="#e5e7eb" stroke-width="0.5"/>
  <line x1="131.9" y1="16" x2="131.9" y2="171" stroke="#e5e7eb" stroke-width="0.5"/>
  <line x1="137.5" y1="16" x2="137.5" y2="171" stroke="#e5e7eb" stroke-width="0.5"/>
  <line x1="175.1" y1="16" x2="175.1" y2="171" stroke="#e5e7eb" stroke-width="0.5"/>
  <line x1="194.2" y1="16" x2="194.2" y2="171" stroke="#e5e7eb" stroke-width="0.5"/>
  <line x1="207.7" y1="16" x2="207.7" y2="171" stroke="#e5e7eb" stroke-width="0.5"/>
  <line x1="218.3" y1="16" x2="218.3" y2="171" stroke="#e5e7eb" stroke-width="0.5"/>
  <line x1="226.8" y1="16" x2="226.8" y2="171" stroke="#e5e7eb" stroke-width="0.5"/>
  <line x1="234.1" y1="16" x2="234.1" y2="171" stroke="#e5e7eb" stroke-width="0.5"/>
  <line x1="240.4" y1="16" x2="240.4" y2="171" stroke="#e5e7eb" stroke-width="0.5"/>
  <line x1="245.9" y1="16" x2="245.9" y2="171" stroke="#e5e7eb" stroke-width="0.5"/>
  <line x1="283.5" y1="16" x2="283.5" y2="171" stroke="#e5e7eb" stroke-width="0.5"/>
  <line x1="302.6" y1="16" x2="302.6" y2="171" stroke="#e5e7eb" stroke-width="0.5"/>
  <line x1="316.2" y1="16" x2="316.2" y2="171" stroke="#e5e7eb" stroke-width="0.5"/>
  <line x1="326.7" y1="16" x2="326.7" y2="171" stroke="#e5e7eb" stroke-width="0.5"/>
  <line x1="335.3" y1="16" x2="335.3" y2="171" stroke="#e5e7eb" stroke-width="0.5"/>
  <line x1="342.6" y1="16" x2="342.6" y2="171" stroke="#e5e7eb" stroke-width="0.5"/>
  <line x1="348.8" y1="16" x2="348.8" y2="171" stroke="#e5e7eb" stroke-width="0.5"/>
  <line x1="354.4" y1="16" x2="354.4" y2="171" stroke="#e5e7eb" stroke-width="0.5"/>
  <line x1="392.0" y1="16" x2="392.0" y2="171" stroke="#e5e7eb" stroke-width="0.5"/>
  <line x1="142.5" y1="16" x2="142.5" y2="171" stroke="#e5e7eb" stroke-width="0.5"/>
  <text x="142.5" y="183" text-anchor="middle" font-size="8" fill="#6b7280">100</text>
  <line x1="250.9" y1="16" x2="250.9" y2="171" stroke="#e5e7eb" stroke-width="0.5"/>
  <text x="250.9" y="183" text-anchor="middle" font-size="8" fill="#6b7280">1k</text>
  <line x1="359.4" y1="16" x2="359.4" y2="171" stroke="#e5e7eb" stroke-width="0.5"/>
  <text x="359.4" y="183" text-anchor="middle" font-size="8" fill="#6b7280">10k</text>
  <line x1="34" y1="31.5" x2="392" y2="31.5" stroke="#e5e7eb" stroke-width="0.5"/>
  <line x1="34" y1="62.5" x2="392" y2="62.5" stroke="#e5e7eb" stroke-width="0.5"/>
  <line x1="34" y1="16.0" x2="392" y2="16.0" stroke="#e5e7eb" stroke-width="0.5"/>
  <text x="30" y="19.0" text-anchor="end" font-size="8" fill="#6b7280">+20</text>
  <text x="30" y="50.0" text-anchor="end" font-size="8" fill="#6b7280">0</text>
  <line x1="34" y1="78.0" x2="392" y2="78.0" stroke="#e5e7eb" stroke-width="0.5"/>
  <text x="30" y="81.0" text-anchor="end" font-size="8" fill="#6b7280">-20</text>
  <line x1="34" y1="109.0" x2="392" y2="109.0" stroke="#e5e7eb" stroke-width="0.5"/>
  <text x="30" y="112.0" text-anchor="end" font-size="8" fill="#6b7280">-40</text>
  <line x1="34" y1="140.0" x2="392" y2="140.0" stroke="#e5e7eb" stroke-width="0.5"/>
  <text x="30" y="143.0" text-anchor="end" font-size="8" fill="#6b7280">-60</text>
  <line x1="34" y1="171.0" x2="392" y2="171.0" stroke="#e5e7eb" stroke-width="0.5"/>
  <text x="30" y="174.0" text-anchor="end" font-size="8" fill="#6b7280">-80</text>
  <line x1="250.9" y1="16" x2="250.9" y2="171" stroke="#d1d5db" stroke-width="1" stroke-dasharray="4 3"/>
  <defs><linearGradient id="g252" x1="0" y1="16" x2="0" y2="171" gradientUnits="userSpaceOnUse">
    <stop offset="0%" stop-color="#4a90d9" stop-opacity="0.15"/>
    <stop offset="100%" stop-color="#4a90d9" stop-opacity="0.02"/>
  </linearGradient></defs>
  <path d="M37.5,47.0 37.5,47.0 70.1,47.0 89.2,47.0 102.8,47.0 113.3,47.0 121.9,47.0 129.1,47.0 135.4,47.0 141.0,47.1 145.9,47.1 150.4,47.1 154.5,47.1 158.3,47.1 161.8,47.2 165.0,47.2 168.1,47.2 170.9,47.2 173.6,47.2 176.2,47.3 178.6,47.3 180.9,47.3 183.1,47.4 185.2,47.4 187.2,47.4 189.1,47.5 190.9,47.5 192.7,47.5 194.4,47.6 196.1,47.6 197.7,47.7 199.2,47.7 200.7,47.8 202.2,47.8 203.6,47.8 204.9,47.9 206.3,47.9 207.6,48.0 208.8,48.0 210.0,48.1 211.2,48.1 212.4,48.2 213.5,48.3 214.6,48.3 215.7,48.4 216.8,48.4 217.8,48.5 218.8,48.5 219.8,48.6 220.8,48.6 221.7,48.7 222.7,48.8 223.6,48.8 224.5,48.9 225.4,49.0 226.2,49.0 227.1,49.1 227.9,49.1 228.7,49.2 229.5,49.3 231.1,49.4 232.6,49.5 234.1,49.7 235.5,49.8 236.9,50.0 238.2,50.1 239.6,50.2 240.8,50.4 242.1,50.5 243.3,50.7 244.5,50.8 245.6,50.9 246.7,51.1 247.8,51.2 248.9,51.4 249.9,51.5 251.0,51.7 252.0,51.8 252.9,52.0 253.9,52.1 254.8,52.2 255.8,52.4 256.7,52.5 257.6,52.7 258.4,52.8 259.3,53.0 260.1,53.1 261.0,53.2 261.8,53.4 263.0,53.6 264.1,53.8 265.3,54.0 266.4,54.2 267.5,54.4 268.5,54.6 269.6,54.8 270.6,55.0 271.6,55.2 272.5,55.4 273.5,55.6 274.4,55.8 275.3,56.0 276.2,56.2 277.1,56.4 278.0,56.6 278.8,56.7 279.6,56.9 280.5,57.1 281.3,57.3 282.3,57.5 283.4,57.7 284.4,58.0 285.3,58.2 286.3,58.4 287.3,58.6 288.2,58.9 289.1,59.1 290.0,59.3 290.9,59.5 291.7,59.7 292.6,59.9 293.4,60.1 294.2,60.3 295.0,60.5 296.0,60.7 297.0,61.0 297.9,61.2 298.8,61.4 299.7,61.7 300.6,61.9 301.5,62.1 302.4,62.3 303.2,62.5 304.0,62.8 304.9,63.0 305.8,63.2 306.7,63.4 307.7,63.7 308.6,63.9 309.5,64.1 310.3,64.4 311.2,64.6 312.0,64.8 312.8,65.0 313.7,65.2 314.6,65.5 315.5,65.7 316.4,65.9 317.3,66.2 318.1,66.4 319.0,66.6 319.8,66.8 320.6,67.0 321.4,67.3 322.3,67.5 323.2,67.7 324.1,68.0 324.9,68.2 325.7,68.4 326.6,68.6 327.4,68.8 328.3,69.1 329.1,69.3 330.0,69.5 330.8,69.7 331.7,69.9 332.5,70.2 333.3,70.4 334.2,70.6 335.0,70.8 335.9,71.0 336.7,71.3 337.5,71.5 338.4,71.7 339.2,71.9 340.1,72.1 340.9,72.4 341.7,72.6 342.5,72.8 343.4,73.0 344.2,73.2 345.1,73.4 345.9,73.6 346.7,73.8 347.6,74.0 348.4,74.3 349.2,74.5 350.0,74.7 350.9,74.9 351.7,75.1 352.6,75.3 353.4,75.5 354.2,75.7 355.1,75.9 355.9,76.1 356.7,76.3 357.6,76.5 358.4,76.7 359.2,76.9 360.0,77.1 360.9,77.3 361.7,77.4 362.5,77.6 363.3,77.8 364.2,78.0 365.0,78.2 365.8,78.4 366.6,78.5 367.4,78.7 368.3,78.9 369.1,79.1 369.9,79.2 370.7,79.4 371.5,79.6 372.4,79.7 373.2,79.9 374.0,80.0 374.8,80.2 375.6,80.3 376.4,80.5 377.2,80.6 378.1,80.8 378.9,80.9 379.7,81.0 380.5,81.2 381.3,81.3 382.1,81.4 383.0,81.5 383.8,81.6 384.6,81.7 385.4,81.8 386.2,81.9 387.0,82.0 387.9,82.1 388.7,82.2 389.5,82.3 390.3,82.3 391.1,82.4 391.9,82.4 L391.9,171.0 L37.5,171.0 Z" fill="url(#g252)"/>
  <defs><clipPath id="pc253"><rect x="34" y="16" width="358" height="155"/></clipPath></defs>
  <polyline points="37.5,47.0 70.1,47.0 89.2,47.0 102.8,47.0 113.3,47.0 121.9,47.0 129.1,47.0 135.4,47.0 141.0,47.1 145.9,47.1 150.4,47.1 154.5,47.1 158.3,47.1 161.8,47.2 165.0,47.2 168.1,47.2 170.9,47.2 173.6,47.2 176.2,47.3 178.6,47.3 180.9,47.3 183.1,47.4 185.2,47.4 187.2,47.4 189.1,47.5 190.9,47.5 192.7,47.5 194.4,47.6 196.1,47.6 197.7,47.7 199.2,47.7 200.7,47.8 202.2,47.8 203.6,47.8 204.9,47.9 206.3,47.9 207.6,48.0 208.8,48.0 210.0,48.1 211.2,48.1 212.4,48.2 213.5,48.3 214.6,48.3 215.7,48.4 216.8,48.4 217.8,48.5 218.8,48.5 219.8,48.6 220.8,48.6 221.7,48.7 222.7,48.8 223.6,48.8 224.5,48.9 225.4,49.0 226.2,49.0 227.1,49.1 227.9,49.1 228.7,49.2 229.5,49.3 231.1,49.4 232.6,49.5 234.1,49.7 235.5,49.8 236.9,50.0 238.2,50.1 239.6,50.2 240.8,50.4 242.1,50.5 243.3,50.7 244.5,50.8 245.6,50.9 246.7,51.1 247.8,51.2 248.9,51.4 249.9,51.5 251.0,51.7 252.0,51.8 252.9,52.0 253.9,52.1 254.8,52.2 255.8,52.4 256.7,52.5 257.6,52.7 258.4,52.8 259.3,53.0 260.1,53.1 261.0,53.2 261.8,53.4 263.0,53.6 264.1,53.8 265.3,54.0 266.4,54.2 267.5,54.4 268.5,54.6 269.6,54.8 270.6,55.0 271.6,55.2 272.5,55.4 273.5,55.6 274.4,55.8 275.3,56.0 276.2,56.2 277.1,56.4 278.0,56.6 278.8,56.7 279.6,56.9 280.5,57.1 281.3,57.3 282.3,57.5 283.4,57.7 284.4,58.0 285.3,58.2 286.3,58.4 287.3,58.6 288.2,58.9 289.1,59.1 290.0,59.3 290.9,59.5 291.7,59.7 292.6,59.9 293.4,60.1 294.2,60.3 295.0,60.5 296.0,60.7 297.0,61.0 297.9,61.2 298.8,61.4 299.7,61.7 300.6,61.9 301.5,62.1 302.4,62.3 303.2,62.5 304.0,62.8 304.9,63.0 305.8,63.2 306.7,63.4 307.7,63.7 308.6,63.9 309.5,64.1 310.3,64.4 311.2,64.6 312.0,64.8 312.8,65.0 313.7,65.2 314.6,65.5 315.5,65.7 316.4,65.9 317.3,66.2 318.1,66.4 319.0,66.6 319.8,66.8 320.6,67.0 321.4,67.3 322.3,67.5 323.2,67.7 324.1,68.0 324.9,68.2 325.7,68.4 326.6,68.6 327.4,68.8 328.3,69.1 329.1,69.3 330.0,69.5 330.8,69.7 331.7,69.9 332.5,70.2 333.3,70.4 334.2,70.6 335.0,70.8 335.9,71.0 336.7,71.3 337.5,71.5 338.4,71.7 339.2,71.9 340.1,72.1 340.9,72.4 341.7,72.6 342.5,72.8 343.4,73.0 344.2,73.2 345.1,73.4 345.9,73.6 346.7,73.8 347.6,74.0 348.4,74.3 349.2,74.5 350.0,74.7 350.9,74.9 351.7,75.1 352.6,75.3 353.4,75.5 354.2,75.7 355.1,75.9 355.9,76.1 356.7,76.3 357.6,76.5 358.4,76.7 359.2,76.9 360.0,77.1 360.9,77.3 361.7,77.4 362.5,77.6 363.3,77.8 364.2,78.0 365.0,78.2 365.8,78.4 366.6,78.5 367.4,78.7 368.3,78.9 369.1,79.1 369.9,79.2 370.7,79.4 371.5,79.6 372.4,79.7 373.2,79.9 374.0,80.0 374.8,80.2 375.6,80.3 376.4,80.5 377.2,80.6 378.1,80.8 378.9,80.9 379.7,81.0 380.5,81.2 381.3,81.3 382.1,81.4 383.0,81.5 383.8,81.6 384.6,81.7 385.4,81.8 386.2,81.9 387.0,82.0 387.9,82.1 388.7,82.2 389.5,82.3 390.3,82.3 391.1,82.4 391.9,82.4" fill="none" stroke="#4a90d9" stroke-width="1.5" stroke-linejoin="round" clip-path="url(#pc253)"/>
  <line x1="442" y1="16" x2="442" y2="171" stroke="#d1d5db"/>
  <line x1="442" y1="93.5" x2="800" y2="93.5" stroke="#d1d5db"/>
  <text x="621" y="197" text-anchor="middle" font-size="9" fill="#6b7280">Hz</text>
  <text x="420" y="93.5" text-anchor="middle" font-size="9" fill="#6b7280" transform="rotate(-90 420 93.5)">Phase (deg)</text>
  <line x1="474.6" y1="16" x2="474.6" y2="171" stroke="#e5e7eb" stroke-width="0.5"/>
  <line x1="493.7" y1="16" x2="493.7" y2="171" stroke="#e5e7eb" stroke-width="0.5"/>
  <line x1="507.3" y1="16" x2="507.3" y2="171" stroke="#e5e7eb" stroke-width="0.5"/>
  <line x1="517.8" y1="16" x2="517.8" y2="171" stroke="#e5e7eb" stroke-width="0.5"/>
  <line x1="526.4" y1="16" x2="526.4" y2="171" stroke="#e5e7eb" stroke-width="0.5"/>
  <line x1="533.7" y1="16" x2="533.7" y2="171" stroke="#e5e7eb" stroke-width="0.5"/>
  <line x1="539.9" y1="16" x2="539.9" y2="171" stroke="#e5e7eb" stroke-width="0.5"/>
  <line x1="545.5" y1="16" x2="545.5" y2="171" stroke="#e5e7eb" stroke-width="0.5"/>
  <line x1="583.1" y1="16" x2="583.1" y2="171" stroke="#e5e7eb" stroke-width="0.5"/>
  <line x1="602.2" y1="16" x2="602.2" y2="171" stroke="#e5e7eb" stroke-width="0.5"/>
  <line x1="615.7" y1="16" x2="615.7" y2="171" stroke="#e5e7eb" stroke-width="0.5"/>
  <line x1="626.3" y1="16" x2="626.3" y2="171" stroke="#e5e7eb" stroke-width="0.5"/>
  <line x1="634.8" y1="16" x2="634.8" y2="171" stroke="#e5e7eb" stroke-width="0.5"/>
  <line x1="642.1" y1="16" x2="642.1" y2="171" stroke="#e5e7eb" stroke-width="0.5"/>
  <line x1="648.4" y1="16" x2="648.4" y2="171" stroke="#e5e7eb" stroke-width="0.5"/>
  <line x1="653.9" y1="16" x2="653.9" y2="171" stroke="#e5e7eb" stroke-width="0.5"/>
  <line x1="691.5" y1="16" x2="691.5" y2="171" stroke="#e5e7eb" stroke-width="0.5"/>
  <line x1="710.6" y1="16" x2="710.6" y2="171" stroke="#e5e7eb" stroke-width="0.5"/>
  <line x1="724.2" y1="16" x2="724.2" y2="171" stroke="#e5e7eb" stroke-width="0.5"/>
  <line x1="734.7" y1="16" x2="734.7" y2="171" stroke="#e5e7eb" stroke-width="0.5"/>
  <line x1="743.3" y1="16" x2="743.3" y2="171" stroke="#e5e7eb" stroke-width="0.5"/>
  <line x1="750.6" y1="16" x2="750.6" y2="171" stroke="#e5e7eb" stroke-width="0.5"/>
  <line x1="756.8" y1="16" x2="756.8" y2="171" stroke="#e5e7eb" stroke-width="0.5"/>
  <line x1="762.4" y1="16" x2="762.4" y2="171" stroke="#e5e7eb" stroke-width="0.5"/>
  <line x1="800.0" y1="16" x2="800.0" y2="171" stroke="#e5e7eb" stroke-width="0.5"/>
  <line x1="550.5" y1="16" x2="550.5" y2="171" stroke="#e5e7eb" stroke-width="0.5"/>
  <text x="550.5" y="183" text-anchor="middle" font-size="8" fill="#6b7280">100</text>
  <line x1="658.9" y1="16" x2="658.9" y2="171" stroke="#e5e7eb" stroke-width="0.5"/>
  <text x="658.9" y="183" text-anchor="middle" font-size="8" fill="#6b7280">1k</text>
  <line x1="767.4" y1="16" x2="767.4" y2="171" stroke="#e5e7eb" stroke-width="0.5"/>
  <text x="767.4" y="183" text-anchor="middle" font-size="8" fill="#6b7280">10k</text>
  <line x1="442" y1="54.8" x2="800" y2="54.8" stroke="#e5e7eb" stroke-width="0.5"/>
  <line x1="442" y1="132.3" x2="800" y2="132.3" stroke="#e5e7eb" stroke-width="0.5"/>
  <line x1="442" y1="16.0" x2="800" y2="16.0" stroke="#e5e7eb" stroke-width="0.5"/>
  <text x="438" y="19.0" text-anchor="end" font-size="8" fill="#6b7280">180</text>
  <text x="438" y="96.5" text-anchor="end" font-size="8" fill="#6b7280">0</text>
  <line x1="442" y1="171.0" x2="800" y2="171.0" stroke="#e5e7eb" stroke-width="0.5"/>
  <text x="438" y="174.0" text-anchor="end" font-size="8" fill="#6b7280">-180</text>
  <line x1="658.9" y1="16" x2="658.9" y2="171" stroke="#d1d5db" stroke-width="1" stroke-dasharray="4 3"/>
  <defs><linearGradient id="g254" x1="0" y1="171" x2="0" y2="93.5" gradientUnits="userSpaceOnUse">
    <stop offset="0%" stop-color="#e74c3c" stop-opacity="0.15"/>
    <stop offset="100%" stop-color="#e74c3c" stop-opacity="0.02"/>
  </linearGradient></defs>
  <path d="M445.5,93.7 445.5,93.7 478.1,94.0 497.2,94.2 510.8,94.5 521.3,94.7 529.9,95.0 537.1,95.2 543.4,95.5 549.0,95.7 553.9,96.0 558.4,96.2 562.5,96.4 566.3,96.7 569.8,96.9 573.0,97.2 576.1,97.4 578.9,97.7 581.6,97.9 584.2,98.1 586.6,98.4 588.9,98.6 591.1,98.8 593.2,99.1 595.2,99.3 597.1,99.5 598.9,99.8 600.7,100.0 602.4,100.2 604.1,100.4 605.7,100.7 607.2,100.9 608.7,101.1 610.2,101.3 611.6,101.5 612.9,101.7 614.3,102.0 615.6,102.2 616.8,102.4 618.0,102.6 619.2,102.8 620.4,103.0 621.5,103.2 622.6,103.4 623.7,103.6 624.8,103.8 625.8,104.0 626.8,104.2 627.8,104.4 628.8,104.6 629.7,104.8 630.7,104.9 631.6,105.1 632.5,105.3 633.4,105.5 634.2,105.7 635.1,105.9 635.9,106.0 636.7,106.2 637.5,106.4 639.1,106.7 640.6,107.0 642.1,107.4 643.5,107.7 644.9,108.0 646.2,108.3 647.6,108.6 648.8,108.9 650.1,109.2 651.3,109.4 652.5,109.7 653.6,110.0 654.7,110.2 655.8,110.5 656.9,110.7 657.9,110.9 659.0,111.2 660.0,111.4 660.9,111.6 661.9,111.8 662.8,112.0 663.8,112.2 664.7,112.4 665.6,112.6 666.4,112.8 667.3,113.0 668.1,113.2 669.0,113.4 669.8,113.5 671.0,113.8 672.1,114.0 673.3,114.3 674.4,114.5 675.5,114.7 676.5,114.9 677.6,115.1 678.6,115.3 679.6,115.5 680.5,115.6 681.5,115.8 682.4,116.0 683.3,116.1 684.2,116.3 685.1,116.4 686.0,116.6 686.8,116.7 687.6,116.8 688.5,116.9 689.3,117.1 690.3,117.2 691.4,117.4 692.4,117.5 693.3,117.6 694.3,117.7 695.3,117.9 696.2,118.0 697.1,118.1 698.0,118.2 698.9,118.3 699.7,118.4 700.6,118.4 701.4,118.5 702.2,118.6 703.0,118.7 704.0,118.7 705.0,118.8 705.9,118.9 706.8,118.9 707.7,119.0 708.6,119.1 709.5,119.1 710.4,119.2 711.2,119.2 712.0,119.2 712.9,119.3 713.8,119.3 714.7,119.3 715.7,119.3 716.6,119.4 717.5,119.4 718.3,119.4 719.2,119.4 720.0,119.4 720.8,119.4 721.7,119.4 722.6,119.4 723.5,119.4 724.4,119.3 725.3,119.3 726.1,119.3 727.0,119.3 727.8,119.2 728.6,119.2 729.4,119.2 730.3,119.1 731.2,119.1 732.1,119.0 732.9,118.9 733.7,118.9 734.6,118.8 735.4,118.7 736.3,118.7 737.1,118.6 738.0,118.5 738.8,118.4 739.7,118.3 740.5,118.2 741.3,118.1 742.2,118.0 743.0,117.9 743.9,117.8 744.7,117.7 745.5,117.6 746.4,117.4 747.2,117.3 748.1,117.2 748.9,117.0 749.7,116.9 750.5,116.7 751.4,116.6 752.2,116.4 753.1,116.3 753.9,116.1 754.7,115.9 755.6,115.7 756.4,115.6 757.2,115.4 758.0,115.2 758.9,115.0 759.7,114.8 760.6,114.6 761.4,114.4 762.2,114.1 763.1,113.9 763.9,113.7 764.7,113.4 765.6,113.2 766.4,112.9 767.2,112.7 768.0,112.4 768.9,112.2 769.7,111.9 770.5,111.6 771.3,111.3 772.2,111.0 773.0,110.7 773.8,110.5 774.6,110.1 775.4,109.8 776.3,109.5 777.1,109.2 777.9,108.8 778.7,108.5 779.5,108.2 780.4,107.8 781.2,107.5 782.0,107.1 782.8,106.7 783.6,106.3 784.4,105.9 785.2,105.5 786.1,105.1 786.9,104.7 787.7,104.3 788.5,103.8 789.3,103.4 790.1,103.0 791.0,102.5 791.8,102.0 792.6,101.6 793.4,101.1 794.2,100.6 795.0,100.1 795.9,99.6 796.7,99.1 797.5,98.5 798.3,98.0 799.1,97.5 799.9,96.9 L799.9,93.5 L445.5,93.5 Z" fill="url(#g254)"/>
  <defs><clipPath id="pc255"><rect x="442" y="16" width="358" height="155"/></clipPath></defs>
  <polyline points="445.5,93.7 478.1,94.0 497.2,94.2 510.8,94.5 521.3,94.7 529.9,95.0 537.1,95.2 543.4,95.5 549.0,95.7 553.9,96.0 558.4,96.2 562.5,96.4 566.3,96.7 569.8,96.9 573.0,97.2 576.1,97.4 578.9,97.7 581.6,97.9 584.2,98.1 586.6,98.4 588.9,98.6 591.1,98.8 593.2,99.1 595.2,99.3 597.1,99.5 598.9,99.8 600.7,100.0 602.4,100.2 604.1,100.4 605.7,100.7 607.2,100.9 608.7,101.1 610.2,101.3 611.6,101.5 612.9,101.7 614.3,102.0 615.6,102.2 616.8,102.4 618.0,102.6 619.2,102.8 620.4,103.0 621.5,103.2 622.6,103.4 623.7,103.6 624.8,103.8 625.8,104.0 626.8,104.2 627.8,104.4 628.8,104.6 629.7,104.8 630.7,104.9 631.6,105.1 632.5,105.3 633.4,105.5 634.2,105.7 635.1,105.9 635.9,106.0 636.7,106.2 637.5,106.4 639.1,106.7 640.6,107.0 642.1,107.4 643.5,107.7 644.9,108.0 646.2,108.3 647.6,108.6 648.8,108.9 650.1,109.2 651.3,109.4 652.5,109.7 653.6,110.0 654.7,110.2 655.8,110.5 656.9,110.7 657.9,110.9 659.0,111.2 660.0,111.4 660.9,111.6 661.9,111.8 662.8,112.0 663.8,112.2 664.7,112.4 665.6,112.6 666.4,112.8 667.3,113.0 668.1,113.2 669.0,113.4 669.8,113.5 671.0,113.8 672.1,114.0 673.3,114.3 674.4,114.5 675.5,114.7 676.5,114.9 677.6,115.1 678.6,115.3 679.6,115.5 680.5,115.6 681.5,115.8 682.4,116.0 683.3,116.1 684.2,116.3 685.1,116.4 686.0,116.6 686.8,116.7 687.6,116.8 688.5,116.9 689.3,117.1 690.3,117.2 691.4,117.4 692.4,117.5 693.3,117.6 694.3,117.7 695.3,117.9 696.2,118.0 697.1,118.1 698.0,118.2 698.9,118.3 699.7,118.4 700.6,118.4 701.4,118.5 702.2,118.6 703.0,118.7 704.0,118.7 705.0,118.8 705.9,118.9 706.8,118.9 707.7,119.0 708.6,119.1 709.5,119.1 710.4,119.2 711.2,119.2 712.0,119.2 712.9,119.3 713.8,119.3 714.7,119.3 715.7,119.3 716.6,119.4 717.5,119.4 718.3,119.4 719.2,119.4 720.0,119.4 720.8,119.4 721.7,119.4 722.6,119.4 723.5,119.4 724.4,119.3 725.3,119.3 726.1,119.3 727.0,119.3 727.8,119.2 728.6,119.2 729.4,119.2 730.3,119.1 731.2,119.1 732.1,119.0 732.9,118.9 733.7,118.9 734.6,118.8 735.4,118.7 736.3,118.7 737.1,118.6 738.0,118.5 738.8,118.4 739.7,118.3 740.5,118.2 741.3,118.1 742.2,118.0 743.0,117.9 743.9,117.8 744.7,117.7 745.5,117.6 746.4,117.4 747.2,117.3 748.1,117.2 748.9,117.0 749.7,116.9 750.5,116.7 751.4,116.6 752.2,116.4 753.1,116.3 753.9,116.1 754.7,115.9 755.6,115.7 756.4,115.6 757.2,115.4 758.0,115.2 758.9,115.0 759.7,114.8 760.6,114.6 761.4,114.4 762.2,114.1 763.1,113.9 763.9,113.7 764.7,113.4 765.6,113.2 766.4,112.9 767.2,112.7 768.0,112.4 768.9,112.2 769.7,111.9 770.5,111.6 771.3,111.3 772.2,111.0 773.0,110.7 773.8,110.5 774.6,110.1 775.4,109.8 776.3,109.5 777.1,109.2 777.9,108.8 778.7,108.5 779.5,108.2 780.4,107.8 781.2,107.5 782.0,107.1 782.8,106.7 783.6,106.3 784.4,105.9 785.2,105.5 786.1,105.1 786.9,104.7 787.7,104.3 788.5,103.8 789.3,103.4 790.1,103.0 791.0,102.5 791.8,102.0 792.6,101.6 793.4,101.1 794.2,100.6 795.0,100.1 795.9,99.6 796.7,99.1 797.5,98.5 798.3,98.0 799.1,97.5 799.9,96.9" fill="none" stroke="#e74c3c" stroke-width="1.5" stroke-linejoin="round" clip-path="url(#pc255)"/>
  <line x1="34" y1="221" x2="34" y2="376" stroke="#d1d5db"/>
  <line x1="34" y1="298.5" x2="392" y2="298.5" stroke="#d1d5db"/>
  <text x="213" y="402" text-anchor="middle" font-size="9" fill="#6b7280">Hz</text>
  <text x="12" y="298.5" text-anchor="middle" font-size="9" fill="#6b7280" transform="rotate(-90 12 298.5)">Group delay</text>
  <line x1="66.6" y1="221" x2="66.6" y2="376" stroke="#e5e7eb" stroke-width="0.5"/>
  <line x1="85.7" y1="221" x2="85.7" y2="376" stroke="#e5e7eb" stroke-width="0.5"/>
  <line x1="99.3" y1="221" x2="99.3" y2="376" stroke="#e5e7eb" stroke-width="0.5"/>
  <line x1="109.8" y1="221" x2="109.8" y2="376" stroke="#e5e7eb" stroke-width="0.5"/>
  <line x1="118.4" y1="221" x2="118.4" y2="376" stroke="#e5e7eb" stroke-width="0.5"/>
  <line x1="125.7" y1="221" x2="125.7" y2="376" stroke="#e5e7eb" stroke-width="0.5"/>
  <line x1="131.9" y1="221" x2="131.9" y2="376" stroke="#e5e7eb" stroke-width="0.5"/>
  <line x1="137.5" y1="221" x2="137.5" y2="376" stroke="#e5e7eb" stroke-width="0.5"/>
  <line x1="175.1" y1="221" x2="175.1" y2="376" stroke="#e5e7eb" stroke-width="0.5"/>
  <line x1="194.2" y1="221" x2="194.2" y2="376" stroke="#e5e7eb" stroke-width="0.5"/>
  <line x1="207.7" y1="221" x2="207.7" y2="376" stroke="#e5e7eb" stroke-width="0.5"/>
  <line x1="218.3" y1="221" x2="218.3" y2="376" stroke="#e5e7eb" stroke-width="0.5"/>
  <line x1="226.8" y1="221" x2="226.8" y2="376" stroke="#e5e7eb" stroke-width="0.5"/>
  <line x1="234.1" y1="221" x2="234.1" y2="376" stroke="#e5e7eb" stroke-width="0.5"/>
  <line x1="240.4" y1="221" x2="240.4" y2="376" stroke="#e5e7eb" stroke-width="0.5"/>
  <line x1="245.9" y1="221" x2="245.9" y2="376" stroke="#e5e7eb" stroke-width="0.5"/>
  <line x1="283.5" y1="221" x2="283.5" y2="376" stroke="#e5e7eb" stroke-width="0.5"/>
  <line x1="302.6" y1="221" x2="302.6" y2="376" stroke="#e5e7eb" stroke-width="0.5"/>
  <line x1="316.2" y1="221" x2="316.2" y2="376" stroke="#e5e7eb" stroke-width="0.5"/>
  <line x1="326.7" y1="221" x2="326.7" y2="376" stroke="#e5e7eb" stroke-width="0.5"/>
  <line x1="335.3" y1="221" x2="335.3" y2="376" stroke="#e5e7eb" stroke-width="0.5"/>
  <line x1="342.6" y1="221" x2="342.6" y2="376" stroke="#e5e7eb" stroke-width="0.5"/>
  <line x1="348.8" y1="221" x2="348.8" y2="376" stroke="#e5e7eb" stroke-width="0.5"/>
  <line x1="354.4" y1="221" x2="354.4" y2="376" stroke="#e5e7eb" stroke-width="0.5"/>
  <line x1="392.0" y1="221" x2="392.0" y2="376" stroke="#e5e7eb" stroke-width="0.5"/>
  <line x1="142.5" y1="221" x2="142.5" y2="376" stroke="#e5e7eb" stroke-width="0.5"/>
  <text x="142.5" y="388" text-anchor="middle" font-size="8" fill="#6b7280">100</text>
  <line x1="250.9" y1="221" x2="250.9" y2="376" stroke="#e5e7eb" stroke-width="0.5"/>
  <text x="250.9" y="388" text-anchor="middle" font-size="8" fill="#6b7280">1k</text>
  <line x1="359.4" y1="221" x2="359.4" y2="376" stroke="#e5e7eb" stroke-width="0.5"/>
  <text x="359.4" y="388" text-anchor="middle" font-size="8" fill="#6b7280">10k</text>
  <line x1="34" y1="349.6" x2="392" y2="349.6" stroke="#e5e7eb" stroke-width="0.5"/>
  <text x="30" y="352.6" text-anchor="end" font-size="8" fill="#6b7280">-3</text>
  <text x="30" y="301.5" text-anchor="end" font-size="8" fill="#6b7280">0</text>
  <line x1="34" y1="247.4" x2="392" y2="247.4" stroke="#e5e7eb" stroke-width="0.5"/>
  <text x="30" y="250.4" text-anchor="end" font-size="8" fill="#6b7280">3</text>
  <line x1="250.9" y1="221" x2="250.9" y2="376" stroke="#d1d5db" stroke-width="1" stroke-dasharray="4 3"/>
  <defs><linearGradient id="g256" x1="0" y1="376" x2="0" y2="298.5" gradientUnits="userSpaceOnUse">
    <stop offset="0%" stop-color="#2ecc71" stop-opacity="0.15"/>
    <stop offset="100%" stop-color="#2ecc71" stop-opacity="0.02"/>
  </linearGradient></defs>
  <path d="M37.5,299.8 37.5,299.8 70.1,301.1 89.2,302.4 102.8,303.6 113.3,304.9 121.9,306.2 129.1,307.5 135.4,308.7 141.0,310.0 145.9,311.2 150.4,312.4 154.5,313.7 158.3,314.9 161.8,316.1 165.0,317.3 168.1,318.5 170.9,319.7 173.6,320.8 176.2,321.9 178.6,323.1 180.9,324.2 183.1,325.3 185.2,326.4 187.2,327.4 189.1,328.5 190.9,329.5 192.7,330.5 194.4,331.5 196.1,332.5 197.7,333.4 199.2,334.4 200.7,335.3 202.2,336.2 203.6,337.0 204.9,337.9 206.3,338.7 207.6,339.6 208.8,340.3 210.0,341.1 211.2,341.9 212.4,342.6 213.5,343.3 214.6,344.0 215.7,344.7 216.8,345.3 217.8,346.0 218.8,346.6 219.8,347.2 220.8,347.8 221.7,348.3 222.7,348.9 223.6,349.4 224.5,349.9 225.4,350.4 226.2,350.8 227.1,351.3 227.9,351.7 228.7,352.1 229.5,352.5 231.1,353.3 232.6,353.9 234.1,354.6 235.5,355.1 236.9,355.6 238.2,356.1 239.6,356.5 240.8,356.8 242.1,357.1 243.3,357.4 244.5,357.6 245.6,357.8 246.7,357.9 247.8,358.0 248.9,358.1 249.9,358.1 251.0,358.1 252.0,358.1 252.9,358.1 253.9,358.0 254.8,357.9 255.8,357.8 256.7,357.6 257.6,357.5 258.4,357.3 259.3,357.1 260.1,356.9 261.0,356.7 261.8,356.5 263.0,356.1 264.1,355.8 265.3,355.4 266.4,354.9 267.5,354.5 268.5,354.1 269.6,353.6 270.6,353.2 271.6,352.7 272.5,352.2 273.5,351.7 274.4,351.2 275.3,350.7 276.2,350.3 277.1,349.8 278.0,349.3 278.8,348.8 279.6,348.3 280.5,347.8 281.3,347.3 282.3,346.7 283.4,346.1 284.4,345.4 285.3,344.8 286.3,344.2 287.3,343.6 288.2,343.0 289.1,342.4 290.0,341.9 290.9,341.3 291.7,340.7 292.6,340.2 293.4,339.7 294.2,339.1 295.0,338.6 296.0,338.0 297.0,337.4 297.9,336.8 298.8,336.2 299.7,335.6 300.6,335.0 301.5,334.5 302.4,334.0 303.2,333.4 304.0,332.9 304.9,332.4 305.8,331.8 306.7,331.3 307.7,330.7 308.6,330.2 309.5,329.7 310.3,329.1 311.2,328.7 312.0,328.2 312.8,327.7 313.7,327.2 314.6,326.7 315.5,326.2 316.4,325.7 317.3,325.3 318.1,324.8 319.0,324.4 319.8,323.9 320.6,323.5 321.4,323.1 322.3,322.6 323.2,322.2 324.1,321.8 324.9,321.3 325.7,320.9 326.6,320.6 327.4,320.2 328.3,319.8 329.1,319.4 330.0,319.0 330.8,318.6 331.7,318.2 332.5,317.9 333.3,317.5 334.2,317.1 335.0,316.8 335.9,316.4 336.7,316.1 337.5,315.8 338.4,315.4 339.2,315.1 340.1,314.7 340.9,314.4 341.7,314.1 342.5,313.8 343.4,313.5 344.2,313.2 345.1,312.9 345.9,312.6 346.7,312.3 347.6,312.0 348.4,311.7 349.2,311.4 350.0,311.2 350.9,310.9 351.7,310.6 352.6,310.3 353.4,310.1 354.2,309.8 355.1,309.5 355.9,309.3 356.7,309.0 357.6,308.8 358.4,308.5 359.2,308.3 360.0,308.1 360.9,307.8 361.7,307.6 362.5,307.3 363.3,307.1 364.2,306.9 365.0,306.6 365.8,306.4 366.6,306.2 367.4,306.0 368.3,305.8 369.1,305.5 369.9,305.3 370.7,305.1 371.5,304.9 372.4,304.7 373.2,304.5 374.0,304.3 374.8,304.1 375.6,303.9 376.4,303.7 377.2,303.5 378.1,303.2 378.9,303.0 379.7,302.8 380.5,302.6 381.3,302.4 382.1,302.2 383.0,302.0 383.8,301.8 384.6,301.6 385.4,301.4 386.2,301.2 387.0,301.0 387.9,300.8 388.7,300.6 389.5,300.4 390.3,300.2 391.1,300.0 391.9,299.8 L391.9,298.5 L37.5,298.5 Z" fill="url(#g256)"/>
  <defs><clipPath id="pc257"><rect x="34" y="221" width="358" height="155"/></clipPath></defs>
  <polyline points="37.5,299.8 70.1,301.1 89.2,302.4 102.8,303.6 113.3,304.9 121.9,306.2 129.1,307.5 135.4,308.7 141.0,310.0 145.9,311.2 150.4,312.4 154.5,313.7 158.3,314.9 161.8,316.1 165.0,317.3 168.1,318.5 170.9,319.7 173.6,320.8 176.2,321.9 178.6,323.1 180.9,324.2 183.1,325.3 185.2,326.4 187.2,327.4 189.1,328.5 190.9,329.5 192.7,330.5 194.4,331.5 196.1,332.5 197.7,333.4 199.2,334.4 200.7,335.3 202.2,336.2 203.6,337.0 204.9,337.9 206.3,338.7 207.6,339.6 208.8,340.3 210.0,341.1 211.2,341.9 212.4,342.6 213.5,343.3 214.6,344.0 215.7,344.7 216.8,345.3 217.8,346.0 218.8,346.6 219.8,347.2 220.8,347.8 221.7,348.3 222.7,348.9 223.6,349.4 224.5,349.9 225.4,350.4 226.2,350.8 227.1,351.3 227.9,351.7 228.7,352.1 229.5,352.5 231.1,353.3 232.6,353.9 234.1,354.6 235.5,355.1 236.9,355.6 238.2,356.1 239.6,356.5 240.8,356.8 242.1,357.1 243.3,357.4 244.5,357.6 245.6,357.8 246.7,357.9 247.8,358.0 248.9,358.1 249.9,358.1 251.0,358.1 252.0,358.1 252.9,358.1 253.9,358.0 254.8,357.9 255.8,357.8 256.7,357.6 257.6,357.5 258.4,357.3 259.3,357.1 260.1,356.9 261.0,356.7 261.8,356.5 263.0,356.1 264.1,355.8 265.3,355.4 266.4,354.9 267.5,354.5 268.5,354.1 269.6,353.6 270.6,353.2 271.6,352.7 272.5,352.2 273.5,351.7 274.4,351.2 275.3,350.7 276.2,350.3 277.1,349.8 278.0,349.3 278.8,348.8 279.6,348.3 280.5,347.8 281.3,347.3 282.3,346.7 283.4,346.1 284.4,345.4 285.3,344.8 286.3,344.2 287.3,343.6 288.2,343.0 289.1,342.4 290.0,341.9 290.9,341.3 291.7,340.7 292.6,340.2 293.4,339.7 294.2,339.1 295.0,338.6 296.0,338.0 297.0,337.4 297.9,336.8 298.8,336.2 299.7,335.6 300.6,335.0 301.5,334.5 302.4,334.0 303.2,333.4 304.0,332.9 304.9,332.4 305.8,331.8 306.7,331.3 307.7,330.7 308.6,330.2 309.5,329.7 310.3,329.1 311.2,328.7 312.0,328.2 312.8,327.7 313.7,327.2 314.6,326.7 315.5,326.2 316.4,325.7 317.3,325.3 318.1,324.8 319.0,324.4 319.8,323.9 320.6,323.5 321.4,323.1 322.3,322.6 323.2,322.2 324.1,321.8 324.9,321.3 325.7,320.9 326.6,320.6 327.4,320.2 328.3,319.8 329.1,319.4 330.0,319.0 330.8,318.6 331.7,318.2 332.5,317.9 333.3,317.5 334.2,317.1 335.0,316.8 335.9,316.4 336.7,316.1 337.5,315.8 338.4,315.4 339.2,315.1 340.1,314.7 340.9,314.4 341.7,314.1 342.5,313.8 343.4,313.5 344.2,313.2 345.1,312.9 345.9,312.6 346.7,312.3 347.6,312.0 348.4,311.7 349.2,311.4 350.0,311.2 350.9,310.9 351.7,310.6 352.6,310.3 353.4,310.1 354.2,309.8 355.1,309.5 355.9,309.3 356.7,309.0 357.6,308.8 358.4,308.5 359.2,308.3 360.0,308.1 360.9,307.8 361.7,307.6 362.5,307.3 363.3,307.1 364.2,306.9 365.0,306.6 365.8,306.4 366.6,306.2 367.4,306.0 368.3,305.8 369.1,305.5 369.9,305.3 370.7,305.1 371.5,304.9 372.4,304.7 373.2,304.5 374.0,304.3 374.8,304.1 375.6,303.9 376.4,303.7 377.2,303.5 378.1,303.2 378.9,303.0 379.7,302.8 380.5,302.6 381.3,302.4 382.1,302.2 383.0,302.0 383.8,301.8 384.6,301.6 385.4,301.4 386.2,301.2 387.0,301.0 387.9,300.8 388.7,300.6 389.5,300.4 390.3,300.2 391.1,300.0 391.9,299.8" fill="none" stroke="#2ecc71" stroke-width="1.5" stroke-linejoin="round" clip-path="url(#pc257)"/>
  <line x1="442" y1="221" x2="442" y2="376" stroke="#d1d5db"/>
  <line x1="442" y1="298.5" x2="800" y2="298.5" stroke="#d1d5db"/>
  <text x="621" y="402" text-anchor="middle" font-size="9" fill="#6b7280">Samples</text>
  <text x="420" y="298.5" text-anchor="middle" font-size="9" fill="#6b7280" transform="rotate(-90 420 298.5)">Impulse response</text>
  <line x1="442.0" y1="221" x2="442.0" y2="376" stroke="#e5e7eb" stroke-width="0.5"/>
  <text x="442.0" y="388" text-anchor="middle" font-size="8" fill="#6b7280">0</text>
  <line x1="531.5" y1="221" x2="531.5" y2="376" stroke="#e5e7eb" stroke-width="0.5"/>
  <text x="531.5" y="388" text-anchor="middle" font-size="8" fill="#6b7280">32</text>
  <line x1="621.0" y1="221" x2="621.0" y2="376" stroke="#e5e7eb" stroke-width="0.5"/>
  <text x="621.0" y="388" text-anchor="middle" font-size="8" fill="#6b7280">64</text>
  <line x1="710.5" y1="221" x2="710.5" y2="376" stroke="#e5e7eb" stroke-width="0.5"/>
  <text x="710.5" y="388" text-anchor="middle" font-size="8" fill="#6b7280">96</text>
  <line x1="800.0" y1="221" x2="800.0" y2="376" stroke="#e5e7eb" stroke-width="0.5"/>
  <text x="800.0" y="388" text-anchor="middle" font-size="8" fill="#6b7280">128</text>
  <line x1="442" y1="351.0" x2="800" y2="351.0" stroke="#e5e7eb" stroke-width="0.5"/>
  <text x="438" y="354.0" text-anchor="end" font-size="8" fill="#6b7280">-0.09</text>
  <text x="438" y="301.5" text-anchor="end" font-size="8" fill="#6b7280">0</text>
  <line x1="442" y1="246.0" x2="800" y2="246.0" stroke="#e5e7eb" stroke-width="0.5"/>
  <text x="438" y="249.0" text-anchor="end" font-size="8" fill="#6b7280">0.09</text>
  <defs><linearGradient id="g258" x1="0" y1="221" x2="0" y2="298.5" gradientUnits="userSpaceOnUse">
    <stop offset="0%" stop-color="#f39c12" stop-opacity="0.15"/>
    <stop offset="100%" stop-color="#f39c12" stop-opacity="0.02"/>
  </linearGradient></defs>
  <path d="M442.0,221.0 442.0,221.0 444.8,231.3 447.6,240.2 450.4,248.0 453.2,254.7 456.0,260.5 458.8,265.5 461.6,269.9 464.4,273.7 467.2,277.0 470.0,279.9 472.8,282.3 475.6,284.5 478.4,286.3 481.2,288.0 484.0,289.4 486.8,290.6 489.5,291.6 492.3,292.5 495.1,293.3 497.9,294.0 500.7,294.6 503.5,295.1 506.3,295.6 509.1,296.0 511.9,296.3 514.7,296.6 517.5,296.8 520.3,297.1 523.1,297.3 525.9,297.4 528.7,297.6 531.5,297.7 534.3,297.8 537.1,297.9 539.9,298.0 542.7,298.0 545.5,298.1 548.3,298.2 551.1,298.2 553.9,298.2 556.7,298.3 559.5,298.3 562.3,298.3 565.1,298.4 567.9,298.4 570.7,298.4 573.5,298.4 576.3,298.4 579.0,298.4 581.8,298.4 584.6,298.4 587.4,298.5 590.2,298.5 593.0,298.5 595.8,298.5 598.6,298.5 601.4,298.5 604.2,298.5 607.0,298.5 609.8,298.5 612.6,298.5 615.4,298.5 618.2,298.5 621.0,298.5 623.8,298.5 626.6,298.5 629.4,298.5 632.2,298.5 635.0,298.5 637.8,298.5 640.6,298.5 643.4,298.5 646.2,298.5 649.0,298.5 651.8,298.5 654.6,298.5 657.4,298.5 660.2,298.5 663.0,298.5 665.8,298.5 668.5,298.5 671.3,298.5 674.1,298.5 676.9,298.5 679.7,298.5 682.5,298.5 685.3,298.5 688.1,298.5 690.9,298.5 693.7,298.5 696.5,298.5 699.3,298.5 702.1,298.5 704.9,298.5 707.7,298.5 710.5,298.5 713.3,298.5 716.1,298.5 718.9,298.5 721.7,298.5 724.5,298.5 727.3,298.5 730.1,298.5 732.9,298.5 735.7,298.5 738.5,298.5 741.3,298.5 744.1,298.5 746.9,298.5 749.7,298.5 752.5,298.5 755.3,298.5 758.0,298.5 760.8,298.5 763.6,298.5 766.4,298.5 769.2,298.5 772.0,298.5 774.8,298.5 777.6,298.5 780.4,298.5 783.2,298.5 786.0,298.5 788.8,298.5 791.6,298.5 794.4,298.5 797.2,298.5 L797.2,298.5 L442.0,298.5 Z" fill="url(#g258)"/>
  <defs><clipPath id="pc259"><rect x="442" y="221" width="358" height="155"/></clipPath></defs>
  <polyline points="442.0,221.0 444.8,231.3 447.6,240.2 450.4,248.0 453.2,254.7 456.0,260.5 458.8,265.5 461.6,269.9 464.4,273.7 467.2,277.0 470.0,279.9 472.8,282.3 475.6,284.5 478.4,286.3 481.2,288.0 484.0,289.4 486.8,290.6 489.5,291.6 492.3,292.5 495.1,293.3 497.9,294.0 500.7,294.6 503.5,295.1 506.3,295.6 509.1,296.0 511.9,296.3 514.7,296.6 517.5,296.8 520.3,297.1 523.1,297.3 525.9,297.4 528.7,297.6 531.5,297.7 534.3,297.8 537.1,297.9 539.9,298.0 542.7,298.0 545.5,298.1 548.3,298.2 551.1,298.2 553.9,298.2 556.7,298.3 559.5,298.3 562.3,298.3 565.1,298.4 567.9,298.4 570.7,298.4 573.5,298.4 576.3,298.4 579.0,298.4 581.8,298.4 584.6,298.4 587.4,298.5 590.2,298.5 593.0,298.5 595.8,298.5 598.6,298.5 601.4,298.5 604.2,298.5 607.0,298.5 609.8,298.5 612.6,298.5 615.4,298.5 618.2,298.5 621.0,298.5 623.8,298.5 626.6,298.5 629.4,298.5 632.2,298.5 635.0,298.5 637.8,298.5 640.6,298.5 643.4,298.5 646.2,298.5 649.0,298.5 651.8,298.5 654.6,298.5 657.4,298.5 660.2,298.5 663.0,298.5 665.8,298.5 668.5,298.5 671.3,298.5 674.1,298.5 676.9,298.5 679.7,298.5 682.5,298.5 685.3,298.5 688.1,298.5 690.9,298.5 693.7,298.5 696.5,298.5 699.3,298.5 702.1,298.5 704.9,298.5 707.7,298.5 710.5,298.5 713.3,298.5 716.1,298.5 718.9,298.5 721.7,298.5 724.5,298.5 727.3,298.5 730.1,298.5 732.9,298.5 735.7,298.5 738.5,298.5 741.3,298.5 744.1,298.5 746.9,298.5 749.7,298.5 752.5,298.5 755.3,298.5 758.0,298.5 760.8,298.5 763.6,298.5 766.4,298.5 769.2,298.5 772.0,298.5 774.8,298.5 777.6,298.5 780.4,298.5 783.2,298.5 786.0,298.5 788.8,298.5 791.6,298.5 794.4,298.5 797.2,298.5" fill="none" stroke="#f39c12" stroke-width="1.3" stroke-linejoin="round" clip-path="url(#pc259)"/>
</svg>
