<svg xmlns="http://www.w3.org/2000/svg" viewBox="0 0 820 378" style="font-family:system-ui,-apple-system,sans-serif">
  <text x="800" y="11" text-anchor="end" font-size="11" font-weight="600" fill="#6b7280">One-pole lowpass, fc=1kHz</text>
  <line x1="34" y1="16" x2="34" y2="171" stroke="#d1d5db"/>
  <line x1="34" y1="47.0" x2="399" y2="47.0" stroke="#d1d5db"/>
  <text x="216.5" y="197" text-anchor="middle" font-size="9" fill="#6b7280">Hz</text>
  <text x="12" y="93.5" text-anchor="middle" font-size="9" fill="#6b7280" transform="rotate(-90 12 93.5)">dB</text>
  <line x1="67.3" y1="16" x2="67.3" y2="171" stroke="#e5e7eb" stroke-width="0.5"/>
  <line x1="86.8" y1="16" x2="86.8" y2="171" stroke="#e5e7eb" stroke-width="0.5"/>
  <line x1="100.6" y1="16" x2="100.6" y2="171" stroke="#e5e7eb" stroke-width="0.5"/>
  <line x1="111.3" y1="16" x2="111.3" y2="171" stroke="#e5e7eb" stroke-width="0.5"/>
  <line x1="120.0" y1="16" x2="120.0" y2="171" stroke="#e5e7eb" stroke-width="0.5"/>
  <line x1="127.4" y1="16" x2="127.4" y2="171" stroke="#e5e7eb" stroke-width="0.5"/>
  <line x1="133.9" y1="16" x2="133.9" y2="171" stroke="#e5e7eb" stroke-width="0.5"/>
  <line x1="139.5" y1="16" x2="139.5" y2="171" stroke="#e5e7eb" stroke-width="0.5"/>
  <line x1="177.9" y1="16" x2="177.9" y2="171" stroke="#e5e7eb" stroke-width="0.5"/>
  <line x1="197.3" y1="16" x2="197.3" y2="171" stroke="#e5e7eb" stroke-width="0.5"/>
  <line x1="211.1" y1="16" x2="211.1" y2="171" stroke="#e5e7eb" stroke-width="0.5"/>
  <line x1="221.9" y1="16" x2="221.9" y2="171" stroke="#e5e7eb" stroke-width="0.5"/>
  <line x1="230.6" y1="16" x2="230.6" y2="171" stroke="#e5e7eb" stroke-width="0.5"/>
  <line x1="238.0" y1="16" x2="238.0" y2="171" stroke="#e5e7eb" stroke-width="0.5"/>
  <line x1="244.4" y1="16" x2="244.4" y2="171" stroke="#e5e7eb" stroke-width="0.5"/>
  <line x1="250.1" y1="16" x2="250.1" y2="171" stroke="#e5e7eb" stroke-width="0.5"/>
  <line x1="288.4" y1="16" x2="288.4" y2="171" stroke="#e5e7eb" stroke-width="0.5"/>
  <line x1="307.9" y1="16" x2="307.9" y2="171" stroke="#e5e7eb" stroke-width="0.5"/>
  <line x1="321.7" y1="16" x2="321.7" y2="171" stroke="#e5e7eb" stroke-width="0.5"/>
  <line x1="332.4" y1="16" x2="332.4" y2="171" stroke="#e5e7eb" stroke-width="0.5"/>
  <line x1="341.2" y1="16" x2="341.2" y2="171" stroke="#e5e7eb" stroke-width="0.5"/>
  <line x1="348.6" y1="16" x2="348.6" y2="171" stroke="#e5e7eb" stroke-width="0.5"/>
  <line x1="355.0" y1="16" x2="355.0" y2="171" stroke="#e5e7eb" stroke-width="0.5"/>
  <line x1="360.7" y1="16" x2="360.7" y2="171" stroke="#e5e7eb" stroke-width="0.5"/>
  <line x1="399.0" y1="16" x2="399.0" y2="171" stroke="#e5e7eb" stroke-width="0.5"/>
  <line x1="144.6" y1="16" x2="144.6" y2="171" stroke="#e5e7eb" stroke-width="0.5"/>
  <text x="144.6" y="183" text-anchor="middle" font-size="8" fill="#6b7280">100</text>
  <line x1="255.1" y1="16" x2="255.1" y2="171" stroke="#e5e7eb" stroke-width="0.5"/>
  <text x="255.1" y="183" text-anchor="middle" font-size="8" fill="#6b7280">1k</text>
  <line x1="365.7" y1="16" x2="365.7" y2="171" stroke="#e5e7eb" stroke-width="0.5"/>
  <text x="365.7" y="183" text-anchor="middle" font-size="8" fill="#6b7280">10k</text>
  <line x1="34" y1="31.5" x2="399" y2="31.5" stroke="#e5e7eb" stroke-width="0.5"/>
  <line x1="34" y1="62.5" x2="399" y2="62.5" stroke="#e5e7eb" stroke-width="0.5"/>
  <line x1="34" y1="16.0" x2="399" y2="16.0" stroke="#e5e7eb" stroke-width="0.5"/>
  <text x="30" y="19.0" text-anchor="end" font-size="8" fill="#6b7280">+20</text>
  <text x="30" y="50.0" text-anchor="end" font-size="8" fill="#6b7280">0</text>
  <line x1="34" y1="78.0" x2="399" y2="78.0" stroke="#e5e7eb" stroke-width="0.5"/>
  <text x="30" y="81.0" text-anchor="end" font-size="8" fill="#6b7280">-20</text>
  <line x1="34" y1="109.0" x2="399" y2="109.0" stroke="#e5e7eb" stroke-width="0.5"/>
  <text x="30" y="112.0" text-anchor="end" font-size="8" fill="#6b7280">-40</text>
  <line x1="34" y1="140.0" x2="399" y2="140.0" stroke="#e5e7eb" stroke-width="0.5"/>
  <text x="30" y="143.0" text-anchor="end" font-size="8" fill="#6b7280">-60</text>
  <line x1="34" y1="171.0" x2="399" y2="171.0" stroke="#e5e7eb" stroke-width="0.5"/>
  <text x="30" y="174.0" text-anchor="end" font-size="8" fill="#6b7280">-80</text>
  <line x1="255.1" y1="16" x2="255.1" y2="171" stroke="#d1d5db" stroke-width="1" stroke-dasharray="4 3"/>
  <defs><linearGradient id="g252" x1="0" y1="16" x2="0" y2="171" gradientUnits="userSpaceOnUse">
    <stop offset="0%" stop-color="#4a90d9" stop-opacity="0.15"/>
    <stop offset="100%" stop-color="#4a90d9" stop-opacity="0.02"/>
  </linearGradient></defs>
  <path d="M37.5,47.0 37.5,47.0 70.8,47.0 90.3,47.0 104.1,47.0 114.8,47.0 123.6,47.0 131.0,47.0 137.4,47.0 143.1,47.1 148.1,47.1 152.7,47.1 156.9,47.1 160.7,47.1 164.3,47.2 167.6,47.2 170.7,47.2 173.6,47.2 176.3,47.2 178.9,47.3 181.4,47.3 183.7,47.3 186.0,47.4 188.1,47.4 190.2,47.4 192.1,47.5 194.0,47.5 195.8,47.5 197.6,47.6 199.2,47.6 200.9,47.7 202.4,47.7 204.0,47.8 205.5,47.8 206.9,47.8 208.3,47.9 209.6,47.9 210.9,48.0 212.2,48.0 213.5,48.1 214.7,48.1 215.9,48.2 217.0,48.3 218.2,48.3 219.3,48.4 220.3,48.4 221.4,48.5 222.4,48.5 223.4,48.6 224.4,48.6 225.4,48.7 226.4,48.8 227.3,48.8 228.2,48.9 229.1,49.0 230.0,49.0 230.8,49.1 231.7,49.1 232.5,49.2 233.4,49.3 234.2,49.3 235.7,49.5 237.3,49.6 238.7,49.7 240.2,49.9 241.6,50.0 242.9,50.2 244.2,50.3 245.5,50.4 246.8,50.6 248.0,50.7 249.2,50.9 250.3,51.0 251.4,51.2 252.6,51.3 253.6,51.4 254.7,51.6 255.7,51.7 256.7,51.9 257.7,52.0 258.7,52.2 259.6,52.3 260.6,52.5 261.5,52.6 262.4,52.7 263.3,52.9 264.1,53.0 265.0,53.2 265.8,53.3 266.6,53.5 267.4,53.6 268.6,53.8 269.8,54.0 270.9,54.2 272.0,54.4 273.1,54.6 274.2,54.8 275.2,55.0 276.2,55.2 277.2,55.4 278.2,55.6 279.1,55.8 280.0,56.0 281.0,56.2 281.9,56.4 282.7,56.6 283.6,56.7 284.5,56.9 285.3,57.1 286.1,57.3 286.9,57.5 288.0,57.7 289.0,57.9 290.0,58.1 291.0,58.4 292.0,58.6 292.9,58.8 293.9,59.0 294.8,59.2 295.7,59.4 296.6,59.6 297.4,59.9 298.3,60.1 299.1,60.3 299.9,60.5 300.7,60.6 301.7,60.9 302.7,61.1 303.6,61.3 304.6,61.6 305.5,61.8 306.4,62.0 307.3,62.2 308.1,62.5 309.0,62.7 309.8,62.9 310.6,63.1 311.4,63.3 312.4,63.5 313.3,63.8 314.2,64.0 315.1,64.2 316.0,64.4 316.9,64.7 317.7,64.9 318.6,65.1 319.4,65.3 320.2,65.5 321.1,65.7 322.0,66.0 322.9,66.2 323.8,66.4 324.7,66.6 325.5,66.9 326.3,67.1 327.1,67.3 327.9,67.5 328.8,67.7 329.7,68.0 330.6,68.2 331.4,68.4 332.3,68.6 333.1,68.8 333.9,69.0 334.8,69.3 335.7,69.5 336.5,69.7 337.4,69.9 338.2,70.1 339.0,70.3 339.8,70.6 340.7,70.8 341.6,71.0 342.4,71.2 343.3,71.4 344.1,71.6 344.9,71.8 345.8,72.1 346.6,72.3 347.5,72.5 348.3,72.7 349.1,72.9 350.0,73.1 350.8,73.3 351.7,73.5 352.5,73.7 353.3,73.9 354.1,74.2 355.0,74.4 355.8,74.6 356.6,74.8 357.5,75.0 358.3,75.2 359.1,75.4 360.0,75.6 360.8,75.8 361.6,76.0 362.5,76.2 363.3,76.3 364.1,76.5 364.9,76.7 365.8,76.9 366.6,77.1 367.4,77.3 368.2,77.5 369.1,77.7 369.9,77.8 370.7,78.0 371.6,78.2 372.4,78.4 373.2,78.6 374.0,78.7 374.8,78.9 375.6,79.1 376.5,79.2 377.3,79.4 378.1,79.5 378.9,79.7 379.7,79.9 380.5,80.0 381.4,80.2 382.2,80.3 383.0,80.5 383.8,80.6 384.6,80.7 385.5,80.9 386.3,81.0 387.1,81.1 387.9,81.2 388.7,81.4 389.5,81.5 390.3,81.6 391.2,81.7 392.0,81.8 392.8,81.9 393.6,82.0 394.4,82.1 395.2,82.2 396.0,82.2 396.8,82.3 397.6,82.4 398.5,82.4 L398.5,171.0 L37.5,171.0 Z" fill="url(#g252)"/>
  <defs><clipPath id="pc253"><rect x="34" y="16" width="365" height="155"/></clipPath></defs>
  <polyline points="37.5,47.0 70.8,47.0 90.3,47.0 104.1,47.0 114.8,47.0 123.6,47.0 131.0,47.0 137.4,47.0 143.1,47.1 148.1,47.1 152.7,47.1 156.9,47.1 160.7,47.1 164.3,47.2 167.6,47.2 170.7,47.2 173.6,47.2 176.3,47.2 178.9,47.3 181.4,47.3 183.7,47.3 186.0,47.4 188.1,47.4 190.2,47.4 192.1,47.5 194.0,47.5 195.8,47.5 197.6,47.6 199.2,47.6 200.9,47.7 202.4,47.7 204.0,47.8 205.5,47.8 206.9,47.8 208.3,47.9 209.6,47.9 210.9,48.0 212.2,48.0 213.5,48.1 214.7,48.1 215.9,48.2 217.0,48.3 218.2,48.3 219.3,48.4 220.3,48.4 221.4,48.5 222.4,48.5 223.4,48.6 224.4,48.6 225.4,48.7 226.4,48.8 227.3,48.8 228.2,48.9 229.1,49.0 230.0,49.0 230.8,49.1 231.7,49.1 232.5,49.2 233.4,49.3 234.2,49.3 235.7,49.5 237.3,49.6 238.7,49.7 240.2,49.9 241.6,50.0 242.9,50.2 244.2,50.3 245.5,50.4 246.8,50.6 248.0,50.7 249.2,50.9 250.3,51.0 251.4,51.2 252.6,51.3 253.6,51.4 254.7,51.6 255.7,51.7 256.7,51.9 257.7,52.0 258.7,52.2 259.6,52.3 260.6,52.5 261.5,52.6 262.4,52.7 263.3,52.9 264.1,53.0 265.0,53.2 265.8,53.3 266.6,53.5 267.4,53.6 268.6,53.8 269.8,54.0 270.9,54.2 272.0,54.4 273.1,54.6 274.2,54.8 275.2,55.0 276.2,55.2 277.2,55.4 278.2,55.6 279.1,55.8 280.0,56.0 281.0,56.2 281.9,56.4 282.7,56.6 283.6,56.7 284.5,56.9 285.3,57.1 286.1,57.3 286.9,57.5 288.0,57.7 289.0,57.9 290.0,58.1 291.0,58.4 292.0,58.6 292.9,58.8 293.9,59.0 294.8,59.2 295.7,59.4 296.6,59.6 297.4,59.9 298.3,60.1 299.1,60.3 299.9,60.5 300.7,60.6 301.7,60.9 302.7,61.1 303.6,61.3 304.6,61.6 305.5,61.8 306.4,62.0 307.3,62.2 308.1,62.5 309.0,62.7 309.8,62.9 310.6,63.1 311.4,63.3 312.4,63.5 313.3,63.8 314.2,64.0 315.1,64.2 316.0,64.4 316.9,64.7 317.7,64.9 318.6,65.1 319.4,65.3 320.2,65.5 321.1,65.7 322.0,66.0 322.9,66.2 323.8,66.4 324.7,66.6 325.5,66.9 326.3,67.1 327.1,67.3 327.9,67.5 328.8,67.7 329.7,68.0 330.6,68.2 331.4,68.4 332.3,68.6 333.1,68.8 333.9,69.0 334.8,69.3 335.7,69.5 336.5,69.7 337.4,69.9 338.2,70.1 339.0,70.3 339.8,70.6 340.7,70.8 341.6,71.0 342.4,71.2 343.3,71.4 344.1,71.6 344.9,71.8 345.8,72.1 346.6,72.3 347.5,72.5 348.3,72.7 349.1,72.9 350.0,73.1 350.8,73.3 351.7,73.5 352.5,73.7 353.3,73.9 354.1,74.2 355.0,74.4 355.8,74.6 356.6,74.8 357.5,75.0 358.3,75.2 359.1,75.4 360.0,75.6 360.8,75.8 361.6,76.0 362.5,76.2 363.3,76.3 364.1,76.5 364.9,76.7 365.8,76.9 366.6,77.1 367.4,77.3 368.2,77.5 369.1,77.7 369.9,77.8 370.7,78.0 371.6,78.2 372.4,78.4 373.2,78.6 374.0,78.7 374.8,78.9 375.6,79.1 376.5,79.2 377.3,79.4 378.1,79.5 378.9,79.7 379.7,79.9 380.5,80.0 381.4,80.2 382.2,80.3 383.0,80.5 383.8,80.6 384.6,80.7 385.5,80.9 386.3,81.0 387.1,81.1 387.9,81.2 388.7,81.4 389.5,81.5 390.3,81.6 391.2,81.7 392.0,81.8 392.8,81.9 393.6,82.0 394.4,82.1 395.2,82.2 396.0,82.2 396.8,82.3 397.6,82.4 398.5,82.4" fill="none" stroke="#4a90d9" stroke-width="1.5" stroke-linejoin="round" clip-path="url(#pc253)"/>
  <line x1="435" y1="16" x2="435" y2="171" stroke="#d1d5db"/>
  <line x1="435" y1="93.5" x2="800" y2="93.5" stroke="#d1d5db"/>
  <text x="617.5" y="197" text-anchor="middle" font-size="9" fill="#6b7280">Hz</text>
  <text x="413" y="93.5" text-anchor="middle" font-size="9" fill="#6b7280" transform="rotate(-90 413 93.5)">Phase (deg)</text>
  <line x1="468.3" y1="16" x2="468.3" y2="171" stroke="#e5e7eb" stroke-width="0.5"/>
  <line x1="487.8" y1="16" x2="487.8" y2="171" stroke="#e5e7eb" stroke-width="0.5"/>
  <line x1="501.6" y1="16" x2="501.6" y2="171" stroke="#e5e7eb" stroke-width="0.5"/>
  <line x1="512.3" y1="16" x2="512.3" y2="171" stroke="#e5e7eb" stroke-width="0.5"/>
  <line x1="521.0" y1="16" x2="521.0" y2="171" stroke="#e5e7eb" stroke-width="0.5"/>
  <line x1="528.4" y1="16" x2="528.4" y2="171" stroke="#e5e7eb" stroke-width="0.5"/>
  <line x1="534.9" y1="16" x2="534.9" y2="171" stroke="#e5e7eb" stroke-width="0.5"/>
  <line x1="540.5" y1="16" x2="540.5" y2="171" stroke="#e5e7eb" stroke-width="0.5"/>
  <line x1="578.9" y1="16" x2="578.9" y2="171" stroke="#e5e7eb" stroke-width="0.5"/>
  <line x1="598.3" y1="16" x2="598.3" y2="171" stroke="#e5e7eb" stroke-width="0.5"/>
  <line x1="612.1" y1="16" x2="612.1" y2="171" stroke="#e5e7eb" stroke-width="0.5"/>
  <line x1="622.9" y1="16" x2="622.9" y2="171" stroke="#e5e7eb" stroke-width="0.5"/>
  <line x1="631.6" y1="16" x2="631.6" y2="171" stroke="#e5e7eb" stroke-width="0.5"/>
  <line x1="639.0" y1="16" x2="639.0" y2="171" stroke="#e5e7eb" stroke-width="0.5"/>
  <line x1="645.4" y1="16" x2="645.4" y2="171" stroke="#e5e7eb" stroke-width="0.5"/>
  <line x1="651.1" y1="16" x2="651.1" y2="171" stroke="#e5e7eb" stroke-width="0.5"/>
  <line x1="689.4" y1="16" x2="689.4" y2="171" stroke="#e5e7eb" stroke-width="0.5"/>
  <line x1="708.9" y1="16" x2="708.9" y2="171" stroke="#e5e7eb" stroke-width="0.5"/>
  <line x1="722.7" y1="16" x2="722.7" y2="171" stroke="#e5e7eb" stroke-width="0.5"/>
  <line x1="733.4" y1="16" x2="733.4" y2="171" stroke="#e5e7eb" stroke-width="0.5"/>
  <line x1="742.2" y1="16" x2="742.2" y2="171" stroke="#e5e7eb" stroke-width="0.5"/>
  <line x1="749.6" y1="16" x2="749.6" y2="171" stroke="#e5e7eb" stroke-width="0.5"/>
  <line x1="756.0" y1="16" x2="756.0" y2="171" stroke="#e5e7eb" stroke-width="0.5"/>
  <line x1="761.7" y1="16" x2="761.7" y2="171" stroke="#e5e7eb" stroke-width="0.5"/>
  <line x1="800.0" y1="16" x2="800.0" y2="171" stroke="#e5e7eb" stroke-width="0.5"/>
  <line x1="545.6" y1="16" x2="545.6" y2="171" stroke="#e5e7eb" stroke-width="0.5"/>
  <text x="545.6" y="183" text-anchor="middle" font-size="8" fill="#6b7280">100</text>
  <line x1="656.1" y1="16" x2="656.1" y2="171" stroke="#e5e7eb" stroke-width="0.5"/>
  <text x="656.1" y="183" text-anchor="middle" font-size="8" fill="#6b7280">1k</text>
  <line x1="766.7" y1="16" x2="766.7" y2="171" stroke="#e5e7eb" stroke-width="0.5"/>
  <text x="766.7" y="183" text-anchor="middle" font-size="8" fill="#6b7280">10k</text>
  <line x1="435" y1="58.6" x2="800" y2="58.6" stroke="#e5e7eb" stroke-width="0.5"/>
  <line x1="435" y1="128.4" x2="800" y2="128.4" stroke="#e5e7eb" stroke-width="0.5"/>
  <line x1="435" y1="23.8" x2="800" y2="23.8" stroke="#e5e7eb" stroke-width="0.5"/>
  <text x="431" y="26.8" text-anchor="end" font-size="8" fill="#6b7280">180</text>
  <text x="431" y="96.5" text-anchor="end" font-size="8" fill="#6b7280">0</text>
  <line x1="435" y1="163.3" x2="800" y2="163.3" stroke="#e5e7eb" stroke-width="0.5"/>
  <text x="431" y="166.3" text-anchor="end" font-size="8" fill="#6b7280">-180</text>
  <line x1="656.1" y1="16" x2="656.1" y2="171" stroke="#d1d5db" stroke-width="1" stroke-dasharray="4 3"/>
  <defs><linearGradient id="g254" x1="0" y1="171" x2="0" y2="93.5" gradientUnits="userSpaceOnUse">
    <stop offset="0%" stop-color="#e74c3c" stop-opacity="0.15"/>
    <stop offset="100%" stop-color="#e74c3c" stop-opacity="0.02"/>
  </linearGradient></defs>
  <path d="M438.5,93.7 438.5,93.7 471.8,93.9 491.3,94.2 505.1,94.4 515.8,94.6 524.6,94.8 532.0,95.1 538.4,95.3 544.1,95.5 549.1,95.7 553.7,95.9 557.9,96.2 561.7,96.4 565.3,96.6 568.6,96.8 571.7,97.0 574.6,97.2 577.3,97.5 579.9,97.7 582.4,97.9 584.7,98.1 587.0,98.3 589.1,98.5 591.2,98.7 593.1,98.9 595.0,99.1 596.8,99.3 598.6,99.5 600.2,99.7 601.9,99.9 603.4,100.1 605.0,100.3 606.5,100.5 607.9,100.7 609.3,100.9 610.6,101.1 611.9,101.3 613.2,101.5 614.5,101.7 615.7,101.9 616.9,102.0 618.0,102.2 619.2,102.4 620.3,102.6 621.3,102.8 622.4,102.9 623.4,103.1 624.4,103.3 625.4,103.5 626.4,103.6 627.4,103.8 628.3,104.0 629.2,104.1 630.1,104.3 631.0,104.5 631.8,104.6 632.7,104.8 633.5,104.9 634.4,105.1 635.2,105.2 636.7,105.5 638.3,105.8 639.7,106.1 641.2,106.4 642.6,106.7 643.9,106.9 645.2,107.2 646.5,107.5 647.8,107.7 649.0,108.0 650.2,108.2 651.3,108.4 652.4,108.7 653.6,108.9 654.6,109.1 655.7,109.3 656.7,109.5 657.7,109.7 658.7,109.9 659.7,110.1 660.6,110.3 661.6,110.5 662.5,110.6 663.4,110.8 664.3,111.0 665.1,111.1 666.0,111.3 666.8,111.5 667.6,111.6 668.4,111.8 669.6,112.0 670.8,112.2 671.9,112.4 673.0,112.6 674.1,112.8 675.2,112.9 676.2,113.1 677.2,113.3 678.2,113.4 679.2,113.6 680.1,113.7 681.0,113.9 682.0,114.0 682.9,114.1 683.7,114.2 684.6,114.4 685.5,114.5 686.3,114.6 687.1,114.7 687.9,114.8 689.0,114.9 690.0,115.1 691.0,115.2 692.0,115.3 693.0,115.4 693.9,115.5 694.9,115.6 695.8,115.7 696.7,115.8 697.6,115.8 698.4,115.9 699.3,116.0 700.1,116.1 700.9,116.1 701.7,116.2 702.7,116.3 703.7,116.3 704.6,116.4 705.6,116.4 706.5,116.5 707.4,116.5 708.3,116.6 709.1,116.6 710.0,116.6 710.8,116.7 711.6,116.7 712.4,116.7 713.4,116.7 714.3,116.8 715.2,116.8 716.1,116.8 717.0,116.8 717.9,116.8 718.7,116.8 719.6,116.8 720.4,116.8 721.2,116.8 722.1,116.8 723.0,116.8 723.9,116.7 724.8,116.7 725.7,116.7 726.5,116.7 727.3,116.6 728.1,116.6 728.9,116.5 729.8,116.5 730.7,116.4 731.6,116.4 732.4,116.3 733.3,116.3 734.1,116.2 734.9,116.2 735.8,116.1 736.7,116.0 737.5,115.9 738.4,115.9 739.2,115.8 740.0,115.7 740.8,115.6 741.7,115.5 742.6,115.4 743.4,115.3 744.3,115.2 745.1,115.1 745.9,115.0 746.8,114.8 747.6,114.7 748.5,114.6 749.3,114.5 750.1,114.3 751.0,114.2 751.8,114.0 752.7,113.9 753.5,113.8 754.3,113.6 755.1,113.4 756.0,113.3 756.8,113.1 757.6,112.9 758.5,112.8 759.3,112.6 760.1,112.4 761.0,112.2 761.8,112.0 762.6,111.8 763.5,111.6 764.3,111.4 765.1,111.2 765.9,110.9 766.8,110.7 767.6,110.5 768.4,110.3 769.2,110.0 770.1,109.8 770.9,109.5 771.7,109.3 772.6,109.0 773.4,108.7 774.2,108.5 775.0,108.2 775.8,107.9 776.6,107.6 777.5,107.3 778.3,107.0 779.1,106.7 779.9,106.4 780.7,106.1 781.5,105.8 782.4,105.4 783.2,105.1 784.0,104.7 784.8,104.4 785.6,104.0 786.5,103.7 787.3,103.3 788.1,102.9 788.9,102.5 789.7,102.1 790.5,101.7 791.3,101.3 792.2,100.9 793.0,100.5 793.8,100.1 794.6,99.6 795.4,99.2 796.2,98.7 797.0,98.3 797.8,97.8 798.6,97.3 799.5,96.8 L799.5,93.5 L438.5,93.5 Z" fill="url(#g254)"/>
  <defs><clipPath id="pc255"><rect x="435" y="16" width="365" height="155"/></clipPath></defs>
  <polyline points="438.5,93.7 471.8,93.9 491.3,94.2 505.1,94.4 515.8,94.6 524.6,94.8 532.0,95.1 538.4,95.3 544.1,95.5 549.1,95.7 553.7,95.9 557.9,96.2 561.7,96.4 565.3,96.6 568.6,96.8 571.7,97.0 574.6,97.2 577.3,97.5 579.9,97.7 582.4,97.9 584.7,98.1 587.0,98.3 589.1,98.5 591.2,98.7 593.1,98.9 595.0,99.1 596.8,99.3 598.6,99.5 600.2,99.7 601.9,99.9 603.4,100.1 605.0,100.3 606.5,100.5 607.9,100.7 609.3,100.9 610.6,101.1 611.9,101.3 613.2,101.5 614.5,101.7 615.7,101.9 616.9,102.0 618.0,102.2 619.2,102.4 620.3,102.6 621.3,102.8 622.4,102.9 623.4,103.1 624.4,103.3 625.4,103.5 626.4,103.6 627.4,103.8 628.3,104.0 629.2,104.1 630.1,104.3 631.0,104.5 631.8,104.6 632.7,104.8 633.5,104.9 634.4,105.1 635.2,105.2 636.7,105.5 638.3,105.8 639.7,106.1 641.2,106.4 642.6,106.7 643.9,106.9 645.2,107.2 646.5,107.5 647.8,107.7 649.0,108.0 650.2,108.2 651.3,108.4 652.4,108.7 653.6,108.9 654.6,109.1 655.7,109.3 656.7,109.5 657.7,109.7 658.7,109.9 659.7,110.1 660.6,110.3 661.6,110.5 662.5,110.6 663.4,110.8 664.3,111.0 665.1,111.1 666.0,111.3 666.8,111.5 667.6,111.6 668.4,111.8 669.6,112.0 670.8,112.2 671.9,112.4 673.0,112.6 674.1,112.8 675.2,112.9 676.2,113.1 677.2,113.3 678.2,113.4 679.2,113.6 680.1,113.7 681.0,113.9 682.0,114.0 682.9,114.1 683.7,114.2 684.6,114.4 685.5,114.5 686.3,114.6 687.1,114.7 687.9,114.8 689.0,114.9 690.0,115.1 691.0,115.2 692.0,115.3 693.0,115.4 693.9,115.5 694.9,115.6 695.8,115.7 696.7,115.8 697.6,115.8 698.4,115.9 699.3,116.0 700.1,116.1 700.9,116.1 701.7,116.2 702.7,116.3 703.7,116.3 704.6,116.4 705.6,116.4 706.5,116.5 707.4,116.5 708.3,116.6 709.1,116.6 710.0,116.6 710.8,116.7 711.6,116.7 712.4,116.7 713.4,116.7 714.3,116.8 715.2,116.8 716.1,116.8 717.0,116.8 717.9,116.8 718.7,116.8 719.6,116.8 720.4,116.8 721.2,116.8 722.1,116.8 723.0,116.8 723.9,116.7 724.8,116.7 725.7,116.7 726.5,116.7 727.3,116.6 728.1,116.6 728.9,116.5 729.8,116.5 730.7,116.4 731.6,116.4 732.4,116.3 733.3,116.3 734.1,116.2 734.9,116.2 735.8,116.1 736.7,116.0 737.5,115.9 738.4,115.9 739.2,115.8 740.0,115.7 740.8,115.6 741.7,115.5 742.6,115.4 743.4,115.3 744.3,115.2 745.1,115.1 745.9,115.0 746.8,114.8 747.6,114.7 748.5,114.6 749.3,114.5 750.1,114.3 751.0,114.2 751.8,114.0 752.7,113.9 753.5,113.8 754.3,113.6 755.1,113.4 756.0,113.3 756.8,113.1 757.6,112.9 758.5,112.8 759.3,112.6 760.1,112.4 761.0,112.2 761.8,112.0 762.6,111.8 763.5,111.6 764.3,111.4 765.1,111.2 765.9,110.9 766.8,110.7 767.6,110.5 768.4,110.3 769.2,110.0 770.1,109.8 770.9,109.5 771.7,109.3 772.6,109.0 773.4,108.7 774.2,108.5 775.0,108.2 775.8,107.9 776.6,107.6 777.5,107.3 778.3,107.0 779.1,106.7 779.9,106.4 780.7,106.1 781.5,105.8 782.4,105.4 783.2,105.1 784.0,104.7 784.8,104.4 785.6,104.0 786.5,103.7 787.3,103.3 788.1,102.9 788.9,102.5 789.7,102.1 790.5,101.7 791.3,101.3 792.2,100.9 793.0,100.5 793.8,100.1 794.6,99.6 795.4,99.2 796.2,98.7 797.0,98.3 797.8,97.8 798.6,97.3 799.5,96.8" fill="none" stroke="#e74c3c" stroke-width="1.5" stroke-linejoin="round" clip-path="url(#pc255)"/>
  <line x1="34" y1="207" x2="34" y2="362" stroke="#d1d5db"/>
  <line x1="34" y1="284.5" x2="399" y2="284.5" stroke="#d1d5db"/>
  <text x="216.5" y="388" text-anchor="middle" font-size="9" fill="#6b7280">Hz</text>
  <text x="12" y="284.5" text-anchor="middle" font-size="9" fill="#6b7280" transform="rotate(-90 12 284.5)">Group delay</text>
  <line x1="67.3" y1="207" x2="67.3" y2="362" stroke="#e5e7eb" stroke-width="0.5"/>
  <line x1="86.8" y1="207" x2="86.8" y2="362" stroke="#e5e7eb" stroke-width="0.5"/>
  <line x1="100.6" y1="207" x2="100.6" y2="362" stroke="#e5e7eb" stroke-width="0.5"/>
  <line x1="111.3" y1="207" x2="111.3" y2="362" stroke="#e5e7eb" stroke-width="0.5"/>
  <line x1="120.0" y1="207" x2="120.0" y2="362" stroke="#e5e7eb" stroke-width="0.5"/>
  <line x1="127.4" y1="207" x2="127.4" y2="362" stroke="#e5e7eb" stroke-width="0.5"/>
  <line x1="133.9" y1="207" x2="133.9" y2="362" stroke="#e5e7eb" stroke-width="0.5"/>
  <line x1="139.5" y1="207" x2="139.5" y2="362" stroke="#e5e7eb" stroke-width="0.5"/>
  <line x1="177.9" y1="207" x2="177.9" y2="362" stroke="#e5e7eb" stroke-width="0.5"/>
  <line x1="197.3" y1="207" x2="197.3" y2="362" stroke="#e5e7eb" stroke-width="0.5"/>
  <line x1="211.1" y1="207" x2="211.1" y2="362" stroke="#e5e7eb" stroke-width="0.5"/>
  <line x1="221.9" y1="207" x2="221.9" y2="362" stroke="#e5e7eb" stroke-width="0.5"/>
  <line x1="230.6" y1="207" x2="230.6" y2="362" stroke="#e5e7eb" stroke-width="0.5"/>
  <line x1="238.0" y1="207" x2="238.0" y2="362" stroke="#e5e7eb" stroke-width="0.5"/>
  <line x1="244.4" y1="207" x2="244.4" y2="362" stroke="#e5e7eb" stroke-width="0.5"/>
  <line x1="250.1" y1="207" x2="250.1" y2="362" stroke="#e5e7eb" stroke-width="0.5"/>
  <line x1="288.4" y1="207" x2="288.4" y2="362" stroke="#e5e7eb" stroke-width="0.5"/>
  <line x1="307.9" y1="207" x2="307.9" y2="362" stroke="#e5e7eb" stroke-width="0.5"/>
  <line x1="321.7" y1="207" x2="321.7" y2="362" stroke="#e5e7eb" stroke-width="0.5"/>
  <line x1="332.4" y1="207" x2="332.4" y2="362" stroke="#e5e7eb" stroke-width="0.5"/>
  <line x1="341.2" y1="207" x2="341.2" y2="362" stroke="#e5e7eb" stroke-width="0.5"/>
  <line x1="348.6" y1="207" x2="348.6" y2="362" stroke="#e5e7eb" stroke-width="0.5"/>
  <line x1="355.0" y1="207" x2="355.0" y2="362" stroke="#e5e7eb" stroke-width="0.5"/>
  <line x1="360.7" y1="207" x2="360.7" y2="362" stroke="#e5e7eb" stroke-width="0.5"/>
  <line x1="399.0" y1="207" x2="399.0" y2="362" stroke="#e5e7eb" stroke-width="0.5"/>
  <line x1="144.6" y1="207" x2="144.6" y2="362" stroke="#e5e7eb" stroke-width="0.5"/>
  <text x="144.6" y="374" text-anchor="middle" font-size="8" fill="#6b7280">100</text>
  <line x1="255.1" y1="207" x2="255.1" y2="362" stroke="#e5e7eb" stroke-width="0.5"/>
  <text x="255.1" y="374" text-anchor="middle" font-size="8" fill="#6b7280">1k</text>
  <line x1="365.7" y1="207" x2="365.7" y2="362" stroke="#e5e7eb" stroke-width="0.5"/>
  <text x="365.7" y="374" text-anchor="middle" font-size="8" fill="#6b7280">10k</text>
  <line x1="34" y1="335.6" x2="399" y2="335.6" stroke="#e5e7eb" stroke-width="0.5"/>
  <text x="30" y="338.6" text-anchor="end" font-size="8" fill="#6b7280">-3</text>
  <text x="30" y="287.5" text-anchor="end" font-size="8" fill="#6b7280">0</text>
  <line x1="34" y1="233.4" x2="399" y2="233.4" stroke="#e5e7eb" stroke-width="0.5"/>
  <text x="30" y="236.4" text-anchor="end" font-size="8" fill="#6b7280">3</text>
  <line x1="255.1" y1="207" x2="255.1" y2="362" stroke="#d1d5db" stroke-width="1" stroke-dasharray="4 3"/>
  <defs><linearGradient id="g256" x1="0" y1="362" x2="0" y2="284.5" gradientUnits="userSpaceOnUse">
    <stop offset="0%" stop-color="#2ecc71" stop-opacity="0.15"/>
    <stop offset="100%" stop-color="#2ecc71" stop-opacity="0.02"/>
  </linearGradient></defs>
  <path d="M37.5,285.8 37.5,285.8 70.8,287.1 90.3,288.4 104.1,289.6 114.8,290.9 123.6,292.2 131.0,293.5 137.4,294.7 143.1,296.0 148.1,297.2 152.7,298.4 156.9,299.7 160.7,300.9 164.3,302.1 167.6,303.3 170.7,304.5 173.6,305.7 176.3,306.8 178.9,307.9 181.4,309.1 183.7,310.2 186.0,311.3 188.1,312.4 190.2,313.4 192.1,314.5 194.0,315.5 195.8,316.5 197.6,317.5 199.2,318.5 200.9,319.4 202.4,320.4 204.0,321.3 205.5,322.2 206.9,323.0 208.3,323.9 209.6,324.7 210.9,325.6 212.2,326.3 213.5,327.1 214.7,327.9 215.9,328.6 217.0,329.3 218.2,330.0 219.3,330.7 220.3,331.3 221.4,332.0 222.4,332.6 223.4,333.2 224.4,333.8 225.4,334.3 226.4,334.9 227.3,335.4 228.2,335.9 229.1,336.4 230.0,336.8 230.8,337.3 231.7,337.7 232.5,338.1 233.4,338.5 234.2,338.9 235.7,339.6 237.3,340.3 238.7,340.8 240.2,341.4 241.6,341.9 242.9,342.3 244.2,342.6 245.5,343.0 246.8,343.2 248.0,343.5 249.2,343.7 250.3,343.8 251.4,344.0 252.6,344.0 253.6,344.1 254.7,344.1 255.7,344.1 256.7,344.1 257.7,344.0 258.7,343.9 259.6,343.8 260.6,343.7 261.5,343.6 262.4,343.4 263.3,343.2 264.1,343.0 265.0,342.8 265.8,342.6 266.6,342.4 267.4,342.1 268.6,341.8 269.8,341.4 270.9,340.9 272.0,340.5 273.1,340.1 274.2,339.6 275.2,339.2 276.2,338.7 277.2,338.2 278.2,337.7 279.1,337.2 280.0,336.7 281.0,336.3 281.9,335.8 282.7,335.3 283.6,334.8 284.5,334.3 285.3,333.8 286.1,333.3 286.9,332.9 288.0,332.2 289.0,331.6 290.0,331.0 291.0,330.4 292.0,329.8 292.9,329.2 293.9,328.6 294.8,328.0 295.7,327.4 296.6,326.9 297.4,326.3 298.3,325.8 299.1,325.3 299.9,324.8 300.7,324.2 301.7,323.6 302.7,323.0 303.6,322.4 304.6,321.8 305.5,321.3 306.4,320.7 307.3,320.2 308.1,319.6 309.0,319.1 309.8,318.6 310.6,318.1 311.4,317.6 312.4,317.1 313.3,316.5 314.2,316.0 315.1,315.5 316.0,315.0 316.9,314.5 317.7,314.0 318.6,313.5 319.4,313.1 320.2,312.7 321.1,312.2 322.0,311.7 322.9,311.2 323.8,310.7 324.7,310.3 325.5,309.9 326.3,309.4 327.1,309.0 327.9,308.6 328.8,308.2 329.7,307.8 330.6,307.3 331.4,306.9 332.3,306.6 333.1,306.2 333.9,305.8 334.8,305.4 335.7,305.0 336.5,304.6 337.4,304.3 338.2,303.9 339.0,303.6 339.8,303.2 340.7,302.9 341.6,302.5 342.4,302.2 343.3,301.8 344.1,301.5 344.9,301.2 345.8,300.9 346.6,300.5 347.5,300.2 348.3,299.9 349.1,299.6 350.0,299.3 350.8,299.0 351.7,298.7 352.5,298.4 353.3,298.1 354.1,297.9 355.0,297.6 355.8,297.3 356.6,297.0 357.5,296.8 358.3,296.5 359.1,296.2 360.0,296.0 360.8,295.7 361.6,295.5 362.5,295.2 363.3,295.0 364.1,294.7 364.9,294.5 365.8,294.2 366.6,294.0 367.4,293.8 368.2,293.5 369.1,293.3 369.9,293.1 370.7,292.8 371.6,292.6 372.4,292.4 373.2,292.2 374.0,292.0 374.8,291.8 375.6,291.5 376.5,291.3 377.3,291.1 378.1,290.9 378.9,290.7 379.7,290.5 380.5,290.3 381.4,290.1 382.2,289.9 383.0,289.7 383.8,289.5 384.6,289.3 385.5,289.1 386.3,288.9 387.1,288.7 387.9,288.5 388.7,288.3 389.5,288.1 390.3,287.9 391.2,287.7 392.0,287.5 392.8,287.3 393.6,287.1 394.4,286.9 395.2,286.7 396.0,286.5 396.8,286.3 397.6,286.1 398.5,285.9 L398.5,284.5 L37.5,284.5 Z" fill="url(#g256)"/>
  <defs><clipPath id="pc257"><rect x="34" y="207" width="365" height="155"/></clipPath></defs>
  <polyline points="37.5,285.8 70.8,287.1 90.3,288.4 104.1,289.6 114.8,290.9 123.6,292.2 131.0,293.5 137.4,294.7 143.1,296.0 148.1,297.2 152.7,298.4 156.9,299.7 160.7,300.9 164.3,302.1 167.6,303.3 170.7,304.5 173.6,305.7 176.3,306.8 178.9,307.9 181.4,309.1 183.7,310.2 186.0,311.3 188.1,312.4 190.2,313.4 192.1,314.5 194.0,315.5 195.8,316.5 197.6,317.5 199.2,318.5 200.9,319.4 202.4,320.4 204.0,321.3 205.5,322.2 206.9,323.0 208.3,323.9 209.6,324.7 210.9,325.6 212.2,326.3 213.5,327.1 214.7,327.9 215.9,328.6 217.0,329.3 218.2,330.0 219.3,330.7 220.3,331.3 221.4,332.0 222.4,332.6 223.4,333.2 224.4,333.8 225.4,334.3 226.4,334.9 227.3,335.4 228.2,335.9 229.1,336.4 230.0,336.8 230.8,337.3 231.7,337.7 232.5,338.1 233.4,338.5 234.2,338.9 235.7,339.6 237.3,340.3 238.7,340.8 240.2,341.4 241.6,341.9 242.9,342.3 244.2,342.6 245.5,343.0 246.8,343.2 248.0,343.5 249.2,343.7 250.3,343.8 251.4,344.0 252.6,344.0 253.6,344.1 254.7,344.1 255.7,344.1 256.7,344.1 257.7,344.0 258.7,343.9 259.6,343.8 260.6,343.7 261.5,343.6 262.4,343.4 263.3,343.2 264.1,343.0 265.0,342.8 265.8,342.6 266.6,342.4 267.4,342.1 268.6,341.8 269.8,341.4 270.9,340.9 272.0,340.5 273.1,340.1 274.2,339.6 275.2,339.2 276.2,338.7 277.2,338.2 278.2,337.7 279.1,337.2 280.0,336.7 281.0,336.3 281.9,335.8 282.7,335.3 283.6,334.8 284.5,334.3 285.3,333.8 286.1,333.3 286.9,332.9 288.0,332.2 289.0,331.6 290.0,331.0 291.0,330.4 292.0,329.8 292.9,329.2 293.9,328.6 294.8,328.0 295.7,327.4 296.6,326.9 297.4,326.3 298.3,325.8 299.1,325.3 299.9,324.8 300.7,324.2 301.7,323.6 302.7,323.0 303.6,322.4 304.6,321.8 305.5,321.3 306.4,320.7 307.3,320.2 308.1,319.6 309.0,319.1 309.8,318.6 310.6,318.1 311.4,317.6 312.4,317.1 313.3,316.5 314.2,316.0 315.1,315.5 316.0,315.0 316.9,314.5 317.7,314.0 318.6,313.5 319.4,313.1 320.2,312.7 321.1,312.2 322.0,311.7 322.9,311.2 323.8,310.7 324.7,310.3 325.5,309.9 326.3,309.4 327.1,309.0 327.9,308.6 328.8,308.2 329.7,307.8 330.6,307.3 331.4,306.9 332.3,306.6 333.1,306.2 333.9,305.8 334.8,305.4 335.7,305.0 336.5,304.6 337.4,304.3 338.2,303.9 339.0,303.6 339.8,303.2 340.7,302.9 341.6,302.5 342.4,302.2 343.3,301.8 344.1,301.5 344.9,301.2 345.8,300.9 346.6,300.5 347.5,300.2 348.3,299.9 349.1,299.6 350.0,299.3 350.8,299.0 351.7,298.7 352.5,298.4 353.3,298.1 354.1,297.9 355.0,297.6 355.8,297.3 356.6,297.0 357.5,296.8 358.3,296.5 359.1,296.2 360.0,296.0 360.8,295.7 361.6,295.5 362.5,295.2 363.3,295.0 364.1,294.7 364.9,294.5 365.8,294.2 366.6,294.0 367.4,293.8 368.2,293.5 369.1,293.3 369.9,293.1 370.7,292.8 371.6,292.6 372.4,292.4 373.2,292.2 374.0,292.0 374.8,291.8 375.6,291.5 376.5,291.3 377.3,291.1 378.1,290.9 378.9,290.7 379.7,290.5 380.5,290.3 381.4,290.1 382.2,289.9 383.0,289.7 383.8,289.5 384.6,289.3 385.5,289.1 386.3,288.9 387.1,288.7 387.9,288.5 388.7,288.3 389.5,288.1 390.3,287.9 391.2,287.7 392.0,287.5 392.8,287.3 393.6,287.1 394.4,286.9 395.2,286.7 396.0,286.5 396.8,286.3 397.6,286.1 398.5,285.9" fill="none" stroke="#2ecc71" stroke-width="1.5" stroke-linejoin="round" clip-path="url(#pc257)"/>
  <line x1="435" y1="207" x2="435" y2="362" stroke="#d1d5db"/>
  <line x1="435" y1="284.5" x2="800" y2="284.5" stroke="#d1d5db"/>
  <text x="617.5" y="388" text-anchor="middle" font-size="9" fill="#6b7280">Samples</text>
  <text x="413" y="284.5" text-anchor="middle" font-size="9" fill="#6b7280" transform="rotate(-90 413 284.5)">Impulse response</text>
  <line x1="435.0" y1="207" x2="435.0" y2="362" stroke="#e5e7eb" stroke-width="0.5"/>
  <text x="435.0" y="374" text-anchor="middle" font-size="8" fill="#6b7280">0</text>
  <line x1="526.3" y1="207" x2="526.3" y2="362" stroke="#e5e7eb" stroke-width="0.5"/>
  <text x="526.3" y="374" text-anchor="middle" font-size="8" fill="#6b7280">32</text>
  <line x1="617.5" y1="207" x2="617.5" y2="362" stroke="#e5e7eb" stroke-width="0.5"/>
  <text x="617.5" y="374" text-anchor="middle" font-size="8" fill="#6b7280">64</text>
  <line x1="708.8" y1="207" x2="708.8" y2="362" stroke="#e5e7eb" stroke-width="0.5"/>
  <text x="708.8" y="374" text-anchor="middle" font-size="8" fill="#6b7280">96</text>
  <line x1="800.0" y1="207" x2="800.0" y2="362" stroke="#e5e7eb" stroke-width="0.5"/>
  <text x="800.0" y="374" text-anchor="middle" font-size="8" fill="#6b7280">128</text>
  <line x1="435" y1="337.0" x2="800" y2="337.0" stroke="#e5e7eb" stroke-width="0.5"/>
  <text x="431" y="340.0" text-anchor="end" font-size="8" fill="#6b7280">-0.09</text>
  <text x="431" y="287.5" text-anchor="end" font-size="8" fill="#6b7280">0</text>
  <line x1="435" y1="232.0" x2="800" y2="232.0" stroke="#e5e7eb" stroke-width="0.5"/>
  <text x="431" y="235.0" text-anchor="end" font-size="8" fill="#6b7280">0.09</text>
  <defs><linearGradient id="g258" x1="0" y1="207" x2="0" y2="284.5" gradientUnits="userSpaceOnUse">
    <stop offset="0%" stop-color="#f39c12" stop-opacity="0.15"/>
    <stop offset="100%" stop-color="#f39c12" stop-opacity="0.02"/>
  </linearGradient></defs>
  <path d="M435.0,207.0 435.0,207.0 437.9,217.3 440.7,226.2 443.6,234.0 446.4,240.7 449.3,246.5 452.1,251.5 455.0,255.9 457.8,259.7 460.7,263.0 463.5,265.9 466.4,268.3 469.2,270.5 472.1,272.3 474.9,274.0 477.8,275.4 480.6,276.6 483.5,277.6 486.3,278.5 489.2,279.3 492.0,280.0 494.9,280.6 497.7,281.1 500.6,281.6 503.4,282.0 506.3,282.3 509.1,282.6 512.0,282.8 514.8,283.1 517.7,283.3 520.5,283.4 523.4,283.6 526.3,283.7 529.1,283.8 532.0,283.9 534.8,284.0 537.7,284.0 540.5,284.1 543.4,284.2 546.2,284.2 549.1,284.2 551.9,284.3 554.8,284.3 557.6,284.3 560.5,284.4 563.3,284.4 566.2,284.4 569.0,284.4 571.9,284.4 574.7,284.4 577.6,284.4 580.4,284.4 583.3,284.5 586.1,284.5 589.0,284.5 591.8,284.5 594.7,284.5 597.5,284.5 600.4,284.5 603.2,284.5 606.1,284.5 608.9,284.5 611.8,284.5 614.6,284.5 617.5,284.5 620.4,284.5 623.2,284.5 626.1,284.5 628.9,284.5 631.8,284.5 634.6,284.5 637.5,284.5 640.3,284.5 643.2,284.5 646.0,284.5 648.9,284.5 651.7,284.5 654.6,284.5 657.4,284.5 660.3,284.5 663.1,284.5 666.0,284.5 668.8,284.5 671.7,284.5 674.5,284.5 677.4,284.5 680.2,284.5 683.1,284.5 685.9,284.5 688.8,284.5 691.6,284.5 694.5,284.5 697.3,284.5 700.2,284.5 703.0,284.5 705.9,284.5 708.8,284.5 711.6,284.5 714.5,284.5 717.3,284.5 720.2,284.5 723.0,284.5 725.9,284.5 728.7,284.5 731.6,284.5 734.4,284.5 737.3,284.5 740.1,284.5 743.0,284.5 745.8,284.5 748.7,284.5 751.5,284.5 754.4,284.5 757.2,284.5 760.1,284.5 762.9,284.5 765.8,284.5 768.6,284.5 771.5,284.5 774.3,284.5 777.2,284.5 780.0,284.5 782.9,284.5 785.7,284.5 788.6,284.5 791.4,284.5 794.3,284.5 797.1,284.5 L797.1,284.5 L435.0,284.5 Z" fill="url(#g258)"/>
  <defs><clipPath id="pc259"><rect x="435" y="207" width="365" height="155"/></clipPath></defs>
  <polyline points="435.0,207.0 437.9,217.3 440.7,226.2 443.6,234.0 446.4,240.7 449.3,246.5 452.1,251.5 455.0,255.9 457.8,259.7 460.7,263.0 463.5,265.9 466.4,268.3 469.2,270.5 472.1,272.3 474.9,274.0 477.8,275.4 480.6,276.6 483.5,277.6 486.3,278.5 489.2,279.3 492.0,280.0 494.9,280.6 497.7,281.1 500.6,281.6 503.4,282.0 506.3,282.3 509.1,282.6 512.0,282.8 514.8,283.1 517.7,283.3 520.5,283.4 523.4,283.6 526.3,283.7 529.1,283.8 532.0,283.9 534.8,284.0 537.7,284.0 540.5,284.1 543.4,284.2 546.2,284.2 549.1,284.2 551.9,284.3 554.8,284.3 557.6,284.3 560.5,284.4 563.3,284.4 566.2,284.4 569.0,284.4 571.9,284.4 574.7,284.4 577.6,284.4 580.4,284.4 583.3,284.5 586.1,284.5 589.0,284.5 591.8,284.5 594.7,284.5 597.5,284.5 600.4,284.5 603.2,284.5 606.1,284.5 608.9,284.5 611.8,284.5 614.6,284.5 617.5,284.5 620.4,284.5 623.2,284.5 626.1,284.5 628.9,284.5 631.8,284.5 634.6,284.5 637.5,284.5 640.3,284.5 643.2,284.5 646.0,284.5 648.9,284.5 651.7,284.5 654.6,284.5 657.4,284.5 660.3,284.5 663.1,284.5 666.0,284.5 668.8,284.5 671.7,284.5 674.5,284.5 677.4,284.5 680.2,284.5 683.1,284.5 685.9,284.5 688.8,284.5 691.6,284.5 694.5,284.5 697.3,284.5 700.2,284.5 703.0,284.5 705.9,284.5 708.8,284.5 711.6,284.5 714.5,284.5 717.3,284.5 720.2,284.5 723.0,284.5 725.9,284.5 728.7,284.5 731.6,284.5 734.4,284.5 737.3,284.5 740.1,284.5 743.0,284.5 745.8,284.5 748.7,284.5 751.5,284.5 754.4,284.5 757.2,284.5 760.1,284.5 762.9,284.5 765.8,284.5 768.6,284.5 771.5,284.5 774.3,284.5 777.2,284.5 780.0,284.5 782.9,284.5 785.7,284.5 788.6,284.5 791.4,284.5 794.3,284.5 797.1,284.5" fill="none" stroke="#f39c12" stroke-width="1.3" stroke-linejoin="round" clip-path="url(#pc259)"/>
</svg>
