<svg xmlns="http://www.w3.org/2000/svg" viewBox="0 0 820 378" style="font-family:system-ui,-apple-system,sans-serif">
  <text x="800" y="11" text-anchor="end" font-size="11" font-weight="600" fill="#6b7280">Pink noise filter, impulse</text>
  <line x1="34" y1="16" x2="34" y2="171" stroke="#d1d5db"/>
  <line x1="34" y1="47.0" x2="399" y2="47.0" stroke="#d1d5db"/>
  <text x="216.5" y="197" text-anchor="middle" font-size="9" fill="#6b7280">Hz</text>
  <text x="12" y="93.5" text-anchor="middle" font-size="9" fill="#6b7280" transform="rotate(-90 12 93.5)">dB</text>
  <line x1="67.3" y1="16" x2="67.3" y2="171" stroke="#e5e7eb" stroke-width="0.5"/>
  <line x1="86.8" y1="16" x2="86.8" y2="171" stroke="#e5e7eb" stroke-width="0.5"/>
  <line x1="100.6" y1="16" x2="100.6" y2="171" stroke="#e5e7eb" stroke-width="0.5"/>
  <line x1="111.3" y1="16" x2="111.3" y2="171" stroke="#e5e7eb" stroke-width="0.5"/>
  <line x1="120.0" y1="16" x2="120.0" y2="171" stroke="#e5e7eb" stroke-width="0.5"/>
  <line x1="127.4" y1="16" x2="127.4" y2="171" stroke="#e5e7eb" stroke-width="0.5"/>
  <line x1="133.9" y1="16" x2="133.9" y2="171" stroke="#e5e7eb" stroke-width="0.5"/>
  <line x1="139.5" y1="16" x2="139.5" y2="171" stroke="#e5e7eb" stroke-width="0.5"/>
  <line x1="177.9" y1="16" x2="177.9" y2="171" stroke="#e5e7eb" stroke-width="0.5"/>
  <line x1="197.3" y1="16" x2="197.3" y2="171" stroke="#e5e7eb" stroke-width="0.5"/>
  <line x1="211.1" y1="16" x2="211.1" y2="171" stroke="#e5e7eb" stroke-width="0.5"/>
  <line x1="221.9" y1="16" x2="221.9" y2="171" stroke="#e5e7eb" stroke-width="0.5"/>
  <line x1="230.6" y1="16" x2="230.6" y2="171" stroke="#e5e7eb" stroke-width="0.5"/>
  <line x1="238.0" y1="16" x2="238.0" y2="171" stroke="#e5e7eb" stroke-width="0.5"/>
  <line x1="244.4" y1="16" x2="244.4" y2="171" stroke="#e5e7eb" stroke-width="0.5"/>
  <line x1="250.1" y1="16" x2="250.1" y2="171" stroke="#e5e7eb" stroke-width="0.5"/>
  <line x1="288.4" y1="16" x2="288.4" y2="171" stroke="#e5e7eb" stroke-width="0.5"/>
  <line x1="307.9" y1="16" x2="307.9" y2="171" stroke="#e5e7eb" stroke-width="0.5"/>
  <line x1="321.7" y1="16" x2="321.7" y2="171" stroke="#e5e7eb" stroke-width="0.5"/>
  <line x1="332.4" y1="16" x2="332.4" y2="171" stroke="#e5e7eb" stroke-width="0.5"/>
  <line x1="341.2" y1="16" x2="341.2" y2="171" stroke="#e5e7eb" stroke-width="0.5"/>
  <line x1="348.6" y1="16" x2="348.6" y2="171" stroke="#e5e7eb" stroke-width="0.5"/>
  <line x1="355.0" y1="16" x2="355.0" y2="171" stroke="#e5e7eb" stroke-width="0.5"/>
  <line x1="360.7" y1="16" x2="360.7" y2="171" stroke="#e5e7eb" stroke-width="0.5"/>
  <line x1="399.0" y1="16" x2="399.0" y2="171" stroke="#e5e7eb" stroke-width="0.5"/>
  <line x1="144.6" y1="16" x2="144.6" y2="171" stroke="#e5e7eb" stroke-width="0.5"/>
  <text x="144.6" y="183" text-anchor="middle" font-size="8" fill="#6b7280">100</text>
  <line x1="255.1" y1="16" x2="255.1" y2="171" stroke="#e5e7eb" stroke-width="0.5"/>
  <text x="255.1" y="183" text-anchor="middle" font-size="8" fill="#6b7280">1k</text>
  <line x1="365.7" y1="16" x2="365.7" y2="171" stroke="#e5e7eb" stroke-width="0.5"/>
  <text x="365.7" y="183" text-anchor="middle" font-size="8" fill="#6b7280">10k</text>
  <line x1="34" y1="31.5" x2="399" y2="31.5" stroke="#e5e7eb" stroke-width="0.5"/>
  <line x1="34" y1="62.5" x2="399" y2="62.5" stroke="#e5e7eb" stroke-width="0.5"/>
  <line x1="34" y1="16.0" x2="399" y2="16.0" stroke="#e5e7eb" stroke-width="0.5"/>
  <text x="30" y="19.0" text-anchor="end" font-size="8" fill="#6b7280">+20</text>
  <text x="30" y="50.0" text-anchor="end" font-size="8" fill="#6b7280">0</text>
  <line x1="34" y1="78.0" x2="399" y2="78.0" stroke="#e5e7eb" stroke-width="0.5"/>
  <text x="30" y="81.0" text-anchor="end" font-size="8" fill="#6b7280">-20</text>
  <line x1="34" y1="109.0" x2="399" y2="109.0" stroke="#e5e7eb" stroke-width="0.5"/>
  <text x="30" y="112.0" text-anchor="end" font-size="8" fill="#6b7280">-40</text>
  <line x1="34" y1="140.0" x2="399" y2="140.0" stroke="#e5e7eb" stroke-width="0.5"/>
  <text x="30" y="143.0" text-anchor="end" font-size="8" fill="#6b7280">-60</text>
  <line x1="34" y1="171.0" x2="399" y2="171.0" stroke="#e5e7eb" stroke-width="0.5"/>
  <text x="30" y="174.0" text-anchor="end" font-size="8" fill="#6b7280">-80</text>
  <defs><linearGradient id="g713" x1="0" y1="16" x2="0" y2="171" gradientUnits="userSpaceOnUse">
    <stop offset="0%" stop-color="#4a90d9" stop-opacity="0.15"/>
    <stop offset="100%" stop-color="#4a90d9" stop-opacity="0.02"/>
  </linearGradient></defs>
  <path d="M37.5,16.0 37.5,16.0 70.8,16.0 90.3,16.0 104.1,16.0 114.8,16.0 123.6,16.0 131.0,16.0 137.4,16.0 143.1,16.0 148.1,16.0 152.7,16.0 156.9,16.0 160.7,16.0 164.3,16.6 167.6,16.7 170.7,16.4 173.6,16.0 176.3,16.0 178.9,16.0 181.4,16.0 183.7,16.0 186.0,16.0 188.1,16.0 190.2,16.0 192.1,16.3 194.0,17.3 195.8,18.3 197.6,19.4 199.2,20.2 200.9,20.7 202.4,20.7 204.0,20.4 205.5,19.9 206.9,19.4 208.3,19.0 209.6,18.6 210.9,18.5 212.2,18.6 213.5,18.8 214.7,19.3 215.9,19.9 217.0,20.7 218.2,21.5 219.3,22.2 220.3,22.8 221.4,23.2 222.4,23.2 223.4,22.9 224.4,22.5 225.4,22.0 226.4,21.6 227.3,21.3 228.2,21.2 229.1,21.2 230.0,21.4 230.8,21.7 231.7,22.3 232.5,22.9 233.4,23.5 234.2,24.2 235.7,24.9 237.3,24.7 238.7,23.9 240.2,23.2 241.6,23.0 242.9,23.5 244.2,24.5 245.5,25.6 246.8,26.2 248.0,26.0 249.2,25.3 250.3,24.7 251.4,24.5 252.6,24.9 253.6,25.8 254.7,26.8 255.7,27.4 256.7,27.2 257.7,26.5 258.7,25.9 259.6,25.8 260.6,26.1 261.5,26.9 262.4,27.8 263.3,28.3 264.1,28.2 265.0,27.6 265.8,27.0 266.6,26.8 267.4,27.1 268.6,28.3 269.8,29.2 270.9,28.8 272.0,27.9 273.1,27.8 274.2,28.7 275.2,29.8 276.2,29.8 277.2,29.0 278.2,28.6 279.1,29.1 280.0,30.2 281.0,30.6 281.9,30.0 282.7,29.3 283.6,29.6 284.5,30.5 285.3,31.3 286.1,30.9 286.9,30.2 288.0,30.2 289.0,31.5 290.0,31.7 291.0,30.8 292.0,30.8 292.9,32.0 293.9,32.2 294.8,31.3 295.7,31.3 296.6,32.5 297.4,32.7 298.3,31.8 299.1,31.8 299.9,32.9 300.7,33.2 301.7,32.2 302.7,32.8 303.6,33.7 304.6,32.7 305.5,32.9 306.4,34.1 307.3,33.3 308.1,33.1 309.0,34.3 309.8,33.9 310.6,33.4 311.4,34.5 312.4,34.3 313.3,33.9 314.2,35.1 315.1,34.2 316.0,34.6 316.9,35.3 317.7,34.4 318.6,35.4 319.4,35.3 320.2,34.8 321.1,36.0 322.0,35.0 322.9,36.2 323.8,35.5 324.7,36.0 325.5,36.1 326.3,35.9 327.1,36.7 327.9,35.9 328.8,37.0 329.7,36.1 330.6,37.3 331.4,36.4 332.3,37.5 333.1,36.6 333.9,37.7 334.8,36.9 335.7,37.8 336.5,37.5 337.4,37.6 338.2,38.1 339.0,37.6 339.8,38.5 340.7,37.8 341.6,38.4 342.4,38.6 343.3,38.1 344.1,39.1 344.9,38.6 345.8,38.5 346.6,39.4 347.5,39.2 348.3,38.8 349.1,39.6 350.0,39.8 350.8,39.3 351.7,39.4 352.5,40.1 353.3,40.3 354.1,39.9 355.0,39.8 355.8,40.1 356.6,40.7 357.5,40.9 358.3,40.8 359.1,40.6 360.0,40.5 360.8,40.6 361.6,40.8 362.5,41.1 363.3,41.4 364.1,41.6 364.9,41.7 365.8,41.9 366.6,42.0 367.4,42.1 368.2,42.1 369.1,42.0 369.9,42.0 370.7,42.0 371.6,42.2 372.4,42.6 373.2,43.0 374.0,43.2 374.8,43.0 375.6,42.8 376.5,43.0 377.3,43.6 378.1,43.6 378.9,43.2 379.7,43.7 380.5,44.1 381.4,43.6 382.2,44.2 383.0,44.2 383.8,44.0 384.6,44.7 385.5,44.2 386.3,44.9 387.1,44.4 387.9,45.0 388.7,44.8 389.5,44.9 390.3,45.5 391.2,45.0 392.0,45.2 392.8,45.8 393.6,45.6 394.4,45.3 395.2,45.6 396.0,46.1 396.8,46.4 397.6,46.4 398.5,46.4 L398.5,171.0 L37.5,171.0 Z" fill="url(#g713)"/>
  <defs><clipPath id="pc714"><rect x="34" y="16" width="365" height="155"/></clipPath></defs>
  <polyline points="37.5,1.0 70.8,1.3 90.3,1.7 104.1,2.4 114.8,3.2 123.6,4.2 131.0,5.5 137.4,6.9 143.1,8.6 148.1,10.4 152.7,12.3 156.9,14.2 160.7,15.7 164.3,16.6 167.6,16.7 170.7,16.4 173.6,15.7 176.3,15.1 178.9,14.6 181.4,14.3 183.7,14.2 186.0,14.4 188.1,14.8 190.2,15.4 192.1,16.3 194.0,17.3 195.8,18.3 197.6,19.4 199.2,20.2 200.9,20.7 202.4,20.7 204.0,20.4 205.5,19.9 206.9,19.4 208.3,19.0 209.6,18.6 210.9,18.5 212.2,18.6 213.5,18.8 214.7,19.3 215.9,19.9 217.0,20.7 218.2,21.5 219.3,22.2 220.3,22.8 221.4,23.2 222.4,23.2 223.4,22.9 224.4,22.5 225.4,22.0 226.4,21.6 227.3,21.3 228.2,21.2 229.1,21.2 230.0,21.4 230.8,21.7 231.7,22.3 232.5,22.9 233.4,23.5 234.2,24.2 235.7,24.9 237.3,24.7 238.7,23.9 240.2,23.2 241.6,23.0 242.9,23.5 244.2,24.5 245.5,25.6 246.8,26.2 248.0,26.0 249.2,25.3 250.3,24.7 251.4,24.5 252.6,24.9 253.6,25.8 254.7,26.8 255.7,27.4 256.7,27.2 257.7,26.5 258.7,25.9 259.6,25.8 260.6,26.1 261.5,26.9 262.4,27.8 263.3,28.3 264.1,28.2 265.0,27.6 265.8,27.0 266.6,26.8 267.4,27.1 268.6,28.3 269.8,29.2 270.9,28.8 272.0,27.9 273.1,27.8 274.2,28.7 275.2,29.8 276.2,29.8 277.2,29.0 278.2,28.6 279.1,29.1 280.0,30.2 281.0,30.6 281.9,30.0 282.7,29.3 283.6,29.6 284.5,30.5 285.3,31.3 286.1,30.9 286.9,30.2 288.0,30.2 289.0,31.5 290.0,31.7 291.0,30.8 292.0,30.8 292.9,32.0 293.9,32.2 294.8,31.3 295.7,31.3 296.6,32.5 297.4,32.7 298.3,31.8 299.1,31.8 299.9,32.9 300.7,33.2 301.7,32.2 302.7,32.8 303.6,33.7 304.6,32.7 305.5,32.9 306.4,34.1 307.3,33.3 308.1,33.1 309.0,34.3 309.8,33.9 310.6,33.4 311.4,34.5 312.4,34.3 313.3,33.9 314.2,35.1 315.1,34.2 316.0,34.6 316.9,35.3 317.7,34.4 318.6,35.4 319.4,35.3 320.2,34.8 321.1,36.0 322.0,35.0 322.9,36.2 323.8,35.5 324.7,36.0 325.5,36.1 326.3,35.9 327.1,36.7 327.9,35.9 328.8,37.0 329.7,36.1 330.6,37.3 331.4,36.4 332.3,37.5 333.1,36.6 333.9,37.7 334.8,36.9 335.7,37.8 336.5,37.5 337.4,37.6 338.2,38.1 339.0,37.6 339.8,38.5 340.7,37.8 341.6,38.4 342.4,38.6 343.3,38.1 344.1,39.1 344.9,38.6 345.8,38.5 346.6,39.4 347.5,39.2 348.3,38.8 349.1,39.6 350.0,39.8 350.8,39.3 351.7,39.4 352.5,40.1 353.3,40.3 354.1,39.9 355.0,39.8 355.8,40.1 356.6,40.7 357.5,40.9 358.3,40.8 359.1,40.6 360.0,40.5 360.8,40.6 361.6,40.8 362.5,41.1 363.3,41.4 364.1,41.6 364.9,41.7 365.8,41.9 366.6,42.0 367.4,42.1 368.2,42.1 369.1,42.0 369.9,42.0 370.7,42.0 371.6,42.2 372.4,42.6 373.2,43.0 374.0,43.2 374.8,43.0 375.6,42.8 376.5,43.0 377.3,43.6 378.1,43.6 378.9,43.2 379.7,43.7 380.5,44.1 381.4,43.6 382.2,44.2 383.0,44.2 383.8,44.0 384.6,44.7 385.5,44.2 386.3,44.9 387.1,44.4 387.9,45.0 388.7,44.8 389.5,44.9 390.3,45.5 391.2,45.0 392.0,45.2 392.8,45.8 393.6,45.6 394.4,45.3 395.2,45.6 396.0,46.1 396.8,46.4 397.6,46.4 398.5,46.4" fill="none" stroke="#4a90d9" stroke-width="1.5" stroke-linejoin="round" clip-path="url(#pc714)"/>
  <line x1="435" y1="16" x2="435" y2="171" stroke="#d1d5db"/>
  <line x1="435" y1="93.5" x2="800" y2="93.5" stroke="#d1d5db"/>
  <text x="617.5" y="197" text-anchor="middle" font-size="9" fill="#6b7280">Hz</text>
  <text x="413" y="93.5" text-anchor="middle" font-size="9" fill="#6b7280" transform="rotate(-90 413 93.5)">Phase (deg)</text>
  <line x1="468.3" y1="16" x2="468.3" y2="171" stroke="#e5e7eb" stroke-width="0.5"/>
  <line x1="487.8" y1="16" x2="487.8" y2="171" stroke="#e5e7eb" stroke-width="0.5"/>
  <line x1="501.6" y1="16" x2="501.6" y2="171" stroke="#e5e7eb" stroke-width="0.5"/>
  <line x1="512.3" y1="16" x2="512.3" y2="171" stroke="#e5e7eb" stroke-width="0.5"/>
  <line x1="521.0" y1="16" x2="521.0" y2="171" stroke="#e5e7eb" stroke-width="0.5"/>
  <line x1="528.4" y1="16" x2="528.4" y2="171" stroke="#e5e7eb" stroke-width="0.5"/>
  <line x1="534.9" y1="16" x2="534.9" y2="171" stroke="#e5e7eb" stroke-width="0.5"/>
  <line x1="540.5" y1="16" x2="540.5" y2="171" stroke="#e5e7eb" stroke-width="0.5"/>
  <line x1="578.9" y1="16" x2="578.9" y2="171" stroke="#e5e7eb" stroke-width="0.5"/>
  <line x1="598.3" y1="16" x2="598.3" y2="171" stroke="#e5e7eb" stroke-width="0.5"/>
  <line x1="612.1" y1="16" x2="612.1" y2="171" stroke="#e5e7eb" stroke-width="0.5"/>
  <line x1="622.9" y1="16" x2="622.9" y2="171" stroke="#e5e7eb" stroke-width="0.5"/>
  <line x1="631.6" y1="16" x2="631.6" y2="171" stroke="#e5e7eb" stroke-width="0.5"/>
  <line x1="639.0" y1="16" x2="639.0" y2="171" stroke="#e5e7eb" stroke-width="0.5"/>
  <line x1="645.4" y1="16" x2="645.4" y2="171" stroke="#e5e7eb" stroke-width="0.5"/>
  <line x1="651.1" y1="16" x2="651.1" y2="171" stroke="#e5e7eb" stroke-width="0.5"/>
  <line x1="689.4" y1="16" x2="689.4" y2="171" stroke="#e5e7eb" stroke-width="0.5"/>
  <line x1="708.9" y1="16" x2="708.9" y2="171" stroke="#e5e7eb" stroke-width="0.5"/>
  <line x1="722.7" y1="16" x2="722.7" y2="171" stroke="#e5e7eb" stroke-width="0.5"/>
  <line x1="733.4" y1="16" x2="733.4" y2="171" stroke="#e5e7eb" stroke-width="0.5"/>
  <line x1="742.2" y1="16" x2="742.2" y2="171" stroke="#e5e7eb" stroke-width="0.5"/>
  <line x1="749.6" y1="16" x2="749.6" y2="171" stroke="#e5e7eb" stroke-width="0.5"/>
  <line x1="756.0" y1="16" x2="756.0" y2="171" stroke="#e5e7eb" stroke-width="0.5"/>
  <line x1="761.7" y1="16" x2="761.7" y2="171" stroke="#e5e7eb" stroke-width="0.5"/>
  <line x1="800.0" y1="16" x2="800.0" y2="171" stroke="#e5e7eb" stroke-width="0.5"/>
  <line x1="545.6" y1="16" x2="545.6" y2="171" stroke="#e5e7eb" stroke-width="0.5"/>
  <text x="545.6" y="183" text-anchor="middle" font-size="8" fill="#6b7280">100</text>
  <line x1="656.1" y1="16" x2="656.1" y2="171" stroke="#e5e7eb" stroke-width="0.5"/>
  <text x="656.1" y="183" text-anchor="middle" font-size="8" fill="#6b7280">1k</text>
  <line x1="766.7" y1="16" x2="766.7" y2="171" stroke="#e5e7eb" stroke-width="0.5"/>
  <text x="766.7" y="183" text-anchor="middle" font-size="8" fill="#6b7280">10k</text>
  <line x1="435" y1="58.6" x2="800" y2="58.6" stroke="#e5e7eb" stroke-width="0.5"/>
  <line x1="435" y1="128.4" x2="800" y2="128.4" stroke="#e5e7eb" stroke-width="0.5"/>
  <line x1="435" y1="23.8" x2="800" y2="23.8" stroke="#e5e7eb" stroke-width="0.5"/>
  <text x="431" y="26.8" text-anchor="end" font-size="8" fill="#6b7280">180</text>
  <text x="431" y="96.5" text-anchor="end" font-size="8" fill="#6b7280">0</text>
  <line x1="435" y1="163.3" x2="800" y2="163.3" stroke="#e5e7eb" stroke-width="0.5"/>
  <text x="431" y="166.3" text-anchor="end" font-size="8" fill="#6b7280">-180</text>
  <defs><linearGradient id="g715" x1="0" y1="171" x2="0" y2="93.5" gradientUnits="userSpaceOnUse">
    <stop offset="0%" stop-color="#e74c3c" stop-opacity="0.15"/>
    <stop offset="100%" stop-color="#e74c3c" stop-opacity="0.02"/>
  </linearGradient></defs>
  <path d="M438.5,96.3 438.5,96.3 471.8,99.1 491.3,101.8 505.1,104.4 515.8,107.0 524.6,109.3 532.0,111.5 538.4,113.3 544.1,114.7 549.1,115.6 553.7,115.7 557.9,115.0 561.7,113.3 565.3,111.1 568.6,108.9 571.7,107.3 574.6,106.5 577.3,106.5 579.9,107.0 582.4,108.0 584.7,109.1 587.0,110.4 589.1,111.6 591.2,112.7 593.1,113.6 595.0,114.0 596.8,114.0 598.6,113.4 600.2,112.4 601.9,110.9 603.4,109.5 605.0,108.4 606.5,107.8 607.9,107.7 609.3,108.0 610.6,108.6 611.9,109.5 613.2,110.5 614.5,111.5 615.7,112.3 616.9,113.0 618.0,113.3 619.2,113.2 620.3,112.7 621.3,111.8 622.4,110.7 623.4,109.6 624.4,108.7 625.4,108.1 626.4,108.0 627.4,108.3 628.3,108.8 629.2,109.5 630.1,110.4 631.0,111.2 631.8,111.9 632.7,112.5 633.5,112.7 634.4,112.7 635.2,112.2 636.7,110.5 638.3,108.8 639.7,108.2 641.2,108.9 642.6,110.3 643.9,111.7 645.2,112.4 646.5,111.9 647.8,110.5 649.0,108.9 650.2,108.4 651.3,109.0 652.4,110.2 653.6,111.5 654.6,112.1 655.7,111.8 656.7,110.4 657.7,109.0 658.7,108.5 659.7,109.0 660.6,110.2 661.6,111.3 662.5,111.9 663.4,111.6 664.3,110.4 665.1,109.1 666.0,108.6 666.8,109.0 667.6,110.1 668.4,111.2 669.6,111.7 670.8,110.3 671.9,108.7 673.0,109.0 674.1,110.6 675.2,111.6 676.2,110.8 677.2,109.1 678.2,108.7 679.2,109.9 680.1,111.2 681.0,111.1 682.0,109.5 682.9,108.5 683.7,109.3 684.6,110.7 685.5,111.2 686.3,110.0 687.1,108.6 687.9,108.8 689.0,110.6 690.0,110.8 691.0,108.9 692.0,108.7 693.0,110.4 693.9,110.6 694.9,108.8 695.8,108.7 696.7,110.3 697.6,110.5 698.4,108.7 699.3,108.6 700.1,110.1 700.9,110.3 701.7,108.6 702.7,108.8 703.7,110.4 704.6,109.0 705.6,108.4 706.5,110.1 707.4,109.3 708.3,108.1 709.1,109.7 710.0,109.6 710.8,108.0 711.6,109.2 712.4,109.8 713.4,107.9 714.3,109.5 715.2,109.0 716.1,108.0 717.0,109.7 717.9,108.1 718.7,108.5 719.6,109.4 720.4,107.7 721.2,109.1 722.1,108.3 723.0,108.3 723.9,109.0 724.8,107.7 725.7,109.2 726.5,107.4 727.3,109.0 728.1,107.7 728.9,108.3 729.8,108.0 730.7,108.2 731.6,107.9 732.4,108.1 733.3,107.8 734.1,108.0 734.9,107.7 735.8,108.2 736.7,107.0 737.5,108.4 738.4,106.8 739.2,108.2 740.0,107.0 740.8,107.6 741.7,107.7 742.6,106.5 743.4,107.9 744.3,106.9 745.1,106.7 745.9,107.7 746.8,106.5 747.6,106.5 748.5,107.5 749.3,106.5 750.1,106.1 751.0,107.0 751.8,107.0 752.7,105.9 753.5,105.8 754.3,106.7 755.1,106.8 756.0,106.1 756.8,105.3 757.6,105.3 758.5,106.0 759.3,106.3 760.1,106.2 761.0,105.7 761.8,105.1 762.6,104.8 763.5,104.6 764.3,104.4 765.1,104.3 765.9,104.2 766.8,104.1 767.6,104.0 768.4,103.9 769.2,103.7 770.1,103.6 770.9,103.6 771.7,103.9 772.6,104.2 773.4,104.3 774.2,104.1 775.0,103.3 775.8,102.7 776.6,102.9 777.5,103.5 778.3,103.1 779.1,102.2 779.9,102.4 780.7,102.9 781.5,101.8 782.4,101.9 783.2,102.3 784.0,101.1 784.8,101.9 785.6,100.9 786.5,101.3 787.3,100.5 788.1,100.9 788.9,99.9 789.7,100.7 790.5,99.4 791.3,99.8 792.2,99.8 793.0,98.6 793.8,98.8 794.6,99.2 795.4,98.3 796.2,97.5 797.0,97.3 797.8,97.4 798.6,97.5 799.5,97.3 L799.5,93.5 L438.5,93.5 Z" fill="url(#g715)"/>
  <defs><clipPath id="pc716"><rect x="435" y="16" width="365" height="155"/></clipPath></defs>
  <polyline points="438.5,96.3 471.8,99.1 491.3,101.8 505.1,104.4 515.8,107.0 524.6,109.3 532.0,111.5 538.4,113.3 544.1,114.7 549.1,115.6 553.7,115.7 557.9,115.0 561.7,113.3 565.3,111.1 568.6,108.9 571.7,107.3 574.6,106.5 577.3,106.5 579.9,107.0 582.4,108.0 584.7,109.1 587.0,110.4 589.1,111.6 591.2,112.7 593.1,113.6 595.0,114.0 596.8,114.0 598.6,113.4 600.2,112.4 601.9,110.9 603.4,109.5 605.0,108.4 606.5,107.8 607.9,107.7 609.3,108.0 610.6,108.6 611.9,109.5 613.2,110.5 614.5,111.5 615.7,112.3 616.9,113.0 618.0,113.3 619.2,113.2 620.3,112.7 621.3,111.8 622.4,110.7 623.4,109.6 624.4,108.7 625.4,108.1 626.4,108.0 627.4,108.3 628.3,108.8 629.2,109.5 630.1,110.4 631.0,111.2 631.8,111.9 632.7,112.5 633.5,112.7 634.4,112.7 635.2,112.2 636.7,110.5 638.3,108.8 639.7,108.2 641.2,108.9 642.6,110.3 643.9,111.7 645.2,112.4 646.5,111.9 647.8,110.5 649.0,108.9 650.2,108.4 651.3,109.0 652.4,110.2 653.6,111.5 654.6,112.1 655.7,111.8 656.7,110.4 657.7,109.0 658.7,108.5 659.7,109.0 660.6,110.2 661.6,111.3 662.5,111.9 663.4,111.6 664.3,110.4 665.1,109.1 666.0,108.6 666.8,109.0 667.6,110.1 668.4,111.2 669.6,111.7 670.8,110.3 671.9,108.7 673.0,109.0 674.1,110.6 675.2,111.6 676.2,110.8 677.2,109.1 678.2,108.7 679.2,109.9 680.1,111.2 681.0,111.1 682.0,109.5 682.9,108.5 683.7,109.3 684.6,110.7 685.5,111.2 686.3,110.0 687.1,108.6 687.9,108.8 689.0,110.6 690.0,110.8 691.0,108.9 692.0,108.7 693.0,110.4 693.9,110.6 694.9,108.8 695.8,108.7 696.7,110.3 697.6,110.5 698.4,108.7 699.3,108.6 700.1,110.1 700.9,110.3 701.7,108.6 702.7,108.8 703.7,110.4 704.6,109.0 705.6,108.4 706.5,110.1 707.4,109.3 708.3,108.1 709.1,109.7 710.0,109.6 710.8,108.0 711.6,109.2 712.4,109.8 713.4,107.9 714.3,109.5 715.2,109.0 716.1,108.0 717.0,109.7 717.9,108.1 718.7,108.5 719.6,109.4 720.4,107.7 721.2,109.1 722.1,108.3 723.0,108.3 723.9,109.0 724.8,107.7 725.7,109.2 726.5,107.4 727.3,109.0 728.1,107.7 728.9,108.3 729.8,108.0 730.7,108.2 731.6,107.9 732.4,108.1 733.3,107.8 734.1,108.0 734.9,107.7 735.8,108.2 736.7,107.0 737.5,108.4 738.4,106.8 739.2,108.2 740.0,107.0 740.8,107.6 741.7,107.7 742.6,106.5 743.4,107.9 744.3,106.9 745.1,106.7 745.9,107.7 746.8,106.5 747.6,106.5 748.5,107.5 749.3,106.5 750.1,106.1 751.0,107.0 751.8,107.0 752.7,105.9 753.5,105.8 754.3,106.7 755.1,106.8 756.0,106.1 756.8,105.3 757.6,105.3 758.5,106.0 759.3,106.3 760.1,106.2 761.0,105.7 761.8,105.1 762.6,104.8 763.5,104.6 764.3,104.4 765.1,104.3 765.9,104.2 766.8,104.1 767.6,104.0 768.4,103.9 769.2,103.7 770.1,103.6 770.9,103.6 771.7,103.9 772.6,104.2 773.4,104.3 774.2,104.1 775.0,103.3 775.8,102.7 776.6,102.9 777.5,103.5 778.3,103.1 779.1,102.2 779.9,102.4 780.7,102.9 781.5,101.8 782.4,101.9 783.2,102.3 784.0,101.1 784.8,101.9 785.6,100.9 786.5,101.3 787.3,100.5 788.1,100.9 788.9,99.9 789.7,100.7 790.5,99.4 791.3,99.8 792.2,99.8 793.0,98.6 793.8,98.8 794.6,99.2 795.4,98.3 796.2,97.5 797.0,97.3 797.8,97.4 798.6,97.5 799.5,97.3" fill="none" stroke="#e74c3c" stroke-width="1.5" stroke-linejoin="round" clip-path="url(#pc716)"/>
  <line x1="34" y1="207" x2="34" y2="362" stroke="#d1d5db"/>
  <line x1="34" y1="284.5" x2="399" y2="284.5" stroke="#d1d5db"/>
  <text x="216.5" y="388" text-anchor="middle" font-size="9" fill="#6b7280">Hz</text>
  <text x="12" y="284.5" text-anchor="middle" font-size="9" fill="#6b7280" transform="rotate(-90 12 284.5)">Group delay</text>
  <line x1="67.3" y1="207" x2="67.3" y2="362" stroke="#e5e7eb" stroke-width="0.5"/>
  <line x1="86.8" y1="207" x2="86.8" y2="362" stroke="#e5e7eb" stroke-width="0.5"/>
  <line x1="100.6" y1="207" x2="100.6" y2="362" stroke="#e5e7eb" stroke-width="0.5"/>
  <line x1="111.3" y1="207" x2="111.3" y2="362" stroke="#e5e7eb" stroke-width="0.5"/>
  <line x1="120.0" y1="207" x2="120.0" y2="362" stroke="#e5e7eb" stroke-width="0.5"/>
  <line x1="127.4" y1="207" x2="127.4" y2="362" stroke="#e5e7eb" stroke-width="0.5"/>
  <line x1="133.9" y1="207" x2="133.9" y2="362" stroke="#e5e7eb" stroke-width="0.5"/>
  <line x1="139.5" y1="207" x2="139.5" y2="362" stroke="#e5e7eb" stroke-width="0.5"/>
  <line x1="177.9" y1="207" x2="177.9" y2="362" stroke="#e5e7eb" stroke-width="0.5"/>
  <line x1="197.3" y1="207" x2="197.3" y2="362" stroke="#e5e7eb" stroke-width="0.5"/>
  <line x1="211.1" y1="207" x2="211.1" y2="362" stroke="#e5e7eb" stroke-width="0.5"/>
  <line x1="221.9" y1="207" x2="221.9" y2="362" stroke="#e5e7eb" stroke-width="0.5"/>
  <line x1="230.6" y1="207" x2="230.6" y2="362" stroke="#e5e7eb" stroke-width="0.5"/>
  <line x1="238.0" y1="207" x2="238.0" y2="362" stroke="#e5e7eb" stroke-width="0.5"/>
  <line x1="244.4" y1="207" x2="244.4" y2="362" stroke="#e5e7eb" stroke-width="0.5"/>
  <line x1="250.1" y1="207" x2="250.1" y2="362" stroke="#e5e7eb" stroke-width="0.5"/>
  <line x1="288.4" y1="207" x2="288.4" y2="362" stroke="#e5e7eb" stroke-width="0.5"/>
  <line x1="307.9" y1="207" x2="307.9" y2="362" stroke="#e5e7eb" stroke-width="0.5"/>
  <line x1="321.7" y1="207" x2="321.7" y2="362" stroke="#e5e7eb" stroke-width="0.5"/>
  <line x1="332.4" y1="207" x2="332.4" y2="362" stroke="#e5e7eb" stroke-width="0.5"/>
  <line x1="341.2" y1="207" x2="341.2" y2="362" stroke="#e5e7eb" stroke-width="0.5"/>
  <line x1="348.6" y1="207" x2="348.6" y2="362" stroke="#e5e7eb" stroke-width="0.5"/>
  <line x1="355.0" y1="207" x2="355.0" y2="362" stroke="#e5e7eb" stroke-width="0.5"/>
  <line x1="360.7" y1="207" x2="360.7" y2="362" stroke="#e5e7eb" stroke-width="0.5"/>
  <line x1="399.0" y1="207" x2="399.0" y2="362" stroke="#e5e7eb" stroke-width="0.5"/>
  <line x1="144.6" y1="207" x2="144.6" y2="362" stroke="#e5e7eb" stroke-width="0.5"/>
  <text x="144.6" y="374" text-anchor="middle" font-size="8" fill="#6b7280">100</text>
  <line x1="255.1" y1="207" x2="255.1" y2="362" stroke="#e5e7eb" stroke-width="0.5"/>
  <text x="255.1" y="374" text-anchor="middle" font-size="8" fill="#6b7280">1k</text>
  <line x1="365.7" y1="207" x2="365.7" y2="362" stroke="#e5e7eb" stroke-width="0.5"/>
  <text x="365.7" y="374" text-anchor="middle" font-size="8" fill="#6b7280">10k</text>
  <line x1="34" y1="328.3" x2="399" y2="328.3" stroke="#e5e7eb" stroke-width="0.5"/>
  <text x="30" y="331.3" text-anchor="end" font-size="8" fill="#6b7280">-60</text>
  <text x="30" y="287.5" text-anchor="end" font-size="8" fill="#6b7280">0</text>
  <line x1="34" y1="240.7" x2="399" y2="240.7" stroke="#e5e7eb" stroke-width="0.5"/>
  <text x="30" y="243.7" text-anchor="end" font-size="8" fill="#6b7280">60</text>
  <defs><linearGradient id="g717" x1="0" y1="207" x2="0" y2="284.5" gradientUnits="userSpaceOnUse">
    <stop offset="0%" stop-color="#2ecc71" stop-opacity="0.15"/>
    <stop offset="100%" stop-color="#2ecc71" stop-opacity="0.02"/>
  </linearGradient></defs>
  <defs><linearGradient id="g718" x1="0" y1="362" x2="0" y2="284.5" gradientUnits="userSpaceOnUse">
    <stop offset="0%" stop-color="#2ecc71" stop-opacity="0.15"/>
    <stop offset="100%" stop-color="#2ecc71" stop-opacity="0.02"/>
  </linearGradient></defs>
  <defs><clipPath id="c719"><rect x="34" y="207" width="365" height="77.5"/></clipPath></defs>
  <defs><clipPath id="c720"><rect x="34" y="284.5" width="365" height="77.5"/></clipPath></defs>
  <path d="M37.5,224.9 37.5,224.9 70.8,225.7 90.3,227.1 104.1,229.2 114.8,232.2 123.6,236.3 131.0,241.9 137.4,249.6 143.1,260.0 148.1,273.7 152.7,291.0 156.9,310.0 160.7,325.8 164.3,331.8 167.6,325.3 170.7,310.3 173.6,293.4 176.3,279.1 178.9,268.6 181.4,261.9 183.7,258.4 186.0,257.7 188.1,259.5 190.2,263.7 192.1,270.5 194.0,279.8 195.8,290.9 197.6,302.3 199.2,311.3 200.9,314.8 202.4,311.7 204.0,303.2 205.5,292.5 206.9,282.2 208.3,273.9 209.6,268.1 210.9,264.7 212.2,263.7 213.5,265.0 214.7,268.5 215.9,274.1 217.0,281.7 218.2,290.5 219.3,299.3 220.3,306.0 221.4,308.6 222.4,306.3 223.4,299.9 224.4,291.6 225.4,283.2 226.4,276.1 227.3,270.9 228.2,267.8 229.1,266.8 230.0,267.8 230.8,270.9 231.7,275.8 232.5,282.3 233.4,289.8 234.2,297.1 235.7,304.8 237.3,297.8 238.7,283.6 240.2,272.6 241.6,268.8 242.9,272.4 244.2,282.6 245.5,295.6 246.8,302.3 248.0,296.5 249.2,283.9 250.3,273.9 251.4,270.2 252.6,273.4 253.6,282.7 254.7,294.5 255.7,300.6 256.7,295.5 257.7,284.2 258.7,274.9 259.6,271.3 260.6,274.2 261.5,282.8 262.4,293.6 263.3,299.3 264.1,294.8 265.0,284.5 265.8,275.7 266.6,272.2 267.4,274.9 268.6,288.1 269.8,298.3 270.9,289.7 272.0,276.3 273.1,273.4 274.2,283.0 275.2,296.0 276.2,293.9 277.2,280.4 278.2,273.5 279.1,279.0 280.0,292.0 281.0,296.1 281.9,284.9 282.7,275.0 283.6,276.2 284.5,287.5 285.3,296.2 286.1,289.3 286.9,277.6 288.0,276.6 289.0,291.3 290.0,292.8 291.0,278.0 292.0,276.8 292.9,291.0 293.9,292.6 294.8,278.3 295.7,277.1 296.6,290.7 297.4,292.3 298.3,278.5 299.1,277.3 299.9,290.4 300.7,292.1 301.7,276.8 302.7,283.1 303.6,293.8 304.6,279.0 305.5,280.0 306.4,293.8 307.3,282.0 308.1,277.8 309.0,292.3 309.8,285.5 310.6,276.7 311.4,289.6 312.4,285.5 313.3,278.1 314.2,293.1 315.1,279.8 316.0,283.1 316.9,291.2 317.7,277.1 318.6,289.1 319.4,285.6 320.2,278.4 321.1,292.4 322.0,277.5 322.9,291.0 323.8,280.3 324.7,285.9 325.5,285.8 326.3,280.5 327.1,290.7 327.9,277.9 328.8,291.8 329.7,278.0 330.6,291.7 331.4,278.1 332.3,291.6 333.1,278.2 333.9,291.5 334.8,279.1 335.7,288.5 336.5,282.9 337.4,283.5 338.2,287.8 339.0,279.6 339.8,291.0 340.7,279.3 341.6,286.1 342.4,287.6 343.3,278.9 344.1,290.1 344.9,282.8 345.8,280.0 346.6,290.0 347.5,285.0 348.3,279.1 349.1,288.4 350.0,289.1 350.8,280.8 351.7,280.3 352.5,288.4 353.3,288.9 354.1,282.6 355.0,279.2 355.8,282.2 356.6,288.4 357.5,289.9 358.3,286.7 359.1,282.5 360.0,279.8 360.8,279.8 361.6,280.9 362.5,282.6 363.3,284.6 364.1,286.7 364.9,286.7 365.8,286.7 366.6,286.8 367.4,286.8 368.2,284.8 369.1,283.0 369.9,281.4 370.7,279.8 371.6,280.9 372.4,284.0 373.2,287.7 374.0,289.5 374.8,285.2 375.6,280.5 376.5,282.1 377.3,288.9 378.1,287.1 378.9,280.0 379.7,285.6 380.5,288.7 381.4,280.1 382.2,287.3 383.0,285.6 383.8,281.9 384.6,288.7 385.5,280.7 386.3,288.8 387.1,280.7 387.9,287.5 388.7,283.3 389.5,282.4 390.3,289.3 391.2,281.7 392.0,282.5 392.8,289.5 393.6,284.9 394.4,280.1 395.2,282.6 396.0,287.9 396.8,289.6 397.6,288.2 398.5,286.6 L398.5,284.5 L37.5,284.5 Z" fill="url(#g717)" clip-path="url(#c719)"/>
  <path d="M37.5,224.9 37.5,224.9 70.8,225.7 90.3,227.1 104.1,229.2 114.8,232.2 123.6,236.3 131.0,241.9 137.4,249.6 143.1,260.0 148.1,273.7 152.7,291.0 156.9,310.0 160.7,325.8 164.3,331.8 167.6,325.3 170.7,310.3 173.6,293.4 176.3,279.1 178.9,268.6 181.4,261.9 183.7,258.4 186.0,257.7 188.1,259.5 190.2,263.7 192.1,270.5 194.0,279.8 195.8,290.9 197.6,302.3 199.2,311.3 200.9,314.8 202.4,311.7 204.0,303.2 205.5,292.5 206.9,282.2 208.3,273.9 209.6,268.1 210.9,264.7 212.2,263.7 213.5,265.0 214.7,268.5 215.9,274.1 217.0,281.7 218.2,290.5 219.3,299.3 220.3,306.0 221.4,308.6 222.4,306.3 223.4,299.9 224.4,291.6 225.4,283.2 226.4,276.1 227.3,270.9 228.2,267.8 229.1,266.8 230.0,267.8 230.8,270.9 231.7,275.8 232.5,282.3 233.4,289.8 234.2,297.1 235.7,304.8 237.3,297.8 238.7,283.6 240.2,272.6 241.6,268.8 242.9,272.4 244.2,282.6 245.5,295.6 246.8,302.3 248.0,296.5 249.2,283.9 250.3,273.9 251.4,270.2 252.6,273.4 253.6,282.7 254.7,294.5 255.7,300.6 256.7,295.5 257.7,284.2 258.7,274.9 259.6,271.3 260.6,274.2 261.5,282.8 262.4,293.6 263.3,299.3 264.1,294.8 265.0,284.5 265.8,275.7 266.6,272.2 267.4,274.9 268.6,288.1 269.8,298.3 270.9,289.7 272.0,276.3 273.1,273.4 274.2,283.0 275.2,296.0 276.2,293.9 277.2,280.4 278.2,273.5 279.1,279.0 280.0,292.0 281.0,296.1 281.9,284.9 282.7,275.0 283.6,276.2 284.5,287.5 285.3,296.2 286.1,289.3 286.9,277.6 288.0,276.6 289.0,291.3 290.0,292.8 291.0,278.0 292.0,276.8 292.9,291.0 293.9,292.6 294.8,278.3 295.7,277.1 296.6,290.7 297.4,292.3 298.3,278.5 299.1,277.3 299.9,290.4 300.7,292.1 301.7,276.8 302.7,283.1 303.6,293.8 304.6,279.0 305.5,280.0 306.4,293.8 307.3,282.0 308.1,277.8 309.0,292.3 309.8,285.5 310.6,276.7 311.4,289.6 312.4,285.5 313.3,278.1 314.2,293.1 315.1,279.8 316.0,283.1 316.9,291.2 317.7,277.1 318.6,289.1 319.4,285.6 320.2,278.4 321.1,292.4 322.0,277.5 322.9,291.0 323.8,280.3 324.7,285.9 325.5,285.8 326.3,280.5 327.1,290.7 327.9,277.9 328.8,291.8 329.7,278.0 330.6,291.7 331.4,278.1 332.3,291.6 333.1,278.2 333.9,291.5 334.8,279.1 335.7,288.5 336.5,282.9 337.4,283.5 338.2,287.8 339.0,279.6 339.8,291.0 340.7,279.3 341.6,286.1 342.4,287.6 343.3,278.9 344.1,290.1 344.9,282.8 345.8,280.0 346.6,290.0 347.5,285.0 348.3,279.1 349.1,288.4 350.0,289.1 350.8,280.8 351.7,280.3 352.5,288.4 353.3,288.9 354.1,282.6 355.0,279.2 355.8,282.2 356.6,288.4 357.5,289.9 358.3,286.7 359.1,282.5 360.0,279.8 360.8,279.8 361.6,280.9 362.5,282.6 363.3,284.6 364.1,286.7 364.9,286.7 365.8,286.7 366.6,286.8 367.4,286.8 368.2,284.8 369.1,283.0 369.9,281.4 370.7,279.8 371.6,280.9 372.4,284.0 373.2,287.7 374.0,289.5 374.8,285.2 375.6,280.5 376.5,282.1 377.3,288.9 378.1,287.1 378.9,280.0 379.7,285.6 380.5,288.7 381.4,280.1 382.2,287.3 383.0,285.6 383.8,281.9 384.6,288.7 385.5,280.7 386.3,288.8 387.1,280.7 387.9,287.5 388.7,283.3 389.5,282.4 390.3,289.3 391.2,281.7 392.0,282.5 392.8,289.5 393.6,284.9 394.4,280.1 395.2,282.6 396.0,287.9 396.8,289.6 397.6,288.2 398.5,286.6 L398.5,284.5 L37.5,284.5 Z" fill="url(#g718)" clip-path="url(#c720)"/>
  <defs><clipPath id="pc721"><rect x="34" y="207" width="365" height="155"/></clipPath></defs>
  <polyline points="37.5,224.9 70.8,225.7 90.3,227.1 104.1,229.2 114.8,232.2 123.6,236.3 131.0,241.9 137.4,249.6 143.1,260.0 148.1,273.7 152.7,291.0 156.9,310.0 160.7,325.8 164.3,331.8 167.6,325.3 170.7,310.3 173.6,293.4 176.3,279.1 178.9,268.6 181.4,261.9 183.7,258.4 186.0,257.7 188.1,259.5 190.2,263.7 192.1,270.5 194.0,279.8 195.8,290.9 197.6,302.3 199.2,311.3 200.9,314.8 202.4,311.7 204.0,303.2 205.5,292.5 206.9,282.2 208.3,273.9 209.6,268.1 210.9,264.7 212.2,263.7 213.5,265.0 214.7,268.5 215.9,274.1 217.0,281.7 218.2,290.5 219.3,299.3 220.3,306.0 221.4,308.6 222.4,306.3 223.4,299.9 224.4,291.6 225.4,283.2 226.4,276.1 227.3,270.9 228.2,267.8 229.1,266.8 230.0,267.8 230.8,270.9 231.7,275.8 232.5,282.3 233.4,289.8 234.2,297.1 235.7,304.8 237.3,297.8 238.7,283.6 240.2,272.6 241.6,268.8 242.9,272.4 244.2,282.6 245.5,295.6 246.8,302.3 248.0,296.5 249.2,283.9 250.3,273.9 251.4,270.2 252.6,273.4 253.6,282.7 254.7,294.5 255.7,300.6 256.7,295.5 257.7,284.2 258.7,274.9 259.6,271.3 260.6,274.2 261.5,282.8 262.4,293.6 263.3,299.3 264.1,294.8 265.0,284.5 265.8,275.7 266.6,272.2 267.4,274.9 268.6,288.1 269.8,298.3 270.9,289.7 272.0,276.3 273.1,273.4 274.2,283.0 275.2,296.0 276.2,293.9 277.2,280.4 278.2,273.5 279.1,279.0 280.0,292.0 281.0,296.1 281.9,284.9 282.7,275.0 283.6,276.2 284.5,287.5 285.3,296.2 286.1,289.3 286.9,277.6 288.0,276.6 289.0,291.3 290.0,292.8 291.0,278.0 292.0,276.8 292.9,291.0 293.9,292.6 294.8,278.3 295.7,277.1 296.6,290.7 297.4,292.3 298.3,278.5 299.1,277.3 299.9,290.4 300.7,292.1 301.7,276.8 302.7,283.1 303.6,293.8 304.6,279.0 305.5,280.0 306.4,293.8 307.3,282.0 308.1,277.8 309.0,292.3 309.8,285.5 310.6,276.7 311.4,289.6 312.4,285.5 313.3,278.1 314.2,293.1 315.1,279.8 316.0,283.1 316.9,291.2 317.7,277.1 318.6,289.1 319.4,285.6 320.2,278.4 321.1,292.4 322.0,277.5 322.9,291.0 323.8,280.3 324.7,285.9 325.5,285.8 326.3,280.5 327.1,290.7 327.9,277.9 328.8,291.8 329.7,278.0 330.6,291.7 331.4,278.1 332.3,291.6 333.1,278.2 333.9,291.5 334.8,279.1 335.7,288.5 336.5,282.9 337.4,283.5 338.2,287.8 339.0,279.6 339.8,291.0 340.7,279.3 341.6,286.1 342.4,287.6 343.3,278.9 344.1,290.1 344.9,282.8 345.8,280.0 346.6,290.0 347.5,285.0 348.3,279.1 349.1,288.4 350.0,289.1 350.8,280.8 351.7,280.3 352.5,288.4 353.3,288.9 354.1,282.6 355.0,279.2 355.8,282.2 356.6,288.4 357.5,289.9 358.3,286.7 359.1,282.5 360.0,279.8 360.8,279.8 361.6,280.9 362.5,282.6 363.3,284.6 364.1,286.7 364.9,286.7 365.8,286.7 366.6,286.8 367.4,286.8 368.2,284.8 369.1,283.0 369.9,281.4 370.7,279.8 371.6,280.9 372.4,284.0 373.2,287.7 374.0,289.5 374.8,285.2 375.6,280.5 376.5,282.1 377.3,288.9 378.1,287.1 378.9,280.0 379.7,285.6 380.5,288.7 381.4,280.1 382.2,287.3 383.0,285.6 383.8,281.9 384.6,288.7 385.5,280.7 386.3,288.8 387.1,280.7 387.9,287.5 388.7,283.3 389.5,282.4 390.3,289.3 391.2,281.7 392.0,282.5 392.8,289.5 393.6,284.9 394.4,280.1 395.2,282.6 396.0,287.9 396.8,289.6 397.6,288.2 398.5,286.6" fill="none" stroke="#2ecc71" stroke-width="1.5" stroke-linejoin="round" clip-path="url(#pc721)"/>
  <line x1="435" y1="207" x2="435" y2="362" stroke="#d1d5db"/>
  <line x1="435" y1="284.5" x2="800" y2="284.5" stroke="#d1d5db"/>
  <text x="617.5" y="388" text-anchor="middle" font-size="9" fill="#6b7280">Samples</text>
  <text x="413" y="284.5" text-anchor="middle" font-size="9" fill="#6b7280" transform="rotate(-90 413 284.5)">Impulse response</text>
  <line x1="435.0" y1="207" x2="435.0" y2="362" stroke="#e5e7eb" stroke-width="0.5"/>
  <text x="435.0" y="374" text-anchor="middle" font-size="8" fill="#6b7280">0</text>
  <line x1="563.3" y1="207" x2="563.3" y2="362" stroke="#e5e7eb" stroke-width="0.5"/>
  <text x="563.3" y="374" text-anchor="middle" font-size="8" fill="#6b7280">90</text>
  <line x1="691.6" y1="207" x2="691.6" y2="362" stroke="#e5e7eb" stroke-width="0.5"/>
  <text x="691.6" y="374" text-anchor="middle" font-size="8" fill="#6b7280">180</text>
  <text x="431" y="287.5" text-anchor="end" font-size="8" fill="#6b7280">0</text>
  <defs><linearGradient id="g722" x1="0" y1="207" x2="0" y2="284.5" gradientUnits="userSpaceOnUse">
    <stop offset="0%" stop-color="#f39c12" stop-opacity="0.15"/>
    <stop offset="100%" stop-color="#f39c12" stop-opacity="0.02"/>
  </linearGradient></defs>
  <path d="M435.0,207.0 435.0,207.0 436.4,238.9 437.9,253.5 439.3,257.8 440.7,261.8 442.1,263.7 443.6,265.8 445.0,266.9 446.4,268.2 447.8,268.9 449.3,269.8 450.7,270.4 452.1,271.1 453.5,271.6 455.0,272.1 456.4,272.5 457.8,272.9 459.2,273.3 460.7,273.6 462.1,273.9 463.5,274.2 464.9,274.4 466.4,274.7 467.8,274.9 469.2,275.1 470.6,275.3 472.1,275.5 473.5,275.6 474.9,275.8 476.3,275.9 477.8,276.1 479.2,276.2 480.6,276.3 482.1,276.5 483.5,276.6 484.9,276.7 486.3,276.8 487.8,276.9 489.2,277.0 490.6,277.1 492.0,277.2 493.5,277.3 494.9,277.4 496.3,277.5 497.7,277.5 499.2,277.6 500.6,277.7 502.0,277.8 503.4,277.9 504.9,277.9 506.3,278.0 507.7,278.1 509.1,278.1 510.6,278.2 512.0,278.3 513.4,278.3 514.8,278.4 516.3,278.4 517.7,278.5 519.1,278.5 520.5,278.6 522.0,278.7 523.4,278.7 524.8,278.8 526.3,278.8 527.7,278.9 529.1,278.9 530.5,278.9 532.0,279.0 533.4,279.0 534.8,279.1 536.2,279.1 537.7,279.2 539.1,279.2 540.5,279.2 541.9,279.3 543.4,279.3 544.8,279.4 546.2,279.4 547.6,279.4 549.1,279.5 550.5,279.5 551.9,279.5 553.3,279.6 554.8,279.6 556.2,279.6 557.6,279.7 559.0,279.7 560.5,279.7 561.9,279.8 563.3,279.8 564.7,279.8 566.2,279.8 567.6,279.9 569.0,279.9 570.4,279.9 571.9,280.0 573.3,280.0 574.7,280.0 576.2,280.0 577.6,280.1 579.0,280.1 580.4,280.1 581.9,280.1 583.3,280.1 584.7,280.2 586.1,280.2 587.6,280.2 589.0,280.2 590.4,280.3 591.8,280.3 593.3,280.3 594.7,280.3 596.1,280.3 597.5,280.4 599.0,280.4 600.4,280.4 601.8,280.4 603.2,280.4 604.7,280.5 606.1,280.5 607.5,280.5 608.9,280.5 610.4,280.5 611.8,280.5 613.2,280.6 614.6,280.6 616.1,280.6 617.5,280.6 618.9,280.6 620.4,280.6 621.8,280.7 623.2,280.7 624.6,280.7 626.1,280.7 627.5,280.7 628.9,280.7 630.3,280.8 631.8,280.8 633.2,280.8 634.6,280.8 636.0,280.8 637.5,280.8 638.9,280.8 640.3,280.9 641.7,280.9 643.2,280.9 644.6,280.9 646.0,280.9 647.4,280.9 648.9,280.9 650.3,281.0 651.7,281.0 653.1,281.0 654.6,281.0 656.0,281.0 657.4,281.0 658.8,281.0 660.3,281.0 661.7,281.1 663.1,281.1 664.6,281.1 666.0,281.1 667.4,281.1 668.8,281.1 670.3,281.1 671.7,281.1 673.1,281.1 674.5,281.2 676.0,281.2 677.4,281.2 678.8,281.2 680.2,281.2 681.7,281.2 683.1,281.2 684.5,281.2 685.9,281.2 687.4,281.3 688.8,281.3 690.2,281.3 691.6,281.3 693.1,281.3 694.5,281.3 695.9,281.3 697.3,281.3 698.8,281.3 700.2,281.4 701.6,281.4 703.0,281.4 704.5,281.4 705.9,281.4 707.3,281.4 708.8,281.4 710.2,281.4 711.6,281.4 713.0,281.4 714.5,281.4 715.9,281.5 717.3,281.5 718.7,281.5 720.2,281.5 721.6,281.5 723.0,281.5 724.4,281.5 725.9,281.5 727.3,281.5 728.7,281.5 730.1,281.5 731.6,281.6 733.0,281.6 734.4,281.6 735.8,281.6 737.3,281.6 738.7,281.6 740.1,281.6 741.5,281.6 743.0,281.6 744.4,281.6 745.8,281.6 747.2,281.6 748.7,281.7 750.1,281.7 751.5,281.7 752.9,281.7 754.4,281.7 755.8,281.7 757.2,281.7 758.7,281.7 760.1,281.7 761.5,281.7 762.9,281.7 764.4,281.7 765.8,281.7 767.2,281.8 768.6,281.8 770.1,281.8 771.5,281.8 772.9,281.8 774.3,281.8 775.8,281.8 777.2,281.8 778.6,281.8 780.0,281.8 781.5,281.8 782.9,281.8 784.3,281.8 785.7,281.8 787.2,281.9 788.6,281.9 790.0,281.9 791.4,281.9 792.9,281.9 794.3,281.9 795.7,281.9 797.1,281.9 798.6,281.9 L798.6,284.5 L435.0,284.5 Z" fill="url(#g722)"/>
  <defs><clipPath id="pc723"><rect x="435" y="207" width="365" height="155"/></clipPath></defs>
  <polyline points="435.0,207.0 436.4,238.9 437.9,253.5 439.3,257.8 440.7,261.8 442.1,263.7 443.6,265.8 445.0,266.9 446.4,268.2 447.8,268.9 449.3,269.8 450.7,270.4 452.1,271.1 453.5,271.6 455.0,272.1 456.4,272.5 457.8,272.9 459.2,273.3 460.7,273.6 462.1,273.9 463.5,274.2 464.9,274.4 466.4,274.7 467.8,274.9 469.2,275.1 470.6,275.3 472.1,275.5 473.5,275.6 474.9,275.8 476.3,275.9 477.8,276.1 479.2,276.2 480.6,276.3 482.1,276.5 483.5,276.6 484.9,276.7 486.3,276.8 487.8,276.9 489.2,277.0 490.6,277.1 492.0,277.2 493.5,277.3 494.9,277.4 496.3,277.5 497.7,277.5 499.2,277.6 500.6,277.7 502.0,277.8 503.4,277.9 504.9,277.9 506.3,278.0 507.7,278.1 509.1,278.1 510.6,278.2 512.0,278.3 513.4,278.3 514.8,278.4 516.3,278.4 517.7,278.5 519.1,278.5 520.5,278.6 522.0,278.7 523.4,278.7 524.8,278.8 526.3,278.8 527.7,278.9 529.1,278.9 530.5,278.9 532.0,279.0 533.4,279.0 534.8,279.1 536.2,279.1 537.7,279.2 539.1,279.2 540.5,279.2 541.9,279.3 543.4,279.3 544.8,279.4 546.2,279.4 547.6,279.4 549.1,279.5 550.5,279.5 551.9,279.5 553.3,279.6 554.8,279.6 556.2,279.6 557.6,279.7 559.0,279.7 560.5,279.7 561.9,279.8 563.3,279.8 564.7,279.8 566.2,279.8 567.6,279.9 569.0,279.9 570.4,279.9 571.9,280.0 573.3,280.0 574.7,280.0 576.2,280.0 577.6,280.1 579.0,280.1 580.4,280.1 581.9,280.1 583.3,280.1 584.7,280.2 586.1,280.2 587.6,280.2 589.0,280.2 590.4,280.3 591.8,280.3 593.3,280.3 594.7,280.3 596.1,280.3 597.5,280.4 599.0,280.4 600.4,280.4 601.8,280.4 603.2,280.4 604.7,280.5 606.1,280.5 607.5,280.5 608.9,280.5 610.4,280.5 611.8,280.5 613.2,280.6 614.6,280.6 616.1,280.6 617.5,280.6 618.9,280.6 620.4,280.6 621.8,280.7 623.2,280.7 624.6,280.7 626.1,280.7 627.5,280.7 628.9,280.7 630.3,280.8 631.8,280.8 633.2,280.8 634.6,280.8 636.0,280.8 637.5,280.8 638.9,280.8 640.3,280.9 641.7,280.9 643.2,280.9 644.6,280.9 646.0,280.9 647.4,280.9 648.9,280.9 650.3,281.0 651.7,281.0 653.1,281.0 654.6,281.0 656.0,281.0 657.4,281.0 658.8,281.0 660.3,281.0 661.7,281.1 663.1,281.1 664.6,281.1 666.0,281.1 667.4,281.1 668.8,281.1 670.3,281.1 671.7,281.1 673.1,281.1 674.5,281.2 676.0,281.2 677.4,281.2 678.8,281.2 680.2,281.2 681.7,281.2 683.1,281.2 684.5,281.2 685.9,281.2 687.4,281.3 688.8,281.3 690.2,281.3 691.6,281.3 693.1,281.3 694.5,281.3 695.9,281.3 697.3,281.3 698.8,281.3 700.2,281.4 701.6,281.4 703.0,281.4 704.5,281.4 705.9,281.4 707.3,281.4 708.8,281.4 710.2,281.4 711.6,281.4 713.0,281.4 714.5,281.4 715.9,281.5 717.3,281.5 718.7,281.5 720.2,281.5 721.6,281.5 723.0,281.5 724.4,281.5 725.9,281.5 727.3,281.5 728.7,281.5 730.1,281.5 731.6,281.6 733.0,281.6 734.4,281.6 735.8,281.6 737.3,281.6 738.7,281.6 740.1,281.6 741.5,281.6 743.0,281.6 744.4,281.6 745.8,281.6 747.2,281.6 748.7,281.7 750.1,281.7 751.5,281.7 752.9,281.7 754.4,281.7 755.8,281.7 757.2,281.7 758.7,281.7 760.1,281.7 761.5,281.7 762.9,281.7 764.4,281.7 765.8,281.7 767.2,281.8 768.6,281.8 770.1,281.8 771.5,281.8 772.9,281.8 774.3,281.8 775.8,281.8 777.2,281.8 778.6,281.8 780.0,281.8 781.5,281.8 782.9,281.8 784.3,281.8 785.7,281.8 787.2,281.9 788.6,281.9 790.0,281.9 791.4,281.9 792.9,281.9 794.3,281.9 795.7,281.9 797.1,281.9 798.6,281.9" fill="none" stroke="#f39c12" stroke-width="1.3" stroke-linejoin="round" clip-path="url(#pc723)"/>
</svg>
