<svg xmlns="http://www.w3.org/2000/svg" viewBox="0 0 820 378" style="font-family:system-ui,-apple-system,sans-serif">
  <text x="800" y="11" text-anchor="end" font-size="11" font-weight="600" fill="#6b7280">Pre-emphasis, α=0.97</text>
  <line x1="34" y1="16" x2="34" y2="171" stroke="#d1d5db"/>
  <line x1="34" y1="47.0" x2="399" y2="47.0" stroke="#d1d5db"/>
  <text x="216.5" y="197" text-anchor="middle" font-size="9" fill="#6b7280">Hz</text>
  <text x="12" y="93.5" text-anchor="middle" font-size="9" fill="#6b7280" transform="rotate(-90 12 93.5)">dB</text>
  <line x1="67.3" y1="16" x2="67.3" y2="171" stroke="#e5e7eb" stroke-width="0.5"/>
  <line x1="86.8" y1="16" x2="86.8" y2="171" stroke="#e5e7eb" stroke-width="0.5"/>
  <line x1="100.6" y1="16" x2="100.6" y2="171" stroke="#e5e7eb" stroke-width="0.5"/>
  <line x1="111.3" y1="16" x2="111.3" y2="171" stroke="#e5e7eb" stroke-width="0.5"/>
  <line x1="120.0" y1="16" x2="120.0" y2="171" stroke="#e5e7eb" stroke-width="0.5"/>
  <line x1="127.4" y1="16" x2="127.4" y2="171" stroke="#e5e7eb" stroke-width="0.5"/>
  <line x1="133.9" y1="16" x2="133.9" y2="171" stroke="#e5e7eb" stroke-width="0.5"/>
  <line x1="139.5" y1="16" x2="139.5" y2="171" stroke="#e5e7eb" stroke-width="0.5"/>
  <line x1="177.9" y1="16" x2="177.9" y2="171" stroke="#e5e7eb" stroke-width="0.5"/>
  <line x1="197.3" y1="16" x2="197.3" y2="171" stroke="#e5e7eb" stroke-width="0.5"/>
  <line x1="211.1" y1="16" x2="211.1" y2="171" stroke="#e5e7eb" stroke-width="0.5"/>
  <line x1="221.9" y1="16" x2="221.9" y2="171" stroke="#e5e7eb" stroke-width="0.5"/>
  <line x1="230.6" y1="16" x2="230.6" y2="171" stroke="#e5e7eb" stroke-width="0.5"/>
  <line x1="238.0" y1="16" x2="238.0" y2="171" stroke="#e5e7eb" stroke-width="0.5"/>
  <line x1="244.4" y1="16" x2="244.4" y2="171" stroke="#e5e7eb" stroke-width="0.5"/>
  <line x1="250.1" y1="16" x2="250.1" y2="171" stroke="#e5e7eb" stroke-width="0.5"/>
  <line x1="288.4" y1="16" x2="288.4" y2="171" stroke="#e5e7eb" stroke-width="0.5"/>
  <line x1="307.9" y1="16" x2="307.9" y2="171" stroke="#e5e7eb" stroke-width="0.5"/>
  <line x1="321.7" y1="16" x2="321.7" y2="171" stroke="#e5e7eb" stroke-width="0.5"/>
  <line x1="332.4" y1="16" x2="332.4" y2="171" stroke="#e5e7eb" stroke-width="0.5"/>
  <line x1="341.2" y1="16" x2="341.2" y2="171" stroke="#e5e7eb" stroke-width="0.5"/>
  <line x1="348.6" y1="16" x2="348.6" y2="171" stroke="#e5e7eb" stroke-width="0.5"/>
  <line x1="355.0" y1="16" x2="355.0" y2="171" stroke="#e5e7eb" stroke-width="0.5"/>
  <line x1="360.7" y1="16" x2="360.7" y2="171" stroke="#e5e7eb" stroke-width="0.5"/>
  <line x1="399.0" y1="16" x2="399.0" y2="171" stroke="#e5e7eb" stroke-width="0.5"/>
  <line x1="144.6" y1="16" x2="144.6" y2="171" stroke="#e5e7eb" stroke-width="0.5"/>
  <text x="144.6" y="183" text-anchor="middle" font-size="8" fill="#6b7280">100</text>
  <line x1="255.1" y1="16" x2="255.1" y2="171" stroke="#e5e7eb" stroke-width="0.5"/>
  <text x="255.1" y="183" text-anchor="middle" font-size="8" fill="#6b7280">1k</text>
  <line x1="365.7" y1="16" x2="365.7" y2="171" stroke="#e5e7eb" stroke-width="0.5"/>
  <text x="365.7" y="183" text-anchor="middle" font-size="8" fill="#6b7280">10k</text>
  <line x1="34" y1="31.5" x2="399" y2="31.5" stroke="#e5e7eb" stroke-width="0.5"/>
  <line x1="34" y1="62.5" x2="399" y2="62.5" stroke="#e5e7eb" stroke-width="0.5"/>
  <line x1="34" y1="16.0" x2="399" y2="16.0" stroke="#e5e7eb" stroke-width="0.5"/>
  <text x="30" y="19.0" text-anchor="end" font-size="8" fill="#6b7280">+20</text>
  <text x="30" y="50.0" text-anchor="end" font-size="8" fill="#6b7280">0</text>
  <line x1="34" y1="78.0" x2="399" y2="78.0" stroke="#e5e7eb" stroke-width="0.5"/>
  <text x="30" y="81.0" text-anchor="end" font-size="8" fill="#6b7280">-20</text>
  <line x1="34" y1="109.0" x2="399" y2="109.0" stroke="#e5e7eb" stroke-width="0.5"/>
  <text x="30" y="112.0" text-anchor="end" font-size="8" fill="#6b7280">-40</text>
  <line x1="34" y1="140.0" x2="399" y2="140.0" stroke="#e5e7eb" stroke-width="0.5"/>
  <text x="30" y="143.0" text-anchor="end" font-size="8" fill="#6b7280">-60</text>
  <line x1="34" y1="171.0" x2="399" y2="171.0" stroke="#e5e7eb" stroke-width="0.5"/>
  <text x="30" y="174.0" text-anchor="end" font-size="8" fill="#6b7280">-80</text>
  <defs><linearGradient id="g680" x1="0" y1="16" x2="0" y2="171" gradientUnits="userSpaceOnUse">
    <stop offset="0%" stop-color="#4a90d9" stop-opacity="0.15"/>
    <stop offset="100%" stop-color="#4a90d9" stop-opacity="0.02"/>
  </linearGradient></defs>
  <path d="M37.5,94.2 37.5,94.2 70.8,94.1 90.3,94.1 104.1,93.9 114.8,93.8 123.6,93.6 131.0,93.4 137.4,93.2 143.1,93.0 148.1,92.7 152.7,92.4 156.9,92.1 160.7,91.8 164.3,91.5 167.6,91.2 170.7,90.8 173.6,90.5 176.3,90.2 178.9,89.8 181.4,89.5 183.7,89.2 186.0,88.8 188.1,88.5 190.2,88.1 192.1,87.8 194.0,87.5 195.8,87.2 197.6,86.8 199.2,86.5 200.9,86.2 202.4,85.9 204.0,85.6 205.5,85.3 206.9,85.0 208.3,84.7 209.6,84.4 210.9,84.1 212.2,83.8 213.5,83.6 214.7,83.3 215.9,83.0 217.0,82.8 218.2,82.5 219.3,82.3 220.3,82.0 221.4,81.8 222.4,81.5 223.4,81.3 224.4,81.0 225.4,80.8 226.4,80.6 227.3,80.3 228.2,80.1 229.1,79.9 230.0,79.7 230.8,79.5 231.7,79.2 232.5,79.0 233.4,78.8 234.2,78.6 235.7,78.2 237.3,77.8 238.7,77.5 240.2,77.1 241.6,76.7 242.9,76.4 244.2,76.0 245.5,75.7 246.8,75.4 248.0,75.1 249.2,74.7 250.3,74.4 251.4,74.1 252.6,73.8 253.6,73.6 254.7,73.3 255.7,73.0 256.7,72.7 257.7,72.5 258.7,72.2 259.6,71.9 260.6,71.7 261.5,71.4 262.4,71.2 263.3,71.0 264.1,70.7 265.0,70.5 265.8,70.3 266.6,70.0 267.4,69.8 268.6,69.5 269.8,69.2 270.9,68.9 272.0,68.6 273.1,68.3 274.2,68.0 275.2,67.7 276.2,67.4 277.2,67.2 278.2,66.9 279.1,66.6 280.0,66.4 281.0,66.1 281.9,65.9 282.7,65.6 283.6,65.4 284.5,65.2 285.3,64.9 286.1,64.7 286.9,64.5 288.0,64.2 289.0,63.9 290.0,63.6 291.0,63.4 292.0,63.1 292.9,62.8 293.9,62.6 294.8,62.3 295.7,62.1 296.6,61.8 297.4,61.6 298.3,61.4 299.1,61.1 299.9,60.9 300.7,60.7 301.7,60.4 302.7,60.1 303.6,59.9 304.6,59.6 305.5,59.4 306.4,59.1 307.3,58.9 308.1,58.7 309.0,58.4 309.8,58.2 310.6,58.0 311.4,57.7 312.4,57.5 313.3,57.2 314.2,57.0 315.1,56.7 316.0,56.5 316.9,56.3 317.7,56.0 318.6,55.8 319.4,55.6 320.2,55.3 321.1,55.1 322.0,54.9 322.9,54.6 323.8,54.4 324.7,54.1 325.5,53.9 326.3,53.7 327.1,53.5 327.9,53.2 328.8,53.0 329.7,52.8 330.6,52.5 331.4,52.3 332.3,52.1 333.1,51.9 333.9,51.6 334.8,51.4 335.7,51.2 336.5,50.9 337.4,50.7 338.2,50.5 339.0,50.3 339.8,50.1 340.7,49.8 341.6,49.6 342.4,49.4 343.3,49.2 344.1,49.0 344.9,48.8 345.8,48.5 346.6,48.3 347.5,48.1 348.3,47.9 349.1,47.7 350.0,47.4 350.8,47.2 351.7,47.0 352.5,46.8 353.3,46.6 354.1,46.4 355.0,46.2 355.8,46.0 356.6,45.8 357.5,45.6 358.3,45.4 359.1,45.2 360.0,45.0 360.8,44.8 361.6,44.6 362.5,44.4 363.3,44.2 364.1,44.0 364.9,43.8 365.8,43.6 366.6,43.4 367.4,43.2 368.2,43.0 369.1,42.8 369.9,42.7 370.7,42.5 371.6,42.3 372.4,42.1 373.2,41.9 374.0,41.8 374.8,41.6 375.6,41.4 376.5,41.3 377.3,41.1 378.1,40.9 378.9,40.8 379.7,40.6 380.5,40.5 381.4,40.3 382.2,40.2 383.0,40.0 383.8,39.9 384.6,39.7 385.5,39.6 386.3,39.5 387.1,39.3 387.9,39.2 388.7,39.1 389.5,39.0 390.3,38.9 391.2,38.8 392.0,38.7 392.8,38.6 393.6,38.5 394.4,38.4 395.2,38.3 396.0,38.2 396.8,38.2 397.6,38.1 398.5,38.0 L398.5,171.0 L37.5,171.0 Z" fill="url(#g680)"/>
  <defs><clipPath id="pc681"><rect x="34" y="16" width="365" height="155"/></clipPath></defs>
  <polyline points="37.5,94.2 70.8,94.1 90.3,94.1 104.1,93.9 114.8,93.8 123.6,93.6 131.0,93.4 137.4,93.2 143.1,93.0 148.1,92.7 152.7,92.4 156.9,92.1 160.7,91.8 164.3,91.5 167.6,91.2 170.7,90.8 173.6,90.5 176.3,90.2 178.9,89.8 181.4,89.5 183.7,89.2 186.0,88.8 188.1,88.5 190.2,88.1 192.1,87.8 194.0,87.5 195.8,87.2 197.6,86.8 199.2,86.5 200.9,86.2 202.4,85.9 204.0,85.6 205.5,85.3 206.9,85.0 208.3,84.7 209.6,84.4 210.9,84.1 212.2,83.8 213.5,83.6 214.7,83.3 215.9,83.0 217.0,82.8 218.2,82.5 219.3,82.3 220.3,82.0 221.4,81.8 222.4,81.5 223.4,81.3 224.4,81.0 225.4,80.8 226.4,80.6 227.3,80.3 228.2,80.1 229.1,79.9 230.0,79.7 230.8,79.5 231.7,79.2 232.5,79.0 233.4,78.8 234.2,78.6 235.7,78.2 237.3,77.8 238.7,77.5 240.2,77.1 241.6,76.7 242.9,76.4 244.2,76.0 245.5,75.7 246.8,75.4 248.0,75.1 249.2,74.7 250.3,74.4 251.4,74.1 252.6,73.8 253.6,73.6 254.7,73.3 255.7,73.0 256.7,72.7 257.7,72.5 258.7,72.2 259.6,71.9 260.6,71.7 261.5,71.4 262.4,71.2 263.3,71.0 264.1,70.7 265.0,70.5 265.8,70.3 266.6,70.0 267.4,69.8 268.6,69.5 269.8,69.2 270.9,68.9 272.0,68.6 273.1,68.3 274.2,68.0 275.2,67.7 276.2,67.4 277.2,67.2 278.2,66.9 279.1,66.6 280.0,66.4 281.0,66.1 281.9,65.9 282.7,65.6 283.6,65.4 284.5,65.2 285.3,64.9 286.1,64.7 286.9,64.5 288.0,64.2 289.0,63.9 290.0,63.6 291.0,63.4 292.0,63.1 292.9,62.8 293.9,62.6 294.8,62.3 295.7,62.1 296.6,61.8 297.4,61.6 298.3,61.4 299.1,61.1 299.9,60.9 300.7,60.7 301.7,60.4 302.7,60.1 303.6,59.9 304.6,59.6 305.5,59.4 306.4,59.1 307.3,58.9 308.1,58.7 309.0,58.4 309.8,58.2 310.6,58.0 311.4,57.7 312.4,57.5 313.3,57.2 314.2,57.0 315.1,56.7 316.0,56.5 316.9,56.3 317.7,56.0 318.6,55.8 319.4,55.6 320.2,55.3 321.1,55.1 322.0,54.9 322.9,54.6 323.8,54.4 324.7,54.1 325.5,53.9 326.3,53.7 327.1,53.5 327.9,53.2 328.8,53.0 329.7,52.8 330.6,52.5 331.4,52.3 332.3,52.1 333.1,51.9 333.9,51.6 334.8,51.4 335.7,51.2 336.5,50.9 337.4,50.7 338.2,50.5 339.0,50.3 339.8,50.1 340.7,49.8 341.6,49.6 342.4,49.4 343.3,49.2 344.1,49.0 344.9,48.8 345.8,48.5 346.6,48.3 347.5,48.1 348.3,47.9 349.1,47.7 350.0,47.4 350.8,47.2 351.7,47.0 352.5,46.8 353.3,46.6 354.1,46.4 355.0,46.2 355.8,46.0 356.6,45.8 357.5,45.6 358.3,45.4 359.1,45.2 360.0,45.0 360.8,44.8 361.6,44.6 362.5,44.4 363.3,44.2 364.1,44.0 364.9,43.8 365.8,43.6 366.6,43.4 367.4,43.2 368.2,43.0 369.1,42.8 369.9,42.7 370.7,42.5 371.6,42.3 372.4,42.1 373.2,41.9 374.0,41.8 374.8,41.6 375.6,41.4 376.5,41.3 377.3,41.1 378.1,40.9 378.9,40.8 379.7,40.6 380.5,40.5 381.4,40.3 382.2,40.2 383.0,40.0 383.8,39.9 384.6,39.7 385.5,39.6 386.3,39.5 387.1,39.3 387.9,39.2 388.7,39.1 389.5,39.0 390.3,38.9 391.2,38.8 392.0,38.7 392.8,38.6 393.6,38.5 394.4,38.4 395.2,38.3 396.0,38.2 396.8,38.2 397.6,38.1 398.5,38.0" fill="none" stroke="#4a90d9" stroke-width="1.5" stroke-linejoin="round" clip-path="url(#pc681)"/>
  <line x1="435" y1="16" x2="435" y2="171" stroke="#d1d5db"/>
  <line x1="435" y1="93.5" x2="800" y2="93.5" stroke="#d1d5db"/>
  <text x="617.5" y="197" text-anchor="middle" font-size="9" fill="#6b7280">Hz</text>
  <text x="413" y="93.5" text-anchor="middle" font-size="9" fill="#6b7280" transform="rotate(-90 413 93.5)">Phase (deg)</text>
  <line x1="468.3" y1="16" x2="468.3" y2="171" stroke="#e5e7eb" stroke-width="0.5"/>
  <line x1="487.8" y1="16" x2="487.8" y2="171" stroke="#e5e7eb" stroke-width="0.5"/>
  <line x1="501.6" y1="16" x2="501.6" y2="171" stroke="#e5e7eb" stroke-width="0.5"/>
  <line x1="512.3" y1="16" x2="512.3" y2="171" stroke="#e5e7eb" stroke-width="0.5"/>
  <line x1="521.0" y1="16" x2="521.0" y2="171" stroke="#e5e7eb" stroke-width="0.5"/>
  <line x1="528.4" y1="16" x2="528.4" y2="171" stroke="#e5e7eb" stroke-width="0.5"/>
  <line x1="534.9" y1="16" x2="534.9" y2="171" stroke="#e5e7eb" stroke-width="0.5"/>
  <line x1="540.5" y1="16" x2="540.5" y2="171" stroke="#e5e7eb" stroke-width="0.5"/>
  <line x1="578.9" y1="16" x2="578.9" y2="171" stroke="#e5e7eb" stroke-width="0.5"/>
  <line x1="598.3" y1="16" x2="598.3" y2="171" stroke="#e5e7eb" stroke-width="0.5"/>
  <line x1="612.1" y1="16" x2="612.1" y2="171" stroke="#e5e7eb" stroke-width="0.5"/>
  <line x1="622.9" y1="16" x2="622.9" y2="171" stroke="#e5e7eb" stroke-width="0.5"/>
  <line x1="631.6" y1="16" x2="631.6" y2="171" stroke="#e5e7eb" stroke-width="0.5"/>
  <line x1="639.0" y1="16" x2="639.0" y2="171" stroke="#e5e7eb" stroke-width="0.5"/>
  <line x1="645.4" y1="16" x2="645.4" y2="171" stroke="#e5e7eb" stroke-width="0.5"/>
  <line x1="651.1" y1="16" x2="651.1" y2="171" stroke="#e5e7eb" stroke-width="0.5"/>
  <line x1="689.4" y1="16" x2="689.4" y2="171" stroke="#e5e7eb" stroke-width="0.5"/>
  <line x1="708.9" y1="16" x2="708.9" y2="171" stroke="#e5e7eb" stroke-width="0.5"/>
  <line x1="722.7" y1="16" x2="722.7" y2="171" stroke="#e5e7eb" stroke-width="0.5"/>
  <line x1="733.4" y1="16" x2="733.4" y2="171" stroke="#e5e7eb" stroke-width="0.5"/>
  <line x1="742.2" y1="16" x2="742.2" y2="171" stroke="#e5e7eb" stroke-width="0.5"/>
  <line x1="749.6" y1="16" x2="749.6" y2="171" stroke="#e5e7eb" stroke-width="0.5"/>
  <line x1="756.0" y1="16" x2="756.0" y2="171" stroke="#e5e7eb" stroke-width="0.5"/>
  <line x1="761.7" y1="16" x2="761.7" y2="171" stroke="#e5e7eb" stroke-width="0.5"/>
  <line x1="800.0" y1="16" x2="800.0" y2="171" stroke="#e5e7eb" stroke-width="0.5"/>
  <line x1="545.6" y1="16" x2="545.6" y2="171" stroke="#e5e7eb" stroke-width="0.5"/>
  <text x="545.6" y="183" text-anchor="middle" font-size="8" fill="#6b7280">100</text>
  <line x1="656.1" y1="16" x2="656.1" y2="171" stroke="#e5e7eb" stroke-width="0.5"/>
  <text x="656.1" y="183" text-anchor="middle" font-size="8" fill="#6b7280">1k</text>
  <line x1="766.7" y1="16" x2="766.7" y2="171" stroke="#e5e7eb" stroke-width="0.5"/>
  <text x="766.7" y="183" text-anchor="middle" font-size="8" fill="#6b7280">10k</text>
  <line x1="435" y1="58.6" x2="800" y2="58.6" stroke="#e5e7eb" stroke-width="0.5"/>
  <line x1="435" y1="128.4" x2="800" y2="128.4" stroke="#e5e7eb" stroke-width="0.5"/>
  <line x1="435" y1="23.8" x2="800" y2="23.8" stroke="#e5e7eb" stroke-width="0.5"/>
  <text x="431" y="26.8" text-anchor="end" font-size="8" fill="#6b7280">180</text>
  <text x="431" y="96.5" text-anchor="end" font-size="8" fill="#6b7280">0</text>
  <line x1="435" y1="163.3" x2="800" y2="163.3" stroke="#e5e7eb" stroke-width="0.5"/>
  <text x="431" y="166.3" text-anchor="end" font-size="8" fill="#6b7280">-180</text>
  <defs><linearGradient id="g682" x1="0" y1="16" x2="0" y2="93.5" gradientUnits="userSpaceOnUse">
    <stop offset="0%" stop-color="#e74c3c" stop-opacity="0.15"/>
    <stop offset="100%" stop-color="#e74c3c" stop-opacity="0.02"/>
  </linearGradient></defs>
  <path d="M438.5,92.4 438.5,92.4 471.8,91.3 491.3,90.2 505.1,89.2 515.8,88.1 524.6,87.1 532.0,86.1 538.4,85.1 544.1,84.2 549.1,83.3 553.7,82.5 557.9,81.6 561.7,80.9 565.3,80.1 568.6,79.4 571.7,78.7 574.6,78.1 577.3,77.5 579.9,76.9 582.4,76.3 584.7,75.8 587.0,75.3 589.1,74.8 591.2,74.4 593.1,74.0 595.0,73.5 596.8,73.2 598.6,72.8 600.2,72.4 601.9,72.1 603.4,71.8 605.0,71.5 606.5,71.2 607.9,70.9 609.3,70.7 610.6,70.4 611.9,70.2 613.2,70.0 614.5,69.7 615.7,69.5 616.9,69.3 618.0,69.1 619.2,69.0 620.3,68.8 621.3,68.6 622.4,68.5 623.4,68.3 624.4,68.1 625.4,68.0 626.4,67.9 627.4,67.7 628.3,67.6 629.2,67.5 630.1,67.4 631.0,67.2 631.8,67.1 632.7,67.0 633.5,66.9 634.4,66.8 635.2,66.7 636.7,66.6 638.3,66.4 639.7,66.2 641.2,66.1 642.6,65.9 643.9,65.8 645.2,65.7 646.5,65.6 647.8,65.5 649.0,65.4 650.2,65.3 651.3,65.2 652.4,65.1 653.6,65.0 654.6,65.0 655.7,64.9 656.7,64.8 657.7,64.8 658.7,64.7 659.7,64.7 660.6,64.6 661.6,64.6 662.5,64.5 663.4,64.5 664.3,64.5 665.1,64.4 666.0,64.4 666.8,64.4 667.6,64.3 668.4,64.3 669.6,64.3 670.8,64.2 671.9,64.2 673.0,64.2 674.1,64.2 675.2,64.1 676.2,64.1 677.2,64.1 678.2,64.1 679.2,64.1 680.1,64.1 681.0,64.1 682.0,64.1 682.9,64.1 683.7,64.1 684.6,64.1 685.5,64.1 686.3,64.1 687.1,64.1 687.9,64.1 689.0,64.1 690.0,64.1 691.0,64.2 692.0,64.2 693.0,64.2 693.9,64.2 694.9,64.3 695.8,64.3 696.7,64.3 697.6,64.4 698.4,64.4 699.3,64.4 700.1,64.5 700.9,64.5 701.7,64.5 702.7,64.6 703.7,64.6 704.6,64.7 705.6,64.7 706.5,64.8 707.4,64.8 708.3,64.9 709.1,64.9 710.0,65.0 710.8,65.1 711.6,65.1 712.4,65.2 713.4,65.2 714.3,65.3 715.2,65.4 716.1,65.5 717.0,65.6 717.9,65.6 718.7,65.7 719.6,65.8 720.4,65.9 721.2,65.9 722.1,66.0 723.0,66.1 723.9,66.2 724.8,66.3 725.7,66.4 726.5,66.5 727.3,66.6 728.1,66.7 728.9,66.8 729.8,66.9 730.7,67.1 731.6,67.2 732.4,67.3 733.3,67.4 734.1,67.5 734.9,67.7 735.8,67.8 736.7,67.9 737.5,68.1 738.4,68.2 739.2,68.3 740.0,68.5 740.8,68.6 741.7,68.8 742.6,68.9 743.4,69.1 744.3,69.2 745.1,69.4 745.9,69.6 746.8,69.7 747.6,69.9 748.5,70.1 749.3,70.3 750.1,70.4 751.0,70.6 751.8,70.8 752.7,71.0 753.5,71.2 754.3,71.4 755.1,71.6 756.0,71.8 756.8,72.0 757.6,72.2 758.5,72.4 759.3,72.7 760.1,72.9 761.0,73.1 761.8,73.3 762.6,73.6 763.5,73.8 764.3,74.1 765.1,74.3 765.9,74.6 766.8,74.9 767.6,75.1 768.4,75.4 769.2,75.7 770.1,75.9 770.9,76.2 771.7,76.5 772.6,76.8 773.4,77.1 774.2,77.4 775.0,77.7 775.8,78.0 776.6,78.4 777.5,78.7 778.3,79.0 779.1,79.4 779.9,79.7 780.7,80.0 781.5,80.4 782.4,80.8 783.2,81.1 784.0,81.5 784.8,81.9 785.6,82.3 786.5,82.7 787.3,83.1 788.1,83.5 788.9,83.9 789.7,84.3 790.5,84.7 791.3,85.2 792.2,85.6 793.0,86.1 793.8,86.5 794.6,87.0 795.4,87.5 796.2,88.0 797.0,88.4 797.8,88.9 798.6,89.4 799.5,90.0 L799.5,93.5 L438.5,93.5 Z" fill="url(#g682)"/>
  <defs><clipPath id="pc683"><rect x="435" y="16" width="365" height="155"/></clipPath></defs>
  <polyline points="438.5,92.4 471.8,91.3 491.3,90.2 505.1,89.2 515.8,88.1 524.6,87.1 532.0,86.1 538.4,85.1 544.1,84.2 549.1,83.3 553.7,82.5 557.9,81.6 561.7,80.9 565.3,80.1 568.6,79.4 571.7,78.7 574.6,78.1 577.3,77.5 579.9,76.9 582.4,76.3 584.7,75.8 587.0,75.3 589.1,74.8 591.2,74.4 593.1,74.0 595.0,73.5 596.8,73.2 598.6,72.8 600.2,72.4 601.9,72.1 603.4,71.8 605.0,71.5 606.5,71.2 607.9,70.9 609.3,70.7 610.6,70.4 611.9,70.2 613.2,70.0 614.5,69.7 615.7,69.5 616.9,69.3 618.0,69.1 619.2,69.0 620.3,68.8 621.3,68.6 622.4,68.5 623.4,68.3 624.4,68.1 625.4,68.0 626.4,67.9 627.4,67.7 628.3,67.6 629.2,67.5 630.1,67.4 631.0,67.2 631.8,67.1 632.7,67.0 633.5,66.9 634.4,66.8 635.2,66.7 636.7,66.6 638.3,66.4 639.7,66.2 641.2,66.1 642.6,65.9 643.9,65.8 645.2,65.7 646.5,65.6 647.8,65.5 649.0,65.4 650.2,65.3 651.3,65.2 652.4,65.1 653.6,65.0 654.6,65.0 655.7,64.9 656.7,64.8 657.7,64.8 658.7,64.7 659.7,64.7 660.6,64.6 661.6,64.6 662.5,64.5 663.4,64.5 664.3,64.5 665.1,64.4 666.0,64.4 666.8,64.4 667.6,64.3 668.4,64.3 669.6,64.3 670.8,64.2 671.9,64.2 673.0,64.2 674.1,64.2 675.2,64.1 676.2,64.1 677.2,64.1 678.2,64.1 679.2,64.1 680.1,64.1 681.0,64.1 682.0,64.1 682.9,64.1 683.7,64.1 684.6,64.1 685.5,64.1 686.3,64.1 687.1,64.1 687.9,64.1 689.0,64.1 690.0,64.1 691.0,64.2 692.0,64.2 693.0,64.2 693.9,64.2 694.9,64.3 695.8,64.3 696.7,64.3 697.6,64.4 698.4,64.4 699.3,64.4 700.1,64.5 700.9,64.5 701.7,64.5 702.7,64.6 703.7,64.6 704.6,64.7 705.6,64.7 706.5,64.8 707.4,64.8 708.3,64.9 709.1,64.9 710.0,65.0 710.8,65.1 711.6,65.1 712.4,65.2 713.4,65.2 714.3,65.3 715.2,65.4 716.1,65.5 717.0,65.6 717.9,65.6 718.7,65.7 719.6,65.8 720.4,65.9 721.2,65.9 722.1,66.0 723.0,66.1 723.9,66.2 724.8,66.3 725.7,66.4 726.5,66.5 727.3,66.6 728.1,66.7 728.9,66.8 729.8,66.9 730.7,67.1 731.6,67.2 732.4,67.3 733.3,67.4 734.1,67.5 734.9,67.7 735.8,67.8 736.7,67.9 737.5,68.1 738.4,68.2 739.2,68.3 740.0,68.5 740.8,68.6 741.7,68.8 742.6,68.9 743.4,69.1 744.3,69.2 745.1,69.4 745.9,69.6 746.8,69.7 747.6,69.9 748.5,70.1 749.3,70.3 750.1,70.4 751.0,70.6 751.8,70.8 752.7,71.0 753.5,71.2 754.3,71.4 755.1,71.6 756.0,71.8 756.8,72.0 757.6,72.2 758.5,72.4 759.3,72.7 760.1,72.9 761.0,73.1 761.8,73.3 762.6,73.6 763.5,73.8 764.3,74.1 765.1,74.3 765.9,74.6 766.8,74.9 767.6,75.1 768.4,75.4 769.2,75.7 770.1,75.9 770.9,76.2 771.7,76.5 772.6,76.8 773.4,77.1 774.2,77.4 775.0,77.7 775.8,78.0 776.6,78.4 777.5,78.7 778.3,79.0 779.1,79.4 779.9,79.7 780.7,80.0 781.5,80.4 782.4,80.8 783.2,81.1 784.0,81.5 784.8,81.9 785.6,82.3 786.5,82.7 787.3,83.1 788.1,83.5 788.9,83.9 789.7,84.3 790.5,84.7 791.3,85.2 792.2,85.6 793.0,86.1 793.8,86.5 794.6,87.0 795.4,87.5 796.2,88.0 797.0,88.4 797.8,88.9 798.6,89.4 799.5,90.0" fill="none" stroke="#e74c3c" stroke-width="1.5" stroke-linejoin="round" clip-path="url(#pc683)"/>
  <line x1="34" y1="207" x2="34" y2="362" stroke="#d1d5db"/>
  <line x1="34" y1="284.5" x2="399" y2="284.5" stroke="#d1d5db"/>
  <text x="216.5" y="388" text-anchor="middle" font-size="9" fill="#6b7280">Hz</text>
  <text x="12" y="284.5" text-anchor="middle" font-size="9" fill="#6b7280" transform="rotate(-90 12 284.5)">Group delay</text>
  <line x1="67.3" y1="207" x2="67.3" y2="362" stroke="#e5e7eb" stroke-width="0.5"/>
  <line x1="86.8" y1="207" x2="86.8" y2="362" stroke="#e5e7eb" stroke-width="0.5"/>
  <line x1="100.6" y1="207" x2="100.6" y2="362" stroke="#e5e7eb" stroke-width="0.5"/>
  <line x1="111.3" y1="207" x2="111.3" y2="362" stroke="#e5e7eb" stroke-width="0.5"/>
  <line x1="120.0" y1="207" x2="120.0" y2="362" stroke="#e5e7eb" stroke-width="0.5"/>
  <line x1="127.4" y1="207" x2="127.4" y2="362" stroke="#e5e7eb" stroke-width="0.5"/>
  <line x1="133.9" y1="207" x2="133.9" y2="362" stroke="#e5e7eb" stroke-width="0.5"/>
  <line x1="139.5" y1="207" x2="139.5" y2="362" stroke="#e5e7eb" stroke-width="0.5"/>
  <line x1="177.9" y1="207" x2="177.9" y2="362" stroke="#e5e7eb" stroke-width="0.5"/>
  <line x1="197.3" y1="207" x2="197.3" y2="362" stroke="#e5e7eb" stroke-width="0.5"/>
  <line x1="211.1" y1="207" x2="211.1" y2="362" stroke="#e5e7eb" stroke-width="0.5"/>
  <line x1="221.9" y1="207" x2="221.9" y2="362" stroke="#e5e7eb" stroke-width="0.5"/>
  <line x1="230.6" y1="207" x2="230.6" y2="362" stroke="#e5e7eb" stroke-width="0.5"/>
  <line x1="238.0" y1="207" x2="238.0" y2="362" stroke="#e5e7eb" stroke-width="0.5"/>
  <line x1="244.4" y1="207" x2="244.4" y2="362" stroke="#e5e7eb" stroke-width="0.5"/>
  <line x1="250.1" y1="207" x2="250.1" y2="362" stroke="#e5e7eb" stroke-width="0.5"/>
  <line x1="288.4" y1="207" x2="288.4" y2="362" stroke="#e5e7eb" stroke-width="0.5"/>
  <line x1="307.9" y1="207" x2="307.9" y2="362" stroke="#e5e7eb" stroke-width="0.5"/>
  <line x1="321.7" y1="207" x2="321.7" y2="362" stroke="#e5e7eb" stroke-width="0.5"/>
  <line x1="332.4" y1="207" x2="332.4" y2="362" stroke="#e5e7eb" stroke-width="0.5"/>
  <line x1="341.2" y1="207" x2="341.2" y2="362" stroke="#e5e7eb" stroke-width="0.5"/>
  <line x1="348.6" y1="207" x2="348.6" y2="362" stroke="#e5e7eb" stroke-width="0.5"/>
  <line x1="355.0" y1="207" x2="355.0" y2="362" stroke="#e5e7eb" stroke-width="0.5"/>
  <line x1="360.7" y1="207" x2="360.7" y2="362" stroke="#e5e7eb" stroke-width="0.5"/>
  <line x1="399.0" y1="207" x2="399.0" y2="362" stroke="#e5e7eb" stroke-width="0.5"/>
  <line x1="144.6" y1="207" x2="144.6" y2="362" stroke="#e5e7eb" stroke-width="0.5"/>
  <text x="144.6" y="374" text-anchor="middle" font-size="8" fill="#6b7280">100</text>
  <line x1="255.1" y1="207" x2="255.1" y2="362" stroke="#e5e7eb" stroke-width="0.5"/>
  <text x="255.1" y="374" text-anchor="middle" font-size="8" fill="#6b7280">1k</text>
  <line x1="365.7" y1="207" x2="365.7" y2="362" stroke="#e5e7eb" stroke-width="0.5"/>
  <text x="365.7" y="374" text-anchor="middle" font-size="8" fill="#6b7280">10k</text>
  <line x1="34" y1="340.0" x2="399" y2="340.0" stroke="#e5e7eb" stroke-width="0.5"/>
  <text x="30" y="343.0" text-anchor="end" font-size="8" fill="#6b7280">-30</text>
  <text x="30" y="287.5" text-anchor="end" font-size="8" fill="#6b7280">0</text>
  <line x1="34" y1="229.0" x2="399" y2="229.0" stroke="#e5e7eb" stroke-width="0.5"/>
  <text x="30" y="232.0" text-anchor="end" font-size="8" fill="#6b7280">30</text>
  <defs><linearGradient id="g684" x1="0" y1="207" x2="0" y2="284.5" gradientUnits="userSpaceOnUse">
    <stop offset="0%" stop-color="#2ecc71" stop-opacity="0.15"/>
    <stop offset="100%" stop-color="#2ecc71" stop-opacity="0.02"/>
  </linearGradient></defs>
  <defs><linearGradient id="g685" x1="0" y1="362" x2="0" y2="284.5" gradientUnits="userSpaceOnUse">
    <stop offset="0%" stop-color="#2ecc71" stop-opacity="0.15"/>
    <stop offset="100%" stop-color="#2ecc71" stop-opacity="0.02"/>
  </linearGradient></defs>
  <defs><clipPath id="c686"><rect x="34" y="207" width="365" height="77.5"/></clipPath></defs>
  <defs><clipPath id="c687"><rect x="34" y="284.5" width="365" height="77.5"/></clipPath></defs>
  <path d="M37.5,344.1 37.5,344.1 70.8,343.7 90.3,342.9 104.1,341.9 114.8,340.7 123.6,339.2 131.0,337.6 137.4,335.8 143.1,334.0 148.1,332.0 152.7,330.1 156.9,328.1 160.7,326.1 164.3,324.2 167.6,322.3 170.7,320.4 173.6,318.6 176.3,316.9 178.9,315.3 181.4,313.7 183.7,312.3 186.0,310.9 188.1,309.5 190.2,308.3 192.1,307.1 194.0,306.0 195.8,304.9 197.6,303.9 199.2,303.0 200.9,302.1 202.4,301.3 204.0,300.5 205.5,299.7 206.9,299.0 208.3,298.4 209.6,297.8 210.9,297.2 212.2,296.6 213.5,296.1 214.7,295.6 215.9,295.1 217.0,294.7 218.2,294.3 219.3,293.9 220.3,293.5 221.4,293.1 222.4,292.8 223.4,292.5 224.4,292.1 225.4,291.9 226.4,291.6 227.3,291.3 228.2,291.1 229.1,290.8 230.0,290.6 230.8,290.4 231.7,290.2 232.5,290.0 233.4,289.8 234.2,289.6 235.7,289.2 237.3,288.9 238.7,288.6 240.2,288.4 241.6,288.1 242.9,287.9 244.2,287.7 245.5,287.5 246.8,287.3 248.0,287.1 249.2,286.9 250.3,286.8 251.4,286.7 252.6,286.5 253.6,286.4 254.7,286.3 255.7,286.2 256.7,286.1 257.7,286.0 258.7,285.9 259.6,285.8 260.6,285.7 261.5,285.6 262.4,285.6 263.3,285.5 264.1,285.4 265.0,285.4 265.8,285.3 266.6,285.3 267.4,285.2 268.6,285.1 269.8,285.1 270.9,285.0 272.0,284.9 273.1,284.9 274.2,284.8 275.2,284.8 276.2,284.7 277.2,284.7 278.2,284.6 279.1,284.6 280.0,284.5 281.0,284.5 281.9,284.5 282.7,284.4 283.6,284.4 284.5,284.4 285.3,284.4 286.1,284.3 286.9,284.3 288.0,284.3 289.0,284.2 290.0,284.2 291.0,284.2 292.0,284.2 292.9,284.1 293.9,284.1 294.8,284.1 295.7,284.1 296.6,284.1 297.4,284.1 298.3,284.0 299.1,284.0 299.9,284.0 300.7,284.0 301.7,284.0 302.7,284.0 303.6,283.9 304.6,283.9 305.5,283.9 306.4,283.9 307.3,283.9 308.1,283.9 309.0,283.9 309.8,283.9 310.6,283.9 311.4,283.8 312.4,283.8 313.3,283.8 314.2,283.8 315.1,283.8 316.0,283.8 316.9,283.8 317.7,283.8 318.6,283.8 319.4,283.8 320.2,283.8 321.1,283.8 322.0,283.8 322.9,283.7 323.8,283.7 324.7,283.7 325.5,283.7 326.3,283.7 327.1,283.7 327.9,283.7 328.8,283.7 329.7,283.7 330.6,283.7 331.4,283.7 332.3,283.7 333.1,283.7 333.9,283.7 334.8,283.7 335.7,283.7 336.5,283.7 337.4,283.7 338.2,283.7 339.0,283.7 339.8,283.7 340.7,283.7 341.6,283.7 342.4,283.7 343.3,283.7 344.1,283.6 344.9,283.6 345.8,283.6 346.6,283.6 347.5,283.6 348.3,283.6 349.1,283.6 350.0,283.6 350.8,283.6 351.7,283.6 352.5,283.6 353.3,283.6 354.1,283.6 355.0,283.6 355.8,283.6 356.6,283.6 357.5,283.6 358.3,283.6 359.1,283.6 360.0,283.6 360.8,283.6 361.6,283.6 362.5,283.6 363.3,283.6 364.1,283.6 364.9,283.6 365.8,283.6 366.6,283.6 367.4,283.6 368.2,283.6 369.1,283.6 369.9,283.6 370.7,283.6 371.6,283.6 372.4,283.6 373.2,283.6 374.0,283.6 374.8,283.6 375.6,283.6 376.5,283.6 377.3,283.6 378.1,283.6 378.9,283.6 379.7,283.6 380.5,283.6 381.4,283.6 382.2,283.6 383.0,283.6 383.8,283.6 384.6,283.6 385.5,283.6 386.3,283.6 387.1,283.6 387.9,283.6 388.7,283.6 389.5,283.6 390.3,283.6 391.2,283.6 392.0,283.6 392.8,283.6 393.6,283.6 394.4,283.6 395.2,283.6 396.0,283.6 396.8,283.6 397.6,283.6 398.5,283.6 L398.5,284.5 L37.5,284.5 Z" fill="url(#g684)" clip-path="url(#c686)"/>
  <path d="M37.5,344.1 37.5,344.1 70.8,343.7 90.3,342.9 104.1,341.9 114.8,340.7 123.6,339.2 131.0,337.6 137.4,335.8 143.1,334.0 148.1,332.0 152.7,330.1 156.9,328.1 160.7,326.1 164.3,324.2 167.6,322.3 170.7,320.4 173.6,318.6 176.3,316.9 178.9,315.3 181.4,313.7 183.7,312.3 186.0,310.9 188.1,309.5 190.2,308.3 192.1,307.1 194.0,306.0 195.8,304.9 197.6,303.9 199.2,303.0 200.9,302.1 202.4,301.3 204.0,300.5 205.5,299.7 206.9,299.0 208.3,298.4 209.6,297.8 210.9,297.2 212.2,296.6 213.5,296.1 214.7,295.6 215.9,295.1 217.0,294.7 218.2,294.3 219.3,293.9 220.3,293.5 221.4,293.1 222.4,292.8 223.4,292.5 224.4,292.1 225.4,291.9 226.4,291.6 227.3,291.3 228.2,291.1 229.1,290.8 230.0,290.6 230.8,290.4 231.7,290.2 232.5,290.0 233.4,289.8 234.2,289.6 235.7,289.2 237.3,288.9 238.7,288.6 240.2,288.4 241.6,288.1 242.9,287.9 244.2,287.7 245.5,287.5 246.8,287.3 248.0,287.1 249.2,286.9 250.3,286.8 251.4,286.7 252.6,286.5 253.6,286.4 254.7,286.3 255.7,286.2 256.7,286.1 257.7,286.0 258.7,285.9 259.6,285.8 260.6,285.7 261.5,285.6 262.4,285.6 263.3,285.5 264.1,285.4 265.0,285.4 265.8,285.3 266.6,285.3 267.4,285.2 268.6,285.1 269.8,285.1 270.9,285.0 272.0,284.9 273.1,284.9 274.2,284.8 275.2,284.8 276.2,284.7 277.2,284.7 278.2,284.6 279.1,284.6 280.0,284.5 281.0,284.5 281.9,284.5 282.7,284.4 283.6,284.4 284.5,284.4 285.3,284.4 286.1,284.3 286.9,284.3 288.0,284.3 289.0,284.2 290.0,284.2 291.0,284.2 292.0,284.2 292.9,284.1 293.9,284.1 294.8,284.1 295.7,284.1 296.6,284.1 297.4,284.1 298.3,284.0 299.1,284.0 299.9,284.0 300.7,284.0 301.7,284.0 302.7,284.0 303.6,283.9 304.6,283.9 305.5,283.9 306.4,283.9 307.3,283.9 308.1,283.9 309.0,283.9 309.8,283.9 310.6,283.9 311.4,283.8 312.4,283.8 313.3,283.8 314.2,283.8 315.1,283.8 316.0,283.8 316.9,283.8 317.7,283.8 318.6,283.8 319.4,283.8 320.2,283.8 321.1,283.8 322.0,283.8 322.9,283.7 323.8,283.7 324.7,283.7 325.5,283.7 326.3,283.7 327.1,283.7 327.9,283.7 328.8,283.7 329.7,283.7 330.6,283.7 331.4,283.7 332.3,283.7 333.1,283.7 333.9,283.7 334.8,283.7 335.7,283.7 336.5,283.7 337.4,283.7 338.2,283.7 339.0,283.7 339.8,283.7 340.7,283.7 341.6,283.7 342.4,283.7 343.3,283.7 344.1,283.6 344.9,283.6 345.8,283.6 346.6,283.6 347.5,283.6 348.3,283.6 349.1,283.6 350.0,283.6 350.8,283.6 351.7,283.6 352.5,283.6 353.3,283.6 354.1,283.6 355.0,283.6 355.8,283.6 356.6,283.6 357.5,283.6 358.3,283.6 359.1,283.6 360.0,283.6 360.8,283.6 361.6,283.6 362.5,283.6 363.3,283.6 364.1,283.6 364.9,283.6 365.8,283.6 366.6,283.6 367.4,283.6 368.2,283.6 369.1,283.6 369.9,283.6 370.7,283.6 371.6,283.6 372.4,283.6 373.2,283.6 374.0,283.6 374.8,283.6 375.6,283.6 376.5,283.6 377.3,283.6 378.1,283.6 378.9,283.6 379.7,283.6 380.5,283.6 381.4,283.6 382.2,283.6 383.0,283.6 383.8,283.6 384.6,283.6 385.5,283.6 386.3,283.6 387.1,283.6 387.9,283.6 388.7,283.6 389.5,283.6 390.3,283.6 391.2,283.6 392.0,283.6 392.8,283.6 393.6,283.6 394.4,283.6 395.2,283.6 396.0,283.6 396.8,283.6 397.6,283.6 398.5,283.6 L398.5,284.5 L37.5,284.5 Z" fill="url(#g685)" clip-path="url(#c687)"/>
  <defs><clipPath id="pc688"><rect x="34" y="207" width="365" height="155"/></clipPath></defs>
  <polyline points="37.5,344.1 70.8,343.7 90.3,342.9 104.1,341.9 114.8,340.7 123.6,339.2 131.0,337.6 137.4,335.8 143.1,334.0 148.1,332.0 152.7,330.1 156.9,328.1 160.7,326.1 164.3,324.2 167.6,322.3 170.7,320.4 173.6,318.6 176.3,316.9 178.9,315.3 181.4,313.7 183.7,312.3 186.0,310.9 188.1,309.5 190.2,308.3 192.1,307.1 194.0,306.0 195.8,304.9 197.6,303.9 199.2,303.0 200.9,302.1 202.4,301.3 204.0,300.5 205.5,299.7 206.9,299.0 208.3,298.4 209.6,297.8 210.9,297.2 212.2,296.6 213.5,296.1 214.7,295.6 215.9,295.1 217.0,294.7 218.2,294.3 219.3,293.9 220.3,293.5 221.4,293.1 222.4,292.8 223.4,292.5 224.4,292.1 225.4,291.9 226.4,291.6 227.3,291.3 228.2,291.1 229.1,290.8 230.0,290.6 230.8,290.4 231.7,290.2 232.5,290.0 233.4,289.8 234.2,289.6 235.7,289.2 237.3,288.9 238.7,288.6 240.2,288.4 241.6,288.1 242.9,287.9 244.2,287.7 245.5,287.5 246.8,287.3 248.0,287.1 249.2,286.9 250.3,286.8 251.4,286.7 252.6,286.5 253.6,286.4 254.7,286.3 255.7,286.2 256.7,286.1 257.7,286.0 258.7,285.9 259.6,285.8 260.6,285.7 261.5,285.6 262.4,285.6 263.3,285.5 264.1,285.4 265.0,285.4 265.8,285.3 266.6,285.3 267.4,285.2 268.6,285.1 269.8,285.1 270.9,285.0 272.0,284.9 273.1,284.9 274.2,284.8 275.2,284.8 276.2,284.7 277.2,284.7 278.2,284.6 279.1,284.6 280.0,284.5 281.0,284.5 281.9,284.5 282.7,284.4 283.6,284.4 284.5,284.4 285.3,284.4 286.1,284.3 286.9,284.3 288.0,284.3 289.0,284.2 290.0,284.2 291.0,284.2 292.0,284.2 292.9,284.1 293.9,284.1 294.8,284.1 295.7,284.1 296.6,284.1 297.4,284.1 298.3,284.0 299.1,284.0 299.9,284.0 300.7,284.0 301.7,284.0 302.7,284.0 303.6,283.9 304.6,283.9 305.5,283.9 306.4,283.9 307.3,283.9 308.1,283.9 309.0,283.9 309.8,283.9 310.6,283.9 311.4,283.8 312.4,283.8 313.3,283.8 314.2,283.8 315.1,283.8 316.0,283.8 316.9,283.8 317.7,283.8 318.6,283.8 319.4,283.8 320.2,283.8 321.1,283.8 322.0,283.8 322.9,283.7 323.8,283.7 324.7,283.7 325.5,283.7 326.3,283.7 327.1,283.7 327.9,283.7 328.8,283.7 329.7,283.7 330.6,283.7 331.4,283.7 332.3,283.7 333.1,283.7 333.9,283.7 334.8,283.7 335.7,283.7 336.5,283.7 337.4,283.7 338.2,283.7 339.0,283.7 339.8,283.7 340.7,283.7 341.6,283.7 342.4,283.7 343.3,283.7 344.1,283.6 344.9,283.6 345.8,283.6 346.6,283.6 347.5,283.6 348.3,283.6 349.1,283.6 350.0,283.6 350.8,283.6 351.7,283.6 352.5,283.6 353.3,283.6 354.1,283.6 355.0,283.6 355.8,283.6 356.6,283.6 357.5,283.6 358.3,283.6 359.1,283.6 360.0,283.6 360.8,283.6 361.6,283.6 362.5,283.6 363.3,283.6 364.1,283.6 364.9,283.6 365.8,283.6 366.6,283.6 367.4,283.6 368.2,283.6 369.1,283.6 369.9,283.6 370.7,283.6 371.6,283.6 372.4,283.6 373.2,283.6 374.0,283.6 374.8,283.6 375.6,283.6 376.5,283.6 377.3,283.6 378.1,283.6 378.9,283.6 379.7,283.6 380.5,283.6 381.4,283.6 382.2,283.6 383.0,283.6 383.8,283.6 384.6,283.6 385.5,283.6 386.3,283.6 387.1,283.6 387.9,283.6 388.7,283.6 389.5,283.6 390.3,283.6 391.2,283.6 392.0,283.6 392.8,283.6 393.6,283.6 394.4,283.6 395.2,283.6 396.0,283.6 396.8,283.6 397.6,283.6 398.5,283.6" fill="none" stroke="#2ecc71" stroke-width="1.5" stroke-linejoin="round" clip-path="url(#pc688)"/>
  <line x1="435" y1="207" x2="435" y2="362" stroke="#d1d5db"/>
  <line x1="435" y1="284.5" x2="800" y2="284.5" stroke="#d1d5db"/>
  <text x="617.5" y="388" text-anchor="middle" font-size="9" fill="#6b7280">Samples</text>
  <text x="413" y="284.5" text-anchor="middle" font-size="9" fill="#6b7280" transform="rotate(-90 413 284.5)">Impulse response</text>
  <line x1="435.0" y1="207" x2="435.0" y2="362" stroke="#e5e7eb" stroke-width="0.5"/>
  <text x="435.0" y="374" text-anchor="middle" font-size="8" fill="#6b7280">0</text>
  <line x1="563.3" y1="207" x2="563.3" y2="362" stroke="#e5e7eb" stroke-width="0.5"/>
  <text x="563.3" y="374" text-anchor="middle" font-size="8" fill="#6b7280">90</text>
  <line x1="691.6" y1="207" x2="691.6" y2="362" stroke="#e5e7eb" stroke-width="0.5"/>
  <text x="691.6" y="374" text-anchor="middle" font-size="8" fill="#6b7280">180</text>
  <line x1="435" y1="338.8" x2="800" y2="338.8" stroke="#e5e7eb" stroke-width="0.5"/>
  <text x="431" y="341.8" text-anchor="end" font-size="8" fill="#6b7280">-0.7</text>
  <text x="431" y="287.5" text-anchor="end" font-size="8" fill="#6b7280">0</text>
  <line x1="435" y1="230.3" x2="800" y2="230.3" stroke="#e5e7eb" stroke-width="0.5"/>
  <text x="431" y="233.3" text-anchor="end" font-size="8" fill="#6b7280">0.7</text>
  <defs><linearGradient id="g689" x1="0" y1="207" x2="0" y2="284.5" gradientUnits="userSpaceOnUse">
    <stop offset="0%" stop-color="#f39c12" stop-opacity="0.15"/>
    <stop offset="100%" stop-color="#f39c12" stop-opacity="0.02"/>
  </linearGradient></defs>
  <defs><linearGradient id="g690" x1="0" y1="362" x2="0" y2="284.5" gradientUnits="userSpaceOnUse">
    <stop offset="0%" stop-color="#f39c12" stop-opacity="0.15"/>
    <stop offset="100%" stop-color="#f39c12" stop-opacity="0.02"/>
  </linearGradient></defs>
  <defs><clipPath id="c691"><rect x="435" y="207" width="365" height="77.5"/></clipPath></defs>
  <defs><clipPath id="c692"><rect x="435" y="284.5" width="365" height="77.5"/></clipPath></defs>
  <path d="M435.0,207.0 435.0,207.0 436.4,359.7 437.9,284.5 439.3,284.5 440.7,284.5 442.1,284.5 443.6,284.5 445.0,284.5 446.4,284.5 447.8,284.5 449.3,284.5 450.7,284.5 452.1,284.5 453.5,284.5 455.0,284.5 456.4,284.5 457.8,284.5 459.2,284.5 460.7,284.5 462.1,284.5 463.5,284.5 464.9,284.5 466.4,284.5 467.8,284.5 469.2,284.5 470.6,284.5 472.1,284.5 473.5,284.5 474.9,284.5 476.3,284.5 477.8,284.5 479.2,284.5 480.6,284.5 482.1,284.5 483.5,284.5 484.9,284.5 486.3,284.5 487.8,284.5 489.2,284.5 490.6,284.5 492.0,284.5 493.5,284.5 494.9,284.5 496.3,284.5 497.7,284.5 499.2,284.5 500.6,284.5 502.0,284.5 503.4,284.5 504.9,284.5 506.3,284.5 507.7,284.5 509.1,284.5 510.6,284.5 512.0,284.5 513.4,284.5 514.8,284.5 516.3,284.5 517.7,284.5 519.1,284.5 520.5,284.5 522.0,284.5 523.4,284.5 524.8,284.5 526.3,284.5 527.7,284.5 529.1,284.5 530.5,284.5 532.0,284.5 533.4,284.5 534.8,284.5 536.2,284.5 537.7,284.5 539.1,284.5 540.5,284.5 541.9,284.5 543.4,284.5 544.8,284.5 546.2,284.5 547.6,284.5 549.1,284.5 550.5,284.5 551.9,284.5 553.3,284.5 554.8,284.5 556.2,284.5 557.6,284.5 559.0,284.5 560.5,284.5 561.9,284.5 563.3,284.5 564.7,284.5 566.2,284.5 567.6,284.5 569.0,284.5 570.4,284.5 571.9,284.5 573.3,284.5 574.7,284.5 576.2,284.5 577.6,284.5 579.0,284.5 580.4,284.5 581.9,284.5 583.3,284.5 584.7,284.5 586.1,284.5 587.6,284.5 589.0,284.5 590.4,284.5 591.8,284.5 593.3,284.5 594.7,284.5 596.1,284.5 597.5,284.5 599.0,284.5 600.4,284.5 601.8,284.5 603.2,284.5 604.7,284.5 606.1,284.5 607.5,284.5 608.9,284.5 610.4,284.5 611.8,284.5 613.2,284.5 614.6,284.5 616.1,284.5 617.5,284.5 618.9,284.5 620.4,284.5 621.8,284.5 623.2,284.5 624.6,284.5 626.1,284.5 627.5,284.5 628.9,284.5 630.3,284.5 631.8,284.5 633.2,284.5 634.6,284.5 636.0,284.5 637.5,284.5 638.9,284.5 640.3,284.5 641.7,284.5 643.2,284.5 644.6,284.5 646.0,284.5 647.4,284.5 648.9,284.5 650.3,284.5 651.7,284.5 653.1,284.5 654.6,284.5 656.0,284.5 657.4,284.5 658.8,284.5 660.3,284.5 661.7,284.5 663.1,284.5 664.6,284.5 666.0,284.5 667.4,284.5 668.8,284.5 670.3,284.5 671.7,284.5 673.1,284.5 674.5,284.5 676.0,284.5 677.4,284.5 678.8,284.5 680.2,284.5 681.7,284.5 683.1,284.5 684.5,284.5 685.9,284.5 687.4,284.5 688.8,284.5 690.2,284.5 691.6,284.5 693.1,284.5 694.5,284.5 695.9,284.5 697.3,284.5 698.8,284.5 700.2,284.5 701.6,284.5 703.0,284.5 704.5,284.5 705.9,284.5 707.3,284.5 708.8,284.5 710.2,284.5 711.6,284.5 713.0,284.5 714.5,284.5 715.9,284.5 717.3,284.5 718.7,284.5 720.2,284.5 721.6,284.5 723.0,284.5 724.4,284.5 725.9,284.5 727.3,284.5 728.7,284.5 730.1,284.5 731.6,284.5 733.0,284.5 734.4,284.5 735.8,284.5 737.3,284.5 738.7,284.5 740.1,284.5 741.5,284.5 743.0,284.5 744.4,284.5 745.8,284.5 747.2,284.5 748.7,284.5 750.1,284.5 751.5,284.5 752.9,284.5 754.4,284.5 755.8,284.5 757.2,284.5 758.7,284.5 760.1,284.5 761.5,284.5 762.9,284.5 764.4,284.5 765.8,284.5 767.2,284.5 768.6,284.5 770.1,284.5 771.5,284.5 772.9,284.5 774.3,284.5 775.8,284.5 777.2,284.5 778.6,284.5 780.0,284.5 781.5,284.5 782.9,284.5 784.3,284.5 785.7,284.5 787.2,284.5 788.6,284.5 790.0,284.5 791.4,284.5 792.9,284.5 794.3,284.5 795.7,284.5 797.1,284.5 798.6,284.5 L798.6,284.5 L435.0,284.5 Z" fill="url(#g689)" clip-path="url(#c691)"/>
  <path d="M435.0,207.0 435.0,207.0 436.4,359.7 437.9,284.5 439.3,284.5 440.7,284.5 442.1,284.5 443.6,284.5 445.0,284.5 446.4,284.5 447.8,284.5 449.3,284.5 450.7,284.5 452.1,284.5 453.5,284.5 455.0,284.5 456.4,284.5 457.8,284.5 459.2,284.5 460.7,284.5 462.1,284.5 463.5,284.5 464.9,284.5 466.4,284.5 467.8,284.5 469.2,284.5 470.6,284.5 472.1,284.5 473.5,284.5 474.9,284.5 476.3,284.5 477.8,284.5 479.2,284.5 480.6,284.5 482.1,284.5 483.5,284.5 484.9,284.5 486.3,284.5 487.8,284.5 489.2,284.5 490.6,284.5 492.0,284.5 493.5,284.5 494.9,284.5 496.3,284.5 497.7,284.5 499.2,284.5 500.6,284.5 502.0,284.5 503.4,284.5 504.9,284.5 506.3,284.5 507.7,284.5 509.1,284.5 510.6,284.5 512.0,284.5 513.4,284.5 514.8,284.5 516.3,284.5 517.7,284.5 519.1,284.5 520.5,284.5 522.0,284.5 523.4,284.5 524.8,284.5 526.3,284.5 527.7,284.5 529.1,284.5 530.5,284.5 532.0,284.5 533.4,284.5 534.8,284.5 536.2,284.5 537.7,284.5 539.1,284.5 540.5,284.5 541.9,284.5 543.4,284.5 544.8,284.5 546.2,284.5 547.6,284.5 549.1,284.5 550.5,284.5 551.9,284.5 553.3,284.5 554.8,284.5 556.2,284.5 557.6,284.5 559.0,284.5 560.5,284.5 561.9,284.5 563.3,284.5 564.7,284.5 566.2,284.5 567.6,284.5 569.0,284.5 570.4,284.5 571.9,284.5 573.3,284.5 574.7,284.5 576.2,284.5 577.6,284.5 579.0,284.5 580.4,284.5 581.9,284.5 583.3,284.5 584.7,284.5 586.1,284.5 587.6,284.5 589.0,284.5 590.4,284.5 591.8,284.5 593.3,284.5 594.7,284.5 596.1,284.5 597.5,284.5 599.0,284.5 600.4,284.5 601.8,284.5 603.2,284.5 604.7,284.5 606.1,284.5 607.5,284.5 608.9,284.5 610.4,284.5 611.8,284.5 613.2,284.5 614.6,284.5 616.1,284.5 617.5,284.5 618.9,284.5 620.4,284.5 621.8,284.5 623.2,284.5 624.6,284.5 626.1,284.5 627.5,284.5 628.9,284.5 630.3,284.5 631.8,284.5 633.2,284.5 634.6,284.5 636.0,284.5 637.5,284.5 638.9,284.5 640.3,284.5 641.7,284.5 643.2,284.5 644.6,284.5 646.0,284.5 647.4,284.5 648.9,284.5 650.3,284.5 651.7,284.5 653.1,284.5 654.6,284.5 656.0,284.5 657.4,284.5 658.8,284.5 660.3,284.5 661.7,284.5 663.1,284.5 664.6,284.5 666.0,284.5 667.4,284.5 668.8,284.5 670.3,284.5 671.7,284.5 673.1,284.5 674.5,284.5 676.0,284.5 677.4,284.5 678.8,284.5 680.2,284.5 681.7,284.5 683.1,284.5 684.5,284.5 685.9,284.5 687.4,284.5 688.8,284.5 690.2,284.5 691.6,284.5 693.1,284.5 694.5,284.5 695.9,284.5 697.3,284.5 698.8,284.5 700.2,284.5 701.6,284.5 703.0,284.5 704.5,284.5 705.9,284.5 707.3,284.5 708.8,284.5 710.2,284.5 711.6,284.5 713.0,284.5 714.5,284.5 715.9,284.5 717.3,284.5 718.7,284.5 720.2,284.5 721.6,284.5 723.0,284.5 724.4,284.5 725.9,284.5 727.3,284.5 728.7,284.5 730.1,284.5 731.6,284.5 733.0,284.5 734.4,284.5 735.8,284.5 737.3,284.5 738.7,284.5 740.1,284.5 741.5,284.5 743.0,284.5 744.4,284.5 745.8,284.5 747.2,284.5 748.7,284.5 750.1,284.5 751.5,284.5 752.9,284.5 754.4,284.5 755.8,284.5 757.2,284.5 758.7,284.5 760.1,284.5 761.5,284.5 762.9,284.5 764.4,284.5 765.8,284.5 767.2,284.5 768.6,284.5 770.1,284.5 771.5,284.5 772.9,284.5 774.3,284.5 775.8,284.5 777.2,284.5 778.6,284.5 780.0,284.5 781.5,284.5 782.9,284.5 784.3,284.5 785.7,284.5 787.2,284.5 788.6,284.5 790.0,284.5 791.4,284.5 792.9,284.5 794.3,284.5 795.7,284.5 797.1,284.5 798.6,284.5 L798.6,284.5 L435.0,284.5 Z" fill="url(#g690)" clip-path="url(#c692)"/>
  <defs><clipPath id="pc693"><rect x="435" y="207" width="365" height="155"/></clipPath></defs>
  <polyline points="435.0,207.0 436.4,359.7 437.9,284.5 439.3,284.5 440.7,284.5 442.1,284.5 443.6,284.5 445.0,284.5 446.4,284.5 447.8,284.5 449.3,284.5 450.7,284.5 452.1,284.5 453.5,284.5 455.0,284.5 456.4,284.5 457.8,284.5 459.2,284.5 460.7,284.5 462.1,284.5 463.5,284.5 464.9,284.5 466.4,284.5 467.8,284.5 469.2,284.5 470.6,284.5 472.1,284.5 473.5,284.5 474.9,284.5 476.3,284.5 477.8,284.5 479.2,284.5 480.6,284.5 482.1,284.5 483.5,284.5 484.9,284.5 486.3,284.5 487.8,284.5 489.2,284.5 490.6,284.5 492.0,284.5 493.5,284.5 494.9,284.5 496.3,284.5 497.7,284.5 499.2,284.5 500.6,284.5 502.0,284.5 503.4,284.5 504.9,284.5 506.3,284.5 507.7,284.5 509.1,284.5 510.6,284.5 512.0,284.5 513.4,284.5 514.8,284.5 516.3,284.5 517.7,284.5 519.1,284.5 520.5,284.5 522.0,284.5 523.4,284.5 524.8,284.5 526.3,284.5 527.7,284.5 529.1,284.5 530.5,284.5 532.0,284.5 533.4,284.5 534.8,284.5 536.2,284.5 537.7,284.5 539.1,284.5 540.5,284.5 541.9,284.5 543.4,284.5 544.8,284.5 546.2,284.5 547.6,284.5 549.1,284.5 550.5,284.5 551.9,284.5 553.3,284.5 554.8,284.5 556.2,284.5 557.6,284.5 559.0,284.5 560.5,284.5 561.9,284.5 563.3,284.5 564.7,284.5 566.2,284.5 567.6,284.5 569.0,284.5 570.4,284.5 571.9,284.5 573.3,284.5 574.7,284.5 576.2,284.5 577.6,284.5 579.0,284.5 580.4,284.5 581.9,284.5 583.3,284.5 584.7,284.5 586.1,284.5 587.6,284.5 589.0,284.5 590.4,284.5 591.8,284.5 593.3,284.5 594.7,284.5 596.1,284.5 597.5,284.5 599.0,284.5 600.4,284.5 601.8,284.5 603.2,284.5 604.7,284.5 606.1,284.5 607.5,284.5 608.9,284.5 610.4,284.5 611.8,284.5 613.2,284.5 614.6,284.5 616.1,284.5 617.5,284.5 618.9,284.5 620.4,284.5 621.8,284.5 623.2,284.5 624.6,284.5 626.1,284.5 627.5,284.5 628.9,284.5 630.3,284.5 631.8,284.5 633.2,284.5 634.6,284.5 636.0,284.5 637.5,284.5 638.9,284.5 640.3,284.5 641.7,284.5 643.2,284.5 644.6,284.5 646.0,284.5 647.4,284.5 648.9,284.5 650.3,284.5 651.7,284.5 653.1,284.5 654.6,284.5 656.0,284.5 657.4,284.5 658.8,284.5 660.3,284.5 661.7,284.5 663.1,284.5 664.6,284.5 666.0,284.5 667.4,284.5 668.8,284.5 670.3,284.5 671.7,284.5 673.1,284.5 674.5,284.5 676.0,284.5 677.4,284.5 678.8,284.5 680.2,284.5 681.7,284.5 683.1,284.5 684.5,284.5 685.9,284.5 687.4,284.5 688.8,284.5 690.2,284.5 691.6,284.5 693.1,284.5 694.5,284.5 695.9,284.5 697.3,284.5 698.8,284.5 700.2,284.5 701.6,284.5 703.0,284.5 704.5,284.5 705.9,284.5 707.3,284.5 708.8,284.5 710.2,284.5 711.6,284.5 713.0,284.5 714.5,284.5 715.9,284.5 717.3,284.5 718.7,284.5 720.2,284.5 721.6,284.5 723.0,284.5 724.4,284.5 725.9,284.5 727.3,284.5 728.7,284.5 730.1,284.5 731.6,284.5 733.0,284.5 734.4,284.5 735.8,284.5 737.3,284.5 738.7,284.5 740.1,284.5 741.5,284.5 743.0,284.5 744.4,284.5 745.8,284.5 747.2,284.5 748.7,284.5 750.1,284.5 751.5,284.5 752.9,284.5 754.4,284.5 755.8,284.5 757.2,284.5 758.7,284.5 760.1,284.5 761.5,284.5 762.9,284.5 764.4,284.5 765.8,284.5 767.2,284.5 768.6,284.5 770.1,284.5 771.5,284.5 772.9,284.5 774.3,284.5 775.8,284.5 777.2,284.5 778.6,284.5 780.0,284.5 781.5,284.5 782.9,284.5 784.3,284.5 785.7,284.5 787.2,284.5 788.6,284.5 790.0,284.5 791.4,284.5 792.9,284.5 794.3,284.5 795.7,284.5 797.1,284.5 798.6,284.5" fill="none" stroke="#f39c12" stroke-width="1.3" stroke-linejoin="round" clip-path="url(#pc693)"/>
</svg>
