<svg xmlns="http://www.w3.org/2000/svg" viewBox="0 0 820 392" style="font-family:system-ui,-apple-system,sans-serif">
  <text x="800" y="11" text-anchor="end" font-size="11" font-weight="600" fill="#6b7280">Raised cosine, β=0.35, 4 sps</text>
  <line x1="34" y1="16" x2="34" y2="171" stroke="#d1d5db"/>
  <line x1="34" y1="47.0" x2="392" y2="47.0" stroke="#d1d5db"/>
  <text x="213" y="197" text-anchor="middle" font-size="9" fill="#6b7280">Hz</text>
  <text x="12" y="93.5" text-anchor="middle" font-size="9" fill="#6b7280" transform="rotate(-90 12 93.5)">dB</text>
  <line x1="66.6" y1="16" x2="66.6" y2="171" stroke="#e5e7eb" stroke-width="0.5"/>
  <line x1="85.7" y1="16" x2="85.7" y2="171" stroke="#e5e7eb" stroke-width="0.5"/>
  <line x1="99.3" y1="16" x2="99.3" y2="171" stroke="#e5e7eb" stroke-width="0.5"/>
  <line x1="109.8" y1="16" x2="109.8" y2="171" stroke="#e5e7eb" stroke-width="0.5"/>
  <line x1="118.4" y1="16" x2="118.4" y2="171" stroke="#e5e7eb" stroke-width="0.5"/>
  <line x1="125.7" y1="16" x2="125.7" y2="171" stroke="#e5e7eb" stroke-width="0.5"/>
  <line x1="131.9" y1="16" x2="131.9" y2="171" stroke="#e5e7eb" stroke-width="0.5"/>
  <line x1="137.5" y1="16" x2="137.5" y2="171" stroke="#e5e7eb" stroke-width="0.5"/>
  <line x1="175.1" y1="16" x2="175.1" y2="171" stroke="#e5e7eb" stroke-width="0.5"/>
  <line x1="194.2" y1="16" x2="194.2" y2="171" stroke="#e5e7eb" stroke-width="0.5"/>
  <line x1="207.7" y1="16" x2="207.7" y2="171" stroke="#e5e7eb" stroke-width="0.5"/>
  <line x1="218.3" y1="16" x2="218.3" y2="171" stroke="#e5e7eb" stroke-width="0.5"/>
  <line x1="226.8" y1="16" x2="226.8" y2="171" stroke="#e5e7eb" stroke-width="0.5"/>
  <line x1="234.1" y1="16" x2="234.1" y2="171" stroke="#e5e7eb" stroke-width="0.5"/>
  <line x1="240.4" y1="16" x2="240.4" y2="171" stroke="#e5e7eb" stroke-width="0.5"/>
  <line x1="245.9" y1="16" x2="245.9" y2="171" stroke="#e5e7eb" stroke-width="0.5"/>
  <line x1="283.5" y1="16" x2="283.5" y2="171" stroke="#e5e7eb" stroke-width="0.5"/>
  <line x1="302.6" y1="16" x2="302.6" y2="171" stroke="#e5e7eb" stroke-width="0.5"/>
  <line x1="316.2" y1="16" x2="316.2" y2="171" stroke="#e5e7eb" stroke-width="0.5"/>
  <line x1="326.7" y1="16" x2="326.7" y2="171" stroke="#e5e7eb" stroke-width="0.5"/>
  <line x1="335.3" y1="16" x2="335.3" y2="171" stroke="#e5e7eb" stroke-width="0.5"/>
  <line x1="342.6" y1="16" x2="342.6" y2="171" stroke="#e5e7eb" stroke-width="0.5"/>
  <line x1="348.8" y1="16" x2="348.8" y2="171" stroke="#e5e7eb" stroke-width="0.5"/>
  <line x1="354.4" y1="16" x2="354.4" y2="171" stroke="#e5e7eb" stroke-width="0.5"/>
  <line x1="392.0" y1="16" x2="392.0" y2="171" stroke="#e5e7eb" stroke-width="0.5"/>
  <line x1="142.5" y1="16" x2="142.5" y2="171" stroke="#e5e7eb" stroke-width="0.5"/>
  <text x="142.5" y="183" text-anchor="middle" font-size="8" fill="#6b7280">100</text>
  <line x1="250.9" y1="16" x2="250.9" y2="171" stroke="#e5e7eb" stroke-width="0.5"/>
  <text x="250.9" y="183" text-anchor="middle" font-size="8" fill="#6b7280">1k</text>
  <line x1="359.4" y1="16" x2="359.4" y2="171" stroke="#e5e7eb" stroke-width="0.5"/>
  <text x="359.4" y="183" text-anchor="middle" font-size="8" fill="#6b7280">10k</text>
  <line x1="34" y1="31.5" x2="392" y2="31.5" stroke="#e5e7eb" stroke-width="0.5"/>
  <line x1="34" y1="62.5" x2="392" y2="62.5" stroke="#e5e7eb" stroke-width="0.5"/>
  <line x1="34" y1="16.0" x2="392" y2="16.0" stroke="#e5e7eb" stroke-width="0.5"/>
  <text x="30" y="19.0" text-anchor="end" font-size="8" fill="#6b7280">+20</text>
  <text x="30" y="50.0" text-anchor="end" font-size="8" fill="#6b7280">0</text>
  <line x1="34" y1="78.0" x2="392" y2="78.0" stroke="#e5e7eb" stroke-width="0.5"/>
  <text x="30" y="81.0" text-anchor="end" font-size="8" fill="#6b7280">-20</text>
  <line x1="34" y1="109.0" x2="392" y2="109.0" stroke="#e5e7eb" stroke-width="0.5"/>
  <text x="30" y="112.0" text-anchor="end" font-size="8" fill="#6b7280">-40</text>
  <line x1="34" y1="140.0" x2="392" y2="140.0" stroke="#e5e7eb" stroke-width="0.5"/>
  <text x="30" y="143.0" text-anchor="end" font-size="8" fill="#6b7280">-60</text>
  <line x1="34" y1="171.0" x2="392" y2="171.0" stroke="#e5e7eb" stroke-width="0.5"/>
  <text x="30" y="174.0" text-anchor="end" font-size="8" fill="#6b7280">-80</text>
  <defs><linearGradient id="g443" x1="0" y1="16" x2="0" y2="171" gradientUnits="userSpaceOnUse">
    <stop offset="0%" stop-color="#4a90d9" stop-opacity="0.15"/>
    <stop offset="100%" stop-color="#4a90d9" stop-opacity="0.02"/>
  </linearGradient></defs>
  <path d="M37.5,37.1 37.5,37.1 70.1,37.1 89.2,37.1 102.8,37.1 113.3,37.1 121.9,37.1 129.1,37.1 135.4,37.1 141.0,37.1 145.9,37.1 150.4,37.1 154.5,37.1 158.3,37.1 161.8,37.1 165.0,37.1 168.1,37.1 170.9,37.1 173.6,37.1 176.2,37.1 178.6,37.1 180.9,37.1 183.1,37.1 185.2,37.1 187.2,37.1 189.1,37.1 190.9,37.1 192.7,37.1 194.4,37.1 196.1,37.1 197.7,37.1 199.2,37.1 200.7,37.1 202.2,37.1 203.6,37.1 204.9,37.1 206.3,37.0 207.6,37.0 208.8,37.0 210.0,37.0 211.2,37.0 212.4,37.0 213.5,37.0 214.6,37.0 215.7,37.0 216.8,37.0 217.8,37.0 218.8,37.0 219.8,37.0 220.8,37.0 221.7,37.0 222.7,37.0 223.6,37.0 224.5,37.0 225.4,37.0 226.2,37.0 227.1,37.0 227.9,37.0 228.7,37.0 229.5,37.0 231.1,37.0 232.6,37.0 234.1,37.0 235.5,37.0 236.9,37.0 238.2,37.0 239.6,37.0 240.8,37.0 242.1,37.0 243.3,37.0 244.5,37.0 245.6,37.0 246.7,37.0 247.8,37.0 248.9,37.0 249.9,37.0 251.0,37.0 252.0,37.1 252.9,37.1 253.9,37.1 254.8,37.1 255.8,37.1 256.7,37.1 257.6,37.1 258.4,37.1 259.3,37.1 260.1,37.1 261.0,37.1 261.8,37.1 263.0,37.1 264.1,37.1 265.3,37.1 266.4,37.1 267.5,37.1 268.5,37.1 269.6,37.1 270.6,37.1 271.6,37.1 272.5,37.1 273.5,37.1 274.4,37.1 275.3,37.1 276.2,37.1 277.1,37.1 278.0,37.0 278.8,37.0 279.6,37.0 280.5,37.0 281.3,37.0 282.3,37.0 283.4,37.0 284.4,37.0 285.3,37.0 286.3,37.0 287.3,37.0 288.2,37.0 289.1,37.0 290.0,37.0 290.9,37.0 291.7,37.0 292.6,37.1 293.4,37.1 294.2,37.1 295.0,37.1 296.0,37.1 297.0,37.1 297.9,37.1 298.8,37.1 299.7,37.1 300.6,37.1 301.5,37.1 302.4,37.1 303.2,37.1 304.0,37.0 304.9,37.0 305.8,37.0 306.7,37.0 307.7,37.0 308.6,37.0 309.5,37.0 310.3,37.0 311.2,37.1 312.0,37.1 312.8,37.1 313.7,37.2 314.6,37.3 315.5,37.4 316.4,37.5 317.3,37.6 318.1,37.8 319.0,38.0 319.8,38.3 320.6,38.5 321.4,38.8 322.3,39.2 323.2,39.6 324.1,40.1 324.9,40.6 325.7,41.1 326.6,41.7 327.4,42.3 328.3,43.1 329.1,43.9 330.0,44.8 330.8,45.8 331.7,46.9 332.5,48.0 333.3,49.2 334.2,50.7 335.0,52.4 335.9,54.2 336.7,56.2 337.5,58.4 338.4,61.2 339.2,64.3 340.1,67.9 340.9,72.1 341.7,77.1 342.5,83.0 343.4,91.1 344.2,102.3 345.1,123.0 345.9,126.3 346.7,119.9 347.6,124.2 348.4,142.2 349.2,137.1 350.0,128.8 350.9,129.9 351.7,139.7 352.6,155.5 353.4,136.8 354.2,134.7 355.1,141.0 355.9,171.0 356.7,143.1 357.6,138.9 358.4,144.2 359.2,171.0 360.0,146.5 360.9,142.4 361.7,149.1 362.5,170.8 363.3,146.8 364.2,146.2 365.0,160.4 365.8,155.9 366.6,147.4 367.4,153.2 368.3,171.0 369.1,150.3 369.9,152.0 370.7,171.0 371.5,153.0 372.4,152.8 373.2,171.0 374.0,154.5 374.8,154.5 375.6,171.0 376.4,154.6 377.2,158.2 378.1,168.6 378.9,154.8 379.7,168.3 380.5,159.5 381.3,157.6 382.1,171.0 383.0,156.6 383.8,171.0 384.6,159.7 385.4,161.9 386.2,165.8 387.0,159.2 387.9,171.0 388.7,158.6 389.5,171.0 390.3,158.7 391.1,171.0 391.9,159.0 L391.9,171.0 L37.5,171.0 Z" fill="url(#g443)"/>
  <defs><clipPath id="pc444"><rect x="34" y="16" width="358" height="155"/></clipPath></defs>
  <polyline points="37.5,37.1 70.1,37.1 89.2,37.1 102.8,37.1 113.3,37.1 121.9,37.1 129.1,37.1 135.4,37.1 141.0,37.1 145.9,37.1 150.4,37.1 154.5,37.1 158.3,37.1 161.8,37.1 165.0,37.1 168.1,37.1 170.9,37.1 173.6,37.1 176.2,37.1 178.6,37.1 180.9,37.1 183.1,37.1 185.2,37.1 187.2,37.1 189.1,37.1 190.9,37.1 192.7,37.1 194.4,37.1 196.1,37.1 197.7,37.1 199.2,37.1 200.7,37.1 202.2,37.1 203.6,37.1 204.9,37.1 206.3,37.0 207.6,37.0 208.8,37.0 210.0,37.0 211.2,37.0 212.4,37.0 213.5,37.0 214.6,37.0 215.7,37.0 216.8,37.0 217.8,37.0 218.8,37.0 219.8,37.0 220.8,37.0 221.7,37.0 222.7,37.0 223.6,37.0 224.5,37.0 225.4,37.0 226.2,37.0 227.1,37.0 227.9,37.0 228.7,37.0 229.5,37.0 231.1,37.0 232.6,37.0 234.1,37.0 235.5,37.0 236.9,37.0 238.2,37.0 239.6,37.0 240.8,37.0 242.1,37.0 243.3,37.0 244.5,37.0 245.6,37.0 246.7,37.0 247.8,37.0 248.9,37.0 249.9,37.0 251.0,37.0 252.0,37.1 252.9,37.1 253.9,37.1 254.8,37.1 255.8,37.1 256.7,37.1 257.6,37.1 258.4,37.1 259.3,37.1 260.1,37.1 261.0,37.1 261.8,37.1 263.0,37.1 264.1,37.1 265.3,37.1 266.4,37.1 267.5,37.1 268.5,37.1 269.6,37.1 270.6,37.1 271.6,37.1 272.5,37.1 273.5,37.1 274.4,37.1 275.3,37.1 276.2,37.1 277.1,37.1 278.0,37.0 278.8,37.0 279.6,37.0 280.5,37.0 281.3,37.0 282.3,37.0 283.4,37.0 284.4,37.0 285.3,37.0 286.3,37.0 287.3,37.0 288.2,37.0 289.1,37.0 290.0,37.0 290.9,37.0 291.7,37.0 292.6,37.1 293.4,37.1 294.2,37.1 295.0,37.1 296.0,37.1 297.0,37.1 297.9,37.1 298.8,37.1 299.7,37.1 300.6,37.1 301.5,37.1 302.4,37.1 303.2,37.1 304.0,37.0 304.9,37.0 305.8,37.0 306.7,37.0 307.7,37.0 308.6,37.0 309.5,37.0 310.3,37.0 311.2,37.1 312.0,37.1 312.8,37.1 313.7,37.2 314.6,37.3 315.5,37.4 316.4,37.5 317.3,37.6 318.1,37.8 319.0,38.0 319.8,38.3 320.6,38.5 321.4,38.8 322.3,39.2 323.2,39.6 324.1,40.1 324.9,40.6 325.7,41.1 326.6,41.7 327.4,42.3 328.3,43.1 329.1,43.9 330.0,44.8 330.8,45.8 331.7,46.9 332.5,48.0 333.3,49.2 334.2,50.7 335.0,52.4 335.9,54.2 336.7,56.2 337.5,58.4 338.4,61.2 339.2,64.3 340.1,67.9 340.9,72.1 341.7,77.1 342.5,83.0 343.4,91.1 344.2,102.3 345.1,123.0 345.9,126.3 346.7,119.9 347.6,124.2 348.4,142.2 349.2,137.1 350.0,128.8 350.9,129.9 351.7,139.7 352.6,155.5 353.4,136.8 354.2,134.7 355.1,141.0 355.9,244.4 356.7,143.1 357.6,138.9 358.4,144.2 359.2,193.2 360.0,146.5 360.9,142.4 361.7,149.1 362.5,170.8 363.3,146.8 364.2,146.2 365.0,160.4 365.8,155.9 366.6,147.4 367.4,153.2 368.3,171.5 369.1,150.3 369.9,152.0 370.7,204.4 371.5,153.0 372.4,152.8 373.2,187.0 374.0,154.5 374.8,154.5 375.6,189.4 376.4,154.6 377.2,158.2 378.1,168.6 378.9,154.8 379.7,168.3 380.5,159.5 381.3,157.6 382.1,178.2 383.0,156.6 383.8,171.3 384.6,159.7 385.4,161.9 386.2,165.8 387.0,159.2 387.9,175.6 388.7,158.6 389.5,193.6 390.3,158.7 391.1,206.3 391.9,159.0" fill="none" stroke="#4a90d9" stroke-width="1.5" stroke-linejoin="round" clip-path="url(#pc444)"/>
  <line x1="442" y1="16" x2="442" y2="171" stroke="#d1d5db"/>
  <line x1="442" y1="93.5" x2="800" y2="93.5" stroke="#d1d5db"/>
  <text x="621" y="197" text-anchor="middle" font-size="9" fill="#6b7280">Hz</text>
  <text x="420" y="93.5" text-anchor="middle" font-size="9" fill="#6b7280" transform="rotate(-90 420 93.5)">Phase (deg)</text>
  <line x1="474.6" y1="16" x2="474.6" y2="171" stroke="#e5e7eb" stroke-width="0.5"/>
  <line x1="493.7" y1="16" x2="493.7" y2="171" stroke="#e5e7eb" stroke-width="0.5"/>
  <line x1="507.3" y1="16" x2="507.3" y2="171" stroke="#e5e7eb" stroke-width="0.5"/>
  <line x1="517.8" y1="16" x2="517.8" y2="171" stroke="#e5e7eb" stroke-width="0.5"/>
  <line x1="526.4" y1="16" x2="526.4" y2="171" stroke="#e5e7eb" stroke-width="0.5"/>
  <line x1="533.7" y1="16" x2="533.7" y2="171" stroke="#e5e7eb" stroke-width="0.5"/>
  <line x1="539.9" y1="16" x2="539.9" y2="171" stroke="#e5e7eb" stroke-width="0.5"/>
  <line x1="545.5" y1="16" x2="545.5" y2="171" stroke="#e5e7eb" stroke-width="0.5"/>
  <line x1="583.1" y1="16" x2="583.1" y2="171" stroke="#e5e7eb" stroke-width="0.5"/>
  <line x1="602.2" y1="16" x2="602.2" y2="171" stroke="#e5e7eb" stroke-width="0.5"/>
  <line x1="615.7" y1="16" x2="615.7" y2="171" stroke="#e5e7eb" stroke-width="0.5"/>
  <line x1="626.3" y1="16" x2="626.3" y2="171" stroke="#e5e7eb" stroke-width="0.5"/>
  <line x1="634.8" y1="16" x2="634.8" y2="171" stroke="#e5e7eb" stroke-width="0.5"/>
  <line x1="642.1" y1="16" x2="642.1" y2="171" stroke="#e5e7eb" stroke-width="0.5"/>
  <line x1="648.4" y1="16" x2="648.4" y2="171" stroke="#e5e7eb" stroke-width="0.5"/>
  <line x1="653.9" y1="16" x2="653.9" y2="171" stroke="#e5e7eb" stroke-width="0.5"/>
  <line x1="691.5" y1="16" x2="691.5" y2="171" stroke="#e5e7eb" stroke-width="0.5"/>
  <line x1="710.6" y1="16" x2="710.6" y2="171" stroke="#e5e7eb" stroke-width="0.5"/>
  <line x1="724.2" y1="16" x2="724.2" y2="171" stroke="#e5e7eb" stroke-width="0.5"/>
  <line x1="734.7" y1="16" x2="734.7" y2="171" stroke="#e5e7eb" stroke-width="0.5"/>
  <line x1="743.3" y1="16" x2="743.3" y2="171" stroke="#e5e7eb" stroke-width="0.5"/>
  <line x1="750.6" y1="16" x2="750.6" y2="171" stroke="#e5e7eb" stroke-width="0.5"/>
  <line x1="756.8" y1="16" x2="756.8" y2="171" stroke="#e5e7eb" stroke-width="0.5"/>
  <line x1="762.4" y1="16" x2="762.4" y2="171" stroke="#e5e7eb" stroke-width="0.5"/>
  <line x1="800.0" y1="16" x2="800.0" y2="171" stroke="#e5e7eb" stroke-width="0.5"/>
  <line x1="550.5" y1="16" x2="550.5" y2="171" stroke="#e5e7eb" stroke-width="0.5"/>
  <text x="550.5" y="183" text-anchor="middle" font-size="8" fill="#6b7280">100</text>
  <line x1="658.9" y1="16" x2="658.9" y2="171" stroke="#e5e7eb" stroke-width="0.5"/>
  <text x="658.9" y="183" text-anchor="middle" font-size="8" fill="#6b7280">1k</text>
  <line x1="767.4" y1="16" x2="767.4" y2="171" stroke="#e5e7eb" stroke-width="0.5"/>
  <text x="767.4" y="183" text-anchor="middle" font-size="8" fill="#6b7280">10k</text>
  <line x1="442" y1="54.8" x2="800" y2="54.8" stroke="#e5e7eb" stroke-width="0.5"/>
  <line x1="442" y1="132.3" x2="800" y2="132.3" stroke="#e5e7eb" stroke-width="0.5"/>
  <line x1="442" y1="16.0" x2="800" y2="16.0" stroke="#e5e7eb" stroke-width="0.5"/>
  <text x="438" y="19.0" text-anchor="end" font-size="8" fill="#6b7280">180</text>
  <text x="438" y="96.5" text-anchor="end" font-size="8" fill="#6b7280">0</text>
  <line x1="442" y1="171.0" x2="800" y2="171.0" stroke="#e5e7eb" stroke-width="0.5"/>
  <text x="438" y="174.0" text-anchor="end" font-size="8" fill="#6b7280">-180</text>
  <defs><linearGradient id="g445" x1="0" y1="16" x2="0" y2="93.5" gradientUnits="userSpaceOnUse">
    <stop offset="0%" stop-color="#e74c3c" stop-opacity="0.15"/>
    <stop offset="100%" stop-color="#e74c3c" stop-opacity="0.02"/>
  </linearGradient></defs>
  <defs><linearGradient id="g446" x1="0" y1="171" x2="0" y2="93.5" gradientUnits="userSpaceOnUse">
    <stop offset="0%" stop-color="#e74c3c" stop-opacity="0.15"/>
    <stop offset="100%" stop-color="#e74c3c" stop-opacity="0.02"/>
  </linearGradient></defs>
  <defs><clipPath id="c447"><rect x="442" y="16" width="358" height="77.5"/></clipPath></defs>
  <defs><clipPath id="c448"><rect x="442" y="93.5" width="358" height="77.5"/></clipPath></defs>
  <path d="M445.5,94.7 445.5,94.7 478.1,95.9 497.2,97.1 510.8,98.3 521.3,99.6 529.9,100.8 537.1,102.0 543.4,103.2 549.0,104.4 553.9,105.6 558.4,106.8 562.5,108.0 566.3,109.2 569.8,110.5 573.0,111.7 576.1,112.9 578.9,114.1 581.6,115.3 584.2,116.5 586.6,117.7 588.9,118.9 591.1,120.1 593.2,121.4 595.2,122.6 597.1,123.8 598.9,125.0 600.7,126.2 602.4,127.4 604.1,128.6 605.7,129.8 607.2,131.0 608.7,132.3 610.2,133.5 611.6,134.7 612.9,135.9 614.3,137.1 615.6,138.3 616.8,139.5 618.0,140.7 619.2,141.9 620.4,143.1 621.5,144.4 622.6,145.6 623.7,146.8 624.8,148.0 625.8,149.2 626.8,150.4 627.8,151.6 628.8,152.8 629.7,154.0 630.7,155.3 631.6,156.5 632.5,157.7 633.4,158.9 634.2,160.1 635.1,161.3 635.9,162.5 636.7,163.7 637.5,164.9 639.1,167.4 640.6,169.8 642.1,17.2 643.5,19.6 644.9,22.1 646.2,24.5 647.6,26.9 648.8,29.3 650.1,31.7 651.3,34.2 652.5,36.6 653.6,39.0 654.7,41.4 655.8,43.9 656.9,46.3 657.9,48.7 659.0,51.1 660.0,53.5 660.9,56.0 661.9,58.4 662.8,60.8 663.8,63.2 664.7,65.6 665.6,68.1 666.4,70.5 667.3,72.9 668.1,75.3 669.0,77.8 669.8,80.2 671.0,83.8 672.1,87.4 673.3,91.1 674.4,94.7 675.5,98.3 676.5,102.0 677.6,105.6 678.6,109.2 679.6,112.9 680.5,116.5 681.5,120.1 682.4,123.8 683.3,127.4 684.2,131.0 685.1,134.7 686.0,138.3 686.8,141.9 687.6,145.6 688.5,149.2 689.3,152.8 690.3,157.7 691.4,162.5 692.4,167.4 693.3,17.2 694.3,22.1 695.3,26.9 696.2,31.7 697.1,36.6 698.0,41.4 698.9,46.3 699.7,51.1 700.6,56.0 701.4,60.8 702.2,65.6 703.0,70.5 704.0,76.5 705.0,82.6 705.9,88.7 706.8,94.7 707.7,100.8 708.6,106.8 709.5,112.9 710.4,118.9 711.2,125.0 712.0,131.0 712.9,137.1 713.8,144.4 714.7,151.6 715.7,158.9 716.6,166.2 717.5,18.4 718.3,25.7 719.2,33.0 720.0,40.2 720.8,47.5 721.7,54.7 722.6,63.2 723.5,71.7 724.4,80.2 725.3,88.7 726.1,97.1 727.0,105.6 727.8,114.1 728.6,122.6 729.4,131.0 730.3,140.7 731.2,150.4 732.1,160.1 732.9,169.8 733.7,24.5 734.6,34.2 735.4,43.9 736.3,54.7 737.1,65.6 738.0,76.5 738.8,87.4 739.7,98.3 740.5,109.2 741.3,120.1 742.2,132.3 743.0,144.4 743.9,156.5 744.7,168.6 745.5,25.7 746.4,39.0 747.2,52.3 748.1,65.6 748.9,79.0 749.7,92.3 750.5,105.6 751.4,120.1 752.2,134.7 753.1,149.2 753.9,86.2 754.7,100.8 755.6,116.5 756.4,132.3 757.2,70.5 758.0,86.2 758.9,103.2 759.7,120.1 760.6,59.6 761.4,76.5 762.2,94.7 763.1,112.9 763.9,53.5 764.7,71.7 765.6,91.1 766.4,110.5 767.2,129.8 768.0,71.7 768.9,92.3 769.7,112.9 770.5,56.0 771.3,77.8 772.2,99.6 773.0,121.4 773.8,65.6 774.6,88.7 775.4,111.7 776.3,57.2 777.1,81.4 777.9,105.6 778.7,129.8 779.5,77.8 780.4,103.2 781.2,128.6 782.0,77.8 782.8,104.4 783.6,54.8 784.4,82.6 785.2,110.5 786.1,62.0 786.9,91.1 787.7,121.4 788.5,74.1 789.3,104.4 790.1,58.4 791.0,89.9 791.8,122.6 792.6,77.8 793.4,111.7 794.2,68.1 795.0,103.2 795.9,60.8 796.7,97.1 797.5,56.0 798.3,93.5 799.1,131.0 799.9,92.3 L799.9,93.5 L445.5,93.5 Z" fill="url(#g445)" clip-path="url(#c447)"/>
  <path d="M445.5,94.7 445.5,94.7 478.1,95.9 497.2,97.1 510.8,98.3 521.3,99.6 529.9,100.8 537.1,102.0 543.4,103.2 549.0,104.4 553.9,105.6 558.4,106.8 562.5,108.0 566.3,109.2 569.8,110.5 573.0,111.7 576.1,112.9 578.9,114.1 581.6,115.3 584.2,116.5 586.6,117.7 588.9,118.9 591.1,120.1 593.2,121.4 595.2,122.6 597.1,123.8 598.9,125.0 600.7,126.2 602.4,127.4 604.1,128.6 605.7,129.8 607.2,131.0 608.7,132.3 610.2,133.5 611.6,134.7 612.9,135.9 614.3,137.1 615.6,138.3 616.8,139.5 618.0,140.7 619.2,141.9 620.4,143.1 621.5,144.4 622.6,145.6 623.7,146.8 624.8,148.0 625.8,149.2 626.8,150.4 627.8,151.6 628.8,152.8 629.7,154.0 630.7,155.3 631.6,156.5 632.5,157.7 633.4,158.9 634.2,160.1 635.1,161.3 635.9,162.5 636.7,163.7 637.5,164.9 639.1,167.4 640.6,169.8 642.1,17.2 643.5,19.6 644.9,22.1 646.2,24.5 647.6,26.9 648.8,29.3 650.1,31.7 651.3,34.2 652.5,36.6 653.6,39.0 654.7,41.4 655.8,43.9 656.9,46.3 657.9,48.7 659.0,51.1 660.0,53.5 660.9,56.0 661.9,58.4 662.8,60.8 663.8,63.2 664.7,65.6 665.6,68.1 666.4,70.5 667.3,72.9 668.1,75.3 669.0,77.8 669.8,80.2 671.0,83.8 672.1,87.4 673.3,91.1 674.4,94.7 675.5,98.3 676.5,102.0 677.6,105.6 678.6,109.2 679.6,112.9 680.5,116.5 681.5,120.1 682.4,123.8 683.3,127.4 684.2,131.0 685.1,134.7 686.0,138.3 686.8,141.9 687.6,145.6 688.5,149.2 689.3,152.8 690.3,157.7 691.4,162.5 692.4,167.4 693.3,17.2 694.3,22.1 695.3,26.9 696.2,31.7 697.1,36.6 698.0,41.4 698.9,46.3 699.7,51.1 700.6,56.0 701.4,60.8 702.2,65.6 703.0,70.5 704.0,76.5 705.0,82.6 705.9,88.7 706.8,94.7 707.7,100.8 708.6,106.8 709.5,112.9 710.4,118.9 711.2,125.0 712.0,131.0 712.9,137.1 713.8,144.4 714.7,151.6 715.7,158.9 716.6,166.2 717.5,18.4 718.3,25.7 719.2,33.0 720.0,40.2 720.8,47.5 721.7,54.7 722.6,63.2 723.5,71.7 724.4,80.2 725.3,88.7 726.1,97.1 727.0,105.6 727.8,114.1 728.6,122.6 729.4,131.0 730.3,140.7 731.2,150.4 732.1,160.1 732.9,169.8 733.7,24.5 734.6,34.2 735.4,43.9 736.3,54.7 737.1,65.6 738.0,76.5 738.8,87.4 739.7,98.3 740.5,109.2 741.3,120.1 742.2,132.3 743.0,144.4 743.9,156.5 744.7,168.6 745.5,25.7 746.4,39.0 747.2,52.3 748.1,65.6 748.9,79.0 749.7,92.3 750.5,105.6 751.4,120.1 752.2,134.7 753.1,149.2 753.9,86.2 754.7,100.8 755.6,116.5 756.4,132.3 757.2,70.5 758.0,86.2 758.9,103.2 759.7,120.1 760.6,59.6 761.4,76.5 762.2,94.7 763.1,112.9 763.9,53.5 764.7,71.7 765.6,91.1 766.4,110.5 767.2,129.8 768.0,71.7 768.9,92.3 769.7,112.9 770.5,56.0 771.3,77.8 772.2,99.6 773.0,121.4 773.8,65.6 774.6,88.7 775.4,111.7 776.3,57.2 777.1,81.4 777.9,105.6 778.7,129.8 779.5,77.8 780.4,103.2 781.2,128.6 782.0,77.8 782.8,104.4 783.6,54.8 784.4,82.6 785.2,110.5 786.1,62.0 786.9,91.1 787.7,121.4 788.5,74.1 789.3,104.4 790.1,58.4 791.0,89.9 791.8,122.6 792.6,77.8 793.4,111.7 794.2,68.1 795.0,103.2 795.9,60.8 796.7,97.1 797.5,56.0 798.3,93.5 799.1,131.0 799.9,92.3 L799.9,93.5 L445.5,93.5 Z" fill="url(#g446)" clip-path="url(#c448)"/>
  <defs><clipPath id="pc449"><rect x="442" y="16" width="358" height="155"/></clipPath></defs>
  <polyline points="445.5,94.7 478.1,95.9 497.2,97.1 510.8,98.3 521.3,99.6 529.9,100.8 537.1,102.0 543.4,103.2 549.0,104.4 553.9,105.6 558.4,106.8 562.5,108.0 566.3,109.2 569.8,110.5 573.0,111.7 576.1,112.9 578.9,114.1 581.6,115.3 584.2,116.5 586.6,117.7 588.9,118.9 591.1,120.1 593.2,121.4 595.2,122.6 597.1,123.8 598.9,125.0 600.7,126.2 602.4,127.4 604.1,128.6 605.7,129.8 607.2,131.0 608.7,132.3 610.2,133.5 611.6,134.7 612.9,135.9 614.3,137.1 615.6,138.3 616.8,139.5 618.0,140.7 619.2,141.9 620.4,143.1 621.5,144.4 622.6,145.6 623.7,146.8 624.8,148.0 625.8,149.2 626.8,150.4 627.8,151.6 628.8,152.8 629.7,154.0 630.7,155.3 631.6,156.5 632.5,157.7 633.4,158.9 634.2,160.1 635.1,161.3 635.9,162.5 636.7,163.7 637.5,164.9 639.1,167.4 640.6,169.8 642.1,17.2 643.5,19.6 644.9,22.1 646.2,24.5 647.6,26.9 648.8,29.3 650.1,31.7 651.3,34.2 652.5,36.6 653.6,39.0 654.7,41.4 655.8,43.9 656.9,46.3 657.9,48.7 659.0,51.1 660.0,53.5 660.9,56.0 661.9,58.4 662.8,60.8 663.8,63.2 664.7,65.6 665.6,68.1 666.4,70.5 667.3,72.9 668.1,75.3 669.0,77.8 669.8,80.2 671.0,83.8 672.1,87.4 673.3,91.1 674.4,94.7 675.5,98.3 676.5,102.0 677.6,105.6 678.6,109.2 679.6,112.9 680.5,116.5 681.5,120.1 682.4,123.8 683.3,127.4 684.2,131.0 685.1,134.7 686.0,138.3 686.8,141.9 687.6,145.6 688.5,149.2 689.3,152.8 690.3,157.7 691.4,162.5 692.4,167.4 693.3,17.2 694.3,22.1 695.3,26.9 696.2,31.7 697.1,36.6 698.0,41.4 698.9,46.3 699.7,51.1 700.6,56.0 701.4,60.8 702.2,65.6 703.0,70.5 704.0,76.5 705.0,82.6 705.9,88.7 706.8,94.7 707.7,100.8 708.6,106.8 709.5,112.9 710.4,118.9 711.2,125.0 712.0,131.0 712.9,137.1 713.8,144.4 714.7,151.6 715.7,158.9 716.6,166.2 717.5,18.4 718.3,25.7 719.2,33.0 720.0,40.2 720.8,47.5 721.7,54.7 722.6,63.2 723.5,71.7 724.4,80.2 725.3,88.7 726.1,97.1 727.0,105.6 727.8,114.1 728.6,122.6 729.4,131.0 730.3,140.7 731.2,150.4 732.1,160.1 732.9,169.8 733.7,24.5 734.6,34.2 735.4,43.9 736.3,54.7 737.1,65.6 738.0,76.5 738.8,87.4 739.7,98.3 740.5,109.2 741.3,120.1 742.2,132.3 743.0,144.4 743.9,156.5 744.7,168.6 745.5,25.7 746.4,39.0 747.2,52.3 748.1,65.6 748.9,79.0 749.7,92.3 750.5,105.6 751.4,120.1 752.2,134.7 753.1,149.2 753.9,86.2 754.7,100.8 755.6,116.5 756.4,132.3 757.2,70.5 758.0,86.2 758.9,103.2 759.7,120.1 760.6,59.6 761.4,76.5 762.2,94.7 763.1,112.9 763.9,53.5 764.7,71.7 765.6,91.1 766.4,110.5 767.2,129.8 768.0,71.7 768.9,92.3 769.7,112.9 770.5,56.0 771.3,77.8 772.2,99.6 773.0,121.4 773.8,65.6 774.6,88.7 775.4,111.7 776.3,57.2 777.1,81.4 777.9,105.6 778.7,129.8 779.5,77.8 780.4,103.2 781.2,128.6 782.0,77.8 782.8,104.4 783.6,54.8 784.4,82.6 785.2,110.5 786.1,62.0 786.9,91.1 787.7,121.4 788.5,74.1 789.3,104.4 790.1,58.4 791.0,89.9 791.8,122.6 792.6,77.8 793.4,111.7 794.2,68.1 795.0,103.2 795.9,60.8 796.7,97.1 797.5,56.0 798.3,93.5 799.1,131.0 799.9,92.3" fill="none" stroke="#e74c3c" stroke-width="1.5" stroke-linejoin="round" clip-path="url(#pc449)"/>
  <line x1="34" y1="221" x2="34" y2="376" stroke="#d1d5db"/>
  <line x1="34" y1="298.5" x2="392" y2="298.5" stroke="#d1d5db"/>
  <text x="213" y="402" text-anchor="middle" font-size="9" fill="#6b7280">Hz</text>
  <text x="12" y="298.5" text-anchor="middle" font-size="9" fill="#6b7280" transform="rotate(-90 12 298.5)">Group delay</text>
  <line x1="66.6" y1="221" x2="66.6" y2="376" stroke="#e5e7eb" stroke-width="0.5"/>
  <line x1="85.7" y1="221" x2="85.7" y2="376" stroke="#e5e7eb" stroke-width="0.5"/>
  <line x1="99.3" y1="221" x2="99.3" y2="376" stroke="#e5e7eb" stroke-width="0.5"/>
  <line x1="109.8" y1="221" x2="109.8" y2="376" stroke="#e5e7eb" stroke-width="0.5"/>
  <line x1="118.4" y1="221" x2="118.4" y2="376" stroke="#e5e7eb" stroke-width="0.5"/>
  <line x1="125.7" y1="221" x2="125.7" y2="376" stroke="#e5e7eb" stroke-width="0.5"/>
  <line x1="131.9" y1="221" x2="131.9" y2="376" stroke="#e5e7eb" stroke-width="0.5"/>
  <line x1="137.5" y1="221" x2="137.5" y2="376" stroke="#e5e7eb" stroke-width="0.5"/>
  <line x1="175.1" y1="221" x2="175.1" y2="376" stroke="#e5e7eb" stroke-width="0.5"/>
  <line x1="194.2" y1="221" x2="194.2" y2="376" stroke="#e5e7eb" stroke-width="0.5"/>
  <line x1="207.7" y1="221" x2="207.7" y2="376" stroke="#e5e7eb" stroke-width="0.5"/>
  <line x1="218.3" y1="221" x2="218.3" y2="376" stroke="#e5e7eb" stroke-width="0.5"/>
  <line x1="226.8" y1="221" x2="226.8" y2="376" stroke="#e5e7eb" stroke-width="0.5"/>
  <line x1="234.1" y1="221" x2="234.1" y2="376" stroke="#e5e7eb" stroke-width="0.5"/>
  <line x1="240.4" y1="221" x2="240.4" y2="376" stroke="#e5e7eb" stroke-width="0.5"/>
  <line x1="245.9" y1="221" x2="245.9" y2="376" stroke="#e5e7eb" stroke-width="0.5"/>
  <line x1="283.5" y1="221" x2="283.5" y2="376" stroke="#e5e7eb" stroke-width="0.5"/>
  <line x1="302.6" y1="221" x2="302.6" y2="376" stroke="#e5e7eb" stroke-width="0.5"/>
  <line x1="316.2" y1="221" x2="316.2" y2="376" stroke="#e5e7eb" stroke-width="0.5"/>
  <line x1="326.7" y1="221" x2="326.7" y2="376" stroke="#e5e7eb" stroke-width="0.5"/>
  <line x1="335.3" y1="221" x2="335.3" y2="376" stroke="#e5e7eb" stroke-width="0.5"/>
  <line x1="342.6" y1="221" x2="342.6" y2="376" stroke="#e5e7eb" stroke-width="0.5"/>
  <line x1="348.8" y1="221" x2="348.8" y2="376" stroke="#e5e7eb" stroke-width="0.5"/>
  <line x1="354.4" y1="221" x2="354.4" y2="376" stroke="#e5e7eb" stroke-width="0.5"/>
  <line x1="392.0" y1="221" x2="392.0" y2="376" stroke="#e5e7eb" stroke-width="0.5"/>
  <line x1="142.5" y1="221" x2="142.5" y2="376" stroke="#e5e7eb" stroke-width="0.5"/>
  <text x="142.5" y="388" text-anchor="middle" font-size="8" fill="#6b7280">100</text>
  <line x1="250.9" y1="221" x2="250.9" y2="376" stroke="#e5e7eb" stroke-width="0.5"/>
  <text x="250.9" y="388" text-anchor="middle" font-size="8" fill="#6b7280">1k</text>
  <line x1="359.4" y1="221" x2="359.4" y2="376" stroke="#e5e7eb" stroke-width="0.5"/>
  <text x="359.4" y="388" text-anchor="middle" font-size="8" fill="#6b7280">10k</text>
  <line x1="34" y1="340.6" x2="392" y2="340.6" stroke="#e5e7eb" stroke-width="0.5"/>
  <text x="30" y="343.6" text-anchor="end" font-size="8" fill="#6b7280">-700</text>
  <text x="30" y="301.5" text-anchor="end" font-size="8" fill="#6b7280">0</text>
  <line x1="34" y1="256.4" x2="392" y2="256.4" stroke="#e5e7eb" stroke-width="0.5"/>
  <text x="30" y="259.4" text-anchor="end" font-size="8" fill="#6b7280">700</text>
  <defs><linearGradient id="g450" x1="0" y1="221" x2="0" y2="298.5" gradientUnits="userSpaceOnUse">
    <stop offset="0%" stop-color="#2ecc71" stop-opacity="0.15"/>
    <stop offset="100%" stop-color="#2ecc71" stop-opacity="0.02"/>
  </linearGradient></defs>
  <defs><linearGradient id="g451" x1="0" y1="376" x2="0" y2="298.5" gradientUnits="userSpaceOnUse">
    <stop offset="0%" stop-color="#2ecc71" stop-opacity="0.15"/>
    <stop offset="100%" stop-color="#2ecc71" stop-opacity="0.02"/>
  </linearGradient></defs>
  <defs><clipPath id="c452"><rect x="34" y="221" width="358" height="77.5"/></clipPath></defs>
  <defs><clipPath id="c453"><rect x="34" y="298.5" width="358" height="77.5"/></clipPath></defs>
  <path d="M37.5,296.6 37.5,296.6 70.1,296.6 89.2,296.6 102.8,296.6 113.3,296.6 121.9,296.6 129.1,296.6 135.4,296.6 141.0,296.6 145.9,296.6 150.4,296.6 154.5,296.6 158.3,296.6 161.8,296.6 165.0,296.6 168.1,296.6 170.9,296.6 173.6,296.6 176.2,296.6 178.6,296.6 180.9,296.6 183.1,296.6 185.2,296.6 187.2,296.6 189.1,296.6 190.9,296.6 192.7,296.6 194.4,296.6 196.1,296.6 197.7,296.6 199.2,296.6 200.7,296.6 202.2,296.6 203.6,296.6 204.9,296.6 206.3,296.6 207.6,296.6 208.8,296.6 210.0,296.6 211.2,296.6 212.4,296.6 213.5,296.6 214.6,296.6 215.7,296.6 216.8,296.6 217.8,296.6 218.8,296.6 219.8,296.6 220.8,296.6 221.7,296.6 222.7,296.6 223.6,296.6 224.5,296.6 225.4,296.6 226.2,296.6 227.1,296.6 227.9,296.6 228.7,296.6 229.5,296.6 231.1,296.6 232.6,296.6 234.1,296.6 235.5,296.6 236.9,296.6 238.2,296.6 239.6,296.6 240.8,296.6 242.1,296.6 243.3,296.6 244.5,296.6 245.6,296.6 246.7,296.6 247.8,296.6 248.9,296.6 249.9,296.6 251.0,296.6 252.0,296.6 252.9,296.6 253.9,296.6 254.8,296.6 255.8,296.6 256.7,296.6 257.6,296.6 258.4,296.6 259.3,296.6 260.1,296.6 261.0,296.6 261.8,296.6 263.0,296.6 264.1,296.6 265.3,296.6 266.4,296.6 267.5,296.6 268.5,296.6 269.6,296.6 270.6,296.6 271.6,296.6 272.5,296.6 273.5,296.6 274.4,296.6 275.3,296.6 276.2,296.6 277.1,296.6 278.0,296.6 278.8,296.6 279.6,296.6 280.5,296.6 281.3,296.6 282.3,296.6 283.4,296.6 284.4,296.6 285.3,296.6 286.3,296.6 287.3,296.6 288.2,296.6 289.1,296.6 290.0,296.6 290.9,296.6 291.7,296.6 292.6,296.6 293.4,296.6 294.2,296.6 295.0,296.6 296.0,296.6 297.0,296.6 297.9,296.6 298.8,296.6 299.7,296.6 300.6,296.6 301.5,296.6 302.4,296.6 303.2,296.6 304.0,296.6 304.9,296.6 305.8,296.6 306.7,296.6 307.7,296.6 308.6,296.6 309.5,296.6 310.3,296.6 311.2,296.6 312.0,296.6 312.8,296.6 313.7,296.6 314.6,296.6 315.5,296.6 316.4,296.6 317.3,296.6 318.1,296.6 319.0,296.6 319.8,296.6 320.6,296.6 321.4,296.6 322.3,296.6 323.2,296.6 324.1,296.6 324.9,296.6 325.7,296.6 326.6,296.6 327.4,296.6 328.3,296.6 329.1,296.6 330.0,296.6 330.8,296.6 331.7,296.6 332.5,296.6 333.3,296.6 334.2,296.6 335.0,296.6 335.9,296.6 336.7,296.6 337.5,296.6 338.4,296.6 339.2,296.6 340.1,296.6 340.9,296.6 341.7,296.6 342.5,296.6 343.4,296.6 344.2,296.6 345.1,296.6 345.9,296.6 346.7,296.6 347.6,296.6 348.4,296.6 349.2,296.6 350.0,296.6 350.9,296.6 351.7,296.6 352.6,296.6 353.4,296.6 354.2,296.6 355.1,296.6 355.9,358.1 356.7,296.6 357.6,296.6 358.4,296.6 359.2,358.1 360.0,296.6 360.9,296.6 361.7,296.6 362.5,296.6 363.3,296.6 364.2,296.6 365.0,296.6 365.8,296.6 366.6,296.6 367.4,296.6 368.3,296.6 369.1,296.6 369.9,296.6 370.7,358.1 371.5,296.6 372.4,296.6 373.2,296.6 374.0,296.6 374.8,296.6 375.6,296.6 376.4,296.6 377.2,296.6 378.1,296.6 378.9,296.6 379.7,296.6 380.5,296.6 381.3,296.6 382.1,296.6 383.0,296.6 383.8,296.6 384.6,296.6 385.4,296.6 386.2,296.6 387.0,296.6 387.9,296.6 388.7,296.6 389.5,296.6 390.3,296.6 391.1,358.1 391.9,296.6 L391.9,298.5 L37.5,298.5 Z" fill="url(#g450)" clip-path="url(#c452)"/>
  <path d="M37.5,296.6 37.5,296.6 70.1,296.6 89.2,296.6 102.8,296.6 113.3,296.6 121.9,296.6 129.1,296.6 135.4,296.6 141.0,296.6 145.9,296.6 150.4,296.6 154.5,296.6 158.3,296.6 161.8,296.6 165.0,296.6 168.1,296.6 170.9,296.6 173.6,296.6 176.2,296.6 178.6,296.6 180.9,296.6 183.1,296.6 185.2,296.6 187.2,296.6 189.1,296.6 190.9,296.6 192.7,296.6 194.4,296.6 196.1,296.6 197.7,296.6 199.2,296.6 200.7,296.6 202.2,296.6 203.6,296.6 204.9,296.6 206.3,296.6 207.6,296.6 208.8,296.6 210.0,296.6 211.2,296.6 212.4,296.6 213.5,296.6 214.6,296.6 215.7,296.6 216.8,296.6 217.8,296.6 218.8,296.6 219.8,296.6 220.8,296.6 221.7,296.6 222.7,296.6 223.6,296.6 224.5,296.6 225.4,296.6 226.2,296.6 227.1,296.6 227.9,296.6 228.7,296.6 229.5,296.6 231.1,296.6 232.6,296.6 234.1,296.6 235.5,296.6 236.9,296.6 238.2,296.6 239.6,296.6 240.8,296.6 242.1,296.6 243.3,296.6 244.5,296.6 245.6,296.6 246.7,296.6 247.8,296.6 248.9,296.6 249.9,296.6 251.0,296.6 252.0,296.6 252.9,296.6 253.9,296.6 254.8,296.6 255.8,296.6 256.7,296.6 257.6,296.6 258.4,296.6 259.3,296.6 260.1,296.6 261.0,296.6 261.8,296.6 263.0,296.6 264.1,296.6 265.3,296.6 266.4,296.6 267.5,296.6 268.5,296.6 269.6,296.6 270.6,296.6 271.6,296.6 272.5,296.6 273.5,296.6 274.4,296.6 275.3,296.6 276.2,296.6 277.1,296.6 278.0,296.6 278.8,296.6 279.6,296.6 280.5,296.6 281.3,296.6 282.3,296.6 283.4,296.6 284.4,296.6 285.3,296.6 286.3,296.6 287.3,296.6 288.2,296.6 289.1,296.6 290.0,296.6 290.9,296.6 291.7,296.6 292.6,296.6 293.4,296.6 294.2,296.6 295.0,296.6 296.0,296.6 297.0,296.6 297.9,296.6 298.8,296.6 299.7,296.6 300.6,296.6 301.5,296.6 302.4,296.6 303.2,296.6 304.0,296.6 304.9,296.6 305.8,296.6 306.7,296.6 307.7,296.6 308.6,296.6 309.5,296.6 310.3,296.6 311.2,296.6 312.0,296.6 312.8,296.6 313.7,296.6 314.6,296.6 315.5,296.6 316.4,296.6 317.3,296.6 318.1,296.6 319.0,296.6 319.8,296.6 320.6,296.6 321.4,296.6 322.3,296.6 323.2,296.6 324.1,296.6 324.9,296.6 325.7,296.6 326.6,296.6 327.4,296.6 328.3,296.6 329.1,296.6 330.0,296.6 330.8,296.6 331.7,296.6 332.5,296.6 333.3,296.6 334.2,296.6 335.0,296.6 335.9,296.6 336.7,296.6 337.5,296.6 338.4,296.6 339.2,296.6 340.1,296.6 340.9,296.6 341.7,296.6 342.5,296.6 343.4,296.6 344.2,296.6 345.1,296.6 345.9,296.6 346.7,296.6 347.6,296.6 348.4,296.6 349.2,296.6 350.0,296.6 350.9,296.6 351.7,296.6 352.6,296.6 353.4,296.6 354.2,296.6 355.1,296.6 355.9,358.1 356.7,296.6 357.6,296.6 358.4,296.6 359.2,358.1 360.0,296.6 360.9,296.6 361.7,296.6 362.5,296.6 363.3,296.6 364.2,296.6 365.0,296.6 365.8,296.6 366.6,296.6 367.4,296.6 368.3,296.6 369.1,296.6 369.9,296.6 370.7,358.1 371.5,296.6 372.4,296.6 373.2,296.6 374.0,296.6 374.8,296.6 375.6,296.6 376.4,296.6 377.2,296.6 378.1,296.6 378.9,296.6 379.7,296.6 380.5,296.6 381.3,296.6 382.1,296.6 383.0,296.6 383.8,296.6 384.6,296.6 385.4,296.6 386.2,296.6 387.0,296.6 387.9,296.6 388.7,296.6 389.5,296.6 390.3,296.6 391.1,358.1 391.9,296.6 L391.9,298.5 L37.5,298.5 Z" fill="url(#g451)" clip-path="url(#c453)"/>
  <defs><clipPath id="pc454"><rect x="34" y="221" width="358" height="155"/></clipPath></defs>
  <polyline points="37.5,296.6 70.1,296.6 89.2,296.6 102.8,296.6 113.3,296.6 121.9,296.6 129.1,296.6 135.4,296.6 141.0,296.6 145.9,296.6 150.4,296.6 154.5,296.6 158.3,296.6 161.8,296.6 165.0,296.6 168.1,296.6 170.9,296.6 173.6,296.6 176.2,296.6 178.6,296.6 180.9,296.6 183.1,296.6 185.2,296.6 187.2,296.6 189.1,296.6 190.9,296.6 192.7,296.6 194.4,296.6 196.1,296.6 197.7,296.6 199.2,296.6 200.7,296.6 202.2,296.6 203.6,296.6 204.9,296.6 206.3,296.6 207.6,296.6 208.8,296.6 210.0,296.6 211.2,296.6 212.4,296.6 213.5,296.6 214.6,296.6 215.7,296.6 216.8,296.6 217.8,296.6 218.8,296.6 219.8,296.6 220.8,296.6 221.7,296.6 222.7,296.6 223.6,296.6 224.5,296.6 225.4,296.6 226.2,296.6 227.1,296.6 227.9,296.6 228.7,296.6 229.5,296.6 231.1,296.6 232.6,296.6 234.1,296.6 235.5,296.6 236.9,296.6 238.2,296.6 239.6,296.6 240.8,296.6 242.1,296.6 243.3,296.6 244.5,296.6 245.6,296.6 246.7,296.6 247.8,296.6 248.9,296.6 249.9,296.6 251.0,296.6 252.0,296.6 252.9,296.6 253.9,296.6 254.8,296.6 255.8,296.6 256.7,296.6 257.6,296.6 258.4,296.6 259.3,296.6 260.1,296.6 261.0,296.6 261.8,296.6 263.0,296.6 264.1,296.6 265.3,296.6 266.4,296.6 267.5,296.6 268.5,296.6 269.6,296.6 270.6,296.6 271.6,296.6 272.5,296.6 273.5,296.6 274.4,296.6 275.3,296.6 276.2,296.6 277.1,296.6 278.0,296.6 278.8,296.6 279.6,296.6 280.5,296.6 281.3,296.6 282.3,296.6 283.4,296.6 284.4,296.6 285.3,296.6 286.3,296.6 287.3,296.6 288.2,296.6 289.1,296.6 290.0,296.6 290.9,296.6 291.7,296.6 292.6,296.6 293.4,296.6 294.2,296.6 295.0,296.6 296.0,296.6 297.0,296.6 297.9,296.6 298.8,296.6 299.7,296.6 300.6,296.6 301.5,296.6 302.4,296.6 303.2,296.6 304.0,296.6 304.9,296.6 305.8,296.6 306.7,296.6 307.7,296.6 308.6,296.6 309.5,296.6 310.3,296.6 311.2,296.6 312.0,296.6 312.8,296.6 313.7,296.6 314.6,296.6 315.5,296.6 316.4,296.6 317.3,296.6 318.1,296.6 319.0,296.6 319.8,296.6 320.6,296.6 321.4,296.6 322.3,296.6 323.2,296.6 324.1,296.6 324.9,296.6 325.7,296.6 326.6,296.6 327.4,296.6 328.3,296.6 329.1,296.6 330.0,296.6 330.8,296.6 331.7,296.6 332.5,296.6 333.3,296.6 334.2,296.6 335.0,296.6 335.9,296.6 336.7,296.6 337.5,296.6 338.4,296.6 339.2,296.6 340.1,296.6 340.9,296.6 341.7,296.6 342.5,296.6 343.4,296.6 344.2,296.6 345.1,296.6 345.9,296.6 346.7,296.6 347.6,296.6 348.4,296.6 349.2,296.6 350.0,296.6 350.9,296.6 351.7,296.6 352.6,296.6 353.4,296.6 354.2,296.6 355.1,296.6 355.9,358.1 356.7,296.6 357.6,296.6 358.4,296.6 359.2,358.1 360.0,296.6 360.9,296.6 361.7,296.6 362.5,296.6 363.3,296.6 364.2,296.6 365.0,296.6 365.8,296.6 366.6,296.6 367.4,296.6 368.3,296.6 369.1,296.6 369.9,296.6 370.7,358.1 371.5,296.6 372.4,296.6 373.2,296.6 374.0,296.6 374.8,296.6 375.6,296.6 376.4,296.6 377.2,296.6 378.1,296.6 378.9,296.6 379.7,296.6 380.5,296.6 381.3,296.6 382.1,296.6 383.0,296.6 383.8,296.6 384.6,296.6 385.4,296.6 386.2,296.6 387.0,296.6 387.9,296.6 388.7,296.6 389.5,296.6 390.3,296.6 391.1,358.1 391.9,296.6" fill="none" stroke="#2ecc71" stroke-width="1.5" stroke-linejoin="round" clip-path="url(#pc454)"/>
  <line x1="442" y1="221" x2="442" y2="376" stroke="#d1d5db"/>
  <line x1="442" y1="298.5" x2="800" y2="298.5" stroke="#d1d5db"/>
  <text x="621" y="402" text-anchor="middle" font-size="9" fill="#6b7280">Samples</text>
  <text x="420" y="298.5" text-anchor="middle" font-size="9" fill="#6b7280" transform="rotate(-90 420 298.5)">Impulse response</text>
  <line x1="442.0" y1="221" x2="442.0" y2="376" stroke="#e5e7eb" stroke-width="0.5"/>
  <text x="442.0" y="388" text-anchor="middle" font-size="8" fill="#6b7280">0</text>
  <line x1="607.2" y1="221" x2="607.2" y2="376" stroke="#e5e7eb" stroke-width="0.5"/>
  <text x="607.2" y="388" text-anchor="middle" font-size="8" fill="#6b7280">30</text>
  <line x1="772.5" y1="221" x2="772.5" y2="376" stroke="#e5e7eb" stroke-width="0.5"/>
  <text x="772.5" y="388" text-anchor="middle" font-size="8" fill="#6b7280">60</text>
  <line x1="442" y1="357.7" x2="800" y2="357.7" stroke="#e5e7eb" stroke-width="0.5"/>
  <text x="438" y="360.7" text-anchor="end" font-size="8" fill="#6b7280">-0.4</text>
  <text x="438" y="301.5" text-anchor="end" font-size="8" fill="#6b7280">0</text>
  <line x1="442" y1="239.3" x2="800" y2="239.3" stroke="#e5e7eb" stroke-width="0.5"/>
  <text x="438" y="242.3" text-anchor="end" font-size="8" fill="#6b7280">0.4</text>
  <defs><linearGradient id="g455" x1="0" y1="221" x2="0" y2="298.5" gradientUnits="userSpaceOnUse">
    <stop offset="0%" stop-color="#f39c12" stop-opacity="0.15"/>
    <stop offset="100%" stop-color="#f39c12" stop-opacity="0.02"/>
  </linearGradient></defs>
  <defs><linearGradient id="g456" x1="0" y1="376" x2="0" y2="298.5" gradientUnits="userSpaceOnUse">
    <stop offset="0%" stop-color="#f39c12" stop-opacity="0.15"/>
    <stop offset="100%" stop-color="#f39c12" stop-opacity="0.02"/>
  </linearGradient></defs>
  <defs><clipPath id="c457"><rect x="442" y="221" width="358" height="77.5"/></clipPath></defs>
  <defs><clipPath id="c458"><rect x="442" y="298.5" width="358" height="77.5"/></clipPath></defs>
  <path d="M442.0,298.5 442.0,298.5 447.5,298.5 453.0,298.5 458.5,298.5 464.0,298.5 469.5,298.6 475.0,298.6 480.6,298.6 486.1,298.5 491.6,298.3 497.1,298.2 502.6,298.3 508.1,298.5 513.6,298.7 519.1,298.6 524.6,298.5 530.1,298.5 535.6,298.9 541.1,299.6 546.6,299.7 552.2,298.5 557.7,296.2 563.2,294.1 568.7,294.4 574.2,298.5 579.7,305.4 585.2,311.1 590.7,310.1 596.2,298.5 601.7,276.7 607.2,250.6 612.7,229.2 618.2,221.0 623.8,229.2 629.3,250.6 634.8,276.7 640.3,298.5 645.8,310.1 651.3,311.1 656.8,305.4 662.3,298.5 667.8,294.4 673.3,294.1 678.8,296.2 684.3,298.5 689.8,299.7 695.4,299.6 700.9,298.9 706.4,298.5 711.9,298.5 717.4,298.6 722.9,298.7 728.4,298.5 733.9,298.3 739.4,298.2 744.9,298.3 750.4,298.5 755.9,298.6 761.4,298.6 767.0,298.6 772.5,298.5 778.0,298.5 783.5,298.5 789.0,298.5 794.5,298.5 L794.5,298.5 L442.0,298.5 Z" fill="url(#g455)" clip-path="url(#c457)"/>
  <path d="M442.0,298.5 442.0,298.5 447.5,298.5 453.0,298.5 458.5,298.5 464.0,298.5 469.5,298.6 475.0,298.6 480.6,298.6 486.1,298.5 491.6,298.3 497.1,298.2 502.6,298.3 508.1,298.5 513.6,298.7 519.1,298.6 524.6,298.5 530.1,298.5 535.6,298.9 541.1,299.6 546.6,299.7 552.2,298.5 557.7,296.2 563.2,294.1 568.7,294.4 574.2,298.5 579.7,305.4 585.2,311.1 590.7,310.1 596.2,298.5 601.7,276.7 607.2,250.6 612.7,229.2 618.2,221.0 623.8,229.2 629.3,250.6 634.8,276.7 640.3,298.5 645.8,310.1 651.3,311.1 656.8,305.4 662.3,298.5 667.8,294.4 673.3,294.1 678.8,296.2 684.3,298.5 689.8,299.7 695.4,299.6 700.9,298.9 706.4,298.5 711.9,298.5 717.4,298.6 722.9,298.7 728.4,298.5 733.9,298.3 739.4,298.2 744.9,298.3 750.4,298.5 755.9,298.6 761.4,298.6 767.0,298.6 772.5,298.5 778.0,298.5 783.5,298.5 789.0,298.5 794.5,298.5 L794.5,298.5 L442.0,298.5 Z" fill="url(#g456)" clip-path="url(#c458)"/>
  <defs><clipPath id="pc459"><rect x="442" y="221" width="358" height="155"/></clipPath></defs>
  <polyline points="442.0,298.5 447.5,298.5 453.0,298.5 458.5,298.5 464.0,298.5 469.5,298.6 475.0,298.6 480.6,298.6 486.1,298.5 491.6,298.3 497.1,298.2 502.6,298.3 508.1,298.5 513.6,298.7 519.1,298.6 524.6,298.5 530.1,298.5 535.6,298.9 541.1,299.6 546.6,299.7 552.2,298.5 557.7,296.2 563.2,294.1 568.7,294.4 574.2,298.5 579.7,305.4 585.2,311.1 590.7,310.1 596.2,298.5 601.7,276.7 607.2,250.6 612.7,229.2 618.2,221.0 623.8,229.2 629.3,250.6 634.8,276.7 640.3,298.5 645.8,310.1 651.3,311.1 656.8,305.4 662.3,298.5 667.8,294.4 673.3,294.1 678.8,296.2 684.3,298.5 689.8,299.7 695.4,299.6 700.9,298.9 706.4,298.5 711.9,298.5 717.4,298.6 722.9,298.7 728.4,298.5 733.9,298.3 739.4,298.2 744.9,298.3 750.4,298.5 755.9,298.6 761.4,298.6 767.0,298.6 772.5,298.5 778.0,298.5 783.5,298.5 789.0,298.5 794.5,298.5" fill="none" stroke="#f39c12" stroke-width="1.3" stroke-linejoin="round" clip-path="url(#pc459)"/>
</svg>
