<svg xmlns="http://www.w3.org/2000/svg" viewBox="0 0 820 378" style="font-family:system-ui,-apple-system,sans-serif">
  <text x="800" y="11" text-anchor="end" font-size="11" font-weight="600" fill="#6b7280">remez equiripple, 63 taps</text>
  <line x1="34" y1="16" x2="34" y2="171" stroke="#d1d5db"/>
  <line x1="34" y1="47.0" x2="399" y2="47.0" stroke="#d1d5db"/>
  <text x="216.5" y="197" text-anchor="middle" font-size="9" fill="#6b7280">Hz</text>
  <text x="12" y="93.5" text-anchor="middle" font-size="9" fill="#6b7280" transform="rotate(-90 12 93.5)">dB</text>
  <line x1="67.3" y1="16" x2="67.3" y2="171" stroke="#e5e7eb" stroke-width="0.5"/>
  <line x1="86.8" y1="16" x2="86.8" y2="171" stroke="#e5e7eb" stroke-width="0.5"/>
  <line x1="100.6" y1="16" x2="100.6" y2="171" stroke="#e5e7eb" stroke-width="0.5"/>
  <line x1="111.3" y1="16" x2="111.3" y2="171" stroke="#e5e7eb" stroke-width="0.5"/>
  <line x1="120.0" y1="16" x2="120.0" y2="171" stroke="#e5e7eb" stroke-width="0.5"/>
  <line x1="127.4" y1="16" x2="127.4" y2="171" stroke="#e5e7eb" stroke-width="0.5"/>
  <line x1="133.9" y1="16" x2="133.9" y2="171" stroke="#e5e7eb" stroke-width="0.5"/>
  <line x1="139.5" y1="16" x2="139.5" y2="171" stroke="#e5e7eb" stroke-width="0.5"/>
  <line x1="177.9" y1="16" x2="177.9" y2="171" stroke="#e5e7eb" stroke-width="0.5"/>
  <line x1="197.3" y1="16" x2="197.3" y2="171" stroke="#e5e7eb" stroke-width="0.5"/>
  <line x1="211.1" y1="16" x2="211.1" y2="171" stroke="#e5e7eb" stroke-width="0.5"/>
  <line x1="221.9" y1="16" x2="221.9" y2="171" stroke="#e5e7eb" stroke-width="0.5"/>
  <line x1="230.6" y1="16" x2="230.6" y2="171" stroke="#e5e7eb" stroke-width="0.5"/>
  <line x1="238.0" y1="16" x2="238.0" y2="171" stroke="#e5e7eb" stroke-width="0.5"/>
  <line x1="244.4" y1="16" x2="244.4" y2="171" stroke="#e5e7eb" stroke-width="0.5"/>
  <line x1="250.1" y1="16" x2="250.1" y2="171" stroke="#e5e7eb" stroke-width="0.5"/>
  <line x1="288.4" y1="16" x2="288.4" y2="171" stroke="#e5e7eb" stroke-width="0.5"/>
  <line x1="307.9" y1="16" x2="307.9" y2="171" stroke="#e5e7eb" stroke-width="0.5"/>
  <line x1="321.7" y1="16" x2="321.7" y2="171" stroke="#e5e7eb" stroke-width="0.5"/>
  <line x1="332.4" y1="16" x2="332.4" y2="171" stroke="#e5e7eb" stroke-width="0.5"/>
  <line x1="341.2" y1="16" x2="341.2" y2="171" stroke="#e5e7eb" stroke-width="0.5"/>
  <line x1="348.6" y1="16" x2="348.6" y2="171" stroke="#e5e7eb" stroke-width="0.5"/>
  <line x1="355.0" y1="16" x2="355.0" y2="171" stroke="#e5e7eb" stroke-width="0.5"/>
  <line x1="360.7" y1="16" x2="360.7" y2="171" stroke="#e5e7eb" stroke-width="0.5"/>
  <line x1="399.0" y1="16" x2="399.0" y2="171" stroke="#e5e7eb" stroke-width="0.5"/>
  <line x1="144.6" y1="16" x2="144.6" y2="171" stroke="#e5e7eb" stroke-width="0.5"/>
  <text x="144.6" y="183" text-anchor="middle" font-size="8" fill="#6b7280">100</text>
  <line x1="255.1" y1="16" x2="255.1" y2="171" stroke="#e5e7eb" stroke-width="0.5"/>
  <text x="255.1" y="183" text-anchor="middle" font-size="8" fill="#6b7280">1k</text>
  <line x1="365.7" y1="16" x2="365.7" y2="171" stroke="#e5e7eb" stroke-width="0.5"/>
  <text x="365.7" y="183" text-anchor="middle" font-size="8" fill="#6b7280">10k</text>
  <line x1="34" y1="31.5" x2="399" y2="31.5" stroke="#e5e7eb" stroke-width="0.5"/>
  <line x1="34" y1="62.5" x2="399" y2="62.5" stroke="#e5e7eb" stroke-width="0.5"/>
  <line x1="34" y1="16.0" x2="399" y2="16.0" stroke="#e5e7eb" stroke-width="0.5"/>
  <text x="30" y="19.0" text-anchor="end" font-size="8" fill="#6b7280">+20</text>
  <text x="30" y="50.0" text-anchor="end" font-size="8" fill="#6b7280">0</text>
  <line x1="34" y1="78.0" x2="399" y2="78.0" stroke="#e5e7eb" stroke-width="0.5"/>
  <text x="30" y="81.0" text-anchor="end" font-size="8" fill="#6b7280">-20</text>
  <line x1="34" y1="109.0" x2="399" y2="109.0" stroke="#e5e7eb" stroke-width="0.5"/>
  <text x="30" y="112.0" text-anchor="end" font-size="8" fill="#6b7280">-40</text>
  <line x1="34" y1="140.0" x2="399" y2="140.0" stroke="#e5e7eb" stroke-width="0.5"/>
  <text x="30" y="143.0" text-anchor="end" font-size="8" fill="#6b7280">-60</text>
  <line x1="34" y1="171.0" x2="399" y2="171.0" stroke="#e5e7eb" stroke-width="0.5"/>
  <text x="30" y="174.0" text-anchor="end" font-size="8" fill="#6b7280">-80</text>
  <defs><linearGradient id="g325" x1="0" y1="16" x2="0" y2="171" gradientUnits="userSpaceOnUse">
    <stop offset="0%" stop-color="#4a90d9" stop-opacity="0.15"/>
    <stop offset="100%" stop-color="#4a90d9" stop-opacity="0.02"/>
  </linearGradient></defs>
  <path d="M37.5,44.0 37.5,44.0 70.8,44.0 90.3,44.0 104.1,44.0 114.8,44.0 123.6,44.1 131.0,44.1 137.4,44.1 143.1,44.1 148.1,44.1 152.7,44.1 156.9,44.2 160.7,44.2 164.3,44.2 167.6,44.3 170.7,44.3 173.6,44.3 176.3,44.4 178.9,44.4 181.4,44.4 183.7,44.5 186.0,44.5 188.1,44.6 190.2,44.6 192.1,44.6 194.0,44.7 195.8,44.7 197.6,44.8 199.2,44.8 200.9,44.9 202.4,45.0 204.0,45.0 205.5,45.1 206.9,45.1 208.3,45.2 209.6,45.2 210.9,45.3 212.2,45.4 213.5,45.4 214.7,45.5 215.9,45.6 217.0,45.6 218.2,45.7 219.3,45.7 220.3,45.8 221.4,45.9 222.4,45.9 223.4,46.0 224.4,46.1 225.4,46.1 226.4,46.2 227.3,46.3 228.2,46.3 229.1,46.4 230.0,46.4 230.8,46.5 231.7,46.6 232.5,46.6 233.4,46.7 234.2,46.7 235.7,46.9 237.3,47.0 238.7,47.1 240.2,47.2 241.6,47.3 242.9,47.3 244.2,47.4 245.5,47.5 246.8,47.5 248.0,47.6 249.2,47.6 250.3,47.7 251.4,47.7 252.6,47.7 253.6,47.7 254.7,47.7 255.7,47.7 256.7,47.7 257.7,47.7 258.7,47.7 259.6,47.7 260.6,47.6 261.5,47.6 262.4,47.6 263.3,47.5 264.1,47.5 265.0,47.4 265.8,47.4 266.6,47.3 267.4,47.3 268.6,47.2 269.8,47.1 270.9,47.0 272.0,46.9 273.1,46.9 274.2,46.8 275.2,46.7 276.2,46.7 277.2,46.6 278.2,46.6 279.1,46.6 280.0,46.6 281.0,46.6 281.9,46.6 282.7,46.6 283.6,46.6 284.5,46.6 285.3,46.7 286.1,46.7 286.9,46.8 288.0,46.8 289.0,46.9 290.0,47.0 291.0,47.0 292.0,47.1 292.9,47.2 293.9,47.2 294.8,47.3 295.7,47.3 296.6,47.3 297.4,47.3 298.3,47.3 299.1,47.3 299.9,47.3 300.7,47.2 301.7,47.2 302.7,47.1 303.6,47.0 304.6,47.0 305.5,46.9 306.4,46.9 307.3,46.8 308.1,46.8 309.0,46.8 309.8,46.8 310.6,46.8 311.4,46.8 312.4,46.8 313.3,46.9 314.2,46.9 315.1,47.0 316.0,47.1 316.9,47.1 317.7,47.2 318.6,47.2 319.4,47.2 320.2,47.2 321.1,47.2 322.0,47.1 322.9,47.1 323.8,47.0 324.7,46.9 325.5,46.9 326.3,46.9 327.1,46.8 327.9,46.8 328.8,46.9 329.7,46.9 330.6,47.0 331.4,47.0 332.3,47.1 333.1,47.1 333.9,47.1 334.8,47.1 335.7,47.1 336.5,47.1 337.4,47.0 338.2,47.0 339.0,46.9 339.8,46.9 340.7,46.9 341.6,46.9 342.4,46.9 343.3,47.0 344.1,47.0 344.9,47.1 345.8,47.1 346.6,47.2 347.5,47.4 348.3,47.7 349.1,48.2 350.0,49.0 350.8,50.1 351.7,51.7 352.5,53.8 353.3,56.4 354.1,60.0 355.0,64.4 355.8,69.7 356.6,76.1 357.5,83.7 358.3,93.2 359.1,104.1 360.0,117.3 360.8,142.1 361.6,129.3 362.5,120.4 363.3,118.8 364.1,123.6 364.9,171.0 365.8,123.3 366.6,117.8 367.4,121.2 368.2,153.6 369.1,122.8 369.9,117.6 370.7,123.3 371.6,143.2 372.4,120.0 373.2,118.6 374.0,132.7 374.8,126.4 375.6,118.4 376.5,124.5 377.3,136.5 378.1,119.6 378.9,122.4 379.7,148.5 380.5,120.9 381.4,122.4 382.2,150.8 383.0,121.4 383.8,124.1 384.6,140.3 385.5,121.2 386.3,129.2 387.1,130.0 387.9,122.2 388.7,147.0 389.5,124.2 390.3,127.6 391.2,132.7 392.0,124.2 392.8,171.0 393.6,124.7 394.4,137.0 395.2,127.6 396.0,131.1 396.8,131.3 397.6,129.3 398.5,134.6 L398.5,171.0 L37.5,171.0 Z" fill="url(#g325)"/>
  <defs><clipPath id="pc326"><rect x="34" y="16" width="365" height="155"/></clipPath></defs>
  <polyline points="37.5,44.0 70.8,44.0 90.3,44.0 104.1,44.0 114.8,44.0 123.6,44.1 131.0,44.1 137.4,44.1 143.1,44.1 148.1,44.1 152.7,44.1 156.9,44.2 160.7,44.2 164.3,44.2 167.6,44.3 170.7,44.3 173.6,44.3 176.3,44.4 178.9,44.4 181.4,44.4 183.7,44.5 186.0,44.5 188.1,44.6 190.2,44.6 192.1,44.6 194.0,44.7 195.8,44.7 197.6,44.8 199.2,44.8 200.9,44.9 202.4,45.0 204.0,45.0 205.5,45.1 206.9,45.1 208.3,45.2 209.6,45.2 210.9,45.3 212.2,45.4 213.5,45.4 214.7,45.5 215.9,45.6 217.0,45.6 218.2,45.7 219.3,45.7 220.3,45.8 221.4,45.9 222.4,45.9 223.4,46.0 224.4,46.1 225.4,46.1 226.4,46.2 227.3,46.3 228.2,46.3 229.1,46.4 230.0,46.4 230.8,46.5 231.7,46.6 232.5,46.6 233.4,46.7 234.2,46.7 235.7,46.9 237.3,47.0 238.7,47.1 240.2,47.2 241.6,47.3 242.9,47.3 244.2,47.4 245.5,47.5 246.8,47.5 248.0,47.6 249.2,47.6 250.3,47.7 251.4,47.7 252.6,47.7 253.6,47.7 254.7,47.7 255.7,47.7 256.7,47.7 257.7,47.7 258.7,47.7 259.6,47.7 260.6,47.6 261.5,47.6 262.4,47.6 263.3,47.5 264.1,47.5 265.0,47.4 265.8,47.4 266.6,47.3 267.4,47.3 268.6,47.2 269.8,47.1 270.9,47.0 272.0,46.9 273.1,46.9 274.2,46.8 275.2,46.7 276.2,46.7 277.2,46.6 278.2,46.6 279.1,46.6 280.0,46.6 281.0,46.6 281.9,46.6 282.7,46.6 283.6,46.6 284.5,46.6 285.3,46.7 286.1,46.7 286.9,46.8 288.0,46.8 289.0,46.9 290.0,47.0 291.0,47.0 292.0,47.1 292.9,47.2 293.9,47.2 294.8,47.3 295.7,47.3 296.6,47.3 297.4,47.3 298.3,47.3 299.1,47.3 299.9,47.3 300.7,47.2 301.7,47.2 302.7,47.1 303.6,47.0 304.6,47.0 305.5,46.9 306.4,46.9 307.3,46.8 308.1,46.8 309.0,46.8 309.8,46.8 310.6,46.8 311.4,46.8 312.4,46.8 313.3,46.9 314.2,46.9 315.1,47.0 316.0,47.1 316.9,47.1 317.7,47.2 318.6,47.2 319.4,47.2 320.2,47.2 321.1,47.2 322.0,47.1 322.9,47.1 323.8,47.0 324.7,46.9 325.5,46.9 326.3,46.9 327.1,46.8 327.9,46.8 328.8,46.9 329.7,46.9 330.6,47.0 331.4,47.0 332.3,47.1 333.1,47.1 333.9,47.1 334.8,47.1 335.7,47.1 336.5,47.1 337.4,47.0 338.2,47.0 339.0,46.9 339.8,46.9 340.7,46.9 341.6,46.9 342.4,46.9 343.3,47.0 344.1,47.0 344.9,47.1 345.8,47.1 346.6,47.2 347.5,47.4 348.3,47.7 349.1,48.2 350.0,49.0 350.8,50.1 351.7,51.7 352.5,53.8 353.3,56.4 354.1,60.0 355.0,64.4 355.8,69.7 356.6,76.1 357.5,83.7 358.3,93.2 359.1,104.1 360.0,117.3 360.8,142.1 361.6,129.3 362.5,120.4 363.3,118.8 364.1,123.6 364.9,179.0 365.8,123.3 366.6,117.8 367.4,121.2 368.2,153.6 369.1,122.8 369.9,117.6 370.7,123.3 371.6,143.2 372.4,120.0 373.2,118.6 374.0,132.7 374.8,126.4 375.6,118.4 376.5,124.5 377.3,136.5 378.1,119.6 378.9,122.4 379.7,148.5 380.5,120.9 381.4,122.4 382.2,150.8 383.0,121.4 383.8,124.1 384.6,140.3 385.5,121.2 386.3,129.2 387.1,130.0 387.9,122.2 388.7,147.0 389.5,124.2 390.3,127.6 391.2,132.7 392.0,124.2 392.8,230.7 393.6,124.7 394.4,137.0 395.2,127.6 396.0,131.1 396.8,131.3 397.6,129.3 398.5,134.6" fill="none" stroke="#4a90d9" stroke-width="1.5" stroke-linejoin="round" clip-path="url(#pc326)"/>
  <line x1="435" y1="16" x2="435" y2="171" stroke="#d1d5db"/>
  <line x1="435" y1="93.5" x2="800" y2="93.5" stroke="#d1d5db"/>
  <text x="617.5" y="197" text-anchor="middle" font-size="9" fill="#6b7280">Hz</text>
  <text x="413" y="93.5" text-anchor="middle" font-size="9" fill="#6b7280" transform="rotate(-90 413 93.5)">Phase (deg)</text>
  <line x1="468.3" y1="16" x2="468.3" y2="171" stroke="#e5e7eb" stroke-width="0.5"/>
  <line x1="487.8" y1="16" x2="487.8" y2="171" stroke="#e5e7eb" stroke-width="0.5"/>
  <line x1="501.6" y1="16" x2="501.6" y2="171" stroke="#e5e7eb" stroke-width="0.5"/>
  <line x1="512.3" y1="16" x2="512.3" y2="171" stroke="#e5e7eb" stroke-width="0.5"/>
  <line x1="521.0" y1="16" x2="521.0" y2="171" stroke="#e5e7eb" stroke-width="0.5"/>
  <line x1="528.4" y1="16" x2="528.4" y2="171" stroke="#e5e7eb" stroke-width="0.5"/>
  <line x1="534.9" y1="16" x2="534.9" y2="171" stroke="#e5e7eb" stroke-width="0.5"/>
  <line x1="540.5" y1="16" x2="540.5" y2="171" stroke="#e5e7eb" stroke-width="0.5"/>
  <line x1="578.9" y1="16" x2="578.9" y2="171" stroke="#e5e7eb" stroke-width="0.5"/>
  <line x1="598.3" y1="16" x2="598.3" y2="171" stroke="#e5e7eb" stroke-width="0.5"/>
  <line x1="612.1" y1="16" x2="612.1" y2="171" stroke="#e5e7eb" stroke-width="0.5"/>
  <line x1="622.9" y1="16" x2="622.9" y2="171" stroke="#e5e7eb" stroke-width="0.5"/>
  <line x1="631.6" y1="16" x2="631.6" y2="171" stroke="#e5e7eb" stroke-width="0.5"/>
  <line x1="639.0" y1="16" x2="639.0" y2="171" stroke="#e5e7eb" stroke-width="0.5"/>
  <line x1="645.4" y1="16" x2="645.4" y2="171" stroke="#e5e7eb" stroke-width="0.5"/>
  <line x1="651.1" y1="16" x2="651.1" y2="171" stroke="#e5e7eb" stroke-width="0.5"/>
  <line x1="689.4" y1="16" x2="689.4" y2="171" stroke="#e5e7eb" stroke-width="0.5"/>
  <line x1="708.9" y1="16" x2="708.9" y2="171" stroke="#e5e7eb" stroke-width="0.5"/>
  <line x1="722.7" y1="16" x2="722.7" y2="171" stroke="#e5e7eb" stroke-width="0.5"/>
  <line x1="733.4" y1="16" x2="733.4" y2="171" stroke="#e5e7eb" stroke-width="0.5"/>
  <line x1="742.2" y1="16" x2="742.2" y2="171" stroke="#e5e7eb" stroke-width="0.5"/>
  <line x1="749.6" y1="16" x2="749.6" y2="171" stroke="#e5e7eb" stroke-width="0.5"/>
  <line x1="756.0" y1="16" x2="756.0" y2="171" stroke="#e5e7eb" stroke-width="0.5"/>
  <line x1="761.7" y1="16" x2="761.7" y2="171" stroke="#e5e7eb" stroke-width="0.5"/>
  <line x1="800.0" y1="16" x2="800.0" y2="171" stroke="#e5e7eb" stroke-width="0.5"/>
  <line x1="545.6" y1="16" x2="545.6" y2="171" stroke="#e5e7eb" stroke-width="0.5"/>
  <text x="545.6" y="183" text-anchor="middle" font-size="8" fill="#6b7280">100</text>
  <line x1="656.1" y1="16" x2="656.1" y2="171" stroke="#e5e7eb" stroke-width="0.5"/>
  <text x="656.1" y="183" text-anchor="middle" font-size="8" fill="#6b7280">1k</text>
  <line x1="766.7" y1="16" x2="766.7" y2="171" stroke="#e5e7eb" stroke-width="0.5"/>
  <text x="766.7" y="183" text-anchor="middle" font-size="8" fill="#6b7280">10k</text>
  <line x1="435" y1="54.8" x2="800" y2="54.8" stroke="#e5e7eb" stroke-width="0.5"/>
  <line x1="435" y1="132.3" x2="800" y2="132.3" stroke="#e5e7eb" stroke-width="0.5"/>
  <line x1="435" y1="16.0" x2="800" y2="16.0" stroke="#e5e7eb" stroke-width="0.5"/>
  <text x="431" y="19.0" text-anchor="end" font-size="8" fill="#6b7280">180</text>
  <text x="431" y="96.5" text-anchor="end" font-size="8" fill="#6b7280">0</text>
  <line x1="435" y1="171.0" x2="800" y2="171.0" stroke="#e5e7eb" stroke-width="0.5"/>
  <text x="431" y="174.0" text-anchor="end" font-size="8" fill="#6b7280">-180</text>
  <defs><linearGradient id="g327" x1="0" y1="16" x2="0" y2="93.5" gradientUnits="userSpaceOnUse">
    <stop offset="0%" stop-color="#e74c3c" stop-opacity="0.15"/>
    <stop offset="100%" stop-color="#e74c3c" stop-opacity="0.02"/>
  </linearGradient></defs>
  <defs><linearGradient id="g328" x1="0" y1="171" x2="0" y2="93.5" gradientUnits="userSpaceOnUse">
    <stop offset="0%" stop-color="#e74c3c" stop-opacity="0.15"/>
    <stop offset="100%" stop-color="#e74c3c" stop-opacity="0.02"/>
  </linearGradient></defs>
  <defs><clipPath id="c329"><rect x="435" y="16" width="365" height="77.5"/></clipPath></defs>
  <defs><clipPath id="c330"><rect x="435" y="93.5" width="365" height="77.5"/></clipPath></defs>
  <path d="M438.5,94.7 438.5,94.7 471.8,95.8 491.3,97.0 505.1,98.2 515.8,99.4 524.6,100.5 532.0,101.7 538.4,102.9 544.1,104.1 549.1,105.2 553.7,106.4 557.9,107.6 561.7,108.8 565.3,109.9 568.6,111.1 571.7,112.3 574.6,113.4 577.3,114.6 579.9,115.8 582.4,117.0 584.7,118.1 587.0,119.3 589.1,120.5 591.2,121.7 593.1,122.8 595.0,124.0 596.8,125.2 598.6,126.3 600.2,127.5 601.9,128.7 603.4,129.9 605.0,131.0 606.5,132.2 607.9,133.4 609.3,134.6 610.6,135.7 611.9,136.9 613.2,138.1 614.5,139.3 615.7,140.4 616.9,141.6 618.0,142.8 619.2,143.9 620.3,145.1 621.3,146.3 622.4,147.5 623.4,148.6 624.4,149.8 625.4,151.0 626.4,152.2 627.4,153.3 628.3,154.5 629.2,155.7 630.1,156.8 631.0,158.0 631.8,159.2 632.7,160.4 633.5,161.5 634.4,162.7 635.2,163.9 636.7,166.2 638.3,168.6 639.7,170.9 641.2,18.3 642.6,20.6 643.9,23.0 645.2,25.3 646.5,27.7 647.8,30.0 649.0,32.3 650.2,34.7 651.3,37.0 652.4,39.4 653.6,41.7 654.6,44.1 655.7,46.4 656.7,48.8 657.7,51.1 658.7,53.5 659.7,55.8 660.6,58.2 661.6,60.5 662.5,62.8 663.4,65.2 664.3,67.5 665.1,69.9 666.0,72.2 666.8,74.6 667.6,76.9 668.4,79.3 669.6,82.8 670.8,86.3 671.9,89.8 673.0,93.3 674.1,96.9 675.2,100.4 676.2,103.9 677.2,107.4 678.2,110.9 679.2,114.5 680.1,118.0 681.0,121.5 682.0,125.0 682.9,128.5 683.7,132.1 684.6,135.6 685.5,139.1 686.3,142.6 687.1,146.1 687.9,149.7 689.0,154.3 690.0,159.0 691.0,163.7 692.0,168.4 693.0,18.1 693.9,22.8 694.9,27.5 695.8,32.2 696.7,36.9 697.6,41.6 698.4,46.3 699.3,51.0 700.1,55.7 700.9,60.4 701.7,65.0 702.7,70.9 703.7,76.8 704.6,82.6 705.6,88.5 706.5,94.4 707.4,100.2 708.3,106.1 709.1,112.0 710.0,117.8 710.8,123.7 711.6,129.6 712.4,135.4 713.4,142.5 714.3,149.5 715.2,156.5 716.1,163.6 717.0,170.6 717.9,22.7 718.7,29.7 719.6,36.7 720.4,43.8 721.2,50.8 722.1,59.0 723.0,67.2 723.9,75.4 724.8,83.7 725.7,91.9 726.5,100.1 727.3,108.3 728.1,116.5 728.9,124.7 729.8,134.1 730.7,143.5 731.6,152.9 732.4,162.3 733.3,16.6 734.1,26.0 734.9,35.4 735.8,46.0 736.7,56.5 737.5,67.1 738.4,77.6 739.2,88.2 740.0,98.8 740.8,109.3 741.7,121.0 742.6,132.8 743.4,144.5 744.3,156.2 745.1,168.0 745.9,24.7 746.8,37.6 747.6,50.5 748.5,63.4 749.3,76.3 750.1,89.2 751.0,103.3 751.8,117.4 752.7,131.5 753.5,145.5 754.3,159.6 755.1,19.9 756.0,35.1 756.8,50.4 757.6,65.6 758.5,80.9 759.3,97.3 760.1,113.7 761.0,130.1 761.8,146.6 762.6,86.7 763.5,104.2 764.3,121.8 765.1,139.4 765.9,158.2 766.8,99.5 767.6,118.2 768.4,137.0 769.2,157.0 770.1,99.4 770.9,119.3 771.7,140.5 772.6,84.1 773.4,105.2 774.2,126.3 775.0,148.6 775.8,93.4 776.6,115.7 777.5,139.1 778.3,85.1 779.1,108.6 779.9,133.2 780.7,80.3 781.5,105.0 782.4,130.8 783.2,79.1 784.0,104.9 784.8,131.9 785.6,81.4 786.5,109.5 787.3,137.7 788.1,88.3 788.9,117.6 789.7,147.0 790.5,100.0 791.3,130.5 792.2,84.6 793.0,116.3 793.8,148.0 794.6,103.3 795.4,136.2 796.2,92.7 797.0,126.7 797.8,84.4 798.6,119.6 799.5,78.5 L799.5,93.5 L438.5,93.5 Z" fill="url(#g327)" clip-path="url(#c329)"/>
  <path d="M438.5,94.7 438.5,94.7 471.8,95.8 491.3,97.0 505.1,98.2 515.8,99.4 524.6,100.5 532.0,101.7 538.4,102.9 544.1,104.1 549.1,105.2 553.7,106.4 557.9,107.6 561.7,108.8 565.3,109.9 568.6,111.1 571.7,112.3 574.6,113.4 577.3,114.6 579.9,115.8 582.4,117.0 584.7,118.1 587.0,119.3 589.1,120.5 591.2,121.7 593.1,122.8 595.0,124.0 596.8,125.2 598.6,126.3 600.2,127.5 601.9,128.7 603.4,129.9 605.0,131.0 606.5,132.2 607.9,133.4 609.3,134.6 610.6,135.7 611.9,136.9 613.2,138.1 614.5,139.3 615.7,140.4 616.9,141.6 618.0,142.8 619.2,143.9 620.3,145.1 621.3,146.3 622.4,147.5 623.4,148.6 624.4,149.8 625.4,151.0 626.4,152.2 627.4,153.3 628.3,154.5 629.2,155.7 630.1,156.8 631.0,158.0 631.8,159.2 632.7,160.4 633.5,161.5 634.4,162.7 635.2,163.9 636.7,166.2 638.3,168.6 639.7,170.9 641.2,18.3 642.6,20.6 643.9,23.0 645.2,25.3 646.5,27.7 647.8,30.0 649.0,32.3 650.2,34.7 651.3,37.0 652.4,39.4 653.6,41.7 654.6,44.1 655.7,46.4 656.7,48.8 657.7,51.1 658.7,53.5 659.7,55.8 660.6,58.2 661.6,60.5 662.5,62.8 663.4,65.2 664.3,67.5 665.1,69.9 666.0,72.2 666.8,74.6 667.6,76.9 668.4,79.3 669.6,82.8 670.8,86.3 671.9,89.8 673.0,93.3 674.1,96.9 675.2,100.4 676.2,103.9 677.2,107.4 678.2,110.9 679.2,114.5 680.1,118.0 681.0,121.5 682.0,125.0 682.9,128.5 683.7,132.1 684.6,135.6 685.5,139.1 686.3,142.6 687.1,146.1 687.9,149.7 689.0,154.3 690.0,159.0 691.0,163.7 692.0,168.4 693.0,18.1 693.9,22.8 694.9,27.5 695.8,32.2 696.7,36.9 697.6,41.6 698.4,46.3 699.3,51.0 700.1,55.7 700.9,60.4 701.7,65.0 702.7,70.9 703.7,76.8 704.6,82.6 705.6,88.5 706.5,94.4 707.4,100.2 708.3,106.1 709.1,112.0 710.0,117.8 710.8,123.7 711.6,129.6 712.4,135.4 713.4,142.5 714.3,149.5 715.2,156.5 716.1,163.6 717.0,170.6 717.9,22.7 718.7,29.7 719.6,36.7 720.4,43.8 721.2,50.8 722.1,59.0 723.0,67.2 723.9,75.4 724.8,83.7 725.7,91.9 726.5,100.1 727.3,108.3 728.1,116.5 728.9,124.7 729.8,134.1 730.7,143.5 731.6,152.9 732.4,162.3 733.3,16.6 734.1,26.0 734.9,35.4 735.8,46.0 736.7,56.5 737.5,67.1 738.4,77.6 739.2,88.2 740.0,98.8 740.8,109.3 741.7,121.0 742.6,132.8 743.4,144.5 744.3,156.2 745.1,168.0 745.9,24.7 746.8,37.6 747.6,50.5 748.5,63.4 749.3,76.3 750.1,89.2 751.0,103.3 751.8,117.4 752.7,131.5 753.5,145.5 754.3,159.6 755.1,19.9 756.0,35.1 756.8,50.4 757.6,65.6 758.5,80.9 759.3,97.3 760.1,113.7 761.0,130.1 761.8,146.6 762.6,86.7 763.5,104.2 764.3,121.8 765.1,139.4 765.9,158.2 766.8,99.5 767.6,118.2 768.4,137.0 769.2,157.0 770.1,99.4 770.9,119.3 771.7,140.5 772.6,84.1 773.4,105.2 774.2,126.3 775.0,148.6 775.8,93.4 776.6,115.7 777.5,139.1 778.3,85.1 779.1,108.6 779.9,133.2 780.7,80.3 781.5,105.0 782.4,130.8 783.2,79.1 784.0,104.9 784.8,131.9 785.6,81.4 786.5,109.5 787.3,137.7 788.1,88.3 788.9,117.6 789.7,147.0 790.5,100.0 791.3,130.5 792.2,84.6 793.0,116.3 793.8,148.0 794.6,103.3 795.4,136.2 796.2,92.7 797.0,126.7 797.8,84.4 798.6,119.6 799.5,78.5 L799.5,93.5 L438.5,93.5 Z" fill="url(#g328)" clip-path="url(#c330)"/>
  <defs><clipPath id="pc331"><rect x="435" y="16" width="365" height="155"/></clipPath></defs>
  <polyline points="438.5,94.7 471.8,95.8 491.3,97.0 505.1,98.2 515.8,99.4 524.6,100.5 532.0,101.7 538.4,102.9 544.1,104.1 549.1,105.2 553.7,106.4 557.9,107.6 561.7,108.8 565.3,109.9 568.6,111.1 571.7,112.3 574.6,113.4 577.3,114.6 579.9,115.8 582.4,117.0 584.7,118.1 587.0,119.3 589.1,120.5 591.2,121.7 593.1,122.8 595.0,124.0 596.8,125.2 598.6,126.3 600.2,127.5 601.9,128.7 603.4,129.9 605.0,131.0 606.5,132.2 607.9,133.4 609.3,134.6 610.6,135.7 611.9,136.9 613.2,138.1 614.5,139.3 615.7,140.4 616.9,141.6 618.0,142.8 619.2,143.9 620.3,145.1 621.3,146.3 622.4,147.5 623.4,148.6 624.4,149.8 625.4,151.0 626.4,152.2 627.4,153.3 628.3,154.5 629.2,155.7 630.1,156.8 631.0,158.0 631.8,159.2 632.7,160.4 633.5,161.5 634.4,162.7 635.2,163.9 636.7,166.2 638.3,168.6 639.7,170.9 641.2,18.3 642.6,20.6 643.9,23.0 645.2,25.3 646.5,27.7 647.8,30.0 649.0,32.3 650.2,34.7 651.3,37.0 652.4,39.4 653.6,41.7 654.6,44.1 655.7,46.4 656.7,48.8 657.7,51.1 658.7,53.5 659.7,55.8 660.6,58.2 661.6,60.5 662.5,62.8 663.4,65.2 664.3,67.5 665.1,69.9 666.0,72.2 666.8,74.6 667.6,76.9 668.4,79.3 669.6,82.8 670.8,86.3 671.9,89.8 673.0,93.3 674.1,96.9 675.2,100.4 676.2,103.9 677.2,107.4 678.2,110.9 679.2,114.5 680.1,118.0 681.0,121.5 682.0,125.0 682.9,128.5 683.7,132.1 684.6,135.6 685.5,139.1 686.3,142.6 687.1,146.1 687.9,149.7 689.0,154.3 690.0,159.0 691.0,163.7 692.0,168.4 693.0,18.1 693.9,22.8 694.9,27.5 695.8,32.2 696.7,36.9 697.6,41.6 698.4,46.3 699.3,51.0 700.1,55.7 700.9,60.4 701.7,65.0 702.7,70.9 703.7,76.8 704.6,82.6 705.6,88.5 706.5,94.4 707.4,100.2 708.3,106.1 709.1,112.0 710.0,117.8 710.8,123.7 711.6,129.6 712.4,135.4 713.4,142.5 714.3,149.5 715.2,156.5 716.1,163.6 717.0,170.6 717.9,22.7 718.7,29.7 719.6,36.7 720.4,43.8 721.2,50.8 722.1,59.0 723.0,67.2 723.9,75.4 724.8,83.7 725.7,91.9 726.5,100.1 727.3,108.3 728.1,116.5 728.9,124.7 729.8,134.1 730.7,143.5 731.6,152.9 732.4,162.3 733.3,16.6 734.1,26.0 734.9,35.4 735.8,46.0 736.7,56.5 737.5,67.1 738.4,77.6 739.2,88.2 740.0,98.8 740.8,109.3 741.7,121.0 742.6,132.8 743.4,144.5 744.3,156.2 745.1,168.0 745.9,24.7 746.8,37.6 747.6,50.5 748.5,63.4 749.3,76.3 750.1,89.2 751.0,103.3 751.8,117.4 752.7,131.5 753.5,145.5 754.3,159.6 755.1,19.9 756.0,35.1 756.8,50.4 757.6,65.6 758.5,80.9 759.3,97.3 760.1,113.7 761.0,130.1 761.8,146.6 762.6,86.7 763.5,104.2 764.3,121.8 765.1,139.4 765.9,158.2 766.8,99.5 767.6,118.2 768.4,137.0 769.2,157.0 770.1,99.4 770.9,119.3 771.7,140.5 772.6,84.1 773.4,105.2 774.2,126.3 775.0,148.6 775.8,93.4 776.6,115.7 777.5,139.1 778.3,85.1 779.1,108.6 779.9,133.2 780.7,80.3 781.5,105.0 782.4,130.8 783.2,79.1 784.0,104.9 784.8,131.9 785.6,81.4 786.5,109.5 787.3,137.7 788.1,88.3 788.9,117.6 789.7,147.0 790.5,100.0 791.3,130.5 792.2,84.6 793.0,116.3 793.8,148.0 794.6,103.3 795.4,136.2 796.2,92.7 797.0,126.7 797.8,84.4 798.6,119.6 799.5,78.5" fill="none" stroke="#e74c3c" stroke-width="1.5" stroke-linejoin="round" clip-path="url(#pc331)"/>
  <line x1="34" y1="207" x2="34" y2="362" stroke="#d1d5db"/>
  <line x1="34" y1="284.5" x2="399" y2="284.5" stroke="#d1d5db"/>
  <text x="216.5" y="388" text-anchor="middle" font-size="9" fill="#6b7280">Hz</text>
  <text x="12" y="284.5" text-anchor="middle" font-size="9" fill="#6b7280" transform="rotate(-90 12 284.5)">Group delay</text>
  <line x1="67.3" y1="207" x2="67.3" y2="362" stroke="#e5e7eb" stroke-width="0.5"/>
  <line x1="86.8" y1="207" x2="86.8" y2="362" stroke="#e5e7eb" stroke-width="0.5"/>
  <line x1="100.6" y1="207" x2="100.6" y2="362" stroke="#e5e7eb" stroke-width="0.5"/>
  <line x1="111.3" y1="207" x2="111.3" y2="362" stroke="#e5e7eb" stroke-width="0.5"/>
  <line x1="120.0" y1="207" x2="120.0" y2="362" stroke="#e5e7eb" stroke-width="0.5"/>
  <line x1="127.4" y1="207" x2="127.4" y2="362" stroke="#e5e7eb" stroke-width="0.5"/>
  <line x1="133.9" y1="207" x2="133.9" y2="362" stroke="#e5e7eb" stroke-width="0.5"/>
  <line x1="139.5" y1="207" x2="139.5" y2="362" stroke="#e5e7eb" stroke-width="0.5"/>
  <line x1="177.9" y1="207" x2="177.9" y2="362" stroke="#e5e7eb" stroke-width="0.5"/>
  <line x1="197.3" y1="207" x2="197.3" y2="362" stroke="#e5e7eb" stroke-width="0.5"/>
  <line x1="211.1" y1="207" x2="211.1" y2="362" stroke="#e5e7eb" stroke-width="0.5"/>
  <line x1="221.9" y1="207" x2="221.9" y2="362" stroke="#e5e7eb" stroke-width="0.5"/>
  <line x1="230.6" y1="207" x2="230.6" y2="362" stroke="#e5e7eb" stroke-width="0.5"/>
  <line x1="238.0" y1="207" x2="238.0" y2="362" stroke="#e5e7eb" stroke-width="0.5"/>
  <line x1="244.4" y1="207" x2="244.4" y2="362" stroke="#e5e7eb" stroke-width="0.5"/>
  <line x1="250.1" y1="207" x2="250.1" y2="362" stroke="#e5e7eb" stroke-width="0.5"/>
  <line x1="288.4" y1="207" x2="288.4" y2="362" stroke="#e5e7eb" stroke-width="0.5"/>
  <line x1="307.9" y1="207" x2="307.9" y2="362" stroke="#e5e7eb" stroke-width="0.5"/>
  <line x1="321.7" y1="207" x2="321.7" y2="362" stroke="#e5e7eb" stroke-width="0.5"/>
  <line x1="332.4" y1="207" x2="332.4" y2="362" stroke="#e5e7eb" stroke-width="0.5"/>
  <line x1="341.2" y1="207" x2="341.2" y2="362" stroke="#e5e7eb" stroke-width="0.5"/>
  <line x1="348.6" y1="207" x2="348.6" y2="362" stroke="#e5e7eb" stroke-width="0.5"/>
  <line x1="355.0" y1="207" x2="355.0" y2="362" stroke="#e5e7eb" stroke-width="0.5"/>
  <line x1="360.7" y1="207" x2="360.7" y2="362" stroke="#e5e7eb" stroke-width="0.5"/>
  <line x1="399.0" y1="207" x2="399.0" y2="362" stroke="#e5e7eb" stroke-width="0.5"/>
  <line x1="144.6" y1="207" x2="144.6" y2="362" stroke="#e5e7eb" stroke-width="0.5"/>
  <text x="144.6" y="374" text-anchor="middle" font-size="8" fill="#6b7280">100</text>
  <line x1="255.1" y1="207" x2="255.1" y2="362" stroke="#e5e7eb" stroke-width="0.5"/>
  <text x="255.1" y="374" text-anchor="middle" font-size="8" fill="#6b7280">1k</text>
  <line x1="365.7" y1="207" x2="365.7" y2="362" stroke="#e5e7eb" stroke-width="0.5"/>
  <text x="365.7" y="374" text-anchor="middle" font-size="8" fill="#6b7280">10k</text>
  <line x1="34" y1="326.5" x2="399" y2="326.5" stroke="#e5e7eb" stroke-width="0.5"/>
  <text x="30" y="329.5" text-anchor="end" font-size="8" fill="#6b7280">-700</text>
  <text x="30" y="287.5" text-anchor="end" font-size="8" fill="#6b7280">0</text>
  <line x1="34" y1="242.5" x2="399" y2="242.5" stroke="#e5e7eb" stroke-width="0.5"/>
  <text x="30" y="245.5" text-anchor="end" font-size="8" fill="#6b7280">700</text>
  <defs><linearGradient id="g332" x1="0" y1="207" x2="0" y2="284.5" gradientUnits="userSpaceOnUse">
    <stop offset="0%" stop-color="#2ecc71" stop-opacity="0.15"/>
    <stop offset="100%" stop-color="#2ecc71" stop-opacity="0.02"/>
  </linearGradient></defs>
  <defs><linearGradient id="g333" x1="0" y1="362" x2="0" y2="284.5" gradientUnits="userSpaceOnUse">
    <stop offset="0%" stop-color="#2ecc71" stop-opacity="0.15"/>
    <stop offset="100%" stop-color="#2ecc71" stop-opacity="0.02"/>
  </linearGradient></defs>
  <defs><clipPath id="c334"><rect x="34" y="207" width="365" height="77.5"/></clipPath></defs>
  <defs><clipPath id="c335"><rect x="34" y="284.5" width="365" height="77.5"/></clipPath></defs>
  <path d="M37.5,282.6 37.5,282.6 70.8,282.6 90.3,282.6 104.1,282.6 114.8,282.6 123.6,282.6 131.0,282.6 137.4,282.6 143.1,282.6 148.1,282.6 152.7,282.6 156.9,282.6 160.7,282.6 164.3,282.6 167.6,282.6 170.7,282.6 173.6,282.6 176.3,282.6 178.9,282.6 181.4,282.6 183.7,282.6 186.0,282.6 188.1,282.6 190.2,282.6 192.1,282.6 194.0,282.6 195.8,282.6 197.6,282.6 199.2,282.6 200.9,282.6 202.4,282.6 204.0,282.6 205.5,282.6 206.9,282.6 208.3,282.6 209.6,282.6 210.9,282.6 212.2,282.6 213.5,282.6 214.7,282.6 215.9,282.6 217.0,282.6 218.2,282.6 219.3,282.6 220.3,282.6 221.4,282.6 222.4,282.6 223.4,282.6 224.4,282.6 225.4,282.6 226.4,282.6 227.3,282.6 228.2,282.6 229.1,282.6 230.0,282.6 230.8,282.6 231.7,282.6 232.5,282.6 233.4,282.6 234.2,282.6 235.7,282.6 237.3,282.6 238.7,282.6 240.2,282.6 241.6,282.6 242.9,282.6 244.2,282.6 245.5,282.6 246.8,282.6 248.0,282.6 249.2,282.6 250.3,282.6 251.4,282.6 252.6,282.6 253.6,282.6 254.7,282.6 255.7,282.6 256.7,282.6 257.7,282.6 258.7,282.6 259.6,282.6 260.6,282.6 261.5,282.6 262.4,282.6 263.3,282.6 264.1,282.6 265.0,282.6 265.8,282.6 266.6,282.6 267.4,282.6 268.6,282.6 269.8,282.6 270.9,282.6 272.0,282.6 273.1,282.6 274.2,282.6 275.2,282.6 276.2,282.6 277.2,282.6 278.2,282.6 279.1,282.6 280.0,282.6 281.0,282.6 281.9,282.6 282.7,282.6 283.6,282.6 284.5,282.6 285.3,282.6 286.1,282.6 286.9,282.6 288.0,282.6 289.0,282.6 290.0,282.6 291.0,282.6 292.0,282.6 292.9,282.6 293.9,282.6 294.8,282.6 295.7,282.6 296.6,282.6 297.4,282.6 298.3,282.6 299.1,282.6 299.9,282.6 300.7,282.6 301.7,282.6 302.7,282.6 303.6,282.6 304.6,282.6 305.5,282.6 306.4,282.6 307.3,282.6 308.1,282.6 309.0,282.6 309.8,282.6 310.6,282.6 311.4,282.6 312.4,282.6 313.3,282.6 314.2,282.6 315.1,282.6 316.0,282.6 316.9,282.6 317.7,282.6 318.6,282.6 319.4,282.6 320.2,282.6 321.1,282.6 322.0,282.6 322.9,282.6 323.8,282.6 324.7,282.6 325.5,282.6 326.3,282.6 327.1,282.6 327.9,282.6 328.8,282.6 329.7,282.6 330.6,282.6 331.4,282.6 332.3,282.6 333.1,282.6 333.9,282.6 334.8,282.6 335.7,282.6 336.5,282.6 337.4,282.6 338.2,282.6 339.0,282.6 339.8,282.6 340.7,282.6 341.6,282.6 342.4,282.6 343.3,282.6 344.1,282.6 344.9,282.6 345.8,282.6 346.6,282.6 347.5,282.6 348.3,282.6 349.1,282.6 350.0,282.6 350.8,282.6 351.7,282.6 352.5,282.6 353.3,282.6 354.1,282.6 355.0,282.6 355.8,282.6 356.6,282.6 357.5,282.6 358.3,282.6 359.1,282.6 360.0,282.6 360.8,282.6 361.6,282.6 362.5,282.6 363.3,282.6 364.1,282.6 364.9,344.1 365.8,282.6 366.6,282.6 367.4,282.6 368.2,282.6 369.1,282.6 369.9,282.6 370.7,282.6 371.6,282.6 372.4,282.6 373.2,282.6 374.0,282.6 374.8,282.6 375.6,282.6 376.5,282.6 377.3,282.6 378.1,282.6 378.9,282.6 379.7,282.6 380.5,282.6 381.4,282.6 382.2,282.6 383.0,282.6 383.8,282.6 384.6,282.6 385.5,282.6 386.3,282.6 387.1,282.6 387.9,282.6 388.7,282.6 389.5,282.6 390.3,282.6 391.2,282.6 392.0,282.6 392.8,344.1 393.6,282.6 394.4,282.6 395.2,282.6 396.0,282.6 396.8,282.6 397.6,282.6 398.5,282.6 L398.5,284.5 L37.5,284.5 Z" fill="url(#g332)" clip-path="url(#c334)"/>
  <path d="M37.5,282.6 37.5,282.6 70.8,282.6 90.3,282.6 104.1,282.6 114.8,282.6 123.6,282.6 131.0,282.6 137.4,282.6 143.1,282.6 148.1,282.6 152.7,282.6 156.9,282.6 160.7,282.6 164.3,282.6 167.6,282.6 170.7,282.6 173.6,282.6 176.3,282.6 178.9,282.6 181.4,282.6 183.7,282.6 186.0,282.6 188.1,282.6 190.2,282.6 192.1,282.6 194.0,282.6 195.8,282.6 197.6,282.6 199.2,282.6 200.9,282.6 202.4,282.6 204.0,282.6 205.5,282.6 206.9,282.6 208.3,282.6 209.6,282.6 210.9,282.6 212.2,282.6 213.5,282.6 214.7,282.6 215.9,282.6 217.0,282.6 218.2,282.6 219.3,282.6 220.3,282.6 221.4,282.6 222.4,282.6 223.4,282.6 224.4,282.6 225.4,282.6 226.4,282.6 227.3,282.6 228.2,282.6 229.1,282.6 230.0,282.6 230.8,282.6 231.7,282.6 232.5,282.6 233.4,282.6 234.2,282.6 235.7,282.6 237.3,282.6 238.7,282.6 240.2,282.6 241.6,282.6 242.9,282.6 244.2,282.6 245.5,282.6 246.8,282.6 248.0,282.6 249.2,282.6 250.3,282.6 251.4,282.6 252.6,282.6 253.6,282.6 254.7,282.6 255.7,282.6 256.7,282.6 257.7,282.6 258.7,282.6 259.6,282.6 260.6,282.6 261.5,282.6 262.4,282.6 263.3,282.6 264.1,282.6 265.0,282.6 265.8,282.6 266.6,282.6 267.4,282.6 268.6,282.6 269.8,282.6 270.9,282.6 272.0,282.6 273.1,282.6 274.2,282.6 275.2,282.6 276.2,282.6 277.2,282.6 278.2,282.6 279.1,282.6 280.0,282.6 281.0,282.6 281.9,282.6 282.7,282.6 283.6,282.6 284.5,282.6 285.3,282.6 286.1,282.6 286.9,282.6 288.0,282.6 289.0,282.6 290.0,282.6 291.0,282.6 292.0,282.6 292.9,282.6 293.9,282.6 294.8,282.6 295.7,282.6 296.6,282.6 297.4,282.6 298.3,282.6 299.1,282.6 299.9,282.6 300.7,282.6 301.7,282.6 302.7,282.6 303.6,282.6 304.6,282.6 305.5,282.6 306.4,282.6 307.3,282.6 308.1,282.6 309.0,282.6 309.8,282.6 310.6,282.6 311.4,282.6 312.4,282.6 313.3,282.6 314.2,282.6 315.1,282.6 316.0,282.6 316.9,282.6 317.7,282.6 318.6,282.6 319.4,282.6 320.2,282.6 321.1,282.6 322.0,282.6 322.9,282.6 323.8,282.6 324.7,282.6 325.5,282.6 326.3,282.6 327.1,282.6 327.9,282.6 328.8,282.6 329.7,282.6 330.6,282.6 331.4,282.6 332.3,282.6 333.1,282.6 333.9,282.6 334.8,282.6 335.7,282.6 336.5,282.6 337.4,282.6 338.2,282.6 339.0,282.6 339.8,282.6 340.7,282.6 341.6,282.6 342.4,282.6 343.3,282.6 344.1,282.6 344.9,282.6 345.8,282.6 346.6,282.6 347.5,282.6 348.3,282.6 349.1,282.6 350.0,282.6 350.8,282.6 351.7,282.6 352.5,282.6 353.3,282.6 354.1,282.6 355.0,282.6 355.8,282.6 356.6,282.6 357.5,282.6 358.3,282.6 359.1,282.6 360.0,282.6 360.8,282.6 361.6,282.6 362.5,282.6 363.3,282.6 364.1,282.6 364.9,344.1 365.8,282.6 366.6,282.6 367.4,282.6 368.2,282.6 369.1,282.6 369.9,282.6 370.7,282.6 371.6,282.6 372.4,282.6 373.2,282.6 374.0,282.6 374.8,282.6 375.6,282.6 376.5,282.6 377.3,282.6 378.1,282.6 378.9,282.6 379.7,282.6 380.5,282.6 381.4,282.6 382.2,282.6 383.0,282.6 383.8,282.6 384.6,282.6 385.5,282.6 386.3,282.6 387.1,282.6 387.9,282.6 388.7,282.6 389.5,282.6 390.3,282.6 391.2,282.6 392.0,282.6 392.8,344.1 393.6,282.6 394.4,282.6 395.2,282.6 396.0,282.6 396.8,282.6 397.6,282.6 398.5,282.6 L398.5,284.5 L37.5,284.5 Z" fill="url(#g333)" clip-path="url(#c335)"/>
  <defs><clipPath id="pc336"><rect x="34" y="207" width="365" height="155"/></clipPath></defs>
  <polyline points="37.5,282.6 70.8,282.6 90.3,282.6 104.1,282.6 114.8,282.6 123.6,282.6 131.0,282.6 137.4,282.6 143.1,282.6 148.1,282.6 152.7,282.6 156.9,282.6 160.7,282.6 164.3,282.6 167.6,282.6 170.7,282.6 173.6,282.6 176.3,282.6 178.9,282.6 181.4,282.6 183.7,282.6 186.0,282.6 188.1,282.6 190.2,282.6 192.1,282.6 194.0,282.6 195.8,282.6 197.6,282.6 199.2,282.6 200.9,282.6 202.4,282.6 204.0,282.6 205.5,282.6 206.9,282.6 208.3,282.6 209.6,282.6 210.9,282.6 212.2,282.6 213.5,282.6 214.7,282.6 215.9,282.6 217.0,282.6 218.2,282.6 219.3,282.6 220.3,282.6 221.4,282.6 222.4,282.6 223.4,282.6 224.4,282.6 225.4,282.6 226.4,282.6 227.3,282.6 228.2,282.6 229.1,282.6 230.0,282.6 230.8,282.6 231.7,282.6 232.5,282.6 233.4,282.6 234.2,282.6 235.7,282.6 237.3,282.6 238.7,282.6 240.2,282.6 241.6,282.6 242.9,282.6 244.2,282.6 245.5,282.6 246.8,282.6 248.0,282.6 249.2,282.6 250.3,282.6 251.4,282.6 252.6,282.6 253.6,282.6 254.7,282.6 255.7,282.6 256.7,282.6 257.7,282.6 258.7,282.6 259.6,282.6 260.6,282.6 261.5,282.6 262.4,282.6 263.3,282.6 264.1,282.6 265.0,282.6 265.8,282.6 266.6,282.6 267.4,282.6 268.6,282.6 269.8,282.6 270.9,282.6 272.0,282.6 273.1,282.6 274.2,282.6 275.2,282.6 276.2,282.6 277.2,282.6 278.2,282.6 279.1,282.6 280.0,282.6 281.0,282.6 281.9,282.6 282.7,282.6 283.6,282.6 284.5,282.6 285.3,282.6 286.1,282.6 286.9,282.6 288.0,282.6 289.0,282.6 290.0,282.6 291.0,282.6 292.0,282.6 292.9,282.6 293.9,282.6 294.8,282.6 295.7,282.6 296.6,282.6 297.4,282.6 298.3,282.6 299.1,282.6 299.9,282.6 300.7,282.6 301.7,282.6 302.7,282.6 303.6,282.6 304.6,282.6 305.5,282.6 306.4,282.6 307.3,282.6 308.1,282.6 309.0,282.6 309.8,282.6 310.6,282.6 311.4,282.6 312.4,282.6 313.3,282.6 314.2,282.6 315.1,282.6 316.0,282.6 316.9,282.6 317.7,282.6 318.6,282.6 319.4,282.6 320.2,282.6 321.1,282.6 322.0,282.6 322.9,282.6 323.8,282.6 324.7,282.6 325.5,282.6 326.3,282.6 327.1,282.6 327.9,282.6 328.8,282.6 329.7,282.6 330.6,282.6 331.4,282.6 332.3,282.6 333.1,282.6 333.9,282.6 334.8,282.6 335.7,282.6 336.5,282.6 337.4,282.6 338.2,282.6 339.0,282.6 339.8,282.6 340.7,282.6 341.6,282.6 342.4,282.6 343.3,282.6 344.1,282.6 344.9,282.6 345.8,282.6 346.6,282.6 347.5,282.6 348.3,282.6 349.1,282.6 350.0,282.6 350.8,282.6 351.7,282.6 352.5,282.6 353.3,282.6 354.1,282.6 355.0,282.6 355.8,282.6 356.6,282.6 357.5,282.6 358.3,282.6 359.1,282.6 360.0,282.6 360.8,282.6 361.6,282.6 362.5,282.6 363.3,282.6 364.1,282.6 364.9,344.1 365.8,282.6 366.6,282.6 367.4,282.6 368.2,282.6 369.1,282.6 369.9,282.6 370.7,282.6 371.6,282.6 372.4,282.6 373.2,282.6 374.0,282.6 374.8,282.6 375.6,282.6 376.5,282.6 377.3,282.6 378.1,282.6 378.9,282.6 379.7,282.6 380.5,282.6 381.4,282.6 382.2,282.6 383.0,282.6 383.8,282.6 384.6,282.6 385.5,282.6 386.3,282.6 387.1,282.6 387.9,282.6 388.7,282.6 389.5,282.6 390.3,282.6 391.2,282.6 392.0,282.6 392.8,344.1 393.6,282.6 394.4,282.6 395.2,282.6 396.0,282.6 396.8,282.6 397.6,282.6 398.5,282.6" fill="none" stroke="#2ecc71" stroke-width="1.5" stroke-linejoin="round" clip-path="url(#pc336)"/>
  <line x1="435" y1="207" x2="435" y2="362" stroke="#d1d5db"/>
  <line x1="435" y1="284.5" x2="800" y2="284.5" stroke="#d1d5db"/>
  <text x="617.5" y="388" text-anchor="middle" font-size="9" fill="#6b7280">Samples</text>
  <text x="413" y="284.5" text-anchor="middle" font-size="9" fill="#6b7280" transform="rotate(-90 413 284.5)">Impulse response</text>
  <line x1="435.0" y1="207" x2="435.0" y2="362" stroke="#e5e7eb" stroke-width="0.5"/>
  <text x="435.0" y="374" text-anchor="middle" font-size="8" fill="#6b7280">0</text>
  <line x1="608.8" y1="207" x2="608.8" y2="362" stroke="#e5e7eb" stroke-width="0.5"/>
  <text x="608.8" y="374" text-anchor="middle" font-size="8" fill="#6b7280">30</text>
  <line x1="782.6" y1="207" x2="782.6" y2="362" stroke="#e5e7eb" stroke-width="0.5"/>
  <text x="782.6" y="374" text-anchor="middle" font-size="8" fill="#6b7280">60</text>
  <line x1="435" y1="350.2" x2="800" y2="350.2" stroke="#e5e7eb" stroke-width="0.5"/>
  <text x="431" y="353.2" text-anchor="end" font-size="8" fill="#6b7280">-0.3</text>
  <text x="431" y="287.5" text-anchor="end" font-size="8" fill="#6b7280">0</text>
  <line x1="435" y1="218.8" x2="800" y2="218.8" stroke="#e5e7eb" stroke-width="0.5"/>
  <text x="431" y="221.8" text-anchor="end" font-size="8" fill="#6b7280">0.3</text>
  <defs><linearGradient id="g337" x1="0" y1="207" x2="0" y2="284.5" gradientUnits="userSpaceOnUse">
    <stop offset="0%" stop-color="#f39c12" stop-opacity="0.15"/>
    <stop offset="100%" stop-color="#f39c12" stop-opacity="0.02"/>
  </linearGradient></defs>
  <defs><linearGradient id="g338" x1="0" y1="362" x2="0" y2="284.5" gradientUnits="userSpaceOnUse">
    <stop offset="0%" stop-color="#f39c12" stop-opacity="0.15"/>
    <stop offset="100%" stop-color="#f39c12" stop-opacity="0.02"/>
  </linearGradient></defs>
  <defs><clipPath id="c339"><rect x="435" y="207" width="365" height="77.5"/></clipPath></defs>
  <defs><clipPath id="c340"><rect x="435" y="284.5" width="365" height="77.5"/></clipPath></defs>
  <path d="M435.0,283.6 435.0,283.6 440.8,283.4 446.6,283.5 452.4,283.8 458.2,284.0 464.0,283.8 469.8,283.2 475.6,283.0 481.3,283.5 487.1,284.5 492.9,284.7 498.7,283.6 504.5,282.2 510.3,282.1 516.1,284.0 521.9,286.0 527.7,285.6 533.5,282.6 539.3,280.0 545.1,281.1 550.9,285.9 556.7,289.3 562.5,286.6 568.3,279.2 574.0,274.8 579.8,280.3 585.6,293.0 591.4,299.7 597.2,287.2 603.0,255.7 608.8,221.7 614.6,207.0 620.4,221.7 626.2,255.7 632.0,287.2 637.8,299.7 643.6,293.0 649.4,280.3 655.2,274.8 661.0,279.2 666.7,286.6 672.5,289.3 678.3,285.9 684.1,281.1 689.9,280.0 695.7,282.6 701.5,285.6 707.3,286.0 713.1,284.0 718.9,282.1 724.7,282.2 730.5,283.6 736.3,284.7 742.1,284.5 747.9,283.5 753.7,283.0 759.4,283.2 765.2,283.8 771.0,284.0 776.8,283.8 782.6,283.5 788.4,283.4 794.2,283.6 L794.2,284.5 L435.0,284.5 Z" fill="url(#g337)" clip-path="url(#c339)"/>
  <path d="M435.0,283.6 435.0,283.6 440.8,283.4 446.6,283.5 452.4,283.8 458.2,284.0 464.0,283.8 469.8,283.2 475.6,283.0 481.3,283.5 487.1,284.5 492.9,284.7 498.7,283.6 504.5,282.2 510.3,282.1 516.1,284.0 521.9,286.0 527.7,285.6 533.5,282.6 539.3,280.0 545.1,281.1 550.9,285.9 556.7,289.3 562.5,286.6 568.3,279.2 574.0,274.8 579.8,280.3 585.6,293.0 591.4,299.7 597.2,287.2 603.0,255.7 608.8,221.7 614.6,207.0 620.4,221.7 626.2,255.7 632.0,287.2 637.8,299.7 643.6,293.0 649.4,280.3 655.2,274.8 661.0,279.2 666.7,286.6 672.5,289.3 678.3,285.9 684.1,281.1 689.9,280.0 695.7,282.6 701.5,285.6 707.3,286.0 713.1,284.0 718.9,282.1 724.7,282.2 730.5,283.6 736.3,284.7 742.1,284.5 747.9,283.5 753.7,283.0 759.4,283.2 765.2,283.8 771.0,284.0 776.8,283.8 782.6,283.5 788.4,283.4 794.2,283.6 L794.2,284.5 L435.0,284.5 Z" fill="url(#g338)" clip-path="url(#c340)"/>
  <defs><clipPath id="pc341"><rect x="435" y="207" width="365" height="155"/></clipPath></defs>
  <polyline points="435.0,283.6 440.8,283.4 446.6,283.5 452.4,283.8 458.2,284.0 464.0,283.8 469.8,283.2 475.6,283.0 481.3,283.5 487.1,284.5 492.9,284.7 498.7,283.6 504.5,282.2 510.3,282.1 516.1,284.0 521.9,286.0 527.7,285.6 533.5,282.6 539.3,280.0 545.1,281.1 550.9,285.9 556.7,289.3 562.5,286.6 568.3,279.2 574.0,274.8 579.8,280.3 585.6,293.0 591.4,299.7 597.2,287.2 603.0,255.7 608.8,221.7 614.6,207.0 620.4,221.7 626.2,255.7 632.0,287.2 637.8,299.7 643.6,293.0 649.4,280.3 655.2,274.8 661.0,279.2 666.7,286.6 672.5,289.3 678.3,285.9 684.1,281.1 689.9,280.0 695.7,282.6 701.5,285.6 707.3,286.0 713.1,284.0 718.9,282.1 724.7,282.2 730.5,283.6 736.3,284.7 742.1,284.5 747.9,283.5 753.7,283.0 759.4,283.2 765.2,283.8 771.0,284.0 776.8,283.8 782.6,283.5 788.4,283.4 794.2,283.6" fill="none" stroke="#f39c12" stroke-width="1.3" stroke-linejoin="round" clip-path="url(#pc341)"/>
</svg>
