<svg xmlns="http://www.w3.org/2000/svg" viewBox="0 0 820 392" style="font-family:system-ui,-apple-system,sans-serif">
  <text x="800" y="11" text-anchor="end" font-size="11" font-weight="600" fill="#6b7280">remez equiripple, 63 taps</text>
  <line x1="34" y1="16" x2="34" y2="171" stroke="#d1d5db"/>
  <line x1="34" y1="47.0" x2="392" y2="47.0" stroke="#d1d5db"/>
  <text x="213" y="197" text-anchor="middle" font-size="9" fill="#6b7280">Hz</text>
  <text x="12" y="93.5" text-anchor="middle" font-size="9" fill="#6b7280" transform="rotate(-90 12 93.5)">dB</text>
  <line x1="66.6" y1="16" x2="66.6" y2="171" stroke="#e5e7eb" stroke-width="0.5"/>
  <line x1="85.7" y1="16" x2="85.7" y2="171" stroke="#e5e7eb" stroke-width="0.5"/>
  <line x1="99.3" y1="16" x2="99.3" y2="171" stroke="#e5e7eb" stroke-width="0.5"/>
  <line x1="109.8" y1="16" x2="109.8" y2="171" stroke="#e5e7eb" stroke-width="0.5"/>
  <line x1="118.4" y1="16" x2="118.4" y2="171" stroke="#e5e7eb" stroke-width="0.5"/>
  <line x1="125.7" y1="16" x2="125.7" y2="171" stroke="#e5e7eb" stroke-width="0.5"/>
  <line x1="131.9" y1="16" x2="131.9" y2="171" stroke="#e5e7eb" stroke-width="0.5"/>
  <line x1="137.5" y1="16" x2="137.5" y2="171" stroke="#e5e7eb" stroke-width="0.5"/>
  <line x1="175.1" y1="16" x2="175.1" y2="171" stroke="#e5e7eb" stroke-width="0.5"/>
  <line x1="194.2" y1="16" x2="194.2" y2="171" stroke="#e5e7eb" stroke-width="0.5"/>
  <line x1="207.7" y1="16" x2="207.7" y2="171" stroke="#e5e7eb" stroke-width="0.5"/>
  <line x1="218.3" y1="16" x2="218.3" y2="171" stroke="#e5e7eb" stroke-width="0.5"/>
  <line x1="226.8" y1="16" x2="226.8" y2="171" stroke="#e5e7eb" stroke-width="0.5"/>
  <line x1="234.1" y1="16" x2="234.1" y2="171" stroke="#e5e7eb" stroke-width="0.5"/>
  <line x1="240.4" y1="16" x2="240.4" y2="171" stroke="#e5e7eb" stroke-width="0.5"/>
  <line x1="245.9" y1="16" x2="245.9" y2="171" stroke="#e5e7eb" stroke-width="0.5"/>
  <line x1="283.5" y1="16" x2="283.5" y2="171" stroke="#e5e7eb" stroke-width="0.5"/>
  <line x1="302.6" y1="16" x2="302.6" y2="171" stroke="#e5e7eb" stroke-width="0.5"/>
  <line x1="316.2" y1="16" x2="316.2" y2="171" stroke="#e5e7eb" stroke-width="0.5"/>
  <line x1="326.7" y1="16" x2="326.7" y2="171" stroke="#e5e7eb" stroke-width="0.5"/>
  <line x1="335.3" y1="16" x2="335.3" y2="171" stroke="#e5e7eb" stroke-width="0.5"/>
  <line x1="342.6" y1="16" x2="342.6" y2="171" stroke="#e5e7eb" stroke-width="0.5"/>
  <line x1="348.8" y1="16" x2="348.8" y2="171" stroke="#e5e7eb" stroke-width="0.5"/>
  <line x1="354.4" y1="16" x2="354.4" y2="171" stroke="#e5e7eb" stroke-width="0.5"/>
  <line x1="392.0" y1="16" x2="392.0" y2="171" stroke="#e5e7eb" stroke-width="0.5"/>
  <line x1="142.5" y1="16" x2="142.5" y2="171" stroke="#e5e7eb" stroke-width="0.5"/>
  <text x="142.5" y="183" text-anchor="middle" font-size="8" fill="#6b7280">100</text>
  <line x1="250.9" y1="16" x2="250.9" y2="171" stroke="#e5e7eb" stroke-width="0.5"/>
  <text x="250.9" y="183" text-anchor="middle" font-size="8" fill="#6b7280">1k</text>
  <line x1="359.4" y1="16" x2="359.4" y2="171" stroke="#e5e7eb" stroke-width="0.5"/>
  <text x="359.4" y="183" text-anchor="middle" font-size="8" fill="#6b7280">10k</text>
  <line x1="34" y1="31.5" x2="392" y2="31.5" stroke="#e5e7eb" stroke-width="0.5"/>
  <line x1="34" y1="62.5" x2="392" y2="62.5" stroke="#e5e7eb" stroke-width="0.5"/>
  <line x1="34" y1="16.0" x2="392" y2="16.0" stroke="#e5e7eb" stroke-width="0.5"/>
  <text x="30" y="19.0" text-anchor="end" font-size="8" fill="#6b7280">+20</text>
  <text x="30" y="50.0" text-anchor="end" font-size="8" fill="#6b7280">0</text>
  <line x1="34" y1="78.0" x2="392" y2="78.0" stroke="#e5e7eb" stroke-width="0.5"/>
  <text x="30" y="81.0" text-anchor="end" font-size="8" fill="#6b7280">-20</text>
  <line x1="34" y1="109.0" x2="392" y2="109.0" stroke="#e5e7eb" stroke-width="0.5"/>
  <text x="30" y="112.0" text-anchor="end" font-size="8" fill="#6b7280">-40</text>
  <line x1="34" y1="140.0" x2="392" y2="140.0" stroke="#e5e7eb" stroke-width="0.5"/>
  <text x="30" y="143.0" text-anchor="end" font-size="8" fill="#6b7280">-60</text>
  <line x1="34" y1="171.0" x2="392" y2="171.0" stroke="#e5e7eb" stroke-width="0.5"/>
  <text x="30" y="174.0" text-anchor="end" font-size="8" fill="#6b7280">-80</text>
  <defs><linearGradient id="g325" x1="0" y1="16" x2="0" y2="171" gradientUnits="userSpaceOnUse">
    <stop offset="0%" stop-color="#4a90d9" stop-opacity="0.15"/>
    <stop offset="100%" stop-color="#4a90d9" stop-opacity="0.02"/>
  </linearGradient></defs>
  <path d="M37.5,44.0 37.5,44.0 70.1,44.0 89.2,44.0 102.8,44.0 113.3,44.0 121.9,44.1 129.1,44.1 135.4,44.1 141.0,44.1 145.9,44.1 150.4,44.1 154.5,44.2 158.3,44.2 161.8,44.2 165.0,44.3 168.1,44.3 170.9,44.3 173.6,44.4 176.2,44.4 178.6,44.4 180.9,44.5 183.1,44.5 185.2,44.6 187.2,44.6 189.1,44.6 190.9,44.7 192.7,44.7 194.4,44.8 196.1,44.8 197.7,44.9 199.2,45.0 200.7,45.0 202.2,45.1 203.6,45.1 204.9,45.2 206.3,45.2 207.6,45.3 208.8,45.4 210.0,45.4 211.2,45.5 212.4,45.6 213.5,45.6 214.6,45.7 215.7,45.7 216.8,45.8 217.8,45.9 218.8,45.9 219.8,46.0 220.8,46.1 221.7,46.1 222.7,46.2 223.6,46.3 224.5,46.3 225.4,46.4 226.2,46.4 227.1,46.5 227.9,46.6 228.7,46.6 229.5,46.7 231.1,46.8 232.6,46.9 234.1,47.0 235.5,47.1 236.9,47.2 238.2,47.3 239.6,47.4 240.8,47.5 242.1,47.5 243.3,47.6 244.5,47.6 245.6,47.7 246.7,47.7 247.8,47.7 248.9,47.7 249.9,47.7 251.0,47.7 252.0,47.7 252.9,47.7 253.9,47.7 254.8,47.7 255.8,47.7 256.7,47.6 257.6,47.6 258.4,47.5 259.3,47.5 260.1,47.4 261.0,47.4 261.8,47.3 263.0,47.3 264.1,47.2 265.3,47.1 266.4,47.0 267.5,46.9 268.5,46.9 269.6,46.8 270.6,46.7 271.6,46.7 272.5,46.6 273.5,46.6 274.4,46.6 275.3,46.6 276.2,46.6 277.1,46.6 278.0,46.6 278.8,46.6 279.6,46.6 280.5,46.7 281.3,46.7 282.3,46.8 283.4,46.8 284.4,46.9 285.3,47.0 286.3,47.1 287.3,47.1 288.2,47.2 289.1,47.2 290.0,47.3 290.9,47.3 291.7,47.3 292.6,47.3 293.4,47.3 294.2,47.3 295.0,47.3 296.0,47.2 297.0,47.2 297.9,47.1 298.8,47.0 299.7,47.0 300.6,46.9 301.5,46.8 302.4,46.8 303.2,46.8 304.0,46.8 304.9,46.8 305.8,46.8 306.7,46.8 307.7,46.9 308.6,46.9 309.5,47.0 310.3,47.0 311.2,47.1 312.0,47.2 312.8,47.2 313.7,47.2 314.6,47.2 315.5,47.2 316.4,47.1 317.3,47.1 318.1,47.0 319.0,46.9 319.8,46.9 320.6,46.9 321.4,46.8 322.3,46.8 323.2,46.9 324.1,46.9 324.9,47.0 325.7,47.0 326.6,47.1 327.4,47.1 328.3,47.1 329.1,47.1 330.0,47.1 330.8,47.1 331.7,47.0 332.5,47.0 333.3,46.9 334.2,46.9 335.0,46.9 335.9,46.9 336.7,46.9 337.5,47.0 338.4,47.0 339.2,47.1 340.1,47.2 340.9,47.3 341.7,47.5 342.5,47.8 343.4,48.5 344.2,49.4 345.1,50.7 345.9,52.5 346.7,54.8 347.6,58.0 348.4,61.9 349.2,66.7 350.0,72.5 350.9,80.0 351.7,88.9 352.6,99.2 353.4,111.2 354.2,129.4 355.1,136.4 355.9,122.3 356.7,118.7 357.6,121.4 358.4,140.2 359.2,126.7 360.0,118.3 360.9,119.8 361.7,138.6 362.5,125.2 363.3,117.7 364.2,122.0 365.0,156.8 365.8,120.9 366.6,118.4 367.4,131.0 368.3,127.5 369.1,118.4 369.9,124.5 370.7,136.5 371.5,119.4 372.4,122.9 373.2,143.8 374.0,120.3 374.8,123.5 375.6,139.0 376.4,120.6 377.2,126.8 378.1,131.3 378.9,121.1 379.7,137.7 380.5,125.0 381.3,124.1 382.1,142.5 383.0,122.8 383.8,137.5 384.6,126.2 385.4,128.0 386.2,133.3 387.0,125.6 387.9,145.8 388.7,125.5 389.5,171.0 390.3,126.2 391.1,158.1 391.9,127.0 L391.9,171.0 L37.5,171.0 Z" fill="url(#g325)"/>
  <defs><clipPath id="pc326"><rect x="34" y="16" width="358" height="155"/></clipPath></defs>
  <polyline points="37.5,44.0 70.1,44.0 89.2,44.0 102.8,44.0 113.3,44.0 121.9,44.1 129.1,44.1 135.4,44.1 141.0,44.1 145.9,44.1 150.4,44.1 154.5,44.2 158.3,44.2 161.8,44.2 165.0,44.3 168.1,44.3 170.9,44.3 173.6,44.4 176.2,44.4 178.6,44.4 180.9,44.5 183.1,44.5 185.2,44.6 187.2,44.6 189.1,44.6 190.9,44.7 192.7,44.7 194.4,44.8 196.1,44.8 197.7,44.9 199.2,45.0 200.7,45.0 202.2,45.1 203.6,45.1 204.9,45.2 206.3,45.2 207.6,45.3 208.8,45.4 210.0,45.4 211.2,45.5 212.4,45.6 213.5,45.6 214.6,45.7 215.7,45.7 216.8,45.8 217.8,45.9 218.8,45.9 219.8,46.0 220.8,46.1 221.7,46.1 222.7,46.2 223.6,46.3 224.5,46.3 225.4,46.4 226.2,46.4 227.1,46.5 227.9,46.6 228.7,46.6 229.5,46.7 231.1,46.8 232.6,46.9 234.1,47.0 235.5,47.1 236.9,47.2 238.2,47.3 239.6,47.4 240.8,47.5 242.1,47.5 243.3,47.6 244.5,47.6 245.6,47.7 246.7,47.7 247.8,47.7 248.9,47.7 249.9,47.7 251.0,47.7 252.0,47.7 252.9,47.7 253.9,47.7 254.8,47.7 255.8,47.7 256.7,47.6 257.6,47.6 258.4,47.5 259.3,47.5 260.1,47.4 261.0,47.4 261.8,47.3 263.0,47.3 264.1,47.2 265.3,47.1 266.4,47.0 267.5,46.9 268.5,46.9 269.6,46.8 270.6,46.7 271.6,46.7 272.5,46.6 273.5,46.6 274.4,46.6 275.3,46.6 276.2,46.6 277.1,46.6 278.0,46.6 278.8,46.6 279.6,46.6 280.5,46.7 281.3,46.7 282.3,46.8 283.4,46.8 284.4,46.9 285.3,47.0 286.3,47.1 287.3,47.1 288.2,47.2 289.1,47.2 290.0,47.3 290.9,47.3 291.7,47.3 292.6,47.3 293.4,47.3 294.2,47.3 295.0,47.3 296.0,47.2 297.0,47.2 297.9,47.1 298.8,47.0 299.7,47.0 300.6,46.9 301.5,46.8 302.4,46.8 303.2,46.8 304.0,46.8 304.9,46.8 305.8,46.8 306.7,46.8 307.7,46.9 308.6,46.9 309.5,47.0 310.3,47.0 311.2,47.1 312.0,47.2 312.8,47.2 313.7,47.2 314.6,47.2 315.5,47.2 316.4,47.1 317.3,47.1 318.1,47.0 319.0,46.9 319.8,46.9 320.6,46.9 321.4,46.8 322.3,46.8 323.2,46.9 324.1,46.9 324.9,47.0 325.7,47.0 326.6,47.1 327.4,47.1 328.3,47.1 329.1,47.1 330.0,47.1 330.8,47.1 331.7,47.0 332.5,47.0 333.3,46.9 334.2,46.9 335.0,46.9 335.9,46.9 336.7,46.9 337.5,47.0 338.4,47.0 339.2,47.1 340.1,47.2 340.9,47.3 341.7,47.5 342.5,47.8 343.4,48.5 344.2,49.4 345.1,50.7 345.9,52.5 346.7,54.8 347.6,58.0 348.4,61.9 349.2,66.7 350.0,72.5 350.9,80.0 351.7,88.9 352.6,99.2 353.4,111.2 354.2,129.4 355.1,136.4 355.9,122.3 356.7,118.7 357.6,121.4 358.4,140.2 359.2,126.7 360.0,118.3 360.9,119.8 361.7,138.6 362.5,125.2 363.3,117.7 364.2,122.0 365.0,156.8 365.8,120.9 366.6,118.4 367.4,131.0 368.3,127.5 369.1,118.4 369.9,124.5 370.7,136.5 371.5,119.4 372.4,122.9 373.2,143.8 374.0,120.3 374.8,123.5 375.6,139.0 376.4,120.6 377.2,126.8 378.1,131.3 378.9,121.1 379.7,137.7 380.5,125.0 381.3,124.1 382.1,142.5 383.0,122.8 383.8,137.5 384.6,126.2 385.4,128.0 386.2,133.3 387.0,125.6 387.9,145.8 388.7,125.5 389.5,201.6 390.3,126.2 391.1,158.1 391.9,127.0" fill="none" stroke="#4a90d9" stroke-width="1.5" stroke-linejoin="round" clip-path="url(#pc326)"/>
  <line x1="442" y1="16" x2="442" y2="171" stroke="#d1d5db"/>
  <line x1="442" y1="93.5" x2="800" y2="93.5" stroke="#d1d5db"/>
  <text x="621" y="197" text-anchor="middle" font-size="9" fill="#6b7280">Hz</text>
  <text x="420" y="93.5" text-anchor="middle" font-size="9" fill="#6b7280" transform="rotate(-90 420 93.5)">Phase (deg)</text>
  <line x1="474.6" y1="16" x2="474.6" y2="171" stroke="#e5e7eb" stroke-width="0.5"/>
  <line x1="493.7" y1="16" x2="493.7" y2="171" stroke="#e5e7eb" stroke-width="0.5"/>
  <line x1="507.3" y1="16" x2="507.3" y2="171" stroke="#e5e7eb" stroke-width="0.5"/>
  <line x1="517.8" y1="16" x2="517.8" y2="171" stroke="#e5e7eb" stroke-width="0.5"/>
  <line x1="526.4" y1="16" x2="526.4" y2="171" stroke="#e5e7eb" stroke-width="0.5"/>
  <line x1="533.7" y1="16" x2="533.7" y2="171" stroke="#e5e7eb" stroke-width="0.5"/>
  <line x1="539.9" y1="16" x2="539.9" y2="171" stroke="#e5e7eb" stroke-width="0.5"/>
  <line x1="545.5" y1="16" x2="545.5" y2="171" stroke="#e5e7eb" stroke-width="0.5"/>
  <line x1="583.1" y1="16" x2="583.1" y2="171" stroke="#e5e7eb" stroke-width="0.5"/>
  <line x1="602.2" y1="16" x2="602.2" y2="171" stroke="#e5e7eb" stroke-width="0.5"/>
  <line x1="615.7" y1="16" x2="615.7" y2="171" stroke="#e5e7eb" stroke-width="0.5"/>
  <line x1="626.3" y1="16" x2="626.3" y2="171" stroke="#e5e7eb" stroke-width="0.5"/>
  <line x1="634.8" y1="16" x2="634.8" y2="171" stroke="#e5e7eb" stroke-width="0.5"/>
  <line x1="642.1" y1="16" x2="642.1" y2="171" stroke="#e5e7eb" stroke-width="0.5"/>
  <line x1="648.4" y1="16" x2="648.4" y2="171" stroke="#e5e7eb" stroke-width="0.5"/>
  <line x1="653.9" y1="16" x2="653.9" y2="171" stroke="#e5e7eb" stroke-width="0.5"/>
  <line x1="691.5" y1="16" x2="691.5" y2="171" stroke="#e5e7eb" stroke-width="0.5"/>
  <line x1="710.6" y1="16" x2="710.6" y2="171" stroke="#e5e7eb" stroke-width="0.5"/>
  <line x1="724.2" y1="16" x2="724.2" y2="171" stroke="#e5e7eb" stroke-width="0.5"/>
  <line x1="734.7" y1="16" x2="734.7" y2="171" stroke="#e5e7eb" stroke-width="0.5"/>
  <line x1="743.3" y1="16" x2="743.3" y2="171" stroke="#e5e7eb" stroke-width="0.5"/>
  <line x1="750.6" y1="16" x2="750.6" y2="171" stroke="#e5e7eb" stroke-width="0.5"/>
  <line x1="756.8" y1="16" x2="756.8" y2="171" stroke="#e5e7eb" stroke-width="0.5"/>
  <line x1="762.4" y1="16" x2="762.4" y2="171" stroke="#e5e7eb" stroke-width="0.5"/>
  <line x1="800.0" y1="16" x2="800.0" y2="171" stroke="#e5e7eb" stroke-width="0.5"/>
  <line x1="550.5" y1="16" x2="550.5" y2="171" stroke="#e5e7eb" stroke-width="0.5"/>
  <text x="550.5" y="183" text-anchor="middle" font-size="8" fill="#6b7280">100</text>
  <line x1="658.9" y1="16" x2="658.9" y2="171" stroke="#e5e7eb" stroke-width="0.5"/>
  <text x="658.9" y="183" text-anchor="middle" font-size="8" fill="#6b7280">1k</text>
  <line x1="767.4" y1="16" x2="767.4" y2="171" stroke="#e5e7eb" stroke-width="0.5"/>
  <text x="767.4" y="183" text-anchor="middle" font-size="8" fill="#6b7280">10k</text>
  <line x1="442" y1="54.8" x2="800" y2="54.8" stroke="#e5e7eb" stroke-width="0.5"/>
  <line x1="442" y1="132.3" x2="800" y2="132.3" stroke="#e5e7eb" stroke-width="0.5"/>
  <line x1="442" y1="16.0" x2="800" y2="16.0" stroke="#e5e7eb" stroke-width="0.5"/>
  <text x="438" y="19.0" text-anchor="end" font-size="8" fill="#6b7280">180</text>
  <text x="438" y="96.5" text-anchor="end" font-size="8" fill="#6b7280">0</text>
  <line x1="442" y1="171.0" x2="800" y2="171.0" stroke="#e5e7eb" stroke-width="0.5"/>
  <text x="438" y="174.0" text-anchor="end" font-size="8" fill="#6b7280">-180</text>
  <defs><linearGradient id="g327" x1="0" y1="16" x2="0" y2="93.5" gradientUnits="userSpaceOnUse">
    <stop offset="0%" stop-color="#e74c3c" stop-opacity="0.15"/>
    <stop offset="100%" stop-color="#e74c3c" stop-opacity="0.02"/>
  </linearGradient></defs>
  <defs><linearGradient id="g328" x1="0" y1="171" x2="0" y2="93.5" gradientUnits="userSpaceOnUse">
    <stop offset="0%" stop-color="#e74c3c" stop-opacity="0.15"/>
    <stop offset="100%" stop-color="#e74c3c" stop-opacity="0.02"/>
  </linearGradient></defs>
  <defs><clipPath id="c329"><rect x="442" y="16" width="358" height="77.5"/></clipPath></defs>
  <defs><clipPath id="c330"><rect x="442" y="93.5" width="358" height="77.5"/></clipPath></defs>
  <path d="M445.5,94.7 445.5,94.7 478.1,95.8 497.2,97.0 510.8,98.2 521.3,99.4 529.9,100.5 537.1,101.7 543.4,102.9 549.0,104.1 553.9,105.2 558.4,106.4 562.5,107.6 566.3,108.8 569.8,109.9 573.0,111.1 576.1,112.3 578.9,113.4 581.6,114.6 584.2,115.8 586.6,117.0 588.9,118.1 591.1,119.3 593.2,120.5 595.2,121.7 597.1,122.8 598.9,124.0 600.7,125.2 602.4,126.3 604.1,127.5 605.7,128.7 607.2,129.9 608.7,131.0 610.2,132.2 611.6,133.4 612.9,134.6 614.3,135.7 615.6,136.9 616.8,138.1 618.0,139.3 619.2,140.4 620.4,141.6 621.5,142.8 622.6,143.9 623.7,145.1 624.8,146.3 625.8,147.5 626.8,148.6 627.8,149.8 628.8,151.0 629.7,152.2 630.7,153.3 631.6,154.5 632.5,155.7 633.4,156.8 634.2,158.0 635.1,159.2 635.9,160.4 636.7,161.5 637.5,162.7 639.1,165.1 640.6,167.4 642.1,169.8 643.5,17.1 644.9,19.4 646.2,21.8 647.6,24.1 648.8,26.5 650.1,28.8 651.3,31.2 652.5,33.5 653.6,35.9 654.7,38.2 655.8,40.6 656.9,42.9 657.9,45.3 659.0,47.6 660.0,49.9 660.9,52.3 661.9,54.6 662.8,57.0 663.8,59.3 664.7,61.7 665.6,64.0 666.4,66.4 667.3,68.7 668.1,71.1 669.0,73.4 669.8,75.8 671.0,79.3 672.1,82.8 673.3,86.3 674.4,89.8 675.5,93.3 676.5,96.9 677.6,100.4 678.6,103.9 679.6,107.4 680.5,110.9 681.5,114.5 682.4,118.0 683.3,121.5 684.2,125.0 685.1,128.5 686.0,132.1 686.8,135.6 687.6,139.1 688.5,142.6 689.3,146.1 690.3,150.8 691.4,155.5 692.4,160.2 693.3,164.9 694.3,169.6 695.3,19.3 696.2,24.0 697.1,28.7 698.0,33.4 698.9,38.1 699.7,42.8 700.6,47.4 701.4,52.1 702.2,56.8 703.0,61.5 704.0,67.4 705.0,73.3 705.9,79.1 706.8,85.0 707.7,90.9 708.6,96.7 709.5,102.6 710.4,108.4 711.2,114.3 712.0,120.2 712.9,126.0 713.8,133.1 714.7,140.1 715.7,147.2 716.6,154.2 717.5,161.2 718.3,168.3 719.2,20.3 720.0,27.4 720.8,34.4 721.7,41.4 722.6,49.6 723.5,57.9 724.4,66.1 725.3,74.3 726.1,82.5 727.0,90.7 727.8,98.9 728.6,107.1 729.4,115.3 730.3,124.7 731.2,134.1 732.1,143.5 732.9,152.9 733.7,162.3 734.6,16.6 735.4,26.0 736.3,36.6 737.1,47.1 738.0,57.7 738.8,68.3 739.7,78.8 740.5,89.4 741.3,99.9 742.2,111.7 743.0,123.4 743.9,135.1 744.7,146.9 745.5,158.6 746.4,16.5 747.2,29.4 748.1,42.3 748.9,55.2 749.7,68.1 750.5,81.0 751.4,95.1 752.2,109.2 753.1,123.2 753.9,137.3 754.7,151.4 755.6,166.6 756.4,26.9 757.2,42.1 758.0,57.4 758.9,73.8 759.7,90.2 760.6,106.7 761.4,123.1 762.2,140.7 763.1,80.8 763.9,98.4 764.7,116.0 765.6,134.7 766.4,153.5 767.2,94.8 768.0,113.6 768.9,133.5 769.7,153.4 770.5,95.9 771.3,117.0 772.2,138.1 773.0,81.7 773.8,102.8 774.6,125.1 775.4,147.4 776.3,92.2 777.1,115.7 777.9,139.1 778.7,85.1 779.5,109.7 780.4,134.4 781.2,81.5 782.0,107.3 782.8,133.1 783.6,82.6 784.4,109.6 785.2,136.6 786.1,87.2 786.9,115.4 787.7,144.7 788.5,96.5 789.3,125.9 790.1,78.9 791.0,109.4 791.8,141.0 792.6,95.2 793.4,128.0 794.2,83.4 795.0,117.4 795.9,73.9 796.7,109.1 797.5,66.8 798.3,103.2 799.1,139.6 799.9,99.6 L799.9,93.5 L445.5,93.5 Z" fill="url(#g327)" clip-path="url(#c329)"/>
  <path d="M445.5,94.7 445.5,94.7 478.1,95.8 497.2,97.0 510.8,98.2 521.3,99.4 529.9,100.5 537.1,101.7 543.4,102.9 549.0,104.1 553.9,105.2 558.4,106.4 562.5,107.6 566.3,108.8 569.8,109.9 573.0,111.1 576.1,112.3 578.9,113.4 581.6,114.6 584.2,115.8 586.6,117.0 588.9,118.1 591.1,119.3 593.2,120.5 595.2,121.7 597.1,122.8 598.9,124.0 600.7,125.2 602.4,126.3 604.1,127.5 605.7,128.7 607.2,129.9 608.7,131.0 610.2,132.2 611.6,133.4 612.9,134.6 614.3,135.7 615.6,136.9 616.8,138.1 618.0,139.3 619.2,140.4 620.4,141.6 621.5,142.8 622.6,143.9 623.7,145.1 624.8,146.3 625.8,147.5 626.8,148.6 627.8,149.8 628.8,151.0 629.7,152.2 630.7,153.3 631.6,154.5 632.5,155.7 633.4,156.8 634.2,158.0 635.1,159.2 635.9,160.4 636.7,161.5 637.5,162.7 639.1,165.1 640.6,167.4 642.1,169.8 643.5,17.1 644.9,19.4 646.2,21.8 647.6,24.1 648.8,26.5 650.1,28.8 651.3,31.2 652.5,33.5 653.6,35.9 654.7,38.2 655.8,40.6 656.9,42.9 657.9,45.3 659.0,47.6 660.0,49.9 660.9,52.3 661.9,54.6 662.8,57.0 663.8,59.3 664.7,61.7 665.6,64.0 666.4,66.4 667.3,68.7 668.1,71.1 669.0,73.4 669.8,75.8 671.0,79.3 672.1,82.8 673.3,86.3 674.4,89.8 675.5,93.3 676.5,96.9 677.6,100.4 678.6,103.9 679.6,107.4 680.5,110.9 681.5,114.5 682.4,118.0 683.3,121.5 684.2,125.0 685.1,128.5 686.0,132.1 686.8,135.6 687.6,139.1 688.5,142.6 689.3,146.1 690.3,150.8 691.4,155.5 692.4,160.2 693.3,164.9 694.3,169.6 695.3,19.3 696.2,24.0 697.1,28.7 698.0,33.4 698.9,38.1 699.7,42.8 700.6,47.4 701.4,52.1 702.2,56.8 703.0,61.5 704.0,67.4 705.0,73.3 705.9,79.1 706.8,85.0 707.7,90.9 708.6,96.7 709.5,102.6 710.4,108.4 711.2,114.3 712.0,120.2 712.9,126.0 713.8,133.1 714.7,140.1 715.7,147.2 716.6,154.2 717.5,161.2 718.3,168.3 719.2,20.3 720.0,27.4 720.8,34.4 721.7,41.4 722.6,49.6 723.5,57.9 724.4,66.1 725.3,74.3 726.1,82.5 727.0,90.7 727.8,98.9 728.6,107.1 729.4,115.3 730.3,124.7 731.2,134.1 732.1,143.5 732.9,152.9 733.7,162.3 734.6,16.6 735.4,26.0 736.3,36.6 737.1,47.1 738.0,57.7 738.8,68.3 739.7,78.8 740.5,89.4 741.3,99.9 742.2,111.7 743.0,123.4 743.9,135.1 744.7,146.9 745.5,158.6 746.4,16.5 747.2,29.4 748.1,42.3 748.9,55.2 749.7,68.1 750.5,81.0 751.4,95.1 752.2,109.2 753.1,123.2 753.9,137.3 754.7,151.4 755.6,166.6 756.4,26.9 757.2,42.1 758.0,57.4 758.9,73.8 759.7,90.2 760.6,106.7 761.4,123.1 762.2,140.7 763.1,80.8 763.9,98.4 764.7,116.0 765.6,134.7 766.4,153.5 767.2,94.8 768.0,113.6 768.9,133.5 769.7,153.4 770.5,95.9 771.3,117.0 772.2,138.1 773.0,81.7 773.8,102.8 774.6,125.1 775.4,147.4 776.3,92.2 777.1,115.7 777.9,139.1 778.7,85.1 779.5,109.7 780.4,134.4 781.2,81.5 782.0,107.3 782.8,133.1 783.6,82.6 784.4,109.6 785.2,136.6 786.1,87.2 786.9,115.4 787.7,144.7 788.5,96.5 789.3,125.9 790.1,78.9 791.0,109.4 791.8,141.0 792.6,95.2 793.4,128.0 794.2,83.4 795.0,117.4 795.9,73.9 796.7,109.1 797.5,66.8 798.3,103.2 799.1,139.6 799.9,99.6 L799.9,93.5 L445.5,93.5 Z" fill="url(#g328)" clip-path="url(#c330)"/>
  <defs><clipPath id="pc331"><rect x="442" y="16" width="358" height="155"/></clipPath></defs>
  <polyline points="445.5,94.7 478.1,95.8 497.2,97.0 510.8,98.2 521.3,99.4 529.9,100.5 537.1,101.7 543.4,102.9 549.0,104.1 553.9,105.2 558.4,106.4 562.5,107.6 566.3,108.8 569.8,109.9 573.0,111.1 576.1,112.3 578.9,113.4 581.6,114.6 584.2,115.8 586.6,117.0 588.9,118.1 591.1,119.3 593.2,120.5 595.2,121.7 597.1,122.8 598.9,124.0 600.7,125.2 602.4,126.3 604.1,127.5 605.7,128.7 607.2,129.9 608.7,131.0 610.2,132.2 611.6,133.4 612.9,134.6 614.3,135.7 615.6,136.9 616.8,138.1 618.0,139.3 619.2,140.4 620.4,141.6 621.5,142.8 622.6,143.9 623.7,145.1 624.8,146.3 625.8,147.5 626.8,148.6 627.8,149.8 628.8,151.0 629.7,152.2 630.7,153.3 631.6,154.5 632.5,155.7 633.4,156.8 634.2,158.0 635.1,159.2 635.9,160.4 636.7,161.5 637.5,162.7 639.1,165.1 640.6,167.4 642.1,169.8 643.5,17.1 644.9,19.4 646.2,21.8 647.6,24.1 648.8,26.5 650.1,28.8 651.3,31.2 652.5,33.5 653.6,35.9 654.7,38.2 655.8,40.6 656.9,42.9 657.9,45.3 659.0,47.6 660.0,49.9 660.9,52.3 661.9,54.6 662.8,57.0 663.8,59.3 664.7,61.7 665.6,64.0 666.4,66.4 667.3,68.7 668.1,71.1 669.0,73.4 669.8,75.8 671.0,79.3 672.1,82.8 673.3,86.3 674.4,89.8 675.5,93.3 676.5,96.9 677.6,100.4 678.6,103.9 679.6,107.4 680.5,110.9 681.5,114.5 682.4,118.0 683.3,121.5 684.2,125.0 685.1,128.5 686.0,132.1 686.8,135.6 687.6,139.1 688.5,142.6 689.3,146.1 690.3,150.8 691.4,155.5 692.4,160.2 693.3,164.9 694.3,169.6 695.3,19.3 696.2,24.0 697.1,28.7 698.0,33.4 698.9,38.1 699.7,42.8 700.6,47.4 701.4,52.1 702.2,56.8 703.0,61.5 704.0,67.4 705.0,73.3 705.9,79.1 706.8,85.0 707.7,90.9 708.6,96.7 709.5,102.6 710.4,108.4 711.2,114.3 712.0,120.2 712.9,126.0 713.8,133.1 714.7,140.1 715.7,147.2 716.6,154.2 717.5,161.2 718.3,168.3 719.2,20.3 720.0,27.4 720.8,34.4 721.7,41.4 722.6,49.6 723.5,57.9 724.4,66.1 725.3,74.3 726.1,82.5 727.0,90.7 727.8,98.9 728.6,107.1 729.4,115.3 730.3,124.7 731.2,134.1 732.1,143.5 732.9,152.9 733.7,162.3 734.6,16.6 735.4,26.0 736.3,36.6 737.1,47.1 738.0,57.7 738.8,68.3 739.7,78.8 740.5,89.4 741.3,99.9 742.2,111.7 743.0,123.4 743.9,135.1 744.7,146.9 745.5,158.6 746.4,16.5 747.2,29.4 748.1,42.3 748.9,55.2 749.7,68.1 750.5,81.0 751.4,95.1 752.2,109.2 753.1,123.2 753.9,137.3 754.7,151.4 755.6,166.6 756.4,26.9 757.2,42.1 758.0,57.4 758.9,73.8 759.7,90.2 760.6,106.7 761.4,123.1 762.2,140.7 763.1,80.8 763.9,98.4 764.7,116.0 765.6,134.7 766.4,153.5 767.2,94.8 768.0,113.6 768.9,133.5 769.7,153.4 770.5,95.9 771.3,117.0 772.2,138.1 773.0,81.7 773.8,102.8 774.6,125.1 775.4,147.4 776.3,92.2 777.1,115.7 777.9,139.1 778.7,85.1 779.5,109.7 780.4,134.4 781.2,81.5 782.0,107.3 782.8,133.1 783.6,82.6 784.4,109.6 785.2,136.6 786.1,87.2 786.9,115.4 787.7,144.7 788.5,96.5 789.3,125.9 790.1,78.9 791.0,109.4 791.8,141.0 792.6,95.2 793.4,128.0 794.2,83.4 795.0,117.4 795.9,73.9 796.7,109.1 797.5,66.8 798.3,103.2 799.1,139.6 799.9,99.6" fill="none" stroke="#e74c3c" stroke-width="1.5" stroke-linejoin="round" clip-path="url(#pc331)"/>
  <line x1="34" y1="221" x2="34" y2="376" stroke="#d1d5db"/>
  <line x1="34" y1="298.5" x2="392" y2="298.5" stroke="#d1d5db"/>
  <text x="213" y="402" text-anchor="middle" font-size="9" fill="#6b7280">Hz</text>
  <text x="12" y="298.5" text-anchor="middle" font-size="9" fill="#6b7280" transform="rotate(-90 12 298.5)">Group delay</text>
  <line x1="66.6" y1="221" x2="66.6" y2="376" stroke="#e5e7eb" stroke-width="0.5"/>
  <line x1="85.7" y1="221" x2="85.7" y2="376" stroke="#e5e7eb" stroke-width="0.5"/>
  <line x1="99.3" y1="221" x2="99.3" y2="376" stroke="#e5e7eb" stroke-width="0.5"/>
  <line x1="109.8" y1="221" x2="109.8" y2="376" stroke="#e5e7eb" stroke-width="0.5"/>
  <line x1="118.4" y1="221" x2="118.4" y2="376" stroke="#e5e7eb" stroke-width="0.5"/>
  <line x1="125.7" y1="221" x2="125.7" y2="376" stroke="#e5e7eb" stroke-width="0.5"/>
  <line x1="131.9" y1="221" x2="131.9" y2="376" stroke="#e5e7eb" stroke-width="0.5"/>
  <line x1="137.5" y1="221" x2="137.5" y2="376" stroke="#e5e7eb" stroke-width="0.5"/>
  <line x1="175.1" y1="221" x2="175.1" y2="376" stroke="#e5e7eb" stroke-width="0.5"/>
  <line x1="194.2" y1="221" x2="194.2" y2="376" stroke="#e5e7eb" stroke-width="0.5"/>
  <line x1="207.7" y1="221" x2="207.7" y2="376" stroke="#e5e7eb" stroke-width="0.5"/>
  <line x1="218.3" y1="221" x2="218.3" y2="376" stroke="#e5e7eb" stroke-width="0.5"/>
  <line x1="226.8" y1="221" x2="226.8" y2="376" stroke="#e5e7eb" stroke-width="0.5"/>
  <line x1="234.1" y1="221" x2="234.1" y2="376" stroke="#e5e7eb" stroke-width="0.5"/>
  <line x1="240.4" y1="221" x2="240.4" y2="376" stroke="#e5e7eb" stroke-width="0.5"/>
  <line x1="245.9" y1="221" x2="245.9" y2="376" stroke="#e5e7eb" stroke-width="0.5"/>
  <line x1="283.5" y1="221" x2="283.5" y2="376" stroke="#e5e7eb" stroke-width="0.5"/>
  <line x1="302.6" y1="221" x2="302.6" y2="376" stroke="#e5e7eb" stroke-width="0.5"/>
  <line x1="316.2" y1="221" x2="316.2" y2="376" stroke="#e5e7eb" stroke-width="0.5"/>
  <line x1="326.7" y1="221" x2="326.7" y2="376" stroke="#e5e7eb" stroke-width="0.5"/>
  <line x1="335.3" y1="221" x2="335.3" y2="376" stroke="#e5e7eb" stroke-width="0.5"/>
  <line x1="342.6" y1="221" x2="342.6" y2="376" stroke="#e5e7eb" stroke-width="0.5"/>
  <line x1="348.8" y1="221" x2="348.8" y2="376" stroke="#e5e7eb" stroke-width="0.5"/>
  <line x1="354.4" y1="221" x2="354.4" y2="376" stroke="#e5e7eb" stroke-width="0.5"/>
  <line x1="392.0" y1="221" x2="392.0" y2="376" stroke="#e5e7eb" stroke-width="0.5"/>
  <line x1="142.5" y1="221" x2="142.5" y2="376" stroke="#e5e7eb" stroke-width="0.5"/>
  <text x="142.5" y="388" text-anchor="middle" font-size="8" fill="#6b7280">100</text>
  <line x1="250.9" y1="221" x2="250.9" y2="376" stroke="#e5e7eb" stroke-width="0.5"/>
  <text x="250.9" y="388" text-anchor="middle" font-size="8" fill="#6b7280">1k</text>
  <line x1="359.4" y1="221" x2="359.4" y2="376" stroke="#e5e7eb" stroke-width="0.5"/>
  <text x="359.4" y="388" text-anchor="middle" font-size="8" fill="#6b7280">10k</text>
  <line x1="34" y1="340.5" x2="392" y2="340.5" stroke="#e5e7eb" stroke-width="0.5"/>
  <text x="30" y="343.5" text-anchor="end" font-size="8" fill="#6b7280">-700</text>
  <text x="30" y="301.5" text-anchor="end" font-size="8" fill="#6b7280">0</text>
  <line x1="34" y1="256.5" x2="392" y2="256.5" stroke="#e5e7eb" stroke-width="0.5"/>
  <text x="30" y="259.5" text-anchor="end" font-size="8" fill="#6b7280">700</text>
  <defs><linearGradient id="g332" x1="0" y1="221" x2="0" y2="298.5" gradientUnits="userSpaceOnUse">
    <stop offset="0%" stop-color="#2ecc71" stop-opacity="0.15"/>
    <stop offset="100%" stop-color="#2ecc71" stop-opacity="0.02"/>
  </linearGradient></defs>
  <defs><linearGradient id="g333" x1="0" y1="376" x2="0" y2="298.5" gradientUnits="userSpaceOnUse">
    <stop offset="0%" stop-color="#2ecc71" stop-opacity="0.15"/>
    <stop offset="100%" stop-color="#2ecc71" stop-opacity="0.02"/>
  </linearGradient></defs>
  <defs><clipPath id="c334"><rect x="34" y="221" width="358" height="77.5"/></clipPath></defs>
  <defs><clipPath id="c335"><rect x="34" y="298.5" width="358" height="77.5"/></clipPath></defs>
  <path d="M37.5,296.6 37.5,296.6 70.1,296.6 89.2,296.6 102.8,296.6 113.3,296.6 121.9,296.6 129.1,296.6 135.4,296.6 141.0,296.6 145.9,296.6 150.4,296.6 154.5,296.6 158.3,296.6 161.8,296.6 165.0,296.6 168.1,296.6 170.9,296.6 173.6,296.6 176.2,296.6 178.6,296.6 180.9,296.6 183.1,296.6 185.2,296.6 187.2,296.6 189.1,296.6 190.9,296.6 192.7,296.6 194.4,296.6 196.1,296.6 197.7,296.6 199.2,296.6 200.7,296.6 202.2,296.6 203.6,296.6 204.9,296.6 206.3,296.6 207.6,296.6 208.8,296.6 210.0,296.6 211.2,296.6 212.4,296.6 213.5,296.6 214.6,296.6 215.7,296.6 216.8,296.6 217.8,296.6 218.8,296.6 219.8,296.6 220.8,296.6 221.7,296.6 222.7,296.6 223.6,296.6 224.5,296.6 225.4,296.6 226.2,296.6 227.1,296.6 227.9,296.6 228.7,296.6 229.5,296.6 231.1,296.6 232.6,296.6 234.1,296.6 235.5,296.6 236.9,296.6 238.2,296.6 239.6,296.6 240.8,296.6 242.1,296.6 243.3,296.6 244.5,296.6 245.6,296.6 246.7,296.6 247.8,296.6 248.9,296.6 249.9,296.6 251.0,296.6 252.0,296.6 252.9,296.6 253.9,296.6 254.8,296.6 255.8,296.6 256.7,296.6 257.6,296.6 258.4,296.6 259.3,296.6 260.1,296.6 261.0,296.6 261.8,296.6 263.0,296.6 264.1,296.6 265.3,296.6 266.4,296.6 267.5,296.6 268.5,296.6 269.6,296.6 270.6,296.6 271.6,296.6 272.5,296.6 273.5,296.6 274.4,296.6 275.3,296.6 276.2,296.6 277.1,296.6 278.0,296.6 278.8,296.6 279.6,296.6 280.5,296.6 281.3,296.6 282.3,296.6 283.4,296.6 284.4,296.6 285.3,296.6 286.3,296.6 287.3,296.6 288.2,296.6 289.1,296.6 290.0,296.6 290.9,296.6 291.7,296.6 292.6,296.6 293.4,296.6 294.2,296.6 295.0,296.6 296.0,296.6 297.0,296.6 297.9,296.6 298.8,296.6 299.7,296.6 300.6,296.6 301.5,296.6 302.4,296.6 303.2,296.6 304.0,296.6 304.9,296.6 305.8,296.6 306.7,296.6 307.7,296.6 308.6,296.6 309.5,296.6 310.3,296.6 311.2,296.6 312.0,296.6 312.8,296.6 313.7,296.6 314.6,296.6 315.5,296.6 316.4,296.6 317.3,296.6 318.1,296.6 319.0,296.6 319.8,296.6 320.6,296.6 321.4,296.6 322.3,296.6 323.2,296.6 324.1,296.6 324.9,296.6 325.7,296.6 326.6,296.6 327.4,296.6 328.3,296.6 329.1,296.6 330.0,296.6 330.8,296.6 331.7,296.6 332.5,296.6 333.3,296.6 334.2,296.6 335.0,296.6 335.9,296.6 336.7,296.6 337.5,296.6 338.4,296.6 339.2,296.6 340.1,296.6 340.9,296.6 341.7,296.6 342.5,296.6 343.4,296.6 344.2,296.6 345.1,296.6 345.9,296.6 346.7,296.6 347.6,296.6 348.4,296.6 349.2,296.6 350.0,296.6 350.9,296.6 351.7,296.6 352.6,296.6 353.4,296.6 354.2,296.6 355.1,296.6 355.9,296.6 356.7,296.6 357.6,296.6 358.4,296.6 359.2,296.6 360.0,296.6 360.9,296.6 361.7,296.6 362.5,296.6 363.3,296.6 364.2,296.6 365.0,296.6 365.8,296.6 366.6,296.6 367.4,296.6 368.3,296.6 369.1,296.6 369.9,296.6 370.7,296.6 371.5,296.6 372.4,296.6 373.2,296.6 374.0,296.6 374.8,296.6 375.6,296.6 376.4,296.6 377.2,296.6 378.1,296.6 378.9,296.6 379.7,296.6 380.5,296.6 381.3,296.6 382.1,296.6 383.0,296.6 383.8,296.6 384.6,296.6 385.4,296.6 386.2,296.6 387.0,296.6 387.9,296.6 388.7,296.6 389.5,358.1 390.3,296.6 391.1,296.6 391.9,296.6 L391.9,298.5 L37.5,298.5 Z" fill="url(#g332)" clip-path="url(#c334)"/>
  <path d="M37.5,296.6 37.5,296.6 70.1,296.6 89.2,296.6 102.8,296.6 113.3,296.6 121.9,296.6 129.1,296.6 135.4,296.6 141.0,296.6 145.9,296.6 150.4,296.6 154.5,296.6 158.3,296.6 161.8,296.6 165.0,296.6 168.1,296.6 170.9,296.6 173.6,296.6 176.2,296.6 178.6,296.6 180.9,296.6 183.1,296.6 185.2,296.6 187.2,296.6 189.1,296.6 190.9,296.6 192.7,296.6 194.4,296.6 196.1,296.6 197.7,296.6 199.2,296.6 200.7,296.6 202.2,296.6 203.6,296.6 204.9,296.6 206.3,296.6 207.6,296.6 208.8,296.6 210.0,296.6 211.2,296.6 212.4,296.6 213.5,296.6 214.6,296.6 215.7,296.6 216.8,296.6 217.8,296.6 218.8,296.6 219.8,296.6 220.8,296.6 221.7,296.6 222.7,296.6 223.6,296.6 224.5,296.6 225.4,296.6 226.2,296.6 227.1,296.6 227.9,296.6 228.7,296.6 229.5,296.6 231.1,296.6 232.6,296.6 234.1,296.6 235.5,296.6 236.9,296.6 238.2,296.6 239.6,296.6 240.8,296.6 242.1,296.6 243.3,296.6 244.5,296.6 245.6,296.6 246.7,296.6 247.8,296.6 248.9,296.6 249.9,296.6 251.0,296.6 252.0,296.6 252.9,296.6 253.9,296.6 254.8,296.6 255.8,296.6 256.7,296.6 257.6,296.6 258.4,296.6 259.3,296.6 260.1,296.6 261.0,296.6 261.8,296.6 263.0,296.6 264.1,296.6 265.3,296.6 266.4,296.6 267.5,296.6 268.5,296.6 269.6,296.6 270.6,296.6 271.6,296.6 272.5,296.6 273.5,296.6 274.4,296.6 275.3,296.6 276.2,296.6 277.1,296.6 278.0,296.6 278.8,296.6 279.6,296.6 280.5,296.6 281.3,296.6 282.3,296.6 283.4,296.6 284.4,296.6 285.3,296.6 286.3,296.6 287.3,296.6 288.2,296.6 289.1,296.6 290.0,296.6 290.9,296.6 291.7,296.6 292.6,296.6 293.4,296.6 294.2,296.6 295.0,296.6 296.0,296.6 297.0,296.6 297.9,296.6 298.8,296.6 299.7,296.6 300.6,296.6 301.5,296.6 302.4,296.6 303.2,296.6 304.0,296.6 304.9,296.6 305.8,296.6 306.7,296.6 307.7,296.6 308.6,296.6 309.5,296.6 310.3,296.6 311.2,296.6 312.0,296.6 312.8,296.6 313.7,296.6 314.6,296.6 315.5,296.6 316.4,296.6 317.3,296.6 318.1,296.6 319.0,296.6 319.8,296.6 320.6,296.6 321.4,296.6 322.3,296.6 323.2,296.6 324.1,296.6 324.9,296.6 325.7,296.6 326.6,296.6 327.4,296.6 328.3,296.6 329.1,296.6 330.0,296.6 330.8,296.6 331.7,296.6 332.5,296.6 333.3,296.6 334.2,296.6 335.0,296.6 335.9,296.6 336.7,296.6 337.5,296.6 338.4,296.6 339.2,296.6 340.1,296.6 340.9,296.6 341.7,296.6 342.5,296.6 343.4,296.6 344.2,296.6 345.1,296.6 345.9,296.6 346.7,296.6 347.6,296.6 348.4,296.6 349.2,296.6 350.0,296.6 350.9,296.6 351.7,296.6 352.6,296.6 353.4,296.6 354.2,296.6 355.1,296.6 355.9,296.6 356.7,296.6 357.6,296.6 358.4,296.6 359.2,296.6 360.0,296.6 360.9,296.6 361.7,296.6 362.5,296.6 363.3,296.6 364.2,296.6 365.0,296.6 365.8,296.6 366.6,296.6 367.4,296.6 368.3,296.6 369.1,296.6 369.9,296.6 370.7,296.6 371.5,296.6 372.4,296.6 373.2,296.6 374.0,296.6 374.8,296.6 375.6,296.6 376.4,296.6 377.2,296.6 378.1,296.6 378.9,296.6 379.7,296.6 380.5,296.6 381.3,296.6 382.1,296.6 383.0,296.6 383.8,296.6 384.6,296.6 385.4,296.6 386.2,296.6 387.0,296.6 387.9,296.6 388.7,296.6 389.5,358.1 390.3,296.6 391.1,296.6 391.9,296.6 L391.9,298.5 L37.5,298.5 Z" fill="url(#g333)" clip-path="url(#c335)"/>
  <defs><clipPath id="pc336"><rect x="34" y="221" width="358" height="155"/></clipPath></defs>
  <polyline points="37.5,296.6 70.1,296.6 89.2,296.6 102.8,296.6 113.3,296.6 121.9,296.6 129.1,296.6 135.4,296.6 141.0,296.6 145.9,296.6 150.4,296.6 154.5,296.6 158.3,296.6 161.8,296.6 165.0,296.6 168.1,296.6 170.9,296.6 173.6,296.6 176.2,296.6 178.6,296.6 180.9,296.6 183.1,296.6 185.2,296.6 187.2,296.6 189.1,296.6 190.9,296.6 192.7,296.6 194.4,296.6 196.1,296.6 197.7,296.6 199.2,296.6 200.7,296.6 202.2,296.6 203.6,296.6 204.9,296.6 206.3,296.6 207.6,296.6 208.8,296.6 210.0,296.6 211.2,296.6 212.4,296.6 213.5,296.6 214.6,296.6 215.7,296.6 216.8,296.6 217.8,296.6 218.8,296.6 219.8,296.6 220.8,296.6 221.7,296.6 222.7,296.6 223.6,296.6 224.5,296.6 225.4,296.6 226.2,296.6 227.1,296.6 227.9,296.6 228.7,296.6 229.5,296.6 231.1,296.6 232.6,296.6 234.1,296.6 235.5,296.6 236.9,296.6 238.2,296.6 239.6,296.6 240.8,296.6 242.1,296.6 243.3,296.6 244.5,296.6 245.6,296.6 246.7,296.6 247.8,296.6 248.9,296.6 249.9,296.6 251.0,296.6 252.0,296.6 252.9,296.6 253.9,296.6 254.8,296.6 255.8,296.6 256.7,296.6 257.6,296.6 258.4,296.6 259.3,296.6 260.1,296.6 261.0,296.6 261.8,296.6 263.0,296.6 264.1,296.6 265.3,296.6 266.4,296.6 267.5,296.6 268.5,296.6 269.6,296.6 270.6,296.6 271.6,296.6 272.5,296.6 273.5,296.6 274.4,296.6 275.3,296.6 276.2,296.6 277.1,296.6 278.0,296.6 278.8,296.6 279.6,296.6 280.5,296.6 281.3,296.6 282.3,296.6 283.4,296.6 284.4,296.6 285.3,296.6 286.3,296.6 287.3,296.6 288.2,296.6 289.1,296.6 290.0,296.6 290.9,296.6 291.7,296.6 292.6,296.6 293.4,296.6 294.2,296.6 295.0,296.6 296.0,296.6 297.0,296.6 297.9,296.6 298.8,296.6 299.7,296.6 300.6,296.6 301.5,296.6 302.4,296.6 303.2,296.6 304.0,296.6 304.9,296.6 305.8,296.6 306.7,296.6 307.7,296.6 308.6,296.6 309.5,296.6 310.3,296.6 311.2,296.6 312.0,296.6 312.8,296.6 313.7,296.6 314.6,296.6 315.5,296.6 316.4,296.6 317.3,296.6 318.1,296.6 319.0,296.6 319.8,296.6 320.6,296.6 321.4,296.6 322.3,296.6 323.2,296.6 324.1,296.6 324.9,296.6 325.7,296.6 326.6,296.6 327.4,296.6 328.3,296.6 329.1,296.6 330.0,296.6 330.8,296.6 331.7,296.6 332.5,296.6 333.3,296.6 334.2,296.6 335.0,296.6 335.9,296.6 336.7,296.6 337.5,296.6 338.4,296.6 339.2,296.6 340.1,296.6 340.9,296.6 341.7,296.6 342.5,296.6 343.4,296.6 344.2,296.6 345.1,296.6 345.9,296.6 346.7,296.6 347.6,296.6 348.4,296.6 349.2,296.6 350.0,296.6 350.9,296.6 351.7,296.6 352.6,296.6 353.4,296.6 354.2,296.6 355.1,296.6 355.9,296.6 356.7,296.6 357.6,296.6 358.4,296.6 359.2,296.6 360.0,296.6 360.9,296.6 361.7,296.6 362.5,296.6 363.3,296.6 364.2,296.6 365.0,296.6 365.8,296.6 366.6,296.6 367.4,296.6 368.3,296.6 369.1,296.6 369.9,296.6 370.7,296.6 371.5,296.6 372.4,296.6 373.2,296.6 374.0,296.6 374.8,296.6 375.6,296.6 376.4,296.6 377.2,296.6 378.1,296.6 378.9,296.6 379.7,296.6 380.5,296.6 381.3,296.6 382.1,296.6 383.0,296.6 383.8,296.6 384.6,296.6 385.4,296.6 386.2,296.6 387.0,296.6 387.9,296.6 388.7,296.6 389.5,358.1 390.3,296.6 391.1,296.6 391.9,296.6" fill="none" stroke="#2ecc71" stroke-width="1.5" stroke-linejoin="round" clip-path="url(#pc336)"/>
  <line x1="442" y1="221" x2="442" y2="376" stroke="#d1d5db"/>
  <line x1="442" y1="298.5" x2="800" y2="298.5" stroke="#d1d5db"/>
  <text x="621" y="402" text-anchor="middle" font-size="9" fill="#6b7280">Samples</text>
  <text x="420" y="298.5" text-anchor="middle" font-size="9" fill="#6b7280" transform="rotate(-90 420 298.5)">Impulse response</text>
  <line x1="442.0" y1="221" x2="442.0" y2="376" stroke="#e5e7eb" stroke-width="0.5"/>
  <text x="442.0" y="388" text-anchor="middle" font-size="8" fill="#6b7280">0</text>
  <line x1="612.5" y1="221" x2="612.5" y2="376" stroke="#e5e7eb" stroke-width="0.5"/>
  <text x="612.5" y="388" text-anchor="middle" font-size="8" fill="#6b7280">30</text>
  <line x1="783.0" y1="221" x2="783.0" y2="376" stroke="#e5e7eb" stroke-width="0.5"/>
  <text x="783.0" y="388" text-anchor="middle" font-size="8" fill="#6b7280">60</text>
  <line x1="442" y1="364.2" x2="800" y2="364.2" stroke="#e5e7eb" stroke-width="0.5"/>
  <text x="438" y="367.2" text-anchor="end" font-size="8" fill="#6b7280">-0.3</text>
  <text x="438" y="301.5" text-anchor="end" font-size="8" fill="#6b7280">0</text>
  <line x1="442" y1="232.8" x2="800" y2="232.8" stroke="#e5e7eb" stroke-width="0.5"/>
  <text x="438" y="235.8" text-anchor="end" font-size="8" fill="#6b7280">0.3</text>
  <defs><linearGradient id="g337" x1="0" y1="221" x2="0" y2="298.5" gradientUnits="userSpaceOnUse">
    <stop offset="0%" stop-color="#f39c12" stop-opacity="0.15"/>
    <stop offset="100%" stop-color="#f39c12" stop-opacity="0.02"/>
  </linearGradient></defs>
  <defs><linearGradient id="g338" x1="0" y1="376" x2="0" y2="298.5" gradientUnits="userSpaceOnUse">
    <stop offset="0%" stop-color="#f39c12" stop-opacity="0.15"/>
    <stop offset="100%" stop-color="#f39c12" stop-opacity="0.02"/>
  </linearGradient></defs>
  <defs><clipPath id="c339"><rect x="442" y="221" width="358" height="77.5"/></clipPath></defs>
  <defs><clipPath id="c340"><rect x="442" y="298.5" width="358" height="77.5"/></clipPath></defs>
  <path d="M442.0,297.6 442.0,297.6 447.7,297.4 453.4,297.5 459.0,297.8 464.7,298.0 470.4,297.8 476.1,297.2 481.8,297.0 487.5,297.5 493.1,298.5 498.8,298.7 504.5,297.6 510.2,296.2 515.9,296.1 521.6,298.0 527.2,300.0 532.9,299.6 538.6,296.6 544.3,294.0 550.0,295.1 555.7,299.9 561.3,303.3 567.0,300.6 572.7,293.2 578.4,288.8 584.1,294.3 589.7,307.0 595.4,313.7 601.1,301.2 606.8,269.7 612.5,235.7 618.2,221.0 623.8,235.7 629.5,269.7 635.2,301.2 640.9,313.7 646.6,307.0 652.3,294.3 657.9,288.8 663.6,293.2 669.3,300.6 675.0,303.3 680.7,299.9 686.3,295.1 692.0,294.0 697.7,296.6 703.4,299.6 709.1,300.0 714.8,298.0 720.4,296.1 726.1,296.2 731.8,297.6 737.5,298.7 743.2,298.5 748.9,297.5 754.5,297.0 760.2,297.2 765.9,297.8 771.6,298.0 777.3,297.8 783.0,297.5 788.6,297.4 794.3,297.6 L794.3,298.5 L442.0,298.5 Z" fill="url(#g337)" clip-path="url(#c339)"/>
  <path d="M442.0,297.6 442.0,297.6 447.7,297.4 453.4,297.5 459.0,297.8 464.7,298.0 470.4,297.8 476.1,297.2 481.8,297.0 487.5,297.5 493.1,298.5 498.8,298.7 504.5,297.6 510.2,296.2 515.9,296.1 521.6,298.0 527.2,300.0 532.9,299.6 538.6,296.6 544.3,294.0 550.0,295.1 555.7,299.9 561.3,303.3 567.0,300.6 572.7,293.2 578.4,288.8 584.1,294.3 589.7,307.0 595.4,313.7 601.1,301.2 606.8,269.7 612.5,235.7 618.2,221.0 623.8,235.7 629.5,269.7 635.2,301.2 640.9,313.7 646.6,307.0 652.3,294.3 657.9,288.8 663.6,293.2 669.3,300.6 675.0,303.3 680.7,299.9 686.3,295.1 692.0,294.0 697.7,296.6 703.4,299.6 709.1,300.0 714.8,298.0 720.4,296.1 726.1,296.2 731.8,297.6 737.5,298.7 743.2,298.5 748.9,297.5 754.5,297.0 760.2,297.2 765.9,297.8 771.6,298.0 777.3,297.8 783.0,297.5 788.6,297.4 794.3,297.6 L794.3,298.5 L442.0,298.5 Z" fill="url(#g338)" clip-path="url(#c340)"/>
  <defs><clipPath id="pc341"><rect x="442" y="221" width="358" height="155"/></clipPath></defs>
  <polyline points="442.0,297.6 447.7,297.4 453.4,297.5 459.0,297.8 464.7,298.0 470.4,297.8 476.1,297.2 481.8,297.0 487.5,297.5 493.1,298.5 498.8,298.7 504.5,297.6 510.2,296.2 515.9,296.1 521.6,298.0 527.2,300.0 532.9,299.6 538.6,296.6 544.3,294.0 550.0,295.1 555.7,299.9 561.3,303.3 567.0,300.6 572.7,293.2 578.4,288.8 584.1,294.3 589.7,307.0 595.4,313.7 601.1,301.2 606.8,269.7 612.5,235.7 618.2,221.0 623.8,235.7 629.5,269.7 635.2,301.2 640.9,313.7 646.6,307.0 652.3,294.3 657.9,288.8 663.6,293.2 669.3,300.6 675.0,303.3 680.7,299.9 686.3,295.1 692.0,294.0 697.7,296.6 703.4,299.6 709.1,300.0 714.8,298.0 720.4,296.1 726.1,296.2 731.8,297.6 737.5,298.7 743.2,298.5 748.9,297.5 754.5,297.0 760.2,297.2 765.9,297.8 771.6,298.0 777.3,297.8 783.0,297.5 788.6,297.4 794.3,297.6" fill="none" stroke="#f39c12" stroke-width="1.3" stroke-linejoin="round" clip-path="url(#pc341)"/>
</svg>
