<svg xmlns="http://www.w3.org/2000/svg" viewBox="0 0 820 392" style="font-family:system-ui,-apple-system,sans-serif">
  <text x="800" y="11" text-anchor="end" font-size="11" font-weight="600" fill="#6b7280">RLS convergence, λ=0.99</text>
  <line x1="34" y1="16" x2="34" y2="171" stroke="#d1d5db"/>
  <line x1="34" y1="47.0" x2="392" y2="47.0" stroke="#d1d5db"/>
  <text x="213" y="197" text-anchor="middle" font-size="9" fill="#6b7280">Hz</text>
  <text x="12" y="93.5" text-anchor="middle" font-size="9" fill="#6b7280" transform="rotate(-90 12 93.5)">dB</text>
  <line x1="66.6" y1="16" x2="66.6" y2="171" stroke="#e5e7eb" stroke-width="0.5"/>
  <line x1="85.7" y1="16" x2="85.7" y2="171" stroke="#e5e7eb" stroke-width="0.5"/>
  <line x1="99.3" y1="16" x2="99.3" y2="171" stroke="#e5e7eb" stroke-width="0.5"/>
  <line x1="109.8" y1="16" x2="109.8" y2="171" stroke="#e5e7eb" stroke-width="0.5"/>
  <line x1="118.4" y1="16" x2="118.4" y2="171" stroke="#e5e7eb" stroke-width="0.5"/>
  <line x1="125.7" y1="16" x2="125.7" y2="171" stroke="#e5e7eb" stroke-width="0.5"/>
  <line x1="131.9" y1="16" x2="131.9" y2="171" stroke="#e5e7eb" stroke-width="0.5"/>
  <line x1="137.5" y1="16" x2="137.5" y2="171" stroke="#e5e7eb" stroke-width="0.5"/>
  <line x1="175.1" y1="16" x2="175.1" y2="171" stroke="#e5e7eb" stroke-width="0.5"/>
  <line x1="194.2" y1="16" x2="194.2" y2="171" stroke="#e5e7eb" stroke-width="0.5"/>
  <line x1="207.7" y1="16" x2="207.7" y2="171" stroke="#e5e7eb" stroke-width="0.5"/>
  <line x1="218.3" y1="16" x2="218.3" y2="171" stroke="#e5e7eb" stroke-width="0.5"/>
  <line x1="226.8" y1="16" x2="226.8" y2="171" stroke="#e5e7eb" stroke-width="0.5"/>
  <line x1="234.1" y1="16" x2="234.1" y2="171" stroke="#e5e7eb" stroke-width="0.5"/>
  <line x1="240.4" y1="16" x2="240.4" y2="171" stroke="#e5e7eb" stroke-width="0.5"/>
  <line x1="245.9" y1="16" x2="245.9" y2="171" stroke="#e5e7eb" stroke-width="0.5"/>
  <line x1="283.5" y1="16" x2="283.5" y2="171" stroke="#e5e7eb" stroke-width="0.5"/>
  <line x1="302.6" y1="16" x2="302.6" y2="171" stroke="#e5e7eb" stroke-width="0.5"/>
  <line x1="316.2" y1="16" x2="316.2" y2="171" stroke="#e5e7eb" stroke-width="0.5"/>
  <line x1="326.7" y1="16" x2="326.7" y2="171" stroke="#e5e7eb" stroke-width="0.5"/>
  <line x1="335.3" y1="16" x2="335.3" y2="171" stroke="#e5e7eb" stroke-width="0.5"/>
  <line x1="342.6" y1="16" x2="342.6" y2="171" stroke="#e5e7eb" stroke-width="0.5"/>
  <line x1="348.8" y1="16" x2="348.8" y2="171" stroke="#e5e7eb" stroke-width="0.5"/>
  <line x1="354.4" y1="16" x2="354.4" y2="171" stroke="#e5e7eb" stroke-width="0.5"/>
  <line x1="392.0" y1="16" x2="392.0" y2="171" stroke="#e5e7eb" stroke-width="0.5"/>
  <line x1="142.5" y1="16" x2="142.5" y2="171" stroke="#e5e7eb" stroke-width="0.5"/>
  <text x="142.5" y="183" text-anchor="middle" font-size="8" fill="#6b7280">100</text>
  <line x1="250.9" y1="16" x2="250.9" y2="171" stroke="#e5e7eb" stroke-width="0.5"/>
  <text x="250.9" y="183" text-anchor="middle" font-size="8" fill="#6b7280">1k</text>
  <line x1="359.4" y1="16" x2="359.4" y2="171" stroke="#e5e7eb" stroke-width="0.5"/>
  <text x="359.4" y="183" text-anchor="middle" font-size="8" fill="#6b7280">10k</text>
  <line x1="34" y1="31.5" x2="392" y2="31.5" stroke="#e5e7eb" stroke-width="0.5"/>
  <line x1="34" y1="62.5" x2="392" y2="62.5" stroke="#e5e7eb" stroke-width="0.5"/>
  <line x1="34" y1="16.0" x2="392" y2="16.0" stroke="#e5e7eb" stroke-width="0.5"/>
  <text x="30" y="19.0" text-anchor="end" font-size="8" fill="#6b7280">+20</text>
  <text x="30" y="50.0" text-anchor="end" font-size="8" fill="#6b7280">0</text>
  <line x1="34" y1="78.0" x2="392" y2="78.0" stroke="#e5e7eb" stroke-width="0.5"/>
  <text x="30" y="81.0" text-anchor="end" font-size="8" fill="#6b7280">-20</text>
  <line x1="34" y1="109.0" x2="392" y2="109.0" stroke="#e5e7eb" stroke-width="0.5"/>
  <text x="30" y="112.0" text-anchor="end" font-size="8" fill="#6b7280">-40</text>
  <line x1="34" y1="140.0" x2="392" y2="140.0" stroke="#e5e7eb" stroke-width="0.5"/>
  <text x="30" y="143.0" text-anchor="end" font-size="8" fill="#6b7280">-60</text>
  <line x1="34" y1="171.0" x2="392" y2="171.0" stroke="#e5e7eb" stroke-width="0.5"/>
  <text x="30" y="174.0" text-anchor="end" font-size="8" fill="#6b7280">-80</text>
  <defs><linearGradient id="g740" x1="0" y1="16" x2="0" y2="171" gradientUnits="userSpaceOnUse">
    <stop offset="0%" stop-color="#4a90d9" stop-opacity="0.15"/>
    <stop offset="100%" stop-color="#4a90d9" stop-opacity="0.02"/>
  </linearGradient></defs>
  <path d="M37.5,75.4 37.5,75.4 70.1,75.4 89.2,75.4 102.8,75.4 113.3,75.4 121.9,75.4 129.1,75.4 135.4,75.4 141.0,75.4 145.9,75.4 150.4,75.3 154.5,75.3 158.3,75.3 161.8,75.3 165.0,75.3 168.1,75.3 170.9,75.3 173.6,75.3 176.2,75.3 178.6,75.3 180.9,75.3 183.1,75.3 185.2,75.3 187.2,75.3 189.1,75.3 190.9,75.3 192.7,75.3 194.4,75.3 196.1,75.3 197.7,75.3 199.2,75.3 200.7,75.3 202.2,75.3 203.6,75.3 204.9,75.3 206.3,75.3 207.6,75.3 208.8,75.3 210.0,75.3 211.2,75.3 212.4,75.3 213.5,75.4 214.6,75.4 215.7,75.4 216.8,75.4 217.8,75.4 218.8,75.4 219.8,75.4 220.8,75.4 221.7,75.4 222.7,75.4 223.6,75.4 224.5,75.4 225.4,75.4 226.2,75.4 227.1,75.4 227.9,75.4 228.7,75.4 229.5,75.4 231.1,75.4 232.6,75.5 234.1,75.5 235.5,75.5 236.9,75.5 238.2,75.5 239.6,75.6 240.8,75.6 242.1,75.6 243.3,75.6 244.5,75.6 245.6,75.6 246.7,75.6 247.8,75.6 248.9,75.7 249.9,75.7 251.0,75.7 252.0,75.7 252.9,75.7 253.9,75.7 254.8,75.8 255.8,75.8 256.7,75.8 257.6,75.8 258.4,75.8 259.3,75.8 260.1,75.8 261.0,75.8 261.8,75.8 263.0,75.8 264.1,75.8 265.3,75.8 266.4,75.8 267.5,75.8 268.5,75.7 269.6,75.7 270.6,75.7 271.6,75.7 272.5,75.6 273.5,75.6 274.4,75.5 275.3,75.5 276.2,75.4 277.1,75.3 278.0,75.3 278.8,75.1 279.6,75.0 280.5,74.9 281.3,74.7 282.3,74.6 283.4,74.4 284.4,74.3 285.3,74.2 286.3,74.0 287.3,73.9 288.2,73.8 289.1,73.6 290.0,73.5 290.9,73.4 291.7,73.3 292.6,73.2 293.4,73.0 294.2,72.9 295.0,72.8 296.0,72.7 297.0,72.5 297.9,72.3 298.8,72.2 299.7,72.1 300.6,71.9 301.5,71.8 302.4,71.6 303.2,71.5 304.0,71.3 304.9,71.1 305.8,70.9 306.7,70.8 307.7,70.7 308.6,70.5 309.5,70.4 310.3,70.3 311.2,70.1 312.0,70.0 312.8,69.8 313.7,69.6 314.6,69.4 315.5,69.1 316.4,69.0 317.3,68.8 318.1,68.6 319.0,68.3 319.8,68.1 320.6,67.8 321.4,67.5 322.3,67.3 323.2,67.1 324.1,66.9 324.9,66.7 325.7,66.5 326.6,66.4 327.4,66.2 328.3,66.1 329.1,65.9 330.0,65.7 330.8,65.6 331.7,65.4 332.5,65.3 333.3,65.2 334.2,65.1 335.0,65.1 335.9,65.0 336.7,65.0 337.5,65.0 338.4,64.9 339.2,64.9 340.1,64.8 340.9,64.7 341.7,64.6 342.5,64.5 343.4,64.4 344.2,64.2 345.1,64.1 345.9,64.1 346.7,64.1 347.6,64.1 348.4,64.1 349.2,64.2 350.0,64.3 350.9,64.4 351.7,64.6 352.6,64.7 353.4,64.8 354.2,65.1 355.1,65.4 355.9,65.7 356.7,66.0 357.6,66.5 358.4,66.9 359.2,67.4 360.0,68.0 360.9,68.5 361.7,68.9 362.5,69.5 363.3,70.1 364.2,70.5 365.0,71.0 365.8,71.3 366.6,71.4 367.4,71.2 368.3,71.0 369.1,70.8 369.9,70.5 370.7,70.3 371.5,69.9 372.4,69.4 373.2,68.9 374.0,68.0 374.8,67.2 375.6,66.4 376.4,65.4 377.2,64.5 378.1,63.7 378.9,62.6 379.7,61.3 380.5,60.3 381.3,59.3 382.1,58.4 383.0,57.5 383.8,56.7 384.6,56.1 385.4,55.5 386.2,54.9 387.0,54.4 387.9,53.9 388.7,53.3 389.5,53.0 390.3,52.6 391.1,52.3 391.9,52.2 L391.9,171.0 L37.5,171.0 Z" fill="url(#g740)"/>
  <defs><clipPath id="pc741"><rect x="34" y="16" width="358" height="155"/></clipPath></defs>
  <polyline points="37.5,75.4 70.1,75.4 89.2,75.4 102.8,75.4 113.3,75.4 121.9,75.4 129.1,75.4 135.4,75.4 141.0,75.4 145.9,75.4 150.4,75.3 154.5,75.3 158.3,75.3 161.8,75.3 165.0,75.3 168.1,75.3 170.9,75.3 173.6,75.3 176.2,75.3 178.6,75.3 180.9,75.3 183.1,75.3 185.2,75.3 187.2,75.3 189.1,75.3 190.9,75.3 192.7,75.3 194.4,75.3 196.1,75.3 197.7,75.3 199.2,75.3 200.7,75.3 202.2,75.3 203.6,75.3 204.9,75.3 206.3,75.3 207.6,75.3 208.8,75.3 210.0,75.3 211.2,75.3 212.4,75.3 213.5,75.4 214.6,75.4 215.7,75.4 216.8,75.4 217.8,75.4 218.8,75.4 219.8,75.4 220.8,75.4 221.7,75.4 222.7,75.4 223.6,75.4 224.5,75.4 225.4,75.4 226.2,75.4 227.1,75.4 227.9,75.4 228.7,75.4 229.5,75.4 231.1,75.4 232.6,75.5 234.1,75.5 235.5,75.5 236.9,75.5 238.2,75.5 239.6,75.6 240.8,75.6 242.1,75.6 243.3,75.6 244.5,75.6 245.6,75.6 246.7,75.6 247.8,75.6 248.9,75.7 249.9,75.7 251.0,75.7 252.0,75.7 252.9,75.7 253.9,75.7 254.8,75.8 255.8,75.8 256.7,75.8 257.6,75.8 258.4,75.8 259.3,75.8 260.1,75.8 261.0,75.8 261.8,75.8 263.0,75.8 264.1,75.8 265.3,75.8 266.4,75.8 267.5,75.8 268.5,75.7 269.6,75.7 270.6,75.7 271.6,75.7 272.5,75.6 273.5,75.6 274.4,75.5 275.3,75.5 276.2,75.4 277.1,75.3 278.0,75.3 278.8,75.1 279.6,75.0 280.5,74.9 281.3,74.7 282.3,74.6 283.4,74.4 284.4,74.3 285.3,74.2 286.3,74.0 287.3,73.9 288.2,73.8 289.1,73.6 290.0,73.5 290.9,73.4 291.7,73.3 292.6,73.2 293.4,73.0 294.2,72.9 295.0,72.8 296.0,72.7 297.0,72.5 297.9,72.3 298.8,72.2 299.7,72.1 300.6,71.9 301.5,71.8 302.4,71.6 303.2,71.5 304.0,71.3 304.9,71.1 305.8,70.9 306.7,70.8 307.7,70.7 308.6,70.5 309.5,70.4 310.3,70.3 311.2,70.1 312.0,70.0 312.8,69.8 313.7,69.6 314.6,69.4 315.5,69.1 316.4,69.0 317.3,68.8 318.1,68.6 319.0,68.3 319.8,68.1 320.6,67.8 321.4,67.5 322.3,67.3 323.2,67.1 324.1,66.9 324.9,66.7 325.7,66.5 326.6,66.4 327.4,66.2 328.3,66.1 329.1,65.9 330.0,65.7 330.8,65.6 331.7,65.4 332.5,65.3 333.3,65.2 334.2,65.1 335.0,65.1 335.9,65.0 336.7,65.0 337.5,65.0 338.4,64.9 339.2,64.9 340.1,64.8 340.9,64.7 341.7,64.6 342.5,64.5 343.4,64.4 344.2,64.2 345.1,64.1 345.9,64.1 346.7,64.1 347.6,64.1 348.4,64.1 349.2,64.2 350.0,64.3 350.9,64.4 351.7,64.6 352.6,64.7 353.4,64.8 354.2,65.1 355.1,65.4 355.9,65.7 356.7,66.0 357.6,66.5 358.4,66.9 359.2,67.4 360.0,68.0 360.9,68.5 361.7,68.9 362.5,69.5 363.3,70.1 364.2,70.5 365.0,71.0 365.8,71.3 366.6,71.4 367.4,71.2 368.3,71.0 369.1,70.8 369.9,70.5 370.7,70.3 371.5,69.9 372.4,69.4 373.2,68.9 374.0,68.0 374.8,67.2 375.6,66.4 376.4,65.4 377.2,64.5 378.1,63.7 378.9,62.6 379.7,61.3 380.5,60.3 381.3,59.3 382.1,58.4 383.0,57.5 383.8,56.7 384.6,56.1 385.4,55.5 386.2,54.9 387.0,54.4 387.9,53.9 388.7,53.3 389.5,53.0 390.3,52.6 391.1,52.3 391.9,52.2" fill="none" stroke="#4a90d9" stroke-width="1.5" stroke-linejoin="round" clip-path="url(#pc741)"/>
  <line x1="442" y1="16" x2="442" y2="171" stroke="#d1d5db"/>
  <line x1="442" y1="93.5" x2="800" y2="93.5" stroke="#d1d5db"/>
  <text x="621" y="197" text-anchor="middle" font-size="9" fill="#6b7280">Hz</text>
  <text x="420" y="93.5" text-anchor="middle" font-size="9" fill="#6b7280" transform="rotate(-90 420 93.5)">Phase (deg)</text>
  <line x1="474.6" y1="16" x2="474.6" y2="171" stroke="#e5e7eb" stroke-width="0.5"/>
  <line x1="493.7" y1="16" x2="493.7" y2="171" stroke="#e5e7eb" stroke-width="0.5"/>
  <line x1="507.3" y1="16" x2="507.3" y2="171" stroke="#e5e7eb" stroke-width="0.5"/>
  <line x1="517.8" y1="16" x2="517.8" y2="171" stroke="#e5e7eb" stroke-width="0.5"/>
  <line x1="526.4" y1="16" x2="526.4" y2="171" stroke="#e5e7eb" stroke-width="0.5"/>
  <line x1="533.7" y1="16" x2="533.7" y2="171" stroke="#e5e7eb" stroke-width="0.5"/>
  <line x1="539.9" y1="16" x2="539.9" y2="171" stroke="#e5e7eb" stroke-width="0.5"/>
  <line x1="545.5" y1="16" x2="545.5" y2="171" stroke="#e5e7eb" stroke-width="0.5"/>
  <line x1="583.1" y1="16" x2="583.1" y2="171" stroke="#e5e7eb" stroke-width="0.5"/>
  <line x1="602.2" y1="16" x2="602.2" y2="171" stroke="#e5e7eb" stroke-width="0.5"/>
  <line x1="615.7" y1="16" x2="615.7" y2="171" stroke="#e5e7eb" stroke-width="0.5"/>
  <line x1="626.3" y1="16" x2="626.3" y2="171" stroke="#e5e7eb" stroke-width="0.5"/>
  <line x1="634.8" y1="16" x2="634.8" y2="171" stroke="#e5e7eb" stroke-width="0.5"/>
  <line x1="642.1" y1="16" x2="642.1" y2="171" stroke="#e5e7eb" stroke-width="0.5"/>
  <line x1="648.4" y1="16" x2="648.4" y2="171" stroke="#e5e7eb" stroke-width="0.5"/>
  <line x1="653.9" y1="16" x2="653.9" y2="171" stroke="#e5e7eb" stroke-width="0.5"/>
  <line x1="691.5" y1="16" x2="691.5" y2="171" stroke="#e5e7eb" stroke-width="0.5"/>
  <line x1="710.6" y1="16" x2="710.6" y2="171" stroke="#e5e7eb" stroke-width="0.5"/>
  <line x1="724.2" y1="16" x2="724.2" y2="171" stroke="#e5e7eb" stroke-width="0.5"/>
  <line x1="734.7" y1="16" x2="734.7" y2="171" stroke="#e5e7eb" stroke-width="0.5"/>
  <line x1="743.3" y1="16" x2="743.3" y2="171" stroke="#e5e7eb" stroke-width="0.5"/>
  <line x1="750.6" y1="16" x2="750.6" y2="171" stroke="#e5e7eb" stroke-width="0.5"/>
  <line x1="756.8" y1="16" x2="756.8" y2="171" stroke="#e5e7eb" stroke-width="0.5"/>
  <line x1="762.4" y1="16" x2="762.4" y2="171" stroke="#e5e7eb" stroke-width="0.5"/>
  <line x1="800.0" y1="16" x2="800.0" y2="171" stroke="#e5e7eb" stroke-width="0.5"/>
  <line x1="550.5" y1="16" x2="550.5" y2="171" stroke="#e5e7eb" stroke-width="0.5"/>
  <text x="550.5" y="183" text-anchor="middle" font-size="8" fill="#6b7280">100</text>
  <line x1="658.9" y1="16" x2="658.9" y2="171" stroke="#e5e7eb" stroke-width="0.5"/>
  <text x="658.9" y="183" text-anchor="middle" font-size="8" fill="#6b7280">1k</text>
  <line x1="767.4" y1="16" x2="767.4" y2="171" stroke="#e5e7eb" stroke-width="0.5"/>
  <text x="767.4" y="183" text-anchor="middle" font-size="8" fill="#6b7280">10k</text>
  <line x1="442" y1="54.8" x2="800" y2="54.8" stroke="#e5e7eb" stroke-width="0.5"/>
  <line x1="442" y1="132.3" x2="800" y2="132.3" stroke="#e5e7eb" stroke-width="0.5"/>
  <line x1="442" y1="16.0" x2="800" y2="16.0" stroke="#e5e7eb" stroke-width="0.5"/>
  <text x="438" y="19.0" text-anchor="end" font-size="8" fill="#6b7280">180</text>
  <text x="438" y="96.5" text-anchor="end" font-size="8" fill="#6b7280">0</text>
  <line x1="442" y1="171.0" x2="800" y2="171.0" stroke="#e5e7eb" stroke-width="0.5"/>
  <text x="438" y="174.0" text-anchor="end" font-size="8" fill="#6b7280">-180</text>
  <defs><linearGradient id="g742" x1="0" y1="171" x2="0" y2="93.5" gradientUnits="userSpaceOnUse">
    <stop offset="0%" stop-color="#e74c3c" stop-opacity="0.15"/>
    <stop offset="100%" stop-color="#e74c3c" stop-opacity="0.02"/>
  </linearGradient></defs>
  <path d="M445.5,170.9 445.5,170.9 478.1,170.9 497.2,170.8 510.8,170.8 521.3,170.7 529.9,170.7 537.1,170.6 543.4,170.6 549.0,170.5 553.9,170.5 558.4,170.5 562.5,170.4 566.3,170.4 569.8,170.4 573.0,170.3 576.1,170.3 578.9,170.3 581.6,170.3 584.2,170.2 586.6,170.2 588.9,170.2 591.1,170.2 593.2,170.1 595.2,170.1 597.1,170.1 598.9,170.0 600.7,170.0 602.4,169.9 604.1,169.9 605.7,169.9 607.2,169.8 608.7,169.8 610.2,169.8 611.6,169.7 612.9,169.7 614.3,169.6 615.6,169.6 616.8,169.6 618.0,169.5 619.2,169.5 620.4,169.5 621.5,169.5 622.6,169.4 623.7,169.4 624.8,169.3 625.8,169.3 626.8,169.3 627.8,169.2 628.8,169.1 629.7,169.1 630.7,169.1 631.6,169.0 632.5,169.0 633.4,169.0 634.2,168.9 635.1,168.9 635.9,168.9 636.7,168.8 637.5,168.8 639.1,168.7 640.6,168.7 642.1,168.6 643.5,168.5 644.9,168.4 646.2,168.3 647.6,168.2 648.8,168.1 650.1,167.9 651.3,167.8 652.5,167.8 653.6,167.7 654.7,167.6 655.8,167.5 656.9,167.4 657.9,167.3 659.0,167.1 660.0,167.0 660.9,166.9 661.9,166.7 662.8,166.6 663.8,166.5 664.7,166.3 665.6,166.2 666.4,166.0 667.3,165.9 668.1,165.7 669.0,165.6 669.8,165.4 671.0,165.2 672.1,165.0 673.3,164.7 674.4,164.5 675.5,164.2 676.5,164.0 677.6,163.7 678.6,163.5 679.6,163.2 680.5,162.9 681.5,162.7 682.4,162.4 683.3,162.1 684.2,161.8 685.1,161.5 686.0,161.3 686.8,161.0 687.6,160.7 688.5,160.5 689.3,160.3 690.3,160.1 691.4,160.0 692.4,159.8 693.3,159.7 694.3,159.5 695.3,159.3 696.2,159.1 697.1,159.0 698.0,158.9 698.9,158.8 699.7,158.7 700.6,158.5 701.4,158.4 702.2,158.3 703.0,158.2 704.0,158.0 705.0,157.9 705.9,157.8 706.8,157.7 707.7,157.5 708.6,157.4 709.5,157.3 710.4,157.2 711.2,157.1 712.0,157.0 712.9,156.9 713.8,156.9 714.7,156.9 715.7,156.9 716.6,156.8 717.5,156.7 718.3,156.6 719.2,156.5 720.0,156.4 720.8,156.3 721.7,156.2 722.6,156.1 723.5,156.1 724.4,156.1 725.3,156.0 726.1,156.0 727.0,156.0 727.8,155.9 728.6,156.0 729.4,156.2 730.3,156.4 731.2,156.6 732.1,156.8 732.9,157.0 733.7,157.3 734.6,157.5 735.4,157.6 736.3,157.9 737.1,158.1 738.0,158.3 738.8,158.6 739.7,158.9 740.5,159.2 741.3,159.5 742.2,159.9 743.0,160.2 743.9,160.5 744.7,160.7 745.5,160.9 746.4,161.1 747.2,161.3 748.1,161.5 748.9,161.6 749.7,161.8 750.5,162.0 751.4,162.3 752.2,162.6 753.1,163.0 753.9,163.6 754.7,164.1 755.6,164.4 756.4,164.9 757.2,165.5 758.0,165.9 758.9,166.2 759.7,166.6 760.6,167.0 761.4,167.5 762.2,168.0 763.1,168.4 763.9,168.6 764.7,168.9 765.6,169.1 766.4,169.2 767.2,169.3 768.0,169.1 768.9,168.7 769.7,168.3 770.5,167.8 771.3,166.8 772.2,165.9 773.0,164.7 773.8,163.0 774.6,161.3 775.4,159.8 776.3,158.4 777.1,157.1 777.9,156.0 778.7,154.7 779.5,153.2 780.4,151.8 781.2,150.5 782.0,149.2 782.8,148.4 783.6,147.6 784.4,147.0 785.2,146.7 786.1,146.2 786.9,145.7 787.7,145.8 788.5,146.5 789.3,147.1 790.1,147.9 791.0,148.6 791.8,149.9 792.6,151.0 793.4,152.0 794.2,153.3 795.0,154.6 795.9,155.5 796.7,156.8 797.5,158.4 798.3,159.7 799.1,161.2 799.9,162.8 L799.9,93.5 L445.5,93.5 Z" fill="url(#g742)"/>
  <defs><clipPath id="pc743"><rect x="442" y="16" width="358" height="155"/></clipPath></defs>
  <polyline points="445.5,170.9 478.1,170.9 497.2,170.8 510.8,170.8 521.3,170.7 529.9,170.7 537.1,170.6 543.4,170.6 549.0,170.5 553.9,170.5 558.4,170.5 562.5,170.4 566.3,170.4 569.8,170.4 573.0,170.3 576.1,170.3 578.9,170.3 581.6,170.3 584.2,170.2 586.6,170.2 588.9,170.2 591.1,170.2 593.2,170.1 595.2,170.1 597.1,170.1 598.9,170.0 600.7,170.0 602.4,169.9 604.1,169.9 605.7,169.9 607.2,169.8 608.7,169.8 610.2,169.8 611.6,169.7 612.9,169.7 614.3,169.6 615.6,169.6 616.8,169.6 618.0,169.5 619.2,169.5 620.4,169.5 621.5,169.5 622.6,169.4 623.7,169.4 624.8,169.3 625.8,169.3 626.8,169.3 627.8,169.2 628.8,169.1 629.7,169.1 630.7,169.1 631.6,169.0 632.5,169.0 633.4,169.0 634.2,168.9 635.1,168.9 635.9,168.9 636.7,168.8 637.5,168.8 639.1,168.7 640.6,168.7 642.1,168.6 643.5,168.5 644.9,168.4 646.2,168.3 647.6,168.2 648.8,168.1 650.1,167.9 651.3,167.8 652.5,167.8 653.6,167.7 654.7,167.6 655.8,167.5 656.9,167.4 657.9,167.3 659.0,167.1 660.0,167.0 660.9,166.9 661.9,166.7 662.8,166.6 663.8,166.5 664.7,166.3 665.6,166.2 666.4,166.0 667.3,165.9 668.1,165.7 669.0,165.6 669.8,165.4 671.0,165.2 672.1,165.0 673.3,164.7 674.4,164.5 675.5,164.2 676.5,164.0 677.6,163.7 678.6,163.5 679.6,163.2 680.5,162.9 681.5,162.7 682.4,162.4 683.3,162.1 684.2,161.8 685.1,161.5 686.0,161.3 686.8,161.0 687.6,160.7 688.5,160.5 689.3,160.3 690.3,160.1 691.4,160.0 692.4,159.8 693.3,159.7 694.3,159.5 695.3,159.3 696.2,159.1 697.1,159.0 698.0,158.9 698.9,158.8 699.7,158.7 700.6,158.5 701.4,158.4 702.2,158.3 703.0,158.2 704.0,158.0 705.0,157.9 705.9,157.8 706.8,157.7 707.7,157.5 708.6,157.4 709.5,157.3 710.4,157.2 711.2,157.1 712.0,157.0 712.9,156.9 713.8,156.9 714.7,156.9 715.7,156.9 716.6,156.8 717.5,156.7 718.3,156.6 719.2,156.5 720.0,156.4 720.8,156.3 721.7,156.2 722.6,156.1 723.5,156.1 724.4,156.1 725.3,156.0 726.1,156.0 727.0,156.0 727.8,155.9 728.6,156.0 729.4,156.2 730.3,156.4 731.2,156.6 732.1,156.8 732.9,157.0 733.7,157.3 734.6,157.5 735.4,157.6 736.3,157.9 737.1,158.1 738.0,158.3 738.8,158.6 739.7,158.9 740.5,159.2 741.3,159.5 742.2,159.9 743.0,160.2 743.9,160.5 744.7,160.7 745.5,160.9 746.4,161.1 747.2,161.3 748.1,161.5 748.9,161.6 749.7,161.8 750.5,162.0 751.4,162.3 752.2,162.6 753.1,163.0 753.9,163.6 754.7,164.1 755.6,164.4 756.4,164.9 757.2,165.5 758.0,165.9 758.9,166.2 759.7,166.6 760.6,167.0 761.4,167.5 762.2,168.0 763.1,168.4 763.9,168.6 764.7,168.9 765.6,169.1 766.4,169.2 767.2,169.3 768.0,169.1 768.9,168.7 769.7,168.3 770.5,167.8 771.3,166.8 772.2,165.9 773.0,164.7 773.8,163.0 774.6,161.3 775.4,159.8 776.3,158.4 777.1,157.1 777.9,156.0 778.7,154.7 779.5,153.2 780.4,151.8 781.2,150.5 782.0,149.2 782.8,148.4 783.6,147.6 784.4,147.0 785.2,146.7 786.1,146.2 786.9,145.7 787.7,145.8 788.5,146.5 789.3,147.1 790.1,147.9 791.0,148.6 791.8,149.9 792.6,151.0 793.4,152.0 794.2,153.3 795.0,154.6 795.9,155.5 796.7,156.8 797.5,158.4 798.3,159.7 799.1,161.2 799.9,162.8" fill="none" stroke="#e74c3c" stroke-width="1.5" stroke-linejoin="round" clip-path="url(#pc743)"/>
  <line x1="34" y1="221" x2="34" y2="376" stroke="#d1d5db"/>
  <line x1="34" y1="298.5" x2="392" y2="298.5" stroke="#d1d5db"/>
  <text x="213" y="402" text-anchor="middle" font-size="9" fill="#6b7280">Hz</text>
  <text x="12" y="298.5" text-anchor="middle" font-size="9" fill="#6b7280" transform="rotate(-90 12 298.5)">Group delay</text>
  <line x1="66.6" y1="221" x2="66.6" y2="376" stroke="#e5e7eb" stroke-width="0.5"/>
  <line x1="85.7" y1="221" x2="85.7" y2="376" stroke="#e5e7eb" stroke-width="0.5"/>
  <line x1="99.3" y1="221" x2="99.3" y2="376" stroke="#e5e7eb" stroke-width="0.5"/>
  <line x1="109.8" y1="221" x2="109.8" y2="376" stroke="#e5e7eb" stroke-width="0.5"/>
  <line x1="118.4" y1="221" x2="118.4" y2="376" stroke="#e5e7eb" stroke-width="0.5"/>
  <line x1="125.7" y1="221" x2="125.7" y2="376" stroke="#e5e7eb" stroke-width="0.5"/>
  <line x1="131.9" y1="221" x2="131.9" y2="376" stroke="#e5e7eb" stroke-width="0.5"/>
  <line x1="137.5" y1="221" x2="137.5" y2="376" stroke="#e5e7eb" stroke-width="0.5"/>
  <line x1="175.1" y1="221" x2="175.1" y2="376" stroke="#e5e7eb" stroke-width="0.5"/>
  <line x1="194.2" y1="221" x2="194.2" y2="376" stroke="#e5e7eb" stroke-width="0.5"/>
  <line x1="207.7" y1="221" x2="207.7" y2="376" stroke="#e5e7eb" stroke-width="0.5"/>
  <line x1="218.3" y1="221" x2="218.3" y2="376" stroke="#e5e7eb" stroke-width="0.5"/>
  <line x1="226.8" y1="221" x2="226.8" y2="376" stroke="#e5e7eb" stroke-width="0.5"/>
  <line x1="234.1" y1="221" x2="234.1" y2="376" stroke="#e5e7eb" stroke-width="0.5"/>
  <line x1="240.4" y1="221" x2="240.4" y2="376" stroke="#e5e7eb" stroke-width="0.5"/>
  <line x1="245.9" y1="221" x2="245.9" y2="376" stroke="#e5e7eb" stroke-width="0.5"/>
  <line x1="283.5" y1="221" x2="283.5" y2="376" stroke="#e5e7eb" stroke-width="0.5"/>
  <line x1="302.6" y1="221" x2="302.6" y2="376" stroke="#e5e7eb" stroke-width="0.5"/>
  <line x1="316.2" y1="221" x2="316.2" y2="376" stroke="#e5e7eb" stroke-width="0.5"/>
  <line x1="326.7" y1="221" x2="326.7" y2="376" stroke="#e5e7eb" stroke-width="0.5"/>
  <line x1="335.3" y1="221" x2="335.3" y2="376" stroke="#e5e7eb" stroke-width="0.5"/>
  <line x1="342.6" y1="221" x2="342.6" y2="376" stroke="#e5e7eb" stroke-width="0.5"/>
  <line x1="348.8" y1="221" x2="348.8" y2="376" stroke="#e5e7eb" stroke-width="0.5"/>
  <line x1="354.4" y1="221" x2="354.4" y2="376" stroke="#e5e7eb" stroke-width="0.5"/>
  <line x1="392.0" y1="221" x2="392.0" y2="376" stroke="#e5e7eb" stroke-width="0.5"/>
  <line x1="142.5" y1="221" x2="142.5" y2="376" stroke="#e5e7eb" stroke-width="0.5"/>
  <text x="142.5" y="388" text-anchor="middle" font-size="8" fill="#6b7280">100</text>
  <line x1="250.9" y1="221" x2="250.9" y2="376" stroke="#e5e7eb" stroke-width="0.5"/>
  <text x="250.9" y="388" text-anchor="middle" font-size="8" fill="#6b7280">1k</text>
  <line x1="359.4" y1="221" x2="359.4" y2="376" stroke="#e5e7eb" stroke-width="0.5"/>
  <text x="359.4" y="388" text-anchor="middle" font-size="8" fill="#6b7280">10k</text>
  <line x1="34" y1="343.7" x2="392" y2="343.7" stroke="#e5e7eb" stroke-width="0.5"/>
  <text x="30" y="346.7" text-anchor="end" font-size="8" fill="#6b7280">-2</text>
  <text x="30" y="301.5" text-anchor="end" font-size="8" fill="#6b7280">0</text>
  <line x1="34" y1="253.3" x2="392" y2="253.3" stroke="#e5e7eb" stroke-width="0.5"/>
  <text x="30" y="256.3" text-anchor="end" font-size="8" fill="#6b7280">2</text>
  <defs><linearGradient id="g744" x1="0" y1="221" x2="0" y2="298.5" gradientUnits="userSpaceOnUse">
    <stop offset="0%" stop-color="#2ecc71" stop-opacity="0.15"/>
    <stop offset="100%" stop-color="#2ecc71" stop-opacity="0.02"/>
  </linearGradient></defs>
  <defs><linearGradient id="g745" x1="0" y1="376" x2="0" y2="298.5" gradientUnits="userSpaceOnUse">
    <stop offset="0%" stop-color="#2ecc71" stop-opacity="0.15"/>
    <stop offset="100%" stop-color="#2ecc71" stop-opacity="0.02"/>
  </linearGradient></defs>
  <defs><clipPath id="c746"><rect x="34" y="221" width="358" height="77.5"/></clipPath></defs>
  <defs><clipPath id="c747"><rect x="34" y="298.5" width="358" height="77.5"/></clipPath></defs>
  <path d="M37.5,331.1 37.5,331.1 70.1,330.8 89.2,330.2 102.8,329.6 113.3,328.8 121.9,327.9 129.1,326.9 135.4,325.9 141.0,324.7 145.9,323.3 150.4,321.8 154.5,320.1 158.3,318.3 161.8,316.5 165.0,314.9 168.1,313.5 170.9,312.7 173.6,312.4 176.2,312.8 178.6,313.7 180.9,314.9 183.1,316.3 185.2,317.6 187.2,318.6 189.1,319.3 190.9,319.8 192.7,320.1 194.4,320.4 196.1,320.8 197.7,321.2 199.2,321.6 200.7,321.8 202.2,321.7 203.6,321.2 204.9,320.3 206.3,319.2 207.6,318.0 208.8,317.0 210.0,316.4 211.2,316.3 212.4,316.8 213.5,317.9 214.6,319.6 215.7,321.8 216.8,324.2 217.8,326.4 218.8,328.0 219.8,328.6 220.8,328.0 221.7,326.2 222.7,323.6 223.6,320.6 224.5,317.8 225.4,315.8 226.2,314.7 227.1,314.6 227.9,315.2 228.7,316.3 229.5,317.6 231.1,320.2 232.6,322.9 234.1,325.8 235.5,328.1 236.9,329.3 238.2,330.5 239.6,332.0 240.8,332.1 242.1,329.5 243.3,325.3 244.5,322.0 245.6,321.4 246.7,323.8 247.8,328.5 248.9,334.2 249.9,338.6 251.0,340.0 252.0,339.2 252.9,338.3 253.9,338.3 254.8,339.0 255.8,340.3 256.7,342.3 257.6,343.9 258.4,343.8 259.3,342.4 260.1,341.9 261.0,343.0 261.8,344.2 263.0,343.6 264.1,343.4 265.3,346.4 266.4,348.8 267.5,348.0 268.5,347.1 269.6,349.8 270.6,352.7 271.6,352.6 272.5,352.1 273.5,351.7 274.4,352.1 275.3,354.1 276.2,355.6 277.1,357.3 278.0,357.8 278.8,352.5 279.6,344.4 280.5,338.3 281.3,332.0 282.3,323.1 283.4,318.7 284.4,319.7 285.3,323.5 286.3,326.0 287.3,328.3 288.2,323.6 289.1,316.1 290.0,312.8 290.9,312.8 291.7,319.5 292.6,319.6 293.4,315.8 294.2,315.2 295.0,317.9 296.0,316.3 297.0,311.7 297.9,311.3 298.8,312.4 299.7,312.6 300.6,313.3 301.5,313.8 302.4,311.8 303.2,311.0 304.0,304.2 304.9,302.8 305.8,298.9 306.7,300.4 307.7,300.9 308.6,306.9 309.5,310.5 310.3,308.4 311.2,306.9 312.0,312.0 312.8,308.9 313.7,311.2 314.6,300.8 315.5,296.7 316.4,301.2 317.3,303.1 318.1,301.9 319.0,302.1 319.8,297.0 320.6,288.2 321.4,281.4 322.3,283.7 323.2,285.8 324.1,278.7 324.9,283.9 325.7,278.4 326.6,286.7 327.4,285.0 328.3,281.1 329.1,285.3 330.0,282.1 330.8,278.3 331.7,279.5 332.5,276.6 333.3,276.9 334.2,278.9 335.0,281.5 335.9,280.9 336.7,284.7 337.5,288.9 338.4,285.5 339.2,289.7 340.1,292.1 340.9,287.6 341.7,288.7 342.5,285.1 343.4,287.4 344.2,278.9 345.1,274.3 345.9,270.2 346.7,280.1 347.6,278.4 348.4,274.0 349.2,276.9 350.0,284.0 350.9,280.7 351.7,281.4 352.6,282.1 353.4,277.3 354.2,284.2 355.1,285.8 355.9,289.9 356.7,284.3 357.6,292.8 358.4,293.8 359.2,296.7 360.0,314.6 360.9,312.4 361.7,311.0 362.5,320.4 363.3,335.0 364.2,335.3 365.0,348.9 365.8,354.1 366.6,352.5 367.4,341.9 368.3,332.3 369.1,340.9 369.9,329.5 370.7,340.3 371.5,334.8 372.4,335.7 373.2,338.5 374.0,313.6 374.8,317.5 375.6,328.2 376.4,307.5 377.2,306.4 378.1,310.6 378.9,311.3 379.7,282.4 380.5,286.6 381.3,276.9 382.1,279.9 383.0,279.7 383.8,268.7 384.6,274.9 385.4,278.5 386.2,271.2 387.0,275.1 387.9,277.2 388.7,266.8 389.5,271.0 390.3,272.3 391.1,263.7 391.9,273.5 L391.9,298.5 L37.5,298.5 Z" fill="url(#g744)" clip-path="url(#c746)"/>
  <path d="M37.5,331.1 37.5,331.1 70.1,330.8 89.2,330.2 102.8,329.6 113.3,328.8 121.9,327.9 129.1,326.9 135.4,325.9 141.0,324.7 145.9,323.3 150.4,321.8 154.5,320.1 158.3,318.3 161.8,316.5 165.0,314.9 168.1,313.5 170.9,312.7 173.6,312.4 176.2,312.8 178.6,313.7 180.9,314.9 183.1,316.3 185.2,317.6 187.2,318.6 189.1,319.3 190.9,319.8 192.7,320.1 194.4,320.4 196.1,320.8 197.7,321.2 199.2,321.6 200.7,321.8 202.2,321.7 203.6,321.2 204.9,320.3 206.3,319.2 207.6,318.0 208.8,317.0 210.0,316.4 211.2,316.3 212.4,316.8 213.5,317.9 214.6,319.6 215.7,321.8 216.8,324.2 217.8,326.4 218.8,328.0 219.8,328.6 220.8,328.0 221.7,326.2 222.7,323.6 223.6,320.6 224.5,317.8 225.4,315.8 226.2,314.7 227.1,314.6 227.9,315.2 228.7,316.3 229.5,317.6 231.1,320.2 232.6,322.9 234.1,325.8 235.5,328.1 236.9,329.3 238.2,330.5 239.6,332.0 240.8,332.1 242.1,329.5 243.3,325.3 244.5,322.0 245.6,321.4 246.7,323.8 247.8,328.5 248.9,334.2 249.9,338.6 251.0,340.0 252.0,339.2 252.9,338.3 253.9,338.3 254.8,339.0 255.8,340.3 256.7,342.3 257.6,343.9 258.4,343.8 259.3,342.4 260.1,341.9 261.0,343.0 261.8,344.2 263.0,343.6 264.1,343.4 265.3,346.4 266.4,348.8 267.5,348.0 268.5,347.1 269.6,349.8 270.6,352.7 271.6,352.6 272.5,352.1 273.5,351.7 274.4,352.1 275.3,354.1 276.2,355.6 277.1,357.3 278.0,357.8 278.8,352.5 279.6,344.4 280.5,338.3 281.3,332.0 282.3,323.1 283.4,318.7 284.4,319.7 285.3,323.5 286.3,326.0 287.3,328.3 288.2,323.6 289.1,316.1 290.0,312.8 290.9,312.8 291.7,319.5 292.6,319.6 293.4,315.8 294.2,315.2 295.0,317.9 296.0,316.3 297.0,311.7 297.9,311.3 298.8,312.4 299.7,312.6 300.6,313.3 301.5,313.8 302.4,311.8 303.2,311.0 304.0,304.2 304.9,302.8 305.8,298.9 306.7,300.4 307.7,300.9 308.6,306.9 309.5,310.5 310.3,308.4 311.2,306.9 312.0,312.0 312.8,308.9 313.7,311.2 314.6,300.8 315.5,296.7 316.4,301.2 317.3,303.1 318.1,301.9 319.0,302.1 319.8,297.0 320.6,288.2 321.4,281.4 322.3,283.7 323.2,285.8 324.1,278.7 324.9,283.9 325.7,278.4 326.6,286.7 327.4,285.0 328.3,281.1 329.1,285.3 330.0,282.1 330.8,278.3 331.7,279.5 332.5,276.6 333.3,276.9 334.2,278.9 335.0,281.5 335.9,280.9 336.7,284.7 337.5,288.9 338.4,285.5 339.2,289.7 340.1,292.1 340.9,287.6 341.7,288.7 342.5,285.1 343.4,287.4 344.2,278.9 345.1,274.3 345.9,270.2 346.7,280.1 347.6,278.4 348.4,274.0 349.2,276.9 350.0,284.0 350.9,280.7 351.7,281.4 352.6,282.1 353.4,277.3 354.2,284.2 355.1,285.8 355.9,289.9 356.7,284.3 357.6,292.8 358.4,293.8 359.2,296.7 360.0,314.6 360.9,312.4 361.7,311.0 362.5,320.4 363.3,335.0 364.2,335.3 365.0,348.9 365.8,354.1 366.6,352.5 367.4,341.9 368.3,332.3 369.1,340.9 369.9,329.5 370.7,340.3 371.5,334.8 372.4,335.7 373.2,338.5 374.0,313.6 374.8,317.5 375.6,328.2 376.4,307.5 377.2,306.4 378.1,310.6 378.9,311.3 379.7,282.4 380.5,286.6 381.3,276.9 382.1,279.9 383.0,279.7 383.8,268.7 384.6,274.9 385.4,278.5 386.2,271.2 387.0,275.1 387.9,277.2 388.7,266.8 389.5,271.0 390.3,272.3 391.1,263.7 391.9,273.5 L391.9,298.5 L37.5,298.5 Z" fill="url(#g745)" clip-path="url(#c747)"/>
  <defs><clipPath id="pc748"><rect x="34" y="221" width="358" height="155"/></clipPath></defs>
  <polyline points="37.5,331.1 70.1,330.8 89.2,330.2 102.8,329.6 113.3,328.8 121.9,327.9 129.1,326.9 135.4,325.9 141.0,324.7 145.9,323.3 150.4,321.8 154.5,320.1 158.3,318.3 161.8,316.5 165.0,314.9 168.1,313.5 170.9,312.7 173.6,312.4 176.2,312.8 178.6,313.7 180.9,314.9 183.1,316.3 185.2,317.6 187.2,318.6 189.1,319.3 190.9,319.8 192.7,320.1 194.4,320.4 196.1,320.8 197.7,321.2 199.2,321.6 200.7,321.8 202.2,321.7 203.6,321.2 204.9,320.3 206.3,319.2 207.6,318.0 208.8,317.0 210.0,316.4 211.2,316.3 212.4,316.8 213.5,317.9 214.6,319.6 215.7,321.8 216.8,324.2 217.8,326.4 218.8,328.0 219.8,328.6 220.8,328.0 221.7,326.2 222.7,323.6 223.6,320.6 224.5,317.8 225.4,315.8 226.2,314.7 227.1,314.6 227.9,315.2 228.7,316.3 229.5,317.6 231.1,320.2 232.6,322.9 234.1,325.8 235.5,328.1 236.9,329.3 238.2,330.5 239.6,332.0 240.8,332.1 242.1,329.5 243.3,325.3 244.5,322.0 245.6,321.4 246.7,323.8 247.8,328.5 248.9,334.2 249.9,338.6 251.0,340.0 252.0,339.2 252.9,338.3 253.9,338.3 254.8,339.0 255.8,340.3 256.7,342.3 257.6,343.9 258.4,343.8 259.3,342.4 260.1,341.9 261.0,343.0 261.8,344.2 263.0,343.6 264.1,343.4 265.3,346.4 266.4,348.8 267.5,348.0 268.5,347.1 269.6,349.8 270.6,352.7 271.6,352.6 272.5,352.1 273.5,351.7 274.4,352.1 275.3,354.1 276.2,355.6 277.1,357.3 278.0,357.8 278.8,352.5 279.6,344.4 280.5,338.3 281.3,332.0 282.3,323.1 283.4,318.7 284.4,319.7 285.3,323.5 286.3,326.0 287.3,328.3 288.2,323.6 289.1,316.1 290.0,312.8 290.9,312.8 291.7,319.5 292.6,319.6 293.4,315.8 294.2,315.2 295.0,317.9 296.0,316.3 297.0,311.7 297.9,311.3 298.8,312.4 299.7,312.6 300.6,313.3 301.5,313.8 302.4,311.8 303.2,311.0 304.0,304.2 304.9,302.8 305.8,298.9 306.7,300.4 307.7,300.9 308.6,306.9 309.5,310.5 310.3,308.4 311.2,306.9 312.0,312.0 312.8,308.9 313.7,311.2 314.6,300.8 315.5,296.7 316.4,301.2 317.3,303.1 318.1,301.9 319.0,302.1 319.8,297.0 320.6,288.2 321.4,281.4 322.3,283.7 323.2,285.8 324.1,278.7 324.9,283.9 325.7,278.4 326.6,286.7 327.4,285.0 328.3,281.1 329.1,285.3 330.0,282.1 330.8,278.3 331.7,279.5 332.5,276.6 333.3,276.9 334.2,278.9 335.0,281.5 335.9,280.9 336.7,284.7 337.5,288.9 338.4,285.5 339.2,289.7 340.1,292.1 340.9,287.6 341.7,288.7 342.5,285.1 343.4,287.4 344.2,278.9 345.1,274.3 345.9,270.2 346.7,280.1 347.6,278.4 348.4,274.0 349.2,276.9 350.0,284.0 350.9,280.7 351.7,281.4 352.6,282.1 353.4,277.3 354.2,284.2 355.1,285.8 355.9,289.9 356.7,284.3 357.6,292.8 358.4,293.8 359.2,296.7 360.0,314.6 360.9,312.4 361.7,311.0 362.5,320.4 363.3,335.0 364.2,335.3 365.0,348.9 365.8,354.1 366.6,352.5 367.4,341.9 368.3,332.3 369.1,340.9 369.9,329.5 370.7,340.3 371.5,334.8 372.4,335.7 373.2,338.5 374.0,313.6 374.8,317.5 375.6,328.2 376.4,307.5 377.2,306.4 378.1,310.6 378.9,311.3 379.7,282.4 380.5,286.6 381.3,276.9 382.1,279.9 383.0,279.7 383.8,268.7 384.6,274.9 385.4,278.5 386.2,271.2 387.0,275.1 387.9,277.2 388.7,266.8 389.5,271.0 390.3,272.3 391.1,263.7 391.9,273.5" fill="none" stroke="#2ecc71" stroke-width="1.5" stroke-linejoin="round" clip-path="url(#pc748)"/>
  <line x1="442" y1="221" x2="442" y2="376" stroke="#d1d5db"/>
  <line x1="442" y1="298.5" x2="800" y2="298.5" stroke="#d1d5db"/>
  <text x="621" y="402" text-anchor="middle" font-size="9" fill="#6b7280">Samples</text>
  <text x="420" y="298.5" text-anchor="middle" font-size="9" fill="#6b7280" transform="rotate(-90 420 298.5)">Impulse response</text>
  <line x1="442.0" y1="221" x2="442.0" y2="376" stroke="#e5e7eb" stroke-width="0.5"/>
  <text x="442.0" y="388" text-anchor="middle" font-size="8" fill="#6b7280">0</text>
  <line x1="581.8" y1="221" x2="581.8" y2="376" stroke="#e5e7eb" stroke-width="0.5"/>
  <text x="581.8" y="388" text-anchor="middle" font-size="8" fill="#6b7280">200</text>
  <line x1="721.7" y1="221" x2="721.7" y2="376" stroke="#e5e7eb" stroke-width="0.5"/>
  <text x="721.7" y="388" text-anchor="middle" font-size="8" fill="#6b7280">400</text>
  <line x1="442" y1="354.4" x2="800" y2="354.4" stroke="#e5e7eb" stroke-width="0.5"/>
  <text x="438" y="357.4" text-anchor="end" font-size="8" fill="#6b7280">-0.2</text>
  <text x="438" y="301.5" text-anchor="end" font-size="8" fill="#6b7280">0</text>
  <line x1="442" y1="242.6" x2="800" y2="242.6" stroke="#e5e7eb" stroke-width="0.5"/>
  <text x="438" y="245.6" text-anchor="end" font-size="8" fill="#6b7280">0.2</text>
  <defs><linearGradient id="g749" x1="0" y1="221" x2="0" y2="298.5" gradientUnits="userSpaceOnUse">
    <stop offset="0%" stop-color="#f39c12" stop-opacity="0.15"/>
    <stop offset="100%" stop-color="#f39c12" stop-opacity="0.02"/>
  </linearGradient></defs>
  <defs><linearGradient id="g750" x1="0" y1="376" x2="0" y2="298.5" gradientUnits="userSpaceOnUse">
    <stop offset="0%" stop-color="#f39c12" stop-opacity="0.15"/>
    <stop offset="100%" stop-color="#f39c12" stop-opacity="0.02"/>
  </linearGradient></defs>
  <defs><clipPath id="c751"><rect x="442" y="221" width="358" height="77.5"/></clipPath></defs>
  <defs><clipPath id="c752"><rect x="442" y="298.5" width="358" height="77.5"/></clipPath></defs>
  <path d="M442.0,376.0 442.0,376.0 443.4,331.3 444.8,305.1 446.2,299.3 447.6,297.9 449.0,300.1 450.4,298.3 451.8,299.0 453.2,299.4 454.6,299.1 456.0,298.4 457.4,298.6 458.8,298.5 460.2,298.2 461.6,298.5 463.0,298.4 464.4,298.3 465.8,298.4 467.2,298.6 468.6,298.5 470.0,298.7 471.4,298.7 472.8,298.5 474.2,298.4 475.6,298.4 477.0,298.5 478.4,298.5 479.8,298.6 481.2,298.5 482.6,298.4 484.0,298.5 485.4,298.5 486.8,298.5 488.1,298.5 489.5,298.5 490.9,298.5 492.3,298.4 493.7,298.5 495.1,298.5 496.5,298.4 497.9,298.5 499.3,298.5 500.7,298.5 502.1,298.5 503.5,298.5 504.9,298.5 506.3,298.5 507.7,298.5 509.1,298.5 510.5,298.5 511.9,298.5 513.3,298.5 514.7,298.5 516.1,298.5 517.5,298.5 518.9,298.5 520.3,298.5 521.7,298.5 523.1,298.5 524.5,298.5 525.9,298.5 527.3,298.5 528.7,298.5 530.1,298.5 531.5,298.5 532.9,298.5 534.3,298.5 535.7,298.5 537.1,298.5 538.5,298.5 539.9,298.5 541.3,298.5 542.7,298.5 544.1,298.5 545.5,298.5 546.9,298.5 548.3,298.5 549.7,298.5 551.1,298.5 552.5,298.5 553.9,298.5 555.3,298.5 556.7,298.5 558.1,298.5 559.5,298.5 560.9,298.5 562.3,298.5 563.7,298.5 565.1,298.5 566.5,298.5 567.9,298.5 569.3,298.5 570.7,298.5 572.1,298.5 573.5,298.5 574.9,298.5 576.3,298.5 577.6,298.5 579.0,298.5 580.4,298.5 581.8,298.5 583.2,298.5 584.6,298.5 586.0,298.5 587.4,298.5 588.8,298.5 590.2,298.5 591.6,298.5 593.0,298.5 594.4,298.5 595.8,298.5 597.2,298.5 598.6,298.5 600.0,298.5 601.4,298.5 602.8,298.5 604.2,298.5 605.6,298.5 607.0,298.5 608.4,298.5 609.8,298.5 611.2,298.5 612.6,298.5 614.0,298.5 615.4,298.5 616.8,298.5 618.2,298.5 619.6,298.5 621.0,298.5 622.4,298.5 623.8,298.5 625.2,298.5 626.6,298.5 628.0,298.5 629.4,298.5 630.8,298.5 632.2,298.5 633.6,298.5 635.0,298.5 636.4,298.5 637.8,298.5 639.2,298.5 640.6,298.5 642.0,298.5 643.4,298.5 644.8,298.5 646.2,298.5 647.6,298.5 649.0,298.5 650.4,298.5 651.8,298.5 653.2,298.5 654.6,298.5 656.0,298.5 657.4,298.5 658.8,298.5 660.2,298.5 661.6,298.5 663.0,298.5 664.4,298.5 665.8,298.5 667.1,298.5 668.5,298.5 669.9,298.5 671.3,298.5 672.7,298.5 674.1,298.5 675.5,298.5 676.9,298.5 678.3,298.5 679.7,298.5 681.1,298.5 682.5,298.5 683.9,298.5 685.3,298.5 686.7,298.5 688.1,298.5 689.5,298.5 690.9,298.5 692.3,298.5 693.7,298.5 695.1,298.5 696.5,298.5 697.9,298.5 699.3,298.5 700.7,298.5 702.1,298.5 703.5,298.5 704.9,298.5 706.3,298.5 707.7,298.5 709.1,298.5 710.5,298.5 711.9,298.5 713.3,298.5 714.7,298.5 716.1,298.5 717.5,298.5 718.9,298.5 720.3,298.5 721.7,298.5 723.1,298.5 724.5,298.5 725.9,298.5 727.3,298.5 728.7,298.5 730.1,298.5 731.5,298.5 732.9,298.5 734.3,298.5 735.7,298.5 737.1,298.5 738.5,298.5 739.9,298.5 741.3,298.5 742.7,298.5 744.1,298.5 745.5,298.5 746.9,298.5 748.3,298.5 749.7,298.5 751.1,298.5 752.5,298.5 753.9,298.5 755.3,298.5 756.6,298.5 758.0,298.5 759.4,298.5 760.8,298.5 762.2,298.5 763.6,298.5 765.0,298.5 766.4,298.5 767.8,298.5 769.2,298.5 770.6,298.5 772.0,298.5 773.4,298.5 774.8,298.5 776.2,298.5 777.6,298.5 779.0,298.5 780.4,298.5 781.8,298.5 783.2,298.5 784.6,298.5 786.0,298.5 787.4,298.5 788.8,298.5 790.2,298.5 791.6,298.5 793.0,298.5 794.4,298.5 795.8,298.5 797.2,298.5 798.6,298.5 799.3,298.5 L799.3,298.5 L442.0,298.5 Z" fill="url(#g749)" clip-path="url(#c751)"/>
  <path d="M442.0,376.0 442.0,376.0 443.4,331.3 444.8,305.1 446.2,299.3 447.6,297.9 449.0,300.1 450.4,298.3 451.8,299.0 453.2,299.4 454.6,299.1 456.0,298.4 457.4,298.6 458.8,298.5 460.2,298.2 461.6,298.5 463.0,298.4 464.4,298.3 465.8,298.4 467.2,298.6 468.6,298.5 470.0,298.7 471.4,298.7 472.8,298.5 474.2,298.4 475.6,298.4 477.0,298.5 478.4,298.5 479.8,298.6 481.2,298.5 482.6,298.4 484.0,298.5 485.4,298.5 486.8,298.5 488.1,298.5 489.5,298.5 490.9,298.5 492.3,298.4 493.7,298.5 495.1,298.5 496.5,298.4 497.9,298.5 499.3,298.5 500.7,298.5 502.1,298.5 503.5,298.5 504.9,298.5 506.3,298.5 507.7,298.5 509.1,298.5 510.5,298.5 511.9,298.5 513.3,298.5 514.7,298.5 516.1,298.5 517.5,298.5 518.9,298.5 520.3,298.5 521.7,298.5 523.1,298.5 524.5,298.5 525.9,298.5 527.3,298.5 528.7,298.5 530.1,298.5 531.5,298.5 532.9,298.5 534.3,298.5 535.7,298.5 537.1,298.5 538.5,298.5 539.9,298.5 541.3,298.5 542.7,298.5 544.1,298.5 545.5,298.5 546.9,298.5 548.3,298.5 549.7,298.5 551.1,298.5 552.5,298.5 553.9,298.5 555.3,298.5 556.7,298.5 558.1,298.5 559.5,298.5 560.9,298.5 562.3,298.5 563.7,298.5 565.1,298.5 566.5,298.5 567.9,298.5 569.3,298.5 570.7,298.5 572.1,298.5 573.5,298.5 574.9,298.5 576.3,298.5 577.6,298.5 579.0,298.5 580.4,298.5 581.8,298.5 583.2,298.5 584.6,298.5 586.0,298.5 587.4,298.5 588.8,298.5 590.2,298.5 591.6,298.5 593.0,298.5 594.4,298.5 595.8,298.5 597.2,298.5 598.6,298.5 600.0,298.5 601.4,298.5 602.8,298.5 604.2,298.5 605.6,298.5 607.0,298.5 608.4,298.5 609.8,298.5 611.2,298.5 612.6,298.5 614.0,298.5 615.4,298.5 616.8,298.5 618.2,298.5 619.6,298.5 621.0,298.5 622.4,298.5 623.8,298.5 625.2,298.5 626.6,298.5 628.0,298.5 629.4,298.5 630.8,298.5 632.2,298.5 633.6,298.5 635.0,298.5 636.4,298.5 637.8,298.5 639.2,298.5 640.6,298.5 642.0,298.5 643.4,298.5 644.8,298.5 646.2,298.5 647.6,298.5 649.0,298.5 650.4,298.5 651.8,298.5 653.2,298.5 654.6,298.5 656.0,298.5 657.4,298.5 658.8,298.5 660.2,298.5 661.6,298.5 663.0,298.5 664.4,298.5 665.8,298.5 667.1,298.5 668.5,298.5 669.9,298.5 671.3,298.5 672.7,298.5 674.1,298.5 675.5,298.5 676.9,298.5 678.3,298.5 679.7,298.5 681.1,298.5 682.5,298.5 683.9,298.5 685.3,298.5 686.7,298.5 688.1,298.5 689.5,298.5 690.9,298.5 692.3,298.5 693.7,298.5 695.1,298.5 696.5,298.5 697.9,298.5 699.3,298.5 700.7,298.5 702.1,298.5 703.5,298.5 704.9,298.5 706.3,298.5 707.7,298.5 709.1,298.5 710.5,298.5 711.9,298.5 713.3,298.5 714.7,298.5 716.1,298.5 717.5,298.5 718.9,298.5 720.3,298.5 721.7,298.5 723.1,298.5 724.5,298.5 725.9,298.5 727.3,298.5 728.7,298.5 730.1,298.5 731.5,298.5 732.9,298.5 734.3,298.5 735.7,298.5 737.1,298.5 738.5,298.5 739.9,298.5 741.3,298.5 742.7,298.5 744.1,298.5 745.5,298.5 746.9,298.5 748.3,298.5 749.7,298.5 751.1,298.5 752.5,298.5 753.9,298.5 755.3,298.5 756.6,298.5 758.0,298.5 759.4,298.5 760.8,298.5 762.2,298.5 763.6,298.5 765.0,298.5 766.4,298.5 767.8,298.5 769.2,298.5 770.6,298.5 772.0,298.5 773.4,298.5 774.8,298.5 776.2,298.5 777.6,298.5 779.0,298.5 780.4,298.5 781.8,298.5 783.2,298.5 784.6,298.5 786.0,298.5 787.4,298.5 788.8,298.5 790.2,298.5 791.6,298.5 793.0,298.5 794.4,298.5 795.8,298.5 797.2,298.5 798.6,298.5 799.3,298.5 L799.3,298.5 L442.0,298.5 Z" fill="url(#g750)" clip-path="url(#c752)"/>
  <defs><clipPath id="pc753"><rect x="442" y="221" width="358" height="155"/></clipPath></defs>
  <polyline points="442.0,376.0 443.4,331.3 444.8,305.1 446.2,299.3 447.6,297.9 449.0,300.1 450.4,298.3 451.8,299.0 453.2,299.4 454.6,299.1 456.0,298.4 457.4,298.6 458.8,298.5 460.2,298.2 461.6,298.5 463.0,298.4 464.4,298.3 465.8,298.4 467.2,298.6 468.6,298.5 470.0,298.7 471.4,298.7 472.8,298.5 474.2,298.4 475.6,298.4 477.0,298.5 478.4,298.5 479.8,298.6 481.2,298.5 482.6,298.4 484.0,298.5 485.4,298.5 486.8,298.5 488.1,298.5 489.5,298.5 490.9,298.5 492.3,298.4 493.7,298.5 495.1,298.5 496.5,298.4 497.9,298.5 499.3,298.5 500.7,298.5 502.1,298.5 503.5,298.5 504.9,298.5 506.3,298.5 507.7,298.5 509.1,298.5 510.5,298.5 511.9,298.5 513.3,298.5 514.7,298.5 516.1,298.5 517.5,298.5 518.9,298.5 520.3,298.5 521.7,298.5 523.1,298.5 524.5,298.5 525.9,298.5 527.3,298.5 528.7,298.5 530.1,298.5 531.5,298.5 532.9,298.5 534.3,298.5 535.7,298.5 537.1,298.5 538.5,298.5 539.9,298.5 541.3,298.5 542.7,298.5 544.1,298.5 545.5,298.5 546.9,298.5 548.3,298.5 549.7,298.5 551.1,298.5 552.5,298.5 553.9,298.5 555.3,298.5 556.7,298.5 558.1,298.5 559.5,298.5 560.9,298.5 562.3,298.5 563.7,298.5 565.1,298.5 566.5,298.5 567.9,298.5 569.3,298.5 570.7,298.5 572.1,298.5 573.5,298.5 574.9,298.5 576.3,298.5 577.6,298.5 579.0,298.5 580.4,298.5 581.8,298.5 583.2,298.5 584.6,298.5 586.0,298.5 587.4,298.5 588.8,298.5 590.2,298.5 591.6,298.5 593.0,298.5 594.4,298.5 595.8,298.5 597.2,298.5 598.6,298.5 600.0,298.5 601.4,298.5 602.8,298.5 604.2,298.5 605.6,298.5 607.0,298.5 608.4,298.5 609.8,298.5 611.2,298.5 612.6,298.5 614.0,298.5 615.4,298.5 616.8,298.5 618.2,298.5 619.6,298.5 621.0,298.5 622.4,298.5 623.8,298.5 625.2,298.5 626.6,298.5 628.0,298.5 629.4,298.5 630.8,298.5 632.2,298.5 633.6,298.5 635.0,298.5 636.4,298.5 637.8,298.5 639.2,298.5 640.6,298.5 642.0,298.5 643.4,298.5 644.8,298.5 646.2,298.5 647.6,298.5 649.0,298.5 650.4,298.5 651.8,298.5 653.2,298.5 654.6,298.5 656.0,298.5 657.4,298.5 658.8,298.5 660.2,298.5 661.6,298.5 663.0,298.5 664.4,298.5 665.8,298.5 667.1,298.5 668.5,298.5 669.9,298.5 671.3,298.5 672.7,298.5 674.1,298.5 675.5,298.5 676.9,298.5 678.3,298.5 679.7,298.5 681.1,298.5 682.5,298.5 683.9,298.5 685.3,298.5 686.7,298.5 688.1,298.5 689.5,298.5 690.9,298.5 692.3,298.5 693.7,298.5 695.1,298.5 696.5,298.5 697.9,298.5 699.3,298.5 700.7,298.5 702.1,298.5 703.5,298.5 704.9,298.5 706.3,298.5 707.7,298.5 709.1,298.5 710.5,298.5 711.9,298.5 713.3,298.5 714.7,298.5 716.1,298.5 717.5,298.5 718.9,298.5 720.3,298.5 721.7,298.5 723.1,298.5 724.5,298.5 725.9,298.5 727.3,298.5 728.7,298.5 730.1,298.5 731.5,298.5 732.9,298.5 734.3,298.5 735.7,298.5 737.1,298.5 738.5,298.5 739.9,298.5 741.3,298.5 742.7,298.5 744.1,298.5 745.5,298.5 746.9,298.5 748.3,298.5 749.7,298.5 751.1,298.5 752.5,298.5 753.9,298.5 755.3,298.5 756.6,298.5 758.0,298.5 759.4,298.5 760.8,298.5 762.2,298.5 763.6,298.5 765.0,298.5 766.4,298.5 767.8,298.5 769.2,298.5 770.6,298.5 772.0,298.5 773.4,298.5 774.8,298.5 776.2,298.5 777.6,298.5 779.0,298.5 780.4,298.5 781.8,298.5 783.2,298.5 784.6,298.5 786.0,298.5 787.4,298.5 788.8,298.5 790.2,298.5 791.6,298.5 793.0,298.5 794.4,298.5 795.8,298.5 797.2,298.5 798.6,298.5 799.3,298.5" fill="none" stroke="#f39c12" stroke-width="1.3" stroke-linejoin="round" clip-path="url(#pc753)"/>
</svg>
