<svg xmlns="http://www.w3.org/2000/svg" viewBox="0 0 820 392" style="font-family:system-ui,-apple-system,sans-serif">
  <text x="800" y="11" text-anchor="end" font-size="11" font-weight="600" fill="#6b7280">RLS convergence, λ=0.99</text>
  <line x1="34" y1="16" x2="34" y2="171" stroke="#d1d5db"/>
  <line x1="34" y1="47.0" x2="392" y2="47.0" stroke="#d1d5db"/>
  <text x="213" y="197" text-anchor="middle" font-size="9" fill="#6b7280">Hz</text>
  <text x="12" y="93.5" text-anchor="middle" font-size="9" fill="#6b7280" transform="rotate(-90 12 93.5)">dB</text>
  <line x1="66.6" y1="16" x2="66.6" y2="171" stroke="#e5e7eb" stroke-width="0.5"/>
  <line x1="85.7" y1="16" x2="85.7" y2="171" stroke="#e5e7eb" stroke-width="0.5"/>
  <line x1="99.3" y1="16" x2="99.3" y2="171" stroke="#e5e7eb" stroke-width="0.5"/>
  <line x1="109.8" y1="16" x2="109.8" y2="171" stroke="#e5e7eb" stroke-width="0.5"/>
  <line x1="118.4" y1="16" x2="118.4" y2="171" stroke="#e5e7eb" stroke-width="0.5"/>
  <line x1="125.7" y1="16" x2="125.7" y2="171" stroke="#e5e7eb" stroke-width="0.5"/>
  <line x1="131.9" y1="16" x2="131.9" y2="171" stroke="#e5e7eb" stroke-width="0.5"/>
  <line x1="137.5" y1="16" x2="137.5" y2="171" stroke="#e5e7eb" stroke-width="0.5"/>
  <line x1="175.1" y1="16" x2="175.1" y2="171" stroke="#e5e7eb" stroke-width="0.5"/>
  <line x1="194.2" y1="16" x2="194.2" y2="171" stroke="#e5e7eb" stroke-width="0.5"/>
  <line x1="207.7" y1="16" x2="207.7" y2="171" stroke="#e5e7eb" stroke-width="0.5"/>
  <line x1="218.3" y1="16" x2="218.3" y2="171" stroke="#e5e7eb" stroke-width="0.5"/>
  <line x1="226.8" y1="16" x2="226.8" y2="171" stroke="#e5e7eb" stroke-width="0.5"/>
  <line x1="234.1" y1="16" x2="234.1" y2="171" stroke="#e5e7eb" stroke-width="0.5"/>
  <line x1="240.4" y1="16" x2="240.4" y2="171" stroke="#e5e7eb" stroke-width="0.5"/>
  <line x1="245.9" y1="16" x2="245.9" y2="171" stroke="#e5e7eb" stroke-width="0.5"/>
  <line x1="283.5" y1="16" x2="283.5" y2="171" stroke="#e5e7eb" stroke-width="0.5"/>
  <line x1="302.6" y1="16" x2="302.6" y2="171" stroke="#e5e7eb" stroke-width="0.5"/>
  <line x1="316.2" y1="16" x2="316.2" y2="171" stroke="#e5e7eb" stroke-width="0.5"/>
  <line x1="326.7" y1="16" x2="326.7" y2="171" stroke="#e5e7eb" stroke-width="0.5"/>
  <line x1="335.3" y1="16" x2="335.3" y2="171" stroke="#e5e7eb" stroke-width="0.5"/>
  <line x1="342.6" y1="16" x2="342.6" y2="171" stroke="#e5e7eb" stroke-width="0.5"/>
  <line x1="348.8" y1="16" x2="348.8" y2="171" stroke="#e5e7eb" stroke-width="0.5"/>
  <line x1="354.4" y1="16" x2="354.4" y2="171" stroke="#e5e7eb" stroke-width="0.5"/>
  <line x1="392.0" y1="16" x2="392.0" y2="171" stroke="#e5e7eb" stroke-width="0.5"/>
  <line x1="142.5" y1="16" x2="142.5" y2="171" stroke="#e5e7eb" stroke-width="0.5"/>
  <text x="142.5" y="183" text-anchor="middle" font-size="8" fill="#6b7280">100</text>
  <line x1="250.9" y1="16" x2="250.9" y2="171" stroke="#e5e7eb" stroke-width="0.5"/>
  <text x="250.9" y="183" text-anchor="middle" font-size="8" fill="#6b7280">1k</text>
  <line x1="359.4" y1="16" x2="359.4" y2="171" stroke="#e5e7eb" stroke-width="0.5"/>
  <text x="359.4" y="183" text-anchor="middle" font-size="8" fill="#6b7280">10k</text>
  <line x1="34" y1="31.5" x2="392" y2="31.5" stroke="#e5e7eb" stroke-width="0.5"/>
  <line x1="34" y1="62.5" x2="392" y2="62.5" stroke="#e5e7eb" stroke-width="0.5"/>
  <line x1="34" y1="16.0" x2="392" y2="16.0" stroke="#e5e7eb" stroke-width="0.5"/>
  <text x="30" y="19.0" text-anchor="end" font-size="8" fill="#6b7280">+20</text>
  <text x="30" y="50.0" text-anchor="end" font-size="8" fill="#6b7280">0</text>
  <line x1="34" y1="78.0" x2="392" y2="78.0" stroke="#e5e7eb" stroke-width="0.5"/>
  <text x="30" y="81.0" text-anchor="end" font-size="8" fill="#6b7280">-20</text>
  <line x1="34" y1="109.0" x2="392" y2="109.0" stroke="#e5e7eb" stroke-width="0.5"/>
  <text x="30" y="112.0" text-anchor="end" font-size="8" fill="#6b7280">-40</text>
  <line x1="34" y1="140.0" x2="392" y2="140.0" stroke="#e5e7eb" stroke-width="0.5"/>
  <text x="30" y="143.0" text-anchor="end" font-size="8" fill="#6b7280">-60</text>
  <line x1="34" y1="171.0" x2="392" y2="171.0" stroke="#e5e7eb" stroke-width="0.5"/>
  <text x="30" y="174.0" text-anchor="end" font-size="8" fill="#6b7280">-80</text>
  <defs><linearGradient id="g813" x1="0" y1="16" x2="0" y2="171" gradientUnits="userSpaceOnUse">
    <stop offset="0%" stop-color="#4a90d9" stop-opacity="0.15"/>
    <stop offset="100%" stop-color="#4a90d9" stop-opacity="0.02"/>
  </linearGradient></defs>
  <path d="M37.5,64.2 37.5,64.2 70.1,64.2 89.2,64.2 102.8,64.2 113.3,64.2 121.9,64.2 129.1,64.2 135.4,64.3 141.0,64.3 145.9,64.3 150.4,64.3 154.5,64.3 158.3,64.3 161.8,64.3 165.0,64.3 168.1,64.3 170.9,64.3 173.6,64.3 176.2,64.3 178.6,64.3 180.9,64.3 183.1,64.3 185.2,64.3 187.2,64.3 189.1,64.3 190.9,64.3 192.7,64.3 194.4,64.3 196.1,64.2 197.7,64.2 199.2,64.2 200.7,64.2 202.2,64.2 203.6,64.2 204.9,64.2 206.3,64.2 207.6,64.2 208.8,64.2 210.0,64.2 211.2,64.2 212.4,64.2 213.5,64.2 214.6,64.2 215.7,64.1 216.8,64.1 217.8,64.1 218.8,64.1 219.8,64.1 220.8,64.1 221.7,64.1 222.7,64.1 223.6,64.1 224.5,64.1 225.4,64.1 226.2,64.1 227.1,64.0 227.9,64.0 228.7,64.0 229.5,64.0 231.1,64.0 232.6,64.0 234.1,64.0 235.5,64.0 236.9,63.9 238.2,63.9 239.6,63.9 240.8,63.9 242.1,63.9 243.3,63.9 244.5,63.8 245.6,63.8 246.7,63.8 247.8,63.8 248.9,63.7 249.9,63.7 251.0,63.7 252.0,63.7 252.9,63.7 253.9,63.6 254.8,63.6 255.8,63.6 256.7,63.6 257.6,63.5 258.4,63.5 259.3,63.5 260.1,63.4 261.0,63.4 261.8,63.4 263.0,63.3 264.1,63.3 265.3,63.2 266.4,63.2 267.5,63.1 268.5,63.1 269.6,63.0 270.6,63.0 271.6,63.0 272.5,62.9 273.5,62.9 274.4,62.9 275.3,62.8 276.2,62.8 277.1,62.7 278.0,62.7 278.8,62.6 279.6,62.6 280.5,62.6 281.3,62.5 282.3,62.4 283.4,62.4 284.4,62.3 285.3,62.2 286.3,62.2 287.3,62.1 288.2,62.1 289.1,62.0 290.0,62.0 290.9,61.9 291.7,61.9 292.6,61.8 293.4,61.8 294.2,61.8 295.0,61.7 296.0,61.7 297.0,61.7 297.9,61.6 298.8,61.6 299.7,61.5 300.6,61.5 301.5,61.4 302.4,61.4 303.2,61.4 304.0,61.4 304.9,61.3 305.8,61.3 306.7,61.2 307.7,61.2 308.6,61.1 309.5,61.1 310.3,61.1 311.2,61.1 312.0,61.1 312.8,61.2 313.7,61.2 314.6,61.2 315.5,61.2 316.4,61.2 317.3,61.2 318.1,61.2 319.0,61.2 319.8,61.1 320.6,61.2 321.4,61.2 322.3,61.2 323.2,61.2 324.1,61.2 324.9,61.2 325.7,61.2 326.6,61.2 327.4,61.2 328.3,61.1 329.1,61.0 330.0,61.0 330.8,61.0 331.7,60.9 332.5,60.9 333.3,60.9 334.2,60.9 335.0,60.9 335.9,60.8 336.7,60.7 337.5,60.7 338.4,60.6 339.2,60.6 340.1,60.5 340.9,60.5 341.7,60.4 342.5,60.3 343.4,60.3 344.2,60.2 345.1,60.2 345.9,60.2 346.7,60.2 347.6,60.3 348.4,60.4 349.2,60.5 350.0,60.6 350.9,60.7 351.7,60.9 352.6,61.1 353.4,61.3 354.2,61.6 355.1,61.9 355.9,62.1 356.7,62.2 357.6,62.4 358.4,62.6 359.2,62.6 360.0,62.5 360.9,62.4 361.7,62.2 362.5,61.9 363.3,61.6 364.2,61.2 365.0,60.7 365.8,60.2 366.6,59.7 367.4,59.2 368.3,58.7 369.1,58.2 369.9,57.7 370.7,57.2 371.5,56.7 372.4,56.3 373.2,56.0 374.0,55.7 374.8,55.3 375.6,55.0 376.4,54.6 377.2,54.3 378.1,53.9 378.9,53.4 379.7,52.9 380.5,52.3 381.3,51.7 382.1,50.8 383.0,50.1 383.8,49.4 384.6,48.7 385.4,48.1 386.2,47.4 387.0,47.0 387.9,46.6 388.7,46.4 389.5,46.3 390.3,46.2 391.1,46.2 391.9,46.3 L391.9,171.0 L37.5,171.0 Z" fill="url(#g813)"/>
  <defs><clipPath id="pc814"><rect x="34" y="16" width="358" height="155"/></clipPath></defs>
  <polyline points="37.5,64.2 70.1,64.2 89.2,64.2 102.8,64.2 113.3,64.2 121.9,64.2 129.1,64.2 135.4,64.3 141.0,64.3 145.9,64.3 150.4,64.3 154.5,64.3 158.3,64.3 161.8,64.3 165.0,64.3 168.1,64.3 170.9,64.3 173.6,64.3 176.2,64.3 178.6,64.3 180.9,64.3 183.1,64.3 185.2,64.3 187.2,64.3 189.1,64.3 190.9,64.3 192.7,64.3 194.4,64.3 196.1,64.2 197.7,64.2 199.2,64.2 200.7,64.2 202.2,64.2 203.6,64.2 204.9,64.2 206.3,64.2 207.6,64.2 208.8,64.2 210.0,64.2 211.2,64.2 212.4,64.2 213.5,64.2 214.6,64.2 215.7,64.1 216.8,64.1 217.8,64.1 218.8,64.1 219.8,64.1 220.8,64.1 221.7,64.1 222.7,64.1 223.6,64.1 224.5,64.1 225.4,64.1 226.2,64.1 227.1,64.0 227.9,64.0 228.7,64.0 229.5,64.0 231.1,64.0 232.6,64.0 234.1,64.0 235.5,64.0 236.9,63.9 238.2,63.9 239.6,63.9 240.8,63.9 242.1,63.9 243.3,63.9 244.5,63.8 245.6,63.8 246.7,63.8 247.8,63.8 248.9,63.7 249.9,63.7 251.0,63.7 252.0,63.7 252.9,63.7 253.9,63.6 254.8,63.6 255.8,63.6 256.7,63.6 257.6,63.5 258.4,63.5 259.3,63.5 260.1,63.4 261.0,63.4 261.8,63.4 263.0,63.3 264.1,63.3 265.3,63.2 266.4,63.2 267.5,63.1 268.5,63.1 269.6,63.0 270.6,63.0 271.6,63.0 272.5,62.9 273.5,62.9 274.4,62.9 275.3,62.8 276.2,62.8 277.1,62.7 278.0,62.7 278.8,62.6 279.6,62.6 280.5,62.6 281.3,62.5 282.3,62.4 283.4,62.4 284.4,62.3 285.3,62.2 286.3,62.2 287.3,62.1 288.2,62.1 289.1,62.0 290.0,62.0 290.9,61.9 291.7,61.9 292.6,61.8 293.4,61.8 294.2,61.8 295.0,61.7 296.0,61.7 297.0,61.7 297.9,61.6 298.8,61.6 299.7,61.5 300.6,61.5 301.5,61.4 302.4,61.4 303.2,61.4 304.0,61.4 304.9,61.3 305.8,61.3 306.7,61.2 307.7,61.2 308.6,61.1 309.5,61.1 310.3,61.1 311.2,61.1 312.0,61.1 312.8,61.2 313.7,61.2 314.6,61.2 315.5,61.2 316.4,61.2 317.3,61.2 318.1,61.2 319.0,61.2 319.8,61.1 320.6,61.2 321.4,61.2 322.3,61.2 323.2,61.2 324.1,61.2 324.9,61.2 325.7,61.2 326.6,61.2 327.4,61.2 328.3,61.1 329.1,61.0 330.0,61.0 330.8,61.0 331.7,60.9 332.5,60.9 333.3,60.9 334.2,60.9 335.0,60.9 335.9,60.8 336.7,60.7 337.5,60.7 338.4,60.6 339.2,60.6 340.1,60.5 340.9,60.5 341.7,60.4 342.5,60.3 343.4,60.3 344.2,60.2 345.1,60.2 345.9,60.2 346.7,60.2 347.6,60.3 348.4,60.4 349.2,60.5 350.0,60.6 350.9,60.7 351.7,60.9 352.6,61.1 353.4,61.3 354.2,61.6 355.1,61.9 355.9,62.1 356.7,62.2 357.6,62.4 358.4,62.6 359.2,62.6 360.0,62.5 360.9,62.4 361.7,62.2 362.5,61.9 363.3,61.6 364.2,61.2 365.0,60.7 365.8,60.2 366.6,59.7 367.4,59.2 368.3,58.7 369.1,58.2 369.9,57.7 370.7,57.2 371.5,56.7 372.4,56.3 373.2,56.0 374.0,55.7 374.8,55.3 375.6,55.0 376.4,54.6 377.2,54.3 378.1,53.9 378.9,53.4 379.7,52.9 380.5,52.3 381.3,51.7 382.1,50.8 383.0,50.1 383.8,49.4 384.6,48.7 385.4,48.1 386.2,47.4 387.0,47.0 387.9,46.6 388.7,46.4 389.5,46.3 390.3,46.2 391.1,46.2 391.9,46.3" fill="none" stroke="#4a90d9" stroke-width="1.5" stroke-linejoin="round" clip-path="url(#pc814)"/>
  <line x1="442" y1="16" x2="442" y2="171" stroke="#d1d5db"/>
  <line x1="442" y1="93.5" x2="800" y2="93.5" stroke="#d1d5db"/>
  <text x="621" y="197" text-anchor="middle" font-size="9" fill="#6b7280">Hz</text>
  <text x="420" y="93.5" text-anchor="middle" font-size="9" fill="#6b7280" transform="rotate(-90 420 93.5)">Phase (deg)</text>
  <line x1="474.6" y1="16" x2="474.6" y2="171" stroke="#e5e7eb" stroke-width="0.5"/>
  <line x1="493.7" y1="16" x2="493.7" y2="171" stroke="#e5e7eb" stroke-width="0.5"/>
  <line x1="507.3" y1="16" x2="507.3" y2="171" stroke="#e5e7eb" stroke-width="0.5"/>
  <line x1="517.8" y1="16" x2="517.8" y2="171" stroke="#e5e7eb" stroke-width="0.5"/>
  <line x1="526.4" y1="16" x2="526.4" y2="171" stroke="#e5e7eb" stroke-width="0.5"/>
  <line x1="533.7" y1="16" x2="533.7" y2="171" stroke="#e5e7eb" stroke-width="0.5"/>
  <line x1="539.9" y1="16" x2="539.9" y2="171" stroke="#e5e7eb" stroke-width="0.5"/>
  <line x1="545.5" y1="16" x2="545.5" y2="171" stroke="#e5e7eb" stroke-width="0.5"/>
  <line x1="583.1" y1="16" x2="583.1" y2="171" stroke="#e5e7eb" stroke-width="0.5"/>
  <line x1="602.2" y1="16" x2="602.2" y2="171" stroke="#e5e7eb" stroke-width="0.5"/>
  <line x1="615.7" y1="16" x2="615.7" y2="171" stroke="#e5e7eb" stroke-width="0.5"/>
  <line x1="626.3" y1="16" x2="626.3" y2="171" stroke="#e5e7eb" stroke-width="0.5"/>
  <line x1="634.8" y1="16" x2="634.8" y2="171" stroke="#e5e7eb" stroke-width="0.5"/>
  <line x1="642.1" y1="16" x2="642.1" y2="171" stroke="#e5e7eb" stroke-width="0.5"/>
  <line x1="648.4" y1="16" x2="648.4" y2="171" stroke="#e5e7eb" stroke-width="0.5"/>
  <line x1="653.9" y1="16" x2="653.9" y2="171" stroke="#e5e7eb" stroke-width="0.5"/>
  <line x1="691.5" y1="16" x2="691.5" y2="171" stroke="#e5e7eb" stroke-width="0.5"/>
  <line x1="710.6" y1="16" x2="710.6" y2="171" stroke="#e5e7eb" stroke-width="0.5"/>
  <line x1="724.2" y1="16" x2="724.2" y2="171" stroke="#e5e7eb" stroke-width="0.5"/>
  <line x1="734.7" y1="16" x2="734.7" y2="171" stroke="#e5e7eb" stroke-width="0.5"/>
  <line x1="743.3" y1="16" x2="743.3" y2="171" stroke="#e5e7eb" stroke-width="0.5"/>
  <line x1="750.6" y1="16" x2="750.6" y2="171" stroke="#e5e7eb" stroke-width="0.5"/>
  <line x1="756.8" y1="16" x2="756.8" y2="171" stroke="#e5e7eb" stroke-width="0.5"/>
  <line x1="762.4" y1="16" x2="762.4" y2="171" stroke="#e5e7eb" stroke-width="0.5"/>
  <line x1="800.0" y1="16" x2="800.0" y2="171" stroke="#e5e7eb" stroke-width="0.5"/>
  <line x1="550.5" y1="16" x2="550.5" y2="171" stroke="#e5e7eb" stroke-width="0.5"/>
  <text x="550.5" y="183" text-anchor="middle" font-size="8" fill="#6b7280">100</text>
  <line x1="658.9" y1="16" x2="658.9" y2="171" stroke="#e5e7eb" stroke-width="0.5"/>
  <text x="658.9" y="183" text-anchor="middle" font-size="8" fill="#6b7280">1k</text>
  <line x1="767.4" y1="16" x2="767.4" y2="171" stroke="#e5e7eb" stroke-width="0.5"/>
  <text x="767.4" y="183" text-anchor="middle" font-size="8" fill="#6b7280">10k</text>
  <line x1="442" y1="54.8" x2="800" y2="54.8" stroke="#e5e7eb" stroke-width="0.5"/>
  <line x1="442" y1="132.3" x2="800" y2="132.3" stroke="#e5e7eb" stroke-width="0.5"/>
  <line x1="442" y1="16.0" x2="800" y2="16.0" stroke="#e5e7eb" stroke-width="0.5"/>
  <text x="438" y="19.0" text-anchor="end" font-size="8" fill="#6b7280">180</text>
  <text x="438" y="96.5" text-anchor="end" font-size="8" fill="#6b7280">0</text>
  <line x1="442" y1="171.0" x2="800" y2="171.0" stroke="#e5e7eb" stroke-width="0.5"/>
  <text x="438" y="174.0" text-anchor="end" font-size="8" fill="#6b7280">-180</text>
  <defs><linearGradient id="g815" x1="0" y1="171" x2="0" y2="93.5" gradientUnits="userSpaceOnUse">
    <stop offset="0%" stop-color="#e74c3c" stop-opacity="0.15"/>
    <stop offset="100%" stop-color="#e74c3c" stop-opacity="0.02"/>
  </linearGradient></defs>
  <path d="M445.5,171.0 445.5,171.0 478.1,170.9 497.2,170.9 510.8,170.9 521.3,170.8 529.9,170.8 537.1,170.8 543.4,170.8 549.0,170.7 553.9,170.7 558.4,170.6 562.5,170.6 566.3,170.5 569.8,170.5 573.0,170.5 576.1,170.4 578.9,170.4 581.6,170.3 584.2,170.3 586.6,170.2 588.9,170.2 591.1,170.2 593.2,170.1 595.2,170.1 597.1,170.0 598.9,170.0 600.7,169.9 602.4,169.9 604.1,169.9 605.7,169.8 607.2,169.8 608.7,169.7 610.2,169.7 611.6,169.6 612.9,169.6 614.3,169.5 615.6,169.5 616.8,169.4 618.0,169.4 619.2,169.4 620.4,169.3 621.5,169.3 622.6,169.2 623.7,169.2 624.8,169.2 625.8,169.1 626.8,169.1 627.8,169.1 628.8,169.0 629.7,169.0 630.7,169.0 631.6,168.9 632.5,168.9 633.4,168.9 634.2,168.8 635.1,168.8 635.9,168.8 636.7,168.7 637.5,168.7 639.1,168.6 640.6,168.6 642.1,168.5 643.5,168.4 644.9,168.4 646.2,168.3 647.6,168.2 648.8,168.1 650.1,168.1 651.3,168.0 652.5,167.9 653.6,167.9 654.7,167.8 655.8,167.7 656.9,167.7 657.9,167.6 659.0,167.6 660.0,167.5 660.9,167.4 661.9,167.4 662.8,167.3 663.8,167.2 664.7,167.2 665.6,167.1 666.4,167.0 667.3,167.0 668.1,166.9 669.0,166.9 669.8,166.8 671.0,166.8 672.1,166.7 673.3,166.6 674.4,166.6 675.5,166.5 676.5,166.5 677.6,166.5 678.6,166.4 679.6,166.4 680.5,166.3 681.5,166.3 682.4,166.2 683.3,166.1 684.2,166.1 685.1,166.0 686.0,166.0 686.8,165.9 687.6,165.9 688.5,165.8 689.3,165.8 690.3,165.8 691.4,165.7 692.4,165.7 693.3,165.7 694.3,165.7 695.3,165.7 696.2,165.7 697.1,165.7 698.0,165.7 698.9,165.7 699.7,165.7 700.6,165.7 701.4,165.7 702.2,165.7 703.0,165.7 704.0,165.7 705.0,165.7 705.9,165.7 706.8,165.7 707.7,165.7 708.6,165.7 709.5,165.7 710.4,165.8 711.2,165.8 712.0,165.8 712.9,165.8 713.8,165.8 714.7,165.8 715.7,165.8 716.6,165.9 717.5,166.0 718.3,166.0 719.2,166.1 720.0,166.1 720.8,166.2 721.7,166.2 722.6,166.1 723.5,166.1 724.4,166.0 725.3,165.9 726.1,165.9 727.0,165.9 727.8,165.9 728.6,165.9 729.4,165.8 730.3,165.8 731.2,165.7 732.1,165.6 732.9,165.5 733.7,165.4 734.6,165.3 735.4,165.2 736.3,165.1 737.1,165.0 738.0,165.0 738.8,165.0 739.7,164.9 740.5,164.8 741.3,164.8 742.2,164.7 743.0,164.6 743.9,164.4 744.7,164.4 745.5,164.3 746.4,164.3 747.2,164.3 748.1,164.2 748.9,164.2 749.7,164.2 750.5,164.2 751.4,164.2 752.2,164.3 753.1,164.4 753.9,164.5 754.7,164.7 755.6,164.8 756.4,164.9 757.2,165.0 758.0,165.0 758.9,165.1 759.7,165.0 760.6,164.9 761.4,164.7 762.2,164.4 763.1,164.0 763.9,163.5 764.7,162.9 765.6,162.2 766.4,161.3 767.2,160.4 768.0,159.4 768.9,158.4 769.7,157.5 770.5,156.6 771.3,155.7 772.2,154.9 773.0,154.2 773.8,153.8 774.6,153.4 775.4,152.9 776.3,152.7 777.1,152.5 777.9,152.4 778.7,152.4 779.5,152.6 780.4,152.8 781.2,152.8 782.0,152.9 782.8,152.9 783.6,153.0 784.4,153.0 785.2,152.9 786.1,152.7 786.9,152.6 787.7,152.5 788.5,152.4 789.3,152.5 790.1,152.7 791.0,153.3 791.8,154.0 792.6,155.0 793.4,155.9 794.2,157.2 795.0,158.7 795.9,160.1 796.7,161.7 797.5,163.0 798.3,164.5 799.1,166.0 799.9,167.5 L799.9,93.5 L445.5,93.5 Z" fill="url(#g815)"/>
  <defs><clipPath id="pc816"><rect x="442" y="16" width="358" height="155"/></clipPath></defs>
  <polyline points="445.5,171.0 478.1,170.9 497.2,170.9 510.8,170.9 521.3,170.8 529.9,170.8 537.1,170.8 543.4,170.8 549.0,170.7 553.9,170.7 558.4,170.6 562.5,170.6 566.3,170.5 569.8,170.5 573.0,170.5 576.1,170.4 578.9,170.4 581.6,170.3 584.2,170.3 586.6,170.2 588.9,170.2 591.1,170.2 593.2,170.1 595.2,170.1 597.1,170.0 598.9,170.0 600.7,169.9 602.4,169.9 604.1,169.9 605.7,169.8 607.2,169.8 608.7,169.7 610.2,169.7 611.6,169.6 612.9,169.6 614.3,169.5 615.6,169.5 616.8,169.4 618.0,169.4 619.2,169.4 620.4,169.3 621.5,169.3 622.6,169.2 623.7,169.2 624.8,169.2 625.8,169.1 626.8,169.1 627.8,169.1 628.8,169.0 629.7,169.0 630.7,169.0 631.6,168.9 632.5,168.9 633.4,168.9 634.2,168.8 635.1,168.8 635.9,168.8 636.7,168.7 637.5,168.7 639.1,168.6 640.6,168.6 642.1,168.5 643.5,168.4 644.9,168.4 646.2,168.3 647.6,168.2 648.8,168.1 650.1,168.1 651.3,168.0 652.5,167.9 653.6,167.9 654.7,167.8 655.8,167.7 656.9,167.7 657.9,167.6 659.0,167.6 660.0,167.5 660.9,167.4 661.9,167.4 662.8,167.3 663.8,167.2 664.7,167.2 665.6,167.1 666.4,167.0 667.3,167.0 668.1,166.9 669.0,166.9 669.8,166.8 671.0,166.8 672.1,166.7 673.3,166.6 674.4,166.6 675.5,166.5 676.5,166.5 677.6,166.5 678.6,166.4 679.6,166.4 680.5,166.3 681.5,166.3 682.4,166.2 683.3,166.1 684.2,166.1 685.1,166.0 686.0,166.0 686.8,165.9 687.6,165.9 688.5,165.8 689.3,165.8 690.3,165.8 691.4,165.7 692.4,165.7 693.3,165.7 694.3,165.7 695.3,165.7 696.2,165.7 697.1,165.7 698.0,165.7 698.9,165.7 699.7,165.7 700.6,165.7 701.4,165.7 702.2,165.7 703.0,165.7 704.0,165.7 705.0,165.7 705.9,165.7 706.8,165.7 707.7,165.7 708.6,165.7 709.5,165.7 710.4,165.8 711.2,165.8 712.0,165.8 712.9,165.8 713.8,165.8 714.7,165.8 715.7,165.8 716.6,165.9 717.5,166.0 718.3,166.0 719.2,166.1 720.0,166.1 720.8,166.2 721.7,166.2 722.6,166.1 723.5,166.1 724.4,166.0 725.3,165.9 726.1,165.9 727.0,165.9 727.8,165.9 728.6,165.9 729.4,165.8 730.3,165.8 731.2,165.7 732.1,165.6 732.9,165.5 733.7,165.4 734.6,165.3 735.4,165.2 736.3,165.1 737.1,165.0 738.0,165.0 738.8,165.0 739.7,164.9 740.5,164.8 741.3,164.8 742.2,164.7 743.0,164.6 743.9,164.4 744.7,164.4 745.5,164.3 746.4,164.3 747.2,164.3 748.1,164.2 748.9,164.2 749.7,164.2 750.5,164.2 751.4,164.2 752.2,164.3 753.1,164.4 753.9,164.5 754.7,164.7 755.6,164.8 756.4,164.9 757.2,165.0 758.0,165.0 758.9,165.1 759.7,165.0 760.6,164.9 761.4,164.7 762.2,164.4 763.1,164.0 763.9,163.5 764.7,162.9 765.6,162.2 766.4,161.3 767.2,160.4 768.0,159.4 768.9,158.4 769.7,157.5 770.5,156.6 771.3,155.7 772.2,154.9 773.0,154.2 773.8,153.8 774.6,153.4 775.4,152.9 776.3,152.7 777.1,152.5 777.9,152.4 778.7,152.4 779.5,152.6 780.4,152.8 781.2,152.8 782.0,152.9 782.8,152.9 783.6,153.0 784.4,153.0 785.2,152.9 786.1,152.7 786.9,152.6 787.7,152.5 788.5,152.4 789.3,152.5 790.1,152.7 791.0,153.3 791.8,154.0 792.6,155.0 793.4,155.9 794.2,157.2 795.0,158.7 795.9,160.1 796.7,161.7 797.5,163.0 798.3,164.5 799.1,166.0 799.9,167.5" fill="none" stroke="#e74c3c" stroke-width="1.5" stroke-linejoin="round" clip-path="url(#pc816)"/>
  <line x1="34" y1="221" x2="34" y2="376" stroke="#d1d5db"/>
  <line x1="34" y1="298.5" x2="392" y2="298.5" stroke="#d1d5db"/>
  <text x="213" y="402" text-anchor="middle" font-size="9" fill="#6b7280">Hz</text>
  <text x="12" y="298.5" text-anchor="middle" font-size="9" fill="#6b7280" transform="rotate(-90 12 298.5)">Group delay</text>
  <line x1="66.6" y1="221" x2="66.6" y2="376" stroke="#e5e7eb" stroke-width="0.5"/>
  <line x1="85.7" y1="221" x2="85.7" y2="376" stroke="#e5e7eb" stroke-width="0.5"/>
  <line x1="99.3" y1="221" x2="99.3" y2="376" stroke="#e5e7eb" stroke-width="0.5"/>
  <line x1="109.8" y1="221" x2="109.8" y2="376" stroke="#e5e7eb" stroke-width="0.5"/>
  <line x1="118.4" y1="221" x2="118.4" y2="376" stroke="#e5e7eb" stroke-width="0.5"/>
  <line x1="125.7" y1="221" x2="125.7" y2="376" stroke="#e5e7eb" stroke-width="0.5"/>
  <line x1="131.9" y1="221" x2="131.9" y2="376" stroke="#e5e7eb" stroke-width="0.5"/>
  <line x1="137.5" y1="221" x2="137.5" y2="376" stroke="#e5e7eb" stroke-width="0.5"/>
  <line x1="175.1" y1="221" x2="175.1" y2="376" stroke="#e5e7eb" stroke-width="0.5"/>
  <line x1="194.2" y1="221" x2="194.2" y2="376" stroke="#e5e7eb" stroke-width="0.5"/>
  <line x1="207.7" y1="221" x2="207.7" y2="376" stroke="#e5e7eb" stroke-width="0.5"/>
  <line x1="218.3" y1="221" x2="218.3" y2="376" stroke="#e5e7eb" stroke-width="0.5"/>
  <line x1="226.8" y1="221" x2="226.8" y2="376" stroke="#e5e7eb" stroke-width="0.5"/>
  <line x1="234.1" y1="221" x2="234.1" y2="376" stroke="#e5e7eb" stroke-width="0.5"/>
  <line x1="240.4" y1="221" x2="240.4" y2="376" stroke="#e5e7eb" stroke-width="0.5"/>
  <line x1="245.9" y1="221" x2="245.9" y2="376" stroke="#e5e7eb" stroke-width="0.5"/>
  <line x1="283.5" y1="221" x2="283.5" y2="376" stroke="#e5e7eb" stroke-width="0.5"/>
  <line x1="302.6" y1="221" x2="302.6" y2="376" stroke="#e5e7eb" stroke-width="0.5"/>
  <line x1="316.2" y1="221" x2="316.2" y2="376" stroke="#e5e7eb" stroke-width="0.5"/>
  <line x1="326.7" y1="221" x2="326.7" y2="376" stroke="#e5e7eb" stroke-width="0.5"/>
  <line x1="335.3" y1="221" x2="335.3" y2="376" stroke="#e5e7eb" stroke-width="0.5"/>
  <line x1="342.6" y1="221" x2="342.6" y2="376" stroke="#e5e7eb" stroke-width="0.5"/>
  <line x1="348.8" y1="221" x2="348.8" y2="376" stroke="#e5e7eb" stroke-width="0.5"/>
  <line x1="354.4" y1="221" x2="354.4" y2="376" stroke="#e5e7eb" stroke-width="0.5"/>
  <line x1="392.0" y1="221" x2="392.0" y2="376" stroke="#e5e7eb" stroke-width="0.5"/>
  <line x1="142.5" y1="221" x2="142.5" y2="376" stroke="#e5e7eb" stroke-width="0.5"/>
  <text x="142.5" y="388" text-anchor="middle" font-size="8" fill="#6b7280">100</text>
  <line x1="250.9" y1="221" x2="250.9" y2="376" stroke="#e5e7eb" stroke-width="0.5"/>
  <text x="250.9" y="388" text-anchor="middle" font-size="8" fill="#6b7280">1k</text>
  <line x1="359.4" y1="221" x2="359.4" y2="376" stroke="#e5e7eb" stroke-width="0.5"/>
  <text x="359.4" y="388" text-anchor="middle" font-size="8" fill="#6b7280">10k</text>
  <line x1="34" y1="366.7" x2="392" y2="366.7" stroke="#e5e7eb" stroke-width="0.5"/>
  <text x="30" y="369.7" text-anchor="end" font-size="8" fill="#6b7280">-2</text>
  <text x="30" y="301.5" text-anchor="end" font-size="8" fill="#6b7280">0</text>
  <line x1="34" y1="230.3" x2="392" y2="230.3" stroke="#e5e7eb" stroke-width="0.5"/>
  <text x="30" y="233.3" text-anchor="end" font-size="8" fill="#6b7280">2</text>
  <defs><linearGradient id="g817" x1="0" y1="221" x2="0" y2="298.5" gradientUnits="userSpaceOnUse">
    <stop offset="0%" stop-color="#2ecc71" stop-opacity="0.15"/>
    <stop offset="100%" stop-color="#2ecc71" stop-opacity="0.02"/>
  </linearGradient></defs>
  <defs><linearGradient id="g818" x1="0" y1="376" x2="0" y2="298.5" gradientUnits="userSpaceOnUse">
    <stop offset="0%" stop-color="#2ecc71" stop-opacity="0.15"/>
    <stop offset="100%" stop-color="#2ecc71" stop-opacity="0.02"/>
  </linearGradient></defs>
  <defs><clipPath id="c819"><rect x="34" y="221" width="358" height="77.5"/></clipPath></defs>
  <defs><clipPath id="c820"><rect x="34" y="298.5" width="358" height="77.5"/></clipPath></defs>
  <path d="M37.5,326.1 37.5,326.1 70.1,325.9 89.2,325.7 102.8,325.7 113.3,326.0 121.9,327.0 129.1,328.5 135.4,330.5 141.0,332.9 145.9,335.2 150.4,337.2 154.5,338.6 158.3,339.3 161.8,339.2 165.0,338.6 168.1,337.8 170.9,337.1 173.6,336.6 176.2,336.5 178.6,336.6 180.9,336.8 183.1,336.8 185.2,336.6 187.2,336.1 189.1,335.6 190.9,335.3 192.7,335.3 194.4,335.7 196.1,336.6 197.7,337.8 199.2,339.1 200.7,340.2 202.2,340.9 203.6,341.3 204.9,341.3 206.3,341.0 207.6,340.4 208.8,339.7 210.0,338.8 211.2,337.6 212.4,336.1 213.5,334.5 214.6,332.9 215.7,331.4 216.8,330.1 217.8,329.3 218.8,328.9 219.8,328.8 220.8,328.8 221.7,328.7 222.7,328.6 223.6,328.3 224.5,328.0 225.4,327.7 226.2,327.6 227.1,327.6 227.9,327.8 228.7,328.0 229.5,328.1 231.1,328.3 232.6,328.8 234.1,329.5 235.5,329.8 236.9,329.6 238.2,329.8 239.6,330.7 240.8,331.6 242.1,331.6 243.3,330.7 244.5,329.3 245.6,327.4 246.7,325.2 247.8,323.9 248.9,324.8 249.9,326.9 251.0,328.1 252.0,327.7 252.9,327.1 253.9,327.5 254.8,328.5 255.8,329.3 256.7,329.7 257.6,329.6 258.4,328.3 259.3,325.4 260.1,322.0 261.0,319.6 261.8,318.3 263.0,316.9 264.1,315.0 265.3,313.9 266.4,313.8 267.5,313.2 268.5,311.5 269.6,310.1 270.6,311.0 271.6,314.1 272.5,316.7 273.5,316.3 274.4,315.0 275.3,315.4 276.2,316.0 277.1,315.1 278.0,313.4 278.8,311.5 279.6,310.9 280.5,310.2 281.3,307.8 282.3,306.6 283.4,304.8 284.4,301.3 285.3,300.9 286.3,300.2 287.3,300.2 288.2,300.5 289.1,297.0 290.0,295.4 290.9,298.8 291.7,300.5 292.6,297.2 293.4,295.4 294.2,295.6 295.0,295.2 296.0,298.5 297.0,298.2 297.9,301.5 298.8,300.3 299.7,296.5 300.6,296.8 301.5,296.6 302.4,291.2 303.2,296.6 304.0,302.1 304.9,299.5 305.8,296.2 306.7,292.6 307.7,291.9 308.6,287.9 309.5,289.5 310.3,289.2 311.2,289.9 312.0,291.7 312.8,296.9 313.7,303.1 314.6,304.0 315.5,306.9 316.4,306.4 317.3,304.4 318.1,303.9 319.0,299.2 319.8,298.2 320.6,301.8 321.4,302.5 322.3,304.0 323.2,308.4 324.1,309.5 324.9,310.5 325.7,313.0 326.6,312.2 327.4,312.4 328.3,305.2 329.1,301.0 330.0,299.8 330.8,306.3 331.7,301.9 332.5,305.6 333.3,306.6 334.2,308.0 335.0,309.2 335.9,310.1 336.7,301.2 337.5,304.3 338.4,297.1 339.2,304.2 340.1,303.4 340.9,298.3 341.7,300.6 342.5,297.6 343.4,290.9 344.2,290.5 345.1,291.0 345.9,291.2 346.7,286.9 347.6,287.2 348.4,294.4 349.2,297.1 350.0,292.8 350.9,296.7 351.7,306.1 352.6,309.8 353.4,311.1 354.2,318.3 355.1,329.2 355.9,332.5 356.7,334.9 357.6,334.9 358.4,357.2 359.2,349.8 360.0,355.6 360.9,345.7 361.7,345.5 362.5,349.6 363.3,343.8 364.2,335.8 365.0,324.8 365.8,318.2 366.6,316.2 367.4,315.0 368.3,306.8 369.1,306.9 369.9,299.9 370.7,295.6 371.5,289.9 372.4,293.5 373.2,301.0 374.0,298.3 374.8,293.1 375.6,301.2 376.4,295.7 377.2,300.9 378.1,307.0 378.9,297.6 379.7,308.9 380.5,298.0 381.3,301.5 382.1,281.6 383.0,272.3 383.8,270.5 384.6,265.3 385.4,262.3 386.2,253.4 387.0,253.5 387.9,253.0 388.7,253.4 389.5,256.1 390.3,255.1 391.1,255.5 391.9,257.6 L391.9,298.5 L37.5,298.5 Z" fill="url(#g817)" clip-path="url(#c819)"/>
  <path d="M37.5,326.1 37.5,326.1 70.1,325.9 89.2,325.7 102.8,325.7 113.3,326.0 121.9,327.0 129.1,328.5 135.4,330.5 141.0,332.9 145.9,335.2 150.4,337.2 154.5,338.6 158.3,339.3 161.8,339.2 165.0,338.6 168.1,337.8 170.9,337.1 173.6,336.6 176.2,336.5 178.6,336.6 180.9,336.8 183.1,336.8 185.2,336.6 187.2,336.1 189.1,335.6 190.9,335.3 192.7,335.3 194.4,335.7 196.1,336.6 197.7,337.8 199.2,339.1 200.7,340.2 202.2,340.9 203.6,341.3 204.9,341.3 206.3,341.0 207.6,340.4 208.8,339.7 210.0,338.8 211.2,337.6 212.4,336.1 213.5,334.5 214.6,332.9 215.7,331.4 216.8,330.1 217.8,329.3 218.8,328.9 219.8,328.8 220.8,328.8 221.7,328.7 222.7,328.6 223.6,328.3 224.5,328.0 225.4,327.7 226.2,327.6 227.1,327.6 227.9,327.8 228.7,328.0 229.5,328.1 231.1,328.3 232.6,328.8 234.1,329.5 235.5,329.8 236.9,329.6 238.2,329.8 239.6,330.7 240.8,331.6 242.1,331.6 243.3,330.7 244.5,329.3 245.6,327.4 246.7,325.2 247.8,323.9 248.9,324.8 249.9,326.9 251.0,328.1 252.0,327.7 252.9,327.1 253.9,327.5 254.8,328.5 255.8,329.3 256.7,329.7 257.6,329.6 258.4,328.3 259.3,325.4 260.1,322.0 261.0,319.6 261.8,318.3 263.0,316.9 264.1,315.0 265.3,313.9 266.4,313.8 267.5,313.2 268.5,311.5 269.6,310.1 270.6,311.0 271.6,314.1 272.5,316.7 273.5,316.3 274.4,315.0 275.3,315.4 276.2,316.0 277.1,315.1 278.0,313.4 278.8,311.5 279.6,310.9 280.5,310.2 281.3,307.8 282.3,306.6 283.4,304.8 284.4,301.3 285.3,300.9 286.3,300.2 287.3,300.2 288.2,300.5 289.1,297.0 290.0,295.4 290.9,298.8 291.7,300.5 292.6,297.2 293.4,295.4 294.2,295.6 295.0,295.2 296.0,298.5 297.0,298.2 297.9,301.5 298.8,300.3 299.7,296.5 300.6,296.8 301.5,296.6 302.4,291.2 303.2,296.6 304.0,302.1 304.9,299.5 305.8,296.2 306.7,292.6 307.7,291.9 308.6,287.9 309.5,289.5 310.3,289.2 311.2,289.9 312.0,291.7 312.8,296.9 313.7,303.1 314.6,304.0 315.5,306.9 316.4,306.4 317.3,304.4 318.1,303.9 319.0,299.2 319.8,298.2 320.6,301.8 321.4,302.5 322.3,304.0 323.2,308.4 324.1,309.5 324.9,310.5 325.7,313.0 326.6,312.2 327.4,312.4 328.3,305.2 329.1,301.0 330.0,299.8 330.8,306.3 331.7,301.9 332.5,305.6 333.3,306.6 334.2,308.0 335.0,309.2 335.9,310.1 336.7,301.2 337.5,304.3 338.4,297.1 339.2,304.2 340.1,303.4 340.9,298.3 341.7,300.6 342.5,297.6 343.4,290.9 344.2,290.5 345.1,291.0 345.9,291.2 346.7,286.9 347.6,287.2 348.4,294.4 349.2,297.1 350.0,292.8 350.9,296.7 351.7,306.1 352.6,309.8 353.4,311.1 354.2,318.3 355.1,329.2 355.9,332.5 356.7,334.9 357.6,334.9 358.4,357.2 359.2,349.8 360.0,355.6 360.9,345.7 361.7,345.5 362.5,349.6 363.3,343.8 364.2,335.8 365.0,324.8 365.8,318.2 366.6,316.2 367.4,315.0 368.3,306.8 369.1,306.9 369.9,299.9 370.7,295.6 371.5,289.9 372.4,293.5 373.2,301.0 374.0,298.3 374.8,293.1 375.6,301.2 376.4,295.7 377.2,300.9 378.1,307.0 378.9,297.6 379.7,308.9 380.5,298.0 381.3,301.5 382.1,281.6 383.0,272.3 383.8,270.5 384.6,265.3 385.4,262.3 386.2,253.4 387.0,253.5 387.9,253.0 388.7,253.4 389.5,256.1 390.3,255.1 391.1,255.5 391.9,257.6 L391.9,298.5 L37.5,298.5 Z" fill="url(#g818)" clip-path="url(#c820)"/>
  <defs><clipPath id="pc821"><rect x="34" y="221" width="358" height="155"/></clipPath></defs>
  <polyline points="37.5,326.1 70.1,325.9 89.2,325.7 102.8,325.7 113.3,326.0 121.9,327.0 129.1,328.5 135.4,330.5 141.0,332.9 145.9,335.2 150.4,337.2 154.5,338.6 158.3,339.3 161.8,339.2 165.0,338.6 168.1,337.8 170.9,337.1 173.6,336.6 176.2,336.5 178.6,336.6 180.9,336.8 183.1,336.8 185.2,336.6 187.2,336.1 189.1,335.6 190.9,335.3 192.7,335.3 194.4,335.7 196.1,336.6 197.7,337.8 199.2,339.1 200.7,340.2 202.2,340.9 203.6,341.3 204.9,341.3 206.3,341.0 207.6,340.4 208.8,339.7 210.0,338.8 211.2,337.6 212.4,336.1 213.5,334.5 214.6,332.9 215.7,331.4 216.8,330.1 217.8,329.3 218.8,328.9 219.8,328.8 220.8,328.8 221.7,328.7 222.7,328.6 223.6,328.3 224.5,328.0 225.4,327.7 226.2,327.6 227.1,327.6 227.9,327.8 228.7,328.0 229.5,328.1 231.1,328.3 232.6,328.8 234.1,329.5 235.5,329.8 236.9,329.6 238.2,329.8 239.6,330.7 240.8,331.6 242.1,331.6 243.3,330.7 244.5,329.3 245.6,327.4 246.7,325.2 247.8,323.9 248.9,324.8 249.9,326.9 251.0,328.1 252.0,327.7 252.9,327.1 253.9,327.5 254.8,328.5 255.8,329.3 256.7,329.7 257.6,329.6 258.4,328.3 259.3,325.4 260.1,322.0 261.0,319.6 261.8,318.3 263.0,316.9 264.1,315.0 265.3,313.9 266.4,313.8 267.5,313.2 268.5,311.5 269.6,310.1 270.6,311.0 271.6,314.1 272.5,316.7 273.5,316.3 274.4,315.0 275.3,315.4 276.2,316.0 277.1,315.1 278.0,313.4 278.8,311.5 279.6,310.9 280.5,310.2 281.3,307.8 282.3,306.6 283.4,304.8 284.4,301.3 285.3,300.9 286.3,300.2 287.3,300.2 288.2,300.5 289.1,297.0 290.0,295.4 290.9,298.8 291.7,300.5 292.6,297.2 293.4,295.4 294.2,295.6 295.0,295.2 296.0,298.5 297.0,298.2 297.9,301.5 298.8,300.3 299.7,296.5 300.6,296.8 301.5,296.6 302.4,291.2 303.2,296.6 304.0,302.1 304.9,299.5 305.8,296.2 306.7,292.6 307.7,291.9 308.6,287.9 309.5,289.5 310.3,289.2 311.2,289.9 312.0,291.7 312.8,296.9 313.7,303.1 314.6,304.0 315.5,306.9 316.4,306.4 317.3,304.4 318.1,303.9 319.0,299.2 319.8,298.2 320.6,301.8 321.4,302.5 322.3,304.0 323.2,308.4 324.1,309.5 324.9,310.5 325.7,313.0 326.6,312.2 327.4,312.4 328.3,305.2 329.1,301.0 330.0,299.8 330.8,306.3 331.7,301.9 332.5,305.6 333.3,306.6 334.2,308.0 335.0,309.2 335.9,310.1 336.7,301.2 337.5,304.3 338.4,297.1 339.2,304.2 340.1,303.4 340.9,298.3 341.7,300.6 342.5,297.6 343.4,290.9 344.2,290.5 345.1,291.0 345.9,291.2 346.7,286.9 347.6,287.2 348.4,294.4 349.2,297.1 350.0,292.8 350.9,296.7 351.7,306.1 352.6,309.8 353.4,311.1 354.2,318.3 355.1,329.2 355.9,332.5 356.7,334.9 357.6,334.9 358.4,357.2 359.2,349.8 360.0,355.6 360.9,345.7 361.7,345.5 362.5,349.6 363.3,343.8 364.2,335.8 365.0,324.8 365.8,318.2 366.6,316.2 367.4,315.0 368.3,306.8 369.1,306.9 369.9,299.9 370.7,295.6 371.5,289.9 372.4,293.5 373.2,301.0 374.0,298.3 374.8,293.1 375.6,301.2 376.4,295.7 377.2,300.9 378.1,307.0 378.9,297.6 379.7,308.9 380.5,298.0 381.3,301.5 382.1,281.6 383.0,272.3 383.8,270.5 384.6,265.3 385.4,262.3 386.2,253.4 387.0,253.5 387.9,253.0 388.7,253.4 389.5,256.1 390.3,255.1 391.1,255.5 391.9,257.6" fill="none" stroke="#2ecc71" stroke-width="1.5" stroke-linejoin="round" clip-path="url(#pc821)"/>
  <line x1="442" y1="221" x2="442" y2="376" stroke="#d1d5db"/>
  <line x1="442" y1="298.5" x2="800" y2="298.5" stroke="#d1d5db"/>
  <text x="621" y="402" text-anchor="middle" font-size="9" fill="#6b7280">Samples</text>
  <text x="420" y="298.5" text-anchor="middle" font-size="9" fill="#6b7280" transform="rotate(-90 420 298.5)">Impulse response</text>
  <line x1="442.0" y1="221" x2="442.0" y2="376" stroke="#e5e7eb" stroke-width="0.5"/>
  <text x="442.0" y="388" text-anchor="middle" font-size="8" fill="#6b7280">0</text>
  <line x1="581.8" y1="221" x2="581.8" y2="376" stroke="#e5e7eb" stroke-width="0.5"/>
  <text x="581.8" y="388" text-anchor="middle" font-size="8" fill="#6b7280">200</text>
  <line x1="721.7" y1="221" x2="721.7" y2="376" stroke="#e5e7eb" stroke-width="0.5"/>
  <text x="721.7" y="388" text-anchor="middle" font-size="8" fill="#6b7280">400</text>
  <line x1="442" y1="361.5" x2="800" y2="361.5" stroke="#e5e7eb" stroke-width="0.5"/>
  <text x="438" y="364.5" text-anchor="end" font-size="8" fill="#6b7280">-0.4</text>
  <text x="438" y="301.5" text-anchor="end" font-size="8" fill="#6b7280">0</text>
  <line x1="442" y1="235.5" x2="800" y2="235.5" stroke="#e5e7eb" stroke-width="0.5"/>
  <text x="438" y="238.5" text-anchor="end" font-size="8" fill="#6b7280">0.4</text>
  <defs><linearGradient id="g822" x1="0" y1="221" x2="0" y2="298.5" gradientUnits="userSpaceOnUse">
    <stop offset="0%" stop-color="#f39c12" stop-opacity="0.15"/>
    <stop offset="100%" stop-color="#f39c12" stop-opacity="0.02"/>
  </linearGradient></defs>
  <defs><linearGradient id="g823" x1="0" y1="376" x2="0" y2="298.5" gradientUnits="userSpaceOnUse">
    <stop offset="0%" stop-color="#f39c12" stop-opacity="0.15"/>
    <stop offset="100%" stop-color="#f39c12" stop-opacity="0.02"/>
  </linearGradient></defs>
  <defs><clipPath id="c824"><rect x="442" y="221" width="358" height="77.5"/></clipPath></defs>
  <defs><clipPath id="c825"><rect x="442" y="298.5" width="358" height="77.5"/></clipPath></defs>
  <path d="M442.0,376.0 442.0,376.0 443.4,328.6 444.8,295.9 446.2,294.4 447.6,292.9 449.0,298.5 450.4,298.7 451.8,298.3 453.2,298.6 454.6,298.5 456.0,298.6 457.4,298.5 458.8,298.6 460.2,298.4 461.6,298.3 463.0,298.4 464.4,298.5 465.8,298.5 467.2,298.4 468.6,298.5 470.0,298.5 471.4,298.5 472.8,298.4 474.2,298.5 475.6,298.5 477.0,298.5 478.4,298.5 479.8,298.5 481.2,298.5 482.6,298.5 484.0,298.5 485.4,298.5 486.8,298.5 488.1,298.5 489.5,298.5 490.9,298.5 492.3,298.5 493.7,298.5 495.1,298.5 496.5,298.5 497.9,298.5 499.3,298.5 500.7,298.5 502.1,298.5 503.5,298.5 504.9,298.5 506.3,298.5 507.7,298.5 509.1,298.5 510.5,298.5 511.9,298.5 513.3,298.5 514.7,298.5 516.1,298.5 517.5,298.5 518.9,298.5 520.3,298.5 521.7,298.5 523.1,298.5 524.5,298.5 525.9,298.5 527.3,298.5 528.7,298.5 530.1,298.5 531.5,298.5 532.9,298.5 534.3,298.5 535.7,298.5 537.1,298.5 538.5,298.5 539.9,298.5 541.3,298.5 542.7,298.5 544.1,298.5 545.5,298.5 546.9,298.5 548.3,298.5 549.7,298.5 551.1,298.5 552.5,298.5 553.9,298.5 555.3,298.5 556.7,298.5 558.1,298.5 559.5,298.5 560.9,298.5 562.3,298.5 563.7,298.5 565.1,298.5 566.5,298.5 567.9,298.5 569.3,298.5 570.7,298.5 572.1,298.5 573.5,298.5 574.9,298.5 576.3,298.5 577.6,298.5 579.0,298.5 580.4,298.5 581.8,298.5 583.2,298.5 584.6,298.5 586.0,298.5 587.4,298.5 588.8,298.5 590.2,298.5 591.6,298.5 593.0,298.5 594.4,298.5 595.8,298.5 597.2,298.5 598.6,298.5 600.0,298.5 601.4,298.5 602.8,298.5 604.2,298.5 605.6,298.5 607.0,298.5 608.4,298.5 609.8,298.5 611.2,298.5 612.6,298.5 614.0,298.5 615.4,298.5 616.8,298.5 618.2,298.5 619.6,298.5 621.0,298.5 622.4,298.5 623.8,298.5 625.2,298.5 626.6,298.5 628.0,298.5 629.4,298.5 630.8,298.5 632.2,298.5 633.6,298.5 635.0,298.5 636.4,298.5 637.8,298.5 639.2,298.5 640.6,298.5 642.0,298.5 643.4,298.5 644.8,298.5 646.2,298.5 647.6,298.5 649.0,298.5 650.4,298.5 651.8,298.5 653.2,298.5 654.6,298.5 656.0,298.5 657.4,298.5 658.8,298.5 660.2,298.5 661.6,298.5 663.0,298.5 664.4,298.5 665.8,298.5 667.1,298.5 668.5,298.5 669.9,298.5 671.3,298.5 672.7,298.5 674.1,298.5 675.5,298.5 676.9,298.5 678.3,298.5 679.7,298.5 681.1,298.5 682.5,298.5 683.9,298.5 685.3,298.5 686.7,298.5 688.1,298.5 689.5,298.5 690.9,298.5 692.3,298.5 693.7,298.5 695.1,298.5 696.5,298.5 697.9,298.5 699.3,298.5 700.7,298.5 702.1,298.5 703.5,298.5 704.9,298.5 706.3,298.5 707.7,298.5 709.1,298.5 710.5,298.5 711.9,298.5 713.3,298.5 714.7,298.5 716.1,298.5 717.5,298.5 718.9,298.5 720.3,298.5 721.7,298.5 723.1,298.5 724.5,298.5 725.9,298.5 727.3,298.5 728.7,298.5 730.1,298.5 731.5,298.5 732.9,298.5 734.3,298.5 735.7,298.5 737.1,298.5 738.5,298.5 739.9,298.5 741.3,298.5 742.7,298.5 744.1,298.5 745.5,298.5 746.9,298.5 748.3,298.5 749.7,298.5 751.1,298.5 752.5,298.5 753.9,298.5 755.3,298.5 756.6,298.5 758.0,298.5 759.4,298.5 760.8,298.5 762.2,298.5 763.6,298.5 765.0,298.5 766.4,298.5 767.8,298.5 769.2,298.5 770.6,298.5 772.0,298.5 773.4,298.5 774.8,298.5 776.2,298.5 777.6,298.5 779.0,298.5 780.4,298.5 781.8,298.5 783.2,298.5 784.6,298.5 786.0,298.5 787.4,298.5 788.8,298.5 790.2,298.5 791.6,298.5 793.0,298.5 794.4,298.5 795.8,298.5 797.2,298.5 798.6,298.5 799.3,298.5 L799.3,298.5 L442.0,298.5 Z" fill="url(#g822)" clip-path="url(#c824)"/>
  <path d="M442.0,376.0 442.0,376.0 443.4,328.6 444.8,295.9 446.2,294.4 447.6,292.9 449.0,298.5 450.4,298.7 451.8,298.3 453.2,298.6 454.6,298.5 456.0,298.6 457.4,298.5 458.8,298.6 460.2,298.4 461.6,298.3 463.0,298.4 464.4,298.5 465.8,298.5 467.2,298.4 468.6,298.5 470.0,298.5 471.4,298.5 472.8,298.4 474.2,298.5 475.6,298.5 477.0,298.5 478.4,298.5 479.8,298.5 481.2,298.5 482.6,298.5 484.0,298.5 485.4,298.5 486.8,298.5 488.1,298.5 489.5,298.5 490.9,298.5 492.3,298.5 493.7,298.5 495.1,298.5 496.5,298.5 497.9,298.5 499.3,298.5 500.7,298.5 502.1,298.5 503.5,298.5 504.9,298.5 506.3,298.5 507.7,298.5 509.1,298.5 510.5,298.5 511.9,298.5 513.3,298.5 514.7,298.5 516.1,298.5 517.5,298.5 518.9,298.5 520.3,298.5 521.7,298.5 523.1,298.5 524.5,298.5 525.9,298.5 527.3,298.5 528.7,298.5 530.1,298.5 531.5,298.5 532.9,298.5 534.3,298.5 535.7,298.5 537.1,298.5 538.5,298.5 539.9,298.5 541.3,298.5 542.7,298.5 544.1,298.5 545.5,298.5 546.9,298.5 548.3,298.5 549.7,298.5 551.1,298.5 552.5,298.5 553.9,298.5 555.3,298.5 556.7,298.5 558.1,298.5 559.5,298.5 560.9,298.5 562.3,298.5 563.7,298.5 565.1,298.5 566.5,298.5 567.9,298.5 569.3,298.5 570.7,298.5 572.1,298.5 573.5,298.5 574.9,298.5 576.3,298.5 577.6,298.5 579.0,298.5 580.4,298.5 581.8,298.5 583.2,298.5 584.6,298.5 586.0,298.5 587.4,298.5 588.8,298.5 590.2,298.5 591.6,298.5 593.0,298.5 594.4,298.5 595.8,298.5 597.2,298.5 598.6,298.5 600.0,298.5 601.4,298.5 602.8,298.5 604.2,298.5 605.6,298.5 607.0,298.5 608.4,298.5 609.8,298.5 611.2,298.5 612.6,298.5 614.0,298.5 615.4,298.5 616.8,298.5 618.2,298.5 619.6,298.5 621.0,298.5 622.4,298.5 623.8,298.5 625.2,298.5 626.6,298.5 628.0,298.5 629.4,298.5 630.8,298.5 632.2,298.5 633.6,298.5 635.0,298.5 636.4,298.5 637.8,298.5 639.2,298.5 640.6,298.5 642.0,298.5 643.4,298.5 644.8,298.5 646.2,298.5 647.6,298.5 649.0,298.5 650.4,298.5 651.8,298.5 653.2,298.5 654.6,298.5 656.0,298.5 657.4,298.5 658.8,298.5 660.2,298.5 661.6,298.5 663.0,298.5 664.4,298.5 665.8,298.5 667.1,298.5 668.5,298.5 669.9,298.5 671.3,298.5 672.7,298.5 674.1,298.5 675.5,298.5 676.9,298.5 678.3,298.5 679.7,298.5 681.1,298.5 682.5,298.5 683.9,298.5 685.3,298.5 686.7,298.5 688.1,298.5 689.5,298.5 690.9,298.5 692.3,298.5 693.7,298.5 695.1,298.5 696.5,298.5 697.9,298.5 699.3,298.5 700.7,298.5 702.1,298.5 703.5,298.5 704.9,298.5 706.3,298.5 707.7,298.5 709.1,298.5 710.5,298.5 711.9,298.5 713.3,298.5 714.7,298.5 716.1,298.5 717.5,298.5 718.9,298.5 720.3,298.5 721.7,298.5 723.1,298.5 724.5,298.5 725.9,298.5 727.3,298.5 728.7,298.5 730.1,298.5 731.5,298.5 732.9,298.5 734.3,298.5 735.7,298.5 737.1,298.5 738.5,298.5 739.9,298.5 741.3,298.5 742.7,298.5 744.1,298.5 745.5,298.5 746.9,298.5 748.3,298.5 749.7,298.5 751.1,298.5 752.5,298.5 753.9,298.5 755.3,298.5 756.6,298.5 758.0,298.5 759.4,298.5 760.8,298.5 762.2,298.5 763.6,298.5 765.0,298.5 766.4,298.5 767.8,298.5 769.2,298.5 770.6,298.5 772.0,298.5 773.4,298.5 774.8,298.5 776.2,298.5 777.6,298.5 779.0,298.5 780.4,298.5 781.8,298.5 783.2,298.5 784.6,298.5 786.0,298.5 787.4,298.5 788.8,298.5 790.2,298.5 791.6,298.5 793.0,298.5 794.4,298.5 795.8,298.5 797.2,298.5 798.6,298.5 799.3,298.5 L799.3,298.5 L442.0,298.5 Z" fill="url(#g823)" clip-path="url(#c825)"/>
  <defs><clipPath id="pc826"><rect x="442" y="221" width="358" height="155"/></clipPath></defs>
  <polyline points="442.0,376.0 443.4,328.6 444.8,295.9 446.2,294.4 447.6,292.9 449.0,298.5 450.4,298.7 451.8,298.3 453.2,298.6 454.6,298.5 456.0,298.6 457.4,298.5 458.8,298.6 460.2,298.4 461.6,298.3 463.0,298.4 464.4,298.5 465.8,298.5 467.2,298.4 468.6,298.5 470.0,298.5 471.4,298.5 472.8,298.4 474.2,298.5 475.6,298.5 477.0,298.5 478.4,298.5 479.8,298.5 481.2,298.5 482.6,298.5 484.0,298.5 485.4,298.5 486.8,298.5 488.1,298.5 489.5,298.5 490.9,298.5 492.3,298.5 493.7,298.5 495.1,298.5 496.5,298.5 497.9,298.5 499.3,298.5 500.7,298.5 502.1,298.5 503.5,298.5 504.9,298.5 506.3,298.5 507.7,298.5 509.1,298.5 510.5,298.5 511.9,298.5 513.3,298.5 514.7,298.5 516.1,298.5 517.5,298.5 518.9,298.5 520.3,298.5 521.7,298.5 523.1,298.5 524.5,298.5 525.9,298.5 527.3,298.5 528.7,298.5 530.1,298.5 531.5,298.5 532.9,298.5 534.3,298.5 535.7,298.5 537.1,298.5 538.5,298.5 539.9,298.5 541.3,298.5 542.7,298.5 544.1,298.5 545.5,298.5 546.9,298.5 548.3,298.5 549.7,298.5 551.1,298.5 552.5,298.5 553.9,298.5 555.3,298.5 556.7,298.5 558.1,298.5 559.5,298.5 560.9,298.5 562.3,298.5 563.7,298.5 565.1,298.5 566.5,298.5 567.9,298.5 569.3,298.5 570.7,298.5 572.1,298.5 573.5,298.5 574.9,298.5 576.3,298.5 577.6,298.5 579.0,298.5 580.4,298.5 581.8,298.5 583.2,298.5 584.6,298.5 586.0,298.5 587.4,298.5 588.8,298.5 590.2,298.5 591.6,298.5 593.0,298.5 594.4,298.5 595.8,298.5 597.2,298.5 598.6,298.5 600.0,298.5 601.4,298.5 602.8,298.5 604.2,298.5 605.6,298.5 607.0,298.5 608.4,298.5 609.8,298.5 611.2,298.5 612.6,298.5 614.0,298.5 615.4,298.5 616.8,298.5 618.2,298.5 619.6,298.5 621.0,298.5 622.4,298.5 623.8,298.5 625.2,298.5 626.6,298.5 628.0,298.5 629.4,298.5 630.8,298.5 632.2,298.5 633.6,298.5 635.0,298.5 636.4,298.5 637.8,298.5 639.2,298.5 640.6,298.5 642.0,298.5 643.4,298.5 644.8,298.5 646.2,298.5 647.6,298.5 649.0,298.5 650.4,298.5 651.8,298.5 653.2,298.5 654.6,298.5 656.0,298.5 657.4,298.5 658.8,298.5 660.2,298.5 661.6,298.5 663.0,298.5 664.4,298.5 665.8,298.5 667.1,298.5 668.5,298.5 669.9,298.5 671.3,298.5 672.7,298.5 674.1,298.5 675.5,298.5 676.9,298.5 678.3,298.5 679.7,298.5 681.1,298.5 682.5,298.5 683.9,298.5 685.3,298.5 686.7,298.5 688.1,298.5 689.5,298.5 690.9,298.5 692.3,298.5 693.7,298.5 695.1,298.5 696.5,298.5 697.9,298.5 699.3,298.5 700.7,298.5 702.1,298.5 703.5,298.5 704.9,298.5 706.3,298.5 707.7,298.5 709.1,298.5 710.5,298.5 711.9,298.5 713.3,298.5 714.7,298.5 716.1,298.5 717.5,298.5 718.9,298.5 720.3,298.5 721.7,298.5 723.1,298.5 724.5,298.5 725.9,298.5 727.3,298.5 728.7,298.5 730.1,298.5 731.5,298.5 732.9,298.5 734.3,298.5 735.7,298.5 737.1,298.5 738.5,298.5 739.9,298.5 741.3,298.5 742.7,298.5 744.1,298.5 745.5,298.5 746.9,298.5 748.3,298.5 749.7,298.5 751.1,298.5 752.5,298.5 753.9,298.5 755.3,298.5 756.6,298.5 758.0,298.5 759.4,298.5 760.8,298.5 762.2,298.5 763.6,298.5 765.0,298.5 766.4,298.5 767.8,298.5 769.2,298.5 770.6,298.5 772.0,298.5 773.4,298.5 774.8,298.5 776.2,298.5 777.6,298.5 779.0,298.5 780.4,298.5 781.8,298.5 783.2,298.5 784.6,298.5 786.0,298.5 787.4,298.5 788.8,298.5 790.2,298.5 791.6,298.5 793.0,298.5 794.4,298.5 795.8,298.5 797.2,298.5 798.6,298.5 799.3,298.5" fill="none" stroke="#f39c12" stroke-width="1.3" stroke-linejoin="round" clip-path="url(#pc826)"/>
</svg>
