<svg xmlns="http://www.w3.org/2000/svg" viewBox="0 0 820 378" style="font-family:system-ui,-apple-system,sans-serif">
  <text x="800" y="11" text-anchor="end" font-size="11" font-weight="600" fill="#6b7280">Savitzky-Golay, window=11, degree=3</text>
  <line x1="34" y1="16" x2="34" y2="171" stroke="#d1d5db"/>
  <line x1="34" y1="47.0" x2="399" y2="47.0" stroke="#d1d5db"/>
  <text x="216.5" y="197" text-anchor="middle" font-size="9" fill="#6b7280">Hz</text>
  <text x="12" y="93.5" text-anchor="middle" font-size="9" fill="#6b7280" transform="rotate(-90 12 93.5)">dB</text>
  <line x1="67.3" y1="16" x2="67.3" y2="171" stroke="#e5e7eb" stroke-width="0.5"/>
  <line x1="86.8" y1="16" x2="86.8" y2="171" stroke="#e5e7eb" stroke-width="0.5"/>
  <line x1="100.6" y1="16" x2="100.6" y2="171" stroke="#e5e7eb" stroke-width="0.5"/>
  <line x1="111.3" y1="16" x2="111.3" y2="171" stroke="#e5e7eb" stroke-width="0.5"/>
  <line x1="120.0" y1="16" x2="120.0" y2="171" stroke="#e5e7eb" stroke-width="0.5"/>
  <line x1="127.4" y1="16" x2="127.4" y2="171" stroke="#e5e7eb" stroke-width="0.5"/>
  <line x1="133.9" y1="16" x2="133.9" y2="171" stroke="#e5e7eb" stroke-width="0.5"/>
  <line x1="139.5" y1="16" x2="139.5" y2="171" stroke="#e5e7eb" stroke-width="0.5"/>
  <line x1="177.9" y1="16" x2="177.9" y2="171" stroke="#e5e7eb" stroke-width="0.5"/>
  <line x1="197.3" y1="16" x2="197.3" y2="171" stroke="#e5e7eb" stroke-width="0.5"/>
  <line x1="211.1" y1="16" x2="211.1" y2="171" stroke="#e5e7eb" stroke-width="0.5"/>
  <line x1="221.9" y1="16" x2="221.9" y2="171" stroke="#e5e7eb" stroke-width="0.5"/>
  <line x1="230.6" y1="16" x2="230.6" y2="171" stroke="#e5e7eb" stroke-width="0.5"/>
  <line x1="238.0" y1="16" x2="238.0" y2="171" stroke="#e5e7eb" stroke-width="0.5"/>
  <line x1="244.4" y1="16" x2="244.4" y2="171" stroke="#e5e7eb" stroke-width="0.5"/>
  <line x1="250.1" y1="16" x2="250.1" y2="171" stroke="#e5e7eb" stroke-width="0.5"/>
  <line x1="288.4" y1="16" x2="288.4" y2="171" stroke="#e5e7eb" stroke-width="0.5"/>
  <line x1="307.9" y1="16" x2="307.9" y2="171" stroke="#e5e7eb" stroke-width="0.5"/>
  <line x1="321.7" y1="16" x2="321.7" y2="171" stroke="#e5e7eb" stroke-width="0.5"/>
  <line x1="332.4" y1="16" x2="332.4" y2="171" stroke="#e5e7eb" stroke-width="0.5"/>
  <line x1="341.2" y1="16" x2="341.2" y2="171" stroke="#e5e7eb" stroke-width="0.5"/>
  <line x1="348.6" y1="16" x2="348.6" y2="171" stroke="#e5e7eb" stroke-width="0.5"/>
  <line x1="355.0" y1="16" x2="355.0" y2="171" stroke="#e5e7eb" stroke-width="0.5"/>
  <line x1="360.7" y1="16" x2="360.7" y2="171" stroke="#e5e7eb" stroke-width="0.5"/>
  <line x1="399.0" y1="16" x2="399.0" y2="171" stroke="#e5e7eb" stroke-width="0.5"/>
  <line x1="144.6" y1="16" x2="144.6" y2="171" stroke="#e5e7eb" stroke-width="0.5"/>
  <text x="144.6" y="183" text-anchor="middle" font-size="8" fill="#6b7280">100</text>
  <line x1="255.1" y1="16" x2="255.1" y2="171" stroke="#e5e7eb" stroke-width="0.5"/>
  <text x="255.1" y="183" text-anchor="middle" font-size="8" fill="#6b7280">1k</text>
  <line x1="365.7" y1="16" x2="365.7" y2="171" stroke="#e5e7eb" stroke-width="0.5"/>
  <text x="365.7" y="183" text-anchor="middle" font-size="8" fill="#6b7280">10k</text>
  <line x1="34" y1="31.5" x2="399" y2="31.5" stroke="#e5e7eb" stroke-width="0.5"/>
  <line x1="34" y1="62.5" x2="399" y2="62.5" stroke="#e5e7eb" stroke-width="0.5"/>
  <line x1="34" y1="16.0" x2="399" y2="16.0" stroke="#e5e7eb" stroke-width="0.5"/>
  <text x="30" y="19.0" text-anchor="end" font-size="8" fill="#6b7280">+20</text>
  <text x="30" y="50.0" text-anchor="end" font-size="8" fill="#6b7280">0</text>
  <line x1="34" y1="78.0" x2="399" y2="78.0" stroke="#e5e7eb" stroke-width="0.5"/>
  <text x="30" y="81.0" text-anchor="end" font-size="8" fill="#6b7280">-20</text>
  <line x1="34" y1="109.0" x2="399" y2="109.0" stroke="#e5e7eb" stroke-width="0.5"/>
  <text x="30" y="112.0" text-anchor="end" font-size="8" fill="#6b7280">-40</text>
  <line x1="34" y1="140.0" x2="399" y2="140.0" stroke="#e5e7eb" stroke-width="0.5"/>
  <text x="30" y="143.0" text-anchor="end" font-size="8" fill="#6b7280">-60</text>
  <line x1="34" y1="171.0" x2="399" y2="171.0" stroke="#e5e7eb" stroke-width="0.5"/>
  <text x="30" y="174.0" text-anchor="end" font-size="8" fill="#6b7280">-80</text>
  <defs><linearGradient id="g387" x1="0" y1="16" x2="0" y2="171" gradientUnits="userSpaceOnUse">
    <stop offset="0%" stop-color="#4a90d9" stop-opacity="0.15"/>
    <stop offset="100%" stop-color="#4a90d9" stop-opacity="0.02"/>
  </linearGradient></defs>
  <path d="M37.5,47.0 37.5,47.0 70.8,47.0 90.3,47.0 104.1,47.0 114.8,47.0 123.6,47.0 131.0,47.0 137.4,47.0 143.1,47.0 148.1,47.0 152.7,47.0 156.9,47.0 160.7,47.0 164.3,47.0 167.6,47.0 170.7,47.0 173.6,47.0 176.3,47.0 178.9,47.0 181.4,47.0 183.7,47.0 186.0,47.0 188.1,47.0 190.2,47.0 192.1,47.0 194.0,47.0 195.8,47.0 197.6,47.0 199.2,47.0 200.9,47.0 202.4,47.0 204.0,47.0 205.5,47.0 206.9,47.0 208.3,47.0 209.6,47.0 210.9,47.0 212.2,47.0 213.5,47.0 214.7,47.0 215.9,47.0 217.0,47.0 218.2,47.0 219.3,47.0 220.3,47.0 221.4,47.0 222.4,47.0 223.4,47.0 224.4,47.0 225.4,47.0 226.4,47.0 227.3,47.0 228.2,47.0 229.1,47.0 230.0,47.0 230.8,47.0 231.7,47.0 232.5,47.0 233.4,47.0 234.2,47.0 235.7,47.0 237.3,47.0 238.7,47.0 240.2,47.0 241.6,47.0 242.9,47.0 244.2,47.0 245.5,47.0 246.8,47.0 248.0,47.0 249.2,47.0 250.3,47.0 251.4,47.0 252.6,47.0 253.6,47.0 254.7,47.0 255.7,47.0 256.7,47.0 257.7,47.0 258.7,47.0 259.6,47.0 260.6,47.0 261.5,47.0 262.4,47.0 263.3,47.0 264.1,47.0 265.0,47.0 265.8,47.0 266.6,47.0 267.4,47.0 268.6,47.0 269.8,47.1 270.9,47.1 272.0,47.1 273.1,47.1 274.2,47.1 275.2,47.1 276.2,47.1 277.2,47.1 278.2,47.1 279.1,47.1 280.0,47.1 281.0,47.1 281.9,47.1 282.7,47.2 283.6,47.2 284.5,47.2 285.3,47.2 286.1,47.2 286.9,47.2 288.0,47.2 289.0,47.3 290.0,47.3 291.0,47.3 292.0,47.3 292.9,47.4 293.9,47.4 294.8,47.4 295.7,47.4 296.6,47.5 297.4,47.5 298.3,47.5 299.1,47.6 299.9,47.6 300.7,47.7 301.7,47.7 302.7,47.8 303.6,47.8 304.6,47.9 305.5,48.0 306.4,48.0 307.3,48.1 308.1,48.2 309.0,48.3 309.8,48.3 310.6,48.4 311.4,48.5 312.4,48.6 313.3,48.8 314.2,48.9 315.1,49.0 316.0,49.2 316.9,49.3 317.7,49.5 318.6,49.7 319.4,49.8 320.2,50.0 321.1,50.3 322.0,50.5 322.9,50.7 323.8,51.0 324.7,51.3 325.5,51.6 326.3,51.9 327.1,52.2 327.9,52.6 328.8,53.0 329.7,53.4 330.6,53.9 331.4,54.3 332.3,54.9 333.1,55.4 333.9,56.0 334.8,56.7 335.7,57.4 336.5,58.2 337.4,59.1 338.2,60.0 339.0,61.0 339.8,62.1 340.7,63.4 341.6,64.9 342.4,66.5 343.3,68.4 344.1,70.5 344.9,73.0 345.8,76.3 346.6,80.7 347.5,86.9 348.3,98.1 349.1,116.0 350.0,91.9 350.8,84.0 351.7,79.4 352.5,76.1 353.3,73.6 354.1,71.6 355.0,69.9 355.8,68.7 356.6,67.6 357.5,66.8 358.3,66.2 359.1,65.7 360.0,65.4 360.8,65.3 361.6,65.3 362.5,65.5 363.3,65.9 364.1,66.5 364.9,67.2 365.8,68.3 366.6,69.5 367.4,71.1 368.2,73.2 369.1,75.9 369.9,79.4 370.7,84.7 371.6,93.6 372.4,130.3 373.2,95.9 374.0,86.1 374.8,80.8 375.6,77.3 376.5,74.7 377.3,72.9 378.1,71.6 378.9,70.8 379.7,70.4 380.5,70.3 381.4,70.6 382.2,71.4 383.0,72.6 383.8,74.5 384.6,77.1 385.5,81.1 386.3,87.3 387.1,100.2 387.9,105.6 388.7,89.1 389.5,82.1 390.3,78.1 391.2,75.4 392.0,73.7 392.8,72.8 393.6,72.6 394.4,73.0 395.2,74.3 396.0,76.5 396.8,80.1 397.6,86.1 398.5,100.0 L398.5,171.0 L37.5,171.0 Z" fill="url(#g387)"/>
  <defs><clipPath id="pc388"><rect x="34" y="16" width="365" height="155"/></clipPath></defs>
  <polyline points="37.5,47.0 70.8,47.0 90.3,47.0 104.1,47.0 114.8,47.0 123.6,47.0 131.0,47.0 137.4,47.0 143.1,47.0 148.1,47.0 152.7,47.0 156.9,47.0 160.7,47.0 164.3,47.0 167.6,47.0 170.7,47.0 173.6,47.0 176.3,47.0 178.9,47.0 181.4,47.0 183.7,47.0 186.0,47.0 188.1,47.0 190.2,47.0 192.1,47.0 194.0,47.0 195.8,47.0 197.6,47.0 199.2,47.0 200.9,47.0 202.4,47.0 204.0,47.0 205.5,47.0 206.9,47.0 208.3,47.0 209.6,47.0 210.9,47.0 212.2,47.0 213.5,47.0 214.7,47.0 215.9,47.0 217.0,47.0 218.2,47.0 219.3,47.0 220.3,47.0 221.4,47.0 222.4,47.0 223.4,47.0 224.4,47.0 225.4,47.0 226.4,47.0 227.3,47.0 228.2,47.0 229.1,47.0 230.0,47.0 230.8,47.0 231.7,47.0 232.5,47.0 233.4,47.0 234.2,47.0 235.7,47.0 237.3,47.0 238.7,47.0 240.2,47.0 241.6,47.0 242.9,47.0 244.2,47.0 245.5,47.0 246.8,47.0 248.0,47.0 249.2,47.0 250.3,47.0 251.4,47.0 252.6,47.0 253.6,47.0 254.7,47.0 255.7,47.0 256.7,47.0 257.7,47.0 258.7,47.0 259.6,47.0 260.6,47.0 261.5,47.0 262.4,47.0 263.3,47.0 264.1,47.0 265.0,47.0 265.8,47.0 266.6,47.0 267.4,47.0 268.6,47.0 269.8,47.1 270.9,47.1 272.0,47.1 273.1,47.1 274.2,47.1 275.2,47.1 276.2,47.1 277.2,47.1 278.2,47.1 279.1,47.1 280.0,47.1 281.0,47.1 281.9,47.1 282.7,47.2 283.6,47.2 284.5,47.2 285.3,47.2 286.1,47.2 286.9,47.2 288.0,47.2 289.0,47.3 290.0,47.3 291.0,47.3 292.0,47.3 292.9,47.4 293.9,47.4 294.8,47.4 295.7,47.4 296.6,47.5 297.4,47.5 298.3,47.5 299.1,47.6 299.9,47.6 300.7,47.7 301.7,47.7 302.7,47.8 303.6,47.8 304.6,47.9 305.5,48.0 306.4,48.0 307.3,48.1 308.1,48.2 309.0,48.3 309.8,48.3 310.6,48.4 311.4,48.5 312.4,48.6 313.3,48.8 314.2,48.9 315.1,49.0 316.0,49.2 316.9,49.3 317.7,49.5 318.6,49.7 319.4,49.8 320.2,50.0 321.1,50.3 322.0,50.5 322.9,50.7 323.8,51.0 324.7,51.3 325.5,51.6 326.3,51.9 327.1,52.2 327.9,52.6 328.8,53.0 329.7,53.4 330.6,53.9 331.4,54.3 332.3,54.9 333.1,55.4 333.9,56.0 334.8,56.7 335.7,57.4 336.5,58.2 337.4,59.1 338.2,60.0 339.0,61.0 339.8,62.1 340.7,63.4 341.6,64.9 342.4,66.5 343.3,68.4 344.1,70.5 344.9,73.0 345.8,76.3 346.6,80.7 347.5,86.9 348.3,98.1 349.1,116.0 350.0,91.9 350.8,84.0 351.7,79.4 352.5,76.1 353.3,73.6 354.1,71.6 355.0,69.9 355.8,68.7 356.6,67.6 357.5,66.8 358.3,66.2 359.1,65.7 360.0,65.4 360.8,65.3 361.6,65.3 362.5,65.5 363.3,65.9 364.1,66.5 364.9,67.2 365.8,68.3 366.6,69.5 367.4,71.1 368.2,73.2 369.1,75.9 369.9,79.4 370.7,84.7 371.6,93.6 372.4,130.3 373.2,95.9 374.0,86.1 374.8,80.8 375.6,77.3 376.5,74.7 377.3,72.9 378.1,71.6 378.9,70.8 379.7,70.4 380.5,70.3 381.4,70.6 382.2,71.4 383.0,72.6 383.8,74.5 384.6,77.1 385.5,81.1 386.3,87.3 387.1,100.2 387.9,105.6 388.7,89.1 389.5,82.1 390.3,78.1 391.2,75.4 392.0,73.7 392.8,72.8 393.6,72.6 394.4,73.0 395.2,74.3 396.0,76.5 396.8,80.1 397.6,86.1 398.5,100.0" fill="none" stroke="#4a90d9" stroke-width="1.5" stroke-linejoin="round" clip-path="url(#pc388)"/>
  <line x1="435" y1="16" x2="435" y2="171" stroke="#d1d5db"/>
  <line x1="435" y1="93.5" x2="800" y2="93.5" stroke="#d1d5db"/>
  <text x="617.5" y="197" text-anchor="middle" font-size="9" fill="#6b7280">Hz</text>
  <text x="413" y="93.5" text-anchor="middle" font-size="9" fill="#6b7280" transform="rotate(-90 413 93.5)">Phase (deg)</text>
  <line x1="468.3" y1="16" x2="468.3" y2="171" stroke="#e5e7eb" stroke-width="0.5"/>
  <line x1="487.8" y1="16" x2="487.8" y2="171" stroke="#e5e7eb" stroke-width="0.5"/>
  <line x1="501.6" y1="16" x2="501.6" y2="171" stroke="#e5e7eb" stroke-width="0.5"/>
  <line x1="512.3" y1="16" x2="512.3" y2="171" stroke="#e5e7eb" stroke-width="0.5"/>
  <line x1="521.0" y1="16" x2="521.0" y2="171" stroke="#e5e7eb" stroke-width="0.5"/>
  <line x1="528.4" y1="16" x2="528.4" y2="171" stroke="#e5e7eb" stroke-width="0.5"/>
  <line x1="534.9" y1="16" x2="534.9" y2="171" stroke="#e5e7eb" stroke-width="0.5"/>
  <line x1="540.5" y1="16" x2="540.5" y2="171" stroke="#e5e7eb" stroke-width="0.5"/>
  <line x1="578.9" y1="16" x2="578.9" y2="171" stroke="#e5e7eb" stroke-width="0.5"/>
  <line x1="598.3" y1="16" x2="598.3" y2="171" stroke="#e5e7eb" stroke-width="0.5"/>
  <line x1="612.1" y1="16" x2="612.1" y2="171" stroke="#e5e7eb" stroke-width="0.5"/>
  <line x1="622.9" y1="16" x2="622.9" y2="171" stroke="#e5e7eb" stroke-width="0.5"/>
  <line x1="631.6" y1="16" x2="631.6" y2="171" stroke="#e5e7eb" stroke-width="0.5"/>
  <line x1="639.0" y1="16" x2="639.0" y2="171" stroke="#e5e7eb" stroke-width="0.5"/>
  <line x1="645.4" y1="16" x2="645.4" y2="171" stroke="#e5e7eb" stroke-width="0.5"/>
  <line x1="651.1" y1="16" x2="651.1" y2="171" stroke="#e5e7eb" stroke-width="0.5"/>
  <line x1="689.4" y1="16" x2="689.4" y2="171" stroke="#e5e7eb" stroke-width="0.5"/>
  <line x1="708.9" y1="16" x2="708.9" y2="171" stroke="#e5e7eb" stroke-width="0.5"/>
  <line x1="722.7" y1="16" x2="722.7" y2="171" stroke="#e5e7eb" stroke-width="0.5"/>
  <line x1="733.4" y1="16" x2="733.4" y2="171" stroke="#e5e7eb" stroke-width="0.5"/>
  <line x1="742.2" y1="16" x2="742.2" y2="171" stroke="#e5e7eb" stroke-width="0.5"/>
  <line x1="749.6" y1="16" x2="749.6" y2="171" stroke="#e5e7eb" stroke-width="0.5"/>
  <line x1="756.0" y1="16" x2="756.0" y2="171" stroke="#e5e7eb" stroke-width="0.5"/>
  <line x1="761.7" y1="16" x2="761.7" y2="171" stroke="#e5e7eb" stroke-width="0.5"/>
  <line x1="800.0" y1="16" x2="800.0" y2="171" stroke="#e5e7eb" stroke-width="0.5"/>
  <line x1="545.6" y1="16" x2="545.6" y2="171" stroke="#e5e7eb" stroke-width="0.5"/>
  <text x="545.6" y="183" text-anchor="middle" font-size="8" fill="#6b7280">100</text>
  <line x1="656.1" y1="16" x2="656.1" y2="171" stroke="#e5e7eb" stroke-width="0.5"/>
  <text x="656.1" y="183" text-anchor="middle" font-size="8" fill="#6b7280">1k</text>
  <line x1="766.7" y1="16" x2="766.7" y2="171" stroke="#e5e7eb" stroke-width="0.5"/>
  <text x="766.7" y="183" text-anchor="middle" font-size="8" fill="#6b7280">10k</text>
  <line x1="435" y1="54.8" x2="800" y2="54.8" stroke="#e5e7eb" stroke-width="0.5"/>
  <line x1="435" y1="132.3" x2="800" y2="132.3" stroke="#e5e7eb" stroke-width="0.5"/>
  <line x1="435" y1="16.0" x2="800" y2="16.0" stroke="#e5e7eb" stroke-width="0.5"/>
  <text x="431" y="19.0" text-anchor="end" font-size="8" fill="#6b7280">180</text>
  <text x="431" y="96.5" text-anchor="end" font-size="8" fill="#6b7280">0</text>
  <line x1="435" y1="171.0" x2="800" y2="171.0" stroke="#e5e7eb" stroke-width="0.5"/>
  <text x="431" y="174.0" text-anchor="end" font-size="8" fill="#6b7280">-180</text>
  <defs><linearGradient id="g389" x1="0" y1="16" x2="0" y2="93.5" gradientUnits="userSpaceOnUse">
    <stop offset="0%" stop-color="#e74c3c" stop-opacity="0.15"/>
    <stop offset="100%" stop-color="#e74c3c" stop-opacity="0.02"/>
  </linearGradient></defs>
  <defs><linearGradient id="g390" x1="0" y1="171" x2="0" y2="93.5" gradientUnits="userSpaceOnUse">
    <stop offset="0%" stop-color="#e74c3c" stop-opacity="0.15"/>
    <stop offset="100%" stop-color="#e74c3c" stop-opacity="0.02"/>
  </linearGradient></defs>
  <defs><clipPath id="c391"><rect x="435" y="16" width="365" height="77.5"/></clipPath></defs>
  <defs><clipPath id="c392"><rect x="435" y="93.5" width="365" height="77.5"/></clipPath></defs>
  <path d="M438.5,94.1 438.5,94.1 471.8,94.6 491.3,95.2 505.1,95.8 515.8,96.3 524.6,96.9 532.0,97.5 538.4,98.0 544.1,98.6 549.1,99.2 553.7,99.7 557.9,100.3 561.7,100.9 565.3,101.4 568.6,102.0 571.7,102.6 574.6,103.1 577.3,103.7 579.9,104.3 582.4,104.9 584.7,105.4 587.0,106.0 589.1,106.6 591.2,107.1 593.1,107.7 595.0,108.3 596.8,108.8 598.6,109.4 600.2,110.0 601.9,110.5 603.4,111.1 605.0,111.7 606.5,112.2 607.9,112.8 609.3,113.4 610.6,113.9 611.9,114.5 613.2,115.1 614.5,115.6 615.7,116.2 616.9,116.8 618.0,117.3 619.2,117.9 620.3,118.5 621.3,119.0 622.4,119.6 623.4,120.2 624.4,120.7 625.4,121.3 626.4,121.9 627.4,122.4 628.3,123.0 629.2,123.6 630.1,124.2 631.0,124.7 631.8,125.3 632.7,125.9 633.5,126.4 634.4,127.0 635.2,127.6 636.7,128.7 638.3,129.8 639.7,131.0 641.2,132.1 642.6,133.2 643.9,134.4 645.2,135.5 646.5,136.6 647.8,137.8 649.0,138.9 650.2,140.0 651.3,141.2 652.4,142.3 653.6,143.5 654.6,144.6 655.7,145.7 656.7,146.9 657.7,148.0 658.7,149.1 659.7,150.3 660.6,151.4 661.6,152.5 662.5,153.7 663.4,154.8 664.3,155.9 665.1,157.1 666.0,158.2 666.8,159.3 667.6,160.5 668.4,161.6 669.6,163.3 670.8,165.0 671.9,166.7 673.0,168.4 674.1,170.1 675.2,16.8 676.2,18.5 677.2,20.2 678.2,21.9 679.2,23.6 680.1,25.3 681.0,27.0 682.0,28.8 682.9,30.5 683.7,32.2 684.6,33.9 685.5,35.6 686.3,37.3 687.1,39.0 687.9,40.7 689.0,42.9 690.0,45.2 691.0,47.5 692.0,49.8 693.0,52.0 693.9,54.3 694.9,56.6 695.8,58.8 696.7,61.1 697.6,63.4 698.4,65.6 699.3,67.9 700.1,70.2 700.9,72.5 701.7,74.7 702.7,77.6 703.7,80.4 704.6,83.2 705.6,86.1 706.5,88.9 707.4,91.8 708.3,94.6 709.1,97.4 710.0,100.3 710.8,103.1 711.6,105.9 712.4,108.8 713.4,112.2 714.3,115.6 715.2,119.0 716.1,122.4 717.0,125.8 717.9,129.2 718.7,132.6 719.6,136.0 720.4,139.4 721.2,142.8 722.1,146.8 723.0,150.8 723.9,154.8 724.8,158.7 725.7,162.7 726.5,166.7 727.3,170.7 728.1,19.6 728.9,23.6 729.8,28.1 730.7,32.7 731.6,37.2 732.4,41.8 733.3,46.3 734.1,50.9 734.9,55.4 735.8,60.5 736.7,65.6 737.5,70.7 738.4,75.8 739.2,80.9 740.0,86.0 740.8,91.2 741.7,96.8 742.6,102.5 743.4,108.2 744.3,113.9 745.1,119.5 745.9,125.2 746.8,131.5 747.6,137.7 748.5,143.9 749.3,150.2 750.1,78.9 751.0,85.7 751.8,92.6 752.7,99.4 753.5,106.2 754.3,113.0 755.1,120.4 756.0,127.7 756.8,135.1 757.6,142.5 758.5,149.9 759.3,157.8 760.1,165.8 761.0,18.7 761.8,26.7 762.6,35.2 763.5,43.7 764.3,52.2 765.1,60.7 765.9,69.8 766.8,78.9 767.6,88.0 768.4,97.1 769.2,106.7 770.1,116.4 770.9,126.0 771.7,136.2 772.6,146.4 773.4,156.7 774.2,89.4 775.0,100.2 775.8,110.9 776.6,121.7 777.5,133.1 778.3,144.4 779.1,155.8 779.9,167.7 780.7,24.6 781.5,36.5 782.4,49.0 783.2,61.5 784.0,74.0 784.8,87.1 785.6,100.1 786.5,113.7 787.3,127.4 788.1,141.0 788.9,77.7 789.7,91.9 790.5,106.6 791.3,121.4 792.2,136.7 793.0,152.0 793.8,167.4 794.6,28.3 795.4,44.2 796.2,60.6 797.0,77.1 797.8,94.1 798.6,111.1 799.5,128.7 L799.5,93.5 L438.5,93.5 Z" fill="url(#g389)" clip-path="url(#c391)"/>
  <path d="M438.5,94.1 438.5,94.1 471.8,94.6 491.3,95.2 505.1,95.8 515.8,96.3 524.6,96.9 532.0,97.5 538.4,98.0 544.1,98.6 549.1,99.2 553.7,99.7 557.9,100.3 561.7,100.9 565.3,101.4 568.6,102.0 571.7,102.6 574.6,103.1 577.3,103.7 579.9,104.3 582.4,104.9 584.7,105.4 587.0,106.0 589.1,106.6 591.2,107.1 593.1,107.7 595.0,108.3 596.8,108.8 598.6,109.4 600.2,110.0 601.9,110.5 603.4,111.1 605.0,111.7 606.5,112.2 607.9,112.8 609.3,113.4 610.6,113.9 611.9,114.5 613.2,115.1 614.5,115.6 615.7,116.2 616.9,116.8 618.0,117.3 619.2,117.9 620.3,118.5 621.3,119.0 622.4,119.6 623.4,120.2 624.4,120.7 625.4,121.3 626.4,121.9 627.4,122.4 628.3,123.0 629.2,123.6 630.1,124.2 631.0,124.7 631.8,125.3 632.7,125.9 633.5,126.4 634.4,127.0 635.2,127.6 636.7,128.7 638.3,129.8 639.7,131.0 641.2,132.1 642.6,133.2 643.9,134.4 645.2,135.5 646.5,136.6 647.8,137.8 649.0,138.9 650.2,140.0 651.3,141.2 652.4,142.3 653.6,143.5 654.6,144.6 655.7,145.7 656.7,146.9 657.7,148.0 658.7,149.1 659.7,150.3 660.6,151.4 661.6,152.5 662.5,153.7 663.4,154.8 664.3,155.9 665.1,157.1 666.0,158.2 666.8,159.3 667.6,160.5 668.4,161.6 669.6,163.3 670.8,165.0 671.9,166.7 673.0,168.4 674.1,170.1 675.2,16.8 676.2,18.5 677.2,20.2 678.2,21.9 679.2,23.6 680.1,25.3 681.0,27.0 682.0,28.8 682.9,30.5 683.7,32.2 684.6,33.9 685.5,35.6 686.3,37.3 687.1,39.0 687.9,40.7 689.0,42.9 690.0,45.2 691.0,47.5 692.0,49.8 693.0,52.0 693.9,54.3 694.9,56.6 695.8,58.8 696.7,61.1 697.6,63.4 698.4,65.6 699.3,67.9 700.1,70.2 700.9,72.5 701.7,74.7 702.7,77.6 703.7,80.4 704.6,83.2 705.6,86.1 706.5,88.9 707.4,91.8 708.3,94.6 709.1,97.4 710.0,100.3 710.8,103.1 711.6,105.9 712.4,108.8 713.4,112.2 714.3,115.6 715.2,119.0 716.1,122.4 717.0,125.8 717.9,129.2 718.7,132.6 719.6,136.0 720.4,139.4 721.2,142.8 722.1,146.8 723.0,150.8 723.9,154.8 724.8,158.7 725.7,162.7 726.5,166.7 727.3,170.7 728.1,19.6 728.9,23.6 729.8,28.1 730.7,32.7 731.6,37.2 732.4,41.8 733.3,46.3 734.1,50.9 734.9,55.4 735.8,60.5 736.7,65.6 737.5,70.7 738.4,75.8 739.2,80.9 740.0,86.0 740.8,91.2 741.7,96.8 742.6,102.5 743.4,108.2 744.3,113.9 745.1,119.5 745.9,125.2 746.8,131.5 747.6,137.7 748.5,143.9 749.3,150.2 750.1,78.9 751.0,85.7 751.8,92.6 752.7,99.4 753.5,106.2 754.3,113.0 755.1,120.4 756.0,127.7 756.8,135.1 757.6,142.5 758.5,149.9 759.3,157.8 760.1,165.8 761.0,18.7 761.8,26.7 762.6,35.2 763.5,43.7 764.3,52.2 765.1,60.7 765.9,69.8 766.8,78.9 767.6,88.0 768.4,97.1 769.2,106.7 770.1,116.4 770.9,126.0 771.7,136.2 772.6,146.4 773.4,156.7 774.2,89.4 775.0,100.2 775.8,110.9 776.6,121.7 777.5,133.1 778.3,144.4 779.1,155.8 779.9,167.7 780.7,24.6 781.5,36.5 782.4,49.0 783.2,61.5 784.0,74.0 784.8,87.1 785.6,100.1 786.5,113.7 787.3,127.4 788.1,141.0 788.9,77.7 789.7,91.9 790.5,106.6 791.3,121.4 792.2,136.7 793.0,152.0 793.8,167.4 794.6,28.3 795.4,44.2 796.2,60.6 797.0,77.1 797.8,94.1 798.6,111.1 799.5,128.7 L799.5,93.5 L438.5,93.5 Z" fill="url(#g390)" clip-path="url(#c392)"/>
  <defs><clipPath id="pc393"><rect x="435" y="16" width="365" height="155"/></clipPath></defs>
  <polyline points="438.5,94.1 471.8,94.6 491.3,95.2 505.1,95.8 515.8,96.3 524.6,96.9 532.0,97.5 538.4,98.0 544.1,98.6 549.1,99.2 553.7,99.7 557.9,100.3 561.7,100.9 565.3,101.4 568.6,102.0 571.7,102.6 574.6,103.1 577.3,103.7 579.9,104.3 582.4,104.9 584.7,105.4 587.0,106.0 589.1,106.6 591.2,107.1 593.1,107.7 595.0,108.3 596.8,108.8 598.6,109.4 600.2,110.0 601.9,110.5 603.4,111.1 605.0,111.7 606.5,112.2 607.9,112.8 609.3,113.4 610.6,113.9 611.9,114.5 613.2,115.1 614.5,115.6 615.7,116.2 616.9,116.8 618.0,117.3 619.2,117.9 620.3,118.5 621.3,119.0 622.4,119.6 623.4,120.2 624.4,120.7 625.4,121.3 626.4,121.9 627.4,122.4 628.3,123.0 629.2,123.6 630.1,124.2 631.0,124.7 631.8,125.3 632.7,125.9 633.5,126.4 634.4,127.0 635.2,127.6 636.7,128.7 638.3,129.8 639.7,131.0 641.2,132.1 642.6,133.2 643.9,134.4 645.2,135.5 646.5,136.6 647.8,137.8 649.0,138.9 650.2,140.0 651.3,141.2 652.4,142.3 653.6,143.5 654.6,144.6 655.7,145.7 656.7,146.9 657.7,148.0 658.7,149.1 659.7,150.3 660.6,151.4 661.6,152.5 662.5,153.7 663.4,154.8 664.3,155.9 665.1,157.1 666.0,158.2 666.8,159.3 667.6,160.5 668.4,161.6 669.6,163.3 670.8,165.0 671.9,166.7 673.0,168.4 674.1,170.1 675.2,16.8 676.2,18.5 677.2,20.2 678.2,21.9 679.2,23.6 680.1,25.3 681.0,27.0 682.0,28.8 682.9,30.5 683.7,32.2 684.6,33.9 685.5,35.6 686.3,37.3 687.1,39.0 687.9,40.7 689.0,42.9 690.0,45.2 691.0,47.5 692.0,49.8 693.0,52.0 693.9,54.3 694.9,56.6 695.8,58.8 696.7,61.1 697.6,63.4 698.4,65.6 699.3,67.9 700.1,70.2 700.9,72.5 701.7,74.7 702.7,77.6 703.7,80.4 704.6,83.2 705.6,86.1 706.5,88.9 707.4,91.8 708.3,94.6 709.1,97.4 710.0,100.3 710.8,103.1 711.6,105.9 712.4,108.8 713.4,112.2 714.3,115.6 715.2,119.0 716.1,122.4 717.0,125.8 717.9,129.2 718.7,132.6 719.6,136.0 720.4,139.4 721.2,142.8 722.1,146.8 723.0,150.8 723.9,154.8 724.8,158.7 725.7,162.7 726.5,166.7 727.3,170.7 728.1,19.6 728.9,23.6 729.8,28.1 730.7,32.7 731.6,37.2 732.4,41.8 733.3,46.3 734.1,50.9 734.9,55.4 735.8,60.5 736.7,65.6 737.5,70.7 738.4,75.8 739.2,80.9 740.0,86.0 740.8,91.2 741.7,96.8 742.6,102.5 743.4,108.2 744.3,113.9 745.1,119.5 745.9,125.2 746.8,131.5 747.6,137.7 748.5,143.9 749.3,150.2 750.1,78.9 751.0,85.7 751.8,92.6 752.7,99.4 753.5,106.2 754.3,113.0 755.1,120.4 756.0,127.7 756.8,135.1 757.6,142.5 758.5,149.9 759.3,157.8 760.1,165.8 761.0,18.7 761.8,26.7 762.6,35.2 763.5,43.7 764.3,52.2 765.1,60.7 765.9,69.8 766.8,78.9 767.6,88.0 768.4,97.1 769.2,106.7 770.1,116.4 770.9,126.0 771.7,136.2 772.6,146.4 773.4,156.7 774.2,89.4 775.0,100.2 775.8,110.9 776.6,121.7 777.5,133.1 778.3,144.4 779.1,155.8 779.9,167.7 780.7,24.6 781.5,36.5 782.4,49.0 783.2,61.5 784.0,74.0 784.8,87.1 785.6,100.1 786.5,113.7 787.3,127.4 788.1,141.0 788.9,77.7 789.7,91.9 790.5,106.6 791.3,121.4 792.2,136.7 793.0,152.0 793.8,167.4 794.6,28.3 795.4,44.2 796.2,60.6 797.0,77.1 797.8,94.1 798.6,111.1 799.5,128.7" fill="none" stroke="#e74c3c" stroke-width="1.5" stroke-linejoin="round" clip-path="url(#pc393)"/>
  <line x1="34" y1="207" x2="34" y2="362" stroke="#d1d5db"/>
  <line x1="34" y1="284.5" x2="399" y2="284.5" stroke="#d1d5db"/>
  <text x="216.5" y="388" text-anchor="middle" font-size="9" fill="#6b7280">Hz</text>
  <text x="12" y="284.5" text-anchor="middle" font-size="9" fill="#6b7280" transform="rotate(-90 12 284.5)">Group delay</text>
  <line x1="67.3" y1="207" x2="67.3" y2="362" stroke="#e5e7eb" stroke-width="0.5"/>
  <line x1="86.8" y1="207" x2="86.8" y2="362" stroke="#e5e7eb" stroke-width="0.5"/>
  <line x1="100.6" y1="207" x2="100.6" y2="362" stroke="#e5e7eb" stroke-width="0.5"/>
  <line x1="111.3" y1="207" x2="111.3" y2="362" stroke="#e5e7eb" stroke-width="0.5"/>
  <line x1="120.0" y1="207" x2="120.0" y2="362" stroke="#e5e7eb" stroke-width="0.5"/>
  <line x1="127.4" y1="207" x2="127.4" y2="362" stroke="#e5e7eb" stroke-width="0.5"/>
  <line x1="133.9" y1="207" x2="133.9" y2="362" stroke="#e5e7eb" stroke-width="0.5"/>
  <line x1="139.5" y1="207" x2="139.5" y2="362" stroke="#e5e7eb" stroke-width="0.5"/>
  <line x1="177.9" y1="207" x2="177.9" y2="362" stroke="#e5e7eb" stroke-width="0.5"/>
  <line x1="197.3" y1="207" x2="197.3" y2="362" stroke="#e5e7eb" stroke-width="0.5"/>
  <line x1="211.1" y1="207" x2="211.1" y2="362" stroke="#e5e7eb" stroke-width="0.5"/>
  <line x1="221.9" y1="207" x2="221.9" y2="362" stroke="#e5e7eb" stroke-width="0.5"/>
  <line x1="230.6" y1="207" x2="230.6" y2="362" stroke="#e5e7eb" stroke-width="0.5"/>
  <line x1="238.0" y1="207" x2="238.0" y2="362" stroke="#e5e7eb" stroke-width="0.5"/>
  <line x1="244.4" y1="207" x2="244.4" y2="362" stroke="#e5e7eb" stroke-width="0.5"/>
  <line x1="250.1" y1="207" x2="250.1" y2="362" stroke="#e5e7eb" stroke-width="0.5"/>
  <line x1="288.4" y1="207" x2="288.4" y2="362" stroke="#e5e7eb" stroke-width="0.5"/>
  <line x1="307.9" y1="207" x2="307.9" y2="362" stroke="#e5e7eb" stroke-width="0.5"/>
  <line x1="321.7" y1="207" x2="321.7" y2="362" stroke="#e5e7eb" stroke-width="0.5"/>
  <line x1="332.4" y1="207" x2="332.4" y2="362" stroke="#e5e7eb" stroke-width="0.5"/>
  <line x1="341.2" y1="207" x2="341.2" y2="362" stroke="#e5e7eb" stroke-width="0.5"/>
  <line x1="348.6" y1="207" x2="348.6" y2="362" stroke="#e5e7eb" stroke-width="0.5"/>
  <line x1="355.0" y1="207" x2="355.0" y2="362" stroke="#e5e7eb" stroke-width="0.5"/>
  <line x1="360.7" y1="207" x2="360.7" y2="362" stroke="#e5e7eb" stroke-width="0.5"/>
  <line x1="399.0" y1="207" x2="399.0" y2="362" stroke="#e5e7eb" stroke-width="0.5"/>
  <line x1="144.6" y1="207" x2="144.6" y2="362" stroke="#e5e7eb" stroke-width="0.5"/>
  <text x="144.6" y="374" text-anchor="middle" font-size="8" fill="#6b7280">100</text>
  <line x1="255.1" y1="207" x2="255.1" y2="362" stroke="#e5e7eb" stroke-width="0.5"/>
  <text x="255.1" y="374" text-anchor="middle" font-size="8" fill="#6b7280">1k</text>
  <line x1="365.7" y1="207" x2="365.7" y2="362" stroke="#e5e7eb" stroke-width="0.5"/>
  <text x="365.7" y="374" text-anchor="middle" font-size="8" fill="#6b7280">10k</text>
  <line x1="34" y1="325.9" x2="399" y2="325.9" stroke="#e5e7eb" stroke-width="0.5"/>
  <text x="30" y="328.9" text-anchor="end" font-size="8" fill="#6b7280">-700</text>
  <text x="30" y="287.5" text-anchor="end" font-size="8" fill="#6b7280">0</text>
  <line x1="34" y1="243.1" x2="399" y2="243.1" stroke="#e5e7eb" stroke-width="0.5"/>
  <text x="30" y="246.1" text-anchor="end" font-size="8" fill="#6b7280">700</text>
  <defs><linearGradient id="g394" x1="0" y1="207" x2="0" y2="284.5" gradientUnits="userSpaceOnUse">
    <stop offset="0%" stop-color="#2ecc71" stop-opacity="0.15"/>
    <stop offset="100%" stop-color="#2ecc71" stop-opacity="0.02"/>
  </linearGradient></defs>
  <path d="M37.5,283.6 37.5,283.6 70.8,283.6 90.3,283.6 104.1,283.6 114.8,283.6 123.6,283.6 131.0,283.6 137.4,283.6 143.1,283.6 148.1,283.6 152.7,283.6 156.9,283.6 160.7,283.6 164.3,283.6 167.6,283.6 170.7,283.6 173.6,283.6 176.3,283.6 178.9,283.6 181.4,283.6 183.7,283.6 186.0,283.6 188.1,283.6 190.2,283.6 192.1,283.6 194.0,283.6 195.8,283.6 197.6,283.6 199.2,283.6 200.9,283.6 202.4,283.6 204.0,283.6 205.5,283.6 206.9,283.6 208.3,283.6 209.6,283.6 210.9,283.6 212.2,283.6 213.5,283.6 214.7,283.6 215.9,283.6 217.0,283.6 218.2,283.6 219.3,283.6 220.3,283.6 221.4,283.6 222.4,283.6 223.4,283.6 224.4,283.6 225.4,283.6 226.4,283.6 227.3,283.6 228.2,283.6 229.1,283.6 230.0,283.6 230.8,283.6 231.7,283.6 232.5,283.6 233.4,283.6 234.2,283.6 235.7,283.6 237.3,283.6 238.7,283.6 240.2,283.6 241.6,283.6 242.9,283.6 244.2,283.6 245.5,283.6 246.8,283.6 248.0,283.6 249.2,283.6 250.3,283.6 251.4,283.6 252.6,283.6 253.6,283.6 254.7,283.6 255.7,283.6 256.7,283.6 257.7,283.6 258.7,283.6 259.6,283.6 260.6,283.6 261.5,283.6 262.4,283.6 263.3,283.6 264.1,283.6 265.0,283.6 265.8,283.6 266.6,283.6 267.4,283.6 268.6,283.6 269.8,283.6 270.9,283.6 272.0,283.6 273.1,283.6 274.2,283.6 275.2,283.6 276.2,283.6 277.2,283.6 278.2,283.6 279.1,283.6 280.0,283.6 281.0,283.6 281.9,283.6 282.7,283.6 283.6,283.6 284.5,283.6 285.3,283.6 286.1,283.6 286.9,283.6 288.0,283.6 289.0,283.6 290.0,283.6 291.0,283.6 292.0,283.6 292.9,283.6 293.9,283.6 294.8,283.6 295.7,283.6 296.6,283.6 297.4,283.6 298.3,283.6 299.1,283.6 299.9,283.6 300.7,283.6 301.7,283.6 302.7,283.6 303.6,283.6 304.6,283.6 305.5,283.6 306.4,283.6 307.3,283.6 308.1,283.6 309.0,283.6 309.8,283.6 310.6,283.6 311.4,283.6 312.4,283.6 313.3,283.6 314.2,283.6 315.1,283.6 316.0,283.6 316.9,283.6 317.7,283.6 318.6,283.6 319.4,283.6 320.2,283.6 321.1,283.6 322.0,283.6 322.9,283.6 323.8,283.6 324.7,283.6 325.5,283.6 326.3,283.6 327.1,283.6 327.9,283.6 328.8,283.6 329.7,283.6 330.6,283.6 331.4,283.6 332.3,283.6 333.1,283.6 333.9,283.6 334.8,283.6 335.7,283.6 336.5,283.6 337.4,283.6 338.2,283.6 339.0,283.6 339.8,283.6 340.7,283.6 341.6,283.6 342.4,283.6 343.3,283.6 344.1,283.6 344.9,283.6 345.8,283.6 346.6,283.6 347.5,283.6 348.3,283.6 349.1,283.6 350.0,283.6 350.8,283.6 351.7,283.6 352.5,283.6 353.3,283.6 354.1,283.6 355.0,283.6 355.8,283.6 356.6,283.6 357.5,283.6 358.3,283.6 359.1,283.6 360.0,283.6 360.8,283.6 361.6,283.6 362.5,283.6 363.3,283.6 364.1,283.6 364.9,283.6 365.8,283.6 366.6,283.6 367.4,283.6 368.2,283.6 369.1,283.6 369.9,283.6 370.7,283.6 371.6,283.6 372.4,283.6 373.2,283.6 374.0,283.6 374.8,283.6 375.6,283.6 376.5,283.6 377.3,283.6 378.1,283.6 378.9,283.6 379.7,283.6 380.5,283.6 381.4,283.6 382.2,283.6 383.0,283.6 383.8,283.6 384.6,283.6 385.5,283.6 386.3,283.6 387.1,283.6 387.9,283.6 388.7,283.6 389.5,283.6 390.3,283.6 391.2,283.6 392.0,283.6 392.8,283.6 393.6,283.6 394.4,283.6 395.2,283.6 396.0,283.6 396.8,283.6 397.6,283.6 398.5,283.6 L398.5,284.5 L37.5,284.5 Z" fill="url(#g394)"/>
  <defs><clipPath id="pc395"><rect x="34" y="207" width="365" height="155"/></clipPath></defs>
  <polyline points="37.5,283.6 70.8,283.6 90.3,283.6 104.1,283.6 114.8,283.6 123.6,283.6 131.0,283.6 137.4,283.6 143.1,283.6 148.1,283.6 152.7,283.6 156.9,283.6 160.7,283.6 164.3,283.6 167.6,283.6 170.7,283.6 173.6,283.6 176.3,283.6 178.9,283.6 181.4,283.6 183.7,283.6 186.0,283.6 188.1,283.6 190.2,283.6 192.1,283.6 194.0,283.6 195.8,283.6 197.6,283.6 199.2,283.6 200.9,283.6 202.4,283.6 204.0,283.6 205.5,283.6 206.9,283.6 208.3,283.6 209.6,283.6 210.9,283.6 212.2,283.6 213.5,283.6 214.7,283.6 215.9,283.6 217.0,283.6 218.2,283.6 219.3,283.6 220.3,283.6 221.4,283.6 222.4,283.6 223.4,283.6 224.4,283.6 225.4,283.6 226.4,283.6 227.3,283.6 228.2,283.6 229.1,283.6 230.0,283.6 230.8,283.6 231.7,283.6 232.5,283.6 233.4,283.6 234.2,283.6 235.7,283.6 237.3,283.6 238.7,283.6 240.2,283.6 241.6,283.6 242.9,283.6 244.2,283.6 245.5,283.6 246.8,283.6 248.0,283.6 249.2,283.6 250.3,283.6 251.4,283.6 252.6,283.6 253.6,283.6 254.7,283.6 255.7,283.6 256.7,283.6 257.7,283.6 258.7,283.6 259.6,283.6 260.6,283.6 261.5,283.6 262.4,283.6 263.3,283.6 264.1,283.6 265.0,283.6 265.8,283.6 266.6,283.6 267.4,283.6 268.6,283.6 269.8,283.6 270.9,283.6 272.0,283.6 273.1,283.6 274.2,283.6 275.2,283.6 276.2,283.6 277.2,283.6 278.2,283.6 279.1,283.6 280.0,283.6 281.0,283.6 281.9,283.6 282.7,283.6 283.6,283.6 284.5,283.6 285.3,283.6 286.1,283.6 286.9,283.6 288.0,283.6 289.0,283.6 290.0,283.6 291.0,283.6 292.0,283.6 292.9,283.6 293.9,283.6 294.8,283.6 295.7,283.6 296.6,283.6 297.4,283.6 298.3,283.6 299.1,283.6 299.9,283.6 300.7,283.6 301.7,283.6 302.7,283.6 303.6,283.6 304.6,283.6 305.5,283.6 306.4,283.6 307.3,283.6 308.1,283.6 309.0,283.6 309.8,283.6 310.6,283.6 311.4,283.6 312.4,283.6 313.3,283.6 314.2,283.6 315.1,283.6 316.0,283.6 316.9,283.6 317.7,283.6 318.6,283.6 319.4,283.6 320.2,283.6 321.1,283.6 322.0,283.6 322.9,283.6 323.8,283.6 324.7,283.6 325.5,283.6 326.3,283.6 327.1,283.6 327.9,283.6 328.8,283.6 329.7,283.6 330.6,283.6 331.4,283.6 332.3,283.6 333.1,283.6 333.9,283.6 334.8,283.6 335.7,283.6 336.5,283.6 337.4,283.6 338.2,283.6 339.0,283.6 339.8,283.6 340.7,283.6 341.6,283.6 342.4,283.6 343.3,283.6 344.1,283.6 344.9,283.6 345.8,283.6 346.6,283.6 347.5,283.6 348.3,283.6 349.1,283.6 350.0,283.6 350.8,283.6 351.7,283.6 352.5,283.6 353.3,283.6 354.1,283.6 355.0,283.6 355.8,283.6 356.6,283.6 357.5,283.6 358.3,283.6 359.1,283.6 360.0,283.6 360.8,283.6 361.6,283.6 362.5,283.6 363.3,283.6 364.1,283.6 364.9,283.6 365.8,283.6 366.6,283.6 367.4,283.6 368.2,283.6 369.1,283.6 369.9,283.6 370.7,283.6 371.6,283.6 372.4,283.6 373.2,283.6 374.0,283.6 374.8,283.6 375.6,283.6 376.5,283.6 377.3,283.6 378.1,283.6 378.9,283.6 379.7,283.6 380.5,283.6 381.4,283.6 382.2,283.6 383.0,283.6 383.8,283.6 384.6,283.6 385.5,283.6 386.3,283.6 387.1,283.6 387.9,283.6 388.7,283.6 389.5,283.6 390.3,283.6 391.2,283.6 392.0,283.6 392.8,283.6 393.6,283.6 394.4,283.6 395.2,283.6 396.0,283.6 396.8,283.6 397.6,283.6 398.5,283.6" fill="none" stroke="#2ecc71" stroke-width="1.5" stroke-linejoin="round" clip-path="url(#pc395)"/>
  <line x1="435" y1="207" x2="435" y2="362" stroke="#d1d5db"/>
  <line x1="435" y1="284.5" x2="800" y2="284.5" stroke="#d1d5db"/>
  <text x="617.5" y="388" text-anchor="middle" font-size="9" fill="#6b7280">Samples</text>
  <text x="413" y="284.5" text-anchor="middle" font-size="9" fill="#6b7280" transform="rotate(-90 413 284.5)">Impulse response</text>
  <line x1="435.0" y1="207" x2="435.0" y2="362" stroke="#e5e7eb" stroke-width="0.5"/>
  <text x="435.0" y="374" text-anchor="middle" font-size="8" fill="#6b7280">0</text>
  <line x1="670.5" y1="207" x2="670.5" y2="362" stroke="#e5e7eb" stroke-width="0.5"/>
  <text x="670.5" y="374" text-anchor="middle" font-size="8" fill="#6b7280">20</text>
  <line x1="435" y1="359.2" x2="800" y2="359.2" stroke="#e5e7eb" stroke-width="0.5"/>
  <text x="431" y="362.2" text-anchor="end" font-size="8" fill="#6b7280">-0.2</text>
  <text x="431" y="287.5" text-anchor="end" font-size="8" fill="#6b7280">0</text>
  <line x1="435" y1="209.8" x2="800" y2="209.8" stroke="#e5e7eb" stroke-width="0.5"/>
  <text x="431" y="212.8" text-anchor="end" font-size="8" fill="#6b7280">0.2</text>
  <defs><linearGradient id="g396" x1="0" y1="207" x2="0" y2="284.5" gradientUnits="userSpaceOnUse">
    <stop offset="0%" stop-color="#f39c12" stop-opacity="0.15"/>
    <stop offset="100%" stop-color="#f39c12" stop-opacity="0.02"/>
  </linearGradient></defs>
  <defs><linearGradient id="g397" x1="0" y1="362" x2="0" y2="284.5" gradientUnits="userSpaceOnUse">
    <stop offset="0%" stop-color="#f39c12" stop-opacity="0.15"/>
    <stop offset="100%" stop-color="#f39c12" stop-opacity="0.02"/>
  </linearGradient></defs>
  <defs><clipPath id="c398"><rect x="435" y="207" width="365" height="77.5"/></clipPath></defs>
  <defs><clipPath id="c399"><rect x="435" y="284.5" width="365" height="77.5"/></clipPath></defs>
  <path d="M435.0,284.5 435.0,284.5 446.8,284.5 458.5,284.5 470.3,284.5 482.1,284.5 493.9,284.5 505.6,284.5 517.4,284.5 529.2,284.5 541.0,284.5 552.7,315.8 564.5,276.7 576.3,246.2 588.1,224.4 599.8,211.4 611.6,207.0 623.4,211.4 635.2,224.4 646.9,246.2 658.7,276.7 670.5,315.8 682.3,284.5 694.0,284.5 705.8,284.5 717.6,284.5 729.4,284.5 741.1,284.5 752.9,284.5 764.7,284.5 776.5,284.5 788.2,284.5 L788.2,284.5 L435.0,284.5 Z" fill="url(#g396)" clip-path="url(#c398)"/>
  <path d="M435.0,284.5 435.0,284.5 446.8,284.5 458.5,284.5 470.3,284.5 482.1,284.5 493.9,284.5 505.6,284.5 517.4,284.5 529.2,284.5 541.0,284.5 552.7,315.8 564.5,276.7 576.3,246.2 588.1,224.4 599.8,211.4 611.6,207.0 623.4,211.4 635.2,224.4 646.9,246.2 658.7,276.7 670.5,315.8 682.3,284.5 694.0,284.5 705.8,284.5 717.6,284.5 729.4,284.5 741.1,284.5 752.9,284.5 764.7,284.5 776.5,284.5 788.2,284.5 L788.2,284.5 L435.0,284.5 Z" fill="url(#g397)" clip-path="url(#c399)"/>
  <defs><clipPath id="pc400"><rect x="435" y="207" width="365" height="155"/></clipPath></defs>
  <polyline points="435.0,284.5 446.8,284.5 458.5,284.5 470.3,284.5 482.1,284.5 493.9,284.5 505.6,284.5 517.4,284.5 529.2,284.5 541.0,284.5 552.7,315.8 564.5,276.7 576.3,246.2 588.1,224.4 599.8,211.4 611.6,207.0 623.4,211.4 635.2,224.4 646.9,246.2 658.7,276.7 670.5,315.8 682.3,284.5 694.0,284.5 705.8,284.5 717.6,284.5 729.4,284.5 741.1,284.5 752.9,284.5 764.7,284.5 776.5,284.5 788.2,284.5" fill="none" stroke="#f39c12" stroke-width="1.3" stroke-linejoin="round" clip-path="url(#pc400)"/>
</svg>
