<svg xmlns="http://www.w3.org/2000/svg" viewBox="0 0 820 378" style="font-family:system-ui,-apple-system,sans-serif">
  <text x="800" y="11" text-anchor="end" font-size="11" font-weight="600" fill="#6b7280">Slew limiter, rate=1000/s</text>
  <line x1="34" y1="16" x2="34" y2="171" stroke="#d1d5db"/>
  <line x1="34" y1="47.0" x2="399" y2="47.0" stroke="#d1d5db"/>
  <text x="216.5" y="197" text-anchor="middle" font-size="9" fill="#6b7280">Hz</text>
  <text x="12" y="93.5" text-anchor="middle" font-size="9" fill="#6b7280" transform="rotate(-90 12 93.5)">dB</text>
  <line x1="67.3" y1="16" x2="67.3" y2="171" stroke="#e5e7eb" stroke-width="0.5"/>
  <line x1="86.8" y1="16" x2="86.8" y2="171" stroke="#e5e7eb" stroke-width="0.5"/>
  <line x1="100.6" y1="16" x2="100.6" y2="171" stroke="#e5e7eb" stroke-width="0.5"/>
  <line x1="111.3" y1="16" x2="111.3" y2="171" stroke="#e5e7eb" stroke-width="0.5"/>
  <line x1="120.0" y1="16" x2="120.0" y2="171" stroke="#e5e7eb" stroke-width="0.5"/>
  <line x1="127.4" y1="16" x2="127.4" y2="171" stroke="#e5e7eb" stroke-width="0.5"/>
  <line x1="133.9" y1="16" x2="133.9" y2="171" stroke="#e5e7eb" stroke-width="0.5"/>
  <line x1="139.5" y1="16" x2="139.5" y2="171" stroke="#e5e7eb" stroke-width="0.5"/>
  <line x1="177.9" y1="16" x2="177.9" y2="171" stroke="#e5e7eb" stroke-width="0.5"/>
  <line x1="197.3" y1="16" x2="197.3" y2="171" stroke="#e5e7eb" stroke-width="0.5"/>
  <line x1="211.1" y1="16" x2="211.1" y2="171" stroke="#e5e7eb" stroke-width="0.5"/>
  <line x1="221.9" y1="16" x2="221.9" y2="171" stroke="#e5e7eb" stroke-width="0.5"/>
  <line x1="230.6" y1="16" x2="230.6" y2="171" stroke="#e5e7eb" stroke-width="0.5"/>
  <line x1="238.0" y1="16" x2="238.0" y2="171" stroke="#e5e7eb" stroke-width="0.5"/>
  <line x1="244.4" y1="16" x2="244.4" y2="171" stroke="#e5e7eb" stroke-width="0.5"/>
  <line x1="250.1" y1="16" x2="250.1" y2="171" stroke="#e5e7eb" stroke-width="0.5"/>
  <line x1="288.4" y1="16" x2="288.4" y2="171" stroke="#e5e7eb" stroke-width="0.5"/>
  <line x1="307.9" y1="16" x2="307.9" y2="171" stroke="#e5e7eb" stroke-width="0.5"/>
  <line x1="321.7" y1="16" x2="321.7" y2="171" stroke="#e5e7eb" stroke-width="0.5"/>
  <line x1="332.4" y1="16" x2="332.4" y2="171" stroke="#e5e7eb" stroke-width="0.5"/>
  <line x1="341.2" y1="16" x2="341.2" y2="171" stroke="#e5e7eb" stroke-width="0.5"/>
  <line x1="348.6" y1="16" x2="348.6" y2="171" stroke="#e5e7eb" stroke-width="0.5"/>
  <line x1="355.0" y1="16" x2="355.0" y2="171" stroke="#e5e7eb" stroke-width="0.5"/>
  <line x1="360.7" y1="16" x2="360.7" y2="171" stroke="#e5e7eb" stroke-width="0.5"/>
  <line x1="399.0" y1="16" x2="399.0" y2="171" stroke="#e5e7eb" stroke-width="0.5"/>
  <line x1="144.6" y1="16" x2="144.6" y2="171" stroke="#e5e7eb" stroke-width="0.5"/>
  <text x="144.6" y="183" text-anchor="middle" font-size="8" fill="#6b7280">100</text>
  <line x1="255.1" y1="16" x2="255.1" y2="171" stroke="#e5e7eb" stroke-width="0.5"/>
  <text x="255.1" y="183" text-anchor="middle" font-size="8" fill="#6b7280">1k</text>
  <line x1="365.7" y1="16" x2="365.7" y2="171" stroke="#e5e7eb" stroke-width="0.5"/>
  <text x="365.7" y="183" text-anchor="middle" font-size="8" fill="#6b7280">10k</text>
  <line x1="34" y1="31.5" x2="399" y2="31.5" stroke="#e5e7eb" stroke-width="0.5"/>
  <line x1="34" y1="62.5" x2="399" y2="62.5" stroke="#e5e7eb" stroke-width="0.5"/>
  <line x1="34" y1="16.0" x2="399" y2="16.0" stroke="#e5e7eb" stroke-width="0.5"/>
  <text x="30" y="19.0" text-anchor="end" font-size="8" fill="#6b7280">+20</text>
  <text x="30" y="50.0" text-anchor="end" font-size="8" fill="#6b7280">0</text>
  <line x1="34" y1="78.0" x2="399" y2="78.0" stroke="#e5e7eb" stroke-width="0.5"/>
  <text x="30" y="81.0" text-anchor="end" font-size="8" fill="#6b7280">-20</text>
  <line x1="34" y1="109.0" x2="399" y2="109.0" stroke="#e5e7eb" stroke-width="0.5"/>
  <text x="30" y="112.0" text-anchor="end" font-size="8" fill="#6b7280">-40</text>
  <line x1="34" y1="140.0" x2="399" y2="140.0" stroke="#e5e7eb" stroke-width="0.5"/>
  <text x="30" y="143.0" text-anchor="end" font-size="8" fill="#6b7280">-60</text>
  <line x1="34" y1="171.0" x2="399" y2="171.0" stroke="#e5e7eb" stroke-width="0.5"/>
  <text x="30" y="174.0" text-anchor="end" font-size="8" fill="#6b7280">-80</text>
  <defs><linearGradient id="g749" x1="0" y1="16" x2="0" y2="171" gradientUnits="userSpaceOnUse">
    <stop offset="0%" stop-color="#4a90d9" stop-opacity="0.15"/>
    <stop offset="100%" stop-color="#4a90d9" stop-opacity="0.02"/>
  </linearGradient></defs>
  <path d="M37.5,16.0 37.5,16.0 70.8,16.0 90.3,16.0 104.1,16.0 114.8,16.0 123.6,16.0 131.0,16.0 137.4,16.0 143.1,16.0 148.1,16.0 152.7,16.0 156.9,16.0 160.7,16.0 164.3,16.0 167.6,16.0 170.7,16.0 173.6,16.0 176.3,16.0 178.9,16.0 181.4,16.0 183.7,16.0 186.0,16.0 188.1,16.0 190.2,16.0 192.1,16.0 194.0,16.0 195.8,16.0 197.6,16.0 199.2,16.0 200.9,16.0 202.4,16.0 204.0,16.0 205.5,16.0 206.9,16.0 208.3,16.0 209.6,16.0 210.9,16.0 212.2,16.0 213.5,16.0 214.7,16.0 215.9,16.0 217.0,16.0 218.2,16.0 219.3,16.0 220.3,16.0 221.4,16.0 222.4,16.0 223.4,16.0 224.4,16.0 225.4,16.0 226.4,16.0 227.3,16.0 228.2,16.0 229.1,16.0 230.0,16.0 230.8,16.0 231.7,16.0 232.5,16.0 233.4,16.0 234.2,16.0 235.7,16.0 237.3,16.0 238.7,16.0 240.2,16.0 241.6,16.0 242.9,16.0 244.2,16.0 245.5,16.0 246.8,16.3 248.0,16.9 249.2,17.5 250.3,18.1 251.4,18.7 252.6,19.3 253.6,19.9 254.7,20.5 255.7,21.1 256.7,21.6 257.7,22.2 258.7,22.7 259.6,23.1 260.6,23.6 261.5,24.0 262.4,24.3 263.3,24.6 264.1,24.9 265.0,25.1 265.8,25.2 266.6,25.4 267.4,25.4 268.6,25.5 269.8,25.6 270.9,25.6 272.0,25.6 273.1,25.6 274.2,25.6 275.2,25.6 276.2,25.7 277.2,25.8 278.2,25.9 279.1,26.1 280.0,26.3 281.0,26.6 281.9,26.9 282.7,27.2 283.6,27.6 284.5,27.9 285.3,28.3 286.1,28.8 286.9,29.2 288.0,29.8 289.0,30.4 290.0,30.9 291.0,31.4 292.0,31.8 292.9,32.1 293.9,32.3 294.8,32.5 295.7,32.6 296.6,32.6 297.4,32.6 298.3,32.6 299.1,32.6 299.9,32.7 300.7,32.7 301.7,32.9 302.7,33.1 303.6,33.4 304.6,33.7 305.5,34.2 306.4,34.6 307.3,35.1 308.1,35.6 309.0,36.0 309.8,36.4 310.6,36.7 311.4,36.9 312.4,37.1 313.3,37.1 314.2,37.1 315.1,37.1 316.0,37.2 316.9,37.3 317.7,37.4 318.6,37.7 319.4,38.0 320.2,38.4 321.1,38.9 322.0,39.4 322.9,39.8 323.8,40.2 324.7,40.4 325.5,40.4 326.3,40.5 327.1,40.5 327.9,40.5 328.8,40.6 329.7,40.8 330.6,41.2 331.4,41.6 332.3,42.1 333.1,42.5 333.9,42.8 334.8,43.0 335.7,43.1 336.5,43.1 337.4,43.1 338.2,43.2 339.0,43.4 339.8,43.8 340.7,44.2 341.6,44.7 342.4,45.0 343.3,45.2 344.1,45.2 344.9,45.2 345.8,45.2 346.6,45.4 347.5,45.8 348.3,46.2 349.1,46.6 350.0,46.9 350.8,47.0 351.7,46.9 352.5,47.0 353.3,47.2 354.1,47.6 355.0,48.0 355.8,48.3 356.6,48.5 357.5,48.5 358.3,48.5 359.1,48.7 360.0,49.0 360.8,49.5 361.6,49.7 362.5,49.8 363.3,49.7 364.1,49.9 364.9,50.2 365.8,50.6 366.6,50.9 367.4,50.9 368.2,50.9 369.1,51.1 369.9,51.4 370.7,51.8 371.6,51.9 372.4,51.8 373.2,51.9 374.0,52.3 374.8,52.6 375.6,52.7 376.5,52.7 377.3,52.8 378.1,53.2 378.9,53.4 379.7,53.4 380.5,53.4 381.4,53.7 382.2,54.0 383.0,54.1 383.8,54.0 384.6,54.3 385.5,54.6 386.3,54.6 387.1,54.6 387.9,54.9 388.7,55.1 389.5,55.0 390.3,55.1 391.2,55.4 392.0,55.4 392.8,55.4 393.6,55.6 394.4,55.8 395.2,55.6 396.0,55.8 396.8,56.0 397.6,55.9 398.5,56.0 L398.5,171.0 L37.5,171.0 Z" fill="url(#g749)"/>
  <defs><clipPath id="pc750"><rect x="34" y="16" width="365" height="155"/></clipPath></defs>
  <polyline points="37.5,5.1 70.8,5.1 90.3,5.1 104.1,5.1 114.8,5.1 123.6,5.1 131.0,5.1 137.4,5.2 143.1,5.2 148.1,5.2 152.7,5.3 156.9,5.3 160.7,5.3 164.3,5.4 167.6,5.4 170.7,5.5 173.6,5.6 176.3,5.6 178.9,5.7 181.4,5.8 183.7,5.8 186.0,5.9 188.1,6.0 190.2,6.1 192.1,6.2 194.0,6.2 195.8,6.3 197.6,6.4 199.2,6.5 200.9,6.6 202.4,6.8 204.0,6.9 205.5,7.0 206.9,7.1 208.3,7.2 209.6,7.4 210.9,7.5 212.2,7.6 213.5,7.8 214.7,7.9 215.9,8.1 217.0,8.2 218.2,8.4 219.3,8.5 220.3,8.7 221.4,8.9 222.4,9.0 223.4,9.2 224.4,9.4 225.4,9.6 226.4,9.7 227.3,9.9 228.2,10.1 229.1,10.3 230.0,10.5 230.8,10.7 231.7,11.0 232.5,11.2 233.4,11.4 234.2,11.6 235.7,12.1 237.3,12.6 238.7,13.1 240.2,13.6 241.6,14.1 242.9,14.6 244.2,15.2 245.5,15.7 246.8,16.3 248.0,16.9 249.2,17.5 250.3,18.1 251.4,18.7 252.6,19.3 253.6,19.9 254.7,20.5 255.7,21.1 256.7,21.6 257.7,22.2 258.7,22.7 259.6,23.1 260.6,23.6 261.5,24.0 262.4,24.3 263.3,24.6 264.1,24.9 265.0,25.1 265.8,25.2 266.6,25.4 267.4,25.4 268.6,25.5 269.8,25.6 270.9,25.6 272.0,25.6 273.1,25.6 274.2,25.6 275.2,25.6 276.2,25.7 277.2,25.8 278.2,25.9 279.1,26.1 280.0,26.3 281.0,26.6 281.9,26.9 282.7,27.2 283.6,27.6 284.5,27.9 285.3,28.3 286.1,28.8 286.9,29.2 288.0,29.8 289.0,30.4 290.0,30.9 291.0,31.4 292.0,31.8 292.9,32.1 293.9,32.3 294.8,32.5 295.7,32.6 296.6,32.6 297.4,32.6 298.3,32.6 299.1,32.6 299.9,32.7 300.7,32.7 301.7,32.9 302.7,33.1 303.6,33.4 304.6,33.7 305.5,34.2 306.4,34.6 307.3,35.1 308.1,35.6 309.0,36.0 309.8,36.4 310.6,36.7 311.4,36.9 312.4,37.1 313.3,37.1 314.2,37.1 315.1,37.1 316.0,37.2 316.9,37.3 317.7,37.4 318.6,37.7 319.4,38.0 320.2,38.4 321.1,38.9 322.0,39.4 322.9,39.8 323.8,40.2 324.7,40.4 325.5,40.4 326.3,40.5 327.1,40.5 327.9,40.5 328.8,40.6 329.7,40.8 330.6,41.2 331.4,41.6 332.3,42.1 333.1,42.5 333.9,42.8 334.8,43.0 335.7,43.1 336.5,43.1 337.4,43.1 338.2,43.2 339.0,43.4 339.8,43.8 340.7,44.2 341.6,44.7 342.4,45.0 343.3,45.2 344.1,45.2 344.9,45.2 345.8,45.2 346.6,45.4 347.5,45.8 348.3,46.2 349.1,46.6 350.0,46.9 350.8,47.0 351.7,46.9 352.5,47.0 353.3,47.2 354.1,47.6 355.0,48.0 355.8,48.3 356.6,48.5 357.5,48.5 358.3,48.5 359.1,48.7 360.0,49.0 360.8,49.5 361.6,49.7 362.5,49.8 363.3,49.7 364.1,49.9 364.9,50.2 365.8,50.6 366.6,50.9 367.4,50.9 368.2,50.9 369.1,51.1 369.9,51.4 370.7,51.8 371.6,51.9 372.4,51.8 373.2,51.9 374.0,52.3 374.8,52.6 375.6,52.7 376.5,52.7 377.3,52.8 378.1,53.2 378.9,53.4 379.7,53.4 380.5,53.4 381.4,53.7 382.2,54.0 383.0,54.1 383.8,54.0 384.6,54.3 385.5,54.6 386.3,54.6 387.1,54.6 387.9,54.9 388.7,55.1 389.5,55.0 390.3,55.1 391.2,55.4 392.0,55.4 392.8,55.4 393.6,55.6 394.4,55.8 395.2,55.6 396.0,55.8 396.8,56.0 397.6,55.9 398.5,56.0" fill="none" stroke="#4a90d9" stroke-width="1.5" stroke-linejoin="round" clip-path="url(#pc750)"/>
  <line x1="435" y1="16" x2="435" y2="171" stroke="#d1d5db"/>
  <line x1="435" y1="93.5" x2="800" y2="93.5" stroke="#d1d5db"/>
  <text x="617.5" y="197" text-anchor="middle" font-size="9" fill="#6b7280">Hz</text>
  <text x="413" y="93.5" text-anchor="middle" font-size="9" fill="#6b7280" transform="rotate(-90 413 93.5)">Phase (deg)</text>
  <line x1="468.3" y1="16" x2="468.3" y2="171" stroke="#e5e7eb" stroke-width="0.5"/>
  <line x1="487.8" y1="16" x2="487.8" y2="171" stroke="#e5e7eb" stroke-width="0.5"/>
  <line x1="501.6" y1="16" x2="501.6" y2="171" stroke="#e5e7eb" stroke-width="0.5"/>
  <line x1="512.3" y1="16" x2="512.3" y2="171" stroke="#e5e7eb" stroke-width="0.5"/>
  <line x1="521.0" y1="16" x2="521.0" y2="171" stroke="#e5e7eb" stroke-width="0.5"/>
  <line x1="528.4" y1="16" x2="528.4" y2="171" stroke="#e5e7eb" stroke-width="0.5"/>
  <line x1="534.9" y1="16" x2="534.9" y2="171" stroke="#e5e7eb" stroke-width="0.5"/>
  <line x1="540.5" y1="16" x2="540.5" y2="171" stroke="#e5e7eb" stroke-width="0.5"/>
  <line x1="578.9" y1="16" x2="578.9" y2="171" stroke="#e5e7eb" stroke-width="0.5"/>
  <line x1="598.3" y1="16" x2="598.3" y2="171" stroke="#e5e7eb" stroke-width="0.5"/>
  <line x1="612.1" y1="16" x2="612.1" y2="171" stroke="#e5e7eb" stroke-width="0.5"/>
  <line x1="622.9" y1="16" x2="622.9" y2="171" stroke="#e5e7eb" stroke-width="0.5"/>
  <line x1="631.6" y1="16" x2="631.6" y2="171" stroke="#e5e7eb" stroke-width="0.5"/>
  <line x1="639.0" y1="16" x2="639.0" y2="171" stroke="#e5e7eb" stroke-width="0.5"/>
  <line x1="645.4" y1="16" x2="645.4" y2="171" stroke="#e5e7eb" stroke-width="0.5"/>
  <line x1="651.1" y1="16" x2="651.1" y2="171" stroke="#e5e7eb" stroke-width="0.5"/>
  <line x1="689.4" y1="16" x2="689.4" y2="171" stroke="#e5e7eb" stroke-width="0.5"/>
  <line x1="708.9" y1="16" x2="708.9" y2="171" stroke="#e5e7eb" stroke-width="0.5"/>
  <line x1="722.7" y1="16" x2="722.7" y2="171" stroke="#e5e7eb" stroke-width="0.5"/>
  <line x1="733.4" y1="16" x2="733.4" y2="171" stroke="#e5e7eb" stroke-width="0.5"/>
  <line x1="742.2" y1="16" x2="742.2" y2="171" stroke="#e5e7eb" stroke-width="0.5"/>
  <line x1="749.6" y1="16" x2="749.6" y2="171" stroke="#e5e7eb" stroke-width="0.5"/>
  <line x1="756.0" y1="16" x2="756.0" y2="171" stroke="#e5e7eb" stroke-width="0.5"/>
  <line x1="761.7" y1="16" x2="761.7" y2="171" stroke="#e5e7eb" stroke-width="0.5"/>
  <line x1="800.0" y1="16" x2="800.0" y2="171" stroke="#e5e7eb" stroke-width="0.5"/>
  <line x1="545.6" y1="16" x2="545.6" y2="171" stroke="#e5e7eb" stroke-width="0.5"/>
  <text x="545.6" y="183" text-anchor="middle" font-size="8" fill="#6b7280">100</text>
  <line x1="656.1" y1="16" x2="656.1" y2="171" stroke="#e5e7eb" stroke-width="0.5"/>
  <text x="656.1" y="183" text-anchor="middle" font-size="8" fill="#6b7280">1k</text>
  <line x1="766.7" y1="16" x2="766.7" y2="171" stroke="#e5e7eb" stroke-width="0.5"/>
  <text x="766.7" y="183" text-anchor="middle" font-size="8" fill="#6b7280">10k</text>
  <line x1="435" y1="58.6" x2="800" y2="58.6" stroke="#e5e7eb" stroke-width="0.5"/>
  <line x1="435" y1="128.4" x2="800" y2="128.4" stroke="#e5e7eb" stroke-width="0.5"/>
  <line x1="435" y1="23.8" x2="800" y2="23.8" stroke="#e5e7eb" stroke-width="0.5"/>
  <text x="431" y="26.8" text-anchor="end" font-size="8" fill="#6b7280">180</text>
  <text x="431" y="96.5" text-anchor="end" font-size="8" fill="#6b7280">0</text>
  <line x1="435" y1="163.3" x2="800" y2="163.3" stroke="#e5e7eb" stroke-width="0.5"/>
  <text x="431" y="166.3" text-anchor="end" font-size="8" fill="#6b7280">-180</text>
  <defs><linearGradient id="g751" x1="0" y1="171" x2="0" y2="93.5" gradientUnits="userSpaceOnUse">
    <stop offset="0%" stop-color="#e74c3c" stop-opacity="0.15"/>
    <stop offset="100%" stop-color="#e74c3c" stop-opacity="0.02"/>
  </linearGradient></defs>
  <path d="M438.5,94.0 438.5,94.0 471.8,94.5 491.3,95.0 505.1,95.5 515.8,95.9 524.6,96.4 532.0,96.9 538.4,97.4 544.1,97.9 549.1,98.4 553.7,98.9 557.9,99.4 561.7,99.8 565.3,100.3 568.6,100.8 571.7,101.3 574.6,101.8 577.3,102.3 579.9,102.7 582.4,103.2 584.7,103.7 587.0,104.2 589.1,104.6 591.2,105.1 593.1,105.6 595.0,106.1 596.8,106.5 598.6,107.0 600.2,107.5 601.9,107.9 603.4,108.4 605.0,108.9 606.5,109.3 607.9,109.8 609.3,110.2 610.6,110.7 611.9,111.1 613.2,111.6 614.5,112.0 615.7,112.5 616.9,112.9 618.0,113.3 619.2,113.8 620.3,114.2 621.3,114.6 622.4,115.0 623.4,115.5 624.4,115.9 625.4,116.3 626.4,116.7 627.4,117.1 628.3,117.5 629.2,117.9 630.1,118.3 631.0,118.7 631.8,119.0 632.7,119.4 633.5,119.8 634.4,120.1 635.2,120.5 636.7,121.2 638.3,121.9 639.7,122.5 641.2,123.1 642.6,123.7 643.9,124.2 645.2,124.7 646.5,125.1 647.8,125.6 649.0,125.9 650.2,126.2 651.3,126.5 652.4,126.6 653.6,126.8 654.6,126.8 655.7,126.8 656.7,126.7 657.7,126.6 658.7,126.4 659.7,126.1 660.6,125.8 661.6,125.5 662.5,125.1 663.4,124.7 664.3,124.2 665.1,123.8 666.0,123.4 666.8,123.0 667.6,122.6 668.4,122.3 669.6,121.9 670.8,121.5 671.9,121.4 673.0,121.3 674.1,121.3 675.2,121.4 676.2,121.6 677.2,121.8 678.2,122.1 679.2,122.5 680.1,122.8 681.0,123.2 682.0,123.6 682.9,124.0 683.7,124.3 684.6,124.6 685.5,124.8 686.3,125.0 687.1,125.2 687.9,125.3 689.0,125.3 690.0,125.1 691.0,124.8 692.0,124.5 693.0,124.0 693.9,123.5 694.9,123.0 695.8,122.6 696.7,122.2 697.6,121.9 698.4,121.7 699.3,121.7 700.1,121.7 700.9,121.8 701.7,122.0 702.7,122.3 703.7,122.7 704.6,123.0 705.6,123.4 706.5,123.6 707.4,123.7 708.3,123.7 709.1,123.6 710.0,123.3 710.8,122.9 711.6,122.5 712.4,122.0 713.4,121.5 714.3,121.2 715.2,121.0 716.1,120.9 717.0,121.0 717.9,121.2 718.7,121.5 719.6,121.8 720.4,122.0 721.2,122.2 722.1,122.1 723.0,121.9 723.9,121.6 724.8,121.1 725.7,120.6 726.5,120.1 727.3,119.9 728.1,119.8 728.9,119.9 729.8,120.1 730.7,120.3 731.6,120.6 732.4,120.6 733.3,120.5 734.1,120.2 734.9,119.7 735.8,119.2 736.7,118.7 737.5,118.5 738.4,118.5 739.2,118.7 740.0,118.9 740.8,119.1 741.7,119.0 742.6,118.7 743.4,118.2 744.3,117.6 745.1,117.3 745.9,117.1 746.8,117.2 747.6,117.4 748.5,117.5 749.3,117.4 750.1,117.0 751.0,116.4 751.8,115.9 752.7,115.7 753.5,115.8 754.3,115.9 755.1,116.0 756.0,115.7 756.8,115.2 757.6,114.6 758.5,114.3 759.3,114.3 760.1,114.4 761.0,114.4 761.8,114.1 762.6,113.4 763.5,112.9 764.3,112.8 765.1,112.8 765.9,112.9 766.8,112.5 767.6,111.9 768.4,111.4 769.2,111.3 770.1,111.3 770.9,111.2 771.7,110.6 772.6,110.0 773.4,109.7 774.2,109.8 775.0,109.7 775.8,109.1 776.6,108.5 777.5,108.2 778.3,108.2 779.1,108.0 779.9,107.3 780.7,106.8 781.5,106.7 782.4,106.6 783.2,105.9 784.0,105.3 784.8,105.1 785.6,105.0 786.5,104.4 787.3,103.7 788.1,103.6 788.9,103.4 789.7,102.7 790.5,102.1 791.3,102.0 792.2,101.5 793.0,100.7 793.8,100.5 794.6,100.2 795.4,99.4 796.2,99.0 797.0,98.8 797.8,98.0 798.6,97.4 799.5,97.3 L799.5,93.5 L438.5,93.5 Z" fill="url(#g751)"/>
  <defs><clipPath id="pc752"><rect x="435" y="16" width="365" height="155"/></clipPath></defs>
  <polyline points="438.5,94.0 471.8,94.5 491.3,95.0 505.1,95.5 515.8,95.9 524.6,96.4 532.0,96.9 538.4,97.4 544.1,97.9 549.1,98.4 553.7,98.9 557.9,99.4 561.7,99.8 565.3,100.3 568.6,100.8 571.7,101.3 574.6,101.8 577.3,102.3 579.9,102.7 582.4,103.2 584.7,103.7 587.0,104.2 589.1,104.6 591.2,105.1 593.1,105.6 595.0,106.1 596.8,106.5 598.6,107.0 600.2,107.5 601.9,107.9 603.4,108.4 605.0,108.9 606.5,109.3 607.9,109.8 609.3,110.2 610.6,110.7 611.9,111.1 613.2,111.6 614.5,112.0 615.7,112.5 616.9,112.9 618.0,113.3 619.2,113.8 620.3,114.2 621.3,114.6 622.4,115.0 623.4,115.5 624.4,115.9 625.4,116.3 626.4,116.7 627.4,117.1 628.3,117.5 629.2,117.9 630.1,118.3 631.0,118.7 631.8,119.0 632.7,119.4 633.5,119.8 634.4,120.1 635.2,120.5 636.7,121.2 638.3,121.9 639.7,122.5 641.2,123.1 642.6,123.7 643.9,124.2 645.2,124.7 646.5,125.1 647.8,125.6 649.0,125.9 650.2,126.2 651.3,126.5 652.4,126.6 653.6,126.8 654.6,126.8 655.7,126.8 656.7,126.7 657.7,126.6 658.7,126.4 659.7,126.1 660.6,125.8 661.6,125.5 662.5,125.1 663.4,124.7 664.3,124.2 665.1,123.8 666.0,123.4 666.8,123.0 667.6,122.6 668.4,122.3 669.6,121.9 670.8,121.5 671.9,121.4 673.0,121.3 674.1,121.3 675.2,121.4 676.2,121.6 677.2,121.8 678.2,122.1 679.2,122.5 680.1,122.8 681.0,123.2 682.0,123.6 682.9,124.0 683.7,124.3 684.6,124.6 685.5,124.8 686.3,125.0 687.1,125.2 687.9,125.3 689.0,125.3 690.0,125.1 691.0,124.8 692.0,124.5 693.0,124.0 693.9,123.5 694.9,123.0 695.8,122.6 696.7,122.2 697.6,121.9 698.4,121.7 699.3,121.7 700.1,121.7 700.9,121.8 701.7,122.0 702.7,122.3 703.7,122.7 704.6,123.0 705.6,123.4 706.5,123.6 707.4,123.7 708.3,123.7 709.1,123.6 710.0,123.3 710.8,122.9 711.6,122.5 712.4,122.0 713.4,121.5 714.3,121.2 715.2,121.0 716.1,120.9 717.0,121.0 717.9,121.2 718.7,121.5 719.6,121.8 720.4,122.0 721.2,122.2 722.1,122.1 723.0,121.9 723.9,121.6 724.8,121.1 725.7,120.6 726.5,120.1 727.3,119.9 728.1,119.8 728.9,119.9 729.8,120.1 730.7,120.3 731.6,120.6 732.4,120.6 733.3,120.5 734.1,120.2 734.9,119.7 735.8,119.2 736.7,118.7 737.5,118.5 738.4,118.5 739.2,118.7 740.0,118.9 740.8,119.1 741.7,119.0 742.6,118.7 743.4,118.2 744.3,117.6 745.1,117.3 745.9,117.1 746.8,117.2 747.6,117.4 748.5,117.5 749.3,117.4 750.1,117.0 751.0,116.4 751.8,115.9 752.7,115.7 753.5,115.8 754.3,115.9 755.1,116.0 756.0,115.7 756.8,115.2 757.6,114.6 758.5,114.3 759.3,114.3 760.1,114.4 761.0,114.4 761.8,114.1 762.6,113.4 763.5,112.9 764.3,112.8 765.1,112.8 765.9,112.9 766.8,112.5 767.6,111.9 768.4,111.4 769.2,111.3 770.1,111.3 770.9,111.2 771.7,110.6 772.6,110.0 773.4,109.7 774.2,109.8 775.0,109.7 775.8,109.1 776.6,108.5 777.5,108.2 778.3,108.2 779.1,108.0 779.9,107.3 780.7,106.8 781.5,106.7 782.4,106.6 783.2,105.9 784.0,105.3 784.8,105.1 785.6,105.0 786.5,104.4 787.3,103.7 788.1,103.6 788.9,103.4 789.7,102.7 790.5,102.1 791.3,102.0 792.2,101.5 793.0,100.7 793.8,100.5 794.6,100.2 795.4,99.4 796.2,99.0 797.0,98.8 797.8,98.0 798.6,97.4 799.5,97.3" fill="none" stroke="#e74c3c" stroke-width="1.5" stroke-linejoin="round" clip-path="url(#pc752)"/>
  <line x1="34" y1="207" x2="34" y2="362" stroke="#d1d5db"/>
  <line x1="34" y1="284.5" x2="399" y2="284.5" stroke="#d1d5db"/>
  <text x="216.5" y="388" text-anchor="middle" font-size="9" fill="#6b7280">Hz</text>
  <text x="12" y="284.5" text-anchor="middle" font-size="9" fill="#6b7280" transform="rotate(-90 12 284.5)">Group delay</text>
  <line x1="67.3" y1="207" x2="67.3" y2="362" stroke="#e5e7eb" stroke-width="0.5"/>
  <line x1="86.8" y1="207" x2="86.8" y2="362" stroke="#e5e7eb" stroke-width="0.5"/>
  <line x1="100.6" y1="207" x2="100.6" y2="362" stroke="#e5e7eb" stroke-width="0.5"/>
  <line x1="111.3" y1="207" x2="111.3" y2="362" stroke="#e5e7eb" stroke-width="0.5"/>
  <line x1="120.0" y1="207" x2="120.0" y2="362" stroke="#e5e7eb" stroke-width="0.5"/>
  <line x1="127.4" y1="207" x2="127.4" y2="362" stroke="#e5e7eb" stroke-width="0.5"/>
  <line x1="133.9" y1="207" x2="133.9" y2="362" stroke="#e5e7eb" stroke-width="0.5"/>
  <line x1="139.5" y1="207" x2="139.5" y2="362" stroke="#e5e7eb" stroke-width="0.5"/>
  <line x1="177.9" y1="207" x2="177.9" y2="362" stroke="#e5e7eb" stroke-width="0.5"/>
  <line x1="197.3" y1="207" x2="197.3" y2="362" stroke="#e5e7eb" stroke-width="0.5"/>
  <line x1="211.1" y1="207" x2="211.1" y2="362" stroke="#e5e7eb" stroke-width="0.5"/>
  <line x1="221.9" y1="207" x2="221.9" y2="362" stroke="#e5e7eb" stroke-width="0.5"/>
  <line x1="230.6" y1="207" x2="230.6" y2="362" stroke="#e5e7eb" stroke-width="0.5"/>
  <line x1="238.0" y1="207" x2="238.0" y2="362" stroke="#e5e7eb" stroke-width="0.5"/>
  <line x1="244.4" y1="207" x2="244.4" y2="362" stroke="#e5e7eb" stroke-width="0.5"/>
  <line x1="250.1" y1="207" x2="250.1" y2="362" stroke="#e5e7eb" stroke-width="0.5"/>
  <line x1="288.4" y1="207" x2="288.4" y2="362" stroke="#e5e7eb" stroke-width="0.5"/>
  <line x1="307.9" y1="207" x2="307.9" y2="362" stroke="#e5e7eb" stroke-width="0.5"/>
  <line x1="321.7" y1="207" x2="321.7" y2="362" stroke="#e5e7eb" stroke-width="0.5"/>
  <line x1="332.4" y1="207" x2="332.4" y2="362" stroke="#e5e7eb" stroke-width="0.5"/>
  <line x1="341.2" y1="207" x2="341.2" y2="362" stroke="#e5e7eb" stroke-width="0.5"/>
  <line x1="348.6" y1="207" x2="348.6" y2="362" stroke="#e5e7eb" stroke-width="0.5"/>
  <line x1="355.0" y1="207" x2="355.0" y2="362" stroke="#e5e7eb" stroke-width="0.5"/>
  <line x1="360.7" y1="207" x2="360.7" y2="362" stroke="#e5e7eb" stroke-width="0.5"/>
  <line x1="399.0" y1="207" x2="399.0" y2="362" stroke="#e5e7eb" stroke-width="0.5"/>
  <line x1="144.6" y1="207" x2="144.6" y2="362" stroke="#e5e7eb" stroke-width="0.5"/>
  <text x="144.6" y="374" text-anchor="middle" font-size="8" fill="#6b7280">100</text>
  <line x1="255.1" y1="207" x2="255.1" y2="362" stroke="#e5e7eb" stroke-width="0.5"/>
  <text x="255.1" y="374" text-anchor="middle" font-size="8" fill="#6b7280">1k</text>
  <line x1="365.7" y1="207" x2="365.7" y2="362" stroke="#e5e7eb" stroke-width="0.5"/>
  <text x="365.7" y="374" text-anchor="middle" font-size="8" fill="#6b7280">10k</text>
  <line x1="34" y1="326.0" x2="399" y2="326.0" stroke="#e5e7eb" stroke-width="0.5"/>
  <text x="30" y="329.0" text-anchor="end" font-size="8" fill="#6b7280">-10</text>
  <text x="30" y="287.5" text-anchor="end" font-size="8" fill="#6b7280">0</text>
  <line x1="34" y1="243.0" x2="399" y2="243.0" stroke="#e5e7eb" stroke-width="0.5"/>
  <text x="30" y="246.0" text-anchor="end" font-size="8" fill="#6b7280">10</text>
  <defs><linearGradient id="g753" x1="0" y1="207" x2="0" y2="284.5" gradientUnits="userSpaceOnUse">
    <stop offset="0%" stop-color="#2ecc71" stop-opacity="0.15"/>
    <stop offset="100%" stop-color="#2ecc71" stop-opacity="0.02"/>
  </linearGradient></defs>
  <defs><linearGradient id="g754" x1="0" y1="362" x2="0" y2="284.5" gradientUnits="userSpaceOnUse">
    <stop offset="0%" stop-color="#2ecc71" stop-opacity="0.15"/>
    <stop offset="100%" stop-color="#2ecc71" stop-opacity="0.02"/>
  </linearGradient></defs>
  <defs><clipPath id="c755"><rect x="34" y="207" width="365" height="77.5"/></clipPath></defs>
  <defs><clipPath id="c756"><rect x="34" y="284.5" width="365" height="77.5"/></clipPath></defs>
  <path d="M37.5,224.9 37.5,224.9 70.8,224.9 90.3,224.9 104.1,224.9 114.8,225.0 123.6,225.0 131.0,225.0 137.4,225.1 143.1,225.1 148.1,225.2 152.7,225.3 156.9,225.3 160.7,225.4 164.3,225.5 167.6,225.6 170.7,225.7 173.6,225.8 176.3,226.0 178.9,226.1 181.4,226.2 183.7,226.4 186.0,226.5 188.1,226.7 190.2,226.8 192.1,227.0 194.0,227.2 195.8,227.4 197.6,227.6 199.2,227.8 200.9,228.0 202.4,228.3 204.0,228.5 205.5,228.8 206.9,229.0 208.3,229.3 209.6,229.6 210.9,229.9 212.2,230.2 213.5,230.5 214.7,230.9 215.9,231.2 217.0,231.6 218.2,232.0 219.3,232.4 220.3,232.8 221.4,233.2 222.4,233.7 223.4,234.2 224.4,234.6 225.4,235.1 226.4,235.7 227.3,236.2 228.2,236.8 229.1,237.4 230.0,238.0 230.8,238.7 231.7,239.3 232.5,240.0 233.4,240.7 234.2,241.5 235.7,243.1 237.3,244.8 238.7,246.7 240.2,248.7 241.6,250.9 242.9,253.2 244.2,255.8 245.5,258.5 246.8,261.4 248.0,264.5 249.2,267.9 250.3,271.4 251.4,275.1 252.6,278.9 253.6,282.9 254.7,286.9 255.7,290.9 256.7,294.8 257.7,298.5 258.7,302.0 259.6,305.0 260.6,307.5 261.5,309.3 262.4,310.5 263.3,310.9 264.1,310.7 265.0,309.7 265.8,308.1 266.6,306.0 267.4,303.5 268.6,299.2 269.8,294.6 270.9,290.0 272.0,285.7 273.1,281.8 274.2,278.4 275.2,275.5 276.2,273.2 277.2,271.4 278.2,270.2 279.1,269.5 280.0,269.3 281.0,269.6 281.9,270.4 282.7,271.5 283.6,273.1 284.5,275.1 285.3,277.4 286.1,280.0 286.9,282.9 288.0,286.9 289.0,290.8 290.0,294.4 291.0,297.3 292.0,299.2 292.9,299.8 293.9,299.1 294.8,297.3 295.7,294.7 296.6,291.5 297.4,288.1 298.3,284.8 299.1,281.9 299.9,279.5 300.7,277.6 301.7,276.2 302.7,275.8 303.6,276.3 304.6,277.8 305.5,280.0 306.4,282.9 307.3,286.2 308.1,289.5 309.0,292.4 309.8,294.6 310.6,295.6 311.4,295.4 312.4,293.5 313.3,290.5 314.2,287.0 315.1,283.7 316.0,281.0 316.9,279.3 317.7,278.7 318.6,279.2 319.4,280.7 320.2,283.0 321.1,286.4 322.0,289.8 322.9,292.4 323.8,293.5 324.7,292.8 325.5,290.6 326.3,287.6 327.1,284.5 327.9,282.1 328.8,280.5 329.7,280.6 330.6,282.2 331.4,284.9 332.3,288.0 333.1,290.8 333.9,292.1 334.8,291.5 335.7,288.9 336.5,285.7 337.4,282.9 338.2,281.5 339.0,281.8 339.8,283.7 340.7,286.8 341.6,289.9 342.4,291.3 343.3,290.4 344.1,287.7 344.9,284.7 345.8,282.5 346.6,282.4 347.5,284.4 348.3,287.4 349.1,290.0 350.0,290.5 350.8,288.4 351.7,285.2 352.5,283.1 353.3,283.1 354.1,285.3 355.0,288.5 355.8,290.1 356.6,289.0 357.5,286.1 358.3,283.6 359.1,283.5 360.0,285.9 360.8,288.8 361.6,289.6 362.5,287.4 363.3,284.5 364.1,283.6 364.9,285.6 365.8,288.6 366.6,289.3 367.4,287.0 368.2,284.2 369.1,284.3 369.9,286.9 370.7,289.2 371.6,287.8 372.4,284.9 373.2,284.2 374.0,286.7 374.8,289.0 375.6,287.6 376.5,284.7 377.3,284.8 378.1,287.6 378.9,288.7 379.7,286.0 380.5,284.4 381.4,286.5 382.2,288.7 383.0,286.8 383.8,284.5 384.6,286.3 385.5,288.6 386.3,286.5 387.1,284.6 387.9,286.9 388.7,288.4 389.5,285.6 390.3,285.2 391.2,288.1 392.0,287.1 392.8,284.8 393.6,287.0 394.4,288.0 395.2,285.1 396.0,286.3 396.8,288.2 397.6,285.3 398.5,286.2 L398.5,284.5 L37.5,284.5 Z" fill="url(#g753)" clip-path="url(#c755)"/>
  <path d="M37.5,224.9 37.5,224.9 70.8,224.9 90.3,224.9 104.1,224.9 114.8,225.0 123.6,225.0 131.0,225.0 137.4,225.1 143.1,225.1 148.1,225.2 152.7,225.3 156.9,225.3 160.7,225.4 164.3,225.5 167.6,225.6 170.7,225.7 173.6,225.8 176.3,226.0 178.9,226.1 181.4,226.2 183.7,226.4 186.0,226.5 188.1,226.7 190.2,226.8 192.1,227.0 194.0,227.2 195.8,227.4 197.6,227.6 199.2,227.8 200.9,228.0 202.4,228.3 204.0,228.5 205.5,228.8 206.9,229.0 208.3,229.3 209.6,229.6 210.9,229.9 212.2,230.2 213.5,230.5 214.7,230.9 215.9,231.2 217.0,231.6 218.2,232.0 219.3,232.4 220.3,232.8 221.4,233.2 222.4,233.7 223.4,234.2 224.4,234.6 225.4,235.1 226.4,235.7 227.3,236.2 228.2,236.8 229.1,237.4 230.0,238.0 230.8,238.7 231.7,239.3 232.5,240.0 233.4,240.7 234.2,241.5 235.7,243.1 237.3,244.8 238.7,246.7 240.2,248.7 241.6,250.9 242.9,253.2 244.2,255.8 245.5,258.5 246.8,261.4 248.0,264.5 249.2,267.9 250.3,271.4 251.4,275.1 252.6,278.9 253.6,282.9 254.7,286.9 255.7,290.9 256.7,294.8 257.7,298.5 258.7,302.0 259.6,305.0 260.6,307.5 261.5,309.3 262.4,310.5 263.3,310.9 264.1,310.7 265.0,309.7 265.8,308.1 266.6,306.0 267.4,303.5 268.6,299.2 269.8,294.6 270.9,290.0 272.0,285.7 273.1,281.8 274.2,278.4 275.2,275.5 276.2,273.2 277.2,271.4 278.2,270.2 279.1,269.5 280.0,269.3 281.0,269.6 281.9,270.4 282.7,271.5 283.6,273.1 284.5,275.1 285.3,277.4 286.1,280.0 286.9,282.9 288.0,286.9 289.0,290.8 290.0,294.4 291.0,297.3 292.0,299.2 292.9,299.8 293.9,299.1 294.8,297.3 295.7,294.7 296.6,291.5 297.4,288.1 298.3,284.8 299.1,281.9 299.9,279.5 300.7,277.6 301.7,276.2 302.7,275.8 303.6,276.3 304.6,277.8 305.5,280.0 306.4,282.9 307.3,286.2 308.1,289.5 309.0,292.4 309.8,294.6 310.6,295.6 311.4,295.4 312.4,293.5 313.3,290.5 314.2,287.0 315.1,283.7 316.0,281.0 316.9,279.3 317.7,278.7 318.6,279.2 319.4,280.7 320.2,283.0 321.1,286.4 322.0,289.8 322.9,292.4 323.8,293.5 324.7,292.8 325.5,290.6 326.3,287.6 327.1,284.5 327.9,282.1 328.8,280.5 329.7,280.6 330.6,282.2 331.4,284.9 332.3,288.0 333.1,290.8 333.9,292.1 334.8,291.5 335.7,288.9 336.5,285.7 337.4,282.9 338.2,281.5 339.0,281.8 339.8,283.7 340.7,286.8 341.6,289.9 342.4,291.3 343.3,290.4 344.1,287.7 344.9,284.7 345.8,282.5 346.6,282.4 347.5,284.4 348.3,287.4 349.1,290.0 350.0,290.5 350.8,288.4 351.7,285.2 352.5,283.1 353.3,283.1 354.1,285.3 355.0,288.5 355.8,290.1 356.6,289.0 357.5,286.1 358.3,283.6 359.1,283.5 360.0,285.9 360.8,288.8 361.6,289.6 362.5,287.4 363.3,284.5 364.1,283.6 364.9,285.6 365.8,288.6 366.6,289.3 367.4,287.0 368.2,284.2 369.1,284.3 369.9,286.9 370.7,289.2 371.6,287.8 372.4,284.9 373.2,284.2 374.0,286.7 374.8,289.0 375.6,287.6 376.5,284.7 377.3,284.8 378.1,287.6 378.9,288.7 379.7,286.0 380.5,284.4 381.4,286.5 382.2,288.7 383.0,286.8 383.8,284.5 384.6,286.3 385.5,288.6 386.3,286.5 387.1,284.6 387.9,286.9 388.7,288.4 389.5,285.6 390.3,285.2 391.2,288.1 392.0,287.1 392.8,284.8 393.6,287.0 394.4,288.0 395.2,285.1 396.0,286.3 396.8,288.2 397.6,285.3 398.5,286.2 L398.5,284.5 L37.5,284.5 Z" fill="url(#g754)" clip-path="url(#c756)"/>
  <defs><clipPath id="pc757"><rect x="34" y="207" width="365" height="155"/></clipPath></defs>
  <polyline points="37.5,224.9 70.8,224.9 90.3,224.9 104.1,224.9 114.8,225.0 123.6,225.0 131.0,225.0 137.4,225.1 143.1,225.1 148.1,225.2 152.7,225.3 156.9,225.3 160.7,225.4 164.3,225.5 167.6,225.6 170.7,225.7 173.6,225.8 176.3,226.0 178.9,226.1 181.4,226.2 183.7,226.4 186.0,226.5 188.1,226.7 190.2,226.8 192.1,227.0 194.0,227.2 195.8,227.4 197.6,227.6 199.2,227.8 200.9,228.0 202.4,228.3 204.0,228.5 205.5,228.8 206.9,229.0 208.3,229.3 209.6,229.6 210.9,229.9 212.2,230.2 213.5,230.5 214.7,230.9 215.9,231.2 217.0,231.6 218.2,232.0 219.3,232.4 220.3,232.8 221.4,233.2 222.4,233.7 223.4,234.2 224.4,234.6 225.4,235.1 226.4,235.7 227.3,236.2 228.2,236.8 229.1,237.4 230.0,238.0 230.8,238.7 231.7,239.3 232.5,240.0 233.4,240.7 234.2,241.5 235.7,243.1 237.3,244.8 238.7,246.7 240.2,248.7 241.6,250.9 242.9,253.2 244.2,255.8 245.5,258.5 246.8,261.4 248.0,264.5 249.2,267.9 250.3,271.4 251.4,275.1 252.6,278.9 253.6,282.9 254.7,286.9 255.7,290.9 256.7,294.8 257.7,298.5 258.7,302.0 259.6,305.0 260.6,307.5 261.5,309.3 262.4,310.5 263.3,310.9 264.1,310.7 265.0,309.7 265.8,308.1 266.6,306.0 267.4,303.5 268.6,299.2 269.8,294.6 270.9,290.0 272.0,285.7 273.1,281.8 274.2,278.4 275.2,275.5 276.2,273.2 277.2,271.4 278.2,270.2 279.1,269.5 280.0,269.3 281.0,269.6 281.9,270.4 282.7,271.5 283.6,273.1 284.5,275.1 285.3,277.4 286.1,280.0 286.9,282.9 288.0,286.9 289.0,290.8 290.0,294.4 291.0,297.3 292.0,299.2 292.9,299.8 293.9,299.1 294.8,297.3 295.7,294.7 296.6,291.5 297.4,288.1 298.3,284.8 299.1,281.9 299.9,279.5 300.7,277.6 301.7,276.2 302.7,275.8 303.6,276.3 304.6,277.8 305.5,280.0 306.4,282.9 307.3,286.2 308.1,289.5 309.0,292.4 309.8,294.6 310.6,295.6 311.4,295.4 312.4,293.5 313.3,290.5 314.2,287.0 315.1,283.7 316.0,281.0 316.9,279.3 317.7,278.7 318.6,279.2 319.4,280.7 320.2,283.0 321.1,286.4 322.0,289.8 322.9,292.4 323.8,293.5 324.7,292.8 325.5,290.6 326.3,287.6 327.1,284.5 327.9,282.1 328.8,280.5 329.7,280.6 330.6,282.2 331.4,284.9 332.3,288.0 333.1,290.8 333.9,292.1 334.8,291.5 335.7,288.9 336.5,285.7 337.4,282.9 338.2,281.5 339.0,281.8 339.8,283.7 340.7,286.8 341.6,289.9 342.4,291.3 343.3,290.4 344.1,287.7 344.9,284.7 345.8,282.5 346.6,282.4 347.5,284.4 348.3,287.4 349.1,290.0 350.0,290.5 350.8,288.4 351.7,285.2 352.5,283.1 353.3,283.1 354.1,285.3 355.0,288.5 355.8,290.1 356.6,289.0 357.5,286.1 358.3,283.6 359.1,283.5 360.0,285.9 360.8,288.8 361.6,289.6 362.5,287.4 363.3,284.5 364.1,283.6 364.9,285.6 365.8,288.6 366.6,289.3 367.4,287.0 368.2,284.2 369.1,284.3 369.9,286.9 370.7,289.2 371.6,287.8 372.4,284.9 373.2,284.2 374.0,286.7 374.8,289.0 375.6,287.6 376.5,284.7 377.3,284.8 378.1,287.6 378.9,288.7 379.7,286.0 380.5,284.4 381.4,286.5 382.2,288.7 383.0,286.8 383.8,284.5 384.6,286.3 385.5,288.6 386.3,286.5 387.1,284.6 387.9,286.9 388.7,288.4 389.5,285.6 390.3,285.2 391.2,288.1 392.0,287.1 392.8,284.8 393.6,287.0 394.4,288.0 395.2,285.1 396.0,286.3 396.8,288.2 397.6,285.3 398.5,286.2" fill="none" stroke="#2ecc71" stroke-width="1.5" stroke-linejoin="round" clip-path="url(#pc757)"/>
  <line x1="435" y1="207" x2="435" y2="362" stroke="#d1d5db"/>
  <line x1="435" y1="284.5" x2="800" y2="284.5" stroke="#d1d5db"/>
  <text x="617.5" y="388" text-anchor="middle" font-size="9" fill="#6b7280">Samples</text>
  <text x="413" y="284.5" text-anchor="middle" font-size="9" fill="#6b7280" transform="rotate(-90 413 284.5)">Impulse response</text>
  <line x1="435.0" y1="207" x2="435.0" y2="362" stroke="#e5e7eb" stroke-width="0.5"/>
  <text x="435.0" y="374" text-anchor="middle" font-size="8" fill="#6b7280">0</text>
  <line x1="563.3" y1="207" x2="563.3" y2="362" stroke="#e5e7eb" stroke-width="0.5"/>
  <text x="563.3" y="374" text-anchor="middle" font-size="8" fill="#6b7280">90</text>
  <line x1="691.6" y1="207" x2="691.6" y2="362" stroke="#e5e7eb" stroke-width="0.5"/>
  <text x="691.6" y="374" text-anchor="middle" font-size="8" fill="#6b7280">180</text>
  <line x1="435" y1="338.8" x2="800" y2="338.8" stroke="#e5e7eb" stroke-width="0.5"/>
  <text x="431" y="341.8" text-anchor="end" font-size="8" fill="#6b7280">-0.7</text>
  <text x="431" y="287.5" text-anchor="end" font-size="8" fill="#6b7280">0</text>
  <line x1="435" y1="230.3" x2="800" y2="230.3" stroke="#e5e7eb" stroke-width="0.5"/>
  <text x="431" y="233.3" text-anchor="end" font-size="8" fill="#6b7280">0.7</text>
  <defs><linearGradient id="g758" x1="0" y1="207" x2="0" y2="284.5" gradientUnits="userSpaceOnUse">
    <stop offset="0%" stop-color="#f39c12" stop-opacity="0.15"/>
    <stop offset="100%" stop-color="#f39c12" stop-opacity="0.02"/>
  </linearGradient></defs>
  <path d="M435.0,207.0 435.0,207.0 436.4,208.8 437.9,210.5 439.3,212.3 440.7,214.0 442.1,215.8 443.6,217.5 445.0,219.3 446.4,221.1 447.8,222.8 449.3,224.6 450.7,226.3 452.1,228.1 453.5,229.8 455.0,231.6 456.4,233.4 457.8,235.1 459.2,236.9 460.7,238.6 462.1,240.4 463.5,242.1 464.9,243.9 466.4,245.7 467.8,247.4 469.2,249.2 470.6,250.9 472.1,252.7 473.5,254.4 474.9,256.2 476.3,258.0 477.8,259.7 479.2,261.5 480.6,263.2 482.1,265.0 483.5,266.8 484.9,268.5 486.3,270.3 487.8,272.0 489.2,273.8 490.6,275.5 492.0,277.3 493.5,279.1 494.9,280.8 496.3,282.6 497.7,284.3 499.2,284.5 500.6,284.5 502.0,284.5 503.4,284.5 504.9,284.5 506.3,284.5 507.7,284.5 509.1,284.5 510.6,284.5 512.0,284.5 513.4,284.5 514.8,284.5 516.3,284.5 517.7,284.5 519.1,284.5 520.5,284.5 522.0,284.5 523.4,284.5 524.8,284.5 526.3,284.5 527.7,284.5 529.1,284.5 530.5,284.5 532.0,284.5 533.4,284.5 534.8,284.5 536.2,284.5 537.7,284.5 539.1,284.5 540.5,284.5 541.9,284.5 543.4,284.5 544.8,284.5 546.2,284.5 547.6,284.5 549.1,284.5 550.5,284.5 551.9,284.5 553.3,284.5 554.8,284.5 556.2,284.5 557.6,284.5 559.0,284.5 560.5,284.5 561.9,284.5 563.3,284.5 564.7,284.5 566.2,284.5 567.6,284.5 569.0,284.5 570.4,284.5 571.9,284.5 573.3,284.5 574.7,284.5 576.2,284.5 577.6,284.5 579.0,284.5 580.4,284.5 581.9,284.5 583.3,284.5 584.7,284.5 586.1,284.5 587.6,284.5 589.0,284.5 590.4,284.5 591.8,284.5 593.3,284.5 594.7,284.5 596.1,284.5 597.5,284.5 599.0,284.5 600.4,284.5 601.8,284.5 603.2,284.5 604.7,284.5 606.1,284.5 607.5,284.5 608.9,284.5 610.4,284.5 611.8,284.5 613.2,284.5 614.6,284.5 616.1,284.5 617.5,284.5 618.9,284.5 620.4,284.5 621.8,284.5 623.2,284.5 624.6,284.5 626.1,284.5 627.5,284.5 628.9,284.5 630.3,284.5 631.8,284.5 633.2,284.5 634.6,284.5 636.0,284.5 637.5,284.5 638.9,284.5 640.3,284.5 641.7,284.5 643.2,284.5 644.6,284.5 646.0,284.5 647.4,284.5 648.9,284.5 650.3,284.5 651.7,284.5 653.1,284.5 654.6,284.5 656.0,284.5 657.4,284.5 658.8,284.5 660.3,284.5 661.7,284.5 663.1,284.5 664.6,284.5 666.0,284.5 667.4,284.5 668.8,284.5 670.3,284.5 671.7,284.5 673.1,284.5 674.5,284.5 676.0,284.5 677.4,284.5 678.8,284.5 680.2,284.5 681.7,284.5 683.1,284.5 684.5,284.5 685.9,284.5 687.4,284.5 688.8,284.5 690.2,284.5 691.6,284.5 693.1,284.5 694.5,284.5 695.9,284.5 697.3,284.5 698.8,284.5 700.2,284.5 701.6,284.5 703.0,284.5 704.5,284.5 705.9,284.5 707.3,284.5 708.8,284.5 710.2,284.5 711.6,284.5 713.0,284.5 714.5,284.5 715.9,284.5 717.3,284.5 718.7,284.5 720.2,284.5 721.6,284.5 723.0,284.5 724.4,284.5 725.9,284.5 727.3,284.5 728.7,284.5 730.1,284.5 731.6,284.5 733.0,284.5 734.4,284.5 735.8,284.5 737.3,284.5 738.7,284.5 740.1,284.5 741.5,284.5 743.0,284.5 744.4,284.5 745.8,284.5 747.2,284.5 748.7,284.5 750.1,284.5 751.5,284.5 752.9,284.5 754.4,284.5 755.8,284.5 757.2,284.5 758.7,284.5 760.1,284.5 761.5,284.5 762.9,284.5 764.4,284.5 765.8,284.5 767.2,284.5 768.6,284.5 770.1,284.5 771.5,284.5 772.9,284.5 774.3,284.5 775.8,284.5 777.2,284.5 778.6,284.5 780.0,284.5 781.5,284.5 782.9,284.5 784.3,284.5 785.7,284.5 787.2,284.5 788.6,284.5 790.0,284.5 791.4,284.5 792.9,284.5 794.3,284.5 795.7,284.5 797.1,284.5 798.6,284.5 L798.6,284.5 L435.0,284.5 Z" fill="url(#g758)"/>
  <defs><clipPath id="pc759"><rect x="435" y="207" width="365" height="155"/></clipPath></defs>
  <polyline points="435.0,207.0 436.4,208.8 437.9,210.5 439.3,212.3 440.7,214.0 442.1,215.8 443.6,217.5 445.0,219.3 446.4,221.1 447.8,222.8 449.3,224.6 450.7,226.3 452.1,228.1 453.5,229.8 455.0,231.6 456.4,233.4 457.8,235.1 459.2,236.9 460.7,238.6 462.1,240.4 463.5,242.1 464.9,243.9 466.4,245.7 467.8,247.4 469.2,249.2 470.6,250.9 472.1,252.7 473.5,254.4 474.9,256.2 476.3,258.0 477.8,259.7 479.2,261.5 480.6,263.2 482.1,265.0 483.5,266.8 484.9,268.5 486.3,270.3 487.8,272.0 489.2,273.8 490.6,275.5 492.0,277.3 493.5,279.1 494.9,280.8 496.3,282.6 497.7,284.3 499.2,284.5 500.6,284.5 502.0,284.5 503.4,284.5 504.9,284.5 506.3,284.5 507.7,284.5 509.1,284.5 510.6,284.5 512.0,284.5 513.4,284.5 514.8,284.5 516.3,284.5 517.7,284.5 519.1,284.5 520.5,284.5 522.0,284.5 523.4,284.5 524.8,284.5 526.3,284.5 527.7,284.5 529.1,284.5 530.5,284.5 532.0,284.5 533.4,284.5 534.8,284.5 536.2,284.5 537.7,284.5 539.1,284.5 540.5,284.5 541.9,284.5 543.4,284.5 544.8,284.5 546.2,284.5 547.6,284.5 549.1,284.5 550.5,284.5 551.9,284.5 553.3,284.5 554.8,284.5 556.2,284.5 557.6,284.5 559.0,284.5 560.5,284.5 561.9,284.5 563.3,284.5 564.7,284.5 566.2,284.5 567.6,284.5 569.0,284.5 570.4,284.5 571.9,284.5 573.3,284.5 574.7,284.5 576.2,284.5 577.6,284.5 579.0,284.5 580.4,284.5 581.9,284.5 583.3,284.5 584.7,284.5 586.1,284.5 587.6,284.5 589.0,284.5 590.4,284.5 591.8,284.5 593.3,284.5 594.7,284.5 596.1,284.5 597.5,284.5 599.0,284.5 600.4,284.5 601.8,284.5 603.2,284.5 604.7,284.5 606.1,284.5 607.5,284.5 608.9,284.5 610.4,284.5 611.8,284.5 613.2,284.5 614.6,284.5 616.1,284.5 617.5,284.5 618.9,284.5 620.4,284.5 621.8,284.5 623.2,284.5 624.6,284.5 626.1,284.5 627.5,284.5 628.9,284.5 630.3,284.5 631.8,284.5 633.2,284.5 634.6,284.5 636.0,284.5 637.5,284.5 638.9,284.5 640.3,284.5 641.7,284.5 643.2,284.5 644.6,284.5 646.0,284.5 647.4,284.5 648.9,284.5 650.3,284.5 651.7,284.5 653.1,284.5 654.6,284.5 656.0,284.5 657.4,284.5 658.8,284.5 660.3,284.5 661.7,284.5 663.1,284.5 664.6,284.5 666.0,284.5 667.4,284.5 668.8,284.5 670.3,284.5 671.7,284.5 673.1,284.5 674.5,284.5 676.0,284.5 677.4,284.5 678.8,284.5 680.2,284.5 681.7,284.5 683.1,284.5 684.5,284.5 685.9,284.5 687.4,284.5 688.8,284.5 690.2,284.5 691.6,284.5 693.1,284.5 694.5,284.5 695.9,284.5 697.3,284.5 698.8,284.5 700.2,284.5 701.6,284.5 703.0,284.5 704.5,284.5 705.9,284.5 707.3,284.5 708.8,284.5 710.2,284.5 711.6,284.5 713.0,284.5 714.5,284.5 715.9,284.5 717.3,284.5 718.7,284.5 720.2,284.5 721.6,284.5 723.0,284.5 724.4,284.5 725.9,284.5 727.3,284.5 728.7,284.5 730.1,284.5 731.6,284.5 733.0,284.5 734.4,284.5 735.8,284.5 737.3,284.5 738.7,284.5 740.1,284.5 741.5,284.5 743.0,284.5 744.4,284.5 745.8,284.5 747.2,284.5 748.7,284.5 750.1,284.5 751.5,284.5 752.9,284.5 754.4,284.5 755.8,284.5 757.2,284.5 758.7,284.5 760.1,284.5 761.5,284.5 762.9,284.5 764.4,284.5 765.8,284.5 767.2,284.5 768.6,284.5 770.1,284.5 771.5,284.5 772.9,284.5 774.3,284.5 775.8,284.5 777.2,284.5 778.6,284.5 780.0,284.5 781.5,284.5 782.9,284.5 784.3,284.5 785.7,284.5 787.2,284.5 788.6,284.5 790.0,284.5 791.4,284.5 792.9,284.5 794.3,284.5 795.7,284.5 797.1,284.5 798.6,284.5" fill="none" stroke="#f39c12" stroke-width="1.3" stroke-linejoin="round" clip-path="url(#pc759)"/>
</svg>
