<svg xmlns="http://www.w3.org/2000/svg" viewBox="0 0 820 392" style="font-family:system-ui,-apple-system,sans-serif">
  <text x="800" y="11" text-anchor="end" font-size="11" font-weight="600" fill="#6b7280">SVF lowpass, fc=1kHz, Q=1</text>
  <line x1="34" y1="16" x2="34" y2="171" stroke="#d1d5db"/>
  <line x1="34" y1="47.0" x2="392" y2="47.0" stroke="#d1d5db"/>
  <text x="213" y="197" text-anchor="middle" font-size="9" fill="#6b7280">Hz</text>
  <text x="12" y="93.5" text-anchor="middle" font-size="9" fill="#6b7280" transform="rotate(-90 12 93.5)">dB</text>
  <line x1="66.6" y1="16" x2="66.6" y2="171" stroke="#e5e7eb" stroke-width="0.5"/>
  <line x1="85.7" y1="16" x2="85.7" y2="171" stroke="#e5e7eb" stroke-width="0.5"/>
  <line x1="99.3" y1="16" x2="99.3" y2="171" stroke="#e5e7eb" stroke-width="0.5"/>
  <line x1="109.8" y1="16" x2="109.8" y2="171" stroke="#e5e7eb" stroke-width="0.5"/>
  <line x1="118.4" y1="16" x2="118.4" y2="171" stroke="#e5e7eb" stroke-width="0.5"/>
  <line x1="125.7" y1="16" x2="125.7" y2="171" stroke="#e5e7eb" stroke-width="0.5"/>
  <line x1="131.9" y1="16" x2="131.9" y2="171" stroke="#e5e7eb" stroke-width="0.5"/>
  <line x1="137.5" y1="16" x2="137.5" y2="171" stroke="#e5e7eb" stroke-width="0.5"/>
  <line x1="175.1" y1="16" x2="175.1" y2="171" stroke="#e5e7eb" stroke-width="0.5"/>
  <line x1="194.2" y1="16" x2="194.2" y2="171" stroke="#e5e7eb" stroke-width="0.5"/>
  <line x1="207.7" y1="16" x2="207.7" y2="171" stroke="#e5e7eb" stroke-width="0.5"/>
  <line x1="218.3" y1="16" x2="218.3" y2="171" stroke="#e5e7eb" stroke-width="0.5"/>
  <line x1="226.8" y1="16" x2="226.8" y2="171" stroke="#e5e7eb" stroke-width="0.5"/>
  <line x1="234.1" y1="16" x2="234.1" y2="171" stroke="#e5e7eb" stroke-width="0.5"/>
  <line x1="240.4" y1="16" x2="240.4" y2="171" stroke="#e5e7eb" stroke-width="0.5"/>
  <line x1="245.9" y1="16" x2="245.9" y2="171" stroke="#e5e7eb" stroke-width="0.5"/>
  <line x1="283.5" y1="16" x2="283.5" y2="171" stroke="#e5e7eb" stroke-width="0.5"/>
  <line x1="302.6" y1="16" x2="302.6" y2="171" stroke="#e5e7eb" stroke-width="0.5"/>
  <line x1="316.2" y1="16" x2="316.2" y2="171" stroke="#e5e7eb" stroke-width="0.5"/>
  <line x1="326.7" y1="16" x2="326.7" y2="171" stroke="#e5e7eb" stroke-width="0.5"/>
  <line x1="335.3" y1="16" x2="335.3" y2="171" stroke="#e5e7eb" stroke-width="0.5"/>
  <line x1="342.6" y1="16" x2="342.6" y2="171" stroke="#e5e7eb" stroke-width="0.5"/>
  <line x1="348.8" y1="16" x2="348.8" y2="171" stroke="#e5e7eb" stroke-width="0.5"/>
  <line x1="354.4" y1="16" x2="354.4" y2="171" stroke="#e5e7eb" stroke-width="0.5"/>
  <line x1="392.0" y1="16" x2="392.0" y2="171" stroke="#e5e7eb" stroke-width="0.5"/>
  <line x1="142.5" y1="16" x2="142.5" y2="171" stroke="#e5e7eb" stroke-width="0.5"/>
  <text x="142.5" y="183" text-anchor="middle" font-size="8" fill="#6b7280">100</text>
  <line x1="250.9" y1="16" x2="250.9" y2="171" stroke="#e5e7eb" stroke-width="0.5"/>
  <text x="250.9" y="183" text-anchor="middle" font-size="8" fill="#6b7280">1k</text>
  <line x1="359.4" y1="16" x2="359.4" y2="171" stroke="#e5e7eb" stroke-width="0.5"/>
  <text x="359.4" y="183" text-anchor="middle" font-size="8" fill="#6b7280">10k</text>
  <line x1="34" y1="31.5" x2="392" y2="31.5" stroke="#e5e7eb" stroke-width="0.5"/>
  <line x1="34" y1="62.5" x2="392" y2="62.5" stroke="#e5e7eb" stroke-width="0.5"/>
  <line x1="34" y1="16.0" x2="392" y2="16.0" stroke="#e5e7eb" stroke-width="0.5"/>
  <text x="30" y="19.0" text-anchor="end" font-size="8" fill="#6b7280">+20</text>
  <text x="30" y="50.0" text-anchor="end" font-size="8" fill="#6b7280">0</text>
  <line x1="34" y1="78.0" x2="392" y2="78.0" stroke="#e5e7eb" stroke-width="0.5"/>
  <text x="30" y="81.0" text-anchor="end" font-size="8" fill="#6b7280">-20</text>
  <line x1="34" y1="109.0" x2="392" y2="109.0" stroke="#e5e7eb" stroke-width="0.5"/>
  <text x="30" y="112.0" text-anchor="end" font-size="8" fill="#6b7280">-40</text>
  <line x1="34" y1="140.0" x2="392" y2="140.0" stroke="#e5e7eb" stroke-width="0.5"/>
  <text x="30" y="143.0" text-anchor="end" font-size="8" fill="#6b7280">-60</text>
  <line x1="34" y1="171.0" x2="392" y2="171.0" stroke="#e5e7eb" stroke-width="0.5"/>
  <text x="30" y="174.0" text-anchor="end" font-size="8" fill="#6b7280">-80</text>
  <line x1="250.9" y1="16" x2="250.9" y2="171" stroke="#d1d5db" stroke-width="1" stroke-dasharray="4 3"/>
  <defs><linearGradient id="g401" x1="0" y1="16" x2="0" y2="171" gradientUnits="userSpaceOnUse">
    <stop offset="0%" stop-color="#4a90d9" stop-opacity="0.15"/>
    <stop offset="100%" stop-color="#4a90d9" stop-opacity="0.02"/>
  </linearGradient></defs>
  <path d="M37.5,47.0 37.5,47.0 70.1,47.0 89.2,47.0 102.8,47.0 113.3,47.0 121.9,47.0 129.1,47.0 135.4,47.0 141.0,46.9 145.9,46.9 150.4,46.9 154.5,46.9 158.3,46.9 161.8,46.8 165.0,46.8 168.1,46.8 170.9,46.8 173.6,46.8 176.2,46.7 178.6,46.7 180.9,46.7 183.1,46.6 185.2,46.6 187.2,46.6 189.1,46.5 190.9,46.5 192.7,46.5 194.4,46.4 196.1,46.4 197.7,46.3 199.2,46.3 200.7,46.3 202.2,46.2 203.6,46.2 204.9,46.1 206.3,46.1 207.6,46.0 208.8,46.0 210.0,45.9 211.2,45.9 212.4,45.9 213.5,45.8 214.6,45.8 215.7,45.7 216.8,45.7 217.8,45.6 218.8,45.6 219.8,45.5 220.8,45.5 221.7,45.5 222.7,45.4 223.6,45.4 224.5,45.3 225.4,45.3 226.2,45.3 227.1,45.2 227.9,45.2 228.7,45.2 229.5,45.1 231.1,45.1 232.6,45.1 234.1,45.1 235.5,45.1 236.9,45.1 238.2,45.1 239.6,45.2 240.8,45.3 242.1,45.4 243.3,45.5 244.5,45.6 245.6,45.8 246.7,46.0 247.8,46.2 248.9,46.5 249.9,46.7 251.0,47.0 252.0,47.3 252.9,47.6 253.9,48.0 254.8,48.3 255.8,48.7 256.7,49.1 257.6,49.4 258.4,49.8 259.3,50.2 260.1,50.6 261.0,51.0 261.8,51.5 263.0,52.1 264.1,52.7 265.3,53.3 266.4,54.0 267.5,54.6 268.5,55.2 269.6,55.8 270.6,56.4 271.6,57.0 272.5,57.6 273.5,58.2 274.4,58.7 275.3,59.3 276.2,59.9 277.1,60.4 278.0,60.9 278.8,61.5 279.6,62.0 280.5,62.5 281.3,63.0 282.3,63.7 283.4,64.3 284.4,64.9 285.3,65.5 286.3,66.1 287.3,66.7 288.2,67.3 289.1,67.9 290.0,68.4 290.9,69.0 291.7,69.5 292.6,70.0 293.4,70.6 294.2,71.1 295.0,71.6 296.0,72.2 297.0,72.8 297.9,73.3 298.8,73.9 299.7,74.5 300.6,75.0 301.5,75.6 302.4,76.1 303.2,76.6 304.0,77.1 304.9,77.6 305.8,78.2 306.7,78.8 307.7,79.4 308.6,79.9 309.5,80.5 310.3,81.0 311.2,81.5 312.0,82.1 312.8,82.6 313.7,83.1 314.6,83.6 315.5,84.2 316.4,84.8 317.3,85.3 318.1,85.8 319.0,86.4 319.8,86.9 320.6,87.4 321.4,87.9 322.3,88.4 323.2,89.0 324.1,89.5 324.9,90.1 325.7,90.6 326.6,91.1 327.4,91.6 328.3,92.2 329.1,92.8 330.0,93.3 330.8,93.9 331.7,94.4 332.5,94.9 333.3,95.4 334.2,96.0 335.0,96.6 335.9,97.1 336.7,97.7 337.5,98.2 338.4,98.8 339.2,99.4 340.1,99.9 340.9,100.5 341.7,101.1 342.5,101.6 343.4,102.2 344.2,102.8 345.1,103.4 345.9,103.9 346.7,104.5 347.6,105.1 348.4,105.7 349.2,106.3 350.0,106.9 350.9,107.5 351.7,108.1 352.6,108.8 353.4,109.4 354.2,110.0 355.1,110.7 355.9,111.3 356.7,112.0 357.6,112.6 358.4,113.3 359.2,114.0 360.0,114.6 360.9,115.4 361.7,116.1 362.5,116.8 363.3,117.5 364.2,118.3 365.0,119.0 365.8,119.8 366.6,120.5 367.4,121.3 368.3,122.1 369.1,123.0 369.9,123.8 370.7,124.7 371.5,125.6 372.4,126.5 373.2,127.4 374.0,128.3 374.8,129.3 375.6,130.4 376.4,131.4 377.2,132.5 378.1,133.7 378.9,134.8 379.7,136.1 380.5,137.4 381.3,138.7 382.1,140.2 383.0,141.6 383.8,143.2 384.6,144.9 385.4,146.7 386.2,148.7 387.0,150.8 387.9,153.1 388.7,155.6 389.5,158.4 390.3,161.6 391.1,165.1 391.9,169.3 L391.9,171.0 L37.5,171.0 Z" fill="url(#g401)"/>
  <defs><clipPath id="pc402"><rect x="34" y="16" width="358" height="155"/></clipPath></defs>
  <polyline points="37.5,47.0 70.1,47.0 89.2,47.0 102.8,47.0 113.3,47.0 121.9,47.0 129.1,47.0 135.4,47.0 141.0,46.9 145.9,46.9 150.4,46.9 154.5,46.9 158.3,46.9 161.8,46.8 165.0,46.8 168.1,46.8 170.9,46.8 173.6,46.8 176.2,46.7 178.6,46.7 180.9,46.7 183.1,46.6 185.2,46.6 187.2,46.6 189.1,46.5 190.9,46.5 192.7,46.5 194.4,46.4 196.1,46.4 197.7,46.3 199.2,46.3 200.7,46.3 202.2,46.2 203.6,46.2 204.9,46.1 206.3,46.1 207.6,46.0 208.8,46.0 210.0,45.9 211.2,45.9 212.4,45.9 213.5,45.8 214.6,45.8 215.7,45.7 216.8,45.7 217.8,45.6 218.8,45.6 219.8,45.5 220.8,45.5 221.7,45.5 222.7,45.4 223.6,45.4 224.5,45.3 225.4,45.3 226.2,45.3 227.1,45.2 227.9,45.2 228.7,45.2 229.5,45.1 231.1,45.1 232.6,45.1 234.1,45.1 235.5,45.1 236.9,45.1 238.2,45.1 239.6,45.2 240.8,45.3 242.1,45.4 243.3,45.5 244.5,45.6 245.6,45.8 246.7,46.0 247.8,46.2 248.9,46.5 249.9,46.7 251.0,47.0 252.0,47.3 252.9,47.6 253.9,48.0 254.8,48.3 255.8,48.7 256.7,49.1 257.6,49.4 258.4,49.8 259.3,50.2 260.1,50.6 261.0,51.0 261.8,51.5 263.0,52.1 264.1,52.7 265.3,53.3 266.4,54.0 267.5,54.6 268.5,55.2 269.6,55.8 270.6,56.4 271.6,57.0 272.5,57.6 273.5,58.2 274.4,58.7 275.3,59.3 276.2,59.9 277.1,60.4 278.0,60.9 278.8,61.5 279.6,62.0 280.5,62.5 281.3,63.0 282.3,63.7 283.4,64.3 284.4,64.9 285.3,65.5 286.3,66.1 287.3,66.7 288.2,67.3 289.1,67.9 290.0,68.4 290.9,69.0 291.7,69.5 292.6,70.0 293.4,70.6 294.2,71.1 295.0,71.6 296.0,72.2 297.0,72.8 297.9,73.3 298.8,73.9 299.7,74.5 300.6,75.0 301.5,75.6 302.4,76.1 303.2,76.6 304.0,77.1 304.9,77.6 305.8,78.2 306.7,78.8 307.7,79.4 308.6,79.9 309.5,80.5 310.3,81.0 311.2,81.5 312.0,82.1 312.8,82.6 313.7,83.1 314.6,83.6 315.5,84.2 316.4,84.8 317.3,85.3 318.1,85.8 319.0,86.4 319.8,86.9 320.6,87.4 321.4,87.9 322.3,88.4 323.2,89.0 324.1,89.5 324.9,90.1 325.7,90.6 326.6,91.1 327.4,91.6 328.3,92.2 329.1,92.8 330.0,93.3 330.8,93.9 331.7,94.4 332.5,94.9 333.3,95.4 334.2,96.0 335.0,96.6 335.9,97.1 336.7,97.7 337.5,98.2 338.4,98.8 339.2,99.4 340.1,99.9 340.9,100.5 341.7,101.1 342.5,101.6 343.4,102.2 344.2,102.8 345.1,103.4 345.9,103.9 346.7,104.5 347.6,105.1 348.4,105.7 349.2,106.3 350.0,106.9 350.9,107.5 351.7,108.1 352.6,108.8 353.4,109.4 354.2,110.0 355.1,110.7 355.9,111.3 356.7,112.0 357.6,112.6 358.4,113.3 359.2,114.0 360.0,114.6 360.9,115.4 361.7,116.1 362.5,116.8 363.3,117.5 364.2,118.3 365.0,119.0 365.8,119.8 366.6,120.5 367.4,121.3 368.3,122.1 369.1,123.0 369.9,123.8 370.7,124.7 371.5,125.6 372.4,126.5 373.2,127.4 374.0,128.3 374.8,129.3 375.6,130.4 376.4,131.4 377.2,132.5 378.1,133.7 378.9,134.8 379.7,136.1 380.5,137.4 381.3,138.7 382.1,140.2 383.0,141.6 383.8,143.2 384.6,144.9 385.4,146.7 386.2,148.7 387.0,150.8 387.9,153.1 388.7,155.6 389.5,158.4 390.3,161.6 391.1,165.1 391.9,169.3" fill="none" stroke="#4a90d9" stroke-width="1.5" stroke-linejoin="round" clip-path="url(#pc402)"/>
  <line x1="442" y1="16" x2="442" y2="171" stroke="#d1d5db"/>
  <line x1="442" y1="93.5" x2="800" y2="93.5" stroke="#d1d5db"/>
  <text x="621" y="197" text-anchor="middle" font-size="9" fill="#6b7280">Hz</text>
  <text x="420" y="93.5" text-anchor="middle" font-size="9" fill="#6b7280" transform="rotate(-90 420 93.5)">Phase (deg)</text>
  <line x1="474.6" y1="16" x2="474.6" y2="171" stroke="#e5e7eb" stroke-width="0.5"/>
  <line x1="493.7" y1="16" x2="493.7" y2="171" stroke="#e5e7eb" stroke-width="0.5"/>
  <line x1="507.3" y1="16" x2="507.3" y2="171" stroke="#e5e7eb" stroke-width="0.5"/>
  <line x1="517.8" y1="16" x2="517.8" y2="171" stroke="#e5e7eb" stroke-width="0.5"/>
  <line x1="526.4" y1="16" x2="526.4" y2="171" stroke="#e5e7eb" stroke-width="0.5"/>
  <line x1="533.7" y1="16" x2="533.7" y2="171" stroke="#e5e7eb" stroke-width="0.5"/>
  <line x1="539.9" y1="16" x2="539.9" y2="171" stroke="#e5e7eb" stroke-width="0.5"/>
  <line x1="545.5" y1="16" x2="545.5" y2="171" stroke="#e5e7eb" stroke-width="0.5"/>
  <line x1="583.1" y1="16" x2="583.1" y2="171" stroke="#e5e7eb" stroke-width="0.5"/>
  <line x1="602.2" y1="16" x2="602.2" y2="171" stroke="#e5e7eb" stroke-width="0.5"/>
  <line x1="615.7" y1="16" x2="615.7" y2="171" stroke="#e5e7eb" stroke-width="0.5"/>
  <line x1="626.3" y1="16" x2="626.3" y2="171" stroke="#e5e7eb" stroke-width="0.5"/>
  <line x1="634.8" y1="16" x2="634.8" y2="171" stroke="#e5e7eb" stroke-width="0.5"/>
  <line x1="642.1" y1="16" x2="642.1" y2="171" stroke="#e5e7eb" stroke-width="0.5"/>
  <line x1="648.4" y1="16" x2="648.4" y2="171" stroke="#e5e7eb" stroke-width="0.5"/>
  <line x1="653.9" y1="16" x2="653.9" y2="171" stroke="#e5e7eb" stroke-width="0.5"/>
  <line x1="691.5" y1="16" x2="691.5" y2="171" stroke="#e5e7eb" stroke-width="0.5"/>
  <line x1="710.6" y1="16" x2="710.6" y2="171" stroke="#e5e7eb" stroke-width="0.5"/>
  <line x1="724.2" y1="16" x2="724.2" y2="171" stroke="#e5e7eb" stroke-width="0.5"/>
  <line x1="734.7" y1="16" x2="734.7" y2="171" stroke="#e5e7eb" stroke-width="0.5"/>
  <line x1="743.3" y1="16" x2="743.3" y2="171" stroke="#e5e7eb" stroke-width="0.5"/>
  <line x1="750.6" y1="16" x2="750.6" y2="171" stroke="#e5e7eb" stroke-width="0.5"/>
  <line x1="756.8" y1="16" x2="756.8" y2="171" stroke="#e5e7eb" stroke-width="0.5"/>
  <line x1="762.4" y1="16" x2="762.4" y2="171" stroke="#e5e7eb" stroke-width="0.5"/>
  <line x1="800.0" y1="16" x2="800.0" y2="171" stroke="#e5e7eb" stroke-width="0.5"/>
  <line x1="550.5" y1="16" x2="550.5" y2="171" stroke="#e5e7eb" stroke-width="0.5"/>
  <text x="550.5" y="183" text-anchor="middle" font-size="8" fill="#6b7280">100</text>
  <line x1="658.9" y1="16" x2="658.9" y2="171" stroke="#e5e7eb" stroke-width="0.5"/>
  <text x="658.9" y="183" text-anchor="middle" font-size="8" fill="#6b7280">1k</text>
  <line x1="767.4" y1="16" x2="767.4" y2="171" stroke="#e5e7eb" stroke-width="0.5"/>
  <text x="767.4" y="183" text-anchor="middle" font-size="8" fill="#6b7280">10k</text>
  <line x1="442" y1="54.8" x2="800" y2="54.8" stroke="#e5e7eb" stroke-width="0.5"/>
  <line x1="442" y1="132.3" x2="800" y2="132.3" stroke="#e5e7eb" stroke-width="0.5"/>
  <line x1="442" y1="16.0" x2="800" y2="16.0" stroke="#e5e7eb" stroke-width="0.5"/>
  <text x="438" y="19.0" text-anchor="end" font-size="8" fill="#6b7280">180</text>
  <text x="438" y="96.5" text-anchor="end" font-size="8" fill="#6b7280">0</text>
  <line x1="442" y1="171.0" x2="800" y2="171.0" stroke="#e5e7eb" stroke-width="0.5"/>
  <text x="438" y="174.0" text-anchor="end" font-size="8" fill="#6b7280">-180</text>
  <line x1="658.9" y1="16" x2="658.9" y2="171" stroke="#d1d5db" stroke-width="1" stroke-dasharray="4 3"/>
  <defs><linearGradient id="g403" x1="0" y1="171" x2="0" y2="93.5" gradientUnits="userSpaceOnUse">
    <stop offset="0%" stop-color="#e74c3c" stop-opacity="0.15"/>
    <stop offset="100%" stop-color="#e74c3c" stop-opacity="0.02"/>
  </linearGradient></defs>
  <path d="M445.5,93.8 445.5,93.8 478.1,94.0 497.2,94.3 510.8,94.6 521.3,94.8 529.9,95.1 537.1,95.4 543.4,95.6 549.0,95.9 553.9,96.2 558.4,96.4 562.5,96.7 566.3,97.0 569.8,97.3 573.0,97.5 576.1,97.8 578.9,98.1 581.6,98.4 584.2,98.7 586.6,99.0 588.9,99.3 591.1,99.6 593.2,99.9 595.2,100.2 597.1,100.5 598.9,100.8 600.7,101.1 602.4,101.4 604.1,101.7 605.7,102.0 607.2,102.3 608.7,102.7 610.2,103.0 611.6,103.3 612.9,103.7 614.3,104.0 615.6,104.4 616.8,104.7 618.0,105.1 619.2,105.5 620.4,105.9 621.5,106.2 622.6,106.6 623.7,107.0 624.8,107.4 625.8,107.8 626.8,108.2 627.8,108.6 628.8,109.0 629.7,109.5 630.7,109.9 631.6,110.3 632.5,110.8 633.4,111.3 634.2,111.7 635.1,112.2 635.9,112.7 636.7,113.1 637.5,113.6 639.1,114.6 640.6,115.6 642.1,116.7 643.5,117.7 644.9,118.8 646.2,119.9 647.6,121.1 648.8,122.2 650.1,123.3 651.3,124.5 652.5,125.6 653.6,126.8 654.7,127.9 655.8,129.0 656.9,130.1 657.9,131.2 659.0,132.3 660.0,133.4 660.9,134.4 661.9,135.4 662.8,136.4 663.8,137.3 664.7,138.2 665.6,139.1 666.4,140.0 667.3,140.8 668.1,141.6 669.0,142.3 669.8,143.0 671.0,144.1 672.1,145.1 673.3,146.0 674.4,146.9 675.5,147.7 676.5,148.4 677.6,149.2 678.6,149.8 679.6,150.5 680.5,151.1 681.5,151.6 682.4,152.2 683.3,152.7 684.2,153.2 685.1,153.6 686.0,154.1 686.8,154.5 687.6,154.9 688.5,155.3 689.3,155.6 690.3,156.1 691.4,156.5 692.4,156.9 693.3,157.3 694.3,157.7 695.3,158.0 696.2,158.3 697.1,158.6 698.0,158.9 698.9,159.2 699.7,159.5 700.6,159.7 701.4,160.0 702.2,160.2 703.0,160.4 704.0,160.7 705.0,160.9 705.9,161.2 706.8,161.4 707.7,161.6 708.6,161.8 709.5,162.0 710.4,162.2 711.2,162.4 712.0,162.6 712.9,162.8 713.8,162.9 714.7,163.1 715.7,163.3 716.6,163.5 717.5,163.6 718.3,163.8 719.2,163.9 720.0,164.1 720.8,164.2 721.7,164.4 722.6,164.5 723.5,164.6 724.4,164.8 725.3,164.9 726.1,165.0 727.0,165.2 727.8,165.3 728.6,165.4 729.4,165.5 730.3,165.6 731.2,165.7 732.1,165.8 732.9,165.9 733.7,166.0 734.6,166.1 735.4,166.2 736.3,166.3 737.1,166.4 738.0,166.5 738.8,166.6 739.7,166.7 740.5,166.8 741.3,166.9 742.2,167.0 743.0,167.0 743.9,167.1 744.7,167.2 745.5,167.3 746.4,167.4 747.2,167.4 748.1,167.5 748.9,167.6 749.7,167.7 750.5,167.7 751.4,167.8 752.2,167.9 753.1,167.9 753.9,168.0 754.7,168.1 755.6,168.1 756.4,168.2 757.2,168.3 758.0,168.3 758.9,168.4 759.7,168.4 760.6,168.5 761.4,168.6 762.2,168.6 763.1,168.7 763.9,168.7 764.7,168.8 765.6,168.8 766.4,168.9 767.2,168.9 768.0,169.0 768.9,169.0 769.7,169.1 770.5,169.1 771.3,169.2 772.2,169.2 773.0,169.3 773.8,169.3 774.6,169.4 775.4,169.4 776.3,169.5 777.1,169.5 777.9,169.6 778.7,169.6 779.5,169.7 780.4,169.7 781.2,169.8 782.0,169.8 782.8,169.8 783.6,169.9 784.4,169.9 785.2,170.0 786.1,170.0 786.9,170.1 787.7,170.1 788.5,170.1 789.3,170.2 790.1,170.2 791.0,170.3 791.8,170.3 792.6,170.3 793.4,170.4 794.2,170.4 795.0,170.5 795.9,170.5 796.7,170.6 797.5,170.6 798.3,170.6 799.1,170.7 799.9,170.7 L799.9,93.5 L445.5,93.5 Z" fill="url(#g403)"/>
  <defs><clipPath id="pc404"><rect x="442" y="16" width="358" height="155"/></clipPath></defs>
  <polyline points="445.5,93.8 478.1,94.0 497.2,94.3 510.8,94.6 521.3,94.8 529.9,95.1 537.1,95.4 543.4,95.6 549.0,95.9 553.9,96.2 558.4,96.4 562.5,96.7 566.3,97.0 569.8,97.3 573.0,97.5 576.1,97.8 578.9,98.1 581.6,98.4 584.2,98.7 586.6,99.0 588.9,99.3 591.1,99.6 593.2,99.9 595.2,100.2 597.1,100.5 598.9,100.8 600.7,101.1 602.4,101.4 604.1,101.7 605.7,102.0 607.2,102.3 608.7,102.7 610.2,103.0 611.6,103.3 612.9,103.7 614.3,104.0 615.6,104.4 616.8,104.7 618.0,105.1 619.2,105.5 620.4,105.9 621.5,106.2 622.6,106.6 623.7,107.0 624.8,107.4 625.8,107.8 626.8,108.2 627.8,108.6 628.8,109.0 629.7,109.5 630.7,109.9 631.6,110.3 632.5,110.8 633.4,111.3 634.2,111.7 635.1,112.2 635.9,112.7 636.7,113.1 637.5,113.6 639.1,114.6 640.6,115.6 642.1,116.7 643.5,117.7 644.9,118.8 646.2,119.9 647.6,121.1 648.8,122.2 650.1,123.3 651.3,124.5 652.5,125.6 653.6,126.8 654.7,127.9 655.8,129.0 656.9,130.1 657.9,131.2 659.0,132.3 660.0,133.4 660.9,134.4 661.9,135.4 662.8,136.4 663.8,137.3 664.7,138.2 665.6,139.1 666.4,140.0 667.3,140.8 668.1,141.6 669.0,142.3 669.8,143.0 671.0,144.1 672.1,145.1 673.3,146.0 674.4,146.9 675.5,147.7 676.5,148.4 677.6,149.2 678.6,149.8 679.6,150.5 680.5,151.1 681.5,151.6 682.4,152.2 683.3,152.7 684.2,153.2 685.1,153.6 686.0,154.1 686.8,154.5 687.6,154.9 688.5,155.3 689.3,155.6 690.3,156.1 691.4,156.5 692.4,156.9 693.3,157.3 694.3,157.7 695.3,158.0 696.2,158.3 697.1,158.6 698.0,158.9 698.9,159.2 699.7,159.5 700.6,159.7 701.4,160.0 702.2,160.2 703.0,160.4 704.0,160.7 705.0,160.9 705.9,161.2 706.8,161.4 707.7,161.6 708.6,161.8 709.5,162.0 710.4,162.2 711.2,162.4 712.0,162.6 712.9,162.8 713.8,162.9 714.7,163.1 715.7,163.3 716.6,163.5 717.5,163.6 718.3,163.8 719.2,163.9 720.0,164.1 720.8,164.2 721.7,164.4 722.6,164.5 723.5,164.6 724.4,164.8 725.3,164.9 726.1,165.0 727.0,165.2 727.8,165.3 728.6,165.4 729.4,165.5 730.3,165.6 731.2,165.7 732.1,165.8 732.9,165.9 733.7,166.0 734.6,166.1 735.4,166.2 736.3,166.3 737.1,166.4 738.0,166.5 738.8,166.6 739.7,166.7 740.5,166.8 741.3,166.9 742.2,167.0 743.0,167.0 743.9,167.1 744.7,167.2 745.5,167.3 746.4,167.4 747.2,167.4 748.1,167.5 748.9,167.6 749.7,167.7 750.5,167.7 751.4,167.8 752.2,167.9 753.1,167.9 753.9,168.0 754.7,168.1 755.6,168.1 756.4,168.2 757.2,168.3 758.0,168.3 758.9,168.4 759.7,168.4 760.6,168.5 761.4,168.6 762.2,168.6 763.1,168.7 763.9,168.7 764.7,168.8 765.6,168.8 766.4,168.9 767.2,168.9 768.0,169.0 768.9,169.0 769.7,169.1 770.5,169.1 771.3,169.2 772.2,169.2 773.0,169.3 773.8,169.3 774.6,169.4 775.4,169.4 776.3,169.5 777.1,169.5 777.9,169.6 778.7,169.6 779.5,169.7 780.4,169.7 781.2,169.8 782.0,169.8 782.8,169.8 783.6,169.9 784.4,169.9 785.2,170.0 786.1,170.0 786.9,170.1 787.7,170.1 788.5,170.1 789.3,170.2 790.1,170.2 791.0,170.3 791.8,170.3 792.6,170.3 793.4,170.4 794.2,170.4 795.0,170.5 795.9,170.5 796.7,170.6 797.5,170.6 798.3,170.6 799.1,170.7 799.9,170.7" fill="none" stroke="#e74c3c" stroke-width="1.5" stroke-linejoin="round" clip-path="url(#pc404)"/>
  <line x1="34" y1="221" x2="34" y2="376" stroke="#d1d5db"/>
  <line x1="34" y1="298.5" x2="392" y2="298.5" stroke="#d1d5db"/>
  <text x="213" y="402" text-anchor="middle" font-size="9" fill="#6b7280">Hz</text>
  <text x="12" y="298.5" text-anchor="middle" font-size="9" fill="#6b7280" transform="rotate(-90 12 298.5)">Group delay</text>
  <line x1="66.6" y1="221" x2="66.6" y2="376" stroke="#e5e7eb" stroke-width="0.5"/>
  <line x1="85.7" y1="221" x2="85.7" y2="376" stroke="#e5e7eb" stroke-width="0.5"/>
  <line x1="99.3" y1="221" x2="99.3" y2="376" stroke="#e5e7eb" stroke-width="0.5"/>
  <line x1="109.8" y1="221" x2="109.8" y2="376" stroke="#e5e7eb" stroke-width="0.5"/>
  <line x1="118.4" y1="221" x2="118.4" y2="376" stroke="#e5e7eb" stroke-width="0.5"/>
  <line x1="125.7" y1="221" x2="125.7" y2="376" stroke="#e5e7eb" stroke-width="0.5"/>
  <line x1="131.9" y1="221" x2="131.9" y2="376" stroke="#e5e7eb" stroke-width="0.5"/>
  <line x1="137.5" y1="221" x2="137.5" y2="376" stroke="#e5e7eb" stroke-width="0.5"/>
  <line x1="175.1" y1="221" x2="175.1" y2="376" stroke="#e5e7eb" stroke-width="0.5"/>
  <line x1="194.2" y1="221" x2="194.2" y2="376" stroke="#e5e7eb" stroke-width="0.5"/>
  <line x1="207.7" y1="221" x2="207.7" y2="376" stroke="#e5e7eb" stroke-width="0.5"/>
  <line x1="218.3" y1="221" x2="218.3" y2="376" stroke="#e5e7eb" stroke-width="0.5"/>
  <line x1="226.8" y1="221" x2="226.8" y2="376" stroke="#e5e7eb" stroke-width="0.5"/>
  <line x1="234.1" y1="221" x2="234.1" y2="376" stroke="#e5e7eb" stroke-width="0.5"/>
  <line x1="240.4" y1="221" x2="240.4" y2="376" stroke="#e5e7eb" stroke-width="0.5"/>
  <line x1="245.9" y1="221" x2="245.9" y2="376" stroke="#e5e7eb" stroke-width="0.5"/>
  <line x1="283.5" y1="221" x2="283.5" y2="376" stroke="#e5e7eb" stroke-width="0.5"/>
  <line x1="302.6" y1="221" x2="302.6" y2="376" stroke="#e5e7eb" stroke-width="0.5"/>
  <line x1="316.2" y1="221" x2="316.2" y2="376" stroke="#e5e7eb" stroke-width="0.5"/>
  <line x1="326.7" y1="221" x2="326.7" y2="376" stroke="#e5e7eb" stroke-width="0.5"/>
  <line x1="335.3" y1="221" x2="335.3" y2="376" stroke="#e5e7eb" stroke-width="0.5"/>
  <line x1="342.6" y1="221" x2="342.6" y2="376" stroke="#e5e7eb" stroke-width="0.5"/>
  <line x1="348.8" y1="221" x2="348.8" y2="376" stroke="#e5e7eb" stroke-width="0.5"/>
  <line x1="354.4" y1="221" x2="354.4" y2="376" stroke="#e5e7eb" stroke-width="0.5"/>
  <line x1="392.0" y1="221" x2="392.0" y2="376" stroke="#e5e7eb" stroke-width="0.5"/>
  <line x1="142.5" y1="221" x2="142.5" y2="376" stroke="#e5e7eb" stroke-width="0.5"/>
  <text x="142.5" y="388" text-anchor="middle" font-size="8" fill="#6b7280">100</text>
  <line x1="250.9" y1="221" x2="250.9" y2="376" stroke="#e5e7eb" stroke-width="0.5"/>
  <text x="250.9" y="388" text-anchor="middle" font-size="8" fill="#6b7280">1k</text>
  <line x1="359.4" y1="221" x2="359.4" y2="376" stroke="#e5e7eb" stroke-width="0.5"/>
  <text x="359.4" y="388" text-anchor="middle" font-size="8" fill="#6b7280">10k</text>
  <line x1="34" y1="337.8" x2="392" y2="337.8" stroke="#e5e7eb" stroke-width="0.5"/>
  <text x="30" y="340.8" text-anchor="end" font-size="8" fill="#6b7280">-10</text>
  <text x="30" y="301.5" text-anchor="end" font-size="8" fill="#6b7280">0</text>
  <line x1="34" y1="259.2" x2="392" y2="259.2" stroke="#e5e7eb" stroke-width="0.5"/>
  <text x="30" y="262.2" text-anchor="end" font-size="8" fill="#6b7280">10</text>
  <line x1="250.9" y1="221" x2="250.9" y2="376" stroke="#d1d5db" stroke-width="1" stroke-dasharray="4 3"/>
  <defs><linearGradient id="g405" x1="0" y1="221" x2="0" y2="298.5" gradientUnits="userSpaceOnUse">
    <stop offset="0%" stop-color="#2ecc71" stop-opacity="0.15"/>
    <stop offset="100%" stop-color="#2ecc71" stop-opacity="0.02"/>
  </linearGradient></defs>
  <path d="M37.5,270.9 37.5,270.9 70.1,270.9 89.2,270.9 102.8,270.8 113.3,270.8 121.9,270.7 129.1,270.6 135.4,270.5 141.0,270.4 145.9,270.3 150.4,270.1 154.5,270.0 158.3,269.8 161.8,269.7 165.0,269.5 168.1,269.3 170.9,269.1 173.6,268.8 176.2,268.6 178.6,268.3 180.9,268.0 183.1,267.8 185.2,267.5 187.2,267.1 189.1,266.8 190.9,266.5 192.7,266.1 194.4,265.7 196.1,265.3 197.7,264.9 199.2,264.5 200.7,264.1 202.2,263.6 203.6,263.1 204.9,262.6 206.3,262.1 207.6,261.6 208.8,261.1 210.0,260.6 211.2,260.0 212.4,259.4 213.5,258.8 214.6,258.2 215.7,257.6 216.8,257.0 217.8,256.4 218.8,255.7 219.8,255.0 220.8,254.4 221.7,253.7 222.7,253.0 223.6,252.3 224.5,251.6 225.4,250.9 226.2,250.2 227.1,249.5 227.9,248.8 228.7,248.2 229.5,247.5 231.1,246.1 232.6,244.9 234.1,243.6 235.5,242.5 236.9,241.5 238.2,240.7 239.6,239.9 240.8,239.4 242.1,239.1 243.3,238.9 244.5,238.9 245.6,239.2 246.7,239.6 247.8,240.2 248.9,241.1 249.9,242.0 251.0,243.2 252.0,244.4 252.9,245.8 253.9,247.2 254.8,248.7 255.8,250.3 256.7,251.9 257.6,253.5 258.4,255.1 259.3,256.7 260.1,258.3 261.0,259.8 261.8,261.4 263.0,263.5 264.1,265.6 265.3,267.6 266.4,269.4 267.5,271.1 268.5,272.7 269.6,274.2 270.6,275.6 271.6,276.9 272.5,278.1 273.5,279.2 274.4,280.3 275.3,281.2 276.2,282.1 277.1,283.0 278.0,283.7 278.8,284.4 279.6,285.1 280.5,285.7 281.3,286.3 282.3,287.0 283.4,287.7 284.4,288.3 285.3,288.9 286.3,289.4 287.3,289.9 288.2,290.3 289.1,290.7 290.0,291.1 290.9,291.4 291.7,291.7 292.6,292.0 293.4,292.3 294.2,292.6 295.0,292.8 296.0,293.1 297.0,293.4 297.9,293.6 298.8,293.9 299.7,294.1 300.6,294.3 301.5,294.4 302.4,294.6 303.2,294.8 304.0,294.9 304.9,295.1 305.8,295.2 306.7,295.4 307.7,295.5 308.6,295.6 309.5,295.8 310.3,295.9 311.2,296.0 312.0,296.1 312.8,296.2 313.7,296.3 314.6,296.4 315.5,296.4 316.4,296.5 317.3,296.6 318.1,296.7 319.0,296.7 319.8,296.8 320.6,296.9 321.4,296.9 322.3,297.0 323.2,297.0 324.1,297.1 324.9,297.2 325.7,297.2 326.6,297.3 327.4,297.3 328.3,297.3 329.1,297.4 330.0,297.4 330.8,297.5 331.7,297.5 332.5,297.5 333.3,297.6 334.2,297.6 335.0,297.6 335.9,297.7 336.7,297.7 337.5,297.7 338.4,297.7 339.2,297.8 340.1,297.8 340.9,297.8 341.7,297.8 342.5,297.9 343.4,297.9 344.2,297.9 345.1,297.9 345.9,297.9 346.7,298.0 347.6,298.0 348.4,298.0 349.2,298.0 350.0,298.0 350.9,298.0 351.7,298.1 352.6,298.1 353.4,298.1 354.2,298.1 355.1,298.1 355.9,298.1 356.7,298.1 357.6,298.1 358.4,298.2 359.2,298.2 360.0,298.2 360.9,298.2 361.7,298.2 362.5,298.2 363.3,298.2 364.2,298.2 365.0,298.2 365.8,298.2 366.6,298.2 367.4,298.2 368.3,298.3 369.1,298.3 369.9,298.3 370.7,298.3 371.5,298.3 372.4,298.3 373.2,298.3 374.0,298.3 374.8,298.3 375.6,298.3 376.4,298.3 377.2,298.3 378.1,298.3 378.9,298.3 379.7,298.3 380.5,298.3 381.3,298.3 382.1,298.3 383.0,298.3 383.8,298.3 384.6,298.3 385.4,298.3 386.2,298.3 387.0,298.3 387.9,298.3 388.7,298.4 389.5,298.4 390.3,298.4 391.1,298.4 391.9,298.4 L391.9,298.5 L37.5,298.5 Z" fill="url(#g405)"/>
  <defs><clipPath id="pc406"><rect x="34" y="221" width="358" height="155"/></clipPath></defs>
  <polyline points="37.5,270.9 70.1,270.9 89.2,270.9 102.8,270.8 113.3,270.8 121.9,270.7 129.1,270.6 135.4,270.5 141.0,270.4 145.9,270.3 150.4,270.1 154.5,270.0 158.3,269.8 161.8,269.7 165.0,269.5 168.1,269.3 170.9,269.1 173.6,268.8 176.2,268.6 178.6,268.3 180.9,268.0 183.1,267.8 185.2,267.5 187.2,267.1 189.1,266.8 190.9,266.5 192.7,266.1 194.4,265.7 196.1,265.3 197.7,264.9 199.2,264.5 200.7,264.1 202.2,263.6 203.6,263.1 204.9,262.6 206.3,262.1 207.6,261.6 208.8,261.1 210.0,260.6 211.2,260.0 212.4,259.4 213.5,258.8 214.6,258.2 215.7,257.6 216.8,257.0 217.8,256.4 218.8,255.7 219.8,255.0 220.8,254.4 221.7,253.7 222.7,253.0 223.6,252.3 224.5,251.6 225.4,250.9 226.2,250.2 227.1,249.5 227.9,248.8 228.7,248.2 229.5,247.5 231.1,246.1 232.6,244.9 234.1,243.6 235.5,242.5 236.9,241.5 238.2,240.7 239.6,239.9 240.8,239.4 242.1,239.1 243.3,238.9 244.5,238.9 245.6,239.2 246.7,239.6 247.8,240.2 248.9,241.1 249.9,242.0 251.0,243.2 252.0,244.4 252.9,245.8 253.9,247.2 254.8,248.7 255.8,250.3 256.7,251.9 257.6,253.5 258.4,255.1 259.3,256.7 260.1,258.3 261.0,259.8 261.8,261.4 263.0,263.5 264.1,265.6 265.3,267.6 266.4,269.4 267.5,271.1 268.5,272.7 269.6,274.2 270.6,275.6 271.6,276.9 272.5,278.1 273.5,279.2 274.4,280.3 275.3,281.2 276.2,282.1 277.1,283.0 278.0,283.7 278.8,284.4 279.6,285.1 280.5,285.7 281.3,286.3 282.3,287.0 283.4,287.7 284.4,288.3 285.3,288.9 286.3,289.4 287.3,289.9 288.2,290.3 289.1,290.7 290.0,291.1 290.9,291.4 291.7,291.7 292.6,292.0 293.4,292.3 294.2,292.6 295.0,292.8 296.0,293.1 297.0,293.4 297.9,293.6 298.8,293.9 299.7,294.1 300.6,294.3 301.5,294.4 302.4,294.6 303.2,294.8 304.0,294.9 304.9,295.1 305.8,295.2 306.7,295.4 307.7,295.5 308.6,295.6 309.5,295.8 310.3,295.9 311.2,296.0 312.0,296.1 312.8,296.2 313.7,296.3 314.6,296.4 315.5,296.4 316.4,296.5 317.3,296.6 318.1,296.7 319.0,296.7 319.8,296.8 320.6,296.9 321.4,296.9 322.3,297.0 323.2,297.0 324.1,297.1 324.9,297.2 325.7,297.2 326.6,297.3 327.4,297.3 328.3,297.3 329.1,297.4 330.0,297.4 330.8,297.5 331.7,297.5 332.5,297.5 333.3,297.6 334.2,297.6 335.0,297.6 335.9,297.7 336.7,297.7 337.5,297.7 338.4,297.7 339.2,297.8 340.1,297.8 340.9,297.8 341.7,297.8 342.5,297.9 343.4,297.9 344.2,297.9 345.1,297.9 345.9,297.9 346.7,298.0 347.6,298.0 348.4,298.0 349.2,298.0 350.0,298.0 350.9,298.0 351.7,298.1 352.6,298.1 353.4,298.1 354.2,298.1 355.1,298.1 355.9,298.1 356.7,298.1 357.6,298.1 358.4,298.2 359.2,298.2 360.0,298.2 360.9,298.2 361.7,298.2 362.5,298.2 363.3,298.2 364.2,298.2 365.0,298.2 365.8,298.2 366.6,298.2 367.4,298.2 368.3,298.3 369.1,298.3 369.9,298.3 370.7,298.3 371.5,298.3 372.4,298.3 373.2,298.3 374.0,298.3 374.8,298.3 375.6,298.3 376.4,298.3 377.2,298.3 378.1,298.3 378.9,298.3 379.7,298.3 380.5,298.3 381.3,298.3 382.1,298.3 383.0,298.3 383.8,298.3 384.6,298.3 385.4,298.3 386.2,298.3 387.0,298.3 387.9,298.3 388.7,298.4 389.5,298.4 390.3,298.4 391.1,298.4 391.9,298.4" fill="none" stroke="#2ecc71" stroke-width="1.5" stroke-linejoin="round" clip-path="url(#pc406)"/>
  <line x1="442" y1="221" x2="442" y2="376" stroke="#d1d5db"/>
  <line x1="442" y1="298.5" x2="800" y2="298.5" stroke="#d1d5db"/>
  <text x="621" y="402" text-anchor="middle" font-size="9" fill="#6b7280">Samples</text>
  <text x="420" y="298.5" text-anchor="middle" font-size="9" fill="#6b7280" transform="rotate(-90 420 298.5)">Impulse response</text>
  <line x1="442.0" y1="221" x2="442.0" y2="376" stroke="#e5e7eb" stroke-width="0.5"/>
  <text x="442.0" y="388" text-anchor="middle" font-size="8" fill="#6b7280">0</text>
  <line x1="567.9" y1="221" x2="567.9" y2="376" stroke="#e5e7eb" stroke-width="0.5"/>
  <text x="567.9" y="388" text-anchor="middle" font-size="8" fill="#6b7280">90</text>
  <line x1="693.7" y1="221" x2="693.7" y2="376" stroke="#e5e7eb" stroke-width="0.5"/>
  <text x="693.7" y="388" text-anchor="middle" font-size="8" fill="#6b7280">180</text>
  <line x1="442" y1="358.5" x2="800" y2="358.5" stroke="#e5e7eb" stroke-width="0.5"/>
  <text x="438" y="361.5" text-anchor="end" font-size="8" fill="#6b7280">-0.06</text>
  <text x="438" y="301.5" text-anchor="end" font-size="8" fill="#6b7280">0</text>
  <line x1="442" y1="238.5" x2="800" y2="238.5" stroke="#e5e7eb" stroke-width="0.5"/>
  <text x="438" y="241.5" text-anchor="end" font-size="8" fill="#6b7280">0.06</text>
  <defs><linearGradient id="g407" x1="0" y1="221" x2="0" y2="298.5" gradientUnits="userSpaceOnUse">
    <stop offset="0%" stop-color="#f39c12" stop-opacity="0.15"/>
    <stop offset="100%" stop-color="#f39c12" stop-opacity="0.02"/>
  </linearGradient></defs>
  <defs><linearGradient id="g408" x1="0" y1="376" x2="0" y2="298.5" gradientUnits="userSpaceOnUse">
    <stop offset="0%" stop-color="#f39c12" stop-opacity="0.15"/>
    <stop offset="100%" stop-color="#f39c12" stop-opacity="0.02"/>
  </linearGradient></defs>
  <defs><clipPath id="c409"><rect x="442" y="221" width="358" height="77.5"/></clipPath></defs>
  <defs><clipPath id="c410"><rect x="442" y="298.5" width="358" height="77.5"/></clipPath></defs>
  <path d="M442.0,293.8 442.0,293.8 443.4,280.3 444.8,264.2 446.2,251.0 447.6,240.3 449.0,232.2 450.4,226.4 451.8,222.8 453.2,221.0 454.6,221.0 456.0,222.4 457.4,225.1 458.8,228.8 460.2,233.4 461.6,238.5 463.0,244.2 464.4,250.1 465.8,256.1 467.2,262.1 468.6,268.1 470.0,273.8 471.4,279.2 472.8,284.3 474.2,288.9 475.6,293.2 477.0,296.9 478.4,300.2 479.8,303.1 481.2,305.4 482.6,307.4 484.0,308.9 485.4,310.0 486.8,310.7 488.1,311.1 489.5,311.2 490.9,311.1 492.3,310.7 493.7,310.2 495.1,309.5 496.5,308.7 497.9,307.8 499.3,306.9 500.7,305.9 502.1,304.9 503.5,303.9 504.9,302.9 506.3,302.0 507.7,301.2 509.1,300.4 510.5,299.7 511.9,299.0 513.3,298.4 514.7,297.9 516.1,297.5 517.5,297.2 518.9,296.9 520.3,296.7 521.7,296.5 523.1,296.5 524.5,296.4 525.9,296.4 527.3,296.5 528.7,296.5 530.1,296.6 531.5,296.8 532.9,296.9 534.3,297.1 535.7,297.2 537.1,297.4 538.5,297.5 539.9,297.7 541.3,297.9 542.7,298.0 544.1,298.1 545.5,298.3 546.9,298.4 548.3,298.5 549.7,298.6 551.1,298.6 552.5,298.7 553.9,298.7 555.3,298.8 556.7,298.8 558.1,298.8 559.5,298.8 560.9,298.8 562.3,298.8 563.7,298.8 565.1,298.8 566.5,298.8 567.9,298.8 569.3,298.7 570.7,298.7 572.1,298.7 573.5,298.7 574.9,298.6 576.3,298.6 577.6,298.6 579.0,298.6 580.4,298.5 581.8,298.5 583.2,298.5 584.6,298.5 586.0,298.5 587.4,298.5 588.8,298.5 590.2,298.5 591.6,298.5 593.0,298.4 594.4,298.4 595.8,298.4 597.2,298.4 598.6,298.4 600.0,298.4 601.4,298.5 602.8,298.5 604.2,298.5 605.6,298.5 607.0,298.5 608.4,298.5 609.8,298.5 611.2,298.5 612.6,298.5 614.0,298.5 615.4,298.5 616.8,298.5 618.2,298.5 619.6,298.5 621.0,298.5 622.4,298.5 623.8,298.5 625.2,298.5 626.6,298.5 628.0,298.5 629.4,298.5 630.8,298.5 632.2,298.5 633.6,298.5 635.0,298.5 636.4,298.5 637.8,298.5 639.2,298.5 640.6,298.5 642.0,298.5 643.4,298.5 644.8,298.5 646.2,298.5 647.6,298.5 649.0,298.5 650.4,298.5 651.8,298.5 653.2,298.5 654.6,298.5 656.0,298.5 657.4,298.5 658.8,298.5 660.2,298.5 661.6,298.5 663.0,298.5 664.4,298.5 665.8,298.5 667.1,298.5 668.5,298.5 669.9,298.5 671.3,298.5 672.7,298.5 674.1,298.5 675.5,298.5 676.9,298.5 678.3,298.5 679.7,298.5 681.1,298.5 682.5,298.5 683.9,298.5 685.3,298.5 686.7,298.5 688.1,298.5 689.5,298.5 690.9,298.5 692.3,298.5 693.7,298.5 695.1,298.5 696.5,298.5 697.9,298.5 699.3,298.5 700.7,298.5 702.1,298.5 703.5,298.5 704.9,298.5 706.3,298.5 707.7,298.5 709.1,298.5 710.5,298.5 711.9,298.5 713.3,298.5 714.7,298.5 716.1,298.5 717.5,298.5 718.9,298.5 720.3,298.5 721.7,298.5 723.1,298.5 724.5,298.5 725.9,298.5 727.3,298.5 728.7,298.5 730.1,298.5 731.5,298.5 732.9,298.5 734.3,298.5 735.7,298.5 737.1,298.5 738.5,298.5 739.9,298.5 741.3,298.5 742.7,298.5 744.1,298.5 745.5,298.5 746.9,298.5 748.3,298.5 749.7,298.5 751.1,298.5 752.5,298.5 753.9,298.5 755.3,298.5 756.6,298.5 758.0,298.5 759.4,298.5 760.8,298.5 762.2,298.5 763.6,298.5 765.0,298.5 766.4,298.5 767.8,298.5 769.2,298.5 770.6,298.5 772.0,298.5 773.4,298.5 774.8,298.5 776.2,298.5 777.6,298.5 779.0,298.5 780.4,298.5 781.8,298.5 783.2,298.5 784.6,298.5 786.0,298.5 787.4,298.5 788.8,298.5 790.2,298.5 791.6,298.5 793.0,298.5 794.4,298.5 795.8,298.5 797.2,298.5 798.6,298.5 L798.6,298.5 L442.0,298.5 Z" fill="url(#g407)" clip-path="url(#c409)"/>
  <path d="M442.0,293.8 442.0,293.8 443.4,280.3 444.8,264.2 446.2,251.0 447.6,240.3 449.0,232.2 450.4,226.4 451.8,222.8 453.2,221.0 454.6,221.0 456.0,222.4 457.4,225.1 458.8,228.8 460.2,233.4 461.6,238.5 463.0,244.2 464.4,250.1 465.8,256.1 467.2,262.1 468.6,268.1 470.0,273.8 471.4,279.2 472.8,284.3 474.2,288.9 475.6,293.2 477.0,296.9 478.4,300.2 479.8,303.1 481.2,305.4 482.6,307.4 484.0,308.9 485.4,310.0 486.8,310.7 488.1,311.1 489.5,311.2 490.9,311.1 492.3,310.7 493.7,310.2 495.1,309.5 496.5,308.7 497.9,307.8 499.3,306.9 500.7,305.9 502.1,304.9 503.5,303.9 504.9,302.9 506.3,302.0 507.7,301.2 509.1,300.4 510.5,299.7 511.9,299.0 513.3,298.4 514.7,297.9 516.1,297.5 517.5,297.2 518.9,296.9 520.3,296.7 521.7,296.5 523.1,296.5 524.5,296.4 525.9,296.4 527.3,296.5 528.7,296.5 530.1,296.6 531.5,296.8 532.9,296.9 534.3,297.1 535.7,297.2 537.1,297.4 538.5,297.5 539.9,297.7 541.3,297.9 542.7,298.0 544.1,298.1 545.5,298.3 546.9,298.4 548.3,298.5 549.7,298.6 551.1,298.6 552.5,298.7 553.9,298.7 555.3,298.8 556.7,298.8 558.1,298.8 559.5,298.8 560.9,298.8 562.3,298.8 563.7,298.8 565.1,298.8 566.5,298.8 567.9,298.8 569.3,298.7 570.7,298.7 572.1,298.7 573.5,298.7 574.9,298.6 576.3,298.6 577.6,298.6 579.0,298.6 580.4,298.5 581.8,298.5 583.2,298.5 584.6,298.5 586.0,298.5 587.4,298.5 588.8,298.5 590.2,298.5 591.6,298.5 593.0,298.4 594.4,298.4 595.8,298.4 597.2,298.4 598.6,298.4 600.0,298.4 601.4,298.5 602.8,298.5 604.2,298.5 605.6,298.5 607.0,298.5 608.4,298.5 609.8,298.5 611.2,298.5 612.6,298.5 614.0,298.5 615.4,298.5 616.8,298.5 618.2,298.5 619.6,298.5 621.0,298.5 622.4,298.5 623.8,298.5 625.2,298.5 626.6,298.5 628.0,298.5 629.4,298.5 630.8,298.5 632.2,298.5 633.6,298.5 635.0,298.5 636.4,298.5 637.8,298.5 639.2,298.5 640.6,298.5 642.0,298.5 643.4,298.5 644.8,298.5 646.2,298.5 647.6,298.5 649.0,298.5 650.4,298.5 651.8,298.5 653.2,298.5 654.6,298.5 656.0,298.5 657.4,298.5 658.8,298.5 660.2,298.5 661.6,298.5 663.0,298.5 664.4,298.5 665.8,298.5 667.1,298.5 668.5,298.5 669.9,298.5 671.3,298.5 672.7,298.5 674.1,298.5 675.5,298.5 676.9,298.5 678.3,298.5 679.7,298.5 681.1,298.5 682.5,298.5 683.9,298.5 685.3,298.5 686.7,298.5 688.1,298.5 689.5,298.5 690.9,298.5 692.3,298.5 693.7,298.5 695.1,298.5 696.5,298.5 697.9,298.5 699.3,298.5 700.7,298.5 702.1,298.5 703.5,298.5 704.9,298.5 706.3,298.5 707.7,298.5 709.1,298.5 710.5,298.5 711.9,298.5 713.3,298.5 714.7,298.5 716.1,298.5 717.5,298.5 718.9,298.5 720.3,298.5 721.7,298.5 723.1,298.5 724.5,298.5 725.9,298.5 727.3,298.5 728.7,298.5 730.1,298.5 731.5,298.5 732.9,298.5 734.3,298.5 735.7,298.5 737.1,298.5 738.5,298.5 739.9,298.5 741.3,298.5 742.7,298.5 744.1,298.5 745.5,298.5 746.9,298.5 748.3,298.5 749.7,298.5 751.1,298.5 752.5,298.5 753.9,298.5 755.3,298.5 756.6,298.5 758.0,298.5 759.4,298.5 760.8,298.5 762.2,298.5 763.6,298.5 765.0,298.5 766.4,298.5 767.8,298.5 769.2,298.5 770.6,298.5 772.0,298.5 773.4,298.5 774.8,298.5 776.2,298.5 777.6,298.5 779.0,298.5 780.4,298.5 781.8,298.5 783.2,298.5 784.6,298.5 786.0,298.5 787.4,298.5 788.8,298.5 790.2,298.5 791.6,298.5 793.0,298.5 794.4,298.5 795.8,298.5 797.2,298.5 798.6,298.5 L798.6,298.5 L442.0,298.5 Z" fill="url(#g408)" clip-path="url(#c410)"/>
  <defs><clipPath id="pc411"><rect x="442" y="221" width="358" height="155"/></clipPath></defs>
  <polyline points="442.0,293.8 443.4,280.3 444.8,264.2 446.2,251.0 447.6,240.3 449.0,232.2 450.4,226.4 451.8,222.8 453.2,221.0 454.6,221.0 456.0,222.4 457.4,225.1 458.8,228.8 460.2,233.4 461.6,238.5 463.0,244.2 464.4,250.1 465.8,256.1 467.2,262.1 468.6,268.1 470.0,273.8 471.4,279.2 472.8,284.3 474.2,288.9 475.6,293.2 477.0,296.9 478.4,300.2 479.8,303.1 481.2,305.4 482.6,307.4 484.0,308.9 485.4,310.0 486.8,310.7 488.1,311.1 489.5,311.2 490.9,311.1 492.3,310.7 493.7,310.2 495.1,309.5 496.5,308.7 497.9,307.8 499.3,306.9 500.7,305.9 502.1,304.9 503.5,303.9 504.9,302.9 506.3,302.0 507.7,301.2 509.1,300.4 510.5,299.7 511.9,299.0 513.3,298.4 514.7,297.9 516.1,297.5 517.5,297.2 518.9,296.9 520.3,296.7 521.7,296.5 523.1,296.5 524.5,296.4 525.9,296.4 527.3,296.5 528.7,296.5 530.1,296.6 531.5,296.8 532.9,296.9 534.3,297.1 535.7,297.2 537.1,297.4 538.5,297.5 539.9,297.7 541.3,297.9 542.7,298.0 544.1,298.1 545.5,298.3 546.9,298.4 548.3,298.5 549.7,298.6 551.1,298.6 552.5,298.7 553.9,298.7 555.3,298.8 556.7,298.8 558.1,298.8 559.5,298.8 560.9,298.8 562.3,298.8 563.7,298.8 565.1,298.8 566.5,298.8 567.9,298.8 569.3,298.7 570.7,298.7 572.1,298.7 573.5,298.7 574.9,298.6 576.3,298.6 577.6,298.6 579.0,298.6 580.4,298.5 581.8,298.5 583.2,298.5 584.6,298.5 586.0,298.5 587.4,298.5 588.8,298.5 590.2,298.5 591.6,298.5 593.0,298.4 594.4,298.4 595.8,298.4 597.2,298.4 598.6,298.4 600.0,298.4 601.4,298.5 602.8,298.5 604.2,298.5 605.6,298.5 607.0,298.5 608.4,298.5 609.8,298.5 611.2,298.5 612.6,298.5 614.0,298.5 615.4,298.5 616.8,298.5 618.2,298.5 619.6,298.5 621.0,298.5 622.4,298.5 623.8,298.5 625.2,298.5 626.6,298.5 628.0,298.5 629.4,298.5 630.8,298.5 632.2,298.5 633.6,298.5 635.0,298.5 636.4,298.5 637.8,298.5 639.2,298.5 640.6,298.5 642.0,298.5 643.4,298.5 644.8,298.5 646.2,298.5 647.6,298.5 649.0,298.5 650.4,298.5 651.8,298.5 653.2,298.5 654.6,298.5 656.0,298.5 657.4,298.5 658.8,298.5 660.2,298.5 661.6,298.5 663.0,298.5 664.4,298.5 665.8,298.5 667.1,298.5 668.5,298.5 669.9,298.5 671.3,298.5 672.7,298.5 674.1,298.5 675.5,298.5 676.9,298.5 678.3,298.5 679.7,298.5 681.1,298.5 682.5,298.5 683.9,298.5 685.3,298.5 686.7,298.5 688.1,298.5 689.5,298.5 690.9,298.5 692.3,298.5 693.7,298.5 695.1,298.5 696.5,298.5 697.9,298.5 699.3,298.5 700.7,298.5 702.1,298.5 703.5,298.5 704.9,298.5 706.3,298.5 707.7,298.5 709.1,298.5 710.5,298.5 711.9,298.5 713.3,298.5 714.7,298.5 716.1,298.5 717.5,298.5 718.9,298.5 720.3,298.5 721.7,298.5 723.1,298.5 724.5,298.5 725.9,298.5 727.3,298.5 728.7,298.5 730.1,298.5 731.5,298.5 732.9,298.5 734.3,298.5 735.7,298.5 737.1,298.5 738.5,298.5 739.9,298.5 741.3,298.5 742.7,298.5 744.1,298.5 745.5,298.5 746.9,298.5 748.3,298.5 749.7,298.5 751.1,298.5 752.5,298.5 753.9,298.5 755.3,298.5 756.6,298.5 758.0,298.5 759.4,298.5 760.8,298.5 762.2,298.5 763.6,298.5 765.0,298.5 766.4,298.5 767.8,298.5 769.2,298.5 770.6,298.5 772.0,298.5 773.4,298.5 774.8,298.5 776.2,298.5 777.6,298.5 779.0,298.5 780.4,298.5 781.8,298.5 783.2,298.5 784.6,298.5 786.0,298.5 787.4,298.5 788.8,298.5 790.2,298.5 791.6,298.5 793.0,298.5 794.4,298.5 795.8,298.5 797.2,298.5 798.6,298.5" fill="none" stroke="#f39c12" stroke-width="1.3" stroke-linejoin="round" clip-path="url(#pc411)"/>
</svg>
