<svg xmlns="http://www.w3.org/2000/svg" viewBox="0 0 820 378" style="font-family:system-ui,-apple-system,sans-serif">
  <text x="800" y="11" text-anchor="end" font-size="11" font-weight="600" fill="#6b7280">SVF lowpass, fc=1kHz, Q=1</text>
  <line x1="34" y1="16" x2="34" y2="171" stroke="#d1d5db"/>
  <line x1="34" y1="47.0" x2="399" y2="47.0" stroke="#d1d5db"/>
  <text x="216.5" y="197" text-anchor="middle" font-size="9" fill="#6b7280">Hz</text>
  <text x="12" y="93.5" text-anchor="middle" font-size="9" fill="#6b7280" transform="rotate(-90 12 93.5)">dB</text>
  <line x1="67.3" y1="16" x2="67.3" y2="171" stroke="#e5e7eb" stroke-width="0.5"/>
  <line x1="86.8" y1="16" x2="86.8" y2="171" stroke="#e5e7eb" stroke-width="0.5"/>
  <line x1="100.6" y1="16" x2="100.6" y2="171" stroke="#e5e7eb" stroke-width="0.5"/>
  <line x1="111.3" y1="16" x2="111.3" y2="171" stroke="#e5e7eb" stroke-width="0.5"/>
  <line x1="120.0" y1="16" x2="120.0" y2="171" stroke="#e5e7eb" stroke-width="0.5"/>
  <line x1="127.4" y1="16" x2="127.4" y2="171" stroke="#e5e7eb" stroke-width="0.5"/>
  <line x1="133.9" y1="16" x2="133.9" y2="171" stroke="#e5e7eb" stroke-width="0.5"/>
  <line x1="139.5" y1="16" x2="139.5" y2="171" stroke="#e5e7eb" stroke-width="0.5"/>
  <line x1="177.9" y1="16" x2="177.9" y2="171" stroke="#e5e7eb" stroke-width="0.5"/>
  <line x1="197.3" y1="16" x2="197.3" y2="171" stroke="#e5e7eb" stroke-width="0.5"/>
  <line x1="211.1" y1="16" x2="211.1" y2="171" stroke="#e5e7eb" stroke-width="0.5"/>
  <line x1="221.9" y1="16" x2="221.9" y2="171" stroke="#e5e7eb" stroke-width="0.5"/>
  <line x1="230.6" y1="16" x2="230.6" y2="171" stroke="#e5e7eb" stroke-width="0.5"/>
  <line x1="238.0" y1="16" x2="238.0" y2="171" stroke="#e5e7eb" stroke-width="0.5"/>
  <line x1="244.4" y1="16" x2="244.4" y2="171" stroke="#e5e7eb" stroke-width="0.5"/>
  <line x1="250.1" y1="16" x2="250.1" y2="171" stroke="#e5e7eb" stroke-width="0.5"/>
  <line x1="288.4" y1="16" x2="288.4" y2="171" stroke="#e5e7eb" stroke-width="0.5"/>
  <line x1="307.9" y1="16" x2="307.9" y2="171" stroke="#e5e7eb" stroke-width="0.5"/>
  <line x1="321.7" y1="16" x2="321.7" y2="171" stroke="#e5e7eb" stroke-width="0.5"/>
  <line x1="332.4" y1="16" x2="332.4" y2="171" stroke="#e5e7eb" stroke-width="0.5"/>
  <line x1="341.2" y1="16" x2="341.2" y2="171" stroke="#e5e7eb" stroke-width="0.5"/>
  <line x1="348.6" y1="16" x2="348.6" y2="171" stroke="#e5e7eb" stroke-width="0.5"/>
  <line x1="355.0" y1="16" x2="355.0" y2="171" stroke="#e5e7eb" stroke-width="0.5"/>
  <line x1="360.7" y1="16" x2="360.7" y2="171" stroke="#e5e7eb" stroke-width="0.5"/>
  <line x1="399.0" y1="16" x2="399.0" y2="171" stroke="#e5e7eb" stroke-width="0.5"/>
  <line x1="144.6" y1="16" x2="144.6" y2="171" stroke="#e5e7eb" stroke-width="0.5"/>
  <text x="144.6" y="183" text-anchor="middle" font-size="8" fill="#6b7280">100</text>
  <line x1="255.1" y1="16" x2="255.1" y2="171" stroke="#e5e7eb" stroke-width="0.5"/>
  <text x="255.1" y="183" text-anchor="middle" font-size="8" fill="#6b7280">1k</text>
  <line x1="365.7" y1="16" x2="365.7" y2="171" stroke="#e5e7eb" stroke-width="0.5"/>
  <text x="365.7" y="183" text-anchor="middle" font-size="8" fill="#6b7280">10k</text>
  <line x1="34" y1="31.5" x2="399" y2="31.5" stroke="#e5e7eb" stroke-width="0.5"/>
  <line x1="34" y1="62.5" x2="399" y2="62.5" stroke="#e5e7eb" stroke-width="0.5"/>
  <line x1="34" y1="16.0" x2="399" y2="16.0" stroke="#e5e7eb" stroke-width="0.5"/>
  <text x="30" y="19.0" text-anchor="end" font-size="8" fill="#6b7280">+20</text>
  <text x="30" y="50.0" text-anchor="end" font-size="8" fill="#6b7280">0</text>
  <line x1="34" y1="78.0" x2="399" y2="78.0" stroke="#e5e7eb" stroke-width="0.5"/>
  <text x="30" y="81.0" text-anchor="end" font-size="8" fill="#6b7280">-20</text>
  <line x1="34" y1="109.0" x2="399" y2="109.0" stroke="#e5e7eb" stroke-width="0.5"/>
  <text x="30" y="112.0" text-anchor="end" font-size="8" fill="#6b7280">-40</text>
  <line x1="34" y1="140.0" x2="399" y2="140.0" stroke="#e5e7eb" stroke-width="0.5"/>
  <text x="30" y="143.0" text-anchor="end" font-size="8" fill="#6b7280">-60</text>
  <line x1="34" y1="171.0" x2="399" y2="171.0" stroke="#e5e7eb" stroke-width="0.5"/>
  <text x="30" y="174.0" text-anchor="end" font-size="8" fill="#6b7280">-80</text>
  <line x1="255.1" y1="16" x2="255.1" y2="171" stroke="#d1d5db" stroke-width="1" stroke-dasharray="4 3"/>
  <defs><linearGradient id="g401" x1="0" y1="16" x2="0" y2="171" gradientUnits="userSpaceOnUse">
    <stop offset="0%" stop-color="#4a90d9" stop-opacity="0.15"/>
    <stop offset="100%" stop-color="#4a90d9" stop-opacity="0.02"/>
  </linearGradient></defs>
  <path d="M37.5,47.0 37.5,47.0 70.8,47.0 90.3,47.0 104.1,47.0 114.8,47.0 123.6,47.0 131.0,47.0 137.4,47.0 143.1,46.9 148.1,46.9 152.7,46.9 156.9,46.9 160.7,46.9 164.3,46.8 167.6,46.8 170.7,46.8 173.6,46.8 176.3,46.8 178.9,46.7 181.4,46.7 183.7,46.7 186.0,46.6 188.1,46.6 190.2,46.6 192.1,46.5 194.0,46.5 195.8,46.5 197.6,46.4 199.2,46.4 200.9,46.3 202.4,46.3 204.0,46.3 205.5,46.2 206.9,46.2 208.3,46.1 209.6,46.1 210.9,46.0 212.2,46.0 213.5,45.9 214.7,45.9 215.9,45.9 217.0,45.8 218.2,45.8 219.3,45.7 220.3,45.7 221.4,45.6 222.4,45.6 223.4,45.5 224.4,45.5 225.4,45.5 226.4,45.4 227.3,45.4 228.2,45.3 229.1,45.3 230.0,45.3 230.8,45.2 231.7,45.2 232.5,45.2 233.4,45.1 234.2,45.1 235.7,45.1 237.3,45.1 238.7,45.1 240.2,45.1 241.6,45.1 242.9,45.2 244.2,45.2 245.5,45.3 246.8,45.4 248.0,45.6 249.2,45.7 250.3,45.9 251.4,46.1 252.6,46.3 253.6,46.6 254.7,46.9 255.7,47.2 256.7,47.5 257.7,47.8 258.7,48.1 259.6,48.5 260.6,48.9 261.5,49.2 262.4,49.6 263.3,50.0 264.1,50.4 265.0,50.8 265.8,51.2 266.6,51.7 267.4,52.1 268.6,52.7 269.8,53.3 270.9,54.0 272.0,54.6 273.1,55.2 274.2,55.8 275.2,56.4 276.2,57.0 277.2,57.6 278.2,58.2 279.1,58.7 280.0,59.3 281.0,59.9 281.9,60.4 282.7,60.9 283.6,61.5 284.5,62.0 285.3,62.5 286.1,63.0 286.9,63.5 288.0,64.1 289.0,64.8 290.0,65.4 291.0,66.0 292.0,66.6 292.9,67.2 293.9,67.7 294.8,68.3 295.7,68.8 296.6,69.4 297.4,69.9 298.3,70.4 299.1,70.9 299.9,71.4 300.7,71.9 301.7,72.5 302.7,73.1 303.6,73.7 304.6,74.3 305.5,74.8 306.4,75.4 307.3,75.9 308.1,76.4 309.0,76.9 309.8,77.4 310.6,77.9 311.4,78.4 312.4,79.0 313.3,79.6 314.2,80.1 315.1,80.7 316.0,81.2 316.9,81.7 317.7,82.2 318.6,82.7 319.4,83.2 320.2,83.7 321.1,84.3 322.0,84.8 322.9,85.4 323.8,85.9 324.7,86.4 325.5,86.9 326.3,87.5 327.1,88.0 327.9,88.4 328.8,89.0 329.7,89.5 330.6,90.1 331.4,90.6 332.3,91.1 333.1,91.6 333.9,92.1 334.8,92.7 335.7,93.3 336.5,93.8 337.4,94.3 338.2,94.9 339.0,95.4 339.8,95.9 340.7,96.5 341.6,97.0 342.4,97.6 343.3,98.1 344.1,98.6 344.9,99.2 345.8,99.7 346.6,100.3 347.5,100.8 348.3,101.4 349.1,101.9 350.0,102.5 350.8,103.1 351.7,103.7 352.5,104.3 353.3,104.8 354.1,105.4 355.0,106.0 355.8,106.6 356.6,107.2 357.5,107.8 358.3,108.4 359.1,109.0 360.0,109.6 360.8,110.2 361.6,110.9 362.5,111.5 363.3,112.2 364.1,112.8 364.9,113.5 365.8,114.1 366.6,114.8 367.4,115.5 368.2,116.2 369.1,116.9 369.9,117.6 370.7,118.3 371.6,119.1 372.4,119.8 373.2,120.6 374.0,121.4 374.8,122.2 375.6,123.0 376.5,123.8 377.3,124.7 378.1,125.5 378.9,126.4 379.7,127.3 380.5,128.3 381.4,129.2 382.2,130.2 383.0,131.3 383.8,132.3 384.6,133.4 385.5,134.6 386.3,135.8 387.1,137.0 387.9,138.3 388.7,139.7 389.5,141.2 390.3,142.7 391.2,144.4 392.0,146.1 392.8,147.9 393.6,149.9 394.4,152.0 395.2,154.4 396.0,157.0 396.8,159.9 397.6,163.1 398.5,166.9 L398.5,171.0 L37.5,171.0 Z" fill="url(#g401)"/>
  <defs><clipPath id="pc402"><rect x="34" y="16" width="365" height="155"/></clipPath></defs>
  <polyline points="37.5,47.0 70.8,47.0 90.3,47.0 104.1,47.0 114.8,47.0 123.6,47.0 131.0,47.0 137.4,47.0 143.1,46.9 148.1,46.9 152.7,46.9 156.9,46.9 160.7,46.9 164.3,46.8 167.6,46.8 170.7,46.8 173.6,46.8 176.3,46.8 178.9,46.7 181.4,46.7 183.7,46.7 186.0,46.6 188.1,46.6 190.2,46.6 192.1,46.5 194.0,46.5 195.8,46.5 197.6,46.4 199.2,46.4 200.9,46.3 202.4,46.3 204.0,46.3 205.5,46.2 206.9,46.2 208.3,46.1 209.6,46.1 210.9,46.0 212.2,46.0 213.5,45.9 214.7,45.9 215.9,45.9 217.0,45.8 218.2,45.8 219.3,45.7 220.3,45.7 221.4,45.6 222.4,45.6 223.4,45.5 224.4,45.5 225.4,45.5 226.4,45.4 227.3,45.4 228.2,45.3 229.1,45.3 230.0,45.3 230.8,45.2 231.7,45.2 232.5,45.2 233.4,45.1 234.2,45.1 235.7,45.1 237.3,45.1 238.7,45.1 240.2,45.1 241.6,45.1 242.9,45.2 244.2,45.2 245.5,45.3 246.8,45.4 248.0,45.6 249.2,45.7 250.3,45.9 251.4,46.1 252.6,46.3 253.6,46.6 254.7,46.9 255.7,47.2 256.7,47.5 257.7,47.8 258.7,48.1 259.6,48.5 260.6,48.9 261.5,49.2 262.4,49.6 263.3,50.0 264.1,50.4 265.0,50.8 265.8,51.2 266.6,51.7 267.4,52.1 268.6,52.7 269.8,53.3 270.9,54.0 272.0,54.6 273.1,55.2 274.2,55.8 275.2,56.4 276.2,57.0 277.2,57.6 278.2,58.2 279.1,58.7 280.0,59.3 281.0,59.9 281.9,60.4 282.7,60.9 283.6,61.5 284.5,62.0 285.3,62.5 286.1,63.0 286.9,63.5 288.0,64.1 289.0,64.8 290.0,65.4 291.0,66.0 292.0,66.6 292.9,67.2 293.9,67.7 294.8,68.3 295.7,68.8 296.6,69.4 297.4,69.9 298.3,70.4 299.1,70.9 299.9,71.4 300.7,71.9 301.7,72.5 302.7,73.1 303.6,73.7 304.6,74.3 305.5,74.8 306.4,75.4 307.3,75.9 308.1,76.4 309.0,76.9 309.8,77.4 310.6,77.9 311.4,78.4 312.4,79.0 313.3,79.6 314.2,80.1 315.1,80.7 316.0,81.2 316.9,81.7 317.7,82.2 318.6,82.7 319.4,83.2 320.2,83.7 321.1,84.3 322.0,84.8 322.9,85.4 323.8,85.9 324.7,86.4 325.5,86.9 326.3,87.5 327.1,88.0 327.9,88.4 328.8,89.0 329.7,89.5 330.6,90.1 331.4,90.6 332.3,91.1 333.1,91.6 333.9,92.1 334.8,92.7 335.7,93.3 336.5,93.8 337.4,94.3 338.2,94.9 339.0,95.4 339.8,95.9 340.7,96.5 341.6,97.0 342.4,97.6 343.3,98.1 344.1,98.6 344.9,99.2 345.8,99.7 346.6,100.3 347.5,100.8 348.3,101.4 349.1,101.9 350.0,102.5 350.8,103.1 351.7,103.7 352.5,104.3 353.3,104.8 354.1,105.4 355.0,106.0 355.8,106.6 356.6,107.2 357.5,107.8 358.3,108.4 359.1,109.0 360.0,109.6 360.8,110.2 361.6,110.9 362.5,111.5 363.3,112.2 364.1,112.8 364.9,113.5 365.8,114.1 366.6,114.8 367.4,115.5 368.2,116.2 369.1,116.9 369.9,117.6 370.7,118.3 371.6,119.1 372.4,119.8 373.2,120.6 374.0,121.4 374.8,122.2 375.6,123.0 376.5,123.8 377.3,124.7 378.1,125.5 378.9,126.4 379.7,127.3 380.5,128.3 381.4,129.2 382.2,130.2 383.0,131.3 383.8,132.3 384.6,133.4 385.5,134.6 386.3,135.8 387.1,137.0 387.9,138.3 388.7,139.7 389.5,141.2 390.3,142.7 391.2,144.4 392.0,146.1 392.8,147.9 393.6,149.9 394.4,152.0 395.2,154.4 396.0,157.0 396.8,159.9 397.6,163.1 398.5,166.9" fill="none" stroke="#4a90d9" stroke-width="1.5" stroke-linejoin="round" clip-path="url(#pc402)"/>
  <line x1="435" y1="16" x2="435" y2="171" stroke="#d1d5db"/>
  <line x1="435" y1="93.5" x2="800" y2="93.5" stroke="#d1d5db"/>
  <text x="617.5" y="197" text-anchor="middle" font-size="9" fill="#6b7280">Hz</text>
  <text x="413" y="93.5" text-anchor="middle" font-size="9" fill="#6b7280" transform="rotate(-90 413 93.5)">Phase (deg)</text>
  <line x1="468.3" y1="16" x2="468.3" y2="171" stroke="#e5e7eb" stroke-width="0.5"/>
  <line x1="487.8" y1="16" x2="487.8" y2="171" stroke="#e5e7eb" stroke-width="0.5"/>
  <line x1="501.6" y1="16" x2="501.6" y2="171" stroke="#e5e7eb" stroke-width="0.5"/>
  <line x1="512.3" y1="16" x2="512.3" y2="171" stroke="#e5e7eb" stroke-width="0.5"/>
  <line x1="521.0" y1="16" x2="521.0" y2="171" stroke="#e5e7eb" stroke-width="0.5"/>
  <line x1="528.4" y1="16" x2="528.4" y2="171" stroke="#e5e7eb" stroke-width="0.5"/>
  <line x1="534.9" y1="16" x2="534.9" y2="171" stroke="#e5e7eb" stroke-width="0.5"/>
  <line x1="540.5" y1="16" x2="540.5" y2="171" stroke="#e5e7eb" stroke-width="0.5"/>
  <line x1="578.9" y1="16" x2="578.9" y2="171" stroke="#e5e7eb" stroke-width="0.5"/>
  <line x1="598.3" y1="16" x2="598.3" y2="171" stroke="#e5e7eb" stroke-width="0.5"/>
  <line x1="612.1" y1="16" x2="612.1" y2="171" stroke="#e5e7eb" stroke-width="0.5"/>
  <line x1="622.9" y1="16" x2="622.9" y2="171" stroke="#e5e7eb" stroke-width="0.5"/>
  <line x1="631.6" y1="16" x2="631.6" y2="171" stroke="#e5e7eb" stroke-width="0.5"/>
  <line x1="639.0" y1="16" x2="639.0" y2="171" stroke="#e5e7eb" stroke-width="0.5"/>
  <line x1="645.4" y1="16" x2="645.4" y2="171" stroke="#e5e7eb" stroke-width="0.5"/>
  <line x1="651.1" y1="16" x2="651.1" y2="171" stroke="#e5e7eb" stroke-width="0.5"/>
  <line x1="689.4" y1="16" x2="689.4" y2="171" stroke="#e5e7eb" stroke-width="0.5"/>
  <line x1="708.9" y1="16" x2="708.9" y2="171" stroke="#e5e7eb" stroke-width="0.5"/>
  <line x1="722.7" y1="16" x2="722.7" y2="171" stroke="#e5e7eb" stroke-width="0.5"/>
  <line x1="733.4" y1="16" x2="733.4" y2="171" stroke="#e5e7eb" stroke-width="0.5"/>
  <line x1="742.2" y1="16" x2="742.2" y2="171" stroke="#e5e7eb" stroke-width="0.5"/>
  <line x1="749.6" y1="16" x2="749.6" y2="171" stroke="#e5e7eb" stroke-width="0.5"/>
  <line x1="756.0" y1="16" x2="756.0" y2="171" stroke="#e5e7eb" stroke-width="0.5"/>
  <line x1="761.7" y1="16" x2="761.7" y2="171" stroke="#e5e7eb" stroke-width="0.5"/>
  <line x1="800.0" y1="16" x2="800.0" y2="171" stroke="#e5e7eb" stroke-width="0.5"/>
  <line x1="545.6" y1="16" x2="545.6" y2="171" stroke="#e5e7eb" stroke-width="0.5"/>
  <text x="545.6" y="183" text-anchor="middle" font-size="8" fill="#6b7280">100</text>
  <line x1="656.1" y1="16" x2="656.1" y2="171" stroke="#e5e7eb" stroke-width="0.5"/>
  <text x="656.1" y="183" text-anchor="middle" font-size="8" fill="#6b7280">1k</text>
  <line x1="766.7" y1="16" x2="766.7" y2="171" stroke="#e5e7eb" stroke-width="0.5"/>
  <text x="766.7" y="183" text-anchor="middle" font-size="8" fill="#6b7280">10k</text>
  <line x1="435" y1="54.8" x2="800" y2="54.8" stroke="#e5e7eb" stroke-width="0.5"/>
  <line x1="435" y1="132.3" x2="800" y2="132.3" stroke="#e5e7eb" stroke-width="0.5"/>
  <line x1="435" y1="16.0" x2="800" y2="16.0" stroke="#e5e7eb" stroke-width="0.5"/>
  <text x="431" y="19.0" text-anchor="end" font-size="8" fill="#6b7280">180</text>
  <text x="431" y="96.5" text-anchor="end" font-size="8" fill="#6b7280">0</text>
  <line x1="435" y1="171.0" x2="800" y2="171.0" stroke="#e5e7eb" stroke-width="0.5"/>
  <text x="431" y="174.0" text-anchor="end" font-size="8" fill="#6b7280">-180</text>
  <line x1="656.1" y1="16" x2="656.1" y2="171" stroke="#d1d5db" stroke-width="1" stroke-dasharray="4 3"/>
  <defs><linearGradient id="g403" x1="0" y1="171" x2="0" y2="93.5" gradientUnits="userSpaceOnUse">
    <stop offset="0%" stop-color="#e74c3c" stop-opacity="0.15"/>
    <stop offset="100%" stop-color="#e74c3c" stop-opacity="0.02"/>
  </linearGradient></defs>
  <path d="M438.5,93.8 438.5,93.8 471.8,94.0 491.3,94.3 505.1,94.6 515.8,94.8 524.6,95.1 532.0,95.4 538.4,95.6 544.1,95.9 549.1,96.2 553.7,96.4 557.9,96.7 561.7,97.0 565.3,97.3 568.6,97.5 571.7,97.8 574.6,98.1 577.3,98.4 579.9,98.7 582.4,99.0 584.7,99.3 587.0,99.6 589.1,99.9 591.2,100.2 593.1,100.5 595.0,100.8 596.8,101.1 598.6,101.4 600.2,101.7 601.9,102.0 603.4,102.3 605.0,102.7 606.5,103.0 607.9,103.3 609.3,103.7 610.6,104.0 611.9,104.4 613.2,104.7 614.5,105.1 615.7,105.5 616.9,105.9 618.0,106.2 619.2,106.6 620.3,107.0 621.3,107.4 622.4,107.8 623.4,108.2 624.4,108.6 625.4,109.0 626.4,109.5 627.4,109.9 628.3,110.3 629.2,110.8 630.1,111.3 631.0,111.7 631.8,112.2 632.7,112.7 633.5,113.1 634.4,113.6 635.2,114.1 636.7,115.1 638.3,116.2 639.7,117.2 641.2,118.3 642.6,119.4 643.9,120.5 645.2,121.6 646.5,122.8 647.8,123.9 649.0,125.0 650.2,126.2 651.3,127.3 652.4,128.5 653.6,129.6 654.6,130.7 655.7,131.8 656.7,132.8 657.7,133.9 658.7,134.9 659.7,135.9 660.6,136.8 661.6,137.8 662.5,138.7 663.4,139.5 664.3,140.4 665.1,141.2 666.0,141.9 666.8,142.7 667.6,143.4 668.4,144.1 669.6,145.1 670.8,146.0 671.9,146.9 673.0,147.7 674.1,148.4 675.2,149.2 676.2,149.8 677.2,150.5 678.2,151.1 679.2,151.6 680.1,152.2 681.0,152.7 682.0,153.2 682.9,153.6 683.7,154.1 684.6,154.5 685.5,154.9 686.3,155.3 687.1,155.6 687.9,156.0 689.0,156.4 690.0,156.8 691.0,157.2 692.0,157.6 693.0,157.9 693.9,158.2 694.9,158.6 695.8,158.9 696.7,159.1 697.6,159.4 698.4,159.7 699.3,159.9 700.1,160.1 700.9,160.4 701.7,160.6 702.7,160.8 703.7,161.1 704.6,161.3 705.6,161.5 706.5,161.8 707.4,162.0 708.3,162.2 709.1,162.3 710.0,162.5 710.8,162.7 711.6,162.9 712.4,163.0 713.4,163.2 714.3,163.4 715.2,163.5 716.1,163.7 717.0,163.8 717.9,164.0 718.7,164.1 719.6,164.3 720.4,164.4 721.2,164.5 722.1,164.7 723.0,164.8 723.9,164.9 724.8,165.0 725.7,165.2 726.5,165.3 727.3,165.4 728.1,165.5 728.9,165.6 729.8,165.7 730.7,165.8 731.6,165.9 732.4,166.0 733.3,166.1 734.1,166.2 734.9,166.3 735.8,166.4 736.7,166.5 737.5,166.6 738.4,166.7 739.2,166.8 740.0,166.9 740.8,166.9 741.7,167.0 742.6,167.1 743.4,167.2 744.3,167.3 745.1,167.3 745.9,167.4 746.8,167.5 747.6,167.6 748.5,167.6 749.3,167.7 750.1,167.8 751.0,167.8 751.8,167.9 752.7,168.0 753.5,168.0 754.3,168.1 755.1,168.2 756.0,168.2 756.8,168.3 757.6,168.3 758.5,168.4 759.3,168.5 760.1,168.5 761.0,168.6 761.8,168.6 762.6,168.7 763.5,168.7 764.3,168.8 765.1,168.9 765.9,168.9 766.8,169.0 767.6,169.0 768.4,169.1 769.2,169.1 770.1,169.2 770.9,169.2 771.7,169.3 772.6,169.3 773.4,169.3 774.2,169.4 775.0,169.4 775.8,169.5 776.6,169.5 777.5,169.6 778.3,169.6 779.1,169.7 779.9,169.7 780.7,169.7 781.5,169.8 782.4,169.8 783.2,169.9 784.0,169.9 784.8,170.0 785.6,170.0 786.5,170.0 787.3,170.1 788.1,170.1 788.9,170.2 789.7,170.2 790.5,170.3 791.3,170.3 792.2,170.3 793.0,170.4 793.8,170.4 794.6,170.5 795.4,170.5 796.2,170.5 797.0,170.6 797.8,170.6 798.6,170.7 799.5,170.7 L799.5,93.5 L438.5,93.5 Z" fill="url(#g403)"/>
  <defs><clipPath id="pc404"><rect x="435" y="16" width="365" height="155"/></clipPath></defs>
  <polyline points="438.5,93.8 471.8,94.0 491.3,94.3 505.1,94.6 515.8,94.8 524.6,95.1 532.0,95.4 538.4,95.6 544.1,95.9 549.1,96.2 553.7,96.4 557.9,96.7 561.7,97.0 565.3,97.3 568.6,97.5 571.7,97.8 574.6,98.1 577.3,98.4 579.9,98.7 582.4,99.0 584.7,99.3 587.0,99.6 589.1,99.9 591.2,100.2 593.1,100.5 595.0,100.8 596.8,101.1 598.6,101.4 600.2,101.7 601.9,102.0 603.4,102.3 605.0,102.7 606.5,103.0 607.9,103.3 609.3,103.7 610.6,104.0 611.9,104.4 613.2,104.7 614.5,105.1 615.7,105.5 616.9,105.9 618.0,106.2 619.2,106.6 620.3,107.0 621.3,107.4 622.4,107.8 623.4,108.2 624.4,108.6 625.4,109.0 626.4,109.5 627.4,109.9 628.3,110.3 629.2,110.8 630.1,111.3 631.0,111.7 631.8,112.2 632.7,112.7 633.5,113.1 634.4,113.6 635.2,114.1 636.7,115.1 638.3,116.2 639.7,117.2 641.2,118.3 642.6,119.4 643.9,120.5 645.2,121.6 646.5,122.8 647.8,123.9 649.0,125.0 650.2,126.2 651.3,127.3 652.4,128.5 653.6,129.6 654.6,130.7 655.7,131.8 656.7,132.8 657.7,133.9 658.7,134.9 659.7,135.9 660.6,136.8 661.6,137.8 662.5,138.7 663.4,139.5 664.3,140.4 665.1,141.2 666.0,141.9 666.8,142.7 667.6,143.4 668.4,144.1 669.6,145.1 670.8,146.0 671.9,146.9 673.0,147.7 674.1,148.4 675.2,149.2 676.2,149.8 677.2,150.5 678.2,151.1 679.2,151.6 680.1,152.2 681.0,152.7 682.0,153.2 682.9,153.6 683.7,154.1 684.6,154.5 685.5,154.9 686.3,155.3 687.1,155.6 687.9,156.0 689.0,156.4 690.0,156.8 691.0,157.2 692.0,157.6 693.0,157.9 693.9,158.2 694.9,158.6 695.8,158.9 696.7,159.1 697.6,159.4 698.4,159.7 699.3,159.9 700.1,160.1 700.9,160.4 701.7,160.6 702.7,160.8 703.7,161.1 704.6,161.3 705.6,161.5 706.5,161.8 707.4,162.0 708.3,162.2 709.1,162.3 710.0,162.5 710.8,162.7 711.6,162.9 712.4,163.0 713.4,163.2 714.3,163.4 715.2,163.5 716.1,163.7 717.0,163.8 717.9,164.0 718.7,164.1 719.6,164.3 720.4,164.4 721.2,164.5 722.1,164.7 723.0,164.8 723.9,164.9 724.8,165.0 725.7,165.2 726.5,165.3 727.3,165.4 728.1,165.5 728.9,165.6 729.8,165.7 730.7,165.8 731.6,165.9 732.4,166.0 733.3,166.1 734.1,166.2 734.9,166.3 735.8,166.4 736.7,166.5 737.5,166.6 738.4,166.7 739.2,166.8 740.0,166.9 740.8,166.9 741.7,167.0 742.6,167.1 743.4,167.2 744.3,167.3 745.1,167.3 745.9,167.4 746.8,167.5 747.6,167.6 748.5,167.6 749.3,167.7 750.1,167.8 751.0,167.8 751.8,167.9 752.7,168.0 753.5,168.0 754.3,168.1 755.1,168.2 756.0,168.2 756.8,168.3 757.6,168.3 758.5,168.4 759.3,168.5 760.1,168.5 761.0,168.6 761.8,168.6 762.6,168.7 763.5,168.7 764.3,168.8 765.1,168.9 765.9,168.9 766.8,169.0 767.6,169.0 768.4,169.1 769.2,169.1 770.1,169.2 770.9,169.2 771.7,169.3 772.6,169.3 773.4,169.3 774.2,169.4 775.0,169.4 775.8,169.5 776.6,169.5 777.5,169.6 778.3,169.6 779.1,169.7 779.9,169.7 780.7,169.7 781.5,169.8 782.4,169.8 783.2,169.9 784.0,169.9 784.8,170.0 785.6,170.0 786.5,170.0 787.3,170.1 788.1,170.1 788.9,170.2 789.7,170.2 790.5,170.3 791.3,170.3 792.2,170.3 793.0,170.4 793.8,170.4 794.6,170.5 795.4,170.5 796.2,170.5 797.0,170.6 797.8,170.6 798.6,170.7 799.5,170.7" fill="none" stroke="#e74c3c" stroke-width="1.5" stroke-linejoin="round" clip-path="url(#pc404)"/>
  <line x1="34" y1="207" x2="34" y2="362" stroke="#d1d5db"/>
  <line x1="34" y1="284.5" x2="399" y2="284.5" stroke="#d1d5db"/>
  <text x="216.5" y="388" text-anchor="middle" font-size="9" fill="#6b7280">Hz</text>
  <text x="12" y="284.5" text-anchor="middle" font-size="9" fill="#6b7280" transform="rotate(-90 12 284.5)">Group delay</text>
  <line x1="67.3" y1="207" x2="67.3" y2="362" stroke="#e5e7eb" stroke-width="0.5"/>
  <line x1="86.8" y1="207" x2="86.8" y2="362" stroke="#e5e7eb" stroke-width="0.5"/>
  <line x1="100.6" y1="207" x2="100.6" y2="362" stroke="#e5e7eb" stroke-width="0.5"/>
  <line x1="111.3" y1="207" x2="111.3" y2="362" stroke="#e5e7eb" stroke-width="0.5"/>
  <line x1="120.0" y1="207" x2="120.0" y2="362" stroke="#e5e7eb" stroke-width="0.5"/>
  <line x1="127.4" y1="207" x2="127.4" y2="362" stroke="#e5e7eb" stroke-width="0.5"/>
  <line x1="133.9" y1="207" x2="133.9" y2="362" stroke="#e5e7eb" stroke-width="0.5"/>
  <line x1="139.5" y1="207" x2="139.5" y2="362" stroke="#e5e7eb" stroke-width="0.5"/>
  <line x1="177.9" y1="207" x2="177.9" y2="362" stroke="#e5e7eb" stroke-width="0.5"/>
  <line x1="197.3" y1="207" x2="197.3" y2="362" stroke="#e5e7eb" stroke-width="0.5"/>
  <line x1="211.1" y1="207" x2="211.1" y2="362" stroke="#e5e7eb" stroke-width="0.5"/>
  <line x1="221.9" y1="207" x2="221.9" y2="362" stroke="#e5e7eb" stroke-width="0.5"/>
  <line x1="230.6" y1="207" x2="230.6" y2="362" stroke="#e5e7eb" stroke-width="0.5"/>
  <line x1="238.0" y1="207" x2="238.0" y2="362" stroke="#e5e7eb" stroke-width="0.5"/>
  <line x1="244.4" y1="207" x2="244.4" y2="362" stroke="#e5e7eb" stroke-width="0.5"/>
  <line x1="250.1" y1="207" x2="250.1" y2="362" stroke="#e5e7eb" stroke-width="0.5"/>
  <line x1="288.4" y1="207" x2="288.4" y2="362" stroke="#e5e7eb" stroke-width="0.5"/>
  <line x1="307.9" y1="207" x2="307.9" y2="362" stroke="#e5e7eb" stroke-width="0.5"/>
  <line x1="321.7" y1="207" x2="321.7" y2="362" stroke="#e5e7eb" stroke-width="0.5"/>
  <line x1="332.4" y1="207" x2="332.4" y2="362" stroke="#e5e7eb" stroke-width="0.5"/>
  <line x1="341.2" y1="207" x2="341.2" y2="362" stroke="#e5e7eb" stroke-width="0.5"/>
  <line x1="348.6" y1="207" x2="348.6" y2="362" stroke="#e5e7eb" stroke-width="0.5"/>
  <line x1="355.0" y1="207" x2="355.0" y2="362" stroke="#e5e7eb" stroke-width="0.5"/>
  <line x1="360.7" y1="207" x2="360.7" y2="362" stroke="#e5e7eb" stroke-width="0.5"/>
  <line x1="399.0" y1="207" x2="399.0" y2="362" stroke="#e5e7eb" stroke-width="0.5"/>
  <line x1="144.6" y1="207" x2="144.6" y2="362" stroke="#e5e7eb" stroke-width="0.5"/>
  <text x="144.6" y="374" text-anchor="middle" font-size="8" fill="#6b7280">100</text>
  <line x1="255.1" y1="207" x2="255.1" y2="362" stroke="#e5e7eb" stroke-width="0.5"/>
  <text x="255.1" y="374" text-anchor="middle" font-size="8" fill="#6b7280">1k</text>
  <line x1="365.7" y1="207" x2="365.7" y2="362" stroke="#e5e7eb" stroke-width="0.5"/>
  <text x="365.7" y="374" text-anchor="middle" font-size="8" fill="#6b7280">10k</text>
  <line x1="34" y1="323.8" x2="399" y2="323.8" stroke="#e5e7eb" stroke-width="0.5"/>
  <text x="30" y="326.8" text-anchor="end" font-size="8" fill="#6b7280">-10</text>
  <text x="30" y="287.5" text-anchor="end" font-size="8" fill="#6b7280">0</text>
  <line x1="34" y1="245.2" x2="399" y2="245.2" stroke="#e5e7eb" stroke-width="0.5"/>
  <text x="30" y="248.2" text-anchor="end" font-size="8" fill="#6b7280">10</text>
  <line x1="255.1" y1="207" x2="255.1" y2="362" stroke="#d1d5db" stroke-width="1" stroke-dasharray="4 3"/>
  <defs><linearGradient id="g405" x1="0" y1="207" x2="0" y2="284.5" gradientUnits="userSpaceOnUse">
    <stop offset="0%" stop-color="#2ecc71" stop-opacity="0.15"/>
    <stop offset="100%" stop-color="#2ecc71" stop-opacity="0.02"/>
  </linearGradient></defs>
  <path d="M37.5,256.9 37.5,256.9 70.8,256.9 90.3,256.9 104.1,256.8 114.8,256.8 123.6,256.7 131.0,256.6 137.4,256.5 143.1,256.4 148.1,256.3 152.7,256.1 156.9,256.0 160.7,255.8 164.3,255.7 167.6,255.5 170.7,255.3 173.6,255.1 176.3,254.8 178.9,254.6 181.4,254.3 183.7,254.0 186.0,253.8 188.1,253.5 190.2,253.1 192.1,252.8 194.0,252.5 195.8,252.1 197.6,251.7 199.2,251.3 200.9,250.9 202.4,250.5 204.0,250.1 205.5,249.6 206.9,249.1 208.3,248.6 209.6,248.1 210.9,247.6 212.2,247.1 213.5,246.6 214.7,246.0 215.9,245.4 217.0,244.8 218.2,244.2 219.3,243.6 220.3,243.0 221.4,242.4 222.4,241.7 223.4,241.0 224.4,240.4 225.4,239.7 226.4,239.0 227.3,238.3 228.2,237.6 229.1,236.9 230.0,236.2 230.8,235.5 231.7,234.8 232.5,234.2 233.4,233.5 234.2,232.8 235.7,231.5 237.3,230.2 238.7,229.1 240.2,228.0 241.6,227.1 242.9,226.3 244.2,225.7 245.5,225.2 246.8,224.9 248.0,224.9 249.2,225.0 250.3,225.4 251.4,225.9 252.6,226.6 253.6,227.5 254.7,228.6 255.7,229.8 256.7,231.1 257.7,232.5 258.7,234.0 259.6,235.5 260.6,237.1 261.5,238.7 262.4,240.3 263.3,241.9 264.1,243.5 265.0,245.1 265.8,246.6 266.6,248.1 267.4,249.5 268.6,251.6 269.8,253.6 270.9,255.4 272.0,257.1 273.1,258.7 274.2,260.2 275.2,261.6 276.2,262.9 277.2,264.1 278.2,265.2 279.1,266.3 280.0,267.2 281.0,268.1 281.9,269.0 282.7,269.7 283.6,270.4 284.5,271.1 285.3,271.7 286.1,272.3 286.9,272.9 288.0,273.5 289.0,274.2 290.0,274.7 291.0,275.3 292.0,275.7 292.9,276.2 293.9,276.6 294.8,277.0 295.7,277.3 296.6,277.7 297.4,278.0 298.3,278.3 299.1,278.5 299.9,278.8 300.7,279.0 301.7,279.3 302.7,279.5 303.6,279.8 304.6,280.0 305.5,280.2 306.4,280.4 307.3,280.6 308.1,280.7 309.0,280.9 309.8,281.0 310.6,281.2 311.4,281.3 312.4,281.4 313.3,281.6 314.2,281.7 315.1,281.8 316.0,281.9 316.9,282.0 317.7,282.1 318.6,282.2 319.4,282.3 320.2,282.4 321.1,282.5 322.0,282.5 322.9,282.6 323.8,282.7 324.7,282.8 325.5,282.8 326.3,282.9 327.1,282.9 327.9,283.0 328.8,283.0 329.7,283.1 330.6,283.2 331.4,283.2 332.3,283.3 333.1,283.3 333.9,283.3 334.8,283.4 335.7,283.4 336.5,283.5 337.4,283.5 338.2,283.5 339.0,283.6 339.8,283.6 340.7,283.6 341.6,283.7 342.4,283.7 343.3,283.7 344.1,283.7 344.9,283.8 345.8,283.8 346.6,283.8 347.5,283.8 348.3,283.9 349.1,283.9 350.0,283.9 350.8,283.9 351.7,283.9 352.5,284.0 353.3,284.0 354.1,284.0 355.0,284.0 355.8,284.0 356.6,284.0 357.5,284.0 358.3,284.1 359.1,284.1 360.0,284.1 360.8,284.1 361.6,284.1 362.5,284.1 363.3,284.1 364.1,284.1 364.9,284.2 365.8,284.2 366.6,284.2 367.4,284.2 368.2,284.2 369.1,284.2 369.9,284.2 370.7,284.2 371.6,284.2 372.4,284.2 373.2,284.2 374.0,284.2 374.8,284.3 375.6,284.3 376.5,284.3 377.3,284.3 378.1,284.3 378.9,284.3 379.7,284.3 380.5,284.3 381.4,284.3 382.2,284.3 383.0,284.3 383.8,284.3 384.6,284.3 385.5,284.3 386.3,284.3 387.1,284.3 387.9,284.3 388.7,284.3 389.5,284.3 390.3,284.3 391.2,284.3 392.0,284.3 392.8,284.3 393.6,284.3 394.4,284.3 395.2,284.4 396.0,284.4 396.8,284.4 397.6,284.4 398.5,284.4 L398.5,284.5 L37.5,284.5 Z" fill="url(#g405)"/>
  <defs><clipPath id="pc406"><rect x="34" y="207" width="365" height="155"/></clipPath></defs>
  <polyline points="37.5,256.9 70.8,256.9 90.3,256.9 104.1,256.8 114.8,256.8 123.6,256.7 131.0,256.6 137.4,256.5 143.1,256.4 148.1,256.3 152.7,256.1 156.9,256.0 160.7,255.8 164.3,255.7 167.6,255.5 170.7,255.3 173.6,255.1 176.3,254.8 178.9,254.6 181.4,254.3 183.7,254.0 186.0,253.8 188.1,253.5 190.2,253.1 192.1,252.8 194.0,252.5 195.8,252.1 197.6,251.7 199.2,251.3 200.9,250.9 202.4,250.5 204.0,250.1 205.5,249.6 206.9,249.1 208.3,248.6 209.6,248.1 210.9,247.6 212.2,247.1 213.5,246.6 214.7,246.0 215.9,245.4 217.0,244.8 218.2,244.2 219.3,243.6 220.3,243.0 221.4,242.4 222.4,241.7 223.4,241.0 224.4,240.4 225.4,239.7 226.4,239.0 227.3,238.3 228.2,237.6 229.1,236.9 230.0,236.2 230.8,235.5 231.7,234.8 232.5,234.2 233.4,233.5 234.2,232.8 235.7,231.5 237.3,230.2 238.7,229.1 240.2,228.0 241.6,227.1 242.9,226.3 244.2,225.7 245.5,225.2 246.8,224.9 248.0,224.9 249.2,225.0 250.3,225.4 251.4,225.9 252.6,226.6 253.6,227.5 254.7,228.6 255.7,229.8 256.7,231.1 257.7,232.5 258.7,234.0 259.6,235.5 260.6,237.1 261.5,238.7 262.4,240.3 263.3,241.9 264.1,243.5 265.0,245.1 265.8,246.6 266.6,248.1 267.4,249.5 268.6,251.6 269.8,253.6 270.9,255.4 272.0,257.1 273.1,258.7 274.2,260.2 275.2,261.6 276.2,262.9 277.2,264.1 278.2,265.2 279.1,266.3 280.0,267.2 281.0,268.1 281.9,269.0 282.7,269.7 283.6,270.4 284.5,271.1 285.3,271.7 286.1,272.3 286.9,272.9 288.0,273.5 289.0,274.2 290.0,274.7 291.0,275.3 292.0,275.7 292.9,276.2 293.9,276.6 294.8,277.0 295.7,277.3 296.6,277.7 297.4,278.0 298.3,278.3 299.1,278.5 299.9,278.8 300.7,279.0 301.7,279.3 302.7,279.5 303.6,279.8 304.6,280.0 305.5,280.2 306.4,280.4 307.3,280.6 308.1,280.7 309.0,280.9 309.8,281.0 310.6,281.2 311.4,281.3 312.4,281.4 313.3,281.6 314.2,281.7 315.1,281.8 316.0,281.9 316.9,282.0 317.7,282.1 318.6,282.2 319.4,282.3 320.2,282.4 321.1,282.5 322.0,282.5 322.9,282.6 323.8,282.7 324.7,282.8 325.5,282.8 326.3,282.9 327.1,282.9 327.9,283.0 328.8,283.0 329.7,283.1 330.6,283.2 331.4,283.2 332.3,283.3 333.1,283.3 333.9,283.3 334.8,283.4 335.7,283.4 336.5,283.5 337.4,283.5 338.2,283.5 339.0,283.6 339.8,283.6 340.7,283.6 341.6,283.7 342.4,283.7 343.3,283.7 344.1,283.7 344.9,283.8 345.8,283.8 346.6,283.8 347.5,283.8 348.3,283.9 349.1,283.9 350.0,283.9 350.8,283.9 351.7,283.9 352.5,284.0 353.3,284.0 354.1,284.0 355.0,284.0 355.8,284.0 356.6,284.0 357.5,284.0 358.3,284.1 359.1,284.1 360.0,284.1 360.8,284.1 361.6,284.1 362.5,284.1 363.3,284.1 364.1,284.1 364.9,284.2 365.8,284.2 366.6,284.2 367.4,284.2 368.2,284.2 369.1,284.2 369.9,284.2 370.7,284.2 371.6,284.2 372.4,284.2 373.2,284.2 374.0,284.2 374.8,284.3 375.6,284.3 376.5,284.3 377.3,284.3 378.1,284.3 378.9,284.3 379.7,284.3 380.5,284.3 381.4,284.3 382.2,284.3 383.0,284.3 383.8,284.3 384.6,284.3 385.5,284.3 386.3,284.3 387.1,284.3 387.9,284.3 388.7,284.3 389.5,284.3 390.3,284.3 391.2,284.3 392.0,284.3 392.8,284.3 393.6,284.3 394.4,284.3 395.2,284.4 396.0,284.4 396.8,284.4 397.6,284.4 398.5,284.4" fill="none" stroke="#2ecc71" stroke-width="1.5" stroke-linejoin="round" clip-path="url(#pc406)"/>
  <line x1="435" y1="207" x2="435" y2="362" stroke="#d1d5db"/>
  <line x1="435" y1="284.5" x2="800" y2="284.5" stroke="#d1d5db"/>
  <text x="617.5" y="388" text-anchor="middle" font-size="9" fill="#6b7280">Samples</text>
  <text x="413" y="284.5" text-anchor="middle" font-size="9" fill="#6b7280" transform="rotate(-90 413 284.5)">Impulse response</text>
  <line x1="435.0" y1="207" x2="435.0" y2="362" stroke="#e5e7eb" stroke-width="0.5"/>
  <text x="435.0" y="374" text-anchor="middle" font-size="8" fill="#6b7280">0</text>
  <line x1="563.3" y1="207" x2="563.3" y2="362" stroke="#e5e7eb" stroke-width="0.5"/>
  <text x="563.3" y="374" text-anchor="middle" font-size="8" fill="#6b7280">90</text>
  <line x1="691.6" y1="207" x2="691.6" y2="362" stroke="#e5e7eb" stroke-width="0.5"/>
  <text x="691.6" y="374" text-anchor="middle" font-size="8" fill="#6b7280">180</text>
  <line x1="435" y1="344.5" x2="800" y2="344.5" stroke="#e5e7eb" stroke-width="0.5"/>
  <text x="431" y="347.5" text-anchor="end" font-size="8" fill="#6b7280">-0.06</text>
  <text x="431" y="287.5" text-anchor="end" font-size="8" fill="#6b7280">0</text>
  <line x1="435" y1="224.5" x2="800" y2="224.5" stroke="#e5e7eb" stroke-width="0.5"/>
  <text x="431" y="227.5" text-anchor="end" font-size="8" fill="#6b7280">0.06</text>
  <defs><linearGradient id="g407" x1="0" y1="207" x2="0" y2="284.5" gradientUnits="userSpaceOnUse">
    <stop offset="0%" stop-color="#f39c12" stop-opacity="0.15"/>
    <stop offset="100%" stop-color="#f39c12" stop-opacity="0.02"/>
  </linearGradient></defs>
  <defs><linearGradient id="g408" x1="0" y1="362" x2="0" y2="284.5" gradientUnits="userSpaceOnUse">
    <stop offset="0%" stop-color="#f39c12" stop-opacity="0.15"/>
    <stop offset="100%" stop-color="#f39c12" stop-opacity="0.02"/>
  </linearGradient></defs>
  <defs><clipPath id="c409"><rect x="435" y="207" width="365" height="77.5"/></clipPath></defs>
  <defs><clipPath id="c410"><rect x="435" y="284.5" width="365" height="77.5"/></clipPath></defs>
  <path d="M435.0,279.8 435.0,279.8 436.4,266.3 437.9,250.2 439.3,237.0 440.7,226.3 442.1,218.2 443.6,212.4 445.0,208.8 446.4,207.0 447.8,207.0 449.3,208.4 450.7,211.1 452.1,214.8 453.5,219.4 455.0,224.5 456.4,230.2 457.8,236.1 459.2,242.1 460.7,248.1 462.1,254.1 463.5,259.8 464.9,265.2 466.4,270.3 467.8,274.9 469.2,279.2 470.6,282.9 472.1,286.2 473.5,289.1 474.9,291.4 476.3,293.4 477.8,294.9 479.2,296.0 480.6,296.7 482.1,297.1 483.5,297.2 484.9,297.1 486.3,296.7 487.8,296.2 489.2,295.5 490.6,294.7 492.0,293.8 493.5,292.9 494.9,291.9 496.3,290.9 497.7,289.9 499.2,288.9 500.6,288.0 502.0,287.2 503.4,286.4 504.9,285.7 506.3,285.0 507.7,284.4 509.1,283.9 510.6,283.5 512.0,283.2 513.4,282.9 514.8,282.7 516.3,282.5 517.7,282.5 519.1,282.4 520.5,282.4 522.0,282.5 523.4,282.5 524.8,282.6 526.3,282.8 527.7,282.9 529.1,283.1 530.5,283.2 532.0,283.4 533.4,283.5 534.8,283.7 536.2,283.9 537.7,284.0 539.1,284.1 540.5,284.3 541.9,284.4 543.4,284.5 544.8,284.6 546.2,284.6 547.6,284.7 549.1,284.7 550.5,284.8 551.9,284.8 553.3,284.8 554.8,284.8 556.2,284.8 557.6,284.8 559.0,284.8 560.5,284.8 561.9,284.8 563.3,284.8 564.7,284.7 566.2,284.7 567.6,284.7 569.0,284.7 570.4,284.6 571.9,284.6 573.3,284.6 574.7,284.6 576.2,284.5 577.6,284.5 579.0,284.5 580.4,284.5 581.9,284.5 583.3,284.5 584.7,284.5 586.1,284.5 587.6,284.5 589.0,284.4 590.4,284.4 591.8,284.4 593.3,284.4 594.7,284.4 596.1,284.4 597.5,284.5 599.0,284.5 600.4,284.5 601.8,284.5 603.2,284.5 604.7,284.5 606.1,284.5 607.5,284.5 608.9,284.5 610.4,284.5 611.8,284.5 613.2,284.5 614.6,284.5 616.1,284.5 617.5,284.5 618.9,284.5 620.4,284.5 621.8,284.5 623.2,284.5 624.6,284.5 626.1,284.5 627.5,284.5 628.9,284.5 630.3,284.5 631.8,284.5 633.2,284.5 634.6,284.5 636.0,284.5 637.5,284.5 638.9,284.5 640.3,284.5 641.7,284.5 643.2,284.5 644.6,284.5 646.0,284.5 647.4,284.5 648.9,284.5 650.3,284.5 651.7,284.5 653.1,284.5 654.6,284.5 656.0,284.5 657.4,284.5 658.8,284.5 660.3,284.5 661.7,284.5 663.1,284.5 664.6,284.5 666.0,284.5 667.4,284.5 668.8,284.5 670.3,284.5 671.7,284.5 673.1,284.5 674.5,284.5 676.0,284.5 677.4,284.5 678.8,284.5 680.2,284.5 681.7,284.5 683.1,284.5 684.5,284.5 685.9,284.5 687.4,284.5 688.8,284.5 690.2,284.5 691.6,284.5 693.1,284.5 694.5,284.5 695.9,284.5 697.3,284.5 698.8,284.5 700.2,284.5 701.6,284.5 703.0,284.5 704.5,284.5 705.9,284.5 707.3,284.5 708.8,284.5 710.2,284.5 711.6,284.5 713.0,284.5 714.5,284.5 715.9,284.5 717.3,284.5 718.7,284.5 720.2,284.5 721.6,284.5 723.0,284.5 724.4,284.5 725.9,284.5 727.3,284.5 728.7,284.5 730.1,284.5 731.6,284.5 733.0,284.5 734.4,284.5 735.8,284.5 737.3,284.5 738.7,284.5 740.1,284.5 741.5,284.5 743.0,284.5 744.4,284.5 745.8,284.5 747.2,284.5 748.7,284.5 750.1,284.5 751.5,284.5 752.9,284.5 754.4,284.5 755.8,284.5 757.2,284.5 758.7,284.5 760.1,284.5 761.5,284.5 762.9,284.5 764.4,284.5 765.8,284.5 767.2,284.5 768.6,284.5 770.1,284.5 771.5,284.5 772.9,284.5 774.3,284.5 775.8,284.5 777.2,284.5 778.6,284.5 780.0,284.5 781.5,284.5 782.9,284.5 784.3,284.5 785.7,284.5 787.2,284.5 788.6,284.5 790.0,284.5 791.4,284.5 792.9,284.5 794.3,284.5 795.7,284.5 797.1,284.5 798.6,284.5 L798.6,284.5 L435.0,284.5 Z" fill="url(#g407)" clip-path="url(#c409)"/>
  <path d="M435.0,279.8 435.0,279.8 436.4,266.3 437.9,250.2 439.3,237.0 440.7,226.3 442.1,218.2 443.6,212.4 445.0,208.8 446.4,207.0 447.8,207.0 449.3,208.4 450.7,211.1 452.1,214.8 453.5,219.4 455.0,224.5 456.4,230.2 457.8,236.1 459.2,242.1 460.7,248.1 462.1,254.1 463.5,259.8 464.9,265.2 466.4,270.3 467.8,274.9 469.2,279.2 470.6,282.9 472.1,286.2 473.5,289.1 474.9,291.4 476.3,293.4 477.8,294.9 479.2,296.0 480.6,296.7 482.1,297.1 483.5,297.2 484.9,297.1 486.3,296.7 487.8,296.2 489.2,295.5 490.6,294.7 492.0,293.8 493.5,292.9 494.9,291.9 496.3,290.9 497.7,289.9 499.2,288.9 500.6,288.0 502.0,287.2 503.4,286.4 504.9,285.7 506.3,285.0 507.7,284.4 509.1,283.9 510.6,283.5 512.0,283.2 513.4,282.9 514.8,282.7 516.3,282.5 517.7,282.5 519.1,282.4 520.5,282.4 522.0,282.5 523.4,282.5 524.8,282.6 526.3,282.8 527.7,282.9 529.1,283.1 530.5,283.2 532.0,283.4 533.4,283.5 534.8,283.7 536.2,283.9 537.7,284.0 539.1,284.1 540.5,284.3 541.9,284.4 543.4,284.5 544.8,284.6 546.2,284.6 547.6,284.7 549.1,284.7 550.5,284.8 551.9,284.8 553.3,284.8 554.8,284.8 556.2,284.8 557.6,284.8 559.0,284.8 560.5,284.8 561.9,284.8 563.3,284.8 564.7,284.7 566.2,284.7 567.6,284.7 569.0,284.7 570.4,284.6 571.9,284.6 573.3,284.6 574.7,284.6 576.2,284.5 577.6,284.5 579.0,284.5 580.4,284.5 581.9,284.5 583.3,284.5 584.7,284.5 586.1,284.5 587.6,284.5 589.0,284.4 590.4,284.4 591.8,284.4 593.3,284.4 594.7,284.4 596.1,284.4 597.5,284.5 599.0,284.5 600.4,284.5 601.8,284.5 603.2,284.5 604.7,284.5 606.1,284.5 607.5,284.5 608.9,284.5 610.4,284.5 611.8,284.5 613.2,284.5 614.6,284.5 616.1,284.5 617.5,284.5 618.9,284.5 620.4,284.5 621.8,284.5 623.2,284.5 624.6,284.5 626.1,284.5 627.5,284.5 628.9,284.5 630.3,284.5 631.8,284.5 633.2,284.5 634.6,284.5 636.0,284.5 637.5,284.5 638.9,284.5 640.3,284.5 641.7,284.5 643.2,284.5 644.6,284.5 646.0,284.5 647.4,284.5 648.9,284.5 650.3,284.5 651.7,284.5 653.1,284.5 654.6,284.5 656.0,284.5 657.4,284.5 658.8,284.5 660.3,284.5 661.7,284.5 663.1,284.5 664.6,284.5 666.0,284.5 667.4,284.5 668.8,284.5 670.3,284.5 671.7,284.5 673.1,284.5 674.5,284.5 676.0,284.5 677.4,284.5 678.8,284.5 680.2,284.5 681.7,284.5 683.1,284.5 684.5,284.5 685.9,284.5 687.4,284.5 688.8,284.5 690.2,284.5 691.6,284.5 693.1,284.5 694.5,284.5 695.9,284.5 697.3,284.5 698.8,284.5 700.2,284.5 701.6,284.5 703.0,284.5 704.5,284.5 705.9,284.5 707.3,284.5 708.8,284.5 710.2,284.5 711.6,284.5 713.0,284.5 714.5,284.5 715.9,284.5 717.3,284.5 718.7,284.5 720.2,284.5 721.6,284.5 723.0,284.5 724.4,284.5 725.9,284.5 727.3,284.5 728.7,284.5 730.1,284.5 731.6,284.5 733.0,284.5 734.4,284.5 735.8,284.5 737.3,284.5 738.7,284.5 740.1,284.5 741.5,284.5 743.0,284.5 744.4,284.5 745.8,284.5 747.2,284.5 748.7,284.5 750.1,284.5 751.5,284.5 752.9,284.5 754.4,284.5 755.8,284.5 757.2,284.5 758.7,284.5 760.1,284.5 761.5,284.5 762.9,284.5 764.4,284.5 765.8,284.5 767.2,284.5 768.6,284.5 770.1,284.5 771.5,284.5 772.9,284.5 774.3,284.5 775.8,284.5 777.2,284.5 778.6,284.5 780.0,284.5 781.5,284.5 782.9,284.5 784.3,284.5 785.7,284.5 787.2,284.5 788.6,284.5 790.0,284.5 791.4,284.5 792.9,284.5 794.3,284.5 795.7,284.5 797.1,284.5 798.6,284.5 L798.6,284.5 L435.0,284.5 Z" fill="url(#g408)" clip-path="url(#c410)"/>
  <defs><clipPath id="pc411"><rect x="435" y="207" width="365" height="155"/></clipPath></defs>
  <polyline points="435.0,279.8 436.4,266.3 437.9,250.2 439.3,237.0 440.7,226.3 442.1,218.2 443.6,212.4 445.0,208.8 446.4,207.0 447.8,207.0 449.3,208.4 450.7,211.1 452.1,214.8 453.5,219.4 455.0,224.5 456.4,230.2 457.8,236.1 459.2,242.1 460.7,248.1 462.1,254.1 463.5,259.8 464.9,265.2 466.4,270.3 467.8,274.9 469.2,279.2 470.6,282.9 472.1,286.2 473.5,289.1 474.9,291.4 476.3,293.4 477.8,294.9 479.2,296.0 480.6,296.7 482.1,297.1 483.5,297.2 484.9,297.1 486.3,296.7 487.8,296.2 489.2,295.5 490.6,294.7 492.0,293.8 493.5,292.9 494.9,291.9 496.3,290.9 497.7,289.9 499.2,288.9 500.6,288.0 502.0,287.2 503.4,286.4 504.9,285.7 506.3,285.0 507.7,284.4 509.1,283.9 510.6,283.5 512.0,283.2 513.4,282.9 514.8,282.7 516.3,282.5 517.7,282.5 519.1,282.4 520.5,282.4 522.0,282.5 523.4,282.5 524.8,282.6 526.3,282.8 527.7,282.9 529.1,283.1 530.5,283.2 532.0,283.4 533.4,283.5 534.8,283.7 536.2,283.9 537.7,284.0 539.1,284.1 540.5,284.3 541.9,284.4 543.4,284.5 544.8,284.6 546.2,284.6 547.6,284.7 549.1,284.7 550.5,284.8 551.9,284.8 553.3,284.8 554.8,284.8 556.2,284.8 557.6,284.8 559.0,284.8 560.5,284.8 561.9,284.8 563.3,284.8 564.7,284.7 566.2,284.7 567.6,284.7 569.0,284.7 570.4,284.6 571.9,284.6 573.3,284.6 574.7,284.6 576.2,284.5 577.6,284.5 579.0,284.5 580.4,284.5 581.9,284.5 583.3,284.5 584.7,284.5 586.1,284.5 587.6,284.5 589.0,284.4 590.4,284.4 591.8,284.4 593.3,284.4 594.7,284.4 596.1,284.4 597.5,284.5 599.0,284.5 600.4,284.5 601.8,284.5 603.2,284.5 604.7,284.5 606.1,284.5 607.5,284.5 608.9,284.5 610.4,284.5 611.8,284.5 613.2,284.5 614.6,284.5 616.1,284.5 617.5,284.5 618.9,284.5 620.4,284.5 621.8,284.5 623.2,284.5 624.6,284.5 626.1,284.5 627.5,284.5 628.9,284.5 630.3,284.5 631.8,284.5 633.2,284.5 634.6,284.5 636.0,284.5 637.5,284.5 638.9,284.5 640.3,284.5 641.7,284.5 643.2,284.5 644.6,284.5 646.0,284.5 647.4,284.5 648.9,284.5 650.3,284.5 651.7,284.5 653.1,284.5 654.6,284.5 656.0,284.5 657.4,284.5 658.8,284.5 660.3,284.5 661.7,284.5 663.1,284.5 664.6,284.5 666.0,284.5 667.4,284.5 668.8,284.5 670.3,284.5 671.7,284.5 673.1,284.5 674.5,284.5 676.0,284.5 677.4,284.5 678.8,284.5 680.2,284.5 681.7,284.5 683.1,284.5 684.5,284.5 685.9,284.5 687.4,284.5 688.8,284.5 690.2,284.5 691.6,284.5 693.1,284.5 694.5,284.5 695.9,284.5 697.3,284.5 698.8,284.5 700.2,284.5 701.6,284.5 703.0,284.5 704.5,284.5 705.9,284.5 707.3,284.5 708.8,284.5 710.2,284.5 711.6,284.5 713.0,284.5 714.5,284.5 715.9,284.5 717.3,284.5 718.7,284.5 720.2,284.5 721.6,284.5 723.0,284.5 724.4,284.5 725.9,284.5 727.3,284.5 728.7,284.5 730.1,284.5 731.6,284.5 733.0,284.5 734.4,284.5 735.8,284.5 737.3,284.5 738.7,284.5 740.1,284.5 741.5,284.5 743.0,284.5 744.4,284.5 745.8,284.5 747.2,284.5 748.7,284.5 750.1,284.5 751.5,284.5 752.9,284.5 754.4,284.5 755.8,284.5 757.2,284.5 758.7,284.5 760.1,284.5 761.5,284.5 762.9,284.5 764.4,284.5 765.8,284.5 767.2,284.5 768.6,284.5 770.1,284.5 771.5,284.5 772.9,284.5 774.3,284.5 775.8,284.5 777.2,284.5 778.6,284.5 780.0,284.5 781.5,284.5 782.9,284.5 784.3,284.5 785.7,284.5 787.2,284.5 788.6,284.5 790.0,284.5 791.4,284.5 792.9,284.5 794.3,284.5 795.7,284.5 797.1,284.5 798.6,284.5" fill="none" stroke="#f39c12" stroke-width="1.3" stroke-linejoin="round" clip-path="url(#pc411)"/>
</svg>
