<svg xmlns="http://www.w3.org/2000/svg" viewBox="0 0 820 378" style="font-family:system-ui,-apple-system,sans-serif">
  <text x="800" y="11" text-anchor="end" font-size="11" font-weight="600" fill="#6b7280">SVF notch, fc=1kHz, Q=1</text>
  <line x1="34" y1="16" x2="34" y2="171" stroke="#d1d5db"/>
  <line x1="34" y1="47.0" x2="399" y2="47.0" stroke="#d1d5db"/>
  <text x="216.5" y="197" text-anchor="middle" font-size="9" fill="#6b7280">Hz</text>
  <text x="12" y="93.5" text-anchor="middle" font-size="9" fill="#6b7280" transform="rotate(-90 12 93.5)">dB</text>
  <line x1="67.3" y1="16" x2="67.3" y2="171" stroke="#e5e7eb" stroke-width="0.5"/>
  <line x1="86.8" y1="16" x2="86.8" y2="171" stroke="#e5e7eb" stroke-width="0.5"/>
  <line x1="100.6" y1="16" x2="100.6" y2="171" stroke="#e5e7eb" stroke-width="0.5"/>
  <line x1="111.3" y1="16" x2="111.3" y2="171" stroke="#e5e7eb" stroke-width="0.5"/>
  <line x1="120.0" y1="16" x2="120.0" y2="171" stroke="#e5e7eb" stroke-width="0.5"/>
  <line x1="127.4" y1="16" x2="127.4" y2="171" stroke="#e5e7eb" stroke-width="0.5"/>
  <line x1="133.9" y1="16" x2="133.9" y2="171" stroke="#e5e7eb" stroke-width="0.5"/>
  <line x1="139.5" y1="16" x2="139.5" y2="171" stroke="#e5e7eb" stroke-width="0.5"/>
  <line x1="177.9" y1="16" x2="177.9" y2="171" stroke="#e5e7eb" stroke-width="0.5"/>
  <line x1="197.3" y1="16" x2="197.3" y2="171" stroke="#e5e7eb" stroke-width="0.5"/>
  <line x1="211.1" y1="16" x2="211.1" y2="171" stroke="#e5e7eb" stroke-width="0.5"/>
  <line x1="221.9" y1="16" x2="221.9" y2="171" stroke="#e5e7eb" stroke-width="0.5"/>
  <line x1="230.6" y1="16" x2="230.6" y2="171" stroke="#e5e7eb" stroke-width="0.5"/>
  <line x1="238.0" y1="16" x2="238.0" y2="171" stroke="#e5e7eb" stroke-width="0.5"/>
  <line x1="244.4" y1="16" x2="244.4" y2="171" stroke="#e5e7eb" stroke-width="0.5"/>
  <line x1="250.1" y1="16" x2="250.1" y2="171" stroke="#e5e7eb" stroke-width="0.5"/>
  <line x1="288.4" y1="16" x2="288.4" y2="171" stroke="#e5e7eb" stroke-width="0.5"/>
  <line x1="307.9" y1="16" x2="307.9" y2="171" stroke="#e5e7eb" stroke-width="0.5"/>
  <line x1="321.7" y1="16" x2="321.7" y2="171" stroke="#e5e7eb" stroke-width="0.5"/>
  <line x1="332.4" y1="16" x2="332.4" y2="171" stroke="#e5e7eb" stroke-width="0.5"/>
  <line x1="341.2" y1="16" x2="341.2" y2="171" stroke="#e5e7eb" stroke-width="0.5"/>
  <line x1="348.6" y1="16" x2="348.6" y2="171" stroke="#e5e7eb" stroke-width="0.5"/>
  <line x1="355.0" y1="16" x2="355.0" y2="171" stroke="#e5e7eb" stroke-width="0.5"/>
  <line x1="360.7" y1="16" x2="360.7" y2="171" stroke="#e5e7eb" stroke-width="0.5"/>
  <line x1="399.0" y1="16" x2="399.0" y2="171" stroke="#e5e7eb" stroke-width="0.5"/>
  <line x1="144.6" y1="16" x2="144.6" y2="171" stroke="#e5e7eb" stroke-width="0.5"/>
  <text x="144.6" y="183" text-anchor="middle" font-size="8" fill="#6b7280">100</text>
  <line x1="255.1" y1="16" x2="255.1" y2="171" stroke="#e5e7eb" stroke-width="0.5"/>
  <text x="255.1" y="183" text-anchor="middle" font-size="8" fill="#6b7280">1k</text>
  <line x1="365.7" y1="16" x2="365.7" y2="171" stroke="#e5e7eb" stroke-width="0.5"/>
  <text x="365.7" y="183" text-anchor="middle" font-size="8" fill="#6b7280">10k</text>
  <line x1="34" y1="31.5" x2="399" y2="31.5" stroke="#e5e7eb" stroke-width="0.5"/>
  <line x1="34" y1="62.5" x2="399" y2="62.5" stroke="#e5e7eb" stroke-width="0.5"/>
  <line x1="34" y1="16.0" x2="399" y2="16.0" stroke="#e5e7eb" stroke-width="0.5"/>
  <text x="30" y="19.0" text-anchor="end" font-size="8" fill="#6b7280">+20</text>
  <text x="30" y="50.0" text-anchor="end" font-size="8" fill="#6b7280">0</text>
  <line x1="34" y1="78.0" x2="399" y2="78.0" stroke="#e5e7eb" stroke-width="0.5"/>
  <text x="30" y="81.0" text-anchor="end" font-size="8" fill="#6b7280">-20</text>
  <line x1="34" y1="109.0" x2="399" y2="109.0" stroke="#e5e7eb" stroke-width="0.5"/>
  <text x="30" y="112.0" text-anchor="end" font-size="8" fill="#6b7280">-40</text>
  <line x1="34" y1="140.0" x2="399" y2="140.0" stroke="#e5e7eb" stroke-width="0.5"/>
  <text x="30" y="143.0" text-anchor="end" font-size="8" fill="#6b7280">-60</text>
  <line x1="34" y1="171.0" x2="399" y2="171.0" stroke="#e5e7eb" stroke-width="0.5"/>
  <text x="30" y="174.0" text-anchor="end" font-size="8" fill="#6b7280">-80</text>
  <line x1="255.1" y1="16" x2="255.1" y2="171" stroke="#d1d5db" stroke-width="1" stroke-dasharray="4 3"/>
  <defs><linearGradient id="g443" x1="0" y1="16" x2="0" y2="171" gradientUnits="userSpaceOnUse">
    <stop offset="0%" stop-color="#4a90d9" stop-opacity="0.15"/>
    <stop offset="100%" stop-color="#4a90d9" stop-opacity="0.02"/>
  </linearGradient></defs>
  <path d="M37.5,47.0 37.5,47.0 70.8,47.0 90.3,47.0 104.1,47.0 114.8,47.0 123.6,47.0 131.0,47.0 137.4,47.1 143.1,47.1 148.1,47.1 152.7,47.1 156.9,47.1 160.7,47.1 164.3,47.2 167.6,47.2 170.7,47.2 173.6,47.2 176.3,47.3 178.9,47.3 181.4,47.3 183.7,47.4 186.0,47.4 188.1,47.5 190.2,47.5 192.1,47.5 194.0,47.6 195.8,47.6 197.6,47.7 199.2,47.8 200.9,47.8 202.4,47.9 204.0,48.0 205.5,48.0 206.9,48.1 208.3,48.2 209.6,48.3 210.9,48.4 212.2,48.5 213.5,48.5 214.7,48.7 215.9,48.8 217.0,48.9 218.2,49.0 219.3,49.1 220.3,49.3 221.4,49.4 222.4,49.6 223.4,49.7 224.4,49.9 225.4,50.0 226.4,50.2 227.3,50.4 228.2,50.6 229.1,50.8 230.0,51.1 230.8,51.3 231.7,51.5 232.5,51.8 233.4,52.1 234.2,52.4 235.7,53.0 237.3,53.7 238.7,54.5 240.2,55.4 241.6,56.4 242.9,57.5 244.2,58.8 245.5,60.2 246.8,61.8 248.0,63.8 249.2,66.0 250.3,68.8 251.4,72.3 252.6,77.0 253.6,84.2 254.7,100.3 255.7,97.2 256.7,83.6 257.7,77.1 258.7,72.8 259.6,69.7 260.6,67.3 261.5,65.3 262.4,63.6 263.3,62.2 264.1,61.0 265.0,59.9 265.8,59.0 266.6,58.2 267.4,57.4 268.6,56.4 269.8,55.6 270.9,54.9 272.0,54.2 273.1,53.7 274.2,53.2 275.2,52.7 276.2,52.3 277.2,52.0 278.2,51.7 279.1,51.4 280.0,51.1 281.0,50.9 281.9,50.6 282.7,50.5 283.6,50.3 284.5,50.1 285.3,49.9 286.1,49.8 286.9,49.7 288.0,49.5 289.0,49.4 290.0,49.2 291.0,49.1 292.0,49.0 292.9,48.9 293.9,48.8 294.8,48.7 295.7,48.6 296.6,48.5 297.4,48.5 298.3,48.4 299.1,48.3 299.9,48.3 300.7,48.2 301.7,48.2 302.7,48.1 303.6,48.1 304.6,48.0 305.5,48.0 306.4,47.9 307.3,47.9 308.1,47.8 309.0,47.8 309.8,47.8 310.6,47.7 311.4,47.7 312.4,47.7 313.3,47.7 314.2,47.6 315.1,47.6 316.0,47.6 316.9,47.6 317.7,47.5 318.6,47.5 319.4,47.5 320.2,47.5 321.1,47.4 322.0,47.4 322.9,47.4 323.8,47.4 324.7,47.4 325.5,47.4 326.3,47.4 327.1,47.3 327.9,47.3 328.8,47.3 329.7,47.3 330.6,47.3 331.4,47.3 332.3,47.3 333.1,47.3 333.9,47.2 334.8,47.2 335.7,47.2 336.5,47.2 337.4,47.2 338.2,47.2 339.0,47.2 339.8,47.2 340.7,47.2 341.6,47.2 342.4,47.2 343.3,47.2 344.1,47.1 344.9,47.1 345.8,47.1 346.6,47.1 347.5,47.1 348.3,47.1 349.1,47.1 350.0,47.1 350.8,47.1 351.7,47.1 352.5,47.1 353.3,47.1 354.1,47.1 355.0,47.1 355.8,47.1 356.6,47.1 357.5,47.1 358.3,47.1 359.1,47.1 360.0,47.1 360.8,47.1 361.6,47.1 362.5,47.1 363.3,47.1 364.1,47.1 364.9,47.0 365.8,47.0 366.6,47.0 367.4,47.0 368.2,47.0 369.1,47.0 369.9,47.0 370.7,47.0 371.6,47.0 372.4,47.0 373.2,47.0 374.0,47.0 374.8,47.0 375.6,47.0 376.5,47.0 377.3,47.0 378.1,47.0 378.9,47.0 379.7,47.0 380.5,47.0 381.4,47.0 382.2,47.0 383.0,47.0 383.8,47.0 384.6,47.0 385.5,47.0 386.3,47.0 387.1,47.0 387.9,47.0 388.7,47.0 389.5,47.0 390.3,47.0 391.2,47.0 392.0,47.0 392.8,47.0 393.6,47.0 394.4,47.0 395.2,47.0 396.0,47.0 396.8,47.0 397.6,47.0 398.5,47.0 L398.5,171.0 L37.5,171.0 Z" fill="url(#g443)"/>
  <defs><clipPath id="pc444"><rect x="34" y="16" width="365" height="155"/></clipPath></defs>
  <polyline points="37.5,47.0 70.8,47.0 90.3,47.0 104.1,47.0 114.8,47.0 123.6,47.0 131.0,47.0 137.4,47.1 143.1,47.1 148.1,47.1 152.7,47.1 156.9,47.1 160.7,47.1 164.3,47.2 167.6,47.2 170.7,47.2 173.6,47.2 176.3,47.3 178.9,47.3 181.4,47.3 183.7,47.4 186.0,47.4 188.1,47.5 190.2,47.5 192.1,47.5 194.0,47.6 195.8,47.6 197.6,47.7 199.2,47.8 200.9,47.8 202.4,47.9 204.0,48.0 205.5,48.0 206.9,48.1 208.3,48.2 209.6,48.3 210.9,48.4 212.2,48.5 213.5,48.5 214.7,48.7 215.9,48.8 217.0,48.9 218.2,49.0 219.3,49.1 220.3,49.3 221.4,49.4 222.4,49.6 223.4,49.7 224.4,49.9 225.4,50.0 226.4,50.2 227.3,50.4 228.2,50.6 229.1,50.8 230.0,51.1 230.8,51.3 231.7,51.5 232.5,51.8 233.4,52.1 234.2,52.4 235.7,53.0 237.3,53.7 238.7,54.5 240.2,55.4 241.6,56.4 242.9,57.5 244.2,58.8 245.5,60.2 246.8,61.8 248.0,63.8 249.2,66.0 250.3,68.8 251.4,72.3 252.6,77.0 253.6,84.2 254.7,100.3 255.7,97.2 256.7,83.6 257.7,77.1 258.7,72.8 259.6,69.7 260.6,67.3 261.5,65.3 262.4,63.6 263.3,62.2 264.1,61.0 265.0,59.9 265.8,59.0 266.6,58.2 267.4,57.4 268.6,56.4 269.8,55.6 270.9,54.9 272.0,54.2 273.1,53.7 274.2,53.2 275.2,52.7 276.2,52.3 277.2,52.0 278.2,51.7 279.1,51.4 280.0,51.1 281.0,50.9 281.9,50.6 282.7,50.5 283.6,50.3 284.5,50.1 285.3,49.9 286.1,49.8 286.9,49.7 288.0,49.5 289.0,49.4 290.0,49.2 291.0,49.1 292.0,49.0 292.9,48.9 293.9,48.8 294.8,48.7 295.7,48.6 296.6,48.5 297.4,48.5 298.3,48.4 299.1,48.3 299.9,48.3 300.7,48.2 301.7,48.2 302.7,48.1 303.6,48.1 304.6,48.0 305.5,48.0 306.4,47.9 307.3,47.9 308.1,47.8 309.0,47.8 309.8,47.8 310.6,47.7 311.4,47.7 312.4,47.7 313.3,47.7 314.2,47.6 315.1,47.6 316.0,47.6 316.9,47.6 317.7,47.5 318.6,47.5 319.4,47.5 320.2,47.5 321.1,47.4 322.0,47.4 322.9,47.4 323.8,47.4 324.7,47.4 325.5,47.4 326.3,47.4 327.1,47.3 327.9,47.3 328.8,47.3 329.7,47.3 330.6,47.3 331.4,47.3 332.3,47.3 333.1,47.3 333.9,47.2 334.8,47.2 335.7,47.2 336.5,47.2 337.4,47.2 338.2,47.2 339.0,47.2 339.8,47.2 340.7,47.2 341.6,47.2 342.4,47.2 343.3,47.2 344.1,47.1 344.9,47.1 345.8,47.1 346.6,47.1 347.5,47.1 348.3,47.1 349.1,47.1 350.0,47.1 350.8,47.1 351.7,47.1 352.5,47.1 353.3,47.1 354.1,47.1 355.0,47.1 355.8,47.1 356.6,47.1 357.5,47.1 358.3,47.1 359.1,47.1 360.0,47.1 360.8,47.1 361.6,47.1 362.5,47.1 363.3,47.1 364.1,47.1 364.9,47.0 365.8,47.0 366.6,47.0 367.4,47.0 368.2,47.0 369.1,47.0 369.9,47.0 370.7,47.0 371.6,47.0 372.4,47.0 373.2,47.0 374.0,47.0 374.8,47.0 375.6,47.0 376.5,47.0 377.3,47.0 378.1,47.0 378.9,47.0 379.7,47.0 380.5,47.0 381.4,47.0 382.2,47.0 383.0,47.0 383.8,47.0 384.6,47.0 385.5,47.0 386.3,47.0 387.1,47.0 387.9,47.0 388.7,47.0 389.5,47.0 390.3,47.0 391.2,47.0 392.0,47.0 392.8,47.0 393.6,47.0 394.4,47.0 395.2,47.0 396.0,47.0 396.8,47.0 397.6,47.0 398.5,47.0" fill="none" stroke="#4a90d9" stroke-width="1.5" stroke-linejoin="round" clip-path="url(#pc444)"/>
  <line x1="435" y1="16" x2="435" y2="171" stroke="#d1d5db"/>
  <line x1="435" y1="93.5" x2="800" y2="93.5" stroke="#d1d5db"/>
  <text x="617.5" y="197" text-anchor="middle" font-size="9" fill="#6b7280">Hz</text>
  <text x="413" y="93.5" text-anchor="middle" font-size="9" fill="#6b7280" transform="rotate(-90 413 93.5)">Phase (deg)</text>
  <line x1="468.3" y1="16" x2="468.3" y2="171" stroke="#e5e7eb" stroke-width="0.5"/>
  <line x1="487.8" y1="16" x2="487.8" y2="171" stroke="#e5e7eb" stroke-width="0.5"/>
  <line x1="501.6" y1="16" x2="501.6" y2="171" stroke="#e5e7eb" stroke-width="0.5"/>
  <line x1="512.3" y1="16" x2="512.3" y2="171" stroke="#e5e7eb" stroke-width="0.5"/>
  <line x1="521.0" y1="16" x2="521.0" y2="171" stroke="#e5e7eb" stroke-width="0.5"/>
  <line x1="528.4" y1="16" x2="528.4" y2="171" stroke="#e5e7eb" stroke-width="0.5"/>
  <line x1="534.9" y1="16" x2="534.9" y2="171" stroke="#e5e7eb" stroke-width="0.5"/>
  <line x1="540.5" y1="16" x2="540.5" y2="171" stroke="#e5e7eb" stroke-width="0.5"/>
  <line x1="578.9" y1="16" x2="578.9" y2="171" stroke="#e5e7eb" stroke-width="0.5"/>
  <line x1="598.3" y1="16" x2="598.3" y2="171" stroke="#e5e7eb" stroke-width="0.5"/>
  <line x1="612.1" y1="16" x2="612.1" y2="171" stroke="#e5e7eb" stroke-width="0.5"/>
  <line x1="622.9" y1="16" x2="622.9" y2="171" stroke="#e5e7eb" stroke-width="0.5"/>
  <line x1="631.6" y1="16" x2="631.6" y2="171" stroke="#e5e7eb" stroke-width="0.5"/>
  <line x1="639.0" y1="16" x2="639.0" y2="171" stroke="#e5e7eb" stroke-width="0.5"/>
  <line x1="645.4" y1="16" x2="645.4" y2="171" stroke="#e5e7eb" stroke-width="0.5"/>
  <line x1="651.1" y1="16" x2="651.1" y2="171" stroke="#e5e7eb" stroke-width="0.5"/>
  <line x1="689.4" y1="16" x2="689.4" y2="171" stroke="#e5e7eb" stroke-width="0.5"/>
  <line x1="708.9" y1="16" x2="708.9" y2="171" stroke="#e5e7eb" stroke-width="0.5"/>
  <line x1="722.7" y1="16" x2="722.7" y2="171" stroke="#e5e7eb" stroke-width="0.5"/>
  <line x1="733.4" y1="16" x2="733.4" y2="171" stroke="#e5e7eb" stroke-width="0.5"/>
  <line x1="742.2" y1="16" x2="742.2" y2="171" stroke="#e5e7eb" stroke-width="0.5"/>
  <line x1="749.6" y1="16" x2="749.6" y2="171" stroke="#e5e7eb" stroke-width="0.5"/>
  <line x1="756.0" y1="16" x2="756.0" y2="171" stroke="#e5e7eb" stroke-width="0.5"/>
  <line x1="761.7" y1="16" x2="761.7" y2="171" stroke="#e5e7eb" stroke-width="0.5"/>
  <line x1="800.0" y1="16" x2="800.0" y2="171" stroke="#e5e7eb" stroke-width="0.5"/>
  <line x1="545.6" y1="16" x2="545.6" y2="171" stroke="#e5e7eb" stroke-width="0.5"/>
  <text x="545.6" y="183" text-anchor="middle" font-size="8" fill="#6b7280">100</text>
  <line x1="656.1" y1="16" x2="656.1" y2="171" stroke="#e5e7eb" stroke-width="0.5"/>
  <text x="656.1" y="183" text-anchor="middle" font-size="8" fill="#6b7280">1k</text>
  <line x1="766.7" y1="16" x2="766.7" y2="171" stroke="#e5e7eb" stroke-width="0.5"/>
  <text x="766.7" y="183" text-anchor="middle" font-size="8" fill="#6b7280">10k</text>
  <line x1="435" y1="58.6" x2="800" y2="58.6" stroke="#e5e7eb" stroke-width="0.5"/>
  <line x1="435" y1="128.4" x2="800" y2="128.4" stroke="#e5e7eb" stroke-width="0.5"/>
  <line x1="435" y1="23.8" x2="800" y2="23.8" stroke="#e5e7eb" stroke-width="0.5"/>
  <text x="431" y="26.8" text-anchor="end" font-size="8" fill="#6b7280">180</text>
  <text x="431" y="96.5" text-anchor="end" font-size="8" fill="#6b7280">0</text>
  <line x1="435" y1="163.3" x2="800" y2="163.3" stroke="#e5e7eb" stroke-width="0.5"/>
  <text x="431" y="166.3" text-anchor="end" font-size="8" fill="#6b7280">-180</text>
  <line x1="656.1" y1="16" x2="656.1" y2="171" stroke="#d1d5db" stroke-width="1" stroke-dasharray="4 3"/>
  <defs><linearGradient id="g445" x1="0" y1="16" x2="0" y2="93.5" gradientUnits="userSpaceOnUse">
    <stop offset="0%" stop-color="#e74c3c" stop-opacity="0.15"/>
    <stop offset="100%" stop-color="#e74c3c" stop-opacity="0.02"/>
  </linearGradient></defs>
  <defs><linearGradient id="g446" x1="0" y1="171" x2="0" y2="93.5" gradientUnits="userSpaceOnUse">
    <stop offset="0%" stop-color="#e74c3c" stop-opacity="0.15"/>
    <stop offset="100%" stop-color="#e74c3c" stop-opacity="0.02"/>
  </linearGradient></defs>
  <defs><clipPath id="c447"><rect x="435" y="16" width="365" height="77.5"/></clipPath></defs>
  <defs><clipPath id="c448"><rect x="435" y="93.5" width="365" height="77.5"/></clipPath></defs>
  <path d="M438.5,93.7 438.5,93.7 471.8,94.0 491.3,94.2 505.1,94.5 515.8,94.7 524.6,94.9 532.0,95.2 538.4,95.4 544.1,95.7 549.1,95.9 553.7,96.1 557.9,96.4 561.7,96.6 565.3,96.9 568.6,97.1 571.7,97.4 574.6,97.6 577.3,97.9 579.9,98.2 582.4,98.4 584.7,98.7 587.0,98.9 589.1,99.2 591.2,99.5 593.1,99.8 595.0,100.0 596.8,100.3 598.6,100.6 600.2,100.9 601.9,101.2 603.4,101.5 605.0,101.8 606.5,102.1 607.9,102.4 609.3,102.7 610.6,103.0 611.9,103.3 613.2,103.6 614.5,103.9 615.7,104.3 616.9,104.6 618.0,105.0 619.2,105.3 620.3,105.7 621.3,106.0 622.4,106.4 623.4,106.7 624.4,107.1 625.4,107.5 626.4,107.9 627.4,108.3 628.3,108.7 629.2,109.1 630.1,109.5 631.0,109.9 631.8,110.3 632.7,110.7 633.5,111.2 634.4,111.6 635.2,112.1 636.7,113.0 638.3,113.9 639.7,114.8 641.2,115.8 642.6,116.8 643.9,117.8 645.2,118.8 646.5,119.8 647.8,120.9 649.0,121.9 650.2,122.9 651.3,124.0 652.4,125.0 653.6,126.0 654.6,127.0 655.7,128.0 656.7,59.2 657.7,60.1 658.7,61.0 659.7,61.9 660.6,62.8 661.6,63.6 662.5,64.4 663.4,65.2 664.3,65.9 665.1,66.7 666.0,67.3 666.8,68.0 667.6,68.7 668.4,69.3 669.6,70.2 670.8,71.0 671.9,71.8 673.0,72.5 674.1,73.2 675.2,73.8 676.2,74.4 677.2,75.0 678.2,75.6 679.2,76.1 680.1,76.6 681.0,77.0 682.0,77.5 682.9,77.9 683.7,78.3 684.6,78.6 685.5,79.0 686.3,79.3 687.1,79.7 687.9,80.0 689.0,80.4 690.0,80.7 691.0,81.1 692.0,81.4 693.0,81.7 693.9,82.0 694.9,82.3 695.8,82.6 696.7,82.8 697.6,83.1 698.4,83.3 699.3,83.5 700.1,83.7 700.9,83.9 701.7,84.1 702.7,84.4 703.7,84.6 704.6,84.8 705.6,85.0 706.5,85.2 707.4,85.4 708.3,85.5 709.1,85.7 710.0,85.9 710.8,86.0 711.6,86.2 712.4,86.3 713.4,86.5 714.3,86.6 715.2,86.8 716.1,86.9 717.0,87.1 717.9,87.2 718.7,87.3 719.6,87.4 720.4,87.6 721.2,87.7 722.1,87.8 723.0,87.9 723.9,88.0 724.8,88.1 725.7,88.3 726.5,88.4 727.3,88.5 728.1,88.6 728.9,88.6 729.8,88.7 730.7,88.8 731.6,88.9 732.4,89.0 733.3,89.1 734.1,89.2 734.9,89.3 735.8,89.4 736.7,89.5 737.5,89.5 738.4,89.6 739.2,89.7 740.0,89.8 740.8,89.8 741.7,89.9 742.6,90.0 743.4,90.1 744.3,90.1 745.1,90.2 745.9,90.3 746.8,90.3 747.6,90.4 748.5,90.5 749.3,90.5 750.1,90.6 751.0,90.7 751.8,90.7 752.7,90.8 753.5,90.8 754.3,90.9 755.1,91.0 756.0,91.0 756.8,91.1 757.6,91.1 758.5,91.2 759.3,91.2 760.1,91.3 761.0,91.3 761.8,91.4 762.6,91.4 763.5,91.5 764.3,91.5 765.1,91.6 765.9,91.6 766.8,91.7 767.6,91.7 768.4,91.8 769.2,91.8 770.1,91.8 770.9,91.9 771.7,91.9 772.6,92.0 773.4,92.0 774.2,92.1 775.0,92.1 775.8,92.1 776.6,92.2 777.5,92.2 778.3,92.3 779.1,92.3 779.9,92.3 780.7,92.4 781.5,92.4 782.4,92.5 783.2,92.5 784.0,92.5 784.8,92.6 785.6,92.6 786.5,92.6 787.3,92.7 788.1,92.7 788.9,92.8 789.7,92.8 790.5,92.8 791.3,92.9 792.2,92.9 793.0,92.9 793.8,93.0 794.6,93.0 795.4,93.1 796.2,93.1 797.0,93.1 797.8,93.2 798.6,93.2 799.5,93.2 L799.5,93.5 L438.5,93.5 Z" fill="url(#g445)" clip-path="url(#c447)"/>
  <path d="M438.5,93.7 438.5,93.7 471.8,94.0 491.3,94.2 505.1,94.5 515.8,94.7 524.6,94.9 532.0,95.2 538.4,95.4 544.1,95.7 549.1,95.9 553.7,96.1 557.9,96.4 561.7,96.6 565.3,96.9 568.6,97.1 571.7,97.4 574.6,97.6 577.3,97.9 579.9,98.2 582.4,98.4 584.7,98.7 587.0,98.9 589.1,99.2 591.2,99.5 593.1,99.8 595.0,100.0 596.8,100.3 598.6,100.6 600.2,100.9 601.9,101.2 603.4,101.5 605.0,101.8 606.5,102.1 607.9,102.4 609.3,102.7 610.6,103.0 611.9,103.3 613.2,103.6 614.5,103.9 615.7,104.3 616.9,104.6 618.0,105.0 619.2,105.3 620.3,105.7 621.3,106.0 622.4,106.4 623.4,106.7 624.4,107.1 625.4,107.5 626.4,107.9 627.4,108.3 628.3,108.7 629.2,109.1 630.1,109.5 631.0,109.9 631.8,110.3 632.7,110.7 633.5,111.2 634.4,111.6 635.2,112.1 636.7,113.0 638.3,113.9 639.7,114.8 641.2,115.8 642.6,116.8 643.9,117.8 645.2,118.8 646.5,119.8 647.8,120.9 649.0,121.9 650.2,122.9 651.3,124.0 652.4,125.0 653.6,126.0 654.6,127.0 655.7,128.0 656.7,59.2 657.7,60.1 658.7,61.0 659.7,61.9 660.6,62.8 661.6,63.6 662.5,64.4 663.4,65.2 664.3,65.9 665.1,66.7 666.0,67.3 666.8,68.0 667.6,68.7 668.4,69.3 669.6,70.2 670.8,71.0 671.9,71.8 673.0,72.5 674.1,73.2 675.2,73.8 676.2,74.4 677.2,75.0 678.2,75.6 679.2,76.1 680.1,76.6 681.0,77.0 682.0,77.5 682.9,77.9 683.7,78.3 684.6,78.6 685.5,79.0 686.3,79.3 687.1,79.7 687.9,80.0 689.0,80.4 690.0,80.7 691.0,81.1 692.0,81.4 693.0,81.7 693.9,82.0 694.9,82.3 695.8,82.6 696.7,82.8 697.6,83.1 698.4,83.3 699.3,83.5 700.1,83.7 700.9,83.9 701.7,84.1 702.7,84.4 703.7,84.6 704.6,84.8 705.6,85.0 706.5,85.2 707.4,85.4 708.3,85.5 709.1,85.7 710.0,85.9 710.8,86.0 711.6,86.2 712.4,86.3 713.4,86.5 714.3,86.6 715.2,86.8 716.1,86.9 717.0,87.1 717.9,87.2 718.7,87.3 719.6,87.4 720.4,87.6 721.2,87.7 722.1,87.8 723.0,87.9 723.9,88.0 724.8,88.1 725.7,88.3 726.5,88.4 727.3,88.5 728.1,88.6 728.9,88.6 729.8,88.7 730.7,88.8 731.6,88.9 732.4,89.0 733.3,89.1 734.1,89.2 734.9,89.3 735.8,89.4 736.7,89.5 737.5,89.5 738.4,89.6 739.2,89.7 740.0,89.8 740.8,89.8 741.7,89.9 742.6,90.0 743.4,90.1 744.3,90.1 745.1,90.2 745.9,90.3 746.8,90.3 747.6,90.4 748.5,90.5 749.3,90.5 750.1,90.6 751.0,90.7 751.8,90.7 752.7,90.8 753.5,90.8 754.3,90.9 755.1,91.0 756.0,91.0 756.8,91.1 757.6,91.1 758.5,91.2 759.3,91.2 760.1,91.3 761.0,91.3 761.8,91.4 762.6,91.4 763.5,91.5 764.3,91.5 765.1,91.6 765.9,91.6 766.8,91.7 767.6,91.7 768.4,91.8 769.2,91.8 770.1,91.8 770.9,91.9 771.7,91.9 772.6,92.0 773.4,92.0 774.2,92.1 775.0,92.1 775.8,92.1 776.6,92.2 777.5,92.2 778.3,92.3 779.1,92.3 779.9,92.3 780.7,92.4 781.5,92.4 782.4,92.5 783.2,92.5 784.0,92.5 784.8,92.6 785.6,92.6 786.5,92.6 787.3,92.7 788.1,92.7 788.9,92.8 789.7,92.8 790.5,92.8 791.3,92.9 792.2,92.9 793.0,92.9 793.8,93.0 794.6,93.0 795.4,93.1 796.2,93.1 797.0,93.1 797.8,93.2 798.6,93.2 799.5,93.2 L799.5,93.5 L438.5,93.5 Z" fill="url(#g446)" clip-path="url(#c448)"/>
  <defs><clipPath id="pc449"><rect x="435" y="16" width="365" height="155"/></clipPath></defs>
  <polyline points="438.5,93.7 471.8,94.0 491.3,94.2 505.1,94.5 515.8,94.7 524.6,94.9 532.0,95.2 538.4,95.4 544.1,95.7 549.1,95.9 553.7,96.1 557.9,96.4 561.7,96.6 565.3,96.9 568.6,97.1 571.7,97.4 574.6,97.6 577.3,97.9 579.9,98.2 582.4,98.4 584.7,98.7 587.0,98.9 589.1,99.2 591.2,99.5 593.1,99.8 595.0,100.0 596.8,100.3 598.6,100.6 600.2,100.9 601.9,101.2 603.4,101.5 605.0,101.8 606.5,102.1 607.9,102.4 609.3,102.7 610.6,103.0 611.9,103.3 613.2,103.6 614.5,103.9 615.7,104.3 616.9,104.6 618.0,105.0 619.2,105.3 620.3,105.7 621.3,106.0 622.4,106.4 623.4,106.7 624.4,107.1 625.4,107.5 626.4,107.9 627.4,108.3 628.3,108.7 629.2,109.1 630.1,109.5 631.0,109.9 631.8,110.3 632.7,110.7 633.5,111.2 634.4,111.6 635.2,112.1 636.7,113.0 638.3,113.9 639.7,114.8 641.2,115.8 642.6,116.8 643.9,117.8 645.2,118.8 646.5,119.8 647.8,120.9 649.0,121.9 650.2,122.9 651.3,124.0 652.4,125.0 653.6,126.0 654.6,127.0 655.7,128.0 656.7,59.2 657.7,60.1 658.7,61.0 659.7,61.9 660.6,62.8 661.6,63.6 662.5,64.4 663.4,65.2 664.3,65.9 665.1,66.7 666.0,67.3 666.8,68.0 667.6,68.7 668.4,69.3 669.6,70.2 670.8,71.0 671.9,71.8 673.0,72.5 674.1,73.2 675.2,73.8 676.2,74.4 677.2,75.0 678.2,75.6 679.2,76.1 680.1,76.6 681.0,77.0 682.0,77.5 682.9,77.9 683.7,78.3 684.6,78.6 685.5,79.0 686.3,79.3 687.1,79.7 687.9,80.0 689.0,80.4 690.0,80.7 691.0,81.1 692.0,81.4 693.0,81.7 693.9,82.0 694.9,82.3 695.8,82.6 696.7,82.8 697.6,83.1 698.4,83.3 699.3,83.5 700.1,83.7 700.9,83.9 701.7,84.1 702.7,84.4 703.7,84.6 704.6,84.8 705.6,85.0 706.5,85.2 707.4,85.4 708.3,85.5 709.1,85.7 710.0,85.9 710.8,86.0 711.6,86.2 712.4,86.3 713.4,86.5 714.3,86.6 715.2,86.8 716.1,86.9 717.0,87.1 717.9,87.2 718.7,87.3 719.6,87.4 720.4,87.6 721.2,87.7 722.1,87.8 723.0,87.9 723.9,88.0 724.8,88.1 725.7,88.3 726.5,88.4 727.3,88.5 728.1,88.6 728.9,88.6 729.8,88.7 730.7,88.8 731.6,88.9 732.4,89.0 733.3,89.1 734.1,89.2 734.9,89.3 735.8,89.4 736.7,89.5 737.5,89.5 738.4,89.6 739.2,89.7 740.0,89.8 740.8,89.8 741.7,89.9 742.6,90.0 743.4,90.1 744.3,90.1 745.1,90.2 745.9,90.3 746.8,90.3 747.6,90.4 748.5,90.5 749.3,90.5 750.1,90.6 751.0,90.7 751.8,90.7 752.7,90.8 753.5,90.8 754.3,90.9 755.1,91.0 756.0,91.0 756.8,91.1 757.6,91.1 758.5,91.2 759.3,91.2 760.1,91.3 761.0,91.3 761.8,91.4 762.6,91.4 763.5,91.5 764.3,91.5 765.1,91.6 765.9,91.6 766.8,91.7 767.6,91.7 768.4,91.8 769.2,91.8 770.1,91.8 770.9,91.9 771.7,91.9 772.6,92.0 773.4,92.0 774.2,92.1 775.0,92.1 775.8,92.1 776.6,92.2 777.5,92.2 778.3,92.3 779.1,92.3 779.9,92.3 780.7,92.4 781.5,92.4 782.4,92.5 783.2,92.5 784.0,92.5 784.8,92.6 785.6,92.6 786.5,92.6 787.3,92.7 788.1,92.7 788.9,92.8 789.7,92.8 790.5,92.8 791.3,92.9 792.2,92.9 793.0,92.9 793.8,93.0 794.6,93.0 795.4,93.1 796.2,93.1 797.0,93.1 797.8,93.2 798.6,93.2 799.5,93.2" fill="none" stroke="#e74c3c" stroke-width="1.5" stroke-linejoin="round" clip-path="url(#pc449)"/>
  <line x1="34" y1="207" x2="34" y2="362" stroke="#d1d5db"/>
  <line x1="34" y1="284.5" x2="399" y2="284.5" stroke="#d1d5db"/>
  <text x="216.5" y="388" text-anchor="middle" font-size="9" fill="#6b7280">Hz</text>
  <text x="12" y="284.5" text-anchor="middle" font-size="9" fill="#6b7280" transform="rotate(-90 12 284.5)">Group delay</text>
  <line x1="67.3" y1="207" x2="67.3" y2="362" stroke="#e5e7eb" stroke-width="0.5"/>
  <line x1="86.8" y1="207" x2="86.8" y2="362" stroke="#e5e7eb" stroke-width="0.5"/>
  <line x1="100.6" y1="207" x2="100.6" y2="362" stroke="#e5e7eb" stroke-width="0.5"/>
  <line x1="111.3" y1="207" x2="111.3" y2="362" stroke="#e5e7eb" stroke-width="0.5"/>
  <line x1="120.0" y1="207" x2="120.0" y2="362" stroke="#e5e7eb" stroke-width="0.5"/>
  <line x1="127.4" y1="207" x2="127.4" y2="362" stroke="#e5e7eb" stroke-width="0.5"/>
  <line x1="133.9" y1="207" x2="133.9" y2="362" stroke="#e5e7eb" stroke-width="0.5"/>
  <line x1="139.5" y1="207" x2="139.5" y2="362" stroke="#e5e7eb" stroke-width="0.5"/>
  <line x1="177.9" y1="207" x2="177.9" y2="362" stroke="#e5e7eb" stroke-width="0.5"/>
  <line x1="197.3" y1="207" x2="197.3" y2="362" stroke="#e5e7eb" stroke-width="0.5"/>
  <line x1="211.1" y1="207" x2="211.1" y2="362" stroke="#e5e7eb" stroke-width="0.5"/>
  <line x1="221.9" y1="207" x2="221.9" y2="362" stroke="#e5e7eb" stroke-width="0.5"/>
  <line x1="230.6" y1="207" x2="230.6" y2="362" stroke="#e5e7eb" stroke-width="0.5"/>
  <line x1="238.0" y1="207" x2="238.0" y2="362" stroke="#e5e7eb" stroke-width="0.5"/>
  <line x1="244.4" y1="207" x2="244.4" y2="362" stroke="#e5e7eb" stroke-width="0.5"/>
  <line x1="250.1" y1="207" x2="250.1" y2="362" stroke="#e5e7eb" stroke-width="0.5"/>
  <line x1="288.4" y1="207" x2="288.4" y2="362" stroke="#e5e7eb" stroke-width="0.5"/>
  <line x1="307.9" y1="207" x2="307.9" y2="362" stroke="#e5e7eb" stroke-width="0.5"/>
  <line x1="321.7" y1="207" x2="321.7" y2="362" stroke="#e5e7eb" stroke-width="0.5"/>
  <line x1="332.4" y1="207" x2="332.4" y2="362" stroke="#e5e7eb" stroke-width="0.5"/>
  <line x1="341.2" y1="207" x2="341.2" y2="362" stroke="#e5e7eb" stroke-width="0.5"/>
  <line x1="348.6" y1="207" x2="348.6" y2="362" stroke="#e5e7eb" stroke-width="0.5"/>
  <line x1="355.0" y1="207" x2="355.0" y2="362" stroke="#e5e7eb" stroke-width="0.5"/>
  <line x1="360.7" y1="207" x2="360.7" y2="362" stroke="#e5e7eb" stroke-width="0.5"/>
  <line x1="399.0" y1="207" x2="399.0" y2="362" stroke="#e5e7eb" stroke-width="0.5"/>
  <line x1="144.6" y1="207" x2="144.6" y2="362" stroke="#e5e7eb" stroke-width="0.5"/>
  <text x="144.6" y="374" text-anchor="middle" font-size="8" fill="#6b7280">100</text>
  <line x1="255.1" y1="207" x2="255.1" y2="362" stroke="#e5e7eb" stroke-width="0.5"/>
  <text x="255.1" y="374" text-anchor="middle" font-size="8" fill="#6b7280">1k</text>
  <line x1="365.7" y1="207" x2="365.7" y2="362" stroke="#e5e7eb" stroke-width="0.5"/>
  <text x="365.7" y="374" text-anchor="middle" font-size="8" fill="#6b7280">10k</text>
  <line x1="34" y1="325.8" x2="399" y2="325.8" stroke="#e5e7eb" stroke-width="0.5"/>
  <text x="30" y="328.8" text-anchor="end" font-size="8" fill="#6b7280">-700</text>
  <text x="30" y="287.5" text-anchor="end" font-size="8" fill="#6b7280">0</text>
  <line x1="34" y1="243.2" x2="399" y2="243.2" stroke="#e5e7eb" stroke-width="0.5"/>
  <text x="30" y="246.2" text-anchor="end" font-size="8" fill="#6b7280">700</text>
  <line x1="255.1" y1="207" x2="255.1" y2="362" stroke="#d1d5db" stroke-width="1" stroke-dasharray="4 3"/>
  <defs><linearGradient id="g450" x1="0" y1="207" x2="0" y2="284.5" gradientUnits="userSpaceOnUse">
    <stop offset="0%" stop-color="#2ecc71" stop-opacity="0.15"/>
    <stop offset="100%" stop-color="#2ecc71" stop-opacity="0.02"/>
  </linearGradient></defs>
  <defs><linearGradient id="g451" x1="0" y1="362" x2="0" y2="284.5" gradientUnits="userSpaceOnUse">
    <stop offset="0%" stop-color="#2ecc71" stop-opacity="0.15"/>
    <stop offset="100%" stop-color="#2ecc71" stop-opacity="0.02"/>
  </linearGradient></defs>
  <defs><clipPath id="c452"><rect x="34" y="207" width="365" height="77.5"/></clipPath></defs>
  <defs><clipPath id="c453"><rect x="34" y="284.5" width="365" height="77.5"/></clipPath></defs>
  <path d="M37.5,284.1 37.5,284.1 70.8,284.1 90.3,284.1 104.1,284.1 114.8,284.1 123.6,284.1 131.0,284.1 137.4,284.1 143.1,284.1 148.1,284.1 152.7,284.1 156.9,284.1 160.7,284.1 164.3,284.1 167.6,284.1 170.7,284.1 173.6,284.1 176.3,284.1 178.9,284.1 181.4,284.0 183.7,284.0 186.0,284.0 188.1,284.0 190.2,284.0 192.1,284.0 194.0,284.0 195.8,284.0 197.6,284.0 199.2,284.0 200.9,284.0 202.4,284.0 204.0,284.0 205.5,284.0 206.9,284.0 208.3,284.0 209.6,284.0 210.9,283.9 212.2,283.9 213.5,283.9 214.7,283.9 215.9,283.9 217.0,283.9 218.2,283.9 219.3,283.9 220.3,283.9 221.4,283.9 222.4,283.9 223.4,283.8 224.4,283.8 225.4,283.8 226.4,283.8 227.3,283.8 228.2,283.8 229.1,283.8 230.0,283.8 230.8,283.8 231.7,283.8 232.5,283.7 233.4,283.7 234.2,283.7 235.7,283.7 237.3,283.7 238.7,283.7 240.2,283.7 241.6,283.6 242.9,283.6 244.2,283.6 245.5,283.6 246.8,283.6 248.0,283.6 249.2,283.6 250.3,283.6 251.4,283.6 252.6,283.6 253.6,283.6 254.7,344.1 255.7,283.7 256.7,283.7 257.7,283.7 258.7,283.7 259.6,283.8 260.6,283.8 261.5,283.8 262.4,283.8 263.3,283.9 264.1,283.9 265.0,283.9 265.8,283.9 266.6,284.0 267.4,284.0 268.6,284.0 269.8,284.0 270.9,284.1 272.0,284.1 273.1,284.1 274.2,284.1 275.2,284.2 276.2,284.2 277.2,284.2 278.2,284.2 279.1,284.2 280.0,284.2 281.0,284.3 281.9,284.3 282.7,284.3 283.6,284.3 284.5,284.3 285.3,284.3 286.1,284.3 286.9,284.3 288.0,284.3 289.0,284.3 290.0,284.4 291.0,284.4 292.0,284.4 292.9,284.4 293.9,284.4 294.8,284.4 295.7,284.4 296.6,284.4 297.4,284.4 298.3,284.4 299.1,284.4 299.9,284.4 300.7,284.4 301.7,284.4 302.7,284.4 303.6,284.4 304.6,284.4 305.5,284.4 306.4,284.4 307.3,284.4 308.1,284.4 309.0,284.4 309.8,284.4 310.6,284.4 311.4,284.5 312.4,284.5 313.3,284.5 314.2,284.5 315.1,284.5 316.0,284.5 316.9,284.5 317.7,284.5 318.6,284.5 319.4,284.5 320.2,284.5 321.1,284.5 322.0,284.5 322.9,284.5 323.8,284.5 324.7,284.5 325.5,284.5 326.3,284.5 327.1,284.5 327.9,284.5 328.8,284.5 329.7,284.5 330.6,284.5 331.4,284.5 332.3,284.5 333.1,284.5 333.9,284.5 334.8,284.5 335.7,284.5 336.5,284.5 337.4,284.5 338.2,284.5 339.0,284.5 339.8,284.5 340.7,284.5 341.6,284.5 342.4,284.5 343.3,284.5 344.1,284.5 344.9,284.5 345.8,284.5 346.6,284.5 347.5,284.5 348.3,284.5 349.1,284.5 350.0,284.5 350.8,284.5 351.7,284.5 352.5,284.5 353.3,284.5 354.1,284.5 355.0,284.5 355.8,284.5 356.6,284.5 357.5,284.5 358.3,284.5 359.1,284.5 360.0,284.5 360.8,284.5 361.6,284.5 362.5,284.5 363.3,284.5 364.1,284.5 364.9,284.5 365.8,284.5 366.6,284.5 367.4,284.5 368.2,284.5 369.1,284.5 369.9,284.5 370.7,284.5 371.6,284.5 372.4,284.5 373.2,284.5 374.0,284.5 374.8,284.5 375.6,284.5 376.5,284.5 377.3,284.5 378.1,284.5 378.9,284.5 379.7,284.5 380.5,284.5 381.4,284.5 382.2,284.5 383.0,284.5 383.8,284.5 384.6,284.5 385.5,284.5 386.3,284.5 387.1,284.5 387.9,284.5 388.7,284.5 389.5,284.5 390.3,284.5 391.2,284.5 392.0,284.5 392.8,284.5 393.6,284.5 394.4,284.5 395.2,284.5 396.0,284.5 396.8,284.5 397.6,284.5 398.5,284.5 L398.5,284.5 L37.5,284.5 Z" fill="url(#g450)" clip-path="url(#c452)"/>
  <path d="M37.5,284.1 37.5,284.1 70.8,284.1 90.3,284.1 104.1,284.1 114.8,284.1 123.6,284.1 131.0,284.1 137.4,284.1 143.1,284.1 148.1,284.1 152.7,284.1 156.9,284.1 160.7,284.1 164.3,284.1 167.6,284.1 170.7,284.1 173.6,284.1 176.3,284.1 178.9,284.1 181.4,284.0 183.7,284.0 186.0,284.0 188.1,284.0 190.2,284.0 192.1,284.0 194.0,284.0 195.8,284.0 197.6,284.0 199.2,284.0 200.9,284.0 202.4,284.0 204.0,284.0 205.5,284.0 206.9,284.0 208.3,284.0 209.6,284.0 210.9,283.9 212.2,283.9 213.5,283.9 214.7,283.9 215.9,283.9 217.0,283.9 218.2,283.9 219.3,283.9 220.3,283.9 221.4,283.9 222.4,283.9 223.4,283.8 224.4,283.8 225.4,283.8 226.4,283.8 227.3,283.8 228.2,283.8 229.1,283.8 230.0,283.8 230.8,283.8 231.7,283.8 232.5,283.7 233.4,283.7 234.2,283.7 235.7,283.7 237.3,283.7 238.7,283.7 240.2,283.7 241.6,283.6 242.9,283.6 244.2,283.6 245.5,283.6 246.8,283.6 248.0,283.6 249.2,283.6 250.3,283.6 251.4,283.6 252.6,283.6 253.6,283.6 254.7,344.1 255.7,283.7 256.7,283.7 257.7,283.7 258.7,283.7 259.6,283.8 260.6,283.8 261.5,283.8 262.4,283.8 263.3,283.9 264.1,283.9 265.0,283.9 265.8,283.9 266.6,284.0 267.4,284.0 268.6,284.0 269.8,284.0 270.9,284.1 272.0,284.1 273.1,284.1 274.2,284.1 275.2,284.2 276.2,284.2 277.2,284.2 278.2,284.2 279.1,284.2 280.0,284.2 281.0,284.3 281.9,284.3 282.7,284.3 283.6,284.3 284.5,284.3 285.3,284.3 286.1,284.3 286.9,284.3 288.0,284.3 289.0,284.3 290.0,284.4 291.0,284.4 292.0,284.4 292.9,284.4 293.9,284.4 294.8,284.4 295.7,284.4 296.6,284.4 297.4,284.4 298.3,284.4 299.1,284.4 299.9,284.4 300.7,284.4 301.7,284.4 302.7,284.4 303.6,284.4 304.6,284.4 305.5,284.4 306.4,284.4 307.3,284.4 308.1,284.4 309.0,284.4 309.8,284.4 310.6,284.4 311.4,284.5 312.4,284.5 313.3,284.5 314.2,284.5 315.1,284.5 316.0,284.5 316.9,284.5 317.7,284.5 318.6,284.5 319.4,284.5 320.2,284.5 321.1,284.5 322.0,284.5 322.9,284.5 323.8,284.5 324.7,284.5 325.5,284.5 326.3,284.5 327.1,284.5 327.9,284.5 328.8,284.5 329.7,284.5 330.6,284.5 331.4,284.5 332.3,284.5 333.1,284.5 333.9,284.5 334.8,284.5 335.7,284.5 336.5,284.5 337.4,284.5 338.2,284.5 339.0,284.5 339.8,284.5 340.7,284.5 341.6,284.5 342.4,284.5 343.3,284.5 344.1,284.5 344.9,284.5 345.8,284.5 346.6,284.5 347.5,284.5 348.3,284.5 349.1,284.5 350.0,284.5 350.8,284.5 351.7,284.5 352.5,284.5 353.3,284.5 354.1,284.5 355.0,284.5 355.8,284.5 356.6,284.5 357.5,284.5 358.3,284.5 359.1,284.5 360.0,284.5 360.8,284.5 361.6,284.5 362.5,284.5 363.3,284.5 364.1,284.5 364.9,284.5 365.8,284.5 366.6,284.5 367.4,284.5 368.2,284.5 369.1,284.5 369.9,284.5 370.7,284.5 371.6,284.5 372.4,284.5 373.2,284.5 374.0,284.5 374.8,284.5 375.6,284.5 376.5,284.5 377.3,284.5 378.1,284.5 378.9,284.5 379.7,284.5 380.5,284.5 381.4,284.5 382.2,284.5 383.0,284.5 383.8,284.5 384.6,284.5 385.5,284.5 386.3,284.5 387.1,284.5 387.9,284.5 388.7,284.5 389.5,284.5 390.3,284.5 391.2,284.5 392.0,284.5 392.8,284.5 393.6,284.5 394.4,284.5 395.2,284.5 396.0,284.5 396.8,284.5 397.6,284.5 398.5,284.5 L398.5,284.5 L37.5,284.5 Z" fill="url(#g451)" clip-path="url(#c453)"/>
  <defs><clipPath id="pc454"><rect x="34" y="207" width="365" height="155"/></clipPath></defs>
  <polyline points="37.5,284.1 70.8,284.1 90.3,284.1 104.1,284.1 114.8,284.1 123.6,284.1 131.0,284.1 137.4,284.1 143.1,284.1 148.1,284.1 152.7,284.1 156.9,284.1 160.7,284.1 164.3,284.1 167.6,284.1 170.7,284.1 173.6,284.1 176.3,284.1 178.9,284.1 181.4,284.0 183.7,284.0 186.0,284.0 188.1,284.0 190.2,284.0 192.1,284.0 194.0,284.0 195.8,284.0 197.6,284.0 199.2,284.0 200.9,284.0 202.4,284.0 204.0,284.0 205.5,284.0 206.9,284.0 208.3,284.0 209.6,284.0 210.9,283.9 212.2,283.9 213.5,283.9 214.7,283.9 215.9,283.9 217.0,283.9 218.2,283.9 219.3,283.9 220.3,283.9 221.4,283.9 222.4,283.9 223.4,283.8 224.4,283.8 225.4,283.8 226.4,283.8 227.3,283.8 228.2,283.8 229.1,283.8 230.0,283.8 230.8,283.8 231.7,283.8 232.5,283.7 233.4,283.7 234.2,283.7 235.7,283.7 237.3,283.7 238.7,283.7 240.2,283.7 241.6,283.6 242.9,283.6 244.2,283.6 245.5,283.6 246.8,283.6 248.0,283.6 249.2,283.6 250.3,283.6 251.4,283.6 252.6,283.6 253.6,283.6 254.7,344.1 255.7,283.7 256.7,283.7 257.7,283.7 258.7,283.7 259.6,283.8 260.6,283.8 261.5,283.8 262.4,283.8 263.3,283.9 264.1,283.9 265.0,283.9 265.8,283.9 266.6,284.0 267.4,284.0 268.6,284.0 269.8,284.0 270.9,284.1 272.0,284.1 273.1,284.1 274.2,284.1 275.2,284.2 276.2,284.2 277.2,284.2 278.2,284.2 279.1,284.2 280.0,284.2 281.0,284.3 281.9,284.3 282.7,284.3 283.6,284.3 284.5,284.3 285.3,284.3 286.1,284.3 286.9,284.3 288.0,284.3 289.0,284.3 290.0,284.4 291.0,284.4 292.0,284.4 292.9,284.4 293.9,284.4 294.8,284.4 295.7,284.4 296.6,284.4 297.4,284.4 298.3,284.4 299.1,284.4 299.9,284.4 300.7,284.4 301.7,284.4 302.7,284.4 303.6,284.4 304.6,284.4 305.5,284.4 306.4,284.4 307.3,284.4 308.1,284.4 309.0,284.4 309.8,284.4 310.6,284.4 311.4,284.5 312.4,284.5 313.3,284.5 314.2,284.5 315.1,284.5 316.0,284.5 316.9,284.5 317.7,284.5 318.6,284.5 319.4,284.5 320.2,284.5 321.1,284.5 322.0,284.5 322.9,284.5 323.8,284.5 324.7,284.5 325.5,284.5 326.3,284.5 327.1,284.5 327.9,284.5 328.8,284.5 329.7,284.5 330.6,284.5 331.4,284.5 332.3,284.5 333.1,284.5 333.9,284.5 334.8,284.5 335.7,284.5 336.5,284.5 337.4,284.5 338.2,284.5 339.0,284.5 339.8,284.5 340.7,284.5 341.6,284.5 342.4,284.5 343.3,284.5 344.1,284.5 344.9,284.5 345.8,284.5 346.6,284.5 347.5,284.5 348.3,284.5 349.1,284.5 350.0,284.5 350.8,284.5 351.7,284.5 352.5,284.5 353.3,284.5 354.1,284.5 355.0,284.5 355.8,284.5 356.6,284.5 357.5,284.5 358.3,284.5 359.1,284.5 360.0,284.5 360.8,284.5 361.6,284.5 362.5,284.5 363.3,284.5 364.1,284.5 364.9,284.5 365.8,284.5 366.6,284.5 367.4,284.5 368.2,284.5 369.1,284.5 369.9,284.5 370.7,284.5 371.6,284.5 372.4,284.5 373.2,284.5 374.0,284.5 374.8,284.5 375.6,284.5 376.5,284.5 377.3,284.5 378.1,284.5 378.9,284.5 379.7,284.5 380.5,284.5 381.4,284.5 382.2,284.5 383.0,284.5 383.8,284.5 384.6,284.5 385.5,284.5 386.3,284.5 387.1,284.5 387.9,284.5 388.7,284.5 389.5,284.5 390.3,284.5 391.2,284.5 392.0,284.5 392.8,284.5 393.6,284.5 394.4,284.5 395.2,284.5 396.0,284.5 396.8,284.5 397.6,284.5 398.5,284.5" fill="none" stroke="#2ecc71" stroke-width="1.5" stroke-linejoin="round" clip-path="url(#pc454)"/>
  <line x1="435" y1="207" x2="435" y2="362" stroke="#d1d5db"/>
  <line x1="435" y1="284.5" x2="800" y2="284.5" stroke="#d1d5db"/>
  <text x="617.5" y="388" text-anchor="middle" font-size="9" fill="#6b7280">Samples</text>
  <text x="413" y="284.5" text-anchor="middle" font-size="9" fill="#6b7280" transform="rotate(-90 413 284.5)">Impulse response</text>
  <line x1="435.0" y1="207" x2="435.0" y2="362" stroke="#e5e7eb" stroke-width="0.5"/>
  <text x="435.0" y="374" text-anchor="middle" font-size="8" fill="#6b7280">0</text>
  <line x1="563.3" y1="207" x2="563.3" y2="362" stroke="#e5e7eb" stroke-width="0.5"/>
  <text x="563.3" y="374" text-anchor="middle" font-size="8" fill="#6b7280">90</text>
  <line x1="691.6" y1="207" x2="691.6" y2="362" stroke="#e5e7eb" stroke-width="0.5"/>
  <text x="691.6" y="374" text-anchor="middle" font-size="8" fill="#6b7280">180</text>
  <line x1="435" y1="342.6" x2="800" y2="342.6" stroke="#e5e7eb" stroke-width="0.5"/>
  <text x="431" y="345.6" text-anchor="end" font-size="8" fill="#6b7280">-0.7</text>
  <text x="431" y="287.5" text-anchor="end" font-size="8" fill="#6b7280">0</text>
  <line x1="435" y1="226.4" x2="800" y2="226.4" stroke="#e5e7eb" stroke-width="0.5"/>
  <text x="431" y="229.4" text-anchor="end" font-size="8" fill="#6b7280">0.7</text>
  <defs><linearGradient id="g455" x1="0" y1="207" x2="0" y2="284.5" gradientUnits="userSpaceOnUse">
    <stop offset="0%" stop-color="#f39c12" stop-opacity="0.15"/>
    <stop offset="100%" stop-color="#f39c12" stop-opacity="0.02"/>
  </linearGradient></defs>
  <defs><linearGradient id="g456" x1="0" y1="362" x2="0" y2="284.5" gradientUnits="userSpaceOnUse">
    <stop offset="0%" stop-color="#f39c12" stop-opacity="0.15"/>
    <stop offset="100%" stop-color="#f39c12" stop-opacity="0.02"/>
  </linearGradient></defs>
  <defs><clipPath id="c457"><rect x="435" y="207" width="365" height="77.5"/></clipPath></defs>
  <defs><clipPath id="c458"><rect x="435" y="284.5" width="365" height="77.5"/></clipPath></defs>
  <path d="M435.0,207.0 435.0,207.0 436.4,294.7 437.9,293.0 439.3,291.4 440.7,289.9 442.1,288.5 443.6,287.2 445.0,286.0 446.4,285.0 447.8,284.1 449.3,283.3 450.7,282.6 452.1,282.1 453.5,281.6 455.0,281.3 456.4,281.1 457.8,281.0 459.2,281.0 460.7,281.0 462.1,281.1 463.5,281.2 464.9,281.4 466.4,281.7 467.8,281.9 469.2,282.2 470.6,282.4 472.1,282.7 473.5,283.0 474.9,283.3 476.3,283.5 477.8,283.7 479.2,284.0 480.6,284.2 482.1,284.4 483.5,284.5 484.9,284.6 486.3,284.8 487.8,284.9 489.2,284.9 490.6,285.0 492.0,285.0 493.5,285.1 494.9,285.1 496.3,285.1 497.7,285.1 499.2,285.0 500.6,285.0 502.0,285.0 503.4,284.9 504.9,284.9 506.3,284.9 507.7,284.8 509.1,284.8 510.6,284.7 512.0,284.7 513.4,284.6 514.8,284.6 516.3,284.6 517.7,284.5 519.1,284.5 520.5,284.5 522.0,284.5 523.4,284.4 524.8,284.4 526.3,284.4 527.7,284.4 529.1,284.4 530.5,284.4 532.0,284.4 533.4,284.4 534.8,284.4 536.2,284.4 537.7,284.4 539.1,284.4 540.5,284.4 541.9,284.4 543.4,284.4 544.8,284.5 546.2,284.5 547.6,284.5 549.1,284.5 550.5,284.5 551.9,284.5 553.3,284.5 554.8,284.5 556.2,284.5 557.6,284.5 559.0,284.5 560.5,284.5 561.9,284.5 563.3,284.5 564.7,284.5 566.2,284.5 567.6,284.5 569.0,284.5 570.4,284.5 571.9,284.5 573.3,284.5 574.7,284.5 576.2,284.5 577.6,284.5 579.0,284.5 580.4,284.5 581.9,284.5 583.3,284.5 584.7,284.5 586.1,284.5 587.6,284.5 589.0,284.5 590.4,284.5 591.8,284.5 593.3,284.5 594.7,284.5 596.1,284.5 597.5,284.5 599.0,284.5 600.4,284.5 601.8,284.5 603.2,284.5 604.7,284.5 606.1,284.5 607.5,284.5 608.9,284.5 610.4,284.5 611.8,284.5 613.2,284.5 614.6,284.5 616.1,284.5 617.5,284.5 618.9,284.5 620.4,284.5 621.8,284.5 623.2,284.5 624.6,284.5 626.1,284.5 627.5,284.5 628.9,284.5 630.3,284.5 631.8,284.5 633.2,284.5 634.6,284.5 636.0,284.5 637.5,284.5 638.9,284.5 640.3,284.5 641.7,284.5 643.2,284.5 644.6,284.5 646.0,284.5 647.4,284.5 648.9,284.5 650.3,284.5 651.7,284.5 653.1,284.5 654.6,284.5 656.0,284.5 657.4,284.5 658.8,284.5 660.3,284.5 661.7,284.5 663.1,284.5 664.6,284.5 666.0,284.5 667.4,284.5 668.8,284.5 670.3,284.5 671.7,284.5 673.1,284.5 674.5,284.5 676.0,284.5 677.4,284.5 678.8,284.5 680.2,284.5 681.7,284.5 683.1,284.5 684.5,284.5 685.9,284.5 687.4,284.5 688.8,284.5 690.2,284.5 691.6,284.5 693.1,284.5 694.5,284.5 695.9,284.5 697.3,284.5 698.8,284.5 700.2,284.5 701.6,284.5 703.0,284.5 704.5,284.5 705.9,284.5 707.3,284.5 708.8,284.5 710.2,284.5 711.6,284.5 713.0,284.5 714.5,284.5 715.9,284.5 717.3,284.5 718.7,284.5 720.2,284.5 721.6,284.5 723.0,284.5 724.4,284.5 725.9,284.5 727.3,284.5 728.7,284.5 730.1,284.5 731.6,284.5 733.0,284.5 734.4,284.5 735.8,284.5 737.3,284.5 738.7,284.5 740.1,284.5 741.5,284.5 743.0,284.5 744.4,284.5 745.8,284.5 747.2,284.5 748.7,284.5 750.1,284.5 751.5,284.5 752.9,284.5 754.4,284.5 755.8,284.5 757.2,284.5 758.7,284.5 760.1,284.5 761.5,284.5 762.9,284.5 764.4,284.5 765.8,284.5 767.2,284.5 768.6,284.5 770.1,284.5 771.5,284.5 772.9,284.5 774.3,284.5 775.8,284.5 777.2,284.5 778.6,284.5 780.0,284.5 781.5,284.5 782.9,284.5 784.3,284.5 785.7,284.5 787.2,284.5 788.6,284.5 790.0,284.5 791.4,284.5 792.9,284.5 794.3,284.5 795.7,284.5 797.1,284.5 798.6,284.5 L798.6,284.5 L435.0,284.5 Z" fill="url(#g455)" clip-path="url(#c457)"/>
  <path d="M435.0,207.0 435.0,207.0 436.4,294.7 437.9,293.0 439.3,291.4 440.7,289.9 442.1,288.5 443.6,287.2 445.0,286.0 446.4,285.0 447.8,284.1 449.3,283.3 450.7,282.6 452.1,282.1 453.5,281.6 455.0,281.3 456.4,281.1 457.8,281.0 459.2,281.0 460.7,281.0 462.1,281.1 463.5,281.2 464.9,281.4 466.4,281.7 467.8,281.9 469.2,282.2 470.6,282.4 472.1,282.7 473.5,283.0 474.9,283.3 476.3,283.5 477.8,283.7 479.2,284.0 480.6,284.2 482.1,284.4 483.5,284.5 484.9,284.6 486.3,284.8 487.8,284.9 489.2,284.9 490.6,285.0 492.0,285.0 493.5,285.1 494.9,285.1 496.3,285.1 497.7,285.1 499.2,285.0 500.6,285.0 502.0,285.0 503.4,284.9 504.9,284.9 506.3,284.9 507.7,284.8 509.1,284.8 510.6,284.7 512.0,284.7 513.4,284.6 514.8,284.6 516.3,284.6 517.7,284.5 519.1,284.5 520.5,284.5 522.0,284.5 523.4,284.4 524.8,284.4 526.3,284.4 527.7,284.4 529.1,284.4 530.5,284.4 532.0,284.4 533.4,284.4 534.8,284.4 536.2,284.4 537.7,284.4 539.1,284.4 540.5,284.4 541.9,284.4 543.4,284.4 544.8,284.5 546.2,284.5 547.6,284.5 549.1,284.5 550.5,284.5 551.9,284.5 553.3,284.5 554.8,284.5 556.2,284.5 557.6,284.5 559.0,284.5 560.5,284.5 561.9,284.5 563.3,284.5 564.7,284.5 566.2,284.5 567.6,284.5 569.0,284.5 570.4,284.5 571.9,284.5 573.3,284.5 574.7,284.5 576.2,284.5 577.6,284.5 579.0,284.5 580.4,284.5 581.9,284.5 583.3,284.5 584.7,284.5 586.1,284.5 587.6,284.5 589.0,284.5 590.4,284.5 591.8,284.5 593.3,284.5 594.7,284.5 596.1,284.5 597.5,284.5 599.0,284.5 600.4,284.5 601.8,284.5 603.2,284.5 604.7,284.5 606.1,284.5 607.5,284.5 608.9,284.5 610.4,284.5 611.8,284.5 613.2,284.5 614.6,284.5 616.1,284.5 617.5,284.5 618.9,284.5 620.4,284.5 621.8,284.5 623.2,284.5 624.6,284.5 626.1,284.5 627.5,284.5 628.9,284.5 630.3,284.5 631.8,284.5 633.2,284.5 634.6,284.5 636.0,284.5 637.5,284.5 638.9,284.5 640.3,284.5 641.7,284.5 643.2,284.5 644.6,284.5 646.0,284.5 647.4,284.5 648.9,284.5 650.3,284.5 651.7,284.5 653.1,284.5 654.6,284.5 656.0,284.5 657.4,284.5 658.8,284.5 660.3,284.5 661.7,284.5 663.1,284.5 664.6,284.5 666.0,284.5 667.4,284.5 668.8,284.5 670.3,284.5 671.7,284.5 673.1,284.5 674.5,284.5 676.0,284.5 677.4,284.5 678.8,284.5 680.2,284.5 681.7,284.5 683.1,284.5 684.5,284.5 685.9,284.5 687.4,284.5 688.8,284.5 690.2,284.5 691.6,284.5 693.1,284.5 694.5,284.5 695.9,284.5 697.3,284.5 698.8,284.5 700.2,284.5 701.6,284.5 703.0,284.5 704.5,284.5 705.9,284.5 707.3,284.5 708.8,284.5 710.2,284.5 711.6,284.5 713.0,284.5 714.5,284.5 715.9,284.5 717.3,284.5 718.7,284.5 720.2,284.5 721.6,284.5 723.0,284.5 724.4,284.5 725.9,284.5 727.3,284.5 728.7,284.5 730.1,284.5 731.6,284.5 733.0,284.5 734.4,284.5 735.8,284.5 737.3,284.5 738.7,284.5 740.1,284.5 741.5,284.5 743.0,284.5 744.4,284.5 745.8,284.5 747.2,284.5 748.7,284.5 750.1,284.5 751.5,284.5 752.9,284.5 754.4,284.5 755.8,284.5 757.2,284.5 758.7,284.5 760.1,284.5 761.5,284.5 762.9,284.5 764.4,284.5 765.8,284.5 767.2,284.5 768.6,284.5 770.1,284.5 771.5,284.5 772.9,284.5 774.3,284.5 775.8,284.5 777.2,284.5 778.6,284.5 780.0,284.5 781.5,284.5 782.9,284.5 784.3,284.5 785.7,284.5 787.2,284.5 788.6,284.5 790.0,284.5 791.4,284.5 792.9,284.5 794.3,284.5 795.7,284.5 797.1,284.5 798.6,284.5 L798.6,284.5 L435.0,284.5 Z" fill="url(#g456)" clip-path="url(#c458)"/>
  <defs><clipPath id="pc459"><rect x="435" y="207" width="365" height="155"/></clipPath></defs>
  <polyline points="435.0,207.0 436.4,294.7 437.9,293.0 439.3,291.4 440.7,289.9 442.1,288.5 443.6,287.2 445.0,286.0 446.4,285.0 447.8,284.1 449.3,283.3 450.7,282.6 452.1,282.1 453.5,281.6 455.0,281.3 456.4,281.1 457.8,281.0 459.2,281.0 460.7,281.0 462.1,281.1 463.5,281.2 464.9,281.4 466.4,281.7 467.8,281.9 469.2,282.2 470.6,282.4 472.1,282.7 473.5,283.0 474.9,283.3 476.3,283.5 477.8,283.7 479.2,284.0 480.6,284.2 482.1,284.4 483.5,284.5 484.9,284.6 486.3,284.8 487.8,284.9 489.2,284.9 490.6,285.0 492.0,285.0 493.5,285.1 494.9,285.1 496.3,285.1 497.7,285.1 499.2,285.0 500.6,285.0 502.0,285.0 503.4,284.9 504.9,284.9 506.3,284.9 507.7,284.8 509.1,284.8 510.6,284.7 512.0,284.7 513.4,284.6 514.8,284.6 516.3,284.6 517.7,284.5 519.1,284.5 520.5,284.5 522.0,284.5 523.4,284.4 524.8,284.4 526.3,284.4 527.7,284.4 529.1,284.4 530.5,284.4 532.0,284.4 533.4,284.4 534.8,284.4 536.2,284.4 537.7,284.4 539.1,284.4 540.5,284.4 541.9,284.4 543.4,284.4 544.8,284.5 546.2,284.5 547.6,284.5 549.1,284.5 550.5,284.5 551.9,284.5 553.3,284.5 554.8,284.5 556.2,284.5 557.6,284.5 559.0,284.5 560.5,284.5 561.9,284.5 563.3,284.5 564.7,284.5 566.2,284.5 567.6,284.5 569.0,284.5 570.4,284.5 571.9,284.5 573.3,284.5 574.7,284.5 576.2,284.5 577.6,284.5 579.0,284.5 580.4,284.5 581.9,284.5 583.3,284.5 584.7,284.5 586.1,284.5 587.6,284.5 589.0,284.5 590.4,284.5 591.8,284.5 593.3,284.5 594.7,284.5 596.1,284.5 597.5,284.5 599.0,284.5 600.4,284.5 601.8,284.5 603.2,284.5 604.7,284.5 606.1,284.5 607.5,284.5 608.9,284.5 610.4,284.5 611.8,284.5 613.2,284.5 614.6,284.5 616.1,284.5 617.5,284.5 618.9,284.5 620.4,284.5 621.8,284.5 623.2,284.5 624.6,284.5 626.1,284.5 627.5,284.5 628.9,284.5 630.3,284.5 631.8,284.5 633.2,284.5 634.6,284.5 636.0,284.5 637.5,284.5 638.9,284.5 640.3,284.5 641.7,284.5 643.2,284.5 644.6,284.5 646.0,284.5 647.4,284.5 648.9,284.5 650.3,284.5 651.7,284.5 653.1,284.5 654.6,284.5 656.0,284.5 657.4,284.5 658.8,284.5 660.3,284.5 661.7,284.5 663.1,284.5 664.6,284.5 666.0,284.5 667.4,284.5 668.8,284.5 670.3,284.5 671.7,284.5 673.1,284.5 674.5,284.5 676.0,284.5 677.4,284.5 678.8,284.5 680.2,284.5 681.7,284.5 683.1,284.5 684.5,284.5 685.9,284.5 687.4,284.5 688.8,284.5 690.2,284.5 691.6,284.5 693.1,284.5 694.5,284.5 695.9,284.5 697.3,284.5 698.8,284.5 700.2,284.5 701.6,284.5 703.0,284.5 704.5,284.5 705.9,284.5 707.3,284.5 708.8,284.5 710.2,284.5 711.6,284.5 713.0,284.5 714.5,284.5 715.9,284.5 717.3,284.5 718.7,284.5 720.2,284.5 721.6,284.5 723.0,284.5 724.4,284.5 725.9,284.5 727.3,284.5 728.7,284.5 730.1,284.5 731.6,284.5 733.0,284.5 734.4,284.5 735.8,284.5 737.3,284.5 738.7,284.5 740.1,284.5 741.5,284.5 743.0,284.5 744.4,284.5 745.8,284.5 747.2,284.5 748.7,284.5 750.1,284.5 751.5,284.5 752.9,284.5 754.4,284.5 755.8,284.5 757.2,284.5 758.7,284.5 760.1,284.5 761.5,284.5 762.9,284.5 764.4,284.5 765.8,284.5 767.2,284.5 768.6,284.5 770.1,284.5 771.5,284.5 772.9,284.5 774.3,284.5 775.8,284.5 777.2,284.5 778.6,284.5 780.0,284.5 781.5,284.5 782.9,284.5 784.3,284.5 785.7,284.5 787.2,284.5 788.6,284.5 790.0,284.5 791.4,284.5 792.9,284.5 794.3,284.5 795.7,284.5 797.1,284.5 798.6,284.5" fill="none" stroke="#f39c12" stroke-width="1.3" stroke-linejoin="round" clip-path="url(#pc459)"/>
</svg>
