<svg xmlns="http://www.w3.org/2000/svg" viewBox="0 0 820 378" style="font-family:system-ui,-apple-system,sans-serif">
  <text x="800" y="11" text-anchor="end" font-size="11" font-weight="600" fill="#6b7280">Thiran allpass delay, d=3.5</text>
  <line x1="34" y1="16" x2="34" y2="171" stroke="#d1d5db"/>
  <line x1="34" y1="47.0" x2="399" y2="47.0" stroke="#d1d5db"/>
  <text x="216.5" y="197" text-anchor="middle" font-size="9" fill="#6b7280">Hz</text>
  <text x="12" y="93.5" text-anchor="middle" font-size="9" fill="#6b7280" transform="rotate(-90 12 93.5)">dB</text>
  <line x1="67.3" y1="16" x2="67.3" y2="171" stroke="#e5e7eb" stroke-width="0.5"/>
  <line x1="86.8" y1="16" x2="86.8" y2="171" stroke="#e5e7eb" stroke-width="0.5"/>
  <line x1="100.6" y1="16" x2="100.6" y2="171" stroke="#e5e7eb" stroke-width="0.5"/>
  <line x1="111.3" y1="16" x2="111.3" y2="171" stroke="#e5e7eb" stroke-width="0.5"/>
  <line x1="120.0" y1="16" x2="120.0" y2="171" stroke="#e5e7eb" stroke-width="0.5"/>
  <line x1="127.4" y1="16" x2="127.4" y2="171" stroke="#e5e7eb" stroke-width="0.5"/>
  <line x1="133.9" y1="16" x2="133.9" y2="171" stroke="#e5e7eb" stroke-width="0.5"/>
  <line x1="139.5" y1="16" x2="139.5" y2="171" stroke="#e5e7eb" stroke-width="0.5"/>
  <line x1="177.9" y1="16" x2="177.9" y2="171" stroke="#e5e7eb" stroke-width="0.5"/>
  <line x1="197.3" y1="16" x2="197.3" y2="171" stroke="#e5e7eb" stroke-width="0.5"/>
  <line x1="211.1" y1="16" x2="211.1" y2="171" stroke="#e5e7eb" stroke-width="0.5"/>
  <line x1="221.9" y1="16" x2="221.9" y2="171" stroke="#e5e7eb" stroke-width="0.5"/>
  <line x1="230.6" y1="16" x2="230.6" y2="171" stroke="#e5e7eb" stroke-width="0.5"/>
  <line x1="238.0" y1="16" x2="238.0" y2="171" stroke="#e5e7eb" stroke-width="0.5"/>
  <line x1="244.4" y1="16" x2="244.4" y2="171" stroke="#e5e7eb" stroke-width="0.5"/>
  <line x1="250.1" y1="16" x2="250.1" y2="171" stroke="#e5e7eb" stroke-width="0.5"/>
  <line x1="288.4" y1="16" x2="288.4" y2="171" stroke="#e5e7eb" stroke-width="0.5"/>
  <line x1="307.9" y1="16" x2="307.9" y2="171" stroke="#e5e7eb" stroke-width="0.5"/>
  <line x1="321.7" y1="16" x2="321.7" y2="171" stroke="#e5e7eb" stroke-width="0.5"/>
  <line x1="332.4" y1="16" x2="332.4" y2="171" stroke="#e5e7eb" stroke-width="0.5"/>
  <line x1="341.2" y1="16" x2="341.2" y2="171" stroke="#e5e7eb" stroke-width="0.5"/>
  <line x1="348.6" y1="16" x2="348.6" y2="171" stroke="#e5e7eb" stroke-width="0.5"/>
  <line x1="355.0" y1="16" x2="355.0" y2="171" stroke="#e5e7eb" stroke-width="0.5"/>
  <line x1="360.7" y1="16" x2="360.7" y2="171" stroke="#e5e7eb" stroke-width="0.5"/>
  <line x1="399.0" y1="16" x2="399.0" y2="171" stroke="#e5e7eb" stroke-width="0.5"/>
  <line x1="144.6" y1="16" x2="144.6" y2="171" stroke="#e5e7eb" stroke-width="0.5"/>
  <text x="144.6" y="183" text-anchor="middle" font-size="8" fill="#6b7280">100</text>
  <line x1="255.1" y1="16" x2="255.1" y2="171" stroke="#e5e7eb" stroke-width="0.5"/>
  <text x="255.1" y="183" text-anchor="middle" font-size="8" fill="#6b7280">1k</text>
  <line x1="365.7" y1="16" x2="365.7" y2="171" stroke="#e5e7eb" stroke-width="0.5"/>
  <text x="365.7" y="183" text-anchor="middle" font-size="8" fill="#6b7280">10k</text>
  <line x1="34" y1="31.5" x2="399" y2="31.5" stroke="#e5e7eb" stroke-width="0.5"/>
  <line x1="34" y1="62.5" x2="399" y2="62.5" stroke="#e5e7eb" stroke-width="0.5"/>
  <line x1="34" y1="16.0" x2="399" y2="16.0" stroke="#e5e7eb" stroke-width="0.5"/>
  <text x="30" y="19.0" text-anchor="end" font-size="8" fill="#6b7280">+20</text>
  <text x="30" y="50.0" text-anchor="end" font-size="8" fill="#6b7280">0</text>
  <line x1="34" y1="78.0" x2="399" y2="78.0" stroke="#e5e7eb" stroke-width="0.5"/>
  <text x="30" y="81.0" text-anchor="end" font-size="8" fill="#6b7280">-20</text>
  <line x1="34" y1="109.0" x2="399" y2="109.0" stroke="#e5e7eb" stroke-width="0.5"/>
  <text x="30" y="112.0" text-anchor="end" font-size="8" fill="#6b7280">-40</text>
  <line x1="34" y1="140.0" x2="399" y2="140.0" stroke="#e5e7eb" stroke-width="0.5"/>
  <text x="30" y="143.0" text-anchor="end" font-size="8" fill="#6b7280">-60</text>
  <line x1="34" y1="171.0" x2="399" y2="171.0" stroke="#e5e7eb" stroke-width="0.5"/>
  <text x="30" y="174.0" text-anchor="end" font-size="8" fill="#6b7280">-80</text>
  <defs><linearGradient id="g678" x1="0" y1="16" x2="0" y2="171" gradientUnits="userSpaceOnUse">
    <stop offset="0%" stop-color="#4a90d9" stop-opacity="0.15"/>
    <stop offset="100%" stop-color="#4a90d9" stop-opacity="0.02"/>
  </linearGradient></defs>
  <path d="M37.5,47.0 37.5,47.0 70.8,47.0 90.3,47.0 104.1,47.0 114.8,47.0 123.6,47.0 131.0,47.0 137.4,47.0 143.1,47.0 148.1,47.0 152.7,47.0 156.9,47.0 160.7,47.0 164.3,47.0 167.6,47.0 170.7,47.0 173.6,47.0 176.3,47.0 178.9,47.0 181.4,47.0 183.7,47.0 186.0,47.0 188.1,47.0 190.2,47.0 192.1,47.0 194.0,47.0 195.8,47.0 197.6,47.0 199.2,47.0 200.9,47.0 202.4,47.0 204.0,47.0 205.5,47.0 206.9,47.0 208.3,47.0 209.6,47.0 210.9,47.0 212.2,47.0 213.5,47.0 214.7,47.0 215.9,47.0 217.0,47.0 218.2,47.0 219.3,47.0 220.3,47.0 221.4,47.0 222.4,47.0 223.4,47.0 224.4,47.0 225.4,47.0 226.4,47.0 227.3,47.0 228.2,47.0 229.1,47.0 230.0,47.0 230.8,47.0 231.7,47.0 232.5,47.0 233.4,47.0 234.2,47.0 235.7,47.0 237.3,47.0 238.7,47.0 240.2,47.0 241.6,47.0 242.9,47.0 244.2,47.0 245.5,47.0 246.8,47.0 248.0,47.0 249.2,47.0 250.3,47.0 251.4,47.0 252.6,47.0 253.6,47.0 254.7,47.0 255.7,47.0 256.7,47.0 257.7,47.0 258.7,47.0 259.6,47.0 260.6,47.0 261.5,47.0 262.4,47.0 263.3,47.0 264.1,47.0 265.0,47.0 265.8,47.0 266.6,47.0 267.4,47.0 268.6,47.0 269.8,47.0 270.9,47.0 272.0,47.0 273.1,47.0 274.2,47.0 275.2,47.0 276.2,47.0 277.2,47.0 278.2,47.0 279.1,47.0 280.0,47.0 281.0,47.0 281.9,47.0 282.7,47.0 283.6,47.0 284.5,47.0 285.3,47.0 286.1,47.0 286.9,47.0 288.0,47.0 289.0,47.0 290.0,47.0 291.0,47.0 292.0,47.0 292.9,47.0 293.9,47.0 294.8,47.0 295.7,47.0 296.6,47.0 297.4,47.0 298.3,47.0 299.1,47.0 299.9,47.0 300.7,47.0 301.7,47.0 302.7,47.0 303.6,47.0 304.6,47.0 305.5,47.0 306.4,47.0 307.3,47.0 308.1,47.0 309.0,47.0 309.8,47.0 310.6,47.0 311.4,47.0 312.4,47.0 313.3,47.0 314.2,47.0 315.1,47.0 316.0,47.0 316.9,47.0 317.7,47.0 318.6,47.0 319.4,47.0 320.2,47.0 321.1,47.0 322.0,47.0 322.9,47.0 323.8,47.0 324.7,47.0 325.5,47.0 326.3,47.0 327.1,47.0 327.9,47.0 328.8,47.0 329.7,47.0 330.6,47.0 331.4,47.0 332.3,47.0 333.1,47.0 333.9,47.0 334.8,47.0 335.7,47.0 336.5,47.0 337.4,47.0 338.2,47.0 339.0,47.0 339.8,47.0 340.7,47.0 341.6,47.0 342.4,47.0 343.3,47.0 344.1,47.0 344.9,47.0 345.8,47.0 346.6,47.0 347.5,47.0 348.3,47.0 349.1,47.0 350.0,47.0 350.8,47.0 351.7,47.0 352.5,47.0 353.3,47.0 354.1,47.0 355.0,47.0 355.8,47.0 356.6,47.0 357.5,47.0 358.3,47.0 359.1,47.0 360.0,47.0 360.8,47.0 361.6,47.0 362.5,47.0 363.3,47.0 364.1,47.0 364.9,47.0 365.8,47.0 366.6,47.0 367.4,47.0 368.2,47.0 369.1,47.0 369.9,47.0 370.7,47.0 371.6,47.0 372.4,47.0 373.2,47.0 374.0,47.0 374.8,47.0 375.6,47.0 376.5,47.0 377.3,47.0 378.1,47.0 378.9,47.0 379.7,47.0 380.5,47.0 381.4,47.0 382.2,47.0 383.0,47.0 383.8,47.0 384.6,47.0 385.5,47.0 386.3,47.0 387.1,47.0 387.9,47.0 388.7,47.0 389.5,47.0 390.3,47.0 391.2,47.0 392.0,47.0 392.8,47.0 393.6,47.0 394.4,47.0 395.2,47.0 396.0,47.0 396.8,47.0 397.6,47.0 398.5,47.0 L398.5,171.0 L37.5,171.0 Z" fill="url(#g678)"/>
  <defs><clipPath id="pc679"><rect x="34" y="16" width="365" height="155"/></clipPath></defs>
  <polyline points="37.5,47.0 70.8,47.0 90.3,47.0 104.1,47.0 114.8,47.0 123.6,47.0 131.0,47.0 137.4,47.0 143.1,47.0 148.1,47.0 152.7,47.0 156.9,47.0 160.7,47.0 164.3,47.0 167.6,47.0 170.7,47.0 173.6,47.0 176.3,47.0 178.9,47.0 181.4,47.0 183.7,47.0 186.0,47.0 188.1,47.0 190.2,47.0 192.1,47.0 194.0,47.0 195.8,47.0 197.6,47.0 199.2,47.0 200.9,47.0 202.4,47.0 204.0,47.0 205.5,47.0 206.9,47.0 208.3,47.0 209.6,47.0 210.9,47.0 212.2,47.0 213.5,47.0 214.7,47.0 215.9,47.0 217.0,47.0 218.2,47.0 219.3,47.0 220.3,47.0 221.4,47.0 222.4,47.0 223.4,47.0 224.4,47.0 225.4,47.0 226.4,47.0 227.3,47.0 228.2,47.0 229.1,47.0 230.0,47.0 230.8,47.0 231.7,47.0 232.5,47.0 233.4,47.0 234.2,47.0 235.7,47.0 237.3,47.0 238.7,47.0 240.2,47.0 241.6,47.0 242.9,47.0 244.2,47.0 245.5,47.0 246.8,47.0 248.0,47.0 249.2,47.0 250.3,47.0 251.4,47.0 252.6,47.0 253.6,47.0 254.7,47.0 255.7,47.0 256.7,47.0 257.7,47.0 258.7,47.0 259.6,47.0 260.6,47.0 261.5,47.0 262.4,47.0 263.3,47.0 264.1,47.0 265.0,47.0 265.8,47.0 266.6,47.0 267.4,47.0 268.6,47.0 269.8,47.0 270.9,47.0 272.0,47.0 273.1,47.0 274.2,47.0 275.2,47.0 276.2,47.0 277.2,47.0 278.2,47.0 279.1,47.0 280.0,47.0 281.0,47.0 281.9,47.0 282.7,47.0 283.6,47.0 284.5,47.0 285.3,47.0 286.1,47.0 286.9,47.0 288.0,47.0 289.0,47.0 290.0,47.0 291.0,47.0 292.0,47.0 292.9,47.0 293.9,47.0 294.8,47.0 295.7,47.0 296.6,47.0 297.4,47.0 298.3,47.0 299.1,47.0 299.9,47.0 300.7,47.0 301.7,47.0 302.7,47.0 303.6,47.0 304.6,47.0 305.5,47.0 306.4,47.0 307.3,47.0 308.1,47.0 309.0,47.0 309.8,47.0 310.6,47.0 311.4,47.0 312.4,47.0 313.3,47.0 314.2,47.0 315.1,47.0 316.0,47.0 316.9,47.0 317.7,47.0 318.6,47.0 319.4,47.0 320.2,47.0 321.1,47.0 322.0,47.0 322.9,47.0 323.8,47.0 324.7,47.0 325.5,47.0 326.3,47.0 327.1,47.0 327.9,47.0 328.8,47.0 329.7,47.0 330.6,47.0 331.4,47.0 332.3,47.0 333.1,47.0 333.9,47.0 334.8,47.0 335.7,47.0 336.5,47.0 337.4,47.0 338.2,47.0 339.0,47.0 339.8,47.0 340.7,47.0 341.6,47.0 342.4,47.0 343.3,47.0 344.1,47.0 344.9,47.0 345.8,47.0 346.6,47.0 347.5,47.0 348.3,47.0 349.1,47.0 350.0,47.0 350.8,47.0 351.7,47.0 352.5,47.0 353.3,47.0 354.1,47.0 355.0,47.0 355.8,47.0 356.6,47.0 357.5,47.0 358.3,47.0 359.1,47.0 360.0,47.0 360.8,47.0 361.6,47.0 362.5,47.0 363.3,47.0 364.1,47.0 364.9,47.0 365.8,47.0 366.6,47.0 367.4,47.0 368.2,47.0 369.1,47.0 369.9,47.0 370.7,47.0 371.6,47.0 372.4,47.0 373.2,47.0 374.0,47.0 374.8,47.0 375.6,47.0 376.5,47.0 377.3,47.0 378.1,47.0 378.9,47.0 379.7,47.0 380.5,47.0 381.4,47.0 382.2,47.0 383.0,47.0 383.8,47.0 384.6,47.0 385.5,47.0 386.3,47.0 387.1,47.0 387.9,47.0 388.7,47.0 389.5,47.0 390.3,47.0 391.2,47.0 392.0,47.0 392.8,47.0 393.6,47.0 394.4,47.0 395.2,47.0 396.0,47.0 396.8,47.0 397.6,47.0 398.5,47.0" fill="none" stroke="#4a90d9" stroke-width="1.5" stroke-linejoin="round" clip-path="url(#pc679)"/>
  <line x1="435" y1="16" x2="435" y2="171" stroke="#d1d5db"/>
  <line x1="435" y1="93.5" x2="800" y2="93.5" stroke="#d1d5db"/>
  <text x="617.5" y="197" text-anchor="middle" font-size="9" fill="#6b7280">Hz</text>
  <text x="413" y="93.5" text-anchor="middle" font-size="9" fill="#6b7280" transform="rotate(-90 413 93.5)">Phase (deg)</text>
  <line x1="468.3" y1="16" x2="468.3" y2="171" stroke="#e5e7eb" stroke-width="0.5"/>
  <line x1="487.8" y1="16" x2="487.8" y2="171" stroke="#e5e7eb" stroke-width="0.5"/>
  <line x1="501.6" y1="16" x2="501.6" y2="171" stroke="#e5e7eb" stroke-width="0.5"/>
  <line x1="512.3" y1="16" x2="512.3" y2="171" stroke="#e5e7eb" stroke-width="0.5"/>
  <line x1="521.0" y1="16" x2="521.0" y2="171" stroke="#e5e7eb" stroke-width="0.5"/>
  <line x1="528.4" y1="16" x2="528.4" y2="171" stroke="#e5e7eb" stroke-width="0.5"/>
  <line x1="534.9" y1="16" x2="534.9" y2="171" stroke="#e5e7eb" stroke-width="0.5"/>
  <line x1="540.5" y1="16" x2="540.5" y2="171" stroke="#e5e7eb" stroke-width="0.5"/>
  <line x1="578.9" y1="16" x2="578.9" y2="171" stroke="#e5e7eb" stroke-width="0.5"/>
  <line x1="598.3" y1="16" x2="598.3" y2="171" stroke="#e5e7eb" stroke-width="0.5"/>
  <line x1="612.1" y1="16" x2="612.1" y2="171" stroke="#e5e7eb" stroke-width="0.5"/>
  <line x1="622.9" y1="16" x2="622.9" y2="171" stroke="#e5e7eb" stroke-width="0.5"/>
  <line x1="631.6" y1="16" x2="631.6" y2="171" stroke="#e5e7eb" stroke-width="0.5"/>
  <line x1="639.0" y1="16" x2="639.0" y2="171" stroke="#e5e7eb" stroke-width="0.5"/>
  <line x1="645.4" y1="16" x2="645.4" y2="171" stroke="#e5e7eb" stroke-width="0.5"/>
  <line x1="651.1" y1="16" x2="651.1" y2="171" stroke="#e5e7eb" stroke-width="0.5"/>
  <line x1="689.4" y1="16" x2="689.4" y2="171" stroke="#e5e7eb" stroke-width="0.5"/>
  <line x1="708.9" y1="16" x2="708.9" y2="171" stroke="#e5e7eb" stroke-width="0.5"/>
  <line x1="722.7" y1="16" x2="722.7" y2="171" stroke="#e5e7eb" stroke-width="0.5"/>
  <line x1="733.4" y1="16" x2="733.4" y2="171" stroke="#e5e7eb" stroke-width="0.5"/>
  <line x1="742.2" y1="16" x2="742.2" y2="171" stroke="#e5e7eb" stroke-width="0.5"/>
  <line x1="749.6" y1="16" x2="749.6" y2="171" stroke="#e5e7eb" stroke-width="0.5"/>
  <line x1="756.0" y1="16" x2="756.0" y2="171" stroke="#e5e7eb" stroke-width="0.5"/>
  <line x1="761.7" y1="16" x2="761.7" y2="171" stroke="#e5e7eb" stroke-width="0.5"/>
  <line x1="800.0" y1="16" x2="800.0" y2="171" stroke="#e5e7eb" stroke-width="0.5"/>
  <line x1="545.6" y1="16" x2="545.6" y2="171" stroke="#e5e7eb" stroke-width="0.5"/>
  <text x="545.6" y="183" text-anchor="middle" font-size="8" fill="#6b7280">100</text>
  <line x1="656.1" y1="16" x2="656.1" y2="171" stroke="#e5e7eb" stroke-width="0.5"/>
  <text x="656.1" y="183" text-anchor="middle" font-size="8" fill="#6b7280">1k</text>
  <line x1="766.7" y1="16" x2="766.7" y2="171" stroke="#e5e7eb" stroke-width="0.5"/>
  <text x="766.7" y="183" text-anchor="middle" font-size="8" fill="#6b7280">10k</text>
  <line x1="435" y1="58.6" x2="800" y2="58.6" stroke="#e5e7eb" stroke-width="0.5"/>
  <line x1="435" y1="128.4" x2="800" y2="128.4" stroke="#e5e7eb" stroke-width="0.5"/>
  <line x1="435" y1="23.8" x2="800" y2="23.8" stroke="#e5e7eb" stroke-width="0.5"/>
  <text x="431" y="26.8" text-anchor="end" font-size="8" fill="#6b7280">180</text>
  <text x="431" y="96.5" text-anchor="end" font-size="8" fill="#6b7280">0</text>
  <line x1="435" y1="163.3" x2="800" y2="163.3" stroke="#e5e7eb" stroke-width="0.5"/>
  <text x="431" y="166.3" text-anchor="end" font-size="8" fill="#6b7280">-180</text>
  <defs><linearGradient id="g680" x1="0" y1="16" x2="0" y2="93.5" gradientUnits="userSpaceOnUse">
    <stop offset="0%" stop-color="#e74c3c" stop-opacity="0.15"/>
    <stop offset="100%" stop-color="#e74c3c" stop-opacity="0.02"/>
  </linearGradient></defs>
  <defs><linearGradient id="g681" x1="0" y1="171" x2="0" y2="93.5" gradientUnits="userSpaceOnUse">
    <stop offset="0%" stop-color="#e74c3c" stop-opacity="0.15"/>
    <stop offset="100%" stop-color="#e74c3c" stop-opacity="0.02"/>
  </linearGradient></defs>
  <defs><clipPath id="c682"><rect x="435" y="16" width="365" height="77.5"/></clipPath></defs>
  <defs><clipPath id="c683"><rect x="435" y="93.5" width="365" height="77.5"/></clipPath></defs>
  <path d="M438.5,93.6 438.5,93.6 471.8,93.7 491.3,93.9 505.1,94.0 515.8,94.1 524.6,94.2 532.0,94.3 538.4,94.5 544.1,94.6 549.1,94.7 553.7,94.8 557.9,94.9 561.7,95.0 565.3,95.2 568.6,95.3 571.7,95.4 574.6,95.5 577.3,95.6 579.9,95.8 582.4,95.9 584.7,96.0 587.0,96.1 589.1,96.2 591.2,96.4 593.1,96.5 595.0,96.6 596.8,96.7 598.6,96.8 600.2,97.0 601.9,97.1 603.4,97.2 605.0,97.3 606.5,97.4 607.9,97.6 609.3,97.7 610.6,97.8 611.9,97.9 613.2,98.0 614.5,98.1 615.7,98.3 616.9,98.4 618.0,98.5 619.2,98.6 620.3,98.7 621.3,98.9 622.4,99.0 623.4,99.1 624.4,99.2 625.4,99.3 626.4,99.5 627.4,99.6 628.3,99.7 629.2,99.8 630.1,99.9 631.0,100.1 631.8,100.2 632.7,100.3 633.5,100.4 634.4,100.5 635.2,100.7 636.7,100.9 638.3,101.1 639.7,101.4 641.2,101.6 642.6,101.8 643.9,102.1 645.2,102.3 646.5,102.6 647.8,102.8 649.0,103.0 650.2,103.3 651.3,103.5 652.4,103.8 653.6,104.0 654.6,104.2 655.7,104.5 656.7,104.7 657.7,104.9 658.7,105.2 659.7,105.4 660.6,105.7 661.6,105.9 662.5,106.1 663.4,106.4 664.3,106.6 665.1,106.9 666.0,107.1 666.8,107.3 667.6,107.6 668.4,107.8 669.6,108.2 670.8,108.5 671.9,108.9 673.0,109.2 674.1,109.6 675.2,109.9 676.2,110.3 677.2,110.7 678.2,111.0 679.2,111.4 680.1,111.7 681.0,112.1 682.0,112.5 682.9,112.8 683.7,113.2 684.6,113.5 685.5,113.9 686.3,114.2 687.1,114.6 687.9,115.0 689.0,115.4 690.0,115.9 691.0,116.4 692.0,116.9 693.0,117.3 693.9,117.8 694.9,118.3 695.8,118.8 696.7,119.2 697.6,119.7 698.4,120.2 699.3,120.7 700.1,121.2 700.9,121.6 701.7,122.1 702.7,122.7 703.7,123.3 704.6,123.9 705.6,124.5 706.5,125.1 707.4,125.7 708.3,126.3 709.1,126.9 710.0,127.5 710.8,128.1 711.6,128.7 712.4,129.3 713.4,130.0 714.3,130.7 715.2,131.4 716.1,132.1 717.0,132.8 717.9,133.5 718.7,134.3 719.6,135.0 720.4,135.7 721.2,136.4 722.1,137.2 723.0,138.1 723.9,138.9 724.8,139.7 725.7,140.6 726.5,141.4 727.3,142.2 728.1,143.1 728.9,143.9 729.8,144.9 730.7,145.8 731.6,146.8 732.4,147.7 733.3,148.7 734.1,149.6 734.9,150.6 735.8,151.6 736.7,152.7 737.5,153.8 738.4,154.9 739.2,155.9 740.0,157.0 740.8,158.1 741.7,159.2 742.6,160.4 743.4,161.6 744.3,162.8 745.1,24.5 745.9,25.7 746.8,27.0 747.6,28.3 748.5,29.6 749.3,30.8 750.1,32.1 751.0,33.5 751.8,35.0 752.7,36.4 753.5,37.8 754.3,39.2 755.1,40.7 756.0,42.2 756.8,43.7 757.6,45.2 758.5,46.7 759.3,48.3 760.1,49.9 761.0,51.5 761.8,53.1 762.6,54.8 763.5,56.5 764.3,58.2 765.1,59.9 765.9,61.7 766.8,63.5 767.6,65.2 768.4,67.0 769.2,68.9 770.1,70.7 770.9,72.5 771.7,74.5 772.6,76.4 773.4,78.3 774.2,80.2 775.0,82.2 775.8,84.1 776.6,86.1 777.5,88.1 778.3,90.1 779.1,92.1 779.9,94.2 780.7,96.2 781.5,98.3 782.4,100.4 783.2,102.5 784.0,104.5 784.8,106.7 785.6,108.8 786.5,110.9 787.3,113.1 788.1,115.2 788.9,117.4 789.7,119.6 790.5,121.8 791.3,124.0 792.2,126.3 793.0,128.6 793.8,130.8 794.6,133.1 795.4,135.3 796.2,137.7 797.0,140.0 797.8,142.3 798.6,144.7 799.5,147.1 L799.5,93.5 L438.5,93.5 Z" fill="url(#g680)" clip-path="url(#c682)"/>
  <path d="M438.5,93.6 438.5,93.6 471.8,93.7 491.3,93.9 505.1,94.0 515.8,94.1 524.6,94.2 532.0,94.3 538.4,94.5 544.1,94.6 549.1,94.7 553.7,94.8 557.9,94.9 561.7,95.0 565.3,95.2 568.6,95.3 571.7,95.4 574.6,95.5 577.3,95.6 579.9,95.8 582.4,95.9 584.7,96.0 587.0,96.1 589.1,96.2 591.2,96.4 593.1,96.5 595.0,96.6 596.8,96.7 598.6,96.8 600.2,97.0 601.9,97.1 603.4,97.2 605.0,97.3 606.5,97.4 607.9,97.6 609.3,97.7 610.6,97.8 611.9,97.9 613.2,98.0 614.5,98.1 615.7,98.3 616.9,98.4 618.0,98.5 619.2,98.6 620.3,98.7 621.3,98.9 622.4,99.0 623.4,99.1 624.4,99.2 625.4,99.3 626.4,99.5 627.4,99.6 628.3,99.7 629.2,99.8 630.1,99.9 631.0,100.1 631.8,100.2 632.7,100.3 633.5,100.4 634.4,100.5 635.2,100.7 636.7,100.9 638.3,101.1 639.7,101.4 641.2,101.6 642.6,101.8 643.9,102.1 645.2,102.3 646.5,102.6 647.8,102.8 649.0,103.0 650.2,103.3 651.3,103.5 652.4,103.8 653.6,104.0 654.6,104.2 655.7,104.5 656.7,104.7 657.7,104.9 658.7,105.2 659.7,105.4 660.6,105.7 661.6,105.9 662.5,106.1 663.4,106.4 664.3,106.6 665.1,106.9 666.0,107.1 666.8,107.3 667.6,107.6 668.4,107.8 669.6,108.2 670.8,108.5 671.9,108.9 673.0,109.2 674.1,109.6 675.2,109.9 676.2,110.3 677.2,110.7 678.2,111.0 679.2,111.4 680.1,111.7 681.0,112.1 682.0,112.5 682.9,112.8 683.7,113.2 684.6,113.5 685.5,113.9 686.3,114.2 687.1,114.6 687.9,115.0 689.0,115.4 690.0,115.9 691.0,116.4 692.0,116.9 693.0,117.3 693.9,117.8 694.9,118.3 695.8,118.8 696.7,119.2 697.6,119.7 698.4,120.2 699.3,120.7 700.1,121.2 700.9,121.6 701.7,122.1 702.7,122.7 703.7,123.3 704.6,123.9 705.6,124.5 706.5,125.1 707.4,125.7 708.3,126.3 709.1,126.9 710.0,127.5 710.8,128.1 711.6,128.7 712.4,129.3 713.4,130.0 714.3,130.7 715.2,131.4 716.1,132.1 717.0,132.8 717.9,133.5 718.7,134.3 719.6,135.0 720.4,135.7 721.2,136.4 722.1,137.2 723.0,138.1 723.9,138.9 724.8,139.7 725.7,140.6 726.5,141.4 727.3,142.2 728.1,143.1 728.9,143.9 729.8,144.9 730.7,145.8 731.6,146.8 732.4,147.7 733.3,148.7 734.1,149.6 734.9,150.6 735.8,151.6 736.7,152.7 737.5,153.8 738.4,154.9 739.2,155.9 740.0,157.0 740.8,158.1 741.7,159.2 742.6,160.4 743.4,161.6 744.3,162.8 745.1,24.5 745.9,25.7 746.8,27.0 747.6,28.3 748.5,29.6 749.3,30.8 750.1,32.1 751.0,33.5 751.8,35.0 752.7,36.4 753.5,37.8 754.3,39.2 755.1,40.7 756.0,42.2 756.8,43.7 757.6,45.2 758.5,46.7 759.3,48.3 760.1,49.9 761.0,51.5 761.8,53.1 762.6,54.8 763.5,56.5 764.3,58.2 765.1,59.9 765.9,61.7 766.8,63.5 767.6,65.2 768.4,67.0 769.2,68.9 770.1,70.7 770.9,72.5 771.7,74.5 772.6,76.4 773.4,78.3 774.2,80.2 775.0,82.2 775.8,84.1 776.6,86.1 777.5,88.1 778.3,90.1 779.1,92.1 779.9,94.2 780.7,96.2 781.5,98.3 782.4,100.4 783.2,102.5 784.0,104.5 784.8,106.7 785.6,108.8 786.5,110.9 787.3,113.1 788.1,115.2 788.9,117.4 789.7,119.6 790.5,121.8 791.3,124.0 792.2,126.3 793.0,128.6 793.8,130.8 794.6,133.1 795.4,135.3 796.2,137.7 797.0,140.0 797.8,142.3 798.6,144.7 799.5,147.1 L799.5,93.5 L438.5,93.5 Z" fill="url(#g681)" clip-path="url(#c683)"/>
  <defs><clipPath id="pc684"><rect x="435" y="16" width="365" height="155"/></clipPath></defs>
  <polyline points="438.5,93.6 471.8,93.7 491.3,93.9 505.1,94.0 515.8,94.1 524.6,94.2 532.0,94.3 538.4,94.5 544.1,94.6 549.1,94.7 553.7,94.8 557.9,94.9 561.7,95.0 565.3,95.2 568.6,95.3 571.7,95.4 574.6,95.5 577.3,95.6 579.9,95.8 582.4,95.9 584.7,96.0 587.0,96.1 589.1,96.2 591.2,96.4 593.1,96.5 595.0,96.6 596.8,96.7 598.6,96.8 600.2,97.0 601.9,97.1 603.4,97.2 605.0,97.3 606.5,97.4 607.9,97.6 609.3,97.7 610.6,97.8 611.9,97.9 613.2,98.0 614.5,98.1 615.7,98.3 616.9,98.4 618.0,98.5 619.2,98.6 620.3,98.7 621.3,98.9 622.4,99.0 623.4,99.1 624.4,99.2 625.4,99.3 626.4,99.5 627.4,99.6 628.3,99.7 629.2,99.8 630.1,99.9 631.0,100.1 631.8,100.2 632.7,100.3 633.5,100.4 634.4,100.5 635.2,100.7 636.7,100.9 638.3,101.1 639.7,101.4 641.2,101.6 642.6,101.8 643.9,102.1 645.2,102.3 646.5,102.6 647.8,102.8 649.0,103.0 650.2,103.3 651.3,103.5 652.4,103.8 653.6,104.0 654.6,104.2 655.7,104.5 656.7,104.7 657.7,104.9 658.7,105.2 659.7,105.4 660.6,105.7 661.6,105.9 662.5,106.1 663.4,106.4 664.3,106.6 665.1,106.9 666.0,107.1 666.8,107.3 667.6,107.6 668.4,107.8 669.6,108.2 670.8,108.5 671.9,108.9 673.0,109.2 674.1,109.6 675.2,109.9 676.2,110.3 677.2,110.7 678.2,111.0 679.2,111.4 680.1,111.7 681.0,112.1 682.0,112.5 682.9,112.8 683.7,113.2 684.6,113.5 685.5,113.9 686.3,114.2 687.1,114.6 687.9,115.0 689.0,115.4 690.0,115.9 691.0,116.4 692.0,116.9 693.0,117.3 693.9,117.8 694.9,118.3 695.8,118.8 696.7,119.2 697.6,119.7 698.4,120.2 699.3,120.7 700.1,121.2 700.9,121.6 701.7,122.1 702.7,122.7 703.7,123.3 704.6,123.9 705.6,124.5 706.5,125.1 707.4,125.7 708.3,126.3 709.1,126.9 710.0,127.5 710.8,128.1 711.6,128.7 712.4,129.3 713.4,130.0 714.3,130.7 715.2,131.4 716.1,132.1 717.0,132.8 717.9,133.5 718.7,134.3 719.6,135.0 720.4,135.7 721.2,136.4 722.1,137.2 723.0,138.1 723.9,138.9 724.8,139.7 725.7,140.6 726.5,141.4 727.3,142.2 728.1,143.1 728.9,143.9 729.8,144.9 730.7,145.8 731.6,146.8 732.4,147.7 733.3,148.7 734.1,149.6 734.9,150.6 735.8,151.6 736.7,152.7 737.5,153.8 738.4,154.9 739.2,155.9 740.0,157.0 740.8,158.1 741.7,159.2 742.6,160.4 743.4,161.6 744.3,162.8 745.1,24.5 745.9,25.7 746.8,27.0 747.6,28.3 748.5,29.6 749.3,30.8 750.1,32.1 751.0,33.5 751.8,35.0 752.7,36.4 753.5,37.8 754.3,39.2 755.1,40.7 756.0,42.2 756.8,43.7 757.6,45.2 758.5,46.7 759.3,48.3 760.1,49.9 761.0,51.5 761.8,53.1 762.6,54.8 763.5,56.5 764.3,58.2 765.1,59.9 765.9,61.7 766.8,63.5 767.6,65.2 768.4,67.0 769.2,68.9 770.1,70.7 770.9,72.5 771.7,74.5 772.6,76.4 773.4,78.3 774.2,80.2 775.0,82.2 775.8,84.1 776.6,86.1 777.5,88.1 778.3,90.1 779.1,92.1 779.9,94.2 780.7,96.2 781.5,98.3 782.4,100.4 783.2,102.5 784.0,104.5 784.8,106.7 785.6,108.8 786.5,110.9 787.3,113.1 788.1,115.2 788.9,117.4 789.7,119.6 790.5,121.8 791.3,124.0 792.2,126.3 793.0,128.6 793.8,130.8 794.6,133.1 795.4,135.3 796.2,137.7 797.0,140.0 797.8,142.3 798.6,144.7 799.5,147.1" fill="none" stroke="#e74c3c" stroke-width="1.5" stroke-linejoin="round" clip-path="url(#pc684)"/>
  <line x1="34" y1="207" x2="34" y2="362" stroke="#d1d5db"/>
  <line x1="34" y1="284.5" x2="399" y2="284.5" stroke="#d1d5db"/>
  <text x="216.5" y="388" text-anchor="middle" font-size="9" fill="#6b7280">Hz</text>
  <text x="12" y="284.5" text-anchor="middle" font-size="9" fill="#6b7280" transform="rotate(-90 12 284.5)">Group delay</text>
  <line x1="67.3" y1="207" x2="67.3" y2="362" stroke="#e5e7eb" stroke-width="0.5"/>
  <line x1="86.8" y1="207" x2="86.8" y2="362" stroke="#e5e7eb" stroke-width="0.5"/>
  <line x1="100.6" y1="207" x2="100.6" y2="362" stroke="#e5e7eb" stroke-width="0.5"/>
  <line x1="111.3" y1="207" x2="111.3" y2="362" stroke="#e5e7eb" stroke-width="0.5"/>
  <line x1="120.0" y1="207" x2="120.0" y2="362" stroke="#e5e7eb" stroke-width="0.5"/>
  <line x1="127.4" y1="207" x2="127.4" y2="362" stroke="#e5e7eb" stroke-width="0.5"/>
  <line x1="133.9" y1="207" x2="133.9" y2="362" stroke="#e5e7eb" stroke-width="0.5"/>
  <line x1="139.5" y1="207" x2="139.5" y2="362" stroke="#e5e7eb" stroke-width="0.5"/>
  <line x1="177.9" y1="207" x2="177.9" y2="362" stroke="#e5e7eb" stroke-width="0.5"/>
  <line x1="197.3" y1="207" x2="197.3" y2="362" stroke="#e5e7eb" stroke-width="0.5"/>
  <line x1="211.1" y1="207" x2="211.1" y2="362" stroke="#e5e7eb" stroke-width="0.5"/>
  <line x1="221.9" y1="207" x2="221.9" y2="362" stroke="#e5e7eb" stroke-width="0.5"/>
  <line x1="230.6" y1="207" x2="230.6" y2="362" stroke="#e5e7eb" stroke-width="0.5"/>
  <line x1="238.0" y1="207" x2="238.0" y2="362" stroke="#e5e7eb" stroke-width="0.5"/>
  <line x1="244.4" y1="207" x2="244.4" y2="362" stroke="#e5e7eb" stroke-width="0.5"/>
  <line x1="250.1" y1="207" x2="250.1" y2="362" stroke="#e5e7eb" stroke-width="0.5"/>
  <line x1="288.4" y1="207" x2="288.4" y2="362" stroke="#e5e7eb" stroke-width="0.5"/>
  <line x1="307.9" y1="207" x2="307.9" y2="362" stroke="#e5e7eb" stroke-width="0.5"/>
  <line x1="321.7" y1="207" x2="321.7" y2="362" stroke="#e5e7eb" stroke-width="0.5"/>
  <line x1="332.4" y1="207" x2="332.4" y2="362" stroke="#e5e7eb" stroke-width="0.5"/>
  <line x1="341.2" y1="207" x2="341.2" y2="362" stroke="#e5e7eb" stroke-width="0.5"/>
  <line x1="348.6" y1="207" x2="348.6" y2="362" stroke="#e5e7eb" stroke-width="0.5"/>
  <line x1="355.0" y1="207" x2="355.0" y2="362" stroke="#e5e7eb" stroke-width="0.5"/>
  <line x1="360.7" y1="207" x2="360.7" y2="362" stroke="#e5e7eb" stroke-width="0.5"/>
  <line x1="399.0" y1="207" x2="399.0" y2="362" stroke="#e5e7eb" stroke-width="0.5"/>
  <line x1="144.6" y1="207" x2="144.6" y2="362" stroke="#e5e7eb" stroke-width="0.5"/>
  <text x="144.6" y="374" text-anchor="middle" font-size="8" fill="#6b7280">100</text>
  <line x1="255.1" y1="207" x2="255.1" y2="362" stroke="#e5e7eb" stroke-width="0.5"/>
  <text x="255.1" y="374" text-anchor="middle" font-size="8" fill="#6b7280">1k</text>
  <line x1="365.7" y1="207" x2="365.7" y2="362" stroke="#e5e7eb" stroke-width="0.5"/>
  <text x="365.7" y="374" text-anchor="middle" font-size="8" fill="#6b7280">10k</text>
  <line x1="34" y1="335.6" x2="399" y2="335.6" stroke="#e5e7eb" stroke-width="0.5"/>
  <text x="30" y="338.6" text-anchor="end" font-size="8" fill="#6b7280">-3</text>
  <text x="30" y="287.5" text-anchor="end" font-size="8" fill="#6b7280">0</text>
  <line x1="34" y1="233.4" x2="399" y2="233.4" stroke="#e5e7eb" stroke-width="0.5"/>
  <text x="30" y="236.4" text-anchor="end" font-size="8" fill="#6b7280">3</text>
  <defs><linearGradient id="g685" x1="0" y1="207" x2="0" y2="284.5" gradientUnits="userSpaceOnUse">
    <stop offset="0%" stop-color="#2ecc71" stop-opacity="0.15"/>
    <stop offset="100%" stop-color="#2ecc71" stop-opacity="0.02"/>
  </linearGradient></defs>
  <path d="M37.5,224.9 37.5,224.9 70.8,224.9 90.3,224.9 104.1,224.9 114.8,224.9 123.6,224.9 131.0,224.9 137.4,224.9 143.1,224.9 148.1,224.9 152.7,224.9 156.9,224.9 160.7,224.9 164.3,224.9 167.6,224.9 170.7,224.9 173.6,224.9 176.3,224.9 178.9,224.9 181.4,224.9 183.7,224.9 186.0,224.9 188.1,224.9 190.2,224.9 192.1,224.9 194.0,224.9 195.8,224.9 197.6,224.9 199.2,224.9 200.9,224.9 202.4,224.9 204.0,224.9 205.5,224.9 206.9,224.9 208.3,224.9 209.6,224.9 210.9,224.9 212.2,224.9 213.5,224.9 214.7,224.9 215.9,224.9 217.0,224.9 218.2,224.9 219.3,224.9 220.3,224.9 221.4,224.9 222.4,224.9 223.4,224.9 224.4,224.9 225.4,224.9 226.4,224.9 227.3,224.9 228.2,224.9 229.1,224.9 230.0,224.9 230.8,224.9 231.7,224.9 232.5,224.9 233.4,224.9 234.2,224.9 235.7,224.9 237.3,224.9 238.7,224.9 240.2,224.9 241.6,224.9 242.9,224.9 244.2,224.9 245.5,224.9 246.8,224.9 248.0,224.9 249.2,224.9 250.3,224.9 251.4,224.9 252.6,224.9 253.6,224.9 254.7,224.9 255.7,224.9 256.7,224.9 257.7,224.9 258.7,224.9 259.6,224.9 260.6,224.9 261.5,224.9 262.4,224.9 263.3,224.9 264.1,224.9 265.0,224.9 265.8,224.9 266.6,224.9 267.4,224.9 268.6,224.9 269.8,224.9 270.9,224.9 272.0,224.9 273.1,224.9 274.2,224.9 275.2,224.9 276.2,224.9 277.2,224.9 278.2,224.9 279.1,224.9 280.0,224.9 281.0,224.9 281.9,224.9 282.7,224.9 283.6,224.9 284.5,224.9 285.3,224.9 286.1,224.9 286.9,224.9 288.0,224.9 289.0,224.9 290.0,224.9 291.0,224.9 292.0,224.9 292.9,224.9 293.9,224.9 294.8,224.9 295.7,224.9 296.6,224.9 297.4,224.9 298.3,224.9 299.1,224.9 299.9,224.9 300.7,224.9 301.7,224.9 302.7,224.9 303.6,224.9 304.6,224.9 305.5,224.9 306.4,224.9 307.3,224.9 308.1,224.9 309.0,224.9 309.8,224.9 310.6,224.9 311.4,224.9 312.4,224.9 313.3,224.9 314.2,224.9 315.1,224.9 316.0,224.9 316.9,224.9 317.7,224.9 318.6,224.9 319.4,224.9 320.2,224.9 321.1,224.9 322.0,224.9 322.9,224.9 323.8,224.9 324.7,224.9 325.5,224.9 326.3,224.9 327.1,225.0 327.9,225.0 328.8,225.0 329.7,225.0 330.6,225.0 331.4,225.0 332.3,225.0 333.1,225.0 333.9,225.0 334.8,225.1 335.7,225.1 336.5,225.1 337.4,225.1 338.2,225.1 339.0,225.2 339.8,225.2 340.7,225.2 341.6,225.3 342.4,225.3 343.3,225.3 344.1,225.4 344.9,225.4 345.8,225.5 346.6,225.5 347.5,225.6 348.3,225.7 349.1,225.7 350.0,225.8 350.8,225.9 351.7,226.0 352.5,226.1 353.3,226.2 354.1,226.3 355.0,226.4 355.8,226.6 356.6,226.7 357.5,226.8 358.3,227.0 359.1,227.2 360.0,227.4 360.8,227.6 361.6,227.8 362.5,228.0 363.3,228.2 364.1,228.5 364.9,228.7 365.8,229.0 366.6,229.3 367.4,229.6 368.2,229.9 369.1,230.3 369.9,230.6 370.7,231.0 371.6,231.4 372.4,231.8 373.2,232.2 374.0,232.6 374.8,233.1 375.6,233.5 376.5,234.0 377.3,234.4 378.1,234.9 378.9,235.4 379.7,235.9 380.5,236.4 381.4,236.9 382.2,237.4 383.0,237.9 383.8,238.4 384.6,238.9 385.5,239.4 386.3,239.9 387.1,240.4 387.9,240.8 388.7,241.3 389.5,241.8 390.3,242.2 391.2,242.7 392.0,243.1 392.8,243.5 393.6,243.9 394.4,244.2 395.2,244.6 396.0,244.9 396.8,245.2 397.6,245.4 398.5,245.7 L398.5,284.5 L37.5,284.5 Z" fill="url(#g685)"/>
  <defs><clipPath id="pc686"><rect x="34" y="207" width="365" height="155"/></clipPath></defs>
  <polyline points="37.5,224.9 70.8,224.9 90.3,224.9 104.1,224.9 114.8,224.9 123.6,224.9 131.0,224.9 137.4,224.9 143.1,224.9 148.1,224.9 152.7,224.9 156.9,224.9 160.7,224.9 164.3,224.9 167.6,224.9 170.7,224.9 173.6,224.9 176.3,224.9 178.9,224.9 181.4,224.9 183.7,224.9 186.0,224.9 188.1,224.9 190.2,224.9 192.1,224.9 194.0,224.9 195.8,224.9 197.6,224.9 199.2,224.9 200.9,224.9 202.4,224.9 204.0,224.9 205.5,224.9 206.9,224.9 208.3,224.9 209.6,224.9 210.9,224.9 212.2,224.9 213.5,224.9 214.7,224.9 215.9,224.9 217.0,224.9 218.2,224.9 219.3,224.9 220.3,224.9 221.4,224.9 222.4,224.9 223.4,224.9 224.4,224.9 225.4,224.9 226.4,224.9 227.3,224.9 228.2,224.9 229.1,224.9 230.0,224.9 230.8,224.9 231.7,224.9 232.5,224.9 233.4,224.9 234.2,224.9 235.7,224.9 237.3,224.9 238.7,224.9 240.2,224.9 241.6,224.9 242.9,224.9 244.2,224.9 245.5,224.9 246.8,224.9 248.0,224.9 249.2,224.9 250.3,224.9 251.4,224.9 252.6,224.9 253.6,224.9 254.7,224.9 255.7,224.9 256.7,224.9 257.7,224.9 258.7,224.9 259.6,224.9 260.6,224.9 261.5,224.9 262.4,224.9 263.3,224.9 264.1,224.9 265.0,224.9 265.8,224.9 266.6,224.9 267.4,224.9 268.6,224.9 269.8,224.9 270.9,224.9 272.0,224.9 273.1,224.9 274.2,224.9 275.2,224.9 276.2,224.9 277.2,224.9 278.2,224.9 279.1,224.9 280.0,224.9 281.0,224.9 281.9,224.9 282.7,224.9 283.6,224.9 284.5,224.9 285.3,224.9 286.1,224.9 286.9,224.9 288.0,224.9 289.0,224.9 290.0,224.9 291.0,224.9 292.0,224.9 292.9,224.9 293.9,224.9 294.8,224.9 295.7,224.9 296.6,224.9 297.4,224.9 298.3,224.9 299.1,224.9 299.9,224.9 300.7,224.9 301.7,224.9 302.7,224.9 303.6,224.9 304.6,224.9 305.5,224.9 306.4,224.9 307.3,224.9 308.1,224.9 309.0,224.9 309.8,224.9 310.6,224.9 311.4,224.9 312.4,224.9 313.3,224.9 314.2,224.9 315.1,224.9 316.0,224.9 316.9,224.9 317.7,224.9 318.6,224.9 319.4,224.9 320.2,224.9 321.1,224.9 322.0,224.9 322.9,224.9 323.8,224.9 324.7,224.9 325.5,224.9 326.3,224.9 327.1,225.0 327.9,225.0 328.8,225.0 329.7,225.0 330.6,225.0 331.4,225.0 332.3,225.0 333.1,225.0 333.9,225.0 334.8,225.1 335.7,225.1 336.5,225.1 337.4,225.1 338.2,225.1 339.0,225.2 339.8,225.2 340.7,225.2 341.6,225.3 342.4,225.3 343.3,225.3 344.1,225.4 344.9,225.4 345.8,225.5 346.6,225.5 347.5,225.6 348.3,225.7 349.1,225.7 350.0,225.8 350.8,225.9 351.7,226.0 352.5,226.1 353.3,226.2 354.1,226.3 355.0,226.4 355.8,226.6 356.6,226.7 357.5,226.8 358.3,227.0 359.1,227.2 360.0,227.4 360.8,227.6 361.6,227.8 362.5,228.0 363.3,228.2 364.1,228.5 364.9,228.7 365.8,229.0 366.6,229.3 367.4,229.6 368.2,229.9 369.1,230.3 369.9,230.6 370.7,231.0 371.6,231.4 372.4,231.8 373.2,232.2 374.0,232.6 374.8,233.1 375.6,233.5 376.5,234.0 377.3,234.4 378.1,234.9 378.9,235.4 379.7,235.9 380.5,236.4 381.4,236.9 382.2,237.4 383.0,237.9 383.8,238.4 384.6,238.9 385.5,239.4 386.3,239.9 387.1,240.4 387.9,240.8 388.7,241.3 389.5,241.8 390.3,242.2 391.2,242.7 392.0,243.1 392.8,243.5 393.6,243.9 394.4,244.2 395.2,244.6 396.0,244.9 396.8,245.2 397.6,245.4 398.5,245.7" fill="none" stroke="#2ecc71" stroke-width="1.5" stroke-linejoin="round" clip-path="url(#pc686)"/>
  <line x1="435" y1="207" x2="435" y2="362" stroke="#d1d5db"/>
  <line x1="435" y1="284.5" x2="800" y2="284.5" stroke="#d1d5db"/>
  <text x="617.5" y="388" text-anchor="middle" font-size="9" fill="#6b7280">Samples</text>
  <text x="413" y="284.5" text-anchor="middle" font-size="9" fill="#6b7280" transform="rotate(-90 413 284.5)">Impulse response</text>
  <line x1="435.0" y1="207" x2="435.0" y2="362" stroke="#e5e7eb" stroke-width="0.5"/>
  <text x="435.0" y="374" text-anchor="middle" font-size="8" fill="#6b7280">0</text>
  <line x1="606.1" y1="207" x2="606.1" y2="362" stroke="#e5e7eb" stroke-width="0.5"/>
  <text x="606.1" y="374" text-anchor="middle" font-size="8" fill="#6b7280">30</text>
  <line x1="777.2" y1="207" x2="777.2" y2="362" stroke="#e5e7eb" stroke-width="0.5"/>
  <text x="777.2" y="374" text-anchor="middle" font-size="8" fill="#6b7280">60</text>
  <line x1="435" y1="336.7" x2="800" y2="336.7" stroke="#e5e7eb" stroke-width="0.5"/>
  <text x="431" y="339.7" text-anchor="end" font-size="8" fill="#6b7280">-0.6</text>
  <text x="431" y="287.5" text-anchor="end" font-size="8" fill="#6b7280">0</text>
  <line x1="435" y1="232.3" x2="800" y2="232.3" stroke="#e5e7eb" stroke-width="0.5"/>
  <text x="431" y="235.3" text-anchor="end" font-size="8" fill="#6b7280">0.6</text>
  <defs><linearGradient id="g687" x1="0" y1="207" x2="0" y2="284.5" gradientUnits="userSpaceOnUse">
    <stop offset="0%" stop-color="#f39c12" stop-opacity="0.15"/>
    <stop offset="100%" stop-color="#f39c12" stop-opacity="0.02"/>
  </linearGradient></defs>
  <defs><linearGradient id="g688" x1="0" y1="362" x2="0" y2="284.5" gradientUnits="userSpaceOnUse">
    <stop offset="0%" stop-color="#f39c12" stop-opacity="0.15"/>
    <stop offset="100%" stop-color="#f39c12" stop-opacity="0.02"/>
  </linearGradient></defs>
  <defs><clipPath id="c689"><rect x="435" y="207" width="365" height="77.5"/></clipPath></defs>
  <defs><clipPath id="c690"><rect x="435" y="284.5" width="365" height="77.5"/></clipPath></defs>
  <path d="M435.0,285.5 435.0,285.5 440.7,276.9 446.4,310.9 452.1,207.0 457.8,256.2 463.5,282.4 469.2,285.5 474.9,284.7 480.6,284.4 486.3,284.5 492.0,284.5 497.7,284.5 503.4,284.5 509.1,284.5 514.8,284.5 520.5,284.5 526.3,284.5 532.0,284.5 537.7,284.5 543.4,284.5 549.1,284.5 554.8,284.5 560.5,284.5 566.2,284.5 571.9,284.5 577.6,284.5 583.3,284.5 589.0,284.5 594.7,284.5 600.4,284.5 606.1,284.5 611.8,284.5 617.5,284.5 623.2,284.5 628.9,284.5 634.6,284.5 640.3,284.5 646.0,284.5 651.7,284.5 657.4,284.5 663.1,284.5 668.8,284.5 674.5,284.5 680.2,284.5 685.9,284.5 691.6,284.5 697.3,284.5 703.0,284.5 708.8,284.5 714.5,284.5 720.2,284.5 725.9,284.5 731.6,284.5 737.3,284.5 743.0,284.5 748.7,284.5 754.4,284.5 760.1,284.5 765.8,284.5 771.5,284.5 777.2,284.5 782.9,284.5 788.6,284.5 794.3,284.5 L794.3,284.5 L435.0,284.5 Z" fill="url(#g687)" clip-path="url(#c689)"/>
  <path d="M435.0,285.5 435.0,285.5 440.7,276.9 446.4,310.9 452.1,207.0 457.8,256.2 463.5,282.4 469.2,285.5 474.9,284.7 480.6,284.4 486.3,284.5 492.0,284.5 497.7,284.5 503.4,284.5 509.1,284.5 514.8,284.5 520.5,284.5 526.3,284.5 532.0,284.5 537.7,284.5 543.4,284.5 549.1,284.5 554.8,284.5 560.5,284.5 566.2,284.5 571.9,284.5 577.6,284.5 583.3,284.5 589.0,284.5 594.7,284.5 600.4,284.5 606.1,284.5 611.8,284.5 617.5,284.5 623.2,284.5 628.9,284.5 634.6,284.5 640.3,284.5 646.0,284.5 651.7,284.5 657.4,284.5 663.1,284.5 668.8,284.5 674.5,284.5 680.2,284.5 685.9,284.5 691.6,284.5 697.3,284.5 703.0,284.5 708.8,284.5 714.5,284.5 720.2,284.5 725.9,284.5 731.6,284.5 737.3,284.5 743.0,284.5 748.7,284.5 754.4,284.5 760.1,284.5 765.8,284.5 771.5,284.5 777.2,284.5 782.9,284.5 788.6,284.5 794.3,284.5 L794.3,284.5 L435.0,284.5 Z" fill="url(#g688)" clip-path="url(#c690)"/>
  <defs><clipPath id="pc691"><rect x="435" y="207" width="365" height="155"/></clipPath></defs>
  <polyline points="435.0,285.5 440.7,276.9 446.4,310.9 452.1,207.0 457.8,256.2 463.5,282.4 469.2,285.5 474.9,284.7 480.6,284.4 486.3,284.5 492.0,284.5 497.7,284.5 503.4,284.5 509.1,284.5 514.8,284.5 520.5,284.5 526.3,284.5 532.0,284.5 537.7,284.5 543.4,284.5 549.1,284.5 554.8,284.5 560.5,284.5 566.2,284.5 571.9,284.5 577.6,284.5 583.3,284.5 589.0,284.5 594.7,284.5 600.4,284.5 606.1,284.5 611.8,284.5 617.5,284.5 623.2,284.5 628.9,284.5 634.6,284.5 640.3,284.5 646.0,284.5 651.7,284.5 657.4,284.5 663.1,284.5 668.8,284.5 674.5,284.5 680.2,284.5 685.9,284.5 691.6,284.5 697.3,284.5 703.0,284.5 708.8,284.5 714.5,284.5 720.2,284.5 725.9,284.5 731.6,284.5 737.3,284.5 743.0,284.5 748.7,284.5 754.4,284.5 760.1,284.5 765.8,284.5 771.5,284.5 777.2,284.5 782.9,284.5 788.6,284.5 794.3,284.5" fill="none" stroke="#f39c12" stroke-width="1.3" stroke-linejoin="round" clip-path="url(#pc691)"/>
</svg>
