<svg xmlns="http://www.w3.org/2000/svg" viewBox="0 0 820 378" style="font-family:system-ui,-apple-system,sans-serif">
  <text x="800" y="11" text-anchor="end" font-size="11" font-weight="600" fill="#6b7280">Thiran allpass delay, d=3.5</text>
  <line x1="34" y1="16" x2="34" y2="171" stroke="#d1d5db"/>
  <line x1="34" y1="47.0" x2="399" y2="47.0" stroke="#d1d5db"/>
  <text x="216.5" y="197" text-anchor="middle" font-size="9" fill="#6b7280">Hz</text>
  <text x="12" y="93.5" text-anchor="middle" font-size="9" fill="#6b7280" transform="rotate(-90 12 93.5)">dB</text>
  <line x1="67.3" y1="16" x2="67.3" y2="171" stroke="#e5e7eb" stroke-width="0.5"/>
  <line x1="86.8" y1="16" x2="86.8" y2="171" stroke="#e5e7eb" stroke-width="0.5"/>
  <line x1="100.6" y1="16" x2="100.6" y2="171" stroke="#e5e7eb" stroke-width="0.5"/>
  <line x1="111.3" y1="16" x2="111.3" y2="171" stroke="#e5e7eb" stroke-width="0.5"/>
  <line x1="120.0" y1="16" x2="120.0" y2="171" stroke="#e5e7eb" stroke-width="0.5"/>
  <line x1="127.4" y1="16" x2="127.4" y2="171" stroke="#e5e7eb" stroke-width="0.5"/>
  <line x1="133.9" y1="16" x2="133.9" y2="171" stroke="#e5e7eb" stroke-width="0.5"/>
  <line x1="139.5" y1="16" x2="139.5" y2="171" stroke="#e5e7eb" stroke-width="0.5"/>
  <line x1="177.9" y1="16" x2="177.9" y2="171" stroke="#e5e7eb" stroke-width="0.5"/>
  <line x1="197.3" y1="16" x2="197.3" y2="171" stroke="#e5e7eb" stroke-width="0.5"/>
  <line x1="211.1" y1="16" x2="211.1" y2="171" stroke="#e5e7eb" stroke-width="0.5"/>
  <line x1="221.9" y1="16" x2="221.9" y2="171" stroke="#e5e7eb" stroke-width="0.5"/>
  <line x1="230.6" y1="16" x2="230.6" y2="171" stroke="#e5e7eb" stroke-width="0.5"/>
  <line x1="238.0" y1="16" x2="238.0" y2="171" stroke="#e5e7eb" stroke-width="0.5"/>
  <line x1="244.4" y1="16" x2="244.4" y2="171" stroke="#e5e7eb" stroke-width="0.5"/>
  <line x1="250.1" y1="16" x2="250.1" y2="171" stroke="#e5e7eb" stroke-width="0.5"/>
  <line x1="288.4" y1="16" x2="288.4" y2="171" stroke="#e5e7eb" stroke-width="0.5"/>
  <line x1="307.9" y1="16" x2="307.9" y2="171" stroke="#e5e7eb" stroke-width="0.5"/>
  <line x1="321.7" y1="16" x2="321.7" y2="171" stroke="#e5e7eb" stroke-width="0.5"/>
  <line x1="332.4" y1="16" x2="332.4" y2="171" stroke="#e5e7eb" stroke-width="0.5"/>
  <line x1="341.2" y1="16" x2="341.2" y2="171" stroke="#e5e7eb" stroke-width="0.5"/>
  <line x1="348.6" y1="16" x2="348.6" y2="171" stroke="#e5e7eb" stroke-width="0.5"/>
  <line x1="355.0" y1="16" x2="355.0" y2="171" stroke="#e5e7eb" stroke-width="0.5"/>
  <line x1="360.7" y1="16" x2="360.7" y2="171" stroke="#e5e7eb" stroke-width="0.5"/>
  <line x1="399.0" y1="16" x2="399.0" y2="171" stroke="#e5e7eb" stroke-width="0.5"/>
  <line x1="144.6" y1="16" x2="144.6" y2="171" stroke="#e5e7eb" stroke-width="0.5"/>
  <text x="144.6" y="183" text-anchor="middle" font-size="8" fill="#6b7280">100</text>
  <line x1="255.1" y1="16" x2="255.1" y2="171" stroke="#e5e7eb" stroke-width="0.5"/>
  <text x="255.1" y="183" text-anchor="middle" font-size="8" fill="#6b7280">1k</text>
  <line x1="365.7" y1="16" x2="365.7" y2="171" stroke="#e5e7eb" stroke-width="0.5"/>
  <text x="365.7" y="183" text-anchor="middle" font-size="8" fill="#6b7280">10k</text>
  <line x1="34" y1="31.5" x2="399" y2="31.5" stroke="#e5e7eb" stroke-width="0.5"/>
  <line x1="34" y1="62.5" x2="399" y2="62.5" stroke="#e5e7eb" stroke-width="0.5"/>
  <line x1="34" y1="16.0" x2="399" y2="16.0" stroke="#e5e7eb" stroke-width="0.5"/>
  <text x="30" y="19.0" text-anchor="end" font-size="8" fill="#6b7280">+20</text>
  <text x="30" y="50.0" text-anchor="end" font-size="8" fill="#6b7280">0</text>
  <line x1="34" y1="78.0" x2="399" y2="78.0" stroke="#e5e7eb" stroke-width="0.5"/>
  <text x="30" y="81.0" text-anchor="end" font-size="8" fill="#6b7280">-20</text>
  <line x1="34" y1="109.0" x2="399" y2="109.0" stroke="#e5e7eb" stroke-width="0.5"/>
  <text x="30" y="112.0" text-anchor="end" font-size="8" fill="#6b7280">-40</text>
  <line x1="34" y1="140.0" x2="399" y2="140.0" stroke="#e5e7eb" stroke-width="0.5"/>
  <text x="30" y="143.0" text-anchor="end" font-size="8" fill="#6b7280">-60</text>
  <line x1="34" y1="171.0" x2="399" y2="171.0" stroke="#e5e7eb" stroke-width="0.5"/>
  <text x="30" y="174.0" text-anchor="end" font-size="8" fill="#6b7280">-80</text>
  <defs><linearGradient id="g678" x1="0" y1="16" x2="0" y2="171" gradientUnits="userSpaceOnUse">
    <stop offset="0%" stop-color="#4a90d9" stop-opacity="0.15"/>
    <stop offset="100%" stop-color="#4a90d9" stop-opacity="0.02"/>
  </linearGradient></defs>
  <path d="M37.5,47.0 37.5,47.0 70.8,47.0 90.3,47.0 104.1,47.0 114.8,47.0 123.6,47.0 131.0,47.0 137.4,47.0 143.1,47.0 148.1,47.0 152.7,47.0 156.9,47.0 160.7,47.0 164.3,47.0 167.6,47.0 170.7,47.0 173.6,47.0 176.3,47.0 178.9,47.0 181.4,47.0 183.7,47.0 186.0,47.0 188.1,47.0 190.2,47.0 192.1,47.0 194.0,47.0 195.8,47.0 197.6,47.0 199.2,47.0 200.9,47.0 202.4,47.0 204.0,47.0 205.5,47.0 206.9,47.0 208.3,47.0 209.6,47.0 210.9,47.0 212.2,47.0 213.5,47.0 214.7,47.0 215.9,47.0 217.0,47.0 218.2,47.0 219.3,47.0 220.3,47.0 221.4,47.0 222.4,47.0 223.4,47.0 224.4,47.0 225.4,47.0 226.4,47.0 227.3,47.0 228.2,47.0 229.1,47.0 230.0,47.0 230.8,47.0 231.7,47.0 232.5,47.0 233.4,47.0 234.2,47.0 235.7,47.0 237.3,47.0 238.7,47.0 240.2,47.0 241.6,47.0 242.9,47.0 244.2,47.0 245.5,47.0 246.8,47.0 248.0,47.0 249.2,47.0 250.3,47.0 251.4,47.0 252.6,47.0 253.6,47.0 254.7,47.0 255.7,47.0 256.7,47.0 257.7,47.0 258.7,47.0 259.6,47.0 260.6,47.0 261.5,47.0 262.4,47.0 263.3,47.0 264.1,47.0 265.0,47.0 265.8,47.0 266.6,47.0 267.4,47.0 268.6,47.0 269.8,47.0 270.9,47.0 272.0,47.0 273.1,47.0 274.2,47.0 275.2,47.0 276.2,47.0 277.2,47.0 278.2,47.0 279.1,47.0 280.0,47.0 281.0,47.0 281.9,47.0 282.7,47.0 283.6,47.0 284.5,47.0 285.3,47.0 286.1,47.0 286.9,47.0 288.0,47.0 289.0,47.0 290.0,47.0 291.0,47.0 292.0,47.0 292.9,47.0 293.9,47.0 294.8,47.0 295.7,47.0 296.6,47.0 297.4,47.0 298.3,47.0 299.1,47.0 299.9,47.0 300.7,47.0 301.7,47.0 302.7,47.0 303.6,47.0 304.6,47.0 305.5,47.0 306.4,47.0 307.3,47.0 308.1,47.0 309.0,47.0 309.8,47.0 310.6,47.0 311.4,47.0 312.4,47.0 313.3,47.0 314.2,47.0 315.1,47.0 316.0,47.0 316.9,47.0 317.7,47.0 318.6,47.0 319.4,47.0 320.2,47.0 321.1,47.0 322.0,47.0 322.9,47.0 323.8,47.0 324.7,47.0 325.5,47.0 326.3,47.0 327.1,47.0 327.9,47.0 328.8,47.0 329.7,47.0 330.6,47.0 331.4,47.0 332.3,47.0 333.1,47.0 333.9,47.0 334.8,47.0 335.7,47.0 336.5,47.0 337.4,47.0 338.2,47.0 339.0,47.0 339.8,47.0 340.7,47.0 341.6,47.0 342.4,47.0 343.3,47.0 344.1,47.0 344.9,47.0 345.8,47.0 346.6,47.0 347.5,47.0 348.3,47.0 349.1,47.0 350.0,47.0 350.8,47.0 351.7,47.0 352.5,47.0 353.3,47.0 354.1,47.0 355.0,47.0 355.8,47.0 356.6,47.0 357.5,47.0 358.3,47.0 359.1,47.0 360.0,47.0 360.8,47.0 361.6,47.0 362.5,47.0 363.3,47.0 364.1,47.0 364.9,47.0 365.8,47.0 366.6,47.0 367.4,47.0 368.2,47.0 369.1,47.0 369.9,47.0 370.7,47.0 371.6,47.0 372.4,47.0 373.2,47.0 374.0,47.0 374.8,47.0 375.6,47.0 376.5,47.0 377.3,47.0 378.1,47.0 378.9,47.0 379.7,47.0 380.5,47.0 381.4,47.0 382.2,47.0 383.0,47.0 383.8,47.0 384.6,47.0 385.5,47.0 386.3,47.0 387.1,47.0 387.9,47.0 388.7,47.0 389.5,47.0 390.3,47.0 391.2,47.0 392.0,47.0 392.8,47.0 393.6,47.0 394.4,47.0 395.2,47.0 396.0,47.0 396.8,47.0 397.6,47.0 398.5,47.0 L398.5,171.0 L37.5,171.0 Z" fill="url(#g678)"/>
  <defs><clipPath id="pc679"><rect x="34" y="16" width="365" height="155"/></clipPath></defs>
  <polyline points="37.5,47.0 70.8,47.0 90.3,47.0 104.1,47.0 114.8,47.0 123.6,47.0 131.0,47.0 137.4,47.0 143.1,47.0 148.1,47.0 152.7,47.0 156.9,47.0 160.7,47.0 164.3,47.0 167.6,47.0 170.7,47.0 173.6,47.0 176.3,47.0 178.9,47.0 181.4,47.0 183.7,47.0 186.0,47.0 188.1,47.0 190.2,47.0 192.1,47.0 194.0,47.0 195.8,47.0 197.6,47.0 199.2,47.0 200.9,47.0 202.4,47.0 204.0,47.0 205.5,47.0 206.9,47.0 208.3,47.0 209.6,47.0 210.9,47.0 212.2,47.0 213.5,47.0 214.7,47.0 215.9,47.0 217.0,47.0 218.2,47.0 219.3,47.0 220.3,47.0 221.4,47.0 222.4,47.0 223.4,47.0 224.4,47.0 225.4,47.0 226.4,47.0 227.3,47.0 228.2,47.0 229.1,47.0 230.0,47.0 230.8,47.0 231.7,47.0 232.5,47.0 233.4,47.0 234.2,47.0 235.7,47.0 237.3,47.0 238.7,47.0 240.2,47.0 241.6,47.0 242.9,47.0 244.2,47.0 245.5,47.0 246.8,47.0 248.0,47.0 249.2,47.0 250.3,47.0 251.4,47.0 252.6,47.0 253.6,47.0 254.7,47.0 255.7,47.0 256.7,47.0 257.7,47.0 258.7,47.0 259.6,47.0 260.6,47.0 261.5,47.0 262.4,47.0 263.3,47.0 264.1,47.0 265.0,47.0 265.8,47.0 266.6,47.0 267.4,47.0 268.6,47.0 269.8,47.0 270.9,47.0 272.0,47.0 273.1,47.0 274.2,47.0 275.2,47.0 276.2,47.0 277.2,47.0 278.2,47.0 279.1,47.0 280.0,47.0 281.0,47.0 281.9,47.0 282.7,47.0 283.6,47.0 284.5,47.0 285.3,47.0 286.1,47.0 286.9,47.0 288.0,47.0 289.0,47.0 290.0,47.0 291.0,47.0 292.0,47.0 292.9,47.0 293.9,47.0 294.8,47.0 295.7,47.0 296.6,47.0 297.4,47.0 298.3,47.0 299.1,47.0 299.9,47.0 300.7,47.0 301.7,47.0 302.7,47.0 303.6,47.0 304.6,47.0 305.5,47.0 306.4,47.0 307.3,47.0 308.1,47.0 309.0,47.0 309.8,47.0 310.6,47.0 311.4,47.0 312.4,47.0 313.3,47.0 314.2,47.0 315.1,47.0 316.0,47.0 316.9,47.0 317.7,47.0 318.6,47.0 319.4,47.0 320.2,47.0 321.1,47.0 322.0,47.0 322.9,47.0 323.8,47.0 324.7,47.0 325.5,47.0 326.3,47.0 327.1,47.0 327.9,47.0 328.8,47.0 329.7,47.0 330.6,47.0 331.4,47.0 332.3,47.0 333.1,47.0 333.9,47.0 334.8,47.0 335.7,47.0 336.5,47.0 337.4,47.0 338.2,47.0 339.0,47.0 339.8,47.0 340.7,47.0 341.6,47.0 342.4,47.0 343.3,47.0 344.1,47.0 344.9,47.0 345.8,47.0 346.6,47.0 347.5,47.0 348.3,47.0 349.1,47.0 350.0,47.0 350.8,47.0 351.7,47.0 352.5,47.0 353.3,47.0 354.1,47.0 355.0,47.0 355.8,47.0 356.6,47.0 357.5,47.0 358.3,47.0 359.1,47.0 360.0,47.0 360.8,47.0 361.6,47.0 362.5,47.0 363.3,47.0 364.1,47.0 364.9,47.0 365.8,47.0 366.6,47.0 367.4,47.0 368.2,47.0 369.1,47.0 369.9,47.0 370.7,47.0 371.6,47.0 372.4,47.0 373.2,47.0 374.0,47.0 374.8,47.0 375.6,47.0 376.5,47.0 377.3,47.0 378.1,47.0 378.9,47.0 379.7,47.0 380.5,47.0 381.4,47.0 382.2,47.0 383.0,47.0 383.8,47.0 384.6,47.0 385.5,47.0 386.3,47.0 387.1,47.0 387.9,47.0 388.7,47.0 389.5,47.0 390.3,47.0 391.2,47.0 392.0,47.0 392.8,47.0 393.6,47.0 394.4,47.0 395.2,47.0 396.0,47.0 396.8,47.0 397.6,47.0 398.5,47.0" fill="none" stroke="#4a90d9" stroke-width="1.5" stroke-linejoin="round" clip-path="url(#pc679)"/>
  <line x1="435" y1="16" x2="435" y2="171" stroke="#d1d5db"/>
  <line x1="435" y1="93.5" x2="800" y2="93.5" stroke="#d1d5db"/>
  <text x="617.5" y="197" text-anchor="middle" font-size="9" fill="#6b7280">Hz</text>
  <text x="413" y="93.5" text-anchor="middle" font-size="9" fill="#6b7280" transform="rotate(-90 413 93.5)">Phase (deg)</text>
  <line x1="468.3" y1="16" x2="468.3" y2="171" stroke="#e5e7eb" stroke-width="0.5"/>
  <line x1="487.8" y1="16" x2="487.8" y2="171" stroke="#e5e7eb" stroke-width="0.5"/>
  <line x1="501.6" y1="16" x2="501.6" y2="171" stroke="#e5e7eb" stroke-width="0.5"/>
  <line x1="512.3" y1="16" x2="512.3" y2="171" stroke="#e5e7eb" stroke-width="0.5"/>
  <line x1="521.0" y1="16" x2="521.0" y2="171" stroke="#e5e7eb" stroke-width="0.5"/>
  <line x1="528.4" y1="16" x2="528.4" y2="171" stroke="#e5e7eb" stroke-width="0.5"/>
  <line x1="534.9" y1="16" x2="534.9" y2="171" stroke="#e5e7eb" stroke-width="0.5"/>
  <line x1="540.5" y1="16" x2="540.5" y2="171" stroke="#e5e7eb" stroke-width="0.5"/>
  <line x1="578.9" y1="16" x2="578.9" y2="171" stroke="#e5e7eb" stroke-width="0.5"/>
  <line x1="598.3" y1="16" x2="598.3" y2="171" stroke="#e5e7eb" stroke-width="0.5"/>
  <line x1="612.1" y1="16" x2="612.1" y2="171" stroke="#e5e7eb" stroke-width="0.5"/>
  <line x1="622.9" y1="16" x2="622.9" y2="171" stroke="#e5e7eb" stroke-width="0.5"/>
  <line x1="631.6" y1="16" x2="631.6" y2="171" stroke="#e5e7eb" stroke-width="0.5"/>
  <line x1="639.0" y1="16" x2="639.0" y2="171" stroke="#e5e7eb" stroke-width="0.5"/>
  <line x1="645.4" y1="16" x2="645.4" y2="171" stroke="#e5e7eb" stroke-width="0.5"/>
  <line x1="651.1" y1="16" x2="651.1" y2="171" stroke="#e5e7eb" stroke-width="0.5"/>
  <line x1="689.4" y1="16" x2="689.4" y2="171" stroke="#e5e7eb" stroke-width="0.5"/>
  <line x1="708.9" y1="16" x2="708.9" y2="171" stroke="#e5e7eb" stroke-width="0.5"/>
  <line x1="722.7" y1="16" x2="722.7" y2="171" stroke="#e5e7eb" stroke-width="0.5"/>
  <line x1="733.4" y1="16" x2="733.4" y2="171" stroke="#e5e7eb" stroke-width="0.5"/>
  <line x1="742.2" y1="16" x2="742.2" y2="171" stroke="#e5e7eb" stroke-width="0.5"/>
  <line x1="749.6" y1="16" x2="749.6" y2="171" stroke="#e5e7eb" stroke-width="0.5"/>
  <line x1="756.0" y1="16" x2="756.0" y2="171" stroke="#e5e7eb" stroke-width="0.5"/>
  <line x1="761.7" y1="16" x2="761.7" y2="171" stroke="#e5e7eb" stroke-width="0.5"/>
  <line x1="800.0" y1="16" x2="800.0" y2="171" stroke="#e5e7eb" stroke-width="0.5"/>
  <line x1="545.6" y1="16" x2="545.6" y2="171" stroke="#e5e7eb" stroke-width="0.5"/>
  <text x="545.6" y="183" text-anchor="middle" font-size="8" fill="#6b7280">100</text>
  <line x1="656.1" y1="16" x2="656.1" y2="171" stroke="#e5e7eb" stroke-width="0.5"/>
  <text x="656.1" y="183" text-anchor="middle" font-size="8" fill="#6b7280">1k</text>
  <line x1="766.7" y1="16" x2="766.7" y2="171" stroke="#e5e7eb" stroke-width="0.5"/>
  <text x="766.7" y="183" text-anchor="middle" font-size="8" fill="#6b7280">10k</text>
  <line x1="435" y1="54.8" x2="800" y2="54.8" stroke="#e5e7eb" stroke-width="0.5"/>
  <line x1="435" y1="132.3" x2="800" y2="132.3" stroke="#e5e7eb" stroke-width="0.5"/>
  <line x1="435" y1="16.0" x2="800" y2="16.0" stroke="#e5e7eb" stroke-width="0.5"/>
  <text x="431" y="19.0" text-anchor="end" font-size="8" fill="#6b7280">180</text>
  <text x="431" y="96.5" text-anchor="end" font-size="8" fill="#6b7280">0</text>
  <line x1="435" y1="171.0" x2="800" y2="171.0" stroke="#e5e7eb" stroke-width="0.5"/>
  <text x="431" y="174.0" text-anchor="end" font-size="8" fill="#6b7280">-180</text>
  <defs><linearGradient id="g680" x1="0" y1="16" x2="0" y2="93.5" gradientUnits="userSpaceOnUse">
    <stop offset="0%" stop-color="#e74c3c" stop-opacity="0.15"/>
    <stop offset="100%" stop-color="#e74c3c" stop-opacity="0.02"/>
  </linearGradient></defs>
  <defs><linearGradient id="g681" x1="0" y1="171" x2="0" y2="93.5" gradientUnits="userSpaceOnUse">
    <stop offset="0%" stop-color="#e74c3c" stop-opacity="0.15"/>
    <stop offset="100%" stop-color="#e74c3c" stop-opacity="0.02"/>
  </linearGradient></defs>
  <defs><clipPath id="c682"><rect x="435" y="16" width="365" height="77.5"/></clipPath></defs>
  <defs><clipPath id="c683"><rect x="435" y="93.5" width="365" height="77.5"/></clipPath></defs>
  <path d="M438.5,93.6 438.5,93.6 471.8,93.8 491.3,93.9 505.1,94.0 515.8,94.2 524.6,94.3 532.0,94.4 538.4,94.6 544.1,94.7 549.1,94.8 553.7,95.0 557.9,95.1 561.7,95.2 565.3,95.4 568.6,95.5 571.7,95.6 574.6,95.8 577.3,95.9 579.9,96.0 582.4,96.1 584.7,96.3 587.0,96.4 589.1,96.5 591.2,96.7 593.1,96.8 595.0,96.9 596.8,97.1 598.6,97.2 600.2,97.3 601.9,97.5 603.4,97.6 605.0,97.7 606.5,97.9 607.9,98.0 609.3,98.1 610.6,98.3 611.9,98.4 613.2,98.5 614.5,98.7 615.7,98.8 616.9,98.9 618.0,99.1 619.2,99.2 620.3,99.3 621.3,99.5 622.4,99.6 623.4,99.7 624.4,99.9 625.4,100.0 626.4,100.1 627.4,100.3 628.3,100.4 629.2,100.5 630.1,100.7 631.0,100.8 631.8,100.9 632.7,101.0 633.5,101.2 634.4,101.3 635.2,101.4 636.7,101.7 638.3,102.0 639.7,102.2 641.2,102.5 642.6,102.8 643.9,103.0 645.2,103.3 646.5,103.6 647.8,103.8 649.0,104.1 650.2,104.4 651.3,104.6 652.4,104.9 653.6,105.2 654.6,105.4 655.7,105.7 656.7,105.9 657.7,106.2 658.7,106.5 659.7,106.7 660.6,107.0 661.6,107.3 662.5,107.5 663.4,107.8 664.3,108.1 665.1,108.3 666.0,108.6 666.8,108.9 667.6,109.1 668.4,109.4 669.6,109.8 670.8,110.2 671.9,110.6 673.0,111.0 674.1,111.4 675.2,111.8 676.2,112.2 677.2,112.6 678.2,113.0 679.2,113.4 680.1,113.8 681.0,114.2 682.0,114.6 682.9,115.0 683.7,115.4 684.6,115.8 685.5,116.1 686.3,116.5 687.1,116.9 687.9,117.3 689.0,117.9 690.0,118.4 691.0,118.9 692.0,119.5 693.0,120.0 693.9,120.5 694.9,121.0 695.8,121.6 696.7,122.1 697.6,122.6 698.4,123.2 699.3,123.7 700.1,124.2 700.9,124.8 701.7,125.3 702.7,125.9 703.7,126.6 704.6,127.3 705.6,127.9 706.5,128.6 707.4,129.3 708.3,129.9 709.1,130.6 710.0,131.2 710.8,131.9 711.6,132.6 712.4,133.2 713.4,134.0 714.3,134.8 715.2,135.6 716.1,136.4 717.0,137.2 717.9,138.0 718.7,138.8 719.6,139.6 720.4,140.4 721.2,141.2 722.1,142.1 723.0,143.0 723.9,144.0 724.8,144.9 725.7,145.8 726.5,146.7 727.3,147.7 728.1,148.6 728.9,149.5 729.8,150.6 730.7,151.6 731.6,152.7 732.4,153.7 733.3,154.8 734.1,155.9 734.9,156.9 735.8,158.1 736.7,159.3 737.5,160.5 738.4,161.7 739.2,162.9 740.0,164.0 740.8,165.2 741.7,166.5 742.6,167.9 743.4,169.2 744.3,170.5 745.1,16.8 745.9,18.1 746.8,19.6 747.6,21.0 748.5,22.4 749.3,23.9 750.1,25.3 751.0,26.9 751.8,28.5 752.7,30.0 753.5,31.6 754.3,33.1 755.1,34.8 756.0,36.5 756.8,38.2 757.6,39.8 758.5,41.5 759.3,43.3 760.1,45.1 761.0,46.9 761.8,48.6 762.6,50.5 763.5,52.4 764.3,54.3 765.1,56.2 765.9,58.2 766.8,60.1 767.6,62.1 768.4,64.1 769.2,66.1 770.1,68.2 770.9,70.2 771.7,72.4 772.6,74.5 773.4,76.6 774.2,78.7 775.0,80.9 775.8,83.1 776.6,85.3 777.5,87.5 778.3,89.7 779.1,92.0 779.9,94.3 780.7,96.5 781.5,98.8 782.4,101.1 783.2,103.5 784.0,105.7 784.8,108.1 785.6,110.5 786.5,112.9 787.3,115.3 788.1,117.6 788.9,120.1 789.7,122.5 790.5,125.0 791.3,127.4 792.2,130.0 793.0,132.4 793.8,134.9 794.6,137.5 795.4,140.0 796.2,142.6 797.0,145.1 797.8,147.8 798.6,150.4 799.5,153.0 L799.5,93.5 L438.5,93.5 Z" fill="url(#g680)" clip-path="url(#c682)"/>
  <path d="M438.5,93.6 438.5,93.6 471.8,93.8 491.3,93.9 505.1,94.0 515.8,94.2 524.6,94.3 532.0,94.4 538.4,94.6 544.1,94.7 549.1,94.8 553.7,95.0 557.9,95.1 561.7,95.2 565.3,95.4 568.6,95.5 571.7,95.6 574.6,95.8 577.3,95.9 579.9,96.0 582.4,96.1 584.7,96.3 587.0,96.4 589.1,96.5 591.2,96.7 593.1,96.8 595.0,96.9 596.8,97.1 598.6,97.2 600.2,97.3 601.9,97.5 603.4,97.6 605.0,97.7 606.5,97.9 607.9,98.0 609.3,98.1 610.6,98.3 611.9,98.4 613.2,98.5 614.5,98.7 615.7,98.8 616.9,98.9 618.0,99.1 619.2,99.2 620.3,99.3 621.3,99.5 622.4,99.6 623.4,99.7 624.4,99.9 625.4,100.0 626.4,100.1 627.4,100.3 628.3,100.4 629.2,100.5 630.1,100.7 631.0,100.8 631.8,100.9 632.7,101.0 633.5,101.2 634.4,101.3 635.2,101.4 636.7,101.7 638.3,102.0 639.7,102.2 641.2,102.5 642.6,102.8 643.9,103.0 645.2,103.3 646.5,103.6 647.8,103.8 649.0,104.1 650.2,104.4 651.3,104.6 652.4,104.9 653.6,105.2 654.6,105.4 655.7,105.7 656.7,105.9 657.7,106.2 658.7,106.5 659.7,106.7 660.6,107.0 661.6,107.3 662.5,107.5 663.4,107.8 664.3,108.1 665.1,108.3 666.0,108.6 666.8,108.9 667.6,109.1 668.4,109.4 669.6,109.8 670.8,110.2 671.9,110.6 673.0,111.0 674.1,111.4 675.2,111.8 676.2,112.2 677.2,112.6 678.2,113.0 679.2,113.4 680.1,113.8 681.0,114.2 682.0,114.6 682.9,115.0 683.7,115.4 684.6,115.8 685.5,116.1 686.3,116.5 687.1,116.9 687.9,117.3 689.0,117.9 690.0,118.4 691.0,118.9 692.0,119.5 693.0,120.0 693.9,120.5 694.9,121.0 695.8,121.6 696.7,122.1 697.6,122.6 698.4,123.2 699.3,123.7 700.1,124.2 700.9,124.8 701.7,125.3 702.7,125.9 703.7,126.6 704.6,127.3 705.6,127.9 706.5,128.6 707.4,129.3 708.3,129.9 709.1,130.6 710.0,131.2 710.8,131.9 711.6,132.6 712.4,133.2 713.4,134.0 714.3,134.8 715.2,135.6 716.1,136.4 717.0,137.2 717.9,138.0 718.7,138.8 719.6,139.6 720.4,140.4 721.2,141.2 722.1,142.1 723.0,143.0 723.9,144.0 724.8,144.9 725.7,145.8 726.5,146.7 727.3,147.7 728.1,148.6 728.9,149.5 729.8,150.6 730.7,151.6 731.6,152.7 732.4,153.7 733.3,154.8 734.1,155.9 734.9,156.9 735.8,158.1 736.7,159.3 737.5,160.5 738.4,161.7 739.2,162.9 740.0,164.0 740.8,165.2 741.7,166.5 742.6,167.9 743.4,169.2 744.3,170.5 745.1,16.8 745.9,18.1 746.8,19.6 747.6,21.0 748.5,22.4 749.3,23.9 750.1,25.3 751.0,26.9 751.8,28.5 752.7,30.0 753.5,31.6 754.3,33.1 755.1,34.8 756.0,36.5 756.8,38.2 757.6,39.8 758.5,41.5 759.3,43.3 760.1,45.1 761.0,46.9 761.8,48.6 762.6,50.5 763.5,52.4 764.3,54.3 765.1,56.2 765.9,58.2 766.8,60.1 767.6,62.1 768.4,64.1 769.2,66.1 770.1,68.2 770.9,70.2 771.7,72.4 772.6,74.5 773.4,76.6 774.2,78.7 775.0,80.9 775.8,83.1 776.6,85.3 777.5,87.5 778.3,89.7 779.1,92.0 779.9,94.3 780.7,96.5 781.5,98.8 782.4,101.1 783.2,103.5 784.0,105.7 784.8,108.1 785.6,110.5 786.5,112.9 787.3,115.3 788.1,117.6 788.9,120.1 789.7,122.5 790.5,125.0 791.3,127.4 792.2,130.0 793.0,132.4 793.8,134.9 794.6,137.5 795.4,140.0 796.2,142.6 797.0,145.1 797.8,147.8 798.6,150.4 799.5,153.0 L799.5,93.5 L438.5,93.5 Z" fill="url(#g681)" clip-path="url(#c683)"/>
  <defs><clipPath id="pc684"><rect x="435" y="16" width="365" height="155"/></clipPath></defs>
  <polyline points="438.5,93.6 471.8,93.8 491.3,93.9 505.1,94.0 515.8,94.2 524.6,94.3 532.0,94.4 538.4,94.6 544.1,94.7 549.1,94.8 553.7,95.0 557.9,95.1 561.7,95.2 565.3,95.4 568.6,95.5 571.7,95.6 574.6,95.8 577.3,95.9 579.9,96.0 582.4,96.1 584.7,96.3 587.0,96.4 589.1,96.5 591.2,96.7 593.1,96.8 595.0,96.9 596.8,97.1 598.6,97.2 600.2,97.3 601.9,97.5 603.4,97.6 605.0,97.7 606.5,97.9 607.9,98.0 609.3,98.1 610.6,98.3 611.9,98.4 613.2,98.5 614.5,98.7 615.7,98.8 616.9,98.9 618.0,99.1 619.2,99.2 620.3,99.3 621.3,99.5 622.4,99.6 623.4,99.7 624.4,99.9 625.4,100.0 626.4,100.1 627.4,100.3 628.3,100.4 629.2,100.5 630.1,100.7 631.0,100.8 631.8,100.9 632.7,101.0 633.5,101.2 634.4,101.3 635.2,101.4 636.7,101.7 638.3,102.0 639.7,102.2 641.2,102.5 642.6,102.8 643.9,103.0 645.2,103.3 646.5,103.6 647.8,103.8 649.0,104.1 650.2,104.4 651.3,104.6 652.4,104.9 653.6,105.2 654.6,105.4 655.7,105.7 656.7,105.9 657.7,106.2 658.7,106.5 659.7,106.7 660.6,107.0 661.6,107.3 662.5,107.5 663.4,107.8 664.3,108.1 665.1,108.3 666.0,108.6 666.8,108.9 667.6,109.1 668.4,109.4 669.6,109.8 670.8,110.2 671.9,110.6 673.0,111.0 674.1,111.4 675.2,111.8 676.2,112.2 677.2,112.6 678.2,113.0 679.2,113.4 680.1,113.8 681.0,114.2 682.0,114.6 682.9,115.0 683.7,115.4 684.6,115.8 685.5,116.1 686.3,116.5 687.1,116.9 687.9,117.3 689.0,117.9 690.0,118.4 691.0,118.9 692.0,119.5 693.0,120.0 693.9,120.5 694.9,121.0 695.8,121.6 696.7,122.1 697.6,122.6 698.4,123.2 699.3,123.7 700.1,124.2 700.9,124.8 701.7,125.3 702.7,125.9 703.7,126.6 704.6,127.3 705.6,127.9 706.5,128.6 707.4,129.3 708.3,129.9 709.1,130.6 710.0,131.2 710.8,131.9 711.6,132.6 712.4,133.2 713.4,134.0 714.3,134.8 715.2,135.6 716.1,136.4 717.0,137.2 717.9,138.0 718.7,138.8 719.6,139.6 720.4,140.4 721.2,141.2 722.1,142.1 723.0,143.0 723.9,144.0 724.8,144.9 725.7,145.8 726.5,146.7 727.3,147.7 728.1,148.6 728.9,149.5 729.8,150.6 730.7,151.6 731.6,152.7 732.4,153.7 733.3,154.8 734.1,155.9 734.9,156.9 735.8,158.1 736.7,159.3 737.5,160.5 738.4,161.7 739.2,162.9 740.0,164.0 740.8,165.2 741.7,166.5 742.6,167.9 743.4,169.2 744.3,170.5 745.1,16.8 745.9,18.1 746.8,19.6 747.6,21.0 748.5,22.4 749.3,23.9 750.1,25.3 751.0,26.9 751.8,28.5 752.7,30.0 753.5,31.6 754.3,33.1 755.1,34.8 756.0,36.5 756.8,38.2 757.6,39.8 758.5,41.5 759.3,43.3 760.1,45.1 761.0,46.9 761.8,48.6 762.6,50.5 763.5,52.4 764.3,54.3 765.1,56.2 765.9,58.2 766.8,60.1 767.6,62.1 768.4,64.1 769.2,66.1 770.1,68.2 770.9,70.2 771.7,72.4 772.6,74.5 773.4,76.6 774.2,78.7 775.0,80.9 775.8,83.1 776.6,85.3 777.5,87.5 778.3,89.7 779.1,92.0 779.9,94.3 780.7,96.5 781.5,98.8 782.4,101.1 783.2,103.5 784.0,105.7 784.8,108.1 785.6,110.5 786.5,112.9 787.3,115.3 788.1,117.6 788.9,120.1 789.7,122.5 790.5,125.0 791.3,127.4 792.2,130.0 793.0,132.4 793.8,134.9 794.6,137.5 795.4,140.0 796.2,142.6 797.0,145.1 797.8,147.8 798.6,150.4 799.5,153.0" fill="none" stroke="#e74c3c" stroke-width="1.5" stroke-linejoin="round" clip-path="url(#pc684)"/>
  <line x1="34" y1="207" x2="34" y2="362" stroke="#d1d5db"/>
  <line x1="34" y1="284.5" x2="399" y2="284.5" stroke="#d1d5db"/>
  <text x="216.5" y="388" text-anchor="middle" font-size="9" fill="#6b7280">Hz</text>
  <text x="12" y="284.5" text-anchor="middle" font-size="9" fill="#6b7280" transform="rotate(-90 12 284.5)">Group delay</text>
  <line x1="67.3" y1="207" x2="67.3" y2="362" stroke="#e5e7eb" stroke-width="0.5"/>
  <line x1="86.8" y1="207" x2="86.8" y2="362" stroke="#e5e7eb" stroke-width="0.5"/>
  <line x1="100.6" y1="207" x2="100.6" y2="362" stroke="#e5e7eb" stroke-width="0.5"/>
  <line x1="111.3" y1="207" x2="111.3" y2="362" stroke="#e5e7eb" stroke-width="0.5"/>
  <line x1="120.0" y1="207" x2="120.0" y2="362" stroke="#e5e7eb" stroke-width="0.5"/>
  <line x1="127.4" y1="207" x2="127.4" y2="362" stroke="#e5e7eb" stroke-width="0.5"/>
  <line x1="133.9" y1="207" x2="133.9" y2="362" stroke="#e5e7eb" stroke-width="0.5"/>
  <line x1="139.5" y1="207" x2="139.5" y2="362" stroke="#e5e7eb" stroke-width="0.5"/>
  <line x1="177.9" y1="207" x2="177.9" y2="362" stroke="#e5e7eb" stroke-width="0.5"/>
  <line x1="197.3" y1="207" x2="197.3" y2="362" stroke="#e5e7eb" stroke-width="0.5"/>
  <line x1="211.1" y1="207" x2="211.1" y2="362" stroke="#e5e7eb" stroke-width="0.5"/>
  <line x1="221.9" y1="207" x2="221.9" y2="362" stroke="#e5e7eb" stroke-width="0.5"/>
  <line x1="230.6" y1="207" x2="230.6" y2="362" stroke="#e5e7eb" stroke-width="0.5"/>
  <line x1="238.0" y1="207" x2="238.0" y2="362" stroke="#e5e7eb" stroke-width="0.5"/>
  <line x1="244.4" y1="207" x2="244.4" y2="362" stroke="#e5e7eb" stroke-width="0.5"/>
  <line x1="250.1" y1="207" x2="250.1" y2="362" stroke="#e5e7eb" stroke-width="0.5"/>
  <line x1="288.4" y1="207" x2="288.4" y2="362" stroke="#e5e7eb" stroke-width="0.5"/>
  <line x1="307.9" y1="207" x2="307.9" y2="362" stroke="#e5e7eb" stroke-width="0.5"/>
  <line x1="321.7" y1="207" x2="321.7" y2="362" stroke="#e5e7eb" stroke-width="0.5"/>
  <line x1="332.4" y1="207" x2="332.4" y2="362" stroke="#e5e7eb" stroke-width="0.5"/>
  <line x1="341.2" y1="207" x2="341.2" y2="362" stroke="#e5e7eb" stroke-width="0.5"/>
  <line x1="348.6" y1="207" x2="348.6" y2="362" stroke="#e5e7eb" stroke-width="0.5"/>
  <line x1="355.0" y1="207" x2="355.0" y2="362" stroke="#e5e7eb" stroke-width="0.5"/>
  <line x1="360.7" y1="207" x2="360.7" y2="362" stroke="#e5e7eb" stroke-width="0.5"/>
  <line x1="399.0" y1="207" x2="399.0" y2="362" stroke="#e5e7eb" stroke-width="0.5"/>
  <line x1="144.6" y1="207" x2="144.6" y2="362" stroke="#e5e7eb" stroke-width="0.5"/>
  <text x="144.6" y="374" text-anchor="middle" font-size="8" fill="#6b7280">100</text>
  <line x1="255.1" y1="207" x2="255.1" y2="362" stroke="#e5e7eb" stroke-width="0.5"/>
  <text x="255.1" y="374" text-anchor="middle" font-size="8" fill="#6b7280">1k</text>
  <line x1="365.7" y1="207" x2="365.7" y2="362" stroke="#e5e7eb" stroke-width="0.5"/>
  <text x="365.7" y="374" text-anchor="middle" font-size="8" fill="#6b7280">10k</text>
  <line x1="34" y1="335.6" x2="399" y2="335.6" stroke="#e5e7eb" stroke-width="0.5"/>
  <text x="30" y="338.6" text-anchor="end" font-size="8" fill="#6b7280">-3</text>
  <text x="30" y="287.5" text-anchor="end" font-size="8" fill="#6b7280">0</text>
  <line x1="34" y1="233.4" x2="399" y2="233.4" stroke="#e5e7eb" stroke-width="0.5"/>
  <text x="30" y="236.4" text-anchor="end" font-size="8" fill="#6b7280">3</text>
  <defs><linearGradient id="g685" x1="0" y1="207" x2="0" y2="284.5" gradientUnits="userSpaceOnUse">
    <stop offset="0%" stop-color="#2ecc71" stop-opacity="0.15"/>
    <stop offset="100%" stop-color="#2ecc71" stop-opacity="0.02"/>
  </linearGradient></defs>
  <path d="M37.5,224.9 37.5,224.9 70.8,224.9 90.3,224.9 104.1,224.9 114.8,224.9 123.6,224.9 131.0,224.9 137.4,224.9 143.1,224.9 148.1,224.9 152.7,224.9 156.9,224.9 160.7,224.9 164.3,224.9 167.6,224.9 170.7,224.9 173.6,224.9 176.3,224.9 178.9,224.9 181.4,224.9 183.7,224.9 186.0,224.9 188.1,224.9 190.2,224.9 192.1,224.9 194.0,224.9 195.8,224.9 197.6,224.9 199.2,224.9 200.9,224.9 202.4,224.9 204.0,224.9 205.5,224.9 206.9,224.9 208.3,224.9 209.6,224.9 210.9,224.9 212.2,224.9 213.5,224.9 214.7,224.9 215.9,224.9 217.0,224.9 218.2,224.9 219.3,224.9 220.3,224.9 221.4,224.9 222.4,224.9 223.4,224.9 224.4,224.9 225.4,224.9 226.4,224.9 227.3,224.9 228.2,224.9 229.1,224.9 230.0,224.9 230.8,224.9 231.7,224.9 232.5,224.9 233.4,224.9 234.2,224.9 235.7,224.9 237.3,224.9 238.7,224.9 240.2,224.9 241.6,224.9 242.9,224.9 244.2,224.9 245.5,224.9 246.8,224.9 248.0,224.9 249.2,224.9 250.3,224.9 251.4,224.9 252.6,224.9 253.6,224.9 254.7,224.9 255.7,224.9 256.7,224.9 257.7,224.9 258.7,224.9 259.6,224.9 260.6,224.9 261.5,224.9 262.4,224.9 263.3,224.9 264.1,224.9 265.0,224.9 265.8,224.9 266.6,224.9 267.4,224.9 268.6,224.9 269.8,224.9 270.9,224.9 272.0,224.9 273.1,224.9 274.2,224.9 275.2,224.9 276.2,224.9 277.2,224.9 278.2,224.9 279.1,224.9 280.0,224.9 281.0,224.9 281.9,224.9 282.7,224.9 283.6,224.9 284.5,224.9 285.3,224.9 286.1,224.9 286.9,224.9 288.0,224.9 289.0,224.9 290.0,224.9 291.0,224.9 292.0,224.9 292.9,224.9 293.9,224.9 294.8,224.9 295.7,224.9 296.6,224.9 297.4,224.9 298.3,224.9 299.1,224.9 299.9,224.9 300.7,224.9 301.7,224.9 302.7,224.9 303.6,224.9 304.6,224.9 305.5,224.9 306.4,224.9 307.3,224.9 308.1,224.9 309.0,224.9 309.8,224.9 310.6,224.9 311.4,224.9 312.4,224.9 313.3,224.9 314.2,224.9 315.1,224.9 316.0,224.9 316.9,224.9 317.7,224.9 318.6,224.9 319.4,224.9 320.2,224.9 321.1,224.9 322.0,224.9 322.9,224.9 323.8,224.9 324.7,224.9 325.5,224.9 326.3,224.9 327.1,225.0 327.9,225.0 328.8,225.0 329.7,225.0 330.6,225.0 331.4,225.0 332.3,225.0 333.1,225.0 333.9,225.0 334.8,225.1 335.7,225.1 336.5,225.1 337.4,225.1 338.2,225.1 339.0,225.2 339.8,225.2 340.7,225.2 341.6,225.3 342.4,225.3 343.3,225.3 344.1,225.4 344.9,225.4 345.8,225.5 346.6,225.5 347.5,225.6 348.3,225.7 349.1,225.7 350.0,225.8 350.8,225.9 351.7,226.0 352.5,226.1 353.3,226.2 354.1,226.3 355.0,226.4 355.8,226.6 356.6,226.7 357.5,226.8 358.3,227.0 359.1,227.2 360.0,227.4 360.8,227.6 361.6,227.8 362.5,228.0 363.3,228.2 364.1,228.5 364.9,228.7 365.8,229.0 366.6,229.3 367.4,229.6 368.2,229.9 369.1,230.3 369.9,230.6 370.7,231.0 371.6,231.4 372.4,231.8 373.2,232.2 374.0,232.6 374.8,233.1 375.6,233.5 376.5,234.0 377.3,234.4 378.1,234.9 378.9,235.4 379.7,235.9 380.5,236.4 381.4,236.9 382.2,237.4 383.0,237.9 383.8,238.4 384.6,238.9 385.5,239.4 386.3,239.9 387.1,240.4 387.9,240.8 388.7,241.3 389.5,241.8 390.3,242.2 391.2,242.7 392.0,243.1 392.8,243.5 393.6,243.9 394.4,244.2 395.2,244.6 396.0,244.9 396.8,245.2 397.6,245.4 398.5,245.7 L398.5,284.5 L37.5,284.5 Z" fill="url(#g685)"/>
  <defs><clipPath id="pc686"><rect x="34" y="207" width="365" height="155"/></clipPath></defs>
  <polyline points="37.5,224.9 70.8,224.9 90.3,224.9 104.1,224.9 114.8,224.9 123.6,224.9 131.0,224.9 137.4,224.9 143.1,224.9 148.1,224.9 152.7,224.9 156.9,224.9 160.7,224.9 164.3,224.9 167.6,224.9 170.7,224.9 173.6,224.9 176.3,224.9 178.9,224.9 181.4,224.9 183.7,224.9 186.0,224.9 188.1,224.9 190.2,224.9 192.1,224.9 194.0,224.9 195.8,224.9 197.6,224.9 199.2,224.9 200.9,224.9 202.4,224.9 204.0,224.9 205.5,224.9 206.9,224.9 208.3,224.9 209.6,224.9 210.9,224.9 212.2,224.9 213.5,224.9 214.7,224.9 215.9,224.9 217.0,224.9 218.2,224.9 219.3,224.9 220.3,224.9 221.4,224.9 222.4,224.9 223.4,224.9 224.4,224.9 225.4,224.9 226.4,224.9 227.3,224.9 228.2,224.9 229.1,224.9 230.0,224.9 230.8,224.9 231.7,224.9 232.5,224.9 233.4,224.9 234.2,224.9 235.7,224.9 237.3,224.9 238.7,224.9 240.2,224.9 241.6,224.9 242.9,224.9 244.2,224.9 245.5,224.9 246.8,224.9 248.0,224.9 249.2,224.9 250.3,224.9 251.4,224.9 252.6,224.9 253.6,224.9 254.7,224.9 255.7,224.9 256.7,224.9 257.7,224.9 258.7,224.9 259.6,224.9 260.6,224.9 261.5,224.9 262.4,224.9 263.3,224.9 264.1,224.9 265.0,224.9 265.8,224.9 266.6,224.9 267.4,224.9 268.6,224.9 269.8,224.9 270.9,224.9 272.0,224.9 273.1,224.9 274.2,224.9 275.2,224.9 276.2,224.9 277.2,224.9 278.2,224.9 279.1,224.9 280.0,224.9 281.0,224.9 281.9,224.9 282.7,224.9 283.6,224.9 284.5,224.9 285.3,224.9 286.1,224.9 286.9,224.9 288.0,224.9 289.0,224.9 290.0,224.9 291.0,224.9 292.0,224.9 292.9,224.9 293.9,224.9 294.8,224.9 295.7,224.9 296.6,224.9 297.4,224.9 298.3,224.9 299.1,224.9 299.9,224.9 300.7,224.9 301.7,224.9 302.7,224.9 303.6,224.9 304.6,224.9 305.5,224.9 306.4,224.9 307.3,224.9 308.1,224.9 309.0,224.9 309.8,224.9 310.6,224.9 311.4,224.9 312.4,224.9 313.3,224.9 314.2,224.9 315.1,224.9 316.0,224.9 316.9,224.9 317.7,224.9 318.6,224.9 319.4,224.9 320.2,224.9 321.1,224.9 322.0,224.9 322.9,224.9 323.8,224.9 324.7,224.9 325.5,224.9 326.3,224.9 327.1,225.0 327.9,225.0 328.8,225.0 329.7,225.0 330.6,225.0 331.4,225.0 332.3,225.0 333.1,225.0 333.9,225.0 334.8,225.1 335.7,225.1 336.5,225.1 337.4,225.1 338.2,225.1 339.0,225.2 339.8,225.2 340.7,225.2 341.6,225.3 342.4,225.3 343.3,225.3 344.1,225.4 344.9,225.4 345.8,225.5 346.6,225.5 347.5,225.6 348.3,225.7 349.1,225.7 350.0,225.8 350.8,225.9 351.7,226.0 352.5,226.1 353.3,226.2 354.1,226.3 355.0,226.4 355.8,226.6 356.6,226.7 357.5,226.8 358.3,227.0 359.1,227.2 360.0,227.4 360.8,227.6 361.6,227.8 362.5,228.0 363.3,228.2 364.1,228.5 364.9,228.7 365.8,229.0 366.6,229.3 367.4,229.6 368.2,229.9 369.1,230.3 369.9,230.6 370.7,231.0 371.6,231.4 372.4,231.8 373.2,232.2 374.0,232.6 374.8,233.1 375.6,233.5 376.5,234.0 377.3,234.4 378.1,234.9 378.9,235.4 379.7,235.9 380.5,236.4 381.4,236.9 382.2,237.4 383.0,237.9 383.8,238.4 384.6,238.9 385.5,239.4 386.3,239.9 387.1,240.4 387.9,240.8 388.7,241.3 389.5,241.8 390.3,242.2 391.2,242.7 392.0,243.1 392.8,243.5 393.6,243.9 394.4,244.2 395.2,244.6 396.0,244.9 396.8,245.2 397.6,245.4 398.5,245.7" fill="none" stroke="#2ecc71" stroke-width="1.5" stroke-linejoin="round" clip-path="url(#pc686)"/>
  <line x1="435" y1="207" x2="435" y2="362" stroke="#d1d5db"/>
  <line x1="435" y1="284.5" x2="800" y2="284.5" stroke="#d1d5db"/>
  <text x="617.5" y="388" text-anchor="middle" font-size="9" fill="#6b7280">Samples</text>
  <text x="413" y="284.5" text-anchor="middle" font-size="9" fill="#6b7280" transform="rotate(-90 413 284.5)">Impulse response</text>
  <line x1="435.0" y1="207" x2="435.0" y2="362" stroke="#e5e7eb" stroke-width="0.5"/>
  <text x="435.0" y="374" text-anchor="middle" font-size="8" fill="#6b7280">0</text>
  <line x1="606.1" y1="207" x2="606.1" y2="362" stroke="#e5e7eb" stroke-width="0.5"/>
  <text x="606.1" y="374" text-anchor="middle" font-size="8" fill="#6b7280">30</text>
  <line x1="777.2" y1="207" x2="777.2" y2="362" stroke="#e5e7eb" stroke-width="0.5"/>
  <text x="777.2" y="374" text-anchor="middle" font-size="8" fill="#6b7280">60</text>
  <line x1="435" y1="336.7" x2="800" y2="336.7" stroke="#e5e7eb" stroke-width="0.5"/>
  <text x="431" y="339.7" text-anchor="end" font-size="8" fill="#6b7280">-0.6</text>
  <text x="431" y="287.5" text-anchor="end" font-size="8" fill="#6b7280">0</text>
  <line x1="435" y1="232.3" x2="800" y2="232.3" stroke="#e5e7eb" stroke-width="0.5"/>
  <text x="431" y="235.3" text-anchor="end" font-size="8" fill="#6b7280">0.6</text>
  <defs><linearGradient id="g687" x1="0" y1="207" x2="0" y2="284.5" gradientUnits="userSpaceOnUse">
    <stop offset="0%" stop-color="#f39c12" stop-opacity="0.15"/>
    <stop offset="100%" stop-color="#f39c12" stop-opacity="0.02"/>
  </linearGradient></defs>
  <defs><linearGradient id="g688" x1="0" y1="362" x2="0" y2="284.5" gradientUnits="userSpaceOnUse">
    <stop offset="0%" stop-color="#f39c12" stop-opacity="0.15"/>
    <stop offset="100%" stop-color="#f39c12" stop-opacity="0.02"/>
  </linearGradient></defs>
  <defs><clipPath id="c689"><rect x="435" y="207" width="365" height="77.5"/></clipPath></defs>
  <defs><clipPath id="c690"><rect x="435" y="284.5" width="365" height="77.5"/></clipPath></defs>
  <path d="M435.0,285.5 435.0,285.5 440.7,276.9 446.4,310.9 452.1,207.0 457.8,256.2 463.5,282.4 469.2,285.5 474.9,284.7 480.6,284.4 486.3,284.5 492.0,284.5 497.7,284.5 503.4,284.5 509.1,284.5 514.8,284.5 520.5,284.5 526.3,284.5 532.0,284.5 537.7,284.5 543.4,284.5 549.1,284.5 554.8,284.5 560.5,284.5 566.2,284.5 571.9,284.5 577.6,284.5 583.3,284.5 589.0,284.5 594.7,284.5 600.4,284.5 606.1,284.5 611.8,284.5 617.5,284.5 623.2,284.5 628.9,284.5 634.6,284.5 640.3,284.5 646.0,284.5 651.7,284.5 657.4,284.5 663.1,284.5 668.8,284.5 674.5,284.5 680.2,284.5 685.9,284.5 691.6,284.5 697.3,284.5 703.0,284.5 708.8,284.5 714.5,284.5 720.2,284.5 725.9,284.5 731.6,284.5 737.3,284.5 743.0,284.5 748.7,284.5 754.4,284.5 760.1,284.5 765.8,284.5 771.5,284.5 777.2,284.5 782.9,284.5 788.6,284.5 794.3,284.5 L794.3,284.5 L435.0,284.5 Z" fill="url(#g687)" clip-path="url(#c689)"/>
  <path d="M435.0,285.5 435.0,285.5 440.7,276.9 446.4,310.9 452.1,207.0 457.8,256.2 463.5,282.4 469.2,285.5 474.9,284.7 480.6,284.4 486.3,284.5 492.0,284.5 497.7,284.5 503.4,284.5 509.1,284.5 514.8,284.5 520.5,284.5 526.3,284.5 532.0,284.5 537.7,284.5 543.4,284.5 549.1,284.5 554.8,284.5 560.5,284.5 566.2,284.5 571.9,284.5 577.6,284.5 583.3,284.5 589.0,284.5 594.7,284.5 600.4,284.5 606.1,284.5 611.8,284.5 617.5,284.5 623.2,284.5 628.9,284.5 634.6,284.5 640.3,284.5 646.0,284.5 651.7,284.5 657.4,284.5 663.1,284.5 668.8,284.5 674.5,284.5 680.2,284.5 685.9,284.5 691.6,284.5 697.3,284.5 703.0,284.5 708.8,284.5 714.5,284.5 720.2,284.5 725.9,284.5 731.6,284.5 737.3,284.5 743.0,284.5 748.7,284.5 754.4,284.5 760.1,284.5 765.8,284.5 771.5,284.5 777.2,284.5 782.9,284.5 788.6,284.5 794.3,284.5 L794.3,284.5 L435.0,284.5 Z" fill="url(#g688)" clip-path="url(#c690)"/>
  <defs><clipPath id="pc691"><rect x="435" y="207" width="365" height="155"/></clipPath></defs>
  <polyline points="435.0,285.5 440.7,276.9 446.4,310.9 452.1,207.0 457.8,256.2 463.5,282.4 469.2,285.5 474.9,284.7 480.6,284.4 486.3,284.5 492.0,284.5 497.7,284.5 503.4,284.5 509.1,284.5 514.8,284.5 520.5,284.5 526.3,284.5 532.0,284.5 537.7,284.5 543.4,284.5 549.1,284.5 554.8,284.5 560.5,284.5 566.2,284.5 571.9,284.5 577.6,284.5 583.3,284.5 589.0,284.5 594.7,284.5 600.4,284.5 606.1,284.5 611.8,284.5 617.5,284.5 623.2,284.5 628.9,284.5 634.6,284.5 640.3,284.5 646.0,284.5 651.7,284.5 657.4,284.5 663.1,284.5 668.8,284.5 674.5,284.5 680.2,284.5 685.9,284.5 691.6,284.5 697.3,284.5 703.0,284.5 708.8,284.5 714.5,284.5 720.2,284.5 725.9,284.5 731.6,284.5 737.3,284.5 743.0,284.5 748.7,284.5 754.4,284.5 760.1,284.5 765.8,284.5 771.5,284.5 777.2,284.5 782.9,284.5 788.6,284.5 794.3,284.5" fill="none" stroke="#f39c12" stroke-width="1.3" stroke-linejoin="round" clip-path="url(#pc691)"/>
</svg>
