<svg xmlns="http://www.w3.org/2000/svg" viewBox="0 0 820 378" style="font-family:system-ui,-apple-system,sans-serif">
  <text x="800" y="11" text-anchor="end" font-size="11" font-weight="600" fill="#6b7280">Variable bandwidth LP, fc=1kHz</text>
  <line x1="34" y1="16" x2="34" y2="171" stroke="#d1d5db"/>
  <line x1="34" y1="47.0" x2="399" y2="47.0" stroke="#d1d5db"/>
  <text x="216.5" y="197" text-anchor="middle" font-size="9" fill="#6b7280">Hz</text>
  <text x="12" y="93.5" text-anchor="middle" font-size="9" fill="#6b7280" transform="rotate(-90 12 93.5)">dB</text>
  <line x1="67.3" y1="16" x2="67.3" y2="171" stroke="#e5e7eb" stroke-width="0.5"/>
  <line x1="86.8" y1="16" x2="86.8" y2="171" stroke="#e5e7eb" stroke-width="0.5"/>
  <line x1="100.6" y1="16" x2="100.6" y2="171" stroke="#e5e7eb" stroke-width="0.5"/>
  <line x1="111.3" y1="16" x2="111.3" y2="171" stroke="#e5e7eb" stroke-width="0.5"/>
  <line x1="120.0" y1="16" x2="120.0" y2="171" stroke="#e5e7eb" stroke-width="0.5"/>
  <line x1="127.4" y1="16" x2="127.4" y2="171" stroke="#e5e7eb" stroke-width="0.5"/>
  <line x1="133.9" y1="16" x2="133.9" y2="171" stroke="#e5e7eb" stroke-width="0.5"/>
  <line x1="139.5" y1="16" x2="139.5" y2="171" stroke="#e5e7eb" stroke-width="0.5"/>
  <line x1="177.9" y1="16" x2="177.9" y2="171" stroke="#e5e7eb" stroke-width="0.5"/>
  <line x1="197.3" y1="16" x2="197.3" y2="171" stroke="#e5e7eb" stroke-width="0.5"/>
  <line x1="211.1" y1="16" x2="211.1" y2="171" stroke="#e5e7eb" stroke-width="0.5"/>
  <line x1="221.9" y1="16" x2="221.9" y2="171" stroke="#e5e7eb" stroke-width="0.5"/>
  <line x1="230.6" y1="16" x2="230.6" y2="171" stroke="#e5e7eb" stroke-width="0.5"/>
  <line x1="238.0" y1="16" x2="238.0" y2="171" stroke="#e5e7eb" stroke-width="0.5"/>
  <line x1="244.4" y1="16" x2="244.4" y2="171" stroke="#e5e7eb" stroke-width="0.5"/>
  <line x1="250.1" y1="16" x2="250.1" y2="171" stroke="#e5e7eb" stroke-width="0.5"/>
  <line x1="288.4" y1="16" x2="288.4" y2="171" stroke="#e5e7eb" stroke-width="0.5"/>
  <line x1="307.9" y1="16" x2="307.9" y2="171" stroke="#e5e7eb" stroke-width="0.5"/>
  <line x1="321.7" y1="16" x2="321.7" y2="171" stroke="#e5e7eb" stroke-width="0.5"/>
  <line x1="332.4" y1="16" x2="332.4" y2="171" stroke="#e5e7eb" stroke-width="0.5"/>
  <line x1="341.2" y1="16" x2="341.2" y2="171" stroke="#e5e7eb" stroke-width="0.5"/>
  <line x1="348.6" y1="16" x2="348.6" y2="171" stroke="#e5e7eb" stroke-width="0.5"/>
  <line x1="355.0" y1="16" x2="355.0" y2="171" stroke="#e5e7eb" stroke-width="0.5"/>
  <line x1="360.7" y1="16" x2="360.7" y2="171" stroke="#e5e7eb" stroke-width="0.5"/>
  <line x1="399.0" y1="16" x2="399.0" y2="171" stroke="#e5e7eb" stroke-width="0.5"/>
  <line x1="144.6" y1="16" x2="144.6" y2="171" stroke="#e5e7eb" stroke-width="0.5"/>
  <text x="144.6" y="183" text-anchor="middle" font-size="8" fill="#6b7280">100</text>
  <line x1="255.1" y1="16" x2="255.1" y2="171" stroke="#e5e7eb" stroke-width="0.5"/>
  <text x="255.1" y="183" text-anchor="middle" font-size="8" fill="#6b7280">1k</text>
  <line x1="365.7" y1="16" x2="365.7" y2="171" stroke="#e5e7eb" stroke-width="0.5"/>
  <text x="365.7" y="183" text-anchor="middle" font-size="8" fill="#6b7280">10k</text>
  <line x1="34" y1="31.5" x2="399" y2="31.5" stroke="#e5e7eb" stroke-width="0.5"/>
  <line x1="34" y1="62.5" x2="399" y2="62.5" stroke="#e5e7eb" stroke-width="0.5"/>
  <line x1="34" y1="16.0" x2="399" y2="16.0" stroke="#e5e7eb" stroke-width="0.5"/>
  <text x="30" y="19.0" text-anchor="end" font-size="8" fill="#6b7280">+20</text>
  <text x="30" y="50.0" text-anchor="end" font-size="8" fill="#6b7280">0</text>
  <line x1="34" y1="78.0" x2="399" y2="78.0" stroke="#e5e7eb" stroke-width="0.5"/>
  <text x="30" y="81.0" text-anchor="end" font-size="8" fill="#6b7280">-20</text>
  <line x1="34" y1="109.0" x2="399" y2="109.0" stroke="#e5e7eb" stroke-width="0.5"/>
  <text x="30" y="112.0" text-anchor="end" font-size="8" fill="#6b7280">-40</text>
  <line x1="34" y1="140.0" x2="399" y2="140.0" stroke="#e5e7eb" stroke-width="0.5"/>
  <text x="30" y="143.0" text-anchor="end" font-size="8" fill="#6b7280">-60</text>
  <line x1="34" y1="171.0" x2="399" y2="171.0" stroke="#e5e7eb" stroke-width="0.5"/>
  <text x="30" y="174.0" text-anchor="end" font-size="8" fill="#6b7280">-80</text>
  <line x1="255.1" y1="16" x2="255.1" y2="171" stroke="#d1d5db" stroke-width="1" stroke-dasharray="4 3"/>
  <defs><linearGradient id="g724" x1="0" y1="16" x2="0" y2="171" gradientUnits="userSpaceOnUse">
    <stop offset="0%" stop-color="#4a90d9" stop-opacity="0.15"/>
    <stop offset="100%" stop-color="#4a90d9" stop-opacity="0.02"/>
  </linearGradient></defs>
  <path d="M37.5,47.0 37.5,47.0 70.8,47.0 90.3,47.0 104.1,47.0 114.8,47.0 123.6,47.0 131.0,47.0 137.4,47.0 143.1,47.0 148.1,47.0 152.7,47.0 156.9,47.0 160.7,47.0 164.3,47.0 167.6,47.0 170.7,47.0 173.6,47.0 176.3,47.0 178.9,47.0 181.4,47.0 183.7,47.0 186.0,47.0 188.1,47.0 190.2,47.0 192.1,47.0 194.0,47.0 195.8,47.0 197.6,47.1 199.2,47.1 200.9,47.1 202.4,47.1 204.0,47.1 205.5,47.1 206.9,47.1 208.3,47.1 209.6,47.1 210.9,47.2 212.2,47.2 213.5,47.2 214.7,47.2 215.9,47.3 217.0,47.3 218.2,47.3 219.3,47.3 220.3,47.4 221.4,47.4 222.4,47.4 223.4,47.5 224.4,47.5 225.4,47.5 226.4,47.6 227.3,47.6 228.2,47.7 229.1,47.7 230.0,47.8 230.8,47.8 231.7,47.9 232.5,48.0 233.4,48.0 234.2,48.1 235.7,48.2 237.3,48.4 238.7,48.5 240.2,48.7 241.6,48.9 242.9,49.1 244.2,49.3 245.5,49.5 246.8,49.7 248.0,49.9 249.2,50.2 250.3,50.4 251.4,50.7 252.6,51.0 253.6,51.3 254.7,51.5 255.7,51.8 256.7,52.1 257.7,52.4 258.7,52.7 259.6,53.1 260.6,53.4 261.5,53.7 262.4,54.0 263.3,54.3 264.1,54.7 265.0,55.0 265.8,55.3 266.6,55.7 267.4,56.0 268.6,56.5 269.8,57.0 270.9,57.5 272.0,58.0 273.1,58.5 274.2,59.0 275.2,59.5 276.2,59.9 277.2,60.4 278.2,60.9 279.1,61.4 280.0,61.8 281.0,62.3 281.9,62.8 282.7,63.2 283.6,63.7 284.5,64.1 285.3,64.5 286.1,65.0 286.9,65.4 288.0,66.0 289.0,66.5 290.0,67.1 291.0,67.6 292.0,68.1 292.9,68.6 293.9,69.1 294.8,69.7 295.7,70.1 296.6,70.6 297.4,71.1 298.3,71.6 299.1,72.1 299.9,72.5 300.7,73.0 301.7,73.5 302.7,74.1 303.6,74.6 304.6,75.1 305.5,75.7 306.4,76.2 307.3,76.7 308.1,77.2 309.0,77.6 309.8,78.1 310.6,78.6 311.4,79.1 312.4,79.6 313.3,80.2 314.2,80.7 315.1,81.2 316.0,81.7 316.9,82.2 317.7,82.7 318.6,83.2 319.4,83.7 320.2,84.2 321.1,84.7 322.0,85.2 322.9,85.8 323.8,86.3 324.7,86.8 325.5,87.3 326.3,87.8 327.1,88.3 327.9,88.8 328.8,89.3 329.7,89.8 330.6,90.4 331.4,90.9 332.3,91.4 333.1,91.9 333.9,92.4 334.8,92.9 335.7,93.5 336.5,94.0 337.4,94.5 338.2,95.1 339.0,95.6 339.8,96.1 340.7,96.6 341.6,97.2 342.4,97.7 343.3,98.2 344.1,98.8 344.9,99.3 345.8,99.9 346.6,100.4 347.5,101.0 348.3,101.5 349.1,102.1 350.0,102.6 350.8,103.2 351.7,103.8 352.5,104.4 353.3,104.9 354.1,105.5 355.0,106.1 355.8,106.7 356.6,107.3 357.5,107.9 358.3,108.5 359.1,109.1 360.0,109.7 360.8,110.3 361.6,110.9 362.5,111.6 363.3,112.2 364.1,112.8 364.9,113.5 365.8,114.2 366.6,114.9 367.4,115.5 368.2,116.2 369.1,116.9 369.9,117.6 370.7,118.4 371.6,119.1 372.4,119.9 373.2,120.6 374.0,121.4 374.8,122.2 375.6,123.0 376.5,123.8 377.3,124.7 378.1,125.5 378.9,126.4 379.7,127.4 380.5,128.3 381.4,129.3 382.2,130.3 383.0,131.3 383.8,132.3 384.6,133.4 385.5,134.6 386.3,135.8 387.1,137.0 387.9,138.4 388.7,139.7 389.5,141.2 390.3,142.7 391.2,144.4 392.0,146.1 392.8,147.9 393.6,149.9 394.4,152.0 395.2,154.4 396.0,157.0 396.8,159.9 397.6,163.1 398.5,166.9 L398.5,171.0 L37.5,171.0 Z" fill="url(#g724)"/>
  <defs><clipPath id="pc725"><rect x="34" y="16" width="365" height="155"/></clipPath></defs>
  <polyline points="37.5,47.0 70.8,47.0 90.3,47.0 104.1,47.0 114.8,47.0 123.6,47.0 131.0,47.0 137.4,47.0 143.1,47.0 148.1,47.0 152.7,47.0 156.9,47.0 160.7,47.0 164.3,47.0 167.6,47.0 170.7,47.0 173.6,47.0 176.3,47.0 178.9,47.0 181.4,47.0 183.7,47.0 186.0,47.0 188.1,47.0 190.2,47.0 192.1,47.0 194.0,47.0 195.8,47.0 197.6,47.1 199.2,47.1 200.9,47.1 202.4,47.1 204.0,47.1 205.5,47.1 206.9,47.1 208.3,47.1 209.6,47.1 210.9,47.2 212.2,47.2 213.5,47.2 214.7,47.2 215.9,47.3 217.0,47.3 218.2,47.3 219.3,47.3 220.3,47.4 221.4,47.4 222.4,47.4 223.4,47.5 224.4,47.5 225.4,47.5 226.4,47.6 227.3,47.6 228.2,47.7 229.1,47.7 230.0,47.8 230.8,47.8 231.7,47.9 232.5,48.0 233.4,48.0 234.2,48.1 235.7,48.2 237.3,48.4 238.7,48.5 240.2,48.7 241.6,48.9 242.9,49.1 244.2,49.3 245.5,49.5 246.8,49.7 248.0,49.9 249.2,50.2 250.3,50.4 251.4,50.7 252.6,51.0 253.6,51.3 254.7,51.5 255.7,51.8 256.7,52.1 257.7,52.4 258.7,52.7 259.6,53.1 260.6,53.4 261.5,53.7 262.4,54.0 263.3,54.3 264.1,54.7 265.0,55.0 265.8,55.3 266.6,55.7 267.4,56.0 268.6,56.5 269.8,57.0 270.9,57.5 272.0,58.0 273.1,58.5 274.2,59.0 275.2,59.5 276.2,59.9 277.2,60.4 278.2,60.9 279.1,61.4 280.0,61.8 281.0,62.3 281.9,62.8 282.7,63.2 283.6,63.7 284.5,64.1 285.3,64.5 286.1,65.0 286.9,65.4 288.0,66.0 289.0,66.5 290.0,67.1 291.0,67.6 292.0,68.1 292.9,68.6 293.9,69.1 294.8,69.7 295.7,70.1 296.6,70.6 297.4,71.1 298.3,71.6 299.1,72.1 299.9,72.5 300.7,73.0 301.7,73.5 302.7,74.1 303.6,74.6 304.6,75.1 305.5,75.7 306.4,76.2 307.3,76.7 308.1,77.2 309.0,77.6 309.8,78.1 310.6,78.6 311.4,79.1 312.4,79.6 313.3,80.2 314.2,80.7 315.1,81.2 316.0,81.7 316.9,82.2 317.7,82.7 318.6,83.2 319.4,83.7 320.2,84.2 321.1,84.7 322.0,85.2 322.9,85.8 323.8,86.3 324.7,86.8 325.5,87.3 326.3,87.8 327.1,88.3 327.9,88.8 328.8,89.3 329.7,89.8 330.6,90.4 331.4,90.9 332.3,91.4 333.1,91.9 333.9,92.4 334.8,92.9 335.7,93.5 336.5,94.0 337.4,94.5 338.2,95.1 339.0,95.6 339.8,96.1 340.7,96.6 341.6,97.2 342.4,97.7 343.3,98.2 344.1,98.8 344.9,99.3 345.8,99.9 346.6,100.4 347.5,101.0 348.3,101.5 349.1,102.1 350.0,102.6 350.8,103.2 351.7,103.8 352.5,104.4 353.3,104.9 354.1,105.5 355.0,106.1 355.8,106.7 356.6,107.3 357.5,107.9 358.3,108.5 359.1,109.1 360.0,109.7 360.8,110.3 361.6,110.9 362.5,111.6 363.3,112.2 364.1,112.8 364.9,113.5 365.8,114.2 366.6,114.9 367.4,115.5 368.2,116.2 369.1,116.9 369.9,117.6 370.7,118.4 371.6,119.1 372.4,119.9 373.2,120.6 374.0,121.4 374.8,122.2 375.6,123.0 376.5,123.8 377.3,124.7 378.1,125.5 378.9,126.4 379.7,127.4 380.5,128.3 381.4,129.3 382.2,130.3 383.0,131.3 383.8,132.3 384.6,133.4 385.5,134.6 386.3,135.8 387.1,137.0 387.9,138.4 388.7,139.7 389.5,141.2 390.3,142.7 391.2,144.4 392.0,146.1 392.8,147.9 393.6,149.9 394.4,152.0 395.2,154.4 396.0,157.0 396.8,159.9 397.6,163.1 398.5,166.9" fill="none" stroke="#4a90d9" stroke-width="1.5" stroke-linejoin="round" clip-path="url(#pc725)"/>
  <line x1="435" y1="16" x2="435" y2="171" stroke="#d1d5db"/>
  <line x1="435" y1="93.5" x2="800" y2="93.5" stroke="#d1d5db"/>
  <text x="617.5" y="197" text-anchor="middle" font-size="9" fill="#6b7280">Hz</text>
  <text x="413" y="93.5" text-anchor="middle" font-size="9" fill="#6b7280" transform="rotate(-90 413 93.5)">Phase (deg)</text>
  <line x1="468.3" y1="16" x2="468.3" y2="171" stroke="#e5e7eb" stroke-width="0.5"/>
  <line x1="487.8" y1="16" x2="487.8" y2="171" stroke="#e5e7eb" stroke-width="0.5"/>
  <line x1="501.6" y1="16" x2="501.6" y2="171" stroke="#e5e7eb" stroke-width="0.5"/>
  <line x1="512.3" y1="16" x2="512.3" y2="171" stroke="#e5e7eb" stroke-width="0.5"/>
  <line x1="521.0" y1="16" x2="521.0" y2="171" stroke="#e5e7eb" stroke-width="0.5"/>
  <line x1="528.4" y1="16" x2="528.4" y2="171" stroke="#e5e7eb" stroke-width="0.5"/>
  <line x1="534.9" y1="16" x2="534.9" y2="171" stroke="#e5e7eb" stroke-width="0.5"/>
  <line x1="540.5" y1="16" x2="540.5" y2="171" stroke="#e5e7eb" stroke-width="0.5"/>
  <line x1="578.9" y1="16" x2="578.9" y2="171" stroke="#e5e7eb" stroke-width="0.5"/>
  <line x1="598.3" y1="16" x2="598.3" y2="171" stroke="#e5e7eb" stroke-width="0.5"/>
  <line x1="612.1" y1="16" x2="612.1" y2="171" stroke="#e5e7eb" stroke-width="0.5"/>
  <line x1="622.9" y1="16" x2="622.9" y2="171" stroke="#e5e7eb" stroke-width="0.5"/>
  <line x1="631.6" y1="16" x2="631.6" y2="171" stroke="#e5e7eb" stroke-width="0.5"/>
  <line x1="639.0" y1="16" x2="639.0" y2="171" stroke="#e5e7eb" stroke-width="0.5"/>
  <line x1="645.4" y1="16" x2="645.4" y2="171" stroke="#e5e7eb" stroke-width="0.5"/>
  <line x1="651.1" y1="16" x2="651.1" y2="171" stroke="#e5e7eb" stroke-width="0.5"/>
  <line x1="689.4" y1="16" x2="689.4" y2="171" stroke="#e5e7eb" stroke-width="0.5"/>
  <line x1="708.9" y1="16" x2="708.9" y2="171" stroke="#e5e7eb" stroke-width="0.5"/>
  <line x1="722.7" y1="16" x2="722.7" y2="171" stroke="#e5e7eb" stroke-width="0.5"/>
  <line x1="733.4" y1="16" x2="733.4" y2="171" stroke="#e5e7eb" stroke-width="0.5"/>
  <line x1="742.2" y1="16" x2="742.2" y2="171" stroke="#e5e7eb" stroke-width="0.5"/>
  <line x1="749.6" y1="16" x2="749.6" y2="171" stroke="#e5e7eb" stroke-width="0.5"/>
  <line x1="756.0" y1="16" x2="756.0" y2="171" stroke="#e5e7eb" stroke-width="0.5"/>
  <line x1="761.7" y1="16" x2="761.7" y2="171" stroke="#e5e7eb" stroke-width="0.5"/>
  <line x1="800.0" y1="16" x2="800.0" y2="171" stroke="#e5e7eb" stroke-width="0.5"/>
  <line x1="545.6" y1="16" x2="545.6" y2="171" stroke="#e5e7eb" stroke-width="0.5"/>
  <text x="545.6" y="183" text-anchor="middle" font-size="8" fill="#6b7280">100</text>
  <line x1="656.1" y1="16" x2="656.1" y2="171" stroke="#e5e7eb" stroke-width="0.5"/>
  <text x="656.1" y="183" text-anchor="middle" font-size="8" fill="#6b7280">1k</text>
  <line x1="766.7" y1="16" x2="766.7" y2="171" stroke="#e5e7eb" stroke-width="0.5"/>
  <text x="766.7" y="183" text-anchor="middle" font-size="8" fill="#6b7280">10k</text>
  <line x1="435" y1="58.6" x2="800" y2="58.6" stroke="#e5e7eb" stroke-width="0.5"/>
  <line x1="435" y1="128.4" x2="800" y2="128.4" stroke="#e5e7eb" stroke-width="0.5"/>
  <line x1="435" y1="23.8" x2="800" y2="23.8" stroke="#e5e7eb" stroke-width="0.5"/>
  <text x="431" y="26.8" text-anchor="end" font-size="8" fill="#6b7280">180</text>
  <text x="431" y="96.5" text-anchor="end" font-size="8" fill="#6b7280">0</text>
  <line x1="435" y1="163.3" x2="800" y2="163.3" stroke="#e5e7eb" stroke-width="0.5"/>
  <text x="431" y="166.3" text-anchor="end" font-size="8" fill="#6b7280">-180</text>
  <line x1="656.1" y1="16" x2="656.1" y2="171" stroke="#d1d5db" stroke-width="1" stroke-dasharray="4 3"/>
  <defs><linearGradient id="g726" x1="0" y1="171" x2="0" y2="93.5" gradientUnits="userSpaceOnUse">
    <stop offset="0%" stop-color="#e74c3c" stop-opacity="0.15"/>
    <stop offset="100%" stop-color="#e74c3c" stop-opacity="0.02"/>
  </linearGradient></defs>
  <path d="M438.5,93.8 438.5,93.8 471.8,94.2 491.3,94.5 505.1,94.9 515.8,95.2 524.6,95.5 532.0,95.9 538.4,96.2 544.1,96.5 549.1,96.9 553.7,97.2 557.9,97.6 561.7,97.9 565.3,98.3 568.6,98.6 571.7,99.0 574.6,99.3 577.3,99.7 579.9,100.0 582.4,100.4 584.7,100.7 587.0,101.1 589.1,101.4 591.2,101.8 593.1,102.1 595.0,102.5 596.8,102.9 598.6,103.2 600.2,103.6 601.9,104.0 603.4,104.3 605.0,104.7 606.5,105.1 607.9,105.4 609.3,105.8 610.6,106.2 611.9,106.6 613.2,107.0 614.5,107.3 615.7,107.7 616.9,108.1 618.0,108.5 619.2,108.9 620.3,109.3 621.3,109.7 622.4,110.1 623.4,110.5 624.4,110.9 625.4,111.3 626.4,111.7 627.4,112.1 628.3,112.5 629.2,112.9 630.1,113.3 631.0,113.7 631.8,114.1 632.7,114.5 633.5,114.9 634.4,115.3 635.2,115.7 636.7,116.6 638.3,117.4 639.7,118.2 641.2,119.0 642.6,119.8 643.9,120.6 645.2,121.4 646.5,122.2 647.8,123.0 649.0,123.7 650.2,124.5 651.3,125.2 652.4,126.0 653.6,126.7 654.6,127.4 655.7,128.1 656.7,128.8 657.7,129.4 658.7,130.1 659.7,130.7 660.6,131.3 661.6,131.9 662.5,132.5 663.4,133.1 664.3,133.6 665.1,134.2 666.0,134.7 666.8,135.2 667.6,135.7 668.4,136.2 669.6,136.9 670.8,137.6 671.9,138.2 673.0,138.8 674.1,139.4 675.2,140.0 676.2,140.6 677.2,141.1 678.2,141.6 679.2,142.1 680.1,142.5 681.0,143.0 682.0,143.4 682.9,143.8 683.7,144.2 684.6,144.6 685.5,144.9 686.3,145.3 687.1,145.6 687.9,146.0 689.0,146.4 690.0,146.8 691.0,147.2 692.0,147.5 693.0,147.9 693.9,148.2 694.9,148.5 695.8,148.8 696.7,149.1 697.6,149.4 698.4,149.7 699.3,150.0 700.1,150.2 700.9,150.4 701.7,150.7 702.7,151.0 703.7,151.2 704.6,151.5 705.6,151.7 706.5,152.0 707.4,152.2 708.3,152.4 709.1,152.6 710.0,152.8 710.8,153.0 711.6,153.2 712.4,153.4 713.4,153.6 714.3,153.8 715.2,154.0 716.1,154.2 717.0,154.4 717.9,154.5 718.7,154.7 719.6,154.9 720.4,155.0 721.2,155.2 722.1,155.3 723.0,155.5 723.9,155.7 724.8,155.8 725.7,156.0 726.5,156.1 727.3,156.2 728.1,156.4 728.9,156.5 729.8,156.6 730.7,156.8 731.6,156.9 732.4,157.0 733.3,157.1 734.1,157.3 734.9,157.4 735.8,157.5 736.7,157.6 737.5,157.7 738.4,157.8 739.2,157.9 740.0,158.0 740.8,158.1 741.7,158.2 742.6,158.3 743.4,158.4 744.3,158.5 745.1,158.6 745.9,158.7 746.8,158.8 747.6,158.9 748.5,159.0 749.3,159.1 750.1,159.2 751.0,159.3 751.8,159.3 752.7,159.4 753.5,159.5 754.3,159.6 755.1,159.7 756.0,159.7 756.8,159.8 757.6,159.9 758.5,160.0 759.3,160.0 760.1,160.1 761.0,160.2 761.8,160.2 762.6,160.3 763.5,160.4 764.3,160.5 765.1,160.5 765.9,160.6 766.8,160.7 767.6,160.7 768.4,160.8 769.2,160.8 770.1,160.9 770.9,161.0 771.7,161.0 772.6,161.1 773.4,161.1 774.2,161.2 775.0,161.3 775.8,161.3 776.6,161.4 777.5,161.4 778.3,161.5 779.1,161.5 779.9,161.6 780.7,161.7 781.5,161.7 782.4,161.8 783.2,161.8 784.0,161.9 784.8,161.9 785.6,162.0 786.5,162.0 787.3,162.1 788.1,162.1 788.9,162.2 789.7,162.2 790.5,162.3 791.3,162.4 792.2,162.4 793.0,162.5 793.8,162.5 794.6,162.6 795.4,162.6 796.2,162.7 797.0,162.7 797.8,162.8 798.6,162.8 799.5,162.9 L799.5,93.5 L438.5,93.5 Z" fill="url(#g726)"/>
  <defs><clipPath id="pc727"><rect x="435" y="16" width="365" height="155"/></clipPath></defs>
  <polyline points="438.5,93.8 471.8,94.2 491.3,94.5 505.1,94.9 515.8,95.2 524.6,95.5 532.0,95.9 538.4,96.2 544.1,96.5 549.1,96.9 553.7,97.2 557.9,97.6 561.7,97.9 565.3,98.3 568.6,98.6 571.7,99.0 574.6,99.3 577.3,99.7 579.9,100.0 582.4,100.4 584.7,100.7 587.0,101.1 589.1,101.4 591.2,101.8 593.1,102.1 595.0,102.5 596.8,102.9 598.6,103.2 600.2,103.6 601.9,104.0 603.4,104.3 605.0,104.7 606.5,105.1 607.9,105.4 609.3,105.8 610.6,106.2 611.9,106.6 613.2,107.0 614.5,107.3 615.7,107.7 616.9,108.1 618.0,108.5 619.2,108.9 620.3,109.3 621.3,109.7 622.4,110.1 623.4,110.5 624.4,110.9 625.4,111.3 626.4,111.7 627.4,112.1 628.3,112.5 629.2,112.9 630.1,113.3 631.0,113.7 631.8,114.1 632.7,114.5 633.5,114.9 634.4,115.3 635.2,115.7 636.7,116.6 638.3,117.4 639.7,118.2 641.2,119.0 642.6,119.8 643.9,120.6 645.2,121.4 646.5,122.2 647.8,123.0 649.0,123.7 650.2,124.5 651.3,125.2 652.4,126.0 653.6,126.7 654.6,127.4 655.7,128.1 656.7,128.8 657.7,129.4 658.7,130.1 659.7,130.7 660.6,131.3 661.6,131.9 662.5,132.5 663.4,133.1 664.3,133.6 665.1,134.2 666.0,134.7 666.8,135.2 667.6,135.7 668.4,136.2 669.6,136.9 670.8,137.6 671.9,138.2 673.0,138.8 674.1,139.4 675.2,140.0 676.2,140.6 677.2,141.1 678.2,141.6 679.2,142.1 680.1,142.5 681.0,143.0 682.0,143.4 682.9,143.8 683.7,144.2 684.6,144.6 685.5,144.9 686.3,145.3 687.1,145.6 687.9,146.0 689.0,146.4 690.0,146.8 691.0,147.2 692.0,147.5 693.0,147.9 693.9,148.2 694.9,148.5 695.8,148.8 696.7,149.1 697.6,149.4 698.4,149.7 699.3,150.0 700.1,150.2 700.9,150.4 701.7,150.7 702.7,151.0 703.7,151.2 704.6,151.5 705.6,151.7 706.5,152.0 707.4,152.2 708.3,152.4 709.1,152.6 710.0,152.8 710.8,153.0 711.6,153.2 712.4,153.4 713.4,153.6 714.3,153.8 715.2,154.0 716.1,154.2 717.0,154.4 717.9,154.5 718.7,154.7 719.6,154.9 720.4,155.0 721.2,155.2 722.1,155.3 723.0,155.5 723.9,155.7 724.8,155.8 725.7,156.0 726.5,156.1 727.3,156.2 728.1,156.4 728.9,156.5 729.8,156.6 730.7,156.8 731.6,156.9 732.4,157.0 733.3,157.1 734.1,157.3 734.9,157.4 735.8,157.5 736.7,157.6 737.5,157.7 738.4,157.8 739.2,157.9 740.0,158.0 740.8,158.1 741.7,158.2 742.6,158.3 743.4,158.4 744.3,158.5 745.1,158.6 745.9,158.7 746.8,158.8 747.6,158.9 748.5,159.0 749.3,159.1 750.1,159.2 751.0,159.3 751.8,159.3 752.7,159.4 753.5,159.5 754.3,159.6 755.1,159.7 756.0,159.7 756.8,159.8 757.6,159.9 758.5,160.0 759.3,160.0 760.1,160.1 761.0,160.2 761.8,160.2 762.6,160.3 763.5,160.4 764.3,160.5 765.1,160.5 765.9,160.6 766.8,160.7 767.6,160.7 768.4,160.8 769.2,160.8 770.1,160.9 770.9,161.0 771.7,161.0 772.6,161.1 773.4,161.1 774.2,161.2 775.0,161.3 775.8,161.3 776.6,161.4 777.5,161.4 778.3,161.5 779.1,161.5 779.9,161.6 780.7,161.7 781.5,161.7 782.4,161.8 783.2,161.8 784.0,161.9 784.8,161.9 785.6,162.0 786.5,162.0 787.3,162.1 788.1,162.1 788.9,162.2 789.7,162.2 790.5,162.3 791.3,162.4 792.2,162.4 793.0,162.5 793.8,162.5 794.6,162.6 795.4,162.6 796.2,162.7 797.0,162.7 797.8,162.8 798.6,162.8 799.5,162.9" fill="none" stroke="#e74c3c" stroke-width="1.5" stroke-linejoin="round" clip-path="url(#pc727)"/>
  <line x1="34" y1="207" x2="34" y2="362" stroke="#d1d5db"/>
  <line x1="34" y1="284.5" x2="399" y2="284.5" stroke="#d1d5db"/>
  <text x="216.5" y="388" text-anchor="middle" font-size="9" fill="#6b7280">Hz</text>
  <text x="12" y="284.5" text-anchor="middle" font-size="9" fill="#6b7280" transform="rotate(-90 12 284.5)">Group delay</text>
  <line x1="67.3" y1="207" x2="67.3" y2="362" stroke="#e5e7eb" stroke-width="0.5"/>
  <line x1="86.8" y1="207" x2="86.8" y2="362" stroke="#e5e7eb" stroke-width="0.5"/>
  <line x1="100.6" y1="207" x2="100.6" y2="362" stroke="#e5e7eb" stroke-width="0.5"/>
  <line x1="111.3" y1="207" x2="111.3" y2="362" stroke="#e5e7eb" stroke-width="0.5"/>
  <line x1="120.0" y1="207" x2="120.0" y2="362" stroke="#e5e7eb" stroke-width="0.5"/>
  <line x1="127.4" y1="207" x2="127.4" y2="362" stroke="#e5e7eb" stroke-width="0.5"/>
  <line x1="133.9" y1="207" x2="133.9" y2="362" stroke="#e5e7eb" stroke-width="0.5"/>
  <line x1="139.5" y1="207" x2="139.5" y2="362" stroke="#e5e7eb" stroke-width="0.5"/>
  <line x1="177.9" y1="207" x2="177.9" y2="362" stroke="#e5e7eb" stroke-width="0.5"/>
  <line x1="197.3" y1="207" x2="197.3" y2="362" stroke="#e5e7eb" stroke-width="0.5"/>
  <line x1="211.1" y1="207" x2="211.1" y2="362" stroke="#e5e7eb" stroke-width="0.5"/>
  <line x1="221.9" y1="207" x2="221.9" y2="362" stroke="#e5e7eb" stroke-width="0.5"/>
  <line x1="230.6" y1="207" x2="230.6" y2="362" stroke="#e5e7eb" stroke-width="0.5"/>
  <line x1="238.0" y1="207" x2="238.0" y2="362" stroke="#e5e7eb" stroke-width="0.5"/>
  <line x1="244.4" y1="207" x2="244.4" y2="362" stroke="#e5e7eb" stroke-width="0.5"/>
  <line x1="250.1" y1="207" x2="250.1" y2="362" stroke="#e5e7eb" stroke-width="0.5"/>
  <line x1="288.4" y1="207" x2="288.4" y2="362" stroke="#e5e7eb" stroke-width="0.5"/>
  <line x1="307.9" y1="207" x2="307.9" y2="362" stroke="#e5e7eb" stroke-width="0.5"/>
  <line x1="321.7" y1="207" x2="321.7" y2="362" stroke="#e5e7eb" stroke-width="0.5"/>
  <line x1="332.4" y1="207" x2="332.4" y2="362" stroke="#e5e7eb" stroke-width="0.5"/>
  <line x1="341.2" y1="207" x2="341.2" y2="362" stroke="#e5e7eb" stroke-width="0.5"/>
  <line x1="348.6" y1="207" x2="348.6" y2="362" stroke="#e5e7eb" stroke-width="0.5"/>
  <line x1="355.0" y1="207" x2="355.0" y2="362" stroke="#e5e7eb" stroke-width="0.5"/>
  <line x1="360.7" y1="207" x2="360.7" y2="362" stroke="#e5e7eb" stroke-width="0.5"/>
  <line x1="399.0" y1="207" x2="399.0" y2="362" stroke="#e5e7eb" stroke-width="0.5"/>
  <line x1="144.6" y1="207" x2="144.6" y2="362" stroke="#e5e7eb" stroke-width="0.5"/>
  <text x="144.6" y="374" text-anchor="middle" font-size="8" fill="#6b7280">100</text>
  <line x1="255.1" y1="207" x2="255.1" y2="362" stroke="#e5e7eb" stroke-width="0.5"/>
  <text x="255.1" y="374" text-anchor="middle" font-size="8" fill="#6b7280">1k</text>
  <line x1="365.7" y1="207" x2="365.7" y2="362" stroke="#e5e7eb" stroke-width="0.5"/>
  <text x="365.7" y="374" text-anchor="middle" font-size="8" fill="#6b7280">10k</text>
  <line x1="34" y1="324.3" x2="399" y2="324.3" stroke="#e5e7eb" stroke-width="0.5"/>
  <text x="30" y="327.3" text-anchor="end" font-size="8" fill="#6b7280">-8</text>
  <text x="30" y="287.5" text-anchor="end" font-size="8" fill="#6b7280">0</text>
  <line x1="34" y1="244.7" x2="399" y2="244.7" stroke="#e5e7eb" stroke-width="0.5"/>
  <text x="30" y="247.7" text-anchor="end" font-size="8" fill="#6b7280">8</text>
  <line x1="255.1" y1="207" x2="255.1" y2="362" stroke="#d1d5db" stroke-width="1" stroke-dasharray="4 3"/>
  <defs><linearGradient id="g728" x1="0" y1="207" x2="0" y2="284.5" gradientUnits="userSpaceOnUse">
    <stop offset="0%" stop-color="#2ecc71" stop-opacity="0.15"/>
    <stop offset="100%" stop-color="#2ecc71" stop-opacity="0.02"/>
  </linearGradient></defs>
  <path d="M37.5,235.2 37.5,235.2 70.8,235.2 90.3,235.2 104.1,235.1 114.8,235.1 123.6,235.0 131.0,234.9 137.4,234.8 143.1,234.7 148.1,234.6 152.7,234.5 156.9,234.4 160.7,234.3 164.3,234.1 167.6,233.9 170.7,233.8 173.6,233.6 176.3,233.4 178.9,233.2 181.4,233.0 183.7,232.8 186.0,232.6 188.1,232.4 190.2,232.1 192.1,231.9 194.0,231.7 195.8,231.4 197.6,231.2 199.2,230.9 200.9,230.6 202.4,230.4 204.0,230.1 205.5,229.8 206.9,229.6 208.3,229.3 209.6,229.0 210.9,228.8 212.2,228.5 213.5,228.2 214.7,228.0 215.9,227.7 217.0,227.5 218.2,227.2 219.3,227.0 220.3,226.8 221.4,226.5 222.4,226.3 223.4,226.1 224.4,226.0 225.4,225.8 226.4,225.6 227.3,225.5 228.2,225.3 229.1,225.2 230.0,225.1 230.8,225.0 231.7,225.0 232.5,224.9 233.4,224.9 234.2,224.9 235.7,224.9 237.3,225.0 238.7,225.2 240.2,225.5 241.6,225.9 242.9,226.3 244.2,226.9 245.5,227.5 246.8,228.2 248.0,228.9 249.2,229.7 250.3,230.6 251.4,231.5 252.6,232.5 253.6,233.5 254.7,234.5 255.7,235.6 256.7,236.6 257.7,237.7 258.7,238.8 259.6,240.0 260.6,241.1 261.5,242.2 262.4,243.3 263.3,244.4 264.1,245.4 265.0,246.5 265.8,247.5 266.6,248.5 267.4,249.5 268.6,251.0 269.8,252.4 270.9,253.7 272.0,255.0 273.1,256.2 274.2,257.4 275.2,258.5 276.2,259.6 277.2,260.6 278.2,261.5 279.1,262.4 280.0,263.3 281.0,264.1 281.9,264.9 282.7,265.7 283.6,266.4 284.5,267.0 285.3,267.7 286.1,268.3 286.9,268.8 288.0,269.6 289.0,270.2 290.0,270.9 291.0,271.5 292.0,272.0 292.9,272.5 293.9,273.0 294.8,273.5 295.7,273.9 296.6,274.4 297.4,274.7 298.3,275.1 299.1,275.5 299.9,275.8 300.7,276.1 301.7,276.5 302.7,276.8 303.6,277.1 304.6,277.4 305.5,277.7 306.4,278.0 307.3,278.2 308.1,278.5 309.0,278.7 309.8,278.9 310.6,279.1 311.4,279.3 312.4,279.5 313.3,279.7 314.2,279.9 315.1,280.1 316.0,280.2 316.9,280.4 317.7,280.5 318.6,280.7 319.4,280.8 320.2,280.9 321.1,281.1 322.0,281.2 322.9,281.3 323.8,281.4 324.7,281.5 325.5,281.6 326.3,281.7 327.1,281.8 327.9,281.9 328.8,282.0 329.7,282.1 330.6,282.2 331.4,282.3 332.3,282.3 333.1,282.4 333.9,282.5 334.8,282.6 335.7,282.6 336.5,282.7 337.4,282.8 338.2,282.8 339.0,282.9 339.8,282.9 340.7,283.0 341.6,283.0 342.4,283.1 343.3,283.1 344.1,283.2 344.9,283.2 345.8,283.3 346.6,283.3 347.5,283.3 348.3,283.4 349.1,283.4 350.0,283.4 350.8,283.5 351.7,283.5 352.5,283.5 353.3,283.6 354.1,283.6 355.0,283.6 355.8,283.7 356.6,283.7 357.5,283.7 358.3,283.7 359.1,283.8 360.0,283.8 360.8,283.8 361.6,283.8 362.5,283.8 363.3,283.9 364.1,283.9 364.9,283.9 365.8,283.9 366.6,283.9 367.4,283.9 368.2,284.0 369.1,284.0 369.9,284.0 370.7,284.0 371.6,284.0 372.4,284.0 373.2,284.0 374.0,284.1 374.8,284.1 375.6,284.1 376.5,284.1 377.3,284.1 378.1,284.1 378.9,284.1 379.7,284.1 380.5,284.1 381.4,284.1 382.2,284.1 383.0,284.2 383.8,284.2 384.6,284.2 385.5,284.2 386.3,284.2 387.1,284.2 387.9,284.2 388.7,284.2 389.5,284.2 390.3,284.2 391.2,284.2 392.0,284.2 392.8,284.2 393.6,284.2 394.4,284.2 395.2,284.2 396.0,284.2 396.8,284.2 397.6,284.2 398.5,284.2 L398.5,284.5 L37.5,284.5 Z" fill="url(#g728)"/>
  <defs><clipPath id="pc729"><rect x="34" y="207" width="365" height="155"/></clipPath></defs>
  <polyline points="37.5,235.2 70.8,235.2 90.3,235.2 104.1,235.1 114.8,235.1 123.6,235.0 131.0,234.9 137.4,234.8 143.1,234.7 148.1,234.6 152.7,234.5 156.9,234.4 160.7,234.3 164.3,234.1 167.6,233.9 170.7,233.8 173.6,233.6 176.3,233.4 178.9,233.2 181.4,233.0 183.7,232.8 186.0,232.6 188.1,232.4 190.2,232.1 192.1,231.9 194.0,231.7 195.8,231.4 197.6,231.2 199.2,230.9 200.9,230.6 202.4,230.4 204.0,230.1 205.5,229.8 206.9,229.6 208.3,229.3 209.6,229.0 210.9,228.8 212.2,228.5 213.5,228.2 214.7,228.0 215.9,227.7 217.0,227.5 218.2,227.2 219.3,227.0 220.3,226.8 221.4,226.5 222.4,226.3 223.4,226.1 224.4,226.0 225.4,225.8 226.4,225.6 227.3,225.5 228.2,225.3 229.1,225.2 230.0,225.1 230.8,225.0 231.7,225.0 232.5,224.9 233.4,224.9 234.2,224.9 235.7,224.9 237.3,225.0 238.7,225.2 240.2,225.5 241.6,225.9 242.9,226.3 244.2,226.9 245.5,227.5 246.8,228.2 248.0,228.9 249.2,229.7 250.3,230.6 251.4,231.5 252.6,232.5 253.6,233.5 254.7,234.5 255.7,235.6 256.7,236.6 257.7,237.7 258.7,238.8 259.6,240.0 260.6,241.1 261.5,242.2 262.4,243.3 263.3,244.4 264.1,245.4 265.0,246.5 265.8,247.5 266.6,248.5 267.4,249.5 268.6,251.0 269.8,252.4 270.9,253.7 272.0,255.0 273.1,256.2 274.2,257.4 275.2,258.5 276.2,259.6 277.2,260.6 278.2,261.5 279.1,262.4 280.0,263.3 281.0,264.1 281.9,264.9 282.7,265.7 283.6,266.4 284.5,267.0 285.3,267.7 286.1,268.3 286.9,268.8 288.0,269.6 289.0,270.2 290.0,270.9 291.0,271.5 292.0,272.0 292.9,272.5 293.9,273.0 294.8,273.5 295.7,273.9 296.6,274.4 297.4,274.7 298.3,275.1 299.1,275.5 299.9,275.8 300.7,276.1 301.7,276.5 302.7,276.8 303.6,277.1 304.6,277.4 305.5,277.7 306.4,278.0 307.3,278.2 308.1,278.5 309.0,278.7 309.8,278.9 310.6,279.1 311.4,279.3 312.4,279.5 313.3,279.7 314.2,279.9 315.1,280.1 316.0,280.2 316.9,280.4 317.7,280.5 318.6,280.7 319.4,280.8 320.2,280.9 321.1,281.1 322.0,281.2 322.9,281.3 323.8,281.4 324.7,281.5 325.5,281.6 326.3,281.7 327.1,281.8 327.9,281.9 328.8,282.0 329.7,282.1 330.6,282.2 331.4,282.3 332.3,282.3 333.1,282.4 333.9,282.5 334.8,282.6 335.7,282.6 336.5,282.7 337.4,282.8 338.2,282.8 339.0,282.9 339.8,282.9 340.7,283.0 341.6,283.0 342.4,283.1 343.3,283.1 344.1,283.2 344.9,283.2 345.8,283.3 346.6,283.3 347.5,283.3 348.3,283.4 349.1,283.4 350.0,283.4 350.8,283.5 351.7,283.5 352.5,283.5 353.3,283.6 354.1,283.6 355.0,283.6 355.8,283.7 356.6,283.7 357.5,283.7 358.3,283.7 359.1,283.8 360.0,283.8 360.8,283.8 361.6,283.8 362.5,283.8 363.3,283.9 364.1,283.9 364.9,283.9 365.8,283.9 366.6,283.9 367.4,283.9 368.2,284.0 369.1,284.0 369.9,284.0 370.7,284.0 371.6,284.0 372.4,284.0 373.2,284.0 374.0,284.1 374.8,284.1 375.6,284.1 376.5,284.1 377.3,284.1 378.1,284.1 378.9,284.1 379.7,284.1 380.5,284.1 381.4,284.1 382.2,284.1 383.0,284.2 383.8,284.2 384.6,284.2 385.5,284.2 386.3,284.2 387.1,284.2 387.9,284.2 388.7,284.2 389.5,284.2 390.3,284.2 391.2,284.2 392.0,284.2 392.8,284.2 393.6,284.2 394.4,284.2 395.2,284.2 396.0,284.2 396.8,284.2 397.6,284.2 398.5,284.2" fill="none" stroke="#2ecc71" stroke-width="1.5" stroke-linejoin="round" clip-path="url(#pc729)"/>
  <line x1="435" y1="207" x2="435" y2="362" stroke="#d1d5db"/>
  <line x1="435" y1="284.5" x2="800" y2="284.5" stroke="#d1d5db"/>
  <text x="617.5" y="388" text-anchor="middle" font-size="9" fill="#6b7280">Samples</text>
  <text x="413" y="284.5" text-anchor="middle" font-size="9" fill="#6b7280" transform="rotate(-90 413 284.5)">Impulse response</text>
  <line x1="435.0" y1="207" x2="435.0" y2="362" stroke="#e5e7eb" stroke-width="0.5"/>
  <text x="435.0" y="374" text-anchor="middle" font-size="8" fill="#6b7280">0</text>
  <line x1="563.3" y1="207" x2="563.3" y2="362" stroke="#e5e7eb" stroke-width="0.5"/>
  <text x="563.3" y="374" text-anchor="middle" font-size="8" fill="#6b7280">90</text>
  <line x1="691.6" y1="207" x2="691.6" y2="362" stroke="#e5e7eb" stroke-width="0.5"/>
  <text x="691.6" y="374" text-anchor="middle" font-size="8" fill="#6b7280">180</text>
  <line x1="435" y1="344.2" x2="800" y2="344.2" stroke="#e5e7eb" stroke-width="0.5"/>
  <text x="431" y="347.2" text-anchor="end" font-size="8" fill="#6b7280">-0.05</text>
  <text x="431" y="287.5" text-anchor="end" font-size="8" fill="#6b7280">0</text>
  <line x1="435" y1="224.8" x2="800" y2="224.8" stroke="#e5e7eb" stroke-width="0.5"/>
  <text x="431" y="227.8" text-anchor="end" font-size="8" fill="#6b7280">0.05</text>
  <defs><linearGradient id="g730" x1="0" y1="207" x2="0" y2="284.5" gradientUnits="userSpaceOnUse">
    <stop offset="0%" stop-color="#f39c12" stop-opacity="0.15"/>
    <stop offset="100%" stop-color="#f39c12" stop-opacity="0.02"/>
  </linearGradient></defs>
  <defs><linearGradient id="g731" x1="0" y1="362" x2="0" y2="284.5" gradientUnits="userSpaceOnUse">
    <stop offset="0%" stop-color="#f39c12" stop-opacity="0.15"/>
    <stop offset="100%" stop-color="#f39c12" stop-opacity="0.02"/>
  </linearGradient></defs>
  <defs><clipPath id="c732"><rect x="435" y="207" width="365" height="77.5"/></clipPath></defs>
  <defs><clipPath id="c733"><rect x="435" y="284.5" width="365" height="77.5"/></clipPath></defs>
  <path d="M435.0,279.0 435.0,279.0 436.4,263.6 437.9,245.9 439.3,232.2 440.7,221.9 442.1,214.6 443.6,210.0 445.0,207.6 446.4,207.0 447.8,208.0 449.3,210.2 450.7,213.3 452.1,217.2 453.5,221.7 455.0,226.4 456.4,231.4 457.8,236.5 459.2,241.5 460.7,246.3 462.1,251.0 463.5,255.5 464.9,259.7 466.4,263.5 467.8,267.1 469.2,270.3 470.6,273.2 472.1,275.8 473.5,278.1 474.9,280.0 476.3,281.7 477.8,283.2 479.2,284.4 480.6,285.3 482.1,286.1 483.5,286.7 484.9,287.2 486.3,287.5 487.8,287.7 489.2,287.9 490.6,287.9 492.0,287.8 493.5,287.8 494.9,287.6 496.3,287.5 497.7,287.3 499.2,287.1 500.6,286.8 502.0,286.6 503.4,286.4 504.9,286.2 506.3,286.0 507.7,285.8 509.1,285.6 510.6,285.4 512.0,285.3 513.4,285.1 514.8,285.0 516.3,284.9 517.7,284.8 519.1,284.7 520.5,284.6 522.0,284.6 523.4,284.5 524.8,284.5 526.3,284.4 527.7,284.4 529.1,284.4 530.5,284.4 532.0,284.4 533.4,284.4 534.8,284.4 536.2,284.4 537.7,284.4 539.1,284.4 540.5,284.4 541.9,284.4 543.4,284.4 544.8,284.4 546.2,284.4 547.6,284.4 549.1,284.4 550.5,284.4 551.9,284.4 553.3,284.5 554.8,284.5 556.2,284.5 557.6,284.5 559.0,284.5 560.5,284.5 561.9,284.5 563.3,284.5 564.7,284.5 566.2,284.5 567.6,284.5 569.0,284.5 570.4,284.5 571.9,284.5 573.3,284.5 574.7,284.5 576.2,284.5 577.6,284.5 579.0,284.5 580.4,284.5 581.9,284.5 583.3,284.5 584.7,284.5 586.1,284.5 587.6,284.5 589.0,284.5 590.4,284.5 591.8,284.5 593.3,284.5 594.7,284.5 596.1,284.5 597.5,284.5 599.0,284.5 600.4,284.5 601.8,284.5 603.2,284.5 604.7,284.5 606.1,284.5 607.5,284.5 608.9,284.5 610.4,284.5 611.8,284.5 613.2,284.5 614.6,284.5 616.1,284.5 617.5,284.5 618.9,284.5 620.4,284.5 621.8,284.5 623.2,284.5 624.6,284.5 626.1,284.5 627.5,284.5 628.9,284.5 630.3,284.5 631.8,284.5 633.2,284.5 634.6,284.5 636.0,284.5 637.5,284.5 638.9,284.5 640.3,284.5 641.7,284.5 643.2,284.5 644.6,284.5 646.0,284.5 647.4,284.5 648.9,284.5 650.3,284.5 651.7,284.5 653.1,284.5 654.6,284.5 656.0,284.5 657.4,284.5 658.8,284.5 660.3,284.5 661.7,284.5 663.1,284.5 664.6,284.5 666.0,284.5 667.4,284.5 668.8,284.5 670.3,284.5 671.7,284.5 673.1,284.5 674.5,284.5 676.0,284.5 677.4,284.5 678.8,284.5 680.2,284.5 681.7,284.5 683.1,284.5 684.5,284.5 685.9,284.5 687.4,284.5 688.8,284.5 690.2,284.5 691.6,284.5 693.1,284.5 694.5,284.5 695.9,284.5 697.3,284.5 698.8,284.5 700.2,284.5 701.6,284.5 703.0,284.5 704.5,284.5 705.9,284.5 707.3,284.5 708.8,284.5 710.2,284.5 711.6,284.5 713.0,284.5 714.5,284.5 715.9,284.5 717.3,284.5 718.7,284.5 720.2,284.5 721.6,284.5 723.0,284.5 724.4,284.5 725.9,284.5 727.3,284.5 728.7,284.5 730.1,284.5 731.6,284.5 733.0,284.5 734.4,284.5 735.8,284.5 737.3,284.5 738.7,284.5 740.1,284.5 741.5,284.5 743.0,284.5 744.4,284.5 745.8,284.5 747.2,284.5 748.7,284.5 750.1,284.5 751.5,284.5 752.9,284.5 754.4,284.5 755.8,284.5 757.2,284.5 758.7,284.5 760.1,284.5 761.5,284.5 762.9,284.5 764.4,284.5 765.8,284.5 767.2,284.5 768.6,284.5 770.1,284.5 771.5,284.5 772.9,284.5 774.3,284.5 775.8,284.5 777.2,284.5 778.6,284.5 780.0,284.5 781.5,284.5 782.9,284.5 784.3,284.5 785.7,284.5 787.2,284.5 788.6,284.5 790.0,284.5 791.4,284.5 792.9,284.5 794.3,284.5 795.7,284.5 797.1,284.5 798.6,284.5 L798.6,284.5 L435.0,284.5 Z" fill="url(#g730)" clip-path="url(#c732)"/>
  <path d="M435.0,279.0 435.0,279.0 436.4,263.6 437.9,245.9 439.3,232.2 440.7,221.9 442.1,214.6 443.6,210.0 445.0,207.6 446.4,207.0 447.8,208.0 449.3,210.2 450.7,213.3 452.1,217.2 453.5,221.7 455.0,226.4 456.4,231.4 457.8,236.5 459.2,241.5 460.7,246.3 462.1,251.0 463.5,255.5 464.9,259.7 466.4,263.5 467.8,267.1 469.2,270.3 470.6,273.2 472.1,275.8 473.5,278.1 474.9,280.0 476.3,281.7 477.8,283.2 479.2,284.4 480.6,285.3 482.1,286.1 483.5,286.7 484.9,287.2 486.3,287.5 487.8,287.7 489.2,287.9 490.6,287.9 492.0,287.8 493.5,287.8 494.9,287.6 496.3,287.5 497.7,287.3 499.2,287.1 500.6,286.8 502.0,286.6 503.4,286.4 504.9,286.2 506.3,286.0 507.7,285.8 509.1,285.6 510.6,285.4 512.0,285.3 513.4,285.1 514.8,285.0 516.3,284.9 517.7,284.8 519.1,284.7 520.5,284.6 522.0,284.6 523.4,284.5 524.8,284.5 526.3,284.4 527.7,284.4 529.1,284.4 530.5,284.4 532.0,284.4 533.4,284.4 534.8,284.4 536.2,284.4 537.7,284.4 539.1,284.4 540.5,284.4 541.9,284.4 543.4,284.4 544.8,284.4 546.2,284.4 547.6,284.4 549.1,284.4 550.5,284.4 551.9,284.4 553.3,284.5 554.8,284.5 556.2,284.5 557.6,284.5 559.0,284.5 560.5,284.5 561.9,284.5 563.3,284.5 564.7,284.5 566.2,284.5 567.6,284.5 569.0,284.5 570.4,284.5 571.9,284.5 573.3,284.5 574.7,284.5 576.2,284.5 577.6,284.5 579.0,284.5 580.4,284.5 581.9,284.5 583.3,284.5 584.7,284.5 586.1,284.5 587.6,284.5 589.0,284.5 590.4,284.5 591.8,284.5 593.3,284.5 594.7,284.5 596.1,284.5 597.5,284.5 599.0,284.5 600.4,284.5 601.8,284.5 603.2,284.5 604.7,284.5 606.1,284.5 607.5,284.5 608.9,284.5 610.4,284.5 611.8,284.5 613.2,284.5 614.6,284.5 616.1,284.5 617.5,284.5 618.9,284.5 620.4,284.5 621.8,284.5 623.2,284.5 624.6,284.5 626.1,284.5 627.5,284.5 628.9,284.5 630.3,284.5 631.8,284.5 633.2,284.5 634.6,284.5 636.0,284.5 637.5,284.5 638.9,284.5 640.3,284.5 641.7,284.5 643.2,284.5 644.6,284.5 646.0,284.5 647.4,284.5 648.9,284.5 650.3,284.5 651.7,284.5 653.1,284.5 654.6,284.5 656.0,284.5 657.4,284.5 658.8,284.5 660.3,284.5 661.7,284.5 663.1,284.5 664.6,284.5 666.0,284.5 667.4,284.5 668.8,284.5 670.3,284.5 671.7,284.5 673.1,284.5 674.5,284.5 676.0,284.5 677.4,284.5 678.8,284.5 680.2,284.5 681.7,284.5 683.1,284.5 684.5,284.5 685.9,284.5 687.4,284.5 688.8,284.5 690.2,284.5 691.6,284.5 693.1,284.5 694.5,284.5 695.9,284.5 697.3,284.5 698.8,284.5 700.2,284.5 701.6,284.5 703.0,284.5 704.5,284.5 705.9,284.5 707.3,284.5 708.8,284.5 710.2,284.5 711.6,284.5 713.0,284.5 714.5,284.5 715.9,284.5 717.3,284.5 718.7,284.5 720.2,284.5 721.6,284.5 723.0,284.5 724.4,284.5 725.9,284.5 727.3,284.5 728.7,284.5 730.1,284.5 731.6,284.5 733.0,284.5 734.4,284.5 735.8,284.5 737.3,284.5 738.7,284.5 740.1,284.5 741.5,284.5 743.0,284.5 744.4,284.5 745.8,284.5 747.2,284.5 748.7,284.5 750.1,284.5 751.5,284.5 752.9,284.5 754.4,284.5 755.8,284.5 757.2,284.5 758.7,284.5 760.1,284.5 761.5,284.5 762.9,284.5 764.4,284.5 765.8,284.5 767.2,284.5 768.6,284.5 770.1,284.5 771.5,284.5 772.9,284.5 774.3,284.5 775.8,284.5 777.2,284.5 778.6,284.5 780.0,284.5 781.5,284.5 782.9,284.5 784.3,284.5 785.7,284.5 787.2,284.5 788.6,284.5 790.0,284.5 791.4,284.5 792.9,284.5 794.3,284.5 795.7,284.5 797.1,284.5 798.6,284.5 L798.6,284.5 L435.0,284.5 Z" fill="url(#g731)" clip-path="url(#c733)"/>
  <defs><clipPath id="pc734"><rect x="435" y="207" width="365" height="155"/></clipPath></defs>
  <polyline points="435.0,279.0 436.4,263.6 437.9,245.9 439.3,232.2 440.7,221.9 442.1,214.6 443.6,210.0 445.0,207.6 446.4,207.0 447.8,208.0 449.3,210.2 450.7,213.3 452.1,217.2 453.5,221.7 455.0,226.4 456.4,231.4 457.8,236.5 459.2,241.5 460.7,246.3 462.1,251.0 463.5,255.5 464.9,259.7 466.4,263.5 467.8,267.1 469.2,270.3 470.6,273.2 472.1,275.8 473.5,278.1 474.9,280.0 476.3,281.7 477.8,283.2 479.2,284.4 480.6,285.3 482.1,286.1 483.5,286.7 484.9,287.2 486.3,287.5 487.8,287.7 489.2,287.9 490.6,287.9 492.0,287.8 493.5,287.8 494.9,287.6 496.3,287.5 497.7,287.3 499.2,287.1 500.6,286.8 502.0,286.6 503.4,286.4 504.9,286.2 506.3,286.0 507.7,285.8 509.1,285.6 510.6,285.4 512.0,285.3 513.4,285.1 514.8,285.0 516.3,284.9 517.7,284.8 519.1,284.7 520.5,284.6 522.0,284.6 523.4,284.5 524.8,284.5 526.3,284.4 527.7,284.4 529.1,284.4 530.5,284.4 532.0,284.4 533.4,284.4 534.8,284.4 536.2,284.4 537.7,284.4 539.1,284.4 540.5,284.4 541.9,284.4 543.4,284.4 544.8,284.4 546.2,284.4 547.6,284.4 549.1,284.4 550.5,284.4 551.9,284.4 553.3,284.5 554.8,284.5 556.2,284.5 557.6,284.5 559.0,284.5 560.5,284.5 561.9,284.5 563.3,284.5 564.7,284.5 566.2,284.5 567.6,284.5 569.0,284.5 570.4,284.5 571.9,284.5 573.3,284.5 574.7,284.5 576.2,284.5 577.6,284.5 579.0,284.5 580.4,284.5 581.9,284.5 583.3,284.5 584.7,284.5 586.1,284.5 587.6,284.5 589.0,284.5 590.4,284.5 591.8,284.5 593.3,284.5 594.7,284.5 596.1,284.5 597.5,284.5 599.0,284.5 600.4,284.5 601.8,284.5 603.2,284.5 604.7,284.5 606.1,284.5 607.5,284.5 608.9,284.5 610.4,284.5 611.8,284.5 613.2,284.5 614.6,284.5 616.1,284.5 617.5,284.5 618.9,284.5 620.4,284.5 621.8,284.5 623.2,284.5 624.6,284.5 626.1,284.5 627.5,284.5 628.9,284.5 630.3,284.5 631.8,284.5 633.2,284.5 634.6,284.5 636.0,284.5 637.5,284.5 638.9,284.5 640.3,284.5 641.7,284.5 643.2,284.5 644.6,284.5 646.0,284.5 647.4,284.5 648.9,284.5 650.3,284.5 651.7,284.5 653.1,284.5 654.6,284.5 656.0,284.5 657.4,284.5 658.8,284.5 660.3,284.5 661.7,284.5 663.1,284.5 664.6,284.5 666.0,284.5 667.4,284.5 668.8,284.5 670.3,284.5 671.7,284.5 673.1,284.5 674.5,284.5 676.0,284.5 677.4,284.5 678.8,284.5 680.2,284.5 681.7,284.5 683.1,284.5 684.5,284.5 685.9,284.5 687.4,284.5 688.8,284.5 690.2,284.5 691.6,284.5 693.1,284.5 694.5,284.5 695.9,284.5 697.3,284.5 698.8,284.5 700.2,284.5 701.6,284.5 703.0,284.5 704.5,284.5 705.9,284.5 707.3,284.5 708.8,284.5 710.2,284.5 711.6,284.5 713.0,284.5 714.5,284.5 715.9,284.5 717.3,284.5 718.7,284.5 720.2,284.5 721.6,284.5 723.0,284.5 724.4,284.5 725.9,284.5 727.3,284.5 728.7,284.5 730.1,284.5 731.6,284.5 733.0,284.5 734.4,284.5 735.8,284.5 737.3,284.5 738.7,284.5 740.1,284.5 741.5,284.5 743.0,284.5 744.4,284.5 745.8,284.5 747.2,284.5 748.7,284.5 750.1,284.5 751.5,284.5 752.9,284.5 754.4,284.5 755.8,284.5 757.2,284.5 758.7,284.5 760.1,284.5 761.5,284.5 762.9,284.5 764.4,284.5 765.8,284.5 767.2,284.5 768.6,284.5 770.1,284.5 771.5,284.5 772.9,284.5 774.3,284.5 775.8,284.5 777.2,284.5 778.6,284.5 780.0,284.5 781.5,284.5 782.9,284.5 784.3,284.5 785.7,284.5 787.2,284.5 788.6,284.5 790.0,284.5 791.4,284.5 792.9,284.5 794.3,284.5 795.7,284.5 797.1,284.5 798.6,284.5" fill="none" stroke="#f39c12" stroke-width="1.3" stroke-linejoin="round" clip-path="url(#pc734)"/>
</svg>
