<svg xmlns="http://www.w3.org/2000/svg" viewBox="0 0 820 392" style="font-family:system-ui,-apple-system,sans-serif">
  <text x="800" y="11" text-anchor="end" font-size="11" font-weight="600" fill="#6b7280">Yule-Walker IIR, order 8</text>
  <line x1="34" y1="16" x2="34" y2="171" stroke="#d1d5db"/>
  <line x1="34" y1="47.0" x2="392" y2="47.0" stroke="#d1d5db"/>
  <text x="213" y="197" text-anchor="middle" font-size="9" fill="#6b7280">Hz</text>
  <text x="12" y="93.5" text-anchor="middle" font-size="9" fill="#6b7280" transform="rotate(-90 12 93.5)">dB</text>
  <line x1="66.6" y1="16" x2="66.6" y2="171" stroke="#e5e7eb" stroke-width="0.5"/>
  <line x1="85.7" y1="16" x2="85.7" y2="171" stroke="#e5e7eb" stroke-width="0.5"/>
  <line x1="99.3" y1="16" x2="99.3" y2="171" stroke="#e5e7eb" stroke-width="0.5"/>
  <line x1="109.8" y1="16" x2="109.8" y2="171" stroke="#e5e7eb" stroke-width="0.5"/>
  <line x1="118.4" y1="16" x2="118.4" y2="171" stroke="#e5e7eb" stroke-width="0.5"/>
  <line x1="125.7" y1="16" x2="125.7" y2="171" stroke="#e5e7eb" stroke-width="0.5"/>
  <line x1="131.9" y1="16" x2="131.9" y2="171" stroke="#e5e7eb" stroke-width="0.5"/>
  <line x1="137.5" y1="16" x2="137.5" y2="171" stroke="#e5e7eb" stroke-width="0.5"/>
  <line x1="175.1" y1="16" x2="175.1" y2="171" stroke="#e5e7eb" stroke-width="0.5"/>
  <line x1="194.2" y1="16" x2="194.2" y2="171" stroke="#e5e7eb" stroke-width="0.5"/>
  <line x1="207.7" y1="16" x2="207.7" y2="171" stroke="#e5e7eb" stroke-width="0.5"/>
  <line x1="218.3" y1="16" x2="218.3" y2="171" stroke="#e5e7eb" stroke-width="0.5"/>
  <line x1="226.8" y1="16" x2="226.8" y2="171" stroke="#e5e7eb" stroke-width="0.5"/>
  <line x1="234.1" y1="16" x2="234.1" y2="171" stroke="#e5e7eb" stroke-width="0.5"/>
  <line x1="240.4" y1="16" x2="240.4" y2="171" stroke="#e5e7eb" stroke-width="0.5"/>
  <line x1="245.9" y1="16" x2="245.9" y2="171" stroke="#e5e7eb" stroke-width="0.5"/>
  <line x1="283.5" y1="16" x2="283.5" y2="171" stroke="#e5e7eb" stroke-width="0.5"/>
  <line x1="302.6" y1="16" x2="302.6" y2="171" stroke="#e5e7eb" stroke-width="0.5"/>
  <line x1="316.2" y1="16" x2="316.2" y2="171" stroke="#e5e7eb" stroke-width="0.5"/>
  <line x1="326.7" y1="16" x2="326.7" y2="171" stroke="#e5e7eb" stroke-width="0.5"/>
  <line x1="335.3" y1="16" x2="335.3" y2="171" stroke="#e5e7eb" stroke-width="0.5"/>
  <line x1="342.6" y1="16" x2="342.6" y2="171" stroke="#e5e7eb" stroke-width="0.5"/>
  <line x1="348.8" y1="16" x2="348.8" y2="171" stroke="#e5e7eb" stroke-width="0.5"/>
  <line x1="354.4" y1="16" x2="354.4" y2="171" stroke="#e5e7eb" stroke-width="0.5"/>
  <line x1="392.0" y1="16" x2="392.0" y2="171" stroke="#e5e7eb" stroke-width="0.5"/>
  <line x1="142.5" y1="16" x2="142.5" y2="171" stroke="#e5e7eb" stroke-width="0.5"/>
  <text x="142.5" y="183" text-anchor="middle" font-size="8" fill="#6b7280">100</text>
  <line x1="250.9" y1="16" x2="250.9" y2="171" stroke="#e5e7eb" stroke-width="0.5"/>
  <text x="250.9" y="183" text-anchor="middle" font-size="8" fill="#6b7280">1k</text>
  <line x1="359.4" y1="16" x2="359.4" y2="171" stroke="#e5e7eb" stroke-width="0.5"/>
  <text x="359.4" y="183" text-anchor="middle" font-size="8" fill="#6b7280">10k</text>
  <line x1="34" y1="31.5" x2="392" y2="31.5" stroke="#e5e7eb" stroke-width="0.5"/>
  <line x1="34" y1="62.5" x2="392" y2="62.5" stroke="#e5e7eb" stroke-width="0.5"/>
  <line x1="34" y1="16.0" x2="392" y2="16.0" stroke="#e5e7eb" stroke-width="0.5"/>
  <text x="30" y="19.0" text-anchor="end" font-size="8" fill="#6b7280">+20</text>
  <text x="30" y="50.0" text-anchor="end" font-size="8" fill="#6b7280">0</text>
  <line x1="34" y1="78.0" x2="392" y2="78.0" stroke="#e5e7eb" stroke-width="0.5"/>
  <text x="30" y="81.0" text-anchor="end" font-size="8" fill="#6b7280">-20</text>
  <line x1="34" y1="109.0" x2="392" y2="109.0" stroke="#e5e7eb" stroke-width="0.5"/>
  <text x="30" y="112.0" text-anchor="end" font-size="8" fill="#6b7280">-40</text>
  <line x1="34" y1="140.0" x2="392" y2="140.0" stroke="#e5e7eb" stroke-width="0.5"/>
  <text x="30" y="143.0" text-anchor="end" font-size="8" fill="#6b7280">-60</text>
  <line x1="34" y1="171.0" x2="392" y2="171.0" stroke="#e5e7eb" stroke-width="0.5"/>
  <text x="30" y="174.0" text-anchor="end" font-size="8" fill="#6b7280">-80</text>
  <defs><linearGradient id="g647" x1="0" y1="16" x2="0" y2="171" gradientUnits="userSpaceOnUse">
    <stop offset="0%" stop-color="#4a90d9" stop-opacity="0.15"/>
    <stop offset="100%" stop-color="#4a90d9" stop-opacity="0.02"/>
  </linearGradient></defs>
  <path d="M37.5,16.0 37.5,16.0 70.1,16.0 89.2,16.0 102.8,16.0 113.3,16.0 121.9,16.0 129.1,16.0 135.4,16.0 141.0,16.0 145.9,16.0 150.4,16.0 154.5,16.0 158.3,16.0 161.8,16.0 165.0,16.0 168.1,16.0 170.9,16.0 173.6,16.0 176.2,16.0 178.6,16.0 180.9,16.0 183.1,16.0 185.2,16.0 187.2,16.0 189.1,16.0 190.9,16.0 192.7,16.0 194.4,16.0 196.1,16.0 197.7,16.0 199.2,16.0 200.7,16.0 202.2,16.0 203.6,16.0 204.9,16.0 206.3,16.0 207.6,16.0 208.8,16.0 210.0,16.0 211.2,16.0 212.4,16.0 213.5,16.0 214.6,16.0 215.7,16.0 216.8,16.0 217.8,16.0 218.8,16.0 219.8,16.0 220.8,16.0 221.7,16.0 222.7,16.0 223.6,16.0 224.5,16.0 225.4,16.0 226.2,16.0 227.1,16.0 227.9,16.0 228.7,16.0 229.5,16.0 231.1,16.0 232.6,16.0 234.1,16.0 235.5,16.0 236.9,16.0 238.2,16.0 239.6,16.0 240.8,16.0 242.1,16.0 243.3,16.0 244.5,16.0 245.6,16.0 246.7,16.0 247.8,16.0 248.9,16.0 249.9,16.0 251.0,16.0 252.0,16.0 252.9,16.0 253.9,16.0 254.8,16.0 255.8,16.0 256.7,16.0 257.6,16.0 258.4,16.0 259.3,16.0 260.1,16.0 261.0,16.0 261.8,16.0 263.0,16.0 264.1,16.0 265.3,16.0 266.4,16.0 267.5,16.0 268.5,16.0 269.6,16.0 270.6,16.0 271.6,16.0 272.5,16.0 273.5,16.0 274.4,16.0 275.3,16.0 276.2,16.0 277.1,16.0 278.0,16.0 278.8,16.0 279.6,16.0 280.5,16.0 281.3,16.0 282.3,16.0 283.4,16.0 284.4,16.0 285.3,16.0 286.3,16.0 287.3,16.0 288.2,16.0 289.1,16.0 290.0,16.0 290.9,16.0 291.7,16.0 292.6,16.0 293.4,16.0 294.2,16.0 295.0,16.0 296.0,16.0 297.0,16.0 297.9,16.0 298.8,16.0 299.7,16.0 300.6,16.0 301.5,16.0 302.4,16.0 303.2,16.0 304.0,16.0 304.9,16.0 305.8,16.0 306.7,16.0 307.7,16.0 308.6,16.0 309.5,16.0 310.3,16.0 311.2,16.0 312.0,16.0 312.8,16.0 313.7,16.0 314.6,16.0 315.5,16.0 316.4,16.0 317.3,16.0 318.1,16.0 319.0,16.0 319.8,16.0 320.6,16.0 321.4,16.0 322.3,16.0 323.2,16.0 324.1,16.0 324.9,16.0 325.7,16.0 326.6,16.0 327.4,16.0 328.3,16.0 329.1,16.0 330.0,16.0 330.8,16.0 331.7,16.0 332.5,16.0 333.3,16.0 334.2,16.0 335.0,16.0 335.9,16.0 336.7,16.0 337.5,16.0 338.4,16.0 339.2,16.0 340.1,16.0 340.9,16.0 341.7,16.0 342.5,16.0 343.4,16.0 344.2,16.0 345.1,16.0 345.9,16.0 346.7,16.0 347.6,16.0 348.4,16.0 349.2,16.0 350.0,16.0 350.9,16.0 351.7,16.0 352.6,16.0 353.4,16.0 354.2,16.0 355.1,16.0 355.9,16.0 356.7,16.0 357.6,16.0 358.4,16.0 359.2,16.0 360.0,16.0 360.9,16.0 361.7,16.0 362.5,16.0 363.3,16.0 364.2,16.0 365.0,16.0 365.8,16.0 366.6,16.0 367.4,16.0 368.3,16.0 369.1,16.0 369.9,16.0 370.7,16.0 371.5,16.0 372.4,16.0 373.2,16.0 374.0,16.0 374.8,16.0 375.6,16.0 376.4,16.0 377.2,16.0 378.1,16.0 378.9,16.0 379.7,16.0 380.5,16.0 381.3,16.0 382.1,16.0 383.0,16.0 383.8,16.0 384.6,16.0 385.4,16.0 386.2,16.0 387.0,16.0 387.9,16.0 388.7,16.0 389.5,16.0 390.3,16.0 391.1,16.0 391.9,16.0 L391.9,171.0 L37.5,171.0 Z" fill="url(#g647)"/>
  <defs><clipPath id="pc648"><rect x="34" y="16" width="358" height="155"/></clipPath></defs>
  <polyline points="37.5,-Infinity 70.1,-Infinity 89.2,-Infinity 102.8,-Infinity 113.3,-Infinity 121.9,-Infinity 129.1,-Infinity 135.4,-Infinity 141.0,-Infinity 145.9,-Infinity 150.4,-Infinity 154.5,-Infinity 158.3,-Infinity 161.8,-Infinity 165.0,-Infinity 168.1,-Infinity 170.9,-Infinity 173.6,-Infinity 176.2,-Infinity 178.6,-Infinity 180.9,-Infinity 183.1,-Infinity 185.2,-Infinity 187.2,-Infinity 189.1,-Infinity 190.9,-Infinity 192.7,-Infinity 194.4,-Infinity 196.1,-Infinity 197.7,-Infinity 199.2,-Infinity 200.7,-Infinity 202.2,-Infinity 203.6,-Infinity 204.9,-Infinity 206.3,-Infinity 207.6,-Infinity 208.8,-Infinity 210.0,-Infinity 211.2,-Infinity 212.4,-Infinity 213.5,-Infinity 214.6,-Infinity 215.7,-Infinity 216.8,-Infinity 217.8,-Infinity 218.8,-Infinity 219.8,-Infinity 220.8,-Infinity 221.7,-Infinity 222.7,-Infinity 223.6,-Infinity 224.5,-Infinity 225.4,-Infinity 226.2,-Infinity 227.1,-Infinity 227.9,-Infinity 228.7,-Infinity 229.5,-Infinity 231.1,-Infinity 232.6,-Infinity 234.1,-Infinity 235.5,-Infinity 236.9,-Infinity 238.2,-Infinity 239.6,-Infinity 240.8,-Infinity 242.1,-Infinity 243.3,-Infinity 244.5,-Infinity 245.6,-Infinity 246.7,-Infinity 247.8,-Infinity 248.9,-Infinity 249.9,-Infinity 251.0,-Infinity 252.0,-Infinity 252.9,-Infinity 253.9,-Infinity 254.8,-Infinity 255.8,-Infinity 256.7,-Infinity 257.6,-Infinity 258.4,-Infinity 259.3,-Infinity 260.1,-Infinity 261.0,-Infinity 261.8,-Infinity 263.0,-Infinity 264.1,-Infinity 265.3,-Infinity 266.4,-Infinity 267.5,-Infinity 268.5,-Infinity 269.6,-Infinity 270.6,-Infinity 271.6,-Infinity 272.5,-Infinity 273.5,-Infinity 274.4,-Infinity 275.3,-Infinity 276.2,-Infinity 277.1,-Infinity 278.0,-Infinity 278.8,-Infinity 279.6,-Infinity 280.5,-Infinity 281.3,-Infinity 282.3,-Infinity 283.4,-Infinity 284.4,-Infinity 285.3,-Infinity 286.3,-Infinity 287.3,-Infinity 288.2,-Infinity 289.1,-Infinity 290.0,-Infinity 290.9,-Infinity 291.7,-Infinity 292.6,-Infinity 293.4,-Infinity 294.2,-Infinity 295.0,-Infinity 296.0,-Infinity 297.0,-Infinity 297.9,-Infinity 298.8,-Infinity 299.7,-Infinity 300.6,-Infinity 301.5,-Infinity 302.4,-Infinity 303.2,-Infinity 304.0,-Infinity 304.9,-Infinity 305.8,-Infinity 306.7,-Infinity 307.7,-Infinity 308.6,-Infinity 309.5,-Infinity 310.3,-Infinity 311.2,-Infinity 312.0,-Infinity 312.8,-Infinity 313.7,-Infinity 314.6,-Infinity 315.5,-Infinity 316.4,-Infinity 317.3,-Infinity 318.1,-Infinity 319.0,-Infinity 319.8,-Infinity 320.6,-Infinity 321.4,-Infinity 322.3,-Infinity 323.2,-Infinity 324.1,-Infinity 324.9,-Infinity 325.7,-Infinity 326.6,-Infinity 327.4,-Infinity 328.3,-Infinity 329.1,-Infinity 330.0,-Infinity 330.8,-Infinity 331.7,-Infinity 332.5,-Infinity 333.3,-Infinity 334.2,-Infinity 335.0,-Infinity 335.9,-Infinity 336.7,-Infinity 337.5,-Infinity 338.4,-Infinity 339.2,-Infinity 340.1,-Infinity 340.9,-Infinity 341.7,-Infinity 342.5,-Infinity 343.4,-Infinity 344.2,-Infinity 345.1,-Infinity 345.9,-Infinity 346.7,-Infinity 347.6,-Infinity 348.4,-Infinity 349.2,-Infinity 350.0,-Infinity 350.9,-Infinity 351.7,-Infinity 352.6,-Infinity 353.4,-Infinity 354.2,-Infinity 355.1,-Infinity 355.9,-Infinity 356.7,-Infinity 357.6,-Infinity 358.4,-Infinity 359.2,-Infinity 360.0,-Infinity 360.9,-Infinity 361.7,-Infinity 362.5,-Infinity 363.3,-Infinity 364.2,-Infinity 365.0,-Infinity 365.8,-Infinity 366.6,-Infinity 367.4,-Infinity 368.3,-Infinity 369.1,-Infinity 369.9,-Infinity 370.7,-Infinity 371.5,-Infinity 372.4,-Infinity 373.2,-Infinity 374.0,-Infinity 374.8,-Infinity 375.6,-Infinity 376.4,-Infinity 377.2,-Infinity 378.1,-Infinity 378.9,-Infinity 379.7,-Infinity 380.5,-Infinity 381.3,-Infinity 382.1,-Infinity 383.0,-Infinity 383.8,-Infinity 384.6,-Infinity 385.4,-Infinity 386.2,-Infinity 387.0,-Infinity 387.9,-Infinity 388.7,-Infinity 389.5,-Infinity 390.3,-Infinity 391.1,-Infinity 391.9,-Infinity" fill="none" stroke="#4a90d9" stroke-width="1.5" stroke-linejoin="round" clip-path="url(#pc648)"/>
  <line x1="442" y1="16" x2="442" y2="171" stroke="#d1d5db"/>
  <line x1="442" y1="93.5" x2="800" y2="93.5" stroke="#d1d5db"/>
  <text x="621" y="197" text-anchor="middle" font-size="9" fill="#6b7280">Hz</text>
  <text x="420" y="93.5" text-anchor="middle" font-size="9" fill="#6b7280" transform="rotate(-90 420 93.5)">Phase (deg)</text>
  <line x1="474.6" y1="16" x2="474.6" y2="171" stroke="#e5e7eb" stroke-width="0.5"/>
  <line x1="493.7" y1="16" x2="493.7" y2="171" stroke="#e5e7eb" stroke-width="0.5"/>
  <line x1="507.3" y1="16" x2="507.3" y2="171" stroke="#e5e7eb" stroke-width="0.5"/>
  <line x1="517.8" y1="16" x2="517.8" y2="171" stroke="#e5e7eb" stroke-width="0.5"/>
  <line x1="526.4" y1="16" x2="526.4" y2="171" stroke="#e5e7eb" stroke-width="0.5"/>
  <line x1="533.7" y1="16" x2="533.7" y2="171" stroke="#e5e7eb" stroke-width="0.5"/>
  <line x1="539.9" y1="16" x2="539.9" y2="171" stroke="#e5e7eb" stroke-width="0.5"/>
  <line x1="545.5" y1="16" x2="545.5" y2="171" stroke="#e5e7eb" stroke-width="0.5"/>
  <line x1="583.1" y1="16" x2="583.1" y2="171" stroke="#e5e7eb" stroke-width="0.5"/>
  <line x1="602.2" y1="16" x2="602.2" y2="171" stroke="#e5e7eb" stroke-width="0.5"/>
  <line x1="615.7" y1="16" x2="615.7" y2="171" stroke="#e5e7eb" stroke-width="0.5"/>
  <line x1="626.3" y1="16" x2="626.3" y2="171" stroke="#e5e7eb" stroke-width="0.5"/>
  <line x1="634.8" y1="16" x2="634.8" y2="171" stroke="#e5e7eb" stroke-width="0.5"/>
  <line x1="642.1" y1="16" x2="642.1" y2="171" stroke="#e5e7eb" stroke-width="0.5"/>
  <line x1="648.4" y1="16" x2="648.4" y2="171" stroke="#e5e7eb" stroke-width="0.5"/>
  <line x1="653.9" y1="16" x2="653.9" y2="171" stroke="#e5e7eb" stroke-width="0.5"/>
  <line x1="691.5" y1="16" x2="691.5" y2="171" stroke="#e5e7eb" stroke-width="0.5"/>
  <line x1="710.6" y1="16" x2="710.6" y2="171" stroke="#e5e7eb" stroke-width="0.5"/>
  <line x1="724.2" y1="16" x2="724.2" y2="171" stroke="#e5e7eb" stroke-width="0.5"/>
  <line x1="734.7" y1="16" x2="734.7" y2="171" stroke="#e5e7eb" stroke-width="0.5"/>
  <line x1="743.3" y1="16" x2="743.3" y2="171" stroke="#e5e7eb" stroke-width="0.5"/>
  <line x1="750.6" y1="16" x2="750.6" y2="171" stroke="#e5e7eb" stroke-width="0.5"/>
  <line x1="756.8" y1="16" x2="756.8" y2="171" stroke="#e5e7eb" stroke-width="0.5"/>
  <line x1="762.4" y1="16" x2="762.4" y2="171" stroke="#e5e7eb" stroke-width="0.5"/>
  <line x1="800.0" y1="16" x2="800.0" y2="171" stroke="#e5e7eb" stroke-width="0.5"/>
  <line x1="550.5" y1="16" x2="550.5" y2="171" stroke="#e5e7eb" stroke-width="0.5"/>
  <text x="550.5" y="183" text-anchor="middle" font-size="8" fill="#6b7280">100</text>
  <line x1="658.9" y1="16" x2="658.9" y2="171" stroke="#e5e7eb" stroke-width="0.5"/>
  <text x="658.9" y="183" text-anchor="middle" font-size="8" fill="#6b7280">1k</text>
  <line x1="767.4" y1="16" x2="767.4" y2="171" stroke="#e5e7eb" stroke-width="0.5"/>
  <text x="767.4" y="183" text-anchor="middle" font-size="8" fill="#6b7280">10k</text>
  <line x1="442" y1="54.8" x2="800" y2="54.8" stroke="#e5e7eb" stroke-width="0.5"/>
  <line x1="442" y1="132.3" x2="800" y2="132.3" stroke="#e5e7eb" stroke-width="0.5"/>
  <line x1="442" y1="16.0" x2="800" y2="16.0" stroke="#e5e7eb" stroke-width="0.5"/>
  <text x="438" y="19.0" text-anchor="end" font-size="8" fill="#6b7280">180</text>
  <text x="438" y="96.5" text-anchor="end" font-size="8" fill="#6b7280">0</text>
  <line x1="442" y1="171.0" x2="800" y2="171.0" stroke="#e5e7eb" stroke-width="0.5"/>
  <text x="438" y="174.0" text-anchor="end" font-size="8" fill="#6b7280">-180</text>
  <defs><linearGradient id="g649" x1="0" y1="16" x2="0" y2="93.5" gradientUnits="userSpaceOnUse">
    <stop offset="0%" stop-color="#e74c3c" stop-opacity="0.15"/>
    <stop offset="100%" stop-color="#e74c3c" stop-opacity="0.02"/>
  </linearGradient></defs>
  <defs><linearGradient id="g650" x1="0" y1="171" x2="0" y2="93.5" gradientUnits="userSpaceOnUse">
    <stop offset="0%" stop-color="#e74c3c" stop-opacity="0.15"/>
    <stop offset="100%" stop-color="#e74c3c" stop-opacity="0.02"/>
  </linearGradient></defs>
  <defs><clipPath id="c651"><rect x="442" y="16" width="358" height="77.5"/></clipPath></defs>
  <defs><clipPath id="c652"><rect x="442" y="93.5" width="358" height="77.5"/></clipPath></defs>
  <path d="M445.5,25.7 445.5,25.7 478.1,35.3 497.2,45.0 510.8,54.6 521.3,64.3 529.9,73.9 537.1,83.6 543.4,93.2 549.0,102.9 553.9,112.6 558.4,122.2 562.5,131.9 566.3,141.5 569.8,151.2 573.0,160.8 576.1,170.5 578.9,25.1 581.6,34.8 584.2,44.5 586.6,54.1 588.9,63.8 591.1,73.4 593.2,83.1 595.2,92.7 597.1,102.4 598.9,112.0 600.7,121.7 602.4,131.4 604.1,141.0 605.7,150.7 607.2,160.3 608.7,170.0 610.2,24.6 611.6,34.3 612.9,43.9 614.3,53.6 615.6,63.3 616.8,72.9 618.0,82.6 619.2,92.2 620.4,101.9 621.5,111.5 622.6,121.2 623.7,130.8 624.8,140.5 625.8,150.2 626.8,159.8 627.8,169.5 628.8,24.1 629.7,33.8 630.7,43.4 631.6,53.1 632.5,62.7 633.4,72.4 634.2,82.1 635.1,91.7 635.9,101.4 636.7,111.0 637.5,120.7 639.1,140.0 640.6,159.3 642.1,23.6 643.5,42.9 644.9,62.2 646.2,81.5 647.6,100.9 648.8,120.2 650.1,139.5 651.3,158.8 652.5,23.1 653.6,42.4 654.7,61.7 655.8,81.0 656.9,100.3 657.9,119.7 659.0,139.0 660.0,158.3 660.9,22.6 661.9,41.9 662.8,61.2 663.8,80.5 664.7,99.8 665.6,119.1 666.4,138.5 667.3,157.8 668.1,22.1 669.0,41.4 669.8,60.7 671.0,89.7 672.1,118.6 673.3,147.6 674.4,21.6 675.5,50.5 676.5,79.5 677.6,108.5 678.6,137.4 679.6,166.4 680.5,40.4 681.5,69.3 682.4,98.3 683.3,127.3 684.2,156.2 685.1,30.2 686.0,59.2 686.8,88.1 687.6,117.1 688.5,146.1 689.3,20.0 690.3,58.7 691.4,97.3 692.4,135.9 693.3,19.5 694.3,58.1 695.3,96.8 696.2,135.4 697.1,19.0 698.0,57.6 698.9,96.2 699.7,134.9 700.6,18.5 701.4,57.1 702.2,95.7 703.0,134.4 704.0,27.6 705.0,75.9 705.9,124.2 706.8,17.5 707.7,65.7 708.6,114.0 709.5,162.3 710.4,55.6 711.2,103.8 712.0,152.1 712.9,45.4 713.8,103.3 714.7,161.3 715.7,64.2 716.6,122.1 717.5,25.1 718.3,83.0 719.2,140.9 720.0,43.8 720.8,101.8 721.7,159.7 722.6,72.3 723.5,139.9 724.4,52.5 725.3,120.0 726.1,32.6 727.0,100.2 727.8,167.8 728.6,80.4 729.4,148.0 730.3,70.2 731.2,147.4 732.1,69.7 732.9,146.9 733.7,69.2 734.6,146.4 735.4,68.6 736.3,155.5 737.1,87.4 738.0,19.3 738.8,106.2 739.7,38.1 740.5,125.0 741.3,56.9 742.2,153.4 743.0,95.0 743.9,36.5 744.7,133.0 745.5,74.6 746.4,25.8 747.2,132.0 748.1,83.2 748.9,34.4 749.7,140.6 750.5,91.7 751.4,52.6 752.2,168.4 753.1,129.3 753.9,90.1 754.7,51.0 755.6,21.5 756.4,147.0 757.2,117.4 758.0,87.9 758.9,68.1 759.7,48.2 760.6,28.4 761.4,163.5 762.2,153.3 763.1,143.1 763.9,132.9 764.7,122.6 765.6,122.1 766.4,121.5 767.2,120.9 768.0,120.4 768.9,129.4 769.7,138.5 770.5,147.6 771.3,166.3 772.2,30.0 773.0,48.7 773.8,67.5 774.6,95.8 775.4,124.2 776.3,152.5 777.1,35.5 777.9,73.5 778.7,111.5 779.5,159.1 780.4,51.8 781.2,99.4 782.0,156.6 782.8,58.9 783.6,125.8 784.4,37.7 785.2,104.6 786.1,26.1 786.9,102.6 787.7,33.8 788.5,119.9 789.3,51.1 790.1,146.9 791.0,87.6 791.8,38.0 792.6,143.4 793.4,103.5 794.2,63.5 795.0,33.2 795.9,157.8 796.7,137.1 797.5,116.4 798.3,105.3 799.1,94.2 799.9,92.7 L799.9,93.5 L445.5,93.5 Z" fill="url(#g649)" clip-path="url(#c651)"/>
  <path d="M445.5,25.7 445.5,25.7 478.1,35.3 497.2,45.0 510.8,54.6 521.3,64.3 529.9,73.9 537.1,83.6 543.4,93.2 549.0,102.9 553.9,112.6 558.4,122.2 562.5,131.9 566.3,141.5 569.8,151.2 573.0,160.8 576.1,170.5 578.9,25.1 581.6,34.8 584.2,44.5 586.6,54.1 588.9,63.8 591.1,73.4 593.2,83.1 595.2,92.7 597.1,102.4 598.9,112.0 600.7,121.7 602.4,131.4 604.1,141.0 605.7,150.7 607.2,160.3 608.7,170.0 610.2,24.6 611.6,34.3 612.9,43.9 614.3,53.6 615.6,63.3 616.8,72.9 618.0,82.6 619.2,92.2 620.4,101.9 621.5,111.5 622.6,121.2 623.7,130.8 624.8,140.5 625.8,150.2 626.8,159.8 627.8,169.5 628.8,24.1 629.7,33.8 630.7,43.4 631.6,53.1 632.5,62.7 633.4,72.4 634.2,82.1 635.1,91.7 635.9,101.4 636.7,111.0 637.5,120.7 639.1,140.0 640.6,159.3 642.1,23.6 643.5,42.9 644.9,62.2 646.2,81.5 647.6,100.9 648.8,120.2 650.1,139.5 651.3,158.8 652.5,23.1 653.6,42.4 654.7,61.7 655.8,81.0 656.9,100.3 657.9,119.7 659.0,139.0 660.0,158.3 660.9,22.6 661.9,41.9 662.8,61.2 663.8,80.5 664.7,99.8 665.6,119.1 666.4,138.5 667.3,157.8 668.1,22.1 669.0,41.4 669.8,60.7 671.0,89.7 672.1,118.6 673.3,147.6 674.4,21.6 675.5,50.5 676.5,79.5 677.6,108.5 678.6,137.4 679.6,166.4 680.5,40.4 681.5,69.3 682.4,98.3 683.3,127.3 684.2,156.2 685.1,30.2 686.0,59.2 686.8,88.1 687.6,117.1 688.5,146.1 689.3,20.0 690.3,58.7 691.4,97.3 692.4,135.9 693.3,19.5 694.3,58.1 695.3,96.8 696.2,135.4 697.1,19.0 698.0,57.6 698.9,96.2 699.7,134.9 700.6,18.5 701.4,57.1 702.2,95.7 703.0,134.4 704.0,27.6 705.0,75.9 705.9,124.2 706.8,17.5 707.7,65.7 708.6,114.0 709.5,162.3 710.4,55.6 711.2,103.8 712.0,152.1 712.9,45.4 713.8,103.3 714.7,161.3 715.7,64.2 716.6,122.1 717.5,25.1 718.3,83.0 719.2,140.9 720.0,43.8 720.8,101.8 721.7,159.7 722.6,72.3 723.5,139.9 724.4,52.5 725.3,120.0 726.1,32.6 727.0,100.2 727.8,167.8 728.6,80.4 729.4,148.0 730.3,70.2 731.2,147.4 732.1,69.7 732.9,146.9 733.7,69.2 734.6,146.4 735.4,68.6 736.3,155.5 737.1,87.4 738.0,19.3 738.8,106.2 739.7,38.1 740.5,125.0 741.3,56.9 742.2,153.4 743.0,95.0 743.9,36.5 744.7,133.0 745.5,74.6 746.4,25.8 747.2,132.0 748.1,83.2 748.9,34.4 749.7,140.6 750.5,91.7 751.4,52.6 752.2,168.4 753.1,129.3 753.9,90.1 754.7,51.0 755.6,21.5 756.4,147.0 757.2,117.4 758.0,87.9 758.9,68.1 759.7,48.2 760.6,28.4 761.4,163.5 762.2,153.3 763.1,143.1 763.9,132.9 764.7,122.6 765.6,122.1 766.4,121.5 767.2,120.9 768.0,120.4 768.9,129.4 769.7,138.5 770.5,147.6 771.3,166.3 772.2,30.0 773.0,48.7 773.8,67.5 774.6,95.8 775.4,124.2 776.3,152.5 777.1,35.5 777.9,73.5 778.7,111.5 779.5,159.1 780.4,51.8 781.2,99.4 782.0,156.6 782.8,58.9 783.6,125.8 784.4,37.7 785.2,104.6 786.1,26.1 786.9,102.6 787.7,33.8 788.5,119.9 789.3,51.1 790.1,146.9 791.0,87.6 791.8,38.0 792.6,143.4 793.4,103.5 794.2,63.5 795.0,33.2 795.9,157.8 796.7,137.1 797.5,116.4 798.3,105.3 799.1,94.2 799.9,92.7 L799.9,93.5 L445.5,93.5 Z" fill="url(#g650)" clip-path="url(#c652)"/>
  <defs><clipPath id="pc653"><rect x="442" y="16" width="358" height="155"/></clipPath></defs>
  <polyline points="445.5,25.7 478.1,35.3 497.2,45.0 510.8,54.6 521.3,64.3 529.9,73.9 537.1,83.6 543.4,93.2 549.0,102.9 553.9,112.6 558.4,122.2 562.5,131.9 566.3,141.5 569.8,151.2 573.0,160.8 576.1,170.5 578.9,25.1 581.6,34.8 584.2,44.5 586.6,54.1 588.9,63.8 591.1,73.4 593.2,83.1 595.2,92.7 597.1,102.4 598.9,112.0 600.7,121.7 602.4,131.4 604.1,141.0 605.7,150.7 607.2,160.3 608.7,170.0 610.2,24.6 611.6,34.3 612.9,43.9 614.3,53.6 615.6,63.3 616.8,72.9 618.0,82.6 619.2,92.2 620.4,101.9 621.5,111.5 622.6,121.2 623.7,130.8 624.8,140.5 625.8,150.2 626.8,159.8 627.8,169.5 628.8,24.1 629.7,33.8 630.7,43.4 631.6,53.1 632.5,62.7 633.4,72.4 634.2,82.1 635.1,91.7 635.9,101.4 636.7,111.0 637.5,120.7 639.1,140.0 640.6,159.3 642.1,23.6 643.5,42.9 644.9,62.2 646.2,81.5 647.6,100.9 648.8,120.2 650.1,139.5 651.3,158.8 652.5,23.1 653.6,42.4 654.7,61.7 655.8,81.0 656.9,100.3 657.9,119.7 659.0,139.0 660.0,158.3 660.9,22.6 661.9,41.9 662.8,61.2 663.8,80.5 664.7,99.8 665.6,119.1 666.4,138.5 667.3,157.8 668.1,22.1 669.0,41.4 669.8,60.7 671.0,89.7 672.1,118.6 673.3,147.6 674.4,21.6 675.5,50.5 676.5,79.5 677.6,108.5 678.6,137.4 679.6,166.4 680.5,40.4 681.5,69.3 682.4,98.3 683.3,127.3 684.2,156.2 685.1,30.2 686.0,59.2 686.8,88.1 687.6,117.1 688.5,146.1 689.3,20.0 690.3,58.7 691.4,97.3 692.4,135.9 693.3,19.5 694.3,58.1 695.3,96.8 696.2,135.4 697.1,19.0 698.0,57.6 698.9,96.2 699.7,134.9 700.6,18.5 701.4,57.1 702.2,95.7 703.0,134.4 704.0,27.6 705.0,75.9 705.9,124.2 706.8,17.5 707.7,65.7 708.6,114.0 709.5,162.3 710.4,55.6 711.2,103.8 712.0,152.1 712.9,45.4 713.8,103.3 714.7,161.3 715.7,64.2 716.6,122.1 717.5,25.1 718.3,83.0 719.2,140.9 720.0,43.8 720.8,101.8 721.7,159.7 722.6,72.3 723.5,139.9 724.4,52.5 725.3,120.0 726.1,32.6 727.0,100.2 727.8,167.8 728.6,80.4 729.4,148.0 730.3,70.2 731.2,147.4 732.1,69.7 732.9,146.9 733.7,69.2 734.6,146.4 735.4,68.6 736.3,155.5 737.1,87.4 738.0,19.3 738.8,106.2 739.7,38.1 740.5,125.0 741.3,56.9 742.2,153.4 743.0,95.0 743.9,36.5 744.7,133.0 745.5,74.6 746.4,25.8 747.2,132.0 748.1,83.2 748.9,34.4 749.7,140.6 750.5,91.7 751.4,52.6 752.2,168.4 753.1,129.3 753.9,90.1 754.7,51.0 755.6,21.5 756.4,147.0 757.2,117.4 758.0,87.9 758.9,68.1 759.7,48.2 760.6,28.4 761.4,163.5 762.2,153.3 763.1,143.1 763.9,132.9 764.7,122.6 765.6,122.1 766.4,121.5 767.2,120.9 768.0,120.4 768.9,129.4 769.7,138.5 770.5,147.6 771.3,166.3 772.2,30.0 773.0,48.7 773.8,67.5 774.6,95.8 775.4,124.2 776.3,152.5 777.1,35.5 777.9,73.5 778.7,111.5 779.5,159.1 780.4,51.8 781.2,99.4 782.0,156.6 782.8,58.9 783.6,125.8 784.4,37.7 785.2,104.6 786.1,26.1 786.9,102.6 787.7,33.8 788.5,119.9 789.3,51.1 790.1,146.9 791.0,87.6 791.8,38.0 792.6,143.4 793.4,103.5 794.2,63.5 795.0,33.2 795.9,157.8 796.7,137.1 797.5,116.4 798.3,105.3 799.1,94.2 799.9,92.7" fill="none" stroke="#e74c3c" stroke-width="1.5" stroke-linejoin="round" clip-path="url(#pc653)"/>
  <line x1="34" y1="221" x2="34" y2="376" stroke="#d1d5db"/>
  <line x1="34" y1="298.5" x2="392" y2="298.5" stroke="#d1d5db"/>
  <text x="213" y="402" text-anchor="middle" font-size="9" fill="#6b7280">Hz</text>
  <text x="12" y="298.5" text-anchor="middle" font-size="9" fill="#6b7280" transform="rotate(-90 12 298.5)">Group delay</text>
  <line x1="66.6" y1="221" x2="66.6" y2="376" stroke="#e5e7eb" stroke-width="0.5"/>
  <line x1="85.7" y1="221" x2="85.7" y2="376" stroke="#e5e7eb" stroke-width="0.5"/>
  <line x1="99.3" y1="221" x2="99.3" y2="376" stroke="#e5e7eb" stroke-width="0.5"/>
  <line x1="109.8" y1="221" x2="109.8" y2="376" stroke="#e5e7eb" stroke-width="0.5"/>
  <line x1="118.4" y1="221" x2="118.4" y2="376" stroke="#e5e7eb" stroke-width="0.5"/>
  <line x1="125.7" y1="221" x2="125.7" y2="376" stroke="#e5e7eb" stroke-width="0.5"/>
  <line x1="131.9" y1="221" x2="131.9" y2="376" stroke="#e5e7eb" stroke-width="0.5"/>
  <line x1="137.5" y1="221" x2="137.5" y2="376" stroke="#e5e7eb" stroke-width="0.5"/>
  <line x1="175.1" y1="221" x2="175.1" y2="376" stroke="#e5e7eb" stroke-width="0.5"/>
  <line x1="194.2" y1="221" x2="194.2" y2="376" stroke="#e5e7eb" stroke-width="0.5"/>
  <line x1="207.7" y1="221" x2="207.7" y2="376" stroke="#e5e7eb" stroke-width="0.5"/>
  <line x1="218.3" y1="221" x2="218.3" y2="376" stroke="#e5e7eb" stroke-width="0.5"/>
  <line x1="226.8" y1="221" x2="226.8" y2="376" stroke="#e5e7eb" stroke-width="0.5"/>
  <line x1="234.1" y1="221" x2="234.1" y2="376" stroke="#e5e7eb" stroke-width="0.5"/>
  <line x1="240.4" y1="221" x2="240.4" y2="376" stroke="#e5e7eb" stroke-width="0.5"/>
  <line x1="245.9" y1="221" x2="245.9" y2="376" stroke="#e5e7eb" stroke-width="0.5"/>
  <line x1="283.5" y1="221" x2="283.5" y2="376" stroke="#e5e7eb" stroke-width="0.5"/>
  <line x1="302.6" y1="221" x2="302.6" y2="376" stroke="#e5e7eb" stroke-width="0.5"/>
  <line x1="316.2" y1="221" x2="316.2" y2="376" stroke="#e5e7eb" stroke-width="0.5"/>
  <line x1="326.7" y1="221" x2="326.7" y2="376" stroke="#e5e7eb" stroke-width="0.5"/>
  <line x1="335.3" y1="221" x2="335.3" y2="376" stroke="#e5e7eb" stroke-width="0.5"/>
  <line x1="342.6" y1="221" x2="342.6" y2="376" stroke="#e5e7eb" stroke-width="0.5"/>
  <line x1="348.8" y1="221" x2="348.8" y2="376" stroke="#e5e7eb" stroke-width="0.5"/>
  <line x1="354.4" y1="221" x2="354.4" y2="376" stroke="#e5e7eb" stroke-width="0.5"/>
  <line x1="392.0" y1="221" x2="392.0" y2="376" stroke="#e5e7eb" stroke-width="0.5"/>
  <line x1="142.5" y1="221" x2="142.5" y2="376" stroke="#e5e7eb" stroke-width="0.5"/>
  <text x="142.5" y="388" text-anchor="middle" font-size="8" fill="#6b7280">100</text>
  <line x1="250.9" y1="221" x2="250.9" y2="376" stroke="#e5e7eb" stroke-width="0.5"/>
  <text x="250.9" y="388" text-anchor="middle" font-size="8" fill="#6b7280">1k</text>
  <line x1="359.4" y1="221" x2="359.4" y2="376" stroke="#e5e7eb" stroke-width="0.5"/>
  <text x="359.4" y="388" text-anchor="middle" font-size="8" fill="#6b7280">10k</text>
  <line x1="34" y1="345.2" x2="392" y2="345.2" stroke="#e5e7eb" stroke-width="0.5"/>
  <text x="30" y="348.2" text-anchor="end" font-size="8" fill="#6b7280">-200</text>
  <text x="30" y="301.5" text-anchor="end" font-size="8" fill="#6b7280">0</text>
  <line x1="34" y1="251.8" x2="392" y2="251.8" stroke="#e5e7eb" stroke-width="0.5"/>
  <text x="30" y="254.8" text-anchor="end" font-size="8" fill="#6b7280">200</text>
  <defs><linearGradient id="g654" x1="0" y1="221" x2="0" y2="298.5" gradientUnits="userSpaceOnUse">
    <stop offset="0%" stop-color="#2ecc71" stop-opacity="0.15"/>
    <stop offset="100%" stop-color="#2ecc71" stop-opacity="0.02"/>
  </linearGradient></defs>
  <path d="M37.5,238.9 37.5,238.9 70.1,238.9 89.2,238.9 102.8,238.9 113.3,238.9 121.9,238.9 129.1,238.9 135.4,238.9 141.0,238.9 145.9,238.9 150.4,238.9 154.5,238.9 158.3,238.9 161.8,238.9 165.0,238.9 168.1,238.9 170.9,238.9 173.6,238.9 176.2,238.9 178.6,238.9 180.9,238.9 183.1,238.9 185.2,238.9 187.2,238.9 189.1,238.9 190.9,238.9 192.7,238.9 194.4,238.9 196.1,238.9 197.7,238.9 199.2,238.9 200.7,238.9 202.2,238.9 203.6,238.9 204.9,238.9 206.3,238.9 207.6,238.9 208.8,238.9 210.0,238.9 211.2,238.9 212.4,238.9 213.5,238.9 214.6,238.9 215.7,238.9 216.8,238.9 217.8,238.9 218.8,238.9 219.8,238.9 220.8,238.9 221.7,238.9 222.7,238.9 223.6,238.9 224.5,238.9 225.4,238.9 226.2,238.9 227.1,238.9 227.9,238.9 228.7,238.9 229.5,238.9 231.1,238.9 232.6,238.9 234.1,238.9 235.5,238.9 236.9,238.9 238.2,238.9 239.6,238.9 240.8,238.9 242.1,238.9 243.3,238.9 244.5,238.9 245.6,238.9 246.7,238.9 247.8,238.9 248.9,238.9 249.9,238.9 251.0,238.9 252.0,238.9 252.9,238.9 253.9,238.9 254.8,238.9 255.8,238.9 256.7,238.9 257.6,238.9 258.4,238.9 259.3,238.9 260.1,238.9 261.0,238.9 261.8,238.9 263.0,238.9 264.1,238.9 265.3,238.9 266.4,238.9 267.5,238.9 268.5,238.9 269.6,238.9 270.6,238.9 271.6,238.9 272.5,238.9 273.5,238.9 274.4,238.9 275.3,238.9 276.2,238.9 277.1,238.9 278.0,238.9 278.8,238.9 279.6,238.9 280.5,238.9 281.3,238.9 282.3,238.9 283.4,238.9 284.4,238.9 285.3,238.9 286.3,238.9 287.3,238.9 288.2,238.9 289.1,238.9 290.0,238.9 290.9,238.9 291.7,238.9 292.6,238.9 293.4,238.9 294.2,238.9 295.0,238.9 296.0,238.9 297.0,238.9 297.9,238.9 298.8,238.9 299.7,238.9 300.6,238.9 301.5,238.9 302.4,238.9 303.2,238.9 304.0,238.9 304.9,238.9 305.8,238.9 306.7,238.9 307.7,238.9 308.6,238.9 309.5,238.9 310.3,238.9 311.2,238.9 312.0,238.9 312.8,238.9 313.7,238.9 314.6,238.9 315.5,238.9 316.4,238.9 317.3,238.9 318.1,238.9 319.0,238.9 319.8,238.9 320.6,238.9 321.4,238.9 322.3,238.9 323.2,238.9 324.1,238.9 324.9,238.9 325.7,238.9 326.6,238.9 327.4,238.9 328.3,238.9 329.1,238.9 330.0,238.9 330.8,238.9 331.7,238.9 332.5,238.9 333.3,238.9 334.2,238.9 335.0,238.9 335.9,238.9 336.7,238.9 337.5,238.9 338.4,238.9 339.2,238.9 340.1,238.9 340.9,238.9 341.7,238.9 342.5,238.9 343.4,238.9 344.2,238.9 345.1,238.9 345.9,238.9 346.7,238.9 347.6,238.9 348.4,238.9 349.2,238.9 350.0,238.9 350.9,238.9 351.7,238.9 352.6,238.9 353.4,238.9 354.2,238.9 355.1,238.9 355.9,238.9 356.7,238.9 357.6,238.9 358.4,238.9 359.2,238.9 360.0,238.9 360.9,238.9 361.7,238.9 362.5,238.9 363.3,238.9 364.2,238.9 365.0,238.9 365.8,238.9 366.6,238.9 367.4,238.9 368.3,238.9 369.1,238.9 369.9,238.9 370.7,238.9 371.5,238.9 372.4,238.9 373.2,238.9 374.0,238.9 374.8,238.9 375.6,238.9 376.4,238.9 377.2,238.9 378.1,238.9 378.9,238.9 379.7,238.9 380.5,238.9 381.3,238.9 382.1,238.9 383.0,239.0 383.8,239.0 384.6,239.0 385.4,239.0 386.2,239.0 387.0,239.0 387.9,239.0 388.7,239.0 389.5,239.0 390.3,239.0 391.1,239.0 391.9,239.0 L391.9,298.5 L37.5,298.5 Z" fill="url(#g654)"/>
  <defs><clipPath id="pc655"><rect x="34" y="221" width="358" height="155"/></clipPath></defs>
  <polyline points="37.5,238.9 70.1,238.9 89.2,238.9 102.8,238.9 113.3,238.9 121.9,238.9 129.1,238.9 135.4,238.9 141.0,238.9 145.9,238.9 150.4,238.9 154.5,238.9 158.3,238.9 161.8,238.9 165.0,238.9 168.1,238.9 170.9,238.9 173.6,238.9 176.2,238.9 178.6,238.9 180.9,238.9 183.1,238.9 185.2,238.9 187.2,238.9 189.1,238.9 190.9,238.9 192.7,238.9 194.4,238.9 196.1,238.9 197.7,238.9 199.2,238.9 200.7,238.9 202.2,238.9 203.6,238.9 204.9,238.9 206.3,238.9 207.6,238.9 208.8,238.9 210.0,238.9 211.2,238.9 212.4,238.9 213.5,238.9 214.6,238.9 215.7,238.9 216.8,238.9 217.8,238.9 218.8,238.9 219.8,238.9 220.8,238.9 221.7,238.9 222.7,238.9 223.6,238.9 224.5,238.9 225.4,238.9 226.2,238.9 227.1,238.9 227.9,238.9 228.7,238.9 229.5,238.9 231.1,238.9 232.6,238.9 234.1,238.9 235.5,238.9 236.9,238.9 238.2,238.9 239.6,238.9 240.8,238.9 242.1,238.9 243.3,238.9 244.5,238.9 245.6,238.9 246.7,238.9 247.8,238.9 248.9,238.9 249.9,238.9 251.0,238.9 252.0,238.9 252.9,238.9 253.9,238.9 254.8,238.9 255.8,238.9 256.7,238.9 257.6,238.9 258.4,238.9 259.3,238.9 260.1,238.9 261.0,238.9 261.8,238.9 263.0,238.9 264.1,238.9 265.3,238.9 266.4,238.9 267.5,238.9 268.5,238.9 269.6,238.9 270.6,238.9 271.6,238.9 272.5,238.9 273.5,238.9 274.4,238.9 275.3,238.9 276.2,238.9 277.1,238.9 278.0,238.9 278.8,238.9 279.6,238.9 280.5,238.9 281.3,238.9 282.3,238.9 283.4,238.9 284.4,238.9 285.3,238.9 286.3,238.9 287.3,238.9 288.2,238.9 289.1,238.9 290.0,238.9 290.9,238.9 291.7,238.9 292.6,238.9 293.4,238.9 294.2,238.9 295.0,238.9 296.0,238.9 297.0,238.9 297.9,238.9 298.8,238.9 299.7,238.9 300.6,238.9 301.5,238.9 302.4,238.9 303.2,238.9 304.0,238.9 304.9,238.9 305.8,238.9 306.7,238.9 307.7,238.9 308.6,238.9 309.5,238.9 310.3,238.9 311.2,238.9 312.0,238.9 312.8,238.9 313.7,238.9 314.6,238.9 315.5,238.9 316.4,238.9 317.3,238.9 318.1,238.9 319.0,238.9 319.8,238.9 320.6,238.9 321.4,238.9 322.3,238.9 323.2,238.9 324.1,238.9 324.9,238.9 325.7,238.9 326.6,238.9 327.4,238.9 328.3,238.9 329.1,238.9 330.0,238.9 330.8,238.9 331.7,238.9 332.5,238.9 333.3,238.9 334.2,238.9 335.0,238.9 335.9,238.9 336.7,238.9 337.5,238.9 338.4,238.9 339.2,238.9 340.1,238.9 340.9,238.9 341.7,238.9 342.5,238.9 343.4,238.9 344.2,238.9 345.1,238.9 345.9,238.9 346.7,238.9 347.6,238.9 348.4,238.9 349.2,238.9 350.0,238.9 350.9,238.9 351.7,238.9 352.6,238.9 353.4,238.9 354.2,238.9 355.1,238.9 355.9,238.9 356.7,238.9 357.6,238.9 358.4,238.9 359.2,238.9 360.0,238.9 360.9,238.9 361.7,238.9 362.5,238.9 363.3,238.9 364.2,238.9 365.0,238.9 365.8,238.9 366.6,238.9 367.4,238.9 368.3,238.9 369.1,238.9 369.9,238.9 370.7,238.9 371.5,238.9 372.4,238.9 373.2,238.9 374.0,238.9 374.8,238.9 375.6,238.9 376.4,238.9 377.2,238.9 378.1,238.9 378.9,238.9 379.7,238.9 380.5,238.9 381.3,238.9 382.1,238.9 383.0,239.0 383.8,239.0 384.6,239.0 385.4,239.0 386.2,239.0 387.0,239.0 387.9,239.0 388.7,239.0 389.5,239.0 390.3,239.0 391.1,239.0 391.9,239.0" fill="none" stroke="#2ecc71" stroke-width="1.5" stroke-linejoin="round" clip-path="url(#pc655)"/>
  <line x1="442" y1="221" x2="442" y2="376" stroke="#d1d5db"/>
  <line x1="442" y1="298.5" x2="800" y2="298.5" stroke="#d1d5db"/>
  <text x="621" y="402" text-anchor="middle" font-size="9" fill="#6b7280">Samples</text>
  <text x="420" y="298.5" text-anchor="middle" font-size="9" fill="#6b7280" transform="rotate(-90 420 298.5)">Impulse response</text>
  <line x1="442.0" y1="221" x2="442.0" y2="376" stroke="#e5e7eb" stroke-width="0.5"/>
  <text x="442.0" y="388" text-anchor="middle" font-size="8" fill="#6b7280">0</text>
  <line x1="567.9" y1="221" x2="567.9" y2="376" stroke="#e5e7eb" stroke-width="0.5"/>
  <text x="567.9" y="388" text-anchor="middle" font-size="8" fill="#6b7280">90</text>
  <line x1="693.7" y1="221" x2="693.7" y2="376" stroke="#e5e7eb" stroke-width="0.5"/>
  <text x="693.7" y="388" text-anchor="middle" font-size="8" fill="#6b7280">180</text>
  <line x1="442" y1="353.3" x2="800" y2="353.3" stroke="#e5e7eb" stroke-width="0.5"/>
  <text x="438" y="356.3" text-anchor="end" font-size="8" fill="#6b7280">-6.999999999999999e+185</text>
  <text x="438" y="301.5" text-anchor="end" font-size="8" fill="#6b7280">0</text>
  <line x1="442" y1="243.7" x2="800" y2="243.7" stroke="#e5e7eb" stroke-width="0.5"/>
  <text x="438" y="246.7" text-anchor="end" font-size="8" fill="#6b7280">6.999999999999999e+185</text>
  <defs><linearGradient id="g656" x1="0" y1="221" x2="0" y2="298.5" gradientUnits="userSpaceOnUse">
    <stop offset="0%" stop-color="#f39c12" stop-opacity="0.15"/>
    <stop offset="100%" stop-color="#f39c12" stop-opacity="0.02"/>
  </linearGradient></defs>
  <defs><linearGradient id="g657" x1="0" y1="376" x2="0" y2="298.5" gradientUnits="userSpaceOnUse">
    <stop offset="0%" stop-color="#f39c12" stop-opacity="0.15"/>
    <stop offset="100%" stop-color="#f39c12" stop-opacity="0.02"/>
  </linearGradient></defs>
  <defs><clipPath id="c658"><rect x="442" y="221" width="358" height="77.5"/></clipPath></defs>
  <defs><clipPath id="c659"><rect x="442" y="298.5" width="358" height="77.5"/></clipPath></defs>
  <path d="M442.0,298.5 442.0,298.5 443.4,298.5 444.8,298.5 446.2,298.5 447.6,298.5 449.0,298.5 450.4,298.5 451.8,298.5 453.2,298.5 454.6,298.5 456.0,298.5 457.4,298.5 458.8,298.5 460.2,298.5 461.6,298.5 463.0,298.5 464.4,298.5 465.8,298.5 467.2,298.5 468.6,298.5 470.0,298.5 471.4,298.5 472.8,298.5 474.2,298.5 475.6,298.5 477.0,298.5 478.4,298.5 479.8,298.5 481.2,298.5 482.6,298.5 484.0,298.5 485.4,298.5 486.8,298.5 488.1,298.5 489.5,298.5 490.9,298.5 492.3,298.5 493.7,298.5 495.1,298.5 496.5,298.5 497.9,298.5 499.3,298.5 500.7,298.5 502.1,298.5 503.5,298.5 504.9,298.5 506.3,298.5 507.7,298.5 509.1,298.5 510.5,298.5 511.9,298.5 513.3,298.5 514.7,298.5 516.1,298.5 517.5,298.5 518.9,298.5 520.3,298.5 521.7,298.5 523.1,298.5 524.5,298.5 525.9,298.5 527.3,298.5 528.7,298.5 530.1,298.5 531.5,298.5 532.9,298.5 534.3,298.5 535.7,298.5 537.1,298.5 538.5,298.5 539.9,298.5 541.3,298.5 542.7,298.5 544.1,298.5 545.5,298.5 546.9,298.5 548.3,298.5 549.7,298.5 551.1,298.5 552.5,298.5 553.9,298.5 555.3,298.5 556.7,298.5 558.1,298.5 559.5,298.5 560.9,298.5 562.3,298.5 563.7,298.5 565.1,298.5 566.5,298.5 567.9,298.5 569.3,298.5 570.7,298.5 572.1,298.5 573.5,298.5 574.9,298.5 576.3,298.5 577.6,298.5 579.0,298.5 580.4,298.5 581.8,298.5 583.2,298.5 584.6,298.5 586.0,298.5 587.4,298.5 588.8,298.5 590.2,298.5 591.6,298.5 593.0,298.5 594.4,298.5 595.8,298.5 597.2,298.5 598.6,298.5 600.0,298.5 601.4,298.5 602.8,298.5 604.2,298.5 605.6,298.5 607.0,298.5 608.4,298.5 609.8,298.5 611.2,298.5 612.6,298.5 614.0,298.5 615.4,298.5 616.8,298.5 618.2,298.5 619.6,298.5 621.0,298.5 622.4,298.5 623.8,298.5 625.2,298.5 626.6,298.5 628.0,298.5 629.4,298.5 630.8,298.5 632.2,298.5 633.6,298.5 635.0,298.5 636.4,298.5 637.8,298.5 639.2,298.5 640.6,298.5 642.0,298.5 643.4,298.5 644.8,298.5 646.2,298.5 647.6,298.5 649.0,298.5 650.4,298.5 651.8,298.5 653.2,298.5 654.6,298.5 656.0,298.5 657.4,298.5 658.8,298.5 660.2,298.5 661.6,298.5 663.0,298.5 664.4,298.5 665.8,298.5 667.1,298.5 668.5,298.5 669.9,298.5 671.3,298.5 672.7,298.5 674.1,298.5 675.5,298.5 676.9,298.5 678.3,298.5 679.7,298.5 681.1,298.5 682.5,298.5 683.9,298.5 685.3,298.5 686.7,298.5 688.1,298.5 689.5,298.5 690.9,298.5 692.3,298.5 693.7,298.5 695.1,298.5 696.5,298.5 697.9,298.5 699.3,298.5 700.7,298.5 702.1,298.5 703.5,298.5 704.9,298.5 706.3,298.5 707.7,298.5 709.1,298.5 710.5,298.5 711.9,298.5 713.3,298.5 714.7,298.5 716.1,298.5 717.5,298.5 718.9,298.5 720.3,298.5 721.7,298.5 723.1,298.5 724.5,298.5 725.9,298.5 727.3,298.5 728.7,298.5 730.1,298.5 731.5,298.5 732.9,298.5 734.3,298.5 735.7,298.5 737.1,298.5 738.5,298.5 739.9,298.5 741.3,298.5 742.7,298.5 744.1,298.5 745.5,298.5 746.9,298.5 748.3,298.5 749.7,298.5 751.1,298.5 752.5,298.5 753.9,298.5 755.3,298.5 756.6,298.5 758.0,298.5 759.4,298.5 760.8,298.5 762.2,298.5 763.6,298.5 765.0,298.5 766.4,298.5 767.8,298.5 769.2,298.5 770.6,298.5 772.0,298.5 773.4,298.5 774.8,298.5 776.2,298.5 777.6,298.5 779.0,298.5 780.4,298.5 781.8,298.5 783.2,298.5 784.6,298.5 786.0,298.5 787.4,298.5 788.8,298.5 790.2,298.5 791.6,298.5 793.0,298.6 794.4,298.0 795.8,301.2 797.2,284.1 798.6,376.0 L798.6,298.5 L442.0,298.5 Z" fill="url(#g656)" clip-path="url(#c658)"/>
  <path d="M442.0,298.5 442.0,298.5 443.4,298.5 444.8,298.5 446.2,298.5 447.6,298.5 449.0,298.5 450.4,298.5 451.8,298.5 453.2,298.5 454.6,298.5 456.0,298.5 457.4,298.5 458.8,298.5 460.2,298.5 461.6,298.5 463.0,298.5 464.4,298.5 465.8,298.5 467.2,298.5 468.6,298.5 470.0,298.5 471.4,298.5 472.8,298.5 474.2,298.5 475.6,298.5 477.0,298.5 478.4,298.5 479.8,298.5 481.2,298.5 482.6,298.5 484.0,298.5 485.4,298.5 486.8,298.5 488.1,298.5 489.5,298.5 490.9,298.5 492.3,298.5 493.7,298.5 495.1,298.5 496.5,298.5 497.9,298.5 499.3,298.5 500.7,298.5 502.1,298.5 503.5,298.5 504.9,298.5 506.3,298.5 507.7,298.5 509.1,298.5 510.5,298.5 511.9,298.5 513.3,298.5 514.7,298.5 516.1,298.5 517.5,298.5 518.9,298.5 520.3,298.5 521.7,298.5 523.1,298.5 524.5,298.5 525.9,298.5 527.3,298.5 528.7,298.5 530.1,298.5 531.5,298.5 532.9,298.5 534.3,298.5 535.7,298.5 537.1,298.5 538.5,298.5 539.9,298.5 541.3,298.5 542.7,298.5 544.1,298.5 545.5,298.5 546.9,298.5 548.3,298.5 549.7,298.5 551.1,298.5 552.5,298.5 553.9,298.5 555.3,298.5 556.7,298.5 558.1,298.5 559.5,298.5 560.9,298.5 562.3,298.5 563.7,298.5 565.1,298.5 566.5,298.5 567.9,298.5 569.3,298.5 570.7,298.5 572.1,298.5 573.5,298.5 574.9,298.5 576.3,298.5 577.6,298.5 579.0,298.5 580.4,298.5 581.8,298.5 583.2,298.5 584.6,298.5 586.0,298.5 587.4,298.5 588.8,298.5 590.2,298.5 591.6,298.5 593.0,298.5 594.4,298.5 595.8,298.5 597.2,298.5 598.6,298.5 600.0,298.5 601.4,298.5 602.8,298.5 604.2,298.5 605.6,298.5 607.0,298.5 608.4,298.5 609.8,298.5 611.2,298.5 612.6,298.5 614.0,298.5 615.4,298.5 616.8,298.5 618.2,298.5 619.6,298.5 621.0,298.5 622.4,298.5 623.8,298.5 625.2,298.5 626.6,298.5 628.0,298.5 629.4,298.5 630.8,298.5 632.2,298.5 633.6,298.5 635.0,298.5 636.4,298.5 637.8,298.5 639.2,298.5 640.6,298.5 642.0,298.5 643.4,298.5 644.8,298.5 646.2,298.5 647.6,298.5 649.0,298.5 650.4,298.5 651.8,298.5 653.2,298.5 654.6,298.5 656.0,298.5 657.4,298.5 658.8,298.5 660.2,298.5 661.6,298.5 663.0,298.5 664.4,298.5 665.8,298.5 667.1,298.5 668.5,298.5 669.9,298.5 671.3,298.5 672.7,298.5 674.1,298.5 675.5,298.5 676.9,298.5 678.3,298.5 679.7,298.5 681.1,298.5 682.5,298.5 683.9,298.5 685.3,298.5 686.7,298.5 688.1,298.5 689.5,298.5 690.9,298.5 692.3,298.5 693.7,298.5 695.1,298.5 696.5,298.5 697.9,298.5 699.3,298.5 700.7,298.5 702.1,298.5 703.5,298.5 704.9,298.5 706.3,298.5 707.7,298.5 709.1,298.5 710.5,298.5 711.9,298.5 713.3,298.5 714.7,298.5 716.1,298.5 717.5,298.5 718.9,298.5 720.3,298.5 721.7,298.5 723.1,298.5 724.5,298.5 725.9,298.5 727.3,298.5 728.7,298.5 730.1,298.5 731.5,298.5 732.9,298.5 734.3,298.5 735.7,298.5 737.1,298.5 738.5,298.5 739.9,298.5 741.3,298.5 742.7,298.5 744.1,298.5 745.5,298.5 746.9,298.5 748.3,298.5 749.7,298.5 751.1,298.5 752.5,298.5 753.9,298.5 755.3,298.5 756.6,298.5 758.0,298.5 759.4,298.5 760.8,298.5 762.2,298.5 763.6,298.5 765.0,298.5 766.4,298.5 767.8,298.5 769.2,298.5 770.6,298.5 772.0,298.5 773.4,298.5 774.8,298.5 776.2,298.5 777.6,298.5 779.0,298.5 780.4,298.5 781.8,298.5 783.2,298.5 784.6,298.5 786.0,298.5 787.4,298.5 788.8,298.5 790.2,298.5 791.6,298.5 793.0,298.6 794.4,298.0 795.8,301.2 797.2,284.1 798.6,376.0 L798.6,298.5 L442.0,298.5 Z" fill="url(#g657)" clip-path="url(#c659)"/>
  <defs><clipPath id="pc660"><rect x="442" y="221" width="358" height="155"/></clipPath></defs>
  <polyline points="442.0,298.5 443.4,298.5 444.8,298.5 446.2,298.5 447.6,298.5 449.0,298.5 450.4,298.5 451.8,298.5 453.2,298.5 454.6,298.5 456.0,298.5 457.4,298.5 458.8,298.5 460.2,298.5 461.6,298.5 463.0,298.5 464.4,298.5 465.8,298.5 467.2,298.5 468.6,298.5 470.0,298.5 471.4,298.5 472.8,298.5 474.2,298.5 475.6,298.5 477.0,298.5 478.4,298.5 479.8,298.5 481.2,298.5 482.6,298.5 484.0,298.5 485.4,298.5 486.8,298.5 488.1,298.5 489.5,298.5 490.9,298.5 492.3,298.5 493.7,298.5 495.1,298.5 496.5,298.5 497.9,298.5 499.3,298.5 500.7,298.5 502.1,298.5 503.5,298.5 504.9,298.5 506.3,298.5 507.7,298.5 509.1,298.5 510.5,298.5 511.9,298.5 513.3,298.5 514.7,298.5 516.1,298.5 517.5,298.5 518.9,298.5 520.3,298.5 521.7,298.5 523.1,298.5 524.5,298.5 525.9,298.5 527.3,298.5 528.7,298.5 530.1,298.5 531.5,298.5 532.9,298.5 534.3,298.5 535.7,298.5 537.1,298.5 538.5,298.5 539.9,298.5 541.3,298.5 542.7,298.5 544.1,298.5 545.5,298.5 546.9,298.5 548.3,298.5 549.7,298.5 551.1,298.5 552.5,298.5 553.9,298.5 555.3,298.5 556.7,298.5 558.1,298.5 559.5,298.5 560.9,298.5 562.3,298.5 563.7,298.5 565.1,298.5 566.5,298.5 567.9,298.5 569.3,298.5 570.7,298.5 572.1,298.5 573.5,298.5 574.9,298.5 576.3,298.5 577.6,298.5 579.0,298.5 580.4,298.5 581.8,298.5 583.2,298.5 584.6,298.5 586.0,298.5 587.4,298.5 588.8,298.5 590.2,298.5 591.6,298.5 593.0,298.5 594.4,298.5 595.8,298.5 597.2,298.5 598.6,298.5 600.0,298.5 601.4,298.5 602.8,298.5 604.2,298.5 605.6,298.5 607.0,298.5 608.4,298.5 609.8,298.5 611.2,298.5 612.6,298.5 614.0,298.5 615.4,298.5 616.8,298.5 618.2,298.5 619.6,298.5 621.0,298.5 622.4,298.5 623.8,298.5 625.2,298.5 626.6,298.5 628.0,298.5 629.4,298.5 630.8,298.5 632.2,298.5 633.6,298.5 635.0,298.5 636.4,298.5 637.8,298.5 639.2,298.5 640.6,298.5 642.0,298.5 643.4,298.5 644.8,298.5 646.2,298.5 647.6,298.5 649.0,298.5 650.4,298.5 651.8,298.5 653.2,298.5 654.6,298.5 656.0,298.5 657.4,298.5 658.8,298.5 660.2,298.5 661.6,298.5 663.0,298.5 664.4,298.5 665.8,298.5 667.1,298.5 668.5,298.5 669.9,298.5 671.3,298.5 672.7,298.5 674.1,298.5 675.5,298.5 676.9,298.5 678.3,298.5 679.7,298.5 681.1,298.5 682.5,298.5 683.9,298.5 685.3,298.5 686.7,298.5 688.1,298.5 689.5,298.5 690.9,298.5 692.3,298.5 693.7,298.5 695.1,298.5 696.5,298.5 697.9,298.5 699.3,298.5 700.7,298.5 702.1,298.5 703.5,298.5 704.9,298.5 706.3,298.5 707.7,298.5 709.1,298.5 710.5,298.5 711.9,298.5 713.3,298.5 714.7,298.5 716.1,298.5 717.5,298.5 718.9,298.5 720.3,298.5 721.7,298.5 723.1,298.5 724.5,298.5 725.9,298.5 727.3,298.5 728.7,298.5 730.1,298.5 731.5,298.5 732.9,298.5 734.3,298.5 735.7,298.5 737.1,298.5 738.5,298.5 739.9,298.5 741.3,298.5 742.7,298.5 744.1,298.5 745.5,298.5 746.9,298.5 748.3,298.5 749.7,298.5 751.1,298.5 752.5,298.5 753.9,298.5 755.3,298.5 756.6,298.5 758.0,298.5 759.4,298.5 760.8,298.5 762.2,298.5 763.6,298.5 765.0,298.5 766.4,298.5 767.8,298.5 769.2,298.5 770.6,298.5 772.0,298.5 773.4,298.5 774.8,298.5 776.2,298.5 777.6,298.5 779.0,298.5 780.4,298.5 781.8,298.5 783.2,298.5 784.6,298.5 786.0,298.5 787.4,298.5 788.8,298.5 790.2,298.5 791.6,298.5 793.0,298.6 794.4,298.0 795.8,301.2 797.2,284.1 798.6,376.0" fill="none" stroke="#f39c12" stroke-width="1.3" stroke-linejoin="round" clip-path="url(#pc660)"/>
</svg>
