<svg xmlns="http://www.w3.org/2000/svg" viewBox="0 0 820 378" style="font-family:system-ui,-apple-system,sans-serif">
  <text x="800" y="11" text-anchor="end" font-size="11" font-weight="600" fill="#6b7280">Yule-Walker IIR, order 8</text>
  <line x1="34" y1="16" x2="34" y2="171" stroke="#d1d5db"/>
  <line x1="34" y1="47.0" x2="399" y2="47.0" stroke="#d1d5db"/>
  <text x="216.5" y="197" text-anchor="middle" font-size="9" fill="#6b7280">Hz</text>
  <text x="12" y="93.5" text-anchor="middle" font-size="9" fill="#6b7280" transform="rotate(-90 12 93.5)">dB</text>
  <line x1="67.3" y1="16" x2="67.3" y2="171" stroke="#e5e7eb" stroke-width="0.5"/>
  <line x1="86.8" y1="16" x2="86.8" y2="171" stroke="#e5e7eb" stroke-width="0.5"/>
  <line x1="100.6" y1="16" x2="100.6" y2="171" stroke="#e5e7eb" stroke-width="0.5"/>
  <line x1="111.3" y1="16" x2="111.3" y2="171" stroke="#e5e7eb" stroke-width="0.5"/>
  <line x1="120.0" y1="16" x2="120.0" y2="171" stroke="#e5e7eb" stroke-width="0.5"/>
  <line x1="127.4" y1="16" x2="127.4" y2="171" stroke="#e5e7eb" stroke-width="0.5"/>
  <line x1="133.9" y1="16" x2="133.9" y2="171" stroke="#e5e7eb" stroke-width="0.5"/>
  <line x1="139.5" y1="16" x2="139.5" y2="171" stroke="#e5e7eb" stroke-width="0.5"/>
  <line x1="177.9" y1="16" x2="177.9" y2="171" stroke="#e5e7eb" stroke-width="0.5"/>
  <line x1="197.3" y1="16" x2="197.3" y2="171" stroke="#e5e7eb" stroke-width="0.5"/>
  <line x1="211.1" y1="16" x2="211.1" y2="171" stroke="#e5e7eb" stroke-width="0.5"/>
  <line x1="221.9" y1="16" x2="221.9" y2="171" stroke="#e5e7eb" stroke-width="0.5"/>
  <line x1="230.6" y1="16" x2="230.6" y2="171" stroke="#e5e7eb" stroke-width="0.5"/>
  <line x1="238.0" y1="16" x2="238.0" y2="171" stroke="#e5e7eb" stroke-width="0.5"/>
  <line x1="244.4" y1="16" x2="244.4" y2="171" stroke="#e5e7eb" stroke-width="0.5"/>
  <line x1="250.1" y1="16" x2="250.1" y2="171" stroke="#e5e7eb" stroke-width="0.5"/>
  <line x1="288.4" y1="16" x2="288.4" y2="171" stroke="#e5e7eb" stroke-width="0.5"/>
  <line x1="307.9" y1="16" x2="307.9" y2="171" stroke="#e5e7eb" stroke-width="0.5"/>
  <line x1="321.7" y1="16" x2="321.7" y2="171" stroke="#e5e7eb" stroke-width="0.5"/>
  <line x1="332.4" y1="16" x2="332.4" y2="171" stroke="#e5e7eb" stroke-width="0.5"/>
  <line x1="341.2" y1="16" x2="341.2" y2="171" stroke="#e5e7eb" stroke-width="0.5"/>
  <line x1="348.6" y1="16" x2="348.6" y2="171" stroke="#e5e7eb" stroke-width="0.5"/>
  <line x1="355.0" y1="16" x2="355.0" y2="171" stroke="#e5e7eb" stroke-width="0.5"/>
  <line x1="360.7" y1="16" x2="360.7" y2="171" stroke="#e5e7eb" stroke-width="0.5"/>
  <line x1="399.0" y1="16" x2="399.0" y2="171" stroke="#e5e7eb" stroke-width="0.5"/>
  <line x1="144.6" y1="16" x2="144.6" y2="171" stroke="#e5e7eb" stroke-width="0.5"/>
  <text x="144.6" y="183" text-anchor="middle" font-size="8" fill="#6b7280">100</text>
  <line x1="255.1" y1="16" x2="255.1" y2="171" stroke="#e5e7eb" stroke-width="0.5"/>
  <text x="255.1" y="183" text-anchor="middle" font-size="8" fill="#6b7280">1k</text>
  <line x1="365.7" y1="16" x2="365.7" y2="171" stroke="#e5e7eb" stroke-width="0.5"/>
  <text x="365.7" y="183" text-anchor="middle" font-size="8" fill="#6b7280">10k</text>
  <line x1="34" y1="31.5" x2="399" y2="31.5" stroke="#e5e7eb" stroke-width="0.5"/>
  <line x1="34" y1="62.5" x2="399" y2="62.5" stroke="#e5e7eb" stroke-width="0.5"/>
  <line x1="34" y1="16.0" x2="399" y2="16.0" stroke="#e5e7eb" stroke-width="0.5"/>
  <text x="30" y="19.0" text-anchor="end" font-size="8" fill="#6b7280">+20</text>
  <text x="30" y="50.0" text-anchor="end" font-size="8" fill="#6b7280">0</text>
  <line x1="34" y1="78.0" x2="399" y2="78.0" stroke="#e5e7eb" stroke-width="0.5"/>
  <text x="30" y="81.0" text-anchor="end" font-size="8" fill="#6b7280">-20</text>
  <line x1="34" y1="109.0" x2="399" y2="109.0" stroke="#e5e7eb" stroke-width="0.5"/>
  <text x="30" y="112.0" text-anchor="end" font-size="8" fill="#6b7280">-40</text>
  <line x1="34" y1="140.0" x2="399" y2="140.0" stroke="#e5e7eb" stroke-width="0.5"/>
  <text x="30" y="143.0" text-anchor="end" font-size="8" fill="#6b7280">-60</text>
  <line x1="34" y1="171.0" x2="399" y2="171.0" stroke="#e5e7eb" stroke-width="0.5"/>
  <text x="30" y="174.0" text-anchor="end" font-size="8" fill="#6b7280">-80</text>
  <defs><linearGradient id="g830" x1="0" y1="16" x2="0" y2="171" gradientUnits="userSpaceOnUse">
    <stop offset="0%" stop-color="#4a90d9" stop-opacity="0.15"/>
    <stop offset="100%" stop-color="#4a90d9" stop-opacity="0.02"/>
  </linearGradient></defs>
  <path d="M37.5,16.0 37.5,16.0 70.8,16.0 90.3,16.0 104.1,16.0 114.8,16.0 123.6,16.0 131.0,16.0 137.4,16.0 143.1,16.0 148.1,16.0 152.7,16.0 156.9,16.0 160.7,16.0 164.3,16.0 167.6,16.0 170.7,16.0 173.6,16.0 176.3,16.0 178.9,16.0 181.4,16.0 183.7,16.0 186.0,16.0 188.1,16.0 190.2,16.0 192.1,16.0 194.0,16.0 195.8,16.0 197.6,16.0 199.2,16.0 200.9,16.0 202.4,16.0 204.0,16.0 205.5,16.0 206.9,16.0 208.3,16.0 209.6,16.0 210.9,16.0 212.2,16.0 213.5,16.0 214.7,16.0 215.9,16.0 217.0,16.0 218.2,16.0 219.3,16.0 220.3,16.0 221.4,16.0 222.4,16.0 223.4,16.0 224.4,16.0 225.4,16.0 226.4,16.0 227.3,16.0 228.2,16.0 229.1,16.0 230.0,16.0 230.8,16.0 231.7,16.0 232.5,16.0 233.4,16.0 234.2,16.0 235.7,16.0 237.3,16.0 238.7,16.0 240.2,16.0 241.6,16.0 242.9,16.0 244.2,16.0 245.5,16.0 246.8,16.0 248.0,16.0 249.2,16.0 250.3,16.0 251.4,16.0 252.6,16.0 253.6,16.0 254.7,16.0 255.7,16.0 256.7,16.0 257.7,16.0 258.7,16.0 259.6,16.0 260.6,16.0 261.5,16.0 262.4,16.0 263.3,16.0 264.1,16.0 265.0,16.0 265.8,16.0 266.6,16.0 267.4,16.0 268.6,16.0 269.8,16.0 270.9,16.0 272.0,16.0 273.1,16.0 274.2,16.0 275.2,16.0 276.2,16.0 277.2,16.0 278.2,16.0 279.1,16.0 280.0,16.0 281.0,16.0 281.9,16.0 282.7,16.0 283.6,16.0 284.5,16.0 285.3,16.0 286.1,16.0 286.9,16.0 288.0,16.0 289.0,16.0 290.0,16.0 291.0,16.0 292.0,16.0 292.9,16.0 293.9,16.0 294.8,16.0 295.7,16.0 296.6,16.0 297.4,16.0 298.3,16.0 299.1,16.0 299.9,16.0 300.7,16.0 301.7,16.0 302.7,16.0 303.6,16.0 304.6,16.0 305.5,16.0 306.4,16.0 307.3,16.0 308.1,16.0 309.0,16.0 309.8,16.0 310.6,16.0 311.4,16.0 312.4,16.0 313.3,16.0 314.2,16.0 315.1,16.0 316.0,16.0 316.9,16.0 317.7,16.0 318.6,16.0 319.4,16.0 320.2,16.0 321.1,16.0 322.0,16.0 322.9,16.0 323.8,16.0 324.7,16.0 325.5,16.0 326.3,16.0 327.1,16.0 327.9,16.0 328.8,16.0 329.7,16.0 330.6,16.0 331.4,16.0 332.3,16.0 333.1,16.0 333.9,16.0 334.8,16.0 335.7,16.0 336.5,16.0 337.4,16.0 338.2,16.0 339.0,16.0 339.8,16.0 340.7,16.0 341.6,16.0 342.4,16.0 343.3,16.0 344.1,16.0 344.9,16.0 345.8,16.0 346.6,16.0 347.5,16.0 348.3,16.0 349.1,16.0 350.0,16.0 350.8,16.0 351.7,16.0 352.5,16.0 353.3,16.0 354.1,16.0 355.0,16.0 355.8,16.0 356.6,16.0 357.5,16.0 358.3,16.0 359.1,16.0 360.0,16.0 360.8,16.0 361.6,16.0 362.5,16.0 363.3,16.0 364.1,16.0 364.9,16.0 365.8,16.0 366.6,16.0 367.4,16.0 368.2,16.0 369.1,16.0 369.9,16.0 370.7,16.0 371.6,16.0 372.4,16.0 373.2,16.0 374.0,16.0 374.8,16.0 375.6,16.0 376.5,16.0 377.3,16.0 378.1,16.0 378.9,16.0 379.7,16.0 380.5,16.0 381.4,16.0 382.2,16.0 383.0,16.0 383.8,16.0 384.6,16.0 385.5,16.0 386.3,16.0 387.1,16.0 387.9,16.0 388.7,16.0 389.5,16.0 390.3,16.0 391.2,16.0 392.0,16.0 392.8,16.0 393.6,16.0 394.4,16.0 395.2,16.0 396.0,16.0 396.8,16.0 397.6,16.0 398.5,16.0 L398.5,171.0 L37.5,171.0 Z" fill="url(#g830)"/>
  <defs><clipPath id="pc831"><rect x="34" y="16" width="365" height="155"/></clipPath></defs>
  <polyline points="37.5,-Infinity 70.8,-Infinity 90.3,-Infinity 104.1,-Infinity 114.8,-Infinity 123.6,-Infinity 131.0,-Infinity 137.4,-Infinity 143.1,-Infinity 148.1,-Infinity 152.7,-Infinity 156.9,-Infinity 160.7,-Infinity 164.3,-Infinity 167.6,-Infinity 170.7,-Infinity 173.6,-Infinity 176.3,-Infinity 178.9,-Infinity 181.4,-Infinity 183.7,-Infinity 186.0,-Infinity 188.1,-Infinity 190.2,-Infinity 192.1,-Infinity 194.0,-Infinity 195.8,-Infinity 197.6,-Infinity 199.2,-Infinity 200.9,-Infinity 202.4,-Infinity 204.0,-Infinity 205.5,-Infinity 206.9,-Infinity 208.3,-Infinity 209.6,-Infinity 210.9,-Infinity 212.2,-Infinity 213.5,-Infinity 214.7,-Infinity 215.9,-Infinity 217.0,-Infinity 218.2,-Infinity 219.3,-Infinity 220.3,-Infinity 221.4,-Infinity 222.4,-Infinity 223.4,-Infinity 224.4,-Infinity 225.4,-Infinity 226.4,-Infinity 227.3,-Infinity 228.2,-Infinity 229.1,-Infinity 230.0,-Infinity 230.8,-Infinity 231.7,-Infinity 232.5,-Infinity 233.4,-Infinity 234.2,-Infinity 235.7,-Infinity 237.3,-Infinity 238.7,-Infinity 240.2,-Infinity 241.6,-Infinity 242.9,-Infinity 244.2,-Infinity 245.5,-Infinity 246.8,-Infinity 248.0,-Infinity 249.2,-Infinity 250.3,-Infinity 251.4,-Infinity 252.6,-Infinity 253.6,-Infinity 254.7,-Infinity 255.7,-Infinity 256.7,-Infinity 257.7,-Infinity 258.7,-Infinity 259.6,-Infinity 260.6,-Infinity 261.5,-Infinity 262.4,-Infinity 263.3,-Infinity 264.1,-Infinity 265.0,-Infinity 265.8,-Infinity 266.6,-Infinity 267.4,-Infinity 268.6,-Infinity 269.8,-Infinity 270.9,-Infinity 272.0,-Infinity 273.1,-Infinity 274.2,-Infinity 275.2,-Infinity 276.2,-Infinity 277.2,-Infinity 278.2,-Infinity 279.1,-Infinity 280.0,-Infinity 281.0,-Infinity 281.9,-Infinity 282.7,-Infinity 283.6,-Infinity 284.5,-Infinity 285.3,-Infinity 286.1,-Infinity 286.9,-Infinity 288.0,-Infinity 289.0,-Infinity 290.0,-Infinity 291.0,-Infinity 292.0,-Infinity 292.9,-Infinity 293.9,-Infinity 294.8,-Infinity 295.7,-Infinity 296.6,-Infinity 297.4,-Infinity 298.3,-Infinity 299.1,-Infinity 299.9,-Infinity 300.7,-Infinity 301.7,-Infinity 302.7,-Infinity 303.6,-Infinity 304.6,-Infinity 305.5,-Infinity 306.4,-Infinity 307.3,-Infinity 308.1,-Infinity 309.0,-Infinity 309.8,-Infinity 310.6,-Infinity 311.4,-Infinity 312.4,-Infinity 313.3,-Infinity 314.2,-Infinity 315.1,-Infinity 316.0,-Infinity 316.9,-Infinity 317.7,-Infinity 318.6,-Infinity 319.4,-Infinity 320.2,-Infinity 321.1,-Infinity 322.0,-Infinity 322.9,-Infinity 323.8,-Infinity 324.7,-Infinity 325.5,-Infinity 326.3,-Infinity 327.1,-Infinity 327.9,-Infinity 328.8,-Infinity 329.7,-Infinity 330.6,-Infinity 331.4,-Infinity 332.3,-Infinity 333.1,-Infinity 333.9,-Infinity 334.8,-Infinity 335.7,-Infinity 336.5,-Infinity 337.4,-Infinity 338.2,-Infinity 339.0,-Infinity 339.8,-Infinity 340.7,-Infinity 341.6,-Infinity 342.4,-Infinity 343.3,-Infinity 344.1,-Infinity 344.9,-Infinity 345.8,-Infinity 346.6,-Infinity 347.5,-Infinity 348.3,-Infinity 349.1,-Infinity 350.0,-Infinity 350.8,-Infinity 351.7,-Infinity 352.5,-Infinity 353.3,-Infinity 354.1,-Infinity 355.0,-Infinity 355.8,-Infinity 356.6,-Infinity 357.5,-Infinity 358.3,-Infinity 359.1,-Infinity 360.0,-Infinity 360.8,-Infinity 361.6,-Infinity 362.5,-Infinity 363.3,-Infinity 364.1,-Infinity 364.9,-Infinity 365.8,-Infinity 366.6,-Infinity 367.4,-Infinity 368.2,-Infinity 369.1,-Infinity 369.9,-Infinity 370.7,-Infinity 371.6,-Infinity 372.4,-Infinity 373.2,-Infinity 374.0,-Infinity 374.8,-Infinity 375.6,-Infinity 376.5,-Infinity 377.3,-Infinity 378.1,-Infinity 378.9,-Infinity 379.7,-Infinity 380.5,-Infinity 381.4,-Infinity 382.2,-Infinity 383.0,-Infinity 383.8,-Infinity 384.6,-Infinity 385.5,-Infinity 386.3,-Infinity 387.1,-Infinity 387.9,-Infinity 388.7,-Infinity 389.5,-Infinity 390.3,-Infinity 391.2,-Infinity 392.0,-Infinity 392.8,-Infinity 393.6,-Infinity 394.4,-Infinity 395.2,-Infinity 396.0,-Infinity 396.8,-Infinity 397.6,-Infinity 398.5,-Infinity" fill="none" stroke="#4a90d9" stroke-width="1.5" stroke-linejoin="round" clip-path="url(#pc831)"/>
  <line x1="435" y1="16" x2="435" y2="171" stroke="#d1d5db"/>
  <line x1="435" y1="93.5" x2="800" y2="93.5" stroke="#d1d5db"/>
  <text x="617.5" y="197" text-anchor="middle" font-size="9" fill="#6b7280">Hz</text>
  <text x="413" y="93.5" text-anchor="middle" font-size="9" fill="#6b7280" transform="rotate(-90 413 93.5)">Phase (deg)</text>
  <line x1="468.3" y1="16" x2="468.3" y2="171" stroke="#e5e7eb" stroke-width="0.5"/>
  <line x1="487.8" y1="16" x2="487.8" y2="171" stroke="#e5e7eb" stroke-width="0.5"/>
  <line x1="501.6" y1="16" x2="501.6" y2="171" stroke="#e5e7eb" stroke-width="0.5"/>
  <line x1="512.3" y1="16" x2="512.3" y2="171" stroke="#e5e7eb" stroke-width="0.5"/>
  <line x1="521.0" y1="16" x2="521.0" y2="171" stroke="#e5e7eb" stroke-width="0.5"/>
  <line x1="528.4" y1="16" x2="528.4" y2="171" stroke="#e5e7eb" stroke-width="0.5"/>
  <line x1="534.9" y1="16" x2="534.9" y2="171" stroke="#e5e7eb" stroke-width="0.5"/>
  <line x1="540.5" y1="16" x2="540.5" y2="171" stroke="#e5e7eb" stroke-width="0.5"/>
  <line x1="578.9" y1="16" x2="578.9" y2="171" stroke="#e5e7eb" stroke-width="0.5"/>
  <line x1="598.3" y1="16" x2="598.3" y2="171" stroke="#e5e7eb" stroke-width="0.5"/>
  <line x1="612.1" y1="16" x2="612.1" y2="171" stroke="#e5e7eb" stroke-width="0.5"/>
  <line x1="622.9" y1="16" x2="622.9" y2="171" stroke="#e5e7eb" stroke-width="0.5"/>
  <line x1="631.6" y1="16" x2="631.6" y2="171" stroke="#e5e7eb" stroke-width="0.5"/>
  <line x1="639.0" y1="16" x2="639.0" y2="171" stroke="#e5e7eb" stroke-width="0.5"/>
  <line x1="645.4" y1="16" x2="645.4" y2="171" stroke="#e5e7eb" stroke-width="0.5"/>
  <line x1="651.1" y1="16" x2="651.1" y2="171" stroke="#e5e7eb" stroke-width="0.5"/>
  <line x1="689.4" y1="16" x2="689.4" y2="171" stroke="#e5e7eb" stroke-width="0.5"/>
  <line x1="708.9" y1="16" x2="708.9" y2="171" stroke="#e5e7eb" stroke-width="0.5"/>
  <line x1="722.7" y1="16" x2="722.7" y2="171" stroke="#e5e7eb" stroke-width="0.5"/>
  <line x1="733.4" y1="16" x2="733.4" y2="171" stroke="#e5e7eb" stroke-width="0.5"/>
  <line x1="742.2" y1="16" x2="742.2" y2="171" stroke="#e5e7eb" stroke-width="0.5"/>
  <line x1="749.6" y1="16" x2="749.6" y2="171" stroke="#e5e7eb" stroke-width="0.5"/>
  <line x1="756.0" y1="16" x2="756.0" y2="171" stroke="#e5e7eb" stroke-width="0.5"/>
  <line x1="761.7" y1="16" x2="761.7" y2="171" stroke="#e5e7eb" stroke-width="0.5"/>
  <line x1="800.0" y1="16" x2="800.0" y2="171" stroke="#e5e7eb" stroke-width="0.5"/>
  <line x1="545.6" y1="16" x2="545.6" y2="171" stroke="#e5e7eb" stroke-width="0.5"/>
  <text x="545.6" y="183" text-anchor="middle" font-size="8" fill="#6b7280">100</text>
  <line x1="656.1" y1="16" x2="656.1" y2="171" stroke="#e5e7eb" stroke-width="0.5"/>
  <text x="656.1" y="183" text-anchor="middle" font-size="8" fill="#6b7280">1k</text>
  <line x1="766.7" y1="16" x2="766.7" y2="171" stroke="#e5e7eb" stroke-width="0.5"/>
  <text x="766.7" y="183" text-anchor="middle" font-size="8" fill="#6b7280">10k</text>
  <line x1="435" y1="58.6" x2="800" y2="58.6" stroke="#e5e7eb" stroke-width="0.5"/>
  <line x1="435" y1="128.4" x2="800" y2="128.4" stroke="#e5e7eb" stroke-width="0.5"/>
  <line x1="435" y1="23.8" x2="800" y2="23.8" stroke="#e5e7eb" stroke-width="0.5"/>
  <text x="431" y="26.8" text-anchor="end" font-size="8" fill="#6b7280">180</text>
  <text x="431" y="96.5" text-anchor="end" font-size="8" fill="#6b7280">0</text>
  <line x1="435" y1="163.3" x2="800" y2="163.3" stroke="#e5e7eb" stroke-width="0.5"/>
  <text x="431" y="166.3" text-anchor="end" font-size="8" fill="#6b7280">-180</text>
  <defs><linearGradient id="g832" x1="0" y1="16" x2="0" y2="93.5" gradientUnits="userSpaceOnUse">
    <stop offset="0%" stop-color="#e74c3c" stop-opacity="0.15"/>
    <stop offset="100%" stop-color="#e74c3c" stop-opacity="0.02"/>
  </linearGradient></defs>
  <defs><linearGradient id="g833" x1="0" y1="171" x2="0" y2="93.5" gradientUnits="userSpaceOnUse">
    <stop offset="0%" stop-color="#e74c3c" stop-opacity="0.15"/>
    <stop offset="100%" stop-color="#e74c3c" stop-opacity="0.02"/>
  </linearGradient></defs>
  <defs><clipPath id="c834"><rect x="435" y="16" width="365" height="77.5"/></clipPath></defs>
  <defs><clipPath id="c835"><rect x="435" y="93.5" width="365" height="77.5"/></clipPath></defs>
  <path d="M438.5,32.4 438.5,32.4 471.8,41.1 491.3,49.8 505.1,58.5 515.8,67.2 524.6,75.9 532.0,84.6 538.4,93.3 544.1,102.0 549.1,110.7 553.7,119.3 557.9,128.0 561.7,136.7 565.3,145.4 568.6,154.1 571.7,162.8 574.6,32.0 577.3,40.7 579.9,49.4 582.4,58.1 584.7,66.7 587.0,75.4 589.1,84.1 591.2,92.8 593.1,101.5 595.0,110.2 596.8,118.9 598.6,127.6 600.2,136.3 601.9,145.0 603.4,153.6 605.0,162.3 606.5,31.5 607.9,40.2 609.3,48.9 610.6,57.6 611.9,66.3 613.2,75.0 614.5,83.7 615.7,92.4 616.9,101.0 618.0,109.7 619.2,118.4 620.3,127.1 621.3,135.8 622.4,144.5 623.4,153.2 624.4,161.9 625.4,31.1 626.4,39.8 627.4,48.4 628.3,57.1 629.2,65.8 630.1,74.5 631.0,83.2 631.8,91.9 632.7,100.6 633.5,109.3 634.4,118.0 635.2,126.7 636.7,144.0 638.3,161.4 639.7,39.3 641.2,56.7 642.6,74.1 643.9,91.4 645.2,108.8 646.5,126.2 647.8,143.6 649.0,161.0 650.2,38.8 651.3,56.2 652.4,73.6 653.6,91.0 654.6,108.4 655.7,125.7 656.7,143.1 657.7,160.5 658.7,38.4 659.7,55.8 660.6,73.1 661.6,90.5 662.5,107.9 663.4,125.3 664.3,142.7 665.1,160.0 666.0,37.9 666.8,55.3 667.6,72.7 668.4,90.1 669.6,116.1 670.8,142.2 671.9,28.8 673.0,54.8 674.1,80.9 675.2,107.0 676.2,133.0 677.2,159.1 678.2,45.7 679.2,71.7 680.1,97.8 681.0,123.9 682.0,150.0 682.9,36.5 683.7,62.6 684.6,88.7 685.5,114.7 686.3,140.8 687.1,27.4 687.9,53.4 689.0,88.2 690.0,123.0 691.0,157.7 692.0,53.0 693.0,87.7 693.9,122.5 694.9,157.3 695.8,52.5 696.7,87.3 697.6,122.0 698.4,156.8 699.3,52.1 700.1,86.8 700.9,121.6 701.7,156.3 702.7,60.3 703.7,103.7 704.6,147.2 705.6,51.1 706.5,94.6 707.4,138.0 708.3,42.0 709.1,85.4 710.0,128.9 710.8,32.8 711.6,76.3 712.4,119.7 713.4,32.4 714.3,84.5 715.2,136.6 716.1,49.3 717.0,101.4 717.9,153.6 718.7,66.2 719.6,118.3 720.4,31.0 721.2,83.1 722.1,143.9 723.0,65.3 723.9,126.1 724.8,47.4 725.7,108.2 726.5,29.6 727.3,90.4 728.1,151.2 728.9,72.5 729.8,142.1 730.7,72.1 731.6,141.6 732.4,71.6 733.3,141.1 734.1,71.1 734.9,140.6 735.8,79.3 736.7,157.5 737.5,96.2 738.4,34.9 739.2,113.1 740.0,51.8 740.8,130.0 741.7,77.4 742.6,24.8 743.4,111.7 744.3,59.1 745.1,146.0 745.9,93.4 746.8,49.4 747.6,145.0 748.5,101.1 749.3,57.2 750.1,152.7 751.0,117.5 751.8,82.3 752.7,47.0 753.5,151.3 754.3,116.0 755.1,89.5 756.0,62.9 756.8,36.4 757.6,149.3 758.5,122.7 759.3,104.9 760.1,87.0 761.0,69.1 761.8,51.2 762.6,42.1 763.5,32.9 764.3,163.2 765.1,154.0 765.9,153.5 766.8,152.9 767.6,152.4 768.4,151.9 769.2,160.1 770.1,28.7 770.9,36.9 771.7,53.8 772.6,70.6 773.4,87.4 774.2,104.3 775.0,129.8 775.8,155.3 776.6,41.3 777.5,75.5 778.3,109.7 779.1,143.9 779.9,47.2 780.7,90.1 781.5,133.0 782.4,45.0 783.2,96.5 784.0,148.0 784.8,68.7 785.6,128.9 786.5,58.3 787.3,127.2 788.1,56.5 788.9,134.1 789.7,72.1 790.5,158.3 791.3,105.0 792.2,60.3 793.0,155.2 793.8,110.5 794.6,74.6 795.4,38.6 796.2,150.7 797.0,123.4 797.8,104.8 798.6,86.1 799.5,76.1 L799.5,93.5 L438.5,93.5 Z" fill="url(#g832)" clip-path="url(#c834)"/>
  <path d="M438.5,32.4 438.5,32.4 471.8,41.1 491.3,49.8 505.1,58.5 515.8,67.2 524.6,75.9 532.0,84.6 538.4,93.3 544.1,102.0 549.1,110.7 553.7,119.3 557.9,128.0 561.7,136.7 565.3,145.4 568.6,154.1 571.7,162.8 574.6,32.0 577.3,40.7 579.9,49.4 582.4,58.1 584.7,66.7 587.0,75.4 589.1,84.1 591.2,92.8 593.1,101.5 595.0,110.2 596.8,118.9 598.6,127.6 600.2,136.3 601.9,145.0 603.4,153.6 605.0,162.3 606.5,31.5 607.9,40.2 609.3,48.9 610.6,57.6 611.9,66.3 613.2,75.0 614.5,83.7 615.7,92.4 616.9,101.0 618.0,109.7 619.2,118.4 620.3,127.1 621.3,135.8 622.4,144.5 623.4,153.2 624.4,161.9 625.4,31.1 626.4,39.8 627.4,48.4 628.3,57.1 629.2,65.8 630.1,74.5 631.0,83.2 631.8,91.9 632.7,100.6 633.5,109.3 634.4,118.0 635.2,126.7 636.7,144.0 638.3,161.4 639.7,39.3 641.2,56.7 642.6,74.1 643.9,91.4 645.2,108.8 646.5,126.2 647.8,143.6 649.0,161.0 650.2,38.8 651.3,56.2 652.4,73.6 653.6,91.0 654.6,108.4 655.7,125.7 656.7,143.1 657.7,160.5 658.7,38.4 659.7,55.8 660.6,73.1 661.6,90.5 662.5,107.9 663.4,125.3 664.3,142.7 665.1,160.0 666.0,37.9 666.8,55.3 667.6,72.7 668.4,90.1 669.6,116.1 670.8,142.2 671.9,28.8 673.0,54.8 674.1,80.9 675.2,107.0 676.2,133.0 677.2,159.1 678.2,45.7 679.2,71.7 680.1,97.8 681.0,123.9 682.0,150.0 682.9,36.5 683.7,62.6 684.6,88.7 685.5,114.7 686.3,140.8 687.1,27.4 687.9,53.4 689.0,88.2 690.0,123.0 691.0,157.7 692.0,53.0 693.0,87.7 693.9,122.5 694.9,157.3 695.8,52.5 696.7,87.3 697.6,122.0 698.4,156.8 699.3,52.1 700.1,86.8 700.9,121.6 701.7,156.3 702.7,60.3 703.7,103.7 704.6,147.2 705.6,51.1 706.5,94.6 707.4,138.0 708.3,42.0 709.1,85.4 710.0,128.9 710.8,32.8 711.6,76.3 712.4,119.7 713.4,32.4 714.3,84.5 715.2,136.6 716.1,49.3 717.0,101.4 717.9,153.6 718.7,66.2 719.6,118.3 720.4,31.0 721.2,83.1 722.1,143.9 723.0,65.3 723.9,126.1 724.8,47.4 725.7,108.2 726.5,29.6 727.3,90.4 728.1,151.2 728.9,72.5 729.8,142.1 730.7,72.1 731.6,141.6 732.4,71.6 733.3,141.1 734.1,71.1 734.9,140.6 735.8,79.3 736.7,157.5 737.5,96.2 738.4,34.9 739.2,113.1 740.0,51.8 740.8,130.0 741.7,77.4 742.6,24.8 743.4,111.7 744.3,59.1 745.1,146.0 745.9,93.4 746.8,49.4 747.6,145.0 748.5,101.1 749.3,57.2 750.1,152.7 751.0,117.5 751.8,82.3 752.7,47.0 753.5,151.3 754.3,116.0 755.1,89.5 756.0,62.9 756.8,36.4 757.6,149.3 758.5,122.7 759.3,104.9 760.1,87.0 761.0,69.1 761.8,51.2 762.6,42.1 763.5,32.9 764.3,163.2 765.1,154.0 765.9,153.5 766.8,152.9 767.6,152.4 768.4,151.9 769.2,160.1 770.1,28.7 770.9,36.9 771.7,53.8 772.6,70.6 773.4,87.4 774.2,104.3 775.0,129.8 775.8,155.3 776.6,41.3 777.5,75.5 778.3,109.7 779.1,143.9 779.9,47.2 780.7,90.1 781.5,133.0 782.4,45.0 783.2,96.5 784.0,148.0 784.8,68.7 785.6,128.9 786.5,58.3 787.3,127.2 788.1,56.5 788.9,134.1 789.7,72.1 790.5,158.3 791.3,105.0 792.2,60.3 793.0,155.2 793.8,110.5 794.6,74.6 795.4,38.6 796.2,150.7 797.0,123.4 797.8,104.8 798.6,86.1 799.5,76.1 L799.5,93.5 L438.5,93.5 Z" fill="url(#g833)" clip-path="url(#c835)"/>
  <defs><clipPath id="pc836"><rect x="435" y="16" width="365" height="155"/></clipPath></defs>
  <polyline points="438.5,32.4 471.8,41.1 491.3,49.8 505.1,58.5 515.8,67.2 524.6,75.9 532.0,84.6 538.4,93.3 544.1,102.0 549.1,110.7 553.7,119.3 557.9,128.0 561.7,136.7 565.3,145.4 568.6,154.1 571.7,162.8 574.6,32.0 577.3,40.7 579.9,49.4 582.4,58.1 584.7,66.7 587.0,75.4 589.1,84.1 591.2,92.8 593.1,101.5 595.0,110.2 596.8,118.9 598.6,127.6 600.2,136.3 601.9,145.0 603.4,153.6 605.0,162.3 606.5,31.5 607.9,40.2 609.3,48.9 610.6,57.6 611.9,66.3 613.2,75.0 614.5,83.7 615.7,92.4 616.9,101.0 618.0,109.7 619.2,118.4 620.3,127.1 621.3,135.8 622.4,144.5 623.4,153.2 624.4,161.9 625.4,31.1 626.4,39.8 627.4,48.4 628.3,57.1 629.2,65.8 630.1,74.5 631.0,83.2 631.8,91.9 632.7,100.6 633.5,109.3 634.4,118.0 635.2,126.7 636.7,144.0 638.3,161.4 639.7,39.3 641.2,56.7 642.6,74.1 643.9,91.4 645.2,108.8 646.5,126.2 647.8,143.6 649.0,161.0 650.2,38.8 651.3,56.2 652.4,73.6 653.6,91.0 654.6,108.4 655.7,125.7 656.7,143.1 657.7,160.5 658.7,38.4 659.7,55.8 660.6,73.1 661.6,90.5 662.5,107.9 663.4,125.3 664.3,142.7 665.1,160.0 666.0,37.9 666.8,55.3 667.6,72.7 668.4,90.1 669.6,116.1 670.8,142.2 671.9,28.8 673.0,54.8 674.1,80.9 675.2,107.0 676.2,133.0 677.2,159.1 678.2,45.7 679.2,71.7 680.1,97.8 681.0,123.9 682.0,150.0 682.9,36.5 683.7,62.6 684.6,88.7 685.5,114.7 686.3,140.8 687.1,27.4 687.9,53.4 689.0,88.2 690.0,123.0 691.0,157.7 692.0,53.0 693.0,87.7 693.9,122.5 694.9,157.3 695.8,52.5 696.7,87.3 697.6,122.0 698.4,156.8 699.3,52.1 700.1,86.8 700.9,121.6 701.7,156.3 702.7,60.3 703.7,103.7 704.6,147.2 705.6,51.1 706.5,94.6 707.4,138.0 708.3,42.0 709.1,85.4 710.0,128.9 710.8,32.8 711.6,76.3 712.4,119.7 713.4,32.4 714.3,84.5 715.2,136.6 716.1,49.3 717.0,101.4 717.9,153.6 718.7,66.2 719.6,118.3 720.4,31.0 721.2,83.1 722.1,143.9 723.0,65.3 723.9,126.1 724.8,47.4 725.7,108.2 726.5,29.6 727.3,90.4 728.1,151.2 728.9,72.5 729.8,142.1 730.7,72.1 731.6,141.6 732.4,71.6 733.3,141.1 734.1,71.1 734.9,140.6 735.8,79.3 736.7,157.5 737.5,96.2 738.4,34.9 739.2,113.1 740.0,51.8 740.8,130.0 741.7,77.4 742.6,24.8 743.4,111.7 744.3,59.1 745.1,146.0 745.9,93.4 746.8,49.4 747.6,145.0 748.5,101.1 749.3,57.2 750.1,152.7 751.0,117.5 751.8,82.3 752.7,47.0 753.5,151.3 754.3,116.0 755.1,89.5 756.0,62.9 756.8,36.4 757.6,149.3 758.5,122.7 759.3,104.9 760.1,87.0 761.0,69.1 761.8,51.2 762.6,42.1 763.5,32.9 764.3,163.2 765.1,154.0 765.9,153.5 766.8,152.9 767.6,152.4 768.4,151.9 769.2,160.1 770.1,28.7 770.9,36.9 771.7,53.8 772.6,70.6 773.4,87.4 774.2,104.3 775.0,129.8 775.8,155.3 776.6,41.3 777.5,75.5 778.3,109.7 779.1,143.9 779.9,47.2 780.7,90.1 781.5,133.0 782.4,45.0 783.2,96.5 784.0,148.0 784.8,68.7 785.6,128.9 786.5,58.3 787.3,127.2 788.1,56.5 788.9,134.1 789.7,72.1 790.5,158.3 791.3,105.0 792.2,60.3 793.0,155.2 793.8,110.5 794.6,74.6 795.4,38.6 796.2,150.7 797.0,123.4 797.8,104.8 798.6,86.1 799.5,76.1" fill="none" stroke="#e74c3c" stroke-width="1.5" stroke-linejoin="round" clip-path="url(#pc836)"/>
  <line x1="34" y1="207" x2="34" y2="362" stroke="#d1d5db"/>
  <line x1="34" y1="284.5" x2="399" y2="284.5" stroke="#d1d5db"/>
  <text x="216.5" y="388" text-anchor="middle" font-size="9" fill="#6b7280">Hz</text>
  <text x="12" y="284.5" text-anchor="middle" font-size="9" fill="#6b7280" transform="rotate(-90 12 284.5)">Group delay</text>
  <line x1="67.3" y1="207" x2="67.3" y2="362" stroke="#e5e7eb" stroke-width="0.5"/>
  <line x1="86.8" y1="207" x2="86.8" y2="362" stroke="#e5e7eb" stroke-width="0.5"/>
  <line x1="100.6" y1="207" x2="100.6" y2="362" stroke="#e5e7eb" stroke-width="0.5"/>
  <line x1="111.3" y1="207" x2="111.3" y2="362" stroke="#e5e7eb" stroke-width="0.5"/>
  <line x1="120.0" y1="207" x2="120.0" y2="362" stroke="#e5e7eb" stroke-width="0.5"/>
  <line x1="127.4" y1="207" x2="127.4" y2="362" stroke="#e5e7eb" stroke-width="0.5"/>
  <line x1="133.9" y1="207" x2="133.9" y2="362" stroke="#e5e7eb" stroke-width="0.5"/>
  <line x1="139.5" y1="207" x2="139.5" y2="362" stroke="#e5e7eb" stroke-width="0.5"/>
  <line x1="177.9" y1="207" x2="177.9" y2="362" stroke="#e5e7eb" stroke-width="0.5"/>
  <line x1="197.3" y1="207" x2="197.3" y2="362" stroke="#e5e7eb" stroke-width="0.5"/>
  <line x1="211.1" y1="207" x2="211.1" y2="362" stroke="#e5e7eb" stroke-width="0.5"/>
  <line x1="221.9" y1="207" x2="221.9" y2="362" stroke="#e5e7eb" stroke-width="0.5"/>
  <line x1="230.6" y1="207" x2="230.6" y2="362" stroke="#e5e7eb" stroke-width="0.5"/>
  <line x1="238.0" y1="207" x2="238.0" y2="362" stroke="#e5e7eb" stroke-width="0.5"/>
  <line x1="244.4" y1="207" x2="244.4" y2="362" stroke="#e5e7eb" stroke-width="0.5"/>
  <line x1="250.1" y1="207" x2="250.1" y2="362" stroke="#e5e7eb" stroke-width="0.5"/>
  <line x1="288.4" y1="207" x2="288.4" y2="362" stroke="#e5e7eb" stroke-width="0.5"/>
  <line x1="307.9" y1="207" x2="307.9" y2="362" stroke="#e5e7eb" stroke-width="0.5"/>
  <line x1="321.7" y1="207" x2="321.7" y2="362" stroke="#e5e7eb" stroke-width="0.5"/>
  <line x1="332.4" y1="207" x2="332.4" y2="362" stroke="#e5e7eb" stroke-width="0.5"/>
  <line x1="341.2" y1="207" x2="341.2" y2="362" stroke="#e5e7eb" stroke-width="0.5"/>
  <line x1="348.6" y1="207" x2="348.6" y2="362" stroke="#e5e7eb" stroke-width="0.5"/>
  <line x1="355.0" y1="207" x2="355.0" y2="362" stroke="#e5e7eb" stroke-width="0.5"/>
  <line x1="360.7" y1="207" x2="360.7" y2="362" stroke="#e5e7eb" stroke-width="0.5"/>
  <line x1="399.0" y1="207" x2="399.0" y2="362" stroke="#e5e7eb" stroke-width="0.5"/>
  <line x1="144.6" y1="207" x2="144.6" y2="362" stroke="#e5e7eb" stroke-width="0.5"/>
  <text x="144.6" y="374" text-anchor="middle" font-size="8" fill="#6b7280">100</text>
  <line x1="255.1" y1="207" x2="255.1" y2="362" stroke="#e5e7eb" stroke-width="0.5"/>
  <text x="255.1" y="374" text-anchor="middle" font-size="8" fill="#6b7280">1k</text>
  <line x1="365.7" y1="207" x2="365.7" y2="362" stroke="#e5e7eb" stroke-width="0.5"/>
  <text x="365.7" y="374" text-anchor="middle" font-size="8" fill="#6b7280">10k</text>
  <line x1="34" y1="331.2" x2="399" y2="331.2" stroke="#e5e7eb" stroke-width="0.5"/>
  <text x="30" y="334.2" text-anchor="end" font-size="8" fill="#6b7280">-200</text>
  <text x="30" y="287.5" text-anchor="end" font-size="8" fill="#6b7280">0</text>
  <line x1="34" y1="237.8" x2="399" y2="237.8" stroke="#e5e7eb" stroke-width="0.5"/>
  <text x="30" y="240.8" text-anchor="end" font-size="8" fill="#6b7280">200</text>
  <defs><linearGradient id="g837" x1="0" y1="207" x2="0" y2="284.5" gradientUnits="userSpaceOnUse">
    <stop offset="0%" stop-color="#2ecc71" stop-opacity="0.15"/>
    <stop offset="100%" stop-color="#2ecc71" stop-opacity="0.02"/>
  </linearGradient></defs>
  <path d="M37.5,224.9 37.5,224.9 70.8,224.9 90.3,224.9 104.1,224.9 114.8,224.9 123.6,224.9 131.0,224.9 137.4,224.9 143.1,224.9 148.1,224.9 152.7,224.9 156.9,224.9 160.7,224.9 164.3,224.9 167.6,224.9 170.7,224.9 173.6,224.9 176.3,224.9 178.9,224.9 181.4,224.9 183.7,224.9 186.0,224.9 188.1,224.9 190.2,224.9 192.1,224.9 194.0,224.9 195.8,224.9 197.6,224.9 199.2,224.9 200.9,224.9 202.4,224.9 204.0,224.9 205.5,224.9 206.9,224.9 208.3,224.9 209.6,224.9 210.9,224.9 212.2,224.9 213.5,224.9 214.7,224.9 215.9,224.9 217.0,224.9 218.2,224.9 219.3,224.9 220.3,224.9 221.4,224.9 222.4,224.9 223.4,224.9 224.4,224.9 225.4,224.9 226.4,224.9 227.3,224.9 228.2,224.9 229.1,224.9 230.0,224.9 230.8,224.9 231.7,224.9 232.5,224.9 233.4,224.9 234.2,224.9 235.7,224.9 237.3,224.9 238.7,224.9 240.2,224.9 241.6,224.9 242.9,224.9 244.2,224.9 245.5,224.9 246.8,224.9 248.0,224.9 249.2,224.9 250.3,224.9 251.4,224.9 252.6,224.9 253.6,224.9 254.7,224.9 255.7,224.9 256.7,224.9 257.7,224.9 258.7,224.9 259.6,224.9 260.6,224.9 261.5,224.9 262.4,224.9 263.3,224.9 264.1,224.9 265.0,224.9 265.8,224.9 266.6,224.9 267.4,224.9 268.6,224.9 269.8,224.9 270.9,224.9 272.0,224.9 273.1,224.9 274.2,224.9 275.2,224.9 276.2,224.9 277.2,224.9 278.2,224.9 279.1,224.9 280.0,224.9 281.0,224.9 281.9,224.9 282.7,224.9 283.6,224.9 284.5,224.9 285.3,224.9 286.1,224.9 286.9,224.9 288.0,224.9 289.0,224.9 290.0,224.9 291.0,224.9 292.0,224.9 292.9,224.9 293.9,224.9 294.8,224.9 295.7,224.9 296.6,224.9 297.4,224.9 298.3,224.9 299.1,224.9 299.9,224.9 300.7,224.9 301.7,224.9 302.7,224.9 303.6,224.9 304.6,224.9 305.5,224.9 306.4,224.9 307.3,224.9 308.1,224.9 309.0,224.9 309.8,224.9 310.6,224.9 311.4,224.9 312.4,224.9 313.3,224.9 314.2,224.9 315.1,224.9 316.0,224.9 316.9,224.9 317.7,224.9 318.6,224.9 319.4,224.9 320.2,224.9 321.1,224.9 322.0,224.9 322.9,224.9 323.8,224.9 324.7,224.9 325.5,224.9 326.3,224.9 327.1,224.9 327.9,224.9 328.8,224.9 329.7,224.9 330.6,224.9 331.4,224.9 332.3,224.9 333.1,224.9 333.9,224.9 334.8,224.9 335.7,224.9 336.5,224.9 337.4,224.9 338.2,224.9 339.0,224.9 339.8,224.9 340.7,224.9 341.6,224.9 342.4,224.9 343.3,224.9 344.1,224.9 344.9,224.9 345.8,224.9 346.6,224.9 347.5,224.9 348.3,224.9 349.1,224.9 350.0,224.9 350.8,224.9 351.7,224.9 352.5,224.9 353.3,224.9 354.1,224.9 355.0,224.9 355.8,224.9 356.6,224.9 357.5,224.9 358.3,224.9 359.1,224.9 360.0,224.9 360.8,224.9 361.6,224.9 362.5,224.9 363.3,224.9 364.1,224.9 364.9,224.9 365.8,224.9 366.6,224.9 367.4,224.9 368.2,224.9 369.1,224.9 369.9,224.9 370.7,224.9 371.6,224.9 372.4,224.9 373.2,224.9 374.0,224.9 374.8,224.9 375.6,224.9 376.5,224.9 377.3,224.9 378.1,224.9 378.9,224.9 379.7,224.9 380.5,224.9 381.4,224.9 382.2,224.9 383.0,224.9 383.8,224.9 384.6,224.9 385.5,224.9 386.3,224.9 387.1,224.9 387.9,224.9 388.7,224.9 389.5,224.9 390.3,225.0 391.2,225.0 392.0,225.0 392.8,225.0 393.6,225.0 394.4,225.0 395.2,225.0 396.0,225.0 396.8,225.0 397.6,225.0 398.5,225.0 L398.5,284.5 L37.5,284.5 Z" fill="url(#g837)"/>
  <defs><clipPath id="pc838"><rect x="34" y="207" width="365" height="155"/></clipPath></defs>
  <polyline points="37.5,224.9 70.8,224.9 90.3,224.9 104.1,224.9 114.8,224.9 123.6,224.9 131.0,224.9 137.4,224.9 143.1,224.9 148.1,224.9 152.7,224.9 156.9,224.9 160.7,224.9 164.3,224.9 167.6,224.9 170.7,224.9 173.6,224.9 176.3,224.9 178.9,224.9 181.4,224.9 183.7,224.9 186.0,224.9 188.1,224.9 190.2,224.9 192.1,224.9 194.0,224.9 195.8,224.9 197.6,224.9 199.2,224.9 200.9,224.9 202.4,224.9 204.0,224.9 205.5,224.9 206.9,224.9 208.3,224.9 209.6,224.9 210.9,224.9 212.2,224.9 213.5,224.9 214.7,224.9 215.9,224.9 217.0,224.9 218.2,224.9 219.3,224.9 220.3,224.9 221.4,224.9 222.4,224.9 223.4,224.9 224.4,224.9 225.4,224.9 226.4,224.9 227.3,224.9 228.2,224.9 229.1,224.9 230.0,224.9 230.8,224.9 231.7,224.9 232.5,224.9 233.4,224.9 234.2,224.9 235.7,224.9 237.3,224.9 238.7,224.9 240.2,224.9 241.6,224.9 242.9,224.9 244.2,224.9 245.5,224.9 246.8,224.9 248.0,224.9 249.2,224.9 250.3,224.9 251.4,224.9 252.6,224.9 253.6,224.9 254.7,224.9 255.7,224.9 256.7,224.9 257.7,224.9 258.7,224.9 259.6,224.9 260.6,224.9 261.5,224.9 262.4,224.9 263.3,224.9 264.1,224.9 265.0,224.9 265.8,224.9 266.6,224.9 267.4,224.9 268.6,224.9 269.8,224.9 270.9,224.9 272.0,224.9 273.1,224.9 274.2,224.9 275.2,224.9 276.2,224.9 277.2,224.9 278.2,224.9 279.1,224.9 280.0,224.9 281.0,224.9 281.9,224.9 282.7,224.9 283.6,224.9 284.5,224.9 285.3,224.9 286.1,224.9 286.9,224.9 288.0,224.9 289.0,224.9 290.0,224.9 291.0,224.9 292.0,224.9 292.9,224.9 293.9,224.9 294.8,224.9 295.7,224.9 296.6,224.9 297.4,224.9 298.3,224.9 299.1,224.9 299.9,224.9 300.7,224.9 301.7,224.9 302.7,224.9 303.6,224.9 304.6,224.9 305.5,224.9 306.4,224.9 307.3,224.9 308.1,224.9 309.0,224.9 309.8,224.9 310.6,224.9 311.4,224.9 312.4,224.9 313.3,224.9 314.2,224.9 315.1,224.9 316.0,224.9 316.9,224.9 317.7,224.9 318.6,224.9 319.4,224.9 320.2,224.9 321.1,224.9 322.0,224.9 322.9,224.9 323.8,224.9 324.7,224.9 325.5,224.9 326.3,224.9 327.1,224.9 327.9,224.9 328.8,224.9 329.7,224.9 330.6,224.9 331.4,224.9 332.3,224.9 333.1,224.9 333.9,224.9 334.8,224.9 335.7,224.9 336.5,224.9 337.4,224.9 338.2,224.9 339.0,224.9 339.8,224.9 340.7,224.9 341.6,224.9 342.4,224.9 343.3,224.9 344.1,224.9 344.9,224.9 345.8,224.9 346.6,224.9 347.5,224.9 348.3,224.9 349.1,224.9 350.0,224.9 350.8,224.9 351.7,224.9 352.5,224.9 353.3,224.9 354.1,224.9 355.0,224.9 355.8,224.9 356.6,224.9 357.5,224.9 358.3,224.9 359.1,224.9 360.0,224.9 360.8,224.9 361.6,224.9 362.5,224.9 363.3,224.9 364.1,224.9 364.9,224.9 365.8,224.9 366.6,224.9 367.4,224.9 368.2,224.9 369.1,224.9 369.9,224.9 370.7,224.9 371.6,224.9 372.4,224.9 373.2,224.9 374.0,224.9 374.8,224.9 375.6,224.9 376.5,224.9 377.3,224.9 378.1,224.9 378.9,224.9 379.7,224.9 380.5,224.9 381.4,224.9 382.2,224.9 383.0,224.9 383.8,224.9 384.6,224.9 385.5,224.9 386.3,224.9 387.1,224.9 387.9,224.9 388.7,224.9 389.5,224.9 390.3,225.0 391.2,225.0 392.0,225.0 392.8,225.0 393.6,225.0 394.4,225.0 395.2,225.0 396.0,225.0 396.8,225.0 397.6,225.0 398.5,225.0" fill="none" stroke="#2ecc71" stroke-width="1.5" stroke-linejoin="round" clip-path="url(#pc838)"/>
  <line x1="435" y1="207" x2="435" y2="362" stroke="#d1d5db"/>
  <line x1="435" y1="284.5" x2="800" y2="284.5" stroke="#d1d5db"/>
  <text x="617.5" y="388" text-anchor="middle" font-size="9" fill="#6b7280">Samples</text>
  <text x="413" y="284.5" text-anchor="middle" font-size="9" fill="#6b7280" transform="rotate(-90 413 284.5)">Impulse response</text>
  <line x1="435.0" y1="207" x2="435.0" y2="362" stroke="#e5e7eb" stroke-width="0.5"/>
  <text x="435.0" y="374" text-anchor="middle" font-size="8" fill="#6b7280">0</text>
  <line x1="563.3" y1="207" x2="563.3" y2="362" stroke="#e5e7eb" stroke-width="0.5"/>
  <text x="563.3" y="374" text-anchor="middle" font-size="8" fill="#6b7280">90</text>
  <line x1="691.6" y1="207" x2="691.6" y2="362" stroke="#e5e7eb" stroke-width="0.5"/>
  <text x="691.6" y="374" text-anchor="middle" font-size="8" fill="#6b7280">180</text>
  <line x1="435" y1="339.3" x2="800" y2="339.3" stroke="#e5e7eb" stroke-width="0.5"/>
  <text x="431" y="342.3" text-anchor="end" font-size="8" fill="#6b7280">-6.999999999999999e+185</text>
  <text x="431" y="287.5" text-anchor="end" font-size="8" fill="#6b7280">0</text>
  <line x1="435" y1="229.7" x2="800" y2="229.7" stroke="#e5e7eb" stroke-width="0.5"/>
  <text x="431" y="232.7" text-anchor="end" font-size="8" fill="#6b7280">6.999999999999999e+185</text>
  <defs><linearGradient id="g839" x1="0" y1="207" x2="0" y2="284.5" gradientUnits="userSpaceOnUse">
    <stop offset="0%" stop-color="#f39c12" stop-opacity="0.15"/>
    <stop offset="100%" stop-color="#f39c12" stop-opacity="0.02"/>
  </linearGradient></defs>
  <defs><linearGradient id="g840" x1="0" y1="362" x2="0" y2="284.5" gradientUnits="userSpaceOnUse">
    <stop offset="0%" stop-color="#f39c12" stop-opacity="0.15"/>
    <stop offset="100%" stop-color="#f39c12" stop-opacity="0.02"/>
  </linearGradient></defs>
  <defs><clipPath id="c841"><rect x="435" y="207" width="365" height="77.5"/></clipPath></defs>
  <defs><clipPath id="c842"><rect x="435" y="284.5" width="365" height="77.5"/></clipPath></defs>
  <path d="M435.0,284.5 435.0,284.5 436.4,284.5 437.9,284.5 439.3,284.5 440.7,284.5 442.1,284.5 443.6,284.5 445.0,284.5 446.4,284.5 447.8,284.5 449.3,284.5 450.7,284.5 452.1,284.5 453.5,284.5 455.0,284.5 456.4,284.5 457.8,284.5 459.2,284.5 460.7,284.5 462.1,284.5 463.5,284.5 464.9,284.5 466.4,284.5 467.8,284.5 469.2,284.5 470.6,284.5 472.1,284.5 473.5,284.5 474.9,284.5 476.3,284.5 477.8,284.5 479.2,284.5 480.6,284.5 482.1,284.5 483.5,284.5 484.9,284.5 486.3,284.5 487.8,284.5 489.2,284.5 490.6,284.5 492.0,284.5 493.5,284.5 494.9,284.5 496.3,284.5 497.7,284.5 499.2,284.5 500.6,284.5 502.0,284.5 503.4,284.5 504.9,284.5 506.3,284.5 507.7,284.5 509.1,284.5 510.6,284.5 512.0,284.5 513.4,284.5 514.8,284.5 516.3,284.5 517.7,284.5 519.1,284.5 520.5,284.5 522.0,284.5 523.4,284.5 524.8,284.5 526.3,284.5 527.7,284.5 529.1,284.5 530.5,284.5 532.0,284.5 533.4,284.5 534.8,284.5 536.2,284.5 537.7,284.5 539.1,284.5 540.5,284.5 541.9,284.5 543.4,284.5 544.8,284.5 546.2,284.5 547.6,284.5 549.1,284.5 550.5,284.5 551.9,284.5 553.3,284.5 554.8,284.5 556.2,284.5 557.6,284.5 559.0,284.5 560.5,284.5 561.9,284.5 563.3,284.5 564.7,284.5 566.2,284.5 567.6,284.5 569.0,284.5 570.4,284.5 571.9,284.5 573.3,284.5 574.7,284.5 576.2,284.5 577.6,284.5 579.0,284.5 580.4,284.5 581.9,284.5 583.3,284.5 584.7,284.5 586.1,284.5 587.6,284.5 589.0,284.5 590.4,284.5 591.8,284.5 593.3,284.5 594.7,284.5 596.1,284.5 597.5,284.5 599.0,284.5 600.4,284.5 601.8,284.5 603.2,284.5 604.7,284.5 606.1,284.5 607.5,284.5 608.9,284.5 610.4,284.5 611.8,284.5 613.2,284.5 614.6,284.5 616.1,284.5 617.5,284.5 618.9,284.5 620.4,284.5 621.8,284.5 623.2,284.5 624.6,284.5 626.1,284.5 627.5,284.5 628.9,284.5 630.3,284.5 631.8,284.5 633.2,284.5 634.6,284.5 636.0,284.5 637.5,284.5 638.9,284.5 640.3,284.5 641.7,284.5 643.2,284.5 644.6,284.5 646.0,284.5 647.4,284.5 648.9,284.5 650.3,284.5 651.7,284.5 653.1,284.5 654.6,284.5 656.0,284.5 657.4,284.5 658.8,284.5 660.3,284.5 661.7,284.5 663.1,284.5 664.6,284.5 666.0,284.5 667.4,284.5 668.8,284.5 670.3,284.5 671.7,284.5 673.1,284.5 674.5,284.5 676.0,284.5 677.4,284.5 678.8,284.5 680.2,284.5 681.7,284.5 683.1,284.5 684.5,284.5 685.9,284.5 687.4,284.5 688.8,284.5 690.2,284.5 691.6,284.5 693.1,284.5 694.5,284.5 695.9,284.5 697.3,284.5 698.8,284.5 700.2,284.5 701.6,284.5 703.0,284.5 704.5,284.5 705.9,284.5 707.3,284.5 708.8,284.5 710.2,284.5 711.6,284.5 713.0,284.5 714.5,284.5 715.9,284.5 717.3,284.5 718.7,284.5 720.2,284.5 721.6,284.5 723.0,284.5 724.4,284.5 725.9,284.5 727.3,284.5 728.7,284.5 730.1,284.5 731.6,284.5 733.0,284.5 734.4,284.5 735.8,284.5 737.3,284.5 738.7,284.5 740.1,284.5 741.5,284.5 743.0,284.5 744.4,284.5 745.8,284.5 747.2,284.5 748.7,284.5 750.1,284.5 751.5,284.5 752.9,284.5 754.4,284.5 755.8,284.5 757.2,284.5 758.7,284.5 760.1,284.5 761.5,284.5 762.9,284.5 764.4,284.5 765.8,284.5 767.2,284.5 768.6,284.5 770.1,284.5 771.5,284.5 772.9,284.5 774.3,284.5 775.8,284.5 777.2,284.5 778.6,284.5 780.0,284.5 781.5,284.5 782.9,284.5 784.3,284.5 785.7,284.5 787.2,284.5 788.6,284.5 790.0,284.5 791.4,284.5 792.9,284.6 794.3,284.0 795.7,287.2 797.1,270.1 798.6,362.0 L798.6,284.5 L435.0,284.5 Z" fill="url(#g839)" clip-path="url(#c841)"/>
  <path d="M435.0,284.5 435.0,284.5 436.4,284.5 437.9,284.5 439.3,284.5 440.7,284.5 442.1,284.5 443.6,284.5 445.0,284.5 446.4,284.5 447.8,284.5 449.3,284.5 450.7,284.5 452.1,284.5 453.5,284.5 455.0,284.5 456.4,284.5 457.8,284.5 459.2,284.5 460.7,284.5 462.1,284.5 463.5,284.5 464.9,284.5 466.4,284.5 467.8,284.5 469.2,284.5 470.6,284.5 472.1,284.5 473.5,284.5 474.9,284.5 476.3,284.5 477.8,284.5 479.2,284.5 480.6,284.5 482.1,284.5 483.5,284.5 484.9,284.5 486.3,284.5 487.8,284.5 489.2,284.5 490.6,284.5 492.0,284.5 493.5,284.5 494.9,284.5 496.3,284.5 497.7,284.5 499.2,284.5 500.6,284.5 502.0,284.5 503.4,284.5 504.9,284.5 506.3,284.5 507.7,284.5 509.1,284.5 510.6,284.5 512.0,284.5 513.4,284.5 514.8,284.5 516.3,284.5 517.7,284.5 519.1,284.5 520.5,284.5 522.0,284.5 523.4,284.5 524.8,284.5 526.3,284.5 527.7,284.5 529.1,284.5 530.5,284.5 532.0,284.5 533.4,284.5 534.8,284.5 536.2,284.5 537.7,284.5 539.1,284.5 540.5,284.5 541.9,284.5 543.4,284.5 544.8,284.5 546.2,284.5 547.6,284.5 549.1,284.5 550.5,284.5 551.9,284.5 553.3,284.5 554.8,284.5 556.2,284.5 557.6,284.5 559.0,284.5 560.5,284.5 561.9,284.5 563.3,284.5 564.7,284.5 566.2,284.5 567.6,284.5 569.0,284.5 570.4,284.5 571.9,284.5 573.3,284.5 574.7,284.5 576.2,284.5 577.6,284.5 579.0,284.5 580.4,284.5 581.9,284.5 583.3,284.5 584.7,284.5 586.1,284.5 587.6,284.5 589.0,284.5 590.4,284.5 591.8,284.5 593.3,284.5 594.7,284.5 596.1,284.5 597.5,284.5 599.0,284.5 600.4,284.5 601.8,284.5 603.2,284.5 604.7,284.5 606.1,284.5 607.5,284.5 608.9,284.5 610.4,284.5 611.8,284.5 613.2,284.5 614.6,284.5 616.1,284.5 617.5,284.5 618.9,284.5 620.4,284.5 621.8,284.5 623.2,284.5 624.6,284.5 626.1,284.5 627.5,284.5 628.9,284.5 630.3,284.5 631.8,284.5 633.2,284.5 634.6,284.5 636.0,284.5 637.5,284.5 638.9,284.5 640.3,284.5 641.7,284.5 643.2,284.5 644.6,284.5 646.0,284.5 647.4,284.5 648.9,284.5 650.3,284.5 651.7,284.5 653.1,284.5 654.6,284.5 656.0,284.5 657.4,284.5 658.8,284.5 660.3,284.5 661.7,284.5 663.1,284.5 664.6,284.5 666.0,284.5 667.4,284.5 668.8,284.5 670.3,284.5 671.7,284.5 673.1,284.5 674.5,284.5 676.0,284.5 677.4,284.5 678.8,284.5 680.2,284.5 681.7,284.5 683.1,284.5 684.5,284.5 685.9,284.5 687.4,284.5 688.8,284.5 690.2,284.5 691.6,284.5 693.1,284.5 694.5,284.5 695.9,284.5 697.3,284.5 698.8,284.5 700.2,284.5 701.6,284.5 703.0,284.5 704.5,284.5 705.9,284.5 707.3,284.5 708.8,284.5 710.2,284.5 711.6,284.5 713.0,284.5 714.5,284.5 715.9,284.5 717.3,284.5 718.7,284.5 720.2,284.5 721.6,284.5 723.0,284.5 724.4,284.5 725.9,284.5 727.3,284.5 728.7,284.5 730.1,284.5 731.6,284.5 733.0,284.5 734.4,284.5 735.8,284.5 737.3,284.5 738.7,284.5 740.1,284.5 741.5,284.5 743.0,284.5 744.4,284.5 745.8,284.5 747.2,284.5 748.7,284.5 750.1,284.5 751.5,284.5 752.9,284.5 754.4,284.5 755.8,284.5 757.2,284.5 758.7,284.5 760.1,284.5 761.5,284.5 762.9,284.5 764.4,284.5 765.8,284.5 767.2,284.5 768.6,284.5 770.1,284.5 771.5,284.5 772.9,284.5 774.3,284.5 775.8,284.5 777.2,284.5 778.6,284.5 780.0,284.5 781.5,284.5 782.9,284.5 784.3,284.5 785.7,284.5 787.2,284.5 788.6,284.5 790.0,284.5 791.4,284.5 792.9,284.6 794.3,284.0 795.7,287.2 797.1,270.1 798.6,362.0 L798.6,284.5 L435.0,284.5 Z" fill="url(#g840)" clip-path="url(#c842)"/>
  <defs><clipPath id="pc843"><rect x="435" y="207" width="365" height="155"/></clipPath></defs>
  <polyline points="435.0,284.5 436.4,284.5 437.9,284.5 439.3,284.5 440.7,284.5 442.1,284.5 443.6,284.5 445.0,284.5 446.4,284.5 447.8,284.5 449.3,284.5 450.7,284.5 452.1,284.5 453.5,284.5 455.0,284.5 456.4,284.5 457.8,284.5 459.2,284.5 460.7,284.5 462.1,284.5 463.5,284.5 464.9,284.5 466.4,284.5 467.8,284.5 469.2,284.5 470.6,284.5 472.1,284.5 473.5,284.5 474.9,284.5 476.3,284.5 477.8,284.5 479.2,284.5 480.6,284.5 482.1,284.5 483.5,284.5 484.9,284.5 486.3,284.5 487.8,284.5 489.2,284.5 490.6,284.5 492.0,284.5 493.5,284.5 494.9,284.5 496.3,284.5 497.7,284.5 499.2,284.5 500.6,284.5 502.0,284.5 503.4,284.5 504.9,284.5 506.3,284.5 507.7,284.5 509.1,284.5 510.6,284.5 512.0,284.5 513.4,284.5 514.8,284.5 516.3,284.5 517.7,284.5 519.1,284.5 520.5,284.5 522.0,284.5 523.4,284.5 524.8,284.5 526.3,284.5 527.7,284.5 529.1,284.5 530.5,284.5 532.0,284.5 533.4,284.5 534.8,284.5 536.2,284.5 537.7,284.5 539.1,284.5 540.5,284.5 541.9,284.5 543.4,284.5 544.8,284.5 546.2,284.5 547.6,284.5 549.1,284.5 550.5,284.5 551.9,284.5 553.3,284.5 554.8,284.5 556.2,284.5 557.6,284.5 559.0,284.5 560.5,284.5 561.9,284.5 563.3,284.5 564.7,284.5 566.2,284.5 567.6,284.5 569.0,284.5 570.4,284.5 571.9,284.5 573.3,284.5 574.7,284.5 576.2,284.5 577.6,284.5 579.0,284.5 580.4,284.5 581.9,284.5 583.3,284.5 584.7,284.5 586.1,284.5 587.6,284.5 589.0,284.5 590.4,284.5 591.8,284.5 593.3,284.5 594.7,284.5 596.1,284.5 597.5,284.5 599.0,284.5 600.4,284.5 601.8,284.5 603.2,284.5 604.7,284.5 606.1,284.5 607.5,284.5 608.9,284.5 610.4,284.5 611.8,284.5 613.2,284.5 614.6,284.5 616.1,284.5 617.5,284.5 618.9,284.5 620.4,284.5 621.8,284.5 623.2,284.5 624.6,284.5 626.1,284.5 627.5,284.5 628.9,284.5 630.3,284.5 631.8,284.5 633.2,284.5 634.6,284.5 636.0,284.5 637.5,284.5 638.9,284.5 640.3,284.5 641.7,284.5 643.2,284.5 644.6,284.5 646.0,284.5 647.4,284.5 648.9,284.5 650.3,284.5 651.7,284.5 653.1,284.5 654.6,284.5 656.0,284.5 657.4,284.5 658.8,284.5 660.3,284.5 661.7,284.5 663.1,284.5 664.6,284.5 666.0,284.5 667.4,284.5 668.8,284.5 670.3,284.5 671.7,284.5 673.1,284.5 674.5,284.5 676.0,284.5 677.4,284.5 678.8,284.5 680.2,284.5 681.7,284.5 683.1,284.5 684.5,284.5 685.9,284.5 687.4,284.5 688.8,284.5 690.2,284.5 691.6,284.5 693.1,284.5 694.5,284.5 695.9,284.5 697.3,284.5 698.8,284.5 700.2,284.5 701.6,284.5 703.0,284.5 704.5,284.5 705.9,284.5 707.3,284.5 708.8,284.5 710.2,284.5 711.6,284.5 713.0,284.5 714.5,284.5 715.9,284.5 717.3,284.5 718.7,284.5 720.2,284.5 721.6,284.5 723.0,284.5 724.4,284.5 725.9,284.5 727.3,284.5 728.7,284.5 730.1,284.5 731.6,284.5 733.0,284.5 734.4,284.5 735.8,284.5 737.3,284.5 738.7,284.5 740.1,284.5 741.5,284.5 743.0,284.5 744.4,284.5 745.8,284.5 747.2,284.5 748.7,284.5 750.1,284.5 751.5,284.5 752.9,284.5 754.4,284.5 755.8,284.5 757.2,284.5 758.7,284.5 760.1,284.5 761.5,284.5 762.9,284.5 764.4,284.5 765.8,284.5 767.2,284.5 768.6,284.5 770.1,284.5 771.5,284.5 772.9,284.5 774.3,284.5 775.8,284.5 777.2,284.5 778.6,284.5 780.0,284.5 781.5,284.5 782.9,284.5 784.3,284.5 785.7,284.5 787.2,284.5 788.6,284.5 790.0,284.5 791.4,284.5 792.9,284.6 794.3,284.0 795.7,287.2 797.1,270.1 798.6,362.0" fill="none" stroke="#f39c12" stroke-width="1.3" stroke-linejoin="round" clip-path="url(#pc843)"/>
</svg>
