<svg xmlns="http://www.w3.org/2000/svg" viewBox="0 0 820 392" style="font-family:system-ui,-apple-system,sans-serif">
  <text x="800" y="11" text-anchor="end" font-size="11" font-weight="600" fill="#6b7280">Biquad types, fc=1kHz</text>
  <line x1="34" y1="16" x2="34" y2="171" stroke="#d1d5db"/>
  <line x1="34" y1="47.0" x2="392" y2="47.0" stroke="#d1d5db"/>
  <text x="213" y="197" text-anchor="middle" font-size="9" fill="#6b7280">Hz</text>
  <text x="12" y="93.5" text-anchor="middle" font-size="9" fill="#6b7280" transform="rotate(-90 12 93.5)">dB</text>
  <line x1="66.6" y1="16" x2="66.6" y2="171" stroke="#e5e7eb" stroke-width="0.5"/>
  <line x1="85.7" y1="16" x2="85.7" y2="171" stroke="#e5e7eb" stroke-width="0.5"/>
  <line x1="99.3" y1="16" x2="99.3" y2="171" stroke="#e5e7eb" stroke-width="0.5"/>
  <line x1="109.8" y1="16" x2="109.8" y2="171" stroke="#e5e7eb" stroke-width="0.5"/>
  <line x1="118.4" y1="16" x2="118.4" y2="171" stroke="#e5e7eb" stroke-width="0.5"/>
  <line x1="125.7" y1="16" x2="125.7" y2="171" stroke="#e5e7eb" stroke-width="0.5"/>
  <line x1="131.9" y1="16" x2="131.9" y2="171" stroke="#e5e7eb" stroke-width="0.5"/>
  <line x1="137.5" y1="16" x2="137.5" y2="171" stroke="#e5e7eb" stroke-width="0.5"/>
  <line x1="175.1" y1="16" x2="175.1" y2="171" stroke="#e5e7eb" stroke-width="0.5"/>
  <line x1="194.2" y1="16" x2="194.2" y2="171" stroke="#e5e7eb" stroke-width="0.5"/>
  <line x1="207.7" y1="16" x2="207.7" y2="171" stroke="#e5e7eb" stroke-width="0.5"/>
  <line x1="218.3" y1="16" x2="218.3" y2="171" stroke="#e5e7eb" stroke-width="0.5"/>
  <line x1="226.8" y1="16" x2="226.8" y2="171" stroke="#e5e7eb" stroke-width="0.5"/>
  <line x1="234.1" y1="16" x2="234.1" y2="171" stroke="#e5e7eb" stroke-width="0.5"/>
  <line x1="240.4" y1="16" x2="240.4" y2="171" stroke="#e5e7eb" stroke-width="0.5"/>
  <line x1="245.9" y1="16" x2="245.9" y2="171" stroke="#e5e7eb" stroke-width="0.5"/>
  <line x1="283.5" y1="16" x2="283.5" y2="171" stroke="#e5e7eb" stroke-width="0.5"/>
  <line x1="302.6" y1="16" x2="302.6" y2="171" stroke="#e5e7eb" stroke-width="0.5"/>
  <line x1="316.2" y1="16" x2="316.2" y2="171" stroke="#e5e7eb" stroke-width="0.5"/>
  <line x1="326.7" y1="16" x2="326.7" y2="171" stroke="#e5e7eb" stroke-width="0.5"/>
  <line x1="335.3" y1="16" x2="335.3" y2="171" stroke="#e5e7eb" stroke-width="0.5"/>
  <line x1="342.6" y1="16" x2="342.6" y2="171" stroke="#e5e7eb" stroke-width="0.5"/>
  <line x1="348.8" y1="16" x2="348.8" y2="171" stroke="#e5e7eb" stroke-width="0.5"/>
  <line x1="354.4" y1="16" x2="354.4" y2="171" stroke="#e5e7eb" stroke-width="0.5"/>
  <line x1="392.0" y1="16" x2="392.0" y2="171" stroke="#e5e7eb" stroke-width="0.5"/>
  <line x1="34.0" y1="16" x2="34.0" y2="171" stroke="#e5e7eb" stroke-width="0.5"/>
  <text x="34.0" y="183" text-anchor="middle" font-size="8" fill="#6b7280">10</text>
  <line x1="142.5" y1="16" x2="142.5" y2="171" stroke="#e5e7eb" stroke-width="0.5"/>
  <text x="142.5" y="183" text-anchor="middle" font-size="8" fill="#6b7280">100</text>
  <line x1="250.9" y1="16" x2="250.9" y2="171" stroke="#e5e7eb" stroke-width="0.5"/>
  <text x="250.9" y="183" text-anchor="middle" font-size="8" fill="#6b7280">1k</text>
  <line x1="359.4" y1="16" x2="359.4" y2="171" stroke="#e5e7eb" stroke-width="0.5"/>
  <text x="359.4" y="183" text-anchor="middle" font-size="8" fill="#6b7280">10k</text>
  <line x1="34" y1="140.0" x2="392" y2="140.0" stroke="#e5e7eb" stroke-width="0.5"/>
  <line x1="34" y1="109.0" x2="392" y2="109.0" stroke="#e5e7eb" stroke-width="0.5"/>
  <line x1="34" y1="78.0" x2="392" y2="78.0" stroke="#e5e7eb" stroke-width="0.5"/>
  <line x1="34" y1="16.0" x2="392" y2="16.0" stroke="#e5e7eb" stroke-width="0.5"/>
  <text x="30" y="143.0" text-anchor="end" font-size="8" fill="#6b7280">-60</text>
  <text x="30" y="112.0" text-anchor="end" font-size="8" fill="#6b7280">-40</text>
  <text x="30" y="81.0" text-anchor="end" font-size="8" fill="#6b7280">-20</text>
  <text x="30" y="50.0" text-anchor="end" font-size="8" fill="#6b7280">0</text>
  <text x="30" y="19.0" text-anchor="end" font-size="8" fill="#6b7280">20</text>
  <line x1="250.9" y1="16" x2="250.9" y2="171" stroke="#d1d5db" stroke-width="1" stroke-dasharray="4 3"/>
  <line x1="442" y1="16" x2="442" y2="171" stroke="#d1d5db"/>
  <line x1="442" y1="93.5" x2="800" y2="93.5" stroke="#d1d5db"/>
  <text x="621" y="197" text-anchor="middle" font-size="9" fill="#6b7280">Hz</text>
  <text x="420" y="93.5" text-anchor="middle" font-size="9" fill="#6b7280" transform="rotate(-90 420 93.5)">Phase (deg)</text>
  <line x1="474.6" y1="16" x2="474.6" y2="171" stroke="#e5e7eb" stroke-width="0.5"/>
  <line x1="493.7" y1="16" x2="493.7" y2="171" stroke="#e5e7eb" stroke-width="0.5"/>
  <line x1="507.3" y1="16" x2="507.3" y2="171" stroke="#e5e7eb" stroke-width="0.5"/>
  <line x1="517.8" y1="16" x2="517.8" y2="171" stroke="#e5e7eb" stroke-width="0.5"/>
  <line x1="526.4" y1="16" x2="526.4" y2="171" stroke="#e5e7eb" stroke-width="0.5"/>
  <line x1="533.7" y1="16" x2="533.7" y2="171" stroke="#e5e7eb" stroke-width="0.5"/>
  <line x1="539.9" y1="16" x2="539.9" y2="171" stroke="#e5e7eb" stroke-width="0.5"/>
  <line x1="545.5" y1="16" x2="545.5" y2="171" stroke="#e5e7eb" stroke-width="0.5"/>
  <line x1="583.1" y1="16" x2="583.1" y2="171" stroke="#e5e7eb" stroke-width="0.5"/>
  <line x1="602.2" y1="16" x2="602.2" y2="171" stroke="#e5e7eb" stroke-width="0.5"/>
  <line x1="615.7" y1="16" x2="615.7" y2="171" stroke="#e5e7eb" stroke-width="0.5"/>
  <line x1="626.3" y1="16" x2="626.3" y2="171" stroke="#e5e7eb" stroke-width="0.5"/>
  <line x1="634.8" y1="16" x2="634.8" y2="171" stroke="#e5e7eb" stroke-width="0.5"/>
  <line x1="642.1" y1="16" x2="642.1" y2="171" stroke="#e5e7eb" stroke-width="0.5"/>
  <line x1="648.4" y1="16" x2="648.4" y2="171" stroke="#e5e7eb" stroke-width="0.5"/>
  <line x1="653.9" y1="16" x2="653.9" y2="171" stroke="#e5e7eb" stroke-width="0.5"/>
  <line x1="691.5" y1="16" x2="691.5" y2="171" stroke="#e5e7eb" stroke-width="0.5"/>
  <line x1="710.6" y1="16" x2="710.6" y2="171" stroke="#e5e7eb" stroke-width="0.5"/>
  <line x1="724.2" y1="16" x2="724.2" y2="171" stroke="#e5e7eb" stroke-width="0.5"/>
  <line x1="734.7" y1="16" x2="734.7" y2="171" stroke="#e5e7eb" stroke-width="0.5"/>
  <line x1="743.3" y1="16" x2="743.3" y2="171" stroke="#e5e7eb" stroke-width="0.5"/>
  <line x1="750.6" y1="16" x2="750.6" y2="171" stroke="#e5e7eb" stroke-width="0.5"/>
  <line x1="756.8" y1="16" x2="756.8" y2="171" stroke="#e5e7eb" stroke-width="0.5"/>
  <line x1="762.4" y1="16" x2="762.4" y2="171" stroke="#e5e7eb" stroke-width="0.5"/>
  <line x1="800.0" y1="16" x2="800.0" y2="171" stroke="#e5e7eb" stroke-width="0.5"/>
  <line x1="442.0" y1="16" x2="442.0" y2="171" stroke="#e5e7eb" stroke-width="0.5"/>
  <text x="442.0" y="183" text-anchor="middle" font-size="8" fill="#6b7280">10</text>
  <line x1="550.5" y1="16" x2="550.5" y2="171" stroke="#e5e7eb" stroke-width="0.5"/>
  <text x="550.5" y="183" text-anchor="middle" font-size="8" fill="#6b7280">100</text>
  <line x1="658.9" y1="16" x2="658.9" y2="171" stroke="#e5e7eb" stroke-width="0.5"/>
  <text x="658.9" y="183" text-anchor="middle" font-size="8" fill="#6b7280">1k</text>
  <line x1="767.4" y1="16" x2="767.4" y2="171" stroke="#e5e7eb" stroke-width="0.5"/>
  <text x="767.4" y="183" text-anchor="middle" font-size="8" fill="#6b7280">10k</text>
  <line x1="442" y1="54.8" x2="800" y2="54.8" stroke="#e5e7eb" stroke-width="0.5"/>
  <line x1="442" y1="132.3" x2="800" y2="132.3" stroke="#e5e7eb" stroke-width="0.5"/>
  <line x1="442" y1="16.0" x2="800" y2="16.0" stroke="#e5e7eb" stroke-width="0.5"/>
  <text x="438" y="19.0" text-anchor="end" font-size="8" fill="#6b7280">180</text>
  <text x="438" y="96.5" text-anchor="end" font-size="8" fill="#6b7280">0</text>
  <line x1="442" y1="171.0" x2="800" y2="171.0" stroke="#e5e7eb" stroke-width="0.5"/>
  <text x="438" y="174.0" text-anchor="end" font-size="8" fill="#6b7280">-180</text>
  <line x1="658.9" y1="16" x2="658.9" y2="171" stroke="#d1d5db" stroke-width="1" stroke-dasharray="4 3"/>
  <line x1="34" y1="221" x2="34" y2="376" stroke="#d1d5db"/>
  <line x1="34" y1="272.7" x2="392" y2="272.7" stroke="#d1d5db"/>
  <text x="213" y="402" text-anchor="middle" font-size="9" fill="#6b7280">Hz</text>
  <text x="12" y="298.5" text-anchor="middle" font-size="9" fill="#6b7280" transform="rotate(-90 12 298.5)">Group delay</text>
  <line x1="66.6" y1="221" x2="66.6" y2="376" stroke="#e5e7eb" stroke-width="0.5"/>
  <line x1="85.7" y1="221" x2="85.7" y2="376" stroke="#e5e7eb" stroke-width="0.5"/>
  <line x1="99.3" y1="221" x2="99.3" y2="376" stroke="#e5e7eb" stroke-width="0.5"/>
  <line x1="109.8" y1="221" x2="109.8" y2="376" stroke="#e5e7eb" stroke-width="0.5"/>
  <line x1="118.4" y1="221" x2="118.4" y2="376" stroke="#e5e7eb" stroke-width="0.5"/>
  <line x1="125.7" y1="221" x2="125.7" y2="376" stroke="#e5e7eb" stroke-width="0.5"/>
  <line x1="131.9" y1="221" x2="131.9" y2="376" stroke="#e5e7eb" stroke-width="0.5"/>
  <line x1="137.5" y1="221" x2="137.5" y2="376" stroke="#e5e7eb" stroke-width="0.5"/>
  <line x1="175.1" y1="221" x2="175.1" y2="376" stroke="#e5e7eb" stroke-width="0.5"/>
  <line x1="194.2" y1="221" x2="194.2" y2="376" stroke="#e5e7eb" stroke-width="0.5"/>
  <line x1="207.7" y1="221" x2="207.7" y2="376" stroke="#e5e7eb" stroke-width="0.5"/>
  <line x1="218.3" y1="221" x2="218.3" y2="376" stroke="#e5e7eb" stroke-width="0.5"/>
  <line x1="226.8" y1="221" x2="226.8" y2="376" stroke="#e5e7eb" stroke-width="0.5"/>
  <line x1="234.1" y1="221" x2="234.1" y2="376" stroke="#e5e7eb" stroke-width="0.5"/>
  <line x1="240.4" y1="221" x2="240.4" y2="376" stroke="#e5e7eb" stroke-width="0.5"/>
  <line x1="245.9" y1="221" x2="245.9" y2="376" stroke="#e5e7eb" stroke-width="0.5"/>
  <line x1="283.5" y1="221" x2="283.5" y2="376" stroke="#e5e7eb" stroke-width="0.5"/>
  <line x1="302.6" y1="221" x2="302.6" y2="376" stroke="#e5e7eb" stroke-width="0.5"/>
  <line x1="316.2" y1="221" x2="316.2" y2="376" stroke="#e5e7eb" stroke-width="0.5"/>
  <line x1="326.7" y1="221" x2="326.7" y2="376" stroke="#e5e7eb" stroke-width="0.5"/>
  <line x1="335.3" y1="221" x2="335.3" y2="376" stroke="#e5e7eb" stroke-width="0.5"/>
  <line x1="342.6" y1="221" x2="342.6" y2="376" stroke="#e5e7eb" stroke-width="0.5"/>
  <line x1="348.8" y1="221" x2="348.8" y2="376" stroke="#e5e7eb" stroke-width="0.5"/>
  <line x1="354.4" y1="221" x2="354.4" y2="376" stroke="#e5e7eb" stroke-width="0.5"/>
  <line x1="392.0" y1="221" x2="392.0" y2="376" stroke="#e5e7eb" stroke-width="0.5"/>
  <line x1="34.0" y1="221" x2="34.0" y2="376" stroke="#e5e7eb" stroke-width="0.5"/>
  <text x="34.0" y="388" text-anchor="middle" font-size="8" fill="#6b7280">10</text>
  <line x1="142.5" y1="221" x2="142.5" y2="376" stroke="#e5e7eb" stroke-width="0.5"/>
  <text x="142.5" y="388" text-anchor="middle" font-size="8" fill="#6b7280">100</text>
  <line x1="250.9" y1="221" x2="250.9" y2="376" stroke="#e5e7eb" stroke-width="0.5"/>
  <text x="250.9" y="388" text-anchor="middle" font-size="8" fill="#6b7280">1k</text>
  <line x1="359.4" y1="221" x2="359.4" y2="376" stroke="#e5e7eb" stroke-width="0.5"/>
  <text x="359.4" y="388" text-anchor="middle" font-size="8" fill="#6b7280">10k</text>
  <line x1="34" y1="355.3" x2="392" y2="355.3" stroke="#e5e7eb" stroke-width="0.5"/>
  <text x="30" y="358.3" text-anchor="end" font-size="8" fill="#6b7280">-8</text>
  <line x1="34" y1="314.0" x2="392" y2="314.0" stroke="#e5e7eb" stroke-width="0.5"/>
  <text x="30" y="317.0" text-anchor="end" font-size="8" fill="#6b7280">-4</text>
  <text x="30" y="275.7" text-anchor="end" font-size="8" fill="#6b7280">0</text>
  <line x1="34" y1="231.3" x2="392" y2="231.3" stroke="#e5e7eb" stroke-width="0.5"/>
  <text x="30" y="234.3" text-anchor="end" font-size="8" fill="#6b7280">4</text>
  <line x1="250.9" y1="221" x2="250.9" y2="376" stroke="#d1d5db" stroke-width="1" stroke-dasharray="4 3"/>
  <line x1="442" y1="221" x2="442" y2="376" stroke="#d1d5db"/>
  <line x1="442" y1="298.5" x2="800" y2="298.5" stroke="#d1d5db"/>
  <text x="621" y="402" text-anchor="middle" font-size="9" fill="#6b7280">Samples</text>
  <text x="420" y="298.5" text-anchor="middle" font-size="9" fill="#6b7280" transform="rotate(-90 420 298.5)">Impulse</text>
  <line x1="442.0" y1="221" x2="442.0" y2="376" stroke="#e5e7eb" stroke-width="0.5"/>
  <text x="442.0" y="388" text-anchor="middle" font-size="8" fill="#6b7280">0</text>
  <line x1="609.8" y1="221" x2="609.8" y2="376" stroke="#e5e7eb" stroke-width="0.5"/>
  <text x="609.8" y="388" text-anchor="middle" font-size="8" fill="#6b7280">30</text>
  <line x1="777.6" y1="221" x2="777.6" y2="376" stroke="#e5e7eb" stroke-width="0.5"/>
  <text x="777.6" y="388" text-anchor="middle" font-size="8" fill="#6b7280">60</text>
  <line x1="442" y1="350.2" x2="800" y2="350.2" stroke="#e5e7eb" stroke-width="0.5"/>
  <text x="438" y="353.2" text-anchor="end" font-size="8" fill="#6b7280">-0.4</text>
  <text x="438" y="301.5" text-anchor="end" font-size="8" fill="#6b7280">0</text>
  <line x1="442" y1="246.8" x2="800" y2="246.8" stroke="#e5e7eb" stroke-width="0.5"/>
  <text x="438" y="249.8" text-anchor="end" font-size="8" fill="#6b7280">0.4</text>
  <polyline points="442.0,NaN 447.6,NaN 453.2,NaN 458.8,NaN 464.4,NaN 470.0,NaN 475.6,NaN 481.2,NaN 486.8,NaN 492.3,NaN 497.9,NaN 503.5,NaN 509.1,NaN 514.7,NaN 520.3,NaN 525.9,NaN 531.5,NaN 537.1,NaN 542.7,NaN 548.3,NaN 553.9,NaN 559.5,NaN 565.1,NaN 570.7,NaN 576.3,NaN 581.8,NaN 587.4,NaN 593.0,NaN 598.6,NaN 604.2,NaN 609.8,NaN 615.4,NaN 621.0,NaN 626.6,NaN 632.2,NaN 637.8,NaN 643.4,NaN 649.0,NaN 654.6,NaN 660.2,NaN 665.8,NaN 671.3,NaN 676.9,NaN 682.5,NaN 688.1,NaN 693.7,NaN 699.3,NaN 704.9,NaN 710.5,NaN 716.1,NaN 721.7,NaN 727.3,NaN 732.9,NaN 738.5,NaN 744.1,NaN 749.7,NaN 755.3,NaN 760.8,NaN 766.4,NaN 772.0,NaN 777.6,NaN 783.2,NaN 788.8,NaN 794.4,NaN" fill="none" stroke="#4a90d9" stroke-width="1.2" stroke-linejoin="round"/>
  <polyline points="442.0,NaN 447.6,NaN 453.2,NaN 458.8,NaN 464.4,NaN 470.0,NaN 475.6,NaN 481.2,NaN 486.8,NaN 492.3,NaN 497.9,NaN 503.5,NaN 509.1,NaN 514.7,NaN 520.3,NaN 525.9,NaN 531.5,NaN 537.1,NaN 542.7,NaN 548.3,NaN 553.9,NaN 559.5,NaN 565.1,NaN 570.7,NaN 576.3,NaN 581.8,NaN 587.4,NaN 593.0,NaN 598.6,NaN 604.2,NaN 609.8,NaN 615.4,NaN 621.0,NaN 626.6,NaN 632.2,NaN 637.8,NaN 643.4,NaN 649.0,NaN 654.6,NaN 660.2,NaN 665.8,NaN 671.3,NaN 676.9,NaN 682.5,NaN 688.1,NaN 693.7,NaN 699.3,NaN 704.9,NaN 710.5,NaN 716.1,NaN 721.7,NaN 727.3,NaN 732.9,NaN 738.5,NaN 744.1,NaN 749.7,NaN 755.3,NaN 760.8,NaN 766.4,NaN 772.0,NaN 777.6,NaN 783.2,NaN 788.8,NaN 794.4,NaN" fill="none" stroke="#e74c3c" stroke-width="1.2" stroke-linejoin="round"/>
  <polyline points="442.0,NaN 447.6,NaN 453.2,NaN 458.8,NaN 464.4,NaN 470.0,NaN 475.6,NaN 481.2,NaN 486.8,NaN 492.3,NaN 497.9,NaN 503.5,NaN 509.1,NaN 514.7,NaN 520.3,NaN 525.9,NaN 531.5,NaN 537.1,NaN 542.7,NaN 548.3,NaN 553.9,NaN 559.5,NaN 565.1,NaN 570.7,NaN 576.3,NaN 581.8,NaN 587.4,NaN 593.0,NaN 598.6,NaN 604.2,NaN 609.8,NaN 615.4,NaN 621.0,NaN 626.6,NaN 632.2,NaN 637.8,NaN 643.4,NaN 649.0,NaN 654.6,NaN 660.2,NaN 665.8,NaN 671.3,NaN 676.9,NaN 682.5,NaN 688.1,NaN 693.7,NaN 699.3,NaN 704.9,NaN 710.5,NaN 716.1,NaN 721.7,NaN 727.3,NaN 732.9,NaN 738.5,NaN 744.1,NaN 749.7,NaN 755.3,NaN 760.8,NaN 766.4,NaN 772.0,NaN 777.6,NaN 783.2,NaN 788.8,NaN 794.4,NaN" fill="none" stroke="#2ecc71" stroke-width="1.2" stroke-linejoin="round"/>
  <polyline points="442.0,NaN 447.6,NaN 453.2,NaN 458.8,NaN 464.4,NaN 470.0,NaN 475.6,NaN 481.2,NaN 486.8,NaN 492.3,NaN 497.9,NaN 503.5,NaN 509.1,NaN 514.7,NaN 520.3,NaN 525.9,NaN 531.5,NaN 537.1,NaN 542.7,NaN 548.3,NaN 553.9,NaN 559.5,NaN 565.1,NaN 570.7,NaN 576.3,NaN 581.8,NaN 587.4,NaN 593.0,NaN 598.6,NaN 604.2,NaN 609.8,NaN 615.4,NaN 621.0,NaN 626.6,NaN 632.2,NaN 637.8,NaN 643.4,NaN 649.0,NaN 654.6,NaN 660.2,NaN 665.8,NaN 671.3,NaN 676.9,NaN 682.5,NaN 688.1,NaN 693.7,NaN 699.3,NaN 704.9,NaN 710.5,NaN 716.1,NaN 721.7,NaN 727.3,NaN 732.9,NaN 738.5,NaN 744.1,NaN 749.7,NaN 755.3,NaN 760.8,NaN 766.4,NaN 772.0,NaN 777.6,NaN 783.2,NaN 788.8,NaN 794.4,NaN" fill="none" stroke="#f39c12" stroke-width="1.2" stroke-linejoin="round"/>
  <polyline points="442.0,NaN 447.6,NaN 453.2,NaN 458.8,NaN 464.4,NaN 470.0,NaN 475.6,NaN 481.2,NaN 486.8,NaN 492.3,NaN 497.9,NaN 503.5,NaN 509.1,NaN 514.7,NaN 520.3,NaN 525.9,NaN 531.5,NaN 537.1,NaN 542.7,NaN 548.3,NaN 553.9,NaN 559.5,NaN 565.1,NaN 570.7,NaN 576.3,NaN 581.8,NaN 587.4,NaN 593.0,NaN 598.6,NaN 604.2,NaN 609.8,NaN 615.4,NaN 621.0,NaN 626.6,NaN 632.2,NaN 637.8,NaN 643.4,NaN 649.0,NaN 654.6,NaN 660.2,NaN 665.8,NaN 671.3,NaN 676.9,NaN 682.5,NaN 688.1,NaN 693.7,NaN 699.3,NaN 704.9,NaN 710.5,NaN 716.1,NaN 721.7,NaN 727.3,NaN 732.9,NaN 738.5,NaN 744.1,NaN 749.7,NaN 755.3,NaN 760.8,NaN 766.4,NaN 772.0,NaN 777.6,NaN 783.2,NaN 788.8,NaN 794.4,NaN" fill="none" stroke="#9b59b6" stroke-width="1.2" stroke-linejoin="round"/>
  <polyline points="442.0,NaN 447.6,NaN 453.2,NaN 458.8,NaN 464.4,NaN 470.0,NaN 475.6,NaN 481.2,NaN 486.8,NaN 492.3,NaN 497.9,NaN 503.5,NaN 509.1,NaN 514.7,NaN 520.3,NaN 525.9,NaN 531.5,NaN 537.1,NaN 542.7,NaN 548.3,NaN 553.9,NaN 559.5,NaN 565.1,NaN 570.7,NaN 576.3,NaN 581.8,NaN 587.4,NaN 593.0,NaN 598.6,NaN 604.2,NaN 609.8,NaN 615.4,NaN 621.0,NaN 626.6,NaN 632.2,NaN 637.8,NaN 643.4,NaN 649.0,NaN 654.6,NaN 660.2,NaN 665.8,NaN 671.3,NaN 676.9,NaN 682.5,NaN 688.1,NaN 693.7,NaN 699.3,NaN 704.9,NaN 710.5,NaN 716.1,NaN 721.7,NaN 727.3,NaN 732.9,NaN 738.5,NaN 744.1,NaN 749.7,NaN 755.3,NaN 760.8,NaN 766.4,NaN 772.0,NaN 777.6,NaN 783.2,NaN 788.8,NaN 794.4,NaN" fill="none" stroke="#1abc9c" stroke-width="1.2" stroke-linejoin="round"/>
  <polyline points="442.0,NaN 447.6,NaN 453.2,NaN 458.8,NaN 464.4,NaN 470.0,NaN 475.6,NaN 481.2,NaN 486.8,NaN 492.3,NaN 497.9,NaN 503.5,NaN 509.1,NaN 514.7,NaN 520.3,NaN 525.9,NaN 531.5,NaN 537.1,NaN 542.7,NaN 548.3,NaN 553.9,NaN 559.5,NaN 565.1,NaN 570.7,NaN 576.3,NaN 581.8,NaN 587.4,NaN 593.0,NaN 598.6,NaN 604.2,NaN 609.8,NaN 615.4,NaN 621.0,NaN 626.6,NaN 632.2,NaN 637.8,NaN 643.4,NaN 649.0,NaN 654.6,NaN 660.2,NaN 665.8,NaN 671.3,NaN 676.9,NaN 682.5,NaN 688.1,NaN 693.7,NaN 699.3,NaN 704.9,NaN 710.5,NaN 716.1,NaN 721.7,NaN 727.3,NaN 732.9,NaN 738.5,NaN 744.1,NaN 749.7,NaN 755.3,NaN 760.8,NaN 766.4,NaN 772.0,NaN 777.6,NaN 783.2,NaN 788.8,NaN 794.4,NaN" fill="none" stroke="#e67e22" stroke-width="1.2" stroke-linejoin="round"/>
  <polyline points="442.0,NaN 447.6,NaN 453.2,NaN 458.8,NaN 464.4,NaN 470.0,NaN 475.6,NaN 481.2,NaN 486.8,NaN 492.3,NaN 497.9,NaN 503.5,NaN 509.1,NaN 514.7,NaN 520.3,NaN 525.9,NaN 531.5,NaN 537.1,NaN 542.7,NaN 548.3,NaN 553.9,NaN 559.5,NaN 565.1,NaN 570.7,NaN 576.3,NaN 581.8,NaN 587.4,NaN 593.0,NaN 598.6,NaN 604.2,NaN 609.8,NaN 615.4,NaN 621.0,NaN 626.6,NaN 632.2,NaN 637.8,NaN 643.4,NaN 649.0,NaN 654.6,NaN 660.2,NaN 665.8,NaN 671.3,NaN 676.9,NaN 682.5,NaN 688.1,NaN 693.7,NaN 699.3,NaN 704.9,NaN 710.5,NaN 716.1,NaN 721.7,NaN 727.3,NaN 732.9,NaN 738.5,NaN 744.1,NaN 749.7,NaN 755.3,NaN 760.8,NaN 766.4,NaN 772.0,NaN 777.6,NaN 783.2,NaN 788.8,NaN 794.4,NaN" fill="none" stroke="#34495e" stroke-width="1.2" stroke-linejoin="round"/>
  <line x1="42" y1="28" x2="56" y2="28" stroke="#4a90d9" stroke-width="2"/>
  <text x="60" y="31.0" font-size="8" fill="#6b7280">lowpass</text>
  <line x1="42" y1="41" x2="56" y2="41" stroke="#e74c3c" stroke-width="2"/>
  <text x="60" y="44.0" font-size="8" fill="#6b7280">highpass</text>
  <line x1="42" y1="54" x2="56" y2="54" stroke="#2ecc71" stroke-width="2"/>
  <text x="60" y="57.0" font-size="8" fill="#6b7280">bandpass</text>
  <line x1="42" y1="67" x2="56" y2="67" stroke="#f39c12" stroke-width="2"/>
  <text x="60" y="70.0" font-size="8" fill="#6b7280">notch</text>
  <line x1="42" y1="80" x2="56" y2="80" stroke="#9b59b6" stroke-width="2"/>
  <text x="60" y="83.0" font-size="8" fill="#6b7280">peaking</text>
  <line x1="42" y1="93" x2="56" y2="93" stroke="#1abc9c" stroke-width="2"/>
  <text x="60" y="96.0" font-size="8" fill="#6b7280">lowshelf</text>
  <line x1="42" y1="106" x2="56" y2="106" stroke="#e67e22" stroke-width="2"/>
  <text x="60" y="109.0" font-size="8" fill="#6b7280">highshelf</text>
  <line x1="42" y1="119" x2="56" y2="119" stroke="#34495e" stroke-width="2"/>
  <text x="60" y="122.0" font-size="8" fill="#6b7280">allpass</text>
</svg>
