<svg xmlns="http://www.w3.org/2000/svg" style="font-family:system-ui,-apple-system,sans-serif" viewBox="0 0 820 392"><defs><linearGradient id="b" x1="0" x2="0" y1="38" y2="171" gradientUnits="userSpaceOnUse"><stop offset="0%" stop-color="#3b82f6" stop-opacity=".15"/><stop offset="100%" stop-color="#3b82f6" stop-opacity=".01"/></linearGradient><linearGradient id="d" x1="0" x2="0" y1="94" y2="105" gradientUnits="userSpaceOnUse"><stop offset="0%" stop-color="#ef4444" stop-opacity=".01"/><stop offset="100%" stop-color="#ef4444" stop-opacity=".15"/></linearGradient><linearGradient id="f" x1="0" x2="0" y1="299" y2="302" gradientUnits="userSpaceOnUse"><stop offset="0%" stop-color="#22c55e" stop-opacity=".01"/><stop offset="100%" stop-color="#22c55e" stop-opacity=".15"/></linearGradient><linearGradient id="h" x1="0" x2="0" y1="232" y2="299" gradientUnits="userSpaceOnUse"><stop offset="0%" stop-color="#eab308" stop-opacity=".15"/><stop offset="100%" stop-color="#eab308" stop-opacity=".01"/></linearGradient><clipPath id="a"><path d="M34 16h358v155H34z"/></clipPath><clipPath id="c"><path d="M442 16h358v155H442z"/></clipPath><clipPath id="e"><path d="M34 221h358v155H34z"/></clipPath><clipPath id="g"><path d="M442 221h358v155H442z"/></clipPath></defs><text x="800" y="11" fill="#6b7280" font-size="11" font-weight="600" text-anchor="end">Biquad lowshelf, fc=1kHz</text><path stroke="#d1d5db" d="M34 16v155m0-124h358"/><text x="213" y="197" fill="#6b7280" font-size="9" text-anchor="middle">Hz</text><text x="12" y="93.5" fill="#6b7280" font-size="9" text-anchor="middle" transform="rotate(-90 12 93.5)">dB</text><path stroke="#e5e7eb" stroke-width=".5" d="M66.6 16v155M85.7 16v155M99.3 16v155m10.5-155v155m8.6-155v155m7.3-155v155m6.2-155v155m5.6-155v155m37.6-155v155m19.1-155v155m13.5-155v155m10.6-155v155m8.5-155v155m7.3-155v155m6.3-155v155m5.5-155v155m37.6-155v155m19.1-155v155m13.6-155v155m10.5-155v155m8.6-155v155m7.3-155v155m6.2-155v155m5.6-155v155M392 16v155M34 16v155"/><text x="34" y="183" fill="#6b7280" font-size="8" text-anchor="middle">10</text><path stroke="#e5e7eb" stroke-width=".5" d="M142.5 16v155"/><text x="142.5" y="183" fill="#6b7280" font-size="8" text-anchor="middle">100</text><path stroke="#e5e7eb" stroke-width=".5" d="M250.9 16v155"/><text x="250.9" y="183" fill="#6b7280" font-size="8" text-anchor="middle">1k</text><path stroke="#e5e7eb" stroke-width=".5" d="M359.4 16v155"/><text x="359.4" y="183" fill="#6b7280" font-size="8" text-anchor="middle">10k</text><path stroke="#e5e7eb" stroke-width=".5" d="M34 171h358M34 140h358M34 109h358M34 78h358M34 16h358M34 62.5h358m-358-31h358"/><text x="30" y="174" fill="#6b7280" font-size="8" text-anchor="end">-80</text><text x="30" y="143" fill="#6b7280" font-size="8" text-anchor="end">-60</text><text x="30" y="112" fill="#6b7280" font-size="8" text-anchor="end">-40</text><text x="30" y="81" fill="#6b7280" font-size="8" text-anchor="end">-20</text><text x="30" y="50" fill="#6b7280" font-size="8" text-anchor="end">0</text><text x="30" y="19" fill="#6b7280" font-size="8" text-anchor="end">+20</text><path stroke="#d1d5db" stroke-dasharray="4 3" d="M250.9 16v155"/><g clip-path="url(#a)"><path fill="url(#b)" d="M37.5 171V37.7h149.7l1.9.1h11.6l1.5.1h5.4l1.2.1h2.4l1.2.1h2.2l1.1.1h1.1l1 .1h1l1 .1h1l.9.1h1l.9.1h.9l.9.1.8.1h.9l.8.1.8.1.8.1h.8l.8.1.8.1.7.1.8.1.7.1.7.1h.7l.7.1.7.1.7.1.6.1.7.1.7.1.6.1.6.1.7.1.6.1.6.1.6.1.6.1.6.1.5.2.6.1.6.1.5.1.6.1.5.1.6.1.5.1.5.1.5.1.6.1.5.1.5.1.5.1h.5l.4.1.5.1.5.1.5.1.4.1.5.1.5.1.4.1h.5l.4.1.5.1.4.1h.4l.5.1.4.1.4.1h.4l.5.1.4.1h.4l.4.1.4.1h.4l.4.1h.4l.3.1.4.1h.4l.4.1h.4l.3.1h.4l.4.1h.3l.4.1h.4l.3.1h.7l.4.1h.3l.4.1h.6l.4.1h.6l.4.1h.6l.3.1h.7l.3.1h.9l.3.1h.9l.3.1h.9l.3.1h1.2l.2.1h1.4l.3.1h1.6l.3.1h1.8l.2.1h2.2l.3.1h2.9l.3.1h3.8l.2.1h5.8l.1.1h12.6l.1.1H392v124z"/><path fill="none" stroke="#3b82f6" stroke-linejoin="round" stroke-width="1.5" d="M37.5 37.7h149.7l1.9.1h11.6l1.5.1h5.4l1.2.1h2.4l1.2.1h2.2l1.1.1h1.1l1 .1h1l1 .1h1l.9.1h1l.9.1h.9l.9.1.8.1h.9l.8.1.8.1.8.1h.8l.8.1.8.1.7.1.8.1.7.1.7.1h.7l.7.1.7.1.7.1.6.1.7.1.7.1.6.1.6.1.7.1.6.1.6.1.6.1.6.1.6.1.5.2.6.1.6.1.5.1.6.1.5.1.6.1.5.1.5.1.5.1.6.1.5.1.5.1.5.1h.5l.4.1.5.1.5.1.5.1.4.1.5.1.5.1.4.1h.5l.4.1.5.1.4.1h.4l.5.1.4.1.4.1h.4l.5.1.4.1h.4l.4.1.4.1h.4l.4.1h.4l.3.1.4.1h.4l.4.1h.4l.3.1h.4l.4.1h.3l.4.1h.4l.3.1h.7l.4.1h.3l.4.1h.6l.4.1h.6l.4.1h.6l.3.1h.7l.3.1h.9l.3.1h.9l.3.1h.9l.3.1h1.2l.2.1h1.4l.3.1h1.6l.3.1h1.8l.2.1h2.2l.3.1h2.9l.3.1h3.8l.2.1h5.8l.1.1h12.6l.1.1H392"/></g><path stroke="#d1d5db" d="M442 16v155m0-77.5h358"/><text x="621" y="197" fill="#6b7280" font-size="9" text-anchor="middle">Hz</text><text x="420" y="93.5" fill="#6b7280" font-size="9" text-anchor="middle" transform="rotate(-90 420 93.5)">Phase (deg)</text><path stroke="#e5e7eb" stroke-width=".5" d="M474.6 16v155m19.1-155v155m13.6-155v155m10.5-155v155m8.6-155v155m7.3-155v155m6.2-155v155m5.6-155v155m37.6-155v155m19.1-155v155m13.5-155v155m10.6-155v155m8.5-155v155m7.3-155v155m6.3-155v155m5.5-155v155m37.6-155v155m19.1-155v155m13.6-155v155m10.5-155v155m8.6-155v155m7.3-155v155m6.2-155v155m5.6-155v155M800 16v155M442 16v155"/><text x="442" y="183" fill="#6b7280" font-size="8" text-anchor="middle">10</text><path stroke="#e5e7eb" stroke-width=".5" d="M550.5 16v155"/><text x="550.5" y="183" fill="#6b7280" font-size="8" text-anchor="middle">100</text><path stroke="#e5e7eb" stroke-width=".5" d="M658.9 16v155"/><text x="658.9" y="183" fill="#6b7280" font-size="8" text-anchor="middle">1k</text><path stroke="#e5e7eb" stroke-width=".5" d="M767.4 16v155"/><text x="767.4" y="183" fill="#6b7280" font-size="8" text-anchor="middle">10k</text><path stroke="#e5e7eb" stroke-width=".5" d="M442 54.8h358m-358 77.5h358M442 16h358"/><text x="438" y="19" fill="#6b7280" font-size="8" text-anchor="end">+180</text><text x="438" y="96.5" fill="#6b7280" font-size="8" text-anchor="end">0</text><path stroke="#e5e7eb" stroke-width=".5" d="M442 171h358"/><text x="438" y="174" fill="#6b7280" font-size="8" text-anchor="end">-180</text><path stroke="#d1d5db" stroke-dasharray="4 3" d="M658.9 16v155"/><g clip-path="url(#c)"><path fill="url(#d)" d="M445.5 93.5v.1l32.6.2 19.1.1 13.6.1 10.5.2 8.6.1 7.2.1 6.3.1 5.6.2 4.9.1 4.5.2 4.1.1 3.8.1 3.5.2 3.2.1 3.1.1 2.8.2 2.7.1 2.6.2 2.4.1 2.3.2 2.2.1 2.1.2 2 .1 1.9.2 1.8.1 1.8.2 1.7.2 1.7.1 1.6.2 1.5.1 1.5.2 1.5.2 1.4.1 1.3.2 1.4.2 1.3.2 1.2.1 1.2.2 1.2.2 1.2.2 1.1.1 1.1.2 1.1.2 1.1.2 1 .1 1 .2 1 .2 1 .2.9.1 1 .2.9.2.9.2.9.1.8.2.9.1.8.2.8.2.8.1.8.2.8.1.8.2.7.1.8.1.7.2.7.1.7.1.7.2.7.1.7.1.6.1.7.1.7.1.6.1.6.1h.7l.6.1.6.1.6.1h.6l.6.1h.5l.6.1h1.1l.6.1h1.6l.5.1h3.1l.4-.1h1.9l.5-.1h.9l.5-.1h.4l.5-.1h.8l.5-.1h.4l.4-.1h.4l.5-.1h.4l.4-.1.4-.1h.4l.4-.1h.4l.4-.1h.3l.4-.1.4-.1h.4l.4-.1.3-.1h.4l.4-.1.3-.1h.4l.4-.1h.3l.4-.1.3-.1h.4l.3-.1.4-.1h.3l.3-.1.4-.1h.3l.3-.1.4-.1h.3l.3-.1h.3l.3-.1.4-.1h.3l.3-.1h.3l.3-.1.3-.1h.3l.3-.1h.3l.3-.1.3-.1h.3l.3-.1h.3l.3-.1h.3l.3-.1h.3l.2-.1.3-.1h.3l.3-.1h.2l.3-.1h.3l.3-.1h.2l.3-.1h.3l.2-.1h.3l.3-.1h.5l.2-.1h.3l.3-.1h.2l.3-.1h.2l.3-.1h.5l.2-.1h.2l.3-.1h.5l.2-.1h.3l.2-.1h.5l.2-.1h.2l.3-.1h.4l.2-.1h.5l.2-.1h.5l.2-.1h.4l.3-.1h.4l.2-.1h.4l.2-.1h.5l.2-.1h.6l.2-.1h.4l.2-.1h.6l.2-.1h.4l.2-.1h.6l.2-.1h.6l.2-.1h.7l.2-.1h.6l.2-.1h.5l.2-.1h.7l.2-.1h.7l.2-.1h.7l.1-.1h.7l.2-.1h.8l.2-.1h.8l.2-.1h.8l.1-.1h.8l.1-.1h1l.1-.1h.9l.2-.1h.9l.1-.1h1l.1-.1h1l.2-.1h1.1l.1-.1h1.1l.1-.1h1.1l.2-.1h1.1l.1-.1h1.3l.1-.1h1.3l.1-.1h1.4l.1-.1h1.4l.1-.1h1.5l.1-.1h1.4l.2-.1h1.6l.1-.1h1.6l.1-.1h1.7l.1-.1h1.8l.1-.1h1.9l.1-.1h2.1v-.1h2.1l.1-.1h2.2v-.1h2.4l.1-.1h2.4v-.1h2.6l.1-.1h2.7l.1-.1h2.8l.1-.1h3v-.1h3.2l.1-.1h3.3v-.1h3.5v-.1h3.7v-.1h3.8V94h3.8v-.1h4v-.1h3.9v-.1h3.8v-.1h.9v-.1z"/><path fill="none" stroke="#ef4444" stroke-linejoin="round" stroke-width="1.5" d="m445.5 93.6 32.6.2 19.1.1 13.6.1 10.5.2 8.6.1 7.2.1 6.3.1 5.6.2 4.9.1 4.5.2 4.1.1 3.8.1 3.5.2 3.2.1 3.1.1 2.8.2 2.7.1 2.6.2 2.4.1 2.3.2 2.2.1 2.1.2 2 .1 1.9.2 1.8.1 1.8.2 1.7.2 1.7.1 1.6.2 1.5.1 1.5.2 1.5.2 1.4.1 1.3.2 1.4.2 1.3.2 1.2.1 1.2.2 1.2.2 1.2.2 1.1.1 1.1.2 1.1.2 1.1.2 1 .1 1 .2 1 .2 1 .2.9.1 1 .2.9.2.9.2.9.1.8.2.9.1.8.2.8.2.8.1.8.2.8.1.8.2.7.1.8.1.7.2.7.1.7.1.7.2.7.1.7.1.6.1.7.1.7.1.6.1.6.1h.7l.6.1.6.1.6.1h.6l.6.1h.5l.6.1h1.1l.6.1h1.6l.5.1h3.1l.4-.1h1.9l.5-.1h.9l.5-.1h.4l.5-.1h.8l.5-.1h.4l.4-.1h.4l.5-.1h.4l.4-.1.4-.1h.4l.4-.1h.4l.4-.1h.3l.4-.1.4-.1h.4l.4-.1.3-.1h.4l.4-.1.3-.1h.4l.4-.1h.3l.4-.1.3-.1h.4l.3-.1.4-.1h.3l.3-.1.4-.1h.3l.3-.1.4-.1h.3l.3-.1h.3l.3-.1.4-.1h.3l.3-.1h.3l.3-.1.3-.1h.3l.3-.1h.3l.3-.1.3-.1h.3l.3-.1h.3l.3-.1h.3l.3-.1h.3l.2-.1.3-.1h.3l.3-.1h.2l.3-.1h.3l.3-.1h.2l.3-.1h.3l.2-.1h.3l.3-.1h.5l.2-.1h.3l.3-.1h.2l.3-.1h.2l.3-.1h.5l.2-.1h.2l.3-.1h.5l.2-.1h.3l.2-.1h.5l.2-.1h.2l.3-.1h.4l.2-.1h.5l.2-.1h.5l.2-.1h.4l.3-.1h.4l.2-.1h.4l.2-.1h.5l.2-.1h.6l.2-.1h.4l.2-.1h.6l.2-.1h.4l.2-.1h.6l.2-.1h.6l.2-.1h.7l.2-.1h.6l.2-.1h.5l.2-.1h.7l.2-.1h.7l.2-.1h.7l.1-.1h.7l.2-.1h.8l.2-.1h.8l.2-.1h.8l.1-.1h.8l.1-.1h1l.1-.1h.9l.2-.1h.9l.1-.1h1l.1-.1h1l.2-.1h1.1l.1-.1h1.1l.1-.1h1.1l.2-.1h1.1l.1-.1h1.3l.1-.1h1.3l.1-.1h1.4l.1-.1h1.4l.1-.1h1.5l.1-.1h1.4l.2-.1h1.6l.1-.1h1.6l.1-.1h1.7l.1-.1h1.8l.1-.1h1.9l.1-.1h2.1v-.1h2.1l.1-.1h2.2v-.1h2.4l.1-.1h2.4v-.1h2.6l.1-.1h2.7l.1-.1h2.8l.1-.1h3v-.1h3.2l.1-.1h3.3v-.1h3.5v-.1h3.7v-.1h3.8V94h3.8v-.1h4v-.1h3.9v-.1h3.8v-.1h.9"/></g><path stroke="#d1d5db" d="M34 221v155m0-77.5h358"/><text x="213" y="402" fill="#6b7280" font-size="9" text-anchor="middle">Hz</text><text x="12" y="298.5" fill="#6b7280" font-size="9" text-anchor="middle" transform="rotate(-90 12 298.5)">Delay (smp)</text><path stroke="#e5e7eb" stroke-width=".5" d="M66.6 221v155m19.1-155v155m13.6-155v155m10.5-155v155m8.6-155v155m7.3-155v155m6.2-155v155m5.6-155v155m37.6-155v155m19.1-155v155m13.5-155v155m10.6-155v155m8.5-155v155m7.3-155v155m6.3-155v155m5.5-155v155m37.6-155v155m19.1-155v155m13.6-155v155m10.5-155v155m8.6-155v155m7.3-155v155m6.2-155v155m5.6-155v155M392 221v155M34 221v155"/><text x="34" y="388" fill="#6b7280" font-size="8" text-anchor="middle">10</text><path stroke="#e5e7eb" stroke-width=".5" d="M142.5 221v155"/><text x="142.5" y="388" fill="#6b7280" font-size="8" text-anchor="middle">100</text><path stroke="#e5e7eb" stroke-width=".5" d="M250.9 221v155"/><text x="250.9" y="388" fill="#6b7280" font-size="8" text-anchor="middle">1k</text><path stroke="#e5e7eb" stroke-width=".5" d="M359.4 221v155"/><text x="359.4" y="388" fill="#6b7280" font-size="8" text-anchor="middle">10k</text><path stroke="#e5e7eb" stroke-width=".5" d="M34 376h358"/><text x="30" y="379" fill="#6b7280" font-size="8" text-anchor="end">-100</text><path stroke="#e5e7eb" stroke-width=".5" d="M34 337.3h358"/><text x="30" y="340.3" fill="#6b7280" font-size="8" text-anchor="end">-50</text><text x="30" y="301.5" fill="#6b7280" font-size="8" text-anchor="end">0</text><path stroke="#e5e7eb" stroke-width=".5" d="M34 259.8h358"/><text x="30" y="262.8" fill="#6b7280" font-size="8" text-anchor="end">50</text><path stroke="#e5e7eb" stroke-width=".5" d="M34 221h358"/><text x="30" y="224" fill="#6b7280" font-size="8" text-anchor="end">100</text><path stroke="#d1d5db" stroke-dasharray="4 3" d="M250.9 221v155"/><g clip-path="url(#e)"><path fill="url(#f)" d="M37.5 298.5h120.8l3.5.1h14.4l2.4.1h6.6l2 .1h3.7l1.8.1h1.7l1.7.1h1.6l1.5.1h1.5l1.5.1 1.4.1h1.3l1.4.1 1.3.1h1.2l1.2.1 1.2.1 1.2.1 1.1.1h1.1l1.1.1 1.1.1 1 .1 1 .1 1 .1 1 .1.9.1 1 .1.9.1.9.1.9.1h.8l.9.1.8.1.8.1.8.1.8.1.8.1h.8l.7.1.8.1.7.1h.7l.7.1h.7l.7.1h.7l.6.1h.7l.7.1h1.9l.6.1h4.6l.6-.1h1.6l.5-.1h1.1l.5-.1h.5l.5-.1h.5l.4-.1h1l.5-.1h.4l.5-.1.5-.1h.4l.5-.1h.4l.5-.1h.4l.4-.1h.5l.4-.1h.4l.4-.1h.5l.4-.1.4-.1h.4l.4-.1h.4l.4-.1h.4l.3-.1h.4l.4-.1h.4l.4-.1h.7l.4-.1h.3l.4-.1h.4l.3-.1h.7l.4-.1h.3l.4-.1h.6l.4-.1h.6l.4-.1h.9l.3-.1h.7l.3-.1h.9l.3-.1h.9l.3-.1h1.2l.3-.1h1.4l.3-.1h1.6l.3-.1h1.8l.3-.1h2.4l.3-.1h3l.2-.1h4.9l.2-.1h10.5l.1-.1h87z"/><path fill="none" stroke="#22c55e" stroke-linejoin="round" stroke-width="1.5" d="M37.5 298.5h120.8l3.5.1h14.4l2.4.1h6.6l2 .1h3.7l1.8.1h1.7l1.7.1h1.6l1.5.1h1.5l1.5.1 1.4.1h1.3l1.4.1 1.3.1h1.2l1.2.1 1.2.1 1.2.1 1.1.1h1.1l1.1.1 1.1.1 1 .1 1 .1 1 .1 1 .1.9.1 1 .1.9.1.9.1.9.1h.8l.9.1.8.1.8.1.8.1.8.1.8.1h.8l.7.1.8.1.7.1h.7l.7.1h.7l.7.1h.7l.6.1h.7l.7.1h1.9l.6.1h4.6l.6-.1h1.6l.5-.1h1.1l.5-.1h.5l.5-.1h.5l.4-.1h1l.5-.1h.4l.5-.1.5-.1h.4l.5-.1h.4l.5-.1h.4l.4-.1h.5l.4-.1h.4l.4-.1h.5l.4-.1.4-.1h.4l.4-.1h.4l.4-.1h.4l.3-.1h.4l.4-.1h.4l.4-.1h.7l.4-.1h.3l.4-.1h.4l.3-.1h.7l.4-.1h.3l.4-.1h.6l.4-.1h.6l.4-.1h.9l.3-.1h.7l.3-.1h.9l.3-.1h.9l.3-.1h1.2l.3-.1h1.4l.3-.1h1.6l.3-.1h1.8l.3-.1h2.4l.3-.1h3l.2-.1h4.9l.2-.1h10.5l.1-.1h87"/></g><path stroke="#d1d5db" d="M442 221v155m0-77.5h358"/><text x="621" y="402" fill="#6b7280" font-size="9" text-anchor="middle">Samples</text><text x="420" y="298.5" fill="#6b7280" font-size="9" text-anchor="middle" transform="rotate(-90 420 298.5)">Impulse</text><path stroke="#e5e7eb" stroke-width=".5" d="M442 221v155"/><text x="442" y="388" fill="#6b7280" font-size="8" text-anchor="middle">0</text><path stroke="#e5e7eb" stroke-width=".5" d="M531.5 221v155"/><text x="531.5" y="388" fill="#6b7280" font-size="8" text-anchor="middle">32</text><path stroke="#e5e7eb" stroke-width=".5" d="M621 221v155"/><text x="621" y="388" fill="#6b7280" font-size="8" text-anchor="middle">64</text><path stroke="#e5e7eb" stroke-width=".5" d="M710.5 221v155"/><text x="710.5" y="388" fill="#6b7280" font-size="8" text-anchor="middle">96</text><path stroke="#e5e7eb" stroke-width=".5" d="M800 221v155"/><text x="800" y="388" fill="#6b7280" font-size="8" text-anchor="middle">128</text><path stroke="#e5e7eb" stroke-width=".5" d="M442 363.1h358"/><text x="438" y="366.1" fill="#6b7280" font-size="8" text-anchor="end">-1</text><text x="438" y="301.5" fill="#6b7280" font-size="8" text-anchor="end">0</text><path stroke="#e5e7eb" stroke-width=".5" d="M442 233.9h358"/><text x="438" y="236.9" fill="#6b7280" font-size="8" text-anchor="end">1</text><path stroke="#e5e7eb" stroke-dasharray="3 2" stroke-width=".5" d="M442 233.9h358"/><text x="438" y="236.9" fill="#6b7280" font-size="7" text-anchor="end">+1</text><path stroke="#e5e7eb" stroke-dasharray="3 2" stroke-width=".5" d="M442 363.1h358"/><text x="438" y="366.1" fill="#6b7280" font-size="7" text-anchor="end">-1</text><g clip-path="url(#g)"><path fill="url(#h)" d="M442 298.5v-66.9l2.8 62.3 2.8-.1 2.8.1 2.8.1 2.8.1 2.8.2 2.8.2 2.8.2 2.8.2 2.8.3 2.8.2 2.8.3 2.8.2 2.8.3 2.8.2 2.8.2 2.7.3 2.8.2 2.8.2 2.8.1 2.8.2 2.8.2 2.8.1 2.8.1 2.8.1 2.8.1 2.8.1 2.8.1 2.8.1h274.1z"/><path fill="none" stroke="#eab308" stroke-linejoin="round" stroke-width="1.2" d="m442 231.6 2.8 62.3 2.8-.1 2.8.1 2.8.1 2.8.1 2.8.2 2.8.2 2.8.2 2.8.2 2.8.3 2.8.2 2.8.3 2.8.2 2.8.3 2.8.2 2.8.2 2.7.3 2.8.2 2.8.2 2.8.1 2.8.2 2.8.2 2.8.1 2.8.1 2.8.1 2.8.1 2.8.1 2.8.1 2.8.1h2.8l2.8.1h5.6l2.8.1h33.6l2.8-.1h25.1l2.8-.1h195.8"/></g></svg>