<svg xmlns="http://www.w3.org/2000/svg" style="font-family:system-ui,-apple-system,sans-serif" viewBox="0 0 820 392"><defs><linearGradient id="b" x1="0" x2="0" y1="47" y2="171" gradientUnits="userSpaceOnUse"><stop offset="0%" stop-color="#3b82f6" stop-opacity=".15"/><stop offset="100%" stop-color="#3b82f6" stop-opacity=".01"/></linearGradient><linearGradient id="d" x1="0" x2="0" y1="94" y2="171" gradientUnits="userSpaceOnUse"><stop offset="0%" stop-color="#ef4444" stop-opacity=".01"/><stop offset="100%" stop-color="#ef4444" stop-opacity=".15"/></linearGradient><linearGradient id="f" x1="0" x2="0" y1="299" y2="314" gradientUnits="userSpaceOnUse"><stop offset="0%" stop-color="#22c55e" stop-opacity=".01"/><stop offset="100%" stop-color="#22c55e" stop-opacity=".15"/></linearGradient><linearGradient id="h" x1="0" x2="0" y1="295" y2="299" gradientUnits="userSpaceOnUse"><stop offset="0%" stop-color="#eab308" stop-opacity=".15"/><stop offset="100%" stop-color="#eab308" stop-opacity=".01"/></linearGradient><clipPath id="a"><path d="M34 16h358v155H34z"/></clipPath><clipPath id="c"><path d="M442 16h358v155H442z"/></clipPath><clipPath id="e"><path d="M34 221h358v155H34z"/></clipPath><clipPath id="g"><path d="M442 221h358v155H442z"/></clipPath></defs><text x="800" y="11" fill="#6b7280" font-size="11" font-weight="600" text-anchor="end">Butterworth order 4, fc=1kHz</text><path stroke="#d1d5db" d="M34 16v155m0-124h358"/><text x="213" y="197" fill="#6b7280" font-size="9" text-anchor="middle">Hz</text><text x="12" y="93.5" fill="#6b7280" font-size="9" text-anchor="middle" transform="rotate(-90 12 93.5)">dB</text><path stroke="#e5e7eb" stroke-width=".5" d="M66.6 16v155M85.7 16v155M99.3 16v155m10.5-155v155m8.6-155v155m7.3-155v155m6.2-155v155m5.6-155v155m37.6-155v155m19.1-155v155m13.5-155v155m10.6-155v155m8.5-155v155m7.3-155v155m6.3-155v155m5.5-155v155m37.6-155v155m19.1-155v155m13.6-155v155m10.5-155v155m8.6-155v155m7.3-155v155m6.2-155v155m5.6-155v155M392 16v155M34 16v155"/><text x="34" y="183" fill="#6b7280" font-size="8" text-anchor="middle">10</text><path stroke="#e5e7eb" stroke-width=".5" d="M142.5 16v155"/><text x="142.5" y="183" fill="#6b7280" font-size="8" text-anchor="middle">100</text><path stroke="#e5e7eb" stroke-width=".5" d="M250.9 16v155"/><text x="250.9" y="183" fill="#6b7280" font-size="8" text-anchor="middle">1k</text><path stroke="#e5e7eb" stroke-width=".5" d="M359.4 16v155"/><text x="359.4" y="183" fill="#6b7280" font-size="8" text-anchor="middle">10k</text><path stroke="#e5e7eb" stroke-width=".5" d="M34 171h358M34 140h358M34 109h358M34 78h358M34 16h358M34 62.5h358m-358-31h358"/><text x="30" y="174" fill="#6b7280" font-size="8" text-anchor="end">-80</text><text x="30" y="143" fill="#6b7280" font-size="8" text-anchor="end">-60</text><text x="30" y="112" fill="#6b7280" font-size="8" text-anchor="end">-40</text><text x="30" y="81" fill="#6b7280" font-size="8" text-anchor="end">-20</text><text x="30" y="50" fill="#6b7280" font-size="8" text-anchor="end">0</text><text x="30" y="19" fill="#6b7280" font-size="8" text-anchor="end">+20</text><path stroke="#d1d5db" stroke-dasharray="4 3" d="M250.9 16v155"/><g clip-path="url(#a)"><path fill="url(#b)" d="M37.5 171V47h184.2l1 .1h5.2l.8.1h2.4l.8.1h1.5l.7.1h.7l.7.1h.7l.7.1.7.1h.6l.7.1.7.1.6.1.6.1.7.1.6.2.6.1.6.1.6.2.6.1.5.2.6.2.6.2.5.2.6.2.5.2.6.3.5.2.5.3.5.2.6.3.5.3.5.3.5.3.5.3.4.3.5.4.5.3.5.4.4.3.5.4.5.3.4.4.5.4.4.3.5.4.4.4.4.4.5.4.4.4.4.4.4.4.5.4.4.4.4.4.4.4.4.4.4.4.4.4.4.4.3.4.4.4.4.4.4.4.4.4.3.4.4.3.4.4.3.4.4.4.4.4.3.4.4.4.3.4.4.3.3.4.4.4.3.4.3.4.4.3.3.4.3.4.4.3.3.4.3.4.3.3.3.4.4.3.3.4.3.4.3.3.3.4.3.3.3.4.3.3.3.3.3.4.3.3.3.4.3.3.3.3.3.4.3.3.3.3.3.3.2.4.3.3.3.3.3.3.2.3.3.4.3.3.3.3.2.3.3.3.3.3.2.3.3.3.3.3.2.3.3.3.2.3.3.3.3.3.2.3.3.3.2.3.3.3.2.3.3.2.2.3.2.3.3.3.2.3.3.3.2.2.3.3.2.3.2.3.3.2.2.3.2.3.3.2.2.3.2.3.2.2.3.3.2.3.2.2.2.3.3.2.2.3.2.3.2.2.3.3.2.2.2.3.2.2.2.3.2.2.2.3.3.2.2.3.2.2.2.2.2.3.2.2.2.3.2.2.2.2.2.3.2.2.2.3.2.2.2.2.2.3.2.2.2.2.2.2.2.3.2.2.2.2.2.3.2.2.2.2.2.2.2.3.1.2.2.2.2.2.2.2.2.3.2.2.2.2.2.2.1.2.2.2.2.3.2.2.2.2.1.2.2.2.2.2.2.2.2.2.1.2.2.2.2.2.2.3.1.2.2.2.2.2.2.2.1.2.2.2.2.2.1.2.2.2.2.2.1.2.2.2.2.2.1.2.2.2.2.2.1.1.2.2.2.2.1.2.2.2.2.2.1.2.2.2.1.2.2.2.2.2.1.1.2.2.1.2.2.2.1.2.2.2.1.2.2.1.2.2.1.2.2.2.1.2.2.1.1.2.2.2.1.2.2.2.1.1.2.2.1.2.2.2.1.1.2.2.1.2.2.2.1.1.2.2.1.2.1.2.2.1.1.2.2.2.1.1.2.2.1.2.1.2.2.1.1.2.2.2.1.1.1.2.2.2.1.1.2.2.1.2.1.1.2.2.1.2.1.1.2.2.1.1.2.2.1.2.1.1.2.2.1.1.1.2.2.2.1.1.1.2.2.1.1.2.1.2.1.1.2.2.1.1.1.2.2.1.1.2.1.2.1.1.2.2.1.1.1.2.2.1.1.2.1.1.1.2.2.1.1.2.1.1.1.2.2.1.1.2.1.1.1.2.2.1.1.2.1.1.1.2.1.1.2.2.1.1.1.2.1.1.1.2.2.1.1.1.1.2.1.1.1.2.2.1.1.2.1.1.1.2.1.1.1.1.2.2.1.1.1.2.1.1.1.1.1.2.2.1.1.2.1.1.1.1.1.2.1.1.1.2.1.1.2.1.1.2.1.1.1.2.1.1.1.1.1.2.1.1.2.1.1.2.1.1.1.1.1.2.1.1.1.1.1.2.1.1.1.1.1.2.1.1.2.1.1.2.1.1.1.1.1.2.1.1.1.1.1.2.1.1.1.1.1.2.1.1.1.1.1.1.1.2.1.1.1.1.1.2.1.1.2.1.1.1.1.2.1.1.1.1.1.2.1.1.1.1.1.1.1.2.1.1.1.1.1.1.1.2.1.1.1.1.1.1.1.2.1.1.1.1.1.1.1.2.1.1.1.1.1.1.1.1.1.2.1.1v.1l.1.1.1.2.1.1.1.1.1.1.1.1.1.2.1.1.1.1.1.1.1.1.1.2.1.1.1.1.1.1.1.1.1.1.1.2.1.1v.1l.1.1.1.1.1.2.1.1.1.1.1.1.1.1.1.1.1.2.1.1.1.1.1.1v.1l.1.1.1.2.1.1.1.1.1.1.1.1.1.1.1.1.1.2v.1l.1.1.1.1.1.1.1.1.1.1.1.1.1.2v.1l.1.1.1.1.1.1.1.1.1.1.1.1.1.2v.1l.1.1.1.1.1.1.1.1.1.1.1.1v.1l.1.2.1.1.1.1.1.1.1.1.1.1v.1l.1.1.1.1.1.1.1.2.1.1v.1l.1.1.1.1.1.1.1.1.1.1v.1l.1.1.1.1.1.1.1.1v.2l.1.1.1.1.1.1.1.1.1.1v.1l.1.1.1.1.1.1.1.1v.1l.1.1.1.1.1.1.1.1v.1l.1.1.1.2.1.1.1.1v.1l.1.1.1.1.1.1.1.1v.1l.1.1.1.1.1.1v.1l.1.1.1.1.1.1.1.1v.1l.1.1.1.1.1.1v.1l.1.1.1.1.1.1v.1l.1.1.1.1.1.1v.1l.1.1.1.1.1.1v.1l.1.1.1.1.1.1v.1l.1.1.1.1.1.1v.1l.1.1.1.1.1.1v.1l.1.1.1.1.1.1v.1l.1.1.1.1.1.1v.1l.1.1.1.1v.1l.1.1.1.1.1.1v.1l.1.1.1.1v.1l.1.1.1.1.1.1v.1l.1.1.1.1v.1l.1.1.1.1.1.1v.1l.1.1.1.1v.1l.1.1.1.1v.1l.1.1.1.1h.1v.1l.1.1.1.1v.1l.1.1.1.1v.1l.1.1.1.1v.1l.1.1.1.1.1.1v.1l.1.1.1.1v.1l.1.1.1.1.1.1.1.1v.1l.1.1.1.1v.1l.1.1.1.1v.1l.1.1.1.1v.1l.1.1.1.1v.1h.1l.1.1v.1l.1.1.1.1v.1l.1.1.1.1v.1l.1.1.1.1v.1l.1.1.1.1.1.1v.1l.1.1.1.1v.1l.1.1.1.1v.1l.1.1.1.1.1.1.1.1v.1l.1.1v.1l.1.1.1.1v.1l.1.1.1.1.1.1v.1l.1.1.1.1v.1l.1.1.1.1v.1l.1.1v.1h.1l.1.1v.1l.1.1.1.1v.1l.1.1v.1l.1.1h.1v.1l.1.1v.1l.1.1.1.1v.1l.1.1v.1l.1.1h.1v.1l.1.1.1.1v.1l.1.1v.1l.1.1h.1v.1l.1.1v.1l.1.1v.1l.1.1.1.1v.1h.1v.1l.1.1.1.1v.1l.1.1v.1l.1.1h.1v.1l.1.1v.1l.1.1H392z"/><path fill="none" stroke="#3b82f6" stroke-linejoin="round" stroke-width="1.5" d="M37.5 47h184.2l1 .1h5.2l.8.1h2.4l.8.1h1.5l.7.1h.7l.7.1h.7l.7.1.7.1h.6l.7.1.7.1.6.1.6.1.7.1.6.2.6.1.6.1.6.2.6.1.5.2.6.2.6.2.5.2.6.2.5.2.6.3.5.2.5.3.5.2.6.3.5.3.5.3.5.3.5.3.4.3.5.4.5.3.5.4.4.3.5.4.5.3.4.4.5.4.4.3.5.4.4.4.4.4.5.4.4.4.4.4.4.4.5.4.4.4.4.4.4.4.4.4.4.4.4.4.4.4.3.4.4.4.4.4.4.4.4.4.3.4.4.3.4.4.3.4.4.4.4.4.3.4.4.4.3.4.4.3.3.4.4.4.3.4.3.4.4.3.3.4.3.4.4.3.3.4.3.4.3.3.3.4.4.3.3.4.3.4.3.3.3.4.3.3.3.4.3.3.3.3.3.4.3.3.3.4.3.3.3.3.3.4.3.3.3.3.3.3.2.4.3.3.3.3.3.3.2.3.3.4.3.3.3.3.2.3.3.3.3.3.2.3.3.3.3.3.2.3.3.3.2.3.3.3.3.3.2.3.3.3.2.3.3.3.2.3.3.2.2.3.2.3.3.3.2.3.3.3.2.2.3.3.2.3.2.3.3.2.2.3.2.3.3.2.2.3.2.3.2.2.3.3.2.3.2.2.2.3.3.2.2.3.2.3.2.2.3.3.2.2.2.3.2.2.2.3.2.2.2.3.3.2.2.3.2.2.2.2.2.3.2.2.2.3.2.2.2.2.2.3.2.2.2.3.2.2.2.2.2.3.2.2.2.2.2.2.2.3.2.2.2.2.2.3.2.2.2.2.2.2.2.3.1.2.2.2.2.2.2.2.2.3.2.2.2.2.2.2.1.2.2.2.2.3.2.2.2.2.1.2.2.2.2.2.2.2.2.2.1.2.2.2.2.2.2.3.1.2.2.2.2.2.2.2.1.2.2.2.2.2.1.2.2.2.2.2.1.2.2.2.2.2.1.2.2.2.2.2.1.1.2.2.2.2.1.2.2.2.2.2.1.2.2.2.1.2.2.2.2.2.1.1.2.2.1.2.2.2.1.2.2.2.1.2.2.1.2.2.1.2.2.2.1.2.2.1.1.2.2.2.1.2.2.2.1.1.2.2.1.2.2.2.1.1.2.2.1.2.2.2.1.1.2.2.1.2.1.2.2.1.1.2.2.2.1.1.2.2.1.2.1.2.2.1.1.2.2.2.1.1.1.2.2.2.1.1.2.2.1.2.1.1.2.2.1.2.1.1.2.2.1.1.2.2.1.2.1.1.2.2.1.1.1.2.2.2.1.1.1.2.2.1.1.2.1.2.1.1.2.2.1.1.1.2.2.1.1.2.1.2.1.1.2.2.1.1.1.2.2.1.1.2.1.1.1.2.2.1.1.2.1.1.1.2.2.1.1.2.1.1.1.2.2.1.1.2.1.1.1.2.1.1.2.2.1.1.1.2.1.1.1.2.2.1.1.1.1.2.1.1.1.2.2.1.1.2.1.1.1.2.1.1.1.1.2.2.1.1.1.2.1.1.1.1.1.2.2.1.1.2.1.1.1.1.1.2.1.1.1.2.1.1.2.1.1.2.1.1.1.2.1.1.1.1.1.2.1.1.2.1.1.2.1.1.1.1.1.2.1.1.1.1.1.2.1.1.1.1.1.2.1.1.2.1.1.2.1.1.1.1.1.2.1.1.1.1.1.2.1.1.1.1.1.2.1.1.1.1.1.1.1.2.1.1.1.1.1.2.1.1.2.1.1.1.1.2.1.1.1.1.1.2.1.1.1.1.1.1.1.2.1.1.1.1.1.1.1.2.1.1.1.1.1.1.1.2.1.1.1.1.1.1.1.2.1.1.1.1.1.1.1.1.1.2.1.1v.1l.1.1.1.2.1.1.1.1.1.1.1.1.1.2.1.1.1.1.1.1.1.1.1.2.1.1.1.1.1.1.1.1.1.1.1.2.1.1v.1l.1.1.1.1.1.2.1.1.1.1.1.1.1.1.1.1.1.2.1.1.1.1.1.1v.1l.1.1.1.2.1.1.1.1.1.1.1.1.1.1.1.1.1.2v.1l.1.1.1.1.1.1.1.1.1.1.1.1.1.2v.1l.1.1.1.1.1.1.1.1.1.1.1.1.1.2v.1l.1.1.1.1.1.1.1.1.1.1.1.1v.1l.1.2.1.1.1.1.1.1.1.1.1.1v.1l.1.1.1.1.1.1.1.2.1.1v.1l.1.1.1.1.1.1.1.1.1.1v.1l.1.1.1.1.1.1.1.1v.2l.1.1.1.1.1.1.1.1.1.1v.1l.1.1.1.1.1.1.1.1v.1l.1.1.1.1.1.1.1.1v.1l.1.1.1.2.1.1.1.1v.1l.1.1.1.1.1.1.1.1v.1l.1.1.1.1.1.1v.1l.1.1.1.1.1.1.1.1v.1l.1.1.1.1.1.1v.1l.1.1.1.1.1.1v.1l.1.1.1.1.1.1v.1l.1.1.1.1.1.1v.1l.1.1.1.1.1.1v.1l.1.1.1.1.1.1v.1l.1.1.1.1.1.1v.1l.1.1.1.1.1.1v.1l.1.1.1.1.1.1v.1l.1.1.1.1v.1l.1.1.1.1.1.1v.1l.1.1.1.1v.1l.1.1.1.1.1.1v.1l.1.1.1.1v.1l.1.1.1.1.1.1v.1l.1.1.1.1v.1l.1.1.1.1v.1l.1.1.1.1h.1v.1l.1.1.1.1v.1l.1.1.1.1v.1l.1.1.1.1v.1l.1.1.1.1.1.1v.1l.1.1.1.1v.1l.1.1.1.1.1.1.1.1v.1l.1.1.1.1v.1l.1.1.1.1v.1l.1.1.1.1v.1l.1.1.1.1v.1h.1l.1.1v.1l.1.1.1.1v.1l.1.1.1.1v.1l.1.1.1.1v.1l.1.1.1.1.1.1v.1l.1.1.1.1v.1l.1.1.1.1v.1l.1.1.1.1.1.1.1.1v.1l.1.1v.1l.1.1.1.1v.1l.1.1.1.1.1.1v.1l.1.1.1.1v.1l.1.1.1.1v.1l.1.1v.1h.1l.1.1v.1l.1.1.1.1v.1l.1.1v.1l.1.1h.1v.1l.1.1v.1l.1.1.1.1v.1l.1.1v.1l.1.1h.1v.1l.1.1.1.1v.1l.1.1v.1l.1.1h.1v.1l.1.1v.1l.1.1v.1l.1.1.1.1v.1h.1v.1l.1.1.1.1v.1l.1.1v.1l.1.1h.1v.1l.1.1v.1l.1.1"/></g><path stroke="#d1d5db" d="M442 16v155m0-77.5h358"/><text x="621" y="197" fill="#6b7280" font-size="9" text-anchor="middle">Hz</text><text x="420" y="93.5" fill="#6b7280" font-size="9" text-anchor="middle" transform="rotate(-90 420 93.5)">Phase (deg)</text><path stroke="#e5e7eb" stroke-width=".5" d="M474.6 16v155m19.1-155v155m13.6-155v155m10.5-155v155m8.6-155v155m7.3-155v155m6.2-155v155m5.6-155v155m37.6-155v155m19.1-155v155m13.5-155v155m10.6-155v155m8.5-155v155m7.3-155v155m6.3-155v155m5.5-155v155m37.6-155v155m19.1-155v155m13.6-155v155m10.5-155v155m8.6-155v155m7.3-155v155m6.2-155v155m5.6-155v155M800 16v155M442 16v155"/><text x="442" y="183" fill="#6b7280" font-size="8" text-anchor="middle">10</text><path stroke="#e5e7eb" stroke-width=".5" d="M550.5 16v155"/><text x="550.5" y="183" fill="#6b7280" font-size="8" text-anchor="middle">100</text><path stroke="#e5e7eb" stroke-width=".5" d="M658.9 16v155"/><text x="658.9" y="183" fill="#6b7280" font-size="8" text-anchor="middle">1k</text><path stroke="#e5e7eb" stroke-width=".5" d="M767.4 16v155"/><text x="767.4" y="183" fill="#6b7280" font-size="8" text-anchor="middle">10k</text><path stroke="#e5e7eb" stroke-width=".5" d="M442 54.8h358m-358 77.5h358M442 16h358"/><text x="438" y="19" fill="#6b7280" font-size="8" text-anchor="end">+180</text><text x="438" y="96.5" fill="#6b7280" font-size="8" text-anchor="end">0</text><path stroke="#e5e7eb" stroke-width=".5" d="M442 171h358"/><text x="438" y="174" fill="#6b7280" font-size="8" text-anchor="end">-180</text><path stroke="#d1d5db" stroke-dasharray="4 3" d="M658.9 16v155"/><g clip-path="url(#c)"><path fill="url(#d)" d="M445.5 93.5v.7l32.6.7 19.1.7 13.6.7 10.5.7 8.6.7 7.2.7 6.3.6 5.6.7 4.9.7 4.5.7 4.1.7 3.8.7 3.5.7 3.2.7 3.1.7 2.8.7 2.7.7 2.6.7 2.4.7 2.3.8 2.2.7 2.1.7 2 .7 1.9.7 1.8.7 1.8.7 1.7.8 1.7.7 1.6.7 1.5.7 1.5.8 1.5.7 1.4.7 1.3.8 1.4.7 1.3.8 1.2.7 1.2.8 1.2.7 1.2.8 1.1.8 1.1.7 1.1.8 1.1.8 1 .8 1 .8 1 .8 1 .8.9.8 1 .8.9.8.9.8.9.9.8.8.9.9.8.8.8.9.8.9.8.9.8.8.8.9.7 1 .8.9.7.9.7.9.7 1 .7.9.7 1 .7 1 .6 1 .7.9.7 1 .6 1 .6 1.1.7 1 .6 1 .6 1 .6 1.1.6 1 .6 1 .5 1.1.6 1 .6 1.1.5 1 .6 1 .5 1.1.6 1 .5 1 .5 1 .5 1 .6 1 .5.9h141V93.5z"/><path fill="none" stroke="#ef4444" stroke-linejoin="round" stroke-width="1.5" d="m445.5 94.2 32.6.7 19.1.7 13.6.7 10.5.7 8.6.7 7.2.7 6.3.6 5.6.7 4.9.7 4.5.7 4.1.7 3.8.7 3.5.7 3.2.7 3.1.7 2.8.7 2.7.7 2.6.7 2.4.7 2.3.8 2.2.7 2.1.7 2 .7 1.9.7 1.8.7 1.8.7 1.7.8 1.7.7 1.6.7 1.5.7 1.5.8 1.5.7 1.4.7 1.3.8 1.4.7 1.3.8 1.2.7 1.2.8 1.2.7 1.2.8 1.1.8 1.1.7 1.1.8 1.1.8 1 .8 1 .8 1 .8 1 .8.9.8 1 .8.9.8.9.8.9.9.8.8.9.9.8.8.8.9.8.9.8.9.8.8.8.9.7 1 .8.9.7.9.7.9.7 1 .7.9.7 1 .7 1 .6 1 .7.9.7 1 .6 1 .6 1.1.7 1 .6 1 .6 1 .6 1.1.6 1 .6 1 .5 1.1.6 1 .6 1.1.5 1 .6 1 .5 1.1.6 1 .5 1 .5 1 .5 1 .6 1 .5.9"/></g><path stroke="#d1d5db" d="M34 221v155m0-77.5h358"/><text x="213" y="402" fill="#6b7280" font-size="9" text-anchor="middle">Hz</text><text x="12" y="298.5" fill="#6b7280" font-size="9" text-anchor="middle" transform="rotate(-90 12 298.5)">Delay (smp)</text><path stroke="#e5e7eb" stroke-width=".5" d="M66.6 221v155m19.1-155v155m13.6-155v155m10.5-155v155m8.6-155v155m7.3-155v155m6.2-155v155m5.6-155v155m37.6-155v155m19.1-155v155m13.5-155v155m10.6-155v155m8.5-155v155m7.3-155v155m6.3-155v155m5.5-155v155m37.6-155v155m19.1-155v155m13.6-155v155m10.5-155v155m8.6-155v155m7.3-155v155m6.2-155v155m5.6-155v155M392 221v155M34 221v155"/><text x="34" y="388" fill="#6b7280" font-size="8" text-anchor="middle">10</text><path stroke="#e5e7eb" stroke-width=".5" d="M142.5 221v155"/><text x="142.5" y="388" fill="#6b7280" font-size="8" text-anchor="middle">100</text><path stroke="#e5e7eb" stroke-width=".5" d="M250.9 221v155"/><text x="250.9" y="388" fill="#6b7280" font-size="8" text-anchor="middle">1k</text><path stroke="#e5e7eb" stroke-width=".5" d="M359.4 221v155"/><text x="359.4" y="388" fill="#6b7280" font-size="8" text-anchor="middle">10k</text><path stroke="#e5e7eb" stroke-width=".5" d="M34 376h358"/><text x="30" y="379" fill="#6b7280" font-size="8" text-anchor="end">-100</text><path stroke="#e5e7eb" stroke-width=".5" d="M34 337.3h358"/><text x="30" y="340.3" fill="#6b7280" font-size="8" text-anchor="end">-50</text><text x="30" y="301.5" fill="#6b7280" font-size="8" text-anchor="end">0</text><path stroke="#e5e7eb" stroke-width=".5" d="M34 259.8h358"/><text x="30" y="262.8" fill="#6b7280" font-size="8" text-anchor="end">50</text><path stroke="#e5e7eb" stroke-width=".5" d="M34 221h358"/><text x="30" y="224" fill="#6b7280" font-size="8" text-anchor="end">100</text><path stroke="#d1d5db" stroke-dasharray="4 3" d="M250.9 221v155"/><g clip-path="url(#e)"><path fill="url(#f)" d="M37.5 298.5H210l1.2.1h5.6l1 .1h3l.9.1h1l.9.1h.9l.9.1h.8l.9.1.8.1.8.1.8.1.8.1.8.1.8.1.7.2.8.1.7.2.7.2.7.2.7.2.7.2.7.2.6.3.7.2.7.3.6.3.6.3.7.3.6.4.6.3.6.4.6.4.6.4.5.3.6.4.6.4.5.5.6.4.5.4.6.4.5.4.5.3.5.4.6.4.5.4.5.3.5.3.5.4.4.3.5.2.5.3.5.3.4.2.5.2.5.2.4.2.5.2.4.1.5.2.4.1.4.1.5.1.4.1h.4l.4.1h.5l.4.1h3.1l.4-.1h.8l.3-.1h.4l.4-.1h.3l.4-.1h.4l.3-.1.4-.1h.3l.4-.1.3-.1h.4l.3-.1.3-.1h.4l.3-.1.3-.1.4-.1h.3l.3-.1.3-.1h.3l.4-.1.3-.1.3-.1h.3l.3-.1.3-.1h.3l.3-.1.3-.1.3-.1h.3l.3-.1.3-.1h.3l.3-.1.3-.1h.3l.3-.1.2-.1h.3l.3-.1.3-.1h.2l.3-.1.3-.1h.3l.2-.1h.3l.3-.1.2-.1h.3l.3-.1h.2l.3-.1.2-.1h.3l.3-.1h.2l.3-.1h.2l.3-.1h.2l.3-.1.2-.1h.2l.3-.1h.2l.3-.1h.2l.3-.1h.2l.2-.1h.3l.2-.1h.5l.2-.1h.2l.2-.1h.3l.2-.1h.2l.2-.1h.3l.2-.1h.4l.3-.1h.2l.2-.1h.4l.2-.1h.2l.3-.1h.4l.2-.1h.2l.2-.1h.4l.2-.1h.4l.2-.1h.2l.2-.1h.4l.2-.1h.4l.2-.1h.4l.2-.1h.4l.2-.1h.5l.2-.1h.4l.2-.1h.3l.2-.1h.6l.1-.1h.4l.2-.1h.5l.2-.1h.3l.2-.1h.5l.2-.1h.5l.2-.1h.5l.1-.1h.5l.2-.1h.7l.1-.1h.5l.2-.1h.6l.1-.1h.7l.1-.1h.6l.2-.1h.6l.1-.1h.6l.2-.1h.5l.2-.1h.7l.1-.1h.7l.2-.1h.7l.1-.1h.7l.1-.1h.8l.2-.1h.7l.2-.1h.7l.2-.1h.7l.1-.1h.9l.1-.1h.9l.1-.1h.8l.1-.1h1l.1-.1h1l.1-.1h.9l.1-.1h1.1l.1-.1h1l.1-.1h1.1l.1-.1h1.1l.1-.1h1.1l.1-.1h1.3l.1-.1h1.3l.1-.1h1.2l.1-.1h1.4l.1-.1h1.5l.1-.1h1.5l.1-.1h1.7v-.1h1.8v-.1h1.9l.1-.1h2.1l.1-.1h2.2l.1-.1h2.6l.1-.1h3.2v-.1h4.4l.1-.1H369v.1h3.3v.1h2l.1.1h1.5v.1h1.2l.1.1h1v.1h.9v.1h.8v.1h.7l.1.1h.6v.1h.6v.1h.5v.1h.5v.1h.4l.1.1h.3l.1.1h.3l.1.1h.3v.1h.3l.1.1h.2l.1.1h.3v.1h.2l.1.1h.2v.1h.3v.1h.2v.1h.2l.1.1h.2v.1h.2v.1h.2v.1h.1l.1.1h.1l.1.1h.1v.1h.2v.1h.1l.1.1h.1v.1h.1l.1.1h.1v.1h.1v.1h.1l.1.1h.1v.1h.1v.1h.1l.1.1.1.1h.1v.1h.1v.1h.1v.1h.1v.1h.1v.1h.1v.1l.1.1h.1v.1l.1.1v.1h.1v.1h.1v.1h.1v.1h.1v.2h.1v.1h.1v.1l.1.1v.1h.1v.2h.1v.1l.1.1v.1h.1v.1l.1.1v.1l.1.1v.1l.1.1v.1l.1.1v.1l.1.1v-10.7z"/><path fill="none" stroke="#22c55e" stroke-linejoin="round" stroke-width="1.5" d="M37.5 298.5H210l1.2.1h5.6l1 .1h3l.9.1h1l.9.1h.9l.9.1h.8l.9.1.8.1.8.1.8.1.8.1.8.1.8.1.7.2.8.1.7.2.7.2.7.2.7.2.7.2.7.2.6.3.7.2.7.3.6.3.6.3.7.3.6.4.6.3.6.4.6.4.6.4.5.3.6.4.6.4.5.5.6.4.5.4.6.4.5.4.5.3.5.4.6.4.5.4.5.3.5.3.5.4.4.3.5.2.5.3.5.3.4.2.5.2.5.2.4.2.5.2.4.1.5.2.4.1.4.1.5.1.4.1h.4l.4.1h.5l.4.1h3.1l.4-.1h.8l.3-.1h.4l.4-.1h.3l.4-.1h.4l.3-.1.4-.1h.3l.4-.1.3-.1h.4l.3-.1.3-.1h.4l.3-.1.3-.1.4-.1h.3l.3-.1.3-.1h.3l.4-.1.3-.1.3-.1h.3l.3-.1.3-.1h.3l.3-.1.3-.1.3-.1h.3l.3-.1.3-.1h.3l.3-.1.3-.1h.3l.3-.1.2-.1h.3l.3-.1.3-.1h.2l.3-.1.3-.1h.3l.2-.1h.3l.3-.1.2-.1h.3l.3-.1h.2l.3-.1.2-.1h.3l.3-.1h.2l.3-.1h.2l.3-.1h.2l.3-.1.2-.1h.2l.3-.1h.2l.3-.1h.2l.3-.1h.2l.2-.1h.3l.2-.1h.5l.2-.1h.2l.2-.1h.3l.2-.1h.2l.2-.1h.3l.2-.1h.4l.3-.1h.2l.2-.1h.4l.2-.1h.2l.3-.1h.4l.2-.1h.2l.2-.1h.4l.2-.1h.4l.2-.1h.2l.2-.1h.4l.2-.1h.4l.2-.1h.4l.2-.1h.4l.2-.1h.5l.2-.1h.4l.2-.1h.3l.2-.1h.6l.1-.1h.4l.2-.1h.5l.2-.1h.3l.2-.1h.5l.2-.1h.5l.2-.1h.5l.1-.1h.5l.2-.1h.7l.1-.1h.5l.2-.1h.6l.1-.1h.7l.1-.1h.6l.2-.1h.6l.1-.1h.6l.2-.1h.5l.2-.1h.7l.1-.1h.7l.2-.1h.7l.1-.1h.7l.1-.1h.8l.2-.1h.7l.2-.1h.7l.2-.1h.7l.1-.1h.9l.1-.1h.9l.1-.1h.8l.1-.1h1l.1-.1h1l.1-.1h.9l.1-.1h1.1l.1-.1h1l.1-.1h1.1l.1-.1h1.1l.1-.1h1.1l.1-.1h1.3l.1-.1h1.3l.1-.1h1.2l.1-.1h1.4l.1-.1h1.5l.1-.1h1.5l.1-.1h1.7v-.1h1.8v-.1h1.9l.1-.1h2.1l.1-.1h2.2l.1-.1h2.6l.1-.1h3.2v-.1h4.4l.1-.1H369v.1h3.3v.1h2l.1.1h1.5v.1h1.2l.1.1h1v.1h.9v.1h.8v.1h.7l.1.1h.6v.1h.6v.1h.5v.1h.5v.1h.4l.1.1h.3l.1.1h.3l.1.1h.3v.1h.3l.1.1h.2l.1.1h.3v.1h.2l.1.1h.2v.1h.3v.1h.2v.1h.2l.1.1h.2v.1h.2v.1h.2v.1h.1l.1.1h.1l.1.1h.1v.1h.2v.1h.1l.1.1h.1v.1h.1l.1.1h.1v.1h.1v.1h.1l.1.1h.1v.1h.1v.1h.1l.1.1.1.1h.1v.1h.1v.1h.1v.1h.1v.1h.1v.1h.1v.1l.1.1h.1v.1l.1.1v.1h.1v.1h.1v.1h.1v.1h.1v.2h.1v.1h.1v.1l.1.1v.1h.1v.2h.1v.1l.1.1v.1h.1v.1l.1.1v.1l.1.1v.1l.1.1v.1l.1.1v.1l.1.1"/></g><path stroke="#d1d5db" d="M442 221v155m0-77.5h358"/><text x="621" y="402" fill="#6b7280" font-size="9" text-anchor="middle">Samples</text><text x="420" y="298.5" fill="#6b7280" font-size="9" text-anchor="middle" transform="rotate(-90 420 298.5)">Impulse</text><path stroke="#e5e7eb" stroke-width=".5" d="M442 221v155"/><text x="442" y="388" fill="#6b7280" font-size="8" text-anchor="middle">0</text><path stroke="#e5e7eb" stroke-width=".5" d="M531.5 221v155"/><text x="531.5" y="388" fill="#6b7280" font-size="8" text-anchor="middle">32</text><path stroke="#e5e7eb" stroke-width=".5" d="M621 221v155"/><text x="621" y="388" fill="#6b7280" font-size="8" text-anchor="middle">64</text><path stroke="#e5e7eb" stroke-width=".5" d="M710.5 221v155"/><text x="710.5" y="388" fill="#6b7280" font-size="8" text-anchor="middle">96</text><path stroke="#e5e7eb" stroke-width=".5" d="M800 221v155"/><text x="800" y="388" fill="#6b7280" font-size="8" text-anchor="middle">128</text><path stroke="#e5e7eb" stroke-width=".5" d="M442 363.1h358"/><text x="438" y="366.1" fill="#6b7280" font-size="8" text-anchor="end">-1</text><text x="438" y="301.5" fill="#6b7280" font-size="8" text-anchor="end">0</text><path stroke="#e5e7eb" stroke-width=".5" d="M442 233.9h358"/><text x="438" y="236.9" fill="#6b7280" font-size="8" text-anchor="end">1</text><path stroke="#e5e7eb" stroke-dasharray="3 2" stroke-width=".5" d="M442 233.9h358"/><text x="438" y="236.9" fill="#6b7280" font-size="7" text-anchor="end">+1</text><path stroke="#e5e7eb" stroke-dasharray="3 2" stroke-width=".5" d="M442 363.1h358"/><text x="438" y="366.1" fill="#6b7280" font-size="7" text-anchor="end">-1</text><g clip-path="url(#g)"><path fill="url(#h)" d="M442 298.5h5.6l2.8-.1 2.8-.1 2.8-.2 2.8-.1 2.8-.3 2.8-.2 2.8-.3 2.8-.3 2.8-.3 2.8-.3 2.8-.2 2.8-.3 2.8-.2 2.8-.2 2.7-.2 2.8-.1 2.8-.1h8.4l2.8.1 2.8.2 2.8.1 2.8.2 2.8.2 2.8.2 2.8.2 2.8.3 2.8.2 2.8.3 2.8.2 2.8.3 2.8.2 2.8.2 2.8.2 2.8.2 2.8.2H621l2.8-.1h8.4l2.8-.1h16.8l2.8.1h16.7l2.8.1h123.1z"/><path fill="none" stroke="#eab308" stroke-linejoin="round" stroke-width="1.2" d="M442 298.5h5.6l2.8-.1 2.8-.1 2.8-.2 2.8-.1 2.8-.3 2.8-.2 2.8-.3 2.8-.3 2.8-.3 2.8-.3 2.8-.2 2.8-.3 2.8-.2 2.8-.2 2.7-.2 2.8-.1 2.8-.1h8.4l2.8.1 2.8.2 2.8.1 2.8.2 2.8.2 2.8.2 2.8.2 2.8.3 2.8.2 2.8.3 2.8.2 2.8.3 2.8.2 2.8.2 2.8.2 2.8.2 2.8.2 2.8.1 2.8.1 2.8.1 2.8.1 2.8.1 2.8.1h16.7l2.8-.1h2.8l2.8-.1h2.8l2.8-.1h2.8l2.8-.1h2.8l2.8-.1h2.8l2.8-.1h5.6l2.8-.1h8.4l2.8-.1h16.8l2.8.1h16.7l2.8.1h123.1"/></g></svg>