<svg xmlns="http://www.w3.org/2000/svg" style="font-family:system-ui,-apple-system,sans-serif" viewBox="0 0 820 392"><defs><linearGradient id="b" x1="0" x2="0" y1="47" y2="171" gradientUnits="userSpaceOnUse"><stop offset="0%" stop-color="#3b82f6" stop-opacity=".15"/><stop offset="100%" stop-color="#3b82f6" stop-opacity=".01"/></linearGradient><linearGradient id="d" x1="0" x2="0" y1="16" y2="94" gradientUnits="userSpaceOnUse"><stop offset="0%" stop-color="#ef4444" stop-opacity=".15"/><stop offset="100%" stop-color="#ef4444" stop-opacity=".01"/></linearGradient><linearGradient id="e" x1="0" x2="0" y1="94" y2="171" gradientUnits="userSpaceOnUse"><stop offset="0%" stop-color="#ef4444" stop-opacity=".01"/><stop offset="100%" stop-color="#ef4444" stop-opacity=".15"/></linearGradient><linearGradient id="g" x1="0" x2="0" y1="252" y2="299" gradientUnits="userSpaceOnUse"><stop offset="0%" stop-color="#22c55e" stop-opacity=".15"/><stop offset="100%" stop-color="#22c55e" stop-opacity=".01"/></linearGradient><linearGradient id="h" x1="0" x2="0" y1="299" y2="376" gradientUnits="userSpaceOnUse"><stop offset="0%" stop-color="#22c55e" stop-opacity=".01"/><stop offset="100%" stop-color="#22c55e" stop-opacity=".15"/></linearGradient><linearGradient id="j" x1="0" x2="0" y1="284" y2="299" gradientUnits="userSpaceOnUse"><stop offset="0%" stop-color="#eab308" stop-opacity=".15"/><stop offset="100%" stop-color="#eab308" stop-opacity=".01"/></linearGradient><linearGradient id="k" x1="0" x2="0" y1="299" y2="302" gradientUnits="userSpaceOnUse"><stop offset="0%" stop-color="#eab308" stop-opacity=".01"/><stop offset="100%" stop-color="#eab308" stop-opacity=".15"/></linearGradient><clipPath id="a"><path d="M34 16h358v155H34z"/></clipPath><clipPath id="c"><path d="M442 16h358v155H442z"/></clipPath><clipPath id="f"><path d="M34 221h358v155H34z"/></clipPath><clipPath id="i"><path d="M442 221h358v155H442z"/></clipPath></defs><text x="800" y="11" fill="#6b7280" font-size="11" font-weight="600" text-anchor="end">Decimate anti-alias filter, factor 4</text><path stroke="#d1d5db" d="M34 16v155m0-124h358"/><text x="213" y="197" fill="#6b7280" font-size="9" text-anchor="middle">Hz</text><text x="12" y="93.5" fill="#6b7280" font-size="9" text-anchor="middle" transform="rotate(-90 12 93.5)">dB</text><path stroke="#e5e7eb" stroke-width=".5" d="M66.6 16v155M85.7 16v155M99.3 16v155m10.5-155v155m8.6-155v155m7.3-155v155m6.2-155v155m5.6-155v155m37.6-155v155m19.1-155v155m13.5-155v155m10.6-155v155m8.5-155v155m7.3-155v155m6.3-155v155m5.5-155v155m37.6-155v155m19.1-155v155m13.6-155v155m10.5-155v155m8.6-155v155m7.3-155v155m6.2-155v155m5.6-155v155M392 16v155M34 16v155"/><text x="34" y="183" fill="#6b7280" font-size="8" text-anchor="middle">10</text><path stroke="#e5e7eb" stroke-width=".5" d="M142.5 16v155"/><text x="142.5" y="183" fill="#6b7280" font-size="8" text-anchor="middle">100</text><path stroke="#e5e7eb" stroke-width=".5" d="M250.9 16v155"/><text x="250.9" y="183" fill="#6b7280" font-size="8" text-anchor="middle">1k</text><path stroke="#e5e7eb" stroke-width=".5" d="M359.4 16v155"/><text x="359.4" y="183" fill="#6b7280" font-size="8" text-anchor="middle">10k</text><path stroke="#e5e7eb" stroke-width=".5" d="M34 171h358M34 140h358M34 109h358M34 78h358M34 16h358M34 62.5h358m-358-31h358"/><text x="30" y="174" fill="#6b7280" font-size="8" text-anchor="end">-80</text><text x="30" y="143" fill="#6b7280" font-size="8" text-anchor="end">-60</text><text x="30" y="112" fill="#6b7280" font-size="8" text-anchor="end">-40</text><text x="30" y="81" fill="#6b7280" font-size="8" text-anchor="end">-20</text><text x="30" y="50" fill="#6b7280" font-size="8" text-anchor="end">0</text><text x="30" y="19" fill="#6b7280" font-size="8" text-anchor="end">+20</text><g clip-path="url(#a)"><path fill="url(#b)" d="M37.5 171V47h282.8l.1.1h.4l.2.1h.2l.1.1h.2l.1.1h.1l.2.1.1.1h.1l.1.1.1.1h.1l.1.1.1.1.2.1.1.1.1.1.1.2.1.1.1.1.1.1.1.2.1.1.1.2.1.2.1.1.2.2.1.2.1.2.1.2.1.2.1.3.1.2.1.3.1.2.1.3.1.3.1.2.1.3.1.4.1.3.1.3.1.4.1.3.1.4.2.4.1.4.1.4.1.4.1.4.1.5.1.5.1.4.1.5.1.5.1.6.1.5.1.6.1.5.1.6.1.6.1.7.1.6.1.7.1.6.1.7.1.8.1.7.1.8.1.7.1.9.1.8.1.8v.9l.1.9.1.9.1 1 .1 1 .1 1 .1 1 .1 1.1.1 1.1.1 1.2.1 1.2.1 1.2.1 1.3.1 1.3.1 1.3.1 1.4.1 1.5.1 1.5.1 1.5.1 1.7v1.7l.1 1.8.1 1.8.1 2 .1 2.1.1 2.2.1 2.4.1 2.6.1 2.7.1 3.1.1 3.4.1 4 .1 4.7v6.1l.1 9.1.1 22.3.1-12.6.1-10.3.1-4.8.1-2.9.1-1.8.1-1.2.1-.8v-.4l.1-.2.1-.1.1.2.1.2.1.4.1.4.1.4v.5l.1.5.1.5.1.5.1.5.1.4.1.3.1.3v.2l.1.2.1.1h.1l.1-.1h.1l.1-.1v-.2l.1-.1.1-.1.1-.1.1-.1.1-.1h.1v.1l.1.1.1.2.1.3.1.4.1.5v.6l.1.8.1.9.1 1.1.1 1.4.1 1.7v2l.1 2.7.1 3.4.1 4.9.1 8.3v4.6l.1-.7.1-10.5.1-5.9.1-4 .1-3.1v-2.4l.1-2 .1-1.6.1-1.4.1-1.2v-.9l.1-.9.1-.6.1-.6.1-.4v-.3l.1-.2.1-.1.1.1.1.1v.3l.1.3.1.6.1.6.1.8v.9l.1 1.2.1 1.4.1 1.7v2l.1 2.6.1 3.2.1 4.5.1 7v9.5h.1l.1-10.3.1-6.6v-4.3l.1-3.2.1-2.5.1-1.9v-1.7l.1-1.3.1-1.1.1-.9v-.8l.1-.6.1-.4.1-.4v-.2l.1-.1h.1l.1.2v.2l.1.4.1.5.1.6v.8l.1 1 .1 1.1.1 1.4v1.7l.1 2 .1 2.5.1 3.2v4.4l.1 6.6.1 9.7h.1v-8.6l.1-7 .1-4.4v-3.3l.1-2.5.1-2 .1-1.6v-1.4l.1-1.1.1-.9v-.7l.1-.6.1-.5.1-.3v-.2l.1-.1h.1v.2l.1.3.1.4.1.5v.6l.1.9.1.9v1.2l.1 1.5.1 1.7v2l.1 2.6.1 3.4.1 4.6v7.1l.1 7.3h.1v-8.7l.1-6.5.1-4.2v-3.1l.1-2.5.1-1.9v-1.6l.1-1.3.1-1.1.1-.9v-.7l.1-.5.1-.5v-.3l.1-.1.1-.1v.1l.1.1.1.3v.4l.1.6.1.7v.8l.1 1.1.1 1.2v1.5l.1 1.7.1 2.2v2.7l.1 3.6.1 5v8.1l.1 3.9h.1v-9.2l.1-5.9.1-3.9v-2.9l.1-2.4.1-1.8v-1.5l.1-1.3.1-1v-.9l.1-.7.1-.5v-.4l.1-.3v-.1h.2v.2l.1.4.1.4v.6l.1.7.1.9v1.1l.1 1.2.1 1.6v1.8l.1 2.3v2.9l.1 3.8.1 5.5v9.4h.1l.1-.8v-9l.1-5.2v-3.7l.1-2.8.1-2.1v-1.8l.1-1.5.1-1.2v-1l.1-.8v-.6l.1-.5.1-.4v-.2l.1-.2h.1v.1l.1.3v.3l.1.5.1.6v.8l.1.9v1.1l.1 1.3.1 1.6v2l.1 2.4v3.1l.1 4.1.1 6.2v6.5h.1l.1-2.6v-7.7l.1-4.7v-3.4l.1-2.6.1-2.1v-1.7l.1-1.4v-1.1l.1-1v-.7l.1-.6.1-.5v-.4l.1-.2v-.1h.1l.1.2v.2l.1.4v.5l.1.6.1.8v1l.1 1.2v1.4l.1 1.7v2l.1 2.6.1 3.2v4.5l.1 7v3.5h.1l.1-4v-6.7l.1-4.3v-3.2l.1-2.4v-2l.1-1.6.1-1.3v-1.1l.1-.9v-.8l.1-.6v-.4l.1-.3.1-.2v-.1l.1.1v.1l.1.3v.4l.1.5.1.7v.9l.1 1v1.2l.1 1.4v1.8l.1 2.2v2.7l.1 3.5.1 4.9v8l.1.2.1-5.1V160l.1-4v-3l.1-2.3.1-1.9v-1.5l.1-1.3v-1l.1-.9v-.7l.1-.5v-.5l.1-.2v-.2h.2v.2l.1.3v.5l.1.5v.7l.1.9v1.1l.1 1.2v1.6l.1 1.8.1 2.3v2.8l.1 3.8v5.5l.1 5.8h.1v-6l.1-5.3V156l.1-2.8V151l.1-1.8v-1.5l.1-1.2v-1l.1-.8.1-.7v-.5l.1-.4v-.2l.1-.2.1.1v.2l.1.4v.4l.1.6v.8l.1.9v1.1l.1 1.3v1.6l.1 1.9v2.4l.1 3.1v4.1l.1 6v3.4h.2v-6.8l.1-4.8V156l.1-2.7v-2l.1-1.7v-1.5l.1-1.1v-1l.1-.8v-.6l.1-.5v-.3l.1-.3v-.1h.1v.2l.1.2v.4l.1.5v.6l.1.8v.9l.1 1.2v1.4l.1 1.6v2.1l.1 2.5v3.2l.1 4.4v6.8l.1.8.1-.6v-6.8l.1-4.4V156l.1-2.5v-2l.1-1.6v-1.4l.1-1.1v-.9l.1-.8v-.5l.1-.5v-.3l.1-.2v-.1h.1v.4l.1.4v.5l.1.7v.8l.1 1v1.2l.1 1.5v1.7l.1 2.1v2.7l.1 3.4v4.8l.1 5.7h.1v-1.9l.1-6V159l.1-3v-2.4l.1-1.9v-1.5l.1-1.3v-2l.1-.7v-.6l.1-.4v-.3l.1-.2h.1v.2l.1.3v.4l.1.6v.7l.1.8v1.1l.1 1.2v3.3l.1 2.3v2.8l.1 3.7v5.2l.1 3.7h.1v-2.9l.1-5.5v-3.8l.1-2.8v-4.1l.1-1.5v-1.2l.1-1v-.9l.1-.7v-.5l.1-.4v-.3l.1-.1v-.1l.1.1v.5l.1.5v.6l.1.7v.9l.1 1.1v1.3l.1 1.5v1.9l.1 2.4v6.9l.1 5.8v1.6h.1l.1-3.8v-5l.1-3.5v-4.9l.1-1.7v-1.5l.1-1.1v-1l.1-.8v-.7l.1-.5v-.6l.1-.1.1.1v.2l.1.4v.4l.1.6v1.7l.1 1.2v1.3l.1 1.6v2l.1 2.5v7.4l.1 5.8h.1l.1-4.6v-7.9l.1-2.6v-2l.1-1.7v-1.3l.1-1.2V148l.1-.6v-.5l.1-.3v-.2l.1-.1v.1l.1.3v.3l.1.5v.7l.1.8v2.1l.1 1.4v1.7l.1 2.1v2.6l.1 3.3v8.8h.2v-5.3l.1-4.2v-5.6l.1-1.9v-1.6l.1-1.3v-2l.1-.8v-.6l.1-.4v-.3l.1-.2v-.1l.1.2v.3l.1.4v1.2l.1.8v1l.1 1.2v1.5l.1 1.8v4.9l.1 3.5v5l.1 2.5.1-.1v-5.8l.1-3.9v-5.3l.1-1.9v-1.5l.1-1.3v-1.9l.1-.7v-.5l.1-.5v-.4l.1-.1v.1l.1.2v.7l.1.6v.7l.1.8v2.3l.1 1.6v1.8l.1 2.3v6.6l.1 5.5v.7h.1v-1.2l.1-5.2v-3.7l.1-2.8v-4l.1-1.5v-1.2l.1-1v-1.5l.1-.5v-.4l.1-.3v-.2l.1.1v.2l.1.3v1.1l.1.7v2l.1 1.3v1.6l.1 1.9v5.4l.1 4.1v4.8h.1l.1-2.1v-4.8l.1-3.5v-4.7l.1-1.8v-2.5l.1-1v-.8l.1-.7v-.8l.1-.3v-.1l.1.1v.2l.1.4v1.1l.1.8v.9l.1 1.1v3l.1 2v5.7l.1 4.4v3.4h.1l.1-2.9v-7.7l.1-2.5v-2.1l.1-1.6v-2.5l.1-.9v-1.4l.1-.5v-.3l.1-.2v-.1l.1.1v.6l.1.5v1.5l.1 1v1.1l.1 1.4v3.8l.1 2.7v8l.1 2h.1v-3.6l.1-4.2v-5.5l.1-1.9v-2.9l.1-1.1v-.9l.1-.7v-1l.1-.4v-.2h.1v.4l.1.4v.6l.1.7v1.8l.1 1.2v3.3l.1 2.1v6.4l.1 5v.5h.1l.1-4.3v-6.8l.1-2.3v-3.4l.1-1.2v-1.9l.1-.7v-1l.1-.3v-.2h.1v.2l.1.3v1l.1.7v1.9l.1 1.3v3.4l.1 2.2v6.7l.1 4.4h.1v-4.9l.1-3.6v-5l.1-1.8v-1.5l.1-1.2v-1.8l.1-.7v-.9l.1-.3v-.1h.1v.6l.1.4v1.3l.1.9v2.4l.1 1.6v4.3l.1 3.1v7.2h.1l.1-.6v-8.3l.1-2.6v-3.8l.1-1.4v-2.2l.1-.8v-1.1l.1-.4v-.4h.1v.4l.1.3v1.1l.1.8v2l.1 1.4v3.6l.1 2.5v7.6l.1 1.9h.1v-5.9l.1-3.3v-4.5l.1-1.7v-2.5l.1-.9v-1.4l.1-.5v-.5l.1-.1v.1l.1.3v.8l.1.7v1.8l.1 1.1v3.1l.1 2.1v6l.1 4.7v.6h.1v-2.3l.1-4.1v-5.5l.1-1.9v-4l.1-.9v-1.4l.1-.4v-.5l.1-.1v.2l.1.3v.9l.1.7v1.8l.1 1.2v3.2l.1 2.2v6.3l.1 4.3h.1v-6.9l.1-2.9V157l.1-1.5v-2.3l.1-.9v-1.2l.1-.5v-.5l.1.1v.4l.1.5v1.2l.1.9v2.3l.1 1.5v4.1l.1 2.9v7h.1l.1-3.6v-6.5l.1-2.2v-3.3l.1-1.2v-2.5l.1-.5v-.7l.1-.2v.1l.1.2v.8l.1.5v2.7l.1 1.4v3.4l.1 2.4v7.1l.1 2.1h.1v-7.7l.1-2.7v-3.8l.1-1.4v-3l.1-.6v-.9l.1-.3v-.1l.1.1v1l.1.6v1.7l.1 1.2v2.9l.1 2v10l.1 1h.1v-4.8l.1-3.3v-6.2l.1-1.4v-2.1l.1-.8V151l.1-.2v-.1l.1.1v.6l.1.5v2.4l.1 1.2v3.1l.1 2V171h.2v-8.5l.1-2.4v-3.6l.1-1.3v-2.7l.1-.6v-.8l.1-.2v-.1.2l.1.3v.9l.1.6v3.1l.1 1.4v3.9l.1 2.7v7.1h.1l.1-1.9v-9.3l.1-1.8v-2.9l.1-1v-2.2l.1-.4v-.5l.1-.1v.6l.1.4v1.2l.1.9v3.8l.1 1.8v8.8l.1 2.6h.1v-6.4l.1-2.8v-4l.1-1.5v-3.1l.1-.7v-1.2l.1-.2.1.2v1.4l.1.7v3.2l.1 1.6v4.3l.1 2.9v5.6h.1v-3.4l.1-3.5v-4.8l.1-1.7V154l.1-.8v-1.6l.1-.3v-.1l.1.1v1l.1.6v2.8l.1 1.3v3.6l.1 2.5v7.9h.1l.1-4v-7.9l.1-1.7v-2.6l.1-.9V152l.1-.4v-.3l.1.1v1.1l.1.6v2.9l.1 1.4v3.7l.1 2.6v7.3h.1v-.3l.1-4.3v-7.6l.1-1.6v-3.4l.1-.7V152l.1-.3v-.3l.1.1v1.2l.1.7v3l.1 1.4v6.5l.1 3.5v3.2h.1v-5.2l.1-3V157l.1-1.3v-1.9l.1-.8v-1.3l.1-.2v.2l.1.2v1.7l.1.8v3.8l.1 1.8v11z"/><path fill="none" stroke="#3b82f6" stroke-linejoin="round" stroke-width="1.5" d="M37.5 47h282.8l.1.1h.4l.2.1h.2l.1.1h.2l.1.1h.1l.2.1.1.1h.1l.1.1.1.1h.1l.1.1.1.1.2.1.1.1.1.1.1.2.1.1.1.1.1.1.1.2.1.1.1.2.1.2.1.1.2.2.1.2.1.2.1.2.1.2.1.3.1.2.1.3.1.2.1.3.1.3.1.2.1.3.1.4.1.3.1.3.1.4.1.3.1.4.2.4.1.4.1.4.1.4.1.4.1.5.1.5.1.4.1.5.1.5.1.6.1.5.1.6.1.5.1.6.1.6.1.7.1.6.1.7.1.6.1.7.1.8.1.7.1.8.1.7.1.9.1.8.1.8v.9l.1.9.1.9.1 1 .1 1 .1 1 .1 1 .1 1.1.1 1.1.1 1.2.1 1.2.1 1.2.1 1.3.1 1.3.1 1.3.1 1.4.1 1.5.1 1.5.1 1.5.1 1.7v1.7l.1 1.8.1 1.8.1 2 .1 2.1.1 2.2.1 2.4.1 2.6.1 2.7.1 3.1.1 3.4.1 4 .1 4.7v6.1l.1 9.1.1 22.3.1-12.6.1-10.3.1-4.8.1-2.9.1-1.8.1-1.2.1-.8v-.4l.1-.2.1-.1.1.2.1.2.1.4.1.4.1.4v.5l.1.5.1.5.1.5.1.5.1.4.1.3.1.3v.2l.1.2.1.1h.1l.1-.1h.1l.1-.1v-.2l.1-.1.1-.1.1-.1.1-.1.1-.1h.1v.1l.1.1.1.2.1.3.1.4.1.5v.6l.1.8.1.9.1 1.1.1 1.4.1 1.7v2l.1 2.7.1 3.4.1 4.9.1 8.3v4.6"/><path fill="none" stroke="#3b82f6" stroke-linejoin="round" stroke-width="1.5" d="m336.8 171 .1-.7.1-10.5.1-5.9.1-4 .1-3.1v-2.4l.1-2 .1-1.6.1-1.4.1-1.2v-.9l.1-.9.1-.6.1-.6.1-.4v-.3l.1-.2.1-.1.1.1.1.1v.3l.1.3.1.6.1.6.1.8v.9l.1 1.2.1 1.4.1 1.7v2l.1 2.6.1 3.2.1 4.5.1 7v9.5m.1 0 .1-10.3.1-6.6v-4.3l.1-3.2.1-2.5.1-1.9v-1.7l.1-1.3.1-1.1.1-.9v-.8l.1-.6.1-.4.1-.4v-.2l.1-.1h.1l.1.2v.2l.1.4.1.5.1.6v.8l.1 1 .1 1.1.1 1.4v1.7l.1 2 .1 2.5.1 3.2v4.4l.1 6.6.1 9.7m.1 0v-8.6l.1-7 .1-4.4v-3.3l.1-2.5.1-2 .1-1.6v-1.4l.1-1.1.1-.9v-.7l.1-.6.1-.5.1-.3v-.2l.1-.1h.1v.2l.1.3.1.4.1.5v.6l.1.9.1.9v1.2l.1 1.5.1 1.7v2l.1 2.6.1 3.4.1 4.6v7.1l.1 7.3m.1 0v-8.7l.1-6.5.1-4.2v-3.1l.1-2.5.1-1.9v-1.6l.1-1.3.1-1.1.1-.9v-.7l.1-.5.1-.5v-.3l.1-.1.1-.1v.1l.1.1.1.3v.4l.1.6.1.7v.8l.1 1.1.1 1.2v1.5l.1 1.7.1 2.2v2.7l.1 3.6.1 5v8.1l.1 3.9m.1 0v-9.2l.1-5.9.1-3.9v-2.9l.1-2.4.1-1.8v-1.5l.1-1.3.1-1v-.9l.1-.7.1-.5v-.4l.1-.3v-.1h.2v.2l.1.4.1.4v.6l.1.7.1.9v1.1l.1 1.2.1 1.6v1.8l.1 2.3v2.9l.1 3.8.1 5.5v9.4m.1 0 .1-.8v-9l.1-5.2v-3.7l.1-2.8.1-2.1v-1.8l.1-1.5.1-1.2v-1l.1-.8v-.6l.1-.5.1-.4v-.2l.1-.2h.1v.1l.1.3v.3l.1.5.1.6v.8l.1.9v1.1l.1 1.3.1 1.6v2l.1 2.4v3.1l.1 4.1.1 6.2v6.5m.1 0 .1-2.6v-7.7l.1-4.7v-3.4l.1-2.6.1-2.1v-1.7l.1-1.4v-1.1l.1-1v-.7l.1-.6.1-.5v-.4l.1-.2v-.1h.1l.1.2v.2l.1.4v.5l.1.6.1.8v1l.1 1.2v1.4l.1 1.7v2l.1 2.6.1 3.2v4.5l.1 7v3.5m.1 0 .1-4v-6.7l.1-4.3v-3.2l.1-2.4v-2l.1-1.6.1-1.3v-1.1l.1-.9v-.8l.1-.6v-.4l.1-.3.1-.2v-.1l.1.1v.1l.1.3v.4l.1.5.1.7v.9l.1 1v1.2l.1 1.4v1.8l.1 2.2v2.7l.1 3.5.1 4.9v8l.1.2"/><path fill="none" stroke="#3b82f6" stroke-linejoin="round" stroke-width="1.5" d="m355.1 171 .1-5.1V160l.1-4v-3l.1-2.3.1-1.9v-1.5l.1-1.3v-1l.1-.9v-.7l.1-.5v-.5l.1-.2v-.2h.2v.2l.1.3v.5l.1.5v.7l.1.9v1.1l.1 1.2v1.6l.1 1.8.1 2.3v2.8l.1 3.8v5.5l.1 5.8m.1 0v-6l.1-5.3V156l.1-2.8V151l.1-1.8v-1.5l.1-1.2v-1l.1-.8.1-.7v-.5l.1-.4v-.2l.1-.2.1.1v.2l.1.4v.4l.1.6v.8l.1.9v1.1l.1 1.3v1.6l.1 1.9v2.4l.1 3.1v4.1l.1 6v3.4m.2 0v-6.8l.1-4.8V156l.1-2.7v-2l.1-1.7v-1.5l.1-1.1v-1l.1-.8v-.6l.1-.5v-.3l.1-.3v-.1h.1v.2l.1.2v.4l.1.5v.6l.1.8v.9l.1 1.2v1.4l.1 1.6v2.1l.1 2.5v3.2l.1 4.4v6.8l.1.8"/><path fill="none" stroke="#3b82f6" stroke-linejoin="round" stroke-width="1.5" d="m360.4 171 .1-.6v-6.8l.1-4.4V156l.1-2.5v-2l.1-1.6v-1.4l.1-1.1v-.9l.1-.8v-.5l.1-.5v-.3l.1-.2v-.1h.1v.4l.1.4v.5l.1.7v.8l.1 1v1.2l.1 1.5v1.7l.1 2.1v2.7l.1 3.4v4.8l.1 5.7m.1 0v-1.9l.1-6V159l.1-3v-2.4l.1-1.9v-1.5l.1-1.3v-2l.1-.7v-.6l.1-.4v-.3l.1-.2h.1v.2l.1.3v.4l.1.6v.7l.1.8v1.1l.1 1.2v3.3l.1 2.3v2.8l.1 3.7v5.2l.1 3.7m.1 0v-2.9l.1-5.5v-3.8l.1-2.8v-4.1l.1-1.5v-1.2l.1-1v-.9l.1-.7v-.5l.1-.4v-.3l.1-.1v-.1l.1.1v.5l.1.5v.6l.1.7v.9l.1 1.1v1.3l.1 1.5v1.9l.1 2.4v6.9l.1 5.8v1.6m.1 0 .1-3.8v-5l.1-3.5v-4.9l.1-1.7v-1.5l.1-1.1v-1l.1-.8v-.7l.1-.5v-.6l.1-.1.1.1v.2l.1.4v.4l.1.6v1.7l.1 1.2v1.3l.1 1.6v2l.1 2.5v7.4l.1 5.8m.1 0 .1-4.6v-7.9l.1-2.6v-2l.1-1.7v-1.3l.1-1.2V148l.1-.6v-.5l.1-.3v-.2l.1-.1v.1l.1.3v.3l.1.5v.7l.1.8v2.1l.1 1.4v1.7l.1 2.1v2.6l.1 3.3v8.8m.2 0v-5.3l.1-4.2v-5.6l.1-1.9v-1.6l.1-1.3v-2l.1-.8v-.6l.1-.4v-.3l.1-.2v-.1l.1.2v.3l.1.4v1.2l.1.8v1l.1 1.2v1.5l.1 1.8v4.9l.1 3.5v5l.1 2.5"/><path fill="none" stroke="#3b82f6" stroke-linejoin="round" stroke-width="1.5" d="m369.5 171 .1-.1v-5.8l.1-3.9v-5.3l.1-1.9v-1.5l.1-1.3v-1.9l.1-.7v-.5l.1-.5v-.4l.1-.1v.1l.1.2v.7l.1.6v.7l.1.8v2.3l.1 1.6v1.8l.1 2.3v6.6l.1 5.5v.7m.1 0v-1.2l.1-5.2v-3.7l.1-2.8v-4l.1-1.5v-1.2l.1-1v-1.5l.1-.5v-.4l.1-.3v-.2l.1.1v.2l.1.3v1.1l.1.7v2l.1 1.3v1.6l.1 1.9v5.4l.1 4.1v4.8m.1 0 .1-2.1v-4.8l.1-3.5v-4.7l.1-1.8v-2.5l.1-1v-.8l.1-.7v-.8l.1-.3v-.1l.1.1v.2l.1.4v1.1l.1.8v.9l.1 1.1v3l.1 2v5.7l.1 4.4v3.4m.1 0 .1-2.9v-7.7l.1-2.5v-2.1l.1-1.6v-2.5l.1-.9v-1.4l.1-.5v-.3l.1-.2v-.1l.1.1v.6l.1.5v1.5l.1 1v1.1l.1 1.4v3.8l.1 2.7v8l.1 2m.1 0v-3.6l.1-4.2v-5.5l.1-1.9v-2.9l.1-1.1v-.9l.1-.7v-1l.1-.4v-.2h.1v.4l.1.4v.6l.1.7v1.8l.1 1.2v3.3l.1 2.1v6.4l.1 5v.5m.1 0 .1-4.3v-6.8l.1-2.3v-3.4l.1-1.2v-1.9l.1-.7v-1l.1-.3v-.2h.1v.2l.1.3v1l.1.7v1.9l.1 1.3v3.4l.1 2.2v6.7l.1 4.4m.1 0v-4.9l.1-3.6v-5l.1-1.8v-1.5l.1-1.2v-1.8l.1-.7v-.9l.1-.3v-.1h.1v.6l.1.4v1.3l.1.9v2.4l.1 1.6v4.3l.1 3.1v7.2m.1 0 .1-.6v-8.3l.1-2.6v-3.8l.1-1.4v-2.2l.1-.8v-1.1l.1-.4v-.4h.1v.4l.1.3v1.1l.1.8v2l.1 1.4v3.6l.1 2.5v7.6l.1 1.9m.1 0v-5.9l.1-3.3v-4.5l.1-1.7v-2.5l.1-.9v-1.4l.1-.5v-.5l.1-.1v.1l.1.3v.8l.1.7v1.8l.1 1.1v3.1l.1 2.1v6l.1 4.7v.6m.1 0v-2.3l.1-4.1v-5.5l.1-1.9v-4l.1-.9v-1.4l.1-.4v-.5l.1-.1v.2l.1.3v.9l.1.7v1.8l.1 1.2v3.2l.1 2.2v6.3l.1 4.3m.1 0v-6.9l.1-2.9V157l.1-1.5v-2.3l.1-.9v-1.2l.1-.5v-.5l.1.1v.4l.1.5v1.2l.1.9v2.3l.1 1.5v4.1l.1 2.9v7m.1 0 .1-3.6v-6.5l.1-2.2v-3.3l.1-1.2v-2.5l.1-.5v-.7l.1-.2v.1l.1.2v.8l.1.5v2.7l.1 1.4v3.4l.1 2.4v7.1l.1 2.1m.1 0v-7.7l.1-2.7v-3.8l.1-1.4v-3l.1-.6v-.9l.1-.3v-.1l.1.1v1l.1.6v1.7l.1 1.2v2.9l.1 2v10l.1 1m.1 0v-4.8l.1-3.3v-6.2l.1-1.4v-2.1l.1-.8V151l.1-.2v-.1l.1.1v.6l.1.5v2.4l.1 1.2v3.1l.1 2V171m.2 0v-8.5l.1-2.4v-3.6l.1-1.3v-2.7l.1-.6v-.8l.1-.2v-.1.2l.1.3v.9l.1.6v3.1l.1 1.4v3.9l.1 2.7v7.1m.1 0 .1-1.9v-9.3l.1-1.8v-2.9l.1-1v-2.2l.1-.4v-.5l.1-.1v.6l.1.4v1.2l.1.9v3.8l.1 1.8v8.8l.1 2.6m.1 0v-6.4l.1-2.8v-4l.1-1.5v-3.1l.1-.7v-1.2l.1-.2.1.2v1.4l.1.7v3.2l.1 1.6v4.3l.1 2.9v5.6m.1 0v-3.4l.1-3.5v-4.8l.1-1.7V154l.1-.8v-1.6l.1-.3v-.1l.1.1v1l.1.6v2.8l.1 1.3v3.6l.1 2.5v7.9m.1 0 .1-4v-7.9l.1-1.7v-2.6l.1-.9V152l.1-.4v-.3l.1.1v1.1l.1.6v2.9l.1 1.4v3.7l.1 2.6v7.3m.1 0v-.3l.1-4.3v-7.6l.1-1.6v-3.4l.1-.7V152l.1-.3v-.3l.1.1v1.2l.1.7v3l.1 1.4v6.5l.1 3.5v3.2m.1 0v-5.2l.1-3V157l.1-1.3v-1.9l.1-.8v-1.3l.1-.2v.2l.1.2v1.7l.1.8v3.8l.1 1.8v2.2"/></g><path stroke="#d1d5db" d="M442 16v155m0-77.5h358"/><text x="621" y="197" fill="#6b7280" font-size="9" text-anchor="middle">Hz</text><text x="420" y="93.5" fill="#6b7280" font-size="9" text-anchor="middle" transform="rotate(-90 420 93.5)">Phase (deg)</text><path stroke="#e5e7eb" stroke-width=".5" d="M474.6 16v155m19.1-155v155m13.6-155v155m10.5-155v155m8.6-155v155m7.3-155v155m6.2-155v155m5.6-155v155m37.6-155v155m19.1-155v155m13.5-155v155m10.6-155v155m8.5-155v155m7.3-155v155m6.3-155v155m5.5-155v155m37.6-155v155m19.1-155v155m13.6-155v155m10.5-155v155m8.6-155v155m7.3-155v155m6.2-155v155m5.6-155v155M800 16v155M442 16v155"/><text x="442" y="183" fill="#6b7280" font-size="8" text-anchor="middle">10</text><path stroke="#e5e7eb" stroke-width=".5" d="M550.5 16v155"/><text x="550.5" y="183" fill="#6b7280" font-size="8" text-anchor="middle">100</text><path stroke="#e5e7eb" stroke-width=".5" d="M658.9 16v155"/><text x="658.9" y="183" fill="#6b7280" font-size="8" text-anchor="middle">1k</text><path stroke="#e5e7eb" stroke-width=".5" d="M767.4 16v155"/><text x="767.4" y="183" fill="#6b7280" font-size="8" text-anchor="middle">10k</text><path stroke="#e5e7eb" stroke-width=".5" d="M442 54.8h358m-358 77.5h358M442 16h358"/><text x="438" y="19" fill="#6b7280" font-size="8" text-anchor="end">+180</text><text x="438" y="96.5" fill="#6b7280" font-size="8" text-anchor="end">0</text><path stroke="#e5e7eb" stroke-width=".5" d="M442 171h358"/><text x="438" y="174" fill="#6b7280" font-size="8" text-anchor="end">-180</text><g clip-path="url(#c)"><path fill="url(#d)" d="M445.5 93.5h166.1l1.3-75.5 1.4 2.2 1.3 2.3 1.2 2.3L618 27l1.2 2.3 1.2 2.3 1.1 2.3 1.1 2.2 1.1 2.3 1.1 2.3 1 2.2 1 2.3 1 2.3 1 2.3.9 2.2 1 2.3.9 2.3.9 2.2.9 2.3.8 2.3.9 2.2.8 2.3.8 2.3.8 2.3.8 2.2.8 2.3.8 2.3.7 2.2.8 2.3.7 2.3.7 2.3.7 2.2.7 2.3.7.6h18.4l.5-76.1.4 2.2.5 2.3.4 2.3.5 2.2.4 2.3.4 2.3.5 2.3.4 2.2.4 2.3.4 2.3.5 2.2.4 2.3.4 2.3.4 2.2.4 2.3.4 2.3.4 2.3.4 2.2.3 2.3.4 2.3.4 2.2.4 2.3.4 2.3.3 2.3.4 2.2.4 2.3.3 2.3.4 2.2.4 2.3.3 2.3.4 2.2.3 2.3.4 2.3.3 1.2h10.2l.2-76.7.3 2.2.3 2.3.3 2.3.2 2.2.3 2.3.3 2.3.2 2.3.3 2.2.3 2.3.2 2.3.3 2.2.2 2.3.3 2.3.3 2.2.2 2.3.3 2.3.2 2.3.3 2.2.2 2.3.3 2.3.2 2.2.2 2.3.3 2.3.2 2.2.3 2.3.2 2.3.3 2.3.2 2.2.2 2.3.3 2.3.2 2.2.2 2.3.3 2.3.2 1.8h7l.2-77.3.2 2.2.2 2.3.2 2.3.2 2.2.2 2.3.2 2.3.2 2.2.2 2.3.2 2.3.1 2.3.2 2.2.2 2.3.2 2.3.2 2.2.2 2.3.2 2.3.2 2.2.1 2.3.2 2.3.2 2.3.2 2.2.2 2.3.1 2.3.2 2.2.2 2.3.2 2.3.2 2.3.1 2.2.2 2.3.2 2.3.2 2.2.1 2.3.2 2.3.2 2.2.2.2h5.3l.2-75.7.1 2.3.2 2.3.1 2.2.2 2.3.1 2.3.2 2.2.1 2.3.2 2.3.1 2.3.2 2.2.1 2.3.2 2.3.1 2.2.2 2.3.1 2.3.2 2.2.1 2.3.1 2.3.2 2.3.1 2.2.2 2.3.1 2.3.2 2.2.1 2.3.1 2.3.2 2.2.1 2.3.2 2.3.1 2.3.1 2.2.2 2.3.1 2.3.2 2.2.1.8h4.3l.2-76.3.1 2.3.1 2.3.1 2.2.2 2.3.1 2.3.1 2.2.1 2.3.2 2.3.1 2.2.1 2.3.1 2.3.1 2.3.2 2.2.1 2.3.1 2.3.1 2.2.1 2.3.2 2.3.1 2.3.1 2.2.1 2.3.1 2.3.2 2.2.1 2.3.1 2.3.1 2.2.1 2.3.1 2.3.2 2.3.1 2.2.1 2.3.1 2.3.1 2.2.1 1.4h3.7l.1-76.9.1 2.3.1 2.2.1 2.3.1 2.3.1 2.3.1 2.2.1 2.3.1 2.3.1 2.2.1 2.3.1 2.3.1 2.3.1 2.2.2 2.3.1 2.3.1 2.2.1 2.3.1 2.3.1 2.2.1 2.3.1 2.3.1 2.3.1 2.2.1 2.3.1 2.3.1 2.2.1 2.3.1 2.3.1 2.3.1 2.2.1 2.3.1 2.3.1 2.2.1 2h3.2l.1-75.2.1 2.2.1 2.3.1 2.3.1 2.3.1 2.2v2.3l.1 2.3.1 2.2.1 57.1h2.1l.1-75.5.1 2.2.1 2.3.1 2.3.1 2.2v2.3l.1 2.3.1 2.3.1 2.2.1 2.3.1 2.3.1 2.2v2.3l.1 2.3.1 2.3.1 2.2.1 2.3.1 2.3v2.2l.1 2.3.1 2.3.1 2.2.1 2.3.1 2.3v2.3l.1 2.2.1 2.3.1 2.3.1 2.2v2.3l.1 9.7h.3l.1-75.8v2.2l.1 2.3.1 2.3.1 2.2.1 2.3v2.3l.1 2.3.1 2.2.1 2.3.1 2.3v2.2l.1 2.3.1 2.3.1 2.3.1 2.2V54l.1 2.3.1 2.2.1 2.3.1 2.3v2.2l.1 2.3.1 2.3.1 2.3v2.2l.1 2.3.1 2.3.1 2.2.1 2.3v2.3l.1 7.7h.2V17.4l.1 2.2.1 2.3.1 2.3v2.2l.1 2.3.1 2.3.1 2.3v2.2l.1 2.3.1 2.3.1 2.2v2.3l.1 2.3.1 2.2.1 2.3v2.3l.1 2.3.1 2.2.1 2.3v2.3l.1 2.2.1 2.3.1 2.3v2.3l.1 2.2.1 2.3.1 2.3v2.2l.1 2.3.1 2.3.1 8h.1l.1-76.4v2.2l.1 2.3.1 2.3.1 2.2v2.3l.1 2.3.1 2.3v2.2l.1 2.3.1 2.3.1 2.2v2.3l.1 2.3.1 2.2v2.3l.1 2.3.1 2.3.1 2.2v2.3l.1 2.3.1 2.2V67l.1 2.3.1 2.3v2.2l.1 2.3.1 2.3.1 2.2v2.3l.1 2.3.1 8.3h.1l.1-76.7V19l.1 2.3.1 2.3v2.2l.1 2.3.1 2.3.1 2.3v2.2l.1 2.3.1 2.3v2.2l.1 2.3.1 2.3v2.2l.1 2.3.1 2.3v2.3l.1 2.2.1 2.3v2.3l.1 2.2.1 2.3V69l.1 2.2.1 2.3v2.3l.1 2.3.1 2.2v2.3l.1 2.3.1 8.6h.1l.1-77v2.2l.1 2.3.1 2.3v2.2l.1 2.3.1 2.3v2.2l.1 2.3.1 2.3v2.3l.1 2.2v2.3l.1 2.3.1 2.2v2.3l.1 2.3.1 2.3v2.2l.1 2.3.1 2.3v2.2l.1 2.3.1 2.3v2.2l.1 2.3v2.3l.1 2.3.1 2.2v2.3l.1 11.2h.2V16.2l.1 2.2.1 2.3V23l.1 2.2.1 2.3v2.3l.1 2.2v2.3l.1 2.3.1 2.3v2.2l.1 2.3.1 2.3v2.2l.1 2.3v2.3l.1 2.2.1 2.3v2.3l.1 2.3v2.2l.1 2.3.1 2.3v2.2l.1 2.3v2.3l.1 2.3.1 2.2V82l.1 11.5h.2l.1-75.4.1 2.3v2.3l.1 2.2v2.3l.1 2.3v2.2l.1 2.3.1 2.3v2.3l.1 2.2v2.3l.1 2.3.1 2.2v2.3l.1 2.3v2.2l.1 2.3.1 2.3v2.3l.1 2.2v2.3l.1 2.3v2.2l.1 2.3.1 2.3v2.3l.1 2.2v2.3l.1 11.8h.2l.1-75.7v2.3l.1 2.3.1 2.2v2.3l.1 2.3v2.2l.1 2.3V36l.1 2.3.1 2.2v2.3l.1 2.3v2.2l.1 2.3v2.3l.1 2.2.1 2.3v2.3l.1 2.3v2.2l.1 2.3v2.3l.1 2.2v2.3l.1 2.3.1 2.2v2.3l.1 2.3v12.1h.2l.1-76 .1 2.3v2.3l.1 2.2v2.3l.1 2.3v2.2l.1 2.3v2.3l.1 2.2v2.3l.1 2.3.1 2.3V47l.1 2.3v2.3l.1 2.2v2.3l.1 2.3v2.3l.1 2.2v2.3l.1 2.3.1 2.2V72l.1 2.3v2.2l.1 2.3v14.7h.3V17.2l.1 2.3v2.3l.1 2.2v2.3l.1 2.3.1 2.2v2.3l.1 2.3v2.2l.1 2.3v2.3l.1 2.3v2.2l.1 2.3v2.3l.1 2.2v2.3l.1 2.3v2.3l.1 2.2v2.3l.1 2.3v2.2l.1 2.3V74l.1 2.2v2.3l.1 15h.3V16.9l.1 2.3v2.2l.1 2.3V26l.1 2.3v2.2l.1 2.3v2.3l.1 2.2v2.3l.1 2.3v2.3l.1 2.2v2.3l.1 2.3v2.2l.1 2.3v2.3l.1 2.2v2.3l.1 2.3v2.3l.1 2.2v2.3l.1 2.3v2.2l.1 2.3v15.3h.3V16.6l.1 2.3v2.2l.1 2.3v2.3l.1 2.3v2.2l.1 2.3v2.3l.1 2.2v2.3l.1 2.3v4.5l.1 2.3v2.3l.1 2.2v2.3l.1 2.3v2.2l.1 2.3v2.3l.1 2.3v2.2l.1 2.3v2.3l.1 2.2v2.3l.1 15.6h.2l.1-77.2v2.3l.1 2.2v4.6l.1 2.3v2.2l.1 2.3v2.3l.1 2.2V39l.1 2.3v2.2l.1 2.3v2.3l.1 2.3v2.2l.1 2.3v2.3l.1 2.2V64l.1 2.3v2.2l.1 2.3v2.3l.1 2.2v2.3l.1 15.9h.2V16l.1 2.3v2.2l.1 2.3v2.3l.1 2.3v2.2l.1 2.3v2.3l.1 2.2v2.3l.1 2.3v4.5l.1 2.3v2.3l.1 2.2v2.3l.1 2.3v2.2l.1 2.3v2.3l.1 2.3v4.5l.1 2.3V75l.1 18.5h.3V18l.1 2.2v2.3l.1 2.3V27l.1 2.3v4.6l.1 2.2v2.3l.1 2.3v2.2l.1 2.3v2.3l.1 2.3v4.5l.1 2.3v2.2l.1 2.3v2.3l.1 2.2v4.6l.1 2.3v2.2l.1 18.8h.3V17.7l.1 2.2v4.6l.1 2.2V29l.1 2.3v2.3l.1 2.2v4.6l.1 2.2v2.3l.1 2.3v2.3l.1 2.2v4.6l.1 2.2v2.3l.1 2.3v2.2l.1 2.3v4.6l.1 2.2v19.1h.3l.1-76.1v4.5l.1 2.3v2.2l.1 2.3V31l.1 2.3v4.5l.1 2.3v2.2l.1 2.3v4.5l.1 2.3v2.3l.1 2.3v2.2l.1 2.3V65l.1 2.3v2.3l.1 2.3v21.6h.3l.1-76.4v4.5l.1 2.3v2.2l.1 2.3V33l.1 2.2v2.3l.1 2.3v4.5l.1 2.3v2.2l.1 2.3v4.6l.1 2.2v2.3l.1 2.3V67l.1 2.3v2.3l.1 21.9h.3V16.8l.1 2.2v4.6l.1 2.2v2.3l.1 2.3v4.5l.1 2.3v2.3l.1 2.2v4.6l.1 2.2v4.6l.1 2.3v2.2l.1 2.3v4.5l.1 2.3V69l.1 2.2v22.3h.3v-77l.1 2.2V21l.1 2.3v4.5l.1 2.3v4.5l.1 2.3v2.3l.1 2.2V46l.1 2.2v2.3l.1 2.3v4.5l.1 2.3v4.5l.1 2.3v2.3l.1 2.2v22.6h.3V16.2l.1 2.2V23l.1 2.2v2.3l.1 2.3v4.5l.1 2.3v4.5l.1 2.3v4.5l.1 2.3v2.3l.1 2.3v4.5l.1 2.3v4.5l.1 2.3v2.2l.1 22.9h.3V18.1l.1 2.3v4.5l.1 2.3v4.5l.1 2.3v4.6l.1 2.2v2.3l.1 2.3v4.5l.1 2.3v4.5l.1 2.3v4.5l.1 2.3v4.5l.1 23.2h.3V17.8l.1 2.3v4.5l.1 2.3v4.5l.1 2.3V36l.1 2.3v4.5l.1 2.3v4.5l.1 2.3v4.5l.1 2.3v4.5l.1 2.3v28h.4v-76l.1 2.3v4.5l.1 2.3v4.5l.1 2.3v4.5l.1 2.3v4.6l.1 2.2v4.6l.1 2.2v4.6l.1 2.3v4.5l.1 2.3v26h.3l.1-76.3v4.6l.1 2.2v4.6l.1 2.2v4.6l.1 2.2v4.6l.1 2.3V49l.1 2.3v4.5l.1 2.3v4.5l.1 2.3v28.6h.4V16.9v2.3l.1 2.2V26l.1 2.3v4.5l.1 2.3v4.5l.1 2.3v4.5l.1 2.3v4.5l.1 2.3V60l.1 2.3v4.6l.1 26.6h.3V16.6v2.3l.1 2.2v4.6l.1 2.3v4.5l.1 2.3v4.5l.1 2.3v4.5l.1 2.3v4.5l.1 2.3v4.5l.1 2.3v31.5h.4V16.3v2.3l.1 2.2v6.9l.1 2.2v4.6l.1 2.2v4.6l.1 2.2v4.6l.1 2.3v4.5l.1 2.3V64l.1 29.5h.3V16l.1 2.3v4.5l.1 2.3v4.5l.1 2.3v4.5l.1 2.3v6.8l.1 2.3v4.5l.1 2.3v4.5l.1 2.3v32.1h.4V18v2.2l.1 2.3V27l.1 2.3v6.8l.1 2.3v4.5l.1 2.3v4.6l.1 2.2v6.8l.1 2.3v32.4h.4V17.7v2.2l.1 2.3v4.5l.1 2.3v4.6l.1 2.2v6.8l.1 2.3v4.6l.1 2.2v6.8l.1 2.3v32.7h.4V17.4v2.2l.1 2.3v6.8l.1 2.3v4.5l.1 2.3v6.8l.1 2.3v4.5l.1 2.3v6.8l.1 2.3v30.7h.3l.1-76.4v4.5l.1 2.3v6.8l.1 2.3v4.5l.1 2.3v6.8l.1 2.2v6.9l.1 2.2v35.6h.4V16.8 19l.1 2.3v4.5l.1 2.3v6.8l.1 2.3V44l.1 2.3v4.5l.1 2.3v6.8l.1 33.6h.3v-77l.1 2.2v4.6l.1 2.2v6.8l.1 2.3v6.8l.1 2.3v4.5l.1 2.3v6.8l.1 2.3v33.9h.3l.1-77.3V23l.1 2.2V32l.1 2.3v6.8l.1 2.3v4.5l.1 2.3V57l.1 2.3v34.2h.4V18.1v4.6l.1 2.2v6.8l.1 2.3v6.8l.1 2.3v6.8l.1 2.3V59l.1 34.5h.3l.1-75.7v6.8l.1 2.3v6.8l.1 2.3v6.8l.1 2.3v48.4z"/><path fill="url(#e)" d="M445.5 93.5v2.3l32.6 2.2 19.1 2.3 13.6 2.3 10.5 2.3 8.6 2.2 7.2 2.3 6.3 2.3 5.6 2.2 4.9 2.3 4.5 2.3 4.1 2.2 3.8 2.3 3.5 2.3 3.2 2.3 3.1 2.2 2.8 2.3 2.7 2.3 2.6 2.2 2.4 2.3 2.3 2.3 2.2 2.3 2.1 2.2 2 2.3 1.9 2.3 1.8 2.2 1.8 2.3 1.7 2.3 1.7 2.2 1.6 2.3 1.5 2.3 1.5 2.3 1.5 2.2 1.4 2.3 1.3-77.2h31.3l.7 1.7.7 2.2.6 2.3.7 2.3.7 2.2.6 2.3.6 2.3.7 2.3.6 2.2.6 2.3.6 2.3.6 2.2.6 2.3.5 2.3.6 2.3.6 2.2.5 2.3.6 2.3.5 2.2.6 2.3.5 2.3.5 2.2.5 2.3.6 2.3.5 2.3.5 2.2.5 2.3.5 2.3.4 2.2.5 2.3.5 2.3.5 2.3.4 2.2.5 2.3.5-76.6h13.1l.3 1.1.4 2.2.3 2.3.3 2.3.4 2.2.3 2.3.3 2.3.4 2.3.3 2.2.3 2.3.3 2.3.3 2.2.4 2.3.3 2.3.3 2.2.3 2.3.3 2.3.3 2.3.3 2.2.3 2.3.3 2.3.3 2.2.3 2.3.3 2.3.3 2.3.3 2.2.3 2.3.3 2.3.3 2.2.3 2.3.2 2.3.3 2.2.3 2.3.3 2.3.2-76h8.4l.2.5.2 2.2.2 2.3.3 2.3.2 2.2.2 2.3.2 2.3.3 2.2.2 2.3.2 2.3.2 2.3.3 2.2.2 2.3.2 2.3.2 2.2.2 2.3.2 2.3.2 2.3.3 2.2.2 2.3.2 2.3.2 2.2.2 2.3.2 2.3.2 2.2.2 2.3.2 2.3.2 2.3.2 2.2.2 2.3.2 2.3.2 2.2.2 2.3.2 2.3.2-75.4h6.3l.2 2.1.1 2.3.2 2.3.2 2.2.1 2.3.2 2.3.2 2.2.1 2.3.2 2.3.2 2.3.1 2.2.2 2.3.2 2.3.1 2.2.2 2.3.2 2.3.1 2.2.2 2.3.2 2.3.1 2.3.2 2.2.1 2.3.2 2.3.2 2.2.1 2.3.2 2.3.1 2.3.2 2.2.1 2.3.2 2.3.1 2.2.2 2.3.2 2.3.1 2.2.2-77h4.8l.1 1.5.1 2.3.2 2.3.1 2.2.1 2.3.2 2.3.1 2.2.2 2.3.1 2.3.1 2.2.2 2.3.1 2.3.1 2.3.2 2.2.1 2.3.1 2.3.2 2.2.1 2.3.1 2.3.1 2.3.2 2.2.1 2.3.1 2.3.2 2.2.1 2.3.1 2.3.1 2.2.2 2.3.1 2.3.1 2.3.2 2.2.1 2.3.1 2.3.1 2.2.2-76.4h3.9l.1.9.2 2.3.1 2.2.1 2.3.1 2.3.1 2.3.1 2.2.1 2.3.1 2.3.2 2.2.1 2.3.1 2.3.1 2.3.1 2.2.1 2.3.1 2.3.1 2.2.2 2.3.1 2.3.1 2.2.1 2.3.1 2.3.1 2.3.1 2.2.1 2.3.1 2.3.1 2.2.1 2.3.1 2.3.2 2.3.1 2.2.1 2.3.1 2.3.1 2.2.1-75.8h3.4l.1.3.1 2.3.1 2.2.1 2.3.1 2.3.1 2.3.1 2.2.1 2.3v2.3l.1 2.2.1 2.3.1 2.3.1 2.2.1 2.3.1 2.3.1 2.3.1 2.2.1 2.3.1 2.3.1 2.2.1 2.3.1 2.3.1 2.3.1 2.2.1 2.3.1 2.3.1 2.2.1 2.3v2.3l.1 2.2.1 2.3.1 2.3.1 2.3.1 2.2.1 2.3.1-77.5h.7l.1 22.7.1 2.3.1 2.2.1 2.3.1 2.3.1 2.3.1 2.2v2.3l.1 2.3.1 2.2.1 2.3.1 2.3.1 2.3.1 2.2.1 2.3v2.3l.1 2.2.1 2.3.1 2.3.1 2.2.1 2.3.1 2.3.1 2.3v2.2l.1 2.3.1-77.2h2.4l.1 70.1.1 2.3.1 2.2.1 2.3.1-76.9h2.3l.1 72.1.1 2.2.1 2.3V93.5h2.3l.1 71.7v2.3l.1 2.3.1-76.3h2.1l.1 71.4v2.3l.1 2.3.1-76h2l.1 71.1v2.3l.1 2.3.1-75.7h1.8l.1 68.6.1 2.2v2.3l.1 2.3V93.5h1.8l.1 68.3.1 2.2v2.3l.1 2.3v2.2l.1-77.3h1.6l.1 68 .1 2.2v2.3l.1 2.3v2.2l.1-77h1.6v67.7l.1 2.2v2.3l.1 2.3v2.2l.1-76.7h1.5v65.1l.1 2.3v2.2l.1 2.3v2.3l.1 2.2V93.5h1.4l.1 64.8.1 2.3v2.2l.1 2.3v2.3l.1 2.2V93.5h1.4V158l.1 2.3v2.2l.1 2.3v2.3l.1 2.2V93.5h1.3l.1 64.2v2.3l.1 2.2v2.3l.1 2.3v2.2l.1-75.5h1.2l.1 63.9v2.2l.1 2.3v2.3l.1 2.3v2.2-75.2h1.2l.1 61.3v2.3l.1 2.2v2.3l.1 2.3v4.5l.1 2.3V93.5h1.1l.1 61v2.3l.1 2.2v4.6l.1 2.3v2.2l.1 2.3V93.5h1.1v60.7l.1 2.3v2.2l.1 2.3v4.6l.1 2.2v2.3l.1-76.6h1v60.4l.1 2.3v2.2l.1 2.3v4.5l.1 2.3v2.3l.1-76.3h.9l.1 57.8v4.6l.1 2.2v2.3l.1 2.3v4.5l.1 2.3v-76h1v59.8l.1 2.3v2.2l.1 2.3v4.5l.1 2.3v2.3-75.7h1V153l.1 2.3v4.5l.1 2.3v2.2l.1 2.3v2.3-75.4h.9l.1 56.9v4.6l.1 2.2v4.6l.1 2.2v4.6l.1 2.2V93.5h.8l.1 56.6v2.3l.1 2.3v4.5l.1 2.3v4.5l.1 2.3v2.2-77h.8v54l.1 2.3v4.5l.1 2.3v4.6l.1 2.2v2.3l.1 2.3v2.2-76.7h.8v56l.1 2.3v4.5l.1 2.3v4.5l.1 2.3v4.5l.1-76.4h.7v53.4l.1 2.3v4.5l.1 2.3v4.6l.1 2.2v4.6l.1 2.2V93.5h.7l.1 53.1v4.6l.1 2.2v4.6l.1 2.3v6.8l.1 2.2V93.5h.7v52.8l.1 2.3v4.5l.1 2.3v4.6l.1 2.2v4.6l.1 2.2V93.5h.6l.1 50.3v4.5l.1 2.3v4.5l.1 2.3v4.5l.1 2.3v4.5-75.2h.7v52.2l.1 2.3v4.5l.1 2.3v4.5l.1 2.3v6.8l.1 2.3V93.5h.6v49.6l.1 2.3v4.6l.1 2.2v6.8l.1 2.3v4.6l.1 2.2v2.3-76.9h.6v49.3l.1 2.3v6.8l.1 2.3v4.5l.1 2.3v6.8l.1 2.3V93.5h.6v51.3l.1 2.3v6.8l.1 2.3v4.5l.1 2.3v6.8l.1-76.3h.5V140l.1 2.2v6.9l.1 2.2v4.6l.1 2.2v6.8l.1 2.3v2.3-76h.5l.1 46.2v6.8l.1 2.2v4.6l.1 2.3v6.8l.1 2.2v4.6-75.7h.6v50.4l.1 2.3v6.8l.1 2.3v4.5l.1 2.3v6.8l.1-75.4h.5v50.1l.1 2.3v6.8l.1 2.3v6.8l.1 2.2v4.6l.1 2.2V93.5h.4l.1 45.3v6.8l.1 2.2v6.9l.1 2.2v4.6l.1 2.2v6.8l.1-77h.3z"/><path fill="none" stroke="#ef4444" stroke-linejoin="round" stroke-width="1.5" d="m445.5 95.8 32.6 2.2 19.1 2.3 13.6 2.3 10.5 2.3 8.6 2.2 7.2 2.3 6.3 2.3 5.6 2.2 4.9 2.3 4.5 2.3 4.1 2.2 3.8 2.3 3.5 2.3 3.2 2.3 3.1 2.2 2.8 2.3 2.7 2.3 2.6 2.2 2.4 2.3 2.3 2.3 2.2 2.3 2.1 2.2 2 2.3 1.9 2.3 1.8 2.2 1.8 2.3 1.7 2.3 1.7 2.2 1.6 2.3 1.5 2.3 1.5 2.3 1.5 2.2 1.4 2.3L612.9 18l1.4 2.2 1.3 2.3 1.2 2.3L618 27l1.2 2.3 1.2 2.3 1.1 2.3 1.1 2.2 1.1 2.3 1.1 2.3 1 2.2 1 2.3 1 2.3 1 2.3.9 2.2 1 2.3.9 2.3.9 2.2.9 2.3.8 2.3.9 2.2.8 2.3.8 2.3.8 2.3.8 2.2.8 2.3.8 2.3.7 2.2.8 2.3.7 2.3.7 2.3.7 2.2.7 2.3.7 2.3.7 2.2.6 2.3.7 2.3.7 2.2.6 2.3.6 2.3.7 2.3.6 2.2.6 2.3.6 2.3.6 2.2.6 2.3.5 2.3.6 2.3.6 2.2.5 2.3.6 2.3.5 2.2.6 2.3.5 2.3.5 2.2.5 2.3.6 2.3.5 2.3.5 2.2.5 2.3.5 2.3.4 2.2.5 2.3.5 2.3.5 2.3.4 2.2.5 2.3.5-152.7.4 2.2.5 2.3.4 2.3.5 2.2.4 2.3.4 2.3.5 2.3.4 2.2.4 2.3.4 2.3.5 2.2.4 2.3.4 2.3.4 2.2.4 2.3.4 2.3.4 2.3.4 2.2.3 2.3.4 2.3.4 2.2.4 2.3.4 2.3.3 2.3.4 2.2.4 2.3.3 2.3.4 2.2.4 2.3.3 2.3.4 2.2.3 2.3.4 2.3.3 2.3.4 2.2.3 2.3.3 2.3.4 2.2.3 2.3.3 2.3.4 2.3.3 2.2.3 2.3.3 2.3.3 2.2.4 2.3.3 2.3.3 2.2.3 2.3.3 2.3.3 2.3.3 2.2.3 2.3.3 2.3.3 2.2.3 2.3.3 2.3.3 2.3.3 2.2.3 2.3.3 2.3.3 2.2.3 2.3.2 2.3.3 2.2.3 2.3.3 2.3.2-152.7.3 2.2.3 2.3.3 2.3.2 2.2.3 2.3.3 2.3.2 2.3.3 2.2.3 2.3.2 2.3.3 2.2.2 2.3.3 2.3.3 2.2.2 2.3.3 2.3.2 2.3.3 2.2.2 2.3.3 2.3.2 2.2.2 2.3.3 2.3.2 2.2.3 2.3.2 2.3.3 2.3.2 2.2.2 2.3.3 2.3.2 2.2.2 2.3.3 2.3.2 2.3.2 2.2.2 2.3.3 2.3.2 2.2.2 2.3.2 2.3.3 2.2.2 2.3.2 2.3.2 2.3.3 2.2.2 2.3.2 2.3.2 2.2.2 2.3.2 2.3.2 2.3.3 2.2.2 2.3.2 2.3.2 2.2.2 2.3.2 2.3.2 2.2.2 2.3.2 2.3.2 2.3.2 2.2.2 2.3.2 2.3.2 2.2.2 2.3.2 2.3.2-152.7.2 2.2.2 2.3.2 2.3.2 2.2.2 2.3.2 2.3.2 2.2.2 2.3.2 2.3.1 2.3.2 2.2.2 2.3.2 2.3.2 2.2.2 2.3.2 2.3.2 2.2.1 2.3.2 2.3.2 2.3.2 2.2.2 2.3.1 2.3.2 2.2.2 2.3.2 2.3.2 2.3.1 2.2.2 2.3.2 2.3.2 2.2.1 2.3.2 2.3.2 2.2.2 2.3.1 2.3.2 2.3.2 2.2.1 2.3.2 2.3.2 2.2.1 2.3.2 2.3.2 2.3.1 2.2.2 2.3.2 2.3.1 2.2.2 2.3.2 2.3.1 2.2.2 2.3.2 2.3.1 2.3.2 2.2.1 2.3.2 2.3.2 2.2.1 2.3.2 2.3.1 2.3.2 2.2.1 2.3.2 2.3.1 2.2.2 2.3.2 2.3.1 2.2.2-152.7.1 2.3.2 2.3.1 2.2.2 2.3.1 2.3.2 2.2.1 2.3.2 2.3.1 2.3.2 2.2.1 2.3.2 2.3.1 2.2.2 2.3.1 2.3.2 2.2.1 2.3.1 2.3.2 2.3.1 2.2.2 2.3.1 2.3.2 2.2.1 2.3.1 2.3.2 2.2.1 2.3.2 2.3.1 2.3.1 2.2.2 2.3.1 2.3.2 2.2.1 2.3.1 2.3.2 2.3.1 2.2.1 2.3.2 2.3.1 2.2.2 2.3.1 2.3.1 2.2.2 2.3.1 2.3.1 2.3.2 2.2.1 2.3.1 2.3.2 2.2.1 2.3.1 2.3.1 2.3.2 2.2.1 2.3.1 2.3.2 2.2.1 2.3.1 2.3.1 2.2.2 2.3.1 2.3.1 2.3.2 2.2.1 2.3.1 2.3.1 2.2.2-152.7.1 2.3.1 2.3.1 2.2.2 2.3.1 2.3.1 2.2.1 2.3.2 2.3.1 2.2.1 2.3.1 2.3.1 2.3.2 2.2.1 2.3.1 2.3.1 2.2.1 2.3.2 2.3.1 2.3.1 2.2.1 2.3.1 2.3.2 2.2.1 2.3.1 2.3.1 2.2.1 2.3.1 2.3.2 2.3.1 2.2.1 2.3.1 2.3.1 2.2.1 2.3.2 2.3.1 2.2.1 2.3.1 2.3.1 2.3.1 2.2.1 2.3.1 2.3.2 2.2.1 2.3.1 2.3.1 2.3.1 2.2.1 2.3.1 2.3.1 2.2.2 2.3.1 2.3.1 2.2.1 2.3.1 2.3.1 2.3.1 2.2.1 2.3.1 2.3.1 2.2.1 2.3.1 2.3.2 2.3.1 2.2.1 2.3.1 2.3.1 2.2.1-152.7.1 2.3.1 2.2.1 2.3.1 2.3.1 2.3.1 2.2.1 2.3.1 2.3.1 2.2.1 2.3.1 2.3.1 2.3.1 2.2.2 2.3.1 2.3.1 2.2.1 2.3.1 2.3.1 2.2.1 2.3.1 2.3.1 2.3.1 2.2.1 2.3.1 2.3.1 2.2.1 2.3.1 2.3.1 2.3.1 2.2.1 2.3.1 2.3.1 2.2.1 2.3.1 2.3.1 2.2.1 2.3.1 2.3.1 2.3.1 2.2.1 2.3v2.3l.1 2.2.1 2.3.1 2.3.1 2.2.1 2.3.1 2.3.1 2.3.1 2.2.1 2.3.1 2.3.1 2.2.1 2.3.1 2.3.1 2.3.1 2.2.1 2.3.1 2.3.1 2.2.1 2.3v2.3l.1 2.2.1 2.3.1 2.3.1 2.3.1 2.2.1 2.3.1-152.7.1 2.2.1 2.3.1 2.3.1 2.3.1 2.2v2.3l.1 2.3.1 2.2.1 79.8.1 2.3.1 2.2.1 2.3.1 2.3.1 2.3.1 2.2v2.3l.1 2.3.1 2.2.1 2.3.1 2.3.1 2.3.1 2.2.1 2.3v2.3l.1 2.2.1 2.3.1 2.3.1 2.2.1 2.3.1 2.3.1 2.3v2.2l.1 2.3.1-152.7.1 2.2.1 2.3.1 2.3.1 2.2v2.3l.1 2.3.1 2.3.1 2.2.1 2.3.1 2.3.1 2.2v2.3l.1 2.3.1 2.3.1 2.2.1 2.3.1 2.3v2.2l.1 2.3.1 2.3.1 2.2.1 2.3.1 2.3v2.3l.1 2.2.1 2.3.1 2.3.1 2.2v2.3l.1 79.8.1 2.3.1 2.2.1 2.3.1-152.7v2.2l.1 2.3.1 2.3.1 2.2.1 2.3v2.3l.1 2.3.1 2.2.1 2.3.1 2.3v2.2l.1 2.3.1 2.3.1 2.3.1 2.2V54l.1 2.3.1 2.2.1 2.3.1 2.3v2.2l.1 2.3.1 2.3.1 2.3v2.2l.1 2.3.1 2.3.1 2.2.1 2.3v2.3l.1 79.8.1 2.2.1 2.3V17.4l.1 2.2.1 2.3.1 2.3v2.2l.1 2.3.1 2.3.1 2.3v2.2l.1 2.3.1 2.3.1 2.2v2.3l.1 2.3.1 2.2.1 2.3v2.3l.1 2.3.1 2.2.1 2.3v2.3l.1 2.2.1 2.3.1 2.3v2.3l.1 2.2.1 2.3.1 2.3v2.2l.1 2.3.1 2.3.1 79.7v2.3l.1 2.3.1-152.7v2.2l.1 2.3.1 2.3.1 2.2v2.3l.1 2.3.1 2.3v2.2l.1 2.3.1 2.3.1 2.2v2.3l.1 2.3.1 2.2v2.3l.1 2.3.1 2.3.1 2.2v2.3l.1 2.3.1 2.2V67l.1 2.3.1 2.3v2.2l.1 2.3.1 2.3.1 2.2v2.3l.1 2.3.1 79.7v2.3l.1 2.3.1-152.7V19l.1 2.3.1 2.3v2.2l.1 2.3.1 2.3.1 2.3v2.2l.1 2.3.1 2.3v2.2l.1 2.3.1 2.3v2.2l.1 2.3.1 2.3v2.3l.1 2.2.1 2.3v2.3l.1 2.2.1 2.3V69l.1 2.2.1 2.3v2.3l.1 2.3.1 2.2v2.3l.1 2.3.1 79.7v2.3l.1 2.3.1-152.7v2.2l.1 2.3.1 2.3v2.2l.1 2.3.1 2.3v2.2l.1 2.3.1 2.3v2.3l.1 2.2v2.3l.1 2.3.1 2.2v2.3l.1 2.3.1 2.3v2.2l.1 2.3.1 2.3v2.2l.1 2.3.1 2.3v2.2l.1 2.3v2.3l.1 2.3.1 2.2v2.3l.1 79.8.1 2.2v2.3l.1 2.3V16.2l.1 2.2.1 2.3V23l.1 2.2.1 2.3v2.3l.1 2.2v2.3l.1 2.3.1 2.3v2.2l.1 2.3.1 2.3v2.2l.1 2.3v2.3l.1 2.2.1 2.3v2.3l.1 2.3v2.2l.1 2.3.1 2.3v2.2l.1 2.3v2.3l.1 2.3.1 2.2V82l.1 79.8.1 2.2v2.3l.1 2.3v2.2l.1-152.7.1 2.3v2.3l.1 2.2v2.3l.1 2.3v2.2l.1 2.3.1 2.3v2.3l.1 2.2v2.3l.1 2.3.1 2.2v2.3l.1 2.3v2.2l.1 2.3.1 2.3v2.3l.1 2.2v2.3l.1 2.3v2.2l.1 2.3.1 2.3v2.3l.1 2.2v2.3l.1 79.8.1 2.2v2.3l.1 2.3v2.2l.1-152.7v2.3l.1 2.3.1 2.2v2.3l.1 2.3v2.2l.1 2.3V36l.1 2.3.1 2.2v2.3l.1 2.3v2.2l.1 2.3v2.3l.1 2.2.1 2.3v2.3l.1 2.3v2.2l.1 2.3v2.3l.1 2.2v2.3l.1 2.3.1 2.2v2.3l.1 2.3v79.8l.1 2.2v2.3l.1 2.3v2.2l.1-152.7.1 2.3v2.3l.1 2.2v2.3l.1 2.3v2.2l.1 2.3v2.3l.1 2.2v2.3l.1 2.3.1 2.3V47l.1 2.3v2.3l.1 2.2v2.3l.1 2.3v2.3l.1 2.2v2.3l.1 2.3.1 2.2V72l.1 2.3v2.2l.1 2.3v79.8l.1 2.3v2.2l.1 2.3v2.3l.1 2.2V17.2l.1 2.3v2.3l.1 2.2v2.3l.1 2.3.1 2.2v2.3l.1 2.3v2.2l.1 2.3v2.3l.1 2.3v2.2l.1 2.3v2.3l.1 2.2v2.3l.1 2.3v2.3l.1 2.2v2.3l.1 2.3v2.2l.1 2.3V74l.1 2.2v2.3l.1 79.8.1 2.3v2.2l.1 2.3v2.3l.1 2.2V16.9l.1 2.3v2.2l.1 2.3V26l.1 2.3v2.2l.1 2.3v2.3l.1 2.2v2.3l.1 2.3v2.3l.1 2.2v2.3l.1 2.3v2.2l.1 2.3v2.3l.1 2.2v2.3l.1 2.3v2.3l.1 2.2v2.3l.1 2.3v2.2l.1 2.3V158l.1 2.3v2.2l.1 2.3v2.3l.1 2.2V16.6l.1 2.3v2.2l.1 2.3v2.3l.1 2.3v2.2l.1 2.3v2.3l.1 2.2v2.3l.1 2.3v4.5l.1 2.3v2.3l.1 2.2v2.3l.1 2.3v2.2l.1 2.3v2.3l.1 2.3v2.2l.1 2.3v2.3l.1 2.2v2.3l.1 79.8v2.3l.1 2.2v2.3l.1 2.3v2.2l.1-152.7v2.3l.1 2.2v4.6l.1 2.3v2.2l.1 2.3v2.3l.1 2.2V39l.1 2.3v2.2l.1 2.3v2.3l.1 2.3v2.2l.1 2.3v2.3l.1 2.2V64l.1 2.3v2.2l.1 2.3v2.3l.1 2.2v2.3l.1 79.8v2.2l.1 2.3v2.3l.1 2.3v2.2V16l.1 2.3v2.2l.1 2.3v2.3l.1 2.3v2.2l.1 2.3v2.3l.1 2.2v2.3l.1 2.3v4.5l.1 2.3v2.3l.1 2.2v2.3l.1 2.3v2.2l.1 2.3v2.3l.1 2.3v4.5l.1 2.3V75l.1 79.8v2.3l.1 2.2v2.3l.1 2.3v4.5l.1 2.3V18l.1 2.2v2.3l.1 2.3V27l.1 2.3v4.6l.1 2.2v2.3l.1 2.3v2.2l.1 2.3v2.3l.1 2.3v4.5l.1 2.3v2.2l.1 2.3v2.3l.1 2.2v4.6l.1 2.3v2.2l.1 79.8v2.3l.1 2.2v4.6l.1 2.3v2.2l.1 2.3V17.7l.1 2.2v4.6l.1 2.2V29l.1 2.3v2.3l.1 2.2v4.6l.1 2.2v2.3l.1 2.3v2.3l.1 2.2v4.6l.1 2.2v2.3l.1 2.3v2.2l.1 2.3v4.6l.1 2.2v79.8l.1 2.3v2.2l.1 2.3v4.6l.1 2.2v2.3l.1-152.7v4.5l.1 2.3v2.2l.1 2.3V31l.1 2.3v4.5l.1 2.3v2.2l.1 2.3v4.5l.1 2.3v2.3l.1 2.3v2.2l.1 2.3V65l.1 2.3v2.3l.1 2.3v82l.1 2.3v2.2l.1 2.3v4.5l.1 2.3v2.3l.1-152.7v4.5l.1 2.3v2.2l.1 2.3V33l.1 2.2v2.3l.1 2.3v4.5l.1 2.3v2.2l.1 2.3v4.6l.1 2.2v2.3l.1 2.3V67l.1 2.3v2.3l.1 79.7v4.6l.1 2.2v2.3l.1 2.3v4.5l.1 2.3V16.8l.1 2.2v4.6l.1 2.2v2.3l.1 2.3v4.5l.1 2.3v2.3l.1 2.2v4.6l.1 2.2v4.6l.1 2.3v2.2l.1 2.3v4.5l.1 2.3V69l.1 2.2v82.1l.1 2.3v2.2l.1 2.3v4.5l.1 2.3v2.3V16.5l.1 2.2V21l.1 2.3v4.5l.1 2.3v4.5l.1 2.3v2.3l.1 2.2V46l.1 2.2v2.3l.1 2.3v4.5l.1 2.3v4.5l.1 2.3v2.3l.1 2.2V153l.1 2.3v4.5l.1 2.3v2.2l.1 2.3v2.3V16.2l.1 2.2V23l.1 2.2v2.3l.1 2.3v4.5l.1 2.3v4.5l.1 2.3v4.5l.1 2.3v2.3l.1 2.3v4.5l.1 2.3v4.5l.1 2.3v2.2l.1 79.8v4.6l.1 2.2v4.6l.1 2.2v4.6l.1 2.2V18.1l.1 2.3v4.5l.1 2.3v4.5l.1 2.3v4.6l.1 2.2v2.3l.1 2.3v4.5l.1 2.3v4.5l.1 2.3v4.5l.1 2.3v4.5l.1 79.8v2.3l.1 2.3v4.5l.1 2.3v4.5l.1 2.3v2.2V17.8l.1 2.3v4.5l.1 2.3v4.5l.1 2.3V36l.1 2.3v4.5l.1 2.3v4.5l.1 2.3v4.5l.1 2.3v4.5l.1 2.3v82l.1 2.3v4.5l.1 2.3v4.6l.1 2.2v2.3l.1 2.3v2.2V17.5l.1 2.3v4.5l.1 2.3v4.5l.1 2.3v4.5l.1 2.3v4.6l.1 2.2v4.6l.1 2.2v4.6l.1 2.3v4.5l.1 2.3v82l.1 2.3v4.5l.1 2.3v4.5l.1 2.3v4.5l.1-152.7v4.6l.1 2.2v4.6l.1 2.2v4.6l.1 2.2v4.6l.1 2.3V49l.1 2.3v4.5l.1 2.3v4.5l.1 2.3v82l.1 2.3v4.5l.1 2.3v4.6l.1 2.2v4.6l.1 2.2V16.9v2.3l.1 2.2V26l.1 2.3v4.5l.1 2.3v4.5l.1 2.3v4.5l.1 2.3v4.5l.1 2.3V60l.1 2.3v4.6l.1 79.7v4.6l.1 2.2v4.6l.1 2.3v6.8l.1 2.2V16.6v2.3l.1 2.2v4.6l.1 2.3v4.5l.1 2.3v4.5l.1 2.3v4.5l.1 2.3v4.5l.1 2.3v4.5l.1 2.3v84.3l.1 2.3v4.5l.1 2.3v4.6l.1 2.2v4.6l.1 2.2V16.3v2.3l.1 2.2v6.9l.1 2.2v4.6l.1 2.2v4.6l.1 2.2v4.6l.1 2.3v4.5l.1 2.3V64l.1 79.8v4.5l.1 2.3v4.5l.1 2.3v4.5l.1 2.3v4.5V16l.1 2.3v4.5l.1 2.3v4.5l.1 2.3v4.5l.1 2.3v6.8l.1 2.3v4.5l.1 2.3v4.5l.1 2.3v84.3l.1 2.3v4.5l.1 2.3v4.5l.1 2.3v6.8l.1 2.3V18v2.2l.1 2.3V27l.1 2.3v6.8l.1 2.3v4.5l.1 2.3v4.6l.1 2.2v6.8l.1 2.3v82l.1 2.3v4.6l.1 2.2v6.8l.1 2.3v4.6l.1 2.2v2.3V17.7v2.2l.1 2.3v4.5l.1 2.3v4.6l.1 2.2v6.8l.1 2.3v4.6l.1 2.2v6.8l.1 2.3v82l.1 2.3v6.8l.1 2.3v4.5l.1 2.3v6.8l.1 2.3V17.4v2.2l.1 2.3v6.8l.1 2.3v4.5l.1 2.3v6.8l.1 2.3v4.5l.1 2.3v6.8l.1 2.3v82l.1 2.3v6.8l.1 2.3v4.5l.1 2.3v6.8l.1-152.7v4.5l.1 2.3v6.8l.1 2.3v4.5l.1 2.3v6.8l.1 2.2v6.9l.1 2.2V140l.1 2.2v6.9l.1 2.2v4.6l.1 2.2v6.8l.1 2.3v2.3V16.8 19l.1 2.3v4.5l.1 2.3v6.8l.1 2.3V44l.1 2.3v4.5l.1 2.3v6.8l.1 79.8v6.8l.1 2.2v4.6l.1 2.3v6.8l.1 2.2v4.6V16.5l.1 2.2v4.6l.1 2.2v6.8l.1 2.3v6.8l.1 2.3v4.5l.1 2.3v6.8l.1 2.3v84.3l.1 2.3v6.8l.1 2.3v4.5l.1 2.3v6.8l.1-152.7V23l.1 2.2V32l.1 2.3v6.8l.1 2.3v4.5l.1 2.3V57l.1 2.3v84.3l.1 2.3v6.8l.1 2.3v6.8l.1 2.2v4.6l.1 2.2V18.1v4.6l.1 2.2v6.8l.1 2.3v6.8l.1 2.3v6.8l.1 2.3V59l.1 79.8v6.8l.1 2.2v6.9l.1 2.2v4.6l.1 2.2v6.8l.1-152.7v6.8l.1 2.3v6.8l.1 2.3v6.8l.1 2.3v2.2"/></g><path stroke="#d1d5db" d="M34 221v155m0-77.5h358"/><text x="213" y="402" fill="#6b7280" font-size="9" text-anchor="middle">Hz</text><text x="12" y="298.5" fill="#6b7280" font-size="9" text-anchor="middle" transform="rotate(-90 12 298.5)">Delay (smp)</text><path stroke="#e5e7eb" stroke-width=".5" d="M66.6 221v155m19.1-155v155m13.6-155v155m10.5-155v155m8.6-155v155m7.3-155v155m6.2-155v155m5.6-155v155m37.6-155v155m19.1-155v155m13.5-155v155m10.6-155v155m8.5-155v155m7.3-155v155m6.3-155v155m5.5-155v155m37.6-155v155m19.1-155v155m13.6-155v155m10.5-155v155m8.6-155v155m7.3-155v155m6.2-155v155m5.6-155v155M392 221v155M142.5 221v155"/><text x="142.5" y="388" fill="#6b7280" font-size="8" text-anchor="middle">100</text><path stroke="#e5e7eb" stroke-width=".5" d="M250.9 221v155"/><text x="250.9" y="388" fill="#6b7280" font-size="8" text-anchor="middle">1k</text><path stroke="#e5e7eb" stroke-width=".5" d="M359.4 221v155"/><text x="359.4" y="388" fill="#6b7280" font-size="8" text-anchor="middle">10k</text><path stroke="#e5e7eb" stroke-width=".5" d="M34 376h358"/><text x="30" y="379" fill="#6b7280" font-size="8" text-anchor="end">-100</text><path stroke="#e5e7eb" stroke-width=".5" d="M34 337.3h358"/><text x="30" y="340.3" fill="#6b7280" font-size="8" text-anchor="end">-50</text><text x="30" y="301.5" fill="#6b7280" font-size="8" text-anchor="end">0</text><path stroke="#e5e7eb" stroke-width=".5" d="M34 259.8h358"/><text x="30" y="262.8" fill="#6b7280" font-size="8" text-anchor="end">50</text><path stroke="#e5e7eb" stroke-width=".5" d="M34 221h358"/><text x="30" y="224" fill="#6b7280" font-size="8" text-anchor="end">100</text><g clip-path="url(#f)"><path fill="url(#g)" d="M37.5 298.5V252H332l.1 46.5h.1l.1-46.5h4.5v46.5h.1l.1-46.5h2.6v46.5h.1l.1-46.5h2.3l.1 46.5h.1V252h2.2l.1 46.5h.1V252h2.1l.1 46.5h.1V252h2v46.5h.1l.1-46.5h1.9v46.5h.1l.1-46.5h1.8v46.5h.1l.1-46.5h1.7l.1 46.5.1-46.5h1.6l.1 46.5.1-46.5h1.6v46.5h.1l.1-46.5h1.5l.1 46.5.1-46.5h1.5v46.5h.1V252h1.5v46.5h.1V252h1.4v46.5h.1V252h1.4v46.5h.1V252h1.3l.1 46.5.1-46.5h1.3v46.5l.1-46.5h1.2v46.5h.1V252h1.2l.1 46.5V252h1.2l.1 46.5V252h1.2v46.5h.1V252h1.1v46.5h.1V252h1.1v46.5l.1-46.5h1l.1 46.5V252h1.1v46.5l.1-46.5h1v46.5h.1V252h1v46.5l.1-46.5h.9v46.5h.1V252h1v46.5V252h1v46.5l.1-46.5h.9v46.5l.1-46.5h.8l.1 46.5V252h.9v46.5l.1-46.5h.8v46.5h.1V252h.8l.1 46.5V252h.8l.1 46.5V252h.8v46.5h.1V252h.7v46.5z"/><path fill="url(#h)" d="M37.5 298.5H332l.1 77.5h.1l.1-77.5h4.5V376h.1l.1-77.5h2.6V376h.1l.1-77.5h2.3l.1 77.5h.1v-77.5h2.2l.1 77.5h.1v-77.5h2.1l.1 77.5h.1v-77.5h2V376h.1l.1-77.5h1.9V376h.1l.1-77.5h1.8V376h.1l.1-77.5h1.7l.1 77.5.1-77.5h1.6l.1 77.5.1-77.5h1.6V376h.1l.1-77.5h1.5l.1 77.5.1-77.5h1.5V376h.1v-77.5h1.5V376h.1v-77.5h1.4V376h.1v-77.5h1.4V376h.1v-77.5h1.3l.1 77.5.1-77.5h1.3V376l.1-77.5h1.2V376h.1v-77.5h1.2l.1 77.5v-77.5h1.2l.1 77.5v-77.5h1.2V376h.1v-77.5h1.1V376h.1v-77.5h1.1V376l.1-77.5h1l.1 77.5v-77.5h1.1V376l.1-77.5h1V376h.1v-77.5h1V376l.1-77.5h.9V376h.1v-77.5h1V376v-77.5h1V376l.1-77.5h.9V376l.1-77.5h.8l.1 77.5v-77.5h.9V376l.1-77.5h.8V376h.1v-77.5h.8l.1 77.5v-77.5h.8l.1 77.5v-77.5h.8V376h.1v-77.5h.7z"/><path fill="none" stroke="#22c55e" stroke-linejoin="round" stroke-width="1.5" d="M37.5 252H332l.1 124m.1 0 .1-124h4.5v124m.1 0 .1-124h2.6v124m.1 0 .1-124h2.3l.1 124m.1 0V252h2.2l.1 124m.1 0V252h2.1l.1 124m.1 0V252h2v124m.1 0 .1-124h1.9v124m.1 0 .1-124h1.8v124m.1 0 .1-124h1.7l.1 124m0 0 .1-124h1.6l.1 124"/><path fill="none" stroke="#22c55e" stroke-linejoin="round" stroke-width="1.5" d="m356.9 376 .1-124h1.6v124m.1 0 .1-124h1.5l.1 124"/><path fill="none" stroke="#22c55e" stroke-linejoin="round" stroke-width="1.5" d="m360.4 376 .1-124h1.5v124m.1 0V252h1.5v124m.1 0V252h1.4v124m.1 0V252h1.4v124m.1 0V252h1.3l.1 124m0 0 .1-124h1.3v124"/><path fill="none" stroke="#22c55e" stroke-linejoin="round" stroke-width="1.5" d="m369.5 376 .1-124h1.2v124m.1 0V252h1.2l.1 124m0 0V252h1.2l.1 124m0 0V252h1.2v124m.1 0V252h1.1v124m.1 0V252h1.1v124m0 0 .1-124h1l.1 124"/><path fill="none" stroke="#22c55e" stroke-linejoin="round" stroke-width="1.5" d="M378.3 376V252h1.1v124"/><path fill="none" stroke="#22c55e" stroke-linejoin="round" stroke-width="1.5" d="m379.4 376 .1-124h1v124m.1 0V252h1v124m0 0 .1-124h.9v124m.1 0V252h1v124m0 0V252h1v124m0 0 .1-124h.9v124m0 0 .1-124h.8l.1 124"/><path fill="none" stroke="#22c55e" stroke-linejoin="round" stroke-width="1.5" d="M386.7 376V252h.9v124m0 0 .1-124h.8v124m.1 0V252h.8l.1 124"/><path fill="none" stroke="#22c55e" stroke-linejoin="round" stroke-width="1.5" d="M389.5 376V252h.8l.1 124"/><path fill="none" stroke="#22c55e" stroke-linejoin="round" stroke-width="1.5" d="M390.4 376V252h.8v124m.1 0V252h.7"/></g><path stroke="#d1d5db" d="M442 221v155m0-77.5h358"/><text x="621" y="402" fill="#6b7280" font-size="9" text-anchor="middle">Samples</text><text x="420" y="298.5" fill="#6b7280" font-size="9" text-anchor="middle" transform="rotate(-90 420 298.5)">Impulse</text><path stroke="#e5e7eb" stroke-width=".5" d="M442 221v155"/><text x="442" y="388" fill="#6b7280" font-size="8" text-anchor="middle">0</text><path stroke="#e5e7eb" stroke-width=".5" d="M589.9 221v155"/><text x="589.9" y="388" fill="#6b7280" font-size="8" text-anchor="middle">50</text><path stroke="#e5e7eb" stroke-width=".5" d="M737.9 221v155"/><text x="737.9" y="388" fill="#6b7280" font-size="8" text-anchor="middle">100</text><path stroke="#e5e7eb" stroke-width=".5" d="M442 363.1h358"/><text x="438" y="366.1" fill="#6b7280" font-size="8" text-anchor="end">-1</text><text x="438" y="301.5" fill="#6b7280" font-size="8" text-anchor="end">0</text><path stroke="#e5e7eb" stroke-width=".5" d="M442 233.9h358"/><text x="438" y="236.9" fill="#6b7280" font-size="8" text-anchor="end">1</text><path stroke="#e5e7eb" stroke-dasharray="3 2" stroke-width=".5" d="M442 233.9h358"/><text x="438" y="236.9" fill="#6b7280" font-size="7" text-anchor="end">+1</text><path stroke="#e5e7eb" stroke-dasharray="3 2" stroke-width=".5" d="M442 363.1h358"/><text x="438" y="366.1" fill="#6b7280" font-size="7" text-anchor="end">-1</text><g clip-path="url(#i)"><path fill="url(#j)" d="M442 298.5h35.5l3-.1h2.9l3 .1h14.8l2.9-.1 3-.1h2.9l3 .1 3 .1h11.8l3-.3 2.9-.1 3 .1 2.9.2 3 .1h8.9l2.9-.1 3-.5 2.9-.2 3 .1 3 .6 2.9.1h8.9l3-.3 2.9-1 3-.4 2.9.3 3 1.2 3 .2h8.8l3-1.6 2.9-4.2 3-4.3 3-3.2 2.9-1.2 3 1.2 2.9 3.2 3 4.3 3 4.2 2.9 1.6h8.9l2.9-.2 3-1.2 3-.3 2.9.4 3 1 2.9.3h8.9l3-.1 2.9-.6 3-.1 3 .2 2.9.5 3 .1h8.8l3-.1 3-.2 2.9-.1 3 .1 2.9.3h11.9l2.9-.1 3-.1h3l2.9.1 3 .1h14.8l2.9-.1h3l2.9.1H797z"/><path fill="url(#k)" d="M442 298.5h23.7l2.9.1 3-.1h17.7l3 .1h5.9l3-.1H513l3 .1 2.9.1 3 .1 2.9-.1 3-.2h11.8l3 .2 3 .3 2.9.1 3-.3 2.9-.3h11.9l2.9.5 3 .5 2.9.1 3-.5 3-.6h11.8l3 1.5 2.9 1.3 3 .2 2.9-1.5 3-1.5h23.7l2.9 1.5 3 1.5 2.9-.2 3-1.3 2.9-1.5H658l2.9.6 3 .5 3-.1 2.9-.5 3-.5h11.8l3 .3 2.9.3 3-.1 2.9-.3 3-.2h11.8l3 .2 3 .1 2.9-.1 3-.1 2.9-.1h11.9l2.9.1h5.9l3-.1h17.8l2.9.1 3-.1H797z"/><path fill="none" stroke="#eab308" stroke-linejoin="round" stroke-width="1.2" d="M442 298.5h23.7l2.9.1 3-.1h5.9l3-.1h2.9l3 .1h2.9l3 .1h5.9l3-.1 2.9-.1 3-.1h2.9l3 .1 3 .2 2.9.1 3 .1 2.9-.1 3-.2 3-.3 2.9-.1 3 .1 2.9.2 3 .3 3 .3 2.9.1 3-.3 2.9-.4 3-.5 2.9-.2 3 .1 3 .6 2.9.6 3 .5 2.9.1 3-.5 3-.9 2.9-1 3-.4 2.9.3 3 1.2 3 1.7 2.9 1.3 3 .2 2.9-1.5 3-3.1 2.9-4.2 3-4.3 3-3.2 2.9-1.2 3 1.2 2.9 3.2 3 4.3 3 4.2 2.9 3.1 3 1.5 2.9-.2 3-1.3 2.9-1.7 3-1.2 3-.3 2.9.4 3 1 2.9.9 3 .5 3-.1 2.9-.5 3-.6 2.9-.6 3-.1 3 .2 2.9.5 3 .4 2.9.3 3-.1 2.9-.3 3-.3 3-.2 2.9-.1 3 .1 2.9.3 3 .2 3 .1 2.9-.1 3-.1 2.9-.2 3-.1h3l2.9.1 3 .1 2.9.1h5.9l3-.1h3l2.9-.1h3l2.9.1h6l2.9.1 3-.1H797"/></g></svg>