<svg xmlns="http://www.w3.org/2000/svg" style="font-family:system-ui,-apple-system,sans-serif" viewBox="0 0 820 392"><defs><linearGradient id="b" x1="0" x2="0" y1="47" y2="171" gradientUnits="userSpaceOnUse"><stop offset="0%" stop-color="#3b82f6" stop-opacity=".15"/><stop offset="100%" stop-color="#3b82f6" stop-opacity=".01"/></linearGradient><linearGradient id="d" x1="0" x2="0" y1="87" y2="94" gradientUnits="userSpaceOnUse"><stop offset="0%" stop-color="#ef4444" stop-opacity=".15"/><stop offset="100%" stop-color="#ef4444" stop-opacity=".01"/></linearGradient><linearGradient id="e" x1="0" x2="0" y1="94" y2="171" gradientUnits="userSpaceOnUse"><stop offset="0%" stop-color="#ef4444" stop-opacity=".01"/><stop offset="100%" stop-color="#ef4444" stop-opacity=".15"/></linearGradient><linearGradient id="g" x1="0" x2="0" y1="221" y2="299" gradientUnits="userSpaceOnUse"><stop offset="0%" stop-color="#22c55e" stop-opacity=".15"/><stop offset="100%" stop-color="#22c55e" stop-opacity=".01"/></linearGradient><linearGradient id="h" x1="0" x2="0" y1="299" y2="376" gradientUnits="userSpaceOnUse"><stop offset="0%" stop-color="#22c55e" stop-opacity=".01"/><stop offset="100%" stop-color="#22c55e" stop-opacity=".15"/></linearGradient><linearGradient id="j" x1="0" x2="0" y1="296" y2="299" gradientUnits="userSpaceOnUse"><stop offset="0%" stop-color="#eab308" stop-opacity=".15"/><stop offset="100%" stop-color="#eab308" stop-opacity=".01"/></linearGradient><linearGradient id="k" x1="0" x2="0" y1="299" y2="300" gradientUnits="userSpaceOnUse"><stop offset="0%" stop-color="#eab308" stop-opacity=".01"/><stop offset="100%" stop-color="#eab308" stop-opacity=".15"/></linearGradient><clipPath id="a"><path d="M34 16h358v155H34z"/></clipPath><clipPath id="c"><path d="M442 16h358v155H442z"/></clipPath><clipPath id="f"><path d="M34 221h358v155H34z"/></clipPath><clipPath id="i"><path d="M442 221h358v155H442z"/></clipPath></defs><text x="800" y="11" fill="#6b7280" font-size="11" font-weight="600" text-anchor="end">Elliptic order 4, 1dB/40dB</text><path stroke="#d1d5db" d="M34 16v155m0-124h358"/><text x="213" y="197" fill="#6b7280" font-size="9" text-anchor="middle">Hz</text><text x="12" y="93.5" fill="#6b7280" font-size="9" text-anchor="middle" transform="rotate(-90 12 93.5)">dB</text><path stroke="#e5e7eb" stroke-width=".5" d="M66.6 16v155M85.7 16v155M99.3 16v155m10.5-155v155m8.6-155v155m7.3-155v155m6.2-155v155m5.6-155v155m37.6-155v155m19.1-155v155m13.5-155v155m10.6-155v155m8.5-155v155m7.3-155v155m6.3-155v155m5.5-155v155m37.6-155v155m19.1-155v155m13.6-155v155m10.5-155v155m8.6-155v155m7.3-155v155m6.2-155v155m5.6-155v155M392 16v155M34 16v155"/><text x="34" y="183" fill="#6b7280" font-size="8" text-anchor="middle">10</text><path stroke="#e5e7eb" stroke-width=".5" d="M142.5 16v155"/><text x="142.5" y="183" fill="#6b7280" font-size="8" text-anchor="middle">100</text><path stroke="#e5e7eb" stroke-width=".5" d="M250.9 16v155"/><text x="250.9" y="183" fill="#6b7280" font-size="8" text-anchor="middle">1k</text><path stroke="#e5e7eb" stroke-width=".5" d="M359.4 16v155"/><text x="359.4" y="183" fill="#6b7280" font-size="8" text-anchor="middle">10k</text><path stroke="#e5e7eb" stroke-width=".5" d="M34 171h358M34 140h358M34 109h358M34 78h358M34 16h358M34 62.5h358m-358-31h358"/><text x="30" y="174" fill="#6b7280" font-size="8" text-anchor="end">-80</text><text x="30" y="143" fill="#6b7280" font-size="8" text-anchor="end">-60</text><text x="30" y="112" fill="#6b7280" font-size="8" text-anchor="end">-40</text><text x="30" y="81" fill="#6b7280" font-size="8" text-anchor="end">-20</text><text x="30" y="50" fill="#6b7280" font-size="8" text-anchor="end">0</text><text x="30" y="19" fill="#6b7280" font-size="8" text-anchor="end">+20</text><g clip-path="url(#a)"><path fill="url(#b)" d="M37.5 171V48.5h91.6l6.3-.1h10.5l4.5-.1h4.1l3.8-.1h3.5l3.2-.1h3.1l2.8-.1h2.7l2.6-.1h2.4l2.3-.1 2.2-.1h2.1l2-.1h1.9l1.8-.1 1.8-.1h1.7l1.7-.1h1.6l1.5-.1h1.5l1.5-.1h2.7l1.4-.1h8.3l1.1.1h2.1l1 .1h1l1 .1h.9l1 .1.9.1h.9l.9.1.8.1.9.1h.8l.8.1.8.1.8.1.8.1h.8l.7.1.8.1h.7l.7.1h5.4l.6-.1.7-.1.6-.1.6-.1.6-.1.6-.1.6-.2.5-.1.6-.2.6-.1.5-.1.6-.1.5-.1h.6l.5.1.5.2.5.3.6.4.5.6.5.8.5.8.5 1 .4 1.1.5 1.1.5 1.2.5 1.3.4 1.2.5 1.3.5 1.3.4 1.3.5 1.3.4 1.2.5 1.3.4 1.2.4 1.3.5 1.2.4 1.2.4 1.2.4 1.2.5 1.2.4 1.2.4 1.2.4 1.1.4 1.2.4 1.2.4 1.1.4 1.2.3 1.2.4 1.2.4 1.2.4 1.2.4 1.2.3 1.2.4 1.3.4 1.2.3 1.3.4 1.3.4 1.4.3 1.4.4 1.4.3 1.5.4 1.5.3 1.6.4 1.7.3 1.8.3 2 .4 2.1.3 2.3.3 2.5.4 2.9.3 3.5.3 4.2.3 5.8.3 9.2.4 30.4.3-26.9.3-9.6.3-5.2.3-3.5.3-2.6.3-2.1.3-1.6.3-1.4.3-1.2.3-.9.3-.9.3-.8.3-.6.3-.6.3-.5.3-.5.3-.4.2-.3.3-.4.3-.3.3-.2.2-.2.3-.2.3-.2.3-.2.2-.1.3-.1.3-.1.2-.1.3-.1.3-.1h.5l.2-.1h1.3l.3.1h.5l.2.1h.2l.3.1h.2l.3.1.2.1.3.1h.2l.2.1.3.1.2.1.2.1.3.1.2.1.2.1.2.1.3.2.2.1.2.1.2.1.3.2.2.1.2.1.2.2.3.1.2.2.2.1.2.2.2.1.2.2.2.1.3.2.2.1.2.2.2.2.2.1.2.2.2.2.2.2.2.1.2.2.2.2.2.2.2.2.2.2.2.2.2.2.2.2.2.2.2.2.2.2.2.2.2.2.2.2.2.2.2.3.2.2.1.2.2.3.2.2.2.2.2.3.2.2.2.2.2.3.1.2.2.3.2.3.2.2.2.3.1.3.2.2.2.3.2.3.2.3.1.3.2.3.2.3.2.3.1.3.2.3.2.3.2.4.1.3.2.3.2.4.1.3.2.4.2.4.1.4.2.3.2.4.1.4.2.5.2.4.1.4.2.5.2.4.1.5.2.5.2.5.1.5.2.5.1.6.2.6.2.5.1.7.2.6.1.7.2.7.1.7.2.7.1.9.2.8.2.9.1 1 .2 1 .1 1.1.2 1.2.1 1.3.2 1.4.1 1.6.2 1.7.1 2.1.2 2.3.1 2.9.2 3.6.1 4.9.2 3.6h.4l.2-5.4.1-4.2.1-3.2.2-2.5.1-2.2.2-1.8.1-1.6.2-1.4.1-1.3.1-1.2.2-1 .1-1 .2-.9.1-.8.1-.8.2-.8.1-.6.2-.7.1-.6.1-.6.2-.6.1-.5.1-.5.2-.5.1-.5.2-.4.1-.5.1-.4.2-.4.1-.4.1-.3.2-.4.1-.3.1-.4.2-.3.1-.3.1-.3.1-.3.2-.3.1-.3.1-.3.2-.2.1-.3.1-.3.1-.2.2-.2.1-.3.1-.2.2-.2.1-.2.1-.3.1-.2.2-.2.1-.2.1-.2.1-.2.2-.2.1-.1.1-.2.1-.2.2-.2.1-.1.1-.2.1-.2.1-.1.2-.2.1-.1.1-.2.1-.1.1-.2.2-.1.1-.2.1-.1.1-.1.1-.2.2-.1.1-.1.1-.2.1-.1.1-.1.1-.1.2-.2.1-.1.1-.1.1-.1.1-.1.1-.1.2-.2.1-.1.1-.1.1-.1.1-.1.1-.1.1-.1.1-.1.2-.1.1-.1.1-.1.1-.1.1-.1h.1l.1-.1.1-.1.2-.1.1-.1.1-.1.1-.1.1-.1h.1l.1-.1.1-.1.1-.1.1-.1h.1l.1-.1.2-.1.1-.1h.1l.1-.1.1-.1.1-.1h.1l.1-.1.1-.1h.1l.1-.1.1-.1h.1l.1-.1.1-.1h.1l.1-.1.1-.1h.1l.2-.1h.1l.1-.1.1-.1h.1l.1-.1h.1l.1-.1.1-.1h.1l.1-.1h.1l.1-.1h.1l.1-.1h.1l.1-.1h.1l.1-.1h.1l.1-.1h.1l.1-.1h.1l.1-.1h.1l.1-.1h.1v-.1h.1l.1-.1h.1l.1-.1h.1l.1-.1h.2l.1-.1h.1l.1-.1h.1l.1-.1h.2l.1-.1h.1l.1-.1h.1l.1-.1h.2l.1-.1h.1l.1-.1h.2l.1-.1h.2l.1-.1h.1l.1-.1h.1l.1-.1h.2l.1-.1h.2v-.1h.3l.1-.1h.2l.1-.1h.1l.1-.1h.2l.1-.1h.2l.1-.1h.2l.1-.1h.2l.1-.1h.3l.1-.1h.2l.1-.1h.3v-.1h.3l.1-.1h.2l.1-.1h.2l.1-.1h.4v-.1h.3l.1-.1h.3l.1-.1h.3l.1-.1h.3l.1-.1h.3v-.1h.4v-.1h.3l.1-.1h.4l.1-.1h.3l.1-.1h.4l.1-.1h.3l.1-.1h.5v-.1h.5v-.1h.5v-.1h.5v-.1h.5l.1-.1h.5v-.1h.5l.1-.1h.5l.1-.1h.5l.1-.1h.5l.1-.1h.6v-.1h.7l.1-.1h.5l.1-.1h.7v-.1h.7l.1-.1h.7l.1-.1h.7l.1-.1h.7l.1-.1h.9v-.1h.9v-.1h.9l.1-.1h1v-.1h1l.1-.1h1.1v-.1h1.2v-.1h1.2l.1-.1h1.3v-.1h1.5v-.1h1.5l.1-.1h1.6l.1-.1h1.8l.1-.1h2v-.1h2.3l.1-.1h2.6v-.1h3.1v-.1h3.9v-.1h5.6l.1-.1h2.6v62z"/><path fill="none" stroke="#3b82f6" stroke-linejoin="round" stroke-width="1.5" d="M37.5 48.5h91.6l6.3-.1h10.5l4.5-.1h4.1l3.8-.1h3.5l3.2-.1h3.1l2.8-.1h2.7l2.6-.1h2.4l2.3-.1 2.2-.1h2.1l2-.1h1.9l1.8-.1 1.8-.1h1.7l1.7-.1h1.6l1.5-.1h1.5l1.5-.1h2.7l1.4-.1h8.3l1.1.1h2.1l1 .1h1l1 .1h.9l1 .1.9.1h.9l.9.1.8.1.9.1h.8l.8.1.8.1.8.1.8.1h.8l.7.1.8.1h.7l.7.1h5.4l.6-.1.7-.1.6-.1.6-.1.6-.1.6-.1.6-.2.5-.1.6-.2.6-.1.5-.1.6-.1.5-.1h.6l.5.1.5.2.5.3.6.4.5.6.5.8.5.8.5 1 .4 1.1.5 1.1.5 1.2.5 1.3.4 1.2.5 1.3.5 1.3.4 1.3.5 1.3.4 1.2.5 1.3.4 1.2.4 1.3.5 1.2.4 1.2.4 1.2.4 1.2.5 1.2.4 1.2.4 1.2.4 1.1.4 1.2.4 1.2.4 1.1.4 1.2.3 1.2.4 1.2.4 1.2.4 1.2.4 1.2.3 1.2.4 1.3.4 1.2.3 1.3.4 1.3.4 1.4.3 1.4.4 1.4.3 1.5.4 1.5.3 1.6.4 1.7.3 1.8.3 2 .4 2.1.3 2.3.3 2.5.4 2.9.3 3.5.3 4.2.3 5.8.3 9.2.4 30.4m0 0 .3-26.9.3-9.6.3-5.2.3-3.5.3-2.6.3-2.1.3-1.6.3-1.4.3-1.2.3-.9.3-.9.3-.8.3-.6.3-.6.3-.5.3-.5.3-.4.2-.3.3-.4.3-.3.3-.2.2-.2.3-.2.3-.2.3-.2.2-.1.3-.1.3-.1.2-.1.3-.1.3-.1h.5l.2-.1h1.3l.3.1h.5l.2.1h.2l.3.1h.2l.3.1.2.1.3.1h.2l.2.1.3.1.2.1.2.1.3.1.2.1.2.1.2.1.3.2.2.1.2.1.2.1.3.2.2.1.2.1.2.2.3.1.2.2.2.1.2.2.2.1.2.2.2.1.3.2.2.1.2.2.2.2.2.1.2.2.2.2.2.2.2.1.2.2.2.2.2.2.2.2.2.2.2.2.2.2.2.2.2.2.2.2.2.2.2.2.2.2.2.2.2.2.2.3.2.2.1.2.2.3.2.2.2.2.2.3.2.2.2.2.2.3.1.2.2.3.2.3.2.2.2.3.1.3.2.2.2.3.2.3.2.3.1.3.2.3.2.3.2.3.1.3.2.3.2.3.2.4.1.3.2.3.2.4.1.3.2.4.2.4.1.4.2.3.2.4.1.4.2.5.2.4.1.4.2.5.2.4.1.5.2.5.2.5.1.5.2.5.1.6.2.6.2.5.1.7.2.6.1.7.2.7.1.7.2.7.1.9.2.8.2.9.1 1 .2 1 .1 1.1.2 1.2.1 1.3.2 1.4.1 1.6.2 1.7.1 2.1.2 2.3.1 2.9.2 3.6.1 4.9.2 3.6m.4 0 .2-5.4.1-4.2.1-3.2.2-2.5.1-2.2.2-1.8.1-1.6.2-1.4.1-1.3.1-1.2.2-1 .1-1 .2-.9.1-.8.1-.8.2-.8.1-.6.2-.7.1-.6.1-.6.2-.6.1-.5.1-.5.2-.5.1-.5.2-.4.1-.5.1-.4.2-.4.1-.4.1-.3.2-.4.1-.3.1-.4.2-.3.1-.3.1-.3.1-.3.2-.3.1-.3.1-.3.2-.2.1-.3.1-.3.1-.2.2-.2.1-.3.1-.2.2-.2.1-.2.1-.3.1-.2.2-.2.1-.2.1-.2.1-.2.2-.2.1-.1.1-.2.1-.2.2-.2.1-.1.1-.2.1-.2.1-.1.2-.2.1-.1.1-.2.1-.1.1-.2.2-.1.1-.2.1-.1.1-.1.1-.2.2-.1.1-.1.1-.2.1-.1.1-.1.1-.1.2-.2.1-.1.1-.1.1-.1.1-.1.1-.1.2-.2.1-.1.1-.1.1-.1.1-.1.1-.1.1-.1.1-.1.2-.1.1-.1.1-.1.1-.1.1-.1h.1l.1-.1.1-.1.2-.1.1-.1.1-.1.1-.1.1-.1h.1l.1-.1.1-.1.1-.1.1-.1h.1l.1-.1.2-.1.1-.1h.1l.1-.1.1-.1.1-.1h.1l.1-.1.1-.1h.1l.1-.1.1-.1h.1l.1-.1.1-.1h.1l.1-.1.1-.1h.1l.2-.1h.1l.1-.1.1-.1h.1l.1-.1h.1l.1-.1.1-.1h.1l.1-.1h.1l.1-.1h.1l.1-.1h.1l.1-.1h.1l.1-.1h.1l.1-.1h.1l.1-.1h.1l.1-.1h.1l.1-.1h.1v-.1h.1l.1-.1h.1l.1-.1h.1l.1-.1h.2l.1-.1h.1l.1-.1h.1l.1-.1h.2l.1-.1h.1l.1-.1h.1l.1-.1h.2l.1-.1h.1l.1-.1h.2l.1-.1h.2l.1-.1h.1l.1-.1h.1l.1-.1h.2l.1-.1h.2v-.1h.3l.1-.1h.2l.1-.1h.1l.1-.1h.2l.1-.1h.2l.1-.1h.2l.1-.1h.2l.1-.1h.3l.1-.1h.2l.1-.1h.3v-.1h.3l.1-.1h.2l.1-.1h.2l.1-.1h.4v-.1h.3l.1-.1h.3l.1-.1h.3l.1-.1h.3l.1-.1h.3v-.1h.4v-.1h.3l.1-.1h.4l.1-.1h.3l.1-.1h.4l.1-.1h.3l.1-.1h.5v-.1h.5v-.1h.5v-.1h.5v-.1h.5l.1-.1h.5v-.1h.5l.1-.1h.5l.1-.1h.5l.1-.1h.5l.1-.1h.6v-.1h.7l.1-.1h.5l.1-.1h.7v-.1h.7l.1-.1h.7l.1-.1h.7l.1-.1h.7l.1-.1h.9v-.1h.9v-.1h.9l.1-.1h1v-.1h1l.1-.1h1.1v-.1h1.2v-.1h1.2l.1-.1h1.3v-.1h1.5v-.1h1.5l.1-.1h1.6l.1-.1h1.8l.1-.1h2v-.1h2.3l.1-.1h2.6v-.1h3.1v-.1h3.9v-.1h5.6l.1-.1h2.6"/></g><path stroke="#d1d5db" d="M442 16v155m0-77.5h358"/><text x="621" y="197" fill="#6b7280" font-size="9" text-anchor="middle">Hz</text><text x="420" y="93.5" fill="#6b7280" font-size="9" text-anchor="middle" transform="rotate(-90 420 93.5)">Phase (deg)</text><path stroke="#e5e7eb" stroke-width=".5" d="M474.6 16v155m19.1-155v155m13.6-155v155m10.5-155v155m8.6-155v155m7.3-155v155m6.2-155v155m5.6-155v155m37.6-155v155m19.1-155v155m13.5-155v155m10.6-155v155m8.5-155v155m7.3-155v155m6.3-155v155m5.5-155v155m37.6-155v155m19.1-155v155m13.6-155v155m10.5-155v155m8.6-155v155m7.3-155v155m6.2-155v155m5.6-155v155M800 16v155M442 16v155"/><text x="442" y="183" fill="#6b7280" font-size="8" text-anchor="middle">10</text><path stroke="#e5e7eb" stroke-width=".5" d="M550.5 16v155"/><text x="550.5" y="183" fill="#6b7280" font-size="8" text-anchor="middle">100</text><path stroke="#e5e7eb" stroke-width=".5" d="M658.9 16v155"/><text x="658.9" y="183" fill="#6b7280" font-size="8" text-anchor="middle">1k</text><path stroke="#e5e7eb" stroke-width=".5" d="M767.4 16v155"/><text x="767.4" y="183" fill="#6b7280" font-size="8" text-anchor="middle">10k</text><path stroke="#e5e7eb" stroke-width=".5" d="M442 54.8h358m-358 77.5h358M442 16h358"/><text x="438" y="19" fill="#6b7280" font-size="8" text-anchor="end">+180</text><text x="438" y="96.5" fill="#6b7280" font-size="8" text-anchor="end">0</text><path stroke="#e5e7eb" stroke-width=".5" d="M442 171h358"/><text x="438" y="174" fill="#6b7280" font-size="8" text-anchor="end">-180</text><g clip-path="url(#c)"><path fill="url(#d)" d="M445.5 93.5h271.8l.2-6.8.1.1h.4l.2.1h.6l.1.1h.4l.2.1h.5l.2.1h.5l.1.1h.6l.1.1h.6l.1.1h.6l.2.1h.5l.1.1h.7l.1.1h.6l.1.1h.7l.1.1h.7l.1.1h.6l.1.1h.7l.2.1h.7l.1.1h.8l.1.1h.6l.2.1h.7l.1.1h.8l.1.1h.8l.1.1h.9l.1.1h.8l.1.1h.9l.1.1h.8l.1.1h.9l.1.1h.9l.1.1h.9l.1.1h1l.1.1h.9l.1.1h1.1v.1h1.1l.1.1h1.1v.1h1.2v.1h1.2l.1.1h1.1l.1.1h1.2l.1.1h1.2l.1.1h1.2l.1.1h1.3v.1h1.4l.1.1h1.3l.1.1h1.4v.1h1.5v.1h1.5l.1.1h1.5l.1.1h1.5l.1.1h1.6l.1.1h1.6l.1.1h1.7v.1h1.7l.1.1h1.8v.1h1.8l.1.1h1.8l.1.1h1.9v.1h2v.1h2v.1h2v.1h2l.1.1h2v.1h2l.1.1h2v.1h2.1v.1h2v.1h2v.1h.1v.2z"/><path fill="url(#e)" d="M445.5 93.5v.6l32.6.6 19.1.6 13.6.6 10.5.6 8.6.6 7.2.6 6.3.6 5.6.6 4.9.6 4.5.6 4.1.6 3.8.7 3.5.6 3.2.7 3.1.6 2.8.7 2.7.7 2.6.6 2.4.7 2.3.7 2.2.8 2.1.7 2 .7 1.9.8 1.8.7 1.8.8 1.7.8 1.7.8 1.6.8 1.5.8 1.5.9 1.5.8 1.4.9 1.3.8 1.4.9 1.3.9 1.2.9 1.2.9 1.2.9 1.2.9 1.1 1 1.1.9 1.1.9 1.1.9 1 1 1 .9 1 1 1 .9.9.9 1 1 .9.9.9.9.9.9.8.9.9 1 .8.9.8.9.8.9.8.9.8.9.8.8.7.9.8.9.7.9.7.9.7.9.7.9.7.9.7 1 .6.9.7 1 .7 1 .6 1 .6 1.1.7 1.1.6 1.1.6 1.2.6 1.3.6 1.3.6 1.4.5 1.6.6 1.6.6 1.8.5 1.9.6 1.9h25.9l.3-17 .3.2.3.1.3.2.3.2.3.1.3.2.3.1.3.1.3.2.3.1.3.1.3.2.3.1.3.1.3.1.3.2.2.1.3.1.3.1.3.1.2.1.3.1.3.1.3.1.2.1.3.1.3.1.2.1.3.1.3.1.2.1.3.1.2.1.3.1.3.1.2.1h.3l.2.1.3.1.2.1.3.1.2.1h.2l.3.1.2.1.3.1h.2l.3.1.2.1.2.1h.3l.2.1.2.1h.3l.2.1.2.1h.2l.3.1.2.1h.2l.2.1h.3l.2.1.2.1h.2l.3.1h.2l.2.1h.2l.2.1.2.1h.2l.3.1h.2l.2.1h.2l.2.1h.2l.2.1h.2l.2.1h.2l.2.1h.2l.2.1h.2l.2.1h.2l.2.1h.4l.2.1h.2l.2.1h.2l.2.1h.4l.1.1h.2l.2.1h.4l.2.1h.2l.2.1h.3l.2.1h.2l.2.1h.3l.2.1h.4l.1.1h.4l.2.1h.3l.2.1h.3l.2.1h.3l.2.1h.3l.2.1h.3l.2.1h.5l.2.1h.3l.2.1h.3l.1.1h.5l.2.1h.4l.2.1h.5l.1.1h.3l.2.1h.4l.2.1h.6l.1.1h.3l.2-70.7H800z"/><path fill="none" stroke="#ef4444" stroke-linejoin="round" stroke-width="1.5" d="m445.5 94.1 32.6.6 19.1.6 13.6.6 10.5.6 8.6.6 7.2.6 6.3.6 5.6.6 4.9.6 4.5.6 4.1.6 3.8.7 3.5.6 3.2.7 3.1.6 2.8.7 2.7.7 2.6.6 2.4.7 2.3.7 2.2.8 2.1.7 2 .7 1.9.8 1.8.7 1.8.8 1.7.8 1.7.8 1.6.8 1.5.8 1.5.9 1.5.8 1.4.9 1.3.8 1.4.9 1.3.9 1.2.9 1.2.9 1.2.9 1.2.9 1.1 1 1.1.9 1.1.9 1.1.9 1 1 1 .9 1 1 1 .9.9.9 1 1 .9.9.9.9.9.9.8.9.9 1 .8.9.8.9.8.9.8.9.8.9.8.8.7.9.8.9.7.9.7.9.7.9.7.9.7.9.7 1 .6.9.7 1 .7 1 .6 1 .6 1.1.7 1.1.6 1.1.6 1.2.6 1.3.6 1.3.6 1.4.5 1.6.6 1.6.6 1.8.5 1.9.6 1.9m25.9 0 .3-17 .3.2.3.1.3.2.3.2.3.1.3.2.3.1.3.1.3.2.3.1.3.1.3.2.3.1.3.1.3.1.3.2.2.1.3.1.3.1.3.1.2.1.3.1.3.1.3.1.2.1.3.1.3.1.2.1.3.1.3.1.2.1.3.1.2.1.3.1.3.1.2.1h.3l.2.1.3.1.2.1.3.1.2.1h.2l.3.1.2.1.3.1h.2l.3.1.2.1.2.1h.3l.2.1.2.1h.3l.2.1.2.1h.2l.3.1.2.1h.2l.2.1h.3l.2.1.2.1h.2l.3.1h.2l.2.1h.2l.2.1.2.1h.2l.3.1h.2l.2.1h.2l.2.1h.2l.2.1h.2l.2.1h.2l.2.1h.2l.2.1h.2l.2.1h.2l.2.1h.4l.2.1h.2l.2.1h.2l.2.1h.4l.1.1h.2l.2.1h.4l.2.1h.2l.2.1h.3l.2.1h.2l.2.1h.3l.2.1h.4l.1.1h.4l.2.1h.3l.2.1h.3l.2.1h.3l.2.1h.3l.2.1h.3l.2.1h.5l.2.1h.3l.2.1h.3l.1.1h.5l.2.1h.4l.2.1h.5l.1.1h.3l.2.1h.4l.2.1h.6l.1.1h.3l.2-77.5.1.1h.4l.2.1h.6l.1.1h.4l.2.1h.5l.2.1h.5l.1.1h.6l.1.1h.6l.1.1h.6l.2.1h.5l.1.1h.7l.1.1h.6l.1.1h.7l.1.1h.7l.1.1h.6l.1.1h.7l.2.1h.7l.1.1h.8l.1.1h.6l.2.1h.7l.1.1h.8l.1.1h.8l.1.1h.9l.1.1h.8l.1.1h.9l.1.1h.8l.1.1h.9l.1.1h.9l.1.1h.9l.1.1h1l.1.1h.9l.1.1h1.1v.1h1.1l.1.1h1.1v.1h1.2v.1h1.2l.1.1h1.1l.1.1h1.2l.1.1h1.2l.1.1h1.2l.1.1h1.3v.1h1.4l.1.1h1.3l.1.1h1.4v.1h1.5v.1h1.5l.1.1h1.5l.1.1h1.5l.1.1h1.6l.1.1h1.6l.1.1h1.7v.1h1.7l.1.1h1.8v.1h1.8l.1.1h1.8l.1.1h1.9v.1h2v.1h2v.1h2v.1h2l.1.1h2v.1h2l.1.1h2v.1h2.1v.1h2v.1h2v.1h.1"/></g><path stroke="#d1d5db" d="M34 221v155m0-77.5h358"/><text x="213" y="402" fill="#6b7280" font-size="9" text-anchor="middle">Hz</text><text x="12" y="298.5" fill="#6b7280" font-size="9" text-anchor="middle" transform="rotate(-90 12 298.5)">Delay (smp)</text><path stroke="#e5e7eb" stroke-width=".5" d="M66.6 221v155m19.1-155v155m13.6-155v155m10.5-155v155m8.6-155v155m7.3-155v155m6.2-155v155m5.6-155v155m37.6-155v155m19.1-155v155m13.5-155v155m10.6-155v155m8.5-155v155m7.3-155v155m6.3-155v155m5.5-155v155m37.6-155v155m19.1-155v155m13.6-155v155m10.5-155v155m8.6-155v155m7.3-155v155m6.2-155v155m5.6-155v155M392 221v155M34 221v155"/><text x="34" y="388" fill="#6b7280" font-size="8" text-anchor="middle">10</text><path stroke="#e5e7eb" stroke-width=".5" d="M142.5 221v155"/><text x="142.5" y="388" fill="#6b7280" font-size="8" text-anchor="middle">100</text><path stroke="#e5e7eb" stroke-width=".5" d="M250.9 221v155"/><text x="250.9" y="388" fill="#6b7280" font-size="8" text-anchor="middle">1k</text><path stroke="#e5e7eb" stroke-width=".5" d="M359.4 221v155"/><text x="359.4" y="388" fill="#6b7280" font-size="8" text-anchor="middle">10k</text><path stroke="#e5e7eb" stroke-width=".5" d="M34 376h358"/><text x="30" y="379" fill="#6b7280" font-size="8" text-anchor="end">-100</text><path stroke="#e5e7eb" stroke-width=".5" d="M34 337.3h358"/><text x="30" y="340.3" fill="#6b7280" font-size="8" text-anchor="end">-50</text><text x="30" y="301.5" fill="#6b7280" font-size="8" text-anchor="end">0</text><path stroke="#e5e7eb" stroke-width=".5" d="M34 259.8h358"/><text x="30" y="262.8" fill="#6b7280" font-size="8" text-anchor="end">50</text><path stroke="#e5e7eb" stroke-width=".5" d="M34 221h358"/><text x="30" y="224" fill="#6b7280" font-size="8" text-anchor="end">100</text><g clip-path="url(#f)"><path fill="url(#g)" d="M37.5 298.5v-.1l32.6-.2 19.1-.1 13.6-.2 10.5-.1 8.6-.2 7.2-.1 6.3-.1 5.6-.2 4.9-.1 4.5-.1 4.1-.1 3.8-.1 3.5-.1 3.2-.1 3.1-.1 2.8-.1h2.7l2.6-.1h2.4l2.3-.1h6.3l1.9.1h3.6l1.7.1 1.7.1 1.6.1 1.5.1 1.5.2 1.5.1 1.4.2 1.3.2 1.4.2 1.3.2 1.2.2 1.2.3 1.2.2h26.4l.6-.4.7-.5.7-.5.6-.5.6-.6.7-.6.6-.5.6-.6.6-.5.6-.4.6-.4.5-.1h.6l.6.4.5.8.6 1.3.5 1.9.6 1.2h24.8l.3-77.5h1.2l.3 8.8.3 12.3.3 9.1.3 7 .3 5.6.3 4.6.3 3.7.3 3.2.3 2.7.3 2.3.3 2 .3 1.8.2 1.6.3 1.4.3 1.2.3 1.1.2 1 .3 1 .3.8.3.8.2.7.3.6.3.6.2.6.3.5.3.4.2.5.3.4.2.4.3.3.3.4.2.1h25.7l.2-77.5h.7l.1 3.7.2 9.8.1 7.6.2 6 .1 4.9.1 4 .2 3.4.1 2.9.2 2.6.1 2.1.1 2 .2 1.7.1 1.5.2 1.4.1 1.2.1 1.1.2 1.1.1.9.1.9.2.8.1.7.2.7.1.6.1.6.2.6.1.5.1.5.2.4.1.4.1.4.2.4.1.4.1.3.1.4.2.3.1.3.1.2.2.3.1.3.1.2.1.2.2.3.1.2.1.2.2.2.1.2.1.2.1.1.2.2.1.2.1.1.1.2.2.1.1.2.1.1.1.1.2.2.1.1.1.1.1.1.1.1.2.1.1.1.1.1.1.1.1.1.2.1.1.1.1.1.1.1.1.1.2.1.1.1h.1l.1.1.1.1h.1l.2.1.1.1.1.1h.1l.1.1h.1l.2.1.1.1h.1l.1.1h.1l.1.1h.1l.1.1h.2l.1.1h.1l.1.1h.1l.1.1h.1l.1.1h.3l.1.1h.1l.1.1h.2l.1.1h.1l.1.1h.2l.2.1h.2l.1.1h.2l.1.1h.3l.1.1h.3l.1.1h.2l.1.1h.5l.1.1h.3l.1.1h.4l.1.1h.4l.1.1h.4l.1.1h.5v.1h.6l.1.1h.6l.1.1h.6l.1.1h.7l.1.1h.8l.1.1h.9v.1h1l.1.1h1.1l.1.1h1.2l.1.1h1.5l.1.1h1.7l.1.1h2l.1.1h2.6l.1.1h3.3l.1.1h4.6v.1h7.1l.1.1h15.1l.1.1H392z"/><path fill="url(#h)" d="M37.5 298.5h173.7l1.2.3 1.1.2 1.1.3 1.1.2 1.1.3 1 .2 1 .2 1 .2 1 .2.9.2 1 .2.9.2.9.1.9.1h.8l.9.1h1.6l.8-.1.8-.1.8-.1.8-.1.7-.2.8-.2.7-.3.7-.3.7-.3.7-.4.7-.4.7-.4.6-.1h9.6l.6 1.5.5 3.5.5 4.2.5 4.9.6 5.3.5 5.4.5 5.2.5 4.6.5 4 .4 3.2.5 2.4.5 1.8.5 1.1.4.7.5.3.5.1.4-.1.5-.3.4-.4.5-.4.4-.4.4-.4.5-.4.4-.4.4-.3.4-.3.5-.3.4-.2.4-.2.4-.1.4-.1h.4l.4.1.4.1.3.2.4.2.4.4.4.4.4.5.3.6.4.7.4.8.3 1 .4 1.1.4 1.3.3 1.6.4 1.8.3 2.1.4 2.4.3 2.9.4 3.6.3 4.2.3 5.3.4 2.3h2.6l.3-77.5h9.9l.2.2.3.3.2.3.3.3.2.2.3.3.2.2.2.2.3.2.2.2.3.2.2.2.3.2.2.2.2.1.3.2.2.1.2.2.3.1.2.2.2.1.2.1.3.2.2.1.2.1.2.1.3.1.2.1.2.2.2.1.3.1.2.1.2.1.2.1.2.1.2.1.2.1.3.1h.2l.2.1.2.1.2.1.2.1.2.1.2.1.2.1.2.1.2.1.2.1.2.1.2.1.2.1.2.1h.2l.2.1.2.1.2.1.2.1.2.1.2.1.2.1.2.2.2.1.1.1.2.1.2.1.2.1.2.1.2.2.2.1.2.1.1.1.2.2.2.1.2.1.2.2.1.1.2.2.2.1.2.2.2.2.1.2.2.1.2.2.2.2.1.2.2.2.2.2.2.3.1.2.2.2.2.3.1.3.2.2.2.3.1.3.2.4.2.3.1.4.2.3.2.4.1.4.2.5.2.5.1.5.2.5.2.6.1.6.2.6.1.7.2.8.2.8.1.9.2 1 .1 1 .2 1.2.1 1.3.2 1.4.1 1.6.2 1.8.2 2 .1 2.3.2 2.7.1 3 .2 3.7.1 4.3.2 5.2.1 6.6.2 8.3.1 6.6h.9l.2-77.5H392z"/><path fill="none" stroke="#22c55e" stroke-linejoin="round" stroke-width="1.5" d="m37.5 298.4 32.6-.2 19.1-.1 13.6-.2 10.5-.1 8.6-.2 7.2-.1 6.3-.1 5.6-.2 4.9-.1 4.5-.1 4.1-.1 3.8-.1 3.5-.1 3.2-.1 3.1-.1 2.8-.1h2.7l2.6-.1h2.4l2.3-.1h6.3l1.9.1h3.6l1.7.1 1.7.1 1.6.1 1.5.1 1.5.2 1.5.1 1.4.2 1.3.2 1.4.2 1.3.2 1.2.2 1.2.3 1.2.2 1.2.3 1.1.2 1.1.3 1.1.2 1.1.3 1 .2 1 .2 1 .2 1 .2.9.2 1 .2.9.2.9.1.9.1h.8l.9.1h1.6l.8-.1.8-.1.8-.1.8-.1.7-.2.8-.2.7-.3.7-.3.7-.3.7-.4.7-.4.7-.4.6-.5.7-.5.7-.5.6-.5.6-.6.7-.6.6-.5.6-.6.6-.5.6-.4.6-.4.5-.1h.6l.6.4.5.8.6 1.3.5 1.9.6 2.7.5 3.5.5 4.2.5 4.9.6 5.3.5 5.4.5 5.2.5 4.6.5 4 .4 3.2.5 2.4.5 1.8.5 1.1.4.7.5.3.5.1.4-.1.5-.3.4-.4.5-.4.4-.4.4-.4.5-.4.4-.4.4-.3.4-.3.5-.3.4-.2.4-.2.4-.1.4-.1h.4l.4.1.4.1.3.2.4.2.4.4.4.4.4.5.3.6.4.7.4.8.3 1 .4 1.1.4 1.3.3 1.6.4 1.8.3 2.1.4 2.4.3 2.9.4 3.6.3 4.2.3 5.3.4 2.3m4.1-155 .3 8.8.3 12.3.3 9.1.3 7 .3 5.6.3 4.6.3 3.7.3 3.2.3 2.7.3 2.3.3 2 .3 1.8.2 1.6.3 1.4.3 1.2.3 1.1.2 1 .3 1 .3.8.3.8.2.7.3.6.3.6.2.6.3.5.3.4.2.5.3.4.2.4.3.3.3.4.2.3.3.3.2.3.3.3.2.2.3.3.2.2.2.2.3.2.2.2.3.2.2.2.3.2.2.2.2.1.3.2.2.1.2.2.3.1.2.2.2.1.2.1.3.2.2.1.2.1.2.1.3.1.2.1.2.2.2.1.3.1.2.1.2.1.2.1.2.1.2.1.2.1.3.1h.2l.2.1.2.1.2.1.2.1.2.1.2.1.2.1.2.1.2.1.2.1.2.1.2.1.2.1.2.1h.2l.2.1.2.1.2.1.2.1.2.1.2.1.2.1.2.2.2.1.1.1.2.1.2.1.2.1.2.1.2.2.2.1.2.1.1.1.2.2.2.1.2.1.2.2.1.1.2.2.2.1.2.2.2.2.1.2.2.1.2.2.2.2.1.2.2.2.2.2.2.3.1.2.2.2.2.3.1.3.2.2.2.3.1.3.2.4.2.3.1.4.2.3.2.4.1.4.2.5.2.5.1.5.2.5.2.6.1.6.2.6.1.7.2.8.2.8.1.9.2 1 .1 1 .2 1.2.1 1.3.2 1.4.1 1.6.2 1.8.2 2 .1 2.3.2 2.7.1 3 .2 3.7.1 4.3.2 5.2.1 6.6.2 8.3.1 6.6m1.8-155 .1 3.7.2 9.8.1 7.6.2 6 .1 4.9.1 4 .2 3.4.1 2.9.2 2.6.1 2.1.1 2 .2 1.7.1 1.5.2 1.4.1 1.2.1 1.1.2 1.1.1.9.1.9.2.8.1.7.2.7.1.6.1.6.2.6.1.5.1.5.2.4.1.4.1.4.2.4.1.4.1.3.1.4.2.3.1.3.1.2.2.3.1.3.1.2.1.2.2.3.1.2.1.2.2.2.1.2.1.2.1.1.2.2.1.2.1.1.1.2.2.1.1.2.1.1.1.1.2.2.1.1.1.1.1.1.1.1.2.1.1.1.1.1.1.1.1.1.2.1.1.1.1.1.1.1.1.1.2.1.1.1h.1l.1.1.1.1h.1l.2.1.1.1.1.1h.1l.1.1h.1l.2.1.1.1h.1l.1.1h.1l.1.1h.1l.1.1h.2l.1.1h.1l.1.1h.1l.1.1h.1l.1.1h.3l.1.1h.1l.1.1h.2l.1.1h.1l.1.1h.2l.2.1h.2l.1.1h.2l.1.1h.3l.1.1h.3l.1.1h.2l.1.1h.5l.1.1h.3l.1.1h.4l.1.1h.4l.1.1h.4l.1.1h.5v.1h.6l.1.1h.6l.1.1h.6l.1.1h.7l.1.1h.8l.1.1h.9v.1h1l.1.1h1.1l.1.1h1.2l.1.1h1.5l.1.1h1.7l.1.1h2l.1.1h2.6l.1.1h3.3l.1.1h4.6v.1h7.1l.1.1h15.1l.1.1H392"/></g><path stroke="#d1d5db" d="M442 221v155m0-77.5h358"/><text x="621" y="402" fill="#6b7280" font-size="9" text-anchor="middle">Samples</text><text x="420" y="298.5" fill="#6b7280" font-size="9" text-anchor="middle" transform="rotate(-90 420 298.5)">Impulse</text><path stroke="#e5e7eb" stroke-width=".5" d="M442 221v155"/><text x="442" y="388" fill="#6b7280" font-size="8" text-anchor="middle">0</text><path stroke="#e5e7eb" stroke-width=".5" d="M531.5 221v155"/><text x="531.5" y="388" fill="#6b7280" font-size="8" text-anchor="middle">32</text><path stroke="#e5e7eb" stroke-width=".5" d="M621 221v155"/><text x="621" y="388" fill="#6b7280" font-size="8" text-anchor="middle">64</text><path stroke="#e5e7eb" stroke-width=".5" d="M710.5 221v155"/><text x="710.5" y="388" fill="#6b7280" font-size="8" text-anchor="middle">96</text><path stroke="#e5e7eb" stroke-width=".5" d="M800 221v155"/><text x="800" y="388" fill="#6b7280" font-size="8" text-anchor="middle">128</text><path stroke="#e5e7eb" stroke-width=".5" d="M442 363.1h358"/><text x="438" y="366.1" fill="#6b7280" font-size="8" text-anchor="end">-1</text><text x="438" y="301.5" fill="#6b7280" font-size="8" text-anchor="end">0</text><path stroke="#e5e7eb" stroke-width=".5" d="M442 233.9h358"/><text x="438" y="236.9" fill="#6b7280" font-size="8" text-anchor="end">1</text><path stroke="#e5e7eb" stroke-dasharray="3 2" stroke-width=".5" d="M442 233.9h358"/><text x="438" y="236.9" fill="#6b7280" font-size="7" text-anchor="end">+1</text><path stroke="#e5e7eb" stroke-dasharray="3 2" stroke-width=".5" d="M442 363.1h358"/><text x="438" y="366.1" fill="#6b7280" font-size="7" text-anchor="end">-1</text><g clip-path="url(#i)"><path fill="url(#j)" d="M442 298.5v-.6l2.8.5 2.8-.1 2.8-.2 2.8-.1 2.8-.2 2.8-.1 2.8-.1 2.8-.2 2.8-.1 2.8-.2 2.8-.1 2.8-.2 2.8-.1 2.8-.2 2.8-.1 2.8-.1 2.7-.2 2.8-.1 2.8-.1 2.8-.1 2.8-.1 2.8-.1h11.2l2.8.1 2.8.1 2.8.1 2.8.1 2.8.2 2.8.1 2.8.2 2.8.2 2.8.3 2.8.2 2.8.2 2.8.3 2.8.2 2.8.2 2.8.2 2.8.2h64.3l2.8-.1 2.8-.1 2.8-.1h2.8l2.8-.1 2.8-.1h16.8l2.8.1h2.8l2.8.1h2.7l2.8.1 2.8.1h2.8l2.8.1h61.6l2.8-.1h2.8l2.8-.1h5.6l2.7-.1h8.4l2.8-.1h2.8l2.8.1H786l2.8.1h5.6l2.8.1v.1z"/><path fill="url(#k)" d="M442 298.5h117.5l2.8.2 2.8.2 2.8.2 2.8.1 2.8.2 2.8.1 2.7.1h5.6l2.8.1 2.8-.1h5.6l2.8-.1 2.8-.1 2.8-.1 2.8-.1 2.8-.1 2.8-.1 2.8-.1 2.8-.1 2.8-.2 2.8-.1h55.9l2.8.1h2.8l2.8.1 2.8.1h2.8l2.8.1h8.4l2.8.1h2.8l2.8-.1h8.4l2.8-.1h2.8l2.8-.1h2.8l2.8-.1h2.8l2.8-.1h55.9z"/><path fill="none" stroke="#eab308" stroke-linejoin="round" stroke-width="1.2" d="m442 297.9 2.8.5 2.8-.1 2.8-.2 2.8-.1 2.8-.2 2.8-.1 2.8-.1 2.8-.2 2.8-.1 2.8-.2 2.8-.1 2.8-.2 2.8-.1 2.8-.2 2.8-.1 2.8-.1 2.7-.2 2.8-.1 2.8-.1 2.8-.1 2.8-.1 2.8-.1h11.2l2.8.1 2.8.1 2.8.1 2.8.1 2.8.2 2.8.1 2.8.2 2.8.2 2.8.3 2.8.2 2.8.2 2.8.3 2.8.2 2.8.2 2.8.2 2.8.2 2.8.2 2.8.2 2.8.2 2.8.1 2.8.2 2.8.1 2.7.1h5.6l2.8.1 2.8-.1h5.6l2.8-.1 2.8-.1 2.8-.1 2.8-.1 2.8-.1 2.8-.1 2.8-.1 2.8-.1 2.8-.2 2.8-.1 2.8-.1 2.8-.1 2.8-.1h2.8l2.8-.1 2.8-.1h16.8l2.8.1h2.8l2.8.1h2.7l2.8.1 2.8.1h2.8l2.8.1 2.8.1h2.8l2.8.1 2.8.1h2.8l2.8.1h8.4l2.8.1h2.8l2.8-.1h8.4l2.8-.1h2.8l2.8-.1h2.8l2.8-.1h2.8l2.8-.1 2.8-.1h2.8l2.8-.1h5.6l2.7-.1h8.4l2.8-.1h2.8l2.8.1H786l2.8.1h5.6l2.8.1"/></g></svg>