<svg xmlns="http://www.w3.org/2000/svg" style="font-family:system-ui,-apple-system,sans-serif" viewBox="0 0 820 392"><defs><clipPath id="a"><path d="M34 16h358v155H34z"/></clipPath><clipPath id="b"><path d="M442 16h358v155H442z"/></clipPath><clipPath id="c"><path d="M34 221h358v155H34z"/></clipPath><clipPath id="d"><path d="M442 221h358v155H442z"/></clipPath></defs><text x="800" y="11" fill="#6b7280" font-size="11" font-weight="600" text-anchor="end">IIR families, order 4, fc=1kHz</text><path stroke="#d1d5db" d="M34 16v155m0-124h358"/><text x="213" y="197" fill="#6b7280" font-size="9" text-anchor="middle">Hz</text><text x="12" y="93.5" fill="#6b7280" font-size="9" text-anchor="middle" transform="rotate(-90 12 93.5)">dB</text><path stroke="#e5e7eb" stroke-width=".5" d="M66.6 16v155M85.7 16v155M99.3 16v155m10.5-155v155m8.6-155v155m7.3-155v155m6.2-155v155m5.6-155v155m37.6-155v155m19.1-155v155m13.5-155v155m10.6-155v155m8.5-155v155m7.3-155v155m6.3-155v155m5.5-155v155m37.6-155v155m19.1-155v155m13.6-155v155m10.5-155v155m8.6-155v155m7.3-155v155m6.2-155v155m5.6-155v155M392 16v155M34 16v155"/><text x="34" y="183" fill="#6b7280" font-size="8" text-anchor="middle">10</text><path stroke="#e5e7eb" stroke-width=".5" d="M142.5 16v155"/><text x="142.5" y="183" fill="#6b7280" font-size="8" text-anchor="middle">100</text><path stroke="#e5e7eb" stroke-width=".5" d="M250.9 16v155"/><text x="250.9" y="183" fill="#6b7280" font-size="8" text-anchor="middle">1k</text><path stroke="#e5e7eb" stroke-width=".5" d="M359.4 16v155"/><text x="359.4" y="183" fill="#6b7280" font-size="8" text-anchor="middle">10k</text><path stroke="#e5e7eb" stroke-width=".5" d="M34 171h358M34 140h358M34 109h358M34 78h358M34 16h358M34 62.5h358m-358-31h358"/><text x="30" y="174" fill="#6b7280" font-size="8" text-anchor="end">-80</text><text x="30" y="143" fill="#6b7280" font-size="8" text-anchor="end">-60</text><text x="30" y="112" fill="#6b7280" font-size="8" text-anchor="end">-40</text><text x="30" y="81" fill="#6b7280" font-size="8" text-anchor="end">-20</text><text x="30" y="50" fill="#6b7280" font-size="8" text-anchor="end">0</text><text x="30" y="19" fill="#6b7280" font-size="8" text-anchor="end">+20</text><path stroke="#d1d5db" stroke-dasharray="4 3" d="M250.9 16v155"/><path stroke="#d1d5db" d="M442 16v155m0-77.5h358"/><text x="621" y="197" fill="#6b7280" font-size="9" text-anchor="middle">Hz</text><text x="420" y="93.5" fill="#6b7280" font-size="9" text-anchor="middle" transform="rotate(-90 420 93.5)">Phase (deg)</text><path stroke="#e5e7eb" stroke-width=".5" d="M474.6 16v155m19.1-155v155m13.6-155v155m10.5-155v155m8.6-155v155m7.3-155v155m6.2-155v155m5.6-155v155m37.6-155v155m19.1-155v155m13.5-155v155m10.6-155v155m8.5-155v155m7.3-155v155m6.3-155v155m5.5-155v155m37.6-155v155m19.1-155v155m13.6-155v155m10.5-155v155m8.6-155v155m7.3-155v155m6.2-155v155m5.6-155v155M800 16v155M442 16v155"/><text x="442" y="183" fill="#6b7280" font-size="8" text-anchor="middle">10</text><path stroke="#e5e7eb" stroke-width=".5" d="M550.5 16v155"/><text x="550.5" y="183" fill="#6b7280" font-size="8" text-anchor="middle">100</text><path stroke="#e5e7eb" stroke-width=".5" d="M658.9 16v155"/><text x="658.9" y="183" fill="#6b7280" font-size="8" text-anchor="middle">1k</text><path stroke="#e5e7eb" stroke-width=".5" d="M767.4 16v155"/><text x="767.4" y="183" fill="#6b7280" font-size="8" text-anchor="middle">10k</text><path stroke="#e5e7eb" stroke-width=".5" d="M442 54.8h358m-358 77.5h358M442 16h358"/><text x="438" y="19" fill="#6b7280" font-size="8" text-anchor="end">+180</text><text x="438" y="96.5" fill="#6b7280" font-size="8" text-anchor="end">0</text><path stroke="#e5e7eb" stroke-width=".5" d="M442 171h358"/><text x="438" y="174" fill="#6b7280" font-size="8" text-anchor="end">-180</text><path stroke="#d1d5db" stroke-dasharray="4 3" d="M658.9 16v155"/><path stroke="#d1d5db" d="M34 221v155m0-77.5h358"/><text x="213" y="402" fill="#6b7280" font-size="9" text-anchor="middle">Hz</text><text x="12" y="298.5" fill="#6b7280" font-size="9" text-anchor="middle" transform="rotate(-90 12 298.5)">Delay (smp)</text><path stroke="#e5e7eb" stroke-width=".5" d="M66.6 221v155m19.1-155v155m13.6-155v155m10.5-155v155m8.6-155v155m7.3-155v155m6.2-155v155m5.6-155v155m37.6-155v155m19.1-155v155m13.5-155v155m10.6-155v155m8.5-155v155m7.3-155v155m6.3-155v155m5.5-155v155m37.6-155v155m19.1-155v155m13.6-155v155m10.5-155v155m8.6-155v155m7.3-155v155m6.2-155v155m5.6-155v155M392 221v155M34 221v155"/><text x="34" y="388" fill="#6b7280" font-size="8" text-anchor="middle">10</text><path stroke="#e5e7eb" stroke-width=".5" d="M142.5 221v155"/><text x="142.5" y="388" fill="#6b7280" font-size="8" text-anchor="middle">100</text><path stroke="#e5e7eb" stroke-width=".5" d="M250.9 221v155"/><text x="250.9" y="388" fill="#6b7280" font-size="8" text-anchor="middle">1k</text><path stroke="#e5e7eb" stroke-width=".5" d="M359.4 221v155"/><text x="359.4" y="388" fill="#6b7280" font-size="8" text-anchor="middle">10k</text><path stroke="#e5e7eb" stroke-width=".5" d="M34 376h358"/><text x="30" y="379" fill="#6b7280" font-size="8" text-anchor="end">-100</text><path stroke="#e5e7eb" stroke-width=".5" d="M34 337.3h358"/><text x="30" y="340.3" fill="#6b7280" font-size="8" text-anchor="end">-50</text><text x="30" y="301.5" fill="#6b7280" font-size="8" text-anchor="end">0</text><path stroke="#e5e7eb" stroke-width=".5" d="M34 259.8h358"/><text x="30" y="262.8" fill="#6b7280" font-size="8" text-anchor="end">50</text><path stroke="#e5e7eb" stroke-width=".5" d="M34 221h358"/><text x="30" y="224" fill="#6b7280" font-size="8" text-anchor="end">100</text><path stroke="#d1d5db" stroke-dasharray="4 3" d="M250.9 221v155"/><path stroke="#d1d5db" d="M442 221v155m0-77.5h358"/><text x="621" y="402" fill="#6b7280" font-size="9" text-anchor="middle">Samples</text><text x="420" y="298.5" fill="#6b7280" font-size="9" text-anchor="middle" transform="rotate(-90 420 298.5)">Impulse</text><path stroke="#e5e7eb" stroke-width=".5" d="M442 221v155"/><text x="442" y="388" fill="#6b7280" font-size="8" text-anchor="middle">0</text><path stroke="#e5e7eb" stroke-width=".5" d="M581.8 221v155"/><text x="581.8" y="388" fill="#6b7280" font-size="8" text-anchor="middle">50</text><path stroke="#e5e7eb" stroke-width=".5" d="M721.7 221v155"/><text x="721.7" y="388" fill="#6b7280" font-size="8" text-anchor="middle">100</text><path stroke="#e5e7eb" stroke-width=".5" d="M442 363.1h358"/><text x="438" y="366.1" fill="#6b7280" font-size="8" text-anchor="end">-1</text><text x="438" y="301.5" fill="#6b7280" font-size="8" text-anchor="end">0</text><path stroke="#e5e7eb" stroke-width=".5" d="M442 233.9h358"/><text x="438" y="236.9" fill="#6b7280" font-size="8" text-anchor="end">1</text><path stroke="#e5e7eb" stroke-dasharray="3 2" stroke-width=".5" d="M442 233.9h358"/><text x="438" y="236.9" fill="#6b7280" font-size="7" text-anchor="end">+1</text><path stroke="#e5e7eb" stroke-dasharray="3 2" stroke-width=".5" d="M442 363.1h358"/><text x="438" y="366.1" fill="#6b7280" font-size="7" text-anchor="end">-1</text><g clip-path="url(#a)"><path fill="none" stroke="#3b82f6" stroke-linejoin="round" stroke-width="1.3" d="M37.5 47h184.2l1 .1h5.2l.8.1h2.4l.8.1h1.5l.7.1h.7l.7.1h.7l.7.1.7.1h.6l.7.1.7.1.6.1.6.1.7.1.6.2.6.1.6.1.6.2.6.1.5.2.6.2.6.2.5.2.6.2.5.2.6.3.5.2.5.3.5.2.6.3.5.3.5.3.5.3.5.3.4.3.5.4.5.3.5.4.4.3.5.4.5.3.4.4.5.4.4.3.5.4.4.4.4.4.5.4.4.4.4.4.4.4.5.4.4.4.4.4.4.4.4.4.4.4.4.4.4.4.3.4.4.4.4.4.4.4.4.4.3.4.4.3.4.4.3.4.4.4.4.4.3.4.4.4.3.4.4.3.3.4.4.4.3.4.3.4.4.3.3.4.3.4.4.3.3.4.3.4.3.3.3.4.4.3.3.4.3.4.3.3.3.4.3.3.3.4.3.3.3.3.3.4.3.3.3.4.3.3.3.3.3.4.3.3.3.3.3.3.2.4.3.3.3.3.3.3.2.3.3.4.3.3.3.3.2.3.3.3.3.3.2.3.3.3.3.3.2.3.3.3.2.3.3.3.3.3.2.3.3.3.2.3.3.3.2.3.3.2.2.3.2.3.3.3.2.3.3.3.2.2.3.3.2.3.2.3.3.2.2.3.2.3.3.2.2.3.2.3.2.2.3.3.2.3.2.2.2.3.3.2.2.3.2.3.2.2.3.3.2.2.2.3.2.2.2.3.2.2.2.3.3.2.2.3.2.2.2.2.2.3.2.2.2.3.2.2.2.2.2.3.2.2.2.3.2.2.2.2.2.3.2.2.2.2.2.2.2.3.2.2.2.2.2.3.2.2.2.2.2.2.2.3.1.2.2.2.2.2.2.2.2.3.2.2.2.2.2.2.1.2.2.2.2.3.2.2.2.2.1.2.2.2.2.2.2.2.2.2.1.2.2.2.2.2.2.3.1.2.2.2.2.2.2.2.1.2.2.2.2.2.1.2.2.2.2.2.1.2.2.2.2.2.1.2.2.2.2.2.1.1.2.2.2.2.1.2.2.2.2.2.1.2.2.2.1.2.2.2.2.2.1.1.2.2.1.2.2.2.1.2.2.2.1.2.2.1.2.2.1.2.2.2.1.2.2.1.1.2.2.2.1.2.2.2.1.1.2.2.1.2.2.2.1.1.2.2.1.2.2.2.1.1.2.2.1.2.1.2.2.1.1.2.2.2.1.1.2.2.1.2.1.2.2.1.1.2.2.2.1.1.1.2.2.2.1.1.2.2.1.2.1.1.2.2.1.2.1.1.2.2.1.1.2.2.1.2.1.1.2.2.1.1.1.2.2.2.1.1.1.2.2.1.1.2.1.2.1.1.2.2.1.1.1.2.2.1.1.2.1.2.1.1.2.2.1.1.1.2.2.1.1.2.1.1.1.2.2.1.1.2.1.1.1.2.2.1.1.2.1.1.1.2.2.1.1.2.1.1.1.2.1.1.2.2.1.1.1.2.1.1.1.2.2.1.1.1.1.2.1.1.1.2.2.1.1.2.1.1.1.2.1.1.1.1.2.2.1.1.1.2.1.1.1.1.1.2.2.1.1.2.1.1.1.1.1.2.1.1.1.2.1.1.2.1.1.2.1.1.1.2.1.1.1.1.1.2.1.1.2.1.1.2.1.1.1.1.1.2.1.1.1.1.1.2.1.1.1.1.1.2.1.1.2.1.1.2.1.1.1.1.1.2.1.1.1.1.1.2.1.1.1.1.1.2.1.1.1.1.1.1.1.2.1.1.1.1.1.2.1.1.2.1.1.1.1.2.1.1.1.1.1.2.1.1.1.1.1.1.1.2.1.1.1.1.1.1.1.2.1.1.1.1.1.1.1.2.1.1.1.1.1.1.1.2.1.1.1.1.1.1.1.1.1.2.1.1v.1l.1.1.1.2.1.1.1.1.1.1.1.1.1.2.1.1.1.1.1.1.1.1.1.2.1.1.1.1.1.1.1.1.1.1.1.2.1.1v.1l.1.1.1.1.1.2.1.1.1.1.1.1.1.1.1.1.1.2.1.1.1.1.1.1v.1l.1.1.1.2.1.1.1.1.1.1.1.1.1.1.1.1.1.2v.1l.1.1.1.1.1.1.1.1.1.1.1.1.1.2v.1l.1.1.1.1.1.1.1.1.1.1.1.1.1.2v.1l.1.1.1.1.1.1.1.1.1.1.1.1v.1l.1.2.1.1.1.1.1.1.1.1.1.1v.1l.1.1.1.1.1.1.1.2.1.1v.1l.1.1.1.1.1.1.1.1.1.1v.1l.1.1.1.1.1.1.1.1v.2l.1.1.1.1.1.1.1.1.1.1v.1l.1.1.1.1.1.1.1.1v.1l.1.1.1.1.1.1.1.1v.1l.1.1.1.2.1.1.1.1v.1l.1.1.1.1.1.1.1.1v.1l.1.1.1.1.1.1v.1l.1.1.1.1.1.1.1.1v.1l.1.1.1.1.1.1v.1l.1.1.1.1.1.1v.1l.1.1.1.1.1.1v.1l.1.1.1.1.1.1v.1l.1.1.1.1.1.1v.1l.1.1.1.1.1.1v.1l.1.1.1.1.1.1v.1l.1.1.1.1.1.1v.1l.1.1.1.1.1.1v.1l.1.1.1.1v.1l.1.1.1.1.1.1v.1l.1.1.1.1v.1l.1.1.1.1.1.1v.1l.1.1.1.1v.1l.1.1.1.1.1.1v.1l.1.1.1.1v.1l.1.1.1.1v.1l.1.1.1.1h.1v.1l.1.1.1.1v.1l.1.1.1.1v.1l.1.1.1.1v.1l.1.1.1.1.1.1v.1l.1.1.1.1v.1l.1.1.1.1.1.1.1.1v.1l.1.1.1.1v.1l.1.1.1.1v.1l.1.1.1.1v.1l.1.1.1.1v.1h.1l.1.1v.1l.1.1.1.1v.1l.1.1.1.1v.1l.1.1.1.1v.1l.1.1.1.1.1.1v.1l.1.1.1.1v.1l.1.1.1.1v.1l.1.1.1.1.1.1.1.1v.1l.1.1v.1l.1.1.1.1v.1l.1.1.1.1.1.1v.1l.1.1.1.1v.1l.1.1.1.1v.1l.1.1v.1h.1l.1.1v.1l.1.1.1.1v.1l.1.1v.1l.1.1h.1v.1l.1.1v.1l.1.1.1.1v.1l.1.1v.1l.1.1h.1v.1l.1.1.1.1v.1l.1.1v.1l.1.1h.1v.1l.1.1v.1l.1.1v.1l.1.1.1.1v.1h.1v.1l.1.1.1.1v.1l.1.1v.1l.1.1h.1v.1l.1.1v.1l.1.1"/></g><g clip-path="url(#b)"><path fill="none" stroke="#3b82f6" stroke-linejoin="round" stroke-width="1.3" d="m445.5 94.2 32.6.7 19.1.7 13.6.7 10.5.7 8.6.7 7.2.7 6.3.6 5.6.7 4.9.7 4.5.7 4.1.7 3.8.7 3.5.7 3.2.7 3.1.7 2.8.7 2.7.7 2.6.7 2.4.7 2.3.8 2.2.7 2.1.7 2 .7 1.9.7 1.8.7 1.8.7 1.7.8 1.7.7 1.6.7 1.5.7 1.5.8 1.5.7 1.4.7 1.3.8 1.4.7 1.3.8 1.2.7 1.2.8 1.2.7 1.2.8 1.1.8 1.1.7 1.1.8 1.1.8 1 .8 1 .8 1 .8 1 .8.9.8 1 .8.9.8.9.8.9.9.8.8.9.9.8.8.8.9.8.9.8.9.8.8.8.9.7 1 .8.9.7.9.7.9.7 1 .7.9.7 1 .7 1 .6 1 .7.9.7 1 .6 1 .6 1.1.7 1 .6 1 .6 1 .6 1.1.6 1 .6 1 .5 1.1.6 1 .6 1.1.5 1 .6 1 .5 1.1.6 1 .5 1 .5 1 .5 1 .6 1 .5.9"/></g><g clip-path="url(#c)"><path fill="none" stroke="#3b82f6" stroke-linejoin="round" stroke-width="1.3" d="M37.5 298.5H210l1.2.1h5.6l1 .1h3l.9.1h1l.9.1h.9l.9.1h.8l.9.1.8.1.8.1.8.1.8.1.8.1.8.1.7.2.8.1.7.2.7.2.7.2.7.2.7.2.7.2.6.3.7.2.7.3.6.3.6.3.7.3.6.4.6.3.6.4.6.4.6.4.5.3.6.4.6.4.5.5.6.4.5.4.6.4.5.4.5.3.5.4.6.4.5.4.5.3.5.3.5.4.4.3.5.2.5.3.5.3.4.2.5.2.5.2.4.2.5.2.4.1.5.2.4.1.4.1.5.1.4.1h.4l.4.1h.5l.4.1h3.1l.4-.1h.8l.3-.1h.4l.4-.1h.3l.4-.1h.4l.3-.1.4-.1h.3l.4-.1.3-.1h.4l.3-.1.3-.1h.4l.3-.1.3-.1.4-.1h.3l.3-.1.3-.1h.3l.4-.1.3-.1.3-.1h.3l.3-.1.3-.1h.3l.3-.1.3-.1.3-.1h.3l.3-.1.3-.1h.3l.3-.1.3-.1h.3l.3-.1.2-.1h.3l.3-.1.3-.1h.2l.3-.1.3-.1h.3l.2-.1h.3l.3-.1.2-.1h.3l.3-.1h.2l.3-.1.2-.1h.3l.3-.1h.2l.3-.1h.2l.3-.1h.2l.3-.1.2-.1h.2l.3-.1h.2l.3-.1h.2l.3-.1h.2l.2-.1h.3l.2-.1h.5l.2-.1h.2l.2-.1h.3l.2-.1h.2l.2-.1h.3l.2-.1h.4l.3-.1h.2l.2-.1h.4l.2-.1h.2l.3-.1h.4l.2-.1h.2l.2-.1h.4l.2-.1h.4l.2-.1h.2l.2-.1h.4l.2-.1h.4l.2-.1h.4l.2-.1h.4l.2-.1h.5l.2-.1h.4l.2-.1h.3l.2-.1h.6l.1-.1h.4l.2-.1h.5l.2-.1h.3l.2-.1h.5l.2-.1h.5l.2-.1h.5l.1-.1h.5l.2-.1h.7l.1-.1h.5l.2-.1h.6l.1-.1h.7l.1-.1h.6l.2-.1h.6l.1-.1h.6l.2-.1h.5l.2-.1h.7l.1-.1h.7l.2-.1h.7l.1-.1h.7l.1-.1h.8l.2-.1h.7l.2-.1h.7l.2-.1h.7l.1-.1h.9l.1-.1h.9l.1-.1h.8l.1-.1h1l.1-.1h1l.1-.1h.9l.1-.1h1.1l.1-.1h1l.1-.1h1.1l.1-.1h1.1l.1-.1h1.1l.1-.1h1.3l.1-.1h1.3l.1-.1h1.2l.1-.1h1.4l.1-.1h1.5l.1-.1h1.5l.1-.1h1.7v-.1h1.8v-.1h1.9l.1-.1h2.1l.1-.1h2.2l.1-.1h2.6l.1-.1h3.2v-.1h4.4l.1-.1H369v.1h3.3v.1h2l.1.1h1.5v.1h1.2l.1.1h1v.1h.9v.1h.8v.1h.7l.1.1h.6v.1h.6v.1h.5v.1h.5v.1h.4l.1.1h.3l.1.1h.3l.1.1h.3v.1h.3l.1.1h.2l.1.1h.3v.1h.2l.1.1h.2v.1h.3v.1h.2v.1h.2l.1.1h.2v.1h.2v.1h.2v.1h.1l.1.1h.1l.1.1h.1v.1h.2v.1h.1l.1.1h.1v.1h.1l.1.1h.1v.1h.1v.1h.1l.1.1h.1v.1h.1v.1h.1l.1.1.1.1h.1v.1h.1v.1h.1v.1h.1v.1h.1v.1h.1v.1l.1.1h.1v.1l.1.1v.1h.1v.1h.1v.1h.1v.1h.1v.2h.1v.1h.1v.1l.1.1v.1h.1v.2h.1v.1l.1.1v.1h.1v.1l.1.1v.1l.1.1v.1l.1.1v.1l.1.1v.1l.1.1"/></g><g clip-path="url(#d)"><path fill="none" stroke="#3b82f6" stroke-linejoin="round" stroke-width="1.2" d="M442 298.5h5.6l2.8-.1 2.8-.1 2.8-.2 2.8-.1 2.8-.3 2.8-.2 2.8-.3 2.8-.3 2.8-.3 2.8-.3 2.8-.2 2.8-.3 2.8-.2 2.8-.2 2.7-.2 2.8-.1 2.8-.1h8.4l2.8.1 2.8.2 2.8.1 2.8.2 2.8.2 2.8.2 2.8.2 2.8.3 2.8.2 2.8.3 2.8.2 2.8.3 2.8.2 2.8.2 2.8.2 2.8.2 2.8.2 2.8.1 2.8.1 2.8.1 2.8.1 2.8.1 2.8.1h16.7l2.8-.1h2.8l2.8-.1h2.8l2.8-.1h2.8l2.8-.1h2.8l2.8-.1h2.8l2.8-.1h5.6l2.8-.1h8.4l2.8-.1h16.8l2.8.1h16.7l2.8.1h123.1"/></g><g clip-path="url(#a)"><path fill="none" stroke="#ef4444" stroke-linejoin="round" stroke-width="1.3" d="M37.5 48.5h84.4l7.2-.1h6.3l5.6-.1h9.4l4.1-.1 3.8-.1h3.5l3.2-.1h3.1l2.8-.1 2.7-.1h2.6l2.4-.1 2.3-.1h2.2l2.1-.1 2-.1h1.9l1.8-.1h1.8l1.7-.1h1.7l1.6-.1h1.5l1.5-.1h9.3l1.2.1h1.2l1.1.1h1.1l1.1.1h1.1l1 .1 1 .1h1l1 .1.9.1 1 .1h.9l.9.1.9.1.8.1.9.1h.8l.8.1h.8l.8.1h.8l.8.1h5.7l.6-.1.7-.1h.7l.6-.1.6-.1.7-.1.6-.1.6-.2.6-.1.6-.1.6-.1.5-.2.6-.1h.6l.5-.1h1.1l.6.1.5.2.5.2.5.3.6.4.5.4.5.5.5.6.5.7.4.7.5.7.5.8.5.8.4.9.5.8.5.8.4.9.5.8.4.9.5.8.4.8.4.9.5.8.4.8.4.7.4.8.5.8.4.7.4.8.4.7.4.7.4.7.4.7.4.6.3.7.4.7.4.6.4.6.4.7.3.6.4.6.4.6.3.6.4.6.4.5.3.6.4.6.3.5.4.6.3.5.4.5.3.5.3.6.4.5.3.5.3.5.4.5.3.4.3.5.3.5.3.5.4.4.3.5.3.5.3.4.3.5.3.4.3.4.3.5.3.4.3.4.3.5.3.4.3.4.3.4.3.4.3.4.3.4.3.4.2.4.3.4.3.4.3.4.2.3.3.4.3.4.3.4.2.3.3.4.3.4.2.3.3.4.3.3.2.4.3.3.2.4.3.3.3.4.2.3.3.3.2.4.3.3.2.3.3.4.2.3.2.3.3.3.2.3.3.4.2.3.3.3.2.3.2.3.3.3.2.3.2.3.3.3.2.3.2.3.2.3.3.3.2.3.2.3.2.3.3.3.2.3.2.3.2.2.3.3.2.3.2.3.2.3.2.2.2.3.2.3.3.2.2.3.2.3.2.2.2.3.2.3.2.2.2.3.2.3.2.2.2.3.2.2.2.3.2.2.2.3.2.3.2.2.2.2.2.3.2.2.2.3.2.2.2.3.2.2.2.3.2.2.1.2.2.3.2.2.2.3.2.2.2.2.2.3.2.2.1.2.2.2.2.3.2.2.2.2.1.3.2.2.2.2.2.2.2.2.1.3.2.2.2.2.2.2.1.2.2.3.2.2.2.2.1.2.2.2.2.2.1.2.2.3.2.2.1.2.2.2.2.2.1.2.2.2.2.2.1.2.2.2.2.2.1.2.2.2.2.2.1.2.2.2.1.2.2.2.2.2.1.2.2.2.1.2.2.2.1.2.2.2.1.2.2.2.2.2.1.2.2.2.1.1.2.2.1.2.2.2.1.2.2.2.1.2.2.2.1.1.2.2.1.2.2.2.1.2.2.2.1.1.2.2.1.2.1.2.2.2.1.1.2.2.1.2.2.2.1.1.1.2.2.2.1.2.2.1.1.2.1.2.2.2.1.1.2.2.1.2.1.2.2.1.1.2.1.2.2.1.1.2.2.2.1.1.1.2.2.2.1.1.1.2.2.2.1.1.1.2.2.2.1.1.1.2.1.1.2.2.1.2.1.1.2.2.1.2.1.1.1.2.2.1.1.2.1.2.2.1.1.2.1.1.1.2.2.1.1.2.1.1.1.2.2.2.1.1.1.2.1.1.2.2.1.1.1.2.1.1.1.2.2.1.1.2.1.1.1.2.1.1.2.2.1.1.1.2.1.1.1.2.2.1.1.2.1.1.1.2.1.1.1.2.2.1.1.2.1.1.1.1.1.2.1.1.2.2.1.1.1.2.1.1.1.1.1.2.1.1.1.2.2.1.1.2.1.1.1.1.1.2.1.1.1.2.1.1.2.1.1.2.1.1.1.1.1.2.1.1.1.2.1.1.1.1.1.2.1.1.1.1.2.2.1.1.1.1.1.2.1.1.1.1.1.2.1.1.1.1.1.2.1.1.1.1.1.2.1.1.1.1.1.2.1.1.1.1.1.2.2.1.1.1.1.2.1.1.1.1.1.1.1.2.1.1.1.1.1.2.1.1.1.1.1.1.1.2.1.1.1.1.1.2.1.1.1.1.1.1.1.2.1.1.1.1.1.1.1.2.1.1.1.1.1.1v.2l.1.1.1.1.1.1.1.1.1.2.1.1.1.1.1.1.1.2.1.1.1.1.1.1.1.1.1.2.1.1.1.1.1.1.1.1.1.2v.1l.1.1.1.1.1.1.1.2.1.1.1.1.1.1.1.1.1.2.1.1.1.1.1.1v.1l.1.1.1.2.1.1.1.1.1.1.1.1.1.1.1.2.1.1v.1l.1.1.1.1.1.1.1.2.1.1.1.1.1.1v.1l.1.1.1.1.1.2.1.1.1.1.1.1.1.1v.1l.1.1.1.1.1.2.1.1.1.1.1.1v.1l.1.1.1.1.1.1.1.2.1.1.1.1v.1l.1.1.1.1.1.1.1.1.1.1v.1l.1.2.1.1.1.1.1.1.1.1v.1l.1.1.1.1.1.1.1.1v.1l.1.2.1.1.1.1.1.1.1.1v.1l.1.1.1.1.1.1.1.1v.1l.1.1.1.1.1.1.1.1v.2l.1.1.1.1.1.1.1.1v.1l.1.1.1.1.1.1.1.1v.1l.1.1.1.1.1.1v.1l.1.1.1.1.1.1.1.1"/></g><g clip-path="url(#b)"><path fill="none" stroke="#ef4444" stroke-linejoin="round" stroke-width="1.3" d="m445.5 94.2 32.6.7 19.1.7 13.6.8 10.5.7 8.6.7 7.2.7 6.3.8 5.6.7 4.9.8 4.5.7 4.1.8 3.8.8 3.5.8 3.2.7 3.1.8 2.8.9 2.7.8 2.6.8 2.4.9 2.3.8 2.2.9 2.1.9 2 .9 1.9.9 1.8 1 1.8.9 1.7 1 1.7.9 1.6 1 1.5 1 1.5 1 1.5 1 1.4 1 1.3 1 1.4 1 1.3 1.1 1.2 1 1.2 1 1.2 1 1.2 1.1 1.1 1 1.1 1 1.1 1 1.1 1 1 1 1 1 1 1 1 1 .9.9 1 1 .9.9.9 1 .9.9.8.9.9.9.8.9.8.9.8.9.8.9.8.9.8.9.7.9.8.9.7.9.7.9.7.9.7.9.7 1 .7.9.6 1 .7 1 .7 1.1.6 1 .6 1.1.7 1.2.6 1.2.6 1.3.6 1.3.6 1.4.6 1.4.5 1.6h.6"/></g><g clip-path="url(#c)"><path fill="none" stroke="#ef4444" stroke-linejoin="round" stroke-width="1.3" d="m37.5 298.3 32.6-.2 19.1-.2 13.6-.2 10.5-.1 8.6-.2 7.2-.2 6.3-.2 5.6-.1 4.9-.2 4.5-.1 4.1-.1 3.8-.2 3.5-.1 3.2-.1h3.1l2.8-.1h2.7l2.6-.1h2.4l2.3.1h4.3l2 .1 1.9.1 1.8.2 1.8.1 1.7.2 1.7.2 1.6.2 1.5.2 1.5.2 1.5.3 1.4.3 1.3.2 1.4.3 1.3.3 1.2.3 1.2.3 1.2.2 1.2.3 1.1.3 1.1.2 1.1.2 1.1.2 1 .2 1 .1 1 .1 1 .1.9.1h2.8l.9-.1.8-.1.9-.1.8-.2.8-.2.8-.2.8-.2.8-.3.8-.3.7-.3.8-.4.7-.3.7-.4.7-.4.7-.4.7-.4.7-.5.6-.4.7-.4.7-.5.6-.4.6-.3.7-.4.6-.2.6-.2.6-.1h.6l.6.2.5.4.6.7.6.9.5 1.2.6 1.6.5 1.9.6 2.2.5 2.5.5 2.8.5 2.8.6 2.9.5 2.9.5 2.7.5 2.4.5 2.1.4 1.8.5 1.5.5 1.1.5.9.4.5.5.4.5.1h.4l.5-.1.4-.2.5-.3.4-.3.4-.4.5-.4.4-.5.4-.4.4-.5.5-.5.4-.4.4-.5.4-.4.4-.5.4-.4.4-.4.4-.4.3-.4.4-.4.4-.4.4-.4.4-.3.3-.4.4-.3.4-.3.3-.3.4-.3.4-.3.3-.3.4-.3.3-.3.4-.2.3-.3.4-.3.3-.2.3-.2.4-.3.3-.2.3-.2.4-.2.3-.2.3-.2.3-.2.3-.2.4-.2.3-.2.3-.2.3-.1.3-.2.3-.2.3-.1.3-.2.3-.1.3-.2.3-.1.3-.2.3-.1.3-.2.3-.1.3-.1.3-.2.3-.1.2-.1.3-.1.3-.2.3-.1.2-.1.3-.1.3-.1.3-.1.2-.1.3-.1.3-.2.2-.1.3-.1.3-.1.2-.1h.3l.2-.1.3-.1.3-.1.2-.1.3-.1.2-.1.3-.1.2-.1h.3l.2-.1.2-.1.3-.1.2-.1h.3l.2-.1.3-.1.2-.1h.2l.3-.1.2-.1h.2l.3-.1.2-.1h.2l.2-.1.3-.1h.2l.2-.1.2-.1h.3l.2-.1h.2l.2-.1.3-.1h.2l.2-.1h.2l.2-.1h.2l.2-.1.3-.1h.2l.2-.1h.2l.2-.1h.2l.2-.1h.2l.2-.1h.2l.2-.1h.4l.2-.1h.2l.2-.1h.2l.2-.1h.2l.2-.1h.4l.2-.1h.2l.2-.1h.2l.1-.1h.4l.2-.1h.4l.2-.1h.2l.1-.1h.4l.2-.1h.3l.2-.1h.4l.2-.1h.3l.2-.1h.3l.2-.1h.4l.1-.1h.4l.1-.1h.4l.1-.1h.5l.2-.1h.3l.2-.1h.5l.2-.1h.4l.2-.1h.5l.1-.1h.5l.1-.1h.5l.2-.1h.4l.2-.1h.4l.2-.1h.6l.1-.1h.6l.1-.1h.6l.2-.1h.5l.2-.1h.5l.2-.1h.5l.1-.1h.7l.2-.1h.6l.2-.1h.6l.1-.1h.7l.1-.1h.8l.1-.1h.7l.2-.1h.7l.1-.1h.8l.2-.1h.8l.1-.1h.8l.1-.1h.8l.1-.1h1l.1-.1h.9l.1-.1h.9l.1-.1h1.1l.1-.1h1l.1-.1h1.1v-.1h1.2l.1-.1h1.2l.1-.1h1.2l.1-.1h1.3l.1-.1h1.3l.1-.1h1.4l.1-.1h1.5l.1-.1h1.6v-.1h1.8l.1-.1h1.9v-.1h2l.1-.1h2.3l.1-.1h2.6v-.1h3.2v-.1h4.7v-.1h9.7l.1.1h3.4v.1h2.1v.1h1.5l.1.1h1.2v.1h1.1v.1h.9v.1h.8v.1h.7l.1.1h.6v.1h.5l.1.1h.5v.1h.5v.1h.4l.1.1h.3l.1.1h.3l.1.1h.3v.1h.3l.1.1h.2l.1.1h.2l.1.1h.2l.1.1h.2v.1h.2l.1.1h.2v.1h.2l.1.1h.2v.1h.2v.1h.2v.1h.1l.1.1h.1l.1.1h.1v.1h.2v.1h.1l.1.1h.1v.1h.1l.1.1h.1v.1h.1v.1h.1l.1.1h.1v.1h.1v.1h.1l.1.1.1.1h.1v.1h.1v.1h.1v.1h.1v.1h.1v.1h.1v.1l.1.1h.1v.1l.1.1v.1h.1v.1h.1v.1h.1v.1h.1v.2h.1v.1h.1v.1l.1.1v.1h.1v.2h.1v.1l.1.1v.1h.1v.1l.1.1v.1l.1.1v.1l.1.1v.1l.1.1v.1l.1.1"/></g><g clip-path="url(#d)"><path fill="none" stroke="#ef4444" stroke-linejoin="round" stroke-width="1.2" d="M442 298.5h8.4l2.8-.1h2.8l2.8-.1 2.8-.1 2.8-.1 2.8-.1 2.8-.2 2.8-.2 2.8-.2 2.8-.2 2.8-.2 2.8-.2 2.8-.2 2.7-.2 2.8-.2 2.8-.2 2.8-.2 2.8-.1 2.8-.1 2.8-.1 2.8-.1 2.8-.1h5.6l2.8.1 2.8.1 2.8.1 2.8.1 2.8.2 2.8.2 2.8.2 2.8.2 2.8.2 2.8.3 2.8.2 2.8.2 2.8.3 2.8.2 2.8.3 2.8.2 2.8.2 2.8.2 2.8.1 2.8.2 2.8.1 2.7.1 2.8.1 2.8.1h11.2l2.8-.1h2.8l2.8-.1 2.8-.1 2.8-.1 2.8-.1 2.8-.1 2.8-.1 2.8-.1 2.8-.1 2.8-.1 2.8-.1 2.8-.1h2.8l2.8-.1 2.8-.1h19.6l2.8.1h2.8l2.7.1h2.8l2.8.1h2.8l2.8.1 2.8.1h2.8l2.8.1h2.8l2.8.1h2.8l2.8.1h22.4l2.8-.1h5.6l2.8-.1h2.8l2.8-.1h2.8l2.8-.1h2.8l2.8-.1h5.6l2.7-.1h8.4l2.8-.1h11.2l2.8.1h11.2l2.8.1"/></g><g fill="none" stroke="#22c55e" stroke-linejoin="round" stroke-width="1.3" clip-path="url(#a)"><path d="M37.5 48.5h91.6l6.3-.1h10.5l4.5-.1h4.1l3.8-.1h3.5l3.2-.1h3.1l2.8-.1h2.7l2.6-.1h2.4l2.3-.1 2.2-.1h2.1l2-.1h1.9l1.8-.1 1.8-.1h1.7l1.7-.1h1.6l1.5-.1h1.5l1.5-.1h2.7l1.4-.1h8.3l1.1.1h2.1l1 .1h1l1 .1h.9l1 .1.9.1h.9l.9.1.8.1.9.1h.8l.8.1.8.1.8.1.8.1h.8l.7.1.8.1h.7l.7.1h5.4l.6-.1.7-.1.6-.1.6-.1.6-.1.6-.1.6-.2.5-.1.6-.2.6-.1.5-.1.6-.1.5-.1h.6l.5.1.5.2.5.3.6.4.5.6.5.8.5.8.5 1 .4 1.1.5 1.1.5 1.2.5 1.3.4 1.2.5 1.3.5 1.3.4 1.3.5 1.3.4 1.2.5 1.3.4 1.2.4 1.3.5 1.2.4 1.2.4 1.2.4 1.2.5 1.2.4 1.2.4 1.2.4 1.1.4 1.2.4 1.2.4 1.1.4 1.2.3 1.2.4 1.2.4 1.2.4 1.2.4 1.2.3 1.2.4 1.3.4 1.2.3 1.3.4 1.3.4 1.4.3 1.4.4 1.4.3 1.5.4 1.5.3 1.6.4 1.7.3 1.8.3 2 .4 2.1.3 2.3.3 2.5.4 2.9.3 3.5.3 4.2.3 5.8.3 9.2.4 30.4m0 0 .3-26.9.3-9.6.3-5.2.3-3.5.3-2.6.3-2.1.3-1.6.3-1.4.3-1.2.3-.9.3-.9.3-.8.3-.6.3-.6.3-.5.3-.5.3-.4.2-.3.3-.4.3-.3.3-.2.2-.2.3-.2.3-.2.3-.2.2-.1.3-.1.3-.1.2-.1.3-.1.3-.1h.5l.2-.1h1.3l.3.1h.5l.2.1h.2l.3.1h.2l.3.1.2.1.3.1h.2l.2.1.3.1.2.1.2.1.3.1.2.1.2.1.2.1.3.2.2.1.2.1.2.1.3.2.2.1.2.1.2.2.3.1.2.2.2.1.2.2.2.1.2.2.2.1.3.2.2.1.2.2.2.2.2.1.2.2.2.2.2.2.2.1.2.2.2.2.2.2.2.2.2.2.2.2.2.2.2.2.2.2.2.2.2.2.2.2.2.2.2.2.2.2.2.3.2.2.1.2.2.3.2.2.2.2.2.3.2.2.2.2.2.3.1.2.2.3.2.3.2.2.2.3.1.3.2.2.2.3.2.3.2.3.1.3.2.3.2.3.2.3.1.3.2.3.2.3.2.4.1.3.2.3.2.4.1.3.2.4.2.4.1.4.2.3.2.4.1.4.2.5.2.4.1.4.2.5.2.4.1.5.2.5.2.5.1.5.2.5.1.6.2.6.2.5.1.7.2.6.1.7.2.7.1.7.2.7.1.9.2.8.2.9.1 1 .2 1 .1 1.1.2 1.2.1 1.3.2 1.4.1 1.6.2 1.7.1 2.1.2 2.3.1 2.9.2 3.6.1 4.9.2 3.6m.4 0 .2-5.4.1-4.2.1-3.2.2-2.5.1-2.2.2-1.8.1-1.6.2-1.4.1-1.3.1-1.2.2-1 .1-1 .2-.9.1-.8.1-.8.2-.8.1-.6.2-.7.1-.6.1-.6.2-.6.1-.5.1-.5.2-.5.1-.5.2-.4.1-.5.1-.4.2-.4.1-.4.1-.3.2-.4.1-.3.1-.4.2-.3.1-.3.1-.3.1-.3.2-.3.1-.3.1-.3.2-.2.1-.3.1-.3.1-.2.2-.2.1-.3.1-.2.2-.2.1-.2.1-.3.1-.2.2-.2.1-.2.1-.2.1-.2.2-.2.1-.1.1-.2.1-.2.2-.2.1-.1.1-.2.1-.2.1-.1.2-.2.1-.1.1-.2.1-.1.1-.2.2-.1.1-.2.1-.1.1-.1.1-.2.2-.1.1-.1.1-.2.1-.1.1-.1.1-.1.2-.2.1-.1.1-.1.1-.1.1-.1.1-.1.2-.2.1-.1.1-.1.1-.1.1-.1.1-.1.1-.1.1-.1.2-.1.1-.1.1-.1.1-.1.1-.1h.1l.1-.1.1-.1.2-.1.1-.1.1-.1.1-.1.1-.1h.1l.1-.1.1-.1.1-.1.1-.1h.1l.1-.1.2-.1.1-.1h.1l.1-.1.1-.1.1-.1h.1l.1-.1.1-.1h.1l.1-.1.1-.1h.1l.1-.1.1-.1h.1l.1-.1.1-.1h.1l.2-.1h.1l.1-.1.1-.1h.1l.1-.1h.1l.1-.1.1-.1h.1l.1-.1h.1l.1-.1h.1l.1-.1h.1l.1-.1h.1l.1-.1h.1l.1-.1h.1l.1-.1h.1l.1-.1h.1l.1-.1h.1v-.1h.1l.1-.1h.1l.1-.1h.1l.1-.1h.2l.1-.1h.1l.1-.1h.1l.1-.1h.2l.1-.1h.1l.1-.1h.1l.1-.1h.2l.1-.1h.1l.1-.1h.2l.1-.1h.2l.1-.1h.1l.1-.1h.1l.1-.1h.2l.1-.1h.2v-.1h.3l.1-.1h.2l.1-.1h.1l.1-.1h.2l.1-.1h.2l.1-.1h.2l.1-.1h.2l.1-.1h.3l.1-.1h.2l.1-.1h.3v-.1h.3l.1-.1h.2l.1-.1h.2l.1-.1h.4v-.1h.3l.1-.1h.3l.1-.1h.3l.1-.1h.3l.1-.1h.3v-.1h.4v-.1h.3l.1-.1h.4l.1-.1h.3l.1-.1h.4l.1-.1h.3l.1-.1h.5v-.1h.5v-.1h.5v-.1h.5v-.1h.5l.1-.1h.5v-.1h.5l.1-.1h.5l.1-.1h.5l.1-.1h.5l.1-.1h.6v-.1h.7l.1-.1h.5l.1-.1h.7v-.1h.7l.1-.1h.7l.1-.1h.7l.1-.1h.7l.1-.1h.9v-.1h.9v-.1h.9l.1-.1h1v-.1h1l.1-.1h1.1v-.1h1.2v-.1h1.2l.1-.1h1.3v-.1h1.5v-.1h1.5l.1-.1h1.6l.1-.1h1.8l.1-.1h2v-.1h2.3l.1-.1h2.6v-.1h3.1v-.1h3.9v-.1h5.6l.1-.1h2.6"/></g><g fill="none" stroke="#22c55e" stroke-linejoin="round" stroke-width="1.3" clip-path="url(#b)"><path d="m445.5 94.1 32.6.6 19.1.6 13.6.6 10.5.6 8.6.6 7.2.6 6.3.6 5.6.6 4.9.6 4.5.6 4.1.6 3.8.7 3.5.6 3.2.7 3.1.6 2.8.7 2.7.7 2.6.6 2.4.7 2.3.7 2.2.8 2.1.7 2 .7 1.9.8 1.8.7 1.8.8 1.7.8 1.7.8 1.6.8 1.5.8 1.5.9 1.5.8 1.4.9 1.3.8 1.4.9 1.3.9 1.2.9 1.2.9 1.2.9 1.2.9 1.1 1 1.1.9 1.1.9 1.1.9 1 1 1 .9 1 1 1 .9.9.9 1 1 .9.9.9.9.9.9.8.9.9 1 .8.9.8.9.8.9.8.9.8.9.8.8.7.9.8.9.7.9.7.9.7.9.7.9.7.9.7 1 .6.9.7 1 .7 1 .6 1 .6 1.1.7 1.1.6 1.1.6 1.2.6 1.3.6 1.3.6 1.4.5 1.6.6 1.6.6 1.8.5 1.9.6 1.9m25.9 0 .3-17 .3.2.3.1.3.2.3.2.3.1.3.2.3.1.3.1.3.2.3.1.3.1.3.2.3.1.3.1.3.1.3.2.2.1.3.1.3.1.3.1.2.1.3.1.3.1.3.1.2.1.3.1.3.1.2.1.3.1.3.1.2.1.3.1.2.1.3.1.3.1.2.1h.3l.2.1.3.1.2.1.3.1.2.1h.2l.3.1.2.1.3.1h.2l.3.1.2.1.2.1h.3l.2.1.2.1h.3l.2.1.2.1h.2l.3.1.2.1h.2l.2.1h.3l.2.1.2.1h.2l.3.1h.2l.2.1h.2l.2.1.2.1h.2l.3.1h.2l.2.1h.2l.2.1h.2l.2.1h.2l.2.1h.2l.2.1h.2l.2.1h.2l.2.1h.2l.2.1h.4l.2.1h.2l.2.1h.2l.2.1h.4l.1.1h.2l.2.1h.4l.2.1h.2l.2.1h.3l.2.1h.2l.2.1h.3l.2.1h.4l.1.1h.4l.2.1h.3l.2.1h.3l.2.1h.3l.2.1h.3l.2.1h.3l.2.1h.5l.2.1h.3l.2.1h.3l.1.1h.5l.2.1h.4l.2.1h.5l.1.1h.3l.2.1h.4l.2.1h.6l.1.1h.3l.2-77.5.1.1h.4l.2.1h.6l.1.1h.4l.2.1h.5l.2.1h.5l.1.1h.6l.1.1h.6l.1.1h.6l.2.1h.5l.1.1h.7l.1.1h.6l.1.1h.7l.1.1h.7l.1.1h.6l.1.1h.7l.2.1h.7l.1.1h.8l.1.1h.6l.2.1h.7l.1.1h.8l.1.1h.8l.1.1h.9l.1.1h.8l.1.1h.9l.1.1h.8l.1.1h.9l.1.1h.9l.1.1h.9l.1.1h1l.1.1h.9l.1.1h1.1v.1h1.1l.1.1h1.1v.1h1.2v.1h1.2l.1.1h1.1l.1.1h1.2l.1.1h1.2l.1.1h1.2l.1.1h1.3v.1h1.4l.1.1h1.3l.1.1h1.4v.1h1.5v.1h1.5l.1.1h1.5l.1.1h1.5l.1.1h1.6l.1.1h1.6l.1.1h1.7v.1h1.7l.1.1h1.8v.1h1.8l.1.1h1.8l.1.1h1.9v.1h2v.1h2v.1h2v.1h2l.1.1h2v.1h2l.1.1h2v.1h2.1v.1h2v.1h2v.1h.1"/></g><g fill="none" stroke="#22c55e" stroke-linejoin="round" stroke-width="1.3" clip-path="url(#c)"><path d="m37.5 298.4 32.6-.2 19.1-.1 13.6-.2 10.5-.1 8.6-.2 7.2-.1 6.3-.1 5.6-.2 4.9-.1 4.5-.1 4.1-.1 3.8-.1 3.5-.1 3.2-.1 3.1-.1 2.8-.1h2.7l2.6-.1h2.4l2.3-.1h6.3l1.9.1h3.6l1.7.1 1.7.1 1.6.1 1.5.1 1.5.2 1.5.1 1.4.2 1.3.2 1.4.2 1.3.2 1.2.2 1.2.3 1.2.2 1.2.3 1.1.2 1.1.3 1.1.2 1.1.3 1 .2 1 .2 1 .2 1 .2.9.2 1 .2.9.2.9.1.9.1h.8l.9.1h1.6l.8-.1.8-.1.8-.1.8-.1.7-.2.8-.2.7-.3.7-.3.7-.3.7-.4.7-.4.7-.4.6-.5.7-.5.7-.5.6-.5.6-.6.7-.6.6-.5.6-.6.6-.5.6-.4.6-.4.5-.1h.6l.6.4.5.8.6 1.3.5 1.9.6 2.7.5 3.5.5 4.2.5 4.9.6 5.3.5 5.4.5 5.2.5 4.6.5 4 .4 3.2.5 2.4.5 1.8.5 1.1.4.7.5.3.5.1.4-.1.5-.3.4-.4.5-.4.4-.4.4-.4.5-.4.4-.4.4-.3.4-.3.5-.3.4-.2.4-.2.4-.1.4-.1h.4l.4.1.4.1.3.2.4.2.4.4.4.4.4.5.3.6.4.7.4.8.3 1 .4 1.1.4 1.3.3 1.6.4 1.8.3 2.1.4 2.4.3 2.9.4 3.6.3 4.2.3 5.3.4 2.3m4.1-155 .3 8.8.3 12.3.3 9.1.3 7 .3 5.6.3 4.6.3 3.7.3 3.2.3 2.7.3 2.3.3 2 .3 1.8.2 1.6.3 1.4.3 1.2.3 1.1.2 1 .3 1 .3.8.3.8.2.7.3.6.3.6.2.6.3.5.3.4.2.5.3.4.2.4.3.3.3.4.2.3.3.3.2.3.3.3.2.2.3.3.2.2.2.2.3.2.2.2.3.2.2.2.3.2.2.2.2.1.3.2.2.1.2.2.3.1.2.2.2.1.2.1.3.2.2.1.2.1.2.1.3.1.2.1.2.2.2.1.3.1.2.1.2.1.2.1.2.1.2.1.2.1.3.1h.2l.2.1.2.1.2.1.2.1.2.1.2.1.2.1.2.1.2.1.2.1.2.1.2.1.2.1.2.1h.2l.2.1.2.1.2.1.2.1.2.1.2.1.2.1.2.2.2.1.1.1.2.1.2.1.2.1.2.1.2.2.2.1.2.1.1.1.2.2.2.1.2.1.2.2.1.1.2.2.2.1.2.2.2.2.1.2.2.1.2.2.2.2.1.2.2.2.2.2.2.3.1.2.2.2.2.3.1.3.2.2.2.3.1.3.2.4.2.3.1.4.2.3.2.4.1.4.2.5.2.5.1.5.2.5.2.6.1.6.2.6.1.7.2.8.2.8.1.9.2 1 .1 1 .2 1.2.1 1.3.2 1.4.1 1.6.2 1.8.2 2 .1 2.3.2 2.7.1 3 .2 3.7.1 4.3.2 5.2.1 6.6.2 8.3.1 6.6m1.8-155 .1 3.7.2 9.8.1 7.6.2 6 .1 4.9.1 4 .2 3.4.1 2.9.2 2.6.1 2.1.1 2 .2 1.7.1 1.5.2 1.4.1 1.2.1 1.1.2 1.1.1.9.1.9.2.8.1.7.2.7.1.6.1.6.2.6.1.5.1.5.2.4.1.4.1.4.2.4.1.4.1.3.1.4.2.3.1.3.1.2.2.3.1.3.1.2.1.2.2.3.1.2.1.2.2.2.1.2.1.2.1.1.2.2.1.2.1.1.1.2.2.1.1.2.1.1.1.1.2.2.1.1.1.1.1.1.1.1.2.1.1.1.1.1.1.1.1.1.2.1.1.1.1.1.1.1.1.1.2.1.1.1h.1l.1.1.1.1h.1l.2.1.1.1.1.1h.1l.1.1h.1l.2.1.1.1h.1l.1.1h.1l.1.1h.1l.1.1h.2l.1.1h.1l.1.1h.1l.1.1h.1l.1.1h.3l.1.1h.1l.1.1h.2l.1.1h.1l.1.1h.2l.2.1h.2l.1.1h.2l.1.1h.3l.1.1h.3l.1.1h.2l.1.1h.5l.1.1h.3l.1.1h.4l.1.1h.4l.1.1h.4l.1.1h.5v.1h.6l.1.1h.6l.1.1h.6l.1.1h.7l.1.1h.8l.1.1h.9v.1h1l.1.1h1.1l.1.1h1.2l.1.1h1.5l.1.1h1.7l.1.1h2l.1.1h2.6l.1.1h3.3l.1.1h4.6v.1h7.1l.1.1h15.1l.1.1H392"/></g><g clip-path="url(#d)"><path fill="none" stroke="#22c55e" stroke-linejoin="round" stroke-width="1.2" d="m442 297.9 2.8.5 2.8-.1 2.8-.2 2.8-.1 2.8-.2 2.8-.1 2.8-.1 2.8-.2 2.8-.1 2.8-.2 2.8-.1 2.8-.2 2.8-.1 2.8-.2 2.8-.1 2.8-.1 2.7-.2 2.8-.1 2.8-.1 2.8-.1 2.8-.1 2.8-.1h11.2l2.8.1 2.8.1 2.8.1 2.8.1 2.8.2 2.8.1 2.8.2 2.8.2 2.8.3 2.8.2 2.8.2 2.8.3 2.8.2 2.8.2 2.8.2 2.8.2 2.8.2 2.8.2 2.8.2 2.8.1 2.8.2 2.8.1 2.7.1h5.6l2.8.1 2.8-.1h5.6l2.8-.1 2.8-.1 2.8-.1 2.8-.1 2.8-.1 2.8-.1 2.8-.1 2.8-.1 2.8-.2 2.8-.1 2.8-.1 2.8-.1 2.8-.1h2.8l2.8-.1 2.8-.1h16.8l2.8.1h2.8l2.8.1h2.7l2.8.1 2.8.1h2.8l2.8.1 2.8.1h2.8l2.8.1 2.8.1h2.8l2.8.1h8.4l2.8.1h2.8l2.8-.1h8.4l2.8-.1h2.8l2.8-.1h2.8l2.8-.1h2.8l2.8-.1 2.8-.1h2.8l2.8-.1h5.6l2.7-.1h8.4l2.8-.1h2.8l2.8.1H786l2.8.1h5.6l2.8.1"/></g><g clip-path="url(#a)"><path fill="none" stroke="#eab308" stroke-linejoin="round" stroke-width="1.3" d="M37.5 47h108.4l4.5.1h20.5l2.7.1h9.5l2.1.1h5.7l1.8.1h3.4l1.6.1h4.5l1.4.1h1.3l1.4.1h2.5l1.2.1h2.4l1.1.1h1.1l1.1.1h1.1l1 .1h1l1 .1h1l.9.1h1l.9.1h.9l.9.1h.8l.9.1.8.1h.8l.8.1h.8l.8.1.8.1h.7l.8.1.7.1h.7l.7.1.7.1.7.1h.7l.6.1.7.1.7.1.6.1h.6l.7.1.6.1.6.1.6.1.6.1.6.1.5.1.6.1.6.1h.5l.6.1.5.1.6.1.5.2.5.1.5.1.6.1.5.1.5.1.5.1.5.1.4.1.5.2.5.1.5.1.4.1.5.1.5.2.4.1.5.1.4.2.5.1.4.1.4.2.5.1.4.1.4.2.4.1.5.2.4.1.4.2.4.1.4.2.4.1.4.2.4.1.3.2.4.1.4.2.4.2.4.1.3.2.4.2.4.1.3.2.4.2.4.1.3.2.4.2.3.2.4.2.3.1.4.2.3.2.3.2.4.2.3.2.3.1.4.2.3.2.3.2.3.2.3.2.4.2.3.2.3.2.3.2.3.2.3.2.3.2.3.2.3.2.3.2.3.2.3.2.3.2.3.2.3.2.3.2.3.2.3.2.2.2.3.2.3.2.3.3.2.2.3.2.3.2.3.2.2.2.3.2.3.2.2.2.3.2.3.3.2.2.3.2.2.2.3.2.3.2.2.2.3.2.2.3.3.2.2.2.3.2.2.2.2.2.3.2.2.2.3.2.2.3.3.2.2.2.2.2.3.2.2.2.2.2.3.2.2.3.2.2.2.2.3.2.2.2.2.2.2.2.3.2.2.2.2.2.2.2.3.2.2.3.2.2.2.2.2.2.2.2.2.2.3.2.2.2.2.2.2.2.2.2.2.2.2.2.2.2.2.2.2.2.2.2.2.2.2.2.2.2.2.2.2.2.2.2.2.2.2.2.2.2.2.2.2.2.2.2.2.2.2.2.2.2.1.2.2.2.2.2.2.2.2.2.2.2.2.1.2.2.1.2.2.2.2.2.2.2.2.2.1.2.2.2.2.2.2.1.2.2.1.2.2.2.2.2.2.2.1.2.2.1.2.2.2.2.1.2.2.2.2.2.1.1.2.2.2.2.1.2.2.2.2.1.1.2.2.2.2.2.1.2.2.1.2.2.1.2.2.2.2.1.1.2.2.2.1.2.2.1.2.2.1.2.2.2.1.1.2.2.1.2.2.2.1.1.2.2.2.2.1.1.2.2.1.2.2.1.1.2.2.2.1.1.2.2.1.2.2.1.1.2.2.2.1.1.2.2.1.2.2.1.1.2.2.2.1.1.1.2.2.1.1.2.2.2.1.1.2.2.1.2.1.1.2.2.1.1.2.2.1.1.1.2.2.2.1.1.2.2.1.1.1.2.2.1.1.2.1.2.2.1.1.2.2.1.1.2.1.1.2.2.1.1.1.2.2.1.1.2.1.1.2.2.1.1.1.2.1.1.2.2.1.1.1.2.2.1.1.2.1.1.1.2.2.1.1.2.1.1.2.2.1.1.1.2.1.1.2.2.1.1.1.2.1.1.2.1.1.2.1.1.1.2.2.1.1.2.1.1.1.1.1.2.2.1.1.2.1.1.1.1.1.2.2.1.1.2.1.1.1.2.1.1.2.1.1.2.1.1.1.1.1.2.1.1.2.2.1.1.1.1.1.2.1.1.1.1.2.2.1.1.1.1.1.2.1.1.1.1.1.2.1.1.2.2.1.1.1.1.1.2.1.1.1.1.1.1.1.2.2.1.1.1.1.2.1.1.1.1.1.2.1.1.1.1.1.2.1.1.1.1.1.1.2.2.1.1.1.1.1.2.1.1.1.1.1.1.1.2.1.1.1.1.1.2.1.1.1.1.1.1.1.2.1.1.1.1.1.1.1.2.2.1.1.1.1.1.1.2.1.1.1.1.1.1.1.2.1.1.1.1.1.1.1.1.1.2.1.1.1.1.1.1.1.2.1.1.1.1.1.1.1.1.1.2.1.1.1.1.1.1.1.1.1.2.1.1v.1l.1.1.1.1.1.2.1.1.1.1.1.1.1.1.1.1.1.2.1.1.1.1.1.1.1.1.1.1.1.2.1.1.1.1.1.1.1.1v.1l.1.2.1.1.1.1.1.1.1.1.1.1.1.2.1.1.1.1.1.1.1.1.1.1v.1l.1.1.1.2.1.1.1.1.1.1.1.1.1.1.1.1.1.1v.2l.1.1.1.1.1.1.1.1.1.1.1.1.1.1v.2l.1.1.1.1.1.1.1.1.1.1.1.1.1.1v.1l.1.1.1.2.1.1.1.1.1.1.1.1v.1l.1.1.1.1.1.1.1.1.1.1.1.1v.2l.1.1.1.1.1.1.1.1.1.1v.1l.1.1.1.1.1.1.1.1.1.1v.1l.1.1.1.1.1.2.1.1v.1l.1.1.1.1.1.1.1.1.1.1v.1l.1.1.1.1.1.1.1.1v.1l.1.1.1.1.1.1.1.1v.1l.1.1.1.1.1.1.1.1v.1l.1.2.1.1.1.1.1.1v.1l.1.1.1.1.1.1v.1l.1.1.1.1.1.1.1.1v.1l.1.1.1.1.1.1v.1l.1.1.1.1.1.1v.1l.1.1.1.1.1.1v.1l.1.1.1.1.1.1v.1l.1.1.1.1.1.1v.1l.1.1.1.1.1.1v.1l.1.1.1.1.1.1v.1l.1.1.1.1.1.1v.1l.1.1.1.1.1.1v.1l.1.1.1.1.1.1.1.1.1.1v.1l.1.1.1.1v.1l.1.1.1.1.1.1v.1l.1.1.1.1v.1l.1.1.1.1.1.1v.1l.1.1.1.1v.1l.1.1.1.1v.1l.1.1.1.1h.1v.1l.1.1.1.1v.1l.1.1.1.1v.1l.1.1.1.1v.1l.1.1.1.1.1.1v.1l.1.1.1.1.1.1.1.1v.1l.1.1.1.1v.1l.1.1.1.1v.1l.1.1.1.1v.1l.1.1.1.1.1.1.1.1v.1l.1.1.1.1v.1l.1.1.1.1v.1l.1.1.1.1.1.1.1.1v.1l.1.1.1.1v.1l.1.1v.1l.1.1.1.1v.1h.1l.1.1v.1l.1.1.1.1v.1l.1.1.1.1v.1l.1.1v.1h.1l.1.1v.1l.1.1.1.1v.1l.1.1v.1l.1.1.1.1.1.1.1.1v.1l.1.1v.1l.1.1.1.1v.1h.1l.1.1v.1l.1.1v.1l.1.1.1.1v.1l.1.1.1.1.1.1v.1l.1.1v.1l.1.1.1.1v.1h.1l.1.1v.1l.1.1v.1l.1.1.1.1v.1h.1v.1l.1.1v.1l.1.1.1.1v.1l.1.1.1.1.1.1v.1l.1.1v.1l.1.1.1.1.1.1v.1l.1.1v.1l.1.1.1.1.1.1v.1l.1.1.1.1v.1l.1.1v.1h.1v.1l.1.1.1.1v.1l.1.1v.1h.1v.1l.1.1.1.1v.1l.1.1v.1h.1v.1l.1.1.1.1v.1l.1.1v.1h.1v.1l.1.1v.1l.1.1.1.1v.1h.1v.1l.1.1v.1l.1.1v.1l.1.1h.1v.1l.1.1v.1l.1.1v.1h.1v.1l.1.1v.1l.1.1.1.1v.1h.1v.1l.1.1v.1l.1.1v.1h.1v.1l.1.1.1.1v.1l.1.1v.1h.1v.1l.1.1v.1l.1.1v.1h.1v.1l.1.1v.1l.1.1v.1h.1l.1.1v.1l.1.1v.1l.1.1v.1h.1v.1l.1.1v.1l.1.1v.1h.1v.1l.1.1v.1l.1.1v.1h.1v.1l.1.1v.1l.1.1.1.1.1.1v.1l.1.1v.1l.1.1.1.1v.1l.1.1v.1l.1.1.1.1v.1l.1.1v.1l.1.1.1.1v.1l.1.1v.1l.1.1.1.1v.1l.1.1v.1h.1v.1l.1.1v.1l.1.1v.1h.1v.1l.1.1v.1l.1.1v.1h.1v.1l.1.1v.1l.1.1v.1h.1v.1l.1.1v.2l.1.1.1.1v.1l.1.1v.1h.1v.1l.1.1v.1l.1.1v.1h.1v.1l.1.1v.1l.1.1v.1h.1v.1l.1.1v.1l.1.1v.1l.1.1v.1l.1.1v.1h.1v.1l.1.1v.1l.1.1v.1h.1v.1l.1.1v.1l.1.1v.1l.1.1v.1l.1.1v.1h.1v.1l.1.1v.1l.1.1v.1h.1v.2l.1.1v.1l.1.1.1.1v.1l.1.1v.1h.1v.1l.1.1v.2l.1.1.1.1v.1l.1.1v.1l.1.1.1.1v.2l.1.1.1.1v.1l.1.1v.1l.1.1v.1l.1.1v.1l.1.1v.1h.1v.1l.1.1v.2h.1v.1l.1.1v.1l.1.1v.1h.1v.1"/></g><g clip-path="url(#b)"><path fill="none" stroke="#eab308" stroke-linejoin="round" stroke-width="1.3" d="m445.5 94.1 32.6.5 19.1.6 13.6.5 10.5.6 8.6.6 7.2.5 6.3.6 5.6.5 4.9.6 4.5.6 4.1.5 3.8.6 3.5.5 3.2.6 3.1.6 2.8.5 2.7.6 2.6.6 2.4.5 2.3.6 2.2.5 2.1.6 2 .6 1.9.5 1.8.6 1.8.5 1.7.6 1.7.6 1.6.5 1.5.6 1.5.5 1.5.6 1.4.6 1.3.5 1.4.6 1.3.5 1.2.6 1.2.6 1.2.5 1.2.6 1.1.5 1.1.6 1.1.6 1.1.5 1 .6 1 .6 1 .5 1 .6.9.5 1 .6.9.6.9.5.9.6.8.5.9.6.8.6.8.5.8.6.8.6.8.5.8.6.7.5.8.6.7.6.7.5.7.6.7.5.7.6.7.6.6.5.7.6.7.5.6.6.6.6.7.5.6.6.6.5.6.6.6.6.6.5.5.6.6.5.6.6.5.6.6.5.5.6.6.5.5.6.5.5.5.6.6.5.5.6.5.5.5.6.5.6.4.5.5.6.5.5.5.5.4.6.5.5.5.6.4.5.5.6.4.5.5.6.4.5.4.5.5.6.4.5.4.5.4.6.5.5.4.5.4.6.4.5.4.5.4.5.4.5.4.6.3.5.4.5.4.5.4.5.4.5.3.5.4.5.4.5.3.5.4.5.4.5.3.5.4.5.3.5.4.4.3.5.4.5.3.5.3.4.4.5.3.5h.3"/></g><g clip-path="url(#c)"><path fill="none" stroke="#eab308" stroke-linejoin="round" stroke-width="1.3" d="m37.5 298.5 32.6.1h32.7l10.5.1h8.6l7.2.1H141l4.9.1h8.6l3.8.1h3.5l3.2.1h5.9l2.7.1h5l2.3.1h2.2l2.1.1h3.9l1.8.1h1.8l1.7.1h3.3l1.5.1h1.5l1.5.1h2.7l1.4.1h1.3l1.2.1h2.4l1.2.1h1.1l1.1.1h2.2l1 .1h1l1 .1h1.9l1 .1h.9l.9.1h.9l.8.1h.9l.8.1h1.6l.8.1h.8l.8.1h.7l.8.1h.7l.7.1h.7l.7.1h.7l.7.1h.6l.7.1h.7l.6.1h.6l.7.1h.6l.6.1h.6l.6.1h.6l.5.1.6.1h.6l.5.1h.6l.5.1h.6l.5.1.5.1h.5l.6.1h.5l.5.1.5.1h.5l.4.1h.5l.5.1.5.1h.4l.5.1.5.1h.4l.5.1.4.1h.5l.4.1h.4l.5.1.4.1h.4l.4.1.5.1h.4l.4.1.4.1h.4l.4.1h.4l.4.1.3.1h.4l.4.1h.4l.4.1.3.1h.4l.4.1h.3l.4.1h.4l.3.1h.4l.3.1h.4l.3.1h.4l.3.1h.3l.4.1h.3l.3.1h.7l.3.1h.3l.3.1h.7l.3.1h.6l.3.1h.6l.3.1h.9l.3.1h.9l.3.1h1.4l.2.1h2.7l.3.1h3.5l.2-.1h2.8l.2-.1h1.8l.2-.1h1.5l.2-.1h1l.2-.1h1.2l.2-.1h1l.2-.1h.9l.2-.1h.9l.2-.1h1.1l.2-.1h.9l.1-.1h.9l.2-.1h.8l.2-.1h.8l.2-.1h.8l.1-.1h1l.1-.1h.8l.2-.1h.9l.1-.1h.9l.2-.1h.8l.2-.1h1l.1-.1h.8l.2-.1h.9l.2-.1h.9l.1-.1h.9l.1-.1h1.1l.1-.1h1l.1-.1h1l.1-.1h1l.2-.1h1.1l.1-.1h1l.1-.1h1.2l.1-.1h1.2l.1-.1h1.2l.1-.1h1.3l.1-.1h1.2l.1-.1h1.4l.1-.1h1.3l.1-.1h1.4l.1-.1h1.6l.1-.1h1.5l.1-.1h1.8l.1-.1h1.7l.1-.1h1.9l.1-.1h2.1l.1-.1h2.4v-.1h2.6l.1-.1h3.2v-.1h4.3l.1-.1h11.8v.1h3.1v.1h2l.1.1h1.4l.1.1h1.2v.1h1l.1.1h.8l.1.1h.7l.1.1h.7v.1h.6v.1h.6v.1h.5v.1h.5v.1h.4l.1.1h.3l.1.1h.3l.1.1h.3v.1h.4v.1h.3v.1h.3v.1h.3v.1h.2v.1h.3v.1h.2v.1h.2l.1.1h.2v.1h.2v.1h.2v.1h.1l.1.1h.1l.1.1h.1v.1h.2v.1h.1l.1.1h.1v.1h.1l.1.1h.1v.1h.1v.1h.1l.1.1h.1v.1h.1v.1h.1l.1.1h.1v.1h.1v.1h.1v.1h.1v.1h.1v.1h.1v.1h.1v.1l.1.1h.1v.1l.1.1v.1h.1v.1h.1v.1h.1v.1h.1v.2h.1v.1h.1v.1l.1.1v.1h.1v.2h.1v.1l.1.1v.1h.1v.1l.1.1v.1l.1.1v.1l.1.1v.1l.1.1v.1l.1.1"/></g><g clip-path="url(#d)"><path fill="none" stroke="#eab308" stroke-linejoin="round" stroke-width="1.2" d="M442 298.5h2.8l2.8-.2 2.8-.2 2.8-.4 2.8-.4 2.8-.5 2.8-.5 2.8-.5 2.8-.5 2.8-.4 2.8-.3 2.8-.1 2.8-.1h2.8l2.8.1 2.8.1 2.7.3 2.8.2 2.8.3 2.8.4 2.8.3 2.8.3 2.8.3 2.8.3 2.8.3 2.8.2 2.8.2 2.8.2 2.8.2 2.8.1 2.8.1 2.8.1 2.8.1h5.6l2.8.1h16.8l2.8-.1h234.9"/></g><g clip-path="url(#a)"><path fill="none" stroke="#f97316" stroke-linejoin="round" stroke-width="1.3" d="M37.5 47h143.4l2.2.1h13l1.6.1h5.9l1.3.1h3.9l1.2.1h3.5l1.1.1h3.2l1 .1h2.9l1 .1h4.4l.8.1h11.7l.6.1h1.3l.6.1.6.1h.6l.6.1.6.2.5.1.6.2.6.1.5.2.6.3.5.3.6.2.5.4.5.3.5.4.6.4.5.4.5.5.5.4.5.5.4.5.5.6.5.5.5.6.4.5.5.6.5.6.4.6.5.5.4.6.5.6.4.6.4.6.5.6.4.6.4.6.4.5.5.6.4.6.4.6.4.5.4.6.4.5.4.6.4.5.3.6.4.5.4.6.4.5.4.5.3.5.4.5.4.6.3.5.4.5.4.5.3.4.4.5.3.5.4.5.3.5.4.4.3.5.3.4.4.5.3.5.3.4.4.4.3.5.3.4.3.4.3.5.4.4.3.4.3.4.3.4.3.4.3.5.3.4.3.4.3.4.3.3.3.4.3.4.3.4.3.4.3.4.3.3.3.4.3.4.2.3.3.4.3.4.3.3.2.4.3.3.3.4.3.3.2.4.3.3.3.4.2.3.3.4.3.3.2.3.3.4.2.3.3.3.3.3.2.4.3.3.2.3.3.3.2.3.3.3.2.3.2.4.3.3.2.3.3.3.2.3.3.3.2.3.2.3.3.3.2.3.2.2.3.3.2.3.2.3.2.3.3.3.2.3.2.2.2.3.3.3.2.3.2.2.2.3.3.3.2.3.2.2.2.3.2.3.2.2.2.3.3.3.2.2.2.3.2.2.2.3.2.2.2.3.2.3.2.2.2.3.2.2.2.3.2.2.2.3.2.2.2.2.2.3.2.2.2.3.2.2.2.3.2.2.2.2.2.3.2.2.2.2.1.3.2.2.2.2.2.3.2.2.2.2.2.2.2.3.1.2.2.2.2.2.2.3.2.2.1.2.2.2.2.2.2.3.2.2.1.2.2.2.2.2.2.2.1.3.2.2.2.2.2.2.1.2.2.2.2.2.1.2.2.2.2.2.1.2.2.3.2.2.1.2.2.2.2.2.1.2.2.2.2.2.1.2.2.2.2.2.1.2.2.2.1.1.2.2.2.2.1.2.2.2.1.2.2.2.1.2.2.2.1.2.2.2.2.2.1.1.2.2.1.2.2.2.1.2.2.2.1.2.2.1.1.2.2.2.1.2.2.2.1.2.2.1.1.2.2.2.1.2.2.2.1.1.1.2.2.2.1.2.2.1.1.2.2.2.1.2.1.1.2.2.1.2.2.2.1.1.1.2.2.2.1.1.2.2.1.2.1.1.2.2.1.2.1.1.2.2.1.2.2.1.1.2.1.2.2.1.1.2.1.2.2.1.1.2.1.2.2.1.1.2.1.1.1.2.2.2.1.1.1.2.2.1.1.2.1.2.1.1.2.2.1.1.1.2.2.1.1.2.1.2.1.1.2.2.1.1.1.2.1.1.2.2.1.1.1.2.1.1.2.2.1.1.1.2.1.1.1.2.2.1.1.2.1.1.1.2.1.1.2.2.1.1.1.2.1.1.1.2.2.1.1.2.1.1.1.2.1.1.1.2.2.1.1.1.1.2.1.1.1.2.1.1.2.2.1.1.1.1.1.2.1.1.1.2.1.1.1.1.2.2.1.1.1.2.1.1.1.1.1.2.1.1.1.2.2.1.1.1.1.2.1.1.1.1.1.2.1.1.1.2.1.1.1.1.1.2.1.1.2.1.1.2.1.1.1.1.1.2.1.1.1.1.1.2.1.1.1.1.1.2.1.1.1.1.1.2.1.1.1.1.1.1.1.2.1.1.2.1.1.2.1.1.1.1.1.1.1.2.1.1.1.1.1.2.1.1.1.1.1.1.1.2.1.1.1.1.1.1.1.2.1.1.1.1.1.2.1.1.1.1.1.1.1.1.1.2.1.1.1.1.1.1v.2l.1.1.1.1.1.1.1.2.1.1.1.1.1.1.1.1.1.2.1.1.1.1.1.1.1.2.1.1.1.1.1.1.1.1.1.2.1.1v.1l.1.1.1.1.1.1.1.2.1.1.1.1.1.1.1.1.1.2.1.1.1.1.1.1v.1l.1.1.1.2.1.1.1.1.1.1.1.1.1.1.1.2.1.1v.1l.1.1.1.1.1.1.1.1.1.2.1.1.1.1v.1l.1.1.1.1.1.1.1.1.1.2.1.1.1.1v.1l.1.1.1.1.1.1.1.1.1.2.1.1v.1l.1.1.1.1.1.1.1.1.1.1.1.1v.2l.1.1.1.1.1.1.1.1.1.1v.1l.1.1.1.1.1.1.1.1.1.2v.1l.1.1.1.1.1.1.1.1v.1l.1.1.1.1.1.1.1.1.1.1v.2l.1.1.1.1.1.1.1.1v.1l.1.1.1.1.1.1.1.1v.1l.1.1.1.1.1.1.1.1v.1l.1.1.1.1.1.2.1.1v.1l.1.1.1.1.1.1v.1l.1.1.1.1.1.1.1.1v.1l.1.1.1.1.1.1v.1l.1.1.1.1.1.1v.1l.1.1.1.1.1.1v.1l.1.1.1.1.1.1v.1l.1.1.1.1.1.1v.1l.1.1.1.1.1.1v.1l.1.1.1.1.1.1v.1l.1.1.1.1.1.1v.1l.1.1.1.1.1.1v.1l.1.1.1.1v.1l.1.1.1.1.1.1v.1l.1.1.1.1v.1l.1.1.1.1.1.1v.1l.1.1.1.1v.1l.1.1.1.1.1.1v.1l.1.1.1.1v.1l.1.1.1.1v.1l.1.1.1.1.1.1"/></g><g clip-path="url(#b)"><path fill="none" stroke="#f97316" stroke-linejoin="round" stroke-width="1.3" d="m445.5 94.3 32.6.8 19.1.8 13.6.8 10.5.8 8.6.8 7.2.9 6.3.8 5.6.8 4.9.8 4.5.8 4.1.8 3.8.8 3.5.9 3.2.8 3.1.8 2.8.8 2.7.9 2.6.8 2.4.8 2.3.8 2.2.9 2.1.8 2 .8 1.9.9 1.8.8 1.8.9 1.7.8 1.7.9 1.6.8 1.5.9 1.5.8 1.5.9 1.4.8 1.3.9 1.4.8 1.3.9 1.2.8 1.2.9 1.2.8 1.2.9 1.1.8 1.1.9 1.1.9 1.1.8 1 .9 1 .9 1 .8 1 .9.9.9 1 .8.9.9.9.9.9.9.8.9.9.9.8.9.8.9.8 1 .8.9.8 1 .8.9.7 1 .8 1 .7 1 .7 1 .7 1 .7 1.1.7 1.1.7 1.1.6 1.1.7 1.2.7 1.1.6 1.2.6 1.3.7 1.2.6 1.3.6 1.3.6 1.4.6 1.3.6 1.4.5 1.4.6 1.2"/></g><g clip-path="url(#c)"><path fill="none" stroke="#f97316" stroke-linejoin="round" stroke-width="1.3" d="M37.5 298.5h108.4l4.5.1h17.7l2.8.1h5.3l2.4.1h4.5l2.1.1h2l1.9.1h3.6l1.7.1h1.7l1.6.1h1.5l1.5.1h2.9l1.3.1h3.9l1.2.1h6.8l1-.1h3l.9-.1h1l.9-.1h.9l.9-.1.8-.1h.9l.8-.1.8-.1h.8l.8-.1h.8l.8-.1h.7l.8-.1h2.1l.7.1h.7l.7.1.6.2.7.1.7.3.6.2.6.4.7.4.6.4.6.6.6.6.6.6.6.8.5.8.6.9.6.9.5 1 .6 1 .5 1.1.6 1 .5 1.1.5 1 .5 1 .6 1 .5.9.5.8.5.8.5.7.4.6.5.6.5.5.5.4.4.3.5.3.5.2.4.2.5.1.4.1h1.8l.4-.1.4-.1.4-.1.5-.2.4-.1.4-.2.4-.1.4-.2.4-.2.4-.1.4-.2.3-.2.4-.2.4-.2.4-.2.4-.1.3-.2.4-.2.4-.2.3-.2.4-.2.4-.1.3-.2.4-.2.3-.2.4-.1.3-.2.4-.2.3-.1.3-.2.4-.1.3-.2.3-.1.4-.2.3-.1.3-.2.3-.1.3-.1.4-.2.3-.1.3-.2.3-.1.3-.1.3-.1.3-.2.3-.1.3-.1.3-.1.3-.1.3-.1.3-.2.3-.1.3-.1.3-.1.3-.1.3-.1.2-.1.3-.1.3-.1.3-.1.2-.1.3-.1.3-.1.3-.1h.2l.3-.1.3-.1.2-.1.3-.1.3-.1.2-.1h.3l.2-.1.3-.1.3-.1h.2l.3-.1.2-.1.3-.1h.2l.3-.1.2-.1.2-.1h.3l.2-.1.3-.1h.2l.3-.1h.2l.2-.1.3-.1h.2l.2-.1.3-.1h.2l.2-.1h.2l.3-.1h.2l.2-.1.2-.1h.3l.2-.1h.2l.2-.1h.3l.2-.1h.2l.2-.1h.2l.2-.1h.2l.3-.1h.2l.2-.1h.2l.2-.1h.2l.2-.1h.4l.2-.1h.2l.2-.1h.2l.2-.1h.4l.2-.1h.2l.2-.1h.4l.2-.1h.2l.2-.1h.4l.1-.1h.4l.2-.1h.2l.2-.1h.4l.1-.1h.4l.2-.1h.3l.2-.1h.4l.2-.1h.5l.2-.1h.3l.2-.1h.3l.2-.1h.5l.2-.1h.3l.2-.1h.5l.1-.1h.5l.2-.1h.5l.1-.1h.5l.2-.1h.4l.2-.1h.5l.1-.1h.6l.2-.1h.4l.2-.1h.6l.1-.1h.6l.1-.1h.6l.2-.1h.5l.2-.1h.7l.1-.1h.7l.1-.1h.7l.1-.1h.7l.1-.1h.7l.1-.1h.8l.1-.1h.7l.2-.1h.7l.1-.1h.9l.1-.1h.8l.1-.1h.8l.2-.1h.9l.1-.1h.9l.1-.1h.9l.2-.1h.9l.1-.1h1.1l.1-.1h1l.1-.1h1.1l.1-.1h1.1l.1-.1h1.1l.1-.1h1.3l.1-.1h1.3l.1-.1h1.4l.1-.1h1.4l.1-.1h1.5l.1-.1h1.6l.1-.1h1.7l.1-.1h1.9v-.1h2l.1-.1h2.3l.1-.1h2.6v-.1h3.2l.1-.1h4.5l.1-.1h10v.1h3.4v.1h2.1v.1h1.6v.1h1.2l.1.1h1v.1h.9v.1h.8v.1h.7l.1.1h.6v.1h.5l.1.1h.5v.1h.5v.1h.4l.1.1h.3l.1.1h.3l.1.1h.3v.1h.3l.1.1h.2l.1.1h.3v.1h.2l.1.1h.2v.1h.3v.1h.2v.1h.2l.1.1h.2v.1h.2v.1h.2v.1h.1l.1.1h.1l.1.1h.1v.1h.2v.1h.1l.1.1h.1v.1h.1l.1.1h.1v.1h.1v.1h.1l.1.1h.1v.1h.1v.1h.1l.1.1.1.1h.1v.1h.1v.1h.1v.1h.1v.1h.1v.1h.1v.1l.1.1h.1v.1l.1.1v.1h.1v.1h.1v.1h.1v.1h.1v.2h.1v.1h.1v.1l.1.1v.1h.1v.2h.1v.1l.1.1v.1h.1v.1l.1.1v.1l.1.1v.1l.1.1v.1l.1.1v.1l.1.1"/></g><g clip-path="url(#d)"><path fill="none" stroke="#f97316" stroke-linejoin="round" stroke-width="1.2" d="M442 298.5h8.4l2.8-.1 2.8-.1 2.8-.1 2.8-.1 2.8-.2 2.8-.1 2.8-.2 2.8-.3 2.8-.2 2.8-.2 2.8-.2 2.8-.3 2.8-.2 2.7-.2 2.8-.2 2.8-.1 2.8-.2 2.8-.1 2.8-.1h2.8l2.8-.1 2.8.1h2.8l2.8.1 2.8.1 2.8.1 2.8.2 2.8.1 2.8.2 2.8.2 2.8.3 2.8.2 2.8.2 2.8.3 2.8.2 2.8.2 2.8.2 2.8.2 2.8.2 2.8.2 2.8.2 2.8.1 2.8.1 2.8.1 2.8.1 2.7.1h16.8l2.8-.1h2.8l2.8-.1 2.8-.1h2.8l2.8-.1 2.8-.1 2.8-.1h2.8l2.8-.1 2.8-.1h2.8l2.8-.1h2.8l2.8-.1h28l2.7.1h5.6l2.8.1h2.8l2.8.1h8.4l2.8.1h8.4l2.8.1h19.6l2.8-.1h16.8l2.8-.1h13.9l2.8-.1h33.6"/></g><path stroke="#3b82f6" stroke-width="2" d="M34 8h12"/><text x="49" y="11" fill="#6b7280" font-size="11">Butterworth</text><path stroke="#ef4444" stroke-width="2" d="M119.5 8h12"/><text x="134.5" y="11" fill="#6b7280" font-size="11">Chebyshev I</text><path stroke="#22c55e" stroke-width="2" d="M205 8h12"/><text x="220" y="11" fill="#6b7280" font-size="11">Elliptic</text><path stroke="#eab308" stroke-width="2" d="M274 8h12"/><text x="289" y="11" fill="#6b7280" font-size="11">Bessel</text><path stroke="#f97316" stroke-width="2" d="M332 8h12"/><text x="347" y="11" fill="#6b7280" font-size="11">Legendre</text></svg>