<svg xmlns="http://www.w3.org/2000/svg" style="font-family:system-ui,-apple-system,sans-serif" viewBox="0 0 820 392"><defs><linearGradient id="b" x1="0" x2="0" y1="47" y2="171" gradientUnits="userSpaceOnUse"><stop offset="0%" stop-color="#3b82f6" stop-opacity=".15"/><stop offset="100%" stop-color="#3b82f6" stop-opacity=".01"/></linearGradient><linearGradient id="d" x1="0" x2="0" y1="16" y2="94" gradientUnits="userSpaceOnUse"><stop offset="0%" stop-color="#ef4444" stop-opacity=".15"/><stop offset="100%" stop-color="#ef4444" stop-opacity=".01"/></linearGradient><linearGradient id="e" x1="0" x2="0" y1="94" y2="171" gradientUnits="userSpaceOnUse"><stop offset="0%" stop-color="#ef4444" stop-opacity=".01"/><stop offset="100%" stop-color="#ef4444" stop-opacity=".15"/></linearGradient><linearGradient id="g" x1="0" x2="0" y1="252" y2="299" gradientUnits="userSpaceOnUse"><stop offset="0%" stop-color="#22c55e" stop-opacity=".15"/><stop offset="100%" stop-color="#22c55e" stop-opacity=".01"/></linearGradient><linearGradient id="h" x1="0" x2="0" y1="299" y2="376" gradientUnits="userSpaceOnUse"><stop offset="0%" stop-color="#22c55e" stop-opacity=".01"/><stop offset="100%" stop-color="#22c55e" stop-opacity=".15"/></linearGradient><linearGradient id="j" x1="0" x2="0" y1="282" y2="299" gradientUnits="userSpaceOnUse"><stop offset="0%" stop-color="#eab308" stop-opacity=".15"/><stop offset="100%" stop-color="#eab308" stop-opacity=".01"/></linearGradient><linearGradient id="k" x1="0" x2="0" y1="299" y2="302" gradientUnits="userSpaceOnUse"><stop offset="0%" stop-color="#eab308" stop-opacity=".01"/><stop offset="100%" stop-color="#eab308" stop-opacity=".15"/></linearGradient><clipPath id="a"><path d="M34 16h358v155H34z"/></clipPath><clipPath id="c"><path d="M442 16h358v155H442z"/></clipPath><clipPath id="f"><path d="M34 221h358v155H34z"/></clipPath><clipPath id="i"><path d="M442 221h358v155H442z"/></clipPath></defs><text x="800" y="11" fill="#6b7280" font-size="11" font-weight="600" text-anchor="end">Interpolate anti-image filter, factor 4</text><path stroke="#d1d5db" d="M34 16v155m0-124h358"/><text x="213" y="197" fill="#6b7280" font-size="9" text-anchor="middle">Hz</text><text x="12" y="93.5" fill="#6b7280" font-size="9" text-anchor="middle" transform="rotate(-90 12 93.5)">dB</text><path stroke="#e5e7eb" stroke-width=".5" d="M66.6 16v155M85.7 16v155M99.3 16v155m10.5-155v155m8.6-155v155m7.3-155v155m6.2-155v155m5.6-155v155m37.6-155v155m19.1-155v155m13.5-155v155m10.6-155v155m8.5-155v155m7.3-155v155m6.3-155v155m5.5-155v155m37.6-155v155m19.1-155v155m13.6-155v155m10.5-155v155m8.6-155v155m7.3-155v155m6.2-155v155m5.6-155v155M392 16v155M34 16v155"/><text x="34" y="183" fill="#6b7280" font-size="8" text-anchor="middle">10</text><path stroke="#e5e7eb" stroke-width=".5" d="M142.5 16v155"/><text x="142.5" y="183" fill="#6b7280" font-size="8" text-anchor="middle">100</text><path stroke="#e5e7eb" stroke-width=".5" d="M250.9 16v155"/><text x="250.9" y="183" fill="#6b7280" font-size="8" text-anchor="middle">1k</text><path stroke="#e5e7eb" stroke-width=".5" d="M359.4 16v155"/><text x="359.4" y="183" fill="#6b7280" font-size="8" text-anchor="middle">10k</text><path stroke="#e5e7eb" stroke-width=".5" d="M34 171h358M34 140h358M34 109h358M34 78h358M34 16h358M34 62.5h358m-358-31h358"/><text x="30" y="174" fill="#6b7280" font-size="8" text-anchor="end">-80</text><text x="30" y="143" fill="#6b7280" font-size="8" text-anchor="end">-60</text><text x="30" y="112" fill="#6b7280" font-size="8" text-anchor="end">-40</text><text x="30" y="81" fill="#6b7280" font-size="8" text-anchor="end">-20</text><text x="30" y="50" fill="#6b7280" font-size="8" text-anchor="end">0</text><text x="30" y="19" fill="#6b7280" font-size="8" text-anchor="end">+20</text><g clip-path="url(#a)"><path fill="url(#b)" d="M37.5 171V47h288.2l.1.1h.6l.1.1h.2l.1.1h.2l.1.1h.1l.1.1.1.1h.1l.1.1.1.1h.1l.1.1.1.1.1.1.1.1.1.1.1.1.1.2.1.1.1.1.1.2v.1l.1.2.1.1.1.2.1.2.1.2.1.2.1.2.1.2.1.2.1.3.1.2.1.3.1.3.1.2.1.3.1.3.1.3.1.3.1.4v.3l.1.4.1.4.1.3.1.4.1.4.1.5.1.4.1.4.1.5.1.5.1.5.1.5v.5l.1.5.1.6.1.5.1.6.1.6.1.6.1.7.1.6.1.7v.7l.1.7.1.7.1.8.1.8.1.8.1.8.1.8v.9l.1.9.1.9.1 1 .1.9.1 1 .1 1.1.1 1.1v1.1l.1 1.1.1 1.2.1 1.2.1 1.2.1 1.3.1 1.4v1.4l.1 1.5.1 1.5.1 1.5.1 1.7.1 1.7.1 1.8v1.9l.1 2.1.1 2.1.1 2.3.1 2.5.1 2.7v3l.1 3.3.1 3.8.1 4.6.1 5.9.1 8.6v19l.1-6.5.1-11.4.1-5.2.1-3v-1.9l.1-1.3.1-.8.1-.4.1-.2.1.1v.2l.1.4.1.5.1.6.1.8v.8l.1.9.1 1 .1 1.1.1 1.1v1.1l.1 1.1.1 1.1.1 1 .1 1v.9l.1.8.1.7.1.5.1.4v.2l.1.1.1-.1.1-.1v-.2l.1-.3.1-.3.1-.3.1-.3v-.2l.1-.2.1-.2.1-.1v.1l.1.1.1.2.1.3v.4l.1.7.1.7.1 1v1.2l.1 1.5.1 1.9.1 2.4v3.2l.1 4.4.1 7.1.1 2 .1-4.6.1-6.5.1-4.4v-3.3l.1-2.6.1-2.1.1-1.7v-1.5l.1-1.2.1-1.1.1-.8v-.7l.1-.6.1-.5.1-.3v-.3l.1-.1h.1v.1l.1.2.1.4.1.4v.6l.1.8.1.9v1.1l.1 1.3.1 1.6.1 1.9v2.4l.1 3 .1 4.1v6.1l.1 7.4h.1l.1-3.1v-7.7l.1-4.9.1-3.4v-2.7l.1-2.1.1-1.7V144l.1-1.2.1-.9.1-.8v-.7l.1-.5.1-.4v-.2l.1-.1.1-.1v.1l.1.2.1.4v.4l.1.6.1.7.1.9v1.1l.1 1.2.1 1.6v1.8l.1 2.2.1 2.8v3.7l.1 5.2.1 8.8v.2h.1l.1-7.6v-5.6l.1-3.8.1-2.8v-2.3l.1-1.8.1-1.5v-1.2l.1-1 .1-.9v-.6l.1-.6.1-.3v-.3l.1-.2h.1v.1l.1.2.1.3v.4l.1.6.1.7v.8l.1 1.1.1 1.2v1.5l.1 1.8v2.1l.1 2.7.1 3.5v4.9l.1 7.8.1.8.1-4.9.1-6v-4l.1-3 .1-2.3v-1.9l.1-1.5v-1.3l.1-1 .1-.9v-.7l.1-.5.1-.5v-.2l.1-.2v-.1l.1.1.1.2v.3l.1.4.1.5v.7l.1.9v1l.1 1.2.1 1.4v1.8l.1 2.1.1 2.6v3.4l.1 4.6v7.2l.1.6h.1v-2.3l.1-6.4v-4.2l.1-3.1.1-2.4v-1.9l.1-1.6v-1.3l.1-1.1.1-.9v-.7l.1-.5.1-.5v-.3l.1-.2h.1l.1.2v.3l.1.4v.5l.1.7v.8l.1 1 .1 1.1v1.5l.1 1.7v2l.1 2.6.1 3.2v4.5l.1 6.8v.1h.2v-6.6l.1-4.4v-3.2l.1-2.5v-2l.1-1.6.1-1.3v-1.1l.1-.9v-.7l.1-.6.1-.5v-.3l.1-.2v-.1l.1.1v.1l.1.3.1.4v.5l.1.6v.8l.1 1v1.1l.1 1.4.1 1.7v2l.1 2.5v3.1l.1 4.3v6.1h.2l.1-4.6v-4.6l.1-3.3V156l.1-2.1v-1.6l.1-1.4.1-1.1v-.9l.1-.8v-.6l.1-.4v-.4l.1-.2v-.1h.1l.1.2v.2l.1.4v.5l.1.6v.8l.1.9v1.2l.1 1.3v1.6l.1 2 .1 2.4v3.1l.1 4.1v5.3h.2v-2.7l.1-4.8v-3.4l.1-2.6.1-2.1v-1.6l.1-1.4v-1.2l.1-.9v-.8l.1-.6v-.5l.1-.4v-.2l.1-.1.1.1v.3l.1.3v.5l.1.6.1.8v.9l.1 1.1v1.3l.1 1.6v1.9l.1 2.4v2.9l.1 4v4.6h.2v-.8l.1-5v-3.5l.1-2.7v-2.1l.1-1.8v-1.4l.1-1.2v-.9l.1-.8.1-.7v-.5l.1-.3v-.3l.1-.1.1.1v.2l.1.3v.5l.1.6v.7l.1.9v1.1l.1 1.3v1.6l.1 1.8v2.3l.1 2.9v3.9l.1 3.9h.2v-4.2l.1-3.6v-2.8l.1-2.2v-1.7l.1-1.5v-1.2l.1-1v-.8l.1-.7v-.5l.1-.4v-.2l.1-.2.1.1v.2l.1.3v.4l.1.6v.7l.1.9v1.1l.1 1.2v1.6l.1 1.8v5l.1 3.7v3.4h.2l.1-2.6v-3.8l.1-2.8v-2.3l.1-1.8v-1.5l.1-1.2v-1l.1-.9v-.7l.1-.5v-.4l.1-.3v-.1l.1-.1v.1l.1.2v.7l.1.6v.7l.1.8v1.1l.1 1.2v1.5l.1 1.8v2.2l.1 2.7v3.6l.1 2.8h.2v-5l.1-3v-2.3l.1-1.8v-1.5l.1-1.3V155l.1-.8v-.7l.1-.6v-.4l.1-.3v-.2l.1.1v.1l.1.3v.4l.1.6v.6l.1.9v1l.1 1.2v1.4l.1 1.8v4.8l.1 3.4v2.4h.3v-3.7l.1-3V160l.1-1.6v-1.3l.1-1v-.9l.1-.7v-.6l.1-.4v-.5l.1-.1.1.2v.3l.1.4v.5l.1.7v1.8l.1 1.1v1.5l.1 1.7v2l.1 2.6v3.3l.1 2h.2v-2.4l.1-3.1v-4.4l.1-1.6v-1.3l.1-1.1v-.9l.1-.8v-1l.1-.3v-.3h.1l.1.1v.7l.1.5v.6l.1.8v1l.1 1.1v3.1l.1 2v2.5l.1 3.2v1.6h.2l.1-1.1v-3.3l.1-2.5v-3.6l.1-1.4V158l.1-.9v-.8l.1-.6v-.8l.1-.2v-.1h.1v.3l.1.4v.5l.1.6v.8l.1.9v2.5l.1 1.6v2l.1 2.4v4.4h.3v-3.3l.1-2.5v-2.1l.1-1.7v-2.5l.1-1v-.8l.1-.6v-.8l.1-.3v-.1h.1v.4l.1.3v.5l.1.6v1.6l.1 1.1v1.4l.1 1.5v4.3l.1 3.1v.9h.3v-4.8l.1-2.2v-1.7l.1-1.4v-2.2l.1-.8v-.6l.1-.5v-.6l.1-.2.1.1v.5l.1.5v.6l.1.7v2l.1 1.3v1.5l.1 1.9v5.2l.1.7h.2v-1.1l.1-2.8v-2.2l.1-1.7v-2.7l.1-1v-.8l.1-.7v-.9l.1-.3v-.1h.1v.2l.1.4v1l.1.7v1.9l.1 1.3v1.5l.1 1.8v5.1l.1.4h.2v-.1l.1-2.8v-2.3l.1-1.8v-2.7l.1-1v-1.6l.1-.5v-.4l.1-.3v-.2h.1v.5l.1.4v.6l.1.7v1.9l.1 1.2v3.3l.1 2.1v3h.3v-2l.1-2.3v-1.9l.1-1.5V161l.1-.9v-1.3l.1-.4v-.5h.1l.1.2v.7l.1.5v1.5l.1 1v2.6l.1 1.8v2.1l.1 2.7h.2l.1-1.2v-4.2l.1-1.6v-1.3l.1-1.1V160l.1-.6v-.7l.1-.2v-.1l.1.2v.6l.1.6v1.4l.1 1v1.2l.1 1.4v3.8l.1 2.4h.2l.1-.3v-4.4l.1-1.6v-2.4l.1-.9V160l.1-.4v-.4l.1-.2v-.1l.1.2v.6l.1.5v1.4l.1 1v2.5l.1 1.6v4.3h.3l.1-2v-3.6l.1-1.4v-2.1l.1-.7v-1.1l.1-.4v-.3h.1v.4l.1.3v1.1l.1.8v2l.1 1.4v3.6l.1 2h.3v-3.3l.1-1.7v-2.5l.1-1v-1.4l.1-.5v-.6l.1-.1v-.1.1l.1.3v.8l.1.6v1.6l.1 1.1v2.9l.1 1.9v1.9h.3v-.5l.1-2.1v-3.2l.1-1.2v-1.8l.1-.6v-1.2l.1-.1.1.2v.8l.1.6v1.6l.1 1.1v2.8l.1 1.9v1.7h.3v-2l.1-1.8v-2.7l.1-1V162l.1-.5v-.7l.1-.1v-.1.1l.1.2v1.3l.1.7v1.9l.1 1.3v3.3l.1 1.6h.3v-3.2l.1-1.5V164l.1-.8v-1.3l.1-.4v-.5l.1.1v.4l.1.4v1.3l.1.8v2.2l.1 1.5v3.3h.3v-.8l.1-1.9v-2.8l.1-1v-1.6l.1-.6v-.9l.1-.1v.2l.1.3v.9l.1.7v3l.1 1.4v3.2h.3l.1-.2v-3.5l.1-1.3v-2.7l.1-.6v-.8l.1-.2v-.1.2l.1.3v.8l.1.7v1.8l.1 1.1v4.5h.4v-4.6l.1-1.1v-1.6l.1-.6V162l.1-.1v.2l.1.2v1.5l.1.8v2l.1 1.4v3h.3l.1-1.1v-4.2l.1-.9v-1.4l.1-.5v-.7h.1v.3l.1.4v1.8l.1.9v2.5l.1 1.6v1.3h.3v-2.3l.1-1.4v-2.2l.1-.8v-1.5l.1-.2v-.2.1l.1.2v.8l.1.6v2.7l.1 1.3v2.9h.3v-.2l.1-1.7v-2.7l.1-1v-1.9l.1-.4v-.5l.1.1v.5l.1.4v2.2l.1 1.1v4.1h.4v-4.2l.1-1v-1.6l.1-.5v-.9h.1v.5l.1.5v2.1l.1 1v4.1h.4v-3.9l.1-1.1v-2.1l.1-.4v-.5h.1v.5l.1.4v2l.1 1v4.1h.3l.1-.8v-3.9l.1-.9v-1.3l.1-.4v-.6h.1v.8l.1.6v2.4l.1 1.2v2.9h.1z"/><path fill="none" stroke="#3b82f6" stroke-linejoin="round" stroke-width="1.5" d="M37.5 47h288.2l.1.1h.6l.1.1h.2l.1.1h.2l.1.1h.1l.1.1.1.1h.1l.1.1.1.1h.1l.1.1.1.1.1.1.1.1.1.1.1.1.1.2.1.1.1.1.1.2v.1l.1.2.1.1.1.2.1.2.1.2.1.2.1.2.1.2.1.2.1.3.1.2.1.3.1.3.1.2.1.3.1.3.1.3.1.3.1.4v.3l.1.4.1.4.1.3.1.4.1.4.1.5.1.4.1.4.1.5.1.5.1.5.1.5v.5l.1.5.1.6.1.5.1.6.1.6.1.6.1.7.1.6.1.7v.7l.1.7.1.7.1.8.1.8.1.8.1.8.1.8v.9l.1.9.1.9.1 1 .1.9.1 1 .1 1.1.1 1.1v1.1l.1 1.1.1 1.2.1 1.2.1 1.2.1 1.3.1 1.4v1.4l.1 1.5.1 1.5.1 1.5.1 1.7.1 1.7.1 1.8v1.9l.1 2.1.1 2.1.1 2.3.1 2.5.1 2.7v3l.1 3.3.1 3.8.1 4.6.1 5.9.1 8.6v19l.1-6.5.1-11.4.1-5.2.1-3v-1.9l.1-1.3.1-.8.1-.4.1-.2.1.1v.2l.1.4.1.5.1.6.1.8v.8l.1.9.1 1 .1 1.1.1 1.1v1.1l.1 1.1.1 1.1.1 1 .1 1v.9l.1.8.1.7.1.5.1.4v.2l.1.1.1-.1.1-.1v-.2l.1-.3.1-.3.1-.3.1-.3v-.2l.1-.2.1-.2.1-.1v.1l.1.1.1.2.1.3v.4l.1.7.1.7.1 1v1.2l.1 1.5.1 1.9.1 2.4v3.2l.1 4.4.1 7.1.1 2"/><path fill="none" stroke="#3b82f6" stroke-linejoin="round" stroke-width="1.5" d="m341.1 171 .1-4.6.1-6.5.1-4.4v-3.3l.1-2.6.1-2.1.1-1.7v-1.5l.1-1.2.1-1.1.1-.8v-.7l.1-.6.1-.5.1-.3v-.3l.1-.1h.1v.1l.1.2.1.4.1.4v.6l.1.8.1.9v1.1l.1 1.3.1 1.6.1 1.9v2.4l.1 3 .1 4.1v6.1l.1 7.4m.1 0 .1-3.1v-7.7l.1-4.9.1-3.4v-2.7l.1-2.1.1-1.7V144l.1-1.2.1-.9.1-.8v-.7l.1-.5.1-.4v-.2l.1-.1.1-.1v.1l.1.2.1.4v.4l.1.6.1.7.1.9v1.1l.1 1.2.1 1.6v1.8l.1 2.2.1 2.8v3.7l.1 5.2.1 8.8v.2m.1 0 .1-7.6v-5.6l.1-3.8.1-2.8v-2.3l.1-1.8.1-1.5v-1.2l.1-1 .1-.9v-.6l.1-.6.1-.3v-.3l.1-.2h.1v.1l.1.2.1.3v.4l.1.6.1.7v.8l.1 1.1.1 1.2v1.5l.1 1.8v2.1l.1 2.7.1 3.5v4.9l.1 7.8.1.8"/><path fill="none" stroke="#3b82f6" stroke-linejoin="round" stroke-width="1.5" d="m348.3 171 .1-4.9.1-6v-4l.1-3 .1-2.3v-1.9l.1-1.5v-1.3l.1-1 .1-.9v-.7l.1-.5.1-.5v-.2l.1-.2v-.1l.1.1.1.2v.3l.1.4.1.5v.7l.1.9v1l.1 1.2.1 1.4v1.8l.1 2.1.1 2.6v3.4l.1 4.6v7.2l.1.6m.1 0v-2.3l.1-6.4v-4.2l.1-3.1.1-2.4v-1.9l.1-1.6v-1.3l.1-1.1.1-.9v-.7l.1-.5.1-.5v-.3l.1-.2h.1l.1.2v.3l.1.4v.5l.1.7v.8l.1 1 .1 1.1v1.5l.1 1.7v2l.1 2.6.1 3.2v4.5l.1 6.8v.1m.2 0v-6.6l.1-4.4v-3.2l.1-2.5v-2l.1-1.6.1-1.3v-1.1l.1-.9v-.7l.1-.6.1-.5v-.3l.1-.2v-.1l.1.1v.1l.1.3.1.4v.5l.1.6v.8l.1 1v1.1l.1 1.4.1 1.7v2l.1 2.5v3.1l.1 4.3v6.1m.2 0 .1-4.6v-4.6l.1-3.3V156l.1-2.1v-1.6l.1-1.4.1-1.1v-.9l.1-.8v-.6l.1-.4v-.4l.1-.2v-.1h.1l.1.2v.2l.1.4v.5l.1.6v.8l.1.9v1.2l.1 1.3v1.6l.1 2 .1 2.4v3.1l.1 4.1v5.3m.2 0v-2.7l.1-4.8v-3.4l.1-2.6.1-2.1v-1.6l.1-1.4v-1.2l.1-.9v-.8l.1-.6v-.5l.1-.4v-.2l.1-.1.1.1v.3l.1.3v.5l.1.6.1.8v.9l.1 1.1v1.3l.1 1.6v1.9l.1 2.4v2.9l.1 4v4.6m.2 0v-.8l.1-5v-3.5l.1-2.7v-2.1l.1-1.8v-1.4l.1-1.2v-.9l.1-.8.1-.7v-.5l.1-.3v-.3l.1-.1.1.1v.2l.1.3v.5l.1.6v.7l.1.9v1.1l.1 1.3v1.6l.1 1.8v2.3l.1 2.9v3.9l.1 3.9m.2 0v-4.2l.1-3.6v-2.8l.1-2.2v-1.7l.1-1.5v-1.2l.1-1v-.8l.1-.7v-.5l.1-.4v-.2l.1-.2.1.1v.2l.1.3v.4l.1.6v.7l.1.9v1.1l.1 1.2v1.6l.1 1.8v5l.1 3.7v3.4m.2 0 .1-2.6v-3.8l.1-2.8v-2.3l.1-1.8v-1.5l.1-1.2v-1l.1-.9v-.7l.1-.5v-.4l.1-.3v-.1l.1-.1v.1l.1.2v.7l.1.6v.7l.1.8v1.1l.1 1.2v1.5l.1 1.8v2.2l.1 2.7v3.6l.1 2.8m.2 0v-5l.1-3v-2.3l.1-1.8v-1.5l.1-1.3V155l.1-.8v-.7l.1-.6v-.4l.1-.3v-.2l.1.1v.1l.1.3v.4l.1.6v.6l.1.9v1l.1 1.2v1.4l.1 1.8v4.8l.1 3.4v2.4m.3 0v-3.7l.1-3V160l.1-1.6v-1.3l.1-1v-.9l.1-.7v-.6l.1-.4v-.5l.1-.1.1.2v.3l.1.4v.5l.1.7v1.8l.1 1.1v1.5l.1 1.7v2l.1 2.6v3.3l.1 2m.2 0v-2.4l.1-3.1v-4.4l.1-1.6v-1.3l.1-1.1v-.9l.1-.8v-1l.1-.3v-.3h.1l.1.1v.7l.1.5v.6l.1.8v1l.1 1.1v3.1l.1 2v2.5l.1 3.2v1.6m.2 0 .1-1.1v-3.3l.1-2.5v-3.6l.1-1.4V158l.1-.9v-.8l.1-.6v-.8l.1-.2v-.1h.1v.3l.1.4v.5l.1.6v.8l.1.9v2.5l.1 1.6v2l.1 2.4v4.4m.3 0v-3.3l.1-2.5v-2.1l.1-1.7v-2.5l.1-1v-.8l.1-.6v-.8l.1-.3v-.1h.1v.4l.1.3v.5l.1.6v1.6l.1 1.1v1.4l.1 1.5v4.3l.1 3.1v.9m.3 0v-4.8l.1-2.2v-1.7l.1-1.4v-2.2l.1-.8v-.6l.1-.5v-.6l.1-.2.1.1v.5l.1.5v.6l.1.7v2l.1 1.3v1.5l.1 1.9v5.2l.1.7m.2 0v-1.1l.1-2.8v-2.2l.1-1.7v-2.7l.1-1v-.8l.1-.7v-.9l.1-.3v-.1h.1v.2l.1.4v1l.1.7v1.9l.1 1.3v1.5l.1 1.8v5.1l.1.4m.2 0v-.1l.1-2.8v-2.3l.1-1.8v-2.7l.1-1v-1.6l.1-.5v-.4l.1-.3v-.2h.1v.5l.1.4v.6l.1.7v1.9l.1 1.2v3.3l.1 2.1v3m.3 0v-2l.1-2.3v-1.9l.1-1.5V161l.1-.9v-1.3l.1-.4v-.5h.1l.1.2v.7l.1.5v1.5l.1 1v2.6l.1 1.8v2.1l.1 2.7m.2 0 .1-1.2v-4.2l.1-1.6v-1.3l.1-1.1V160l.1-.6v-.7l.1-.2v-.1l.1.2v.6l.1.6v1.4l.1 1v1.2l.1 1.4v3.8l.1 2.4m.2 0 .1-.3v-4.4l.1-1.6v-2.4l.1-.9V160l.1-.4v-.4l.1-.2v-.1l.1.2v.6l.1.5v1.4l.1 1v2.5l.1 1.6v4.3m.3 0 .1-2v-3.6l.1-1.4v-2.1l.1-.7v-1.1l.1-.4v-.3h.1v.4l.1.3v1.1l.1.8v2l.1 1.4v3.6l.1 2m.3 0v-3.3l.1-1.7v-2.5l.1-1v-1.4l.1-.5v-.6l.1-.1v-.1.1l.1.3v.8l.1.6v1.6l.1 1.1v2.9l.1 1.9v1.9m.3 0v-.5l.1-2.1v-3.2l.1-1.2v-1.8l.1-.6v-1.2l.1-.1.1.2v.8l.1.6v1.6l.1 1.1v2.8l.1 1.9v1.7m.3 0v-2l.1-1.8v-2.7l.1-1V162l.1-.5v-.7l.1-.1v-.1.1l.1.2v1.3l.1.7v1.9l.1 1.3v3.3l.1 1.6m.3 0v-3.2l.1-1.5V164l.1-.8v-1.3l.1-.4v-.5l.1.1v.4l.1.4v1.3l.1.8v2.2l.1 1.5v3.3m.3 0v-.8l.1-1.9v-2.8l.1-1v-1.6l.1-.6v-.9l.1-.1v.2l.1.3v.9l.1.7v3l.1 1.4v3.2m.3 0 .1-.2v-3.5l.1-1.3v-2.7l.1-.6v-.8l.1-.2v-.1.2l.1.3v.8l.1.7v1.8l.1 1.1v4.5m.4 0v-4.6l.1-1.1v-1.6l.1-.6V162l.1-.1v.2l.1.2v1.5l.1.8v2l.1 1.4v3m.3 0 .1-1.1v-4.2l.1-.9v-1.4l.1-.5v-.7h.1v.3l.1.4v1.8l.1.9v2.5l.1 1.6v1.3m.3 0v-2.3l.1-1.4v-2.2l.1-.8v-1.5l.1-.2v-.2.1l.1.2v.8l.1.6v2.7l.1 1.3v2.9m.3 0v-.2l.1-1.7v-2.7l.1-1v-1.9l.1-.4v-.5l.1.1v.5l.1.4v2.2l.1 1.1v4.1m.4 0v-4.2l.1-1v-1.6l.1-.5v-.9h.1v.5l.1.5v2.1l.1 1v4.1m.4 0v-3.9l.1-1.1v-2.1l.1-.4v-.5h.1v.5l.1.4v2l.1 1v4.1m.3 0 .1-.8v-3.9l.1-.9v-1.3l.1-.4v-.6h.1v.8l.1.6v2.4l.1 1.2v2.9"/></g><path stroke="#d1d5db" d="M442 16v155m0-77.5h358"/><text x="621" y="197" fill="#6b7280" font-size="9" text-anchor="middle">Hz</text><text x="420" y="93.5" fill="#6b7280" font-size="9" text-anchor="middle" transform="rotate(-90 420 93.5)">Phase (deg)</text><path stroke="#e5e7eb" stroke-width=".5" d="M474.6 16v155m19.1-155v155m13.6-155v155m10.5-155v155m8.6-155v155m7.3-155v155m6.2-155v155m5.6-155v155m37.6-155v155m19.1-155v155m13.5-155v155m10.6-155v155m8.5-155v155m7.3-155v155m6.3-155v155m5.5-155v155m37.6-155v155m19.1-155v155m13.6-155v155m10.5-155v155m8.6-155v155m7.3-155v155m6.2-155v155m5.6-155v155M800 16v155M442 16v155"/><text x="442" y="183" fill="#6b7280" font-size="8" text-anchor="middle">10</text><path stroke="#e5e7eb" stroke-width=".5" d="M550.5 16v155"/><text x="550.5" y="183" fill="#6b7280" font-size="8" text-anchor="middle">100</text><path stroke="#e5e7eb" stroke-width=".5" d="M658.9 16v155"/><text x="658.9" y="183" fill="#6b7280" font-size="8" text-anchor="middle">1k</text><path stroke="#e5e7eb" stroke-width=".5" d="M767.4 16v155"/><text x="767.4" y="183" fill="#6b7280" font-size="8" text-anchor="middle">10k</text><path stroke="#e5e7eb" stroke-width=".5" d="M442 54.8h358m-358 77.5h358M442 16h358"/><text x="438" y="19" fill="#6b7280" font-size="8" text-anchor="end">+180</text><text x="438" y="96.5" fill="#6b7280" font-size="8" text-anchor="end">0</text><path stroke="#e5e7eb" stroke-width=".5" d="M442 171h358"/><text x="438" y="174" fill="#6b7280" font-size="8" text-anchor="end">-180</text><g clip-path="url(#c)"><path fill="url(#d)" d="M445.5 93.5h166.1l1.3-75.5 1.4 2.2 1.3 2.3 1.2 2.3L618 27l1.2 2.3 1.2 2.3 1.1 2.3 1.1 2.2 1.1 2.3 1.1 2.3 1 2.2 1 2.3 1 2.3 1 2.3.9 2.2 1 2.3.9 2.3.9 2.2.9 2.3.8 2.3.9 2.2.8 2.3.8 2.3.8 2.3.8 2.2.8 2.3.8 2.3.7 2.2.8 2.3.7 2.3.7 2.3.7 2.2.7 2.3.7.6h18.4l.5-76.1.4 2.2.5 2.3.4 2.3.5 2.2.4 2.3.4 2.3.5 2.3.4 2.2.4 2.3.4 2.3.5 2.2.4 2.3.4 2.3.4 2.2.4 2.3.4 2.3.4 2.3.4 2.2.3 2.3.4 2.3.4 2.2.4 2.3.4 2.3.3 2.3.4 2.2.4 2.3.3 2.3.4 2.2.4 2.3.3 2.3.4 2.2.3 2.3.4 2.3.3 1.2h10.2l.2-76.7.3 2.2.3 2.3.3 2.3.2 2.2.3 2.3.3 2.3.2 2.3.3 2.2.3 2.3.2 2.3.3 2.2.2 2.3.3 2.3.3 2.2.2 2.3.3 2.3.2 2.3.3 2.2.2 2.3.3 2.3.2 2.2.2 2.3.3 2.3.2 2.2.3 2.3.2 2.3.3 2.3.2 2.2.2 2.3.3 2.3.2 2.2.2 2.3.3 2.3.2 1.8h7l.2-77.3.2 2.2.2 2.3.2 2.3.2 2.2.2 2.3.2 2.3.2 2.2.2 2.3.2 2.3.1 2.3.2 2.2.2 2.3.2 2.3.2 2.2.2 2.3.2 2.3.2 2.2.1 2.3.2 2.3.2 2.3.2 2.2.2 2.3.1 2.3.2 2.2.2 2.3.2 2.3.2 2.3.1 2.2.2 2.3.2 2.3.2 2.2.1 2.3.2 2.3.2 2.2.2.2h5.3l.2-75.7.1 2.3.2 2.3.1 2.2.2 2.3.1 2.3.2 2.2.1 2.3.2 2.3.1 2.3.2 2.2.1 2.3.2 2.3.1 2.2.2 2.3.1 2.3.2 2.2.1 2.3.1 2.3.2 2.3.1 2.2.2 2.3.1 2.3.2 2.2.1 2.3.1 2.3.2 2.2.1 2.3.2 2.3.1 2.3.1 2.2.2 2.3.1 2.3.2 2.2.1.8h4.3l.2-76.3.1 2.3.1 2.3.1 2.2.2 2.3.1 2.3.1 2.2.1 2.3.2 2.3.1 2.2.1 2.3.1 2.3.1 2.3.2 2.2.1 2.3.1 2.3.1 2.2.1 2.3.2 2.3.1 2.3.1 2.2.1 2.3.1 2.3.2 2.2.1 2.3.1 2.3.1 2.2.1 2.3.1 2.3.2 2.3.1 2.2.1 2.3.1 2.3.1 2.2.1 1.4h3.7l.1-76.9.1 2.3.1 2.2.1 2.3.1 2.3.1 2.3.1 2.2.1 2.3.1 2.3.1 2.2.1 2.3.1 2.3.1 2.3.1 2.2.2 2.3.1 2.3.1 2.2.1 2.3.1 2.3.1 2.2.1 2.3.1 2.3.1 2.3.1 2.2.1 2.3.1 2.3.1 2.2.1 2.3.1 2.3.1 2.3.1 2.2.1 2.3.1 2.3.1 2.2.1 2h3.2l.1-75.2.1 2.2.1 2.3.1 2.3.1 2.3.1 2.2v2.3l.1 2.3.1 2.2.1 2.3.1 2.3.1 2.2.1 2.3.1 2.3.1 2.3.1 2.2v2.3l.1 2.3.1 2.2.1 2.3.1 2.3.1 2.3.1 2.2.1 2.3v2.3l.1 2.2.1 2.3.1 2.3.1 2.2.1 2.3.1 2.3.1 2.3v2.2l.1 2.3.1.3h2l.1-18.8.1 2.3.1 2.3.1 2.2v2.3l.1 2.3.1 2.3.1 2.2.1 2.3.1.6h2.6V17.4l.1 2.2.1 2.3.1 2.3v2.2l.1 2.3.1 2.3.1 2.3v2.2l.1 2.3.1 2.3.1 2.2v2.3l.1 2.3.1 2.2.1 2.3v42.1h1.3l.1-76.4v2.2l.1 2.3.1 2.3.1 2.2v2.3l.1 2.3.1 2.3v2.2l.1 2.3.1 2.3.1 2.2v2.3l.1 2.3.1 2.2v2.3l.1 2.3.1 40.1h1.1l.1-76.7V19l.1 2.3.1 2.3v2.2l.1 2.3.1 2.3.1 2.3v2.2l.1 2.3.1 2.3v2.2l.1 2.3.1 2.3v2.2l.1 2.3.1 2.3v2.3l.1 38.1h1l.1-77v2.2l.1 2.3.1 2.3v2.2l.1 2.3.1 2.3v2.2l.1 2.3.1 2.3v2.3l.1 2.2v2.3l.1 2.3.1 2.2v2.3l.1 2.3.1 2.3v38.4h1V16.2l.1 2.2.1 2.3V23l.1 2.2.1 2.3v2.3l.1 2.2v2.3l.1 2.3.1 2.3v2.2l.1 2.3.1 2.3v2.2l.1 2.3v2.3l.1 2.2.1 38.8h.9l.1-75.4.1 2.3v2.3l.1 2.2v2.3l.1 2.3v2.2l.1 2.3.1 2.3v2.3l.1 2.2v2.3l.1 2.3.1 2.2v2.3l.1 2.3v2.2l.1 39.1h.9l.1-75.7v2.3l.1 2.3.1 2.2v2.3l.1 2.3v2.2l.1 2.3V36l.1 2.3.1 2.2v2.3l.1 2.3v2.2l.1 2.3v2.3l.1 2.2.1 39.4h.8l.1-76 .1 2.3v2.3l.1 2.2v2.3l.1 2.3v2.2l.1 2.3v2.3l.1 2.2v2.3l.1 2.3.1 2.3V47l.1 2.3v2.3l.1 2.2v39.7h.9V17.2l.1 2.3v2.3l.1 2.2v2.3l.1 2.3.1 2.2v2.3l.1 2.3v2.2l.1 2.3v2.3l.1 2.3v2.2l.1 2.3v2.3l.1 2.2v40h.9V16.9l.1 2.3v2.2l.1 2.3V26l.1 2.3v2.2l.1 2.3v2.3l.1 2.2v2.3l.1 2.3v2.3l.1 2.2v2.3l.1 2.3v2.2l.1 40.3h.8V16.6l.1 2.3v2.2l.1 2.3v2.3l.1 2.3v2.2l.1 2.3v2.3l.1 2.2v2.3l.1 2.3v4.5l.1 2.3v2.3l.1 2.2v2.3l.1 38.3h.7l.1-77.2v2.3l.1 2.2v4.6l.1 2.3v2.2l.1 2.3v2.3l.1 2.2V39l.1 2.3v2.2l.1 2.3v2.3l.1 2.3v2.2l.1 2.3v38.6h.7V16l.1 2.3v2.2l.1 2.3v2.3l.1 2.3v2.2l.1 2.3v2.3l.1 2.2v2.3l.1 2.3v4.5l.1 2.3v2.3l.1 2.2v2.3l.1 38.9h.7V18l.1 2.2v2.3l.1 2.3V27l.1 2.3v4.6l.1 2.2v2.3l.1 2.3v2.2l.1 2.3v2.3l.1 2.3v4.5l.1 39.2h.7V17.7l.1 2.2v4.6l.1 2.2V29l.1 2.3v2.3l.1 2.2v4.6l.1 2.2v2.3l.1 2.3v2.3l.1 2.2v41.8h.7l.1-76.1v4.5l.1 2.3v2.2l.1 2.3V31l.1 2.3v4.5l.1 2.3v2.2l.1 2.3v4.5l.1 2.3v2.3l.1 39.8h.6l.1-76.4v4.5l.1 2.3v2.2l.1 2.3V33l.1 2.2v2.3l.1 2.3v4.5l.1 2.3v2.2l.1 2.3v42.4h.7V16.8l.1 2.2v4.6l.1 2.2v2.3l.1 2.3v4.5l.1 2.3v2.3l.1 2.2v4.6l.1 2.2v4.6l.1 40.4h.6v-77l.1 2.2V21l.1 2.3v4.5l.1 2.3v4.5l.1 2.3v2.3l.1 2.2V46l.1 2.2v2.3l.1 2.3v40.7h.6V16.2l.1 2.2V23l.1 2.2v2.3l.1 2.3v4.5l.1 2.3v4.5l.1 2.3v4.5l.1 2.3v2.3l.1 2.2v38.8h.6V18.1l.1 2.3v4.5l.1 2.3v4.5l.1 2.3v4.6l.1 2.2v2.3l.1 2.3v4.5l.1 2.3v41.3h.6V17.8l.1 2.3v4.5l.1 2.3v4.5l.1 2.3V36l.1 2.3v4.5l.1 2.3v4.5l.1 2.3v41.6h.6v-76l.1 2.3v4.5l.1 2.3v4.5l.1 2.3v4.5l.1 2.3v4.6l.1 2.2v4.6l.1 2.2v39.7h.5l.1-76.3v4.6l.1 2.2v4.6l.1 2.2v4.6l.1 2.2v4.6l.1 2.3V49l.1 2.3v42.2h.6V16.9v2.3l.1 2.2V26l.1 2.3v4.5l.1 2.3v4.5l.1 2.3v4.5l.1 2.3v4.5l.1 40.3h.5V16.6v2.3l.1 2.2v4.6l.1 2.3v4.5l.1 2.3v4.5l.1 2.3v4.5l.1 2.3v4.5l.1 40.6h.5V16.3v2.3l.1 2.2v6.9l.1 2.2v4.6l.1 2.2v4.6l.1 2.2v4.6l.1 2.3v4.5l.1 38.6h.4V16l.1 2.3v4.5l.1 2.3v4.5l.1 2.3v4.5l.1 2.3v6.8l.1 2.3v4.5l.1 2.3v38.9h.5V18v2.2l.1 2.3V27l.1 2.3v6.8l.1 2.3v4.5l.1 2.3v4.6l.1 2.2v41.5h.5V17.7v2.2l.1 2.3v4.5l.1 2.3v4.6l.1 2.2v6.8l.1 2.3v4.6l.1 2.2v41.8h.5V17.4v2.2l.1 2.3v6.8l.1 2.3v4.5l.1 2.3v6.8l.1 2.3v4.5l.1 2.3v39.8h.4l.1-76.4v4.5l.1 2.3v6.8l.1 2.3v4.5l.1 2.3v6.8l.1 2.2v44.7h.5V16.8 19l.1 2.3v4.5l.1 2.3v6.8l.1 2.3V44l.1 2.3v4.5l.1 2.3v40.4h.4v-77l.1 2.2v4.6l.1 2.2v6.8l.1 2.3v6.8l.1 2.3v4.5l.1 2.3v43h.4l.1-77.3V23l.1 2.2V32l.1 2.3v6.8l.1 2.3v4.5l.1 2.3v43.3h.5V18.1v4.6l.1 2.2v6.8l.1 2.3v6.8l.1 2.3v6.8l.1 2.3v41.3h.4l.1-75.7v6.8l.1 2.3v6.8l.1 2.3v6.8l.1 2.3v48.4z"/><path fill="url(#e)" d="M445.5 93.5v2.3l32.6 2.2 19.1 2.3 13.6 2.3 10.5 2.3 8.6 2.2 7.2 2.3 6.3 2.3 5.6 2.2 4.9 2.3 4.5 2.3 4.1 2.2 3.8 2.3 3.5 2.3 3.2 2.3 3.1 2.2 2.8 2.3 2.7 2.3 2.6 2.2 2.4 2.3 2.3 2.3 2.2 2.3 2.1 2.2 2 2.3 1.9 2.3 1.8 2.2 1.8 2.3 1.7 2.3 1.7 2.2 1.6 2.3 1.5 2.3 1.5 2.3 1.5 2.2 1.4 2.3 1.3-77.2h31.3l.7 1.7.7 2.2.6 2.3.7 2.3.7 2.2.6 2.3.6 2.3.7 2.3.6 2.2.6 2.3.6 2.3.6 2.2.6 2.3.5 2.3.6 2.3.6 2.2.5 2.3.6 2.3.5 2.2.6 2.3.5 2.3.5 2.2.5 2.3.6 2.3.5 2.3.5 2.2.5 2.3.5 2.3.4 2.2.5 2.3.5 2.3.5 2.3.4 2.2.5 2.3.5-76.6h13.1l.3 1.1.4 2.2.3 2.3.3 2.3.4 2.2.3 2.3.3 2.3.4 2.3.3 2.2.3 2.3.3 2.3.3 2.2.4 2.3.3 2.3.3 2.2.3 2.3.3 2.3.3 2.3.3 2.2.3 2.3.3 2.3.3 2.2.3 2.3.3 2.3.3 2.3.3 2.2.3 2.3.3 2.3.3 2.2.3 2.3.2 2.3.3 2.2.3 2.3.3 2.3.2-76h8.4l.2.5.2 2.2.2 2.3.3 2.3.2 2.2.2 2.3.2 2.3.3 2.2.2 2.3.2 2.3.2 2.3.3 2.2.2 2.3.2 2.3.2 2.2.2 2.3.2 2.3.2 2.3.3 2.2.2 2.3.2 2.3.2 2.2.2 2.3.2 2.3.2 2.2.2 2.3.2 2.3.2 2.3.2 2.2.2 2.3.2 2.3.2 2.2.2 2.3.2 2.3.2-75.4h6.3l.2 2.1.1 2.3.2 2.3.2 2.2.1 2.3.2 2.3.2 2.2.1 2.3.2 2.3.2 2.3.1 2.2.2 2.3.2 2.3.1 2.2.2 2.3.2 2.3.1 2.2.2 2.3.2 2.3.1 2.3.2 2.2.1 2.3.2 2.3.2 2.2.1 2.3.2 2.3.1 2.3.2 2.2.1 2.3.2 2.3.1 2.2.2 2.3.2 2.3.1 2.2.2-77h4.8l.1 1.5.1 2.3.2 2.3.1 2.2.1 2.3.2 2.3.1 2.2.2 2.3.1 2.3.1 2.2.2 2.3.1 2.3.1 2.3.2 2.2.1 2.3.1 2.3.2 2.2.1 2.3.1 2.3.1 2.3.2 2.2.1 2.3.1 2.3.2 2.2.1 2.3.1 2.3.1 2.2.2 2.3.1 2.3.1 2.3.2 2.2.1 2.3.1 2.3.1 2.2.2-76.4h3.9l.1.9.2 2.3.1 2.2.1 2.3.1 2.3.1 2.3.1 2.2.1 2.3.1 2.3.2 2.2.1 2.3.1 2.3.1 2.3.1 2.2.1 2.3.1 2.3.1 2.2.2 2.3.1 2.3.1 2.2.1 2.3.1 2.3.1 2.3.1 2.2.1 2.3.1 2.3.1 2.2.1 2.3.1 2.3.2 2.3.1 2.2.1 2.3.1 2.3.1 2.2.1-75.8h3.4l.1.3.1 2.3.1 2.2.1 2.3.1 2.3.1 2.3.1 2.2.1 2.3v2.3l.1 2.2.1 2.3.1 2.3.1 2.2.1 2.3.1 2.3.1 2.3.1 2.2.1 2.3.1 2.3.1 2.2.1 2.3.1 2.3.1 2.3.1 2.2.1 2.3.1 2.3.1 2.2.1 2.3v2.3l.1 2.2.1 2.3.1 2.3.1 2.3.1 2.2.1 2.3.1-77.5h2.9l.1 2 .1 2.2.1 2.3.1 2.3.1 2.2v2.3l.1 2.3.1 2.3.1 2.2.1 2.3.1 2.3.1 2.2v2.3l.1 2.3.1 2.3.1 2.2.1 2.3.1 2.3v2.2l.1 2.3.1 2.3.1 2.2.1 2.3.1 2.3v2.3l.1-56.5h.7l.1 1.7v2.2l.1 2.3.1 2.3.1 2.2.1 2.3v2.3l.1 2.3.1 2.2.1 2.3.1 2.3v2.2l.1 2.3.1 2.3.1 2.3.1 2.2v2.3l.1 2.3.1 2.2.1 2.3.1 2.3v2.2l.1 2.3.1 2.3.1 2.3v2.2l.1 2.3.1 2.3.1 2.2.1 2.3v2.3l.1 2.3.1 2.2.1 2.3V93.5h1.2v37.7l.1 2.3.1 2.2.1 2.3v2.3l.1 2.2.1 2.3.1 2.3v2.3l.1 2.2.1 2.3.1 2.3v2.2l.1 2.3.1 2.3.1 2.2v2.3l.1 2.3.1-76.3h1.1l.1 39.7.1 2.2v2.3l.1 2.3.1 2.2v2.3l.1 2.3.1 2.3v2.2l.1 2.3.1 2.3.1 2.2v2.3l.1 2.3.1 2.2v2.3l.1 2.3.1-76h1.1l.1 41.6.1 2.3v2.3l.1 2.2.1 2.3v2.3l.1 2.2.1 2.3v2.3l.1 2.3.1 2.2v2.3l.1 2.3.1 2.2v2.3l.1 2.3.1-75.7h1.1v41.3l.1 2.3.1 2.3v2.2l.1 2.3.1 2.3v2.2l.1 2.3v2.3l.1 2.3.1 2.2v2.3l.1 2.3.1 2.2v2.3l.1 2.3V93.5h1.1l.1 41v2.3l.1 2.3v2.2l.1 2.3.1 2.3v2.2l.1 2.3v2.3l.1 2.3.1 2.2v2.3l.1 2.3.1 2.2v2.3l.1 2.3v2.2l.1-77.3h.9l.1 40.7.1 2.3v2.3l.1 2.2v2.3l.1 2.3v2.2l.1 2.3.1 2.3v2.3l.1 2.2v2.3l.1 2.3.1 2.2v2.3l.1 2.3v2.2l.1-77h.9l.1 40.4v2.3l.1 2.3v2.2l.1 2.3v2.3l.1 2.2v2.3l.1 2.3.1 2.2v2.3l.1 2.3v2.3l.1 2.2v2.3l.1 2.3v2.2l.1-76.7h.9v40.1l.1 2.3v2.3l.1 2.2v2.3l.1 2.3.1 2.2v2.3l.1 2.3v2.2l.1 2.3v2.3l.1 2.3v2.2l.1 2.3v2.3l.1 2.2V93.5h.9v39.8l.1 2.3v2.3l.1 2.2v2.3l.1 2.3v2.2l.1 2.3v2.3l.1 2.2v2.3l.1 2.3.1 2.3v2.2l.1 2.3v2.3l.1 2.2V93.5h.8l.1 39.5v2.3l.1 2.2v2.3l.1 2.3v2.3l.1 2.2v2.3l.1 2.3v2.2l.1 2.3v2.3l.1 2.3v2.2l.1 2.3v2.3l.1 2.2V93.5h.8l.1 41.5v2.2l.1 2.3v2.3l.1 2.3v2.2l.1 2.3v2.3l.1 2.2v2.3l.1 2.3v2.3l.1 2.2v2.3l.1 2.3v2.2l.1-75.5h.8v41.2l.1 2.2v4.6l.1 2.3v2.2l.1 2.3v2.3l.1 2.2v2.3l.1 2.3v2.2l.1 2.3v2.3l.1 2.3v2.2-75.2h.8l.1 40.9v2.2l.1 2.3v2.3l.1 2.3v4.5l.1 2.3v2.2l.1 2.3v2.3l.1 2.2v2.3l.1 2.3v4.5l.1 2.3V93.5h.7l.1 40.6v2.2l.1 2.3v2.3l.1 2.2v4.6l.1 2.3v2.2l.1 2.3v2.3l.1 2.2v4.6l.1 2.3v2.2l.1 2.3V93.5h.7v40.3l.1 2.2v2.3l.1 2.3v2.2l.1 2.3v4.6l.1 2.2v2.3l.1 2.3v2.2l.1 2.3v4.6l.1 2.2v2.3l.1-76.6h.6l.1 40v2.2l.1 2.3v4.5l.1 2.3v2.3l.1 2.3v4.5l.1 2.3v2.2l.1 2.3v4.5l.1 2.3v2.3l.1-76.3h.6v39.7l.1 2.2v2.3l.1 2.3v4.5l.1 2.3v2.3l.1 2.2v4.6l.1 2.2v2.3l.1 2.3v4.5l.1 2.3v-76h.6l.1 39.4v2.2l.1 2.3v4.5l.1 2.3v2.3l.1 2.2v4.6l.1 2.3v2.2l.1 2.3v4.5l.1 2.3v2.3-75.7h.7v41.3l.1 2.3v4.5l.1 2.3v2.3l.1 2.2v4.6l.1 2.3v4.5l.1 2.3v2.2l.1 2.3v2.3-75.4h.7v43.3l.1 2.3v4.5l.1 2.3v2.2l.1 2.3v4.6l.1 2.2v4.6l.1 2.2v4.6l.1 2.2V93.5h.6v40.7l.1 2.3v4.5l.1 2.3v4.5l.1 2.3v2.3l.1 2.3v4.5l.1 2.3v4.5l.1 2.3v2.2-77h.6v40.4l.1 2.3v4.5l.1 2.3v4.5l.1 2.3v4.5l.1 2.3v4.6l.1 2.2v2.3l.1 2.3v2.2-76.7h.6v42.4l.1 2.3v4.5l.1 2.3v4.5l.1 2.3v4.5l.1 2.3v4.5l.1 2.3v4.5l.1-76.4h.5v39.8l.1 2.3v4.5l.1 2.3v4.5l.1 2.3v4.5l.1 2.3v4.6l.1 2.2v4.6l.1 2.2V93.5h.5l.1 39.5v4.5l.1 2.3v4.6l.1 2.2v4.6l.1 2.2v4.6l.1 2.3v6.8l.1 2.2V93.5h.5l.1 39.2v4.5l.1 2.3v6.8l.1 2.3v4.5l.1 2.3v4.6l.1 2.2v4.6l.1 2.2V93.5h.5l.1 41.2v6.8l.1 2.3v4.5l.1 2.3v4.5l.1 2.3v4.5l.1 2.3v4.5-75.2h.6v43.1l.1 2.3v6.8l.1 2.3v4.5l.1 2.3v4.5l.1 2.3v6.8l.1 2.3V93.5h.5v42.8l.1 2.3v4.5l.1 2.3v4.6l.1 2.2v6.8l.1 2.3v4.6l.1 2.2v2.3-76.9h.5V136l.1 2.3v4.5l.1 2.3v6.8l.1 2.3v4.5l.1 2.3v6.8l.1 2.3V93.5h.5V138l.1 2.3v4.5l.1 2.3v6.8l.1 2.3v4.5l.1 2.3v6.8l.1-76.3h.4v39.7l.1 2.2v4.6l.1 2.2v6.9l.1 2.2v4.6l.1 2.2v6.8l.1 2.3v2.3-76h.5v43.9l.1 2.3v6.8l.1 2.2v4.6l.1 2.3v6.8l.1 2.2v4.6-75.7h.5v41.3l.1 2.3v6.8l.1 2.3v6.8l.1 2.3v4.5l.1 2.3v6.8l.1-75.4h.4v41l.1 2.3v6.8l.1 2.3v6.8l.1 2.3v6.8l.1 2.2v4.6l.1 2.2V93.5h.4v43l.1 2.3v6.8l.1 2.2v6.9l.1 2.2v4.6l.1 2.2v6.8l.1-77h.3z"/><path fill="none" stroke="#ef4444" stroke-linejoin="round" stroke-width="1.5" d="m445.5 95.8 32.6 2.2 19.1 2.3 13.6 2.3 10.5 2.3 8.6 2.2 7.2 2.3 6.3 2.3 5.6 2.2 4.9 2.3 4.5 2.3 4.1 2.2 3.8 2.3 3.5 2.3 3.2 2.3 3.1 2.2 2.8 2.3 2.7 2.3 2.6 2.2 2.4 2.3 2.3 2.3 2.2 2.3 2.1 2.2 2 2.3 1.9 2.3 1.8 2.2 1.8 2.3 1.7 2.3 1.7 2.2 1.6 2.3 1.5 2.3 1.5 2.3 1.5 2.2 1.4 2.3L612.9 18l1.4 2.2 1.3 2.3 1.2 2.3L618 27l1.2 2.3 1.2 2.3 1.1 2.3 1.1 2.2 1.1 2.3 1.1 2.3 1 2.2 1 2.3 1 2.3 1 2.3.9 2.2 1 2.3.9 2.3.9 2.2.9 2.3.8 2.3.9 2.2.8 2.3.8 2.3.8 2.3.8 2.2.8 2.3.8 2.3.7 2.2.8 2.3.7 2.3.7 2.3.7 2.2.7 2.3.7 2.3.7 2.2.6 2.3.7 2.3.7 2.2.6 2.3.6 2.3.7 2.3.6 2.2.6 2.3.6 2.3.6 2.2.6 2.3.5 2.3.6 2.3.6 2.2.5 2.3.6 2.3.5 2.2.6 2.3.5 2.3.5 2.2.5 2.3.6 2.3.5 2.3.5 2.2.5 2.3.5 2.3.4 2.2.5 2.3.5 2.3.5 2.3.4 2.2.5 2.3.5-152.7.4 2.2.5 2.3.4 2.3.5 2.2.4 2.3.4 2.3.5 2.3.4 2.2.4 2.3.4 2.3.5 2.2.4 2.3.4 2.3.4 2.2.4 2.3.4 2.3.4 2.3.4 2.2.3 2.3.4 2.3.4 2.2.4 2.3.4 2.3.3 2.3.4 2.2.4 2.3.3 2.3.4 2.2.4 2.3.3 2.3.4 2.2.3 2.3.4 2.3.3 2.3.4 2.2.3 2.3.3 2.3.4 2.2.3 2.3.3 2.3.4 2.3.3 2.2.3 2.3.3 2.3.3 2.2.4 2.3.3 2.3.3 2.2.3 2.3.3 2.3.3 2.3.3 2.2.3 2.3.3 2.3.3 2.2.3 2.3.3 2.3.3 2.3.3 2.2.3 2.3.3 2.3.3 2.2.3 2.3.2 2.3.3 2.2.3 2.3.3 2.3.2-152.7.3 2.2.3 2.3.3 2.3.2 2.2.3 2.3.3 2.3.2 2.3.3 2.2.3 2.3.2 2.3.3 2.2.2 2.3.3 2.3.3 2.2.2 2.3.3 2.3.2 2.3.3 2.2.2 2.3.3 2.3.2 2.2.2 2.3.3 2.3.2 2.2.3 2.3.2 2.3.3 2.3.2 2.2.2 2.3.3 2.3.2 2.2.2 2.3.3 2.3.2 2.3.2 2.2.2 2.3.3 2.3.2 2.2.2 2.3.2 2.3.3 2.2.2 2.3.2 2.3.2 2.3.3 2.2.2 2.3.2 2.3.2 2.2.2 2.3.2 2.3.2 2.3.3 2.2.2 2.3.2 2.3.2 2.2.2 2.3.2 2.3.2 2.2.2 2.3.2 2.3.2 2.3.2 2.2.2 2.3.2 2.3.2 2.2.2 2.3.2 2.3.2-152.7.2 2.2.2 2.3.2 2.3.2 2.2.2 2.3.2 2.3.2 2.2.2 2.3.2 2.3.1 2.3.2 2.2.2 2.3.2 2.3.2 2.2.2 2.3.2 2.3.2 2.2.1 2.3.2 2.3.2 2.3.2 2.2.2 2.3.1 2.3.2 2.2.2 2.3.2 2.3.2 2.3.1 2.2.2 2.3.2 2.3.2 2.2.1 2.3.2 2.3.2 2.2.2 2.3.1 2.3.2 2.3.2 2.2.1 2.3.2 2.3.2 2.2.1 2.3.2 2.3.2 2.3.1 2.2.2 2.3.2 2.3.1 2.2.2 2.3.2 2.3.1 2.2.2 2.3.2 2.3.1 2.3.2 2.2.1 2.3.2 2.3.2 2.2.1 2.3.2 2.3.1 2.3.2 2.2.1 2.3.2 2.3.1 2.2.2 2.3.2 2.3.1 2.2.2-152.7.1 2.3.2 2.3.1 2.2.2 2.3.1 2.3.2 2.2.1 2.3.2 2.3.1 2.3.2 2.2.1 2.3.2 2.3.1 2.2.2 2.3.1 2.3.2 2.2.1 2.3.1 2.3.2 2.3.1 2.2.2 2.3.1 2.3.2 2.2.1 2.3.1 2.3.2 2.2.1 2.3.2 2.3.1 2.3.1 2.2.2 2.3.1 2.3.2 2.2.1 2.3.1 2.3.2 2.3.1 2.2.1 2.3.2 2.3.1 2.2.2 2.3.1 2.3.1 2.2.2 2.3.1 2.3.1 2.3.2 2.2.1 2.3.1 2.3.2 2.2.1 2.3.1 2.3.1 2.3.2 2.2.1 2.3.1 2.3.2 2.2.1 2.3.1 2.3.1 2.2.2 2.3.1 2.3.1 2.3.2 2.2.1 2.3.1 2.3.1 2.2.2-152.7.1 2.3.1 2.3.1 2.2.2 2.3.1 2.3.1 2.2.1 2.3.2 2.3.1 2.2.1 2.3.1 2.3.1 2.3.2 2.2.1 2.3.1 2.3.1 2.2.1 2.3.2 2.3.1 2.3.1 2.2.1 2.3.1 2.3.2 2.2.1 2.3.1 2.3.1 2.2.1 2.3.1 2.3.2 2.3.1 2.2.1 2.3.1 2.3.1 2.2.1 2.3.2 2.3.1 2.2.1 2.3.1 2.3.1 2.3.1 2.2.1 2.3.1 2.3.2 2.2.1 2.3.1 2.3.1 2.3.1 2.2.1 2.3.1 2.3.1 2.2.2 2.3.1 2.3.1 2.2.1 2.3.1 2.3.1 2.3.1 2.2.1 2.3.1 2.3.1 2.2.1 2.3.1 2.3.2 2.3.1 2.2.1 2.3.1 2.3.1 2.2.1-152.7.1 2.3.1 2.2.1 2.3.1 2.3.1 2.3.1 2.2.1 2.3.1 2.3.1 2.2.1 2.3.1 2.3.1 2.3.1 2.2.2 2.3.1 2.3.1 2.2.1 2.3.1 2.3.1 2.2.1 2.3.1 2.3.1 2.3.1 2.2.1 2.3.1 2.3.1 2.2.1 2.3.1 2.3.1 2.3.1 2.2.1 2.3.1 2.3.1 2.2.1 2.3.1 2.3.1 2.2.1 2.3.1 2.3.1 2.3.1 2.2.1 2.3v2.3l.1 2.2.1 2.3.1 2.3.1 2.2.1 2.3.1 2.3.1 2.3.1 2.2.1 2.3.1 2.3.1 2.2.1 2.3.1 2.3.1 2.3.1 2.2.1 2.3.1 2.3.1 2.2.1 2.3v2.3l.1 2.2.1 2.3.1 2.3.1 2.3.1 2.2.1 2.3.1-152.7.1 2.2.1 2.3.1 2.3.1 2.3.1 2.2v2.3l.1 2.3.1 2.2.1 2.3.1 2.3.1 2.2.1 2.3.1 2.3.1 2.3.1 2.2v2.3l.1 2.3.1 2.2.1 2.3.1 2.3.1 2.3.1 2.2.1 2.3v2.3l.1 2.2.1 2.3.1 2.3.1 2.2.1 2.3.1 2.3.1 2.3v2.2l.1 2.3.1 2.3.1 2.2.1 2.3.1 2.3.1 2.2v2.3l.1 2.3.1 2.3.1 2.2.1 2.3.1 2.3.1 2.2v2.3l.1 2.3.1 2.3.1 2.2.1 2.3.1 2.3v2.2l.1 2.3.1 2.3.1 2.2.1 2.3.1 2.3v2.3l.1-75.3.1 2.3.1 2.3.1 2.2v2.3l.1 2.3.1 2.3.1 2.2.1 2.3.1 2.3v2.2l.1 2.3.1 2.3.1 2.2.1 2.3v2.3l.1 2.3.1 2.2.1 2.3.1 2.3v2.2l.1 2.3.1 2.3.1 2.3.1 2.2v2.3l.1 2.3.1 2.2.1 2.3.1 2.3v2.2l.1 2.3.1 2.3.1 2.3v2.2l.1 2.3.1 2.3.1 2.2.1 2.3v2.3l.1 2.3.1 2.2.1 2.3V17.4l.1 2.2.1 2.3.1 2.3v2.2l.1 2.3.1 2.3.1 2.3v2.2l.1 2.3.1 2.3.1 2.2v2.3l.1 2.3.1 2.2.1 2.3v79.8l.1 2.3.1 2.2.1 2.3v2.3l.1 2.2.1 2.3.1 2.3v2.3l.1 2.2.1 2.3.1 2.3v2.2l.1 2.3.1 2.3.1 2.2v2.3l.1 2.3.1-152.7v2.2l.1 2.3.1 2.3.1 2.2v2.3l.1 2.3.1 2.3v2.2l.1 2.3.1 2.3.1 2.2v2.3l.1 2.3.1 2.2v2.3l.1 2.3.1 79.8.1 2.2v2.3l.1 2.3.1 2.2v2.3l.1 2.3.1 2.3v2.2l.1 2.3.1 2.3.1 2.2v2.3l.1 2.3.1 2.2v2.3l.1 2.3.1-152.7V19l.1 2.3.1 2.3v2.2l.1 2.3.1 2.3.1 2.3v2.2l.1 2.3.1 2.3v2.2l.1 2.3.1 2.3v2.2l.1 2.3.1 2.3v2.3l.1 79.7.1 2.3v2.3l.1 2.2.1 2.3v2.3l.1 2.2.1 2.3v2.3l.1 2.3.1 2.2v2.3l.1 2.3.1 2.2v2.3l.1 2.3.1-152.7v2.2l.1 2.3.1 2.3v2.2l.1 2.3.1 2.3v2.2l.1 2.3.1 2.3v2.3l.1 2.2v2.3l.1 2.3.1 2.2v2.3l.1 2.3.1 2.3v79.7l.1 2.3.1 2.3v2.2l.1 2.3.1 2.3v2.2l.1 2.3v2.3l.1 2.3.1 2.2v2.3l.1 2.3.1 2.2v2.3l.1 2.3V16.2l.1 2.2.1 2.3V23l.1 2.2.1 2.3v2.3l.1 2.2v2.3l.1 2.3.1 2.3v2.2l.1 2.3.1 2.3v2.2l.1 2.3v2.3l.1 2.2.1 79.8v2.3l.1 2.3v2.2l.1 2.3.1 2.3v2.2l.1 2.3v2.3l.1 2.3.1 2.2v2.3l.1 2.3.1 2.2v2.3l.1 2.3v2.2l.1-152.7.1 2.3v2.3l.1 2.2v2.3l.1 2.3v2.2l.1 2.3.1 2.3v2.3l.1 2.2v2.3l.1 2.3.1 2.2v2.3l.1 2.3v2.2l.1 79.8.1 2.3v2.3l.1 2.2v2.3l.1 2.3v2.2l.1 2.3.1 2.3v2.3l.1 2.2v2.3l.1 2.3.1 2.2v2.3l.1 2.3v2.2l.1-152.7v2.3l.1 2.3.1 2.2v2.3l.1 2.3v2.2l.1 2.3V36l.1 2.3.1 2.2v2.3l.1 2.3v2.2l.1 2.3v2.3l.1 2.2.1 79.8v2.3l.1 2.3v2.2l.1 2.3v2.3l.1 2.2v2.3l.1 2.3.1 2.2v2.3l.1 2.3v2.3l.1 2.2v2.3l.1 2.3v2.2l.1-152.7.1 2.3v2.3l.1 2.2v2.3l.1 2.3v2.2l.1 2.3v2.3l.1 2.2v2.3l.1 2.3.1 2.3V47l.1 2.3v2.3l.1 2.2v79.8l.1 2.3v2.3l.1 2.2v2.3l.1 2.3.1 2.2v2.3l.1 2.3v2.2l.1 2.3v2.3l.1 2.3v2.2l.1 2.3v2.3l.1 2.2V17.2l.1 2.3v2.3l.1 2.2v2.3l.1 2.3.1 2.2v2.3l.1 2.3v2.2l.1 2.3v2.3l.1 2.3v2.2l.1 2.3v2.3l.1 2.2v79.8l.1 2.3v2.3l.1 2.2v2.3l.1 2.3v2.2l.1 2.3v2.3l.1 2.2v2.3l.1 2.3.1 2.3v2.2l.1 2.3v2.3l.1 2.2V16.9l.1 2.3v2.2l.1 2.3V26l.1 2.3v2.2l.1 2.3v2.3l.1 2.2v2.3l.1 2.3v2.3l.1 2.2v2.3l.1 2.3v2.2l.1 79.8v2.3l.1 2.2v2.3l.1 2.3v2.3l.1 2.2v2.3l.1 2.3v2.2l.1 2.3v2.3l.1 2.3v2.2l.1 2.3v2.3l.1 2.2V16.6l.1 2.3v2.2l.1 2.3v2.3l.1 2.3v2.2l.1 2.3v2.3l.1 2.2v2.3l.1 2.3v4.5l.1 2.3v2.3l.1 2.2v2.3l.1 79.8v2.2l.1 2.3v2.3l.1 2.3v2.2l.1 2.3v2.3l.1 2.2v2.3l.1 2.3v2.3l.1 2.2v2.3l.1 2.3v2.2l.1-152.7v2.3l.1 2.2v4.6l.1 2.3v2.2l.1 2.3v2.3l.1 2.2V39l.1 2.3v2.2l.1 2.3v2.3l.1 2.3v2.2l.1 2.3v79.8l.1 2.2v4.6l.1 2.3v2.2l.1 2.3v2.3l.1 2.2v2.3l.1 2.3v2.2l.1 2.3v2.3l.1 2.3v2.2V16l.1 2.3v2.2l.1 2.3v2.3l.1 2.3v2.2l.1 2.3v2.3l.1 2.2v2.3l.1 2.3v4.5l.1 2.3v2.3l.1 2.2v2.3l.1 79.8v2.2l.1 2.3v2.3l.1 2.3v4.5l.1 2.3v2.2l.1 2.3v2.3l.1 2.2v2.3l.1 2.3v4.5l.1 2.3V18l.1 2.2v2.3l.1 2.3V27l.1 2.3v4.6l.1 2.2v2.3l.1 2.3v2.2l.1 2.3v2.3l.1 2.3v4.5l.1 79.8v2.2l.1 2.3v2.3l.1 2.2v4.6l.1 2.3v2.2l.1 2.3v2.3l.1 2.2v4.6l.1 2.3v2.2l.1 2.3V17.7l.1 2.2v4.6l.1 2.2V29l.1 2.3v2.3l.1 2.2v4.6l.1 2.2v2.3l.1 2.3v2.3l.1 2.2v82.1l.1 2.2v2.3l.1 2.3v2.2l.1 2.3v4.6l.1 2.2v2.3l.1 2.3v2.2l.1 2.3v4.6l.1 2.2v2.3l.1-152.7v4.5l.1 2.3v2.2l.1 2.3V31l.1 2.3v4.5l.1 2.3v2.2l.1 2.3v4.5l.1 2.3v2.3l.1 79.8v2.2l.1 2.3v4.5l.1 2.3v2.3l.1 2.3v4.5l.1 2.3v2.2l.1 2.3v4.5l.1 2.3v2.3l.1-152.7v4.5l.1 2.3v2.2l.1 2.3V33l.1 2.2v2.3l.1 2.3v4.5l.1 2.3v2.2l.1 2.3v82.1l.1 2.2v2.3l.1 2.3v4.5l.1 2.3v2.3l.1 2.2v4.6l.1 2.2v2.3l.1 2.3v4.5l.1 2.3V16.8l.1 2.2v4.6l.1 2.2v2.3l.1 2.3v4.5l.1 2.3v2.3l.1 2.2v4.6l.1 2.2v4.6l.1 79.8v2.2l.1 2.3v4.5l.1 2.3v2.3l.1 2.2v4.6l.1 2.3v2.2l.1 2.3v4.5l.1 2.3v2.3V16.5l.1 2.2V21l.1 2.3v4.5l.1 2.3v4.5l.1 2.3v2.3l.1 2.2V46l.1 2.2v2.3l.1 2.3v82l.1 2.3v4.5l.1 2.3v2.3l.1 2.2v4.6l.1 2.3v4.5l.1 2.3v2.2l.1 2.3v2.3V16.2l.1 2.2V23l.1 2.2v2.3l.1 2.3v4.5l.1 2.3v4.5l.1 2.3v4.5l.1 2.3v2.3l.1 2.2v82.1l.1 2.3v4.5l.1 2.3v2.2l.1 2.3v4.6l.1 2.2v4.6l.1 2.2v4.6l.1 2.2V18.1l.1 2.3v4.5l.1 2.3v4.5l.1 2.3v4.6l.1 2.2v2.3l.1 2.3v4.5l.1 2.3v82l.1 2.3v4.5l.1 2.3v4.5l.1 2.3v2.3l.1 2.3v4.5l.1 2.3v4.5l.1 2.3v2.2V17.8l.1 2.3v4.5l.1 2.3v4.5l.1 2.3V36l.1 2.3v4.5l.1 2.3v4.5l.1 2.3v82l.1 2.3v4.5l.1 2.3v4.5l.1 2.3v4.5l.1 2.3v4.6l.1 2.2v2.3l.1 2.3v2.2V17.5l.1 2.3v4.5l.1 2.3v4.5l.1 2.3v4.5l.1 2.3v4.6l.1 2.2v4.6l.1 2.2v82.1l.1 2.3v4.5l.1 2.3v4.5l.1 2.3v4.5l.1 2.3v4.5l.1 2.3v4.5l.1-152.7v4.6l.1 2.2v4.6l.1 2.2v4.6l.1 2.2v4.6l.1 2.3V49l.1 2.3v82l.1 2.3v4.5l.1 2.3v4.5l.1 2.3v4.5l.1 2.3v4.6l.1 2.2v4.6l.1 2.2V16.9v2.3l.1 2.2V26l.1 2.3v4.5l.1 2.3v4.5l.1 2.3v4.5l.1 2.3v4.5l.1 79.8v4.5l.1 2.3v4.6l.1 2.2v4.6l.1 2.2v4.6l.1 2.3v6.8l.1 2.2V16.6v2.3l.1 2.2v4.6l.1 2.3v4.5l.1 2.3v4.5l.1 2.3v4.5l.1 2.3v4.5l.1 79.8v4.5l.1 2.3v6.8l.1 2.3v4.5l.1 2.3v4.6l.1 2.2v4.6l.1 2.2V16.3v2.3l.1 2.2v6.9l.1 2.2v4.6l.1 2.2v4.6l.1 2.2v4.6l.1 2.3v4.5l.1 79.8v6.8l.1 2.3v4.5l.1 2.3v4.5l.1 2.3v4.5l.1 2.3v4.5V16l.1 2.3v4.5l.1 2.3v4.5l.1 2.3v4.5l.1 2.3v6.8l.1 2.3v4.5l.1 2.3v82l.1 2.3v6.8l.1 2.3v4.5l.1 2.3v4.5l.1 2.3v6.8l.1 2.3V18v2.2l.1 2.3V27l.1 2.3v6.8l.1 2.3v4.5l.1 2.3v4.6l.1 2.2v84.3l.1 2.3v4.5l.1 2.3v4.6l.1 2.2v6.8l.1 2.3v4.6l.1 2.2v2.3V17.7v2.2l.1 2.3v4.5l.1 2.3v4.6l.1 2.2v6.8l.1 2.3v4.6l.1 2.2V136l.1 2.3v4.5l.1 2.3v6.8l.1 2.3v4.5l.1 2.3v6.8l.1 2.3V17.4v2.2l.1 2.3v6.8l.1 2.3v4.5l.1 2.3v6.8l.1 2.3v4.5l.1 2.3V138l.1 2.3v4.5l.1 2.3v6.8l.1 2.3v4.5l.1 2.3v6.8l.1-152.7v4.5l.1 2.3v6.8l.1 2.3v4.5l.1 2.3v6.8l.1 2.2v84.4l.1 2.2v4.6l.1 2.2v6.9l.1 2.2v4.6l.1 2.2v6.8l.1 2.3v2.3V16.8 19l.1 2.3v4.5l.1 2.3v6.8l.1 2.3V44l.1 2.3v4.5l.1 2.3v84.3l.1 2.3v6.8l.1 2.2v4.6l.1 2.3v6.8l.1 2.2v4.6V16.5l.1 2.2v4.6l.1 2.2v6.8l.1 2.3v6.8l.1 2.3v4.5l.1 2.3v84.3l.1 2.3v6.8l.1 2.3v6.8l.1 2.3v4.5l.1 2.3v6.8l.1-152.7V23l.1 2.2V32l.1 2.3v6.8l.1 2.3v4.5l.1 2.3v84.3l.1 2.3v6.8l.1 2.3v6.8l.1 2.3v6.8l.1 2.2v4.6l.1 2.2V18.1v4.6l.1 2.2v6.8l.1 2.3v6.8l.1 2.3v6.8l.1 2.3v84.3l.1 2.3v6.8l.1 2.2v6.9l.1 2.2v4.6l.1 2.2v6.8l.1-152.7v6.8l.1 2.3v6.8l.1 2.3v6.8l.1 2.3v2.2"/></g><path stroke="#d1d5db" d="M34 221v155m0-77.5h358"/><text x="213" y="402" fill="#6b7280" font-size="9" text-anchor="middle">Hz</text><text x="12" y="298.5" fill="#6b7280" font-size="9" text-anchor="middle" transform="rotate(-90 12 298.5)">Delay (smp)</text><path stroke="#e5e7eb" stroke-width=".5" d="M66.6 221v155m19.1-155v155m13.6-155v155m10.5-155v155m8.6-155v155m7.3-155v155m6.2-155v155m5.6-155v155m37.6-155v155m19.1-155v155m13.5-155v155m10.6-155v155m8.5-155v155m7.3-155v155m6.3-155v155m5.5-155v155m37.6-155v155m19.1-155v155m13.6-155v155m10.5-155v155m8.6-155v155m7.3-155v155m6.2-155v155m5.6-155v155M392 221v155M142.5 221v155"/><text x="142.5" y="388" fill="#6b7280" font-size="8" text-anchor="middle">100</text><path stroke="#e5e7eb" stroke-width=".5" d="M250.9 221v155"/><text x="250.9" y="388" fill="#6b7280" font-size="8" text-anchor="middle">1k</text><path stroke="#e5e7eb" stroke-width=".5" d="M359.4 221v155"/><text x="359.4" y="388" fill="#6b7280" font-size="8" text-anchor="middle">10k</text><path stroke="#e5e7eb" stroke-width=".5" d="M34 376h358"/><text x="30" y="379" fill="#6b7280" font-size="8" text-anchor="end">-100</text><path stroke="#e5e7eb" stroke-width=".5" d="M34 337.3h358"/><text x="30" y="340.3" fill="#6b7280" font-size="8" text-anchor="end">-50</text><text x="30" y="301.5" fill="#6b7280" font-size="8" text-anchor="end">0</text><path stroke="#e5e7eb" stroke-width=".5" d="M34 259.8h358"/><text x="30" y="262.8" fill="#6b7280" font-size="8" text-anchor="end">50</text><path stroke="#e5e7eb" stroke-width=".5" d="M34 221h358"/><text x="30" y="224" fill="#6b7280" font-size="8" text-anchor="end">100</text><g clip-path="url(#f)"><path fill="url(#g)" d="M37.5 298.5V252h298.9v46.5h.1l.1-46.5h4.4l.1 46.5.1-46.5h2.3l.1 46.5h.1l.1-46.5h2.2v46.5h.1l.1-46.5h2l.1 46.5.1-46.5h1.9l.1 46.5h.1V252h1.9v46.5h.1l.1-46.5h1.7l.1 46.5h.1V252h1.7l.1 46.5.1-46.5h1.6l.1 46.5.1-46.5h1.6v46.5h.1V252h1.6v46.5h.1V252h1.5l.1 46.5.1-46.5h1.4v46.5h.1V252h1.4v46.5h.1V252h1.4v46.5l.1-46.5h1.3v46.5h.1V252h1.3v46.5l.1-46.5h1.2v46.5h.1V252h1.3v46.5l.1-46.5h1.1l.1 46.5V252h1.2v46.5l.1-46.5h1.1v46.5l.1-46.5h1l.1 46.5V252h1.1v46.5l.1-46.5h1v46.5h.1V252h1v46.5h.1V252h1v46.5h.1V252h.9l.1 46.5V252h1v46.5V252h1v46.5V252h.9l.1 46.5V252h.9v46.5l.1-46.5h.8l.1 46.5V252h.9v46.5V252h.9v46.5l.1-46.5h.8v46.5V252h.8v46.5z"/><path fill="url(#h)" d="M37.5 298.5h298.9V376h.1l.1-77.5h4.4l.1 77.5.1-77.5h2.3l.1 77.5h.1l.1-77.5h2.2V376h.1l.1-77.5h2l.1 77.5.1-77.5h1.9l.1 77.5h.1v-77.5h1.9V376h.1l.1-77.5h1.7l.1 77.5h.1v-77.5h1.7l.1 77.5.1-77.5h1.6l.1 77.5.1-77.5h1.6V376h.1v-77.5h1.6V376h.1v-77.5h1.5l.1 77.5.1-77.5h1.4V376h.1v-77.5h1.4V376h.1v-77.5h1.4V376l.1-77.5h1.3V376h.1v-77.5h1.3V376l.1-77.5h1.2V376h.1v-77.5h1.3V376l.1-77.5h1.1l.1 77.5v-77.5h1.2V376l.1-77.5h1.1V376l.1-77.5h1l.1 77.5v-77.5h1.1V376l.1-77.5h1V376h.1v-77.5h1V376h.1v-77.5h1V376h.1v-77.5h.9l.1 77.5v-77.5h1V376v-77.5h1V376v-77.5h.9l.1 77.5v-77.5h.9V376l.1-77.5h.8l.1 77.5v-77.5h.9V376v-77.5h.9V376l.1-77.5h.8V376v-77.5h.8z"/><path fill="none" stroke="#22c55e" stroke-linejoin="round" stroke-width="1.5" d="M37.5 252h298.9v124m.1 0 .1-124h4.4l.1 124m0 0 .1-124h2.3l.1 124m.1 0 .1-124h2.2v124m.1 0 .1-124h2l.1 124"/><path fill="none" stroke="#22c55e" stroke-linejoin="round" stroke-width="1.5" d="m348.3 376 .1-124h1.9l.1 124m.1 0V252h1.9v124m.1 0 .1-124h1.7l.1 124m.1 0V252h1.7l.1 124m0 0 .1-124h1.6l.1 124"/><path fill="none" stroke="#22c55e" stroke-linejoin="round" stroke-width="1.5" d="m358.1 376 .1-124h1.6v124m.1 0V252h1.6v124m.1 0V252h1.5l.1 124"/><path fill="none" stroke="#22c55e" stroke-linejoin="round" stroke-width="1.5" d="m363.2 376 .1-124h1.4v124m.1 0V252h1.4v124m.1 0V252h1.4v124m0 0 .1-124h1.3v124m.1 0V252h1.3v124m0 0 .1-124h1.2v124m.1 0V252h1.3v124m0 0 .1-124h1.1l.1 124"/><path fill="none" stroke="#22c55e" stroke-linejoin="round" stroke-width="1.5" d="M374.5 376V252h1.2v124m0 0 .1-124h1.1v124"/><path fill="none" stroke="#22c55e" stroke-linejoin="round" stroke-width="1.5" d="m376.9 376 .1-124h1l.1 124m0 0V252h1.1v124"/><path fill="none" stroke="#22c55e" stroke-linejoin="round" stroke-width="1.5" d="m379.2 376 .1-124h1v124m.1 0V252h1v124m.1 0V252h1v124m.1 0V252h.9l.1 124m0 0V252h1v124m0 0V252h1v124m0 0V252h.9l.1 124m0 0V252h.9v124m0 0 .1-124h.8l.1 124"/><path fill="none" stroke="#22c55e" stroke-linejoin="round" stroke-width="1.5" d="M388.5 376V252h.9v124m0 0V252h.9v124m0 0 .1-124h.8v124m0 0V252h.8"/></g><path stroke="#d1d5db" d="M442 221v155m0-77.5h358"/><text x="621" y="402" fill="#6b7280" font-size="9" text-anchor="middle">Samples</text><text x="420" y="298.5" fill="#6b7280" font-size="9" text-anchor="middle" transform="rotate(-90 420 298.5)">Impulse</text><path stroke="#e5e7eb" stroke-width=".5" d="M442 221v155"/><text x="442" y="388" fill="#6b7280" font-size="8" text-anchor="middle">0</text><path stroke="#e5e7eb" stroke-width=".5" d="M589.9 221v155"/><text x="589.9" y="388" fill="#6b7280" font-size="8" text-anchor="middle">50</text><path stroke="#e5e7eb" stroke-width=".5" d="M737.9 221v155"/><text x="737.9" y="388" fill="#6b7280" font-size="8" text-anchor="middle">100</text><path stroke="#e5e7eb" stroke-width=".5" d="M442 363.1h358"/><text x="438" y="366.1" fill="#6b7280" font-size="8" text-anchor="end">-1</text><text x="438" y="301.5" fill="#6b7280" font-size="8" text-anchor="end">0</text><path stroke="#e5e7eb" stroke-width=".5" d="M442 233.9h358"/><text x="438" y="236.9" fill="#6b7280" font-size="8" text-anchor="end">1</text><path stroke="#e5e7eb" stroke-dasharray="3 2" stroke-width=".5" d="M442 233.9h358"/><text x="438" y="236.9" fill="#6b7280" font-size="7" text-anchor="end">+1</text><path stroke="#e5e7eb" stroke-dasharray="3 2" stroke-width=".5" d="M442 363.1h358"/><text x="438" y="366.1" fill="#6b7280" font-size="7" text-anchor="end">-1</text><g clip-path="url(#i)"><path fill="url(#j)" d="M442 298.5h26.6l3-.1 2.9.1h14.8l3-.1h5.9l3 .1H513l3-.2 2.9-.1 3 .1 2.9.2h11.9l2.9-.3 3-.2 3 .1 2.9.4h11.8l3-.6 3-.3 2.9.2 3 .7H584l3-1.2 2.9-.7 3 .4 3 1.5h11.8l2.9-4.8 3-5.4 3-4.3 2.9-1.6 3 1.6 2.9 4.3 3 5.4 3 4.8h11.8l2.9-1.5 3-.4 3 .7 2.9 1.2h11.9l2.9-.7 3-.2 2.9.3 3 .6h11.8l3-.4 2.9-.1 3 .2 3 .3h11.8l3-.2 2.9-.1 3 .1 2.9.2h11.9l2.9-.1h5.9l3 .1h14.8l3-.1 2.9.1H797z"/><path fill="url(#k)" d="M442 298.5h35.5l3 .1h5.9l2.9-.1h11.9l2.9.1 3 .1 2.9-.1 3-.1h11.8l3 .2 3 .2 2.9-.1 3-.3h11.8l3 .4 2.9.3 3-.2 2.9-.5h11.9l2.9.8 3 .5 3-.3 2.9-1h11.9l2.9 2 3 1.3 2.9-.4 3-2.9h23.7l2.9 2.9 3 .4 2.9-1.3 3-2H655l3 1 2.9.3 3-.5 3-.8h11.8l3 .5 2.9.2 3-.3 2.9-.4h11.9l2.9.3 3 .1 2.9-.2 3-.2H726l3 .1 3 .1 2.9-.1 3-.1h11.8l3 .1h5.9l2.9-.1H797z"/><path fill="none" stroke="#eab308" stroke-linejoin="round" stroke-width="1.2" d="M442 298.5h26.6l3-.1 2.9.1h3l3 .1h5.9l2.9-.1 3-.1h5.9l3 .1 2.9.1 3 .1 2.9-.1 3-.1 3-.2 2.9-.1 3 .1 2.9.2 3 .2 3 .2 2.9-.1 3-.3 2.9-.3 3-.2 3 .1 2.9.4 3 .4 2.9.3 3-.2 2.9-.5 3-.6 3-.3 2.9.2 3 .7 2.9.8 3 .5 3-.3 2.9-1 3-1.2 2.9-.7 3 .4 3 1.5 2.9 2 3 1.3 2.9-.4 3-2.9 2.9-4.8 3-5.4 3-4.3 2.9-1.6 3 1.6 2.9 4.3 3 5.4 3 4.8 2.9 2.9 3 .4 2.9-1.3 3-2 2.9-1.5 3-.4 3 .7 2.9 1.2 3 1 2.9.3 3-.5 3-.8 2.9-.7 3-.2 2.9.3 3 .6 3 .5 2.9.2 3-.3 2.9-.4 3-.4 2.9-.1 3 .2 3 .3 2.9.3 3 .1 2.9-.2 3-.2 3-.2 2.9-.1 3 .1 2.9.2 3 .1 3 .1 2.9-.1 3-.1 2.9-.1h5.9l3 .1 3 .1h5.9l2.9-.1h3l3-.1 2.9.1H797"/></g></svg>