<svg xmlns="http://www.w3.org/2000/svg" style="font-family:system-ui,-apple-system,sans-serif" viewBox="0 0 820 392"><defs><linearGradient id="b" x1="0" x2="0" y1="44" y2="171" gradientUnits="userSpaceOnUse"><stop offset="0%" stop-color="#3b82f6" stop-opacity=".15"/><stop offset="100%" stop-color="#3b82f6" stop-opacity=".01"/></linearGradient><linearGradient id="d" x1="0" x2="0" y1="94" y2="113" gradientUnits="userSpaceOnUse"><stop offset="0%" stop-color="#ef4444" stop-opacity=".01"/><stop offset="100%" stop-color="#ef4444" stop-opacity=".15"/></linearGradient><linearGradient id="g" x1="0" x2="0" y1="234" y2="299" gradientUnits="userSpaceOnUse"><stop offset="0%" stop-color="#eab308" stop-opacity=".15"/><stop offset="100%" stop-color="#eab308" stop-opacity=".01"/></linearGradient><linearGradient id="h" x1="0" x2="0" y1="299" y2="312" gradientUnits="userSpaceOnUse"><stop offset="0%" stop-color="#eab308" stop-opacity=".01"/><stop offset="100%" stop-color="#eab308" stop-opacity=".15"/></linearGradient><clipPath id="a"><path d="M34 16h358v155H34z"/></clipPath><clipPath id="c"><path d="M442 16h358v155H442z"/></clipPath><clipPath id="e"><path d="M34 221h358v155H34z"/></clipPath><clipPath id="f"><path d="M442 221h358v155H442z"/></clipPath></defs><text x="800" y="11" fill="#6b7280" font-size="11" font-weight="600" text-anchor="end">Lattice, k=[0.5, −0.3, 0.2, −0.1]</text><path stroke="#d1d5db" d="M34 16v155m0-124h358"/><text x="213" y="197" fill="#6b7280" font-size="9" text-anchor="middle">Hz</text><text x="12" y="93.5" fill="#6b7280" font-size="9" text-anchor="middle" transform="rotate(-90 12 93.5)">dB</text><path stroke="#e5e7eb" stroke-width=".5" d="M66.6 16v155M85.7 16v155M99.3 16v155m10.5-155v155m8.6-155v155m7.3-155v155m6.2-155v155m5.6-155v155m37.6-155v155m19.1-155v155m13.5-155v155m10.6-155v155m8.5-155v155m7.3-155v155m6.3-155v155m5.5-155v155m37.6-155v155m19.1-155v155m13.6-155v155m10.5-155v155m8.6-155v155m7.3-155v155m6.2-155v155m5.6-155v155M392 16v155M34 16v155"/><text x="34" y="183" fill="#6b7280" font-size="8" text-anchor="middle">10</text><path stroke="#e5e7eb" stroke-width=".5" d="M142.5 16v155"/><text x="142.5" y="183" fill="#6b7280" font-size="8" text-anchor="middle">100</text><path stroke="#e5e7eb" stroke-width=".5" d="M250.9 16v155"/><text x="250.9" y="183" fill="#6b7280" font-size="8" text-anchor="middle">1k</text><path stroke="#e5e7eb" stroke-width=".5" d="M359.4 16v155"/><text x="359.4" y="183" fill="#6b7280" font-size="8" text-anchor="middle">10k</text><path stroke="#e5e7eb" stroke-width=".5" d="M34 171h358M34 140h358M34 109h358M34 78h358M34 16h358M34 62.5h358m-358-31h358"/><text x="30" y="174" fill="#6b7280" font-size="8" text-anchor="end">-80</text><text x="30" y="143" fill="#6b7280" font-size="8" text-anchor="end">-60</text><text x="30" y="112" fill="#6b7280" font-size="8" text-anchor="end">-40</text><text x="30" y="81" fill="#6b7280" font-size="8" text-anchor="end">-20</text><text x="30" y="50" fill="#6b7280" font-size="8" text-anchor="end">0</text><text x="30" y="19" fill="#6b7280" font-size="8" text-anchor="end">+20</text><g clip-path="url(#a)"><path fill="url(#b)" d="M37.5 171V45.3H245l.6-.1h25l.3-.1h13.2l.3-.1h9.8l.2-.1h8.8l.2-.1h10l.1-.1h12.7l.1.1h5.7l.1.1h3.3v.1h2.6l.1.1h2.1v.1h2l.1.1h1.7v.1h1.7l.1.1h1.6l.1.1h1.7l.1.1h1.8l.1.1h2.3v.1h6.6v-.1h1.8v-.1h1.3v-.1h1l.1-.1h.8l.1-.1h.8v-.1h.8v-.1h.7l.1-.1h.7V45h.7v-.1h.7v-.1h.7l.1-.1h.7v-.1h.8v-.1h.8v-.1h1v-.1h1.2v-.1h4l.1.1h.8l.1.1h.6v.1h.5l.1.1h.4v.1h.4v.1h.3l.1.1h.2l.1.1h.3v.1h.2l.1.1h.2v.1h.2v.1h.3v.1h.2v.1h.2v.1h.2v.1h.2v.1h.2v.1h.1l.1.1h.1l.1.1h.1v.1h.2v.1h.1v.1h.2v.1h.1v.1h.1l.1.1h.1v.1h.1l.1.1h.1v.1h.1v.1h.1l.1.1.1.1h.1v.1h.1v.1h.1v.1h.1v.1h.1v.1h.1v.1h.1l.1.1.1.1v.1h.1l.1.1.1.1v.1h.1l.1.1v.1h.1v.1h.1v.1h.1v.1h.1v.1l.1.1.1.1v.1h.1v.1h.1v.1h.1v.1l.1.1v.1h.1v.1h.1v.1h.1v.2h.1v.1h.1v.2h.1v.1l.1.1.1.1v.1h.1v.2h.1v.1l.1.1v.1h.1v.1l.1.1v.1h.1v.2h.1v.1l.1.1v.1l.1.1v.1l.1.1v.1h.1v.2h.1v.1l.1.1v.1l.1.1v.1l.1.1v.1l.1.1v.1l.1.1v117z"/><path fill="none" stroke="#3b82f6" stroke-linejoin="round" stroke-width="1.5" d="M37.5 45.3H245l.6-.1h25l.3-.1h13.2l.3-.1h9.8l.2-.1h8.8l.2-.1h10l.1-.1h12.7l.1.1h5.7l.1.1h3.3v.1h2.6l.1.1h2.1v.1h2l.1.1h1.7v.1h1.7l.1.1h1.6l.1.1h1.7l.1.1h1.8l.1.1h2.3v.1h6.6v-.1h1.8v-.1h1.3v-.1h1l.1-.1h.8l.1-.1h.8v-.1h.8v-.1h.7l.1-.1h.7V45h.7v-.1h.7v-.1h.7l.1-.1h.7v-.1h.8v-.1h.8v-.1h1v-.1h1.2v-.1h4l.1.1h.8l.1.1h.6v.1h.5l.1.1h.4v.1h.4v.1h.3l.1.1h.2l.1.1h.3v.1h.2l.1.1h.2v.1h.2v.1h.3v.1h.2v.1h.2v.1h.2v.1h.2v.1h.2v.1h.1l.1.1h.1l.1.1h.1v.1h.2v.1h.1v.1h.2v.1h.1v.1h.1l.1.1h.1v.1h.1l.1.1h.1v.1h.1v.1h.1l.1.1.1.1h.1v.1h.1v.1h.1v.1h.1v.1h.1v.1h.1v.1h.1l.1.1.1.1v.1h.1l.1.1.1.1v.1h.1l.1.1v.1h.1v.1h.1v.1h.1v.1h.1v.1l.1.1.1.1v.1h.1v.1h.1v.1h.1v.1l.1.1v.1h.1v.1h.1v.1h.1v.2h.1v.1h.1v.2h.1v.1l.1.1.1.1v.1h.1v.2h.1v.1l.1.1v.1h.1v.1l.1.1v.1h.1v.2h.1v.1l.1.1v.1l.1.1v.1l.1.1v.1h.1v.2h.1v.1l.1.1v.1l.1.1v.1l.1.1v.1l.1.1v.1l.1.1v.1"/></g><path stroke="#d1d5db" d="M442 16v155m0-77.5h358"/><text x="621" y="197" fill="#6b7280" font-size="9" text-anchor="middle">Hz</text><text x="420" y="93.5" fill="#6b7280" font-size="9" text-anchor="middle" transform="rotate(-90 420 93.5)">Phase (deg)</text><path stroke="#e5e7eb" stroke-width=".5" d="M474.6 16v155m19.1-155v155m13.6-155v155m10.5-155v155m8.6-155v155m7.3-155v155m6.2-155v155m5.6-155v155m37.6-155v155m19.1-155v155m13.5-155v155m10.6-155v155m8.5-155v155m7.3-155v155m6.3-155v155m5.5-155v155m37.6-155v155m19.1-155v155m13.6-155v155m10.5-155v155m8.6-155v155m7.3-155v155m6.2-155v155m5.6-155v155M800 16v155M442 16v155"/><text x="442" y="183" fill="#6b7280" font-size="8" text-anchor="middle">10</text><path stroke="#e5e7eb" stroke-width=".5" d="M550.5 16v155"/><text x="550.5" y="183" fill="#6b7280" font-size="8" text-anchor="middle">100</text><path stroke="#e5e7eb" stroke-width=".5" d="M658.9 16v155"/><text x="658.9" y="183" fill="#6b7280" font-size="8" text-anchor="middle">1k</text><path stroke="#e5e7eb" stroke-width=".5" d="M767.4 16v155"/><text x="767.4" y="183" fill="#6b7280" font-size="8" text-anchor="middle">10k</text><path stroke="#e5e7eb" stroke-width=".5" d="M442 54.8h358m-358 77.5h358M442 16h358"/><text x="438" y="19" fill="#6b7280" font-size="8" text-anchor="end">+180</text><text x="438" y="96.5" fill="#6b7280" font-size="8" text-anchor="end">0</text><path stroke="#e5e7eb" stroke-width=".5" d="M442 171h358"/><text x="438" y="174" fill="#6b7280" font-size="8" text-anchor="end">-180</text><g clip-path="url(#c)"><path fill="url(#d)" d="M445.5 93.5h245.9l.2.1h7.3l.2.1h4.9l.2.1h3.5l.2.1h3.1l.2.1h2.6l.2.1h2.3l.1.1h1.9l.2.1h1.8l.1.1h1.8l.1.1h1.6l.1.1h1.5l.1.1h1.4l.1.1h1.4l.1.1h1.3l.1.1h1.2l.1.1h1.2l.1.1h1.1l.1.1h1.2l.1.1h1.1l.1.1h1.1l.1.1h1.1l.1.1h1.1l.1.1h1.1l.1.1h1.1l.1.1h1.1l.1.1h1.3v.1h1.3l.1.1h1.4v.1h1.7l.1.1h1.9l.1.1h8.1l.1-.1h1.7l.1-.1h1.3l.1-.1h1.1l.1-.1h1.1v-.1h1.1V96h1.2v-.1h1.2v-.1h1.6v-.1h3.6l.1.1h1.1l.1.1h.7v.1h.6l.1.1h.4l.1.1h.4v.1h.4l.1.1h.3v.1h.3l.1.1h.3v.1h.3v.1h.3v.1h.2l.1.1h.2v.1h.3v.1h.2v.1h.2l.1.1h.2v.1h.2v.1h.2l.1.1h.1v.1h.2l.1.1h.1l.1.1h.1v.1h.2v.1h.2v.1h.2v.1h.1l.1.1h.1l.1.1h.1v.1h.1l.1.1h.1l.1.1h.1v.1h.1l.1.1h.1v.1h.1l.1.1h.1v.1h.1l.1.1h.1v.1h.1l.1.1h.1v.1h.1v.1h.2v.1h.1l.1.1.1.1h.1v.1h.1v.1h.1l.1.1h.1v.1h.1v.1h.1l.1.1.1.1h.1v.1h.1v.1h.1l.1.1.1.1h.1v.1h.1v.1h.1v.1h.1l.1.1.1.1h.1v.1h.1v.1h.1v.1h.1v.1h.1l.1.1.1.1h.1v.1h.1v.1h.1v.1h.1v.1h.1v.1h.1v.1h.1v.1h.1v.1h.1l.1.1.1.1h.1v.1h.1v.1l.1.1.1.1h.1v.1h.1v.1h.1v.1h.1v.1h.1v.1h.1v.1h.1v.1h.1v.1h.1v.1h.1v.1h.1v.1h.1v.1h.1v.1h.1v.1h.1v.1h.1v.1h.1v.1h.1v.1h.1v.1l.1.1.1.1h.1v.1l.1.1.1.1.1.1v.1h.1l.1.1.1.1v.1h.1v.1h.1v.1h.1v.1h.1v.1h.1v.1h.1v.1h.1v.1h.1v.1h.1v.1h.1v.1l.1.1h.1v.1l.1.1.1.1v.1h.1l.1.1v.1h.1v.1h.1v.1h.1v.1h.1v.1h.1v.1h.1v.1h.1v.1h.1v.1h.1v.1h.1v.1h.1v.1h.1v.1h.1v.1h.1v.1h.1v.1h.1v.1h.1v.1h.1v.1h.1v.1h.1v.1h.1v.1h.1v.1h.1v.1h.1v.1h.1v.1h.1v.1h.1v.1h.1l.1.1.1.1.1.1h.1v.1h.1v.1h.1v.1h.2v.1h.1v.1h.1v.1h.1l.1.1h.1v.1h.2v.1h.1l.1.1h.1l.1.1h.2v.1h.2l.1.1h.6V93.5z"/><path fill="none" stroke="#ef4444" stroke-linejoin="round" stroke-width="1.5" d="M445.5 93.5h188.7l.9-.1h38.2l.3.1h17.8l.2.1h7.3l.2.1h4.9l.2.1h3.5l.2.1h3.1l.2.1h2.6l.2.1h2.3l.1.1h1.9l.2.1h1.8l.1.1h1.8l.1.1h1.6l.1.1h1.5l.1.1h1.4l.1.1h1.4l.1.1h1.3l.1.1h1.2l.1.1h1.2l.1.1h1.1l.1.1h1.2l.1.1h1.1l.1.1h1.1l.1.1h1.1l.1.1h1.1l.1.1h1.1l.1.1h1.1l.1.1h1.1l.1.1h1.3v.1h1.3l.1.1h1.4v.1h1.7l.1.1h1.9l.1.1h8.1l.1-.1h1.7l.1-.1h1.3l.1-.1h1.1l.1-.1h1.1v-.1h1.1V96h1.2v-.1h1.2v-.1h1.6v-.1h3.6l.1.1h1.1l.1.1h.7v.1h.6l.1.1h.4l.1.1h.4v.1h.4l.1.1h.3v.1h.3l.1.1h.3v.1h.3v.1h.3v.1h.2l.1.1h.2v.1h.3v.1h.2v.1h.2l.1.1h.2v.1h.2v.1h.2l.1.1h.1v.1h.2l.1.1h.1l.1.1h.1v.1h.2v.1h.2v.1h.2v.1h.1l.1.1h.1l.1.1h.1v.1h.1l.1.1h.1l.1.1h.1v.1h.1l.1.1h.1v.1h.1l.1.1h.1v.1h.1l.1.1h.1v.1h.1l.1.1h.1v.1h.1v.1h.2v.1h.1l.1.1.1.1h.1v.1h.1v.1h.1l.1.1h.1v.1h.1v.1h.1l.1.1.1.1h.1v.1h.1v.1h.1l.1.1.1.1h.1v.1h.1v.1h.1v.1h.1l.1.1.1.1h.1v.1h.1v.1h.1v.1h.1v.1h.1l.1.1.1.1h.1v.1h.1v.1h.1v.1h.1v.1h.1v.1h.1v.1h.1v.1h.1v.1h.1l.1.1.1.1h.1v.1h.1v.1l.1.1.1.1h.1v.1h.1v.1h.1v.1h.1v.1h.1v.1h.1v.1h.1v.1h.1v.1h.1v.1h.1v.1h.1v.1h.1v.1h.1v.1h.1v.1h.1v.1h.1v.1h.1v.1h.1v.1h.1v.1l.1.1.1.1h.1v.1l.1.1.1.1.1.1v.1h.1l.1.1.1.1v.1h.1v.1h.1v.1h.1v.1h.1v.1h.1v.1h.1v.1h.1v.1h.1v.1h.1v.1h.1v.1l.1.1h.1v.1l.1.1.1.1v.1h.1l.1.1v.1h.1v.1h.1v.1h.1v.1h.1v.1h.1v.1h.1v.1h.1v.1h.1v.1h.1v.1h.1v.1h.1v.1h.1v.1h.1v.1h.1v.1h.1v.1h.1v.1h.1v.1h.1v.1h.1v.1h.1v.1h.1v.1h.1v.1h.1v.1h.1v.1h.1v.1h.1v.1h.1v.1h.1l.1.1.1.1.1.1h.1v.1h.1v.1h.1v.1h.2v.1h.1v.1h.1v.1h.1l.1.1h.1v.1h.2v.1h.1l.1.1h.1l.1.1h.2v.1h.2l.1.1h.6"/></g><path stroke="#d1d5db" d="M34 221v155m0-77.5h358"/><text x="213" y="402" fill="#6b7280" font-size="9" text-anchor="middle">Hz</text><text x="12" y="298.5" fill="#6b7280" font-size="9" text-anchor="middle" transform="rotate(-90 12 298.5)">Delay (smp)</text><path stroke="#e5e7eb" stroke-width=".5" d="M66.6 221v155m19.1-155v155m13.6-155v155m10.5-155v155m8.6-155v155m7.3-155v155m6.2-155v155m5.6-155v155m37.6-155v155m19.1-155v155m13.5-155v155m10.6-155v155m8.5-155v155m7.3-155v155m6.3-155v155m5.5-155v155m37.6-155v155m19.1-155v155m13.6-155v155m10.5-155v155m8.6-155v155m7.3-155v155m6.2-155v155m5.6-155v155M392 221v155M142.5 221v155"/><text x="142.5" y="388" fill="#6b7280" font-size="8" text-anchor="middle">100</text><path stroke="#e5e7eb" stroke-width=".5" d="M250.9 221v155"/><text x="250.9" y="388" fill="#6b7280" font-size="8" text-anchor="middle">1k</text><path stroke="#e5e7eb" stroke-width=".5" d="M359.4 221v155"/><text x="359.4" y="388" fill="#6b7280" font-size="8" text-anchor="middle">10k</text><path stroke="#e5e7eb" stroke-width=".5" d="M34 376h358"/><text x="30" y="379" fill="#6b7280" font-size="8" text-anchor="end">-100</text><path stroke="#e5e7eb" stroke-width=".5" d="M34 337.3h358"/><text x="30" y="340.3" fill="#6b7280" font-size="8" text-anchor="end">-50</text><text x="30" y="301.5" fill="#6b7280" font-size="8" text-anchor="end">0</text><path stroke="#e5e7eb" stroke-width=".5" d="M34 259.8h358"/><text x="30" y="262.8" fill="#6b7280" font-size="8" text-anchor="end">50</text><path stroke="#e5e7eb" stroke-width=".5" d="M34 221h358"/><text x="30" y="224" fill="#6b7280" font-size="8" text-anchor="end">100</text><g clip-path="url(#e)"><path fill="none" stroke="#22c55e" stroke-linejoin="round" stroke-width="1.5" d="M37.5 298.5h244.6l.2-.1H313l.1-.1h20l.1.1H344v.1h7.1v.1h11v-.1h3.6l.1-.1h2.5l.1-.1h2.3v-.1h2.3l.1-.1h2.5v-.1h3v-.1h9.6v.1h1.3v.1h.8v.1h.6v.1h.4l.1.1h.3l.1.1h.2"/></g><path stroke="#d1d5db" d="M442 221v155m0-77.5h358"/><text x="621" y="402" fill="#6b7280" font-size="9" text-anchor="middle">Samples</text><text x="420" y="298.5" fill="#6b7280" font-size="9" text-anchor="middle" transform="rotate(-90 420 298.5)">Impulse</text><path stroke="#e5e7eb" stroke-width=".5" d="M442 221v155"/><text x="442" y="388" fill="#6b7280" font-size="8" text-anchor="middle">0</text><path stroke="#e5e7eb" stroke-width=".5" d="M567.9 221v155"/><text x="567.9" y="388" fill="#6b7280" font-size="8" text-anchor="middle">90</text><path stroke="#e5e7eb" stroke-width=".5" d="M693.7 221v155"/><text x="693.7" y="388" fill="#6b7280" font-size="8" text-anchor="middle">180</text><path stroke="#e5e7eb" stroke-width=".5" d="M442 363.1h358"/><text x="438" y="366.1" fill="#6b7280" font-size="8" text-anchor="end">-1</text><text x="438" y="301.5" fill="#6b7280" font-size="8" text-anchor="end">0</text><path stroke="#e5e7eb" stroke-width=".5" d="M442 233.9h358"/><text x="438" y="236.9" fill="#6b7280" font-size="8" text-anchor="end">1</text><path stroke="#e5e7eb" stroke-dasharray="3 2" stroke-width=".5" d="M442 233.9h358"/><text x="438" y="236.9" fill="#6b7280" font-size="7" text-anchor="end">+1</text><path stroke="#e5e7eb" stroke-dasharray="3 2" stroke-width=".5" d="M442 363.1h358"/><text x="438" y="366.1" fill="#6b7280" font-size="7" text-anchor="end">-1</text><g clip-path="url(#f)"><path fill="url(#g)" d="M442 298.5v-64.6l1.4 47.2 1.4 17.4 1.4-11 1.4 11h351z"/><path fill="url(#h)" d="M442 298.5h1.4l1.4 13.4 1.4-13.4 1.4 6.5 1.4-6.5h349.6z"/><path fill="none" stroke="#eab308" stroke-linejoin="round" stroke-width="1.2" d="m442 233.9 1.4 47.2 1.4 30.8 1.4-24.4 1.4 17.5 1.4-6.5h349.6"/></g></svg>