<svg xmlns="http://www.w3.org/2000/svg" style="font-family:system-ui,-apple-system,sans-serif" viewBox="0 0 820 392"><defs><linearGradient id="b" x1="0" x2="0" y1="23" y2="171" gradientUnits="userSpaceOnUse"><stop offset="0%" stop-color="#3b82f6" stop-opacity=".15"/><stop offset="100%" stop-color="#3b82f6" stop-opacity=".01"/></linearGradient><linearGradient id="d" x1="0" x2="0" y1="16" y2="94" gradientUnits="userSpaceOnUse"><stop offset="0%" stop-color="#ef4444" stop-opacity=".15"/><stop offset="100%" stop-color="#ef4444" stop-opacity=".01"/></linearGradient><linearGradient id="e" x1="0" x2="0" y1="94" y2="171" gradientUnits="userSpaceOnUse"><stop offset="0%" stop-color="#ef4444" stop-opacity=".01"/><stop offset="100%" stop-color="#ef4444" stop-opacity=".15"/></linearGradient><linearGradient id="g" x1="0" x2="0" y1="221" y2="299" gradientUnits="userSpaceOnUse"><stop offset="0%" stop-color="#22c55e" stop-opacity=".15"/><stop offset="100%" stop-color="#22c55e" stop-opacity=".01"/></linearGradient><linearGradient id="h" x1="0" x2="0" y1="299" y2="376" gradientUnits="userSpaceOnUse"><stop offset="0%" stop-color="#22c55e" stop-opacity=".01"/><stop offset="100%" stop-color="#22c55e" stop-opacity=".15"/></linearGradient><linearGradient id="j" x1="0" x2="0" y1="254" y2="299" gradientUnits="userSpaceOnUse"><stop offset="0%" stop-color="#eab308" stop-opacity=".15"/><stop offset="100%" stop-color="#eab308" stop-opacity=".01"/></linearGradient><linearGradient id="k" x1="0" x2="0" y1="299" y2="332" gradientUnits="userSpaceOnUse"><stop offset="0%" stop-color="#eab308" stop-opacity=".01"/><stop offset="100%" stop-color="#eab308" stop-opacity=".15"/></linearGradient><clipPath id="a"><path d="M34 16h358v155H34z"/></clipPath><clipPath id="c"><path d="M442 16h358v155H442z"/></clipPath><clipPath id="f"><path d="M34 221h358v155H34z"/></clipPath><clipPath id="i"><path d="M442 221h358v155H442z"/></clipPath></defs><text x="800" y="11" fill="#6b7280" font-size="11" font-weight="600" text-anchor="end">LMS convergence, μ=0.05</text><path stroke="#d1d5db" d="M34 16v155m0-124h358"/><text x="213" y="197" fill="#6b7280" font-size="9" text-anchor="middle">Hz</text><text x="12" y="93.5" fill="#6b7280" font-size="9" text-anchor="middle" transform="rotate(-90 12 93.5)">dB</text><path stroke="#e5e7eb" stroke-width=".5" d="M66.6 16v155M85.7 16v155M99.3 16v155m10.5-155v155m8.6-155v155m7.3-155v155m6.2-155v155m5.6-155v155m37.6-155v155m19.1-155v155m13.5-155v155m10.6-155v155m8.5-155v155m7.3-155v155m6.3-155v155m5.5-155v155m37.6-155v155m19.1-155v155m13.6-155v155m10.5-155v155m8.6-155v155m7.3-155v155m6.2-155v155m5.6-155v155M392 16v155M34 16v155"/><text x="34" y="183" fill="#6b7280" font-size="8" text-anchor="middle">10</text><path stroke="#e5e7eb" stroke-width=".5" d="M142.5 16v155"/><text x="142.5" y="183" fill="#6b7280" font-size="8" text-anchor="middle">100</text><path stroke="#e5e7eb" stroke-width=".5" d="M250.9 16v155"/><text x="250.9" y="183" fill="#6b7280" font-size="8" text-anchor="middle">1k</text><path stroke="#e5e7eb" stroke-width=".5" d="M359.4 16v155"/><text x="359.4" y="183" fill="#6b7280" font-size="8" text-anchor="middle">10k</text><path stroke="#e5e7eb" stroke-width=".5" d="M34 171h358M34 140h358M34 109h358M34 78h358M34 16h358M34 62.5h358m-358-31h358"/><text x="30" y="174" fill="#6b7280" font-size="8" text-anchor="end">-80</text><text x="30" y="143" fill="#6b7280" font-size="8" text-anchor="end">-60</text><text x="30" y="112" fill="#6b7280" font-size="8" text-anchor="end">-40</text><text x="30" y="81" fill="#6b7280" font-size="8" text-anchor="end">-20</text><text x="30" y="50" fill="#6b7280" font-size="8" text-anchor="end">0</text><text x="30" y="19" fill="#6b7280" font-size="8" text-anchor="end">+20</text><g clip-path="url(#a)"><path fill="url(#b)" d="M37.5 171V54.1l32.6.3 19.1.5 13.6.7 10.5.9 8.6 1.2 7.2 1.6 6.3 1.9 5.6 2.3 4.9 2.9 4.5 3.1 4.1 2.6 3.8.1 3.5-2.6 3.2-3.5 3.1-3.2 2.8-2.8 2.7-2.3 2.6-1.9 2.4-1.6 2.3-1.3 2.2-1.1 2.1-.8 2-.6 1.9-.5 1.8-.2 1.8-.2 1.7.1 1.7.1 1.6.3 1.5.4 1.5.4 1.5.5 1.4.6 1.3.6 1.4.6 1.3.6 1.2.6 1.2.4 1.2.3 1.2.2 1.1.1h1.1l1.1-.1 1.1-.1h1l1-.1h1l1-.1h2.8l.9.1.9.1.8.3.9.4.8.5.8.6.8.7.8.9.8.9.8.9.7.7.8.5.7.1.7-.4.7-.8.7-.9.7-.9.7-.9.6-.8.7-.5.7-.5.6-.2.6-.1.7-.1.6.1h1.8l.6-.1.5-.1.6-.3.6-.4.5-.4.6-.4.5-.4.6-.4.5-.4.5-.4.5-.3.6-.3.5-.2.5-.2.5-.2.5-.2.4-.1.5-.1.5-.2.5-.1h.4l.5-.1h.5l.4.1.5.1.4.1.5.2.4.2.4.3.5.3.4.3.4.3.4.3.5.3.4.3.4.3.4.3.4.2.4.3.4.3.4.2.3.3.4.2.4.2.4.1.4.1.3.1.4.1h.7l.4-.1.4-.1.3-.1.4-.2.3-.1.4-.2.3-.3.4-.2.3-.2.3-.1.4-.2h.3l.3-.1h.4l.3.1.3.2.3.2.3.4.4.4.3.6.3.8.3.9.3 1 .3 1.3.3 1.5.3 1.7.3 2 .3 2.4.3 2.9.3 3.5.3 4.2.3 5 .3 3.8.3-1.3.3-4.1.3-3.8.2-2.9.3-2.4.3-1.8.3-1.5.2-1.2.3-.9.3-.7.3-.6.2-.4.3-.5.3-.4.2-.5.3-.6.3-.7.2-.7.3-.9.2-.8.3-.9.3-.8.2-.8.3-.8.2-.8.3-.8.2-.8.3-.7.2-.7.2-.7.3-.7.2-.6.3-.6.2-.4.3-.5.2-.4.2-.3.3-.2.2-.3.2-.2.3-.1.2-.1.2-.1.2-.1h2.1l.2-.1.2-.1h.2l.2-.1.2-.2.2-.1.3-.2.2-.1.2-.2.2-.2.2-.2.2-.2.2-.1.2-.2.2-.2.2-.1.2-.1.2-.1.2-.2.2-.1.2-.1h.2l.2-.1h.6l.2.1.2.1.2.1.2.1.2.2.2.2.1.2.2.2.2.2.2.3.2.2.2.2.2.2.2.3.1.2.2.2.2.2.2.2.2.3.1.2.2.1.2.2.2.1h.3l.2-.1.2-.1.2-.1.1-.2.2-.2.2-.3.2-.3.1-.3.2-.3.2-.2.1-.3.2-.2.2-.2.1-.2.2-.1.2-.1.1-.1h.4l.1.1.2.1.2.1.1.2.2.2.2.3.1.3.2.4.1.4.2.4.2.6.1.5.2.6.1.6.2.6.1.6.2.4.1.4.2.2.2.1h.1l.2-.2.1-.3.2-.4.1-.4.2-.4.1-.5.2-.4.1-.4.2-.4.1-.3.2-.3.1-.3.2-.2.1-.2.2-.2.1-.1.2-.1.1-.1.1-.1h.2l.1-.1h.2l.1-.1h.3l.1-.1h.2l.1-.1h.3l.1-.1.2-.1.1-.1.2-.1.1-.1.1-.2.2-.3.1-.3.1-.3.2-.3.1-.4.2-.4.1-.4.1-.5.2-.4.1-.5.1-.5.2-.5.1-.5.1-.5.2-.4.1-.5.1-.5.1-.4.2-.4.1-.3.1-.3.2-.3.1-.2.1-.2.1-.2.2-.2.1-.1.1-.1h.3l.1-.1.1.1h.2l.1.1.1.1.1.1.2.1.1.2.1.1.1.2.2.2.1.3.1.2.1.3.1.3.2.3.1.3.1.3.1.3.1.3.2.4.1.4.1.4.1.4.1.4.2.4.1.4.1.5.1.4.1.4.1.4.2.4.1.4.1.4.1.4.1.3.1.3.2.3.1.2.1.2.1.2.1.1.1.2.1.1.1.1.2.2.1.1.1.1.1.1h.1l.1.1.1.1h.1l.2.1.1.1h.1l.1.1.1.1h.5l.1-.1.1-.1h.4l.1.1.1.1.1.1.1.1.1.1.1.2.1.1.1.1.1.1.1.1.1.2.1.1.1.1.1.1.1.1h.5l.1-.1h.1l.1-.1h.1l.1-.1.1-.1h.1l.1-.1.1-.1.1-.1.1-.1.1-.1.1-.1.1-.2.1-.1.1-.1.1-.1.1-.1.1-.1.1-.1h.1l.1-.1.1-.1.1-.1.1-.1v-.1l.1-.1.1-.1.1-.2.1-.1.1-.2.1-.2.1-.2.1-.2.1-.2.1-.2.1-.1.1-.1.1-.1h.2l.1-.1.1.1h.2l.1.1h.1l.1.1h.2l.1-.1h.1l.1-.1.1-.1.1-.1.1-.1.1-.1v-.1h.1l.1-.1h.1l.1-.1h.5l.1.1h.1l.1.1.1.1.1.1.1.1.1.2v.2l.1.2.1.3.1.3.1.4.1.4.1.5.1.6v.7l.1.7.1.9.1 1 .1 1.1.1 1.2.1 1.4v1.6l.1 1.8.1 2 .1 2.4.1 2.8.1 3 .1 2.7v.9l.1-1.7.1-2.9.1-2.9.1-2.6.1-2.2v-1.9l.1-1.7.1-1.4.1-1.2.1-1 .1-.8v-.7l.1-.6.1-.4.1-.4.1-.3v-.3l.1-.2.1-.3.1-.3.1-.3.1-.4v-.4l.1-.4.1-.5.1-.5.1-.5v-.5l.1-.5.1-.5.1-.5.1-.4v-.4l.1-.4.1-.4.1-.3.1-.3v-.4l.1-.3.1-.4.1-.3.1-.4v-.4l.1-.4.1-.4.1-.5v-.4l.1-.4.1-.3.1-.4.1-.3v-.3l.1-.3.1-.2.1-.1v-.2h.1l.1-.1h.1v.1l.1.1.1.1.1.2v.2l.1.2.1.3.1.3v.4l.1.4.1.4.1.5v.5l.1.5.1.6.1.5v.6l.1.5.1.5.1.5v.3l.1.3.1.2.1.1v.1l.1.1.1.1h.8v.1h.1l.1.1.1.2v.1l.1.2.1.2v.2l.1.2.1.2.1.1v.1h.2l.1-.1h.1l.1-.1.1-.1h.1v-.1l.1-.1.1-.1v-.1l.1-.1h.1v-.1h.1l.1-.1.1-.1.1-.1.1-.1v-.2l.1-.2.1-.3v-.3l.1-.3.1-.4v-.4l.1-.4.1-.3v-.4l.1-.3.1-.2v-.3l.1-.2.1-.2v-.2l.1-.1.1-.1v-.1h.3l.1.1v.1h.1l.1.1v.1h.1l.1.1h.2v-.1l.1-.1.1-.1v-.1l.1-.1v-.1h.1l.1-.1v.1h.1l.1.1v.1l.1.2.1.2v.2l.1.1.1.2v.1h.1v.1h.1l.1-.1.1-.1.1-.2V41l.1-.2v-.2l.1-.2.1-.3v-.2l.1-.2.1-.1v-.2l.1-.1.1-.1h.2l.1.1.1.1v.1l.1.1.1.1v.1l.1.1v.2l.1.1.1.1v.1l.1.1v.1l.1.1.1.1v.1l.1.2.1.1v.2l.1.2v.3l.1.3.1.4v.3l.1.4v.3l.1.3v.2h.2v-.2l.1-.3v-.3l.1-.3.1-.3v-.4l.1-.2v-.2l.1-.2h.1l.1.1v.1l.1.2v.3l.1.3.1.4v.4l.1.5v.5l.1.7.1.6v.7l.1.8v.8l.1.8v.7l.1.7.1.5v.4l.1.3v.1h.1v.1l.1-.1h.1v.1h.1v.1h.1v.1l.1.1h.3l.1-.1v-.1l.1-.1.1-.1v-.1l.1-.2v-.2l.1-.2v-.2l.1-.1v-.1l.1-.1h.1v.1l.1.2v.3l.1.4v.5l.1.5v.7l.1.8v.8l.1.9.1 1v.9l.1 1v.8l.1.9v.7l.1.8v.8l.1.8v1.1l.1 1.2.1 1.6v2.1l.1 2.7v3.9l.1 6.1v12.5l.1 4.2V82.6l.1-7.3v-4.8l.1-3.4v-2.6l.1-2V61l.1-1.2v-.9l.1-.6.1-.4v-.3l.1-.2v-.1l.1-.1v-.1l.1-.3v-.2l.1-.3v-.2l.1-.2v.1l.1.2v.4l.1.6v.8l.1 1.1v1.2l.1 1.3v1.2l.1.9v.4l.1-.4.1-.9v-1.3l.1-1.4v-1.3l.1-1.3v-1.1l.1-1v-.9l.1-.8v-.6l.1-.5v-.4l.1-.3v-.2l.1-.1v-.2l.1-.1v-.2l.1-.2v-.3l.1-.3v-.4l.1-.3v-.2l.1-.2V49h.1l.1.1v.1l.1.1v-.1l.1-.1v-.3l.1-.5v-.6l.1-.8v-.8l.1-.7v-.8l.1-.6v-.6l.1-.5v-.5l.1-.4v-.4l.1-.3v-.4l.1-.3v-.4l.1-.4v-.6l.1-.3v-.2l.1-.2v-.1l.1-.1h.1l.1.1v.1l.1.1v.1l.1.1h.2v-.1l.1-.1v-.1l.1-.1h.1v.1l.1.2v.3l.1.3v.4l.1.6v.6l.1.8v.9l.1 1v1.2l.1 1.2v1.4l.1 1.4v1.3l.1 1.2v1.5l.1.3.1-.4v-.5l.1-.8v-.8l.1-.9v-1l.1-.9v-.9l.1-.8v-1.3l.1-.6v-.4l.1-.3v-.3l.1-.2v-.1l.1-.1v-.2l.1-.1v-.1l.1-.2v-.3l.1-.1h.1v.1l.1.1v.3l.1.4v.4l.1.6v1.4l.1.8v.9l.1 1v1l.1 1.1v1l.1.9v.9h.1v-.4l.1-.5v-.6l.1-.5v-.6l.1-.4v-.6l.1-.3v-.2l.1-.2v-.2l.1-.2v-.2l.1-.1v-.3h.1v-.1h.2v.4l.1.4v.4l.1.6v.8l.1.8v2l.1 1v1.1l.1 1v1.1l.1 1.2v2.6l.1 1.7v1.9l.1 2.2v2.3l.1 1.9v.6-1.1l.1-2.1v-2.3l.1-2.2v-2l.1-1.7v-2.6l.1-.9v-.6l.1-.4.1.2v1.3l.1.9v1.1l.1 1v.8l.1.4V60l.1-1.1v-1.3l.1-1.3v-2.1l.1-.8v-.6l.1-.3v-.3h.1v.3l.1.4v.5l.1.8v2.2l.1 1.5v1.9l.1 2.3v3l.1 3.9v12.4l.1 1v-7.1l.1-5.7v-7.3l.1-2.4V58l.1-1.4v-1.7l.1-.5v-.2h.1v.5l.1.6v.7l.1.9v1.9l.1.7v.4l.1-.2v-1.5l.1-1.1v-1l.1-.9v-1.4l.1-.5v-.4l.1-.4v-.6l.1-.3v-.2l.1-.2v-.3l.1-.1v-.1h.1v.1l.1.1v.2l.1.2v.5l.1.4v.4l.1.4v.9l.1.6v.4l.1.5v.7l.1.2v-.1l.1-.3v-.4l.1-.4V54l.1-.5V53l.1-.5v-1.2l.1-.6V50l.1-.7v-1.5l.1-.6v-1.1l.1-.4v-.3l.1-.3v-.3l.1-.1v-.1h.2v-.1l.1-.1v-.1l.1-.2v-.4l.1-.2v-.7l.1-.4v-.5l.1-.5v-1l.1-.6v-1l.1-.5v-.4l.1-.4v-.8l.1-.3v-.7l.1-.3v-.3l.1-.3v-.6l.1-.3v-.4l.1-.2v-.2l.1-.1.1.1v.3l.1.3v.6l.1.3v.4l.1.3v.6l.1.3v.5l.1.3v.5l.1.3v.3l.1.3v.8l.1.4v.9l.1.4v.9l.1.3v.4l.1.3v.4l.1.1h.1V43l.1-.3v-.6l.1-.3v-.3l.1-.3v-.6l.1-.1v-.2h.1v.4l.1.3v1l.1.7v1.5l.1.9v.7l.1.7v.5l.1-.2v-1.3l.1-.8v-1.6l.1-.7v-.8l.1-.2v.1l.1.3v.7l.1.3v.3l.1-.1v-.4l.1-.5v-1.3l.1-.7v-1.3l.1-.5v-.9l.1-.3v-.3l.1-.1v-.1l.1-.1v-.2l.1-.2v-.5l.1-.2v-.6l.1-.2v-.4l.1-.1v-.2l.1-.1v-.1h.2v.1l.1.1v.2l.1.1v.3l.1.2v.4l.1.4v.8l.1.6v1.6l.1 1v2.6l.1 1.7v4.6l.1 3.3v10.8l.1 10.5V62.1l.1-5.9v-6.9l.1-2.1v-3l.1-.9V42l.1-.3v-.1l.1.2v.9l.1.7v2.1l.1 1.4v3.4l.1 1.9v2.2l.1-.5v-3.4l.1-2v-3.2l.1-1.4v-2.2l.1-1v-2.1l.1-.5v-.9l.1-.3v-.4l.1-.1.1.1v.2l.1.2v.5l.1.2v.5l.1.2v.3l.1.2v.3h.1v.2l.1.1v.2l.1.1v.1l.1-.1h.1l.1.1v.1l.1.2v.3l.1.1v.1h.1v-.4l.1-.3v-1.2l.1-.4v-.8l.1-.3v-.4l.1-.2v-.1h.1v.2l.1.1v.4l.1.1v.3l.1.1.1-.1v-.1l.1-.1.1-.1v-.2l.1-.2v-1l.1-.4v-.8l.1-.4v-.6l.1-.2v-.6l.1-.1v-.2h.1v-.1h.1v.1l.1.1v.2l.1.1v.3l.1.1v.5l.1.2v.4l.1.2v.4l.1.2v.6l.1.2v.4l.1.3v1l.1.4v.8l.1.5v.7l.1.3v-.2l.1-.4V39l.1-.6v-1.8l.1-.5V35l.1-.5v-1l.1-.2v-.2l.1.1v.5l.1.4v.9l.1.5v2l.1.7v1.5l.1.8v1.6l.1.1v-.7l.1-.7v-2.6l.1-1v-1.8l.1-.8v-2.1l.1-.5v-1l.1-.4v-1.1l.1-.2v-.5l.1-.2V28l.1-.2v-.5l.1-.2v-.6l.1-.2v-.4l.1-.1v.1l.1.1v.6l.1.2v.6l.1.3v.9l.1.4v1.1l.1.3v.7l.1.2v.5l.1.1.1-.1v-.4l.1-.2v-.9l.1-.4v-1.1l.1-.4v-.8l.1-.3v-1l.1-.3v-.8l.1-.2v-.3l.1-.2v-.4l.1-.2v-.3l.1-.1.1-.1v.1h.1v.1l.1.1v.4l.1.3v.5l.1.2v.9l.1.3v.5l.1.1.1-.1v-.2h.1v.1l.1.2v.7l.1.3v.8l.1.2v.5l.1.1v.3l.1.2v.3l.1.3v.5l.1.2v.1-.1l.1-.1v-.5l.1-.2v-.2h.1v.3l.1.1v.3l.1.1v.1h.1v-.3l.1-.3v-.9l.1-.3v-.8l.1-.3v-.6l.1-.2v-.3h.1V171z"/><path fill="none" stroke="#3b82f6" stroke-linejoin="round" stroke-width="1.5" d="m37.5 54.1 32.6.3 19.1.5 13.6.7 10.5.9 8.6 1.2 7.2 1.6 6.3 1.9 5.6 2.3 4.9 2.9 4.5 3.1 4.1 2.6 3.8.1 3.5-2.6 3.2-3.5 3.1-3.2 2.8-2.8 2.7-2.3 2.6-1.9 2.4-1.6 2.3-1.3 2.2-1.1 2.1-.8 2-.6 1.9-.5 1.8-.2 1.8-.2 1.7.1 1.7.1 1.6.3 1.5.4 1.5.4 1.5.5 1.4.6 1.3.6 1.4.6 1.3.6 1.2.6 1.2.4 1.2.3 1.2.2 1.1.1h1.1l1.1-.1 1.1-.1h1l1-.1h1l1-.1h2.8l.9.1.9.1.8.3.9.4.8.5.8.6.8.7.8.9.8.9.8.9.7.7.8.5.7.1.7-.4.7-.8.7-.9.7-.9.7-.9.6-.8.7-.5.7-.5.6-.2.6-.1.7-.1.6.1h1.8l.6-.1.5-.1.6-.3.6-.4.5-.4.6-.4.5-.4.6-.4.5-.4.5-.4.5-.3.6-.3.5-.2.5-.2.5-.2.5-.2.4-.1.5-.1.5-.2.5-.1h.4l.5-.1h.5l.4.1.5.1.4.1.5.2.4.2.4.3.5.3.4.3.4.3.4.3.5.3.4.3.4.3.4.3.4.2.4.3.4.3.4.2.3.3.4.2.4.2.4.1.4.1.3.1.4.1h.7l.4-.1.4-.1.3-.1.4-.2.3-.1.4-.2.3-.3.4-.2.3-.2.3-.1.4-.2h.3l.3-.1h.4l.3.1.3.2.3.2.3.4.4.4.3.6.3.8.3.9.3 1 .3 1.3.3 1.5.3 1.7.3 2 .3 2.4.3 2.9.3 3.5.3 4.2.3 5 .3 3.8.3-1.3.3-4.1.3-3.8.2-2.9.3-2.4.3-1.8.3-1.5.2-1.2.3-.9.3-.7.3-.6.2-.4.3-.5.3-.4.2-.5.3-.6.3-.7.2-.7.3-.9.2-.8.3-.9.3-.8.2-.8.3-.8.2-.8.3-.8.2-.8.3-.7.2-.7.2-.7.3-.7.2-.6.3-.6.2-.4.3-.5.2-.4.2-.3.3-.2.2-.3.2-.2.3-.1.2-.1.2-.1.2-.1h2.1l.2-.1.2-.1h.2l.2-.1.2-.2.2-.1.3-.2.2-.1.2-.2.2-.2.2-.2.2-.2.2-.1.2-.2.2-.2.2-.1.2-.1.2-.1.2-.2.2-.1.2-.1h.2l.2-.1h.6l.2.1.2.1.2.1.2.1.2.2.2.2.1.2.2.2.2.2.2.3.2.2.2.2.2.2.2.3.1.2.2.2.2.2.2.2.2.3.1.2.2.1.2.2.2.1h.3l.2-.1.2-.1.2-.1.1-.2.2-.2.2-.3.2-.3.1-.3.2-.3.2-.2.1-.3.2-.2.2-.2.1-.2.2-.1.2-.1.1-.1h.4l.1.1.2.1.2.1.1.2.2.2.2.3.1.3.2.4.1.4.2.4.2.6.1.5.2.6.1.6.2.6.1.6.2.4.1.4.2.2.2.1h.1l.2-.2.1-.3.2-.4.1-.4.2-.4.1-.5.2-.4.1-.4.2-.4.1-.3.2-.3.1-.3.2-.2.1-.2.2-.2.1-.1.2-.1.1-.1.1-.1h.2l.1-.1h.2l.1-.1h.3l.1-.1h.2l.1-.1h.3l.1-.1.2-.1.1-.1.2-.1.1-.1.1-.2.2-.3.1-.3.1-.3.2-.3.1-.4.2-.4.1-.4.1-.5.2-.4.1-.5.1-.5.2-.5.1-.5.1-.5.2-.4.1-.5.1-.5.1-.4.2-.4.1-.3.1-.3.2-.3.1-.2.1-.2.1-.2.2-.2.1-.1.1-.1h.3l.1-.1.1.1h.2l.1.1.1.1.1.1.2.1.1.2.1.1.1.2.2.2.1.3.1.2.1.3.1.3.2.3.1.3.1.3.1.3.1.3.2.4.1.4.1.4.1.4.1.4.2.4.1.4.1.5.1.4.1.4.1.4.2.4.1.4.1.4.1.4.1.3.1.3.2.3.1.2.1.2.1.2.1.1.1.2.1.1.1.1.2.2.1.1.1.1.1.1h.1l.1.1.1.1h.1l.2.1.1.1h.1l.1.1.1.1h.5l.1-.1.1-.1h.4l.1.1.1.1.1.1.1.1.1.1.1.2.1.1.1.1.1.1.1.1.1.2.1.1.1.1.1.1.1.1h.5l.1-.1h.1l.1-.1h.1l.1-.1.1-.1h.1l.1-.1.1-.1.1-.1.1-.1.1-.1.1-.1.1-.2.1-.1.1-.1.1-.1.1-.1.1-.1.1-.1h.1l.1-.1.1-.1.1-.1.1-.1v-.1l.1-.1.1-.1.1-.2.1-.1.1-.2.1-.2.1-.2.1-.2.1-.2.1-.2.1-.1.1-.1.1-.1h.2l.1-.1.1.1h.2l.1.1h.1l.1.1h.2l.1-.1h.1l.1-.1.1-.1.1-.1.1-.1.1-.1v-.1h.1l.1-.1h.1l.1-.1h.5l.1.1h.1l.1.1.1.1.1.1.1.1.1.2v.2l.1.2.1.3.1.3.1.4.1.4.1.5.1.6v.7l.1.7.1.9.1 1 .1 1.1.1 1.2.1 1.4v1.6l.1 1.8.1 2 .1 2.4.1 2.8.1 3 .1 2.7v.9l.1-1.7.1-2.9.1-2.9.1-2.6.1-2.2v-1.9l.1-1.7.1-1.4.1-1.2.1-1 .1-.8v-.7l.1-.6.1-.4.1-.4.1-.3v-.3l.1-.2.1-.3.1-.3.1-.3.1-.4v-.4l.1-.4.1-.5.1-.5.1-.5v-.5l.1-.5.1-.5.1-.5.1-.4v-.4l.1-.4.1-.4.1-.3.1-.3v-.4l.1-.3.1-.4.1-.3.1-.4v-.4l.1-.4.1-.4.1-.5v-.4l.1-.4.1-.3.1-.4.1-.3v-.3l.1-.3.1-.2.1-.1v-.2h.1l.1-.1h.1v.1l.1.1.1.1.1.2v.2l.1.2.1.3.1.3v.4l.1.4.1.4.1.5v.5l.1.5.1.6.1.5v.6l.1.5.1.5.1.5v.3l.1.3.1.2.1.1v.1l.1.1.1.1h.8v.1h.1l.1.1.1.2v.1l.1.2.1.2v.2l.1.2.1.2.1.1v.1h.2l.1-.1h.1l.1-.1.1-.1h.1v-.1l.1-.1.1-.1v-.1l.1-.1h.1v-.1h.1l.1-.1.1-.1.1-.1.1-.1v-.2l.1-.2.1-.3v-.3l.1-.3.1-.4v-.4l.1-.4.1-.3v-.4l.1-.3.1-.2v-.3l.1-.2.1-.2v-.2l.1-.1.1-.1v-.1h.3l.1.1v.1h.1l.1.1v.1h.1l.1.1h.2v-.1l.1-.1.1-.1v-.1l.1-.1v-.1h.1l.1-.1v.1h.1l.1.1v.1l.1.2.1.2v.2l.1.1.1.2v.1h.1v.1h.1l.1-.1.1-.1.1-.2V41l.1-.2v-.2l.1-.2.1-.3v-.2l.1-.2.1-.1v-.2l.1-.1.1-.1h.2l.1.1.1.1v.1l.1.1.1.1v.1l.1.1v.2l.1.1.1.1v.1l.1.1v.1l.1.1.1.1v.1l.1.2.1.1v.2l.1.2v.3l.1.3.1.4v.3l.1.4v.3l.1.3v.2h.2v-.2l.1-.3v-.3l.1-.3.1-.3v-.4l.1-.2v-.2l.1-.2h.1l.1.1v.1l.1.2v.3l.1.3.1.4v.4l.1.5v.5l.1.7.1.6v.7l.1.8v.8l.1.8v.7l.1.7.1.5v.4l.1.3v.1h.1v.1l.1-.1h.1v.1h.1v.1h.1v.1l.1.1h.3l.1-.1v-.1l.1-.1.1-.1v-.1l.1-.2v-.2l.1-.2v-.2l.1-.1v-.1l.1-.1h.1v.1l.1.2v.3l.1.4v.5l.1.5v.7l.1.8v.8l.1.9.1 1v.9l.1 1v.8l.1.9v.7l.1.8v.8l.1.8v1.1l.1 1.2.1 1.6v2.1l.1 2.7v3.9l.1 6.1v12.5l.1 4.2V82.6l.1-7.3v-4.8l.1-3.4v-2.6l.1-2V61l.1-1.2v-.9l.1-.6.1-.4v-.3l.1-.2v-.1l.1-.1v-.1l.1-.3v-.2l.1-.3v-.2l.1-.2v.1l.1.2v.4l.1.6v.8l.1 1.1v1.2l.1 1.3v1.2l.1.9v.4l.1-.4.1-.9v-1.3l.1-1.4v-1.3l.1-1.3v-1.1l.1-1v-.9l.1-.8v-.6l.1-.5v-.4l.1-.3v-.2l.1-.1v-.2l.1-.1v-.2l.1-.2v-.3l.1-.3v-.4l.1-.3v-.2l.1-.2V49h.1l.1.1v.1l.1.1v-.1l.1-.1v-.3l.1-.5v-.6l.1-.8v-.8l.1-.7v-.8l.1-.6v-.6l.1-.5v-.5l.1-.4v-.4l.1-.3v-.4l.1-.3v-.4l.1-.4v-.6l.1-.3v-.2l.1-.2v-.1l.1-.1h.1l.1.1v.1l.1.1v.1l.1.1h.2v-.1l.1-.1v-.1l.1-.1h.1v.1l.1.2v.3l.1.3v.4l.1.6v.6l.1.8v.9l.1 1v1.2l.1 1.2v1.4l.1 1.4v1.3l.1 1.2v1.5l.1.3.1-.4v-.5l.1-.8v-.8l.1-.9v-1l.1-.9v-.9l.1-.8v-1.3l.1-.6v-.4l.1-.3v-.3l.1-.2v-.1l.1-.1v-.2l.1-.1v-.1l.1-.2v-.3l.1-.1h.1v.1l.1.1v.3l.1.4v.4l.1.6v1.4l.1.8v.9l.1 1v1l.1 1.1v1l.1.9v.9h.1v-.4l.1-.5v-.6l.1-.5v-.6l.1-.4v-.6l.1-.3v-.2l.1-.2v-.2l.1-.2v-.2l.1-.1v-.3h.1v-.1h.2v.4l.1.4v.4l.1.6v.8l.1.8v2l.1 1v1.1l.1 1v1.1l.1 1.2v2.6l.1 1.7v1.9l.1 2.2v2.3l.1 1.9v.6-1.1l.1-2.1v-2.3l.1-2.2v-2l.1-1.7v-2.6l.1-.9v-.6l.1-.4.1.2v1.3l.1.9v1.1l.1 1v.8l.1.4V60l.1-1.1v-1.3l.1-1.3v-2.1l.1-.8v-.6l.1-.3v-.3h.1v.3l.1.4v.5l.1.8v2.2l.1 1.5v1.9l.1 2.3v3l.1 3.9v12.4l.1 1v-7.1l.1-5.7v-7.3l.1-2.4V58l.1-1.4v-1.7l.1-.5v-.2h.1v.5l.1.6v.7l.1.9v1.9l.1.7v.4l.1-.2v-1.5l.1-1.1v-1l.1-.9v-1.4l.1-.5v-.4l.1-.4v-.6l.1-.3v-.2l.1-.2v-.3l.1-.1v-.1h.1v.1l.1.1v.2l.1.2v.5l.1.4v.4l.1.4v.9l.1.6v.4l.1.5v.7l.1.2v-.1l.1-.3v-.4l.1-.4V54l.1-.5V53l.1-.5v-1.2l.1-.6V50l.1-.7v-1.5l.1-.6v-1.1l.1-.4v-.3l.1-.3v-.3l.1-.1v-.1h.2v-.1l.1-.1v-.1l.1-.2v-.4l.1-.2v-.7l.1-.4v-.5l.1-.5v-1l.1-.6v-1l.1-.5v-.4l.1-.4v-.8l.1-.3v-.7l.1-.3v-.3l.1-.3v-.6l.1-.3v-.4l.1-.2v-.2l.1-.1.1.1v.3l.1.3v.6l.1.3v.4l.1.3v.6l.1.3v.5l.1.3v.5l.1.3v.3l.1.3v.8l.1.4v.9l.1.4v.9l.1.3v.4l.1.3v.4l.1.1h.1V43l.1-.3v-.6l.1-.3v-.3l.1-.3v-.6l.1-.1v-.2h.1v.4l.1.3v1l.1.7v1.5l.1.9v.7l.1.7v.5l.1-.2v-1.3l.1-.8v-1.6l.1-.7v-.8l.1-.2v.1l.1.3v.7l.1.3v.3l.1-.1v-.4l.1-.5v-1.3l.1-.7v-1.3l.1-.5v-.9l.1-.3v-.3l.1-.1v-.1l.1-.1v-.2l.1-.2v-.5l.1-.2v-.6l.1-.2v-.4l.1-.1v-.2l.1-.1v-.1h.2v.1l.1.1v.2l.1.1v.3l.1.2v.4l.1.4v.8l.1.6v1.6l.1 1v2.6l.1 1.7v4.6l.1 3.3v10.8l.1 10.5V62.1l.1-5.9v-6.9l.1-2.1v-3l.1-.9V42l.1-.3v-.1l.1.2v.9l.1.7v2.1l.1 1.4v3.4l.1 1.9v2.2l.1-.5v-3.4l.1-2v-3.2l.1-1.4v-2.2l.1-1v-2.1l.1-.5v-.9l.1-.3v-.4l.1-.1.1.1v.2l.1.2v.5l.1.2v.5l.1.2v.3l.1.2v.3h.1v.2l.1.1v.2l.1.1v.1l.1-.1h.1l.1.1v.1l.1.2v.3l.1.1v.1h.1v-.4l.1-.3v-1.2l.1-.4v-.8l.1-.3v-.4l.1-.2v-.1h.1v.2l.1.1v.4l.1.1v.3l.1.1.1-.1v-.1l.1-.1.1-.1v-.2l.1-.2v-1l.1-.4v-.8l.1-.4v-.6l.1-.2v-.6l.1-.1v-.2h.1v-.1h.1v.1l.1.1v.2l.1.1v.3l.1.1v.5l.1.2v.4l.1.2v.4l.1.2v.6l.1.2v.4l.1.3v1l.1.4v.8l.1.5v.7l.1.3v-.2l.1-.4V39l.1-.6v-1.8l.1-.5V35l.1-.5v-1l.1-.2v-.2l.1.1v.5l.1.4v.9l.1.5v2l.1.7v1.5l.1.8v1.6l.1.1v-.7l.1-.7v-2.6l.1-1v-1.8l.1-.8v-2.1l.1-.5v-1l.1-.4v-1.1l.1-.2v-.5l.1-.2V28l.1-.2v-.5l.1-.2v-.6l.1-.2v-.4l.1-.1v.1l.1.1v.6l.1.2v.6l.1.3v.9l.1.4v1.1l.1.3v.7l.1.2v.5l.1.1.1-.1v-.4l.1-.2v-.9l.1-.4v-1.1l.1-.4v-.8l.1-.3v-1l.1-.3v-.8l.1-.2v-.3l.1-.2v-.4l.1-.2v-.3l.1-.1.1-.1v.1h.1v.1l.1.1v.4l.1.3v.5l.1.2v.9l.1.3v.5l.1.1.1-.1v-.2h.1v.1l.1.2v.7l.1.3v.8l.1.2v.5l.1.1v.3l.1.2v.3l.1.3v.5l.1.2v.1-.1l.1-.1v-.5l.1-.2v-.2h.1v.3l.1.1v.3l.1.1v.1h.1v-.3l.1-.3v-.9l.1-.3v-.8l.1-.3v-.6l.1-.2v-.3h.1"/></g><path stroke="#d1d5db" d="M442 16v155m0-77.5h358"/><text x="621" y="197" fill="#6b7280" font-size="9" text-anchor="middle">Hz</text><text x="420" y="93.5" fill="#6b7280" font-size="9" text-anchor="middle" transform="rotate(-90 420 93.5)">Phase (deg)</text><path stroke="#e5e7eb" stroke-width=".5" d="M474.6 16v155m19.1-155v155m13.6-155v155m10.5-155v155m8.6-155v155m7.3-155v155m6.2-155v155m5.6-155v155m37.6-155v155m19.1-155v155m13.5-155v155m10.6-155v155m8.5-155v155m7.3-155v155m6.3-155v155m5.5-155v155m37.6-155v155m19.1-155v155m13.6-155v155m10.5-155v155m8.6-155v155m7.3-155v155m6.2-155v155m5.6-155v155M800 16v155M442 16v155"/><text x="442" y="183" fill="#6b7280" font-size="8" text-anchor="middle">10</text><path stroke="#e5e7eb" stroke-width=".5" d="M550.5 16v155"/><text x="550.5" y="183" fill="#6b7280" font-size="8" text-anchor="middle">100</text><path stroke="#e5e7eb" stroke-width=".5" d="M658.9 16v155"/><text x="658.9" y="183" fill="#6b7280" font-size="8" text-anchor="middle">1k</text><path stroke="#e5e7eb" stroke-width=".5" d="M767.4 16v155"/><text x="767.4" y="183" fill="#6b7280" font-size="8" text-anchor="middle">10k</text><path stroke="#e5e7eb" stroke-width=".5" d="M442 54.8h358m-358 77.5h358M442 16h358"/><text x="438" y="19" fill="#6b7280" font-size="8" text-anchor="end">+180</text><text x="438" y="96.5" fill="#6b7280" font-size="8" text-anchor="end">0</text><path stroke="#e5e7eb" stroke-width=".5" d="M442 171h358"/><text x="438" y="174" fill="#6b7280" font-size="8" text-anchor="end">-180</text><g clip-path="url(#c)"><path fill="url(#d)" d="M445.5 93.5h117l3.8-6.6 3.5-7.7 3.2-3.9 3.1-1.4 2.8.1 2.7 1 2.6 1.5 2.4 1.9 2.3 2 2.2 2.2 2.1 2.3 2 2.3 1.9 2.3 1.8 2.2 1.8 1.8h69.9l.4-76.1.4 2.8.3 2.9.4 3 .4 3.1.4 3.2.4 3.3.3 3.3.4 3.4.4 3.4.3 3.4.4 3.3.4 3.4.3 3.2.4 3.3.3 3.2.4 3.1.3 3.2.4 3.1.3 3 .3 3.1.4 3.1.3 3 .3 3 .4 3.1.3.2h5.2l.3-69.7.3 18 .3 11.5.3 6.6.2 4.5.3 3.4.3 2.7.3 2.4.2 2 .3 1.8.3 1.5.3 1.2.2.9.3.6.3.3.2.1.3.1h.3l.2.1.3.1.2.4.3.4.3.5.2.7.3.7.2.8.3.8.2 1 .3 1 .2 1.1.2 1.2.3 1.3.2 1.4.3.6H705l.2-76.8.1 2.1.2 2.1.2 2 .2 2 .2 2 .2 2 .2 1.9.2 1.9.1 1.8.2 1.9.2 1.7.2 1.7.2 1.7.1 1.5.2 1.4.2 1.4.2 1.3.2 1.3.1 1.2.2 1.1.2 1.2.2 1.2.1 1.2.2 1.2.2 1.3.2 1.3.1 1.5.2 1.4.2 1.5.1 1.6.2 1.6.2 1.6.1 1.6.2 1.7.2 1.6.1 1.7.2 1.6.2 1.7.1 1.6.2 1.6.2 1.5.1 1.5.2 1.4.2 1.4.1 1.3.2 1.3.1 1.2.2 1.1.2.9.1.8.2.6.1.1h.5l.1-.5.2-.7.2-.7.1-.7.2-.7.1-.5.2-.3.1-.2h.2l.1.1.2.3.1.3.2.5.1.5.2.6.1.6.2.6.1.6.2.2h14.8l.1-76.1.1 1.4.1 1.5.1 1.4.1 1.5.1 1.5.1 1.5.1 1.5.1 1.6.1 1.6.1 1.7.1 1.6.1 1.7.1 1.6.1 1.7.1 1.7.2 1.7.1 1.7.1 1.7.1 1.8.1 1.8.1 1.9.1 1.8.1 1.9.1 1.8.1 1.8.1 1.8.1 1.7.1 1.7.1 1.7.1 1.6.1 1.6.1 1.6.1 1.6.1 1.5.1 1.5.1 1.5.1 1.4.1 1.3.1 1.3.1 1.2.1 1.2.1 1.1.1 1.1v1l.1 1 .1.9.1.9.1.9.1.9.1.9.1 1 .1.8H761V16.6l.1.8v.7l.1.7.1.5v.5l.1.2.1-.2v-.5l.1-.7.1-.8v-.9l.1 76.6h1.7V16.2l.1 1.1v1.2l.1 1.1v1.1l.1 1.1v1l.1.9v.7l.1.5.1.4v.2h.1v-.2l.1-.1V25h.1v.2l.1.3v.6l.1.7.1.8v1l.1 1.1v1l.1.6v-2.2l.1 64.4h5.8V17.2l.1 1.2v1.1l.1.9v.7l.1.3.1-.6v-1.1l.1-1.7v75.5h1.4V16.9l.1 1.4v1.3l.1 1.4v1.2l.1 1.2v2.1l.1.8v.6l.1.3v.1l.1-.4v-.8l.1-1.3v-3.6l.1-1.9v-1.5l.1-1v-.7l.1 77.4.1-77.3v.8l.1.5v.5l.1.5v.6l.1.6v.7l.1.8V23l.1 1.1v1.1l.1 1.2v1.3l.1 1.4v3.3l.1 1.7v1.8l.1 1.8v1.8l.1 1.7v3l.1 1.4v1.3l.1 1.4v1.6l.1 1.8v5l.1 3.4v4.3l.1 5.5V77l.1 9.3v7.2h1.4V16.3l.1 2.4v2.5l.1 2.6v5.4l.1 2.9v3l.1 3.2V42l.1 4.5v20.8l.1 26.2h1.6l.1-76.9v3.8l.1 2v2.1l.1 2.2v4.9l.1 2.6v2.7l.1 3v6.5l.1 3.6v3.8l.1 4.1v8.8l.1 4.8v9.7l.1 4.8v4.7l.1 2.8h.9V18.9l.1 3.4v7l.1 3.5v3.6l.1 3.6v7.1l.1 3.4v6.7l.1 3.2v3.1l.1 3.1v5.9l.1 2.9V81l.1 2.6v2.6l.1 2.5v4.7l.1.1h4.6l.1-77.2v2.1l.1 1.1v2.3l.1 1.2v2.4l.1 1.3v2.6l.1 1.5v3.1l.1 1.7v3.7l.1 2v4.3l.1 2.2v4.8l.1 2.5v5.6l.1 3.3v10l.1 15.3v4.2h.3V17.1l.1 2.5v4.7l.1 2.2v4.2l.1 1.9v3l.1 1v.4-.5l.1-1.8v-8l.1-4.8v-5.7l.1 77.3.1-76.8v2.5l.1 1.5v5l.1 1.7v3.7l.1 1.9v3.7l.1 1.9v3.6l.1 1.8v3.3l.1 1.6v2.9l.1 1.3v2.5l.1 1.1v2.2l.1 1.1v3.2l.1 1.2v2.3l.1 1.1v2.1l.1 1.1v2.1l.1 1.1v2.3l.1 1.2v3.8l.1 1.3v2.5l.1 1.2v2.1l.1.8v1.4l.1.6v1.2l.1.7v.2h1.7V17.1v2l.1 2.1v4l.1 2.1v4.1l.1 2v6.1l.1 2v3.9l.1 1.9v3.8l.1 1.8v5.5l.1 1.8v3.6l.1 1.7v4.8l.1 1.4V74l.1.9v1l.1.2.1.1v.6l.1.5v2.6l.1 1.1v2.6l.1 1.5v4.8l.1 1.7v1.9h6.1z"/><path fill="url(#e)" d="M445.5 93.5v2.2l32.6 2.1 19.1 2.1 13.6 2.1 10.5 1.9 8.6 1.8 7.2 1.4 6.3 1 5.6.2 4.9-1.1 4.5-3.5 4.1-7.1 3.8-3.1h32.6l1.8.4 1.7 2.1 1.7 1.9 1.6 1.8 1.5 1.7 1.5 1.5 1.5 1.3 1.4 1 1.3.9 1.4.6 1.3.3 1.2.1h1.2l1.2-.2 1.2-.2 1.1-.2 1.1-.1 1.1.1 1.1.2 1 .3 1 .4 1 .4 1 .5.9.6 1 .6.9.8.9.8.9.9.8.9.9 1 .8.8.8.8.8.5.8.1.8-.2.8-.8.7-1.3.8-1.9.7-2.1.7-2 .7-1.5.7-.8.7-.3.7.3.6.6.7.9.7 1 .6 1 .6.9.7.8.6.7.6.5.6.3.6.2.6.1.5.1.6.1.6.3.5.3.6.6.5.6.6.9.5.9.5 1.1.5 1.1.6 1.1.5 1.3.5 1.2.5 1.3.5 1.4.4 1.4.5 1.4.5 1.5.5 1.6.4 1.6.5 1.7.5 1.8.4 1.9.5 1.9.4 1.9.5 2 .4 2 .4 2 .5 2 .4 2 .4 2 .4 2.1.5 2.1.4 2.2.4 2.3.4 2.4.4 2.5.4 2.6.4-76.2h8.6l.3 2.8.3 3.1.3 3.1.3 3.2.4 3.1.3 3.2.3 3.2.3 3.2.3 3.2.3 3.3.3 3.2.3 3.4.3 3.4.3 3.6.3 4 .3 4.7.3 6.2.3 9.5.3-69.4h8.4l.3.8.2 1.5.3 1.5.2 1.6.2 1.5.3 1.5.2 1.5.2 1.5.3 1.4.2 1.5.2 1.3.2 1.4.3 1.3.2 1.2.2 1.2.2 1.2.3 1.1.2 1 .2 1.1.2 1 .3 1 .2.9.2 1 .2 1 .2 1 .2 1 .2 1.1.3 1.1.2 1.1.2 1.2.2 1.3.2 1.3.2 1.4.2 1.5.2 1.5.2 1.5.2 1.6.2 1.6.2 1.7.2 1.7.2 1.8.2 1.9.2 1.9.2 2 .2 2 .2 2.1.2 2.1.2 2.1.2 2.1.2 2.2.2 2.1.2 2.1.2-76h8.8l.1.3.2.1.1-.1.2-.3h2.7l.2.4.1.7.2.6.1.5.1.6.2.5.1.5.2.4.1.4.2.3.1.4.1.3.2.3.1.2.2.2.1.2.1.2h.2l.1.1h.3l.1-.1h.4l.2.1.1.1.2.2.1.2.1.3.2.3.1.4.1.4.2.5.1.7.1.7.2.7.1.9.1 1 .1 1 .2 1.1.1 1.1.1 1.2.2 1.2.1 1.2.1 1.2.1 1.3.2 1.2.1 1.2.1 1.3.2 1.2.1 1.3.1 1.2.1 1.2.2 1.2.1 1.3.1 1.2.1 1.2.2 1.1.1 1.2.1 1.1.1 1.2.2 1.1.1 1 .1 1.1.1 1 .1 1 .2 1 .1.9.1.9.1.9.1.9.2.9.1.8.1.8.1.8.1.7.2.7.1.6.1.5.1.5.1.5.1.4.2.4.1.3.1.3.1.2.1.2.1.2.2.2.1.1.1.2.1.2.1.3.1.2.1.3.1.4.2.3.1.4.1.4.1.4.1.4.1.5.1.5.1.5.2.6.1.6.1.7.1.6.1.7.1.7.1.7.1.7.1.8.1.9.1 1 .1 1.1.2 1.2.1 1.3.1 1.4.1-77.5h5.1l.1.1.1 1.1.1 1 .1 1 .1 1.1.1 1 .1.9.1 1 .1.9.1.8.1.9.1.8v.7l.1.7.1.6.1.6.1.5.1.5.1.5.1.5.1.5.1.5.1.6.1.6.1.6v.7l.1.7.1.7.1.7.1.7.1.7.1.8.1.7.1.8.1.7v.8l.1.8.1.8.1.8.1.9.1.9.1.9.1 1v.9l.1 1 .1 1.1.1 1 .1 1.1.1 1.1.1 1 .1 1.1v1.1l.1 1 .1 1 .1.9.1.9.1.7.1.6v.4l.1.1.1-.4.1-.9.1-2.1.1-4 .1-6.9v-9.6l.1-8.8.1-5.8.1-3.1.1-1.6.1-.7v-.1l.1.2.1.5.1.6.1.8.1.8v.8l.1.8.1.7.1.6.1.4v.3l.1.2.1.2h.3v-.1h.2l.1.1.1.1v.2l.1.3.1.4.1.4.1.5v.5l.1.5.1.5.1.4.1.5v.4l.1.5.1.4.1.4.1.5v.5l.1.5.1.6.1.7v.7l.1.9.1.8.1 1 .1 1v1.1l.1 1.1.1 1.1.1 1.2v1.2l.1 1.2.1 1.2.1 1.1v1.2l.1 1.2.1 1.1.1 1.1v1.1l.1 1.1.1 1 .1 1v.9l.1.8.1.8.1.8v.6l.1.6.1.4.1.2v.1h.1l.1-.2.1-.3v-.4l.1-.4.1-.4.1-.4v-.3l.1-.3.1-.2.1-.2v-.1l.1-.1.1-.1v-.1h.2l.1.1v.1l.1.1.1.1v.2l.1.2.1.2.1.1v.2h.2v-.1l.1-.2.1-.2.1-.3v-.3l.1-.3.1-.3v-.3l.1-.2.1-.3v-.1l.1-.2.1-.2.1-.2v-.1l.1-.2.1-.1v-.1h.1l.1-.1v-.1l.1-.1.1-.1v-.2l.1-.2.1-.3.1-.3v-.3l.1-.3.1-.2v-.2l.1-.1.1-.1v.1l.1.2.1.3v.3l.1.4.1.5v.4l.1.6.1.5v.6l.1.6.1.6v.5l.1.6.1.5v.5l.1.5.1.4v.4l.1.3.1.3v.3l.1.2.1.1v.1l.1.2.1.1v.1l.1.2.1.2v.3l.1.3v.4l.1.4.1.5v.5l.1.5.1.5v.4l.1.3.1.3v.1l.1.1h.1v-.1h.1v-.1l.1-.1.1-.2v-.1l.1-.1h.2v.2l.1.2.1.3v.4l.1.5.1.5v.5l.1.6v.6l.1.6.1.5v.6l.1.6.1.6v.5l.1.5v.5l.1.5.1.5v.4l.1.4v.4l.1.4.1.4v.3l.1.4v.3l.1.4.1.4v.4l.1.4.1.5v.5l.1.4v.5l.1.3.1.3v.1l.1-.1v-.2l.1-.4v-.4l.1-.6.1-.4v-.4l.1-.2v-.1l.1.2.1.3v.5l.1.7v.8l.1.9.1.9v1l.1 1v1.1l.1 1v.9l.1 1 .1.9V93.5h.7l.1 77.5v-.9l.1-.7v-.5l.1-.5.1-.3v-.2l.1-.2v-.2l.1-.1v-.2l.1-.3.1-.2v-.2l.1-.2v-.2l.1-.1v-.2l.1-.1v-.1l.1-.1h.1v.1l.1.1v.3l.1.4v.5l.1.6v.8l.1.8.1 1V93.5h1.4l.1 30.3v-4.3l.1.9v1.6l.1 1.9v2l.1 2v2l.1 2v1.8l.1 1.7.1 1.5v1.3l.1 1v.7l.1.6v.4l.1.3v.5l.1.7v.8l.1 1v1.1l.1 1.1v1.1l.1 1v.7l.1.3v-.3l.1-1v-2l.1-2.9v-3.6l.1-3.6.1-3v-2.3l.1-1.4v-.9l.1-.3.1.3v.4l.1.6v.7l.1.8v.7l.1.7v.5l.1.4v.3l.1.1v.1h.1l.1.1v.2l.1.3v.4l.1.4v.5l.1.3v.3l.1.1v-.1l.1-.4v-.6l.1-.7v-.9l.1-.7v-.6l.1-.4.1.2v.4l.1.6v.6l.1.8v.7l.1.8v.7l.1.7v.7l.1.7v.8l.1.8v1.8l.1 1v1l.1 1.1v1l.1 1.1v1l.1 1v1l.1.9v.8l.1.7v.7l.1.6v.5l.1.6v.5l.1.6v.7l.1.7v.8l.1.9v1.1l.1 1.1v2.4l.1 1.3v1.4l.1 1.3v1.4l.1 1.4V93.5h.5v77.3-2.5l.1-2.6v-2.4l.1-2.3v-2l.1-1.7V156l.1-.9v-.5l.1-.2v.2l.1.4v1.3l.1.9v.9l.1.9v.9l.1.8v.9l.1.8v.7l.1.7v.8l.1.8v1.8l.1 1v1.2l.1 1.2V93.5h.9l.1 77.4v.1l.1-77.5h1.6v14.2l.1 8.6v6.6l.1 5.2v4.3l.1 3.8v6.8l.1 3.1v3.1l.1 2.9v2.8l.1 2.5v3.9l.1 1.2v.3l.1-.4V161l.1-2.1v-4l.1-1.1v-.3l.1.4v2.4l.1 1.7v2l.1 2.1v2.2l.1 2.3v2.3-75.4h.5l.1.9V111l.1 7.7v9.1l.1 3.7v3.4l.1 3.2v5.9l.1 2.7v2.6l.1 2.3v4.1l.1 1.6v1.3l.1.8v.2-.6l.1-1.2V156l.1-2v-2.7l.1-.4v.2l.1.6v1.9l.1 1.2v1.1l.1 1.2v2.4l.1 1.3v1.3l.1 1.4v3l.1 1.6v1.7l.1-76.3h.8l.1 1.8v8.3l.1 3.7v3.5l.1 3.1v5.6l.1 2.5v2.5l.1 2.6v5.4l.1 2.9v6l.1 3.2v3.1l.1 3.2v6.5l.1 3.3v6.5l.1 3.3v-77h.9l.1 2.1v4.2l.1 2v2l.1 1.9v3.8l.1 1.9v3.7l.1 1.9v3.8l.1 1.9v1.8l.1 1.9v3.5l.1 1.6v2.9l.1 1.2v1.2l.1 1v1.9l.1.8v1.6l.1.8v1.5l.1.8v.7l.1.7v1.3l.1.6v.8l.1.2v.1l.1-.1v-.2l.1-.2v-.7l.1-.4v-.7l.1-.4v-.6l.1-.2v-.1.1l.1.2v.3l.1.4v1.4l.1.8v1.8l.1 1v2.1l.1.9v1.7l.1.6v.3l.1-.4v-.8l.1-1.3v-3.5l.1-1.8v-2.6l.1-.6v-.1.3l.1.6v1.7l.1 1v1.8l.1.6v.4l.1-.3v-1.5l.1-.9v-.9l.1-.7v-.6l.1.1v1l.1.7v1.8l.1.9v1.8l.1.8v1.4l.1.5v.8l.1.5v1l.1.6v1.5l.1.9v1.9l.1 1v2l.1 1v2.1l.1-76.8h1V142l.1 5.8v7.6l.1 3.1v5.8l.1 2.7v2.6-76.1h.6l.1 76.8v.5l.1-77.3h1.9v2.7l.1 1.3v2.9l.1 1.6v3.2l.1 1.7v3.3l.1 1.6v4.7l.1 1.4v2.5l.1 1.1v1.9l.1.9v1.7l.1.9v2.9l.1 1v1.8l.1.9v1.5l.1.8v2.7l.1 1.1v2.7l.1 1.6v3.3l.1 1.8v5.5l.1 1.9v3.8l.1 2v3.9l.1 2v2-76.6h1.6v1.6l.1 1.7v4.9l.1 1.5v2.6l.1 1v2.3l.1.4v.1-.2l.1-.5v-3.7l.1-1.8V100l.1-1.5v-2.2l.1-.1v.5l.1.5v2.2l.1.9v1.8l.1.9v2.7l.1.9v1.8l.1.8v2.4l.1.7v1.5l.1.8v2.6l.1.9v3.1l.1 1.1v2.3l.1 1v3l.1.8v1.5l.1.6v1.6l.1.4v.7h.1v-.2l.1-.3v-1l.1-.4V131l.1-.4v-.8l.1-.3v-.7l.1-.1v.2l.1.2v.6l.1.4v1.4l.1.6v1.8l.1.7v1.3l.1.6v1.9l.1.7v2.1l.1.8v1.4l.1.8v2.1l.1.7v2.2l.1.7v2.2l.1.7v1.2l.1.5v.9l.1.2v.1h.1v.2l.1.3v1.1l.1.5v1.2l.1.6v1.6l.1.4v.5h.1l.1.1v.4l.1.2v.2h.1v-.3l.1-.3v-.9l.1-.3v-.1l.1.2v1l.1.4v.8l.1.1v.2l.1-.1v-.6l.1-.3v-.5l.1-.2v.1l.1.3v1.1l.1.5v1.9l.1.7v2.4l.1.8v.8-77.2z"/><path fill="none" stroke="#ef4444" stroke-linejoin="round" stroke-width="1.5" d="m445.5 95.7 32.6 2.1 19.1 2.1 13.6 2.1 10.5 1.9 8.6 1.8 7.2 1.4 6.3 1 5.6.2 4.9-1.1 4.5-3.5 4.1-7.1 3.8-9.7 3.5-7.7 3.2-3.9 3.1-1.4 2.8.1 2.7 1 2.6 1.5 2.4 1.9 2.3 2 2.2 2.2 2.1 2.3 2 2.3 1.9 2.3 1.8 2.2 1.8 2.2 1.7 2.1 1.7 1.9 1.6 1.8 1.5 1.7 1.5 1.5 1.5 1.3 1.4 1 1.3.9 1.4.6 1.3.3 1.2.1h1.2l1.2-.2 1.2-.2 1.1-.2 1.1-.1 1.1.1 1.1.2 1 .3 1 .4 1 .4 1 .5.9.6 1 .6.9.8.9.8.9.9.8.9.9 1 .8.8.8.8.8.5.8.1.8-.2.8-.8.7-1.3.8-1.9.7-2.1.7-2 .7-1.5.7-.8.7-.3.7.3.6.6.7.9.7 1 .6 1 .6.9.7.8.6.7.6.5.6.3.6.2.6.1.5.1.6.1.6.3.5.3.6.6.5.6.6.9.5.9.5 1.1.5 1.1.6 1.1.5 1.3.5 1.2.5 1.3.5 1.4.4 1.4.5 1.4.5 1.5.5 1.6.4 1.6.5 1.7.5 1.8.4 1.9.5 1.9.4 1.9.5 2 .4 2 .4 2 .5 2 .4 2 .4 2 .4 2.1.5 2.1.4 2.2.4 2.3.4 2.4.4 2.5.4 2.6.4-152.3.4 2.8.3 2.9.4 3 .4 3.1.4 3.2.4 3.3.3 3.3.4 3.4.4 3.4.3 3.4.4 3.3.4 3.4.3 3.2.4 3.3.3 3.2.4 3.1.3 3.2.4 3.1.3 3 .3 3.1.4 3.1.3 3 .3 3 .4 3.1.3 3 .3 3.1.3 3.1.3 3.2.4 3.1.3 3.2.3 3.2.3 3.2.3 3.2.3 3.3.3 3.2.3 3.4.3 3.4.3 3.6.3 4 .3 4.7.3 6.2.3 9.5.3-139.1.3 18 .3 11.5.3 6.6.2 4.5.3 3.4.3 2.7.3 2.4.2 2 .3 1.8.3 1.5.3 1.2.2.9.3.6.3.3.2.1.3.1h.3l.2.1.3.1.2.4.3.4.3.5.2.7.3.7.2.8.3.8.2 1 .3 1 .2 1.1.2 1.2.3 1.3.2 1.4.3 1.4.2 1.5.3 1.5.2 1.6.2 1.5.3 1.5.2 1.5.2 1.5.3 1.4.2 1.5.2 1.3.2 1.4.3 1.3.2 1.2.2 1.2.2 1.2.3 1.1.2 1 .2 1.1.2 1 .3 1 .2.9.2 1 .2 1 .2 1 .2 1 .2 1.1.3 1.1.2 1.1.2 1.2.2 1.3.2 1.3.2 1.4.2 1.5.2 1.5.2 1.5.2 1.6.2 1.6.2 1.7.2 1.7.2 1.8.2 1.9.2 1.9.2 2 .2 2 .2 2.1.2 2.1.2 2.1.2 2.1.2 2.2.2 2.1.2 2.1.2-152.8.1 2.1.2 2.1.2 2 .2 2 .2 2 .2 2 .2 1.9.2 1.9.1 1.8.2 1.9.2 1.7.2 1.7.2 1.7.1 1.5.2 1.4.2 1.4.2 1.3.2 1.3.1 1.2.2 1.1.2 1.2.2 1.2.1 1.2.2 1.2.2 1.3.2 1.3.1 1.5.2 1.4.2 1.5.1 1.6.2 1.6.2 1.6.1 1.6.2 1.7.2 1.6.1 1.7.2 1.6.2 1.7.1 1.6.2 1.6.2 1.5.1 1.5.2 1.4.2 1.4.1 1.3.2 1.3.1 1.2.2 1.1.2.9.1.8.2.6.1.4.2.1.1-.1.2-.3.1-.5.2-.7.2-.7.1-.7.2-.7.1-.5.2-.3.1-.2h.2l.1.1.2.3.1.3.2.5.1.5.2.6.1.6.2.6.1.6.2.6.1.7.2.6.1.5.1.6.2.5.1.5.2.4.1.4.2.3.1.4.1.3.2.3.1.2.2.2.1.2.1.2h.2l.1.1h.3l.1-.1h.4l.2.1.1.1.2.2.1.2.1.3.2.3.1.4.1.4.2.5.1.7.1.7.2.7.1.9.1 1 .1 1 .2 1.1.1 1.1.1 1.2.2 1.2.1 1.2.1 1.2.1 1.3.2 1.2.1 1.2.1 1.3.2 1.2.1 1.3.1 1.2.1 1.2.2 1.2.1 1.3.1 1.2.1 1.2.2 1.1.1 1.2.1 1.1.1 1.2.2 1.1.1 1 .1 1.1.1 1 .1 1 .2 1 .1.9.1.9.1.9.1.9.2.9.1.8.1.8.1.8.1.7.2.7.1.6.1.5.1.5.1.5.1.4.2.4.1.3.1.3.1.2.1.2.1.2.2.2.1.1.1.2.1.2.1.3.1.2.1.3.1.4.2.3.1.4.1.4.1.4.1.4.1.5.1.5.1.5.2.6.1.6.1.7.1.6.1.7.1.7.1.7.1.7.1.8.1.9.1 1 .1 1.1.2 1.2.1 1.3.1 1.4.1-153.6.1 1.4.1 1.5.1 1.4.1 1.5.1 1.5.1 1.5.1 1.5.1 1.6.1 1.6.1 1.7.1 1.6.1 1.7.1 1.6.1 1.7.1 1.7.2 1.7.1 1.7.1 1.7.1 1.8.1 1.8.1 1.9.1 1.8.1 1.9.1 1.8.1 1.8.1 1.8.1 1.7.1 1.7.1 1.7.1 1.6.1 1.6.1 1.6.1 1.6.1 1.5.1 1.5.1 1.5.1 1.4.1 1.3.1 1.3.1 1.2.1 1.2.1 1.1.1 1.1v1l.1 1 .1.9.1.9.1.9.1.9.1.9.1 1 .1.9.1 1.1.1 1 .1 1 .1 1.1.1 1 .1.9.1 1 .1.9.1.8.1.9.1.8v.7l.1.7.1.6.1.6.1.5.1.5.1.5.1.5.1.5.1.5.1.6.1.6.1.6v.7l.1.7.1.7.1.7.1.7.1.7.1.8.1.7.1.8.1.7v.8l.1.8.1.8.1.8.1.9.1.9.1.9.1 1v.9l.1 1 .1 1.1.1 1 .1 1.1.1 1.1.1 1 .1 1.1v1.1l.1 1 .1 1 .1.9.1.9.1.7.1.6v.4l.1.1.1-.4.1-.9.1-2.1.1-4 .1-6.9v-9.6l.1-8.8.1-5.8.1-3.1.1-1.6.1-.7v-.1l.1.2.1.5.1.6.1.8.1.8v.8l.1.8.1.7.1.6.1.4v.3l.1.2.1.2h.3v-.1h.2l.1.1.1.1v.2l.1.3.1.4.1.4.1.5v.5l.1.5.1.5.1.4.1.5v.4l.1.5.1.4.1.4.1.5v.5l.1.5.1.6.1.7v.7l.1.9.1.8.1 1 .1 1v1.1l.1 1.1.1 1.1.1 1.2v1.2l.1 1.2.1 1.2.1 1.1v1.2l.1 1.2.1 1.1.1 1.1v1.1l.1 1.1.1 1 .1 1v.9l.1.8.1.8.1.8v.6l.1.6.1.4.1.2v.1h.1l.1-.2.1-.3v-.4l.1-.4.1-.4.1-.4v-.3l.1-.3.1-.2.1-.2v-.1l.1-.1.1-.1v-.1h.2l.1.1v.1l.1.1.1.1v.2l.1.2.1.2.1.1v.2h.2v-.1l.1-.2.1-.2.1-.3v-.3l.1-.3.1-.3v-.3l.1-.2.1-.3v-.1l.1-.2.1-.2.1-.2v-.1l.1-.2.1-.1v-.1h.1l.1-.1v-.1l.1-.1.1-.1v-.2l.1-.2.1-.3.1-.3v-.3l.1-.3.1-.2v-.2l.1-.1.1-.1v.1l.1.2.1.3v.3l.1.4.1.5v.4l.1.6.1.5v.6l.1.6.1.6v.5l.1.6.1.5v.5l.1.5.1.4v.4l.1.3.1.3v.3l.1.2.1.1v.1l.1.2.1.1v.1l.1.2.1.2v.3l.1.3v.4l.1.4.1.5v.5l.1.5.1.5v.4l.1.3.1.3v.1l.1.1h.1v-.1h.1v-.1l.1-.1.1-.2v-.1l.1-.1h.2v.2l.1.2.1.3v.4l.1.5.1.5v.5l.1.6v.6l.1.6.1.5v.6l.1.6.1.6v.5l.1.5v.5l.1.5.1.5v.4l.1.4v.4l.1.4.1.4v.3l.1.4v.3l.1.4.1.4v.4l.1.4.1.5v.5l.1.4v.5l.1.3.1.3v.1l.1-.1v-.2l.1-.4v-.4l.1-.6.1-.4v-.4l.1-.2v-.1l.1.2.1.3v.5l.1.7v.8l.1.9.1.9v1l.1 1v1.1l.1 1v.9l.1 1 .1.9V16.6l.1.8v.7l.1.7.1.5v.5l.1.2.1-.2v-.5l.1-.7.1-.8v-.9l.1 154.1v-.9l.1-.7v-.5l.1-.5.1-.3v-.2l.1-.2v-.2l.1-.1v-.2l.1-.3.1-.2v-.2l.1-.2v-.2l.1-.1v-.2l.1-.1v-.1l.1-.1h.1v.1l.1.1v.3l.1.4v.5l.1.6v.8l.1.8.1 1V16.2l.1 1.1v1.2l.1 1.1v1.1l.1 1.1v1l.1.9v.7l.1.5.1.4v.2h.1v-.2l.1-.1V25h.1v.2l.1.3v.6l.1.7.1.8v1l.1 1.1v1l.1.6v-2.2l.1 94.7v-4.3l.1.9v1.6l.1 1.9v2l.1 2v2l.1 2v1.8l.1 1.7.1 1.5v1.3l.1 1v.7l.1.6v.4l.1.3v.5l.1.7v.8l.1 1v1.1l.1 1.1v1.1l.1 1v.7l.1.3v-.3l.1-1v-2l.1-2.9v-3.6l.1-3.6.1-3v-2.3l.1-1.4v-.9l.1-.3.1.3v.4l.1.6v.7l.1.8v.7l.1.7v.5l.1.4v.3l.1.1v.1h.1l.1.1v.2l.1.3v.4l.1.4v.5l.1.3v.3l.1.1v-.1l.1-.4v-.6l.1-.7v-.9l.1-.7v-.6l.1-.4.1.2v.4l.1.6v.6l.1.8v.7l.1.8v.7l.1.7v.7l.1.7v.8l.1.8v1.8l.1 1v1l.1 1.1v1l.1 1.1v1l.1 1v1l.1.9v.8l.1.7v.7l.1.6v.5l.1.6v.5l.1.6v.7l.1.7v.8l.1.9v1.1l.1 1.1v2.4l.1 1.3v1.4l.1 1.3v1.4l.1 1.4V17.2l.1 1.2v1.1l.1.9v.7l.1.3.1-.6v-1.1l.1-1.7v152.8-2.5l.1-2.6v-2.4l.1-2.3v-2l.1-1.7V156l.1-.9v-.5l.1-.2v.2l.1.4v1.3l.1.9v.9l.1.9v.9l.1.8v.9l.1.8v.7l.1.7v.8l.1.8v1.8l.1 1v1.2l.1 1.2V16.9l.1 1.4v1.3l.1 1.4v1.2l.1 1.2v2.1l.1.8v.6l.1.3v.1l.1-.4v-.8l.1-1.3v-3.6l.1-1.9v-1.5l.1-1v-.7l.1 154.8v.1l.1-154.8v.8l.1.5v.5l.1.5v.6l.1.6v.7l.1.8V23l.1 1.1v1.1l.1 1.2v1.3l.1 1.4v3.3l.1 1.7v1.8l.1 1.8v1.8l.1 1.7v3l.1 1.4v1.3l.1 1.4v1.6l.1 1.8v5l.1 3.4v4.3l.1 5.5V77l.1 9.3v21.4l.1 8.6v6.6l.1 5.2v4.3l.1 3.8v6.8l.1 3.1v3.1l.1 2.9v2.8l.1 2.5v3.9l.1 1.2v.3l.1-.4V161l.1-2.1v-4l.1-1.1v-.3l.1.4v2.4l.1 1.7v2l.1 2.1v2.2l.1 2.3v2.3V16.3l.1 2.4v2.5l.1 2.6v5.4l.1 2.9v3l.1 3.2V42l.1 4.5v20.8l.1 27.1V111l.1 7.7v9.1l.1 3.7v3.4l.1 3.2v5.9l.1 2.7v2.6l.1 2.3v4.1l.1 1.6v1.3l.1.8v.2-.6l.1-1.2V156l.1-2v-2.7l.1-.4v.2l.1.6v1.9l.1 1.2v1.1l.1 1.2v2.4l.1 1.3v1.3l.1 1.4v3l.1 1.6v1.7l.1-153.2v3.8l.1 2v2.1l.1 2.2v4.9l.1 2.6v2.7l.1 3v6.5l.1 3.6v3.8l.1 4.1v8.8l.1 4.8v9.7l.1 4.8v4.7l.1 4.6v8.3l.1 3.7v3.5l.1 3.1v5.6l.1 2.5v2.5l.1 2.6v5.4l.1 2.9v6l.1 3.2v3.1l.1 3.2v6.5l.1 3.3v6.5l.1 3.3V18.9l.1 3.4v7l.1 3.5v3.6l.1 3.6v7.1l.1 3.4v6.7l.1 3.2v3.1l.1 3.1v5.9l.1 2.9V81l.1 2.6v2.6l.1 2.5v4.7l.1 2.2v4.2l.1 2v2l.1 1.9v3.8l.1 1.9v3.7l.1 1.9v3.8l.1 1.9v1.8l.1 1.9v3.5l.1 1.6v2.9l.1 1.2v1.2l.1 1v1.9l.1.8v1.6l.1.8v1.5l.1.8v.7l.1.7v1.3l.1.6v.8l.1.2v.1l.1-.1v-.2l.1-.2v-.7l.1-.4v-.7l.1-.4v-.6l.1-.2v-.1.1l.1.2v.3l.1.4v1.4l.1.8v1.8l.1 1v2.1l.1.9v1.7l.1.6v.3l.1-.4v-.8l.1-1.3v-3.5l.1-1.8v-2.6l.1-.6v-.1.3l.1.6v1.7l.1 1v1.8l.1.6v.4l.1-.3v-1.5l.1-.9v-.9l.1-.7v-.6l.1.1v1l.1.7v1.8l.1.9v1.8l.1.8v1.4l.1.5v.8l.1.5v1l.1.6v1.5l.1.9v1.9l.1 1v2l.1 1v2.1l.1-154v2.1l.1 1.1v2.3l.1 1.2v2.4l.1 1.3v2.6l.1 1.5v3.1l.1 1.7v3.7l.1 2v4.3l.1 2.2v4.8l.1 2.5v5.6l.1 3.3v10l.1 15.3V142l.1 5.8v7.6l.1 3.1v5.8l.1 2.7v2.6V17.1l.1 2.5v4.7l.1 2.2v4.2l.1 1.9v3l.1 1v.4-.5l.1-1.8v-8l.1-4.8v-5.7l.1 154.1v.5l.1-154.1v2.5l.1 1.5v5l.1 1.7v3.7l.1 1.9v3.7l.1 1.9v3.6l.1 1.8v3.3l.1 1.6v2.9l.1 1.3v2.5l.1 1.1v2.2l.1 1.1v3.2l.1 1.2v2.3l.1 1.1v2.1l.1 1.1v2.1l.1 1.1v2.3l.1 1.2v3.8l.1 1.3v2.5l.1 1.2v2.1l.1.8v1.4l.1.6v1.2l.1.7v2.9l.1 1.3v2.9l.1 1.6v3.2l.1 1.7v3.3l.1 1.6v4.7l.1 1.4v2.5l.1 1.1v1.9l.1.9v1.7l.1.9v2.9l.1 1v1.8l.1.9v1.5l.1.8v2.7l.1 1.1v2.7l.1 1.6v3.3l.1 1.8v5.5l.1 1.9v3.8l.1 2v3.9l.1 2v2-153 2l.1 2.1v4l.1 2.1v4.1l.1 2v6.1l.1 2v3.9l.1 1.9v3.8l.1 1.8v5.5l.1 1.8v3.6l.1 1.7v4.8l.1 1.4V74l.1.9v1l.1.2.1.1v.6l.1.5v2.6l.1 1.1v2.6l.1 1.5v4.8l.1 1.7v3.5l.1 1.7v4.9l.1 1.5v2.6l.1 1v2.3l.1.4v.1-.2l.1-.5v-3.7l.1-1.8V100l.1-1.5v-2.2l.1-.1v.5l.1.5v2.2l.1.9v1.8l.1.9v2.7l.1.9v1.8l.1.8v2.4l.1.7v1.5l.1.8v2.6l.1.9v3.1l.1 1.1v2.3l.1 1v3l.1.8v1.5l.1.6v1.6l.1.4v.7h.1v-.2l.1-.3v-1l.1-.4V131l.1-.4v-.8l.1-.3v-.7l.1-.1v.2l.1.2v.6l.1.4v1.4l.1.6v1.8l.1.7v1.3l.1.6v1.9l.1.7v2.1l.1.8v1.4l.1.8v2.1l.1.7v2.2l.1.7v2.2l.1.7v1.2l.1.5v.9l.1.2v.1h.1v.2l.1.3v1.1l.1.5v1.2l.1.6v1.6l.1.4v.5h.1l.1.1v.4l.1.2v.2h.1v-.3l.1-.3v-.9l.1-.3v-.1l.1.2v1l.1.4v.8l.1.1v.2l.1-.1v-.6l.1-.3v-.5l.1-.2v.1l.1.3v1.1l.1.5v1.9l.1.7v2.4l.1.8v.8"/></g><path stroke="#d1d5db" d="M34 221v155m0-77.5h358"/><text x="213" y="402" fill="#6b7280" font-size="9" text-anchor="middle">Hz</text><text x="12" y="298.5" fill="#6b7280" font-size="9" text-anchor="middle" transform="rotate(-90 12 298.5)">Delay (smp)</text><path stroke="#e5e7eb" stroke-width=".5" d="M66.6 221v155m19.1-155v155m13.6-155v155m10.5-155v155m8.6-155v155m7.3-155v155m6.2-155v155m5.6-155v155m37.6-155v155m19.1-155v155m13.5-155v155m10.6-155v155m8.5-155v155m7.3-155v155m6.3-155v155m5.5-155v155m37.6-155v155m19.1-155v155m13.6-155v155m10.5-155v155m8.6-155v155m7.3-155v155m6.2-155v155m5.6-155v155M392 221v155M142.5 221v155"/><text x="142.5" y="388" fill="#6b7280" font-size="8" text-anchor="middle">100</text><path stroke="#e5e7eb" stroke-width=".5" d="M250.9 221v155"/><text x="250.9" y="388" fill="#6b7280" font-size="8" text-anchor="middle">1k</text><path stroke="#e5e7eb" stroke-width=".5" d="M359.4 221v155"/><text x="359.4" y="388" fill="#6b7280" font-size="8" text-anchor="middle">10k</text><path stroke="#e5e7eb" stroke-width=".5" d="M34 376h358"/><text x="30" y="379" fill="#6b7280" font-size="8" text-anchor="end">-100</text><path stroke="#e5e7eb" stroke-width=".5" d="M34 337.3h358"/><text x="30" y="340.3" fill="#6b7280" font-size="8" text-anchor="end">-50</text><text x="30" y="301.5" fill="#6b7280" font-size="8" text-anchor="end">0</text><path stroke="#e5e7eb" stroke-width=".5" d="M34 259.8h358"/><text x="30" y="262.8" fill="#6b7280" font-size="8" text-anchor="end">50</text><path stroke="#e5e7eb" stroke-width=".5" d="M34 221h358"/><text x="30" y="224" fill="#6b7280" font-size="8" text-anchor="end">100</text><g clip-path="url(#f)"><path fill="url(#g)" d="M37.5 298.5v-44.2l32.6.6 19.1 1 13.6 1.8 10.5 3.1 8.6 4.9 7.2 7.9 6.3 12.7 5.6 12.2h27.1l2.8-11.4 2.7-14.2 2.6-8.8 2.4-5.6 2.3-3.6 2.2-2 2.1-1 2-.2 1.9.6 1.8 1.1 1.8 1.7 1.7 2.1 1.7 2.6 1.6 3.1 1.5 3.4 1.5 3.8 1.5 4.2 1.4 4.6 1.3 4.8 1.4 5 1.3 4.9 1.2 4.4 1.2.5h4.6l1.1-2.8 1.1-2.5 1-1.9 1-1.4 1-1.1 1-1.2.9-1.4 1-1.8.9-1.9.9-1.7.9-1.2.8-.4.9.8.8 2.2.8 3.7.8 5.7.8 6.9h5.9l.7-.2.7-9.1.6-6.1.7-3.6.7-1.3.6.5.6 1.8.7 2.8.6 3.3.6 3.5.6 3.1.6 2.3.6 1.1.5-.2.6-1.5.6-2.5.5-3.1.6-3.2.5-3.1.6-2.7.5-2.2.5-1.7.5-1.4.6-1.1.5-.8.5-.8.5-.8.5-.9.4-1 .5-1.1.5-1.4.5-1.5.4-1.6.5-1.5.5-1.5.4-1.2.5-.9.4-.6.5-.3.4-.1.4-.1.5-.1.4-.4.4-.6.4-1 .5-1.5.4-1.7.4-1.9.4-2.1.4-2.2.4-2.2.4-2.2.4-2.1.3-2.1.4-2 .4-1.9.4-1.6.4-1.4.3-.9.4-.6.4-.1.3.3.4.6.4.8.3.9.4.9.3.8.4.7.3.5.4.5.3.4.3.3.4.2.3.1.3-.1.4-.2.3-.3.3-.4.3-.5.3-.6.4-.4.3-.4.3-.3.3-.3.3-.4.3-.5.3-.9.3-1.7.3-3 .3-5.2h2.6l.3 14.7.3 10.4.3 7.2.2 6 .3 5.7.3 5.9.3 6.2.2 6.2.3 5.8.3 4.7.2 3.1.3 1.2.3-.6.2-1.7.3-2.5.2-2.6.3-2.3.3-2.1.2-1.7.3-1.5.2-1.4.3-1.5.2-1.7.3-1.8.2-1.9.2-2 .3-1.7.2-1.5.3-1.2.2-.7.3-.4.2-.1.2.2.3.3.2.4.2.5.3.5.2.6.2.7.2.9.3 1 .2 1.1.2 1.1.2 1 .3.9.2.8.2.6.2.4.3.2h.2l.2-.1.2-.2.2-.4.2-.6.2-.7.3-.9.2-1 .2-1.2.2-1.3.2-1.3.2-1.2.2-1.2.2-1 .2-.9.2-.9.2-.9.2-1 .2-1.2.2-1.2.2-1.3.2-1.3.2-1.1.2-1 .2-.7.2-.5.2-.4.2-.2h.4l.2.2.2.3.1.4.2.6.2.6.2.7.2.7.2.7.2.6.2.6.1.8.2.9.2 1.1.2 1.5.2 1.6.1 1.8.2 1.8.2 1.6.2 1.3.2 1.1.1.6.2.3h.2l.2-.4.1-.6.2-.9.2-1.1.2-1.2.1-1.2.2-1.1.2-.9.1-.8.2-.7.2-.4.1-.4.2-.2h.2l.1.1.2.2.2.5.1.6.2.8.2.8.1.9.2 1 .2 1.1.1 1.3.2 1.5.1 2 .2 2.4.2 3 .1 3.6.2 4.2.1 4.5.2 4.9.1.5h1.4l.2-1.1.1-2.9.2-2.4.1-2 .2-1.6.1-1.1.2-.9.1-.5.2-.3.1-.1.2.1.1.2.2.5.1.6.1.7.2.9.1.8.2.8.1.7.2.6.1.5.1.4.2.6.1.6.2.8.1.9.1.9.2 1 .1.8.2.5h.4l.1-.2.1-.8.2-.9.1-1 .2-1 .1-1 .1-1.1.2-1.2.1-1.4.1-1.4.2-1.6.1-1.8.1-1.7.2-1.8.1-1.7.1-1.6.1-1.3.2-1.2.1-.9.1-.7.2-.5.1-.3.1-.2.1-.1h.4l.2.1h.1l.1.1.1.1.2.1.1.2.1.2.1.3.2.3.1.4.1.4.1.5.2.5.1.6.1.5.1.5.1.5.2.5.1.4.1.3.1.4.1.5.2.5.1.7.1.8.1.9.1 1 .2 1.1.1 1.2.1 1.1.1 1 .1 1 .1.8.2.9.1.8.1.8.1.7.1.6.1.5.2.2.1-.1.1-.4.1-.6.1-.7.1-.7.1-.5.1-.5.2-.4.1-.4.1-.4.1-.5.1-.7.1-.8.1-.8.1-.8.2-.7.1-.5.1-.4.1-.2.1-.3.1-.4.1-.6.1-1 .1-1.5.1-1.9.1-2.2.1-2.1.2-2.1.1-1.6.1-1.3.1-.8.1-.4.1-.2.1-.1.1-.2.1-.4.1-.6.1-.7.1-.7.1-.6.1-.4.1-.2.1-.1.1-.1.1-.2.1-.3.2-.5.1-.7.1-.7.1-.6.1-.5.1-.3.1-.1.1.2.1.5.1.6.1.7.1.8.1.8.1.6.1.5.1.5.1.4.1.6.1.6.1.8.1 1 .1 1.2.1 1.1.1 1.2.1 1.2.1 1.1.1 1.1.1 1v1l.1 1 .1.7.1.4.1.1.1-.3.1-.6.1-.8.1-.6.1-.5.1-.2.1.1.1.4.1.5.1.6.1.7.1.7.1.8.1.8.1 1v1.1l.1 1.2.1 1.1.1.9.1.7.1.4.1.1.1-.2.1-.4.1-.5.1-.6.1-.7.1-.6v-.5l.1-.5.1-.4.1-.3.1-.2.1-.1.1-.1.1-.1.1-.2.1-.2v-.3l.1-.4.1-.4.1-.6.1-.6.1-.6.1-.6.1-.6v-.5l.1-.5.1-.4.1-.4.1-.3.1-.2h.1l.1.1v.4l.1.8.1 1.1.1 1.6.1 2.1.1 2.7.1 3.6v4.8l.1 4.9h1v-1l.1-6.3.1-4.3.1-2.9.1-1.6.1-.6v.4l.1 1.3.1 2 .1 2.5.1 2.6v2.5l.1 2.1.1 1.7.1 1.2.1.4h.2l.1-.6.1-1.3.1-1.6v-1.7l.1-1.6.1-1.4.1-1.1.1-.6v-.3l.1.1.1.2.1.3.1.4v.3l.1.2.1-.1.1-.3.1-.6v-.9l.1-1.1.1-1.3.1-1.5v-1.5l.1-1.4.1-1.4.1-1.2.1-1.2v-1l.1-.8.1-.7.1-.4v-.3l.1-.1.1.1.1.2v.3l.1.4.1.4.1.6v.6l.1.7.1.9.1.9v1.1l.1 1.2.1 1.4.1 1.7v2l.1 2.4.1 2.8.1 3.1v3.2l.1.5h1.1l.1-.6.1-.6v-.8l.1-.7.1-.6v-.4l.1-.2.1.2.1.7v1.1l.1 1.4.1.5h2.2l.1-.7v-2l.1-1.8.1-1.7V291l.1-1.2.1-.9v-.8l.1-.7.1-.4v-.3l.1-.1.1.1v.3l.1.4.1.6v.6l.1.7.1.8v.8l.1 1 .1 1.1v1.1l.1.9.1.7v.4h.1l.1-.3v-.6l.1-.8.1-1v-1l.1-1.2v-1.1l.1-.9.1-.7v-.2l.1.2.1.9v1.3l.1 1.8.1 1.9v1.9l.1 1.6.1.6h.5v-.4l.1-1.6v-1.8l.1-1.8.1-1.7v-1.5l.1-1.1.1-.9v-.6l.1-.4v-.2h.2v.1l.1.2.1.4v.4l.1.4v.5l.1.5.1.5v.4l.1.3v.4l.1.2.1.3v.1h.1v-.1l.1-.2.1-.5v-.5l.1-.6.1-.4v-.1l.1.5v1.1l.1 1.9.1 2.5v3.1l.1.6h.4v-1l.1-4 .1-3.7v-3.4l.1-2.8v-2.3l.1-1.7.1-1.2v-.6l.1-.2v.1l.1.4v.6l.1.8.1.8v1l.1 1.2v1.6l.1 1.9.1 2.6v3.3l.1 4.1v2.5h1.5l.1-.5v-1.5l.1-2v-2.3l.1-2.6v-2.7l.1-2.8v-2.6l.1-2.2.1-1.9V276l.1-.8v-.2l.1.3v.9l.1 1.4v2l.1 2.5v3.2l.1 3.7.1 4v3.8l.1 1.7h.1l.1-1.4v-3.9l.1-3.9v-3.8l.1-3.2.1-2.7v-1.9l.1-.3v4.1l.1 17h.1l.1-26v-10.1l.1-3.7v-1.5l.1-.2v.8l.1 1.7v2.7l.1 3.6.1 4.5v5.1l.1 5.3v4.8l.1 3.5v1.5l.1-.8v-2.5l.1-3.6V280l.1-3v-1.6h.1v1.9l.1 4.1v6.8l.1 10v.3h.6v-2.7l.1-4.7v-3.5l.1-2.4v-1.5l.1-.3v.7l.1 1.8v2.6l.1 3v2.9l.1 2.3v1.4l.1.1v-1l.1-1.7v-2l.1-1.9v-1.4l.1-.6v.5l.1 1.7v2.8l.1 3.9h.4v-1.4l.1-4.9v-3.9l.1-2.8v-1.6l.1-.7.1.4v.4l.1.3v-.2l.1-.6v-1l.1-1.3v-2.6l.1-.9v-.7l.1-.3.1.3v.6l.1.9v1.2l.1 1.4v1.6l.1 1.6v1.4l.1 1.1v.5l.1.1v-.6l.1-1.1v-1.5l.1-1.7v-1.9l.1-1.9v-1.8l.1-1.8v-2.9l.1-1v-.7l.1-.3v.2l.1.7v1.4l.1 2.2v3.2l.1 4.4v5.9l.1 7.7v2.6h.7v-5.6l.1-4.7v-6l.1-1.5v-.7l.1-.1v.5l.1.7v.9l.1.8v.6h.1v-.6l.1-1.2v-3.7l.1-2.1v-1.9l.1-1.5v-1l.1-.4v.2l.1.8v1.4l.1 1.8v5.2l.1 3.6v4.5l.1 5.9v4.1h.5v-3.2l.1-3.3v-2.8l.1-.6v-.5l.1-.8v-1.1l.1-1.4v-1.6l.1-1.6v-3.2l.1-1.7v-1.8l.1-2.2v-2.4l.1-2.5v-4.4l.1-1.4v-.5l.1.4v1.2l.1 2v4.4l.1 1.3v-.3l.1-2.4v-4.6l.1-6.9v-21.1l.1-14.5h.4l.1 3.1v8.2l.1 2.4v2.4l.1 3v4.3l.1 5.9v18.8l.1 13.8v15.6h.3v-1.1l.1-13.4v-18.1l.1-5.5v-3.7l.1-2.4v-1.6l.1-1.1v-2.1l.1-1.4v-1.6l.1-1.8v-4l.1-2.5v-3.7l.1-6.4V221h.3l.1 5.6v4.4l.1 3.4v6.6l.1 3.5v3.7l.1 4.2v10l.1 6.6v8.5l.1 10.9v10.1h.3v-8.1l.1-7v-6.9l.1-1.3v-.6l.1-.4v-1.1l.1-1.1v-1.3l.1-1.4v-3.2l.1-1.6v-1.6l.1-1.6v-3.4l.1-1.9v-2l.1-2.2v-5.3l.1-3.2v-3.5l.1-3.8v-8.8l.1-4.7V221h.4l.1 4.1v6.1l.1 5.7v7.9l.1 1.6v.1l.1-1.2v-4.4l.1-2.3V235l.1-1.2v-.8l.1-.4v-.5l.1-.3v-.9l.1-.8v-.9l.1-1.1v-2l.1-.7v-.2l.1.2v1.8l.1 1.4v3.4l.1 1.6v1.5l.1 1.3v2.4l.1 1.3v2.9l.1 1.7v1.9l.1 1.9v3.9l.1 1.7v2.8l.1 1v.8l.1.5v.6l.1.1v.1-.1h.1v.1l.1.2v.5l.1.8v2.9l.1 2v4.9l.1 2.6v2.3l.1 2v2.6l.1.7v.9l.1.2v.4l.1.2v.4l.1.6v2.3l.1 1.8v4.5l.1 2.3v3.4h.5v-2.1l.1-2.9v-3l.1-2.9v-4.8l.1-1.8v-2.5l.1-.7v-.1.4l.1 1.2v5.4l.1 4.5v9.3h.4v-9.3l.1-5.4v-5l.1.1v5l.1 4.8v9.8h.3l.1-5.1V285l.1-2.8v-2.9l.1-.1v2l.1 1.8v4l.1 1.6v1.3l.1-.5v-2.7l.1-1.9v-3.5l.1-1.5v-1.7l.1-.3v-.1.1l.1.1v-.3l.1-.4V276l.1-.5v-.9l.1-.3v-1l.1-.8v-2.6l.1-1.7v-3.9l.1-2v-3.8l.1-1.9v-3.4l.1-1.6v-3.9l.1-2.7v-9.7l.1-11.2V221h.2v9.7l.1 5.3v6l.1 2v3.4l.1 1.5v3.1l.1 1.8v4.8l.1 3.6v12l.1 10.4v13.9h.3v-15l.1-6.3v-7.5l.1-2.4v-4.6l.1-1v-1.2l.1-.3v-.1.1l.1.4v1.5l.1 1.1v2.7l.1 1.5v2.9l.1 1.4v2.6l.1 1.1v1.3l.1.1v-1.3l.1-.4v-.1.2l.1.5v1.2l.1.3v-.6l.1-.8v-1.9l.1-.8v-1l.1.2v1.6l.1 1.5v4.1l.1 2.4v4l.1.9v-1.7l.1-2.2v-9.2l.1-2.7v-3.9l.1-1.2v-1.1l.1-.1v.3l.1.5v3.1l.1 1.8v4.4l.1 2.2v3.3l.1.7v-.6l.1-.8v-1.2l.1.4v1.9l.1 1.1v1.1l.1-.5v-5.9l.1-2.8v-5.5l.1-2.3v-3.2l.1-1v-1.5l.1-.3v-.8l.1-.4v-.8l.1-.4v-.6l.1-.1v-.2h.1l.1.1v.9l.1.4v1l.1.4v.8l.1.4v.8l.1.3v1.1l.1.8v4.9l.1 2.8v7.7l.1 4.6v9.1l.1 3.5v2.3-.9l.1-2.3V289l.1-3.3v-8.9l.1-2.6v-4.6l.1-1.9v-4l.1-.6v-.3.2l.1.5v4.1l.1 2.1v5.2l.1 2.9v11l.1 4.8v4.9h.3l.1-.2v-8.6l.1-3.1v-5.3l.1-.8v-.8l.1-.1v.4l.1.3v.9l.1.4v1.3l.1.2v-.3l.1-.5v-2.6l.1-1.1v-2.5l.1-.3v.3l.1.6v3.7l.1 1.5v3l.1 1.3v3.6l.1 1.4v5.4l.1 1.9h.5v-3.4l.1-1.3v-2.5l.1-1.1v-2.8l.1-.7v-1.3l.1-.2.1.1v-.3l.1-.4v-1l.1-.2v.1l.1.2v.4l.1-.1v-.5l.1-.1v.9l.1.8v2.5l.1 1.7v5.3l.1 1.5v2.2l.1-.2V295l.1-1.6v-5l.1-1.3v-1.2l.1.2v4l.1 2.1v5.3l.1.8v.1-1.1l.1-.8v-1.3l.1.4v1.7l.1 1.2h.2v-2.9l.1-2v-2.4l.1.4v3.1l.1 1.2v2.6h.3v-3.9l.1-1.8v-4l.1-1.2v-3.4l.1-.9v-1.5h.1v16.7z"/><path fill="url(#h)" d="M37.5 298.5h97.9l5.6 9.2 4.9 37.4 4.5 30.9h11.4l3.2-23.6 3.1-41.5 2.8-12.4h37.9l1.2 2.7 1.2 1.6 1.2-.1 1.1-1.6 1.1-2.6h14.9l.8.7.8 9.8.8 11.3.7 11 .8 7.7.7 1.2.7-6.2.7-11.2.7-12.9.7-11.4h69.4l.1 4.2.2 4.4.1 3.4.2 2.1.2.7.1-.9.2-2.1.1-2.9.2-3.4.1-3.4.2-2.1h4l.2.2.1.3.1.1.2-.3.1-.3h22.1l.1 2.2.1 10.9.1 18 .1 30.9.1 15.5h.3l.1-28.9.1-25.1.1-15v-8.5h1.2l.1.3.1.4v-.1l.1-.4.1-.2h3.9l.1 2.5.1 2.5.1 1.8v1.1l.1.2.1-.3.1-.7v-.9l.1-.9.1-1 .1-.9v-.8l.1-.7.1-.7v-.6l.1-.6h.8l.1 1.1v1.7l.1 1.6.1 1.2.1.8v.2l.1-.3.1-.5v-.7l.1-.6.1-.4v-.2l.1-.1.1-.1.1-.3v-.4l.1-.5.1-.6v-.4l.1-.2.1.1v.4l.1.8.1.8v.9l.1.9.1.6.1.3.1-.6.1-1v-1.4l.1-1.8.1-1.3h2.8l.1.6v.8l.1.4v.3l.1.1h.1v-.2l.1-.4.1-.8v-.8h2.4l.1 2.8v3.2l.1 2.6v1.5h.1l.1-1.3v-2.5l.1-3.5v-2.8h1.3v2.1l.1 4.9v4.7l.1 3.9.1 2.5v.7l.1-.9v-2.2l.1-2.8v-2.9l.1-2.6.1-1.9v-1.2l.1-.6.1.2v.4l.1.2h.1v-.2l.1-.3v-.5l.1-.4v-.4l.1-.5v-.7l.1-.8.1-.7h1.1l.1 1.4v1.8l.1.1v-1.7l.1-1.6h.4l.1 16.4V376h.1v-42.2l.1-35.3h1.3v13.4l.1 17.4v19.3l.1 16.3v7l.1-5.2.1-13.9v-16.4l.1-14.6v-11.3l.1-8.4v-3.6h1.1l.1.1v4.8l.1 4.9v4.2l.1 2.4v.1l.1-2.5v-4.4l.1-5.5v-4.1h2.5v6.8l.1 10.8v11.4l.1 10.5v12.2l.1.2v-2.9l.1-5.1V336l.1-7.3v-7.8l.1-7.9v-7.5l.1-6.8v-.2h1.4v3.3l.1 8.9v9.7l.1 9v7.3l.1-4.1v-7.7l.1-9.1v-8.6l.1-6.9v-1.8h2.4v1.1l.1 18.1v15.8l.1 8.6v-13.3l.1-15.7v-14.6h1.7v18.2l.1 13.2v7.2l.1-1.7V313l.1-12.6v-1.9h5v1l.1 1.8v1.6l.1 1.3v1.8l.1.4v-.3l.1-.7v-2.3l.1-1.8v-2.8h.6v3.9l.1 8.6v9.1l.1 8.4v7.6l.1-3.2v-17.2l.1-10.1v-7.1h.3v2.7l.1 6.6v8.9l.1.5v-2.4l.1-4.5v-11.4l.1-.4h2.7V322l.1 29.1V376h.1v-46.6l.1-21.6v-9.3h4.8v.2-.2h.9v7.2l.1 7.3v19.7l.1 2.3v-5l.1-5.9v-20.2l.1-5.4h1.3l.1.3v3.9l.1 1.5v2.6l.1.3v.2-.1l.1-.3v-1.2l.1-1v-3.9l.1-1.4v-.9h2.1l.1.1v4.5l.1 1.2v.7-.9l.1-1.5v-4.1h.3v.8l.1 1.4v3.4l.1.2v-1.7l.1-1.8v-2.3h.4z"/><path fill="none" stroke="#22c55e" stroke-linejoin="round" stroke-width="1.5" d="m37.5 254.3 32.6.6 19.1 1 13.6 1.8 10.5 3.1 8.6 4.9 7.2 7.9 6.3 12.7 5.6 21.4 4.9 37.4 4.5 30.9m11.4 0 3.2-23.6 3.1-41.5 2.8-23.8 2.7-14.2 2.6-8.8 2.4-5.6 2.3-3.6 2.2-2 2.1-1 2-.2 1.9.6 1.8 1.1 1.8 1.7 1.7 2.1 1.7 2.6 1.6 3.1 1.5 3.4 1.5 3.8 1.5 4.2 1.4 4.6 1.3 4.8 1.4 5 1.3 4.9 1.2 4.4 1.2 3.2 1.2 1.6 1.2-.1 1.1-1.6 1.1-2.6 1.1-2.8 1.1-2.5 1-1.9 1-1.4 1-1.1 1-1.2.9-1.4 1-1.8.9-1.9.9-1.7.9-1.2.8-.4.9.8.8 2.2.8 3.7.8 5.7.8 7.6.8 9.8.8 11.3.7 11 .8 7.7.7 1.2.7-6.2.7-11.2.7-12.9.7-11.6.7-9.1.6-6.1.7-3.6.7-1.3.6.5.6 1.8.7 2.8.6 3.3.6 3.5.6 3.1.6 2.3.6 1.1.5-.2.6-1.5.6-2.5.5-3.1.6-3.2.5-3.1.6-2.7.5-2.2.5-1.7.5-1.4.6-1.1.5-.8.5-.8.5-.8.5-.9.4-1 .5-1.1.5-1.4.5-1.5.4-1.6.5-1.5.5-1.5.4-1.2.5-.9.4-.6.5-.3.4-.1.4-.1.5-.1.4-.4.4-.6.4-1 .5-1.5.4-1.7.4-1.9.4-2.1.4-2.2.4-2.2.4-2.2.4-2.1.3-2.1.4-2 .4-1.9.4-1.6.4-1.4.3-.9.4-.6.4-.1.3.3.4.6.4.8.3.9.4.9.3.8.4.7.3.5.4.5.3.4.3.3.4.2.3.1.3-.1.4-.2.3-.3.3-.4.3-.5.3-.6.4-.4.3-.4.3-.3.3-.3.3-.4.3-.5.3-.9.3-1.7.3-3 .3-5.2m2.6 0 .3 14.7.3 10.4.3 7.2.2 6 .3 5.7.3 5.9.3 6.2.2 6.2.3 5.8.3 4.7.2 3.1.3 1.2.3-.6.2-1.7.3-2.5.2-2.6.3-2.3.3-2.1.2-1.7.3-1.5.2-1.4.3-1.5.2-1.7.3-1.8.2-1.9.2-2 .3-1.7.2-1.5.3-1.2.2-.7.3-.4.2-.1.2.2.3.3.2.4.2.5.3.5.2.6.2.7.2.9.3 1 .2 1.1.2 1.1.2 1 .3.9.2.8.2.6.2.4.3.2h.2l.2-.1.2-.2.2-.4.2-.6.2-.7.3-.9.2-1 .2-1.2.2-1.3.2-1.3.2-1.2.2-1.2.2-1 .2-.9.2-.9.2-.9.2-1 .2-1.2.2-1.2.2-1.3.2-1.3.2-1.1.2-1 .2-.7.2-.5.2-.4.2-.2h.4l.2.2.2.3.1.4.2.6.2.6.2.7.2.7.2.7.2.6.2.6.1.8.2.9.2 1.1.2 1.5.2 1.6.1 1.8.2 1.8.2 1.6.2 1.3.2 1.1.1.6.2.3h.2l.2-.4.1-.6.2-.9.2-1.1.2-1.2.1-1.2.2-1.1.2-.9.1-.8.2-.7.2-.4.1-.4.2-.2h.2l.1.1.2.2.2.5.1.6.2.8.2.8.1.9.2 1 .2 1.1.1 1.3.2 1.5.1 2 .2 2.4.2 3 .1 3.6.2 4.2.1 4.5.2 4.9.1 4.7.2 4.4.1 3.4.2 2.1.2.7.1-.9.2-2.1.1-2.9.2-3.4.1-3.4.2-3.2.1-2.9.2-2.4.1-2 .2-1.6.1-1.1.2-.9.1-.5.2-.3.1-.1.2.1.1.2.2.5.1.6.1.7.2.9.1.8.2.8.1.7.2.6.1.5.1.4.2.6.1.6.2.8.1.9.1.9.2 1 .1.8.2.7.1.3.1.1.2-.3.1-.5.1-.8.2-.9.1-1 .2-1 .1-1 .1-1.1.2-1.2.1-1.4.1-1.4.2-1.6.1-1.8.1-1.7.2-1.8.1-1.7.1-1.6.1-1.3.2-1.2.1-.9.1-.7.2-.5.1-.3.1-.2.1-.1h.4l.2.1h.1l.1.1.1.1.2.1.1.2.1.2.1.3.2.3.1.4.1.4.1.5.2.5.1.6.1.5.1.5.1.5.2.5.1.4.1.3.1.4.1.5.2.5.1.7.1.8.1.9.1 1 .2 1.1.1 1.2.1 1.1.1 1 .1 1 .1.8.2.9.1.8.1.8.1.7.1.6.1.5.2.2.1-.1.1-.4.1-.6.1-.7.1-.7.1-.5.1-.5.2-.4.1-.4.1-.4.1-.5.1-.7.1-.8.1-.8.1-.8.2-.7.1-.5.1-.4.1-.2.1-.3.1-.4.1-.6.1-1 .1-1.5.1-1.9.1-2.2.1-2.1.2-2.1.1-1.6.1-1.3.1-.8.1-.4.1-.2.1-.1.1-.2.1-.4.1-.6.1-.7.1-.7.1-.6.1-.4.1-.2.1-.1.1-.1.1-.2.1-.3.2-.5.1-.7.1-.7.1-.6.1-.5.1-.3.1-.1.1.2.1.5.1.6.1.7.1.8.1.8.1.6.1.5.1.5.1.4.1.6.1.6.1.8.1 1 .1 1.2.1 1.1.1 1.2.1 1.2.1 1.1.1 1.1.1 1v1l.1 1 .1.7.1.4.1.1.1-.3.1-.6.1-.8.1-.6.1-.5.1-.2.1.1.1.4.1.5.1.6.1.7.1.7.1.8.1.8.1 1v1.1l.1 1.2.1 1.1.1.9.1.7.1.4.1.1.1-.2.1-.4.1-.5.1-.6.1-.7.1-.6v-.5l.1-.5.1-.4.1-.3.1-.2.1-.1.1-.1.1-.1.1-.2.1-.2v-.3l.1-.4.1-.4.1-.6.1-.6.1-.6.1-.6.1-.6v-.5l.1-.5.1-.4.1-.4.1-.3.1-.2h.1l.1.1v.4l.1.8.1 1.1.1 1.6.1 2.1.1 2.7.1 3.6v4.8l.1 7.1.1 10.9.1 18 .1 30.9.1 15.5m.3 0 .1-28.9.1-25.1.1-15v-9.5l.1-6.3.1-4.3.1-2.9.1-1.6.1-.6v.4l.1 1.3.1 2 .1 2.5.1 2.6v2.5l.1 2.1.1 1.7.1 1.2.1.7.1.4v-.1l.1-.4.1-.8.1-1.3.1-1.6v-1.7l.1-1.6.1-1.4.1-1.1.1-.6v-.3l.1.1.1.2.1.3.1.4v.3l.1.2.1-.1.1-.3.1-.6v-.9l.1-1.1.1-1.3.1-1.5v-1.5l.1-1.4.1-1.4.1-1.2.1-1.2v-1l.1-.8.1-.7.1-.4v-.3l.1-.1.1.1.1.2v.3l.1.4.1.4.1.6v.6l.1.7.1.9.1.9v1.1l.1 1.2.1 1.4.1 1.7v2l.1 2.4.1 2.8.1 3.1v3.2l.1 3 .1 2.5.1 1.8v1.1l.1.2.1-.3.1-.7v-.9l.1-.9.1-1 .1-.9v-.8l.1-.7.1-.7v-.6l.1-.6.1-.6.1-.6v-.8l.1-.7.1-.6v-.4l.1-.2.1.2.1.7v1.1l.1 1.4.1 1.6v1.7l.1 1.6.1 1.2.1.8v.2l.1-.3.1-.5v-.7l.1-.6.1-.4v-.2l.1-.1.1-.1.1-.3v-.4l.1-.5.1-.6v-.4l.1-.2.1.1v.4l.1.8.1.8v.9l.1.9.1.6.1.3.1-.6.1-1v-1.4l.1-1.8.1-2v-2l.1-1.8.1-1.7V291l.1-1.2.1-.9v-.8l.1-.7.1-.4v-.3l.1-.1.1.1v.3l.1.4.1.6v.6l.1.7.1.8v.8l.1 1 .1 1.1v1.1l.1.9.1.7v.4h.1l.1-.3v-.6l.1-.8.1-1v-1l.1-1.2v-1.1l.1-.9.1-.7v-.2l.1.2.1.9v1.3l.1 1.8.1 1.9v1.9l.1 1.6.1 1.2v.8l.1.4v.3l.1.1h.1v-.2l.1-.4.1-.8v-1.2l.1-1.6v-1.8l.1-1.8.1-1.7v-1.5l.1-1.1.1-.9v-.6l.1-.4v-.2h.2v.1l.1.2.1.4v.4l.1.4v.5l.1.5.1.5v.4l.1.3v.4l.1.2.1.3v.1h.1v-.1l.1-.2.1-.5v-.5l.1-.6.1-.4v-.1l.1.5v1.1l.1 1.9.1 2.5v3.1l.1 3.4v3.2l.1 2.6v1.5h.1l.1-1.3v-2.5l.1-3.5v-3.8l.1-4 .1-3.7v-3.4l.1-2.8v-2.3l.1-1.7.1-1.2v-.6l.1-.2v.1l.1.4v.6l.1.8.1.8v1l.1 1.2v1.6l.1 1.9.1 2.6v3.3l.1 4.1v4.6l.1 4.9v4.7l.1 3.9.1 2.5v.7l.1-.9v-2.2l.1-2.8v-2.9l.1-2.6.1-1.9v-1.2l.1-.6.1.2v.4l.1.2h.1v-.2l.1-.3v-.5l.1-.4v-.4l.1-.5v-.7l.1-.8.1-1.2v-1.5l.1-2v-2.3l.1-2.6v-2.7l.1-2.8v-2.6l.1-2.2.1-1.9V276l.1-.8v-.2l.1.3v.9l.1 1.4v2l.1 2.5v3.2l.1 3.7.1 4v3.8l.1 3.1v1.8l.1.1v-1.7l.1-3v-3.9l.1-3.9v-3.8l.1-3.2.1-2.7v-1.9l.1-.3v4.1l.1 33.4V376m.1 0v-42.2l.1-61.3v-10.1l.1-3.7v-1.5l.1-.2v.8l.1 1.7v2.7l.1 3.6.1 4.5v5.1l.1 5.3v4.8l.1 3.5v1.5l.1-.8v-2.5l.1-3.6V280l.1-3v-1.6h.1v1.9l.1 4.1v6.8l.1 10v13.7l.1 17.4v19.3l.1 16.3v7l.1-5.2.1-13.9v-16.4l.1-14.6v-11.3l.1-8.4v-6.3l.1-4.7v-3.5l.1-2.4v-1.5l.1-.3v.7l.1 1.8v2.6l.1 3v2.9l.1 2.3v1.4l.1.1v-1l.1-1.7v-2l.1-1.9v-1.4l.1-.6v.5l.1 1.7v2.8l.1 4v4.8l.1 4.9v4.2l.1 2.4v.1l.1-2.5v-4.4l.1-5.5v-5.5l.1-4.9v-3.9l.1-2.8v-1.6l.1-.7.1.4v.4l.1.3v-.2l.1-.6v-1l.1-1.3v-2.6l.1-.9v-.7l.1-.3.1.3v.6l.1.9v1.2l.1 1.4v1.6l.1 1.6v1.4l.1 1.1v.5l.1.1v-.6l.1-1.1v-1.5l.1-1.7v-1.9l.1-1.9v-1.8l.1-1.8v-2.9l.1-1v-.7l.1-.3v.2l.1.7v1.4l.1 2.2v3.2l.1 4.4v5.9l.1 7.7v9.4l.1 10.8v11.4l.1 10.5v12.2l.1.2v-2.9l.1-5.1V336l.1-7.3v-7.8l.1-7.9v-7.5l.1-6.8v-5.8l.1-4.7v-6l.1-1.5v-.7l.1-.1v.5l.1.7v.9l.1.8v.6h.1v-.6l.1-1.2v-3.7l.1-2.1v-1.9l.1-1.5v-1l.1-.4v.2l.1.8v1.4l.1 1.8v5.2l.1 3.6v4.5l.1 5.9v7.4l.1 8.9v9.7l.1 9v7.3l.1-4.1v-7.7l.1-9.1v-8.6l.1-6.9v-5l.1-3.3v-2.8l.1-.6v-.5l.1-.8v-1.1l.1-1.4v-1.6l.1-1.6v-3.2l.1-1.7v-1.8l.1-2.2v-2.4l.1-2.5v-4.4l.1-1.4v-.5l.1.4v1.2l.1 2v4.4l.1 1.3v-.3l.1-2.4v-4.6l.1-6.9v-21.1l.1-14.5m.4 0 .1 3.1v8.2l.1 2.4v2.4l.1 3v4.3l.1 5.9v18.8l.1 13.8v16.7l.1 18.1v15.8l.1 8.6v-13.3l.1-15.7v-15.7l.1-13.4v-18.1l.1-5.5v-3.7l.1-2.4v-1.6l.1-1.1v-2.1l.1-1.4v-1.6l.1-1.8v-4l.1-2.5v-3.7l.1-6.4V221m.3 0 .1 5.6v4.4l.1 3.4v6.6l.1 3.5v3.7l.1 4.2v10l.1 6.6v8.5l.1 10.9v28.3l.1 13.2v7.2l.1-1.7V313l.1-12.6v-10l.1-7v-6.9l.1-1.3v-.6l.1-.4v-1.1l.1-1.1v-1.3l.1-1.4v-3.2l.1-1.6v-1.6l.1-1.6v-3.4l.1-1.9v-2l.1-2.2v-5.3l.1-3.2v-3.5l.1-3.8v-8.8l.1-4.7V221m.4 0 .1 4.1v6.1l.1 5.7v7.9l.1 1.6v.1l.1-1.2v-4.4l.1-2.3V235l.1-1.2v-.8l.1-.4v-.5l.1-.3v-.9l.1-.8v-.9l.1-1.1v-2l.1-.7v-.2l.1.2v1.8l.1 1.4v3.4l.1 1.6v1.5l.1 1.3v2.4l.1 1.3v2.9l.1 1.7v1.9l.1 1.9v3.9l.1 1.7v2.8l.1 1v.8l.1.5v.6l.1.1v.1-.1h.1v.1l.1.2v.5l.1.8v2.9l.1 2v4.9l.1 2.6v2.3l.1 2v2.6l.1.7v.9l.1.2v.4l.1.2v.4l.1.6v2.3l.1 1.8v4.5l.1 2.3v4.4l.1 1.8v1.6l.1 1.3v1.8l.1.4v-.3l.1-.7v-2.3l.1-1.8v-4.9l.1-2.9v-3l.1-2.9v-4.8l.1-1.8v-2.5l.1-.7v-.1.4l.1 1.2v5.4l.1 4.5v13.2l.1 8.6v9.1l.1 8.4v7.6l.1-3.2v-17.2l.1-10.1v-16.4l.1-5.4v-5l.1.1v5l.1 4.8v12.5l.1 6.6v8.9l.1.5v-2.4l.1-4.5v-11.4l.1-5.5V285l.1-2.8v-2.9l.1-.1v2l.1 1.8v4l.1 1.6v1.3l.1-.5v-2.7l.1-1.9v-3.5l.1-1.5v-1.7l.1-.3v-.1.1l.1.1v-.3l.1-.4V276l.1-.5v-.9l.1-.3v-1l.1-.8v-2.6l.1-1.7v-3.9l.1-2v-3.8l.1-1.9v-3.4l.1-1.6v-3.9l.1-2.7v-9.7l.1-11.2V221m.2 0v9.7l.1 5.3v6l.1 2v3.4l.1 1.5v3.1l.1 1.8v4.8l.1 3.6v12l.1 10.4V322l.1 29.1V376m.1 0v-46.6l.1-21.6v-24.3l.1-6.3v-7.5l.1-2.4v-4.6l.1-1v-1.2l.1-.3v-.1.1l.1.4v1.5l.1 1.1v2.7l.1 1.5v2.9l.1 1.4v2.6l.1 1.1v1.3l.1.1v-1.3l.1-.4v-.1.2l.1.5v1.2l.1.3v-.6l.1-.8v-1.9l.1-.8v-1l.1.2v1.6l.1 1.5v4.1l.1 2.4v4l.1.9v-1.7l.1-2.2v-9.2l.1-2.7v-3.9l.1-1.2v-1.1l.1-.1v.3l.1.5v3.1l.1 1.8v4.4l.1 2.2v3.3l.1.7v-.6l.1-.8v-1.2l.1.4v1.9l.1 1.1v1.1l.1-.5v-5.9l.1-2.8v-5.5l.1-2.3v-3.2l.1-1v-1.5l.1-.3v-.8l.1-.4v-.8l.1-.4v-.6l.1-.1v-.2h.1l.1.1v.9l.1.4v1l.1.4v.8l.1.4v.8l.1.3v1.1l.1.8v4.9l.1 2.8v7.7l.1 4.6v9.1l.1 3.5v2.5-1.1l.1-2.3V289l.1-3.3v-8.9l.1-2.6v-4.6l.1-1.9v-4l.1-.6v-.3.2l.1.5v4.1l.1 2.1v5.2l.1 2.9v11l.1 4.8v12.1l.1 7.3v19.7l.1 2.3v-5l.1-5.9v-20.2l.1-5.6v-8.6l.1-3.1v-5.3l.1-.8v-.8l.1-.1v.4l.1.3v.9l.1.4v1.3l.1.2v-.3l.1-.5v-2.6l.1-1.1v-2.5l.1-.3v.3l.1.6v3.7l.1 1.5v3l.1 1.3v3.6l.1 1.4v5.4l.1 2.2v3.9l.1 1.5v2.6l.1.3v.2-.1l.1-.3v-1.2l.1-1v-3.9l.1-1.4v-4.3l.1-1.3v-2.5l.1-1.1v-2.8l.1-.7v-1.3l.1-.2.1.1v-.3l.1-.4v-1l.1-.2v.1l.1.2v.4l.1-.1v-.5l.1-.1v.9l.1.8v2.5l.1 1.7v5.3l.1 1.5v2.2l.1-.2V295l.1-1.6v-5l.1-1.3v-1.2l.1.2v4l.1 2.1v5.3l.1.8v.1-1.1l.1-.8v-1.3l.1.4v1.7l.1 1.3v4.5l.1 1.2v.7-.9l.1-1.5v-7l.1-2v-2.4l.1.4v3.1l.1 1.2v3.4l.1 1.4v3.4l.1.2v-1.7l.1-1.8v-6.2l.1-1.8v-4l.1-1.2v-3.4l.1-.9v-1.5h.1v.2"/></g><path stroke="#d1d5db" d="M442 221v155m0-77.5h358"/><text x="621" y="402" fill="#6b7280" font-size="9" text-anchor="middle">Samples</text><text x="420" y="298.5" fill="#6b7280" font-size="9" text-anchor="middle" transform="rotate(-90 420 298.5)">Impulse</text><path stroke="#e5e7eb" stroke-width=".5" d="M442 221v155"/><text x="442" y="388" fill="#6b7280" font-size="8" text-anchor="middle">0</text><path stroke="#e5e7eb" stroke-width=".5" d="M581.8 221v155"/><text x="581.8" y="388" fill="#6b7280" font-size="8" text-anchor="middle">200</text><path stroke="#e5e7eb" stroke-width=".5" d="M721.7 221v155"/><text x="721.7" y="388" fill="#6b7280" font-size="8" text-anchor="middle">400</text><path stroke="#e5e7eb" stroke-width=".5" d="M442 363.1h358"/><text x="438" y="366.1" fill="#6b7280" font-size="8" text-anchor="end">-1</text><text x="438" y="301.5" fill="#6b7280" font-size="8" text-anchor="end">0</text><path stroke="#e5e7eb" stroke-width=".5" d="M442 233.9h358"/><text x="438" y="236.9" fill="#6b7280" font-size="8" text-anchor="end">1</text><path stroke="#e5e7eb" stroke-dasharray="3 2" stroke-width=".5" d="M442 233.9h358"/><text x="438" y="236.9" fill="#6b7280" font-size="7" text-anchor="end">+1</text><path stroke="#e5e7eb" stroke-dasharray="3 2" stroke-width=".5" d="M442 363.1h358"/><text x="438" y="366.1" fill="#6b7280" font-size="7" text-anchor="end">-1</text><g clip-path="url(#i)"><path fill="url(#j)" d="m442 298.5.7-44.3.7 44.3.7-26.9.7 26.9.7-10.1.7 10.1.7-6 .7-17.6.7 23.6.7-32.9.7 32.9.7-3.2.7-15.3.7 12.7.7-7.1.7 12.9.7-22.2.7 22.2.7-20.3.7 20.3h.7l.7-16.9.7 8.2.7 8.7.7-20.3.7 20.3.7-23 .7 23 .7-5.9.7 5.9h1.4l.7-9.8.7 9.8.7-18.9.7 18.9h2.1l.7-5.9.7 1.3.7 4.6.7-13.9.7 13.9.7-4.3.7 2.1.7 2.2.7-10.9.7 10.9h1.4l.7-5 .7 5 .7-10.7.7 10.7.7-8.9.7 8.5.7-4.4.7 2.7.7 2.1.7-12.5.7 12.5.7-.1.7.1h2l.7-1.8.7-2.4.7 4.2.7-8.9.7 8.9h1.4l.7-2.5.7 2.5.7-4.2.7 1 .7 3.2h.7l.7-11.2.7 11.2.7-3.8.7 3.8.7-9 .7 9 .7-9.3.7 9.3.7-3.5.7 2.2.7 1.3h.7l.7-2.9.7.7.7 2.2h1.4l.7-4.6.7 4.6.7-6.6.7 6.6.7-2 .7 2 .7-2.3.7 2.3h.7l.7-1.6.7 1.4.7.2.7-1.8.7 1.8h.7l.7-6.4.7 6.4.7-5.1.7 5.1h.7l.7-1.8.7 1.8.7-.6.7-1.8.7 2.4h.7l.7-3.7.7 3.7.7-1.5.7 1.5.7-2 .7 2 .7-1.3.7 1.3.7-.2.7-.1.7.3.7-.2.7-.7.7.9.7-2.9.7 2.9.7-.1.7-2.3.7 2.4.7-1.5.7 1.5.7-.6.7-.3.7-.6.7 1.5.7-.2.7-1.5.7 1.7.7-.9.7-.2.7 1.1.7-1.1.7 1 .7.1.7-2.4.7 2.4.7-.7.7-.6.7 1.3.7-.6.7-.4.7.9.7-.3.7-.3.7.1.7.6.7-1.5.7.7.7.8h.7l.7-1.1.7.1.7 1h.7l.7-.7.7.7.7-.7.7.6h.7l.7-.3.7.4h.7l.7-.5.7-.1.7.6.7-1.2.7 1.2h.7l.7-.2.6.1.7.1.7-.1.7-.6.7.7.7-.5.7.5h.7l.7-.4.7.4.7-.1.7-.2.7.3h.7l.7-.8.7.8h.7l.7-.1.7.1h1.4l.7-.2.7.2.7-.2.7.2h.7l.7-.3.7.3.7-.1.7-.1h.7l.7.2.7-.1h.7l.7.1.7-.5.7.5h.7l.7-.2.7.2h2.8l.7-.5.7.5h1.4l.7-.4.7.4h.7l.7-.5.7.5.7-.1.7.1h.7l.7-.2.7.1.7.1h.7l.7-.1.7.1.7-.1.7.1.7-.1.7.1h.7l.7-.1.7.1h.7l.7-.1.7.1h5.6l.7-.2.7.2h.7l.7-.1.7.1h.7l.7-.1.7.1h1.4l.7-.1.7.1h2.1l.7-.1h.7l.7.1.7-.1.7.1.7-.1h.7l.7.1h3.5l.7-.1.7.1h1.4l.7-.1.7.1h4.2l.7-.1h.7l.7.1h1.4l.7-.1.7.1h.7l.6-.1.7.1h3.5l.7-.1.7.1h1.4l.7-.1.7.1h4.9l.7-.1.7.1h.7l.7-.1.7.1h.7l.7-.1.7.1h6.3l.7-.1.7.1h.7l.7-.1.7.1h104.2z"/><path fill="url(#k)" d="M442 298.5v26.6l.7-26.6.7 5.8.7-5.8.7 31.8.7-31.8.7 10.7.7-10.7h.7l.7 33 .7-33 .7 28.8.7-28.8h2.1l.7 22.8.7-22.8.7 29.9.7-29.9.7 17.5.7-7.3.7-10.2h.7l.7.9.7-.9.7 12.3.7-12.3.7 21.9.7-21.9.7 10.8.7-2.6.7-.1.7-8.1.7 12.6.7-12.6.7 10.7.7-8.3.7 2.1.7-.1.7-4.4h.7l.7 2.1.7-2.1.7 12 .7-12h.7l.7 10.3.7-10.3.7.7.7 8.2.7-4.7.7-4.2.7 14.5.7-14.5.7 1.9.7-1.9h2.1l.7 2.9.7-2.9.7 11.6.7-11.6.7.2.6 3 .7-1.5.7 2.4.7-4.1h.7l.7 11.5.7-11.5.7 9.5.7-7.9.7-.9.7-.7.7 7.5.7-7.5h.7l.7 2.4.7 2.4.7-4.8.7 9.6.7-9.6.7 5.6.7-5.6.7 10.2.7-10.2.7.6.7-.6h.7l.7 1.5h.7l.7-1.5h.7l.7 2.3.7-.2.7-1.1.7-1 .7 8.3.7-8.3.7 1.6.7-1.6.7 4.2.7-4.2.7 2.3.7.2.7-2.5h.7l.7.6.7-.6.7.4.7 2 .7-2.4.7 4.6.7-4.6.7.9.7.8.7-1.7.7 2.2.7-2.2h.7l.7 1 .7-.1.7-.9.7 1.3.7-1.3.7 1.4.7-1.4.7.9.7-.9.7 2.1.7-2.1h.7l.7 1 .7-1h.7l.7 2.6.7-2.6.7.4.7-.4h.7l.7.5.7-.5.7.1.7-.1h1.4l.7 1.6.7-1.6h.7l.7 2.5.7-2.5h.7l.7 1 .7-1h.7l.7 1.3.7-1.3.7.9.7-.9h.7l.7 1.5.7-1.5h3.5l.7.5.7-.5h1.4l.7.6.7-.6h.7l.7.4.7.2.7-.6.7.2.7-.2h2.1l.7.4.7-.1.7-.3h.7l.7 1.3.7-1.3.7.2.7-.1.7-.1h.6l.7.3.7-.3h.7l.7 1 .7-1h.7l.7.2.7-.2.7.6.7-.6h.7l.7.4h.7l.7-.4.7.7.7-.7h.7l.7.1.7.2.7-.3h.7l.7.3.7-.3.7.1.7-.1h.7l.7.4.7-.4h1.4l.7.3.7-.3h.7l.7.2.7-.2.7.3.7-.3h.7l.7.1h.7l.7-.1.7.2.7-.1.7-.1.7.1.7.3.7-.4h.7l.7.2.7.2.7-.4.7.2.7-.2.7.2.7-.2h1.4l.7.3.7-.3h.7l.7.2.7-.2.7.3.7-.3.7.1h.7l.7-.1.7.2.7-.2h.7l.7.1h1.4l.7-.1.7.2.7-.2h1.4l.7.2.7-.2h.7l.7.1.7-.1h.7l.7.1.7-.1h7l.7.1.7-.1.7.1.7-.1h4.2l.7.1.7-.1.7.1h.7l.7-.1h4.2l.7.1h.7l.7-.1h1.4l.7.1.7-.1h.7l.7.1h.7l.6-.1.7.1.7-.1h3.5l.7.1.7-.1h8.4l.7.1.7-.1h2.1l.7.1.7-.1h17.5l.7.1.7-.1h94.4z"/><path fill="none" stroke="#eab308" stroke-linejoin="round" stroke-width="1.2" d="m442 325.1.7-70.9.7 50.1.7-32.7.7 58.7.7-41.9.7 20.8.7-16.7.7-17.6.7 56.6.7-65.9.7 61.7.7-32 .7-15.3.7 12.7.7-7.1.7 35.7.7-45 .7 52.1.7-50.2.7 37.8.7-7.3.7-27.1.7 8.2.7 9.6.7-21.2.7 32.6.7-35.3.7 44.9.7-27.8.7 16.7.7-2.6.7-.1.7-17.9.7 22.4.7-31.5.7 29.6.7-8.3.7 2.1.7-.1.7-10.3.7 1.3.7 6.7.7-16 .7 25.9.7-16.3.7 2.1.7 12.5.7-21.2.7 11.6.7 8.2.7-4.7.7-9.2.7 19.5.7-25.2.7 12.6.7-10.8.7 8.5.7-4.4.7 2.7.7 5 .7-15.4.7 24.1.7-11.7.7.3.6 3 .7-1.5.7 2.4.7-5.9.7-2.4.7 15.7.7-20.4.7 18.4.7-7.9.7-.9.7-3.2.7 10 .7-11.7.7 1 .7 5.6.7 2.4.7-16 .7 20.8.7-13.4.7 9.4.7-14.6.7 19.2.7-19.5.7 9.9.7-4.1.7 2.2.7 2.8h.7l.7-4.4.7.7.7 4.5.7-.2.7-1.1.7-5.6.7 12.9.7-14.9.7 8.2.7-3.6.7 6.2.7-6.5.7 4.6.7.2.7-4.1.7 1.4.7.8.7-2.4.7 2.2.7 2 .7-8.8.7 11 .7-9.7.7 6 .7.8.7-3.5.7 4 .7-2.8.7-1.8.7 3.4.7-.1.7-4.6.7 5 .7-2.8.7 2.9.7-3.4.7 2.9.7-2.2.7 3.4.7-2.3.7-.1.7 1.3.7-1.2.7-.7.7 3.5.7-5.5.7 3.3.7-.5.7-2.3.7 2.9.7-2 .7 1.6.7-.7.7-.3.7-.6.7 3.1.7-1.8.7-1.5.7 4.2.7-3.4.7-.2.7 2.1.7-2.1.7 1 .7 1.4.7-3.7.7 3.3.7-1.6.7-.6.7 2.8.7-2.1.7-.4.7.9.7-.3.7-.3.7.1.7 1.1.7-2 .7.7.7.8.7.6.7-1.7.7.1.7 1.4.7.2.7-1.3.7.9.7-.9.7.6h.7l.7-.3.7.8.7-.1.7-.8.7-.1.7 1.9.7-2.5.7 1.4.7-.1.7-.3.6.1.7.4.7-.4.7-.6.7 1.7.7-1.5.7.5.7.2.7-.6.7 1 .7-.7.7-.2.7.7h.7l.7-1.2.7 1.5.7-.7.7-.1.7.2.7.2.7-.3.7-.2.7.5.7-.5.7.3.7-.1.7-.3.7.7.7-.5.7-.1h.7l.7.5.7-.4h.7l.7.3.7-.7.7.8.7-.3.7-.2.7.3h.7l.7-.1.7.2.7-.1.7-.6.7.6.7.3.7-.4.7-.4.7.6.7.2.7-.9.7.7.7-.3.7.3.7-.2.7-.2.7.1.7.4.7-.3.7-.1.7.3.7-.3.7.4.7-.4.7.2h.7l.7-.2.7.3.7-.2.7-.1.7.2h1.4l.7-.1.7.2.7-.2h1.4l.7.2.7-.4.7.2.7.1.7-.2.7.1.7.1.7-.2.7.1h1.4l.7-.1.7.1h2.1l.7-.1h.7l.7.2.7-.2.7.2.7-.2h.7l.7.1h2.8l.7.1.7-.2.7.2h.7l.7-.1.7-.1.7.1h2.8l.7.1h.7l.7-.2h.7l.7.1.7.1.7-.1.7-.1.7.2h.7l.6-.2.7.2.7-.1h2.8l.7-.1.7.2.7-.1h.7l.7-.1.7.1h4.9l.7-.1.7.1.7.1.7-.2.7.1h.7l.7-.1.7.2.7-.1h5.6l.7-.1.7.1h.7l.7-.1.7.1h8.4l.7.1.7-.1h94.4"/></g></svg>