<svg xmlns="http://www.w3.org/2000/svg" style="font-family:system-ui,-apple-system,sans-serif" viewBox="0 0 820 392"><defs><linearGradient id="b" x1="0" x2="0" y1="37" y2="171" gradientUnits="userSpaceOnUse"><stop offset="0%" stop-color="#3b82f6" stop-opacity=".15"/><stop offset="100%" stop-color="#3b82f6" stop-opacity=".01"/></linearGradient><linearGradient id="d" x1="0" x2="0" y1="17" y2="94" gradientUnits="userSpaceOnUse"><stop offset="0%" stop-color="#ef4444" stop-opacity=".15"/><stop offset="100%" stop-color="#ef4444" stop-opacity=".01"/></linearGradient><linearGradient id="e" x1="0" x2="0" y1="94" y2="171" gradientUnits="userSpaceOnUse"><stop offset="0%" stop-color="#ef4444" stop-opacity=".01"/><stop offset="100%" stop-color="#ef4444" stop-opacity=".15"/></linearGradient><linearGradient id="g" x1="0" x2="0" y1="286" y2="299" gradientUnits="userSpaceOnUse"><stop offset="0%" stop-color="#22c55e" stop-opacity=".15"/><stop offset="100%" stop-color="#22c55e" stop-opacity=".01"/></linearGradient><linearGradient id="h" x1="0" x2="0" y1="299" y2="376" gradientUnits="userSpaceOnUse"><stop offset="0%" stop-color="#22c55e" stop-opacity=".01"/><stop offset="100%" stop-color="#22c55e" stop-opacity=".15"/></linearGradient><linearGradient id="j" x1="0" x2="0" y1="265" y2="299" gradientUnits="userSpaceOnUse"><stop offset="0%" stop-color="#eab308" stop-opacity=".15"/><stop offset="100%" stop-color="#eab308" stop-opacity=".01"/></linearGradient><linearGradient id="k" x1="0" x2="0" y1="299" y2="304" gradientUnits="userSpaceOnUse"><stop offset="0%" stop-color="#eab308" stop-opacity=".01"/><stop offset="100%" stop-color="#eab308" stop-opacity=".15"/></linearGradient><clipPath id="a"><path d="M34 16h358v155H34z"/></clipPath><clipPath id="c"><path d="M442 16h358v155H442z"/></clipPath><clipPath id="f"><path d="M34 221h358v155H34z"/></clipPath><clipPath id="i"><path d="M442 221h358v155H442z"/></clipPath></defs><text x="800" y="11" fill="#6b7280" font-size="11" font-weight="600" text-anchor="end">Matched filter (raised cosine template)</text><path stroke="#d1d5db" d="M34 16v155m0-124h358"/><text x="213" y="197" fill="#6b7280" font-size="9" text-anchor="middle">Hz</text><text x="12" y="93.5" fill="#6b7280" font-size="9" text-anchor="middle" transform="rotate(-90 12 93.5)">dB</text><path stroke="#e5e7eb" stroke-width=".5" d="M66.6 16v155M85.7 16v155M99.3 16v155m10.5-155v155m8.6-155v155m7.3-155v155m6.2-155v155m5.6-155v155m37.6-155v155m19.1-155v155m13.5-155v155m10.6-155v155m8.5-155v155m7.3-155v155m6.3-155v155m5.5-155v155m37.6-155v155m19.1-155v155m13.6-155v155m10.5-155v155m8.6-155v155m7.3-155v155m6.2-155v155m5.6-155v155M392 16v155M34 16v155"/><text x="34" y="183" fill="#6b7280" font-size="8" text-anchor="middle">10</text><path stroke="#e5e7eb" stroke-width=".5" d="M142.5 16v155"/><text x="142.5" y="183" fill="#6b7280" font-size="8" text-anchor="middle">100</text><path stroke="#e5e7eb" stroke-width=".5" d="M250.9 16v155"/><text x="250.9" y="183" fill="#6b7280" font-size="8" text-anchor="middle">1k</text><path stroke="#e5e7eb" stroke-width=".5" d="M359.4 16v155"/><text x="359.4" y="183" fill="#6b7280" font-size="8" text-anchor="middle">10k</text><path stroke="#e5e7eb" stroke-width=".5" d="M34 171h358M34 140h358M34 109h358M34 78h358M34 16h358M34 62.5h358m-358-31h358"/><text x="30" y="174" fill="#6b7280" font-size="8" text-anchor="end">-80</text><text x="30" y="143" fill="#6b7280" font-size="8" text-anchor="end">-60</text><text x="30" y="112" fill="#6b7280" font-size="8" text-anchor="end">-40</text><text x="30" y="81" fill="#6b7280" font-size="8" text-anchor="end">-20</text><text x="30" y="50" fill="#6b7280" font-size="8" text-anchor="end">0</text><text x="30" y="19" fill="#6b7280" font-size="8" text-anchor="end">+20</text><g clip-path="url(#a)"><path fill="url(#b)" d="M37.5 171V37.1h182.3l1-.1h49.1l.3.1h25.6l.2-.1h14.3l.2.1h1.8l.1.1h1.3l.1.1h.9l.1.1h.7l.1.1h.7l.1.1h.4l.1.1h.5l.1.1h.4l.1.1h.4l.1.1h.2l.1.1h.4l.1.1h.3l.1.1h.2l.1.1h.3l.1.1h.2l.1.1h.1l.2.1h.2l.1.1h.1l.1.1h.2l.2.1h.1l.1.1h.1l.1.1h.1l.1.1h.1l.2.1h.1l.1.1h.1l.1.1h.1l.1.1h.1l.1.1h.1l.1.1h.1l.2.1.1.1h.1l.1.1h.1l.1.1.1.1h.1l.1.1h.1l.1.1.1.1h.1l.1.1.1.1h.1l.1.1.1.1h.1l.2.1.1.1.1.1h.1l.1.1.1.1.1.1h.1l.1.1.1.1.1.1.1.1h.1l.1.1.1.1.1.1.1.1.1.1h.1l.1.1.1.1.1.1.1.1.1.1.1.1.1.1.1.1.1.1v.1l.1.1.1.1h.1l.1.1.1.1.1.2.1.1.1.1.1.1.1.1.1.1.1.1.1.1.1.1.1.1.1.1.1.1.1.1.1.2v.1l.1.1.1.1.1.1.1.2.1.1.1.1.1.1.1.1.1.2.1.1.1.1.1.2v.1l.1.1.1.1.1.2.1.1.1.2.1.1.1.1.1.2.1.1v.1l.1.2.1.1.1.2.1.1.1.2.1.1.1.2v.1l.1.2.1.1.1.2.1.2.1.1.1.2.1.1v.2l.1.2.1.1.1.2.1.2.1.1.1.2v.2l.1.2.1.1.1.2.1.2.1.2.1.2v.1l.1.2.1.2.1.2.1.2.1.2v.2l.1.2.1.2.1.2.1.2.1.2v.2l.1.2.1.2.1.2.1.2v.2l.1.2.1.3.1.2.1.2.1.2v.3l.1.2.1.2.1.2.1.3v.2l.1.2.1.3.1.2.1.3v.2l.1.3.1.2.1.3.1.2v.3l.1.2.1.3.1.3.1.2v.3l.1.3.1.3.1.2v.3l.1.3.1.3.1.3.1.3v.3l.1.3.1.3.1.3v.3l.1.3.1.3.1.3v.4l.1.3.1.3.1.3v.4l.1.3.1.4.1.3v.4l.1.3.1.4.1.3v.4l.1.4.1.4.1.3v.4l.1.4.1.4.1.4v.4l.1.4.1.5.1.4v.4l.1.5.1.4.1.5v.4l.1.5.1.5v.4l.1.5.1.5.1.5v.6l.1.5.1.5v.6l.1.5.1.6.1.6v.6l.1.6.1.6v.6l.1.7.1.6.1.7v.7l.1.7.1.8v.8l.1.8.1.8v.8l.1.9.1.9.1 1v1l.1 1 .1 1.1v1.2l.1 1.2.1 1.3v1.4l.1 1.5.1 1.7v1.8l.1 2 .1 2.3.1 2.6v3.2l.1 4 .1 5.4v8.7l.1 27.4.1-22.7v-10.2l.1-5.6.1-3.8v-2.8l.1-2.2.1-1.9v-1.5l.1-1.3.1-1.2v-1l.1-.8.1-.8v-.7l.1-.7.1-.5v-.5l.1-.5.1-.4v-.3l.1-.4.1-.3v-.2l.1-.2.1-.2v-.2l.1-.2.1-.1v-.1l.1-.1.1-.1h.1v-.1h.1l.1.1h.1l.1.1v.1l.1.1.1.1v.1l.1.2.1.1v.2l.1.2v.1l.1.3.1.2v.2l.1.3.1.2v.3l.1.3v.3l.1.3.1.4v.3l.1.4.1.4v.4l.1.4v.5l.1.4.1.5v.6l.1.5.1.6v.6l.1.6v.6l.1.7.1.8v.7l.1.9v.8l.1 1 .1 1v1l.1 1.2v1.2l.1 1.4.1 1.5v1.7l.1 2 .1 2.2v2.7l.1 3.2v4.2l.1 6.2.1 11.2v8.8l.1-14.7v-8l.1-4.8v-3.6l.1-2.7.1-2.2v-1.9l.1-1.6v-1.4l.1-1.3.1-1.1v-1l.1-.9v-.8l.1-.8.1-.7v-.6l.1-.6v-.6l.1-.5v-.5l.1-.4.1-.4v-.4l.1-.4v-.3l.1-.3.1-.3v-.2l.1-.3v-.2l.1-.2v-.2l.1-.2.1-.1v-.2l.1-.1v-.1l.1-.1v-.1l.1-.1h.1v-.1h.2v-.1l.1.1h.2v.1l.1.1.1.1v.1l.1.1.1.1v.2l.1.1v.1l.1.2v.2l.1.1v.2l.1.2.1.3v.2l.1.2v.3l.1.2v.3l.1.3v.3l.1.3v.4l.1.3.1.4v.4l.1.4v.4l.1.4v.5l.1.5v.5l.1.5v.6l.1.5.1.7v.6l.1.7v.7l.1.8v.8l.1.9v.9l.1 1v1.1l.1 1.2v1.3l.1 1.4v1.6l.1 1.8v2l.1 2.5.1 2.9v3.7l.1 5.1v8.2l.1 5 .1-10.2v-5.9l.1-4v-3.1l.1-2.5v-2l.1-1.8V140l.1-1.4v-1.2l.1-1v-1l.1-.9v-.9l.1-.7v-.7l.1-.7.1-.6v-.6l.1-.5v-.5l.1-.5v-.4l.1-.4v-.4l.1-.3v-.4l.1-.3v-.3l.1-.3v-.2l.1-.3v-.2l.1-.2v-.2l.1-.2v-.1l.1-.2v-.1l.1-.2v-.1l.1-.1v-.1l.1-.1.1-.1.1-.1h.3l.1.1.1.1v.1l.1.1.1.1v.2l.1.1v.1l.1.1v.2l.1.2v.3l.1.2v.2l.1.2v.3l.1.2v.2l.1.3v.3l.1.3v.3l.1.3v.3l.1.4v.4l.1.3v.4l.1.5v.4l.1.5v.5l.1.5v.5l.1.6v1.2l.1.7v.7l.1.7v.8l.1.9v.9l.1 1v1l.1 1.2v1.3l.1 1.4v1.5l.1 1.8v2l.1 2.4v6.4l.1 5v6.8h.1l.1-2.8v-6.1l.1-4.2v-3.2l.1-2.5v-2.1l.1-1.8v-2.9l.1-1.3V143l.1-1v-.9l.1-.9v-.8l.1-.7v-.7l.1-.6v-.6l.1-.6v-1l.1-.4v-.5l.1-.4v-.4l.1-.3v-.4l.1-.3v-.3l.1-.3v-.5l.1-.2v-.2l.1-.2v-.2l.1-.2v-.2l.1-.1v-.3l.1-.1v-.1l.1-.1v-.1l.1-.1.1-.1v-.1h.3l.1.1v.1h.1v.1l.1.1v.1l.1.1v.2l.1.1v.1l.1.2v.2l.1.1v.4l.1.2v.2l.1.2v.3l.1.2v.5l.1.3v.3l.1.3v.4l.1.3v.8l.1.4v.4l.1.4v.5l.1.5v1l.1.6v.6l.1.6v.7l.1.7v1.5l.1.9v.9l.1 1v1.1l.1 1.1v2.8l.1 1.5v1.9l.1 2v5.5l.1 3.9v5.5h.2v-5.1l.1-3.9v-3l.1-2.4v-3.7l.1-1.6V150l.1-1.2v-1.1l.1-1v-1.8l.1-.8v-.7l.1-.7v-1.2l.1-.6v-.5l.1-.5v-.9l.1-.4v-.4l.1-.4v-.7l.1-.3v-.3l.1-.2v-.5l.1-.3v-.2l.1-.2v-.3l.1-.2v-.2l.1-.1v-.2l.1-.2v-.1h.1v-.2h.1v-.1h.1v-.1h.2v.1h.1v.1h.1v.1l.1.1v.1l.1.1v.2l.1.2v.1l.1.2v.3l.1.2v.4l.1.2v.2l.1.2v.6l.1.2v.3l.1.3v.7l.1.3v.4l.1.4v.8l.1.5v1l.1.5v.5l.1.6v1.3l.1.7v1.5l.1.8v.9l.1 1v2.2l.1 1.2v1.4l.1 1.5v3.8l.1 2.4v6.5l.1 2.5h.1l.1-.2v-7.3l.1-2.5v-2.1l.1-1.8v-3l.1-1.2v-2.2l.1-1v-.8l.1-.8v-1.5l.1-.6v-1.2l.1-.6v-1l.1-.4v-.4l.1-.4v-.8l.1-.3v-.7l.1-.2v-.3l.1-.3v-.5l.1-.2v-.4l.1-.1v-.4l.1-.1v-.1l.1-.1v-.3h.1v-.2l.1-.1.1-.1h.2l.1.1v.1l.1.1v.1l.1.1v.1l.1.1v.3l.1.1v.4l.1.1v.4l.1.2v.5l.1.2v.5l.1.3v.3l.1.3v.7l.1.4v.7l.1.5v.9l.1.5v1l.1.6v1.2l.1.7v1.5l.1.8v1.8l.1 1.1v1.1l.1 1.2v2.9l.1 1.7v4.2l.1 2.7v3.7h.2v-.7l.1-3.3v-4.8l.1-1.8v-3.1l.1-1.3v-2.2l.1-.9v-1.8l.1-.7V149l.1-.6v-1.2l.1-.5v-1l.1-.4v-.8l.1-.4v-.7l.1-.3v-.6l.1-.2v-.5l.1-.2v-.5l.1-.1v-.4l.1-.1v-.3l.1-.1v-.2l.1-.1v-.2h.1v-.1l.1-.1h.2v.1h.1v.2h.1v.2l.1.1v.3l.1.1v.3l.1.1v.4l.1.2v.4l.1.3v.4l.1.3v.6l.1.3v1l.1.4v.8l.1.5v.9l.1.5v1.1l.1.6v1.4l.1.7v1.6l.1.9v2l.1 1.1v2.6l.1 1.6v6.1l.1 2.8v.7h.2l.1-2.2v-4.6l.1-1.9v-4.2l.1-1.2v-2l.1-.8v-1.6l.1-.7v-1.3l.1-.6v-1.1l.1-.5V147l.1-.4v-.7l.1-.4v-.6l.1-.3v-.5l.1-.2v-.7l.1-.2v-.3l.1-.2v-.2l.1-.2v-.2l.1-.1v-.2l.1-.1.1-.1h.1v.1h.1v.1h.1v.2l.1.1v.3l.1.1v.3l.1.2v.3l.1.2v.6l.1.3v.5l.1.2v.6l.1.4v1l.1.4v.8l.1.5v1l.1.5v1.8l.1.7v1.4l.1.8v2.8l.1 1.2v2.5l.1 1.5v3.6l.1 2.3v2.3h.2l.1-2.4v-4.1l.1-1.6v-4l.1-1V156l.1-.9v-2.2l.1-.6v-1.2l.1-.5v-1.4l.1-.4v-.8l.1-.4v-1l.1-.3v-.5l.1-.3v-.6l.1-.2v-.4l.1-.2v-.4l.1-.1v-.2l.1-.1v-.2l.1-.1v-.1h.2l.1.1v.1l.1.1v.3l.1.1v.2l.1.2v.4l.1.2v.4l.1.2v.7l.1.3v.9l.1.3v.7l.1.4v1.2l.1.5v1.5l.1.6v1.2l.1.7v2.4l.1.9v3.1l.1 1.3v3l.1 1.7v4.4h.3v-4.3l.1-1.8v-4.1l.1-1.2v-1.9l.1-.9v-2.3l.1-.7v-1.7l.1-.5v-1.4l.1-.5v-.7l.1-.4v-1l.1-.3v-.7l.1-.3v-.6l.1-.2v-.5l.1-.1v-.3l.1-.1v-.3h.1v-.2h.1v-.1h.1v.1h.1v.1l.1.1v.2l.1.1v.3l.1.2v.5l.1.1v.6l.1.3v.7l.1.3v.9l.1.4v1.1l.1.4v.9l.1.5v1.6l.1.7v2l.1.8v2.8l.1 1v3.9l.1 1.7v4.8z"/><path fill="none" stroke="#3b82f6" stroke-linejoin="round" stroke-width="1.5" d="M37.5 37.1h182.3l1-.1h49.1l.3.1h25.6l.2-.1h14.3l.2.1h1.8l.1.1h1.3l.1.1h.9l.1.1h.7l.1.1h.7l.1.1h.4l.1.1h.5l.1.1h.4l.1.1h.4l.1.1h.2l.1.1h.4l.1.1h.3l.1.1h.2l.1.1h.3l.1.1h.2l.1.1h.1l.2.1h.2l.1.1h.1l.1.1h.2l.2.1h.1l.1.1h.1l.1.1h.1l.1.1h.1l.2.1h.1l.1.1h.1l.1.1h.1l.1.1h.1l.1.1h.1l.1.1h.1l.2.1.1.1h.1l.1.1h.1l.1.1.1.1h.1l.1.1h.1l.1.1.1.1h.1l.1.1.1.1h.1l.1.1.1.1h.1l.2.1.1.1.1.1h.1l.1.1.1.1.1.1h.1l.1.1.1.1.1.1.1.1h.1l.1.1.1.1.1.1.1.1.1.1h.1l.1.1.1.1.1.1.1.1.1.1.1.1.1.1.1.1.1.1v.1l.1.1.1.1h.1l.1.1.1.1.1.2.1.1.1.1.1.1.1.1.1.1.1.1.1.1.1.1.1.1.1.1.1.1.1.1.1.2v.1l.1.1.1.1.1.1.1.2.1.1.1.1.1.1.1.1.1.2.1.1.1.1.1.2v.1l.1.1.1.1.1.2.1.1.1.2.1.1.1.1.1.2.1.1v.1l.1.2.1.1.1.2.1.1.1.2.1.1.1.2v.1l.1.2.1.1.1.2.1.2.1.1.1.2.1.1v.2l.1.2.1.1.1.2.1.2.1.1.1.2v.2l.1.2.1.1.1.2.1.2.1.2.1.2v.1l.1.2.1.2.1.2.1.2.1.2v.2l.1.2.1.2.1.2.1.2.1.2v.2l.1.2.1.2.1.2.1.2v.2l.1.2.1.3.1.2.1.2.1.2v.3l.1.2.1.2.1.2.1.3v.2l.1.2.1.3.1.2.1.3v.2l.1.3.1.2.1.3.1.2v.3l.1.2.1.3.1.3.1.2v.3l.1.3.1.3.1.2v.3l.1.3.1.3.1.3.1.3v.3l.1.3.1.3.1.3v.3l.1.3.1.3.1.3v.4l.1.3.1.3.1.3v.4l.1.3.1.4.1.3v.4l.1.3.1.4.1.3v.4l.1.4.1.4.1.3v.4l.1.4.1.4.1.4v.4l.1.4.1.5.1.4v.4l.1.5.1.4.1.5v.4l.1.5.1.5v.4l.1.5.1.5.1.5v.6l.1.5.1.5v.6l.1.5.1.6.1.6v.6l.1.6.1.6v.6l.1.7.1.6.1.7v.7l.1.7.1.8v.8l.1.8.1.8v.8l.1.9.1.9.1 1v1l.1 1 .1 1.1v1.2l.1 1.2.1 1.3v1.4l.1 1.5.1 1.7v1.8l.1 2 .1 2.3.1 2.6v3.2l.1 4 .1 5.4v8.7l.1 27.4.1-22.7v-10.2l.1-5.6.1-3.8v-2.8l.1-2.2.1-1.9v-1.5l.1-1.3.1-1.2v-1l.1-.8.1-.8v-.7l.1-.7.1-.5v-.5l.1-.5.1-.4v-.3l.1-.4.1-.3v-.2l.1-.2.1-.2v-.2l.1-.2.1-.1v-.1l.1-.1.1-.1h.1v-.1h.1l.1.1h.1l.1.1v.1l.1.1.1.1v.1l.1.2.1.1v.2l.1.2v.1l.1.3.1.2v.2l.1.3.1.2v.3l.1.3v.3l.1.3.1.4v.3l.1.4.1.4v.4l.1.4v.5l.1.4.1.5v.6l.1.5.1.6v.6l.1.6v.6l.1.7.1.8v.7l.1.9v.8l.1 1 .1 1v1l.1 1.2v1.2l.1 1.4.1 1.5v1.7l.1 2 .1 2.2v2.7l.1 3.2v4.2l.1 6.2.1 11.2v8.8"/><path fill="none" stroke="#3b82f6" stroke-linejoin="round" stroke-width="1.5" d="m351.6 171 .1-14.7v-8l.1-4.8v-3.6l.1-2.7.1-2.2v-1.9l.1-1.6v-1.4l.1-1.3.1-1.1v-1l.1-.9v-.8l.1-.8.1-.7v-.6l.1-.6v-.6l.1-.5v-.5l.1-.4.1-.4v-.4l.1-.4v-.3l.1-.3.1-.3v-.2l.1-.3v-.2l.1-.2v-.2l.1-.2.1-.1v-.2l.1-.1v-.1l.1-.1v-.1l.1-.1h.1v-.1h.2v-.1l.1.1h.2v.1l.1.1.1.1v.1l.1.1.1.1v.2l.1.1v.1l.1.2v.2l.1.1v.2l.1.2.1.3v.2l.1.2v.3l.1.2v.3l.1.3v.3l.1.3v.4l.1.3.1.4v.4l.1.4v.4l.1.4v.5l.1.5v.5l.1.5v.6l.1.5.1.7v.6l.1.7v.7l.1.8v.8l.1.9v.9l.1 1v1.1l.1 1.2v1.3l.1 1.4v1.6l.1 1.8v2l.1 2.5.1 2.9v3.7l.1 5.1v8.2l.1 5"/><path fill="none" stroke="#3b82f6" stroke-linejoin="round" stroke-width="1.5" d="m357.8 171 .1-10.2v-5.9l.1-4v-3.1l.1-2.5v-2l.1-1.8V140l.1-1.4v-1.2l.1-1v-1l.1-.9v-.9l.1-.7v-.7l.1-.7.1-.6v-.6l.1-.5v-.5l.1-.5v-.4l.1-.4v-.4l.1-.3v-.4l.1-.3v-.3l.1-.3v-.2l.1-.3v-.2l.1-.2v-.2l.1-.2v-.1l.1-.2v-.1l.1-.2v-.1l.1-.1v-.1l.1-.1.1-.1.1-.1h.3l.1.1.1.1v.1l.1.1.1.1v.2l.1.1v.1l.1.1v.2l.1.2v.3l.1.2v.2l.1.2v.3l.1.2v.2l.1.3v.3l.1.3v.3l.1.3v.3l.1.4v.4l.1.3v.4l.1.5v.4l.1.5v.5l.1.5v.5l.1.6v1.2l.1.7v.7l.1.7v.8l.1.9v.9l.1 1v1l.1 1.2v1.3l.1 1.4v1.5l.1 1.8v2l.1 2.4v6.4l.1 5v6.8m.1 0 .1-2.8v-6.1l.1-4.2v-3.2l.1-2.5v-2.1l.1-1.8v-2.9l.1-1.3V143l.1-1v-.9l.1-.9v-.8l.1-.7v-.7l.1-.6v-.6l.1-.6v-1l.1-.4v-.5l.1-.4v-.4l.1-.3v-.4l.1-.3v-.3l.1-.3v-.5l.1-.2v-.2l.1-.2v-.2l.1-.2v-.2l.1-.1v-.3l.1-.1v-.1l.1-.1v-.1l.1-.1.1-.1v-.1h.3l.1.1v.1h.1v.1l.1.1v.1l.1.1v.2l.1.1v.1l.1.2v.2l.1.1v.4l.1.2v.2l.1.2v.3l.1.2v.5l.1.3v.3l.1.3v.4l.1.3v.8l.1.4v.4l.1.4v.5l.1.5v1l.1.6v.6l.1.6v.7l.1.7v1.5l.1.9v.9l.1 1v1.1l.1 1.1v2.8l.1 1.5v1.9l.1 2v5.5l.1 3.9v5.5h.1m.1 0v-5.1l.1-3.9v-3l.1-2.4v-3.7l.1-1.6V150l.1-1.2v-1.1l.1-1v-1.8l.1-.8v-.7l.1-.7v-1.2l.1-.6v-.5l.1-.5v-.9l.1-.4v-.4l.1-.4v-.7l.1-.3v-.3l.1-.2v-.5l.1-.3v-.2l.1-.2v-.3l.1-.2v-.2l.1-.1v-.2l.1-.2v-.1h.1v-.2h.1v-.1h.1v-.1h.2v.1h.1v.1h.1v.1l.1.1v.1l.1.1v.2l.1.2v.1l.1.2v.3l.1.2v.4l.1.2v.2l.1.2v.6l.1.2v.3l.1.3v.7l.1.3v.4l.1.4v.8l.1.5v1l.1.5v.5l.1.6v1.3l.1.7v1.5l.1.8v.9l.1 1v2.2l.1 1.2v1.4l.1 1.5v3.8l.1 2.4v6.5l.1 2.5m.1 0 .1-.2v-7.3l.1-2.5v-2.1l.1-1.8v-3l.1-1.2v-2.2l.1-1v-.8l.1-.8v-1.5l.1-.6v-1.2l.1-.6v-1l.1-.4v-.4l.1-.4v-.8l.1-.3v-.7l.1-.2v-.3l.1-.3v-.5l.1-.2v-.4l.1-.1v-.4l.1-.1v-.1l.1-.1v-.3h.1v-.2l.1-.1.1-.1h.2l.1.1v.1l.1.1v.1l.1.1v.1l.1.1v.3l.1.1v.4l.1.1v.4l.1.2v.5l.1.2v.5l.1.3v.3l.1.3v.7l.1.4v.7l.1.5v.9l.1.5v1l.1.6v1.2l.1.7v1.5l.1.8v1.8l.1 1.1v1.1l.1 1.2v2.9l.1 1.7v4.2l.1 2.7v3.7m.2 0v-.7l.1-3.3v-4.8l.1-1.8v-3.1l.1-1.3v-2.2l.1-.9v-1.8l.1-.7V149l.1-.6v-1.2l.1-.5v-1l.1-.4v-.8l.1-.4v-.7l.1-.3v-.6l.1-.2v-.5l.1-.2v-.5l.1-.1v-.4l.1-.1v-.3l.1-.1v-.2l.1-.1v-.2h.1v-.1l.1-.1h.2v.1h.1v.2h.1v.2l.1.1v.3l.1.1v.3l.1.1v.4l.1.2v.4l.1.3v.4l.1.3v.6l.1.3v1l.1.4v.8l.1.5v.9l.1.5v1.1l.1.6v1.4l.1.7v1.6l.1.9v2l.1 1.1v2.6l.1 1.6v6.1l.1 2.8v.7m.2 0 .1-2.2v-4.6l.1-1.9v-4.2l.1-1.2v-2l.1-.8v-1.6l.1-.7v-1.3l.1-.6v-1.1l.1-.5V147l.1-.4v-.7l.1-.4v-.6l.1-.3v-.5l.1-.2v-.7l.1-.2v-.3l.1-.2v-.2l.1-.2v-.2l.1-.1v-.2l.1-.1.1-.1h.1v.1h.1v.1h.1v.2l.1.1v.3l.1.1v.3l.1.2v.3l.1.2v.6l.1.3v.5l.1.2v.6l.1.4v1l.1.4v.8l.1.5v1l.1.5v1.8l.1.7v1.4l.1.8v2.8l.1 1.2v2.5l.1 1.5v3.6l.1 2.3v2.3m.2 0 .1-2.4v-4.1l.1-1.6v-4l.1-1V156l.1-.9v-2.2l.1-.6v-1.2l.1-.5v-1.4l.1-.4v-.8l.1-.4v-1l.1-.3v-.5l.1-.3v-.6l.1-.2v-.4l.1-.2v-.4l.1-.1v-.2l.1-.1v-.2l.1-.1v-.1h.2l.1.1v.1l.1.1v.3l.1.1v.2l.1.2v.4l.1.2v.4l.1.2v.7l.1.3v.9l.1.3v.7l.1.4v1.2l.1.5v1.5l.1.6v1.2l.1.7v2.4l.1.9v3.1l.1 1.3v3l.1 1.7v4.4m.3 0v-4.3l.1-1.8v-4.1l.1-1.2v-1.9l.1-.9v-2.3l.1-.7v-1.7l.1-.5v-1.4l.1-.5v-.7l.1-.4v-1l.1-.3v-.7l.1-.3v-.6l.1-.2v-.5l.1-.1v-.3l.1-.1v-.3h.1v-.2h.1v-.1h.1v.1h.1v.1l.1.1v.2l.1.1v.3l.1.2v.5l.1.1v.6l.1.3v.7l.1.3v.9l.1.4v1.1l.1.4v.9l.1.5v1.6l.1.7v2l.1.8v2.8l.1 1v3.9l.1 1.7v1.8"/></g><path stroke="#d1d5db" d="M442 16v155m0-77.5h358"/><text x="621" y="197" fill="#6b7280" font-size="9" text-anchor="middle">Hz</text><text x="420" y="93.5" fill="#6b7280" font-size="9" text-anchor="middle" transform="rotate(-90 420 93.5)">Phase (deg)</text><path stroke="#e5e7eb" stroke-width=".5" d="M474.6 16v155m19.1-155v155m13.6-155v155m10.5-155v155m8.6-155v155m7.3-155v155m6.2-155v155m5.6-155v155m37.6-155v155m19.1-155v155m13.5-155v155m10.6-155v155m8.5-155v155m7.3-155v155m6.3-155v155m5.5-155v155m37.6-155v155m19.1-155v155m13.6-155v155m10.5-155v155m8.6-155v155m7.3-155v155m6.2-155v155m5.6-155v155M800 16v155M442 16v155"/><text x="442" y="183" fill="#6b7280" font-size="8" text-anchor="middle">10</text><path stroke="#e5e7eb" stroke-width=".5" d="M550.5 16v155"/><text x="550.5" y="183" fill="#6b7280" font-size="8" text-anchor="middle">100</text><path stroke="#e5e7eb" stroke-width=".5" d="M658.9 16v155"/><text x="658.9" y="183" fill="#6b7280" font-size="8" text-anchor="middle">1k</text><path stroke="#e5e7eb" stroke-width=".5" d="M767.4 16v155"/><text x="767.4" y="183" fill="#6b7280" font-size="8" text-anchor="middle">10k</text><path stroke="#e5e7eb" stroke-width=".5" d="M442 54.8h358m-358 77.5h358M442 16h358"/><text x="438" y="19" fill="#6b7280" font-size="8" text-anchor="end">+180</text><text x="438" y="96.5" fill="#6b7280" font-size="8" text-anchor="end">0</text><path stroke="#e5e7eb" stroke-width=".5" d="M442 171h358"/><text x="438" y="174" fill="#6b7280" font-size="8" text-anchor="end">-180</text><g clip-path="url(#c)"><path fill="url(#d)" d="M445.5 93.5H674l.4-76.9.3.6.4.6.4.6.3.6.4.6.3.6.4.6.3.6.4.7.3.6.3.6.4.6.3.6.3.6.4.6.3.6.3.6.3.6.3.6.4.6.3.6.3.6.3.6.3.6.3.6.3.6.3.7.3.6.3.6.3.6.3.6.3.6.3.6.3.6.3.6.3.6.3.6.2.6.3.6.3.6.3.6.2.6.3.6.3.6.3.7.2.6.3.6.3.6.2.6.3.6.3.6.2.6.3.6.2.6.3.6.3.6.2.6.3.6.2.6.3.6.2.6.3.6.2.7.2.6.3.6.2.6.3.6.2.6.3.6.2.6.2.6.3.6.2.6.2.6.3.6.2.6.2.6.2.6.3.6.2.6.2.6.2.7.3.6.2.6.2.6.2.6.3.6.2.6.2.6.2.6.2.6.2.6.2.6.3.6.2.6.2.6.2.6.2.6.2.6.2.7.2.6.2.6.2.6.2.6.2.6.2.6.2.6.2.6.2.6.2.6.2.6.2.6.2.6.2.6.2.6.2.6.2.6.2.7.2.6.1.6.2.6.2.6.2.6.2.6.2.6.2.6.2.6h19.1l.1-76.9.1.6.1.6.1.6.2.6.1.6.1.6.1.6.1.6.2.7.1.6.1.6.1.6.1.6.2.6.1.6.1.6.1.6.1.6.1.6.2.6.1.6.1.6.1.6.1.6.1.6.2.6.1.7.1.6.1.6.1.6.1.6.1.6.1.6.2.6.1.6.1.6.1.6.1.6.1.6.1.6.1.6.2.6.1.6.1.6.1.7.1.6.1.6.1.6.1.6.1.6.1.6.1.6.1.6.2.6.1.6.1.6.1.6.1.6.1.6.1.6.1.6.1.6.1.6.1.7.1.6.1.6.1.6.1.6.1.6.1.6.1.6.1.6.2.6.1.6.1.6.1.6.1.6.1.6.1.6.1.6.1.6.1.7.1.6.1.6.1.6.1.6.1.6.1.6.1.6.1.6.1.6.1.6.1.6.1.6.1.6.1.6.1.6.1.6.1.6.1.7v.6l.1.6.1.6.1.6.1.6.1.6.1.6.1.6.1.6.1.6.1.6.1.6.1.6.1.6.1.6.1.6.1.6.1.7.1.6.1.6v.6l.1.6.1.6.1.6.1.6.1.6.1.6h10.5l.1-76.9.1.6v.6l.1.6.1.6.1.6v.6l.1.6.1.6v.7l.1.6.1.6.1.6v.6l.1.6.1.6v.6l.1.6.1.6.1.6v.6l.1.6.1.6v.6l.1.6.1.6.1.6v.7l.1.6.1.6v.6l.1.6.1.6v.6l.1.6.1.6.1.6v.6l.1.6.1.6v.6l.1.6.1.6v.6l.1.6.1.7v.6l.1.6.1.6.1.6v.6l.1.6.1.6v.6l.1.6.1 44.2h4.6l.1-76.9v.6l.1.6v.6l.1.6.1.6v.6l.1.6v.6l.1.7.1.6v.6l.1.6.1.6v.6l.1.6v.6l.1.6.1.6v66h6.1V16.6l.1.6v76.3h5.7v-5.4l.1.6v.6l.1.6v.6l.1.6v.6l.1.6v1.2h4.8l.1-10.9v1.2l.1.6v.6l.1.6v1.2l.1.6v.7l.1.6v.6l.1.6v1.2l.1.6v.6l.1.6v.6h4V77.8v.6l.1.6v1.2l.1.6v.6l.1.6v1.2l.1.6V85l.1.6v.6l.1.6v1.3l.1.6v1.2l.1.6v1.2l.1.6v.6l.1.6h3.3v-20l.1.6v1.2l.1.6v1.3l.1.6V79l.1.6v1.2l.1.6v1.2l.1.6v1.2l.1.6v1.2l.1.6v1.3l.1.6v1.2l.1.6v1.2l.1.6v1.2h2.9V69.9l.1.6v1.2l.1.6v1.2l.1.6v1.8l.1.6v1.3l.1.6v1.2l.1.6v1.2l.1.6v1.2l.1.6v1.8l.1.6v1.2l.1.7v1.2l.1.6v1.2l.1.6v1.8h2.5V66.3l.1.6v1.8l.1.6v1.2l.1.6v1.8l.1.6v1.2l.1.6v1.9l.1.6V79l.1.6v1.8l.1.6v1.2l.1.6v1.8l.1.6v1.2l.1.7v1.8l.1.6v1.2l.1.6v1.2h2.1V62.6l.1.6v1.2l.1.6v1.9l.1.6v1.8l.1.6v1.2l.1.6v1.8l.1.6v1.8l.1.6v1.9l.1.6v1.2l.1.6v1.8l.1.6V85l.1.6v1.8l.1.7v1.8l.1.6v1.2l.1.6v1.2h1.7z"/><path fill="url(#e)" d="M445.5 93.5v.6l32.6.6 19.1.6 13.6.6 10.5.6 8.6.6 7.2.6 6.3.6 5.6.6 4.9.7 4.5.6 4.1.6 3.8.6 3.5.6 3.2.6 3.1.6 2.8.6 2.7.6 2.6.6 2.4.6 2.3.6 2.2.6 2.1.6 2 .6 1.9.6 1.8.6 1.8.6 1.7.7 1.7.6 1.6.6 1.5.6 1.5.6 1.5.6 1.4.6 1.3.6 1.4.6 1.3.6 1.2.6 1.2.6 1.2.6 1.2.6 1.1.6 1.1.6 1.1.6 1.1.6 1 .7 1 .6 1 .6 1 .6.9.6 1 .6.9.6.9.6.9.6.8.6.9.6.8.6.8.6.8.6.8.6.8.6.8.6.7.6.8.7.7.6.7.6.7.6.7.6.7.6.7.6.6.6.7.6.7.6.6.6.6.6.7.6.6.6.6.6.6.6.6.6.6.6.5.6.6.7.6.6.5.6.6.6.5.6.6.6.5.6.5.6.5.6.6.6.5.6.5.6.5.6.5.6.4.6.5.6.5.6.5.6.4.7.5.6.5.6.4.6.5.6.4.6.5.6.4.6.4.6.5.6.4.6.4.6.4.6.5.6.4.6.4.6.4.6.4.6.4.7.4.6.4.6.3.6.4.6.4.6.4.6.4.6.3.6.4.6.4-77.5h32.3l.1.6.2.6.2.6.2.6.2.6.1.6.2.6.2.6.2.6.2.7.1.6.2.6.2.6.2.6.1.6.2.6.2.6.2.6.1.6.2.6.2.6.1.6.2.6.2.6.1.6.2.6.2.6.1.7.2.6.2.6.1.6.2.6.2.6.1.6.2.6.2.6.1.6.2.6.1.6.2.6.2.6.1.6.2.6.1.6.2.6.1.7.2.6.1.6.2.6.2.6.1.6.2.6.1.6.2.6.1.6.2.6.1.6.2.6.1.6.2.6.1.6.2.6.1.6.2.7.1.6.2.6.1.6.2.6.1.6.1.6.2.6.1.6.2.6.1.6.2.6.1.6.1.6.2.6.1.6.2.6.1.6.1.6.2.7.1.6.2.6.1.6.1.6.2.6.1.6.1.6.2.6.1.6.2.6.1.6.1.6.2.6.1.6.1.6.2.6.1.6.1.7.2.6.1.6.1.6.1.6.2.6.1.6.1.6.2.6.1.6.1.6.1.6.2.6.1.6.1.6.2.6.1.6.1.6.1.7.2.6.1.6.1.6.1.6.2.6.1.6.1.6.1.6.2.6.1-77.5h13.4l.1.6.1.6.1.6.1.6.1.6.1.6v.6l.1.6.1.6.1.7.1.6.1.6.1.6.1.6.1.6.1.6v.6l.1.6.1.6.1.6.1.6.1.6.1.6.1.6v.6l.1.6.1.6.1.7.1.6.1.6.1.6.1.6v.6l.1.6.1.6.1.6.1.6.1.6.1.6v.6l.1.6.1.6.1.6.1.6.1.6.1.7v.6l.1.6.1.6.1.6.1.6.1.6v.6l.1.6.1.6.1.6.1.6.1.6v.6l.1.6.1.6.1.6.1.6v.7l.1.6.1.6.1.6.1.6.1.6v.6l.1.6.1.6.1.6.1.6v.6l.1.6.1.6.1.6.1.6v.6l.1.6.1.6.1.7.1.6v.6l.1.6.1.6.1.6.1.6v.6l.1.6.1.6.1.6v.6l.1.6.1.6.1.6.1.6v.6l.1.6.1.7.1.6v.6l.1.6.1.6.1.6v.6l.1.6.1.6.1.6v.6l.1.6.1.6.1.6v.6l.1.6.1.6.1.6v.7l.1.6.1.6.1.6v.6l.1.6.1.6.1.6v.6l.1.6.1-77.5h3.8l.1 33.9v.6l.1.6.1.6v.6l.1.6.1.6v.6l.1.7.1.6v.6l.1.6.1.6v.6l.1.6.1.6v.6l.1.6.1.6v.6l.1.6.1.6v.6l.1.6.1.6v.6l.1.6.1.7v.6l.1.6.1.6v.6l.1.6v.6l.1.6.1.6v.6l.1.6.1.6v.6l.1.6.1.6v.6l.1.6.1.6v.7l.1.6v.6l.1.6.1.6v.6l.1.6.1.6v.6l.1.6v.6l.1.6.1.6v.6l.1.6.1.6v.6l.1.6v.7l.1.6.1.6v.6l.1.6.1.6v.6l.1.6v.6l.1.6.1-77.5h1.1v12.1l.1.6v.6l.1.6v.6l.1.6.1.6v.6l.1.7v.6l.1.6.1.6v.6l.1.6v.6l.1.6.1.6v.6l.1.6v.6l.1.6v.6l.1.6.1.6v.6l.1.6v.7l.1.6.1.6v.6l.1.6v.6l.1.6v.6l.1.6.1.6v.6l.1.6v.6l.1.6v.6l.1.6.1.6v.6l.1.6v.7l.1.6v.6l.1.6.1.6v.6l.1.6v.6l.1.6v.6l.1.6v.6l.1.6.1.6v.6l.1.6v.6l.1.6v.7l.1.6v.6l.1.6.1.6v.6l.1.6v.6l.1.6v.6l.1.6v.6l.1.6v.6l.1.6.1.6v.6l.1.6v.7l.1.6v.6l.1.6v.6l.1.6v.6l.1.6.1.6v.6l.1.6v.6l.1.6v.6l.1.6v.6l.1.6v.6l.1.7v.6l.1.6v.6l.1.6v.6l.1.6.1.6v.6l.1.6V93.5h.1v1.8l.1.6v.6l.1.6v.6l.1.6v.6l.1.7v.6l.1.6v.6l.1.6v.6l.1.6v.6l.1.6v.6l.1.6.1.6v.6l.1.6v.6l.1.6v.6l.1.6v.7l.1.6v.6l.1.6v.6l.1.6v.6l.1.6v.6l.1.6v.6l.1.6v.6l.1.6v.6l.1.6v.6l.1.6v.7l.1.6v.6l.1.6v.6l.1.6v.6l.1.6v.6l.1.6v.6l.1.6v.6l.1.6v.6l.1.6v.6l.1.6v.6l.1.7v.6l.1.6v.6l.1.6v.6l.1.6v1.2l.1.6v.6l.1.6v.6l.1.6v.6l.1.6v.6l.1.6v.7l.1.6v.6l.1.6v.6l.1.6v.6l.1.6v.6l.1.6v.6l.1.6v.6l.1.6v1.2l.1.6v.6l.1.7v.6l.1.6v.6l.1.6v.6l.1.6v.6l.1.6v.6l.1.6v.6l.1.6v1.2l.1.6v.6l.1.6V93.5h.4l.1.6v.6l.1.6v.6l.1.6v.6l.1.6v.6l.1.6v.7l.1.6v1.2l.1.6v.6l.1.6v.6l.1.6v.6l.1.6v.6l.1.6v1.2l.1.6v.6l.1.6v.7l.1.6v.6l.1.6v1.2l.1.6v.6l.1.6v.6l.1.6v.6l.1.6v1.2l.1.6v.6l.1.6v.7l.1.6v.6l.1.6v1.2l.1.6v.6l.1.6v.6l.1.6v1.2l.1.6v.6l.1.6v.6l.1.6v1.3l.1.6v.6l.1.6v.6l.1.6v1.2l.1.6v.6l.1.6v.6l.1.6v1.2l.1.6v.6l.1.6v.7l.1.6v1.2l.1.6v.6l.1.6v.6l.1.6v1.2l.1.6v.6l.1.6v.6l.1.6v1.2l.1.7v.6l.1.6v1.2l.1.6v.6l.1.6v.6l.1-66h.7v.6l.1.6v.6l.1.6v1.2l.1.6v.6l.1.6v1.3l.1.6v.6l.1.6v1.2l.1.6v.6l.1.6v1.2l.1.6v.6l.1.6v1.2l.1.6v.7l.1.6v1.2l.1.6v.6l.1.6v1.2l.1.6v.6l.1.6v1.2l.1.6v.6l.1.6v1.3l.1.6v.6l.1.6v1.2l.1.6v.6l.1.6v1.2l.1.6v1.2l.1.6v.6l.1.6v1.3l.1.6v.6l.1.6v1.2l.1.6v.6l.1.6v1.2l.1.6v1.2l.1.6v.6l.1.6v1.2l.1.7v1.2l.1.6v.6l.1.6v1.2l.1.6v.6l.1.6v1.2l.1.6v1.2l.1.6v.6l.1.7V93.5h1v1.2l.1.6v1.2l.1.6v.6l.1.6v1.3l.1.6v1.2l.1.6v1.2l.1.6v.6l.1.6v1.2l.1.6v1.2l.1.6v1.2l.1.7v.6l.1.6v1.2l.1.6v1.2l.1.6v1.2l.1.6v1.2l.1.6v.6l.1.6v1.3l.1.6v1.2l.1.6v1.2l.1.6v1.2l.1.6v1.2l.1.6v.6l.1.6v1.2l.1.6v1.3l.1.6v1.2l.1.6v1.2l.1.6v1.2l.1.6v1.2l.1.6v1.2l.1.6v.7l.1.6v1.2l.1.6v1.2l.1.6v1.2l.1.6v.6-56.9h1.1l.1.6v1.2l.1.6v1.2l.1.6v1.2l.1.7v1.2l.1.6v1.2l.1.6v1.2l.1.6v1.2l.1.6v1.2l.1.6v1.2l.1.7v1.2l.1.6v1.2l.1.6v1.2l.1.6v1.2l.1.6v1.2l.1.6v1.2l.1.7v1.2l.1.6v1.2l.1.6v1.2l.1.6v1.8l.1.6v1.2l.1.6v1.2l.1.7v1.2l.1.6v1.2l.1.6v1.2l.1.6v1.2l.1.6v1.2l.1.6v1.9l.1.6v1.2l.1.6v.6-53.3h1.2l.1.6v1.2l.1.6v1.2l.1.6v1.2l.1.7v1.8l.1.6v1.2l.1.6v1.2l.1.6v1.8l.1.6v1.2l.1.6v1.3l.1.6v1.8l.1.6v1.2l.1.6v1.2l.1.6v1.8l.1.6v1.3l.1.6v1.2l.1.6v1.8l.1.6v1.2l.1.6v1.2l.1.6v1.8l.1.7v1.2l.1.6v1.8l.1.6v1.2l.1.6v1.2l.1.6v1.8l.1.6v.6-49.6h1.3v.6l.1.6v1.2l.1.6v1.8l.1.6v1.3l.1.6v1.8l.1.6v1.2l.1.6v1.8l.1.6v1.8l.1.6v1.3l.1.6v1.8l.1.6v1.2l.1.6v1.8l.1.6v1.8l.1.6v1.3l.1.6v1.8l.1.6v1.8l.1.6v1.2l.1.6v1.8l.1.6v1.9l.1.6v1.2l.1.6v1.8l.1.6v1.2-46h1.4v.6l.1.6v1.8l.1.6v1.8l.1.7v1.8l.1.6v1.2l.1.6v1.8l.1.6v1.8l.1.6v1.9l.1.6v1.8l.1.6v1.8l.1.6v1.8l.1.6v1.8l.1.6v1.3l.1.6v1.8l.1.6v1.8l.1.6v1.8l.1.6v1.8l.1.6v.7-39.4z"/><path fill="none" stroke="#ef4444" stroke-linejoin="round" stroke-width="1.5" d="m445.5 94.1 32.6.6 19.1.6 13.6.6 10.5.6 8.6.6 7.2.6 6.3.6 5.6.6 4.9.7 4.5.6 4.1.6 3.8.6 3.5.6 3.2.6 3.1.6 2.8.6 2.7.6 2.6.6 2.4.6 2.3.6 2.2.6 2.1.6 2 .6 1.9.6 1.8.6 1.8.6 1.7.7 1.7.6 1.6.6 1.5.6 1.5.6 1.5.6 1.4.6 1.3.6 1.4.6 1.3.6 1.2.6 1.2.6 1.2.6 1.2.6 1.1.6 1.1.6 1.1.6 1.1.6 1 .7 1 .6 1 .6 1 .6.9.6 1 .6.9.6.9.6.9.6.8.6.9.6.8.6.8.6.8.6.8.6.8.6.8.6.7.6.8.7.7.6.7.6.7.6.7.6.7.6.7.6.6.6.7.6.7.6.6.6.6.6.7.6.6.6.6.6.6.6.6.6.6.6.5.6.6.7.6.6.5.6.6.6.5.6.6.6.5.6.5.6.5.6.6.6.5.6.5.6.5.6.5.6.4.6.5.6.5.6.5.6.4.7.5.6.5.6.4.6.5.6.4.6.5.6.4.6.4.6.5.6.4.6.4.6.4.6.5.6.4.6.4.6.4.6.4.6.4.7.4.6.4.6.3.6.4.6.4.6.4.6.4.6.3.6.4.6.4-154.4.3.6.4.6.4.6.3.6.4.6.3.6.4.6.3.6.4.7.3.6.3.6.4.6.3.6.3.6.4.6.3.6.3.6.3.6.3.6.4.6.3.6.3.6.3.6.3.6.3.6.3.6.3.7.3.6.3.6.3.6.3.6.3.6.3.6.3.6.3.6.3.6.3.6.2.6.3.6.3.6.3.6.2.6.3.6.3.6.3.7.2.6.3.6.3.6.2.6.3.6.3.6.2.6.3.6.2.6.3.6.3.6.2.6.3.6.2.6.3.6.2.6.3.6.2.7.2.6.3.6.2.6.3.6.2.6.3.6.2.6.2.6.3.6.2.6.2.6.3.6.2.6.2.6.2.6.3.6.2.6.2.6.2.7.3.6.2.6.2.6.2.6.3.6.2.6.2.6.2.6.2.6.2.6.2.6.3.6.2.6.2.6.2.6.2.6.2.6.2.7.2.6.2.6.2.6.2.6.2.6.2.6.2.6.2.6.2.6.2.6.2.6.2.6.2.6.2.6.2.6.2.6.2.6.2.7.2.6.1.6.2.6.2.6.2.6.2.6.2.6.2.6.2.6.1.6.2.6.2.6.2.6.2.6.1.6.2.6.2.6.2.6.2.7.1.6.2.6.2.6.2.6.1.6.2.6.2.6.2.6.1.6.2.6.2.6.1.6.2.6.2.6.1.6.2.6.2.6.1.7.2.6.2.6.1.6.2.6.2.6.1.6.2.6.2.6.1.6.2.6.1.6.2.6.2.6.1.6.2.6.1.6.2.6.1.7.2.6.1.6.2.6.2.6.1.6.2.6.1.6.2.6.1.6.2.6.1.6.2.6.1.6.2.6.1.6.2.6.1.6.2.7.1.6.2.6.1.6.2.6.1.6.1.6.2.6.1.6.2.6.1.6.2.6.1.6.1.6.2.6.1.6.2.6.1.6.1.6.2.7.1.6.2.6.1.6.1.6.2.6.1.6.1.6.2.6.1.6.2.6.1.6.1.6.2.6.1.6.1.6.2.6.1.6.1.7.2.6.1.6.1.6.1.6.2.6.1.6.1.6.2.6.1.6.1.6.1.6.2.6.1.6.1.6.2.6.1.6.1.6.1.7.2.6.1.6.1.6.1.6.2.6.1.6.1.6.1.6.2.6.1-154.4.1.6.1.6.1.6.2.6.1.6.1.6.1.6.1.6.2.7.1.6.1.6.1.6.1.6.2.6.1.6.1.6.1.6.1.6.1.6.2.6.1.6.1.6.1.6.1.6.1.6.2.6.1.7.1.6.1.6.1.6.1.6.1.6.1.6.2.6.1.6.1.6.1.6.1.6.1.6.1.6.1.6.2.6.1.6.1.6.1.7.1.6.1.6.1.6.1.6.1.6.1.6.1.6.1.6.2.6.1.6.1.6.1.6.1.6.1.6.1.6.1.6.1.6.1.6.1.7.1.6.1.6.1.6.1.6.1.6.1.6.1.6.1.6.2.6.1.6.1.6.1.6.1.6.1.6.1.6.1.6.1.6.1.7.1.6.1.6.1.6.1.6.1.6.1.6.1.6.1.6.1.6.1.6.1.6.1.6.1.6.1.6.1.6.1.6.1.6.1.7v.6l.1.6.1.6.1.6.1.6.1.6.1.6.1.6.1.6.1.6.1.6.1.6.1.6.1.6.1.6.1.6.1.6.1.7.1.6.1.6v.6l.1.6.1.6.1.6.1.6.1.6.1.6.1.6.1.6.1.6.1.6.1.6.1.6v.6l.1.6.1.6.1.7.1.6.1.6.1.6.1.6.1.6.1.6v.6l.1.6.1.6.1.6.1.6.1.6.1.6.1.6v.6l.1.6.1.6.1.7.1.6.1.6.1.6.1.6v.6l.1.6.1.6.1.6.1.6.1.6.1.6v.6l.1.6.1.6.1.6.1.6.1.6.1.7v.6l.1.6.1.6.1.6.1.6.1.6v.6l.1.6.1.6.1.6.1.6.1.6v.6l.1.6.1.6.1.6.1.6v.7l.1.6.1.6.1.6.1.6.1.6v.6l.1.6.1.6.1.6.1.6v.6l.1.6.1.6.1.6.1.6v.6l.1.6.1.6.1.7.1.6v.6l.1.6.1.6.1.6.1.6v.6l.1.6.1.6.1.6v.6l.1.6.1.6.1.6.1.6v.6l.1.6.1.7.1.6v.6l.1.6.1.6.1.6v.6l.1.6.1.6.1.6v.6l.1.6.1.6.1.6v.6l.1.6.1.6.1.6v.7l.1.6.1.6.1.6v.6l.1.6.1.6.1.6v.6l.1.6.1-154.4.1.6v.6l.1.6.1.6.1.6v.6l.1.6.1.6v.7l.1.6.1.6.1.6v.6l.1.6.1.6v.6l.1.6.1.6.1.6v.6l.1.6.1.6v.6l.1.6.1.6.1.6v.7l.1.6.1.6v.6l.1.6.1.6v.6l.1.6.1.6.1.6v.6l.1.6.1.6v.6l.1.6.1.6v.6l.1.6.1.7v.6l.1.6.1.6.1.6v.6l.1.6.1.6v.6l.1.6.1 78.1v.6l.1.6.1.6v.6l.1.6.1.6v.6l.1.7.1.6v.6l.1.6.1.6v.6l.1.6.1.6v.6l.1.6.1.6v.6l.1.6.1.6v.6l.1.6.1.6v.6l.1.6.1.7v.6l.1.6.1.6v.6l.1.6v.6l.1.6.1.6v.6l.1.6.1.6v.6l.1.6.1.6v.6l.1.6.1.6v.7l.1.6v.6l.1.6.1.6v.6l.1.6.1.6v.6l.1.6v.6l.1.6.1.6v.6l.1.6.1.6v.6l.1.6v.7l.1.6.1.6v.6l.1.6.1.6v.6l.1.6v.6l.1.6.1-154.4v.6l.1.6v.6l.1.6.1.6v.6l.1.6v.6l.1.7.1.6v.6l.1.6.1.6v.6l.1.6v.6l.1.6.1.6v78.1l.1.6v.6l.1.6v.6l.1.6.1.6v.6l.1.7v.6l.1.6.1.6v.6l.1.6v.6l.1.6.1.6v.6l.1.6v.6l.1.6v.6l.1.6.1.6v.6l.1.6v.7l.1.6.1.6v.6l.1.6v.6l.1.6v.6l.1.6.1.6v.6l.1.6v.6l.1.6v.6l.1.6.1.6v.6l.1.6v.7l.1.6v.6l.1.6.1.6v.6l.1.6v.6l.1.6v.6l.1.6v.6l.1.6.1.6v.6l.1.6v.6l.1.6v.7l.1.6v.6l.1.6.1.6v.6l.1.6v.6l.1.6v.6l.1.6v.6l.1.6v.6l.1.6.1.6v.6l.1.6v.7l.1.6v.6l.1.6v.6l.1.6v.6l.1.6.1.6v.6l.1.6v.6l.1.6v.6l.1.6v.6l.1.6v.6l.1.7v.6l.1.6v.6l.1.6v.6l.1.6.1.6v.6l.1.6V16.6l.1.6v78.1l.1.6v.6l.1.6v.6l.1.6v.6l.1.7v.6l.1.6v.6l.1.6v.6l.1.6v.6l.1.6v.6l.1.6.1.6v.6l.1.6v.6l.1.6v.6l.1.6v.7l.1.6v.6l.1.6v.6l.1.6v.6l.1.6v.6l.1.6v.6l.1.6v.6l.1.6v.6l.1.6v.6l.1.6v.7l.1.6v.6l.1.6v.6l.1.6v.6l.1.6v.6l.1.6v.6l.1.6v.6l.1.6v.6l.1.6v.6l.1.6v.6l.1.7v.6l.1.6v.6l.1.6v.6l.1.6v1.2l.1.6v.6l.1.6v.6l.1.6v.6l.1.6v.6l.1.6v.7l.1.6v.6l.1.6v.6l.1.6v.6l.1.6v.6l.1.6v.6l.1.6v.6l.1.6v1.2l.1.6v.6l.1.7v.6l.1.6v.6l.1.6v.6l.1.6v.6l.1.6v.6l.1.6v.6l.1.6v1.2l.1.6v.6l.1.6V88.1l.1.6v.6l.1.6v.6l.1.6v.6l.1.6v1.2l.1.6v.6l.1.6v.6l.1.6v.6l.1.6v.6l.1.6v.7l.1.6v1.2l.1.6v.6l.1.6v.6l.1.6v.6l.1.6v.6l.1.6v1.2l.1.6v.6l.1.6v.7l.1.6v.6l.1.6v1.2l.1.6v.6l.1.6v.6l.1.6v.6l.1.6v1.2l.1.6v.6l.1.6v.7l.1.6v.6l.1.6v1.2l.1.6v.6l.1.6v.6l.1.6v1.2l.1.6v.6l.1.6v.6l.1.6v1.3l.1.6v.6l.1.6v.6l.1.6v1.2l.1.6v.6l.1.6v.6l.1.6v1.2l.1.6v.6l.1.6v.7l.1.6v1.2l.1.6v.6l.1.6v.6l.1.6v1.2l.1.6v.6l.1.6v.6l.1.6v1.2l.1.7v.6l.1.6v1.2l.1.6v.6l.1.6v.6l.1-76.9v1.2l.1.6v.6l.1.6v1.2l.1.6v.7l.1.6v.6l.1.6v1.2l.1.6v.6l.1.6v1.2l.1.6v.6l.1.6v1.2l.1.6v.6l.1.6v1.3l.1.6v.6l.1.6v1.2l.1.6v.6l.1.6v1.2l.1.6v.6l.1.6v1.2l.1.6v.7l.1.6v1.2l.1.6v.6l.1.6v1.2l.1.6v.6l.1.6v1.2l.1.6v.6l.1.6v1.3l.1.6v.6l.1.6v1.2l.1.6v.6l.1.6v1.2l.1.6v1.2l.1.6v.6l.1.6v1.3l.1.6v.6l.1.6v1.2l.1.6v.6l.1.6v1.2l.1.6v1.2l.1.6v.6l.1.6v1.2l.1.7v1.2l.1.6v.6l.1.6v1.2l.1.6v.6l.1.6v1.2l.1.6v1.2l.1.6v.6l.1.7V77.8v.6l.1.6v1.2l.1.6v.6l.1.6v1.2l.1.6V85l.1.6v.6l.1.6v1.3l.1.6v1.2l.1.6v1.2l.1.6v.6l.1.6v1.2l.1.6v1.2l.1.6v.6l.1.6v1.3l.1.6v1.2l.1.6v1.2l.1.6v.6l.1.6v1.2l.1.6v1.2l.1.6v1.2l.1.7v.6l.1.6v1.2l.1.6v1.2l.1.6v1.2l.1.6v1.2l.1.6v.6l.1.6v1.3l.1.6v1.2l.1.6v1.2l.1.6v1.2l.1.6v1.2l.1.6v.6l.1.6v1.2l.1.6v1.3l.1.6v1.2l.1.6v1.2l.1.6v1.2l.1.6v1.2l.1.6v1.2l.1.6v.7l.1.6v1.2l.1.6v1.2l.1.6v1.2l.1.6v.6-76.9l.1.6v1.2l.1.6v1.3l.1.6V79l.1.6v1.2l.1.6v1.2l.1.6v1.2l.1.6v1.2l.1.6v1.3l.1.6v1.2l.1.6v1.2l.1.6v1.2l.1.6v1.2l.1.6v1.2l.1.6v1.2l.1.7v1.2l.1.6v1.2l.1.6v1.2l.1.6v1.2l.1.6v1.2l.1.6v1.2l.1.7v1.2l.1.6v1.2l.1.6v1.2l.1.6v1.2l.1.6v1.2l.1.6v1.2l.1.7v1.2l.1.6v1.2l.1.6v1.2l.1.6v1.8l.1.6v1.2l.1.6v1.2l.1.7v1.2l.1.6v1.2l.1.6v1.2l.1.6v1.2l.1.6v1.2l.1.6v1.9l.1.6v1.2l.1.6v.6-76.9l.1.6v1.2l.1.6v1.2l.1.6v1.8l.1.6v1.3l.1.6v1.2l.1.6v1.2l.1.6v1.2l.1.6v1.8l.1.6v1.2l.1.7v1.2l.1.6v1.2l.1.6v1.8l.1.6v1.2l.1.6v1.2l.1.6v1.2l.1.7v1.8l.1.6v1.2l.1.6v1.2l.1.6v1.8l.1.6v1.2l.1.6v1.3l.1.6v1.8l.1.6v1.2l.1.6v1.2l.1.6v1.8l.1.6v1.3l.1.6v1.2l.1.6v1.8l.1.6v1.2l.1.6v1.2l.1.6v1.8l.1.7v1.2l.1.6v1.8l.1.6v1.2l.1.6v1.2l.1.6v1.8l.1.6v.6-76.8l.1.6v1.8l.1.6v1.2l.1.6v1.8l.1.6v1.2l.1.6v1.9l.1.6V79l.1.6v1.8l.1.6v1.2l.1.6v1.8l.1.6v1.2l.1.7v1.8l.1.6v1.2l.1.6v1.8l.1.6v1.2l.1.6v1.8l.1.6v1.3l.1.6v1.8l.1.6v1.2l.1.6v1.8l.1.6v1.8l.1.6v1.3l.1.6v1.8l.1.6v1.2l.1.6v1.8l.1.6v1.8l.1.6v1.3l.1.6v1.8l.1.6v1.8l.1.6v1.2l.1.6v1.8l.1.6v1.9l.1.6v1.2l.1.6v1.8l.1.6v1.2-76.9l.1.6v1.2l.1.6v1.9l.1.6v1.8l.1.6v1.2l.1.6v1.8l.1.6v1.8l.1.6v1.9l.1.6v1.2l.1.6v1.8l.1.6V85l.1.6v1.8l.1.7v1.8l.1.6v1.2l.1.6v1.8l.1.6v1.8l.1.6v1.8l.1.7v1.8l.1.6v1.2l.1.6v1.8l.1.6v1.8l.1.6v1.9l.1.6v1.8l.1.6v1.8l.1.6v1.8l.1.6v1.8l.1.6v1.3l.1.6v1.8l.1.6v1.8l.1.6v1.8l.1.6v1.8l.1.6v.7"/></g><path stroke="#d1d5db" d="M34 221v155m0-77.5h358"/><text x="213" y="402" fill="#6b7280" font-size="9" text-anchor="middle">Hz</text><text x="12" y="298.5" fill="#6b7280" font-size="9" text-anchor="middle" transform="rotate(-90 12 298.5)">Delay (smp)</text><path stroke="#e5e7eb" stroke-width=".5" d="M66.6 221v155m19.1-155v155m13.6-155v155m10.5-155v155m8.6-155v155m7.3-155v155m6.2-155v155m5.6-155v155m37.6-155v155m19.1-155v155m13.5-155v155m10.6-155v155m8.5-155v155m7.3-155v155m6.3-155v155m5.5-155v155m37.6-155v155m19.1-155v155m13.6-155v155m10.5-155v155m8.6-155v155m7.3-155v155m6.2-155v155m5.6-155v155M392 221v155M142.5 221v155"/><text x="142.5" y="388" fill="#6b7280" font-size="8" text-anchor="middle">100</text><path stroke="#e5e7eb" stroke-width=".5" d="M250.9 221v155"/><text x="250.9" y="388" fill="#6b7280" font-size="8" text-anchor="middle">1k</text><path stroke="#e5e7eb" stroke-width=".5" d="M359.4 221v155"/><text x="359.4" y="388" fill="#6b7280" font-size="8" text-anchor="middle">10k</text><path stroke="#e5e7eb" stroke-width=".5" d="M34 376h358"/><text x="30" y="379" fill="#6b7280" font-size="8" text-anchor="end">-100</text><path stroke="#e5e7eb" stroke-width=".5" d="M34 337.3h358"/><text x="30" y="340.3" fill="#6b7280" font-size="8" text-anchor="end">-50</text><text x="30" y="301.5" fill="#6b7280" font-size="8" text-anchor="end">0</text><path stroke="#e5e7eb" stroke-width=".5" d="M34 259.8h358"/><text x="30" y="262.8" fill="#6b7280" font-size="8" text-anchor="end">50</text><path stroke="#e5e7eb" stroke-width=".5" d="M34 221h358"/><text x="30" y="224" fill="#6b7280" font-size="8" text-anchor="end">100</text><g clip-path="url(#f)"><path fill="url(#g)" d="M37.5 298.5v-12.4h308.1l.1 12.4h.1v-12.4h5.7l.1 12.4.1-12.4h6l.1 12.4.1-12.4h5.5l.1 12.4.1-12.4h5.1v12.4h.1v-12.4h4.6l.1 12.4v-12.4h4.3v12.4l.1-12.4h3.9v12.4l.1-12.4h3.6v12.4l.1-12.4h3.3v12.4l.1-12.4h3v12.4z"/><path fill="url(#h)" d="M37.5 298.5h308.1l.1 77.5h.1v-77.5h5.7l.1 77.5.1-77.5h6l.1 77.5.1-77.5h5.5l.1 77.5.1-77.5h5.1V376h.1v-77.5h4.6l.1 77.5v-77.5h4.3V376l.1-77.5h3.9V376l.1-77.5h3.6V376l.1-77.5h3.3V376l.1-77.5h3z"/><path fill="none" stroke="#22c55e" stroke-linejoin="round" stroke-width="1.5" d="M37.5 286.1h308.1l.1 89.9m.1 0v-89.9h5.7l.1 89.9m0 0 .1-89.9h6l.1 89.9"/><path fill="none" stroke="#22c55e" stroke-linejoin="round" stroke-width="1.5" d="m357.8 376 .1-89.9h5.5l.1 89.9"/><path fill="none" stroke="#22c55e" stroke-linejoin="round" stroke-width="1.5" d="m363.5 376 .1-89.9h5.1V376m.1 0v-89.9h4.6l.1 89.9"/><path fill="none" stroke="#22c55e" stroke-linejoin="round" stroke-width="1.5" d="M373.5 376v-89.9h4.3V376m0 0 .1-89.9h3.9V376m0 0 .1-89.9h3.6V376"/><path fill="none" stroke="#22c55e" stroke-linejoin="round" stroke-width="1.5" d="m385.5 376 .1-89.9h3.3V376"/><path fill="none" stroke="#22c55e" stroke-linejoin="round" stroke-width="1.5" d="m388.9 376 .1-89.9h3"/></g><path stroke="#d1d5db" d="M442 221v155m0-77.5h358"/><text x="621" y="402" fill="#6b7280" font-size="9" text-anchor="middle">Samples</text><text x="420" y="298.5" fill="#6b7280" font-size="9" text-anchor="middle" transform="rotate(-90 420 298.5)">Impulse</text><path stroke="#e5e7eb" stroke-width=".5" d="M442 221v155"/><text x="442" y="388" fill="#6b7280" font-size="8" text-anchor="middle">0</text><path stroke="#e5e7eb" stroke-width=".5" d="M659 221v155"/><text x="659" y="388" fill="#6b7280" font-size="8" text-anchor="middle">20</text><path stroke="#e5e7eb" stroke-width=".5" d="M442 363.1h358"/><text x="438" y="366.1" fill="#6b7280" font-size="8" text-anchor="end">-1</text><text x="438" y="301.5" fill="#6b7280" font-size="8" text-anchor="end">0</text><path stroke="#e5e7eb" stroke-width=".5" d="M442 233.9h358"/><text x="438" y="236.9" fill="#6b7280" font-size="8" text-anchor="end">1</text><path stroke="#e5e7eb" stroke-dasharray="3 2" stroke-width=".5" d="M442 233.9h358"/><text x="438" y="236.9" fill="#6b7280" font-size="7" text-anchor="end">+1</text><path stroke="#e5e7eb" stroke-dasharray="3 2" stroke-width=".5" d="M442 363.1h358"/><text x="438" y="366.1" fill="#6b7280" font-size="7" text-anchor="end">-1</text><g clip-path="url(#i)"><path fill="url(#j)" d="M442 298.5h43.4l10.8-1 10.9-.9 10.8.1 10.9 1.8h43.4L583 289l10.9-11.4 10.8-9.3 10.9-3.6 10.8 3.6 10.9 9.3 10.8 11.4 10.9 9.5h43.4l10.8-1.8 10.9-.1 10.8.9 10.9 1h43.4z"/><path fill="url(#k)" d="m442 298.5 10.8.2 10.9.3h10.8l10.9-.5h43.4l10.8 3 10.9 2.5 10.8-.4 10.9-5.1H659l10.8 5.1 10.9.4 10.8-2.5 10.9-3h43.4l10.8.5h10.9l10.8-.3 10.9-.2z"/><path fill="none" stroke="#eab308" stroke-linejoin="round" stroke-width="1.2" d="m442 298.5 10.8.2 10.9.3h10.8l10.9-.5 10.8-1 10.9-.9 10.8.1 10.9 1.8 10.8 3 10.9 2.5 10.8-.4 10.9-5.1L583 289l10.9-11.4 10.8-9.3 10.9-3.6 10.8 3.6 10.9 9.3 10.8 11.4 10.9 9.5 10.8 5.1 10.9.4 10.8-2.5 10.9-3 10.8-1.8 10.9-.1 10.8.9 10.9 1 10.8.5h10.9l10.8-.3 10.9-.2"/></g></svg>