<svg xmlns="http://www.w3.org/2000/svg" style="font-family:system-ui,-apple-system,sans-serif" viewBox="0 0 820 392"><defs><linearGradient id="b" x1="0" x2="0" y1="47" y2="171" gradientUnits="userSpaceOnUse"><stop offset="0%" stop-color="#3b82f6" stop-opacity=".15"/><stop offset="100%" stop-color="#3b82f6" stop-opacity=".01"/></linearGradient><linearGradient id="d" x1="0" x2="0" y1="25" y2="94" gradientUnits="userSpaceOnUse"><stop offset="0%" stop-color="#ef4444" stop-opacity=".15"/><stop offset="100%" stop-color="#ef4444" stop-opacity=".01"/></linearGradient><linearGradient id="e" x1="0" x2="0" y1="94" y2="161" gradientUnits="userSpaceOnUse"><stop offset="0%" stop-color="#ef4444" stop-opacity=".01"/><stop offset="100%" stop-color="#ef4444" stop-opacity=".15"/></linearGradient><linearGradient id="g" x1="0" x2="0" y1="221" y2="299" gradientUnits="userSpaceOnUse"><stop offset="0%" stop-color="#22c55e" stop-opacity=".15"/><stop offset="100%" stop-color="#22c55e" stop-opacity=".01"/></linearGradient><linearGradient id="h" x1="0" x2="0" y1="299" y2="376" gradientUnits="userSpaceOnUse"><stop offset="0%" stop-color="#22c55e" stop-opacity=".01"/><stop offset="100%" stop-color="#22c55e" stop-opacity=".15"/></linearGradient><linearGradient id="j" x1="0" x2="0" y1="290" y2="299" gradientUnits="userSpaceOnUse"><stop offset="0%" stop-color="#eab308" stop-opacity=".15"/><stop offset="100%" stop-color="#eab308" stop-opacity=".01"/></linearGradient><clipPath id="a"><path d="M34 16h358v155H34z"/></clipPath><clipPath id="c"><path d="M442 16h358v155H442z"/></clipPath><clipPath id="f"><path d="M34 221h358v155H34z"/></clipPath><clipPath id="i"><path d="M442 221h358v155H442z"/></clipPath></defs><text x="800" y="11" fill="#6b7280" font-size="11" font-weight="600" text-anchor="end">Moving average, N=8</text><path stroke="#d1d5db" d="M34 16v155m0-124h358"/><text x="213" y="197" fill="#6b7280" font-size="9" text-anchor="middle">Hz</text><text x="12" y="93.5" fill="#6b7280" font-size="9" text-anchor="middle" transform="rotate(-90 12 93.5)">dB</text><path stroke="#e5e7eb" stroke-width=".5" d="M66.6 16v155M85.7 16v155M99.3 16v155m10.5-155v155m8.6-155v155m7.3-155v155m6.2-155v155m5.6-155v155m37.6-155v155m19.1-155v155m13.5-155v155m10.6-155v155m8.5-155v155m7.3-155v155m6.3-155v155m5.5-155v155m37.6-155v155m19.1-155v155m13.6-155v155m10.5-155v155m8.6-155v155m7.3-155v155m6.2-155v155m5.6-155v155M392 16v155M34 16v155"/><text x="34" y="183" fill="#6b7280" font-size="8" text-anchor="middle">10</text><path stroke="#e5e7eb" stroke-width=".5" d="M142.5 16v155"/><text x="142.5" y="183" fill="#6b7280" font-size="8" text-anchor="middle">100</text><path stroke="#e5e7eb" stroke-width=".5" d="M250.9 16v155"/><text x="250.9" y="183" fill="#6b7280" font-size="8" text-anchor="middle">1k</text><path stroke="#e5e7eb" stroke-width=".5" d="M359.4 16v155"/><text x="359.4" y="183" fill="#6b7280" font-size="8" text-anchor="middle">10k</text><path stroke="#e5e7eb" stroke-width=".5" d="M34 171h358M34 140h358M34 109h358M34 78h358M34 16h358M34 62.5h358m-358-31h358"/><text x="30" y="174" fill="#6b7280" font-size="8" text-anchor="end">-80</text><text x="30" y="143" fill="#6b7280" font-size="8" text-anchor="end">-60</text><text x="30" y="112" fill="#6b7280" font-size="8" text-anchor="end">-40</text><text x="30" y="81" fill="#6b7280" font-size="8" text-anchor="end">-20</text><text x="30" y="50" fill="#6b7280" font-size="8" text-anchor="end">0</text><text x="30" y="19" fill="#6b7280" font-size="8" text-anchor="end">+20</text><g clip-path="url(#a)"><path fill="url(#b)" d="M37.5 171V47h149.7l1.9.1h24.4l1.1.1h10.8l.8.1h7.2l.7.1h5.5l.6.1h3.7l.6.1h3.3l.6.1h3.1l.5.1h2.4l.4.1h2.3l.5.1h1.7l.4.1h1.7l.4.1h1.6l.3.1h1.6l.3.1h1.1l.4.1h1.1l.3.1h1.4l.3.1h1l.4.1h.9l.3.1h.7l.3.1h.9l.3.1h.9l.3.1h.6l.3.1h.9l.3.1h.5l.3.1h.5l.3.1h.6l.2.1h.6l.2.1h.8l.3.1h.5l.3.1h.5l.2.1h.3l.2.1h.5l.2.1h.5l.3.1h.5l.2.1h.2l.3.1h.4l.3.1h.4l.2.1h.3l.2.1h.4l.3.1h.2l.2.1h.5l.2.1h.2l.2.1h.4l.2.1h.3l.2.1h.2l.2.1h.2l.2.1h.4l.2.1h.2l.2.1h.2l.2.1h.2l.2.1h.2l.2.1h.4l.2.1h.2l.2.1h.2l.2.1h.2l.2.1h.1l.2.1h.2l.2.1h.2l.2.1h.2l.2.1h.1l.2.1.2.1h.2l.2.1h.1l.2.1h.2l.2.1h.2l.1.1h.2l.2.1h.2l.1.1.2.1h.2l.2.1h.1l.2.1.2.1h.1l.2.1h.2l.1.1h.2l.2.1.1.1h.2l.2.1.1.1h.2l.2.1h.1l.2.1.2.1h.1l.2.1.1.1h.2l.2.1.1.1h.2l.1.1.2.1h.1l.2.1.1.1h.2l.2.1.1.1h.2l.1.1.2.1.1.1h.2l.1.1.2.1h.1l.2.1.1.1.2.1h.1l.2.1.1.1.2.1h.1l.2.1.1.1.1.1.2.1h.1l.2.1.1.1.2.1.1.1h.1l.2.1.1.1.2.1.1.1.1.1h.2l.1.1.2.1.1.1.1.1.2.1.1.1h.1l.2.1.1.1.2.1.1.1.1.1.2.1.1.1.1.1.2.1.1.1.1.1.2.1.1.1h.1l.1.1.2.1.1.1.1.1.2.1.1.1.1.1.1.2.2.1.1.1.1.1.2.1.1.1.1.1.1.1.2.1.1.1.1.1.1.1.2.1.1.2.1.1.1.1.2.1.1.1.1.1.1.2.1.1.2.1.1.1.1.1.1.2.1.1.2.1.1.2.1.1.1.1.1.1.2.2.1.1.1.1.1.2.1.1.1.1.2.2.1.1.1.2.1.1.1.2.1.1.2.1.1.2.1.1.1.2.1.1.1.2.1.2.1.1.2.2.1.1.1.2.1.2.1.1.1.2.1.2.1.1.2.2.1.2.1.2.1.1.1.2.1.2.1.2.1.2.1.2.1.2.1.2.1.2.2.2.1.2.1.2.1.2.1.2.1.2.1.2.1.2.1.3.1.2.1.2.1.2.1.3.1.2.1.3.1.2.1.3.1.2.1.3.2.3.1.2.1.3.1.3.1.3.1.3.1.3.1.3.1.3.1.3.1.3.1.3.1.4.1.3.1.4.1.3.1.4.1.4.1.4.1.4.1.4.1.4.1.4.1.5.1.5.1.4.1.5.1.5v.6l.1.5.1.6.1.6.1.6.1.7.1.6.1.7.1.8.1.8.1.8.1.9.1 1 .1 1 .1 1.1.1 1.2.1 1.3.1 1.4.1 1.6.1 1.9v2.1l.1 2.4.1 3.1.1 3.9.1 5.5.1 9.3.1 40.4.1-40.3.1-9.3.1-5.5.1-3.8.1-3 .1-2.4v-2.1l.1-1.8.1-1.5.1-1.4.1-1.3.1-1.1.1-1.1.1-.9.1-.9.1-.9v-.8l.1-.7.1-.7.1-.7.1-.6.1-.6.1-.6.1-.5V88l.1-.5.1-.5.1-.5.1-.4.1-.5.1-.4.1-.4v-.3l.1-.4.1-.4.1-.3.1-.4.1-.3.1-.3v-.3l.1-.3.1-.3.1-.3.1-.3.1-.3.1-.2v-.3l.1-.2.1-.3.1-.2.1-.3.1-.2v-.2l.1-.2.1-.3.1-.2.1-.2.1-.2v-.2l.1-.2.1-.2.1-.1.1-.2v-.2l.1-.2.1-.2.1-.1.1-.2.1-.2v-.1l.1-.2.1-.1.1-.2.1-.1v-.2l.1-.1.1-.2.1-.1.1-.1V74l.1-.1.1-.1.1-.2.1-.1v-.1l.1-.1.1-.2.1-.1.1-.1v-.1l.1-.1.1-.1.1-.1v-.1l.1-.1.1-.2.1-.1.1-.1v-.1l.1-.1h.1l.1-.1v-.1l.1-.1.1-.1.1-.1v-.1l.1-.1.1-.1.1-.1.1-.1.1-.1.1-.1v-.1h.1l.1-.1.1-.1v-.1h.1l.1-.1.1-.1.1-.1.1-.1h.1v-.1l.1-.1h.1l.1-.1.1-.1.1-.1h.1v-.1h.1l.1-.1.1-.1.1-.1h.1v-.1h.1l.1-.1.1-.1h.2v-.1h.1l.1-.1.1-.1h.1l.1-.1h.1l.1-.1h.1l.1-.1.1-.1h.2v-.1h.2l.1-.1h.1l.1-.1h.2l.1-.1h.1l.1-.1h.3v-.1h.3l.1-.1h.3l.1-.1h.4l.1-.1h.8v-.1h.9l.1.1h.8l.1.1h.4l.1.1h.3l.1.1h.2l.1.1h.3v.1h.2l.1.1h.1l.1.1h.2v.1h.1l.1.1h.1l.1.1h.1l.1.1h.1v.1h.1l.1.1h.1l.1.1h.1l.1.1.1.1.1.1h.1l.1.1.1.1.1.1h.1l.1.1.1.1.1.1.1.1h.1v.1h.1v.1h.1v.1l.1.1.1.1h.1v.1h.1v.1h.1v.1l.1.1.1.1.1.1.1.1.1.1v.1h.1v.1l.1.1.1.1.1.1.1.1v.1l.1.1.1.1v.1l.1.1.1.1.1.1v.1l.1.1.1.1v.1l.1.1v.1h.1v.1l.1.1v.1l.1.1v.1l.1.1v.1l.1.1h.1v.1l.1.1v.1l.1.1v.1l.1.1v.1l.1.1v.1l.1.1v.1l.1.1v.1l.1.2v.1l.1.1v.1l.1.1v.1l.1.1v.1l.1.2.1.1v.1l.1.1v.1l.1.2v.1l.1.1v.1l.1.2v.1l.1.1v.2l.1.1v.1l.1.2v.1l.1.2v.1l.1.2v.1l.1.2v.1l.1.2v.1l.1.2v.1l.1.2v.2l.1.1v.2l.1.2v.2l.1.1v.2l.1.2v.2l.1.2v.2l.1.2v.2l.1.1v.3l.1.2v.2l.1.2v.2l.1.2v.2l.1.3v.2l.1.2v.5l.1.3v.2l.1.3v.2l.1.3v.3l.1.3v.3l.1.2v.3l.1.4v.3l.1.3v.3l.1.4v.3l.1.4v.3l.1.4v.4l.1.4v.4l.1.4v.9l.1.4v.5l.1.5v.5l.1.6v.5l.1.6v.6l.1.6v.7l.1.7v.7l.1.8v.8l.1.9v2l.1 1v1.2l.1 1.3v1.4l.1 1.6v1.8l.1 2.1v2.5l.1 3v3.9l.1 5.5V171l.1-32.1v-9.3l.1-5.5v-3.8l.1-3v-2.5l.1-2V111l.1-1.6V108l.1-1.3v-2.2l.1-1v-.9l.1-.8v-.8l.1-.8v-.7l.1-.7v-.6l.1-.6v-1.2l.1-.5v-.5l.1-.5v-.5l.1-.5v-.4l.1-.4v-.8l.1-.4v-.4l.1-.4v-.3l.1-.4v-.3l.1-.3v-.6l.1-.3v-.3l.1-.3V88l.1-.3v-.2l.1-.3v-.5l.1-.2v-.3l.1-.2v-.2l.1-.3v-.4l.1-.2v-.2l.1-.2v-.2l.1-.2v-.4l.1-.2v-.2l.1-.1V83l.1-.2v-.3l.1-.2v-.2l.1-.1v-.2l.1-.1v-.3l.1-.2v-.1l.1-.2v-.1l.1-.1v-.3l.1-.1v-.2l.1-.1v-.1l.1-.1v-.3l.1-.1v-.1l.1-.1v-.1l.1-.2v-.2l.1-.1v-.1l.1-.1v-.2l.1-.1V78l.1-.1v-.1l.1-.1v-.2l.1-.1v-.1l.1-.1v-.1l.1-.1v-.1l.1-.1v-.1h.1v-.2l.1-.1v-.1h.1v-.2l.1-.1.1-.1v-.1l.1-.1v-.1h.1v-.2h.1v-.1h.1v-.2h.1V75h.1v-.2h.1v-.1h.1v-.1l.1-.1.1-.1v-.1h.1v-.1h.1v-.1h.1V74h.1v-.1l.1-.1h.1v-.1l.1-.1h.1v-.1h.1v-.1h.1v-.1h.1l.1-.1h.1v-.1h.1l.1-.1h.1v-.1h.2v-.1h.2v-.1h.2v-.1h.3l.1-.1h1.3v.1h.3l.1.1h.2v.1h.2v.1h.2v.1h.1v.1h.1l.1.1h.1v.1h.1v.1h.1v.1h.1v.1h.1v.1h.1v.1h.1l.1.1v.1h.1v.1h.1v.1h.1v.1l.1.1v.1h.1v.1l.1.1v.1h.1v.1h.1v.1l.1.1v.1l.1.1v.1h.1v.1l.1.1v.1l.1.1v.1l.1.1v.1l.1.1v.1l.1.1v.1l.1.1v.2h.1v.2l.1.1v.1l.1.1v.2h.1v.2l.1.1v.2l.1.1v.1l.1.1v.2l.1.1v.2l.1.1v.2l.1.1v.2l.1.1v.2l.1.1v.3l.1.1v.2l.1.1v.3l.1.1v.2l.1.2v.2l.1.1v.3l.1.2v.2l.1.2v.3l.1.1v.3l.1.2v.3l.1.1v.4l.1.1v.4l.1.2v.5l.1.2v.4l.1.2v.4l.1.2v.4l.1.2v.5l.1.2v.5l.1.2v.5l.1.3v.5l.1.3v.8l.1.3v.6l.1.4v.6l.1.4v.7l.1.4v.8l.1.4v1.3l.1.5v1l.1.5v1.1l.1.6v1.3l.1.7v1.5l.1.8v2.8l.1 1.1v2.5l.1 1.4v3.4l.1 2.1v5.4l.1 3.9V171l.1-28.5v-14.8l.1-3.8v-5.5l.1-2.1V113l.1-1.4V108l.1-.9v-1.8l.1-.8V103l.1-.7v-1.9l.1-.5v-1.1l.1-.5v-.9l.1-.5v-1.2l.1-.4v-.8l.1-.3v-.7l.1-.4v-.9l.1-.3v-.6l.1-.3v-.5l.1-.2v-.8l.1-.2v-.5l.1-.2v-.5l.1-.2v-.6l.1-.2v-.4l.1-.2V86l.1-.2v-.3l.1-.2V85l.1-.2v-.4l.1-.2v-.3l.1-.1v-.4l.1-.2V83l.1-.2v-.3l.1-.2v-.2l.1-.1v-.4l.1-.1v-.2l.1-.1v-.3l.1-.1v-.2l.1-.1v-.3l.1-.1v-.2l.1-.1v-.2l.1-.1v-.2l.1-.1V79l.1-.1v-.1l.1-.1v-.2l.1-.1v-.1l.1-.1V78l.1-.1v-.1l.1-.1v-.2h.1v-.2h.1v-.2h.1v-.2h.1v-.1l.1-.1v-.1l.1-.1v-.1h.1v-.1l.1-.1v-.1h.1V76l.1-.1.1-.1v-.1h.1v-.1h.1v-.1h.1v-.1h.1v-.1h.1v-.1h.1v-.1h.1l.1-.1h.1v-.1h.2v-.1h.4v-.1h.4v.1h.4v.1h.2v.1h.1v.1h.1l.1.1h.1v.1h.1v.1h.1v.1h.1v.1h.1v.1l.1.1v.1h.1V171z"/><path fill="none" stroke="#3b82f6" stroke-linejoin="round" stroke-width="1.5" d="M37.5 47h149.7l1.9.1h24.4l1.1.1h10.8l.8.1h7.2l.7.1h5.5l.6.1h3.7l.6.1h3.3l.6.1h3.1l.5.1h2.4l.4.1h2.3l.5.1h1.7l.4.1h1.7l.4.1h1.6l.3.1h1.6l.3.1h1.1l.4.1h1.1l.3.1h1.4l.3.1h1l.4.1h.9l.3.1h.7l.3.1h.9l.3.1h.9l.3.1h.6l.3.1h.9l.3.1h.5l.3.1h.5l.3.1h.6l.2.1h.6l.2.1h.8l.3.1h.5l.3.1h.5l.2.1h.3l.2.1h.5l.2.1h.5l.3.1h.5l.2.1h.2l.3.1h.4l.3.1h.4l.2.1h.3l.2.1h.4l.3.1h.2l.2.1h.5l.2.1h.2l.2.1h.4l.2.1h.3l.2.1h.2l.2.1h.2l.2.1h.4l.2.1h.2l.2.1h.2l.2.1h.2l.2.1h.2l.2.1h.4l.2.1h.2l.2.1h.2l.2.1h.2l.2.1h.1l.2.1h.2l.2.1h.2l.2.1h.2l.2.1h.1l.2.1.2.1h.2l.2.1h.1l.2.1h.2l.2.1h.2l.1.1h.2l.2.1h.2l.1.1.2.1h.2l.2.1h.1l.2.1.2.1h.1l.2.1h.2l.1.1h.2l.2.1.1.1h.2l.2.1.1.1h.2l.2.1h.1l.2.1.2.1h.1l.2.1.1.1h.2l.2.1.1.1h.2l.1.1.2.1h.1l.2.1.1.1h.2l.2.1.1.1h.2l.1.1.2.1.1.1h.2l.1.1.2.1h.1l.2.1.1.1.2.1h.1l.2.1.1.1.2.1h.1l.2.1.1.1.1.1.2.1h.1l.2.1.1.1.2.1.1.1h.1l.2.1.1.1.2.1.1.1.1.1h.2l.1.1.2.1.1.1.1.1.2.1.1.1h.1l.2.1.1.1.2.1.1.1.1.1.2.1.1.1.1.1.2.1.1.1.1.1.2.1.1.1h.1l.1.1.2.1.1.1.1.1.2.1.1.1.1.1.1.2.2.1.1.1.1.1.2.1.1.1.1.1.1.1.2.1.1.1.1.1.1.1.2.1.1.2.1.1.1.1.2.1.1.1.1.1.1.2.1.1.2.1.1.1.1.1.1.2.1.1.2.1.1.2.1.1.1.1.1.1.2.2.1.1.1.1.1.2.1.1.1.1.2.2.1.1.1.2.1.1.1.2.1.1.2.1.1.2.1.1.1.2.1.1.1.2.1.2.1.1.2.2.1.1.1.2.1.2.1.1.1.2.1.2.1.1.2.2.1.2.1.2.1.1.1.2.1.2.1.2.1.2.1.2.1.2.1.2.1.2.2.2.1.2.1.2.1.2.1.2.1.2.1.2.1.2.1.3.1.2.1.2.1.2.1.3.1.2.1.3.1.2.1.3.1.2.1.3.2.3.1.2.1.3.1.3.1.3.1.3.1.3.1.3.1.3.1.3.1.3.1.3.1.4.1.3.1.4.1.3.1.4.1.4.1.4.1.4.1.4.1.4.1.4.1.5.1.5.1.4.1.5.1.5v.6l.1.5.1.6.1.6.1.6.1.7.1.6.1.7.1.8.1.8.1.8.1.9.1 1 .1 1 .1 1.1.1 1.2.1 1.3.1 1.4.1 1.6.1 1.9v2.1l.1 2.4.1 3.1.1 3.9.1 5.5.1 9.3.1 40.4"/><path fill="none" stroke="#3b82f6" stroke-linejoin="round" stroke-width="1.5" d="m331.3 171 .1-40.3.1-9.3.1-5.5.1-3.8.1-3 .1-2.4v-2.1l.1-1.8.1-1.5.1-1.4.1-1.3.1-1.1.1-1.1.1-.9.1-.9.1-.9v-.8l.1-.7.1-.7.1-.7.1-.6.1-.6.1-.6.1-.5V88l.1-.5.1-.5.1-.5.1-.4.1-.5.1-.4.1-.4v-.3l.1-.4.1-.4.1-.3.1-.4.1-.3.1-.3v-.3l.1-.3.1-.3.1-.3.1-.3.1-.3.1-.2v-.3l.1-.2.1-.3.1-.2.1-.3.1-.2v-.2l.1-.2.1-.3.1-.2.1-.2.1-.2v-.2l.1-.2.1-.2.1-.1.1-.2v-.2l.1-.2.1-.2.1-.1.1-.2.1-.2v-.1l.1-.2.1-.1.1-.2.1-.1v-.2l.1-.1.1-.2.1-.1.1-.1V74l.1-.1.1-.1.1-.2.1-.1v-.1l.1-.1.1-.2.1-.1.1-.1v-.1l.1-.1.1-.1.1-.1v-.1l.1-.1.1-.2.1-.1.1-.1v-.1l.1-.1h.1l.1-.1v-.1l.1-.1.1-.1.1-.1v-.1l.1-.1.1-.1.1-.1.1-.1.1-.1.1-.1v-.1h.1l.1-.1.1-.1v-.1h.1l.1-.1.1-.1.1-.1.1-.1h.1v-.1l.1-.1h.1l.1-.1.1-.1.1-.1h.1v-.1h.1l.1-.1.1-.1.1-.1h.1v-.1h.1l.1-.1.1-.1h.2v-.1h.1l.1-.1.1-.1h.1l.1-.1h.1l.1-.1h.1l.1-.1.1-.1h.2v-.1h.2l.1-.1h.1l.1-.1h.2l.1-.1h.1l.1-.1h.3v-.1h.3l.1-.1h.3l.1-.1h.4l.1-.1h.8v-.1h.9l.1.1h.8l.1.1h.4l.1.1h.3l.1.1h.2l.1.1h.3v.1h.2l.1.1h.1l.1.1h.2v.1h.1l.1.1h.1l.1.1h.1l.1.1h.1v.1h.1l.1.1h.1l.1.1h.1l.1.1.1.1.1.1h.1l.1.1.1.1.1.1h.1l.1.1.1.1.1.1.1.1h.1v.1h.1v.1h.1v.1l.1.1.1.1h.1v.1h.1v.1h.1v.1l.1.1.1.1.1.1.1.1.1.1v.1h.1v.1l.1.1.1.1.1.1.1.1v.1l.1.1.1.1v.1l.1.1.1.1.1.1v.1l.1.1.1.1v.1l.1.1v.1h.1v.1l.1.1v.1l.1.1v.1l.1.1v.1l.1.1h.1v.1l.1.1v.1l.1.1v.1l.1.1v.1l.1.1v.1l.1.1v.1l.1.1v.1l.1.2v.1l.1.1v.1l.1.1v.1l.1.1v.1l.1.2.1.1v.1l.1.1v.1l.1.2v.1l.1.1v.1l.1.2v.1l.1.1v.2l.1.1v.1l.1.2v.1l.1.2v.1l.1.2v.1l.1.2v.1l.1.2v.1l.1.2v.1l.1.2v.2l.1.1v.2l.1.2v.2l.1.1v.2l.1.2v.2l.1.2v.2l.1.2v.2l.1.1v.3l.1.2v.2l.1.2v.2l.1.2v.2l.1.3v.2l.1.2v.5l.1.3v.2l.1.3v.2l.1.3v.3l.1.3v.3l.1.2v.3l.1.4v.3l.1.3v.3l.1.4v.3l.1.4v.3l.1.4v.4l.1.4v.4l.1.4v.9l.1.4v.5l.1.5v.5l.1.6v.5l.1.6v.6l.1.6v.7l.1.7v.7l.1.8v.8l.1.9v2l.1 1v1.2l.1 1.3v1.4l.1 1.6v1.8l.1 2.1v2.5l.1 3v3.9l.1 5.5V171"/><path fill="none" stroke="#3b82f6" stroke-linejoin="round" stroke-width="1.5" d="m363.9 171 .1-32.1v-9.3l.1-5.5v-3.8l.1-3v-2.5l.1-2V111l.1-1.6V108l.1-1.3v-2.2l.1-1v-.9l.1-.8v-.8l.1-.8v-.7l.1-.7v-.6l.1-.6v-1.2l.1-.5v-.5l.1-.5v-.5l.1-.5v-.4l.1-.4v-.8l.1-.4v-.4l.1-.4v-.3l.1-.4v-.3l.1-.3v-.6l.1-.3v-.3l.1-.3V88l.1-.3v-.2l.1-.3v-.5l.1-.2v-.3l.1-.2v-.2l.1-.3v-.4l.1-.2v-.2l.1-.2v-.2l.1-.2v-.4l.1-.2v-.2l.1-.1V83l.1-.2v-.3l.1-.2v-.2l.1-.1v-.2l.1-.1v-.3l.1-.2v-.1l.1-.2v-.1l.1-.1v-.3l.1-.1v-.2l.1-.1v-.1l.1-.1v-.3l.1-.1v-.1l.1-.1v-.1l.1-.2v-.2l.1-.1v-.1l.1-.1v-.2l.1-.1V78l.1-.1v-.1l.1-.1v-.2l.1-.1v-.1l.1-.1v-.1l.1-.1v-.1l.1-.1v-.1h.1v-.2l.1-.1v-.1h.1v-.2l.1-.1.1-.1v-.1l.1-.1v-.1h.1v-.2h.1v-.1h.1v-.2h.1V75h.1v-.2h.1v-.1h.1v-.1l.1-.1.1-.1v-.1h.1v-.1h.1v-.1h.1V74h.1v-.1l.1-.1h.1v-.1l.1-.1h.1v-.1h.1v-.1h.1v-.1h.1l.1-.1h.1v-.1h.1l.1-.1h.1v-.1h.2v-.1h.2v-.1h.2v-.1h.3l.1-.1h1.3v.1h.3l.1.1h.2v.1h.2v.1h.2v.1h.1v.1h.1l.1.1h.1v.1h.1v.1h.1v.1h.1v.1h.1v.1h.1v.1h.1l.1.1v.1h.1v.1h.1v.1h.1v.1l.1.1v.1h.1v.1l.1.1v.1h.1v.1h.1v.1l.1.1v.1l.1.1v.1h.1v.1l.1.1v.1l.1.1v.1l.1.1v.1l.1.1v.1l.1.1v.1l.1.1v.2h.1v.2l.1.1v.1l.1.1v.2h.1v.2l.1.1v.2l.1.1v.1l.1.1v.2l.1.1v.2l.1.1v.2l.1.1v.2l.1.1v.2l.1.1v.3l.1.1v.2l.1.1v.3l.1.1v.2l.1.2v.2l.1.1v.3l.1.2v.2l.1.2v.3l.1.1v.3l.1.2v.3l.1.1v.4l.1.1v.4l.1.2v.5l.1.2v.4l.1.2v.4l.1.2v.4l.1.2v.5l.1.2v.5l.1.2v.5l.1.3v.5l.1.3v.8l.1.3v.6l.1.4v.6l.1.4v.7l.1.4v.8l.1.4v1.3l.1.5v1l.1.5v1.1l.1.6v1.3l.1.7v1.5l.1.8v2.8l.1 1.1v2.5l.1 1.4v3.4l.1 2.1v5.4l.1 3.9V171"/><path fill="none" stroke="#3b82f6" stroke-linejoin="round" stroke-width="1.5" d="m383 171 .1-28.5v-14.8l.1-3.8v-5.5l.1-2.1V113l.1-1.4V108l.1-.9v-1.8l.1-.8V103l.1-.7v-1.9l.1-.5v-1.1l.1-.5v-.9l.1-.5v-1.2l.1-.4v-.8l.1-.3v-.7l.1-.4v-.9l.1-.3v-.6l.1-.3v-.5l.1-.2v-.8l.1-.2v-.5l.1-.2v-.5l.1-.2v-.6l.1-.2v-.4l.1-.2V86l.1-.2v-.3l.1-.2V85l.1-.2v-.4l.1-.2v-.3l.1-.1v-.4l.1-.2V83l.1-.2v-.3l.1-.2v-.2l.1-.1v-.4l.1-.1v-.2l.1-.1v-.3l.1-.1v-.2l.1-.1v-.3l.1-.1v-.2l.1-.1v-.2l.1-.1v-.2l.1-.1V79l.1-.1v-.1l.1-.1v-.2l.1-.1v-.1l.1-.1V78l.1-.1v-.1l.1-.1v-.2h.1v-.2h.1v-.2h.1v-.2h.1v-.1l.1-.1v-.1l.1-.1v-.1h.1v-.1l.1-.1v-.1h.1V76l.1-.1.1-.1v-.1h.1v-.1h.1v-.1h.1v-.1h.1v-.1h.1v-.1h.1v-.1h.1l.1-.1h.1v-.1h.2v-.1h.4v-.1h.4v.1h.4v.1h.2v.1h.1v.1h.1l.1.1h.1v.1h.1v.1h.1v.1h.1v.1h.1v.1l.1.1v.1h.1v.1"/></g><path stroke="#d1d5db" d="M442 16v155m0-77.5h358"/><text x="621" y="197" fill="#6b7280" font-size="9" text-anchor="middle">Hz</text><text x="420" y="93.5" fill="#6b7280" font-size="9" text-anchor="middle" transform="rotate(-90 420 93.5)">Phase (deg)</text><path stroke="#e5e7eb" stroke-width=".5" d="M474.6 16v155m19.1-155v155m13.6-155v155m10.5-155v155m8.6-155v155m7.3-155v155m6.2-155v155m5.6-155v155m37.6-155v155m19.1-155v155m13.5-155v155m10.6-155v155m8.5-155v155m7.3-155v155m6.3-155v155m5.5-155v155m37.6-155v155m19.1-155v155m13.6-155v155m10.5-155v155m8.6-155v155m7.3-155v155m6.2-155v155m5.6-155v155M800 16v155M442 16v155"/><text x="442" y="183" fill="#6b7280" font-size="8" text-anchor="middle">10</text><path stroke="#e5e7eb" stroke-width=".5" d="M550.5 16v155"/><text x="550.5" y="183" fill="#6b7280" font-size="8" text-anchor="middle">100</text><path stroke="#e5e7eb" stroke-width=".5" d="M658.9 16v155"/><text x="658.9" y="183" fill="#6b7280" font-size="8" text-anchor="middle">1k</text><path stroke="#e5e7eb" stroke-width=".5" d="M767.4 16v155"/><text x="767.4" y="183" fill="#6b7280" font-size="8" text-anchor="middle">10k</text><path stroke="#e5e7eb" stroke-width=".5" d="M442 54.8h358m-358 77.5h358M442 16h358"/><text x="438" y="19" fill="#6b7280" font-size="8" text-anchor="end">+180</text><text x="438" y="96.5" fill="#6b7280" font-size="8" text-anchor="end">0</text><path stroke="#e5e7eb" stroke-width=".5" d="M442 171h358"/><text x="438" y="174" fill="#6b7280" font-size="8" text-anchor="end">-180</text><g clip-path="url(#c)"><path fill="url(#d)" d="M445.5 93.5h293.7l.1-68.1.1 58.5.1.2.1.1.1.1.1.2.1.1v.1l.1.2.1.1.1.1.1.2.1.1.1.1.1.2.1.1.1.1v.2l.1.1.1.1.1.2.1.1.1.1.1.2.1.1v.1l.1.2.1.1.1.1.1.2.1.1.1.1.1.2v.1l.1.1.1.1.1.2.1.1.1.1.1.2v.1l.1.1.1.2.1.1.1.1.1.2.1.1v.1l.1.2.1.1.1.1.1.2.1.1v.1l.1.2.1.1.1.1.1.2.1.1v.1l.1.2.1.1.1.1.1.2v.1l.1.1.1.2.1.1.1.1.1.2v.1l.1.1.1.1.1.2h26.3l.1-19.2v.1l.1.1v.2l.1.1v.1l.1.2v.1l.1.1v.1l.1.2v.2l.1.2v.1l.1.1v.2l.1.1v.1l.1.2v.1l.1.1v.3l.1.1v.2l.1.1v.1l.1.2v.1l.1.1v.3l.1.1v.2l.1.1v.1l.1.2v.1l.1.1v.3l.1.1v.2l.1.1v.1l.1.1v.2l.1.1v.3l.1.1v.1l.1.2v.1l.1.1v.3l.1.1v.2l.1.1v.1l.1.2v.2l.1.2v.1l.1.1v.2l.1.1v.3l.1.1v.1l.1.2v.1l.1.1v.3l.1.1v.2l.1.1v.1l.1.2v.2l.1.1v.2l.1.1v.1l.1.2v.2l.1.2v.1l.1.1v.2l.1.1v.3l.1.1v.1l.1.2v.2l.1.2v.1l.1.1v.2l.1.1v.3l.1.1v.1l.1.2v.2l.1.2v.1l.1.1v.2l.1.1v.2l.1.2v.1l.1.1v.3l.1.1v.2l.1.1v.3l.1.1v.1l.1.2v.2l.1.2v.1l.1.1v.3l.1.1v.2H791V48.7l.1 15.9v.2l.1.2v.2l.1.2v.2l.1.2v.4l.1.1v.3l.1.1v.3l.1.1v.4l.1.1v.3l.1.1v.3l.1.1v.4l.1.1v.3l.1.1v.3l.1.1v.4l.1.2v.2l.1.2v.2l.1.2v.4l.1.1v.3l.1.1v.3l.1.1v.4l.1.1v.3l.1.1v.4l.1.1v.3l.1.1v.3l.1.1v.4l.1.2v.2l.1.2v.4l.1.1v.3l.1.1v.4l.1.1v.3l.1.1v.4l.1.1v.3l.1.1v.4l.1.2v.2l.1.2v.4l.1.1v.3l.1.1v.4l.1.1v.3l.1.1v.4l.1.2v.2l.1.2v.4l.1.1v.2l.1.2v.4l.1.1v.3l.1.1v.4l.1.1v.4l.1.2v.2l.1.2v.4l.1.1v.3l.1.1v.4l.1.1v.4l.1.2v.2l.1.1v.4l.1.2v.4l.1.1v.3l.1.1v.4l.1.1v.4l.1.2v.2l.1.2v.4l.1.1v.4l.1.1v.3l.1.1v.4l.1.1v.4l.1.2v.2l.1.1h2.6z"/><path fill="url(#e)" d="M445.5 93.5v.1l32.6.2 19.1.1 13.6.1 10.5.2 8.6.1 7.2.1 6.3.2 5.6.1 4.9.1 4.5.2 4.1.1 3.8.1 3.5.2 3.2.1 3.1.1 2.8.2 2.7.1 2.6.1 2.4.1 2.3.2 2.2.1 2.1.1 2 .2 1.9.1 1.8.1 1.8.2 1.7.1 1.7.1 1.6.2 1.5.1 1.5.1 1.5.2 1.4.1 1.3.1 1.4.2 1.3.1 1.2.1 1.2.2 1.2.1 1.2.1 1.1.2 1.1.1 1.1.1 1.1.2 1 .1 1 .1 1 .2 1 .1.9.1 1 .2.9.1.9.1.9.2.8.1.9.1.8.1.8.2.8.1.8.1.8.2.8.1.7.1.8.2.7.1.7.1.7.2.7.1.7.1.7.2.6.1.7.1.7.2.6.1.6.1.7.2.6.1.6.1.6.2.6.1.6.1.5.2.6.1.6.1.5.2.6.1.5.1.6.2.5.1.5.1.5.2.6.1.5.1.5.1.5.2.5.1.4.1.5.2.5.1.5.1.4.2.5.1.5.1.4.2.5.1.4.1.5.2.4.1.4.1.5.2.4.1.4.1.4.2.5.1.4.1.4.2.4.1.4.1.4.2.4.1.4.1.3.2.4.1.4.1.4.2.4.1.3.1.4.2.4.1.3.1.4.2.4.1.3.1.4.1.3.2.4.1.3.1.4.2.3.1.3.1.4.2.3.1.3.1.4.2.3.1.3.1.3.2.3.1.4.1.3.2.3.1.3.1.3.2.3.1.3.1.3.2.3.1.3.1.3.2.3.1.3.1.3.2.3.1.3.1.3.2.3.1.2.1.3.2.3.1.3.1.2.1.3.2.3.1.3.1.2.2.3.1.3.1.2.2.3.1.3.1.2.2.3.1.2.1.3.2.3.1.2.1.3.2.2.1.3.1.2.2.3.1.2.1.2.2.3.1.2.1.3.2.2.1.3.1.2.2.2.1.3.1.2.2.2.1.3.1.2.2.2.1.2.1.3.1.2.2.2.1.2.1.3.2.2.1.2.1.2.2.3.1.2.1.2.2.2.1.2.1.2.2.2.1.3.1.2.2.2.1.2.1.2.2.2.1.2.1.2.2.2.1.2.1.2.2.2.1.2.1.2.2.2.1.2.1.2.2.2.1.2.1.2.2.2.1.2.1.2.1.2.2.2.1.2.1.1.2.2.1.2.1.2.2.2.1.2.1.2.2.2.1.1.1.2.2.2.1.2.1.2.2.1.1.2.1.2.2.2.1.2.1.1.2.2.1.2.1.2.2.1.1.2.1.2.2.2.1.1.1.2.2.2.1.1.1.2.2.2.1.1.1.2.1.2.2.1.1.2.1.2.2.1.1.2.1.2.2.1.1.2.1.2.2.1.1.2.1.1.2.2.1.2.1.1.2.2.1.1.1.2.2.1.1.2.1.1.2.2.1.2.1.1.2.2.1.1.1.2.2.1.1.2.1.1.2.2.1.1.1.2.2.1.1.2.1.1.2.2.1.1.1.2.1.1.2.2.1.1.1.1.2.2.1.1.1.2.2.1.1.2.1.1.2.1.1.2.1.1.2.2.1.1.1.1.2.2.1.1.1.2.2.1.1.1.1.2.2.1.1.1.1.2.2.1.1.2.1.1.2.1.1.2.1.1.2.1.1.2.1.1.2.1.1.2.1.1.1.1.2.1.1.2.1.1.2.1.1.2.1.1.2.1.1.1.1.2.2.1.1.1.1.2.2.1.1.1.1.1.2.2.1.1.1.1.2.1.1.2.1.1.2.1.1.1.1.2.2.1.1.1.1.1.2.1.1.2.1.1.2.1.1.1.1.1.2.2.1.1.1.1.1.1.2.1.1.2.1.1.2.1.1.1.1.1.2.1.1.2.1.1.2.1.1.1.1.1.2.1.1.2.1.1.2.1.1.1.1.1.2.1.1.1.1.1.2.2.1.1.1.1.2.1.1.1.1.1.2.1.1.1.1.2.2.1.1.1.1.1.2.1.1.1.1.1.1.1.2.1.1.1.1.1.2.1.1.2.1.1.2.1.1.1.1.1.2.1.1.1.1.1.2.1.1.1.1.1.2.1.1.1.1.1.2.1.1.1.1.1.2.1.1.1.1.2.2.1.1.1.1.1.2.1.1.1.1.1.2.1.1.1.1.1.2.1.1.1.1.1.1.1.2.1.1.1.1.1.2.1.1.1.1.1.2.1.1.1.1.1.2.1.1.1.1.1.2.1.1.1.1v.2l.1.1.1.1.1.2.1.1.1.1.1.2.1.1.1.1.1.2.1.1.1.1.1.2.1.1.1.1.1.2.1.1.1.1.1.2.1.1v.1l.1.2.1.1.1.1.1.1.1.2.1-67.7h6.3l.1.1v.1l.1.2.1.1.1.1.1.2v.1l.1.1.1.2.1.1.1.1v.2l.1.1.1.1.1.2.1.1v.1l.1.2.1.1.1.1v.2l.1.1.1.1.1.2.1.1v.1l.1.2.1.1.1.1v.2l.1.1.1.1.1.2v.1l.1.1.1.1.1.2v.1l.1.1.1.2.1.1v.1l.1.2.1.1.1.1v.2l.1.1.1.1.1.2v.1l.1.1.1.2.1.1v.1l.1.2.1.1.1.1v.2l.1.1.1.1.1.2v.1l.1.1.1.2v.1l.1.1.1.2.1.1v.1l.1.2.1.1v.1l.1.1.1.2.1.1v.1l.1.2.1.1v.1l.1.2.1.1.1.1v.2l.1.1.1.1v.2l.1.1.1.1v.2l.1.1.1.1.1.2v.1l.1.1.1.2v.1l.1.1.1.2v.1l.1.1.1.2v.1l.1.1.1.2.1.1v.1l.1.2.1.1v.1l.1.2.1.1v.1l.1.1.1.2v.1l.1.1.1.2v.1l.1.1.1.2v.1l.1.1.1.2v.1l.1.1.1.2v.1l.1.1.1.2v.1l.1.1.1.2v.1l.1.1.1.2v.1l.1.1.1.2v.1l.1.1.1.2v.1l.1.1v.2l.1.1.1.1v.2l.1.1.1.1v.1l.1.2.1.1v.1l.1.2.1.1v.1l.1.2v.1l.1.1.1.2v.1l.1.1.1.2v.1l.1.1v.2l.1.1.1.1v.2l.1.1.1.1v.2l.1.1v.1l.1.2.1.1v.1l.1.2.1.1v.1l.1.2v.1l.1.1.1.2v.1l.1.1v.1l.1.2.1.1v.1l.1.2v.1l.1.1.1.2v.1l.1.1.1.2v.1l.1.1v.2l.1.1.1.1v.2l.1.1v.1l.1.2v.1l.1.1.1.2v.1l.1.1v.2l.1.1.1.1v.2l.1.1v.1l.1.2.1.1v.1l.1.2v.1l.1.1v.1l.1.2.1.1v.1l.1.2v.1l.1.1.1.2v.1l.1.1v.2l.1.1v.1l.1.2.1.1v.1l.1.2v.1l.1.1v.2l.1.1.1.1v.2l.1.1v.1l.1.2v.1l.1.1.1.2v.1l.1.1v.2l.1.1v.1l.1.2v.1l.1.1.1.1v.2l.1.1v.1l.1.2v.1l.1.1v.2l.1.1.1.1v.2l.1.1v.1l.1.2v.1l.1.1v.2l.1.1v.1l.1.2.1.1v.1l.1.2v.1l.1.1v.2l.1.1v.1l.1.2v.1l.1.1.1.2v.1l.1.1v.2l.1.1v.1l.1.2v.1l.1.1v.1l.1.2v.1l.1.1v.2l.1.1v.1l.1.2.1.1v.1l.1.2v.1l.1.1v.2l.1.1v.1l.1.2v.1l.1.1v.2l.1.1v.1l.1.2v.1l.1.1v.2l.1.1v.1l.1.2v.1l.1.1.1.2v.1l.1.1v.2l.1.1v.1l.1.1v.2l.1.1v.1l.1.2v.1l.1.1v.2l.1.1v.1l.1.2v.1l.1.1v.2l.1.1v.1l.1.2v.1l.1.1v.2l.1.1v.1l.1.2v.1l.1.1v.2l.1.1v.1l.1.2v.1l.1.1v.2l.1.1v.1l.1.2v.1l.1.1v.1l.1.2v.1l.1.1v.2l.1.1v.1l.1.2v.2l.1.2v.1l.1.1v.2l.1.1v.1l.1.2v.1l.1.1v.2l.1.1v.1l.1.2v.1l.1.1v.2l.1.1v.1l.1.2v.1l.1.1v.2l.1.1v.3l.1.1v.1l.1.1v.2l.1.1v.1l.1.2v.1l.1.1v.2l.1.1v.1l.1.2v.1l.1.1v.3l.1.1v.2l.1.1v.1l.1.2v.1l.1.1v.2l.1.1v.1l.1.2v.1-.3l.1-57.7h6.2l.1.1v.3l.1.1v.1l.1.2v.2l.1.2v.1l.1.1v.3l.1.1v.1l.1.2v.2l.1.2v.1l.1.1v.3l.1.1v.2l.1.1v.3l.1.1v.1l.1.2v.2l.1.2v.1l.1.1v.3l.1.1v.3l.1.1v.2l.1.1v.3l.1.1v.1l.1.2v.2l.1.1v.2l.1.1v.3l.1.1v.3l.1.1v.1l.1.2v.2l.1.2v.2l.1.2v.1l.1.1v.3l.1.1v.2l.1.1v.3l.1.1v.3l.1.1v.1l.1.2v.2l.1.2v.2l.1.1v.2l.1.1v.3l.1.1v.3l.1.1v.1l.1.2v.2l.1.2v.2l.1.2v.2l.1.2v.1l.1.1v.3l.1.1v.3l.1.1v.2l.1.1v.3l.1.1v.3l.1.1v.3l.1.1v.1l.1.1v.3l.1.1v.3l.1.1v.3l.1.1v.2l.1.1v.3l.1.1v.3l.1.1v.3l.1.1v.3l.1.1v.1l.1.2v.2l.1.2v.2l.1.2v.2l.1.2v.2l.1.1v.3l.1.1v.2l.1.1v.3l.1.1v.3l.1.1v.3l.1.1v.3l.1.1v.3l.1.1v.3l.1.1v.3l.1.1v.1l.1.2v.2l.1.2v.2l.1.2v.2l.1.1v.3l.1.1v.3l.1.1v.3l.1.1v.3l.1.1v.3l.1.1v.3l.1.1v.3l.1.1v.3l.1.1v.3l.1.1v.3l.1.1v.3l.1.1v.3l.1.1v.3l.1.1v.3l.1.1v.3l.1.1v.3l.1.1v.3l.1.1v.3l.1.1v.3l.1.1v.3l.1.1v.3l.1.1v.3l.1.1v.3l.1.1v.3l.1.1v.2l.1.2v.2l.1.2v.2l.1.2v.2l.1.2v.2l.1.2v.2l.1.2v.4l.1.1v.3l.1.1v.3l.1.1v.3l.1.1v.3l.1.1v.3l.1.1v.3l.1.1v.2l.1.2v.4l.1.1v.3l.1.1v.3l.1.1v.3l.1.1v.3l.1.1v.4l.1.1v.3l.1.1v.3l.1.1v.3l.1.1v.3l.1.1v.4l.1.1v.3l.1.1v.3l.1.1v.3l.1.1v.3-48.3h6.3l.1.1v.4l.1.1v.4l.1.1v.4l.1.2v.2l.1.2v.4l.1.1v.4l.1.1v.4l.1.2v.3l.1.2v.2l.1.2v.4l.1.1v.4l.1.1v.4l.1.2v.4l.1.1v.3l.1.1v.4l.1.1v.4l.1.2v.4l.1.1v.4l.1.1v.4l.1.1v.4l.1.2v.4l.1.1v.3l.1.1v.4l.1.1v.4l.1.2v.4l.1.1v.4l.1.1v.2-13.5z"/><path fill="none" stroke="#ef4444" stroke-linejoin="round" stroke-width="1.5" d="m445.5 93.6 32.6.2 19.1.1 13.6.1 10.5.2 8.6.1 7.2.1 6.3.2 5.6.1 4.9.1 4.5.2 4.1.1 3.8.1 3.5.2 3.2.1 3.1.1 2.8.2 2.7.1 2.6.1 2.4.1 2.3.2 2.2.1 2.1.1 2 .2 1.9.1 1.8.1 1.8.2 1.7.1 1.7.1 1.6.2 1.5.1 1.5.1 1.5.2 1.4.1 1.3.1 1.4.2 1.3.1 1.2.1 1.2.2 1.2.1 1.2.1 1.1.2 1.1.1 1.1.1 1.1.2 1 .1 1 .1 1 .2 1 .1.9.1 1 .2.9.1.9.1.9.2.8.1.9.1.8.1.8.2.8.1.8.1.8.2.8.1.7.1.8.2.7.1.7.1.7.2.7.1.7.1.7.2.6.1.7.1.7.2.6.1.6.1.7.2.6.1.6.1.6.2.6.1.6.1.5.2.6.1.6.1.5.2.6.1.5.1.6.2.5.1.5.1.5.2.6.1.5.1.5.1.5.2.5.1.4.1.5.2.5.1.5.1.4.2.5.1.5.1.4.2.5.1.4.1.5.2.4.1.4.1.5.2.4.1.4.1.4.2.5.1.4.1.4.2.4.1.4.1.4.2.4.1.4.1.3.2.4.1.4.1.4.2.4.1.3.1.4.2.4.1.3.1.4.2.4.1.3.1.4.1.3.2.4.1.3.1.4.2.3.1.3.1.4.2.3.1.3.1.4.2.3.1.3.1.3.2.3.1.4.1.3.2.3.1.3.1.3.2.3.1.3.1.3.2.3.1.3.1.3.2.3.1.3.1.3.2.3.1.3.1.3.2.3.1.2.1.3.2.3.1.3.1.2.1.3.2.3.1.3.1.2.2.3.1.3.1.2.2.3.1.3.1.2.2.3.1.2.1.3.2.3.1.2.1.3.2.2.1.3.1.2.2.3.1.2.1.2.2.3.1.2.1.3.2.2.1.3.1.2.2.2.1.3.1.2.2.2.1.3.1.2.2.2.1.2.1.3.1.2.2.2.1.2.1.3.2.2.1.2.1.2.2.3.1.2.1.2.2.2.1.2.1.2.2.2.1.3.1.2.2.2.1.2.1.2.2.2.1.2.1.2.2.2.1.2.1.2.2.2.1.2.1.2.2.2.1.2.1.2.2.2.1.2.1.2.2.2.1.2.1.2.1.2.2.2.1.2.1.1.2.2.1.2.1.2.2.2.1.2.1.2.2.2.1.1.1.2.2.2.1.2.1.2.2.1.1.2.1.2.2.2.1.2.1.1.2.2.1.2.1.2.2.1.1.2.1.2.2.2.1.1.1.2.2.2.1.1.1.2.2.2.1.1.1.2.1.2.2.1.1.2.1.2.2.1.1.2.1.2.2.1.1.2.1.2.2.1.1.2.1.1.2.2.1.2.1.1.2.2.1.1.1.2.2.1.1.2.1.1.2.2.1.2.1.1.2.2.1.1.1.2.2.1.1.2.1.1.2.2.1.1.1.2.2.1.1.2.1.1.2.2.1.1.1.2.1.1.2.2.1.1.1.1.2.2.1.1.1.2.2.1.1.2.1.1.2.1.1.2.1.1.2.2.1.1.1.1.2.2.1.1.1.2.2.1.1.1.1.2.2.1.1.1.1.2.2.1.1.2.1.1.2.1.1.2.1.1.2.1.1.2.1.1.2.1.1.2.1.1.1.1.2.1.1.2.1.1.2.1.1.2.1.1.2.1.1.1.1.2.2.1.1.1.1.2.2.1.1.1.1.1.2.2.1.1.1.1.2.1.1.2.1.1.2.1.1.1.1.2.2.1.1.1.1.1.2.1.1.2.1.1.2.1.1.1.1.1.2.2.1.1.1.1.1.1.2.1.1.2.1.1.2.1.1.1.1.1.2.1.1.2.1.1.2.1.1.1.1.1.2.1.1.2.1.1.2.1.1.1.1.1.2.1.1.1.1.1.2.2.1.1.1.1.2.1.1.1.1.1.2.1.1.1.1.2.2.1.1.1.1.1.2.1.1.1.1.1.1.1.2.1.1.1.1.1.2.1.1.2.1.1.2.1.1.1.1.1.2.1.1.1.1.1.2.1.1.1.1.1.2.1.1.1.1.1.2.1.1.1.1.1.2.1.1.1.1.2.2.1.1.1.1.1.2.1.1.1.1.1.2.1.1.1.1.1.2.1.1.1.1.1.1.1.2.1.1.1.1.1.2.1.1.1.1.1.2.1.1.1.1.1.2.1.1.1.1.1.2.1.1.1.1v.2l.1.1.1.1.1.2.1.1.1.1.1.2.1.1.1.1.1.2.1.1.1.1.1.2.1.1.1.1.1.2.1.1.1.1.1.2.1.1v.1l.1.2.1.1.1.1.1.1.1.2.1-135.8.1 58.5.1.2.1.1.1.1.1.2.1.1v.1l.1.2.1.1.1.1.1.2.1.1.1.1.1.2.1.1.1.1v.2l.1.1.1.1.1.2.1.1.1.1.1.2.1.1v.1l.1.2.1.1.1.1.1.2.1.1.1.1.1.2v.1l.1.1.1.1.1.2.1.1.1.1.1.2v.1l.1.1.1.2.1.1.1.1.1.2.1.1v.1l.1.2.1.1.1.1.1.2.1.1v.1l.1.2.1.1.1.1.1.2.1.1v.1l.1.2.1.1.1.1.1.2v.1l.1.1.1.2.1.1.1.1.1.2v.1l.1.1.1.1.1.2.1.1v.1l.1.2.1.1.1.1.1.2v.1l.1.1.1.2.1.1.1.1v.2l.1.1.1.1.1.2.1.1v.1l.1.2.1.1.1.1v.2l.1.1.1.1.1.2.1.1v.1l.1.2.1.1.1.1v.2l.1.1.1.1.1.2v.1l.1.1.1.1.1.2v.1l.1.1.1.2.1.1v.1l.1.2.1.1.1.1v.2l.1.1.1.1.1.2v.1l.1.1.1.2.1.1v.1l.1.2.1.1.1.1v.2l.1.1.1.1.1.2v.1l.1.1.1.2v.1l.1.1.1.2.1.1v.1l.1.2.1.1v.1l.1.1.1.2.1.1v.1l.1.2.1.1v.1l.1.2.1.1.1.1v.2l.1.1.1.1v.2l.1.1.1.1v.2l.1.1.1.1.1.2v.1l.1.1.1.2v.1l.1.1.1.2v.1l.1.1.1.2v.1l.1.1.1.2.1.1v.1l.1.2.1.1v.1l.1.2.1.1v.1l.1.1.1.2v.1l.1.1.1.2v.1l.1.1.1.2v.1l.1.1.1.2v.1l.1.1.1.2v.1l.1.1.1.2v.1l.1.1.1.2v.1l.1.1.1.2v.1l.1.1.1.2v.1l.1.1.1.2v.1l.1.1v.2l.1.1.1.1v.2l.1.1.1.1v.1l.1.2.1.1v.1l.1.2.1.1v.1l.1.2v.1l.1.1.1.2v.1l.1.1.1.2v.1l.1.1v.2l.1.1.1.1v.2l.1.1.1.1v.2l.1.1v.1l.1.2.1.1v.1l.1.2.1.1v.1l.1.2v.1l.1.1.1.2v.1l.1.1v.1l.1.2.1.1v.1l.1.2v.1l.1.1.1.2v.1l.1.1.1.2v.1l.1.1v.2l.1.1.1.1v.2l.1.1v.1l.1.2v.1l.1.1.1.2v.1l.1.1v.2l.1.1.1.1v.2l.1.1v.1l.1.2.1.1v.1l.1.2v.1l.1.1v.1l.1.2.1.1v.1l.1.2v.1l.1.1.1.2v.1l.1.1v.2l.1.1v.1l.1.2.1.1v.1l.1.2v.1l.1.1v.2l.1.1.1.1v.2l.1.1v.1l.1.2v.1l.1.1.1.2v.1l.1.1v.2l.1.1v.1l.1.2v.1l.1.1.1.1v.2l.1.1v.1l.1.2v.1l.1.1v.2l.1.1.1.1v.2l.1.1v.1l.1.2v.1l.1.1v.2l.1.1v.1l.1.2.1.1v.1l.1.2v.1l.1.1v.2l.1.1v.1l.1.2v.1l.1.1.1.2v.1l.1.1v.2l.1.1v.1l.1.2v.1l.1.1v.1l.1.2v.1l.1.1v.2l.1.1v.1l.1.2.1.1v.1l.1.2v.1l.1.1v.2l.1.1v.1l.1.2v.1l.1.1v.2l.1.1v.1l.1.2v.1l.1.1v.2l.1.1v.1l.1.2v.1l.1.1.1.2v.1l.1.1v.2l.1.1v.1l.1.1v.2l.1.1v.1l.1.2v.1l.1.1v.2l.1.1v.1l.1.2v.1l.1.1v.2l.1.1v.1l.1.2v.1l.1.1v.2l.1.1v.1l.1.2v.1l.1.1v.2l.1.1v.1l.1.2v.1l.1.1v.2l.1.1v.1l.1.2v.1l.1.1v.1l.1.2v.1l.1.1v.2l.1.1v.1l.1.2v.2l.1.2v.1l.1.1v.2l.1.1v.1l.1.2v.1l.1.1v.2l.1.1v.1l.1.2v.1l.1.1v.2l.1.1v.1l.1.2v.1l.1.1v.2l.1.1v.3l.1.1v.1l.1.1v.2l.1.1v.1l.1.2v.1l.1.1v.2l.1.1v.1l.1.2v.1l.1.1v.3l.1.1v.2l.1.1v.1l.1.2v.1l.1.1v.2l.1.1v.1l.1.2v.1-.3l.1-76.9v.1l.1.1v.2l.1.1v.1l.1.2v.1l.1.1v.1l.1.2v.2l.1.2v.1l.1.1v.2l.1.1v.1l.1.2v.1l.1.1v.3l.1.1v.2l.1.1v.1l.1.2v.1l.1.1v.3l.1.1v.2l.1.1v.1l.1.2v.1l.1.1v.3l.1.1v.2l.1.1v.1l.1.1v.2l.1.1v.3l.1.1v.1l.1.2v.1l.1.1v.3l.1.1v.2l.1.1v.1l.1.2v.2l.1.2v.1l.1.1v.2l.1.1v.3l.1.1v.1l.1.2v.1l.1.1v.3l.1.1v.2l.1.1v.1l.1.2v.2l.1.1v.2l.1.1v.1l.1.2v.2l.1.2v.1l.1.1v.2l.1.1v.3l.1.1v.1l.1.2v.2l.1.2v.1l.1.1v.2l.1.1v.3l.1.1v.1l.1.2v.2l.1.2v.1l.1.1v.2l.1.1v.2l.1.2v.1l.1.1v.3l.1.1v.2l.1.1v.3l.1.1v.1l.1.2v.2l.1.2v.1l.1.1v.3l.1.1v.2l.1.1v.3l.1.1v.1l.1.2v.2l.1.2v.1l.1.1v.3l.1.1v.1l.1.2v.2l.1.2v.1l.1.1v.3l.1.1v.2l.1.1v.3l.1.1v.1l.1.2v.2l.1.2v.1l.1.1v.3l.1.1v.3l.1.1v.2l.1.1v.3l.1.1v.1l.1.2v.2l.1.1v.2l.1.1v.3l.1.1v.3l.1.1v.1l.1.2v.2l.1.2v.2l.1.2v.1l.1.1v.3l.1.1v.2l.1.1v.3l.1.1v.3l.1.1v.1l.1.2v.2l.1.2v.2l.1.1v.2l.1.1v.3l.1.1v.3l.1.1v.1l.1.2v.2l.1.2v.2l.1.2v.2l.1.2v.1l.1.1v.3l.1.1v.3l.1.1v.2l.1.1v.3l.1.1v.3l.1.1v.3l.1.1v.1l.1.1v.3l.1.1v.3l.1.1v.3l.1.1v.2l.1.1v.3l.1.1v.3l.1.1v.3l.1.1v.3l.1.1v.1l.1.2v.2l.1.2v.2l.1.2v.2l.1.2v.2l.1.1v.3l.1.1v.2l.1.1v.3l.1.1v.3l.1.1v.3l.1.1v.3l.1.1v.3l.1.1v.3l.1.1v.3l.1.1v.1l.1.2v.2l.1.2v.2l.1.2v.2l.1.1v.3l.1.1v.3l.1.1v.3l.1.1v.3l.1.1v.3l.1.1v.3l.1.1v.3l.1.1v.3l.1.1v.3l.1.1v.3l.1.1v.3l.1.1v.3l.1.1v.3l.1.1v.3l.1.1v.3l.1.1v.3l.1.1v.3l.1.1v.3l.1.1v.3l.1.1v.3l.1.1v.3l.1.1v.3l.1.1v.3l.1.1v.3l.1.1v.2l.1.2v.2l.1.2v.2l.1.2v.2l.1.2v.2l.1.2v.2l.1.2v.4l.1.1v.3l.1.1v.3l.1.1v.3l.1.1v.3l.1.1v.3l.1.1v.3l.1.1v.2l.1.2v.4l.1.1v.3l.1.1v.3l.1.1v.3l.1.1v.3l.1.1v.4l.1.1v.3l.1.1v.3l.1.1v.3l.1.1v.3l.1.1v.4l.1.1v.3l.1.1v.3l.1.1v.3l.1.1v.3-93.1l.1 15.9v.2l.1.2v.2l.1.2v.2l.1.2v.4l.1.1v.3l.1.1v.3l.1.1v.4l.1.1v.3l.1.1v.3l.1.1v.4l.1.1v.3l.1.1v.3l.1.1v.4l.1.2v.2l.1.2v.2l.1.2v.4l.1.1v.3l.1.1v.3l.1.1v.4l.1.1v.3l.1.1v.4l.1.1v.3l.1.1v.3l.1.1v.4l.1.2v.2l.1.2v.4l.1.1v.3l.1.1v.4l.1.1v.3l.1.1v.4l.1.1v.3l.1.1v.4l.1.2v.2l.1.2v.4l.1.1v.3l.1.1v.4l.1.1v.3l.1.1v.4l.1.2v.2l.1.2v.4l.1.1v.2l.1.2v.4l.1.1v.3l.1.1v.4l.1.1v.4l.1.2v.2l.1.2v.4l.1.1v.3l.1.1v.4l.1.1v.4l.1.2v.2l.1.1v.4l.1.2v.4l.1.1v.3l.1.1v.4l.1.1v.4l.1.2v.2l.1.2v.4l.1.1v.4l.1.1v.3l.1.1v.4l.1.1v.4l.1.2v.2l.1.2v.4l.1.1v.4l.1.1v.4l.1.2v.2l.1.2v.4l.1.1v.4l.1.1v.4l.1.2v.3l.1.2v.2l.1.2v.4l.1.1v.4l.1.1v.4l.1.2v.4l.1.1v.3l.1.1v.4l.1.1v.4l.1.2v.4l.1.1v.4l.1.1v.4l.1.1v.4l.1.2v.4l.1.1v.3l.1.1v.4l.1.1v.4l.1.2v.4l.1.1v.4l.1.1v.2"/></g><path stroke="#d1d5db" d="M34 221v155m0-77.5h358"/><text x="213" y="402" fill="#6b7280" font-size="9" text-anchor="middle">Hz</text><text x="12" y="298.5" fill="#6b7280" font-size="9" text-anchor="middle" transform="rotate(-90 12 298.5)">Delay (smp)</text><path stroke="#e5e7eb" stroke-width=".5" d="M66.6 221v155m19.1-155v155m13.6-155v155m10.5-155v155m8.6-155v155m7.3-155v155m6.2-155v155m5.6-155v155m37.6-155v155m19.1-155v155m13.5-155v155m10.6-155v155m8.5-155v155m7.3-155v155m6.3-155v155m5.5-155v155m37.6-155v155m19.1-155v155m13.6-155v155m10.5-155v155m8.6-155v155m7.3-155v155m6.2-155v155m5.6-155v155M392 221v155M142.5 221v155"/><text x="142.5" y="388" fill="#6b7280" font-size="8" text-anchor="middle">100</text><path stroke="#e5e7eb" stroke-width=".5" d="M250.9 221v155"/><text x="250.9" y="388" fill="#6b7280" font-size="8" text-anchor="middle">1k</text><path stroke="#e5e7eb" stroke-width=".5" d="M359.4 221v155"/><text x="359.4" y="388" fill="#6b7280" font-size="8" text-anchor="middle">10k</text><path stroke="#e5e7eb" stroke-width=".5" d="M34 376h358"/><text x="30" y="379" fill="#6b7280" font-size="8" text-anchor="end">-100</text><path stroke="#e5e7eb" stroke-width=".5" d="M34 337.3h358"/><text x="30" y="340.3" fill="#6b7280" font-size="8" text-anchor="end">-50</text><text x="30" y="301.5" fill="#6b7280" font-size="8" text-anchor="end">0</text><path stroke="#e5e7eb" stroke-width=".5" d="M34 259.8h358"/><text x="30" y="262.8" fill="#6b7280" font-size="8" text-anchor="end">50</text><path stroke="#e5e7eb" stroke-width=".5" d="M34 221h358"/><text x="30" y="224" fill="#6b7280" font-size="8" text-anchor="end">100</text><g clip-path="url(#f)"><path fill="url(#g)" d="M37.5 298.5v-2.7h293.6l.1-74.8.1 77.5.1-77.5.1 74.8h32.4v2.7h.1v-2.7h19V221v77.5l.1-77.5v74.8h8.9v2.7z"/><path fill="url(#h)" d="M37.5 298.5h293.7l.1 77.5.1-77.5h32.5V376h.1v-77.5h19V376l.1-77.5h8.9z"/><path fill="none" stroke="#22c55e" stroke-linejoin="round" stroke-width="1.5" d="M37.5 295.8h293.6l.1-74.8m.2 0 .1 74.8h32.4V376m.1 0v-80.2h19V221m.1 0v74.8h8.9"/></g><path stroke="#d1d5db" d="M442 221v155m0-77.5h358"/><text x="621" y="402" fill="#6b7280" font-size="9" text-anchor="middle">Samples</text><text x="420" y="298.5" fill="#6b7280" font-size="9" text-anchor="middle" transform="rotate(-90 420 298.5)">Impulse</text><path stroke="#e5e7eb" stroke-width=".5" d="M442 221v155"/><text x="442" y="388" fill="#6b7280" font-size="8" text-anchor="middle">0</text><path stroke="#e5e7eb" stroke-width=".5" d="M567.9 221v155"/><text x="567.9" y="388" fill="#6b7280" font-size="8" text-anchor="middle">90</text><path stroke="#e5e7eb" stroke-width=".5" d="M693.7 221v155"/><text x="693.7" y="388" fill="#6b7280" font-size="8" text-anchor="middle">180</text><path stroke="#e5e7eb" stroke-width=".5" d="M442 363.1h358"/><text x="438" y="366.1" fill="#6b7280" font-size="8" text-anchor="end">-1</text><text x="438" y="301.5" fill="#6b7280" font-size="8" text-anchor="end">0</text><path stroke="#e5e7eb" stroke-width=".5" d="M442 233.9h358"/><text x="438" y="236.9" fill="#6b7280" font-size="8" text-anchor="end">1</text><path stroke="#e5e7eb" stroke-dasharray="3 2" stroke-width=".5" d="M442 233.9h358"/><text x="438" y="236.9" fill="#6b7280" font-size="7" text-anchor="end">+1</text><path stroke="#e5e7eb" stroke-dasharray="3 2" stroke-width=".5" d="M442 363.1h358"/><text x="438" y="366.1" fill="#6b7280" font-size="7" text-anchor="end">-1</text><g clip-path="url(#i)"><path fill="url(#j)" d="M442 298.5v-8.1h9.8l1.4 8.1h345.4z"/><path fill="none" stroke="#eab308" stroke-linejoin="round" stroke-width="1.2" d="M442 290.4h9.8l1.4 8.1h345.4"/></g></svg>