<svg xmlns="http://www.w3.org/2000/svg" style="font-family:system-ui,-apple-system,sans-serif" viewBox="0 0 820 392"><defs><linearGradient id="b" x1="0" x2="0" y1="37" y2="171" gradientUnits="userSpaceOnUse"><stop offset="0%" stop-color="#3b82f6" stop-opacity=".15"/><stop offset="100%" stop-color="#3b82f6" stop-opacity=".01"/></linearGradient><linearGradient id="d" x1="0" x2="0" y1="16" y2="94" gradientUnits="userSpaceOnUse"><stop offset="0%" stop-color="#ef4444" stop-opacity=".15"/><stop offset="100%" stop-color="#ef4444" stop-opacity=".01"/></linearGradient><linearGradient id="e" x1="0" x2="0" y1="94" y2="171" gradientUnits="userSpaceOnUse"><stop offset="0%" stop-color="#ef4444" stop-opacity=".01"/><stop offset="100%" stop-color="#ef4444" stop-opacity=".15"/></linearGradient><linearGradient id="g" x1="0" x2="0" y1="285" y2="299" gradientUnits="userSpaceOnUse"><stop offset="0%" stop-color="#22c55e" stop-opacity=".15"/><stop offset="100%" stop-color="#22c55e" stop-opacity=".01"/></linearGradient><linearGradient id="h" x1="0" x2="0" y1="299" y2="376" gradientUnits="userSpaceOnUse"><stop offset="0%" stop-color="#22c55e" stop-opacity=".01"/><stop offset="100%" stop-color="#22c55e" stop-opacity=".15"/></linearGradient><linearGradient id="j" x1="0" x2="0" y1="268" y2="299" gradientUnits="userSpaceOnUse"><stop offset="0%" stop-color="#eab308" stop-opacity=".15"/><stop offset="100%" stop-color="#eab308" stop-opacity=".01"/></linearGradient><linearGradient id="k" x1="0" x2="0" y1="299" y2="325" gradientUnits="userSpaceOnUse"><stop offset="0%" stop-color="#eab308" stop-opacity=".01"/><stop offset="100%" stop-color="#eab308" stop-opacity=".15"/></linearGradient><clipPath id="a"><path d="M34 16h358v155H34z"/></clipPath><clipPath id="c"><path d="M442 16h358v155H442z"/></clipPath><clipPath id="f"><path d="M34 221h358v155H34z"/></clipPath><clipPath id="i"><path d="M442 221h358v155H442z"/></clipPath></defs><text x="800" y="11" fill="#6b7280" font-size="11" font-weight="600" text-anchor="end">NLMS convergence, μ=0.5</text><path stroke="#d1d5db" d="M34 16v155m0-124h358"/><text x="213" y="197" fill="#6b7280" font-size="9" text-anchor="middle">Hz</text><text x="12" y="93.5" fill="#6b7280" font-size="9" text-anchor="middle" transform="rotate(-90 12 93.5)">dB</text><path stroke="#e5e7eb" stroke-width=".5" d="M66.6 16v155M85.7 16v155M99.3 16v155m10.5-155v155m8.6-155v155m7.3-155v155m6.2-155v155m5.6-155v155m37.6-155v155m19.1-155v155m13.5-155v155m10.6-155v155m8.5-155v155m7.3-155v155m6.3-155v155m5.5-155v155m37.6-155v155m19.1-155v155m13.6-155v155m10.5-155v155m8.6-155v155m7.3-155v155m6.2-155v155m5.6-155v155M392 16v155M34 16v155"/><text x="34" y="183" fill="#6b7280" font-size="8" text-anchor="middle">10</text><path stroke="#e5e7eb" stroke-width=".5" d="M142.5 16v155"/><text x="142.5" y="183" fill="#6b7280" font-size="8" text-anchor="middle">100</text><path stroke="#e5e7eb" stroke-width=".5" d="M250.9 16v155"/><text x="250.9" y="183" fill="#6b7280" font-size="8" text-anchor="middle">1k</text><path stroke="#e5e7eb" stroke-width=".5" d="M359.4 16v155"/><text x="359.4" y="183" fill="#6b7280" font-size="8" text-anchor="middle">10k</text><path stroke="#e5e7eb" stroke-width=".5" d="M34 171h358M34 140h358M34 109h358M34 78h358M34 16h358M34 62.5h358m-358-31h358"/><text x="30" y="174" fill="#6b7280" font-size="8" text-anchor="end">-80</text><text x="30" y="143" fill="#6b7280" font-size="8" text-anchor="end">-60</text><text x="30" y="112" fill="#6b7280" font-size="8" text-anchor="end">-40</text><text x="30" y="81" fill="#6b7280" font-size="8" text-anchor="end">-20</text><text x="30" y="50" fill="#6b7280" font-size="8" text-anchor="end">0</text><text x="30" y="19" fill="#6b7280" font-size="8" text-anchor="end">+20</text><g clip-path="url(#a)"><path fill="url(#b)" d="M37.5 171V80.2h108.4l4.5.1h11.4l3.2.1h3.1l2.8.1h2.7l2.6.1 2.4.1 2.3.1 2.2.1 2.1.1 2 .1 1.9.1 1.8.2 1.8.1 1.7.2 1.7.1 1.6.2 1.5.2 1.5.2 1.5.2 1.4.2 1.3.3 1.4.2 1.3.3 1.2.2 1.2.3 1.2.3 1.2.3 1.1.3 1.1.3 1.1.3 1.1.3 1 .3 1 .3 1 .3 1 .3.9.3 1 .3.9.3.9.3.9.3.8.3.9.3.8.2.8.3.8.2.8.3.8.2.8.3.7.2.8.3.7.3.7.2.7.3.7.3.7.3.7.3.6.4.7.3.7.3.6.4.6.3.7.4.6.3.6.3.6.3.6.2.6.1.5.1.6-.1.6-.1.5-.3.6-.3.5-.5.6-.5.5-.6.5-.7.5-.7.6-.7.5-.7.5-.8.5-.7.5-.7.4-.7.5-.7.5-.7.5-.7.4-.6.5-.6.5-.7.4-.5.5-.6.4-.6.5-.5.4-.5.4-.5.5-.5.4-.5.4-.5.4-.4.5-.4.4-.4.4-.4.4-.4.4-.4.4-.3.4-.3.4-.3.3-.3.4-.3.4-.3.4-.2.4-.2.3-.3.4-.2.4-.1.3-.2.4-.1.4-.2.3-.1.4-.1h.3l.4-.1h.3l.4-.1h.3l.3.1h.7l.3.1.4.1.3.1.3.1.3.1.3.2.4.1.3.2.3.2.3.2.3.2.3.2.3.2.3.2.3.2.3.2.3.2.3.2.3.1.3.2.3.1.3.1.3.1.3.1h1.1l.2-.1.3-.1.3-.1.3-.1.2-.1.3-.1.3-.2.2-.1.3-.1.3-.2.2-.1.3-.1.2-.2.3-.1.3-.1.2-.1h.3l.2-.1.3-.1h1.4l.3.1h.2l.3.1.2.1.2.1.3.2.2.1.2.2.3.2.2.2.2.2.2.2.3.2.2.2.2.3.2.2.3.3.2.3.2.2.2.3.3.2.2.2.2.2.2.2.2.2.2.1.2.1.3.1h.4l.2-.1.2-.1.2-.1.2-.2.2-.2.2-.2.2-.3.2-.3.2-.3.2-.4.2-.3.2-.3.2-.4.2-.4.2-.3.2-.4.2-.3.2-.4.2-.3.2-.3.2-.3.2-.3.2-.3.1-.2.2-.3.2-.2.2-.2.2-.2.2-.2.2-.1.2-.2.1-.1.2-.1h.2l.2-.1h.5l.2.1.2.1h.2l.1.2.2.1.2.2.2.2.1.2.2.3.2.2.2.4.1.3.2.4.2.4.1.4.2.5.2.5.1.6.2.6.2.7.1.7.2.8.2.9.1 1 .2 1 .2 1.2.1 1.4.2 1.5.2 1.7.1 2.1.2 2.5.1 3.1.2 4.1.2 5.8.1 9.2.2 2.7.1-10.2.2-6.7.1-4.6.2-3.5.1-2.7.2-2.3.2-2 .1-1.8.2-1.5.1-1.4.2-1.2.1-1.1.2-1.1.1-.9.2-.9.1-.8.2-.8.1-.7.2-.7.1-.6.2-.6.1-.5.2-.6.1-.5.2-.4.1-.5.1-.4.2-.4.1-.3.2-.4.1-.3.2-.3.1-.3.1-.3.2-.3.1-.3.2-.2.1-.2.1-.2.2-.3.1-.2.2-.1.1-.2.1-.2.2-.1.1-.2.1-.1.2-.1.1-.2.2-.1.1-.1.1-.1.2-.1h.1l.1-.1.2-.1h.2l.2-.1h.3l.2-.1h.4l.1.1h.8l.1.1h1.7l.1-.1h1.7l.1.1h.3l.1.1h.1l.1.1.1.1h.1l.2.1.1.1h.1l.1.1.1.1.1.1.1.1.1.1.2.1.1.1.1.2.1.1.1.1.1.1.1.2.1.1.2.2.1.1.1.2.1.1.1.2.1.2.1.1.1.2.1.2.1.2.1.2.1.1.2.2.1.2.1.2.1.2.1.1.1.2.1.1.1.2.1.1.1.1.1.1.1.1.1.1h.1l.1.1h.1l.1-.1h.2l.2-.1.1-.1.1-.1.1-.1.1-.1.1-.2.1-.1.1-.2.1-.1.1-.1.1-.2.1-.1.1-.2.1-.1.1-.1.1-.2.1-.1.1-.1.1-.1h.1l.1-.1.1-.1h.3l.1-.1.1.1h.2l.1.1h.1l.1.1.1.1h.1l.1.1.1.1h.1l.1.1.1.1h.1l.1.1h.5l.1-.1v-.1l.1-.1.1-.1.1-.1.1-.1.1-.2.1-.2.1-.1.1-.2.1-.2.1-.2.1-.2.1-.2v-.2l.1-.2.1-.2.1-.2.1-.2.1-.2.1-.2.1-.1.1-.2.1-.1V63l.1-.1.1-.1.1-.2.1-.1.1-.1.1-.1.1-.1v-.1l.1-.1.1-.1.1-.1.1-.1.1-.1.1-.1.1-.1v-.1l.1-.1.1-.1.1-.1.1-.1.1-.1.1-.1v-.1l.1-.1.1-.1.1-.1.1-.1.1-.1.1-.1.1-.1.1-.1h.1l.1-.1h.1l.1-.1h.6l.1.1h.2l.1.1h.3v.1h.4v.1h1.1l.1.1.1.1h.1l.1.1v.1l.1.1.1.1.1.1.1.1v.1l.1.2.1.1.1.2v.2l.1.2.1.2.1.2v.2l.1.2.1.2.1.2v.2l.1.2.1.2.1.2v.1l.1.2.1.1.1.1v.1l.1.1h.4l.1-.1v-.1h.1l.1-.1.1-.1V64l.1-.1.1-.1.1-.2v-.1l.1-.1.1-.1v-.1l.1-.2.1-.1.1-.1v-.1l.1-.1.1-.2v-.1l.1-.1.1-.1.1-.1v-.1l.1-.1.1-.2v-.1l.1-.1.1-.1.1-.1v-.1l.1-.1.1-.1v-.2l.1-.1.1-.1v-.1l.1-.1.1-.1.1-.1V60l.1-.1.1-.1.1-.1.1-.1v-.1l.1-.1h.1v-.1h.1l.1-.1h.1v-.1h.2V59h.5l.1.1h.2v.1h.3l.1.1h.4l.1-.1h.2l.1-.1.1-.1h.1v-.1h.1v-.1h.1l.1-.1.1-.1.1-.1.1-.1h.1v-.1h.2v-.1h.5l.1.1h.1l.1.1.1.1h.1v.1h.1v.1h.1l.1.1.1.1h.1v.1h.1l.1.1h.1l.1.1h.3v.1h.4l.1.1h.1l.1.1h.1v.1h.1v.1h.1l.1.1.1.1.1.1h.1l.1.1h.4V60h.2l.1-.1h.2l.1-.1h.1v.1h.2l.1.1.1.1v.1h.1l.1.1v.1l.1.1v.1l.1.1v.1l.1.1.1.1v.1l.1.2v.1l.1.1v.1l.1.1v.1h.1l.1.1.1.1h.2l.1-.1.1-.1.1-.1v-.1l.1-.1v-.2l.1-.1v-.1l.1-.1v-.2l.1-.1.1-.1v-.1l.1-.1v-.2l.1-.1V60h.1v-.1l.1-.1v-.1h.1l.1-.1.1-.1h.1l.1-.1h.2l.1-.1h.1v-.1h.1l.1-.1.1-.1v-.1l.1-.1v-.1l.1-.1v-.1l.1-.1v-.1l.1-.1V58l.1-.1v-.1l.1-.1v-.1l.1-.1v-.1l.1-.1v-.1l.1-.1V57h.1l.1-.1.1-.1h.3l.1.1.1.1v.1h.1v.1l.1.1v.2l.1.1v.1l.1.2v.1l.1.2v.2l.1.2v.3l.1.2v.3l.1.3v.3l.1.3v.4l.1.4v.4l.1.4v.5l.1.4v.6l.1.5v.6l.1.6v.6l.1.7v.7l.1.7v.7l.1.7v.7l.1.6v.6l.1.5v.6h.1v-.1l.1-.2v-.4l.1-.5v-.5l.1-.6v-.7l.1-.6v-.7l.1-.6v-.7l.1-.6v-.6l.1-.5v-.5l.1-.5v-.5l.1-.4v-.4l.1-.4v-.3l.1-.4V61l.1-.2v-.2l.1-.2v-.2l.1-.1v-.2h.1v-.1l.1-.1h.1v-.1l.1.1h.1v.1h.1l.1.1h.3v-.1h.1v-.2l.1-.1v-.1l.1-.1v-.2l.1-.1v-.2l.1-.1v-.2l.1-.2v-.1l.1-.2v-.3l.1-.1v-.2l.1-.1v-.2l.1-.1v-.1l.1-.1v-.1l.1-.1v-.2l.1-.1.1-.1v-.1h.1V56h.1v-.1l.1-.1h.1v-.1h.1l.1-.1h.2v-.1h.2v.1h.1l.1.1.1.1v.1l.1.1v.1l.1.1v.1l.1.1v.2l.1.1v.2l.1.1v.2l.1.1v.3l.1.1v.2l.1.1v.2l.1.1v.3l.1.1v.1l.1.1v.1l.1.1v.1h.1v.1h.2v-.1h.1l.1-.1h.1V59l.1-.1.1-.1v-.1h.1l.1-.1h.2l.1.1.1.1v.1h.1v.1h.1v.2h.1v.1l.1.1v.1h.1l.1.1h.2l.1-.1h.1v-.1l.1-.1.1-.1.1-.1h.1V59h.4v.1h.1v.1h.1v.2l.1.1v.1h.1v.2l.1.1v.2l.1.1v.2l.1.1v.1l.1.1v.1l.1.1v.1l.1.1.1.1h.2v-.1h.1V61h.1v-.1h.3v.1h.1v.2h.1v.2l.1.1v.3l.1.1v.2l.1.2v.4l.1.2v.3l.1.2v.1l.1.1v.1l.1-.1v-.2l.1-.1V63l.1-.3V62l.1-.4v-.9l.1-.5v-.5l.1-.5v-1l.1-.5v-1l.1-.5v-.9l.1-.4v-.4l.1-.5v-.7l.1-.4v-.7l.1-.3v-.3l.1-.3v-.5l.1-.3v-.4l.1-.2v-.4l.1-.2v-.2l.1-.1v-.3l.1-.1v-.2l.1-.1v-.2l.1-.1v-.1h.1v-.2h.1v-.1l.1-.1.1-.1v-.1h.1l.1-.1h.1v-.1h.1V47h.1v-.1h.1v-.1h.1l.1-.1.1-.1.1-.1.1-.1v-.1h.1v-.1h.1v-.1l.1-.1.1-.1.1-.1.1-.1.1-.1.1-.1h.1v-.1h.3v.1h.1l.1.1.1.1v.1l.1.1v.1l.1.1v.1l.1.1v.2l.1.1v.2l.1.1v.3l.1.1v.3l.1.2v.3l.1.1v.4l.1.1v.4l.1.1v.4l.1.1v.4l.1.1v.4l.1.1v.3l.1.1v.3l.1.1v.3l.1.1v.3l.1.1v.2l.1.1v.2l.1.2v.2l.1.1v.3l.1.1v.4l.1.1v.4l.1.2v.6l.1.2v.5l.1.3v.5l.1.3v.7l.1.3v.8l.1.4v.9l.1.4v1l.1.6v1.1l.1.7v2l.1.8v1.5l.1.9v1.6l.1.8v1.5l.1.5v.6h.1v-1.1l.1-.7V71l.1-.8v-1.6l.1-.8v-1.4l.1-.7v-1.3l.1-.6v-1.6l.1-.5v-.9l.1-.5v-.8l.1-.3v-.7l.1-.3v-.9l.1-.2v-.5l.1-.2V56l.1-.1v-.3l.1-.2v-.3l.1-.1v-.1h.1v-.1h.1v.1h.1v.1l.1.1v.1l.1.1v.4l.1.1v.3l.1.1v.4l.1.2v.6l.1.2v.4l.1.3v.5l.1.2v.8l.1.2v.5l.1.2v.5l.1.1v.4l.1.1h.1v-.4l.1-.2v-.5l.1-.3v-.6l.1-.4v-1l.1-.4v-.7l.1-.4v-1.1l.1-.3v-.7l.1-.4v-.9l.1-.3v-.6l.1-.3v-.9l.1-.3v-.5l.1-.2v-.8l.1-.2v-.5l.1-.2v-.6l.1-.2v-.4l.1-.1v-.5l.1-.2v-.3l.1-.1v-.4l.1-.1v-.3l.1-.1V45l.1-.1v-.2l.1-.1v-.4l.1-.1v-.2l.1-.1v-.4l.1-.1v-.4l.1-.1v-.2l.1-.1v-.4l.1-.1v-.2l.1-.1v-.3l.1-.1V41l.1-.1v-.1l.1-.1v-.3h.1v-.2l.1-.1V40l.1-.1v-.2h.1v-.2h.1v-.1l.1-.1v-.2h.1v-.2h.1v-.1l.1-.1v-.2h.1v-.2h.1v-.2h.1v-.2h.1v-.2h.1v-.2h.1v-.1h.1v-.1l.1-.1.1-.1.1-.1h.2v-.1h.2l.1.1h.2v.1h.2l.1.1h.6v.1h.3V171z"/><path fill="none" stroke="#3b82f6" stroke-linejoin="round" stroke-width="1.5" d="M37.5 80.2h108.4l4.5.1h11.4l3.2.1h3.1l2.8.1h2.7l2.6.1 2.4.1 2.3.1 2.2.1 2.1.1 2 .1 1.9.1 1.8.2 1.8.1 1.7.2 1.7.1 1.6.2 1.5.2 1.5.2 1.5.2 1.4.2 1.3.3 1.4.2 1.3.3 1.2.2 1.2.3 1.2.3 1.2.3 1.1.3 1.1.3 1.1.3 1.1.3 1 .3 1 .3 1 .3 1 .3.9.3 1 .3.9.3.9.3.9.3.8.3.9.3.8.2.8.3.8.2.8.3.8.2.8.3.7.2.8.3.7.3.7.2.7.3.7.3.7.3.7.3.6.4.7.3.7.3.6.4.6.3.7.4.6.3.6.3.6.3.6.2.6.1.5.1.6-.1.6-.1.5-.3.6-.3.5-.5.6-.5.5-.6.5-.7.5-.7.6-.7.5-.7.5-.8.5-.7.5-.7.4-.7.5-.7.5-.7.5-.7.4-.6.5-.6.5-.7.4-.5.5-.6.4-.6.5-.5.4-.5.4-.5.5-.5.4-.5.4-.5.4-.4.5-.4.4-.4.4-.4.4-.4.4-.4.4-.3.4-.3.4-.3.3-.3.4-.3.4-.3.4-.2.4-.2.3-.3.4-.2.4-.1.3-.2.4-.1.4-.2.3-.1.4-.1h.3l.4-.1h.3l.4-.1h.3l.3.1h.7l.3.1.4.1.3.1.3.1.3.1.3.2.4.1.3.2.3.2.3.2.3.2.3.2.3.2.3.2.3.2.3.2.3.2.3.2.3.1.3.2.3.1.3.1.3.1.3.1h1.1l.2-.1.3-.1.3-.1.3-.1.2-.1.3-.1.3-.2.2-.1.3-.1.3-.2.2-.1.3-.1.2-.2.3-.1.3-.1.2-.1h.3l.2-.1.3-.1h1.4l.3.1h.2l.3.1.2.1.2.1.3.2.2.1.2.2.3.2.2.2.2.2.2.2.3.2.2.2.2.3.2.2.3.3.2.3.2.2.2.3.3.2.2.2.2.2.2.2.2.2.2.1.2.1.3.1h.4l.2-.1.2-.1.2-.1.2-.2.2-.2.2-.2.2-.3.2-.3.2-.3.2-.4.2-.3.2-.3.2-.4.2-.4.2-.3.2-.4.2-.3.2-.4.2-.3.2-.3.2-.3.2-.3.2-.3.1-.2.2-.3.2-.2.2-.2.2-.2.2-.2.2-.1.2-.2.1-.1.2-.1h.2l.2-.1h.5l.2.1.2.1h.2l.1.2.2.1.2.2.2.2.1.2.2.3.2.2.2.4.1.3.2.4.2.4.1.4.2.5.2.5.1.6.2.6.2.7.1.7.2.8.2.9.1 1 .2 1 .2 1.2.1 1.4.2 1.5.2 1.7.1 2.1.2 2.5.1 3.1.2 4.1.2 5.8.1 9.2.2 2.7.1-10.2.2-6.7.1-4.6.2-3.5.1-2.7.2-2.3.2-2 .1-1.8.2-1.5.1-1.4.2-1.2.1-1.1.2-1.1.1-.9.2-.9.1-.8.2-.8.1-.7.2-.7.1-.6.2-.6.1-.5.2-.6.1-.5.2-.4.1-.5.1-.4.2-.4.1-.3.2-.4.1-.3.2-.3.1-.3.1-.3.2-.3.1-.3.2-.2.1-.2.1-.2.2-.3.1-.2.2-.1.1-.2.1-.2.2-.1.1-.2.1-.1.2-.1.1-.2.2-.1.1-.1.1-.1.2-.1h.1l.1-.1.2-.1h.2l.2-.1h.3l.2-.1h.4l.1.1h.8l.1.1h1.7l.1-.1h1.7l.1.1h.3l.1.1h.1l.1.1.1.1h.1l.2.1.1.1h.1l.1.1.1.1.1.1.1.1.1.1.2.1.1.1.1.2.1.1.1.1.1.1.1.2.1.1.2.2.1.1.1.2.1.1.1.2.1.2.1.1.1.2.1.2.1.2.1.2.1.1.2.2.1.2.1.2.1.2.1.1.1.2.1.1.1.2.1.1.1.1.1.1.1.1.1.1h.1l.1.1h.1l.1-.1h.2l.2-.1.1-.1.1-.1.1-.1.1-.1.1-.2.1-.1.1-.2.1-.1.1-.1.1-.2.1-.1.1-.2.1-.1.1-.1.1-.2.1-.1.1-.1.1-.1h.1l.1-.1.1-.1h.3l.1-.1.1.1h.2l.1.1h.1l.1.1.1.1h.1l.1.1.1.1h.1l.1.1.1.1h.1l.1.1h.5l.1-.1v-.1l.1-.1.1-.1.1-.1.1-.1.1-.2.1-.2.1-.1.1-.2.1-.2.1-.2.1-.2.1-.2v-.2l.1-.2.1-.2.1-.2.1-.2.1-.2.1-.2.1-.1.1-.2.1-.1V63l.1-.1.1-.1.1-.2.1-.1.1-.1.1-.1.1-.1v-.1l.1-.1.1-.1.1-.1.1-.1.1-.1.1-.1.1-.1v-.1l.1-.1.1-.1.1-.1.1-.1.1-.1.1-.1v-.1l.1-.1.1-.1.1-.1.1-.1.1-.1.1-.1.1-.1.1-.1h.1l.1-.1h.1l.1-.1h.6l.1.1h.2l.1.1h.3v.1h.4v.1h1.1l.1.1.1.1h.1l.1.1v.1l.1.1.1.1.1.1.1.1v.1l.1.2.1.1.1.2v.2l.1.2.1.2.1.2v.2l.1.2.1.2.1.2v.2l.1.2.1.2.1.2v.1l.1.2.1.1.1.1v.1l.1.1h.4l.1-.1v-.1h.1l.1-.1.1-.1V64l.1-.1.1-.1.1-.2v-.1l.1-.1.1-.1v-.1l.1-.2.1-.1.1-.1v-.1l.1-.1.1-.2v-.1l.1-.1.1-.1.1-.1v-.1l.1-.1.1-.2v-.1l.1-.1.1-.1.1-.1v-.1l.1-.1.1-.1v-.2l.1-.1.1-.1v-.1l.1-.1.1-.1.1-.1V60l.1-.1.1-.1.1-.1.1-.1v-.1l.1-.1h.1v-.1h.1l.1-.1h.1v-.1h.2V59h.5l.1.1h.2v.1h.3l.1.1h.4l.1-.1h.2l.1-.1.1-.1h.1v-.1h.1v-.1h.1l.1-.1.1-.1.1-.1.1-.1h.1v-.1h.2v-.1h.5l.1.1h.1l.1.1.1.1h.1v.1h.1v.1h.1l.1.1.1.1h.1v.1h.1l.1.1h.1l.1.1h.3v.1h.4l.1.1h.1l.1.1h.1v.1h.1v.1h.1l.1.1.1.1.1.1h.1l.1.1h.4V60h.2l.1-.1h.2l.1-.1h.1v.1h.2l.1.1.1.1v.1h.1l.1.1v.1l.1.1v.1l.1.1v.1l.1.1.1.1v.1l.1.2v.1l.1.1v.1l.1.1v.1h.1l.1.1.1.1h.2l.1-.1.1-.1.1-.1v-.1l.1-.1v-.2l.1-.1v-.1l.1-.1v-.2l.1-.1.1-.1v-.1l.1-.1v-.2l.1-.1V60h.1v-.1l.1-.1v-.1h.1l.1-.1.1-.1h.1l.1-.1h.2l.1-.1h.1v-.1h.1l.1-.1.1-.1v-.1l.1-.1v-.1l.1-.1v-.1l.1-.1v-.1l.1-.1V58l.1-.1v-.1l.1-.1v-.1l.1-.1v-.1l.1-.1v-.1l.1-.1V57h.1l.1-.1.1-.1h.3l.1.1.1.1v.1h.1v.1l.1.1v.2l.1.1v.1l.1.2v.1l.1.2v.2l.1.2v.3l.1.2v.3l.1.3v.3l.1.3v.4l.1.4v.4l.1.4v.5l.1.4v.6l.1.5v.6l.1.6v.6l.1.7v.7l.1.7v.7l.1.7v.7l.1.6v.6l.1.5v.6h.1v-.1l.1-.2v-.4l.1-.5v-.5l.1-.6v-.7l.1-.6v-.7l.1-.6v-.7l.1-.6v-.6l.1-.5v-.5l.1-.5v-.5l.1-.4v-.4l.1-.4v-.3l.1-.4V61l.1-.2v-.2l.1-.2v-.2l.1-.1v-.2h.1v-.1l.1-.1h.1v-.1l.1.1h.1v.1h.1l.1.1h.3v-.1h.1v-.2l.1-.1v-.1l.1-.1v-.2l.1-.1v-.2l.1-.1v-.2l.1-.2v-.1l.1-.2v-.3l.1-.1v-.2l.1-.1v-.2l.1-.1v-.1l.1-.1v-.1l.1-.1v-.2l.1-.1.1-.1v-.1h.1V56h.1v-.1l.1-.1h.1v-.1h.1l.1-.1h.2v-.1h.2v.1h.1l.1.1.1.1v.1l.1.1v.1l.1.1v.1l.1.1v.2l.1.1v.2l.1.1v.2l.1.1v.3l.1.1v.2l.1.1v.2l.1.1v.3l.1.1v.1l.1.1v.1l.1.1v.1h.1v.1h.2v-.1h.1l.1-.1h.1V59l.1-.1.1-.1v-.1h.1l.1-.1h.2l.1.1.1.1v.1h.1v.1h.1v.2h.1v.1l.1.1v.1h.1l.1.1h.2l.1-.1h.1v-.1l.1-.1.1-.1.1-.1h.1V59h.4v.1h.1v.1h.1v.2l.1.1v.1h.1v.2l.1.1v.2l.1.1v.2l.1.1v.1l.1.1v.1l.1.1v.1l.1.1.1.1h.2v-.1h.1V61h.1v-.1h.3v.1h.1v.2h.1v.2l.1.1v.3l.1.1v.2l.1.2v.4l.1.2v.3l.1.2v.1l.1.1v.1l.1-.1v-.2l.1-.1V63l.1-.3V62l.1-.4v-.9l.1-.5v-.5l.1-.5v-1l.1-.5v-1l.1-.5v-.9l.1-.4v-.4l.1-.5v-.7l.1-.4v-.7l.1-.3v-.3l.1-.3v-.5l.1-.3v-.4l.1-.2v-.4l.1-.2v-.2l.1-.1v-.3l.1-.1v-.2l.1-.1v-.2l.1-.1v-.1h.1v-.2h.1v-.1l.1-.1.1-.1v-.1h.1l.1-.1h.1v-.1h.1V47h.1v-.1h.1v-.1h.1l.1-.1.1-.1.1-.1.1-.1v-.1h.1v-.1h.1v-.1l.1-.1.1-.1.1-.1.1-.1.1-.1.1-.1h.1v-.1h.3v.1h.1l.1.1.1.1v.1l.1.1v.1l.1.1v.1l.1.1v.2l.1.1v.2l.1.1v.3l.1.1v.3l.1.2v.3l.1.1v.4l.1.1v.4l.1.1v.4l.1.1v.4l.1.1v.4l.1.1v.3l.1.1v.3l.1.1v.3l.1.1v.3l.1.1v.2l.1.1v.2l.1.2v.2l.1.1v.3l.1.1v.4l.1.1v.4l.1.2v.6l.1.2v.5l.1.3v.5l.1.3v.7l.1.3v.8l.1.4v.9l.1.4v1l.1.6v1.1l.1.7v2l.1.8v1.5l.1.9v1.6l.1.8v1.5l.1.5v.6h.1v-1.1l.1-.7V71l.1-.8v-1.6l.1-.8v-1.4l.1-.7v-1.3l.1-.6v-1.6l.1-.5v-.9l.1-.5v-.8l.1-.3v-.7l.1-.3v-.9l.1-.2v-.5l.1-.2V56l.1-.1v-.3l.1-.2v-.3l.1-.1v-.1h.1v-.1h.1v.1h.1v.1l.1.1v.1l.1.1v.4l.1.1v.3l.1.1v.4l.1.2v.6l.1.2v.4l.1.3v.5l.1.2v.8l.1.2v.5l.1.2v.5l.1.1v.4l.1.1h.1v-.4l.1-.2v-.5l.1-.3v-.6l.1-.4v-1l.1-.4v-.7l.1-.4v-1.1l.1-.3v-.7l.1-.4v-.9l.1-.3v-.6l.1-.3v-.9l.1-.3v-.5l.1-.2v-.8l.1-.2v-.5l.1-.2v-.6l.1-.2v-.4l.1-.1v-.5l.1-.2v-.3l.1-.1v-.4l.1-.1v-.3l.1-.1V45l.1-.1v-.2l.1-.1v-.4l.1-.1v-.2l.1-.1v-.4l.1-.1v-.4l.1-.1v-.2l.1-.1v-.4l.1-.1v-.2l.1-.1v-.3l.1-.1V41l.1-.1v-.1l.1-.1v-.3h.1v-.2l.1-.1V40l.1-.1v-.2h.1v-.2h.1v-.1l.1-.1v-.2h.1v-.2h.1v-.1l.1-.1v-.2h.1v-.2h.1v-.2h.1v-.2h.1v-.2h.1v-.2h.1v-.1h.1v-.1l.1-.1.1-.1.1-.1h.2v-.1h.2l.1.1h.2v.1h.2l.1.1h.6v.1h.3"/></g><path stroke="#d1d5db" d="M442 16v155m0-77.5h358"/><text x="621" y="197" fill="#6b7280" font-size="9" text-anchor="middle">Hz</text><text x="420" y="93.5" fill="#6b7280" font-size="9" text-anchor="middle" transform="rotate(-90 420 93.5)">Phase (deg)</text><path stroke="#e5e7eb" stroke-width=".5" d="M474.6 16v155m19.1-155v155m13.6-155v155m10.5-155v155m8.6-155v155m7.3-155v155m6.2-155v155m5.6-155v155m37.6-155v155m19.1-155v155m13.5-155v155m10.6-155v155m8.5-155v155m7.3-155v155m6.3-155v155m5.5-155v155m37.6-155v155m19.1-155v155m13.6-155v155m10.5-155v155m8.6-155v155m7.3-155v155m6.2-155v155m5.6-155v155M800 16v155M442 16v155"/><text x="442" y="183" fill="#6b7280" font-size="8" text-anchor="middle">10</text><path stroke="#e5e7eb" stroke-width=".5" d="M550.5 16v155"/><text x="550.5" y="183" fill="#6b7280" font-size="8" text-anchor="middle">100</text><path stroke="#e5e7eb" stroke-width=".5" d="M658.9 16v155"/><text x="658.9" y="183" fill="#6b7280" font-size="8" text-anchor="middle">1k</text><path stroke="#e5e7eb" stroke-width=".5" d="M767.4 16v155"/><text x="767.4" y="183" fill="#6b7280" font-size="8" text-anchor="middle">10k</text><path stroke="#e5e7eb" stroke-width=".5" d="M442 54.8h358m-358 77.5h358M442 16h358"/><text x="438" y="19" fill="#6b7280" font-size="8" text-anchor="end">+180</text><text x="438" y="96.5" fill="#6b7280" font-size="8" text-anchor="end">0</text><path stroke="#e5e7eb" stroke-width=".5" d="M442 171h358"/><text x="438" y="174" fill="#6b7280" font-size="8" text-anchor="end">-180</text><g clip-path="url(#c)"><path fill="url(#d)" d="M445.5 93.5V16.1l32.6.2 19.1.1 13.6.1 10.5.2 8.6.1 7.2.2 6.3.1 5.6.2 4.9.2 4.5.2 4.1.1 3.8.2 3.5.2 3.2.2 3.1.2 2.8.2 2.7.2 2.6.3 2.4.2 2.3.2 2.2.2 2.1.2 2 .2 1.9.3 1.8.2 1.8.2 1.7.2 1.7.2 1.6.2 1.5.2 1.5.1 1.5.2 1.4.1 1.3.2 1.4.1 1.3.1h1.2l1.2.1h3.5l1.1-.1h1.1l1.1-.2 1-.1 1-.2 1-.2 1-.2.9-.3 1-.2.9-.4.9-.3.9-.3.8-.4.9-.4.8-.4.8-.4.8-.4.8-.4.8-.5.8-.4.7-.5.8 77.1H713l.2-77.5.1 77.5h75.3V16.1v.2l.1.2v.4l.1.2v.7l.1.2v.4l.1.2v.4l.1.2v.4l.1.2v.3l.1.2v.2l.1.1v.1h.1v-.2l.1-.1v-.9l.1-.5v-1.3l.1-.9v76.7H800z"/><path fill="url(#e)" d="M445.5 93.5h195.1l.8 77.5.7-.5.7-.5.7-.5.7-.6.7-.5.7-.6.6-.7.7-.7.7-.8.6-.9.6-.9.7-1.1.6-1.1.6-1.3.6-1.4.6-1.6.6-1.6.5-1.7.6-1.8.6-1.8.5-1.7.6-1.8.5-1.6.6-1.5.5-1.4.5-1.3.5-1.1.6-1 .5-.8.5-.8.5-.6.5-.5.4-.4.5-.4.5-.2.5-.2.4-.1.5-.1h.9l.5.1.4.1.5.1.4.2.4.2.5.2.4.3.4.3.4.3.5.3.4.4.4.3.4.4.4.5.4.4.4.4.4.5.3.5.4.5.4.5.4.5.4.5.3.6.4.5.4.5.3.6.4.5.4.6.3.5.4.6.3.6.4.5.3.6.4.5.3.5.3.5.4.6.3.4.3.5.4.5.3.4.3.5.3.4.3.3.4.4.3.3.3.2.3.3.3.2.3.1.3.1.3.1h.6l.3-.1.3-.1.3-.2.3-.2.3-.2.3-.3.3-.3.3-.2.2-.4.3-.3.3-.3.3-.2.2-.3.3-.2.3-.3.3-.1.2-.2.3-.1.3-.1h1l.3.1.2.1.3.2.3.1.2.2.3.2.2.2.3.2.2.3.3.2.2.3.2.3.3.2.2.3.3.3.2.2.3.3.2.2.2.3.3.2.2.2.2.1.3.2.2.1.2.1.2.1h.7l.2-.1.3-.2.2-.2.2-.2.2-.3.3-.4.2-.4.2-.5.2-.5.2-.6.2-.6.2-.7.3-.6.2-.7.2-.7.2-.8.2-.7.2-.6.2-.7.2-.6.2-.6.2-.5.2-.5.2-.4.2-.3.2-.3.2-.2.2-.2.2-.1.2-.1h.2l.2.1.2.1.2.2.2.2.2.2.2.3.2.3.1.4.2.4.2.4.2.4.2.5.2.5.2.5.2.6.1.5.2.6.2.6.2.6.2.7.1.6.2.7.2.6.2.7.2.7.1.6.2.7.2.7.2.7.1.7.2.6.2.7.2.7.1.7.2.6.2.7.1.6.2.7.2.6.1.7.2.6.2.6.1.6.2.7.2.5.1.6.2.6.2.5.1.5.2.5.2.4.1.3.2-77.4.1 77.3.2-.7.2-2.5.1-9.4.2-33 .1-14.1.2-3.3.1-1.1.2-.2.1.1.2.3.2.4.1.5.2.5.1.6.2.5.1.6.2.7.1.6.2.6.1.7.2.6.1.6.2.7.1.6.2.6.1.7.2.6.1.6.2.6.1.6.1.6.2.6.1.6.2.6.1.6.2.6.1.5.1.6.2.6.1.5.2.6.1.5.1.5.2.6.1.5.2.5.1.5.1.5.2.5.1.5.1.5.2.5.1.5.2.5.1.5.1.4.2.5.1.5.1.4.2.4.1.5.1.4.2.4.1.4.1.4.1.4.2.4.1.3.1.4.2.3.1.3.1.3.1.3.2.3.1.2.1.3.2.2.1.3.1.2.1.2.2.2.1.2.1.2.1.2.2.2.1.2.1.1.1.2.2.2.1.2.1.2.1.2.1.2.2.2.1.2.1.2.1.2.1.2.2.2.1.3.1.2.1.2.1.3.2.2.1.2.1.3.1.2.1.3.1.2.2.3.1.2.1.2.1.3.1.2.1.2.2.3.1.2.1.2.1.2.1.2.1.2.1.2.1.2.2.2.1.2.1.1.1.2.1.1.1.2.1.1.1.1.2.1.1.1.1.1.1.1h.1l.1.1h.3l.1-.1h.1l.1-.1.2-.1.1-.1.1-.2.1-.2.1-.2.1-.3.1-.2.1-.3.1-.3.1-.4.1-.3.1-.4.1-.4.1-.4.1-.4.1-.4.1-.4.1-.4.1-.4.2-.3.1-.4.1-.3.1-.3.1-.2.1-.3.1-.2.1-.2.1-.1.1-.1.1-.1.1-.1h.5l.1.1.1.1h.1l.1.1.1.1.1.1.1.1.1.1.1.1.1.1.1.1v.1h.1l.1.1h.3l.1-.1.1-.1.1-.1.1-.1.1-.2.1-.2.1-.2.1-.3.1-.2.1-.3.1-.3.1-.3.1-.4.1-.3v-.3l.1-.4.1-.3.1-.3.1-.3.1-.2.1-.3.1-.2.1-.2.1-.1.1-.2.1-.1h.1v-.1h.4l.1.1.1.1.1.1h.1l.1.1v.2l.1.1.1.1.1.1.1.1.1.1.1.2.1.1v.1l.1.1.1.1.1.1.1.1.1.1.1.1.1.2v.1l.1.1.1.1.1.2.1.1.1.2.1.1v.2l.1.2.1.1.1.2.1.2.1.2.1.3v.2l.1.2.1.3.1.2.1.2.1.3v.2l.1.3.1.2.1.2.1.3.1.2v.2l.1.2.1.2.1.2.1.2v.2l.1.1.1.2.1.1.1.2.1.1v.1l.1.1.1.1.1.1.1.2v.1l.1.1.1.1.1.1.1.1v.2l.1.1.1.1.1.2.1.2v.1l.1.2.1.2.1.2.1.2v.2l.1.3.1.2.1.2v.2l.1.2.1.3.1.2.1.2v.1l.1.2.1.2.1.1v.1l.1.1h.1l.1.1v-.1h.1l.1-.1.1-.1v-.2l.1-.2.1-.2.1-.3v-.3l.1-.3.1-.3.1-.4v-.4l.1-.4.1-.4.1-.4v-.4l.1-.4.1-.3.1-.4v-.3l.1-.4.1-.2.1-.3v-.3l.1-.2.1-.2.1-.2v-.2l.1-.2.1-.1v-.1l.1-.1.1-.2.1-.1.1-.1.1-.1.1-.1h.1l.1-.1h.6l.1.1.1.1h.1v.1l.1.1h.1l.1.1v.1l.1.1.1.1v.2l.1.1.1.1v.2l.1.1.1.2v.1l.1.2.1.1.1.2v.2l.1.1.1.2v.2l.1.1.1.2v.1l.1.2.1.1v.1l.1.2.1.1v.1l.1.1h.1v.1l.1.1h.1v.1h1.2v.1h.1v.1h.1l.1.1.1.1.1.1v.1l.1.1.1.2v.1l.1.1.1.2v.2l.1.1v.2l.1.1.1.2v.2l.1.2.1.1v.2l.1.1v.2l.1.1.1.2v.1l.1.1.1.1v.1l.1.1v.1h.1l.1.1.1.1h.2l.1.1h.4v.1h.2l.1.1.1.1h.1v.1h.1v.1h.1l.1.1.1.1h.1v.1h.2l.1-.1h.1l.1-.1.1-.1.1-.1.1-.1.1-.1.1-.1h.3v.1h.1l.1.1v.1l.1.1.1.1v.1l.1.1.1.2v.1l.1.1v.1l.1.1.1.1.1.1.1.1h.2l.1-.1.1-.1v-.2l.1-.1v-.2l.1-.1v-.2l.1-.3.1-.2v-.2l.1-.3v-.3l.1-.3v-.2l.1-.3v-.3l.1-.3.1-.2v-.3l.1-.2v-.2l.1-.2v-.1l.1-.2v-.1l.1-.1.1-.1h.2v.1h.1v.1h.1v.1l.1.1v.1l.1.1.1.1.1.1v.1l.1.1.1.1.1.1h.2l.1-.1h.2v-.1h.3l.1.1.1.1v.1l.1.2v.1l.1.2v.2l.1.2v.2l.1.3v.2l.1.3v.3l.1.3.1.3v.3l.1.4v.3l.1.4v.3l.1.4v.4l.1.3v.4l.1.4v.4l.1.4v.4l.1.3v.4l.1.4v.4l.1.4v.4l.1.4v.4l.1.4v.4l.1.4v.4l.1.4v.4l.1.3v.4l.1.3v.3l.1.3v.3l.1.2v.2l.1.2v.1l.1.1.1-.1v-.2l.1-.3v-.4l.1-.6v-.7l.1-.8v-1.1l.1-1.2v-1.5l.1-1.7v-3.7l.1-2v-1.9l.1-1.9v-1.8l.1-1.6v-1.3l.1-1.2v-1l.1-.9v-.6l.1-.5v-.4l.1-.3v-.1l.1-.1h.1v.1l.1.2v.2l.1.2v.3l.1.3v.6l.1.3v.4l.1.3v.3l.1.4v.3l.1.3v.4l.1.2v.3l.1.3v.2l.1.2v.2l.1.1v.2l.1.1h.1l.1-.1v-.1l.1-.1v-.1l.1-.1v-.2l.1-.1v-.3l.1-.2v-.1l.1-.1v-.1l.1-.1.1-.1h.1v.1h.1v.2l.1.1v.2l.1.1v.2l.1.1v.2l.1.2v.2l.1.2v.4l.1.2v.2l.1.2v.2l.1.2v.2l.1.2v.4l.1.2v.2l.1.2v.2l.1.2v.2l.1.2v.4l.1.3v.2l.1.2v.2l.1.2v.3l.1.2v.5l.1.2v.3l.1.2v.3l.1.2v.5l.1.2v.2l.1.2v.2l.1.2v.3l.1.2v.1l.1.1v.1l.1.1v.1h.1l.1-.1.1-.1v-.2l.1-.2v-.1l.1-.2v-.1l.1-.2v-.4l.1-.2v-.2l.1-.2v-.2l.1-.2v-.3l.1-.1v-.2l.1-.1v-.1l.1-.1v-.1h.3v.1h.1v.1h.1v.2l.1.1.1.1v.1h.1v.1h.2l.1-.1v-.1h.1v-.2l.1-.2v-.1l.1-.1v-.3l.1-.1v-.1l.1-.2v-.2l.1-.1v-.1l.1-.1v-.1h.1v-.1h.3v.1l.1.1.1.1v.1l.1.1v.1l.1.1v.1l.1.1v.1h.1v.1l.1.1h.1l.1-.1.1-.1v-.2l.1-.1v-.2l.1-.1v-.4l.1-.2v-.5l.1-.2v-.2l.1-.3v-.4l.1-.3v-.2l.1-.2v-.4l.1-.1v-.2l.1-.1v-.2l.1-.1v-.2h.1v-.1h.1v-.1h.1v-.1h.1v-.1l.1-.1v-.3l.1-.2v-.2l.1-.3v-.7l.1-.5v-1.1l.1-.6v-.7l.1-.8v-1.7l.1-1v-1.9l.1-.9v-.9l.1-.9v-1.7l.1-.7v-1.3l.1-.5v-.4l.1-.4v-.5l.1-.1v-.2h.1v.2l.1.1v.2l.1.2v.5l.1.2v.6l.1.4v.3l.1.4v.7l.1.4v.8l.1.4v.8l.1.3v.4l.1.4v.8l.1.4v.8l.1.3v.8l.1.3v.4l.1.3v.6l.1.4v.6l.1.3v.5l.1.3v.5l.1.3v.2l.1.2v.5l.1.2v.5l.1.2v.4l.1.2v.4l.1.2v.4l.1.2v.2l.1.2v.3l.1.2v.4l.1.2v.4l.1.2v.3l.1.2v.4l.1.2v.5l.1.2v.4l.1.2v.2l.1.3v.5l.1.2v.5l.1.3v.5l.1.3v.5l.1.3v.6l.1.3v.6l.1.3v.6l.1.3v.6l.1.3v.7l.1.3v.6l.1.4v.6l.1.3v.7l.1.3v.7l.1.3v.6l.1.3v.6l.1.3v.6l.1.3v.5l.1.3v.5l.1.2v.4l.1.2v.4l.1.1v.3l.1.2v.2l.1.1v.1l.1.1v.2h.1v.1l.1.1v.1l.1.1v.2h.1v.2l.1.1v.3l.1.1v.3l.1.1v.4l.1.1V93.5h1.2v77.2-1.2l.1-1.5v-3.8l.1-2.3v-5l.1-2.6v-7.2l.1-2v-3.2l.1-1.2v-1.9l.1-.7V137l.1-.3v-.5l.1-.2v-.1l.1.1v.1l.1.2v.3l.1.2v.4l.1.3v.8l.1.3v.6l.1.3v.6l.1.4v.6l.1.4v1l.1.3v.7l.1.3v.6l.1.4v.9l.1.3v.5l.1.3v.5l.1.2v.6l.1.2v.2l.1.2v.2h.1v.1h.1v-.1l.1-.1v-.4l.1-.2v-.9l.1-.3v-.9l.1-.6v-1.2l.1-.7v-2.3l.1-.8v-1.8l.1-.9v-2.6l.1-.8v-1.6l.1-.7v-1.3l.1-.5v-1.5l.1-.3v-.7l.1-.3v-.6l.1-.1v-.3l.1-.1v-.1h.1l.1.1v.1l.1.1v.2l.1.1v.4l.1.1v.3l.1.2v.5l.1.2v.3l.1.2v.6l.1.2v.3l.1.2v.5l.1.2v.3l.1.2v.4l.1.2v.3l.1.1v.4l.1.2v.2l.1.2v.4l.1.1v.5l.1.1v.3l.1.2v.5l.1.2v.4l.1.1v.6l.1.2v.6l.1.2v.4l.1.2v.6l.1.2v.6l.1.2v.3l.1.2v.6l.1.2v.5l.1.1v.4l.1.2v.5l.1.1v.5l.1.2v.3l.1.2v.5l.1.1v.5l.1.2v.4l.1.1v.6l.1.2v.5l.1.2v.6l.1.2v.4l.1.2v.6l.1.3v.6l.1.2v.6l.1.2v.6l.1.2v.4l.1.2v.6l.1.2v.6l.1.2v.5l.1.2v.6l.1.1v.4l.1.1v.5l.1.2v.4l.1.2v.4l.1.1v.4l.1.2v.4l.1.1v.4l.1.2v.4l.1.1v.3l.1.1v.5l.1.1v.5l.1.1v.5l.1.2v.5l.1.1v.2-70.2z"/><path fill="none" stroke="#ef4444" stroke-linejoin="round" stroke-width="1.5" d="m445.5 16.1 32.6.2 19.1.1 13.6.1 10.5.2 8.6.1 7.2.2 6.3.1 5.6.2 4.9.2 4.5.2 4.1.1 3.8.2 3.5.2 3.2.2 3.1.2 2.8.2 2.7.2 2.6.3 2.4.2 2.3.2 2.2.2 2.1.2 2 .2 1.9.3 1.8.2 1.8.2 1.7.2 1.7.2 1.6.2 1.5.2 1.5.1 1.5.2 1.4.1 1.3.2 1.4.1 1.3.1h1.2l1.2.1h3.5l1.1-.1h1.1l1.1-.2 1-.1 1-.2 1-.2 1-.2.9-.3 1-.2.9-.4.9-.3.9-.3.8-.4.9-.4.8-.4.8-.4.8-.4.8-.4.8-.5.8-.4.7-.5.8 154.6.7-.5.7-.5.7-.5.7-.6.7-.5.7-.6.6-.7.7-.7.7-.8.6-.9.6-.9.7-1.1.6-1.1.6-1.3.6-1.4.6-1.6.6-1.6.5-1.7.6-1.8.6-1.8.5-1.7.6-1.8.5-1.6.6-1.5.5-1.4.5-1.3.5-1.1.6-1 .5-.8.5-.8.5-.6.5-.5.4-.4.5-.4.5-.2.5-.2.4-.1.5-.1h.9l.5.1.4.1.5.1.4.2.4.2.5.2.4.3.4.3.4.3.5.3.4.4.4.3.4.4.4.5.4.4.4.4.4.5.3.5.4.5.4.5.4.5.4.5.3.6.4.5.4.5.3.6.4.5.4.6.3.5.4.6.3.6.4.5.3.6.4.5.3.5.3.5.4.6.3.4.3.5.4.5.3.4.3.5.3.4.3.3.4.4.3.3.3.2.3.3.3.2.3.1.3.1.3.1h.6l.3-.1.3-.1.3-.2.3-.2.3-.2.3-.3.3-.3.3-.2.2-.4.3-.3.3-.3.3-.2.2-.3.3-.2.3-.3.3-.1.2-.2.3-.1.3-.1h1l.3.1.2.1.3.2.3.1.2.2.3.2.2.2.3.2.2.3.3.2.2.3.2.3.3.2.2.3.3.3.2.2.3.3.2.2.2.3.3.2.2.2.2.1.3.2.2.1.2.1.2.1h.7l.2-.1.3-.2.2-.2.2-.2.2-.3.3-.4.2-.4.2-.5.2-.5.2-.6.2-.6.2-.7.3-.6.2-.7.2-.7.2-.8.2-.7.2-.6.2-.7.2-.6.2-.6.2-.5.2-.5.2-.4.2-.3.2-.3.2-.2.2-.2.2-.1.2-.1h.2l.2.1.2.1.2.2.2.2.2.2.2.3.2.3.1.4.2.4.2.4.2.4.2.5.2.5.2.5.2.6.1.5.2.6.2.6.2.6.2.7.1.6.2.7.2.6.2.7.2.7.1.6.2.7.2.7.2.7.1.7.2.6.2.7.2.7.1.7.2.6.2.7.1.6.2.7.2.6.1.7.2.6.2.6.1.6.2.7.2.5.1.6.2.6.2.5.1.5.2.5.2.4.1.3.2-154.9.1 154.8.2-.7.2-2.5.1-9.4.2-33 .1-14.1.2-3.3.1-1.1.2-.2.1.1.2.3.2.4.1.5.2.5.1.6.2.5.1.6.2.7.1.6.2.6.1.7.2.6.1.6.2.7.1.6.2.6.1.7.2.6.1.6.2.6.1.6.1.6.2.6.1.6.2.6.1.6.2.6.1.5.1.6.2.6.1.5.2.6.1.5.1.5.2.6.1.5.2.5.1.5.1.5.2.5.1.5.1.5.2.5.1.5.2.5.1.5.1.4.2.5.1.5.1.4.2.4.1.5.1.4.2.4.1.4.1.4.1.4.2.4.1.3.1.4.2.3.1.3.1.3.1.3.2.3.1.2.1.3.2.2.1.3.1.2.1.2.2.2.1.2.1.2.1.2.2.2.1.2.1.1.1.2.2.2.1.2.1.2.1.2.1.2.2.2.1.2.1.2.1.2.1.2.2.2.1.3.1.2.1.2.1.3.2.2.1.2.1.3.1.2.1.3.1.2.2.3.1.2.1.2.1.3.1.2.1.2.2.3.1.2.1.2.1.2.1.2.1.2.1.2.1.2.2.2.1.2.1.1.1.2.1.1.1.2.1.1.1.1.2.1.1.1.1.1.1.1h.1l.1.1h.3l.1-.1h.1l.1-.1.2-.1.1-.1.1-.2.1-.2.1-.2.1-.3.1-.2.1-.3.1-.3.1-.4.1-.3.1-.4.1-.4.1-.4.1-.4.1-.4.1-.4.1-.4.1-.4.2-.3.1-.4.1-.3.1-.3.1-.2.1-.3.1-.2.1-.2.1-.1.1-.1.1-.1.1-.1h.5l.1.1.1.1h.1l.1.1.1.1.1.1.1.1.1.1.1.1.1.1.1.1v.1h.1l.1.1h.3l.1-.1.1-.1.1-.1.1-.1.1-.2.1-.2.1-.2.1-.3.1-.2.1-.3.1-.3.1-.3.1-.4.1-.3v-.3l.1-.4.1-.3.1-.3.1-.3.1-.2.1-.3.1-.2.1-.2.1-.1.1-.2.1-.1h.1v-.1h.4l.1.1.1.1.1.1h.1l.1.1v.2l.1.1.1.1.1.1.1.1.1.1.1.2.1.1v.1l.1.1.1.1.1.1.1.1.1.1.1.1.1.2v.1l.1.1.1.1.1.2.1.1.1.2.1.1v.2l.1.2.1.1.1.2.1.2.1.2.1.3v.2l.1.2.1.3.1.2.1.2.1.3v.2l.1.3.1.2.1.2.1.3.1.2v.2l.1.2.1.2.1.2.1.2v.2l.1.1.1.2.1.1.1.2.1.1v.1l.1.1.1.1.1.1.1.2v.1l.1.1.1.1.1.1.1.1v.2l.1.1.1.1.1.2.1.2v.1l.1.2.1.2.1.2.1.2v.2l.1.3.1.2.1.2v.2l.1.2.1.3.1.2.1.2v.1l.1.2.1.2.1.1v.1l.1.1h.1l.1.1v-.1h.1l.1-.1.1-.1v-.2l.1-.2.1-.2.1-.3v-.3l.1-.3.1-.3.1-.4v-.4l.1-.4.1-.4.1-.4v-.4l.1-.4.1-.3.1-.4v-.3l.1-.4.1-.2.1-.3v-.3l.1-.2.1-.2.1-.2v-.2l.1-.2.1-.1v-.1l.1-.1.1-.2.1-.1.1-.1.1-.1.1-.1h.1l.1-.1h.6l.1.1.1.1h.1v.1l.1.1h.1l.1.1v.1l.1.1.1.1v.2l.1.1.1.1v.2l.1.1.1.2v.1l.1.2.1.1.1.2v.2l.1.1.1.2v.2l.1.1.1.2v.1l.1.2.1.1v.1l.1.2.1.1v.1l.1.1h.1v.1l.1.1h.1v.1h1.2v.1h.1v.1h.1l.1.1.1.1.1.1v.1l.1.1.1.2v.1l.1.1.1.2v.2l.1.1v.2l.1.1.1.2v.2l.1.2.1.1v.2l.1.1v.2l.1.1.1.2v.1l.1.1.1.1v.1l.1.1v.1h.1l.1.1.1.1h.2l.1.1h.4v.1h.2l.1.1.1.1h.1v.1h.1v.1h.1l.1.1.1.1h.1v.1h.2l.1-.1h.1l.1-.1.1-.1.1-.1.1-.1.1-.1.1-.1h.3v.1h.1l.1.1v.1l.1.1.1.1v.1l.1.1.1.2v.1l.1.1v.1l.1.1.1.1.1.1.1.1h.2l.1-.1.1-.1v-.2l.1-.1v-.2l.1-.1v-.2l.1-.3.1-.2v-.2l.1-.3v-.3l.1-.3v-.2l.1-.3v-.3l.1-.3.1-.2v-.3l.1-.2v-.2l.1-.2v-.1l.1-.2v-.1l.1-.1.1-.1h.2v.1h.1v.1h.1v.1l.1.1v.1l.1.1.1.1.1.1v.1l.1.1.1.1.1.1h.2l.1-.1h.2v-.1h.3l.1.1.1.1v.1l.1.2v.1l.1.2v.2l.1.2v.2l.1.3v.2l.1.3v.3l.1.3.1.3v.3l.1.4v.3l.1.4v.3l.1.4v.4l.1.3v.4l.1.4v.4l.1.4v.4l.1.3v.4l.1.4v.4l.1.4v.4l.1.4v.4l.1.4v.4l.1.4v.4l.1.4v.4l.1.3v.4l.1.3v.3l.1.3v.3l.1.2v.2l.1.2v.1l.1.1.1-.1v-.2l.1-.3v-.4l.1-.6v-.7l.1-.8v-1.1l.1-1.2v-1.5l.1-1.7v-3.7l.1-2v-1.9l.1-1.9v-1.8l.1-1.6v-1.3l.1-1.2v-1l.1-.9v-.6l.1-.5v-.4l.1-.3v-.1l.1-.1h.1v.1l.1.2v.2l.1.2v.3l.1.3v.6l.1.3v.4l.1.3v.3l.1.4v.3l.1.3v.4l.1.2v.3l.1.3v.2l.1.2v.2l.1.1v.2l.1.1h.1l.1-.1v-.1l.1-.1v-.1l.1-.1v-.2l.1-.1v-.3l.1-.2v-.1l.1-.1v-.1l.1-.1.1-.1h.1v.1h.1v.2l.1.1v.2l.1.1v.2l.1.1v.2l.1.2v.2l.1.2v.4l.1.2v.2l.1.2v.2l.1.2v.2l.1.2v.4l.1.2v.2l.1.2v.2l.1.2v.2l.1.2v.4l.1.3v.2l.1.2v.2l.1.2v.3l.1.2v.5l.1.2v.3l.1.2v.3l.1.2v.5l.1.2v.2l.1.2v.2l.1.2v.3l.1.2v.1l.1.1v.1l.1.1v.1h.1l.1-.1.1-.1v-.2l.1-.2v-.1l.1-.2v-.1l.1-.2v-.4l.1-.2v-.2l.1-.2v-.2l.1-.2v-.3l.1-.1v-.2l.1-.1v-.1l.1-.1v-.1h.3v.1h.1v.1h.1v.2l.1.1.1.1v.1h.1v.1h.2l.1-.1v-.1h.1v-.2l.1-.2v-.1l.1-.1v-.3l.1-.1v-.1l.1-.2v-.2l.1-.1v-.1l.1-.1v-.1h.1v-.1h.3v.1l.1.1.1.1v.1l.1.1v.1l.1.1v.1l.1.1v.1h.1v.1l.1.1h.1l.1-.1.1-.1v-.2l.1-.1v-.2l.1-.1v-.4l.1-.2v-.5l.1-.2v-.2l.1-.3v-.4l.1-.3v-.2l.1-.2v-.4l.1-.1v-.2l.1-.1v-.2l.1-.1v-.2h.1v-.1h.1v-.1h.1v-.1h.1v-.1l.1-.1v-.3l.1-.2v-.2l.1-.3v-.7l.1-.5v-1.1l.1-.6v-.7l.1-.8v-1.7l.1-1v-1.9l.1-.9v-.9l.1-.9v-1.7l.1-.7v-1.3l.1-.5v-.4l.1-.4v-.5l.1-.1v-.2h.1v.2l.1.1v.2l.1.2v.5l.1.2v.6l.1.4v.3l.1.4v.7l.1.4v.8l.1.4v.8l.1.3v.4l.1.4v.8l.1.4v.8l.1.3v.8l.1.3v.4l.1.3v.6l.1.4v.6l.1.3v.5l.1.3v.5l.1.3v.2l.1.2v.5l.1.2v.5l.1.2v.4l.1.2v.4l.1.2v.4l.1.2v.2l.1.2v.3l.1.2v.4l.1.2v.4l.1.2v.3l.1.2v.4l.1.2v.5l.1.2v.4l.1.2v.2l.1.3v.5l.1.2v.5l.1.3v.5l.1.3v.5l.1.3v.6l.1.3v.6l.1.3v.6l.1.3v.6l.1.3v.7l.1.3v.6l.1.4v.6l.1.3v.7l.1.3v.7l.1.3v.6l.1.3v.6l.1.3v.6l.1.3v.5l.1.3v.5l.1.2v.4l.1.2v.4l.1.1v.3l.1.2v.2l.1.1v.1l.1.1v.2h.1v.1l.1.1v.1l.1.1v.2h.1v.2l.1.1v.3l.1.1v.3l.1.1v.4l.1.1V16.1v.2l.1.2v.4l.1.2v.7l.1.2v.4l.1.2v.4l.1.2v.4l.1.2v.3l.1.2v.2l.1.1v.1h.1v-.2l.1-.1v-.9l.1-.5v-1.3l.1-.9v153.9-1.2l.1-1.5v-3.8l.1-2.3v-5l.1-2.6v-7.2l.1-2v-3.2l.1-1.2v-1.9l.1-.7V137l.1-.3v-.5l.1-.2v-.1l.1.1v.1l.1.2v.3l.1.2v.4l.1.3v.8l.1.3v.6l.1.3v.6l.1.4v.6l.1.4v1l.1.3v.7l.1.3v.6l.1.4v.9l.1.3v.5l.1.3v.5l.1.2v.6l.1.2v.2l.1.2v.2h.1v.1h.1v-.1l.1-.1v-.4l.1-.2v-.9l.1-.3v-.9l.1-.6v-1.2l.1-.7v-2.3l.1-.8v-1.8l.1-.9v-2.6l.1-.8v-1.6l.1-.7v-1.3l.1-.5v-1.5l.1-.3v-.7l.1-.3v-.6l.1-.1v-.3l.1-.1v-.1h.1l.1.1v.1l.1.1v.2l.1.1v.4l.1.1v.3l.1.2v.5l.1.2v.3l.1.2v.6l.1.2v.3l.1.2v.5l.1.2v.3l.1.2v.4l.1.2v.3l.1.1v.4l.1.2v.2l.1.2v.4l.1.1v.5l.1.1v.3l.1.2v.5l.1.2v.4l.1.1v.6l.1.2v.6l.1.2v.4l.1.2v.6l.1.2v.6l.1.2v.3l.1.2v.6l.1.2v.5l.1.1v.4l.1.2v.5l.1.1v.5l.1.2v.3l.1.2v.5l.1.1v.5l.1.2v.4l.1.1v.6l.1.2v.5l.1.2v.6l.1.2v.4l.1.2v.6l.1.3v.6l.1.2v.6l.1.2v.6l.1.2v.4l.1.2v.6l.1.2v.6l.1.2v.5l.1.2v.6l.1.1v.4l.1.1v.5l.1.2v.4l.1.2v.4l.1.1v.4l.1.2v.4l.1.1v.4l.1.2v.4l.1.1v.3l.1.1v.5l.1.1v.5l.1.1v.5l.1.2v.5l.1.1v.2"/></g><path stroke="#d1d5db" d="M34 221v155m0-77.5h358"/><text x="213" y="402" fill="#6b7280" font-size="9" text-anchor="middle">Hz</text><text x="12" y="298.5" fill="#6b7280" font-size="9" text-anchor="middle" transform="rotate(-90 12 298.5)">Delay (smp)</text><path stroke="#e5e7eb" stroke-width=".5" d="M66.6 221v155m19.1-155v155m13.6-155v155m10.5-155v155m8.6-155v155m7.3-155v155m6.2-155v155m5.6-155v155m37.6-155v155m19.1-155v155m13.5-155v155m10.6-155v155m8.5-155v155m7.3-155v155m6.3-155v155m5.5-155v155m37.6-155v155m19.1-155v155m13.6-155v155m10.5-155v155m8.6-155v155m7.3-155v155m6.2-155v155m5.6-155v155M392 221v155M142.5 221v155"/><text x="142.5" y="388" fill="#6b7280" font-size="8" text-anchor="middle">100</text><path stroke="#e5e7eb" stroke-width=".5" d="M250.9 221v155"/><text x="250.9" y="388" fill="#6b7280" font-size="8" text-anchor="middle">1k</text><path stroke="#e5e7eb" stroke-width=".5" d="M359.4 221v155"/><text x="359.4" y="388" fill="#6b7280" font-size="8" text-anchor="middle">10k</text><path stroke="#e5e7eb" stroke-width=".5" d="M34 376h358"/><text x="30" y="379" fill="#6b7280" font-size="8" text-anchor="end">-100</text><path stroke="#e5e7eb" stroke-width=".5" d="M34 337.3h358"/><text x="30" y="340.3" fill="#6b7280" font-size="8" text-anchor="end">-50</text><text x="30" y="301.5" fill="#6b7280" font-size="8" text-anchor="end">0</text><path stroke="#e5e7eb" stroke-width=".5" d="M34 259.8h358"/><text x="30" y="262.8" fill="#6b7280" font-size="8" text-anchor="end">50</text><path stroke="#e5e7eb" stroke-width=".5" d="M34 221h358"/><text x="30" y="224" fill="#6b7280" font-size="8" text-anchor="end">100</text><g clip-path="url(#f)"><path fill="url(#g)" d="M37.5 298.5v-2.8h51.7l13.6-.1 10.5-.1 8.6-.1 7.2-.1 6.3-.1 5.6-.1 4.9-.1 4.5-.1 4.1-.2 3.8-.1 3.5-.1 3.2-.1 3.1-.1 2.8-.1 2.7-.1h2.6l2.4-.1h8.6l1.9.1 1.8.1h1.8l1.7.2 1.7.1 1.6.2 1.5.2 1.5.2 1.5.3 1.4.3 1.3.3 1.4.4 1.3.4 1.2.4 1.2.5 1.2.5 1.2.3h43.4l.4-.9.5-.9.4-.7.5-.7.4-.7.4-.6.5-.6.4-.5.4-.5.4-.5.5-.5.4-.4.4-.4.4-.4.4-.4.4-.3.4-.4.4-.3.3-.2.4-.3.4-.2.4-.2.4-.2.3-.2.4-.1.4-.1.3-.1h.4l.4-.1h.7l.3.1.4.1.3.1.4.1.3.2.3.2.4.3.3.3.3.3.4.4.3.4.3.5.3.6.3.5.4.7.3.7.3.7.3.8.3.9.3.8.3 1 .3.9.3.8h5.9l.3-.1.3-.6.2-.7.3-.6.2-.5.3-.5.3-.5.2-.4.3-.3.2-.4.3-.2.2-.3.3-.1.2-.2.2-.1h.5l.3.1.2.1.3.2.2.2.2.3.3.3.2.4.2.5.3.5.2.6.2.6.2.7.3.8.2.2h6.5l.2-.6.2-1.1.2-1 .2-.9.2-.9.2-.9.2-.8.2-.7.1-.7.2-.7.2-.6.2-.6.2-.5.2-.5.2-.5.2-.4.1-.4.2-.3.2-.4.2-.2.2-.3.1-.2.2-.2.2-.2.2-.1.2-.1.1-.1h.4l.2-.1.1.1h.4l.2.1.1.1.2.1.2.1.1.1.2.1.2.2.1.1.2.2.2.1.1.2.2.3.2.2.1.4.2.4.2.5.1.8.2 1.1.2 1.7.1 2.7.2 4.4h1.4l.1-4.1.2-3.1.2-2 .1-1.2.2-.9.1-.6.2-.4.1-.3.2-.2.1-.1.2-.1h.6l.1.1h.2l.1.1.2.1.1.1.2.1.1.1.1.1.2.1.1.1.2.1.1.2.2.1.1.1.1.1.2.1.1.1.2.2.1.1.1.1.2.1.1.1.2.1.1.1.1.1.2.1.1.1.1.1.2.1.1.1.2.1.1.2.1.1.2.1.1.2.1.1.2.2.1.1.1.2.2.2.1.3.1.2.1.2.2.3.1.2.1.3.2.2.1.3.1.3.1.3.2.2.1.3.1.2.2.3.1.2.1.2.1.1.2.2.1.1.1.1.1.1h.2l.1.1h.2l.2-.1h.1l.1-.1.1-.1h.1l.2-.1.1-.1.1-.1.1-.1.1-.1.2-.1.1-.1.1-.1h.1l.1-.1h.3l.1-.1h.3l.2.1h.2l.1.1.1.1h.1l.2.1.1.1.1.1.1.1.1.1.1.1.1.2.1.1.2.1.1.2.1.2.1.1.1.2.1.2.1.2.1.2.2.3.1.3.1.2.1.3.1.4.1.3.1.4.1.2h3.9l.1-.3.1-.4.1-.4.1-.3.1-.2.1-.2.1-.1.1-.1.1-.1h.1l.1.1.1.1.1.2.1.2v.2l.1.4.1.3.1.5.1.1h2.8l.1-.2.1-.4.1-.4.1-.3.1-.3.1-.2.1-.2.1-.2v-.1l.1-.1h.5l.1.1h.2l.1.1h.1l.1-.1h.1l.1-.1.1-.1.1-.2.1-.1.1-.2.1-.1.1-.2v-.2l.1-.2.1-.2.1-.2.1-.1.1-.2.1-.1v-.2l.1-.1.1-.1h.4l.1.1.1.1.1.1.1.1v.2l.1.1.1.2.1.2.1.2v.2l.1.1.1.2.1.2.1.2.1.1v.1l.1.1.1.1h.1l.1.1v-.1h.1l.1-.1.1-.1.1-.1v-.1l.1-.2.1-.2.1-.2.1-.2v-.2l.1-.1.1-.2.1-.2.1-.1v-.1l.1-.1h.1l.1-.1v.1l.1.1.1.1.1.2.1.2v.3l.1.3.1.4.1.5v.5l.1.6.1.6.1.6v.1h3.3l.1-.1.1-.1.1-.2v-.1l.1-.2.1-.1v-.2l.1-.1.1-.2v-.1l.1-.2.1-.1.1-.2v-.1l.1-.2.1-.2v-.1l.1-.1.1-.2v-.1l.1-.1.1-.1v-.1l.1-.1.1-.1h.3v.1l.1.1.1.1v.1l.1.1.1.2v.2l.1.2.1.2v.2l.1.2.1.2v.2l.1.2.1.2v.2l.1.1.1.2v.1l.1.2.1.1h.5l.1-.1v-.1l.1-.1.1-.2v-.1l.1-.2v-.2l.1-.2.1-.2v-.2l.1-.2.1-.3v-.2l.1-.2.1-.2v-.1l.1-.2.1-.1v-.2l.1-.1.1-.1h.1l.1.1.1.1v.1l.1.1v.1l.1.2.1.2v.2l.1.2.1.2v.2l.1.2v.2l.1.2.1.2v.1l.1.2.1.1v.2h.1v.1l.1.1h.2v-.1h.1l.1-.1v-.1l.1-.1.1-.1.1-.1v-.1l.1-.1h.1v-.1h.2l.1.1v.1l.1.1v.1l.1.2v.2l.1.2.1.1h.9l.1-.1v-.3l.1-.2v-.3l.1-.3.1-.2v-.2l.1-.2v-.1l.1-.1v-.1l.1-.1h.1v.1h.1v.1l.1.2v.1l.1.2.1.3v.2l.1.3v.4l.1.3h1.8v-.1l.1-.4v-.3l.1-.3v-.2l.1-.2v-.1l.1-.1v-.1h.2v.1l.1.1v.1l.1.1v.2l.1.2v.2l.1.3v.2l.1.2v.1h.6v-.2l.1-.3v-.3l.1-.4v-.4l.1-.4v-.4l.1-.4v-.5l.1-.4v-.4l.1-.4v-.3l.1-.4v-.3l.1-.3v-.3l.1-.2.1-.3v-.2l.1-.2v-.1l.1-.2v-.1l.1-.1v-.1l.1-.1v-.1l.1-.1.1-.1.1-.1h.1v-.1h.2l.1.1.1.1v.1l.1.2v.2l.1.2v.3l.1.3v.4l.1.5v.6l.1.7v.8l.1.9v1.1l.1 1.3v.4h1.4v-.5l.1-1.2v-1l.1-.9v-.8l.1-.7v-.5l.1-.5v-.6l.1-.2v-.1h.1l.1.1v.2l.1.2v.3l.1.4v.4l.1.4v.5l.1.6v.6l.1.6v1.2l.1.7v.6l.1.2h.8l.1-.5v-.5l.1-.4v-.8l.1-.3v-.3l.1-.3v-.3l.1-.2v-.2l.1-.1v-.1l.1-.1v-.1h.3v.1h.2v.1l.1-.1h.1l.1-.1v-.1l.1-.1v-.1l.1-.1.1-.1v-.1h.1v-.1l.1-.1h.1v.1h.1v.2l.1.2v.1l.1.2v.2l.1.3v.6l.1.3v.3l.1.4v.4l.1.4v.9l.1.4h1.3v-.5l.1-.3v-.2l.1-.1v-.2l.1-.1v-.1l.1.1.1.1v.3l.1.2v.2l.1.3v.3h1.1v-.1l.1-.2v-.2l.1-.2v-.3l.1-.2v-.1l.1-.1v-.1l.1-.1h.1v.1l.1.1v.1l.1.1v.4l.1.2v.3l.1.2v.1h2.9l.1-.6v-1.7l.1-.8v-.7l.1-.6v-1l.1-.5v-.7l.1-.3v-.3l.1-.2v-.3l.1-.2v-.1l.1-.1h.2v.2l.1.1v.2l.1.1v.2l.1.2v.1l.1.2v.3l.1.1v.3l.1.2v.3l.1.1v.3l.1.1v.1l.1.1v.2l.1.1v.2l.1.1v.1l.1.1v.1h.1v.1h.2v.1h.2v-.1h.1v-.1h.1v-.1l.1-.1v-.1l.1-.1v-.1l.1-.1v-.1l.1-.1v-.1l.1-.1v-.2l.1-.1v-.2l.1-.1v-.1l.1-.1v-.2h.1v-.2h.1v-.2h.1v-.1h.1v-.1h.1v-.1h.2l.1.1.1.1v.1l.1.1v.2l.1.1v.2l.1.1v.4l.1.1v.4l.1.2v.5l.1.2v.5l.1.2v.5l.1.2v.4l.1.2v.3l.1.1v.2h.1v.1l.1-.1v-.1h.1v-.3l.1-.1v-.3l.1-.1v-.4l.1-.1v-.4l.1-.1v-.3l.1-.2v-.2l.1-.1v-.2l.1-.1v-.1h.1l.1.1v.1l.1.1v.3l.1.2v.5l.1.4v.8l.1.4v1.3l.1.2h1.1v-.5l.1-.7v-1.2l.1-.5v-.9l.1-.4v-.6l.1-.3v-.7l.1-.2v-.3l.1-.1v-.2l.1-.1v-.1l.1-.1h.1v.1l.1.1v.2l.1.1v.4l.1.2v.4l.1.2v.4l.1.3v.8l.1.3v.7l.1.3v.8l.1.4v1.2h1.6v-.5l.1-.3v-.7l.1-.2v-.4l.1-.2v-.5l.1-.2v-.3l.1-.1v-.2l.1-.1v-.1h.2v.1l.1.1v.1l.1.1v.2h.1v.2l.1.1.1.1h.2v-.1l.1-.1v-.1l.1-.1v-.1l.1-.1v-.2h.1v-.2h.1v-.2h.1v-.1h.2l.1.1v.1h.1v.1h.1v.1l.1.1v.1h.1v.1h.2v.1l.1-.1h.1l.1-.1.1-.1.1-.1v-.1h.1v-.1l.1-.1v-.1h.1l.1-.1h.4v.1h.1v.1h.1v.1l.1.1v.1h.1v.2h.1v.1h.1v.2h.1v.2h.1v.1h.1v.1h.3v-.1h.2v-.1l.1-.1v-.1h.1v-.1h.1v-.1h.1v-.1 3.5z"/><path fill="url(#h)" d="M37.5 298.5h173.7l1.2.2 1.1.6 1.1.6 1.1.6 1.1.6 1 .6 1 .6 1 .6 1 .6.9.6 1 .5.9.5.9.4.9.4.8.3.9.3.8.3.8.2.8.2.8.1.8.2.8.2.7.1.8.3.7.3.7.3.7.5.7.6.7.8.7.9.6 1.1.7 1.3.7 1.5.6 1.8.6 2 .7 2.1.6 2.4.6 2.4.6 2.4.6 2.2.6 2 .5 1.4.6.8.6.1.5-.7.6-1.4.5-2 .6-2.4.5-2.7.5-2.9.5-2.8.6-2.8.5-2.6.5-2.4.5-2.2.5-2 .4-1.9.5-1.6.5-1.5.5-1.3.4-1.2.5-1.1.5-1h19.5l.3.1.3 1 .3.9.3.9.3.8.3.7.3.6.3.5.3.4.3.2.2.1h.3l.3-.2.3-.4.2-.4.3-.5.3-.6.3-.7.2-.7.3-.7.3-.7.2-.7.3-.6h7.1l.2.7.2.9.2.9.3 1.1.2 1 .2 1.1.2 1.1.3 1.2.2 1.1.2 1.1.2 1 .2.9.2.8.2.7.3.5.2.3.2.2.2-.1.2-.3.2-.5.2-.7.2-.8.2-1 .2-1.1.2-1.1.2-1.2.2-1.3.2-1.2.2-1.3.2-1.2.2-1.2.2-1.1.2-.5h9.2l.2.3.1 9.5.2 23.6.2 44.1h.4l.2-32.7.1-31.5.2-11.7.1-1.6h16.7l.1.2.1.4.1.4.1.5.1.5.2.5.1.5.1.6.1.5.1.6.1.5.1.5.1.6.1.4.1.4.1.4.1.3.1.2.1.2h.2l.1-.1.1-.2.1-.3.2-.4.1-.4.1-.5.1-.6.1-.5.1-.6.1-.6.1-.6.1-.6.1-.6.1-.6.1-.5.1-.5.1-.5.1-.1h1.6l.1.3.1.5.1.6.1.5.1.6.1.6.1.6.1.6.1.5.1.5.1.5.1.3.1.3.1.3.1.1h.1l.1-.2.1-.2.1-.4.1-.4.1-.4.1-.6.1-.5.1-.6.1-.5.1-.6.1-.6.1-.5v-.6l.1-.4.1-.3h8.1v.6l.1.8.1.7.1.8v.7l.1.8.1.7.1.7v.6l.1.5.1.5.1.3v.3l.1.1.1.1.1-.1v-.1l.1-.3.1-.3.1-.3v-.4l.1-.4.1-.5.1-.4v-.4l.1-.4.1-.4.1-.4v-.3l.1-.4.1-.3v-.2l.1-.3.1-.2.1-.2v-.2l.1-.2.1-.2v-.2l.1-.1.1-.2.1-.1v-.2l.1-.1.1-.2v-.1l.1-.1h3.4l.1.1h.3l.1-.1h4.4l.1.1v.2l.1.2v.2l.1.1.1.2v.1l.1.1h.2v-.1l.1-.1v-.2l.1-.2v-.2l.1-.3.1-.1h1.3v.4l.1.4.1.4v.5l.1.4v.5l.1.4v.5l.1.4v.4l.1.4.1.3v.3l.1.2v.2l.1.1.1-.1v-.2l.1-.2.1-.3v-.3l.1-.4v-.4l.1-.4v-.5l.1-.5v-.5l.1-.5v-.4l.1-.4.1-.5v-.2h1.1v.1l.1.2v.1l.1.1v.1h.2l.1-.1v-.2l.1-.2v-.1h2.9v1.1l.1 1.7v2l.1 2.3v2.6l.1 3v3.4l.1 3.7v4l.1 4v4l.1 3.6v4.5l.1.5v-1l.1-2.1v-3.1l.1-3.8v-4l.1-3.9v-3.9l.1-3.5v-3.1l.1-2.9v-2.5l.1-2.1v-1.9l.1-1.6v-1h1.3l.1.4v.6l.1.5v.5l.1.4v.3l.1.2v.2h.1v-.2l.1-.2v-.3l.1-.3v-.4l.1-.4v-.4l.1-.5v-.4h2.9v.5l.1.4v.5l.1.4v.8l.1.3v.3l.1.3v.2l.1.1v.2h.1l.1-.1v-.2l.1-.2v-.4l.1-.3v-.3l.1-.3v-.3l.1-.4v-.6l.1-.3v-.3l.1-.3h.7l.1.3v.6l.1.3v.3l.1.3v.4l.1.2v.2l.1.1h.1v-.1l.1-.1v-.3l.1-.2v-.2l.1-.2v-.5l.1-.2v-.3l.1-.2v-.4h1v.6l.1.3v.4l.1.4v.7l.1.4v.3l.1.4v.6l.1.2v.4l.1.1v.1h.1v-.2l.1-.1v-.2l.1-.2v-.6l.1-.3v-.4l.1-.3v-.6l.1-.3v-.6l.1-.2v-.1l.1-.1v-.1l.1.1v.4l.1.3v.4l.1.5v1.3l.1.8v.9l.1 1v2.3l.1 1.3v2.7l.1 1.4v1.3l.1 1.2v2l.1.6v.5l.1-.3v-.5l.1-.9v-2.3l.1-1.4v-3l.1-1.6v-1.5l.1-1.5v-2.7l.1-1.3v-2.2l.1-.4h7.1l.1.5v2l.1 1.2v4.9l.1 2.3v5.6l.1 3.6v8.5l.1 4.9v10.3l.1 4.4v5.1l.1-.2v-10.3l.1-5.1v-9.9l.1-4.4v-7.3l.1-2.9v-4.8l.1-1.8V302l.1-1.2v-2.3h1.7v.2l.1.5v1.2l.1.6v1.5l.1.7v2.7l.1.9v2.1l.1 1v2.1l.1.9v2.5l.1.6v.6l.1.1v-1l.1-.6v-1.6l.1-.9v-1.9l.1-1v-2.8l.1-.9v-1.6l.1-.7v-1.8l.1-.6v-.9l.1-.4v-1.1l.1-.3v-.1h6.1z"/><path fill="none" stroke="#22c55e" stroke-linejoin="round" stroke-width="1.5" d="M37.5 295.7h51.7l13.6-.1 10.5-.1 8.6-.1 7.2-.1 6.3-.1 5.6-.1 4.9-.1 4.5-.1 4.1-.2 3.8-.1 3.5-.1 3.2-.1 3.1-.1 2.8-.1 2.7-.1h2.6l2.4-.1h8.6l1.9.1 1.8.1h1.8l1.7.2 1.7.1 1.6.2 1.5.2 1.5.2 1.5.3 1.4.3 1.3.3 1.4.4 1.3.4 1.2.4 1.2.5 1.2.5 1.2.5 1.1.6 1.1.6 1.1.6 1.1.6 1 .6 1 .6 1 .6 1 .6.9.6 1 .5.9.5.9.4.9.4.8.3.9.3.8.3.8.2.8.2.8.1.8.2.8.2.7.1.8.3.7.3.7.3.7.5.7.6.7.8.7.9.6 1.1.7 1.3.7 1.5.6 1.8.6 2 .7 2.1.6 2.4.6 2.4.6 2.4.6 2.2.6 2 .5 1.4.6.8.6.1.5-.7.6-1.4.5-2 .6-2.4.5-2.7.5-2.9.5-2.8.6-2.8.5-2.6.5-2.4.5-2.2.5-2 .4-1.9.5-1.6.5-1.5.5-1.3.4-1.2.5-1.1.5-1 .4-.9.5-.9.4-.7.5-.7.4-.7.4-.6.5-.6.4-.5.4-.5.4-.5.5-.5.4-.4.4-.4.4-.4.4-.4.4-.3.4-.4.4-.3.3-.2.4-.3.4-.2.4-.2.4-.2.3-.2.4-.1.4-.1.3-.1h.4l.4-.1h.7l.3.1.4.1.3.1.4.1.3.2.3.2.4.3.3.3.3.3.4.4.3.4.3.5.3.6.3.5.4.7.3.7.3.7.3.8.3.9.3.8.3 1 .3.9.3.9.3 1 .3.9.3.9.3.8.3.7.3.6.3.5.3.4.3.2.2.1h.3l.3-.2.3-.4.2-.4.3-.5.3-.6.3-.7.2-.7.3-.7.3-.7.2-.7.3-.7.3-.6.2-.7.3-.6.2-.5.3-.5.3-.5.2-.4.3-.3.2-.4.3-.2.2-.3.3-.1.2-.2.2-.1h.5l.3.1.2.1.3.2.2.2.2.3.3.3.2.4.2.5.3.5.2.6.2.6.2.7.3.8.2.9.2.9.2.9.3 1.1.2 1 .2 1.1.2 1.1.3 1.2.2 1.1.2 1.1.2 1 .2.9.2.8.2.7.3.5.2.3.2.2.2-.1.2-.3.2-.5.2-.7.2-.8.2-1 .2-1.1.2-1.1.2-1.2.2-1.3.2-1.2.2-1.3.2-1.2.2-1.2.2-1.1.2-1.1.2-1.1.2-1 .2-.9.2-.9.2-.9.2-.8.2-.7.1-.7.2-.7.2-.6.2-.6.2-.5.2-.5.2-.5.2-.4.1-.4.2-.3.2-.4.2-.2.2-.3.1-.2.2-.2.2-.2.2-.1.2-.1.1-.1h.4l.2-.1.1.1h.4l.2.1.1.1.2.1.2.1.1.1.2.1.2.2.1.1.2.2.2.1.1.2.2.3.2.2.1.4.2.4.2.5.1.8.2 1.1.2 1.7.1 2.7.2 4.7.1 9.5.2 23.6.2 44.1m.4 0 .2-32.7.1-31.5.2-11.7.1-5.7.2-3.1.2-2 .1-1.2.2-.9.1-.6.2-.4.1-.3.2-.2.1-.1.2-.1h.6l.1.1h.2l.1.1.2.1.1.1.2.1.1.1.1.1.2.1.1.1.2.1.1.2.2.1.1.1.1.1.2.1.1.1.2.2.1.1.1.1.2.1.1.1.2.1.1.1.1.1.2.1.1.1.1.1.2.1.1.1.2.1.1.2.1.1.2.1.1.2.1.1.2.2.1.1.1.2.2.2.1.3.1.2.1.2.2.3.1.2.1.3.2.2.1.3.1.3.1.3.2.2.1.3.1.2.2.3.1.2.1.2.1.1.2.2.1.1.1.1.1.1h.2l.1.1h.2l.2-.1h.1l.1-.1.1-.1h.1l.2-.1.1-.1.1-.1.1-.1.1-.1.2-.1.1-.1.1-.1h.1l.1-.1h.3l.1-.1h.3l.2.1h.2l.1.1.1.1h.1l.2.1.1.1.1.1.1.1.1.1.1.1.1.2.1.1.2.1.1.2.1.2.1.1.1.2.1.2.1.2.1.2.2.3.1.3.1.2.1.3.1.4.1.3.1.4.1.4.1.4.1.4.1.5.1.5.2.5.1.5.1.6.1.5.1.6.1.5.1.5.1.6.1.4.1.4.1.4.1.3.1.2.1.2h.2l.1-.1.1-.2.1-.3.2-.4.1-.4.1-.5.1-.6.1-.5.1-.6.1-.6.1-.6.1-.6.1-.6.1-.6.1-.5.1-.5.1-.5.1-.4.1-.4.1-.4.1-.3.1-.2.1-.2.1-.1.1-.1.1-.1h.1l.1.1.1.1.1.2.1.2v.2l.1.4.1.3.1.5.1.4.1.5.1.6.1.5.1.6.1.6.1.6.1.6.1.5.1.5.1.5.1.3.1.3.1.3.1.1h.1l.1-.2.1-.2.1-.4.1-.4.1-.4.1-.6.1-.5.1-.6.1-.5.1-.6.1-.6.1-.5v-.6l.1-.4.1-.5.1-.4.1-.4.1-.3.1-.3.1-.2.1-.2.1-.2v-.1l.1-.1h.5l.1.1h.2l.1.1h.1l.1-.1h.1l.1-.1.1-.1.1-.2.1-.1.1-.2.1-.1.1-.2v-.2l.1-.2.1-.2.1-.2.1-.1.1-.2.1-.1v-.2l.1-.1.1-.1h.4l.1.1.1.1.1.1.1.1v.2l.1.1.1.2.1.2.1.2v.2l.1.1.1.2.1.2.1.2.1.1v.1l.1.1.1.1h.1l.1.1v-.1h.1l.1-.1.1-.1.1-.1v-.1l.1-.2.1-.2.1-.2.1-.2v-.2l.1-.1.1-.2.1-.2.1-.1v-.1l.1-.1h.1l.1-.1v.1l.1.1.1.1.1.2.1.2v.3l.1.3.1.4.1.5v.5l.1.6.1.6.1.6v.7l.1.8.1.7.1.8v.7l.1.8.1.7.1.7v.6l.1.5.1.5.1.3v.3l.1.1.1.1.1-.1v-.1l.1-.3.1-.3.1-.3v-.4l.1-.4.1-.5.1-.4v-.4l.1-.4.1-.4.1-.4v-.3l.1-.4.1-.3v-.2l.1-.3.1-.2.1-.2v-.2l.1-.2.1-.2v-.2l.1-.1.1-.2.1-.1v-.2l.1-.1.1-.2v-.1l.1-.2.1-.1.1-.2v-.1l.1-.2.1-.1v-.2l.1-.1.1-.2v-.1l.1-.2.1-.1.1-.2v-.1l.1-.2.1-.2v-.1l.1-.1.1-.2v-.1l.1-.1.1-.1v-.1l.1-.1.1-.1h.3v.1l.1.1.1.1v.1l.1.1.1.2v.2l.1.2.1.2v.2l.1.2.1.2v.2l.1.2.1.2v.2l.1.1.1.2v.1l.1.2.1.1.1.1h.3l.1-.1.1-.1v-.1l.1-.1.1-.2v-.1l.1-.2v-.2l.1-.2.1-.2v-.2l.1-.2.1-.3v-.2l.1-.2.1-.2v-.1l.1-.2.1-.1v-.2l.1-.1.1-.1h.1l.1.1.1.1v.1l.1.1v.1l.1.2.1.2v.2l.1.2.1.2v.2l.1.2v.2l.1.2.1.2v.1l.1.2.1.1v.2h.1v.1l.1.1h.2v-.1h.1l.1-.1v-.1l.1-.1.1-.1.1-.1v-.1l.1-.1h.1v-.1h.2l.1.1v.1l.1.1v.1l.1.2v.2l.1.2.1.2v.2l.1.2v.2l.1.1.1.2v.1l.1.1h.2v-.1l.1-.1v-.2l.1-.2v-.2l.1-.3.1-.2v-.3l.1-.2v-.3l.1-.3.1-.2v-.2l.1-.2v-.1l.1-.1v-.1l.1-.1h.1v.1h.1v.1l.1.2v.1l.1.2.1.3v.2l.1.3v.4l.1.3v.4l.1.4.1.4v.5l.1.4v.5l.1.4v.5l.1.4v.4l.1.4.1.3v.3l.1.2v.2l.1.1.1-.1v-.2l.1-.2.1-.3v-.3l.1-.4v-.4l.1-.4v-.5l.1-.5v-.5l.1-.5v-.4l.1-.4.1-.5v-.3l.1-.4v-.3l.1-.3v-.2l.1-.2v-.1l.1-.1v-.1h.2v.1l.1.1v.1l.1.1v.2l.1.2v.2l.1.3v.2l.1.2v.2l.1.2v.1l.1.1v.1h.2l.1-.1v-.2l.1-.2v-.3l.1-.3v-.3l.1-.4v-.4l.1-.4v-.4l.1-.4v-.5l.1-.4v-.4l.1-.4v-.3l.1-.4v-.3l.1-.3v-.3l.1-.2.1-.3v-.2l.1-.2v-.1l.1-.2v-.1l.1-.1v-.1l.1-.1v-.1l.1-.1.1-.1.1-.1h.1v-.1h.2l.1.1.1.1v.1l.1.2v.2l.1.2v.3l.1.3v.4l.1.5v.6l.1.7v.8l.1.9v1.1l.1 1.3v1.5l.1 1.7v2l.1 2.3v2.6l.1 3v3.4l.1 3.7v4l.1 4v4l.1 3.6v4.5l.1.5v-1l.1-2.1v-3.1l.1-3.8v-4l.1-3.9v-3.9l.1-3.5v-3.1l.1-2.9v-2.5l.1-2.1v-1.9l.1-1.6V298l.1-1.2v-1l.1-.9v-.8l.1-.7v-.5l.1-.5v-.6l.1-.2v-.1h.1l.1.1v.2l.1.2v.3l.1.4v.4l.1.4v.5l.1.6v.6l.1.6v1.2l.1.7v.6l.1.6v.6l.1.5v.5l.1.4v.3l.1.2v.2h.1v-.2l.1-.2v-.3l.1-.3v-.4l.1-.4v-.4l.1-.5v-.4l.1-.5v-.5l.1-.4v-.8l.1-.3v-.3l.1-.3v-.3l.1-.2v-.2l.1-.1v-.1l.1-.1v-.1h.3v.1h.2v.1l.1-.1h.1l.1-.1v-.1l.1-.1v-.1l.1-.1.1-.1v-.1h.1v-.1l.1-.1h.1v.1h.1v.2l.1.2v.1l.1.2v.2l.1.3v.6l.1.3v.3l.1.4v.4l.1.4v.9l.1.4v.5l.1.4v.5l.1.4v.8l.1.3v.3l.1.3v.2l.1.1v.2h.1l.1-.1v-.2l.1-.2v-.4l.1-.3v-.3l.1-.3v-.3l.1-.4v-.6l.1-.3v-.3l.1-.3v-.5l.1-.3v-.2l.1-.1v-.2l.1-.1v-.1l.1.1.1.1v.3l.1.2v.2l.1.3v.3l.1.3v.6l.1.3v.3l.1.3v.4l.1.2v.2l.1.1h.1v-.1l.1-.1v-.3l.1-.2v-.2l.1-.2v-.5l.1-.2v-.3l.1-.2v-.5l.1-.2v-.2l.1-.2v-.3l.1-.2v-.1l.1-.1v-.1l.1-.1h.1v.1l.1.1v.1l.1.1v.4l.1.2v.3l.1.2v.7l.1.3v.4l.1.4v.7l.1.4v.3l.1.4v.6l.1.2v.4l.1.1v.1h.1v-.2l.1-.1v-.2l.1-.2v-.6l.1-.3v-.4l.1-.3v-.6l.1-.3v-.6l.1-.2v-.1l.1-.1v-.1l.1.1v.4l.1.3v.4l.1.5v1.3l.1.8v.9l.1 1v2.3l.1 1.3v2.7l.1 1.4v1.3l.1 1.2v2l.1.6v.5l.1-.3v-.5l.1-.9v-2.3l.1-1.4v-3l.1-1.6v-1.5l.1-1.5v-2.7l.1-1.3v-2.2l.1-1v-1.7l.1-.8v-.7l.1-.6v-1l.1-.5v-.7l.1-.3v-.3l.1-.2v-.3l.1-.2v-.1l.1-.1h.2v.2l.1.1v.2l.1.1v.2l.1.2v.1l.1.2v.3l.1.1v.3l.1.2v.3l.1.1v.3l.1.1v.1l.1.1v.2l.1.1v.2l.1.1v.1l.1.1v.1h.1v.1h.2v.1h.2v-.1h.1v-.1h.1v-.1l.1-.1v-.1l.1-.1v-.1l.1-.1v-.1l.1-.1v-.1l.1-.1v-.2l.1-.1v-.2l.1-.1v-.1l.1-.1v-.2h.1v-.2h.1v-.2h.1v-.1h.1v-.1h.1v-.1h.2l.1.1.1.1v.1l.1.1v.2l.1.1v.2l.1.1v.4l.1.1v.4l.1.2v.5l.1.2v.5l.1.2v.5l.1.2v.4l.1.2v.3l.1.1v.2h.1v.1l.1-.1v-.1h.1v-.3l.1-.1v-.3l.1-.1v-.4l.1-.1v-.4l.1-.1v-.3l.1-.2v-.2l.1-.1v-.2l.1-.1v-.1h.1l.1.1v.1l.1.1v.3l.1.2v.5l.1.4v.8l.1.4v1.3l.1.7v2l.1 1.2v4.9l.1 2.3v5.6l.1 3.6v8.5l.1 4.9v10.3l.1 4.4v5.1l.1-.2v-10.3l.1-5.1v-9.9l.1-4.4v-7.3l.1-2.9v-4.8l.1-1.8V302l.1-1.2V298l.1-.7v-1.2l.1-.5v-.9l.1-.4v-.6l.1-.3v-.7l.1-.2v-.3l.1-.1v-.2l.1-.1v-.1l.1-.1h.1v.1l.1.1v.2l.1.1v.4l.1.2v.4l.1.2v.4l.1.3v.8l.1.3v.7l.1.3v.8l.1.4v1.4l.1.5v1.2l.1.6v1.5l.1.7v2.7l.1.9v2.1l.1 1v2.1l.1.9v2.5l.1.6v.6l.1.1v-1l.1-.6v-1.6l.1-.9v-1.9l.1-1v-2.8l.1-.9v-1.6l.1-.7v-1.8l.1-.6v-.9l.1-.4v-1.1l.1-.3v-.6l.1-.3v-.7l.1-.2v-.4l.1-.2v-.5l.1-.2v-.3l.1-.1v-.2l.1-.1v-.1h.2v.1l.1.1v.1l.1.1v.2h.1v.2l.1.1.1.1h.2v-.1l.1-.1v-.1l.1-.1v-.1l.1-.1v-.2h.1v-.2h.1v-.2h.1v-.1h.2l.1.1v.1h.1v.1h.1v.1l.1.1v.1h.1v.1h.2v.1l.1-.1h.1l.1-.1.1-.1.1-.1v-.1h.1v-.1l.1-.1v-.1h.1l.1-.1h.4v.1h.1v.1h.1v.1l.1.1v.1h.1v.2h.1v.1h.1v.2h.1v.2h.1v.1h.1v.1h.3v-.1h.2v-.1l.1-.1v-.1h.1v-.1h.1v-.1h.1v-.1"/></g><path stroke="#d1d5db" d="M442 221v155m0-77.5h358"/><text x="621" y="402" fill="#6b7280" font-size="9" text-anchor="middle">Samples</text><text x="420" y="298.5" fill="#6b7280" font-size="9" text-anchor="middle" transform="rotate(-90 420 298.5)">Impulse</text><path stroke="#e5e7eb" stroke-width=".5" d="M442 221v155"/><text x="442" y="388" fill="#6b7280" font-size="8" text-anchor="middle">0</text><path stroke="#e5e7eb" stroke-width=".5" d="M581.8 221v155"/><text x="581.8" y="388" fill="#6b7280" font-size="8" text-anchor="middle">200</text><path stroke="#e5e7eb" stroke-width=".5" d="M721.7 221v155"/><text x="721.7" y="388" fill="#6b7280" font-size="8" text-anchor="middle">400</text><path stroke="#e5e7eb" stroke-width=".5" d="M442 363.1h358"/><text x="438" y="366.1" fill="#6b7280" font-size="8" text-anchor="end">-1</text><text x="438" y="301.5" fill="#6b7280" font-size="8" text-anchor="end">0</text><path stroke="#e5e7eb" stroke-width=".5" d="M442 233.9h358"/><text x="438" y="236.9" fill="#6b7280" font-size="8" text-anchor="end">1</text><path stroke="#e5e7eb" stroke-dasharray="3 2" stroke-width=".5" d="M442 233.9h358"/><text x="438" y="236.9" fill="#6b7280" font-size="7" text-anchor="end">+1</text><path stroke="#e5e7eb" stroke-dasharray="3 2" stroke-width=".5" d="M442 363.1h358"/><text x="438" y="366.1" fill="#6b7280" font-size="7" text-anchor="end">-1</text><g clip-path="url(#i)"><path fill="url(#j)" d="m442 298.5.7-30.7.7 30.7.7-16.2.7 16.2.7-7.7.7 7.7.7-1 .7-5.4.7 6.4.7-13 .7 13 .7-2.7.7-.6.7 3.3h.7l.7-.6.7-2.4.7 3 .7-4.6.7 4.6h.7l.7-.5.7.5h.7l.7-4.9.7 4.9.7-.6.7.6.7-1.2.7 1.2h1.4l.7-1.4.7 1.4.7-1.3.7 1.3.7-1 .7-.3.7 1.3h.7l.7-.1.7.1.7-.3.7.3.7-.4.7.3.7.1.7-.3.7.3h.7l.7-1.2.7 1.2h.7l.7-.8.7.7.7.1h.7l.7-.1.7.1h2.1l.7-.6.7.5.6.1h.7l.7-.4.7.3.7.1.7-.1.7-.2.7.3h2.8l.7-.3.7.3h.7l.7-.2.7.2h1.4l.7-.1.7.1h3.5l.7-.1.7.1h1.4l.7-.1.7-.1.7.1.7.1h3.5l.7-.1.7.1h283.9z"/><path fill="url(#k)" d="M442 298.5v26.6l.7-26.6.7 15.7.7-15.7.7 11.5.7-11.5.7 7.1.7-7.1h.7l.7 11.9.7-11.9.7 9.1.7-9.1h.7l.7 2.1.7-1.9.7-.2h.7l.7 6.9.7-6.9.7 3 .7-1.5.7-1.5.7.1.7.8.7-.9.7 3.1.7-3.1.7 1.4.7-1.4.7 1.4.7-.7.7-.4.7-.3.7 2 .7-2 .7.6.7-.6h.7l.7.1.7.2.7-.3.7.2.7-.2.7 1 .7-1h.7l.7.4.7-.4.7.2h.7l.7-.2h.7l.7.7.7-.7h.7l.7.3.7.1.7-.4.7.5.7-.5.7.4.7-.3.7-.1h.7l.6.3.7-.1.7-.2h.7l.7.2.7-.2h3.5l.7.1.7-.1.7.2.7-.1.7-.1h.7l.7.1.7-.1h1.4l.7.1.7-.1h3.5l.7.1h.7l.7-.1h1.4l.7.1.7-.1h288.1z"/><path fill="none" stroke="#eab308" stroke-linejoin="round" stroke-width="1.2" d="m442 325.1.7-57.3.7 46.4.7-31.9.7 27.7.7-19.2.7 14.8.7-8.1.7-5.4.7 18.3.7-24.9.7 22.1.7-11.8.7-.6.7 5.4.7-1.9.7-.8.7-2.4.7 9.9.7-11.5.7 7.6.7-1.5.7-2 .7.6.7.8.7-5.8.7 8 .7-3.7.7 2 .7-2.6.7 2.6.7-.7.7-.4.7-1.7.7 3.4.7-3.3.7 1.9.7-1.6.7-.3.7 1.4.7.2.7-.4.7.3.7-.5.7 1.3.7-1.4.7.3.7.5.7-.7.7.5h.7l.7-1.4.7 1.2.7.7.7-1.5.7.7.7.4.7.1.7-.5.7.6.7-.5.7.4.7-.3.7-.7.7.5.6.4.7-.1.7-.6.7.3.7.3.7-.3.7-.2.7.3h2.1l.7.1.7-.4.7.5.7-.1.7-.3.7.2.7.1.7-.1.7-.1.7.1.7.1.7-.1h2.1l.7-.1.7.1.7.1h.7l.7-.2.7-.1.7.1.7.2.7-.1h2.8l.7-.1.7.1h283.9"/></g></svg>