<svg xmlns="http://www.w3.org/2000/svg" style="font-family:system-ui,-apple-system,sans-serif" viewBox="0 0 820 392"><defs><linearGradient id="b" x1="0" x2="0" y1="16" y2="171" gradientUnits="userSpaceOnUse"><stop offset="0%" stop-color="#3b82f6" stop-opacity=".15"/><stop offset="100%" stop-color="#3b82f6" stop-opacity=".01"/></linearGradient><linearGradient id="d" x1="0" x2="0" y1="75" y2="94" gradientUnits="userSpaceOnUse"><stop offset="0%" stop-color="#ef4444" stop-opacity=".15"/><stop offset="100%" stop-color="#ef4444" stop-opacity=".01"/></linearGradient><linearGradient id="e" x1="0" x2="0" y1="94" y2="154" gradientUnits="userSpaceOnUse"><stop offset="0%" stop-color="#ef4444" stop-opacity=".01"/><stop offset="100%" stop-color="#ef4444" stop-opacity=".15"/></linearGradient><linearGradient id="g" x1="0" x2="0" y1="221" y2="299" gradientUnits="userSpaceOnUse"><stop offset="0%" stop-color="#22c55e" stop-opacity=".15"/><stop offset="100%" stop-color="#22c55e" stop-opacity=".01"/></linearGradient><linearGradient id="h" x1="0" x2="0" y1="299" y2="376" gradientUnits="userSpaceOnUse"><stop offset="0%" stop-color="#22c55e" stop-opacity=".01"/><stop offset="100%" stop-color="#22c55e" stop-opacity=".15"/></linearGradient><linearGradient id="j" x1="0" x2="0" y1="234" y2="299" gradientUnits="userSpaceOnUse"><stop offset="0%" stop-color="#eab308" stop-opacity=".15"/><stop offset="100%" stop-color="#eab308" stop-opacity=".01"/></linearGradient><clipPath id="a"><path d="M34 16h358v155H34z"/></clipPath><clipPath id="c"><path d="M442 16h358v155H442z"/></clipPath><clipPath id="f"><path d="M34 221h358v155H34z"/></clipPath><clipPath id="i"><path d="M442 221h358v155H442z"/></clipPath></defs><text x="800" y="11" fill="#6b7280" font-size="11" font-weight="600" text-anchor="end">1€ filter, minCutoff=1, β=0.007</text><path stroke="#d1d5db" d="M34 16v155m0-124h358"/><text x="213" y="197" fill="#6b7280" font-size="9" text-anchor="middle">Hz</text><text x="12" y="93.5" fill="#6b7280" font-size="9" text-anchor="middle" transform="rotate(-90 12 93.5)">dB</text><path stroke="#e5e7eb" stroke-width=".5" d="M66.6 16v155M85.7 16v155M99.3 16v155m10.5-155v155m8.6-155v155m7.3-155v155m6.2-155v155m5.6-155v155m37.6-155v155m19.1-155v155m13.5-155v155m10.6-155v155m8.5-155v155m7.3-155v155m6.3-155v155m5.5-155v155m37.6-155v155m19.1-155v155m13.6-155v155m10.5-155v155m8.6-155v155m7.3-155v155m6.2-155v155m5.6-155v155M392 16v155M34 16v155"/><text x="34" y="183" fill="#6b7280" font-size="8" text-anchor="middle">10</text><path stroke="#e5e7eb" stroke-width=".5" d="M142.5 16v155"/><text x="142.5" y="183" fill="#6b7280" font-size="8" text-anchor="middle">100</text><path stroke="#e5e7eb" stroke-width=".5" d="M250.9 16v155"/><text x="250.9" y="183" fill="#6b7280" font-size="8" text-anchor="middle">1k</text><path stroke="#e5e7eb" stroke-width=".5" d="M359.4 16v155"/><text x="359.4" y="183" fill="#6b7280" font-size="8" text-anchor="middle">10k</text><path stroke="#e5e7eb" stroke-width=".5" d="M34 171h358M34 140h358M34 109h358M34 78h358M34 16h358M34 62.5h358m-358-31h358"/><text x="30" y="174" fill="#6b7280" font-size="8" text-anchor="end">-80</text><text x="30" y="143" fill="#6b7280" font-size="8" text-anchor="end">-60</text><text x="30" y="112" fill="#6b7280" font-size="8" text-anchor="end">-40</text><text x="30" y="81" fill="#6b7280" font-size="8" text-anchor="end">-20</text><text x="30" y="50" fill="#6b7280" font-size="8" text-anchor="end">0</text><text x="30" y="19" fill="#6b7280" font-size="8" text-anchor="end">+20</text><g clip-path="url(#a)"><path fill="url(#b)" d="M37.5 171V16H165l3.1 1.5 2.8-1.5h26.8l1.5 1.4 1.5 10.1 1.5-7.8 1.4-3.7h14.2l1 7.3 1 9.8 1-8.3.9-7.5 1-1.3h8.4l.8 3.6.7 7.8.8 9.6.7-8.5.7-7.6.7-4.6.7-.3h5.3l.6 2 .6 4.8.6 7.7.6 9.5.6-8.6.5-7.6.6-4.6.6-3 .5-.2h3.2l.6 1.3.5 3.2.5 4.8.5 7.7.5 9.5.4-8.7.5-7.6.5-4.7.5-3 .4-2 .5-.5h1.8l.5 1.2.4 2.2.4 3.3.5 4.8.4 7.6.4 9.4.4-8.7.5-7.6.4-4.7.4-3 .4-2 .4-1.3.4-.7.4-.2.4.4.3.9.4 1.5.4 2.2.4 3.2.4 4.8.3 7.7.4 9.3.4-8.8.3-7.6.4-4.6.4-3.1.3-2 .4-1.3.3-.7.4-.2.3.3.4.9.3 1.5.3 2.2.4 3.2.3 4.8.3 7.7.4 9.3.3-8.8.3-7.6.3-4.7.3-3 .4-2.1.3-1.3.3-.7.3-.2.3.3.3.9.3 1.5.3 2.2.3 3.2.3 4.8.3 7.6.3 9.3.3-8.8.3-7.6.3-4.7.3-3.1.3-2 .3-1.4.2-.7.3-.2.3.4.3.8.2 1.5.3 2.2.3 3.2.3 4.8.2 7.6.3 9.3.3-8.9.2-7.6.3-4.6.3-3.1.2-2.1.3-1.3.2-.8.3-.1.3.3.2.8.3 1.5.2 2.2.3 3.2.2 4.7.3 7.7.2 9.3.2-8.9.3-7.6.2-4.7.3-3.1.2-2.1.3-1.3.2-.7.2-.2.3.3.2.8.2 1.5.3 2.2.2 3.2.2 4.7.2 7.7.3 9.2.2-8.9.2-7.6.2-4.7.3-3 .2-2.1.2-1.4.2-.7.3-.2.2.3.2.9.2 1.4.2 2.2.2 3.2.2 4.7.3 7.7.2 9.2.2-8.9.2-7.6.2-4.7.2-3.1.2-2.1.2-1.3.2-.7.2-.3.2.4.2.8.2 1.4.2 2.2.2 3.2.2 4.8.2 7.6.2 9.3.2-9 .2-7.6.2-4.7.2-3.1.2-2.1.2-1.3.2-.8.2-.2.1.3.2.9.2 1.4.2 2.2.2 3.2.2 4.7.2 7.7.2 9.2.1-8.9.2-7.7.2-4.6.2-3.1.2-2.1.1-1.4.2-.7.2-.2.2.3.2.8.1 1.4.2 2.2.2 3.2.2 4.7.1 7.7.2 9.2.2-8.9.2-7.7.1-4.6.2-3.1.2-2.1.1-1.4.2-.7.2-.3.1.3.2.9.2 1.4.1 2.2.2 3.2.2 4.7.1 7.7.2 9.2.2-9 .1-7.6.2-4.7.2-3.1.1-2.1.2-1.3.1-.8.2-.2.2.3.1.8.2 1.4.1 2.2.2 3.2.1 4.7.2 7.7.1 9.2.2-9 .2-7.6.1-4.7.2-3.1.1-2.1.2-1.3.1-.8.2-.2.1.3.2.8.1 1.4.2 2.2.1 3.2.2 4.7.1 7.7.2 9.2.1-9 .2-7.6.1-4.7.2-3.1.1-2.1.1-1.4.2-.7.1-.3.2.3.1.9.2 1.4.1 2.2.1 3.1.2 4.8.1 7.6.2 9.2.1-9 .1-7.6.2-4.7.1-3.1.2-2.1.1-1.4.1-.7.2-.2.1.3.1.8.2 1.4.1 2.2.2 3.1.1 4.8.1 7.6.2 9.2.1-9 .1-7.6.2-4.7.1-3.1.1-2.1.2-1.4.1-.7.1-.2.1.3.2.8.1 1.4.1 2.2.2 3.1.1 4.8.1 7.6.1 9.2.2-9 .1-7.6.1-4.7.2-3.1.1-2.1.1-1.4.1-.7.2-.3.1.3.1.8.1 1.5.2 2.1.1 3.2.1 4.7.1 7.7.2 9.2.1-9 .1-7.7.1-4.6.1-3.2.2-2.1.1-1.3.1-.8.1-.2.1.3.2.8.1 1.4.1 2.2.1 3.1.1 4.8.2 7.6.1 9.2.1-9 .1-7.6.1-4.7.1-3.1.2-2.1.1-1.4.1-.8.1-.2.1.3.1.8.2 1.4.1 2.2.1 3.2.1 4.7.1 7.6.1 9.2.1-9 .1-7.6.2-4.7.1-3.1.1-2.1.1-1.4.1-.8.1-.2.1.3.1.8.2 1.4.1 2.2.1 3.1.1 4.8.1 7.6.1 9.2.1-9 .1-7.6.1-4.7.1-3.1.1-2.2.1-1.3.2-.8.1-.2.1.3.1.8.1 1.4.1 2.2.1 3.1.1 4.8.1 7.6.1 9.2.1-9 .1-7.7.1-4.7.1-3.1.1-2.1.1-1.4.1-.7.1-.3.1.3.2.8.1 1.5.1 2.1.1 3.2.1 4.7.1 7.7.1 9.1.1-9 .1-7.6.1-4.7.1-3.1.1-2.1.1-1.4.1-.8.1-.2.1.3.1.8.1 1.4.1 2.2.1 3.1.1 4.8.1 7.6.1 9.2.1-9.1.1-7.6.1-4.7.1-3.1.1-2.1v-1.4l.1-.8.1-.2.1.3.1.8.1 1.4.1 2.2.1 3.1.1 4.8.1 7.6.1 9.2.1-9 .1-7.7.1-4.7.1-3.1.1-2.1.1-1.4.1-.7.1-.3.1.3v.8l.1 1.4.1 2.2.1 3.2.1 4.7.1 7.6.1 9.2.1-9 .1-7.7.1-4.7.1-3.1.1-2.1.1-1.4V36l.1-.3.1.3.1.8.1 1.4.1 2.2.1 3.1.1 4.8.1 7.6.1 9.2v-9l.1-7.7.1-4.7.1-3.1.1-2.1.1-1.4.1-.8.1-.2v.3l.1.8.1 1.4.1 2.2.1 3.1.1 4.8.1 7.6.1 9.2v-9.1l.1-7.6.1-4.7.1-3.1.1-2.1.1-1.4.1-.8v-.2l.1.3.1.8.1 1.4.1 2.1.1 3.2.1 4.7v7.7l.1 9.1.1-9 .1-7.6.1-4.7.1-3.2v-2.1l.1-1.3.1-.8.1-.3.1.3.1.8v1.5l.1 2.1.1 3.2.1 4.7.1 7.6v9.2l.1-9 .1-7.7.1-4.7.1-3.1.1-2.1v-1.4l.1-.8.1-.2.1.3.1.8v1.4l.1 2.1.1 3.2.1 4.7.1 7.7v9.1l.1-9 .1-7.6.1-4.7.1-3.2v-2.1l.1-1.4.1-.7.1-.3.1.3v.8l.1 1.4.1 2.2.1 3.1v4.8l.1 7.6.1 9.2.1-9.1.1-7.6v-4.7l.1-3.1.1-2.1.1-1.4v-.8l.1-.2.1.2.1.8v1.5l.1 2.1.1 3.2.1 4.7V58l.1 9.2.1-9.1.1-7.6v-4.7l.1-3.1.1-2.1.1-1.4v-.8l.1-.2.1.3.1.8v1.4l.1 2.1.1 3.2.1 4.7v7.7l.1 9.1.1-9 .1-7.7v-4.7l.1-3.1.1-2.1.1-1.4v-.8l.1-.2.1.3v.8l.1 1.4.1 2.1.1 3.2V51l.1 7.7.1 9.1v-9l.1-7.7.1-4.7.1-3.1v-2.1l.1-1.4.1-.8v-.2l.1.3.1.8.1 1.4v2.1l.1 3.2.1 4.7V59l.1 9.1.1-9v-7.7l.1-4.7.1-3.1.1-2.1v-1.4l.1-.8.1-.2v.3l.1.8.1 1.4v2.1l.1 3.2.1 4.7v7.6l.1 9.2.1-9.1.1-7.6V47l.1-3.1.1-2.1v-1.4l.1-.8.1-.2v.2l.1.8.1 1.5V44l.1 3.2.1 4.7v7.6l.1 9.2.1-9.1V52l.1-4.7.1-3.1V42l.1-1.3.1-.8v-.3l.1.3.1.8v1.4l.1 2.2.1 3.1v4.8l.1 7.6.1 9.1v-9l.1-7.6.1-4.7v-3.2l.1-2.1.1-1.4v-.7l.1-.3v.3l.1.8.1 1.4v2.1l.1 3.2.1 4.7v7.7l.1 9.1.1-9v-7.7l.1-4.7.1-3.1v-2.1l.1-1.4v-.8l.1-.2.1.2v.8l.1 1.5.1 2.1V48l.1 4.7v7.6l.1 9.2.1-9.1v-7.6l.1-4.7.1-3.2v-2.1l.1-1.4v-.7l.1-.3.1.3v.8l.1 1.4.1 2.2v3.1l.1 4.7v7.7l.1 9.1.1-9V53l.1-4.7v-3.1l.1-2.1.1-1.4v-.8l.1-.2v.2l.1.8.1 1.5v2.1l.1 3.2.1 4.7v7.6l.1 9.1v-9l.1-7.6.1-4.7v-3.2l.1-2.1v-1.4l.1-.7v-.3l.1.3.1.8v1.4l.1 2.1v3.2l.1 4.7.1 7.7v9.1l.1-9.1v-7.6l.1-4.7.1-3.1v-2.1l.1-1.4v-.8l.1-.3v.3l.1.8.1 1.4v2.2l.1 3.1v4.8l.1 7.6.1 9.1v-9l.1-7.7V49l.1-3.1v-2.1l.1-1.4.1-.8v-.2l.1.2v.9l.1 1.4V46l.1 3.2.1 4.7v7.6l.1 9.1v-9l.1-7.6v-4.7l.1-3.2.1-2.1v-1.4l.1-.8v-.2l.1.3v.8l.1 1.4v2.1l.1 3.2.1 4.7v7.6l.1 9.2v-9.1l.1-7.6v-4.7l.1-3.2v-2.1l.1-1.4.1-.7v-.3l.1.3v.8l.1 1.4v2.1l.1 3.2v4.7l.1 7.7v9.1l.1-9.1.1-7.6v-4.7l.1-3.1v-2.2l.1-1.3v-.8l.1-.3v.3l.1.8v1.4l.1 2.2.1 3.1v4.7l.1 7.7v9.1l.1-9.1v-7.6l.1-4.7v-3.1l.1-2.2v-1.3l.1-.8v-.3l.1.3v.8l.1 1.4v2.2l.1 3.1.1 4.7v7.7l.1 9.1v-9.1l.1-7.6v-4.7l.1-3.1v-2.2l.1-1.3v-.8l.1-.3v.3l.1.8v1.4l.1 2.2v3.1l.1 4.7v7.7l.1 9.1v-9.1l.1-7.6v-4.7l.1-3.1.1-2.2v-1.3l.1-.8v-.3l.1.3v.8l.1 1.4v2.2l.1 3.1v4.7l.1 7.7v9.1l.1-9.1v-7.6l.1-4.7v-3.1l.1-2.2v-1.3l.1-.8v-.3l.1.3v.8l.1 1.4v2.1l.1 3.2v4.7l.1 7.7v9.1l.1-9.1v-7.6l.1-4.7v-3.2l.1-2.1V44l.1-.7V43l.1.3v.8l.1 1.4v2.1l.1 3.2v4.7l.1 7.6v9.2l.1-9.1v-7.6l.1-4.7v-3.2l.1-2.1v-1.4l.1-.8v-.2.3l.1.8v1.4l.1 2.1V51l.1 4.7v7.6l.1 9.1v-9l.1-7.7V51l.1-3.1v-2.1l.1-1.4v-.8l.1-.2v.2l.1.8v1.4l.1 2.2v3.1l.1 4.8v7.6l.1 9.1V55.9l.1-4.7v-3.1l.1-2.1v-1.4l.1-.8v-.3l.1.3v.8l.1 1.4v2.2l.1 3.1V56l.1 7.7v9.1l.1-9.1V51.4l.1-3.1v-2.2l.1-1.4V44l.1-.3v.3l.1.8v1.4l.1 2.1v3.2l.1 4.7V73l.1-9.1v-7.6l.1-4.7v-3.2l.1-2.1v-1.4l.1-.8v-.2l.1.2v.8l.1 1.4v5.3l.1 4.8V64l.1 9.1v-9l.1-7.7v-4.7l.1-3.1v-2.1l.1-1.4V44l.1.3v.8l.1 1.4v2.2l.1 3.1v4.7l.1 7.7v9.1-9.1l.1-7.6v-4.7l.1-3.2v-2.1l.1-1.4v-.8l.1-.2v1.1l.1 1.4v2.1l.1 3.2v4.7l.1 7.6v9.1l.1-9V52l.1-3.1v-2.1l.1-1.4v-.8l.1-.3v1.1l.1 1.4V49l.1 3.1v4.7l.1 7.7v9.1-9.1l.1-7.6v-4.7l.1-3.2v-2.1l.1-1.4v-1l.1.3v.8l.1 1.4v2.1l.1 3.2v12.3l.1 9.1v-9l.1-7.7v-4.7l.1-3.1v-3.5l.1-.8v-.3l.1.3v.8l.1 1.4v5.3l.1 4.7v7.7l.1 9.1v-9.1l.1-7.6v-7.9l.1-2.1v-1.4l.1-.8v-.2.3l.1.8v1.4l.1 2.1v3.1l.1 4.8V74l.1-9v-7.7l.1-4.7v-5.3l.1-1.3v-.8l.1-.3v.3l.1.8v3.5l.1 3.2v4.7l.1 7.6v9.2-9.1l.1-7.6v-4.8l.1-3.1v-3.5l.1-.8v-.2l.1.2v2.2l.1 2.2v3.1l.1 4.7v16.8l.1-9.1v-7.6l.1-4.7v-5.3l.1-1.4v-.8l.1-.2v1.1l.1 1.4v2.1l.1 3.1v12.4l.1 9.1v-9l.1-7.7v-7.8l.1-2.2v-1.3l.1-.8v-.3.3l.1.8v1.4l.1 2.1v7.9l.1 7.6v9.1l.1-9V53.1l.1-3.1v-2.1l.1-1.4v-1.1l.1.3v2.2l.1 2.2v3.1l.1 4.7v16.8l.1-9.1V58l.1-4.7V48l.1-1.4v-.8l.1-.2v1l.1 1.4v5.3l.1 4.7v7.7l.1 9.1V58.1l.1-4.7v-5.3l.1-1.4v-.8l.1-.2v1.1l.1 1.4v2.1l.1 3.1v12.4l.1 9.1V58.2l.1-4.7v-3.1l.1-2.2v-2.1l.1-.3v1.1l.1 1.4v2.1l.1 3.2v12.3l.1 9.1V58.3l.1-4.7v-3.1l.1-2.2v-2.1l.1-.3V47l.1 1.4v5.3l.1 4.7V66l.1 9.1V58.4l.1-4.7v-5.2l.1-1.4v-.8l.1-.3v1.1l.1 1.4v5.3l.1 4.7v16.7l.1-9v-7.7l.1-4.7v-5.2l.1-1.4v-1.1l.1.3v2.2l.1 2.1v3.2l.1 4.7v16.7l.1-9V53.9l.1-3.1v-3.5l.1-.8v-.3.3l.1.8v1.4l.1 2.1v7.9l.1 7.6v9.1-9l.1-7.7v-7.8l.1-2.1v-2.2l.1-.3v1.1l.1 1.4v2.1l.1 3.2v12.3l.1 9.2V58.8l.1-4.7v-5.2l.1-1.4v-1.1l.1.3v2.2l.1 2.1v7.9l.1 7.6v9.1-9l.1-7.7v-4.7l.1-3.1v-3.5l.1-.8v-.3.3l.1.8v3.5l.1 3.2v12.3l.1 9.1V59l.1-4.7v-5.2l.1-1.4v-1.1l.1.3v2.2l.1 2.1v7.9l.1 7.6v9.1-9l.1-7.7v-7.8l.1-2.1V47l.1-.3v1.1l.1 1.4v5.3l.1 4.7v16.7l.1-9V54.5l.1-3.1v-3.5l.1-.8v-.3.3l.1.8v3.5l.1 3.2v12.3l.1 9.1V59.3l.1-4.7v-5.3l.1-1.4v-1l.1.3v2.2l.1 2.1v7.9l.1 7.6v9.1V67l.1-7.6v-7.9l.1-2.1v-2.2l.1-.2v1l.1 1.4v5.3l.1 4.7v16.8l.1-9.1V54.8l.1-3.2v-3.5l.1-.8v-.2 1l.1 1.4v5.3l.1 4.7v16.8l.1-9.1V54.8l.1-3.1v-3.5l.1-.8v-.3.3l.1.8v3.5l.1 3.2v12.3l.1 9.1V54.9l.1-3.1v-3.5l.1-.8v-.3.3l.1.8v3.5l.1 3.2v12.3l.1 9.1V55l.1-3.1v-3.6l.1-.8v-.2.3l.1.7v3.6l.1 3.1v12.4l.1 9.1V55.1l.1-3.2v-3.5l.1-.8v-.2.2l.1.8V52l.1 3.1v21.5l.1-9.1V55.1l.1-3.1v-3.5l.1-.8v-.3.3l.1.8v6.7l.1 4.7v16.7l.1-9.1V55.2l.1-3.1v-4.4l.1-.2v1.1l.1 1.4v5.2l.1 4.7v16.8-9.1l.1-7.6v-7.9l.1-2.1v-2.2l.1-.2V50l.1 2.2V60l.1 7.6v9.1-9l.1-7.7v-9.9l.1-1.4v-1.1l.1.3v2.2l.1 2.1v15.5l.1 9.1V60.1l.1-4.7v-6.7l.1-.8v-.2.2l.1.8v3.6l.1 3.1v21.5l.1-9.1V55.4l.1-3.1V48l.1-.3v1.1l.1 1.4v10l.1 7.6v9.1-9.1l.1-7.6v-10l.1-1.4v-1l.1.3v4.3l.1 3.1v12.4l.1 9.1V55.5l.1-3.1v-3.5l.1-.8v-.3 1.1l.1 1.4v5.3l.1 4.7V77v-9.1l.1-7.6v-7.8l.1-2.2v-2.4l.1.3v2.1l.1 2.2V68l.1 9.1V60.4l.1-4.8V49l.1-.8v-.3V49l.1 1.4v5.3l.1 4.7v16.7V68l.1-7.6v-7.8l.1-2.2V48l.1.2v4.4l.1 3.1v12.4l.1 9.1V55.7l.1-3.1v-4.3l.1-.3v1.1l.1 1.4v10l.1 7.6v9.1-16.7l.1-4.7v-5.3l.1-1.4v-1 .2l.1.8v6.7l.1 4.7v16.7l.1-9V52.7l.1-2.2v-2.4l.1.3v2.2l.1 2.1v15.5l.1 9.1V55.9l.1-3.2v-4.3l.1-.3v1.1l.1 1.4v10l.1 7.6v9.1-16.7l.1-4.7v-6.7l.1-.8v-.2 1l.1 1.4v5.3l.1 4.7v16.8-9.1l.1-7.7v-9.9l.1-1.4v-1.1.3l.1.8v6.6l.1 4.8v16.7l.1-9.1V52.8l.1-2.1v-2.5l.1.3v4.3l.1 3.2v21.4l.1-9.1V52.8l.1-2.1v-2.4l.1.2v4.4l.1 3.1v12.4l.1 9V56l.1-3.1v-4.3l.1-.3v2.5l.1 2.1v15.5l.1 9.1v-9.1V171z"/><path fill="none" stroke="#3b82f6" stroke-linejoin="round" stroke-width="1.5" d="m165 16 3.1 1.5 2.8-1.5m26.8 0 1.5 1.4 1.5 10.1 1.5-7.8 1.4-3.7m14.2 0 1 7.3 1 9.8 1-8.3.9-7.5 1-1.3m8.4 0 .8 3.6.7 7.8.8 9.6.7-8.5.7-7.6.7-4.6.7-.3m5.3 0 .6 2 .6 4.8.6 7.7.6 9.5.6-8.6.5-7.6.6-4.6.6-3 .5-.2m3.2 0 .6 1.3.5 3.2.5 4.8.5 7.7.5 9.5.4-8.7.5-7.6.5-4.7.5-3 .4-2 .5-.5m1.8 0 .5 1.2.4 2.2.4 3.3.5 4.8.4 7.6.4 9.4.4-8.7.5-7.6.4-4.7.4-3 .4-2 .4-1.3.4-.7.4-.2.4.4.3.9.4 1.5.4 2.2.4 3.2.4 4.8.3 7.7.4 9.3.4-8.8.3-7.6.4-4.6.4-3.1.3-2 .4-1.3.3-.7.4-.2.3.3.4.9.3 1.5.3 2.2.4 3.2.3 4.8.3 7.7.4 9.3.3-8.8.3-7.6.3-4.7.3-3 .4-2.1.3-1.3.3-.7.3-.2.3.3.3.9.3 1.5.3 2.2.3 3.2.3 4.8.3 7.6.3 9.3.3-8.8.3-7.6.3-4.7.3-3.1.3-2 .3-1.4.2-.7.3-.2.3.4.3.8.2 1.5.3 2.2.3 3.2.3 4.8.2 7.6.3 9.3.3-8.9.2-7.6.3-4.6.3-3.1.2-2.1.3-1.3.2-.8.3-.1.3.3.2.8.3 1.5.2 2.2.3 3.2.2 4.7.3 7.7.2 9.3.2-8.9.3-7.6.2-4.7.3-3.1.2-2.1.3-1.3.2-.7.2-.2.3.3.2.8.2 1.5.3 2.2.2 3.2.2 4.7.2 7.7.3 9.2.2-8.9.2-7.6.2-4.7.3-3 .2-2.1.2-1.4.2-.7.3-.2.2.3.2.9.2 1.4.2 2.2.2 3.2.2 4.7.3 7.7.2 9.2.2-8.9.2-7.6.2-4.7.2-3.1.2-2.1.2-1.3.2-.7.2-.3.2.4.2.8.2 1.4.2 2.2.2 3.2.2 4.8.2 7.6.2 9.3.2-9 .2-7.6.2-4.7.2-3.1.2-2.1.2-1.3.2-.8.2-.2.1.3.2.9.2 1.4.2 2.2.2 3.2.2 4.7.2 7.7.2 9.2.1-8.9.2-7.7.2-4.6.2-3.1.2-2.1.1-1.4.2-.7.2-.2.2.3.2.8.1 1.4.2 2.2.2 3.2.2 4.7.1 7.7.2 9.2.2-8.9.2-7.7.1-4.6.2-3.1.2-2.1.1-1.4.2-.7.2-.3.1.3.2.9.2 1.4.1 2.2.2 3.2.2 4.7.1 7.7.2 9.2.2-9 .1-7.6.2-4.7.2-3.1.1-2.1.2-1.3.1-.8.2-.2.2.3.1.8.2 1.4.1 2.2.2 3.2.1 4.7.2 7.7.1 9.2.2-9 .2-7.6.1-4.7.2-3.1.1-2.1.2-1.3.1-.8.2-.2.1.3.2.8.1 1.4.2 2.2.1 3.2.2 4.7.1 7.7.2 9.2.1-9 .2-7.6.1-4.7.2-3.1.1-2.1.1-1.4.2-.7.1-.3.2.3.1.9.2 1.4.1 2.2.1 3.1.2 4.8.1 7.6.2 9.2.1-9 .1-7.6.2-4.7.1-3.1.2-2.1.1-1.4.1-.7.2-.2.1.3.1.8.2 1.4.1 2.2.2 3.1.1 4.8.1 7.6.2 9.2.1-9 .1-7.6.2-4.7.1-3.1.1-2.1.2-1.4.1-.7.1-.2.1.3.2.8.1 1.4.1 2.2.2 3.1.1 4.8.1 7.6.1 9.2.2-9 .1-7.6.1-4.7.2-3.1.1-2.1.1-1.4.1-.7.2-.3.1.3.1.8.1 1.5.2 2.1.1 3.2.1 4.7.1 7.7.2 9.2.1-9 .1-7.7.1-4.6.1-3.2.2-2.1.1-1.3.1-.8.1-.2.1.3.2.8.1 1.4.1 2.2.1 3.1.1 4.8.2 7.6.1 9.2.1-9 .1-7.6.1-4.7.1-3.1.2-2.1.1-1.4.1-.8.1-.2.1.3.1.8.2 1.4.1 2.2.1 3.2.1 4.7.1 7.6.1 9.2.1-9 .1-7.6.2-4.7.1-3.1.1-2.1.1-1.4.1-.8.1-.2.1.3.1.8.2 1.4.1 2.2.1 3.1.1 4.8.1 7.6.1 9.2.1-9 .1-7.6.1-4.7.1-3.1.1-2.2.1-1.3.2-.8.1-.2.1.3.1.8.1 1.4.1 2.2.1 3.1.1 4.8.1 7.6.1 9.2.1-9 .1-7.7.1-4.7.1-3.1.1-2.1.1-1.4.1-.7.1-.3.1.3.2.8.1 1.5.1 2.1.1 3.2.1 4.7.1 7.7.1 9.1.1-9 .1-7.6.1-4.7.1-3.1.1-2.1.1-1.4.1-.8.1-.2.1.3.1.8.1 1.4.1 2.2.1 3.1.1 4.8.1 7.6.1 9.2.1-9.1.1-7.6.1-4.7.1-3.1.1-2.1v-1.4l.1-.8.1-.2.1.3.1.8.1 1.4.1 2.2.1 3.1.1 4.8.1 7.6.1 9.2.1-9 .1-7.7.1-4.7.1-3.1.1-2.1.1-1.4.1-.7.1-.3.1.3v.8l.1 1.4.1 2.2.1 3.2.1 4.7.1 7.6.1 9.2.1-9 .1-7.7.1-4.7.1-3.1.1-2.1.1-1.4V36l.1-.3.1.3.1.8.1 1.4.1 2.2.1 3.1.1 4.8.1 7.6.1 9.2v-9l.1-7.7.1-4.7.1-3.1.1-2.1.1-1.4.1-.8.1-.2v.3l.1.8.1 1.4.1 2.2.1 3.1.1 4.8.1 7.6.1 9.2v-9.1l.1-7.6.1-4.7.1-3.1.1-2.1.1-1.4.1-.8v-.2l.1.3.1.8.1 1.4.1 2.1.1 3.2.1 4.7v7.7l.1 9.1.1-9 .1-7.6.1-4.7.1-3.2v-2.1l.1-1.3.1-.8.1-.3.1.3.1.8v1.5l.1 2.1.1 3.2.1 4.7.1 7.6v9.2l.1-9 .1-7.7.1-4.7.1-3.1.1-2.1v-1.4l.1-.8.1-.2.1.3.1.8v1.4l.1 2.1.1 3.2.1 4.7.1 7.7v9.1l.1-9 .1-7.6.1-4.7.1-3.2v-2.1l.1-1.4.1-.7.1-.3.1.3v.8l.1 1.4.1 2.2.1 3.1v4.8l.1 7.6.1 9.2.1-9.1.1-7.6v-4.7l.1-3.1.1-2.1.1-1.4v-.8l.1-.2.1.2.1.8v1.5l.1 2.1.1 3.2.1 4.7V58l.1 9.2.1-9.1.1-7.6v-4.7l.1-3.1.1-2.1.1-1.4v-.8l.1-.2.1.3.1.8v1.4l.1 2.1.1 3.2.1 4.7v7.7l.1 9.1.1-9 .1-7.7v-4.7l.1-3.1.1-2.1.1-1.4v-.8l.1-.2.1.3v.8l.1 1.4.1 2.1.1 3.2V51l.1 7.7.1 9.1v-9l.1-7.7.1-4.7.1-3.1v-2.1l.1-1.4.1-.8v-.2l.1.3.1.8.1 1.4v2.1l.1 3.2.1 4.7V59l.1 9.1.1-9v-7.7l.1-4.7.1-3.1.1-2.1v-1.4l.1-.8.1-.2v.3l.1.8.1 1.4v2.1l.1 3.2.1 4.7v7.6l.1 9.2.1-9.1.1-7.6V47l.1-3.1.1-2.1v-1.4l.1-.8.1-.2v.2l.1.8.1 1.5V44l.1 3.2.1 4.7v7.6l.1 9.2.1-9.1V52l.1-4.7.1-3.1V42l.1-1.3.1-.8v-.3l.1.3.1.8v1.4l.1 2.2.1 3.1v4.8l.1 7.6.1 9.1v-9l.1-7.6.1-4.7v-3.2l.1-2.1.1-1.4v-.7l.1-.3v.3l.1.8.1 1.4v2.1l.1 3.2.1 4.7v7.7l.1 9.1.1-9v-7.7l.1-4.7.1-3.1v-2.1l.1-1.4v-.8l.1-.2.1.2v.8l.1 1.5.1 2.1V48l.1 4.7v7.6l.1 9.2.1-9.1v-7.6l.1-4.7.1-3.2v-2.1l.1-1.4v-.7l.1-.3.1.3v.8l.1 1.4.1 2.2v3.1l.1 4.7v7.7l.1 9.1.1-9V53l.1-4.7v-3.1l.1-2.1.1-1.4v-.8l.1-.2v.2l.1.8.1 1.5v2.1l.1 3.2.1 4.7v7.6l.1 9.1v-9l.1-7.6.1-4.7v-3.2l.1-2.1v-1.4l.1-.7v-.3l.1.3.1.8v1.4l.1 2.1v3.2l.1 4.7.1 7.7v9.1l.1-9.1v-7.6l.1-4.7.1-3.1v-2.1l.1-1.4v-.8l.1-.3v.3l.1.8.1 1.4v2.2l.1 3.1v4.8l.1 7.6.1 9.1v-9l.1-7.7V49l.1-3.1v-2.1l.1-1.4.1-.8v-.2l.1.2v.9l.1 1.4V46l.1 3.2.1 4.7v7.6l.1 9.1v-9l.1-7.6v-4.7l.1-3.2.1-2.1v-1.4l.1-.8v-.2l.1.3v.8l.1 1.4v2.1l.1 3.2.1 4.7v7.6l.1 9.2v-9.1l.1-7.6v-4.7l.1-3.2v-2.1l.1-1.4.1-.7v-.3l.1.3v.8l.1 1.4v2.1l.1 3.2v4.7l.1 7.7v9.1l.1-9.1.1-7.6v-4.7l.1-3.1v-2.2l.1-1.3v-.8l.1-.3v.3l.1.8v1.4l.1 2.2.1 3.1v4.7l.1 7.7v9.1l.1-9.1v-7.6l.1-4.7v-3.1l.1-2.2v-1.3l.1-.8v-.3l.1.3v.8l.1 1.4v2.2l.1 3.1.1 4.7v7.7l.1 9.1v-9.1l.1-7.6v-4.7l.1-3.1v-2.2l.1-1.3v-.8l.1-.3v.3l.1.8v1.4l.1 2.2v3.1l.1 4.7v7.7l.1 9.1v-9.1l.1-7.6v-4.7l.1-3.1.1-2.2v-1.3l.1-.8v-.3l.1.3v.8l.1 1.4v2.2l.1 3.1v4.7l.1 7.7v9.1l.1-9.1v-7.6l.1-4.7v-3.1l.1-2.2v-1.3l.1-.8v-.3l.1.3v.8l.1 1.4v2.1l.1 3.2v4.7l.1 7.7v9.1l.1-9.1v-7.6l.1-4.7v-3.2l.1-2.1V44l.1-.7V43l.1.3v.8l.1 1.4v2.1l.1 3.2v4.7l.1 7.6v9.2l.1-9.1v-7.6l.1-4.7v-3.2l.1-2.1v-1.4l.1-.8v-.2.3l.1.8v1.4l.1 2.1V51l.1 4.7v7.6l.1 9.1v-9l.1-7.7V51l.1-3.1v-2.1l.1-1.4v-.8l.1-.2v.2l.1.8v1.4l.1 2.2v3.1l.1 4.8v7.6l.1 9.1V55.9l.1-4.7v-3.1l.1-2.1v-1.4l.1-.8v-.3l.1.3v.8l.1 1.4v2.2l.1 3.1V56l.1 7.7v9.1l.1-9.1V51.4l.1-3.1v-2.2l.1-1.4V44l.1-.3v.3l.1.8v1.4l.1 2.1v3.2l.1 4.7V73l.1-9.1v-7.6l.1-4.7v-3.2l.1-2.1v-1.4l.1-.8v-.2l.1.2v.8l.1 1.4v5.3l.1 4.8V64l.1 9.1v-9l.1-7.7v-4.7l.1-3.1v-2.1l.1-1.4V44l.1.3v.8l.1 1.4v2.2l.1 3.1v4.7l.1 7.7v9.1-9.1l.1-7.6v-4.7l.1-3.2v-2.1l.1-1.4v-.8l.1-.2v1.1l.1 1.4v2.1l.1 3.2v4.7l.1 7.6v9.1l.1-9V52l.1-3.1v-2.1l.1-1.4v-.8l.1-.3v1.1l.1 1.4V49l.1 3.1v4.7l.1 7.7v9.1-9.1l.1-7.6v-4.7l.1-3.2v-2.1l.1-1.4v-1l.1.3v.8l.1 1.4v2.1l.1 3.2v12.3l.1 9.1v-9l.1-7.7v-4.7l.1-3.1v-3.5l.1-.8v-.3l.1.3v.8l.1 1.4v5.3l.1 4.7v7.7l.1 9.1v-9.1l.1-7.6v-7.9l.1-2.1v-1.4l.1-.8v-.2.3l.1.8v1.4l.1 2.1v3.1l.1 4.8V74l.1-9v-7.7l.1-4.7v-5.3l.1-1.3v-.8l.1-.3v.3l.1.8v3.5l.1 3.2v4.7l.1 7.6v9.2-9.1l.1-7.6v-4.8l.1-3.1v-3.5l.1-.8v-.2l.1.2v2.2l.1 2.2v3.1l.1 4.7v16.8l.1-9.1v-7.6l.1-4.7v-5.3l.1-1.4v-.8l.1-.2v1.1l.1 1.4v2.1l.1 3.1v12.4l.1 9.1v-9l.1-7.7v-7.8l.1-2.2v-1.3l.1-.8v-.3.3l.1.8v1.4l.1 2.1v7.9l.1 7.6v9.1l.1-9V53.1l.1-3.1v-2.1l.1-1.4v-1.1l.1.3v2.2l.1 2.2v3.1l.1 4.7v16.8l.1-9.1V58l.1-4.7V48l.1-1.4v-.8l.1-.2v1l.1 1.4v5.3l.1 4.7v7.7l.1 9.1V58.1l.1-4.7v-5.3l.1-1.4v-.8l.1-.2v1.1l.1 1.4v2.1l.1 3.1v12.4l.1 9.1V58.2l.1-4.7v-3.1l.1-2.2v-2.1l.1-.3v1.1l.1 1.4v2.1l.1 3.2v12.3l.1 9.1V58.3l.1-4.7v-3.1l.1-2.2v-2.1l.1-.3V47l.1 1.4v5.3l.1 4.7V66l.1 9.1V58.4l.1-4.7v-5.2l.1-1.4v-.8l.1-.3v1.1l.1 1.4v5.3l.1 4.7v16.7l.1-9v-7.7l.1-4.7v-5.2l.1-1.4v-1.1l.1.3v2.2l.1 2.1v3.2l.1 4.7v16.7l.1-9V53.9l.1-3.1v-3.5l.1-.8v-.3.3l.1.8v1.4l.1 2.1v7.9l.1 7.6v9.1-9l.1-7.7v-7.8l.1-2.1v-2.2l.1-.3v1.1l.1 1.4v2.1l.1 3.2v12.3l.1 9.2V58.8l.1-4.7v-5.2l.1-1.4v-1.1l.1.3v2.2l.1 2.1v7.9l.1 7.6v9.1-9l.1-7.7v-4.7l.1-3.1v-3.5l.1-.8v-.3.3l.1.8v3.5l.1 3.2v12.3l.1 9.1V59l.1-4.7v-5.2l.1-1.4v-1.1l.1.3v2.2l.1 2.1v7.9l.1 7.6v9.1-9l.1-7.7v-7.8l.1-2.1V47l.1-.3v1.1l.1 1.4v5.3l.1 4.7v16.7l.1-9V54.5l.1-3.1v-3.5l.1-.8v-.3.3l.1.8v3.5l.1 3.2v12.3l.1 9.1V59.3l.1-4.7v-5.3l.1-1.4v-1l.1.3v2.2l.1 2.1v7.9l.1 7.6v9.1V67l.1-7.6v-7.9l.1-2.1v-2.2l.1-.2v1l.1 1.4v5.3l.1 4.7v16.8l.1-9.1V54.8l.1-3.2v-3.5l.1-.8v-.2 1l.1 1.4v5.3l.1 4.7v16.8l.1-9.1V54.8l.1-3.1v-3.5l.1-.8v-.3.3l.1.8v3.5l.1 3.2v12.3l.1 9.1V54.9l.1-3.1v-3.5l.1-.8v-.3.3l.1.8v3.5l.1 3.2v12.3l.1 9.1V55l.1-3.1v-3.6l.1-.8v-.2.3l.1.7v3.6l.1 3.1v12.4l.1 9.1V55.1l.1-3.2v-3.5l.1-.8v-.2.2l.1.8V52l.1 3.1v21.5l.1-9.1V55.1l.1-3.1v-3.5l.1-.8v-.3.3l.1.8v6.7l.1 4.7v16.7l.1-9.1V55.2l.1-3.1v-4.4l.1-.2v1.1l.1 1.4v5.2l.1 4.7v16.8-9.1l.1-7.6v-7.9l.1-2.1v-2.2l.1-.2V50l.1 2.2V60l.1 7.6v9.1-9l.1-7.7v-9.9l.1-1.4v-1.1l.1.3v2.2l.1 2.1v15.5l.1 9.1V60.1l.1-4.7v-6.7l.1-.8v-.2.2l.1.8v3.6l.1 3.1v21.5l.1-9.1V55.4l.1-3.1V48l.1-.3v1.1l.1 1.4v10l.1 7.6v9.1-9.1l.1-7.6v-10l.1-1.4v-1l.1.3v4.3l.1 3.1v12.4l.1 9.1V55.5l.1-3.1v-3.5l.1-.8v-.3 1.1l.1 1.4v5.3l.1 4.7V77v-9.1l.1-7.6v-7.8l.1-2.2v-2.4l.1.3v2.1l.1 2.2V68l.1 9.1V60.4l.1-4.8V49l.1-.8v-.3V49l.1 1.4v5.3l.1 4.7v16.7V68l.1-7.6v-7.8l.1-2.2V48l.1.2v4.4l.1 3.1v12.4l.1 9.1V55.7l.1-3.1v-4.3l.1-.3v1.1l.1 1.4v10l.1 7.6v9.1-16.7l.1-4.7v-5.3l.1-1.4v-1 .2l.1.8v6.7l.1 4.7v16.7l.1-9V52.7l.1-2.2v-2.4l.1.3v2.2l.1 2.1v15.5l.1 9.1V55.9l.1-3.2v-4.3l.1-.3v1.1l.1 1.4v10l.1 7.6v9.1-16.7l.1-4.7v-6.7l.1-.8v-.2 1l.1 1.4v5.3l.1 4.7v16.8-9.1l.1-7.7v-9.9l.1-1.4v-1.1.3l.1.8v6.6l.1 4.8v16.7l.1-9.1V52.8l.1-2.1v-2.5l.1.3v4.3l.1 3.2v21.4l.1-9.1V52.8l.1-2.1v-2.4l.1.2v4.4l.1 3.1v12.4l.1 9V56l.1-3.1v-4.3l.1-.3v2.5l.1 2.1v15.5l.1 9.1v-9.1"/></g><path stroke="#d1d5db" d="M442 16v155m0-77.5h358"/><text x="621" y="197" fill="#6b7280" font-size="9" text-anchor="middle">Hz</text><text x="420" y="93.5" fill="#6b7280" font-size="9" text-anchor="middle" transform="rotate(-90 420 93.5)">Phase (deg)</text><path stroke="#e5e7eb" stroke-width=".5" d="M474.6 16v155m19.1-155v155m13.6-155v155m10.5-155v155m8.6-155v155m7.3-155v155m6.2-155v155m5.6-155v155m37.6-155v155m19.1-155v155m13.5-155v155m10.6-155v155m8.5-155v155m7.3-155v155m6.3-155v155m5.5-155v155m37.6-155v155m19.1-155v155m13.6-155v155m10.5-155v155m8.6-155v155m7.3-155v155m6.2-155v155m5.6-155v155M800 16v155M442 16v155"/><text x="442" y="183" fill="#6b7280" font-size="8" text-anchor="middle">10</text><path stroke="#e5e7eb" stroke-width=".5" d="M550.5 16v155"/><text x="550.5" y="183" fill="#6b7280" font-size="8" text-anchor="middle">100</text><path stroke="#e5e7eb" stroke-width=".5" d="M658.9 16v155"/><text x="658.9" y="183" fill="#6b7280" font-size="8" text-anchor="middle">1k</text><path stroke="#e5e7eb" stroke-width=".5" d="M767.4 16v155"/><text x="767.4" y="183" fill="#6b7280" font-size="8" text-anchor="middle">10k</text><path stroke="#e5e7eb" stroke-width=".5" d="M442 54.8h358m-358 77.5h358M442 16h358"/><text x="438" y="19" fill="#6b7280" font-size="8" text-anchor="end">+180</text><text x="438" y="96.5" fill="#6b7280" font-size="8" text-anchor="end">0</text><path stroke="#e5e7eb" stroke-width=".5" d="M442 171h358"/><text x="438" y="174" fill="#6b7280" font-size="8" text-anchor="end">-180</text><g clip-path="url(#c)"><path fill="url(#d)" d="M445.5 93.5h319.4v-.3l.1.3h.7l.1-.6v.6h.7l.1-.9v.9h.8v-1.3l.1 1.3h.6l.1-.1v-1.5l.1 1.6h.6l.1-.4v-1.5l.1 1.9h.6v-.7l.1-1.5v2.2h.7V91l.1 2.4v.1h.6l.1-1.3v-1.5 2.4l.1.4h.5l.1-1.6v-1.5l.1 2.4v.7h.6v-1.9l.1-1.5v2.4l.1 1h.5v-2.2l.1-1.5v2.4l.1 1.3h.5l.1-2.5v-1.5 2.4l.1 1.6h.5v-2.9l.1-1.4v2.4l.1 1.9h.5v-3.2l.1-1.4v2.4l.1 2.2h.5V90l.1-1.4v4.9h.5l.1-3.8v-1.4l.1 2.4v2.8h.5v-4.1l.1-1.4v2.4l.1 3.1h.4l.1-4.4v-1.4l.1 2.4v3.4h.5v-4.7l.1-1.4v5.8l.1.3h.4l.1-5v-1.4 2.4l.1 3.4v.6h.4l.1-5.3v-1.4l.1 2.4v4.3h.5v-7l.1 2.4v4.6h.5v-7.3l.1 2.3V92l.1 1.5h.4v-7.6l.1 2.3v3.5l.1 1.8h.4v-7.9l.1 2.3v5.6h.4l.1-6.8v-1.4l.1 2.3v5.9h.4l.1-7.1V85v2.3l.1 3.5v2.7h.4v-7.4l.1-1.4v5.8l.1 3h.4v-9.1l.1 2.3v6.8h.4v-8l.1-1.4v2.3l.1 3.5v3.6h.4v-9.7l.1 2.3v7.4h.4v-8.6l.1-1.4v5.8l.1 3.9v.3h.3l.1-8.9v-1.4 2.3l.1 3.5v4.5h.4V82.9l.1 2.3v7.4l.1.9h.3V84l.1-1.4v5.8l.1 3.9v1.2h.3l.1-9.8v-1.4 2.3l.1 3.5v5.4h.3l.1-10.1V82v2.3l.1 3.5v5.7h.4V81.7 84l.1 3.5v6h.4V81.4v2.3l.1 3.5v6.3h.4V81.1v2.3l.1 3.5v6.6h.3l.1-11.3v-1.5 2.4l.1 3.5v6.9h.3l.1-11.6v-1.5 2.4l.1 3.4v7.3h.3V81.6l.1-1.5v5.8l.1 3.9v3.7h.3V81.3l.1-1.5v9.7l.1 4h.3v-14l.1 2.4v11.4l.1.2h.2l.1-12.8v-1.5 2.4l.1 3.4v8.5h.3V80.4l.1-1.5v9.7l.1 4.1v.8h.3V78.6 81l.1 3.4v8l.1 1.1h.2V79.7l.1-1.4v5.8l.1 3.9v5.5h.3V78l.1 2.4v11.4l.1 1.7h.2V79.1l.1-1.4v5.8l.1 3.9v6.1h.3V77.4v2.4l.1 3.4v10.3h.3V77.1l.1 2.4v7.3l.1 4.1v2.6h.2l.1-15.3v-1.4 5.8l.1 3.9v7h.3v-17 2.4l.1 3.4v11.2h.3V76.2l.1 2.4V90l.1 3.5h.2V77.3l.1-1.4v9.7l.1 4.1v3.8h.2l.1-16.5v-1.4 5.8l.1 3.9v8.2h.2l.1-16.8v-1.4 5.8l.1 3.9v8.5h.3V75v2.4l.1 3.4V93l.1.5h.2V76.1v17.4z"/><path fill="url(#e)" d="M445.5 93.5v4.6l32.6 4.7 19.1 4.6 13.6 4.6 10.5 4.6 8.6 4.6 7.2 4.6 6.3 4.5 5.6 4.5 4.9 4.4 4.5 4.2 4.1 4.1 3.8 3.6 3.5 2.7 3.2-.4 3.1-16.1 2.8-25.2 2.7-2.8 2.6 2.1 2.4 3.4 2.3 3.9 2.2 4.1 2.1 4.2 2 4.3 1.9 4.2 1.8 4.3 1.8 4.1 1.7 4 1.7 3.5 1.6 2.5 1.5-.9 1.5-18.6 1.5-23.3 1.4-2 1.3 2.2 1.4 3.4 1.3 3.9 1.2 4.1 1.2 4.2 1.2 4.3 1.2 4.2 1.1 4.3 1.1 4.1 1.1 3.9 1.1 3.5 1 2.4 1-1 1-19.4 1-22.6.9-1.8 1 2.3.9 3.4.9 3.9.9 4.1.8 4.2.9 4.3.8 4.2.8 4.3.8 4.1.8 3.9.8 3.5.8 2.4.7-1.2.8-19.8.7-22.2.7-1.7.7 2.3.7 3.4.7 3.9.7 4.1.6 4.2.7 4.3.7 4.3.6 4.2.6 4.1.7 3.9.6 3.5.6 2.4.6-1.2.6-20.1.6-21.9.5-1.7.6 2.3.6 3.5.5 3.9.6 4.1.5 4.2.6 4.2.5 4.3.5 4.2.5 4.1.6 3.9.5 3.5.5 2.4.5-1.2.5-20.3.4-21.8.5-1.6.5 2.4.5 3.4.4 3.9.5 4.1.5 4.2.4 4.3.5 4.2.4 4.2.5 4.2.4 3.9.4 3.4.5 2.4.4-1.2.4-20.4.4-21.7.5-1.6.4 2.4.4 3.4.4 3.9.4 4.1.4 4.2.4 4.3.4 4.2.3 4.3.4 4.1.4 3.9.4 3.4.4 2.4.3-1.3.4-20.4.4-21.6.3-1.5.4 2.3.4 3.4.3 3.9.4 4.1.3 4.2.4 4.3.3 4.2.4 4.3.3 4.1.3 3.9.4 3.4.3 2.4.3-1.3.4-20.5.3-21.5.3-1.5.3 2.3.3 3.4.4 3.9.3 4.1.3 4.2.3 4.3.3 4.3.3 4.2.3 4.1.3 3.9.3 3.4.3 2.4.3-1.3.3-20.5.3-21.5.3-1.5.3 2.3.3 3.4.3 3.9.3 4.1.2 4.2.3 4.3.3 4.3.3 4.2.2 4.1.3 3.9.3 3.4.3 2.4.2-1.3.3-20.6.3-21.4.2-1.5.3 2.3.3 3.4.2 3.9.3 4.1.2 4.2.3 4.3.3 4.3.2 4.2.3 4.1.2 3.9.3 3.4.2 2.4.3-1.3.2-20.6.2-21.4.3-1.5.2 2.3.3 3.4.2 3.9.3 4.1.2 4.2.2 4.3.3 4.3.2 4.2.2 4.1.3 3.9.2 3.4.2 2.4.2-1.3.3-20.7.2-21.3.2-1.5.2 2.3.3 3.4.2 3.9.2 4.1.2 4.2.3 4.3.2 4.3.2 4.2.2 4.1.2 3.9.2 3.4.2 2.4.3-1.3.2-20.7.2-21.4.2-1.4.2 2.3.2 3.4.2 3.9.2 4.1.2 4.2.2 4.3.2 4.3.2 4.2.2 4.1.2 3.9.2 3.5.2 2.3.2-1.3.2-20.7.2-21.4.2-1.4.2 2.3.2 3.4.2 3.9.2 4.1.2 4.2.2 4.3.1 4.3.2 4.2.2 4.1.2 3.9.2 3.5.2 2.3.2-1.3.2-20.8.1-21.3.2-1.5.2 2.4.2 3.4.2 3.9.1 4.1.2 4.2.2 4.3.2 4.3.2 4.2.1 4.1.2 3.9.2 3.4.2 2.4.1-1.3.2-20.8.2-21.3.2-1.5.1 2.4.2 3.4.2 3.9.1 4.1.2 4.2.2 4.3.1 4.3.2 4.2.2 4.1.1 3.9.2 3.4.2 2.4.1-1.3.2-20.8.2-21.3.1-1.5.2 2.4.2 3.4.1 3.9.2 4.1.1 4.2.2 4.3.2 4.3.1 4.2.2 4.1.1 3.9.2 3.4.1 2.4.2-1.3.1-20.8.2-21.3.2-1.5.1 2.4.2 3.4.1 3.9.2 4.1.1 4.2.2 4.3.1 4.3.2 4.2.1 4.1.2 3.9.1 3.4.2 2.4.1-1.3.2-20.8.1-21.3.2-1.5.1 2.4.2 3.4.1 3.9.1 4.1.2 4.2.1 4.3.2 4.3.1 4.2.2 4.1.1 3.9.1 3.4.2 2.4.1-1.3.2-20.9.1-21.2.1-1.5.2 2.4.1 3.4.2 3.9.1 4.1.1 4.2.2 4.3.1 4.3.1 4.2.2 4.1.1 3.9.2 3.4.1 2.4.1-1.4.2-20.8.1-21.2.1-1.5.2 2.4.1 3.4.1 3.9.2 4.1.1 4.2.1 4.3.1 4.3.2 4.2.1 4.1.1 3.9.2 3.4.1 2.4.1-1.4.1-20.8.2-21.2.1-1.5.1 2.4.2 3.4.1 3.9.1 4.1.1 4.2.2 4.3.1 4.3.1 4.2.1 4.1.2 3.9.1 3.4.1 2.4.1-1.4.2-20.8.1-21.2.1-1.5.1 2.4.1 3.4.2 3.9.1 4.1.1 4.2.1 4.3.1 4.3.2 4.2.1 4.1.1 3.9.1 3.4.1 2.4.2-1.4.1-20.8.1-21.2.1-1.5.1 2.4.1 3.4.2 3.9.1 4.1.1 4.2.1 4.3.1 4.3.1 4.2.2 4.1.1 3.9.1 3.4.1 2.4.1-1.4.1-20.8.1-21.2.1-1.5.2 2.4.1 3.4.1 3.9.1 4.1.1 4.2.1 4.3.1 4.3.1 4.2.2 4.1.1 3.9.1 3.4.1 2.4.1-1.4.1-20.8.1-21.2.1-1.5.1 2.4.1 3.4.1 3.9.1 4.1.2 4.2.1 4.3.1 4.3.1 4.2.1 4.1.1 3.9.1 3.4.1 2.4.1-1.4.1-20.8.1-21.2.1-1.5.1 2.4.1 3.4.1 3.9.1 4.1.1 4.2.1 4.3.1 4.3.2 4.2.1 4.1.1 3.9.1 3.4.1 2.4.1-1.4.1-20.8.1-21.2.1-1.5.1 2.4.1 3.4.1 3.9.1 4.1.1 4.2.1 4.3.1 4.3.1 4.2.1 4.1.1 3.9.1 3.4.1 2.4.1-1.4.1-20.9.1-21.1.1-1.5.1 2.4.1 3.4.1 3.9v4.1l.1 4.2.1 4.3.1 4.3.1 4.2.1 4.1.1 3.9.1 3.4.1 2.4.1-1.4.1-20.9.1-21.1.1-1.5.1 2.4.1 3.4.1 3.9.1 4.1.1 4.2.1 4.3.1 4.3v4.2l.1 4.1.1 3.9.1 3.4.1 2.4.1-1.4.1-20.9.1-21.1.1-1.5.1 2.4.1 3.4.1 3.9.1 4.1v4.2l.1 4.3.1 4.3.1 4.2.1 4.1.1 3.9.1 3.4.1 2.4.1-1.4.1-20.9v-21.1l.1-1.5.1 2.4.1 3.4.1 3.9.1 4.1.1 4.2.1 4.3v4.2l.1 4.3.1 4.1.1 3.9.1 3.4.1 2.4.1-1.4.1-20.9V101l.1-1.5.1 2.4.1 3.4.1 3.9.1 4.1.1 4.2v4.3l.1 4.2.1 4.3.1 4.1.1 3.9.1 3.4.1 2.4v-1.4l.1-20.9.1-21.1.1-1.5.1 2.4.1 3.4v3.9l.1 4.1.1 4.2.1 4.3.1 4.2.1 4.3v4.1l.1 3.9.1 3.4.1 2.4.1-1.4v-20.9l.1-21.2.1-1.4.1 2.4.1 3.4.1 3.9v4.1l.1 4.2.1 4.3.1 4.2.1 4.3v4.1l.1 3.9.1 3.4.1 2.4.1-1.4v-20.9l.1-21.2.1-1.4.1 2.4.1 3.4v3.9l.1 4.1.1 4.2.1 4.3.1 4.2v4.3l.1 4.1.1 3.9.1 3.4v2.4l.1-1.4.1-20.9.1-21.2.1-1.4v2.3l.1 3.5.1 3.9.1 4.1v4.2l.1 4.3.1 4.2.1 4.3v4.1l.1 3.9.1 3.4.1 2.4v-1.4l.1-20.9.1-21.2.1-1.4v2.3l.1 3.5.1 3.9.1 4.1v4.2l.1 4.3.1 4.2.1 4.3v4.1l.1 3.9.1 3.4.1 2.4v-1.4l.1-20.9.1-21.2.1-1.4v2.3l.1 3.5.1 3.9.1 4.1v4.2l.1 4.3.1 4.2v4.3l.1 4.1.1 3.9.1 3.4v2.4l.1-1.4.1-20.9V98.8l.1-1.4.1 2.3.1 3.5v3.9l.1 4.1.1 4.2v4.3l.1 4.2.1 4.2.1 4.2v3.9l.1 3.4.1 2.4v-1.4l.1-20.9.1-21.2v-1.4l.1 2.3.1 3.5.1 3.9v4.1l.1 4.2.1 4.3v4.2l.1 4.2.1 4.2v3.9l.1 3.4.1 2.4v-1.4l.1-21 .1-21.1.1-1.4v2.3l.1 3.5.1 3.9v4.1l.1 4.2.1 4.3v4.2l.1 4.2.1 4.2v3.8l.1 3.5.1 2.4V140l.1-21 .1-21.1v-1.4l.1 2.3.1 3.5v3.9l.1 4.1.1 4.2v4.3l.1 4.2.1 4.2v4.2l.1 3.8.1 3.5v2.4l.1-1.4.1-21V97.6l.1-1.4.1 2.3v3.5l.1 3.9.1 4.1v4.2l.1 4.3v4.2l.1 4.2.1 4.1v3.9l.1 3.5.1 2.4v-1.4l.1-21 .1-21.1v-1.4l.1 2.3.1 3.5v3.9l.1 4.1v4.2l.1 4.3.1 4.2v4.2l.1 4.1.1 3.9v3.5l.1 2.4v-1.4l.1-21 .1-21.1v-1.4l.1 2.3.1 3.5v3.9l.1 4.1v4.2l.1 4.3.1 4.2v4.2l.1 4.1.1 3.9v3.5l.1 2.3v-1.3l.1-21 .1-21.1v-1.4l.1 2.3v3.5l.1 3.9.1 4.1v4.2l.1 4.3v4.2l.1 4.2.1 4.1v3.9l.1 3.5.1 2.3v-1.3l.1-21V96.4l.1-1.4.1 2.3v3.5l.1 3.9v4.1l.1 4.2v4.3l.1 4.2.1 4.2v4.1l.1 3.9v3.5l.1 2.3.1-1.3v-21l.1-21.1v-1.4l.1 2.3.1 3.5v3.9l.1 4.1v4.2l.1 4.2v4.3l.1 4.2.1 4.1v3.9l.1 3.5v2.3l.1-1.4.1-20.9V95.8l.1-1.4v2.3l.1 3.5v3.9l.1 4.1.1 4.2v4.2l.1 4.3v4.2l.1 4.1v3.9l.1 3.5.1 2.3v-1.4l.1-20.9V95.5l.1-1.4v2.3l.1 3.5.1 3.9v4.1l.1 4.2v4.2l.1 4.3v4.2l.1 4.1v3.9l.1 3.5.1 2.3v-1.4l.1-20.9V95.2l.1-1.4v2.3l.1 3.5v3.9l.1 4.1.1 4.2v4.2l.1 4.3v4.2l.1 4.1v3.9l.1 3.5v2.3l.1-1.4V116l.1-21.1.1-1.4v2.3l.1 3.5v3.9l.1 4.1v4.2l.1 4.2v4.3l.1 4.2v4.1l.1 3.9.1 3.5v2.3l.1-1.4v-20.9l.1-21.1v-1.1l.1 2V99l.1 3.8v4.2l.1 4.2v4.2l.1 4.3v4.2l.1 4.1v3.9l.1 3.5.1 2.3v-1.4l.1-20.9V94.3l.1-.8v1.7l.1 3.5v3.8l.1 4.2v4.2l.1 4.2v4.3l.1 4.2v4.1l.1 3.9v3.5l.1 2.3V136l.1-20.9V94l.1-.5v1.4l.1 3.5.1 3.8v4.2l.1 4.2v4.2l.1 4.3v4.2l.1 4.1v3.9l.1 3.5v2.3l.1-1.4v-20.9l.1-21.1v-.2l.1 1.1V98l.1 3.9v4.2l.1 4.2v4.2l.1 4.3v4.2l.1 4.1v3.9l.1 3.5v2.3l.1-1.4v-20.9l.1-21 .1.8v3.4l.1 3.9v4.1l.1 4.3v4.2l.1 4.3v4.2l.1 4.1v3.9l.1 3.5v2.3l.1-1.4v-20.9l.1-20.7.1.5v3.4l.1 3.9v4.1l.1 4.3v8.5l.1 4.2v4.1l.1 3.9v3.5l.1 2.3v-1.4l.1-20.9V93.5h.1v.2l.1 3.4v3.9l.1 4.1v4.3l.1 4.2v4.3l.1 4.2v4.1l.1 3.9v3.5l.1 2.3v-1.4l.1-20.9V93.5h.1v3.3l.1 3.9v4.1l.1 4.3v4.2l.1 4.3v4.2l.1 4.1v3.9l.1 3.5v2.3l.1-1.4v-21l.1-19.7.1 3v3.9l.1 4.1v4.3l.1 4.2v4.3l.1 4.2v4.1l.1 3.9v3.4l.1 2.4v-22.4l.1-19.4h.1v2.7l.1 3.9v4.1l.1 4.3v4.2l.1 4.3v4.2l.1 4.1v7.3l.1 2.4v-1.4l.1-21V93.5h.1l.1 2.4v3.9l.1 4.1v8.5l.1 4.3v4.2l.1 4.1v3.9l.1 3.4v2.4l.1-1.4V93.5h.1l.1 2.1v3.9l.1 4.1v4.2l.1 4.3v8.5l.1 4.1v3.9l.1 3.4v2.4l.1-1.4v-21l.1-18.5.1 1.8v3.9l.1 4.1v4.2l.1 4.3v8.5l.1 4.1v3.9l.1 3.4v2.4l.1-1.4V93.5h.1l.1 1.5v3.9l.1 4.1v8.5l.1 4.3v4.2l.1 4.1v3.9l.1 3.4v2.4-1.4l.1-21V93.5h.1l.1 1.2v8l.1 4.2v4.3l.1 4.3v4.2l.1 4.1v7.3l.1 2.4v-1.4l.1-21V93.5h.1v.9l.1 3.9v4.1l.1 4.2v8.6l.1 4.2v4.1l.1 3.9v3.4l.1 2.4v-22.4l.1-17.3h.1V98l.1 4.1v4.2l.1 4.3v4.3l.1 4.2v8l.1 3.4v2.4l.1-1.4v-38h.1l.1.3v8l.1 4.2v4.3l.1 4.3v8.3l.1 3.9v3.4l.1 2.4v-22.4l.1-16.7h.1v3.9l.1 4.1v4.2l.1 4.3v8.5l.1 4.1v3.9l.1 3.4v2.4-1.4l.1-21V93.5h.1l.1 3.6v4.1l.1 4.2v8.6l.1 4.2v4.1l.1 3.9v5.8l.1-1.4v-21l.1-16.1h.1v3.3l.1 4.1v8.5l.1 4.2v8.4l.1 3.9v3.4l.1 2.4v-22.4l.1-15.8h.1v3l.1 4.1v4.2l.1 4.3v8.5l.1 4.1v7.3l.1 2.4V130l.1-21V93.5h.1v2.7l.1 4.1v4.2l.1 4.3v8.5l.1 4.1v3.9l.1 3.4v2.4-1.4l.1-21V93.5h.1l.1 2.4v8.3l.1 4.3v8.5l.1 4.1v3.9l.1 3.4v2.4-1.4l.1-21V93.5h.1l.1 2.1v8.3l.1 4.3v8.5l.1 4.1v7.3l.1 2.4v-1.4l.1-21V93.5h.1v1.8l.1 4.1v4.2l.1 4.3v8.5l.1 4.1v7.3l.1 2.4v-22.4l.1-14.3h.1V95l.1 4.1v8.5l.1 4.2v8.4l.1 3.9v3.4l.1 2.4v-22.4l.1-14h.1v5.3l.1 4.2v8.5l.1 4.2v4.2l.1 3.9v5.8l.1-1.4V93.5h.1l.1.9v8.3l.1 4.3v8.4l.1 4.2v3.8l.1 3.5v2.4-1.5l.1-20.9V93.5h.1v.6l.1 4.1v8.5l.1 4.2v8.4l.1 3.8v5.9l.1-1.5v-34h.2v4.4l.1 4.2v8.5l.1 4.2v8l.1 3.5v2.3-1.4l.1-20.9V93.5h.1l.1 4.1v8.5l.1 4.2v8.3l.1 3.9v5.8l.1-1.4V93.5h.2v8l.1 4.3v8.4l.1 4.1v7.4l.1 2.3v-22.4l.1-12.1h.1V97l.1 4.2v8.5l.1 4.2v8l.1 3.5v2.3-1.4l.1-21V93.5h.1l.1 3.2v8.5l.1 4.2v8.3l.1 3.9v5.8l.1-1.4V93.5h.2v7.1l.1 4.2v8.5l.1 4.1v7.4l.1 2.3v-22.4l.1-11.2h.1v2.6l.1 4.2V113l.1 4.1v7.4l.1 2.3v-22.4l.1-10.9h.1v2.3l.1 4.2v8.5l.1 4.2v8l.1 3.5v2.3-1.4l.1-21V93.5h.1v2l.1 4.2v8.5l.1 4.2v8l.1 3.5v2.3-1.4l.1-21V93.5h.1v1.7l.1 4.2v8.5l.1 4.2v8l.1 3.5v2.3-1.4l.1-21v-10h.1v1.4l.1 4.2v8.5l.1 4.2v8l.1 3.5v2.3-22.4l.1-9.7h.1v1.1l.1 4.2v8.5l.1 4.2V123l.1 2.3v-22.4l.1-9.4h.1v5l.1 4.2v8.5l.1 4.1v7.4l.1 2.3V93.5h.2v4.7l.1 4.2V115l.1 3.9v5.8l.1-1.4V93.5h.1l.1.1v8.5l.1 4.3v8.3l.1 3.9v5.8-1.4l.1-21v-8.5h.1l.1 4.1v8.5l.1 4.2v8l.1 3.5v2.3-22.4l.1-8.2h.1v3.8l.1 4.2v8.5l.1 4.1v9.7l.1-1.4V93.5h.2v7.7l.1 4.3v12.2l.1 3.4v2.4-1.4l.1-21v-7.6h.1l.1 3.2v12.7l.1 4.1v7.3l.1 2.4V93.5h.2v7.1l.1 4.3v8.3l.1 3.9v5.8-1.4l.1-21v-7h.1l.1 2.5v12.8l.1 4.1v7.3l.1 2.4V93.5h.2v6.5l.1 4.3v12.2l.1 3.4v2.4-1.4l.1-21v-6.4h.1v1.9l.1 4.3v8.5l.1 4.1v9.7l.1-1.4V93.5h.2v10.2l.1 4.2v11.4l.1 2.4V99.3l.1-5.8h.1v5.6l.1 4.3v8.3l.1 3.9v5.8-1.4l.1-21v-5.5h.1v1l.1 4.3v8.5l.1 4.1v9.7l.1-1.4V93.5h.1l.1.7V107l.1 4.1v7.3l.1 2.4V93.5h.2v9l.1 4.2v11.4l.1 2.4V98.1l.1-4.6h.1v4.4l.1 4.3v12.2l.1 3.4v2.4-22.5l.1-4.2h.1v4.1l.1 4.2v12.3l.1 3.4v2.4-1.4l.1-21.1v-3.9h.1l.1 3.8v12.6l.1 3.9v5.8-1.4l.1-21.1v-3.6z"/><path fill="none" stroke="#ef4444" stroke-linejoin="round" stroke-width="1.5" d="m445.5 98.1 32.6 4.7 19.1 4.6 13.6 4.6 10.5 4.6 8.6 4.6 7.2 4.6 6.3 4.5 5.6 4.5 4.9 4.4 4.5 4.2 4.1 4.1 3.8 3.6 3.5 2.7 3.2-.4 3.1-16.1 2.8-25.2 2.7-2.8 2.6 2.1 2.4 3.4 2.3 3.9 2.2 4.1 2.1 4.2 2 4.3 1.9 4.2 1.8 4.3 1.8 4.1 1.7 4 1.7 3.5 1.6 2.5 1.5-.9 1.5-18.6 1.5-23.3 1.4-2 1.3 2.2 1.4 3.4 1.3 3.9 1.2 4.1 1.2 4.2 1.2 4.3 1.2 4.2 1.1 4.3 1.1 4.1 1.1 3.9 1.1 3.5 1 2.4 1-1 1-19.4 1-22.6.9-1.8 1 2.3.9 3.4.9 3.9.9 4.1.8 4.2.9 4.3.8 4.2.8 4.3.8 4.1.8 3.9.8 3.5.8 2.4.7-1.2.8-19.8.7-22.2.7-1.7.7 2.3.7 3.4.7 3.9.7 4.1.6 4.2.7 4.3.7 4.3.6 4.2.6 4.1.7 3.9.6 3.5.6 2.4.6-1.2.6-20.1.6-21.9.5-1.7.6 2.3.6 3.5.5 3.9.6 4.1.5 4.2.6 4.2.5 4.3.5 4.2.5 4.1.6 3.9.5 3.5.5 2.4.5-1.2.5-20.3.4-21.8.5-1.6.5 2.4.5 3.4.4 3.9.5 4.1.5 4.2.4 4.3.5 4.2.4 4.2.5 4.2.4 3.9.4 3.4.5 2.4.4-1.2.4-20.4.4-21.7.5-1.6.4 2.4.4 3.4.4 3.9.4 4.1.4 4.2.4 4.3.4 4.2.3 4.3.4 4.1.4 3.9.4 3.4.4 2.4.3-1.3.4-20.4.4-21.6.3-1.5.4 2.3.4 3.4.3 3.9.4 4.1.3 4.2.4 4.3.3 4.2.4 4.3.3 4.1.3 3.9.4 3.4.3 2.4.3-1.3.4-20.5.3-21.5.3-1.5.3 2.3.3 3.4.4 3.9.3 4.1.3 4.2.3 4.3.3 4.3.3 4.2.3 4.1.3 3.9.3 3.4.3 2.4.3-1.3.3-20.5.3-21.5.3-1.5.3 2.3.3 3.4.3 3.9.3 4.1.2 4.2.3 4.3.3 4.3.3 4.2.2 4.1.3 3.9.3 3.4.3 2.4.2-1.3.3-20.6.3-21.4.2-1.5.3 2.3.3 3.4.2 3.9.3 4.1.2 4.2.3 4.3.3 4.3.2 4.2.3 4.1.2 3.9.3 3.4.2 2.4.3-1.3.2-20.6.2-21.4.3-1.5.2 2.3.3 3.4.2 3.9.3 4.1.2 4.2.2 4.3.3 4.3.2 4.2.2 4.1.3 3.9.2 3.4.2 2.4.2-1.3.3-20.7.2-21.3.2-1.5.2 2.3.3 3.4.2 3.9.2 4.1.2 4.2.3 4.3.2 4.3.2 4.2.2 4.1.2 3.9.2 3.4.2 2.4.3-1.3.2-20.7.2-21.4.2-1.4.2 2.3.2 3.4.2 3.9.2 4.1.2 4.2.2 4.3.2 4.3.2 4.2.2 4.1.2 3.9.2 3.5.2 2.3.2-1.3.2-20.7.2-21.4.2-1.4.2 2.3.2 3.4.2 3.9.2 4.1.2 4.2.2 4.3.1 4.3.2 4.2.2 4.1.2 3.9.2 3.5.2 2.3.2-1.3.2-20.8.1-21.3.2-1.5.2 2.4.2 3.4.2 3.9.1 4.1.2 4.2.2 4.3.2 4.3.2 4.2.1 4.1.2 3.9.2 3.4.2 2.4.1-1.3.2-20.8.2-21.3.2-1.5.1 2.4.2 3.4.2 3.9.1 4.1.2 4.2.2 4.3.1 4.3.2 4.2.2 4.1.1 3.9.2 3.4.2 2.4.1-1.3.2-20.8.2-21.3.1-1.5.2 2.4.2 3.4.1 3.9.2 4.1.1 4.2.2 4.3.2 4.3.1 4.2.2 4.1.1 3.9.2 3.4.1 2.4.2-1.3.1-20.8.2-21.3.2-1.5.1 2.4.2 3.4.1 3.9.2 4.1.1 4.2.2 4.3.1 4.3.2 4.2.1 4.1.2 3.9.1 3.4.2 2.4.1-1.3.2-20.8.1-21.3.2-1.5.1 2.4.2 3.4.1 3.9.1 4.1.2 4.2.1 4.3.2 4.3.1 4.2.2 4.1.1 3.9.1 3.4.2 2.4.1-1.3.2-20.9.1-21.2.1-1.5.2 2.4.1 3.4.2 3.9.1 4.1.1 4.2.2 4.3.1 4.3.1 4.2.2 4.1.1 3.9.2 3.4.1 2.4.1-1.4.2-20.8.1-21.2.1-1.5.2 2.4.1 3.4.1 3.9.2 4.1.1 4.2.1 4.3.1 4.3.2 4.2.1 4.1.1 3.9.2 3.4.1 2.4.1-1.4.1-20.8.2-21.2.1-1.5.1 2.4.2 3.4.1 3.9.1 4.1.1 4.2.2 4.3.1 4.3.1 4.2.1 4.1.2 3.9.1 3.4.1 2.4.1-1.4.2-20.8.1-21.2.1-1.5.1 2.4.1 3.4.2 3.9.1 4.1.1 4.2.1 4.3.1 4.3.2 4.2.1 4.1.1 3.9.1 3.4.1 2.4.2-1.4.1-20.8.1-21.2.1-1.5.1 2.4.1 3.4.2 3.9.1 4.1.1 4.2.1 4.3.1 4.3.1 4.2.2 4.1.1 3.9.1 3.4.1 2.4.1-1.4.1-20.8.1-21.2.1-1.5.2 2.4.1 3.4.1 3.9.1 4.1.1 4.2.1 4.3.1 4.3.1 4.2.2 4.1.1 3.9.1 3.4.1 2.4.1-1.4.1-20.8.1-21.2.1-1.5.1 2.4.1 3.4.1 3.9.1 4.1.2 4.2.1 4.3.1 4.3.1 4.2.1 4.1.1 3.9.1 3.4.1 2.4.1-1.4.1-20.8.1-21.2.1-1.5.1 2.4.1 3.4.1 3.9.1 4.1.1 4.2.1 4.3.1 4.3.2 4.2.1 4.1.1 3.9.1 3.4.1 2.4.1-1.4.1-20.8.1-21.2.1-1.5.1 2.4.1 3.4.1 3.9.1 4.1.1 4.2.1 4.3.1 4.3.1 4.2.1 4.1.1 3.9.1 3.4.1 2.4.1-1.4.1-20.9.1-21.1.1-1.5.1 2.4.1 3.4.1 3.9v4.1l.1 4.2.1 4.3.1 4.3.1 4.2.1 4.1.1 3.9.1 3.4.1 2.4.1-1.4.1-20.9.1-21.1.1-1.5.1 2.4.1 3.4.1 3.9.1 4.1.1 4.2.1 4.3.1 4.3v4.2l.1 4.1.1 3.9.1 3.4.1 2.4.1-1.4.1-20.9.1-21.1.1-1.5.1 2.4.1 3.4.1 3.9.1 4.1v4.2l.1 4.3.1 4.3.1 4.2.1 4.1.1 3.9.1 3.4.1 2.4.1-1.4.1-20.9v-21.1l.1-1.5.1 2.4.1 3.4.1 3.9.1 4.1.1 4.2.1 4.3v4.2l.1 4.3.1 4.1.1 3.9.1 3.4.1 2.4.1-1.4.1-20.9V101l.1-1.5.1 2.4.1 3.4.1 3.9.1 4.1.1 4.2v4.3l.1 4.2.1 4.3.1 4.1.1 3.9.1 3.4.1 2.4v-1.4l.1-20.9.1-21.1.1-1.5.1 2.4.1 3.4v3.9l.1 4.1.1 4.2.1 4.3.1 4.2.1 4.3v4.1l.1 3.9.1 3.4.1 2.4.1-1.4v-20.9l.1-21.2.1-1.4.1 2.4.1 3.4.1 3.9v4.1l.1 4.2.1 4.3.1 4.2.1 4.3v4.1l.1 3.9.1 3.4.1 2.4.1-1.4v-20.9l.1-21.2.1-1.4.1 2.4.1 3.4v3.9l.1 4.1.1 4.2.1 4.3.1 4.2v4.3l.1 4.1.1 3.9.1 3.4v2.4l.1-1.4.1-20.9.1-21.2.1-1.4v2.3l.1 3.5.1 3.9.1 4.1v4.2l.1 4.3.1 4.2.1 4.3v4.1l.1 3.9.1 3.4.1 2.4v-1.4l.1-20.9.1-21.2.1-1.4v2.3l.1 3.5.1 3.9.1 4.1v4.2l.1 4.3.1 4.2.1 4.3v4.1l.1 3.9.1 3.4.1 2.4v-1.4l.1-20.9.1-21.2.1-1.4v2.3l.1 3.5.1 3.9.1 4.1v4.2l.1 4.3.1 4.2v4.3l.1 4.1.1 3.9.1 3.4v2.4l.1-1.4.1-20.9V98.8l.1-1.4.1 2.3.1 3.5v3.9l.1 4.1.1 4.2v4.3l.1 4.2.1 4.2.1 4.2v3.9l.1 3.4.1 2.4v-1.4l.1-20.9.1-21.2v-1.4l.1 2.3.1 3.5.1 3.9v4.1l.1 4.2.1 4.3v4.2l.1 4.2.1 4.2v3.9l.1 3.4.1 2.4v-1.4l.1-21 .1-21.1.1-1.4v2.3l.1 3.5.1 3.9v4.1l.1 4.2.1 4.3v4.2l.1 4.2.1 4.2v3.8l.1 3.5.1 2.4V140l.1-21 .1-21.1v-1.4l.1 2.3.1 3.5v3.9l.1 4.1.1 4.2v4.3l.1 4.2.1 4.2v4.2l.1 3.8.1 3.5v2.4l.1-1.4.1-21V97.6l.1-1.4.1 2.3v3.5l.1 3.9.1 4.1v4.2l.1 4.3v4.2l.1 4.2.1 4.1v3.9l.1 3.5.1 2.4v-1.4l.1-21 .1-21.1v-1.4l.1 2.3.1 3.5v3.9l.1 4.1v4.2l.1 4.3.1 4.2v4.2l.1 4.1.1 3.9v3.5l.1 2.4v-1.4l.1-21 .1-21.1v-1.4l.1 2.3.1 3.5v3.9l.1 4.1v4.2l.1 4.3.1 4.2v4.2l.1 4.1.1 3.9v3.5l.1 2.3v-1.3l.1-21 .1-21.1v-1.4l.1 2.3v3.5l.1 3.9.1 4.1v4.2l.1 4.3v4.2l.1 4.2.1 4.1v3.9l.1 3.5.1 2.3v-1.3l.1-21V96.4l.1-1.4.1 2.3v3.5l.1 3.9v4.1l.1 4.2v4.3l.1 4.2.1 4.2v4.1l.1 3.9v3.5l.1 2.3.1-1.3v-21l.1-21.1v-1.4l.1 2.3.1 3.5v3.9l.1 4.1v4.2l.1 4.2v4.3l.1 4.2.1 4.1v3.9l.1 3.5v2.3l.1-1.4.1-20.9V95.8l.1-1.4v2.3l.1 3.5v3.9l.1 4.1.1 4.2v4.2l.1 4.3v4.2l.1 4.1v3.9l.1 3.5.1 2.3v-1.4l.1-20.9V95.5l.1-1.4v2.3l.1 3.5.1 3.9v4.1l.1 4.2v4.2l.1 4.3v4.2l.1 4.1v3.9l.1 3.5.1 2.3v-1.4l.1-20.9V95.2l.1-1.4v2.3l.1 3.5v3.9l.1 4.1.1 4.2v4.2l.1 4.3v4.2l.1 4.1v3.9l.1 3.5v2.3l.1-1.4V116l.1-21.1.1-1.4v2.3l.1 3.5v3.9l.1 4.1v4.2l.1 4.2v4.3l.1 4.2v4.1l.1 3.9.1 3.5v2.3l.1-1.4v-20.9l.1-21.1v-1.4l.1 2.3V99l.1 3.8v4.2l.1 4.2v4.2l.1 4.3v4.2l.1 4.1v3.9l.1 3.5.1 2.3v-1.4l.1-20.9V94.3l.1-1.4v2.3l.1 3.5v3.8l.1 4.2v4.2l.1 4.2v4.3l.1 4.2v4.1l.1 3.9v3.5l.1 2.3V136l.1-20.9V94l.1-1.4v2.3l.1 3.5.1 3.8v4.2l.1 4.2v4.2l.1 4.3v4.2l.1 4.1v3.9l.1 3.5v2.3l.1-1.4v-20.9l.1-21.1v-1.5l.1 2.4V98l.1 3.9v4.2l.1 4.2v4.2l.1 4.3v4.2l.1 4.1v3.9l.1 3.5v2.3l.1-1.4v-20.9l.1-21.1v-1.5l.1 2.4v3.4l.1 3.9v4.1l.1 4.3v4.2l.1 4.3v4.2l.1 4.1v3.9l.1 3.5v2.3l.1-1.4v-20.9l.1-21.1v-1.5l.1 2.4v3.4l.1 3.9v4.1l.1 4.3v8.5l.1 4.2v4.1l.1 3.9v3.5l.1 2.3v-1.4l.1-20.9V92.8l.1-1.5v2.4l.1 3.4v3.9l.1 4.1v4.3l.1 4.2v4.3l.1 4.2v4.1l.1 3.9v3.5l.1 2.3v-1.4l.1-20.9V91l.1 2.4v3.4l.1 3.9v4.1l.1 4.3v4.2l.1 4.3v4.2l.1 4.1v3.9l.1 3.5v2.3l.1-1.4v-21l.1-21v-1.5 2.4l.1 3.4v3.9l.1 4.1v4.3l.1 4.2v4.3l.1 4.2v4.1l.1 3.9v3.4l.1 2.4v-22.4l.1-21v-1.5l.1 2.4v3.4l.1 3.9v4.1l.1 4.3v4.2l.1 4.3v4.2l.1 4.1v7.3l.1 2.4v-1.4l.1-21v-21l.1-1.5v2.4l.1 3.4v3.9l.1 4.1v8.5l.1 4.3v4.2l.1 4.1v3.9l.1 3.4v2.4l.1-1.4v-42l.1-1.5v2.4l.1 3.4v3.9l.1 4.1v4.2l.1 4.3v8.5l.1 4.1v3.9l.1 3.4v2.4l.1-1.4v-21l.1-21v-1.5 2.4l.1 3.4v3.9l.1 4.1v4.2l.1 4.3v8.5l.1 4.1v3.9l.1 3.4v2.4l.1-1.4V90.6l.1-1.4v2.4l.1 3.4v3.9l.1 4.1v8.5l.1 4.3v4.2l.1 4.1v3.9l.1 3.4v2.4-1.4l.1-21V90.3l.1-1.4v2.4l.1 3.4v8l.1 4.2v4.3l.1 4.3v4.2l.1 4.1v7.3l.1 2.4v-1.4l.1-21V90l.1-1.4v5.8l.1 3.9v4.1l.1 4.2v8.6l.1 4.2v4.1l.1 3.9v3.4l.1 2.4v-22.4l.1-21.1v-1.4l.1 2.4V98l.1 4.1v4.2l.1 4.3v4.3l.1 4.2v8l.1 3.4v2.4l.1-1.4V89.4l.1-1.4v2.4l.1 3.4v8l.1 4.2v4.3l.1 4.3v8.3l.1 3.9v3.4l.1 2.4v-22.4l.1-21.1v-1.4l.1 2.4v7.3l.1 4.1v4.2l.1 4.3v8.5l.1 4.1v3.9l.1 3.4v2.4-1.4l.1-21V88.8l.1-1.4v5.8l.1 3.9v4.1l.1 4.2v8.6l.1 4.2v4.1l.1 3.9v5.8l.1-1.4v-21l.1-21.1v-1.4 2.4l.1 3.4v3.9l.1 4.1v8.5l.1 4.2v8.4l.1 3.9v3.4l.1 2.4v-22.4l.1-21.1v-1.4l.1 2.4v7.3l.1 4.1v4.2l.1 4.3v8.5l.1 4.1v7.3l.1 2.4V130l.1-21V86.5l.1 2.4v7.3l.1 4.1v4.2l.1 4.3v8.5l.1 4.1v3.9l.1 3.4v2.4-1.4l.1-21V86.2l.1 2.3V92l.1 3.9v8.3l.1 4.3v8.5l.1 4.1v3.9l.1 3.4v2.4-1.4l.1-21V85.9l.1 2.3v3.5l.1 3.9v8.3l.1 4.3v8.5l.1 4.1v7.3l.1 2.4v-1.4l.1-21V85.6l.1 2.3v7.4l.1 4.1v4.2l.1 4.3v8.5l.1 4.1v7.3l.1 2.4v-22.4l.1-21.1v-1.4l.1 2.3V95l.1 4.1v8.5l.1 4.2v8.4l.1 3.9v3.4l.1 2.4v-22.4l.1-21.1V85v2.3l.1 3.5v8l.1 4.2v8.5l.1 4.2v4.2l.1 3.9v5.8l.1-1.4V86.1l.1-1.4v5.8l.1 3.9v8.3l.1 4.3v8.4l.1 4.2v3.8l.1 3.5v2.4-1.5l.1-20.9V84.4l.1 2.3v7.4l.1 4.1v8.5l.1 4.2v8.4l.1 3.8v5.9l.1-1.5v-42l.1-1.4v2.3l.1 3.5v8l.1 4.2v8.5l.1 4.2v8l.1 3.5v2.3-1.4l.1-20.9V83.8l.1 2.3v7.4l.1 4.1v8.5l.1 4.2v8.3l.1 3.9v5.8l.1-1.4v-42l.1-1.4v5.8l.1 3.9v8.3l.1 4.3v8.4l.1 4.1v7.4l.1 2.3v-22.4l.1-21v-1.4 2.3l.1 3.5v8l.1 4.2v8.5l.1 4.2v8l.1 3.5v2.3-1.4l.1-21V82.9l.1 2.3v7.4l.1 4.1v8.5l.1 4.2v8.3l.1 3.9v5.8l.1-1.4V84l.1-1.4v5.8l.1 3.9v8.3l.1 4.2v8.5l.1 4.1v7.4l.1 2.3v-22.4l.1-21v-1.4 2.3l.1 3.5v8l.1 4.2V113l.1 4.1v7.4l.1 2.3v-22.4l.1-21V82v2.3l.1 3.5v8l.1 4.2v8.5l.1 4.2v8l.1 3.5v2.3-1.4l.1-21V81.7 84l.1 3.5v8l.1 4.2v8.5l.1 4.2v8l.1 3.5v2.3-1.4l.1-21V81.4v2.3l.1 3.5v8l.1 4.2v8.5l.1 4.2v8l.1 3.5v2.3-1.4l.1-21V81.1v2.3l.1 3.5v8l.1 4.2v8.5l.1 4.2v8l.1 3.5v2.3-22.4l.1-21v-1.5 2.4l.1 3.5v8l.1 4.2v8.5l.1 4.2V123l.1 2.3v-22.4l.1-21v-1.5 2.4l.1 3.4v12.3l.1 4.2v8.5l.1 4.1v7.4l.1 2.3V81.6l.1-1.5v5.8l.1 3.9v8.4l.1 4.2V115l.1 3.9v5.8l.1-1.4v-42l.1-1.5v9.7l.1 4.1v8.5l.1 4.3v8.3l.1 3.9v5.8-1.4l.1-21V79.5l.1 2.4v11.4l.1 4.3v8.5l.1 4.2v8l.1 3.5v2.3-22.4l.1-21v-1.5 2.4l.1 3.4v12.3l.1 4.2v8.5l.1 4.1v9.7l.1-1.4v-42l.1-1.5v9.7l.1 4.1v8.5l.1 4.3v12.2l.1 3.4v2.4-1.4l.1-21V78.6 81l.1 3.4v8l.1 4.3v12.7l.1 4.1v7.3l.1 2.4V79.7l.1-1.4v5.8l.1 3.9v12.6l.1 4.3v8.3l.1 3.9v5.8-1.4l.1-21V78l.1 2.4v11.4l.1 4.2v12.8l.1 4.1v7.3l.1 2.4V79.1l.1-1.4v5.8l.1 3.9V100l.1 4.3v12.2l.1 3.4v2.4-1.4l.1-21V77.4v2.4l.1 3.4v12.2l.1 4.3v8.5l.1 4.1v9.7l.1-1.4V77.1l.1 2.4v7.3l.1 4.1v12.8l.1 4.2v11.4l.1 2.4V99.3l.1-21.1v-1.4 5.8l.1 3.9v12.6l.1 4.3v8.3l.1 3.9v5.8-1.4l.1-21V76.5v2.4l.1 3.4v12.2l.1 4.3v8.5l.1 4.1v9.7l.1-1.4V76.2l.1 2.4V90l.1 4.2V107l.1 4.1v7.3l.1 2.4V77.3l.1-1.4v9.7l.1 4.1v12.8l.1 4.2v11.4l.1 2.4V98.1l.1-21.1v-1.4 5.8l.1 3.9v12.6l.1 4.3v12.2l.1 3.4v2.4-22.5l.1-21v-1.4 5.8l.1 3.9v12.6l.1 4.2v12.3l.1 3.4v2.4-1.4l.1-21.1V75v2.4l.1 3.4V93l.1 4.3v12.6l.1 3.9v5.8-1.4l.1-21.1v-21"/></g><path stroke="#d1d5db" d="M34 221v155m0-77.5h358"/><text x="213" y="402" fill="#6b7280" font-size="9" text-anchor="middle">Hz</text><text x="12" y="298.5" fill="#6b7280" font-size="9" text-anchor="middle" transform="rotate(-90 12 298.5)">Delay (smp)</text><path stroke="#e5e7eb" stroke-width=".5" d="M66.6 221v155m19.1-155v155m13.6-155v155m10.5-155v155m8.6-155v155m7.3-155v155m6.2-155v155m5.6-155v155m37.6-155v155m19.1-155v155m13.5-155v155m10.6-155v155m8.5-155v155m7.3-155v155m6.3-155v155m5.5-155v155m37.6-155v155m19.1-155v155m13.6-155v155m10.5-155v155m8.6-155v155m7.3-155v155m6.2-155v155m5.6-155v155M392 221v155M142.5 221v155"/><text x="142.5" y="388" fill="#6b7280" font-size="8" text-anchor="middle">100</text><path stroke="#e5e7eb" stroke-width=".5" d="M250.9 221v155"/><text x="250.9" y="388" fill="#6b7280" font-size="8" text-anchor="middle">1k</text><path stroke="#e5e7eb" stroke-width=".5" d="M359.4 221v155"/><text x="359.4" y="388" fill="#6b7280" font-size="8" text-anchor="middle">10k</text><path stroke="#e5e7eb" stroke-width=".5" d="M34 376h358"/><text x="30" y="379" fill="#6b7280" font-size="8" text-anchor="end">-100</text><path stroke="#e5e7eb" stroke-width=".5" d="M34 337.3h358"/><text x="30" y="340.3" fill="#6b7280" font-size="8" text-anchor="end">-50</text><text x="30" y="301.5" fill="#6b7280" font-size="8" text-anchor="end">0</text><path stroke="#e5e7eb" stroke-width=".5" d="M34 259.8h358"/><text x="30" y="262.8" fill="#6b7280" font-size="8" text-anchor="end">50</text><path stroke="#e5e7eb" stroke-width=".5" d="M34 221h358"/><text x="30" y="224" fill="#6b7280" font-size="8" text-anchor="end">100</text><g clip-path="url(#f)"><path fill="url(#g)" d="M37.5 298.5V221h117l3.8 13.1 3.5 41.1 3.2 23.3h8.6l2.6-55.7 2.4-18.4 2.3-3.4h11.8l1.7 1.3 1.7 14.7 1.6 45 1.5 16.5h3l1.4-2.1 1.3-55.5 1.4-17 1.3-2.9h7l1.1 1.7 1.1 15.1 1 46.5 1 14.2h2l.9-4.7 1-53.5.9-16.6.9-2.7h5l.8 1.9.8 15.2.8 47.3.7 13.1h1.5l.7-6 .7-52.5.7-16.4.7-2.6h3.9l.7 2 .6 15.3.6 47.8.6 12.4h1.2l.5-6.7.6-52 .6-16.2.5-2.6h3.2l.6 2 .5 15.4.5 48.1.5 12h.9l.5-7.2.5-51.6.5-16.2.4-2.5h2.8l.4 2.1.4 15.4.5 48.4.4 11.6h.8l.5-7.6.4-51.3.4-16.1.4-2.5h2.3l.4 2.1.4 15.5.4 48.5.3 11.4h.8l.3-7.8.4-51.2.4-16 .3-2.5h2.1l.3 2.1.4 15.6.3 48.6.3 11.2h.7l.3-8.1.3-50.9.3-16 .4-2.5h1.8l.3 2.2.3 15.5.3 48.8.3 11h.6l.3-8.2.3-50.9.3-16 .3-2.4h1.6l.3 2.2.3 15.5.3 48.9.2 10.9h.6l.2-8.3.3-50.8.3-16 .2-2.4h1.6l.2 2.2.3 15.6.2 48.9.3 10.8h.4l.3-8.5.2-50.6.3-16 .2-2.4h1.4l.3 2.2.2 15.6.2 49 .2 10.7h.5l.2-8.5.2-50.6.3-16 .2-2.4h1.3l.2 2.2.2 15.6.2 49.1.3 10.6h.4l.2-8.6.2-50.6.2-15.9.2-2.4h1.2l.2 2.2.2 15.6.2 49.1.2 10.6h.4l.2-8.7.2-50.5.2-15.9.2-2.4h1.1l.2 2.2.2 15.6.2 49.2.2 10.5h.3l.2-8.8.2-50.4.2-15.9.2-2.4h1l.2 2.2.2 15.7.2 49.1.1 10.5h.4l.2-8.8.1-50.4.2-15.9.2-2.4h1l.1 2.2.2 15.7.2 49.2.1 10.4h.4l.1-8.9.2-50.3.2-15.9.1-2.4h1l.1 2.2.2 15.7.1 49.2.2 10.4h.3l.2-8.9.1-50.3.2-15.9.1-2.4h.9l.2 2.2.1 15.7.2 49.3.1 10.3h.3l.2-8.9.1-50.3.2-15.9.1-2.4h.9l.1 2.2.1 15.7.2 49.3.1 10.3h.3l.1-9 .2-50.3.1-15.8.2-2.4h.8l.1 2.2.2 15.7.1 49.3.1 10.3h.3l.1-9 .2-50.3.1-15.8.1-2.4h.8l.1 2.2.2 15.7.1 49.4.1 10.2h.3l.1-9 .1-50.3.2-15.8.1-2.4h.7l.2 2.2.1 15.7.1 49.4.1 10.2h.3l.1-9.1.1-50.2.1-15.8.2-2.4h.7l.1 2.2.1 15.7.1 49.4.2 10.2h.2l.1-9.1.1-50.2.1-15.8.2-2.4h.7l.1 2.3.1 15.6.1 49.4.1 10.2h.2l.1-9.1.2-50.2.1-15.8.1-2.4h.7l.1 2.3.1 15.6.1 49.5.1 10.1h.2l.1-9.1.1-50.2.1-15.8.1-2.4h.7l.1 2.3.1 15.6.1 49.5.1 10.1h.2l.1-9.1.1-50.2.1-15.8.1-2.4h.7l.1 2.3.1 15.6.1 49.5.1 10.1h.2l.1-9.2.1-50.1.1-15.8.1-2.4h.6l.1 2.3.1 15.7.1 49.4.1 10.1h.2l.1-9.2.1-50.1.1-15.8.1-2.4h.5l.1 2.3.1 15.7.1 49.4.1 10.1h.2l.1-9.2.1-50.1.1-15.8.1-2.4h.5l.1 2.3.1 15.7.1 49.4.1 10.1h.2l.1-9.2.1-50.1.1-15.9.1-2.3h.5l.1 2.3.1 15.7.1 49.5.1 10h.1l.1-9.2.1-50.1.1-15.9.1-2.3h.5l.1 2.3.1 15.7.1 49.5.1 10h.1l.1-9.2.1-50.1.1-15.9.1-2.3h.5l.1 2.3.1 15.7.1 49.5v10h.2l.1-9.3.1-50 .1-15.9V221h.5l.1 2.3.1 15.7.1 49.5.1 10h.1l.1-9.3.1-50 .1-15.9.1-2.3h.4l.1 2.3.1 15.7.1 49.5.1 10h.1l.1-9.3.1-50 .1-15.9V221h.5l.1 2.3.1 15.7v49.5l.1 10h.2l.1-9.3v-50l.1-15.9.1-2.3h.4l.1 2.3.1 15.7.1 49.5v10h.2l.1-9.3v-50l.1-15.9.1-2.3h.4l.1 2.3.1 15.7.1 49.5v10h.2l.1-9.3v-50l.1-15.9.1-2.3h.4l.1 2.3.1 15.7v49.5l.1 10h.1l.1-9.3.1-50 .1-15.9V221h.5v2.3l.1 15.7.1 49.6v9.9h.2v-9.3l.1-50 .1-15.9.1-2.3h.4v2.3l.1 15.7.1 49.6v9.9h.2l.1-9.3v-50l.1-15.9.1-2.3h.4v2.3l.1 15.7.1 49.6v9.9h.2v-9.3l.1-50 .1-15.9V221h.4l.1 2.3.1 15.7v49.6l.1 9.9h.1l.1-9.4.1-50v-15.8l.1-2.3h.4v2.3l.1 15.7.1 49.6v9.9h.2v-9.4l.1-50 .1-15.8V221h.4l.1 2.3V239l.1 49.6v9.9h.2v-9.4l.1-50 .1-15.8V221h.4l.1 2.3V239l.1 49.6v9.9h.2v-9.4l.1-50v-15.8l.1-2.3h.4v2.3l.1 15.7.1 49.6v9.9h.1l.1-9.4.1-50v-15.8l.1-2.3h.3l.1 2.3V239l.1 49.6.1 9.9h.1v-9.4l.1-50 .1-15.8V221h.4v2.3l.1 15.7v49.6l.1 9.9h.1l.1-9.4v-50l.1-15.8V221h.4v2.3l.1 15.7.1 49.6v9.9h.1l.1-9.4v-50l.1-15.8.1-2.3h.3v2.3l.1 15.7.1 49.6v9.9h.1l.1-9.4v-50l.1-15.8V221h.4v2.3l.1 15.7v49.6l.1 9.9h.1l.1-9.4v-50l.1-15.8V221h.3l.1 2.3.1 15.7v49.6l.1 9.9h.1v-9.4l.1-50v-15.8l.1-2.3h.3v2.3l.1 15.7.1 49.7v9.8h.1l.1-9.4v-50l.1-15.8V221h.3l.1 2.3V239l.1 49.7v9.8h.1l.1-9.4v-50l.1-15.8.1-2.3h.3v2.3l.1 15.7v49.7l.1 9.8h.1v-9.4l.1-50v-15.8l.1-2.3h.3v2.3l.1 15.7v49.7l.1 9.8h.1v-9.4l.1-50v-15.8l.1-2.3h.3v2.3l.1 15.7v49.7l.1 9.8h.1v-9.4l.1-50v-15.8l.1-2.3h.2l.1 2.3V239l.1 49.7v9.8h.1l.1-9.4v-50l.1-15.8V221h.3l.1 2.3V239l.1 49.7v9.8h.1V289l.1-49.9v-15.8l.1-2.3h.3v2.3l.1 15.7v49.7l.1 9.8h.1v-59.4l.1-15.8V221h.3l.1 2.3V239l.1 49.7v9.8h.1V289l.1-49.9v-15.8l.1-2.3h.3v18l.1 49.7v9.8h.1l.1-9.5v-49.9l.1-15.8V221h.3v2.3l.1 15.7v49.7l.1 9.8.1-9.5v-49.9l.1-15.8V221h.3v2.3l.1 15.7v49.7l.1 9.8h.1v-59.4l.1-15.8V221h.3v2.3l.1 15.7v49.7l.1 9.8.1-9.5v-49.9l.1-15.8V221h.3v2.3l.1 15.7v59.5h.1l.1-9.5v-49.9l.1-15.8V221h.3v18l.1 49.7v9.8h.1l.1-9.5v-65.7l.1-2.3h.2l.1 2.3V239l.1 49.7v9.8h.1V289l.1-49.9V221h.3v2.3l.1 15.7v49.7l.1 9.8.1-9.5v-49.9l.1-15.8V221h.2l.1 2.3V239l.1 49.7v9.8h.1V289l.1-49.9V221h.3v2.3l.1 15.7v59.5h.1l.1-9.5v-65.7l.1-2.3h.2l.1 2.3v65.4l.1 9.8h.1v-59.4l.1-15.8V221h.2l.1 2.3V239l.1 49.7v9.8h.1V289l.1-49.9V221h.3v18l.1 49.7v9.8h.1V289l.1-49.9V221h.3v2.3l.1 15.7v59.5h.1V289l.1-49.9v-15.8l.1-2.3h.2v2.3l.1 15.7v59.5h.1V289l.1-49.9v-15.8l.1-2.3h.2v18l.1 49.7v9.8h.1V289l.1-49.9V221h.3v18l.1 49.7v9.8h.1V289l.1-49.9V221h.2l.1 2.3V239l.1 49.8v9.7h.1v-59.4l.1-15.8V221h.2l.1 2.3v65.5l.1 9.7.1-9.5v-65.7l.1-2.3h.2v2.3l.1 15.7v59.5h.1V289l.1-49.9V221h.2l.1 2.3v65.5l.1 9.7.1-9.5v-49.9l.1-15.8V221h.2v2.3l.1 15.7v59.5h.1V289l.1-49.9V221h.2l.1 2.3v65.5l.1 9.7.1-9.5v-65.7l.1-2.3h.2v18l.1 49.8v9.7h.1v-59.4l.1-15.8V221h.2v2.3l.1 15.7v59.5h.1V289l.1-49.9V221h.2l.1 2.3v65.5l.1 9.7.1-9.5v-65.7l.1-2.3h.2v18.1l.1 49.7v9.7h.1v-59.4l.1-15.8V221h.2v18.1l.1 49.7v9.7h.1v-59.4l.1-15.8V221h.2v2.3l.1 15.8v59.4h.1v-59.4l.1-15.8V221h.2v2.3l.1 15.8v59.4h.1v-59.4l.1-15.8V221h.2v2.3l.1 15.8v59.4h.1v-59.4l.1-15.8V221h.2v2.3l.1 15.8v59.4h.1v-59.4l.1-15.8V221h.2v18.1l.1 49.7v9.7h.1v-59.4l.1-15.8V221h.2v18.1l.1 49.7v9.7l.1-9.6v-65.6l.1-2.3h.1l.1 2.3v65.5l.1 9.7.1-9.6V221h.2l.1 2.3v75.2h.1v-9.6l.1-49.8V221h.2v2.3l.1 15.8v59.4h.1v-59.4l.1-15.8V221h.2v67.8l.1 9.7.1-9.6V221h.2v2.3l.1 15.8v59.4h.1v-59.4l.1-15.8V221h.2v18.1l.1 49.7v9.7l.1-9.6v-65.6l.1-2.3h.1l.1 2.3v75.2h.1v-9.6l.1-49.8V221h.2v18.1l.1 49.7v9.7l.1-9.6v-65.6l.1-2.3h.1v2.3l.1 15.8v59.4h.1v-59.4l.1-15.8V221h.2v67.8l.1 9.7v-9.6l.1-49.8V221h.2v18.1l.1 49.7v9.7h.1v-75.2l.1-2.3h.1l.1 2.3v75.2h.1v-59.4l.1-15.8V221h.2v67.8l.1 9.7v-9.6l.1-49.8V221h.2v18.1l.1 49.7v9.7l.1-9.6V221h.2v18.1l.1 49.7v9.7h.1v-75.2l.1-2.3h.1v2.3l.1 15.8v59.4h.1v-75.2l.1-2.3h.1v2.3l.1 15.8v59.4h.1v-59.4l.1-15.8V221h.1l.1 2.3v75.2h.1z"/><path fill="url(#h)" d="M37.5 298.5h124.3L165 376h5.9l2.7-70.8 2.6-6.7h21.5l1.5 77.5h3l1.4-77.5h14.2l1 77.5h2l.9-77.5h10.2l.7 77.5h1.5l.7-77.5h7.9l.6 77.5h1.2l.5-77.5h6.5l.5 77.5h.9l.5-77.5h5.5l.4 77.5h.8l.5-77.5h4.7l.3 77.5h.8l.3-77.5h4.2l.3 77.5h.7l.3-77.5h3.7l.3 77.5h.6l.3-77.5h3.4l.2 77.5h.6l.2-77.5h3.1l.3 77.5h.4l.3-77.5h2.8l.2 77.5h.5l.2-77.5h2.6l.3 77.5h.4l.2-77.5h2.4l.2 77.5h.4l.2-77.5h2.3l.2 77.5h.3l.2-77.5h2.2l.1 77.5h.4l.2-77.5h2l.1 77.5h.4l.1-77.5h1.9l.2 77.5h.3l.2-77.5h1.8l.1 77.5h.3l.2-77.5h1.7l.1 77.5h.3l.1-77.5h1.7l.1 77.5h.3l.1-77.5h1.6l.1 77.5h.3l.1-77.5h1.5l.1 77.5h.3l.1-77.5h1.4l.2 77.5h.2l.1-77.5h1.4l.1 77.5h.2l.1-77.5h1.4l.1 77.5h.2l.1-77.5h1.3l.1 77.5h.2l.1-77.5h1.3l.1 77.5h.2l.1-77.5h1.2l.1 77.5h.2l.1-77.5h1.1l.1 77.5h.2l.1-77.5h1.1l.1 77.5h.2l.1-77.5h1.1l.1 77.5h.1l.1-77.5h1.1l.1 77.5h.1l.1-77.5h1.1V376h.2l.1-77.5h1l.1 77.5h.1l.1-77.5h1l.1 77.5h.1l.1-77.5h.9l.1 77.5h.2l.1-77.5h.9V376h.2l.1-77.5h.9V376h.2l.1-77.5h.8l.1 77.5h.1l.1-77.5h.9V376h.2v-77.5h.9V376h.2l.1-77.5h.8V376h.2v-77.5h.8l.1 77.5h.1l.1-77.5h.8V376h.2v-77.5h.8V376h.2v-77.5h.8V376h.2v-77.5h.8V376h.1l.1-77.5h.7l.1 77.5h.1v-77.5h.7l.1 77.5h.1l.1-77.5h.7V376h.1l.1-77.5h.7V376h.1l.1-77.5h.6l.1 77.5h.1l.1-77.5h.6l.1 77.5h.1v-77.5h.7V376h.1l.1-77.5h.6V376h.1l.1-77.5h.6l.1 77.5h.1v-77.5h.6l.1 77.5h.1v-77.5h.6l.1 77.5h.1v-77.5h.6V376h.1l.1-77.5h.6V376h.1v-77.5h.6l.1 77.5h.1v-77.5h.6V376h.1v-77.5h.6V376h.1l.1-77.5h.5l.1 77.5.1-77.5h.5l.1 77.5h.1v-77.5h.5l.1 77.5.1-77.5h.5V376h.1l.1-77.5h.5V376h.1l.1-77.5h.5V376h.1v-77.5h.5l.1 77.5.1-77.5h.5V376h.1v-77.5h.5V376h.1l.1-77.5h.4l.1 77.5h.1v-77.5h.5V376h.1v-77.5h.5V376h.1v-77.5h.5V376h.1v-77.5h.5V376h.1v-77.5h.5V376h.1v-77.5h.5V376h.1v-77.5h.5V376h.1v-77.5h.4l.1 77.5.1-77.5h.4V376h.1v-77.5h.4l.1 77.5.1-77.5h.4V376h.1v-77.5h.4l.1 77.5.1-77.5h.4V376h.1v-77.5h.4V376h.1v-77.5h.4l.1 77.5.1-77.5h.4V376h.1v-77.5h.4V376h.1v-77.5h.4V376h.1v-77.5h.4V376h.1v-77.5h.4V376h.1v-77.5h.4V376h.1v-77.5h.4V376h.1v-77.5h.4V376l.1-77.5h.3l.1 77.5.1-77.5h.3V376h.1v-77.5h.4V376h.1v-77.5h.3l.1 77.5.1-77.5h.3V376h.1v-77.5h.4V376l.1-77.5h.3V376h.1v-77.5h.4V376l.1-77.5h.3V376h.1v-77.5h.3l.1 77.5v-77.5h.4V376h.1v-77.5h.3V376h.1v-77.5h.3l.1 77.5v-77.5h.4V376l.1-77.5h.3V376h.1v-77.5h.3V376h.1v-77.5h.3V376h.1v-77.5h.3V376h.1v-77.5z"/><path fill="none" stroke="#22c55e" stroke-linejoin="round" stroke-width="1.5" d="m154.5 221 3.8 13.1 3.5 41.1L165 376m5.9 0 2.7-70.8 2.6-62.4 2.4-18.4 2.3-3.4m11.8 0 1.7 1.3 1.7 14.7 1.6 45 1.5 94m3 0 1.4-79.6 1.3-55.5 1.4-17 1.3-2.9m7 0 1.1 1.7 1.1 15.1 1 46.5 1 91.7m2 0 .9-82.2 1-53.5.9-16.6.9-2.7m5 0 .8 1.9.8 15.2.8 47.3.7 90.6m1.5 0 .7-83.5.7-52.5.7-16.4.7-2.6m3.9 0 .7 2 .6 15.3.6 47.8.6 89.9m1.2 0 .5-84.2.6-52 .6-16.2.5-2.6m3.2 0 .6 2 .5 15.4.5 48.1.5 89.5m.9 0 .5-84.7.5-51.6.5-16.2.4-2.5m2.8 0 .4 2.1.4 15.4.5 48.4.4 89.1m.8 0 .5-85.1.4-51.3.4-16.1.4-2.5m2.3 0 .4 2.1.4 15.5.4 48.5.3 88.9m.8 0 .3-85.3.4-51.2.4-16 .3-2.5m2.1 0 .3 2.1.4 15.6.3 48.6.3 88.7m.7 0 .3-85.6.3-50.9.3-16 .4-2.5m1.8 0 .3 2.2.3 15.5.3 48.8.3 88.5m.6 0 .3-85.7.3-50.9.3-16 .3-2.4m1.6 0 .3 2.2.3 15.5.3 48.9.2 88.4m.6 0 .2-85.8.3-50.8.3-16 .2-2.4m1.6 0 .2 2.2.3 15.6.2 48.9.3 88.3m.4 0 .3-86 .2-50.6.3-16 .2-2.4m1.4 0 .3 2.2.2 15.6.2 49 .2 88.2m.5 0 .2-86 .2-50.6.3-16 .2-2.4m1.3 0 .2 2.2.2 15.6.2 49.1.3 88.1m.4 0 .2-86.1.2-50.6.2-15.9.2-2.4m1.2 0 .2 2.2.2 15.6.2 49.1.2 88.1m.4 0 .2-86.2.2-50.5.2-15.9.2-2.4m1.1 0 .2 2.2.2 15.6.2 49.2.2 88m.3 0 .2-86.3.2-50.4.2-15.9.2-2.4m1 0 .2 2.2.2 15.7.2 49.1.1 88m.4 0 .2-86.3.1-50.4.2-15.9.2-2.4m1 0 .1 2.2.2 15.7.2 49.2.1 87.9m.4 0 .1-86.4.2-50.3.2-15.9.1-2.4m1 0 .1 2.2.2 15.7.1 49.2.2 87.9m.3 0 .2-86.4.1-50.3.2-15.9.1-2.4m.9 0 .2 2.2.1 15.7.2 49.3.1 87.8m.3 0 .2-86.4.1-50.3.2-15.9.1-2.4m.9 0 .1 2.2.1 15.7.2 49.3.1 87.8m.3 0 .1-86.5.2-50.3.1-15.8.2-2.4m.8 0 .1 2.2.2 15.7.1 49.3.1 87.8m.3 0 .1-86.5.2-50.3.1-15.8.1-2.4m.8 0 .1 2.2.2 15.7.1 49.4.1 87.7m.3 0 .1-86.5.1-50.3.2-15.8.1-2.4m.7 0 .2 2.2.1 15.7.1 49.4.1 87.7m.3 0 .1-86.6.1-50.2.1-15.8.2-2.4m.7 0 .1 2.2.1 15.7.1 49.4.2 87.7m.2 0 .1-86.6.1-50.2.1-15.8.2-2.4m.7 0 .1 2.3.1 15.6.1 49.4.1 87.7m.2 0 .1-86.6.2-50.2.1-15.8.1-2.4m.7 0 .1 2.3.1 15.6.1 49.5.1 87.6m.2 0 .1-86.6.1-50.2.1-15.8.1-2.4m.7 0 .1 2.3.1 15.6.1 49.5.1 87.6m.2 0 .1-86.6.1-50.2.1-15.8.1-2.4m.7 0 .1 2.3.1 15.6.1 49.5.1 87.6m.2 0 .1-86.7.1-50.1.1-15.8.1-2.4m.6 0 .1 2.3.1 15.7.1 49.4.1 87.6m.2 0 .1-86.7.1-50.1.1-15.8.1-2.4m.5 0 .1 2.3.1 15.7.1 49.4.1 87.6m.2 0 .1-86.7.1-50.1.1-15.8.1-2.4m.5 0 .1 2.3.1 15.7.1 49.4.1 87.6m.2 0 .1-86.7.1-50.1.1-15.9.1-2.3m.5 0 .1 2.3.1 15.7.1 49.5.1 87.5m.1 0 .1-86.7.1-50.1.1-15.9.1-2.3m.5 0 .1 2.3.1 15.7.1 49.5.1 87.5m.1 0 .1-86.7.1-50.1.1-15.9.1-2.3m.5 0 .1 2.3.1 15.7.1 49.5V376m.2 0 .1-86.8.1-50 .1-15.9V221m.5 0 .1 2.3.1 15.7.1 49.5.1 87.5m.1 0 .1-86.8.1-50 .1-15.9.1-2.3m.4 0 .1 2.3.1 15.7.1 49.5.1 87.5m.1 0 .1-86.8.1-50 .1-15.9V221m.5 0 .1 2.3.1 15.7v49.5l.1 87.5m.2 0 .1-86.8v-50l.1-15.9.1-2.3m.4 0 .1 2.3.1 15.7.1 49.5V376m.2 0 .1-86.8v-50l.1-15.9.1-2.3m.4 0 .1 2.3.1 15.7.1 49.5V376m.2 0 .1-86.8v-50l.1-15.9.1-2.3m.4 0 .1 2.3.1 15.7v49.5l.1 87.5m.1 0 .1-86.8.1-50 .1-15.9V221m.5 0v2.3l.1 15.7.1 49.6V376m.2 0v-86.8l.1-50 .1-15.9.1-2.3m.4 0v2.3l.1 15.7.1 49.6V376m.2 0 .1-86.8v-50l.1-15.9.1-2.3m.4 0v2.3l.1 15.7.1 49.6V376m.2 0v-86.8l.1-50 .1-15.9V221m.4 0 .1 2.3.1 15.7v49.6l.1 87.4m.1 0 .1-86.9.1-50v-15.8l.1-2.3m.4 0v2.3l.1 15.7.1 49.6V376m.2 0v-86.9l.1-50 .1-15.8V221m.4 0 .1 2.3V239l.1 49.6V376m.2 0v-86.9l.1-50 .1-15.8V221m.4 0 .1 2.3V239l.1 49.6V376m.2 0v-86.9l.1-50v-15.8l.1-2.3m.4 0v2.3l.1 15.7.1 49.6V376m.1 0 .1-86.9.1-50v-15.8l.1-2.3m.3 0 .1 2.3V239l.1 49.6.1 87.4m.1 0v-86.9l.1-50 .1-15.8V221m.4 0v2.3l.1 15.7v49.6l.1 87.4m.1 0 .1-86.9v-50l.1-15.8V221m.4 0v2.3l.1 15.7.1 49.6V376m.1 0 .1-86.9v-50l.1-15.8.1-2.3m.3 0v2.3l.1 15.7.1 49.6V376m.1 0 .1-86.9v-50l.1-15.8V221m.4 0v2.3l.1 15.7v49.6l.1 87.4m.1 0 .1-86.9v-50l.1-15.8V221m.3 0 .1 2.3.1 15.7v49.6l.1 87.4m.1 0v-86.9l.1-50v-15.8l.1-2.3m.3 0v2.3l.1 15.7.1 49.7V376m.1 0 .1-86.9v-50l.1-15.8V221m.3 0 .1 2.3V239l.1 49.7V376m.1 0 .1-86.9v-50l.1-15.8.1-2.3m.3 0v2.3l.1 15.7v49.7l.1 87.3m.1 0v-86.9l.1-50v-15.8l.1-2.3m.3 0v2.3l.1 15.7v49.7l.1 87.3m.1 0v-86.9l.1-50v-15.8l.1-2.3m.3 0v2.3l.1 15.7v49.7l.1 87.3m.1 0v-86.9l.1-50v-15.8l.1-2.3m.2 0 .1 2.3V239l.1 49.7V376m.1 0 .1-86.9v-50l.1-15.8V221m.3 0 .1 2.3V239l.1 49.7V376m.1 0v-87l.1-49.9v-15.8l.1-2.3m.3 0v2.3l.1 15.7v49.7l.1 87.3m.1 0V239.1l.1-15.8V221m.3 0 .1 2.3V239l.1 49.7V376m.1 0v-87l.1-49.9v-15.8l.1-2.3m.3 0v18l.1 49.7V376m.1 0 .1-87v-49.9l.1-15.8V221m.3 0v2.3l.1 15.7v49.7l.1 87.3"/><path fill="none" stroke="#22c55e" stroke-linejoin="round" stroke-width="1.5" d="m365.4 376 .1-87v-49.9l.1-15.8V221m.3 0v2.3l.1 15.7v49.7l.1 87.3m.1 0V239.1l.1-15.8V221m.3 0v2.3l.1 15.7v49.7l.1 87.3"/><path fill="none" stroke="#22c55e" stroke-linejoin="round" stroke-width="1.5" d="m366.8 376 .1-87v-49.9l.1-15.8V221m.3 0v2.3l.1 15.7v137m.1 0 .1-87v-49.9l.1-15.8V221m.3 0v18l.1 49.7V376m.1 0 .1-87v-65.7l.1-2.3m.2 0 .1 2.3V239l.1 49.7V376m.1 0v-87l.1-49.9V221m.3 0v2.3l.1 15.7v49.7l.1 87.3"/><path fill="none" stroke="#22c55e" stroke-linejoin="round" stroke-width="1.5" d="m369.5 376 .1-87v-49.9l.1-15.8V221m.2 0 .1 2.3V239l.1 49.7V376m.1 0v-87l.1-49.9V221m.3 0v2.3l.1 15.7v137m.1 0 .1-87v-65.7l.1-2.3m.2 0 .1 2.3v65.4l.1 87.3m.1 0V239.1l.1-15.8V221m.2 0 .1 2.3V239l.1 49.7V376m.1 0v-87l.1-49.9V221m.3 0v18l.1 49.7V376m.1 0v-87l.1-49.9V221m.3 0v2.3l.1 15.7v137m.1 0v-87l.1-49.9v-15.8l.1-2.3m.2 0v2.3l.1 15.7v137m.1 0v-87l.1-49.9v-15.8l.1-2.3m.2 0v18l.1 49.7V376m.1 0v-87l.1-49.9V221m.3 0v18l.1 49.7V376m.1 0v-87l.1-49.9V221m.2 0 .1 2.3V239l.1 49.8V376m.1 0V239.1l.1-15.8V221m.2 0 .1 2.3v65.5l.1 87.2"/><path fill="none" stroke="#22c55e" stroke-linejoin="round" stroke-width="1.5" d="m376.2 376 .1-87v-65.7l.1-2.3m.2 0v2.3l.1 15.7v137m.1 0v-87l.1-49.9V221m.2 0 .1 2.3v65.5l.1 87.2"/><path fill="none" stroke="#22c55e" stroke-linejoin="round" stroke-width="1.5" d="m377.3 376 .1-87v-49.9l.1-15.8V221m.2 0v2.3l.1 15.7v137m.1 0v-87l.1-49.9V221m.2 0 .1 2.3v65.5l.1 87.2"/><path fill="none" stroke="#22c55e" stroke-linejoin="round" stroke-width="1.5" d="m378.4 376 .1-87v-65.7l.1-2.3m.2 0v18l.1 49.8V376m.1 0V239.1l.1-15.8V221m.2 0v2.3l.1 15.7v137m.1 0v-87l.1-49.9V221m.2 0 .1 2.3v65.5l.1 87.2"/><path fill="none" stroke="#22c55e" stroke-linejoin="round" stroke-width="1.5" d="m380 376 .1-87v-65.7l.1-2.3m.2 0v18.1l.1 49.7V376m.1 0V239.1l.1-15.8V221m.2 0v18.1l.1 49.7V376m.1 0V239.1l.1-15.8V221m.2 0v2.3l.1 15.8V376m.1 0V239.1l.1-15.8V221m.2 0v2.3l.1 15.8V376m.1 0V239.1l.1-15.8V221m.2 0v2.3l.1 15.8V376m.1 0V239.1l.1-15.8V221m.2 0v2.3l.1 15.8V376m.1 0V239.1l.1-15.8V221m.2 0v18.1l.1 49.7V376m.1 0V239.1l.1-15.8V221m.2 0v18.1l.1 49.7V376m0 0 .1-87.1v-65.6l.1-2.3m.1 0 .1 2.3v65.5l.1 87.2"/><path fill="none" stroke="#22c55e" stroke-linejoin="round" stroke-width="1.5" d="m384.5 376 .1-87.1V221m.2 0 .1 2.3V376m.1 0v-87.1l.1-49.8V221m.2 0v2.3l.1 15.8V376m.1 0V239.1l.1-15.8V221m.2 0v67.8l.1 87.2"/><path fill="none" stroke="#22c55e" stroke-linejoin="round" stroke-width="1.5" d="m385.9 376 .1-87.1V221m.2 0v2.3l.1 15.8V376m.1 0V239.1l.1-15.8V221m.2 0v18.1l.1 49.7V376m0 0 .1-87.1v-65.6l.1-2.3m.1 0 .1 2.3V376m.1 0v-87.1l.1-49.8V221m.2 0v18.1l.1 49.7V376"/><path fill="none" stroke="#22c55e" stroke-linejoin="round" stroke-width="1.5" d="m387.7 376 .1-87.1v-65.6l.1-2.3m.1 0v2.3l.1 15.8V376m.1 0V239.1l.1-15.8V221m.2 0v67.8l.1 87.2m0 0v-87.1l.1-49.8V221m.2 0v18.1l.1 49.7V376m.1 0V223.3l.1-2.3m.1 0 .1 2.3V376m.1 0V239.1l.1-15.8V221m.2 0v67.8l.1 87.2"/><path fill="none" stroke="#22c55e" stroke-linejoin="round" stroke-width="1.5" d="M389.9 376v-87.1l.1-49.8V221m.2 0v18.1l.1 49.7V376m0 0 .1-87.1V221m.2 0v18.1l.1 49.7V376m.1 0V223.3l.1-2.3m.1 0v2.3l.1 15.8V376m.1 0V223.3l.1-2.3m.1 0v2.3l.1 15.8V376m.1 0V239.1l.1-15.8V221m.1 0 .1 2.3V376"/></g><path stroke="#d1d5db" d="M442 221v155m0-77.5h358"/><text x="621" y="402" fill="#6b7280" font-size="9" text-anchor="middle">Samples</text><text x="420" y="298.5" fill="#6b7280" font-size="9" text-anchor="middle" transform="rotate(-90 420 298.5)">Impulse</text><path stroke="#e5e7eb" stroke-width=".5" d="M442 221v155"/><text x="442" y="388" fill="#6b7280" font-size="8" text-anchor="middle">0</text><path stroke="#e5e7eb" stroke-width=".5" d="M567.9 221v155"/><text x="567.9" y="388" fill="#6b7280" font-size="8" text-anchor="middle">90</text><path stroke="#e5e7eb" stroke-width=".5" d="M693.7 221v155"/><text x="693.7" y="388" fill="#6b7280" font-size="8" text-anchor="middle">180</text><path stroke="#e5e7eb" stroke-width=".5" d="M442 363.1h358"/><text x="438" y="366.1" fill="#6b7280" font-size="8" text-anchor="end">-1</text><text x="438" y="301.5" fill="#6b7280" font-size="8" text-anchor="end">0</text><path stroke="#e5e7eb" stroke-width=".5" d="M442 233.9h358"/><text x="438" y="236.9" fill="#6b7280" font-size="8" text-anchor="end">1</text><path stroke="#e5e7eb" stroke-dasharray="3 2" stroke-width=".5" d="M442 233.9h358"/><text x="438" y="236.9" fill="#6b7280" font-size="7" text-anchor="end">+1</text><path stroke="#e5e7eb" stroke-dasharray="3 2" stroke-width=".5" d="M442 363.1h358"/><text x="438" y="366.1" fill="#6b7280" font-size="7" text-anchor="end">-1</text><g clip-path="url(#i)"><path fill="url(#j)" d="M442 298.5v-64.6h4.2l1.4.1h9.8l1.4.1h7l1.4.1h7l1.4.1h5.6l1.4.1h5.5l1.4.1h4.2l1.4.1h4.2l1.4.1h4.2l1.4.1h2.8l1.4.1h4.2l1.4.1h2.8l1.4.1h2.8l1.4.1h2.8l1.4.1h2.8l1.4.1h2.8l1.4.1h2.8l1.4.1h2.8l1.4.1h1.4l1.4.1h2.8l1.4.1h1.4l1.4.1h2.8l1.4.1h1.4l1.4.1h2.8l1.4.1h1.4l1.4.1h1.4l1.4.1h1.4l1.4.1h2.7l1.4.1h1.4l1.4.1h1.4l1.4.1h1.4l1.4.1h1.4l1.4.1h1.4l1.4.1h1.4l1.4.1h1.4l1.4.1h1.4l1.4.1h1.4l1.4.1h1.4l1.4.1h1.4l1.4.1h1.4l1.4.1h1.4l1.4.1 1.4.1h1.4l1.4.1h1.4l1.4.1h1.4l1.4.1h1.4l1.4.1 1.4.1h1.4l1.4.1h1.4l1.4.1h1.4l1.4.1 1.4.1h1.4l1.4.1h1.4l1.4.1 1.4.1h1.4l1.4.1h1.4l1.4.1 1.4.1h1.4l1.4.1 1.4.1h1.4l1.4.1h1.4l1.4.1 1.4.1h1.4l1.3.1 1.4.1h1.4l1.4.1 1.4.1h1.4l1.4.1 1.4.1h1.4l1.4.1 1.4.1h1.4l1.4.1 1.4.1h1.4l1.4.1 1.4.1h1.4l1.4.1 1.4.1h1.4l1.4.1 1.4.1h1.4l1.4.1 1.4.1 1.4.1h1.4l1.4.1 1.4.1h1.4l1.4.1 1.4.1 1.4.1h1.4l1.4.1 1.4.1h1.4l1.4.1 1.4.1 1.4.1h1.4l1.4.1 1.4.1 1.4.1h1.4l1.4.1 1.4.1 1.4.1h1.4l1.4.1 1.4.1 1.4.1h1.4l1.4.1 1.4.1 1.4.1h1.4l1.4.1 1.4.1 1.4.1h1.4l1.4.1 1.4.1 1.3.1h1.4l1.4.1 1.4.1 1.4.1 1.4.1h1.4l1.4.1 1.4.1 1.4.1 1.4.1h1.4l1.4.1 1.4.1 1.4.1 1.4.1h1.4l1.4.1 1.4.1 1.4.1 1.4.1h1.4l1.4.1 1.4.1 1.4.1 1.4.1h1.4l1.4.1 1.4.1 1.4.1 1.4.1v51.3z"/><path fill="none" stroke="#eab308" stroke-linejoin="round" stroke-width="1.2" d="M442 233.9h4.2l1.4.1h9.8l1.4.1h7l1.4.1h7l1.4.1h5.6l1.4.1h5.5l1.4.1h4.2l1.4.1h4.2l1.4.1h4.2l1.4.1h2.8l1.4.1h4.2l1.4.1h2.8l1.4.1h2.8l1.4.1h2.8l1.4.1h2.8l1.4.1h2.8l1.4.1h2.8l1.4.1h2.8l1.4.1h1.4l1.4.1h2.8l1.4.1h1.4l1.4.1h2.8l1.4.1h1.4l1.4.1h2.8l1.4.1h1.4l1.4.1h1.4l1.4.1h1.4l1.4.1h2.7l1.4.1h1.4l1.4.1h1.4l1.4.1h1.4l1.4.1h1.4l1.4.1h1.4l1.4.1h1.4l1.4.1h1.4l1.4.1h1.4l1.4.1h1.4l1.4.1h1.4l1.4.1h1.4l1.4.1h1.4l1.4.1h1.4l1.4.1 1.4.1h1.4l1.4.1h1.4l1.4.1h1.4l1.4.1h1.4l1.4.1 1.4.1h1.4l1.4.1h1.4l1.4.1h1.4l1.4.1 1.4.1h1.4l1.4.1h1.4l1.4.1 1.4.1h1.4l1.4.1h1.4l1.4.1 1.4.1h1.4l1.4.1 1.4.1h1.4l1.4.1h1.4l1.4.1 1.4.1h1.4l1.3.1 1.4.1h1.4l1.4.1 1.4.1h1.4l1.4.1 1.4.1h1.4l1.4.1 1.4.1h1.4l1.4.1 1.4.1h1.4l1.4.1 1.4.1h1.4l1.4.1 1.4.1h1.4l1.4.1 1.4.1h1.4l1.4.1 1.4.1 1.4.1h1.4l1.4.1 1.4.1h1.4l1.4.1 1.4.1 1.4.1h1.4l1.4.1 1.4.1h1.4l1.4.1 1.4.1 1.4.1h1.4l1.4.1 1.4.1 1.4.1h1.4l1.4.1 1.4.1 1.4.1h1.4l1.4.1 1.4.1 1.4.1h1.4l1.4.1 1.4.1 1.4.1h1.4l1.4.1 1.4.1 1.4.1h1.4l1.4.1 1.4.1 1.3.1h1.4l1.4.1 1.4.1 1.4.1 1.4.1h1.4l1.4.1 1.4.1 1.4.1 1.4.1h1.4l1.4.1 1.4.1 1.4.1 1.4.1h1.4l1.4.1 1.4.1 1.4.1 1.4.1h1.4l1.4.1 1.4.1 1.4.1 1.4.1h1.4l1.4.1 1.4.1 1.4.1 1.4.1"/></g></svg>