<svg xmlns="http://www.w3.org/2000/svg" viewBox="0 0 820 392" style="font-family:system-ui,-apple-system,sans-serif">
  <text x="800" y="11" text-anchor="end" font-size="11" font-weight="600" fill="#6b7280">Polyphase component 0 of 4</text>
  <line x1="34" y1="16" x2="34" y2="171" stroke="#d1d5db"/>
  <line x1="34" y1="47.0" x2="392" y2="47.0" stroke="#d1d5db"/>
  <text x="213" y="197" text-anchor="middle" font-size="9" fill="#6b7280">Hz</text>
  <text x="12" y="93.5" text-anchor="middle" font-size="9" fill="#6b7280" transform="rotate(-90 12 93.5)">dB</text>
  <line x1="66.6" y1="16" x2="66.6" y2="171" stroke="#e5e7eb" stroke-width="0.5"/>
  <line x1="85.7" y1="16" x2="85.7" y2="171" stroke="#e5e7eb" stroke-width="0.5"/>
  <line x1="99.3" y1="16" x2="99.3" y2="171" stroke="#e5e7eb" stroke-width="0.5"/>
  <line x1="109.8" y1="16" x2="109.8" y2="171" stroke="#e5e7eb" stroke-width="0.5"/>
  <line x1="118.4" y1="16" x2="118.4" y2="171" stroke="#e5e7eb" stroke-width="0.5"/>
  <line x1="125.7" y1="16" x2="125.7" y2="171" stroke="#e5e7eb" stroke-width="0.5"/>
  <line x1="131.9" y1="16" x2="131.9" y2="171" stroke="#e5e7eb" stroke-width="0.5"/>
  <line x1="137.5" y1="16" x2="137.5" y2="171" stroke="#e5e7eb" stroke-width="0.5"/>
  <line x1="175.1" y1="16" x2="175.1" y2="171" stroke="#e5e7eb" stroke-width="0.5"/>
  <line x1="194.2" y1="16" x2="194.2" y2="171" stroke="#e5e7eb" stroke-width="0.5"/>
  <line x1="207.7" y1="16" x2="207.7" y2="171" stroke="#e5e7eb" stroke-width="0.5"/>
  <line x1="218.3" y1="16" x2="218.3" y2="171" stroke="#e5e7eb" stroke-width="0.5"/>
  <line x1="226.8" y1="16" x2="226.8" y2="171" stroke="#e5e7eb" stroke-width="0.5"/>
  <line x1="234.1" y1="16" x2="234.1" y2="171" stroke="#e5e7eb" stroke-width="0.5"/>
  <line x1="240.4" y1="16" x2="240.4" y2="171" stroke="#e5e7eb" stroke-width="0.5"/>
  <line x1="245.9" y1="16" x2="245.9" y2="171" stroke="#e5e7eb" stroke-width="0.5"/>
  <line x1="283.5" y1="16" x2="283.5" y2="171" stroke="#e5e7eb" stroke-width="0.5"/>
  <line x1="302.6" y1="16" x2="302.6" y2="171" stroke="#e5e7eb" stroke-width="0.5"/>
  <line x1="316.2" y1="16" x2="316.2" y2="171" stroke="#e5e7eb" stroke-width="0.5"/>
  <line x1="326.7" y1="16" x2="326.7" y2="171" stroke="#e5e7eb" stroke-width="0.5"/>
  <line x1="335.3" y1="16" x2="335.3" y2="171" stroke="#e5e7eb" stroke-width="0.5"/>
  <line x1="342.6" y1="16" x2="342.6" y2="171" stroke="#e5e7eb" stroke-width="0.5"/>
  <line x1="348.8" y1="16" x2="348.8" y2="171" stroke="#e5e7eb" stroke-width="0.5"/>
  <line x1="354.4" y1="16" x2="354.4" y2="171" stroke="#e5e7eb" stroke-width="0.5"/>
  <line x1="392.0" y1="16" x2="392.0" y2="171" stroke="#e5e7eb" stroke-width="0.5"/>
  <line x1="34.0" y1="16" x2="34.0" y2="171" stroke="#e5e7eb" stroke-width="0.5"/>
  <text x="34.0" y="183" text-anchor="middle" font-size="8" fill="#6b7280">10</text>
  <line x1="142.5" y1="16" x2="142.5" y2="171" stroke="#e5e7eb" stroke-width="0.5"/>
  <text x="142.5" y="183" text-anchor="middle" font-size="8" fill="#6b7280">100</text>
  <line x1="250.9" y1="16" x2="250.9" y2="171" stroke="#e5e7eb" stroke-width="0.5"/>
  <text x="250.9" y="183" text-anchor="middle" font-size="8" fill="#6b7280">1k</text>
  <line x1="359.4" y1="16" x2="359.4" y2="171" stroke="#e5e7eb" stroke-width="0.5"/>
  <text x="359.4" y="183" text-anchor="middle" font-size="8" fill="#6b7280">10k</text>
  <line x1="34" y1="140.0" x2="392" y2="140.0" stroke="#e5e7eb" stroke-width="0.5"/>
  <line x1="34" y1="109.0" x2="392" y2="109.0" stroke="#e5e7eb" stroke-width="0.5"/>
  <line x1="34" y1="78.0" x2="392" y2="78.0" stroke="#e5e7eb" stroke-width="0.5"/>
  <line x1="34" y1="16.0" x2="392" y2="16.0" stroke="#e5e7eb" stroke-width="0.5"/>
  <text x="30" y="143.0" text-anchor="end" font-size="8" fill="#6b7280">-60</text>
  <text x="30" y="112.0" text-anchor="end" font-size="8" fill="#6b7280">-40</text>
  <text x="30" y="81.0" text-anchor="end" font-size="8" fill="#6b7280">-20</text>
  <text x="30" y="50.0" text-anchor="end" font-size="8" fill="#6b7280">0</text>
  <text x="30" y="19.0" text-anchor="end" font-size="8" fill="#6b7280">20</text>
  <line x1="442" y1="16" x2="442" y2="171" stroke="#d1d5db"/>
  <line x1="442" y1="93.5" x2="800" y2="93.5" stroke="#d1d5db"/>
  <text x="621" y="197" text-anchor="middle" font-size="9" fill="#6b7280">Hz</text>
  <text x="420" y="93.5" text-anchor="middle" font-size="9" fill="#6b7280" transform="rotate(-90 420 93.5)">Phase (deg)</text>
  <line x1="474.6" y1="16" x2="474.6" y2="171" stroke="#e5e7eb" stroke-width="0.5"/>
  <line x1="493.7" y1="16" x2="493.7" y2="171" stroke="#e5e7eb" stroke-width="0.5"/>
  <line x1="507.3" y1="16" x2="507.3" y2="171" stroke="#e5e7eb" stroke-width="0.5"/>
  <line x1="517.8" y1="16" x2="517.8" y2="171" stroke="#e5e7eb" stroke-width="0.5"/>
  <line x1="526.4" y1="16" x2="526.4" y2="171" stroke="#e5e7eb" stroke-width="0.5"/>
  <line x1="533.7" y1="16" x2="533.7" y2="171" stroke="#e5e7eb" stroke-width="0.5"/>
  <line x1="539.9" y1="16" x2="539.9" y2="171" stroke="#e5e7eb" stroke-width="0.5"/>
  <line x1="545.5" y1="16" x2="545.5" y2="171" stroke="#e5e7eb" stroke-width="0.5"/>
  <line x1="583.1" y1="16" x2="583.1" y2="171" stroke="#e5e7eb" stroke-width="0.5"/>
  <line x1="602.2" y1="16" x2="602.2" y2="171" stroke="#e5e7eb" stroke-width="0.5"/>
  <line x1="615.7" y1="16" x2="615.7" y2="171" stroke="#e5e7eb" stroke-width="0.5"/>
  <line x1="626.3" y1="16" x2="626.3" y2="171" stroke="#e5e7eb" stroke-width="0.5"/>
  <line x1="634.8" y1="16" x2="634.8" y2="171" stroke="#e5e7eb" stroke-width="0.5"/>
  <line x1="642.1" y1="16" x2="642.1" y2="171" stroke="#e5e7eb" stroke-width="0.5"/>
  <line x1="648.4" y1="16" x2="648.4" y2="171" stroke="#e5e7eb" stroke-width="0.5"/>
  <line x1="653.9" y1="16" x2="653.9" y2="171" stroke="#e5e7eb" stroke-width="0.5"/>
  <line x1="691.5" y1="16" x2="691.5" y2="171" stroke="#e5e7eb" stroke-width="0.5"/>
  <line x1="710.6" y1="16" x2="710.6" y2="171" stroke="#e5e7eb" stroke-width="0.5"/>
  <line x1="724.2" y1="16" x2="724.2" y2="171" stroke="#e5e7eb" stroke-width="0.5"/>
  <line x1="734.7" y1="16" x2="734.7" y2="171" stroke="#e5e7eb" stroke-width="0.5"/>
  <line x1="743.3" y1="16" x2="743.3" y2="171" stroke="#e5e7eb" stroke-width="0.5"/>
  <line x1="750.6" y1="16" x2="750.6" y2="171" stroke="#e5e7eb" stroke-width="0.5"/>
  <line x1="756.8" y1="16" x2="756.8" y2="171" stroke="#e5e7eb" stroke-width="0.5"/>
  <line x1="762.4" y1="16" x2="762.4" y2="171" stroke="#e5e7eb" stroke-width="0.5"/>
  <line x1="800.0" y1="16" x2="800.0" y2="171" stroke="#e5e7eb" stroke-width="0.5"/>
  <line x1="442.0" y1="16" x2="442.0" y2="171" stroke="#e5e7eb" stroke-width="0.5"/>
  <text x="442.0" y="183" text-anchor="middle" font-size="8" fill="#6b7280">10</text>
  <line x1="550.5" y1="16" x2="550.5" y2="171" stroke="#e5e7eb" stroke-width="0.5"/>
  <text x="550.5" y="183" text-anchor="middle" font-size="8" fill="#6b7280">100</text>
  <line x1="658.9" y1="16" x2="658.9" y2="171" stroke="#e5e7eb" stroke-width="0.5"/>
  <text x="658.9" y="183" text-anchor="middle" font-size="8" fill="#6b7280">1k</text>
  <line x1="767.4" y1="16" x2="767.4" y2="171" stroke="#e5e7eb" stroke-width="0.5"/>
  <text x="767.4" y="183" text-anchor="middle" font-size="8" fill="#6b7280">10k</text>
  <line x1="442" y1="54.8" x2="800" y2="54.8" stroke="#e5e7eb" stroke-width="0.5"/>
  <line x1="442" y1="132.3" x2="800" y2="132.3" stroke="#e5e7eb" stroke-width="0.5"/>
  <line x1="442" y1="16.0" x2="800" y2="16.0" stroke="#e5e7eb" stroke-width="0.5"/>
  <text x="438" y="19.0" text-anchor="end" font-size="8" fill="#6b7280">180</text>
  <text x="438" y="96.5" text-anchor="end" font-size="8" fill="#6b7280">0</text>
  <line x1="442" y1="171.0" x2="800" y2="171.0" stroke="#e5e7eb" stroke-width="0.5"/>
  <text x="438" y="174.0" text-anchor="end" font-size="8" fill="#6b7280">-180</text>
  <line x1="34" y1="221" x2="34" y2="376" stroke="#d1d5db"/>
  <line x1="34" y1="298.5" x2="392" y2="298.5" stroke="#d1d5db"/>
  <text x="213" y="402" text-anchor="middle" font-size="9" fill="#6b7280">Hz</text>
  <text x="12" y="298.5" text-anchor="middle" font-size="9" fill="#6b7280" transform="rotate(-90 12 298.5)">Group delay</text>
  <line x1="66.6" y1="221" x2="66.6" y2="376" stroke="#e5e7eb" stroke-width="0.5"/>
  <line x1="85.7" y1="221" x2="85.7" y2="376" stroke="#e5e7eb" stroke-width="0.5"/>
  <line x1="99.3" y1="221" x2="99.3" y2="376" stroke="#e5e7eb" stroke-width="0.5"/>
  <line x1="109.8" y1="221" x2="109.8" y2="376" stroke="#e5e7eb" stroke-width="0.5"/>
  <line x1="118.4" y1="221" x2="118.4" y2="376" stroke="#e5e7eb" stroke-width="0.5"/>
  <line x1="125.7" y1="221" x2="125.7" y2="376" stroke="#e5e7eb" stroke-width="0.5"/>
  <line x1="131.9" y1="221" x2="131.9" y2="376" stroke="#e5e7eb" stroke-width="0.5"/>
  <line x1="137.5" y1="221" x2="137.5" y2="376" stroke="#e5e7eb" stroke-width="0.5"/>
  <line x1="175.1" y1="221" x2="175.1" y2="376" stroke="#e5e7eb" stroke-width="0.5"/>
  <line x1="194.2" y1="221" x2="194.2" y2="376" stroke="#e5e7eb" stroke-width="0.5"/>
  <line x1="207.7" y1="221" x2="207.7" y2="376" stroke="#e5e7eb" stroke-width="0.5"/>
  <line x1="218.3" y1="221" x2="218.3" y2="376" stroke="#e5e7eb" stroke-width="0.5"/>
  <line x1="226.8" y1="221" x2="226.8" y2="376" stroke="#e5e7eb" stroke-width="0.5"/>
  <line x1="234.1" y1="221" x2="234.1" y2="376" stroke="#e5e7eb" stroke-width="0.5"/>
  <line x1="240.4" y1="221" x2="240.4" y2="376" stroke="#e5e7eb" stroke-width="0.5"/>
  <line x1="245.9" y1="221" x2="245.9" y2="376" stroke="#e5e7eb" stroke-width="0.5"/>
  <line x1="283.5" y1="221" x2="283.5" y2="376" stroke="#e5e7eb" stroke-width="0.5"/>
  <line x1="302.6" y1="221" x2="302.6" y2="376" stroke="#e5e7eb" stroke-width="0.5"/>
  <line x1="316.2" y1="221" x2="316.2" y2="376" stroke="#e5e7eb" stroke-width="0.5"/>
  <line x1="326.7" y1="221" x2="326.7" y2="376" stroke="#e5e7eb" stroke-width="0.5"/>
  <line x1="335.3" y1="221" x2="335.3" y2="376" stroke="#e5e7eb" stroke-width="0.5"/>
  <line x1="342.6" y1="221" x2="342.6" y2="376" stroke="#e5e7eb" stroke-width="0.5"/>
  <line x1="348.8" y1="221" x2="348.8" y2="376" stroke="#e5e7eb" stroke-width="0.5"/>
  <line x1="354.4" y1="221" x2="354.4" y2="376" stroke="#e5e7eb" stroke-width="0.5"/>
  <line x1="392.0" y1="221" x2="392.0" y2="376" stroke="#e5e7eb" stroke-width="0.5"/>
  <line x1="142.5" y1="221" x2="142.5" y2="376" stroke="#e5e7eb" stroke-width="0.5"/>
  <text x="142.5" y="388" text-anchor="middle" font-size="8" fill="#6b7280">100</text>
  <line x1="250.9" y1="221" x2="250.9" y2="376" stroke="#e5e7eb" stroke-width="0.5"/>
  <text x="250.9" y="388" text-anchor="middle" font-size="8" fill="#6b7280">1k</text>
  <line x1="359.4" y1="221" x2="359.4" y2="376" stroke="#e5e7eb" stroke-width="0.5"/>
  <text x="359.4" y="388" text-anchor="middle" font-size="8" fill="#6b7280">10k</text>
  <line x1="34" y1="373.0" x2="392" y2="373.0" stroke="#e5e7eb" stroke-width="0.5"/>
  <text x="30" y="376.0" text-anchor="end" font-size="8" fill="#6b7280">-20</text>
  <text x="30" y="301.5" text-anchor="end" font-size="8" fill="#6b7280">0</text>
  <line x1="34" y1="224.0" x2="392" y2="224.0" stroke="#e5e7eb" stroke-width="0.5"/>
  <text x="30" y="227.0" text-anchor="end" font-size="8" fill="#6b7280">20</text>
  <line x1="442" y1="221" x2="442" y2="376" stroke="#d1d5db"/>
  <line x1="442" y1="298.5" x2="800" y2="298.5" stroke="#d1d5db"/>
  <text x="621" y="402" text-anchor="middle" font-size="9" fill="#6b7280">Samples</text>
  <text x="420" y="298.5" text-anchor="middle" font-size="9" fill="#6b7280" transform="rotate(-90 420 298.5)">Impulse</text>
  <line x1="442.0" y1="221" x2="442.0" y2="376" stroke="#e5e7eb" stroke-width="0.5"/>
  <text x="442.0" y="388" text-anchor="middle" font-size="8" fill="#6b7280">0</text>
  <line x1="576.3" y1="221" x2="576.3" y2="376" stroke="#e5e7eb" stroke-width="0.5"/>
  <text x="576.3" y="388" text-anchor="middle" font-size="8" fill="#6b7280">6</text>
  <line x1="710.5" y1="221" x2="710.5" y2="376" stroke="#e5e7eb" stroke-width="0.5"/>
  <text x="710.5" y="388" text-anchor="middle" font-size="8" fill="#6b7280">12</text>
  <line x1="442" y1="352.8" x2="800" y2="352.8" stroke="#e5e7eb" stroke-width="0.5"/>
  <text x="438" y="355.8" text-anchor="end" font-size="8" fill="#6b7280">-0.7</text>
  <text x="438" y="301.5" text-anchor="end" font-size="8" fill="#6b7280">0</text>
  <line x1="442" y1="244.3" x2="800" y2="244.3" stroke="#e5e7eb" stroke-width="0.5"/>
  <text x="438" y="247.3" text-anchor="end" font-size="8" fill="#6b7280">0.7</text>
  <polyline points="442.0,NaN 464.4,NaN 486.8,NaN 509.1,NaN 531.5,NaN 553.9,NaN 576.3,NaN 598.6,NaN 621.0,NaN 643.4,NaN 665.8,NaN 688.1,NaN 710.5,NaN 732.9,NaN 755.3,NaN 777.6,NaN" fill="none" stroke="#f39c12" stroke-width="1.2" stroke-linejoin="round"/>
</svg>
