<svg xmlns="http://www.w3.org/2000/svg" style="font-family:system-ui,-apple-system,sans-serif" viewBox="0 0 820 392"><defs><linearGradient id="b" x1="0" x2="0" y1="57" y2="171" gradientUnits="userSpaceOnUse"><stop offset="0%" stop-color="#3b82f6" stop-opacity=".15"/><stop offset="100%" stop-color="#3b82f6" stop-opacity=".01"/></linearGradient><linearGradient id="d" x1="0" x2="0" y1="16" y2="94" gradientUnits="userSpaceOnUse"><stop offset="0%" stop-color="#ef4444" stop-opacity=".15"/><stop offset="100%" stop-color="#ef4444" stop-opacity=".01"/></linearGradient><linearGradient id="e" x1="0" x2="0" y1="94" y2="171" gradientUnits="userSpaceOnUse"><stop offset="0%" stop-color="#ef4444" stop-opacity=".01"/><stop offset="100%" stop-color="#ef4444" stop-opacity=".15"/></linearGradient><linearGradient id="g" x1="0" x2="0" y1="292" y2="299" gradientUnits="userSpaceOnUse"><stop offset="0%" stop-color="#22c55e" stop-opacity=".15"/><stop offset="100%" stop-color="#22c55e" stop-opacity=".01"/></linearGradient><linearGradient id="i" x1="0" x2="0" y1="269" y2="299" gradientUnits="userSpaceOnUse"><stop offset="0%" stop-color="#eab308" stop-opacity=".15"/><stop offset="100%" stop-color="#eab308" stop-opacity=".01"/></linearGradient><linearGradient id="j" x1="0" x2="0" y1="299" y2="303" gradientUnits="userSpaceOnUse"><stop offset="0%" stop-color="#eab308" stop-opacity=".01"/><stop offset="100%" stop-color="#eab308" stop-opacity=".15"/></linearGradient><clipPath id="a"><path d="M34 16h358v155H34z"/></clipPath><clipPath id="c"><path d="M442 16h358v155H442z"/></clipPath><clipPath id="f"><path d="M34 221h358v155H34z"/></clipPath><clipPath id="h"><path d="M442 221h358v155H442z"/></clipPath></defs><text x="800" y="11" fill="#6b7280" font-size="11" font-weight="600" text-anchor="end">Polyphase component 0 of 4</text><path stroke="#d1d5db" d="M34 16v155m0-124h358"/><text x="213" y="197" fill="#6b7280" font-size="9" text-anchor="middle">Hz</text><text x="12" y="93.5" fill="#6b7280" font-size="9" text-anchor="middle" transform="rotate(-90 12 93.5)">dB</text><path stroke="#e5e7eb" stroke-width=".5" d="M66.6 16v155M85.7 16v155M99.3 16v155m10.5-155v155m8.6-155v155m7.3-155v155m6.2-155v155m5.6-155v155m37.6-155v155m19.1-155v155m13.5-155v155m10.6-155v155m8.5-155v155m7.3-155v155m6.3-155v155m5.5-155v155m37.6-155v155m19.1-155v155m13.6-155v155m10.5-155v155m8.6-155v155m7.3-155v155m6.2-155v155m5.6-155v155M392 16v155M34 16v155"/><text x="34" y="183" fill="#6b7280" font-size="8" text-anchor="middle">10</text><path stroke="#e5e7eb" stroke-width=".5" d="M142.5 16v155"/><text x="142.5" y="183" fill="#6b7280" font-size="8" text-anchor="middle">100</text><path stroke="#e5e7eb" stroke-width=".5" d="M250.9 16v155"/><text x="250.9" y="183" fill="#6b7280" font-size="8" text-anchor="middle">1k</text><path stroke="#e5e7eb" stroke-width=".5" d="M359.4 16v155"/><text x="359.4" y="183" fill="#6b7280" font-size="8" text-anchor="middle">10k</text><path stroke="#e5e7eb" stroke-width=".5" d="M34 171h358M34 140h358M34 109h358M34 78h358M34 16h358M34 62.5h358m-358-31h358"/><text x="30" y="174" fill="#6b7280" font-size="8" text-anchor="end">-80</text><text x="30" y="143" fill="#6b7280" font-size="8" text-anchor="end">-60</text><text x="30" y="112" fill="#6b7280" font-size="8" text-anchor="end">-40</text><text x="30" y="81" fill="#6b7280" font-size="8" text-anchor="end">-20</text><text x="30" y="50" fill="#6b7280" font-size="8" text-anchor="end">0</text><text x="30" y="19" fill="#6b7280" font-size="8" text-anchor="end">+20</text><g clip-path="url(#a)"><path fill="url(#b)" d="M37.5 171V58.5h147.7l2-.1h53l.6-.1h15.9l.4-.1h10.4l.3-.1h7.5l.3-.1h6.5l.2-.1h5.9l.2-.1h5.6l.2-.1h5.7l.2-.1h6.2l.1-.1h8.3l.1-.1H392V171z"/><path fill="none" stroke="#3b82f6" stroke-linejoin="round" stroke-width="1.5" d="M37.5 58.5h147.7l2-.1h53l.6-.1h15.9l.4-.1h10.4l.3-.1h7.5l.3-.1h6.5l.2-.1h5.9l.2-.1h5.6l.2-.1h5.7l.2-.1h6.2l.1-.1h8.3l.1-.1H392"/></g><path stroke="#d1d5db" d="M442 16v155m0-77.5h358"/><text x="621" y="197" fill="#6b7280" font-size="9" text-anchor="middle">Hz</text><text x="420" y="93.5" fill="#6b7280" font-size="9" text-anchor="middle" transform="rotate(-90 420 93.5)">Phase (deg)</text><path stroke="#e5e7eb" stroke-width=".5" d="M474.6 16v155m19.1-155v155m13.6-155v155m10.5-155v155m8.6-155v155m7.3-155v155m6.2-155v155m5.6-155v155m37.6-155v155m19.1-155v155m13.5-155v155m10.6-155v155m8.5-155v155m7.3-155v155m6.3-155v155m5.5-155v155m37.6-155v155m19.1-155v155m13.6-155v155m10.5-155v155m8.6-155v155m7.3-155v155m6.2-155v155m5.6-155v155M800 16v155M442 16v155"/><text x="442" y="183" fill="#6b7280" font-size="8" text-anchor="middle">10</text><path stroke="#e5e7eb" stroke-width=".5" d="M550.5 16v155"/><text x="550.5" y="183" fill="#6b7280" font-size="8" text-anchor="middle">100</text><path stroke="#e5e7eb" stroke-width=".5" d="M658.9 16v155"/><text x="658.9" y="183" fill="#6b7280" font-size="8" text-anchor="middle">1k</text><path stroke="#e5e7eb" stroke-width=".5" d="M767.4 16v155"/><text x="767.4" y="183" fill="#6b7280" font-size="8" text-anchor="middle">10k</text><path stroke="#e5e7eb" stroke-width=".5" d="M442 54.8h358m-358 77.5h358M442 16h358"/><text x="438" y="19" fill="#6b7280" font-size="8" text-anchor="end">+180</text><text x="438" y="96.5" fill="#6b7280" font-size="8" text-anchor="end">0</text><path stroke="#e5e7eb" stroke-width=".5" d="M442 171h358"/><text x="438" y="174" fill="#6b7280" font-size="8" text-anchor="end">-180</text><g clip-path="url(#c)"><path fill="url(#d)" d="M445.5 93.5h256.7l.2-77.4.2.3.2.3.2.3.2.3.2.3.2.4.2.3.2.3.2.3.2.3.2.3.2.4.2.3.2.3.1.3.2.3.2.3.2.4.2.3.2.3.2.3.2.3.1.3.2.3.2.4.2.3.2.3.1.3.2.3.2.3.2.3.2.4.1.3.2.3.2.3.2.3.1.3.2.3.2.3.2.4.1.3.2.3.2.3.1.3.2.3.2.3.1.3.2.4.2.3.1.3.2.3.2.3.1.3.2.3.2.3.1.3.2.3.2.4.1.3.2.3.1.3.2.3.2.3.1.3.2.3.1.3.2.3.1.4.2.3.1.3.2.3.2.3.1.3.2.3.1.3.2.3.1.3.2.3.1.4.2.3.1.3.2.3.1.3.2.3.1.3.2.3.1.3.2.3.1.3.2.3.1.3.1.4.2.3.1.3.2.3.1.3.2.3.1.3.1.3.2.3.1.3.2.3.1.3.1.3.2.3.1.3.2.3.1.4.1.3.2.3.1.3.1.3.2.3.1.3.2.3.1.3.1.3.2.3.1.3.1.3.2.3.1.3.1.3.2.3.1.3.1.3.1.3.2.4.1.3.1.3.2.3.1.3.1.3.1.3.2.3.1.3.1.3.2.3.1.3.1.3.1.3.2.3.1.3.1.3.1.3.2.3.1.3.1.3.1.3.2.3.1.3.1.3.1.3.1.3.2.3.1.3.1.3.1.3.1.3.2.3.1.4.1.3.1.3.1.3.2.3.1.3.1.3.1.3.1.3.1.3.2.3.1.3.1.3.1.3.1.3.1.3.2.3.1.3.1.3.1.3.1.3.1.3.1.3.1.3.2.3.1.3.1.3.1.3.1.3.1.3.1.3.1.3.2.3.1.3.1.3.1.3.1.3.1.3.1.3.1.3.1.3.1.3.1.3.1.3.2.3.1.3.1.3.1.3.1.3.1.3.1.3.1.3.1.3.1.3.1.3.1.3.1.3.1.3.1.3.1.3.1.3.1.3.1.3.2.3.1.3.1.3.1.3.1.3.1.3.1.3.1.3.1.3.1.3.1.3.1.3.1.3.1.3.1.3.1.3.1.3.1.3.1.3.1.3.1.3.1.3.1.3.1.3.1.3.1.3.1.3.1.3v.3l.1.2.1.2h20.1l.1-77.4v.3l.1.3v.3l.1.3.1.3v.3l.1.3.1.3v.3l.1.3v.3l.1.3.1.3v.3l.1.3.1.3v.3l.1.3v.3l.1.3.1.3v.3l.1.3v.3l.1.3.1.2v.3l.1.3v.3l.1.3.1.3v.3l.1.3.1.3v.3l.1.3v.3l.1.3.1.3v.3l.1.3v.3l.1.3v.3l.1.3.1.3v.3l.1.3v.3l.1.3.1.3v.3l.1.3v.3l.1.3.1.3v.3l.1.3v.3l.1.3v.3l.1.3.1.3v.3l.1.3v.3l.1.3.1.3v.3l.1.3v.3l.1.3v.3l.1.2.1.3v.3l.1.3v.3l.1.3v.3l.1.3.1.3v.3l.1.3v.3l.1.3v.3l.1.3.1.3v.3l.1.3v.3l.1.3v.3l.1.3v.3l.1.3.1.3v.3l.1.3v.3l.1.3v.3l.1.3v.3l.1.3.1.3v.3l.1.3v.3l.1.3v.3l.1.3v.3l.1.3v.3l.1.3.1.3v.3l.1.3v.3l.1.2v.3l.1.3v.3l.1.3v.3l.1.3.1.3v.3l.1.3v.3l.1.3v.3l.1.3v.3l.1.3v.3l.1.3v.3l.1.3v.3l.1.3v.3l.1.3.1.3v.3l.1.3v.3l.1.3v.3l.1.3v.3l.1.3v.3l.1.3v.3l.1.3v.3l.1.3v.3l.1.3v.3l.1.3v.3l.1.3v.3l.1.3.1.2v.3l.1.3v.3l.1.3v.3l.1.3v.3l.1.3v.3l.1.3v.3l.1.3v.3l.1.3v.3l.1.3v.3l.1.3v.3l.1.3v.3l.1.3v.3l.1.3v.3l.1.3v.3l.1.3v.3l.1.3v.3l.1.3v.3l.1.3v.3l.1.3v.3l.1.3v.3l.1.3v.3l.1.3v.3l.1.3v.3l.1.3v.3l.1.3v.2l.1.3v.6l.1.3v.3l.1.3v.3l.1.3v.3l.1.3v.3l.1.3v.3l.1.3v.3l.1.3v.3l.1.3v.3l.1.3v.3l.1.3v.3l.1.3v.3l.1.3v.6l.1.3v.3l.1.3v.3l.1.3v.3l.1.3v.3l.1.3v.3l.1.3v.3l.1.3v.2H782V16.1l.1.3v.6l.1.3v.6l.1.3v.5l.1.3v.3l.1.3v.6l.1.3v.6l.1.3v.3l.1.3v.6l.1.3v.6l.1.3v.6l.1.3v.3l.1.3v.6l.1.3v.6l.1.3v.6l.1.3v.3l.1.3v.6l.1.3v.6l.1.3v.6l.1.3v.6l.1.3v.3l.1.3v.5l.1.3v.6l.1.3v.6l.1.3v.6l.1.3v.6l.1.3v.3l.1.3v.6l.1.3v.6l.1.3v.6l.1.3v.6l.1.3v.6l.1.3v.6l.1.3v.6l.1.3v.3l.1.3v.6l.1.3v.6l.1.3v.6l.1.2v.6l.1.3v.6l.1.3v.6l.1.3v.6l.1.3v.6l.1.3v.6l.1.3v.6l.1.3v.6l.1.3v.6l.1.3v.6l.1.3v.6l.1.3v.6l.1.3v.6l.1.3v.6l.1.3v.6l.1.3v.6l.1.2v.6l.1.3v.6l.1.3v.6l.1.3v.6l.1.3v.6l.1.3v.6l.1.3v.6l.1.3v.6l.1.3v.6l.1.3v.6l.1.3v.6l.1.3v.6l.1.3v.6l.1.3v.6l.1.3v.9l.1.3v.6l.1.2v.6l.1.3v.6l.1.3v.6l.1.3v.6l.1.3v.6l.1.3v.6l.1.3v.9l.1.3v.6l.1.3v.6l.1.3v.6l.1.3v.6l.1.3v.9l.1.3v.6l.1.3v.6l.1.3v.6l.1.3v.5l.1.3v.9l.1.3v.6l.1.3v.3h7.4V16v.3l.1.3v.9l.1.3v.9l.1.3v.9l.1.3v.9l.1.3v.6l.1.3v.9l.1.3v.9l.1.3v.9l.1.3v.8l.1.3v.9l.1.3v.9l.1.3v.9l.1.3v.6l.1.3v.9l.1.3v.9l.1.3v.9l.1.3v.9l.1.3v57.2z"/><path fill="url(#e)" d="M445.5 93.5v.3l32.6.4 19.1.3 13.6.4 10.5.3 8.6.3 7.2.4 6.3.3 5.6.4 4.9.3 4.5.3 4.1.4 3.8.3 3.5.4 3.2.3 3.1.3 2.8.4 2.7.3 2.6.4 2.4.3 2.3.4 2.2.3 2.1.3 2 .4 1.9.3 1.8.4 1.8.3 1.7.3 1.7.4 1.6.3 1.5.4 1.5.3 1.5.3 1.4.4 1.3.3 1.4.4 1.3.3 1.2.3 1.2.4 1.2.3 1.2.3 1.1.4 1.1.3 1.1.4 1.1.3 1 .3 1 .4 1 .3 1 .4.9.3 1 .3.9.4.9.3.9.4.8.3.9.3.8.4.8.3.8.4.8.3.8.3.8.4.7.3.8.3.7.4.7.3.7.4.7.3.7.3.7.4.6.3.7.3.7.4.6.3.6.4.7.3.6.3.6.4.6.3.6.3.6.4.5.3.6.4.6.3.5.3.6.4.5.3.6.3.5.4.5.3.5.3.6.4.5.3.5.3.5.4.5.3.4.4.5.3.5.3.5.4.4.3.5.3.5.4.4.3.5.3.4.4.5.3.4.3.4.4.5.3.4.3.4.4.4.3.5.3.4.4.4.3.4.3.4.4.4.3.4.3.4.4.3.3.4.3.4.4.4.3.4.3.3.4.4.3.4.3.3.3.4.4.4.3.3.3.4.4.3.3.4.3.3.4.4.3.3.3.3.3.4.4.3.3.3.3.4.4.3.3.3.3.3.4.3.3.4.3.3.3.3.4.3.3.3.3.3.4.3.3.3.3.3.3.3.4.3.3.3.3.3.3.3.4.3.3.3.3.3.4.3.3.2.3.3.3.3.4.3.3.2.3.3.3.3.4.3.3.2.3.3.3.3.4.2.3.3.3.3.3.2.4.3.3.2.3.3.3.3.4.2.3.3.3.2.3.3.4.2.3.3.3.2.3.2.3.3.4.2.3.3.3.2.3.3.4.2.3.2.3.3.3.2.3.2.4.3.3.2.3.2.3.2.4.3.3.2.3.2.3.2.3.3.4.2.3.2.3.2.3.3.3.2.4.2.3.2.3.2.3.2.3.2.3.3.4.2.3.2.3.2.3.2.3.2.4.2.3.2.3.2.3.2.3.2.3.2-77.2h34.5l.1.1.1.3.1.3.1.3.1.3.1.3.1.3.1.3.1.3.1.3.1.3.1.3.1.3.1.3.1.3.1.3.1.3.1.3v.3l.1.3.1.3.1.3.1.3.1.3.1.3.1.3.1.3.1.3.1.3.1.3.1.3v.3l.1.3.1.3.1.3.1.3.1.3.1.3.1.3.1.3.1.3v.3l.1.3.1.3.1.3.1.3.1.3.1.3.1.3v.3l.1.3.1.3.1.3.1.3.1.2.1.3.1.3v.3l.1.3.1.3.1.3.1.3.1.3.1.3v.3l.1.3.1.3.1.3.1.3.1.3.1.3v.3l.1.3.1.3.1.3.1.3.1.3v.3l.1.3.1.3.1.3.1.3.1.3v.3l.1.3.1.3.1.3.1.3v.3l.1.3.1.3.1.3.1.3.1.3v.3l.1.3.1.3.1.3.1.3v.3l.1.2.1.3.1.3.1.3v.3l.1.3.1.3.1.3.1.3v.3l.1.3.1.3.1.3.1.3v.3l.1.3.1.3.1.3v.3l.1.3.1.3.1.3.1.3v.3l.1.3.1.3.1.3v.3l.1.3.1.3.1.3v.3l.1.3.1.3.1.3v.3l.1.3.1.3.1.3v.3l.1.3.1.3.1.3v.3l.1.2.1.3.1.3v.3l.1.3.1.3.1.3v.3l.1.3.1.3.1.3v.3l.1.3.1.3.1.3v.3l.1.3.1.3v.3l.1.3.1.3.1.3v.3l.1.3.1.3v.3l.1.3.1.3.1.3v.3l.1.3.1.3v.3l.1.3.1.3.1.3v.3l.1.3.1.3v.3l.1.3.1.3v.3l.1.3.1.3.1.3v.2l.1.3.1.3v.3l.1.3.1.3v.3l.1.3.1.3v.3l.1.3.1.3.1.3v.3l.1.3.1.3v.3l.1.3.1.3v.3l.1.3.1.3v.3l.1.3.1.3v.3l.1.3.1.3v.3l.1.3.1.3v.3l.1.3.1.3v.3l.1.3.1.3v.3l.1.3.1.3v.3l.1.3.1.3v.3l.1.3.1.3v.3l.1.2.1.3v.3l.1.3v.3l.1.3.1.3v.3l.1.3.1.3v.3l.1.3.1.3v.3l.1.3.1.3v.3l.1.3v.3l.1.3.1.3v.3l.1.3.1-77.3h14v.1l.1.3v.6l.1.3v.3l.1.3v.3l.1.2v.3l.1.3v.3l.1.3v.3l.1.3v.6l.1.3v.3l.1.3v.3l.1.3v.3l.1.3v.3l.1.3v.3l.1.3v.6l.1.3v.3l.1.3v.3l.1.3v.3l.1.3v.3l.1.3v.6l.1.3v.3l.1.3v.3l.1.3v.3l.1.3v.6l.1.3v.3l.1.3v.3l.1.3v.3l.1.3v.6l.1.2v.3l.1.3v.3l.1.3v.3l.1.3v.6l.1.3v.3l.1.3v.3l.1.3v.6l.1.3v.3l.1.3v.3l.1.3v.6l.1.3v.3l.1.3v.3l.1.3v.6l.1.3v.3l.1.3v.3l.1.3v.6l.1.3v.3l.1.3v.3l.1.3v.6l.1.3v.3l.1.3v.3l.1.3v.6l.1.3v.3l.1.2v.3l.1.3v.6l.1.3v.3l.1.3v.6l.1.3v.3l.1.3v.3l.1.3v.6l.1.3v.3l.1.3v.6l.1.3v.3l.1.3v.3l.1.3v.6l.1.3v.3l.1.3v.6l.1.3v.3l.1.3v.6l.1.3v.3l.1.3v.6l.1.3v.3l.1.3v.6l.1.3v.3l.1.3v.6l.1.2v.3l.1.3v.6l.1.3v.3l.1.3v.6l.1.3v.3l.1.3v.6l.1.3v.3l.1.3v.6l.1.3v.3l.1.3v.6l.1.3v.3l.1.3v.6l.1.3v.3l.1.3v.6l.1.3v.6l.1.3v.3l.1.3v.6l.1.3v.3l.1.3v.6l.1.3v.3l.1.3v.5l.1.3v.6l.1.3v.3l.1.3v.6l.1.3v.6l.1.3v.3l.1.3v.6l.1.3v.3l.1.3v.6l.1.3v.6l.1.3v.3l.1.3v.6l.1.3v.6l.1.3v.3l.1.3v.6l.1.3v.6l.1.3V93.5h8.8v.3l.1.3v.6l.1.3v.9l.1.3v.6l.1.3v.6l.1.3v.6l.1.3v.9l.1.3v.6l.1.3v.6l.1.3v.9l.1.3v.6l.1.3v.6l.1.3v.9l.1.2v.6l.1.3v.6l.1.3v.9l.1.3v.6l.1.3v.6l.1.3v.9l.1.3v.6l.1.3v.6l.1.3v.9l.1.3v.6l.1.3v.9l.1.3v.6l.1.3v.6l.1.3v.9l.1.3v.6l.1.3v.8l.1.3v.6l.1.3v.9l.1.3v.6l.1.3v.9l.1.3v.6l.1.3v.9l.1.3v.6l.1.3v.9l.1.3v.6l.1.3v.9l.1.3v.6l.1.3v.9l.1.3v.6l.1.3v.9l.1.2v.6l.1.3v.9l.1.3v.6l.1.3v.9l.1.3v.9l.1.3v.6l.1.3v.9l.1.3v.6l.1.3v.9l.1.3v.9l.1.3v.6l.1.3v.9l.1.3v.9l.1.3v.6l.1.3v.8l.1.3v.9l.1.3v.6l.1.3v.9l.1.3v.9l.1.3v.6l.1.3v.9l.1.3v.9l.1.3v.6l.1.3v.9l.1.3v.9l.1.3v.9l.1.3v.6l.1.3v.9l.1.2v.9l.1.3v.9l.1.3v.9l.1.3V93.5h1.8z"/><path fill="none" stroke="#ef4444" stroke-linejoin="round" stroke-width="1.5" d="m445.5 93.8 32.6.4 19.1.3 13.6.4 10.5.3 8.6.3 7.2.4 6.3.3 5.6.4 4.9.3 4.5.3 4.1.4 3.8.3 3.5.4 3.2.3 3.1.3 2.8.4 2.7.3 2.6.4 2.4.3 2.3.4 2.2.3 2.1.3 2 .4 1.9.3 1.8.4 1.8.3 1.7.3 1.7.4 1.6.3 1.5.4 1.5.3 1.5.3 1.4.4 1.3.3 1.4.4 1.3.3 1.2.3 1.2.4 1.2.3 1.2.3 1.1.4 1.1.3 1.1.4 1.1.3 1 .3 1 .4 1 .3 1 .4.9.3 1 .3.9.4.9.3.9.4.8.3.9.3.8.4.8.3.8.4.8.3.8.3.8.4.7.3.8.3.7.4.7.3.7.4.7.3.7.3.7.4.6.3.7.3.7.4.6.3.6.4.7.3.6.3.6.4.6.3.6.3.6.4.5.3.6.4.6.3.5.3.6.4.5.3.6.3.5.4.5.3.5.3.6.4.5.3.5.3.5.4.5.3.4.4.5.3.5.3.5.4.4.3.5.3.5.4.4.3.5.3.4.4.5.3.4.3.4.4.5.3.4.3.4.4.4.3.5.3.4.4.4.3.4.3.4.4.4.3.4.3.4.4.3.3.4.3.4.4.4.3.4.3.3.4.4.3.4.3.3.3.4.4.4.3.3.3.4.4.3.3.4.3.3.4.4.3.3.3.3.3.4.4.3.3.3.3.4.4.3.3.3.3.3.4.3.3.4.3.3.3.3.4.3.3.3.3.3.4.3.3.3.3.3.3.3.4.3.3.3.3.3.3.3.4.3.3.3.3.3.4.3.3.2.3.3.3.3.4.3.3.2.3.3.3.3.4.3.3.2.3.3.3.3.4.2.3.3.3.3.3.2.4.3.3.2.3.3.3.3.4.2.3.3.3.2.3.3.4.2.3.3.3.2.3.2.3.3.4.2.3.3.3.2.3.3.4.2.3.2.3.3.3.2.3.2.4.3.3.2.3.2.3.2.4.3.3.2.3.2.3.2.3.3.4.2.3.2.3.2.3.3.3.2.4.2.3.2.3.2.3.2.3.2.3.3.4.2.3.2.3.2.3.2.3.2.4.2.3.2.3.2.3.2.3.2.3.2-154.6.2.3.2.3.2.3.2.3.2.3.2.4.2.3.2.3.2.3.2.3.2.3.2.4.2.3.2.3.1.3.2.3.2.3.2.4.2.3.2.3.2.3.2.3.1.3.2.3.2.4.2.3.2.3.1.3.2.3.2.3.2.3.2.4.1.3.2.3.2.3.2.3.1.3.2.3.2.3.2.4.1.3.2.3.2.3.1.3.2.3.2.3.1.3.2.4.2.3.1.3.2.3.2.3.1.3.2.3.2.3.1.3.2.3.2.4.1.3.2.3.1.3.2.3.2.3.1.3.2.3.1.3.2.3.1.4.2.3.1.3.2.3.2.3.1.3.2.3.1.3.2.3.1.3.2.3.1.4.2.3.1.3.2.3.1.3.2.3.1.3.2.3.1.3.2.3.1.3.2.3.1.3.1.4.2.3.1.3.2.3.1.3.2.3.1.3.1.3.2.3.1.3.2.3.1.3.1.3.2.3.1.3.2.3.1.4.1.3.2.3.1.3.1.3.2.3.1.3.2.3.1.3.1.3.2.3.1.3.1.3.2.3.1.3.1.3.2.3.1.3.1.3.1.3.2.4.1.3.1.3.2.3.1.3.1.3.1.3.2.3.1.3.1.3.2.3.1.3.1.3.1.3.2.3.1.3.1.3.1.3.2.3.1.3.1.3.1.3.2.3.1.3.1.3.1.3.1.3.2.3.1.3.1.3.1.3.1.3.2.3.1.4.1.3.1.3.1.3.2.3.1.3.1.3.1.3.1.3.1.3.2.3.1.3.1.3.1.3.1.3.1.3.2.3.1.3.1.3.1.3.1.3.1.3.1.3.1.3.2.3.1.3.1.3.1.3.1.3.1.3.1.3.1.3.2.3.1.3.1.3.1.3.1.3.1.3.1.3.1.3.1.3.1.3.1.3.1.3.2.3.1.3.1.3.1.3.1.3.1.3.1.3.1.3.1.3.1.3.1.3.1.3.1.3.1.3.1.3.1.3.1.3.1.3.1.3.2.3.1.3.1.3.1.3.1.3.1.3.1.3.1.3.1.3.1.3.1.3.1.3.1.3.1.3.1.3.1.3.1.3.1.3.1.3.1.3.1.3.1.3.1.3.1.3.1.3.1.3.1.3.1.3v.3l.1.2.1.3.1.3.1.3.1.3.1.3.1.3.1.3.1.3.1.3.1.3.1.3.1.3.1.3.1.3.1.3.1.3.1.3.1.3v.3l.1.3.1.3.1.3.1.3.1.3.1.3.1.3.1.3.1.3.1.3.1.3.1.3v.3l.1.3.1.3.1.3.1.3.1.3.1.3.1.3.1.3.1.3v.3l.1.3.1.3.1.3.1.3.1.3.1.3.1.3v.3l.1.3.1.3.1.3.1.3.1.2.1.3.1.3v.3l.1.3.1.3.1.3.1.3.1.3.1.3v.3l.1.3.1.3.1.3.1.3.1.3.1.3v.3l.1.3.1.3.1.3.1.3.1.3v.3l.1.3.1.3.1.3.1.3.1.3v.3l.1.3.1.3.1.3.1.3v.3l.1.3.1.3.1.3.1.3.1.3v.3l.1.3.1.3.1.3.1.3v.3l.1.2.1.3.1.3.1.3v.3l.1.3.1.3.1.3.1.3v.3l.1.3.1.3.1.3.1.3v.3l.1.3.1.3.1.3v.3l.1.3.1.3.1.3.1.3v.3l.1.3.1.3.1.3v.3l.1.3.1.3.1.3v.3l.1.3.1.3.1.3v.3l.1.3.1.3.1.3v.3l.1.3.1.3.1.3v.3l.1.2.1.3.1.3v.3l.1.3.1.3.1.3v.3l.1.3.1.3.1.3v.3l.1.3.1.3.1.3v.3l.1.3.1.3v.3l.1.3.1.3.1.3v.3l.1.3.1.3v.3l.1.3.1.3.1.3v.3l.1.3.1.3v.3l.1.3.1.3.1.3v.3l.1.3.1.3v.3l.1.3.1.3v.3l.1.3.1.3.1.3v.2l.1.3.1.3v.3l.1.3.1.3v.3l.1.3.1.3v.3l.1.3.1.3.1.3v.3l.1.3.1.3v.3l.1.3.1.3v.3l.1.3.1.3v.3l.1.3.1.3v.3l.1.3.1.3v.3l.1.3.1.3v.3l.1.3.1.3v.3l.1.3.1.3v.3l.1.3.1.3v.3l.1.3.1.3v.3l.1.3.1.3v.3l.1.2.1.3v.3l.1.3v.3l.1.3.1.3v.3l.1.3.1.3v.3l.1.3.1.3v.3l.1.3.1.3v.3l.1.3v.3l.1.3.1.3v.3l.1.3.1-154.7v.3l.1.3v.3l.1.3.1.3v.3l.1.3.1.3v.3l.1.3v.3l.1.3.1.3v.3l.1.3.1.3v.3l.1.3v.3l.1.3.1.3v.3l.1.3v.3l.1.3.1.2v.3l.1.3v.3l.1.3.1.3v.3l.1.3.1.3v.3l.1.3v.3l.1.3.1.3v.3l.1.3v.3l.1.3v.3l.1.3.1.3v.3l.1.3v.3l.1.3.1.3v.3l.1.3v.3l.1.3.1.3v.3l.1.3v.3l.1.3v.3l.1.3.1.3v.3l.1.3v.3l.1.3.1.3v.3l.1.3v.3l.1.3v.3l.1.2.1.3v.3l.1.3v.3l.1.3v.3l.1.3.1.3v.3l.1.3v.3l.1.3v.3l.1.3.1.3v.3l.1.3v.3l.1.3v.3l.1.3v.3l.1.3.1.3v.3l.1.3v.3l.1.3v.3l.1.3v.3l.1.3.1.3v.3l.1.3v.3l.1.3v.3l.1.3v.3l.1.3v.3l.1.3.1.3v.3l.1.3v.3l.1.2v.3l.1.3v.3l.1.3v.3l.1.3.1.3v.3l.1.3v.3l.1.3v.3l.1.3v.3l.1.3v.3l.1.3v.3l.1.3v.3l.1.3v.3l.1.3.1.3v.3l.1.3v.3l.1.3v.3l.1.3v.3l.1.3v.3l.1.3v.3l.1.3v.3l.1.3v.3l.1.3v.3l.1.3v.3l.1.3v.3l.1.3.1.2v.3l.1.3v.3l.1.3v.3l.1.3v.3l.1.3v.3l.1.3v.3l.1.3v.3l.1.3v.3l.1.3v.3l.1.3v.3l.1.3v.3l.1.3v.3l.1.3v.3l.1.3v.3l.1.3v.3l.1.3v.3l.1.3v.3l.1.3v.3l.1.3v.3l.1.3v.3l.1.3v.3l.1.3v.3l.1.3v.3l.1.3v.3l.1.3v.2l.1.3v.6l.1.3v.3l.1.3v.3l.1.3v.3l.1.3v.3l.1.3v.3l.1.3v.3l.1.3v.3l.1.3v.3l.1.3v.3l.1.3v.3l.1.3v.3l.1.3v.6l.1.3v.3l.1.3v.3l.1.3v.3l.1.3v.3l.1.3v.3l.1.3v.3l.1.3v.3l.1.3v.6l.1.3v.3l.1.3v.3l.1.2v.3l.1.3v.3l.1.3v.3l.1.3v.6l.1.3v.3l.1.3v.3l.1.3v.3l.1.3v.3l.1.3v.3l.1.3v.6l.1.3v.3l.1.3v.3l.1.3v.3l.1.3v.3l.1.3v.6l.1.3v.3l.1.3v.3l.1.3v.3l.1.3v.6l.1.3v.3l.1.3v.3l.1.3v.3l.1.3v.6l.1.2v.3l.1.3v.3l.1.3v.3l.1.3v.6l.1.3v.3l.1.3v.3l.1.3v.6l.1.3v.3l.1.3v.3l.1.3v.6l.1.3v.3l.1.3v.3l.1.3v.6l.1.3v.3l.1.3v.3l.1.3v.6l.1.3v.3l.1.3v.3l.1.3v.6l.1.3v.3l.1.3v.3l.1.3v.6l.1.3v.3l.1.2v.3l.1.3v.6l.1.3v.3l.1.3v.6l.1.3v.3l.1.3v.3l.1.3v.6l.1.3v.3l.1.3v.6l.1.3v.3l.1.3v.3l.1.3v.6l.1.3v.3l.1.3v.6l.1.3v.3l.1.3v.6l.1.3v.3l.1.3v.6l.1.3v.3l.1.3v.6l.1.3v.3l.1.3v.6l.1.2v.3l.1.3v.6l.1.3v.3l.1.3v.6l.1.3v.3l.1.3v.6l.1.3v.3l.1.3v.6l.1.3v.3l.1.3v.6l.1.3v.3l.1.3v.6l.1.3v.3l.1.3v.6l.1.3v.6l.1.3v.3l.1.3v.6l.1.3v.3l.1.3v.6l.1.3v.3l.1.3v.5l.1.3v.6l.1.3v.3l.1.3v.6l.1.3v.6l.1.3v.3l.1.3v.6l.1.3v.3l.1.3v.6l.1.3v.6l.1.3v.3l.1.3v.6l.1.3v.6l.1.3v.3l.1.3v.6l.1.3v.6l.1.3V16.1l.1.3v.6l.1.3v.6l.1.3v.5l.1.3v.3l.1.3v.6l.1.3v.6l.1.3v.3l.1.3v.6l.1.3v.6l.1.3v.6l.1.3v.3l.1.3v.6l.1.3v.6l.1.3v.6l.1.3v.3l.1.3v.6l.1.3v.6l.1.3v.6l.1.3v.6l.1.3v.3l.1.3v.5l.1.3v.6l.1.3v.6l.1.3v.6l.1.3v.6l.1.3v.3l.1.3v.6l.1.3v.6l.1.3v.6l.1.3v.6l.1.3v.6l.1.3v.6l.1.3v.6l.1.3v.3l.1.3v.6l.1.3v.6l.1.3v.6l.1.2v.6l.1.3v.6l.1.3v.6l.1.3v.6l.1.3v.6l.1.3v.6l.1.3v.6l.1.3v.6l.1.3v.6l.1.3v.6l.1.3v.6l.1.3v.6l.1.3v.6l.1.3v.6l.1.3v.6l.1.3v.6l.1.2v.6l.1.3v.6l.1.3v.6l.1.3v.6l.1.3v.6l.1.3v.6l.1.3v.6l.1.3v.6l.1.3v.6l.1.3v.6l.1.3v.6l.1.3v.6l.1.3v.6l.1.3v.6l.1.3v.9l.1.3v.6l.1.2v.6l.1.3v.6l.1.3v.6l.1.3v.6l.1.3v.6l.1.3v.6l.1.3v.9l.1.3v.6l.1.3v.6l.1.3v.6l.1.3v.6l.1.3v.9l.1.3v.6l.1.3v.6l.1.3v.6l.1.3v.5l.1.3v.9l.1.3v.6l.1.3v.6l.1.3v.6l.1.3v.9l.1.3v.6l.1.3v.6l.1.3v.6l.1.3v.9l.1.3v.6l.1.3v.6l.1.3v.9l.1.3v.6l.1.3v.6l.1.3v.9l.1.2v.6l.1.3v.6l.1.3v.9l.1.3v.6l.1.3v.6l.1.3v.9l.1.3v.6l.1.3v.6l.1.3v.9l.1.3v.6l.1.3v.9l.1.3v.6l.1.3v.6l.1.3v.9l.1.3v.6l.1.3v.8l.1.3v.6l.1.3v.9l.1.3v.6l.1.3v.9l.1.3v.6l.1.3v.9l.1.3v.6l.1.3v.9l.1.3v.6l.1.3v.9l.1.3v.6l.1.3v.9l.1.3v.6l.1.3v.9l.1.2v.6l.1.3v.9l.1.3v.6l.1.3v.9l.1.3v.9l.1.3v.6l.1.3v.9l.1.3v.6l.1.3v.9l.1.3v.9l.1.3v.6l.1.3v.9l.1.3v.9l.1.3v.6l.1.3v.8l.1.3v.9l.1.3v.6l.1.3v.9l.1.3v.9l.1.3v.6l.1.3v.9l.1.3v.9l.1.3v.6l.1.3v.9l.1.3v.9l.1.3v.9l.1.3v.6l.1.3v.9l.1.2v.9l.1.3v.9l.1.3v.9l.1.3V16v.3l.1.3v.9l.1.3v.9l.1.3v.9l.1.3v.9l.1.3v.6l.1.3v.9l.1.3v.9l.1.3v.9l.1.3v.8l.1.3v.9l.1.3v.9l.1.3v.9l.1.3v.6l.1.3v.9l.1.3v.9l.1.3v.9l.1.3v.9l.1.3v.3"/></g><path stroke="#d1d5db" d="M34 221v155m0-77.5h358"/><text x="213" y="402" fill="#6b7280" font-size="9" text-anchor="middle">Hz</text><text x="12" y="298.5" fill="#6b7280" font-size="9" text-anchor="middle" transform="rotate(-90 12 298.5)">Delay (smp)</text><path stroke="#e5e7eb" stroke-width=".5" d="M66.6 221v155m19.1-155v155m13.6-155v155m10.5-155v155m8.6-155v155m7.3-155v155m6.2-155v155m5.6-155v155m37.6-155v155m19.1-155v155m13.5-155v155m10.6-155v155m8.5-155v155m7.3-155v155m6.3-155v155m5.5-155v155m37.6-155v155m19.1-155v155m13.6-155v155m10.5-155v155m8.6-155v155m7.3-155v155m6.2-155v155m5.6-155v155M392 221v155M142.5 221v155"/><text x="142.5" y="388" fill="#6b7280" font-size="8" text-anchor="middle">100</text><path stroke="#e5e7eb" stroke-width=".5" d="M250.9 221v155"/><text x="250.9" y="388" fill="#6b7280" font-size="8" text-anchor="middle">1k</text><path stroke="#e5e7eb" stroke-width=".5" d="M359.4 221v155"/><text x="359.4" y="388" fill="#6b7280" font-size="8" text-anchor="middle">10k</text><path stroke="#e5e7eb" stroke-width=".5" d="M34 376h358"/><text x="30" y="379" fill="#6b7280" font-size="8" text-anchor="end">-100</text><path stroke="#e5e7eb" stroke-width=".5" d="M34 337.3h358"/><text x="30" y="340.3" fill="#6b7280" font-size="8" text-anchor="end">-50</text><text x="30" y="301.5" fill="#6b7280" font-size="8" text-anchor="end">0</text><path stroke="#e5e7eb" stroke-width=".5" d="M34 259.8h358"/><text x="30" y="262.8" fill="#6b7280" font-size="8" text-anchor="end">50</text><path stroke="#e5e7eb" stroke-width=".5" d="M34 221h358"/><text x="30" y="224" fill="#6b7280" font-size="8" text-anchor="end">100</text><g clip-path="url(#f)"><path fill="url(#g)" d="M37.5 298.5v-7h178.2l1.1.1h38l.5.1h15.6l.3.1h10.3l.3.1h8.4l.2.1h7.5l.2.1h7.1l.1.1h7.7l.1.1h9.9l.1.1H392v6.1z"/><path fill="none" stroke="#22c55e" stroke-linejoin="round" stroke-width="1.5" d="M37.5 291.5h178.2l1.1.1h38l.5.1h15.6l.3.1h10.3l.3.1h8.4l.2.1h7.5l.2.1h7.1l.1.1h7.7l.1.1h9.9l.1.1H392"/></g><path stroke="#d1d5db" d="M442 221v155m0-77.5h358"/><text x="621" y="402" fill="#6b7280" font-size="9" text-anchor="middle">Samples</text><text x="420" y="298.5" fill="#6b7280" font-size="9" text-anchor="middle" transform="rotate(-90 420 298.5)">Impulse</text><path stroke="#e5e7eb" stroke-width=".5" d="M442 221v155"/><text x="442" y="388" fill="#6b7280" font-size="8" text-anchor="middle">0</text><path stroke="#e5e7eb" stroke-width=".5" d="M576.3 221v155"/><text x="576.3" y="388" fill="#6b7280" font-size="8" text-anchor="middle">6</text><path stroke="#e5e7eb" stroke-width=".5" d="M710.5 221v155"/><text x="710.5" y="388" fill="#6b7280" font-size="8" text-anchor="middle">12</text><path stroke="#e5e7eb" stroke-width=".5" d="M442 363.1h358"/><text x="438" y="366.1" fill="#6b7280" font-size="8" text-anchor="end">-1</text><text x="438" y="301.5" fill="#6b7280" font-size="8" text-anchor="end">0</text><path stroke="#e5e7eb" stroke-width=".5" d="M442 233.9h358"/><text x="438" y="236.9" fill="#6b7280" font-size="8" text-anchor="end">1</text><path stroke="#e5e7eb" stroke-dasharray="3 2" stroke-width=".5" d="M442 233.9h358"/><text x="438" y="236.9" fill="#6b7280" font-size="7" text-anchor="end">+1</text><path stroke="#e5e7eb" stroke-dasharray="3 2" stroke-width=".5" d="M442 363.1h358"/><text x="438" y="366.1" fill="#6b7280" font-size="7" text-anchor="end">-1</text><g clip-path="url(#h)"><path fill="url(#i)" d="M442 298.5h156.6l22.4-29.1 22.4 26 22.4 1.7 22.3.6 22.4.4 22.4.2 22.4.1h22.3v.1z"/><path fill="url(#j)" d="m442 298.5 22.4.1h22.4l22.3.2 22.4.2 22.4.4 22.4.8 22.3 2.3 22.4-4h156.6z"/><path fill="none" stroke="#eab308" stroke-linejoin="round" stroke-width="1.2" d="m442 298.5 22.4.1h22.4l22.3.2 22.4.2 22.4.4 22.4.8 22.3 2.3 22.4-33.1 22.4 26 22.4 1.7 22.3.6 22.4.4 22.4.2 22.4.1h22.3"/></g></svg>