<svg xmlns="http://www.w3.org/2000/svg" style="font-family:system-ui,-apple-system,sans-serif" viewBox="0 0 820 392"><defs><linearGradient id="b" x1="0" x2="0" y1="37" y2="171" gradientUnits="userSpaceOnUse"><stop offset="0%" stop-color="#3b82f6" stop-opacity=".15"/><stop offset="100%" stop-color="#3b82f6" stop-opacity=".01"/></linearGradient><linearGradient id="d" x1="0" x2="0" y1="17" y2="94" gradientUnits="userSpaceOnUse"><stop offset="0%" stop-color="#ef4444" stop-opacity=".15"/><stop offset="100%" stop-color="#ef4444" stop-opacity=".01"/></linearGradient><linearGradient id="e" x1="0" x2="0" y1="94" y2="171" gradientUnits="userSpaceOnUse"><stop offset="0%" stop-color="#ef4444" stop-opacity=".01"/><stop offset="100%" stop-color="#ef4444" stop-opacity=".15"/></linearGradient><linearGradient id="g" x1="0" x2="0" y1="274" y2="299" gradientUnits="userSpaceOnUse"><stop offset="0%" stop-color="#22c55e" stop-opacity=".15"/><stop offset="100%" stop-color="#22c55e" stop-opacity=".01"/></linearGradient><linearGradient id="h" x1="0" x2="0" y1="299" y2="376" gradientUnits="userSpaceOnUse"><stop offset="0%" stop-color="#22c55e" stop-opacity=".01"/><stop offset="100%" stop-color="#22c55e" stop-opacity=".15"/></linearGradient><linearGradient id="j" x1="0" x2="0" y1="265" y2="299" gradientUnits="userSpaceOnUse"><stop offset="0%" stop-color="#eab308" stop-opacity=".15"/><stop offset="100%" stop-color="#eab308" stop-opacity=".01"/></linearGradient><linearGradient id="k" x1="0" x2="0" y1="299" y2="304" gradientUnits="userSpaceOnUse"><stop offset="0%" stop-color="#eab308" stop-opacity=".01"/><stop offset="100%" stop-color="#eab308" stop-opacity=".15"/></linearGradient><clipPath id="a"><path d="M34 16h358v155H34z"/></clipPath><clipPath id="c"><path d="M442 16h358v155H442z"/></clipPath><clipPath id="f"><path d="M34 221h358v155H34z"/></clipPath><clipPath id="i"><path d="M442 221h358v155H442z"/></clipPath></defs><text x="800" y="11" fill="#6b7280" font-size="11" font-weight="600" text-anchor="end">Raised cosine, β=0.35, 4 sps</text><path stroke="#d1d5db" d="M34 16v155m0-124h358"/><text x="213" y="197" fill="#6b7280" font-size="9" text-anchor="middle">Hz</text><text x="12" y="93.5" fill="#6b7280" font-size="9" text-anchor="middle" transform="rotate(-90 12 93.5)">dB</text><path stroke="#e5e7eb" stroke-width=".5" d="M66.6 16v155M85.7 16v155M99.3 16v155m10.5-155v155m8.6-155v155m7.3-155v155m6.2-155v155m5.6-155v155m37.6-155v155m19.1-155v155m13.5-155v155m10.6-155v155m8.5-155v155m7.3-155v155m6.3-155v155m5.5-155v155m37.6-155v155m19.1-155v155m13.6-155v155m10.5-155v155m8.6-155v155m7.3-155v155m6.2-155v155m5.6-155v155M392 16v155M34 16v155"/><text x="34" y="183" fill="#6b7280" font-size="8" text-anchor="middle">10</text><path stroke="#e5e7eb" stroke-width=".5" d="M142.5 16v155"/><text x="142.5" y="183" fill="#6b7280" font-size="8" text-anchor="middle">100</text><path stroke="#e5e7eb" stroke-width=".5" d="M250.9 16v155"/><text x="250.9" y="183" fill="#6b7280" font-size="8" text-anchor="middle">1k</text><path stroke="#e5e7eb" stroke-width=".5" d="M359.4 16v155"/><text x="359.4" y="183" fill="#6b7280" font-size="8" text-anchor="middle">10k</text><path stroke="#e5e7eb" stroke-width=".5" d="M34 171h358M34 140h358M34 109h358M34 78h358M34 16h358M34 62.5h358m-358-31h358"/><text x="30" y="174" fill="#6b7280" font-size="8" text-anchor="end">-80</text><text x="30" y="143" fill="#6b7280" font-size="8" text-anchor="end">-60</text><text x="30" y="112" fill="#6b7280" font-size="8" text-anchor="end">-40</text><text x="30" y="81" fill="#6b7280" font-size="8" text-anchor="end">-20</text><text x="30" y="50" fill="#6b7280" font-size="8" text-anchor="end">0</text><text x="30" y="19" fill="#6b7280" font-size="8" text-anchor="end">+20</text><g clip-path="url(#a)"><path fill="url(#b)" d="M37.5 171V37.1h167.4l1.4-.1H251l.5.1h25.6l.3-.1h14.3l.2.1h11.8l.2-.1h7.1l.2.1h2.1l.1.1h1.1l.1.1h.8l.1.1h.6l.2.1h.5l.1.1h.4l.1.1h.4l.1.1h.3l.2.1h.2l.1.1h.3l.1.1h.2l.1.1h.3l.1.1h.2l.1.1h.3l.1.1h.1l.1.1h.3l.1.1h.1l.1.1h.1l.1.1h.1l.1.1h.3l.1.1h.1l.1.1h.1l.1.1h.1l.2.1.1.1h.1l.1.1h.1l.1.1h.1l.1.1h.1l.1.1.1.1h.1l.2.1h.1l.1.1.1.1h.1l.1.1h.1l.1.1.1.1h.1l.1.1.1.1h.1l.1.1.1.1h.1l.1.1.1.1.1.1h.2l.1.1.1.1.1.1h.1l.1.1.1.1.1.1h.1l.1.1.1.1.1.1.1.1h.1l.1.1.1.1.1.1.1.1.1.1h.1l.1.1.1.1.1.1.1.1.1.1.1.1.1.1.1.1v.1l.1.1.1.1h.1l.1.1.1.1.1.1.1.1.1.1.1.1.1.1.1.1.1.1.1.1.1.2.1.1.1.1.1.1.1.1.1.1v.1l.1.1.1.1.1.1.1.2.1.1.1.1.1.1.1.1.1.1.1.2.1.1.1.1v.1l.1.2.1.1.1.1.1.1.1.2.1.1.1.1.1.2.1.1v.1l.1.2.1.1.1.1.1.2.1.1.1.2.1.1v.2l.1.1.1.2.1.1.1.2.1.1.1.2.1.1v.2l.1.1.1.2.1.1.1.2.1.2.1.1v.2l.1.2.1.2.1.1.1.2.1.2.1.2v.1l.1.2.1.2.1.2.1.2.1.2v.2l.1.1.1.2.1.2.1.2.1.2v.2l.1.2.1.3.1.2.1.2v.2l.1.2.1.2.1.3.1.2.1.2v.2l.1.3.1.2.1.2.1.3v.2l.1.3.1.2.1.3.1.2v.3l.1.2.1.3.1.3.1.2v.3l.1.3.1.3.1.3.1.2v.3l.1.3.1.3.1.3v.3l.1.3.1.3.1.4.1.3v.3l.1.3.1.4.1.3v.3l.1.4.1.3.1.4v.4l.1.3.1.4.1.4v.4l.1.3.1.4.1.4v.4l.1.4.1.5.1.4v.4l.1.4.1.5.1.4v.5l.1.4.1.5.1.5v.5l.1.5.1.5.1.5v.5l.1.5.1.6.1.5v.6l.1.5.1.6v.6l.1.6.1.6.1.6v.7l.1.6.1.7v.6l.1.7.1.7.1.8v.7l.1.8.1.8v.8l.1.8.1.8.1.9v.9l.1 1 .1.9v1l.1 1.1.1 1.1v1.1l.1 1.1.1 1.3.1 1.3v1.3l.1 1.5.1 1.5v1.7l.1 1.8.1 1.9v2.1l.1 2.4.1 2.8v3.2l.1 3.9.1 5.2.1 7.7v17.4l.1-5 .1-12.7v-6l.1-3.9.1-2.8v-2.1l.1-1.6.1-1.4v-1.1l.1-.9.1-.7v-.6l.1-.5.1-.4v-.3l.1-.2.1-.2v-.1h.2v.1l.1.2.1.1v.3l.1.3.1.3v.4l.1.4.1.5v.5l.1.6.1.6v.7l.1.8.1.8v1l.1 1v1.1l.1 1.2.1 1.3v1.5l.1 1.7.1 2v2.2l.1 2.7.1 3.3v4.3l.1 6.3.1 11.7v3.2l.1-10.2v-7.6l.1-4.8.1-3.4v-2.6l.1-2.1.1-1.7v-1.5l.1-1.3v-1.1l.1-.9.1-.9v-.7l.1-.7.1-.5v-.5l.1-.5v-.3l.1-.4.1-.2v-.3l.1-.1.1-.2v-.1h.2l.1.1v.1l.1.1v.2l.1.2.1.2v.3l.1.3v.3l.1.4.1.5v.5l.1.5.1.6v.6l.1.7v.7l.1.9.1.9v1l.1 1v1.2l.1 1.4v1.5l.1 1.6.1 2v2.3l.1 2.7v3.4l.1 4.6.1 6.9v4.9h.1v-4.2l.1-6.9.1-4.4v-3.3l.1-2.5v-2.1l.1-1.8v-1.5l.1-1.3.1-1.1v-1l.1-.9v-.8l.1-.7.1-.6v-.6l.1-.5v-.4l.1-.4v-.3l.1-.3.1-.3v-.2l.1-.2v-.1l.1-.1.1-.1h.1v.1l.1.1v.1l.1.1v.2l.1.2.1.3v.3l.1.3v.3l.1.4v.5l.1.5v.5l.1.6.1.6v.7l.1.8v.8l.1 1v1l.1 1.1v1.2l.1 1.4.1 1.6v1.8l.1 2v2.5l.1 3v4l.1 5.5v3.1h.1l.1-2.9.1-5.4V159l.1-2.9v-2.3l.1-2v-1.6l.1-1.4v-1.3l.1-1.1v-.9l.1-.9.1-.8v-.7l.1-.6v-.6l.1-.5v-.4l.1-.4v-.4l.1-.3v-.2l.1-.2v-.2l.1-.2v-.1l.1-.1h.2v.1l.1.1v.1l.1.1v.2l.1.2v.3l.1.3v.3l.1.4v.4l.1.5v.5l.1.5v.6l.1.7v.7l.1.8v.9l.1.9v1.1l.1 1.1.1 1.4v1.4l.1 1.7v1.9l.1 2.3v2.7l.1 3.5v4.7l.1 1.7h.1l.1-2.4v-4.3l.1-3.2v-2.5l.1-2.1v-1.8l.1-1.5v-1.3l.1-1.2v-1.1l.1-.9v-.8l.1-.8v-.6l.1-.6v-.6l.1-.5v-.4l.1-.4v-.3l.1-.3v-.3l.1-.2v-.2l.1-.1v-.1l.1-.1.1-.1v.1h.1v.1l.1.1v.2l.1.2v.2l.1.2v.3l.1.4v.7l.1.5v.5l.1.6v.6l.1.6v.7l.1.8v.9l.1 1v1l.1 1.2v1.3l.1 1.5v1.7l.1 2v2.4l.1 2.8v3.7l.1 2.4h.2v-4.3l.1-3v-2.5l.1-2v-1.8l.1-1.5v-1.3l.1-1.1v-1.1l.1-.9v-.8l.1-.7v-.7l.1-.6v-.5l.1-.5v-.9l.1-.3v-.3l.1-.3v-.2l.1-.2v-.1l.1-.1v-.1l.1-.1h.1v.2l.1.1v.1l.1.2v.2l.1.3v.3l.1.3v.3l.1.5v.4l.1.5v1.1l.1.7v.7l.1.8v.9l.1.9v1.1l.1 1.2v1.3l.1 1.5v3.7l.1 2.3v2.9l.1 3.4h.2l.1-1.8v-3.1l.1-2.5v-2l.1-1.7v-1.5l.1-1.3v-2.2l.1-.9v-.9l.1-.7v-.7l.1-.6v-.6l.1-.4v-.9l.1-.3v-.3l.1-.3v-.2l.1-.2v-.3l.1-.1v-.1h.1l.1.1v.2l.1.1v.2l.1.2v.2l.1.3v.7l.1.4v.4l.1.5v.5l.1.6v1.4l.1.7v.9l.1.9v1.1l.1 1.2v2.7l.1 1.7v2l.1 2.3v2.8l.1 1.5h.3v-5.1l.1-2.1v-1.7l.1-1.6V158l.1-1v-.9l.1-.9v-.7l.1-.7v-1.2l.1-.5v-.5l.1-.4v-.6l.1-.3v-.2l.1-.2v-.2l.1-.1v-.2h.2v.2l.1.1v.2l.1.2v.5l.1.3v.3l.1.4v.9l.1.5v.6l.1.7v1.4l.1.9v.9l.1 1v2.5l.1 1.4v1.7l.1 1.9v5h.4v-3.1l.1-2.1V164l.1-1.6v-2.5l.1-1.1v-.9l.1-.9v-1.4l.1-.7v-.5l.1-.5v-.9l.1-.4v-.3l.1-.3v-.4l.1-.2v-.2l.1-.1v-.1h.1v.1l.1.1v.1l.1.2v.4l.1.3v.3l.1.3v.8l.1.5v1.1l.1.6v.7l.1.7v1.8l.1 1v2.4l.1 1.4v1.6l.1 1.9v3.7h.4v-1.3l.1-2.2v-3.4l.1-1.3v-2.3l.1-1v-.9l.1-.7v-1.4l.1-.6v-1l.1-.4v-.4l.1-.3v-.5l.1-.3v-.3l.1-.1v-.1h.2v.2l.1.2v.4l.1.2v.3l.1.4v.8l.1.4v1.1l.1.6v1.4l.1.8v.9l.1 1v2.4l.1 1.4v3.4l.1 2.2v.4h.4v-3.8l.1-1.6V163l.1-1.1v-1l.1-.9v-1.5l.1-.6v-1.1l.1-.5v-.8l.1-.4v-.5l.1-.3v-.3l.1-.1v-.1l.1-.1.1.1v.2l.1.1v.4l.1.2v.6l.1.4v.9l.1.5v1.1l.1.7v1.5l.1.9v1l.1 1.1v2.6l.1 1.5v3.5h.4v-.5l.1-1.9v-3l.1-1.3v-2.1l.1-.9v-1.6l.1-.6v-1.2l.1-.5v-.8l.1-.3v-.6l.1-.2v-.4l.1-.1v-.2h.1l.1.1v.3l.1.1v.5l.1.2v.7l.1.4v.9l.1.6v1.2l.1.7v1.7l.1 1v2.3l.1 1.3v3.3l.1.9h.4v-2.8l.1-1.5v-2.4l.1-1v-1.8l.1-.7v-1.3l.1-.5v-1l.1-.4v-.6l.1-.3v-.6l.1-.2v-.1l.1-.1v.1h.1v.3l.1.1v.5l.1.2v.7l.1.4v.9l.1.5v1.2l.1.8v2.5l.1 1.1v2.5l.1 1.5v2h.4v-.1l.1-1.7v-2.8l.1-1.1v-2l.1-.8v-1.4l.1-.7v-1.5l.1-.4v-.7l.1-.3v-.4l.1-.2v-.2l.1-.1h.1v.3l.1.1v.4l.1.3v.6l.1.4v1.4l.1.6v1.3l.1.8v1.8l.1 1v4l.1 1.4h.4v-.8l.1-1.5v-3.6l.1-.9v-1.7l.1-.6v-1.2l.1-.6v-1.2l.1-.3v-.6l.1-.2v-.3l.1-.1v-.2l.1.1v.1l.1.1v.6l.1.2v.7l.1.3v.9l.1.5v1.9l.1.8v1.7l.1 1.1v3.8l.1 1h.4v-1.5l.1-1.4v-3.2l.1-.9v-1.5l.1-.6v-1.6l.1-.4v-.7l.1-.3v-.6l.1-.2v-.2h.1v-.1.1l.1.1v.2l.1.2v.8l.1.3v.8l.1.4v1.7l.1.7v1.6l.1.9v3.4l.1 1.4v.6h.4v-.9l.1-1.3v-3.3l.1-.9v-1.5l.1-.6v-1.6l.1-.4v-1.1l.1-.2v-.4l.1-.2v-.3h.1v.1l.1.2v.3l.1.2v.8l.1.4v1.3l.1.6v1.3l.1.7v2.7l.1 1.1v3h.4l.1-.3v-2.6l.1-1.1v-2.6l.1-.8v-1.7l.1-.5v-1.2l.1-.3v-.7l.1-.2v-.2l.1-.1v.1h.1v.4l.1.2v.9l.1.3v1.4l.1.5v1.3l.1.7v2.7l.1 1.1v2.7h.4l.1-1.2v-3.3l.1-.9V164l.1-.6v-1.7l.1-.4v-1.1l.1-.2v-.7l.1-.1v-.2h.1v12z"/><path fill="none" stroke="#3b82f6" stroke-linejoin="round" stroke-width="1.5" d="M37.5 37.1h167.4l1.4-.1H251l.5.1h25.6l.3-.1h14.3l.2.1h11.8l.2-.1h7.1l.2.1h2.1l.1.1h1.1l.1.1h.8l.1.1h.6l.2.1h.5l.1.1h.4l.1.1h.4l.1.1h.3l.2.1h.2l.1.1h.3l.1.1h.2l.1.1h.3l.1.1h.2l.1.1h.3l.1.1h.1l.1.1h.3l.1.1h.1l.1.1h.1l.1.1h.1l.1.1h.3l.1.1h.1l.1.1h.1l.1.1h.1l.2.1.1.1h.1l.1.1h.1l.1.1h.1l.1.1h.1l.1.1.1.1h.1l.2.1h.1l.1.1.1.1h.1l.1.1h.1l.1.1.1.1h.1l.1.1.1.1h.1l.1.1.1.1h.1l.1.1.1.1.1.1h.2l.1.1.1.1.1.1h.1l.1.1.1.1.1.1h.1l.1.1.1.1.1.1.1.1h.1l.1.1.1.1.1.1.1.1.1.1h.1l.1.1.1.1.1.1.1.1.1.1.1.1.1.1.1.1v.1l.1.1.1.1h.1l.1.1.1.1.1.1.1.1.1.1.1.1.1.1.1.1.1.1.1.1.1.2.1.1.1.1.1.1.1.1.1.1v.1l.1.1.1.1.1.1.1.2.1.1.1.1.1.1.1.1.1.1.1.2.1.1.1.1v.1l.1.2.1.1.1.1.1.1.1.2.1.1.1.1.1.2.1.1v.1l.1.2.1.1.1.1.1.2.1.1.1.2.1.1v.2l.1.1.1.2.1.1.1.2.1.1.1.2.1.1v.2l.1.1.1.2.1.1.1.2.1.2.1.1v.2l.1.2.1.2.1.1.1.2.1.2.1.2v.1l.1.2.1.2.1.2.1.2.1.2v.2l.1.1.1.2.1.2.1.2.1.2v.2l.1.2.1.3.1.2.1.2v.2l.1.2.1.2.1.3.1.2.1.2v.2l.1.3.1.2.1.2.1.3v.2l.1.3.1.2.1.3.1.2v.3l.1.2.1.3.1.3.1.2v.3l.1.3.1.3.1.3.1.2v.3l.1.3.1.3.1.3v.3l.1.3.1.3.1.4.1.3v.3l.1.3.1.4.1.3v.3l.1.4.1.3.1.4v.4l.1.3.1.4.1.4v.4l.1.3.1.4.1.4v.4l.1.4.1.5.1.4v.4l.1.4.1.5.1.4v.5l.1.4.1.5.1.5v.5l.1.5.1.5.1.5v.5l.1.5.1.6.1.5v.6l.1.5.1.6v.6l.1.6.1.6.1.6v.7l.1.6.1.7v.6l.1.7.1.7.1.8v.7l.1.8.1.8v.8l.1.8.1.8.1.9v.9l.1 1 .1.9v1l.1 1.1.1 1.1v1.1l.1 1.1.1 1.3.1 1.3v1.3l.1 1.5.1 1.5v1.7l.1 1.8.1 1.9v2.1l.1 2.4.1 2.8v3.2l.1 3.9.1 5.2.1 7.7v17.4l.1-5 .1-12.7v-6l.1-3.9.1-2.8v-2.1l.1-1.6.1-1.4v-1.1l.1-.9.1-.7v-.6l.1-.5.1-.4v-.3l.1-.2.1-.2v-.1h.2v.1l.1.2.1.1v.3l.1.3.1.3v.4l.1.4.1.5v.5l.1.6.1.6v.7l.1.8.1.8v1l.1 1v1.1l.1 1.2.1 1.3v1.5l.1 1.7.1 2v2.2l.1 2.7.1 3.3v4.3l.1 6.3.1 11.7v3.2"/><path fill="none" stroke="#3b82f6" stroke-linejoin="round" stroke-width="1.5" d="m348.7 171 .1-10.2v-7.6l.1-4.8.1-3.4v-2.6l.1-2.1.1-1.7v-1.5l.1-1.3v-1.1l.1-.9.1-.9v-.7l.1-.7.1-.5v-.5l.1-.5v-.3l.1-.4.1-.2v-.3l.1-.1.1-.2v-.1h.2l.1.1v.1l.1.1v.2l.1.2.1.2v.3l.1.3v.3l.1.4.1.5v.5l.1.5.1.6v.6l.1.7v.7l.1.9.1.9v1l.1 1v1.2l.1 1.4v1.5l.1 1.6.1 2v2.3l.1 2.7v3.4l.1 4.6.1 6.9v4.9m.1 0v-4.2l.1-6.9.1-4.4v-3.3l.1-2.5v-2.1l.1-1.8v-1.5l.1-1.3.1-1.1v-1l.1-.9v-.8l.1-.7.1-.6v-.6l.1-.5v-.4l.1-.4v-.3l.1-.3.1-.3v-.2l.1-.2v-.1l.1-.1.1-.1h.1v.1l.1.1v.1l.1.1v.2l.1.2.1.3v.3l.1.3v.3l.1.4v.5l.1.5v.5l.1.6.1.6v.7l.1.8v.8l.1 1v1l.1 1.1v1.2l.1 1.4.1 1.6v1.8l.1 2v2.5l.1 3v4l.1 5.5v3.1m.1 0 .1-2.9.1-5.4V159l.1-2.9v-2.3l.1-2v-1.6l.1-1.4v-1.3l.1-1.1v-.9l.1-.9.1-.8v-.7l.1-.6v-.6l.1-.5v-.4l.1-.4v-.4l.1-.3v-.2l.1-.2v-.2l.1-.2v-.1l.1-.1h.2v.1l.1.1v.1l.1.1v.2l.1.2v.3l.1.3v.3l.1.4v.4l.1.5v.5l.1.5v.6l.1.7v.7l.1.8v.9l.1.9v1.1l.1 1.1.1 1.4v1.4l.1 1.7v1.9l.1 2.3v2.7l.1 3.5v4.7l.1 1.7m.1 0 .1-2.4v-4.3l.1-3.2v-2.5l.1-2.1v-1.8l.1-1.5v-1.3l.1-1.2v-1.1l.1-.9v-.8l.1-.8v-.6l.1-.6v-.6l.1-.5v-.4l.1-.4v-.3l.1-.3v-.3l.1-.2v-.2l.1-.1v-.1l.1-.1.1-.1v.1h.1v.1l.1.1v.2l.1.2v.2l.1.2v.3l.1.4v.7l.1.5v.5l.1.6v.6l.1.6v.7l.1.8v.9l.1 1v1l.1 1.2v1.3l.1 1.5v1.7l.1 2v2.4l.1 2.8v3.7l.1 2.4m.2 0v-4.3l.1-3v-2.5l.1-2v-1.8l.1-1.5v-1.3l.1-1.1v-1.1l.1-.9v-.8l.1-.7v-.7l.1-.6v-.5l.1-.5v-.9l.1-.3v-.3l.1-.3v-.2l.1-.2v-.1l.1-.1v-.1l.1-.1h.1v.2l.1.1v.1l.1.2v.2l.1.3v.3l.1.3v.3l.1.5v.4l.1.5v1.1l.1.7v.7l.1.8v.9l.1.9v1.1l.1 1.2v1.3l.1 1.5v3.7l.1 2.3v2.9l.1 3.4m.2 0 .1-1.8v-3.1l.1-2.5v-2l.1-1.7v-1.5l.1-1.3v-2.2l.1-.9v-.9l.1-.7v-.7l.1-.6v-.6l.1-.4v-.9l.1-.3v-.3l.1-.3v-.2l.1-.2v-.3l.1-.1v-.1h.1l.1.1v.2l.1.1v.2l.1.2v.2l.1.3v.7l.1.4v.4l.1.5v.5l.1.6v1.4l.1.7v.9l.1.9v1.1l.1 1.2v2.7l.1 1.7v2l.1 2.3v2.8l.1 1.5m.3 0v-5.1l.1-2.1v-1.7l.1-1.6V158l.1-1v-.9l.1-.9v-.7l.1-.7v-1.2l.1-.5v-.5l.1-.4v-.6l.1-.3v-.2l.1-.2v-.2l.1-.1v-.2h.2v.2l.1.1v.2l.1.2v.5l.1.3v.3l.1.4v.9l.1.5v.6l.1.7v1.4l.1.9v.9l.1 1v2.5l.1 1.4v1.7l.1 1.9v5h.1m.3 0v-3.1l.1-2.1V164l.1-1.6v-2.5l.1-1.1v-.9l.1-.9v-1.4l.1-.7v-.5l.1-.5v-.9l.1-.4v-.3l.1-.3v-.4l.1-.2v-.2l.1-.1v-.1h.1v.1l.1.1v.1l.1.2v.4l.1.3v.3l.1.3v.8l.1.5v1.1l.1.6v.7l.1.7v1.8l.1 1v2.4l.1 1.4v1.6l.1 1.9v3.7m.4 0v-1.3l.1-2.2v-3.4l.1-1.3v-2.3l.1-1v-.9l.1-.7v-1.4l.1-.6v-1l.1-.4v-.4l.1-.3v-.5l.1-.3v-.3l.1-.1v-.1h.2v.2l.1.2v.4l.1.2v.3l.1.4v.8l.1.4v1.1l.1.6v1.4l.1.8v.9l.1 1v2.4l.1 1.4v3.4l.1 2.2v.4m.4 0v-3.8l.1-1.6V163l.1-1.1v-1l.1-.9v-1.5l.1-.6v-1.1l.1-.5v-.8l.1-.4v-.5l.1-.3v-.3l.1-.1v-.1l.1-.1.1.1v.2l.1.1v.4l.1.2v.6l.1.4v.9l.1.5v1.1l.1.7v1.5l.1.9v1l.1 1.1v2.6l.1 1.5v3.5m.4 0v-.5l.1-1.9v-3l.1-1.3v-2.1l.1-.9v-1.6l.1-.6v-1.2l.1-.5v-.8l.1-.3v-.6l.1-.2v-.4l.1-.1v-.2h.1l.1.1v.3l.1.1v.5l.1.2v.7l.1.4v.9l.1.6v1.2l.1.7v1.7l.1 1v2.3l.1 1.3v3.3l.1.9m.4 0v-2.8l.1-1.5v-2.4l.1-1v-1.8l.1-.7v-1.3l.1-.5v-1l.1-.4v-.6l.1-.3v-.6l.1-.2v-.1l.1-.1v.1h.1v.3l.1.1v.5l.1.2v.7l.1.4v.9l.1.5v1.2l.1.8v2.5l.1 1.1v2.5l.1 1.5v2m.4 0v-.1l.1-1.7v-2.8l.1-1.1v-2l.1-.8v-1.4l.1-.7v-1.5l.1-.4v-.7l.1-.3v-.4l.1-.2v-.2l.1-.1h.1v.3l.1.1v.4l.1.3v.6l.1.4v1.4l.1.6v1.3l.1.8v1.8l.1 1v4l.1 1.4m.4 0v-.8l.1-1.5v-3.6l.1-.9v-1.7l.1-.6v-1.2l.1-.6v-1.2l.1-.3v-.6l.1-.2v-.3l.1-.1v-.2l.1.1v.1l.1.1v.6l.1.2v.7l.1.3v.9l.1.5v1.9l.1.8v1.7l.1 1.1v3.8l.1 1m.4 0v-1.5l.1-1.4v-3.2l.1-.9v-1.5l.1-.6v-1.6l.1-.4v-.7l.1-.3v-.6l.1-.2v-.2h.1v-.1.1l.1.1v.2l.1.2v.8l.1.3v.8l.1.4v1.7l.1.7v1.6l.1.9v3.4l.1 1.4v.6m.4 0v-.9l.1-1.3v-3.3l.1-.9v-1.5l.1-.6v-1.6l.1-.4v-1.1l.1-.2v-.4l.1-.2v-.3h.1v.1l.1.2v.3l.1.2v.8l.1.4v1.3l.1.6v1.3l.1.7v2.7l.1 1.1v3m.4 0 .1-.3v-2.6l.1-1.1v-2.6l.1-.8v-1.7l.1-.5v-1.2l.1-.3v-.7l.1-.2v-.2l.1-.1v.1h.1v.4l.1.2v.9l.1.3v1.4l.1.5v1.3l.1.7v2.7l.1 1.1v2.7m.4 0 .1-1.2v-3.3l.1-.9V164l.1-.6v-1.7l.1-.4v-1.1l.1-.2v-.7l.1-.1v-.2h.1"/></g><path stroke="#d1d5db" d="M442 16v155m0-77.5h358"/><text x="621" y="197" fill="#6b7280" font-size="9" text-anchor="middle">Hz</text><text x="420" y="93.5" fill="#6b7280" font-size="9" text-anchor="middle" transform="rotate(-90 420 93.5)">Phase (deg)</text><path stroke="#e5e7eb" stroke-width=".5" d="M474.6 16v155m19.1-155v155m13.6-155v155m10.5-155v155m8.6-155v155m7.3-155v155m6.2-155v155m5.6-155v155m37.6-155v155m19.1-155v155m13.5-155v155m10.6-155v155m8.5-155v155m7.3-155v155m6.3-155v155m5.5-155v155m37.6-155v155m19.1-155v155m13.6-155v155m10.5-155v155m8.6-155v155m7.3-155v155m6.2-155v155m5.6-155v155M800 16v155M442 16v155"/><text x="442" y="183" fill="#6b7280" font-size="8" text-anchor="middle">10</text><path stroke="#e5e7eb" stroke-width=".5" d="M550.5 16v155"/><text x="550.5" y="183" fill="#6b7280" font-size="8" text-anchor="middle">100</text><path stroke="#e5e7eb" stroke-width=".5" d="M658.9 16v155"/><text x="658.9" y="183" fill="#6b7280" font-size="8" text-anchor="middle">1k</text><path stroke="#e5e7eb" stroke-width=".5" d="M767.4 16v155"/><text x="767.4" y="183" fill="#6b7280" font-size="8" text-anchor="middle">10k</text><path stroke="#e5e7eb" stroke-width=".5" d="M442 54.8h358m-358 77.5h358M442 16h358"/><text x="438" y="19" fill="#6b7280" font-size="8" text-anchor="end">+180</text><text x="438" y="96.5" fill="#6b7280" font-size="8" text-anchor="end">0</text><path stroke="#e5e7eb" stroke-width=".5" d="M442 171h358"/><text x="438" y="174" fill="#6b7280" font-size="8" text-anchor="end">-180</text><g clip-path="url(#c)"><path fill="url(#d)" d="M445.5 93.5h195.9l.7-76.3.7 1.2.7 1.2.7 1.2.7 1.3.7 1.2.6 1.2.7 1.2.7 1.2.6 1.2.6 1.2.7 1.2.6 1.2.6 1.3.6 1.2.6 1.2.6 1.2.5 1.2.6 1.2.6 1.2.5 1.2.6 1.2.5 1.3.6 1.2.5 1.2.5 1.2.5 1.2.6 1.2.5 1.2.5 1.2.5 1.2.5 1.3.4 1.2.5 1.2.5 1.2.5 1.2.4 1.2.5 1.2.5 1.2.4 1.2.5 1.2.4 1.3.5 1.2.4 1.2.4 1.2.5 1.2.4 1.2.4 1.2.4 1.2.5 1.2.4 1.3.4 1.2.4 1.2.4 1.2.4 1.2.4 1.2.4 1.2.3 1.2.4 1.2.4 1.3.4 1.2.4 1.2.3 1.2.4 1.2h19.1l.2-76.3.3 1.2.2 1.2.3 1.2.2 1.3.3 1.2.2 1.2.2 1.2.3 1.2.2 1.2.2 1.2.3 1.2.2 1.2.2 1.3.2 1.2.3 1.2.2 1.2.2 1.2.2 1.2.3 1.2.2 1.2.2 1.2.2 1.3.3 1.2.2 1.2.2 1.2.2 1.2.2 1.2.2 1.2.2 1.2.3 1.2.2 1.2.2 1.3.2 1.2.2 1.2.2 1.2.2 1.2.2 1.2.2 1.2.2 1.2.2 1.2.2 1.3.2 1.2.2 1.2.2 1.2.2 1.2.2 1.2.2 1.2.2 1.2.2 1.2.2 1.3.2 1.2.2 1.2.2 1.2.2 1.2.2 1.2.1 1.2.2 1.2.2 1.2.2 1.3.2 1.2.2 1.2.2 1.2.2 1.2h10.5l.1-76.3.2 1.2.1 1.2.2 1.2.1 1.3.1 1.2.2 1.2.1 1.2.2 1.2.1 1.2.2 1.2.1 1.2.1 1.2.2 1.3.1 1.2.2 1.2.1 1.2.1 1.2.2 1.2.1 1.2.2 1.2.1 1.2.1 1.3.2 1.2.1 1.2.1 1.2.2 1.2.1 1.2.2 1.2.1 1.2.1 1.2.2 1.2.1 1.3.1 1.2.2 1.2.1 1.2.1 1.2.2 1.2.1 1.2.1 1.2.1 1.2.2 1.3.1 1.2.1 1.2.2 1.2.1 1.2.1 1.2.1 1.2.2 1.2.1 1.2.1 1.3.2 1.2.1 1.2.1 1.2.1 1.2.2 1.2.1 1.2.1 1.2.1 1.2.2 1.3.1 1.2.1 1.2.1 1.2.2 1.2h7.2l.1-76.3.1 1.2.1 1.2.1 1.2.1 1.3.1 1.2.1 1.2.1 1.2.1 1.2.2 1.2.1 1.2.1 1.2.1 1.2.1 1.3.1 1.2.1 1.2.1 1.2.1 1.2.1 1.2.1 1.2.1 1.2.1 1.2.1 1.3.1 1.2.1 1.2.1 1.2.1 1.2.1 1.2.1 1.2.1 1.2.1 1.2.1 1.2.1 1.3.1 1.2.1 1.2.1 1.2.1 1.2V62l.1 1.2.1 1.2.1 1.2.1 1.3.1 1.2.1 1.2.1 1.2.1 1.2.1 1.2.1 1.2.1 1.2.1 1.2.1 1.3.1 1.2.1 1.2.1 1.2.1 1.2.1 1.2.1 1.2v1.2l.1 1.2.1 1.3.1 1.2.1 1.2.1 1.2.1 1.2h5.5l.1-76.3.1 1.2.1 1.2.1 1.2.1 1.3v1.2l.1 1.2.1 1.2.1 1.2.1 1.2v1.2l.1 1.2.1 1.2.1 1.3.1 1.2v1.2l.1 1.2.1 1.2.1 1.2.1 1.2v1.2l.1 1.2.1 1.3.1 1.2.1 1.2v1.2l.1 1.2.1 1.2.1 1.2v1.2l.1 1.2.1 1.2.1 1.3.1 1.2v1.2l.1 1.2.1 1.2.1 1.2v1.2l.1 1.2.1 1.2.1 1.3v1.2l.1 1.2.1 1.2.1 1.2v1.2l.1 1.2.1 1.2.1 1.2v1.3l.1 1.2.1 1.2.1 1.2v1.2l.1 1.2.1 1.2.1 1.2v1.2l.1 1.3.1 1.2.1 1.2v1.2l.1 1.2h3.6l.1-14.5.1 1.2v1.2l.1 1.2.1 1.2V85l.1 1.2.1 1.2v1.3l.1 1.2.1 1.2v1.2l.1 1.2h2.4V60.8l.1 1.2v1.2l.1 1.2.1 1.2v1.3l.1 1.2.1 1.2v1.2l.1 1.2v1.2l.1 1.2.1 1.2v1.2l.1 1.3.1 1.2v1.2l.1 1.2v1.2l.1 1.2.1 1.2v1.2l.1 1.2.1 1.3v1.2l.1 1.2v1.2l.1 1.2h1.9l.1-37.5v1.2l.1 1.2.1 1.2v1.2l.1 1.2v1.2l.1 1.2v1.2l.1 1.3.1 1.2v1.2l.1 1.2v1.2l.1 1.2.1 1.2v1.2l.1 1.2v1.3l.1 1.2v1.2l.1 1.2.1 1.2v1.2l.1 1.2v1.2l.1 1.2v1.3l.1 1.2.1 1.2v1.2l.1 1.2h1.6l.1-40v1.2l.1 1.3.1 1.2v1.2l.1 1.2v1.2l.1 1.2v1.2l.1 1.2v1.2l.1 1.3v1.2l.1 1.2.1 1.2v1.2l.1 1.2v1.2l.1 1.2v1.2l.1 1.3V79l.1 1.2v1.2l.1 1.2v1.2l.1 1.2v1.2l.1 1.2v1.3l.1 1.2.1 1.2v1.2l.1 1.2h1.5l.1-40v1.2l.1 1.3v1.2l.1 1.2v1.2l.1 1.2V62l.1 1.2v1.2l.1 1.2v1.3l.1 1.2v1.2l.1 1.2v1.2l.1 1.2v1.2l.1 1.2v1.2l.1 1.3V79l.1 1.2v1.2l.1 1.2v1.2l.1 1.2v1.2l.1 1.2v1.3l.1 1.2v1.2l.1 1.2v1.2h1.5v-40l.1 1.2v2.5l.1 1.2v1.2l.1 1.2V62l.1 1.2v1.2l.1 1.2v1.3l.1 1.2v1.2l.1 1.2v1.2l.1 1.2v1.2l.1 1.2v2.5l.1 1.2v1.2l.1 1.2v1.2l.1 1.2V85l.1 1.2v1.2l.1 1.3v1.2l.1 1.2v2.4h1.4l.1-40V56l.1 1.2v1.2l.1 1.2v1.2l.1 1.2v1.2l.1 1.2v2.5l.1 1.2v1.2l.1 1.2v1.2l.1 1.2v1.2l.1 1.2v2.5l.1 1.2v1.2l.1 1.2v1.2l.1 1.2v2.4l.1 1.2v1.3l.1 1.2v1.2l.1 1.2v1.2h1.3v-40l.1 1.3V56l.1 1.2v2.4l.1 1.2V62l.1 1.2v2.4l.1 1.3v1.2l.1 1.2v1.2l.1 1.2v2.4l.1 1.2v1.2l.1 1.3v2.4l.1 1.2v1.2l.1 1.2V85l.1 1.2v2.5l.1 1.2v1.2l.1 1.2v1.2h1.2v-40l.1 1.2V56l.1 1.2v2.4l.1 1.2V62l.1 1.2v2.4l.1 1.3v1.2l.1 1.2v2.4l.1 1.2v1.2l.1 1.2v2.5l.1 1.2v1.2l.1 1.2v2.4l.1 1.2v2.4l.1 1.3v1.2l.1 1.2v2.4h1.2v-40l.1 1.3v2.4l.1 1.2v1.2l.1 1.2v2.4l.1 1.2v2.5l.1 1.2v1.2l.1 1.2v2.4l.1 1.2v2.4l.1 1.3V79l.1 1.2v2.4l.1 1.2v2.4l.1 1.2v2.5l.1 1.2v1.2l.1 1.2h1.1v-40 1.3l.1 1.2v2.4l.1 1.2V62l.1 1.2v2.4l.1 1.3v1.2l.1 1.2v2.4l.1 1.2v2.4l.1 1.2V79l.1 1.2v2.4l.1 1.2v2.4l.1 1.2v1.3l.1 1.2v2.4l.1 1.2h1v-40l.1 1.2v2.5l.1 1.2v2.4l.1 1.2v2.4l.1 1.2v2.5l.1 1.2v2.4l.1 1.2v2.4l.1 1.2V79l.1 1.2v2.4l.1 1.2v2.4l.1 1.2v2.5l.1 1.2v2.4h1l.1-40V56l.1 1.2v2.4l.1 1.2v2.4l.1 1.2v2.5l.1 1.2v2.4l.1 1.2v2.4l.1 1.2v2.5l.1 1.2v2.4l.1 1.2v3.6l.1 1.2v2.5l.1 1.2v2.4h1l.1-38.8v3.7l.1 1.2V62l.1 1.2v2.4l.1 1.3v2.4l.1 1.2v2.4l.1 1.2v3.7l.1 1.2v2.4l.1 1.2V85l.1 1.2v2.5l.1 1.2v3.6h1V54.8 56l.1 1.2v2.4l.1 1.2v2.4l.1 1.2v3.7l.1 1.2v2.4l.1 1.2v2.4l.1 1.2v3.7l.1 1.2v2.4l.1 1.2v2.4l.1 1.3v3.6l.1 1.2h.9V54.8 56l.1 1.2v3.6l.1 1.2v2.4l.1 1.2v3.7l.1 1.2v2.4l.1 1.2v3.7l.1 1.2v2.4l.1 1.2v3.6l.1 1.2v2.5l.1 1.2v2.4h.9V54.7 56l.1 1.2v2.4l.1 1.2v3.6l.1 1.2v3.7l.1 1.2v2.4l.1 1.2v3.7l.1 1.2v3.6l.1 1.2v2.4l.1 1.2v3.7l.1 1.2v1.2h.8l.1-38.8v3.7l.1 1.2v3.6l.1 1.2v2.5l.1 1.2v3.6l.1 1.2v3.6l.1 1.3v3.6l.1 1.2v3.6l.1 1.2v2.5l.1 1.2v2.4h.8V54.7l.1 1.3v3.6l.1 1.2v3.6l.1 1.2v3.7l.1 1.2v2.4l.1 1.2v3.7l.1 1.2v3.6l.1 1.2v3.6l.1 1.3v3.6l.1 1.2z"/><path fill="url(#e)" d="M445.5 93.5v1.2l32.6 1.2 19.1 1.2 13.6 1.2 10.5 1.3 8.6 1.2 7.2 1.2 6.3 1.2 5.6 1.2 4.9 1.2 4.5 1.2 4.1 1.2 3.8 1.2 3.5 1.3 3.2 1.2 3.1 1.2 2.8 1.2 2.7 1.2 2.6 1.2 2.4 1.2 2.3 1.2 2.2 1.2 2.1 1.3 2 1.2 1.9 1.2 1.8 1.2 1.8 1.2 1.7 1.2 1.7 1.2 1.6 1.2 1.5 1.2 1.5 1.3 1.5 1.2 1.4 1.2 1.3 1.2 1.4 1.2 1.3 1.2 1.2 1.2 1.2 1.2 1.2 1.2 1.2 1.2 1.1 1.3 1.1 1.2 1.1 1.2 1.1 1.2 1 1.2 1 1.2 1 1.2 1 1.2.9 1.2 1 1.3.9 1.2.9 1.2.9 1.2.8 1.2.9 1.2.8 1.2.8 1.2.8 1.2.8 1.3.8 1.2.8 1.2.7 1.2.8 1.2.7-77.5H674l.4 1.2.3 1.2.4 1.2.4 1.2.3 1.3.4 1.2.3 1.2.4 1.2.3 1.2.4 1.2.3 1.2.3 1.2.4 1.2.3 1.3.3 1.2.4 1.2.3 1.2.3 1.2.3 1.2.3 1.2.4 1.2.3 1.2.3 1.3.3 1.2.3 1.2.3 1.2.3 1.2.3 1.2.3 1.2.3 1.2.3 1.2.3 1.3.3 1.2.3 1.2.3 1.2.3 1.2.3 1.2.3 1.2.2 1.2.3 1.2.3 1.2.3 1.3.2 1.2.3 1.2.3 1.2.3 1.2.2 1.2.3 1.2.3 1.2.2 1.2.3 1.3.3 1.2.2 1.2.3 1.2.2 1.2.3 1.2.3 1.2.2 1.2.3 1.2.2 1.3.3 1.2.2 1.2.3 1.2.2 1.2.2-77.5h13.4l.1 1.2.2 1.2.2 1.2.2 1.2.2 1.3.1 1.2.2 1.2.2 1.2.2 1.2.2 1.2.1 1.2.2 1.2.2 1.2.2 1.3.1 1.2.2 1.2.2 1.2.2 1.2.1 1.2.2 1.2.2 1.2.1 1.2.2 1.3.2 1.2.1 1.2.2 1.2.2 1.2.1 1.2.2 1.2.2 1.2.1 1.2.2 1.3.2 1.2.1 1.2.2 1.2.2 1.2.1 1.2.2 1.2.1 1.2.2 1.2.2 1.2.1 1.3.2 1.2.1 1.2.2 1.2.1 1.2.2 1.2.1 1.2.2 1.2.2 1.2.1 1.3.2 1.2.1 1.2.2 1.2.1 1.2.2 1.2.1 1.2.2 1.2.1 1.2.2 1.3.1 1.2.2 1.2.1 1.2.2 1.2.1-77.5h8.5l.1 1.2.1 1.2.1 1.2.1 1.2.2 1.3.1 1.2.1 1.2.1 1.2.1 1.2.2 1.2.1 1.2.1 1.2.1 1.2.1 1.3.2 1.2.1 1.2.1 1.2.1 1.2.1 1.2.1 1.2.2 1.2.1 1.2.1 1.3.1 1.2.1 1.2.1 1.2.2 1.2.1 1.2.1 1.2.1 1.2.1 1.2.1 1.3.1 1.2.1 1.2.2 1.2.1 1.2.1 1.2.1 1.2.1 1.2.1 1.2.1 1.2.1 1.3.2 1.2.1 1.2.1 1.2.1 1.2.1 1.2.1 1.2.1 1.2.1 1.2.1 1.3.1 1.2.1 1.2.1 1.2.2 1.2.1 1.2.1 1.2.1 1.2.1 1.2.1 1.3.1 1.2.1 1.2.1 1.2.1 1.2.1-77.5h6.2l.1 1.2.1 1.2.1 1.2.1 1.2.1 1.3.1 1.2v1.2l.1 1.2.1 1.2.1 1.2.1 1.2.1 1.2.1 1.2.1 1.3.1 1.2.1 1.2v1.2l.1 1.2.1 1.2.1 1.2.1 1.2.1 1.2.1 1.3.1 1.2v1.2l.1 1.2.1 1.2.1 1.2.1 1.2.1 1.2.1 1.2.1 1.3v1.2l.1 1.2.1 1.2.1 1.2.1 1.2.1 1.2.1 1.2v1.2l.1 1.2.1 1.3.1 1.2.1 1.2.1 1.2.1 1.2v1.2l.1 1.2.1 1.2.1 1.2.1 1.3.1 1.2v1.2l.1 1.2.1 1.2.1 1.2.1 1.2.1 1.2v1.2l.1 1.3.1 1.2.1 1.2.1 1.2v1.2l.1-77.5h4.9l.1 1.2.1 1.2v1.2l.1 1.2.1 1.3.1 1.2v1.2l.1 1.2.1 1.2v1.2l.1 1.2.1 1.2.1 1.2v1.3l.1 1.2.1 1.2v1.2l.1 1.2.1 1.2.1 1.2v1.2l.1 1.2.1 1.3v1.2l.1 1.2.1 1.2.1 1.2v1.2l.1 1.2.1 1.2v1.2l.1 1.2.1 1.3v1.2l.1 1.2.1 1.2.1 1.2v1.2l.1 1.2.1 1.2v1.2l.1 1.3.1 1.2v1.2l.1 1.2.1 1.2v1.2l.1 1.2.1 1.2.1 1.2v1.3l.1-61.8h.8l.1 1.2v1.2l.1 1.2.1 1.2v1.3l.1 1.2.1 1.2v1.2l.1 1.2.1 1.2v1.2l.1 1.2.1 1.2v1.3l.1 1.2.1 1.2v1.2l.1 1.2.1 1.2v1.2l.1 1.2.1 1.2v1.3l.1 1.2v1.2l.1 1.2.1 1.2v1.2l.1 1.2.1 1.2v1.2l.1 1.3.1 1.2v1.2l.1 1.2.1 1.2V93.5h1.7l.1 1.2v1.2l.1 1.2v1.2l.1 1.3.1 1.2v1.2l.1 1.2v1.2l.1 1.2.1 1.2v1.2l.1 1.2.1 1.3v1.2l.1 1.2v1.2l.1 1.2.1 1.2v1.2l.1 1.2v1.2l.1 1.3v1.2l.1 1.2.1 1.2v1.2l.1 1.2v1.2l.1 1.2.1 1.2v1.2l.1-38.7h1.8v1.2l.1 1.2v1.2l.1 1.2.1 1.3v1.2l.1 1.2v1.2l.1 1.2v1.2l.1 1.2v1.2l.1 1.2.1 1.3v1.2l.1 1.2v1.2l.1 1.2v1.2l.1 1.2v1.2l.1 1.2.1 1.3v1.2l.1 1.2v1.2l.1 1.2v1.2l.1 1.2v1.2l.1-36.3h1.8v1.2l.1 1.2v1.2l.1 1.2v1.3l.1 1.2v1.2l.1 1.2v1.2l.1 1.2v1.2l.1 1.2v1.2l.1 1.3v1.2l.1 1.2v1.2l.1 1.2v1.2l.1 1.2.1 1.2v1.2l.1 1.3v1.2l.1 1.2v1.2l.1 1.2v1.2l.1 1.2v1.2l.1-36.3h1.6l.1 1.2v1.2l.1 1.2v1.2l.1 1.3v1.2l.1 1.2v2.4l.1 1.2v1.2l.1 1.2v1.2l.1 1.3v1.2l.1 1.2v1.2l.1 1.2v1.2l.1 1.2v1.2l.1 1.2v1.3l.1 1.2v1.2l.1 1.2v1.2l.1 1.2v1.2l.1 1.2V93.5h1.5l.1 1.2v1.2l.1 1.2v1.2l.1 1.3v1.2l.1 1.2v1.2l.1 1.2v1.2l.1 1.2v2.4l.1 1.3v1.2l.1 1.2v1.2l.1 1.2v1.2l.1 1.2v1.2l.1 1.2v2.5l.1 1.2v1.2l.1 1.2v1.2l.1 1.2v1.2l.1-36.3h1.4v1.2l.1 1.2v1.2l.1 1.2v1.3l.1 1.2v2.4l.1 1.2v1.2l.1 1.2v1.2l.1 1.2v2.5l.1 1.2v1.2l.1 1.2v1.2l.1 1.2v2.4l.1 1.3v1.2l.1 1.2v1.2l.1 1.2v2.4l.1 1.2V93.5h1.4v1.2l.1 1.2v1.2l.1 1.2v2.5l.1 1.2v1.2l.1 1.2v2.4l.1 1.2v1.2l.1 1.3v2.4l.1 1.2v1.2l.1 1.2v2.4l.1 1.2v1.3l.1 1.2v2.4l.1 1.2v1.2l.1 1.2v1.2-36.3h1.3l.1 1.2v1.2l.1 1.2v2.5l.1 1.2v1.2l.1 1.2v2.4l.1 1.2v2.4l.1 1.3v1.2l.1 1.2v2.4l.1 1.2v2.4l.1 1.2v1.3l.1 1.2v2.4l.1 1.2v1.2l.1 1.2v1.2-36.3h1.3v2.4l.1 1.2v2.5l.1 1.2v1.2l.1 1.2v2.4l.1 1.2v2.4l.1 1.3v2.4l.1 1.2v1.2l.1 1.2v2.4l.1 1.2v2.5l.1 1.2v2.4l.1 1.2v1.2l.1 1.2V93.5h1.2v2.4l.1 1.2v2.5l.1 1.2v2.4l.1 1.2v2.4l.1 1.2v2.5l.1 1.2v2.4l.1 1.2v1.2l.1 1.2v2.4l.1 1.3v2.4l.1 1.2v2.4l.1 1.2v1.2-36.3h1.1l.1 1.2v2.4l.1 1.2v2.5l.1 1.2v2.4l.1 1.2v2.4l.1 1.2v2.5l.1 1.2v2.4l.1 1.2v2.4l.1 1.2v2.5l.1 1.2v2.4l.1 1.2v2.4l.1-36.3h1l.1 1.2v2.4l.1 1.2v2.5l.1 1.2v2.4l.1 1.2v2.4l.1 1.2v2.5l.1 1.2v3.6l.1 1.2v2.4l.1 1.3v2.4l.1 1.2v2.4l.1 1.2v2.4l.1-37.5h.9l.1 1.2v2.4l.1 1.2v2.5l.1 1.2v2.4l.1 1.2v3.6l.1 1.3v2.4l.1 1.2v2.4l.1 1.2v3.7l.1 1.2v2.4l.1 1.2v2.4l.1 1.2v1.2-37.5h1v2.4l.1 1.2v3.7l.1 1.2v2.4l.1 1.2v2.4l.1 1.2v3.7l.1 1.2v2.4l.1 1.2v3.7l.1 1.2v2.4l.1 1.2v3.6l.1 1.2V93.5h.9v1.2l.1 1.2v2.4l.1 1.3v3.6l.1 1.2v2.4l.1 1.2v3.7l.1 1.2v2.4l.1 1.2v3.6l.1 1.3v3.6l.1 1.2v2.4l.1 1.2v1.2-37.5h.9v2.4l.1 1.2v2.5l.1 1.2v3.6l.1 1.2v3.6l.1 1.3v2.4l.1 1.2v3.6l.1 1.2v3.7l.1 1.2v2.4l.1 1.2v3.6l.1-37.5h.8v1.2l.1 1.2v3.7l.1 1.2v3.6l.1 1.2v3.6l.1 1.3v2.4l.1 1.2v3.6l.1 1.2v3.7l.1 1.2v3.6l.1 1.2v2.4-37.5h.9v1.2-1.2z"/><path fill="none" stroke="#ef4444" stroke-linejoin="round" stroke-width="1.5" d="m445.5 94.7 32.6 1.2 19.1 1.2 13.6 1.2 10.5 1.3 8.6 1.2 7.2 1.2 6.3 1.2 5.6 1.2 4.9 1.2 4.5 1.2 4.1 1.2 3.8 1.2 3.5 1.3 3.2 1.2 3.1 1.2 2.8 1.2 2.7 1.2 2.6 1.2 2.4 1.2 2.3 1.2 2.2 1.2 2.1 1.3 2 1.2 1.9 1.2 1.8 1.2 1.8 1.2 1.7 1.2 1.7 1.2 1.6 1.2 1.5 1.2 1.5 1.3 1.5 1.2 1.4 1.2 1.3 1.2 1.4 1.2 1.3 1.2 1.2 1.2 1.2 1.2 1.2 1.2 1.2 1.2 1.1 1.3 1.1 1.2 1.1 1.2 1.1 1.2 1 1.2 1 1.2 1 1.2 1 1.2.9 1.2 1 1.3.9 1.2.9 1.2.9 1.2.8 1.2.9 1.2.8 1.2.8 1.2.8 1.2.8 1.3.8 1.2.8 1.2.7 1.2.8 1.2.7-153.8.7 1.2.7 1.2.7 1.2.7 1.3.7 1.2.6 1.2.7 1.2.7 1.2.6 1.2.6 1.2.7 1.2.6 1.2.6 1.3.6 1.2.6 1.2.6 1.2.5 1.2.6 1.2.6 1.2.5 1.2.6 1.2.5 1.3.6 1.2.5 1.2.5 1.2.5 1.2.6 1.2.5 1.2.5 1.2.5 1.2.5 1.3.4 1.2.5 1.2.5 1.2.5 1.2.4 1.2.5 1.2.5 1.2.4 1.2.5 1.2.4 1.3.5 1.2.4 1.2.4 1.2.5 1.2.4 1.2.4 1.2.4 1.2.5 1.2.4 1.3.4 1.2.4 1.2.4 1.2.4 1.2.4 1.2.4 1.2.3 1.2.4 1.2.4 1.3.4 1.2.4 1.2.3 1.2.4 1.2.4 1.2.3 1.2.4 1.2.4 1.2.3 1.3.4 1.2.3 1.2.4 1.2.3 1.2.4 1.2.3 1.2.3 1.2.4 1.2.3 1.3.3 1.2.4 1.2.3 1.2.3 1.2.3 1.2.3 1.2.4 1.2.3 1.2.3 1.3.3 1.2.3 1.2.3 1.2.3 1.2.3 1.2.3 1.2.3 1.2.3 1.2.3 1.3.3 1.2.3 1.2.3 1.2.3 1.2.3 1.2.3 1.2.2 1.2.3 1.2.3 1.2.3 1.3.2 1.2.3 1.2.3 1.2.3 1.2.2 1.2.3 1.2.3 1.2.2 1.2.3 1.3.3 1.2.2 1.2.3 1.2.2 1.2.3 1.2.3 1.2.2 1.2.3 1.2.2 1.3.3 1.2.2 1.2.3 1.2.2 1.2.2-153.8.3 1.2.2 1.2.3 1.2.2 1.3.3 1.2.2 1.2.2 1.2.3 1.2.2 1.2.2 1.2.3 1.2.2 1.2.2 1.3.2 1.2.3 1.2.2 1.2.2 1.2.2 1.2.3 1.2.2 1.2.2 1.2.2 1.3.3 1.2.2 1.2.2 1.2.2 1.2.2 1.2.2 1.2.2 1.2.3 1.2.2 1.2.2 1.3.2 1.2.2 1.2.2 1.2.2 1.2.2 1.2.2 1.2.2 1.2.2 1.2.2 1.3.2 1.2.2 1.2.2 1.2.2 1.2.2 1.2.2 1.2.2 1.2.2 1.2.2 1.3.2 1.2.2 1.2.2 1.2.2 1.2.2 1.2.1 1.2.2 1.2.2 1.2.2 1.3.2 1.2.2 1.2.2 1.2.2 1.2.1 1.2.2 1.2.2 1.2.2 1.2.2 1.3.1 1.2.2 1.2.2 1.2.2 1.2.2 1.2.1 1.2.2 1.2.2 1.2.2 1.3.1 1.2.2 1.2.2 1.2.2 1.2.1 1.2.2 1.2.2 1.2.1 1.2.2 1.3.2 1.2.1 1.2.2 1.2.2 1.2.1 1.2.2 1.2.2 1.2.1 1.2.2 1.3.2 1.2.1 1.2.2 1.2.2 1.2.1 1.2.2 1.2.1 1.2.2 1.2.2 1.2.1 1.3.2 1.2.1 1.2.2 1.2.1 1.2.2 1.2.1 1.2.2 1.2.2 1.2.1 1.3.2 1.2.1 1.2.2 1.2.1 1.2.2 1.2.1 1.2.2 1.2.1 1.2.2 1.3.1 1.2.2 1.2.1 1.2.2 1.2.1-153.8.2 1.2.1 1.2.2 1.2.1 1.3.1 1.2.2 1.2.1 1.2.2 1.2.1 1.2.2 1.2.1 1.2.1 1.2.2 1.3.1 1.2.2 1.2.1 1.2.1 1.2.2 1.2.1 1.2.2 1.2.1 1.2.1 1.3.2 1.2.1 1.2.1 1.2.2 1.2.1 1.2.2 1.2.1 1.2.1 1.2.2 1.2.1 1.3.1 1.2.2 1.2.1 1.2.1 1.2.2 1.2.1 1.2.1 1.2.1 1.2.2 1.3.1 1.2.1 1.2.2 1.2.1 1.2.1 1.2.1 1.2.2 1.2.1 1.2.1 1.3.2 1.2.1 1.2.1 1.2.1 1.2.2 1.2.1 1.2.1 1.2.1 1.2.2 1.3.1 1.2.1 1.2.1 1.2.2 1.2.1 1.2.1 1.2.1 1.2.1 1.2.2 1.3.1 1.2.1 1.2.1 1.2.1 1.2.2 1.2.1 1.2.1 1.2.1 1.2.1 1.3.2 1.2.1 1.2.1 1.2.1 1.2.1 1.2.1 1.2.2 1.2.1 1.2.1 1.3.1 1.2.1 1.2.1 1.2.2 1.2.1 1.2.1 1.2.1 1.2.1 1.2.1 1.3.1 1.2.1 1.2.2 1.2.1 1.2.1 1.2.1 1.2.1 1.2.1 1.2.1 1.2.1 1.3.2 1.2.1 1.2.1 1.2.1 1.2.1 1.2.1 1.2.1 1.2.1 1.2.1 1.3.1 1.2.1 1.2.1 1.2.2 1.2.1 1.2.1 1.2.1 1.2.1 1.2.1 1.3.1 1.2.1 1.2.1 1.2.1 1.2.1-153.8.1 1.2.1 1.2.1 1.2.1 1.3.1 1.2.1 1.2.1 1.2.1 1.2.2 1.2.1 1.2.1 1.2.1 1.2.1 1.3.1 1.2.1 1.2.1 1.2.1 1.2.1 1.2.1 1.2.1 1.2.1 1.2.1 1.3.1 1.2.1 1.2.1 1.2.1 1.2.1 1.2.1 1.2.1 1.2.1 1.2.1 1.2.1 1.3.1 1.2.1 1.2.1 1.2.1 1.2V62l.1 1.2.1 1.2.1 1.2.1 1.3.1 1.2.1 1.2.1 1.2.1 1.2.1 1.2.1 1.2.1 1.2.1 1.2.1 1.3.1 1.2.1 1.2.1 1.2.1 1.2.1 1.2.1 1.2v1.2l.1 1.2.1 1.3.1 1.2.1 1.2.1 1.2.1 1.2.1 1.2.1 1.2.1 1.2.1 1.2.1 1.3.1 1.2v1.2l.1 1.2.1 1.2.1 1.2.1 1.2.1 1.2.1 1.2.1 1.3.1 1.2.1 1.2v1.2l.1 1.2.1 1.2.1 1.2.1 1.2.1 1.2.1 1.3.1 1.2v1.2l.1 1.2.1 1.2.1 1.2.1 1.2.1 1.2.1 1.2.1 1.3v1.2l.1 1.2.1 1.2.1 1.2.1 1.2.1 1.2.1 1.2v1.2l.1 1.2.1 1.3.1 1.2.1 1.2.1 1.2.1 1.2v1.2l.1 1.2.1 1.2.1 1.2.1 1.3.1 1.2v1.2l.1 1.2.1 1.2.1 1.2.1 1.2.1 1.2v1.2l.1 1.3.1 1.2.1 1.2.1 1.2v1.2l.1-153.8.1 1.2.1 1.2.1 1.2.1 1.3v1.2l.1 1.2.1 1.2.1 1.2.1 1.2v1.2l.1 1.2.1 1.2.1 1.3.1 1.2v1.2l.1 1.2.1 1.2.1 1.2.1 1.2v1.2l.1 1.2.1 1.3.1 1.2.1 1.2v1.2l.1 1.2.1 1.2.1 1.2v1.2l.1 1.2.1 1.2.1 1.3.1 1.2v1.2l.1 1.2.1 1.2.1 1.2v1.2l.1 1.2.1 1.2.1 1.3v1.2l.1 1.2.1 1.2.1 1.2v1.2l.1 1.2.1 1.2.1 1.2v1.3l.1 1.2.1 1.2.1 1.2v1.2l.1 1.2.1 1.2.1 1.2v1.2l.1 1.3.1 1.2.1 1.2v1.2l.1 1.2.1 1.2.1 1.2v1.2l.1 1.2.1 1.3.1 1.2v1.2l.1 1.2.1 1.2v1.2l.1 1.2.1 1.2.1 1.2v1.3l.1 1.2.1 1.2v1.2l.1 1.2.1 1.2.1 1.2v1.2l.1 1.2.1 1.3v1.2l.1 1.2.1 1.2.1 1.2v1.2l.1 1.2.1 1.2v1.2l.1 1.2.1 1.3v1.2l.1 1.2.1 1.2.1 1.2v1.2l.1 1.2.1 1.2v1.2l.1 1.3.1 1.2v1.2l.1 1.2.1 1.2v1.2l.1 1.2.1 1.2.1 1.2v1.3l.1-76.3.1 1.2v1.2l.1 1.2.1 1.2V85l.1 1.2.1 1.2v1.3l.1 1.2.1 1.2v1.2l.1 1.2.1 1.2v1.2l.1 1.2.1 1.2v1.3l.1 1.2.1 1.2v1.2l.1 1.2.1 1.2v1.2l.1 1.2.1 1.2v1.3l.1 1.2.1 1.2v1.2l.1 1.2.1 1.2v1.2l.1 1.2.1 1.2v1.3l.1 1.2v1.2l.1 1.2.1 1.2v1.2l.1 1.2.1 1.2v1.2l.1 1.3.1 1.2v1.2l.1 1.2.1 1.2V60.8l.1 1.2v1.2l.1 1.2.1 1.2v1.3l.1 1.2.1 1.2v1.2l.1 1.2v1.2l.1 1.2.1 1.2v1.2l.1 1.3.1 1.2v1.2l.1 1.2v1.2l.1 1.2.1 1.2v1.2l.1 1.2.1 1.3v1.2l.1 1.2v1.2l.1 1.2.1 1.2v1.2l.1 1.2v1.2l.1 1.3.1 1.2v1.2l.1 1.2v1.2l.1 1.2.1 1.2v1.2l.1 1.2.1 1.3v1.2l.1 1.2v1.2l.1 1.2.1 1.2v1.2l.1 1.2v1.2l.1 1.3v1.2l.1 1.2.1 1.2v1.2l.1 1.2v1.2l.1 1.2.1 1.2v1.2l.1-76.2v1.2l.1 1.2.1 1.2v1.2l.1 1.2v1.2l.1 1.2v1.2l.1 1.3.1 1.2v1.2l.1 1.2v1.2l.1 1.2.1 1.2v1.2l.1 1.2v1.3l.1 1.2v1.2l.1 1.2.1 1.2v1.2l.1 1.2v1.2l.1 1.2v1.3l.1 1.2.1 1.2v1.2l.1 1.2v1.2l.1 1.2v1.2l.1 1.2.1 1.3v1.2l.1 1.2v1.2l.1 1.2v1.2l.1 1.2v1.2l.1 1.2.1 1.3v1.2l.1 1.2v1.2l.1 1.2v1.2l.1 1.2v1.2l.1 1.2.1 1.3v1.2l.1 1.2v1.2l.1 1.2v1.2l.1 1.2v1.2l.1-76.3v1.2l.1 1.3.1 1.2v1.2l.1 1.2v1.2l.1 1.2v1.2l.1 1.2v1.2l.1 1.3v1.2l.1 1.2.1 1.2v1.2l.1 1.2v1.2l.1 1.2v1.2l.1 1.3V79l.1 1.2v1.2l.1 1.2v1.2l.1 1.2v1.2l.1 1.2v1.3l.1 1.2.1 1.2v1.2l.1 1.2v1.2l.1 1.2v1.2l.1 1.2v1.3l.1 1.2v1.2l.1 1.2v1.2l.1 1.2v1.2l.1 1.2v1.2l.1 1.3v1.2l.1 1.2v1.2l.1 1.2v1.2l.1 1.2.1 1.2v1.2l.1 1.3v1.2l.1 1.2v1.2l.1 1.2v1.2l.1 1.2v1.2l.1-76.3v1.2l.1 1.3v1.2l.1 1.2v1.2l.1 1.2V62l.1 1.2v1.2l.1 1.2v1.3l.1 1.2v1.2l.1 1.2v1.2l.1 1.2v1.2l.1 1.2v1.2l.1 1.3V79l.1 1.2v1.2l.1 1.2v1.2l.1 1.2v1.2l.1 1.2v1.3l.1 1.2v1.2l.1 1.2v1.2l.1 1.2v1.2l.1 1.2v1.2l.1 1.3v1.2l.1 1.2v2.4l.1 1.2v1.2l.1 1.2v1.2l.1 1.3v1.2l.1 1.2v1.2l.1 1.2v1.2l.1 1.2v1.2l.1 1.2v1.3l.1 1.2v1.2l.1 1.2v1.2l.1 1.2v1.2l.1 1.2V53.5l.1 1.2v2.5l.1 1.2v1.2l.1 1.2V62l.1 1.2v1.2l.1 1.2v1.3l.1 1.2v1.2l.1 1.2v1.2l.1 1.2v1.2l.1 1.2v2.5l.1 1.2v1.2l.1 1.2v1.2l.1 1.2V85l.1 1.2v1.2l.1 1.3v1.2l.1 1.2v2.4l.1 1.2v1.2l.1 1.2v1.2l.1 1.3v1.2l.1 1.2v1.2l.1 1.2v1.2l.1 1.2v2.4l.1 1.3v1.2l.1 1.2v1.2l.1 1.2v1.2l.1 1.2v1.2l.1 1.2v2.5l.1 1.2v1.2l.1 1.2v1.2l.1 1.2v1.2l.1-76.3V56l.1 1.2v1.2l.1 1.2v1.2l.1 1.2v1.2l.1 1.2v2.5l.1 1.2v1.2l.1 1.2v1.2l.1 1.2v1.2l.1 1.2v2.5l.1 1.2v1.2l.1 1.2v1.2l.1 1.2v2.4l.1 1.2v1.3l.1 1.2v1.2l.1 1.2v2.4l.1 1.2v1.2l.1 1.2v1.3l.1 1.2v2.4l.1 1.2v1.2l.1 1.2v1.2l.1 1.2v2.5l.1 1.2v1.2l.1 1.2v1.2l.1 1.2v2.4l.1 1.3v1.2l.1 1.2v1.2l.1 1.2v2.4l.1 1.2V53.5l.1 1.3V56l.1 1.2v2.4l.1 1.2V62l.1 1.2v2.4l.1 1.3v1.2l.1 1.2v1.2l.1 1.2v2.4l.1 1.2v1.2l.1 1.3v2.4l.1 1.2v1.2l.1 1.2V85l.1 1.2v2.5l.1 1.2v1.2l.1 1.2v2.4l.1 1.2v1.2l.1 1.2v2.5l.1 1.2v1.2l.1 1.2v2.4l.1 1.2v1.2l.1 1.3v2.4l.1 1.2v1.2l.1 1.2v2.4l.1 1.2v1.3l.1 1.2v2.4l.1 1.2v1.2l.1 1.2v1.2-76.3l.1 1.2V56l.1 1.2v2.4l.1 1.2V62l.1 1.2v2.4l.1 1.3v1.2l.1 1.2v2.4l.1 1.2v1.2l.1 1.2v2.5l.1 1.2v1.2l.1 1.2v2.4l.1 1.2v2.4l.1 1.3v1.2l.1 1.2v2.4l.1 1.2v1.2l.1 1.2v2.5l.1 1.2v1.2l.1 1.2v2.4l.1 1.2v2.4l.1 1.3v1.2l.1 1.2v2.4l.1 1.2v2.4l.1 1.2v1.3l.1 1.2v2.4l.1 1.2v1.2l.1 1.2v1.2-76.3l.1 1.3v2.4l.1 1.2v1.2l.1 1.2v2.4l.1 1.2v2.5l.1 1.2v1.2l.1 1.2v2.4l.1 1.2v2.4l.1 1.3V79l.1 1.2v2.4l.1 1.2v2.4l.1 1.2v2.5l.1 1.2v1.2l.1 1.2v2.4l.1 1.2v2.5l.1 1.2v1.2l.1 1.2v2.4l.1 1.2v2.4l.1 1.3v2.4l.1 1.2v1.2l.1 1.2v2.4l.1 1.2v2.5l.1 1.2v2.4l.1 1.2v1.2l.1 1.2V53.5v1.3l.1 1.2v2.4l.1 1.2V62l.1 1.2v2.4l.1 1.3v1.2l.1 1.2v2.4l.1 1.2v2.4l.1 1.2V79l.1 1.2v2.4l.1 1.2v2.4l.1 1.2v1.3l.1 1.2v2.4l.1 1.2v2.4l.1 1.2v2.5l.1 1.2v2.4l.1 1.2v2.4l.1 1.2v2.5l.1 1.2v2.4l.1 1.2v1.2l.1 1.2v2.4l.1 1.3v2.4l.1 1.2v2.4l.1 1.2v1.2-76.3l.1 1.2v2.5l.1 1.2v2.4l.1 1.2v2.4l.1 1.2v2.5l.1 1.2v2.4l.1 1.2v2.4l.1 1.2V79l.1 1.2v2.4l.1 1.2v2.4l.1 1.2v2.5l.1 1.2v2.4l.1 1.2v2.4l.1 1.2v2.5l.1 1.2v2.4l.1 1.2v2.4l.1 1.2v2.5l.1 1.2v2.4l.1 1.2v2.4l.1 1.2v2.5l.1 1.2v2.4l.1 1.2v2.4l.1-76.3V56l.1 1.2v2.4l.1 1.2v2.4l.1 1.2v2.5l.1 1.2v2.4l.1 1.2v2.4l.1 1.2v2.5l.1 1.2v2.4l.1 1.2v3.6l.1 1.2v2.5l.1 1.2v2.4l.1 1.2v2.4l.1 1.2v2.5l.1 1.2v2.4l.1 1.2v2.4l.1 1.2v2.5l.1 1.2v3.6l.1 1.2v2.4l.1 1.3v2.4l.1 1.2v2.4l.1 1.2v2.4l.1-76.3v3.7l.1 1.2V62l.1 1.2v2.4l.1 1.3v2.4l.1 1.2v2.4l.1 1.2v3.7l.1 1.2v2.4l.1 1.2V85l.1 1.2v2.5l.1 1.2v3.6l.1 1.2v2.4l.1 1.2v2.5l.1 1.2v2.4l.1 1.2v3.6l.1 1.3v2.4l.1 1.2v2.4l.1 1.2v3.7l.1 1.2v2.4l.1 1.2v2.4l.1 1.2v1.2-76.2V56l.1 1.2v2.4l.1 1.2v2.4l.1 1.2v3.7l.1 1.2v2.4l.1 1.2v2.4l.1 1.2v3.7l.1 1.2v2.4l.1 1.2v2.4l.1 1.3v3.6l.1 1.2v2.4l.1 1.2v3.7l.1 1.2v2.4l.1 1.2v2.4l.1 1.2v3.7l.1 1.2v2.4l.1 1.2v3.7l.1 1.2v2.4l.1 1.2v3.6l.1 1.2V54.8 56l.1 1.2v3.6l.1 1.2v2.4l.1 1.2v3.7l.1 1.2v2.4l.1 1.2v3.7l.1 1.2v2.4l.1 1.2v3.6l.1 1.2v2.5l.1 1.2v3.6l.1 1.2v2.4l.1 1.3v3.6l.1 1.2v2.4l.1 1.2v3.7l.1 1.2v2.4l.1 1.2v3.6l.1 1.3v3.6l.1 1.2v2.4l.1 1.2v1.2-76.3V56l.1 1.2v2.4l.1 1.2v3.6l.1 1.2v3.7l.1 1.2v2.4l.1 1.2v3.7l.1 1.2v3.6l.1 1.2v2.4l.1 1.2v3.7l.1 1.2v3.6l.1 1.2v2.5l.1 1.2v3.6l.1 1.2v3.6l.1 1.3v2.4l.1 1.2v3.6l.1 1.2v3.7l.1 1.2v2.4l.1 1.2v3.6l.1-76.3v3.7l.1 1.2v3.6l.1 1.2v2.5l.1 1.2v3.6l.1 1.2v3.6l.1 1.3v3.6l.1 1.2v3.6l.1 1.2v2.5l.1 1.2v3.6l.1 1.2v3.7l.1 1.2v3.6l.1 1.2v3.6l.1 1.3v2.4l.1 1.2v3.6l.1 1.2v3.7l.1 1.2v3.6l.1 1.2v2.4-76.3l.1 1.3v3.6l.1 1.2v3.6l.1 1.2v3.7l.1 1.2v2.4l.1 1.2v3.7l.1 1.2v3.6l.1 1.2v3.6l.1 1.3v3.6l.1 1.2v1.2"/></g><path stroke="#d1d5db" d="M34 221v155m0-77.5h358"/><text x="213" y="402" fill="#6b7280" font-size="9" text-anchor="middle">Hz</text><text x="12" y="298.5" fill="#6b7280" font-size="9" text-anchor="middle" transform="rotate(-90 12 298.5)">Delay (smp)</text><path stroke="#e5e7eb" stroke-width=".5" d="M66.6 221v155m19.1-155v155m13.6-155v155m10.5-155v155m8.6-155v155m7.3-155v155m6.2-155v155m5.6-155v155m37.6-155v155m19.1-155v155m13.5-155v155m10.6-155v155m8.5-155v155m7.3-155v155m6.3-155v155m5.5-155v155m37.6-155v155m19.1-155v155m13.6-155v155m10.5-155v155m8.6-155v155m7.3-155v155m6.2-155v155m5.6-155v155M392 221v155M142.5 221v155"/><text x="142.5" y="388" fill="#6b7280" font-size="8" text-anchor="middle">100</text><path stroke="#e5e7eb" stroke-width=".5" d="M250.9 221v155"/><text x="250.9" y="388" fill="#6b7280" font-size="8" text-anchor="middle">1k</text><path stroke="#e5e7eb" stroke-width=".5" d="M359.4 221v155"/><text x="359.4" y="388" fill="#6b7280" font-size="8" text-anchor="middle">10k</text><path stroke="#e5e7eb" stroke-width=".5" d="M34 376h358"/><text x="30" y="379" fill="#6b7280" font-size="8" text-anchor="end">-100</text><path stroke="#e5e7eb" stroke-width=".5" d="M34 337.3h358"/><text x="30" y="340.3" fill="#6b7280" font-size="8" text-anchor="end">-50</text><text x="30" y="301.5" fill="#6b7280" font-size="8" text-anchor="end">0</text><path stroke="#e5e7eb" stroke-width=".5" d="M34 259.8h358"/><text x="30" y="262.8" fill="#6b7280" font-size="8" text-anchor="end">50</text><path stroke="#e5e7eb" stroke-width=".5" d="M34 221h358"/><text x="30" y="224" fill="#6b7280" font-size="8" text-anchor="end">100</text><g clip-path="url(#f)"><path fill="url(#g)" d="M37.5 298.5v-24.8h307.9v24.8h.1l.1-24.8h3l.1 24.8.1-24.8h3.5v24.8h.1v-24.8h3.4v24.8h.1v-24.8h3.3v24.8h.1v-24.8h3l.1 24.8.1-24.8h2.8v24.8h.1v-24.8h2.6l.1 24.8.1-24.8h2.5v24.8l.1-24.8h2.4v24.8l.1-24.8h2.2l.1 24.8v-24.8h2.2v24.8l.1-24.8h2v24.8h.1v-24.8h2v24.8h.1v-24.8h1.9v24.8-24.8h1.8l.1 24.8v-24.8h1.8v24.8-24.8h1.7v24.8h.1v-24.8h1.6v24.8l.1-24.8h.8v24.8z"/><path fill="url(#h)" d="M37.5 298.5h307.9V376h.1l.1-77.5h3l.1 77.5.1-77.5h3.5V376h.1v-77.5h3.4V376h.1v-77.5h3.3V376h.1v-77.5h3l.1 77.5.1-77.5h2.8V376h.1v-77.5h2.6l.1 77.5.1-77.5h2.5V376l.1-77.5h2.4V376l.1-77.5h2.2l.1 77.5v-77.5h2.2V376l.1-77.5h2V376h.1v-77.5h2V376h.1v-77.5h1.9V376v-77.5h1.8l.1 77.5v-77.5h1.8V376v-77.5h1.7V376h.1v-77.5h1.6V376l.1-77.5h.8z"/><path fill="none" stroke="#22c55e" stroke-linejoin="round" stroke-width="1.5" d="M37.5 273.7h307.9V376m.1 0 .1-102.3h3l.1 102.3"/><path fill="none" stroke="#22c55e" stroke-linejoin="round" stroke-width="1.5" d="m348.7 376 .1-102.3h3.5V376m.1 0V273.7h3.4V376m.1 0V273.7h3.3V376m.1 0V273.7h3l.1 102.3"/><path fill="none" stroke="#22c55e" stroke-linejoin="round" stroke-width="1.5" d="m362.4 376 .1-102.3h2.8V376m.1 0V273.7h2.6l.1 102.3m0 0 .1-102.3h2.5V376"/><path fill="none" stroke="#22c55e" stroke-linejoin="round" stroke-width="1.5" d="m370.7 376 .1-102.3h2.4V376m0 0 .1-102.3h2.2l.1 102.3m0 0V273.7h2.2V376m0 0 .1-102.3h2V376m.1 0V273.7h2V376m.1 0V273.7h1.9V376m0 0V273.7h1.8l.1 102.3"/><path fill="none" stroke="#22c55e" stroke-linejoin="round" stroke-width="1.5" d="M385.9 376V273.7h1.8V376m0 0V273.7h1.7V376m.1 0V273.7h1.6V376m0 0 .1-102.3h.8"/></g><path stroke="#d1d5db" d="M442 221v155m0-77.5h358"/><text x="621" y="402" fill="#6b7280" font-size="9" text-anchor="middle">Samples</text><text x="420" y="298.5" fill="#6b7280" font-size="9" text-anchor="middle" transform="rotate(-90 420 298.5)">Impulse</text><path stroke="#e5e7eb" stroke-width=".5" d="M442 221v155"/><text x="442" y="388" fill="#6b7280" font-size="8" text-anchor="middle">0</text><path stroke="#e5e7eb" stroke-width=".5" d="M607.2 221v155"/><text x="607.2" y="388" fill="#6b7280" font-size="8" text-anchor="middle">30</text><path stroke="#e5e7eb" stroke-width=".5" d="M772.5 221v155"/><text x="772.5" y="388" fill="#6b7280" font-size="8" text-anchor="middle">60</text><path stroke="#e5e7eb" stroke-width=".5" d="M442 363.1h358"/><text x="438" y="366.1" fill="#6b7280" font-size="8" text-anchor="end">-1</text><text x="438" y="301.5" fill="#6b7280" font-size="8" text-anchor="end">0</text><path stroke="#e5e7eb" stroke-width=".5" d="M442 233.9h358"/><text x="438" y="236.9" fill="#6b7280" font-size="8" text-anchor="end">1</text><path stroke="#e5e7eb" stroke-dasharray="3 2" stroke-width=".5" d="M442 233.9h358"/><text x="438" y="236.9" fill="#6b7280" font-size="7" text-anchor="end">+1</text><path stroke="#e5e7eb" stroke-dasharray="3 2" stroke-width=".5" d="M442 363.1h358"/><text x="438" y="366.1" fill="#6b7280" font-size="7" text-anchor="end">-1</text><g clip-path="url(#i)"><path fill="url(#j)" d="M442 298.5h44.1l5.5-.1h11l5.5.1h44.1l5.5-1 5.5-.9 5.5.1 5.5 1.8h22l5.5-9.5 5.5-11.4 5.5-9.3 5.5-3.6 5.6 3.6 5.5 9.3 5.5 11.4 5.5 9.5h22l5.5-1.8 5.5-.1 5.5.9 5.5 1h44.1l5.5-.1h11l5.5.1h44.1z"/><path fill="url(#k)" d="M442 298.5h27.5l5.5.1h5.6l5.5-.1h22l5.5.1h5.5l5.5-.1h5.5l5.5.2 5.5.3h5.5l5.6-.5h22l5.5 3 5.5 2.5 5.5-.4 5.5-5.1h44.1l5.5 5.1 5.5.4 5.5-2.5 5.5-3h22l5.5.5h5.6l5.5-.3 5.5-.2h5.5l5.5.1h5.5l5.5-.1h22l5.5.1h5.5l5.6-.1h27.5z"/><path fill="none" stroke="#eab308" stroke-linejoin="round" stroke-width="1.2" d="M442 298.5h27.5l5.5.1h5.6l5.5-.1 5.5-.1h11l5.5.1 5.5.1h5.5l5.5-.1h5.5l5.5.2 5.5.3h5.5l5.6-.5 5.5-1 5.5-.9 5.5.1 5.5 1.8 5.5 3 5.5 2.5 5.5-.4 5.5-5.1 5.5-9.5 5.5-11.4 5.5-9.3 5.5-3.6 5.6 3.6 5.5 9.3 5.5 11.4 5.5 9.5 5.5 5.1 5.5.4 5.5-2.5 5.5-3 5.5-1.8 5.5-.1 5.5.9 5.5 1 5.5.5h5.6l5.5-.3 5.5-.2h5.5l5.5.1h5.5l5.5-.1 5.5-.1h11l5.5.1 5.5.1h5.5l5.6-.1h27.5"/></g></svg>