<svg xmlns="http://www.w3.org/2000/svg" style="font-family:system-ui,-apple-system,sans-serif" viewBox="0 0 820 392"><defs><linearGradient id="b" x1="0" x2="0" y1="48" y2="171" gradientUnits="userSpaceOnUse"><stop offset="0%" stop-color="#3b82f6" stop-opacity=".15"/><stop offset="100%" stop-color="#3b82f6" stop-opacity=".01"/></linearGradient><linearGradient id="d" x1="0" x2="0" y1="94" y2="171" gradientUnits="userSpaceOnUse"><stop offset="0%" stop-color="#ef4444" stop-opacity=".01"/><stop offset="100%" stop-color="#ef4444" stop-opacity=".15"/></linearGradient><linearGradient id="f" x1="0" x2="0" y1="299" y2="300" gradientUnits="userSpaceOnUse"><stop offset="0%" stop-color="#22c55e" stop-opacity=".01"/><stop offset="100%" stop-color="#22c55e" stop-opacity=".15"/></linearGradient><linearGradient id="h" x1="0" x2="0" y1="282" y2="299" gradientUnits="userSpaceOnUse"><stop offset="0%" stop-color="#eab308" stop-opacity=".15"/><stop offset="100%" stop-color="#eab308" stop-opacity=".01"/></linearGradient><linearGradient id="i" x1="0" x2="0" y1="299" y2="325" gradientUnits="userSpaceOnUse"><stop offset="0%" stop-color="#eab308" stop-opacity=".01"/><stop offset="100%" stop-color="#eab308" stop-opacity=".15"/></linearGradient><clipPath id="a"><path d="M34 16h358v155H34z"/></clipPath><clipPath id="c"><path d="M442 16h358v155H442z"/></clipPath><clipPath id="e"><path d="M34 221h358v155H34z"/></clipPath><clipPath id="g"><path d="M442 221h358v155H442z"/></clipPath></defs><text x="800" y="11" fill="#6b7280" font-size="11" font-weight="600" text-anchor="end">RLS convergence, λ=0.99</text><path stroke="#d1d5db" d="M34 16v155m0-124h358"/><text x="213" y="197" fill="#6b7280" font-size="9" text-anchor="middle">Hz</text><text x="12" y="93.5" fill="#6b7280" font-size="9" text-anchor="middle" transform="rotate(-90 12 93.5)">dB</text><path stroke="#e5e7eb" stroke-width=".5" d="M66.6 16v155M85.7 16v155M99.3 16v155m10.5-155v155m8.6-155v155m7.3-155v155m6.2-155v155m5.6-155v155m37.6-155v155m19.1-155v155m13.5-155v155m10.6-155v155m8.5-155v155m7.3-155v155m6.3-155v155m5.5-155v155m37.6-155v155m19.1-155v155m13.6-155v155m10.5-155v155m8.6-155v155m7.3-155v155m6.2-155v155m5.6-155v155M392 16v155M34 16v155"/><text x="34" y="183" fill="#6b7280" font-size="8" text-anchor="middle">10</text><path stroke="#e5e7eb" stroke-width=".5" d="M142.5 16v155"/><text x="142.5" y="183" fill="#6b7280" font-size="8" text-anchor="middle">100</text><path stroke="#e5e7eb" stroke-width=".5" d="M250.9 16v155"/><text x="250.9" y="183" fill="#6b7280" font-size="8" text-anchor="middle">1k</text><path stroke="#e5e7eb" stroke-width=".5" d="M359.4 16v155"/><text x="359.4" y="183" fill="#6b7280" font-size="8" text-anchor="middle">10k</text><path stroke="#e5e7eb" stroke-width=".5" d="M34 171h358M34 140h358M34 109h358M34 78h358M34 16h358M34 62.5h358m-358-31h358"/><text x="30" y="174" fill="#6b7280" font-size="8" text-anchor="end">-80</text><text x="30" y="143" fill="#6b7280" font-size="8" text-anchor="end">-60</text><text x="30" y="112" fill="#6b7280" font-size="8" text-anchor="end">-40</text><text x="30" y="81" fill="#6b7280" font-size="8" text-anchor="end">-20</text><text x="30" y="50" fill="#6b7280" font-size="8" text-anchor="end">0</text><text x="30" y="19" fill="#6b7280" font-size="8" text-anchor="end">+20</text><g clip-path="url(#a)"><path fill="url(#b)" d="M37.5 171V67.7h170.1l1.2-.1h18.3l.8-.1h11l.7-.1h5.4l.6-.1h4.9l.5-.1h2.9l.5-.1h2.7l.5-.1h3l.4-.1h3.5l.4-.1h4l.3-.1h2.7l.3-.1h1.3l.3-.1h1.2l.3-.1h1.8l.3-.1h1.7l.3-.1h1.6l.3-.1h1.5l.3-.1h1.5l.3-.1h1.2l.2-.1h1.2l.2-.1h.9l.3-.1h.9l.2-.1h1.1l.2-.1h.9l.2-.1h1l.2-.1h1l.2-.1h1l.2-.1h1.3l.2-.1h1.9l.2-.1h1.6l.1-.1h1.2l.2-.1h1.3l.2-.1h.8l.2-.1h.8l.1-.1h.6l.2-.1h.8l.1-.1h.9l.2-.1h.7l.2-.1h.5l.2-.1h.7l.1-.1h.7l.2-.1h.6l.2-.1h.5l.2-.1h.8l.1-.1h.6l.2-.1h.5l.1-.1h.5l.1-.1h.5l.2-.1h.6l.1-.1h.7l.1-.1h1.1l.1-.1h1.5l.1-.1h1.7l.1-.1h6.8l.1-.1h2.4l.1-.1h9.3l.1.1h1.4l.1.1h1.3l.1.1h1.8l.1.1h1.5v.1h1.5l.1.1h1.1l.1.1h.7l.1.1h.7l.1.1h.5l.1.1h.7v.1h.8v.1h.7v.1h.6l.1.1h.5l.1.1h1v.1h.7l.1.1h1.1v.1h1.4l.1-.1h2.3l.1-.1h.5l.1-.1h.6l.1-.1h.4v-.1h.3l.1-.1h.3l.1-.1h.3v-.1h.3v-.1h.2l.1-.1h.2v-.1h.1l.1-.1h.1l.1-.1h.1l.1-.1h.1l.1-.1h.1l.1-.1h.1v-.1h.2v-.1h.2v-.1h.2V62h.2v-.1h.1l.1-.1.1-.1h.1v-.1h.1l.1-.1h.1l.1-.1h.1v-.1h.1v-.1h.2v-.1h.1l.1-.1h.1v-.1h.1l.1-.1h.1v-.1h.2v-.1h.1l.1-.1h.1v-.1h.1l.1-.1h.1v-.1h.1v-.1h.1l.1-.1h.1v-.1h.1v-.1h.1v-.1h.2v-.1h.1v-.1h.2v-.1h.2v-.1h.1v-.1h.2v-.1h.1V59h.1l.1-.1.1-.1.1-.1h.1v-.1l.1-.1.1-.1.1-.1h.1v-.1h.1v-.1h.1V58h.1l.1-.1.1-.1h.1v-.1h.1v-.1h.1l.1-.1h.1v-.1h.1l.1-.1h.1v-.1h.1v-.1h.2V57h.1v-.1h.1l.1-.1h.1v-.1h.1l.1-.1h.1v-.1h.1l.1-.1h.1v-.1h.1v-.1h.2v-.1h.1l.1-.1h.1v-.1h.1l.1-.1h.1v-.1h.2v-.1h.2v-.1h.2v-.1h.2v-.1h.2v-.1h.2v-.1h.2V55h.2v-.1h.1v-.1h.1l.1-.1h.1l.1-.1h.1l.1-.1h.1v-.1h.2v-.1h.1l.1-.1h.1v-.1h.2V54h.2v-.1h.1l.1-.1h.1v-.1h.1l.1-.1h.1v-.1h.1l.1-.1h.1v-.1h.1v-.1h.1l.1-.1h.1V53h.1l.1-.1h.1v-.1h.1v-.1h.1v-.1h.1l.1-.1h.1v-.1h.1v-.1h.2v-.1h.1v-.1h.2V52h.1v-.1h.2v-.1h.2v-.1h.2l.1-.1h.1l.1-.1h.1v-.1h.2v-.1h.1v-.1h.2v-.1h.2V51h.2v-.1h.1v-.1h.1l.1-.1h.1v-.1h.2v-.1h.2v-.1h.2v-.1h.2v-.1h.1l.1-.1h.1V50h.1l.1-.1h.1v-.1h.2v-.1h.2l.1-.1h.2v-.1h.2v-.1h.2v-.1h.2v-.1h.2v-.1h.2V49h.3v-.1h.3v-.1h.3l.1-.1h.3v-.1h.3v-.1h.4v-.1h.3v-.1h.2V171z"/><path fill="none" stroke="#3b82f6" stroke-linejoin="round" stroke-width="1.5" d="M37.5 67.7h170.1l1.2-.1h18.3l.8-.1h11l.7-.1h5.4l.6-.1h4.9l.5-.1h2.9l.5-.1h2.7l.5-.1h3l.4-.1h3.5l.4-.1h4l.3-.1h2.7l.3-.1h1.3l.3-.1h1.2l.3-.1h1.8l.3-.1h1.7l.3-.1h1.6l.3-.1h1.5l.3-.1h1.5l.3-.1h1.2l.2-.1h1.2l.2-.1h.9l.3-.1h.9l.2-.1h1.1l.2-.1h.9l.2-.1h1l.2-.1h1l.2-.1h1l.2-.1h1.3l.2-.1h1.9l.2-.1h1.6l.1-.1h1.2l.2-.1h1.3l.2-.1h.8l.2-.1h.8l.1-.1h.6l.2-.1h.8l.1-.1h.9l.2-.1h.7l.2-.1h.5l.2-.1h.7l.1-.1h.7l.2-.1h.6l.2-.1h.5l.2-.1h.8l.1-.1h.6l.2-.1h.5l.1-.1h.5l.1-.1h.5l.2-.1h.6l.1-.1h.7l.1-.1h1.1l.1-.1h1.5l.1-.1h1.7l.1-.1h6.8l.1-.1h2.4l.1-.1h9.3l.1.1h1.4l.1.1h1.3l.1.1h1.8l.1.1h1.5v.1h1.5l.1.1h1.1l.1.1h.7l.1.1h.7l.1.1h.5l.1.1h.7v.1h.8v.1h.7v.1h.6l.1.1h.5l.1.1h1v.1h.7l.1.1h1.1v.1h1.4l.1-.1h2.3l.1-.1h.5l.1-.1h.6l.1-.1h.4v-.1h.3l.1-.1h.3l.1-.1h.3v-.1h.3v-.1h.2l.1-.1h.2v-.1h.1l.1-.1h.1l.1-.1h.1l.1-.1h.1l.1-.1h.1l.1-.1h.1v-.1h.2v-.1h.2v-.1h.2V62h.2v-.1h.1l.1-.1.1-.1h.1v-.1h.1l.1-.1h.1l.1-.1h.1v-.1h.1v-.1h.2v-.1h.1l.1-.1h.1v-.1h.1l.1-.1h.1v-.1h.2v-.1h.1l.1-.1h.1v-.1h.1l.1-.1h.1v-.1h.1v-.1h.1l.1-.1h.1v-.1h.1v-.1h.1v-.1h.2v-.1h.1v-.1h.2v-.1h.2v-.1h.1v-.1h.2v-.1h.1V59h.1l.1-.1.1-.1.1-.1h.1v-.1l.1-.1.1-.1.1-.1h.1v-.1h.1v-.1h.1V58h.1l.1-.1.1-.1h.1v-.1h.1v-.1h.1l.1-.1h.1v-.1h.1l.1-.1h.1v-.1h.1v-.1h.2V57h.1v-.1h.1l.1-.1h.1v-.1h.1l.1-.1h.1v-.1h.1l.1-.1h.1v-.1h.1v-.1h.2v-.1h.1l.1-.1h.1v-.1h.1l.1-.1h.1v-.1h.2v-.1h.2v-.1h.2v-.1h.2v-.1h.2v-.1h.2v-.1h.2V55h.2v-.1h.1v-.1h.1l.1-.1h.1l.1-.1h.1l.1-.1h.1v-.1h.2v-.1h.1l.1-.1h.1v-.1h.2V54h.2v-.1h.1l.1-.1h.1v-.1h.1l.1-.1h.1v-.1h.1l.1-.1h.1v-.1h.1v-.1h.1l.1-.1h.1V53h.1l.1-.1h.1v-.1h.1v-.1h.1v-.1h.1l.1-.1h.1v-.1h.1v-.1h.2v-.1h.1v-.1h.2V52h.1v-.1h.2v-.1h.2v-.1h.2l.1-.1h.1l.1-.1h.1v-.1h.2v-.1h.1v-.1h.2v-.1h.2V51h.2v-.1h.1v-.1h.1l.1-.1h.1v-.1h.2v-.1h.2v-.1h.2v-.1h.2v-.1h.1l.1-.1h.1V50h.1l.1-.1h.1v-.1h.2v-.1h.2l.1-.1h.2v-.1h.2v-.1h.2v-.1h.2v-.1h.2v-.1h.2V49h.3v-.1h.3v-.1h.3l.1-.1h.3v-.1h.3v-.1h.4v-.1h.3v-.1h.2"/></g><path stroke="#d1d5db" d="M442 16v155m0-77.5h358"/><text x="621" y="197" fill="#6b7280" font-size="9" text-anchor="middle">Hz</text><text x="420" y="93.5" fill="#6b7280" font-size="9" text-anchor="middle" transform="rotate(-90 420 93.5)">Phase (deg)</text><path stroke="#e5e7eb" stroke-width=".5" d="M474.6 16v155m19.1-155v155m13.6-155v155m10.5-155v155m8.6-155v155m7.3-155v155m6.2-155v155m5.6-155v155m37.6-155v155m19.1-155v155m13.5-155v155m10.6-155v155m8.5-155v155m7.3-155v155m6.3-155v155m5.5-155v155m37.6-155v155m19.1-155v155m13.6-155v155m10.5-155v155m8.6-155v155m7.3-155v155m6.2-155v155m5.6-155v155M800 16v155M442 16v155"/><text x="442" y="183" fill="#6b7280" font-size="8" text-anchor="middle">10</text><path stroke="#e5e7eb" stroke-width=".5" d="M550.5 16v155"/><text x="550.5" y="183" fill="#6b7280" font-size="8" text-anchor="middle">100</text><path stroke="#e5e7eb" stroke-width=".5" d="M658.9 16v155"/><text x="658.9" y="183" fill="#6b7280" font-size="8" text-anchor="middle">1k</text><path stroke="#e5e7eb" stroke-width=".5" d="M767.4 16v155"/><text x="767.4" y="183" fill="#6b7280" font-size="8" text-anchor="middle">10k</text><path stroke="#e5e7eb" stroke-width=".5" d="M442 54.8h358m-358 77.5h358M442 16h358"/><text x="438" y="19" fill="#6b7280" font-size="8" text-anchor="end">+180</text><text x="438" y="96.5" fill="#6b7280" font-size="8" text-anchor="end">0</text><path stroke="#e5e7eb" stroke-width=".5" d="M442 171h358"/><text x="438" y="174" fill="#6b7280" font-size="8" text-anchor="end">-180</text><g clip-path="url(#c)"><path fill="url(#d)" d="M445.5 93.5V171l32.6-.1h19.1l13.6-.1h10.5l8.6-.1h7.2l6.3-.1h10.5l4.5-.1h7.9l3.5-.1h6.3l2.8-.1h5.3l2.4-.1h2.3l2.2-.1h2.1l2-.1h1.9l1.8-.1h1.8l1.7-.1h1.7l1.6-.1h1.5l1.5-.1h1.5l1.4-.1h1.3l1.4-.1h2.5l1.2-.1h1.2l1.2-.1h2.2l1.1-.1h1.1l1-.1h1l1-.1h1.9l1-.1h.9l.9-.1h.9l.8-.1h1.7l.8-.1h.8l.8-.1h1.6l.7-.1h1.5l.7-.1h.7l.7-.1h1.4l.6-.1h.7l.7-.1h.6l.6-.1h.7l.6-.1h1.2l.6-.1h1.1l.6-.1h.6l.5-.1h.6l.5-.1h1.1l.5-.1h.5l.6-.1h1l.5-.1h.5l.4-.1h1l.5-.1h.9l.5-.1h.9l.4-.1h1.3l.5-.1h1.2l.5-.1h.8l.4-.1h1.2l.4-.1h1.1l.4-.1h.7l.4-.1h.7l.4-.1h.7l.4-.1h.7l.3-.1h.7l.3-.1h.4l.3-.1h.7l.3-.1h.3l.3-.1h.7l.3-.1h.6l.3-.1h.9l.3-.1h1.2l.3-.1h.9l.3-.1h.8l.3-.1h.8l.3-.1h.8l.2-.1h1.1l.2-.1h.8l.3-.1h.7l.3-.1h.7l.2-.1h.8l.2-.1h.7l.2-.1h.9l.3-.1h1.1l.2-.1h1.5l.2-.1h1.7l.2-.1h4.7l.2-.1h1.4l.2-.1h.9l.1-.1h1.1l.1-.1h.9l.1-.1h.7l.2-.1h.8l.1-.1h1l.1-.1h2.3l.2-.1h2l.1-.1h5.1l.2.1h1l.1.1h.5l.1.1h.5l.1.1h.4l.1.1h.5l.1.1h.4l.2.1h.7l.1.1h.5l.1.1h.7l.1.1h.6l.1.1h.6l.1.1h.5l.1.1h.6l.1.1h.7l.2.1h1.3l.1.1h4.4v.1h1.8l.1.1h.6l.1.1h.7l.1.1h1.3l.1.1h1.3l.1.1h2.4l.1.1h.5l.1.1h1.9l.1.1h.9l.1-.1h1.6l.1-.1h1.7v-.1h1.4l.1-.1h1.4l.1-.1h1.1v-.1h.6l.1-.1h.8l.1-.1h.2l.1-.1h.3v-.1h.4v-.1h.3l.1-.1h.3v-.1h.3v-.1h.4v-.1h.2v-.1h.3v-.1h.2l.1-.1h.2v-.1h.2v-.1h.1l.1-.1h.1l.1-.1h.1l.1-.1h.2v-.1h.1l.1-.1h.1l.1-.1h.2v-.1h.1l.1-.1h.1v-.1h.2v-.1h.1l.1-.1h.1v-.1h.1l.1-.1h.1l.1-.1h.1v-.1h.1v-.1h.1l.1-.1h.1v-.1h.1l.1-.1h.1v-.1h.1v-.1h.1v-.1h.1l.1-.1.1-.1h.1v-.1h.1v-.1h.1l.1-.1.1-.1.1-.1h.1v-.1h.2v-.1h.1l.1-.1.1-.1h.1v-.1h.1l.1-.1h.1v-.1h.1l.1-.1h.1v-.1h.1v-.1h.1l.1-.1.1-.1.1-.1.1-.1v-.1h.1v-.1h.1v-.1h.1v-.1h.1v-.1h.1l.1-.1v-.1h.1l.1-.1h.1v-.1h.1v-.1h.1l.1-.1v-.1h.1l.1-.1.1-.1h.1v-.1h.1v-.1l.1-.1.1-.1.1-.1.1-.1v-.1h.1l.1-.1.1-.1.1-.1.1-.1.1-.1.1-.1h.1v-.1l.1-.1.1-.1h.1v-.1l.1-.1.1-.1.1-.1v-.1h.1v-.1h.1v-.1h.1v-.1l.1-.1.1-.1.1-.1.1-.1.1-.1.1-.1.1-.1h.1v-.1h.1v-.1h.1v-.1h.1l.1-.1v-.1h.1l.1-.1.1-.1h.1l.1-.1.1-.1h.1v-.1h.1v-.1h.1v-.1h.1v-.1h.1l.1-.1.1-.1h.1v-.1h.2v-.1h.2v-.1h.1v-.1h.1l.1-.1h.1l.1-.1h.2v-.1h.2v-.1h.2v-.1h.2v-.1h.2v-.1h.1l.1-.1h.1l.1-.1h.2v-.1h.2l.1-.1h.5v-.1h.3v-.1h.2v-.1h.1l.1-.1h.2v-.1h.7l.1.1h.3v.1h.4v.1h.5v.1h.3v.1h.2l.1.1h.3v.1h.3v.1h.1l.1.1h.3v.1h.2v.1h.1l.1.1h.1l.1.1h.1l.1.1h.1l.1.1h.1l.1.1h.2v.1h.7v.1h.2v.1h.2v.1h.4v.1h.2v.1h.2v.1h.2l.1.1h.4v.1h.3v.1h.2l.1.1h.2v.1h.2v.1h.2v.1h.1l.1.1h.1v.1h.1v.1h.1l.1.1.1.1.1.1h.1v.1h.1v.1h.1v.1h.1v.1h.1v.1h.1v.1h.1v.1l.1.1.1.1h.1v.1h.1v.1h.1v.1h.1l.1.1h.1v.1h.1l.1.1h.1v.1h.1v.1h.1v.1h.1v.1h.1v.1h.2v.1h.1v.1h.1v.1l.1.1.1.1v.1h.1v.1h.1v.1h.1v.1h.1v.1h.1v.1h.1v.1h.1v.1h.1v.1h.1v.1h.1v.1h.1v.1h.1v.1l.1.1v.1h.1v.1h.1v.1l.1.1v.1h.1v.1l.1.1v.1h.1v.1h.1v.1h.1v.1l.1.1.1.1.1.1v.1h.1v.1h.1v.1l.1.1v.1h.1v.1l.1.1.1.1v.1h.1v.2h.1v.1l.1.1v.1h.1v.1l.1.1v.1h.1v.1h.1v.2h.1v.1h.1v.2h.1v.1h.1v.1l.1.1v.1h.1v.1h.1v.2h.1v.1h.1v.1l.1.1v.1h.1v.1l.1.1v.1h.1v.1l.1.1v.1h.1v.1h.1v.2h.1v.1l.1.1v.1h.1v.1-70.8z"/><path fill="none" stroke="#ef4444" stroke-linejoin="round" stroke-width="1.5" d="m445.5 171 32.6-.1h19.1l13.6-.1h10.5l8.6-.1h7.2l6.3-.1h10.5l4.5-.1h7.9l3.5-.1h6.3l2.8-.1h5.3l2.4-.1h2.3l2.2-.1h2.1l2-.1h1.9l1.8-.1h1.8l1.7-.1h1.7l1.6-.1h1.5l1.5-.1h1.5l1.4-.1h1.3l1.4-.1h2.5l1.2-.1h1.2l1.2-.1h2.2l1.1-.1h1.1l1-.1h1l1-.1h1.9l1-.1h.9l.9-.1h.9l.8-.1h1.7l.8-.1h.8l.8-.1h1.6l.7-.1h1.5l.7-.1h.7l.7-.1h1.4l.6-.1h.7l.7-.1h.6l.6-.1h.7l.6-.1h1.2l.6-.1h1.1l.6-.1h.6l.5-.1h.6l.5-.1h1.1l.5-.1h.5l.6-.1h1l.5-.1h.5l.4-.1h1l.5-.1h.9l.5-.1h.9l.4-.1h1.3l.5-.1h1.2l.5-.1h.8l.4-.1h1.2l.4-.1h1.1l.4-.1h.7l.4-.1h.7l.4-.1h.7l.4-.1h.7l.3-.1h.7l.3-.1h.4l.3-.1h.7l.3-.1h.3l.3-.1h.7l.3-.1h.6l.3-.1h.9l.3-.1h1.2l.3-.1h.9l.3-.1h.8l.3-.1h.8l.3-.1h.8l.2-.1h1.1l.2-.1h.8l.3-.1h.7l.3-.1h.7l.2-.1h.8l.2-.1h.7l.2-.1h.9l.3-.1h1.1l.2-.1h1.5l.2-.1h1.7l.2-.1h4.7l.2-.1h1.4l.2-.1h.9l.1-.1h1.1l.1-.1h.9l.1-.1h.7l.2-.1h.8l.1-.1h1l.1-.1h2.3l.2-.1h2l.1-.1h5.1l.2.1h1l.1.1h.5l.1.1h.5l.1.1h.4l.1.1h.5l.1.1h.4l.2.1h.7l.1.1h.5l.1.1h.7l.1.1h.6l.1.1h.6l.1.1h.5l.1.1h.6l.1.1h.7l.2.1h1.3l.1.1h4.4v.1h1.8l.1.1h.6l.1.1h.7l.1.1h1.3l.1.1h1.3l.1.1h2.4l.1.1h.5l.1.1h1.9l.1.1h.9l.1-.1h1.6l.1-.1h1.7v-.1h1.4l.1-.1h1.4l.1-.1h1.1v-.1h.6l.1-.1h.8l.1-.1h.2l.1-.1h.3v-.1h.4v-.1h.3l.1-.1h.3v-.1h.3v-.1h.4v-.1h.2v-.1h.3v-.1h.2l.1-.1h.2v-.1h.2v-.1h.1l.1-.1h.1l.1-.1h.1l.1-.1h.2v-.1h.1l.1-.1h.1l.1-.1h.2v-.1h.1l.1-.1h.1v-.1h.2v-.1h.1l.1-.1h.1v-.1h.1l.1-.1h.1l.1-.1h.1v-.1h.1v-.1h.1l.1-.1h.1v-.1h.1l.1-.1h.1v-.1h.1v-.1h.1v-.1h.1l.1-.1.1-.1h.1v-.1h.1v-.1h.1l.1-.1.1-.1.1-.1h.1v-.1h.2v-.1h.1l.1-.1.1-.1h.1v-.1h.1l.1-.1h.1v-.1h.1l.1-.1h.1v-.1h.1v-.1h.1l.1-.1.1-.1.1-.1.1-.1v-.1h.1v-.1h.1v-.1h.1v-.1h.1v-.1h.1l.1-.1v-.1h.1l.1-.1h.1v-.1h.1v-.1h.1l.1-.1v-.1h.1l.1-.1.1-.1h.1v-.1h.1v-.1l.1-.1.1-.1.1-.1.1-.1v-.1h.1l.1-.1.1-.1.1-.1.1-.1.1-.1.1-.1h.1v-.1l.1-.1.1-.1h.1v-.1l.1-.1.1-.1.1-.1v-.1h.1v-.1h.1v-.1h.1v-.1l.1-.1.1-.1.1-.1.1-.1.1-.1.1-.1.1-.1h.1v-.1h.1v-.1h.1v-.1h.1l.1-.1v-.1h.1l.1-.1.1-.1h.1l.1-.1.1-.1h.1v-.1h.1v-.1h.1v-.1h.1v-.1h.1l.1-.1.1-.1h.1v-.1h.2v-.1h.2v-.1h.1v-.1h.1l.1-.1h.1l.1-.1h.2v-.1h.2v-.1h.2v-.1h.2v-.1h.2v-.1h.1l.1-.1h.1l.1-.1h.2v-.1h.2l.1-.1h.5v-.1h.3v-.1h.2v-.1h.1l.1-.1h.2v-.1h.7l.1.1h.3v.1h.4v.1h.5v.1h.3v.1h.2l.1.1h.3v.1h.3v.1h.1l.1.1h.3v.1h.2v.1h.1l.1.1h.1l.1.1h.1l.1.1h.1l.1.1h.1l.1.1h.2v.1h.7v.1h.2v.1h.2v.1h.4v.1h.2v.1h.2v.1h.2l.1.1h.4v.1h.3v.1h.2l.1.1h.2v.1h.2v.1h.2v.1h.1l.1.1h.1v.1h.1v.1h.1l.1.1.1.1.1.1h.1v.1h.1v.1h.1v.1h.1v.1h.1v.1h.1v.1h.1v.1l.1.1.1.1h.1v.1h.1v.1h.1v.1h.1l.1.1h.1v.1h.1l.1.1h.1v.1h.1v.1h.1v.1h.1v.1h.1v.1h.2v.1h.1v.1h.1v.1l.1.1.1.1v.1h.1v.1h.1v.1h.1v.1h.1v.1h.1v.1h.1v.1h.1v.1h.1v.1h.1v.1h.1v.1h.1v.1h.1v.1l.1.1v.1h.1v.1h.1v.1l.1.1v.1h.1v.1l.1.1v.1h.1v.1h.1v.1h.1v.1l.1.1.1.1.1.1v.1h.1v.1h.1v.1l.1.1v.1h.1v.1l.1.1.1.1v.1h.1v.2h.1v.1l.1.1v.1h.1v.1l.1.1v.1h.1v.1h.1v.2h.1v.1h.1v.2h.1v.1h.1v.1l.1.1v.1h.1v.1h.1v.2h.1v.1h.1v.1l.1.1v.1h.1v.1l.1.1v.1h.1v.1l.1.1v.1h.1v.1h.1v.2h.1v.1l.1.1v.1h.1v.1"/></g><path stroke="#d1d5db" d="M34 221v155m0-77.5h358"/><text x="213" y="402" fill="#6b7280" font-size="9" text-anchor="middle">Hz</text><text x="12" y="298.5" fill="#6b7280" font-size="9" text-anchor="middle" transform="rotate(-90 12 298.5)">Delay (smp)</text><path stroke="#e5e7eb" stroke-width=".5" d="M66.6 221v155m19.1-155v155m13.6-155v155m10.5-155v155m8.6-155v155m7.3-155v155m6.2-155v155m5.6-155v155m37.6-155v155m19.1-155v155m13.5-155v155m10.6-155v155m8.5-155v155m7.3-155v155m6.3-155v155m5.5-155v155m37.6-155v155m19.1-155v155m13.6-155v155m10.5-155v155m8.6-155v155m7.3-155v155m6.2-155v155m5.6-155v155M392 221v155M142.5 221v155"/><text x="142.5" y="388" fill="#6b7280" font-size="8" text-anchor="middle">100</text><path stroke="#e5e7eb" stroke-width=".5" d="M250.9 221v155"/><text x="250.9" y="388" fill="#6b7280" font-size="8" text-anchor="middle">1k</text><path stroke="#e5e7eb" stroke-width=".5" d="M359.4 221v155"/><text x="359.4" y="388" fill="#6b7280" font-size="8" text-anchor="middle">10k</text><path stroke="#e5e7eb" stroke-width=".5" d="M34 376h358"/><text x="30" y="379" fill="#6b7280" font-size="8" text-anchor="end">-100</text><path stroke="#e5e7eb" stroke-width=".5" d="M34 337.3h358"/><text x="30" y="340.3" fill="#6b7280" font-size="8" text-anchor="end">-50</text><text x="30" y="301.5" fill="#6b7280" font-size="8" text-anchor="end">0</text><path stroke="#e5e7eb" stroke-width=".5" d="M34 259.8h358"/><text x="30" y="262.8" fill="#6b7280" font-size="8" text-anchor="end">50</text><path stroke="#e5e7eb" stroke-width=".5" d="M34 221h358"/><text x="30" y="224" fill="#6b7280" font-size="8" text-anchor="end">100</text><g clip-path="url(#e)"><path fill="url(#f)" d="M37.5 298.5v1h51.7l13.6-.1h19.1l7.2-.1h6.3l5.6-.1h29.9l2.7.1h2.6l2.4.1h2.3l2.2.1h2.1l2 .1h7.2l1.7-.1h3.1l1.5-.1h4.2l1.4-.1h6.1l1.1.1h14.4l.8-.1h2.4l.8-.1h2.2l.7.1h1.4l.7.1h.7l.6.1h.7l.7-.1h1.2l.7-.1h5.2l.6.1h2.1l.5-.1h3.5l.5-.1h2.3l.5-.1h1.3l.4-.1h.9l.4.1h1.7l.4-.1h2.3l.4.1h1.5l.4.1h2.5l.3.1h4l.3-.1h.3l.3-.1h.3l.3-.1h.3l.3-.1h1.8l.3.1h2.5l.3.1h.3l.2-.1h1.1l.3-.1h.2l.3.1h5.4l.2-.1h1.1l.2-.1h2.7l.2-.1h1l.2-.1h2l.2-.1h1.4l.1.1h.6l.2.1h1.3l.2.1h3.6l.2.1h2.1l.2-.1h.1l.2-.1h.3l.1-.1h1.7l.2.1h1.3l.2-.1h1.8l.1-.1h2.8l.1.1h.5l.1-.1H339l.1.1h.4l.1-.1h4.1l.1.1h.1l.1-.1h.5v.1h.3l.1-.1h.2v.1h.3l.1.1h.3v-.1h.7l.1-.1h.4l.1.1h.8v-.1h.4l.1.1h.2l.1.1h.1v-.1h.3l.1.1h.1v-.1h.2l.1-.1h.2v.1h1.3l.1-.1h.1v.1h.2l.1.1.1.1h.2l.1-.1.1-.1h.7v.1h.3l.1.1h.2v.1h.2l.1-.1h.9l.1.1h.1v-.1h.8v.1h.3v.1h.3v-.1h.2l.1.1h.3l.1.1h.3l.1-.1h.4l.1.1h.1l.1-.1h.3l.1.1h.1v.1h.7l.1-.1h.1l.1.1h.7v.1h.1l.1.1h.3v-.1h.5l.1-.1h.1l.1-.1h.2v.1h.6v-.1h.2l.1.1h.1v.1h.1l.1.1.1.1h.3l.1-.1h.4v-.1h.8v-.1l.1.1h.1v.1h.1l.1.1h.4v-.1h.1l.1-.1h.1l.1.1h.7l.1.1h.1v.1h.1v-.1h.2v-.1l.1.1h.3v-.1h.1l.1-.1h.1v-.1h.3v.1h.4v-.1h.1v-.1h.3v.1h.2l.1.1h.2v-.1h.2v-.1h.1v-.1h.1v-.1h.1l.1.1h.2v.1h.1l.1-.1h.1v-.1h1.1l.1.1h.3l.1-.1.1-.1h.3l.1-.1v-.1h.3l.1.1h.2v.1h.1v.1h.6v-.1h.1v-.1h.2v-.1h.1l.1-.1H392z"/><path fill="none" stroke="#22c55e" stroke-linejoin="round" stroke-width="1.5" d="M37.5 299.5h51.7l13.6-.1h19.1l7.2-.1h6.3l5.6-.1h29.9l2.7.1h2.6l2.4.1h2.3l2.2.1h2.1l2 .1h7.2l1.7-.1h3.1l1.5-.1h4.2l1.4-.1h6.1l1.1.1h14.4l.8-.1h2.4l.8-.1h2.2l.7.1h1.4l.7.1h.7l.6.1h.7l.7-.1h1.2l.7-.1h5.2l.6.1h2.1l.5-.1h3.5l.5-.1h2.3l.5-.1h1.3l.4-.1h.9l.4.1h1.7l.4-.1h2.3l.4.1h1.5l.4.1h2.5l.3.1h4l.3-.1h.3l.3-.1h.3l.3-.1h.3l.3-.1h1.8l.3.1h2.5l.3.1h.3l.2-.1h1.1l.3-.1h.2l.3.1h5.4l.2-.1h1.1l.2-.1h2.7l.2-.1h1l.2-.1h2l.2-.1h1.4l.1.1h.6l.2.1h1.3l.2.1h3.6l.2.1h2.1l.2-.1h.1l.2-.1h.3l.1-.1h1.7l.2.1h1.3l.2-.1h1.8l.1-.1h1.6l.1-.1h.7l.1.1h.3l.1.1h.5l.1-.1h.3l.1-.1h.8l.1-.1h.4l.1-.1h.3l.1-.1h1.2l.1-.1h.6l.1.1h.6l.1.1h3.6l.1-.1h.6l.1.1h1.6l.1.1h.3l.1.1h1.2l.1.1h.3l.1-.1h.8l.1.1h1.1l.1-.1h.8l.1.1h.8l.1-.1h1.2l.1-.1h.4l.1-.1h.5l.1.1h.9l.1.1h.9l.1-.1h.6l.1.1h.3l.1.1h.4v-.1h.5l.1.1h.3l.1.1h.4l.1-.1h.1l.1-.1h.2l.1-.1h.4l.1-.1h.5l.1.1h.2v.1h.2l.1.1h.2l.1-.1h.5v.1h.4l.1-.1h.4l.1.1h.2l.1.1h.1l.1-.1h.5v.1h.3l.1-.1h.2v.1h.3l.1.1h.3v-.1h.7l.1-.1h.4l.1.1h.8v-.1h.4l.1.1h.2l.1.1h.1v-.1h.3l.1.1h.1v-.1h.2l.1-.1h.2v.1h1.3l.1-.1h.1v.1h.2l.1.1.1.1h.2l.1-.1.1-.1h.7v.1h.3l.1.1h.2v.1h.2l.1-.1h.9l.1.1h.1v-.1h.8v.1h.3v.1h.3v-.1h.2l.1.1h.3l.1.1h.3l.1-.1h.4l.1.1h.1l.1-.1h.3l.1.1h.1v.1h.7l.1-.1h.1l.1.1h.7v.1h.1l.1.1h.3v-.1h.5l.1-.1h.1l.1-.1h.2v.1h.6v-.1h.2l.1.1h.1v.1h.1l.1.1.1.1h.3l.1-.1h.4v-.1h.8v-.1l.1.1h.1v.1h.1l.1.1h.4v-.1h.1l.1-.1h.1l.1.1h.7l.1.1h.1v.1h.1v-.1h.2v-.1l.1.1h.3v-.1h.1l.1-.1h.1v-.1h.3v.1h.4v-.1h.1v-.1h.3v.1h.2l.1.1h.2v-.1h.2v-.1h.1v-.1h.1v-.1h.1l.1.1h.2v.1h.1l.1-.1h.1v-.1h1.1l.1.1h.3l.1-.1.1-.1h.3l.1-.1v-.1h.3l.1.1h.2v.1h.1v.1h.6v-.1h.1v-.1h.2v-.1h.1l.1-.1.1-.1.1-.1.1-.1v.1h1.5l.1-.1h.3v.1h.4v-.1h.1v-.1h.2v.1h.1v.1h.2v-.1h.1l.1-.1h.2v.1h.3v-.1h.2l.1.1h.3v.1h.4v.1h.1v.1h.2l.1-.1v-.1h.1v-.1l.1-.1h.2v.1h.1v.1h.1l.1.1h.1l.1-.1v-.1h.5l.1.1h.1v.1h.1l.1-.1h.5v-.1h.1v.1h.2l.1-.1h.1v-.1h.2v.1h.2l.1-.1h.1v-.1h.4l.1-.1h.1v.1h.2l.1-.1v-.1h.4l.1.1h.2v.1h.1l.1.1h.5v-.1h.1v-.1h.1l.1.1h.2v.1h.2v-.1l.1-.1h.1v-.1h.4v.1h.1l.1.1h.2l.1-.1h.2v-.1.1h.2v-.1h.1v-.1h.5v.1h.5v.1h.1v-.1h.2l.1-.1h.1v.1h.1v-.1h.3l.1-.1h.2v.1h.1v.1h.2v-.1h.1v-.1h.1v.1h.1v.1h.1l.1-.1h.2v.1h.2v-.1h.4v.1h.2v-.1h.2v-.1h.2"/></g><path stroke="#d1d5db" d="M442 221v155m0-77.5h358"/><text x="621" y="402" fill="#6b7280" font-size="9" text-anchor="middle">Samples</text><text x="420" y="298.5" fill="#6b7280" font-size="9" text-anchor="middle" transform="rotate(-90 420 298.5)">Impulse</text><path stroke="#e5e7eb" stroke-width=".5" d="M442 221v155"/><text x="442" y="388" fill="#6b7280" font-size="8" text-anchor="middle">0</text><path stroke="#e5e7eb" stroke-width=".5" d="M581.8 221v155"/><text x="581.8" y="388" fill="#6b7280" font-size="8" text-anchor="middle">200</text><path stroke="#e5e7eb" stroke-width=".5" d="M721.7 221v155"/><text x="721.7" y="388" fill="#6b7280" font-size="8" text-anchor="middle">400</text><path stroke="#e5e7eb" stroke-width=".5" d="M442 363.1h358"/><text x="438" y="366.1" fill="#6b7280" font-size="8" text-anchor="end">-1</text><text x="438" y="301.5" fill="#6b7280" font-size="8" text-anchor="end">0</text><path stroke="#e5e7eb" stroke-width=".5" d="M442 233.9h358"/><text x="438" y="236.9" fill="#6b7280" font-size="8" text-anchor="end">1</text><path stroke="#e5e7eb" stroke-dasharray="3 2" stroke-width=".5" d="M442 233.9h358"/><text x="438" y="236.9" fill="#6b7280" font-size="7" text-anchor="end">+1</text><path stroke="#e5e7eb" stroke-dasharray="3 2" stroke-width=".5" d="M442 363.1h358"/><text x="438" y="366.1" fill="#6b7280" font-size="7" text-anchor="end">-1</text><g clip-path="url(#g)"><path fill="url(#h)" d="m442 298.5.7-16.4.7 16.4.7-7 .7 7 .7-.1.7.1h.7l.7-.2.7.2.7-.1.7.1h.7l.7-.1.7.1h1.4l.7-.1.7.1h4.2l.7-.1.7.1h339.1z"/><path fill="url(#i)" d="M442 298.5v26.6l.7-26.6.7 10.6.7-10.6.7.1.7-.1h2.1l.7.4.7-.4h.7l.7.1.7-.1h2.8l.7.1.7-.1.7.1.7-.1h342.6z"/><path fill="none" stroke="#eab308" stroke-linejoin="round" stroke-width="1.2" d="m442 325.1.7-43 .7 27 .7-17.6.7 7.1.7-.2.7.1h.7l.7-.2.7.6.7-.5.7.1.7.1.7-.2.7.1h1.4l.7-.1.7.2.7-.1.7.1.7-.1h2.1l.7-.1.7.1h339.1"/></g></svg>