<svg xmlns="http://www.w3.org/2000/svg" viewBox="0 0 800 240" style="font-family:system-ui,-apple-system,sans-serif">
  <line x1="55" y1="12" x2="55" y2="192" stroke="#d1d5db"/>
  <line x1="55" y1="192" x2="755" y2="192" stroke="#d1d5db"/>
  <text x="405" y="222" text-anchor="middle" font-size="10" fill="#6b7280">Frequency (Hz)</text>
  <text x="17" y="102" text-anchor="middle" font-size="10" fill="#6b7280" transform="rotate(-90 17 102)">Magnitude (dB)</text>
  <line x1="99.4" y1="12" x2="99.4" y2="192" stroke="#e5e7eb" stroke-width="0.5"/>
  <text x="99.4" y="205" text-anchor="middle" font-size="9" fill="#6b7280">31</text>
  <line x1="169.7" y1="12" x2="169.7" y2="192" stroke="#e5e7eb" stroke-width="0.5"/>
  <text x="169.7" y="205" text-anchor="middle" font-size="9" fill="#6b7280">62</text>
  <line x1="240.7" y1="12" x2="240.7" y2="192" stroke="#e5e7eb" stroke-width="0.5"/>
  <text x="240.7" y="205" text-anchor="middle" font-size="9" fill="#6b7280">125</text>
  <line x1="310.9" y1="12" x2="310.9" y2="192" stroke="#e5e7eb" stroke-width="0.5"/>
  <text x="310.9" y="205" text-anchor="middle" font-size="9" fill="#6b7280">250</text>
  <line x1="381.2" y1="12" x2="381.2" y2="192" stroke="#e5e7eb" stroke-width="0.5"/>
  <text x="381.2" y="205" text-anchor="middle" font-size="9" fill="#6b7280">500</text>
  <line x1="451.4" y1="12" x2="451.4" y2="192" stroke="#e5e7eb" stroke-width="0.5"/>
  <text x="451.4" y="205" text-anchor="middle" font-size="9" fill="#6b7280">1k</text>
  <line x1="521.7" y1="12" x2="521.7" y2="192" stroke="#e5e7eb" stroke-width="0.5"/>
  <text x="521.7" y="205" text-anchor="middle" font-size="9" fill="#6b7280">2k</text>
  <line x1="591.9" y1="12" x2="591.9" y2="192" stroke="#e5e7eb" stroke-width="0.5"/>
  <text x="591.9" y="205" text-anchor="middle" font-size="9" fill="#6b7280">4k</text>
  <line x1="662.1" y1="12" x2="662.1" y2="192" stroke="#e5e7eb" stroke-width="0.5"/>
  <text x="662.1" y="205" text-anchor="middle" font-size="9" fill="#6b7280">8k</text>
  <line x1="732.4" y1="12" x2="732.4" y2="192" stroke="#e5e7eb" stroke-width="0.5"/>
  <text x="732.4" y="205" text-anchor="middle" font-size="9" fill="#6b7280">16k</text>
  <line x1="55" y1="22.6" x2="755" y2="22.6" stroke="#e5e7eb" stroke-width="0.5"/>
  <text x="51" y="25.6" text-anchor="end" font-size="9" fill="#6b7280">0</text>
  <line x1="55" y1="64.9" x2="755" y2="64.9" stroke="#e5e7eb" stroke-width="0.5"/>
  <text x="51" y="67.9" text-anchor="end" font-size="9" fill="#6b7280">-20</text>
  <line x1="55" y1="107.3" x2="755" y2="107.3" stroke="#e5e7eb" stroke-width="0.5"/>
  <text x="51" y="110.3" text-anchor="end" font-size="9" fill="#6b7280">-40</text>
  <line x1="55" y1="149.6" x2="755" y2="149.6" stroke="#e5e7eb" stroke-width="0.5"/>
  <text x="51" y="152.6" text-anchor="end" font-size="9" fill="#6b7280">-60</text>
  <line x1="55" y1="192.0" x2="755" y2="192.0" stroke="#e5e7eb" stroke-width="0.5"/>
  <text x="51" y="195.0" text-anchor="end" font-size="9" fill="#6b7280">-80</text>
  <polyline points="132.7,92.7 203.0,67.7 244.1,56.1 273.2,49.0 295.8,44.1 314.3,40.4 329.9,37.5 343.4,35.2 355.4,33.3 366.1,31.6 375.7,30.3 384.5,29.1 392.6,28.1 400.2,27.2 407.1,26.4 413.7,25.7 419.8,25.1 425.6,24.6 431.1,24.1 436.3,23.7 441.2,23.3 446.0,23.0 450.5,22.7 454.8,22.4 458.9,22.1 462.9,21.9 466.7,21.7 470.4,21.5 474.0,21.3 477.4,21.2 480.7,21.0 483.9,20.9 487.0,20.8 490.1,20.7 493.0,20.6 495.9,20.5 498.6,20.4 501.3,20.3 504.0,20.3 506.5,20.2 509.0,20.1 511.5,20.1 513.9,20.0 516.2,20.0 518.5,19.9 520.7,19.9 522.9,19.9 525.0,19.8 527.1,19.8 529.2,19.8 531.2,19.7 533.1,19.7 535.1,19.7 537.0,19.7 538.8,19.7 540.6,19.6 542.4,19.6 544.2,19.6 545.9,19.6 547.6,19.6 549.3,19.6 551.0,19.6 552.6,19.6 554.2,19.6 555.7,19.6 557.3,19.6 558.8,19.6 560.3,19.6 561.8,19.6 563.2,19.6 564.7,19.6 566.1,19.6 567.5,19.6 568.9,19.6 570.2,19.6 571.6,19.6 572.9,19.6 574.2,19.6 575.5,19.6 576.8,19.6 578.0,19.6 579.3,19.7 580.5,19.7 581.7,19.7 582.9,19.7 584.1,19.7 585.3,19.7 586.4,19.7 587.6,19.7 588.7,19.8 589.8,19.8 590.9,19.8 592.0,19.8 593.1,19.8 594.2,19.8 595.3,19.9 596.3,19.9 597.3,19.9 598.4,19.9 599.4,19.9 600.4,20.0 601.4,20.0 602.4,20.0 603.4,20.0 604.3,20.1 605.3,20.1 606.2,20.1 607.2,20.1 608.1,20.2 609.1,20.2 610.0,20.2 610.9,20.2 611.8,20.3 612.7,20.3 613.6,20.3 614.4,20.3 615.3,20.4 616.2,20.4 617.0,20.4 617.9,20.4 618.7,20.5 619.5,20.5 620.4,20.5 621.2,20.6 622.0,20.6 622.8,20.6 623.6,20.7 624.4,20.7 625.2,20.7 626.0,20.8 626.8,20.8 627.5,20.8 628.3,20.9 629.0,20.9 629.8,20.9 630.6,21.0 631.3,21.0 632.0,21.0 632.8,21.1 633.5,21.1 634.2,21.1 634.9,21.2 635.6,21.2 636.3,21.3 637.0,21.3 637.7,21.3 638.4,21.4 639.1,21.4 639.8,21.5 640.5,21.5 641.2,21.5 641.8,21.6 642.5,21.6 643.1,21.7 643.8,21.7 644.5,21.8 645.1,21.8 645.7,21.8 646.4,21.9 647.0,21.9 647.7,22.0 648.3,22.0 648.9,22.1 649.5,22.1 650.1,22.2 650.8,22.2 651.4,22.3 652.0,22.3 652.6,22.3 653.2,22.4 653.8,22.4 654.3,22.5 654.9,22.5 655.5,22.6 656.1,22.6 656.7,22.7 657.3,22.7 657.8,22.8 658.4,22.9 659.0,22.9 659.5,23.0 660.1,23.0 660.6,23.1 661.2,23.1 661.7,23.2 662.3,23.2 662.8,23.3 663.4,23.3 663.9,23.4 664.4,23.5 665.0,23.5 665.5,23.6 666.0,23.6 666.5,23.7 667.1,23.7 667.6,23.8 668.1,23.9 668.6,23.9 669.1,24.0 669.6,24.1 670.1,24.1 670.6,24.2 671.1,24.2 671.6,24.3 672.1,24.4 672.6,24.4 673.1,24.5 673.6,24.6 674.1,24.6 674.6,24.7 675.1,24.8 675.5,24.8 676.0,24.9 676.5,25.0 677.0,25.0 677.4,25.1 677.9,25.2 678.4,25.3 678.8,25.3 679.3,25.4 679.8,25.5 680.2,25.5 680.7,25.6 681.1,25.7 681.6,25.8 682.0,25.8 682.5,25.9 682.9,26.0 683.4,26.1 683.8,26.1 684.2,26.2 684.7,26.3 685.1,26.4 685.5,26.5 686.0,26.5 686.4,26.6 686.8,26.7 687.3,26.8 687.7,26.9 688.1,27.0 688.5,27.0 688.9,27.1 689.4,27.2 689.8,27.3 690.2,27.4 690.6,27.5 691.0,27.6 691.4,27.6 691.8,27.7 692.2,27.8 692.6,27.9 693.1,28.0 693.5,28.1 693.9,28.2 694.3,28.3 694.6,28.4 695.0,28.5 695.4,28.6 695.8,28.7 696.2,28.7 696.6,28.8 697.0,28.9 697.4,29.0 697.8,29.1 698.1,29.2 698.5,29.3 698.9,29.4 699.3,29.5 699.7,29.6 700.0,29.8 700.4,29.9 700.8,30.0 701.2,30.1 701.5,30.2 701.9,30.3 702.3,30.4 702.6,30.5 703.0,30.6 703.4,30.7 703.7,30.8 704.1,30.9 704.5,31.1 704.8,31.2 705.2,31.3 705.5,31.4 705.9,31.5 706.2,31.6 706.6,31.7 706.9,31.9 707.3,32.0 707.6,32.1 708.0,32.2 708.3,32.4 708.7,32.5 709.0,32.6 709.4,32.7 709.7,32.8 710.0,33.0 710.4,33.1 710.7,33.2 711.1,33.4 711.4,33.5 711.7,33.6 712.1,33.8 712.4,33.9 712.7,34.0 713.1,34.2 713.4,34.3 713.7,34.4 714.0,34.6 714.4,34.7 714.7,34.9 715.0,35.0 715.3,35.1 715.7,35.3 716.0,35.4 716.3,35.6 716.6,35.7 716.9,35.9 717.3,36.0 717.6,36.2 717.9,36.3 718.2,36.5 718.5,36.6 718.8,36.8 719.1,36.9 719.5,37.1 719.8,37.3 720.1,37.4 720.4,37.6 720.7,37.7 721.0,37.9 721.3,38.1 721.6,38.2 721.9,38.4 722.2,38.6 722.5,38.8 722.8,38.9 723.1,39.1 723.4,39.3 723.7,39.5 724.0,39.6 724.3,39.8 724.6,40.0 724.9,40.2 725.2,40.4 725.5,40.5 725.8,40.7 726.1,40.9 726.3,41.1 726.6,41.3 726.9,41.5 727.2,41.7 727.5,41.9 727.8,42.1 728.1,42.3 728.3,42.5 728.6,42.7 728.9,42.9 729.2,43.1 729.5,43.3 729.8,43.5 730.0,43.7 730.3,43.9 730.6,44.2 730.9,44.4 731.1,44.6 731.4,44.8 731.7,45.0 732.0,45.3 732.2,45.5 732.5,45.7 732.8,45.9 733.1,46.2 733.3,46.4 733.6,46.7 733.9,46.9 734.1,47.1 734.4,47.4 734.7,47.6 734.9,47.9 735.2,48.1 735.5,48.4 735.7,48.6 736.0,48.9 736.3,49.2 736.5,49.4 736.8,49.7 737.0,50.0 737.3,50.2 737.6,50.5 737.8,50.8 738.1,51.1 738.3,51.3 738.6,51.6 738.9,51.9 739.1,52.2 739.4,52.5 739.6,52.8 739.9,53.1 740.1,53.4 740.4,53.7 740.6,54.0 740.9,54.3 741.1,54.6 741.4,55.0 741.6,55.3 741.9,55.6 742.1,55.9 742.4,56.3 742.6,56.6 742.9,57.0 743.1,57.3 743.4,57.7 743.6,58.0 743.8,58.4 744.1,58.7 744.3,59.1 744.6,59.5 744.8,59.8 745.1,60.2 745.3,60.6 745.5,61.0 745.8,61.4 746.0,61.8 746.3,62.2 746.5,62.6 746.7,63.0 747.0,63.4 747.2,63.9 747.4,64.3 747.7,64.7 747.9,65.2 748.1,65.6 748.4,66.1 748.6,66.5 748.8,67.0 749.1,67.5 749.3,68.0 749.5,68.5 749.8,69.0 750.0,69.5 750.2,70.0 750.4,70.5 750.7,71.0 750.9,71.6 751.1,72.1 751.4,72.7 751.6,73.2 751.8,73.8 752.0,74.4 752.3,75.0 752.5,75.6 752.7,76.2 752.9,76.8 753.2,77.4 753.4,78.1 753.6,78.8 753.8,79.4 754.0,80.1 754.3,80.8 754.5,81.5 754.7,82.3 754.9,83.0" fill="none" stroke="#4a90d9" stroke-width="1.8" stroke-linejoin="round"/>
  <text x="55" y="240" font-size="12" font-weight="600" fill="#6b7280">A-weighting (IEC 61672)</text>
  <rect x="529" y="19" width="202" height="102" fill="white" fill-opacity="0.85" rx="3"/>
  <text x="532" y="30" font-size="8" fill="#6b7280">Impulse response</text>
  <polyline points="530.0,40.8 531.6,20.0 533.1,59.6 534.7,84.8 536.3,79.0 537.8,78.6 539.4,77.7 540.9,76.9 542.5,76.2 544.1,75.5 545.6,74.9 547.2,74.4 548.8,73.9 550.3,73.5 551.9,73.1 553.4,72.8 555.0,72.5 556.6,72.2 558.1,72.0 559.7,71.7 561.3,71.5 562.8,71.4 564.4,71.2 565.9,71.1 567.5,70.9 569.1,70.8 570.6,70.7 572.2,70.6 573.8,70.5 575.3,70.4 576.9,70.4 578.4,70.3 580.0,70.3 581.6,70.2 583.1,70.2 584.7,70.1 586.3,70.1 587.8,70.1 589.4,70.0 590.9,70.0 592.5,70.0 594.1,70.0 595.6,70.0 597.2,69.9 598.8,69.9 600.3,69.9 601.9,69.9 603.4,69.9 605.0,69.9 606.6,69.9 608.1,69.9 609.7,69.9 611.3,69.9 612.8,69.9 614.4,69.9 615.9,69.9 617.5,69.9 619.1,69.9 620.6,69.9 622.2,69.9 623.8,69.9 625.3,69.9 626.9,69.9 628.4,69.9 630.0,69.9 631.6,69.9 633.1,69.9 634.7,69.9 636.3,69.9 637.8,69.9 639.4,69.9 640.9,69.9 642.5,69.9 644.1,69.9 645.6,69.9 647.2,69.9 648.8,69.9 650.3,69.9 651.9,69.9 653.4,69.9 655.0,69.9 656.6,69.9 658.1,69.9 659.7,69.9 661.3,69.9 662.8,69.9 664.4,69.9 665.9,69.9 667.5,69.9 669.1,69.9 670.6,69.9 672.2,69.9 673.8,69.9 675.3,69.9 676.9,69.9 678.4,69.9 680.0,69.9 681.6,69.9 683.1,69.9 684.7,69.9 686.3,69.9 687.8,69.9 689.4,69.9 690.9,69.9 692.5,69.9 694.1,69.9 695.6,69.9 697.2,69.9 698.8,69.9 700.3,69.9 701.9,69.9 703.4,69.9 705.0,69.9 706.6,69.9 708.1,69.9 709.7,69.9 711.3,69.9 712.8,69.9 714.4,69.9 715.9,69.9 717.5,69.9 719.1,69.9 720.6,69.9 722.2,69.9 723.8,69.9 725.3,69.9 726.9,69.9 728.4,69.9" fill="none" stroke="#4a90d9" stroke-width="1.3" stroke-linejoin="round"/>
</svg>
