<svg xmlns="http://www.w3.org/2000/svg" viewBox="0 0 800 420" style="font-family:system-ui,-apple-system,sans-serif">
  <text x="55" y="416" font-size="11" font-weight="600" fill="#6b7280">Bessel order 4, fc=1kHz</text>
  <line x1="55" y1="12" x2="55" y2="162" stroke="#d1d5db"/>
  <line x1="55" y1="42.0" x2="385" y2="42.0" stroke="#d1d5db"/>
  <text x="220" y="190" text-anchor="middle" font-size="9" fill="#6b7280">Hz</text>
  <text x="29" y="87" text-anchor="middle" font-size="9" fill="#6b7280" transform="rotate(-90 29 87)">dB</text>
  <line x1="85.1" y1="12" x2="85.1" y2="162" stroke="#e5e7eb" stroke-width="0.5"/>
  <line x1="102.7" y1="12" x2="102.7" y2="162" stroke="#e5e7eb" stroke-width="0.5"/>
  <line x1="115.2" y1="12" x2="115.2" y2="162" stroke="#e5e7eb" stroke-width="0.5"/>
  <line x1="124.9" y1="12" x2="124.9" y2="162" stroke="#e5e7eb" stroke-width="0.5"/>
  <line x1="132.8" y1="12" x2="132.8" y2="162" stroke="#e5e7eb" stroke-width="0.5"/>
  <line x1="139.5" y1="12" x2="139.5" y2="162" stroke="#e5e7eb" stroke-width="0.5"/>
  <line x1="145.3" y1="12" x2="145.3" y2="162" stroke="#e5e7eb" stroke-width="0.5"/>
  <line x1="150.4" y1="12" x2="150.4" y2="162" stroke="#e5e7eb" stroke-width="0.5"/>
  <line x1="185.1" y1="12" x2="185.1" y2="162" stroke="#e5e7eb" stroke-width="0.5"/>
  <line x1="202.7" y1="12" x2="202.7" y2="162" stroke="#e5e7eb" stroke-width="0.5"/>
  <line x1="215.2" y1="12" x2="215.2" y2="162" stroke="#e5e7eb" stroke-width="0.5"/>
  <line x1="224.8" y1="12" x2="224.8" y2="162" stroke="#e5e7eb" stroke-width="0.5"/>
  <line x1="232.8" y1="12" x2="232.8" y2="162" stroke="#e5e7eb" stroke-width="0.5"/>
  <line x1="239.5" y1="12" x2="239.5" y2="162" stroke="#e5e7eb" stroke-width="0.5"/>
  <line x1="245.2" y1="12" x2="245.2" y2="162" stroke="#e5e7eb" stroke-width="0.5"/>
  <line x1="250.4" y1="12" x2="250.4" y2="162" stroke="#e5e7eb" stroke-width="0.5"/>
  <line x1="285.0" y1="12" x2="285.0" y2="162" stroke="#e5e7eb" stroke-width="0.5"/>
  <line x1="302.6" y1="12" x2="302.6" y2="162" stroke="#e5e7eb" stroke-width="0.5"/>
  <line x1="315.1" y1="12" x2="315.1" y2="162" stroke="#e5e7eb" stroke-width="0.5"/>
  <line x1="324.8" y1="12" x2="324.8" y2="162" stroke="#e5e7eb" stroke-width="0.5"/>
  <line x1="332.7" y1="12" x2="332.7" y2="162" stroke="#e5e7eb" stroke-width="0.5"/>
  <line x1="339.4" y1="12" x2="339.4" y2="162" stroke="#e5e7eb" stroke-width="0.5"/>
  <line x1="345.2" y1="12" x2="345.2" y2="162" stroke="#e5e7eb" stroke-width="0.5"/>
  <line x1="350.3" y1="12" x2="350.3" y2="162" stroke="#e5e7eb" stroke-width="0.5"/>
  <line x1="385.0" y1="12" x2="385.0" y2="162" stroke="#e5e7eb" stroke-width="0.5"/>
  <line x1="155.0" y1="12" x2="155.0" y2="162" stroke="#e5e7eb" stroke-width="0.5"/>
  <text x="155.0" y="174" text-anchor="middle" font-size="8" fill="#6b7280">100</text>
  <line x1="254.9" y1="12" x2="254.9" y2="162" stroke="#e5e7eb" stroke-width="0.5"/>
  <text x="254.9" y="174" text-anchor="middle" font-size="8" fill="#6b7280">1k</text>
  <line x1="354.9" y1="12" x2="354.9" y2="162" stroke="#e5e7eb" stroke-width="0.5"/>
  <text x="354.9" y="174" text-anchor="middle" font-size="8" fill="#6b7280">10k</text>
  <line x1="55" y1="27.0" x2="385" y2="27.0" stroke="#e5e7eb" stroke-width="0.5"/>
  <line x1="55" y1="57.0" x2="385" y2="57.0" stroke="#e5e7eb" stroke-width="0.5"/>
  <line x1="55" y1="12.0" x2="385" y2="12.0" stroke="#e5e7eb" stroke-width="0.5"/>
  <text x="51" y="15.0" text-anchor="end" font-size="8" fill="#6b7280">+20</text>
  <text x="51" y="45.0" text-anchor="end" font-size="8" fill="#6b7280">0</text>
  <line x1="55" y1="72.0" x2="385" y2="72.0" stroke="#e5e7eb" stroke-width="0.5"/>
  <text x="51" y="75.0" text-anchor="end" font-size="8" fill="#6b7280">-20</text>
  <line x1="55" y1="102.0" x2="385" y2="102.0" stroke="#e5e7eb" stroke-width="0.5"/>
  <text x="51" y="105.0" text-anchor="end" font-size="8" fill="#6b7280">-40</text>
  <line x1="55" y1="132.0" x2="385" y2="132.0" stroke="#e5e7eb" stroke-width="0.5"/>
  <text x="51" y="135.0" text-anchor="end" font-size="8" fill="#6b7280">-60</text>
  <line x1="55" y1="162.0" x2="385" y2="162.0" stroke="#e5e7eb" stroke-width="0.5"/>
  <text x="51" y="165.0" text-anchor="end" font-size="8" fill="#6b7280">-80</text>
  <defs><linearGradient id="g105" x1="0" y1="12" x2="0" y2="162" gradientUnits="userSpaceOnUse">
    <stop offset="0%" stop-color="#4a90d9" stop-opacity="0.15"/>
    <stop offset="100%" stop-color="#4a90d9" stop-opacity="0.02"/>
  </linearGradient></defs>
  <path d="M58.2,42.0 58.2,42.0 88.3,42.0 105.9,42.0 118.4,42.0 128.1,42.0 136.0,42.0 142.7,42.0 148.5,42.0 153.6,42.0 158.2,42.0 162.3,42.1 166.1,42.1 169.6,42.1 172.8,42.1 175.8,42.1 178.6,42.1 181.2,42.1 183.7,42.2 186.0,42.2 188.3,42.2 190.4,42.2 192.4,42.2 194.3,42.3 196.2,42.3 198.0,42.3 199.7,42.3 201.3,42.4 202.9,42.4 204.4,42.4 205.9,42.4 207.3,42.5 208.7,42.5 210.0,42.5 211.3,42.6 212.6,42.6 213.8,42.6 215.0,42.7 216.1,42.7 217.3,42.7 218.4,42.8 219.4,42.8 220.5,42.9 221.5,42.9 222.5,42.9 223.5,43.0 224.4,43.0 225.4,43.1 226.3,43.1 227.2,43.2 228.1,43.2 228.9,43.3 229.8,43.3 230.6,43.4 231.4,43.4 233.0,43.5 234.5,43.7 236.0,43.8 237.4,43.9 238.8,44.0 240.1,44.2 241.4,44.3 242.7,44.5 243.9,44.6 245.1,44.8 246.2,44.9 247.4,45.1 248.5,45.3 249.5,45.4 250.6,45.6 251.6,45.8 252.6,46.0 253.6,46.2 254.5,46.4 255.5,46.6 256.4,46.9 257.3,47.1 258.1,47.3 259.0,47.6 259.8,47.8 260.7,48.1 261.5,48.3 262.7,48.7 263.8,49.1 265.0,49.6 266.1,50.0 267.1,50.5 268.2,50.9 269.2,51.4 270.2,51.9 271.2,52.4 272.1,53.0 273.1,53.5 274.0,54.0 274.9,54.6 275.7,55.1 276.6,55.7 277.5,56.3 278.3,56.9 279.1,57.5 280.1,58.3 281.2,59.1 282.2,59.9 283.2,60.7 284.1,61.5 285.1,62.3 286.0,63.2 286.9,64.0 287.8,64.8 288.7,65.6 289.5,66.4 290.4,67.3 291.2,68.1 292.0,68.9 293.0,69.9 293.9,70.9 294.9,71.8 295.8,72.8 296.7,73.8 297.6,74.7 298.4,75.6 299.3,76.6 300.1,77.5 300.9,78.4 301.7,79.3 302.7,80.3 303.6,81.4 304.5,82.4 305.4,83.4 306.3,84.4 307.1,85.4 308.0,86.4 308.8,87.4 309.6,88.3 310.5,89.4 311.4,90.5 312.3,91.5 313.2,92.6 314.0,93.6 314.8,94.6 315.6,95.6 316.4,96.6 317.3,97.7 318.2,98.7 319.1,99.8 319.9,100.9 320.8,101.9 321.6,102.9 322.5,104.0 323.3,105.1 324.2,106.2 325.1,107.3 325.9,108.4 326.7,109.4 327.6,110.6 328.5,111.7 329.3,112.8 330.1,113.9 331.0,115.0 331.8,116.1 332.6,117.2 333.5,118.4 334.3,119.5 335.1,120.6 335.9,121.7 336.8,122.9 337.6,124.1 338.5,125.2 339.3,126.3 340.1,127.6 341.0,128.8 341.8,130.0 342.6,131.1 343.5,132.4 344.3,133.6 345.2,134.9 346.0,136.1 346.8,137.4 347.7,138.7 348.5,139.9 349.3,141.2 350.1,142.5 351.0,143.8 351.8,145.2 352.6,146.6 353.4,147.9 354.3,149.3 355.1,150.8 355.9,152.2 356.7,153.6 357.6,155.2 358.4,156.7 359.2,158.2 360.1,159.8 360.9,161.4 361.7,162.0 362.5,162.0 363.3,162.0 364.1,162.0 365.0,162.0 365.8,162.0 366.6,162.0 367.4,162.0 368.3,162.0 369.1,162.0 369.9,162.0 370.7,162.0 371.5,162.0 372.3,162.0 373.1,162.0 373.9,162.0 374.8,162.0 375.6,162.0 376.4,162.0 377.2,162.0 378.0,162.0 378.8,162.0 379.6,162.0 380.4,162.0 381.3,162.0 382.1,162.0 382.9,162.0 383.7,162.0 384.5,162.0 L384.5,162.0 L58.2,162.0 Z" fill="url(#g105)"/>
  <defs><clipPath id="pc106"><rect x="55" y="12" width="330" height="150"/></clipPath></defs>
  <polyline points="58.2,42.0 88.3,42.0 105.9,42.0 118.4,42.0 128.1,42.0 136.0,42.0 142.7,42.0 148.5,42.0 153.6,42.0 158.2,42.0 162.3,42.1 166.1,42.1 169.6,42.1 172.8,42.1 175.8,42.1 178.6,42.1 181.2,42.1 183.7,42.2 186.0,42.2 188.3,42.2 190.4,42.2 192.4,42.2 194.3,42.3 196.2,42.3 198.0,42.3 199.7,42.3 201.3,42.4 202.9,42.4 204.4,42.4 205.9,42.4 207.3,42.5 208.7,42.5 210.0,42.5 211.3,42.6 212.6,42.6 213.8,42.6 215.0,42.7 216.1,42.7 217.3,42.7 218.4,42.8 219.4,42.8 220.5,42.9 221.5,42.9 222.5,42.9 223.5,43.0 224.4,43.0 225.4,43.1 226.3,43.1 227.2,43.2 228.1,43.2 228.9,43.3 229.8,43.3 230.6,43.4 231.4,43.4 233.0,43.5 234.5,43.7 236.0,43.8 237.4,43.9 238.8,44.0 240.1,44.2 241.4,44.3 242.7,44.5 243.9,44.6 245.1,44.8 246.2,44.9 247.4,45.1 248.5,45.3 249.5,45.4 250.6,45.6 251.6,45.8 252.6,46.0 253.6,46.2 254.5,46.4 255.5,46.6 256.4,46.9 257.3,47.1 258.1,47.3 259.0,47.6 259.8,47.8 260.7,48.1 261.5,48.3 262.7,48.7 263.8,49.1 265.0,49.6 266.1,50.0 267.1,50.5 268.2,50.9 269.2,51.4 270.2,51.9 271.2,52.4 272.1,53.0 273.1,53.5 274.0,54.0 274.9,54.6 275.7,55.1 276.6,55.7 277.5,56.3 278.3,56.9 279.1,57.5 280.1,58.3 281.2,59.1 282.2,59.9 283.2,60.7 284.1,61.5 285.1,62.3 286.0,63.2 286.9,64.0 287.8,64.8 288.7,65.6 289.5,66.4 290.4,67.3 291.2,68.1 292.0,68.9 293.0,69.9 293.9,70.9 294.9,71.8 295.8,72.8 296.7,73.8 297.6,74.7 298.4,75.6 299.3,76.6 300.1,77.5 300.9,78.4 301.7,79.3 302.7,80.3 303.6,81.4 304.5,82.4 305.4,83.4 306.3,84.4 307.1,85.4 308.0,86.4 308.8,87.4 309.6,88.3 310.5,89.4 311.4,90.5 312.3,91.5 313.2,92.6 314.0,93.6 314.8,94.6 315.6,95.6 316.4,96.6 317.3,97.7 318.2,98.7 319.1,99.8 319.9,100.9 320.8,101.9 321.6,102.9 322.5,104.0 323.3,105.1 324.2,106.2 325.1,107.3 325.9,108.4 326.7,109.4 327.6,110.6 328.5,111.7 329.3,112.8 330.1,113.9 331.0,115.0 331.8,116.1 332.6,117.2 333.5,118.4 334.3,119.5 335.1,120.6 335.9,121.7 336.8,122.9 337.6,124.1 338.5,125.2 339.3,126.3 340.1,127.6 341.0,128.8 341.8,130.0 342.6,131.1 343.5,132.4 344.3,133.6 345.2,134.9 346.0,136.1 346.8,137.4 347.7,138.7 348.5,139.9 349.3,141.2 350.1,142.5 351.0,143.8 351.8,145.2 352.6,146.6 353.4,147.9 354.3,149.3 355.1,150.8 355.9,152.2 356.7,153.6 357.6,155.2 358.4,156.7 359.2,158.2 360.1,159.8 360.9,161.4 361.7,163.0 362.5,164.7 363.3,166.4 364.1,168.1 365.0,169.9 365.8,171.7 366.6,173.6 367.4,175.5 368.3,177.5 369.1,179.6 369.9,181.7 370.7,183.9 371.5,186.2 372.3,188.6 373.1,191.1 373.9,193.8 374.8,196.5 375.6,199.4 376.4,202.5 377.2,205.7 378.0,209.2 378.8,212.9 379.6,216.9 380.4,221.3 381.3,226.2 382.1,231.5 382.9,237.5 383.7,244.3 384.5,252.2" fill="none" stroke="#4a90d9" stroke-width="1.5" stroke-linejoin="round" clip-path="url(#pc106)"/>
  <line x1="445" y1="12" x2="445" y2="162" stroke="#d1d5db"/>
  <line x1="445" y1="87.0" x2="775" y2="87.0" stroke="#d1d5db"/>
  <text x="610" y="190" text-anchor="middle" font-size="9" fill="#6b7280">Hz</text>
  <text x="419" y="87" text-anchor="middle" font-size="9" fill="#6b7280" transform="rotate(-90 419 87)">Phase (deg)</text>
  <line x1="475.1" y1="12" x2="475.1" y2="162" stroke="#e5e7eb" stroke-width="0.5"/>
  <line x1="492.7" y1="12" x2="492.7" y2="162" stroke="#e5e7eb" stroke-width="0.5"/>
  <line x1="505.2" y1="12" x2="505.2" y2="162" stroke="#e5e7eb" stroke-width="0.5"/>
  <line x1="514.9" y1="12" x2="514.9" y2="162" stroke="#e5e7eb" stroke-width="0.5"/>
  <line x1="522.8" y1="12" x2="522.8" y2="162" stroke="#e5e7eb" stroke-width="0.5"/>
  <line x1="529.5" y1="12" x2="529.5" y2="162" stroke="#e5e7eb" stroke-width="0.5"/>
  <line x1="535.3" y1="12" x2="535.3" y2="162" stroke="#e5e7eb" stroke-width="0.5"/>
  <line x1="540.4" y1="12" x2="540.4" y2="162" stroke="#e5e7eb" stroke-width="0.5"/>
  <line x1="575.1" y1="12" x2="575.1" y2="162" stroke="#e5e7eb" stroke-width="0.5"/>
  <line x1="592.7" y1="12" x2="592.7" y2="162" stroke="#e5e7eb" stroke-width="0.5"/>
  <line x1="605.2" y1="12" x2="605.2" y2="162" stroke="#e5e7eb" stroke-width="0.5"/>
  <line x1="614.8" y1="12" x2="614.8" y2="162" stroke="#e5e7eb" stroke-width="0.5"/>
  <line x1="622.8" y1="12" x2="622.8" y2="162" stroke="#e5e7eb" stroke-width="0.5"/>
  <line x1="629.5" y1="12" x2="629.5" y2="162" stroke="#e5e7eb" stroke-width="0.5"/>
  <line x1="635.2" y1="12" x2="635.2" y2="162" stroke="#e5e7eb" stroke-width="0.5"/>
  <line x1="640.4" y1="12" x2="640.4" y2="162" stroke="#e5e7eb" stroke-width="0.5"/>
  <line x1="675.0" y1="12" x2="675.0" y2="162" stroke="#e5e7eb" stroke-width="0.5"/>
  <line x1="692.6" y1="12" x2="692.6" y2="162" stroke="#e5e7eb" stroke-width="0.5"/>
  <line x1="705.1" y1="12" x2="705.1" y2="162" stroke="#e5e7eb" stroke-width="0.5"/>
  <line x1="714.8" y1="12" x2="714.8" y2="162" stroke="#e5e7eb" stroke-width="0.5"/>
  <line x1="722.7" y1="12" x2="722.7" y2="162" stroke="#e5e7eb" stroke-width="0.5"/>
  <line x1="729.4" y1="12" x2="729.4" y2="162" stroke="#e5e7eb" stroke-width="0.5"/>
  <line x1="735.2" y1="12" x2="735.2" y2="162" stroke="#e5e7eb" stroke-width="0.5"/>
  <line x1="740.3" y1="12" x2="740.3" y2="162" stroke="#e5e7eb" stroke-width="0.5"/>
  <line x1="775.0" y1="12" x2="775.0" y2="162" stroke="#e5e7eb" stroke-width="0.5"/>
  <line x1="545.0" y1="12" x2="545.0" y2="162" stroke="#e5e7eb" stroke-width="0.5"/>
  <text x="545.0" y="174" text-anchor="middle" font-size="8" fill="#6b7280">100</text>
  <line x1="644.9" y1="12" x2="644.9" y2="162" stroke="#e5e7eb" stroke-width="0.5"/>
  <text x="644.9" y="174" text-anchor="middle" font-size="8" fill="#6b7280">1k</text>
  <line x1="744.9" y1="12" x2="744.9" y2="162" stroke="#e5e7eb" stroke-width="0.5"/>
  <text x="744.9" y="174" text-anchor="middle" font-size="8" fill="#6b7280">10k</text>
  <line x1="445" y1="53.3" x2="775" y2="53.3" stroke="#e5e7eb" stroke-width="0.5"/>
  <line x1="445" y1="120.8" x2="775" y2="120.8" stroke="#e5e7eb" stroke-width="0.5"/>
  <line x1="445" y1="19.5" x2="775" y2="19.5" stroke="#e5e7eb" stroke-width="0.5"/>
  <text x="441" y="22.5" text-anchor="end" font-size="8" fill="#6b7280">180</text>
  <text x="441" y="90.0" text-anchor="end" font-size="8" fill="#6b7280">0</text>
  <line x1="445" y1="154.5" x2="775" y2="154.5" stroke="#e5e7eb" stroke-width="0.5"/>
  <text x="441" y="157.5" text-anchor="end" font-size="8" fill="#6b7280">-180</text>
  <defs><linearGradient id="g107" x1="0" y1="162" x2="0" y2="87.0" gradientUnits="userSpaceOnUse">
    <stop offset="0%" stop-color="#e74c3c" stop-opacity="0.15"/>
    <stop offset="100%" stop-color="#e74c3c" stop-opacity="0.02"/>
  </linearGradient></defs>
  <path d="M448.2,87.5 448.2,87.5 478.3,88.0 495.9,88.5 508.4,89.0 518.1,89.4 526.0,89.9 532.7,90.4 538.5,90.9 543.6,91.4 548.2,91.9 552.3,92.4 556.1,92.9 559.6,93.3 562.8,93.8 565.8,94.3 568.6,94.8 571.2,95.3 573.7,95.8 576.0,96.3 578.3,96.8 580.4,97.3 582.4,97.7 584.3,98.2 586.2,98.7 588.0,99.2 589.7,99.7 591.3,100.2 592.9,100.7 594.4,101.2 595.9,101.6 597.3,102.1 598.7,102.6 600.0,103.1 601.3,103.6 602.6,104.1 603.8,104.6 605.0,105.1 606.1,105.6 607.3,106.0 608.4,106.5 609.4,107.0 610.5,107.5 611.5,108.0 612.5,108.5 613.5,109.0 614.4,109.5 615.4,110.0 616.3,110.4 617.2,110.9 618.1,111.4 618.9,111.9 619.8,112.4 620.6,112.9 621.4,113.4 623.0,114.4 624.5,115.3 626.0,116.3 627.4,117.3 628.8,118.3 630.1,119.2 631.4,120.2 632.7,121.2 633.9,122.2 635.1,123.1 636.2,124.1 637.4,125.1 638.5,126.1 639.5,127.0 640.6,128.0 641.6,129.0 642.6,130.0 643.6,130.9 644.5,131.9 645.5,132.9 646.4,133.8 647.3,134.8 648.1,135.7 649.0,136.7 649.8,137.6 650.7,138.6 651.5,139.5 652.7,140.9 653.8,142.3 655.0,143.7 656.1,145.0 657.1,146.4 658.2,147.7 659.2,149.0 660.2,150.3 661.2,151.6 662.1,152.8 663.1,154.1 664.0,155.3 664.9,156.5 665.7,157.6 666.6,158.8 667.5,159.9 668.3,161.0 669.1,162.0 670.1,162.0 671.2,162.0 672.2,162.0 673.2,162.0 674.1,162.0 675.1,162.0 676.0,162.0 676.9,162.0 677.8,162.0 678.7,162.0 679.5,162.0 680.4,162.0 681.2,162.0 682.0,162.0 683.0,162.0 683.9,162.0 684.9,162.0 685.8,162.0 686.7,162.0 687.6,162.0 688.4,162.0 689.3,162.0 690.1,162.0 690.9,162.0 691.7,162.0 692.7,162.0 693.6,162.0 694.5,162.0 695.4,162.0 696.3,162.0 697.1,162.0 698.0,162.0 698.8,162.0 699.6,162.0 700.5,162.0 701.4,162.0 702.3,162.0 703.2,162.0 704.0,162.0 704.8,162.0 705.6,162.0 706.4,162.0 707.3,162.0 708.2,162.0 709.1,162.0 709.9,162.0 710.8,162.0 711.6,162.0 712.5,162.0 713.3,162.0 714.2,162.0 715.1,162.0 715.9,162.0 716.7,162.0 717.6,162.0 718.5,162.0 719.3,162.0 720.1,162.0 721.0,162.0 721.8,162.0 722.6,162.0 723.5,162.0 724.3,162.0 725.1,162.0 725.9,162.0 726.8,162.0 727.6,162.0 728.5,162.0 729.3,162.0 730.1,162.0 731.0,162.0 731.8,162.0 732.6,162.0 733.5,162.0 734.3,162.0 735.2,162.0 736.0,162.0 736.8,162.0 737.7,162.0 738.5,162.0 739.3,162.0 740.1,162.0 741.0,162.0 741.8,162.0 742.6,162.0 743.4,162.0 744.3,162.0 745.1,162.0 745.9,162.0 746.7,162.0 747.6,162.0 748.4,162.0 749.2,162.0 750.1,162.0 750.9,162.0 751.7,162.0 752.5,162.0 753.3,162.0 754.1,162.0 755.0,162.0 755.8,162.0 756.6,162.0 757.4,162.0 758.3,162.0 759.1,162.0 759.9,162.0 760.7,162.0 761.5,162.0 762.3,162.0 763.1,162.0 763.9,162.0 764.8,162.0 765.6,162.0 766.4,162.0 767.2,162.0 768.0,162.0 768.8,162.0 769.6,162.0 770.4,162.0 771.3,162.0 772.1,162.0 772.9,162.0 773.7,162.0 774.5,162.0 L774.5,87.0 L448.2,87.0 Z" fill="url(#g107)"/>
  <defs><clipPath id="pc108"><rect x="445" y="12" width="330" height="150"/></clipPath></defs>
  <polyline points="448.2,87.5 478.3,88.0 495.9,88.5 508.4,89.0 518.1,89.4 526.0,89.9 532.7,90.4 538.5,90.9 543.6,91.4 548.2,91.9 552.3,92.4 556.1,92.9 559.6,93.3 562.8,93.8 565.8,94.3 568.6,94.8 571.2,95.3 573.7,95.8 576.0,96.3 578.3,96.8 580.4,97.3 582.4,97.7 584.3,98.2 586.2,98.7 588.0,99.2 589.7,99.7 591.3,100.2 592.9,100.7 594.4,101.2 595.9,101.6 597.3,102.1 598.7,102.6 600.0,103.1 601.3,103.6 602.6,104.1 603.8,104.6 605.0,105.1 606.1,105.6 607.3,106.0 608.4,106.5 609.4,107.0 610.5,107.5 611.5,108.0 612.5,108.5 613.5,109.0 614.4,109.5 615.4,110.0 616.3,110.4 617.2,110.9 618.1,111.4 618.9,111.9 619.8,112.4 620.6,112.9 621.4,113.4 623.0,114.4 624.5,115.3 626.0,116.3 627.4,117.3 628.8,118.3 630.1,119.2 631.4,120.2 632.7,121.2 633.9,122.2 635.1,123.1 636.2,124.1 637.4,125.1 638.5,126.1 639.5,127.0 640.6,128.0 641.6,129.0 642.6,130.0 643.6,130.9 644.5,131.9 645.5,132.9 646.4,133.8 647.3,134.8 648.1,135.7 649.0,136.7 649.8,137.6 650.7,138.6 651.5,139.5 652.7,140.9 653.8,142.3 655.0,143.7 656.1,145.0 657.1,146.4 658.2,147.7 659.2,149.0 660.2,150.3 661.2,151.6 662.1,152.8 663.1,154.1 664.0,155.3 664.9,156.5 665.7,157.6 666.6,158.8 667.5,159.9 668.3,161.0 669.1,162.0 670.1,163.4 671.2,164.7 672.2,166.0 673.2,167.2 674.1,168.4 675.1,169.6 676.0,170.7 676.9,171.8 677.8,172.8 678.7,173.8 679.5,174.8 680.4,175.8 681.2,176.7 682.0,177.5 683.0,178.6 683.9,179.6 684.9,180.5 685.8,181.5 686.7,182.4 687.6,183.2 688.4,184.0 689.3,184.8 690.1,185.6 690.9,186.3 691.7,187.0 692.7,187.8 693.6,188.6 694.5,189.3 695.4,190.0 696.3,190.7 697.1,191.3 698.0,192.0 698.8,192.6 699.6,193.2 700.5,193.8 701.4,194.4 702.3,195.0 703.2,195.6 704.0,196.2 704.8,196.7 705.6,197.2 706.4,197.7 707.3,198.2 708.2,198.8 709.1,199.2 709.9,199.7 710.8,200.2 711.6,200.6 712.5,201.1 713.3,201.6 714.2,202.0 715.1,202.4 715.9,202.9 716.7,203.3 717.6,203.7 718.5,204.1 719.3,204.5 720.1,204.8 721.0,205.2 721.8,205.6 722.6,205.9 723.5,206.3 724.3,206.6 725.1,207.0 725.9,207.3 726.8,207.6 727.6,208.0 728.5,208.3 729.3,208.6 730.1,208.9 731.0,209.2 731.8,209.5 732.6,209.8 733.5,210.1 734.3,210.4 735.2,210.6 736.0,210.9 736.8,211.2 737.7,211.4 738.5,211.7 739.3,211.9 740.1,212.2 741.0,212.4 741.8,212.7 742.6,212.9 743.4,213.2 744.3,213.4 745.1,213.6 745.9,213.9 746.7,214.1 747.6,214.3 748.4,214.5 749.2,214.8 750.1,215.0 750.9,215.2 751.7,215.4 752.5,215.6 753.3,215.8 754.1,216.0 755.0,216.2 755.8,216.4 756.6,216.6 757.4,216.8 758.3,217.0 759.1,217.2 759.9,217.4 760.7,217.6 761.5,217.8 762.3,218.0 763.1,218.2 763.9,218.3 764.8,218.5 765.6,218.7 766.4,218.9 767.2,219.1 768.0,219.3 768.8,219.5 769.6,219.7 770.4,219.8 771.3,220.0 772.1,220.2 772.9,220.4 773.7,220.6 774.5,220.8" fill="none" stroke="#e74c3c" stroke-width="1.5" stroke-linejoin="round" clip-path="url(#pc108)"/>
  <line x1="55" y1="210" x2="55" y2="360" stroke="#d1d5db"/>
  <line x1="55" y1="285.0" x2="385" y2="285.0" stroke="#d1d5db"/>
  <text x="220" y="388" text-anchor="middle" font-size="9" fill="#6b7280">Hz</text>
  <text x="29" y="285" text-anchor="middle" font-size="9" fill="#6b7280" transform="rotate(-90 29 285)">Group delay</text>
  <line x1="85.1" y1="210" x2="85.1" y2="360" stroke="#e5e7eb" stroke-width="0.5"/>
  <line x1="102.7" y1="210" x2="102.7" y2="360" stroke="#e5e7eb" stroke-width="0.5"/>
  <line x1="115.2" y1="210" x2="115.2" y2="360" stroke="#e5e7eb" stroke-width="0.5"/>
  <line x1="124.9" y1="210" x2="124.9" y2="360" stroke="#e5e7eb" stroke-width="0.5"/>
  <line x1="132.8" y1="210" x2="132.8" y2="360" stroke="#e5e7eb" stroke-width="0.5"/>
  <line x1="139.5" y1="210" x2="139.5" y2="360" stroke="#e5e7eb" stroke-width="0.5"/>
  <line x1="145.3" y1="210" x2="145.3" y2="360" stroke="#e5e7eb" stroke-width="0.5"/>
  <line x1="150.4" y1="210" x2="150.4" y2="360" stroke="#e5e7eb" stroke-width="0.5"/>
  <line x1="185.1" y1="210" x2="185.1" y2="360" stroke="#e5e7eb" stroke-width="0.5"/>
  <line x1="202.7" y1="210" x2="202.7" y2="360" stroke="#e5e7eb" stroke-width="0.5"/>
  <line x1="215.2" y1="210" x2="215.2" y2="360" stroke="#e5e7eb" stroke-width="0.5"/>
  <line x1="224.8" y1="210" x2="224.8" y2="360" stroke="#e5e7eb" stroke-width="0.5"/>
  <line x1="232.8" y1="210" x2="232.8" y2="360" stroke="#e5e7eb" stroke-width="0.5"/>
  <line x1="239.5" y1="210" x2="239.5" y2="360" stroke="#e5e7eb" stroke-width="0.5"/>
  <line x1="245.2" y1="210" x2="245.2" y2="360" stroke="#e5e7eb" stroke-width="0.5"/>
  <line x1="250.4" y1="210" x2="250.4" y2="360" stroke="#e5e7eb" stroke-width="0.5"/>
  <line x1="285.0" y1="210" x2="285.0" y2="360" stroke="#e5e7eb" stroke-width="0.5"/>
  <line x1="302.6" y1="210" x2="302.6" y2="360" stroke="#e5e7eb" stroke-width="0.5"/>
  <line x1="315.1" y1="210" x2="315.1" y2="360" stroke="#e5e7eb" stroke-width="0.5"/>
  <line x1="324.8" y1="210" x2="324.8" y2="360" stroke="#e5e7eb" stroke-width="0.5"/>
  <line x1="332.7" y1="210" x2="332.7" y2="360" stroke="#e5e7eb" stroke-width="0.5"/>
  <line x1="339.4" y1="210" x2="339.4" y2="360" stroke="#e5e7eb" stroke-width="0.5"/>
  <line x1="345.2" y1="210" x2="345.2" y2="360" stroke="#e5e7eb" stroke-width="0.5"/>
  <line x1="350.3" y1="210" x2="350.3" y2="360" stroke="#e5e7eb" stroke-width="0.5"/>
  <line x1="385.0" y1="210" x2="385.0" y2="360" stroke="#e5e7eb" stroke-width="0.5"/>
  <line x1="155.0" y1="210" x2="155.0" y2="360" stroke="#e5e7eb" stroke-width="0.5"/>
  <text x="155.0" y="372" text-anchor="middle" font-size="8" fill="#6b7280">100</text>
  <line x1="254.9" y1="210" x2="254.9" y2="360" stroke="#e5e7eb" stroke-width="0.5"/>
  <text x="254.9" y="372" text-anchor="middle" font-size="8" fill="#6b7280">1k</text>
  <line x1="354.9" y1="210" x2="354.9" y2="360" stroke="#e5e7eb" stroke-width="0.5"/>
  <text x="354.9" y="372" text-anchor="middle" font-size="8" fill="#6b7280">10k</text>
  <line x1="55" y1="329.2" x2="385" y2="329.2" stroke="#e5e7eb" stroke-width="0.5"/>
  <text x="51" y="332.2" text-anchor="end" font-size="8" fill="#6b7280">-2000</text>
  <text x="51" y="288.0" text-anchor="end" font-size="8" fill="#6b7280">0</text>
  <line x1="55" y1="240.8" x2="385" y2="240.8" stroke="#e5e7eb" stroke-width="0.5"/>
  <text x="51" y="243.8" text-anchor="end" font-size="8" fill="#6b7280">2000</text>
  <defs><linearGradient id="g109" x1="0" y1="360" x2="0" y2="285.0" gradientUnits="userSpaceOnUse">
    <stop offset="0%" stop-color="#2ecc71" stop-opacity="0.15"/>
    <stop offset="100%" stop-color="#2ecc71" stop-opacity="0.02"/>
  </linearGradient></defs>
  <path d="M58.2,285.0 58.2,285.0 88.3,285.0 105.9,285.0 118.4,285.0 128.1,285.0 136.0,285.0 142.7,285.0 148.5,285.0 153.6,285.0 158.2,285.0 162.3,285.0 166.1,285.0 169.6,285.0 172.8,285.0 175.8,285.0 178.6,285.0 181.2,285.0 183.7,285.0 186.0,285.0 188.3,285.0 190.4,285.0 192.4,285.0 194.3,285.0 196.2,285.0 198.0,285.0 199.7,285.0 201.3,285.0 202.9,285.0 204.4,285.0 205.9,285.0 207.3,285.0 208.7,285.0 210.0,285.0 211.3,285.0 212.6,285.0 213.8,285.0 215.0,285.0 216.1,285.0 217.3,285.0 218.4,285.0 219.4,285.0 220.5,285.0 221.5,285.0 222.5,285.0 223.5,285.0 224.4,285.1 225.4,285.1 226.3,285.1 227.2,285.1 228.1,285.1 228.9,285.1 229.8,285.1 230.6,285.1 231.4,285.1 233.0,285.1 234.5,285.1 236.0,285.1 237.4,285.1 238.8,285.1 240.1,285.1 241.4,285.1 242.7,285.1 243.9,285.1 245.1,285.1 246.2,285.1 247.4,285.1 248.5,285.1 249.5,285.1 250.6,285.1 251.6,285.1 252.6,285.1 253.6,285.1 254.5,285.1 255.5,285.1 256.4,285.1 257.3,285.1 258.1,285.1 259.0,285.1 259.8,285.1 260.7,285.1 261.5,285.1 262.7,285.2 263.8,285.2 265.0,285.2 266.1,285.2 267.1,285.2 268.2,285.2 269.2,285.2 270.2,285.2 271.2,285.2 272.1,285.2 273.1,285.2 274.0,285.2 274.9,285.2 275.7,285.2 276.6,285.2 277.5,285.2 278.3,285.2 279.1,285.2 280.1,285.2 281.2,285.2 282.2,285.2 283.2,285.2 284.1,285.2 285.1,285.2 286.0,285.2 286.9,285.2 287.8,285.2 288.7,285.2 289.5,285.2 290.4,285.2 291.2,285.2 292.0,285.2 293.0,285.2 293.9,285.2 294.9,285.2 295.8,285.2 296.7,285.2 297.6,285.2 298.4,285.2 299.3,285.2 300.1,285.2 300.9,285.2 301.7,285.2 302.7,285.2 303.6,285.2 304.5,285.2 305.4,285.2 306.3,285.2 307.1,285.2 308.0,285.2 308.8,285.2 309.6,285.2 310.5,285.2 311.4,285.2 312.3,285.2 313.2,285.2 314.0,285.2 314.8,285.2 315.6,285.2 316.4,285.2 317.3,285.2 318.2,285.1 319.1,285.1 319.9,285.1 320.8,285.1 321.6,285.1 322.5,285.1 323.3,285.1 324.2,285.1 325.1,285.1 325.9,285.1 326.7,285.1 327.6,285.1 328.5,285.1 329.3,285.1 330.1,285.1 331.0,285.1 331.8,285.1 332.6,285.1 333.5,285.1 334.3,285.1 335.1,285.1 335.9,285.1 336.8,285.1 337.6,285.1 338.5,285.1 339.3,285.1 340.1,285.1 341.0,285.1 341.8,285.1 342.6,285.1 343.5,285.1 344.3,285.1 345.2,285.1 346.0,285.1 346.8,285.1 347.7,285.1 348.5,285.1 349.3,285.1 350.1,285.1 351.0,285.1 351.8,285.1 352.6,285.1 353.4,285.1 354.3,285.1 355.1,285.1 355.9,285.1 356.7,285.1 357.6,285.1 358.4,285.1 359.2,285.1 360.1,285.1 360.9,285.1 361.7,285.1 362.5,285.1 363.3,285.1 364.1,285.1 365.0,285.1 365.8,285.1 366.6,285.1 367.4,285.1 368.3,285.1 369.1,285.1 369.9,285.1 370.7,285.1 371.5,285.1 372.3,285.1 373.1,285.1 373.9,285.1 374.8,285.1 375.6,285.1 376.4,285.1 377.2,285.1 378.0,285.1 378.8,285.1 379.6,285.2 380.4,285.2 381.3,285.2 382.1,285.2 382.9,285.2 383.7,285.2 384.5,285.3 L384.5,285.0 L58.2,285.0 Z" fill="url(#g109)"/>
  <defs><clipPath id="pc110"><rect x="55" y="210" width="330" height="150"/></clipPath></defs>
  <polyline points="58.2,285.0 88.3,285.0 105.9,285.0 118.4,285.0 128.1,285.0 136.0,285.0 142.7,285.0 148.5,285.0 153.6,285.0 158.2,285.0 162.3,285.0 166.1,285.0 169.6,285.0 172.8,285.0 175.8,285.0 178.6,285.0 181.2,285.0 183.7,285.0 186.0,285.0 188.3,285.0 190.4,285.0 192.4,285.0 194.3,285.0 196.2,285.0 198.0,285.0 199.7,285.0 201.3,285.0 202.9,285.0 204.4,285.0 205.9,285.0 207.3,285.0 208.7,285.0 210.0,285.0 211.3,285.0 212.6,285.0 213.8,285.0 215.0,285.0 216.1,285.0 217.3,285.0 218.4,285.0 219.4,285.0 220.5,285.0 221.5,285.0 222.5,285.0 223.5,285.0 224.4,285.1 225.4,285.1 226.3,285.1 227.2,285.1 228.1,285.1 228.9,285.1 229.8,285.1 230.6,285.1 231.4,285.1 233.0,285.1 234.5,285.1 236.0,285.1 237.4,285.1 238.8,285.1 240.1,285.1 241.4,285.1 242.7,285.1 243.9,285.1 245.1,285.1 246.2,285.1 247.4,285.1 248.5,285.1 249.5,285.1 250.6,285.1 251.6,285.1 252.6,285.1 253.6,285.1 254.5,285.1 255.5,285.1 256.4,285.1 257.3,285.1 258.1,285.1 259.0,285.1 259.8,285.1 260.7,285.1 261.5,285.1 262.7,285.2 263.8,285.2 265.0,285.2 266.1,285.2 267.1,285.2 268.2,285.2 269.2,285.2 270.2,285.2 271.2,285.2 272.1,285.2 273.1,285.2 274.0,285.2 274.9,285.2 275.7,285.2 276.6,285.2 277.5,285.2 278.3,285.2 279.1,285.2 280.1,285.2 281.2,285.2 282.2,285.2 283.2,285.2 284.1,285.2 285.1,285.2 286.0,285.2 286.9,285.2 287.8,285.2 288.7,285.2 289.5,285.2 290.4,285.2 291.2,285.2 292.0,285.2 293.0,285.2 293.9,285.2 294.9,285.2 295.8,285.2 296.7,285.2 297.6,285.2 298.4,285.2 299.3,285.2 300.1,285.2 300.9,285.2 301.7,285.2 302.7,285.2 303.6,285.2 304.5,285.2 305.4,285.2 306.3,285.2 307.1,285.2 308.0,285.2 308.8,285.2 309.6,285.2 310.5,285.2 311.4,285.2 312.3,285.2 313.2,285.2 314.0,285.2 314.8,285.2 315.6,285.2 316.4,285.2 317.3,285.2 318.2,285.1 319.1,285.1 319.9,285.1 320.8,285.1 321.6,285.1 322.5,285.1 323.3,285.1 324.2,285.1 325.1,285.1 325.9,285.1 326.7,285.1 327.6,285.1 328.5,285.1 329.3,285.1 330.1,285.1 331.0,285.1 331.8,285.1 332.6,285.1 333.5,285.1 334.3,285.1 335.1,285.1 335.9,285.1 336.8,285.1 337.6,285.1 338.5,285.1 339.3,285.1 340.1,285.1 341.0,285.1 341.8,285.1 342.6,285.1 343.5,285.1 344.3,285.1 345.2,285.1 346.0,285.1 346.8,285.1 347.7,285.1 348.5,285.1 349.3,285.1 350.1,285.1 351.0,285.1 351.8,285.1 352.6,285.1 353.4,285.1 354.3,285.1 355.1,285.1 355.9,285.1 356.7,285.1 357.6,285.1 358.4,285.1 359.2,285.1 360.1,285.1 360.9,285.1 361.7,285.1 362.5,285.1 363.3,285.1 364.1,285.1 365.0,285.1 365.8,285.1 366.6,285.1 367.4,285.1 368.3,285.1 369.1,285.1 369.9,285.1 370.7,285.1 371.5,285.1 372.3,285.1 373.1,285.1 373.9,285.1 374.8,285.1 375.6,285.1 376.4,285.1 377.2,285.1 378.0,285.1 378.8,285.1 379.6,285.2 380.4,285.2 381.3,285.2 382.1,285.2 382.9,285.2 383.7,285.2 384.5,285.3" fill="none" stroke="#2ecc71" stroke-width="1.5" stroke-linejoin="round" clip-path="url(#pc110)"/>
  <line x1="445" y1="210" x2="445" y2="360" stroke="#d1d5db"/>
  <line x1="445" y1="285.0" x2="775" y2="285.0" stroke="#d1d5db"/>
  <text x="610" y="388" text-anchor="middle" font-size="9" fill="#6b7280">Samples</text>
  <text x="419" y="285" text-anchor="middle" font-size="9" fill="#6b7280" transform="rotate(-90 419 285)">Impulse response</text>
  <line x1="445.0" y1="210" x2="445.0" y2="360" stroke="#e5e7eb" stroke-width="0.5"/>
  <text x="445.0" y="372" text-anchor="middle" font-size="8" fill="#6b7280">0</text>
  <line x1="527.5" y1="210" x2="527.5" y2="360" stroke="#e5e7eb" stroke-width="0.5"/>
  <text x="527.5" y="372" text-anchor="middle" font-size="8" fill="#6b7280">32</text>
  <line x1="610.0" y1="210" x2="610.0" y2="360" stroke="#e5e7eb" stroke-width="0.5"/>
  <text x="610.0" y="372" text-anchor="middle" font-size="8" fill="#6b7280">64</text>
  <line x1="692.5" y1="210" x2="692.5" y2="360" stroke="#e5e7eb" stroke-width="0.5"/>
  <text x="692.5" y="372" text-anchor="middle" font-size="8" fill="#6b7280">96</text>
  <line x1="775.0" y1="210" x2="775.0" y2="360" stroke="#e5e7eb" stroke-width="0.5"/>
  <text x="775.0" y="372" text-anchor="middle" font-size="8" fill="#6b7280">128</text>
  <line x1="445" y1="343.6" x2="775" y2="343.6" stroke="#e5e7eb" stroke-width="0.5"/>
  <text x="441" y="346.6" text-anchor="end" font-size="8" fill="#6b7280">-0.05</text>
  <text x="441" y="288.0" text-anchor="end" font-size="8" fill="#6b7280">0</text>
  <line x1="445" y1="226.4" x2="775" y2="226.4" stroke="#e5e7eb" stroke-width="0.5"/>
  <text x="441" y="229.4" text-anchor="end" font-size="8" fill="#6b7280">0.05</text>
  <defs><linearGradient id="g111" x1="0" y1="210" x2="0" y2="285.0" gradientUnits="userSpaceOnUse">
    <stop offset="0%" stop-color="#f39c12" stop-opacity="0.15"/>
    <stop offset="100%" stop-color="#f39c12" stop-opacity="0.02"/>
  </linearGradient></defs>
  <defs><linearGradient id="g112" x1="0" y1="360" x2="0" y2="285.0" gradientUnits="userSpaceOnUse">
    <stop offset="0%" stop-color="#f39c12" stop-opacity="0.15"/>
    <stop offset="100%" stop-color="#f39c12" stop-opacity="0.02"/>
  </linearGradient></defs>
  <defs><clipPath id="c113"><rect x="445" y="210" width="330" height="75.0"/></clipPath></defs>
  <defs><clipPath id="c114"><rect x="445" y="285.0" width="330" height="75.0"/></clipPath></defs>
  <path d="M445.0,284.9 445.0,284.9 447.6,284.2 450.2,282.0 452.7,277.7 455.3,271.3 457.9,263.1 460.5,253.9 463.0,244.4 465.6,235.3 468.2,227.0 470.8,220.2 473.4,215.0 475.9,211.6 478.5,210.0 481.1,210.1 483.7,211.8 486.3,214.9 488.8,219.0 491.4,223.9 494.0,229.4 496.6,235.3 499.1,241.2 501.7,247.1 504.3,252.8 506.9,258.1 509.5,263.0 512.0,267.4 514.6,271.3 517.2,274.6 519.8,277.5 522.3,279.8 524.9,281.7 527.5,283.2 530.1,284.4 532.7,285.2 535.2,285.8 537.8,286.1 540.4,286.3 543.0,286.4 545.5,286.4 548.1,286.3 550.7,286.1 553.3,285.9 555.9,285.8 558.4,285.6 561.0,285.4 563.6,285.3 566.2,285.2 568.8,285.1 571.3,285.0 573.9,284.9 576.5,284.9 579.1,284.9 581.6,284.8 584.2,284.8 586.8,284.8 589.4,284.9 592.0,284.9 594.5,284.9 597.1,284.9 599.7,284.9 602.3,284.9 604.8,285.0 607.4,285.0 610.0,285.0 612.6,285.0 615.2,285.0 617.7,285.0 620.3,285.0 622.9,285.0 625.5,285.0 628.0,285.0 630.6,285.0 633.2,285.0 635.8,285.0 638.4,285.0 640.9,285.0 643.5,285.0 646.1,285.0 648.7,285.0 651.3,285.0 653.8,285.0 656.4,285.0 659.0,285.0 661.6,285.0 664.1,285.0 666.7,285.0 669.3,285.0 671.9,285.0 674.5,285.0 677.0,285.0 679.6,285.0 682.2,285.0 684.8,285.0 687.3,285.0 689.9,285.0 692.5,285.0 695.1,285.0 697.7,285.0 700.2,285.0 702.8,285.0 705.4,285.0 708.0,285.0 710.5,285.0 713.1,285.0 715.7,285.0 718.3,285.0 720.9,285.0 723.4,285.0 726.0,285.0 728.6,285.0 731.2,285.0 733.8,285.0 736.3,285.0 738.9,285.0 741.5,285.0 744.1,285.0 746.6,285.0 749.2,285.0 751.8,285.0 754.4,285.0 757.0,285.0 759.5,285.0 762.1,285.0 764.7,285.0 767.3,285.0 769.8,285.0 772.4,285.0 L772.4,285.0 L445.0,285.0 Z" fill="url(#g111)" clip-path="url(#c113)"/>
  <path d="M445.0,284.9 445.0,284.9 447.6,284.2 450.2,282.0 452.7,277.7 455.3,271.3 457.9,263.1 460.5,253.9 463.0,244.4 465.6,235.3 468.2,227.0 470.8,220.2 473.4,215.0 475.9,211.6 478.5,210.0 481.1,210.1 483.7,211.8 486.3,214.9 488.8,219.0 491.4,223.9 494.0,229.4 496.6,235.3 499.1,241.2 501.7,247.1 504.3,252.8 506.9,258.1 509.5,263.0 512.0,267.4 514.6,271.3 517.2,274.6 519.8,277.5 522.3,279.8 524.9,281.7 527.5,283.2 530.1,284.4 532.7,285.2 535.2,285.8 537.8,286.1 540.4,286.3 543.0,286.4 545.5,286.4 548.1,286.3 550.7,286.1 553.3,285.9 555.9,285.8 558.4,285.6 561.0,285.4 563.6,285.3 566.2,285.2 568.8,285.1 571.3,285.0 573.9,284.9 576.5,284.9 579.1,284.9 581.6,284.8 584.2,284.8 586.8,284.8 589.4,284.9 592.0,284.9 594.5,284.9 597.1,284.9 599.7,284.9 602.3,284.9 604.8,285.0 607.4,285.0 610.0,285.0 612.6,285.0 615.2,285.0 617.7,285.0 620.3,285.0 622.9,285.0 625.5,285.0 628.0,285.0 630.6,285.0 633.2,285.0 635.8,285.0 638.4,285.0 640.9,285.0 643.5,285.0 646.1,285.0 648.7,285.0 651.3,285.0 653.8,285.0 656.4,285.0 659.0,285.0 661.6,285.0 664.1,285.0 666.7,285.0 669.3,285.0 671.9,285.0 674.5,285.0 677.0,285.0 679.6,285.0 682.2,285.0 684.8,285.0 687.3,285.0 689.9,285.0 692.5,285.0 695.1,285.0 697.7,285.0 700.2,285.0 702.8,285.0 705.4,285.0 708.0,285.0 710.5,285.0 713.1,285.0 715.7,285.0 718.3,285.0 720.9,285.0 723.4,285.0 726.0,285.0 728.6,285.0 731.2,285.0 733.8,285.0 736.3,285.0 738.9,285.0 741.5,285.0 744.1,285.0 746.6,285.0 749.2,285.0 751.8,285.0 754.4,285.0 757.0,285.0 759.5,285.0 762.1,285.0 764.7,285.0 767.3,285.0 769.8,285.0 772.4,285.0 L772.4,285.0 L445.0,285.0 Z" fill="url(#g112)" clip-path="url(#c114)"/>
  <defs><clipPath id="pc115"><rect x="445" y="210" width="330" height="150"/></clipPath></defs>
  <polyline points="445.0,284.9 447.6,284.2 450.2,282.0 452.7,277.7 455.3,271.3 457.9,263.1 460.5,253.9 463.0,244.4 465.6,235.3 468.2,227.0 470.8,220.2 473.4,215.0 475.9,211.6 478.5,210.0 481.1,210.1 483.7,211.8 486.3,214.9 488.8,219.0 491.4,223.9 494.0,229.4 496.6,235.3 499.1,241.2 501.7,247.1 504.3,252.8 506.9,258.1 509.5,263.0 512.0,267.4 514.6,271.3 517.2,274.6 519.8,277.5 522.3,279.8 524.9,281.7 527.5,283.2 530.1,284.4 532.7,285.2 535.2,285.8 537.8,286.1 540.4,286.3 543.0,286.4 545.5,286.4 548.1,286.3 550.7,286.1 553.3,285.9 555.9,285.8 558.4,285.6 561.0,285.4 563.6,285.3 566.2,285.2 568.8,285.1 571.3,285.0 573.9,284.9 576.5,284.9 579.1,284.9 581.6,284.8 584.2,284.8 586.8,284.8 589.4,284.9 592.0,284.9 594.5,284.9 597.1,284.9 599.7,284.9 602.3,284.9 604.8,285.0 607.4,285.0 610.0,285.0 612.6,285.0 615.2,285.0 617.7,285.0 620.3,285.0 622.9,285.0 625.5,285.0 628.0,285.0 630.6,285.0 633.2,285.0 635.8,285.0 638.4,285.0 640.9,285.0 643.5,285.0 646.1,285.0 648.7,285.0 651.3,285.0 653.8,285.0 656.4,285.0 659.0,285.0 661.6,285.0 664.1,285.0 666.7,285.0 669.3,285.0 671.9,285.0 674.5,285.0 677.0,285.0 679.6,285.0 682.2,285.0 684.8,285.0 687.3,285.0 689.9,285.0 692.5,285.0 695.1,285.0 697.7,285.0 700.2,285.0 702.8,285.0 705.4,285.0 708.0,285.0 710.5,285.0 713.1,285.0 715.7,285.0 718.3,285.0 720.9,285.0 723.4,285.0 726.0,285.0 728.6,285.0 731.2,285.0 733.8,285.0 736.3,285.0 738.9,285.0 741.5,285.0 744.1,285.0 746.6,285.0 749.2,285.0 751.8,285.0 754.4,285.0 757.0,285.0 759.5,285.0 762.1,285.0 764.7,285.0 767.3,285.0 769.8,285.0 772.4,285.0" fill="none" stroke="#f39c12" stroke-width="1.3" stroke-linejoin="round" clip-path="url(#pc115)"/>
</svg>
