<svg xmlns="http://www.w3.org/2000/svg" viewBox="0 0 800 240" style="font-family:system-ui,-apple-system,sans-serif">
  <line x1="55" y1="12" x2="55" y2="192" stroke="#d1d5db"/>
  <line x1="55" y1="192" x2="755" y2="192" stroke="#d1d5db"/>
  <text x="405" y="222" text-anchor="middle" font-size="10" fill="#6b7280">Frequency (Hz)</text>
  <text x="17" y="102" text-anchor="middle" font-size="10" fill="#6b7280" transform="rotate(-90 17 102)">Magnitude (dB)</text>
  <line x1="99.4" y1="12" x2="99.4" y2="192" stroke="#e5e7eb" stroke-width="0.5"/>
  <text x="99.4" y="205" text-anchor="middle" font-size="9" fill="#6b7280">31</text>
  <line x1="169.7" y1="12" x2="169.7" y2="192" stroke="#e5e7eb" stroke-width="0.5"/>
  <text x="169.7" y="205" text-anchor="middle" font-size="9" fill="#6b7280">62</text>
  <line x1="240.7" y1="12" x2="240.7" y2="192" stroke="#e5e7eb" stroke-width="0.5"/>
  <text x="240.7" y="205" text-anchor="middle" font-size="9" fill="#6b7280">125</text>
  <line x1="310.9" y1="12" x2="310.9" y2="192" stroke="#e5e7eb" stroke-width="0.5"/>
  <text x="310.9" y="205" text-anchor="middle" font-size="9" fill="#6b7280">250</text>
  <line x1="381.2" y1="12" x2="381.2" y2="192" stroke="#e5e7eb" stroke-width="0.5"/>
  <text x="381.2" y="205" text-anchor="middle" font-size="9" fill="#6b7280">500</text>
  <line x1="451.4" y1="12" x2="451.4" y2="192" stroke="#e5e7eb" stroke-width="0.5"/>
  <text x="451.4" y="205" text-anchor="middle" font-size="9" fill="#6b7280">1k</text>
  <line x1="521.7" y1="12" x2="521.7" y2="192" stroke="#e5e7eb" stroke-width="0.5"/>
  <text x="521.7" y="205" text-anchor="middle" font-size="9" fill="#6b7280">2k</text>
  <line x1="591.9" y1="12" x2="591.9" y2="192" stroke="#e5e7eb" stroke-width="0.5"/>
  <text x="591.9" y="205" text-anchor="middle" font-size="9" fill="#6b7280">4k</text>
  <line x1="662.1" y1="12" x2="662.1" y2="192" stroke="#e5e7eb" stroke-width="0.5"/>
  <text x="662.1" y="205" text-anchor="middle" font-size="9" fill="#6b7280">8k</text>
  <line x1="732.4" y1="12" x2="732.4" y2="192" stroke="#e5e7eb" stroke-width="0.5"/>
  <text x="732.4" y="205" text-anchor="middle" font-size="9" fill="#6b7280">16k</text>
  <line x1="55" y1="22.6" x2="755" y2="22.6" stroke="#e5e7eb" stroke-width="0.5"/>
  <text x="51" y="25.6" text-anchor="end" font-size="9" fill="#6b7280">0</text>
  <line x1="55" y1="64.9" x2="755" y2="64.9" stroke="#e5e7eb" stroke-width="0.5"/>
  <text x="51" y="67.9" text-anchor="end" font-size="9" fill="#6b7280">-20</text>
  <line x1="55" y1="107.3" x2="755" y2="107.3" stroke="#e5e7eb" stroke-width="0.5"/>
  <text x="51" y="110.3" text-anchor="end" font-size="9" fill="#6b7280">-40</text>
  <line x1="55" y1="149.6" x2="755" y2="149.6" stroke="#e5e7eb" stroke-width="0.5"/>
  <text x="51" y="152.6" text-anchor="end" font-size="9" fill="#6b7280">-60</text>
  <line x1="55" y1="192.0" x2="755" y2="192.0" stroke="#e5e7eb" stroke-width="0.5"/>
  <text x="51" y="195.0" text-anchor="end" font-size="9" fill="#6b7280">-80</text>
  <polyline points="132.7,80.5 203.0,67.7 244.1,60.1 273.2,54.7 295.8,50.4 314.3,46.9 329.9,43.9 343.4,41.2 355.4,38.8 366.1,36.6 375.7,34.6 384.5,32.8 392.6,31.1 400.2,29.5 407.1,28.1 413.7,26.8 419.8,25.7 425.6,24.8 431.1,24.0 436.3,23.4 441.2,23.0 446.0,22.7 450.5,22.6 454.8,22.6 458.9,22.8 462.9,23.1 466.7,23.4 470.4,23.8 474.0,24.3 477.4,24.8 480.7,25.3 483.9,25.9 487.0,26.4 490.1,27.0 493.0,27.6 495.9,28.1 498.6,28.7 501.3,29.3 504.0,29.8 506.5,30.3 509.0,30.9 511.5,31.4 513.9,31.9 516.2,32.4 518.5,32.9 520.7,33.3 522.9,33.8 525.0,34.2 527.1,34.7 529.2,35.1 531.2,35.5 533.1,36.0 535.1,36.4 537.0,36.8 538.8,37.2 540.6,37.5 542.4,37.9 544.2,38.3 545.9,38.6 547.6,39.0 549.3,39.3 551.0,39.7 552.6,40.0 554.2,40.4 555.7,40.7 557.3,41.0 558.8,41.3 560.3,41.6 561.8,41.9 563.2,42.2 564.7,42.5 566.1,42.8 567.5,43.1 568.9,43.4 570.2,43.6 571.6,43.9 572.9,44.2 574.2,44.5 575.5,44.7 576.8,45.0 578.0,45.2 579.3,45.5 580.5,45.7 581.7,46.0 582.9,46.2 584.1,46.5 585.3,46.7 586.4,46.9 587.6,47.2 588.7,47.4 589.8,47.6 590.9,47.8 592.0,48.1 593.1,48.3 594.2,48.5 595.3,48.7 596.3,48.9 597.3,49.1 598.4,49.3 599.4,49.6 600.4,49.8 601.4,50.0 602.4,50.2 603.4,50.4 604.3,50.6 605.3,50.7 606.2,50.9 607.2,51.1 608.1,51.3 609.1,51.5 610.0,51.7 610.9,51.9 611.8,52.1 612.7,52.3 613.6,52.4 614.4,52.6 615.3,52.8 616.2,53.0 617.0,53.1 617.9,53.3 618.7,53.5 619.5,53.7 620.4,53.8 621.2,54.0 622.0,54.2 622.8,54.3 623.6,54.5 624.4,54.7 625.2,54.8 626.0,55.0 626.8,55.2 627.5,55.3 628.3,55.5 629.0,55.6 629.8,55.8 630.6,55.9 631.3,56.1 632.0,56.3 632.8,56.4 633.5,56.6 634.2,56.7 634.9,56.9 635.6,57.0 636.3,57.2 637.0,57.3 637.7,57.5 638.4,57.6 639.1,57.8 639.8,57.9 640.5,58.1 641.2,58.2 641.8,58.3 642.5,58.5 643.1,58.6 643.8,58.8 644.5,58.9 645.1,59.0 645.7,59.2 646.4,59.3 647.0,59.5 647.7,59.6 648.3,59.7 648.9,59.9 649.5,60.0 650.1,60.1 650.8,60.3 651.4,60.4 652.0,60.6 652.6,60.7 653.2,60.8 653.8,60.9 654.3,61.1 654.9,61.2 655.5,61.3 656.1,61.5 656.7,61.6 657.3,61.7 657.8,61.9 658.4,62.0 659.0,62.1 659.5,62.2 660.1,62.4 660.6,62.5 661.2,62.6 661.7,62.8 662.3,62.9 662.8,63.0 663.4,63.1 663.9,63.3 664.4,63.4 665.0,63.5 665.5,63.6 666.0,63.8 666.5,63.9 667.1,64.0 667.6,64.1 668.1,64.2 668.6,64.4 669.1,64.5 669.6,64.6 670.1,64.7 670.6,64.8 671.1,65.0 671.6,65.1 672.1,65.2 672.6,65.3 673.1,65.4 673.6,65.6 674.1,65.7 674.6,65.8 675.1,65.9 675.5,66.0 676.0,66.2 676.5,66.3 677.0,66.4 677.4,66.5 677.9,66.6 678.4,66.7 678.8,66.9 679.3,67.0 679.8,67.1 680.2,67.2 680.7,67.3 681.1,67.4 681.6,67.6 682.0,67.7 682.5,67.8 682.9,67.9 683.4,68.0 683.8,68.1 684.2,68.3 684.7,68.4 685.1,68.5 685.5,68.6 686.0,68.7 686.4,68.8 686.8,68.9 687.3,69.1 687.7,69.2 688.1,69.3 688.5,69.4 688.9,69.5 689.4,69.6 689.8,69.7 690.2,69.9 690.6,70.0 691.0,70.1 691.4,70.2 691.8,70.3 692.2,70.4 692.6,70.5 693.1,70.6 693.5,70.8 693.9,70.9 694.3,71.0 694.6,71.1 695.0,71.2 695.4,71.3 695.8,71.4 696.2,71.6 696.6,71.7 697.0,71.8 697.4,71.9 697.8,72.0 698.1,72.1 698.5,72.2 698.9,72.3 699.3,72.5 699.7,72.6 700.0,72.7 700.4,72.8 700.8,72.9 701.2,73.0 701.5,73.1 701.9,73.3 702.3,73.4 702.6,73.5 703.0,73.6 703.4,73.7 703.7,73.8 704.1,73.9 704.5,74.1 704.8,74.2 705.2,74.3 705.5,74.4 705.9,74.5 706.2,74.6 706.6,74.8 706.9,74.9 707.3,75.0 707.6,75.1 708.0,75.2 708.3,75.3 708.7,75.4 709.0,75.6 709.4,75.7 709.7,75.8 710.0,75.9 710.4,76.0 710.7,76.1 711.1,76.3 711.4,76.4 711.7,76.5 712.1,76.6 712.4,76.7 712.7,76.9 713.1,77.0 713.4,77.1 713.7,77.2 714.0,77.3 714.4,77.5 714.7,77.6 715.0,77.7 715.3,77.8 715.7,77.9 716.0,78.1 716.3,78.2 716.6,78.3 716.9,78.4 717.3,78.5 717.6,78.7 717.9,78.8 718.2,78.9 718.5,79.0 718.8,79.2 719.1,79.3 719.5,79.4 719.8,79.5 720.1,79.7 720.4,79.8 720.7,79.9 721.0,80.0 721.3,80.2 721.6,80.3 721.9,80.4 722.2,80.5 722.5,80.7 722.8,80.8 723.1,80.9 723.4,81.1 723.7,81.2 724.0,81.3 724.3,81.5 724.6,81.6 724.9,81.7 725.2,81.9 725.5,82.0 725.8,82.1 726.1,82.3 726.3,82.4 726.6,82.5 726.9,82.7 727.2,82.8 727.5,82.9 727.8,83.1 728.1,83.2 728.3,83.3 728.6,83.5 728.9,83.6 729.2,83.8 729.5,83.9 729.8,84.0 730.0,84.2 730.3,84.3 730.6,84.5 730.9,84.6 731.1,84.8 731.4,84.9 731.7,85.1 732.0,85.2 732.2,85.4 732.5,85.5 732.8,85.6 733.1,85.8 733.3,86.0 733.6,86.1 733.9,86.3 734.1,86.4 734.4,86.6 734.7,86.7 734.9,86.9 735.2,87.0 735.5,87.2 735.7,87.4 736.0,87.5 736.3,87.7 736.5,87.8 736.8,88.0 737.0,88.2 737.3,88.3 737.6,88.5 737.8,88.7 738.1,88.8 738.3,89.0 738.6,89.2 738.9,89.3 739.1,89.5 739.4,89.7 739.6,89.9 739.9,90.0 740.1,90.2 740.4,90.4 740.6,90.6 740.9,90.8 741.1,91.0 741.4,91.1 741.6,91.3 741.9,91.5 742.1,91.7 742.4,91.9 742.6,92.1 742.9,92.3 743.1,92.5 743.4,92.7 743.6,92.9 743.8,93.1 744.1,93.3 744.3,93.5 744.6,93.7 744.8,93.9 745.1,94.1 745.3,94.3 745.5,94.6 745.8,94.8 746.0,95.0 746.3,95.2 746.5,95.4 746.7,95.7 747.0,95.9 747.2,96.1 747.4,96.4 747.7,96.6 747.9,96.8 748.1,97.1 748.4,97.3 748.6,97.6 748.8,97.8 749.1,98.1 749.3,98.4 749.5,98.6 749.8,98.9 750.0,99.2 750.2,99.4 750.4,99.7 750.7,100.0 750.9,100.3 751.1,100.6 751.4,100.9 751.6,101.1 751.8,101.4 752.0,101.8 752.3,102.1 752.5,102.4 752.7,102.7 752.9,103.0 753.2,103.4 753.4,103.7 753.6,104.0 753.8,104.4 754.0,104.8 754.3,105.1 754.5,105.5 754.7,105.9 754.9,106.2" fill="none" stroke="#4a90d9" stroke-width="1.8" stroke-linejoin="round"/>
  <text x="55" y="240" font-size="12" font-weight="600" fill="#6b7280">Biquad bandpass2, fc=1kHz</text>
  <rect x="529" y="19" width="202" height="102" fill="white" fill-opacity="0.85" rx="3"/>
  <text x="532" y="30" font-size="8" fill="#6b7280">Impulse response</text>
  <polyline points="530.0,43.0 531.6,20.0 533.1,28.1 534.7,35.9 536.3,43.3 537.8,50.3 539.4,56.6 540.9,62.4 542.5,67.6 544.1,72.1 545.6,76.0 547.2,79.3 548.8,82.0 550.3,84.0 551.9,85.6 553.4,86.6 555.0,87.2 556.6,87.4 558.1,87.2 559.7,86.7 561.3,86.0 562.8,85.1 564.4,84.0 565.9,82.8 567.5,81.5 569.1,80.1 570.6,78.8 572.2,77.4 573.8,76.1 575.3,74.9 576.9,73.7 578.4,72.6 580.0,71.6 581.6,70.7 583.1,69.9 584.7,69.3 586.3,68.7 587.8,68.2 589.4,67.8 590.9,67.5 592.5,67.3 594.1,67.2 595.6,67.2 597.2,67.2 598.8,67.2 600.3,67.3 601.9,67.5 603.4,67.6 605.0,67.8 606.6,68.0 608.1,68.2 609.7,68.5 611.3,68.7 612.8,68.9 614.4,69.1 615.9,69.3 617.5,69.5 619.1,69.7 620.6,69.8 622.2,70.0 623.8,70.1 625.3,70.2 626.9,70.3 628.4,70.3 630.0,70.4 631.6,70.4 633.1,70.4 634.7,70.5 636.3,70.5 637.8,70.5 639.4,70.4 640.9,70.4 642.5,70.4 644.1,70.4 645.6,70.3 647.2,70.3 648.8,70.3 650.3,70.2 651.9,70.2 653.4,70.2 655.0,70.1 656.6,70.1 658.1,70.1 659.7,70.0 661.3,70.0 662.8,70.0 664.4,70.0 665.9,70.0 667.5,69.9 669.1,69.9 670.6,69.9 672.2,69.9 673.8,69.9 675.3,69.9 676.9,69.9 678.4,69.9 680.0,69.9 681.6,69.9 683.1,69.9 684.7,69.9 686.3,69.9 687.8,70.0 689.4,70.0 690.9,70.0 692.5,70.0 694.1,70.0 695.6,70.0 697.2,70.0 698.8,70.0 700.3,70.0 701.9,70.0 703.4,70.0 705.0,70.0 706.6,70.0 708.1,70.0 709.7,70.0 711.3,70.0 712.8,70.0 714.4,70.0 715.9,70.0 717.5,70.0 719.1,70.0 720.6,70.0 722.2,70.0 723.8,70.0 725.3,70.0 726.9,70.0 728.4,70.0" fill="none" stroke="#4a90d9" stroke-width="1.3" stroke-linejoin="round"/>
</svg>
