<svg xmlns="http://www.w3.org/2000/svg" viewBox="0 0 800 420" style="font-family:system-ui,-apple-system,sans-serif">
  <text x="55" y="416" font-size="11" font-weight="600" fill="#6b7280">Biquad lowshelf, fc=1kHz</text>
  <line x1="55" y1="12" x2="55" y2="162" stroke="#d1d5db"/>
  <line x1="55" y1="42.0" x2="385" y2="42.0" stroke="#d1d5db"/>
  <text x="220" y="190" text-anchor="middle" font-size="9" fill="#6b7280">Hz</text>
  <text x="29" y="87" text-anchor="middle" font-size="9" fill="#6b7280" transform="rotate(-90 29 87)">dB</text>
  <line x1="85.1" y1="12" x2="85.1" y2="162" stroke="#e5e7eb" stroke-width="0.5"/>
  <line x1="102.7" y1="12" x2="102.7" y2="162" stroke="#e5e7eb" stroke-width="0.5"/>
  <line x1="115.2" y1="12" x2="115.2" y2="162" stroke="#e5e7eb" stroke-width="0.5"/>
  <line x1="124.9" y1="12" x2="124.9" y2="162" stroke="#e5e7eb" stroke-width="0.5"/>
  <line x1="132.8" y1="12" x2="132.8" y2="162" stroke="#e5e7eb" stroke-width="0.5"/>
  <line x1="139.5" y1="12" x2="139.5" y2="162" stroke="#e5e7eb" stroke-width="0.5"/>
  <line x1="145.3" y1="12" x2="145.3" y2="162" stroke="#e5e7eb" stroke-width="0.5"/>
  <line x1="150.4" y1="12" x2="150.4" y2="162" stroke="#e5e7eb" stroke-width="0.5"/>
  <line x1="185.1" y1="12" x2="185.1" y2="162" stroke="#e5e7eb" stroke-width="0.5"/>
  <line x1="202.7" y1="12" x2="202.7" y2="162" stroke="#e5e7eb" stroke-width="0.5"/>
  <line x1="215.2" y1="12" x2="215.2" y2="162" stroke="#e5e7eb" stroke-width="0.5"/>
  <line x1="224.8" y1="12" x2="224.8" y2="162" stroke="#e5e7eb" stroke-width="0.5"/>
  <line x1="232.8" y1="12" x2="232.8" y2="162" stroke="#e5e7eb" stroke-width="0.5"/>
  <line x1="239.5" y1="12" x2="239.5" y2="162" stroke="#e5e7eb" stroke-width="0.5"/>
  <line x1="245.2" y1="12" x2="245.2" y2="162" stroke="#e5e7eb" stroke-width="0.5"/>
  <line x1="250.4" y1="12" x2="250.4" y2="162" stroke="#e5e7eb" stroke-width="0.5"/>
  <line x1="285.0" y1="12" x2="285.0" y2="162" stroke="#e5e7eb" stroke-width="0.5"/>
  <line x1="302.6" y1="12" x2="302.6" y2="162" stroke="#e5e7eb" stroke-width="0.5"/>
  <line x1="315.1" y1="12" x2="315.1" y2="162" stroke="#e5e7eb" stroke-width="0.5"/>
  <line x1="324.8" y1="12" x2="324.8" y2="162" stroke="#e5e7eb" stroke-width="0.5"/>
  <line x1="332.7" y1="12" x2="332.7" y2="162" stroke="#e5e7eb" stroke-width="0.5"/>
  <line x1="339.4" y1="12" x2="339.4" y2="162" stroke="#e5e7eb" stroke-width="0.5"/>
  <line x1="345.2" y1="12" x2="345.2" y2="162" stroke="#e5e7eb" stroke-width="0.5"/>
  <line x1="350.3" y1="12" x2="350.3" y2="162" stroke="#e5e7eb" stroke-width="0.5"/>
  <line x1="385.0" y1="12" x2="385.0" y2="162" stroke="#e5e7eb" stroke-width="0.5"/>
  <line x1="155.0" y1="12" x2="155.0" y2="162" stroke="#e5e7eb" stroke-width="0.5"/>
  <text x="155.0" y="174" text-anchor="middle" font-size="8" fill="#6b7280">100</text>
  <line x1="254.9" y1="12" x2="254.9" y2="162" stroke="#e5e7eb" stroke-width="0.5"/>
  <text x="254.9" y="174" text-anchor="middle" font-size="8" fill="#6b7280">1k</text>
  <line x1="354.9" y1="12" x2="354.9" y2="162" stroke="#e5e7eb" stroke-width="0.5"/>
  <text x="354.9" y="174" text-anchor="middle" font-size="8" fill="#6b7280">10k</text>
  <line x1="55" y1="27.0" x2="385" y2="27.0" stroke="#e5e7eb" stroke-width="0.5"/>
  <line x1="55" y1="57.0" x2="385" y2="57.0" stroke="#e5e7eb" stroke-width="0.5"/>
  <line x1="55" y1="12.0" x2="385" y2="12.0" stroke="#e5e7eb" stroke-width="0.5"/>
  <text x="51" y="15.0" text-anchor="end" font-size="8" fill="#6b7280">+20</text>
  <text x="51" y="45.0" text-anchor="end" font-size="8" fill="#6b7280">0</text>
  <line x1="55" y1="72.0" x2="385" y2="72.0" stroke="#e5e7eb" stroke-width="0.5"/>
  <text x="51" y="75.0" text-anchor="end" font-size="8" fill="#6b7280">-20</text>
  <line x1="55" y1="102.0" x2="385" y2="102.0" stroke="#e5e7eb" stroke-width="0.5"/>
  <text x="51" y="105.0" text-anchor="end" font-size="8" fill="#6b7280">-40</text>
  <line x1="55" y1="132.0" x2="385" y2="132.0" stroke="#e5e7eb" stroke-width="0.5"/>
  <text x="51" y="135.0" text-anchor="end" font-size="8" fill="#6b7280">-60</text>
  <line x1="55" y1="162.0" x2="385" y2="162.0" stroke="#e5e7eb" stroke-width="0.5"/>
  <text x="51" y="165.0" text-anchor="end" font-size="8" fill="#6b7280">-80</text>
  <defs><linearGradient id="g211" x1="0" y1="12" x2="0" y2="162" gradientUnits="userSpaceOnUse">
    <stop offset="0%" stop-color="#4a90d9" stop-opacity="0.15"/>
    <stop offset="100%" stop-color="#4a90d9" stop-opacity="0.02"/>
  </linearGradient></defs>
  <path d="M58.2,33.0 58.2,33.0 88.3,33.0 105.9,33.0 118.4,33.0 128.1,33.0 136.0,33.0 142.7,33.0 148.5,33.0 153.6,33.0 158.2,33.0 162.3,33.0 166.1,33.0 169.6,33.0 172.8,33.0 175.8,33.0 178.6,33.0 181.2,33.0 183.7,33.0 186.0,33.0 188.3,33.0 190.4,33.0 192.4,33.0 194.3,33.0 196.2,33.0 198.0,33.1 199.7,33.1 201.3,33.1 202.9,33.1 204.4,33.1 205.9,33.1 207.3,33.1 208.7,33.1 210.0,33.2 211.3,33.2 212.6,33.2 213.8,33.2 215.0,33.2 216.1,33.3 217.3,33.3 218.4,33.3 219.4,33.4 220.5,33.4 221.5,33.4 222.5,33.5 223.5,33.5 224.4,33.5 225.4,33.6 226.3,33.6 227.2,33.7 228.1,33.7 228.9,33.8 229.8,33.9 230.6,33.9 231.4,34.0 233.0,34.1 234.5,34.2 236.0,34.4 237.4,34.6 238.8,34.7 240.1,34.9 241.4,35.1 242.7,35.3 243.9,35.4 245.1,35.6 246.2,35.8 247.4,36.0 248.5,36.2 249.5,36.4 250.6,36.6 251.6,36.8 252.6,37.0 253.6,37.2 254.5,37.4 255.5,37.6 256.4,37.8 257.3,38.0 258.1,38.1 259.0,38.3 259.8,38.5 260.7,38.6 261.5,38.8 262.7,39.0 263.8,39.2 265.0,39.4 266.1,39.6 267.1,39.7 268.2,39.9 269.2,40.0 270.2,40.2 271.2,40.3 272.1,40.4 273.1,40.5 274.0,40.6 274.9,40.7 275.7,40.8 276.6,40.9 277.5,41.0 278.3,41.0 279.1,41.1 280.1,41.2 281.2,41.2 282.2,41.3 283.2,41.3 284.1,41.4 285.1,41.4 286.0,41.5 286.9,41.5 287.8,41.6 288.7,41.6 289.5,41.6 290.4,41.7 291.2,41.7 292.0,41.7 293.0,41.7 293.9,41.7 294.9,41.8 295.8,41.8 296.7,41.8 297.6,41.8 298.4,41.8 299.3,41.8 300.1,41.9 300.9,41.9 301.7,41.9 302.7,41.9 303.6,41.9 304.5,41.9 305.4,41.9 306.3,41.9 307.1,41.9 308.0,41.9 308.8,41.9 309.6,41.9 310.5,41.9 311.4,42.0 312.3,42.0 313.2,42.0 314.0,42.0 314.8,42.0 315.6,42.0 316.4,42.0 317.3,42.0 318.2,42.0 319.1,42.0 319.9,42.0 320.8,42.0 321.6,42.0 322.5,42.0 323.3,42.0 324.2,42.0 325.1,42.0 325.9,42.0 326.7,42.0 327.6,42.0 328.5,42.0 329.3,42.0 330.1,42.0 331.0,42.0 331.8,42.0 332.6,42.0 333.5,42.0 334.3,42.0 335.1,42.0 335.9,42.0 336.8,42.0 337.6,42.0 338.5,42.0 339.3,42.0 340.1,42.0 341.0,42.0 341.8,42.0 342.6,42.0 343.5,42.0 344.3,42.0 345.2,42.0 346.0,42.0 346.8,42.0 347.7,42.0 348.5,42.0 349.3,42.0 350.1,42.0 351.0,42.0 351.8,42.0 352.6,42.0 353.4,42.0 354.3,42.0 355.1,42.0 355.9,42.0 356.7,42.0 357.6,42.0 358.4,42.0 359.2,42.0 360.1,42.0 360.9,42.0 361.7,42.0 362.5,42.0 363.3,42.0 364.1,42.0 365.0,42.0 365.8,42.0 366.6,42.0 367.4,42.0 368.3,42.0 369.1,42.0 369.9,42.0 370.7,42.0 371.5,42.0 372.3,42.0 373.1,42.0 373.9,42.0 374.8,42.0 375.6,42.0 376.4,42.0 377.2,42.0 378.0,42.0 378.8,42.0 379.6,42.0 380.4,42.0 381.3,42.0 382.1,42.0 382.9,42.0 383.7,42.0 384.5,42.0 L384.5,162.0 L58.2,162.0 Z" fill="url(#g211)"/>
  <defs><clipPath id="pc212"><rect x="55" y="12" width="330" height="150"/></clipPath></defs>
  <polyline points="58.2,33.0 88.3,33.0 105.9,33.0 118.4,33.0 128.1,33.0 136.0,33.0 142.7,33.0 148.5,33.0 153.6,33.0 158.2,33.0 162.3,33.0 166.1,33.0 169.6,33.0 172.8,33.0 175.8,33.0 178.6,33.0 181.2,33.0 183.7,33.0 186.0,33.0 188.3,33.0 190.4,33.0 192.4,33.0 194.3,33.0 196.2,33.0 198.0,33.1 199.7,33.1 201.3,33.1 202.9,33.1 204.4,33.1 205.9,33.1 207.3,33.1 208.7,33.1 210.0,33.2 211.3,33.2 212.6,33.2 213.8,33.2 215.0,33.2 216.1,33.3 217.3,33.3 218.4,33.3 219.4,33.4 220.5,33.4 221.5,33.4 222.5,33.5 223.5,33.5 224.4,33.5 225.4,33.6 226.3,33.6 227.2,33.7 228.1,33.7 228.9,33.8 229.8,33.9 230.6,33.9 231.4,34.0 233.0,34.1 234.5,34.2 236.0,34.4 237.4,34.6 238.8,34.7 240.1,34.9 241.4,35.1 242.7,35.3 243.9,35.4 245.1,35.6 246.2,35.8 247.4,36.0 248.5,36.2 249.5,36.4 250.6,36.6 251.6,36.8 252.6,37.0 253.6,37.2 254.5,37.4 255.5,37.6 256.4,37.8 257.3,38.0 258.1,38.1 259.0,38.3 259.8,38.5 260.7,38.6 261.5,38.8 262.7,39.0 263.8,39.2 265.0,39.4 266.1,39.6 267.1,39.7 268.2,39.9 269.2,40.0 270.2,40.2 271.2,40.3 272.1,40.4 273.1,40.5 274.0,40.6 274.9,40.7 275.7,40.8 276.6,40.9 277.5,41.0 278.3,41.0 279.1,41.1 280.1,41.2 281.2,41.2 282.2,41.3 283.2,41.3 284.1,41.4 285.1,41.4 286.0,41.5 286.9,41.5 287.8,41.6 288.7,41.6 289.5,41.6 290.4,41.7 291.2,41.7 292.0,41.7 293.0,41.7 293.9,41.7 294.9,41.8 295.8,41.8 296.7,41.8 297.6,41.8 298.4,41.8 299.3,41.8 300.1,41.9 300.9,41.9 301.7,41.9 302.7,41.9 303.6,41.9 304.5,41.9 305.4,41.9 306.3,41.9 307.1,41.9 308.0,41.9 308.8,41.9 309.6,41.9 310.5,41.9 311.4,42.0 312.3,42.0 313.2,42.0 314.0,42.0 314.8,42.0 315.6,42.0 316.4,42.0 317.3,42.0 318.2,42.0 319.1,42.0 319.9,42.0 320.8,42.0 321.6,42.0 322.5,42.0 323.3,42.0 324.2,42.0 325.1,42.0 325.9,42.0 326.7,42.0 327.6,42.0 328.5,42.0 329.3,42.0 330.1,42.0 331.0,42.0 331.8,42.0 332.6,42.0 333.5,42.0 334.3,42.0 335.1,42.0 335.9,42.0 336.8,42.0 337.6,42.0 338.5,42.0 339.3,42.0 340.1,42.0 341.0,42.0 341.8,42.0 342.6,42.0 343.5,42.0 344.3,42.0 345.2,42.0 346.0,42.0 346.8,42.0 347.7,42.0 348.5,42.0 349.3,42.0 350.1,42.0 351.0,42.0 351.8,42.0 352.6,42.0 353.4,42.0 354.3,42.0 355.1,42.0 355.9,42.0 356.7,42.0 357.6,42.0 358.4,42.0 359.2,42.0 360.1,42.0 360.9,42.0 361.7,42.0 362.5,42.0 363.3,42.0 364.1,42.0 365.0,42.0 365.8,42.0 366.6,42.0 367.4,42.0 368.3,42.0 369.1,42.0 369.9,42.0 370.7,42.0 371.5,42.0 372.3,42.0 373.1,42.0 373.9,42.0 374.8,42.0 375.6,42.0 376.4,42.0 377.2,42.0 378.0,42.0 378.8,42.0 379.6,42.0 380.4,42.0 381.3,42.0 382.1,42.0 382.9,42.0 383.7,42.0 384.5,42.0" fill="none" stroke="#4a90d9" stroke-width="1.5" stroke-linejoin="round" clip-path="url(#pc212)"/>
  <line x1="445" y1="12" x2="445" y2="162" stroke="#d1d5db"/>
  <line x1="445" y1="87.0" x2="775" y2="87.0" stroke="#d1d5db"/>
  <text x="610" y="190" text-anchor="middle" font-size="9" fill="#6b7280">Hz</text>
  <text x="419" y="87" text-anchor="middle" font-size="9" fill="#6b7280" transform="rotate(-90 419 87)">Phase (deg)</text>
  <line x1="475.1" y1="12" x2="475.1" y2="162" stroke="#e5e7eb" stroke-width="0.5"/>
  <line x1="492.7" y1="12" x2="492.7" y2="162" stroke="#e5e7eb" stroke-width="0.5"/>
  <line x1="505.2" y1="12" x2="505.2" y2="162" stroke="#e5e7eb" stroke-width="0.5"/>
  <line x1="514.9" y1="12" x2="514.9" y2="162" stroke="#e5e7eb" stroke-width="0.5"/>
  <line x1="522.8" y1="12" x2="522.8" y2="162" stroke="#e5e7eb" stroke-width="0.5"/>
  <line x1="529.5" y1="12" x2="529.5" y2="162" stroke="#e5e7eb" stroke-width="0.5"/>
  <line x1="535.3" y1="12" x2="535.3" y2="162" stroke="#e5e7eb" stroke-width="0.5"/>
  <line x1="540.4" y1="12" x2="540.4" y2="162" stroke="#e5e7eb" stroke-width="0.5"/>
  <line x1="575.1" y1="12" x2="575.1" y2="162" stroke="#e5e7eb" stroke-width="0.5"/>
  <line x1="592.7" y1="12" x2="592.7" y2="162" stroke="#e5e7eb" stroke-width="0.5"/>
  <line x1="605.2" y1="12" x2="605.2" y2="162" stroke="#e5e7eb" stroke-width="0.5"/>
  <line x1="614.8" y1="12" x2="614.8" y2="162" stroke="#e5e7eb" stroke-width="0.5"/>
  <line x1="622.8" y1="12" x2="622.8" y2="162" stroke="#e5e7eb" stroke-width="0.5"/>
  <line x1="629.5" y1="12" x2="629.5" y2="162" stroke="#e5e7eb" stroke-width="0.5"/>
  <line x1="635.2" y1="12" x2="635.2" y2="162" stroke="#e5e7eb" stroke-width="0.5"/>
  <line x1="640.4" y1="12" x2="640.4" y2="162" stroke="#e5e7eb" stroke-width="0.5"/>
  <line x1="675.0" y1="12" x2="675.0" y2="162" stroke="#e5e7eb" stroke-width="0.5"/>
  <line x1="692.6" y1="12" x2="692.6" y2="162" stroke="#e5e7eb" stroke-width="0.5"/>
  <line x1="705.1" y1="12" x2="705.1" y2="162" stroke="#e5e7eb" stroke-width="0.5"/>
  <line x1="714.8" y1="12" x2="714.8" y2="162" stroke="#e5e7eb" stroke-width="0.5"/>
  <line x1="722.7" y1="12" x2="722.7" y2="162" stroke="#e5e7eb" stroke-width="0.5"/>
  <line x1="729.4" y1="12" x2="729.4" y2="162" stroke="#e5e7eb" stroke-width="0.5"/>
  <line x1="735.2" y1="12" x2="735.2" y2="162" stroke="#e5e7eb" stroke-width="0.5"/>
  <line x1="740.3" y1="12" x2="740.3" y2="162" stroke="#e5e7eb" stroke-width="0.5"/>
  <line x1="775.0" y1="12" x2="775.0" y2="162" stroke="#e5e7eb" stroke-width="0.5"/>
  <line x1="545.0" y1="12" x2="545.0" y2="162" stroke="#e5e7eb" stroke-width="0.5"/>
  <text x="545.0" y="174" text-anchor="middle" font-size="8" fill="#6b7280">100</text>
  <line x1="644.9" y1="12" x2="644.9" y2="162" stroke="#e5e7eb" stroke-width="0.5"/>
  <text x="644.9" y="174" text-anchor="middle" font-size="8" fill="#6b7280">1k</text>
  <line x1="744.9" y1="12" x2="744.9" y2="162" stroke="#e5e7eb" stroke-width="0.5"/>
  <text x="744.9" y="174" text-anchor="middle" font-size="8" fill="#6b7280">10k</text>
  <line x1="445" y1="53.3" x2="775" y2="53.3" stroke="#e5e7eb" stroke-width="0.5"/>
  <line x1="445" y1="120.8" x2="775" y2="120.8" stroke="#e5e7eb" stroke-width="0.5"/>
  <line x1="445" y1="19.5" x2="775" y2="19.5" stroke="#e5e7eb" stroke-width="0.5"/>
  <text x="441" y="22.5" text-anchor="end" font-size="8" fill="#6b7280">180</text>
  <text x="441" y="90.0" text-anchor="end" font-size="8" fill="#6b7280">0</text>
  <line x1="445" y1="154.5" x2="775" y2="154.5" stroke="#e5e7eb" stroke-width="0.5"/>
  <text x="441" y="157.5" text-anchor="end" font-size="8" fill="#6b7280">-180</text>
  <defs><linearGradient id="g213" x1="0" y1="162" x2="0" y2="87.0" gradientUnits="userSpaceOnUse">
    <stop offset="0%" stop-color="#e74c3c" stop-opacity="0.15"/>
    <stop offset="100%" stop-color="#e74c3c" stop-opacity="0.02"/>
  </linearGradient></defs>
  <path d="M448.2,87.1 448.2,87.1 478.3,87.2 495.9,87.3 508.4,87.5 518.1,87.6 526.0,87.7 532.7,87.8 538.5,87.9 543.6,88.0 548.2,88.1 552.3,88.3 556.1,88.4 559.6,88.5 562.8,88.6 565.8,88.7 568.6,88.9 571.2,89.0 573.7,89.1 576.0,89.2 578.3,89.4 580.4,89.5 582.4,89.6 584.3,89.8 586.2,89.9 588.0,90.0 589.7,90.2 591.3,90.3 592.9,90.4 594.4,90.6 595.9,90.7 597.3,90.9 598.7,91.0 600.0,91.2 601.3,91.3 602.6,91.5 603.8,91.6 605.0,91.8 606.1,91.9 607.3,92.1 608.4,92.2 609.4,92.4 610.5,92.5 611.5,92.7 612.5,92.8 613.5,93.0 614.4,93.1 615.4,93.3 616.3,93.4 617.2,93.6 618.1,93.7 618.9,93.9 619.8,94.0 620.6,94.2 621.4,94.3 623.0,94.6 624.5,94.9 626.0,95.2 627.4,95.4 628.8,95.7 630.1,95.9 631.4,96.1 632.7,96.3 633.9,96.5 635.1,96.6 636.2,96.8 637.4,96.9 638.5,97.0 639.5,97.1 640.6,97.2 641.6,97.3 642.6,97.3 643.6,97.3 644.5,97.3 645.5,97.3 646.4,97.3 647.3,97.3 648.1,97.3 649.0,97.2 649.8,97.2 650.7,97.1 651.5,97.0 652.7,96.9 653.8,96.8 655.0,96.6 656.1,96.5 657.1,96.3 658.2,96.1 659.2,96.0 660.2,95.8 661.2,95.6 662.1,95.5 663.1,95.3 664.0,95.1 664.9,95.0 665.7,94.8 666.6,94.7 667.5,94.5 668.3,94.4 669.1,94.2 670.1,94.0 671.2,93.8 672.2,93.7 673.2,93.5 674.1,93.3 675.1,93.2 676.0,93.0 676.9,92.9 677.8,92.7 678.7,92.6 679.5,92.5 680.4,92.3 681.2,92.2 682.0,92.1 683.0,92.0 683.9,91.8 684.9,91.7 685.8,91.6 686.7,91.5 687.6,91.4 688.4,91.3 689.3,91.2 690.1,91.1 690.9,91.0 691.7,90.9 692.7,90.8 693.6,90.7 694.5,90.6 695.4,90.5 696.3,90.4 697.1,90.4 698.0,90.3 698.8,90.2 699.6,90.2 700.5,90.1 701.4,90.0 702.3,89.9 703.2,89.9 704.0,89.8 704.8,89.7 705.6,89.7 706.4,89.6 707.3,89.6 708.2,89.5 709.1,89.4 709.9,89.4 710.8,89.3 711.6,89.3 712.5,89.2 713.3,89.2 714.2,89.1 715.1,89.1 715.9,89.0 716.7,89.0 717.6,88.9 718.5,88.9 719.3,88.9 720.1,88.8 721.0,88.8 721.8,88.7 722.6,88.7 723.5,88.7 724.3,88.6 725.1,88.6 725.9,88.6 726.8,88.5 727.6,88.5 728.5,88.4 729.3,88.4 730.1,88.4 731.0,88.3 731.8,88.3 732.6,88.3 733.5,88.3 734.3,88.2 735.2,88.2 736.0,88.2 736.8,88.1 737.7,88.1 738.5,88.1 739.3,88.1 740.1,88.0 741.0,88.0 741.8,88.0 742.6,87.9 743.4,87.9 744.3,87.9 745.1,87.9 745.9,87.8 746.7,87.8 747.6,87.8 748.4,87.8 749.2,87.8 750.1,87.7 750.9,87.7 751.7,87.7 752.5,87.7 753.3,87.6 754.1,87.6 755.0,87.6 755.8,87.6 756.6,87.6 757.4,87.5 758.3,87.5 759.1,87.5 759.9,87.5 760.7,87.5 761.5,87.4 762.3,87.4 763.1,87.4 763.9,87.4 764.8,87.4 765.6,87.3 766.4,87.3 767.2,87.3 768.0,87.3 768.8,87.3 769.6,87.2 770.4,87.2 771.3,87.2 772.1,87.2 772.9,87.2 773.7,87.1 774.5,87.1 L774.5,87.0 L448.2,87.0 Z" fill="url(#g213)"/>
  <defs><clipPath id="pc214"><rect x="445" y="12" width="330" height="150"/></clipPath></defs>
  <polyline points="448.2,87.1 478.3,87.2 495.9,87.3 508.4,87.5 518.1,87.6 526.0,87.7 532.7,87.8 538.5,87.9 543.6,88.0 548.2,88.1 552.3,88.3 556.1,88.4 559.6,88.5 562.8,88.6 565.8,88.7 568.6,88.9 571.2,89.0 573.7,89.1 576.0,89.2 578.3,89.4 580.4,89.5 582.4,89.6 584.3,89.8 586.2,89.9 588.0,90.0 589.7,90.2 591.3,90.3 592.9,90.4 594.4,90.6 595.9,90.7 597.3,90.9 598.7,91.0 600.0,91.2 601.3,91.3 602.6,91.5 603.8,91.6 605.0,91.8 606.1,91.9 607.3,92.1 608.4,92.2 609.4,92.4 610.5,92.5 611.5,92.7 612.5,92.8 613.5,93.0 614.4,93.1 615.4,93.3 616.3,93.4 617.2,93.6 618.1,93.7 618.9,93.9 619.8,94.0 620.6,94.2 621.4,94.3 623.0,94.6 624.5,94.9 626.0,95.2 627.4,95.4 628.8,95.7 630.1,95.9 631.4,96.1 632.7,96.3 633.9,96.5 635.1,96.6 636.2,96.8 637.4,96.9 638.5,97.0 639.5,97.1 640.6,97.2 641.6,97.3 642.6,97.3 643.6,97.3 644.5,97.3 645.5,97.3 646.4,97.3 647.3,97.3 648.1,97.3 649.0,97.2 649.8,97.2 650.7,97.1 651.5,97.0 652.7,96.9 653.8,96.8 655.0,96.6 656.1,96.5 657.1,96.3 658.2,96.1 659.2,96.0 660.2,95.8 661.2,95.6 662.1,95.5 663.1,95.3 664.0,95.1 664.9,95.0 665.7,94.8 666.6,94.7 667.5,94.5 668.3,94.4 669.1,94.2 670.1,94.0 671.2,93.8 672.2,93.7 673.2,93.5 674.1,93.3 675.1,93.2 676.0,93.0 676.9,92.9 677.8,92.7 678.7,92.6 679.5,92.5 680.4,92.3 681.2,92.2 682.0,92.1 683.0,92.0 683.9,91.8 684.9,91.7 685.8,91.6 686.7,91.5 687.6,91.4 688.4,91.3 689.3,91.2 690.1,91.1 690.9,91.0 691.7,90.9 692.7,90.8 693.6,90.7 694.5,90.6 695.4,90.5 696.3,90.4 697.1,90.4 698.0,90.3 698.8,90.2 699.6,90.2 700.5,90.1 701.4,90.0 702.3,89.9 703.2,89.9 704.0,89.8 704.8,89.7 705.6,89.7 706.4,89.6 707.3,89.6 708.2,89.5 709.1,89.4 709.9,89.4 710.8,89.3 711.6,89.3 712.5,89.2 713.3,89.2 714.2,89.1 715.1,89.1 715.9,89.0 716.7,89.0 717.6,88.9 718.5,88.9 719.3,88.9 720.1,88.8 721.0,88.8 721.8,88.7 722.6,88.7 723.5,88.7 724.3,88.6 725.1,88.6 725.9,88.6 726.8,88.5 727.6,88.5 728.5,88.4 729.3,88.4 730.1,88.4 731.0,88.3 731.8,88.3 732.6,88.3 733.5,88.3 734.3,88.2 735.2,88.2 736.0,88.2 736.8,88.1 737.7,88.1 738.5,88.1 739.3,88.1 740.1,88.0 741.0,88.0 741.8,88.0 742.6,87.9 743.4,87.9 744.3,87.9 745.1,87.9 745.9,87.8 746.7,87.8 747.6,87.8 748.4,87.8 749.2,87.8 750.1,87.7 750.9,87.7 751.7,87.7 752.5,87.7 753.3,87.6 754.1,87.6 755.0,87.6 755.8,87.6 756.6,87.6 757.4,87.5 758.3,87.5 759.1,87.5 759.9,87.5 760.7,87.5 761.5,87.4 762.3,87.4 763.1,87.4 763.9,87.4 764.8,87.4 765.6,87.3 766.4,87.3 767.2,87.3 768.0,87.3 768.8,87.3 769.6,87.2 770.4,87.2 771.3,87.2 772.1,87.2 772.9,87.2 773.7,87.1 774.5,87.1" fill="none" stroke="#e74c3c" stroke-width="1.5" stroke-linejoin="round" clip-path="url(#pc214)"/>
  <line x1="55" y1="210" x2="55" y2="360" stroke="#d1d5db"/>
  <line x1="55" y1="285.0" x2="385" y2="285.0" stroke="#d1d5db"/>
  <text x="220" y="388" text-anchor="middle" font-size="9" fill="#6b7280">Hz</text>
  <text x="29" y="285" text-anchor="middle" font-size="9" fill="#6b7280" transform="rotate(-90 29 285)">Group delay</text>
  <line x1="85.1" y1="210" x2="85.1" y2="360" stroke="#e5e7eb" stroke-width="0.5"/>
  <line x1="102.7" y1="210" x2="102.7" y2="360" stroke="#e5e7eb" stroke-width="0.5"/>
  <line x1="115.2" y1="210" x2="115.2" y2="360" stroke="#e5e7eb" stroke-width="0.5"/>
  <line x1="124.9" y1="210" x2="124.9" y2="360" stroke="#e5e7eb" stroke-width="0.5"/>
  <line x1="132.8" y1="210" x2="132.8" y2="360" stroke="#e5e7eb" stroke-width="0.5"/>
  <line x1="139.5" y1="210" x2="139.5" y2="360" stroke="#e5e7eb" stroke-width="0.5"/>
  <line x1="145.3" y1="210" x2="145.3" y2="360" stroke="#e5e7eb" stroke-width="0.5"/>
  <line x1="150.4" y1="210" x2="150.4" y2="360" stroke="#e5e7eb" stroke-width="0.5"/>
  <line x1="185.1" y1="210" x2="185.1" y2="360" stroke="#e5e7eb" stroke-width="0.5"/>
  <line x1="202.7" y1="210" x2="202.7" y2="360" stroke="#e5e7eb" stroke-width="0.5"/>
  <line x1="215.2" y1="210" x2="215.2" y2="360" stroke="#e5e7eb" stroke-width="0.5"/>
  <line x1="224.8" y1="210" x2="224.8" y2="360" stroke="#e5e7eb" stroke-width="0.5"/>
  <line x1="232.8" y1="210" x2="232.8" y2="360" stroke="#e5e7eb" stroke-width="0.5"/>
  <line x1="239.5" y1="210" x2="239.5" y2="360" stroke="#e5e7eb" stroke-width="0.5"/>
  <line x1="245.2" y1="210" x2="245.2" y2="360" stroke="#e5e7eb" stroke-width="0.5"/>
  <line x1="250.4" y1="210" x2="250.4" y2="360" stroke="#e5e7eb" stroke-width="0.5"/>
  <line x1="285.0" y1="210" x2="285.0" y2="360" stroke="#e5e7eb" stroke-width="0.5"/>
  <line x1="302.6" y1="210" x2="302.6" y2="360" stroke="#e5e7eb" stroke-width="0.5"/>
  <line x1="315.1" y1="210" x2="315.1" y2="360" stroke="#e5e7eb" stroke-width="0.5"/>
  <line x1="324.8" y1="210" x2="324.8" y2="360" stroke="#e5e7eb" stroke-width="0.5"/>
  <line x1="332.7" y1="210" x2="332.7" y2="360" stroke="#e5e7eb" stroke-width="0.5"/>
  <line x1="339.4" y1="210" x2="339.4" y2="360" stroke="#e5e7eb" stroke-width="0.5"/>
  <line x1="345.2" y1="210" x2="345.2" y2="360" stroke="#e5e7eb" stroke-width="0.5"/>
  <line x1="350.3" y1="210" x2="350.3" y2="360" stroke="#e5e7eb" stroke-width="0.5"/>
  <line x1="385.0" y1="210" x2="385.0" y2="360" stroke="#e5e7eb" stroke-width="0.5"/>
  <line x1="155.0" y1="210" x2="155.0" y2="360" stroke="#e5e7eb" stroke-width="0.5"/>
  <text x="155.0" y="372" text-anchor="middle" font-size="8" fill="#6b7280">100</text>
  <line x1="254.9" y1="210" x2="254.9" y2="360" stroke="#e5e7eb" stroke-width="0.5"/>
  <text x="254.9" y="372" text-anchor="middle" font-size="8" fill="#6b7280">1k</text>
  <line x1="354.9" y1="210" x2="354.9" y2="360" stroke="#e5e7eb" stroke-width="0.5"/>
  <text x="354.9" y="372" text-anchor="middle" font-size="8" fill="#6b7280">10k</text>
  <line x1="55" y1="331.0" x2="385" y2="331.0" stroke="#e5e7eb" stroke-width="0.5"/>
  <text x="51" y="334.0" text-anchor="end" font-size="8" fill="#6b7280">-4</text>
  <text x="51" y="288.0" text-anchor="end" font-size="8" fill="#6b7280">0</text>
  <line x1="55" y1="239.0" x2="385" y2="239.0" stroke="#e5e7eb" stroke-width="0.5"/>
  <text x="51" y="242.0" text-anchor="end" font-size="8" fill="#6b7280">4</text>
  <defs><linearGradient id="g215" x1="0" y1="360" x2="0" y2="285.0" gradientUnits="userSpaceOnUse">
    <stop offset="0%" stop-color="#2ecc71" stop-opacity="0.15"/>
    <stop offset="100%" stop-color="#2ecc71" stop-opacity="0.02"/>
  </linearGradient></defs>
  <path d="M58.2,285.0 58.2,285.0 88.3,285.0 105.9,285.0 118.4,285.0 128.1,285.0 136.0,285.1 142.7,285.1 148.5,285.2 153.6,285.2 158.2,285.3 162.3,285.4 166.1,285.5 169.6,285.7 172.8,285.8 175.8,286.0 178.6,286.2 181.2,286.5 183.7,286.7 186.0,287.0 188.3,287.4 190.4,287.8 192.4,288.2 194.3,288.6 196.2,289.1 198.0,289.6 199.7,290.2 201.3,290.8 202.9,291.4 204.4,292.1 205.9,292.9 207.3,293.7 208.7,294.5 210.0,295.4 211.3,296.3 212.6,297.2 213.8,298.2 215.0,299.3 216.1,300.4 217.3,301.5 218.4,302.7 219.4,303.9 220.5,305.1 221.5,306.4 222.5,307.7 223.5,309.0 224.4,310.3 225.4,311.7 226.3,313.1 227.2,314.4 228.1,315.8 228.9,317.2 229.8,318.6 230.6,320.0 231.4,321.4 233.0,324.2 234.5,326.8 236.0,329.3 237.4,331.7 238.8,333.9 240.1,335.9 241.4,337.6 242.7,339.1 243.9,340.3 245.1,341.3 246.2,342.0 247.4,342.5 248.5,342.7 249.5,342.6 250.6,342.4 251.6,341.9 252.6,341.2 253.6,340.3 254.5,339.3 255.5,338.1 256.4,336.9 257.3,335.5 258.1,334.0 259.0,332.5 259.8,331.0 260.7,329.4 261.5,327.7 262.7,325.3 263.8,322.9 265.0,320.5 266.1,318.2 267.1,316.0 268.2,313.9 269.2,311.9 270.2,310.0 271.2,308.2 272.1,306.5 273.1,304.9 274.0,303.5 274.9,302.1 275.7,300.8 276.6,299.7 277.5,298.6 278.3,297.6 279.1,296.7 280.1,295.5 281.2,294.5 282.2,293.6 283.2,292.8 284.1,292.1 285.1,291.4 286.0,290.9 286.9,290.3 287.8,289.9 288.7,289.4 289.5,289.0 290.4,288.7 291.2,288.4 292.0,288.1 293.0,287.8 293.9,287.5 294.9,287.3 295.8,287.0 296.7,286.8 297.6,286.7 298.4,286.5 299.3,286.4 300.1,286.3 300.9,286.1 301.7,286.0 302.7,285.9 303.6,285.8 304.5,285.8 305.4,285.7 306.3,285.6 307.1,285.6 308.0,285.5 308.8,285.5 309.6,285.4 310.5,285.4 311.4,285.3 312.3,285.3 313.2,285.3 314.0,285.3 314.8,285.2 315.6,285.2 316.4,285.2 317.3,285.2 318.2,285.2 319.1,285.1 319.9,285.1 320.8,285.1 321.6,285.1 322.5,285.1 323.3,285.1 324.2,285.1 325.1,285.1 325.9,285.1 326.7,285.1 327.6,285.1 328.5,285.0 329.3,285.0 330.1,285.0 331.0,285.0 331.8,285.0 332.6,285.0 333.5,285.0 334.3,285.0 335.1,285.0 335.9,285.0 336.8,285.0 337.6,285.0 338.5,285.0 339.3,285.0 340.1,285.0 341.0,285.0 341.8,285.0 342.6,285.0 343.5,285.0 344.3,285.0 345.2,285.0 346.0,285.0 346.8,285.0 347.7,285.0 348.5,285.0 349.3,285.0 350.1,285.0 351.0,285.0 351.8,285.0 352.6,285.0 353.4,285.0 354.3,285.0 355.1,285.0 355.9,285.0 356.7,285.0 357.6,285.0 358.4,285.0 359.2,285.0 360.1,285.0 360.9,285.0 361.7,285.0 362.5,285.0 363.3,285.0 364.1,285.0 365.0,285.0 365.8,285.0 366.6,285.0 367.4,285.0 368.3,285.0 369.1,285.0 369.9,285.0 370.7,285.0 371.5,285.0 372.3,285.0 373.1,285.0 373.9,285.0 374.8,285.0 375.6,285.0 376.4,285.0 377.2,285.0 378.0,285.0 378.8,285.0 379.6,285.0 380.4,285.0 381.3,285.0 382.1,285.0 382.9,285.0 383.7,285.0 384.5,285.0 L384.5,285.0 L58.2,285.0 Z" fill="url(#g215)"/>
  <defs><clipPath id="pc216"><rect x="55" y="210" width="330" height="150"/></clipPath></defs>
  <polyline points="58.2,285.0 88.3,285.0 105.9,285.0 118.4,285.0 128.1,285.0 136.0,285.1 142.7,285.1 148.5,285.2 153.6,285.2 158.2,285.3 162.3,285.4 166.1,285.5 169.6,285.7 172.8,285.8 175.8,286.0 178.6,286.2 181.2,286.5 183.7,286.7 186.0,287.0 188.3,287.4 190.4,287.8 192.4,288.2 194.3,288.6 196.2,289.1 198.0,289.6 199.7,290.2 201.3,290.8 202.9,291.4 204.4,292.1 205.9,292.9 207.3,293.7 208.7,294.5 210.0,295.4 211.3,296.3 212.6,297.2 213.8,298.2 215.0,299.3 216.1,300.4 217.3,301.5 218.4,302.7 219.4,303.9 220.5,305.1 221.5,306.4 222.5,307.7 223.5,309.0 224.4,310.3 225.4,311.7 226.3,313.1 227.2,314.4 228.1,315.8 228.9,317.2 229.8,318.6 230.6,320.0 231.4,321.4 233.0,324.2 234.5,326.8 236.0,329.3 237.4,331.7 238.8,333.9 240.1,335.9 241.4,337.6 242.7,339.1 243.9,340.3 245.1,341.3 246.2,342.0 247.4,342.5 248.5,342.7 249.5,342.6 250.6,342.4 251.6,341.9 252.6,341.2 253.6,340.3 254.5,339.3 255.5,338.1 256.4,336.9 257.3,335.5 258.1,334.0 259.0,332.5 259.8,331.0 260.7,329.4 261.5,327.7 262.7,325.3 263.8,322.9 265.0,320.5 266.1,318.2 267.1,316.0 268.2,313.9 269.2,311.9 270.2,310.0 271.2,308.2 272.1,306.5 273.1,304.9 274.0,303.5 274.9,302.1 275.7,300.8 276.6,299.7 277.5,298.6 278.3,297.6 279.1,296.7 280.1,295.5 281.2,294.5 282.2,293.6 283.2,292.8 284.1,292.1 285.1,291.4 286.0,290.9 286.9,290.3 287.8,289.9 288.7,289.4 289.5,289.0 290.4,288.7 291.2,288.4 292.0,288.1 293.0,287.8 293.9,287.5 294.9,287.3 295.8,287.0 296.7,286.8 297.6,286.7 298.4,286.5 299.3,286.4 300.1,286.3 300.9,286.1 301.7,286.0 302.7,285.9 303.6,285.8 304.5,285.8 305.4,285.7 306.3,285.6 307.1,285.6 308.0,285.5 308.8,285.5 309.6,285.4 310.5,285.4 311.4,285.3 312.3,285.3 313.2,285.3 314.0,285.3 314.8,285.2 315.6,285.2 316.4,285.2 317.3,285.2 318.2,285.2 319.1,285.1 319.9,285.1 320.8,285.1 321.6,285.1 322.5,285.1 323.3,285.1 324.2,285.1 325.1,285.1 325.9,285.1 326.7,285.1 327.6,285.1 328.5,285.0 329.3,285.0 330.1,285.0 331.0,285.0 331.8,285.0 332.6,285.0 333.5,285.0 334.3,285.0 335.1,285.0 335.9,285.0 336.8,285.0 337.6,285.0 338.5,285.0 339.3,285.0 340.1,285.0 341.0,285.0 341.8,285.0 342.6,285.0 343.5,285.0 344.3,285.0 345.2,285.0 346.0,285.0 346.8,285.0 347.7,285.0 348.5,285.0 349.3,285.0 350.1,285.0 351.0,285.0 351.8,285.0 352.6,285.0 353.4,285.0 354.3,285.0 355.1,285.0 355.9,285.0 356.7,285.0 357.6,285.0 358.4,285.0 359.2,285.0 360.1,285.0 360.9,285.0 361.7,285.0 362.5,285.0 363.3,285.0 364.1,285.0 365.0,285.0 365.8,285.0 366.6,285.0 367.4,285.0 368.3,285.0 369.1,285.0 369.9,285.0 370.7,285.0 371.5,285.0 372.3,285.0 373.1,285.0 373.9,285.0 374.8,285.0 375.6,285.0 376.4,285.0 377.2,285.0 378.0,285.0 378.8,285.0 379.6,285.0 380.4,285.0 381.3,285.0 382.1,285.0 382.9,285.0 383.7,285.0 384.5,285.0" fill="none" stroke="#2ecc71" stroke-width="1.5" stroke-linejoin="round" clip-path="url(#pc216)"/>
  <line x1="445" y1="210" x2="445" y2="360" stroke="#d1d5db"/>
  <line x1="445" y1="285.0" x2="775" y2="285.0" stroke="#d1d5db"/>
  <text x="610" y="388" text-anchor="middle" font-size="9" fill="#6b7280">Samples</text>
  <text x="419" y="285" text-anchor="middle" font-size="9" fill="#6b7280" transform="rotate(-90 419 285)">Impulse response</text>
  <line x1="445.0" y1="210" x2="445.0" y2="360" stroke="#e5e7eb" stroke-width="0.5"/>
  <text x="445.0" y="372" text-anchor="middle" font-size="8" fill="#6b7280">0</text>
  <line x1="527.5" y1="210" x2="527.5" y2="360" stroke="#e5e7eb" stroke-width="0.5"/>
  <text x="527.5" y="372" text-anchor="middle" font-size="8" fill="#6b7280">32</text>
  <line x1="610.0" y1="210" x2="610.0" y2="360" stroke="#e5e7eb" stroke-width="0.5"/>
  <text x="610.0" y="372" text-anchor="middle" font-size="8" fill="#6b7280">64</text>
  <line x1="692.5" y1="210" x2="692.5" y2="360" stroke="#e5e7eb" stroke-width="0.5"/>
  <text x="692.5" y="372" text-anchor="middle" font-size="8" fill="#6b7280">96</text>
  <line x1="775.0" y1="210" x2="775.0" y2="360" stroke="#e5e7eb" stroke-width="0.5"/>
  <text x="775.0" y="372" text-anchor="middle" font-size="8" fill="#6b7280">128</text>
  <line x1="445" y1="335.7" x2="775" y2="335.7" stroke="#e5e7eb" stroke-width="0.5"/>
  <text x="441" y="338.7" text-anchor="end" font-size="8" fill="#6b7280">-0.7</text>
  <text x="441" y="288.0" text-anchor="end" font-size="8" fill="#6b7280">0</text>
  <line x1="445" y1="234.3" x2="775" y2="234.3" stroke="#e5e7eb" stroke-width="0.5"/>
  <text x="441" y="237.3" text-anchor="end" font-size="8" fill="#6b7280">0.7</text>
  <defs><linearGradient id="g217" x1="0" y1="210" x2="0" y2="285.0" gradientUnits="userSpaceOnUse">
    <stop offset="0%" stop-color="#f39c12" stop-opacity="0.15"/>
    <stop offset="100%" stop-color="#f39c12" stop-opacity="0.02"/>
  </linearGradient></defs>
  <path d="M445.0,210.0 445.0,210.0 447.6,279.8 450.2,279.8 452.7,279.8 455.3,279.9 457.9,280.1 460.5,280.2 463.0,280.5 465.6,280.7 468.2,281.0 470.8,281.3 473.4,281.5 475.9,281.8 478.5,282.1 481.1,282.4 483.7,282.7 486.3,282.9 488.8,283.2 491.4,283.4 494.0,283.6 496.6,283.8 499.1,284.0 501.7,284.2 504.3,284.3 506.9,284.5 509.5,284.6 512.0,284.7 514.6,284.8 517.2,284.9 519.8,285.0 522.3,285.0 524.9,285.1 527.5,285.1 530.1,285.1 532.7,285.2 535.2,285.2 537.8,285.2 540.4,285.2 543.0,285.2 545.5,285.2 548.1,285.2 550.7,285.2 553.3,285.2 555.9,285.2 558.4,285.2 561.0,285.2 563.6,285.2 566.2,285.2 568.8,285.1 571.3,285.1 573.9,285.1 576.5,285.1 579.1,285.1 581.6,285.1 584.2,285.1 586.8,285.1 589.4,285.1 592.0,285.1 594.5,285.0 597.1,285.0 599.7,285.0 602.3,285.0 604.8,285.0 607.4,285.0 610.0,285.0 612.6,285.0 615.2,285.0 617.7,285.0 620.3,285.0 622.9,285.0 625.5,285.0 628.0,285.0 630.6,285.0 633.2,285.0 635.8,285.0 638.4,285.0 640.9,285.0 643.5,285.0 646.1,285.0 648.7,285.0 651.3,285.0 653.8,285.0 656.4,285.0 659.0,285.0 661.6,285.0 664.1,285.0 666.7,285.0 669.3,285.0 671.9,285.0 674.5,285.0 677.0,285.0 679.6,285.0 682.2,285.0 684.8,285.0 687.3,285.0 689.9,285.0 692.5,285.0 695.1,285.0 697.7,285.0 700.2,285.0 702.8,285.0 705.4,285.0 708.0,285.0 710.5,285.0 713.1,285.0 715.7,285.0 718.3,285.0 720.9,285.0 723.4,285.0 726.0,285.0 728.6,285.0 731.2,285.0 733.8,285.0 736.3,285.0 738.9,285.0 741.5,285.0 744.1,285.0 746.6,285.0 749.2,285.0 751.8,285.0 754.4,285.0 757.0,285.0 759.5,285.0 762.1,285.0 764.7,285.0 767.3,285.0 769.8,285.0 772.4,285.0 L772.4,285.0 L445.0,285.0 Z" fill="url(#g217)"/>
  <defs><clipPath id="pc218"><rect x="445" y="210" width="330" height="150"/></clipPath></defs>
  <polyline points="445.0,210.0 447.6,279.8 450.2,279.8 452.7,279.8 455.3,279.9 457.9,280.1 460.5,280.2 463.0,280.5 465.6,280.7 468.2,281.0 470.8,281.3 473.4,281.5 475.9,281.8 478.5,282.1 481.1,282.4 483.7,282.7 486.3,282.9 488.8,283.2 491.4,283.4 494.0,283.6 496.6,283.8 499.1,284.0 501.7,284.2 504.3,284.3 506.9,284.5 509.5,284.6 512.0,284.7 514.6,284.8 517.2,284.9 519.8,285.0 522.3,285.0 524.9,285.1 527.5,285.1 530.1,285.1 532.7,285.2 535.2,285.2 537.8,285.2 540.4,285.2 543.0,285.2 545.5,285.2 548.1,285.2 550.7,285.2 553.3,285.2 555.9,285.2 558.4,285.2 561.0,285.2 563.6,285.2 566.2,285.2 568.8,285.1 571.3,285.1 573.9,285.1 576.5,285.1 579.1,285.1 581.6,285.1 584.2,285.1 586.8,285.1 589.4,285.1 592.0,285.1 594.5,285.0 597.1,285.0 599.7,285.0 602.3,285.0 604.8,285.0 607.4,285.0 610.0,285.0 612.6,285.0 615.2,285.0 617.7,285.0 620.3,285.0 622.9,285.0 625.5,285.0 628.0,285.0 630.6,285.0 633.2,285.0 635.8,285.0 638.4,285.0 640.9,285.0 643.5,285.0 646.1,285.0 648.7,285.0 651.3,285.0 653.8,285.0 656.4,285.0 659.0,285.0 661.6,285.0 664.1,285.0 666.7,285.0 669.3,285.0 671.9,285.0 674.5,285.0 677.0,285.0 679.6,285.0 682.2,285.0 684.8,285.0 687.3,285.0 689.9,285.0 692.5,285.0 695.1,285.0 697.7,285.0 700.2,285.0 702.8,285.0 705.4,285.0 708.0,285.0 710.5,285.0 713.1,285.0 715.7,285.0 718.3,285.0 720.9,285.0 723.4,285.0 726.0,285.0 728.6,285.0 731.2,285.0 733.8,285.0 736.3,285.0 738.9,285.0 741.5,285.0 744.1,285.0 746.6,285.0 749.2,285.0 751.8,285.0 754.4,285.0 757.0,285.0 759.5,285.0 762.1,285.0 764.7,285.0 767.3,285.0 769.8,285.0 772.4,285.0" fill="none" stroke="#f39c12" stroke-width="1.3" stroke-linejoin="round" clip-path="url(#pc218)"/>
</svg>
