<svg xmlns="http://www.w3.org/2000/svg" viewBox="0 0 800 240" style="font-family:system-ui,-apple-system,sans-serif">
  <line x1="55" y1="12" x2="55" y2="192" stroke="#d1d5db"/>
  <line x1="55" y1="192" x2="755" y2="192" stroke="#d1d5db"/>
  <text x="405" y="222" text-anchor="middle" font-size="10" fill="#6b7280">Frequency (Hz)</text>
  <text x="17" y="102" text-anchor="middle" font-size="10" fill="#6b7280" transform="rotate(-90 17 102)">Magnitude (dB)</text>
  <line x1="99.4" y1="12" x2="99.4" y2="192" stroke="#e5e7eb" stroke-width="0.5"/>
  <text x="99.4" y="205" text-anchor="middle" font-size="9" fill="#6b7280">31</text>
  <line x1="169.7" y1="12" x2="169.7" y2="192" stroke="#e5e7eb" stroke-width="0.5"/>
  <text x="169.7" y="205" text-anchor="middle" font-size="9" fill="#6b7280">62</text>
  <line x1="240.7" y1="12" x2="240.7" y2="192" stroke="#e5e7eb" stroke-width="0.5"/>
  <text x="240.7" y="205" text-anchor="middle" font-size="9" fill="#6b7280">125</text>
  <line x1="310.9" y1="12" x2="310.9" y2="192" stroke="#e5e7eb" stroke-width="0.5"/>
  <text x="310.9" y="205" text-anchor="middle" font-size="9" fill="#6b7280">250</text>
  <line x1="381.2" y1="12" x2="381.2" y2="192" stroke="#e5e7eb" stroke-width="0.5"/>
  <text x="381.2" y="205" text-anchor="middle" font-size="9" fill="#6b7280">500</text>
  <line x1="451.4" y1="12" x2="451.4" y2="192" stroke="#e5e7eb" stroke-width="0.5"/>
  <text x="451.4" y="205" text-anchor="middle" font-size="9" fill="#6b7280">1k</text>
  <line x1="521.7" y1="12" x2="521.7" y2="192" stroke="#e5e7eb" stroke-width="0.5"/>
  <text x="521.7" y="205" text-anchor="middle" font-size="9" fill="#6b7280">2k</text>
  <line x1="591.9" y1="12" x2="591.9" y2="192" stroke="#e5e7eb" stroke-width="0.5"/>
  <text x="591.9" y="205" text-anchor="middle" font-size="9" fill="#6b7280">4k</text>
  <line x1="662.1" y1="12" x2="662.1" y2="192" stroke="#e5e7eb" stroke-width="0.5"/>
  <text x="662.1" y="205" text-anchor="middle" font-size="9" fill="#6b7280">8k</text>
  <line x1="732.4" y1="12" x2="732.4" y2="192" stroke="#e5e7eb" stroke-width="0.5"/>
  <text x="732.4" y="205" text-anchor="middle" font-size="9" fill="#6b7280">16k</text>
  <line x1="55" y1="22.6" x2="755" y2="22.6" stroke="#e5e7eb" stroke-width="0.5"/>
  <text x="51" y="25.6" text-anchor="end" font-size="9" fill="#6b7280">0</text>
  <line x1="55" y1="64.9" x2="755" y2="64.9" stroke="#e5e7eb" stroke-width="0.5"/>
  <text x="51" y="67.9" text-anchor="end" font-size="9" fill="#6b7280">-20</text>
  <line x1="55" y1="107.3" x2="755" y2="107.3" stroke="#e5e7eb" stroke-width="0.5"/>
  <text x="51" y="110.3" text-anchor="end" font-size="9" fill="#6b7280">-40</text>
  <line x1="55" y1="149.6" x2="755" y2="149.6" stroke="#e5e7eb" stroke-width="0.5"/>
  <text x="51" y="152.6" text-anchor="end" font-size="9" fill="#6b7280">-60</text>
  <line x1="55" y1="192.0" x2="755" y2="192.0" stroke="#e5e7eb" stroke-width="0.5"/>
  <text x="51" y="195.0" text-anchor="end" font-size="9" fill="#6b7280">-80</text>
  <polyline points="132.7,22.5 203.0,22.4 244.1,22.1 273.2,21.8 295.8,21.3 314.3,20.8 329.9,20.2 343.4,19.5 355.4,18.8 366.1,18.0 375.7,17.1 384.5,16.3 392.6,15.4 400.2,14.5 407.1,13.7 413.7,12.8 419.8,12.1 425.6,12.0 431.1,12.0 436.3,12.0 441.2,12.0 446.0,12.0 450.5,12.0 454.8,12.0 458.9,12.0 462.9,12.0 466.7,12.0 470.4,12.0 474.0,12.0 477.4,12.0 480.7,12.0 483.9,12.2 487.0,12.6 490.1,13.0 493.0,13.3 495.9,13.7 498.6,14.0 501.3,14.4 504.0,14.7 506.5,15.0 509.0,15.3 511.5,15.6 513.9,15.8 516.2,16.1 518.5,16.3 520.7,16.5 522.9,16.8 525.0,17.0 527.1,17.2 529.2,17.4 531.2,17.5 533.1,17.7 535.1,17.9 537.0,18.0 538.8,18.2 540.6,18.3 542.4,18.5 544.2,18.6 545.9,18.7 547.6,18.8 549.3,19.0 551.0,19.1 552.6,19.2 554.2,19.3 555.7,19.4 557.3,19.5 558.8,19.6 560.3,19.6 561.8,19.7 563.2,19.8 564.7,19.9 566.1,20.0 567.5,20.0 568.9,20.1 570.2,20.2 571.6,20.2 572.9,20.3 574.2,20.3 575.5,20.4 576.8,20.4 578.0,20.5 579.3,20.6 580.5,20.6 581.7,20.6 582.9,20.7 584.1,20.7 585.3,20.8 586.4,20.8 587.6,20.9 588.7,20.9 589.8,20.9 590.9,21.0 592.0,21.0 593.1,21.0 594.2,21.1 595.3,21.1 596.3,21.1 597.3,21.2 598.4,21.2 599.4,21.2 600.4,21.3 601.4,21.3 602.4,21.3 603.4,21.3 604.3,21.4 605.3,21.4 606.2,21.4 607.2,21.4 608.1,21.5 609.1,21.5 610.0,21.5 610.9,21.5 611.8,21.5 612.7,21.6 613.6,21.6 614.4,21.6 615.3,21.6 616.2,21.6 617.0,21.6 617.9,21.7 618.7,21.7 619.5,21.7 620.4,21.7 621.2,21.7 622.0,21.7 622.8,21.8 623.6,21.8 624.4,21.8 625.2,21.8 626.0,21.8 626.8,21.8 627.5,21.8 628.3,21.8 629.0,21.9 629.8,21.9 630.6,21.9 631.3,21.9 632.0,21.9 632.8,21.9 633.5,21.9 634.2,21.9 634.9,21.9 635.6,22.0 636.3,22.0 637.0,22.0 637.7,22.0 638.4,22.0 639.1,22.0 639.8,22.0 640.5,22.0 641.2,22.0 641.8,22.0 642.5,22.0 643.1,22.1 643.8,22.1 644.5,22.1 645.1,22.1 645.7,22.1 646.4,22.1 647.0,22.1 647.7,22.1 648.3,22.1 648.9,22.1 649.5,22.1 650.1,22.1 650.8,22.1 651.4,22.1 652.0,22.2 652.6,22.2 653.2,22.2 653.8,22.2 654.3,22.2 654.9,22.2 655.5,22.2 656.1,22.2 656.7,22.2 657.3,22.2 657.8,22.2 658.4,22.2 659.0,22.2 659.5,22.2 660.1,22.2 660.6,22.2 661.2,22.2 661.7,22.2 662.3,22.3 662.8,22.3 663.4,22.3 663.9,22.3 664.4,22.3 665.0,22.3 665.5,22.3 666.0,22.3 666.5,22.3 667.1,22.3 667.6,22.3 668.1,22.3 668.6,22.3 669.1,22.3 669.6,22.3 670.1,22.3 670.6,22.3 671.1,22.3 671.6,22.3 672.1,22.3 672.6,22.3 673.1,22.3 673.6,22.3 674.1,22.3 674.6,22.3 675.1,22.3 675.5,22.3 676.0,22.4 676.5,22.4 677.0,22.4 677.4,22.4 677.9,22.4 678.4,22.4 678.8,22.4 679.3,22.4 679.8,22.4 680.2,22.4 680.7,22.4 681.1,22.4 681.6,22.4 682.0,22.4 682.5,22.4 682.9,22.4 683.4,22.4 683.8,22.4 684.2,22.4 684.7,22.4 685.1,22.4 685.5,22.4 686.0,22.4 686.4,22.4 686.8,22.4 687.3,22.4 687.7,22.4 688.1,22.4 688.5,22.4 688.9,22.4 689.4,22.4 689.8,22.4 690.2,22.4 690.6,22.4 691.0,22.4 691.4,22.4 691.8,22.4 692.2,22.4 692.6,22.4 693.1,22.4 693.5,22.4 693.9,22.4 694.3,22.4 694.6,22.4 695.0,22.5 695.4,22.5 695.8,22.5 696.2,22.5 696.6,22.5 697.0,22.5 697.4,22.5 697.8,22.5 698.1,22.5 698.5,22.5 698.9,22.5 699.3,22.5 699.7,22.5 700.0,22.5 700.4,22.5 700.8,22.5 701.2,22.5 701.5,22.5 701.9,22.5 702.3,22.5 702.6,22.5 703.0,22.5 703.4,22.5 703.7,22.5 704.1,22.5 704.5,22.5 704.8,22.5 705.2,22.5 705.5,22.5 705.9,22.5 706.2,22.5 706.6,22.5 706.9,22.5 707.3,22.5 707.6,22.5 708.0,22.5 708.3,22.5 708.7,22.5 709.0,22.5 709.4,22.5 709.7,22.5 710.0,22.5 710.4,22.5 710.7,22.5 711.1,22.5 711.4,22.5 711.7,22.5 712.1,22.5 712.4,22.5 712.7,22.5 713.1,22.5 713.4,22.5 713.7,22.5 714.0,22.5 714.4,22.5 714.7,22.5 715.0,22.5 715.3,22.5 715.7,22.5 716.0,22.5 716.3,22.5 716.6,22.5 716.9,22.5 717.3,22.5 717.6,22.5 717.9,22.5 718.2,22.5 718.5,22.5 718.8,22.5 719.1,22.5 719.5,22.5 719.8,22.5 720.1,22.5 720.4,22.5 720.7,22.5 721.0,22.5 721.3,22.5 721.6,22.5 721.9,22.5 722.2,22.5 722.5,22.5 722.8,22.5 723.1,22.5 723.4,22.5 723.7,22.5 724.0,22.5 724.3,22.5 724.6,22.5 724.9,22.5 725.2,22.5 725.5,22.5 725.8,22.5 726.1,22.5 726.3,22.5 726.6,22.5 726.9,22.5 727.2,22.5 727.5,22.5 727.8,22.6 728.1,22.6 728.3,22.6 728.6,22.6 728.9,22.6 729.2,22.6 729.5,22.6 729.8,22.6 730.0,22.6 730.3,22.6 730.6,22.6 730.9,22.6 731.1,22.6 731.4,22.6 731.7,22.6 732.0,22.6 732.2,22.6 732.5,22.6 732.8,22.6 733.1,22.6 733.3,22.6 733.6,22.6 733.9,22.6 734.1,22.6 734.4,22.6 734.7,22.6 734.9,22.6 735.2,22.6 735.5,22.6 735.7,22.6 736.0,22.6 736.3,22.6 736.5,22.6 736.8,22.6 737.0,22.6 737.3,22.6 737.6,22.6 737.8,22.6 738.1,22.6 738.3,22.6 738.6,22.6 738.9,22.6 739.1,22.6 739.4,22.6 739.6,22.6 739.9,22.6 740.1,22.6 740.4,22.6 740.6,22.6 740.9,22.6 741.1,22.6 741.4,22.6 741.6,22.6 741.9,22.6 742.1,22.6 742.4,22.6 742.6,22.6 742.9,22.6 743.1,22.6 743.4,22.6 743.6,22.6 743.8,22.6 744.1,22.6 744.3,22.6 744.6,22.6 744.8,22.6 745.1,22.6 745.3,22.6 745.5,22.6 745.8,22.6 746.0,22.6 746.3,22.6 746.5,22.6 746.7,22.6 747.0,22.6 747.2,22.6 747.4,22.6 747.7,22.6 747.9,22.6 748.1,22.6 748.4,22.6 748.6,22.6 748.8,22.6 749.1,22.6 749.3,22.6 749.5,22.6 749.8,22.6 750.0,22.6 750.2,22.6 750.4,22.6 750.7,22.6 750.9,22.6 751.1,22.6 751.4,22.6 751.6,22.6 751.8,22.6 752.0,22.6 752.3,22.6 752.5,22.6 752.7,22.6 752.9,22.6 753.2,22.6 753.4,22.6 753.6,22.6 753.8,22.6 754.0,22.6 754.3,22.6 754.5,22.6 754.7,22.6 754.9,22.6" fill="none" stroke="#4a90d9" stroke-width="1.8" stroke-linejoin="round"/>
  <text x="55" y="240" font-size="12" font-weight="600" fill="#6b7280">Biquad peaking, fc=1kHz</text>
  <rect x="529" y="19" width="202" height="102" fill="white" fill-opacity="0.85" rx="3"/>
  <text x="532" y="30" font-size="8" fill="#6b7280">Impulse response</text>
  <polyline points="530.0,20.0 531.6,64.3 533.1,65.2 534.7,66.1 536.3,66.9 537.8,67.7 539.4,68.5 540.9,69.1 542.5,69.7 544.1,70.2 545.6,70.7 547.2,71.1 548.8,71.4 550.3,71.6 551.9,71.8 553.4,71.9 555.0,72.0 556.6,72.0 558.1,72.0 559.7,71.9 561.3,71.8 562.8,71.7 564.4,71.6 565.9,71.5 567.5,71.3 569.1,71.2 570.6,71.0 572.2,70.8 573.8,70.7 575.3,70.6 576.9,70.4 578.4,70.3 580.0,70.2 581.6,70.1 583.1,70.0 584.7,69.9 586.3,69.9 587.8,69.8 589.4,69.8 590.9,69.7 592.5,69.7 594.1,69.7 595.6,69.7 597.2,69.7 598.8,69.7 600.3,69.7 601.9,69.7 603.4,69.7 605.0,69.8 606.6,69.8 608.1,69.8 609.7,69.8 611.3,69.9 612.8,69.9 614.4,69.9 615.9,69.9 617.5,69.9 619.1,70.0 620.6,70.0 622.2,70.0 623.8,70.0 625.3,70.0 626.9,70.0 628.4,70.0 630.0,70.0 631.6,70.0 633.1,70.1 634.7,70.1 636.3,70.1 637.8,70.1 639.4,70.1 640.9,70.0 642.5,70.0 644.1,70.0 645.6,70.0 647.2,70.0 648.8,70.0 650.3,70.0 651.9,70.0 653.4,70.0 655.0,70.0 656.6,70.0 658.1,70.0 659.7,70.0 661.3,70.0 662.8,70.0 664.4,70.0 665.9,70.0 667.5,70.0 669.1,70.0 670.6,70.0 672.2,70.0 673.8,70.0 675.3,70.0 676.9,70.0 678.4,70.0 680.0,70.0 681.6,70.0 683.1,70.0 684.7,70.0 686.3,70.0 687.8,70.0 689.4,70.0 690.9,70.0 692.5,70.0 694.1,70.0 695.6,70.0 697.2,70.0 698.8,70.0 700.3,70.0 701.9,70.0 703.4,70.0 705.0,70.0 706.6,70.0 708.1,70.0 709.7,70.0 711.3,70.0 712.8,70.0 714.4,70.0 715.9,70.0 717.5,70.0 719.1,70.0 720.6,70.0 722.2,70.0 723.8,70.0 725.3,70.0 726.9,70.0 728.4,70.0" fill="none" stroke="#4a90d9" stroke-width="1.3" stroke-linejoin="round"/>
</svg>
