<svg xmlns="http://www.w3.org/2000/svg" viewBox="0 0 800 420" style="font-family:system-ui,-apple-system,sans-serif">
  <text x="55" y="416" font-size="11" font-weight="600" fill="#6b7280">Biquad highshelf, fc=1kHz</text>
  <line x1="55" y1="12" x2="55" y2="162" stroke="#d1d5db"/>
  <line x1="55" y1="42.0" x2="385" y2="42.0" stroke="#d1d5db"/>
  <text x="220" y="190" text-anchor="middle" font-size="9" fill="#6b7280">Hz</text>
  <text x="29" y="87" text-anchor="middle" font-size="9" fill="#6b7280" transform="rotate(-90 29 87)">dB</text>
  <line x1="85.1" y1="12" x2="85.1" y2="162" stroke="#e5e7eb" stroke-width="0.5"/>
  <line x1="102.7" y1="12" x2="102.7" y2="162" stroke="#e5e7eb" stroke-width="0.5"/>
  <line x1="115.2" y1="12" x2="115.2" y2="162" stroke="#e5e7eb" stroke-width="0.5"/>
  <line x1="124.9" y1="12" x2="124.9" y2="162" stroke="#e5e7eb" stroke-width="0.5"/>
  <line x1="132.8" y1="12" x2="132.8" y2="162" stroke="#e5e7eb" stroke-width="0.5"/>
  <line x1="139.5" y1="12" x2="139.5" y2="162" stroke="#e5e7eb" stroke-width="0.5"/>
  <line x1="145.3" y1="12" x2="145.3" y2="162" stroke="#e5e7eb" stroke-width="0.5"/>
  <line x1="150.4" y1="12" x2="150.4" y2="162" stroke="#e5e7eb" stroke-width="0.5"/>
  <line x1="185.1" y1="12" x2="185.1" y2="162" stroke="#e5e7eb" stroke-width="0.5"/>
  <line x1="202.7" y1="12" x2="202.7" y2="162" stroke="#e5e7eb" stroke-width="0.5"/>
  <line x1="215.2" y1="12" x2="215.2" y2="162" stroke="#e5e7eb" stroke-width="0.5"/>
  <line x1="224.8" y1="12" x2="224.8" y2="162" stroke="#e5e7eb" stroke-width="0.5"/>
  <line x1="232.8" y1="12" x2="232.8" y2="162" stroke="#e5e7eb" stroke-width="0.5"/>
  <line x1="239.5" y1="12" x2="239.5" y2="162" stroke="#e5e7eb" stroke-width="0.5"/>
  <line x1="245.2" y1="12" x2="245.2" y2="162" stroke="#e5e7eb" stroke-width="0.5"/>
  <line x1="250.4" y1="12" x2="250.4" y2="162" stroke="#e5e7eb" stroke-width="0.5"/>
  <line x1="285.0" y1="12" x2="285.0" y2="162" stroke="#e5e7eb" stroke-width="0.5"/>
  <line x1="302.6" y1="12" x2="302.6" y2="162" stroke="#e5e7eb" stroke-width="0.5"/>
  <line x1="315.1" y1="12" x2="315.1" y2="162" stroke="#e5e7eb" stroke-width="0.5"/>
  <line x1="324.8" y1="12" x2="324.8" y2="162" stroke="#e5e7eb" stroke-width="0.5"/>
  <line x1="332.7" y1="12" x2="332.7" y2="162" stroke="#e5e7eb" stroke-width="0.5"/>
  <line x1="339.4" y1="12" x2="339.4" y2="162" stroke="#e5e7eb" stroke-width="0.5"/>
  <line x1="345.2" y1="12" x2="345.2" y2="162" stroke="#e5e7eb" stroke-width="0.5"/>
  <line x1="350.3" y1="12" x2="350.3" y2="162" stroke="#e5e7eb" stroke-width="0.5"/>
  <line x1="385.0" y1="12" x2="385.0" y2="162" stroke="#e5e7eb" stroke-width="0.5"/>
  <line x1="155.0" y1="12" x2="155.0" y2="162" stroke="#e5e7eb" stroke-width="0.5"/>
  <text x="155.0" y="174" text-anchor="middle" font-size="8" fill="#6b7280">100</text>
  <line x1="254.9" y1="12" x2="254.9" y2="162" stroke="#e5e7eb" stroke-width="0.5"/>
  <text x="254.9" y="174" text-anchor="middle" font-size="8" fill="#6b7280">1k</text>
  <line x1="354.9" y1="12" x2="354.9" y2="162" stroke="#e5e7eb" stroke-width="0.5"/>
  <text x="354.9" y="174" text-anchor="middle" font-size="8" fill="#6b7280">10k</text>
  <line x1="55" y1="27.0" x2="385" y2="27.0" stroke="#e5e7eb" stroke-width="0.5"/>
  <line x1="55" y1="57.0" x2="385" y2="57.0" stroke="#e5e7eb" stroke-width="0.5"/>
  <line x1="55" y1="12.0" x2="385" y2="12.0" stroke="#e5e7eb" stroke-width="0.5"/>
  <text x="51" y="15.0" text-anchor="end" font-size="8" fill="#6b7280">+20</text>
  <text x="51" y="45.0" text-anchor="end" font-size="8" fill="#6b7280">0</text>
  <line x1="55" y1="72.0" x2="385" y2="72.0" stroke="#e5e7eb" stroke-width="0.5"/>
  <text x="51" y="75.0" text-anchor="end" font-size="8" fill="#6b7280">-20</text>
  <line x1="55" y1="102.0" x2="385" y2="102.0" stroke="#e5e7eb" stroke-width="0.5"/>
  <text x="51" y="105.0" text-anchor="end" font-size="8" fill="#6b7280">-40</text>
  <line x1="55" y1="132.0" x2="385" y2="132.0" stroke="#e5e7eb" stroke-width="0.5"/>
  <text x="51" y="135.0" text-anchor="end" font-size="8" fill="#6b7280">-60</text>
  <line x1="55" y1="162.0" x2="385" y2="162.0" stroke="#e5e7eb" stroke-width="0.5"/>
  <text x="51" y="165.0" text-anchor="end" font-size="8" fill="#6b7280">-80</text>
  <defs><linearGradient id="g219" x1="0" y1="12" x2="0" y2="162" gradientUnits="userSpaceOnUse">
    <stop offset="0%" stop-color="#4a90d9" stop-opacity="0.15"/>
    <stop offset="100%" stop-color="#4a90d9" stop-opacity="0.02"/>
  </linearGradient></defs>
  <path d="M58.2,42.0 58.2,42.0 88.3,42.0 105.9,42.0 118.4,42.0 128.1,42.0 136.0,42.0 142.7,42.0 148.5,42.0 153.6,42.0 158.2,42.0 162.3,42.0 166.1,42.0 169.6,42.0 172.8,42.0 175.8,42.0 178.6,42.0 181.2,42.0 183.7,42.0 186.0,42.0 188.3,42.0 190.4,42.0 192.4,42.0 194.3,42.0 196.2,42.0 198.0,41.9 199.7,41.9 201.3,41.9 202.9,41.9 204.4,41.9 205.9,41.9 207.3,41.9 208.7,41.9 210.0,41.8 211.3,41.8 212.6,41.8 213.8,41.8 215.0,41.8 216.1,41.7 217.3,41.7 218.4,41.7 219.4,41.6 220.5,41.6 221.5,41.6 222.5,41.5 223.5,41.5 224.4,41.5 225.4,41.4 226.3,41.4 227.2,41.3 228.1,41.3 228.9,41.2 229.8,41.1 230.6,41.1 231.4,41.0 233.0,40.9 234.5,40.8 236.0,40.6 237.4,40.4 238.8,40.3 240.1,40.1 241.4,39.9 242.7,39.7 243.9,39.6 245.1,39.4 246.2,39.2 247.4,39.0 248.5,38.8 249.5,38.6 250.6,38.4 251.6,38.2 252.6,38.0 253.6,37.8 254.5,37.6 255.5,37.4 256.4,37.2 257.3,37.0 258.1,36.9 259.0,36.7 259.8,36.5 260.7,36.4 261.5,36.2 262.7,36.0 263.8,35.8 265.0,35.6 266.1,35.4 267.1,35.3 268.2,35.1 269.2,35.0 270.2,34.8 271.2,34.7 272.1,34.6 273.1,34.5 274.0,34.4 274.9,34.3 275.7,34.2 276.6,34.1 277.5,34.0 278.3,34.0 279.1,33.9 280.1,33.8 281.2,33.8 282.2,33.7 283.2,33.7 284.1,33.6 285.1,33.6 286.0,33.5 286.9,33.5 287.8,33.4 288.7,33.4 289.5,33.4 290.4,33.3 291.2,33.3 292.0,33.3 293.0,33.3 293.9,33.3 294.9,33.2 295.8,33.2 296.7,33.2 297.6,33.2 298.4,33.2 299.3,33.2 300.1,33.1 300.9,33.1 301.7,33.1 302.7,33.1 303.6,33.1 304.5,33.1 305.4,33.1 306.3,33.1 307.1,33.1 308.0,33.1 308.8,33.1 309.6,33.1 310.5,33.1 311.4,33.0 312.3,33.0 313.2,33.0 314.0,33.0 314.8,33.0 315.6,33.0 316.4,33.0 317.3,33.0 318.2,33.0 319.1,33.0 319.9,33.0 320.8,33.0 321.6,33.0 322.5,33.0 323.3,33.0 324.2,33.0 325.1,33.0 325.9,33.0 326.7,33.0 327.6,33.0 328.5,33.0 329.3,33.0 330.1,33.0 331.0,33.0 331.8,33.0 332.6,33.0 333.5,33.0 334.3,33.0 335.1,33.0 335.9,33.0 336.8,33.0 337.6,33.0 338.5,33.0 339.3,33.0 340.1,33.0 341.0,33.0 341.8,33.0 342.6,33.0 343.5,33.0 344.3,33.0 345.2,33.0 346.0,33.0 346.8,33.0 347.7,33.0 348.5,33.0 349.3,33.0 350.1,33.0 351.0,33.0 351.8,33.0 352.6,33.0 353.4,33.0 354.3,33.0 355.1,33.0 355.9,33.0 356.7,33.0 357.6,33.0 358.4,33.0 359.2,33.0 360.1,33.0 360.9,33.0 361.7,33.0 362.5,33.0 363.3,33.0 364.1,33.0 365.0,33.0 365.8,33.0 366.6,33.0 367.4,33.0 368.3,33.0 369.1,33.0 369.9,33.0 370.7,33.0 371.5,33.0 372.3,33.0 373.1,33.0 373.9,33.0 374.8,33.0 375.6,33.0 376.4,33.0 377.2,33.0 378.0,33.0 378.8,33.0 379.6,33.0 380.4,33.0 381.3,33.0 382.1,33.0 382.9,33.0 383.7,33.0 384.5,33.0 L384.5,162.0 L58.2,162.0 Z" fill="url(#g219)"/>
  <defs><clipPath id="pc220"><rect x="55" y="12" width="330" height="150"/></clipPath></defs>
  <polyline points="58.2,42.0 88.3,42.0 105.9,42.0 118.4,42.0 128.1,42.0 136.0,42.0 142.7,42.0 148.5,42.0 153.6,42.0 158.2,42.0 162.3,42.0 166.1,42.0 169.6,42.0 172.8,42.0 175.8,42.0 178.6,42.0 181.2,42.0 183.7,42.0 186.0,42.0 188.3,42.0 190.4,42.0 192.4,42.0 194.3,42.0 196.2,42.0 198.0,41.9 199.7,41.9 201.3,41.9 202.9,41.9 204.4,41.9 205.9,41.9 207.3,41.9 208.7,41.9 210.0,41.8 211.3,41.8 212.6,41.8 213.8,41.8 215.0,41.8 216.1,41.7 217.3,41.7 218.4,41.7 219.4,41.6 220.5,41.6 221.5,41.6 222.5,41.5 223.5,41.5 224.4,41.5 225.4,41.4 226.3,41.4 227.2,41.3 228.1,41.3 228.9,41.2 229.8,41.1 230.6,41.1 231.4,41.0 233.0,40.9 234.5,40.8 236.0,40.6 237.4,40.4 238.8,40.3 240.1,40.1 241.4,39.9 242.7,39.7 243.9,39.6 245.1,39.4 246.2,39.2 247.4,39.0 248.5,38.8 249.5,38.6 250.6,38.4 251.6,38.2 252.6,38.0 253.6,37.8 254.5,37.6 255.5,37.4 256.4,37.2 257.3,37.0 258.1,36.9 259.0,36.7 259.8,36.5 260.7,36.4 261.5,36.2 262.7,36.0 263.8,35.8 265.0,35.6 266.1,35.4 267.1,35.3 268.2,35.1 269.2,35.0 270.2,34.8 271.2,34.7 272.1,34.6 273.1,34.5 274.0,34.4 274.9,34.3 275.7,34.2 276.6,34.1 277.5,34.0 278.3,34.0 279.1,33.9 280.1,33.8 281.2,33.8 282.2,33.7 283.2,33.7 284.1,33.6 285.1,33.6 286.0,33.5 286.9,33.5 287.8,33.4 288.7,33.4 289.5,33.4 290.4,33.3 291.2,33.3 292.0,33.3 293.0,33.3 293.9,33.3 294.9,33.2 295.8,33.2 296.7,33.2 297.6,33.2 298.4,33.2 299.3,33.2 300.1,33.1 300.9,33.1 301.7,33.1 302.7,33.1 303.6,33.1 304.5,33.1 305.4,33.1 306.3,33.1 307.1,33.1 308.0,33.1 308.8,33.1 309.6,33.1 310.5,33.1 311.4,33.0 312.3,33.0 313.2,33.0 314.0,33.0 314.8,33.0 315.6,33.0 316.4,33.0 317.3,33.0 318.2,33.0 319.1,33.0 319.9,33.0 320.8,33.0 321.6,33.0 322.5,33.0 323.3,33.0 324.2,33.0 325.1,33.0 325.9,33.0 326.7,33.0 327.6,33.0 328.5,33.0 329.3,33.0 330.1,33.0 331.0,33.0 331.8,33.0 332.6,33.0 333.5,33.0 334.3,33.0 335.1,33.0 335.9,33.0 336.8,33.0 337.6,33.0 338.5,33.0 339.3,33.0 340.1,33.0 341.0,33.0 341.8,33.0 342.6,33.0 343.5,33.0 344.3,33.0 345.2,33.0 346.0,33.0 346.8,33.0 347.7,33.0 348.5,33.0 349.3,33.0 350.1,33.0 351.0,33.0 351.8,33.0 352.6,33.0 353.4,33.0 354.3,33.0 355.1,33.0 355.9,33.0 356.7,33.0 357.6,33.0 358.4,33.0 359.2,33.0 360.1,33.0 360.9,33.0 361.7,33.0 362.5,33.0 363.3,33.0 364.1,33.0 365.0,33.0 365.8,33.0 366.6,33.0 367.4,33.0 368.3,33.0 369.1,33.0 369.9,33.0 370.7,33.0 371.5,33.0 372.3,33.0 373.1,33.0 373.9,33.0 374.8,33.0 375.6,33.0 376.4,33.0 377.2,33.0 378.0,33.0 378.8,33.0 379.6,33.0 380.4,33.0 381.3,33.0 382.1,33.0 382.9,33.0 383.7,33.0 384.5,33.0" fill="none" stroke="#4a90d9" stroke-width="1.5" stroke-linejoin="round" clip-path="url(#pc220)"/>
  <line x1="445" y1="12" x2="445" y2="162" stroke="#d1d5db"/>
  <line x1="445" y1="87.0" x2="775" y2="87.0" stroke="#d1d5db"/>
  <text x="610" y="190" text-anchor="middle" font-size="9" fill="#6b7280">Hz</text>
  <text x="419" y="87" text-anchor="middle" font-size="9" fill="#6b7280" transform="rotate(-90 419 87)">Phase (deg)</text>
  <line x1="475.1" y1="12" x2="475.1" y2="162" stroke="#e5e7eb" stroke-width="0.5"/>
  <line x1="492.7" y1="12" x2="492.7" y2="162" stroke="#e5e7eb" stroke-width="0.5"/>
  <line x1="505.2" y1="12" x2="505.2" y2="162" stroke="#e5e7eb" stroke-width="0.5"/>
  <line x1="514.9" y1="12" x2="514.9" y2="162" stroke="#e5e7eb" stroke-width="0.5"/>
  <line x1="522.8" y1="12" x2="522.8" y2="162" stroke="#e5e7eb" stroke-width="0.5"/>
  <line x1="529.5" y1="12" x2="529.5" y2="162" stroke="#e5e7eb" stroke-width="0.5"/>
  <line x1="535.3" y1="12" x2="535.3" y2="162" stroke="#e5e7eb" stroke-width="0.5"/>
  <line x1="540.4" y1="12" x2="540.4" y2="162" stroke="#e5e7eb" stroke-width="0.5"/>
  <line x1="575.1" y1="12" x2="575.1" y2="162" stroke="#e5e7eb" stroke-width="0.5"/>
  <line x1="592.7" y1="12" x2="592.7" y2="162" stroke="#e5e7eb" stroke-width="0.5"/>
  <line x1="605.2" y1="12" x2="605.2" y2="162" stroke="#e5e7eb" stroke-width="0.5"/>
  <line x1="614.8" y1="12" x2="614.8" y2="162" stroke="#e5e7eb" stroke-width="0.5"/>
  <line x1="622.8" y1="12" x2="622.8" y2="162" stroke="#e5e7eb" stroke-width="0.5"/>
  <line x1="629.5" y1="12" x2="629.5" y2="162" stroke="#e5e7eb" stroke-width="0.5"/>
  <line x1="635.2" y1="12" x2="635.2" y2="162" stroke="#e5e7eb" stroke-width="0.5"/>
  <line x1="640.4" y1="12" x2="640.4" y2="162" stroke="#e5e7eb" stroke-width="0.5"/>
  <line x1="675.0" y1="12" x2="675.0" y2="162" stroke="#e5e7eb" stroke-width="0.5"/>
  <line x1="692.6" y1="12" x2="692.6" y2="162" stroke="#e5e7eb" stroke-width="0.5"/>
  <line x1="705.1" y1="12" x2="705.1" y2="162" stroke="#e5e7eb" stroke-width="0.5"/>
  <line x1="714.8" y1="12" x2="714.8" y2="162" stroke="#e5e7eb" stroke-width="0.5"/>
  <line x1="722.7" y1="12" x2="722.7" y2="162" stroke="#e5e7eb" stroke-width="0.5"/>
  <line x1="729.4" y1="12" x2="729.4" y2="162" stroke="#e5e7eb" stroke-width="0.5"/>
  <line x1="735.2" y1="12" x2="735.2" y2="162" stroke="#e5e7eb" stroke-width="0.5"/>
  <line x1="740.3" y1="12" x2="740.3" y2="162" stroke="#e5e7eb" stroke-width="0.5"/>
  <line x1="775.0" y1="12" x2="775.0" y2="162" stroke="#e5e7eb" stroke-width="0.5"/>
  <line x1="545.0" y1="12" x2="545.0" y2="162" stroke="#e5e7eb" stroke-width="0.5"/>
  <text x="545.0" y="174" text-anchor="middle" font-size="8" fill="#6b7280">100</text>
  <line x1="644.9" y1="12" x2="644.9" y2="162" stroke="#e5e7eb" stroke-width="0.5"/>
  <text x="644.9" y="174" text-anchor="middle" font-size="8" fill="#6b7280">1k</text>
  <line x1="744.9" y1="12" x2="744.9" y2="162" stroke="#e5e7eb" stroke-width="0.5"/>
  <text x="744.9" y="174" text-anchor="middle" font-size="8" fill="#6b7280">10k</text>
  <line x1="445" y1="53.3" x2="775" y2="53.3" stroke="#e5e7eb" stroke-width="0.5"/>
  <line x1="445" y1="120.8" x2="775" y2="120.8" stroke="#e5e7eb" stroke-width="0.5"/>
  <line x1="445" y1="19.5" x2="775" y2="19.5" stroke="#e5e7eb" stroke-width="0.5"/>
  <text x="441" y="22.5" text-anchor="end" font-size="8" fill="#6b7280">180</text>
  <text x="441" y="90.0" text-anchor="end" font-size="8" fill="#6b7280">0</text>
  <line x1="445" y1="154.5" x2="775" y2="154.5" stroke="#e5e7eb" stroke-width="0.5"/>
  <text x="441" y="157.5" text-anchor="end" font-size="8" fill="#6b7280">-180</text>
  <defs><linearGradient id="g221" x1="0" y1="12" x2="0" y2="87.0" gradientUnits="userSpaceOnUse">
    <stop offset="0%" stop-color="#e74c3c" stop-opacity="0.15"/>
    <stop offset="100%" stop-color="#e74c3c" stop-opacity="0.02"/>
  </linearGradient></defs>
  <path d="M448.2,86.9 448.2,86.9 478.3,86.8 495.9,86.7 508.4,86.5 518.1,86.4 526.0,86.3 532.7,86.2 538.5,86.1 543.6,86.0 548.2,85.9 552.3,85.7 556.1,85.6 559.6,85.5 562.8,85.4 565.8,85.3 568.6,85.1 571.2,85.0 573.7,84.9 576.0,84.8 578.3,84.6 580.4,84.5 582.4,84.4 584.3,84.2 586.2,84.1 588.0,84.0 589.7,83.8 591.3,83.7 592.9,83.6 594.4,83.4 595.9,83.3 597.3,83.1 598.7,83.0 600.0,82.8 601.3,82.7 602.6,82.5 603.8,82.4 605.0,82.2 606.1,82.1 607.3,81.9 608.4,81.8 609.4,81.6 610.5,81.5 611.5,81.3 612.5,81.2 613.5,81.0 614.4,80.9 615.4,80.7 616.3,80.6 617.2,80.4 618.1,80.3 618.9,80.1 619.8,80.0 620.6,79.8 621.4,79.7 623.0,79.4 624.5,79.1 626.0,78.8 627.4,78.6 628.8,78.3 630.1,78.1 631.4,77.9 632.7,77.7 633.9,77.5 635.1,77.4 636.2,77.2 637.4,77.1 638.5,77.0 639.5,76.9 640.6,76.8 641.6,76.7 642.6,76.7 643.6,76.7 644.5,76.7 645.5,76.7 646.4,76.7 647.3,76.7 648.1,76.7 649.0,76.8 649.8,76.8 650.7,76.9 651.5,77.0 652.7,77.1 653.8,77.2 655.0,77.4 656.1,77.5 657.1,77.7 658.2,77.9 659.2,78.0 660.2,78.2 661.2,78.4 662.1,78.5 663.1,78.7 664.0,78.9 664.9,79.0 665.7,79.2 666.6,79.3 667.5,79.5 668.3,79.6 669.1,79.8 670.1,80.0 671.2,80.2 672.2,80.3 673.2,80.5 674.1,80.7 675.1,80.8 676.0,81.0 676.9,81.1 677.8,81.3 678.7,81.4 679.5,81.5 680.4,81.7 681.2,81.8 682.0,81.9 683.0,82.0 683.9,82.2 684.9,82.3 685.8,82.4 686.7,82.5 687.6,82.6 688.4,82.7 689.3,82.8 690.1,82.9 690.9,83.0 691.7,83.1 692.7,83.2 693.6,83.3 694.5,83.4 695.4,83.5 696.3,83.6 697.1,83.6 698.0,83.7 698.8,83.8 699.6,83.8 700.5,83.9 701.4,84.0 702.3,84.1 703.2,84.1 704.0,84.2 704.8,84.3 705.6,84.3 706.4,84.4 707.3,84.4 708.2,84.5 709.1,84.6 709.9,84.6 710.8,84.7 711.6,84.7 712.5,84.8 713.3,84.8 714.2,84.9 715.1,84.9 715.9,85.0 716.7,85.0 717.6,85.1 718.5,85.1 719.3,85.1 720.1,85.2 721.0,85.2 721.8,85.3 722.6,85.3 723.5,85.3 724.3,85.4 725.1,85.4 725.9,85.4 726.8,85.5 727.6,85.5 728.5,85.6 729.3,85.6 730.1,85.6 731.0,85.7 731.8,85.7 732.6,85.7 733.5,85.7 734.3,85.8 735.2,85.8 736.0,85.8 736.8,85.9 737.7,85.9 738.5,85.9 739.3,85.9 740.1,86.0 741.0,86.0 741.8,86.0 742.6,86.1 743.4,86.1 744.3,86.1 745.1,86.1 745.9,86.2 746.7,86.2 747.6,86.2 748.4,86.2 749.2,86.2 750.1,86.3 750.9,86.3 751.7,86.3 752.5,86.3 753.3,86.4 754.1,86.4 755.0,86.4 755.8,86.4 756.6,86.4 757.4,86.5 758.3,86.5 759.1,86.5 759.9,86.5 760.7,86.5 761.5,86.6 762.3,86.6 763.1,86.6 763.9,86.6 764.8,86.6 765.6,86.7 766.4,86.7 767.2,86.7 768.0,86.7 768.8,86.7 769.6,86.8 770.4,86.8 771.3,86.8 772.1,86.8 772.9,86.8 773.7,86.9 774.5,86.9 L774.5,87.0 L448.2,87.0 Z" fill="url(#g221)"/>
  <defs><clipPath id="pc222"><rect x="445" y="12" width="330" height="150"/></clipPath></defs>
  <polyline points="448.2,86.9 478.3,86.8 495.9,86.7 508.4,86.5 518.1,86.4 526.0,86.3 532.7,86.2 538.5,86.1 543.6,86.0 548.2,85.9 552.3,85.7 556.1,85.6 559.6,85.5 562.8,85.4 565.8,85.3 568.6,85.1 571.2,85.0 573.7,84.9 576.0,84.8 578.3,84.6 580.4,84.5 582.4,84.4 584.3,84.2 586.2,84.1 588.0,84.0 589.7,83.8 591.3,83.7 592.9,83.6 594.4,83.4 595.9,83.3 597.3,83.1 598.7,83.0 600.0,82.8 601.3,82.7 602.6,82.5 603.8,82.4 605.0,82.2 606.1,82.1 607.3,81.9 608.4,81.8 609.4,81.6 610.5,81.5 611.5,81.3 612.5,81.2 613.5,81.0 614.4,80.9 615.4,80.7 616.3,80.6 617.2,80.4 618.1,80.3 618.9,80.1 619.8,80.0 620.6,79.8 621.4,79.7 623.0,79.4 624.5,79.1 626.0,78.8 627.4,78.6 628.8,78.3 630.1,78.1 631.4,77.9 632.7,77.7 633.9,77.5 635.1,77.4 636.2,77.2 637.4,77.1 638.5,77.0 639.5,76.9 640.6,76.8 641.6,76.7 642.6,76.7 643.6,76.7 644.5,76.7 645.5,76.7 646.4,76.7 647.3,76.7 648.1,76.7 649.0,76.8 649.8,76.8 650.7,76.9 651.5,77.0 652.7,77.1 653.8,77.2 655.0,77.4 656.1,77.5 657.1,77.7 658.2,77.9 659.2,78.0 660.2,78.2 661.2,78.4 662.1,78.5 663.1,78.7 664.0,78.9 664.9,79.0 665.7,79.2 666.6,79.3 667.5,79.5 668.3,79.6 669.1,79.8 670.1,80.0 671.2,80.2 672.2,80.3 673.2,80.5 674.1,80.7 675.1,80.8 676.0,81.0 676.9,81.1 677.8,81.3 678.7,81.4 679.5,81.5 680.4,81.7 681.2,81.8 682.0,81.9 683.0,82.0 683.9,82.2 684.9,82.3 685.8,82.4 686.7,82.5 687.6,82.6 688.4,82.7 689.3,82.8 690.1,82.9 690.9,83.0 691.7,83.1 692.7,83.2 693.6,83.3 694.5,83.4 695.4,83.5 696.3,83.6 697.1,83.6 698.0,83.7 698.8,83.8 699.6,83.8 700.5,83.9 701.4,84.0 702.3,84.1 703.2,84.1 704.0,84.2 704.8,84.3 705.6,84.3 706.4,84.4 707.3,84.4 708.2,84.5 709.1,84.6 709.9,84.6 710.8,84.7 711.6,84.7 712.5,84.8 713.3,84.8 714.2,84.9 715.1,84.9 715.9,85.0 716.7,85.0 717.6,85.1 718.5,85.1 719.3,85.1 720.1,85.2 721.0,85.2 721.8,85.3 722.6,85.3 723.5,85.3 724.3,85.4 725.1,85.4 725.9,85.4 726.8,85.5 727.6,85.5 728.5,85.6 729.3,85.6 730.1,85.6 731.0,85.7 731.8,85.7 732.6,85.7 733.5,85.7 734.3,85.8 735.2,85.8 736.0,85.8 736.8,85.9 737.7,85.9 738.5,85.9 739.3,85.9 740.1,86.0 741.0,86.0 741.8,86.0 742.6,86.1 743.4,86.1 744.3,86.1 745.1,86.1 745.9,86.2 746.7,86.2 747.6,86.2 748.4,86.2 749.2,86.2 750.1,86.3 750.9,86.3 751.7,86.3 752.5,86.3 753.3,86.4 754.1,86.4 755.0,86.4 755.8,86.4 756.6,86.4 757.4,86.5 758.3,86.5 759.1,86.5 759.9,86.5 760.7,86.5 761.5,86.6 762.3,86.6 763.1,86.6 763.9,86.6 764.8,86.6 765.6,86.7 766.4,86.7 767.2,86.7 768.0,86.7 768.8,86.7 769.6,86.8 770.4,86.8 771.3,86.8 772.1,86.8 772.9,86.8 773.7,86.9 774.5,86.9" fill="none" stroke="#e74c3c" stroke-width="1.5" stroke-linejoin="round" clip-path="url(#pc222)"/>
  <line x1="55" y1="210" x2="55" y2="360" stroke="#d1d5db"/>
  <line x1="55" y1="285.0" x2="385" y2="285.0" stroke="#d1d5db"/>
  <text x="220" y="388" text-anchor="middle" font-size="9" fill="#6b7280">Hz</text>
  <text x="29" y="285" text-anchor="middle" font-size="9" fill="#6b7280" transform="rotate(-90 29 285)">Group delay</text>
  <line x1="85.1" y1="210" x2="85.1" y2="360" stroke="#e5e7eb" stroke-width="0.5"/>
  <line x1="102.7" y1="210" x2="102.7" y2="360" stroke="#e5e7eb" stroke-width="0.5"/>
  <line x1="115.2" y1="210" x2="115.2" y2="360" stroke="#e5e7eb" stroke-width="0.5"/>
  <line x1="124.9" y1="210" x2="124.9" y2="360" stroke="#e5e7eb" stroke-width="0.5"/>
  <line x1="132.8" y1="210" x2="132.8" y2="360" stroke="#e5e7eb" stroke-width="0.5"/>
  <line x1="139.5" y1="210" x2="139.5" y2="360" stroke="#e5e7eb" stroke-width="0.5"/>
  <line x1="145.3" y1="210" x2="145.3" y2="360" stroke="#e5e7eb" stroke-width="0.5"/>
  <line x1="150.4" y1="210" x2="150.4" y2="360" stroke="#e5e7eb" stroke-width="0.5"/>
  <line x1="185.1" y1="210" x2="185.1" y2="360" stroke="#e5e7eb" stroke-width="0.5"/>
  <line x1="202.7" y1="210" x2="202.7" y2="360" stroke="#e5e7eb" stroke-width="0.5"/>
  <line x1="215.2" y1="210" x2="215.2" y2="360" stroke="#e5e7eb" stroke-width="0.5"/>
  <line x1="224.8" y1="210" x2="224.8" y2="360" stroke="#e5e7eb" stroke-width="0.5"/>
  <line x1="232.8" y1="210" x2="232.8" y2="360" stroke="#e5e7eb" stroke-width="0.5"/>
  <line x1="239.5" y1="210" x2="239.5" y2="360" stroke="#e5e7eb" stroke-width="0.5"/>
  <line x1="245.2" y1="210" x2="245.2" y2="360" stroke="#e5e7eb" stroke-width="0.5"/>
  <line x1="250.4" y1="210" x2="250.4" y2="360" stroke="#e5e7eb" stroke-width="0.5"/>
  <line x1="285.0" y1="210" x2="285.0" y2="360" stroke="#e5e7eb" stroke-width="0.5"/>
  <line x1="302.6" y1="210" x2="302.6" y2="360" stroke="#e5e7eb" stroke-width="0.5"/>
  <line x1="315.1" y1="210" x2="315.1" y2="360" stroke="#e5e7eb" stroke-width="0.5"/>
  <line x1="324.8" y1="210" x2="324.8" y2="360" stroke="#e5e7eb" stroke-width="0.5"/>
  <line x1="332.7" y1="210" x2="332.7" y2="360" stroke="#e5e7eb" stroke-width="0.5"/>
  <line x1="339.4" y1="210" x2="339.4" y2="360" stroke="#e5e7eb" stroke-width="0.5"/>
  <line x1="345.2" y1="210" x2="345.2" y2="360" stroke="#e5e7eb" stroke-width="0.5"/>
  <line x1="350.3" y1="210" x2="350.3" y2="360" stroke="#e5e7eb" stroke-width="0.5"/>
  <line x1="385.0" y1="210" x2="385.0" y2="360" stroke="#e5e7eb" stroke-width="0.5"/>
  <line x1="155.0" y1="210" x2="155.0" y2="360" stroke="#e5e7eb" stroke-width="0.5"/>
  <text x="155.0" y="372" text-anchor="middle" font-size="8" fill="#6b7280">100</text>
  <line x1="254.9" y1="210" x2="254.9" y2="360" stroke="#e5e7eb" stroke-width="0.5"/>
  <text x="254.9" y="372" text-anchor="middle" font-size="8" fill="#6b7280">1k</text>
  <line x1="354.9" y1="210" x2="354.9" y2="360" stroke="#e5e7eb" stroke-width="0.5"/>
  <text x="354.9" y="372" text-anchor="middle" font-size="8" fill="#6b7280">10k</text>
  <line x1="55" y1="331.0" x2="385" y2="331.0" stroke="#e5e7eb" stroke-width="0.5"/>
  <text x="51" y="334.0" text-anchor="end" font-size="8" fill="#6b7280">-4</text>
  <text x="51" y="288.0" text-anchor="end" font-size="8" fill="#6b7280">0</text>
  <line x1="55" y1="239.0" x2="385" y2="239.0" stroke="#e5e7eb" stroke-width="0.5"/>
  <text x="51" y="242.0" text-anchor="end" font-size="8" fill="#6b7280">4</text>
  <defs><linearGradient id="g223" x1="0" y1="360" x2="0" y2="285.0" gradientUnits="userSpaceOnUse">
    <stop offset="0%" stop-color="#2ecc71" stop-opacity="0.15"/>
    <stop offset="100%" stop-color="#2ecc71" stop-opacity="0.02"/>
  </linearGradient></defs>
  <path d="M58.2,285.0 58.2,285.0 88.3,285.0 105.9,285.0 118.4,285.0 128.1,285.0 136.0,284.9 142.7,284.9 148.5,284.8 153.6,284.8 158.2,284.7 162.3,284.6 166.1,284.5 169.6,284.3 172.8,284.2 175.8,284.0 178.6,283.8 181.2,283.5 183.7,283.3 186.0,283.0 188.3,282.6 190.4,282.2 192.4,281.8 194.3,281.4 196.2,280.9 198.0,280.4 199.7,279.8 201.3,279.2 202.9,278.6 204.4,277.9 205.9,277.1 207.3,276.3 208.7,275.5 210.0,274.6 211.3,273.7 212.6,272.8 213.8,271.8 215.0,270.7 216.1,269.6 217.3,268.5 218.4,267.3 219.4,266.1 220.5,264.9 221.5,263.6 222.5,262.3 223.5,261.0 224.4,259.7 225.4,258.3 226.3,256.9 227.2,255.6 228.1,254.2 228.9,252.8 229.8,251.4 230.6,250.0 231.4,248.6 233.0,245.8 234.5,243.2 236.0,240.7 237.4,238.3 238.8,236.1 240.1,234.1 241.4,232.4 242.7,230.9 243.9,229.7 245.1,228.7 246.2,228.0 247.4,227.5 248.5,227.3 249.5,227.4 250.6,227.6 251.6,228.1 252.6,228.8 253.6,229.7 254.5,230.7 255.5,231.9 256.4,233.1 257.3,234.5 258.1,236.0 259.0,237.5 259.8,239.0 260.7,240.6 261.5,242.3 262.7,244.7 263.8,247.1 265.0,249.5 266.1,251.8 267.1,254.0 268.2,256.1 269.2,258.1 270.2,260.0 271.2,261.8 272.1,263.5 273.1,265.1 274.0,266.5 274.9,267.9 275.7,269.2 276.6,270.3 277.5,271.4 278.3,272.4 279.1,273.3 280.1,274.5 281.2,275.5 282.2,276.4 283.2,277.2 284.1,277.9 285.1,278.6 286.0,279.1 286.9,279.7 287.8,280.1 288.7,280.6 289.5,281.0 290.4,281.3 291.2,281.6 292.0,281.9 293.0,282.2 293.9,282.5 294.9,282.7 295.8,283.0 296.7,283.2 297.6,283.3 298.4,283.5 299.3,283.6 300.1,283.7 300.9,283.9 301.7,284.0 302.7,284.1 303.6,284.2 304.5,284.2 305.4,284.3 306.3,284.4 307.1,284.4 308.0,284.5 308.8,284.5 309.6,284.6 310.5,284.6 311.4,284.7 312.3,284.7 313.2,284.7 314.0,284.7 314.8,284.8 315.6,284.8 316.4,284.8 317.3,284.8 318.2,284.8 319.1,284.9 319.9,284.9 320.8,284.9 321.6,284.9 322.5,284.9 323.3,284.9 324.2,284.9 325.1,284.9 325.9,284.9 326.7,284.9 327.6,284.9 328.5,285.0 329.3,285.0 330.1,285.0 331.0,285.0 331.8,285.0 332.6,285.0 333.5,285.0 334.3,285.0 335.1,285.0 335.9,285.0 336.8,285.0 337.6,285.0 338.5,285.0 339.3,285.0 340.1,285.0 341.0,285.0 341.8,285.0 342.6,285.0 343.5,285.0 344.3,285.0 345.2,285.0 346.0,285.0 346.8,285.0 347.7,285.0 348.5,285.0 349.3,285.0 350.1,285.0 351.0,285.0 351.8,285.0 352.6,285.0 353.4,285.0 354.3,285.0 355.1,285.0 355.9,285.0 356.7,285.0 357.6,285.0 358.4,285.0 359.2,285.0 360.1,285.0 360.9,285.0 361.7,285.0 362.5,285.0 363.3,285.0 364.1,285.0 365.0,285.0 365.8,285.0 366.6,285.0 367.4,285.0 368.3,285.0 369.1,285.0 369.9,285.0 370.7,285.0 371.5,285.0 372.3,285.0 373.1,285.0 373.9,285.0 374.8,285.0 375.6,285.0 376.4,285.0 377.2,285.0 378.0,285.0 378.8,285.0 379.6,285.0 380.4,285.0 381.3,285.0 382.1,285.0 382.9,285.0 383.7,285.0 384.5,285.0 L384.5,285.0 L58.2,285.0 Z" fill="url(#g223)"/>
  <defs><clipPath id="pc224"><rect x="55" y="210" width="330" height="150"/></clipPath></defs>
  <polyline points="58.2,285.0 88.3,285.0 105.9,285.0 118.4,285.0 128.1,285.0 136.0,284.9 142.7,284.9 148.5,284.8 153.6,284.8 158.2,284.7 162.3,284.6 166.1,284.5 169.6,284.3 172.8,284.2 175.8,284.0 178.6,283.8 181.2,283.5 183.7,283.3 186.0,283.0 188.3,282.6 190.4,282.2 192.4,281.8 194.3,281.4 196.2,280.9 198.0,280.4 199.7,279.8 201.3,279.2 202.9,278.6 204.4,277.9 205.9,277.1 207.3,276.3 208.7,275.5 210.0,274.6 211.3,273.7 212.6,272.8 213.8,271.8 215.0,270.7 216.1,269.6 217.3,268.5 218.4,267.3 219.4,266.1 220.5,264.9 221.5,263.6 222.5,262.3 223.5,261.0 224.4,259.7 225.4,258.3 226.3,256.9 227.2,255.6 228.1,254.2 228.9,252.8 229.8,251.4 230.6,250.0 231.4,248.6 233.0,245.8 234.5,243.2 236.0,240.7 237.4,238.3 238.8,236.1 240.1,234.1 241.4,232.4 242.7,230.9 243.9,229.7 245.1,228.7 246.2,228.0 247.4,227.5 248.5,227.3 249.5,227.4 250.6,227.6 251.6,228.1 252.6,228.8 253.6,229.7 254.5,230.7 255.5,231.9 256.4,233.1 257.3,234.5 258.1,236.0 259.0,237.5 259.8,239.0 260.7,240.6 261.5,242.3 262.7,244.7 263.8,247.1 265.0,249.5 266.1,251.8 267.1,254.0 268.2,256.1 269.2,258.1 270.2,260.0 271.2,261.8 272.1,263.5 273.1,265.1 274.0,266.5 274.9,267.9 275.7,269.2 276.6,270.3 277.5,271.4 278.3,272.4 279.1,273.3 280.1,274.5 281.2,275.5 282.2,276.4 283.2,277.2 284.1,277.9 285.1,278.6 286.0,279.1 286.9,279.7 287.8,280.1 288.7,280.6 289.5,281.0 290.4,281.3 291.2,281.6 292.0,281.9 293.0,282.2 293.9,282.5 294.9,282.7 295.8,283.0 296.7,283.2 297.6,283.3 298.4,283.5 299.3,283.6 300.1,283.7 300.9,283.9 301.7,284.0 302.7,284.1 303.6,284.2 304.5,284.2 305.4,284.3 306.3,284.4 307.1,284.4 308.0,284.5 308.8,284.5 309.6,284.6 310.5,284.6 311.4,284.7 312.3,284.7 313.2,284.7 314.0,284.7 314.8,284.8 315.6,284.8 316.4,284.8 317.3,284.8 318.2,284.8 319.1,284.9 319.9,284.9 320.8,284.9 321.6,284.9 322.5,284.9 323.3,284.9 324.2,284.9 325.1,284.9 325.9,284.9 326.7,284.9 327.6,284.9 328.5,285.0 329.3,285.0 330.1,285.0 331.0,285.0 331.8,285.0 332.6,285.0 333.5,285.0 334.3,285.0 335.1,285.0 335.9,285.0 336.8,285.0 337.6,285.0 338.5,285.0 339.3,285.0 340.1,285.0 341.0,285.0 341.8,285.0 342.6,285.0 343.5,285.0 344.3,285.0 345.2,285.0 346.0,285.0 346.8,285.0 347.7,285.0 348.5,285.0 349.3,285.0 350.1,285.0 351.0,285.0 351.8,285.0 352.6,285.0 353.4,285.0 354.3,285.0 355.1,285.0 355.9,285.0 356.7,285.0 357.6,285.0 358.4,285.0 359.2,285.0 360.1,285.0 360.9,285.0 361.7,285.0 362.5,285.0 363.3,285.0 364.1,285.0 365.0,285.0 365.8,285.0 366.6,285.0 367.4,285.0 368.3,285.0 369.1,285.0 369.9,285.0 370.7,285.0 371.5,285.0 372.3,285.0 373.1,285.0 373.9,285.0 374.8,285.0 375.6,285.0 376.4,285.0 377.2,285.0 378.0,285.0 378.8,285.0 379.6,285.0 380.4,285.0 381.3,285.0 382.1,285.0 382.9,285.0 383.7,285.0 384.5,285.0" fill="none" stroke="#2ecc71" stroke-width="1.5" stroke-linejoin="round" clip-path="url(#pc224)"/>
  <line x1="445" y1="210" x2="445" y2="360" stroke="#d1d5db"/>
  <line x1="445" y1="285.0" x2="775" y2="285.0" stroke="#d1d5db"/>
  <text x="610" y="388" text-anchor="middle" font-size="9" fill="#6b7280">Samples</text>
  <text x="419" y="285" text-anchor="middle" font-size="9" fill="#6b7280" transform="rotate(-90 419 285)">Impulse response</text>
  <line x1="445.0" y1="210" x2="445.0" y2="360" stroke="#e5e7eb" stroke-width="0.5"/>
  <text x="445.0" y="372" text-anchor="middle" font-size="8" fill="#6b7280">0</text>
  <line x1="527.5" y1="210" x2="527.5" y2="360" stroke="#e5e7eb" stroke-width="0.5"/>
  <text x="527.5" y="372" text-anchor="middle" font-size="8" fill="#6b7280">32</text>
  <line x1="610.0" y1="210" x2="610.0" y2="360" stroke="#e5e7eb" stroke-width="0.5"/>
  <text x="610.0" y="372" text-anchor="middle" font-size="8" fill="#6b7280">64</text>
  <line x1="692.5" y1="210" x2="692.5" y2="360" stroke="#e5e7eb" stroke-width="0.5"/>
  <text x="692.5" y="372" text-anchor="middle" font-size="8" fill="#6b7280">96</text>
  <line x1="775.0" y1="210" x2="775.0" y2="360" stroke="#e5e7eb" stroke-width="0.5"/>
  <text x="775.0" y="372" text-anchor="middle" font-size="8" fill="#6b7280">128</text>
  <text x="441" y="288.0" text-anchor="end" font-size="8" fill="#6b7280">0</text>
  <defs><linearGradient id="g225" x1="0" y1="210" x2="0" y2="285.0" gradientUnits="userSpaceOnUse">
    <stop offset="0%" stop-color="#f39c12" stop-opacity="0.15"/>
    <stop offset="100%" stop-color="#f39c12" stop-opacity="0.02"/>
  </linearGradient></defs>
  <defs><linearGradient id="g226" x1="0" y1="360" x2="0" y2="285.0" gradientUnits="userSpaceOnUse">
    <stop offset="0%" stop-color="#f39c12" stop-opacity="0.15"/>
    <stop offset="100%" stop-color="#f39c12" stop-opacity="0.02"/>
  </linearGradient></defs>
  <defs><clipPath id="c227"><rect x="445" y="210" width="330" height="75.0"/></clipPath></defs>
  <defs><clipPath id="c228"><rect x="445" y="285.0" width="330" height="75.0"/></clipPath></defs>
  <path d="M445.0,210.0 445.0,210.0 447.6,290.2 450.2,289.9 452.7,289.5 455.3,289.1 457.9,288.7 460.5,288.2 463.0,287.8 465.6,287.4 468.2,287.0 470.8,286.7 473.4,286.4 475.9,286.1 478.5,285.8 481.1,285.6 483.7,285.4 486.3,285.3 488.8,285.1 491.4,285.0 494.0,284.9 496.6,284.9 499.1,284.8 501.7,284.8 504.3,284.8 506.9,284.8 509.5,284.8 512.0,284.8 514.6,284.8 517.2,284.8 519.8,284.8 522.3,284.8 524.9,284.8 527.5,284.9 530.1,284.9 532.7,284.9 535.2,284.9 537.8,284.9 540.4,284.9 543.0,285.0 545.5,285.0 548.1,285.0 550.7,285.0 553.3,285.0 555.9,285.0 558.4,285.0 561.0,285.0 563.6,285.0 566.2,285.0 568.8,285.0 571.3,285.0 573.9,285.0 576.5,285.0 579.1,285.0 581.6,285.0 584.2,285.0 586.8,285.0 589.4,285.0 592.0,285.0 594.5,285.0 597.1,285.0 599.7,285.0 602.3,285.0 604.8,285.0 607.4,285.0 610.0,285.0 612.6,285.0 615.2,285.0 617.7,285.0 620.3,285.0 622.9,285.0 625.5,285.0 628.0,285.0 630.6,285.0 633.2,285.0 635.8,285.0 638.4,285.0 640.9,285.0 643.5,285.0 646.1,285.0 648.7,285.0 651.3,285.0 653.8,285.0 656.4,285.0 659.0,285.0 661.6,285.0 664.1,285.0 666.7,285.0 669.3,285.0 671.9,285.0 674.5,285.0 677.0,285.0 679.6,285.0 682.2,285.0 684.8,285.0 687.3,285.0 689.9,285.0 692.5,285.0 695.1,285.0 697.7,285.0 700.2,285.0 702.8,285.0 705.4,285.0 708.0,285.0 710.5,285.0 713.1,285.0 715.7,285.0 718.3,285.0 720.9,285.0 723.4,285.0 726.0,285.0 728.6,285.0 731.2,285.0 733.8,285.0 736.3,285.0 738.9,285.0 741.5,285.0 744.1,285.0 746.6,285.0 749.2,285.0 751.8,285.0 754.4,285.0 757.0,285.0 759.5,285.0 762.1,285.0 764.7,285.0 767.3,285.0 769.8,285.0 772.4,285.0 L772.4,285.0 L445.0,285.0 Z" fill="url(#g225)" clip-path="url(#c227)"/>
  <path d="M445.0,210.0 445.0,210.0 447.6,290.2 450.2,289.9 452.7,289.5 455.3,289.1 457.9,288.7 460.5,288.2 463.0,287.8 465.6,287.4 468.2,287.0 470.8,286.7 473.4,286.4 475.9,286.1 478.5,285.8 481.1,285.6 483.7,285.4 486.3,285.3 488.8,285.1 491.4,285.0 494.0,284.9 496.6,284.9 499.1,284.8 501.7,284.8 504.3,284.8 506.9,284.8 509.5,284.8 512.0,284.8 514.6,284.8 517.2,284.8 519.8,284.8 522.3,284.8 524.9,284.8 527.5,284.9 530.1,284.9 532.7,284.9 535.2,284.9 537.8,284.9 540.4,284.9 543.0,285.0 545.5,285.0 548.1,285.0 550.7,285.0 553.3,285.0 555.9,285.0 558.4,285.0 561.0,285.0 563.6,285.0 566.2,285.0 568.8,285.0 571.3,285.0 573.9,285.0 576.5,285.0 579.1,285.0 581.6,285.0 584.2,285.0 586.8,285.0 589.4,285.0 592.0,285.0 594.5,285.0 597.1,285.0 599.7,285.0 602.3,285.0 604.8,285.0 607.4,285.0 610.0,285.0 612.6,285.0 615.2,285.0 617.7,285.0 620.3,285.0 622.9,285.0 625.5,285.0 628.0,285.0 630.6,285.0 633.2,285.0 635.8,285.0 638.4,285.0 640.9,285.0 643.5,285.0 646.1,285.0 648.7,285.0 651.3,285.0 653.8,285.0 656.4,285.0 659.0,285.0 661.6,285.0 664.1,285.0 666.7,285.0 669.3,285.0 671.9,285.0 674.5,285.0 677.0,285.0 679.6,285.0 682.2,285.0 684.8,285.0 687.3,285.0 689.9,285.0 692.5,285.0 695.1,285.0 697.7,285.0 700.2,285.0 702.8,285.0 705.4,285.0 708.0,285.0 710.5,285.0 713.1,285.0 715.7,285.0 718.3,285.0 720.9,285.0 723.4,285.0 726.0,285.0 728.6,285.0 731.2,285.0 733.8,285.0 736.3,285.0 738.9,285.0 741.5,285.0 744.1,285.0 746.6,285.0 749.2,285.0 751.8,285.0 754.4,285.0 757.0,285.0 759.5,285.0 762.1,285.0 764.7,285.0 767.3,285.0 769.8,285.0 772.4,285.0 L772.4,285.0 L445.0,285.0 Z" fill="url(#g226)" clip-path="url(#c228)"/>
  <defs><clipPath id="pc229"><rect x="445" y="210" width="330" height="150"/></clipPath></defs>
  <polyline points="445.0,210.0 447.6,290.2 450.2,289.9 452.7,289.5 455.3,289.1 457.9,288.7 460.5,288.2 463.0,287.8 465.6,287.4 468.2,287.0 470.8,286.7 473.4,286.4 475.9,286.1 478.5,285.8 481.1,285.6 483.7,285.4 486.3,285.3 488.8,285.1 491.4,285.0 494.0,284.9 496.6,284.9 499.1,284.8 501.7,284.8 504.3,284.8 506.9,284.8 509.5,284.8 512.0,284.8 514.6,284.8 517.2,284.8 519.8,284.8 522.3,284.8 524.9,284.8 527.5,284.9 530.1,284.9 532.7,284.9 535.2,284.9 537.8,284.9 540.4,284.9 543.0,285.0 545.5,285.0 548.1,285.0 550.7,285.0 553.3,285.0 555.9,285.0 558.4,285.0 561.0,285.0 563.6,285.0 566.2,285.0 568.8,285.0 571.3,285.0 573.9,285.0 576.5,285.0 579.1,285.0 581.6,285.0 584.2,285.0 586.8,285.0 589.4,285.0 592.0,285.0 594.5,285.0 597.1,285.0 599.7,285.0 602.3,285.0 604.8,285.0 607.4,285.0 610.0,285.0 612.6,285.0 615.2,285.0 617.7,285.0 620.3,285.0 622.9,285.0 625.5,285.0 628.0,285.0 630.6,285.0 633.2,285.0 635.8,285.0 638.4,285.0 640.9,285.0 643.5,285.0 646.1,285.0 648.7,285.0 651.3,285.0 653.8,285.0 656.4,285.0 659.0,285.0 661.6,285.0 664.1,285.0 666.7,285.0 669.3,285.0 671.9,285.0 674.5,285.0 677.0,285.0 679.6,285.0 682.2,285.0 684.8,285.0 687.3,285.0 689.9,285.0 692.5,285.0 695.1,285.0 697.7,285.0 700.2,285.0 702.8,285.0 705.4,285.0 708.0,285.0 710.5,285.0 713.1,285.0 715.7,285.0 718.3,285.0 720.9,285.0 723.4,285.0 726.0,285.0 728.6,285.0 731.2,285.0 733.8,285.0 736.3,285.0 738.9,285.0 741.5,285.0 744.1,285.0 746.6,285.0 749.2,285.0 751.8,285.0 754.4,285.0 757.0,285.0 759.5,285.0 762.1,285.0 764.7,285.0 767.3,285.0 769.8,285.0 772.4,285.0" fill="none" stroke="#f39c12" stroke-width="1.3" stroke-linejoin="round" clip-path="url(#pc229)"/>
</svg>
