<svg xmlns="http://www.w3.org/2000/svg" viewBox="0 0 800 240" style="font-family:system-ui,-apple-system,sans-serif">
  <line x1="55" y1="12" x2="55" y2="192" stroke="#d1d5db"/>
  <line x1="55" y1="192" x2="755" y2="192" stroke="#d1d5db"/>
  <text x="405" y="222" text-anchor="middle" font-size="10" fill="#6b7280">Frequency (Hz)</text>
  <text x="17" y="102" text-anchor="middle" font-size="10" fill="#6b7280" transform="rotate(-90 17 102)">Magnitude (dB)</text>
  <line x1="99.4" y1="12" x2="99.4" y2="192" stroke="#e5e7eb" stroke-width="0.5"/>
  <text x="99.4" y="205" text-anchor="middle" font-size="9" fill="#6b7280">31</text>
  <line x1="169.7" y1="12" x2="169.7" y2="192" stroke="#e5e7eb" stroke-width="0.5"/>
  <text x="169.7" y="205" text-anchor="middle" font-size="9" fill="#6b7280">62</text>
  <line x1="240.7" y1="12" x2="240.7" y2="192" stroke="#e5e7eb" stroke-width="0.5"/>
  <text x="240.7" y="205" text-anchor="middle" font-size="9" fill="#6b7280">125</text>
  <line x1="310.9" y1="12" x2="310.9" y2="192" stroke="#e5e7eb" stroke-width="0.5"/>
  <text x="310.9" y="205" text-anchor="middle" font-size="9" fill="#6b7280">250</text>
  <line x1="381.2" y1="12" x2="381.2" y2="192" stroke="#e5e7eb" stroke-width="0.5"/>
  <text x="381.2" y="205" text-anchor="middle" font-size="9" fill="#6b7280">500</text>
  <line x1="451.4" y1="12" x2="451.4" y2="192" stroke="#e5e7eb" stroke-width="0.5"/>
  <text x="451.4" y="205" text-anchor="middle" font-size="9" fill="#6b7280">1k</text>
  <line x1="521.7" y1="12" x2="521.7" y2="192" stroke="#e5e7eb" stroke-width="0.5"/>
  <text x="521.7" y="205" text-anchor="middle" font-size="9" fill="#6b7280">2k</text>
  <line x1="591.9" y1="12" x2="591.9" y2="192" stroke="#e5e7eb" stroke-width="0.5"/>
  <text x="591.9" y="205" text-anchor="middle" font-size="9" fill="#6b7280">4k</text>
  <line x1="662.1" y1="12" x2="662.1" y2="192" stroke="#e5e7eb" stroke-width="0.5"/>
  <text x="662.1" y="205" text-anchor="middle" font-size="9" fill="#6b7280">8k</text>
  <line x1="732.4" y1="12" x2="732.4" y2="192" stroke="#e5e7eb" stroke-width="0.5"/>
  <text x="732.4" y="205" text-anchor="middle" font-size="9" fill="#6b7280">16k</text>
  <line x1="55" y1="22.6" x2="755" y2="22.6" stroke="#e5e7eb" stroke-width="0.5"/>
  <text x="51" y="25.6" text-anchor="end" font-size="9" fill="#6b7280">0</text>
  <line x1="55" y1="64.9" x2="755" y2="64.9" stroke="#e5e7eb" stroke-width="0.5"/>
  <text x="51" y="67.9" text-anchor="end" font-size="9" fill="#6b7280">-20</text>
  <line x1="55" y1="107.3" x2="755" y2="107.3" stroke="#e5e7eb" stroke-width="0.5"/>
  <text x="51" y="110.3" text-anchor="end" font-size="9" fill="#6b7280">-40</text>
  <line x1="55" y1="149.6" x2="755" y2="149.6" stroke="#e5e7eb" stroke-width="0.5"/>
  <text x="51" y="152.6" text-anchor="end" font-size="9" fill="#6b7280">-60</text>
  <line x1="55" y1="192.0" x2="755" y2="192.0" stroke="#e5e7eb" stroke-width="0.5"/>
  <text x="51" y="195.0" text-anchor="end" font-size="9" fill="#6b7280">-80</text>
  <polyline points="132.7,22.6 203.0,22.6 244.1,22.6 273.2,22.6 295.8,22.6 314.3,22.6 329.9,22.6 343.4,22.6 355.4,22.6 366.1,22.6 375.7,22.6 384.5,22.6 392.6,22.6 400.2,22.7 407.1,22.7 413.7,22.7 419.8,22.8 425.6,22.9 431.1,23.1 436.3,23.6 441.2,24.6 446.0,28.3 450.5,53.4 454.8,33.5 458.9,26.0 462.9,24.2 466.7,23.5 470.4,23.2 474.0,23.0 477.4,22.9 480.7,22.8 483.9,22.8 487.0,22.8 490.1,22.7 493.0,22.7 495.9,22.7 498.6,22.7 501.3,22.7 504.0,22.7 506.5,22.7 509.0,22.7 511.5,22.6 513.9,22.6 516.2,22.6 518.5,22.6 520.7,22.6 522.9,22.6 525.0,22.6 527.1,22.6 529.2,22.6 531.2,22.6 533.1,22.6 535.1,22.6 537.0,22.6 538.8,22.6 540.6,22.6 542.4,22.6 544.2,22.6 545.9,22.6 547.6,22.6 549.3,22.6 551.0,22.6 552.6,22.6 554.2,22.6 555.7,22.6 557.3,22.6 558.8,22.6 560.3,22.6 561.8,22.6 563.2,22.6 564.7,22.6 566.1,22.6 567.5,22.6 568.9,22.6 570.2,22.6 571.6,22.6 572.9,22.6 574.2,22.6 575.5,22.6 576.8,22.6 578.0,22.6 579.3,22.6 580.5,22.6 581.7,22.6 582.9,22.6 584.1,22.6 585.3,22.6 586.4,22.6 587.6,22.6 588.7,22.6 589.8,22.6 590.9,22.6 592.0,22.6 593.1,22.6 594.2,22.6 595.3,22.6 596.3,22.6 597.3,22.6 598.4,22.6 599.4,22.6 600.4,22.6 601.4,22.6 602.4,22.6 603.4,22.6 604.3,22.6 605.3,22.6 606.2,22.6 607.2,22.6 608.1,22.6 609.1,22.6 610.0,22.6 610.9,22.6 611.8,22.6 612.7,22.6 613.6,22.6 614.4,22.6 615.3,22.6 616.2,22.6 617.0,22.6 617.9,22.6 618.7,22.6 619.5,22.6 620.4,22.6 621.2,22.6 622.0,22.6 622.8,22.6 623.6,22.6 624.4,22.6 625.2,22.6 626.0,22.6 626.8,22.6 627.5,22.6 628.3,22.6 629.0,22.6 629.8,22.6 630.6,22.6 631.3,22.6 632.0,22.6 632.8,22.6 633.5,22.6 634.2,22.6 634.9,22.6 635.6,22.6 636.3,22.6 637.0,22.6 637.7,22.6 638.4,22.6 639.1,22.6 639.8,22.6 640.5,22.6 641.2,22.6 641.8,22.6 642.5,22.6 643.1,22.6 643.8,22.6 644.5,22.6 645.1,22.6 645.7,22.6 646.4,22.6 647.0,22.6 647.7,22.6 648.3,22.6 648.9,22.6 649.5,22.6 650.1,22.6 650.8,22.6 651.4,22.6 652.0,22.6 652.6,22.6 653.2,22.6 653.8,22.6 654.3,22.6 654.9,22.6 655.5,22.6 656.1,22.6 656.7,22.6 657.3,22.6 657.8,22.6 658.4,22.6 659.0,22.6 659.5,22.6 660.1,22.6 660.6,22.6 661.2,22.6 661.7,22.6 662.3,22.6 662.8,22.6 663.4,22.6 663.9,22.6 664.4,22.6 665.0,22.6 665.5,22.6 666.0,22.6 666.5,22.6 667.1,22.6 667.6,22.6 668.1,22.6 668.6,22.6 669.1,22.6 669.6,22.6 670.1,22.6 670.6,22.6 671.1,22.6 671.6,22.6 672.1,22.6 672.6,22.6 673.1,22.6 673.6,22.6 674.1,22.6 674.6,22.6 675.1,22.6 675.5,22.6 676.0,22.6 676.5,22.6 677.0,22.6 677.4,22.6 677.9,22.6 678.4,22.6 678.8,22.6 679.3,22.6 679.8,22.6 680.2,22.6 680.7,22.6 681.1,22.6 681.6,22.6 682.0,22.6 682.5,22.6 682.9,22.6 683.4,22.6 683.8,22.6 684.2,22.6 684.7,22.6 685.1,22.6 685.5,22.6 686.0,22.6 686.4,22.6 686.8,22.6 687.3,22.6 687.7,22.6 688.1,22.6 688.5,22.6 688.9,22.6 689.4,22.6 689.8,22.6 690.2,22.6 690.6,22.6 691.0,22.6 691.4,22.6 691.8,22.6 692.2,22.6 692.6,22.6 693.1,22.6 693.5,22.6 693.9,22.6 694.3,22.6 694.6,22.6 695.0,22.6 695.4,22.6 695.8,22.6 696.2,22.6 696.6,22.6 697.0,22.6 697.4,22.6 697.8,22.6 698.1,22.6 698.5,22.6 698.9,22.6 699.3,22.6 699.7,22.6 700.0,22.6 700.4,22.6 700.8,22.6 701.2,22.6 701.5,22.6 701.9,22.6 702.3,22.6 702.6,22.6 703.0,22.6 703.4,22.6 703.7,22.6 704.1,22.6 704.5,22.6 704.8,22.6 705.2,22.6 705.5,22.6 705.9,22.6 706.2,22.6 706.6,22.6 706.9,22.6 707.3,22.6 707.6,22.6 708.0,22.6 708.3,22.6 708.7,22.6 709.0,22.6 709.4,22.6 709.7,22.6 710.0,22.6 710.4,22.6 710.7,22.6 711.1,22.6 711.4,22.6 711.7,22.6 712.1,22.6 712.4,22.6 712.7,22.6 713.1,22.6 713.4,22.6 713.7,22.6 714.0,22.6 714.4,22.6 714.7,22.6 715.0,22.6 715.3,22.6 715.7,22.6 716.0,22.6 716.3,22.6 716.6,22.6 716.9,22.6 717.3,22.6 717.6,22.6 717.9,22.6 718.2,22.6 718.5,22.6 718.8,22.6 719.1,22.6 719.5,22.6 719.8,22.6 720.1,22.6 720.4,22.6 720.7,22.6 721.0,22.6 721.3,22.6 721.6,22.6 721.9,22.6 722.2,22.6 722.5,22.6 722.8,22.6 723.1,22.6 723.4,22.6 723.7,22.6 724.0,22.6 724.3,22.6 724.6,22.6 724.9,22.6 725.2,22.6 725.5,22.6 725.8,22.6 726.1,22.6 726.3,22.6 726.6,22.6 726.9,22.6 727.2,22.6 727.5,22.6 727.8,22.6 728.1,22.6 728.3,22.6 728.6,22.6 728.9,22.6 729.2,22.6 729.5,22.6 729.8,22.6 730.0,22.6 730.3,22.6 730.6,22.6 730.9,22.6 731.1,22.6 731.4,22.6 731.7,22.6 732.0,22.6 732.2,22.6 732.5,22.6 732.8,22.6 733.1,22.6 733.3,22.6 733.6,22.6 733.9,22.6 734.1,22.6 734.4,22.6 734.7,22.6 734.9,22.6 735.2,22.6 735.5,22.6 735.7,22.6 736.0,22.6 736.3,22.6 736.5,22.6 736.8,22.6 737.0,22.6 737.3,22.6 737.6,22.6 737.8,22.6 738.1,22.6 738.3,22.6 738.6,22.6 738.9,22.6 739.1,22.6 739.4,22.6 739.6,22.6 739.9,22.6 740.1,22.6 740.4,22.6 740.6,22.6 740.9,22.6 741.1,22.6 741.4,22.6 741.6,22.6 741.9,22.6 742.1,22.6 742.4,22.6 742.6,22.6 742.9,22.6 743.1,22.6 743.4,22.6 743.6,22.6 743.8,22.6 744.1,22.6 744.3,22.6 744.6,22.6 744.8,22.6 745.1,22.6 745.3,22.6 745.5,22.6 745.8,22.6 746.0,22.6 746.3,22.6 746.5,22.6 746.7,22.6 747.0,22.6 747.2,22.6 747.4,22.6 747.7,22.6 747.9,22.6 748.1,22.6 748.4,22.6 748.6,22.6 748.8,22.6 749.1,22.6 749.3,22.6 749.5,22.6 749.8,22.6 750.0,22.6 750.2,22.6 750.4,22.6 750.7,22.6 750.9,22.6 751.1,22.6 751.4,22.6 751.6,22.6 751.8,22.6 752.0,22.6 752.3,22.6 752.5,22.6 752.7,22.6 752.9,22.6 753.2,22.6 753.4,22.6 753.6,22.6 753.8,22.6 754.0,22.6 754.3,22.6 754.5,22.6 754.7,22.6 754.9,22.6" fill="none" stroke="#4a90d9" stroke-width="1.8" stroke-linejoin="round"/>
  <text x="55" y="240" font-size="12" font-weight="600" fill="#6b7280">Biquad notch, fc=1kHz</text>
  <rect x="529" y="19" width="202" height="102" fill="white" fill-opacity="0.85" rx="3"/>
  <text x="532" y="30" font-size="8" fill="#6b7280">Impulse response</text>
  <polyline points="530.0,20.0 531.6,70.7 533.1,70.7 534.7,70.6 536.3,70.6 537.8,70.5 539.4,70.4 540.9,70.3 542.5,70.3 544.1,70.2 545.6,70.1 547.2,70.0 548.8,69.9 550.3,69.8 551.9,69.7 553.4,69.6 555.0,69.6 556.6,69.5 558.1,69.5 559.7,69.4 561.3,69.4 562.8,69.4 564.4,69.4 565.9,69.4 567.5,69.4 569.1,69.5 570.6,69.5 572.2,69.6 573.8,69.6 575.3,69.7 576.9,69.8 578.4,69.9 580.0,69.9 581.6,70.0 583.1,70.1 584.7,70.2 586.3,70.2 587.8,70.3 589.4,70.4 590.9,70.4 592.5,70.5 594.1,70.5 595.6,70.5 597.2,70.5 598.8,70.5 600.3,70.5 601.9,70.5 603.4,70.5 605.0,70.4 606.6,70.4 608.1,70.3 609.7,70.3 611.3,70.2 612.8,70.1 614.4,70.1 615.9,70.0 617.5,69.9 619.1,69.9 620.6,69.8 622.2,69.7 623.8,69.7 625.3,69.6 626.9,69.6 628.4,69.6 630.0,69.6 631.6,69.6 633.1,69.6 634.7,69.6 636.3,69.6 637.8,69.6 639.4,69.6 640.9,69.7 642.5,69.7 644.1,69.8 645.6,69.8 647.2,69.9 648.8,69.9 650.3,70.0 651.9,70.1 653.4,70.1 655.0,70.2 656.6,70.2 658.1,70.3 659.7,70.3 661.3,70.3 662.8,70.4 664.4,70.4 665.9,70.4 667.5,70.4 669.1,70.4 670.6,70.4 672.2,70.3 673.8,70.3 675.3,70.3 676.9,70.2 678.4,70.2 680.0,70.1 681.6,70.1 683.1,70.1 684.7,70.0 686.3,70.0 687.8,69.9 689.4,69.9 690.9,69.8 692.5,69.8 694.1,69.7 695.6,69.7 697.2,69.7 698.8,69.7 700.3,69.7 701.9,69.7 703.4,69.7 705.0,69.7 706.6,69.7 708.1,69.7 709.7,69.8 711.3,69.8 712.8,69.8 714.4,69.9 715.9,69.9 717.5,70.0 719.1,70.0 720.6,70.0 722.2,70.1 723.8,70.1 725.3,70.2 726.9,70.2 728.4,70.2" fill="none" stroke="#4a90d9" stroke-width="1.3" stroke-linejoin="round"/>
</svg>
