<svg xmlns="http://www.w3.org/2000/svg" viewBox="0 0 800 420" style="font-family:system-ui,-apple-system,sans-serif">
  <text x="55" y="416" font-size="11" font-weight="600" fill="#6b7280">Biquad peaking, fc=1kHz</text>
  <line x1="55" y1="12" x2="55" y2="162" stroke="#d1d5db"/>
  <line x1="55" y1="42.0" x2="385" y2="42.0" stroke="#d1d5db"/>
  <text x="220" y="190" text-anchor="middle" font-size="9" fill="#6b7280">Hz</text>
  <text x="29" y="87" text-anchor="middle" font-size="9" fill="#6b7280" transform="rotate(-90 29 87)">dB</text>
  <line x1="85.1" y1="12" x2="85.1" y2="162" stroke="#e5e7eb" stroke-width="0.5"/>
  <line x1="102.7" y1="12" x2="102.7" y2="162" stroke="#e5e7eb" stroke-width="0.5"/>
  <line x1="115.2" y1="12" x2="115.2" y2="162" stroke="#e5e7eb" stroke-width="0.5"/>
  <line x1="124.9" y1="12" x2="124.9" y2="162" stroke="#e5e7eb" stroke-width="0.5"/>
  <line x1="132.8" y1="12" x2="132.8" y2="162" stroke="#e5e7eb" stroke-width="0.5"/>
  <line x1="139.5" y1="12" x2="139.5" y2="162" stroke="#e5e7eb" stroke-width="0.5"/>
  <line x1="145.3" y1="12" x2="145.3" y2="162" stroke="#e5e7eb" stroke-width="0.5"/>
  <line x1="150.4" y1="12" x2="150.4" y2="162" stroke="#e5e7eb" stroke-width="0.5"/>
  <line x1="185.1" y1="12" x2="185.1" y2="162" stroke="#e5e7eb" stroke-width="0.5"/>
  <line x1="202.7" y1="12" x2="202.7" y2="162" stroke="#e5e7eb" stroke-width="0.5"/>
  <line x1="215.2" y1="12" x2="215.2" y2="162" stroke="#e5e7eb" stroke-width="0.5"/>
  <line x1="224.8" y1="12" x2="224.8" y2="162" stroke="#e5e7eb" stroke-width="0.5"/>
  <line x1="232.8" y1="12" x2="232.8" y2="162" stroke="#e5e7eb" stroke-width="0.5"/>
  <line x1="239.5" y1="12" x2="239.5" y2="162" stroke="#e5e7eb" stroke-width="0.5"/>
  <line x1="245.2" y1="12" x2="245.2" y2="162" stroke="#e5e7eb" stroke-width="0.5"/>
  <line x1="250.4" y1="12" x2="250.4" y2="162" stroke="#e5e7eb" stroke-width="0.5"/>
  <line x1="285.0" y1="12" x2="285.0" y2="162" stroke="#e5e7eb" stroke-width="0.5"/>
  <line x1="302.6" y1="12" x2="302.6" y2="162" stroke="#e5e7eb" stroke-width="0.5"/>
  <line x1="315.1" y1="12" x2="315.1" y2="162" stroke="#e5e7eb" stroke-width="0.5"/>
  <line x1="324.8" y1="12" x2="324.8" y2="162" stroke="#e5e7eb" stroke-width="0.5"/>
  <line x1="332.7" y1="12" x2="332.7" y2="162" stroke="#e5e7eb" stroke-width="0.5"/>
  <line x1="339.4" y1="12" x2="339.4" y2="162" stroke="#e5e7eb" stroke-width="0.5"/>
  <line x1="345.2" y1="12" x2="345.2" y2="162" stroke="#e5e7eb" stroke-width="0.5"/>
  <line x1="350.3" y1="12" x2="350.3" y2="162" stroke="#e5e7eb" stroke-width="0.5"/>
  <line x1="385.0" y1="12" x2="385.0" y2="162" stroke="#e5e7eb" stroke-width="0.5"/>
  <line x1="155.0" y1="12" x2="155.0" y2="162" stroke="#e5e7eb" stroke-width="0.5"/>
  <text x="155.0" y="174" text-anchor="middle" font-size="8" fill="#6b7280">100</text>
  <line x1="254.9" y1="12" x2="254.9" y2="162" stroke="#e5e7eb" stroke-width="0.5"/>
  <text x="254.9" y="174" text-anchor="middle" font-size="8" fill="#6b7280">1k</text>
  <line x1="354.9" y1="12" x2="354.9" y2="162" stroke="#e5e7eb" stroke-width="0.5"/>
  <text x="354.9" y="174" text-anchor="middle" font-size="8" fill="#6b7280">10k</text>
  <line x1="55" y1="27.0" x2="385" y2="27.0" stroke="#e5e7eb" stroke-width="0.5"/>
  <line x1="55" y1="57.0" x2="385" y2="57.0" stroke="#e5e7eb" stroke-width="0.5"/>
  <line x1="55" y1="12.0" x2="385" y2="12.0" stroke="#e5e7eb" stroke-width="0.5"/>
  <text x="51" y="15.0" text-anchor="end" font-size="8" fill="#6b7280">+20</text>
  <text x="51" y="45.0" text-anchor="end" font-size="8" fill="#6b7280">0</text>
  <line x1="55" y1="72.0" x2="385" y2="72.0" stroke="#e5e7eb" stroke-width="0.5"/>
  <text x="51" y="75.0" text-anchor="end" font-size="8" fill="#6b7280">-20</text>
  <line x1="55" y1="102.0" x2="385" y2="102.0" stroke="#e5e7eb" stroke-width="0.5"/>
  <text x="51" y="105.0" text-anchor="end" font-size="8" fill="#6b7280">-40</text>
  <line x1="55" y1="132.0" x2="385" y2="132.0" stroke="#e5e7eb" stroke-width="0.5"/>
  <text x="51" y="135.0" text-anchor="end" font-size="8" fill="#6b7280">-60</text>
  <line x1="55" y1="162.0" x2="385" y2="162.0" stroke="#e5e7eb" stroke-width="0.5"/>
  <text x="51" y="165.0" text-anchor="end" font-size="8" fill="#6b7280">-80</text>
  <defs><linearGradient id="g194" x1="0" y1="12" x2="0" y2="162" gradientUnits="userSpaceOnUse">
    <stop offset="0%" stop-color="#4a90d9" stop-opacity="0.15"/>
    <stop offset="100%" stop-color="#4a90d9" stop-opacity="0.02"/>
  </linearGradient></defs>
  <path d="M58.2,42.0 58.2,42.0 88.3,42.0 105.9,42.0 118.4,42.0 128.1,41.9 136.0,41.9 142.7,41.9 148.5,41.9 153.6,41.8 158.2,41.8 162.3,41.7 166.1,41.7 169.6,41.6 172.8,41.6 175.8,41.5 178.6,41.4 181.2,41.4 183.7,41.3 186.0,41.2 188.3,41.1 190.4,41.0 192.4,40.9 194.3,40.8 196.2,40.7 198.0,40.6 199.7,40.5 201.3,40.4 202.9,40.3 204.4,40.2 205.9,40.1 207.3,40.0 208.7,39.8 210.0,39.7 211.3,39.6 212.6,39.4 213.8,39.3 215.0,39.2 216.1,39.0 217.3,38.9 218.4,38.7 219.4,38.6 220.5,38.4 221.5,38.3 222.5,38.1 223.5,38.0 224.4,37.8 225.4,37.7 226.3,37.5 227.2,37.4 228.1,37.2 228.9,37.1 229.8,36.9 230.6,36.7 231.4,36.6 233.0,36.3 234.5,36.0 236.0,35.7 237.4,35.4 238.8,35.1 240.1,34.8 241.4,34.6 242.7,34.3 243.9,34.1 245.1,33.9 246.2,33.7 247.4,33.6 248.5,33.4 249.5,33.3 250.6,33.2 251.6,33.1 252.6,33.1 253.6,33.0 254.5,33.0 255.5,33.0 256.4,33.0 257.3,33.1 258.1,33.1 259.0,33.2 259.8,33.2 260.7,33.3 261.5,33.4 262.7,33.6 263.8,33.8 265.0,33.9 266.1,34.1 267.1,34.3 268.2,34.5 269.2,34.7 270.2,34.9 271.2,35.1 272.1,35.3 273.1,35.5 274.0,35.7 274.9,35.9 275.7,36.1 276.6,36.2 277.5,36.4 278.3,36.6 279.1,36.7 280.1,36.9 281.2,37.1 282.2,37.3 283.2,37.5 284.1,37.6 285.1,37.8 286.0,38.0 286.9,38.1 287.8,38.2 288.7,38.4 289.5,38.5 290.4,38.6 291.2,38.7 292.0,38.8 293.0,39.0 293.9,39.1 294.9,39.2 295.8,39.3 296.7,39.4 297.6,39.5 298.4,39.6 299.3,39.7 300.1,39.8 300.9,39.9 301.7,39.9 302.7,40.0 303.6,40.1 304.5,40.2 305.4,40.2 306.3,40.3 307.1,40.4 308.0,40.4 308.8,40.5 309.6,40.5 310.5,40.6 311.4,40.7 312.3,40.7 313.2,40.8 314.0,40.8 314.8,40.9 315.6,40.9 316.4,40.9 317.3,41.0 318.2,41.0 319.1,41.1 319.9,41.1 320.8,41.1 321.6,41.2 322.5,41.2 323.3,41.2 324.2,41.3 325.1,41.3 325.9,41.3 326.7,41.4 327.6,41.4 328.5,41.4 329.3,41.4 330.1,41.5 331.0,41.5 331.8,41.5 332.6,41.5 333.5,41.5 334.3,41.6 335.1,41.6 335.9,41.6 336.8,41.6 337.6,41.6 338.5,41.7 339.3,41.7 340.1,41.7 341.0,41.7 341.8,41.7 342.6,41.7 343.5,41.7 344.3,41.7 345.2,41.8 346.0,41.8 346.8,41.8 347.7,41.8 348.5,41.8 349.3,41.8 350.1,41.8 351.0,41.8 351.8,41.8 352.6,41.8 353.4,41.9 354.3,41.9 355.1,41.9 355.9,41.9 356.7,41.9 357.6,41.9 358.4,41.9 359.2,41.9 360.1,41.9 360.9,41.9 361.7,41.9 362.5,41.9 363.3,41.9 364.1,41.9 365.0,41.9 365.8,41.9 366.6,41.9 367.4,41.9 368.3,42.0 369.1,42.0 369.9,42.0 370.7,42.0 371.5,42.0 372.3,42.0 373.1,42.0 373.9,42.0 374.8,42.0 375.6,42.0 376.4,42.0 377.2,42.0 378.0,42.0 378.8,42.0 379.6,42.0 380.4,42.0 381.3,42.0 382.1,42.0 382.9,42.0 383.7,42.0 384.5,42.0 L384.5,162.0 L58.2,162.0 Z" fill="url(#g194)"/>
  <defs><clipPath id="pc195"><rect x="55" y="12" width="330" height="150"/></clipPath></defs>
  <polyline points="58.2,42.0 88.3,42.0 105.9,42.0 118.4,42.0 128.1,41.9 136.0,41.9 142.7,41.9 148.5,41.9 153.6,41.8 158.2,41.8 162.3,41.7 166.1,41.7 169.6,41.6 172.8,41.6 175.8,41.5 178.6,41.4 181.2,41.4 183.7,41.3 186.0,41.2 188.3,41.1 190.4,41.0 192.4,40.9 194.3,40.8 196.2,40.7 198.0,40.6 199.7,40.5 201.3,40.4 202.9,40.3 204.4,40.2 205.9,40.1 207.3,40.0 208.7,39.8 210.0,39.7 211.3,39.6 212.6,39.4 213.8,39.3 215.0,39.2 216.1,39.0 217.3,38.9 218.4,38.7 219.4,38.6 220.5,38.4 221.5,38.3 222.5,38.1 223.5,38.0 224.4,37.8 225.4,37.7 226.3,37.5 227.2,37.4 228.1,37.2 228.9,37.1 229.8,36.9 230.6,36.7 231.4,36.6 233.0,36.3 234.5,36.0 236.0,35.7 237.4,35.4 238.8,35.1 240.1,34.8 241.4,34.6 242.7,34.3 243.9,34.1 245.1,33.9 246.2,33.7 247.4,33.6 248.5,33.4 249.5,33.3 250.6,33.2 251.6,33.1 252.6,33.1 253.6,33.0 254.5,33.0 255.5,33.0 256.4,33.0 257.3,33.1 258.1,33.1 259.0,33.2 259.8,33.2 260.7,33.3 261.5,33.4 262.7,33.6 263.8,33.8 265.0,33.9 266.1,34.1 267.1,34.3 268.2,34.5 269.2,34.7 270.2,34.9 271.2,35.1 272.1,35.3 273.1,35.5 274.0,35.7 274.9,35.9 275.7,36.1 276.6,36.2 277.5,36.4 278.3,36.6 279.1,36.7 280.1,36.9 281.2,37.1 282.2,37.3 283.2,37.5 284.1,37.6 285.1,37.8 286.0,38.0 286.9,38.1 287.8,38.2 288.7,38.4 289.5,38.5 290.4,38.6 291.2,38.7 292.0,38.8 293.0,39.0 293.9,39.1 294.9,39.2 295.8,39.3 296.7,39.4 297.6,39.5 298.4,39.6 299.3,39.7 300.1,39.8 300.9,39.9 301.7,39.9 302.7,40.0 303.6,40.1 304.5,40.2 305.4,40.2 306.3,40.3 307.1,40.4 308.0,40.4 308.8,40.5 309.6,40.5 310.5,40.6 311.4,40.7 312.3,40.7 313.2,40.8 314.0,40.8 314.8,40.9 315.6,40.9 316.4,40.9 317.3,41.0 318.2,41.0 319.1,41.1 319.9,41.1 320.8,41.1 321.6,41.2 322.5,41.2 323.3,41.2 324.2,41.3 325.1,41.3 325.9,41.3 326.7,41.4 327.6,41.4 328.5,41.4 329.3,41.4 330.1,41.5 331.0,41.5 331.8,41.5 332.6,41.5 333.5,41.5 334.3,41.6 335.1,41.6 335.9,41.6 336.8,41.6 337.6,41.6 338.5,41.7 339.3,41.7 340.1,41.7 341.0,41.7 341.8,41.7 342.6,41.7 343.5,41.7 344.3,41.7 345.2,41.8 346.0,41.8 346.8,41.8 347.7,41.8 348.5,41.8 349.3,41.8 350.1,41.8 351.0,41.8 351.8,41.8 352.6,41.8 353.4,41.9 354.3,41.9 355.1,41.9 355.9,41.9 356.7,41.9 357.6,41.9 358.4,41.9 359.2,41.9 360.1,41.9 360.9,41.9 361.7,41.9 362.5,41.9 363.3,41.9 364.1,41.9 365.0,41.9 365.8,41.9 366.6,41.9 367.4,41.9 368.3,42.0 369.1,42.0 369.9,42.0 370.7,42.0 371.5,42.0 372.3,42.0 373.1,42.0 373.9,42.0 374.8,42.0 375.6,42.0 376.4,42.0 377.2,42.0 378.0,42.0 378.8,42.0 379.6,42.0 380.4,42.0 381.3,42.0 382.1,42.0 382.9,42.0 383.7,42.0 384.5,42.0" fill="none" stroke="#4a90d9" stroke-width="1.5" stroke-linejoin="round" clip-path="url(#pc195)"/>
  <line x1="445" y1="12" x2="445" y2="162" stroke="#d1d5db"/>
  <line x1="445" y1="87.0" x2="775" y2="87.0" stroke="#d1d5db"/>
  <text x="610" y="190" text-anchor="middle" font-size="9" fill="#6b7280">Hz</text>
  <text x="419" y="87" text-anchor="middle" font-size="9" fill="#6b7280" transform="rotate(-90 419 87)">Phase (deg)</text>
  <line x1="475.1" y1="12" x2="475.1" y2="162" stroke="#e5e7eb" stroke-width="0.5"/>
  <line x1="492.7" y1="12" x2="492.7" y2="162" stroke="#e5e7eb" stroke-width="0.5"/>
  <line x1="505.2" y1="12" x2="505.2" y2="162" stroke="#e5e7eb" stroke-width="0.5"/>
  <line x1="514.9" y1="12" x2="514.9" y2="162" stroke="#e5e7eb" stroke-width="0.5"/>
  <line x1="522.8" y1="12" x2="522.8" y2="162" stroke="#e5e7eb" stroke-width="0.5"/>
  <line x1="529.5" y1="12" x2="529.5" y2="162" stroke="#e5e7eb" stroke-width="0.5"/>
  <line x1="535.3" y1="12" x2="535.3" y2="162" stroke="#e5e7eb" stroke-width="0.5"/>
  <line x1="540.4" y1="12" x2="540.4" y2="162" stroke="#e5e7eb" stroke-width="0.5"/>
  <line x1="575.1" y1="12" x2="575.1" y2="162" stroke="#e5e7eb" stroke-width="0.5"/>
  <line x1="592.7" y1="12" x2="592.7" y2="162" stroke="#e5e7eb" stroke-width="0.5"/>
  <line x1="605.2" y1="12" x2="605.2" y2="162" stroke="#e5e7eb" stroke-width="0.5"/>
  <line x1="614.8" y1="12" x2="614.8" y2="162" stroke="#e5e7eb" stroke-width="0.5"/>
  <line x1="622.8" y1="12" x2="622.8" y2="162" stroke="#e5e7eb" stroke-width="0.5"/>
  <line x1="629.5" y1="12" x2="629.5" y2="162" stroke="#e5e7eb" stroke-width="0.5"/>
  <line x1="635.2" y1="12" x2="635.2" y2="162" stroke="#e5e7eb" stroke-width="0.5"/>
  <line x1="640.4" y1="12" x2="640.4" y2="162" stroke="#e5e7eb" stroke-width="0.5"/>
  <line x1="675.0" y1="12" x2="675.0" y2="162" stroke="#e5e7eb" stroke-width="0.5"/>
  <line x1="692.6" y1="12" x2="692.6" y2="162" stroke="#e5e7eb" stroke-width="0.5"/>
  <line x1="705.1" y1="12" x2="705.1" y2="162" stroke="#e5e7eb" stroke-width="0.5"/>
  <line x1="714.8" y1="12" x2="714.8" y2="162" stroke="#e5e7eb" stroke-width="0.5"/>
  <line x1="722.7" y1="12" x2="722.7" y2="162" stroke="#e5e7eb" stroke-width="0.5"/>
  <line x1="729.4" y1="12" x2="729.4" y2="162" stroke="#e5e7eb" stroke-width="0.5"/>
  <line x1="735.2" y1="12" x2="735.2" y2="162" stroke="#e5e7eb" stroke-width="0.5"/>
  <line x1="740.3" y1="12" x2="740.3" y2="162" stroke="#e5e7eb" stroke-width="0.5"/>
  <line x1="775.0" y1="12" x2="775.0" y2="162" stroke="#e5e7eb" stroke-width="0.5"/>
  <line x1="545.0" y1="12" x2="545.0" y2="162" stroke="#e5e7eb" stroke-width="0.5"/>
  <text x="545.0" y="174" text-anchor="middle" font-size="8" fill="#6b7280">100</text>
  <line x1="644.9" y1="12" x2="644.9" y2="162" stroke="#e5e7eb" stroke-width="0.5"/>
  <text x="644.9" y="174" text-anchor="middle" font-size="8" fill="#6b7280">1k</text>
  <line x1="744.9" y1="12" x2="744.9" y2="162" stroke="#e5e7eb" stroke-width="0.5"/>
  <text x="744.9" y="174" text-anchor="middle" font-size="8" fill="#6b7280">10k</text>
  <line x1="445" y1="53.3" x2="775" y2="53.3" stroke="#e5e7eb" stroke-width="0.5"/>
  <line x1="445" y1="120.8" x2="775" y2="120.8" stroke="#e5e7eb" stroke-width="0.5"/>
  <line x1="445" y1="19.5" x2="775" y2="19.5" stroke="#e5e7eb" stroke-width="0.5"/>
  <text x="441" y="22.5" text-anchor="end" font-size="8" fill="#6b7280">180</text>
  <text x="441" y="90.0" text-anchor="end" font-size="8" fill="#6b7280">0</text>
  <line x1="445" y1="154.5" x2="775" y2="154.5" stroke="#e5e7eb" stroke-width="0.5"/>
  <text x="441" y="157.5" text-anchor="end" font-size="8" fill="#6b7280">-180</text>
  <defs><linearGradient id="g196" x1="0" y1="12" x2="0" y2="87.0" gradientUnits="userSpaceOnUse">
    <stop offset="0%" stop-color="#e74c3c" stop-opacity="0.15"/>
    <stop offset="100%" stop-color="#e74c3c" stop-opacity="0.02"/>
  </linearGradient></defs>
  <defs><linearGradient id="g197" x1="0" y1="162" x2="0" y2="87.0" gradientUnits="userSpaceOnUse">
    <stop offset="0%" stop-color="#e74c3c" stop-opacity="0.15"/>
    <stop offset="100%" stop-color="#e74c3c" stop-opacity="0.02"/>
  </linearGradient></defs>
  <defs><clipPath id="c198"><rect x="445" y="12" width="330" height="75.0"/></clipPath></defs>
  <defs><clipPath id="c199"><rect x="445" y="87.0" width="330" height="75.0"/></clipPath></defs>
  <path d="M448.2,86.8 448.2,86.8 478.3,86.5 495.9,86.3 508.4,86.1 518.1,85.9 526.0,85.6 532.7,85.4 538.5,85.2 543.6,85.0 548.2,84.7 552.3,84.5 556.1,84.3 559.6,84.1 562.8,83.9 565.8,83.7 568.6,83.5 571.2,83.3 573.7,83.1 576.0,82.9 578.3,82.7 580.4,82.5 582.4,82.3 584.3,82.1 586.2,82.0 588.0,81.8 589.7,81.6 591.3,81.5 592.9,81.3 594.4,81.2 595.9,81.0 597.3,80.9 598.7,80.8 600.0,80.7 601.3,80.5 602.6,80.4 603.8,80.3 605.0,80.2 606.1,80.2 607.3,80.1 608.4,80.0 609.4,79.9 610.5,79.9 611.5,79.8 612.5,79.8 613.5,79.8 614.4,79.7 615.4,79.7 616.3,79.7 617.2,79.7 618.1,79.7 618.9,79.8 619.8,79.8 620.6,79.8 621.4,79.9 623.0,80.0 624.5,80.2 626.0,80.4 627.4,80.6 628.8,80.8 630.1,81.1 631.4,81.5 632.7,81.8 633.9,82.2 635.1,82.6 636.2,83.0 637.4,83.5 638.5,83.9 639.5,84.4 640.6,84.9 641.6,85.4 642.6,85.8 643.6,86.3 644.5,86.8 645.5,87.3 646.4,87.7 647.3,88.1 648.1,88.6 649.0,89.0 649.8,89.4 650.7,89.7 651.5,90.1 652.7,90.6 653.8,91.0 655.0,91.4 656.1,91.8 657.1,92.2 658.2,92.5 659.2,92.7 660.2,93.0 661.2,93.2 662.1,93.4 663.1,93.5 664.0,93.7 664.9,93.8 665.7,93.9 666.6,94.0 667.5,94.1 668.3,94.1 669.1,94.2 670.1,94.2 671.2,94.3 672.2,94.3 673.2,94.3 674.1,94.3 675.1,94.3 676.0,94.2 676.9,94.2 677.8,94.2 678.7,94.1 679.5,94.1 680.4,94.1 681.2,94.0 682.0,94.0 683.0,93.9 683.9,93.8 684.9,93.7 685.8,93.7 686.7,93.6 687.6,93.5 688.4,93.4 689.3,93.4 690.1,93.3 690.9,93.2 691.7,93.1 692.7,93.0 693.6,92.9 694.5,92.9 695.4,92.8 696.3,92.7 697.1,92.6 698.0,92.5 698.8,92.4 699.6,92.4 700.5,92.3 701.4,92.2 702.3,92.1 703.2,92.0 704.0,91.9 704.8,91.8 705.6,91.8 706.4,91.7 707.3,91.6 708.2,91.5 709.1,91.4 709.9,91.3 710.8,91.3 711.6,91.2 712.5,91.1 713.3,91.0 714.2,91.0 715.1,90.9 715.9,90.8 716.7,90.7 717.6,90.7 718.5,90.6 719.3,90.5 720.1,90.5 721.0,90.4 721.8,90.3 722.6,90.3 723.5,90.2 724.3,90.1 725.1,90.1 725.9,90.0 726.8,89.9 727.6,89.9 728.5,89.8 729.3,89.8 730.1,89.7 731.0,89.6 731.8,89.6 732.6,89.5 733.5,89.5 734.3,89.4 735.2,89.3 736.0,89.3 736.8,89.2 737.7,89.2 738.5,89.1 739.3,89.1 740.1,89.0 741.0,89.0 741.8,88.9 742.6,88.9 743.4,88.8 744.3,88.8 745.1,88.7 745.9,88.7 746.7,88.6 747.6,88.6 748.4,88.6 749.2,88.5 750.1,88.5 750.9,88.4 751.7,88.4 752.5,88.3 753.3,88.3 754.1,88.3 755.0,88.2 755.8,88.2 756.6,88.1 757.4,88.1 758.3,88.0 759.1,88.0 759.9,88.0 760.7,87.9 761.5,87.9 762.3,87.8 763.1,87.8 763.9,87.8 764.8,87.7 765.6,87.7 766.4,87.7 767.2,87.6 768.0,87.6 768.8,87.5 769.6,87.5 770.4,87.5 771.3,87.4 772.1,87.4 772.9,87.3 773.7,87.3 774.5,87.3 L774.5,87.0 L448.2,87.0 Z" fill="url(#g196)" clip-path="url(#c198)"/>
  <path d="M448.2,86.8 448.2,86.8 478.3,86.5 495.9,86.3 508.4,86.1 518.1,85.9 526.0,85.6 532.7,85.4 538.5,85.2 543.6,85.0 548.2,84.7 552.3,84.5 556.1,84.3 559.6,84.1 562.8,83.9 565.8,83.7 568.6,83.5 571.2,83.3 573.7,83.1 576.0,82.9 578.3,82.7 580.4,82.5 582.4,82.3 584.3,82.1 586.2,82.0 588.0,81.8 589.7,81.6 591.3,81.5 592.9,81.3 594.4,81.2 595.9,81.0 597.3,80.9 598.7,80.8 600.0,80.7 601.3,80.5 602.6,80.4 603.8,80.3 605.0,80.2 606.1,80.2 607.3,80.1 608.4,80.0 609.4,79.9 610.5,79.9 611.5,79.8 612.5,79.8 613.5,79.8 614.4,79.7 615.4,79.7 616.3,79.7 617.2,79.7 618.1,79.7 618.9,79.8 619.8,79.8 620.6,79.8 621.4,79.9 623.0,80.0 624.5,80.2 626.0,80.4 627.4,80.6 628.8,80.8 630.1,81.1 631.4,81.5 632.7,81.8 633.9,82.2 635.1,82.6 636.2,83.0 637.4,83.5 638.5,83.9 639.5,84.4 640.6,84.9 641.6,85.4 642.6,85.8 643.6,86.3 644.5,86.8 645.5,87.3 646.4,87.7 647.3,88.1 648.1,88.6 649.0,89.0 649.8,89.4 650.7,89.7 651.5,90.1 652.7,90.6 653.8,91.0 655.0,91.4 656.1,91.8 657.1,92.2 658.2,92.5 659.2,92.7 660.2,93.0 661.2,93.2 662.1,93.4 663.1,93.5 664.0,93.7 664.9,93.8 665.7,93.9 666.6,94.0 667.5,94.1 668.3,94.1 669.1,94.2 670.1,94.2 671.2,94.3 672.2,94.3 673.2,94.3 674.1,94.3 675.1,94.3 676.0,94.2 676.9,94.2 677.8,94.2 678.7,94.1 679.5,94.1 680.4,94.1 681.2,94.0 682.0,94.0 683.0,93.9 683.9,93.8 684.9,93.7 685.8,93.7 686.7,93.6 687.6,93.5 688.4,93.4 689.3,93.4 690.1,93.3 690.9,93.2 691.7,93.1 692.7,93.0 693.6,92.9 694.5,92.9 695.4,92.8 696.3,92.7 697.1,92.6 698.0,92.5 698.8,92.4 699.6,92.4 700.5,92.3 701.4,92.2 702.3,92.1 703.2,92.0 704.0,91.9 704.8,91.8 705.6,91.8 706.4,91.7 707.3,91.6 708.2,91.5 709.1,91.4 709.9,91.3 710.8,91.3 711.6,91.2 712.5,91.1 713.3,91.0 714.2,91.0 715.1,90.9 715.9,90.8 716.7,90.7 717.6,90.7 718.5,90.6 719.3,90.5 720.1,90.5 721.0,90.4 721.8,90.3 722.6,90.3 723.5,90.2 724.3,90.1 725.1,90.1 725.9,90.0 726.8,89.9 727.6,89.9 728.5,89.8 729.3,89.8 730.1,89.7 731.0,89.6 731.8,89.6 732.6,89.5 733.5,89.5 734.3,89.4 735.2,89.3 736.0,89.3 736.8,89.2 737.7,89.2 738.5,89.1 739.3,89.1 740.1,89.0 741.0,89.0 741.8,88.9 742.6,88.9 743.4,88.8 744.3,88.8 745.1,88.7 745.9,88.7 746.7,88.6 747.6,88.6 748.4,88.6 749.2,88.5 750.1,88.5 750.9,88.4 751.7,88.4 752.5,88.3 753.3,88.3 754.1,88.3 755.0,88.2 755.8,88.2 756.6,88.1 757.4,88.1 758.3,88.0 759.1,88.0 759.9,88.0 760.7,87.9 761.5,87.9 762.3,87.8 763.1,87.8 763.9,87.8 764.8,87.7 765.6,87.7 766.4,87.7 767.2,87.6 768.0,87.6 768.8,87.5 769.6,87.5 770.4,87.5 771.3,87.4 772.1,87.4 772.9,87.3 773.7,87.3 774.5,87.3 L774.5,87.0 L448.2,87.0 Z" fill="url(#g197)" clip-path="url(#c199)"/>
  <defs><clipPath id="pc200"><rect x="445" y="12" width="330" height="150"/></clipPath></defs>
  <polyline points="448.2,86.8 478.3,86.5 495.9,86.3 508.4,86.1 518.1,85.9 526.0,85.6 532.7,85.4 538.5,85.2 543.6,85.0 548.2,84.7 552.3,84.5 556.1,84.3 559.6,84.1 562.8,83.9 565.8,83.7 568.6,83.5 571.2,83.3 573.7,83.1 576.0,82.9 578.3,82.7 580.4,82.5 582.4,82.3 584.3,82.1 586.2,82.0 588.0,81.8 589.7,81.6 591.3,81.5 592.9,81.3 594.4,81.2 595.9,81.0 597.3,80.9 598.7,80.8 600.0,80.7 601.3,80.5 602.6,80.4 603.8,80.3 605.0,80.2 606.1,80.2 607.3,80.1 608.4,80.0 609.4,79.9 610.5,79.9 611.5,79.8 612.5,79.8 613.5,79.8 614.4,79.7 615.4,79.7 616.3,79.7 617.2,79.7 618.1,79.7 618.9,79.8 619.8,79.8 620.6,79.8 621.4,79.9 623.0,80.0 624.5,80.2 626.0,80.4 627.4,80.6 628.8,80.8 630.1,81.1 631.4,81.5 632.7,81.8 633.9,82.2 635.1,82.6 636.2,83.0 637.4,83.5 638.5,83.9 639.5,84.4 640.6,84.9 641.6,85.4 642.6,85.8 643.6,86.3 644.5,86.8 645.5,87.3 646.4,87.7 647.3,88.1 648.1,88.6 649.0,89.0 649.8,89.4 650.7,89.7 651.5,90.1 652.7,90.6 653.8,91.0 655.0,91.4 656.1,91.8 657.1,92.2 658.2,92.5 659.2,92.7 660.2,93.0 661.2,93.2 662.1,93.4 663.1,93.5 664.0,93.7 664.9,93.8 665.7,93.9 666.6,94.0 667.5,94.1 668.3,94.1 669.1,94.2 670.1,94.2 671.2,94.3 672.2,94.3 673.2,94.3 674.1,94.3 675.1,94.3 676.0,94.2 676.9,94.2 677.8,94.2 678.7,94.1 679.5,94.1 680.4,94.1 681.2,94.0 682.0,94.0 683.0,93.9 683.9,93.8 684.9,93.7 685.8,93.7 686.7,93.6 687.6,93.5 688.4,93.4 689.3,93.4 690.1,93.3 690.9,93.2 691.7,93.1 692.7,93.0 693.6,92.9 694.5,92.9 695.4,92.8 696.3,92.7 697.1,92.6 698.0,92.5 698.8,92.4 699.6,92.4 700.5,92.3 701.4,92.2 702.3,92.1 703.2,92.0 704.0,91.9 704.8,91.8 705.6,91.8 706.4,91.7 707.3,91.6 708.2,91.5 709.1,91.4 709.9,91.3 710.8,91.3 711.6,91.2 712.5,91.1 713.3,91.0 714.2,91.0 715.1,90.9 715.9,90.8 716.7,90.7 717.6,90.7 718.5,90.6 719.3,90.5 720.1,90.5 721.0,90.4 721.8,90.3 722.6,90.3 723.5,90.2 724.3,90.1 725.1,90.1 725.9,90.0 726.8,89.9 727.6,89.9 728.5,89.8 729.3,89.8 730.1,89.7 731.0,89.6 731.8,89.6 732.6,89.5 733.5,89.5 734.3,89.4 735.2,89.3 736.0,89.3 736.8,89.2 737.7,89.2 738.5,89.1 739.3,89.1 740.1,89.0 741.0,89.0 741.8,88.9 742.6,88.9 743.4,88.8 744.3,88.8 745.1,88.7 745.9,88.7 746.7,88.6 747.6,88.6 748.4,88.6 749.2,88.5 750.1,88.5 750.9,88.4 751.7,88.4 752.5,88.3 753.3,88.3 754.1,88.3 755.0,88.2 755.8,88.2 756.6,88.1 757.4,88.1 758.3,88.0 759.1,88.0 759.9,88.0 760.7,87.9 761.5,87.9 762.3,87.8 763.1,87.8 763.9,87.8 764.8,87.7 765.6,87.7 766.4,87.7 767.2,87.6 768.0,87.6 768.8,87.5 769.6,87.5 770.4,87.5 771.3,87.4 772.1,87.4 772.9,87.3 773.7,87.3 774.5,87.3" fill="none" stroke="#e74c3c" stroke-width="1.5" stroke-linejoin="round" clip-path="url(#pc200)"/>
  <line x1="55" y1="210" x2="55" y2="360" stroke="#d1d5db"/>
  <line x1="55" y1="285.0" x2="385" y2="285.0" stroke="#d1d5db"/>
  <text x="220" y="388" text-anchor="middle" font-size="9" fill="#6b7280">Hz</text>
  <text x="29" y="285" text-anchor="middle" font-size="9" fill="#6b7280" transform="rotate(-90 29 285)">Group delay</text>
  <line x1="85.1" y1="210" x2="85.1" y2="360" stroke="#e5e7eb" stroke-width="0.5"/>
  <line x1="102.7" y1="210" x2="102.7" y2="360" stroke="#e5e7eb" stroke-width="0.5"/>
  <line x1="115.2" y1="210" x2="115.2" y2="360" stroke="#e5e7eb" stroke-width="0.5"/>
  <line x1="124.9" y1="210" x2="124.9" y2="360" stroke="#e5e7eb" stroke-width="0.5"/>
  <line x1="132.8" y1="210" x2="132.8" y2="360" stroke="#e5e7eb" stroke-width="0.5"/>
  <line x1="139.5" y1="210" x2="139.5" y2="360" stroke="#e5e7eb" stroke-width="0.5"/>
  <line x1="145.3" y1="210" x2="145.3" y2="360" stroke="#e5e7eb" stroke-width="0.5"/>
  <line x1="150.4" y1="210" x2="150.4" y2="360" stroke="#e5e7eb" stroke-width="0.5"/>
  <line x1="185.1" y1="210" x2="185.1" y2="360" stroke="#e5e7eb" stroke-width="0.5"/>
  <line x1="202.7" y1="210" x2="202.7" y2="360" stroke="#e5e7eb" stroke-width="0.5"/>
  <line x1="215.2" y1="210" x2="215.2" y2="360" stroke="#e5e7eb" stroke-width="0.5"/>
  <line x1="224.8" y1="210" x2="224.8" y2="360" stroke="#e5e7eb" stroke-width="0.5"/>
  <line x1="232.8" y1="210" x2="232.8" y2="360" stroke="#e5e7eb" stroke-width="0.5"/>
  <line x1="239.5" y1="210" x2="239.5" y2="360" stroke="#e5e7eb" stroke-width="0.5"/>
  <line x1="245.2" y1="210" x2="245.2" y2="360" stroke="#e5e7eb" stroke-width="0.5"/>
  <line x1="250.4" y1="210" x2="250.4" y2="360" stroke="#e5e7eb" stroke-width="0.5"/>
  <line x1="285.0" y1="210" x2="285.0" y2="360" stroke="#e5e7eb" stroke-width="0.5"/>
  <line x1="302.6" y1="210" x2="302.6" y2="360" stroke="#e5e7eb" stroke-width="0.5"/>
  <line x1="315.1" y1="210" x2="315.1" y2="360" stroke="#e5e7eb" stroke-width="0.5"/>
  <line x1="324.8" y1="210" x2="324.8" y2="360" stroke="#e5e7eb" stroke-width="0.5"/>
  <line x1="332.7" y1="210" x2="332.7" y2="360" stroke="#e5e7eb" stroke-width="0.5"/>
  <line x1="339.4" y1="210" x2="339.4" y2="360" stroke="#e5e7eb" stroke-width="0.5"/>
  <line x1="345.2" y1="210" x2="345.2" y2="360" stroke="#e5e7eb" stroke-width="0.5"/>
  <line x1="350.3" y1="210" x2="350.3" y2="360" stroke="#e5e7eb" stroke-width="0.5"/>
  <line x1="385.0" y1="210" x2="385.0" y2="360" stroke="#e5e7eb" stroke-width="0.5"/>
  <line x1="155.0" y1="210" x2="155.0" y2="360" stroke="#e5e7eb" stroke-width="0.5"/>
  <text x="155.0" y="372" text-anchor="middle" font-size="8" fill="#6b7280">100</text>
  <line x1="254.9" y1="210" x2="254.9" y2="360" stroke="#e5e7eb" stroke-width="0.5"/>
  <text x="254.9" y="372" text-anchor="middle" font-size="8" fill="#6b7280">1k</text>
  <line x1="354.9" y1="210" x2="354.9" y2="360" stroke="#e5e7eb" stroke-width="0.5"/>
  <text x="354.9" y="372" text-anchor="middle" font-size="8" fill="#6b7280">10k</text>
  <line x1="55" y1="329.2" x2="385" y2="329.2" stroke="#e5e7eb" stroke-width="0.5"/>
  <text x="51" y="332.2" text-anchor="end" font-size="8" fill="#6b7280">-6</text>
  <text x="51" y="288.0" text-anchor="end" font-size="8" fill="#6b7280">0</text>
  <line x1="55" y1="240.8" x2="385" y2="240.8" stroke="#e5e7eb" stroke-width="0.5"/>
  <text x="51" y="243.8" text-anchor="end" font-size="8" fill="#6b7280">6</text>
  <defs><linearGradient id="g201" x1="0" y1="210" x2="0" y2="285.0" gradientUnits="userSpaceOnUse">
    <stop offset="0%" stop-color="#2ecc71" stop-opacity="0.15"/>
    <stop offset="100%" stop-color="#2ecc71" stop-opacity="0.02"/>
  </linearGradient></defs>
  <defs><linearGradient id="g202" x1="0" y1="360" x2="0" y2="285.0" gradientUnits="userSpaceOnUse">
    <stop offset="0%" stop-color="#2ecc71" stop-opacity="0.15"/>
    <stop offset="100%" stop-color="#2ecc71" stop-opacity="0.02"/>
  </linearGradient></defs>
  <defs><clipPath id="c203"><rect x="55" y="210" width="330" height="75.0"/></clipPath></defs>
  <defs><clipPath id="c204"><rect x="55" y="285.0" width="330" height="75.0"/></clipPath></defs>
  <path d="M58.2,283.3 58.2,283.3 88.3,281.7 105.9,280.0 118.4,278.4 128.1,276.7 136.0,275.1 142.7,273.5 148.5,271.8 153.6,270.2 158.2,268.6 162.3,267.0 166.1,265.4 169.6,263.9 172.8,262.3 175.8,260.8 178.6,259.3 181.2,257.7 183.7,256.3 186.0,254.8 188.3,253.4 190.4,251.9 192.4,250.6 194.3,249.2 196.2,247.8 198.0,246.5 199.7,245.2 201.3,244.0 202.9,242.8 204.4,241.6 205.9,240.4 207.3,239.3 208.7,238.2 210.0,237.2 211.3,236.2 212.6,235.3 213.8,234.4 215.0,233.5 216.1,232.7 217.3,231.9 218.4,231.2 219.4,230.5 220.5,229.9 221.5,229.4 222.5,228.9 223.5,228.5 224.4,228.1 225.4,227.8 226.3,227.6 227.2,227.4 228.1,227.3 228.9,227.3 229.8,227.4 230.6,227.5 231.4,227.7 233.0,228.4 234.5,229.4 236.0,230.7 237.4,232.4 238.8,234.4 240.1,236.7 241.4,239.4 242.7,242.4 243.9,245.6 245.1,249.1 246.2,252.7 247.4,256.6 248.5,260.5 249.5,264.5 250.6,268.5 251.6,272.4 252.6,276.3 253.6,280.0 254.5,283.5 255.5,286.8 256.4,289.9 257.3,292.8 258.1,295.4 259.0,297.8 259.8,299.9 260.7,301.7 261.5,303.4 262.7,305.4 263.8,306.9 265.0,308.0 266.1,308.8 267.1,309.3 268.2,309.5 269.2,309.6 270.2,309.4 271.2,309.1 272.1,308.8 273.1,308.3 274.0,307.8 274.9,307.2 275.7,306.6 276.6,306.0 277.5,305.3 278.3,304.7 279.1,304.0 280.1,303.2 281.2,302.4 282.2,301.6 283.2,300.8 284.1,300.0 285.1,299.3 286.0,298.7 286.9,298.0 287.8,297.4 288.7,296.8 289.5,296.3 290.4,295.8 291.2,295.3 292.0,294.8 293.0,294.2 293.9,293.7 294.9,293.3 295.8,292.8 296.7,292.4 297.6,292.0 298.4,291.6 299.3,291.3 300.1,291.0 300.9,290.7 301.7,290.4 302.7,290.1 303.6,289.8 304.5,289.5 305.4,289.3 306.3,289.1 307.1,288.8 308.0,288.6 308.8,288.5 309.6,288.3 310.5,288.1 311.4,287.9 312.3,287.7 313.2,287.6 314.0,287.5 314.8,287.3 315.6,287.2 316.4,287.1 317.3,287.0 318.2,286.9 319.1,286.8 319.9,286.7 320.8,286.6 321.6,286.5 322.5,286.4 323.3,286.3 324.2,286.2 325.1,286.2 325.9,286.1 326.7,286.1 327.6,286.0 328.5,285.9 329.3,285.9 330.1,285.8 331.0,285.8 331.8,285.7 332.6,285.7 333.5,285.7 334.3,285.6 335.1,285.6 335.9,285.6 336.8,285.5 337.6,285.5 338.5,285.5 339.3,285.4 340.1,285.4 341.0,285.4 341.8,285.4 342.6,285.4 343.5,285.3 344.3,285.3 345.2,285.3 346.0,285.3 346.8,285.3 347.7,285.3 348.5,285.2 349.3,285.2 350.1,285.2 351.0,285.2 351.8,285.2 352.6,285.2 353.4,285.2 354.3,285.2 355.1,285.1 355.9,285.1 356.7,285.1 357.6,285.1 358.4,285.1 359.2,285.1 360.1,285.1 360.9,285.1 361.7,285.1 362.5,285.1 363.3,285.1 364.1,285.1 365.0,285.1 365.8,285.1 366.6,285.1 367.4,285.1 368.3,285.1 369.1,285.1 369.9,285.0 370.7,285.0 371.5,285.0 372.3,285.0 373.1,285.0 373.9,285.0 374.8,285.0 375.6,285.0 376.4,285.0 377.2,285.0 378.0,285.0 378.8,285.0 379.6,285.0 380.4,285.0 381.3,285.0 382.1,285.0 382.9,285.0 383.7,285.0 384.5,285.0 L384.5,285.0 L58.2,285.0 Z" fill="url(#g201)" clip-path="url(#c203)"/>
  <path d="M58.2,283.3 58.2,283.3 88.3,281.7 105.9,280.0 118.4,278.4 128.1,276.7 136.0,275.1 142.7,273.5 148.5,271.8 153.6,270.2 158.2,268.6 162.3,267.0 166.1,265.4 169.6,263.9 172.8,262.3 175.8,260.8 178.6,259.3 181.2,257.7 183.7,256.3 186.0,254.8 188.3,253.4 190.4,251.9 192.4,250.6 194.3,249.2 196.2,247.8 198.0,246.5 199.7,245.2 201.3,244.0 202.9,242.8 204.4,241.6 205.9,240.4 207.3,239.3 208.7,238.2 210.0,237.2 211.3,236.2 212.6,235.3 213.8,234.4 215.0,233.5 216.1,232.7 217.3,231.9 218.4,231.2 219.4,230.5 220.5,229.9 221.5,229.4 222.5,228.9 223.5,228.5 224.4,228.1 225.4,227.8 226.3,227.6 227.2,227.4 228.1,227.3 228.9,227.3 229.8,227.4 230.6,227.5 231.4,227.7 233.0,228.4 234.5,229.4 236.0,230.7 237.4,232.4 238.8,234.4 240.1,236.7 241.4,239.4 242.7,242.4 243.9,245.6 245.1,249.1 246.2,252.7 247.4,256.6 248.5,260.5 249.5,264.5 250.6,268.5 251.6,272.4 252.6,276.3 253.6,280.0 254.5,283.5 255.5,286.8 256.4,289.9 257.3,292.8 258.1,295.4 259.0,297.8 259.8,299.9 260.7,301.7 261.5,303.4 262.7,305.4 263.8,306.9 265.0,308.0 266.1,308.8 267.1,309.3 268.2,309.5 269.2,309.6 270.2,309.4 271.2,309.1 272.1,308.8 273.1,308.3 274.0,307.8 274.9,307.2 275.7,306.6 276.6,306.0 277.5,305.3 278.3,304.7 279.1,304.0 280.1,303.2 281.2,302.4 282.2,301.6 283.2,300.8 284.1,300.0 285.1,299.3 286.0,298.7 286.9,298.0 287.8,297.4 288.7,296.8 289.5,296.3 290.4,295.8 291.2,295.3 292.0,294.8 293.0,294.2 293.9,293.7 294.9,293.3 295.8,292.8 296.7,292.4 297.6,292.0 298.4,291.6 299.3,291.3 300.1,291.0 300.9,290.7 301.7,290.4 302.7,290.1 303.6,289.8 304.5,289.5 305.4,289.3 306.3,289.1 307.1,288.8 308.0,288.6 308.8,288.5 309.6,288.3 310.5,288.1 311.4,287.9 312.3,287.7 313.2,287.6 314.0,287.5 314.8,287.3 315.6,287.2 316.4,287.1 317.3,287.0 318.2,286.9 319.1,286.8 319.9,286.7 320.8,286.6 321.6,286.5 322.5,286.4 323.3,286.3 324.2,286.2 325.1,286.2 325.9,286.1 326.7,286.1 327.6,286.0 328.5,285.9 329.3,285.9 330.1,285.8 331.0,285.8 331.8,285.7 332.6,285.7 333.5,285.7 334.3,285.6 335.1,285.6 335.9,285.6 336.8,285.5 337.6,285.5 338.5,285.5 339.3,285.4 340.1,285.4 341.0,285.4 341.8,285.4 342.6,285.4 343.5,285.3 344.3,285.3 345.2,285.3 346.0,285.3 346.8,285.3 347.7,285.3 348.5,285.2 349.3,285.2 350.1,285.2 351.0,285.2 351.8,285.2 352.6,285.2 353.4,285.2 354.3,285.2 355.1,285.1 355.9,285.1 356.7,285.1 357.6,285.1 358.4,285.1 359.2,285.1 360.1,285.1 360.9,285.1 361.7,285.1 362.5,285.1 363.3,285.1 364.1,285.1 365.0,285.1 365.8,285.1 366.6,285.1 367.4,285.1 368.3,285.1 369.1,285.1 369.9,285.0 370.7,285.0 371.5,285.0 372.3,285.0 373.1,285.0 373.9,285.0 374.8,285.0 375.6,285.0 376.4,285.0 377.2,285.0 378.0,285.0 378.8,285.0 379.6,285.0 380.4,285.0 381.3,285.0 382.1,285.0 382.9,285.0 383.7,285.0 384.5,285.0 L384.5,285.0 L58.2,285.0 Z" fill="url(#g202)" clip-path="url(#c204)"/>
  <defs><clipPath id="pc205"><rect x="55" y="210" width="330" height="150"/></clipPath></defs>
  <polyline points="58.2,283.3 88.3,281.7 105.9,280.0 118.4,278.4 128.1,276.7 136.0,275.1 142.7,273.5 148.5,271.8 153.6,270.2 158.2,268.6 162.3,267.0 166.1,265.4 169.6,263.9 172.8,262.3 175.8,260.8 178.6,259.3 181.2,257.7 183.7,256.3 186.0,254.8 188.3,253.4 190.4,251.9 192.4,250.6 194.3,249.2 196.2,247.8 198.0,246.5 199.7,245.2 201.3,244.0 202.9,242.8 204.4,241.6 205.9,240.4 207.3,239.3 208.7,238.2 210.0,237.2 211.3,236.2 212.6,235.3 213.8,234.4 215.0,233.5 216.1,232.7 217.3,231.9 218.4,231.2 219.4,230.5 220.5,229.9 221.5,229.4 222.5,228.9 223.5,228.5 224.4,228.1 225.4,227.8 226.3,227.6 227.2,227.4 228.1,227.3 228.9,227.3 229.8,227.4 230.6,227.5 231.4,227.7 233.0,228.4 234.5,229.4 236.0,230.7 237.4,232.4 238.8,234.4 240.1,236.7 241.4,239.4 242.7,242.4 243.9,245.6 245.1,249.1 246.2,252.7 247.4,256.6 248.5,260.5 249.5,264.5 250.6,268.5 251.6,272.4 252.6,276.3 253.6,280.0 254.5,283.5 255.5,286.8 256.4,289.9 257.3,292.8 258.1,295.4 259.0,297.8 259.8,299.9 260.7,301.7 261.5,303.4 262.7,305.4 263.8,306.9 265.0,308.0 266.1,308.8 267.1,309.3 268.2,309.5 269.2,309.6 270.2,309.4 271.2,309.1 272.1,308.8 273.1,308.3 274.0,307.8 274.9,307.2 275.7,306.6 276.6,306.0 277.5,305.3 278.3,304.7 279.1,304.0 280.1,303.2 281.2,302.4 282.2,301.6 283.2,300.8 284.1,300.0 285.1,299.3 286.0,298.7 286.9,298.0 287.8,297.4 288.7,296.8 289.5,296.3 290.4,295.8 291.2,295.3 292.0,294.8 293.0,294.2 293.9,293.7 294.9,293.3 295.8,292.8 296.7,292.4 297.6,292.0 298.4,291.6 299.3,291.3 300.1,291.0 300.9,290.7 301.7,290.4 302.7,290.1 303.6,289.8 304.5,289.5 305.4,289.3 306.3,289.1 307.1,288.8 308.0,288.6 308.8,288.5 309.6,288.3 310.5,288.1 311.4,287.9 312.3,287.7 313.2,287.6 314.0,287.5 314.8,287.3 315.6,287.2 316.4,287.1 317.3,287.0 318.2,286.9 319.1,286.8 319.9,286.7 320.8,286.6 321.6,286.5 322.5,286.4 323.3,286.3 324.2,286.2 325.1,286.2 325.9,286.1 326.7,286.1 327.6,286.0 328.5,285.9 329.3,285.9 330.1,285.8 331.0,285.8 331.8,285.7 332.6,285.7 333.5,285.7 334.3,285.6 335.1,285.6 335.9,285.6 336.8,285.5 337.6,285.5 338.5,285.5 339.3,285.4 340.1,285.4 341.0,285.4 341.8,285.4 342.6,285.4 343.5,285.3 344.3,285.3 345.2,285.3 346.0,285.3 346.8,285.3 347.7,285.3 348.5,285.2 349.3,285.2 350.1,285.2 351.0,285.2 351.8,285.2 352.6,285.2 353.4,285.2 354.3,285.2 355.1,285.1 355.9,285.1 356.7,285.1 357.6,285.1 358.4,285.1 359.2,285.1 360.1,285.1 360.9,285.1 361.7,285.1 362.5,285.1 363.3,285.1 364.1,285.1 365.0,285.1 365.8,285.1 366.6,285.1 367.4,285.1 368.3,285.1 369.1,285.1 369.9,285.0 370.7,285.0 371.5,285.0 372.3,285.0 373.1,285.0 373.9,285.0 374.8,285.0 375.6,285.0 376.4,285.0 377.2,285.0 378.0,285.0 378.8,285.0 379.6,285.0 380.4,285.0 381.3,285.0 382.1,285.0 382.9,285.0 383.7,285.0 384.5,285.0" fill="none" stroke="#2ecc71" stroke-width="1.5" stroke-linejoin="round" clip-path="url(#pc205)"/>
  <line x1="445" y1="210" x2="445" y2="360" stroke="#d1d5db"/>
  <line x1="445" y1="285.0" x2="775" y2="285.0" stroke="#d1d5db"/>
  <text x="610" y="388" text-anchor="middle" font-size="9" fill="#6b7280">Samples</text>
  <text x="419" y="285" text-anchor="middle" font-size="9" fill="#6b7280" transform="rotate(-90 419 285)">Impulse response</text>
  <line x1="445.0" y1="210" x2="445.0" y2="360" stroke="#e5e7eb" stroke-width="0.5"/>
  <text x="445.0" y="372" text-anchor="middle" font-size="8" fill="#6b7280">0</text>
  <line x1="527.5" y1="210" x2="527.5" y2="360" stroke="#e5e7eb" stroke-width="0.5"/>
  <text x="527.5" y="372" text-anchor="middle" font-size="8" fill="#6b7280">32</text>
  <line x1="610.0" y1="210" x2="610.0" y2="360" stroke="#e5e7eb" stroke-width="0.5"/>
  <text x="610.0" y="372" text-anchor="middle" font-size="8" fill="#6b7280">64</text>
  <line x1="692.5" y1="210" x2="692.5" y2="360" stroke="#e5e7eb" stroke-width="0.5"/>
  <text x="692.5" y="372" text-anchor="middle" font-size="8" fill="#6b7280">96</text>
  <line x1="775.0" y1="210" x2="775.0" y2="360" stroke="#e5e7eb" stroke-width="0.5"/>
  <text x="775.0" y="372" text-anchor="middle" font-size="8" fill="#6b7280">128</text>
  <line x1="445" y1="341.3" x2="775" y2="341.3" stroke="#e5e7eb" stroke-width="0.5"/>
  <text x="441" y="344.3" text-anchor="end" font-size="8" fill="#6b7280">-0.8</text>
  <text x="441" y="288.0" text-anchor="end" font-size="8" fill="#6b7280">0</text>
  <line x1="445" y1="228.7" x2="775" y2="228.7" stroke="#e5e7eb" stroke-width="0.5"/>
  <text x="441" y="231.7" text-anchor="end" font-size="8" fill="#6b7280">0.8</text>
  <defs><linearGradient id="g206" x1="0" y1="210" x2="0" y2="285.0" gradientUnits="userSpaceOnUse">
    <stop offset="0%" stop-color="#f39c12" stop-opacity="0.15"/>
    <stop offset="100%" stop-color="#f39c12" stop-opacity="0.02"/>
  </linearGradient></defs>
  <defs><linearGradient id="g207" x1="0" y1="360" x2="0" y2="285.0" gradientUnits="userSpaceOnUse">
    <stop offset="0%" stop-color="#f39c12" stop-opacity="0.15"/>
    <stop offset="100%" stop-color="#f39c12" stop-opacity="0.02"/>
  </linearGradient></defs>
  <defs><clipPath id="c208"><rect x="445" y="210" width="330" height="75.0"/></clipPath></defs>
  <defs><clipPath id="c209"><rect x="445" y="285.0" width="330" height="75.0"/></clipPath></defs>
  <path d="M445.0,210.0 445.0,210.0 447.6,276.4 450.2,277.8 452.7,279.1 455.3,280.4 457.9,281.6 460.5,282.7 463.0,283.7 465.6,284.6 468.2,285.4 470.8,286.0 473.4,286.6 475.9,287.1 478.5,287.4 481.1,287.7 483.7,287.8 486.3,287.9 488.8,288.0 491.4,288.0 494.0,287.9 496.6,287.7 499.1,287.6 501.7,287.4 504.3,287.2 506.9,287.0 509.5,286.7 512.0,286.5 514.6,286.3 517.2,286.1 519.8,285.8 522.3,285.6 524.9,285.4 527.5,285.3 530.1,285.1 532.7,285.0 535.2,284.9 537.8,284.8 540.4,284.7 543.0,284.6 545.5,284.6 548.1,284.5 550.7,284.5 553.3,284.5 555.9,284.5 558.4,284.5 561.0,284.5 563.6,284.6 566.2,284.6 568.8,284.6 571.3,284.7 573.9,284.7 576.5,284.7 579.1,284.8 581.6,284.8 584.2,284.8 586.8,284.9 589.4,284.9 592.0,284.9 594.5,285.0 597.1,285.0 599.7,285.0 602.3,285.0 604.8,285.0 607.4,285.1 610.0,285.1 612.6,285.1 615.2,285.1 617.7,285.1 620.3,285.1 622.9,285.1 625.5,285.1 628.0,285.1 630.6,285.1 633.2,285.1 635.8,285.1 638.4,285.1 640.9,285.0 643.5,285.0 646.1,285.0 648.7,285.0 651.3,285.0 653.8,285.0 656.4,285.0 659.0,285.0 661.6,285.0 664.1,285.0 666.7,285.0 669.3,285.0 671.9,285.0 674.5,285.0 677.0,285.0 679.6,285.0 682.2,285.0 684.8,285.0 687.3,285.0 689.9,285.0 692.5,285.0 695.1,285.0 697.7,285.0 700.2,285.0 702.8,285.0 705.4,285.0 708.0,285.0 710.5,285.0 713.1,285.0 715.7,285.0 718.3,285.0 720.9,285.0 723.4,285.0 726.0,285.0 728.6,285.0 731.2,285.0 733.8,285.0 736.3,285.0 738.9,285.0 741.5,285.0 744.1,285.0 746.6,285.0 749.2,285.0 751.8,285.0 754.4,285.0 757.0,285.0 759.5,285.0 762.1,285.0 764.7,285.0 767.3,285.0 769.8,285.0 772.4,285.0 L772.4,285.0 L445.0,285.0 Z" fill="url(#g206)" clip-path="url(#c208)"/>
  <path d="M445.0,210.0 445.0,210.0 447.6,276.4 450.2,277.8 452.7,279.1 455.3,280.4 457.9,281.6 460.5,282.7 463.0,283.7 465.6,284.6 468.2,285.4 470.8,286.0 473.4,286.6 475.9,287.1 478.5,287.4 481.1,287.7 483.7,287.8 486.3,287.9 488.8,288.0 491.4,288.0 494.0,287.9 496.6,287.7 499.1,287.6 501.7,287.4 504.3,287.2 506.9,287.0 509.5,286.7 512.0,286.5 514.6,286.3 517.2,286.1 519.8,285.8 522.3,285.6 524.9,285.4 527.5,285.3 530.1,285.1 532.7,285.0 535.2,284.9 537.8,284.8 540.4,284.7 543.0,284.6 545.5,284.6 548.1,284.5 550.7,284.5 553.3,284.5 555.9,284.5 558.4,284.5 561.0,284.5 563.6,284.6 566.2,284.6 568.8,284.6 571.3,284.7 573.9,284.7 576.5,284.7 579.1,284.8 581.6,284.8 584.2,284.8 586.8,284.9 589.4,284.9 592.0,284.9 594.5,285.0 597.1,285.0 599.7,285.0 602.3,285.0 604.8,285.0 607.4,285.1 610.0,285.1 612.6,285.1 615.2,285.1 617.7,285.1 620.3,285.1 622.9,285.1 625.5,285.1 628.0,285.1 630.6,285.1 633.2,285.1 635.8,285.1 638.4,285.1 640.9,285.0 643.5,285.0 646.1,285.0 648.7,285.0 651.3,285.0 653.8,285.0 656.4,285.0 659.0,285.0 661.6,285.0 664.1,285.0 666.7,285.0 669.3,285.0 671.9,285.0 674.5,285.0 677.0,285.0 679.6,285.0 682.2,285.0 684.8,285.0 687.3,285.0 689.9,285.0 692.5,285.0 695.1,285.0 697.7,285.0 700.2,285.0 702.8,285.0 705.4,285.0 708.0,285.0 710.5,285.0 713.1,285.0 715.7,285.0 718.3,285.0 720.9,285.0 723.4,285.0 726.0,285.0 728.6,285.0 731.2,285.0 733.8,285.0 736.3,285.0 738.9,285.0 741.5,285.0 744.1,285.0 746.6,285.0 749.2,285.0 751.8,285.0 754.4,285.0 757.0,285.0 759.5,285.0 762.1,285.0 764.7,285.0 767.3,285.0 769.8,285.0 772.4,285.0 L772.4,285.0 L445.0,285.0 Z" fill="url(#g207)" clip-path="url(#c209)"/>
  <defs><clipPath id="pc210"><rect x="445" y="210" width="330" height="150"/></clipPath></defs>
  <polyline points="445.0,210.0 447.6,276.4 450.2,277.8 452.7,279.1 455.3,280.4 457.9,281.6 460.5,282.7 463.0,283.7 465.6,284.6 468.2,285.4 470.8,286.0 473.4,286.6 475.9,287.1 478.5,287.4 481.1,287.7 483.7,287.8 486.3,287.9 488.8,288.0 491.4,288.0 494.0,287.9 496.6,287.7 499.1,287.6 501.7,287.4 504.3,287.2 506.9,287.0 509.5,286.7 512.0,286.5 514.6,286.3 517.2,286.1 519.8,285.8 522.3,285.6 524.9,285.4 527.5,285.3 530.1,285.1 532.7,285.0 535.2,284.9 537.8,284.8 540.4,284.7 543.0,284.6 545.5,284.6 548.1,284.5 550.7,284.5 553.3,284.5 555.9,284.5 558.4,284.5 561.0,284.5 563.6,284.6 566.2,284.6 568.8,284.6 571.3,284.7 573.9,284.7 576.5,284.7 579.1,284.8 581.6,284.8 584.2,284.8 586.8,284.9 589.4,284.9 592.0,284.9 594.5,285.0 597.1,285.0 599.7,285.0 602.3,285.0 604.8,285.0 607.4,285.1 610.0,285.1 612.6,285.1 615.2,285.1 617.7,285.1 620.3,285.1 622.9,285.1 625.5,285.1 628.0,285.1 630.6,285.1 633.2,285.1 635.8,285.1 638.4,285.1 640.9,285.0 643.5,285.0 646.1,285.0 648.7,285.0 651.3,285.0 653.8,285.0 656.4,285.0 659.0,285.0 661.6,285.0 664.1,285.0 666.7,285.0 669.3,285.0 671.9,285.0 674.5,285.0 677.0,285.0 679.6,285.0 682.2,285.0 684.8,285.0 687.3,285.0 689.9,285.0 692.5,285.0 695.1,285.0 697.7,285.0 700.2,285.0 702.8,285.0 705.4,285.0 708.0,285.0 710.5,285.0 713.1,285.0 715.7,285.0 718.3,285.0 720.9,285.0 723.4,285.0 726.0,285.0 728.6,285.0 731.2,285.0 733.8,285.0 736.3,285.0 738.9,285.0 741.5,285.0 744.1,285.0 746.6,285.0 749.2,285.0 751.8,285.0 754.4,285.0 757.0,285.0 759.5,285.0 762.1,285.0 764.7,285.0 767.3,285.0 769.8,285.0 772.4,285.0" fill="none" stroke="#f39c12" stroke-width="1.3" stroke-linejoin="round" clip-path="url(#pc210)"/>
</svg>
