<svg xmlns="http://www.w3.org/2000/svg" viewBox="0 0 800 420" style="font-family:system-ui,-apple-system,sans-serif">
  <text x="55" y="416" font-size="11" font-weight="600" fill="#6b7280">Biquad lowpass, fc=1kHz</text>
  <line x1="55" y1="12" x2="55" y2="162" stroke="#d1d5db"/>
  <line x1="55" y1="42.0" x2="385" y2="42.0" stroke="#d1d5db"/>
  <text x="220" y="190" text-anchor="middle" font-size="9" fill="#6b7280">Hz</text>
  <text x="29" y="87" text-anchor="middle" font-size="9" fill="#6b7280" transform="rotate(-90 29 87)">dB</text>
  <line x1="85.1" y1="12" x2="85.1" y2="162" stroke="#e5e7eb" stroke-width="0.5"/>
  <line x1="102.7" y1="12" x2="102.7" y2="162" stroke="#e5e7eb" stroke-width="0.5"/>
  <line x1="115.2" y1="12" x2="115.2" y2="162" stroke="#e5e7eb" stroke-width="0.5"/>
  <line x1="124.9" y1="12" x2="124.9" y2="162" stroke="#e5e7eb" stroke-width="0.5"/>
  <line x1="132.8" y1="12" x2="132.8" y2="162" stroke="#e5e7eb" stroke-width="0.5"/>
  <line x1="139.5" y1="12" x2="139.5" y2="162" stroke="#e5e7eb" stroke-width="0.5"/>
  <line x1="145.3" y1="12" x2="145.3" y2="162" stroke="#e5e7eb" stroke-width="0.5"/>
  <line x1="150.4" y1="12" x2="150.4" y2="162" stroke="#e5e7eb" stroke-width="0.5"/>
  <line x1="185.1" y1="12" x2="185.1" y2="162" stroke="#e5e7eb" stroke-width="0.5"/>
  <line x1="202.7" y1="12" x2="202.7" y2="162" stroke="#e5e7eb" stroke-width="0.5"/>
  <line x1="215.2" y1="12" x2="215.2" y2="162" stroke="#e5e7eb" stroke-width="0.5"/>
  <line x1="224.8" y1="12" x2="224.8" y2="162" stroke="#e5e7eb" stroke-width="0.5"/>
  <line x1="232.8" y1="12" x2="232.8" y2="162" stroke="#e5e7eb" stroke-width="0.5"/>
  <line x1="239.5" y1="12" x2="239.5" y2="162" stroke="#e5e7eb" stroke-width="0.5"/>
  <line x1="245.2" y1="12" x2="245.2" y2="162" stroke="#e5e7eb" stroke-width="0.5"/>
  <line x1="250.4" y1="12" x2="250.4" y2="162" stroke="#e5e7eb" stroke-width="0.5"/>
  <line x1="285.0" y1="12" x2="285.0" y2="162" stroke="#e5e7eb" stroke-width="0.5"/>
  <line x1="302.6" y1="12" x2="302.6" y2="162" stroke="#e5e7eb" stroke-width="0.5"/>
  <line x1="315.1" y1="12" x2="315.1" y2="162" stroke="#e5e7eb" stroke-width="0.5"/>
  <line x1="324.8" y1="12" x2="324.8" y2="162" stroke="#e5e7eb" stroke-width="0.5"/>
  <line x1="332.7" y1="12" x2="332.7" y2="162" stroke="#e5e7eb" stroke-width="0.5"/>
  <line x1="339.4" y1="12" x2="339.4" y2="162" stroke="#e5e7eb" stroke-width="0.5"/>
  <line x1="345.2" y1="12" x2="345.2" y2="162" stroke="#e5e7eb" stroke-width="0.5"/>
  <line x1="350.3" y1="12" x2="350.3" y2="162" stroke="#e5e7eb" stroke-width="0.5"/>
  <line x1="385.0" y1="12" x2="385.0" y2="162" stroke="#e5e7eb" stroke-width="0.5"/>
  <line x1="155.0" y1="12" x2="155.0" y2="162" stroke="#e5e7eb" stroke-width="0.5"/>
  <text x="155.0" y="174" text-anchor="middle" font-size="8" fill="#6b7280">100</text>
  <line x1="254.9" y1="12" x2="254.9" y2="162" stroke="#e5e7eb" stroke-width="0.5"/>
  <text x="254.9" y="174" text-anchor="middle" font-size="8" fill="#6b7280">1k</text>
  <line x1="354.9" y1="12" x2="354.9" y2="162" stroke="#e5e7eb" stroke-width="0.5"/>
  <text x="354.9" y="174" text-anchor="middle" font-size="8" fill="#6b7280">10k</text>
  <line x1="55" y1="27.0" x2="385" y2="27.0" stroke="#e5e7eb" stroke-width="0.5"/>
  <line x1="55" y1="57.0" x2="385" y2="57.0" stroke="#e5e7eb" stroke-width="0.5"/>
  <line x1="55" y1="12.0" x2="385" y2="12.0" stroke="#e5e7eb" stroke-width="0.5"/>
  <text x="51" y="15.0" text-anchor="end" font-size="8" fill="#6b7280">+20</text>
  <text x="51" y="45.0" text-anchor="end" font-size="8" fill="#6b7280">0</text>
  <line x1="55" y1="72.0" x2="385" y2="72.0" stroke="#e5e7eb" stroke-width="0.5"/>
  <text x="51" y="75.0" text-anchor="end" font-size="8" fill="#6b7280">-20</text>
  <line x1="55" y1="102.0" x2="385" y2="102.0" stroke="#e5e7eb" stroke-width="0.5"/>
  <text x="51" y="105.0" text-anchor="end" font-size="8" fill="#6b7280">-40</text>
  <line x1="55" y1="132.0" x2="385" y2="132.0" stroke="#e5e7eb" stroke-width="0.5"/>
  <text x="51" y="135.0" text-anchor="end" font-size="8" fill="#6b7280">-60</text>
  <line x1="55" y1="162.0" x2="385" y2="162.0" stroke="#e5e7eb" stroke-width="0.5"/>
  <text x="51" y="165.0" text-anchor="end" font-size="8" fill="#6b7280">-80</text>
  <defs><linearGradient id="g127" x1="0" y1="12" x2="0" y2="162" gradientUnits="userSpaceOnUse">
    <stop offset="0%" stop-color="#4a90d9" stop-opacity="0.15"/>
    <stop offset="100%" stop-color="#4a90d9" stop-opacity="0.02"/>
  </linearGradient></defs>
  <path d="M58.2,42.0 58.2,42.0 88.3,42.0 105.9,42.0 118.4,42.0 128.1,42.0 136.0,42.0 142.7,42.0 148.5,42.0 153.6,41.9 158.2,41.9 162.3,41.9 166.1,41.9 169.6,41.9 172.8,41.9 175.8,41.8 178.6,41.8 181.2,41.8 183.7,41.8 186.0,41.7 188.3,41.7 190.4,41.7 192.4,41.6 194.3,41.6 196.2,41.6 198.0,41.5 199.7,41.5 201.3,41.5 202.9,41.4 204.4,41.4 205.9,41.4 207.3,41.3 208.7,41.3 210.0,41.2 211.3,41.2 212.6,41.2 213.8,41.1 215.0,41.1 216.1,41.0 217.3,41.0 218.4,40.9 219.4,40.9 220.5,40.8 221.5,40.8 222.5,40.8 223.5,40.7 224.4,40.7 225.4,40.6 226.3,40.6 227.2,40.5 228.1,40.5 228.9,40.5 229.8,40.4 230.6,40.4 231.4,40.4 233.0,40.3 234.5,40.2 236.0,40.2 237.4,40.2 238.8,40.1 240.1,40.1 241.4,40.1 242.7,40.2 243.9,40.2 245.1,40.3 246.2,40.4 247.4,40.5 248.5,40.6 249.5,40.8 250.6,40.9 251.6,41.1 252.6,41.4 253.6,41.6 254.5,41.9 255.5,42.2 256.4,42.5 257.3,42.8 258.1,43.1 259.0,43.5 259.8,43.8 260.7,44.2 261.5,44.5 262.7,45.1 263.8,45.7 265.0,46.3 266.1,46.9 267.1,47.5 268.2,48.1 269.2,48.7 270.2,49.3 271.2,49.9 272.1,50.5 273.1,51.1 274.0,51.7 274.9,52.2 275.7,52.8 276.6,53.4 277.5,53.9 278.3,54.4 279.1,55.0 280.1,55.7 281.2,56.3 282.2,57.0 283.2,57.6 284.1,58.3 285.1,58.9 286.0,59.5 286.9,60.1 287.8,60.7 288.7,61.2 289.5,61.8 290.4,62.3 291.2,62.9 292.0,63.4 293.0,64.0 293.9,64.7 294.9,65.3 295.8,65.9 296.7,66.5 297.6,67.0 298.4,67.6 299.3,68.2 300.1,68.7 300.9,69.2 301.7,69.7 302.7,70.4 303.6,71.0 304.5,71.5 305.4,72.1 306.3,72.7 307.1,73.2 308.0,73.8 308.8,74.3 309.6,74.8 310.5,75.4 311.4,76.0 312.3,76.6 313.2,77.1 314.0,77.7 314.8,78.2 315.6,78.8 316.4,79.3 317.3,79.9 318.2,80.4 319.1,81.0 319.9,81.6 320.8,82.1 321.6,82.6 322.5,83.2 323.3,83.8 324.2,84.4 325.1,85.0 325.9,85.5 326.7,86.1 327.6,86.6 328.5,87.2 329.3,87.8 330.1,88.4 331.0,88.9 331.8,89.5 332.6,90.1 333.5,90.7 334.3,91.2 335.1,91.8 335.9,92.4 336.8,93.0 337.6,93.6 338.5,94.2 339.3,94.7 340.1,95.4 341.0,96.0 341.8,96.6 342.6,97.2 343.5,97.8 344.3,98.4 345.2,99.1 346.0,99.7 346.8,100.3 347.7,101.0 348.5,101.6 349.3,102.3 350.1,102.9 351.0,103.6 351.8,104.3 352.6,105.0 353.4,105.7 354.3,106.4 355.1,107.1 355.9,107.8 356.7,108.6 357.6,109.3 358.4,110.1 359.2,110.8 360.1,111.6 360.9,112.4 361.7,113.2 362.5,114.1 363.3,114.9 364.1,115.8 365.0,116.7 365.8,117.6 366.6,118.6 367.4,119.5 368.3,120.6 369.1,121.6 369.9,122.6 370.7,123.8 371.5,124.9 372.3,126.1 373.1,127.3 373.9,128.7 374.8,130.0 375.6,131.5 376.4,133.0 377.2,134.7 378.0,136.4 378.8,138.3 379.6,140.3 380.4,142.5 381.3,144.9 382.1,147.6 382.9,150.6 383.7,153.9 384.5,157.9 L384.5,162.0 L58.2,162.0 Z" fill="url(#g127)"/>
  <defs><clipPath id="pc128"><rect x="55" y="12" width="330" height="150"/></clipPath></defs>
  <polyline points="58.2,42.0 88.3,42.0 105.9,42.0 118.4,42.0 128.1,42.0 136.0,42.0 142.7,42.0 148.5,42.0 153.6,41.9 158.2,41.9 162.3,41.9 166.1,41.9 169.6,41.9 172.8,41.9 175.8,41.8 178.6,41.8 181.2,41.8 183.7,41.8 186.0,41.7 188.3,41.7 190.4,41.7 192.4,41.6 194.3,41.6 196.2,41.6 198.0,41.5 199.7,41.5 201.3,41.5 202.9,41.4 204.4,41.4 205.9,41.4 207.3,41.3 208.7,41.3 210.0,41.2 211.3,41.2 212.6,41.2 213.8,41.1 215.0,41.1 216.1,41.0 217.3,41.0 218.4,40.9 219.4,40.9 220.5,40.8 221.5,40.8 222.5,40.8 223.5,40.7 224.4,40.7 225.4,40.6 226.3,40.6 227.2,40.5 228.1,40.5 228.9,40.5 229.8,40.4 230.6,40.4 231.4,40.4 233.0,40.3 234.5,40.2 236.0,40.2 237.4,40.2 238.8,40.1 240.1,40.1 241.4,40.1 242.7,40.2 243.9,40.2 245.1,40.3 246.2,40.4 247.4,40.5 248.5,40.6 249.5,40.8 250.6,40.9 251.6,41.1 252.6,41.4 253.6,41.6 254.5,41.9 255.5,42.2 256.4,42.5 257.3,42.8 258.1,43.1 259.0,43.5 259.8,43.8 260.7,44.2 261.5,44.5 262.7,45.1 263.8,45.7 265.0,46.3 266.1,46.9 267.1,47.5 268.2,48.1 269.2,48.7 270.2,49.3 271.2,49.9 272.1,50.5 273.1,51.1 274.0,51.7 274.9,52.2 275.7,52.8 276.6,53.4 277.5,53.9 278.3,54.4 279.1,55.0 280.1,55.7 281.2,56.3 282.2,57.0 283.2,57.6 284.1,58.3 285.1,58.9 286.0,59.5 286.9,60.1 287.8,60.7 288.7,61.2 289.5,61.8 290.4,62.3 291.2,62.9 292.0,63.4 293.0,64.0 293.9,64.7 294.9,65.3 295.8,65.9 296.7,66.5 297.6,67.0 298.4,67.6 299.3,68.2 300.1,68.7 300.9,69.2 301.7,69.7 302.7,70.4 303.6,71.0 304.5,71.5 305.4,72.1 306.3,72.7 307.1,73.2 308.0,73.8 308.8,74.3 309.6,74.8 310.5,75.4 311.4,76.0 312.3,76.6 313.2,77.1 314.0,77.7 314.8,78.2 315.6,78.8 316.4,79.3 317.3,79.9 318.2,80.4 319.1,81.0 319.9,81.6 320.8,82.1 321.6,82.6 322.5,83.2 323.3,83.8 324.2,84.4 325.1,85.0 325.9,85.5 326.7,86.1 327.6,86.6 328.5,87.2 329.3,87.8 330.1,88.4 331.0,88.9 331.8,89.5 332.6,90.1 333.5,90.7 334.3,91.2 335.1,91.8 335.9,92.4 336.8,93.0 337.6,93.6 338.5,94.2 339.3,94.7 340.1,95.4 341.0,96.0 341.8,96.6 342.6,97.2 343.5,97.8 344.3,98.4 345.2,99.1 346.0,99.7 346.8,100.3 347.7,101.0 348.5,101.6 349.3,102.3 350.1,102.9 351.0,103.6 351.8,104.3 352.6,105.0 353.4,105.7 354.3,106.4 355.1,107.1 355.9,107.8 356.7,108.6 357.6,109.3 358.4,110.1 359.2,110.8 360.1,111.6 360.9,112.4 361.7,113.2 362.5,114.1 363.3,114.9 364.1,115.8 365.0,116.7 365.8,117.6 366.6,118.6 367.4,119.5 368.3,120.6 369.1,121.6 369.9,122.6 370.7,123.8 371.5,124.9 372.3,126.1 373.1,127.3 373.9,128.7 374.8,130.0 375.6,131.5 376.4,133.0 377.2,134.7 378.0,136.4 378.8,138.3 379.6,140.3 380.4,142.5 381.3,144.9 382.1,147.6 382.9,150.6 383.7,153.9 384.5,157.9" fill="none" stroke="#4a90d9" stroke-width="1.5" stroke-linejoin="round" clip-path="url(#pc128)"/>
  <line x1="445" y1="12" x2="445" y2="162" stroke="#d1d5db"/>
  <line x1="445" y1="87.0" x2="775" y2="87.0" stroke="#d1d5db"/>
  <text x="610" y="190" text-anchor="middle" font-size="9" fill="#6b7280">Hz</text>
  <text x="419" y="87" text-anchor="middle" font-size="9" fill="#6b7280" transform="rotate(-90 419 87)">Phase (deg)</text>
  <line x1="475.1" y1="12" x2="475.1" y2="162" stroke="#e5e7eb" stroke-width="0.5"/>
  <line x1="492.7" y1="12" x2="492.7" y2="162" stroke="#e5e7eb" stroke-width="0.5"/>
  <line x1="505.2" y1="12" x2="505.2" y2="162" stroke="#e5e7eb" stroke-width="0.5"/>
  <line x1="514.9" y1="12" x2="514.9" y2="162" stroke="#e5e7eb" stroke-width="0.5"/>
  <line x1="522.8" y1="12" x2="522.8" y2="162" stroke="#e5e7eb" stroke-width="0.5"/>
  <line x1="529.5" y1="12" x2="529.5" y2="162" stroke="#e5e7eb" stroke-width="0.5"/>
  <line x1="535.3" y1="12" x2="535.3" y2="162" stroke="#e5e7eb" stroke-width="0.5"/>
  <line x1="540.4" y1="12" x2="540.4" y2="162" stroke="#e5e7eb" stroke-width="0.5"/>
  <line x1="575.1" y1="12" x2="575.1" y2="162" stroke="#e5e7eb" stroke-width="0.5"/>
  <line x1="592.7" y1="12" x2="592.7" y2="162" stroke="#e5e7eb" stroke-width="0.5"/>
  <line x1="605.2" y1="12" x2="605.2" y2="162" stroke="#e5e7eb" stroke-width="0.5"/>
  <line x1="614.8" y1="12" x2="614.8" y2="162" stroke="#e5e7eb" stroke-width="0.5"/>
  <line x1="622.8" y1="12" x2="622.8" y2="162" stroke="#e5e7eb" stroke-width="0.5"/>
  <line x1="629.5" y1="12" x2="629.5" y2="162" stroke="#e5e7eb" stroke-width="0.5"/>
  <line x1="635.2" y1="12" x2="635.2" y2="162" stroke="#e5e7eb" stroke-width="0.5"/>
  <line x1="640.4" y1="12" x2="640.4" y2="162" stroke="#e5e7eb" stroke-width="0.5"/>
  <line x1="675.0" y1="12" x2="675.0" y2="162" stroke="#e5e7eb" stroke-width="0.5"/>
  <line x1="692.6" y1="12" x2="692.6" y2="162" stroke="#e5e7eb" stroke-width="0.5"/>
  <line x1="705.1" y1="12" x2="705.1" y2="162" stroke="#e5e7eb" stroke-width="0.5"/>
  <line x1="714.8" y1="12" x2="714.8" y2="162" stroke="#e5e7eb" stroke-width="0.5"/>
  <line x1="722.7" y1="12" x2="722.7" y2="162" stroke="#e5e7eb" stroke-width="0.5"/>
  <line x1="729.4" y1="12" x2="729.4" y2="162" stroke="#e5e7eb" stroke-width="0.5"/>
  <line x1="735.2" y1="12" x2="735.2" y2="162" stroke="#e5e7eb" stroke-width="0.5"/>
  <line x1="740.3" y1="12" x2="740.3" y2="162" stroke="#e5e7eb" stroke-width="0.5"/>
  <line x1="775.0" y1="12" x2="775.0" y2="162" stroke="#e5e7eb" stroke-width="0.5"/>
  <line x1="545.0" y1="12" x2="545.0" y2="162" stroke="#e5e7eb" stroke-width="0.5"/>
  <text x="545.0" y="174" text-anchor="middle" font-size="8" fill="#6b7280">100</text>
  <line x1="644.9" y1="12" x2="644.9" y2="162" stroke="#e5e7eb" stroke-width="0.5"/>
  <text x="644.9" y="174" text-anchor="middle" font-size="8" fill="#6b7280">1k</text>
  <line x1="744.9" y1="12" x2="744.9" y2="162" stroke="#e5e7eb" stroke-width="0.5"/>
  <text x="744.9" y="174" text-anchor="middle" font-size="8" fill="#6b7280">10k</text>
  <line x1="445" y1="53.3" x2="775" y2="53.3" stroke="#e5e7eb" stroke-width="0.5"/>
  <line x1="445" y1="120.8" x2="775" y2="120.8" stroke="#e5e7eb" stroke-width="0.5"/>
  <line x1="445" y1="19.5" x2="775" y2="19.5" stroke="#e5e7eb" stroke-width="0.5"/>
  <text x="441" y="22.5" text-anchor="end" font-size="8" fill="#6b7280">180</text>
  <text x="441" y="90.0" text-anchor="end" font-size="8" fill="#6b7280">0</text>
  <line x1="445" y1="154.5" x2="775" y2="154.5" stroke="#e5e7eb" stroke-width="0.5"/>
  <text x="441" y="157.5" text-anchor="end" font-size="8" fill="#6b7280">-180</text>
  <defs><linearGradient id="g129" x1="0" y1="162" x2="0" y2="87.0" gradientUnits="userSpaceOnUse">
    <stop offset="0%" stop-color="#e74c3c" stop-opacity="0.15"/>
    <stop offset="100%" stop-color="#e74c3c" stop-opacity="0.02"/>
  </linearGradient></defs>
  <path d="M448.2,87.2 448.2,87.2 478.3,87.5 495.9,87.7 508.4,87.9 518.1,88.2 526.0,88.4 532.7,88.6 538.5,88.9 543.6,89.1 548.2,89.3 552.3,89.6 556.1,89.8 559.6,90.0 562.8,90.3 565.8,90.5 568.6,90.8 571.2,91.0 573.7,91.3 576.0,91.5 578.3,91.8 580.4,92.0 582.4,92.3 584.3,92.5 586.2,92.8 588.0,93.1 589.7,93.3 591.3,93.6 592.9,93.9 594.4,94.1 595.9,94.4 597.3,94.7 598.7,95.0 600.0,95.3 601.3,95.6 602.6,95.9 603.8,96.2 605.0,96.5 606.1,96.8 607.3,97.1 608.4,97.4 609.4,97.8 610.5,98.1 611.5,98.4 612.5,98.8 613.5,99.1 614.4,99.5 615.4,99.8 616.3,100.2 617.2,100.5 618.1,100.9 618.9,101.3 619.8,101.7 620.6,102.1 621.4,102.5 623.0,103.3 624.5,104.1 626.0,105.0 627.4,105.8 628.8,106.7 630.1,107.7 631.4,108.6 632.7,109.5 633.9,110.5 635.1,111.5 636.2,112.5 637.4,113.5 638.5,114.5 639.5,115.5 640.6,116.5 641.6,117.5 642.6,118.4 643.6,119.4 644.5,120.3 645.5,121.3 646.4,122.2 647.3,123.1 648.1,123.9 649.0,124.7 649.8,125.6 650.7,126.3 651.5,127.1 652.7,128.2 653.8,129.2 655.0,130.2 656.1,131.1 657.1,131.9 658.2,132.7 659.2,133.5 660.2,134.2 661.2,134.8 662.1,135.5 663.1,136.1 664.0,136.6 664.9,137.1 665.7,137.6 666.6,138.1 667.5,138.6 668.3,139.0 669.1,139.4 670.1,139.9 671.2,140.4 672.2,140.8 673.2,141.2 674.1,141.6 675.1,142.0 676.0,142.3 676.9,142.6 677.8,143.0 678.7,143.2 679.5,143.5 680.4,143.8 681.2,144.0 682.0,144.3 683.0,144.6 683.9,144.8 684.9,145.1 685.8,145.3 686.7,145.6 687.6,145.8 688.4,146.0 689.3,146.2 690.1,146.4 690.9,146.6 691.7,146.7 692.7,146.9 693.6,147.1 694.5,147.3 695.4,147.5 696.3,147.6 697.1,147.8 698.0,147.9 698.8,148.1 699.6,148.2 700.5,148.4 701.4,148.5 702.3,148.6 703.2,148.8 704.0,148.9 704.8,149.0 705.6,149.1 706.4,149.2 707.3,149.4 708.2,149.5 709.1,149.6 709.9,149.7 710.8,149.8 711.6,149.9 712.5,150.0 713.3,150.1 714.2,150.2 715.1,150.3 715.9,150.4 716.7,150.5 717.6,150.6 718.5,150.7 719.3,150.8 720.1,150.8 721.0,150.9 721.8,151.0 722.6,151.1 723.5,151.1 724.3,151.2 725.1,151.3 725.9,151.4 726.8,151.4 727.6,151.5 728.5,151.6 729.3,151.6 730.1,151.7 731.0,151.8 731.8,151.8 732.6,151.9 733.5,152.0 734.3,152.0 735.2,152.1 736.0,152.1 736.8,152.2 737.7,152.3 738.5,152.3 739.3,152.4 740.1,152.4 741.0,152.5 741.8,152.5 742.6,152.6 743.4,152.6 744.3,152.7 745.1,152.7 745.9,152.8 746.7,152.8 747.6,152.9 748.4,152.9 749.2,153.0 750.1,153.0 750.9,153.1 751.7,153.1 752.5,153.1 753.3,153.2 754.1,153.2 755.0,153.3 755.8,153.3 756.6,153.4 757.4,153.4 758.3,153.4 759.1,153.5 759.9,153.5 760.7,153.6 761.5,153.6 762.3,153.6 763.1,153.7 763.9,153.7 764.8,153.8 765.6,153.8 766.4,153.8 767.2,153.9 768.0,153.9 768.8,154.0 769.6,154.0 770.4,154.0 771.3,154.1 772.1,154.1 772.9,154.2 773.7,154.2 774.5,154.2 L774.5,87.0 L448.2,87.0 Z" fill="url(#g129)"/>
  <defs><clipPath id="pc130"><rect x="445" y="12" width="330" height="150"/></clipPath></defs>
  <polyline points="448.2,87.2 478.3,87.5 495.9,87.7 508.4,87.9 518.1,88.2 526.0,88.4 532.7,88.6 538.5,88.9 543.6,89.1 548.2,89.3 552.3,89.6 556.1,89.8 559.6,90.0 562.8,90.3 565.8,90.5 568.6,90.8 571.2,91.0 573.7,91.3 576.0,91.5 578.3,91.8 580.4,92.0 582.4,92.3 584.3,92.5 586.2,92.8 588.0,93.1 589.7,93.3 591.3,93.6 592.9,93.9 594.4,94.1 595.9,94.4 597.3,94.7 598.7,95.0 600.0,95.3 601.3,95.6 602.6,95.9 603.8,96.2 605.0,96.5 606.1,96.8 607.3,97.1 608.4,97.4 609.4,97.8 610.5,98.1 611.5,98.4 612.5,98.8 613.5,99.1 614.4,99.5 615.4,99.8 616.3,100.2 617.2,100.5 618.1,100.9 618.9,101.3 619.8,101.7 620.6,102.1 621.4,102.5 623.0,103.3 624.5,104.1 626.0,105.0 627.4,105.8 628.8,106.7 630.1,107.7 631.4,108.6 632.7,109.5 633.9,110.5 635.1,111.5 636.2,112.5 637.4,113.5 638.5,114.5 639.5,115.5 640.6,116.5 641.6,117.5 642.6,118.4 643.6,119.4 644.5,120.3 645.5,121.3 646.4,122.2 647.3,123.1 648.1,123.9 649.0,124.7 649.8,125.6 650.7,126.3 651.5,127.1 652.7,128.2 653.8,129.2 655.0,130.2 656.1,131.1 657.1,131.9 658.2,132.7 659.2,133.5 660.2,134.2 661.2,134.8 662.1,135.5 663.1,136.1 664.0,136.6 664.9,137.1 665.7,137.6 666.6,138.1 667.5,138.6 668.3,139.0 669.1,139.4 670.1,139.9 671.2,140.4 672.2,140.8 673.2,141.2 674.1,141.6 675.1,142.0 676.0,142.3 676.9,142.6 677.8,143.0 678.7,143.2 679.5,143.5 680.4,143.8 681.2,144.0 682.0,144.3 683.0,144.6 683.9,144.8 684.9,145.1 685.8,145.3 686.7,145.6 687.6,145.8 688.4,146.0 689.3,146.2 690.1,146.4 690.9,146.6 691.7,146.7 692.7,146.9 693.6,147.1 694.5,147.3 695.4,147.5 696.3,147.6 697.1,147.8 698.0,147.9 698.8,148.1 699.6,148.2 700.5,148.4 701.4,148.5 702.3,148.6 703.2,148.8 704.0,148.9 704.8,149.0 705.6,149.1 706.4,149.2 707.3,149.4 708.2,149.5 709.1,149.6 709.9,149.7 710.8,149.8 711.6,149.9 712.5,150.0 713.3,150.1 714.2,150.2 715.1,150.3 715.9,150.4 716.7,150.5 717.6,150.6 718.5,150.7 719.3,150.8 720.1,150.8 721.0,150.9 721.8,151.0 722.6,151.1 723.5,151.1 724.3,151.2 725.1,151.3 725.9,151.4 726.8,151.4 727.6,151.5 728.5,151.6 729.3,151.6 730.1,151.7 731.0,151.8 731.8,151.8 732.6,151.9 733.5,152.0 734.3,152.0 735.2,152.1 736.0,152.1 736.8,152.2 737.7,152.3 738.5,152.3 739.3,152.4 740.1,152.4 741.0,152.5 741.8,152.5 742.6,152.6 743.4,152.6 744.3,152.7 745.1,152.7 745.9,152.8 746.7,152.8 747.6,152.9 748.4,152.9 749.2,153.0 750.1,153.0 750.9,153.1 751.7,153.1 752.5,153.1 753.3,153.2 754.1,153.2 755.0,153.3 755.8,153.3 756.6,153.4 757.4,153.4 758.3,153.4 759.1,153.5 759.9,153.5 760.7,153.6 761.5,153.6 762.3,153.6 763.1,153.7 763.9,153.7 764.8,153.8 765.6,153.8 766.4,153.8 767.2,153.9 768.0,153.9 768.8,154.0 769.6,154.0 770.4,154.0 771.3,154.1 772.1,154.1 772.9,154.2 773.7,154.2 774.5,154.2" fill="none" stroke="#e74c3c" stroke-width="1.5" stroke-linejoin="round" clip-path="url(#pc130)"/>
  <line x1="55" y1="210" x2="55" y2="360" stroke="#d1d5db"/>
  <line x1="55" y1="285.0" x2="385" y2="285.0" stroke="#d1d5db"/>
  <text x="220" y="388" text-anchor="middle" font-size="9" fill="#6b7280">Hz</text>
  <text x="29" y="285" text-anchor="middle" font-size="9" fill="#6b7280" transform="rotate(-90 29 285)">Group delay</text>
  <line x1="85.1" y1="210" x2="85.1" y2="360" stroke="#e5e7eb" stroke-width="0.5"/>
  <line x1="102.7" y1="210" x2="102.7" y2="360" stroke="#e5e7eb" stroke-width="0.5"/>
  <line x1="115.2" y1="210" x2="115.2" y2="360" stroke="#e5e7eb" stroke-width="0.5"/>
  <line x1="124.9" y1="210" x2="124.9" y2="360" stroke="#e5e7eb" stroke-width="0.5"/>
  <line x1="132.8" y1="210" x2="132.8" y2="360" stroke="#e5e7eb" stroke-width="0.5"/>
  <line x1="139.5" y1="210" x2="139.5" y2="360" stroke="#e5e7eb" stroke-width="0.5"/>
  <line x1="145.3" y1="210" x2="145.3" y2="360" stroke="#e5e7eb" stroke-width="0.5"/>
  <line x1="150.4" y1="210" x2="150.4" y2="360" stroke="#e5e7eb" stroke-width="0.5"/>
  <line x1="185.1" y1="210" x2="185.1" y2="360" stroke="#e5e7eb" stroke-width="0.5"/>
  <line x1="202.7" y1="210" x2="202.7" y2="360" stroke="#e5e7eb" stroke-width="0.5"/>
  <line x1="215.2" y1="210" x2="215.2" y2="360" stroke="#e5e7eb" stroke-width="0.5"/>
  <line x1="224.8" y1="210" x2="224.8" y2="360" stroke="#e5e7eb" stroke-width="0.5"/>
  <line x1="232.8" y1="210" x2="232.8" y2="360" stroke="#e5e7eb" stroke-width="0.5"/>
  <line x1="239.5" y1="210" x2="239.5" y2="360" stroke="#e5e7eb" stroke-width="0.5"/>
  <line x1="245.2" y1="210" x2="245.2" y2="360" stroke="#e5e7eb" stroke-width="0.5"/>
  <line x1="250.4" y1="210" x2="250.4" y2="360" stroke="#e5e7eb" stroke-width="0.5"/>
  <line x1="285.0" y1="210" x2="285.0" y2="360" stroke="#e5e7eb" stroke-width="0.5"/>
  <line x1="302.6" y1="210" x2="302.6" y2="360" stroke="#e5e7eb" stroke-width="0.5"/>
  <line x1="315.1" y1="210" x2="315.1" y2="360" stroke="#e5e7eb" stroke-width="0.5"/>
  <line x1="324.8" y1="210" x2="324.8" y2="360" stroke="#e5e7eb" stroke-width="0.5"/>
  <line x1="332.7" y1="210" x2="332.7" y2="360" stroke="#e5e7eb" stroke-width="0.5"/>
  <line x1="339.4" y1="210" x2="339.4" y2="360" stroke="#e5e7eb" stroke-width="0.5"/>
  <line x1="345.2" y1="210" x2="345.2" y2="360" stroke="#e5e7eb" stroke-width="0.5"/>
  <line x1="350.3" y1="210" x2="350.3" y2="360" stroke="#e5e7eb" stroke-width="0.5"/>
  <line x1="385.0" y1="210" x2="385.0" y2="360" stroke="#e5e7eb" stroke-width="0.5"/>
  <line x1="155.0" y1="210" x2="155.0" y2="360" stroke="#e5e7eb" stroke-width="0.5"/>
  <text x="155.0" y="372" text-anchor="middle" font-size="8" fill="#6b7280">100</text>
  <line x1="254.9" y1="210" x2="254.9" y2="360" stroke="#e5e7eb" stroke-width="0.5"/>
  <text x="254.9" y="372" text-anchor="middle" font-size="8" fill="#6b7280">1k</text>
  <line x1="354.9" y1="210" x2="354.9" y2="360" stroke="#e5e7eb" stroke-width="0.5"/>
  <text x="354.9" y="372" text-anchor="middle" font-size="8" fill="#6b7280">10k</text>
  <line x1="55" y1="324.8" x2="385" y2="324.8" stroke="#e5e7eb" stroke-width="0.5"/>
  <text x="51" y="327.8" text-anchor="end" font-size="8" fill="#6b7280">-900</text>
  <text x="51" y="288.0" text-anchor="end" font-size="8" fill="#6b7280">0</text>
  <line x1="55" y1="245.2" x2="385" y2="245.2" stroke="#e5e7eb" stroke-width="0.5"/>
  <text x="51" y="248.2" text-anchor="end" font-size="8" fill="#6b7280">900</text>
  <defs><linearGradient id="g131" x1="0" y1="360" x2="0" y2="285.0" gradientUnits="userSpaceOnUse">
    <stop offset="0%" stop-color="#2ecc71" stop-opacity="0.15"/>
    <stop offset="100%" stop-color="#2ecc71" stop-opacity="0.02"/>
  </linearGradient></defs>
  <path d="M58.2,285.0 58.2,285.0 88.3,285.0 105.9,285.0 118.4,285.0 128.1,285.0 136.0,285.0 142.7,285.0 148.5,285.0 153.6,285.0 158.2,285.0 162.3,285.0 166.1,285.0 169.6,285.0 172.8,285.0 175.8,285.0 178.6,284.9 181.2,284.9 183.7,284.9 186.0,284.9 188.3,284.9 190.4,284.9 192.4,284.9 194.3,284.9 196.2,284.9 198.0,284.9 199.7,284.9 201.3,284.9 202.9,284.9 204.4,284.9 205.9,284.9 207.3,284.9 208.7,284.9 210.0,284.9 211.3,284.9 212.6,284.9 213.8,284.9 215.0,284.9 216.1,284.9 217.3,284.9 218.4,284.9 219.4,284.9 220.5,284.9 221.5,284.9 222.5,284.9 223.5,284.9 224.4,284.9 225.4,284.9 226.3,284.9 227.2,284.9 228.1,284.9 228.9,284.9 229.8,284.9 230.6,284.9 231.4,284.9 233.0,284.9 234.5,284.9 236.0,285.0 237.4,285.0 238.8,285.0 240.1,285.0 241.4,285.0 242.7,285.0 243.9,285.1 245.1,285.1 246.2,285.1 247.4,285.1 248.5,285.2 249.5,285.2 250.6,285.2 251.6,285.2 252.6,285.3 253.6,285.3 254.5,285.3 255.5,285.3 256.4,285.3 257.3,285.4 258.1,285.4 259.0,285.4 259.8,285.4 260.7,285.4 261.5,285.4 262.7,285.4 263.8,285.4 265.0,285.4 266.1,285.4 267.1,285.4 268.2,285.4 269.2,285.4 270.2,285.4 271.2,285.4 272.1,285.4 273.1,285.4 274.0,285.4 274.9,285.4 275.7,285.4 276.6,285.4 277.5,285.4 278.3,285.4 279.1,285.4 280.1,285.4 281.2,285.4 282.2,285.4 283.2,285.4 284.1,285.3 285.1,285.3 286.0,285.3 286.9,285.3 287.8,285.3 288.7,285.3 289.5,285.3 290.4,285.3 291.2,285.3 292.0,285.3 293.0,285.3 293.9,285.3 294.9,285.3 295.8,285.3 296.7,285.3 297.6,285.3 298.4,285.2 299.3,285.2 300.1,285.2 300.9,285.2 301.7,285.2 302.7,285.2 303.6,285.2 304.5,285.2 305.4,285.2 306.3,285.2 307.1,285.2 308.0,285.2 308.8,285.2 309.6,285.2 310.5,285.2 311.4,285.2 312.3,285.2 313.2,285.2 314.0,285.2 314.8,285.2 315.6,285.2 316.4,285.2 317.3,285.2 318.2,285.2 319.1,285.2 319.9,285.2 320.8,285.1 321.6,285.1 322.5,285.1 323.3,285.1 324.2,285.1 325.1,285.1 325.9,285.1 326.7,285.1 327.6,285.1 328.5,285.1 329.3,285.1 330.1,285.1 331.0,285.1 331.8,285.1 332.6,285.1 333.5,285.1 334.3,285.1 335.1,285.1 335.9,285.1 336.8,285.1 337.6,285.1 338.5,285.1 339.3,285.1 340.1,285.1 341.0,285.1 341.8,285.1 342.6,285.1 343.5,285.1 344.3,285.1 345.2,285.1 346.0,285.1 346.8,285.1 347.7,285.1 348.5,285.1 349.3,285.1 350.1,285.1 351.0,285.1 351.8,285.1 352.6,285.1 353.4,285.1 354.3,285.1 355.1,285.1 355.9,285.1 356.7,285.1 357.6,285.1 358.4,285.1 359.2,285.1 360.1,285.1 360.9,285.1 361.7,285.1 362.5,285.1 363.3,285.1 364.1,285.1 365.0,285.1 365.8,285.1 366.6,285.1 367.4,285.1 368.3,285.1 369.1,285.1 369.9,285.1 370.7,285.1 371.5,285.1 372.3,285.1 373.1,285.1 373.9,285.1 374.8,285.1 375.6,285.1 376.4,285.1 377.2,285.1 378.0,285.1 378.8,285.1 379.6,285.2 380.4,285.2 381.3,285.2 382.1,285.2 382.9,285.2 383.7,285.2 384.5,285.3 L384.5,285.0 L58.2,285.0 Z" fill="url(#g131)"/>
  <defs><clipPath id="pc132"><rect x="55" y="210" width="330" height="150"/></clipPath></defs>
  <polyline points="58.2,285.0 88.3,285.0 105.9,285.0 118.4,285.0 128.1,285.0 136.0,285.0 142.7,285.0 148.5,285.0 153.6,285.0 158.2,285.0 162.3,285.0 166.1,285.0 169.6,285.0 172.8,285.0 175.8,285.0 178.6,284.9 181.2,284.9 183.7,284.9 186.0,284.9 188.3,284.9 190.4,284.9 192.4,284.9 194.3,284.9 196.2,284.9 198.0,284.9 199.7,284.9 201.3,284.9 202.9,284.9 204.4,284.9 205.9,284.9 207.3,284.9 208.7,284.9 210.0,284.9 211.3,284.9 212.6,284.9 213.8,284.9 215.0,284.9 216.1,284.9 217.3,284.9 218.4,284.9 219.4,284.9 220.5,284.9 221.5,284.9 222.5,284.9 223.5,284.9 224.4,284.9 225.4,284.9 226.3,284.9 227.2,284.9 228.1,284.9 228.9,284.9 229.8,284.9 230.6,284.9 231.4,284.9 233.0,284.9 234.5,284.9 236.0,285.0 237.4,285.0 238.8,285.0 240.1,285.0 241.4,285.0 242.7,285.0 243.9,285.1 245.1,285.1 246.2,285.1 247.4,285.1 248.5,285.2 249.5,285.2 250.6,285.2 251.6,285.2 252.6,285.3 253.6,285.3 254.5,285.3 255.5,285.3 256.4,285.3 257.3,285.4 258.1,285.4 259.0,285.4 259.8,285.4 260.7,285.4 261.5,285.4 262.7,285.4 263.8,285.4 265.0,285.4 266.1,285.4 267.1,285.4 268.2,285.4 269.2,285.4 270.2,285.4 271.2,285.4 272.1,285.4 273.1,285.4 274.0,285.4 274.9,285.4 275.7,285.4 276.6,285.4 277.5,285.4 278.3,285.4 279.1,285.4 280.1,285.4 281.2,285.4 282.2,285.4 283.2,285.4 284.1,285.3 285.1,285.3 286.0,285.3 286.9,285.3 287.8,285.3 288.7,285.3 289.5,285.3 290.4,285.3 291.2,285.3 292.0,285.3 293.0,285.3 293.9,285.3 294.9,285.3 295.8,285.3 296.7,285.3 297.6,285.3 298.4,285.2 299.3,285.2 300.1,285.2 300.9,285.2 301.7,285.2 302.7,285.2 303.6,285.2 304.5,285.2 305.4,285.2 306.3,285.2 307.1,285.2 308.0,285.2 308.8,285.2 309.6,285.2 310.5,285.2 311.4,285.2 312.3,285.2 313.2,285.2 314.0,285.2 314.8,285.2 315.6,285.2 316.4,285.2 317.3,285.2 318.2,285.2 319.1,285.2 319.9,285.2 320.8,285.1 321.6,285.1 322.5,285.1 323.3,285.1 324.2,285.1 325.1,285.1 325.9,285.1 326.7,285.1 327.6,285.1 328.5,285.1 329.3,285.1 330.1,285.1 331.0,285.1 331.8,285.1 332.6,285.1 333.5,285.1 334.3,285.1 335.1,285.1 335.9,285.1 336.8,285.1 337.6,285.1 338.5,285.1 339.3,285.1 340.1,285.1 341.0,285.1 341.8,285.1 342.6,285.1 343.5,285.1 344.3,285.1 345.2,285.1 346.0,285.1 346.8,285.1 347.7,285.1 348.5,285.1 349.3,285.1 350.1,285.1 351.0,285.1 351.8,285.1 352.6,285.1 353.4,285.1 354.3,285.1 355.1,285.1 355.9,285.1 356.7,285.1 357.6,285.1 358.4,285.1 359.2,285.1 360.1,285.1 360.9,285.1 361.7,285.1 362.5,285.1 363.3,285.1 364.1,285.1 365.0,285.1 365.8,285.1 366.6,285.1 367.4,285.1 368.3,285.1 369.1,285.1 369.9,285.1 370.7,285.1 371.5,285.1 372.3,285.1 373.1,285.1 373.9,285.1 374.8,285.1 375.6,285.1 376.4,285.1 377.2,285.1 378.0,285.1 378.8,285.1 379.6,285.2 380.4,285.2 381.3,285.2 382.1,285.2 382.9,285.2 383.7,285.2 384.5,285.3" fill="none" stroke="#2ecc71" stroke-width="1.5" stroke-linejoin="round" clip-path="url(#pc132)"/>
  <line x1="445" y1="210" x2="445" y2="360" stroke="#d1d5db"/>
  <line x1="445" y1="285.0" x2="775" y2="285.0" stroke="#d1d5db"/>
  <text x="610" y="388" text-anchor="middle" font-size="9" fill="#6b7280">Samples</text>
  <text x="419" y="285" text-anchor="middle" font-size="9" fill="#6b7280" transform="rotate(-90 419 285)">Impulse response</text>
  <line x1="445.0" y1="210" x2="445.0" y2="360" stroke="#e5e7eb" stroke-width="0.5"/>
  <text x="445.0" y="372" text-anchor="middle" font-size="8" fill="#6b7280">0</text>
  <line x1="527.5" y1="210" x2="527.5" y2="360" stroke="#e5e7eb" stroke-width="0.5"/>
  <text x="527.5" y="372" text-anchor="middle" font-size="8" fill="#6b7280">32</text>
  <line x1="610.0" y1="210" x2="610.0" y2="360" stroke="#e5e7eb" stroke-width="0.5"/>
  <text x="610.0" y="372" text-anchor="middle" font-size="8" fill="#6b7280">64</text>
  <line x1="692.5" y1="210" x2="692.5" y2="360" stroke="#e5e7eb" stroke-width="0.5"/>
  <text x="692.5" y="372" text-anchor="middle" font-size="8" fill="#6b7280">96</text>
  <line x1="775.0" y1="210" x2="775.0" y2="360" stroke="#e5e7eb" stroke-width="0.5"/>
  <text x="775.0" y="372" text-anchor="middle" font-size="8" fill="#6b7280">128</text>
  <line x1="445" y1="343.0" x2="775" y2="343.0" stroke="#e5e7eb" stroke-width="0.5"/>
  <text x="441" y="346.0" text-anchor="end" font-size="8" fill="#6b7280">-0.06</text>
  <text x="441" y="288.0" text-anchor="end" font-size="8" fill="#6b7280">0</text>
  <line x1="445" y1="227.0" x2="775" y2="227.0" stroke="#e5e7eb" stroke-width="0.5"/>
  <text x="441" y="230.0" text-anchor="end" font-size="8" fill="#6b7280">0.06</text>
  <defs><linearGradient id="g133" x1="0" y1="210" x2="0" y2="285.0" gradientUnits="userSpaceOnUse">
    <stop offset="0%" stop-color="#f39c12" stop-opacity="0.15"/>
    <stop offset="100%" stop-color="#f39c12" stop-opacity="0.02"/>
  </linearGradient></defs>
  <defs><linearGradient id="g134" x1="0" y1="360" x2="0" y2="285.0" gradientUnits="userSpaceOnUse">
    <stop offset="0%" stop-color="#f39c12" stop-opacity="0.15"/>
    <stop offset="100%" stop-color="#f39c12" stop-opacity="0.02"/>
  </linearGradient></defs>
  <defs><clipPath id="c135"><rect x="445" y="210" width="330" height="75.0"/></clipPath></defs>
  <defs><clipPath id="c136"><rect x="445" y="285.0" width="330" height="75.0"/></clipPath></defs>
  <path d="M445.0,280.4 445.0,280.4 447.6,267.4 450.2,251.8 452.7,239.0 455.3,228.7 457.9,220.9 460.5,215.3 463.0,211.7 465.6,210.0 468.2,210.0 470.8,211.4 473.4,214.0 475.9,217.6 478.5,222.0 481.1,227.0 483.7,232.4 486.3,238.1 488.8,244.0 491.4,249.8 494.0,255.5 496.6,261.1 499.1,266.3 501.7,271.2 504.3,275.8 506.9,279.8 509.5,283.5 512.0,286.7 514.6,289.4 517.2,291.7 519.8,293.6 522.3,295.0 524.9,296.1 527.5,296.8 530.1,297.2 532.7,297.3 535.2,297.2 537.8,296.9 540.4,296.3 543.0,295.7 545.5,294.9 548.1,294.0 550.7,293.1 553.3,292.1 555.9,291.2 558.4,290.2 561.0,289.3 563.6,288.4 566.2,287.6 568.8,286.8 571.3,286.1 573.9,285.5 576.5,284.9 579.1,284.5 581.6,284.0 584.2,283.7 586.8,283.4 589.4,283.2 592.0,283.1 594.5,283.0 597.1,283.0 599.7,283.0 602.3,283.0 604.8,283.1 607.4,283.2 610.0,283.3 612.6,283.5 615.2,283.6 617.7,283.8 620.3,283.9 622.9,284.1 625.5,284.2 628.0,284.4 630.6,284.5 633.2,284.7 635.8,284.8 638.4,284.9 640.9,285.0 643.5,285.1 646.1,285.1 648.7,285.2 651.3,285.2 653.8,285.3 656.4,285.3 659.0,285.3 661.6,285.3 664.1,285.3 666.7,285.3 669.3,285.3 671.9,285.3 674.5,285.3 677.0,285.3 679.6,285.2 682.2,285.2 684.8,285.2 687.3,285.2 689.9,285.1 692.5,285.1 695.1,285.1 697.7,285.1 700.2,285.0 702.8,285.0 705.4,285.0 708.0,285.0 710.5,285.0 713.1,285.0 715.7,285.0 718.3,285.0 720.9,285.0 723.4,284.9 726.0,284.9 728.6,284.9 731.2,284.9 733.8,284.9 736.3,284.9 738.9,285.0 741.5,285.0 744.1,285.0 746.6,285.0 749.2,285.0 751.8,285.0 754.4,285.0 757.0,285.0 759.5,285.0 762.1,285.0 764.7,285.0 767.3,285.0 769.8,285.0 772.4,285.0 L772.4,285.0 L445.0,285.0 Z" fill="url(#g133)" clip-path="url(#c135)"/>
  <path d="M445.0,280.4 445.0,280.4 447.6,267.4 450.2,251.8 452.7,239.0 455.3,228.7 457.9,220.9 460.5,215.3 463.0,211.7 465.6,210.0 468.2,210.0 470.8,211.4 473.4,214.0 475.9,217.6 478.5,222.0 481.1,227.0 483.7,232.4 486.3,238.1 488.8,244.0 491.4,249.8 494.0,255.5 496.6,261.1 499.1,266.3 501.7,271.2 504.3,275.8 506.9,279.8 509.5,283.5 512.0,286.7 514.6,289.4 517.2,291.7 519.8,293.6 522.3,295.0 524.9,296.1 527.5,296.8 530.1,297.2 532.7,297.3 535.2,297.2 537.8,296.9 540.4,296.3 543.0,295.7 545.5,294.9 548.1,294.0 550.7,293.1 553.3,292.1 555.9,291.2 558.4,290.2 561.0,289.3 563.6,288.4 566.2,287.6 568.8,286.8 571.3,286.1 573.9,285.5 576.5,284.9 579.1,284.5 581.6,284.0 584.2,283.7 586.8,283.4 589.4,283.2 592.0,283.1 594.5,283.0 597.1,283.0 599.7,283.0 602.3,283.0 604.8,283.1 607.4,283.2 610.0,283.3 612.6,283.5 615.2,283.6 617.7,283.8 620.3,283.9 622.9,284.1 625.5,284.2 628.0,284.4 630.6,284.5 633.2,284.7 635.8,284.8 638.4,284.9 640.9,285.0 643.5,285.1 646.1,285.1 648.7,285.2 651.3,285.2 653.8,285.3 656.4,285.3 659.0,285.3 661.6,285.3 664.1,285.3 666.7,285.3 669.3,285.3 671.9,285.3 674.5,285.3 677.0,285.3 679.6,285.2 682.2,285.2 684.8,285.2 687.3,285.2 689.9,285.1 692.5,285.1 695.1,285.1 697.7,285.1 700.2,285.0 702.8,285.0 705.4,285.0 708.0,285.0 710.5,285.0 713.1,285.0 715.7,285.0 718.3,285.0 720.9,285.0 723.4,284.9 726.0,284.9 728.6,284.9 731.2,284.9 733.8,284.9 736.3,284.9 738.9,285.0 741.5,285.0 744.1,285.0 746.6,285.0 749.2,285.0 751.8,285.0 754.4,285.0 757.0,285.0 759.5,285.0 762.1,285.0 764.7,285.0 767.3,285.0 769.8,285.0 772.4,285.0 L772.4,285.0 L445.0,285.0 Z" fill="url(#g134)" clip-path="url(#c136)"/>
  <defs><clipPath id="pc137"><rect x="445" y="210" width="330" height="150"/></clipPath></defs>
  <polyline points="445.0,280.4 447.6,267.4 450.2,251.8 452.7,239.0 455.3,228.7 457.9,220.9 460.5,215.3 463.0,211.7 465.6,210.0 468.2,210.0 470.8,211.4 473.4,214.0 475.9,217.6 478.5,222.0 481.1,227.0 483.7,232.4 486.3,238.1 488.8,244.0 491.4,249.8 494.0,255.5 496.6,261.1 499.1,266.3 501.7,271.2 504.3,275.8 506.9,279.8 509.5,283.5 512.0,286.7 514.6,289.4 517.2,291.7 519.8,293.6 522.3,295.0 524.9,296.1 527.5,296.8 530.1,297.2 532.7,297.3 535.2,297.2 537.8,296.9 540.4,296.3 543.0,295.7 545.5,294.9 548.1,294.0 550.7,293.1 553.3,292.1 555.9,291.2 558.4,290.2 561.0,289.3 563.6,288.4 566.2,287.6 568.8,286.8 571.3,286.1 573.9,285.5 576.5,284.9 579.1,284.5 581.6,284.0 584.2,283.7 586.8,283.4 589.4,283.2 592.0,283.1 594.5,283.0 597.1,283.0 599.7,283.0 602.3,283.0 604.8,283.1 607.4,283.2 610.0,283.3 612.6,283.5 615.2,283.6 617.7,283.8 620.3,283.9 622.9,284.1 625.5,284.2 628.0,284.4 630.6,284.5 633.2,284.7 635.8,284.8 638.4,284.9 640.9,285.0 643.5,285.1 646.1,285.1 648.7,285.2 651.3,285.2 653.8,285.3 656.4,285.3 659.0,285.3 661.6,285.3 664.1,285.3 666.7,285.3 669.3,285.3 671.9,285.3 674.5,285.3 677.0,285.3 679.6,285.2 682.2,285.2 684.8,285.2 687.3,285.2 689.9,285.1 692.5,285.1 695.1,285.1 697.7,285.1 700.2,285.0 702.8,285.0 705.4,285.0 708.0,285.0 710.5,285.0 713.1,285.0 715.7,285.0 718.3,285.0 720.9,285.0 723.4,284.9 726.0,284.9 728.6,284.9 731.2,284.9 733.8,284.9 736.3,284.9 738.9,285.0 741.5,285.0 744.1,285.0 746.6,285.0 749.2,285.0 751.8,285.0 754.4,285.0 757.0,285.0 759.5,285.0 762.1,285.0 764.7,285.0 767.3,285.0 769.8,285.0 772.4,285.0" fill="none" stroke="#f39c12" stroke-width="1.3" stroke-linejoin="round" clip-path="url(#pc137)"/>
</svg>
