<svg xmlns="http://www.w3.org/2000/svg" viewBox="0 0 800 240" style="font-family:system-ui,-apple-system,sans-serif">
  <line x1="55" y1="12" x2="55" y2="192" stroke="#d1d5db"/>
  <line x1="55" y1="192" x2="385" y2="192" stroke="#d1d5db"/>
  <text x="220" y="222" text-anchor="middle" font-size="10" fill="#6b7280">Frequency (Hz)</text>
  <text x="17" y="102" text-anchor="middle" font-size="10" fill="#6b7280" transform="rotate(-90 17 102)">Magnitude (dB)</text>
  <line x1="131.9" y1="12" x2="131.9" y2="192" stroke="#e5e7eb" stroke-width="0.5"/>
  <text x="131.9" y="205" text-anchor="middle" font-size="9" fill="#6b7280">100</text>
  <line x1="241.9" y1="12" x2="241.9" y2="192" stroke="#e5e7eb" stroke-width="0.5"/>
  <text x="241.9" y="205" text-anchor="middle" font-size="9" fill="#6b7280">1k</text>
  <line x1="351.9" y1="12" x2="351.9" y2="192" stroke="#e5e7eb" stroke-width="0.5"/>
  <text x="351.9" y="205" text-anchor="middle" font-size="9" fill="#6b7280">10k</text>
  <line x1="55" y1="12.0" x2="385" y2="12.0" stroke="#e5e7eb" stroke-width="0.5"/>
  <text x="51" y="15.0" text-anchor="end" font-size="9" fill="#6b7280">0</text>
  <line x1="55" y1="57.0" x2="385" y2="57.0" stroke="#e5e7eb" stroke-width="0.5"/>
  <text x="51" y="60.0" text-anchor="end" font-size="9" fill="#6b7280">-20</text>
  <line x1="55" y1="102.0" x2="385" y2="102.0" stroke="#e5e7eb" stroke-width="0.5"/>
  <text x="51" y="105.0" text-anchor="end" font-size="9" fill="#6b7280">-40</text>
  <line x1="55" y1="147.0" x2="385" y2="147.0" stroke="#e5e7eb" stroke-width="0.5"/>
  <text x="51" y="150.0" text-anchor="end" font-size="9" fill="#6b7280">-60</text>
  <line x1="55" y1="192.0" x2="385" y2="192.0" stroke="#e5e7eb" stroke-width="0.5"/>
  <text x="51" y="195.0" text-anchor="end" font-size="9" fill="#6b7280">-80</text>
  <polyline points="91.6,12.0 124.8,12.1 144.1,12.2 157.9,12.3 168.5,12.4 177.2,12.6 184.6,12.8 191.0,13.1 196.6,13.4 201.6,13.7 206.2,14.0 210.4,14.3 214.2,14.7 217.7,15.0 221.0,15.4 224.1,15.8 227.0,16.2 229.7,16.6 232.3,17.0 234.8,17.4 237.1,17.8 239.3,18.3 241.4,18.7 243.5,19.1 245.4,19.5 247.3,19.9 249.1,20.4 250.8,20.8 252.5,21.2 254.1,21.6 255.7,22.0 257.2,22.4 258.7,22.8 260.1,23.2 261.5,23.6 262.8,24.0 264.1,24.4 265.4,24.8 266.7,25.1 267.9,25.5 269.0,25.9 270.2,26.2 271.3,26.6 272.4,27.0 273.5,27.3 274.5,27.7 275.6,28.0 276.6,28.3 277.6,28.7 278.5,29.0 279.5,29.3 280.4,29.6 281.3,30.0 282.2,30.3 283.1,30.6 283.9,30.9 284.8,31.2 285.6,31.5 286.4,31.8 287.2,32.1 288.0,32.4 288.8,32.7 289.6,32.9 290.3,33.2 291.1,33.5 291.8,33.8 292.5,34.0 293.2,34.3 293.9,34.6 294.6,34.8 295.3,35.1 295.9,35.3 296.6,35.6 297.3,35.8 297.9,36.1 298.5,36.3 299.2,36.6 299.8,36.8 300.4,37.1 301.0,37.3 301.6,37.5 302.2,37.8 302.7,38.0 303.3,38.2 303.9,38.5 304.4,38.7 305.0,38.9 305.5,39.1 306.1,39.3 306.6,39.6 307.1,39.8 307.7,40.0 308.2,40.2 308.7,40.4 309.2,40.6 309.7,40.8 310.2,41.0 310.7,41.2 311.2,41.4 311.6,41.6 312.1,41.8 312.6,42.0 313.1,42.2 313.5,42.4 314.0,42.6 314.4,42.8 314.9,43.0 315.3,43.2 315.8,43.3 316.2,43.5 316.6,43.7 317.1,43.9 317.5,44.1 317.9,44.3 318.3,44.4 318.7,44.6 319.1,44.8 319.5,45.0 320.0,45.1 320.4,45.3 320.7,45.5 321.1,45.7 321.5,45.8 321.9,46.0 322.3,46.2 322.7,46.3 323.1,46.5 323.4,46.7 323.8,46.8 324.2,47.0 324.5,47.1 324.9,47.3 325.3,47.5 325.6,47.6 326.0,47.8 326.3,47.9 326.7,48.1 327.0,48.3 327.4,48.4 327.7,48.6 328.1,48.7 328.4,48.9 328.7,49.0 329.1,49.2 329.4,49.3 329.7,49.5 330.0,49.6 330.4,49.8 330.7,49.9 331.0,50.1 331.3,50.2 331.6,50.4 332.0,50.5 332.3,50.7 332.6,50.8 332.9,51.0 333.2,51.1 333.5,51.2 333.8,51.4 334.1,51.5 334.4,51.7 334.7,51.8 335.0,51.9 335.3,52.1 335.6,52.2 335.9,52.4 336.1,52.5 336.4,52.6 336.7,52.8 337.0,52.9 337.3,53.1 337.6,53.2 337.8,53.3 338.1,53.5 338.4,53.6 338.6,53.7 338.9,53.9 339.2,54.0 339.5,54.1 339.7,54.3 340.0,54.4 340.2,54.5 340.5,54.7 340.8,54.8 341.0,54.9 341.3,55.1 341.5,55.2 341.8,55.3 342.1,55.4 342.3,55.6 342.6,55.7 342.8,55.8 343.1,56.0 343.3,56.1 343.5,56.2 343.8,56.3 344.0,56.5 344.3,56.6 344.5,56.7 344.8,56.8 345.0,57.0 345.2,57.1 345.5,57.2 345.7,57.3 345.9,57.5 346.2,57.6 346.4,57.7 346.6,57.8 346.9,58.0 347.1,58.1 347.3,58.2 347.5,58.3 347.8,58.5 348.0,58.6 348.2,58.7 348.4,58.8 348.7,59.0 348.9,59.1 349.1,59.2 349.3,59.3 349.5,59.4 349.7,59.6 350.0,59.7 350.2,59.8 350.4,59.9 350.6,60.0 350.8,60.2 351.0,60.3 351.2,60.4 351.4,60.5 351.6,60.7 351.8,60.8 352.1,60.9 352.3,61.0 352.5,61.1 352.7,61.3 352.9,61.4 353.1,61.5 353.3,61.6 353.5,61.7 353.7,61.9 353.9,62.0 354.1,62.1 354.3,62.2 354.5,62.3 354.6,62.5 354.8,62.6 355.0,62.7 355.2,62.8 355.4,62.9 355.6,63.0 355.8,63.2 356.0,63.3 356.2,63.4 356.4,63.5 356.5,63.6 356.7,63.8 356.9,63.9 357.1,64.0 357.3,64.1 357.5,64.2 357.7,64.4 357.8,64.5 358.0,64.6 358.2,64.7 358.4,64.8 358.6,65.0 358.7,65.1 358.9,65.2 359.1,65.3 359.3,65.4 359.4,65.6 359.6,65.7 359.8,65.8 360.0,65.9 360.1,66.0 360.3,66.2 360.5,66.3 360.7,66.4 360.8,66.5 361.0,66.6 361.2,66.8 361.3,66.9 361.5,67.0 361.7,67.1 361.8,67.2 362.0,67.4 362.2,67.5 362.3,67.6 362.5,67.7 362.7,67.9 362.8,68.0 363.0,68.1 363.2,68.2 363.3,68.3 363.5,68.5 363.6,68.6 363.8,68.7 364.0,68.8 364.1,69.0 364.3,69.1 364.4,69.2 364.6,69.3 364.8,69.5 364.9,69.6 365.1,69.7 365.2,69.8 365.4,70.0 365.5,70.1 365.7,70.2 365.8,70.3 366.0,70.5 366.2,70.6 366.3,70.7 366.5,70.9 366.6,71.0 366.8,71.1 366.9,71.2 367.1,71.4 367.2,71.5 367.4,71.6 367.5,71.8 367.7,71.9 367.8,72.0 367.9,72.1 368.1,72.3 368.2,72.4 368.4,72.5 368.5,72.7 368.7,72.8 368.8,72.9 369.0,73.1 369.1,73.2 369.3,73.3 369.4,73.5 369.5,73.6 369.7,73.8 369.8,73.9 370.0,74.0 370.1,74.2 370.2,74.3 370.4,74.4 370.5,74.6 370.7,74.7 370.8,74.9 370.9,75.0 371.1,75.1 371.2,75.3 371.4,75.4 371.5,75.6 371.6,75.7 371.8,75.9 371.9,76.0 372.0,76.1 372.2,76.3 372.3,76.4 372.4,76.6 372.6,76.7 372.7,76.9 372.8,77.0 373.0,77.2 373.1,77.3 373.2,77.5 373.4,77.6 373.5,77.8 373.6,77.9 373.8,78.1 373.9,78.2 374.0,78.4 374.1,78.6 374.3,78.7 374.4,78.9 374.5,79.0 374.7,79.2 374.8,79.3 374.9,79.5 375.0,79.7 375.2,79.8 375.3,80.0 375.4,80.2 375.5,80.3 375.7,80.5 375.8,80.7 375.9,80.8 376.0,81.0 376.2,81.2 376.3,81.3 376.4,81.5 376.5,81.7 376.7,81.9 376.8,82.0 376.9,82.2 377.0,82.4 377.1,82.6 377.3,82.8 377.4,82.9 377.5,83.1 377.6,83.3 377.7,83.5 377.9,83.7 378.0,83.9 378.1,84.1 378.2,84.3 378.3,84.5 378.5,84.6 378.6,84.8 378.7,85.0 378.8,85.2 378.9,85.4 379.0,85.7 379.2,85.9 379.3,86.1 379.4,86.3 379.5,86.5 379.6,86.7 379.7,86.9 379.9,87.1 380.0,87.3 380.1,87.6 380.2,87.8 380.3,88.0 380.4,88.2 380.5,88.5 380.7,88.7 380.8,88.9 380.9,89.2 381.0,89.4 381.1,89.7 381.2,89.9 381.3,90.1 381.4,90.4 381.5,90.7 381.7,90.9 381.8,91.2 381.9,91.4 382.0,91.7 382.1,92.0 382.2,92.2 382.3,92.5 382.4,92.8 382.5,93.1 382.6,93.4 382.7,93.6 382.9,93.9 383.0,94.2 383.1,94.5 383.2,94.8 383.3,95.2 383.4,95.5 383.5,95.8 383.6,96.1 383.7,96.4 383.8,96.8 383.9,97.1 384.0,97.5 384.1,97.8 384.2,98.2 384.3,98.6 384.4,98.9 384.5,99.3 384.6,99.7 384.8,100.1 384.9,100.5 385.0,100.9" fill="none" stroke="#4a90d9" stroke-width="1.3" stroke-linejoin="round"/>
  <polyline points="91.6,12.0 124.8,12.0 144.1,12.0 157.9,12.0 168.5,12.0 177.2,12.0 184.6,12.1 191.0,12.1 196.6,12.2 201.6,12.3 206.2,12.5 210.4,12.7 214.2,12.9 217.7,13.2 221.0,13.6 224.1,14.0 227.0,14.5 229.7,15.0 232.3,15.6 234.8,16.3 237.1,17.0 239.3,17.8 241.4,18.6 243.5,19.4 245.4,20.3 247.3,21.2 249.1,22.2 250.8,23.1 252.5,24.1 254.1,25.0 255.7,26.0 257.2,27.0 258.7,27.9 260.1,28.9 261.5,29.8 262.8,30.8 264.1,31.7 265.4,32.6 266.7,33.5 267.9,34.4 269.0,35.3 270.2,36.2 271.3,37.0 272.4,37.9 273.5,38.7 274.5,39.5 275.6,40.3 276.6,41.1 277.6,41.9 278.5,42.7 279.5,43.4 280.4,44.2 281.3,44.9 282.2,45.6 283.1,46.3 283.9,47.0 284.8,47.7 285.6,48.4 286.4,49.0 287.2,49.7 288.0,50.3 288.8,51.0 289.6,51.6 290.3,52.2 291.1,52.8 291.8,53.4 292.5,54.0 293.2,54.6 293.9,55.2 294.6,55.8 295.3,56.3 295.9,56.9 296.6,57.5 297.3,58.0 297.9,58.5 298.5,59.1 299.2,59.6 299.8,60.1 300.4,60.6 301.0,61.1 301.6,61.6 302.2,62.1 302.7,62.6 303.3,63.1 303.9,63.6 304.4,64.1 305.0,64.6 305.5,65.0 306.1,65.5 306.6,65.9 307.1,66.4 307.7,66.8 308.2,67.3 308.7,67.7 309.2,68.2 309.7,68.6 310.2,69.0 310.7,69.4 311.2,69.9 311.6,70.3 312.1,70.7 312.6,71.1 313.1,71.5 313.5,71.9 314.0,72.3 314.4,72.7 314.9,73.1 315.3,73.5 315.8,73.9 316.2,74.3 316.6,74.7 317.1,75.0 317.5,75.4 317.9,75.8 318.3,76.2 318.7,76.5 319.1,76.9 319.5,77.2 320.0,77.6 320.4,78.0 320.7,78.3 321.1,78.7 321.5,79.0 321.9,79.4 322.3,79.7 322.7,80.1 323.1,80.4 323.4,80.7 323.8,81.1 324.2,81.4 324.5,81.8 324.9,82.1 325.3,82.4 325.6,82.7 326.0,83.1 326.3,83.4 326.7,83.7 327.0,84.0 327.4,84.4 327.7,84.7 328.1,85.0 328.4,85.3 328.7,85.6 329.1,85.9 329.4,86.2 329.7,86.5 330.0,86.9 330.4,87.2 330.7,87.5 331.0,87.8 331.3,88.1 331.6,88.4 332.0,88.7 332.3,89.0 332.6,89.3 332.9,89.5 333.2,89.8 333.5,90.1 333.8,90.4 334.1,90.7 334.4,91.0 334.7,91.3 335.0,91.6 335.3,91.9 335.6,92.1 335.9,92.4 336.1,92.7 336.4,93.0 336.7,93.3 337.0,93.5 337.3,93.8 337.6,94.1 337.8,94.4 338.1,94.6 338.4,94.9 338.6,95.2 338.9,95.5 339.2,95.7 339.5,96.0 339.7,96.3 340.0,96.5 340.2,96.8 340.5,97.1 340.8,97.3 341.0,97.6 341.3,97.9 341.5,98.1 341.8,98.4 342.1,98.6 342.3,98.9 342.6,99.2 342.8,99.4 343.1,99.7 343.3,99.9 343.5,100.2 343.8,100.5 344.0,100.7 344.3,101.0 344.5,101.2 344.8,101.5 345.0,101.7 345.2,102.0 345.5,102.2 345.7,102.5 345.9,102.8 346.2,103.0 346.4,103.3 346.6,103.5 346.9,103.8 347.1,104.0 347.3,104.3 347.5,104.5 347.8,104.8 348.0,105.0 348.2,105.3 348.4,105.5 348.7,105.7 348.9,106.0 349.1,106.2 349.3,106.5 349.5,106.7 349.7,107.0 350.0,107.2 350.2,107.5 350.4,107.7 350.6,108.0 350.8,108.2 351.0,108.4 351.2,108.7 351.4,108.9 351.6,109.2 351.8,109.4 352.1,109.7 352.3,109.9 352.5,110.1 352.7,110.4 352.9,110.6 353.1,110.9 353.3,111.1 353.5,111.3 353.7,111.6 353.9,111.8 354.1,112.1 354.3,112.3 354.5,112.5 354.6,112.8 354.8,113.0 355.0,113.3 355.2,113.5 355.4,113.8 355.6,114.0 355.8,114.2 356.0,114.5 356.2,114.7 356.4,115.0 356.5,115.2 356.7,115.4 356.9,115.7 357.1,115.9 357.3,116.1 357.5,116.4 357.7,116.6 357.8,116.9 358.0,117.1 358.2,117.3 358.4,117.6 358.6,117.8 358.7,118.1 358.9,118.3 359.1,118.6 359.3,118.8 359.4,119.0 359.6,119.3 359.8,119.5 360.0,119.8 360.1,120.0 360.3,120.2 360.5,120.5 360.7,120.7 360.8,121.0 361.0,121.2 361.2,121.5 361.3,121.7 361.5,121.9 361.7,122.2 361.8,122.4 362.0,122.7 362.2,122.9 362.3,123.2 362.5,123.4 362.7,123.6 362.8,123.9 363.0,124.1 363.2,124.4 363.3,124.6 363.5,124.9 363.6,125.1 363.8,125.4 364.0,125.6 364.1,125.9 364.3,126.1 364.4,126.4 364.6,126.6 364.8,126.9 364.9,127.1 365.1,127.4 365.2,127.6 365.4,127.9 365.5,128.1 365.7,128.4 365.8,128.6 366.0,128.9 366.2,129.1 366.3,129.4 366.5,129.7 366.6,129.9 366.8,130.2 366.9,130.4 367.1,130.7 367.2,130.9 367.4,131.2 367.5,131.5 367.7,131.7 367.8,132.0 367.9,132.3 368.1,132.5 368.2,132.8 368.4,133.0 368.5,133.3 368.7,133.6 368.8,133.8 369.0,134.1 369.1,134.4 369.3,134.7 369.4,134.9 369.5,135.2 369.7,135.5 369.8,135.7 370.0,136.0 370.1,136.3 370.2,136.6 370.4,136.8 370.5,137.1 370.7,137.4 370.8,137.7 370.9,138.0 371.1,138.2 371.2,138.5 371.4,138.8 371.5,139.1 371.6,139.4 371.8,139.7 371.9,140.0 372.0,140.3 372.2,140.5 372.3,140.8 372.4,141.1 372.6,141.4 372.7,141.7 372.8,142.0 373.0,142.3 373.1,142.6 373.2,142.9 373.4,143.2 373.5,143.5 373.6,143.8 373.8,144.1 373.9,144.5 374.0,144.8 374.1,145.1 374.3,145.4 374.4,145.7 374.5,146.0 374.7,146.3 374.8,146.7 374.9,147.0 375.0,147.3 375.2,147.6 375.3,148.0 375.4,148.3 375.5,148.6 375.7,149.0 375.8,149.3 375.9,149.6 376.0,150.0 376.2,150.3 376.3,150.7 376.4,151.0 376.5,151.4 376.7,151.7 376.8,152.1 376.9,152.4 377.0,152.8 377.1,153.1 377.3,153.5 377.4,153.9 377.5,154.2 377.6,154.6 377.7,155.0 377.9,155.4 378.0,155.7 378.1,156.1 378.2,156.5 378.3,156.9 378.5,157.3 378.6,157.7 378.7,158.1 378.8,158.5 378.9,158.9 379.0,159.3 379.2,159.7 379.3,160.1 379.4,160.5 379.5,161.0 379.6,161.4 379.7,161.8 379.9,162.2 380.0,162.7 380.1,163.1 380.2,163.6 380.3,164.0 380.4,164.5 380.5,164.9 380.7,165.4 380.8,165.9 380.9,166.3 381.0,166.8 381.1,167.3 381.2,167.8 381.3,168.3 381.4,168.8 381.5,169.3 381.7,169.8 381.8,170.3 381.9,170.9 382.0,171.4 382.1,171.9 382.2,172.5 382.3,173.0 382.4,173.6 382.5,174.1 382.6,174.7 382.7,175.3 382.9,175.9 383.0,176.5 383.1,177.1 383.2,177.7 383.3,178.3 383.4,178.9 383.5,179.6 383.6,180.2 383.7,180.9 383.8,181.6 383.9,182.2 384.0,182.9 384.1,183.6 384.2,184.4 384.3,185.1 384.4,185.8 384.5,186.6 384.6,187.4 384.8,188.2 384.9,189.0 385.0,189.8" fill="none" stroke="#4a90d9" stroke-width="1.3" stroke-linejoin="round"/>
  <polyline points="91.6,12.0 124.8,12.0 144.1,12.0 157.9,12.0 168.5,12.0 177.2,12.0 184.6,12.0 191.0,12.0 196.6,12.0 201.6,12.1 206.2,12.1 210.4,12.2 214.2,12.3 217.7,12.5 221.0,12.7 224.1,13.0 227.0,13.4 229.7,13.9 232.3,14.6 234.8,15.3 237.1,16.3 239.3,17.3 241.4,18.5 243.5,19.8 245.4,21.2 247.3,22.7 249.1,24.2 250.8,25.8 252.5,27.4 254.1,29.0 255.7,30.6 257.2,32.2 258.7,33.8 260.1,35.4 261.5,37.0 262.8,38.5 264.1,40.0 265.4,41.5 266.7,43.0 267.9,44.4 269.0,45.9 270.2,47.2 271.3,48.6 272.4,49.9 273.5,51.2 274.5,52.5 275.6,53.8 276.6,55.0 277.6,56.2 278.5,57.4 279.5,58.6 280.4,59.7 281.3,60.9 282.2,62.0 283.1,63.1 283.9,64.1 284.8,65.2 285.6,66.2 286.4,67.3 287.2,68.3 288.0,69.2 288.8,70.2 289.6,71.2 290.3,72.1 291.1,73.1 291.8,74.0 292.5,74.9 293.2,75.8 293.9,76.7 294.6,77.5 295.3,78.4 295.9,79.2 296.6,80.1 297.3,80.9 297.9,81.7 298.5,82.5 299.2,83.3 299.8,84.1 300.4,84.9 301.0,85.6 301.6,86.4 302.2,87.1 302.7,87.9 303.3,88.6 303.9,89.3 304.4,90.1 305.0,90.8 305.5,91.5 306.1,92.2 306.6,92.9 307.1,93.5 307.7,94.2 308.2,94.9 308.7,95.5 309.2,96.2 309.7,96.8 310.2,97.5 310.7,98.1 311.2,98.8 311.6,99.4 312.1,100.0 312.6,100.6 313.1,101.2 313.5,101.8 314.0,102.4 314.4,103.0 314.9,103.6 315.3,104.2 315.8,104.8 316.2,105.4 316.6,106.0 317.1,106.5 317.5,107.1 317.9,107.7 318.3,108.2 318.7,108.8 319.1,109.3 319.5,109.9 320.0,110.4 320.4,110.9 320.7,111.5 321.1,112.0 321.5,112.5 321.9,113.0 322.3,113.6 322.7,114.1 323.1,114.6 323.4,115.1 323.8,115.6 324.2,116.1 324.5,116.6 324.9,117.1 325.3,117.6 325.6,118.1 326.0,118.6 326.3,119.1 326.7,119.6 327.0,120.1 327.4,120.5 327.7,121.0 328.1,121.5 328.4,122.0 328.7,122.4 329.1,122.9 329.4,123.4 329.7,123.8 330.0,124.3 330.4,124.7 330.7,125.2 331.0,125.6 331.3,126.1 331.6,126.5 332.0,127.0 332.3,127.4 332.6,127.9 332.9,128.3 333.2,128.8 333.5,129.2 333.8,129.6 334.1,130.1 334.4,130.5 334.7,130.9 335.0,131.3 335.3,131.8 335.6,132.2 335.9,132.6 336.1,133.0 336.4,133.5 336.7,133.9 337.0,134.3 337.3,134.7 337.6,135.1 337.8,135.5 338.1,136.0 338.4,136.4 338.6,136.8 338.9,137.2 339.2,137.6 339.5,138.0 339.7,138.4 340.0,138.8 340.2,139.2 340.5,139.6 340.8,140.0 341.0,140.4 341.3,140.8 341.5,141.2 341.8,141.6 342.1,142.0 342.3,142.4 342.6,142.8 342.8,143.1 343.1,143.5 343.3,143.9 343.5,144.3 343.8,144.7 344.0,145.1 344.3,145.5 344.5,145.8 344.8,146.2 345.0,146.6 345.2,147.0 345.5,147.4 345.7,147.8 345.9,148.1 346.2,148.5 346.4,148.9 346.6,149.3 346.9,149.6 347.1,150.0 347.3,150.4 347.5,150.8 347.8,151.1 348.0,151.5 348.2,151.9 348.4,152.2 348.7,152.6 348.9,153.0 349.1,153.4 349.3,153.7 349.5,154.1 349.7,154.5 350.0,154.8 350.2,155.2 350.4,155.6 350.6,155.9 350.8,156.3 351.0,156.7 351.2,157.0 351.4,157.4 351.6,157.8 351.8,158.1 352.1,158.5 352.3,158.8 352.5,159.2 352.7,159.6 352.9,159.9 353.1,160.3 353.3,160.7 353.5,161.0 353.7,161.4 353.9,161.7 354.1,162.1 354.3,162.5 354.5,162.8 354.6,163.2 354.8,163.5 355.0,163.9 355.2,164.3 355.4,164.6 355.6,165.0 355.8,165.3 356.0,165.7 356.2,166.1 356.4,166.4 356.5,166.8 356.7,167.1 356.9,167.5 357.1,167.9 357.3,168.2 357.5,168.6 357.7,168.9 357.8,169.3 358.0,169.7 358.2,170.0 358.4,170.4 358.6,170.7 358.7,171.1 358.9,171.5 359.1,171.8 359.3,172.2 359.4,172.5 359.6,172.9 359.8,173.3 360.0,173.6 360.1,174.0 360.3,174.4 360.5,174.7 360.7,175.1 360.8,175.5 361.0,175.8 361.2,176.2 361.3,176.5 361.5,176.9 361.7,177.3 361.8,177.6 362.0,178.0 362.2,178.4 362.3,178.7 362.5,179.1 362.7,179.5 362.8,179.8 363.0,180.2 363.2,180.6 363.3,181.0 363.5,181.3 363.6,181.7 363.8,182.1 364.0,182.4 364.1,182.8 364.3,183.2 364.4,183.6 364.6,183.9 364.8,184.3 364.9,184.7 365.1,185.1 365.2,185.4 365.4,185.8 365.5,186.2 365.7,186.6 365.8,187.0 366.0,187.3 366.2,187.7 366.3,188.1 366.5,188.5 366.6,188.9 366.8,189.3 366.9,189.6 367.1,190.0 367.2,190.4 367.4,190.8 367.5,191.2 367.7,191.6 367.8,192.0 367.9,192.0 368.1,192.0 368.2,192.0 368.4,192.0 368.5,192.0 368.7,192.0 368.8,192.0 369.0,192.0 369.1,192.0 369.3,192.0 369.4,192.0 369.5,192.0 369.7,192.0 369.8,192.0 370.0,192.0 370.1,192.0 370.2,192.0 370.4,192.0 370.5,192.0 370.7,192.0 370.8,192.0 370.9,192.0 371.1,192.0 371.2,192.0 371.4,192.0 371.5,192.0 371.6,192.0 371.8,192.0 371.9,192.0 372.0,192.0 372.2,192.0 372.3,192.0 372.4,192.0 372.6,192.0 372.7,192.0 372.8,192.0 373.0,192.0 373.1,192.0 373.2,192.0 373.4,192.0 373.5,192.0 373.6,192.0 373.8,192.0 373.9,192.0 374.0,192.0 374.1,192.0 374.3,192.0 374.4,192.0 374.5,192.0 374.7,192.0 374.8,192.0 374.9,192.0 375.0,192.0 375.2,192.0 375.3,192.0 375.4,192.0 375.5,192.0 375.7,192.0 375.8,192.0 375.9,192.0 376.0,192.0 376.2,192.0 376.3,192.0 376.4,192.0 376.5,192.0 376.7,192.0 376.8,192.0 376.9,192.0 377.0,192.0 377.1,192.0 377.3,192.0 377.4,192.0 377.5,192.0 377.6,192.0 377.7,192.0 377.9,192.0 378.0,192.0 378.1,192.0 378.2,192.0 378.3,192.0 378.5,192.0 378.6,192.0 378.7,192.0 378.8,192.0 378.9,192.0 379.0,192.0 379.2,192.0 379.3,192.0 379.4,192.0 379.5,192.0 379.6,192.0 379.7,192.0 379.9,192.0 380.0,192.0 380.1,192.0 380.2,192.0 380.3,192.0 380.4,192.0 380.5,192.0 380.7,192.0 380.8,192.0 380.9,192.0 381.0,192.0 381.1,192.0 381.2,192.0 381.3,192.0 381.4,192.0 381.5,192.0 381.7,192.0 381.8,192.0 381.9,192.0 382.0,192.0 382.1,192.0 382.2,192.0 382.3,192.0 382.4,192.0 382.5,192.0 382.6,192.0 382.7,192.0 382.9,192.0 383.0,192.0 383.1,192.0 383.2,192.0 383.3,192.0 383.4,192.0 383.5,192.0 383.6,192.0 383.7,192.0 383.8,192.0 383.9,192.0 384.0,192.0 384.1,192.0 384.2,192.0 384.3,192.0 384.4,192.0 384.5,192.0 384.6,192.0 384.8,192.0 384.9,192.0 385.0,192.0" fill="none" stroke="#4a90d9" stroke-width="1.3" stroke-linejoin="round"/>
  <polyline points="91.6,12.0 124.8,12.0 144.1,12.0 157.9,12.0 168.5,12.0 177.2,12.0 184.6,12.0 191.0,12.0 196.6,12.0 201.6,12.0 206.2,12.0 210.4,12.0 214.2,12.1 217.7,12.2 221.0,12.3 224.1,12.5 227.0,12.8 229.7,13.2 232.3,13.8 234.8,14.6 237.1,15.6 239.3,16.9 241.4,18.4 243.5,20.2 245.4,22.1 247.3,24.2 249.1,26.4 250.8,28.7 252.5,31.0 254.1,33.3 255.7,35.6 257.2,37.9 258.7,40.2 260.1,42.4 261.5,44.6 262.8,46.7 264.1,48.9 265.4,50.9 266.7,52.9 267.9,54.9 269.0,56.8 270.2,58.7 271.3,60.6 272.4,62.4 273.5,64.1 274.5,65.9 275.6,67.6 276.6,69.2 277.6,70.9 278.5,72.5 279.5,74.0 280.4,75.6 281.3,77.1 282.2,78.6 283.1,80.0 283.9,81.5 284.8,82.9 285.6,84.3 286.4,85.6 287.2,87.0 288.0,88.3 288.8,89.6 289.6,90.9 290.3,92.1 291.1,93.4 291.8,94.6 292.5,95.8 293.2,97.0 293.9,98.2 294.6,99.3 295.3,100.5 295.9,101.6 296.6,102.7 297.3,103.8 297.9,104.9 298.5,106.0 299.2,107.1 299.8,108.1 300.4,109.1 301.0,110.2 301.6,111.2 302.2,112.2 302.7,113.2 303.3,114.1 303.9,115.1 304.4,116.1 305.0,117.0 305.5,118.0 306.1,118.9 306.6,119.8 307.1,120.7 307.7,121.6 308.2,122.5 308.7,123.4 309.2,124.3 309.7,125.1 310.2,126.0 310.7,126.8 311.2,127.7 311.6,128.5 312.1,129.4 312.6,130.2 313.1,131.0 313.5,131.8 314.0,132.6 314.4,133.4 314.9,134.2 315.3,135.0 315.8,135.7 316.2,136.5 316.6,137.3 317.1,138.0 317.5,138.8 317.9,139.5 318.3,140.3 318.7,141.0 319.1,141.7 319.5,142.5 320.0,143.2 320.4,143.9 320.7,144.6 321.1,145.3 321.5,146.0 321.9,146.7 322.3,147.4 322.7,148.1 323.1,148.8 323.4,149.5 323.8,150.2 324.2,150.8 324.5,151.5 324.9,152.2 325.3,152.8 325.6,153.5 326.0,154.1 326.3,154.8 326.7,155.4 327.0,156.1 327.4,156.7 327.7,157.3 328.1,158.0 328.4,158.6 328.7,159.2 329.1,159.8 329.4,160.5 329.7,161.1 330.0,161.7 330.4,162.3 330.7,162.9 331.0,163.5 331.3,164.1 331.6,164.7 332.0,165.3 332.3,165.9 332.6,166.5 332.9,167.1 333.2,167.7 333.5,168.3 333.8,168.8 334.1,169.4 334.4,170.0 334.7,170.6 335.0,171.1 335.3,171.7 335.6,172.3 335.9,172.8 336.1,173.4 336.4,174.0 336.7,174.5 337.0,175.1 337.3,175.6 337.6,176.2 337.8,176.7 338.1,177.3 338.4,177.8 338.6,178.4 338.9,178.9 339.2,179.4 339.5,180.0 339.7,180.5 340.0,181.1 340.2,181.6 340.5,182.1 340.8,182.7 341.0,183.2 341.3,183.7 341.5,184.2 341.8,184.8 342.1,185.3 342.3,185.8 342.6,186.3 342.8,186.9 343.1,187.4 343.3,187.9 343.5,188.4 343.8,188.9 344.0,189.4 344.3,190.0 344.5,190.5 344.8,191.0 345.0,191.5 345.2,192.0 345.5,192.0 345.7,192.0 345.9,192.0 346.2,192.0 346.4,192.0 346.6,192.0 346.9,192.0 347.1,192.0 347.3,192.0 347.5,192.0 347.8,192.0 348.0,192.0 348.2,192.0 348.4,192.0 348.7,192.0 348.9,192.0 349.1,192.0 349.3,192.0 349.5,192.0 349.7,192.0 350.0,192.0 350.2,192.0 350.4,192.0 350.6,192.0 350.8,192.0 351.0,192.0 351.2,192.0 351.4,192.0 351.6,192.0 351.8,192.0 352.1,192.0 352.3,192.0 352.5,192.0 352.7,192.0 352.9,192.0 353.1,192.0 353.3,192.0 353.5,192.0 353.7,192.0 353.9,192.0 354.1,192.0 354.3,192.0 354.5,192.0 354.6,192.0 354.8,192.0 355.0,192.0 355.2,192.0 355.4,192.0 355.6,192.0 355.8,192.0 356.0,192.0 356.2,192.0 356.4,192.0 356.5,192.0 356.7,192.0 356.9,192.0 357.1,192.0 357.3,192.0 357.5,192.0 357.7,192.0 357.8,192.0 358.0,192.0 358.2,192.0 358.4,192.0 358.6,192.0 358.7,192.0 358.9,192.0 359.1,192.0 359.3,192.0 359.4,192.0 359.6,192.0 359.8,192.0 360.0,192.0 360.1,192.0 360.3,192.0 360.5,192.0 360.7,192.0 360.8,192.0 361.0,192.0 361.2,192.0 361.3,192.0 361.5,192.0 361.7,192.0 361.8,192.0 362.0,192.0 362.2,192.0 362.3,192.0 362.5,192.0 362.7,192.0 362.8,192.0 363.0,192.0 363.2,192.0 363.3,192.0 363.5,192.0 363.6,192.0 363.8,192.0 364.0,192.0 364.1,192.0 364.3,192.0 364.4,192.0 364.6,192.0 364.8,192.0 364.9,192.0 365.1,192.0 365.2,192.0 365.4,192.0 365.5,192.0 365.7,192.0 365.8,192.0 366.0,192.0 366.2,192.0 366.3,192.0 366.5,192.0 366.6,192.0 366.8,192.0 366.9,192.0 367.1,192.0 367.2,192.0 367.4,192.0 367.5,192.0 367.7,192.0 367.8,192.0 367.9,192.0 368.1,192.0 368.2,192.0 368.4,192.0 368.5,192.0 368.7,192.0 368.8,192.0 369.0,192.0 369.1,192.0 369.3,192.0 369.4,192.0 369.5,192.0 369.7,192.0 369.8,192.0 370.0,192.0 370.1,192.0 370.2,192.0 370.4,192.0 370.5,192.0 370.7,192.0 370.8,192.0 370.9,192.0 371.1,192.0 371.2,192.0 371.4,192.0 371.5,192.0 371.6,192.0 371.8,192.0 371.9,192.0 372.0,192.0 372.2,192.0 372.3,192.0 372.4,192.0 372.6,192.0 372.7,192.0 372.8,192.0 373.0,192.0 373.1,192.0 373.2,192.0 373.4,192.0 373.5,192.0 373.6,192.0 373.8,192.0 373.9,192.0 374.0,192.0 374.1,192.0 374.3,192.0 374.4,192.0 374.5,192.0 374.7,192.0 374.8,192.0 374.9,192.0 375.0,192.0 375.2,192.0 375.3,192.0 375.4,192.0 375.5,192.0 375.7,192.0 375.8,192.0 375.9,192.0 376.0,192.0 376.2,192.0 376.3,192.0 376.4,192.0 376.5,192.0 376.7,192.0 376.8,192.0 376.9,192.0 377.0,192.0 377.1,192.0 377.3,192.0 377.4,192.0 377.5,192.0 377.6,192.0 377.7,192.0 377.9,192.0 378.0,192.0 378.1,192.0 378.2,192.0 378.3,192.0 378.5,192.0 378.6,192.0 378.7,192.0 378.8,192.0 378.9,192.0 379.0,192.0 379.2,192.0 379.3,192.0 379.4,192.0 379.5,192.0 379.6,192.0 379.7,192.0 379.9,192.0 380.0,192.0 380.1,192.0 380.2,192.0 380.3,192.0 380.4,192.0 380.5,192.0 380.7,192.0 380.8,192.0 380.9,192.0 381.0,192.0 381.1,192.0 381.2,192.0 381.3,192.0 381.4,192.0 381.5,192.0 381.7,192.0 381.8,192.0 381.9,192.0 382.0,192.0 382.1,192.0 382.2,192.0 382.3,192.0 382.4,192.0 382.5,192.0 382.6,192.0 382.7,192.0 382.9,192.0 383.0,192.0 383.1,192.0 383.2,192.0 383.3,192.0 383.4,192.0 383.5,192.0 383.6,192.0 383.7,192.0 383.8,192.0 383.9,192.0 384.0,192.0 384.1,192.0 384.2,192.0 384.3,192.0 384.4,192.0 384.5,192.0 384.6,192.0 384.8,192.0 384.9,192.0 385.0,192.0" fill="none" stroke="#4a90d9" stroke-width="1.3" stroke-linejoin="round"/>
  <polyline points="91.6,12.0 124.8,12.0 144.1,12.0 157.9,12.0 168.5,12.0 177.2,12.0 184.6,12.0 191.0,12.0 196.6,12.0 201.6,12.0 206.2,12.0 210.4,12.0 214.2,12.0 217.7,12.1 221.0,12.1 224.1,12.2 227.0,12.4 229.7,12.7 232.3,13.2 234.8,14.0 237.1,15.0 239.3,16.5 241.4,18.3 243.5,20.5 245.4,23.1 247.3,25.8 249.1,28.7 250.8,31.8 252.5,34.8 254.1,37.9 255.7,40.9 257.2,43.9 258.7,46.8 260.1,49.7 261.5,52.5 262.8,55.2 264.1,57.9 265.4,60.5 266.7,63.0 267.9,65.5 269.0,67.9 270.2,70.3 271.3,72.6 272.4,74.9 273.5,77.1 274.5,79.3 275.6,81.4 276.6,83.5 277.6,85.6 278.5,87.6 279.5,89.5 280.4,91.5 281.3,93.3 282.2,95.2 283.1,97.0 283.9,98.8 284.8,100.6 285.6,102.3 286.4,104.0 287.2,105.7 288.0,107.4 288.8,109.0 289.6,110.6 290.3,112.2 291.1,113.7 291.8,115.3 292.5,116.8 293.2,118.3 293.9,119.7 294.6,121.2 295.3,122.6 295.9,124.0 296.6,125.4 297.3,126.8 297.9,128.2 298.5,129.5 299.2,130.8 299.8,132.1 300.4,133.4 301.0,134.7 301.6,136.0 302.2,137.2 302.7,138.5 303.3,139.7 303.9,140.9 304.4,142.1 305.0,143.3 305.5,144.4 306.1,145.6 306.6,146.7 307.1,147.9 307.7,149.0 308.2,150.1 308.7,151.2 309.2,152.3 309.7,153.4 310.2,154.5 310.7,155.5 311.2,156.6 311.6,157.7 312.1,158.7 312.6,159.7 313.1,160.7 313.5,161.7 314.0,162.7 314.4,163.7 314.9,164.7 315.3,165.7 315.8,166.7 316.2,167.6 316.6,168.6 317.1,169.5 317.5,170.5 317.9,171.4 318.3,172.3 318.7,173.3 319.1,174.2 319.5,175.1 320.0,176.0 320.4,176.9 320.7,177.8 321.1,178.7 321.5,179.5 321.9,180.4 322.3,181.3 322.7,182.1 323.1,183.0 323.4,183.8 323.8,184.7 324.2,185.5 324.5,186.4 324.9,187.2 325.3,188.0 325.6,188.8 326.0,189.7 326.3,190.5 326.7,191.3 327.0,192.0 327.4,192.0 327.7,192.0 328.1,192.0 328.4,192.0 328.7,192.0 329.1,192.0 329.4,192.0 329.7,192.0 330.0,192.0 330.4,192.0 330.7,192.0 331.0,192.0 331.3,192.0 331.6,192.0 332.0,192.0 332.3,192.0 332.6,192.0 332.9,192.0 333.2,192.0 333.5,192.0 333.8,192.0 334.1,192.0 334.4,192.0 334.7,192.0 335.0,192.0 335.3,192.0 335.6,192.0 335.9,192.0 336.1,192.0 336.4,192.0 336.7,192.0 337.0,192.0 337.3,192.0 337.6,192.0 337.8,192.0 338.1,192.0 338.4,192.0 338.6,192.0 338.9,192.0 339.2,192.0 339.5,192.0 339.7,192.0 340.0,192.0 340.2,192.0 340.5,192.0 340.8,192.0 341.0,192.0 341.3,192.0 341.5,192.0 341.8,192.0 342.1,192.0 342.3,192.0 342.6,192.0 342.8,192.0 343.1,192.0 343.3,192.0 343.5,192.0 343.8,192.0 344.0,192.0 344.3,192.0 344.5,192.0 344.8,192.0 345.0,192.0 345.2,192.0 345.5,192.0 345.7,192.0 345.9,192.0 346.2,192.0 346.4,192.0 346.6,192.0 346.9,192.0 347.1,192.0 347.3,192.0 347.5,192.0 347.8,192.0 348.0,192.0 348.2,192.0 348.4,192.0 348.7,192.0 348.9,192.0 349.1,192.0 349.3,192.0 349.5,192.0 349.7,192.0 350.0,192.0 350.2,192.0 350.4,192.0 350.6,192.0 350.8,192.0 351.0,192.0 351.2,192.0 351.4,192.0 351.6,192.0 351.8,192.0 352.1,192.0 352.3,192.0 352.5,192.0 352.7,192.0 352.9,192.0 353.1,192.0 353.3,192.0 353.5,192.0 353.7,192.0 353.9,192.0 354.1,192.0 354.3,192.0 354.5,192.0 354.6,192.0 354.8,192.0 355.0,192.0 355.2,192.0 355.4,192.0 355.6,192.0 355.8,192.0 356.0,192.0 356.2,192.0 356.4,192.0 356.5,192.0 356.7,192.0 356.9,192.0 357.1,192.0 357.3,192.0 357.5,192.0 357.7,192.0 357.8,192.0 358.0,192.0 358.2,192.0 358.4,192.0 358.6,192.0 358.7,192.0 358.9,192.0 359.1,192.0 359.3,192.0 359.4,192.0 359.6,192.0 359.8,192.0 360.0,192.0 360.1,192.0 360.3,192.0 360.5,192.0 360.7,192.0 360.8,192.0 361.0,192.0 361.2,192.0 361.3,192.0 361.5,192.0 361.7,192.0 361.8,192.0 362.0,192.0 362.2,192.0 362.3,192.0 362.5,192.0 362.7,192.0 362.8,192.0 363.0,192.0 363.2,192.0 363.3,192.0 363.5,192.0 363.6,192.0 363.8,192.0 364.0,192.0 364.1,192.0 364.3,192.0 364.4,192.0 364.6,192.0 364.8,192.0 364.9,192.0 365.1,192.0 365.2,192.0 365.4,192.0 365.5,192.0 365.7,192.0 365.8,192.0 366.0,192.0 366.2,192.0 366.3,192.0 366.5,192.0 366.6,192.0 366.8,192.0 366.9,192.0 367.1,192.0 367.2,192.0 367.4,192.0 367.5,192.0 367.7,192.0 367.8,192.0 367.9,192.0 368.1,192.0 368.2,192.0 368.4,192.0 368.5,192.0 368.7,192.0 368.8,192.0 369.0,192.0 369.1,192.0 369.3,192.0 369.4,192.0 369.5,192.0 369.7,192.0 369.8,192.0 370.0,192.0 370.1,192.0 370.2,192.0 370.4,192.0 370.5,192.0 370.7,192.0 370.8,192.0 370.9,192.0 371.1,192.0 371.2,192.0 371.4,192.0 371.5,192.0 371.6,192.0 371.8,192.0 371.9,192.0 372.0,192.0 372.2,192.0 372.3,192.0 372.4,192.0 372.6,192.0 372.7,192.0 372.8,192.0 373.0,192.0 373.1,192.0 373.2,192.0 373.4,192.0 373.5,192.0 373.6,192.0 373.8,192.0 373.9,192.0 374.0,192.0 374.1,192.0 374.3,192.0 374.4,192.0 374.5,192.0 374.7,192.0 374.8,192.0 374.9,192.0 375.0,192.0 375.2,192.0 375.3,192.0 375.4,192.0 375.5,192.0 375.7,192.0 375.8,192.0 375.9,192.0 376.0,192.0 376.2,192.0 376.3,192.0 376.4,192.0 376.5,192.0 376.7,192.0 376.8,192.0 376.9,192.0 377.0,192.0 377.1,192.0 377.3,192.0 377.4,192.0 377.5,192.0 377.6,192.0 377.7,192.0 377.9,192.0 378.0,192.0 378.1,192.0 378.2,192.0 378.3,192.0 378.5,192.0 378.6,192.0 378.7,192.0 378.8,192.0 378.9,192.0 379.0,192.0 379.2,192.0 379.3,192.0 379.4,192.0 379.5,192.0 379.6,192.0 379.7,192.0 379.9,192.0 380.0,192.0 380.1,192.0 380.2,192.0 380.3,192.0 380.4,192.0 380.5,192.0 380.7,192.0 380.8,192.0 380.9,192.0 381.0,192.0 381.1,192.0 381.2,192.0 381.3,192.0 381.4,192.0 381.5,192.0 381.7,192.0 381.8,192.0 381.9,192.0 382.0,192.0 382.1,192.0 382.2,192.0 382.3,192.0 382.4,192.0 382.5,192.0 382.6,192.0 382.7,192.0 382.9,192.0 383.0,192.0 383.1,192.0 383.2,192.0 383.3,192.0 383.4,192.0 383.5,192.0 383.6,192.0 383.7,192.0 383.8,192.0 383.9,192.0 384.0,192.0 384.1,192.0 384.2,192.0 384.3,192.0 384.4,192.0 384.5,192.0 384.6,192.0 384.8,192.0 384.9,192.0 385.0,192.0" fill="none" stroke="#4a90d9" stroke-width="1.3" stroke-linejoin="round"/>
  <polyline points="91.6,12.0 124.8,12.0 144.1,12.0 157.9,12.0 168.5,12.0 177.2,12.0 184.6,12.0 191.0,12.0 196.6,12.0 201.6,12.0 206.2,12.0 210.4,12.0 214.2,12.0 217.7,12.0 221.0,12.1 224.1,12.1 227.0,12.2 229.7,12.4 232.3,12.8 234.8,13.5 237.1,14.6 239.3,16.1 241.4,18.2 243.5,20.9 245.4,24.1 247.3,27.5 249.1,31.2 250.8,35.0 252.5,38.8 254.1,42.6 255.7,46.3 257.2,50.0 258.7,53.6 260.1,57.0 261.5,60.4 262.8,63.7 264.1,67.0 265.4,70.1 266.7,73.2 267.9,76.2 269.0,79.1 270.2,82.0 271.3,84.7 272.4,87.5 273.5,90.1 274.5,92.7 275.6,95.3 276.6,97.8 277.6,100.3 278.5,102.7 279.5,105.0 280.4,107.3 281.3,109.6 282.2,111.8 283.1,114.0 283.9,116.2 284.8,118.3 285.6,120.4 286.4,122.4 287.2,124.5 288.0,126.4 288.8,128.4 289.6,130.3 290.3,132.2 291.1,134.1 291.8,135.9 292.5,137.7 293.2,139.5 293.9,141.3 294.6,143.0 295.3,144.7 295.9,146.4 296.6,148.1 297.3,149.8 297.9,151.4 298.5,153.0 299.2,154.6 299.8,156.2 300.4,157.7 301.0,159.2 301.6,160.8 302.2,162.3 302.7,163.7 303.3,165.2 303.9,166.7 304.4,168.1 305.0,169.5 305.5,170.9 306.1,172.3 306.6,173.7 307.1,175.1 307.7,176.4 308.2,177.8 308.7,179.1 309.2,180.4 309.7,181.7 310.2,183.0 310.7,184.3 311.2,185.5 311.6,186.8 312.1,188.0 312.6,189.3 313.1,190.5 313.5,191.7 314.0,192.0 314.4,192.0 314.9,192.0 315.3,192.0 315.8,192.0 316.2,192.0 316.6,192.0 317.1,192.0 317.5,192.0 317.9,192.0 318.3,192.0 318.7,192.0 319.1,192.0 319.5,192.0 320.0,192.0 320.4,192.0 320.7,192.0 321.1,192.0 321.5,192.0 321.9,192.0 322.3,192.0 322.7,192.0 323.1,192.0 323.4,192.0 323.8,192.0 324.2,192.0 324.5,192.0 324.9,192.0 325.3,192.0 325.6,192.0 326.0,192.0 326.3,192.0 326.7,192.0 327.0,192.0 327.4,192.0 327.7,192.0 328.1,192.0 328.4,192.0 328.7,192.0 329.1,192.0 329.4,192.0 329.7,192.0 330.0,192.0 330.4,192.0 330.7,192.0 331.0,192.0 331.3,192.0 331.6,192.0 332.0,192.0 332.3,192.0 332.6,192.0 332.9,192.0 333.2,192.0 333.5,192.0 333.8,192.0 334.1,192.0 334.4,192.0 334.7,192.0 335.0,192.0 335.3,192.0 335.6,192.0 335.9,192.0 336.1,192.0 336.4,192.0 336.7,192.0 337.0,192.0 337.3,192.0 337.6,192.0 337.8,192.0 338.1,192.0 338.4,192.0 338.6,192.0 338.9,192.0 339.2,192.0 339.5,192.0 339.7,192.0 340.0,192.0 340.2,192.0 340.5,192.0 340.8,192.0 341.0,192.0 341.3,192.0 341.5,192.0 341.8,192.0 342.1,192.0 342.3,192.0 342.6,192.0 342.8,192.0 343.1,192.0 343.3,192.0 343.5,192.0 343.8,192.0 344.0,192.0 344.3,192.0 344.5,192.0 344.8,192.0 345.0,192.0 345.2,192.0 345.5,192.0 345.7,192.0 345.9,192.0 346.2,192.0 346.4,192.0 346.6,192.0 346.9,192.0 347.1,192.0 347.3,192.0 347.5,192.0 347.8,192.0 348.0,192.0 348.2,192.0 348.4,192.0 348.7,192.0 348.9,192.0 349.1,192.0 349.3,192.0 349.5,192.0 349.7,192.0 350.0,192.0 350.2,192.0 350.4,192.0 350.6,192.0 350.8,192.0 351.0,192.0 351.2,192.0 351.4,192.0 351.6,192.0 351.8,192.0 352.1,192.0 352.3,192.0 352.5,192.0 352.7,192.0 352.9,192.0 353.1,192.0 353.3,192.0 353.5,192.0 353.7,192.0 353.9,192.0 354.1,192.0 354.3,192.0 354.5,192.0 354.6,192.0 354.8,192.0 355.0,192.0 355.2,192.0 355.4,192.0 355.6,192.0 355.8,192.0 356.0,192.0 356.2,192.0 356.4,192.0 356.5,192.0 356.7,192.0 356.9,192.0 357.1,192.0 357.3,192.0 357.5,192.0 357.7,192.0 357.8,192.0 358.0,192.0 358.2,192.0 358.4,192.0 358.6,192.0 358.7,192.0 358.9,192.0 359.1,192.0 359.3,192.0 359.4,192.0 359.6,192.0 359.8,192.0 360.0,192.0 360.1,192.0 360.3,192.0 360.5,192.0 360.7,192.0 360.8,192.0 361.0,192.0 361.2,192.0 361.3,192.0 361.5,192.0 361.7,192.0 361.8,192.0 362.0,192.0 362.2,192.0 362.3,192.0 362.5,192.0 362.7,192.0 362.8,192.0 363.0,192.0 363.2,192.0 363.3,192.0 363.5,192.0 363.6,192.0 363.8,192.0 364.0,192.0 364.1,192.0 364.3,192.0 364.4,192.0 364.6,192.0 364.8,192.0 364.9,192.0 365.1,192.0 365.2,192.0 365.4,192.0 365.5,192.0 365.7,192.0 365.8,192.0 366.0,192.0 366.2,192.0 366.3,192.0 366.5,192.0 366.6,192.0 366.8,192.0 366.9,192.0 367.1,192.0 367.2,192.0 367.4,192.0 367.5,192.0 367.7,192.0 367.8,192.0 367.9,192.0 368.1,192.0 368.2,192.0 368.4,192.0 368.5,192.0 368.7,192.0 368.8,192.0 369.0,192.0 369.1,192.0 369.3,192.0 369.4,192.0 369.5,192.0 369.7,192.0 369.8,192.0 370.0,192.0 370.1,192.0 370.2,192.0 370.4,192.0 370.5,192.0 370.7,192.0 370.8,192.0 370.9,192.0 371.1,192.0 371.2,192.0 371.4,192.0 371.5,192.0 371.6,192.0 371.8,192.0 371.9,192.0 372.0,192.0 372.2,192.0 372.3,192.0 372.4,192.0 372.6,192.0 372.7,192.0 372.8,192.0 373.0,192.0 373.1,192.0 373.2,192.0 373.4,192.0 373.5,192.0 373.6,192.0 373.8,192.0 373.9,192.0 374.0,192.0 374.1,192.0 374.3,192.0 374.4,192.0 374.5,192.0 374.7,192.0 374.8,192.0 374.9,192.0 375.0,192.0 375.2,192.0 375.3,192.0 375.4,192.0 375.5,192.0 375.7,192.0 375.8,192.0 375.9,192.0 376.0,192.0 376.2,192.0 376.3,192.0 376.4,192.0 376.5,192.0 376.7,192.0 376.8,192.0 376.9,192.0 377.0,192.0 377.1,192.0 377.3,192.0 377.4,192.0 377.5,192.0 377.6,192.0 377.7,192.0 377.9,192.0 378.0,192.0 378.1,192.0 378.2,192.0 378.3,192.0 378.5,192.0 378.6,192.0 378.7,192.0 378.8,192.0 378.9,192.0 379.0,192.0 379.2,192.0 379.3,192.0 379.4,192.0 379.5,192.0 379.6,192.0 379.7,192.0 379.9,192.0 380.0,192.0 380.1,192.0 380.2,192.0 380.3,192.0 380.4,192.0 380.5,192.0 380.7,192.0 380.8,192.0 380.9,192.0 381.0,192.0 381.1,192.0 381.2,192.0 381.3,192.0 381.4,192.0 381.5,192.0 381.7,192.0 381.8,192.0 381.9,192.0 382.0,192.0 382.1,192.0 382.2,192.0 382.3,192.0 382.4,192.0 382.5,192.0 382.6,192.0 382.7,192.0 382.9,192.0 383.0,192.0 383.1,192.0 383.2,192.0 383.3,192.0 383.4,192.0 383.5,192.0 383.6,192.0 383.7,192.0 383.8,192.0 383.9,192.0 384.0,192.0 384.1,192.0 384.2,192.0 384.3,192.0 384.4,192.0 384.5,192.0 384.6,192.0 384.8,192.0 384.9,192.0 385.0,192.0" fill="none" stroke="#4a90d9" stroke-width="1.3" stroke-linejoin="round"/>
  <polyline points="91.6,12.0 124.8,12.0 144.1,12.0 157.9,12.0 168.5,12.0 177.2,12.0 184.6,12.0 191.0,12.0 196.6,12.0 201.6,12.0 206.2,12.0 210.4,12.0 214.2,12.0 217.7,12.0 221.0,12.0 224.1,12.1 227.0,12.1 229.7,12.3 232.3,12.6 234.8,13.1 237.1,14.1 239.3,15.8 241.4,18.1 243.5,21.3 245.4,25.1 247.3,29.3 249.1,33.8 250.8,38.4 252.5,43.0 254.1,47.5 255.7,51.9 257.2,56.2 258.7,60.4 260.1,64.5 261.5,68.5 262.8,72.3 264.1,76.1 265.4,79.8 266.7,83.4 267.9,86.9 269.0,90.3 270.2,93.6 271.3,96.9 272.4,100.0 273.5,103.2 274.5,106.2 275.6,109.2 276.6,112.1 277.6,115.0 278.5,117.8 279.5,120.5 280.4,123.2 281.3,125.9 282.2,128.5 283.1,131.0 283.9,133.6 284.8,136.0 285.6,138.5 286.4,140.8 287.2,143.2 288.0,145.5 288.8,147.8 289.6,150.0 290.3,152.2 291.1,154.4 291.8,156.6 292.5,158.7 293.2,160.8 293.9,162.8 294.6,164.9 295.3,166.9 295.9,168.8 296.6,170.8 297.3,172.7 297.9,174.6 298.5,176.5 299.2,178.3 299.8,180.2 300.4,182.0 301.0,183.8 301.6,185.6 302.2,187.3 302.7,189.0 303.3,190.7 303.9,192.0 304.4,192.0 305.0,192.0 305.5,192.0 306.1,192.0 306.6,192.0 307.1,192.0 307.7,192.0 308.2,192.0 308.7,192.0 309.2,192.0 309.7,192.0 310.2,192.0 310.7,192.0 311.2,192.0 311.6,192.0 312.1,192.0 312.6,192.0 313.1,192.0 313.5,192.0 314.0,192.0 314.4,192.0 314.9,192.0 315.3,192.0 315.8,192.0 316.2,192.0 316.6,192.0 317.1,192.0 317.5,192.0 317.9,192.0 318.3,192.0 318.7,192.0 319.1,192.0 319.5,192.0 320.0,192.0 320.4,192.0 320.7,192.0 321.1,192.0 321.5,192.0 321.9,192.0 322.3,192.0 322.7,192.0 323.1,192.0 323.4,192.0 323.8,192.0 324.2,192.0 324.5,192.0 324.9,192.0 325.3,192.0 325.6,192.0 326.0,192.0 326.3,192.0 326.7,192.0 327.0,192.0 327.4,192.0 327.7,192.0 328.1,192.0 328.4,192.0 328.7,192.0 329.1,192.0 329.4,192.0 329.7,192.0 330.0,192.0 330.4,192.0 330.7,192.0 331.0,192.0 331.3,192.0 331.6,192.0 332.0,192.0 332.3,192.0 332.6,192.0 332.9,192.0 333.2,192.0 333.5,192.0 333.8,192.0 334.1,192.0 334.4,192.0 334.7,192.0 335.0,192.0 335.3,192.0 335.6,192.0 335.9,192.0 336.1,192.0 336.4,192.0 336.7,192.0 337.0,192.0 337.3,192.0 337.6,192.0 337.8,192.0 338.1,192.0 338.4,192.0 338.6,192.0 338.9,192.0 339.2,192.0 339.5,192.0 339.7,192.0 340.0,192.0 340.2,192.0 340.5,192.0 340.8,192.0 341.0,192.0 341.3,192.0 341.5,192.0 341.8,192.0 342.1,192.0 342.3,192.0 342.6,192.0 342.8,192.0 343.1,192.0 343.3,192.0 343.5,192.0 343.8,192.0 344.0,192.0 344.3,192.0 344.5,192.0 344.8,192.0 345.0,192.0 345.2,192.0 345.5,192.0 345.7,192.0 345.9,192.0 346.2,192.0 346.4,192.0 346.6,192.0 346.9,192.0 347.1,192.0 347.3,192.0 347.5,192.0 347.8,192.0 348.0,192.0 348.2,192.0 348.4,192.0 348.7,192.0 348.9,192.0 349.1,192.0 349.3,192.0 349.5,192.0 349.7,192.0 350.0,192.0 350.2,192.0 350.4,192.0 350.6,192.0 350.8,192.0 351.0,192.0 351.2,192.0 351.4,192.0 351.6,192.0 351.8,192.0 352.1,192.0 352.3,192.0 352.5,192.0 352.7,192.0 352.9,192.0 353.1,192.0 353.3,192.0 353.5,192.0 353.7,192.0 353.9,192.0 354.1,192.0 354.3,192.0 354.5,192.0 354.6,192.0 354.8,192.0 355.0,192.0 355.2,192.0 355.4,192.0 355.6,192.0 355.8,192.0 356.0,192.0 356.2,192.0 356.4,192.0 356.5,192.0 356.7,192.0 356.9,192.0 357.1,192.0 357.3,192.0 357.5,192.0 357.7,192.0 357.8,192.0 358.0,192.0 358.2,192.0 358.4,192.0 358.6,192.0 358.7,192.0 358.9,192.0 359.1,192.0 359.3,192.0 359.4,192.0 359.6,192.0 359.8,192.0 360.0,192.0 360.1,192.0 360.3,192.0 360.5,192.0 360.7,192.0 360.8,192.0 361.0,192.0 361.2,192.0 361.3,192.0 361.5,192.0 361.7,192.0 361.8,192.0 362.0,192.0 362.2,192.0 362.3,192.0 362.5,192.0 362.7,192.0 362.8,192.0 363.0,192.0 363.2,192.0 363.3,192.0 363.5,192.0 363.6,192.0 363.8,192.0 364.0,192.0 364.1,192.0 364.3,192.0 364.4,192.0 364.6,192.0 364.8,192.0 364.9,192.0 365.1,192.0 365.2,192.0 365.4,192.0 365.5,192.0 365.7,192.0 365.8,192.0 366.0,192.0 366.2,192.0 366.3,192.0 366.5,192.0 366.6,192.0 366.8,192.0 366.9,192.0 367.1,192.0 367.2,192.0 367.4,192.0 367.5,192.0 367.7,192.0 367.8,192.0 367.9,192.0 368.1,192.0 368.2,192.0 368.4,192.0 368.5,192.0 368.7,192.0 368.8,192.0 369.0,192.0 369.1,192.0 369.3,192.0 369.4,192.0 369.5,192.0 369.7,192.0 369.8,192.0 370.0,192.0 370.1,192.0 370.2,192.0 370.4,192.0 370.5,192.0 370.7,192.0 370.8,192.0 370.9,192.0 371.1,192.0 371.2,192.0 371.4,192.0 371.5,192.0 371.6,192.0 371.8,192.0 371.9,192.0 372.0,192.0 372.2,192.0 372.3,192.0 372.4,192.0 372.6,192.0 372.7,192.0 372.8,192.0 373.0,192.0 373.1,192.0 373.2,192.0 373.4,192.0 373.5,192.0 373.6,192.0 373.8,192.0 373.9,192.0 374.0,192.0 374.1,192.0 374.3,192.0 374.4,192.0 374.5,192.0 374.7,192.0 374.8,192.0 374.9,192.0 375.0,192.0 375.2,192.0 375.3,192.0 375.4,192.0 375.5,192.0 375.7,192.0 375.8,192.0 375.9,192.0 376.0,192.0 376.2,192.0 376.3,192.0 376.4,192.0 376.5,192.0 376.7,192.0 376.8,192.0 376.9,192.0 377.0,192.0 377.1,192.0 377.3,192.0 377.4,192.0 377.5,192.0 377.6,192.0 377.7,192.0 377.9,192.0 378.0,192.0 378.1,192.0 378.2,192.0 378.3,192.0 378.5,192.0 378.6,192.0 378.7,192.0 378.8,192.0 378.9,192.0 379.0,192.0 379.2,192.0 379.3,192.0 379.4,192.0 379.5,192.0 379.6,192.0 379.7,192.0 379.9,192.0 380.0,192.0 380.1,192.0 380.2,192.0 380.3,192.0 380.4,192.0 380.5,192.0 380.7,192.0 380.8,192.0 380.9,192.0 381.0,192.0 381.1,192.0 381.2,192.0 381.3,192.0 381.4,192.0 381.5,192.0 381.7,192.0 381.8,192.0 381.9,192.0 382.0,192.0 382.1,192.0 382.2,192.0 382.3,192.0 382.4,192.0 382.5,192.0 382.6,192.0 382.7,192.0 382.9,192.0 383.0,192.0 383.1,192.0 383.2,192.0 383.3,192.0 383.4,192.0 383.5,192.0 383.6,192.0 383.7,192.0 383.8,192.0 383.9,192.0 384.0,192.0 384.1,192.0 384.2,192.0 384.3,192.0 384.4,192.0 384.5,192.0 384.6,192.0 384.8,192.0 384.9,192.0 385.0,192.0" fill="none" stroke="#4a90d9" stroke-width="1.3" stroke-linejoin="round"/>
  <polyline points="91.6,12.0 124.8,12.0 144.1,12.0 157.9,12.0 168.5,12.0 177.2,12.0 184.6,12.0 191.0,12.0 196.6,12.0 201.6,12.0 206.2,12.0 210.4,12.0 214.2,12.0 217.7,12.0 221.0,12.0 224.1,12.0 227.0,12.1 229.7,12.2 232.3,12.4 234.8,12.9 237.1,13.8 239.3,15.4 241.4,18.1 243.5,21.7 245.4,26.2 247.3,31.2 249.1,36.5 250.8,41.9 252.5,47.2 254.1,52.4 255.7,57.5 257.2,62.4 258.7,67.3 260.1,71.9 261.5,76.5 262.8,80.9 264.1,85.3 265.4,89.5 266.7,93.6 267.9,97.6 269.0,101.5 270.2,105.3 271.3,109.0 272.4,112.6 273.5,116.2 274.5,119.7 275.6,123.1 276.6,126.4 277.6,129.7 278.5,132.9 279.5,136.0 280.4,139.1 281.3,142.2 282.2,145.1 283.1,148.0 283.9,150.9 284.8,153.7 285.6,156.5 286.4,159.3 287.2,161.9 288.0,164.6 288.8,167.2 289.6,169.8 290.3,172.3 291.1,174.8 291.8,177.2 292.5,179.6 293.2,182.0 293.9,184.4 294.6,186.7 295.3,189.0 295.9,191.2 296.6,192.0 297.3,192.0 297.9,192.0 298.5,192.0 299.2,192.0 299.8,192.0 300.4,192.0 301.0,192.0 301.6,192.0 302.2,192.0 302.7,192.0 303.3,192.0 303.9,192.0 304.4,192.0 305.0,192.0 305.5,192.0 306.1,192.0 306.6,192.0 307.1,192.0 307.7,192.0 308.2,192.0 308.7,192.0 309.2,192.0 309.7,192.0 310.2,192.0 310.7,192.0 311.2,192.0 311.6,192.0 312.1,192.0 312.6,192.0 313.1,192.0 313.5,192.0 314.0,192.0 314.4,192.0 314.9,192.0 315.3,192.0 315.8,192.0 316.2,192.0 316.6,192.0 317.1,192.0 317.5,192.0 317.9,192.0 318.3,192.0 318.7,192.0 319.1,192.0 319.5,192.0 320.0,192.0 320.4,192.0 320.7,192.0 321.1,192.0 321.5,192.0 321.9,192.0 322.3,192.0 322.7,192.0 323.1,192.0 323.4,192.0 323.8,192.0 324.2,192.0 324.5,192.0 324.9,192.0 325.3,192.0 325.6,192.0 326.0,192.0 326.3,192.0 326.7,192.0 327.0,192.0 327.4,192.0 327.7,192.0 328.1,192.0 328.4,192.0 328.7,192.0 329.1,192.0 329.4,192.0 329.7,192.0 330.0,192.0 330.4,192.0 330.7,192.0 331.0,192.0 331.3,192.0 331.6,192.0 332.0,192.0 332.3,192.0 332.6,192.0 332.9,192.0 333.2,192.0 333.5,192.0 333.8,192.0 334.1,192.0 334.4,192.0 334.7,192.0 335.0,192.0 335.3,192.0 335.6,192.0 335.9,192.0 336.1,192.0 336.4,192.0 336.7,192.0 337.0,192.0 337.3,192.0 337.6,192.0 337.8,192.0 338.1,192.0 338.4,192.0 338.6,192.0 338.9,192.0 339.2,192.0 339.5,192.0 339.7,192.0 340.0,192.0 340.2,192.0 340.5,192.0 340.8,192.0 341.0,192.0 341.3,192.0 341.5,192.0 341.8,192.0 342.1,192.0 342.3,192.0 342.6,192.0 342.8,192.0 343.1,192.0 343.3,192.0 343.5,192.0 343.8,192.0 344.0,192.0 344.3,192.0 344.5,192.0 344.8,192.0 345.0,192.0 345.2,192.0 345.5,192.0 345.7,192.0 345.9,192.0 346.2,192.0 346.4,192.0 346.6,192.0 346.9,192.0 347.1,192.0 347.3,192.0 347.5,192.0 347.8,192.0 348.0,192.0 348.2,192.0 348.4,192.0 348.7,192.0 348.9,192.0 349.1,192.0 349.3,192.0 349.5,192.0 349.7,192.0 350.0,192.0 350.2,192.0 350.4,192.0 350.6,192.0 350.8,192.0 351.0,192.0 351.2,192.0 351.4,192.0 351.6,192.0 351.8,192.0 352.1,192.0 352.3,192.0 352.5,192.0 352.7,192.0 352.9,192.0 353.1,192.0 353.3,192.0 353.5,192.0 353.7,192.0 353.9,192.0 354.1,192.0 354.3,192.0 354.5,192.0 354.6,192.0 354.8,192.0 355.0,192.0 355.2,192.0 355.4,192.0 355.6,192.0 355.8,192.0 356.0,192.0 356.2,192.0 356.4,192.0 356.5,192.0 356.7,192.0 356.9,192.0 357.1,192.0 357.3,192.0 357.5,192.0 357.7,192.0 357.8,192.0 358.0,192.0 358.2,192.0 358.4,192.0 358.6,192.0 358.7,192.0 358.9,192.0 359.1,192.0 359.3,192.0 359.4,192.0 359.6,192.0 359.8,192.0 360.0,192.0 360.1,192.0 360.3,192.0 360.5,192.0 360.7,192.0 360.8,192.0 361.0,192.0 361.2,192.0 361.3,192.0 361.5,192.0 361.7,192.0 361.8,192.0 362.0,192.0 362.2,192.0 362.3,192.0 362.5,192.0 362.7,192.0 362.8,192.0 363.0,192.0 363.2,192.0 363.3,192.0 363.5,192.0 363.6,192.0 363.8,192.0 364.0,192.0 364.1,192.0 364.3,192.0 364.4,192.0 364.6,192.0 364.8,192.0 364.9,192.0 365.1,192.0 365.2,192.0 365.4,192.0 365.5,192.0 365.7,192.0 365.8,192.0 366.0,192.0 366.2,192.0 366.3,192.0 366.5,192.0 366.6,192.0 366.8,192.0 366.9,192.0 367.1,192.0 367.2,192.0 367.4,192.0 367.5,192.0 367.7,192.0 367.8,192.0 367.9,192.0 368.1,192.0 368.2,192.0 368.4,192.0 368.5,192.0 368.7,192.0 368.8,192.0 369.0,192.0 369.1,192.0 369.3,192.0 369.4,192.0 369.5,192.0 369.7,192.0 369.8,192.0 370.0,192.0 370.1,192.0 370.2,192.0 370.4,192.0 370.5,192.0 370.7,192.0 370.8,192.0 370.9,192.0 371.1,192.0 371.2,192.0 371.4,192.0 371.5,192.0 371.6,192.0 371.8,192.0 371.9,192.0 372.0,192.0 372.2,192.0 372.3,192.0 372.4,192.0 372.6,192.0 372.7,192.0 372.8,192.0 373.0,192.0 373.1,192.0 373.2,192.0 373.4,192.0 373.5,192.0 373.6,192.0 373.8,192.0 373.9,192.0 374.0,192.0 374.1,192.0 374.3,192.0 374.4,192.0 374.5,192.0 374.7,192.0 374.8,192.0 374.9,192.0 375.0,192.0 375.2,192.0 375.3,192.0 375.4,192.0 375.5,192.0 375.7,192.0 375.8,192.0 375.9,192.0 376.0,192.0 376.2,192.0 376.3,192.0 376.4,192.0 376.5,192.0 376.7,192.0 376.8,192.0 376.9,192.0 377.0,192.0 377.1,192.0 377.3,192.0 377.4,192.0 377.5,192.0 377.6,192.0 377.7,192.0 377.9,192.0 378.0,192.0 378.1,192.0 378.2,192.0 378.3,192.0 378.5,192.0 378.6,192.0 378.7,192.0 378.8,192.0 378.9,192.0 379.0,192.0 379.2,192.0 379.3,192.0 379.4,192.0 379.5,192.0 379.6,192.0 379.7,192.0 379.9,192.0 380.0,192.0 380.1,192.0 380.2,192.0 380.3,192.0 380.4,192.0 380.5,192.0 380.7,192.0 380.8,192.0 380.9,192.0 381.0,192.0 381.1,192.0 381.2,192.0 381.3,192.0 381.4,192.0 381.5,192.0 381.7,192.0 381.8,192.0 381.9,192.0 382.0,192.0 382.1,192.0 382.2,192.0 382.3,192.0 382.4,192.0 382.5,192.0 382.6,192.0 382.7,192.0 382.9,192.0 383.0,192.0 383.1,192.0 383.2,192.0 383.3,192.0 383.4,192.0 383.5,192.0 383.6,192.0 383.7,192.0 383.8,192.0 383.9,192.0 384.0,192.0 384.1,192.0 384.2,192.0 384.3,192.0 384.4,192.0 384.5,192.0 384.6,192.0 384.8,192.0 384.9,192.0 385.0,192.0" fill="none" stroke="#4a90d9" stroke-width="1.3" stroke-linejoin="round"/>
  <line x1="445" y1="12" x2="445" y2="192" stroke="#d1d5db"/>
  <line x1="445" y1="192" x2="775" y2="192" stroke="#d1d5db"/>
  <text x="610" y="222" text-anchor="middle" font-size="10" fill="#6b7280">Samples</text>
  <text x="407" y="102" text-anchor="middle" font-size="10" fill="#6b7280" transform="rotate(-90 407 102)">Amplitude</text>
  <line x1="445.0" y1="12" x2="445.0" y2="192" stroke="#e5e7eb" stroke-width="0.5"/>
  <text x="445.0" y="205" text-anchor="middle" font-size="9" fill="#6b7280">0</text>
  <line x1="582.5" y1="12" x2="582.5" y2="192" stroke="#e5e7eb" stroke-width="0.5"/>
  <text x="582.5" y="205" text-anchor="middle" font-size="9" fill="#6b7280">50</text>
  <line x1="720.0" y1="12" x2="720.0" y2="192" stroke="#e5e7eb" stroke-width="0.5"/>
  <text x="720.0" y="205" text-anchor="middle" font-size="9" fill="#6b7280">100</text>
  <line x1="445" y1="192.0" x2="775" y2="192.0" stroke="#e5e7eb" stroke-width="0.5"/>
  <text x="441" y="195.0" text-anchor="end" font-size="9" fill="#6b7280">0</text>
  <line x1="445" y1="122.8" x2="775" y2="122.8" stroke="#e5e7eb" stroke-width="0.5"/>
  <text x="441" y="125.8" text-anchor="end" font-size="9" fill="#6b7280">0.5</text>
  <line x1="445" y1="53.5" x2="775" y2="53.5" stroke="#e5e7eb" stroke-width="0.5"/>
  <text x="441" y="56.5" text-anchor="end" font-size="9" fill="#6b7280">1</text>
  <polyline points="445.0,182.8 447.8,165.6 450.5,150.6 453.3,137.7 456.0,126.5 458.8,116.8 461.5,108.4 464.3,101.0 467.0,94.7 469.8,89.2 472.5,84.5 475.3,80.4 478.0,76.8 480.8,73.7 483.5,71.0 486.3,68.7 489.0,66.7 491.8,64.9 494.5,63.4 497.3,62.1 500.0,60.9 502.8,60.0 505.5,59.1 508.3,58.4 511.0,57.7 513.8,57.2 516.5,56.7 519.3,56.3 522.0,55.9 524.8,55.6 527.5,55.3 530.3,55.1 533.0,54.9 535.8,54.7 538.5,54.5 541.3,54.4 544.0,54.3 546.8,54.2 549.5,54.1 552.3,54.0 555.0,54.0 557.8,53.9 560.5,53.9 563.3,53.8 566.0,53.8 568.8,53.7 571.5,53.7 574.3,53.7 577.0,53.7 579.8,53.7 582.5,53.6 585.3,53.6 588.0,53.6 590.8,53.6 593.5,53.6 596.3,53.6 599.0,53.6 601.8,53.6 604.5,53.6 607.3,53.6 610.0,53.6 612.8,53.6 615.5,53.6 618.3,53.6 621.0,53.6 623.8,53.6 626.5,53.5 629.3,53.5 632.0,53.5 634.8,53.5 637.5,53.5 640.3,53.5 643.0,53.5 645.8,53.5 648.5,53.5 651.3,53.5 654.0,53.5 656.8,53.5 659.5,53.5 662.3,53.5 665.0,53.5 667.8,53.5 670.5,53.5 673.3,53.5 676.0,53.5 678.8,53.5 681.5,53.5 684.3,53.5 687.0,53.5 689.8,53.5 692.5,53.5 695.3,53.5 698.0,53.5 700.8,53.5 703.5,53.5 706.3,53.5 709.0,53.5 711.8,53.5 714.5,53.5 717.3,53.5 720.0,53.5 722.8,53.5 725.5,53.5 728.3,53.5 731.0,53.5 733.8,53.5 736.5,53.5 739.3,53.5 742.0,53.5 744.8,53.5 747.5,53.5 750.3,53.5 753.0,53.5 755.8,53.5 758.5,53.5 761.3,53.5 764.0,53.5 766.8,53.5 769.5,53.5 772.3,53.5" fill="none" stroke="#4a90d9" stroke-width="1.3" stroke-linejoin="round"/>
  <polyline points="445.0,191.4 447.8,188.9 450.5,184.5 453.3,178.4 456.0,171.1 458.8,163.0 461.5,154.4 464.3,145.5 467.0,136.5 469.8,127.6 472.5,119.0 475.3,110.7 478.0,103.0 480.8,95.7 483.5,88.9 486.3,82.8 489.0,77.2 491.8,72.2 494.5,67.8 497.3,63.9 500.0,60.6 502.8,57.7 505.5,55.2 508.3,53.2 511.0,51.6 513.8,50.3 516.5,49.3 519.3,48.5 522.0,48.0 524.8,47.7 527.5,47.5 530.3,47.5 533.0,47.6 535.8,47.8 538.5,48.1 541.3,48.4 544.0,48.7 546.8,49.1 549.5,49.5 552.3,49.9 555.0,50.3 557.8,50.7 560.5,51.0 563.3,51.4 566.0,51.7 568.8,52.0 571.5,52.2 574.3,52.5 577.0,52.7 579.8,52.9 582.5,53.1 585.3,53.2 588.0,53.3 590.8,53.5 593.5,53.5 596.3,53.6 599.0,53.7 601.8,53.7 604.5,53.8 607.3,53.8 610.0,53.8 612.8,53.8 615.5,53.8 618.3,53.8 621.0,53.8 623.8,53.8 626.5,53.8 629.3,53.7 632.0,53.7 634.8,53.7 637.5,53.7 640.3,53.7 643.0,53.7 645.8,53.7 648.5,53.6 651.3,53.6 654.0,53.6 656.8,53.6 659.5,53.6 662.3,53.6 665.0,53.6 667.8,53.6 670.5,53.6 673.3,53.5 676.0,53.5 678.8,53.5 681.5,53.5 684.3,53.5 687.0,53.5 689.8,53.5 692.5,53.5 695.3,53.5 698.0,53.5 700.8,53.5 703.5,53.5 706.3,53.5 709.0,53.5 711.8,53.5 714.5,53.5 717.3,53.5 720.0,53.5 722.8,53.5 725.5,53.5 728.3,53.5 731.0,53.5 733.8,53.5 736.5,53.5 739.3,53.5 742.0,53.5 744.8,53.5 747.5,53.5 750.3,53.5 753.0,53.5 755.8,53.5 758.5,53.5 761.3,53.5 764.0,53.5 766.8,53.5 769.5,53.5 772.3,53.5" fill="none" stroke="#e74c3c" stroke-width="1.3" stroke-linejoin="round"/>
  <polyline points="445.0,192.0 447.8,192.0 450.5,191.9 453.3,191.7 456.0,191.2 458.8,190.5 461.5,189.3 464.3,187.7 467.0,185.5 469.8,182.7 472.5,179.3 475.3,175.3 478.0,170.6 480.8,165.4 483.5,159.6 486.3,153.3 489.0,146.6 491.8,139.6 494.5,132.3 497.3,124.9 500.0,117.4 502.8,109.8 505.5,102.4 508.3,95.2 511.0,88.3 513.8,81.6 516.5,75.4 519.3,69.5 522.0,64.2 524.8,59.3 527.5,55.0 530.3,51.2 533.0,47.9 535.8,45.1 538.5,42.9 541.3,41.1 544.0,39.8 546.8,39.0 549.5,38.5 552.3,38.5 555.0,38.7 557.8,39.2 560.5,39.9 563.3,40.9 566.0,42.0 568.8,43.2 571.5,44.5 574.3,45.8 577.0,47.2 579.8,48.5 582.5,49.8 585.3,51.0 588.0,52.2 590.8,53.2 593.5,54.2 596.3,55.0 599.0,55.7 601.8,56.4 604.5,56.8 607.3,57.2 610.0,57.5 612.8,57.6 615.5,57.7 618.3,57.7 621.0,57.6 623.8,57.4 626.5,57.2 629.3,56.9 632.0,56.6 634.8,56.2 637.5,55.9 640.3,55.5 643.0,55.2 645.8,54.8 648.5,54.4 651.3,54.1 654.0,53.8 656.8,53.5 659.5,53.3 662.3,53.1 665.0,52.9 667.8,52.7 670.5,52.6 673.3,52.5 676.0,52.4 678.8,52.4 681.5,52.4 684.3,52.4 687.0,52.4 689.8,52.5 692.5,52.5 695.3,52.6 698.0,52.7 700.8,52.8 703.5,52.9 706.3,53.0 709.0,53.1 711.8,53.2 714.5,53.3 717.3,53.4 720.0,53.5 722.8,53.5 725.5,53.6 728.3,53.7 731.0,53.7 733.8,53.8 736.5,53.8 739.3,53.8 742.0,53.8 744.8,53.9 747.5,53.9 750.3,53.9 753.0,53.8 755.8,53.8 758.5,53.8 761.3,53.8 764.0,53.8 766.8,53.7 769.5,53.7 772.3,53.7" fill="none" stroke="#2ecc71" stroke-width="1.3" stroke-linejoin="round"/>
  <polyline points="445.0,192.0 447.8,192.0 450.5,192.0 453.3,192.0 456.0,192.0 458.8,192.0 461.5,192.0 464.3,192.0 467.0,192.0 469.8,192.0 472.5,192.0 475.3,191.9 478.0,191.9 480.8,191.8 483.5,191.6 486.3,191.5 489.0,191.2 491.8,190.8 494.5,190.3 497.3,189.7 500.0,188.9 502.8,188.0 505.5,186.7 508.3,185.3 511.0,183.5 513.8,181.5 516.5,179.1 519.3,176.4 522.0,173.3 524.8,169.8 527.5,166.0 530.3,161.7 533.0,157.1 535.8,152.2 538.5,146.9 541.3,141.3 544.0,135.4 546.8,129.2 549.5,122.9 552.3,116.4 555.0,109.8 557.8,103.1 560.5,96.5 563.3,89.9 566.0,83.5 568.8,77.2 571.5,71.2 574.3,65.5 577.0,60.1 579.8,55.1 582.5,50.5 585.3,46.3 588.0,42.6 590.8,39.4 593.5,36.7 596.3,34.6 599.0,32.9 601.8,31.7 604.5,31.0 607.3,30.8 610.0,31.0 612.8,31.6 615.5,32.6 618.3,33.8 621.0,35.4 623.8,37.2 626.5,39.2 629.3,41.3 632.0,43.5 634.8,45.7 637.5,48.0 640.3,50.2 643.0,52.3 645.8,54.3 648.5,56.2 651.3,57.9 654.0,59.4 656.8,60.7 659.5,61.7 662.3,62.6 665.0,63.2 667.8,63.6 670.5,63.8 673.3,63.8 676.0,63.5 678.8,63.1 681.5,62.5 684.3,61.8 687.0,61.0 689.8,60.0 692.5,59.0 695.3,58.0 698.0,56.9 700.8,55.8 703.5,54.7 706.3,53.7 709.0,52.7 711.8,51.8 714.5,51.0 717.3,50.3 720.0,49.7 722.8,49.2 725.5,48.8 728.3,48.5 731.0,48.3 733.8,48.3 736.5,48.4 739.3,48.5 742.0,48.8 744.8,49.1 747.5,49.5 750.3,50.0 753.0,50.5 755.8,51.0 758.5,51.6 761.3,52.1 764.0,52.7 766.8,53.2 769.5,53.8 772.3,54.3" fill="none" stroke="#f39c12" stroke-width="1.3" stroke-linejoin="round"/>
  <rect x="55" y="220" width="10" height="3" fill="#4a90d9" rx="1"/>
  <text x="69" y="224" font-size="9" fill="#6b7280">N=1</text>
  <rect x="195" y="220" width="10" height="3" fill="#e74c3c" rx="1"/>
  <text x="209" y="224" font-size="9" fill="#6b7280">N=2</text>
  <rect x="335" y="220" width="10" height="3" fill="#2ecc71" rx="1"/>
  <text x="349" y="224" font-size="9" fill="#6b7280">N=4</text>
  <rect x="475" y="220" width="10" height="3" fill="#f39c12" rx="1"/>
  <text x="489" y="224" font-size="9" fill="#6b7280">N=8</text>
</svg>
