<svg xmlns="http://www.w3.org/2000/svg" viewBox="0 0 800 420" style="font-family:system-ui,-apple-system,sans-serif">
  <text x="55" y="416" font-size="11" font-weight="600" fill="#6b7280">Butterworth HP order 4, fc=1kHz</text>
  <line x1="55" y1="12" x2="55" y2="162" stroke="#d1d5db"/>
  <line x1="55" y1="42.0" x2="385" y2="42.0" stroke="#d1d5db"/>
  <text x="220" y="190" text-anchor="middle" font-size="9" fill="#6b7280">Hz</text>
  <text x="29" y="87" text-anchor="middle" font-size="9" fill="#6b7280" transform="rotate(-90 29 87)">dB</text>
  <line x1="85.1" y1="12" x2="85.1" y2="162" stroke="#e5e7eb" stroke-width="0.5"/>
  <line x1="102.7" y1="12" x2="102.7" y2="162" stroke="#e5e7eb" stroke-width="0.5"/>
  <line x1="115.2" y1="12" x2="115.2" y2="162" stroke="#e5e7eb" stroke-width="0.5"/>
  <line x1="124.9" y1="12" x2="124.9" y2="162" stroke="#e5e7eb" stroke-width="0.5"/>
  <line x1="132.8" y1="12" x2="132.8" y2="162" stroke="#e5e7eb" stroke-width="0.5"/>
  <line x1="139.5" y1="12" x2="139.5" y2="162" stroke="#e5e7eb" stroke-width="0.5"/>
  <line x1="145.3" y1="12" x2="145.3" y2="162" stroke="#e5e7eb" stroke-width="0.5"/>
  <line x1="150.4" y1="12" x2="150.4" y2="162" stroke="#e5e7eb" stroke-width="0.5"/>
  <line x1="185.1" y1="12" x2="185.1" y2="162" stroke="#e5e7eb" stroke-width="0.5"/>
  <line x1="202.7" y1="12" x2="202.7" y2="162" stroke="#e5e7eb" stroke-width="0.5"/>
  <line x1="215.2" y1="12" x2="215.2" y2="162" stroke="#e5e7eb" stroke-width="0.5"/>
  <line x1="224.8" y1="12" x2="224.8" y2="162" stroke="#e5e7eb" stroke-width="0.5"/>
  <line x1="232.8" y1="12" x2="232.8" y2="162" stroke="#e5e7eb" stroke-width="0.5"/>
  <line x1="239.5" y1="12" x2="239.5" y2="162" stroke="#e5e7eb" stroke-width="0.5"/>
  <line x1="245.2" y1="12" x2="245.2" y2="162" stroke="#e5e7eb" stroke-width="0.5"/>
  <line x1="250.4" y1="12" x2="250.4" y2="162" stroke="#e5e7eb" stroke-width="0.5"/>
  <line x1="285.0" y1="12" x2="285.0" y2="162" stroke="#e5e7eb" stroke-width="0.5"/>
  <line x1="302.6" y1="12" x2="302.6" y2="162" stroke="#e5e7eb" stroke-width="0.5"/>
  <line x1="315.1" y1="12" x2="315.1" y2="162" stroke="#e5e7eb" stroke-width="0.5"/>
  <line x1="324.8" y1="12" x2="324.8" y2="162" stroke="#e5e7eb" stroke-width="0.5"/>
  <line x1="332.7" y1="12" x2="332.7" y2="162" stroke="#e5e7eb" stroke-width="0.5"/>
  <line x1="339.4" y1="12" x2="339.4" y2="162" stroke="#e5e7eb" stroke-width="0.5"/>
  <line x1="345.2" y1="12" x2="345.2" y2="162" stroke="#e5e7eb" stroke-width="0.5"/>
  <line x1="350.3" y1="12" x2="350.3" y2="162" stroke="#e5e7eb" stroke-width="0.5"/>
  <line x1="385.0" y1="12" x2="385.0" y2="162" stroke="#e5e7eb" stroke-width="0.5"/>
  <line x1="155.0" y1="12" x2="155.0" y2="162" stroke="#e5e7eb" stroke-width="0.5"/>
  <text x="155.0" y="174" text-anchor="middle" font-size="8" fill="#6b7280">100</text>
  <line x1="254.9" y1="12" x2="254.9" y2="162" stroke="#e5e7eb" stroke-width="0.5"/>
  <text x="254.9" y="174" text-anchor="middle" font-size="8" fill="#6b7280">1k</text>
  <line x1="354.9" y1="12" x2="354.9" y2="162" stroke="#e5e7eb" stroke-width="0.5"/>
  <text x="354.9" y="174" text-anchor="middle" font-size="8" fill="#6b7280">10k</text>
  <line x1="55" y1="27.0" x2="385" y2="27.0" stroke="#e5e7eb" stroke-width="0.5"/>
  <line x1="55" y1="57.0" x2="385" y2="57.0" stroke="#e5e7eb" stroke-width="0.5"/>
  <line x1="55" y1="12.0" x2="385" y2="12.0" stroke="#e5e7eb" stroke-width="0.5"/>
  <text x="51" y="15.0" text-anchor="end" font-size="8" fill="#6b7280">+20</text>
  <text x="51" y="45.0" text-anchor="end" font-size="8" fill="#6b7280">0</text>
  <line x1="55" y1="72.0" x2="385" y2="72.0" stroke="#e5e7eb" stroke-width="0.5"/>
  <text x="51" y="75.0" text-anchor="end" font-size="8" fill="#6b7280">-20</text>
  <line x1="55" y1="102.0" x2="385" y2="102.0" stroke="#e5e7eb" stroke-width="0.5"/>
  <text x="51" y="105.0" text-anchor="end" font-size="8" fill="#6b7280">-40</text>
  <line x1="55" y1="132.0" x2="385" y2="132.0" stroke="#e5e7eb" stroke-width="0.5"/>
  <text x="51" y="135.0" text-anchor="end" font-size="8" fill="#6b7280">-60</text>
  <line x1="55" y1="162.0" x2="385" y2="162.0" stroke="#e5e7eb" stroke-width="0.5"/>
  <text x="51" y="165.0" text-anchor="end" font-size="8" fill="#6b7280">-80</text>
  <defs><linearGradient id="g49" x1="0" y1="12" x2="0" y2="162" gradientUnits="userSpaceOnUse">
    <stop offset="0%" stop-color="#4a90d9" stop-opacity="0.15"/>
    <stop offset="100%" stop-color="#4a90d9" stop-opacity="0.02"/>
  </linearGradient></defs>
  <path d="M58.2,162.0 58.2,162.0 88.3,162.0 105.9,162.0 118.4,162.0 128.1,162.0 136.0,162.0 142.7,162.0 148.5,162.0 153.6,162.0 158.2,158.2 162.3,153.3 166.1,148.7 169.6,144.6 172.8,140.7 175.8,137.1 178.6,133.7 181.2,130.6 183.7,127.6 186.0,124.8 188.3,122.1 190.4,119.6 192.4,117.1 194.3,114.8 196.2,112.6 198.0,110.5 199.7,108.4 201.3,106.5 202.9,104.6 204.4,102.7 205.9,101.0 207.3,99.3 208.7,97.6 210.0,96.0 211.3,94.5 212.6,92.9 213.8,91.5 215.0,90.0 216.1,88.7 217.3,87.3 218.4,86.0 219.4,84.7 220.5,83.4 221.5,82.2 222.5,81.0 223.5,79.9 224.4,78.7 225.4,77.6 226.3,76.5 227.2,75.4 228.1,74.4 228.9,73.4 229.8,72.4 230.6,71.4 231.4,70.4 233.0,68.5 234.5,66.7 236.0,65.0 237.4,63.4 238.8,61.8 240.1,60.3 241.4,58.8 242.7,57.4 243.9,56.1 245.1,54.9 246.2,53.7 247.4,52.6 248.5,51.5 249.5,50.6 250.6,49.7 251.6,48.8 252.6,48.1 253.6,47.4 254.5,46.8 255.5,46.2 256.4,45.7 257.3,45.3 258.1,44.9 259.0,44.5 259.8,44.2 260.7,43.9 261.5,43.7 262.7,43.4 263.8,43.1 265.0,42.9 266.1,42.8 267.1,42.6 268.2,42.5 269.2,42.4 270.2,42.4 271.2,42.3 272.1,42.3 273.1,42.2 274.0,42.2 274.9,42.2 275.7,42.1 276.6,42.1 277.5,42.1 278.3,42.1 279.1,42.1 280.1,42.1 281.2,42.0 282.2,42.0 283.2,42.0 284.1,42.0 285.1,42.0 286.0,42.0 286.9,42.0 287.8,42.0 288.7,42.0 289.5,42.0 290.4,42.0 291.2,42.0 292.0,42.0 293.0,42.0 293.9,42.0 294.9,42.0 295.8,42.0 296.7,42.0 297.6,42.0 298.4,42.0 299.3,42.0 300.1,42.0 300.9,42.0 301.7,42.0 302.7,42.0 303.6,42.0 304.5,42.0 305.4,42.0 306.3,42.0 307.1,42.0 308.0,42.0 308.8,42.0 309.6,42.0 310.5,42.0 311.4,42.0 312.3,42.0 313.2,42.0 314.0,42.0 314.8,42.0 315.6,42.0 316.4,42.0 317.3,42.0 318.2,42.0 319.1,42.0 319.9,42.0 320.8,42.0 321.6,42.0 322.5,42.0 323.3,42.0 324.2,42.0 325.1,42.0 325.9,42.0 326.7,42.0 327.6,42.0 328.5,42.0 329.3,42.0 330.1,42.0 331.0,42.0 331.8,42.0 332.6,42.0 333.5,42.0 334.3,42.0 335.1,42.0 335.9,42.0 336.8,42.0 337.6,42.0 338.5,42.0 339.3,42.0 340.1,42.0 341.0,42.0 341.8,42.0 342.6,42.0 343.5,42.0 344.3,42.0 345.2,42.0 346.0,42.0 346.8,42.0 347.7,42.0 348.5,42.0 349.3,42.0 350.1,42.0 351.0,42.0 351.8,42.0 352.6,42.0 353.4,42.0 354.3,42.0 355.1,42.0 355.9,42.0 356.7,42.0 357.6,42.0 358.4,42.0 359.2,42.0 360.1,42.0 360.9,42.0 361.7,42.0 362.5,42.0 363.3,42.0 364.1,42.0 365.0,42.0 365.8,42.0 366.6,42.0 367.4,42.0 368.3,42.0 369.1,42.0 369.9,42.0 370.7,42.0 371.5,42.0 372.3,42.0 373.1,42.0 373.9,42.0 374.8,42.0 375.6,42.0 376.4,42.0 377.2,42.0 378.0,42.0 378.8,42.0 379.6,42.0 380.4,42.0 381.3,42.0 382.1,42.0 382.9,42.0 383.7,42.0 384.5,42.0 L384.5,162.0 L58.2,162.0 Z" fill="url(#g49)"/>
  <defs><clipPath id="pc50"><rect x="55" y="12" width="330" height="150"/></clipPath></defs>
  <polyline points="58.2,278.2 88.3,242.1 105.9,221.0 118.4,206.0 128.1,194.4 136.0,184.9 142.7,176.8 148.5,169.9 153.6,163.7 158.2,158.2 162.3,153.3 166.1,148.7 169.6,144.6 172.8,140.7 175.8,137.1 178.6,133.7 181.2,130.6 183.7,127.6 186.0,124.8 188.3,122.1 190.4,119.6 192.4,117.1 194.3,114.8 196.2,112.6 198.0,110.5 199.7,108.4 201.3,106.5 202.9,104.6 204.4,102.7 205.9,101.0 207.3,99.3 208.7,97.6 210.0,96.0 211.3,94.5 212.6,92.9 213.8,91.5 215.0,90.0 216.1,88.7 217.3,87.3 218.4,86.0 219.4,84.7 220.5,83.4 221.5,82.2 222.5,81.0 223.5,79.9 224.4,78.7 225.4,77.6 226.3,76.5 227.2,75.4 228.1,74.4 228.9,73.4 229.8,72.4 230.6,71.4 231.4,70.4 233.0,68.5 234.5,66.7 236.0,65.0 237.4,63.4 238.8,61.8 240.1,60.3 241.4,58.8 242.7,57.4 243.9,56.1 245.1,54.9 246.2,53.7 247.4,52.6 248.5,51.5 249.5,50.6 250.6,49.7 251.6,48.8 252.6,48.1 253.6,47.4 254.5,46.8 255.5,46.2 256.4,45.7 257.3,45.3 258.1,44.9 259.0,44.5 259.8,44.2 260.7,43.9 261.5,43.7 262.7,43.4 263.8,43.1 265.0,42.9 266.1,42.8 267.1,42.6 268.2,42.5 269.2,42.4 270.2,42.4 271.2,42.3 272.1,42.3 273.1,42.2 274.0,42.2 274.9,42.2 275.7,42.1 276.6,42.1 277.5,42.1 278.3,42.1 279.1,42.1 280.1,42.1 281.2,42.0 282.2,42.0 283.2,42.0 284.1,42.0 285.1,42.0 286.0,42.0 286.9,42.0 287.8,42.0 288.7,42.0 289.5,42.0 290.4,42.0 291.2,42.0 292.0,42.0 293.0,42.0 293.9,42.0 294.9,42.0 295.8,42.0 296.7,42.0 297.6,42.0 298.4,42.0 299.3,42.0 300.1,42.0 300.9,42.0 301.7,42.0 302.7,42.0 303.6,42.0 304.5,42.0 305.4,42.0 306.3,42.0 307.1,42.0 308.0,42.0 308.8,42.0 309.6,42.0 310.5,42.0 311.4,42.0 312.3,42.0 313.2,42.0 314.0,42.0 314.8,42.0 315.6,42.0 316.4,42.0 317.3,42.0 318.2,42.0 319.1,42.0 319.9,42.0 320.8,42.0 321.6,42.0 322.5,42.0 323.3,42.0 324.2,42.0 325.1,42.0 325.9,42.0 326.7,42.0 327.6,42.0 328.5,42.0 329.3,42.0 330.1,42.0 331.0,42.0 331.8,42.0 332.6,42.0 333.5,42.0 334.3,42.0 335.1,42.0 335.9,42.0 336.8,42.0 337.6,42.0 338.5,42.0 339.3,42.0 340.1,42.0 341.0,42.0 341.8,42.0 342.6,42.0 343.5,42.0 344.3,42.0 345.2,42.0 346.0,42.0 346.8,42.0 347.7,42.0 348.5,42.0 349.3,42.0 350.1,42.0 351.0,42.0 351.8,42.0 352.6,42.0 353.4,42.0 354.3,42.0 355.1,42.0 355.9,42.0 356.7,42.0 357.6,42.0 358.4,42.0 359.2,42.0 360.1,42.0 360.9,42.0 361.7,42.0 362.5,42.0 363.3,42.0 364.1,42.0 365.0,42.0 365.8,42.0 366.6,42.0 367.4,42.0 368.3,42.0 369.1,42.0 369.9,42.0 370.7,42.0 371.5,42.0 372.3,42.0 373.1,42.0 373.9,42.0 374.8,42.0 375.6,42.0 376.4,42.0 377.2,42.0 378.0,42.0 378.8,42.0 379.6,42.0 380.4,42.0 381.3,42.0 382.1,42.0 382.9,42.0 383.7,42.0 384.5,42.0" fill="none" stroke="#4a90d9" stroke-width="1.5" stroke-linejoin="round" clip-path="url(#pc50)"/>
  <line x1="445" y1="12" x2="445" y2="162" stroke="#d1d5db"/>
  <line x1="445" y1="87.0" x2="775" y2="87.0" stroke="#d1d5db"/>
  <text x="610" y="190" text-anchor="middle" font-size="9" fill="#6b7280">Hz</text>
  <text x="419" y="87" text-anchor="middle" font-size="9" fill="#6b7280" transform="rotate(-90 419 87)">Phase (deg)</text>
  <line x1="475.1" y1="12" x2="475.1" y2="162" stroke="#e5e7eb" stroke-width="0.5"/>
  <line x1="492.7" y1="12" x2="492.7" y2="162" stroke="#e5e7eb" stroke-width="0.5"/>
  <line x1="505.2" y1="12" x2="505.2" y2="162" stroke="#e5e7eb" stroke-width="0.5"/>
  <line x1="514.9" y1="12" x2="514.9" y2="162" stroke="#e5e7eb" stroke-width="0.5"/>
  <line x1="522.8" y1="12" x2="522.8" y2="162" stroke="#e5e7eb" stroke-width="0.5"/>
  <line x1="529.5" y1="12" x2="529.5" y2="162" stroke="#e5e7eb" stroke-width="0.5"/>
  <line x1="535.3" y1="12" x2="535.3" y2="162" stroke="#e5e7eb" stroke-width="0.5"/>
  <line x1="540.4" y1="12" x2="540.4" y2="162" stroke="#e5e7eb" stroke-width="0.5"/>
  <line x1="575.1" y1="12" x2="575.1" y2="162" stroke="#e5e7eb" stroke-width="0.5"/>
  <line x1="592.7" y1="12" x2="592.7" y2="162" stroke="#e5e7eb" stroke-width="0.5"/>
  <line x1="605.2" y1="12" x2="605.2" y2="162" stroke="#e5e7eb" stroke-width="0.5"/>
  <line x1="614.8" y1="12" x2="614.8" y2="162" stroke="#e5e7eb" stroke-width="0.5"/>
  <line x1="622.8" y1="12" x2="622.8" y2="162" stroke="#e5e7eb" stroke-width="0.5"/>
  <line x1="629.5" y1="12" x2="629.5" y2="162" stroke="#e5e7eb" stroke-width="0.5"/>
  <line x1="635.2" y1="12" x2="635.2" y2="162" stroke="#e5e7eb" stroke-width="0.5"/>
  <line x1="640.4" y1="12" x2="640.4" y2="162" stroke="#e5e7eb" stroke-width="0.5"/>
  <line x1="675.0" y1="12" x2="675.0" y2="162" stroke="#e5e7eb" stroke-width="0.5"/>
  <line x1="692.6" y1="12" x2="692.6" y2="162" stroke="#e5e7eb" stroke-width="0.5"/>
  <line x1="705.1" y1="12" x2="705.1" y2="162" stroke="#e5e7eb" stroke-width="0.5"/>
  <line x1="714.8" y1="12" x2="714.8" y2="162" stroke="#e5e7eb" stroke-width="0.5"/>
  <line x1="722.7" y1="12" x2="722.7" y2="162" stroke="#e5e7eb" stroke-width="0.5"/>
  <line x1="729.4" y1="12" x2="729.4" y2="162" stroke="#e5e7eb" stroke-width="0.5"/>
  <line x1="735.2" y1="12" x2="735.2" y2="162" stroke="#e5e7eb" stroke-width="0.5"/>
  <line x1="740.3" y1="12" x2="740.3" y2="162" stroke="#e5e7eb" stroke-width="0.5"/>
  <line x1="775.0" y1="12" x2="775.0" y2="162" stroke="#e5e7eb" stroke-width="0.5"/>
  <line x1="545.0" y1="12" x2="545.0" y2="162" stroke="#e5e7eb" stroke-width="0.5"/>
  <text x="545.0" y="174" text-anchor="middle" font-size="8" fill="#6b7280">100</text>
  <line x1="644.9" y1="12" x2="644.9" y2="162" stroke="#e5e7eb" stroke-width="0.5"/>
  <text x="644.9" y="174" text-anchor="middle" font-size="8" fill="#6b7280">1k</text>
  <line x1="744.9" y1="12" x2="744.9" y2="162" stroke="#e5e7eb" stroke-width="0.5"/>
  <text x="744.9" y="174" text-anchor="middle" font-size="8" fill="#6b7280">10k</text>
  <line x1="445" y1="53.3" x2="775" y2="53.3" stroke="#e5e7eb" stroke-width="0.5"/>
  <line x1="445" y1="120.8" x2="775" y2="120.8" stroke="#e5e7eb" stroke-width="0.5"/>
  <line x1="445" y1="19.5" x2="775" y2="19.5" stroke="#e5e7eb" stroke-width="0.5"/>
  <text x="441" y="22.5" text-anchor="end" font-size="8" fill="#6b7280">180</text>
  <text x="441" y="90.0" text-anchor="end" font-size="8" fill="#6b7280">0</text>
  <line x1="445" y1="154.5" x2="775" y2="154.5" stroke="#e5e7eb" stroke-width="0.5"/>
  <text x="441" y="157.5" text-anchor="end" font-size="8" fill="#6b7280">-180</text>
  <defs><linearGradient id="g51" x1="0" y1="12" x2="0" y2="87.0" gradientUnits="userSpaceOnUse">
    <stop offset="0%" stop-color="#e74c3c" stop-opacity="0.15"/>
    <stop offset="100%" stop-color="#e74c3c" stop-opacity="0.02"/>
  </linearGradient></defs>
  <path d="M448.2,12.0 448.2,12.0 478.3,12.0 495.9,12.0 508.4,12.0 518.1,12.0 526.0,12.0 532.7,12.0 538.5,12.0 543.6,12.0 548.2,12.0 552.3,12.0 556.1,12.0 559.6,12.0 562.8,12.0 565.8,12.0 568.6,12.0 571.2,12.0 573.7,12.0 576.0,12.0 578.3,12.0 580.4,12.0 582.4,12.0 584.3,12.0 586.2,12.0 588.0,12.0 589.7,12.0 591.3,12.0 592.9,12.0 594.4,12.0 595.9,12.0 597.3,12.0 598.7,12.0 600.0,12.0 601.3,12.0 602.6,12.0 603.8,12.0 605.0,12.0 606.1,12.0 607.3,12.0 608.4,12.0 609.4,12.0 610.5,12.0 611.5,12.0 612.5,12.0 613.5,12.0 614.4,12.0 615.4,12.0 616.3,12.0 617.2,12.0 618.1,12.0 618.9,12.0 619.8,12.0 620.6,12.0 621.4,12.0 623.0,12.0 624.5,12.0 626.0,12.0 627.4,12.0 628.8,12.0 630.1,12.0 631.4,12.0 632.7,12.0 633.9,12.0 635.1,12.0 636.2,12.0 637.4,12.0 638.5,12.0 639.5,12.0 640.6,12.0 641.6,13.4 642.6,15.2 643.6,17.0 644.5,18.7 645.5,20.5 646.4,22.1 647.3,23.8 648.1,25.3 649.0,26.9 649.8,28.3 650.7,29.8 651.5,31.1 652.7,33.1 653.8,34.9 655.0,36.6 656.1,38.2 657.1,39.7 658.2,41.2 659.2,42.5 660.2,43.7 661.2,44.9 662.1,46.0 663.1,47.1 664.0,48.1 664.9,49.0 665.7,49.9 666.6,50.8 667.5,51.6 668.3,52.3 669.1,53.1 670.1,54.0 671.2,54.9 672.2,55.7 673.2,56.5 674.1,57.3 675.1,58.0 676.0,58.6 676.9,59.3 677.8,59.9 678.7,60.5 679.5,61.0 680.4,61.6 681.2,62.1 682.0,62.6 683.0,63.2 683.9,63.8 684.9,64.3 685.8,64.8 686.7,65.3 687.6,65.8 688.4,66.2 689.3,66.6 690.1,67.1 690.9,67.4 691.7,67.8 692.7,68.3 693.6,68.7 694.5,69.1 695.4,69.5 696.3,69.8 697.1,70.2 698.0,70.5 698.8,70.9 699.6,71.2 700.5,71.5 701.4,71.9 702.3,72.2 703.2,72.5 704.0,72.8 704.8,73.1 705.6,73.4 706.4,73.7 707.3,73.9 708.2,74.2 709.1,74.5 709.9,74.8 710.8,75.0 711.6,75.3 712.5,75.5 713.3,75.8 714.2,76.0 715.1,76.2 715.9,76.5 716.7,76.7 717.6,76.9 718.5,77.1 719.3,77.4 720.1,77.6 721.0,77.8 721.8,77.9 722.6,78.2 723.5,78.3 724.3,78.5 725.1,78.7 725.9,78.9 726.8,79.1 727.6,79.3 728.5,79.4 729.3,79.6 730.1,79.8 731.0,79.9 731.8,80.1 732.6,80.3 733.5,80.4 734.3,80.6 735.2,80.7 736.0,80.9 736.8,81.0 737.7,81.2 738.5,81.3 739.3,81.4 740.1,81.6 741.0,81.7 741.8,81.9 742.6,82.0 743.4,82.1 744.3,82.3 745.1,82.4 745.9,82.5 746.7,82.6 747.6,82.8 748.4,82.9 749.2,83.0 750.1,83.1 750.9,83.2 751.7,83.4 752.5,83.5 753.3,83.6 754.1,83.7 755.0,83.8 755.8,83.9 756.6,84.0 757.4,84.1 758.3,84.2 759.1,84.4 759.9,84.5 760.7,84.6 761.5,84.7 762.3,84.8 763.1,84.9 763.9,85.0 764.8,85.1 765.6,85.2 766.4,85.3 767.2,85.4 768.0,85.5 768.8,85.6 769.6,85.7 770.4,85.8 771.3,85.9 772.1,86.0 772.9,86.1 773.7,86.2 774.5,86.3 L774.5,87.0 L448.2,87.0 Z" fill="url(#g51)"/>
  <defs><clipPath id="pc52"><rect x="445" y="12" width="330" height="150"/></clipPath></defs>
  <polyline points="448.2,-47.4 478.3,-46.8 495.9,-46.2 508.4,-45.6 518.1,-45.0 526.0,-44.4 532.7,-43.8 538.5,-43.2 543.6,-42.6 548.2,-42.0 552.3,-41.3 556.1,-40.7 559.6,-40.1 562.8,-39.5 565.8,-38.9 568.6,-38.3 571.2,-37.7 573.7,-37.1 576.0,-36.5 578.3,-35.9 580.4,-35.2 582.4,-34.6 584.3,-34.0 586.2,-33.4 588.0,-32.8 589.7,-32.1 591.3,-31.5 592.9,-30.9 594.4,-30.2 595.9,-29.6 597.3,-29.0 598.7,-28.3 600.0,-27.7 601.3,-27.1 602.6,-26.4 603.8,-25.8 605.0,-25.1 606.1,-24.5 607.3,-23.8 608.4,-23.2 609.4,-22.5 610.5,-21.8 611.5,-21.1 612.5,-20.5 613.5,-19.8 614.4,-19.1 615.4,-18.4 616.3,-17.7 617.2,-17.0 618.1,-16.3 618.9,-15.6 619.8,-14.9 620.6,-14.2 621.4,-13.4 623.0,-12.0 624.5,-10.5 626.0,-8.9 627.4,-7.4 628.8,-5.8 630.1,-4.2 631.4,-2.5 632.7,-0.8 633.9,0.9 635.1,2.6 636.2,4.4 637.4,6.2 638.5,8.0 639.5,9.8 640.6,11.6 641.6,13.4 642.6,15.2 643.6,17.0 644.5,18.7 645.5,20.5 646.4,22.1 647.3,23.8 648.1,25.3 649.0,26.9 649.8,28.3 650.7,29.8 651.5,31.1 652.7,33.1 653.8,34.9 655.0,36.6 656.1,38.2 657.1,39.7 658.2,41.2 659.2,42.5 660.2,43.7 661.2,44.9 662.1,46.0 663.1,47.1 664.0,48.1 664.9,49.0 665.7,49.9 666.6,50.8 667.5,51.6 668.3,52.3 669.1,53.1 670.1,54.0 671.2,54.9 672.2,55.7 673.2,56.5 674.1,57.3 675.1,58.0 676.0,58.6 676.9,59.3 677.8,59.9 678.7,60.5 679.5,61.0 680.4,61.6 681.2,62.1 682.0,62.6 683.0,63.2 683.9,63.8 684.9,64.3 685.8,64.8 686.7,65.3 687.6,65.8 688.4,66.2 689.3,66.6 690.1,67.1 690.9,67.4 691.7,67.8 692.7,68.3 693.6,68.7 694.5,69.1 695.4,69.5 696.3,69.8 697.1,70.2 698.0,70.5 698.8,70.9 699.6,71.2 700.5,71.5 701.4,71.9 702.3,72.2 703.2,72.5 704.0,72.8 704.8,73.1 705.6,73.4 706.4,73.7 707.3,73.9 708.2,74.2 709.1,74.5 709.9,74.8 710.8,75.0 711.6,75.3 712.5,75.5 713.3,75.8 714.2,76.0 715.1,76.2 715.9,76.5 716.7,76.7 717.6,76.9 718.5,77.1 719.3,77.4 720.1,77.6 721.0,77.8 721.8,77.9 722.6,78.2 723.5,78.3 724.3,78.5 725.1,78.7 725.9,78.9 726.8,79.1 727.6,79.3 728.5,79.4 729.3,79.6 730.1,79.8 731.0,79.9 731.8,80.1 732.6,80.3 733.5,80.4 734.3,80.6 735.2,80.7 736.0,80.9 736.8,81.0 737.7,81.2 738.5,81.3 739.3,81.4 740.1,81.6 741.0,81.7 741.8,81.9 742.6,82.0 743.4,82.1 744.3,82.3 745.1,82.4 745.9,82.5 746.7,82.6 747.6,82.8 748.4,82.9 749.2,83.0 750.1,83.1 750.9,83.2 751.7,83.4 752.5,83.5 753.3,83.6 754.1,83.7 755.0,83.8 755.8,83.9 756.6,84.0 757.4,84.1 758.3,84.2 759.1,84.4 759.9,84.5 760.7,84.6 761.5,84.7 762.3,84.8 763.1,84.9 763.9,85.0 764.8,85.1 765.6,85.2 766.4,85.3 767.2,85.4 768.0,85.5 768.8,85.6 769.6,85.7 770.4,85.8 771.3,85.9 772.1,86.0 772.9,86.1 773.7,86.2 774.5,86.3" fill="none" stroke="#e74c3c" stroke-width="1.5" stroke-linejoin="round" clip-path="url(#pc52)"/>
  <line x1="55" y1="210" x2="55" y2="360" stroke="#d1d5db"/>
  <line x1="55" y1="285.0" x2="385" y2="285.0" stroke="#d1d5db"/>
  <text x="220" y="388" text-anchor="middle" font-size="9" fill="#6b7280">Hz</text>
  <text x="29" y="285" text-anchor="middle" font-size="9" fill="#6b7280" transform="rotate(-90 29 285)">Group delay</text>
  <line x1="85.1" y1="210" x2="85.1" y2="360" stroke="#e5e7eb" stroke-width="0.5"/>
  <line x1="102.7" y1="210" x2="102.7" y2="360" stroke="#e5e7eb" stroke-width="0.5"/>
  <line x1="115.2" y1="210" x2="115.2" y2="360" stroke="#e5e7eb" stroke-width="0.5"/>
  <line x1="124.9" y1="210" x2="124.9" y2="360" stroke="#e5e7eb" stroke-width="0.5"/>
  <line x1="132.8" y1="210" x2="132.8" y2="360" stroke="#e5e7eb" stroke-width="0.5"/>
  <line x1="139.5" y1="210" x2="139.5" y2="360" stroke="#e5e7eb" stroke-width="0.5"/>
  <line x1="145.3" y1="210" x2="145.3" y2="360" stroke="#e5e7eb" stroke-width="0.5"/>
  <line x1="150.4" y1="210" x2="150.4" y2="360" stroke="#e5e7eb" stroke-width="0.5"/>
  <line x1="185.1" y1="210" x2="185.1" y2="360" stroke="#e5e7eb" stroke-width="0.5"/>
  <line x1="202.7" y1="210" x2="202.7" y2="360" stroke="#e5e7eb" stroke-width="0.5"/>
  <line x1="215.2" y1="210" x2="215.2" y2="360" stroke="#e5e7eb" stroke-width="0.5"/>
  <line x1="224.8" y1="210" x2="224.8" y2="360" stroke="#e5e7eb" stroke-width="0.5"/>
  <line x1="232.8" y1="210" x2="232.8" y2="360" stroke="#e5e7eb" stroke-width="0.5"/>
  <line x1="239.5" y1="210" x2="239.5" y2="360" stroke="#e5e7eb" stroke-width="0.5"/>
  <line x1="245.2" y1="210" x2="245.2" y2="360" stroke="#e5e7eb" stroke-width="0.5"/>
  <line x1="250.4" y1="210" x2="250.4" y2="360" stroke="#e5e7eb" stroke-width="0.5"/>
  <line x1="285.0" y1="210" x2="285.0" y2="360" stroke="#e5e7eb" stroke-width="0.5"/>
  <line x1="302.6" y1="210" x2="302.6" y2="360" stroke="#e5e7eb" stroke-width="0.5"/>
  <line x1="315.1" y1="210" x2="315.1" y2="360" stroke="#e5e7eb" stroke-width="0.5"/>
  <line x1="324.8" y1="210" x2="324.8" y2="360" stroke="#e5e7eb" stroke-width="0.5"/>
  <line x1="332.7" y1="210" x2="332.7" y2="360" stroke="#e5e7eb" stroke-width="0.5"/>
  <line x1="339.4" y1="210" x2="339.4" y2="360" stroke="#e5e7eb" stroke-width="0.5"/>
  <line x1="345.2" y1="210" x2="345.2" y2="360" stroke="#e5e7eb" stroke-width="0.5"/>
  <line x1="350.3" y1="210" x2="350.3" y2="360" stroke="#e5e7eb" stroke-width="0.5"/>
  <line x1="385.0" y1="210" x2="385.0" y2="360" stroke="#e5e7eb" stroke-width="0.5"/>
  <line x1="155.0" y1="210" x2="155.0" y2="360" stroke="#e5e7eb" stroke-width="0.5"/>
  <text x="155.0" y="372" text-anchor="middle" font-size="8" fill="#6b7280">100</text>
  <line x1="254.9" y1="210" x2="254.9" y2="360" stroke="#e5e7eb" stroke-width="0.5"/>
  <text x="254.9" y="372" text-anchor="middle" font-size="8" fill="#6b7280">1k</text>
  <line x1="354.9" y1="210" x2="354.9" y2="360" stroke="#e5e7eb" stroke-width="0.5"/>
  <text x="354.9" y="372" text-anchor="middle" font-size="8" fill="#6b7280">10k</text>
  <line x1="55" y1="329.2" x2="385" y2="329.2" stroke="#e5e7eb" stroke-width="0.5"/>
  <text x="51" y="332.2" text-anchor="end" font-size="8" fill="#6b7280">-2000</text>
  <text x="51" y="288.0" text-anchor="end" font-size="8" fill="#6b7280">0</text>
  <line x1="55" y1="240.8" x2="385" y2="240.8" stroke="#e5e7eb" stroke-width="0.5"/>
  <text x="51" y="243.8" text-anchor="end" font-size="8" fill="#6b7280">2000</text>
  <defs><linearGradient id="g53" x1="0" y1="210" x2="0" y2="285.0" gradientUnits="userSpaceOnUse">
    <stop offset="0%" stop-color="#2ecc71" stop-opacity="0.15"/>
    <stop offset="100%" stop-color="#2ecc71" stop-opacity="0.02"/>
  </linearGradient></defs>
  <path d="M58.2,227.3 58.2,227.3 88.3,256.2 105.9,265.8 118.4,270.6 128.1,273.5 136.0,275.4 142.7,276.8 148.5,277.8 153.6,278.6 158.2,279.2 162.3,279.8 166.1,280.2 169.6,280.6 172.8,280.9 175.8,281.2 178.6,281.4 181.2,281.6 183.7,281.8 186.0,282.0 188.3,282.1 190.4,282.3 192.4,282.4 194.3,282.5 196.2,282.6 198.0,282.7 199.7,282.8 201.3,282.9 202.9,282.9 204.4,283.0 205.9,283.1 207.3,283.1 208.7,283.2 210.0,283.3 211.3,283.3 212.6,283.4 213.8,283.4 215.0,283.4 216.1,283.5 217.3,283.5 218.4,283.6 219.4,283.6 220.5,283.6 221.5,283.7 222.5,283.7 223.5,283.7 224.4,283.7 225.4,283.8 226.3,283.8 227.2,283.8 228.1,283.9 228.9,283.9 229.8,283.9 230.6,283.9 231.4,283.9 233.0,284.0 234.5,284.0 236.0,284.1 237.4,284.1 238.8,284.1 240.1,284.2 241.4,284.2 242.7,284.3 243.9,284.3 245.1,284.3 246.2,284.4 247.4,284.4 248.5,284.4 249.5,284.5 250.6,284.5 251.6,284.6 252.6,284.6 253.6,284.6 254.5,284.7 255.5,284.7 256.4,284.7 257.3,284.8 258.1,284.8 259.0,284.8 259.8,284.8 260.7,284.9 261.5,284.9 262.7,284.9 263.8,284.9 265.0,284.9 266.1,284.9 267.1,285.0 268.2,285.0 269.2,285.0 270.2,285.0 271.2,285.0 272.1,285.0 273.1,285.0 274.0,285.0 274.9,285.0 275.7,285.0 276.6,285.0 277.5,285.0 278.3,285.0 279.1,285.0 280.1,285.0 281.2,285.0 282.2,285.0 283.2,285.0 284.1,285.0 285.1,285.0 286.0,285.0 286.9,285.0 287.8,285.0 288.7,285.0 289.5,285.0 290.4,285.0 291.2,285.0 292.0,285.0 293.0,285.0 293.9,285.0 294.9,285.0 295.8,285.0 296.7,285.0 297.6,285.0 298.4,285.0 299.3,285.0 300.1,285.0 300.9,285.0 301.7,285.0 302.7,285.0 303.6,285.0 304.5,285.0 305.4,285.0 306.3,285.0 307.1,285.0 308.0,285.0 308.8,285.0 309.6,285.0 310.5,285.0 311.4,285.0 312.3,285.0 313.2,285.0 314.0,285.0 314.8,285.0 315.6,285.0 316.4,285.0 317.3,285.0 318.2,285.0 319.1,285.0 319.9,285.0 320.8,285.0 321.6,285.0 322.5,285.0 323.3,285.0 324.2,285.0 325.1,285.0 325.9,285.0 326.7,285.0 327.6,285.0 328.5,285.0 329.3,285.0 330.1,285.0 331.0,285.0 331.8,285.0 332.6,285.0 333.5,285.0 334.3,285.0 335.1,285.0 335.9,285.0 336.8,285.0 337.6,285.0 338.5,285.0 339.3,285.0 340.1,285.0 341.0,285.0 341.8,285.0 342.6,285.0 343.5,285.0 344.3,285.0 345.2,285.0 346.0,285.0 346.8,285.0 347.7,285.0 348.5,285.0 349.3,285.0 350.1,285.0 351.0,285.0 351.8,285.0 352.6,285.0 353.4,285.0 354.3,285.0 355.1,285.0 355.9,285.0 356.7,285.0 357.6,285.0 358.4,285.0 359.2,285.0 360.1,285.0 360.9,285.0 361.7,285.0 362.5,285.0 363.3,285.0 364.1,285.0 365.0,285.0 365.8,285.0 366.6,285.0 367.4,285.0 368.3,285.0 369.1,285.0 369.9,285.0 370.7,285.0 371.5,285.0 372.3,285.0 373.1,285.0 373.9,285.0 374.8,285.0 375.6,285.0 376.4,285.0 377.2,285.0 378.0,285.0 378.8,285.0 379.6,285.0 380.4,285.0 381.3,285.0 382.1,285.0 382.9,285.0 383.7,285.0 384.5,285.0 L384.5,285.0 L58.2,285.0 Z" fill="url(#g53)"/>
  <defs><clipPath id="pc54"><rect x="55" y="210" width="330" height="150"/></clipPath></defs>
  <polyline points="58.2,227.3 88.3,256.2 105.9,265.8 118.4,270.6 128.1,273.5 136.0,275.4 142.7,276.8 148.5,277.8 153.6,278.6 158.2,279.2 162.3,279.8 166.1,280.2 169.6,280.6 172.8,280.9 175.8,281.2 178.6,281.4 181.2,281.6 183.7,281.8 186.0,282.0 188.3,282.1 190.4,282.3 192.4,282.4 194.3,282.5 196.2,282.6 198.0,282.7 199.7,282.8 201.3,282.9 202.9,282.9 204.4,283.0 205.9,283.1 207.3,283.1 208.7,283.2 210.0,283.3 211.3,283.3 212.6,283.4 213.8,283.4 215.0,283.4 216.1,283.5 217.3,283.5 218.4,283.6 219.4,283.6 220.5,283.6 221.5,283.7 222.5,283.7 223.5,283.7 224.4,283.7 225.4,283.8 226.3,283.8 227.2,283.8 228.1,283.9 228.9,283.9 229.8,283.9 230.6,283.9 231.4,283.9 233.0,284.0 234.5,284.0 236.0,284.1 237.4,284.1 238.8,284.1 240.1,284.2 241.4,284.2 242.7,284.3 243.9,284.3 245.1,284.3 246.2,284.4 247.4,284.4 248.5,284.4 249.5,284.5 250.6,284.5 251.6,284.6 252.6,284.6 253.6,284.6 254.5,284.7 255.5,284.7 256.4,284.7 257.3,284.8 258.1,284.8 259.0,284.8 259.8,284.8 260.7,284.9 261.5,284.9 262.7,284.9 263.8,284.9 265.0,284.9 266.1,284.9 267.1,285.0 268.2,285.0 269.2,285.0 270.2,285.0 271.2,285.0 272.1,285.0 273.1,285.0 274.0,285.0 274.9,285.0 275.7,285.0 276.6,285.0 277.5,285.0 278.3,285.0 279.1,285.0 280.1,285.0 281.2,285.0 282.2,285.0 283.2,285.0 284.1,285.0 285.1,285.0 286.0,285.0 286.9,285.0 287.8,285.0 288.7,285.0 289.5,285.0 290.4,285.0 291.2,285.0 292.0,285.0 293.0,285.0 293.9,285.0 294.9,285.0 295.8,285.0 296.7,285.0 297.6,285.0 298.4,285.0 299.3,285.0 300.1,285.0 300.9,285.0 301.7,285.0 302.7,285.0 303.6,285.0 304.5,285.0 305.4,285.0 306.3,285.0 307.1,285.0 308.0,285.0 308.8,285.0 309.6,285.0 310.5,285.0 311.4,285.0 312.3,285.0 313.2,285.0 314.0,285.0 314.8,285.0 315.6,285.0 316.4,285.0 317.3,285.0 318.2,285.0 319.1,285.0 319.9,285.0 320.8,285.0 321.6,285.0 322.5,285.0 323.3,285.0 324.2,285.0 325.1,285.0 325.9,285.0 326.7,285.0 327.6,285.0 328.5,285.0 329.3,285.0 330.1,285.0 331.0,285.0 331.8,285.0 332.6,285.0 333.5,285.0 334.3,285.0 335.1,285.0 335.9,285.0 336.8,285.0 337.6,285.0 338.5,285.0 339.3,285.0 340.1,285.0 341.0,285.0 341.8,285.0 342.6,285.0 343.5,285.0 344.3,285.0 345.2,285.0 346.0,285.0 346.8,285.0 347.7,285.0 348.5,285.0 349.3,285.0 350.1,285.0 351.0,285.0 351.8,285.0 352.6,285.0 353.4,285.0 354.3,285.0 355.1,285.0 355.9,285.0 356.7,285.0 357.6,285.0 358.4,285.0 359.2,285.0 360.1,285.0 360.9,285.0 361.7,285.0 362.5,285.0 363.3,285.0 364.1,285.0 365.0,285.0 365.8,285.0 366.6,285.0 367.4,285.0 368.3,285.0 369.1,285.0 369.9,285.0 370.7,285.0 371.5,285.0 372.3,285.0 373.1,285.0 373.9,285.0 374.8,285.0 375.6,285.0 376.4,285.0 377.2,285.0 378.0,285.0 378.8,285.0 379.6,285.0 380.4,285.0 381.3,285.0 382.1,285.0 382.9,285.0 383.7,285.0 384.5,285.0" fill="none" stroke="#2ecc71" stroke-width="1.5" stroke-linejoin="round" clip-path="url(#pc54)"/>
  <line x1="445" y1="210" x2="445" y2="360" stroke="#d1d5db"/>
  <line x1="445" y1="285.0" x2="775" y2="285.0" stroke="#d1d5db"/>
  <text x="610" y="388" text-anchor="middle" font-size="9" fill="#6b7280">Samples</text>
  <text x="419" y="285" text-anchor="middle" font-size="9" fill="#6b7280" transform="rotate(-90 419 285)">Impulse response</text>
  <line x1="445.0" y1="210" x2="445.0" y2="360" stroke="#e5e7eb" stroke-width="0.5"/>
  <text x="445.0" y="372" text-anchor="middle" font-size="8" fill="#6b7280">0</text>
  <line x1="527.5" y1="210" x2="527.5" y2="360" stroke="#e5e7eb" stroke-width="0.5"/>
  <text x="527.5" y="372" text-anchor="middle" font-size="8" fill="#6b7280">32</text>
  <line x1="610.0" y1="210" x2="610.0" y2="360" stroke="#e5e7eb" stroke-width="0.5"/>
  <text x="610.0" y="372" text-anchor="middle" font-size="8" fill="#6b7280">64</text>
  <line x1="692.5" y1="210" x2="692.5" y2="360" stroke="#e5e7eb" stroke-width="0.5"/>
  <text x="692.5" y="372" text-anchor="middle" font-size="8" fill="#6b7280">96</text>
  <line x1="775.0" y1="210" x2="775.0" y2="360" stroke="#e5e7eb" stroke-width="0.5"/>
  <text x="775.0" y="372" text-anchor="middle" font-size="8" fill="#6b7280">128</text>
  <line x1="445" y1="339.2" x2="775" y2="339.2" stroke="#e5e7eb" stroke-width="0.5"/>
  <text x="441" y="342.2" text-anchor="end" font-size="8" fill="#6b7280">-0.6</text>
  <text x="441" y="288.0" text-anchor="end" font-size="8" fill="#6b7280">0</text>
  <line x1="445" y1="230.8" x2="775" y2="230.8" stroke="#e5e7eb" stroke-width="0.5"/>
  <text x="441" y="233.8" text-anchor="end" font-size="8" fill="#6b7280">0.6</text>
  <defs><linearGradient id="g55" x1="0" y1="210" x2="0" y2="285.0" gradientUnits="userSpaceOnUse">
    <stop offset="0%" stop-color="#f39c12" stop-opacity="0.15"/>
    <stop offset="100%" stop-color="#f39c12" stop-opacity="0.02"/>
  </linearGradient></defs>
  <defs><linearGradient id="g56" x1="0" y1="360" x2="0" y2="285.0" gradientUnits="userSpaceOnUse">
    <stop offset="0%" stop-color="#f39c12" stop-opacity="0.15"/>
    <stop offset="100%" stop-color="#f39c12" stop-opacity="0.02"/>
  </linearGradient></defs>
  <defs><clipPath id="c57"><rect x="445" y="210" width="330" height="75.0"/></clipPath></defs>
  <defs><clipPath id="c58"><rect x="445" y="285.0" width="330" height="75.0"/></clipPath></defs>
  <path d="M445.0,210.0 445.0,210.0 447.6,312.9 450.2,307.6 452.7,302.9 455.3,298.8 457.9,295.2 460.5,292.1 463.0,289.5 465.6,287.3 468.2,285.5 470.8,284.0 473.4,282.9 475.9,282.0 478.5,281.4 481.1,281.0 483.7,280.8 486.3,280.8 488.8,280.9 491.4,281.1 494.0,281.4 496.6,281.8 499.1,282.2 501.7,282.6 504.3,283.1 506.9,283.5 509.5,284.0 512.0,284.4 514.6,284.8 517.2,285.2 519.8,285.5 522.3,285.7 524.9,286.0 527.5,286.2 530.1,286.3 532.7,286.4 535.2,286.5 537.8,286.5 540.4,286.5 543.0,286.5 545.5,286.4 548.1,286.3 550.7,286.2 553.3,286.1 555.9,286.0 558.4,285.8 561.0,285.7 563.6,285.5 566.2,285.4 568.8,285.3 571.3,285.1 573.9,285.0 576.5,284.9 579.1,284.8 581.6,284.8 584.2,284.7 586.8,284.6 589.4,284.6 592.0,284.6 594.5,284.5 597.1,284.5 599.7,284.5 602.3,284.5 604.8,284.6 607.4,284.6 610.0,284.6 612.6,284.6 615.2,284.7 617.7,284.7 620.3,284.8 622.9,284.8 625.5,284.8 628.0,284.9 630.6,284.9 633.2,285.0 635.8,285.0 638.4,285.0 640.9,285.0 643.5,285.1 646.1,285.1 648.7,285.1 651.3,285.1 653.8,285.1 656.4,285.1 659.0,285.1 661.6,285.1 664.1,285.1 666.7,285.1 669.3,285.1 671.9,285.1 674.5,285.1 677.0,285.1 679.6,285.1 682.2,285.1 684.8,285.1 687.3,285.0 689.9,285.0 692.5,285.0 695.1,285.0 697.7,285.0 700.2,285.0 702.8,285.0 705.4,285.0 708.0,285.0 710.5,285.0 713.1,285.0 715.7,285.0 718.3,285.0 720.9,285.0 723.4,285.0 726.0,285.0 728.6,285.0 731.2,285.0 733.8,285.0 736.3,285.0 738.9,285.0 741.5,285.0 744.1,285.0 746.6,285.0 749.2,285.0 751.8,285.0 754.4,285.0 757.0,285.0 759.5,285.0 762.1,285.0 764.7,285.0 767.3,285.0 769.8,285.0 772.4,285.0 L772.4,285.0 L445.0,285.0 Z" fill="url(#g55)" clip-path="url(#c57)"/>
  <path d="M445.0,210.0 445.0,210.0 447.6,312.9 450.2,307.6 452.7,302.9 455.3,298.8 457.9,295.2 460.5,292.1 463.0,289.5 465.6,287.3 468.2,285.5 470.8,284.0 473.4,282.9 475.9,282.0 478.5,281.4 481.1,281.0 483.7,280.8 486.3,280.8 488.8,280.9 491.4,281.1 494.0,281.4 496.6,281.8 499.1,282.2 501.7,282.6 504.3,283.1 506.9,283.5 509.5,284.0 512.0,284.4 514.6,284.8 517.2,285.2 519.8,285.5 522.3,285.7 524.9,286.0 527.5,286.2 530.1,286.3 532.7,286.4 535.2,286.5 537.8,286.5 540.4,286.5 543.0,286.5 545.5,286.4 548.1,286.3 550.7,286.2 553.3,286.1 555.9,286.0 558.4,285.8 561.0,285.7 563.6,285.5 566.2,285.4 568.8,285.3 571.3,285.1 573.9,285.0 576.5,284.9 579.1,284.8 581.6,284.8 584.2,284.7 586.8,284.6 589.4,284.6 592.0,284.6 594.5,284.5 597.1,284.5 599.7,284.5 602.3,284.5 604.8,284.6 607.4,284.6 610.0,284.6 612.6,284.6 615.2,284.7 617.7,284.7 620.3,284.8 622.9,284.8 625.5,284.8 628.0,284.9 630.6,284.9 633.2,285.0 635.8,285.0 638.4,285.0 640.9,285.0 643.5,285.1 646.1,285.1 648.7,285.1 651.3,285.1 653.8,285.1 656.4,285.1 659.0,285.1 661.6,285.1 664.1,285.1 666.7,285.1 669.3,285.1 671.9,285.1 674.5,285.1 677.0,285.1 679.6,285.1 682.2,285.1 684.8,285.1 687.3,285.0 689.9,285.0 692.5,285.0 695.1,285.0 697.7,285.0 700.2,285.0 702.8,285.0 705.4,285.0 708.0,285.0 710.5,285.0 713.1,285.0 715.7,285.0 718.3,285.0 720.9,285.0 723.4,285.0 726.0,285.0 728.6,285.0 731.2,285.0 733.8,285.0 736.3,285.0 738.9,285.0 741.5,285.0 744.1,285.0 746.6,285.0 749.2,285.0 751.8,285.0 754.4,285.0 757.0,285.0 759.5,285.0 762.1,285.0 764.7,285.0 767.3,285.0 769.8,285.0 772.4,285.0 L772.4,285.0 L445.0,285.0 Z" fill="url(#g56)" clip-path="url(#c58)"/>
  <defs><clipPath id="pc59"><rect x="445" y="210" width="330" height="150"/></clipPath></defs>
  <polyline points="445.0,210.0 447.6,312.9 450.2,307.6 452.7,302.9 455.3,298.8 457.9,295.2 460.5,292.1 463.0,289.5 465.6,287.3 468.2,285.5 470.8,284.0 473.4,282.9 475.9,282.0 478.5,281.4 481.1,281.0 483.7,280.8 486.3,280.8 488.8,280.9 491.4,281.1 494.0,281.4 496.6,281.8 499.1,282.2 501.7,282.6 504.3,283.1 506.9,283.5 509.5,284.0 512.0,284.4 514.6,284.8 517.2,285.2 519.8,285.5 522.3,285.7 524.9,286.0 527.5,286.2 530.1,286.3 532.7,286.4 535.2,286.5 537.8,286.5 540.4,286.5 543.0,286.5 545.5,286.4 548.1,286.3 550.7,286.2 553.3,286.1 555.9,286.0 558.4,285.8 561.0,285.7 563.6,285.5 566.2,285.4 568.8,285.3 571.3,285.1 573.9,285.0 576.5,284.9 579.1,284.8 581.6,284.8 584.2,284.7 586.8,284.6 589.4,284.6 592.0,284.6 594.5,284.5 597.1,284.5 599.7,284.5 602.3,284.5 604.8,284.6 607.4,284.6 610.0,284.6 612.6,284.6 615.2,284.7 617.7,284.7 620.3,284.8 622.9,284.8 625.5,284.8 628.0,284.9 630.6,284.9 633.2,285.0 635.8,285.0 638.4,285.0 640.9,285.0 643.5,285.1 646.1,285.1 648.7,285.1 651.3,285.1 653.8,285.1 656.4,285.1 659.0,285.1 661.6,285.1 664.1,285.1 666.7,285.1 669.3,285.1 671.9,285.1 674.5,285.1 677.0,285.1 679.6,285.1 682.2,285.1 684.8,285.1 687.3,285.0 689.9,285.0 692.5,285.0 695.1,285.0 697.7,285.0 700.2,285.0 702.8,285.0 705.4,285.0 708.0,285.0 710.5,285.0 713.1,285.0 715.7,285.0 718.3,285.0 720.9,285.0 723.4,285.0 726.0,285.0 728.6,285.0 731.2,285.0 733.8,285.0 736.3,285.0 738.9,285.0 741.5,285.0 744.1,285.0 746.6,285.0 749.2,285.0 751.8,285.0 754.4,285.0 757.0,285.0 759.5,285.0 762.1,285.0 764.7,285.0 767.3,285.0 769.8,285.0 772.4,285.0" fill="none" stroke="#f39c12" stroke-width="1.3" stroke-linejoin="round" clip-path="url(#pc59)"/>
</svg>
