<svg xmlns="http://www.w3.org/2000/svg" viewBox="0 0 800 240" style="font-family:system-ui,-apple-system,sans-serif">
  <line x1="55" y1="12" x2="55" y2="192" stroke="#d1d5db"/>
  <line x1="55" y1="192" x2="755" y2="192" stroke="#d1d5db"/>
  <text x="405" y="222" text-anchor="middle" font-size="10" fill="#6b7280">Frequency (Hz)</text>
  <text x="17" y="102" text-anchor="middle" font-size="10" fill="#6b7280" transform="rotate(-90 17 102)">Magnitude (dB)</text>
  <line x1="99.4" y1="12" x2="99.4" y2="192" stroke="#e5e7eb" stroke-width="0.5"/>
  <text x="99.4" y="205" text-anchor="middle" font-size="9" fill="#6b7280">31</text>
  <line x1="169.7" y1="12" x2="169.7" y2="192" stroke="#e5e7eb" stroke-width="0.5"/>
  <text x="169.7" y="205" text-anchor="middle" font-size="9" fill="#6b7280">62</text>
  <line x1="240.7" y1="12" x2="240.7" y2="192" stroke="#e5e7eb" stroke-width="0.5"/>
  <text x="240.7" y="205" text-anchor="middle" font-size="9" fill="#6b7280">125</text>
  <line x1="310.9" y1="12" x2="310.9" y2="192" stroke="#e5e7eb" stroke-width="0.5"/>
  <text x="310.9" y="205" text-anchor="middle" font-size="9" fill="#6b7280">250</text>
  <line x1="381.2" y1="12" x2="381.2" y2="192" stroke="#e5e7eb" stroke-width="0.5"/>
  <text x="381.2" y="205" text-anchor="middle" font-size="9" fill="#6b7280">500</text>
  <line x1="451.4" y1="12" x2="451.4" y2="192" stroke="#e5e7eb" stroke-width="0.5"/>
  <text x="451.4" y="205" text-anchor="middle" font-size="9" fill="#6b7280">1k</text>
  <line x1="521.7" y1="12" x2="521.7" y2="192" stroke="#e5e7eb" stroke-width="0.5"/>
  <text x="521.7" y="205" text-anchor="middle" font-size="9" fill="#6b7280">2k</text>
  <line x1="591.9" y1="12" x2="591.9" y2="192" stroke="#e5e7eb" stroke-width="0.5"/>
  <text x="591.9" y="205" text-anchor="middle" font-size="9" fill="#6b7280">4k</text>
  <line x1="662.1" y1="12" x2="662.1" y2="192" stroke="#e5e7eb" stroke-width="0.5"/>
  <text x="662.1" y="205" text-anchor="middle" font-size="9" fill="#6b7280">8k</text>
  <line x1="732.4" y1="12" x2="732.4" y2="192" stroke="#e5e7eb" stroke-width="0.5"/>
  <text x="732.4" y="205" text-anchor="middle" font-size="9" fill="#6b7280">16k</text>
  <line x1="55" y1="22.6" x2="755" y2="22.6" stroke="#e5e7eb" stroke-width="0.5"/>
  <text x="51" y="25.6" text-anchor="end" font-size="9" fill="#6b7280">0</text>
  <line x1="55" y1="64.9" x2="755" y2="64.9" stroke="#e5e7eb" stroke-width="0.5"/>
  <text x="51" y="67.9" text-anchor="end" font-size="9" fill="#6b7280">-20</text>
  <line x1="55" y1="107.3" x2="755" y2="107.3" stroke="#e5e7eb" stroke-width="0.5"/>
  <text x="51" y="110.3" text-anchor="end" font-size="9" fill="#6b7280">-40</text>
  <line x1="55" y1="149.6" x2="755" y2="149.6" stroke="#e5e7eb" stroke-width="0.5"/>
  <text x="51" y="152.6" text-anchor="end" font-size="9" fill="#6b7280">-60</text>
  <line x1="55" y1="192.0" x2="755" y2="192.0" stroke="#e5e7eb" stroke-width="0.5"/>
  <text x="51" y="195.0" text-anchor="end" font-size="9" fill="#6b7280">-80</text>
  <polyline points="132.7,22.6 203.0,22.6 244.1,22.6 273.2,22.6 295.8,22.6 314.3,22.6 329.9,22.6 343.4,22.6 355.4,22.6 366.1,22.6 375.7,22.6 384.5,22.6 392.6,22.7 400.2,22.7 407.1,22.9 413.7,23.0 419.8,23.3 425.6,23.7 431.1,24.3 436.3,25.0 441.2,26.0 446.0,27.2 450.5,28.6 454.8,30.3 458.9,32.1 462.9,34.1 466.7,36.1 470.4,38.3 474.0,40.4 477.4,42.6 480.7,44.8 483.9,47.0 487.0,49.1 490.1,51.2 493.0,53.3 495.9,55.3 498.6,57.3 501.3,59.2 504.0,61.1 506.5,63.0 509.0,64.8 511.5,66.6 513.9,68.3 516.2,70.0 518.5,71.7 520.7,73.3 522.9,74.9 525.0,76.5 527.1,78.0 529.2,79.5 531.2,81.0 533.1,82.4 535.1,83.8 537.0,85.2 538.8,86.6 540.6,88.0 542.4,89.3 544.2,90.6 545.9,91.9 547.6,93.2 549.3,94.4 551.0,95.6 552.6,96.8 554.2,98.0 555.7,99.2 557.3,100.3 558.8,101.5 560.3,102.6 561.8,103.7 563.2,104.8 564.7,105.9 566.1,106.9 567.5,108.0 568.9,109.0 570.2,110.0 571.6,111.1 572.9,112.1 574.2,113.0 575.5,114.0 576.8,115.0 578.0,115.9 579.3,116.9 580.5,117.8 581.7,118.7 582.9,119.6 584.1,120.5 585.3,121.4 586.4,122.3 587.6,123.2 588.7,124.0 589.8,124.9 590.9,125.8 592.0,126.6 593.1,127.4 594.2,128.2 595.3,129.1 596.3,129.9 597.3,130.7 598.4,131.5 599.4,132.3 600.4,133.0 601.4,133.8 602.4,134.6 603.4,135.3 604.3,136.1 605.3,136.8 606.2,137.6 607.2,138.3 608.1,139.1 609.1,139.8 610.0,140.5 610.9,141.2 611.8,141.9 612.7,142.6 613.6,143.3 614.4,144.0 615.3,144.7 616.2,145.4 617.0,146.1 617.9,146.7 618.7,147.4 619.5,148.1 620.4,148.7 621.2,149.4 622.0,150.0 622.8,150.7 623.6,151.3 624.4,152.0 625.2,152.6 626.0,153.3 626.8,153.9 627.5,154.5 628.3,155.1 629.0,155.7 629.8,156.4 630.6,157.0 631.3,157.6 632.0,158.2 632.8,158.8 633.5,159.4 634.2,160.0 634.9,160.6 635.6,161.2 636.3,161.7 637.0,162.3 637.7,162.9 638.4,163.5 639.1,164.1 639.8,164.6 640.5,165.2 641.2,165.8 641.8,166.3 642.5,166.9 643.1,167.4 643.8,168.0 644.5,168.6 645.1,169.1 645.7,169.7 646.4,170.2 647.0,170.7 647.7,171.3 648.3,171.8 648.9,172.4 649.5,172.9 650.1,173.4 650.8,174.0 651.4,174.5 652.0,175.0 652.6,175.5 653.2,176.1 653.8,176.6 654.3,177.1 654.9,177.6 655.5,178.1 656.1,178.7 656.7,179.2 657.3,179.7 657.8,180.2 658.4,180.7 659.0,181.2 659.5,181.7 660.1,182.2 660.6,182.7 661.2,183.2 661.7,183.7 662.3,184.2 662.8,184.7 663.4,185.2 663.9,185.7 664.4,186.2 665.0,186.7 665.5,187.2 666.0,187.7 666.5,188.1 667.1,188.6 667.6,189.1 668.1,189.6 668.6,190.1 669.1,190.6 669.6,191.0 670.1,191.5 670.6,192.0 671.1,192.0 671.6,192.0 672.1,192.0 672.6,192.0 673.1,192.0 673.6,192.0 674.1,192.0 674.6,192.0 675.1,192.0 675.5,192.0 676.0,192.0 676.5,192.0 677.0,192.0 677.4,192.0 677.9,192.0 678.4,192.0 678.8,192.0 679.3,192.0 679.8,192.0 680.2,192.0 680.7,192.0 681.1,192.0 681.6,192.0 682.0,192.0 682.5,192.0 682.9,192.0 683.4,192.0 683.8,192.0 684.2,192.0 684.7,192.0 685.1,192.0 685.5,192.0 686.0,192.0 686.4,192.0 686.8,192.0 687.3,192.0 687.7,192.0 688.1,192.0 688.5,192.0 688.9,192.0 689.4,192.0 689.8,192.0 690.2,192.0 690.6,192.0 691.0,192.0 691.4,192.0 691.8,192.0 692.2,192.0 692.6,192.0 693.1,192.0 693.5,192.0 693.9,192.0 694.3,192.0 694.6,192.0 695.0,192.0 695.4,192.0 695.8,192.0 696.2,192.0 696.6,192.0 697.0,192.0 697.4,192.0 697.8,192.0 698.1,192.0 698.5,192.0 698.9,192.0 699.3,192.0 699.7,192.0 700.0,192.0 700.4,192.0 700.8,192.0 701.2,192.0 701.5,192.0 701.9,192.0 702.3,192.0 702.6,192.0 703.0,192.0 703.4,192.0 703.7,192.0 704.1,192.0 704.5,192.0 704.8,192.0 705.2,192.0 705.5,192.0 705.9,192.0 706.2,192.0 706.6,192.0 706.9,192.0 707.3,192.0 707.6,192.0 708.0,192.0 708.3,192.0 708.7,192.0 709.0,192.0 709.4,192.0 709.7,192.0 710.0,192.0 710.4,192.0 710.7,192.0 711.1,192.0 711.4,192.0 711.7,192.0 712.1,192.0 712.4,192.0 712.7,192.0 713.1,192.0 713.4,192.0 713.7,192.0 714.0,192.0 714.4,192.0 714.7,192.0 715.0,192.0 715.3,192.0 715.7,192.0 716.0,192.0 716.3,192.0 716.6,192.0 716.9,192.0 717.3,192.0 717.6,192.0 717.9,192.0 718.2,192.0 718.5,192.0 718.8,192.0 719.1,192.0 719.5,192.0 719.8,192.0 720.1,192.0 720.4,192.0 720.7,192.0 721.0,192.0 721.3,192.0 721.6,192.0 721.9,192.0 722.2,192.0 722.5,192.0 722.8,192.0 723.1,192.0 723.4,192.0 723.7,192.0 724.0,192.0 724.3,192.0 724.6,192.0 724.9,192.0 725.2,192.0 725.5,192.0 725.8,192.0 726.1,192.0 726.3,192.0 726.6,192.0 726.9,192.0 727.2,192.0 727.5,192.0 727.8,192.0 728.1,192.0 728.3,192.0 728.6,192.0 728.9,192.0 729.2,192.0 729.5,192.0 729.8,192.0 730.0,192.0 730.3,192.0 730.6,192.0 730.9,192.0 731.1,192.0 731.4,192.0 731.7,192.0 732.0,192.0 732.2,192.0 732.5,192.0 732.8,192.0 733.1,192.0 733.3,192.0 733.6,192.0 733.9,192.0 734.1,192.0 734.4,192.0 734.7,192.0 734.9,192.0 735.2,192.0 735.5,192.0 735.7,192.0 736.0,192.0 736.3,192.0 736.5,192.0 736.8,192.0 737.0,192.0 737.3,192.0 737.6,192.0 737.8,192.0 738.1,192.0 738.3,192.0 738.6,192.0 738.9,192.0 739.1,192.0 739.4,192.0 739.6,192.0 739.9,192.0 740.1,192.0 740.4,192.0 740.6,192.0 740.9,192.0 741.1,192.0 741.4,192.0 741.6,192.0 741.9,192.0 742.1,192.0 742.4,192.0 742.6,192.0 742.9,192.0 743.1,192.0 743.4,192.0 743.6,192.0 743.8,192.0 744.1,192.0 744.3,192.0 744.6,192.0 744.8,192.0 745.1,192.0 745.3,192.0 745.5,192.0 745.8,192.0 746.0,192.0 746.3,192.0 746.5,192.0 746.7,192.0 747.0,192.0 747.2,192.0 747.4,192.0 747.7,192.0 747.9,192.0 748.1,192.0 748.4,192.0 748.6,192.0 748.8,192.0 749.1,192.0 749.3,192.0 749.5,192.0 749.8,192.0 750.0,192.0 750.2,192.0 750.4,192.0 750.7,192.0 750.9,192.0 751.1,192.0 751.4,192.0 751.6,192.0 751.8,192.0 752.0,192.0 752.3,192.0 752.5,192.0 752.7,192.0 752.9,192.0 753.2,192.0 753.4,192.0 753.6,192.0 753.8,192.0 754.0,192.0 754.3,192.0 754.5,192.0 754.7,192.0 754.9,192.0" fill="none" stroke="#4a90d9" stroke-width="1.8" stroke-linejoin="round"/>
  <text x="55" y="240" font-size="12" font-weight="600" fill="#6b7280">Butterworth order 4, fc=1kHz</text>
  <rect x="529" y="19" width="202" height="102" fill="white" fill-opacity="0.85" rx="3"/>
  <text x="532" y="30" font-size="8" fill="#6b7280">Impulse response</text>
  <polyline points="530.0,70.0 531.6,69.8 533.1,69.4 534.7,68.5 536.3,67.1 537.8,65.0 539.4,62.3 540.9,59.1 542.5,55.5 544.1,51.5 545.6,47.4 547.2,43.2 548.8,39.1 550.3,35.1 551.9,31.5 553.4,28.3 555.0,25.5 556.6,23.3 558.1,21.6 559.7,20.5 561.3,20.0 562.8,20.1 564.4,20.8 565.9,22.0 567.5,23.7 569.1,25.8 570.6,28.4 572.2,31.2 573.8,34.3 575.3,37.7 576.9,41.1 578.4,44.7 580.0,48.2 581.6,51.7 583.1,55.1 584.7,58.4 586.3,61.5 587.8,64.4 589.4,67.0 590.9,69.4 592.5,71.5 594.1,73.4 595.6,75.0 597.2,76.3 598.8,77.3 600.3,78.0 601.9,78.6 603.4,78.9 605.0,79.0 606.6,78.9 608.1,78.6 609.7,78.2 611.3,77.7 612.8,77.0 614.4,76.3 615.9,75.6 617.5,74.8 619.1,74.0 620.6,73.3 622.2,72.5 623.8,71.8 625.3,71.1 626.9,70.4 628.4,69.8 630.0,69.3 631.6,68.9 633.1,68.5 634.7,68.2 636.3,67.9 637.8,67.7 639.4,67.6 640.9,67.6 642.5,67.6 644.1,67.6 645.6,67.7 647.2,67.8 648.8,68.0 650.3,68.1 651.9,68.3 653.4,68.5 655.0,68.7 656.6,69.0 658.1,69.2 659.7,69.4 661.3,69.6 662.8,69.8 664.4,69.9 665.9,70.1 667.5,70.2 669.1,70.3 670.6,70.4 672.2,70.5 673.8,70.6 675.3,70.6 676.9,70.7 678.4,70.7 680.0,70.7 681.6,70.7 683.1,70.6 684.7,70.6 686.3,70.6 687.8,70.5 689.4,70.5 690.9,70.4 692.5,70.3 694.1,70.3 695.6,70.2 697.2,70.2 698.8,70.1 700.3,70.1 701.9,70.0 703.4,70.0 705.0,69.9 706.6,69.9 708.1,69.9 709.7,69.9 711.3,69.8 712.8,69.8 714.4,69.8 715.9,69.8 717.5,69.8 719.1,69.8 720.6,69.8 722.2,69.8 723.8,69.9 725.3,69.9 726.9,69.9 728.4,69.9" fill="none" stroke="#4a90d9" stroke-width="1.3" stroke-linejoin="round"/>
</svg>
