<svg xmlns="http://www.w3.org/2000/svg" viewBox="0 0 820 378" style="font-family:system-ui,-apple-system,sans-serif">
  <text x="800" y="11" text-anchor="end" font-size="11" font-weight="600" fill="#6b7280">C-weighting (IEC 61672)</text>
  <line x1="34" y1="16" x2="34" y2="171" stroke="#d1d5db"/>
  <line x1="34" y1="47.0" x2="399" y2="47.0" stroke="#d1d5db"/>
  <text x="216.5" y="197" text-anchor="middle" font-size="9" fill="#6b7280">Hz</text>
  <text x="12" y="93.5" text-anchor="middle" font-size="9" fill="#6b7280" transform="rotate(-90 12 93.5)">dB</text>
  <line x1="67.3" y1="16" x2="67.3" y2="171" stroke="#e5e7eb" stroke-width="0.5"/>
  <line x1="86.8" y1="16" x2="86.8" y2="171" stroke="#e5e7eb" stroke-width="0.5"/>
  <line x1="100.6" y1="16" x2="100.6" y2="171" stroke="#e5e7eb" stroke-width="0.5"/>
  <line x1="111.3" y1="16" x2="111.3" y2="171" stroke="#e5e7eb" stroke-width="0.5"/>
  <line x1="120.0" y1="16" x2="120.0" y2="171" stroke="#e5e7eb" stroke-width="0.5"/>
  <line x1="127.4" y1="16" x2="127.4" y2="171" stroke="#e5e7eb" stroke-width="0.5"/>
  <line x1="133.9" y1="16" x2="133.9" y2="171" stroke="#e5e7eb" stroke-width="0.5"/>
  <line x1="139.5" y1="16" x2="139.5" y2="171" stroke="#e5e7eb" stroke-width="0.5"/>
  <line x1="177.9" y1="16" x2="177.9" y2="171" stroke="#e5e7eb" stroke-width="0.5"/>
  <line x1="197.3" y1="16" x2="197.3" y2="171" stroke="#e5e7eb" stroke-width="0.5"/>
  <line x1="211.1" y1="16" x2="211.1" y2="171" stroke="#e5e7eb" stroke-width="0.5"/>
  <line x1="221.9" y1="16" x2="221.9" y2="171" stroke="#e5e7eb" stroke-width="0.5"/>
  <line x1="230.6" y1="16" x2="230.6" y2="171" stroke="#e5e7eb" stroke-width="0.5"/>
  <line x1="238.0" y1="16" x2="238.0" y2="171" stroke="#e5e7eb" stroke-width="0.5"/>
  <line x1="244.4" y1="16" x2="244.4" y2="171" stroke="#e5e7eb" stroke-width="0.5"/>
  <line x1="250.1" y1="16" x2="250.1" y2="171" stroke="#e5e7eb" stroke-width="0.5"/>
  <line x1="288.4" y1="16" x2="288.4" y2="171" stroke="#e5e7eb" stroke-width="0.5"/>
  <line x1="307.9" y1="16" x2="307.9" y2="171" stroke="#e5e7eb" stroke-width="0.5"/>
  <line x1="321.7" y1="16" x2="321.7" y2="171" stroke="#e5e7eb" stroke-width="0.5"/>
  <line x1="332.4" y1="16" x2="332.4" y2="171" stroke="#e5e7eb" stroke-width="0.5"/>
  <line x1="341.2" y1="16" x2="341.2" y2="171" stroke="#e5e7eb" stroke-width="0.5"/>
  <line x1="348.6" y1="16" x2="348.6" y2="171" stroke="#e5e7eb" stroke-width="0.5"/>
  <line x1="355.0" y1="16" x2="355.0" y2="171" stroke="#e5e7eb" stroke-width="0.5"/>
  <line x1="360.7" y1="16" x2="360.7" y2="171" stroke="#e5e7eb" stroke-width="0.5"/>
  <line x1="399.0" y1="16" x2="399.0" y2="171" stroke="#e5e7eb" stroke-width="0.5"/>
  <line x1="144.6" y1="16" x2="144.6" y2="171" stroke="#e5e7eb" stroke-width="0.5"/>
  <text x="144.6" y="183" text-anchor="middle" font-size="8" fill="#6b7280">100</text>
  <line x1="255.1" y1="16" x2="255.1" y2="171" stroke="#e5e7eb" stroke-width="0.5"/>
  <text x="255.1" y="183" text-anchor="middle" font-size="8" fill="#6b7280">1k</text>
  <line x1="365.7" y1="16" x2="365.7" y2="171" stroke="#e5e7eb" stroke-width="0.5"/>
  <text x="365.7" y="183" text-anchor="middle" font-size="8" fill="#6b7280">10k</text>
  <line x1="34" y1="31.5" x2="399" y2="31.5" stroke="#e5e7eb" stroke-width="0.5"/>
  <line x1="34" y1="62.5" x2="399" y2="62.5" stroke="#e5e7eb" stroke-width="0.5"/>
  <line x1="34" y1="16.0" x2="399" y2="16.0" stroke="#e5e7eb" stroke-width="0.5"/>
  <text x="30" y="19.0" text-anchor="end" font-size="8" fill="#6b7280">+20</text>
  <text x="30" y="50.0" text-anchor="end" font-size="8" fill="#6b7280">0</text>
  <line x1="34" y1="78.0" x2="399" y2="78.0" stroke="#e5e7eb" stroke-width="0.5"/>
  <text x="30" y="81.0" text-anchor="end" font-size="8" fill="#6b7280">-20</text>
  <line x1="34" y1="109.0" x2="399" y2="109.0" stroke="#e5e7eb" stroke-width="0.5"/>
  <text x="30" y="112.0" text-anchor="end" font-size="8" fill="#6b7280">-40</text>
  <line x1="34" y1="140.0" x2="399" y2="140.0" stroke="#e5e7eb" stroke-width="0.5"/>
  <text x="30" y="143.0" text-anchor="end" font-size="8" fill="#6b7280">-60</text>
  <line x1="34" y1="171.0" x2="399" y2="171.0" stroke="#e5e7eb" stroke-width="0.5"/>
  <text x="30" y="174.0" text-anchor="end" font-size="8" fill="#6b7280">-80</text>
  <defs><linearGradient id="g244" x1="0" y1="16" x2="0" y2="171" gradientUnits="userSpaceOnUse">
    <stop offset="0%" stop-color="#4a90d9" stop-opacity="0.15"/>
    <stop offset="100%" stop-color="#4a90d9" stop-opacity="0.02"/>
  </linearGradient></defs>
  <path d="M37.5,67.7 37.5,67.7 70.8,55.7 90.3,51.5 104.1,49.7 114.8,48.8 123.6,48.2 131.0,47.9 137.4,47.7 143.1,47.5 148.1,47.4 152.7,47.3 156.9,47.3 160.7,47.2 164.3,47.2 167.6,47.2 170.7,47.1 173.6,47.1 176.3,47.1 178.9,47.1 181.4,47.1 183.7,47.1 186.0,47.0 188.1,47.0 190.2,47.0 192.1,47.0 194.0,47.0 195.8,47.0 197.6,47.0 199.2,47.0 200.9,47.0 202.4,47.0 204.0,47.0 205.5,47.0 206.9,47.0 208.3,47.0 209.6,47.0 210.9,47.0 212.2,47.0 213.5,47.0 214.7,47.0 215.9,47.0 217.0,47.0 218.2,47.0 219.3,47.0 220.3,47.0 221.4,47.0 222.4,47.0 223.4,47.0 224.4,47.0 225.4,47.0 226.4,47.0 227.3,47.0 228.2,47.0 229.1,47.0 230.0,47.0 230.8,47.0 231.7,47.0 232.5,47.0 233.4,47.0 234.2,47.0 235.7,47.0 237.3,47.0 238.7,47.0 240.2,47.0 241.6,47.0 242.9,47.0 244.2,47.0 245.5,47.0 246.8,47.0 248.0,47.0 249.2,47.0 250.3,47.0 251.4,47.0 252.6,47.0 253.6,47.0 254.7,47.0 255.7,47.0 256.7,47.0 257.7,47.0 258.7,47.0 259.6,47.0 260.6,47.0 261.5,47.0 262.4,47.0 263.3,47.0 264.1,47.0 265.0,47.0 265.8,47.0 266.6,47.0 267.4,47.0 268.6,47.0 269.8,47.0 270.9,47.0 272.0,47.0 273.1,47.1 274.2,47.1 275.2,47.1 276.2,47.1 277.2,47.1 278.2,47.1 279.1,47.1 280.0,47.1 281.0,47.1 281.9,47.1 282.7,47.1 283.6,47.1 284.5,47.1 285.3,47.1 286.1,47.1 286.9,47.1 288.0,47.1 289.0,47.1 290.0,47.2 291.0,47.2 292.0,47.2 292.9,47.2 293.9,47.2 294.8,47.2 295.7,47.2 296.6,47.2 297.4,47.2 298.3,47.2 299.1,47.3 299.9,47.3 300.7,47.3 301.7,47.3 302.7,47.3 303.6,47.3 304.6,47.3 305.5,47.3 306.4,47.4 307.3,47.4 308.1,47.4 309.0,47.4 309.8,47.4 310.6,47.4 311.4,47.5 312.4,47.5 313.3,47.5 314.2,47.5 315.1,47.6 316.0,47.6 316.9,47.6 317.7,47.6 318.6,47.6 319.4,47.7 320.2,47.7 321.1,47.7 322.0,47.8 322.9,47.8 323.8,47.8 324.7,47.9 325.5,47.9 326.3,47.9 327.1,48.0 327.9,48.0 328.8,48.0 329.7,48.1 330.6,48.1 331.4,48.2 332.3,48.2 333.1,48.3 333.9,48.3 334.8,48.4 335.7,48.4 336.5,48.5 337.4,48.5 338.2,48.6 339.0,48.6 339.8,48.7 340.7,48.8 341.6,48.8 342.4,48.9 343.3,49.0 344.1,49.1 344.9,49.1 345.8,49.2 346.6,49.3 347.5,49.4 348.3,49.5 349.1,49.6 350.0,49.7 350.8,49.8 351.7,49.9 352.5,50.0 353.3,50.2 354.1,50.3 355.0,50.4 355.8,50.5 356.6,50.7 357.5,50.8 358.3,51.0 359.1,51.2 360.0,51.3 360.8,51.5 361.6,51.7 362.5,51.9 363.3,52.1 364.1,52.3 364.9,52.5 365.8,52.7 366.6,53.0 367.4,53.2 368.2,53.5 369.1,53.7 369.9,54.0 370.7,54.3 371.6,54.7 372.4,55.0 373.2,55.3 374.0,55.7 374.8,56.1 375.6,56.5 376.5,56.9 377.3,57.4 378.1,57.8 378.9,58.3 379.7,58.9 380.5,59.4 381.4,60.0 382.2,60.6 383.0,61.3 383.8,62.0 384.6,62.8 385.5,63.6 386.3,64.4 387.1,65.3 387.9,66.3 388.7,67.4 389.5,68.6 390.3,69.8 391.2,71.1 392.0,72.6 392.8,74.2 393.6,75.9 394.4,77.8 395.2,80.0 396.0,82.3 396.8,85.1 397.6,88.1 398.5,91.7 L398.5,171.0 L37.5,171.0 Z" fill="url(#g244)"/>
  <defs><clipPath id="pc245"><rect x="34" y="16" width="365" height="155"/></clipPath></defs>
  <polyline points="37.5,67.7 70.8,55.7 90.3,51.5 104.1,49.7 114.8,48.8 123.6,48.2 131.0,47.9 137.4,47.7 143.1,47.5 148.1,47.4 152.7,47.3 156.9,47.3 160.7,47.2 164.3,47.2 167.6,47.2 170.7,47.1 173.6,47.1 176.3,47.1 178.9,47.1 181.4,47.1 183.7,47.1 186.0,47.0 188.1,47.0 190.2,47.0 192.1,47.0 194.0,47.0 195.8,47.0 197.6,47.0 199.2,47.0 200.9,47.0 202.4,47.0 204.0,47.0 205.5,47.0 206.9,47.0 208.3,47.0 209.6,47.0 210.9,47.0 212.2,47.0 213.5,47.0 214.7,47.0 215.9,47.0 217.0,47.0 218.2,47.0 219.3,47.0 220.3,47.0 221.4,47.0 222.4,47.0 223.4,47.0 224.4,47.0 225.4,47.0 226.4,47.0 227.3,47.0 228.2,47.0 229.1,47.0 230.0,47.0 230.8,47.0 231.7,47.0 232.5,47.0 233.4,47.0 234.2,47.0 235.7,47.0 237.3,47.0 238.7,47.0 240.2,47.0 241.6,47.0 242.9,47.0 244.2,47.0 245.5,47.0 246.8,47.0 248.0,47.0 249.2,47.0 250.3,47.0 251.4,47.0 252.6,47.0 253.6,47.0 254.7,47.0 255.7,47.0 256.7,47.0 257.7,47.0 258.7,47.0 259.6,47.0 260.6,47.0 261.5,47.0 262.4,47.0 263.3,47.0 264.1,47.0 265.0,47.0 265.8,47.0 266.6,47.0 267.4,47.0 268.6,47.0 269.8,47.0 270.9,47.0 272.0,47.0 273.1,47.1 274.2,47.1 275.2,47.1 276.2,47.1 277.2,47.1 278.2,47.1 279.1,47.1 280.0,47.1 281.0,47.1 281.9,47.1 282.7,47.1 283.6,47.1 284.5,47.1 285.3,47.1 286.1,47.1 286.9,47.1 288.0,47.1 289.0,47.1 290.0,47.2 291.0,47.2 292.0,47.2 292.9,47.2 293.9,47.2 294.8,47.2 295.7,47.2 296.6,47.2 297.4,47.2 298.3,47.2 299.1,47.3 299.9,47.3 300.7,47.3 301.7,47.3 302.7,47.3 303.6,47.3 304.6,47.3 305.5,47.3 306.4,47.4 307.3,47.4 308.1,47.4 309.0,47.4 309.8,47.4 310.6,47.4 311.4,47.5 312.4,47.5 313.3,47.5 314.2,47.5 315.1,47.6 316.0,47.6 316.9,47.6 317.7,47.6 318.6,47.6 319.4,47.7 320.2,47.7 321.1,47.7 322.0,47.8 322.9,47.8 323.8,47.8 324.7,47.9 325.5,47.9 326.3,47.9 327.1,48.0 327.9,48.0 328.8,48.0 329.7,48.1 330.6,48.1 331.4,48.2 332.3,48.2 333.1,48.3 333.9,48.3 334.8,48.4 335.7,48.4 336.5,48.5 337.4,48.5 338.2,48.6 339.0,48.6 339.8,48.7 340.7,48.8 341.6,48.8 342.4,48.9 343.3,49.0 344.1,49.1 344.9,49.1 345.8,49.2 346.6,49.3 347.5,49.4 348.3,49.5 349.1,49.6 350.0,49.7 350.8,49.8 351.7,49.9 352.5,50.0 353.3,50.2 354.1,50.3 355.0,50.4 355.8,50.5 356.6,50.7 357.5,50.8 358.3,51.0 359.1,51.2 360.0,51.3 360.8,51.5 361.6,51.7 362.5,51.9 363.3,52.1 364.1,52.3 364.9,52.5 365.8,52.7 366.6,53.0 367.4,53.2 368.2,53.5 369.1,53.7 369.9,54.0 370.7,54.3 371.6,54.7 372.4,55.0 373.2,55.3 374.0,55.7 374.8,56.1 375.6,56.5 376.5,56.9 377.3,57.4 378.1,57.8 378.9,58.3 379.7,58.9 380.5,59.4 381.4,60.0 382.2,60.6 383.0,61.3 383.8,62.0 384.6,62.8 385.5,63.6 386.3,64.4 387.1,65.3 387.9,66.3 388.7,67.4 389.5,68.6 390.3,69.8 391.2,71.1 392.0,72.6 392.8,74.2 393.6,75.9 394.4,77.8 395.2,80.0 396.0,82.3 396.8,85.1 397.6,88.1 398.5,91.7" fill="none" stroke="#4a90d9" stroke-width="1.5" stroke-linejoin="round" clip-path="url(#pc245)"/>
  <line x1="435" y1="16" x2="435" y2="171" stroke="#d1d5db"/>
  <line x1="435" y1="93.5" x2="800" y2="93.5" stroke="#d1d5db"/>
  <text x="617.5" y="197" text-anchor="middle" font-size="9" fill="#6b7280">Hz</text>
  <text x="413" y="93.5" text-anchor="middle" font-size="9" fill="#6b7280" transform="rotate(-90 413 93.5)">Phase (deg)</text>
  <line x1="468.3" y1="16" x2="468.3" y2="171" stroke="#e5e7eb" stroke-width="0.5"/>
  <line x1="487.8" y1="16" x2="487.8" y2="171" stroke="#e5e7eb" stroke-width="0.5"/>
  <line x1="501.6" y1="16" x2="501.6" y2="171" stroke="#e5e7eb" stroke-width="0.5"/>
  <line x1="512.3" y1="16" x2="512.3" y2="171" stroke="#e5e7eb" stroke-width="0.5"/>
  <line x1="521.0" y1="16" x2="521.0" y2="171" stroke="#e5e7eb" stroke-width="0.5"/>
  <line x1="528.4" y1="16" x2="528.4" y2="171" stroke="#e5e7eb" stroke-width="0.5"/>
  <line x1="534.9" y1="16" x2="534.9" y2="171" stroke="#e5e7eb" stroke-width="0.5"/>
  <line x1="540.5" y1="16" x2="540.5" y2="171" stroke="#e5e7eb" stroke-width="0.5"/>
  <line x1="578.9" y1="16" x2="578.9" y2="171" stroke="#e5e7eb" stroke-width="0.5"/>
  <line x1="598.3" y1="16" x2="598.3" y2="171" stroke="#e5e7eb" stroke-width="0.5"/>
  <line x1="612.1" y1="16" x2="612.1" y2="171" stroke="#e5e7eb" stroke-width="0.5"/>
  <line x1="622.9" y1="16" x2="622.9" y2="171" stroke="#e5e7eb" stroke-width="0.5"/>
  <line x1="631.6" y1="16" x2="631.6" y2="171" stroke="#e5e7eb" stroke-width="0.5"/>
  <line x1="639.0" y1="16" x2="639.0" y2="171" stroke="#e5e7eb" stroke-width="0.5"/>
  <line x1="645.4" y1="16" x2="645.4" y2="171" stroke="#e5e7eb" stroke-width="0.5"/>
  <line x1="651.1" y1="16" x2="651.1" y2="171" stroke="#e5e7eb" stroke-width="0.5"/>
  <line x1="689.4" y1="16" x2="689.4" y2="171" stroke="#e5e7eb" stroke-width="0.5"/>
  <line x1="708.9" y1="16" x2="708.9" y2="171" stroke="#e5e7eb" stroke-width="0.5"/>
  <line x1="722.7" y1="16" x2="722.7" y2="171" stroke="#e5e7eb" stroke-width="0.5"/>
  <line x1="733.4" y1="16" x2="733.4" y2="171" stroke="#e5e7eb" stroke-width="0.5"/>
  <line x1="742.2" y1="16" x2="742.2" y2="171" stroke="#e5e7eb" stroke-width="0.5"/>
  <line x1="749.6" y1="16" x2="749.6" y2="171" stroke="#e5e7eb" stroke-width="0.5"/>
  <line x1="756.0" y1="16" x2="756.0" y2="171" stroke="#e5e7eb" stroke-width="0.5"/>
  <line x1="761.7" y1="16" x2="761.7" y2="171" stroke="#e5e7eb" stroke-width="0.5"/>
  <line x1="800.0" y1="16" x2="800.0" y2="171" stroke="#e5e7eb" stroke-width="0.5"/>
  <line x1="545.6" y1="16" x2="545.6" y2="171" stroke="#e5e7eb" stroke-width="0.5"/>
  <text x="545.6" y="183" text-anchor="middle" font-size="8" fill="#6b7280">100</text>
  <line x1="656.1" y1="16" x2="656.1" y2="171" stroke="#e5e7eb" stroke-width="0.5"/>
  <text x="656.1" y="183" text-anchor="middle" font-size="8" fill="#6b7280">1k</text>
  <line x1="766.7" y1="16" x2="766.7" y2="171" stroke="#e5e7eb" stroke-width="0.5"/>
  <text x="766.7" y="183" text-anchor="middle" font-size="8" fill="#6b7280">10k</text>
  <line x1="435" y1="58.6" x2="800" y2="58.6" stroke="#e5e7eb" stroke-width="0.5"/>
  <line x1="435" y1="128.4" x2="800" y2="128.4" stroke="#e5e7eb" stroke-width="0.5"/>
  <line x1="435" y1="23.8" x2="800" y2="23.8" stroke="#e5e7eb" stroke-width="0.5"/>
  <text x="431" y="26.8" text-anchor="end" font-size="8" fill="#6b7280">180</text>
  <text x="431" y="96.5" text-anchor="end" font-size="8" fill="#6b7280">0</text>
  <line x1="435" y1="163.3" x2="800" y2="163.3" stroke="#e5e7eb" stroke-width="0.5"/>
  <text x="431" y="166.3" text-anchor="end" font-size="8" fill="#6b7280">-180</text>
  <defs><linearGradient id="g246" x1="0" y1="16" x2="0" y2="93.5" gradientUnits="userSpaceOnUse">
    <stop offset="0%" stop-color="#e74c3c" stop-opacity="0.15"/>
    <stop offset="100%" stop-color="#e74c3c" stop-opacity="0.02"/>
  </linearGradient></defs>
  <defs><linearGradient id="g247" x1="0" y1="171" x2="0" y2="93.5" gradientUnits="userSpaceOnUse">
    <stop offset="0%" stop-color="#e74c3c" stop-opacity="0.15"/>
    <stop offset="100%" stop-color="#e74c3c" stop-opacity="0.02"/>
  </linearGradient></defs>
  <defs><clipPath id="c248"><rect x="435" y="16" width="365" height="77.5"/></clipPath></defs>
  <defs><clipPath id="c249"><rect x="435" y="93.5" width="365" height="77.5"/></clipPath></defs>
  <path d="M438.5,45.2 438.5,45.2 471.8,59.7 491.3,68.4 505.1,73.8 515.8,77.4 524.6,80.0 532.0,81.9 538.4,83.3 544.1,84.5 549.1,85.4 553.7,86.2 557.9,86.8 561.7,87.4 565.3,87.9 568.6,88.3 571.7,88.7 574.6,89.0 577.3,89.3 579.9,89.6 582.4,89.8 584.7,90.1 587.0,90.3 589.1,90.5 591.2,90.7 593.1,90.8 595.0,91.0 596.8,91.1 598.6,91.3 600.2,91.4 601.9,91.5 603.4,91.7 605.0,91.8 606.5,91.9 607.9,92.0 609.3,92.1 610.6,92.2 611.9,92.3 613.2,92.4 614.5,92.4 615.7,92.5 616.9,92.6 618.0,92.7 619.2,92.8 620.3,92.8 621.3,92.9 622.4,93.0 623.4,93.0 624.4,93.1 625.4,93.2 626.4,93.2 627.4,93.3 628.3,93.4 629.2,93.4 630.1,93.5 631.0,93.5 631.8,93.6 632.7,93.7 633.5,93.7 634.4,93.8 635.2,93.8 636.7,93.9 638.3,94.0 639.7,94.1 641.2,94.2 642.6,94.3 643.9,94.4 645.2,94.5 646.5,94.6 647.8,94.7 649.0,94.7 650.2,94.8 651.3,94.9 652.4,95.0 653.6,95.1 654.6,95.2 655.7,95.2 656.7,95.3 657.7,95.4 658.7,95.5 659.7,95.5 660.6,95.6 661.6,95.7 662.5,95.8 663.4,95.8 664.3,95.9 665.1,96.0 666.0,96.0 666.8,96.1 667.6,96.2 668.4,96.3 669.6,96.4 670.8,96.5 671.9,96.6 673.0,96.7 674.1,96.8 675.2,96.9 676.2,97.0 677.2,97.1 678.2,97.2 679.2,97.3 680.1,97.4 681.0,97.5 682.0,97.6 682.9,97.7 683.7,97.7 684.6,97.8 685.5,97.9 686.3,98.0 687.1,98.1 687.9,98.2 689.0,98.4 690.0,98.5 691.0,98.6 692.0,98.7 693.0,98.9 693.9,99.0 694.9,99.1 695.8,99.2 696.7,99.3 697.6,99.5 698.4,99.6 699.3,99.7 700.1,99.8 700.9,100.0 701.7,100.1 702.7,100.2 703.7,100.4 704.6,100.5 705.6,100.7 706.5,100.8 707.4,101.0 708.3,101.2 709.1,101.3 710.0,101.5 710.8,101.6 711.6,101.8 712.4,101.9 713.4,102.1 714.3,102.3 715.2,102.5 716.1,102.6 717.0,102.8 717.9,103.0 718.7,103.2 719.6,103.4 720.4,103.5 721.2,103.7 722.1,103.9 723.0,104.1 723.9,104.3 724.8,104.6 725.7,104.8 726.5,105.0 727.3,105.2 728.1,105.4 728.9,105.6 729.8,105.9 730.7,106.1 731.6,106.3 732.4,106.6 733.3,106.8 734.1,107.1 734.9,107.3 735.8,107.6 736.7,107.9 737.5,108.1 738.4,108.4 739.2,108.7 740.0,108.9 740.8,109.2 741.7,109.5 742.6,109.8 743.4,110.1 744.3,110.4 745.1,110.8 745.9,111.1 746.8,111.4 747.6,111.7 748.5,112.1 749.3,112.4 750.1,112.8 751.0,113.1 751.8,113.5 752.7,113.9 753.5,114.3 754.3,114.6 755.1,115.0 756.0,115.5 756.8,115.9 757.6,116.3 758.5,116.7 759.3,117.1 760.1,117.6 761.0,118.0 761.8,118.5 762.6,119.0 763.5,119.5 764.3,119.9 765.1,120.4 765.9,121.0 766.8,121.5 767.6,122.0 768.4,122.5 769.2,123.1 770.1,123.7 770.9,124.2 771.7,124.8 772.6,125.5 773.4,126.1 774.2,126.7 775.0,127.3 775.8,128.0 776.6,128.6 777.5,129.3 778.3,130.0 779.1,130.7 779.9,131.5 780.7,132.2 781.5,133.0 782.4,133.8 783.2,134.6 784.0,135.4 784.8,136.2 785.6,137.0 786.5,137.9 787.3,138.8 788.1,139.7 788.9,140.7 789.7,141.6 790.5,142.6 791.3,143.6 792.2,144.6 793.0,145.7 793.8,146.7 794.6,147.8 795.4,148.9 796.2,150.0 797.0,151.2 797.8,152.3 798.6,153.5 799.5,154.8 L799.5,93.5 L438.5,93.5 Z" fill="url(#g246)" clip-path="url(#c248)"/>
  <path d="M438.5,45.2 438.5,45.2 471.8,59.7 491.3,68.4 505.1,73.8 515.8,77.4 524.6,80.0 532.0,81.9 538.4,83.3 544.1,84.5 549.1,85.4 553.7,86.2 557.9,86.8 561.7,87.4 565.3,87.9 568.6,88.3 571.7,88.7 574.6,89.0 577.3,89.3 579.9,89.6 582.4,89.8 584.7,90.1 587.0,90.3 589.1,90.5 591.2,90.7 593.1,90.8 595.0,91.0 596.8,91.1 598.6,91.3 600.2,91.4 601.9,91.5 603.4,91.7 605.0,91.8 606.5,91.9 607.9,92.0 609.3,92.1 610.6,92.2 611.9,92.3 613.2,92.4 614.5,92.4 615.7,92.5 616.9,92.6 618.0,92.7 619.2,92.8 620.3,92.8 621.3,92.9 622.4,93.0 623.4,93.0 624.4,93.1 625.4,93.2 626.4,93.2 627.4,93.3 628.3,93.4 629.2,93.4 630.1,93.5 631.0,93.5 631.8,93.6 632.7,93.7 633.5,93.7 634.4,93.8 635.2,93.8 636.7,93.9 638.3,94.0 639.7,94.1 641.2,94.2 642.6,94.3 643.9,94.4 645.2,94.5 646.5,94.6 647.8,94.7 649.0,94.7 650.2,94.8 651.3,94.9 652.4,95.0 653.6,95.1 654.6,95.2 655.7,95.2 656.7,95.3 657.7,95.4 658.7,95.5 659.7,95.5 660.6,95.6 661.6,95.7 662.5,95.8 663.4,95.8 664.3,95.9 665.1,96.0 666.0,96.0 666.8,96.1 667.6,96.2 668.4,96.3 669.6,96.4 670.8,96.5 671.9,96.6 673.0,96.7 674.1,96.8 675.2,96.9 676.2,97.0 677.2,97.1 678.2,97.2 679.2,97.3 680.1,97.4 681.0,97.5 682.0,97.6 682.9,97.7 683.7,97.7 684.6,97.8 685.5,97.9 686.3,98.0 687.1,98.1 687.9,98.2 689.0,98.4 690.0,98.5 691.0,98.6 692.0,98.7 693.0,98.9 693.9,99.0 694.9,99.1 695.8,99.2 696.7,99.3 697.6,99.5 698.4,99.6 699.3,99.7 700.1,99.8 700.9,100.0 701.7,100.1 702.7,100.2 703.7,100.4 704.6,100.5 705.6,100.7 706.5,100.8 707.4,101.0 708.3,101.2 709.1,101.3 710.0,101.5 710.8,101.6 711.6,101.8 712.4,101.9 713.4,102.1 714.3,102.3 715.2,102.5 716.1,102.6 717.0,102.8 717.9,103.0 718.7,103.2 719.6,103.4 720.4,103.5 721.2,103.7 722.1,103.9 723.0,104.1 723.9,104.3 724.8,104.6 725.7,104.8 726.5,105.0 727.3,105.2 728.1,105.4 728.9,105.6 729.8,105.9 730.7,106.1 731.6,106.3 732.4,106.6 733.3,106.8 734.1,107.1 734.9,107.3 735.8,107.6 736.7,107.9 737.5,108.1 738.4,108.4 739.2,108.7 740.0,108.9 740.8,109.2 741.7,109.5 742.6,109.8 743.4,110.1 744.3,110.4 745.1,110.8 745.9,111.1 746.8,111.4 747.6,111.7 748.5,112.1 749.3,112.4 750.1,112.8 751.0,113.1 751.8,113.5 752.7,113.9 753.5,114.3 754.3,114.6 755.1,115.0 756.0,115.5 756.8,115.9 757.6,116.3 758.5,116.7 759.3,117.1 760.1,117.6 761.0,118.0 761.8,118.5 762.6,119.0 763.5,119.5 764.3,119.9 765.1,120.4 765.9,121.0 766.8,121.5 767.6,122.0 768.4,122.5 769.2,123.1 770.1,123.7 770.9,124.2 771.7,124.8 772.6,125.5 773.4,126.1 774.2,126.7 775.0,127.3 775.8,128.0 776.6,128.6 777.5,129.3 778.3,130.0 779.1,130.7 779.9,131.5 780.7,132.2 781.5,133.0 782.4,133.8 783.2,134.6 784.0,135.4 784.8,136.2 785.6,137.0 786.5,137.9 787.3,138.8 788.1,139.7 788.9,140.7 789.7,141.6 790.5,142.6 791.3,143.6 792.2,144.6 793.0,145.7 793.8,146.7 794.6,147.8 795.4,148.9 796.2,150.0 797.0,151.2 797.8,152.3 798.6,153.5 799.5,154.8 L799.5,93.5 L438.5,93.5 Z" fill="url(#g247)" clip-path="url(#c249)"/>
  <defs><clipPath id="pc250"><rect x="435" y="16" width="365" height="155"/></clipPath></defs>
  <polyline points="438.5,45.2 471.8,59.7 491.3,68.4 505.1,73.8 515.8,77.4 524.6,80.0 532.0,81.9 538.4,83.3 544.1,84.5 549.1,85.4 553.7,86.2 557.9,86.8 561.7,87.4 565.3,87.9 568.6,88.3 571.7,88.7 574.6,89.0 577.3,89.3 579.9,89.6 582.4,89.8 584.7,90.1 587.0,90.3 589.1,90.5 591.2,90.7 593.1,90.8 595.0,91.0 596.8,91.1 598.6,91.3 600.2,91.4 601.9,91.5 603.4,91.7 605.0,91.8 606.5,91.9 607.9,92.0 609.3,92.1 610.6,92.2 611.9,92.3 613.2,92.4 614.5,92.4 615.7,92.5 616.9,92.6 618.0,92.7 619.2,92.8 620.3,92.8 621.3,92.9 622.4,93.0 623.4,93.0 624.4,93.1 625.4,93.2 626.4,93.2 627.4,93.3 628.3,93.4 629.2,93.4 630.1,93.5 631.0,93.5 631.8,93.6 632.7,93.7 633.5,93.7 634.4,93.8 635.2,93.8 636.7,93.9 638.3,94.0 639.7,94.1 641.2,94.2 642.6,94.3 643.9,94.4 645.2,94.5 646.5,94.6 647.8,94.7 649.0,94.7 650.2,94.8 651.3,94.9 652.4,95.0 653.6,95.1 654.6,95.2 655.7,95.2 656.7,95.3 657.7,95.4 658.7,95.5 659.7,95.5 660.6,95.6 661.6,95.7 662.5,95.8 663.4,95.8 664.3,95.9 665.1,96.0 666.0,96.0 666.8,96.1 667.6,96.2 668.4,96.3 669.6,96.4 670.8,96.5 671.9,96.6 673.0,96.7 674.1,96.8 675.2,96.9 676.2,97.0 677.2,97.1 678.2,97.2 679.2,97.3 680.1,97.4 681.0,97.5 682.0,97.6 682.9,97.7 683.7,97.7 684.6,97.8 685.5,97.9 686.3,98.0 687.1,98.1 687.9,98.2 689.0,98.4 690.0,98.5 691.0,98.6 692.0,98.7 693.0,98.9 693.9,99.0 694.9,99.1 695.8,99.2 696.7,99.3 697.6,99.5 698.4,99.6 699.3,99.7 700.1,99.8 700.9,100.0 701.7,100.1 702.7,100.2 703.7,100.4 704.6,100.5 705.6,100.7 706.5,100.8 707.4,101.0 708.3,101.2 709.1,101.3 710.0,101.5 710.8,101.6 711.6,101.8 712.4,101.9 713.4,102.1 714.3,102.3 715.2,102.5 716.1,102.6 717.0,102.8 717.9,103.0 718.7,103.2 719.6,103.4 720.4,103.5 721.2,103.7 722.1,103.9 723.0,104.1 723.9,104.3 724.8,104.6 725.7,104.8 726.5,105.0 727.3,105.2 728.1,105.4 728.9,105.6 729.8,105.9 730.7,106.1 731.6,106.3 732.4,106.6 733.3,106.8 734.1,107.1 734.9,107.3 735.8,107.6 736.7,107.9 737.5,108.1 738.4,108.4 739.2,108.7 740.0,108.9 740.8,109.2 741.7,109.5 742.6,109.8 743.4,110.1 744.3,110.4 745.1,110.8 745.9,111.1 746.8,111.4 747.6,111.7 748.5,112.1 749.3,112.4 750.1,112.8 751.0,113.1 751.8,113.5 752.7,113.9 753.5,114.3 754.3,114.6 755.1,115.0 756.0,115.5 756.8,115.9 757.6,116.3 758.5,116.7 759.3,117.1 760.1,117.6 761.0,118.0 761.8,118.5 762.6,119.0 763.5,119.5 764.3,119.9 765.1,120.4 765.9,121.0 766.8,121.5 767.6,122.0 768.4,122.5 769.2,123.1 770.1,123.7 770.9,124.2 771.7,124.8 772.6,125.5 773.4,126.1 774.2,126.7 775.0,127.3 775.8,128.0 776.6,128.6 777.5,129.3 778.3,130.0 779.1,130.7 779.9,131.5 780.7,132.2 781.5,133.0 782.4,133.8 783.2,134.6 784.0,135.4 784.8,136.2 785.6,137.0 786.5,137.9 787.3,138.8 788.1,139.7 788.9,140.7 789.7,141.6 790.5,142.6 791.3,143.6 792.2,144.6 793.0,145.7 793.8,146.7 794.6,147.8 795.4,148.9 796.2,150.0 797.0,151.2 797.8,152.3 798.6,153.5 799.5,154.8" fill="none" stroke="#e74c3c" stroke-width="1.5" stroke-linejoin="round" clip-path="url(#pc250)"/>
  <line x1="34" y1="207" x2="34" y2="362" stroke="#d1d5db"/>
  <line x1="34" y1="284.5" x2="399" y2="284.5" stroke="#d1d5db"/>
  <text x="216.5" y="388" text-anchor="middle" font-size="9" fill="#6b7280">Hz</text>
  <text x="12" y="284.5" text-anchor="middle" font-size="9" fill="#6b7280" transform="rotate(-90 12 284.5)">Group delay</text>
  <line x1="67.3" y1="207" x2="67.3" y2="362" stroke="#e5e7eb" stroke-width="0.5"/>
  <line x1="86.8" y1="207" x2="86.8" y2="362" stroke="#e5e7eb" stroke-width="0.5"/>
  <line x1="100.6" y1="207" x2="100.6" y2="362" stroke="#e5e7eb" stroke-width="0.5"/>
  <line x1="111.3" y1="207" x2="111.3" y2="362" stroke="#e5e7eb" stroke-width="0.5"/>
  <line x1="120.0" y1="207" x2="120.0" y2="362" stroke="#e5e7eb" stroke-width="0.5"/>
  <line x1="127.4" y1="207" x2="127.4" y2="362" stroke="#e5e7eb" stroke-width="0.5"/>
  <line x1="133.9" y1="207" x2="133.9" y2="362" stroke="#e5e7eb" stroke-width="0.5"/>
  <line x1="139.5" y1="207" x2="139.5" y2="362" stroke="#e5e7eb" stroke-width="0.5"/>
  <line x1="177.9" y1="207" x2="177.9" y2="362" stroke="#e5e7eb" stroke-width="0.5"/>
  <line x1="197.3" y1="207" x2="197.3" y2="362" stroke="#e5e7eb" stroke-width="0.5"/>
  <line x1="211.1" y1="207" x2="211.1" y2="362" stroke="#e5e7eb" stroke-width="0.5"/>
  <line x1="221.9" y1="207" x2="221.9" y2="362" stroke="#e5e7eb" stroke-width="0.5"/>
  <line x1="230.6" y1="207" x2="230.6" y2="362" stroke="#e5e7eb" stroke-width="0.5"/>
  <line x1="238.0" y1="207" x2="238.0" y2="362" stroke="#e5e7eb" stroke-width="0.5"/>
  <line x1="244.4" y1="207" x2="244.4" y2="362" stroke="#e5e7eb" stroke-width="0.5"/>
  <line x1="250.1" y1="207" x2="250.1" y2="362" stroke="#e5e7eb" stroke-width="0.5"/>
  <line x1="288.4" y1="207" x2="288.4" y2="362" stroke="#e5e7eb" stroke-width="0.5"/>
  <line x1="307.9" y1="207" x2="307.9" y2="362" stroke="#e5e7eb" stroke-width="0.5"/>
  <line x1="321.7" y1="207" x2="321.7" y2="362" stroke="#e5e7eb" stroke-width="0.5"/>
  <line x1="332.4" y1="207" x2="332.4" y2="362" stroke="#e5e7eb" stroke-width="0.5"/>
  <line x1="341.2" y1="207" x2="341.2" y2="362" stroke="#e5e7eb" stroke-width="0.5"/>
  <line x1="348.6" y1="207" x2="348.6" y2="362" stroke="#e5e7eb" stroke-width="0.5"/>
  <line x1="355.0" y1="207" x2="355.0" y2="362" stroke="#e5e7eb" stroke-width="0.5"/>
  <line x1="360.7" y1="207" x2="360.7" y2="362" stroke="#e5e7eb" stroke-width="0.5"/>
  <line x1="399.0" y1="207" x2="399.0" y2="362" stroke="#e5e7eb" stroke-width="0.5"/>
  <line x1="144.6" y1="207" x2="144.6" y2="362" stroke="#e5e7eb" stroke-width="0.5"/>
  <text x="144.6" y="374" text-anchor="middle" font-size="8" fill="#6b7280">100</text>
  <line x1="255.1" y1="207" x2="255.1" y2="362" stroke="#e5e7eb" stroke-width="0.5"/>
  <text x="255.1" y="374" text-anchor="middle" font-size="8" fill="#6b7280">1k</text>
  <line x1="365.7" y1="207" x2="365.7" y2="362" stroke="#e5e7eb" stroke-width="0.5"/>
  <text x="365.7" y="374" text-anchor="middle" font-size="8" fill="#6b7280">10k</text>
  <line x1="34" y1="325.7" x2="399" y2="325.7" stroke="#e5e7eb" stroke-width="0.5"/>
  <text x="30" y="328.7" text-anchor="end" font-size="8" fill="#6b7280">-900</text>
  <text x="30" y="287.5" text-anchor="end" font-size="8" fill="#6b7280">0</text>
  <line x1="34" y1="243.3" x2="399" y2="243.3" stroke="#e5e7eb" stroke-width="0.5"/>
  <text x="30" y="246.3" text-anchor="end" font-size="8" fill="#6b7280">900</text>
  <defs><linearGradient id="g251" x1="0" y1="207" x2="0" y2="284.5" gradientUnits="userSpaceOnUse">
    <stop offset="0%" stop-color="#2ecc71" stop-opacity="0.15"/>
    <stop offset="100%" stop-color="#2ecc71" stop-opacity="0.02"/>
  </linearGradient></defs>
  <path d="M37.5,237.7 37.5,237.7 70.8,270.3 90.3,278.8 104.1,281.7 114.8,283.0 123.6,283.6 131.0,283.9 137.4,284.1 143.1,284.2 148.1,284.3 152.7,284.3 156.9,284.4 160.7,284.4 164.3,284.4 167.6,284.4 170.7,284.4 173.6,284.5 176.3,284.5 178.9,284.5 181.4,284.5 183.7,284.5 186.0,284.5 188.1,284.5 190.2,284.5 192.1,284.5 194.0,284.5 195.8,284.5 197.6,284.5 199.2,284.5 200.9,284.5 202.4,284.5 204.0,284.5 205.5,284.5 206.9,284.5 208.3,284.5 209.6,284.5 210.9,284.5 212.2,284.5 213.5,284.5 214.7,284.5 215.9,284.5 217.0,284.5 218.2,284.5 219.3,284.5 220.3,284.5 221.4,284.5 222.4,284.5 223.4,284.5 224.4,284.5 225.4,284.5 226.4,284.5 227.3,284.5 228.2,284.5 229.1,284.5 230.0,284.5 230.8,284.5 231.7,284.5 232.5,284.5 233.4,284.5 234.2,284.5 235.7,284.5 237.3,284.5 238.7,284.5 240.2,284.5 241.6,284.5 242.9,284.5 244.2,284.5 245.5,284.5 246.8,284.5 248.0,284.5 249.2,284.5 250.3,284.5 251.4,284.5 252.6,284.5 253.6,284.5 254.7,284.5 255.7,284.5 256.7,284.5 257.7,284.5 258.7,284.5 259.6,284.5 260.6,284.5 261.5,284.5 262.4,284.5 263.3,284.5 264.1,284.5 265.0,284.5 265.8,284.5 266.6,284.5 267.4,284.5 268.6,284.5 269.8,284.5 270.9,284.5 272.0,284.5 273.1,284.5 274.2,284.5 275.2,284.5 276.2,284.5 277.2,284.5 278.2,284.5 279.1,284.5 280.0,284.5 281.0,284.5 281.9,284.5 282.7,284.5 283.6,284.5 284.5,284.5 285.3,284.5 286.1,284.5 286.9,284.5 288.0,284.5 289.0,284.5 290.0,284.5 291.0,284.5 292.0,284.5 292.9,284.5 293.9,284.5 294.8,284.5 295.7,284.5 296.6,284.5 297.4,284.5 298.3,284.5 299.1,284.5 299.9,284.5 300.7,284.5 301.7,284.5 302.7,284.5 303.6,284.5 304.6,284.5 305.5,284.5 306.4,284.5 307.3,284.5 308.1,284.5 309.0,284.5 309.8,284.5 310.6,284.5 311.4,284.5 312.4,284.5 313.3,284.5 314.2,284.5 315.1,284.5 316.0,284.5 316.9,284.5 317.7,284.5 318.6,284.5 319.4,284.5 320.2,284.5 321.1,284.5 322.0,284.5 322.9,284.5 323.8,284.5 324.7,284.5 325.5,284.5 326.3,284.5 327.1,284.5 327.9,284.5 328.8,284.5 329.7,284.5 330.6,284.5 331.4,284.5 332.3,284.5 333.1,284.5 333.9,284.5 334.8,284.5 335.7,284.5 336.5,284.5 337.4,284.5 338.2,284.5 339.0,284.5 339.8,284.5 340.7,284.5 341.6,284.5 342.4,284.5 343.3,284.5 344.1,284.5 344.9,284.5 345.8,284.5 346.6,284.5 347.5,284.5 348.3,284.5 349.1,284.5 350.0,284.5 350.8,284.5 351.7,284.5 352.5,284.5 353.3,284.5 354.1,284.5 355.0,284.5 355.8,284.5 356.6,284.5 357.5,284.5 358.3,284.5 359.1,284.5 360.0,284.5 360.8,284.5 361.6,284.5 362.5,284.5 363.3,284.5 364.1,284.5 364.9,284.5 365.8,284.5 366.6,284.5 367.4,284.5 368.2,284.5 369.1,284.5 369.9,284.5 370.7,284.5 371.6,284.5 372.4,284.5 373.2,284.5 374.0,284.5 374.8,284.5 375.6,284.5 376.5,284.5 377.3,284.6 378.1,284.6 378.9,284.6 379.7,284.6 380.5,284.6 381.4,284.6 382.2,284.6 383.0,284.6 383.8,284.6 384.6,284.6 385.5,284.6 386.3,284.6 387.1,284.6 387.9,284.6 388.7,284.6 389.5,284.6 390.3,284.6 391.2,284.6 392.0,284.6 392.8,284.6 393.6,284.6 394.4,284.7 395.2,284.7 396.0,284.7 396.8,284.7 397.6,284.7 398.5,284.8 L398.5,284.5 L37.5,284.5 Z" fill="url(#g251)"/>
  <defs><clipPath id="pc252"><rect x="34" y="207" width="365" height="155"/></clipPath></defs>
  <polyline points="37.5,237.7 70.8,270.3 90.3,278.8 104.1,281.7 114.8,283.0 123.6,283.6 131.0,283.9 137.4,284.1 143.1,284.2 148.1,284.3 152.7,284.3 156.9,284.4 160.7,284.4 164.3,284.4 167.6,284.4 170.7,284.4 173.6,284.5 176.3,284.5 178.9,284.5 181.4,284.5 183.7,284.5 186.0,284.5 188.1,284.5 190.2,284.5 192.1,284.5 194.0,284.5 195.8,284.5 197.6,284.5 199.2,284.5 200.9,284.5 202.4,284.5 204.0,284.5 205.5,284.5 206.9,284.5 208.3,284.5 209.6,284.5 210.9,284.5 212.2,284.5 213.5,284.5 214.7,284.5 215.9,284.5 217.0,284.5 218.2,284.5 219.3,284.5 220.3,284.5 221.4,284.5 222.4,284.5 223.4,284.5 224.4,284.5 225.4,284.5 226.4,284.5 227.3,284.5 228.2,284.5 229.1,284.5 230.0,284.5 230.8,284.5 231.7,284.5 232.5,284.5 233.4,284.5 234.2,284.5 235.7,284.5 237.3,284.5 238.7,284.5 240.2,284.5 241.6,284.5 242.9,284.5 244.2,284.5 245.5,284.5 246.8,284.5 248.0,284.5 249.2,284.5 250.3,284.5 251.4,284.5 252.6,284.5 253.6,284.5 254.7,284.5 255.7,284.5 256.7,284.5 257.7,284.5 258.7,284.5 259.6,284.5 260.6,284.5 261.5,284.5 262.4,284.5 263.3,284.5 264.1,284.5 265.0,284.5 265.8,284.5 266.6,284.5 267.4,284.5 268.6,284.5 269.8,284.5 270.9,284.5 272.0,284.5 273.1,284.5 274.2,284.5 275.2,284.5 276.2,284.5 277.2,284.5 278.2,284.5 279.1,284.5 280.0,284.5 281.0,284.5 281.9,284.5 282.7,284.5 283.6,284.5 284.5,284.5 285.3,284.5 286.1,284.5 286.9,284.5 288.0,284.5 289.0,284.5 290.0,284.5 291.0,284.5 292.0,284.5 292.9,284.5 293.9,284.5 294.8,284.5 295.7,284.5 296.6,284.5 297.4,284.5 298.3,284.5 299.1,284.5 299.9,284.5 300.7,284.5 301.7,284.5 302.7,284.5 303.6,284.5 304.6,284.5 305.5,284.5 306.4,284.5 307.3,284.5 308.1,284.5 309.0,284.5 309.8,284.5 310.6,284.5 311.4,284.5 312.4,284.5 313.3,284.5 314.2,284.5 315.1,284.5 316.0,284.5 316.9,284.5 317.7,284.5 318.6,284.5 319.4,284.5 320.2,284.5 321.1,284.5 322.0,284.5 322.9,284.5 323.8,284.5 324.7,284.5 325.5,284.5 326.3,284.5 327.1,284.5 327.9,284.5 328.8,284.5 329.7,284.5 330.6,284.5 331.4,284.5 332.3,284.5 333.1,284.5 333.9,284.5 334.8,284.5 335.7,284.5 336.5,284.5 337.4,284.5 338.2,284.5 339.0,284.5 339.8,284.5 340.7,284.5 341.6,284.5 342.4,284.5 343.3,284.5 344.1,284.5 344.9,284.5 345.8,284.5 346.6,284.5 347.5,284.5 348.3,284.5 349.1,284.5 350.0,284.5 350.8,284.5 351.7,284.5 352.5,284.5 353.3,284.5 354.1,284.5 355.0,284.5 355.8,284.5 356.6,284.5 357.5,284.5 358.3,284.5 359.1,284.5 360.0,284.5 360.8,284.5 361.6,284.5 362.5,284.5 363.3,284.5 364.1,284.5 364.9,284.5 365.8,284.5 366.6,284.5 367.4,284.5 368.2,284.5 369.1,284.5 369.9,284.5 370.7,284.5 371.6,284.5 372.4,284.5 373.2,284.5 374.0,284.5 374.8,284.5 375.6,284.5 376.5,284.5 377.3,284.6 378.1,284.6 378.9,284.6 379.7,284.6 380.5,284.6 381.4,284.6 382.2,284.6 383.0,284.6 383.8,284.6 384.6,284.6 385.5,284.6 386.3,284.6 387.1,284.6 387.9,284.6 388.7,284.6 389.5,284.6 390.3,284.6 391.2,284.6 392.0,284.6 392.8,284.6 393.6,284.6 394.4,284.7 395.2,284.7 396.0,284.7 396.8,284.7 397.6,284.7 398.5,284.8" fill="none" stroke="#2ecc71" stroke-width="1.5" stroke-linejoin="round" clip-path="url(#pc252)"/>
  <line x1="435" y1="207" x2="435" y2="362" stroke="#d1d5db"/>
  <line x1="435" y1="284.5" x2="800" y2="284.5" stroke="#d1d5db"/>
  <text x="617.5" y="388" text-anchor="middle" font-size="9" fill="#6b7280">Samples</text>
  <text x="413" y="284.5" text-anchor="middle" font-size="9" fill="#6b7280" transform="rotate(-90 413 284.5)">Impulse response</text>
  <line x1="435.0" y1="207" x2="435.0" y2="362" stroke="#e5e7eb" stroke-width="0.5"/>
  <text x="435.0" y="374" text-anchor="middle" font-size="8" fill="#6b7280">0</text>
  <line x1="526.3" y1="207" x2="526.3" y2="362" stroke="#e5e7eb" stroke-width="0.5"/>
  <text x="526.3" y="374" text-anchor="middle" font-size="8" fill="#6b7280">32</text>
  <line x1="617.5" y1="207" x2="617.5" y2="362" stroke="#e5e7eb" stroke-width="0.5"/>
  <text x="617.5" y="374" text-anchor="middle" font-size="8" fill="#6b7280">64</text>
  <line x1="708.8" y1="207" x2="708.8" y2="362" stroke="#e5e7eb" stroke-width="0.5"/>
  <text x="708.8" y="374" text-anchor="middle" font-size="8" fill="#6b7280">96</text>
  <line x1="800.0" y1="207" x2="800.0" y2="362" stroke="#e5e7eb" stroke-width="0.5"/>
  <text x="800.0" y="374" text-anchor="middle" font-size="8" fill="#6b7280">128</text>
  <line x1="435" y1="342.2" x2="800" y2="342.2" stroke="#e5e7eb" stroke-width="0.5"/>
  <text x="431" y="345.2" text-anchor="end" font-size="8" fill="#6b7280">-0.4</text>
  <text x="431" y="287.5" text-anchor="end" font-size="8" fill="#6b7280">0</text>
  <line x1="435" y1="226.8" x2="800" y2="226.8" stroke="#e5e7eb" stroke-width="0.5"/>
  <text x="431" y="229.8" text-anchor="end" font-size="8" fill="#6b7280">0.4</text>
  <defs><linearGradient id="g253" x1="0" y1="207" x2="0" y2="284.5" gradientUnits="userSpaceOnUse">
    <stop offset="0%" stop-color="#f39c12" stop-opacity="0.15"/>
    <stop offset="100%" stop-color="#f39c12" stop-opacity="0.02"/>
  </linearGradient></defs>
  <defs><linearGradient id="g254" x1="0" y1="362" x2="0" y2="284.5" gradientUnits="userSpaceOnUse">
    <stop offset="0%" stop-color="#f39c12" stop-opacity="0.15"/>
    <stop offset="100%" stop-color="#f39c12" stop-opacity="0.02"/>
  </linearGradient></defs>
  <defs><clipPath id="c255"><rect x="435" y="207" width="365" height="77.5"/></clipPath></defs>
  <defs><clipPath id="c256"><rect x="435" y="284.5" width="365" height="77.5"/></clipPath></defs>
  <path d="M435.0,242.1 435.0,242.1 437.9,207.0 440.7,256.1 443.6,290.8 446.4,284.6 449.3,285.4 452.1,285.3 455.0,285.3 457.8,285.3 460.7,285.3 463.5,285.3 466.4,285.3 469.2,285.3 472.1,285.3 474.9,285.3 477.8,285.3 480.6,285.3 483.5,285.3 486.3,285.3 489.2,285.3 492.0,285.3 494.9,285.3 497.7,285.3 500.6,285.3 503.4,285.3 506.3,285.3 509.1,285.3 512.0,285.3 514.8,285.3 517.7,285.3 520.5,285.2 523.4,285.2 526.3,285.2 529.1,285.2 532.0,285.2 534.8,285.2 537.7,285.2 540.5,285.2 543.4,285.2 546.2,285.2 549.1,285.2 551.9,285.2 554.8,285.2 557.6,285.2 560.5,285.2 563.3,285.2 566.2,285.2 569.0,285.2 571.9,285.2 574.7,285.2 577.6,285.2 580.4,285.2 583.3,285.2 586.1,285.2 589.0,285.2 591.8,285.2 594.7,285.2 597.5,285.2 600.4,285.2 603.2,285.2 606.1,285.2 608.9,285.2 611.8,285.1 614.6,285.1 617.5,285.1 620.4,285.1 623.2,285.1 626.1,285.1 628.9,285.1 631.8,285.1 634.6,285.1 637.5,285.1 640.3,285.1 643.2,285.1 646.0,285.1 648.9,285.1 651.7,285.1 654.6,285.1 657.4,285.1 660.3,285.1 663.1,285.1 666.0,285.1 668.8,285.1 671.7,285.1 674.5,285.1 677.4,285.1 680.2,285.1 683.1,285.1 685.9,285.1 688.8,285.1 691.6,285.1 694.5,285.1 697.3,285.1 700.2,285.1 703.0,285.1 705.9,285.1 708.8,285.1 711.6,285.1 714.5,285.0 717.3,285.0 720.2,285.0 723.0,285.0 725.9,285.0 728.7,285.0 731.6,285.0 734.4,285.0 737.3,285.0 740.1,285.0 743.0,285.0 745.8,285.0 748.7,285.0 751.5,285.0 754.4,285.0 757.2,285.0 760.1,285.0 762.9,285.0 765.8,285.0 768.6,285.0 771.5,285.0 774.3,285.0 777.2,285.0 780.0,285.0 782.9,285.0 785.7,285.0 788.6,285.0 791.4,285.0 794.3,285.0 797.1,285.0 L797.1,284.5 L435.0,284.5 Z" fill="url(#g253)" clip-path="url(#c255)"/>
  <path d="M435.0,242.1 435.0,242.1 437.9,207.0 440.7,256.1 443.6,290.8 446.4,284.6 449.3,285.4 452.1,285.3 455.0,285.3 457.8,285.3 460.7,285.3 463.5,285.3 466.4,285.3 469.2,285.3 472.1,285.3 474.9,285.3 477.8,285.3 480.6,285.3 483.5,285.3 486.3,285.3 489.2,285.3 492.0,285.3 494.9,285.3 497.7,285.3 500.6,285.3 503.4,285.3 506.3,285.3 509.1,285.3 512.0,285.3 514.8,285.3 517.7,285.3 520.5,285.2 523.4,285.2 526.3,285.2 529.1,285.2 532.0,285.2 534.8,285.2 537.7,285.2 540.5,285.2 543.4,285.2 546.2,285.2 549.1,285.2 551.9,285.2 554.8,285.2 557.6,285.2 560.5,285.2 563.3,285.2 566.2,285.2 569.0,285.2 571.9,285.2 574.7,285.2 577.6,285.2 580.4,285.2 583.3,285.2 586.1,285.2 589.0,285.2 591.8,285.2 594.7,285.2 597.5,285.2 600.4,285.2 603.2,285.2 606.1,285.2 608.9,285.2 611.8,285.1 614.6,285.1 617.5,285.1 620.4,285.1 623.2,285.1 626.1,285.1 628.9,285.1 631.8,285.1 634.6,285.1 637.5,285.1 640.3,285.1 643.2,285.1 646.0,285.1 648.9,285.1 651.7,285.1 654.6,285.1 657.4,285.1 660.3,285.1 663.1,285.1 666.0,285.1 668.8,285.1 671.7,285.1 674.5,285.1 677.4,285.1 680.2,285.1 683.1,285.1 685.9,285.1 688.8,285.1 691.6,285.1 694.5,285.1 697.3,285.1 700.2,285.1 703.0,285.1 705.9,285.1 708.8,285.1 711.6,285.1 714.5,285.0 717.3,285.0 720.2,285.0 723.0,285.0 725.9,285.0 728.7,285.0 731.6,285.0 734.4,285.0 737.3,285.0 740.1,285.0 743.0,285.0 745.8,285.0 748.7,285.0 751.5,285.0 754.4,285.0 757.2,285.0 760.1,285.0 762.9,285.0 765.8,285.0 768.6,285.0 771.5,285.0 774.3,285.0 777.2,285.0 780.0,285.0 782.9,285.0 785.7,285.0 788.6,285.0 791.4,285.0 794.3,285.0 797.1,285.0 L797.1,284.5 L435.0,284.5 Z" fill="url(#g254)" clip-path="url(#c256)"/>
  <defs><clipPath id="pc257"><rect x="435" y="207" width="365" height="155"/></clipPath></defs>
  <polyline points="435.0,242.1 437.9,207.0 440.7,256.1 443.6,290.8 446.4,284.6 449.3,285.4 452.1,285.3 455.0,285.3 457.8,285.3 460.7,285.3 463.5,285.3 466.4,285.3 469.2,285.3 472.1,285.3 474.9,285.3 477.8,285.3 480.6,285.3 483.5,285.3 486.3,285.3 489.2,285.3 492.0,285.3 494.9,285.3 497.7,285.3 500.6,285.3 503.4,285.3 506.3,285.3 509.1,285.3 512.0,285.3 514.8,285.3 517.7,285.3 520.5,285.2 523.4,285.2 526.3,285.2 529.1,285.2 532.0,285.2 534.8,285.2 537.7,285.2 540.5,285.2 543.4,285.2 546.2,285.2 549.1,285.2 551.9,285.2 554.8,285.2 557.6,285.2 560.5,285.2 563.3,285.2 566.2,285.2 569.0,285.2 571.9,285.2 574.7,285.2 577.6,285.2 580.4,285.2 583.3,285.2 586.1,285.2 589.0,285.2 591.8,285.2 594.7,285.2 597.5,285.2 600.4,285.2 603.2,285.2 606.1,285.2 608.9,285.2 611.8,285.1 614.6,285.1 617.5,285.1 620.4,285.1 623.2,285.1 626.1,285.1 628.9,285.1 631.8,285.1 634.6,285.1 637.5,285.1 640.3,285.1 643.2,285.1 646.0,285.1 648.9,285.1 651.7,285.1 654.6,285.1 657.4,285.1 660.3,285.1 663.1,285.1 666.0,285.1 668.8,285.1 671.7,285.1 674.5,285.1 677.4,285.1 680.2,285.1 683.1,285.1 685.9,285.1 688.8,285.1 691.6,285.1 694.5,285.1 697.3,285.1 700.2,285.1 703.0,285.1 705.9,285.1 708.8,285.1 711.6,285.1 714.5,285.0 717.3,285.0 720.2,285.0 723.0,285.0 725.9,285.0 728.7,285.0 731.6,285.0 734.4,285.0 737.3,285.0 740.1,285.0 743.0,285.0 745.8,285.0 748.7,285.0 751.5,285.0 754.4,285.0 757.2,285.0 760.1,285.0 762.9,285.0 765.8,285.0 768.6,285.0 771.5,285.0 774.3,285.0 777.2,285.0 780.0,285.0 782.9,285.0 785.7,285.0 788.6,285.0 791.4,285.0 794.3,285.0 797.1,285.0" fill="none" stroke="#f39c12" stroke-width="1.3" stroke-linejoin="round" clip-path="url(#pc257)"/>
</svg>
