<svg xmlns="http://www.w3.org/2000/svg" viewBox="0 0 800 240" style="font-family:system-ui,-apple-system,sans-serif">
  <line x1="55" y1="12" x2="55" y2="192" stroke="#d1d5db"/>
  <line x1="55" y1="192" x2="755" y2="192" stroke="#d1d5db"/>
  <text x="405" y="222" text-anchor="middle" font-size="10" fill="#6b7280">Frequency (Hz)</text>
  <text x="17" y="102" text-anchor="middle" font-size="10" fill="#6b7280" transform="rotate(-90 17 102)">Magnitude (dB)</text>
  <line x1="99.4" y1="12" x2="99.4" y2="192" stroke="#e5e7eb" stroke-width="0.5"/>
  <text x="99.4" y="205" text-anchor="middle" font-size="9" fill="#6b7280">31</text>
  <line x1="169.7" y1="12" x2="169.7" y2="192" stroke="#e5e7eb" stroke-width="0.5"/>
  <text x="169.7" y="205" text-anchor="middle" font-size="9" fill="#6b7280">62</text>
  <line x1="240.7" y1="12" x2="240.7" y2="192" stroke="#e5e7eb" stroke-width="0.5"/>
  <text x="240.7" y="205" text-anchor="middle" font-size="9" fill="#6b7280">125</text>
  <line x1="310.9" y1="12" x2="310.9" y2="192" stroke="#e5e7eb" stroke-width="0.5"/>
  <text x="310.9" y="205" text-anchor="middle" font-size="9" fill="#6b7280">250</text>
  <line x1="381.2" y1="12" x2="381.2" y2="192" stroke="#e5e7eb" stroke-width="0.5"/>
  <text x="381.2" y="205" text-anchor="middle" font-size="9" fill="#6b7280">500</text>
  <line x1="451.4" y1="12" x2="451.4" y2="192" stroke="#e5e7eb" stroke-width="0.5"/>
  <text x="451.4" y="205" text-anchor="middle" font-size="9" fill="#6b7280">1k</text>
  <line x1="521.7" y1="12" x2="521.7" y2="192" stroke="#e5e7eb" stroke-width="0.5"/>
  <text x="521.7" y="205" text-anchor="middle" font-size="9" fill="#6b7280">2k</text>
  <line x1="591.9" y1="12" x2="591.9" y2="192" stroke="#e5e7eb" stroke-width="0.5"/>
  <text x="591.9" y="205" text-anchor="middle" font-size="9" fill="#6b7280">4k</text>
  <line x1="662.1" y1="12" x2="662.1" y2="192" stroke="#e5e7eb" stroke-width="0.5"/>
  <text x="662.1" y="205" text-anchor="middle" font-size="9" fill="#6b7280">8k</text>
  <line x1="732.4" y1="12" x2="732.4" y2="192" stroke="#e5e7eb" stroke-width="0.5"/>
  <text x="732.4" y="205" text-anchor="middle" font-size="9" fill="#6b7280">16k</text>
  <line x1="55" y1="22.6" x2="755" y2="22.6" stroke="#e5e7eb" stroke-width="0.5"/>
  <text x="51" y="25.6" text-anchor="end" font-size="9" fill="#6b7280">0</text>
  <line x1="55" y1="64.9" x2="755" y2="64.9" stroke="#e5e7eb" stroke-width="0.5"/>
  <text x="51" y="67.9" text-anchor="end" font-size="9" fill="#6b7280">-20</text>
  <line x1="55" y1="107.3" x2="755" y2="107.3" stroke="#e5e7eb" stroke-width="0.5"/>
  <text x="51" y="110.3" text-anchor="end" font-size="9" fill="#6b7280">-40</text>
  <line x1="55" y1="149.6" x2="755" y2="149.6" stroke="#e5e7eb" stroke-width="0.5"/>
  <text x="51" y="152.6" text-anchor="end" font-size="9" fill="#6b7280">-60</text>
  <line x1="55" y1="192.0" x2="755" y2="192.0" stroke="#e5e7eb" stroke-width="0.5"/>
  <text x="51" y="195.0" text-anchor="end" font-size="9" fill="#6b7280">-80</text>
  <polyline points="132.7,24.7 203.0,24.5 244.1,24.2 273.2,23.9 295.8,23.5 314.3,23.2 329.9,22.9 343.4,22.7 355.4,22.6 366.1,22.7 375.7,22.9 384.5,23.3 392.6,23.7 400.2,24.2 407.1,24.5 413.7,24.7 419.8,24.7 425.6,24.4 431.1,23.9 436.3,23.2 441.2,22.7 446.0,22.8 450.5,24.2 454.8,27.2 458.9,31.4 462.9,36.0 466.7,40.5 470.4,44.9 474.0,49.0 477.4,52.9 480.7,56.5 483.9,59.9 487.0,63.1 490.1,66.1 493.0,69.0 495.9,71.7 498.6,74.3 501.3,76.8 504.0,79.3 506.5,81.6 509.0,83.8 511.5,86.0 513.9,88.0 516.2,90.1 518.5,92.0 520.7,93.9 522.9,95.8 525.0,97.6 527.1,99.3 529.2,101.0 531.2,102.7 533.1,104.3 535.1,105.9 537.0,107.5 538.8,109.0 540.6,110.5 542.4,111.9 544.2,113.3 545.9,114.7 547.6,116.1 549.3,117.5 551.0,118.8 552.6,120.1 554.2,121.3 555.7,122.6 557.3,123.8 558.8,125.0 560.3,126.2 561.8,127.4 563.2,128.6 564.7,129.7 566.1,130.8 567.5,131.9 568.9,133.0 570.2,134.1 571.6,135.2 572.9,136.2 574.2,137.2 575.5,138.3 576.8,139.3 578.0,140.2 579.3,141.2 580.5,142.2 581.7,143.2 582.9,144.1 584.1,145.0 585.3,146.0 586.4,146.9 587.6,147.8 588.7,148.7 589.8,149.6 590.9,150.4 592.0,151.3 593.1,152.2 594.2,153.0 595.3,153.8 596.3,154.7 597.3,155.5 598.4,156.3 599.4,157.1 600.4,157.9 601.4,158.7 602.4,159.5 603.4,160.3 604.3,161.1 605.3,161.8 606.2,162.6 607.2,163.3 608.1,164.1 609.1,164.8 610.0,165.6 610.9,166.3 611.8,167.0 612.7,167.7 613.6,168.4 614.4,169.1 615.3,169.9 616.2,170.5 617.0,171.2 617.9,171.9 618.7,172.6 619.5,173.3 620.4,174.0 621.2,174.6 622.0,175.3 622.8,175.9 623.6,176.6 624.4,177.3 625.2,177.9 626.0,178.5 626.8,179.2 627.5,179.8 628.3,180.4 629.0,181.1 629.8,181.7 630.6,182.3 631.3,182.9 632.0,183.5 632.8,184.1 633.5,184.8 634.2,185.4 634.9,186.0 635.6,186.5 636.3,187.1 637.0,187.7 637.7,188.3 638.4,188.9 639.1,189.5 639.8,190.1 640.5,190.6 641.2,191.2 641.8,191.8 642.5,192.0 643.1,192.0 643.8,192.0 644.5,192.0 645.1,192.0 645.7,192.0 646.4,192.0 647.0,192.0 647.7,192.0 648.3,192.0 648.9,192.0 649.5,192.0 650.1,192.0 650.8,192.0 651.4,192.0 652.0,192.0 652.6,192.0 653.2,192.0 653.8,192.0 654.3,192.0 654.9,192.0 655.5,192.0 656.1,192.0 656.7,192.0 657.3,192.0 657.8,192.0 658.4,192.0 659.0,192.0 659.5,192.0 660.1,192.0 660.6,192.0 661.2,192.0 661.7,192.0 662.3,192.0 662.8,192.0 663.4,192.0 663.9,192.0 664.4,192.0 665.0,192.0 665.5,192.0 666.0,192.0 666.5,192.0 667.1,192.0 667.6,192.0 668.1,192.0 668.6,192.0 669.1,192.0 669.6,192.0 670.1,192.0 670.6,192.0 671.1,192.0 671.6,192.0 672.1,192.0 672.6,192.0 673.1,192.0 673.6,192.0 674.1,192.0 674.6,192.0 675.1,192.0 675.5,192.0 676.0,192.0 676.5,192.0 677.0,192.0 677.4,192.0 677.9,192.0 678.4,192.0 678.8,192.0 679.3,192.0 679.8,192.0 680.2,192.0 680.7,192.0 681.1,192.0 681.6,192.0 682.0,192.0 682.5,192.0 682.9,192.0 683.4,192.0 683.8,192.0 684.2,192.0 684.7,192.0 685.1,192.0 685.5,192.0 686.0,192.0 686.4,192.0 686.8,192.0 687.3,192.0 687.7,192.0 688.1,192.0 688.5,192.0 688.9,192.0 689.4,192.0 689.8,192.0 690.2,192.0 690.6,192.0 691.0,192.0 691.4,192.0 691.8,192.0 692.2,192.0 692.6,192.0 693.1,192.0 693.5,192.0 693.9,192.0 694.3,192.0 694.6,192.0 695.0,192.0 695.4,192.0 695.8,192.0 696.2,192.0 696.6,192.0 697.0,192.0 697.4,192.0 697.8,192.0 698.1,192.0 698.5,192.0 698.9,192.0 699.3,192.0 699.7,192.0 700.0,192.0 700.4,192.0 700.8,192.0 701.2,192.0 701.5,192.0 701.9,192.0 702.3,192.0 702.6,192.0 703.0,192.0 703.4,192.0 703.7,192.0 704.1,192.0 704.5,192.0 704.8,192.0 705.2,192.0 705.5,192.0 705.9,192.0 706.2,192.0 706.6,192.0 706.9,192.0 707.3,192.0 707.6,192.0 708.0,192.0 708.3,192.0 708.7,192.0 709.0,192.0 709.4,192.0 709.7,192.0 710.0,192.0 710.4,192.0 710.7,192.0 711.1,192.0 711.4,192.0 711.7,192.0 712.1,192.0 712.4,192.0 712.7,192.0 713.1,192.0 713.4,192.0 713.7,192.0 714.0,192.0 714.4,192.0 714.7,192.0 715.0,192.0 715.3,192.0 715.7,192.0 716.0,192.0 716.3,192.0 716.6,192.0 716.9,192.0 717.3,192.0 717.6,192.0 717.9,192.0 718.2,192.0 718.5,192.0 718.8,192.0 719.1,192.0 719.5,192.0 719.8,192.0 720.1,192.0 720.4,192.0 720.7,192.0 721.0,192.0 721.3,192.0 721.6,192.0 721.9,192.0 722.2,192.0 722.5,192.0 722.8,192.0 723.1,192.0 723.4,192.0 723.7,192.0 724.0,192.0 724.3,192.0 724.6,192.0 724.9,192.0 725.2,192.0 725.5,192.0 725.8,192.0 726.1,192.0 726.3,192.0 726.6,192.0 726.9,192.0 727.2,192.0 727.5,192.0 727.8,192.0 728.1,192.0 728.3,192.0 728.6,192.0 728.9,192.0 729.2,192.0 729.5,192.0 729.8,192.0 730.0,192.0 730.3,192.0 730.6,192.0 730.9,192.0 731.1,192.0 731.4,192.0 731.7,192.0 732.0,192.0 732.2,192.0 732.5,192.0 732.8,192.0 733.1,192.0 733.3,192.0 733.6,192.0 733.9,192.0 734.1,192.0 734.4,192.0 734.7,192.0 734.9,192.0 735.2,192.0 735.5,192.0 735.7,192.0 736.0,192.0 736.3,192.0 736.5,192.0 736.8,192.0 737.0,192.0 737.3,192.0 737.6,192.0 737.8,192.0 738.1,192.0 738.3,192.0 738.6,192.0 738.9,192.0 739.1,192.0 739.4,192.0 739.6,192.0 739.9,192.0 740.1,192.0 740.4,192.0 740.6,192.0 740.9,192.0 741.1,192.0 741.4,192.0 741.6,192.0 741.9,192.0 742.1,192.0 742.4,192.0 742.6,192.0 742.9,192.0 743.1,192.0 743.4,192.0 743.6,192.0 743.8,192.0 744.1,192.0 744.3,192.0 744.6,192.0 744.8,192.0 745.1,192.0 745.3,192.0 745.5,192.0 745.8,192.0 746.0,192.0 746.3,192.0 746.5,192.0 746.7,192.0 747.0,192.0 747.2,192.0 747.4,192.0 747.7,192.0 747.9,192.0 748.1,192.0 748.4,192.0 748.6,192.0 748.8,192.0 749.1,192.0 749.3,192.0 749.5,192.0 749.8,192.0 750.0,192.0 750.2,192.0 750.4,192.0 750.7,192.0 750.9,192.0 751.1,192.0 751.4,192.0 751.6,192.0 751.8,192.0 752.0,192.0 752.3,192.0 752.5,192.0 752.7,192.0 752.9,192.0 753.2,192.0 753.4,192.0 753.6,192.0 753.8,192.0 754.0,192.0 754.3,192.0 754.5,192.0 754.7,192.0 754.9,192.0" fill="none" stroke="#4a90d9" stroke-width="1.8" stroke-linejoin="round"/>
  <text x="55" y="240" font-size="12" font-weight="600" fill="#6b7280">Chebyshev Type I order 4, 1dB ripple</text>
  <rect x="529" y="19" width="202" height="102" fill="white" fill-opacity="0.85" rx="3"/>
  <text x="532" y="30" font-size="8" fill="#6b7280">Impulse response</text>
  <polyline points="530.0,70.0 531.6,70.0 533.1,69.8 534.7,69.5 536.3,69.0 537.8,68.1 539.4,67.0 540.9,65.5 542.5,63.7 544.1,61.5 545.6,59.0 547.2,56.3 548.8,53.3 550.3,50.1 551.9,46.8 553.4,43.4 555.0,40.1 556.6,36.8 558.1,33.7 559.7,30.7 561.3,28.0 562.8,25.7 564.4,23.7 565.9,22.1 567.5,20.9 569.1,20.2 570.6,20.0 572.2,20.3 573.8,21.1 575.3,22.3 576.9,24.0 578.4,26.1 580.0,28.7 581.6,31.5 583.1,34.7 584.7,38.2 586.3,41.8 587.8,45.6 589.4,49.5 590.9,53.4 592.5,57.2 594.1,61.0 595.6,64.6 597.2,68.1 598.8,71.3 600.3,74.3 601.9,76.9 603.4,79.3 605.0,81.3 606.6,82.9 608.1,84.2 609.7,85.1 611.3,85.6 612.8,85.8 614.4,85.7 615.9,85.2 617.5,84.5 619.1,83.6 620.6,82.4 622.2,81.1 623.8,79.6 625.3,78.1 626.9,76.4 628.4,74.8 630.0,73.1 631.6,71.5 633.1,70.0 634.7,68.6 636.3,67.3 637.8,66.2 639.4,65.2 640.9,64.4 642.5,63.8 644.1,63.4 645.6,63.2 647.2,63.2 648.8,63.3 650.3,63.7 651.9,64.1 653.4,64.7 655.0,65.5 656.6,66.3 658.1,67.2 659.7,68.1 661.3,69.1 662.8,70.1 664.4,71.1 665.9,72.1 667.5,73.0 669.1,73.8 670.6,74.5 672.2,75.2 673.8,75.7 675.3,76.1 676.9,76.4 678.4,76.6 680.0,76.7 681.6,76.6 683.1,76.4 684.7,76.1 686.3,75.7 687.8,75.2 689.4,74.7 690.9,74.0 692.5,73.4 694.1,72.6 695.6,71.9 697.2,71.2 698.8,70.4 700.3,69.7 701.9,69.0 703.4,68.4 705.0,67.8 706.6,67.3 708.1,66.8 709.7,66.4 711.3,66.2 712.8,66.0 714.4,65.8 715.9,65.8 717.5,65.8 719.1,66.0 720.6,66.1 722.2,66.4 723.8,66.7 725.3,67.1 726.9,67.5 728.4,67.9" fill="none" stroke="#4a90d9" stroke-width="1.3" stroke-linejoin="round"/>
</svg>
