<svg xmlns="http://www.w3.org/2000/svg" viewBox="0 0 820 378" style="font-family:system-ui,-apple-system,sans-serif">
  <text x="800" y="11" text-anchor="end" font-size="11" font-weight="600" fill="#6b7280">Chebyshev Type II order 4, 40dB</text>
  <line x1="34" y1="16" x2="34" y2="171" stroke="#d1d5db"/>
  <line x1="34" y1="47.0" x2="399" y2="47.0" stroke="#d1d5db"/>
  <text x="216.5" y="197" text-anchor="middle" font-size="9" fill="#6b7280">Hz</text>
  <text x="12" y="93.5" text-anchor="middle" font-size="9" fill="#6b7280" transform="rotate(-90 12 93.5)">dB</text>
  <line x1="67.3" y1="16" x2="67.3" y2="171" stroke="#e5e7eb" stroke-width="0.5"/>
  <line x1="86.8" y1="16" x2="86.8" y2="171" stroke="#e5e7eb" stroke-width="0.5"/>
  <line x1="100.6" y1="16" x2="100.6" y2="171" stroke="#e5e7eb" stroke-width="0.5"/>
  <line x1="111.3" y1="16" x2="111.3" y2="171" stroke="#e5e7eb" stroke-width="0.5"/>
  <line x1="120.0" y1="16" x2="120.0" y2="171" stroke="#e5e7eb" stroke-width="0.5"/>
  <line x1="127.4" y1="16" x2="127.4" y2="171" stroke="#e5e7eb" stroke-width="0.5"/>
  <line x1="133.9" y1="16" x2="133.9" y2="171" stroke="#e5e7eb" stroke-width="0.5"/>
  <line x1="139.5" y1="16" x2="139.5" y2="171" stroke="#e5e7eb" stroke-width="0.5"/>
  <line x1="177.9" y1="16" x2="177.9" y2="171" stroke="#e5e7eb" stroke-width="0.5"/>
  <line x1="197.3" y1="16" x2="197.3" y2="171" stroke="#e5e7eb" stroke-width="0.5"/>
  <line x1="211.1" y1="16" x2="211.1" y2="171" stroke="#e5e7eb" stroke-width="0.5"/>
  <line x1="221.9" y1="16" x2="221.9" y2="171" stroke="#e5e7eb" stroke-width="0.5"/>
  <line x1="230.6" y1="16" x2="230.6" y2="171" stroke="#e5e7eb" stroke-width="0.5"/>
  <line x1="238.0" y1="16" x2="238.0" y2="171" stroke="#e5e7eb" stroke-width="0.5"/>
  <line x1="244.4" y1="16" x2="244.4" y2="171" stroke="#e5e7eb" stroke-width="0.5"/>
  <line x1="250.1" y1="16" x2="250.1" y2="171" stroke="#e5e7eb" stroke-width="0.5"/>
  <line x1="288.4" y1="16" x2="288.4" y2="171" stroke="#e5e7eb" stroke-width="0.5"/>
  <line x1="307.9" y1="16" x2="307.9" y2="171" stroke="#e5e7eb" stroke-width="0.5"/>
  <line x1="321.7" y1="16" x2="321.7" y2="171" stroke="#e5e7eb" stroke-width="0.5"/>
  <line x1="332.4" y1="16" x2="332.4" y2="171" stroke="#e5e7eb" stroke-width="0.5"/>
  <line x1="341.2" y1="16" x2="341.2" y2="171" stroke="#e5e7eb" stroke-width="0.5"/>
  <line x1="348.6" y1="16" x2="348.6" y2="171" stroke="#e5e7eb" stroke-width="0.5"/>
  <line x1="355.0" y1="16" x2="355.0" y2="171" stroke="#e5e7eb" stroke-width="0.5"/>
  <line x1="360.7" y1="16" x2="360.7" y2="171" stroke="#e5e7eb" stroke-width="0.5"/>
  <line x1="399.0" y1="16" x2="399.0" y2="171" stroke="#e5e7eb" stroke-width="0.5"/>
  <line x1="144.6" y1="16" x2="144.6" y2="171" stroke="#e5e7eb" stroke-width="0.5"/>
  <text x="144.6" y="183" text-anchor="middle" font-size="8" fill="#6b7280">100</text>
  <line x1="255.1" y1="16" x2="255.1" y2="171" stroke="#e5e7eb" stroke-width="0.5"/>
  <text x="255.1" y="183" text-anchor="middle" font-size="8" fill="#6b7280">1k</text>
  <line x1="365.7" y1="16" x2="365.7" y2="171" stroke="#e5e7eb" stroke-width="0.5"/>
  <text x="365.7" y="183" text-anchor="middle" font-size="8" fill="#6b7280">10k</text>
  <line x1="34" y1="31.5" x2="399" y2="31.5" stroke="#e5e7eb" stroke-width="0.5"/>
  <line x1="34" y1="62.5" x2="399" y2="62.5" stroke="#e5e7eb" stroke-width="0.5"/>
  <line x1="34" y1="16.0" x2="399" y2="16.0" stroke="#e5e7eb" stroke-width="0.5"/>
  <text x="30" y="19.0" text-anchor="end" font-size="8" fill="#6b7280">+20</text>
  <text x="30" y="50.0" text-anchor="end" font-size="8" fill="#6b7280">0</text>
  <line x1="34" y1="78.0" x2="399" y2="78.0" stroke="#e5e7eb" stroke-width="0.5"/>
  <text x="30" y="81.0" text-anchor="end" font-size="8" fill="#6b7280">-20</text>
  <line x1="34" y1="109.0" x2="399" y2="109.0" stroke="#e5e7eb" stroke-width="0.5"/>
  <text x="30" y="112.0" text-anchor="end" font-size="8" fill="#6b7280">-40</text>
  <line x1="34" y1="140.0" x2="399" y2="140.0" stroke="#e5e7eb" stroke-width="0.5"/>
  <text x="30" y="143.0" text-anchor="end" font-size="8" fill="#6b7280">-60</text>
  <line x1="34" y1="171.0" x2="399" y2="171.0" stroke="#e5e7eb" stroke-width="0.5"/>
  <text x="30" y="174.0" text-anchor="end" font-size="8" fill="#6b7280">-80</text>
  <defs><linearGradient id="g71" x1="0" y1="16" x2="0" y2="171" gradientUnits="userSpaceOnUse">
    <stop offset="0%" stop-color="#4a90d9" stop-opacity="0.15"/>
    <stop offset="100%" stop-color="#4a90d9" stop-opacity="0.02"/>
  </linearGradient></defs>
  <path d="M37.5,47.0 37.5,47.0 70.8,47.0 90.3,47.0 104.1,47.0 114.8,47.0 123.6,47.0 131.0,47.0 137.4,47.0 143.1,47.0 148.1,47.0 152.7,47.0 156.9,47.0 160.7,47.0 164.3,47.0 167.6,47.0 170.7,47.0 173.6,47.0 176.3,47.0 178.9,47.0 181.4,47.0 183.7,47.0 186.0,47.0 188.1,47.0 190.2,47.0 192.1,47.0 194.0,47.0 195.8,47.0 197.6,47.0 199.2,47.0 200.9,47.0 202.4,47.0 204.0,47.0 205.5,47.0 206.9,47.0 208.3,47.0 209.6,47.0 210.9,47.0 212.2,47.0 213.5,47.0 214.7,47.0 215.9,47.0 217.0,47.0 218.2,47.0 219.3,47.0 220.3,47.0 221.4,47.0 222.4,47.0 223.4,47.0 224.4,47.0 225.4,47.0 226.4,47.0 227.3,47.0 228.2,47.1 229.1,47.1 230.0,47.1 230.8,47.1 231.7,47.1 232.5,47.1 233.4,47.1 234.2,47.1 235.7,47.2 237.3,47.2 238.7,47.3 240.2,47.4 241.6,47.5 242.9,47.7 244.2,47.8 245.5,48.0 246.8,48.3 248.0,48.6 249.2,48.9 250.3,49.3 251.4,49.7 252.6,50.2 253.6,50.8 254.7,51.4 255.7,52.1 256.7,52.8 257.7,53.6 258.7,54.5 259.6,55.3 260.6,56.3 261.5,57.2 262.4,58.2 263.3,59.2 264.1,60.2 265.0,61.3 265.8,62.3 266.6,63.4 267.4,64.5 268.6,66.1 269.8,67.8 270.9,69.5 272.0,71.2 273.1,72.9 274.2,74.6 275.2,76.3 276.2,78.1 277.2,79.8 278.2,81.6 279.1,83.4 280.0,85.3 281.0,87.2 281.9,89.2 282.7,91.2 283.6,93.3 284.5,95.5 285.3,97.8 286.1,100.3 286.9,103.0 288.0,107.0 289.0,111.8 290.0,117.9 291.0,127.1 292.0,151.9 292.9,135.0 293.9,125.0 294.8,120.1 295.7,116.9 296.6,114.8 297.4,113.2 298.3,112.1 299.1,111.2 299.9,110.5 300.7,110.0 301.7,109.5 302.7,109.2 303.6,109.1 304.6,109.0 305.5,109.0 306.4,109.1 307.3,109.3 308.1,109.5 309.0,109.8 309.8,110.1 310.6,110.4 311.4,110.8 312.4,111.3 313.3,111.8 314.2,112.4 315.1,113.1 316.0,113.7 316.9,114.4 317.7,115.2 318.6,116.0 319.4,116.8 320.2,117.7 321.1,118.8 322.0,119.9 322.9,121.2 323.8,122.5 324.7,123.9 325.5,125.5 326.3,127.2 327.1,129.1 327.9,131.3 328.8,134.2 329.7,137.8 330.6,142.4 331.4,149.3 332.3,163.1 333.1,167.4 333.9,151.4 334.8,143.8 335.7,139.2 336.5,135.8 337.4,133.3 338.2,131.2 339.0,129.4 339.8,128.0 340.7,126.6 341.6,125.3 342.4,124.2 343.3,123.3 344.1,122.4 344.9,121.7 345.8,120.9 346.6,120.2 347.5,119.6 348.3,119.0 349.1,118.5 350.0,117.9 350.8,117.4 351.7,117.0 352.5,116.6 353.3,116.2 354.1,115.8 355.0,115.5 355.8,115.1 356.6,114.8 357.5,114.5 358.3,114.2 359.1,114.0 360.0,113.7 360.8,113.5 361.6,113.2 362.5,113.0 363.3,112.8 364.1,112.6 364.9,112.4 365.8,112.2 366.6,112.1 367.4,111.9 368.2,111.7 369.1,111.6 369.9,111.5 370.7,111.3 371.6,111.2 372.4,111.1 373.2,110.9 374.0,110.8 374.8,110.7 375.6,110.6 376.5,110.5 377.3,110.4 378.1,110.3 378.9,110.2 379.7,110.1 380.5,110.1 381.4,110.0 382.2,109.9 383.0,109.9 383.8,109.8 384.6,109.7 385.5,109.7 386.3,109.6 387.1,109.6 387.9,109.5 388.7,109.5 389.5,109.4 390.3,109.4 391.2,109.3 392.0,109.3 392.8,109.2 393.6,109.2 394.4,109.2 395.2,109.1 396.0,109.1 396.8,109.1 397.6,109.1 398.5,109.1 L398.5,171.0 L37.5,171.0 Z" fill="url(#g71)"/>
  <defs><clipPath id="pc72"><rect x="34" y="16" width="365" height="155"/></clipPath></defs>
  <polyline points="37.5,47.0 70.8,47.0 90.3,47.0 104.1,47.0 114.8,47.0 123.6,47.0 131.0,47.0 137.4,47.0 143.1,47.0 148.1,47.0 152.7,47.0 156.9,47.0 160.7,47.0 164.3,47.0 167.6,47.0 170.7,47.0 173.6,47.0 176.3,47.0 178.9,47.0 181.4,47.0 183.7,47.0 186.0,47.0 188.1,47.0 190.2,47.0 192.1,47.0 194.0,47.0 195.8,47.0 197.6,47.0 199.2,47.0 200.9,47.0 202.4,47.0 204.0,47.0 205.5,47.0 206.9,47.0 208.3,47.0 209.6,47.0 210.9,47.0 212.2,47.0 213.5,47.0 214.7,47.0 215.9,47.0 217.0,47.0 218.2,47.0 219.3,47.0 220.3,47.0 221.4,47.0 222.4,47.0 223.4,47.0 224.4,47.0 225.4,47.0 226.4,47.0 227.3,47.0 228.2,47.1 229.1,47.1 230.0,47.1 230.8,47.1 231.7,47.1 232.5,47.1 233.4,47.1 234.2,47.1 235.7,47.2 237.3,47.2 238.7,47.3 240.2,47.4 241.6,47.5 242.9,47.7 244.2,47.8 245.5,48.0 246.8,48.3 248.0,48.6 249.2,48.9 250.3,49.3 251.4,49.7 252.6,50.2 253.6,50.8 254.7,51.4 255.7,52.1 256.7,52.8 257.7,53.6 258.7,54.5 259.6,55.3 260.6,56.3 261.5,57.2 262.4,58.2 263.3,59.2 264.1,60.2 265.0,61.3 265.8,62.3 266.6,63.4 267.4,64.5 268.6,66.1 269.8,67.8 270.9,69.5 272.0,71.2 273.1,72.9 274.2,74.6 275.2,76.3 276.2,78.1 277.2,79.8 278.2,81.6 279.1,83.4 280.0,85.3 281.0,87.2 281.9,89.2 282.7,91.2 283.6,93.3 284.5,95.5 285.3,97.8 286.1,100.3 286.9,103.0 288.0,107.0 289.0,111.8 290.0,117.9 291.0,127.1 292.0,151.9 292.9,135.0 293.9,125.0 294.8,120.1 295.7,116.9 296.6,114.8 297.4,113.2 298.3,112.1 299.1,111.2 299.9,110.5 300.7,110.0 301.7,109.5 302.7,109.2 303.6,109.1 304.6,109.0 305.5,109.0 306.4,109.1 307.3,109.3 308.1,109.5 309.0,109.8 309.8,110.1 310.6,110.4 311.4,110.8 312.4,111.3 313.3,111.8 314.2,112.4 315.1,113.1 316.0,113.7 316.9,114.4 317.7,115.2 318.6,116.0 319.4,116.8 320.2,117.7 321.1,118.8 322.0,119.9 322.9,121.2 323.8,122.5 324.7,123.9 325.5,125.5 326.3,127.2 327.1,129.1 327.9,131.3 328.8,134.2 329.7,137.8 330.6,142.4 331.4,149.3 332.3,163.1 333.1,167.4 333.9,151.4 334.8,143.8 335.7,139.2 336.5,135.8 337.4,133.3 338.2,131.2 339.0,129.4 339.8,128.0 340.7,126.6 341.6,125.3 342.4,124.2 343.3,123.3 344.1,122.4 344.9,121.7 345.8,120.9 346.6,120.2 347.5,119.6 348.3,119.0 349.1,118.5 350.0,117.9 350.8,117.4 351.7,117.0 352.5,116.6 353.3,116.2 354.1,115.8 355.0,115.5 355.8,115.1 356.6,114.8 357.5,114.5 358.3,114.2 359.1,114.0 360.0,113.7 360.8,113.5 361.6,113.2 362.5,113.0 363.3,112.8 364.1,112.6 364.9,112.4 365.8,112.2 366.6,112.1 367.4,111.9 368.2,111.7 369.1,111.6 369.9,111.5 370.7,111.3 371.6,111.2 372.4,111.1 373.2,110.9 374.0,110.8 374.8,110.7 375.6,110.6 376.5,110.5 377.3,110.4 378.1,110.3 378.9,110.2 379.7,110.1 380.5,110.1 381.4,110.0 382.2,109.9 383.0,109.9 383.8,109.8 384.6,109.7 385.5,109.7 386.3,109.6 387.1,109.6 387.9,109.5 388.7,109.5 389.5,109.4 390.3,109.4 391.2,109.3 392.0,109.3 392.8,109.2 393.6,109.2 394.4,109.2 395.2,109.1 396.0,109.1 396.8,109.1 397.6,109.1 398.5,109.1" fill="none" stroke="#4a90d9" stroke-width="1.5" stroke-linejoin="round" clip-path="url(#pc72)"/>
  <line x1="435" y1="16" x2="435" y2="171" stroke="#d1d5db"/>
  <line x1="435" y1="93.5" x2="800" y2="93.5" stroke="#d1d5db"/>
  <text x="617.5" y="197" text-anchor="middle" font-size="9" fill="#6b7280">Hz</text>
  <text x="413" y="93.5" text-anchor="middle" font-size="9" fill="#6b7280" transform="rotate(-90 413 93.5)">Phase (deg)</text>
  <line x1="468.3" y1="16" x2="468.3" y2="171" stroke="#e5e7eb" stroke-width="0.5"/>
  <line x1="487.8" y1="16" x2="487.8" y2="171" stroke="#e5e7eb" stroke-width="0.5"/>
  <line x1="501.6" y1="16" x2="501.6" y2="171" stroke="#e5e7eb" stroke-width="0.5"/>
  <line x1="512.3" y1="16" x2="512.3" y2="171" stroke="#e5e7eb" stroke-width="0.5"/>
  <line x1="521.0" y1="16" x2="521.0" y2="171" stroke="#e5e7eb" stroke-width="0.5"/>
  <line x1="528.4" y1="16" x2="528.4" y2="171" stroke="#e5e7eb" stroke-width="0.5"/>
  <line x1="534.9" y1="16" x2="534.9" y2="171" stroke="#e5e7eb" stroke-width="0.5"/>
  <line x1="540.5" y1="16" x2="540.5" y2="171" stroke="#e5e7eb" stroke-width="0.5"/>
  <line x1="578.9" y1="16" x2="578.9" y2="171" stroke="#e5e7eb" stroke-width="0.5"/>
  <line x1="598.3" y1="16" x2="598.3" y2="171" stroke="#e5e7eb" stroke-width="0.5"/>
  <line x1="612.1" y1="16" x2="612.1" y2="171" stroke="#e5e7eb" stroke-width="0.5"/>
  <line x1="622.9" y1="16" x2="622.9" y2="171" stroke="#e5e7eb" stroke-width="0.5"/>
  <line x1="631.6" y1="16" x2="631.6" y2="171" stroke="#e5e7eb" stroke-width="0.5"/>
  <line x1="639.0" y1="16" x2="639.0" y2="171" stroke="#e5e7eb" stroke-width="0.5"/>
  <line x1="645.4" y1="16" x2="645.4" y2="171" stroke="#e5e7eb" stroke-width="0.5"/>
  <line x1="651.1" y1="16" x2="651.1" y2="171" stroke="#e5e7eb" stroke-width="0.5"/>
  <line x1="689.4" y1="16" x2="689.4" y2="171" stroke="#e5e7eb" stroke-width="0.5"/>
  <line x1="708.9" y1="16" x2="708.9" y2="171" stroke="#e5e7eb" stroke-width="0.5"/>
  <line x1="722.7" y1="16" x2="722.7" y2="171" stroke="#e5e7eb" stroke-width="0.5"/>
  <line x1="733.4" y1="16" x2="733.4" y2="171" stroke="#e5e7eb" stroke-width="0.5"/>
  <line x1="742.2" y1="16" x2="742.2" y2="171" stroke="#e5e7eb" stroke-width="0.5"/>
  <line x1="749.6" y1="16" x2="749.6" y2="171" stroke="#e5e7eb" stroke-width="0.5"/>
  <line x1="756.0" y1="16" x2="756.0" y2="171" stroke="#e5e7eb" stroke-width="0.5"/>
  <line x1="761.7" y1="16" x2="761.7" y2="171" stroke="#e5e7eb" stroke-width="0.5"/>
  <line x1="800.0" y1="16" x2="800.0" y2="171" stroke="#e5e7eb" stroke-width="0.5"/>
  <line x1="545.6" y1="16" x2="545.6" y2="171" stroke="#e5e7eb" stroke-width="0.5"/>
  <text x="545.6" y="183" text-anchor="middle" font-size="8" fill="#6b7280">100</text>
  <line x1="656.1" y1="16" x2="656.1" y2="171" stroke="#e5e7eb" stroke-width="0.5"/>
  <text x="656.1" y="183" text-anchor="middle" font-size="8" fill="#6b7280">1k</text>
  <line x1="766.7" y1="16" x2="766.7" y2="171" stroke="#e5e7eb" stroke-width="0.5"/>
  <text x="766.7" y="183" text-anchor="middle" font-size="8" fill="#6b7280">10k</text>
  <line x1="435" y1="58.6" x2="800" y2="58.6" stroke="#e5e7eb" stroke-width="0.5"/>
  <line x1="435" y1="128.4" x2="800" y2="128.4" stroke="#e5e7eb" stroke-width="0.5"/>
  <line x1="435" y1="23.8" x2="800" y2="23.8" stroke="#e5e7eb" stroke-width="0.5"/>
  <text x="431" y="26.8" text-anchor="end" font-size="8" fill="#6b7280">180</text>
  <text x="431" y="96.5" text-anchor="end" font-size="8" fill="#6b7280">0</text>
  <line x1="435" y1="163.3" x2="800" y2="163.3" stroke="#e5e7eb" stroke-width="0.5"/>
  <text x="431" y="166.3" text-anchor="end" font-size="8" fill="#6b7280">-180</text>
  <defs><linearGradient id="g73" x1="0" y1="16" x2="0" y2="93.5" gradientUnits="userSpaceOnUse">
    <stop offset="0%" stop-color="#e74c3c" stop-opacity="0.15"/>
    <stop offset="100%" stop-color="#e74c3c" stop-opacity="0.02"/>
  </linearGradient></defs>
  <defs><linearGradient id="g74" x1="0" y1="171" x2="0" y2="93.5" gradientUnits="userSpaceOnUse">
    <stop offset="0%" stop-color="#e74c3c" stop-opacity="0.15"/>
    <stop offset="100%" stop-color="#e74c3c" stop-opacity="0.02"/>
  </linearGradient></defs>
  <defs><clipPath id="c75"><rect x="435" y="16" width="365" height="77.5"/></clipPath></defs>
  <defs><clipPath id="c76"><rect x="435" y="93.5" width="365" height="77.5"/></clipPath></defs>
  <path d="M438.5,94.0 438.5,94.0 471.8,94.6 491.3,95.1 505.1,95.7 515.8,96.2 524.6,96.8 532.0,97.3 538.4,97.8 544.1,98.4 549.1,98.9 553.7,99.5 557.9,100.0 561.7,100.6 565.3,101.1 568.6,101.7 571.7,102.2 574.6,102.8 577.3,103.3 579.9,103.9 582.4,104.4 584.7,105.0 587.0,105.6 589.1,106.1 591.2,106.7 593.1,107.2 595.0,107.8 596.8,108.4 598.6,109.0 600.2,109.5 601.9,110.1 603.4,110.7 605.0,111.3 606.5,111.9 607.9,112.4 609.3,113.0 610.6,113.6 611.9,114.2 613.2,114.8 614.5,115.4 615.7,116.0 616.9,116.7 618.0,117.3 619.2,117.9 620.3,118.5 621.3,119.2 622.4,119.8 623.4,120.5 624.4,121.1 625.4,121.8 626.4,122.4 627.4,123.1 628.3,123.8 629.2,124.5 630.1,125.1 631.0,125.8 631.8,126.6 632.7,127.3 633.5,128.0 634.4,128.7 635.2,129.5 636.7,131.0 638.3,132.5 639.7,134.1 641.2,135.8 642.6,137.5 643.9,139.2 645.2,141.0 646.5,142.8 647.8,144.7 649.0,146.6 650.2,148.5 651.3,150.5 652.4,152.5 653.6,154.5 654.6,156.5 655.7,158.4 656.7,160.4 657.7,162.3 658.7,164.1 659.7,165.9 660.6,167.7 661.6,169.4 662.5,171.0 663.4,171.0 664.3,171.0 665.1,171.0 666.0,171.0 666.8,171.0 667.6,171.0 668.4,171.0 669.6,171.0 670.8,171.0 671.9,171.0 673.0,171.0 674.1,171.0 675.2,171.0 676.2,171.0 677.2,171.0 678.2,171.0 679.2,171.0 680.1,171.0 681.0,171.0 682.0,171.0 682.9,171.0 683.7,171.0 684.6,171.0 685.5,171.0 686.3,171.0 687.1,171.0 687.9,171.0 689.0,171.0 690.0,171.0 691.0,171.0 692.0,171.0 693.0,171.0 693.9,135.1 694.9,135.7 695.8,136.3 696.7,136.8 697.6,137.3 698.4,137.8 699.3,138.3 700.1,138.8 700.9,139.2 701.7,139.6 702.7,140.1 703.7,140.6 704.6,141.1 705.6,141.6 706.5,142.0 707.4,142.4 708.3,142.8 709.1,143.2 710.0,143.6 710.8,143.9 711.6,144.3 712.4,144.6 713.4,145.0 714.3,145.4 715.2,145.8 716.1,146.1 717.0,146.4 717.9,146.7 718.7,147.1 719.6,147.4 720.4,147.6 721.2,147.9 722.1,148.2 723.0,148.5 723.9,148.8 724.8,149.1 725.7,149.4 726.5,149.6 727.3,149.9 728.1,150.1 728.9,150.4 729.8,150.6 730.7,150.9 731.6,151.1 732.4,151.4 733.3,151.6 734.1,82.1 734.9,82.3 735.8,82.5 736.7,82.7 737.5,82.9 738.4,83.1 739.2,83.3 740.0,83.5 740.8,83.7 741.7,83.9 742.6,84.1 743.4,84.3 744.3,84.5 745.1,84.7 745.9,84.8 746.8,85.0 747.6,85.2 748.5,85.4 749.3,85.5 750.1,85.7 751.0,85.8 751.8,86.0 752.7,86.2 753.5,86.3 754.3,86.5 755.1,86.6 756.0,86.8 756.8,86.9 757.6,87.1 758.5,87.2 759.3,87.3 760.1,87.5 761.0,87.6 761.8,87.7 762.6,87.9 763.5,88.0 764.3,88.1 765.1,88.3 765.9,88.4 766.8,88.5 767.6,88.6 768.4,88.8 769.2,88.9 770.1,89.0 770.9,89.1 771.7,89.2 772.6,89.4 773.4,89.5 774.2,89.6 775.0,89.7 775.8,89.8 776.6,89.9 777.5,90.0 778.3,90.1 779.1,90.2 779.9,90.3 780.7,90.4 781.5,90.6 782.4,90.7 783.2,90.8 784.0,90.9 784.8,91.0 785.6,91.1 786.5,91.2 787.3,91.3 788.1,91.4 788.9,91.5 789.7,91.6 790.5,91.7 791.3,91.8 792.2,91.9 793.0,92.0 793.8,92.1 794.6,92.2 795.4,92.3 796.2,92.4 797.0,92.5 797.8,92.6 798.6,92.7 799.5,92.8 L799.5,93.5 L438.5,93.5 Z" fill="url(#g73)" clip-path="url(#c75)"/>
  <path d="M438.5,94.0 438.5,94.0 471.8,94.6 491.3,95.1 505.1,95.7 515.8,96.2 524.6,96.8 532.0,97.3 538.4,97.8 544.1,98.4 549.1,98.9 553.7,99.5 557.9,100.0 561.7,100.6 565.3,101.1 568.6,101.7 571.7,102.2 574.6,102.8 577.3,103.3 579.9,103.9 582.4,104.4 584.7,105.0 587.0,105.6 589.1,106.1 591.2,106.7 593.1,107.2 595.0,107.8 596.8,108.4 598.6,109.0 600.2,109.5 601.9,110.1 603.4,110.7 605.0,111.3 606.5,111.9 607.9,112.4 609.3,113.0 610.6,113.6 611.9,114.2 613.2,114.8 614.5,115.4 615.7,116.0 616.9,116.7 618.0,117.3 619.2,117.9 620.3,118.5 621.3,119.2 622.4,119.8 623.4,120.5 624.4,121.1 625.4,121.8 626.4,122.4 627.4,123.1 628.3,123.8 629.2,124.5 630.1,125.1 631.0,125.8 631.8,126.6 632.7,127.3 633.5,128.0 634.4,128.7 635.2,129.5 636.7,131.0 638.3,132.5 639.7,134.1 641.2,135.8 642.6,137.5 643.9,139.2 645.2,141.0 646.5,142.8 647.8,144.7 649.0,146.6 650.2,148.5 651.3,150.5 652.4,152.5 653.6,154.5 654.6,156.5 655.7,158.4 656.7,160.4 657.7,162.3 658.7,164.1 659.7,165.9 660.6,167.7 661.6,169.4 662.5,171.0 663.4,171.0 664.3,171.0 665.1,171.0 666.0,171.0 666.8,171.0 667.6,171.0 668.4,171.0 669.6,171.0 670.8,171.0 671.9,171.0 673.0,171.0 674.1,171.0 675.2,171.0 676.2,171.0 677.2,171.0 678.2,171.0 679.2,171.0 680.1,171.0 681.0,171.0 682.0,171.0 682.9,171.0 683.7,171.0 684.6,171.0 685.5,171.0 686.3,171.0 687.1,171.0 687.9,171.0 689.0,171.0 690.0,171.0 691.0,171.0 692.0,171.0 693.0,171.0 693.9,135.1 694.9,135.7 695.8,136.3 696.7,136.8 697.6,137.3 698.4,137.8 699.3,138.3 700.1,138.8 700.9,139.2 701.7,139.6 702.7,140.1 703.7,140.6 704.6,141.1 705.6,141.6 706.5,142.0 707.4,142.4 708.3,142.8 709.1,143.2 710.0,143.6 710.8,143.9 711.6,144.3 712.4,144.6 713.4,145.0 714.3,145.4 715.2,145.8 716.1,146.1 717.0,146.4 717.9,146.7 718.7,147.1 719.6,147.4 720.4,147.6 721.2,147.9 722.1,148.2 723.0,148.5 723.9,148.8 724.8,149.1 725.7,149.4 726.5,149.6 727.3,149.9 728.1,150.1 728.9,150.4 729.8,150.6 730.7,150.9 731.6,151.1 732.4,151.4 733.3,151.6 734.1,82.1 734.9,82.3 735.8,82.5 736.7,82.7 737.5,82.9 738.4,83.1 739.2,83.3 740.0,83.5 740.8,83.7 741.7,83.9 742.6,84.1 743.4,84.3 744.3,84.5 745.1,84.7 745.9,84.8 746.8,85.0 747.6,85.2 748.5,85.4 749.3,85.5 750.1,85.7 751.0,85.8 751.8,86.0 752.7,86.2 753.5,86.3 754.3,86.5 755.1,86.6 756.0,86.8 756.8,86.9 757.6,87.1 758.5,87.2 759.3,87.3 760.1,87.5 761.0,87.6 761.8,87.7 762.6,87.9 763.5,88.0 764.3,88.1 765.1,88.3 765.9,88.4 766.8,88.5 767.6,88.6 768.4,88.8 769.2,88.9 770.1,89.0 770.9,89.1 771.7,89.2 772.6,89.4 773.4,89.5 774.2,89.6 775.0,89.7 775.8,89.8 776.6,89.9 777.5,90.0 778.3,90.1 779.1,90.2 779.9,90.3 780.7,90.4 781.5,90.6 782.4,90.7 783.2,90.8 784.0,90.9 784.8,91.0 785.6,91.1 786.5,91.2 787.3,91.3 788.1,91.4 788.9,91.5 789.7,91.6 790.5,91.7 791.3,91.8 792.2,91.9 793.0,92.0 793.8,92.1 794.6,92.2 795.4,92.3 796.2,92.4 797.0,92.5 797.8,92.6 798.6,92.7 799.5,92.8 L799.5,93.5 L438.5,93.5 Z" fill="url(#g74)" clip-path="url(#c76)"/>
  <defs><clipPath id="pc77"><rect x="435" y="16" width="365" height="155"/></clipPath></defs>
  <polyline points="438.5,94.0 471.8,94.6 491.3,95.1 505.1,95.7 515.8,96.2 524.6,96.8 532.0,97.3 538.4,97.8 544.1,98.4 549.1,98.9 553.7,99.5 557.9,100.0 561.7,100.6 565.3,101.1 568.6,101.7 571.7,102.2 574.6,102.8 577.3,103.3 579.9,103.9 582.4,104.4 584.7,105.0 587.0,105.6 589.1,106.1 591.2,106.7 593.1,107.2 595.0,107.8 596.8,108.4 598.6,109.0 600.2,109.5 601.9,110.1 603.4,110.7 605.0,111.3 606.5,111.9 607.9,112.4 609.3,113.0 610.6,113.6 611.9,114.2 613.2,114.8 614.5,115.4 615.7,116.0 616.9,116.7 618.0,117.3 619.2,117.9 620.3,118.5 621.3,119.2 622.4,119.8 623.4,120.5 624.4,121.1 625.4,121.8 626.4,122.4 627.4,123.1 628.3,123.8 629.2,124.5 630.1,125.1 631.0,125.8 631.8,126.6 632.7,127.3 633.5,128.0 634.4,128.7 635.2,129.5 636.7,131.0 638.3,132.5 639.7,134.1 641.2,135.8 642.6,137.5 643.9,139.2 645.2,141.0 646.5,142.8 647.8,144.7 649.0,146.6 650.2,148.5 651.3,150.5 652.4,152.5 653.6,154.5 654.6,156.5 655.7,158.4 656.7,160.4 657.7,162.3 658.7,164.1 659.7,165.9 660.6,167.7 661.6,169.4 662.5,171.0 663.4,172.5 664.3,174.0 665.1,175.4 666.0,176.8 666.8,178.1 667.6,179.3 668.4,180.5 669.6,182.2 670.8,183.7 671.9,185.2 673.0,186.6 674.1,187.9 675.2,189.1 676.2,190.2 677.2,191.3 678.2,192.3 679.2,193.3 680.1,194.2 681.0,195.0 682.0,195.9 682.9,196.7 683.7,197.4 684.6,198.1 685.5,198.8 686.3,199.5 687.1,200.1 687.9,200.7 689.0,201.5 690.0,202.2 691.0,202.9 692.0,203.6 693.0,204.3 693.9,135.1 694.9,135.7 695.8,136.3 696.7,136.8 697.6,137.3 698.4,137.8 699.3,138.3 700.1,138.8 700.9,139.2 701.7,139.6 702.7,140.1 703.7,140.6 704.6,141.1 705.6,141.6 706.5,142.0 707.4,142.4 708.3,142.8 709.1,143.2 710.0,143.6 710.8,143.9 711.6,144.3 712.4,144.6 713.4,145.0 714.3,145.4 715.2,145.8 716.1,146.1 717.0,146.4 717.9,146.7 718.7,147.1 719.6,147.4 720.4,147.6 721.2,147.9 722.1,148.2 723.0,148.5 723.9,148.8 724.8,149.1 725.7,149.4 726.5,149.6 727.3,149.9 728.1,150.1 728.9,150.4 729.8,150.6 730.7,150.9 731.6,151.1 732.4,151.4 733.3,151.6 734.1,82.1 734.9,82.3 735.8,82.5 736.7,82.7 737.5,82.9 738.4,83.1 739.2,83.3 740.0,83.5 740.8,83.7 741.7,83.9 742.6,84.1 743.4,84.3 744.3,84.5 745.1,84.7 745.9,84.8 746.8,85.0 747.6,85.2 748.5,85.4 749.3,85.5 750.1,85.7 751.0,85.8 751.8,86.0 752.7,86.2 753.5,86.3 754.3,86.5 755.1,86.6 756.0,86.8 756.8,86.9 757.6,87.1 758.5,87.2 759.3,87.3 760.1,87.5 761.0,87.6 761.8,87.7 762.6,87.9 763.5,88.0 764.3,88.1 765.1,88.3 765.9,88.4 766.8,88.5 767.6,88.6 768.4,88.8 769.2,88.9 770.1,89.0 770.9,89.1 771.7,89.2 772.6,89.4 773.4,89.5 774.2,89.6 775.0,89.7 775.8,89.8 776.6,89.9 777.5,90.0 778.3,90.1 779.1,90.2 779.9,90.3 780.7,90.4 781.5,90.6 782.4,90.7 783.2,90.8 784.0,90.9 784.8,91.0 785.6,91.1 786.5,91.2 787.3,91.3 788.1,91.4 788.9,91.5 789.7,91.6 790.5,91.7 791.3,91.8 792.2,91.9 793.0,92.0 793.8,92.1 794.6,92.2 795.4,92.3 796.2,92.4 797.0,92.5 797.8,92.6 798.6,92.7 799.5,92.8" fill="none" stroke="#e74c3c" stroke-width="1.5" stroke-linejoin="round" clip-path="url(#pc77)"/>
  <line x1="34" y1="207" x2="34" y2="362" stroke="#d1d5db"/>
  <line x1="34" y1="284.5" x2="399" y2="284.5" stroke="#d1d5db"/>
  <text x="216.5" y="388" text-anchor="middle" font-size="9" fill="#6b7280">Hz</text>
  <text x="12" y="284.5" text-anchor="middle" font-size="9" fill="#6b7280" transform="rotate(-90 12 284.5)">Group delay</text>
  <line x1="67.3" y1="207" x2="67.3" y2="362" stroke="#e5e7eb" stroke-width="0.5"/>
  <line x1="86.8" y1="207" x2="86.8" y2="362" stroke="#e5e7eb" stroke-width="0.5"/>
  <line x1="100.6" y1="207" x2="100.6" y2="362" stroke="#e5e7eb" stroke-width="0.5"/>
  <line x1="111.3" y1="207" x2="111.3" y2="362" stroke="#e5e7eb" stroke-width="0.5"/>
  <line x1="120.0" y1="207" x2="120.0" y2="362" stroke="#e5e7eb" stroke-width="0.5"/>
  <line x1="127.4" y1="207" x2="127.4" y2="362" stroke="#e5e7eb" stroke-width="0.5"/>
  <line x1="133.9" y1="207" x2="133.9" y2="362" stroke="#e5e7eb" stroke-width="0.5"/>
  <line x1="139.5" y1="207" x2="139.5" y2="362" stroke="#e5e7eb" stroke-width="0.5"/>
  <line x1="177.9" y1="207" x2="177.9" y2="362" stroke="#e5e7eb" stroke-width="0.5"/>
  <line x1="197.3" y1="207" x2="197.3" y2="362" stroke="#e5e7eb" stroke-width="0.5"/>
  <line x1="211.1" y1="207" x2="211.1" y2="362" stroke="#e5e7eb" stroke-width="0.5"/>
  <line x1="221.9" y1="207" x2="221.9" y2="362" stroke="#e5e7eb" stroke-width="0.5"/>
  <line x1="230.6" y1="207" x2="230.6" y2="362" stroke="#e5e7eb" stroke-width="0.5"/>
  <line x1="238.0" y1="207" x2="238.0" y2="362" stroke="#e5e7eb" stroke-width="0.5"/>
  <line x1="244.4" y1="207" x2="244.4" y2="362" stroke="#e5e7eb" stroke-width="0.5"/>
  <line x1="250.1" y1="207" x2="250.1" y2="362" stroke="#e5e7eb" stroke-width="0.5"/>
  <line x1="288.4" y1="207" x2="288.4" y2="362" stroke="#e5e7eb" stroke-width="0.5"/>
  <line x1="307.9" y1="207" x2="307.9" y2="362" stroke="#e5e7eb" stroke-width="0.5"/>
  <line x1="321.7" y1="207" x2="321.7" y2="362" stroke="#e5e7eb" stroke-width="0.5"/>
  <line x1="332.4" y1="207" x2="332.4" y2="362" stroke="#e5e7eb" stroke-width="0.5"/>
  <line x1="341.2" y1="207" x2="341.2" y2="362" stroke="#e5e7eb" stroke-width="0.5"/>
  <line x1="348.6" y1="207" x2="348.6" y2="362" stroke="#e5e7eb" stroke-width="0.5"/>
  <line x1="355.0" y1="207" x2="355.0" y2="362" stroke="#e5e7eb" stroke-width="0.5"/>
  <line x1="360.7" y1="207" x2="360.7" y2="362" stroke="#e5e7eb" stroke-width="0.5"/>
  <line x1="399.0" y1="207" x2="399.0" y2="362" stroke="#e5e7eb" stroke-width="0.5"/>
  <line x1="144.6" y1="207" x2="144.6" y2="362" stroke="#e5e7eb" stroke-width="0.5"/>
  <text x="144.6" y="374" text-anchor="middle" font-size="8" fill="#6b7280">100</text>
  <line x1="255.1" y1="207" x2="255.1" y2="362" stroke="#e5e7eb" stroke-width="0.5"/>
  <text x="255.1" y="374" text-anchor="middle" font-size="8" fill="#6b7280">1k</text>
  <line x1="365.7" y1="207" x2="365.7" y2="362" stroke="#e5e7eb" stroke-width="0.5"/>
  <text x="365.7" y="374" text-anchor="middle" font-size="8" fill="#6b7280">10k</text>
  <line x1="34" y1="330.5" x2="399" y2="330.5" stroke="#e5e7eb" stroke-width="0.5"/>
  <text x="30" y="333.5" text-anchor="end" font-size="8" fill="#6b7280">-3000</text>
  <text x="30" y="287.5" text-anchor="end" font-size="8" fill="#6b7280">0</text>
  <line x1="34" y1="238.5" x2="399" y2="238.5" stroke="#e5e7eb" stroke-width="0.5"/>
  <text x="30" y="241.5" text-anchor="end" font-size="8" fill="#6b7280">3000</text>
  <defs><linearGradient id="g78" x1="0" y1="207" x2="0" y2="284.5" gradientUnits="userSpaceOnUse">
    <stop offset="0%" stop-color="#2ecc71" stop-opacity="0.15"/>
    <stop offset="100%" stop-color="#2ecc71" stop-opacity="0.02"/>
  </linearGradient></defs>
  <defs><linearGradient id="g79" x1="0" y1="362" x2="0" y2="284.5" gradientUnits="userSpaceOnUse">
    <stop offset="0%" stop-color="#2ecc71" stop-opacity="0.15"/>
    <stop offset="100%" stop-color="#2ecc71" stop-opacity="0.02"/>
  </linearGradient></defs>
  <defs><clipPath id="c80"><rect x="34" y="207" width="365" height="77.5"/></clipPath></defs>
  <defs><clipPath id="c81"><rect x="34" y="284.5" width="365" height="77.5"/></clipPath></defs>
  <path d="M37.5,284.5 37.5,284.5 70.8,284.5 90.3,284.5 104.1,284.5 114.8,284.5 123.6,284.5 131.0,284.5 137.4,284.5 143.1,284.5 148.1,284.5 152.7,284.5 156.9,284.5 160.7,284.5 164.3,284.5 167.6,284.5 170.7,284.5 173.6,284.5 176.3,284.5 178.9,284.5 181.4,284.5 183.7,284.5 186.0,284.5 188.1,284.5 190.2,284.5 192.1,284.5 194.0,284.5 195.8,284.5 197.6,284.5 199.2,284.5 200.9,284.5 202.4,284.5 204.0,284.5 205.5,284.5 206.9,284.5 208.3,284.5 209.6,284.5 210.9,284.5 212.2,284.5 213.5,284.5 214.7,284.5 215.9,284.5 217.0,284.5 218.2,284.5 219.3,284.5 220.3,284.5 221.4,284.5 222.4,284.5 223.4,284.5 224.4,284.5 225.4,284.5 226.4,284.5 227.3,284.5 228.2,284.5 229.1,284.5 230.0,284.5 230.8,284.5 231.7,284.5 232.5,284.5 233.4,284.5 234.2,284.5 235.7,284.5 237.3,284.5 238.7,284.5 240.2,284.5 241.6,284.5 242.9,284.6 244.2,284.6 245.5,284.6 246.8,284.6 248.0,284.6 249.2,284.6 250.3,284.7 251.4,284.7 252.6,284.7 253.6,284.7 254.7,284.7 255.7,284.8 256.7,284.8 257.7,284.8 258.7,284.8 259.6,284.8 260.6,284.8 261.5,284.9 262.4,284.9 263.3,284.9 264.1,284.9 265.0,284.9 265.8,284.9 266.6,284.9 267.4,284.9 268.6,284.9 269.8,284.9 270.9,284.9 272.0,284.9 273.1,284.9 274.2,284.9 275.2,284.9 276.2,284.9 277.2,284.9 278.2,284.9 279.1,285.0 280.0,285.0 281.0,285.0 281.9,285.0 282.7,285.0 283.6,285.0 284.5,285.1 285.3,285.1 286.1,285.1 286.9,285.2 288.0,285.3 289.0,285.5 290.0,285.8 291.0,286.8 292.0,296.7 292.9,281.5 293.9,283.3 294.8,283.8 295.7,284.0 296.6,284.2 297.4,284.2 298.3,284.3 299.1,284.4 299.9,284.4 300.7,284.4 301.7,284.4 302.7,284.5 303.6,284.5 304.6,284.5 305.5,284.5 306.4,284.5 307.3,284.5 308.1,284.5 309.0,284.5 309.8,284.5 310.6,284.6 311.4,284.6 312.4,284.6 313.3,284.6 314.2,284.6 315.1,284.6 316.0,284.6 316.9,284.6 317.7,284.6 318.6,284.6 319.4,284.6 320.2,284.6 321.1,284.6 322.0,284.6 322.9,284.6 323.8,284.6 324.7,284.7 325.5,284.7 326.3,284.7 327.1,284.7 327.9,284.7 328.8,284.8 329.7,284.9 330.6,285.0 331.4,285.3 332.3,286.7 333.1,281.6 333.9,283.6 334.8,284.0 335.7,284.2 336.5,284.3 337.4,284.3 338.2,284.3 339.0,284.4 339.8,284.4 340.7,284.4 341.6,284.4 342.4,284.4 343.3,284.4 344.1,284.4 344.9,284.4 345.8,284.5 346.6,284.5 347.5,284.5 348.3,284.5 349.1,284.5 350.0,284.5 350.8,284.5 351.7,284.5 352.5,284.5 353.3,284.5 354.1,284.5 355.0,284.5 355.8,284.5 356.6,284.5 357.5,284.5 358.3,284.5 359.1,284.5 360.0,284.5 360.8,284.5 361.6,284.5 362.5,284.5 363.3,284.5 364.1,284.5 364.9,284.5 365.8,284.5 366.6,284.5 367.4,284.5 368.2,284.5 369.1,284.5 369.9,284.5 370.7,284.5 371.6,284.5 372.4,284.5 373.2,284.5 374.0,284.5 374.8,284.5 375.6,284.5 376.5,284.5 377.3,284.5 378.1,284.5 378.9,284.5 379.7,284.5 380.5,284.5 381.4,284.5 382.2,284.5 383.0,284.5 383.8,284.5 384.6,284.5 385.5,284.5 386.3,284.5 387.1,284.5 387.9,284.5 388.7,284.5 389.5,284.5 390.3,284.5 391.2,284.5 392.0,284.5 392.8,284.5 393.6,284.5 394.4,284.5 395.2,284.5 396.0,284.5 396.8,284.5 397.6,284.5 398.5,284.5 L398.5,284.5 L37.5,284.5 Z" fill="url(#g78)" clip-path="url(#c80)"/>
  <path d="M37.5,284.5 37.5,284.5 70.8,284.5 90.3,284.5 104.1,284.5 114.8,284.5 123.6,284.5 131.0,284.5 137.4,284.5 143.1,284.5 148.1,284.5 152.7,284.5 156.9,284.5 160.7,284.5 164.3,284.5 167.6,284.5 170.7,284.5 173.6,284.5 176.3,284.5 178.9,284.5 181.4,284.5 183.7,284.5 186.0,284.5 188.1,284.5 190.2,284.5 192.1,284.5 194.0,284.5 195.8,284.5 197.6,284.5 199.2,284.5 200.9,284.5 202.4,284.5 204.0,284.5 205.5,284.5 206.9,284.5 208.3,284.5 209.6,284.5 210.9,284.5 212.2,284.5 213.5,284.5 214.7,284.5 215.9,284.5 217.0,284.5 218.2,284.5 219.3,284.5 220.3,284.5 221.4,284.5 222.4,284.5 223.4,284.5 224.4,284.5 225.4,284.5 226.4,284.5 227.3,284.5 228.2,284.5 229.1,284.5 230.0,284.5 230.8,284.5 231.7,284.5 232.5,284.5 233.4,284.5 234.2,284.5 235.7,284.5 237.3,284.5 238.7,284.5 240.2,284.5 241.6,284.5 242.9,284.6 244.2,284.6 245.5,284.6 246.8,284.6 248.0,284.6 249.2,284.6 250.3,284.7 251.4,284.7 252.6,284.7 253.6,284.7 254.7,284.7 255.7,284.8 256.7,284.8 257.7,284.8 258.7,284.8 259.6,284.8 260.6,284.8 261.5,284.9 262.4,284.9 263.3,284.9 264.1,284.9 265.0,284.9 265.8,284.9 266.6,284.9 267.4,284.9 268.6,284.9 269.8,284.9 270.9,284.9 272.0,284.9 273.1,284.9 274.2,284.9 275.2,284.9 276.2,284.9 277.2,284.9 278.2,284.9 279.1,285.0 280.0,285.0 281.0,285.0 281.9,285.0 282.7,285.0 283.6,285.0 284.5,285.1 285.3,285.1 286.1,285.1 286.9,285.2 288.0,285.3 289.0,285.5 290.0,285.8 291.0,286.8 292.0,296.7 292.9,281.5 293.9,283.3 294.8,283.8 295.7,284.0 296.6,284.2 297.4,284.2 298.3,284.3 299.1,284.4 299.9,284.4 300.7,284.4 301.7,284.4 302.7,284.5 303.6,284.5 304.6,284.5 305.5,284.5 306.4,284.5 307.3,284.5 308.1,284.5 309.0,284.5 309.8,284.5 310.6,284.6 311.4,284.6 312.4,284.6 313.3,284.6 314.2,284.6 315.1,284.6 316.0,284.6 316.9,284.6 317.7,284.6 318.6,284.6 319.4,284.6 320.2,284.6 321.1,284.6 322.0,284.6 322.9,284.6 323.8,284.6 324.7,284.7 325.5,284.7 326.3,284.7 327.1,284.7 327.9,284.7 328.8,284.8 329.7,284.9 330.6,285.0 331.4,285.3 332.3,286.7 333.1,281.6 333.9,283.6 334.8,284.0 335.7,284.2 336.5,284.3 337.4,284.3 338.2,284.3 339.0,284.4 339.8,284.4 340.7,284.4 341.6,284.4 342.4,284.4 343.3,284.4 344.1,284.4 344.9,284.4 345.8,284.5 346.6,284.5 347.5,284.5 348.3,284.5 349.1,284.5 350.0,284.5 350.8,284.5 351.7,284.5 352.5,284.5 353.3,284.5 354.1,284.5 355.0,284.5 355.8,284.5 356.6,284.5 357.5,284.5 358.3,284.5 359.1,284.5 360.0,284.5 360.8,284.5 361.6,284.5 362.5,284.5 363.3,284.5 364.1,284.5 364.9,284.5 365.8,284.5 366.6,284.5 367.4,284.5 368.2,284.5 369.1,284.5 369.9,284.5 370.7,284.5 371.6,284.5 372.4,284.5 373.2,284.5 374.0,284.5 374.8,284.5 375.6,284.5 376.5,284.5 377.3,284.5 378.1,284.5 378.9,284.5 379.7,284.5 380.5,284.5 381.4,284.5 382.2,284.5 383.0,284.5 383.8,284.5 384.6,284.5 385.5,284.5 386.3,284.5 387.1,284.5 387.9,284.5 388.7,284.5 389.5,284.5 390.3,284.5 391.2,284.5 392.0,284.5 392.8,284.5 393.6,284.5 394.4,284.5 395.2,284.5 396.0,284.5 396.8,284.5 397.6,284.5 398.5,284.5 L398.5,284.5 L37.5,284.5 Z" fill="url(#g79)" clip-path="url(#c81)"/>
  <defs><clipPath id="pc82"><rect x="34" y="207" width="365" height="155"/></clipPath></defs>
  <polyline points="37.5,284.5 70.8,284.5 90.3,284.5 104.1,284.5 114.8,284.5 123.6,284.5 131.0,284.5 137.4,284.5 143.1,284.5 148.1,284.5 152.7,284.5 156.9,284.5 160.7,284.5 164.3,284.5 167.6,284.5 170.7,284.5 173.6,284.5 176.3,284.5 178.9,284.5 181.4,284.5 183.7,284.5 186.0,284.5 188.1,284.5 190.2,284.5 192.1,284.5 194.0,284.5 195.8,284.5 197.6,284.5 199.2,284.5 200.9,284.5 202.4,284.5 204.0,284.5 205.5,284.5 206.9,284.5 208.3,284.5 209.6,284.5 210.9,284.5 212.2,284.5 213.5,284.5 214.7,284.5 215.9,284.5 217.0,284.5 218.2,284.5 219.3,284.5 220.3,284.5 221.4,284.5 222.4,284.5 223.4,284.5 224.4,284.5 225.4,284.5 226.4,284.5 227.3,284.5 228.2,284.5 229.1,284.5 230.0,284.5 230.8,284.5 231.7,284.5 232.5,284.5 233.4,284.5 234.2,284.5 235.7,284.5 237.3,284.5 238.7,284.5 240.2,284.5 241.6,284.5 242.9,284.6 244.2,284.6 245.5,284.6 246.8,284.6 248.0,284.6 249.2,284.6 250.3,284.7 251.4,284.7 252.6,284.7 253.6,284.7 254.7,284.7 255.7,284.8 256.7,284.8 257.7,284.8 258.7,284.8 259.6,284.8 260.6,284.8 261.5,284.9 262.4,284.9 263.3,284.9 264.1,284.9 265.0,284.9 265.8,284.9 266.6,284.9 267.4,284.9 268.6,284.9 269.8,284.9 270.9,284.9 272.0,284.9 273.1,284.9 274.2,284.9 275.2,284.9 276.2,284.9 277.2,284.9 278.2,284.9 279.1,285.0 280.0,285.0 281.0,285.0 281.9,285.0 282.7,285.0 283.6,285.0 284.5,285.1 285.3,285.1 286.1,285.1 286.9,285.2 288.0,285.3 289.0,285.5 290.0,285.8 291.0,286.8 292.0,296.7 292.9,281.5 293.9,283.3 294.8,283.8 295.7,284.0 296.6,284.2 297.4,284.2 298.3,284.3 299.1,284.4 299.9,284.4 300.7,284.4 301.7,284.4 302.7,284.5 303.6,284.5 304.6,284.5 305.5,284.5 306.4,284.5 307.3,284.5 308.1,284.5 309.0,284.5 309.8,284.5 310.6,284.6 311.4,284.6 312.4,284.6 313.3,284.6 314.2,284.6 315.1,284.6 316.0,284.6 316.9,284.6 317.7,284.6 318.6,284.6 319.4,284.6 320.2,284.6 321.1,284.6 322.0,284.6 322.9,284.6 323.8,284.6 324.7,284.7 325.5,284.7 326.3,284.7 327.1,284.7 327.9,284.7 328.8,284.8 329.7,284.9 330.6,285.0 331.4,285.3 332.3,286.7 333.1,281.6 333.9,283.6 334.8,284.0 335.7,284.2 336.5,284.3 337.4,284.3 338.2,284.3 339.0,284.4 339.8,284.4 340.7,284.4 341.6,284.4 342.4,284.4 343.3,284.4 344.1,284.4 344.9,284.4 345.8,284.5 346.6,284.5 347.5,284.5 348.3,284.5 349.1,284.5 350.0,284.5 350.8,284.5 351.7,284.5 352.5,284.5 353.3,284.5 354.1,284.5 355.0,284.5 355.8,284.5 356.6,284.5 357.5,284.5 358.3,284.5 359.1,284.5 360.0,284.5 360.8,284.5 361.6,284.5 362.5,284.5 363.3,284.5 364.1,284.5 364.9,284.5 365.8,284.5 366.6,284.5 367.4,284.5 368.2,284.5 369.1,284.5 369.9,284.5 370.7,284.5 371.6,284.5 372.4,284.5 373.2,284.5 374.0,284.5 374.8,284.5 375.6,284.5 376.5,284.5 377.3,284.5 378.1,284.5 378.9,284.5 379.7,284.5 380.5,284.5 381.4,284.5 382.2,284.5 383.0,284.5 383.8,284.5 384.6,284.5 385.5,284.5 386.3,284.5 387.1,284.5 387.9,284.5 388.7,284.5 389.5,284.5 390.3,284.5 391.2,284.5 392.0,284.5 392.8,284.5 393.6,284.5 394.4,284.5 395.2,284.5 396.0,284.5 396.8,284.5 397.6,284.5 398.5,284.5" fill="none" stroke="#2ecc71" stroke-width="1.5" stroke-linejoin="round" clip-path="url(#pc82)"/>
  <line x1="435" y1="207" x2="435" y2="362" stroke="#d1d5db"/>
  <line x1="435" y1="284.5" x2="800" y2="284.5" stroke="#d1d5db"/>
  <text x="617.5" y="388" text-anchor="middle" font-size="9" fill="#6b7280">Samples</text>
  <text x="413" y="284.5" text-anchor="middle" font-size="9" fill="#6b7280" transform="rotate(-90 413 284.5)">Impulse response</text>
  <line x1="435.0" y1="207" x2="435.0" y2="362" stroke="#e5e7eb" stroke-width="0.5"/>
  <text x="435.0" y="374" text-anchor="middle" font-size="8" fill="#6b7280">0</text>
  <line x1="526.3" y1="207" x2="526.3" y2="362" stroke="#e5e7eb" stroke-width="0.5"/>
  <text x="526.3" y="374" text-anchor="middle" font-size="8" fill="#6b7280">32</text>
  <line x1="617.5" y1="207" x2="617.5" y2="362" stroke="#e5e7eb" stroke-width="0.5"/>
  <text x="617.5" y="374" text-anchor="middle" font-size="8" fill="#6b7280">64</text>
  <line x1="708.8" y1="207" x2="708.8" y2="362" stroke="#e5e7eb" stroke-width="0.5"/>
  <text x="708.8" y="374" text-anchor="middle" font-size="8" fill="#6b7280">96</text>
  <line x1="800.0" y1="207" x2="800.0" y2="362" stroke="#e5e7eb" stroke-width="0.5"/>
  <text x="800.0" y="374" text-anchor="middle" font-size="8" fill="#6b7280">128</text>
  <line x1="435" y1="343.8" x2="800" y2="343.8" stroke="#e5e7eb" stroke-width="0.5"/>
  <text x="431" y="346.8" text-anchor="end" font-size="8" fill="#6b7280">-0.04</text>
  <text x="431" y="287.5" text-anchor="end" font-size="8" fill="#6b7280">0</text>
  <line x1="435" y1="225.2" x2="800" y2="225.2" stroke="#e5e7eb" stroke-width="0.5"/>
  <text x="431" y="228.2" text-anchor="end" font-size="8" fill="#6b7280">0.04</text>
  <defs><linearGradient id="g83" x1="0" y1="207" x2="0" y2="284.5" gradientUnits="userSpaceOnUse">
    <stop offset="0%" stop-color="#f39c12" stop-opacity="0.15"/>
    <stop offset="100%" stop-color="#f39c12" stop-opacity="0.02"/>
  </linearGradient></defs>
  <defs><linearGradient id="g84" x1="0" y1="362" x2="0" y2="284.5" gradientUnits="userSpaceOnUse">
    <stop offset="0%" stop-color="#f39c12" stop-opacity="0.15"/>
    <stop offset="100%" stop-color="#f39c12" stop-opacity="0.02"/>
  </linearGradient></defs>
  <defs><clipPath id="c85"><rect x="435" y="207" width="365" height="77.5"/></clipPath></defs>
  <defs><clipPath id="c86"><rect x="435" y="284.5" width="365" height="77.5"/></clipPath></defs>
  <path d="M435.0,270.2 435.0,270.2 437.9,281.6 440.7,274.8 443.6,269.5 446.4,265.2 449.3,261.2 452.1,257.3 455.0,253.1 457.8,248.6 460.7,243.9 463.5,239.0 466.4,234.0 469.2,229.0 472.1,224.3 474.9,219.9 477.8,215.9 480.6,212.6 483.5,210.0 486.3,208.1 489.2,207.1 492.0,207.0 494.9,207.7 497.7,209.3 500.6,211.7 503.4,214.9 506.3,218.7 509.1,223.2 512.0,228.1 514.8,233.4 517.7,239.0 520.5,244.8 523.4,250.7 526.3,256.6 529.1,262.4 532.0,267.9 534.8,273.2 537.7,278.2 540.5,282.8 543.4,286.9 546.2,290.6 549.1,293.7 551.9,296.4 554.8,298.6 557.6,300.2 560.5,301.4 563.3,302.2 566.2,302.5 569.0,302.4 571.9,301.9 574.7,301.2 577.6,300.2 580.4,299.0 583.3,297.6 586.1,296.0 589.0,294.4 591.8,292.8 594.7,291.1 597.5,289.5 600.4,287.9 603.2,286.4 606.1,285.0 608.9,283.7 611.8,282.5 614.6,281.6 617.5,280.7 620.4,280.0 623.2,279.5 626.1,279.1 628.9,278.9 631.8,278.8 634.6,278.8 637.5,278.9 640.3,279.2 643.2,279.5 646.0,279.9 648.9,280.3 651.7,280.8 654.6,281.3 657.4,281.9 660.3,282.4 663.1,282.9 666.0,283.4 668.8,283.9 671.7,284.4 674.5,284.8 677.4,285.1 680.2,285.5 683.1,285.7 685.9,286.0 688.8,286.1 691.6,286.3 694.5,286.3 697.3,286.4 700.2,286.4 703.0,286.3 705.9,286.2 708.8,286.1 711.6,286.0 714.5,285.9 717.3,285.7 720.2,285.5 723.0,285.4 725.9,285.2 728.7,285.0 731.6,284.9 734.4,284.7 737.3,284.5 740.1,284.4 743.0,284.3 745.8,284.2 748.7,284.1 751.5,284.0 754.4,284.0 757.2,283.9 760.1,283.9 762.9,283.9 765.8,283.9 768.6,283.9 771.5,283.9 774.3,284.0 777.2,284.0 780.0,284.1 782.9,284.1 785.7,284.2 788.6,284.2 791.4,284.3 794.3,284.3 797.1,284.4 L797.1,284.5 L435.0,284.5 Z" fill="url(#g83)" clip-path="url(#c85)"/>
  <path d="M435.0,270.2 435.0,270.2 437.9,281.6 440.7,274.8 443.6,269.5 446.4,265.2 449.3,261.2 452.1,257.3 455.0,253.1 457.8,248.6 460.7,243.9 463.5,239.0 466.4,234.0 469.2,229.0 472.1,224.3 474.9,219.9 477.8,215.9 480.6,212.6 483.5,210.0 486.3,208.1 489.2,207.1 492.0,207.0 494.9,207.7 497.7,209.3 500.6,211.7 503.4,214.9 506.3,218.7 509.1,223.2 512.0,228.1 514.8,233.4 517.7,239.0 520.5,244.8 523.4,250.7 526.3,256.6 529.1,262.4 532.0,267.9 534.8,273.2 537.7,278.2 540.5,282.8 543.4,286.9 546.2,290.6 549.1,293.7 551.9,296.4 554.8,298.6 557.6,300.2 560.5,301.4 563.3,302.2 566.2,302.5 569.0,302.4 571.9,301.9 574.7,301.2 577.6,300.2 580.4,299.0 583.3,297.6 586.1,296.0 589.0,294.4 591.8,292.8 594.7,291.1 597.5,289.5 600.4,287.9 603.2,286.4 606.1,285.0 608.9,283.7 611.8,282.5 614.6,281.6 617.5,280.7 620.4,280.0 623.2,279.5 626.1,279.1 628.9,278.9 631.8,278.8 634.6,278.8 637.5,278.9 640.3,279.2 643.2,279.5 646.0,279.9 648.9,280.3 651.7,280.8 654.6,281.3 657.4,281.9 660.3,282.4 663.1,282.9 666.0,283.4 668.8,283.9 671.7,284.4 674.5,284.8 677.4,285.1 680.2,285.5 683.1,285.7 685.9,286.0 688.8,286.1 691.6,286.3 694.5,286.3 697.3,286.4 700.2,286.4 703.0,286.3 705.9,286.2 708.8,286.1 711.6,286.0 714.5,285.9 717.3,285.7 720.2,285.5 723.0,285.4 725.9,285.2 728.7,285.0 731.6,284.9 734.4,284.7 737.3,284.5 740.1,284.4 743.0,284.3 745.8,284.2 748.7,284.1 751.5,284.0 754.4,284.0 757.2,283.9 760.1,283.9 762.9,283.9 765.8,283.9 768.6,283.9 771.5,283.9 774.3,284.0 777.2,284.0 780.0,284.1 782.9,284.1 785.7,284.2 788.6,284.2 791.4,284.3 794.3,284.3 797.1,284.4 L797.1,284.5 L435.0,284.5 Z" fill="url(#g84)" clip-path="url(#c86)"/>
  <defs><clipPath id="pc87"><rect x="435" y="207" width="365" height="155"/></clipPath></defs>
  <polyline points="435.0,270.2 437.9,281.6 440.7,274.8 443.6,269.5 446.4,265.2 449.3,261.2 452.1,257.3 455.0,253.1 457.8,248.6 460.7,243.9 463.5,239.0 466.4,234.0 469.2,229.0 472.1,224.3 474.9,219.9 477.8,215.9 480.6,212.6 483.5,210.0 486.3,208.1 489.2,207.1 492.0,207.0 494.9,207.7 497.7,209.3 500.6,211.7 503.4,214.9 506.3,218.7 509.1,223.2 512.0,228.1 514.8,233.4 517.7,239.0 520.5,244.8 523.4,250.7 526.3,256.6 529.1,262.4 532.0,267.9 534.8,273.2 537.7,278.2 540.5,282.8 543.4,286.9 546.2,290.6 549.1,293.7 551.9,296.4 554.8,298.6 557.6,300.2 560.5,301.4 563.3,302.2 566.2,302.5 569.0,302.4 571.9,301.9 574.7,301.2 577.6,300.2 580.4,299.0 583.3,297.6 586.1,296.0 589.0,294.4 591.8,292.8 594.7,291.1 597.5,289.5 600.4,287.9 603.2,286.4 606.1,285.0 608.9,283.7 611.8,282.5 614.6,281.6 617.5,280.7 620.4,280.0 623.2,279.5 626.1,279.1 628.9,278.9 631.8,278.8 634.6,278.8 637.5,278.9 640.3,279.2 643.2,279.5 646.0,279.9 648.9,280.3 651.7,280.8 654.6,281.3 657.4,281.9 660.3,282.4 663.1,282.9 666.0,283.4 668.8,283.9 671.7,284.4 674.5,284.8 677.4,285.1 680.2,285.5 683.1,285.7 685.9,286.0 688.8,286.1 691.6,286.3 694.5,286.3 697.3,286.4 700.2,286.4 703.0,286.3 705.9,286.2 708.8,286.1 711.6,286.0 714.5,285.9 717.3,285.7 720.2,285.5 723.0,285.4 725.9,285.2 728.7,285.0 731.6,284.9 734.4,284.7 737.3,284.5 740.1,284.4 743.0,284.3 745.8,284.2 748.7,284.1 751.5,284.0 754.4,284.0 757.2,283.9 760.1,283.9 762.9,283.9 765.8,283.9 768.6,283.9 771.5,283.9 774.3,284.0 777.2,284.0 780.0,284.1 782.9,284.1 785.7,284.2 788.6,284.2 791.4,284.3 794.3,284.3 797.1,284.4" fill="none" stroke="#f39c12" stroke-width="1.3" stroke-linejoin="round" clip-path="url(#pc87)"/>
</svg>
