<svg xmlns="http://www.w3.org/2000/svg" viewBox="0 0 800 240" style="font-family:system-ui,-apple-system,sans-serif">
  <line x1="55" y1="12" x2="55" y2="192" stroke="#d1d5db"/>
  <line x1="55" y1="192" x2="755" y2="192" stroke="#d1d5db"/>
  <text x="405" y="222" text-anchor="middle" font-size="10" fill="#6b7280">Frequency (Hz)</text>
  <text x="17" y="102" text-anchor="middle" font-size="10" fill="#6b7280" transform="rotate(-90 17 102)">Magnitude (dB)</text>
  <line x1="99.4" y1="12" x2="99.4" y2="192" stroke="#e5e7eb" stroke-width="0.5"/>
  <text x="99.4" y="205" text-anchor="middle" font-size="9" fill="#6b7280">31</text>
  <line x1="169.7" y1="12" x2="169.7" y2="192" stroke="#e5e7eb" stroke-width="0.5"/>
  <text x="169.7" y="205" text-anchor="middle" font-size="9" fill="#6b7280">62</text>
  <line x1="240.7" y1="12" x2="240.7" y2="192" stroke="#e5e7eb" stroke-width="0.5"/>
  <text x="240.7" y="205" text-anchor="middle" font-size="9" fill="#6b7280">125</text>
  <line x1="310.9" y1="12" x2="310.9" y2="192" stroke="#e5e7eb" stroke-width="0.5"/>
  <text x="310.9" y="205" text-anchor="middle" font-size="9" fill="#6b7280">250</text>
  <line x1="381.2" y1="12" x2="381.2" y2="192" stroke="#e5e7eb" stroke-width="0.5"/>
  <text x="381.2" y="205" text-anchor="middle" font-size="9" fill="#6b7280">500</text>
  <line x1="451.4" y1="12" x2="451.4" y2="192" stroke="#e5e7eb" stroke-width="0.5"/>
  <text x="451.4" y="205" text-anchor="middle" font-size="9" fill="#6b7280">1k</text>
  <line x1="521.7" y1="12" x2="521.7" y2="192" stroke="#e5e7eb" stroke-width="0.5"/>
  <text x="521.7" y="205" text-anchor="middle" font-size="9" fill="#6b7280">2k</text>
  <line x1="591.9" y1="12" x2="591.9" y2="192" stroke="#e5e7eb" stroke-width="0.5"/>
  <text x="591.9" y="205" text-anchor="middle" font-size="9" fill="#6b7280">4k</text>
  <line x1="662.1" y1="12" x2="662.1" y2="192" stroke="#e5e7eb" stroke-width="0.5"/>
  <text x="662.1" y="205" text-anchor="middle" font-size="9" fill="#6b7280">8k</text>
  <line x1="732.4" y1="12" x2="732.4" y2="192" stroke="#e5e7eb" stroke-width="0.5"/>
  <text x="732.4" y="205" text-anchor="middle" font-size="9" fill="#6b7280">16k</text>
  <line x1="55" y1="22.6" x2="755" y2="22.6" stroke="#e5e7eb" stroke-width="0.5"/>
  <text x="51" y="25.6" text-anchor="end" font-size="9" fill="#6b7280">0</text>
  <line x1="55" y1="64.9" x2="755" y2="64.9" stroke="#e5e7eb" stroke-width="0.5"/>
  <text x="51" y="67.9" text-anchor="end" font-size="9" fill="#6b7280">-20</text>
  <line x1="55" y1="107.3" x2="755" y2="107.3" stroke="#e5e7eb" stroke-width="0.5"/>
  <text x="51" y="110.3" text-anchor="end" font-size="9" fill="#6b7280">-40</text>
  <line x1="55" y1="149.6" x2="755" y2="149.6" stroke="#e5e7eb" stroke-width="0.5"/>
  <text x="51" y="152.6" text-anchor="end" font-size="9" fill="#6b7280">-60</text>
  <line x1="55" y1="192.0" x2="755" y2="192.0" stroke="#e5e7eb" stroke-width="0.5"/>
  <text x="51" y="195.0" text-anchor="end" font-size="9" fill="#6b7280">-80</text>
  <polyline points="132.7,22.6 203.0,22.6 244.1,22.6 273.2,22.6 295.8,22.6 314.3,22.6 329.9,22.6 343.4,22.6 355.4,22.6 366.1,22.6 375.7,22.6 384.5,22.6 392.6,22.6 400.2,22.7 407.1,22.8 413.7,22.9 419.8,23.2 425.6,23.5 431.1,24.0 436.3,24.7 441.2,25.7 446.0,27.0 450.5,28.6 454.8,30.6 458.9,32.8 462.9,35.2 466.7,37.9 470.4,40.6 474.0,43.5 477.4,46.5 480.7,49.5 483.9,52.5 487.0,55.6 490.1,58.7 493.0,61.8 495.9,65.0 498.6,68.2 501.3,71.5 504.0,74.9 506.5,78.4 509.0,82.0 511.5,85.8 513.9,89.9 516.2,94.3 518.5,99.1 520.7,104.6 522.9,111.1 525.0,119.5 527.1,132.1 529.2,165.9 531.2,142.8 533.1,129.2 535.1,122.4 537.0,118.1 538.8,115.2 540.6,113.1 542.4,111.5 544.2,110.2 545.9,109.3 547.6,108.6 549.3,108.1 551.0,107.7 552.6,107.5 554.2,107.4 555.7,107.3 557.3,107.3 558.8,107.4 560.3,107.5 561.8,107.7 563.2,108.0 564.7,108.3 566.1,108.6 567.5,108.9 568.9,109.3 570.2,109.7 571.6,110.2 572.9,110.7 574.2,111.2 575.5,111.7 576.8,112.3 578.0,112.8 579.3,113.4 580.5,114.1 581.7,114.7 582.9,115.4 584.1,116.1 585.3,116.8 586.4,117.6 587.6,118.3 588.7,119.2 589.8,120.0 590.9,120.9 592.0,121.7 593.1,122.7 594.2,123.7 595.3,124.7 596.3,125.7 597.3,126.8 598.4,128.0 599.4,129.2 600.4,130.5 601.4,131.8 602.4,133.3 603.4,134.8 604.3,136.5 605.3,138.2 606.2,140.2 607.2,142.3 608.1,144.7 609.1,147.3 610.0,150.4 610.9,153.9 611.8,158.3 612.7,163.9 613.6,171.9 614.4,185.8 615.3,192.0 616.2,182.4 617.0,170.7 617.9,163.7 618.7,158.7 619.5,154.8 620.4,151.7 621.2,149.1 622.0,146.8 622.8,144.8 623.6,143.1 624.4,141.5 625.2,140.1 626.0,138.8 626.8,137.6 627.5,136.5 628.3,135.5 629.0,134.5 629.8,133.6 630.6,132.8 631.3,132.0 632.0,131.3 632.8,130.6 633.5,129.9 634.2,129.3 634.9,128.7 635.6,128.1 636.3,127.6 637.0,127.1 637.7,126.6 638.4,126.1 639.1,125.6 639.8,125.2 640.5,124.8 641.2,124.4 641.8,124.0 642.5,123.6 643.1,123.3 643.8,122.9 644.5,122.6 645.1,122.3 645.7,122.0 646.4,121.7 647.0,121.4 647.7,121.1 648.3,120.8 648.9,120.5 649.5,120.3 650.1,120.0 650.8,119.8 651.4,119.6 652.0,119.3 652.6,119.1 653.2,118.9 653.8,118.7 654.3,118.5 654.9,118.3 655.5,118.1 656.1,117.9 656.7,117.7 657.3,117.5 657.8,117.3 658.4,117.2 659.0,117.0 659.5,116.8 660.1,116.7 660.6,116.5 661.2,116.4 661.7,116.2 662.3,116.1 662.8,115.9 663.4,115.8 663.9,115.7 664.4,115.5 665.0,115.4 665.5,115.3 666.0,115.1 666.5,115.0 667.1,114.9 667.6,114.8 668.1,114.7 668.6,114.6 669.1,114.4 669.6,114.3 670.1,114.2 670.6,114.1 671.1,114.0 671.6,113.9 672.1,113.8 672.6,113.7 673.1,113.6 673.6,113.5 674.1,113.5 674.6,113.4 675.1,113.3 675.5,113.2 676.0,113.1 676.5,113.0 677.0,112.9 677.4,112.9 677.9,112.8 678.4,112.7 678.8,112.6 679.3,112.6 679.8,112.5 680.2,112.4 680.7,112.3 681.1,112.3 681.6,112.2 682.0,112.1 682.5,112.1 682.9,112.0 683.4,111.9 683.8,111.9 684.2,111.8 684.7,111.7 685.1,111.7 685.5,111.6 686.0,111.6 686.4,111.5 686.8,111.5 687.3,111.4 687.7,111.3 688.1,111.3 688.5,111.2 688.9,111.2 689.4,111.1 689.8,111.1 690.2,111.0 690.6,111.0 691.0,110.9 691.4,110.9 691.8,110.8 692.2,110.8 692.6,110.7 693.1,110.7 693.5,110.7 693.9,110.6 694.3,110.6 694.6,110.5 695.0,110.5 695.4,110.4 695.8,110.4 696.2,110.4 696.6,110.3 697.0,110.3 697.4,110.2 697.8,110.2 698.1,110.2 698.5,110.1 698.9,110.1 699.3,110.1 699.7,110.0 700.0,110.0 700.4,110.0 700.8,109.9 701.2,109.9 701.5,109.9 701.9,109.8 702.3,109.8 702.6,109.8 703.0,109.7 703.4,109.7 703.7,109.7 704.1,109.6 704.5,109.6 704.8,109.6 705.2,109.5 705.5,109.5 705.9,109.5 706.2,109.5 706.6,109.4 706.9,109.4 707.3,109.4 707.6,109.3 708.0,109.3 708.3,109.3 708.7,109.3 709.0,109.2 709.4,109.2 709.7,109.2 710.0,109.2 710.4,109.1 710.7,109.1 711.1,109.1 711.4,109.1 711.7,109.0 712.1,109.0 712.4,109.0 712.7,109.0 713.1,109.0 713.4,108.9 713.7,108.9 714.0,108.9 714.4,108.9 714.7,108.8 715.0,108.8 715.3,108.8 715.7,108.8 716.0,108.8 716.3,108.7 716.6,108.7 716.9,108.7 717.3,108.7 717.6,108.7 717.9,108.6 718.2,108.6 718.5,108.6 718.8,108.6 719.1,108.6 719.5,108.6 719.8,108.5 720.1,108.5 720.4,108.5 720.7,108.5 721.0,108.5 721.3,108.5 721.6,108.4 721.9,108.4 722.2,108.4 722.5,108.4 722.8,108.4 723.1,108.4 723.4,108.3 723.7,108.3 724.0,108.3 724.3,108.3 724.6,108.3 724.9,108.3 725.2,108.3 725.5,108.2 725.8,108.2 726.1,108.2 726.3,108.2 726.6,108.2 726.9,108.2 727.2,108.2 727.5,108.1 727.8,108.1 728.1,108.1 728.3,108.1 728.6,108.1 728.9,108.1 729.2,108.1 729.5,108.1 729.8,108.0 730.0,108.0 730.3,108.0 730.6,108.0 730.9,108.0 731.1,108.0 731.4,108.0 731.7,108.0 732.0,108.0 732.2,107.9 732.5,107.9 732.8,107.9 733.1,107.9 733.3,107.9 733.6,107.9 733.9,107.9 734.1,107.9 734.4,107.9 734.7,107.9 734.9,107.8 735.2,107.8 735.5,107.8 735.7,107.8 736.0,107.8 736.3,107.8 736.5,107.8 736.8,107.8 737.0,107.8 737.3,107.8 737.6,107.8 737.8,107.7 738.1,107.7 738.3,107.7 738.6,107.7 738.9,107.7 739.1,107.7 739.4,107.7 739.6,107.7 739.9,107.7 740.1,107.7 740.4,107.7 740.6,107.7 740.9,107.7 741.1,107.6 741.4,107.6 741.6,107.6 741.9,107.6 742.1,107.6 742.4,107.6 742.6,107.6 742.9,107.6 743.1,107.6 743.4,107.6 743.6,107.6 743.8,107.6 744.1,107.6 744.3,107.6 744.6,107.6 744.8,107.6 745.1,107.5 745.3,107.5 745.5,107.5 745.8,107.5 746.0,107.5 746.3,107.5 746.5,107.5 746.7,107.5 747.0,107.5 747.2,107.5 747.4,107.5 747.7,107.5 747.9,107.5 748.1,107.5 748.4,107.5 748.6,107.5 748.8,107.5 749.1,107.5 749.3,107.5 749.5,107.4 749.8,107.4 750.0,107.4 750.2,107.4 750.4,107.4 750.7,107.4 750.9,107.4 751.1,107.4 751.4,107.4 751.6,107.4 751.8,107.4 752.0,107.4 752.3,107.4 752.5,107.4 752.7,107.4 752.9,107.4 753.2,107.4 753.4,107.4 753.6,107.4 753.8,107.4 754.0,107.4 754.3,107.4 754.5,107.4 754.7,107.4 754.9,107.4" fill="none" stroke="#4a90d9" stroke-width="1.8" stroke-linejoin="round"/>
  <text x="55" y="240" font-size="12" font-weight="600" fill="#6b7280">Chebyshev Type II order 4, 40dB</text>
  <rect x="529" y="19" width="202" height="102" fill="white" fill-opacity="0.85" rx="3"/>
  <text x="532" y="30" font-size="8" fill="#6b7280">Impulse response</text>
  <polyline points="530.0,60.8 531.6,68.2 533.1,63.7 534.7,60.3 536.3,57.6 537.8,55.0 539.4,52.4 540.9,49.7 542.5,46.9 544.1,43.8 545.6,40.6 547.2,37.4 548.8,34.2 550.3,31.1 551.9,28.3 553.4,25.8 555.0,23.6 556.6,21.9 558.1,20.7 559.7,20.1 561.3,20.0 562.8,20.5 564.4,21.5 565.9,23.1 567.5,25.1 569.1,27.6 570.6,30.4 572.2,33.6 573.8,37.0 575.3,40.7 576.9,44.4 578.4,48.2 580.0,52.0 581.6,55.7 583.1,59.3 584.7,62.7 586.3,65.9 587.8,68.9 589.4,71.5 590.9,73.9 592.5,76.0 594.1,77.7 595.6,79.1 597.2,80.1 598.8,80.9 600.3,81.4 601.9,81.6 603.4,81.5 605.0,81.3 606.6,80.8 608.1,80.1 609.7,79.3 611.3,78.4 612.8,77.4 614.4,76.4 615.9,75.3 617.5,74.3 619.1,73.2 620.6,72.2 622.2,71.2 623.8,70.3 625.3,69.5 626.9,68.7 628.4,68.1 630.0,67.6 631.6,67.1 633.1,66.8 634.7,66.5 636.3,66.4 637.8,66.3 639.4,66.3 640.9,66.4 642.5,66.6 644.1,66.8 645.6,67.0 647.2,67.3 648.8,67.6 650.3,68.0 651.9,68.3 653.4,68.6 655.0,69.0 656.6,69.3 658.1,69.6 659.7,69.9 661.3,70.2 662.8,70.4 664.4,70.6 665.9,70.8 667.5,70.9 669.1,71.1 670.6,71.1 672.2,71.2 673.8,71.2 675.3,71.2 676.9,71.2 678.4,71.1 680.0,71.1 681.6,71.0 683.1,70.9 684.7,70.8 686.3,70.7 687.8,70.6 689.4,70.4 690.9,70.3 692.5,70.2 694.1,70.1 695.6,70.0 697.2,69.9 698.8,69.9 700.3,69.8 701.9,69.7 703.4,69.7 705.0,69.7 706.6,69.6 708.1,69.6 709.7,69.6 711.3,69.6 712.8,69.6 714.4,69.6 715.9,69.7 717.5,69.7 719.1,69.7 720.6,69.7 722.2,69.8 723.8,69.8 725.3,69.9 726.9,69.9 728.4,69.9" fill="none" stroke="#4a90d9" stroke-width="1.3" stroke-linejoin="round"/>
</svg>
