<svg xmlns="http://www.w3.org/2000/svg" viewBox="0 0 800 420" style="font-family:system-ui,-apple-system,sans-serif">
  <text x="55" y="416" font-size="11" font-weight="600" fill="#6b7280">Feedback comb, delay=100, gain=0.7</text>
  <line x1="55" y1="12" x2="55" y2="162" stroke="#d1d5db"/>
  <line x1="55" y1="42.0" x2="385" y2="42.0" stroke="#d1d5db"/>
  <text x="220" y="190" text-anchor="middle" font-size="9" fill="#6b7280">Hz</text>
  <text x="29" y="87" text-anchor="middle" font-size="9" fill="#6b7280" transform="rotate(-90 29 87)">dB</text>
  <line x1="85.1" y1="12" x2="85.1" y2="162" stroke="#e5e7eb" stroke-width="0.5"/>
  <line x1="102.7" y1="12" x2="102.7" y2="162" stroke="#e5e7eb" stroke-width="0.5"/>
  <line x1="115.2" y1="12" x2="115.2" y2="162" stroke="#e5e7eb" stroke-width="0.5"/>
  <line x1="124.9" y1="12" x2="124.9" y2="162" stroke="#e5e7eb" stroke-width="0.5"/>
  <line x1="132.8" y1="12" x2="132.8" y2="162" stroke="#e5e7eb" stroke-width="0.5"/>
  <line x1="139.5" y1="12" x2="139.5" y2="162" stroke="#e5e7eb" stroke-width="0.5"/>
  <line x1="145.3" y1="12" x2="145.3" y2="162" stroke="#e5e7eb" stroke-width="0.5"/>
  <line x1="150.4" y1="12" x2="150.4" y2="162" stroke="#e5e7eb" stroke-width="0.5"/>
  <line x1="185.1" y1="12" x2="185.1" y2="162" stroke="#e5e7eb" stroke-width="0.5"/>
  <line x1="202.7" y1="12" x2="202.7" y2="162" stroke="#e5e7eb" stroke-width="0.5"/>
  <line x1="215.2" y1="12" x2="215.2" y2="162" stroke="#e5e7eb" stroke-width="0.5"/>
  <line x1="224.8" y1="12" x2="224.8" y2="162" stroke="#e5e7eb" stroke-width="0.5"/>
  <line x1="232.8" y1="12" x2="232.8" y2="162" stroke="#e5e7eb" stroke-width="0.5"/>
  <line x1="239.5" y1="12" x2="239.5" y2="162" stroke="#e5e7eb" stroke-width="0.5"/>
  <line x1="245.2" y1="12" x2="245.2" y2="162" stroke="#e5e7eb" stroke-width="0.5"/>
  <line x1="250.4" y1="12" x2="250.4" y2="162" stroke="#e5e7eb" stroke-width="0.5"/>
  <line x1="285.0" y1="12" x2="285.0" y2="162" stroke="#e5e7eb" stroke-width="0.5"/>
  <line x1="302.6" y1="12" x2="302.6" y2="162" stroke="#e5e7eb" stroke-width="0.5"/>
  <line x1="315.1" y1="12" x2="315.1" y2="162" stroke="#e5e7eb" stroke-width="0.5"/>
  <line x1="324.8" y1="12" x2="324.8" y2="162" stroke="#e5e7eb" stroke-width="0.5"/>
  <line x1="332.7" y1="12" x2="332.7" y2="162" stroke="#e5e7eb" stroke-width="0.5"/>
  <line x1="339.4" y1="12" x2="339.4" y2="162" stroke="#e5e7eb" stroke-width="0.5"/>
  <line x1="345.2" y1="12" x2="345.2" y2="162" stroke="#e5e7eb" stroke-width="0.5"/>
  <line x1="350.3" y1="12" x2="350.3" y2="162" stroke="#e5e7eb" stroke-width="0.5"/>
  <line x1="385.0" y1="12" x2="385.0" y2="162" stroke="#e5e7eb" stroke-width="0.5"/>
  <line x1="155.0" y1="12" x2="155.0" y2="162" stroke="#e5e7eb" stroke-width="0.5"/>
  <text x="155.0" y="174" text-anchor="middle" font-size="8" fill="#6b7280">100</text>
  <line x1="254.9" y1="12" x2="254.9" y2="162" stroke="#e5e7eb" stroke-width="0.5"/>
  <text x="254.9" y="174" text-anchor="middle" font-size="8" fill="#6b7280">1k</text>
  <line x1="354.9" y1="12" x2="354.9" y2="162" stroke="#e5e7eb" stroke-width="0.5"/>
  <text x="354.9" y="174" text-anchor="middle" font-size="8" fill="#6b7280">10k</text>
  <line x1="55" y1="27.0" x2="385" y2="27.0" stroke="#e5e7eb" stroke-width="0.5"/>
  <line x1="55" y1="57.0" x2="385" y2="57.0" stroke="#e5e7eb" stroke-width="0.5"/>
  <line x1="55" y1="12.0" x2="385" y2="12.0" stroke="#e5e7eb" stroke-width="0.5"/>
  <text x="51" y="15.0" text-anchor="end" font-size="8" fill="#6b7280">+20</text>
  <text x="51" y="45.0" text-anchor="end" font-size="8" fill="#6b7280">0</text>
  <line x1="55" y1="72.0" x2="385" y2="72.0" stroke="#e5e7eb" stroke-width="0.5"/>
  <text x="51" y="75.0" text-anchor="end" font-size="8" fill="#6b7280">-20</text>
  <line x1="55" y1="102.0" x2="385" y2="102.0" stroke="#e5e7eb" stroke-width="0.5"/>
  <text x="51" y="105.0" text-anchor="end" font-size="8" fill="#6b7280">-40</text>
  <line x1="55" y1="132.0" x2="385" y2="132.0" stroke="#e5e7eb" stroke-width="0.5"/>
  <text x="51" y="135.0" text-anchor="end" font-size="8" fill="#6b7280">-60</text>
  <line x1="55" y1="162.0" x2="385" y2="162.0" stroke="#e5e7eb" stroke-width="0.5"/>
  <text x="51" y="165.0" text-anchor="end" font-size="8" fill="#6b7280">-80</text>
  <defs><linearGradient id="g608" x1="0" y1="12" x2="0" y2="162" gradientUnits="userSpaceOnUse">
    <stop offset="0%" stop-color="#4a90d9" stop-opacity="0.15"/>
    <stop offset="100%" stop-color="#4a90d9" stop-opacity="0.02"/>
  </linearGradient></defs>
  <path d="M58.2,28.3 58.2,28.3 88.3,29.4 105.9,31.2 118.4,33.8 128.1,37.0 136.0,40.2 142.7,42.3 148.5,42.8 153.6,42.6 158.2,42.9 162.3,44.1 166.1,46.0 169.6,48.0 172.8,48.8 175.8,48.2 178.6,47.3 181.2,47.0 183.7,47.7 186.0,49.1 188.3,50.3 190.4,50.3 192.4,49.0 194.3,47.6 196.2,47.0 198.0,47.3 199.7,48.2 201.3,48.8 202.9,48.0 204.4,46.0 205.9,44.1 207.3,42.9 208.7,42.6 210.0,42.8 211.3,42.3 212.6,40.1 213.8,36.9 215.0,33.7 216.1,31.1 217.3,29.3 218.4,28.3 219.4,27.9 220.5,28.3 221.5,29.4 222.5,31.3 223.5,33.9 224.4,37.1 225.4,40.3 226.3,42.4 227.2,42.8 228.1,42.6 228.9,43.0 229.8,44.2 230.6,46.1 231.4,48.1 233.0,48.1 234.5,47.0 236.0,49.1 237.4,50.3 238.8,47.6 240.1,47.3 241.4,48.8 242.7,45.9 243.9,42.9 245.1,42.8 246.2,40.0 247.4,33.6 248.5,29.3 249.5,27.9 250.6,29.5 251.6,34.0 252.6,40.5 253.6,42.8 254.5,43.0 255.5,46.2 256.4,48.8 257.3,47.2 258.1,47.8 259.0,50.4 259.8,48.9 260.7,47.0 261.5,48.3 262.7,45.8 263.8,42.6 265.0,39.9 266.1,31.0 267.1,27.9 268.2,31.5 269.2,40.6 270.2,42.6 271.2,46.3 272.1,48.1 273.1,47.8 274.0,50.2 274.9,47.0 275.7,48.8 276.6,43.9 277.5,42.8 278.3,36.5 279.1,29.2 280.1,29.6 281.2,40.7 282.2,43.1 283.2,48.8 284.1,47.9 285.1,48.8 286.0,48.4 286.9,43.8 287.8,42.1 288.7,30.8 289.5,28.5 290.4,37.7 291.2,42.6 292.0,48.3 293.0,47.9 293.9,47.4 294.9,47.6 295.8,42.8 296.7,30.7 297.6,29.8 298.4,42.6 299.3,46.6 300.1,47.1 300.9,48.6 301.7,48.8 302.7,42.8 303.6,29.0 304.5,34.6 305.4,43.2 306.3,47.1 307.1,48.6 308.0,47.5 308.8,41.8 309.6,28.1 310.5,41.1 311.4,48.5 312.3,50.5 313.2,48.7 314.0,41.8 314.8,28.0 315.6,42.7 316.4,48.7 317.3,48.5 318.2,43.5 319.1,30.4 319.9,38.3 320.8,48.5 321.6,49.9 322.5,43.5 323.3,28.8 324.2,42.7 325.1,47.1 325.9,47.7 326.7,41.5 327.6,32.4 328.5,48.6 329.3,47.2 330.1,42.7 331.0,30.2 331.8,47.1 332.6,47.2 333.5,41.4 334.3,35.5 335.1,47.6 335.9,48.7 336.8,30.0 337.6,42.7 338.5,49.6 339.3,42.7 340.1,39.1 341.0,48.5 341.8,42.7 342.6,32.9 343.5,47.4 344.3,42.6 345.2,36.1 346.0,48.6 346.8,42.6 347.7,42.8 348.5,47.9 349.3,31.7 350.1,47.7 351.0,46.4 351.8,33.3 352.6,50.4 353.4,31.5 354.3,48.8 355.1,42.6 355.9,42.6 356.7,48.8 357.6,36.9 358.4,47.0 359.2,29.4 360.1,49.0 360.9,28.3 361.7,50.3 362.5,28.4 363.3,48.9 364.1,29.6 365.0,47.0 365.8,37.5 366.6,47.7 367.4,43.1 368.3,42.0 369.1,47.1 369.9,28.0 370.7,47.5 371.5,42.7 372.3,39.1 373.1,50.5 373.9,41.3 374.8,42.7 375.6,50.5 376.4,42.7 377.2,35.3 378.0,47.1 378.8,48.7 379.6,30.4 380.4,42.7 381.3,47.1 382.1,47.5 382.9,42.8 383.7,28.0 384.5,42.5 L384.5,162.0 L58.2,162.0 Z" fill="url(#g608)"/>
  <defs><clipPath id="pc609"><rect x="55" y="12" width="330" height="150"/></clipPath></defs>
  <polyline points="58.2,28.3 88.3,29.4 105.9,31.2 118.4,33.8 128.1,37.0 136.0,40.2 142.7,42.3 148.5,42.8 153.6,42.6 158.2,42.9 162.3,44.1 166.1,46.0 169.6,48.0 172.8,48.8 175.8,48.2 178.6,47.3 181.2,47.0 183.7,47.7 186.0,49.1 188.3,50.3 190.4,50.3 192.4,49.0 194.3,47.6 196.2,47.0 198.0,47.3 199.7,48.2 201.3,48.8 202.9,48.0 204.4,46.0 205.9,44.1 207.3,42.9 208.7,42.6 210.0,42.8 211.3,42.3 212.6,40.1 213.8,36.9 215.0,33.7 216.1,31.1 217.3,29.3 218.4,28.3 219.4,27.9 220.5,28.3 221.5,29.4 222.5,31.3 223.5,33.9 224.4,37.1 225.4,40.3 226.3,42.4 227.2,42.8 228.1,42.6 228.9,43.0 229.8,44.2 230.6,46.1 231.4,48.1 233.0,48.1 234.5,47.0 236.0,49.1 237.4,50.3 238.8,47.6 240.1,47.3 241.4,48.8 242.7,45.9 243.9,42.9 245.1,42.8 246.2,40.0 247.4,33.6 248.5,29.3 249.5,27.9 250.6,29.5 251.6,34.0 252.6,40.5 253.6,42.8 254.5,43.0 255.5,46.2 256.4,48.8 257.3,47.2 258.1,47.8 259.0,50.4 259.8,48.9 260.7,47.0 261.5,48.3 262.7,45.8 263.8,42.6 265.0,39.9 266.1,31.0 267.1,27.9 268.2,31.5 269.2,40.6 270.2,42.6 271.2,46.3 272.1,48.1 273.1,47.8 274.0,50.2 274.9,47.0 275.7,48.8 276.6,43.9 277.5,42.8 278.3,36.5 279.1,29.2 280.1,29.6 281.2,40.7 282.2,43.1 283.2,48.8 284.1,47.9 285.1,48.8 286.0,48.4 286.9,43.8 287.8,42.1 288.7,30.8 289.5,28.5 290.4,37.7 291.2,42.6 292.0,48.3 293.0,47.9 293.9,47.4 294.9,47.6 295.8,42.8 296.7,30.7 297.6,29.8 298.4,42.6 299.3,46.6 300.1,47.1 300.9,48.6 301.7,48.8 302.7,42.8 303.6,29.0 304.5,34.6 305.4,43.2 306.3,47.1 307.1,48.6 308.0,47.5 308.8,41.8 309.6,28.1 310.5,41.1 311.4,48.5 312.3,50.5 313.2,48.7 314.0,41.8 314.8,28.0 315.6,42.7 316.4,48.7 317.3,48.5 318.2,43.5 319.1,30.4 319.9,38.3 320.8,48.5 321.6,49.9 322.5,43.5 323.3,28.8 324.2,42.7 325.1,47.1 325.9,47.7 326.7,41.5 327.6,32.4 328.5,48.6 329.3,47.2 330.1,42.7 331.0,30.2 331.8,47.1 332.6,47.2 333.5,41.4 334.3,35.5 335.1,47.6 335.9,48.7 336.8,30.0 337.6,42.7 338.5,49.6 339.3,42.7 340.1,39.1 341.0,48.5 341.8,42.7 342.6,32.9 343.5,47.4 344.3,42.6 345.2,36.1 346.0,48.6 346.8,42.6 347.7,42.8 348.5,47.9 349.3,31.7 350.1,47.7 351.0,46.4 351.8,33.3 352.6,50.4 353.4,31.5 354.3,48.8 355.1,42.6 355.9,42.6 356.7,48.8 357.6,36.9 358.4,47.0 359.2,29.4 360.1,49.0 360.9,28.3 361.7,50.3 362.5,28.4 363.3,48.9 364.1,29.6 365.0,47.0 365.8,37.5 366.6,47.7 367.4,43.1 368.3,42.0 369.1,47.1 369.9,28.0 370.7,47.5 371.5,42.7 372.3,39.1 373.1,50.5 373.9,41.3 374.8,42.7 375.6,50.5 376.4,42.7 377.2,35.3 378.0,47.1 378.8,48.7 379.6,30.4 380.4,42.7 381.3,47.1 382.1,47.5 382.9,42.8 383.7,28.0 384.5,42.5" fill="none" stroke="#4a90d9" stroke-width="1.5" stroke-linejoin="round" clip-path="url(#pc609)"/>
  <line x1="445" y1="12" x2="445" y2="162" stroke="#d1d5db"/>
  <line x1="445" y1="87.0" x2="775" y2="87.0" stroke="#d1d5db"/>
  <text x="610" y="190" text-anchor="middle" font-size="9" fill="#6b7280">Hz</text>
  <text x="419" y="87" text-anchor="middle" font-size="9" fill="#6b7280" transform="rotate(-90 419 87)">Phase (deg)</text>
  <line x1="475.1" y1="12" x2="475.1" y2="162" stroke="#e5e7eb" stroke-width="0.5"/>
  <line x1="492.7" y1="12" x2="492.7" y2="162" stroke="#e5e7eb" stroke-width="0.5"/>
  <line x1="505.2" y1="12" x2="505.2" y2="162" stroke="#e5e7eb" stroke-width="0.5"/>
  <line x1="514.9" y1="12" x2="514.9" y2="162" stroke="#e5e7eb" stroke-width="0.5"/>
  <line x1="522.8" y1="12" x2="522.8" y2="162" stroke="#e5e7eb" stroke-width="0.5"/>
  <line x1="529.5" y1="12" x2="529.5" y2="162" stroke="#e5e7eb" stroke-width="0.5"/>
  <line x1="535.3" y1="12" x2="535.3" y2="162" stroke="#e5e7eb" stroke-width="0.5"/>
  <line x1="540.4" y1="12" x2="540.4" y2="162" stroke="#e5e7eb" stroke-width="0.5"/>
  <line x1="575.1" y1="12" x2="575.1" y2="162" stroke="#e5e7eb" stroke-width="0.5"/>
  <line x1="592.7" y1="12" x2="592.7" y2="162" stroke="#e5e7eb" stroke-width="0.5"/>
  <line x1="605.2" y1="12" x2="605.2" y2="162" stroke="#e5e7eb" stroke-width="0.5"/>
  <line x1="614.8" y1="12" x2="614.8" y2="162" stroke="#e5e7eb" stroke-width="0.5"/>
  <line x1="622.8" y1="12" x2="622.8" y2="162" stroke="#e5e7eb" stroke-width="0.5"/>
  <line x1="629.5" y1="12" x2="629.5" y2="162" stroke="#e5e7eb" stroke-width="0.5"/>
  <line x1="635.2" y1="12" x2="635.2" y2="162" stroke="#e5e7eb" stroke-width="0.5"/>
  <line x1="640.4" y1="12" x2="640.4" y2="162" stroke="#e5e7eb" stroke-width="0.5"/>
  <line x1="675.0" y1="12" x2="675.0" y2="162" stroke="#e5e7eb" stroke-width="0.5"/>
  <line x1="692.6" y1="12" x2="692.6" y2="162" stroke="#e5e7eb" stroke-width="0.5"/>
  <line x1="705.1" y1="12" x2="705.1" y2="162" stroke="#e5e7eb" stroke-width="0.5"/>
  <line x1="714.8" y1="12" x2="714.8" y2="162" stroke="#e5e7eb" stroke-width="0.5"/>
  <line x1="722.7" y1="12" x2="722.7" y2="162" stroke="#e5e7eb" stroke-width="0.5"/>
  <line x1="729.4" y1="12" x2="729.4" y2="162" stroke="#e5e7eb" stroke-width="0.5"/>
  <line x1="735.2" y1="12" x2="735.2" y2="162" stroke="#e5e7eb" stroke-width="0.5"/>
  <line x1="740.3" y1="12" x2="740.3" y2="162" stroke="#e5e7eb" stroke-width="0.5"/>
  <line x1="775.0" y1="12" x2="775.0" y2="162" stroke="#e5e7eb" stroke-width="0.5"/>
  <line x1="545.0" y1="12" x2="545.0" y2="162" stroke="#e5e7eb" stroke-width="0.5"/>
  <text x="545.0" y="174" text-anchor="middle" font-size="8" fill="#6b7280">100</text>
  <line x1="644.9" y1="12" x2="644.9" y2="162" stroke="#e5e7eb" stroke-width="0.5"/>
  <text x="644.9" y="174" text-anchor="middle" font-size="8" fill="#6b7280">1k</text>
  <line x1="744.9" y1="12" x2="744.9" y2="162" stroke="#e5e7eb" stroke-width="0.5"/>
  <text x="744.9" y="174" text-anchor="middle" font-size="8" fill="#6b7280">10k</text>
  <line x1="445" y1="53.3" x2="775" y2="53.3" stroke="#e5e7eb" stroke-width="0.5"/>
  <line x1="445" y1="120.8" x2="775" y2="120.8" stroke="#e5e7eb" stroke-width="0.5"/>
  <line x1="445" y1="19.5" x2="775" y2="19.5" stroke="#e5e7eb" stroke-width="0.5"/>
  <text x="441" y="22.5" text-anchor="end" font-size="8" fill="#6b7280">180</text>
  <text x="441" y="90.0" text-anchor="end" font-size="8" fill="#6b7280">0</text>
  <line x1="445" y1="154.5" x2="775" y2="154.5" stroke="#e5e7eb" stroke-width="0.5"/>
  <text x="441" y="157.5" text-anchor="end" font-size="8" fill="#6b7280">-180</text>
  <defs><linearGradient id="g610" x1="0" y1="12" x2="0" y2="87.0" gradientUnits="userSpaceOnUse">
    <stop offset="0%" stop-color="#e74c3c" stop-opacity="0.15"/>
    <stop offset="100%" stop-color="#e74c3c" stop-opacity="0.02"/>
  </linearGradient></defs>
  <defs><linearGradient id="g611" x1="0" y1="162" x2="0" y2="87.0" gradientUnits="userSpaceOnUse">
    <stop offset="0%" stop-color="#e74c3c" stop-opacity="0.15"/>
    <stop offset="100%" stop-color="#e74c3c" stop-opacity="0.02"/>
  </linearGradient></defs>
  <defs><clipPath id="c612"><rect x="445" y="12" width="330" height="75.0"/></clipPath></defs>
  <defs><clipPath id="c613"><rect x="445" y="87.0" width="330" height="75.0"/></clipPath></defs>
  <path d="M448.2,92.0 448.2,92.0 478.3,96.8 495.9,101.1 508.4,104.4 518.1,106.1 526.0,105.4 532.7,102.6 538.5,99.9 543.6,99.2 548.2,99.9 552.3,100.8 556.1,100.6 559.6,98.5 562.8,94.7 565.8,91.9 568.6,91.1 571.2,91.6 573.7,92.1 576.0,91.5 578.3,88.9 580.4,85.0 582.4,82.4 584.3,81.9 586.2,82.5 588.0,82.9 589.7,82.1 591.3,79.1 592.9,75.4 594.4,73.3 595.9,73.3 597.3,74.2 598.7,74.8 600.0,74.0 601.3,71.3 602.6,68.5 603.8,67.9 605.0,69.7 606.1,73.1 607.3,77.4 608.4,82.2 609.4,87.2 610.5,92.2 611.5,97.0 612.5,101.2 613.5,104.5 614.4,106.1 615.4,105.3 616.3,102.4 617.2,99.9 618.1,99.2 618.9,99.9 619.8,100.8 620.6,100.6 621.4,98.3 623.0,91.8 624.5,91.6 626.0,91.5 627.4,84.9 628.8,81.9 630.1,82.9 631.4,79.0 632.7,73.3 633.9,74.2 635.1,73.9 636.2,68.4 637.4,69.8 638.5,77.6 639.5,87.4 640.6,97.2 641.6,104.6 642.6,105.2 643.6,99.8 644.5,100.0 645.5,100.5 646.4,94.4 647.3,91.1 648.1,92.1 649.0,88.6 649.8,82.3 650.7,82.5 651.5,81.9 652.7,73.3 653.8,74.8 655.0,68.4 656.1,73.4 657.1,87.6 658.2,101.5 659.2,105.2 660.2,99.2 661.2,100.5 662.1,91.7 663.1,92.1 664.0,84.6 664.9,82.6 665.7,78.7 666.6,73.3 667.5,73.8 668.3,68.0 669.1,77.9 670.1,97.5 671.2,105.1 672.2,100.0 673.2,94.2 674.1,92.1 675.1,82.2 676.0,81.7 676.9,73.4 677.8,70.8 678.7,73.7 679.5,93.0 680.4,106.2 681.2,99.3 682.0,97.8 683.0,92.1 683.9,81.9 684.9,74.8 685.8,73.6 686.7,73.9 687.6,97.9 688.4,101.8 689.3,100.3 690.1,91.7 690.9,82.1 691.7,78.2 692.7,73.5 693.6,78.5 694.5,105.1 695.4,100.2 696.3,91.1 697.1,82.1 698.0,74.6 698.8,70.4 699.6,83.6 700.5,104.7 701.4,97.3 702.3,87.6 703.2,77.9 704.0,70.3 704.8,88.8 705.6,101.5 706.4,93.5 707.3,82.0 708.2,73.5 709.1,74.5 709.9,106.2 710.8,97.0 711.6,83.7 712.5,73.6 713.3,79.3 714.2,101.2 715.1,91.2 715.9,82.8 716.7,69.9 717.6,102.8 718.5,96.7 719.3,82.1 720.1,72.9 721.0,99.1 721.8,99.8 722.6,82.1 723.5,69.7 724.3,105.6 725.1,91.2 725.9,80.6 726.8,75.4 727.6,99.5 728.5,83.2 729.3,72.5 730.1,106.0 731.0,92.0 731.8,74.7 732.6,103.5 733.5,92.0 734.3,74.7 735.2,105.9 736.0,91.9 736.8,72.2 737.7,100.4 738.5,81.9 739.3,72.2 740.1,99.1 741.0,73.6 741.8,104.0 742.6,85.6 743.4,72.5 744.3,95.2 745.1,74.8 745.9,99.2 746.7,79.4 747.6,106.1 748.4,82.4 749.2,96.8 750.1,82.4 750.9,92.2 751.7,84.9 752.5,92.4 753.3,82.3 754.1,97.4 755.0,82.6 755.8,106.2 756.6,74.9 757.4,100.1 758.3,70.7 759.1,91.7 759.9,88.4 760.7,82.9 761.5,99.3 762.3,68.0 763.1,87.5 763.9,104.4 764.8,73.1 765.6,87.2 766.4,101.1 767.2,68.5 768.0,82.8 768.8,96.4 769.6,99.5 770.4,72.5 771.3,82.9 772.1,91.1 772.9,100.5 773.7,85.8 774.5,72.1 L774.5,87.0 L448.2,87.0 Z" fill="url(#g610)" clip-path="url(#c612)"/>
  <path d="M448.2,92.0 448.2,92.0 478.3,96.8 495.9,101.1 508.4,104.4 518.1,106.1 526.0,105.4 532.7,102.6 538.5,99.9 543.6,99.2 548.2,99.9 552.3,100.8 556.1,100.6 559.6,98.5 562.8,94.7 565.8,91.9 568.6,91.1 571.2,91.6 573.7,92.1 576.0,91.5 578.3,88.9 580.4,85.0 582.4,82.4 584.3,81.9 586.2,82.5 588.0,82.9 589.7,82.1 591.3,79.1 592.9,75.4 594.4,73.3 595.9,73.3 597.3,74.2 598.7,74.8 600.0,74.0 601.3,71.3 602.6,68.5 603.8,67.9 605.0,69.7 606.1,73.1 607.3,77.4 608.4,82.2 609.4,87.2 610.5,92.2 611.5,97.0 612.5,101.2 613.5,104.5 614.4,106.1 615.4,105.3 616.3,102.4 617.2,99.9 618.1,99.2 618.9,99.9 619.8,100.8 620.6,100.6 621.4,98.3 623.0,91.8 624.5,91.6 626.0,91.5 627.4,84.9 628.8,81.9 630.1,82.9 631.4,79.0 632.7,73.3 633.9,74.2 635.1,73.9 636.2,68.4 637.4,69.8 638.5,77.6 639.5,87.4 640.6,97.2 641.6,104.6 642.6,105.2 643.6,99.8 644.5,100.0 645.5,100.5 646.4,94.4 647.3,91.1 648.1,92.1 649.0,88.6 649.8,82.3 650.7,82.5 651.5,81.9 652.7,73.3 653.8,74.8 655.0,68.4 656.1,73.4 657.1,87.6 658.2,101.5 659.2,105.2 660.2,99.2 661.2,100.5 662.1,91.7 663.1,92.1 664.0,84.6 664.9,82.6 665.7,78.7 666.6,73.3 667.5,73.8 668.3,68.0 669.1,77.9 670.1,97.5 671.2,105.1 672.2,100.0 673.2,94.2 674.1,92.1 675.1,82.2 676.0,81.7 676.9,73.4 677.8,70.8 678.7,73.7 679.5,93.0 680.4,106.2 681.2,99.3 682.0,97.8 683.0,92.1 683.9,81.9 684.9,74.8 685.8,73.6 686.7,73.9 687.6,97.9 688.4,101.8 689.3,100.3 690.1,91.7 690.9,82.1 691.7,78.2 692.7,73.5 693.6,78.5 694.5,105.1 695.4,100.2 696.3,91.1 697.1,82.1 698.0,74.6 698.8,70.4 699.6,83.6 700.5,104.7 701.4,97.3 702.3,87.6 703.2,77.9 704.0,70.3 704.8,88.8 705.6,101.5 706.4,93.5 707.3,82.0 708.2,73.5 709.1,74.5 709.9,106.2 710.8,97.0 711.6,83.7 712.5,73.6 713.3,79.3 714.2,101.2 715.1,91.2 715.9,82.8 716.7,69.9 717.6,102.8 718.5,96.7 719.3,82.1 720.1,72.9 721.0,99.1 721.8,99.8 722.6,82.1 723.5,69.7 724.3,105.6 725.1,91.2 725.9,80.6 726.8,75.4 727.6,99.5 728.5,83.2 729.3,72.5 730.1,106.0 731.0,92.0 731.8,74.7 732.6,103.5 733.5,92.0 734.3,74.7 735.2,105.9 736.0,91.9 736.8,72.2 737.7,100.4 738.5,81.9 739.3,72.2 740.1,99.1 741.0,73.6 741.8,104.0 742.6,85.6 743.4,72.5 744.3,95.2 745.1,74.8 745.9,99.2 746.7,79.4 747.6,106.1 748.4,82.4 749.2,96.8 750.1,82.4 750.9,92.2 751.7,84.9 752.5,92.4 753.3,82.3 754.1,97.4 755.0,82.6 755.8,106.2 756.6,74.9 757.4,100.1 758.3,70.7 759.1,91.7 759.9,88.4 760.7,82.9 761.5,99.3 762.3,68.0 763.1,87.5 763.9,104.4 764.8,73.1 765.6,87.2 766.4,101.1 767.2,68.5 768.0,82.8 768.8,96.4 769.6,99.5 770.4,72.5 771.3,82.9 772.1,91.1 772.9,100.5 773.7,85.8 774.5,72.1 L774.5,87.0 L448.2,87.0 Z" fill="url(#g611)" clip-path="url(#c613)"/>
  <defs><clipPath id="pc614"><rect x="445" y="12" width="330" height="150"/></clipPath></defs>
  <polyline points="448.2,92.0 478.3,96.8 495.9,101.1 508.4,104.4 518.1,106.1 526.0,105.4 532.7,102.6 538.5,99.9 543.6,99.2 548.2,99.9 552.3,100.8 556.1,100.6 559.6,98.5 562.8,94.7 565.8,91.9 568.6,91.1 571.2,91.6 573.7,92.1 576.0,91.5 578.3,88.9 580.4,85.0 582.4,82.4 584.3,81.9 586.2,82.5 588.0,82.9 589.7,82.1 591.3,79.1 592.9,75.4 594.4,73.3 595.9,73.3 597.3,74.2 598.7,74.8 600.0,74.0 601.3,71.3 602.6,68.5 603.8,67.9 605.0,69.7 606.1,73.1 607.3,77.4 608.4,82.2 609.4,87.2 610.5,92.2 611.5,97.0 612.5,101.2 613.5,104.5 614.4,106.1 615.4,105.3 616.3,102.4 617.2,99.9 618.1,99.2 618.9,99.9 619.8,100.8 620.6,100.6 621.4,98.3 623.0,91.8 624.5,91.6 626.0,91.5 627.4,84.9 628.8,81.9 630.1,82.9 631.4,79.0 632.7,73.3 633.9,74.2 635.1,73.9 636.2,68.4 637.4,69.8 638.5,77.6 639.5,87.4 640.6,97.2 641.6,104.6 642.6,105.2 643.6,99.8 644.5,100.0 645.5,100.5 646.4,94.4 647.3,91.1 648.1,92.1 649.0,88.6 649.8,82.3 650.7,82.5 651.5,81.9 652.7,73.3 653.8,74.8 655.0,68.4 656.1,73.4 657.1,87.6 658.2,101.5 659.2,105.2 660.2,99.2 661.2,100.5 662.1,91.7 663.1,92.1 664.0,84.6 664.9,82.6 665.7,78.7 666.6,73.3 667.5,73.8 668.3,68.0 669.1,77.9 670.1,97.5 671.2,105.1 672.2,100.0 673.2,94.2 674.1,92.1 675.1,82.2 676.0,81.7 676.9,73.4 677.8,70.8 678.7,73.7 679.5,93.0 680.4,106.2 681.2,99.3 682.0,97.8 683.0,92.1 683.9,81.9 684.9,74.8 685.8,73.6 686.7,73.9 687.6,97.9 688.4,101.8 689.3,100.3 690.1,91.7 690.9,82.1 691.7,78.2 692.7,73.5 693.6,78.5 694.5,105.1 695.4,100.2 696.3,91.1 697.1,82.1 698.0,74.6 698.8,70.4 699.6,83.6 700.5,104.7 701.4,97.3 702.3,87.6 703.2,77.9 704.0,70.3 704.8,88.8 705.6,101.5 706.4,93.5 707.3,82.0 708.2,73.5 709.1,74.5 709.9,106.2 710.8,97.0 711.6,83.7 712.5,73.6 713.3,79.3 714.2,101.2 715.1,91.2 715.9,82.8 716.7,69.9 717.6,102.8 718.5,96.7 719.3,82.1 720.1,72.9 721.0,99.1 721.8,99.8 722.6,82.1 723.5,69.7 724.3,105.6 725.1,91.2 725.9,80.6 726.8,75.4 727.6,99.5 728.5,83.2 729.3,72.5 730.1,106.0 731.0,92.0 731.8,74.7 732.6,103.5 733.5,92.0 734.3,74.7 735.2,105.9 736.0,91.9 736.8,72.2 737.7,100.4 738.5,81.9 739.3,72.2 740.1,99.1 741.0,73.6 741.8,104.0 742.6,85.6 743.4,72.5 744.3,95.2 745.1,74.8 745.9,99.2 746.7,79.4 747.6,106.1 748.4,82.4 749.2,96.8 750.1,82.4 750.9,92.2 751.7,84.9 752.5,92.4 753.3,82.3 754.1,97.4 755.0,82.6 755.8,106.2 756.6,74.9 757.4,100.1 758.3,70.7 759.1,91.7 759.9,88.4 760.7,82.9 761.5,99.3 762.3,68.0 763.1,87.5 763.9,104.4 764.8,73.1 765.6,87.2 766.4,101.1 767.2,68.5 768.0,82.8 768.8,96.4 769.6,99.5 770.4,72.5 771.3,82.9 772.1,91.1 772.9,100.5 773.7,85.8 774.5,72.1" fill="none" stroke="#e74c3c" stroke-width="1.5" stroke-linejoin="round" clip-path="url(#pc614)"/>
  <line x1="55" y1="210" x2="55" y2="360" stroke="#d1d5db"/>
  <line x1="55" y1="285.0" x2="385" y2="285.0" stroke="#d1d5db"/>
  <text x="220" y="388" text-anchor="middle" font-size="9" fill="#6b7280">Hz</text>
  <text x="29" y="285" text-anchor="middle" font-size="9" fill="#6b7280" transform="rotate(-90 29 285)">Group delay</text>
  <line x1="85.1" y1="210" x2="85.1" y2="360" stroke="#e5e7eb" stroke-width="0.5"/>
  <line x1="102.7" y1="210" x2="102.7" y2="360" stroke="#e5e7eb" stroke-width="0.5"/>
  <line x1="115.2" y1="210" x2="115.2" y2="360" stroke="#e5e7eb" stroke-width="0.5"/>
  <line x1="124.9" y1="210" x2="124.9" y2="360" stroke="#e5e7eb" stroke-width="0.5"/>
  <line x1="132.8" y1="210" x2="132.8" y2="360" stroke="#e5e7eb" stroke-width="0.5"/>
  <line x1="139.5" y1="210" x2="139.5" y2="360" stroke="#e5e7eb" stroke-width="0.5"/>
  <line x1="145.3" y1="210" x2="145.3" y2="360" stroke="#e5e7eb" stroke-width="0.5"/>
  <line x1="150.4" y1="210" x2="150.4" y2="360" stroke="#e5e7eb" stroke-width="0.5"/>
  <line x1="185.1" y1="210" x2="185.1" y2="360" stroke="#e5e7eb" stroke-width="0.5"/>
  <line x1="202.7" y1="210" x2="202.7" y2="360" stroke="#e5e7eb" stroke-width="0.5"/>
  <line x1="215.2" y1="210" x2="215.2" y2="360" stroke="#e5e7eb" stroke-width="0.5"/>
  <line x1="224.8" y1="210" x2="224.8" y2="360" stroke="#e5e7eb" stroke-width="0.5"/>
  <line x1="232.8" y1="210" x2="232.8" y2="360" stroke="#e5e7eb" stroke-width="0.5"/>
  <line x1="239.5" y1="210" x2="239.5" y2="360" stroke="#e5e7eb" stroke-width="0.5"/>
  <line x1="245.2" y1="210" x2="245.2" y2="360" stroke="#e5e7eb" stroke-width="0.5"/>
  <line x1="250.4" y1="210" x2="250.4" y2="360" stroke="#e5e7eb" stroke-width="0.5"/>
  <line x1="285.0" y1="210" x2="285.0" y2="360" stroke="#e5e7eb" stroke-width="0.5"/>
  <line x1="302.6" y1="210" x2="302.6" y2="360" stroke="#e5e7eb" stroke-width="0.5"/>
  <line x1="315.1" y1="210" x2="315.1" y2="360" stroke="#e5e7eb" stroke-width="0.5"/>
  <line x1="324.8" y1="210" x2="324.8" y2="360" stroke="#e5e7eb" stroke-width="0.5"/>
  <line x1="332.7" y1="210" x2="332.7" y2="360" stroke="#e5e7eb" stroke-width="0.5"/>
  <line x1="339.4" y1="210" x2="339.4" y2="360" stroke="#e5e7eb" stroke-width="0.5"/>
  <line x1="345.2" y1="210" x2="345.2" y2="360" stroke="#e5e7eb" stroke-width="0.5"/>
  <line x1="350.3" y1="210" x2="350.3" y2="360" stroke="#e5e7eb" stroke-width="0.5"/>
  <line x1="385.0" y1="210" x2="385.0" y2="360" stroke="#e5e7eb" stroke-width="0.5"/>
  <line x1="155.0" y1="210" x2="155.0" y2="360" stroke="#e5e7eb" stroke-width="0.5"/>
  <text x="155.0" y="372" text-anchor="middle" font-size="8" fill="#6b7280">100</text>
  <line x1="254.9" y1="210" x2="254.9" y2="360" stroke="#e5e7eb" stroke-width="0.5"/>
  <text x="254.9" y="372" text-anchor="middle" font-size="8" fill="#6b7280">1k</text>
  <line x1="354.9" y1="210" x2="354.9" y2="360" stroke="#e5e7eb" stroke-width="0.5"/>
  <text x="354.9" y="372" text-anchor="middle" font-size="8" fill="#6b7280">10k</text>
  <line x1="55" y1="322.9" x2="385" y2="322.9" stroke="#e5e7eb" stroke-width="0.5"/>
  <text x="51" y="325.9" text-anchor="end" font-size="8" fill="#6b7280">-100</text>
  <text x="51" y="288.0" text-anchor="end" font-size="8" fill="#6b7280">0</text>
  <line x1="55" y1="247.1" x2="385" y2="247.1" stroke="#e5e7eb" stroke-width="0.5"/>
  <text x="51" y="250.1" text-anchor="end" font-size="8" fill="#6b7280">100</text>
  <defs><linearGradient id="g615" x1="0" y1="210" x2="0" y2="285.0" gradientUnits="userSpaceOnUse">
    <stop offset="0%" stop-color="#2ecc71" stop-opacity="0.15"/>
    <stop offset="100%" stop-color="#2ecc71" stop-opacity="0.02"/>
  </linearGradient></defs>
  <defs><linearGradient id="g616" x1="0" y1="360" x2="0" y2="285.0" gradientUnits="userSpaceOnUse">
    <stop offset="0%" stop-color="#2ecc71" stop-opacity="0.15"/>
    <stop offset="100%" stop-color="#2ecc71" stop-opacity="0.02"/>
  </linearGradient></defs>
  <defs><clipPath id="c617"><rect x="55" y="210" width="330" height="75.0"/></clipPath></defs>
  <defs><clipPath id="c618"><rect x="55" y="285.0" width="330" height="75.0"/></clipPath></defs>
  <path d="M58.2,228.6 58.2,228.6 88.3,232.9 105.9,241.3 118.4,256.1 128.1,279.3 136.0,305.4 142.7,316.5 148.5,304.3 153.6,285.3 158.2,276.1 162.3,280.7 166.1,298.2 169.6,318.9 172.8,323.0 175.8,306.1 178.6,286.8 181.2,278.8 183.7,285.2 186.0,303.8 188.3,322.6 190.4,322.1 192.4,302.9 194.3,284.7 196.2,278.9 198.0,287.4 199.7,307.0 201.3,323.3 202.9,318.3 204.4,297.3 205.9,280.2 207.3,276.2 208.7,286.0 210.0,305.1 211.3,316.5 212.6,304.5 213.8,278.2 215.0,255.3 216.1,240.8 217.3,232.6 218.4,228.5 219.4,227.3 220.5,228.7 221.5,233.1 222.5,241.7 223.5,256.8 224.4,280.3 225.4,306.3 226.3,316.4 227.2,303.5 228.1,284.7 228.9,276.0 229.8,281.2 230.6,299.1 231.4,319.5 233.0,305.3 234.5,278.8 236.0,304.7 237.4,321.6 238.8,284.2 240.1,288.0 241.4,323.5 242.7,296.5 243.9,276.3 245.1,305.8 246.2,303.6 247.4,254.6 248.5,232.4 249.5,227.3 250.6,233.4 251.6,257.6 252.6,307.1 253.6,302.7 254.5,275.9 255.5,300.0 256.4,322.2 257.3,285.6 258.1,286.3 259.0,323.4 259.8,301.2 260.7,279.1 261.5,308.7 262.7,295.6 263.8,287.3 265.0,302.7 266.1,240.0 267.1,227.3 268.2,242.7 269.2,307.9 270.2,283.5 271.2,300.9 272.1,303.5 273.1,286.9 274.0,320.4 274.9,279.2 275.7,324.0 276.6,279.0 277.5,307.3 278.3,275.0 279.1,231.9 280.1,233.9 281.2,308.7 282.2,275.8 283.2,321.4 284.1,287.5 285.1,299.5 286.0,310.4 286.9,278.6 287.8,316.3 288.7,239.2 289.5,229.2 290.4,284.7 291.2,282.4 292.0,321.6 293.0,288.1 293.9,282.4 294.9,314.7 295.8,308.7 296.7,238.8 297.6,234.4 298.4,315.4 299.3,303.6 300.1,279.1 300.9,297.8 301.7,324.3 302.7,309.4 303.6,231.3 304.5,261.7 305.4,275.9 306.3,283.1 307.1,296.9 308.0,313.2 308.8,315.6 309.6,227.9 310.5,311.5 311.4,322.8 312.3,325.1 313.2,324.3 314.0,315.3 314.8,227.5 315.6,314.3 316.4,318.6 317.3,295.3 318.2,277.1 319.1,237.3 319.9,290.2 320.8,323.4 321.6,315.7 322.5,276.9 323.3,230.6 324.2,313.4 325.1,281.6 325.9,295.1 326.7,314.2 327.6,247.4 328.5,323.9 329.3,280.1 330.1,312.9 331.0,236.6 331.8,309.8 332.6,279.9 333.5,313.2 334.3,268.1 335.1,294.3 335.9,318.0 336.8,235.6 337.6,278.2 338.5,311.6 339.3,314.3 340.1,296.7 341.0,296.1 341.8,280.9 342.6,250.5 343.5,281.6 344.3,281.4 345.2,272.0 346.0,297.8 346.8,315.4 347.7,308.7 348.5,288.1 349.3,243.6 350.1,315.5 351.0,301.8 351.8,253.2 352.6,323.8 353.4,242.7 354.3,323.8 355.1,284.1 355.9,286.6 356.7,322.6 357.6,278.2 358.4,278.8 359.2,232.9 360.1,302.9 360.9,228.7 361.7,321.6 362.5,228.8 363.3,301.2 364.1,233.6 365.0,279.2 365.8,283.6 366.6,315.5 367.4,275.9 368.3,316.1 369.1,279.1 369.9,227.4 370.7,292.1 371.5,280.9 372.3,296.7 373.1,325.2 373.9,312.7 374.8,311.8 375.6,325.4 376.4,312.9 377.2,266.2 378.0,281.6 378.8,324.2 379.6,237.3 380.4,314.3 381.3,282.7 382.1,292.1 382.9,309.4 383.7,227.4 384.5,315.6 L384.5,285.0 L58.2,285.0 Z" fill="url(#g615)" clip-path="url(#c617)"/>
  <path d="M58.2,228.6 58.2,228.6 88.3,232.9 105.9,241.3 118.4,256.1 128.1,279.3 136.0,305.4 142.7,316.5 148.5,304.3 153.6,285.3 158.2,276.1 162.3,280.7 166.1,298.2 169.6,318.9 172.8,323.0 175.8,306.1 178.6,286.8 181.2,278.8 183.7,285.2 186.0,303.8 188.3,322.6 190.4,322.1 192.4,302.9 194.3,284.7 196.2,278.9 198.0,287.4 199.7,307.0 201.3,323.3 202.9,318.3 204.4,297.3 205.9,280.2 207.3,276.2 208.7,286.0 210.0,305.1 211.3,316.5 212.6,304.5 213.8,278.2 215.0,255.3 216.1,240.8 217.3,232.6 218.4,228.5 219.4,227.3 220.5,228.7 221.5,233.1 222.5,241.7 223.5,256.8 224.4,280.3 225.4,306.3 226.3,316.4 227.2,303.5 228.1,284.7 228.9,276.0 229.8,281.2 230.6,299.1 231.4,319.5 233.0,305.3 234.5,278.8 236.0,304.7 237.4,321.6 238.8,284.2 240.1,288.0 241.4,323.5 242.7,296.5 243.9,276.3 245.1,305.8 246.2,303.6 247.4,254.6 248.5,232.4 249.5,227.3 250.6,233.4 251.6,257.6 252.6,307.1 253.6,302.7 254.5,275.9 255.5,300.0 256.4,322.2 257.3,285.6 258.1,286.3 259.0,323.4 259.8,301.2 260.7,279.1 261.5,308.7 262.7,295.6 263.8,287.3 265.0,302.7 266.1,240.0 267.1,227.3 268.2,242.7 269.2,307.9 270.2,283.5 271.2,300.9 272.1,303.5 273.1,286.9 274.0,320.4 274.9,279.2 275.7,324.0 276.6,279.0 277.5,307.3 278.3,275.0 279.1,231.9 280.1,233.9 281.2,308.7 282.2,275.8 283.2,321.4 284.1,287.5 285.1,299.5 286.0,310.4 286.9,278.6 287.8,316.3 288.7,239.2 289.5,229.2 290.4,284.7 291.2,282.4 292.0,321.6 293.0,288.1 293.9,282.4 294.9,314.7 295.8,308.7 296.7,238.8 297.6,234.4 298.4,315.4 299.3,303.6 300.1,279.1 300.9,297.8 301.7,324.3 302.7,309.4 303.6,231.3 304.5,261.7 305.4,275.9 306.3,283.1 307.1,296.9 308.0,313.2 308.8,315.6 309.6,227.9 310.5,311.5 311.4,322.8 312.3,325.1 313.2,324.3 314.0,315.3 314.8,227.5 315.6,314.3 316.4,318.6 317.3,295.3 318.2,277.1 319.1,237.3 319.9,290.2 320.8,323.4 321.6,315.7 322.5,276.9 323.3,230.6 324.2,313.4 325.1,281.6 325.9,295.1 326.7,314.2 327.6,247.4 328.5,323.9 329.3,280.1 330.1,312.9 331.0,236.6 331.8,309.8 332.6,279.9 333.5,313.2 334.3,268.1 335.1,294.3 335.9,318.0 336.8,235.6 337.6,278.2 338.5,311.6 339.3,314.3 340.1,296.7 341.0,296.1 341.8,280.9 342.6,250.5 343.5,281.6 344.3,281.4 345.2,272.0 346.0,297.8 346.8,315.4 347.7,308.7 348.5,288.1 349.3,243.6 350.1,315.5 351.0,301.8 351.8,253.2 352.6,323.8 353.4,242.7 354.3,323.8 355.1,284.1 355.9,286.6 356.7,322.6 357.6,278.2 358.4,278.8 359.2,232.9 360.1,302.9 360.9,228.7 361.7,321.6 362.5,228.8 363.3,301.2 364.1,233.6 365.0,279.2 365.8,283.6 366.6,315.5 367.4,275.9 368.3,316.1 369.1,279.1 369.9,227.4 370.7,292.1 371.5,280.9 372.3,296.7 373.1,325.2 373.9,312.7 374.8,311.8 375.6,325.4 376.4,312.9 377.2,266.2 378.0,281.6 378.8,324.2 379.6,237.3 380.4,314.3 381.3,282.7 382.1,292.1 382.9,309.4 383.7,227.4 384.5,315.6 L384.5,285.0 L58.2,285.0 Z" fill="url(#g616)" clip-path="url(#c618)"/>
  <defs><clipPath id="pc619"><rect x="55" y="210" width="330" height="150"/></clipPath></defs>
  <polyline points="58.2,228.6 88.3,232.9 105.9,241.3 118.4,256.1 128.1,279.3 136.0,305.4 142.7,316.5 148.5,304.3 153.6,285.3 158.2,276.1 162.3,280.7 166.1,298.2 169.6,318.9 172.8,323.0 175.8,306.1 178.6,286.8 181.2,278.8 183.7,285.2 186.0,303.8 188.3,322.6 190.4,322.1 192.4,302.9 194.3,284.7 196.2,278.9 198.0,287.4 199.7,307.0 201.3,323.3 202.9,318.3 204.4,297.3 205.9,280.2 207.3,276.2 208.7,286.0 210.0,305.1 211.3,316.5 212.6,304.5 213.8,278.2 215.0,255.3 216.1,240.8 217.3,232.6 218.4,228.5 219.4,227.3 220.5,228.7 221.5,233.1 222.5,241.7 223.5,256.8 224.4,280.3 225.4,306.3 226.3,316.4 227.2,303.5 228.1,284.7 228.9,276.0 229.8,281.2 230.6,299.1 231.4,319.5 233.0,305.3 234.5,278.8 236.0,304.7 237.4,321.6 238.8,284.2 240.1,288.0 241.4,323.5 242.7,296.5 243.9,276.3 245.1,305.8 246.2,303.6 247.4,254.6 248.5,232.4 249.5,227.3 250.6,233.4 251.6,257.6 252.6,307.1 253.6,302.7 254.5,275.9 255.5,300.0 256.4,322.2 257.3,285.6 258.1,286.3 259.0,323.4 259.8,301.2 260.7,279.1 261.5,308.7 262.7,295.6 263.8,287.3 265.0,302.7 266.1,240.0 267.1,227.3 268.2,242.7 269.2,307.9 270.2,283.5 271.2,300.9 272.1,303.5 273.1,286.9 274.0,320.4 274.9,279.2 275.7,324.0 276.6,279.0 277.5,307.3 278.3,275.0 279.1,231.9 280.1,233.9 281.2,308.7 282.2,275.8 283.2,321.4 284.1,287.5 285.1,299.5 286.0,310.4 286.9,278.6 287.8,316.3 288.7,239.2 289.5,229.2 290.4,284.7 291.2,282.4 292.0,321.6 293.0,288.1 293.9,282.4 294.9,314.7 295.8,308.7 296.7,238.8 297.6,234.4 298.4,315.4 299.3,303.6 300.1,279.1 300.9,297.8 301.7,324.3 302.7,309.4 303.6,231.3 304.5,261.7 305.4,275.9 306.3,283.1 307.1,296.9 308.0,313.2 308.8,315.6 309.6,227.9 310.5,311.5 311.4,322.8 312.3,325.1 313.2,324.3 314.0,315.3 314.8,227.5 315.6,314.3 316.4,318.6 317.3,295.3 318.2,277.1 319.1,237.3 319.9,290.2 320.8,323.4 321.6,315.7 322.5,276.9 323.3,230.6 324.2,313.4 325.1,281.6 325.9,295.1 326.7,314.2 327.6,247.4 328.5,323.9 329.3,280.1 330.1,312.9 331.0,236.6 331.8,309.8 332.6,279.9 333.5,313.2 334.3,268.1 335.1,294.3 335.9,318.0 336.8,235.6 337.6,278.2 338.5,311.6 339.3,314.3 340.1,296.7 341.0,296.1 341.8,280.9 342.6,250.5 343.5,281.6 344.3,281.4 345.2,272.0 346.0,297.8 346.8,315.4 347.7,308.7 348.5,288.1 349.3,243.6 350.1,315.5 351.0,301.8 351.8,253.2 352.6,323.8 353.4,242.7 354.3,323.8 355.1,284.1 355.9,286.6 356.7,322.6 357.6,278.2 358.4,278.8 359.2,232.9 360.1,302.9 360.9,228.7 361.7,321.6 362.5,228.8 363.3,301.2 364.1,233.6 365.0,279.2 365.8,283.6 366.6,315.5 367.4,275.9 368.3,316.1 369.1,279.1 369.9,227.4 370.7,292.1 371.5,280.9 372.3,296.7 373.1,325.2 373.9,312.7 374.8,311.8 375.6,325.4 376.4,312.9 377.2,266.2 378.0,281.6 378.8,324.2 379.6,237.3 380.4,314.3 381.3,282.7 382.1,292.1 382.9,309.4 383.7,227.4 384.5,315.6" fill="none" stroke="#2ecc71" stroke-width="1.5" stroke-linejoin="round" clip-path="url(#pc619)"/>
  <line x1="445" y1="210" x2="445" y2="360" stroke="#d1d5db"/>
  <line x1="445" y1="285.0" x2="775" y2="285.0" stroke="#d1d5db"/>
  <text x="610" y="388" text-anchor="middle" font-size="9" fill="#6b7280">Samples</text>
  <text x="419" y="285" text-anchor="middle" font-size="9" fill="#6b7280" transform="rotate(-90 419 285)">Impulse response</text>
  <line x1="445.0" y1="210" x2="445.0" y2="360" stroke="#e5e7eb" stroke-width="0.5"/>
  <text x="445.0" y="372" text-anchor="middle" font-size="8" fill="#6b7280">0</text>
  <line x1="573.9" y1="210" x2="573.9" y2="360" stroke="#e5e7eb" stroke-width="0.5"/>
  <text x="573.9" y="372" text-anchor="middle" font-size="8" fill="#6b7280">200</text>
  <line x1="702.8" y1="210" x2="702.8" y2="360" stroke="#e5e7eb" stroke-width="0.5"/>
  <text x="702.8" y="372" text-anchor="middle" font-size="8" fill="#6b7280">400</text>
  <line x1="445" y1="337.5" x2="775" y2="337.5" stroke="#e5e7eb" stroke-width="0.5"/>
  <text x="441" y="340.5" text-anchor="end" font-size="8" fill="#6b7280">-0.7</text>
  <text x="441" y="288.0" text-anchor="end" font-size="8" fill="#6b7280">0</text>
  <line x1="445" y1="232.5" x2="775" y2="232.5" stroke="#e5e7eb" stroke-width="0.5"/>
  <text x="441" y="235.5" text-anchor="end" font-size="8" fill="#6b7280">0.7</text>
  <defs><linearGradient id="g620" x1="0" y1="210" x2="0" y2="285.0" gradientUnits="userSpaceOnUse">
    <stop offset="0%" stop-color="#f39c12" stop-opacity="0.15"/>
    <stop offset="100%" stop-color="#f39c12" stop-opacity="0.02"/>
  </linearGradient></defs>
  <path d="M445.0,210.0 445.0,210.0 446.3,285.0 447.6,285.0 448.9,285.0 450.2,285.0 451.4,285.0 452.7,285.0 454.0,285.0 455.3,285.0 456.6,285.0 457.9,285.0 459.2,285.0 460.5,285.0 461.8,285.0 463.0,285.0 464.3,285.0 465.6,285.0 466.9,285.0 468.2,285.0 469.5,285.0 470.8,285.0 472.1,285.0 473.4,285.0 474.6,285.0 475.9,285.0 477.2,285.0 478.5,285.0 479.8,285.0 481.1,285.0 482.4,285.0 483.7,285.0 485.0,285.0 486.3,285.0 487.5,285.0 488.8,285.0 490.1,285.0 491.4,285.0 492.7,285.0 494.0,285.0 495.3,285.0 496.6,285.0 497.9,285.0 499.1,285.0 500.4,285.0 501.7,285.0 503.0,285.0 504.3,285.0 505.6,285.0 506.9,285.0 508.2,285.0 509.5,232.5 510.7,285.0 512.0,285.0 513.3,285.0 514.6,285.0 515.9,285.0 517.2,285.0 518.5,285.0 519.8,285.0 521.1,285.0 522.3,285.0 523.6,285.0 524.9,285.0 526.2,285.0 527.5,285.0 528.8,285.0 530.1,285.0 531.4,285.0 532.7,285.0 533.9,285.0 535.2,285.0 536.5,285.0 537.8,285.0 539.1,285.0 540.4,285.0 541.7,285.0 543.0,285.0 544.3,285.0 545.5,285.0 546.8,285.0 548.1,285.0 549.4,285.0 550.7,285.0 552.0,285.0 553.3,285.0 554.6,285.0 555.9,285.0 557.1,285.0 558.4,285.0 559.7,285.0 561.0,285.0 562.3,285.0 563.6,285.0 564.9,285.0 566.2,285.0 567.5,285.0 568.8,285.0 570.0,285.0 571.3,285.0 572.6,285.0 573.9,248.3 575.2,285.0 576.5,285.0 577.8,285.0 579.1,285.0 580.4,285.0 581.6,285.0 582.9,285.0 584.2,285.0 585.5,285.0 586.8,285.0 588.1,285.0 589.4,285.0 590.7,285.0 592.0,285.0 593.2,285.0 594.5,285.0 595.8,285.0 597.1,285.0 598.4,285.0 599.7,285.0 601.0,285.0 602.3,285.0 603.6,285.0 604.8,285.0 606.1,285.0 607.4,285.0 608.7,285.0 610.0,285.0 611.3,285.0 612.6,285.0 613.9,285.0 615.2,285.0 616.4,285.0 617.7,285.0 619.0,285.0 620.3,285.0 621.6,285.0 622.9,285.0 624.2,285.0 625.5,285.0 626.8,285.0 628.0,285.0 629.3,285.0 630.6,285.0 631.9,285.0 633.2,285.0 634.5,285.0 635.8,285.0 637.1,285.0 638.4,259.3 639.6,285.0 640.9,285.0 642.2,285.0 643.5,285.0 644.8,285.0 646.1,285.0 647.4,285.0 648.7,285.0 650.0,285.0 651.3,285.0 652.5,285.0 653.8,285.0 655.1,285.0 656.4,285.0 657.7,285.0 659.0,285.0 660.3,285.0 661.6,285.0 662.9,285.0 664.1,285.0 665.4,285.0 666.7,285.0 668.0,285.0 669.3,285.0 670.6,285.0 671.9,285.0 673.2,285.0 674.5,285.0 675.7,285.0 677.0,285.0 678.3,285.0 679.6,285.0 680.9,285.0 682.2,285.0 683.5,285.0 684.8,285.0 686.1,285.0 687.3,285.0 688.6,285.0 689.9,285.0 691.2,285.0 692.5,285.0 693.8,285.0 695.1,285.0 696.4,285.0 697.7,285.0 698.9,285.0 700.2,285.0 701.5,285.0 702.8,267.0 704.1,285.0 705.4,285.0 706.7,285.0 708.0,285.0 709.3,285.0 710.5,285.0 711.8,285.0 713.1,285.0 714.4,285.0 715.7,285.0 717.0,285.0 718.3,285.0 719.6,285.0 720.9,285.0 722.1,285.0 723.4,285.0 724.7,285.0 726.0,285.0 727.3,285.0 728.6,285.0 729.9,285.0 731.2,285.0 732.5,285.0 733.8,285.0 735.0,285.0 736.3,285.0 737.6,285.0 738.9,285.0 740.2,285.0 741.5,285.0 742.8,285.0 744.1,285.0 745.4,285.0 746.6,285.0 747.9,285.0 749.2,285.0 750.5,285.0 751.8,285.0 753.1,285.0 754.4,285.0 755.7,285.0 757.0,285.0 758.2,285.0 759.5,285.0 760.8,285.0 762.1,285.0 763.4,285.0 764.7,285.0 766.0,285.0 767.3,272.4 768.6,285.0 769.8,285.0 771.1,285.0 772.4,285.0 773.7,285.0 774.4,285.0 L774.4,285.0 L445.0,285.0 Z" fill="url(#g620)"/>
  <defs><clipPath id="pc621"><rect x="445" y="210" width="330" height="150"/></clipPath></defs>
  <polyline points="445.0,210.0 446.3,285.0 447.6,285.0 448.9,285.0 450.2,285.0 451.4,285.0 452.7,285.0 454.0,285.0 455.3,285.0 456.6,285.0 457.9,285.0 459.2,285.0 460.5,285.0 461.8,285.0 463.0,285.0 464.3,285.0 465.6,285.0 466.9,285.0 468.2,285.0 469.5,285.0 470.8,285.0 472.1,285.0 473.4,285.0 474.6,285.0 475.9,285.0 477.2,285.0 478.5,285.0 479.8,285.0 481.1,285.0 482.4,285.0 483.7,285.0 485.0,285.0 486.3,285.0 487.5,285.0 488.8,285.0 490.1,285.0 491.4,285.0 492.7,285.0 494.0,285.0 495.3,285.0 496.6,285.0 497.9,285.0 499.1,285.0 500.4,285.0 501.7,285.0 503.0,285.0 504.3,285.0 505.6,285.0 506.9,285.0 508.2,285.0 509.5,232.5 510.7,285.0 512.0,285.0 513.3,285.0 514.6,285.0 515.9,285.0 517.2,285.0 518.5,285.0 519.8,285.0 521.1,285.0 522.3,285.0 523.6,285.0 524.9,285.0 526.2,285.0 527.5,285.0 528.8,285.0 530.1,285.0 531.4,285.0 532.7,285.0 533.9,285.0 535.2,285.0 536.5,285.0 537.8,285.0 539.1,285.0 540.4,285.0 541.7,285.0 543.0,285.0 544.3,285.0 545.5,285.0 546.8,285.0 548.1,285.0 549.4,285.0 550.7,285.0 552.0,285.0 553.3,285.0 554.6,285.0 555.9,285.0 557.1,285.0 558.4,285.0 559.7,285.0 561.0,285.0 562.3,285.0 563.6,285.0 564.9,285.0 566.2,285.0 567.5,285.0 568.8,285.0 570.0,285.0 571.3,285.0 572.6,285.0 573.9,248.3 575.2,285.0 576.5,285.0 577.8,285.0 579.1,285.0 580.4,285.0 581.6,285.0 582.9,285.0 584.2,285.0 585.5,285.0 586.8,285.0 588.1,285.0 589.4,285.0 590.7,285.0 592.0,285.0 593.2,285.0 594.5,285.0 595.8,285.0 597.1,285.0 598.4,285.0 599.7,285.0 601.0,285.0 602.3,285.0 603.6,285.0 604.8,285.0 606.1,285.0 607.4,285.0 608.7,285.0 610.0,285.0 611.3,285.0 612.6,285.0 613.9,285.0 615.2,285.0 616.4,285.0 617.7,285.0 619.0,285.0 620.3,285.0 621.6,285.0 622.9,285.0 624.2,285.0 625.5,285.0 626.8,285.0 628.0,285.0 629.3,285.0 630.6,285.0 631.9,285.0 633.2,285.0 634.5,285.0 635.8,285.0 637.1,285.0 638.4,259.3 639.6,285.0 640.9,285.0 642.2,285.0 643.5,285.0 644.8,285.0 646.1,285.0 647.4,285.0 648.7,285.0 650.0,285.0 651.3,285.0 652.5,285.0 653.8,285.0 655.1,285.0 656.4,285.0 657.7,285.0 659.0,285.0 660.3,285.0 661.6,285.0 662.9,285.0 664.1,285.0 665.4,285.0 666.7,285.0 668.0,285.0 669.3,285.0 670.6,285.0 671.9,285.0 673.2,285.0 674.5,285.0 675.7,285.0 677.0,285.0 678.3,285.0 679.6,285.0 680.9,285.0 682.2,285.0 683.5,285.0 684.8,285.0 686.1,285.0 687.3,285.0 688.6,285.0 689.9,285.0 691.2,285.0 692.5,285.0 693.8,285.0 695.1,285.0 696.4,285.0 697.7,285.0 698.9,285.0 700.2,285.0 701.5,285.0 702.8,267.0 704.1,285.0 705.4,285.0 706.7,285.0 708.0,285.0 709.3,285.0 710.5,285.0 711.8,285.0 713.1,285.0 714.4,285.0 715.7,285.0 717.0,285.0 718.3,285.0 719.6,285.0 720.9,285.0 722.1,285.0 723.4,285.0 724.7,285.0 726.0,285.0 727.3,285.0 728.6,285.0 729.9,285.0 731.2,285.0 732.5,285.0 733.8,285.0 735.0,285.0 736.3,285.0 737.6,285.0 738.9,285.0 740.2,285.0 741.5,285.0 742.8,285.0 744.1,285.0 745.4,285.0 746.6,285.0 747.9,285.0 749.2,285.0 750.5,285.0 751.8,285.0 753.1,285.0 754.4,285.0 755.7,285.0 757.0,285.0 758.2,285.0 759.5,285.0 760.8,285.0 762.1,285.0 763.4,285.0 764.7,285.0 766.0,285.0 767.3,272.4 768.6,285.0 769.8,285.0 771.1,285.0 772.4,285.0 773.7,285.0 774.4,285.0" fill="none" stroke="#f39c12" stroke-width="1.3" stroke-linejoin="round" clip-path="url(#pc621)"/>
</svg>
