<svg xmlns="http://www.w3.org/2000/svg" viewBox="0 0 800 420" style="font-family:system-ui,-apple-system,sans-serif">
  <text x="55" y="416" font-size="11" font-weight="600" fill="#6b7280">DC Blocker (R=0.995)</text>
  <line x1="55" y1="12" x2="55" y2="162" stroke="#d1d5db"/>
  <line x1="55" y1="42.0" x2="385" y2="42.0" stroke="#d1d5db"/>
  <text x="220" y="190" text-anchor="middle" font-size="9" fill="#6b7280">Hz</text>
  <text x="29" y="87" text-anchor="middle" font-size="9" fill="#6b7280" transform="rotate(-90 29 87)">dB</text>
  <line x1="85.1" y1="12" x2="85.1" y2="162" stroke="#e5e7eb" stroke-width="0.5"/>
  <line x1="102.7" y1="12" x2="102.7" y2="162" stroke="#e5e7eb" stroke-width="0.5"/>
  <line x1="115.2" y1="12" x2="115.2" y2="162" stroke="#e5e7eb" stroke-width="0.5"/>
  <line x1="124.9" y1="12" x2="124.9" y2="162" stroke="#e5e7eb" stroke-width="0.5"/>
  <line x1="132.8" y1="12" x2="132.8" y2="162" stroke="#e5e7eb" stroke-width="0.5"/>
  <line x1="139.5" y1="12" x2="139.5" y2="162" stroke="#e5e7eb" stroke-width="0.5"/>
  <line x1="145.3" y1="12" x2="145.3" y2="162" stroke="#e5e7eb" stroke-width="0.5"/>
  <line x1="150.4" y1="12" x2="150.4" y2="162" stroke="#e5e7eb" stroke-width="0.5"/>
  <line x1="185.1" y1="12" x2="185.1" y2="162" stroke="#e5e7eb" stroke-width="0.5"/>
  <line x1="202.7" y1="12" x2="202.7" y2="162" stroke="#e5e7eb" stroke-width="0.5"/>
  <line x1="215.2" y1="12" x2="215.2" y2="162" stroke="#e5e7eb" stroke-width="0.5"/>
  <line x1="224.8" y1="12" x2="224.8" y2="162" stroke="#e5e7eb" stroke-width="0.5"/>
  <line x1="232.8" y1="12" x2="232.8" y2="162" stroke="#e5e7eb" stroke-width="0.5"/>
  <line x1="239.5" y1="12" x2="239.5" y2="162" stroke="#e5e7eb" stroke-width="0.5"/>
  <line x1="245.2" y1="12" x2="245.2" y2="162" stroke="#e5e7eb" stroke-width="0.5"/>
  <line x1="250.4" y1="12" x2="250.4" y2="162" stroke="#e5e7eb" stroke-width="0.5"/>
  <line x1="285.0" y1="12" x2="285.0" y2="162" stroke="#e5e7eb" stroke-width="0.5"/>
  <line x1="302.6" y1="12" x2="302.6" y2="162" stroke="#e5e7eb" stroke-width="0.5"/>
  <line x1="315.1" y1="12" x2="315.1" y2="162" stroke="#e5e7eb" stroke-width="0.5"/>
  <line x1="324.8" y1="12" x2="324.8" y2="162" stroke="#e5e7eb" stroke-width="0.5"/>
  <line x1="332.7" y1="12" x2="332.7" y2="162" stroke="#e5e7eb" stroke-width="0.5"/>
  <line x1="339.4" y1="12" x2="339.4" y2="162" stroke="#e5e7eb" stroke-width="0.5"/>
  <line x1="345.2" y1="12" x2="345.2" y2="162" stroke="#e5e7eb" stroke-width="0.5"/>
  <line x1="350.3" y1="12" x2="350.3" y2="162" stroke="#e5e7eb" stroke-width="0.5"/>
  <line x1="385.0" y1="12" x2="385.0" y2="162" stroke="#e5e7eb" stroke-width="0.5"/>
  <line x1="155.0" y1="12" x2="155.0" y2="162" stroke="#e5e7eb" stroke-width="0.5"/>
  <text x="155.0" y="174" text-anchor="middle" font-size="8" fill="#6b7280">100</text>
  <line x1="254.9" y1="12" x2="254.9" y2="162" stroke="#e5e7eb" stroke-width="0.5"/>
  <text x="254.9" y="174" text-anchor="middle" font-size="8" fill="#6b7280">1k</text>
  <line x1="354.9" y1="12" x2="354.9" y2="162" stroke="#e5e7eb" stroke-width="0.5"/>
  <text x="354.9" y="174" text-anchor="middle" font-size="8" fill="#6b7280">10k</text>
  <line x1="55" y1="27.0" x2="385" y2="27.0" stroke="#e5e7eb" stroke-width="0.5"/>
  <line x1="55" y1="57.0" x2="385" y2="57.0" stroke="#e5e7eb" stroke-width="0.5"/>
  <line x1="55" y1="12.0" x2="385" y2="12.0" stroke="#e5e7eb" stroke-width="0.5"/>
  <text x="51" y="15.0" text-anchor="end" font-size="8" fill="#6b7280">+20</text>
  <text x="51" y="45.0" text-anchor="end" font-size="8" fill="#6b7280">0</text>
  <line x1="55" y1="72.0" x2="385" y2="72.0" stroke="#e5e7eb" stroke-width="0.5"/>
  <text x="51" y="75.0" text-anchor="end" font-size="8" fill="#6b7280">-20</text>
  <line x1="55" y1="102.0" x2="385" y2="102.0" stroke="#e5e7eb" stroke-width="0.5"/>
  <text x="51" y="105.0" text-anchor="end" font-size="8" fill="#6b7280">-40</text>
  <line x1="55" y1="132.0" x2="385" y2="132.0" stroke="#e5e7eb" stroke-width="0.5"/>
  <text x="51" y="135.0" text-anchor="end" font-size="8" fill="#6b7280">-60</text>
  <line x1="55" y1="162.0" x2="385" y2="162.0" stroke="#e5e7eb" stroke-width="0.5"/>
  <text x="51" y="165.0" text-anchor="end" font-size="8" fill="#6b7280">-80</text>
  <defs><linearGradient id="g313" x1="0" y1="12" x2="0" y2="162" gradientUnits="userSpaceOnUse">
    <stop offset="0%" stop-color="#4a90d9" stop-opacity="0.15"/>
    <stop offset="100%" stop-color="#4a90d9" stop-opacity="0.02"/>
  </linearGradient></defs>
  <path d="M58.2,58.0 58.2,58.0 88.3,50.4 105.9,47.1 118.4,45.3 128.1,44.3 136.0,43.7 142.7,43.3 148.5,43.0 153.6,42.8 158.2,42.6 162.3,42.5 166.1,42.4 169.6,42.4 172.8,42.3 175.8,42.3 178.6,42.2 181.2,42.2 183.7,42.2 186.0,42.2 188.3,42.1 190.4,42.1 192.4,42.1 194.3,42.1 196.2,42.1 198.0,42.1 199.7,42.1 201.3,42.1 202.9,42.1 204.4,42.0 205.9,42.0 207.3,42.0 208.7,42.0 210.0,42.0 211.3,42.0 212.6,42.0 213.8,42.0 215.0,42.0 216.1,42.0 217.3,42.0 218.4,42.0 219.4,42.0 220.5,42.0 221.5,42.0 222.5,42.0 223.5,42.0 224.4,42.0 225.4,42.0 226.3,42.0 227.2,42.0 228.1,42.0 228.9,42.0 229.8,42.0 230.6,42.0 231.4,42.0 233.0,42.0 234.5,42.0 236.0,42.0 237.4,42.0 238.8,42.0 240.1,42.0 241.4,42.0 242.7,42.0 243.9,42.0 245.1,42.0 246.2,42.0 247.4,42.0 248.5,42.0 249.5,42.0 250.6,42.0 251.6,42.0 252.6,42.0 253.6,42.0 254.5,42.0 255.5,42.0 256.4,42.0 257.3,42.0 258.1,42.0 259.0,42.0 259.8,42.0 260.7,42.0 261.5,42.0 262.7,42.0 263.8,42.0 265.0,42.0 266.1,42.0 267.1,42.0 268.2,42.0 269.2,42.0 270.2,42.0 271.2,42.0 272.1,42.0 273.1,42.0 274.0,42.0 274.9,42.0 275.7,42.0 276.6,42.0 277.5,42.0 278.3,42.0 279.1,42.0 280.1,42.0 281.2,42.0 282.2,42.0 283.2,42.0 284.1,42.0 285.1,42.0 286.0,42.0 286.9,42.0 287.8,42.0 288.7,42.0 289.5,42.0 290.4,42.0 291.2,42.0 292.0,42.0 293.0,42.0 293.9,42.0 294.9,42.0 295.8,42.0 296.7,42.0 297.6,42.0 298.4,42.0 299.3,42.0 300.1,42.0 300.9,42.0 301.7,42.0 302.7,42.0 303.6,42.0 304.5,42.0 305.4,42.0 306.3,42.0 307.1,42.0 308.0,42.0 308.8,42.0 309.6,42.0 310.5,42.0 311.4,42.0 312.3,42.0 313.2,42.0 314.0,42.0 314.8,42.0 315.6,42.0 316.4,42.0 317.3,42.0 318.2,42.0 319.1,42.0 319.9,42.0 320.8,42.0 321.6,42.0 322.5,42.0 323.3,42.0 324.2,42.0 325.1,42.0 325.9,42.0 326.7,42.0 327.6,42.0 328.5,42.0 329.3,42.0 330.1,42.0 331.0,42.0 331.8,42.0 332.6,42.0 333.5,42.0 334.3,42.0 335.1,42.0 335.9,42.0 336.8,42.0 337.6,42.0 338.5,42.0 339.3,42.0 340.1,42.0 341.0,42.0 341.8,42.0 342.6,42.0 343.5,42.0 344.3,42.0 345.2,42.0 346.0,42.0 346.8,42.0 347.7,42.0 348.5,42.0 349.3,42.0 350.1,42.0 351.0,42.0 351.8,42.0 352.6,42.0 353.4,42.0 354.3,42.0 355.1,42.0 355.9,42.0 356.7,42.0 357.6,42.0 358.4,42.0 359.2,42.0 360.1,42.0 360.9,42.0 361.7,42.0 362.5,42.0 363.3,42.0 364.1,42.0 365.0,42.0 365.8,42.0 366.6,42.0 367.4,42.0 368.3,42.0 369.1,42.0 369.9,42.0 370.7,42.0 371.5,42.0 372.3,42.0 373.1,42.0 373.9,42.0 374.8,42.0 375.6,42.0 376.4,42.0 377.2,42.0 378.0,42.0 378.8,42.0 379.6,42.0 380.4,42.0 381.3,42.0 382.1,42.0 382.9,42.0 383.7,42.0 384.5,42.0 L384.5,162.0 L58.2,162.0 Z" fill="url(#g313)"/>
  <defs><clipPath id="pc314"><rect x="55" y="12" width="330" height="150"/></clipPath></defs>
  <polyline points="58.2,58.0 88.3,50.4 105.9,47.1 118.4,45.3 128.1,44.3 136.0,43.7 142.7,43.3 148.5,43.0 153.6,42.8 158.2,42.6 162.3,42.5 166.1,42.4 169.6,42.4 172.8,42.3 175.8,42.3 178.6,42.2 181.2,42.2 183.7,42.2 186.0,42.2 188.3,42.1 190.4,42.1 192.4,42.1 194.3,42.1 196.2,42.1 198.0,42.1 199.7,42.1 201.3,42.1 202.9,42.1 204.4,42.0 205.9,42.0 207.3,42.0 208.7,42.0 210.0,42.0 211.3,42.0 212.6,42.0 213.8,42.0 215.0,42.0 216.1,42.0 217.3,42.0 218.4,42.0 219.4,42.0 220.5,42.0 221.5,42.0 222.5,42.0 223.5,42.0 224.4,42.0 225.4,42.0 226.3,42.0 227.2,42.0 228.1,42.0 228.9,42.0 229.8,42.0 230.6,42.0 231.4,42.0 233.0,42.0 234.5,42.0 236.0,42.0 237.4,42.0 238.8,42.0 240.1,42.0 241.4,42.0 242.7,42.0 243.9,42.0 245.1,42.0 246.2,42.0 247.4,42.0 248.5,42.0 249.5,42.0 250.6,42.0 251.6,42.0 252.6,42.0 253.6,42.0 254.5,42.0 255.5,42.0 256.4,42.0 257.3,42.0 258.1,42.0 259.0,42.0 259.8,42.0 260.7,42.0 261.5,42.0 262.7,42.0 263.8,42.0 265.0,42.0 266.1,42.0 267.1,42.0 268.2,42.0 269.2,42.0 270.2,42.0 271.2,42.0 272.1,42.0 273.1,42.0 274.0,42.0 274.9,42.0 275.7,42.0 276.6,42.0 277.5,42.0 278.3,42.0 279.1,42.0 280.1,42.0 281.2,42.0 282.2,42.0 283.2,42.0 284.1,42.0 285.1,42.0 286.0,42.0 286.9,42.0 287.8,42.0 288.7,42.0 289.5,42.0 290.4,42.0 291.2,42.0 292.0,42.0 293.0,42.0 293.9,42.0 294.9,42.0 295.8,42.0 296.7,42.0 297.6,42.0 298.4,42.0 299.3,42.0 300.1,42.0 300.9,42.0 301.7,42.0 302.7,42.0 303.6,42.0 304.5,42.0 305.4,42.0 306.3,42.0 307.1,42.0 308.0,42.0 308.8,42.0 309.6,42.0 310.5,42.0 311.4,42.0 312.3,42.0 313.2,42.0 314.0,42.0 314.8,42.0 315.6,42.0 316.4,42.0 317.3,42.0 318.2,42.0 319.1,42.0 319.9,42.0 320.8,42.0 321.6,42.0 322.5,42.0 323.3,42.0 324.2,42.0 325.1,42.0 325.9,42.0 326.7,42.0 327.6,42.0 328.5,42.0 329.3,42.0 330.1,42.0 331.0,42.0 331.8,42.0 332.6,42.0 333.5,42.0 334.3,42.0 335.1,42.0 335.9,42.0 336.8,42.0 337.6,42.0 338.5,42.0 339.3,42.0 340.1,42.0 341.0,42.0 341.8,42.0 342.6,42.0 343.5,42.0 344.3,42.0 345.2,42.0 346.0,42.0 346.8,42.0 347.7,42.0 348.5,42.0 349.3,42.0 350.1,42.0 351.0,42.0 351.8,42.0 352.6,42.0 353.4,42.0 354.3,42.0 355.1,42.0 355.9,42.0 356.7,42.0 357.6,42.0 358.4,42.0 359.2,42.0 360.1,42.0 360.9,42.0 361.7,42.0 362.5,42.0 363.3,42.0 364.1,42.0 365.0,42.0 365.8,42.0 366.6,42.0 367.4,42.0 368.3,42.0 369.1,42.0 369.9,42.0 370.7,42.0 371.5,42.0 372.3,42.0 373.1,42.0 373.9,42.0 374.8,42.0 375.6,42.0 376.4,42.0 377.2,42.0 378.0,42.0 378.8,42.0 379.6,42.0 380.4,42.0 381.3,42.0 382.1,42.0 382.9,42.0 383.7,42.0 384.5,42.0" fill="none" stroke="#4a90d9" stroke-width="1.5" stroke-linejoin="round" clip-path="url(#pc314)"/>
  <line x1="445" y1="12" x2="445" y2="162" stroke="#d1d5db"/>
  <line x1="445" y1="87.0" x2="775" y2="87.0" stroke="#d1d5db"/>
  <text x="610" y="190" text-anchor="middle" font-size="9" fill="#6b7280">Hz</text>
  <text x="419" y="87" text-anchor="middle" font-size="9" fill="#6b7280" transform="rotate(-90 419 87)">Phase (deg)</text>
  <line x1="475.1" y1="12" x2="475.1" y2="162" stroke="#e5e7eb" stroke-width="0.5"/>
  <line x1="492.7" y1="12" x2="492.7" y2="162" stroke="#e5e7eb" stroke-width="0.5"/>
  <line x1="505.2" y1="12" x2="505.2" y2="162" stroke="#e5e7eb" stroke-width="0.5"/>
  <line x1="514.9" y1="12" x2="514.9" y2="162" stroke="#e5e7eb" stroke-width="0.5"/>
  <line x1="522.8" y1="12" x2="522.8" y2="162" stroke="#e5e7eb" stroke-width="0.5"/>
  <line x1="529.5" y1="12" x2="529.5" y2="162" stroke="#e5e7eb" stroke-width="0.5"/>
  <line x1="535.3" y1="12" x2="535.3" y2="162" stroke="#e5e7eb" stroke-width="0.5"/>
  <line x1="540.4" y1="12" x2="540.4" y2="162" stroke="#e5e7eb" stroke-width="0.5"/>
  <line x1="575.1" y1="12" x2="575.1" y2="162" stroke="#e5e7eb" stroke-width="0.5"/>
  <line x1="592.7" y1="12" x2="592.7" y2="162" stroke="#e5e7eb" stroke-width="0.5"/>
  <line x1="605.2" y1="12" x2="605.2" y2="162" stroke="#e5e7eb" stroke-width="0.5"/>
  <line x1="614.8" y1="12" x2="614.8" y2="162" stroke="#e5e7eb" stroke-width="0.5"/>
  <line x1="622.8" y1="12" x2="622.8" y2="162" stroke="#e5e7eb" stroke-width="0.5"/>
  <line x1="629.5" y1="12" x2="629.5" y2="162" stroke="#e5e7eb" stroke-width="0.5"/>
  <line x1="635.2" y1="12" x2="635.2" y2="162" stroke="#e5e7eb" stroke-width="0.5"/>
  <line x1="640.4" y1="12" x2="640.4" y2="162" stroke="#e5e7eb" stroke-width="0.5"/>
  <line x1="675.0" y1="12" x2="675.0" y2="162" stroke="#e5e7eb" stroke-width="0.5"/>
  <line x1="692.6" y1="12" x2="692.6" y2="162" stroke="#e5e7eb" stroke-width="0.5"/>
  <line x1="705.1" y1="12" x2="705.1" y2="162" stroke="#e5e7eb" stroke-width="0.5"/>
  <line x1="714.8" y1="12" x2="714.8" y2="162" stroke="#e5e7eb" stroke-width="0.5"/>
  <line x1="722.7" y1="12" x2="722.7" y2="162" stroke="#e5e7eb" stroke-width="0.5"/>
  <line x1="729.4" y1="12" x2="729.4" y2="162" stroke="#e5e7eb" stroke-width="0.5"/>
  <line x1="735.2" y1="12" x2="735.2" y2="162" stroke="#e5e7eb" stroke-width="0.5"/>
  <line x1="740.3" y1="12" x2="740.3" y2="162" stroke="#e5e7eb" stroke-width="0.5"/>
  <line x1="775.0" y1="12" x2="775.0" y2="162" stroke="#e5e7eb" stroke-width="0.5"/>
  <line x1="545.0" y1="12" x2="545.0" y2="162" stroke="#e5e7eb" stroke-width="0.5"/>
  <text x="545.0" y="174" text-anchor="middle" font-size="8" fill="#6b7280">100</text>
  <line x1="644.9" y1="12" x2="644.9" y2="162" stroke="#e5e7eb" stroke-width="0.5"/>
  <text x="644.9" y="174" text-anchor="middle" font-size="8" fill="#6b7280">1k</text>
  <line x1="744.9" y1="12" x2="744.9" y2="162" stroke="#e5e7eb" stroke-width="0.5"/>
  <text x="744.9" y="174" text-anchor="middle" font-size="8" fill="#6b7280">10k</text>
  <line x1="445" y1="53.3" x2="775" y2="53.3" stroke="#e5e7eb" stroke-width="0.5"/>
  <line x1="445" y1="120.8" x2="775" y2="120.8" stroke="#e5e7eb" stroke-width="0.5"/>
  <line x1="445" y1="19.5" x2="775" y2="19.5" stroke="#e5e7eb" stroke-width="0.5"/>
  <text x="441" y="22.5" text-anchor="end" font-size="8" fill="#6b7280">180</text>
  <text x="441" y="90.0" text-anchor="end" font-size="8" fill="#6b7280">0</text>
  <line x1="445" y1="154.5" x2="775" y2="154.5" stroke="#e5e7eb" stroke-width="0.5"/>
  <text x="441" y="157.5" text-anchor="end" font-size="8" fill="#6b7280">-180</text>
  <defs><linearGradient id="g315" x1="0" y1="12" x2="0" y2="87.0" gradientUnits="userSpaceOnUse">
    <stop offset="0%" stop-color="#e74c3c" stop-opacity="0.15"/>
    <stop offset="100%" stop-color="#e74c3c" stop-opacity="0.02"/>
  </linearGradient></defs>
  <path d="M448.2,59.6 448.2,59.6 478.3,65.1 495.9,69.2 508.4,72.3 518.1,74.6 526.0,76.3 532.7,77.6 538.5,78.7 543.6,79.5 548.2,80.2 552.3,80.8 556.1,81.3 559.6,81.7 562.8,82.1 565.8,82.4 568.6,82.7 571.2,82.9 573.7,83.1 576.0,83.3 578.3,83.5 580.4,83.7 582.4,83.8 584.3,84.0 586.2,84.1 588.0,84.2 589.7,84.3 591.3,84.4 592.9,84.5 594.4,84.6 595.9,84.7 597.3,84.7 598.7,84.8 600.0,84.9 601.3,84.9 602.6,85.0 603.8,85.1 605.0,85.1 606.1,85.2 607.3,85.2 608.4,85.2 609.4,85.3 610.5,85.3 611.5,85.4 612.5,85.4 613.5,85.4 614.4,85.5 615.4,85.5 616.3,85.5 617.2,85.6 618.1,85.6 618.9,85.6 619.8,85.7 620.6,85.7 621.4,85.7 623.0,85.7 624.5,85.8 626.0,85.8 627.4,85.9 628.8,85.9 630.1,85.9 631.4,86.0 632.7,86.0 633.9,86.0 635.1,86.1 636.2,86.1 637.4,86.1 638.5,86.1 639.5,86.1 640.6,86.2 641.6,86.2 642.6,86.2 643.6,86.2 644.5,86.2 645.5,86.3 646.4,86.3 647.3,86.3 648.1,86.3 649.0,86.3 649.8,86.3 650.7,86.3 651.5,86.4 652.7,86.4 653.8,86.4 655.0,86.4 656.1,86.4 657.1,86.4 658.2,86.4 659.2,86.5 660.2,86.5 661.2,86.5 662.1,86.5 663.1,86.5 664.0,86.5 664.9,86.5 665.7,86.5 666.6,86.5 667.5,86.6 668.3,86.6 669.1,86.6 670.1,86.6 671.2,86.6 672.2,86.6 673.2,86.6 674.1,86.6 675.1,86.6 676.0,86.6 676.9,86.6 677.8,86.6 678.7,86.7 679.5,86.7 680.4,86.7 681.2,86.7 682.0,86.7 683.0,86.7 683.9,86.7 684.9,86.7 685.8,86.7 686.7,86.7 687.6,86.7 688.4,86.7 689.3,86.7 690.1,86.7 690.9,86.7 691.7,86.7 692.7,86.8 693.6,86.8 694.5,86.8 695.4,86.8 696.3,86.8 697.1,86.8 698.0,86.8 698.8,86.8 699.6,86.8 700.5,86.8 701.4,86.8 702.3,86.8 703.2,86.8 704.0,86.8 704.8,86.8 705.6,86.8 706.4,86.8 707.3,86.8 708.2,86.8 709.1,86.8 709.9,86.8 710.8,86.8 711.6,86.8 712.5,86.8 713.3,86.8 714.2,86.9 715.1,86.9 715.9,86.9 716.7,86.9 717.6,86.9 718.5,86.9 719.3,86.9 720.1,86.9 721.0,86.9 721.8,86.9 722.6,86.9 723.5,86.9 724.3,86.9 725.1,86.9 725.9,86.9 726.8,86.9 727.6,86.9 728.5,86.9 729.3,86.9 730.1,86.9 731.0,86.9 731.8,86.9 732.6,86.9 733.5,86.9 734.3,86.9 735.2,86.9 736.0,86.9 736.8,86.9 737.7,86.9 738.5,86.9 739.3,86.9 740.1,86.9 741.0,86.9 741.8,86.9 742.6,86.9 743.4,86.9 744.3,86.9 745.1,86.9 745.9,86.9 746.7,86.9 747.6,86.9 748.4,86.9 749.2,86.9 750.1,86.9 750.9,86.9 751.7,87.0 752.5,87.0 753.3,87.0 754.1,87.0 755.0,87.0 755.8,87.0 756.6,87.0 757.4,87.0 758.3,87.0 759.1,87.0 759.9,87.0 760.7,87.0 761.5,87.0 762.3,87.0 763.1,87.0 763.9,87.0 764.8,87.0 765.6,87.0 766.4,87.0 767.2,87.0 768.0,87.0 768.8,87.0 769.6,87.0 770.4,87.0 771.3,87.0 772.1,87.0 772.9,87.0 773.7,87.0 774.5,87.0 L774.5,87.0 L448.2,87.0 Z" fill="url(#g315)"/>
  <defs><clipPath id="pc316"><rect x="445" y="12" width="330" height="150"/></clipPath></defs>
  <polyline points="448.2,59.6 478.3,65.1 495.9,69.2 508.4,72.3 518.1,74.6 526.0,76.3 532.7,77.6 538.5,78.7 543.6,79.5 548.2,80.2 552.3,80.8 556.1,81.3 559.6,81.7 562.8,82.1 565.8,82.4 568.6,82.7 571.2,82.9 573.7,83.1 576.0,83.3 578.3,83.5 580.4,83.7 582.4,83.8 584.3,84.0 586.2,84.1 588.0,84.2 589.7,84.3 591.3,84.4 592.9,84.5 594.4,84.6 595.9,84.7 597.3,84.7 598.7,84.8 600.0,84.9 601.3,84.9 602.6,85.0 603.8,85.1 605.0,85.1 606.1,85.2 607.3,85.2 608.4,85.2 609.4,85.3 610.5,85.3 611.5,85.4 612.5,85.4 613.5,85.4 614.4,85.5 615.4,85.5 616.3,85.5 617.2,85.6 618.1,85.6 618.9,85.6 619.8,85.7 620.6,85.7 621.4,85.7 623.0,85.7 624.5,85.8 626.0,85.8 627.4,85.9 628.8,85.9 630.1,85.9 631.4,86.0 632.7,86.0 633.9,86.0 635.1,86.1 636.2,86.1 637.4,86.1 638.5,86.1 639.5,86.1 640.6,86.2 641.6,86.2 642.6,86.2 643.6,86.2 644.5,86.2 645.5,86.3 646.4,86.3 647.3,86.3 648.1,86.3 649.0,86.3 649.8,86.3 650.7,86.3 651.5,86.4 652.7,86.4 653.8,86.4 655.0,86.4 656.1,86.4 657.1,86.4 658.2,86.4 659.2,86.5 660.2,86.5 661.2,86.5 662.1,86.5 663.1,86.5 664.0,86.5 664.9,86.5 665.7,86.5 666.6,86.5 667.5,86.6 668.3,86.6 669.1,86.6 670.1,86.6 671.2,86.6 672.2,86.6 673.2,86.6 674.1,86.6 675.1,86.6 676.0,86.6 676.9,86.6 677.8,86.6 678.7,86.7 679.5,86.7 680.4,86.7 681.2,86.7 682.0,86.7 683.0,86.7 683.9,86.7 684.9,86.7 685.8,86.7 686.7,86.7 687.6,86.7 688.4,86.7 689.3,86.7 690.1,86.7 690.9,86.7 691.7,86.7 692.7,86.8 693.6,86.8 694.5,86.8 695.4,86.8 696.3,86.8 697.1,86.8 698.0,86.8 698.8,86.8 699.6,86.8 700.5,86.8 701.4,86.8 702.3,86.8 703.2,86.8 704.0,86.8 704.8,86.8 705.6,86.8 706.4,86.8 707.3,86.8 708.2,86.8 709.1,86.8 709.9,86.8 710.8,86.8 711.6,86.8 712.5,86.8 713.3,86.8 714.2,86.9 715.1,86.9 715.9,86.9 716.7,86.9 717.6,86.9 718.5,86.9 719.3,86.9 720.1,86.9 721.0,86.9 721.8,86.9 722.6,86.9 723.5,86.9 724.3,86.9 725.1,86.9 725.9,86.9 726.8,86.9 727.6,86.9 728.5,86.9 729.3,86.9 730.1,86.9 731.0,86.9 731.8,86.9 732.6,86.9 733.5,86.9 734.3,86.9 735.2,86.9 736.0,86.9 736.8,86.9 737.7,86.9 738.5,86.9 739.3,86.9 740.1,86.9 741.0,86.9 741.8,86.9 742.6,86.9 743.4,86.9 744.3,86.9 745.1,86.9 745.9,86.9 746.7,86.9 747.6,86.9 748.4,86.9 749.2,86.9 750.1,86.9 750.9,86.9 751.7,87.0 752.5,87.0 753.3,87.0 754.1,87.0 755.0,87.0 755.8,87.0 756.6,87.0 757.4,87.0 758.3,87.0 759.1,87.0 759.9,87.0 760.7,87.0 761.5,87.0 762.3,87.0 763.1,87.0 763.9,87.0 764.8,87.0 765.6,87.0 766.4,87.0 767.2,87.0 768.0,87.0 768.8,87.0 769.6,87.0 770.4,87.0 771.3,87.0 772.1,87.0 772.9,87.0 773.7,87.0 774.5,87.0" fill="none" stroke="#e74c3c" stroke-width="1.5" stroke-linejoin="round" clip-path="url(#pc316)"/>
  <line x1="55" y1="210" x2="55" y2="360" stroke="#d1d5db"/>
  <line x1="55" y1="285.0" x2="385" y2="285.0" stroke="#d1d5db"/>
  <text x="220" y="388" text-anchor="middle" font-size="9" fill="#6b7280">Hz</text>
  <text x="29" y="285" text-anchor="middle" font-size="9" fill="#6b7280" transform="rotate(-90 29 285)">Group delay</text>
  <line x1="85.1" y1="210" x2="85.1" y2="360" stroke="#e5e7eb" stroke-width="0.5"/>
  <line x1="102.7" y1="210" x2="102.7" y2="360" stroke="#e5e7eb" stroke-width="0.5"/>
  <line x1="115.2" y1="210" x2="115.2" y2="360" stroke="#e5e7eb" stroke-width="0.5"/>
  <line x1="124.9" y1="210" x2="124.9" y2="360" stroke="#e5e7eb" stroke-width="0.5"/>
  <line x1="132.8" y1="210" x2="132.8" y2="360" stroke="#e5e7eb" stroke-width="0.5"/>
  <line x1="139.5" y1="210" x2="139.5" y2="360" stroke="#e5e7eb" stroke-width="0.5"/>
  <line x1="145.3" y1="210" x2="145.3" y2="360" stroke="#e5e7eb" stroke-width="0.5"/>
  <line x1="150.4" y1="210" x2="150.4" y2="360" stroke="#e5e7eb" stroke-width="0.5"/>
  <line x1="185.1" y1="210" x2="185.1" y2="360" stroke="#e5e7eb" stroke-width="0.5"/>
  <line x1="202.7" y1="210" x2="202.7" y2="360" stroke="#e5e7eb" stroke-width="0.5"/>
  <line x1="215.2" y1="210" x2="215.2" y2="360" stroke="#e5e7eb" stroke-width="0.5"/>
  <line x1="224.8" y1="210" x2="224.8" y2="360" stroke="#e5e7eb" stroke-width="0.5"/>
  <line x1="232.8" y1="210" x2="232.8" y2="360" stroke="#e5e7eb" stroke-width="0.5"/>
  <line x1="239.5" y1="210" x2="239.5" y2="360" stroke="#e5e7eb" stroke-width="0.5"/>
  <line x1="245.2" y1="210" x2="245.2" y2="360" stroke="#e5e7eb" stroke-width="0.5"/>
  <line x1="250.4" y1="210" x2="250.4" y2="360" stroke="#e5e7eb" stroke-width="0.5"/>
  <line x1="285.0" y1="210" x2="285.0" y2="360" stroke="#e5e7eb" stroke-width="0.5"/>
  <line x1="302.6" y1="210" x2="302.6" y2="360" stroke="#e5e7eb" stroke-width="0.5"/>
  <line x1="315.1" y1="210" x2="315.1" y2="360" stroke="#e5e7eb" stroke-width="0.5"/>
  <line x1="324.8" y1="210" x2="324.8" y2="360" stroke="#e5e7eb" stroke-width="0.5"/>
  <line x1="332.7" y1="210" x2="332.7" y2="360" stroke="#e5e7eb" stroke-width="0.5"/>
  <line x1="339.4" y1="210" x2="339.4" y2="360" stroke="#e5e7eb" stroke-width="0.5"/>
  <line x1="345.2" y1="210" x2="345.2" y2="360" stroke="#e5e7eb" stroke-width="0.5"/>
  <line x1="350.3" y1="210" x2="350.3" y2="360" stroke="#e5e7eb" stroke-width="0.5"/>
  <line x1="385.0" y1="210" x2="385.0" y2="360" stroke="#e5e7eb" stroke-width="0.5"/>
  <line x1="155.0" y1="210" x2="155.0" y2="360" stroke="#e5e7eb" stroke-width="0.5"/>
  <text x="155.0" y="372" text-anchor="middle" font-size="8" fill="#6b7280">100</text>
  <line x1="254.9" y1="210" x2="254.9" y2="360" stroke="#e5e7eb" stroke-width="0.5"/>
  <text x="254.9" y="372" text-anchor="middle" font-size="8" fill="#6b7280">1k</text>
  <line x1="354.9" y1="210" x2="354.9" y2="360" stroke="#e5e7eb" stroke-width="0.5"/>
  <text x="354.9" y="372" text-anchor="middle" font-size="8" fill="#6b7280">10k</text>
  <line x1="55" y1="323.7" x2="385" y2="323.7" stroke="#e5e7eb" stroke-width="0.5"/>
  <text x="51" y="326.7" text-anchor="end" font-size="8" fill="#6b7280">-400</text>
  <text x="51" y="288.0" text-anchor="end" font-size="8" fill="#6b7280">0</text>
  <line x1="55" y1="246.3" x2="385" y2="246.3" stroke="#e5e7eb" stroke-width="0.5"/>
  <text x="51" y="249.3" text-anchor="end" font-size="8" fill="#6b7280">400</text>
  <defs><linearGradient id="g317" x1="0" y1="210" x2="0" y2="285.0" gradientUnits="userSpaceOnUse">
    <stop offset="0%" stop-color="#2ecc71" stop-opacity="0.15"/>
    <stop offset="100%" stop-color="#2ecc71" stop-opacity="0.02"/>
  </linearGradient></defs>
  <path d="M58.2,227.3 58.2,227.3 88.3,262.0 105.9,273.6 118.4,278.7 128.1,281.2 136.0,282.6 142.7,283.4 148.5,283.9 153.6,284.2 158.2,284.4 162.3,284.5 166.1,284.6 169.6,284.7 172.8,284.8 175.8,284.8 178.6,284.8 181.2,284.9 183.7,284.9 186.0,284.9 188.3,284.9 190.4,284.9 192.4,284.9 194.3,284.9 196.2,285.0 198.0,285.0 199.7,285.0 201.3,285.0 202.9,285.0 204.4,285.0 205.9,285.0 207.3,285.0 208.7,285.0 210.0,285.0 211.3,285.0 212.6,285.0 213.8,285.0 215.0,285.0 216.1,285.0 217.3,285.0 218.4,285.0 219.4,285.0 220.5,285.0 221.5,285.0 222.5,285.0 223.5,285.0 224.4,285.0 225.4,285.0 226.3,285.0 227.2,285.0 228.1,285.0 228.9,285.0 229.8,285.0 230.6,285.0 231.4,285.0 233.0,285.0 234.5,285.0 236.0,285.0 237.4,285.0 238.8,285.0 240.1,285.0 241.4,285.0 242.7,285.0 243.9,285.0 245.1,285.0 246.2,285.0 247.4,285.0 248.5,285.0 249.5,285.0 250.6,285.0 251.6,285.0 252.6,285.0 253.6,285.0 254.5,285.0 255.5,285.0 256.4,285.0 257.3,285.0 258.1,285.0 259.0,285.0 259.8,285.0 260.7,285.0 261.5,285.0 262.7,285.0 263.8,285.0 265.0,285.0 266.1,285.0 267.1,285.0 268.2,285.0 269.2,285.0 270.2,285.0 271.2,285.0 272.1,285.0 273.1,285.0 274.0,285.0 274.9,285.0 275.7,285.0 276.6,285.0 277.5,285.0 278.3,285.0 279.1,285.0 280.1,285.0 281.2,285.0 282.2,285.0 283.2,285.0 284.1,285.0 285.1,285.0 286.0,285.0 286.9,285.0 287.8,285.0 288.7,285.0 289.5,285.0 290.4,285.0 291.2,285.0 292.0,285.0 293.0,285.0 293.9,285.0 294.9,285.0 295.8,285.0 296.7,285.0 297.6,285.0 298.4,285.0 299.3,285.0 300.1,285.0 300.9,285.0 301.7,285.0 302.7,285.0 303.6,285.0 304.5,285.0 305.4,285.0 306.3,285.0 307.1,285.0 308.0,285.0 308.8,285.0 309.6,285.0 310.5,285.0 311.4,285.0 312.3,285.0 313.2,285.0 314.0,285.0 314.8,285.0 315.6,285.0 316.4,285.0 317.3,285.0 318.2,285.0 319.1,285.0 319.9,285.0 320.8,285.0 321.6,285.0 322.5,285.0 323.3,285.0 324.2,285.0 325.1,285.0 325.9,285.0 326.7,285.0 327.6,285.0 328.5,285.0 329.3,285.0 330.1,285.0 331.0,285.0 331.8,285.0 332.6,285.0 333.5,285.0 334.3,285.0 335.1,285.0 335.9,285.0 336.8,285.0 337.6,285.0 338.5,285.0 339.3,285.0 340.1,285.0 341.0,285.0 341.8,285.0 342.6,285.0 343.5,285.0 344.3,285.0 345.2,285.0 346.0,285.0 346.8,285.0 347.7,285.0 348.5,285.0 349.3,285.0 350.1,285.0 351.0,285.0 351.8,285.0 352.6,285.0 353.4,285.0 354.3,285.0 355.1,285.0 355.9,285.0 356.7,285.0 357.6,285.0 358.4,285.0 359.2,285.0 360.1,285.0 360.9,285.0 361.7,285.0 362.5,285.0 363.3,285.0 364.1,285.0 365.0,285.0 365.8,285.0 366.6,285.0 367.4,285.0 368.3,285.0 369.1,285.0 369.9,285.0 370.7,285.0 371.5,285.0 372.3,285.0 373.1,285.0 373.9,285.0 374.8,285.0 375.6,285.0 376.4,285.0 377.2,285.0 378.0,285.0 378.8,285.0 379.6,285.0 380.4,285.0 381.3,285.0 382.1,285.0 382.9,285.0 383.7,285.0 384.5,285.0 L384.5,285.0 L58.2,285.0 Z" fill="url(#g317)"/>
  <defs><clipPath id="pc318"><rect x="55" y="210" width="330" height="150"/></clipPath></defs>
  <polyline points="58.2,227.3 88.3,262.0 105.9,273.6 118.4,278.7 128.1,281.2 136.0,282.6 142.7,283.4 148.5,283.9 153.6,284.2 158.2,284.4 162.3,284.5 166.1,284.6 169.6,284.7 172.8,284.8 175.8,284.8 178.6,284.8 181.2,284.9 183.7,284.9 186.0,284.9 188.3,284.9 190.4,284.9 192.4,284.9 194.3,284.9 196.2,285.0 198.0,285.0 199.7,285.0 201.3,285.0 202.9,285.0 204.4,285.0 205.9,285.0 207.3,285.0 208.7,285.0 210.0,285.0 211.3,285.0 212.6,285.0 213.8,285.0 215.0,285.0 216.1,285.0 217.3,285.0 218.4,285.0 219.4,285.0 220.5,285.0 221.5,285.0 222.5,285.0 223.5,285.0 224.4,285.0 225.4,285.0 226.3,285.0 227.2,285.0 228.1,285.0 228.9,285.0 229.8,285.0 230.6,285.0 231.4,285.0 233.0,285.0 234.5,285.0 236.0,285.0 237.4,285.0 238.8,285.0 240.1,285.0 241.4,285.0 242.7,285.0 243.9,285.0 245.1,285.0 246.2,285.0 247.4,285.0 248.5,285.0 249.5,285.0 250.6,285.0 251.6,285.0 252.6,285.0 253.6,285.0 254.5,285.0 255.5,285.0 256.4,285.0 257.3,285.0 258.1,285.0 259.0,285.0 259.8,285.0 260.7,285.0 261.5,285.0 262.7,285.0 263.8,285.0 265.0,285.0 266.1,285.0 267.1,285.0 268.2,285.0 269.2,285.0 270.2,285.0 271.2,285.0 272.1,285.0 273.1,285.0 274.0,285.0 274.9,285.0 275.7,285.0 276.6,285.0 277.5,285.0 278.3,285.0 279.1,285.0 280.1,285.0 281.2,285.0 282.2,285.0 283.2,285.0 284.1,285.0 285.1,285.0 286.0,285.0 286.9,285.0 287.8,285.0 288.7,285.0 289.5,285.0 290.4,285.0 291.2,285.0 292.0,285.0 293.0,285.0 293.9,285.0 294.9,285.0 295.8,285.0 296.7,285.0 297.6,285.0 298.4,285.0 299.3,285.0 300.1,285.0 300.9,285.0 301.7,285.0 302.7,285.0 303.6,285.0 304.5,285.0 305.4,285.0 306.3,285.0 307.1,285.0 308.0,285.0 308.8,285.0 309.6,285.0 310.5,285.0 311.4,285.0 312.3,285.0 313.2,285.0 314.0,285.0 314.8,285.0 315.6,285.0 316.4,285.0 317.3,285.0 318.2,285.0 319.1,285.0 319.9,285.0 320.8,285.0 321.6,285.0 322.5,285.0 323.3,285.0 324.2,285.0 325.1,285.0 325.9,285.0 326.7,285.0 327.6,285.0 328.5,285.0 329.3,285.0 330.1,285.0 331.0,285.0 331.8,285.0 332.6,285.0 333.5,285.0 334.3,285.0 335.1,285.0 335.9,285.0 336.8,285.0 337.6,285.0 338.5,285.0 339.3,285.0 340.1,285.0 341.0,285.0 341.8,285.0 342.6,285.0 343.5,285.0 344.3,285.0 345.2,285.0 346.0,285.0 346.8,285.0 347.7,285.0 348.5,285.0 349.3,285.0 350.1,285.0 351.0,285.0 351.8,285.0 352.6,285.0 353.4,285.0 354.3,285.0 355.1,285.0 355.9,285.0 356.7,285.0 357.6,285.0 358.4,285.0 359.2,285.0 360.1,285.0 360.9,285.0 361.7,285.0 362.5,285.0 363.3,285.0 364.1,285.0 365.0,285.0 365.8,285.0 366.6,285.0 367.4,285.0 368.3,285.0 369.1,285.0 369.9,285.0 370.7,285.0 371.5,285.0 372.3,285.0 373.1,285.0 373.9,285.0 374.8,285.0 375.6,285.0 376.4,285.0 377.2,285.0 378.0,285.0 378.8,285.0 379.6,285.0 380.4,285.0 381.3,285.0 382.1,285.0 382.9,285.0 383.7,285.0 384.5,285.0" fill="none" stroke="#2ecc71" stroke-width="1.5" stroke-linejoin="round" clip-path="url(#pc318)"/>
  <line x1="445" y1="210" x2="445" y2="360" stroke="#d1d5db"/>
  <line x1="445" y1="285.0" x2="775" y2="285.0" stroke="#d1d5db"/>
  <text x="610" y="388" text-anchor="middle" font-size="9" fill="#6b7280">Samples</text>
  <text x="419" y="285" text-anchor="middle" font-size="9" fill="#6b7280" transform="rotate(-90 419 285)">Impulse response</text>
  <line x1="445.0" y1="210" x2="445.0" y2="360" stroke="#e5e7eb" stroke-width="0.5"/>
  <text x="445.0" y="372" text-anchor="middle" font-size="8" fill="#6b7280">0</text>
  <line x1="527.5" y1="210" x2="527.5" y2="360" stroke="#e5e7eb" stroke-width="0.5"/>
  <text x="527.5" y="372" text-anchor="middle" font-size="8" fill="#6b7280">32</text>
  <line x1="610.0" y1="210" x2="610.0" y2="360" stroke="#e5e7eb" stroke-width="0.5"/>
  <text x="610.0" y="372" text-anchor="middle" font-size="8" fill="#6b7280">64</text>
  <line x1="692.5" y1="210" x2="692.5" y2="360" stroke="#e5e7eb" stroke-width="0.5"/>
  <text x="692.5" y="372" text-anchor="middle" font-size="8" fill="#6b7280">96</text>
  <line x1="775.0" y1="210" x2="775.0" y2="360" stroke="#e5e7eb" stroke-width="0.5"/>
  <text x="775.0" y="372" text-anchor="middle" font-size="8" fill="#6b7280">128</text>
  <line x1="445" y1="337.5" x2="775" y2="337.5" stroke="#e5e7eb" stroke-width="0.5"/>
  <text x="441" y="340.5" text-anchor="end" font-size="8" fill="#6b7280">-0.7</text>
  <text x="441" y="288.0" text-anchor="end" font-size="8" fill="#6b7280">0</text>
  <line x1="445" y1="232.5" x2="775" y2="232.5" stroke="#e5e7eb" stroke-width="0.5"/>
  <text x="441" y="235.5" text-anchor="end" font-size="8" fill="#6b7280">0.7</text>
  <defs><linearGradient id="g319" x1="0" y1="210" x2="0" y2="285.0" gradientUnits="userSpaceOnUse">
    <stop offset="0%" stop-color="#f39c12" stop-opacity="0.15"/>
    <stop offset="100%" stop-color="#f39c12" stop-opacity="0.02"/>
  </linearGradient></defs>
  <path d="M445.0,210.0 445.0,210.0 447.6,285.4 450.2,285.4 452.7,285.4 455.3,285.4 457.9,285.4 460.5,285.4 463.0,285.4 465.6,285.4 468.2,285.4 470.8,285.4 473.4,285.4 475.9,285.4 478.5,285.4 481.1,285.4 483.7,285.3 486.3,285.3 488.8,285.3 491.4,285.3 494.0,285.3 496.6,285.3 499.1,285.3 501.7,285.3 504.3,285.3 506.9,285.3 509.5,285.3 512.0,285.3 514.6,285.3 517.2,285.3 519.8,285.3 522.3,285.3 524.9,285.3 527.5,285.3 530.1,285.3 532.7,285.3 535.2,285.3 537.8,285.3 540.4,285.3 543.0,285.3 545.5,285.3 548.1,285.3 550.7,285.3 553.3,285.3 555.9,285.3 558.4,285.3 561.0,285.3 563.6,285.3 566.2,285.3 568.8,285.3 571.3,285.3 573.9,285.3 576.5,285.3 579.1,285.3 581.6,285.3 584.2,285.3 586.8,285.3 589.4,285.3 592.0,285.3 594.5,285.3 597.1,285.3 599.7,285.3 602.3,285.3 604.8,285.3 607.4,285.3 610.0,285.3 612.6,285.3 615.2,285.3 617.7,285.3 620.3,285.3 622.9,285.3 625.5,285.3 628.0,285.3 630.6,285.3 633.2,285.3 635.8,285.3 638.4,285.3 640.9,285.3 643.5,285.3 646.1,285.3 648.7,285.3 651.3,285.3 653.8,285.3 656.4,285.2 659.0,285.2 661.6,285.2 664.1,285.2 666.7,285.2 669.3,285.2 671.9,285.2 674.5,285.2 677.0,285.2 679.6,285.2 682.2,285.2 684.8,285.2 687.3,285.2 689.9,285.2 692.5,285.2 695.1,285.2 697.7,285.2 700.2,285.2 702.8,285.2 705.4,285.2 708.0,285.2 710.5,285.2 713.1,285.2 715.7,285.2 718.3,285.2 720.9,285.2 723.4,285.2 726.0,285.2 728.6,285.2 731.2,285.2 733.8,285.2 736.3,285.2 738.9,285.2 741.5,285.2 744.1,285.2 746.6,285.2 749.2,285.2 751.8,285.2 754.4,285.2 757.0,285.2 759.5,285.2 762.1,285.2 764.7,285.2 767.3,285.2 769.8,285.2 772.4,285.2 L772.4,285.0 L445.0,285.0 Z" fill="url(#g319)"/>
  <defs><clipPath id="pc320"><rect x="445" y="210" width="330" height="150"/></clipPath></defs>
  <polyline points="445.0,210.0 447.6,285.4 450.2,285.4 452.7,285.4 455.3,285.4 457.9,285.4 460.5,285.4 463.0,285.4 465.6,285.4 468.2,285.4 470.8,285.4 473.4,285.4 475.9,285.4 478.5,285.4 481.1,285.4 483.7,285.3 486.3,285.3 488.8,285.3 491.4,285.3 494.0,285.3 496.6,285.3 499.1,285.3 501.7,285.3 504.3,285.3 506.9,285.3 509.5,285.3 512.0,285.3 514.6,285.3 517.2,285.3 519.8,285.3 522.3,285.3 524.9,285.3 527.5,285.3 530.1,285.3 532.7,285.3 535.2,285.3 537.8,285.3 540.4,285.3 543.0,285.3 545.5,285.3 548.1,285.3 550.7,285.3 553.3,285.3 555.9,285.3 558.4,285.3 561.0,285.3 563.6,285.3 566.2,285.3 568.8,285.3 571.3,285.3 573.9,285.3 576.5,285.3 579.1,285.3 581.6,285.3 584.2,285.3 586.8,285.3 589.4,285.3 592.0,285.3 594.5,285.3 597.1,285.3 599.7,285.3 602.3,285.3 604.8,285.3 607.4,285.3 610.0,285.3 612.6,285.3 615.2,285.3 617.7,285.3 620.3,285.3 622.9,285.3 625.5,285.3 628.0,285.3 630.6,285.3 633.2,285.3 635.8,285.3 638.4,285.3 640.9,285.3 643.5,285.3 646.1,285.3 648.7,285.3 651.3,285.3 653.8,285.3 656.4,285.2 659.0,285.2 661.6,285.2 664.1,285.2 666.7,285.2 669.3,285.2 671.9,285.2 674.5,285.2 677.0,285.2 679.6,285.2 682.2,285.2 684.8,285.2 687.3,285.2 689.9,285.2 692.5,285.2 695.1,285.2 697.7,285.2 700.2,285.2 702.8,285.2 705.4,285.2 708.0,285.2 710.5,285.2 713.1,285.2 715.7,285.2 718.3,285.2 720.9,285.2 723.4,285.2 726.0,285.2 728.6,285.2 731.2,285.2 733.8,285.2 736.3,285.2 738.9,285.2 741.5,285.2 744.1,285.2 746.6,285.2 749.2,285.2 751.8,285.2 754.4,285.2 757.0,285.2 759.5,285.2 762.1,285.2 764.7,285.2 767.3,285.2 769.8,285.2 772.4,285.2" fill="none" stroke="#f39c12" stroke-width="1.3" stroke-linejoin="round" clip-path="url(#pc320)"/>
</svg>
