<svg xmlns="http://www.w3.org/2000/svg" viewBox="0 0 800 240" style="font-family:system-ui,-apple-system,sans-serif">
  <line x1="55" y1="12" x2="55" y2="192" stroke="#d1d5db"/>
  <line x1="55" y1="192" x2="755" y2="192" stroke="#d1d5db"/>
  <text x="405" y="222" text-anchor="middle" font-size="10" fill="#6b7280">Frequency (Hz)</text>
  <text x="17" y="102" text-anchor="middle" font-size="10" fill="#6b7280" transform="rotate(-90 17 102)">Magnitude (dB)</text>
  <line x1="99.4" y1="12" x2="99.4" y2="192" stroke="#e5e7eb" stroke-width="0.5"/>
  <text x="99.4" y="205" text-anchor="middle" font-size="9" fill="#6b7280">31</text>
  <line x1="169.7" y1="12" x2="169.7" y2="192" stroke="#e5e7eb" stroke-width="0.5"/>
  <text x="169.7" y="205" text-anchor="middle" font-size="9" fill="#6b7280">62</text>
  <line x1="240.7" y1="12" x2="240.7" y2="192" stroke="#e5e7eb" stroke-width="0.5"/>
  <text x="240.7" y="205" text-anchor="middle" font-size="9" fill="#6b7280">125</text>
  <line x1="310.9" y1="12" x2="310.9" y2="192" stroke="#e5e7eb" stroke-width="0.5"/>
  <text x="310.9" y="205" text-anchor="middle" font-size="9" fill="#6b7280">250</text>
  <line x1="381.2" y1="12" x2="381.2" y2="192" stroke="#e5e7eb" stroke-width="0.5"/>
  <text x="381.2" y="205" text-anchor="middle" font-size="9" fill="#6b7280">500</text>
  <line x1="451.4" y1="12" x2="451.4" y2="192" stroke="#e5e7eb" stroke-width="0.5"/>
  <text x="451.4" y="205" text-anchor="middle" font-size="9" fill="#6b7280">1k</text>
  <line x1="521.7" y1="12" x2="521.7" y2="192" stroke="#e5e7eb" stroke-width="0.5"/>
  <text x="521.7" y="205" text-anchor="middle" font-size="9" fill="#6b7280">2k</text>
  <line x1="591.9" y1="12" x2="591.9" y2="192" stroke="#e5e7eb" stroke-width="0.5"/>
  <text x="591.9" y="205" text-anchor="middle" font-size="9" fill="#6b7280">4k</text>
  <line x1="662.1" y1="12" x2="662.1" y2="192" stroke="#e5e7eb" stroke-width="0.5"/>
  <text x="662.1" y="205" text-anchor="middle" font-size="9" fill="#6b7280">8k</text>
  <line x1="732.4" y1="12" x2="732.4" y2="192" stroke="#e5e7eb" stroke-width="0.5"/>
  <text x="732.4" y="205" text-anchor="middle" font-size="9" fill="#6b7280">16k</text>
  <line x1="55" y1="22.6" x2="755" y2="22.6" stroke="#e5e7eb" stroke-width="0.5"/>
  <text x="51" y="25.6" text-anchor="end" font-size="9" fill="#6b7280">0</text>
  <line x1="55" y1="64.9" x2="755" y2="64.9" stroke="#e5e7eb" stroke-width="0.5"/>
  <text x="51" y="67.9" text-anchor="end" font-size="9" fill="#6b7280">-20</text>
  <line x1="55" y1="107.3" x2="755" y2="107.3" stroke="#e5e7eb" stroke-width="0.5"/>
  <text x="51" y="110.3" text-anchor="end" font-size="9" fill="#6b7280">-40</text>
  <line x1="55" y1="149.6" x2="755" y2="149.6" stroke="#e5e7eb" stroke-width="0.5"/>
  <text x="51" y="152.6" text-anchor="end" font-size="9" fill="#6b7280">-60</text>
  <line x1="55" y1="192.0" x2="755" y2="192.0" stroke="#e5e7eb" stroke-width="0.5"/>
  <text x="51" y="195.0" text-anchor="end" font-size="9" fill="#6b7280">-80</text>
  <polyline points="132.7,114.9 203.0,102.1 244.1,94.7 273.2,89.4 295.8,85.3 314.3,82.0 329.9,79.2 343.4,76.7 355.4,74.6 366.1,72.7 375.7,71.0 384.5,69.4 392.6,68.0 400.2,66.7 407.1,65.5 413.7,64.3 419.8,63.3 425.6,62.3 431.1,61.3 436.3,60.5 441.2,59.6 446.0,58.8 450.5,58.1 454.8,57.3 458.9,56.6 462.9,56.0 466.7,55.3 470.4,54.7 474.0,54.1 477.4,53.6 480.7,53.0 483.9,52.5 487.0,52.0 490.1,51.5 493.0,51.0 495.9,50.5 498.6,50.0 501.3,49.6 504.0,49.1 506.5,48.7 509.0,48.2 511.5,47.8 513.9,47.4 516.2,47.0 518.5,46.6 520.7,46.2 522.9,45.8 525.0,45.4 527.1,45.0 529.2,44.6 531.2,44.3 533.1,43.9 535.1,43.5 537.0,43.2 538.8,42.8 540.6,42.5 542.4,42.1 544.2,41.8 545.9,41.4 547.6,41.1 549.3,40.8 551.0,40.5 552.6,40.1 554.2,39.8 555.7,39.5 557.3,39.2 558.8,38.9 560.3,38.6 561.8,38.3 563.2,38.1 564.7,37.8 566.1,37.5 567.5,37.2 568.9,37.0 570.2,36.7 571.6,36.5 572.9,36.2 574.2,36.0 575.5,35.7 576.8,35.5 578.0,35.3 579.3,35.0 580.5,34.8 581.7,34.6 582.9,34.4 584.1,34.2 585.3,34.0 586.4,33.8 587.6,33.6 588.7,33.4 589.8,33.2 590.9,33.0 592.0,32.8 593.1,32.6 594.2,32.4 595.3,32.3 596.3,32.1 597.3,31.9 598.4,31.8 599.4,31.6 600.4,31.4 601.4,31.2 602.4,31.1 603.4,30.9 604.3,30.8 605.3,30.6 606.2,30.4 607.2,30.3 608.1,30.1 609.1,29.9 610.0,29.8 610.9,29.6 611.8,29.5 612.7,29.3 613.6,29.1 614.4,29.0 615.3,28.8 616.2,28.7 617.0,28.5 617.9,28.3 618.7,28.2 619.5,28.0 620.4,27.9 621.2,27.7 622.0,27.6 622.8,27.4 623.6,27.2 624.4,27.1 625.2,26.9 626.0,26.8 626.8,26.6 627.5,26.5 628.3,26.3 629.0,26.2 629.8,26.0 630.6,25.9 631.3,25.7 632.0,25.6 632.8,25.4 633.5,25.3 634.2,25.2 634.9,25.0 635.6,24.9 636.3,24.8 637.0,24.6 637.7,24.5 638.4,24.4 639.1,24.2 639.8,24.1 640.5,24.0 641.2,23.9 641.8,23.8 642.5,23.6 643.1,23.5 643.8,23.4 644.5,23.3 645.1,23.2 645.7,23.1 646.4,23.0 647.0,22.9 647.7,22.8 648.3,22.7 648.9,22.6 649.5,22.5 650.1,22.4 650.8,22.3 651.4,22.2 652.0,22.1 652.6,22.0 653.2,21.9 653.8,21.8 654.3,21.7 654.9,21.6 655.5,21.5 656.1,21.4 656.7,21.3 657.3,21.2 657.8,21.1 658.4,21.0 659.0,20.9 659.5,20.8 660.1,20.7 660.6,20.6 661.2,20.5 661.7,20.3 662.3,20.2 662.8,20.1 663.4,20.0 663.9,19.9 664.4,19.8 665.0,19.7 665.5,19.6 666.0,19.5 666.5,19.4 667.1,19.3 667.6,19.2 668.1,19.1 668.6,19.0 669.1,18.9 669.6,18.8 670.1,18.7 670.6,18.6 671.1,18.5 671.6,18.4 672.1,18.3 672.6,18.2 673.1,18.1 673.6,18.0 674.1,17.9 674.6,17.8 675.1,17.8 675.5,17.7 676.0,17.6 676.5,17.5 677.0,17.4 677.4,17.3 677.9,17.2 678.4,17.2 678.8,17.1 679.3,17.0 679.8,16.9 680.2,16.8 680.7,16.8 681.1,16.7 681.6,16.6 682.0,16.5 682.5,16.5 682.9,16.4 683.4,16.3 683.8,16.2 684.2,16.2 684.7,16.1 685.1,16.0 685.5,16.0 686.0,15.9 686.4,15.8 686.8,15.7 687.3,15.7 687.7,15.6 688.1,15.5 688.5,15.5 688.9,15.4 689.4,15.3 689.8,15.2 690.2,15.2 690.6,15.1 691.0,15.0 691.4,14.9 691.8,14.9 692.2,14.8 692.6,14.7 693.1,14.6 693.5,14.6 693.9,14.5 694.3,14.4 694.6,14.3 695.0,14.3 695.4,14.2 695.8,14.1 696.2,14.0 696.6,14.0 697.0,13.9 697.4,13.8 697.8,13.7 698.1,13.6 698.5,13.6 698.9,13.5 699.3,13.4 699.7,13.3 700.0,13.3 700.4,13.2 700.8,13.1 701.2,13.0 701.5,13.0 701.9,12.9 702.3,12.8 702.6,12.8 703.0,12.7 703.4,12.6 703.7,12.6 704.1,12.5 704.5,12.4 704.8,12.4 705.2,12.3 705.5,12.2 705.9,12.2 706.2,12.1 706.6,12.1 706.9,12.0 707.3,12.0 707.6,12.0 708.0,12.0 708.3,12.0 708.7,12.0 709.0,12.0 709.4,12.0 709.7,12.0 710.0,12.0 710.4,12.0 710.7,12.0 711.1,12.0 711.4,12.0 711.7,12.0 712.1,12.0 712.4,12.0 712.7,12.0 713.1,12.0 713.4,12.0 713.7,12.0 714.0,12.0 714.4,12.0 714.7,12.0 715.0,12.0 715.3,12.0 715.7,12.0 716.0,12.0 716.3,12.0 716.6,12.0 716.9,12.0 717.3,12.0 717.6,12.0 717.9,12.0 718.2,12.0 718.5,12.0 718.8,12.0 719.1,12.0 719.5,12.0 719.8,12.0 720.1,12.0 720.4,12.0 720.7,12.0 721.0,12.0 721.3,12.0 721.6,12.0 721.9,12.0 722.2,12.0 722.5,12.0 722.8,12.0 723.1,12.0 723.4,12.0 723.7,12.0 724.0,12.0 724.3,12.0 724.6,12.0 724.9,12.0 725.2,12.0 725.5,12.0 725.8,12.0 726.1,12.0 726.3,12.0 726.6,12.0 726.9,12.0 727.2,12.0 727.5,12.0 727.8,12.0 728.1,12.0 728.3,12.0 728.6,12.0 728.9,12.0 729.2,12.0 729.5,12.0 729.8,12.0 730.0,12.0 730.3,12.0 730.6,12.0 730.9,12.0 731.1,12.0 731.4,12.0 731.7,12.0 732.0,12.0 732.2,12.0 732.5,12.0 732.8,12.0 733.1,12.0 733.3,12.0 733.6,12.0 733.9,12.0 734.1,12.0 734.4,12.0 734.7,12.0 734.9,12.0 735.2,12.0 735.5,12.0 735.7,12.0 736.0,12.0 736.3,12.0 736.5,12.0 736.8,12.0 737.0,12.0 737.3,12.0 737.6,12.0 737.8,12.0 738.1,12.0 738.3,12.0 738.6,12.0 738.9,12.0 739.1,12.0 739.4,12.0 739.6,12.0 739.9,12.0 740.1,12.0 740.4,12.0 740.6,12.0 740.9,12.0 741.1,12.0 741.4,12.0 741.6,12.0 741.9,12.0 742.1,12.0 742.4,12.0 742.6,12.0 742.9,12.0 743.1,12.0 743.4,12.0 743.6,12.0 743.8,12.0 744.1,12.0 744.3,12.0 744.6,12.0 744.8,12.0 745.1,12.0 745.3,12.0 745.5,12.0 745.8,12.0 746.0,12.0 746.3,12.0 746.5,12.0 746.7,12.0 747.0,12.0 747.2,12.0 747.4,12.0 747.7,12.0 747.9,12.0 748.1,12.0 748.4,12.0 748.6,12.0 748.8,12.0 749.1,12.0 749.3,12.0 749.5,12.0 749.8,12.0 750.0,12.0 750.2,12.0 750.4,12.0 750.7,12.0 750.9,12.0 751.1,12.0 751.4,12.0 751.6,12.0 751.8,12.0 752.0,12.0 752.3,12.0 752.5,12.0 752.7,12.0 752.9,12.0 753.2,12.0 753.4,12.0 753.6,12.0 753.8,12.0 754.0,12.0 754.3,12.0 754.5,12.0 754.7,12.0 754.9,12.0" fill="none" stroke="#4a90d9" stroke-width="1.8" stroke-linejoin="round"/>
  <text x="55" y="240" font-size="12" font-weight="600" fill="#6b7280">Differentiator, 31 taps</text>
  <rect x="529" y="19" width="202" height="102" fill="white" fill-opacity="0.85" rx="3"/>
  <text x="532" y="30" font-size="8" fill="#6b7280">Coefficients</text>
  <polyline points="530.0,69.7 536.5,70.3 542.9,69.5 549.4,70.7 555.8,68.9 562.3,71.6 568.7,67.8 575.2,73.1 581.6,65.8 588.1,75.7 594.5,62.2 601.0,80.7 607.4,54.6 613.9,94.2 620.3,20.0 626.8,70.0 633.2,120.0 639.7,45.8 646.1,85.4 652.6,59.3 659.0,77.8 665.5,64.3 671.9,74.2 678.4,66.9 684.8,72.2 691.3,68.4 697.7,71.1 704.2,69.3 710.6,70.5 717.1,69.7 723.5,70.3" fill="none" stroke="#4a90d9" stroke-width="1.3" stroke-linejoin="round"/>
</svg>
