<svg xmlns="http://www.w3.org/2000/svg" viewBox="0 0 800 420" style="font-family:system-ui,-apple-system,sans-serif">
  <text x="55" y="416" font-size="11" font-weight="600" fill="#6b7280">Diode ladder ZDF, fc=1kHz, res=0.5</text>
  <line x1="55" y1="12" x2="55" y2="162" stroke="#d1d5db"/>
  <line x1="55" y1="42.0" x2="385" y2="42.0" stroke="#d1d5db"/>
  <text x="220" y="190" text-anchor="middle" font-size="9" fill="#6b7280">Hz</text>
  <text x="29" y="87" text-anchor="middle" font-size="9" fill="#6b7280" transform="rotate(-90 29 87)">dB</text>
  <line x1="85.1" y1="12" x2="85.1" y2="162" stroke="#e5e7eb" stroke-width="0.5"/>
  <line x1="102.7" y1="12" x2="102.7" y2="162" stroke="#e5e7eb" stroke-width="0.5"/>
  <line x1="115.2" y1="12" x2="115.2" y2="162" stroke="#e5e7eb" stroke-width="0.5"/>
  <line x1="124.9" y1="12" x2="124.9" y2="162" stroke="#e5e7eb" stroke-width="0.5"/>
  <line x1="132.8" y1="12" x2="132.8" y2="162" stroke="#e5e7eb" stroke-width="0.5"/>
  <line x1="139.5" y1="12" x2="139.5" y2="162" stroke="#e5e7eb" stroke-width="0.5"/>
  <line x1="145.3" y1="12" x2="145.3" y2="162" stroke="#e5e7eb" stroke-width="0.5"/>
  <line x1="150.4" y1="12" x2="150.4" y2="162" stroke="#e5e7eb" stroke-width="0.5"/>
  <line x1="185.1" y1="12" x2="185.1" y2="162" stroke="#e5e7eb" stroke-width="0.5"/>
  <line x1="202.7" y1="12" x2="202.7" y2="162" stroke="#e5e7eb" stroke-width="0.5"/>
  <line x1="215.2" y1="12" x2="215.2" y2="162" stroke="#e5e7eb" stroke-width="0.5"/>
  <line x1="224.8" y1="12" x2="224.8" y2="162" stroke="#e5e7eb" stroke-width="0.5"/>
  <line x1="232.8" y1="12" x2="232.8" y2="162" stroke="#e5e7eb" stroke-width="0.5"/>
  <line x1="239.5" y1="12" x2="239.5" y2="162" stroke="#e5e7eb" stroke-width="0.5"/>
  <line x1="245.2" y1="12" x2="245.2" y2="162" stroke="#e5e7eb" stroke-width="0.5"/>
  <line x1="250.4" y1="12" x2="250.4" y2="162" stroke="#e5e7eb" stroke-width="0.5"/>
  <line x1="285.0" y1="12" x2="285.0" y2="162" stroke="#e5e7eb" stroke-width="0.5"/>
  <line x1="302.6" y1="12" x2="302.6" y2="162" stroke="#e5e7eb" stroke-width="0.5"/>
  <line x1="315.1" y1="12" x2="315.1" y2="162" stroke="#e5e7eb" stroke-width="0.5"/>
  <line x1="324.8" y1="12" x2="324.8" y2="162" stroke="#e5e7eb" stroke-width="0.5"/>
  <line x1="332.7" y1="12" x2="332.7" y2="162" stroke="#e5e7eb" stroke-width="0.5"/>
  <line x1="339.4" y1="12" x2="339.4" y2="162" stroke="#e5e7eb" stroke-width="0.5"/>
  <line x1="345.2" y1="12" x2="345.2" y2="162" stroke="#e5e7eb" stroke-width="0.5"/>
  <line x1="350.3" y1="12" x2="350.3" y2="162" stroke="#e5e7eb" stroke-width="0.5"/>
  <line x1="385.0" y1="12" x2="385.0" y2="162" stroke="#e5e7eb" stroke-width="0.5"/>
  <line x1="155.0" y1="12" x2="155.0" y2="162" stroke="#e5e7eb" stroke-width="0.5"/>
  <text x="155.0" y="174" text-anchor="middle" font-size="8" fill="#6b7280">100</text>
  <line x1="254.9" y1="12" x2="254.9" y2="162" stroke="#e5e7eb" stroke-width="0.5"/>
  <text x="254.9" y="174" text-anchor="middle" font-size="8" fill="#6b7280">1k</text>
  <line x1="354.9" y1="12" x2="354.9" y2="162" stroke="#e5e7eb" stroke-width="0.5"/>
  <text x="354.9" y="174" text-anchor="middle" font-size="8" fill="#6b7280">10k</text>
  <line x1="55" y1="27.0" x2="385" y2="27.0" stroke="#e5e7eb" stroke-width="0.5"/>
  <line x1="55" y1="57.0" x2="385" y2="57.0" stroke="#e5e7eb" stroke-width="0.5"/>
  <line x1="55" y1="12.0" x2="385" y2="12.0" stroke="#e5e7eb" stroke-width="0.5"/>
  <text x="51" y="15.0" text-anchor="end" font-size="8" fill="#6b7280">+20</text>
  <text x="51" y="45.0" text-anchor="end" font-size="8" fill="#6b7280">0</text>
  <line x1="55" y1="72.0" x2="385" y2="72.0" stroke="#e5e7eb" stroke-width="0.5"/>
  <text x="51" y="75.0" text-anchor="end" font-size="8" fill="#6b7280">-20</text>
  <line x1="55" y1="102.0" x2="385" y2="102.0" stroke="#e5e7eb" stroke-width="0.5"/>
  <text x="51" y="105.0" text-anchor="end" font-size="8" fill="#6b7280">-40</text>
  <line x1="55" y1="132.0" x2="385" y2="132.0" stroke="#e5e7eb" stroke-width="0.5"/>
  <text x="51" y="135.0" text-anchor="end" font-size="8" fill="#6b7280">-60</text>
  <line x1="55" y1="162.0" x2="385" y2="162.0" stroke="#e5e7eb" stroke-width="0.5"/>
  <text x="51" y="165.0" text-anchor="end" font-size="8" fill="#6b7280">-80</text>
  <defs><linearGradient id="g504" x1="0" y1="12" x2="0" y2="162" gradientUnits="userSpaceOnUse">
    <stop offset="0%" stop-color="#4a90d9" stop-opacity="0.15"/>
    <stop offset="100%" stop-color="#4a90d9" stop-opacity="0.02"/>
  </linearGradient></defs>
  <path d="M58.2,60.5 58.2,60.5 88.3,60.5 105.9,60.5 118.4,60.4 128.1,60.4 136.0,60.4 142.7,60.4 148.5,60.3 153.6,60.3 158.2,60.3 162.3,60.3 166.1,60.2 169.6,60.2 172.8,60.2 175.8,60.1 178.6,60.1 181.2,60.0 183.7,59.9 186.0,59.8 188.3,59.8 190.4,59.7 192.4,59.6 194.3,59.5 196.2,59.4 198.0,59.4 199.7,59.3 201.3,59.2 202.9,59.1 204.4,59.0 205.9,58.9 207.3,58.8 208.7,58.7 210.0,58.5 211.3,58.4 212.6,58.2 213.8,58.1 215.0,57.9 216.1,57.8 217.3,57.6 218.4,57.4 219.4,57.3 220.5,57.1 221.5,56.9 222.5,56.8 223.5,56.6 224.4,56.4 225.4,56.2 226.3,55.9 227.2,55.7 228.1,55.4 228.9,55.2 229.8,54.9 230.6,54.6 231.4,54.3 233.0,53.8 234.5,53.2 236.0,52.6 237.4,51.9 238.8,51.2 240.1,50.5 241.4,49.7 242.7,49.0 243.9,48.3 245.1,47.8 246.2,47.5 247.4,47.5 248.5,47.6 249.5,48.1 250.6,48.7 251.6,49.6 252.6,50.7 253.6,51.9 254.5,53.1 255.5,54.4 256.4,55.6 257.3,56.7 258.1,57.8 259.0,58.9 259.8,59.9 260.7,61.0 261.5,62.1 262.7,63.6 263.8,65.0 265.0,66.2 266.1,67.4 267.1,68.7 268.2,69.9 269.2,71.1 270.2,72.0 271.2,73.0 272.1,74.0 273.1,75.2 274.0,76.2 274.9,77.1 275.7,77.8 276.6,78.6 277.5,79.6 278.3,80.7 279.1,81.5 280.1,82.3 281.2,83.3 282.2,84.7 283.2,85.8 284.1,86.4 285.1,87.3 286.0,88.6 286.9,89.7 287.8,90.2 288.7,91.0 289.5,92.2 290.4,93.3 291.2,93.8 292.0,94.4 293.0,96.0 293.9,97.0 294.9,97.4 295.8,98.9 296.7,100.2 297.6,100.4 298.4,101.6 299.3,103.2 300.1,103.3 300.9,104.1 301.7,105.9 302.7,106.1 303.6,107.1 304.5,109.1 305.4,108.7 306.3,110.7 307.1,111.8 308.0,111.5 308.8,114.1 309.6,113.9 310.5,115.1 311.4,116.9 312.3,116.4 313.2,119.7 314.0,118.2 314.8,121.5 315.6,120.6 316.4,122.3 317.3,123.2 318.2,124.4 319.1,125.3 319.9,126.4 320.8,127.4 321.6,128.3 322.5,128.8 323.3,132.3 324.2,129.6 325.1,136.1 325.9,131.3 326.7,137.7 327.6,135.1 328.5,135.1 329.3,142.8 330.1,136.2 331.0,140.9 331.8,143.2 332.6,138.4 333.5,144.4 334.3,149.0 335.1,141.2 335.9,145.5 336.8,158.6 337.6,147.4 338.5,144.3 339.3,149.7 340.1,162.0 341.0,157.3 341.8,149.3 342.6,148.2 343.5,150.4 344.3,155.4 345.2,162.0 346.0,162.0 346.8,162.0 347.7,160.9 348.5,157.9 349.3,156.2 350.1,156.7 351.0,157.1 351.8,157.6 352.6,159.6 353.4,161.8 354.3,162.0 355.1,162.0 355.9,162.0 356.7,161.4 357.6,159.3 358.4,159.8 359.2,162.0 360.1,162.0 360.9,162.0 361.7,161.1 362.5,162.0 363.3,162.0 364.1,162.0 365.0,162.0 365.8,162.0 366.6,162.0 367.4,162.0 368.3,162.0 369.1,162.0 369.9,162.0 370.7,162.0 371.5,162.0 372.3,162.0 373.1,162.0 373.9,162.0 374.8,162.0 375.6,162.0 376.4,162.0 377.2,162.0 378.0,162.0 378.8,162.0 379.6,162.0 380.4,162.0 381.3,162.0 382.1,162.0 382.9,162.0 383.7,162.0 384.5,162.0 L384.5,162.0 L58.2,162.0 Z" fill="url(#g504)"/>
  <defs><clipPath id="pc505"><rect x="55" y="12" width="330" height="150"/></clipPath></defs>
  <polyline points="58.2,60.5 88.3,60.5 105.9,60.5 118.4,60.4 128.1,60.4 136.0,60.4 142.7,60.4 148.5,60.3 153.6,60.3 158.2,60.3 162.3,60.3 166.1,60.2 169.6,60.2 172.8,60.2 175.8,60.1 178.6,60.1 181.2,60.0 183.7,59.9 186.0,59.8 188.3,59.8 190.4,59.7 192.4,59.6 194.3,59.5 196.2,59.4 198.0,59.4 199.7,59.3 201.3,59.2 202.9,59.1 204.4,59.0 205.9,58.9 207.3,58.8 208.7,58.7 210.0,58.5 211.3,58.4 212.6,58.2 213.8,58.1 215.0,57.9 216.1,57.8 217.3,57.6 218.4,57.4 219.4,57.3 220.5,57.1 221.5,56.9 222.5,56.8 223.5,56.6 224.4,56.4 225.4,56.2 226.3,55.9 227.2,55.7 228.1,55.4 228.9,55.2 229.8,54.9 230.6,54.6 231.4,54.3 233.0,53.8 234.5,53.2 236.0,52.6 237.4,51.9 238.8,51.2 240.1,50.5 241.4,49.7 242.7,49.0 243.9,48.3 245.1,47.8 246.2,47.5 247.4,47.5 248.5,47.6 249.5,48.1 250.6,48.7 251.6,49.6 252.6,50.7 253.6,51.9 254.5,53.1 255.5,54.4 256.4,55.6 257.3,56.7 258.1,57.8 259.0,58.9 259.8,59.9 260.7,61.0 261.5,62.1 262.7,63.6 263.8,65.0 265.0,66.2 266.1,67.4 267.1,68.7 268.2,69.9 269.2,71.1 270.2,72.0 271.2,73.0 272.1,74.0 273.1,75.2 274.0,76.2 274.9,77.1 275.7,77.8 276.6,78.6 277.5,79.6 278.3,80.7 279.1,81.5 280.1,82.3 281.2,83.3 282.2,84.7 283.2,85.8 284.1,86.4 285.1,87.3 286.0,88.6 286.9,89.7 287.8,90.2 288.7,91.0 289.5,92.2 290.4,93.3 291.2,93.8 292.0,94.4 293.0,96.0 293.9,97.0 294.9,97.4 295.8,98.9 296.7,100.2 297.6,100.4 298.4,101.6 299.3,103.2 300.1,103.3 300.9,104.1 301.7,105.9 302.7,106.1 303.6,107.1 304.5,109.1 305.4,108.7 306.3,110.7 307.1,111.8 308.0,111.5 308.8,114.1 309.6,113.9 310.5,115.1 311.4,116.9 312.3,116.4 313.2,119.7 314.0,118.2 314.8,121.5 315.6,120.6 316.4,122.3 317.3,123.2 318.2,124.4 319.1,125.3 319.9,126.4 320.8,127.4 321.6,128.3 322.5,128.8 323.3,132.3 324.2,129.6 325.1,136.1 325.9,131.3 326.7,137.7 327.6,135.1 328.5,135.1 329.3,142.8 330.1,136.2 331.0,140.9 331.8,143.2 332.6,138.4 333.5,144.4 334.3,149.0 335.1,141.2 335.9,145.5 336.8,158.6 337.6,147.4 338.5,144.3 339.3,149.7 340.1,165.5 341.0,157.3 341.8,149.3 342.6,148.2 343.5,150.4 344.3,155.4 345.2,166.2 346.0,175.9 346.8,165.9 347.7,160.9 348.5,157.9 349.3,156.2 350.1,156.7 351.0,157.1 351.8,157.6 352.6,159.6 353.4,161.8 354.3,163.9 355.1,166.2 355.9,164.2 356.7,161.4 357.6,159.3 358.4,159.8 359.2,162.6 360.1,164.8 360.9,162.0 361.7,161.1 362.5,163.7 363.3,164.0 364.1,162.1 365.0,164.0 365.8,164.0 366.6,163.2 367.4,164.8 368.3,163.6 369.1,164.9 369.9,164.0 370.7,165.0 371.5,164.6 372.3,164.9 373.1,165.3 373.9,165.1 374.8,165.4 375.6,165.7 376.4,165.7 377.2,165.7 378.0,165.8 378.8,166.0 379.6,166.1 380.4,166.2 381.3,166.3 382.1,166.4 382.9,166.4 383.7,166.5 384.5,166.6" fill="none" stroke="#4a90d9" stroke-width="1.5" stroke-linejoin="round" clip-path="url(#pc505)"/>
  <line x1="445" y1="12" x2="445" y2="162" stroke="#d1d5db"/>
  <line x1="445" y1="87.0" x2="775" y2="87.0" stroke="#d1d5db"/>
  <text x="610" y="190" text-anchor="middle" font-size="9" fill="#6b7280">Hz</text>
  <text x="419" y="87" text-anchor="middle" font-size="9" fill="#6b7280" transform="rotate(-90 419 87)">Phase (deg)</text>
  <line x1="475.1" y1="12" x2="475.1" y2="162" stroke="#e5e7eb" stroke-width="0.5"/>
  <line x1="492.7" y1="12" x2="492.7" y2="162" stroke="#e5e7eb" stroke-width="0.5"/>
  <line x1="505.2" y1="12" x2="505.2" y2="162" stroke="#e5e7eb" stroke-width="0.5"/>
  <line x1="514.9" y1="12" x2="514.9" y2="162" stroke="#e5e7eb" stroke-width="0.5"/>
  <line x1="522.8" y1="12" x2="522.8" y2="162" stroke="#e5e7eb" stroke-width="0.5"/>
  <line x1="529.5" y1="12" x2="529.5" y2="162" stroke="#e5e7eb" stroke-width="0.5"/>
  <line x1="535.3" y1="12" x2="535.3" y2="162" stroke="#e5e7eb" stroke-width="0.5"/>
  <line x1="540.4" y1="12" x2="540.4" y2="162" stroke="#e5e7eb" stroke-width="0.5"/>
  <line x1="575.1" y1="12" x2="575.1" y2="162" stroke="#e5e7eb" stroke-width="0.5"/>
  <line x1="592.7" y1="12" x2="592.7" y2="162" stroke="#e5e7eb" stroke-width="0.5"/>
  <line x1="605.2" y1="12" x2="605.2" y2="162" stroke="#e5e7eb" stroke-width="0.5"/>
  <line x1="614.8" y1="12" x2="614.8" y2="162" stroke="#e5e7eb" stroke-width="0.5"/>
  <line x1="622.8" y1="12" x2="622.8" y2="162" stroke="#e5e7eb" stroke-width="0.5"/>
  <line x1="629.5" y1="12" x2="629.5" y2="162" stroke="#e5e7eb" stroke-width="0.5"/>
  <line x1="635.2" y1="12" x2="635.2" y2="162" stroke="#e5e7eb" stroke-width="0.5"/>
  <line x1="640.4" y1="12" x2="640.4" y2="162" stroke="#e5e7eb" stroke-width="0.5"/>
  <line x1="675.0" y1="12" x2="675.0" y2="162" stroke="#e5e7eb" stroke-width="0.5"/>
  <line x1="692.6" y1="12" x2="692.6" y2="162" stroke="#e5e7eb" stroke-width="0.5"/>
  <line x1="705.1" y1="12" x2="705.1" y2="162" stroke="#e5e7eb" stroke-width="0.5"/>
  <line x1="714.8" y1="12" x2="714.8" y2="162" stroke="#e5e7eb" stroke-width="0.5"/>
  <line x1="722.7" y1="12" x2="722.7" y2="162" stroke="#e5e7eb" stroke-width="0.5"/>
  <line x1="729.4" y1="12" x2="729.4" y2="162" stroke="#e5e7eb" stroke-width="0.5"/>
  <line x1="735.2" y1="12" x2="735.2" y2="162" stroke="#e5e7eb" stroke-width="0.5"/>
  <line x1="740.3" y1="12" x2="740.3" y2="162" stroke="#e5e7eb" stroke-width="0.5"/>
  <line x1="775.0" y1="12" x2="775.0" y2="162" stroke="#e5e7eb" stroke-width="0.5"/>
  <line x1="545.0" y1="12" x2="545.0" y2="162" stroke="#e5e7eb" stroke-width="0.5"/>
  <text x="545.0" y="174" text-anchor="middle" font-size="8" fill="#6b7280">100</text>
  <line x1="644.9" y1="12" x2="644.9" y2="162" stroke="#e5e7eb" stroke-width="0.5"/>
  <text x="644.9" y="174" text-anchor="middle" font-size="8" fill="#6b7280">1k</text>
  <line x1="744.9" y1="12" x2="744.9" y2="162" stroke="#e5e7eb" stroke-width="0.5"/>
  <text x="744.9" y="174" text-anchor="middle" font-size="8" fill="#6b7280">10k</text>
  <line x1="445" y1="53.3" x2="775" y2="53.3" stroke="#e5e7eb" stroke-width="0.5"/>
  <line x1="445" y1="120.8" x2="775" y2="120.8" stroke="#e5e7eb" stroke-width="0.5"/>
  <line x1="445" y1="19.5" x2="775" y2="19.5" stroke="#e5e7eb" stroke-width="0.5"/>
  <text x="441" y="22.5" text-anchor="end" font-size="8" fill="#6b7280">180</text>
  <text x="441" y="90.0" text-anchor="end" font-size="8" fill="#6b7280">0</text>
  <line x1="445" y1="154.5" x2="775" y2="154.5" stroke="#e5e7eb" stroke-width="0.5"/>
  <text x="441" y="157.5" text-anchor="end" font-size="8" fill="#6b7280">-180</text>
  <defs><linearGradient id="g506" x1="0" y1="12" x2="0" y2="87.0" gradientUnits="userSpaceOnUse">
    <stop offset="0%" stop-color="#e74c3c" stop-opacity="0.15"/>
    <stop offset="100%" stop-color="#e74c3c" stop-opacity="0.02"/>
  </linearGradient></defs>
  <defs><linearGradient id="g507" x1="0" y1="162" x2="0" y2="87.0" gradientUnits="userSpaceOnUse">
    <stop offset="0%" stop-color="#e74c3c" stop-opacity="0.15"/>
    <stop offset="100%" stop-color="#e74c3c" stop-opacity="0.02"/>
  </linearGradient></defs>
  <defs><clipPath id="c508"><rect x="445" y="12" width="330" height="75.0"/></clipPath></defs>
  <defs><clipPath id="c509"><rect x="445" y="87.0" width="330" height="75.0"/></clipPath></defs>
  <path d="M448.2,87.3 448.2,87.3 478.3,87.6 495.9,87.8 508.4,88.1 518.1,88.4 526.0,88.7 532.7,89.1 538.5,89.4 543.6,89.7 548.2,90.0 552.3,90.3 556.1,90.6 559.6,90.9 562.8,91.2 565.8,91.5 568.6,91.8 571.2,92.0 573.7,92.3 576.0,92.6 578.3,93.0 580.4,93.3 582.4,93.6 584.3,93.9 586.2,94.3 588.0,94.6 589.7,94.9 591.3,95.3 592.9,95.6 594.4,95.9 595.9,96.2 597.3,96.6 598.7,96.9 600.0,97.2 601.3,97.6 602.6,97.9 603.8,98.3 605.0,98.7 606.1,99.0 607.3,99.4 608.4,99.9 609.4,100.3 610.5,100.7 611.5,101.1 612.5,101.5 613.5,101.9 614.4,102.3 615.4,102.7 616.3,103.2 617.2,103.6 618.1,104.1 618.9,104.6 619.8,105.1 620.6,105.7 621.4,106.2 623.0,107.5 624.5,108.8 626.0,110.2 627.4,111.7 628.8,113.3 630.1,115.1 631.4,117.3 632.7,119.7 633.9,122.5 635.1,125.6 636.2,128.9 637.4,132.3 638.5,135.9 639.5,139.4 640.6,142.8 641.6,146.0 642.6,148.9 643.6,151.5 644.5,153.8 645.5,20.7 646.4,22.3 647.3,23.8 648.1,25.2 649.0,26.6 649.8,27.9 650.7,29.0 651.5,30.1 652.7,31.3 653.8,32.3 655.0,33.5 656.1,34.7 657.1,35.9 658.2,36.7 659.2,37.4 660.2,38.0 661.2,39.0 662.1,40.0 663.1,40.8 664.0,41.3 664.9,41.7 665.7,42.4 666.6,43.3 667.5,44.1 668.3,44.6 669.1,44.8 670.1,45.5 671.2,46.7 672.2,47.5 673.2,47.7 674.1,48.2 675.1,49.4 676.0,50.2 676.9,50.2 677.8,50.6 678.7,51.8 679.5,52.6 680.4,52.5 681.2,52.7 682.0,53.9 683.0,54.8 683.9,54.4 684.9,55.4 685.8,56.8 686.7,56.2 687.6,56.7 688.4,58.5 689.3,58.1 690.1,57.9 690.9,59.9 691.7,60.0 692.7,59.2 693.6,61.7 694.5,60.7 695.4,61.2 696.3,63.4 697.1,61.3 698.0,63.4 698.8,64.3 699.6,62.3 700.5,66.0 701.4,63.2 702.3,66.2 703.2,65.3 704.0,65.6 704.8,68.0 705.6,64.8 706.4,69.8 707.3,64.9 708.2,70.9 709.1,65.3 709.9,72.0 710.8,65.7 711.6,73.0 712.5,66.4 713.3,73.8 714.2,68.7 715.1,71.6 715.9,72.2 716.7,67.6 717.6,77.0 718.5,67.8 719.3,74.5 720.1,75.5 721.0,65.6 721.8,81.3 722.6,74.2 723.5,64.7 724.3,83.2 725.1,77.4 725.9,64.7 726.8,75.0 727.6,86.5 728.5,75.2 729.3,62.6 730.1,62.6 731.0,95.0 731.8,86.8 732.6,75.3 733.5,67.0 734.3,57.8 735.2,45.6 736.0,125.3 736.8,113.7 737.7,107.2 738.5,101.6 739.3,96.3 740.1,96.8 741.0,97.2 741.8,97.6 742.6,104.9 743.4,113.2 744.3,122.9 745.1,146.0 745.9,33.2 746.7,50.3 747.6,71.7 748.4,92.3 749.2,115.5 750.1,154.2 750.9,54.8 751.7,84.6 752.5,124.5 753.3,35.9 754.1,76.2 755.0,124.2 755.8,42.9 756.6,99.0 757.4,24.2 758.3,90.4 759.1,23.3 759.9,89.8 760.7,31.1 761.5,105.7 762.3,55.6 763.1,138.9 763.9,96.3 764.8,54.2 765.6,19.8 766.4,120.4 767.2,94.7 768.0,69.1 768.8,51.8 769.6,34.4 770.4,25.4 771.3,24.9 772.1,24.4 772.9,32.3 773.7,40.2 774.5,56.6 L774.5,87.0 L448.2,87.0 Z" fill="url(#g506)" clip-path="url(#c508)"/>
  <path d="M448.2,87.3 448.2,87.3 478.3,87.6 495.9,87.8 508.4,88.1 518.1,88.4 526.0,88.7 532.7,89.1 538.5,89.4 543.6,89.7 548.2,90.0 552.3,90.3 556.1,90.6 559.6,90.9 562.8,91.2 565.8,91.5 568.6,91.8 571.2,92.0 573.7,92.3 576.0,92.6 578.3,93.0 580.4,93.3 582.4,93.6 584.3,93.9 586.2,94.3 588.0,94.6 589.7,94.9 591.3,95.3 592.9,95.6 594.4,95.9 595.9,96.2 597.3,96.6 598.7,96.9 600.0,97.2 601.3,97.6 602.6,97.9 603.8,98.3 605.0,98.7 606.1,99.0 607.3,99.4 608.4,99.9 609.4,100.3 610.5,100.7 611.5,101.1 612.5,101.5 613.5,101.9 614.4,102.3 615.4,102.7 616.3,103.2 617.2,103.6 618.1,104.1 618.9,104.6 619.8,105.1 620.6,105.7 621.4,106.2 623.0,107.5 624.5,108.8 626.0,110.2 627.4,111.7 628.8,113.3 630.1,115.1 631.4,117.3 632.7,119.7 633.9,122.5 635.1,125.6 636.2,128.9 637.4,132.3 638.5,135.9 639.5,139.4 640.6,142.8 641.6,146.0 642.6,148.9 643.6,151.5 644.5,153.8 645.5,20.7 646.4,22.3 647.3,23.8 648.1,25.2 649.0,26.6 649.8,27.9 650.7,29.0 651.5,30.1 652.7,31.3 653.8,32.3 655.0,33.5 656.1,34.7 657.1,35.9 658.2,36.7 659.2,37.4 660.2,38.0 661.2,39.0 662.1,40.0 663.1,40.8 664.0,41.3 664.9,41.7 665.7,42.4 666.6,43.3 667.5,44.1 668.3,44.6 669.1,44.8 670.1,45.5 671.2,46.7 672.2,47.5 673.2,47.7 674.1,48.2 675.1,49.4 676.0,50.2 676.9,50.2 677.8,50.6 678.7,51.8 679.5,52.6 680.4,52.5 681.2,52.7 682.0,53.9 683.0,54.8 683.9,54.4 684.9,55.4 685.8,56.8 686.7,56.2 687.6,56.7 688.4,58.5 689.3,58.1 690.1,57.9 690.9,59.9 691.7,60.0 692.7,59.2 693.6,61.7 694.5,60.7 695.4,61.2 696.3,63.4 697.1,61.3 698.0,63.4 698.8,64.3 699.6,62.3 700.5,66.0 701.4,63.2 702.3,66.2 703.2,65.3 704.0,65.6 704.8,68.0 705.6,64.8 706.4,69.8 707.3,64.9 708.2,70.9 709.1,65.3 709.9,72.0 710.8,65.7 711.6,73.0 712.5,66.4 713.3,73.8 714.2,68.7 715.1,71.6 715.9,72.2 716.7,67.6 717.6,77.0 718.5,67.8 719.3,74.5 720.1,75.5 721.0,65.6 721.8,81.3 722.6,74.2 723.5,64.7 724.3,83.2 725.1,77.4 725.9,64.7 726.8,75.0 727.6,86.5 728.5,75.2 729.3,62.6 730.1,62.6 731.0,95.0 731.8,86.8 732.6,75.3 733.5,67.0 734.3,57.8 735.2,45.6 736.0,125.3 736.8,113.7 737.7,107.2 738.5,101.6 739.3,96.3 740.1,96.8 741.0,97.2 741.8,97.6 742.6,104.9 743.4,113.2 744.3,122.9 745.1,146.0 745.9,33.2 746.7,50.3 747.6,71.7 748.4,92.3 749.2,115.5 750.1,154.2 750.9,54.8 751.7,84.6 752.5,124.5 753.3,35.9 754.1,76.2 755.0,124.2 755.8,42.9 756.6,99.0 757.4,24.2 758.3,90.4 759.1,23.3 759.9,89.8 760.7,31.1 761.5,105.7 762.3,55.6 763.1,138.9 763.9,96.3 764.8,54.2 765.6,19.8 766.4,120.4 767.2,94.7 768.0,69.1 768.8,51.8 769.6,34.4 770.4,25.4 771.3,24.9 772.1,24.4 772.9,32.3 773.7,40.2 774.5,56.6 L774.5,87.0 L448.2,87.0 Z" fill="url(#g507)" clip-path="url(#c509)"/>
  <defs><clipPath id="pc510"><rect x="445" y="12" width="330" height="150"/></clipPath></defs>
  <polyline points="448.2,87.3 478.3,87.6 495.9,87.8 508.4,88.1 518.1,88.4 526.0,88.7 532.7,89.1 538.5,89.4 543.6,89.7 548.2,90.0 552.3,90.3 556.1,90.6 559.6,90.9 562.8,91.2 565.8,91.5 568.6,91.8 571.2,92.0 573.7,92.3 576.0,92.6 578.3,93.0 580.4,93.3 582.4,93.6 584.3,93.9 586.2,94.3 588.0,94.6 589.7,94.9 591.3,95.3 592.9,95.6 594.4,95.9 595.9,96.2 597.3,96.6 598.7,96.9 600.0,97.2 601.3,97.6 602.6,97.9 603.8,98.3 605.0,98.7 606.1,99.0 607.3,99.4 608.4,99.9 609.4,100.3 610.5,100.7 611.5,101.1 612.5,101.5 613.5,101.9 614.4,102.3 615.4,102.7 616.3,103.2 617.2,103.6 618.1,104.1 618.9,104.6 619.8,105.1 620.6,105.7 621.4,106.2 623.0,107.5 624.5,108.8 626.0,110.2 627.4,111.7 628.8,113.3 630.1,115.1 631.4,117.3 632.7,119.7 633.9,122.5 635.1,125.6 636.2,128.9 637.4,132.3 638.5,135.9 639.5,139.4 640.6,142.8 641.6,146.0 642.6,148.9 643.6,151.5 644.5,153.8 645.5,20.7 646.4,22.3 647.3,23.8 648.1,25.2 649.0,26.6 649.8,27.9 650.7,29.0 651.5,30.1 652.7,31.3 653.8,32.3 655.0,33.5 656.1,34.7 657.1,35.9 658.2,36.7 659.2,37.4 660.2,38.0 661.2,39.0 662.1,40.0 663.1,40.8 664.0,41.3 664.9,41.7 665.7,42.4 666.6,43.3 667.5,44.1 668.3,44.6 669.1,44.8 670.1,45.5 671.2,46.7 672.2,47.5 673.2,47.7 674.1,48.2 675.1,49.4 676.0,50.2 676.9,50.2 677.8,50.6 678.7,51.8 679.5,52.6 680.4,52.5 681.2,52.7 682.0,53.9 683.0,54.8 683.9,54.4 684.9,55.4 685.8,56.8 686.7,56.2 687.6,56.7 688.4,58.5 689.3,58.1 690.1,57.9 690.9,59.9 691.7,60.0 692.7,59.2 693.6,61.7 694.5,60.7 695.4,61.2 696.3,63.4 697.1,61.3 698.0,63.4 698.8,64.3 699.6,62.3 700.5,66.0 701.4,63.2 702.3,66.2 703.2,65.3 704.0,65.6 704.8,68.0 705.6,64.8 706.4,69.8 707.3,64.9 708.2,70.9 709.1,65.3 709.9,72.0 710.8,65.7 711.6,73.0 712.5,66.4 713.3,73.8 714.2,68.7 715.1,71.6 715.9,72.2 716.7,67.6 717.6,77.0 718.5,67.8 719.3,74.5 720.1,75.5 721.0,65.6 721.8,81.3 722.6,74.2 723.5,64.7 724.3,83.2 725.1,77.4 725.9,64.7 726.8,75.0 727.6,86.5 728.5,75.2 729.3,62.6 730.1,62.6 731.0,95.0 731.8,86.8 732.6,75.3 733.5,67.0 734.3,57.8 735.2,45.6 736.0,125.3 736.8,113.7 737.7,107.2 738.5,101.6 739.3,96.3 740.1,96.8 741.0,97.2 741.8,97.6 742.6,104.9 743.4,113.2 744.3,122.9 745.1,146.0 745.9,33.2 746.7,50.3 747.6,71.7 748.4,92.3 749.2,115.5 750.1,154.2 750.9,54.8 751.7,84.6 752.5,124.5 753.3,35.9 754.1,76.2 755.0,124.2 755.8,42.9 756.6,99.0 757.4,24.2 758.3,90.4 759.1,23.3 759.9,89.8 760.7,31.1 761.5,105.7 762.3,55.6 763.1,138.9 763.9,96.3 764.8,54.2 765.6,19.8 766.4,120.4 767.2,94.7 768.0,69.1 768.8,51.8 769.6,34.4 770.4,25.4 771.3,24.9 772.1,24.4 772.9,32.3 773.7,40.2 774.5,56.6" fill="none" stroke="#e74c3c" stroke-width="1.5" stroke-linejoin="round" clip-path="url(#pc510)"/>
  <line x1="55" y1="210" x2="55" y2="360" stroke="#d1d5db"/>
  <line x1="55" y1="285.0" x2="385" y2="285.0" stroke="#d1d5db"/>
  <text x="220" y="388" text-anchor="middle" font-size="9" fill="#6b7280">Hz</text>
  <text x="29" y="285" text-anchor="middle" font-size="9" fill="#6b7280" transform="rotate(-90 29 285)">Group delay</text>
  <line x1="85.1" y1="210" x2="85.1" y2="360" stroke="#e5e7eb" stroke-width="0.5"/>
  <line x1="102.7" y1="210" x2="102.7" y2="360" stroke="#e5e7eb" stroke-width="0.5"/>
  <line x1="115.2" y1="210" x2="115.2" y2="360" stroke="#e5e7eb" stroke-width="0.5"/>
  <line x1="124.9" y1="210" x2="124.9" y2="360" stroke="#e5e7eb" stroke-width="0.5"/>
  <line x1="132.8" y1="210" x2="132.8" y2="360" stroke="#e5e7eb" stroke-width="0.5"/>
  <line x1="139.5" y1="210" x2="139.5" y2="360" stroke="#e5e7eb" stroke-width="0.5"/>
  <line x1="145.3" y1="210" x2="145.3" y2="360" stroke="#e5e7eb" stroke-width="0.5"/>
  <line x1="150.4" y1="210" x2="150.4" y2="360" stroke="#e5e7eb" stroke-width="0.5"/>
  <line x1="185.1" y1="210" x2="185.1" y2="360" stroke="#e5e7eb" stroke-width="0.5"/>
  <line x1="202.7" y1="210" x2="202.7" y2="360" stroke="#e5e7eb" stroke-width="0.5"/>
  <line x1="215.2" y1="210" x2="215.2" y2="360" stroke="#e5e7eb" stroke-width="0.5"/>
  <line x1="224.8" y1="210" x2="224.8" y2="360" stroke="#e5e7eb" stroke-width="0.5"/>
  <line x1="232.8" y1="210" x2="232.8" y2="360" stroke="#e5e7eb" stroke-width="0.5"/>
  <line x1="239.5" y1="210" x2="239.5" y2="360" stroke="#e5e7eb" stroke-width="0.5"/>
  <line x1="245.2" y1="210" x2="245.2" y2="360" stroke="#e5e7eb" stroke-width="0.5"/>
  <line x1="250.4" y1="210" x2="250.4" y2="360" stroke="#e5e7eb" stroke-width="0.5"/>
  <line x1="285.0" y1="210" x2="285.0" y2="360" stroke="#e5e7eb" stroke-width="0.5"/>
  <line x1="302.6" y1="210" x2="302.6" y2="360" stroke="#e5e7eb" stroke-width="0.5"/>
  <line x1="315.1" y1="210" x2="315.1" y2="360" stroke="#e5e7eb" stroke-width="0.5"/>
  <line x1="324.8" y1="210" x2="324.8" y2="360" stroke="#e5e7eb" stroke-width="0.5"/>
  <line x1="332.7" y1="210" x2="332.7" y2="360" stroke="#e5e7eb" stroke-width="0.5"/>
  <line x1="339.4" y1="210" x2="339.4" y2="360" stroke="#e5e7eb" stroke-width="0.5"/>
  <line x1="345.2" y1="210" x2="345.2" y2="360" stroke="#e5e7eb" stroke-width="0.5"/>
  <line x1="350.3" y1="210" x2="350.3" y2="360" stroke="#e5e7eb" stroke-width="0.5"/>
  <line x1="385.0" y1="210" x2="385.0" y2="360" stroke="#e5e7eb" stroke-width="0.5"/>
  <line x1="155.0" y1="210" x2="155.0" y2="360" stroke="#e5e7eb" stroke-width="0.5"/>
  <text x="155.0" y="372" text-anchor="middle" font-size="8" fill="#6b7280">100</text>
  <line x1="254.9" y1="210" x2="254.9" y2="360" stroke="#e5e7eb" stroke-width="0.5"/>
  <text x="254.9" y="372" text-anchor="middle" font-size="8" fill="#6b7280">1k</text>
  <line x1="354.9" y1="210" x2="354.9" y2="360" stroke="#e5e7eb" stroke-width="0.5"/>
  <text x="354.9" y="372" text-anchor="middle" font-size="8" fill="#6b7280">10k</text>
  <line x1="55" y1="326.5" x2="385" y2="326.5" stroke="#e5e7eb" stroke-width="0.5"/>
  <text x="51" y="329.5" text-anchor="end" font-size="8" fill="#6b7280">-700</text>
  <text x="51" y="288.0" text-anchor="end" font-size="8" fill="#6b7280">0</text>
  <line x1="55" y1="243.5" x2="385" y2="243.5" stroke="#e5e7eb" stroke-width="0.5"/>
  <text x="51" y="246.5" text-anchor="end" font-size="8" fill="#6b7280">700</text>
  <defs><linearGradient id="g511" x1="0" y1="210" x2="0" y2="285.0" gradientUnits="userSpaceOnUse">
    <stop offset="0%" stop-color="#2ecc71" stop-opacity="0.15"/>
    <stop offset="100%" stop-color="#2ecc71" stop-opacity="0.02"/>
  </linearGradient></defs>
  <defs><linearGradient id="g512" x1="0" y1="360" x2="0" y2="285.0" gradientUnits="userSpaceOnUse">
    <stop offset="0%" stop-color="#2ecc71" stop-opacity="0.15"/>
    <stop offset="100%" stop-color="#2ecc71" stop-opacity="0.02"/>
  </linearGradient></defs>
  <defs><clipPath id="c513"><rect x="55" y="210" width="330" height="75.0"/></clipPath></defs>
  <defs><clipPath id="c514"><rect x="55" y="285.0" width="330" height="75.0"/></clipPath></defs>
  <path d="M58.2,284.5 58.2,284.5 88.3,284.5 105.9,284.5 118.4,284.5 128.1,284.5 136.0,284.4 142.7,284.4 148.5,284.4 153.6,284.4 158.2,284.4 162.3,284.5 166.1,284.5 169.6,284.5 172.8,284.5 175.8,284.5 178.6,284.5 181.2,284.5 183.7,284.5 186.0,284.4 188.3,284.4 190.4,284.4 192.4,284.4 194.3,284.4 196.2,284.4 198.0,284.4 199.7,284.4 201.3,284.4 202.9,284.4 204.4,284.4 205.9,284.4 207.3,284.4 208.7,284.4 210.0,284.4 211.3,284.4 212.6,284.4 213.8,284.3 215.0,284.3 216.1,284.3 217.3,284.3 218.4,284.3 219.4,284.3 220.5,284.3 221.5,284.3 222.5,284.3 223.5,284.3 224.4,284.3 225.4,284.2 226.3,284.2 227.2,284.2 228.1,284.1 228.9,284.1 229.8,284.0 230.6,284.0 231.4,283.9 233.0,283.9 234.5,283.8 236.0,283.7 237.4,283.6 238.8,283.4 240.1,283.2 241.4,282.9 242.7,282.6 243.9,282.4 245.1,282.1 246.2,282.0 247.4,281.9 248.5,281.8 249.5,281.9 250.6,282.0 251.6,282.2 252.6,282.5 253.6,282.8 254.5,283.1 255.5,283.4 256.4,283.6 257.3,283.7 258.1,283.8 259.0,283.8 259.8,283.9 260.7,284.0 261.5,284.2 262.7,284.3 263.8,284.4 265.0,284.3 266.1,284.3 267.1,284.4 268.2,284.6 269.2,284.6 270.2,284.5 271.2,284.4 272.1,284.4 273.1,284.6 274.0,284.8 274.9,284.7 275.7,284.5 276.6,284.4 277.5,284.6 278.3,284.8 279.1,284.8 280.1,284.5 281.2,284.5 282.2,284.8 283.2,284.9 284.1,284.6 285.1,284.5 286.0,284.8 286.9,285.0 287.8,284.6 288.7,284.4 289.5,284.9 290.4,285.1 291.2,284.6 292.0,284.4 293.0,285.0 293.9,285.0 294.9,284.3 295.8,284.9 296.7,285.3 297.6,284.4 298.4,284.6 299.3,285.4 300.1,284.5 300.9,284.4 301.7,285.5 302.7,284.5 303.6,284.5 304.5,285.6 305.4,284.1 306.3,285.1 307.1,285.3 308.0,283.9 308.8,285.8 309.6,284.6 310.5,284.6 311.4,285.5 312.3,283.8 313.2,286.4 314.0,283.6 314.8,286.1 315.6,284.1 316.4,284.8 317.3,284.6 318.2,284.7 319.1,284.6 319.9,284.6 320.8,284.7 321.6,284.4 322.5,283.8 323.3,286.6 324.2,282.6 325.1,288.9 325.9,282.2 326.7,288.1 327.6,283.4 328.5,282.5 329.3,290.7 330.1,281.5 331.0,284.7 331.8,285.9 332.6,280.7 333.5,284.5 334.3,288.9 335.1,280.2 335.9,282.0 336.8,300.3 337.6,281.1 338.5,279.2 339.3,280.7 340.1,304.5 341.0,282.8 341.8,278.2 342.6,277.8 343.5,277.6 344.3,277.0 345.2,269.1 346.0,239.4 346.8,265.1 347.7,271.7 348.5,273.6 349.3,274.3 350.1,274.0 351.0,273.7 351.8,273.4 352.6,271.8 353.4,269.6 354.3,266.8 355.1,263.2 355.9,266.7 356.7,270.5 357.6,272.5 358.4,272.2 359.2,269.6 360.1,266.9 360.9,270.6 361.7,271.7 362.5,269.0 363.3,268.9 364.1,271.2 365.0,269.3 365.8,269.5 366.6,270.5 367.4,269.0 368.3,270.5 369.1,269.2 369.9,270.4 370.7,269.5 371.5,270.0 372.3,269.9 373.1,269.6 373.9,270.0 374.8,269.9 375.6,269.7 376.4,269.8 377.2,269.9 378.0,269.9 378.8,269.8 379.6,269.8 380.4,269.8 381.3,269.8 382.1,269.8 382.9,269.8 383.7,269.8 384.5,269.8 L384.5,285.0 L58.2,285.0 Z" fill="url(#g511)" clip-path="url(#c513)"/>
  <path d="M58.2,284.5 58.2,284.5 88.3,284.5 105.9,284.5 118.4,284.5 128.1,284.5 136.0,284.4 142.7,284.4 148.5,284.4 153.6,284.4 158.2,284.4 162.3,284.5 166.1,284.5 169.6,284.5 172.8,284.5 175.8,284.5 178.6,284.5 181.2,284.5 183.7,284.5 186.0,284.4 188.3,284.4 190.4,284.4 192.4,284.4 194.3,284.4 196.2,284.4 198.0,284.4 199.7,284.4 201.3,284.4 202.9,284.4 204.4,284.4 205.9,284.4 207.3,284.4 208.7,284.4 210.0,284.4 211.3,284.4 212.6,284.4 213.8,284.3 215.0,284.3 216.1,284.3 217.3,284.3 218.4,284.3 219.4,284.3 220.5,284.3 221.5,284.3 222.5,284.3 223.5,284.3 224.4,284.3 225.4,284.2 226.3,284.2 227.2,284.2 228.1,284.1 228.9,284.1 229.8,284.0 230.6,284.0 231.4,283.9 233.0,283.9 234.5,283.8 236.0,283.7 237.4,283.6 238.8,283.4 240.1,283.2 241.4,282.9 242.7,282.6 243.9,282.4 245.1,282.1 246.2,282.0 247.4,281.9 248.5,281.8 249.5,281.9 250.6,282.0 251.6,282.2 252.6,282.5 253.6,282.8 254.5,283.1 255.5,283.4 256.4,283.6 257.3,283.7 258.1,283.8 259.0,283.8 259.8,283.9 260.7,284.0 261.5,284.2 262.7,284.3 263.8,284.4 265.0,284.3 266.1,284.3 267.1,284.4 268.2,284.6 269.2,284.6 270.2,284.5 271.2,284.4 272.1,284.4 273.1,284.6 274.0,284.8 274.9,284.7 275.7,284.5 276.6,284.4 277.5,284.6 278.3,284.8 279.1,284.8 280.1,284.5 281.2,284.5 282.2,284.8 283.2,284.9 284.1,284.6 285.1,284.5 286.0,284.8 286.9,285.0 287.8,284.6 288.7,284.4 289.5,284.9 290.4,285.1 291.2,284.6 292.0,284.4 293.0,285.0 293.9,285.0 294.9,284.3 295.8,284.9 296.7,285.3 297.6,284.4 298.4,284.6 299.3,285.4 300.1,284.5 300.9,284.4 301.7,285.5 302.7,284.5 303.6,284.5 304.5,285.6 305.4,284.1 306.3,285.1 307.1,285.3 308.0,283.9 308.8,285.8 309.6,284.6 310.5,284.6 311.4,285.5 312.3,283.8 313.2,286.4 314.0,283.6 314.8,286.1 315.6,284.1 316.4,284.8 317.3,284.6 318.2,284.7 319.1,284.6 319.9,284.6 320.8,284.7 321.6,284.4 322.5,283.8 323.3,286.6 324.2,282.6 325.1,288.9 325.9,282.2 326.7,288.1 327.6,283.4 328.5,282.5 329.3,290.7 330.1,281.5 331.0,284.7 331.8,285.9 332.6,280.7 333.5,284.5 334.3,288.9 335.1,280.2 335.9,282.0 336.8,300.3 337.6,281.1 338.5,279.2 339.3,280.7 340.1,304.5 341.0,282.8 341.8,278.2 342.6,277.8 343.5,277.6 344.3,277.0 345.2,269.1 346.0,239.4 346.8,265.1 347.7,271.7 348.5,273.6 349.3,274.3 350.1,274.0 351.0,273.7 351.8,273.4 352.6,271.8 353.4,269.6 354.3,266.8 355.1,263.2 355.9,266.7 356.7,270.5 357.6,272.5 358.4,272.2 359.2,269.6 360.1,266.9 360.9,270.6 361.7,271.7 362.5,269.0 363.3,268.9 364.1,271.2 365.0,269.3 365.8,269.5 366.6,270.5 367.4,269.0 368.3,270.5 369.1,269.2 369.9,270.4 370.7,269.5 371.5,270.0 372.3,269.9 373.1,269.6 373.9,270.0 374.8,269.9 375.6,269.7 376.4,269.8 377.2,269.9 378.0,269.9 378.8,269.8 379.6,269.8 380.4,269.8 381.3,269.8 382.1,269.8 382.9,269.8 383.7,269.8 384.5,269.8 L384.5,285.0 L58.2,285.0 Z" fill="url(#g512)" clip-path="url(#c514)"/>
  <defs><clipPath id="pc515"><rect x="55" y="210" width="330" height="150"/></clipPath></defs>
  <polyline points="58.2,284.5 88.3,284.5 105.9,284.5 118.4,284.5 128.1,284.5 136.0,284.4 142.7,284.4 148.5,284.4 153.6,284.4 158.2,284.4 162.3,284.5 166.1,284.5 169.6,284.5 172.8,284.5 175.8,284.5 178.6,284.5 181.2,284.5 183.7,284.5 186.0,284.4 188.3,284.4 190.4,284.4 192.4,284.4 194.3,284.4 196.2,284.4 198.0,284.4 199.7,284.4 201.3,284.4 202.9,284.4 204.4,284.4 205.9,284.4 207.3,284.4 208.7,284.4 210.0,284.4 211.3,284.4 212.6,284.4 213.8,284.3 215.0,284.3 216.1,284.3 217.3,284.3 218.4,284.3 219.4,284.3 220.5,284.3 221.5,284.3 222.5,284.3 223.5,284.3 224.4,284.3 225.4,284.2 226.3,284.2 227.2,284.2 228.1,284.1 228.9,284.1 229.8,284.0 230.6,284.0 231.4,283.9 233.0,283.9 234.5,283.8 236.0,283.7 237.4,283.6 238.8,283.4 240.1,283.2 241.4,282.9 242.7,282.6 243.9,282.4 245.1,282.1 246.2,282.0 247.4,281.9 248.5,281.8 249.5,281.9 250.6,282.0 251.6,282.2 252.6,282.5 253.6,282.8 254.5,283.1 255.5,283.4 256.4,283.6 257.3,283.7 258.1,283.8 259.0,283.8 259.8,283.9 260.7,284.0 261.5,284.2 262.7,284.3 263.8,284.4 265.0,284.3 266.1,284.3 267.1,284.4 268.2,284.6 269.2,284.6 270.2,284.5 271.2,284.4 272.1,284.4 273.1,284.6 274.0,284.8 274.9,284.7 275.7,284.5 276.6,284.4 277.5,284.6 278.3,284.8 279.1,284.8 280.1,284.5 281.2,284.5 282.2,284.8 283.2,284.9 284.1,284.6 285.1,284.5 286.0,284.8 286.9,285.0 287.8,284.6 288.7,284.4 289.5,284.9 290.4,285.1 291.2,284.6 292.0,284.4 293.0,285.0 293.9,285.0 294.9,284.3 295.8,284.9 296.7,285.3 297.6,284.4 298.4,284.6 299.3,285.4 300.1,284.5 300.9,284.4 301.7,285.5 302.7,284.5 303.6,284.5 304.5,285.6 305.4,284.1 306.3,285.1 307.1,285.3 308.0,283.9 308.8,285.8 309.6,284.6 310.5,284.6 311.4,285.5 312.3,283.8 313.2,286.4 314.0,283.6 314.8,286.1 315.6,284.1 316.4,284.8 317.3,284.6 318.2,284.7 319.1,284.6 319.9,284.6 320.8,284.7 321.6,284.4 322.5,283.8 323.3,286.6 324.2,282.6 325.1,288.9 325.9,282.2 326.7,288.1 327.6,283.4 328.5,282.5 329.3,290.7 330.1,281.5 331.0,284.7 331.8,285.9 332.6,280.7 333.5,284.5 334.3,288.9 335.1,280.2 335.9,282.0 336.8,300.3 337.6,281.1 338.5,279.2 339.3,280.7 340.1,304.5 341.0,282.8 341.8,278.2 342.6,277.8 343.5,277.6 344.3,277.0 345.2,269.1 346.0,239.4 346.8,265.1 347.7,271.7 348.5,273.6 349.3,274.3 350.1,274.0 351.0,273.7 351.8,273.4 352.6,271.8 353.4,269.6 354.3,266.8 355.1,263.2 355.9,266.7 356.7,270.5 357.6,272.5 358.4,272.2 359.2,269.6 360.1,266.9 360.9,270.6 361.7,271.7 362.5,269.0 363.3,268.9 364.1,271.2 365.0,269.3 365.8,269.5 366.6,270.5 367.4,269.0 368.3,270.5 369.1,269.2 369.9,270.4 370.7,269.5 371.5,270.0 372.3,269.9 373.1,269.6 373.9,270.0 374.8,269.9 375.6,269.7 376.4,269.8 377.2,269.9 378.0,269.9 378.8,269.8 379.6,269.8 380.4,269.8 381.3,269.8 382.1,269.8 382.9,269.8 383.7,269.8 384.5,269.8" fill="none" stroke="#2ecc71" stroke-width="1.5" stroke-linejoin="round" clip-path="url(#pc515)"/>
  <line x1="445" y1="210" x2="445" y2="360" stroke="#d1d5db"/>
  <line x1="445" y1="285.0" x2="775" y2="285.0" stroke="#d1d5db"/>
  <text x="610" y="388" text-anchor="middle" font-size="9" fill="#6b7280">Samples</text>
  <text x="419" y="285" text-anchor="middle" font-size="9" fill="#6b7280" transform="rotate(-90 419 285)">Impulse response</text>
  <line x1="445.0" y1="210" x2="445.0" y2="360" stroke="#e5e7eb" stroke-width="0.5"/>
  <text x="445.0" y="372" text-anchor="middle" font-size="8" fill="#6b7280">0</text>
  <line x1="561.0" y1="210" x2="561.0" y2="360" stroke="#e5e7eb" stroke-width="0.5"/>
  <text x="561.0" y="372" text-anchor="middle" font-size="8" fill="#6b7280">90</text>
  <line x1="677.0" y1="210" x2="677.0" y2="360" stroke="#e5e7eb" stroke-width="0.5"/>
  <text x="677.0" y="372" text-anchor="middle" font-size="8" fill="#6b7280">180</text>
  <line x1="445" y1="356.8" x2="775" y2="356.8" stroke="#e5e7eb" stroke-width="0.5"/>
  <text x="441" y="359.8" text-anchor="end" font-size="8" fill="#6b7280">-0.02</text>
  <text x="441" y="288.0" text-anchor="end" font-size="8" fill="#6b7280">0</text>
  <line x1="445" y1="213.2" x2="775" y2="213.2" stroke="#e5e7eb" stroke-width="0.5"/>
  <text x="441" y="216.2" text-anchor="end" font-size="8" fill="#6b7280">0.02</text>
  <defs><linearGradient id="g516" x1="0" y1="210" x2="0" y2="285.0" gradientUnits="userSpaceOnUse">
    <stop offset="0%" stop-color="#f39c12" stop-opacity="0.15"/>
    <stop offset="100%" stop-color="#f39c12" stop-opacity="0.02"/>
  </linearGradient></defs>
  <defs><linearGradient id="g517" x1="0" y1="360" x2="0" y2="285.0" gradientUnits="userSpaceOnUse">
    <stop offset="0%" stop-color="#f39c12" stop-opacity="0.15"/>
    <stop offset="100%" stop-color="#f39c12" stop-opacity="0.02"/>
  </linearGradient></defs>
  <defs><clipPath id="c518"><rect x="445" y="210" width="330" height="75.0"/></clipPath></defs>
  <defs><clipPath id="c519"><rect x="445" y="285.0" width="330" height="75.0"/></clipPath></defs>
  <path d="M445.0,284.9 445.0,284.9 446.3,284.6 447.6,283.5 448.9,281.4 450.2,277.9 451.4,273.3 452.7,267.7 454.0,261.3 455.3,254.4 456.6,247.4 457.9,240.4 459.2,233.8 460.5,227.7 461.8,222.4 463.0,217.9 464.3,214.3 465.6,211.8 466.9,210.4 468.2,210.0 469.5,210.7 470.8,212.5 472.1,215.2 473.4,218.8 474.6,223.3 475.9,228.5 477.2,234.4 478.5,240.8 479.8,247.5 481.1,254.6 482.4,261.8 483.7,269.1 485.0,276.4 486.3,283.4 487.5,290.3 488.8,296.7 490.1,302.8 491.4,308.3 492.7,313.2 494.0,317.6 495.3,321.2 496.6,324.2 497.9,326.5 499.1,328.0 500.4,328.9 501.7,329.1 503.0,328.6 504.3,327.4 505.6,325.7 506.9,323.4 508.2,320.7 509.5,317.5 510.7,314.0 512.0,310.2 513.3,306.1 514.6,301.9 515.9,297.7 517.2,293.4 518.5,289.1 519.8,285.0 521.1,281.0 522.3,277.2 523.6,273.7 524.9,270.6 526.2,267.7 527.5,265.3 528.8,263.2 530.1,261.6 531.4,260.3 532.7,259.5 533.9,259.1 535.2,259.1 536.5,259.5 537.8,260.2 539.1,261.3 540.4,262.7 541.7,264.4 543.0,266.3 544.3,268.4 545.5,270.7 546.8,273.1 548.1,275.6 549.4,278.2 550.7,280.7 552.0,283.2 553.3,285.6 554.6,287.9 555.9,290.1 557.1,292.1 558.4,293.9 559.7,295.5 561.0,296.9 562.3,298.1 563.6,299.0 564.9,299.7 566.2,300.1 567.5,300.3 568.8,300.2 570.0,300.0 571.3,299.5 572.6,298.8 573.9,297.9 575.2,296.9 576.5,295.7 577.8,294.4 579.1,293.1 580.4,291.6 581.6,290.2 582.9,288.7 584.2,287.2 585.5,285.7 586.8,284.3 588.1,283.0 589.4,281.7 590.7,280.6 592.0,279.5 593.2,278.6 594.5,277.8 595.8,277.1 597.1,276.6 598.4,276.3 599.7,276.1 601.0,276.0 602.3,276.1 603.6,276.3 604.8,276.6 606.1,277.0 607.4,277.5 608.7,278.2 610.0,278.9 611.3,279.6 612.6,280.4 613.9,281.3 615.2,282.2 616.4,283.0 617.7,283.9 619.0,284.8 620.3,285.6 621.6,286.4 622.9,287.1 624.2,287.8 625.5,288.4 626.8,288.9 628.0,289.3 629.3,289.7 630.6,290.0 631.9,290.2 633.2,290.3 634.5,290.3 635.8,290.2 637.1,290.1 638.4,289.9 639.6,289.6 640.9,289.3 642.2,288.9 643.5,288.5 644.8,288.0 646.1,287.6 647.4,287.1 648.7,286.5 650.0,286.0 651.3,285.5 652.5,285.0 653.8,284.5 655.1,284.1 656.4,283.7 657.7,283.3 659.0,282.9 660.3,282.6 661.6,282.4 662.9,282.2 664.1,282.0 665.4,281.9 666.7,281.9 668.0,281.9 669.3,281.9 670.6,282.0 671.9,282.1 673.2,282.3 674.5,282.5 675.7,282.7 677.0,283.0 678.3,283.3 679.6,283.6 680.9,283.9 682.2,284.2 683.5,284.5 684.8,284.8 686.1,285.1 687.3,285.3 688.6,285.6 689.9,285.8 691.2,286.1 692.5,286.3 693.8,286.4 695.1,286.6 696.4,286.7 697.7,286.8 698.9,286.8 700.2,286.8 701.5,286.8 702.8,286.8 704.1,286.7 705.4,286.7 706.7,286.6 708.0,286.4 709.3,286.3 710.5,286.1 711.8,286.0 713.1,285.8 714.4,285.6 715.7,285.4 717.0,285.3 718.3,285.1 719.6,284.9 720.9,284.8 722.1,284.6 723.4,284.5 724.7,284.3 726.0,284.2 727.3,284.1 728.6,284.1 729.9,284.0 731.2,284.0 732.5,283.9 733.8,283.9 735.0,283.9 736.3,283.9 737.6,284.0 738.9,284.0 740.2,284.1 741.5,284.2 742.8,284.3 744.1,284.3 745.4,284.4 746.6,284.6 747.9,284.7 749.2,284.8 750.5,284.9 751.8,285.0 753.1,285.1 754.4,285.2 755.7,285.3 757.0,285.3 758.2,285.4 759.5,285.5 760.8,285.5 762.1,285.6 763.4,285.6 764.7,285.6 766.0,285.6 767.3,285.6 768.6,285.6 769.8,285.6 771.1,285.6 772.4,285.6 773.7,285.5 L773.7,285.0 L445.0,285.0 Z" fill="url(#g516)" clip-path="url(#c518)"/>
  <path d="M445.0,284.9 445.0,284.9 446.3,284.6 447.6,283.5 448.9,281.4 450.2,277.9 451.4,273.3 452.7,267.7 454.0,261.3 455.3,254.4 456.6,247.4 457.9,240.4 459.2,233.8 460.5,227.7 461.8,222.4 463.0,217.9 464.3,214.3 465.6,211.8 466.9,210.4 468.2,210.0 469.5,210.7 470.8,212.5 472.1,215.2 473.4,218.8 474.6,223.3 475.9,228.5 477.2,234.4 478.5,240.8 479.8,247.5 481.1,254.6 482.4,261.8 483.7,269.1 485.0,276.4 486.3,283.4 487.5,290.3 488.8,296.7 490.1,302.8 491.4,308.3 492.7,313.2 494.0,317.6 495.3,321.2 496.6,324.2 497.9,326.5 499.1,328.0 500.4,328.9 501.7,329.1 503.0,328.6 504.3,327.4 505.6,325.7 506.9,323.4 508.2,320.7 509.5,317.5 510.7,314.0 512.0,310.2 513.3,306.1 514.6,301.9 515.9,297.7 517.2,293.4 518.5,289.1 519.8,285.0 521.1,281.0 522.3,277.2 523.6,273.7 524.9,270.6 526.2,267.7 527.5,265.3 528.8,263.2 530.1,261.6 531.4,260.3 532.7,259.5 533.9,259.1 535.2,259.1 536.5,259.5 537.8,260.2 539.1,261.3 540.4,262.7 541.7,264.4 543.0,266.3 544.3,268.4 545.5,270.7 546.8,273.1 548.1,275.6 549.4,278.2 550.7,280.7 552.0,283.2 553.3,285.6 554.6,287.9 555.9,290.1 557.1,292.1 558.4,293.9 559.7,295.5 561.0,296.9 562.3,298.1 563.6,299.0 564.9,299.7 566.2,300.1 567.5,300.3 568.8,300.2 570.0,300.0 571.3,299.5 572.6,298.8 573.9,297.9 575.2,296.9 576.5,295.7 577.8,294.4 579.1,293.1 580.4,291.6 581.6,290.2 582.9,288.7 584.2,287.2 585.5,285.7 586.8,284.3 588.1,283.0 589.4,281.7 590.7,280.6 592.0,279.5 593.2,278.6 594.5,277.8 595.8,277.1 597.1,276.6 598.4,276.3 599.7,276.1 601.0,276.0 602.3,276.1 603.6,276.3 604.8,276.6 606.1,277.0 607.4,277.5 608.7,278.2 610.0,278.9 611.3,279.6 612.6,280.4 613.9,281.3 615.2,282.2 616.4,283.0 617.7,283.9 619.0,284.8 620.3,285.6 621.6,286.4 622.9,287.1 624.2,287.8 625.5,288.4 626.8,288.9 628.0,289.3 629.3,289.7 630.6,290.0 631.9,290.2 633.2,290.3 634.5,290.3 635.8,290.2 637.1,290.1 638.4,289.9 639.6,289.6 640.9,289.3 642.2,288.9 643.5,288.5 644.8,288.0 646.1,287.6 647.4,287.1 648.7,286.5 650.0,286.0 651.3,285.5 652.5,285.0 653.8,284.5 655.1,284.1 656.4,283.7 657.7,283.3 659.0,282.9 660.3,282.6 661.6,282.4 662.9,282.2 664.1,282.0 665.4,281.9 666.7,281.9 668.0,281.9 669.3,281.9 670.6,282.0 671.9,282.1 673.2,282.3 674.5,282.5 675.7,282.7 677.0,283.0 678.3,283.3 679.6,283.6 680.9,283.9 682.2,284.2 683.5,284.5 684.8,284.8 686.1,285.1 687.3,285.3 688.6,285.6 689.9,285.8 691.2,286.1 692.5,286.3 693.8,286.4 695.1,286.6 696.4,286.7 697.7,286.8 698.9,286.8 700.2,286.8 701.5,286.8 702.8,286.8 704.1,286.7 705.4,286.7 706.7,286.6 708.0,286.4 709.3,286.3 710.5,286.1 711.8,286.0 713.1,285.8 714.4,285.6 715.7,285.4 717.0,285.3 718.3,285.1 719.6,284.9 720.9,284.8 722.1,284.6 723.4,284.5 724.7,284.3 726.0,284.2 727.3,284.1 728.6,284.1 729.9,284.0 731.2,284.0 732.5,283.9 733.8,283.9 735.0,283.9 736.3,283.9 737.6,284.0 738.9,284.0 740.2,284.1 741.5,284.2 742.8,284.3 744.1,284.3 745.4,284.4 746.6,284.6 747.9,284.7 749.2,284.8 750.5,284.9 751.8,285.0 753.1,285.1 754.4,285.2 755.7,285.3 757.0,285.3 758.2,285.4 759.5,285.5 760.8,285.5 762.1,285.6 763.4,285.6 764.7,285.6 766.0,285.6 767.3,285.6 768.6,285.6 769.8,285.6 771.1,285.6 772.4,285.6 773.7,285.5 L773.7,285.0 L445.0,285.0 Z" fill="url(#g517)" clip-path="url(#c519)"/>
  <defs><clipPath id="pc520"><rect x="445" y="210" width="330" height="150"/></clipPath></defs>
  <polyline points="445.0,284.9 446.3,284.6 447.6,283.5 448.9,281.4 450.2,277.9 451.4,273.3 452.7,267.7 454.0,261.3 455.3,254.4 456.6,247.4 457.9,240.4 459.2,233.8 460.5,227.7 461.8,222.4 463.0,217.9 464.3,214.3 465.6,211.8 466.9,210.4 468.2,210.0 469.5,210.7 470.8,212.5 472.1,215.2 473.4,218.8 474.6,223.3 475.9,228.5 477.2,234.4 478.5,240.8 479.8,247.5 481.1,254.6 482.4,261.8 483.7,269.1 485.0,276.4 486.3,283.4 487.5,290.3 488.8,296.7 490.1,302.8 491.4,308.3 492.7,313.2 494.0,317.6 495.3,321.2 496.6,324.2 497.9,326.5 499.1,328.0 500.4,328.9 501.7,329.1 503.0,328.6 504.3,327.4 505.6,325.7 506.9,323.4 508.2,320.7 509.5,317.5 510.7,314.0 512.0,310.2 513.3,306.1 514.6,301.9 515.9,297.7 517.2,293.4 518.5,289.1 519.8,285.0 521.1,281.0 522.3,277.2 523.6,273.7 524.9,270.6 526.2,267.7 527.5,265.3 528.8,263.2 530.1,261.6 531.4,260.3 532.7,259.5 533.9,259.1 535.2,259.1 536.5,259.5 537.8,260.2 539.1,261.3 540.4,262.7 541.7,264.4 543.0,266.3 544.3,268.4 545.5,270.7 546.8,273.1 548.1,275.6 549.4,278.2 550.7,280.7 552.0,283.2 553.3,285.6 554.6,287.9 555.9,290.1 557.1,292.1 558.4,293.9 559.7,295.5 561.0,296.9 562.3,298.1 563.6,299.0 564.9,299.7 566.2,300.1 567.5,300.3 568.8,300.2 570.0,300.0 571.3,299.5 572.6,298.8 573.9,297.9 575.2,296.9 576.5,295.7 577.8,294.4 579.1,293.1 580.4,291.6 581.6,290.2 582.9,288.7 584.2,287.2 585.5,285.7 586.8,284.3 588.1,283.0 589.4,281.7 590.7,280.6 592.0,279.5 593.2,278.6 594.5,277.8 595.8,277.1 597.1,276.6 598.4,276.3 599.7,276.1 601.0,276.0 602.3,276.1 603.6,276.3 604.8,276.6 606.1,277.0 607.4,277.5 608.7,278.2 610.0,278.9 611.3,279.6 612.6,280.4 613.9,281.3 615.2,282.2 616.4,283.0 617.7,283.9 619.0,284.8 620.3,285.6 621.6,286.4 622.9,287.1 624.2,287.8 625.5,288.4 626.8,288.9 628.0,289.3 629.3,289.7 630.6,290.0 631.9,290.2 633.2,290.3 634.5,290.3 635.8,290.2 637.1,290.1 638.4,289.9 639.6,289.6 640.9,289.3 642.2,288.9 643.5,288.5 644.8,288.0 646.1,287.6 647.4,287.1 648.7,286.5 650.0,286.0 651.3,285.5 652.5,285.0 653.8,284.5 655.1,284.1 656.4,283.7 657.7,283.3 659.0,282.9 660.3,282.6 661.6,282.4 662.9,282.2 664.1,282.0 665.4,281.9 666.7,281.9 668.0,281.9 669.3,281.9 670.6,282.0 671.9,282.1 673.2,282.3 674.5,282.5 675.7,282.7 677.0,283.0 678.3,283.3 679.6,283.6 680.9,283.9 682.2,284.2 683.5,284.5 684.8,284.8 686.1,285.1 687.3,285.3 688.6,285.6 689.9,285.8 691.2,286.1 692.5,286.3 693.8,286.4 695.1,286.6 696.4,286.7 697.7,286.8 698.9,286.8 700.2,286.8 701.5,286.8 702.8,286.8 704.1,286.7 705.4,286.7 706.7,286.6 708.0,286.4 709.3,286.3 710.5,286.1 711.8,286.0 713.1,285.8 714.4,285.6 715.7,285.4 717.0,285.3 718.3,285.1 719.6,284.9 720.9,284.8 722.1,284.6 723.4,284.5 724.7,284.3 726.0,284.2 727.3,284.1 728.6,284.1 729.9,284.0 731.2,284.0 732.5,283.9 733.8,283.9 735.0,283.9 736.3,283.9 737.6,284.0 738.9,284.0 740.2,284.1 741.5,284.2 742.8,284.3 744.1,284.3 745.4,284.4 746.6,284.6 747.9,284.7 749.2,284.8 750.5,284.9 751.8,285.0 753.1,285.1 754.4,285.2 755.7,285.3 757.0,285.3 758.2,285.4 759.5,285.5 760.8,285.5 762.1,285.6 763.4,285.6 764.7,285.6 766.0,285.6 767.3,285.6 768.6,285.6 769.8,285.6 771.1,285.6 772.4,285.6 773.7,285.5" fill="none" stroke="#f39c12" stroke-width="1.3" stroke-linejoin="round" clip-path="url(#pc520)"/>
</svg>
