<svg xmlns="http://www.w3.org/2000/svg" viewBox="0 0 800 240" style="font-family:system-ui,-apple-system,sans-serif">
  <line x1="55" y1="12" x2="55" y2="192" stroke="#d1d5db"/>
  <line x1="55" y1="192" x2="755" y2="192" stroke="#d1d5db"/>
  <text x="405" y="222" text-anchor="middle" font-size="10" fill="#6b7280">Frequency (Hz)</text>
  <text x="17" y="102" text-anchor="middle" font-size="10" fill="#6b7280" transform="rotate(-90 17 102)">Magnitude (dB)</text>
  <line x1="99.4" y1="12" x2="99.4" y2="192" stroke="#e5e7eb" stroke-width="0.5"/>
  <text x="99.4" y="205" text-anchor="middle" font-size="9" fill="#6b7280">31</text>
  <line x1="169.7" y1="12" x2="169.7" y2="192" stroke="#e5e7eb" stroke-width="0.5"/>
  <text x="169.7" y="205" text-anchor="middle" font-size="9" fill="#6b7280">62</text>
  <line x1="240.7" y1="12" x2="240.7" y2="192" stroke="#e5e7eb" stroke-width="0.5"/>
  <text x="240.7" y="205" text-anchor="middle" font-size="9" fill="#6b7280">125</text>
  <line x1="310.9" y1="12" x2="310.9" y2="192" stroke="#e5e7eb" stroke-width="0.5"/>
  <text x="310.9" y="205" text-anchor="middle" font-size="9" fill="#6b7280">250</text>
  <line x1="381.2" y1="12" x2="381.2" y2="192" stroke="#e5e7eb" stroke-width="0.5"/>
  <text x="381.2" y="205" text-anchor="middle" font-size="9" fill="#6b7280">500</text>
  <line x1="451.4" y1="12" x2="451.4" y2="192" stroke="#e5e7eb" stroke-width="0.5"/>
  <text x="451.4" y="205" text-anchor="middle" font-size="9" fill="#6b7280">1k</text>
  <line x1="521.7" y1="12" x2="521.7" y2="192" stroke="#e5e7eb" stroke-width="0.5"/>
  <text x="521.7" y="205" text-anchor="middle" font-size="9" fill="#6b7280">2k</text>
  <line x1="591.9" y1="12" x2="591.9" y2="192" stroke="#e5e7eb" stroke-width="0.5"/>
  <text x="591.9" y="205" text-anchor="middle" font-size="9" fill="#6b7280">4k</text>
  <line x1="662.1" y1="12" x2="662.1" y2="192" stroke="#e5e7eb" stroke-width="0.5"/>
  <text x="662.1" y="205" text-anchor="middle" font-size="9" fill="#6b7280">8k</text>
  <line x1="732.4" y1="12" x2="732.4" y2="192" stroke="#e5e7eb" stroke-width="0.5"/>
  <text x="732.4" y="205" text-anchor="middle" font-size="9" fill="#6b7280">16k</text>
  <line x1="55" y1="22.6" x2="755" y2="22.6" stroke="#e5e7eb" stroke-width="0.5"/>
  <text x="51" y="25.6" text-anchor="end" font-size="9" fill="#6b7280">0</text>
  <line x1="55" y1="64.9" x2="755" y2="64.9" stroke="#e5e7eb" stroke-width="0.5"/>
  <text x="51" y="67.9" text-anchor="end" font-size="9" fill="#6b7280">-20</text>
  <line x1="55" y1="107.3" x2="755" y2="107.3" stroke="#e5e7eb" stroke-width="0.5"/>
  <text x="51" y="110.3" text-anchor="end" font-size="9" fill="#6b7280">-40</text>
  <line x1="55" y1="149.6" x2="755" y2="149.6" stroke="#e5e7eb" stroke-width="0.5"/>
  <text x="51" y="152.6" text-anchor="end" font-size="9" fill="#6b7280">-60</text>
  <line x1="55" y1="192.0" x2="755" y2="192.0" stroke="#e5e7eb" stroke-width="0.5"/>
  <text x="51" y="195.0" text-anchor="end" font-size="9" fill="#6b7280">-80</text>
  <polyline points="132.7,22.6 203.0,22.6 244.1,22.6 273.2,22.6 295.8,22.6 314.3,22.6 329.9,22.6 343.4,22.6 355.4,22.6 366.1,22.6 375.7,22.6 384.5,22.6 392.6,22.6 400.2,22.6 407.1,22.6 413.7,22.6 419.8,22.6 425.6,22.6 431.1,22.6 436.3,22.6 441.2,22.6 446.0,22.6 450.5,22.6 454.8,22.6 458.9,22.6 462.9,22.6 466.7,22.6 470.4,22.6 474.0,22.6 477.4,22.6 480.7,22.6 483.9,22.6 487.0,22.6 490.1,22.6 493.0,22.6 495.9,22.6 498.6,22.6 501.3,22.6 504.0,22.6 506.5,22.6 509.0,22.6 511.5,22.6 513.9,22.6 516.2,22.6 518.5,22.6 520.7,22.6 522.9,22.6 525.0,22.6 527.1,22.6 529.2,22.6 531.2,22.6 533.1,22.6 535.1,22.6 537.0,22.6 538.8,22.6 540.6,22.6 542.4,22.6 544.2,22.6 545.9,22.6 547.6,22.6 549.3,22.6 551.0,22.6 552.6,22.6 554.2,22.6 555.7,22.6 557.3,22.6 558.8,22.6 560.3,22.6 561.8,22.6 563.2,22.6 564.7,22.6 566.1,22.6 567.5,22.6 568.9,22.6 570.2,22.6 571.6,22.6 572.9,22.6 574.2,22.6 575.5,22.6 576.8,22.6 578.0,22.6 579.3,22.6 580.5,22.6 581.7,22.6 582.9,22.6 584.1,22.6 585.3,22.6 586.4,22.6 587.6,22.6 588.7,22.6 589.8,22.6 590.9,22.6 592.0,22.6 593.1,22.6 594.2,22.6 595.3,22.6 596.3,22.6 597.3,22.6 598.4,22.6 599.4,22.6 600.4,22.6 601.4,22.6 602.4,22.6 603.4,22.6 604.3,22.6 605.3,22.6 606.2,22.6 607.2,22.6 608.1,22.6 609.1,22.6 610.0,22.6 610.9,22.6 611.8,22.6 612.7,22.6 613.6,22.6 614.4,22.6 615.3,22.6 616.2,22.6 617.0,22.6 617.9,22.6 618.7,22.6 619.5,22.6 620.4,22.6 621.2,22.6 622.0,22.6 622.8,22.6 623.6,22.6 624.4,22.6 625.2,22.6 626.0,22.6 626.8,22.6 627.5,22.6 628.3,22.6 629.0,22.6 629.8,22.6 630.6,22.6 631.3,22.6 632.0,22.6 632.8,22.6 633.5,22.6 634.2,22.6 634.9,22.6 635.6,22.6 636.3,22.6 637.0,22.6 637.7,22.6 638.4,22.6 639.1,22.6 639.8,22.6 640.5,22.6 641.2,22.6 641.8,22.6 642.5,22.7 643.1,22.7 643.8,22.8 644.5,22.9 645.1,23.0 645.7,23.1 646.4,23.3 647.0,23.5 647.7,23.7 648.3,23.9 648.9,24.2 649.5,24.6 650.1,24.9 650.8,25.3 651.4,25.8 652.0,26.3 652.6,26.8 653.2,27.5 653.8,28.1 654.3,28.8 654.9,29.6 655.5,30.5 656.1,31.4 656.7,32.3 657.3,33.4 657.8,34.5 658.4,35.7 659.0,37.0 659.5,38.4 660.1,39.8 660.6,41.3 661.2,43.0 661.7,44.7 662.3,46.6 662.8,48.5 663.4,50.6 663.9,52.8 664.4,55.1 665.0,57.6 665.5,60.3 666.0,63.1 666.5,66.1 667.1,69.3 667.6,72.7 668.1,76.4 668.6,80.3 669.1,84.7 669.6,89.4 670.1,94.6 670.6,100.5 671.1,107.2 671.6,115.1 672.1,125.2 672.6,139.5 673.1,173.6 673.6,156.2 674.1,145.2 674.6,141.9 675.1,141.8 675.5,143.8 676.0,148.0 676.5,154.9 677.0,167.3 677.4,192.0 677.9,171.9 678.4,160.1 678.8,154.4 679.3,151.4 679.8,150.1 680.2,150.2 680.7,151.4 681.1,153.7 681.6,157.6 682.0,163.4 682.5,173.0 682.9,192.0 683.4,191.4 683.8,173.3 684.2,165.4 684.7,160.9 685.1,158.3 685.5,156.9 686.0,156.6 686.4,157.2 686.8,158.7 687.3,161.3 687.7,165.2 688.1,171.0 688.5,180.6 688.9,192.0 689.4,192.0 689.8,180.3 690.2,172.2 690.6,167.4 691.0,164.5 691.4,162.8 691.8,162.0 692.2,162.1 692.6,163.1 693.1,164.9 693.5,167.8 693.9,172.0 694.3,178.4 694.6,189.2 695.0,192.0 695.4,192.0 695.8,183.8 696.2,176.4 696.6,172.0 697.0,169.2 697.4,167.5 697.8,166.7 698.1,166.8 698.5,167.6 698.9,169.2 699.3,171.9 699.7,175.8 700.0,181.5 700.4,190.9 700.8,192.0 701.2,192.0 701.5,190.8 701.9,182.4 702.3,177.4 702.6,174.1 703.0,172.1 703.4,171.0 703.7,170.8 704.1,171.3 704.5,172.6 704.8,174.7 705.2,177.9 705.5,182.7 705.9,190.0 706.2,192.0 706.6,192.0 706.9,192.0 707.3,189.9 707.6,183.5 708.0,179.5 708.3,176.9 708.7,175.3 709.0,174.6 709.4,174.6 709.7,175.4 710.0,177.0 710.4,179.6 710.7,183.3 711.1,188.7 711.4,192.0 711.7,192.0 712.1,192.0 712.4,192.0 712.7,190.9 713.1,185.5 713.4,182.0 713.7,179.8 714.0,178.5 714.4,178.0 714.7,178.3 715.0,179.3 715.3,181.1 715.7,183.9 716.0,188.0 716.3,192.0 716.6,192.0 716.9,192.0 717.3,192.0 717.6,192.0 717.9,192.0 718.2,187.9 718.5,184.8 718.8,182.8 719.1,181.7 719.5,181.3 719.8,181.7 720.1,182.9 720.4,184.9 720.7,187.9 721.0,192.0 721.3,192.0 721.6,192.0 721.9,192.0 722.2,192.0 722.5,192.0 722.8,192.0 723.1,190.5 723.4,187.6 723.7,185.7 724.0,184.8 724.3,184.5 724.6,185.1 724.9,186.3 725.2,188.4 725.5,191.6 725.8,192.0 726.1,192.0 726.3,192.0 726.6,192.0 726.9,192.0 727.2,192.0 727.5,192.0 727.8,192.0 728.1,190.4 728.3,188.7 728.6,187.8 728.9,187.7 729.2,188.3 729.5,189.7 729.8,191.9 730.0,192.0 730.3,192.0 730.6,192.0 730.9,192.0 731.1,192.0 731.4,192.0 731.7,192.0 732.0,192.0 732.2,192.0 732.5,192.0 732.8,191.7 733.1,190.9 733.3,190.9 733.6,191.5 733.9,192.0 734.1,192.0 734.4,192.0 734.7,192.0 734.9,192.0 735.2,192.0 735.5,192.0 735.7,192.0 736.0,192.0 736.3,192.0 736.5,192.0 736.8,192.0 737.0,192.0 737.3,192.0 737.6,192.0 737.8,192.0 738.1,192.0 738.3,192.0 738.6,192.0 738.9,192.0 739.1,192.0 739.4,192.0 739.6,192.0 739.9,192.0 740.1,192.0 740.4,192.0 740.6,192.0 740.9,192.0 741.1,192.0 741.4,192.0 741.6,192.0 741.9,192.0 742.1,192.0 742.4,192.0 742.6,192.0 742.9,192.0 743.1,192.0 743.4,192.0 743.6,192.0 743.8,192.0 744.1,192.0 744.3,192.0 744.6,192.0 744.8,192.0 745.1,192.0 745.3,192.0 745.5,192.0 745.8,192.0 746.0,192.0 746.3,192.0 746.5,192.0 746.7,192.0 747.0,192.0 747.2,192.0 747.4,192.0 747.7,192.0 747.9,192.0 748.1,192.0 748.4,192.0 748.6,192.0 748.8,192.0 749.1,192.0 749.3,192.0 749.5,192.0 749.8,192.0 750.0,192.0 750.2,192.0 750.4,192.0 750.7,192.0 750.9,192.0 751.1,192.0 751.4,192.0 751.6,192.0 751.8,192.0 752.0,192.0 752.3,192.0 752.5,192.0 752.7,192.0 752.9,192.0 753.2,192.0 753.4,192.0 753.6,192.0 753.8,192.0 754.0,192.0 754.3,192.0 754.5,192.0 754.7,192.0 754.9,192.0" fill="none" stroke="#4a90d9" stroke-width="1.8" stroke-linejoin="round"/>
  <text x="55" y="240" font-size="12" font-weight="600" fill="#6b7280">firls lowpass, 63 taps</text>
  <rect x="529" y="19" width="202" height="102" fill="white" fill-opacity="0.85" rx="3"/>
  <text x="532" y="30" font-size="8" fill="#6b7280">Coefficients</text>
  <polyline points="530.0,70.0 533.2,69.9 536.3,70.0 539.5,70.1 542.7,70.2 545.9,70.0 549.0,69.8 552.2,69.6 555.4,70.0 558.6,70.5 561.7,70.6 564.9,69.9 568.1,69.1 571.3,69.1 574.4,70.3 577.6,71.5 580.8,71.2 584.0,69.3 587.1,67.7 590.3,68.5 593.5,71.5 596.7,73.6 599.8,71.8 603.0,67.0 606.2,64.3 609.4,68.0 612.5,76.2 615.7,80.4 618.9,72.2 622.1,51.7 625.2,29.5 628.4,20.0 631.6,29.5 634.8,51.7 637.9,72.2 641.1,80.4 644.3,76.2 647.5,68.0 650.6,64.3 653.8,67.0 657.0,71.8 660.2,73.6 663.3,71.5 666.5,68.5 669.7,67.7 672.9,69.3 676.0,71.2 679.2,71.5 682.4,70.3 685.6,69.1 688.7,69.1 691.9,69.9 695.1,70.6 698.3,70.5 701.4,70.0 704.6,69.6 707.8,69.8 711.0,70.0 714.1,70.2 717.3,70.1 720.5,70.0 723.7,69.9 726.8,70.0" fill="none" stroke="#4a90d9" stroke-width="1.3" stroke-linejoin="round"/>
</svg>
