<svg xmlns="http://www.w3.org/2000/svg" viewBox="0 0 800 240" style="font-family:system-ui,-apple-system,sans-serif">
  <line x1="55" y1="12" x2="55" y2="192" stroke="#d1d5db"/>
  <line x1="55" y1="192" x2="755" y2="192" stroke="#d1d5db"/>
  <text x="405" y="222" text-anchor="middle" font-size="10" fill="#6b7280">Frequency (Hz)</text>
  <text x="17" y="102" text-anchor="middle" font-size="10" fill="#6b7280" transform="rotate(-90 17 102)">Magnitude (dB)</text>
  <line x1="99.4" y1="12" x2="99.4" y2="192" stroke="#e5e7eb" stroke-width="0.5"/>
  <text x="99.4" y="205" text-anchor="middle" font-size="9" fill="#6b7280">31</text>
  <line x1="169.7" y1="12" x2="169.7" y2="192" stroke="#e5e7eb" stroke-width="0.5"/>
  <text x="169.7" y="205" text-anchor="middle" font-size="9" fill="#6b7280">62</text>
  <line x1="240.7" y1="12" x2="240.7" y2="192" stroke="#e5e7eb" stroke-width="0.5"/>
  <text x="240.7" y="205" text-anchor="middle" font-size="9" fill="#6b7280">125</text>
  <line x1="310.9" y1="12" x2="310.9" y2="192" stroke="#e5e7eb" stroke-width="0.5"/>
  <text x="310.9" y="205" text-anchor="middle" font-size="9" fill="#6b7280">250</text>
  <line x1="381.2" y1="12" x2="381.2" y2="192" stroke="#e5e7eb" stroke-width="0.5"/>
  <text x="381.2" y="205" text-anchor="middle" font-size="9" fill="#6b7280">500</text>
  <line x1="451.4" y1="12" x2="451.4" y2="192" stroke="#e5e7eb" stroke-width="0.5"/>
  <text x="451.4" y="205" text-anchor="middle" font-size="9" fill="#6b7280">1k</text>
  <line x1="521.7" y1="12" x2="521.7" y2="192" stroke="#e5e7eb" stroke-width="0.5"/>
  <text x="521.7" y="205" text-anchor="middle" font-size="9" fill="#6b7280">2k</text>
  <line x1="591.9" y1="12" x2="591.9" y2="192" stroke="#e5e7eb" stroke-width="0.5"/>
  <text x="591.9" y="205" text-anchor="middle" font-size="9" fill="#6b7280">4k</text>
  <line x1="662.1" y1="12" x2="662.1" y2="192" stroke="#e5e7eb" stroke-width="0.5"/>
  <text x="662.1" y="205" text-anchor="middle" font-size="9" fill="#6b7280">8k</text>
  <line x1="732.4" y1="12" x2="732.4" y2="192" stroke="#e5e7eb" stroke-width="0.5"/>
  <text x="732.4" y="205" text-anchor="middle" font-size="9" fill="#6b7280">16k</text>
  <line x1="55" y1="22.6" x2="755" y2="22.6" stroke="#e5e7eb" stroke-width="0.5"/>
  <text x="51" y="25.6" text-anchor="end" font-size="9" fill="#6b7280">0</text>
  <line x1="55" y1="64.9" x2="755" y2="64.9" stroke="#e5e7eb" stroke-width="0.5"/>
  <text x="51" y="67.9" text-anchor="end" font-size="9" fill="#6b7280">-20</text>
  <line x1="55" y1="107.3" x2="755" y2="107.3" stroke="#e5e7eb" stroke-width="0.5"/>
  <text x="51" y="110.3" text-anchor="end" font-size="9" fill="#6b7280">-40</text>
  <line x1="55" y1="149.6" x2="755" y2="149.6" stroke="#e5e7eb" stroke-width="0.5"/>
  <text x="51" y="152.6" text-anchor="end" font-size="9" fill="#6b7280">-60</text>
  <line x1="55" y1="192.0" x2="755" y2="192.0" stroke="#e5e7eb" stroke-width="0.5"/>
  <text x="51" y="195.0" text-anchor="end" font-size="9" fill="#6b7280">-80</text>
  <polyline points="132.7,12.0 203.0,12.0 244.1,12.0 273.2,12.0 295.8,12.0 314.3,12.0 329.9,12.0 343.4,12.0 355.4,12.0 366.1,12.0 375.7,12.0 384.5,12.0 392.6,12.0 400.2,12.0 407.1,12.0 413.7,12.0 419.8,12.0 425.6,12.0 431.1,12.0 436.3,12.0 441.2,12.0 446.0,12.0 450.5,12.0 454.8,12.0 458.9,12.0 462.9,12.0 466.7,12.0 470.4,12.0 474.0,12.0 477.4,12.0 480.7,12.0 483.9,12.0 487.0,12.0 490.1,12.0 493.0,12.0 495.9,12.0 498.6,12.0 501.3,12.0 504.0,12.0 506.5,12.0 509.0,12.0 511.5,12.0 513.9,12.0 516.2,12.0 518.5,12.0 520.7,12.0 522.9,12.0 525.0,12.0 527.1,12.0 529.2,12.0 531.2,12.0 533.1,12.0 535.1,12.0 537.0,12.0 538.8,12.0 540.6,12.0 542.4,12.0 544.2,12.0 545.9,12.0 547.6,12.0 549.3,12.0 551.0,12.0 552.6,12.0 554.2,12.0 555.7,12.0 557.3,12.0 558.8,12.0 560.3,12.0 561.8,12.0 563.2,12.0 564.7,12.0 566.1,12.0 567.5,12.0 568.9,12.0 570.2,12.0 571.6,12.0 572.9,12.0 574.2,12.0 575.5,12.0 576.8,12.0 578.0,12.0 579.3,12.0 580.5,12.0 581.7,12.0 582.9,12.0 584.1,12.0 585.3,12.0 586.4,12.0 587.6,12.0 588.7,12.0 589.8,12.0 590.9,12.0 592.0,12.0 593.1,12.0 594.2,12.0 595.3,12.0 596.3,12.0 597.3,12.0 598.4,12.0 599.4,12.0 600.4,12.0 601.4,12.0 602.4,12.0 603.4,12.0 604.3,12.0 605.3,12.0 606.2,12.0 607.2,12.0 608.1,12.0 609.1,12.0 610.0,12.0 610.9,12.0 611.8,12.0 612.7,12.0 613.6,12.0 614.4,12.0 615.3,12.0 616.2,12.0 617.0,12.0 617.9,12.0 618.7,12.0 619.5,12.0 620.4,12.0 621.2,12.0 622.0,12.0 622.8,12.0 623.6,12.0 624.4,12.0 625.2,12.0 626.0,12.0 626.8,12.0 627.5,12.0 628.3,12.0 629.0,12.0 629.8,12.0 630.6,12.0 631.3,12.0 632.0,12.0 632.8,12.0 633.5,12.0 634.2,12.0 634.9,12.0 635.6,12.0 636.3,12.0 637.0,12.0 637.7,12.0 638.4,12.0 639.1,12.0 639.8,12.0 640.5,12.0 641.2,12.1 641.8,12.6 642.5,13.0 643.1,13.5 643.8,14.0 644.5,14.4 645.1,14.9 645.7,15.3 646.4,15.8 647.0,16.2 647.7,16.7 648.3,17.1 648.9,17.5 649.5,18.0 650.1,18.4 650.8,18.8 651.4,19.2 652.0,19.6 652.6,20.1 653.2,20.5 653.8,20.9 654.3,21.3 654.9,21.7 655.5,22.1 656.1,22.5 656.7,22.9 657.3,23.3 657.8,23.7 658.4,24.0 659.0,24.4 659.5,24.8 660.1,25.2 660.6,25.5 661.2,25.9 661.7,26.3 662.3,26.6 662.8,27.0 663.4,27.4 663.9,27.7 664.4,28.1 665.0,28.4 665.5,28.8 666.0,29.1 666.5,29.5 667.1,29.8 667.6,30.2 668.1,30.5 668.6,30.8 669.1,31.2 669.6,31.5 670.1,31.8 670.6,32.2 671.1,32.5 671.6,32.8 672.1,33.1 672.6,33.4 673.1,33.8 673.6,34.1 674.1,34.4 674.6,34.7 675.1,35.0 675.5,35.3 676.0,35.6 676.5,35.9 677.0,36.2 677.4,36.5 677.9,36.8 678.4,37.1 678.8,37.4 679.3,37.7 679.8,38.0 680.2,38.3 680.7,38.6 681.1,38.8 681.6,39.1 682.0,39.4 682.5,39.7 682.9,39.9 683.4,40.2 683.8,40.5 684.2,40.8 684.7,41.0 685.1,41.3 685.5,41.6 686.0,41.8 686.4,42.1 686.8,42.4 687.3,42.6 687.7,42.9 688.1,43.1 688.5,43.4 688.9,43.6 689.4,43.9 689.8,44.1 690.2,44.4 690.6,44.6 691.0,44.9 691.4,45.1 691.8,45.4 692.2,45.6 692.6,45.8 693.1,46.1 693.5,46.3 693.9,46.5 694.3,46.8 694.6,47.0 695.0,47.2 695.4,47.5 695.8,47.7 696.2,47.9 696.6,48.1 697.0,48.4 697.4,48.6 697.8,48.8 698.1,49.0 698.5,49.2 698.9,49.5 699.3,49.7 699.7,49.9 700.0,50.1 700.4,50.3 700.8,50.5 701.2,50.7 701.5,50.9 701.9,51.1 702.3,51.3 702.6,51.5 703.0,51.7 703.4,51.9 703.7,52.1 704.1,52.3 704.5,52.5 704.8,52.7 705.2,52.9 705.5,53.1 705.9,53.3 706.2,53.5 706.6,53.7 706.9,53.9 707.3,54.1 707.6,54.2 708.0,54.4 708.3,54.6 708.7,54.8 709.0,55.0 709.4,55.2 709.7,55.3 710.0,55.5 710.4,55.7 710.7,55.9 711.1,56.0 711.4,56.2 711.7,56.4 712.1,56.5 712.4,56.7 712.7,56.9 713.1,57.1 713.4,57.2 713.7,57.4 714.0,57.5 714.4,57.7 714.7,57.9 715.0,58.0 715.3,58.2 715.7,58.4 716.0,58.5 716.3,58.7 716.6,58.8 716.9,59.0 717.3,59.1 717.6,59.3 717.9,59.4 718.2,59.6 718.5,59.7 718.8,59.9 719.1,60.0 719.5,60.2 719.8,60.3 720.1,60.5 720.4,60.6 720.7,60.8 721.0,60.9 721.3,61.0 721.6,61.2 721.9,61.3 722.2,61.5 722.5,61.6 722.8,61.7 723.1,61.9 723.4,62.0 723.7,62.1 724.0,62.3 724.3,62.4 724.6,62.5 724.9,62.6 725.2,62.8 725.5,62.9 725.8,63.0 726.1,63.2 726.3,63.3 726.6,63.4 726.9,63.5 727.2,63.6 727.5,63.8 727.8,63.9 728.1,64.0 728.3,64.1 728.6,64.2 728.9,64.4 729.2,64.5 729.5,64.6 729.8,64.7 730.0,64.8 730.3,64.9 730.6,65.0 730.9,65.1 731.1,65.3 731.4,65.4 731.7,65.5 732.0,65.6 732.2,65.7 732.5,65.8 732.8,65.9 733.1,66.0 733.3,66.1 733.6,66.2 733.9,66.3 734.1,66.4 734.4,66.5 734.7,66.6 734.9,66.7 735.2,66.8 735.5,66.9 735.7,67.0 736.0,67.1 736.3,67.2 736.5,67.3 736.8,67.4 737.0,67.5 737.3,67.5 737.6,67.6 737.8,67.7 738.1,67.8 738.3,67.9 738.6,68.0 738.9,68.1 739.1,68.1 739.4,68.2 739.6,68.3 739.9,68.4 740.1,68.5 740.4,68.6 740.6,68.6 740.9,68.7 741.1,68.8 741.4,68.9 741.6,69.0 741.9,69.0 742.1,69.1 742.4,69.2 742.6,69.2 742.9,69.3 743.1,69.4 743.4,69.5 743.6,69.5 743.8,69.6 744.1,69.7 744.3,69.7 744.6,69.8 744.8,69.9 745.1,69.9 745.3,70.0 745.5,70.1 745.8,70.1 746.0,70.2 746.3,70.3 746.5,70.3 746.7,70.4 747.0,70.4 747.2,70.5 747.4,70.6 747.7,70.6 747.9,70.7 748.1,70.7 748.4,70.8 748.6,70.8 748.8,70.9 749.1,70.9 749.3,71.0 749.5,71.0 749.8,71.1 750.0,71.1 750.2,71.2 750.4,71.2 750.7,71.3 750.9,71.3 751.1,71.4 751.4,71.4 751.6,71.5 751.8,71.5 752.0,71.6 752.3,71.6 752.5,71.7 752.7,71.7 752.9,71.7 753.2,71.8 753.4,71.8 753.6,71.9 753.8,71.9 754.0,71.9 754.3,72.0 754.5,72.0 754.7,72.0 754.9,72.1" fill="none" stroke="#4a90d9" stroke-width="1.8" stroke-linejoin="round"/>
  <text x="55" y="240" font-size="12" font-weight="600" fill="#6b7280">Gammatone, fc=1kHz, order=4</text>
  <rect x="529" y="19" width="202" height="102" fill="white" fill-opacity="0.85" rx="3"/>
  <text x="532" y="30" font-size="8" fill="#6b7280">Coefficients</text>
  <polyline points="530.0,70.0 530.1,70.0 530.2,69.9 530.3,69.8 530.4,69.7 530.5,69.5 530.6,69.3 530.7,69.1 530.8,68.8 530.9,68.6 531.0,68.4 531.1,68.2 531.2,68.1 531.3,68.1 531.4,68.1 531.5,68.2 531.6,68.5 531.7,68.9 531.8,69.3 531.9,69.9 532.0,70.6 532.1,71.4 532.1,72.2 532.2,73.1 532.3,74.0 532.4,74.8 532.5,75.6 532.6,76.4 532.7,77.0 532.8,77.4 532.9,77.6 533.0,77.7 533.1,77.5 533.2,77.1 533.3,76.4 533.4,75.4 533.5,74.2 533.6,72.8 533.7,71.2 533.8,69.4 533.9,67.5 534.0,65.5 534.1,63.4 534.2,61.4 534.3,59.5 534.4,57.7 534.5,56.1 534.6,54.7 534.7,53.7 534.8,53.0 534.9,52.8 535.0,52.9 535.1,53.5 535.2,54.5 535.3,56.0 535.4,57.9 535.5,60.2 535.6,62.9 535.7,65.9 535.8,69.1 535.9,72.5 536.0,76.1 536.1,79.6 536.2,83.0 536.3,86.3 536.3,89.4 536.4,92.1 536.5,94.4 536.6,96.3 536.7,97.5 536.8,98.2 536.9,98.3 537.0,97.7 537.1,96.5 537.2,94.6 537.3,92.1 537.4,89.0 537.5,85.3 537.6,81.2 537.7,76.7 537.8,72.0 537.9,67.0 538.0,62.0 538.1,57.0 538.2,52.2 538.3,47.7 538.4,43.5 538.5,39.8 538.6,36.8 538.7,34.3 538.8,32.6 538.9,31.7 539.0,31.6 539.1,32.4 539.2,34.0 539.3,36.4 539.4,39.6 539.5,43.5 539.6,48.1 539.7,53.2 539.8,58.8 539.9,64.8 540.0,70.9 540.1,77.1 540.2,83.3 540.3,89.2 540.4,94.8 540.4,100.0 540.5,104.6 540.6,108.5 540.7,111.6 540.8,113.9 540.9,115.3 541.0,115.7 541.1,115.1 541.2,113.6 541.3,111.1 541.4,107.7 541.5,103.5 541.6,98.5 541.7,92.9 541.8,86.8 541.9,80.2 542.0,73.4 542.1,66.4 542.2,59.5 542.3,52.8 542.4,46.4 542.5,40.4 542.6,35.0 542.7,30.4 542.8,26.5 542.9,23.6 543.0,21.6 543.1,20.6 543.2,20.7 543.3,21.8 543.4,23.9 543.5,27.0 543.6,31.0 543.7,35.8 543.8,41.4 543.9,47.5 544.0,54.2 544.1,61.1 544.2,68.3 544.3,75.5 544.4,82.6 544.5,89.5 544.6,95.9 544.6,101.8 544.7,107.1 544.8,111.5 544.9,115.1 545.0,117.7 545.1,119.4 545.2,120.0 545.3,119.6 545.4,118.1 545.5,115.7 545.6,112.3 545.7,108.0 545.8,103.0 545.9,97.3 546.0,91.0 546.1,84.4 546.2,77.4 546.3,70.3 546.4,63.3 546.5,56.4 546.6,49.9 546.7,43.7 546.8,38.2 546.9,33.3 547.0,29.3 547.1,26.0 547.2,23.8 547.3,22.4 547.4,22.1 547.5,22.8 547.6,24.4 547.7,27.0 547.8,30.4 547.9,34.6 548.0,39.5 548.1,45.1 548.2,51.0 548.3,57.4 548.4,63.9 548.5,70.6 548.6,77.1 548.7,83.5 548.8,89.5 548.8,95.1 548.9,100.1 549.0,104.5 549.1,108.1 549.2,110.9 549.3,112.8 549.4,113.8 549.5,114.0 549.6,113.2 549.7,111.5 549.8,109.0 549.9,105.8 550.0,101.8 550.1,97.2 550.2,92.1 550.3,86.6 550.4,80.8 550.5,74.9 550.6,68.9 550.7,63.0 550.8,57.3 550.9,52.0 551.0,47.1 551.1,42.7 551.2,38.9 551.3,35.7 551.4,33.4 551.5,31.8 551.6,31.0 551.7,31.0 551.8,31.8 551.9,33.4 552.0,35.7 552.1,38.7 552.2,42.3 552.3,46.4 552.4,50.9 552.5,55.8 552.6,60.9 552.7,66.1 552.8,71.3 552.9,76.5 552.9,81.4 553.0,86.0 553.1,90.2 553.2,94.0 553.3,97.2 553.4,99.9 553.5,101.8 553.6,103.1 553.7,103.7 553.8,103.7 553.9,102.9 554.0,101.4 554.1,99.4 554.2,96.8 554.3,93.6 554.4,90.1 554.5,86.1 554.6,81.9 554.7,77.6 554.8,73.1 554.9,68.6 555.0,64.3 555.1,60.1 555.2,56.2 555.3,52.6 555.4,49.5 555.5,46.8 555.6,44.6 555.7,43.0 555.8,42.0 555.9,41.5 556.0,41.6 556.1,42.3 556.2,43.6 556.3,45.4 556.4,47.6 556.5,50.3 556.6,53.3 556.7,56.6 556.8,60.1 556.9,63.8 557.0,67.5 557.1,71.3 557.1,74.9 557.2,78.4 557.3,81.6 557.4,84.5 557.5,87.1 557.6,89.3 557.7,91.1 557.8,92.4 557.9,93.3 558.0,93.6 558.1,93.5 558.2,92.8 558.3,91.8 558.4,90.3 558.5,88.4 558.6,86.2 558.7,83.7 558.8,80.9 558.9,78.0 559.0,75.0 559.1,71.9 559.2,68.9 559.3,65.9 559.4,63.1 559.5,60.5 559.6,58.1 559.7,56.0 559.8,54.2 559.9,52.8 560.0,51.7 560.1,51.1 560.2,50.8 560.3,50.9 560.4,51.5 560.5,52.3 560.6,53.6 560.7,55.1 560.8,56.9 560.9,59.0 561.0,61.2 561.1,63.5 561.2,66.0 561.3,68.5 561.3,70.9 561.4,73.3 561.5,75.6 561.6,77.7 561.7,79.6 561.8,81.3 561.9,82.7 562.0,83.9 562.1,84.7 562.2,85.2 562.3,85.4 562.4,85.3 562.5,84.9 562.6,84.1 562.7,83.1 562.8,81.9 562.9,80.4 563.0,78.8 563.1,77.0 563.2,75.1 563.3,73.2 563.4,71.2 563.5,69.2 563.6,67.3 563.7,65.5 563.8,63.9 563.9,62.3 564.0,61.0 564.1,59.9 564.2,59.0 564.3,58.3 564.4,58.0 564.5,57.8 564.6,57.9 564.7,58.3 564.8,58.8 564.9,59.6 565.0,60.6 565.1,61.8 565.2,63.1 565.3,64.5 565.4,66.0 565.4,67.5 565.5,69.0 565.6,70.6 565.7,72.1 565.8,73.5 565.9,74.8 566.0,76.0 566.1,77.1 566.2,77.9 566.3,78.6 566.4,79.1 566.5,79.4 566.6,79.5 566.7,79.5 566.8,79.2 566.9,78.7 567.0,78.1 567.1,77.3 567.2,76.4 567.3,75.4 567.4,74.3 567.5,73.2 567.6,72.0 567.7,70.7 567.8,69.5 567.9,68.4 568.0,67.3 568.1,66.3 568.2,65.3 568.3,64.5 568.4,63.9 568.5,63.3 568.6,62.9 568.7,62.7 568.8,62.6 568.9,62.7 569.0,62.9 569.1,63.2 569.2,63.7 569.3,64.3 569.4,65.0 569.5,65.8 569.6,66.7 569.6,67.6 569.7,68.5 569.8,69.4 569.9,70.3 570.0,71.2 570.1,72.1 570.2,72.9 570.3,73.6 570.4,74.2 570.5,74.7 570.6,75.1 570.7,75.4 570.8,75.6 570.9,75.7 571.0,75.6 571.1,75.5 571.2,75.2 571.3,74.8 571.4,74.4 571.5,73.8 571.6,73.2 571.7,72.6 571.8,71.9 571.9,71.2 572.0,70.5 572.1,69.8 572.2,69.1 572.3,68.4 572.4,67.8 572.5,67.3 572.6,66.8 572.7,66.4 572.8,66.1 572.9,65.9 573.0,65.7 573.1,65.7 573.2,65.7 573.3,65.8 573.4,66.0 573.5,66.3 573.6,66.7 573.7,67.1 573.8,67.5 573.8,68.0 573.9,68.6 574.0,69.1 574.1,69.6 574.2,70.2 574.3,70.7 574.4,71.2 574.5,71.6 574.6,72.1 574.7,72.4 574.8,72.7 574.9,73.0 575.0,73.1 575.1,73.2 575.2,73.3 575.3,73.2 575.4,73.1 575.5,73.0 575.6,72.8 575.7,72.5 575.8,72.2 575.9,71.9 576.0,71.5 576.1,71.1 576.2,70.7 576.3,70.3 576.4,69.9 576.5,69.5 576.6,69.1 576.7,68.8 576.8,68.5 576.9,68.2 577.0,68.0 577.1,67.8 577.2,67.6 577.3,67.6 577.4,67.5 577.5,67.6 577.6,67.6 577.7,67.8 577.8,67.9 577.9,68.1 577.9,68.3 578.0,68.6 578.1,68.9 578.2,69.2 578.3,69.5 578.4,69.8 578.5,70.1 578.6,70.4 578.7,70.7 578.8,70.9 578.9,71.1 579.0,71.4 579.1,71.5 579.2,71.7 579.3,71.8 579.4,71.8 579.5,71.8 579.6,71.8 579.7,71.8 579.8,71.7 579.9,71.6 580.0,71.4 580.1,71.2 580.2,71.0 580.3,70.8 580.4,70.6 580.5,70.4 580.6,70.2 580.7,69.9 580.8,69.7 580.9,69.5 581.0,69.3 581.1,69.2 581.2,69.0 581.3,68.9 581.4,68.8 581.5,68.7 581.6,68.7 581.7,68.6 581.8,68.6 581.9,68.7 582.0,68.8 582.1,68.8 582.1,68.9 582.2,69.1 582.3,69.2 582.4,69.4 582.5,69.5 582.6,69.7 582.7,69.9 582.8,70.0 582.9,70.2 583.0,70.4 583.1,70.5 583.2,70.6 583.3,70.7 583.4,70.8 583.5,70.9 583.6,71.0 583.7,71.0 583.8,71.0 583.9,71.0 584.0,71.0 584.1,70.9 584.2,70.9 584.3,70.8 584.4,70.7 584.5,70.6 584.6,70.5 584.7,70.3 584.8,70.2 584.9,70.1 585.0,70.0 585.1,69.9 585.2,69.7 585.3,69.6 585.4,69.5 585.5,69.5 585.6,69.4 585.7,69.3 585.8,69.3 585.9,69.3 586.0,69.3 586.1,69.3 586.2,69.3 586.3,69.3 586.3,69.4 586.4,69.4 586.5,69.5 586.6,69.6 586.7,69.7 586.8,69.7 586.9,69.8 587.0,69.9 587.1,70.0 587.2,70.1 587.3,70.2 587.4,70.3 587.5,70.3 587.6,70.4 587.7,70.4 587.8,70.5 587.9,70.5 588.0,70.5 588.1,70.5 588.2,70.5 588.3,70.5 588.4,70.5 588.5,70.5 588.6,70.4 588.7,70.4 588.8,70.3 588.9,70.3 589.0,70.2 589.1,70.1 589.2,70.1 589.3,70.0 589.4,69.9 589.5,69.9 589.6,69.8 589.7,69.8 589.8,69.7 589.9,69.7 590.0,69.6 590.1,69.6 590.2,69.6 590.3,69.6 590.4,69.6 590.4,69.6 590.5,69.6 590.6,69.7 590.7,69.7 590.8,69.7 590.9,69.8 591.0,69.8 591.1,69.9 591.2,69.9 591.3,70.0 591.4,70.0 591.5,70.1 591.6,70.1 591.7,70.1 591.8,70.2 591.9,70.2 592.0,70.2 592.1,70.3 592.2,70.3 592.3,70.3 592.4,70.3 592.5,70.3 592.6,70.3 592.7,70.3 592.8,70.2 592.9,70.2 593.0,70.2 593.1,70.2 593.2,70.1 593.3,70.1 593.4,70.1 593.5,70.0 593.6,70.0 593.7,70.0 593.8,69.9 593.9,69.9 594.0,69.9 594.1,69.9 594.2,69.8 594.3,69.8 594.4,69.8 594.5,69.8 594.6,69.8 594.6,69.8 594.7,69.8 594.8,69.8 594.9,69.8 595.0,69.8 595.1,69.9 595.2,69.9 595.3,69.9 595.4,69.9 595.5,70.0 595.6,70.0 595.7,70.0 595.8,70.0 595.9,70.0 596.0,70.1 596.1,70.1 596.2,70.1 596.3,70.1 596.4,70.1 596.5,70.1 596.6,70.1 596.7,70.1 596.8,70.1 596.9,70.1 597.0,70.1 597.1,70.1 597.2,70.1 597.3,70.1 597.4,70.1 597.5,70.1 597.6,70.1 597.7,70.0 597.8,70.0 597.9,70.0 598.0,70.0 598.1,70.0 598.2,69.9 598.3,69.9 598.4,69.9 598.5,69.9 598.6,69.9 598.7,69.9 598.8,69.9 598.8,69.9 598.9,69.9 599.0,69.9 599.1,69.9 599.2,69.9 599.3,69.9 599.4,69.9 599.5,69.9 599.6,69.9 599.7,70.0 599.8,70.0 599.9,70.0 600.0,70.0 600.1,70.0 600.2,70.0 600.3,70.0 600.4,70.0 600.5,70.1 600.6,70.1 600.7,70.1 600.8,70.1 600.9,70.1 601.0,70.1 601.1,70.1 601.2,70.1 601.3,70.1 601.4,70.1 601.5,70.1 601.6,70.1 601.7,70.0 601.8,70.0 601.9,70.0 602.0,70.0 602.1,70.0 602.2,70.0 602.3,70.0 602.4,70.0 602.5,70.0 602.6,70.0 602.7,70.0 602.8,70.0 602.9,70.0 602.9,69.9 603.0,69.9 603.1,69.9 603.2,69.9 603.3,69.9 603.4,69.9 603.5,70.0 603.6,70.0 603.7,70.0 603.8,70.0 603.9,70.0 604.0,70.0 604.1,70.0 604.2,70.0 604.3,70.0 604.4,70.0 604.5,70.0 604.6,70.0 604.7,70.0 604.8,70.0 604.9,70.0 605.0,70.0 605.1,70.0 605.2,70.0 605.3,70.0 605.4,70.0 605.5,70.0 605.6,70.0 605.7,70.0 605.8,70.0 605.9,70.0 606.0,70.0 606.1,70.0 606.2,70.0 606.3,70.0 606.4,70.0 606.5,70.0 606.6,70.0 606.7,70.0 606.8,70.0 606.9,70.0 607.0,70.0 607.1,70.0 607.1,70.0 607.2,70.0 607.3,70.0 607.4,70.0 607.5,70.0 607.6,70.0 607.7,70.0 607.8,70.0 607.9,70.0 608.0,70.0 608.1,70.0 608.2,70.0 608.3,70.0 608.4,70.0 608.5,70.0 608.6,70.0 608.7,70.0 608.8,70.0 608.9,70.0 609.0,70.0 609.1,70.0 609.2,70.0 609.3,70.0 609.4,70.0 609.5,70.0 609.6,70.0 609.7,70.0 609.8,70.0 609.9,70.0 610.0,70.0 610.1,70.0 610.2,70.0 610.3,70.0 610.4,70.0 610.5,70.0 610.6,70.0 610.7,70.0 610.8,70.0 610.9,70.0 611.0,70.0 611.1,70.0 611.2,70.0 611.3,70.0 611.3,70.0 611.4,70.0 611.5,70.0 611.6,70.0 611.7,70.0 611.8,70.0 611.9,70.0 612.0,70.0 612.1,70.0 612.2,70.0 612.3,70.0 612.4,70.0 612.5,70.0 612.6,70.0 612.7,70.0 612.8,70.0 612.9,70.0 613.0,70.0 613.1,70.0 613.2,70.0 613.3,70.0 613.4,70.0 613.5,70.0 613.6,70.0 613.7,70.0 613.8,70.0 613.9,70.0 614.0,70.0 614.1,70.0 614.2,70.0 614.3,70.0 614.4,70.0 614.5,70.0 614.6,70.0 614.7,70.0 614.8,70.0 614.9,70.0 615.0,70.0 615.1,70.0 615.2,70.0 615.3,70.0 615.4,70.0 615.4,70.0 615.5,70.0 615.6,70.0 615.7,70.0 615.8,70.0 615.9,70.0 616.0,70.0 616.1,70.0 616.2,70.0 616.3,70.0 616.4,70.0 616.5,70.0 616.6,70.0 616.7,70.0 616.8,70.0 616.9,70.0 617.0,70.0 617.1,70.0 617.2,70.0 617.3,70.0 617.4,70.0 617.5,70.0 617.6,70.0 617.7,70.0 617.8,70.0 617.9,70.0 618.0,70.0 618.1,70.0 618.2,70.0 618.3,70.0 618.4,70.0 618.5,70.0 618.6,70.0 618.7,70.0 618.8,70.0 618.9,70.0 619.0,70.0 619.1,70.0 619.2,70.0 619.3,70.0 619.4,70.0 619.5,70.0 619.6,70.0 619.6,70.0 619.7,70.0 619.8,70.0 619.9,70.0 620.0,70.0 620.1,70.0 620.2,70.0 620.3,70.0 620.4,70.0 620.5,70.0 620.6,70.0 620.7,70.0 620.8,70.0 620.9,70.0 621.0,70.0 621.1,70.0 621.2,70.0 621.3,70.0 621.4,70.0 621.5,70.0 621.6,70.0 621.7,70.0 621.8,70.0 621.9,70.0 622.0,70.0 622.1,70.0 622.2,70.0 622.3,70.0 622.4,70.0 622.5,70.0 622.6,70.0 622.7,70.0 622.8,70.0 622.9,70.0 623.0,70.0 623.1,70.0 623.2,70.0 623.3,70.0 623.4,70.0 623.5,70.0 623.6,70.0 623.7,70.0 623.8,70.0 623.8,70.0 623.9,70.0 624.0,70.0 624.1,70.0 624.2,70.0 624.3,70.0 624.4,70.0 624.5,70.0 624.6,70.0 624.7,70.0 624.8,70.0 624.9,70.0 625.0,70.0 625.1,70.0 625.2,70.0 625.3,70.0 625.4,70.0 625.5,70.0 625.6,70.0 625.7,70.0 625.8,70.0 625.9,70.0 626.0,70.0 626.1,70.0 626.2,70.0 626.3,70.0 626.4,70.0 626.5,70.0 626.6,70.0 626.7,70.0 626.8,70.0 626.9,70.0 627.0,70.0 627.1,70.0 627.2,70.0 627.3,70.0 627.4,70.0 627.5,70.0 627.6,70.0 627.7,70.0 627.8,70.0 627.9,70.0 627.9,70.0 628.0,70.0 628.1,70.0 628.2,70.0 628.3,70.0 628.4,70.0 628.5,70.0 628.6,70.0 628.7,70.0 628.8,70.0 628.9,70.0 629.0,70.0 629.1,70.0 629.2,70.0 629.3,70.0 629.4,70.0 629.5,70.0 629.6,70.0 629.7,70.0 629.8,70.0 629.9,70.0 630.0,70.0 630.1,70.0 630.2,70.0 630.3,70.0 630.4,70.0 630.5,70.0 630.6,70.0 630.7,70.0 630.8,70.0 630.9,70.0 631.0,70.0 631.1,70.0 631.2,70.0 631.3,70.0 631.4,70.0 631.5,70.0 631.6,70.0 631.7,70.0 631.8,70.0 631.9,70.0 632.0,70.0 632.1,70.0 632.1,70.0 632.2,70.0 632.3,70.0 632.4,70.0 632.5,70.0 632.6,70.0 632.7,70.0 632.8,70.0 632.9,70.0 633.0,70.0 633.1,70.0 633.2,70.0 633.3,70.0 633.4,70.0 633.5,70.0 633.6,70.0 633.7,70.0 633.8,70.0 633.9,70.0 634.0,70.0 634.1,70.0 634.2,70.0 634.3,70.0 634.4,70.0 634.5,70.0 634.6,70.0 634.7,70.0 634.8,70.0 634.9,70.0 635.0,70.0 635.1,70.0 635.2,70.0 635.3,70.0 635.4,70.0 635.5,70.0 635.6,70.0 635.7,70.0 635.8,70.0 635.9,70.0 636.0,70.0 636.1,70.0 636.2,70.0 636.3,70.0 636.3,70.0 636.4,70.0 636.5,70.0 636.6,70.0 636.7,70.0 636.8,70.0 636.9,70.0 637.0,70.0 637.1,70.0 637.2,70.0 637.3,70.0 637.4,70.0 637.5,70.0 637.6,70.0 637.7,70.0 637.8,70.0 637.9,70.0 638.0,70.0 638.1,70.0 638.2,70.0 638.3,70.0 638.4,70.0 638.5,70.0 638.6,70.0 638.7,70.0 638.8,70.0 638.9,70.0 639.0,70.0 639.1,70.0 639.2,70.0 639.3,70.0 639.4,70.0 639.5,70.0 639.6,70.0 639.7,70.0 639.8,70.0 639.9,70.0 640.0,70.0 640.1,70.0 640.2,70.0 640.3,70.0 640.4,70.0 640.4,70.0 640.5,70.0 640.6,70.0 640.7,70.0 640.8,70.0 640.9,70.0 641.0,70.0 641.1,70.0 641.2,70.0 641.3,70.0 641.4,70.0 641.5,70.0 641.6,70.0 641.7,70.0 641.8,70.0 641.9,70.0 642.0,70.0 642.1,70.0 642.2,70.0 642.3,70.0 642.4,70.0 642.5,70.0 642.6,70.0 642.7,70.0 642.8,70.0 642.9,70.0 643.0,70.0 643.1,70.0 643.2,70.0 643.3,70.0 643.4,70.0 643.5,70.0 643.6,70.0 643.7,70.0 643.8,70.0 643.9,70.0 644.0,70.0 644.1,70.0 644.2,70.0 644.3,70.0 644.4,70.0 644.5,70.0 644.6,70.0 644.6,70.0 644.7,70.0 644.8,70.0 644.9,70.0 645.0,70.0 645.1,70.0 645.2,70.0 645.3,70.0 645.4,70.0 645.5,70.0 645.6,70.0 645.7,70.0 645.8,70.0 645.9,70.0 646.0,70.0 646.1,70.0 646.2,70.0 646.3,70.0 646.4,70.0 646.5,70.0 646.6,70.0 646.7,70.0 646.8,70.0 646.9,70.0 647.0,70.0 647.1,70.0 647.2,70.0 647.3,70.0 647.4,70.0 647.5,70.0 647.6,70.0 647.7,70.0 647.8,70.0 647.9,70.0 648.0,70.0 648.1,70.0 648.2,70.0 648.3,70.0 648.4,70.0 648.5,70.0 648.6,70.0 648.7,70.0 648.8,70.0 648.8,70.0 648.9,70.0 649.0,70.0 649.1,70.0 649.2,70.0 649.3,70.0 649.4,70.0 649.5,70.0 649.6,70.0 649.7,70.0 649.8,70.0 649.9,70.0 650.0,70.0 650.1,70.0 650.2,70.0 650.3,70.0 650.4,70.0 650.5,70.0 650.6,70.0 650.7,70.0 650.8,70.0 650.9,70.0 651.0,70.0 651.1,70.0 651.2,70.0 651.3,70.0 651.4,70.0 651.5,70.0 651.6,70.0 651.7,70.0 651.8,70.0 651.9,70.0 652.0,70.0 652.1,70.0 652.2,70.0 652.3,70.0 652.4,70.0 652.5,70.0 652.6,70.0 652.7,70.0 652.8,70.0 652.9,70.0 652.9,70.0 653.0,70.0 653.1,70.0 653.2,70.0 653.3,70.0 653.4,70.0 653.5,70.0 653.6,70.0 653.7,70.0 653.8,70.0 653.9,70.0 654.0,70.0 654.1,70.0 654.2,70.0 654.3,70.0 654.4,70.0 654.5,70.0 654.6,70.0 654.7,70.0 654.8,70.0 654.9,70.0 655.0,70.0 655.1,70.0 655.2,70.0 655.3,70.0 655.4,70.0 655.5,70.0 655.6,70.0 655.7,70.0 655.8,70.0 655.9,70.0 656.0,70.0 656.1,70.0 656.2,70.0 656.3,70.0 656.4,70.0 656.5,70.0 656.6,70.0 656.7,70.0 656.8,70.0 656.9,70.0 657.0,70.0 657.1,70.0 657.1,70.0 657.2,70.0 657.3,70.0 657.4,70.0 657.5,70.0 657.6,70.0 657.7,70.0 657.8,70.0 657.9,70.0 658.0,70.0 658.1,70.0 658.2,70.0 658.3,70.0 658.4,70.0 658.5,70.0 658.6,70.0 658.7,70.0 658.8,70.0 658.9,70.0 659.0,70.0 659.1,70.0 659.2,70.0 659.3,70.0 659.4,70.0 659.5,70.0 659.6,70.0 659.7,70.0 659.8,70.0 659.9,70.0 660.0,70.0 660.1,70.0 660.2,70.0 660.3,70.0 660.4,70.0 660.5,70.0 660.6,70.0 660.7,70.0 660.8,70.0 660.9,70.0 661.0,70.0 661.1,70.0 661.2,70.0 661.3,70.0 661.3,70.0 661.4,70.0 661.5,70.0 661.6,70.0 661.7,70.0 661.8,70.0 661.9,70.0 662.0,70.0 662.1,70.0 662.2,70.0 662.3,70.0 662.4,70.0 662.5,70.0 662.6,70.0 662.7,70.0 662.8,70.0 662.9,70.0 663.0,70.0 663.1,70.0 663.2,70.0 663.3,70.0 663.4,70.0 663.5,70.0 663.6,70.0 663.7,70.0 663.8,70.0 663.9,70.0 664.0,70.0 664.1,70.0 664.2,70.0 664.3,70.0 664.4,70.0 664.5,70.0 664.6,70.0 664.7,70.0 664.8,70.0 664.9,70.0 665.0,70.0 665.1,70.0 665.2,70.0 665.3,70.0 665.4,70.0 665.4,70.0 665.5,70.0 665.6,70.0 665.7,70.0 665.8,70.0 665.9,70.0 666.0,70.0 666.1,70.0 666.2,70.0 666.3,70.0 666.4,70.0 666.5,70.0 666.6,70.0 666.7,70.0 666.8,70.0 666.9,70.0 667.0,70.0 667.1,70.0 667.2,70.0 667.3,70.0 667.4,70.0 667.5,70.0 667.6,70.0 667.7,70.0 667.8,70.0 667.9,70.0 668.0,70.0 668.1,70.0 668.2,70.0 668.3,70.0 668.4,70.0 668.5,70.0 668.6,70.0 668.7,70.0 668.8,70.0 668.9,70.0 669.0,70.0 669.1,70.0 669.2,70.0 669.3,70.0 669.4,70.0 669.5,70.0 669.6,70.0 669.6,70.0 669.7,70.0 669.8,70.0 669.9,70.0 670.0,70.0 670.1,70.0 670.2,70.0 670.3,70.0 670.4,70.0 670.5,70.0 670.6,70.0 670.7,70.0 670.8,70.0 670.9,70.0 671.0,70.0 671.1,70.0 671.2,70.0 671.3,70.0 671.4,70.0 671.5,70.0 671.6,70.0 671.7,70.0 671.8,70.0 671.9,70.0 672.0,70.0 672.1,70.0 672.2,70.0 672.3,70.0 672.4,70.0 672.5,70.0 672.6,70.0 672.7,70.0 672.8,70.0 672.9,70.0 673.0,70.0 673.1,70.0 673.2,70.0 673.3,70.0 673.4,70.0 673.5,70.0 673.6,70.0 673.7,70.0 673.8,70.0 673.8,70.0 673.9,70.0 674.0,70.0 674.1,70.0 674.2,70.0 674.3,70.0 674.4,70.0 674.5,70.0 674.6,70.0 674.7,70.0 674.8,70.0 674.9,70.0 675.0,70.0 675.1,70.0 675.2,70.0 675.3,70.0 675.4,70.0 675.5,70.0 675.6,70.0 675.7,70.0 675.8,70.0 675.9,70.0 676.0,70.0 676.1,70.0 676.2,70.0 676.3,70.0 676.4,70.0 676.5,70.0 676.6,70.0 676.7,70.0 676.8,70.0 676.9,70.0 677.0,70.0 677.1,70.0 677.2,70.0 677.3,70.0 677.4,70.0 677.5,70.0 677.6,70.0 677.7,70.0 677.8,70.0 677.9,70.0 677.9,70.0 678.0,70.0 678.1,70.0 678.2,70.0 678.3,70.0 678.4,70.0 678.5,70.0 678.6,70.0 678.7,70.0 678.8,70.0 678.9,70.0 679.0,70.0 679.1,70.0 679.2,70.0 679.3,70.0 679.4,70.0 679.5,70.0 679.6,70.0 679.7,70.0 679.8,70.0 679.9,70.0 680.0,70.0 680.1,70.0 680.2,70.0 680.3,70.0 680.4,70.0 680.5,70.0 680.6,70.0 680.7,70.0 680.8,70.0 680.9,70.0 681.0,70.0 681.1,70.0 681.2,70.0 681.3,70.0 681.4,70.0 681.5,70.0 681.6,70.0 681.7,70.0 681.8,70.0 681.9,70.0 682.0,70.0 682.1,70.0 682.1,70.0 682.2,70.0 682.3,70.0 682.4,70.0 682.5,70.0 682.6,70.0 682.7,70.0 682.8,70.0 682.9,70.0 683.0,70.0 683.1,70.0 683.2,70.0 683.3,70.0 683.4,70.0 683.5,70.0 683.6,70.0 683.7,70.0 683.8,70.0 683.9,70.0 684.0,70.0 684.1,70.0 684.2,70.0 684.3,70.0 684.4,70.0 684.5,70.0 684.6,70.0 684.7,70.0 684.8,70.0 684.9,70.0 685.0,70.0 685.1,70.0 685.2,70.0 685.3,70.0 685.4,70.0 685.5,70.0 685.6,70.0 685.7,70.0 685.8,70.0 685.9,70.0 686.0,70.0 686.1,70.0 686.2,70.0 686.3,70.0 686.3,70.0 686.4,70.0 686.5,70.0 686.6,70.0 686.7,70.0 686.8,70.0 686.9,70.0 687.0,70.0 687.1,70.0 687.2,70.0 687.3,70.0 687.4,70.0 687.5,70.0 687.6,70.0 687.7,70.0 687.8,70.0 687.9,70.0 688.0,70.0 688.1,70.0 688.2,70.0 688.3,70.0 688.4,70.0 688.5,70.0 688.6,70.0 688.7,70.0 688.8,70.0 688.9,70.0 689.0,70.0 689.1,70.0 689.2,70.0 689.3,70.0 689.4,70.0 689.5,70.0 689.6,70.0 689.7,70.0 689.8,70.0 689.9,70.0 690.0,70.0 690.1,70.0 690.2,70.0 690.3,70.0 690.4,70.0 690.4,70.0 690.5,70.0 690.6,70.0 690.7,70.0 690.8,70.0 690.9,70.0 691.0,70.0 691.1,70.0 691.2,70.0 691.3,70.0 691.4,70.0 691.5,70.0 691.6,70.0 691.7,70.0 691.8,70.0 691.9,70.0 692.0,70.0 692.1,70.0 692.2,70.0 692.3,70.0 692.4,70.0 692.5,70.0 692.6,70.0 692.7,70.0 692.8,70.0 692.9,70.0 693.0,70.0 693.1,70.0 693.2,70.0 693.3,70.0 693.4,70.0 693.5,70.0 693.6,70.0 693.7,70.0 693.8,70.0 693.9,70.0 694.0,70.0 694.1,70.0 694.2,70.0 694.3,70.0 694.4,70.0 694.5,70.0 694.6,70.0 694.6,70.0 694.7,70.0 694.8,70.0 694.9,70.0 695.0,70.0 695.1,70.0 695.2,70.0 695.3,70.0 695.4,70.0 695.5,70.0 695.6,70.0 695.7,70.0 695.8,70.0 695.9,70.0 696.0,70.0 696.1,70.0 696.2,70.0 696.3,70.0 696.4,70.0 696.5,70.0 696.6,70.0 696.7,70.0 696.8,70.0 696.9,70.0 697.0,70.0 697.1,70.0 697.2,70.0 697.3,70.0 697.4,70.0 697.5,70.0 697.6,70.0 697.7,70.0 697.8,70.0 697.9,70.0 698.0,70.0 698.1,70.0 698.2,70.0 698.3,70.0 698.4,70.0 698.5,70.0 698.6,70.0 698.7,70.0 698.8,70.0 698.8,70.0 698.9,70.0 699.0,70.0 699.1,70.0 699.2,70.0 699.3,70.0 699.4,70.0 699.5,70.0 699.6,70.0 699.7,70.0 699.8,70.0 699.9,70.0 700.0,70.0 700.1,70.0 700.2,70.0 700.3,70.0 700.4,70.0 700.5,70.0 700.6,70.0 700.7,70.0 700.8,70.0 700.9,70.0 701.0,70.0 701.1,70.0 701.2,70.0 701.3,70.0 701.4,70.0 701.5,70.0 701.6,70.0 701.7,70.0 701.8,70.0 701.9,70.0 702.0,70.0 702.1,70.0 702.2,70.0 702.3,70.0 702.4,70.0 702.5,70.0 702.6,70.0 702.7,70.0 702.8,70.0 702.9,70.0 702.9,70.0 703.0,70.0 703.1,70.0 703.2,70.0 703.3,70.0 703.4,70.0 703.5,70.0 703.6,70.0 703.7,70.0 703.8,70.0 703.9,70.0 704.0,70.0 704.1,70.0 704.2,70.0 704.3,70.0 704.4,70.0 704.5,70.0 704.6,70.0 704.7,70.0 704.8,70.0 704.9,70.0 705.0,70.0 705.1,70.0 705.2,70.0 705.3,70.0 705.4,70.0 705.5,70.0 705.6,70.0 705.7,70.0 705.8,70.0 705.9,70.0 706.0,70.0 706.1,70.0 706.2,70.0 706.3,70.0 706.4,70.0 706.5,70.0 706.6,70.0 706.7,70.0 706.8,70.0 706.9,70.0 707.0,70.0 707.1,70.0 707.1,70.0 707.2,70.0 707.3,70.0 707.4,70.0 707.5,70.0 707.6,70.0 707.7,70.0 707.8,70.0 707.9,70.0 708.0,70.0 708.1,70.0 708.2,70.0 708.3,70.0 708.4,70.0 708.5,70.0 708.6,70.0 708.7,70.0 708.8,70.0 708.9,70.0 709.0,70.0 709.1,70.0 709.2,70.0 709.3,70.0 709.4,70.0 709.5,70.0 709.6,70.0 709.7,70.0 709.8,70.0 709.9,70.0 710.0,70.0 710.1,70.0 710.2,70.0 710.3,70.0 710.4,70.0 710.5,70.0 710.6,70.0 710.7,70.0 710.8,70.0 710.9,70.0 711.0,70.0 711.1,70.0 711.2,70.0 711.3,70.0 711.3,70.0 711.4,70.0 711.5,70.0 711.6,70.0 711.7,70.0 711.8,70.0 711.9,70.0 712.0,70.0 712.1,70.0 712.2,70.0 712.3,70.0 712.4,70.0 712.5,70.0 712.6,70.0 712.7,70.0 712.8,70.0 712.9,70.0 713.0,70.0 713.1,70.0 713.2,70.0 713.3,70.0 713.4,70.0 713.5,70.0 713.6,70.0 713.7,70.0 713.8,70.0 713.9,70.0 714.0,70.0 714.1,70.0 714.2,70.0 714.3,70.0 714.4,70.0 714.5,70.0 714.6,70.0 714.7,70.0 714.8,70.0 714.9,70.0 715.0,70.0 715.1,70.0 715.2,70.0 715.3,70.0 715.4,70.0 715.4,70.0 715.5,70.0 715.6,70.0 715.7,70.0 715.8,70.0 715.9,70.0 716.0,70.0 716.1,70.0 716.2,70.0 716.3,70.0 716.4,70.0 716.5,70.0 716.6,70.0 716.7,70.0 716.8,70.0 716.9,70.0 717.0,70.0 717.1,70.0 717.2,70.0 717.3,70.0 717.4,70.0 717.5,70.0 717.6,70.0 717.7,70.0 717.8,70.0 717.9,70.0 718.0,70.0 718.1,70.0 718.2,70.0 718.3,70.0 718.4,70.0 718.5,70.0 718.6,70.0 718.7,70.0 718.8,70.0 718.9,70.0 719.0,70.0 719.1,70.0 719.2,70.0 719.3,70.0 719.4,70.0 719.5,70.0 719.6,70.0 719.6,70.0 719.7,70.0 719.8,70.0 719.9,70.0 720.0,70.0 720.1,70.0 720.2,70.0 720.3,70.0 720.4,70.0 720.5,70.0 720.6,70.0 720.7,70.0 720.8,70.0 720.9,70.0 721.0,70.0 721.1,70.0 721.2,70.0 721.3,70.0 721.4,70.0 721.5,70.0 721.6,70.0 721.7,70.0 721.8,70.0 721.9,70.0 722.0,70.0 722.1,70.0 722.2,70.0 722.3,70.0 722.4,70.0 722.5,70.0 722.6,70.0 722.7,70.0 722.8,70.0 722.9,70.0 723.0,70.0 723.1,70.0 723.2,70.0 723.3,70.0 723.4,70.0 723.5,70.0 723.6,70.0 723.7,70.0 723.8,70.0 723.8,70.0 723.9,70.0 724.0,70.0 724.1,70.0 724.2,70.0 724.3,70.0 724.4,70.0 724.5,70.0 724.6,70.0 724.7,70.0 724.8,70.0 724.9,70.0 725.0,70.0 725.1,70.0 725.2,70.0 725.3,70.0 725.4,70.0 725.5,70.0 725.6,70.0 725.7,70.0 725.8,70.0 725.9,70.0 726.0,70.0 726.1,70.0 726.2,70.0 726.3,70.0 726.4,70.0 726.5,70.0 726.6,70.0 726.7,70.0 726.8,70.0 726.9,70.0 727.0,70.0 727.1,70.0 727.2,70.0 727.3,70.0 727.4,70.0 727.5,70.0 727.6,70.0 727.7,70.0 727.8,70.0 727.9,70.0 727.9,70.0 728.0,70.0 728.1,70.0 728.2,70.0 728.3,70.0 728.4,70.0 728.5,70.0 728.6,70.0 728.7,70.0 728.8,70.0 728.9,70.0 729.0,70.0 729.1,70.0 729.2,70.0 729.3,70.0 729.4,70.0 729.5,70.0 729.6,70.0 729.7,70.0 729.8,70.0 729.9,70.0" fill="none" stroke="#4a90d9" stroke-width="1.3" stroke-linejoin="round"/>
</svg>
