<svg xmlns="http://www.w3.org/2000/svg" viewBox="0 0 800 240" style="font-family:system-ui,-apple-system,sans-serif">
  <line x1="55" y1="12" x2="55" y2="192" stroke="#d1d5db"/>
  <line x1="55" y1="192" x2="385" y2="192" stroke="#d1d5db"/>
  <text x="220" y="222" text-anchor="middle" font-size="10" fill="#6b7280">Frequency (Hz)</text>
  <text x="17" y="102" text-anchor="middle" font-size="10" fill="#6b7280" transform="rotate(-90 17 102)">Magnitude (dB)</text>
  <line x1="131.9" y1="12" x2="131.9" y2="192" stroke="#e5e7eb" stroke-width="0.5"/>
  <text x="131.9" y="205" text-anchor="middle" font-size="9" fill="#6b7280">100</text>
  <line x1="241.9" y1="12" x2="241.9" y2="192" stroke="#e5e7eb" stroke-width="0.5"/>
  <text x="241.9" y="205" text-anchor="middle" font-size="9" fill="#6b7280">1k</text>
  <line x1="351.9" y1="12" x2="351.9" y2="192" stroke="#e5e7eb" stroke-width="0.5"/>
  <text x="351.9" y="205" text-anchor="middle" font-size="9" fill="#6b7280">10k</text>
  <line x1="55" y1="12.0" x2="385" y2="12.0" stroke="#e5e7eb" stroke-width="0.5"/>
  <text x="51" y="15.0" text-anchor="end" font-size="9" fill="#6b7280">0</text>
  <line x1="55" y1="57.0" x2="385" y2="57.0" stroke="#e5e7eb" stroke-width="0.5"/>
  <text x="51" y="60.0" text-anchor="end" font-size="9" fill="#6b7280">-20</text>
  <line x1="55" y1="102.0" x2="385" y2="102.0" stroke="#e5e7eb" stroke-width="0.5"/>
  <text x="51" y="105.0" text-anchor="end" font-size="9" fill="#6b7280">-40</text>
  <line x1="55" y1="147.0" x2="385" y2="147.0" stroke="#e5e7eb" stroke-width="0.5"/>
  <text x="51" y="150.0" text-anchor="end" font-size="9" fill="#6b7280">-60</text>
  <line x1="55" y1="192.0" x2="385" y2="192.0" stroke="#e5e7eb" stroke-width="0.5"/>
  <text x="51" y="195.0" text-anchor="end" font-size="9" fill="#6b7280">-80</text>
  <line x1="445" y1="12" x2="445" y2="192" stroke="#d1d5db"/>
  <line x1="445" y1="192" x2="775" y2="192" stroke="#d1d5db"/>
  <text x="610" y="222" text-anchor="middle" font-size="10" fill="#6b7280">Frequency (Hz)</text>
  <text x="407" y="102" text-anchor="middle" font-size="10" fill="#6b7280" transform="rotate(-90 407 102)">Group delay (samples)</text>
  <line x1="560.3" y1="12" x2="560.3" y2="192" stroke="#e5e7eb" stroke-width="0.5"/>
  <text x="560.3" y="205" text-anchor="middle" font-size="9" fill="#6b7280">100</text>
  <line x1="725.3" y1="12" x2="725.3" y2="192" stroke="#e5e7eb" stroke-width="0.5"/>
  <text x="725.3" y="205" text-anchor="middle" font-size="9" fill="#6b7280">1k</text>
  <line x1="445" y1="42.0" x2="775" y2="42.0" stroke="#e5e7eb" stroke-width="0.5"/>
  <text x="441" y="45.0" text-anchor="end" font-size="9" fill="#6b7280">0</text>
  <line x1="445" y1="72.0" x2="775" y2="72.0" stroke="#e5e7eb" stroke-width="0.5"/>
  <text x="441" y="75.0" text-anchor="end" font-size="9" fill="#6b7280">-5</text>
  <line x1="445" y1="102.0" x2="775" y2="102.0" stroke="#e5e7eb" stroke-width="0.5"/>
  <text x="441" y="105.0" text-anchor="end" font-size="9" fill="#6b7280">-10</text>
  <line x1="445" y1="132.0" x2="775" y2="132.0" stroke="#e5e7eb" stroke-width="0.5"/>
  <text x="441" y="135.0" text-anchor="end" font-size="9" fill="#6b7280">-15</text>
  <line x1="445" y1="162.0" x2="775" y2="162.0" stroke="#e5e7eb" stroke-width="0.5"/>
  <text x="441" y="165.0" text-anchor="end" font-size="9" fill="#6b7280">-20</text>
  <polyline points="91.6,12.0 124.8,12.0 144.1,12.0 157.9,12.0 168.5,12.0 177.2,12.0 184.6,12.0 191.0,12.0 196.6,12.0 201.6,12.0 206.2,12.0 210.4,12.0 214.2,12.1 217.7,12.2 221.0,12.3 224.1,12.5 227.0,12.8 229.7,13.2 232.3,13.8 234.8,14.6 237.1,15.6 239.3,16.9 241.4,18.4 243.5,20.2 245.4,22.1 247.3,24.2 249.1,26.4 250.8,28.7 252.5,31.0 254.1,33.3 255.7,35.6 257.2,37.9 258.7,40.2 260.1,42.4 261.5,44.6 262.8,46.7 264.1,48.9 265.4,50.9 266.7,52.9 267.9,54.9 269.0,56.8 270.2,58.7 271.3,60.6 272.4,62.4 273.5,64.1 274.5,65.9 275.6,67.6 276.6,69.2 277.6,70.9 278.5,72.5 279.5,74.0 280.4,75.6 281.3,77.1 282.2,78.6 283.1,80.0 283.9,81.5 284.8,82.9 285.6,84.3 286.4,85.6 287.2,87.0 288.0,88.3 288.8,89.6 289.6,90.9 290.3,92.1 291.1,93.4 291.8,94.6 292.5,95.8 293.2,97.0 293.9,98.2 294.6,99.3 295.3,100.5 295.9,101.6 296.6,102.7 297.3,103.8 297.9,104.9 298.5,106.0 299.2,107.1 299.8,108.1 300.4,109.1 301.0,110.2 301.6,111.2 302.2,112.2 302.7,113.2 303.3,114.1 303.9,115.1 304.4,116.1 305.0,117.0 305.5,118.0 306.1,118.9 306.6,119.8 307.1,120.7 307.7,121.6 308.2,122.5 308.7,123.4 309.2,124.3 309.7,125.1 310.2,126.0 310.7,126.8 311.2,127.7 311.6,128.5 312.1,129.4 312.6,130.2 313.1,131.0 313.5,131.8 314.0,132.6 314.4,133.4 314.9,134.2 315.3,135.0 315.8,135.7 316.2,136.5 316.6,137.3 317.1,138.0 317.5,138.8 317.9,139.5 318.3,140.3 318.7,141.0 319.1,141.7 319.5,142.5 320.0,143.2 320.4,143.9 320.7,144.6 321.1,145.3 321.5,146.0 321.9,146.7 322.3,147.4 322.7,148.1 323.1,148.8 323.4,149.5 323.8,150.2 324.2,150.8 324.5,151.5 324.9,152.2 325.3,152.8 325.6,153.5 326.0,154.1 326.3,154.8 326.7,155.4 327.0,156.1 327.4,156.7 327.7,157.3 328.1,158.0 328.4,158.6 328.7,159.2 329.1,159.8 329.4,160.5 329.7,161.1 330.0,161.7 330.4,162.3 330.7,162.9 331.0,163.5 331.3,164.1 331.6,164.7 332.0,165.3 332.3,165.9 332.6,166.5 332.9,167.1 333.2,167.7 333.5,168.3 333.8,168.8 334.1,169.4 334.4,170.0 334.7,170.6 335.0,171.1 335.3,171.7 335.6,172.3 335.9,172.8 336.1,173.4 336.4,174.0 336.7,174.5 337.0,175.1 337.3,175.6 337.6,176.2 337.8,176.7 338.1,177.3 338.4,177.8 338.6,178.4 338.9,178.9 339.2,179.4 339.5,180.0 339.7,180.5 340.0,181.1 340.2,181.6 340.5,182.1 340.8,182.7 341.0,183.2 341.3,183.7 341.5,184.2 341.8,184.8 342.1,185.3 342.3,185.8 342.6,186.3 342.8,186.9 343.1,187.4 343.3,187.9 343.5,188.4 343.8,188.9 344.0,189.4 344.3,190.0 344.5,190.5 344.8,191.0 345.0,191.5 345.2,192.0 345.5,192.0 345.7,192.0 345.9,192.0 346.2,192.0 346.4,192.0 346.6,192.0 346.9,192.0 347.1,192.0 347.3,192.0 347.5,192.0 347.8,192.0 348.0,192.0 348.2,192.0 348.4,192.0 348.7,192.0 348.9,192.0 349.1,192.0 349.3,192.0 349.5,192.0 349.7,192.0 350.0,192.0 350.2,192.0 350.4,192.0 350.6,192.0 350.8,192.0 351.0,192.0 351.2,192.0 351.4,192.0 351.6,192.0 351.8,192.0 352.1,192.0 352.3,192.0 352.5,192.0 352.7,192.0 352.9,192.0 353.1,192.0 353.3,192.0 353.5,192.0 353.7,192.0 353.9,192.0 354.1,192.0 354.3,192.0 354.5,192.0 354.6,192.0 354.8,192.0 355.0,192.0 355.2,192.0 355.4,192.0 355.6,192.0 355.8,192.0 356.0,192.0 356.2,192.0 356.4,192.0 356.5,192.0 356.7,192.0 356.9,192.0 357.1,192.0 357.3,192.0 357.5,192.0 357.7,192.0 357.8,192.0 358.0,192.0 358.2,192.0 358.4,192.0 358.6,192.0 358.7,192.0 358.9,192.0 359.1,192.0 359.3,192.0 359.4,192.0 359.6,192.0 359.8,192.0 360.0,192.0 360.1,192.0 360.3,192.0 360.5,192.0 360.7,192.0 360.8,192.0 361.0,192.0 361.2,192.0 361.3,192.0 361.5,192.0 361.7,192.0 361.8,192.0 362.0,192.0 362.2,192.0 362.3,192.0 362.5,192.0 362.7,192.0 362.8,192.0 363.0,192.0 363.2,192.0 363.3,192.0 363.5,192.0 363.6,192.0 363.8,192.0 364.0,192.0 364.1,192.0 364.3,192.0 364.4,192.0 364.6,192.0 364.8,192.0 364.9,192.0 365.1,192.0 365.2,192.0 365.4,192.0 365.5,192.0 365.7,192.0 365.8,192.0 366.0,192.0 366.2,192.0 366.3,192.0 366.5,192.0 366.6,192.0 366.8,192.0 366.9,192.0 367.1,192.0 367.2,192.0 367.4,192.0 367.5,192.0 367.7,192.0 367.8,192.0 367.9,192.0 368.1,192.0 368.2,192.0 368.4,192.0 368.5,192.0 368.7,192.0 368.8,192.0 369.0,192.0 369.1,192.0 369.3,192.0 369.4,192.0 369.5,192.0 369.7,192.0 369.8,192.0 370.0,192.0 370.1,192.0 370.2,192.0 370.4,192.0 370.5,192.0 370.7,192.0 370.8,192.0 370.9,192.0 371.1,192.0 371.2,192.0 371.4,192.0 371.5,192.0 371.6,192.0 371.8,192.0 371.9,192.0 372.0,192.0 372.2,192.0 372.3,192.0 372.4,192.0 372.6,192.0 372.7,192.0 372.8,192.0 373.0,192.0 373.1,192.0 373.2,192.0 373.4,192.0 373.5,192.0 373.6,192.0 373.8,192.0 373.9,192.0 374.0,192.0 374.1,192.0 374.3,192.0 374.4,192.0 374.5,192.0 374.7,192.0 374.8,192.0 374.9,192.0 375.0,192.0 375.2,192.0 375.3,192.0 375.4,192.0 375.5,192.0 375.7,192.0 375.8,192.0 375.9,192.0 376.0,192.0 376.2,192.0 376.3,192.0 376.4,192.0 376.5,192.0 376.7,192.0 376.8,192.0 376.9,192.0 377.0,192.0 377.1,192.0 377.3,192.0 377.4,192.0 377.5,192.0 377.6,192.0 377.7,192.0 377.9,192.0 378.0,192.0 378.1,192.0 378.2,192.0 378.3,192.0 378.5,192.0 378.6,192.0 378.7,192.0 378.8,192.0 378.9,192.0 379.0,192.0 379.2,192.0 379.3,192.0 379.4,192.0 379.5,192.0 379.6,192.0 379.7,192.0 379.9,192.0 380.0,192.0 380.1,192.0 380.2,192.0 380.3,192.0 380.4,192.0 380.5,192.0 380.7,192.0 380.8,192.0 380.9,192.0 381.0,192.0 381.1,192.0 381.2,192.0 381.3,192.0 381.4,192.0 381.5,192.0 381.7,192.0 381.8,192.0 381.9,192.0 382.0,192.0 382.1,192.0 382.2,192.0 382.3,192.0 382.4,192.0 382.5,192.0 382.6,192.0 382.7,192.0 382.9,192.0 383.0,192.0 383.1,192.0 383.2,192.0 383.3,192.0 383.4,192.0 383.5,192.0 383.6,192.0 383.7,192.0 383.8,192.0 383.9,192.0 384.0,192.0 384.1,192.0 384.2,192.0 384.3,192.0 384.4,192.0 384.5,192.0 384.6,192.0 384.8,192.0 384.9,192.0 385.0,192.0" fill="none" stroke="#4a90d9" stroke-width="1.3" stroke-linejoin="round"/>
  <polyline points="500.0,42.0 549.6,42.0 578.7,42.0 599.3,42.0 615.3,42.0 628.4,42.0 639.4,42.0 649.0,42.1 657.4,42.2 665.0,42.5 671.8,42.9 678.0,43.6 683.8,44.9 689.1,46.8 694.0,49.6 698.6,53.8 703.0,59.5 707.1,67.0 711.0,76.4 714.6,87.5 718.1,99.6 721.5,112.2 724.6,124.1 727.7,134.6 730.6,143.2 733.4,149.7 736.1,154.1 738.7,156.9 741.3,158.1 743.7,158.3 746.0,157.6 748.3,156.3 750.5,154.7 752.7,152.7 754.7,150.6 756.8,148.4 758.7,146.2 760.6,143.9 762.5,141.7 764.3,139.5 766.1,137.4 767.8,135.4 769.5,133.4 771.1,131.5 772.7,129.6 774.3,127.8" fill="none" stroke="#4a90d9" stroke-width="1.3" stroke-linejoin="round"/>
  <polyline points="91.6,14.2 124.8,14.0 144.1,13.7 157.9,13.4 168.5,13.0 177.2,12.6 184.6,12.3 191.0,12.1 196.6,12.0 201.6,12.1 206.2,12.4 210.4,12.8 214.2,13.2 217.7,13.7 221.0,14.0 224.1,14.2 227.0,14.2 229.7,13.9 232.3,13.4 234.8,12.7 237.1,12.1 239.3,12.2 241.4,13.7 243.5,16.9 245.4,21.3 247.3,26.2 249.1,31.1 250.8,35.7 252.5,40.1 254.1,44.2 255.7,48.0 257.2,51.6 258.7,55.0 260.1,58.2 261.5,61.3 262.8,64.2 264.1,67.0 265.4,69.7 266.7,72.2 267.9,74.7 269.0,77.0 270.2,79.3 271.3,81.5 272.4,83.7 273.5,85.8 274.5,87.8 275.6,89.8 276.6,91.7 277.6,93.5 278.5,95.3 279.5,97.1 280.4,98.8 281.3,100.5 282.2,102.2 283.1,103.8 283.9,105.4 284.8,106.9 285.6,108.4 286.4,109.9 287.2,111.4 288.0,112.8 288.8,114.2 289.6,115.6 290.3,116.9 291.1,118.3 291.8,119.6 292.5,120.9 293.2,122.1 293.9,123.4 294.6,124.6 295.3,125.8 295.9,127.0 296.6,128.2 297.3,129.3 297.9,130.5 298.5,131.6 299.2,132.7 299.8,133.8 300.4,134.9 301.0,136.0 301.6,137.0 302.2,138.1 302.7,139.1 303.3,140.1 303.9,141.1 304.4,142.1 305.0,143.1 305.5,144.1 306.1,145.0 306.6,146.0 307.1,146.9 307.7,147.8 308.2,148.8 308.7,149.7 309.2,150.6 309.7,151.5 310.2,152.3 310.7,153.2 311.2,154.1 311.6,154.9 312.1,155.8 312.6,156.6 313.1,157.5 313.5,158.3 314.0,159.1 314.4,159.9 314.9,160.7 315.3,161.5 315.8,162.3 316.2,163.1 316.6,163.9 317.1,164.7 317.5,165.5 317.9,166.2 318.3,167.0 318.7,167.7 319.1,168.5 319.5,169.2 320.0,169.9 320.4,170.7 320.7,171.4 321.1,172.1 321.5,172.8 321.9,173.5 322.3,174.2 322.7,174.9 323.1,175.6 323.4,176.3 323.8,177.0 324.2,177.7 324.5,178.4 324.9,179.0 325.3,179.7 325.6,180.4 326.0,181.0 326.3,181.7 326.7,182.4 327.0,183.0 327.4,183.7 327.7,184.3 328.1,184.9 328.4,185.6 328.7,186.2 329.1,186.8 329.4,187.5 329.7,188.1 330.0,188.7 330.4,189.3 330.7,189.9 331.0,190.5 331.3,191.2 331.6,191.8 332.0,192.0 332.3,192.0 332.6,192.0 332.9,192.0 333.2,192.0 333.5,192.0 333.8,192.0 334.1,192.0 334.4,192.0 334.7,192.0 335.0,192.0 335.3,192.0 335.6,192.0 335.9,192.0 336.1,192.0 336.4,192.0 336.7,192.0 337.0,192.0 337.3,192.0 337.6,192.0 337.8,192.0 338.1,192.0 338.4,192.0 338.6,192.0 338.9,192.0 339.2,192.0 339.5,192.0 339.7,192.0 340.0,192.0 340.2,192.0 340.5,192.0 340.8,192.0 341.0,192.0 341.3,192.0 341.5,192.0 341.8,192.0 342.1,192.0 342.3,192.0 342.6,192.0 342.8,192.0 343.1,192.0 343.3,192.0 343.5,192.0 343.8,192.0 344.0,192.0 344.3,192.0 344.5,192.0 344.8,192.0 345.0,192.0 345.2,192.0 345.5,192.0 345.7,192.0 345.9,192.0 346.2,192.0 346.4,192.0 346.6,192.0 346.9,192.0 347.1,192.0 347.3,192.0 347.5,192.0 347.8,192.0 348.0,192.0 348.2,192.0 348.4,192.0 348.7,192.0 348.9,192.0 349.1,192.0 349.3,192.0 349.5,192.0 349.7,192.0 350.0,192.0 350.2,192.0 350.4,192.0 350.6,192.0 350.8,192.0 351.0,192.0 351.2,192.0 351.4,192.0 351.6,192.0 351.8,192.0 352.1,192.0 352.3,192.0 352.5,192.0 352.7,192.0 352.9,192.0 353.1,192.0 353.3,192.0 353.5,192.0 353.7,192.0 353.9,192.0 354.1,192.0 354.3,192.0 354.5,192.0 354.6,192.0 354.8,192.0 355.0,192.0 355.2,192.0 355.4,192.0 355.6,192.0 355.8,192.0 356.0,192.0 356.2,192.0 356.4,192.0 356.5,192.0 356.7,192.0 356.9,192.0 357.1,192.0 357.3,192.0 357.5,192.0 357.7,192.0 357.8,192.0 358.0,192.0 358.2,192.0 358.4,192.0 358.6,192.0 358.7,192.0 358.9,192.0 359.1,192.0 359.3,192.0 359.4,192.0 359.6,192.0 359.8,192.0 360.0,192.0 360.1,192.0 360.3,192.0 360.5,192.0 360.7,192.0 360.8,192.0 361.0,192.0 361.2,192.0 361.3,192.0 361.5,192.0 361.7,192.0 361.8,192.0 362.0,192.0 362.2,192.0 362.3,192.0 362.5,192.0 362.7,192.0 362.8,192.0 363.0,192.0 363.2,192.0 363.3,192.0 363.5,192.0 363.6,192.0 363.8,192.0 364.0,192.0 364.1,192.0 364.3,192.0 364.4,192.0 364.6,192.0 364.8,192.0 364.9,192.0 365.1,192.0 365.2,192.0 365.4,192.0 365.5,192.0 365.7,192.0 365.8,192.0 366.0,192.0 366.2,192.0 366.3,192.0 366.5,192.0 366.6,192.0 366.8,192.0 366.9,192.0 367.1,192.0 367.2,192.0 367.4,192.0 367.5,192.0 367.7,192.0 367.8,192.0 367.9,192.0 368.1,192.0 368.2,192.0 368.4,192.0 368.5,192.0 368.7,192.0 368.8,192.0 369.0,192.0 369.1,192.0 369.3,192.0 369.4,192.0 369.5,192.0 369.7,192.0 369.8,192.0 370.0,192.0 370.1,192.0 370.2,192.0 370.4,192.0 370.5,192.0 370.7,192.0 370.8,192.0 370.9,192.0 371.1,192.0 371.2,192.0 371.4,192.0 371.5,192.0 371.6,192.0 371.8,192.0 371.9,192.0 372.0,192.0 372.2,192.0 372.3,192.0 372.4,192.0 372.6,192.0 372.7,192.0 372.8,192.0 373.0,192.0 373.1,192.0 373.2,192.0 373.4,192.0 373.5,192.0 373.6,192.0 373.8,192.0 373.9,192.0 374.0,192.0 374.1,192.0 374.3,192.0 374.4,192.0 374.5,192.0 374.7,192.0 374.8,192.0 374.9,192.0 375.0,192.0 375.2,192.0 375.3,192.0 375.4,192.0 375.5,192.0 375.7,192.0 375.8,192.0 375.9,192.0 376.0,192.0 376.2,192.0 376.3,192.0 376.4,192.0 376.5,192.0 376.7,192.0 376.8,192.0 376.9,192.0 377.0,192.0 377.1,192.0 377.3,192.0 377.4,192.0 377.5,192.0 377.6,192.0 377.7,192.0 377.9,192.0 378.0,192.0 378.1,192.0 378.2,192.0 378.3,192.0 378.5,192.0 378.6,192.0 378.7,192.0 378.8,192.0 378.9,192.0 379.0,192.0 379.2,192.0 379.3,192.0 379.4,192.0 379.5,192.0 379.6,192.0 379.7,192.0 379.9,192.0 380.0,192.0 380.1,192.0 380.2,192.0 380.3,192.0 380.4,192.0 380.5,192.0 380.7,192.0 380.8,192.0 380.9,192.0 381.0,192.0 381.1,192.0 381.2,192.0 381.3,192.0 381.4,192.0 381.5,192.0 381.7,192.0 381.8,192.0 381.9,192.0 382.0,192.0 382.1,192.0 382.2,192.0 382.3,192.0 382.4,192.0 382.5,192.0 382.6,192.0 382.7,192.0 382.9,192.0 383.0,192.0 383.1,192.0 383.2,192.0 383.3,192.0 383.4,192.0 383.5,192.0 383.6,192.0 383.7,192.0 383.8,192.0 383.9,192.0 384.0,192.0 384.1,192.0 384.2,192.0 384.3,192.0 384.4,192.0 384.5,192.0 384.6,192.0 384.8,192.0 384.9,192.0 385.0,192.0" fill="none" stroke="#e74c3c" stroke-width="1.3" stroke-linejoin="round"/>
  <polyline points="500.0,36.1 549.6,30.7 578.7,26.2 599.3,23.2 615.3,22.2 628.4,23.6 639.4,27.8 649.0,34.5 657.4,42.9 665.0,51.6 671.8,59.1 678.0,63.9 683.8,65.2 689.1,62.6 694.0,56.4 698.6,47.0 703.0,34.9 707.1,21.6 711.0,12.0 714.6,12.0 718.1,22.7 721.5,76.1 724.6,161.6 727.7,192.0 730.6,192.0 733.4,192.0 736.1,192.0 738.7,192.0 741.3,192.0 743.7,192.0 746.0,192.0 748.3,192.0 750.5,192.0 752.7,192.0 754.7,191.2 756.8,184.3 758.7,178.2 760.6,172.6 762.5,167.5 764.3,162.9 766.1,158.6 767.8,154.7 769.5,151.1 771.1,147.7 772.7,144.5 774.3,141.6" fill="none" stroke="#e74c3c" stroke-width="1.3" stroke-linejoin="round"/>
  <polyline points="91.6,14.2 124.8,14.1 144.1,13.9 157.9,13.6 168.5,13.3 177.2,12.9 184.6,12.6 191.0,12.3 196.6,12.1 201.6,12.0 206.2,12.1 210.4,12.3 214.2,12.7 217.7,13.1 221.0,13.6 224.1,14.0 227.0,14.2 229.7,14.2 232.3,13.9 234.8,13.3 237.1,12.4 239.3,12.0 241.4,13.5 243.5,18.1 245.4,24.9 247.3,32.3 249.1,39.6 250.8,46.7 252.5,53.6 254.1,60.4 255.7,67.3 257.2,74.4 258.7,81.9 260.1,90.4 261.5,100.7 262.8,115.0 264.1,147.9 265.4,131.5 266.7,117.2 267.9,110.8 269.0,107.2 270.2,105.0 271.3,103.5 272.4,102.7 273.5,102.2 274.5,102.0 275.6,102.0 276.6,102.2 277.6,102.6 278.5,103.1 279.5,103.6 280.4,104.3 281.3,105.0 282.2,105.8 283.1,106.7 283.9,107.6 284.8,108.6 285.6,109.6 286.4,110.7 287.2,111.8 288.0,113.1 288.8,114.3 289.6,115.7 290.3,117.1 291.1,118.6 291.8,120.2 292.5,121.9 293.2,123.7 293.9,125.6 294.6,127.7 295.3,129.9 295.9,132.4 296.6,135.2 297.3,138.4 297.9,142.0 298.5,146.4 299.2,151.8 299.8,159.0 300.4,170.3 301.0,192.0 301.6,184.2 302.2,166.6 302.7,157.7 303.3,151.8 303.9,147.4 304.4,143.8 305.0,140.9 305.5,138.5 306.1,136.3 306.6,134.5 307.1,132.8 307.7,131.3 308.2,130.0 308.7,128.7 309.2,127.6 309.7,126.6 310.2,125.6 310.7,124.7 311.2,123.9 311.6,123.1 312.1,122.4 312.6,121.7 313.1,121.1 313.5,120.5 314.0,119.9 314.4,119.4 314.9,118.8 315.3,118.3 315.8,117.9 316.2,117.4 316.6,117.0 317.1,116.6 317.5,116.2 317.9,115.8 318.3,115.5 318.7,115.1 319.1,114.8 319.5,114.5 320.0,114.2 320.4,113.9 320.7,113.6 321.1,113.4 321.5,113.1 321.9,112.9 322.3,112.6 322.7,112.4 323.1,112.1 323.4,111.9 323.8,111.7 324.2,111.5 324.5,111.3 324.9,111.1 325.3,110.9 325.6,110.8 326.0,110.6 326.3,110.4 326.7,110.2 327.0,110.1 327.4,109.9 327.7,109.8 328.1,109.6 328.4,109.5 328.7,109.3 329.1,109.2 329.4,109.1 329.7,108.9 330.0,108.8 330.4,108.7 330.7,108.6 331.0,108.5 331.3,108.3 331.6,108.2 332.0,108.1 332.3,108.0 332.6,107.9 332.9,107.8 333.2,107.7 333.5,107.6 333.8,107.5 334.1,107.4 334.4,107.4 334.7,107.3 335.0,107.2 335.3,107.1 335.6,107.0 335.9,106.9 336.1,106.9 336.4,106.8 336.7,106.7 337.0,106.6 337.3,106.6 337.6,106.5 337.8,106.4 338.1,106.4 338.4,106.3 338.6,106.2 338.9,106.2 339.2,106.1 339.5,106.0 339.7,106.0 340.0,105.9 340.2,105.9 340.5,105.8 340.8,105.7 341.0,105.7 341.3,105.6 341.5,105.6 341.8,105.5 342.1,105.5 342.3,105.4 342.6,105.4 342.8,105.3 343.1,105.3 343.3,105.2 343.5,105.2 343.8,105.1 344.0,105.1 344.3,105.1 344.5,105.0 344.8,105.0 345.0,104.9 345.2,104.9 345.5,104.9 345.7,104.8 345.9,104.8 346.2,104.7 346.4,104.7 346.6,104.7 346.9,104.6 347.1,104.6 347.3,104.6 347.5,104.5 347.8,104.5 348.0,104.5 348.2,104.4 348.4,104.4 348.7,104.4 348.9,104.3 349.1,104.3 349.3,104.3 349.5,104.2 349.7,104.2 350.0,104.2 350.2,104.2 350.4,104.1 350.6,104.1 350.8,104.1 351.0,104.0 351.2,104.0 351.4,104.0 351.6,104.0 351.8,103.9 352.1,103.9 352.3,103.9 352.5,103.9 352.7,103.8 352.9,103.8 353.1,103.8 353.3,103.8 353.5,103.8 353.7,103.7 353.9,103.7 354.1,103.7 354.3,103.7 354.5,103.6 354.6,103.6 354.8,103.6 355.0,103.6 355.2,103.6 355.4,103.5 355.6,103.5 355.8,103.5 356.0,103.5 356.2,103.5 356.4,103.4 356.5,103.4 356.7,103.4 356.9,103.4 357.1,103.4 357.3,103.4 357.5,103.3 357.7,103.3 357.8,103.3 358.0,103.3 358.2,103.3 358.4,103.3 358.6,103.2 358.7,103.2 358.9,103.2 359.1,103.2 359.3,103.2 359.4,103.2 359.6,103.2 359.8,103.1 360.0,103.1 360.1,103.1 360.3,103.1 360.5,103.1 360.7,103.1 360.8,103.1 361.0,103.0 361.2,103.0 361.3,103.0 361.5,103.0 361.7,103.0 361.8,103.0 362.0,103.0 362.2,103.0 362.3,102.9 362.5,102.9 362.7,102.9 362.8,102.9 363.0,102.9 363.2,102.9 363.3,102.9 363.5,102.9 363.6,102.8 363.8,102.8 364.0,102.8 364.1,102.8 364.3,102.8 364.4,102.8 364.6,102.8 364.8,102.8 364.9,102.8 365.1,102.8 365.2,102.7 365.4,102.7 365.5,102.7 365.7,102.7 365.8,102.7 366.0,102.7 366.2,102.7 366.3,102.7 366.5,102.7 366.6,102.7 366.8,102.7 366.9,102.6 367.1,102.6 367.2,102.6 367.4,102.6 367.5,102.6 367.7,102.6 367.8,102.6 367.9,102.6 368.1,102.6 368.2,102.6 368.4,102.6 368.5,102.6 368.7,102.5 368.8,102.5 369.0,102.5 369.1,102.5 369.3,102.5 369.4,102.5 369.5,102.5 369.7,102.5 369.8,102.5 370.0,102.5 370.1,102.5 370.2,102.5 370.4,102.5 370.5,102.5 370.7,102.4 370.8,102.4 370.9,102.4 371.1,102.4 371.2,102.4 371.4,102.4 371.5,102.4 371.6,102.4 371.8,102.4 371.9,102.4 372.0,102.4 372.2,102.4 372.3,102.4 372.4,102.4 372.6,102.4 372.7,102.4 372.8,102.4 373.0,102.3 373.1,102.3 373.2,102.3 373.4,102.3 373.5,102.3 373.6,102.3 373.8,102.3 373.9,102.3 374.0,102.3 374.1,102.3 374.3,102.3 374.4,102.3 374.5,102.3 374.7,102.3 374.8,102.3 374.9,102.3 375.0,102.3 375.2,102.3 375.3,102.3 375.4,102.3 375.5,102.3 375.7,102.2 375.8,102.2 375.9,102.2 376.0,102.2 376.2,102.2 376.3,102.2 376.4,102.2 376.5,102.2 376.7,102.2 376.8,102.2 376.9,102.2 377.0,102.2 377.1,102.2 377.3,102.2 377.4,102.2 377.5,102.2 377.6,102.2 377.7,102.2 377.9,102.2 378.0,102.2 378.1,102.2 378.2,102.2 378.3,102.2 378.5,102.2 378.6,102.2 378.7,102.2 378.8,102.2 378.9,102.1 379.0,102.1 379.2,102.1 379.3,102.1 379.4,102.1 379.5,102.1 379.6,102.1 379.7,102.1 379.9,102.1 380.0,102.1 380.1,102.1 380.2,102.1 380.3,102.1 380.4,102.1 380.5,102.1 380.7,102.1 380.8,102.1 380.9,102.1 381.0,102.1 381.1,102.1 381.2,102.1 381.3,102.1 381.4,102.1 381.5,102.1 381.7,102.1 381.8,102.1 381.9,102.1 382.0,102.1 382.1,102.1 382.2,102.1 382.3,102.1 382.4,102.1 382.5,102.1 382.6,102.1 382.7,102.1 382.9,102.1 383.0,102.1 383.1,102.1 383.2,102.1 383.3,102.1 383.4,102.1 383.5,102.1 383.6,102.0 383.7,102.0 383.8,102.0 383.9,102.0 384.0,102.0 384.1,102.0 384.2,102.0 384.3,102.0 384.4,102.0 384.5,102.0 384.6,102.0 384.8,102.0 384.9,102.0 385.0,102.0" fill="none" stroke="#2ecc71" stroke-width="1.3" stroke-linejoin="round"/>
  <polyline points="500.0,37.5 549.6,33.3 578.7,29.5 599.3,26.6 615.3,24.8 628.4,24.4 639.4,25.9 649.0,29.4 657.4,35.0 665.0,42.0 671.8,49.8 678.0,57.1 683.8,62.5 689.1,65.1 694.0,64.0 698.6,58.8 703.0,49.2 707.1,35.4 711.0,18.3 714.6,12.0 718.1,12.0 721.5,53.8 724.6,192.0 727.7,192.0 730.6,192.0 733.4,192.0 736.1,192.0 738.7,192.0 741.3,192.0 743.7,192.0 746.0,192.0 748.3,192.0 750.5,192.0 752.7,192.0 754.7,192.0 756.8,192.0 758.7,192.0 760.6,12.0 762.5,12.0 764.3,12.0 766.1,12.0 767.8,12.0 769.5,12.0 771.1,12.0 772.7,26.0 774.3,38.5" fill="none" stroke="#2ecc71" stroke-width="1.3" stroke-linejoin="round"/>
  <polyline points="91.6,12.0 124.8,12.0 144.1,12.1 157.9,12.2 168.5,12.3 177.2,12.4 184.6,12.6 191.0,12.7 196.6,12.9 201.6,13.2 206.2,13.4 210.4,13.7 214.2,14.0 217.7,14.3 221.0,14.7 224.1,15.1 227.0,15.5 229.7,15.9 232.3,16.4 234.8,16.9 237.1,17.4 239.3,18.0 241.4,18.6 243.5,19.3 245.4,20.0 247.3,20.7 249.1,21.5 250.8,22.3 252.5,23.1 254.1,24.0 255.7,24.9 257.2,25.9 258.7,26.9 260.1,27.9 261.5,29.0 262.8,30.0 264.1,31.2 265.4,32.3 266.7,33.5 267.9,34.6 269.0,35.8 270.2,37.0 271.3,38.2 272.4,39.5 273.5,40.7 274.5,41.9 275.6,43.1 276.6,44.4 277.6,45.6 278.5,46.8 279.5,48.1 280.4,49.3 281.3,50.5 282.2,51.7 283.1,52.9 283.9,54.1 284.8,55.3 285.6,56.5 286.4,57.6 287.2,58.8 288.0,59.9 288.8,61.1 289.6,62.2 290.3,63.3 291.1,64.4 291.8,65.5 292.5,66.6 293.2,67.7 293.9,68.7 294.6,69.8 295.3,70.8 295.9,71.9 296.6,72.9 297.3,73.9 297.9,74.9 298.5,75.9 299.2,76.9 299.8,77.9 300.4,78.8 301.0,79.8 301.6,80.8 302.2,81.7 302.7,82.6 303.3,83.6 303.9,84.5 304.4,85.4 305.0,86.3 305.5,87.2 306.1,88.1 306.6,88.9 307.1,89.8 307.7,90.7 308.2,91.5 308.7,92.4 309.2,93.2 309.7,94.0 310.2,94.9 310.7,95.7 311.2,96.5 311.6,97.3 312.1,98.1 312.6,98.9 313.1,99.7 313.5,100.5 314.0,101.3 314.4,102.0 314.9,102.8 315.3,103.5 315.8,104.3 316.2,105.1 316.6,105.8 317.1,106.5 317.5,107.3 317.9,108.0 318.3,108.7 318.7,109.4 319.1,110.2 319.5,110.9 320.0,111.6 320.4,112.3 320.7,113.0 321.1,113.7 321.5,114.4 321.9,115.0 322.3,115.7 322.7,116.4 323.1,117.1 323.4,117.7 323.8,118.4 324.2,119.1 324.5,119.7 324.9,120.4 325.3,121.0 325.6,121.7 326.0,122.3 326.3,122.9 326.7,123.6 327.0,124.2 327.4,124.8 327.7,125.5 328.1,126.1 328.4,126.7 328.7,127.3 329.1,127.9 329.4,128.5 329.7,129.1 330.0,129.8 330.4,130.4 330.7,131.0 331.0,131.6 331.3,132.1 331.6,132.7 332.0,133.3 332.3,133.9 332.6,134.5 332.9,135.1 333.2,135.7 333.5,136.2 333.8,136.8 334.1,137.4 334.4,137.9 334.7,138.5 335.0,139.1 335.3,139.6 335.6,140.2 335.9,140.8 336.1,141.3 336.4,141.9 336.7,142.4 337.0,143.0 337.3,143.5 337.6,144.1 337.8,144.6 338.1,145.2 338.4,145.7 338.6,146.2 338.9,146.8 339.2,147.3 339.5,147.9 339.7,148.4 340.0,148.9 340.2,149.5 340.5,150.0 340.8,150.5 341.0,151.0 341.3,151.6 341.5,152.1 341.8,152.6 342.1,153.1 342.3,153.6 342.6,154.2 342.8,154.7 343.1,155.2 343.3,155.7 343.5,156.2 343.8,156.7 344.0,157.2 344.3,157.7 344.5,158.3 344.8,158.8 345.0,159.3 345.2,159.8 345.5,160.3 345.7,160.8 345.9,161.3 346.2,161.8 346.4,162.3 346.6,162.8 346.9,163.3 347.1,163.8 347.3,164.3 347.5,164.8 347.8,165.3 348.0,165.8 348.2,166.3 348.4,166.7 348.7,167.2 348.9,167.7 349.1,168.2 349.3,168.7 349.5,169.2 349.7,169.7 350.0,170.2 350.2,170.7 350.4,171.1 350.6,171.6 350.8,172.1 351.0,172.6 351.2,173.1 351.4,173.6 351.6,174.1 351.8,174.5 352.1,175.0 352.3,175.5 352.5,176.0 352.7,176.5 352.9,176.9 353.1,177.4 353.3,177.9 353.5,178.4 353.7,178.9 353.9,179.4 354.1,179.8 354.3,180.3 354.5,180.8 354.6,181.3 354.8,181.7 355.0,182.2 355.2,182.7 355.4,183.2 355.6,183.7 355.8,184.1 356.0,184.6 356.2,185.1 356.4,185.6 356.5,186.1 356.7,186.5 356.9,187.0 357.1,187.5 357.3,188.0 357.5,188.4 357.7,188.9 357.8,189.4 358.0,189.9 358.2,190.4 358.4,190.8 358.6,191.3 358.7,191.8 358.9,192.0 359.1,192.0 359.3,192.0 359.4,192.0 359.6,192.0 359.8,192.0 360.0,192.0 360.1,192.0 360.3,192.0 360.5,192.0 360.7,192.0 360.8,192.0 361.0,192.0 361.2,192.0 361.3,192.0 361.5,192.0 361.7,192.0 361.8,192.0 362.0,192.0 362.2,192.0 362.3,192.0 362.5,192.0 362.7,192.0 362.8,192.0 363.0,192.0 363.2,192.0 363.3,192.0 363.5,192.0 363.6,192.0 363.8,192.0 364.0,192.0 364.1,192.0 364.3,192.0 364.4,192.0 364.6,192.0 364.8,192.0 364.9,192.0 365.1,192.0 365.2,192.0 365.4,192.0 365.5,192.0 365.7,192.0 365.8,192.0 366.0,192.0 366.2,192.0 366.3,192.0 366.5,192.0 366.6,192.0 366.8,192.0 366.9,192.0 367.1,192.0 367.2,192.0 367.4,192.0 367.5,192.0 367.7,192.0 367.8,192.0 367.9,192.0 368.1,192.0 368.2,192.0 368.4,192.0 368.5,192.0 368.7,192.0 368.8,192.0 369.0,192.0 369.1,192.0 369.3,192.0 369.4,192.0 369.5,192.0 369.7,192.0 369.8,192.0 370.0,192.0 370.1,192.0 370.2,192.0 370.4,192.0 370.5,192.0 370.7,192.0 370.8,192.0 370.9,192.0 371.1,192.0 371.2,192.0 371.4,192.0 371.5,192.0 371.6,192.0 371.8,192.0 371.9,192.0 372.0,192.0 372.2,192.0 372.3,192.0 372.4,192.0 372.6,192.0 372.7,192.0 372.8,192.0 373.0,192.0 373.1,192.0 373.2,192.0 373.4,192.0 373.5,192.0 373.6,192.0 373.8,192.0 373.9,192.0 374.0,192.0 374.1,192.0 374.3,192.0 374.4,192.0 374.5,192.0 374.7,192.0 374.8,192.0 374.9,192.0 375.0,192.0 375.2,192.0 375.3,192.0 375.4,192.0 375.5,192.0 375.7,192.0 375.8,192.0 375.9,192.0 376.0,192.0 376.2,192.0 376.3,192.0 376.4,192.0 376.5,192.0 376.7,192.0 376.8,192.0 376.9,192.0 377.0,192.0 377.1,192.0 377.3,192.0 377.4,192.0 377.5,192.0 377.6,192.0 377.7,192.0 377.9,192.0 378.0,192.0 378.1,192.0 378.2,192.0 378.3,192.0 378.5,192.0 378.6,192.0 378.7,192.0 378.8,192.0 378.9,192.0 379.0,192.0 379.2,192.0 379.3,192.0 379.4,192.0 379.5,192.0 379.6,192.0 379.7,192.0 379.9,192.0 380.0,192.0 380.1,192.0 380.2,192.0 380.3,192.0 380.4,192.0 380.5,192.0 380.7,192.0 380.8,192.0 380.9,192.0 381.0,192.0 381.1,192.0 381.2,192.0 381.3,192.0 381.4,192.0 381.5,192.0 381.7,192.0 381.8,192.0 381.9,192.0 382.0,192.0 382.1,192.0 382.2,192.0 382.3,192.0 382.4,192.0 382.5,192.0 382.6,192.0 382.7,192.0 382.9,192.0 383.0,192.0 383.1,192.0 383.2,192.0 383.3,192.0 383.4,192.0 383.5,192.0 383.6,192.0 383.7,192.0 383.8,192.0 383.9,192.0 384.0,192.0 384.1,192.0 384.2,192.0 384.3,192.0 384.4,192.0 384.5,192.0 384.6,192.0 384.8,192.0 384.9,192.0 385.0,192.0" fill="none" stroke="#f39c12" stroke-width="1.3" stroke-linejoin="round"/>
  <polyline points="500.0,43.2 549.6,44.3 578.7,45.5 599.3,46.6 615.3,47.8 628.4,49.0 639.4,50.2 649.0,51.4 657.4,52.6 665.0,53.9 671.8,55.1 678.0,56.4 683.8,57.7 689.1,59.1 694.0,60.5 698.6,61.9 703.0,63.4 707.1,65.0 711.0,66.6 714.6,68.3 718.1,70.0 721.5,71.8 724.6,73.6 727.7,75.5 730.6,77.4 733.4,79.4 736.1,81.3 738.7,83.3 741.3,85.3 743.7,87.2 746.0,89.1 748.3,90.9 750.5,92.6 752.7,94.2 754.7,95.7 756.8,97.0 758.7,98.3 760.6,99.4 762.5,100.3 764.3,101.2 766.1,101.9 767.8,102.4 769.5,102.9 771.1,103.2 772.7,103.5 774.3,103.6" fill="none" stroke="#f39c12" stroke-width="1.3" stroke-linejoin="round"/>
  <polyline points="91.6,12.0 124.8,12.0 144.1,12.0 157.9,12.0 168.5,12.1 177.2,12.1 184.6,12.2 191.0,12.3 196.6,12.4 201.6,12.6 206.2,12.7 210.4,12.9 214.2,13.0 217.7,13.1 221.0,13.1 224.1,13.2 227.0,13.2 229.7,13.2 232.3,13.4 234.8,13.8 237.1,14.7 239.3,16.1 241.4,18.2 243.5,20.9 245.4,24.0 247.3,27.3 249.1,30.7 250.8,34.1 252.5,37.5 254.1,40.7 255.7,43.9 257.2,46.9 258.7,49.8 260.1,52.6 261.5,55.3 262.8,57.9 264.1,60.4 265.4,62.9 266.7,65.2 267.9,67.5 269.0,69.7 270.2,71.8 271.3,73.9 272.4,75.9 273.5,77.9 274.5,79.8 275.6,81.7 276.6,83.5 277.6,85.3 278.5,87.0 279.5,88.7 280.4,90.4 281.3,92.0 282.2,93.6 283.1,95.1 283.9,96.7 284.8,98.2 285.6,99.6 286.4,101.1 287.2,102.5 288.0,103.9 288.8,105.2 289.6,106.6 290.3,107.9 291.1,109.2 291.8,110.5 292.5,111.7 293.2,113.0 293.9,114.2 294.6,115.4 295.3,116.6 295.9,117.8 296.6,118.9 297.3,120.1 297.9,121.2 298.5,122.3 299.2,123.4 299.8,124.5 300.4,125.5 301.0,126.6 301.6,127.6 302.2,128.7 302.7,129.7 303.3,130.7 303.9,131.7 304.4,132.6 305.0,133.6 305.5,134.6 306.1,135.5 306.6,136.5 307.1,137.4 307.7,138.3 308.2,139.2 308.7,140.1 309.2,141.0 309.7,141.9 310.2,142.8 310.7,143.6 311.2,144.5 311.6,145.4 312.1,146.2 312.6,147.0 313.1,147.9 313.5,148.7 314.0,149.5 314.4,150.3 314.9,151.1 315.3,151.9 315.8,152.7 316.2,153.5 316.6,154.3 317.1,155.0 317.5,155.8 317.9,156.5 318.3,157.3 318.7,158.0 319.1,158.8 319.5,159.5 320.0,160.2 320.4,161.0 320.7,161.7 321.1,162.4 321.5,163.1 321.9,163.8 322.3,164.5 322.7,165.2 323.1,165.9 323.4,166.6 323.8,167.3 324.2,168.0 324.5,168.6 324.9,169.3 325.3,170.0 325.6,170.6 326.0,171.3 326.3,171.9 326.7,172.6 327.0,173.2 327.4,173.9 327.7,174.5 328.1,175.2 328.4,175.8 328.7,176.4 329.1,177.1 329.4,177.7 329.7,178.3 330.0,178.9 330.4,179.5 330.7,180.1 331.0,180.8 331.3,181.4 331.6,182.0 332.0,182.6 332.3,183.2 332.6,183.8 332.9,184.3 333.2,184.9 333.5,185.5 333.8,186.1 334.1,186.7 334.4,187.3 334.7,187.8 335.0,188.4 335.3,189.0 335.6,189.6 335.9,190.1 336.1,190.7 336.4,191.3 336.7,191.8 337.0,192.0 337.3,192.0 337.6,192.0 337.8,192.0 338.1,192.0 338.4,192.0 338.6,192.0 338.9,192.0 339.2,192.0 339.5,192.0 339.7,192.0 340.0,192.0 340.2,192.0 340.5,192.0 340.8,192.0 341.0,192.0 341.3,192.0 341.5,192.0 341.8,192.0 342.1,192.0 342.3,192.0 342.6,192.0 342.8,192.0 343.1,192.0 343.3,192.0 343.5,192.0 343.8,192.0 344.0,192.0 344.3,192.0 344.5,192.0 344.8,192.0 345.0,192.0 345.2,192.0 345.5,192.0 345.7,192.0 345.9,192.0 346.2,192.0 346.4,192.0 346.6,192.0 346.9,192.0 347.1,192.0 347.3,192.0 347.5,192.0 347.8,192.0 348.0,192.0 348.2,192.0 348.4,192.0 348.7,192.0 348.9,192.0 349.1,192.0 349.3,192.0 349.5,192.0 349.7,192.0 350.0,192.0 350.2,192.0 350.4,192.0 350.6,192.0 350.8,192.0 351.0,192.0 351.2,192.0 351.4,192.0 351.6,192.0 351.8,192.0 352.1,192.0 352.3,192.0 352.5,192.0 352.7,192.0 352.9,192.0 353.1,192.0 353.3,192.0 353.5,192.0 353.7,192.0 353.9,192.0 354.1,192.0 354.3,192.0 354.5,192.0 354.6,192.0 354.8,192.0 355.0,192.0 355.2,192.0 355.4,192.0 355.6,192.0 355.8,192.0 356.0,192.0 356.2,192.0 356.4,192.0 356.5,192.0 356.7,192.0 356.9,192.0 357.1,192.0 357.3,192.0 357.5,192.0 357.7,192.0 357.8,192.0 358.0,192.0 358.2,192.0 358.4,192.0 358.6,192.0 358.7,192.0 358.9,192.0 359.1,192.0 359.3,192.0 359.4,192.0 359.6,192.0 359.8,192.0 360.0,192.0 360.1,192.0 360.3,192.0 360.5,192.0 360.7,192.0 360.8,192.0 361.0,192.0 361.2,192.0 361.3,192.0 361.5,192.0 361.7,192.0 361.8,192.0 362.0,192.0 362.2,192.0 362.3,192.0 362.5,192.0 362.7,192.0 362.8,192.0 363.0,192.0 363.2,192.0 363.3,192.0 363.5,192.0 363.6,192.0 363.8,192.0 364.0,192.0 364.1,192.0 364.3,192.0 364.4,192.0 364.6,192.0 364.8,192.0 364.9,192.0 365.1,192.0 365.2,192.0 365.4,192.0 365.5,192.0 365.7,192.0 365.8,192.0 366.0,192.0 366.2,192.0 366.3,192.0 366.5,192.0 366.6,192.0 366.8,192.0 366.9,192.0 367.1,192.0 367.2,192.0 367.4,192.0 367.5,192.0 367.7,192.0 367.8,192.0 367.9,192.0 368.1,192.0 368.2,192.0 368.4,192.0 368.5,192.0 368.7,192.0 368.8,192.0 369.0,192.0 369.1,192.0 369.3,192.0 369.4,192.0 369.5,192.0 369.7,192.0 369.8,192.0 370.0,192.0 370.1,192.0 370.2,192.0 370.4,192.0 370.5,192.0 370.7,192.0 370.8,192.0 370.9,192.0 371.1,192.0 371.2,192.0 371.4,192.0 371.5,192.0 371.6,192.0 371.8,192.0 371.9,192.0 372.0,192.0 372.2,192.0 372.3,192.0 372.4,192.0 372.6,192.0 372.7,192.0 372.8,192.0 373.0,192.0 373.1,192.0 373.2,192.0 373.4,192.0 373.5,192.0 373.6,192.0 373.8,192.0 373.9,192.0 374.0,192.0 374.1,192.0 374.3,192.0 374.4,192.0 374.5,192.0 374.7,192.0 374.8,192.0 374.9,192.0 375.0,192.0 375.2,192.0 375.3,192.0 375.4,192.0 375.5,192.0 375.7,192.0 375.8,192.0 375.9,192.0 376.0,192.0 376.2,192.0 376.3,192.0 376.4,192.0 376.5,192.0 376.7,192.0 376.8,192.0 376.9,192.0 377.0,192.0 377.1,192.0 377.3,192.0 377.4,192.0 377.5,192.0 377.6,192.0 377.7,192.0 377.9,192.0 378.0,192.0 378.1,192.0 378.2,192.0 378.3,192.0 378.5,192.0 378.6,192.0 378.7,192.0 378.8,192.0 378.9,192.0 379.0,192.0 379.2,192.0 379.3,192.0 379.4,192.0 379.5,192.0 379.6,192.0 379.7,192.0 379.9,192.0 380.0,192.0 380.1,192.0 380.2,192.0 380.3,192.0 380.4,192.0 380.5,192.0 380.7,192.0 380.8,192.0 380.9,192.0 381.0,192.0 381.1,192.0 381.2,192.0 381.3,192.0 381.4,192.0 381.5,192.0 381.7,192.0 381.8,192.0 381.9,192.0 382.0,192.0 382.1,192.0 382.2,192.0 382.3,192.0 382.4,192.0 382.5,192.0 382.6,192.0 382.7,192.0 382.9,192.0 383.0,192.0 383.1,192.0 383.2,192.0 383.3,192.0 383.4,192.0 383.5,192.0 383.6,192.0 383.7,192.0 383.8,192.0 383.9,192.0 384.0,192.0 384.1,192.0 384.2,192.0 384.3,192.0 384.4,192.0 384.5,192.0 384.6,192.0 384.8,192.0 384.9,192.0 385.0,192.0" fill="none" stroke="#9b59b6" stroke-width="1.3" stroke-linejoin="round"/>
  <polyline points="500.0,42.0 549.6,42.2 578.7,42.5 599.3,43.1 615.3,44.1 628.4,45.2 639.4,46.5 649.0,47.8 657.4,48.9 665.0,49.5 671.8,49.6 678.0,48.9 683.8,47.6 689.1,45.7 694.0,43.7 698.6,42.2 703.0,42.4 707.1,46.2 711.0,55.7 714.6,73.3 718.1,99.4 721.5,131.2 724.6,162.6 727.7,187.6 730.6,192.0 733.4,192.0 736.1,192.0 738.7,192.0 741.3,192.0 743.7,192.0 746.0,192.0 748.3,190.5 750.5,185.0 752.7,179.6 754.7,174.6 756.8,169.9 758.7,165.5 760.6,161.4 762.5,157.5 764.3,153.9 766.1,150.6 767.8,147.4 769.5,144.4 771.1,141.6 772.7,139.0 774.3,136.5" fill="none" stroke="#9b59b6" stroke-width="1.3" stroke-linejoin="round"/>
  <rect x="55" y="220" width="10" height="3" fill="#4a90d9" rx="1"/>
  <text x="69" y="224" font-size="9" fill="#6b7280">Butterworth</text>
  <rect x="195" y="220" width="10" height="3" fill="#e74c3c" rx="1"/>
  <text x="209" y="224" font-size="9" fill="#6b7280">Chebyshev I</text>
  <rect x="335" y="220" width="10" height="3" fill="#2ecc71" rx="1"/>
  <text x="349" y="224" font-size="9" fill="#6b7280">Elliptic</text>
  <rect x="475" y="220" width="10" height="3" fill="#f39c12" rx="1"/>
  <text x="489" y="224" font-size="9" fill="#6b7280">Bessel</text>
  <rect x="615" y="220" width="10" height="3" fill="#9b59b6" rx="1"/>
  <text x="629" y="224" font-size="9" fill="#6b7280">Legendre</text>
</svg>
