<svg xmlns="http://www.w3.org/2000/svg" viewBox="0 0 820 378" style="font-family:system-ui,-apple-system,sans-serif">
  <text x="800" y="11" text-anchor="end" font-size="11" font-weight="600" fill="#6b7280">ITU-R 468 noise weighting</text>
  <line x1="34" y1="16" x2="34" y2="171" stroke="#d1d5db"/>
  <line x1="34" y1="47.0" x2="399" y2="47.0" stroke="#d1d5db"/>
  <text x="216.5" y="197" text-anchor="middle" font-size="9" fill="#6b7280">Hz</text>
  <text x="12" y="93.5" text-anchor="middle" font-size="9" fill="#6b7280" transform="rotate(-90 12 93.5)">dB</text>
  <line x1="67.3" y1="16" x2="67.3" y2="171" stroke="#e5e7eb" stroke-width="0.5"/>
  <line x1="86.8" y1="16" x2="86.8" y2="171" stroke="#e5e7eb" stroke-width="0.5"/>
  <line x1="100.6" y1="16" x2="100.6" y2="171" stroke="#e5e7eb" stroke-width="0.5"/>
  <line x1="111.3" y1="16" x2="111.3" y2="171" stroke="#e5e7eb" stroke-width="0.5"/>
  <line x1="120.0" y1="16" x2="120.0" y2="171" stroke="#e5e7eb" stroke-width="0.5"/>
  <line x1="127.4" y1="16" x2="127.4" y2="171" stroke="#e5e7eb" stroke-width="0.5"/>
  <line x1="133.9" y1="16" x2="133.9" y2="171" stroke="#e5e7eb" stroke-width="0.5"/>
  <line x1="139.5" y1="16" x2="139.5" y2="171" stroke="#e5e7eb" stroke-width="0.5"/>
  <line x1="177.9" y1="16" x2="177.9" y2="171" stroke="#e5e7eb" stroke-width="0.5"/>
  <line x1="197.3" y1="16" x2="197.3" y2="171" stroke="#e5e7eb" stroke-width="0.5"/>
  <line x1="211.1" y1="16" x2="211.1" y2="171" stroke="#e5e7eb" stroke-width="0.5"/>
  <line x1="221.9" y1="16" x2="221.9" y2="171" stroke="#e5e7eb" stroke-width="0.5"/>
  <line x1="230.6" y1="16" x2="230.6" y2="171" stroke="#e5e7eb" stroke-width="0.5"/>
  <line x1="238.0" y1="16" x2="238.0" y2="171" stroke="#e5e7eb" stroke-width="0.5"/>
  <line x1="244.4" y1="16" x2="244.4" y2="171" stroke="#e5e7eb" stroke-width="0.5"/>
  <line x1="250.1" y1="16" x2="250.1" y2="171" stroke="#e5e7eb" stroke-width="0.5"/>
  <line x1="288.4" y1="16" x2="288.4" y2="171" stroke="#e5e7eb" stroke-width="0.5"/>
  <line x1="307.9" y1="16" x2="307.9" y2="171" stroke="#e5e7eb" stroke-width="0.5"/>
  <line x1="321.7" y1="16" x2="321.7" y2="171" stroke="#e5e7eb" stroke-width="0.5"/>
  <line x1="332.4" y1="16" x2="332.4" y2="171" stroke="#e5e7eb" stroke-width="0.5"/>
  <line x1="341.2" y1="16" x2="341.2" y2="171" stroke="#e5e7eb" stroke-width="0.5"/>
  <line x1="348.6" y1="16" x2="348.6" y2="171" stroke="#e5e7eb" stroke-width="0.5"/>
  <line x1="355.0" y1="16" x2="355.0" y2="171" stroke="#e5e7eb" stroke-width="0.5"/>
  <line x1="360.7" y1="16" x2="360.7" y2="171" stroke="#e5e7eb" stroke-width="0.5"/>
  <line x1="399.0" y1="16" x2="399.0" y2="171" stroke="#e5e7eb" stroke-width="0.5"/>
  <line x1="144.6" y1="16" x2="144.6" y2="171" stroke="#e5e7eb" stroke-width="0.5"/>
  <text x="144.6" y="183" text-anchor="middle" font-size="8" fill="#6b7280">100</text>
  <line x1="255.1" y1="16" x2="255.1" y2="171" stroke="#e5e7eb" stroke-width="0.5"/>
  <text x="255.1" y="183" text-anchor="middle" font-size="8" fill="#6b7280">1k</text>
  <line x1="365.7" y1="16" x2="365.7" y2="171" stroke="#e5e7eb" stroke-width="0.5"/>
  <text x="365.7" y="183" text-anchor="middle" font-size="8" fill="#6b7280">10k</text>
  <line x1="34" y1="31.5" x2="399" y2="31.5" stroke="#e5e7eb" stroke-width="0.5"/>
  <line x1="34" y1="62.5" x2="399" y2="62.5" stroke="#e5e7eb" stroke-width="0.5"/>
  <line x1="34" y1="16.0" x2="399" y2="16.0" stroke="#e5e7eb" stroke-width="0.5"/>
  <text x="30" y="19.0" text-anchor="end" font-size="8" fill="#6b7280">+20</text>
  <text x="30" y="50.0" text-anchor="end" font-size="8" fill="#6b7280">0</text>
  <line x1="34" y1="78.0" x2="399" y2="78.0" stroke="#e5e7eb" stroke-width="0.5"/>
  <text x="30" y="81.0" text-anchor="end" font-size="8" fill="#6b7280">-20</text>
  <line x1="34" y1="109.0" x2="399" y2="109.0" stroke="#e5e7eb" stroke-width="0.5"/>
  <text x="30" y="112.0" text-anchor="end" font-size="8" fill="#6b7280">-40</text>
  <line x1="34" y1="140.0" x2="399" y2="140.0" stroke="#e5e7eb" stroke-width="0.5"/>
  <text x="30" y="143.0" text-anchor="end" font-size="8" fill="#6b7280">-60</text>
  <line x1="34" y1="171.0" x2="399" y2="171.0" stroke="#e5e7eb" stroke-width="0.5"/>
  <text x="30" y="174.0" text-anchor="end" font-size="8" fill="#6b7280">-80</text>
  <defs><linearGradient id="g277" x1="0" y1="16" x2="0" y2="171" gradientUnits="userSpaceOnUse">
    <stop offset="0%" stop-color="#4a90d9" stop-opacity="0.15"/>
    <stop offset="100%" stop-color="#4a90d9" stop-opacity="0.02"/>
  </linearGradient></defs>
  <path d="M37.5,62.9 37.5,62.9 70.8,50.9 90.3,48.3 104.1,47.6 114.8,47.3 123.6,47.2 131.0,47.1 137.4,47.0 143.1,47.0 148.1,47.0 152.7,46.9 156.9,46.9 160.7,46.8 164.3,46.8 167.6,46.8 170.7,46.7 173.6,46.7 176.3,46.6 178.9,46.6 181.4,46.5 183.7,46.5 186.0,46.4 188.1,46.4 190.2,46.3 192.1,46.3 194.0,46.2 195.8,46.2 197.6,46.1 199.2,46.1 200.9,46.0 202.4,45.9 204.0,45.9 205.5,45.8 206.9,45.8 208.3,45.7 209.6,45.6 210.9,45.6 212.2,45.5 213.5,45.4 214.7,45.4 215.9,45.3 217.0,45.3 218.2,45.2 219.3,45.1 220.3,45.1 221.4,45.0 222.4,44.9 223.4,44.9 224.4,44.8 225.4,44.7 226.4,44.7 227.3,44.6 228.2,44.5 229.1,44.5 230.0,44.4 230.8,44.3 231.7,44.2 232.5,44.2 233.4,44.1 234.2,44.0 235.7,43.9 237.3,43.8 238.7,43.6 240.2,43.5 241.6,43.4 242.9,43.2 244.2,43.1 245.5,43.0 246.8,42.8 248.0,42.7 249.2,42.6 250.3,42.5 251.4,42.3 252.6,42.2 253.6,42.1 254.7,41.9 255.7,41.8 256.7,41.7 257.7,41.6 258.7,41.4 259.6,41.3 260.6,41.2 261.5,41.1 262.4,41.0 263.3,40.8 264.1,40.7 265.0,40.6 265.8,40.5 266.6,40.3 267.4,40.2 268.6,40.0 269.8,39.9 270.9,39.7 272.0,39.5 273.1,39.3 274.2,39.1 275.2,39.0 276.2,38.8 277.2,38.6 278.2,38.4 279.1,38.3 280.0,38.1 281.0,37.9 281.9,37.7 282.7,37.5 283.6,37.4 284.5,37.2 285.3,37.0 286.1,36.9 286.9,36.7 288.0,36.4 289.0,36.2 290.0,36.0 291.0,35.8 292.0,35.5 292.9,35.3 293.9,35.1 294.8,34.8 295.7,34.6 296.6,34.4 297.4,34.1 298.3,33.9 299.1,33.7 299.9,33.5 300.7,33.2 301.7,32.9 302.7,32.6 303.6,32.4 304.6,32.1 305.5,31.8 306.4,31.5 307.3,31.2 308.1,30.9 309.0,30.6 309.8,30.3 310.6,30.1 311.4,29.8 312.4,29.4 313.3,29.1 314.2,28.7 315.1,28.4 316.0,28.1 316.9,27.7 317.7,27.4 318.6,27.0 319.4,26.7 320.2,26.4 321.1,26.0 322.0,25.6 322.9,25.2 323.8,24.8 324.7,24.4 325.5,24.1 326.3,23.7 327.1,23.4 327.9,23.0 328.8,22.6 329.7,22.3 330.6,21.9 331.4,21.6 332.3,21.3 333.1,21.0 333.9,20.8 334.8,20.5 335.7,20.3 336.5,20.2 337.4,20.0 338.2,19.9 339.0,19.9 339.8,19.9 340.7,19.9 341.6,20.0 342.4,20.1 343.3,20.2 344.1,20.4 344.9,20.6 345.8,20.9 346.6,21.2 347.5,21.5 348.3,21.8 349.1,22.1 350.0,22.5 350.8,22.8 351.7,23.2 352.5,23.6 353.3,24.0 354.1,24.4 355.0,24.8 355.8,25.1 356.6,25.5 357.5,25.9 358.3,26.3 359.1,26.7 360.0,27.1 360.8,27.4 361.6,27.8 362.5,28.2 363.3,28.5 364.1,28.9 364.9,29.2 365.8,29.6 366.6,29.9 367.4,30.2 368.2,30.6 369.1,30.9 369.9,31.2 370.7,31.5 371.6,31.8 372.4,32.1 373.2,32.4 374.0,32.7 374.8,33.0 375.6,33.3 376.5,33.6 377.3,33.8 378.1,34.1 378.9,34.4 379.7,34.6 380.5,34.9 381.4,35.1 382.2,35.4 383.0,35.6 383.8,35.9 384.6,36.1 385.5,36.4 386.3,36.6 387.1,36.8 387.9,37.1 388.7,37.3 389.5,37.6 390.3,37.9 391.2,38.1 392.0,38.4 392.8,38.7 393.6,39.1 394.4,39.5 395.2,40.0 396.0,40.6 396.8,41.3 397.6,42.3 398.5,43.6 L398.5,171.0 L37.5,171.0 Z" fill="url(#g277)"/>
  <defs><clipPath id="pc278"><rect x="34" y="16" width="365" height="155"/></clipPath></defs>
  <polyline points="37.5,62.9 70.8,50.9 90.3,48.3 104.1,47.6 114.8,47.3 123.6,47.2 131.0,47.1 137.4,47.0 143.1,47.0 148.1,47.0 152.7,46.9 156.9,46.9 160.7,46.8 164.3,46.8 167.6,46.8 170.7,46.7 173.6,46.7 176.3,46.6 178.9,46.6 181.4,46.5 183.7,46.5 186.0,46.4 188.1,46.4 190.2,46.3 192.1,46.3 194.0,46.2 195.8,46.2 197.6,46.1 199.2,46.1 200.9,46.0 202.4,45.9 204.0,45.9 205.5,45.8 206.9,45.8 208.3,45.7 209.6,45.6 210.9,45.6 212.2,45.5 213.5,45.4 214.7,45.4 215.9,45.3 217.0,45.3 218.2,45.2 219.3,45.1 220.3,45.1 221.4,45.0 222.4,44.9 223.4,44.9 224.4,44.8 225.4,44.7 226.4,44.7 227.3,44.6 228.2,44.5 229.1,44.5 230.0,44.4 230.8,44.3 231.7,44.2 232.5,44.2 233.4,44.1 234.2,44.0 235.7,43.9 237.3,43.8 238.7,43.6 240.2,43.5 241.6,43.4 242.9,43.2 244.2,43.1 245.5,43.0 246.8,42.8 248.0,42.7 249.2,42.6 250.3,42.5 251.4,42.3 252.6,42.2 253.6,42.1 254.7,41.9 255.7,41.8 256.7,41.7 257.7,41.6 258.7,41.4 259.6,41.3 260.6,41.2 261.5,41.1 262.4,41.0 263.3,40.8 264.1,40.7 265.0,40.6 265.8,40.5 266.6,40.3 267.4,40.2 268.6,40.0 269.8,39.9 270.9,39.7 272.0,39.5 273.1,39.3 274.2,39.1 275.2,39.0 276.2,38.8 277.2,38.6 278.2,38.4 279.1,38.3 280.0,38.1 281.0,37.9 281.9,37.7 282.7,37.5 283.6,37.4 284.5,37.2 285.3,37.0 286.1,36.9 286.9,36.7 288.0,36.4 289.0,36.2 290.0,36.0 291.0,35.8 292.0,35.5 292.9,35.3 293.9,35.1 294.8,34.8 295.7,34.6 296.6,34.4 297.4,34.1 298.3,33.9 299.1,33.7 299.9,33.5 300.7,33.2 301.7,32.9 302.7,32.6 303.6,32.4 304.6,32.1 305.5,31.8 306.4,31.5 307.3,31.2 308.1,30.9 309.0,30.6 309.8,30.3 310.6,30.1 311.4,29.8 312.4,29.4 313.3,29.1 314.2,28.7 315.1,28.4 316.0,28.1 316.9,27.7 317.7,27.4 318.6,27.0 319.4,26.7 320.2,26.4 321.1,26.0 322.0,25.6 322.9,25.2 323.8,24.8 324.7,24.4 325.5,24.1 326.3,23.7 327.1,23.4 327.9,23.0 328.8,22.6 329.7,22.3 330.6,21.9 331.4,21.6 332.3,21.3 333.1,21.0 333.9,20.8 334.8,20.5 335.7,20.3 336.5,20.2 337.4,20.0 338.2,19.9 339.0,19.9 339.8,19.9 340.7,19.9 341.6,20.0 342.4,20.1 343.3,20.2 344.1,20.4 344.9,20.6 345.8,20.9 346.6,21.2 347.5,21.5 348.3,21.8 349.1,22.1 350.0,22.5 350.8,22.8 351.7,23.2 352.5,23.6 353.3,24.0 354.1,24.4 355.0,24.8 355.8,25.1 356.6,25.5 357.5,25.9 358.3,26.3 359.1,26.7 360.0,27.1 360.8,27.4 361.6,27.8 362.5,28.2 363.3,28.5 364.1,28.9 364.9,29.2 365.8,29.6 366.6,29.9 367.4,30.2 368.2,30.6 369.1,30.9 369.9,31.2 370.7,31.5 371.6,31.8 372.4,32.1 373.2,32.4 374.0,32.7 374.8,33.0 375.6,33.3 376.5,33.6 377.3,33.8 378.1,34.1 378.9,34.4 379.7,34.6 380.5,34.9 381.4,35.1 382.2,35.4 383.0,35.6 383.8,35.9 384.6,36.1 385.5,36.4 386.3,36.6 387.1,36.8 387.9,37.1 388.7,37.3 389.5,37.6 390.3,37.9 391.2,38.1 392.0,38.4 392.8,38.7 393.6,39.1 394.4,39.5 395.2,40.0 396.0,40.6 396.8,41.3 397.6,42.3 398.5,43.6" fill="none" stroke="#4a90d9" stroke-width="1.5" stroke-linejoin="round" clip-path="url(#pc278)"/>
  <line x1="435" y1="16" x2="435" y2="171" stroke="#d1d5db"/>
  <line x1="435" y1="93.5" x2="800" y2="93.5" stroke="#d1d5db"/>
  <text x="617.5" y="197" text-anchor="middle" font-size="9" fill="#6b7280">Hz</text>
  <text x="413" y="93.5" text-anchor="middle" font-size="9" fill="#6b7280" transform="rotate(-90 413 93.5)">Phase (deg)</text>
  <line x1="468.3" y1="16" x2="468.3" y2="171" stroke="#e5e7eb" stroke-width="0.5"/>
  <line x1="487.8" y1="16" x2="487.8" y2="171" stroke="#e5e7eb" stroke-width="0.5"/>
  <line x1="501.6" y1="16" x2="501.6" y2="171" stroke="#e5e7eb" stroke-width="0.5"/>
  <line x1="512.3" y1="16" x2="512.3" y2="171" stroke="#e5e7eb" stroke-width="0.5"/>
  <line x1="521.0" y1="16" x2="521.0" y2="171" stroke="#e5e7eb" stroke-width="0.5"/>
  <line x1="528.4" y1="16" x2="528.4" y2="171" stroke="#e5e7eb" stroke-width="0.5"/>
  <line x1="534.9" y1="16" x2="534.9" y2="171" stroke="#e5e7eb" stroke-width="0.5"/>
  <line x1="540.5" y1="16" x2="540.5" y2="171" stroke="#e5e7eb" stroke-width="0.5"/>
  <line x1="578.9" y1="16" x2="578.9" y2="171" stroke="#e5e7eb" stroke-width="0.5"/>
  <line x1="598.3" y1="16" x2="598.3" y2="171" stroke="#e5e7eb" stroke-width="0.5"/>
  <line x1="612.1" y1="16" x2="612.1" y2="171" stroke="#e5e7eb" stroke-width="0.5"/>
  <line x1="622.9" y1="16" x2="622.9" y2="171" stroke="#e5e7eb" stroke-width="0.5"/>
  <line x1="631.6" y1="16" x2="631.6" y2="171" stroke="#e5e7eb" stroke-width="0.5"/>
  <line x1="639.0" y1="16" x2="639.0" y2="171" stroke="#e5e7eb" stroke-width="0.5"/>
  <line x1="645.4" y1="16" x2="645.4" y2="171" stroke="#e5e7eb" stroke-width="0.5"/>
  <line x1="651.1" y1="16" x2="651.1" y2="171" stroke="#e5e7eb" stroke-width="0.5"/>
  <line x1="689.4" y1="16" x2="689.4" y2="171" stroke="#e5e7eb" stroke-width="0.5"/>
  <line x1="708.9" y1="16" x2="708.9" y2="171" stroke="#e5e7eb" stroke-width="0.5"/>
  <line x1="722.7" y1="16" x2="722.7" y2="171" stroke="#e5e7eb" stroke-width="0.5"/>
  <line x1="733.4" y1="16" x2="733.4" y2="171" stroke="#e5e7eb" stroke-width="0.5"/>
  <line x1="742.2" y1="16" x2="742.2" y2="171" stroke="#e5e7eb" stroke-width="0.5"/>
  <line x1="749.6" y1="16" x2="749.6" y2="171" stroke="#e5e7eb" stroke-width="0.5"/>
  <line x1="756.0" y1="16" x2="756.0" y2="171" stroke="#e5e7eb" stroke-width="0.5"/>
  <line x1="761.7" y1="16" x2="761.7" y2="171" stroke="#e5e7eb" stroke-width="0.5"/>
  <line x1="800.0" y1="16" x2="800.0" y2="171" stroke="#e5e7eb" stroke-width="0.5"/>
  <line x1="545.6" y1="16" x2="545.6" y2="171" stroke="#e5e7eb" stroke-width="0.5"/>
  <text x="545.6" y="183" text-anchor="middle" font-size="8" fill="#6b7280">100</text>
  <line x1="656.1" y1="16" x2="656.1" y2="171" stroke="#e5e7eb" stroke-width="0.5"/>
  <text x="656.1" y="183" text-anchor="middle" font-size="8" fill="#6b7280">1k</text>
  <line x1="766.7" y1="16" x2="766.7" y2="171" stroke="#e5e7eb" stroke-width="0.5"/>
  <text x="766.7" y="183" text-anchor="middle" font-size="8" fill="#6b7280">10k</text>
  <line x1="435" y1="58.6" x2="800" y2="58.6" stroke="#e5e7eb" stroke-width="0.5"/>
  <line x1="435" y1="128.4" x2="800" y2="128.4" stroke="#e5e7eb" stroke-width="0.5"/>
  <line x1="435" y1="23.8" x2="800" y2="23.8" stroke="#e5e7eb" stroke-width="0.5"/>
  <text x="431" y="26.8" text-anchor="end" font-size="8" fill="#6b7280">180</text>
  <text x="431" y="96.5" text-anchor="end" font-size="8" fill="#6b7280">0</text>
  <line x1="435" y1="163.3" x2="800" y2="163.3" stroke="#e5e7eb" stroke-width="0.5"/>
  <text x="431" y="166.3" text-anchor="end" font-size="8" fill="#6b7280">-180</text>
  <defs><linearGradient id="g279" x1="0" y1="16" x2="0" y2="93.5" gradientUnits="userSpaceOnUse">
    <stop offset="0%" stop-color="#e74c3c" stop-opacity="0.15"/>
    <stop offset="100%" stop-color="#e74c3c" stop-opacity="0.02"/>
  </linearGradient></defs>
  <defs><linearGradient id="g280" x1="0" y1="171" x2="0" y2="93.5" gradientUnits="userSpaceOnUse">
    <stop offset="0%" stop-color="#e74c3c" stop-opacity="0.15"/>
    <stop offset="100%" stop-color="#e74c3c" stop-opacity="0.02"/>
  </linearGradient></defs>
  <defs><clipPath id="c281"><rect x="435" y="16" width="365" height="77.5"/></clipPath></defs>
  <defs><clipPath id="c282"><rect x="435" y="93.5" width="365" height="77.5"/></clipPath></defs>
  <path d="M438.5,44.4 438.5,44.4 471.8,62.7 491.3,72.6 505.1,77.6 515.8,80.5 524.6,82.3 532.0,83.5 538.4,84.3 544.1,84.9 549.1,85.4 553.7,85.7 557.9,85.9 561.7,86.1 565.3,86.2 568.6,86.3 571.7,86.3 574.6,86.3 577.3,86.3 579.9,86.3 582.4,86.2 584.7,86.2 587.0,86.1 589.1,86.0 591.2,85.9 593.1,85.8 595.0,85.7 596.8,85.6 598.6,85.5 600.2,85.4 601.9,85.3 603.4,85.2 605.0,85.1 606.5,85.0 607.9,84.9 609.3,84.8 610.6,84.7 611.9,84.5 613.2,84.4 614.5,84.3 615.7,84.2 616.9,84.1 618.0,84.0 619.2,83.9 620.3,83.8 621.3,83.7 622.4,83.6 623.4,83.5 624.4,83.3 625.4,83.2 626.4,83.1 627.4,83.0 628.3,82.9 629.2,82.8 630.1,82.7 631.0,82.6 631.8,82.5 632.7,82.5 633.5,82.4 634.4,82.3 635.2,82.2 636.7,82.0 638.3,81.8 639.7,81.6 641.2,81.5 642.6,81.3 643.9,81.1 645.2,81.0 646.5,80.8 647.8,80.7 649.0,80.5 650.2,80.4 651.3,80.3 652.4,80.1 653.6,80.0 654.6,79.9 655.7,79.7 656.7,79.6 657.7,79.5 658.7,79.3 659.7,79.2 660.6,79.1 661.6,79.0 662.5,78.9 663.4,78.8 664.3,78.7 665.1,78.6 666.0,78.5 666.8,78.3 667.6,78.2 668.4,78.2 669.6,78.0 670.8,77.9 671.9,77.7 673.0,77.6 674.1,77.5 675.2,77.3 676.2,77.2 677.2,77.1 678.2,77.0 679.2,76.9 680.1,76.8 681.0,76.7 682.0,76.6 682.9,76.5 683.7,76.4 684.6,76.3 685.5,76.2 686.3,76.1 687.1,76.1 687.9,76.0 689.0,75.9 690.0,75.8 691.0,75.7 692.0,75.7 693.0,75.6 693.9,75.5 694.9,75.5 695.8,75.4 696.7,75.3 697.6,75.3 698.4,75.3 699.3,75.2 700.1,75.2 700.9,75.2 701.7,75.2 702.7,75.1 703.7,75.1 704.6,75.1 705.6,75.2 706.5,75.2 707.4,75.2 708.3,75.2 709.1,75.3 710.0,75.3 710.8,75.4 711.6,75.5 712.4,75.6 713.4,75.7 714.3,75.8 715.2,76.0 716.1,76.1 717.0,76.3 717.9,76.5 718.7,76.7 719.6,76.9 720.4,77.1 721.2,77.4 722.1,77.7 723.0,78.1 723.9,78.4 724.8,78.8 725.7,79.3 726.5,79.7 727.3,80.2 728.1,80.7 728.9,81.2 729.8,81.9 730.7,82.5 731.6,83.2 732.4,84.0 733.3,84.8 734.1,85.6 734.9,86.4 735.8,87.4 736.7,88.4 737.5,89.4 738.4,90.4 739.2,91.4 740.0,92.4 740.8,93.4 741.7,94.5 742.6,95.6 743.4,96.6 744.3,97.6 745.1,98.6 745.9,99.5 746.8,100.4 747.6,101.3 748.5,102.2 749.3,102.9 750.1,103.6 751.0,104.4 751.8,105.0 752.7,105.6 753.5,106.2 754.3,106.7 755.1,107.2 756.0,107.7 756.8,108.1 757.6,108.5 758.5,108.8 759.3,109.1 760.1,109.4 761.0,109.7 761.8,109.9 762.6,110.2 763.5,110.4 764.3,110.5 765.1,110.7 765.9,110.9 766.8,111.0 767.6,111.1 768.4,111.2 769.2,111.3 770.1,111.4 770.9,111.4 771.7,111.5 772.6,111.6 773.4,111.6 774.2,111.6 775.0,111.7 775.8,111.7 776.6,111.7 777.5,111.8 778.3,111.8 779.1,111.8 779.9,111.8 780.7,111.9 781.5,111.9 782.4,111.9 783.2,112.0 784.0,112.1 784.8,112.1 785.6,112.2 786.5,112.3 787.3,112.5 788.1,112.6 788.9,112.8 789.7,113.1 790.5,113.4 791.3,113.7 792.2,114.2 793.0,114.7 793.8,115.3 794.6,116.1 795.4,117.0 796.2,118.1 797.0,119.5 797.8,121.3 798.6,123.5 799.5,126.3 L799.5,93.5 L438.5,93.5 Z" fill="url(#g279)" clip-path="url(#c281)"/>
  <path d="M438.5,44.4 438.5,44.4 471.8,62.7 491.3,72.6 505.1,77.6 515.8,80.5 524.6,82.3 532.0,83.5 538.4,84.3 544.1,84.9 549.1,85.4 553.7,85.7 557.9,85.9 561.7,86.1 565.3,86.2 568.6,86.3 571.7,86.3 574.6,86.3 577.3,86.3 579.9,86.3 582.4,86.2 584.7,86.2 587.0,86.1 589.1,86.0 591.2,85.9 593.1,85.8 595.0,85.7 596.8,85.6 598.6,85.5 600.2,85.4 601.9,85.3 603.4,85.2 605.0,85.1 606.5,85.0 607.9,84.9 609.3,84.8 610.6,84.7 611.9,84.5 613.2,84.4 614.5,84.3 615.7,84.2 616.9,84.1 618.0,84.0 619.2,83.9 620.3,83.8 621.3,83.7 622.4,83.6 623.4,83.5 624.4,83.3 625.4,83.2 626.4,83.1 627.4,83.0 628.3,82.9 629.2,82.8 630.1,82.7 631.0,82.6 631.8,82.5 632.7,82.5 633.5,82.4 634.4,82.3 635.2,82.2 636.7,82.0 638.3,81.8 639.7,81.6 641.2,81.5 642.6,81.3 643.9,81.1 645.2,81.0 646.5,80.8 647.8,80.7 649.0,80.5 650.2,80.4 651.3,80.3 652.4,80.1 653.6,80.0 654.6,79.9 655.7,79.7 656.7,79.6 657.7,79.5 658.7,79.3 659.7,79.2 660.6,79.1 661.6,79.0 662.5,78.9 663.4,78.8 664.3,78.7 665.1,78.6 666.0,78.5 666.8,78.3 667.6,78.2 668.4,78.2 669.6,78.0 670.8,77.9 671.9,77.7 673.0,77.6 674.1,77.5 675.2,77.3 676.2,77.2 677.2,77.1 678.2,77.0 679.2,76.9 680.1,76.8 681.0,76.7 682.0,76.6 682.9,76.5 683.7,76.4 684.6,76.3 685.5,76.2 686.3,76.1 687.1,76.1 687.9,76.0 689.0,75.9 690.0,75.8 691.0,75.7 692.0,75.7 693.0,75.6 693.9,75.5 694.9,75.5 695.8,75.4 696.7,75.3 697.6,75.3 698.4,75.3 699.3,75.2 700.1,75.2 700.9,75.2 701.7,75.2 702.7,75.1 703.7,75.1 704.6,75.1 705.6,75.2 706.5,75.2 707.4,75.2 708.3,75.2 709.1,75.3 710.0,75.3 710.8,75.4 711.6,75.5 712.4,75.6 713.4,75.7 714.3,75.8 715.2,76.0 716.1,76.1 717.0,76.3 717.9,76.5 718.7,76.7 719.6,76.9 720.4,77.1 721.2,77.4 722.1,77.7 723.0,78.1 723.9,78.4 724.8,78.8 725.7,79.3 726.5,79.7 727.3,80.2 728.1,80.7 728.9,81.2 729.8,81.9 730.7,82.5 731.6,83.2 732.4,84.0 733.3,84.8 734.1,85.6 734.9,86.4 735.8,87.4 736.7,88.4 737.5,89.4 738.4,90.4 739.2,91.4 740.0,92.4 740.8,93.4 741.7,94.5 742.6,95.6 743.4,96.6 744.3,97.6 745.1,98.6 745.9,99.5 746.8,100.4 747.6,101.3 748.5,102.2 749.3,102.9 750.1,103.6 751.0,104.4 751.8,105.0 752.7,105.6 753.5,106.2 754.3,106.7 755.1,107.2 756.0,107.7 756.8,108.1 757.6,108.5 758.5,108.8 759.3,109.1 760.1,109.4 761.0,109.7 761.8,109.9 762.6,110.2 763.5,110.4 764.3,110.5 765.1,110.7 765.9,110.9 766.8,111.0 767.6,111.1 768.4,111.2 769.2,111.3 770.1,111.4 770.9,111.4 771.7,111.5 772.6,111.6 773.4,111.6 774.2,111.6 775.0,111.7 775.8,111.7 776.6,111.7 777.5,111.8 778.3,111.8 779.1,111.8 779.9,111.8 780.7,111.9 781.5,111.9 782.4,111.9 783.2,112.0 784.0,112.1 784.8,112.1 785.6,112.2 786.5,112.3 787.3,112.5 788.1,112.6 788.9,112.8 789.7,113.1 790.5,113.4 791.3,113.7 792.2,114.2 793.0,114.7 793.8,115.3 794.6,116.1 795.4,117.0 796.2,118.1 797.0,119.5 797.8,121.3 798.6,123.5 799.5,126.3 L799.5,93.5 L438.5,93.5 Z" fill="url(#g280)" clip-path="url(#c282)"/>
  <defs><clipPath id="pc283"><rect x="435" y="16" width="365" height="155"/></clipPath></defs>
  <polyline points="438.5,44.4 471.8,62.7 491.3,72.6 505.1,77.6 515.8,80.5 524.6,82.3 532.0,83.5 538.4,84.3 544.1,84.9 549.1,85.4 553.7,85.7 557.9,85.9 561.7,86.1 565.3,86.2 568.6,86.3 571.7,86.3 574.6,86.3 577.3,86.3 579.9,86.3 582.4,86.2 584.7,86.2 587.0,86.1 589.1,86.0 591.2,85.9 593.1,85.8 595.0,85.7 596.8,85.6 598.6,85.5 600.2,85.4 601.9,85.3 603.4,85.2 605.0,85.1 606.5,85.0 607.9,84.9 609.3,84.8 610.6,84.7 611.9,84.5 613.2,84.4 614.5,84.3 615.7,84.2 616.9,84.1 618.0,84.0 619.2,83.9 620.3,83.8 621.3,83.7 622.4,83.6 623.4,83.5 624.4,83.3 625.4,83.2 626.4,83.1 627.4,83.0 628.3,82.9 629.2,82.8 630.1,82.7 631.0,82.6 631.8,82.5 632.7,82.5 633.5,82.4 634.4,82.3 635.2,82.2 636.7,82.0 638.3,81.8 639.7,81.6 641.2,81.5 642.6,81.3 643.9,81.1 645.2,81.0 646.5,80.8 647.8,80.7 649.0,80.5 650.2,80.4 651.3,80.3 652.4,80.1 653.6,80.0 654.6,79.9 655.7,79.7 656.7,79.6 657.7,79.5 658.7,79.3 659.7,79.2 660.6,79.1 661.6,79.0 662.5,78.9 663.4,78.8 664.3,78.7 665.1,78.6 666.0,78.5 666.8,78.3 667.6,78.2 668.4,78.2 669.6,78.0 670.8,77.9 671.9,77.7 673.0,77.6 674.1,77.5 675.2,77.3 676.2,77.2 677.2,77.1 678.2,77.0 679.2,76.9 680.1,76.8 681.0,76.7 682.0,76.6 682.9,76.5 683.7,76.4 684.6,76.3 685.5,76.2 686.3,76.1 687.1,76.1 687.9,76.0 689.0,75.9 690.0,75.8 691.0,75.7 692.0,75.7 693.0,75.6 693.9,75.5 694.9,75.5 695.8,75.4 696.7,75.3 697.6,75.3 698.4,75.3 699.3,75.2 700.1,75.2 700.9,75.2 701.7,75.2 702.7,75.1 703.7,75.1 704.6,75.1 705.6,75.2 706.5,75.2 707.4,75.2 708.3,75.2 709.1,75.3 710.0,75.3 710.8,75.4 711.6,75.5 712.4,75.6 713.4,75.7 714.3,75.8 715.2,76.0 716.1,76.1 717.0,76.3 717.9,76.5 718.7,76.7 719.6,76.9 720.4,77.1 721.2,77.4 722.1,77.7 723.0,78.1 723.9,78.4 724.8,78.8 725.7,79.3 726.5,79.7 727.3,80.2 728.1,80.7 728.9,81.2 729.8,81.9 730.7,82.5 731.6,83.2 732.4,84.0 733.3,84.8 734.1,85.6 734.9,86.4 735.8,87.4 736.7,88.4 737.5,89.4 738.4,90.4 739.2,91.4 740.0,92.4 740.8,93.4 741.7,94.5 742.6,95.6 743.4,96.6 744.3,97.6 745.1,98.6 745.9,99.5 746.8,100.4 747.6,101.3 748.5,102.2 749.3,102.9 750.1,103.6 751.0,104.4 751.8,105.0 752.7,105.6 753.5,106.2 754.3,106.7 755.1,107.2 756.0,107.7 756.8,108.1 757.6,108.5 758.5,108.8 759.3,109.1 760.1,109.4 761.0,109.7 761.8,109.9 762.6,110.2 763.5,110.4 764.3,110.5 765.1,110.7 765.9,110.9 766.8,111.0 767.6,111.1 768.4,111.2 769.2,111.3 770.1,111.4 770.9,111.4 771.7,111.5 772.6,111.6 773.4,111.6 774.2,111.6 775.0,111.7 775.8,111.7 776.6,111.7 777.5,111.8 778.3,111.8 779.1,111.8 779.9,111.8 780.7,111.9 781.5,111.9 782.4,111.9 783.2,112.0 784.0,112.1 784.8,112.1 785.6,112.2 786.5,112.3 787.3,112.5 788.1,112.6 788.9,112.8 789.7,113.1 790.5,113.4 791.3,113.7 792.2,114.2 793.0,114.7 793.8,115.3 794.6,116.1 795.4,117.0 796.2,118.1 797.0,119.5 797.8,121.3 798.6,123.5 799.5,126.3" fill="none" stroke="#e74c3c" stroke-width="1.5" stroke-linejoin="round" clip-path="url(#pc283)"/>
  <line x1="34" y1="207" x2="34" y2="362" stroke="#d1d5db"/>
  <line x1="34" y1="284.5" x2="399" y2="284.5" stroke="#d1d5db"/>
  <text x="216.5" y="388" text-anchor="middle" font-size="9" fill="#6b7280">Hz</text>
  <text x="12" y="284.5" text-anchor="middle" font-size="9" fill="#6b7280" transform="rotate(-90 12 284.5)">Group delay</text>
  <line x1="67.3" y1="207" x2="67.3" y2="362" stroke="#e5e7eb" stroke-width="0.5"/>
  <line x1="86.8" y1="207" x2="86.8" y2="362" stroke="#e5e7eb" stroke-width="0.5"/>
  <line x1="100.6" y1="207" x2="100.6" y2="362" stroke="#e5e7eb" stroke-width="0.5"/>
  <line x1="111.3" y1="207" x2="111.3" y2="362" stroke="#e5e7eb" stroke-width="0.5"/>
  <line x1="120.0" y1="207" x2="120.0" y2="362" stroke="#e5e7eb" stroke-width="0.5"/>
  <line x1="127.4" y1="207" x2="127.4" y2="362" stroke="#e5e7eb" stroke-width="0.5"/>
  <line x1="133.9" y1="207" x2="133.9" y2="362" stroke="#e5e7eb" stroke-width="0.5"/>
  <line x1="139.5" y1="207" x2="139.5" y2="362" stroke="#e5e7eb" stroke-width="0.5"/>
  <line x1="177.9" y1="207" x2="177.9" y2="362" stroke="#e5e7eb" stroke-width="0.5"/>
  <line x1="197.3" y1="207" x2="197.3" y2="362" stroke="#e5e7eb" stroke-width="0.5"/>
  <line x1="211.1" y1="207" x2="211.1" y2="362" stroke="#e5e7eb" stroke-width="0.5"/>
  <line x1="221.9" y1="207" x2="221.9" y2="362" stroke="#e5e7eb" stroke-width="0.5"/>
  <line x1="230.6" y1="207" x2="230.6" y2="362" stroke="#e5e7eb" stroke-width="0.5"/>
  <line x1="238.0" y1="207" x2="238.0" y2="362" stroke="#e5e7eb" stroke-width="0.5"/>
  <line x1="244.4" y1="207" x2="244.4" y2="362" stroke="#e5e7eb" stroke-width="0.5"/>
  <line x1="250.1" y1="207" x2="250.1" y2="362" stroke="#e5e7eb" stroke-width="0.5"/>
  <line x1="288.4" y1="207" x2="288.4" y2="362" stroke="#e5e7eb" stroke-width="0.5"/>
  <line x1="307.9" y1="207" x2="307.9" y2="362" stroke="#e5e7eb" stroke-width="0.5"/>
  <line x1="321.7" y1="207" x2="321.7" y2="362" stroke="#e5e7eb" stroke-width="0.5"/>
  <line x1="332.4" y1="207" x2="332.4" y2="362" stroke="#e5e7eb" stroke-width="0.5"/>
  <line x1="341.2" y1="207" x2="341.2" y2="362" stroke="#e5e7eb" stroke-width="0.5"/>
  <line x1="348.6" y1="207" x2="348.6" y2="362" stroke="#e5e7eb" stroke-width="0.5"/>
  <line x1="355.0" y1="207" x2="355.0" y2="362" stroke="#e5e7eb" stroke-width="0.5"/>
  <line x1="360.7" y1="207" x2="360.7" y2="362" stroke="#e5e7eb" stroke-width="0.5"/>
  <line x1="399.0" y1="207" x2="399.0" y2="362" stroke="#e5e7eb" stroke-width="0.5"/>
  <line x1="144.6" y1="207" x2="144.6" y2="362" stroke="#e5e7eb" stroke-width="0.5"/>
  <text x="144.6" y="374" text-anchor="middle" font-size="8" fill="#6b7280">100</text>
  <line x1="255.1" y1="207" x2="255.1" y2="362" stroke="#e5e7eb" stroke-width="0.5"/>
  <text x="255.1" y="374" text-anchor="middle" font-size="8" fill="#6b7280">1k</text>
  <line x1="365.7" y1="207" x2="365.7" y2="362" stroke="#e5e7eb" stroke-width="0.5"/>
  <text x="365.7" y="374" text-anchor="middle" font-size="8" fill="#6b7280">10k</text>
  <line x1="34" y1="325.7" x2="399" y2="325.7" stroke="#e5e7eb" stroke-width="0.5"/>
  <text x="30" y="328.7" text-anchor="end" font-size="8" fill="#6b7280">-900</text>
  <text x="30" y="287.5" text-anchor="end" font-size="8" fill="#6b7280">0</text>
  <line x1="34" y1="243.3" x2="399" y2="243.3" stroke="#e5e7eb" stroke-width="0.5"/>
  <text x="30" y="246.3" text-anchor="end" font-size="8" fill="#6b7280">900</text>
  <defs><linearGradient id="g284" x1="0" y1="207" x2="0" y2="284.5" gradientUnits="userSpaceOnUse">
    <stop offset="0%" stop-color="#2ecc71" stop-opacity="0.15"/>
    <stop offset="100%" stop-color="#2ecc71" stop-opacity="0.02"/>
  </linearGradient></defs>
  <path d="M37.5,233.5 37.5,233.5 70.8,273.5 90.3,281.8 104.1,283.6 114.8,284.1 123.6,284.3 131.0,284.3 137.4,284.4 143.1,284.4 148.1,284.4 152.7,284.4 156.9,284.4 160.7,284.4 164.3,284.4 167.6,284.4 170.7,284.4 173.6,284.4 176.3,284.4 178.9,284.4 181.4,284.4 183.7,284.4 186.0,284.4 188.1,284.4 190.2,284.4 192.1,284.4 194.0,284.4 195.8,284.4 197.6,284.4 199.2,284.4 200.9,284.4 202.4,284.4 204.0,284.4 205.5,284.4 206.9,284.4 208.3,284.4 209.6,284.4 210.9,284.4 212.2,284.4 213.5,284.4 214.7,284.4 215.9,284.4 217.0,284.4 218.2,284.4 219.3,284.4 220.3,284.4 221.4,284.4 222.4,284.4 223.4,284.4 224.4,284.4 225.4,284.4 226.4,284.4 227.3,284.4 228.2,284.4 229.1,284.4 230.0,284.4 230.8,284.4 231.7,284.4 232.5,284.4 233.4,284.4 234.2,284.4 235.7,284.4 237.3,284.4 238.7,284.4 240.2,284.4 241.6,284.4 242.9,284.4 244.2,284.4 245.5,284.4 246.8,284.4 248.0,284.4 249.2,284.4 250.3,284.4 251.4,284.4 252.6,284.4 253.6,284.4 254.7,284.4 255.7,284.4 256.7,284.4 257.7,284.4 258.7,284.4 259.6,284.4 260.6,284.4 261.5,284.4 262.4,284.4 263.3,284.4 264.1,284.4 265.0,284.4 265.8,284.4 266.6,284.4 267.4,284.4 268.6,284.4 269.8,284.4 270.9,284.4 272.0,284.4 273.1,284.4 274.2,284.4 275.2,284.4 276.2,284.4 277.2,284.4 278.2,284.4 279.1,284.4 280.0,284.4 281.0,284.4 281.9,284.4 282.7,284.4 283.6,284.4 284.5,284.4 285.3,284.4 286.1,284.4 286.9,284.4 288.0,284.4 289.0,284.4 290.0,284.4 291.0,284.4 292.0,284.4 292.9,284.4 293.9,284.4 294.8,284.4 295.7,284.4 296.6,284.4 297.4,284.4 298.3,284.4 299.1,284.4 299.9,284.4 300.7,284.4 301.7,284.4 302.7,284.4 303.6,284.4 304.6,284.4 305.5,284.4 306.4,284.4 307.3,284.4 308.1,284.4 309.0,284.4 309.8,284.4 310.6,284.4 311.4,284.4 312.4,284.4 313.3,284.4 314.2,284.4 315.1,284.4 316.0,284.4 316.9,284.4 317.7,284.4 318.6,284.4 319.4,284.4 320.2,284.4 321.1,284.4 322.0,284.4 322.9,284.4 323.8,284.4 324.7,284.4 325.5,284.4 326.3,284.4 327.1,284.4 327.9,284.4 328.8,284.4 329.7,284.4 330.6,284.4 331.4,284.4 332.3,284.4 333.1,284.4 333.9,284.4 334.8,284.4 335.7,284.5 336.5,284.5 337.4,284.5 338.2,284.5 339.0,284.5 339.8,284.5 340.7,284.5 341.6,284.5 342.4,284.5 343.3,284.5 344.1,284.5 344.9,284.5 345.8,284.6 346.6,284.6 347.5,284.6 348.3,284.6 349.1,284.6 350.0,284.6 350.8,284.6 351.7,284.6 352.5,284.6 353.3,284.6 354.1,284.6 355.0,284.6 355.8,284.6 356.6,284.6 357.5,284.6 358.3,284.6 359.1,284.6 360.0,284.6 360.8,284.6 361.6,284.6 362.5,284.6 363.3,284.6 364.1,284.6 364.9,284.5 365.8,284.5 366.6,284.5 367.4,284.5 368.2,284.5 369.1,284.5 369.9,284.5 370.7,284.5 371.6,284.5 372.4,284.5 373.2,284.5 374.0,284.5 374.8,284.5 375.6,284.5 376.5,284.5 377.3,284.5 378.1,284.5 378.9,284.5 379.7,284.5 380.5,284.5 381.4,284.5 382.2,284.5 383.0,284.5 383.8,284.5 384.6,284.5 385.5,284.5 386.3,284.5 387.1,284.5 387.9,284.5 388.7,284.5 389.5,284.5 390.3,284.5 391.2,284.5 392.0,284.5 392.8,284.5 393.6,284.5 394.4,284.5 395.2,284.5 396.0,284.5 396.8,284.6 397.6,284.6 398.5,284.6 L398.5,284.5 L37.5,284.5 Z" fill="url(#g284)"/>
  <defs><clipPath id="pc285"><rect x="34" y="207" width="365" height="155"/></clipPath></defs>
  <polyline points="37.5,233.5 70.8,273.5 90.3,281.8 104.1,283.6 114.8,284.1 123.6,284.3 131.0,284.3 137.4,284.4 143.1,284.4 148.1,284.4 152.7,284.4 156.9,284.4 160.7,284.4 164.3,284.4 167.6,284.4 170.7,284.4 173.6,284.4 176.3,284.4 178.9,284.4 181.4,284.4 183.7,284.4 186.0,284.4 188.1,284.4 190.2,284.4 192.1,284.4 194.0,284.4 195.8,284.4 197.6,284.4 199.2,284.4 200.9,284.4 202.4,284.4 204.0,284.4 205.5,284.4 206.9,284.4 208.3,284.4 209.6,284.4 210.9,284.4 212.2,284.4 213.5,284.4 214.7,284.4 215.9,284.4 217.0,284.4 218.2,284.4 219.3,284.4 220.3,284.4 221.4,284.4 222.4,284.4 223.4,284.4 224.4,284.4 225.4,284.4 226.4,284.4 227.3,284.4 228.2,284.4 229.1,284.4 230.0,284.4 230.8,284.4 231.7,284.4 232.5,284.4 233.4,284.4 234.2,284.4 235.7,284.4 237.3,284.4 238.7,284.4 240.2,284.4 241.6,284.4 242.9,284.4 244.2,284.4 245.5,284.4 246.8,284.4 248.0,284.4 249.2,284.4 250.3,284.4 251.4,284.4 252.6,284.4 253.6,284.4 254.7,284.4 255.7,284.4 256.7,284.4 257.7,284.4 258.7,284.4 259.6,284.4 260.6,284.4 261.5,284.4 262.4,284.4 263.3,284.4 264.1,284.4 265.0,284.4 265.8,284.4 266.6,284.4 267.4,284.4 268.6,284.4 269.8,284.4 270.9,284.4 272.0,284.4 273.1,284.4 274.2,284.4 275.2,284.4 276.2,284.4 277.2,284.4 278.2,284.4 279.1,284.4 280.0,284.4 281.0,284.4 281.9,284.4 282.7,284.4 283.6,284.4 284.5,284.4 285.3,284.4 286.1,284.4 286.9,284.4 288.0,284.4 289.0,284.4 290.0,284.4 291.0,284.4 292.0,284.4 292.9,284.4 293.9,284.4 294.8,284.4 295.7,284.4 296.6,284.4 297.4,284.4 298.3,284.4 299.1,284.4 299.9,284.4 300.7,284.4 301.7,284.4 302.7,284.4 303.6,284.4 304.6,284.4 305.5,284.4 306.4,284.4 307.3,284.4 308.1,284.4 309.0,284.4 309.8,284.4 310.6,284.4 311.4,284.4 312.4,284.4 313.3,284.4 314.2,284.4 315.1,284.4 316.0,284.4 316.9,284.4 317.7,284.4 318.6,284.4 319.4,284.4 320.2,284.4 321.1,284.4 322.0,284.4 322.9,284.4 323.8,284.4 324.7,284.4 325.5,284.4 326.3,284.4 327.1,284.4 327.9,284.4 328.8,284.4 329.7,284.4 330.6,284.4 331.4,284.4 332.3,284.4 333.1,284.4 333.9,284.4 334.8,284.4 335.7,284.5 336.5,284.5 337.4,284.5 338.2,284.5 339.0,284.5 339.8,284.5 340.7,284.5 341.6,284.5 342.4,284.5 343.3,284.5 344.1,284.5 344.9,284.5 345.8,284.6 346.6,284.6 347.5,284.6 348.3,284.6 349.1,284.6 350.0,284.6 350.8,284.6 351.7,284.6 352.5,284.6 353.3,284.6 354.1,284.6 355.0,284.6 355.8,284.6 356.6,284.6 357.5,284.6 358.3,284.6 359.1,284.6 360.0,284.6 360.8,284.6 361.6,284.6 362.5,284.6 363.3,284.6 364.1,284.6 364.9,284.5 365.8,284.5 366.6,284.5 367.4,284.5 368.2,284.5 369.1,284.5 369.9,284.5 370.7,284.5 371.6,284.5 372.4,284.5 373.2,284.5 374.0,284.5 374.8,284.5 375.6,284.5 376.5,284.5 377.3,284.5 378.1,284.5 378.9,284.5 379.7,284.5 380.5,284.5 381.4,284.5 382.2,284.5 383.0,284.5 383.8,284.5 384.6,284.5 385.5,284.5 386.3,284.5 387.1,284.5 387.9,284.5 388.7,284.5 389.5,284.5 390.3,284.5 391.2,284.5 392.0,284.5 392.8,284.5 393.6,284.5 394.4,284.5 395.2,284.5 396.0,284.5 396.8,284.6 397.6,284.6 398.5,284.6" fill="none" stroke="#2ecc71" stroke-width="1.5" stroke-linejoin="round" clip-path="url(#pc285)"/>
  <line x1="435" y1="207" x2="435" y2="362" stroke="#d1d5db"/>
  <line x1="435" y1="284.5" x2="800" y2="284.5" stroke="#d1d5db"/>
  <text x="617.5" y="388" text-anchor="middle" font-size="9" fill="#6b7280">Samples</text>
  <text x="413" y="284.5" text-anchor="middle" font-size="9" fill="#6b7280" transform="rotate(-90 413 284.5)">Impulse response</text>
  <line x1="435.0" y1="207" x2="435.0" y2="362" stroke="#e5e7eb" stroke-width="0.5"/>
  <text x="435.0" y="374" text-anchor="middle" font-size="8" fill="#6b7280">0</text>
  <line x1="526.3" y1="207" x2="526.3" y2="362" stroke="#e5e7eb" stroke-width="0.5"/>
  <text x="526.3" y="374" text-anchor="middle" font-size="8" fill="#6b7280">32</text>
  <line x1="617.5" y1="207" x2="617.5" y2="362" stroke="#e5e7eb" stroke-width="0.5"/>
  <text x="617.5" y="374" text-anchor="middle" font-size="8" fill="#6b7280">64</text>
  <line x1="708.8" y1="207" x2="708.8" y2="362" stroke="#e5e7eb" stroke-width="0.5"/>
  <text x="708.8" y="374" text-anchor="middle" font-size="8" fill="#6b7280">96</text>
  <line x1="800.0" y1="207" x2="800.0" y2="362" stroke="#e5e7eb" stroke-width="0.5"/>
  <text x="800.0" y="374" text-anchor="middle" font-size="8" fill="#6b7280">128</text>
  <line x1="435" y1="351.2" x2="800" y2="351.2" stroke="#e5e7eb" stroke-width="0.5"/>
  <text x="431" y="354.2" text-anchor="end" font-size="8" fill="#6b7280">-2</text>
  <text x="431" y="287.5" text-anchor="end" font-size="8" fill="#6b7280">0</text>
  <line x1="435" y1="217.8" x2="800" y2="217.8" stroke="#e5e7eb" stroke-width="0.5"/>
  <text x="431" y="220.8" text-anchor="end" font-size="8" fill="#6b7280">2</text>
  <defs><linearGradient id="g286" x1="0" y1="207" x2="0" y2="284.5" gradientUnits="userSpaceOnUse">
    <stop offset="0%" stop-color="#f39c12" stop-opacity="0.15"/>
    <stop offset="100%" stop-color="#f39c12" stop-opacity="0.02"/>
  </linearGradient></defs>
  <defs><linearGradient id="g287" x1="0" y1="362" x2="0" y2="284.5" gradientUnits="userSpaceOnUse">
    <stop offset="0%" stop-color="#f39c12" stop-opacity="0.15"/>
    <stop offset="100%" stop-color="#f39c12" stop-opacity="0.02"/>
  </linearGradient></defs>
  <defs><clipPath id="c288"><rect x="435" y="207" width="365" height="77.5"/></clipPath></defs>
  <defs><clipPath id="c289"><rect x="435" y="284.5" width="365" height="77.5"/></clipPath></defs>
  <path d="M435.0,207.0 435.0,207.0 437.9,226.3 440.7,318.9 443.6,324.3 446.4,329.1 449.3,296.3 452.1,278.5 455.0,267.9 457.8,271.1 460.7,281.1 463.5,287.1 466.4,292.0 469.2,288.6 472.1,287.3 474.9,282.7 477.8,283.3 480.6,282.4 483.5,284.8 486.3,284.7 489.2,285.9 492.0,285.0 494.9,285.1 497.7,284.3 500.6,284.5 503.4,284.4 506.3,284.7 509.1,284.7 512.0,284.8 514.8,284.7 517.7,284.7 520.5,284.6 523.4,284.6 526.3,284.6 529.1,284.6 532.0,284.6 534.8,284.6 537.7,284.6 540.5,284.6 543.4,284.6 546.2,284.6 549.1,284.6 551.9,284.6 554.8,284.6 557.6,284.6 560.5,284.6 563.3,284.6 566.2,284.6 569.0,284.6 571.9,284.6 574.7,284.6 577.6,284.6 580.4,284.6 583.3,284.6 586.1,284.6 589.0,284.6 591.8,284.6 594.7,284.6 597.5,284.6 600.4,284.6 603.2,284.6 606.1,284.6 608.9,284.6 611.8,284.6 614.6,284.6 617.5,284.6 620.4,284.6 623.2,284.6 626.1,284.6 628.9,284.6 631.8,284.6 634.6,284.6 637.5,284.6 640.3,284.6 643.2,284.6 646.0,284.6 648.9,284.6 651.7,284.6 654.6,284.6 657.4,284.6 660.3,284.6 663.1,284.6 666.0,284.6 668.8,284.6 671.7,284.6 674.5,284.6 677.4,284.6 680.2,284.6 683.1,284.6 685.9,284.6 688.8,284.6 691.6,284.6 694.5,284.6 697.3,284.6 700.2,284.6 703.0,284.6 705.9,284.6 708.8,284.6 711.6,284.6 714.5,284.6 717.3,284.6 720.2,284.6 723.0,284.6 725.9,284.6 728.7,284.6 731.6,284.6 734.4,284.6 737.3,284.6 740.1,284.6 743.0,284.6 745.8,284.6 748.7,284.6 751.5,284.6 754.4,284.6 757.2,284.6 760.1,284.6 762.9,284.6 765.8,284.6 768.6,284.6 771.5,284.6 774.3,284.6 777.2,284.6 780.0,284.6 782.9,284.6 785.7,284.6 788.6,284.6 791.4,284.6 794.3,284.6 797.1,284.6 L797.1,284.5 L435.0,284.5 Z" fill="url(#g286)" clip-path="url(#c288)"/>
  <path d="M435.0,207.0 435.0,207.0 437.9,226.3 440.7,318.9 443.6,324.3 446.4,329.1 449.3,296.3 452.1,278.5 455.0,267.9 457.8,271.1 460.7,281.1 463.5,287.1 466.4,292.0 469.2,288.6 472.1,287.3 474.9,282.7 477.8,283.3 480.6,282.4 483.5,284.8 486.3,284.7 489.2,285.9 492.0,285.0 494.9,285.1 497.7,284.3 500.6,284.5 503.4,284.4 506.3,284.7 509.1,284.7 512.0,284.8 514.8,284.7 517.7,284.7 520.5,284.6 523.4,284.6 526.3,284.6 529.1,284.6 532.0,284.6 534.8,284.6 537.7,284.6 540.5,284.6 543.4,284.6 546.2,284.6 549.1,284.6 551.9,284.6 554.8,284.6 557.6,284.6 560.5,284.6 563.3,284.6 566.2,284.6 569.0,284.6 571.9,284.6 574.7,284.6 577.6,284.6 580.4,284.6 583.3,284.6 586.1,284.6 589.0,284.6 591.8,284.6 594.7,284.6 597.5,284.6 600.4,284.6 603.2,284.6 606.1,284.6 608.9,284.6 611.8,284.6 614.6,284.6 617.5,284.6 620.4,284.6 623.2,284.6 626.1,284.6 628.9,284.6 631.8,284.6 634.6,284.6 637.5,284.6 640.3,284.6 643.2,284.6 646.0,284.6 648.9,284.6 651.7,284.6 654.6,284.6 657.4,284.6 660.3,284.6 663.1,284.6 666.0,284.6 668.8,284.6 671.7,284.6 674.5,284.6 677.4,284.6 680.2,284.6 683.1,284.6 685.9,284.6 688.8,284.6 691.6,284.6 694.5,284.6 697.3,284.6 700.2,284.6 703.0,284.6 705.9,284.6 708.8,284.6 711.6,284.6 714.5,284.6 717.3,284.6 720.2,284.6 723.0,284.6 725.9,284.6 728.7,284.6 731.6,284.6 734.4,284.6 737.3,284.6 740.1,284.6 743.0,284.6 745.8,284.6 748.7,284.6 751.5,284.6 754.4,284.6 757.2,284.6 760.1,284.6 762.9,284.6 765.8,284.6 768.6,284.6 771.5,284.6 774.3,284.6 777.2,284.6 780.0,284.6 782.9,284.6 785.7,284.6 788.6,284.6 791.4,284.6 794.3,284.6 797.1,284.6 L797.1,284.5 L435.0,284.5 Z" fill="url(#g287)" clip-path="url(#c289)"/>
  <defs><clipPath id="pc290"><rect x="435" y="207" width="365" height="155"/></clipPath></defs>
  <polyline points="435.0,207.0 437.9,226.3 440.7,318.9 443.6,324.3 446.4,329.1 449.3,296.3 452.1,278.5 455.0,267.9 457.8,271.1 460.7,281.1 463.5,287.1 466.4,292.0 469.2,288.6 472.1,287.3 474.9,282.7 477.8,283.3 480.6,282.4 483.5,284.8 486.3,284.7 489.2,285.9 492.0,285.0 494.9,285.1 497.7,284.3 500.6,284.5 503.4,284.4 506.3,284.7 509.1,284.7 512.0,284.8 514.8,284.7 517.7,284.7 520.5,284.6 523.4,284.6 526.3,284.6 529.1,284.6 532.0,284.6 534.8,284.6 537.7,284.6 540.5,284.6 543.4,284.6 546.2,284.6 549.1,284.6 551.9,284.6 554.8,284.6 557.6,284.6 560.5,284.6 563.3,284.6 566.2,284.6 569.0,284.6 571.9,284.6 574.7,284.6 577.6,284.6 580.4,284.6 583.3,284.6 586.1,284.6 589.0,284.6 591.8,284.6 594.7,284.6 597.5,284.6 600.4,284.6 603.2,284.6 606.1,284.6 608.9,284.6 611.8,284.6 614.6,284.6 617.5,284.6 620.4,284.6 623.2,284.6 626.1,284.6 628.9,284.6 631.8,284.6 634.6,284.6 637.5,284.6 640.3,284.6 643.2,284.6 646.0,284.6 648.9,284.6 651.7,284.6 654.6,284.6 657.4,284.6 660.3,284.6 663.1,284.6 666.0,284.6 668.8,284.6 671.7,284.6 674.5,284.6 677.4,284.6 680.2,284.6 683.1,284.6 685.9,284.6 688.8,284.6 691.6,284.6 694.5,284.6 697.3,284.6 700.2,284.6 703.0,284.6 705.9,284.6 708.8,284.6 711.6,284.6 714.5,284.6 717.3,284.6 720.2,284.6 723.0,284.6 725.9,284.6 728.7,284.6 731.6,284.6 734.4,284.6 737.3,284.6 740.1,284.6 743.0,284.6 745.8,284.6 748.7,284.6 751.5,284.6 754.4,284.6 757.2,284.6 760.1,284.6 762.9,284.6 765.8,284.6 768.6,284.6 771.5,284.6 774.3,284.6 777.2,284.6 780.0,284.6 782.9,284.6 785.7,284.6 788.6,284.6 791.4,284.6 794.3,284.6 797.1,284.6" fill="none" stroke="#f39c12" stroke-width="1.3" stroke-linejoin="round" clip-path="url(#pc290)"/>
</svg>
