<svg xmlns="http://www.w3.org/2000/svg" viewBox="0 0 800 420" style="font-family:system-ui,-apple-system,sans-serif">
  <text x="55" y="416" font-size="11" font-weight="600" fill="#6b7280">ITU-R 468 noise weighting</text>
  <line x1="55" y1="12" x2="55" y2="162" stroke="#d1d5db"/>
  <line x1="55" y1="42.0" x2="385" y2="42.0" stroke="#d1d5db"/>
  <text x="220" y="190" text-anchor="middle" font-size="9" fill="#6b7280">Hz</text>
  <text x="29" y="87" text-anchor="middle" font-size="9" fill="#6b7280" transform="rotate(-90 29 87)">dB</text>
  <line x1="85.1" y1="12" x2="85.1" y2="162" stroke="#e5e7eb" stroke-width="0.5"/>
  <line x1="102.7" y1="12" x2="102.7" y2="162" stroke="#e5e7eb" stroke-width="0.5"/>
  <line x1="115.2" y1="12" x2="115.2" y2="162" stroke="#e5e7eb" stroke-width="0.5"/>
  <line x1="124.9" y1="12" x2="124.9" y2="162" stroke="#e5e7eb" stroke-width="0.5"/>
  <line x1="132.8" y1="12" x2="132.8" y2="162" stroke="#e5e7eb" stroke-width="0.5"/>
  <line x1="139.5" y1="12" x2="139.5" y2="162" stroke="#e5e7eb" stroke-width="0.5"/>
  <line x1="145.3" y1="12" x2="145.3" y2="162" stroke="#e5e7eb" stroke-width="0.5"/>
  <line x1="150.4" y1="12" x2="150.4" y2="162" stroke="#e5e7eb" stroke-width="0.5"/>
  <line x1="185.1" y1="12" x2="185.1" y2="162" stroke="#e5e7eb" stroke-width="0.5"/>
  <line x1="202.7" y1="12" x2="202.7" y2="162" stroke="#e5e7eb" stroke-width="0.5"/>
  <line x1="215.2" y1="12" x2="215.2" y2="162" stroke="#e5e7eb" stroke-width="0.5"/>
  <line x1="224.8" y1="12" x2="224.8" y2="162" stroke="#e5e7eb" stroke-width="0.5"/>
  <line x1="232.8" y1="12" x2="232.8" y2="162" stroke="#e5e7eb" stroke-width="0.5"/>
  <line x1="239.5" y1="12" x2="239.5" y2="162" stroke="#e5e7eb" stroke-width="0.5"/>
  <line x1="245.2" y1="12" x2="245.2" y2="162" stroke="#e5e7eb" stroke-width="0.5"/>
  <line x1="250.4" y1="12" x2="250.4" y2="162" stroke="#e5e7eb" stroke-width="0.5"/>
  <line x1="285.0" y1="12" x2="285.0" y2="162" stroke="#e5e7eb" stroke-width="0.5"/>
  <line x1="302.6" y1="12" x2="302.6" y2="162" stroke="#e5e7eb" stroke-width="0.5"/>
  <line x1="315.1" y1="12" x2="315.1" y2="162" stroke="#e5e7eb" stroke-width="0.5"/>
  <line x1="324.8" y1="12" x2="324.8" y2="162" stroke="#e5e7eb" stroke-width="0.5"/>
  <line x1="332.7" y1="12" x2="332.7" y2="162" stroke="#e5e7eb" stroke-width="0.5"/>
  <line x1="339.4" y1="12" x2="339.4" y2="162" stroke="#e5e7eb" stroke-width="0.5"/>
  <line x1="345.2" y1="12" x2="345.2" y2="162" stroke="#e5e7eb" stroke-width="0.5"/>
  <line x1="350.3" y1="12" x2="350.3" y2="162" stroke="#e5e7eb" stroke-width="0.5"/>
  <line x1="385.0" y1="12" x2="385.0" y2="162" stroke="#e5e7eb" stroke-width="0.5"/>
  <line x1="155.0" y1="12" x2="155.0" y2="162" stroke="#e5e7eb" stroke-width="0.5"/>
  <text x="155.0" y="174" text-anchor="middle" font-size="8" fill="#6b7280">100</text>
  <line x1="254.9" y1="12" x2="254.9" y2="162" stroke="#e5e7eb" stroke-width="0.5"/>
  <text x="254.9" y="174" text-anchor="middle" font-size="8" fill="#6b7280">1k</text>
  <line x1="354.9" y1="12" x2="354.9" y2="162" stroke="#e5e7eb" stroke-width="0.5"/>
  <text x="354.9" y="174" text-anchor="middle" font-size="8" fill="#6b7280">10k</text>
  <line x1="55" y1="27.0" x2="385" y2="27.0" stroke="#e5e7eb" stroke-width="0.5"/>
  <line x1="55" y1="57.0" x2="385" y2="57.0" stroke="#e5e7eb" stroke-width="0.5"/>
  <line x1="55" y1="12.0" x2="385" y2="12.0" stroke="#e5e7eb" stroke-width="0.5"/>
  <text x="51" y="15.0" text-anchor="end" font-size="8" fill="#6b7280">+20</text>
  <text x="51" y="45.0" text-anchor="end" font-size="8" fill="#6b7280">0</text>
  <line x1="55" y1="72.0" x2="385" y2="72.0" stroke="#e5e7eb" stroke-width="0.5"/>
  <text x="51" y="75.0" text-anchor="end" font-size="8" fill="#6b7280">-20</text>
  <line x1="55" y1="102.0" x2="385" y2="102.0" stroke="#e5e7eb" stroke-width="0.5"/>
  <text x="51" y="105.0" text-anchor="end" font-size="8" fill="#6b7280">-40</text>
  <line x1="55" y1="132.0" x2="385" y2="132.0" stroke="#e5e7eb" stroke-width="0.5"/>
  <text x="51" y="135.0" text-anchor="end" font-size="8" fill="#6b7280">-60</text>
  <line x1="55" y1="162.0" x2="385" y2="162.0" stroke="#e5e7eb" stroke-width="0.5"/>
  <text x="51" y="165.0" text-anchor="end" font-size="8" fill="#6b7280">-80</text>
  <defs><linearGradient id="g277" x1="0" y1="12" x2="0" y2="162" gradientUnits="userSpaceOnUse">
    <stop offset="0%" stop-color="#4a90d9" stop-opacity="0.15"/>
    <stop offset="100%" stop-color="#4a90d9" stop-opacity="0.02"/>
  </linearGradient></defs>
  <path d="M58.2,57.3 58.2,57.3 88.3,45.8 105.9,43.3 118.4,42.6 128.1,42.3 136.0,42.2 142.7,42.1 148.5,42.0 153.6,42.0 158.2,42.0 162.3,41.9 166.1,41.9 169.6,41.8 172.8,41.8 175.8,41.8 178.6,41.7 181.2,41.7 183.7,41.6 186.0,41.6 188.3,41.6 190.4,41.5 192.4,41.5 194.3,41.4 196.2,41.4 198.0,41.3 199.7,41.3 201.3,41.2 202.9,41.2 204.4,41.1 205.9,41.0 207.3,41.0 208.7,40.9 210.0,40.9 211.3,40.8 212.6,40.7 213.8,40.7 215.0,40.6 216.1,40.6 217.3,40.5 218.4,40.4 219.4,40.4 220.5,40.3 221.5,40.2 222.5,40.2 223.5,40.1 224.4,40.1 225.4,40.0 226.3,39.9 227.2,39.9 228.1,39.8 228.9,39.7 229.8,39.7 230.6,39.6 231.4,39.5 233.0,39.4 234.5,39.3 236.0,39.1 237.4,39.0 238.8,38.9 240.1,38.8 241.4,38.6 242.7,38.5 243.9,38.4 245.1,38.2 246.2,38.1 247.4,38.0 248.5,37.9 249.5,37.7 250.6,37.6 251.6,37.5 252.6,37.4 253.6,37.2 254.5,37.1 255.5,37.0 256.4,36.9 257.3,36.7 258.1,36.6 259.0,36.5 259.8,36.4 260.7,36.3 261.5,36.1 262.7,36.0 263.8,35.8 265.0,35.6 266.1,35.4 267.1,35.3 268.2,35.1 269.2,34.9 270.2,34.7 271.2,34.6 272.1,34.4 273.1,34.2 274.0,34.0 274.9,33.9 275.7,33.7 276.6,33.5 277.5,33.4 278.3,33.2 279.1,33.0 280.1,32.8 281.2,32.6 282.2,32.3 283.2,32.1 284.1,31.9 285.1,31.7 286.0,31.5 286.9,31.2 287.8,31.0 288.7,30.8 289.5,30.6 290.4,30.3 291.2,30.1 292.0,29.9 293.0,29.6 293.9,29.3 294.9,29.1 295.8,28.8 296.7,28.5 297.6,28.2 298.4,27.9 299.3,27.7 300.1,27.4 300.9,27.1 301.7,26.8 302.7,26.5 303.6,26.2 304.5,25.8 305.4,25.5 306.3,25.2 307.1,24.8 308.0,24.5 308.8,24.2 309.6,23.8 310.5,23.4 311.4,23.1 312.3,22.7 313.2,22.3 314.0,21.9 314.8,21.5 315.6,21.2 316.4,20.8 317.3,20.4 318.2,20.0 319.1,19.6 319.9,19.2 320.8,18.8 321.6,18.4 322.5,18.0 323.3,17.7 324.2,17.3 325.1,17.0 325.9,16.7 326.7,16.5 327.6,16.2 328.5,16.0 329.3,15.9 330.1,15.8 331.0,15.7 331.8,15.7 332.6,15.8 333.5,15.9 334.3,16.0 335.1,16.2 335.9,16.4 336.8,16.7 337.6,17.0 338.5,17.3 339.3,17.6 340.1,18.0 341.0,18.4 341.8,18.8 342.6,19.2 343.5,19.6 344.3,20.0 345.2,20.4 346.0,20.9 346.8,21.3 347.7,21.7 348.5,22.1 349.3,22.5 350.1,22.9 351.0,23.3 351.8,23.7 352.6,24.1 353.4,24.5 354.3,24.8 355.1,25.2 355.9,25.6 356.7,25.9 357.6,26.3 358.4,26.6 359.2,26.9 360.1,27.3 360.9,27.6 361.7,27.9 362.5,28.2 363.3,28.5 364.1,28.8 365.0,29.1 365.8,29.4 366.6,29.7 367.4,30.0 368.3,30.2 369.1,30.5 369.9,30.8 370.7,31.0 371.5,31.3 372.3,31.6 373.1,31.8 373.9,32.1 374.8,32.3 375.6,32.6 376.4,32.9 377.2,33.2 378.0,33.5 378.8,33.8 379.6,34.1 380.4,34.5 381.3,35.0 382.1,35.6 382.9,36.3 383.7,37.3 384.5,38.7 L384.5,162.0 L58.2,162.0 Z" fill="url(#g277)"/>
  <defs><clipPath id="pc278"><rect x="55" y="12" width="330" height="150"/></clipPath></defs>
  <polyline points="58.2,57.3 88.3,45.8 105.9,43.3 118.4,42.6 128.1,42.3 136.0,42.2 142.7,42.1 148.5,42.0 153.6,42.0 158.2,42.0 162.3,41.9 166.1,41.9 169.6,41.8 172.8,41.8 175.8,41.8 178.6,41.7 181.2,41.7 183.7,41.6 186.0,41.6 188.3,41.6 190.4,41.5 192.4,41.5 194.3,41.4 196.2,41.4 198.0,41.3 199.7,41.3 201.3,41.2 202.9,41.2 204.4,41.1 205.9,41.0 207.3,41.0 208.7,40.9 210.0,40.9 211.3,40.8 212.6,40.7 213.8,40.7 215.0,40.6 216.1,40.6 217.3,40.5 218.4,40.4 219.4,40.4 220.5,40.3 221.5,40.2 222.5,40.2 223.5,40.1 224.4,40.1 225.4,40.0 226.3,39.9 227.2,39.9 228.1,39.8 228.9,39.7 229.8,39.7 230.6,39.6 231.4,39.5 233.0,39.4 234.5,39.3 236.0,39.1 237.4,39.0 238.8,38.9 240.1,38.8 241.4,38.6 242.7,38.5 243.9,38.4 245.1,38.2 246.2,38.1 247.4,38.0 248.5,37.9 249.5,37.7 250.6,37.6 251.6,37.5 252.6,37.4 253.6,37.2 254.5,37.1 255.5,37.0 256.4,36.9 257.3,36.7 258.1,36.6 259.0,36.5 259.8,36.4 260.7,36.3 261.5,36.1 262.7,36.0 263.8,35.8 265.0,35.6 266.1,35.4 267.1,35.3 268.2,35.1 269.2,34.9 270.2,34.7 271.2,34.6 272.1,34.4 273.1,34.2 274.0,34.0 274.9,33.9 275.7,33.7 276.6,33.5 277.5,33.4 278.3,33.2 279.1,33.0 280.1,32.8 281.2,32.6 282.2,32.3 283.2,32.1 284.1,31.9 285.1,31.7 286.0,31.5 286.9,31.2 287.8,31.0 288.7,30.8 289.5,30.6 290.4,30.3 291.2,30.1 292.0,29.9 293.0,29.6 293.9,29.3 294.9,29.1 295.8,28.8 296.7,28.5 297.6,28.2 298.4,27.9 299.3,27.7 300.1,27.4 300.9,27.1 301.7,26.8 302.7,26.5 303.6,26.2 304.5,25.8 305.4,25.5 306.3,25.2 307.1,24.8 308.0,24.5 308.8,24.2 309.6,23.8 310.5,23.4 311.4,23.1 312.3,22.7 313.2,22.3 314.0,21.9 314.8,21.5 315.6,21.2 316.4,20.8 317.3,20.4 318.2,20.0 319.1,19.6 319.9,19.2 320.8,18.8 321.6,18.4 322.5,18.0 323.3,17.7 324.2,17.3 325.1,17.0 325.9,16.7 326.7,16.5 327.6,16.2 328.5,16.0 329.3,15.9 330.1,15.8 331.0,15.7 331.8,15.7 332.6,15.8 333.5,15.9 334.3,16.0 335.1,16.2 335.9,16.4 336.8,16.7 337.6,17.0 338.5,17.3 339.3,17.6 340.1,18.0 341.0,18.4 341.8,18.8 342.6,19.2 343.5,19.6 344.3,20.0 345.2,20.4 346.0,20.9 346.8,21.3 347.7,21.7 348.5,22.1 349.3,22.5 350.1,22.9 351.0,23.3 351.8,23.7 352.6,24.1 353.4,24.5 354.3,24.8 355.1,25.2 355.9,25.6 356.7,25.9 357.6,26.3 358.4,26.6 359.2,26.9 360.1,27.3 360.9,27.6 361.7,27.9 362.5,28.2 363.3,28.5 364.1,28.8 365.0,29.1 365.8,29.4 366.6,29.7 367.4,30.0 368.3,30.2 369.1,30.5 369.9,30.8 370.7,31.0 371.5,31.3 372.3,31.6 373.1,31.8 373.9,32.1 374.8,32.3 375.6,32.6 376.4,32.9 377.2,33.2 378.0,33.5 378.8,33.8 379.6,34.1 380.4,34.5 381.3,35.0 382.1,35.6 382.9,36.3 383.7,37.3 384.5,38.7" fill="none" stroke="#4a90d9" stroke-width="1.5" stroke-linejoin="round" clip-path="url(#pc278)"/>
  <line x1="445" y1="12" x2="445" y2="162" stroke="#d1d5db"/>
  <line x1="445" y1="87.0" x2="775" y2="87.0" stroke="#d1d5db"/>
  <text x="610" y="190" text-anchor="middle" font-size="9" fill="#6b7280">Hz</text>
  <text x="419" y="87" text-anchor="middle" font-size="9" fill="#6b7280" transform="rotate(-90 419 87)">Phase (deg)</text>
  <line x1="475.1" y1="12" x2="475.1" y2="162" stroke="#e5e7eb" stroke-width="0.5"/>
  <line x1="492.7" y1="12" x2="492.7" y2="162" stroke="#e5e7eb" stroke-width="0.5"/>
  <line x1="505.2" y1="12" x2="505.2" y2="162" stroke="#e5e7eb" stroke-width="0.5"/>
  <line x1="514.9" y1="12" x2="514.9" y2="162" stroke="#e5e7eb" stroke-width="0.5"/>
  <line x1="522.8" y1="12" x2="522.8" y2="162" stroke="#e5e7eb" stroke-width="0.5"/>
  <line x1="529.5" y1="12" x2="529.5" y2="162" stroke="#e5e7eb" stroke-width="0.5"/>
  <line x1="535.3" y1="12" x2="535.3" y2="162" stroke="#e5e7eb" stroke-width="0.5"/>
  <line x1="540.4" y1="12" x2="540.4" y2="162" stroke="#e5e7eb" stroke-width="0.5"/>
  <line x1="575.1" y1="12" x2="575.1" y2="162" stroke="#e5e7eb" stroke-width="0.5"/>
  <line x1="592.7" y1="12" x2="592.7" y2="162" stroke="#e5e7eb" stroke-width="0.5"/>
  <line x1="605.2" y1="12" x2="605.2" y2="162" stroke="#e5e7eb" stroke-width="0.5"/>
  <line x1="614.8" y1="12" x2="614.8" y2="162" stroke="#e5e7eb" stroke-width="0.5"/>
  <line x1="622.8" y1="12" x2="622.8" y2="162" stroke="#e5e7eb" stroke-width="0.5"/>
  <line x1="629.5" y1="12" x2="629.5" y2="162" stroke="#e5e7eb" stroke-width="0.5"/>
  <line x1="635.2" y1="12" x2="635.2" y2="162" stroke="#e5e7eb" stroke-width="0.5"/>
  <line x1="640.4" y1="12" x2="640.4" y2="162" stroke="#e5e7eb" stroke-width="0.5"/>
  <line x1="675.0" y1="12" x2="675.0" y2="162" stroke="#e5e7eb" stroke-width="0.5"/>
  <line x1="692.6" y1="12" x2="692.6" y2="162" stroke="#e5e7eb" stroke-width="0.5"/>
  <line x1="705.1" y1="12" x2="705.1" y2="162" stroke="#e5e7eb" stroke-width="0.5"/>
  <line x1="714.8" y1="12" x2="714.8" y2="162" stroke="#e5e7eb" stroke-width="0.5"/>
  <line x1="722.7" y1="12" x2="722.7" y2="162" stroke="#e5e7eb" stroke-width="0.5"/>
  <line x1="729.4" y1="12" x2="729.4" y2="162" stroke="#e5e7eb" stroke-width="0.5"/>
  <line x1="735.2" y1="12" x2="735.2" y2="162" stroke="#e5e7eb" stroke-width="0.5"/>
  <line x1="740.3" y1="12" x2="740.3" y2="162" stroke="#e5e7eb" stroke-width="0.5"/>
  <line x1="775.0" y1="12" x2="775.0" y2="162" stroke="#e5e7eb" stroke-width="0.5"/>
  <line x1="545.0" y1="12" x2="545.0" y2="162" stroke="#e5e7eb" stroke-width="0.5"/>
  <text x="545.0" y="174" text-anchor="middle" font-size="8" fill="#6b7280">100</text>
  <line x1="644.9" y1="12" x2="644.9" y2="162" stroke="#e5e7eb" stroke-width="0.5"/>
  <text x="644.9" y="174" text-anchor="middle" font-size="8" fill="#6b7280">1k</text>
  <line x1="744.9" y1="12" x2="744.9" y2="162" stroke="#e5e7eb" stroke-width="0.5"/>
  <text x="744.9" y="174" text-anchor="middle" font-size="8" fill="#6b7280">10k</text>
  <line x1="445" y1="53.3" x2="775" y2="53.3" stroke="#e5e7eb" stroke-width="0.5"/>
  <line x1="445" y1="120.8" x2="775" y2="120.8" stroke="#e5e7eb" stroke-width="0.5"/>
  <line x1="445" y1="19.5" x2="775" y2="19.5" stroke="#e5e7eb" stroke-width="0.5"/>
  <text x="441" y="22.5" text-anchor="end" font-size="8" fill="#6b7280">180</text>
  <text x="441" y="90.0" text-anchor="end" font-size="8" fill="#6b7280">0</text>
  <line x1="445" y1="154.5" x2="775" y2="154.5" stroke="#e5e7eb" stroke-width="0.5"/>
  <text x="441" y="157.5" text-anchor="end" font-size="8" fill="#6b7280">-180</text>
  <defs><linearGradient id="g279" x1="0" y1="12" x2="0" y2="87.0" gradientUnits="userSpaceOnUse">
    <stop offset="0%" stop-color="#e74c3c" stop-opacity="0.15"/>
    <stop offset="100%" stop-color="#e74c3c" stop-opacity="0.02"/>
  </linearGradient></defs>
  <defs><linearGradient id="g280" x1="0" y1="162" x2="0" y2="87.0" gradientUnits="userSpaceOnUse">
    <stop offset="0%" stop-color="#e74c3c" stop-opacity="0.15"/>
    <stop offset="100%" stop-color="#e74c3c" stop-opacity="0.02"/>
  </linearGradient></defs>
  <defs><clipPath id="c281"><rect x="445" y="12" width="330" height="75.0"/></clipPath></defs>
  <defs><clipPath id="c282"><rect x="445" y="87.0" width="330" height="75.0"/></clipPath></defs>
  <path d="M448.2,39.5 448.2,39.5 478.3,57.2 495.9,66.7 508.4,71.6 518.1,74.4 526.0,76.1 532.7,77.3 538.5,78.1 543.6,78.7 548.2,79.1 552.3,79.5 556.1,79.7 559.6,79.8 562.8,79.9 565.8,80.0 568.6,80.0 571.2,80.0 573.7,80.0 576.0,80.0 578.3,80.0 580.4,79.9 582.4,79.8 584.3,79.8 586.2,79.7 588.0,79.6 589.7,79.5 591.3,79.4 592.9,79.3 594.4,79.2 595.9,79.1 597.3,79.0 598.7,78.9 600.0,78.8 601.3,78.7 602.6,78.6 603.8,78.4 605.0,78.3 606.1,78.2 607.3,78.1 608.4,78.0 609.4,77.9 610.5,77.8 611.5,77.7 612.5,77.6 613.5,77.5 614.4,77.4 615.4,77.3 616.3,77.2 617.2,77.1 618.1,77.0 618.9,76.9 619.8,76.8 620.6,76.7 621.4,76.6 623.0,76.4 624.5,76.2 626.0,76.0 627.4,75.9 628.8,75.7 630.1,75.5 631.4,75.4 632.7,75.2 633.9,75.0 635.1,74.9 636.2,74.7 637.4,74.6 638.5,74.5 639.5,74.3 640.6,74.2 641.6,74.0 642.6,73.9 643.6,73.8 644.5,73.7 645.5,73.5 646.4,73.4 647.3,73.3 648.1,73.2 649.0,73.1 649.8,73.0 650.7,72.9 651.5,72.7 652.7,72.6 653.8,72.4 655.0,72.3 656.1,72.1 657.1,72.0 658.2,71.9 659.2,71.7 660.2,71.6 661.2,71.5 662.1,71.4 663.1,71.3 664.0,71.1 664.9,71.0 665.7,70.9 666.6,70.8 667.5,70.7 668.3,70.6 669.1,70.5 670.1,70.4 671.2,70.3 672.2,70.2 673.2,70.1 674.1,70.0 675.1,69.9 676.0,69.8 676.9,69.8 677.8,69.7 678.7,69.6 679.5,69.6 680.4,69.5 681.2,69.5 682.0,69.4 683.0,69.4 683.9,69.3 684.9,69.3 685.8,69.3 686.7,69.2 687.6,69.2 688.4,69.2 689.3,69.2 690.1,69.3 690.9,69.3 691.7,69.3 692.7,69.4 693.6,69.4 694.5,69.5 695.4,69.6 696.3,69.7 697.1,69.8 698.0,70.0 698.8,70.1 699.6,70.3 700.5,70.5 701.4,70.7 702.3,70.9 703.2,71.2 704.0,71.5 704.8,71.8 705.6,72.2 706.4,72.5 707.3,73.0 708.2,73.5 709.1,74.0 709.9,74.5 710.8,75.1 711.6,75.7 712.5,76.5 713.3,77.3 714.2,78.1 715.1,78.9 715.9,79.8 716.7,80.8 717.6,81.8 718.5,82.9 719.3,84.0 720.1,85.1 721.0,86.2 721.8,87.2 722.6,88.4 723.5,89.5 724.3,90.6 725.1,91.6 725.9,92.6 726.8,93.6 727.6,94.6 728.5,95.5 729.3,96.3 730.1,97.1 731.0,97.8 731.8,98.5 732.6,99.1 733.5,99.7 734.3,100.2 735.2,100.7 736.0,101.1 736.8,101.5 737.7,101.9 738.5,102.2 739.3,102.5 740.1,102.8 741.0,103.0 741.8,103.3 742.6,103.5 743.4,103.6 744.3,103.8 745.1,103.9 745.9,104.1 746.7,104.2 747.6,104.3 748.4,104.3 749.2,104.4 750.1,104.5 750.9,104.5 751.7,104.6 752.5,104.6 753.3,104.6 754.1,104.7 755.0,104.7 755.8,104.7 756.6,104.7 757.4,104.8 758.3,104.8 759.1,104.9 759.9,104.9 760.7,105.0 761.5,105.1 762.3,105.2 763.1,105.3 763.9,105.5 764.8,105.7 765.6,105.9 766.4,106.2 767.2,106.6 768.0,107.0 768.8,107.6 769.6,108.3 770.4,109.2 771.3,110.3 772.1,111.7 772.9,113.5 773.7,115.7 774.5,118.6 L774.5,87.0 L448.2,87.0 Z" fill="url(#g279)" clip-path="url(#c281)"/>
  <path d="M448.2,39.5 448.2,39.5 478.3,57.2 495.9,66.7 508.4,71.6 518.1,74.4 526.0,76.1 532.7,77.3 538.5,78.1 543.6,78.7 548.2,79.1 552.3,79.5 556.1,79.7 559.6,79.8 562.8,79.9 565.8,80.0 568.6,80.0 571.2,80.0 573.7,80.0 576.0,80.0 578.3,80.0 580.4,79.9 582.4,79.8 584.3,79.8 586.2,79.7 588.0,79.6 589.7,79.5 591.3,79.4 592.9,79.3 594.4,79.2 595.9,79.1 597.3,79.0 598.7,78.9 600.0,78.8 601.3,78.7 602.6,78.6 603.8,78.4 605.0,78.3 606.1,78.2 607.3,78.1 608.4,78.0 609.4,77.9 610.5,77.8 611.5,77.7 612.5,77.6 613.5,77.5 614.4,77.4 615.4,77.3 616.3,77.2 617.2,77.1 618.1,77.0 618.9,76.9 619.8,76.8 620.6,76.7 621.4,76.6 623.0,76.4 624.5,76.2 626.0,76.0 627.4,75.9 628.8,75.7 630.1,75.5 631.4,75.4 632.7,75.2 633.9,75.0 635.1,74.9 636.2,74.7 637.4,74.6 638.5,74.5 639.5,74.3 640.6,74.2 641.6,74.0 642.6,73.9 643.6,73.8 644.5,73.7 645.5,73.5 646.4,73.4 647.3,73.3 648.1,73.2 649.0,73.1 649.8,73.0 650.7,72.9 651.5,72.7 652.7,72.6 653.8,72.4 655.0,72.3 656.1,72.1 657.1,72.0 658.2,71.9 659.2,71.7 660.2,71.6 661.2,71.5 662.1,71.4 663.1,71.3 664.0,71.1 664.9,71.0 665.7,70.9 666.6,70.8 667.5,70.7 668.3,70.6 669.1,70.5 670.1,70.4 671.2,70.3 672.2,70.2 673.2,70.1 674.1,70.0 675.1,69.9 676.0,69.8 676.9,69.8 677.8,69.7 678.7,69.6 679.5,69.6 680.4,69.5 681.2,69.5 682.0,69.4 683.0,69.4 683.9,69.3 684.9,69.3 685.8,69.3 686.7,69.2 687.6,69.2 688.4,69.2 689.3,69.2 690.1,69.3 690.9,69.3 691.7,69.3 692.7,69.4 693.6,69.4 694.5,69.5 695.4,69.6 696.3,69.7 697.1,69.8 698.0,70.0 698.8,70.1 699.6,70.3 700.5,70.5 701.4,70.7 702.3,70.9 703.2,71.2 704.0,71.5 704.8,71.8 705.6,72.2 706.4,72.5 707.3,73.0 708.2,73.5 709.1,74.0 709.9,74.5 710.8,75.1 711.6,75.7 712.5,76.5 713.3,77.3 714.2,78.1 715.1,78.9 715.9,79.8 716.7,80.8 717.6,81.8 718.5,82.9 719.3,84.0 720.1,85.1 721.0,86.2 721.8,87.2 722.6,88.4 723.5,89.5 724.3,90.6 725.1,91.6 725.9,92.6 726.8,93.6 727.6,94.6 728.5,95.5 729.3,96.3 730.1,97.1 731.0,97.8 731.8,98.5 732.6,99.1 733.5,99.7 734.3,100.2 735.2,100.7 736.0,101.1 736.8,101.5 737.7,101.9 738.5,102.2 739.3,102.5 740.1,102.8 741.0,103.0 741.8,103.3 742.6,103.5 743.4,103.6 744.3,103.8 745.1,103.9 745.9,104.1 746.7,104.2 747.6,104.3 748.4,104.3 749.2,104.4 750.1,104.5 750.9,104.5 751.7,104.6 752.5,104.6 753.3,104.6 754.1,104.7 755.0,104.7 755.8,104.7 756.6,104.7 757.4,104.8 758.3,104.8 759.1,104.9 759.9,104.9 760.7,105.0 761.5,105.1 762.3,105.2 763.1,105.3 763.9,105.5 764.8,105.7 765.6,105.9 766.4,106.2 767.2,106.6 768.0,107.0 768.8,107.6 769.6,108.3 770.4,109.2 771.3,110.3 772.1,111.7 772.9,113.5 773.7,115.7 774.5,118.6 L774.5,87.0 L448.2,87.0 Z" fill="url(#g280)" clip-path="url(#c282)"/>
  <defs><clipPath id="pc283"><rect x="445" y="12" width="330" height="150"/></clipPath></defs>
  <polyline points="448.2,39.5 478.3,57.2 495.9,66.7 508.4,71.6 518.1,74.4 526.0,76.1 532.7,77.3 538.5,78.1 543.6,78.7 548.2,79.1 552.3,79.5 556.1,79.7 559.6,79.8 562.8,79.9 565.8,80.0 568.6,80.0 571.2,80.0 573.7,80.0 576.0,80.0 578.3,80.0 580.4,79.9 582.4,79.8 584.3,79.8 586.2,79.7 588.0,79.6 589.7,79.5 591.3,79.4 592.9,79.3 594.4,79.2 595.9,79.1 597.3,79.0 598.7,78.9 600.0,78.8 601.3,78.7 602.6,78.6 603.8,78.4 605.0,78.3 606.1,78.2 607.3,78.1 608.4,78.0 609.4,77.9 610.5,77.8 611.5,77.7 612.5,77.6 613.5,77.5 614.4,77.4 615.4,77.3 616.3,77.2 617.2,77.1 618.1,77.0 618.9,76.9 619.8,76.8 620.6,76.7 621.4,76.6 623.0,76.4 624.5,76.2 626.0,76.0 627.4,75.9 628.8,75.7 630.1,75.5 631.4,75.4 632.7,75.2 633.9,75.0 635.1,74.9 636.2,74.7 637.4,74.6 638.5,74.5 639.5,74.3 640.6,74.2 641.6,74.0 642.6,73.9 643.6,73.8 644.5,73.7 645.5,73.5 646.4,73.4 647.3,73.3 648.1,73.2 649.0,73.1 649.8,73.0 650.7,72.9 651.5,72.7 652.7,72.6 653.8,72.4 655.0,72.3 656.1,72.1 657.1,72.0 658.2,71.9 659.2,71.7 660.2,71.6 661.2,71.5 662.1,71.4 663.1,71.3 664.0,71.1 664.9,71.0 665.7,70.9 666.6,70.8 667.5,70.7 668.3,70.6 669.1,70.5 670.1,70.4 671.2,70.3 672.2,70.2 673.2,70.1 674.1,70.0 675.1,69.9 676.0,69.8 676.9,69.8 677.8,69.7 678.7,69.6 679.5,69.6 680.4,69.5 681.2,69.5 682.0,69.4 683.0,69.4 683.9,69.3 684.9,69.3 685.8,69.3 686.7,69.2 687.6,69.2 688.4,69.2 689.3,69.2 690.1,69.3 690.9,69.3 691.7,69.3 692.7,69.4 693.6,69.4 694.5,69.5 695.4,69.6 696.3,69.7 697.1,69.8 698.0,70.0 698.8,70.1 699.6,70.3 700.5,70.5 701.4,70.7 702.3,70.9 703.2,71.2 704.0,71.5 704.8,71.8 705.6,72.2 706.4,72.5 707.3,73.0 708.2,73.5 709.1,74.0 709.9,74.5 710.8,75.1 711.6,75.7 712.5,76.5 713.3,77.3 714.2,78.1 715.1,78.9 715.9,79.8 716.7,80.8 717.6,81.8 718.5,82.9 719.3,84.0 720.1,85.1 721.0,86.2 721.8,87.2 722.6,88.4 723.5,89.5 724.3,90.6 725.1,91.6 725.9,92.6 726.8,93.6 727.6,94.6 728.5,95.5 729.3,96.3 730.1,97.1 731.0,97.8 731.8,98.5 732.6,99.1 733.5,99.7 734.3,100.2 735.2,100.7 736.0,101.1 736.8,101.5 737.7,101.9 738.5,102.2 739.3,102.5 740.1,102.8 741.0,103.0 741.8,103.3 742.6,103.5 743.4,103.6 744.3,103.8 745.1,103.9 745.9,104.1 746.7,104.2 747.6,104.3 748.4,104.3 749.2,104.4 750.1,104.5 750.9,104.5 751.7,104.6 752.5,104.6 753.3,104.6 754.1,104.7 755.0,104.7 755.8,104.7 756.6,104.7 757.4,104.8 758.3,104.8 759.1,104.9 759.9,104.9 760.7,105.0 761.5,105.1 762.3,105.2 763.1,105.3 763.9,105.5 764.8,105.7 765.6,105.9 766.4,106.2 767.2,106.6 768.0,107.0 768.8,107.6 769.6,108.3 770.4,109.2 771.3,110.3 772.1,111.7 772.9,113.5 773.7,115.7 774.5,118.6" fill="none" stroke="#e74c3c" stroke-width="1.5" stroke-linejoin="round" clip-path="url(#pc283)"/>
  <line x1="55" y1="210" x2="55" y2="360" stroke="#d1d5db"/>
  <line x1="55" y1="285.0" x2="385" y2="285.0" stroke="#d1d5db"/>
  <text x="220" y="388" text-anchor="middle" font-size="9" fill="#6b7280">Hz</text>
  <text x="29" y="285" text-anchor="middle" font-size="9" fill="#6b7280" transform="rotate(-90 29 285)">Group delay</text>
  <line x1="85.1" y1="210" x2="85.1" y2="360" stroke="#e5e7eb" stroke-width="0.5"/>
  <line x1="102.7" y1="210" x2="102.7" y2="360" stroke="#e5e7eb" stroke-width="0.5"/>
  <line x1="115.2" y1="210" x2="115.2" y2="360" stroke="#e5e7eb" stroke-width="0.5"/>
  <line x1="124.9" y1="210" x2="124.9" y2="360" stroke="#e5e7eb" stroke-width="0.5"/>
  <line x1="132.8" y1="210" x2="132.8" y2="360" stroke="#e5e7eb" stroke-width="0.5"/>
  <line x1="139.5" y1="210" x2="139.5" y2="360" stroke="#e5e7eb" stroke-width="0.5"/>
  <line x1="145.3" y1="210" x2="145.3" y2="360" stroke="#e5e7eb" stroke-width="0.5"/>
  <line x1="150.4" y1="210" x2="150.4" y2="360" stroke="#e5e7eb" stroke-width="0.5"/>
  <line x1="185.1" y1="210" x2="185.1" y2="360" stroke="#e5e7eb" stroke-width="0.5"/>
  <line x1="202.7" y1="210" x2="202.7" y2="360" stroke="#e5e7eb" stroke-width="0.5"/>
  <line x1="215.2" y1="210" x2="215.2" y2="360" stroke="#e5e7eb" stroke-width="0.5"/>
  <line x1="224.8" y1="210" x2="224.8" y2="360" stroke="#e5e7eb" stroke-width="0.5"/>
  <line x1="232.8" y1="210" x2="232.8" y2="360" stroke="#e5e7eb" stroke-width="0.5"/>
  <line x1="239.5" y1="210" x2="239.5" y2="360" stroke="#e5e7eb" stroke-width="0.5"/>
  <line x1="245.2" y1="210" x2="245.2" y2="360" stroke="#e5e7eb" stroke-width="0.5"/>
  <line x1="250.4" y1="210" x2="250.4" y2="360" stroke="#e5e7eb" stroke-width="0.5"/>
  <line x1="285.0" y1="210" x2="285.0" y2="360" stroke="#e5e7eb" stroke-width="0.5"/>
  <line x1="302.6" y1="210" x2="302.6" y2="360" stroke="#e5e7eb" stroke-width="0.5"/>
  <line x1="315.1" y1="210" x2="315.1" y2="360" stroke="#e5e7eb" stroke-width="0.5"/>
  <line x1="324.8" y1="210" x2="324.8" y2="360" stroke="#e5e7eb" stroke-width="0.5"/>
  <line x1="332.7" y1="210" x2="332.7" y2="360" stroke="#e5e7eb" stroke-width="0.5"/>
  <line x1="339.4" y1="210" x2="339.4" y2="360" stroke="#e5e7eb" stroke-width="0.5"/>
  <line x1="345.2" y1="210" x2="345.2" y2="360" stroke="#e5e7eb" stroke-width="0.5"/>
  <line x1="350.3" y1="210" x2="350.3" y2="360" stroke="#e5e7eb" stroke-width="0.5"/>
  <line x1="385.0" y1="210" x2="385.0" y2="360" stroke="#e5e7eb" stroke-width="0.5"/>
  <line x1="155.0" y1="210" x2="155.0" y2="360" stroke="#e5e7eb" stroke-width="0.5"/>
  <text x="155.0" y="372" text-anchor="middle" font-size="8" fill="#6b7280">100</text>
  <line x1="254.9" y1="210" x2="254.9" y2="360" stroke="#e5e7eb" stroke-width="0.5"/>
  <text x="254.9" y="372" text-anchor="middle" font-size="8" fill="#6b7280">1k</text>
  <line x1="354.9" y1="210" x2="354.9" y2="360" stroke="#e5e7eb" stroke-width="0.5"/>
  <text x="354.9" y="372" text-anchor="middle" font-size="8" fill="#6b7280">10k</text>
  <line x1="55" y1="324.8" x2="385" y2="324.8" stroke="#e5e7eb" stroke-width="0.5"/>
  <text x="51" y="327.8" text-anchor="end" font-size="8" fill="#6b7280">-900</text>
  <text x="51" y="288.0" text-anchor="end" font-size="8" fill="#6b7280">0</text>
  <line x1="55" y1="245.2" x2="385" y2="245.2" stroke="#e5e7eb" stroke-width="0.5"/>
  <text x="51" y="248.2" text-anchor="end" font-size="8" fill="#6b7280">900</text>
  <defs><linearGradient id="g284" x1="0" y1="210" x2="0" y2="285.0" gradientUnits="userSpaceOnUse">
    <stop offset="0%" stop-color="#2ecc71" stop-opacity="0.15"/>
    <stop offset="100%" stop-color="#2ecc71" stop-opacity="0.02"/>
  </linearGradient></defs>
  <path d="M58.2,235.7 58.2,235.7 88.3,274.3 105.9,282.4 118.4,284.1 128.1,284.6 136.0,284.8 142.7,284.8 148.5,284.9 153.6,284.9 158.2,284.9 162.3,284.9 166.1,284.9 169.6,284.9 172.8,284.9 175.8,284.9 178.6,284.9 181.2,284.9 183.7,284.9 186.0,284.9 188.3,284.9 190.4,284.9 192.4,284.9 194.3,284.9 196.2,284.9 198.0,284.9 199.7,284.9 201.3,284.9 202.9,284.9 204.4,284.9 205.9,284.9 207.3,284.9 208.7,284.9 210.0,284.9 211.3,284.9 212.6,284.9 213.8,284.9 215.0,284.9 216.1,284.9 217.3,284.9 218.4,284.9 219.4,284.9 220.5,284.9 221.5,284.9 222.5,284.9 223.5,284.9 224.4,284.9 225.4,284.9 226.3,284.9 227.2,284.9 228.1,284.9 228.9,284.9 229.8,284.9 230.6,284.9 231.4,284.9 233.0,284.9 234.5,284.9 236.0,284.9 237.4,284.9 238.8,284.9 240.1,284.9 241.4,284.9 242.7,284.9 243.9,284.9 245.1,284.9 246.2,284.9 247.4,284.9 248.5,284.9 249.5,284.9 250.6,284.9 251.6,284.9 252.6,284.9 253.6,284.9 254.5,284.9 255.5,284.9 256.4,284.9 257.3,284.9 258.1,284.9 259.0,284.9 259.8,284.9 260.7,284.9 261.5,284.9 262.7,284.9 263.8,284.9 265.0,284.9 266.1,284.9 267.1,284.9 268.2,284.9 269.2,284.9 270.2,284.9 271.2,284.9 272.1,284.9 273.1,284.9 274.0,284.9 274.9,284.9 275.7,284.9 276.6,284.9 277.5,284.9 278.3,284.9 279.1,284.9 280.1,284.9 281.2,284.9 282.2,284.9 283.2,284.9 284.1,284.9 285.1,284.9 286.0,284.9 286.9,284.9 287.8,284.9 288.7,284.9 289.5,284.9 290.4,284.9 291.2,284.9 292.0,284.9 293.0,284.9 293.9,284.9 294.9,284.9 295.8,284.9 296.7,284.9 297.6,284.9 298.4,284.9 299.3,284.9 300.1,284.9 300.9,284.9 301.7,284.9 302.7,284.9 303.6,284.9 304.5,284.9 305.4,284.9 306.3,284.9 307.1,284.9 308.0,284.9 308.8,284.9 309.6,284.9 310.5,284.9 311.4,284.9 312.3,284.9 313.2,284.9 314.0,284.9 314.8,284.9 315.6,284.9 316.4,284.9 317.3,284.9 318.2,284.9 319.1,284.9 319.9,284.9 320.8,284.9 321.6,284.9 322.5,284.9 323.3,284.9 324.2,284.9 325.1,284.9 325.9,284.9 326.7,284.9 327.6,285.0 328.5,285.0 329.3,285.0 330.1,285.0 331.0,285.0 331.8,285.0 332.6,285.0 333.5,285.0 334.3,285.0 335.1,285.0 335.9,285.0 336.8,285.1 337.6,285.1 338.5,285.1 339.3,285.1 340.1,285.1 341.0,285.1 341.8,285.1 342.6,285.1 343.5,285.1 344.3,285.1 345.2,285.1 346.0,285.1 346.8,285.1 347.7,285.1 348.5,285.1 349.3,285.1 350.1,285.1 351.0,285.1 351.8,285.1 352.6,285.1 353.4,285.0 354.3,285.0 355.1,285.0 355.9,285.0 356.7,285.0 357.6,285.0 358.4,285.0 359.2,285.0 360.1,285.0 360.9,285.0 361.7,285.0 362.5,285.0 363.3,285.0 364.1,285.0 365.0,285.0 365.8,285.0 366.6,285.0 367.4,285.0 368.3,285.0 369.1,285.0 369.9,285.0 370.7,285.0 371.5,285.0 372.3,285.0 373.1,285.0 373.9,285.0 374.8,285.0 375.6,285.0 376.4,285.0 377.2,285.0 378.0,285.0 378.8,285.0 379.6,285.0 380.4,285.0 381.3,285.0 382.1,285.0 382.9,285.1 383.7,285.1 384.5,285.1 L384.5,285.0 L58.2,285.0 Z" fill="url(#g284)"/>
  <defs><clipPath id="pc285"><rect x="55" y="210" width="330" height="150"/></clipPath></defs>
  <polyline points="58.2,235.7 88.3,274.3 105.9,282.4 118.4,284.1 128.1,284.6 136.0,284.8 142.7,284.8 148.5,284.9 153.6,284.9 158.2,284.9 162.3,284.9 166.1,284.9 169.6,284.9 172.8,284.9 175.8,284.9 178.6,284.9 181.2,284.9 183.7,284.9 186.0,284.9 188.3,284.9 190.4,284.9 192.4,284.9 194.3,284.9 196.2,284.9 198.0,284.9 199.7,284.9 201.3,284.9 202.9,284.9 204.4,284.9 205.9,284.9 207.3,284.9 208.7,284.9 210.0,284.9 211.3,284.9 212.6,284.9 213.8,284.9 215.0,284.9 216.1,284.9 217.3,284.9 218.4,284.9 219.4,284.9 220.5,284.9 221.5,284.9 222.5,284.9 223.5,284.9 224.4,284.9 225.4,284.9 226.3,284.9 227.2,284.9 228.1,284.9 228.9,284.9 229.8,284.9 230.6,284.9 231.4,284.9 233.0,284.9 234.5,284.9 236.0,284.9 237.4,284.9 238.8,284.9 240.1,284.9 241.4,284.9 242.7,284.9 243.9,284.9 245.1,284.9 246.2,284.9 247.4,284.9 248.5,284.9 249.5,284.9 250.6,284.9 251.6,284.9 252.6,284.9 253.6,284.9 254.5,284.9 255.5,284.9 256.4,284.9 257.3,284.9 258.1,284.9 259.0,284.9 259.8,284.9 260.7,284.9 261.5,284.9 262.7,284.9 263.8,284.9 265.0,284.9 266.1,284.9 267.1,284.9 268.2,284.9 269.2,284.9 270.2,284.9 271.2,284.9 272.1,284.9 273.1,284.9 274.0,284.9 274.9,284.9 275.7,284.9 276.6,284.9 277.5,284.9 278.3,284.9 279.1,284.9 280.1,284.9 281.2,284.9 282.2,284.9 283.2,284.9 284.1,284.9 285.1,284.9 286.0,284.9 286.9,284.9 287.8,284.9 288.7,284.9 289.5,284.9 290.4,284.9 291.2,284.9 292.0,284.9 293.0,284.9 293.9,284.9 294.9,284.9 295.8,284.9 296.7,284.9 297.6,284.9 298.4,284.9 299.3,284.9 300.1,284.9 300.9,284.9 301.7,284.9 302.7,284.9 303.6,284.9 304.5,284.9 305.4,284.9 306.3,284.9 307.1,284.9 308.0,284.9 308.8,284.9 309.6,284.9 310.5,284.9 311.4,284.9 312.3,284.9 313.2,284.9 314.0,284.9 314.8,284.9 315.6,284.9 316.4,284.9 317.3,284.9 318.2,284.9 319.1,284.9 319.9,284.9 320.8,284.9 321.6,284.9 322.5,284.9 323.3,284.9 324.2,284.9 325.1,284.9 325.9,284.9 326.7,284.9 327.6,285.0 328.5,285.0 329.3,285.0 330.1,285.0 331.0,285.0 331.8,285.0 332.6,285.0 333.5,285.0 334.3,285.0 335.1,285.0 335.9,285.0 336.8,285.1 337.6,285.1 338.5,285.1 339.3,285.1 340.1,285.1 341.0,285.1 341.8,285.1 342.6,285.1 343.5,285.1 344.3,285.1 345.2,285.1 346.0,285.1 346.8,285.1 347.7,285.1 348.5,285.1 349.3,285.1 350.1,285.1 351.0,285.1 351.8,285.1 352.6,285.1 353.4,285.0 354.3,285.0 355.1,285.0 355.9,285.0 356.7,285.0 357.6,285.0 358.4,285.0 359.2,285.0 360.1,285.0 360.9,285.0 361.7,285.0 362.5,285.0 363.3,285.0 364.1,285.0 365.0,285.0 365.8,285.0 366.6,285.0 367.4,285.0 368.3,285.0 369.1,285.0 369.9,285.0 370.7,285.0 371.5,285.0 372.3,285.0 373.1,285.0 373.9,285.0 374.8,285.0 375.6,285.0 376.4,285.0 377.2,285.0 378.0,285.0 378.8,285.0 379.6,285.0 380.4,285.0 381.3,285.0 382.1,285.0 382.9,285.1 383.7,285.1 384.5,285.1" fill="none" stroke="#2ecc71" stroke-width="1.5" stroke-linejoin="round" clip-path="url(#pc285)"/>
  <line x1="445" y1="210" x2="445" y2="360" stroke="#d1d5db"/>
  <line x1="445" y1="285.0" x2="775" y2="285.0" stroke="#d1d5db"/>
  <text x="610" y="388" text-anchor="middle" font-size="9" fill="#6b7280">Samples</text>
  <text x="419" y="285" text-anchor="middle" font-size="9" fill="#6b7280" transform="rotate(-90 419 285)">Impulse response</text>
  <line x1="445.0" y1="210" x2="445.0" y2="360" stroke="#e5e7eb" stroke-width="0.5"/>
  <text x="445.0" y="372" text-anchor="middle" font-size="8" fill="#6b7280">0</text>
  <line x1="527.5" y1="210" x2="527.5" y2="360" stroke="#e5e7eb" stroke-width="0.5"/>
  <text x="527.5" y="372" text-anchor="middle" font-size="8" fill="#6b7280">32</text>
  <line x1="610.0" y1="210" x2="610.0" y2="360" stroke="#e5e7eb" stroke-width="0.5"/>
  <text x="610.0" y="372" text-anchor="middle" font-size="8" fill="#6b7280">64</text>
  <line x1="692.5" y1="210" x2="692.5" y2="360" stroke="#e5e7eb" stroke-width="0.5"/>
  <text x="692.5" y="372" text-anchor="middle" font-size="8" fill="#6b7280">96</text>
  <line x1="775.0" y1="210" x2="775.0" y2="360" stroke="#e5e7eb" stroke-width="0.5"/>
  <text x="775.0" y="372" text-anchor="middle" font-size="8" fill="#6b7280">128</text>
  <line x1="445" y1="349.5" x2="775" y2="349.5" stroke="#e5e7eb" stroke-width="0.5"/>
  <text x="441" y="352.5" text-anchor="end" font-size="8" fill="#6b7280">-2</text>
  <text x="441" y="288.0" text-anchor="end" font-size="8" fill="#6b7280">0</text>
  <line x1="445" y1="220.5" x2="775" y2="220.5" stroke="#e5e7eb" stroke-width="0.5"/>
  <text x="441" y="223.5" text-anchor="end" font-size="8" fill="#6b7280">2</text>
  <defs><linearGradient id="g286" x1="0" y1="210" x2="0" y2="285.0" gradientUnits="userSpaceOnUse">
    <stop offset="0%" stop-color="#f39c12" stop-opacity="0.15"/>
    <stop offset="100%" stop-color="#f39c12" stop-opacity="0.02"/>
  </linearGradient></defs>
  <defs><linearGradient id="g287" x1="0" y1="360" x2="0" y2="285.0" gradientUnits="userSpaceOnUse">
    <stop offset="0%" stop-color="#f39c12" stop-opacity="0.15"/>
    <stop offset="100%" stop-color="#f39c12" stop-opacity="0.02"/>
  </linearGradient></defs>
  <defs><clipPath id="c288"><rect x="445" y="210" width="330" height="75.0"/></clipPath></defs>
  <defs><clipPath id="c289"><rect x="445" y="285.0" width="330" height="75.0"/></clipPath></defs>
  <path d="M445.0,210.0 445.0,210.0 447.6,228.7 450.2,318.3 452.7,323.5 455.3,328.1 457.9,296.5 460.5,279.2 463.0,269.0 465.6,272.0 468.2,281.7 470.8,287.5 473.4,292.3 475.9,289.0 478.5,287.7 481.1,283.3 483.7,283.9 486.3,283.0 488.8,285.3 491.4,285.2 494.0,286.3 496.6,285.5 499.1,285.6 501.7,284.8 504.3,285.0 506.9,284.9 509.5,285.2 512.0,285.2 514.6,285.3 517.2,285.2 519.8,285.2 522.3,285.1 524.9,285.1 527.5,285.1 530.1,285.1 532.7,285.1 535.2,285.1 537.8,285.1 540.4,285.1 543.0,285.1 545.5,285.1 548.1,285.1 550.7,285.1 553.3,285.1 555.9,285.1 558.4,285.1 561.0,285.1 563.6,285.1 566.2,285.1 568.8,285.1 571.3,285.1 573.9,285.1 576.5,285.1 579.1,285.1 581.6,285.1 584.2,285.1 586.8,285.1 589.4,285.1 592.0,285.1 594.5,285.1 597.1,285.1 599.7,285.1 602.3,285.1 604.8,285.1 607.4,285.1 610.0,285.1 612.6,285.1 615.2,285.1 617.7,285.1 620.3,285.1 622.9,285.1 625.5,285.1 628.0,285.1 630.6,285.1 633.2,285.1 635.8,285.1 638.4,285.1 640.9,285.1 643.5,285.1 646.1,285.1 648.7,285.1 651.3,285.1 653.8,285.1 656.4,285.1 659.0,285.1 661.6,285.1 664.1,285.1 666.7,285.1 669.3,285.1 671.9,285.1 674.5,285.1 677.0,285.1 679.6,285.1 682.2,285.1 684.8,285.1 687.3,285.1 689.9,285.1 692.5,285.1 695.1,285.1 697.7,285.1 700.2,285.1 702.8,285.1 705.4,285.1 708.0,285.1 710.5,285.1 713.1,285.1 715.7,285.1 718.3,285.1 720.9,285.1 723.4,285.1 726.0,285.1 728.6,285.1 731.2,285.1 733.8,285.1 736.3,285.1 738.9,285.1 741.5,285.1 744.1,285.1 746.6,285.1 749.2,285.1 751.8,285.1 754.4,285.1 757.0,285.1 759.5,285.1 762.1,285.1 764.7,285.1 767.3,285.1 769.8,285.1 772.4,285.1 L772.4,285.0 L445.0,285.0 Z" fill="url(#g286)" clip-path="url(#c288)"/>
  <path d="M445.0,210.0 445.0,210.0 447.6,228.7 450.2,318.3 452.7,323.5 455.3,328.1 457.9,296.5 460.5,279.2 463.0,269.0 465.6,272.0 468.2,281.7 470.8,287.5 473.4,292.3 475.9,289.0 478.5,287.7 481.1,283.3 483.7,283.9 486.3,283.0 488.8,285.3 491.4,285.2 494.0,286.3 496.6,285.5 499.1,285.6 501.7,284.8 504.3,285.0 506.9,284.9 509.5,285.2 512.0,285.2 514.6,285.3 517.2,285.2 519.8,285.2 522.3,285.1 524.9,285.1 527.5,285.1 530.1,285.1 532.7,285.1 535.2,285.1 537.8,285.1 540.4,285.1 543.0,285.1 545.5,285.1 548.1,285.1 550.7,285.1 553.3,285.1 555.9,285.1 558.4,285.1 561.0,285.1 563.6,285.1 566.2,285.1 568.8,285.1 571.3,285.1 573.9,285.1 576.5,285.1 579.1,285.1 581.6,285.1 584.2,285.1 586.8,285.1 589.4,285.1 592.0,285.1 594.5,285.1 597.1,285.1 599.7,285.1 602.3,285.1 604.8,285.1 607.4,285.1 610.0,285.1 612.6,285.1 615.2,285.1 617.7,285.1 620.3,285.1 622.9,285.1 625.5,285.1 628.0,285.1 630.6,285.1 633.2,285.1 635.8,285.1 638.4,285.1 640.9,285.1 643.5,285.1 646.1,285.1 648.7,285.1 651.3,285.1 653.8,285.1 656.4,285.1 659.0,285.1 661.6,285.1 664.1,285.1 666.7,285.1 669.3,285.1 671.9,285.1 674.5,285.1 677.0,285.1 679.6,285.1 682.2,285.1 684.8,285.1 687.3,285.1 689.9,285.1 692.5,285.1 695.1,285.1 697.7,285.1 700.2,285.1 702.8,285.1 705.4,285.1 708.0,285.1 710.5,285.1 713.1,285.1 715.7,285.1 718.3,285.1 720.9,285.1 723.4,285.1 726.0,285.1 728.6,285.1 731.2,285.1 733.8,285.1 736.3,285.1 738.9,285.1 741.5,285.1 744.1,285.1 746.6,285.1 749.2,285.1 751.8,285.1 754.4,285.1 757.0,285.1 759.5,285.1 762.1,285.1 764.7,285.1 767.3,285.1 769.8,285.1 772.4,285.1 L772.4,285.0 L445.0,285.0 Z" fill="url(#g287)" clip-path="url(#c289)"/>
  <defs><clipPath id="pc290"><rect x="445" y="210" width="330" height="150"/></clipPath></defs>
  <polyline points="445.0,210.0 447.6,228.7 450.2,318.3 452.7,323.5 455.3,328.1 457.9,296.5 460.5,279.2 463.0,269.0 465.6,272.0 468.2,281.7 470.8,287.5 473.4,292.3 475.9,289.0 478.5,287.7 481.1,283.3 483.7,283.9 486.3,283.0 488.8,285.3 491.4,285.2 494.0,286.3 496.6,285.5 499.1,285.6 501.7,284.8 504.3,285.0 506.9,284.9 509.5,285.2 512.0,285.2 514.6,285.3 517.2,285.2 519.8,285.2 522.3,285.1 524.9,285.1 527.5,285.1 530.1,285.1 532.7,285.1 535.2,285.1 537.8,285.1 540.4,285.1 543.0,285.1 545.5,285.1 548.1,285.1 550.7,285.1 553.3,285.1 555.9,285.1 558.4,285.1 561.0,285.1 563.6,285.1 566.2,285.1 568.8,285.1 571.3,285.1 573.9,285.1 576.5,285.1 579.1,285.1 581.6,285.1 584.2,285.1 586.8,285.1 589.4,285.1 592.0,285.1 594.5,285.1 597.1,285.1 599.7,285.1 602.3,285.1 604.8,285.1 607.4,285.1 610.0,285.1 612.6,285.1 615.2,285.1 617.7,285.1 620.3,285.1 622.9,285.1 625.5,285.1 628.0,285.1 630.6,285.1 633.2,285.1 635.8,285.1 638.4,285.1 640.9,285.1 643.5,285.1 646.1,285.1 648.7,285.1 651.3,285.1 653.8,285.1 656.4,285.1 659.0,285.1 661.6,285.1 664.1,285.1 666.7,285.1 669.3,285.1 671.9,285.1 674.5,285.1 677.0,285.1 679.6,285.1 682.2,285.1 684.8,285.1 687.3,285.1 689.9,285.1 692.5,285.1 695.1,285.1 697.7,285.1 700.2,285.1 702.8,285.1 705.4,285.1 708.0,285.1 710.5,285.1 713.1,285.1 715.7,285.1 718.3,285.1 720.9,285.1 723.4,285.1 726.0,285.1 728.6,285.1 731.2,285.1 733.8,285.1 736.3,285.1 738.9,285.1 741.5,285.1 744.1,285.1 746.6,285.1 749.2,285.1 751.8,285.1 754.4,285.1 757.0,285.1 759.5,285.1 762.1,285.1 764.7,285.1 767.3,285.1 769.8,285.1 772.4,285.1" fill="none" stroke="#f39c12" stroke-width="1.3" stroke-linejoin="round" clip-path="url(#pc290)"/>
</svg>
