<svg xmlns="http://www.w3.org/2000/svg" viewBox="0 0 800 240" style="font-family:system-ui,-apple-system,sans-serif">
  <line x1="55" y1="12" x2="55" y2="192" stroke="#d1d5db"/>
  <line x1="55" y1="192" x2="755" y2="192" stroke="#d1d5db"/>
  <text x="405" y="222" text-anchor="middle" font-size="10" fill="#6b7280">Frequency (Hz)</text>
  <text x="17" y="102" text-anchor="middle" font-size="10" fill="#6b7280" transform="rotate(-90 17 102)">Magnitude (dB)</text>
  <line x1="99.4" y1="12" x2="99.4" y2="192" stroke="#e5e7eb" stroke-width="0.5"/>
  <text x="99.4" y="205" text-anchor="middle" font-size="9" fill="#6b7280">31</text>
  <line x1="169.7" y1="12" x2="169.7" y2="192" stroke="#e5e7eb" stroke-width="0.5"/>
  <text x="169.7" y="205" text-anchor="middle" font-size="9" fill="#6b7280">62</text>
  <line x1="240.7" y1="12" x2="240.7" y2="192" stroke="#e5e7eb" stroke-width="0.5"/>
  <text x="240.7" y="205" text-anchor="middle" font-size="9" fill="#6b7280">125</text>
  <line x1="310.9" y1="12" x2="310.9" y2="192" stroke="#e5e7eb" stroke-width="0.5"/>
  <text x="310.9" y="205" text-anchor="middle" font-size="9" fill="#6b7280">250</text>
  <line x1="381.2" y1="12" x2="381.2" y2="192" stroke="#e5e7eb" stroke-width="0.5"/>
  <text x="381.2" y="205" text-anchor="middle" font-size="9" fill="#6b7280">500</text>
  <line x1="451.4" y1="12" x2="451.4" y2="192" stroke="#e5e7eb" stroke-width="0.5"/>
  <text x="451.4" y="205" text-anchor="middle" font-size="9" fill="#6b7280">1k</text>
  <line x1="521.7" y1="12" x2="521.7" y2="192" stroke="#e5e7eb" stroke-width="0.5"/>
  <text x="521.7" y="205" text-anchor="middle" font-size="9" fill="#6b7280">2k</text>
  <line x1="591.9" y1="12" x2="591.9" y2="192" stroke="#e5e7eb" stroke-width="0.5"/>
  <text x="591.9" y="205" text-anchor="middle" font-size="9" fill="#6b7280">4k</text>
  <line x1="662.1" y1="12" x2="662.1" y2="192" stroke="#e5e7eb" stroke-width="0.5"/>
  <text x="662.1" y="205" text-anchor="middle" font-size="9" fill="#6b7280">8k</text>
  <line x1="732.4" y1="12" x2="732.4" y2="192" stroke="#e5e7eb" stroke-width="0.5"/>
  <text x="732.4" y="205" text-anchor="middle" font-size="9" fill="#6b7280">16k</text>
  <line x1="55" y1="22.6" x2="755" y2="22.6" stroke="#e5e7eb" stroke-width="0.5"/>
  <text x="51" y="25.6" text-anchor="end" font-size="9" fill="#6b7280">0</text>
  <line x1="55" y1="64.9" x2="755" y2="64.9" stroke="#e5e7eb" stroke-width="0.5"/>
  <text x="51" y="67.9" text-anchor="end" font-size="9" fill="#6b7280">-20</text>
  <line x1="55" y1="107.3" x2="755" y2="107.3" stroke="#e5e7eb" stroke-width="0.5"/>
  <text x="51" y="110.3" text-anchor="end" font-size="9" fill="#6b7280">-40</text>
  <line x1="55" y1="149.6" x2="755" y2="149.6" stroke="#e5e7eb" stroke-width="0.5"/>
  <text x="51" y="152.6" text-anchor="end" font-size="9" fill="#6b7280">-60</text>
  <line x1="55" y1="192.0" x2="755" y2="192.0" stroke="#e5e7eb" stroke-width="0.5"/>
  <text x="51" y="195.0" text-anchor="end" font-size="9" fill="#6b7280">-80</text>
  <polyline points="132.7,31.8 203.0,25.3 244.1,23.8 273.2,23.2 295.8,23.0 314.3,22.8 329.9,22.7 343.4,22.7 355.4,22.6 366.1,22.5 375.7,22.5 384.5,22.4 392.6,22.3 400.2,22.3 407.1,22.2 413.7,22.0 419.8,21.9 425.6,21.8 431.1,21.6 436.3,21.4 441.2,21.2 446.0,21.0 450.5,20.7 454.8,20.5 458.9,20.2 462.9,19.9 466.7,19.7 470.4,19.4 474.0,19.1 477.4,18.8 480.7,18.5 483.9,18.3 487.0,18.0 490.1,17.8 493.0,17.5 495.9,17.3 498.6,17.1 501.3,16.9 504.0,16.7 506.5,16.5 509.0,16.3 511.5,16.2 513.9,16.0 516.2,15.9 518.5,15.8 520.7,15.7 522.9,15.5 525.0,15.4 527.1,15.3 529.2,15.3 531.2,15.2 533.1,15.1 535.1,15.0 537.0,15.0 538.8,14.9 540.6,14.8 542.4,14.8 544.2,14.7 545.9,14.7 547.6,14.7 549.3,14.6 551.0,14.6 552.6,14.6 554.2,14.5 555.7,14.5 557.3,14.5 558.8,14.4 560.3,14.4 561.8,14.4 563.2,14.4 564.7,14.4 566.1,14.3 567.5,14.3 568.9,14.3 570.2,14.3 571.6,14.3 572.9,14.3 574.2,14.3 575.5,14.2 576.8,14.2 578.0,14.2 579.3,14.2 580.5,14.2 581.7,14.2 582.9,14.2 584.1,14.2 585.3,14.2 586.4,14.2 587.6,14.2 588.7,14.2 589.8,14.1 590.9,14.1 592.0,14.1 593.1,14.1 594.2,14.1 595.3,14.1 596.3,14.1 597.3,14.1 598.4,14.1 599.4,14.1 600.4,14.1 601.4,14.1 602.4,14.1 603.4,14.1 604.3,14.1 605.3,14.1 606.2,14.1 607.2,14.1 608.1,14.1 609.1,14.1 610.0,14.1 610.9,14.1 611.8,14.1 612.7,14.1 613.6,14.1 614.4,14.1 615.3,14.1 616.2,14.1 617.0,14.1 617.9,14.1 618.7,14.1 619.5,14.1 620.4,14.1 621.2,14.1 622.0,14.1 622.8,14.1 623.6,14.1 624.4,14.1 625.2,14.1 626.0,14.1 626.8,14.1 627.5,14.1 628.3,14.1 629.0,14.0 629.8,14.0 630.6,14.0 631.3,14.0 632.0,14.0 632.8,14.0 633.5,14.0 634.2,14.0 634.9,14.0 635.6,14.0 636.3,14.0 637.0,14.0 637.7,14.0 638.4,14.0 639.1,14.0 639.8,14.0 640.5,14.0 641.2,14.0 641.8,14.0 642.5,14.0 643.1,14.0 643.8,14.0 644.5,14.0 645.1,14.0 645.7,14.0 646.4,14.0 647.0,14.0 647.7,14.0 648.3,14.0 648.9,14.0 649.5,14.0 650.1,14.0 650.8,14.0 651.4,14.0 652.0,14.0 652.6,14.0 653.2,14.0 653.8,14.0 654.3,14.0 654.9,14.0 655.5,14.0 656.1,14.0 656.7,14.0 657.3,14.0 657.8,14.0 658.4,14.0 659.0,14.0 659.5,14.0 660.1,14.0 660.6,14.0 661.2,14.0 661.7,14.0 662.3,14.0 662.8,14.0 663.4,14.0 663.9,14.0 664.4,14.0 665.0,14.0 665.5,14.0 666.0,14.0 666.5,14.0 667.1,14.0 667.6,14.0 668.1,14.0 668.6,14.0 669.1,14.0 669.6,14.0 670.1,14.0 670.6,14.0 671.1,14.0 671.6,14.0 672.1,14.0 672.6,14.0 673.1,14.0 673.6,14.0 674.1,14.0 674.6,14.0 675.1,14.0 675.5,14.0 676.0,14.0 676.5,14.0 677.0,14.0 677.4,14.0 677.9,14.0 678.4,14.0 678.8,14.0 679.3,14.0 679.8,14.0 680.2,14.0 680.7,14.0 681.1,14.0 681.6,14.0 682.0,14.0 682.5,14.0 682.9,14.0 683.4,14.0 683.8,14.0 684.2,14.0 684.7,14.0 685.1,14.0 685.5,14.0 686.0,14.0 686.4,14.0 686.8,14.0 687.3,14.0 687.7,14.0 688.1,14.0 688.5,14.0 688.9,14.0 689.4,14.0 689.8,14.0 690.2,14.0 690.6,14.0 691.0,14.0 691.4,14.0 691.8,14.0 692.2,14.0 692.6,14.0 693.1,14.0 693.5,14.0 693.9,14.0 694.3,14.0 694.6,14.0 695.0,14.0 695.4,14.0 695.8,14.0 696.2,14.0 696.6,14.0 697.0,14.0 697.4,14.0 697.8,14.0 698.1,14.0 698.5,14.0 698.9,14.0 699.3,14.0 699.7,14.0 700.0,14.0 700.4,14.0 700.8,14.0 701.2,14.0 701.5,14.0 701.9,14.0 702.3,14.0 702.6,14.0 703.0,14.0 703.4,14.0 703.7,14.0 704.1,14.0 704.5,14.0 704.8,14.0 705.2,14.0 705.5,14.0 705.9,14.0 706.2,14.0 706.6,14.0 706.9,14.0 707.3,14.0 707.6,14.0 708.0,14.0 708.3,14.0 708.7,14.0 709.0,14.0 709.4,14.0 709.7,14.0 710.0,14.0 710.4,14.0 710.7,14.0 711.1,14.0 711.4,14.0 711.7,14.0 712.1,14.0 712.4,14.0 712.7,14.0 713.1,14.0 713.4,14.0 713.7,14.0 714.0,14.0 714.4,14.0 714.7,14.0 715.0,14.0 715.3,14.0 715.7,14.0 716.0,14.0 716.3,14.0 716.6,14.0 716.9,14.0 717.3,14.0 717.6,14.0 717.9,14.0 718.2,14.0 718.5,14.0 718.8,14.0 719.1,14.0 719.5,14.0 719.8,14.0 720.1,14.0 720.4,14.0 720.7,14.0 721.0,14.0 721.3,14.0 721.6,14.0 721.9,14.0 722.2,14.0 722.5,14.0 722.8,14.0 723.1,14.0 723.4,14.0 723.7,14.0 724.0,14.0 724.3,14.0 724.6,14.0 724.9,14.0 725.2,14.0 725.5,14.0 725.8,14.0 726.1,14.0 726.3,14.0 726.6,14.0 726.9,14.0 727.2,14.0 727.5,14.0 727.8,14.0 728.1,14.0 728.3,14.0 728.6,14.0 728.9,14.0 729.2,14.0 729.5,14.0 729.8,14.0 730.0,14.0 730.3,14.0 730.6,14.0 730.9,14.0 731.1,14.0 731.4,14.0 731.7,14.0 732.0,14.0 732.2,14.0 732.5,14.0 732.8,14.0 733.1,14.0 733.3,14.0 733.6,14.0 733.9,14.0 734.1,14.0 734.4,14.0 734.7,14.0 734.9,14.0 735.2,14.0 735.5,14.0 735.7,14.0 736.0,14.0 736.3,14.0 736.5,14.0 736.8,14.0 737.0,14.0 737.3,14.0 737.6,14.0 737.8,14.0 738.1,14.0 738.3,14.0 738.6,14.0 738.9,14.0 739.1,14.0 739.4,14.0 739.6,14.0 739.9,14.0 740.1,14.0 740.4,14.0 740.6,14.0 740.9,14.0 741.1,14.0 741.4,14.0 741.6,14.0 741.9,14.0 742.1,14.0 742.4,14.0 742.6,14.0 742.9,14.0 743.1,14.0 743.4,14.0 743.6,14.0 743.8,14.0 744.1,14.0 744.3,14.0 744.6,14.0 744.8,14.0 745.1,14.0 745.3,14.0 745.5,14.0 745.8,14.0 746.0,14.0 746.3,14.0 746.5,14.0 746.7,14.0 747.0,14.0 747.2,14.0 747.4,14.0 747.7,14.0 747.9,14.0 748.1,14.0 748.4,14.0 748.6,14.0 748.8,14.0 749.1,14.0 749.3,14.0 749.5,14.0 749.8,14.0 750.0,14.0 750.2,14.0 750.4,14.0 750.7,14.0 750.9,14.0 751.1,14.0 751.4,14.0 751.6,14.0 751.8,14.0 752.0,14.0 752.3,14.0 752.5,14.0 752.7,14.0 752.9,14.0 753.2,14.0 753.4,14.0 753.6,14.0 753.8,14.0 754.0,14.0 754.3,14.0 754.5,14.0 754.7,14.0 754.9,14.0" fill="none" stroke="#4a90d9" stroke-width="1.8" stroke-linejoin="round"/>
  <text x="55" y="240" font-size="12" font-weight="600" fill="#6b7280">K-weighting (ITU-R BS.1770)</text>
  <rect x="529" y="19" width="202" height="102" fill="white" fill-opacity="0.85" rx="3"/>
  <text x="532" y="30" font-size="8" fill="#6b7280">Impulse response</text>
  <polyline points="530.0,20.0 531.6,73.6 533.1,73.4 534.7,73.0 536.3,72.7 537.8,72.3 539.4,72.0 540.9,71.6 542.5,71.3 544.1,71.1 545.6,70.9 547.2,70.7 548.8,70.5 550.3,70.4 551.9,70.3 553.4,70.2 555.0,70.2 556.6,70.1 558.1,70.1 559.7,70.1 561.3,70.1 562.8,70.1 564.4,70.1 565.9,70.2 567.5,70.2 569.1,70.2 570.6,70.2 572.2,70.2 573.8,70.2 575.3,70.2 576.9,70.2 578.4,70.2 580.0,70.2 581.6,70.2 583.1,70.2 584.7,70.2 586.3,70.2 587.8,70.2 589.4,70.2 590.9,70.2 592.5,70.2 594.1,70.2 595.6,70.2 597.2,70.2 598.8,70.2 600.3,70.2 601.9,70.2 603.4,70.2 605.0,70.2 606.6,70.2 608.1,70.2 609.7,70.2 611.3,70.2 612.8,70.2 614.4,70.2 615.9,70.2 617.5,70.2 619.1,70.2 620.6,70.2 622.2,70.2 623.8,70.2 625.3,70.2 626.9,70.2 628.4,70.2 630.0,70.2 631.6,70.2 633.1,70.2 634.7,70.2 636.3,70.2 637.8,70.2 639.4,70.2 640.9,70.2 642.5,70.2 644.1,70.2 645.6,70.2 647.2,70.2 648.8,70.2 650.3,70.2 651.9,70.2 653.4,70.2 655.0,70.2 656.6,70.2 658.1,70.2 659.7,70.2 661.3,70.2 662.8,70.2 664.4,70.2 665.9,70.2 667.5,70.2 669.1,70.2 670.6,70.2 672.2,70.2 673.8,70.2 675.3,70.2 676.9,70.2 678.4,70.2 680.0,70.2 681.6,70.2 683.1,70.1 684.7,70.1 686.3,70.1 687.8,70.1 689.4,70.1 690.9,70.1 692.5,70.1 694.1,70.1 695.6,70.1 697.2,70.1 698.8,70.1 700.3,70.1 701.9,70.1 703.4,70.1 705.0,70.1 706.6,70.1 708.1,70.1 709.7,70.1 711.3,70.1 712.8,70.1 714.4,70.1 715.9,70.1 717.5,70.1 719.1,70.1 720.6,70.1 722.2,70.1 723.8,70.1 725.3,70.1 726.9,70.1 728.4,70.1" fill="none" stroke="#4a90d9" stroke-width="1.3" stroke-linejoin="round"/>
</svg>
