<svg xmlns="http://www.w3.org/2000/svg" viewBox="0 0 800 420" style="font-family:system-ui,-apple-system,sans-serif">
  <text x="55" y="416" font-size="11" font-weight="600" fill="#6b7280">Korg35 ZDF, fc=1kHz, res=0.3</text>
  <line x1="55" y1="12" x2="55" y2="162" stroke="#d1d5db"/>
  <line x1="55" y1="42.0" x2="385" y2="42.0" stroke="#d1d5db"/>
  <text x="220" y="190" text-anchor="middle" font-size="9" fill="#6b7280">Hz</text>
  <text x="29" y="87" text-anchor="middle" font-size="9" fill="#6b7280" transform="rotate(-90 29 87)">dB</text>
  <line x1="85.1" y1="12" x2="85.1" y2="162" stroke="#e5e7eb" stroke-width="0.5"/>
  <line x1="102.7" y1="12" x2="102.7" y2="162" stroke="#e5e7eb" stroke-width="0.5"/>
  <line x1="115.2" y1="12" x2="115.2" y2="162" stroke="#e5e7eb" stroke-width="0.5"/>
  <line x1="124.9" y1="12" x2="124.9" y2="162" stroke="#e5e7eb" stroke-width="0.5"/>
  <line x1="132.8" y1="12" x2="132.8" y2="162" stroke="#e5e7eb" stroke-width="0.5"/>
  <line x1="139.5" y1="12" x2="139.5" y2="162" stroke="#e5e7eb" stroke-width="0.5"/>
  <line x1="145.3" y1="12" x2="145.3" y2="162" stroke="#e5e7eb" stroke-width="0.5"/>
  <line x1="150.4" y1="12" x2="150.4" y2="162" stroke="#e5e7eb" stroke-width="0.5"/>
  <line x1="185.1" y1="12" x2="185.1" y2="162" stroke="#e5e7eb" stroke-width="0.5"/>
  <line x1="202.7" y1="12" x2="202.7" y2="162" stroke="#e5e7eb" stroke-width="0.5"/>
  <line x1="215.2" y1="12" x2="215.2" y2="162" stroke="#e5e7eb" stroke-width="0.5"/>
  <line x1="224.8" y1="12" x2="224.8" y2="162" stroke="#e5e7eb" stroke-width="0.5"/>
  <line x1="232.8" y1="12" x2="232.8" y2="162" stroke="#e5e7eb" stroke-width="0.5"/>
  <line x1="239.5" y1="12" x2="239.5" y2="162" stroke="#e5e7eb" stroke-width="0.5"/>
  <line x1="245.2" y1="12" x2="245.2" y2="162" stroke="#e5e7eb" stroke-width="0.5"/>
  <line x1="250.4" y1="12" x2="250.4" y2="162" stroke="#e5e7eb" stroke-width="0.5"/>
  <line x1="285.0" y1="12" x2="285.0" y2="162" stroke="#e5e7eb" stroke-width="0.5"/>
  <line x1="302.6" y1="12" x2="302.6" y2="162" stroke="#e5e7eb" stroke-width="0.5"/>
  <line x1="315.1" y1="12" x2="315.1" y2="162" stroke="#e5e7eb" stroke-width="0.5"/>
  <line x1="324.8" y1="12" x2="324.8" y2="162" stroke="#e5e7eb" stroke-width="0.5"/>
  <line x1="332.7" y1="12" x2="332.7" y2="162" stroke="#e5e7eb" stroke-width="0.5"/>
  <line x1="339.4" y1="12" x2="339.4" y2="162" stroke="#e5e7eb" stroke-width="0.5"/>
  <line x1="345.2" y1="12" x2="345.2" y2="162" stroke="#e5e7eb" stroke-width="0.5"/>
  <line x1="350.3" y1="12" x2="350.3" y2="162" stroke="#e5e7eb" stroke-width="0.5"/>
  <line x1="385.0" y1="12" x2="385.0" y2="162" stroke="#e5e7eb" stroke-width="0.5"/>
  <line x1="155.0" y1="12" x2="155.0" y2="162" stroke="#e5e7eb" stroke-width="0.5"/>
  <text x="155.0" y="174" text-anchor="middle" font-size="8" fill="#6b7280">100</text>
  <line x1="254.9" y1="12" x2="254.9" y2="162" stroke="#e5e7eb" stroke-width="0.5"/>
  <text x="254.9" y="174" text-anchor="middle" font-size="8" fill="#6b7280">1k</text>
  <line x1="354.9" y1="12" x2="354.9" y2="162" stroke="#e5e7eb" stroke-width="0.5"/>
  <text x="354.9" y="174" text-anchor="middle" font-size="8" fill="#6b7280">10k</text>
  <line x1="55" y1="27.0" x2="385" y2="27.0" stroke="#e5e7eb" stroke-width="0.5"/>
  <line x1="55" y1="57.0" x2="385" y2="57.0" stroke="#e5e7eb" stroke-width="0.5"/>
  <line x1="55" y1="12.0" x2="385" y2="12.0" stroke="#e5e7eb" stroke-width="0.5"/>
  <text x="51" y="15.0" text-anchor="end" font-size="8" fill="#6b7280">+20</text>
  <text x="51" y="45.0" text-anchor="end" font-size="8" fill="#6b7280">0</text>
  <line x1="55" y1="72.0" x2="385" y2="72.0" stroke="#e5e7eb" stroke-width="0.5"/>
  <text x="51" y="75.0" text-anchor="end" font-size="8" fill="#6b7280">-20</text>
  <line x1="55" y1="102.0" x2="385" y2="102.0" stroke="#e5e7eb" stroke-width="0.5"/>
  <text x="51" y="105.0" text-anchor="end" font-size="8" fill="#6b7280">-40</text>
  <line x1="55" y1="132.0" x2="385" y2="132.0" stroke="#e5e7eb" stroke-width="0.5"/>
  <text x="51" y="135.0" text-anchor="end" font-size="8" fill="#6b7280">-60</text>
  <line x1="55" y1="162.0" x2="385" y2="162.0" stroke="#e5e7eb" stroke-width="0.5"/>
  <text x="51" y="165.0" text-anchor="end" font-size="8" fill="#6b7280">-80</text>
  <defs><linearGradient id="g521" x1="0" y1="12" x2="0" y2="162" gradientUnits="userSpaceOnUse">
    <stop offset="0%" stop-color="#4a90d9" stop-opacity="0.15"/>
    <stop offset="100%" stop-color="#4a90d9" stop-opacity="0.02"/>
  </linearGradient></defs>
  <path d="M58.2,52.0 58.2,52.0 88.3,52.0 105.9,52.0 118.4,52.0 128.1,52.0 136.0,52.0 142.7,52.0 148.5,52.0 153.6,52.0 158.2,52.0 162.3,52.0 166.1,52.0 169.6,52.0 172.8,52.0 175.8,52.0 178.6,52.1 181.2,52.1 183.7,52.1 186.0,52.1 188.3,52.1 190.4,52.1 192.4,52.1 194.3,52.1 196.2,52.1 198.0,52.1 199.7,52.1 201.3,52.2 202.9,52.2 204.4,52.2 205.9,52.2 207.3,52.2 208.7,52.2 210.0,52.2 211.3,52.3 212.6,52.3 213.8,52.3 215.0,52.3 216.1,52.3 217.3,52.4 218.4,52.4 219.4,52.4 220.5,52.4 221.5,52.5 222.5,52.5 223.5,52.5 224.4,52.5 225.4,52.6 226.3,52.6 227.2,52.6 228.1,52.7 228.9,52.7 229.8,52.7 230.6,52.8 231.4,52.8 233.0,52.9 234.5,53.0 236.0,53.0 237.4,53.1 238.8,53.2 240.1,53.3 241.4,53.4 242.7,53.6 243.9,53.7 245.1,53.8 246.2,53.9 247.4,54.1 248.5,54.2 249.5,54.3 250.6,54.5 251.6,54.6 252.6,54.8 253.6,55.0 254.5,55.1 255.5,55.3 256.4,55.5 257.3,55.7 258.1,55.8 259.0,56.0 259.8,56.2 260.7,56.4 261.5,56.6 262.7,56.9 263.8,57.3 265.0,57.6 266.1,57.9 267.1,58.2 268.2,58.6 269.2,58.9 270.2,59.3 271.2,59.6 272.1,60.0 273.1,60.3 274.0,60.7 274.9,61.1 275.7,61.4 276.6,61.8 277.5,62.1 278.3,62.5 279.1,62.8 280.1,63.3 281.2,63.8 282.2,64.3 283.2,64.7 284.1,65.2 285.1,65.7 286.0,66.1 286.9,66.6 287.8,67.0 288.7,67.5 289.5,67.9 290.4,68.4 291.2,68.8 292.0,69.2 293.0,69.8 293.9,70.3 294.9,70.8 295.8,71.3 296.7,71.8 297.6,72.3 298.4,72.8 299.3,73.3 300.1,73.7 300.9,74.2 301.7,74.7 302.7,75.2 303.6,75.8 304.5,76.3 305.4,76.8 306.3,77.3 307.1,77.8 308.0,78.3 308.8,78.8 309.6,79.3 310.5,79.8 311.4,80.4 312.3,80.9 313.2,81.4 314.0,82.0 314.8,82.5 315.6,83.0 316.4,83.5 317.3,84.0 318.2,84.6 319.1,85.1 319.9,85.6 320.8,86.2 321.6,86.7 322.5,87.3 323.3,87.8 324.2,88.4 325.1,88.9 325.9,89.4 326.7,90.0 327.6,90.5 328.5,91.1 329.3,91.7 330.1,92.2 331.0,92.8 331.8,93.3 332.6,93.9 333.5,94.5 334.3,95.0 335.1,95.6 335.9,96.1 336.8,96.7 337.6,97.3 338.5,97.9 339.3,98.5 340.1,99.1 341.0,99.7 341.8,100.3 342.6,100.9 343.5,101.5 344.3,102.1 345.2,102.7 346.0,103.4 346.8,104.0 347.7,104.6 348.5,105.3 349.3,105.9 350.1,106.6 351.0,107.2 351.8,107.9 352.6,108.6 353.4,109.3 354.3,110.0 355.1,110.7 355.9,111.4 356.7,112.2 357.6,112.9 358.4,113.7 359.2,114.4 360.1,115.2 360.9,116.0 361.7,116.8 362.5,117.7 363.3,118.5 364.1,119.4 365.0,120.3 365.8,121.2 366.6,122.1 367.4,123.1 368.3,124.1 369.1,125.1 369.9,126.2 370.7,127.3 371.5,128.4 372.3,129.7 373.1,130.9 373.9,132.2 374.8,133.6 375.6,135.0 376.4,136.6 377.2,138.2 378.0,139.9 378.8,141.8 379.6,143.8 380.4,146.0 381.3,148.4 382.1,151.1 382.9,154.1 383.7,157.5 384.5,161.4 L384.5,162.0 L58.2,162.0 Z" fill="url(#g521)"/>
  <defs><clipPath id="pc522"><rect x="55" y="12" width="330" height="150"/></clipPath></defs>
  <polyline points="58.2,52.0 88.3,52.0 105.9,52.0 118.4,52.0 128.1,52.0 136.0,52.0 142.7,52.0 148.5,52.0 153.6,52.0 158.2,52.0 162.3,52.0 166.1,52.0 169.6,52.0 172.8,52.0 175.8,52.0 178.6,52.1 181.2,52.1 183.7,52.1 186.0,52.1 188.3,52.1 190.4,52.1 192.4,52.1 194.3,52.1 196.2,52.1 198.0,52.1 199.7,52.1 201.3,52.2 202.9,52.2 204.4,52.2 205.9,52.2 207.3,52.2 208.7,52.2 210.0,52.2 211.3,52.3 212.6,52.3 213.8,52.3 215.0,52.3 216.1,52.3 217.3,52.4 218.4,52.4 219.4,52.4 220.5,52.4 221.5,52.5 222.5,52.5 223.5,52.5 224.4,52.5 225.4,52.6 226.3,52.6 227.2,52.6 228.1,52.7 228.9,52.7 229.8,52.7 230.6,52.8 231.4,52.8 233.0,52.9 234.5,53.0 236.0,53.0 237.4,53.1 238.8,53.2 240.1,53.3 241.4,53.4 242.7,53.6 243.9,53.7 245.1,53.8 246.2,53.9 247.4,54.1 248.5,54.2 249.5,54.3 250.6,54.5 251.6,54.6 252.6,54.8 253.6,55.0 254.5,55.1 255.5,55.3 256.4,55.5 257.3,55.7 258.1,55.8 259.0,56.0 259.8,56.2 260.7,56.4 261.5,56.6 262.7,56.9 263.8,57.3 265.0,57.6 266.1,57.9 267.1,58.2 268.2,58.6 269.2,58.9 270.2,59.3 271.2,59.6 272.1,60.0 273.1,60.3 274.0,60.7 274.9,61.1 275.7,61.4 276.6,61.8 277.5,62.1 278.3,62.5 279.1,62.8 280.1,63.3 281.2,63.8 282.2,64.3 283.2,64.7 284.1,65.2 285.1,65.7 286.0,66.1 286.9,66.6 287.8,67.0 288.7,67.5 289.5,67.9 290.4,68.4 291.2,68.8 292.0,69.2 293.0,69.8 293.9,70.3 294.9,70.8 295.8,71.3 296.7,71.8 297.6,72.3 298.4,72.8 299.3,73.3 300.1,73.7 300.9,74.2 301.7,74.7 302.7,75.2 303.6,75.8 304.5,76.3 305.4,76.8 306.3,77.3 307.1,77.8 308.0,78.3 308.8,78.8 309.6,79.3 310.5,79.8 311.4,80.4 312.3,80.9 313.2,81.4 314.0,82.0 314.8,82.5 315.6,83.0 316.4,83.5 317.3,84.0 318.2,84.6 319.1,85.1 319.9,85.6 320.8,86.2 321.6,86.7 322.5,87.3 323.3,87.8 324.2,88.4 325.1,88.9 325.9,89.4 326.7,90.0 327.6,90.5 328.5,91.1 329.3,91.7 330.1,92.2 331.0,92.8 331.8,93.3 332.6,93.9 333.5,94.5 334.3,95.0 335.1,95.6 335.9,96.1 336.8,96.7 337.6,97.3 338.5,97.9 339.3,98.5 340.1,99.1 341.0,99.7 341.8,100.3 342.6,100.9 343.5,101.5 344.3,102.1 345.2,102.7 346.0,103.4 346.8,104.0 347.7,104.6 348.5,105.3 349.3,105.9 350.1,106.6 351.0,107.2 351.8,107.9 352.6,108.6 353.4,109.3 354.3,110.0 355.1,110.7 355.9,111.4 356.7,112.2 357.6,112.9 358.4,113.7 359.2,114.4 360.1,115.2 360.9,116.0 361.7,116.8 362.5,117.7 363.3,118.5 364.1,119.4 365.0,120.3 365.8,121.2 366.6,122.1 367.4,123.1 368.3,124.1 369.1,125.1 369.9,126.2 370.7,127.3 371.5,128.4 372.3,129.7 373.1,130.9 373.9,132.2 374.8,133.6 375.6,135.0 376.4,136.6 377.2,138.2 378.0,139.9 378.8,141.8 379.6,143.8 380.4,146.0 381.3,148.4 382.1,151.1 382.9,154.1 383.7,157.5 384.5,161.4" fill="none" stroke="#4a90d9" stroke-width="1.5" stroke-linejoin="round" clip-path="url(#pc522)"/>
  <line x1="445" y1="12" x2="445" y2="162" stroke="#d1d5db"/>
  <line x1="445" y1="87.0" x2="775" y2="87.0" stroke="#d1d5db"/>
  <text x="610" y="190" text-anchor="middle" font-size="9" fill="#6b7280">Hz</text>
  <text x="419" y="87" text-anchor="middle" font-size="9" fill="#6b7280" transform="rotate(-90 419 87)">Phase (deg)</text>
  <line x1="475.1" y1="12" x2="475.1" y2="162" stroke="#e5e7eb" stroke-width="0.5"/>
  <line x1="492.7" y1="12" x2="492.7" y2="162" stroke="#e5e7eb" stroke-width="0.5"/>
  <line x1="505.2" y1="12" x2="505.2" y2="162" stroke="#e5e7eb" stroke-width="0.5"/>
  <line x1="514.9" y1="12" x2="514.9" y2="162" stroke="#e5e7eb" stroke-width="0.5"/>
  <line x1="522.8" y1="12" x2="522.8" y2="162" stroke="#e5e7eb" stroke-width="0.5"/>
  <line x1="529.5" y1="12" x2="529.5" y2="162" stroke="#e5e7eb" stroke-width="0.5"/>
  <line x1="535.3" y1="12" x2="535.3" y2="162" stroke="#e5e7eb" stroke-width="0.5"/>
  <line x1="540.4" y1="12" x2="540.4" y2="162" stroke="#e5e7eb" stroke-width="0.5"/>
  <line x1="575.1" y1="12" x2="575.1" y2="162" stroke="#e5e7eb" stroke-width="0.5"/>
  <line x1="592.7" y1="12" x2="592.7" y2="162" stroke="#e5e7eb" stroke-width="0.5"/>
  <line x1="605.2" y1="12" x2="605.2" y2="162" stroke="#e5e7eb" stroke-width="0.5"/>
  <line x1="614.8" y1="12" x2="614.8" y2="162" stroke="#e5e7eb" stroke-width="0.5"/>
  <line x1="622.8" y1="12" x2="622.8" y2="162" stroke="#e5e7eb" stroke-width="0.5"/>
  <line x1="629.5" y1="12" x2="629.5" y2="162" stroke="#e5e7eb" stroke-width="0.5"/>
  <line x1="635.2" y1="12" x2="635.2" y2="162" stroke="#e5e7eb" stroke-width="0.5"/>
  <line x1="640.4" y1="12" x2="640.4" y2="162" stroke="#e5e7eb" stroke-width="0.5"/>
  <line x1="675.0" y1="12" x2="675.0" y2="162" stroke="#e5e7eb" stroke-width="0.5"/>
  <line x1="692.6" y1="12" x2="692.6" y2="162" stroke="#e5e7eb" stroke-width="0.5"/>
  <line x1="705.1" y1="12" x2="705.1" y2="162" stroke="#e5e7eb" stroke-width="0.5"/>
  <line x1="714.8" y1="12" x2="714.8" y2="162" stroke="#e5e7eb" stroke-width="0.5"/>
  <line x1="722.7" y1="12" x2="722.7" y2="162" stroke="#e5e7eb" stroke-width="0.5"/>
  <line x1="729.4" y1="12" x2="729.4" y2="162" stroke="#e5e7eb" stroke-width="0.5"/>
  <line x1="735.2" y1="12" x2="735.2" y2="162" stroke="#e5e7eb" stroke-width="0.5"/>
  <line x1="740.3" y1="12" x2="740.3" y2="162" stroke="#e5e7eb" stroke-width="0.5"/>
  <line x1="775.0" y1="12" x2="775.0" y2="162" stroke="#e5e7eb" stroke-width="0.5"/>
  <line x1="545.0" y1="12" x2="545.0" y2="162" stroke="#e5e7eb" stroke-width="0.5"/>
  <text x="545.0" y="174" text-anchor="middle" font-size="8" fill="#6b7280">100</text>
  <line x1="644.9" y1="12" x2="644.9" y2="162" stroke="#e5e7eb" stroke-width="0.5"/>
  <text x="644.9" y="174" text-anchor="middle" font-size="8" fill="#6b7280">1k</text>
  <line x1="744.9" y1="12" x2="744.9" y2="162" stroke="#e5e7eb" stroke-width="0.5"/>
  <text x="744.9" y="174" text-anchor="middle" font-size="8" fill="#6b7280">10k</text>
  <line x1="445" y1="53.3" x2="775" y2="53.3" stroke="#e5e7eb" stroke-width="0.5"/>
  <line x1="445" y1="120.8" x2="775" y2="120.8" stroke="#e5e7eb" stroke-width="0.5"/>
  <line x1="445" y1="19.5" x2="775" y2="19.5" stroke="#e5e7eb" stroke-width="0.5"/>
  <text x="441" y="22.5" text-anchor="end" font-size="8" fill="#6b7280">180</text>
  <text x="441" y="90.0" text-anchor="end" font-size="8" fill="#6b7280">0</text>
  <line x1="445" y1="154.5" x2="775" y2="154.5" stroke="#e5e7eb" stroke-width="0.5"/>
  <text x="441" y="157.5" text-anchor="end" font-size="8" fill="#6b7280">-180</text>
  <defs><linearGradient id="g523" x1="0" y1="162" x2="0" y2="87.0" gradientUnits="userSpaceOnUse">
    <stop offset="0%" stop-color="#e74c3c" stop-opacity="0.15"/>
    <stop offset="100%" stop-color="#e74c3c" stop-opacity="0.02"/>
  </linearGradient></defs>
  <path d="M448.2,87.3 448.2,87.3 478.3,87.6 495.9,87.8 508.4,88.1 518.1,88.4 526.0,88.7 532.7,89.0 538.5,89.3 543.6,89.5 548.2,89.8 552.3,90.1 556.1,90.4 559.6,90.7 562.8,90.9 565.8,91.2 568.6,91.5 571.2,91.8 573.7,92.1 576.0,92.4 578.3,92.7 580.4,92.9 582.4,93.2 584.3,93.5 586.2,93.8 588.0,94.1 589.7,94.4 591.3,94.7 592.9,94.9 594.4,95.2 595.9,95.5 597.3,95.8 598.7,96.1 600.0,96.4 601.3,96.7 602.6,97.0 603.8,97.3 605.0,97.6 606.1,97.9 607.3,98.2 608.4,98.5 609.4,98.7 610.5,99.0 611.5,99.3 612.5,99.6 613.5,99.9 614.4,100.2 615.4,100.5 616.3,100.8 617.2,101.1 618.1,101.4 618.9,101.7 619.8,102.0 620.6,102.3 621.4,102.6 623.0,103.2 624.5,103.8 626.0,104.4 627.4,105.0 628.8,105.6 630.1,106.2 631.4,106.8 632.7,107.4 633.9,108.0 635.1,108.6 636.2,109.2 637.4,109.8 638.5,110.4 639.5,111.0 640.6,111.5 641.6,112.1 642.6,112.7 643.6,113.3 644.5,113.8 645.5,114.4 646.4,114.9 647.3,115.5 648.1,116.0 649.0,116.5 649.8,117.1 650.7,117.6 651.5,118.1 652.7,118.8 653.8,119.6 655.0,120.3 656.1,121.0 657.1,121.7 658.2,122.4 659.2,123.0 660.2,123.6 661.2,124.2 662.1,124.8 663.1,125.4 664.0,126.0 664.9,126.5 665.7,127.1 666.6,127.6 667.5,128.1 668.3,128.6 669.1,129.0 670.1,129.6 671.2,130.2 672.2,130.8 673.2,131.3 674.1,131.8 675.1,132.3 676.0,132.8 676.9,133.3 677.8,133.7 678.7,134.1 679.5,134.6 680.4,135.0 681.2,135.3 682.0,135.7 683.0,136.1 683.9,136.6 684.9,137.0 685.8,137.4 686.7,137.7 687.6,138.1 688.4,138.4 689.3,138.8 690.1,139.1 690.9,139.4 691.7,139.7 692.7,140.0 693.6,140.4 694.5,140.7 695.4,141.0 696.3,141.3 697.1,141.5 698.0,141.8 698.8,142.0 699.6,142.3 700.5,142.6 701.4,142.8 702.3,143.1 703.2,143.3 704.0,143.6 704.8,143.8 705.6,144.0 706.4,144.2 707.3,144.4 708.2,144.7 709.1,144.9 709.9,145.1 710.8,145.3 711.6,145.5 712.5,145.7 713.3,145.9 714.2,146.0 715.1,146.2 715.9,146.4 716.7,146.6 717.6,146.7 718.5,146.9 719.3,147.1 720.1,147.2 721.0,147.4 721.8,147.5 722.6,147.7 723.5,147.9 724.3,148.0 725.1,148.1 725.9,148.3 726.8,148.4 727.6,148.6 728.5,148.7 729.3,148.8 730.1,149.0 731.0,149.1 731.8,149.2 732.6,149.3 733.5,149.5 734.3,149.6 735.2,149.7 736.0,149.8 736.8,149.9 737.7,150.0 738.5,150.1 739.3,150.2 740.1,150.4 741.0,150.5 741.8,150.6 742.6,150.7 743.4,150.8 744.3,150.9 745.1,151.0 745.9,151.1 746.7,151.2 747.6,151.3 748.4,151.3 749.2,151.4 750.1,151.5 750.9,151.6 751.7,151.7 752.5,151.8 753.3,151.9 754.1,152.0 755.0,152.1 755.8,152.1 756.6,152.2 757.4,152.3 758.3,152.4 759.1,152.5 759.9,152.6 760.7,152.6 761.5,152.7 762.3,152.8 763.1,152.9 763.9,153.0 764.8,153.0 765.6,153.1 766.4,153.2 767.2,153.3 768.0,153.4 768.8,153.4 769.6,153.5 770.4,153.6 771.3,153.7 772.1,153.8 772.9,153.8 773.7,153.9 774.5,154.0 L774.5,87.0 L448.2,87.0 Z" fill="url(#g523)"/>
  <defs><clipPath id="pc524"><rect x="445" y="12" width="330" height="150"/></clipPath></defs>
  <polyline points="448.2,87.3 478.3,87.6 495.9,87.8 508.4,88.1 518.1,88.4 526.0,88.7 532.7,89.0 538.5,89.3 543.6,89.5 548.2,89.8 552.3,90.1 556.1,90.4 559.6,90.7 562.8,90.9 565.8,91.2 568.6,91.5 571.2,91.8 573.7,92.1 576.0,92.4 578.3,92.7 580.4,92.9 582.4,93.2 584.3,93.5 586.2,93.8 588.0,94.1 589.7,94.4 591.3,94.7 592.9,94.9 594.4,95.2 595.9,95.5 597.3,95.8 598.7,96.1 600.0,96.4 601.3,96.7 602.6,97.0 603.8,97.3 605.0,97.6 606.1,97.9 607.3,98.2 608.4,98.5 609.4,98.7 610.5,99.0 611.5,99.3 612.5,99.6 613.5,99.9 614.4,100.2 615.4,100.5 616.3,100.8 617.2,101.1 618.1,101.4 618.9,101.7 619.8,102.0 620.6,102.3 621.4,102.6 623.0,103.2 624.5,103.8 626.0,104.4 627.4,105.0 628.8,105.6 630.1,106.2 631.4,106.8 632.7,107.4 633.9,108.0 635.1,108.6 636.2,109.2 637.4,109.8 638.5,110.4 639.5,111.0 640.6,111.5 641.6,112.1 642.6,112.7 643.6,113.3 644.5,113.8 645.5,114.4 646.4,114.9 647.3,115.5 648.1,116.0 649.0,116.5 649.8,117.1 650.7,117.6 651.5,118.1 652.7,118.8 653.8,119.6 655.0,120.3 656.1,121.0 657.1,121.7 658.2,122.4 659.2,123.0 660.2,123.6 661.2,124.2 662.1,124.8 663.1,125.4 664.0,126.0 664.9,126.5 665.7,127.1 666.6,127.6 667.5,128.1 668.3,128.6 669.1,129.0 670.1,129.6 671.2,130.2 672.2,130.8 673.2,131.3 674.1,131.8 675.1,132.3 676.0,132.8 676.9,133.3 677.8,133.7 678.7,134.1 679.5,134.6 680.4,135.0 681.2,135.3 682.0,135.7 683.0,136.1 683.9,136.6 684.9,137.0 685.8,137.4 686.7,137.7 687.6,138.1 688.4,138.4 689.3,138.8 690.1,139.1 690.9,139.4 691.7,139.7 692.7,140.0 693.6,140.4 694.5,140.7 695.4,141.0 696.3,141.3 697.1,141.5 698.0,141.8 698.8,142.0 699.6,142.3 700.5,142.6 701.4,142.8 702.3,143.1 703.2,143.3 704.0,143.6 704.8,143.8 705.6,144.0 706.4,144.2 707.3,144.4 708.2,144.7 709.1,144.9 709.9,145.1 710.8,145.3 711.6,145.5 712.5,145.7 713.3,145.9 714.2,146.0 715.1,146.2 715.9,146.4 716.7,146.6 717.6,146.7 718.5,146.9 719.3,147.1 720.1,147.2 721.0,147.4 721.8,147.5 722.6,147.7 723.5,147.9 724.3,148.0 725.1,148.1 725.9,148.3 726.8,148.4 727.6,148.6 728.5,148.7 729.3,148.8 730.1,149.0 731.0,149.1 731.8,149.2 732.6,149.3 733.5,149.5 734.3,149.6 735.2,149.7 736.0,149.8 736.8,149.9 737.7,150.0 738.5,150.1 739.3,150.2 740.1,150.4 741.0,150.5 741.8,150.6 742.6,150.7 743.4,150.8 744.3,150.9 745.1,151.0 745.9,151.1 746.7,151.2 747.6,151.3 748.4,151.3 749.2,151.4 750.1,151.5 750.9,151.6 751.7,151.7 752.5,151.8 753.3,151.9 754.1,152.0 755.0,152.1 755.8,152.1 756.6,152.2 757.4,152.3 758.3,152.4 759.1,152.5 759.9,152.6 760.7,152.6 761.5,152.7 762.3,152.8 763.1,152.9 763.9,153.0 764.8,153.0 765.6,153.1 766.4,153.2 767.2,153.3 768.0,153.4 768.8,153.4 769.6,153.5 770.4,153.6 771.3,153.7 772.1,153.8 772.9,153.8 773.7,153.9 774.5,154.0" fill="none" stroke="#e74c3c" stroke-width="1.5" stroke-linejoin="round" clip-path="url(#pc524)"/>
  <line x1="55" y1="210" x2="55" y2="360" stroke="#d1d5db"/>
  <line x1="55" y1="285.0" x2="385" y2="285.0" stroke="#d1d5db"/>
  <text x="220" y="388" text-anchor="middle" font-size="9" fill="#6b7280">Hz</text>
  <text x="29" y="285" text-anchor="middle" font-size="9" fill="#6b7280" transform="rotate(-90 29 285)">Group delay</text>
  <line x1="85.1" y1="210" x2="85.1" y2="360" stroke="#e5e7eb" stroke-width="0.5"/>
  <line x1="102.7" y1="210" x2="102.7" y2="360" stroke="#e5e7eb" stroke-width="0.5"/>
  <line x1="115.2" y1="210" x2="115.2" y2="360" stroke="#e5e7eb" stroke-width="0.5"/>
  <line x1="124.9" y1="210" x2="124.9" y2="360" stroke="#e5e7eb" stroke-width="0.5"/>
  <line x1="132.8" y1="210" x2="132.8" y2="360" stroke="#e5e7eb" stroke-width="0.5"/>
  <line x1="139.5" y1="210" x2="139.5" y2="360" stroke="#e5e7eb" stroke-width="0.5"/>
  <line x1="145.3" y1="210" x2="145.3" y2="360" stroke="#e5e7eb" stroke-width="0.5"/>
  <line x1="150.4" y1="210" x2="150.4" y2="360" stroke="#e5e7eb" stroke-width="0.5"/>
  <line x1="185.1" y1="210" x2="185.1" y2="360" stroke="#e5e7eb" stroke-width="0.5"/>
  <line x1="202.7" y1="210" x2="202.7" y2="360" stroke="#e5e7eb" stroke-width="0.5"/>
  <line x1="215.2" y1="210" x2="215.2" y2="360" stroke="#e5e7eb" stroke-width="0.5"/>
  <line x1="224.8" y1="210" x2="224.8" y2="360" stroke="#e5e7eb" stroke-width="0.5"/>
  <line x1="232.8" y1="210" x2="232.8" y2="360" stroke="#e5e7eb" stroke-width="0.5"/>
  <line x1="239.5" y1="210" x2="239.5" y2="360" stroke="#e5e7eb" stroke-width="0.5"/>
  <line x1="245.2" y1="210" x2="245.2" y2="360" stroke="#e5e7eb" stroke-width="0.5"/>
  <line x1="250.4" y1="210" x2="250.4" y2="360" stroke="#e5e7eb" stroke-width="0.5"/>
  <line x1="285.0" y1="210" x2="285.0" y2="360" stroke="#e5e7eb" stroke-width="0.5"/>
  <line x1="302.6" y1="210" x2="302.6" y2="360" stroke="#e5e7eb" stroke-width="0.5"/>
  <line x1="315.1" y1="210" x2="315.1" y2="360" stroke="#e5e7eb" stroke-width="0.5"/>
  <line x1="324.8" y1="210" x2="324.8" y2="360" stroke="#e5e7eb" stroke-width="0.5"/>
  <line x1="332.7" y1="210" x2="332.7" y2="360" stroke="#e5e7eb" stroke-width="0.5"/>
  <line x1="339.4" y1="210" x2="339.4" y2="360" stroke="#e5e7eb" stroke-width="0.5"/>
  <line x1="345.2" y1="210" x2="345.2" y2="360" stroke="#e5e7eb" stroke-width="0.5"/>
  <line x1="350.3" y1="210" x2="350.3" y2="360" stroke="#e5e7eb" stroke-width="0.5"/>
  <line x1="385.0" y1="210" x2="385.0" y2="360" stroke="#e5e7eb" stroke-width="0.5"/>
  <line x1="155.0" y1="210" x2="155.0" y2="360" stroke="#e5e7eb" stroke-width="0.5"/>
  <text x="155.0" y="372" text-anchor="middle" font-size="8" fill="#6b7280">100</text>
  <line x1="254.9" y1="210" x2="254.9" y2="360" stroke="#e5e7eb" stroke-width="0.5"/>
  <text x="254.9" y="372" text-anchor="middle" font-size="8" fill="#6b7280">1k</text>
  <line x1="354.9" y1="210" x2="354.9" y2="360" stroke="#e5e7eb" stroke-width="0.5"/>
  <text x="354.9" y="372" text-anchor="middle" font-size="8" fill="#6b7280">10k</text>
  <line x1="55" y1="322.9" x2="385" y2="322.9" stroke="#e5e7eb" stroke-width="0.5"/>
  <text x="51" y="325.9" text-anchor="end" font-size="8" fill="#6b7280">-6</text>
  <text x="51" y="288.0" text-anchor="end" font-size="8" fill="#6b7280">0</text>
  <line x1="55" y1="247.1" x2="385" y2="247.1" stroke="#e5e7eb" stroke-width="0.5"/>
  <text x="51" y="250.1" text-anchor="end" font-size="8" fill="#6b7280">6</text>
  <defs><linearGradient id="g525" x1="0" y1="210" x2="0" y2="285.0" gradientUnits="userSpaceOnUse">
    <stop offset="0%" stop-color="#2ecc71" stop-opacity="0.15"/>
    <stop offset="100%" stop-color="#2ecc71" stop-opacity="0.02"/>
  </linearGradient></defs>
  <path d="M58.2,231.1 58.2,231.1 88.3,231.0 105.9,231.0 118.4,231.0 128.1,231.0 136.0,231.0 142.7,231.0 148.5,230.9 153.6,230.9 158.2,230.8 162.3,230.8 166.1,230.8 169.6,230.7 172.8,230.6 175.8,230.6 178.6,230.5 181.2,230.5 183.7,230.4 186.0,230.3 188.3,230.2 190.4,230.2 192.4,230.1 194.3,230.0 196.2,229.9 198.0,229.8 199.7,229.7 201.3,229.6 202.9,229.6 204.4,229.5 205.9,229.4 207.3,229.3 208.7,229.2 210.0,229.1 211.3,229.0 212.6,228.9 213.8,228.8 215.0,228.7 216.1,228.6 217.3,228.5 218.4,228.4 219.4,228.3 220.5,228.2 221.5,228.2 222.5,228.1 223.5,228.0 224.4,227.9 225.4,227.8 226.3,227.8 227.2,227.7 228.1,227.6 228.9,227.6 229.8,227.5 230.6,227.5 231.4,227.4 233.0,227.4 234.5,227.3 236.0,227.3 237.4,227.3 238.8,227.4 240.1,227.4 241.4,227.5 242.7,227.7 243.9,227.8 245.1,228.0 246.2,228.3 247.4,228.6 248.5,228.9 249.5,229.2 250.6,229.6 251.6,230.0 252.6,230.4 253.6,230.9 254.5,231.4 255.5,232.0 256.4,232.5 257.3,233.1 258.1,233.7 259.0,234.4 259.8,235.0 260.7,235.7 261.5,236.4 262.7,237.4 263.8,238.5 265.0,239.6 266.1,240.7 267.1,241.8 268.2,243.0 269.2,244.1 270.2,245.2 271.2,246.3 272.1,247.4 273.1,248.5 274.0,249.5 274.9,250.5 275.7,251.5 276.6,252.5 277.5,253.5 278.3,254.4 279.1,255.3 280.1,256.5 281.2,257.6 282.2,258.7 283.2,259.7 284.1,260.7 285.1,261.6 286.0,262.5 286.9,263.3 287.8,264.1 288.7,264.9 289.5,265.6 290.4,266.3 291.2,267.0 292.0,267.6 293.0,268.4 293.9,269.1 294.9,269.8 295.8,270.4 296.7,271.0 297.6,271.5 298.4,272.1 299.3,272.6 300.1,273.0 300.9,273.5 301.7,273.9 302.7,274.4 303.6,274.8 304.5,275.2 305.4,275.6 306.3,276.0 307.1,276.4 308.0,276.7 308.8,277.0 309.6,277.3 310.5,277.6 311.4,277.9 312.3,278.2 313.2,278.5 314.0,278.7 314.8,279.0 315.6,279.2 316.4,279.4 317.3,279.6 318.2,279.8 319.1,280.0 319.9,280.2 320.8,280.4 321.6,280.6 322.5,280.7 323.3,280.9 324.2,281.1 325.1,281.2 325.9,281.4 326.7,281.5 327.6,281.6 328.5,281.8 329.3,281.9 330.1,282.0 331.0,282.1 331.8,282.2 332.6,282.3 333.5,282.4 334.3,282.5 335.1,282.6 335.9,282.7 336.8,282.8 337.6,282.8 338.5,282.9 339.3,283.0 340.1,283.1 341.0,283.1 341.8,283.2 342.6,283.3 343.5,283.3 344.3,283.4 345.2,283.4 346.0,283.5 346.8,283.5 347.7,283.6 348.5,283.6 349.3,283.7 350.1,283.7 351.0,283.8 351.8,283.8 352.6,283.8 353.4,283.9 354.3,283.9 355.1,283.9 355.9,284.0 356.7,284.0 357.6,284.0 358.4,284.1 359.2,284.1 360.1,284.1 360.9,284.1 361.7,284.2 362.5,284.2 363.3,284.2 364.1,284.2 365.0,284.3 365.8,284.3 366.6,284.3 367.4,284.3 368.3,284.3 369.1,284.4 369.9,284.4 370.7,284.4 371.5,284.4 372.3,284.4 373.1,284.4 373.9,284.4 374.8,284.4 375.6,284.5 376.4,284.5 377.2,284.5 378.0,284.5 378.8,284.5 379.6,284.5 380.4,284.5 381.3,284.5 382.1,284.5 382.9,284.5 383.7,284.5 384.5,284.5 L384.5,285.0 L58.2,285.0 Z" fill="url(#g525)"/>
  <defs><clipPath id="pc526"><rect x="55" y="210" width="330" height="150"/></clipPath></defs>
  <polyline points="58.2,231.1 88.3,231.0 105.9,231.0 118.4,231.0 128.1,231.0 136.0,231.0 142.7,231.0 148.5,230.9 153.6,230.9 158.2,230.8 162.3,230.8 166.1,230.8 169.6,230.7 172.8,230.6 175.8,230.6 178.6,230.5 181.2,230.5 183.7,230.4 186.0,230.3 188.3,230.2 190.4,230.2 192.4,230.1 194.3,230.0 196.2,229.9 198.0,229.8 199.7,229.7 201.3,229.6 202.9,229.6 204.4,229.5 205.9,229.4 207.3,229.3 208.7,229.2 210.0,229.1 211.3,229.0 212.6,228.9 213.8,228.8 215.0,228.7 216.1,228.6 217.3,228.5 218.4,228.4 219.4,228.3 220.5,228.2 221.5,228.2 222.5,228.1 223.5,228.0 224.4,227.9 225.4,227.8 226.3,227.8 227.2,227.7 228.1,227.6 228.9,227.6 229.8,227.5 230.6,227.5 231.4,227.4 233.0,227.4 234.5,227.3 236.0,227.3 237.4,227.3 238.8,227.4 240.1,227.4 241.4,227.5 242.7,227.7 243.9,227.8 245.1,228.0 246.2,228.3 247.4,228.6 248.5,228.9 249.5,229.2 250.6,229.6 251.6,230.0 252.6,230.4 253.6,230.9 254.5,231.4 255.5,232.0 256.4,232.5 257.3,233.1 258.1,233.7 259.0,234.4 259.8,235.0 260.7,235.7 261.5,236.4 262.7,237.4 263.8,238.5 265.0,239.6 266.1,240.7 267.1,241.8 268.2,243.0 269.2,244.1 270.2,245.2 271.2,246.3 272.1,247.4 273.1,248.5 274.0,249.5 274.9,250.5 275.7,251.5 276.6,252.5 277.5,253.5 278.3,254.4 279.1,255.3 280.1,256.5 281.2,257.6 282.2,258.7 283.2,259.7 284.1,260.7 285.1,261.6 286.0,262.5 286.9,263.3 287.8,264.1 288.7,264.9 289.5,265.6 290.4,266.3 291.2,267.0 292.0,267.6 293.0,268.4 293.9,269.1 294.9,269.8 295.8,270.4 296.7,271.0 297.6,271.5 298.4,272.1 299.3,272.6 300.1,273.0 300.9,273.5 301.7,273.9 302.7,274.4 303.6,274.8 304.5,275.2 305.4,275.6 306.3,276.0 307.1,276.4 308.0,276.7 308.8,277.0 309.6,277.3 310.5,277.6 311.4,277.9 312.3,278.2 313.2,278.5 314.0,278.7 314.8,279.0 315.6,279.2 316.4,279.4 317.3,279.6 318.2,279.8 319.1,280.0 319.9,280.2 320.8,280.4 321.6,280.6 322.5,280.7 323.3,280.9 324.2,281.1 325.1,281.2 325.9,281.4 326.7,281.5 327.6,281.6 328.5,281.8 329.3,281.9 330.1,282.0 331.0,282.1 331.8,282.2 332.6,282.3 333.5,282.4 334.3,282.5 335.1,282.6 335.9,282.7 336.8,282.8 337.6,282.8 338.5,282.9 339.3,283.0 340.1,283.1 341.0,283.1 341.8,283.2 342.6,283.3 343.5,283.3 344.3,283.4 345.2,283.4 346.0,283.5 346.8,283.5 347.7,283.6 348.5,283.6 349.3,283.7 350.1,283.7 351.0,283.8 351.8,283.8 352.6,283.8 353.4,283.9 354.3,283.9 355.1,283.9 355.9,284.0 356.7,284.0 357.6,284.0 358.4,284.1 359.2,284.1 360.1,284.1 360.9,284.1 361.7,284.2 362.5,284.2 363.3,284.2 364.1,284.2 365.0,284.3 365.8,284.3 366.6,284.3 367.4,284.3 368.3,284.3 369.1,284.4 369.9,284.4 370.7,284.4 371.5,284.4 372.3,284.4 373.1,284.4 373.9,284.4 374.8,284.4 375.6,284.5 376.4,284.5 377.2,284.5 378.0,284.5 378.8,284.5 379.6,284.5 380.4,284.5 381.3,284.5 382.1,284.5 382.9,284.5 383.7,284.5 384.5,284.5" fill="none" stroke="#2ecc71" stroke-width="1.5" stroke-linejoin="round" clip-path="url(#pc526)"/>
  <line x1="445" y1="210" x2="445" y2="360" stroke="#d1d5db"/>
  <line x1="445" y1="285.0" x2="775" y2="285.0" stroke="#d1d5db"/>
  <text x="610" y="388" text-anchor="middle" font-size="9" fill="#6b7280">Samples</text>
  <text x="419" y="285" text-anchor="middle" font-size="9" fill="#6b7280" transform="rotate(-90 419 285)">Impulse response</text>
  <line x1="445.0" y1="210" x2="445.0" y2="360" stroke="#e5e7eb" stroke-width="0.5"/>
  <text x="445.0" y="372" text-anchor="middle" font-size="8" fill="#6b7280">0</text>
  <line x1="561.0" y1="210" x2="561.0" y2="360" stroke="#e5e7eb" stroke-width="0.5"/>
  <text x="561.0" y="372" text-anchor="middle" font-size="8" fill="#6b7280">90</text>
  <line x1="677.0" y1="210" x2="677.0" y2="360" stroke="#e5e7eb" stroke-width="0.5"/>
  <text x="677.0" y="372" text-anchor="middle" font-size="8" fill="#6b7280">180</text>
  <line x1="445" y1="346.8" x2="775" y2="346.8" stroke="#e5e7eb" stroke-width="0.5"/>
  <text x="441" y="349.8" text-anchor="end" font-size="8" fill="#6b7280">-0.03</text>
  <text x="441" y="288.0" text-anchor="end" font-size="8" fill="#6b7280">0</text>
  <line x1="445" y1="223.2" x2="775" y2="223.2" stroke="#e5e7eb" stroke-width="0.5"/>
  <text x="441" y="226.2" text-anchor="end" font-size="8" fill="#6b7280">0.03</text>
  <defs><linearGradient id="g527" x1="0" y1="210" x2="0" y2="285.0" gradientUnits="userSpaceOnUse">
    <stop offset="0%" stop-color="#f39c12" stop-opacity="0.15"/>
    <stop offset="100%" stop-color="#f39c12" stop-opacity="0.02"/>
  </linearGradient></defs>
  <defs><linearGradient id="g528" x1="0" y1="360" x2="0" y2="285.0" gradientUnits="userSpaceOnUse">
    <stop offset="0%" stop-color="#f39c12" stop-opacity="0.15"/>
    <stop offset="100%" stop-color="#f39c12" stop-opacity="0.02"/>
  </linearGradient></defs>
  <defs><clipPath id="c529"><rect x="445" y="210" width="330" height="75.0"/></clipPath></defs>
  <defs><clipPath id="c530"><rect x="445" y="285.0" width="330" height="75.0"/></clipPath></defs>
  <path d="M445.0,278.1 445.0,278.1 446.3,259.1 447.6,238.7 448.9,224.7 450.2,215.9 451.4,211.3 452.7,210.0 454.0,211.2 455.3,214.2 456.6,218.6 457.9,223.8 459.2,229.5 460.5,235.4 461.8,241.2 463.0,246.9 464.3,252.3 465.6,257.3 466.9,261.9 468.2,266.0 469.5,269.6 470.8,272.8 472.1,275.6 473.4,277.9 474.6,279.9 475.9,281.5 477.2,282.8 478.5,283.9 479.8,284.7 481.1,285.3 482.4,285.8 483.7,286.1 485.0,286.4 486.3,286.5 487.5,286.5 488.8,286.5 490.1,286.5 491.4,286.4 492.7,286.3 494.0,286.2 495.3,286.1 496.6,285.9 497.9,285.8 499.1,285.7 500.4,285.6 501.7,285.5 503.0,285.4 504.3,285.3 505.6,285.3 506.9,285.2 508.2,285.2 509.5,285.1 510.7,285.1 512.0,285.1 513.3,285.0 514.6,285.0 515.9,285.0 517.2,285.0 518.5,285.0 519.8,285.0 521.1,285.0 522.3,285.0 523.6,285.0 524.9,285.0 526.2,285.0 527.5,285.0 528.8,285.0 530.1,285.0 531.4,285.0 532.7,285.0 533.9,285.0 535.2,285.0 536.5,285.0 537.8,285.0 539.1,285.0 540.4,285.0 541.7,285.0 543.0,285.0 544.3,285.0 545.5,285.0 546.8,285.0 548.1,285.0 549.4,285.0 550.7,285.0 552.0,285.0 553.3,285.0 554.6,285.0 555.9,285.0 557.1,285.0 558.4,285.0 559.7,285.0 561.0,285.0 562.3,285.0 563.6,285.0 564.9,285.0 566.2,285.0 567.5,285.0 568.8,285.0 570.0,285.0 571.3,285.0 572.6,285.0 573.9,285.0 575.2,285.0 576.5,285.0 577.8,285.0 579.1,285.0 580.4,285.0 581.6,285.0 582.9,285.0 584.2,285.0 585.5,285.0 586.8,285.0 588.1,285.0 589.4,285.0 590.7,285.0 592.0,285.0 593.2,285.0 594.5,285.0 595.8,285.0 597.1,285.0 598.4,285.0 599.7,285.0 601.0,285.0 602.3,285.0 603.6,285.0 604.8,285.0 606.1,285.0 607.4,285.0 608.7,285.0 610.0,285.0 611.3,285.0 612.6,285.0 613.9,285.0 615.2,285.0 616.4,285.0 617.7,285.0 619.0,285.0 620.3,285.0 621.6,285.0 622.9,285.0 624.2,285.0 625.5,285.0 626.8,285.0 628.0,285.0 629.3,285.0 630.6,285.0 631.9,285.0 633.2,285.0 634.5,285.0 635.8,285.0 637.1,285.0 638.4,285.0 639.6,285.0 640.9,285.0 642.2,285.0 643.5,285.0 644.8,285.0 646.1,285.0 647.4,285.0 648.7,285.0 650.0,285.0 651.3,285.0 652.5,285.0 653.8,285.0 655.1,285.0 656.4,285.0 657.7,285.0 659.0,285.0 660.3,285.0 661.6,285.0 662.9,285.0 664.1,285.0 665.4,285.0 666.7,285.0 668.0,285.0 669.3,285.0 670.6,285.0 671.9,285.0 673.2,285.0 674.5,285.0 675.7,285.0 677.0,285.0 678.3,285.0 679.6,285.0 680.9,285.0 682.2,285.0 683.5,285.0 684.8,285.0 686.1,285.0 687.3,285.0 688.6,285.0 689.9,285.0 691.2,285.0 692.5,285.0 693.8,285.0 695.1,285.0 696.4,285.0 697.7,285.0 698.9,285.0 700.2,285.0 701.5,285.0 702.8,285.0 704.1,285.0 705.4,285.0 706.7,285.0 708.0,285.0 709.3,285.0 710.5,285.0 711.8,285.0 713.1,285.0 714.4,285.0 715.7,285.0 717.0,285.0 718.3,285.0 719.6,285.0 720.9,285.0 722.1,285.0 723.4,285.0 724.7,285.0 726.0,285.0 727.3,285.0 728.6,285.0 729.9,285.0 731.2,285.0 732.5,285.0 733.8,285.0 735.0,285.0 736.3,285.0 737.6,285.0 738.9,285.0 740.2,285.0 741.5,285.0 742.8,285.0 744.1,285.0 745.4,285.0 746.6,285.0 747.9,285.0 749.2,285.0 750.5,285.0 751.8,285.0 753.1,285.0 754.4,285.0 755.7,285.0 757.0,285.0 758.2,285.0 759.5,285.0 760.8,285.0 762.1,285.0 763.4,285.0 764.7,285.0 766.0,285.0 767.3,285.0 768.6,285.0 769.8,285.0 771.1,285.0 772.4,285.0 773.7,285.0 L773.7,285.0 L445.0,285.0 Z" fill="url(#g527)" clip-path="url(#c529)"/>
  <path d="M445.0,278.1 445.0,278.1 446.3,259.1 447.6,238.7 448.9,224.7 450.2,215.9 451.4,211.3 452.7,210.0 454.0,211.2 455.3,214.2 456.6,218.6 457.9,223.8 459.2,229.5 460.5,235.4 461.8,241.2 463.0,246.9 464.3,252.3 465.6,257.3 466.9,261.9 468.2,266.0 469.5,269.6 470.8,272.8 472.1,275.6 473.4,277.9 474.6,279.9 475.9,281.5 477.2,282.8 478.5,283.9 479.8,284.7 481.1,285.3 482.4,285.8 483.7,286.1 485.0,286.4 486.3,286.5 487.5,286.5 488.8,286.5 490.1,286.5 491.4,286.4 492.7,286.3 494.0,286.2 495.3,286.1 496.6,285.9 497.9,285.8 499.1,285.7 500.4,285.6 501.7,285.5 503.0,285.4 504.3,285.3 505.6,285.3 506.9,285.2 508.2,285.2 509.5,285.1 510.7,285.1 512.0,285.1 513.3,285.0 514.6,285.0 515.9,285.0 517.2,285.0 518.5,285.0 519.8,285.0 521.1,285.0 522.3,285.0 523.6,285.0 524.9,285.0 526.2,285.0 527.5,285.0 528.8,285.0 530.1,285.0 531.4,285.0 532.7,285.0 533.9,285.0 535.2,285.0 536.5,285.0 537.8,285.0 539.1,285.0 540.4,285.0 541.7,285.0 543.0,285.0 544.3,285.0 545.5,285.0 546.8,285.0 548.1,285.0 549.4,285.0 550.7,285.0 552.0,285.0 553.3,285.0 554.6,285.0 555.9,285.0 557.1,285.0 558.4,285.0 559.7,285.0 561.0,285.0 562.3,285.0 563.6,285.0 564.9,285.0 566.2,285.0 567.5,285.0 568.8,285.0 570.0,285.0 571.3,285.0 572.6,285.0 573.9,285.0 575.2,285.0 576.5,285.0 577.8,285.0 579.1,285.0 580.4,285.0 581.6,285.0 582.9,285.0 584.2,285.0 585.5,285.0 586.8,285.0 588.1,285.0 589.4,285.0 590.7,285.0 592.0,285.0 593.2,285.0 594.5,285.0 595.8,285.0 597.1,285.0 598.4,285.0 599.7,285.0 601.0,285.0 602.3,285.0 603.6,285.0 604.8,285.0 606.1,285.0 607.4,285.0 608.7,285.0 610.0,285.0 611.3,285.0 612.6,285.0 613.9,285.0 615.2,285.0 616.4,285.0 617.7,285.0 619.0,285.0 620.3,285.0 621.6,285.0 622.9,285.0 624.2,285.0 625.5,285.0 626.8,285.0 628.0,285.0 629.3,285.0 630.6,285.0 631.9,285.0 633.2,285.0 634.5,285.0 635.8,285.0 637.1,285.0 638.4,285.0 639.6,285.0 640.9,285.0 642.2,285.0 643.5,285.0 644.8,285.0 646.1,285.0 647.4,285.0 648.7,285.0 650.0,285.0 651.3,285.0 652.5,285.0 653.8,285.0 655.1,285.0 656.4,285.0 657.7,285.0 659.0,285.0 660.3,285.0 661.6,285.0 662.9,285.0 664.1,285.0 665.4,285.0 666.7,285.0 668.0,285.0 669.3,285.0 670.6,285.0 671.9,285.0 673.2,285.0 674.5,285.0 675.7,285.0 677.0,285.0 678.3,285.0 679.6,285.0 680.9,285.0 682.2,285.0 683.5,285.0 684.8,285.0 686.1,285.0 687.3,285.0 688.6,285.0 689.9,285.0 691.2,285.0 692.5,285.0 693.8,285.0 695.1,285.0 696.4,285.0 697.7,285.0 698.9,285.0 700.2,285.0 701.5,285.0 702.8,285.0 704.1,285.0 705.4,285.0 706.7,285.0 708.0,285.0 709.3,285.0 710.5,285.0 711.8,285.0 713.1,285.0 714.4,285.0 715.7,285.0 717.0,285.0 718.3,285.0 719.6,285.0 720.9,285.0 722.1,285.0 723.4,285.0 724.7,285.0 726.0,285.0 727.3,285.0 728.6,285.0 729.9,285.0 731.2,285.0 732.5,285.0 733.8,285.0 735.0,285.0 736.3,285.0 737.6,285.0 738.9,285.0 740.2,285.0 741.5,285.0 742.8,285.0 744.1,285.0 745.4,285.0 746.6,285.0 747.9,285.0 749.2,285.0 750.5,285.0 751.8,285.0 753.1,285.0 754.4,285.0 755.7,285.0 757.0,285.0 758.2,285.0 759.5,285.0 760.8,285.0 762.1,285.0 763.4,285.0 764.7,285.0 766.0,285.0 767.3,285.0 768.6,285.0 769.8,285.0 771.1,285.0 772.4,285.0 773.7,285.0 L773.7,285.0 L445.0,285.0 Z" fill="url(#g528)" clip-path="url(#c530)"/>
  <defs><clipPath id="pc531"><rect x="445" y="210" width="330" height="150"/></clipPath></defs>
  <polyline points="445.0,278.1 446.3,259.1 447.6,238.7 448.9,224.7 450.2,215.9 451.4,211.3 452.7,210.0 454.0,211.2 455.3,214.2 456.6,218.6 457.9,223.8 459.2,229.5 460.5,235.4 461.8,241.2 463.0,246.9 464.3,252.3 465.6,257.3 466.9,261.9 468.2,266.0 469.5,269.6 470.8,272.8 472.1,275.6 473.4,277.9 474.6,279.9 475.9,281.5 477.2,282.8 478.5,283.9 479.8,284.7 481.1,285.3 482.4,285.8 483.7,286.1 485.0,286.4 486.3,286.5 487.5,286.5 488.8,286.5 490.1,286.5 491.4,286.4 492.7,286.3 494.0,286.2 495.3,286.1 496.6,285.9 497.9,285.8 499.1,285.7 500.4,285.6 501.7,285.5 503.0,285.4 504.3,285.3 505.6,285.3 506.9,285.2 508.2,285.2 509.5,285.1 510.7,285.1 512.0,285.1 513.3,285.0 514.6,285.0 515.9,285.0 517.2,285.0 518.5,285.0 519.8,285.0 521.1,285.0 522.3,285.0 523.6,285.0 524.9,285.0 526.2,285.0 527.5,285.0 528.8,285.0 530.1,285.0 531.4,285.0 532.7,285.0 533.9,285.0 535.2,285.0 536.5,285.0 537.8,285.0 539.1,285.0 540.4,285.0 541.7,285.0 543.0,285.0 544.3,285.0 545.5,285.0 546.8,285.0 548.1,285.0 549.4,285.0 550.7,285.0 552.0,285.0 553.3,285.0 554.6,285.0 555.9,285.0 557.1,285.0 558.4,285.0 559.7,285.0 561.0,285.0 562.3,285.0 563.6,285.0 564.9,285.0 566.2,285.0 567.5,285.0 568.8,285.0 570.0,285.0 571.3,285.0 572.6,285.0 573.9,285.0 575.2,285.0 576.5,285.0 577.8,285.0 579.1,285.0 580.4,285.0 581.6,285.0 582.9,285.0 584.2,285.0 585.5,285.0 586.8,285.0 588.1,285.0 589.4,285.0 590.7,285.0 592.0,285.0 593.2,285.0 594.5,285.0 595.8,285.0 597.1,285.0 598.4,285.0 599.7,285.0 601.0,285.0 602.3,285.0 603.6,285.0 604.8,285.0 606.1,285.0 607.4,285.0 608.7,285.0 610.0,285.0 611.3,285.0 612.6,285.0 613.9,285.0 615.2,285.0 616.4,285.0 617.7,285.0 619.0,285.0 620.3,285.0 621.6,285.0 622.9,285.0 624.2,285.0 625.5,285.0 626.8,285.0 628.0,285.0 629.3,285.0 630.6,285.0 631.9,285.0 633.2,285.0 634.5,285.0 635.8,285.0 637.1,285.0 638.4,285.0 639.6,285.0 640.9,285.0 642.2,285.0 643.5,285.0 644.8,285.0 646.1,285.0 647.4,285.0 648.7,285.0 650.0,285.0 651.3,285.0 652.5,285.0 653.8,285.0 655.1,285.0 656.4,285.0 657.7,285.0 659.0,285.0 660.3,285.0 661.6,285.0 662.9,285.0 664.1,285.0 665.4,285.0 666.7,285.0 668.0,285.0 669.3,285.0 670.6,285.0 671.9,285.0 673.2,285.0 674.5,285.0 675.7,285.0 677.0,285.0 678.3,285.0 679.6,285.0 680.9,285.0 682.2,285.0 683.5,285.0 684.8,285.0 686.1,285.0 687.3,285.0 688.6,285.0 689.9,285.0 691.2,285.0 692.5,285.0 693.8,285.0 695.1,285.0 696.4,285.0 697.7,285.0 698.9,285.0 700.2,285.0 701.5,285.0 702.8,285.0 704.1,285.0 705.4,285.0 706.7,285.0 708.0,285.0 709.3,285.0 710.5,285.0 711.8,285.0 713.1,285.0 714.4,285.0 715.7,285.0 717.0,285.0 718.3,285.0 719.6,285.0 720.9,285.0 722.1,285.0 723.4,285.0 724.7,285.0 726.0,285.0 727.3,285.0 728.6,285.0 729.9,285.0 731.2,285.0 732.5,285.0 733.8,285.0 735.0,285.0 736.3,285.0 737.6,285.0 738.9,285.0 740.2,285.0 741.5,285.0 742.8,285.0 744.1,285.0 745.4,285.0 746.6,285.0 747.9,285.0 749.2,285.0 750.5,285.0 751.8,285.0 753.1,285.0 754.4,285.0 755.7,285.0 757.0,285.0 758.2,285.0 759.5,285.0 760.8,285.0 762.1,285.0 763.4,285.0 764.7,285.0 766.0,285.0 767.3,285.0 768.6,285.0 769.8,285.0 771.1,285.0 772.4,285.0 773.7,285.0" fill="none" stroke="#f39c12" stroke-width="1.3" stroke-linejoin="round" clip-path="url(#pc531)"/>
</svg>
