<svg xmlns="http://www.w3.org/2000/svg" viewBox="0 0 800 420" style="font-family:system-ui,-apple-system,sans-serif">
  <text x="55" y="416" font-size="11" font-weight="600" fill="#6b7280">Legendre order 4, fc=1kHz</text>
  <line x1="55" y1="12" x2="55" y2="162" stroke="#d1d5db"/>
  <line x1="55" y1="42.0" x2="385" y2="42.0" stroke="#d1d5db"/>
  <text x="220" y="190" text-anchor="middle" font-size="9" fill="#6b7280">Hz</text>
  <text x="29" y="87" text-anchor="middle" font-size="9" fill="#6b7280" transform="rotate(-90 29 87)">dB</text>
  <line x1="85.1" y1="12" x2="85.1" y2="162" stroke="#e5e7eb" stroke-width="0.5"/>
  <line x1="102.7" y1="12" x2="102.7" y2="162" stroke="#e5e7eb" stroke-width="0.5"/>
  <line x1="115.2" y1="12" x2="115.2" y2="162" stroke="#e5e7eb" stroke-width="0.5"/>
  <line x1="124.9" y1="12" x2="124.9" y2="162" stroke="#e5e7eb" stroke-width="0.5"/>
  <line x1="132.8" y1="12" x2="132.8" y2="162" stroke="#e5e7eb" stroke-width="0.5"/>
  <line x1="139.5" y1="12" x2="139.5" y2="162" stroke="#e5e7eb" stroke-width="0.5"/>
  <line x1="145.3" y1="12" x2="145.3" y2="162" stroke="#e5e7eb" stroke-width="0.5"/>
  <line x1="150.4" y1="12" x2="150.4" y2="162" stroke="#e5e7eb" stroke-width="0.5"/>
  <line x1="185.1" y1="12" x2="185.1" y2="162" stroke="#e5e7eb" stroke-width="0.5"/>
  <line x1="202.7" y1="12" x2="202.7" y2="162" stroke="#e5e7eb" stroke-width="0.5"/>
  <line x1="215.2" y1="12" x2="215.2" y2="162" stroke="#e5e7eb" stroke-width="0.5"/>
  <line x1="224.8" y1="12" x2="224.8" y2="162" stroke="#e5e7eb" stroke-width="0.5"/>
  <line x1="232.8" y1="12" x2="232.8" y2="162" stroke="#e5e7eb" stroke-width="0.5"/>
  <line x1="239.5" y1="12" x2="239.5" y2="162" stroke="#e5e7eb" stroke-width="0.5"/>
  <line x1="245.2" y1="12" x2="245.2" y2="162" stroke="#e5e7eb" stroke-width="0.5"/>
  <line x1="250.4" y1="12" x2="250.4" y2="162" stroke="#e5e7eb" stroke-width="0.5"/>
  <line x1="285.0" y1="12" x2="285.0" y2="162" stroke="#e5e7eb" stroke-width="0.5"/>
  <line x1="302.6" y1="12" x2="302.6" y2="162" stroke="#e5e7eb" stroke-width="0.5"/>
  <line x1="315.1" y1="12" x2="315.1" y2="162" stroke="#e5e7eb" stroke-width="0.5"/>
  <line x1="324.8" y1="12" x2="324.8" y2="162" stroke="#e5e7eb" stroke-width="0.5"/>
  <line x1="332.7" y1="12" x2="332.7" y2="162" stroke="#e5e7eb" stroke-width="0.5"/>
  <line x1="339.4" y1="12" x2="339.4" y2="162" stroke="#e5e7eb" stroke-width="0.5"/>
  <line x1="345.2" y1="12" x2="345.2" y2="162" stroke="#e5e7eb" stroke-width="0.5"/>
  <line x1="350.3" y1="12" x2="350.3" y2="162" stroke="#e5e7eb" stroke-width="0.5"/>
  <line x1="385.0" y1="12" x2="385.0" y2="162" stroke="#e5e7eb" stroke-width="0.5"/>
  <line x1="155.0" y1="12" x2="155.0" y2="162" stroke="#e5e7eb" stroke-width="0.5"/>
  <text x="155.0" y="174" text-anchor="middle" font-size="8" fill="#6b7280">100</text>
  <line x1="254.9" y1="12" x2="254.9" y2="162" stroke="#e5e7eb" stroke-width="0.5"/>
  <text x="254.9" y="174" text-anchor="middle" font-size="8" fill="#6b7280">1k</text>
  <line x1="354.9" y1="12" x2="354.9" y2="162" stroke="#e5e7eb" stroke-width="0.5"/>
  <text x="354.9" y="174" text-anchor="middle" font-size="8" fill="#6b7280">10k</text>
  <line x1="55" y1="27.0" x2="385" y2="27.0" stroke="#e5e7eb" stroke-width="0.5"/>
  <line x1="55" y1="57.0" x2="385" y2="57.0" stroke="#e5e7eb" stroke-width="0.5"/>
  <line x1="55" y1="12.0" x2="385" y2="12.0" stroke="#e5e7eb" stroke-width="0.5"/>
  <text x="51" y="15.0" text-anchor="end" font-size="8" fill="#6b7280">+20</text>
  <text x="51" y="45.0" text-anchor="end" font-size="8" fill="#6b7280">0</text>
  <line x1="55" y1="72.0" x2="385" y2="72.0" stroke="#e5e7eb" stroke-width="0.5"/>
  <text x="51" y="75.0" text-anchor="end" font-size="8" fill="#6b7280">-20</text>
  <line x1="55" y1="102.0" x2="385" y2="102.0" stroke="#e5e7eb" stroke-width="0.5"/>
  <text x="51" y="105.0" text-anchor="end" font-size="8" fill="#6b7280">-40</text>
  <line x1="55" y1="132.0" x2="385" y2="132.0" stroke="#e5e7eb" stroke-width="0.5"/>
  <text x="51" y="135.0" text-anchor="end" font-size="8" fill="#6b7280">-60</text>
  <line x1="55" y1="162.0" x2="385" y2="162.0" stroke="#e5e7eb" stroke-width="0.5"/>
  <text x="51" y="165.0" text-anchor="end" font-size="8" fill="#6b7280">-80</text>
  <defs><linearGradient id="g116" x1="0" y1="12" x2="0" y2="162" gradientUnits="userSpaceOnUse">
    <stop offset="0%" stop-color="#4a90d9" stop-opacity="0.15"/>
    <stop offset="100%" stop-color="#4a90d9" stop-opacity="0.02"/>
  </linearGradient></defs>
  <path d="M58.2,42.0 58.2,42.0 88.3,42.0 105.9,42.0 118.4,42.0 128.1,42.0 136.0,42.0 142.7,42.0 148.5,42.0 153.6,42.0 158.2,42.0 162.3,42.0 166.1,42.0 169.6,42.0 172.8,42.0 175.8,42.0 178.6,42.0 181.2,42.0 183.7,42.0 186.0,42.0 188.3,42.0 190.4,42.0 192.4,42.1 194.3,42.1 196.2,42.1 198.0,42.1 199.7,42.1 201.3,42.1 202.9,42.1 204.4,42.1 205.9,42.2 207.3,42.2 208.7,42.2 210.0,42.2 211.3,42.2 212.6,42.3 213.8,42.3 215.0,42.3 216.1,42.3 217.3,42.3 218.4,42.4 219.4,42.4 220.5,42.4 221.5,42.4 222.5,42.5 223.5,42.5 224.4,42.5 225.4,42.5 226.3,42.6 227.2,42.6 228.1,42.6 228.9,42.6 229.8,42.7 230.6,42.7 231.4,42.7 233.0,42.7 234.5,42.7 236.0,42.8 237.4,42.8 238.8,42.8 240.1,42.8 241.4,42.8 242.7,42.8 243.9,42.8 245.1,42.8 246.2,42.9 247.4,43.0 248.5,43.2 249.5,43.4 250.6,43.8 251.6,44.2 252.6,44.8 253.6,45.4 254.5,46.2 255.5,47.0 256.4,47.9 257.3,48.9 258.1,50.0 259.0,51.1 259.8,52.2 260.7,53.3 261.5,54.5 262.7,56.2 263.8,57.9 265.0,59.5 266.1,61.2 267.1,62.7 268.2,64.3 269.2,65.8 270.2,67.2 271.2,68.6 272.1,70.0 273.1,71.3 274.0,72.6 274.9,73.9 275.7,75.1 276.6,76.3 277.5,77.5 278.3,78.6 279.1,79.7 280.1,81.2 281.2,82.6 282.2,83.9 283.2,85.3 284.1,86.6 285.1,87.8 286.0,89.1 286.9,90.3 287.8,91.4 288.7,92.6 289.5,93.7 290.4,94.8 291.2,95.9 292.0,96.9 293.0,98.2 293.9,99.4 294.9,100.7 295.8,101.8 296.7,103.0 297.6,104.2 298.4,105.3 299.3,106.4 300.1,107.4 300.9,108.5 301.7,109.5 302.7,110.7 303.6,111.9 304.5,113.1 305.4,114.2 306.3,115.3 307.1,116.4 308.0,117.5 308.8,118.6 309.6,119.6 310.5,120.8 311.4,121.9 312.3,123.1 313.2,124.2 314.0,125.3 314.8,126.4 315.6,127.4 316.4,128.5 317.3,129.6 318.2,130.8 319.1,131.9 319.9,133.0 320.8,134.1 321.6,135.1 322.5,136.3 323.3,137.5 324.2,138.6 325.1,139.7 325.9,140.8 326.7,141.9 327.6,143.1 328.5,144.3 329.3,145.4 330.1,146.5 331.0,147.6 331.8,148.7 332.6,149.9 333.5,151.1 334.3,152.2 335.1,153.4 335.9,154.5 336.8,155.7 337.6,156.9 338.5,158.1 339.3,159.2 340.1,160.5 341.0,161.7 341.8,162.0 342.6,162.0 343.5,162.0 344.3,162.0 345.2,162.0 346.0,162.0 346.8,162.0 347.7,162.0 348.5,162.0 349.3,162.0 350.1,162.0 351.0,162.0 351.8,162.0 352.6,162.0 353.4,162.0 354.3,162.0 355.1,162.0 355.9,162.0 356.7,162.0 357.6,162.0 358.4,162.0 359.2,162.0 360.1,162.0 360.9,162.0 361.7,162.0 362.5,162.0 363.3,162.0 364.1,162.0 365.0,162.0 365.8,162.0 366.6,162.0 367.4,162.0 368.3,162.0 369.1,162.0 369.9,162.0 370.7,162.0 371.5,162.0 372.3,162.0 373.1,162.0 373.9,162.0 374.8,162.0 375.6,162.0 376.4,162.0 377.2,162.0 378.0,162.0 378.8,162.0 379.6,162.0 380.4,162.0 381.3,162.0 382.1,162.0 382.9,162.0 383.7,162.0 384.5,162.0 L384.5,162.0 L58.2,162.0 Z" fill="url(#g116)"/>
  <defs><clipPath id="pc117"><rect x="55" y="12" width="330" height="150"/></clipPath></defs>
  <polyline points="58.2,42.0 88.3,42.0 105.9,42.0 118.4,42.0 128.1,42.0 136.0,42.0 142.7,42.0 148.5,42.0 153.6,42.0 158.2,42.0 162.3,42.0 166.1,42.0 169.6,42.0 172.8,42.0 175.8,42.0 178.6,42.0 181.2,42.0 183.7,42.0 186.0,42.0 188.3,42.0 190.4,42.0 192.4,42.1 194.3,42.1 196.2,42.1 198.0,42.1 199.7,42.1 201.3,42.1 202.9,42.1 204.4,42.1 205.9,42.2 207.3,42.2 208.7,42.2 210.0,42.2 211.3,42.2 212.6,42.3 213.8,42.3 215.0,42.3 216.1,42.3 217.3,42.3 218.4,42.4 219.4,42.4 220.5,42.4 221.5,42.4 222.5,42.5 223.5,42.5 224.4,42.5 225.4,42.5 226.3,42.6 227.2,42.6 228.1,42.6 228.9,42.6 229.8,42.7 230.6,42.7 231.4,42.7 233.0,42.7 234.5,42.7 236.0,42.8 237.4,42.8 238.8,42.8 240.1,42.8 241.4,42.8 242.7,42.8 243.9,42.8 245.1,42.8 246.2,42.9 247.4,43.0 248.5,43.2 249.5,43.4 250.6,43.8 251.6,44.2 252.6,44.8 253.6,45.4 254.5,46.2 255.5,47.0 256.4,47.9 257.3,48.9 258.1,50.0 259.0,51.1 259.8,52.2 260.7,53.3 261.5,54.5 262.7,56.2 263.8,57.9 265.0,59.5 266.1,61.2 267.1,62.7 268.2,64.3 269.2,65.8 270.2,67.2 271.2,68.6 272.1,70.0 273.1,71.3 274.0,72.6 274.9,73.9 275.7,75.1 276.6,76.3 277.5,77.5 278.3,78.6 279.1,79.7 280.1,81.2 281.2,82.6 282.2,83.9 283.2,85.3 284.1,86.6 285.1,87.8 286.0,89.1 286.9,90.3 287.8,91.4 288.7,92.6 289.5,93.7 290.4,94.8 291.2,95.9 292.0,96.9 293.0,98.2 293.9,99.4 294.9,100.7 295.8,101.8 296.7,103.0 297.6,104.2 298.4,105.3 299.3,106.4 300.1,107.4 300.9,108.5 301.7,109.5 302.7,110.7 303.6,111.9 304.5,113.1 305.4,114.2 306.3,115.3 307.1,116.4 308.0,117.5 308.8,118.6 309.6,119.6 310.5,120.8 311.4,121.9 312.3,123.1 313.2,124.2 314.0,125.3 314.8,126.4 315.6,127.4 316.4,128.5 317.3,129.6 318.2,130.8 319.1,131.9 319.9,133.0 320.8,134.1 321.6,135.1 322.5,136.3 323.3,137.5 324.2,138.6 325.1,139.7 325.9,140.8 326.7,141.9 327.6,143.1 328.5,144.3 329.3,145.4 330.1,146.5 331.0,147.6 331.8,148.7 332.6,149.9 333.5,151.1 334.3,152.2 335.1,153.4 335.9,154.5 336.8,155.7 337.6,156.9 338.5,158.1 339.3,159.2 340.1,160.5 341.0,161.7 341.8,162.9 342.6,164.1 343.5,165.4 344.3,166.6 345.2,167.9 346.0,169.1 346.8,170.4 347.7,171.7 348.5,173.0 349.3,174.3 350.1,175.6 351.0,176.9 351.8,178.3 352.6,179.7 353.4,181.1 354.3,182.4 355.1,183.9 355.9,185.4 356.7,186.8 357.6,188.3 358.4,189.9 359.2,191.4 360.1,193.0 360.9,194.6 361.7,196.2 362.5,197.9 363.3,199.6 364.1,201.3 365.0,203.1 365.8,204.9 366.6,206.8 367.4,208.7 368.3,210.8 369.1,212.9 369.9,215.0 370.7,217.2 371.5,219.5 372.3,221.9 373.1,224.4 373.9,227.0 374.8,229.8 375.6,232.7 376.4,235.7 377.2,239.0 378.0,242.5 378.8,246.2 379.6,250.2 380.4,254.6 381.3,259.5 382.1,264.8 382.9,270.8 383.7,277.5 384.5,285.5" fill="none" stroke="#4a90d9" stroke-width="1.5" stroke-linejoin="round" clip-path="url(#pc117)"/>
  <line x1="445" y1="12" x2="445" y2="162" stroke="#d1d5db"/>
  <line x1="445" y1="87.0" x2="775" y2="87.0" stroke="#d1d5db"/>
  <text x="610" y="190" text-anchor="middle" font-size="9" fill="#6b7280">Hz</text>
  <text x="419" y="87" text-anchor="middle" font-size="9" fill="#6b7280" transform="rotate(-90 419 87)">Phase (deg)</text>
  <line x1="475.1" y1="12" x2="475.1" y2="162" stroke="#e5e7eb" stroke-width="0.5"/>
  <line x1="492.7" y1="12" x2="492.7" y2="162" stroke="#e5e7eb" stroke-width="0.5"/>
  <line x1="505.2" y1="12" x2="505.2" y2="162" stroke="#e5e7eb" stroke-width="0.5"/>
  <line x1="514.9" y1="12" x2="514.9" y2="162" stroke="#e5e7eb" stroke-width="0.5"/>
  <line x1="522.8" y1="12" x2="522.8" y2="162" stroke="#e5e7eb" stroke-width="0.5"/>
  <line x1="529.5" y1="12" x2="529.5" y2="162" stroke="#e5e7eb" stroke-width="0.5"/>
  <line x1="535.3" y1="12" x2="535.3" y2="162" stroke="#e5e7eb" stroke-width="0.5"/>
  <line x1="540.4" y1="12" x2="540.4" y2="162" stroke="#e5e7eb" stroke-width="0.5"/>
  <line x1="575.1" y1="12" x2="575.1" y2="162" stroke="#e5e7eb" stroke-width="0.5"/>
  <line x1="592.7" y1="12" x2="592.7" y2="162" stroke="#e5e7eb" stroke-width="0.5"/>
  <line x1="605.2" y1="12" x2="605.2" y2="162" stroke="#e5e7eb" stroke-width="0.5"/>
  <line x1="614.8" y1="12" x2="614.8" y2="162" stroke="#e5e7eb" stroke-width="0.5"/>
  <line x1="622.8" y1="12" x2="622.8" y2="162" stroke="#e5e7eb" stroke-width="0.5"/>
  <line x1="629.5" y1="12" x2="629.5" y2="162" stroke="#e5e7eb" stroke-width="0.5"/>
  <line x1="635.2" y1="12" x2="635.2" y2="162" stroke="#e5e7eb" stroke-width="0.5"/>
  <line x1="640.4" y1="12" x2="640.4" y2="162" stroke="#e5e7eb" stroke-width="0.5"/>
  <line x1="675.0" y1="12" x2="675.0" y2="162" stroke="#e5e7eb" stroke-width="0.5"/>
  <line x1="692.6" y1="12" x2="692.6" y2="162" stroke="#e5e7eb" stroke-width="0.5"/>
  <line x1="705.1" y1="12" x2="705.1" y2="162" stroke="#e5e7eb" stroke-width="0.5"/>
  <line x1="714.8" y1="12" x2="714.8" y2="162" stroke="#e5e7eb" stroke-width="0.5"/>
  <line x1="722.7" y1="12" x2="722.7" y2="162" stroke="#e5e7eb" stroke-width="0.5"/>
  <line x1="729.4" y1="12" x2="729.4" y2="162" stroke="#e5e7eb" stroke-width="0.5"/>
  <line x1="735.2" y1="12" x2="735.2" y2="162" stroke="#e5e7eb" stroke-width="0.5"/>
  <line x1="740.3" y1="12" x2="740.3" y2="162" stroke="#e5e7eb" stroke-width="0.5"/>
  <line x1="775.0" y1="12" x2="775.0" y2="162" stroke="#e5e7eb" stroke-width="0.5"/>
  <line x1="545.0" y1="12" x2="545.0" y2="162" stroke="#e5e7eb" stroke-width="0.5"/>
  <text x="545.0" y="174" text-anchor="middle" font-size="8" fill="#6b7280">100</text>
  <line x1="644.9" y1="12" x2="644.9" y2="162" stroke="#e5e7eb" stroke-width="0.5"/>
  <text x="644.9" y="174" text-anchor="middle" font-size="8" fill="#6b7280">1k</text>
  <line x1="744.9" y1="12" x2="744.9" y2="162" stroke="#e5e7eb" stroke-width="0.5"/>
  <text x="744.9" y="174" text-anchor="middle" font-size="8" fill="#6b7280">10k</text>
  <line x1="445" y1="53.3" x2="775" y2="53.3" stroke="#e5e7eb" stroke-width="0.5"/>
  <line x1="445" y1="120.8" x2="775" y2="120.8" stroke="#e5e7eb" stroke-width="0.5"/>
  <line x1="445" y1="19.5" x2="775" y2="19.5" stroke="#e5e7eb" stroke-width="0.5"/>
  <text x="441" y="22.5" text-anchor="end" font-size="8" fill="#6b7280">180</text>
  <text x="441" y="90.0" text-anchor="end" font-size="8" fill="#6b7280">0</text>
  <line x1="445" y1="154.5" x2="775" y2="154.5" stroke="#e5e7eb" stroke-width="0.5"/>
  <text x="441" y="157.5" text-anchor="end" font-size="8" fill="#6b7280">-180</text>
  <defs><linearGradient id="g118" x1="0" y1="162" x2="0" y2="87.0" gradientUnits="userSpaceOnUse">
    <stop offset="0%" stop-color="#e74c3c" stop-opacity="0.15"/>
    <stop offset="100%" stop-color="#e74c3c" stop-opacity="0.02"/>
  </linearGradient></defs>
  <path d="M448.2,87.7 448.2,87.7 478.3,88.4 495.9,89.1 508.4,89.8 518.1,90.5 526.0,91.2 532.7,91.9 538.5,92.6 543.6,93.3 548.2,94.0 552.3,94.8 556.1,95.5 559.6,96.2 562.8,96.9 565.8,97.6 568.6,98.3 571.2,99.0 573.7,99.8 576.0,100.5 578.3,101.2 580.4,101.9 582.4,102.7 584.3,103.4 586.2,104.1 588.0,104.8 589.7,105.6 591.3,106.3 592.9,107.0 594.4,107.8 595.9,108.5 597.3,109.3 598.7,110.0 600.0,110.7 601.3,111.5 602.6,112.2 603.8,113.0 605.0,113.7 606.1,114.4 607.3,115.2 608.4,115.9 609.4,116.7 610.5,117.4 611.5,118.2 612.5,118.9 613.5,119.7 614.4,120.4 615.4,121.2 616.3,121.9 617.2,122.7 618.1,123.5 618.9,124.2 619.8,125.0 620.6,125.8 621.4,126.5 623.0,128.1 624.5,129.7 626.0,131.3 627.4,133.0 628.8,134.7 630.1,136.5 631.4,138.3 632.7,140.2 633.9,142.2 635.1,144.3 636.2,146.4 637.4,148.7 638.5,151.0 639.5,153.5 640.6,156.0 641.6,158.5 642.6,161.1 643.6,162.0 644.5,162.0 645.5,162.0 646.4,162.0 647.3,162.0 648.1,162.0 649.0,162.0 649.8,162.0 650.7,162.0 651.5,162.0 652.7,162.0 653.8,162.0 655.0,162.0 656.1,162.0 657.1,162.0 658.2,162.0 659.2,162.0 660.2,162.0 661.2,162.0 662.1,162.0 663.1,162.0 664.0,162.0 664.9,162.0 665.7,162.0 666.6,162.0 667.5,162.0 668.3,162.0 669.1,162.0 670.1,162.0 671.2,162.0 672.2,162.0 673.2,162.0 674.1,162.0 675.1,162.0 676.0,162.0 676.9,162.0 677.8,162.0 678.7,162.0 679.5,162.0 680.4,162.0 681.2,162.0 682.0,162.0 683.0,162.0 683.9,162.0 684.9,162.0 685.8,162.0 686.7,162.0 687.6,162.0 688.4,162.0 689.3,162.0 690.1,162.0 690.9,162.0 691.7,162.0 692.7,162.0 693.6,162.0 694.5,162.0 695.4,162.0 696.3,162.0 697.1,162.0 698.0,162.0 698.8,162.0 699.6,162.0 700.5,162.0 701.4,162.0 702.3,162.0 703.2,162.0 704.0,162.0 704.8,162.0 705.6,162.0 706.4,162.0 707.3,162.0 708.2,162.0 709.1,162.0 709.9,162.0 710.8,162.0 711.6,162.0 712.5,162.0 713.3,162.0 714.2,162.0 715.1,162.0 715.9,162.0 716.7,162.0 717.6,162.0 718.5,162.0 719.3,162.0 720.1,162.0 721.0,162.0 721.8,162.0 722.6,162.0 723.5,162.0 724.3,162.0 725.1,162.0 725.9,162.0 726.8,162.0 727.6,162.0 728.5,162.0 729.3,162.0 730.1,162.0 731.0,162.0 731.8,162.0 732.6,162.0 733.5,162.0 734.3,162.0 735.2,162.0 736.0,162.0 736.8,162.0 737.7,162.0 738.5,162.0 739.3,162.0 740.1,162.0 741.0,162.0 741.8,162.0 742.6,162.0 743.4,162.0 744.3,162.0 745.1,162.0 745.9,162.0 746.7,162.0 747.6,162.0 748.4,162.0 749.2,162.0 750.1,162.0 750.9,162.0 751.7,162.0 752.5,162.0 753.3,162.0 754.1,162.0 755.0,162.0 755.8,162.0 756.6,162.0 757.4,162.0 758.3,162.0 759.1,162.0 759.9,162.0 760.7,162.0 761.5,162.0 762.3,162.0 763.1,162.0 763.9,162.0 764.8,162.0 765.6,162.0 766.4,162.0 767.2,162.0 768.0,162.0 768.8,162.0 769.6,162.0 770.4,162.0 771.3,162.0 772.1,162.0 772.9,162.0 773.7,162.0 774.5,162.0 L774.5,87.0 L448.2,87.0 Z" fill="url(#g118)"/>
  <defs><clipPath id="pc119"><rect x="445" y="12" width="330" height="150"/></clipPath></defs>
  <polyline points="448.2,87.7 478.3,88.4 495.9,89.1 508.4,89.8 518.1,90.5 526.0,91.2 532.7,91.9 538.5,92.6 543.6,93.3 548.2,94.0 552.3,94.8 556.1,95.5 559.6,96.2 562.8,96.9 565.8,97.6 568.6,98.3 571.2,99.0 573.7,99.8 576.0,100.5 578.3,101.2 580.4,101.9 582.4,102.7 584.3,103.4 586.2,104.1 588.0,104.8 589.7,105.6 591.3,106.3 592.9,107.0 594.4,107.8 595.9,108.5 597.3,109.3 598.7,110.0 600.0,110.7 601.3,111.5 602.6,112.2 603.8,113.0 605.0,113.7 606.1,114.4 607.3,115.2 608.4,115.9 609.4,116.7 610.5,117.4 611.5,118.2 612.5,118.9 613.5,119.7 614.4,120.4 615.4,121.2 616.3,121.9 617.2,122.7 618.1,123.5 618.9,124.2 619.8,125.0 620.6,125.8 621.4,126.5 623.0,128.1 624.5,129.7 626.0,131.3 627.4,133.0 628.8,134.7 630.1,136.5 631.4,138.3 632.7,140.2 633.9,142.2 635.1,144.3 636.2,146.4 637.4,148.7 638.5,151.0 639.5,153.5 640.6,156.0 641.6,158.5 642.6,161.1 643.6,163.6 644.5,166.1 645.5,168.5 646.4,170.8 647.3,173.0 648.1,175.0 649.0,176.9 649.8,178.7 650.7,180.3 651.5,181.8 652.7,183.9 653.8,185.7 655.0,187.4 656.1,188.8 657.1,190.2 658.2,191.4 659.2,192.5 660.2,193.5 661.2,194.5 662.1,195.4 663.1,196.2 664.0,196.9 664.9,197.6 665.7,198.3 666.6,198.9 667.5,199.5 668.3,200.0 669.1,200.6 670.1,201.2 671.2,201.8 672.2,202.4 673.2,203.0 674.1,203.5 675.1,203.9 676.0,204.4 676.9,204.8 677.8,205.2 678.7,205.6 679.5,206.0 680.4,206.3 681.2,206.7 682.0,207.0 683.0,207.4 683.9,207.7 684.9,208.1 685.8,208.4 686.7,208.7 687.6,209.0 688.4,209.3 689.3,209.6 690.1,209.8 690.9,210.1 691.7,210.3 692.7,210.6 693.6,210.9 694.5,211.1 695.4,211.4 696.3,211.6 697.1,211.8 698.0,212.0 698.8,212.2 699.6,212.4 700.5,212.7 701.4,212.9 702.3,213.1 703.2,213.3 704.0,213.4 704.8,213.6 705.6,213.8 706.4,214.0 707.3,214.1 708.2,214.3 709.1,214.5 709.9,214.6 710.8,214.8 711.6,214.9 712.5,215.1 713.3,215.2 714.2,215.4 715.1,215.5 715.9,215.7 716.7,215.8 717.6,215.9 718.5,216.1 719.3,216.2 720.1,216.3 721.0,216.4 721.8,216.6 722.6,216.7 723.5,216.8 724.3,216.9 725.1,217.0 725.9,217.1 726.8,217.2 727.6,217.4 728.5,217.5 729.3,217.6 730.1,217.7 731.0,217.8 731.8,217.9 732.6,218.0 733.5,218.1 734.3,218.2 735.2,218.2 736.0,218.3 736.8,218.4 737.7,218.5 738.5,218.6 739.3,218.7 740.1,218.8 741.0,218.8 741.8,218.9 742.6,219.0 743.4,219.1 744.3,219.2 745.1,219.2 745.9,219.3 746.7,219.4 747.6,219.5 748.4,219.5 749.2,219.6 750.1,219.7 750.9,219.8 751.7,219.8 752.5,219.9 753.3,220.0 754.1,220.0 755.0,220.1 755.8,220.2 756.6,220.2 757.4,220.3 758.3,220.4 759.1,220.4 759.9,220.5 760.7,220.5 761.5,220.6 762.3,220.7 763.1,220.7 763.9,220.8 764.8,220.9 765.6,220.9 766.4,221.0 767.2,221.0 768.0,221.1 768.8,221.2 769.6,221.2 770.4,221.3 771.3,221.4 772.1,221.4 772.9,221.5 773.7,221.5 774.5,221.6" fill="none" stroke="#e74c3c" stroke-width="1.5" stroke-linejoin="round" clip-path="url(#pc119)"/>
  <line x1="55" y1="210" x2="55" y2="360" stroke="#d1d5db"/>
  <line x1="55" y1="285.0" x2="385" y2="285.0" stroke="#d1d5db"/>
  <text x="220" y="388" text-anchor="middle" font-size="9" fill="#6b7280">Hz</text>
  <text x="29" y="285" text-anchor="middle" font-size="9" fill="#6b7280" transform="rotate(-90 29 285)">Group delay</text>
  <line x1="85.1" y1="210" x2="85.1" y2="360" stroke="#e5e7eb" stroke-width="0.5"/>
  <line x1="102.7" y1="210" x2="102.7" y2="360" stroke="#e5e7eb" stroke-width="0.5"/>
  <line x1="115.2" y1="210" x2="115.2" y2="360" stroke="#e5e7eb" stroke-width="0.5"/>
  <line x1="124.9" y1="210" x2="124.9" y2="360" stroke="#e5e7eb" stroke-width="0.5"/>
  <line x1="132.8" y1="210" x2="132.8" y2="360" stroke="#e5e7eb" stroke-width="0.5"/>
  <line x1="139.5" y1="210" x2="139.5" y2="360" stroke="#e5e7eb" stroke-width="0.5"/>
  <line x1="145.3" y1="210" x2="145.3" y2="360" stroke="#e5e7eb" stroke-width="0.5"/>
  <line x1="150.4" y1="210" x2="150.4" y2="360" stroke="#e5e7eb" stroke-width="0.5"/>
  <line x1="185.1" y1="210" x2="185.1" y2="360" stroke="#e5e7eb" stroke-width="0.5"/>
  <line x1="202.7" y1="210" x2="202.7" y2="360" stroke="#e5e7eb" stroke-width="0.5"/>
  <line x1="215.2" y1="210" x2="215.2" y2="360" stroke="#e5e7eb" stroke-width="0.5"/>
  <line x1="224.8" y1="210" x2="224.8" y2="360" stroke="#e5e7eb" stroke-width="0.5"/>
  <line x1="232.8" y1="210" x2="232.8" y2="360" stroke="#e5e7eb" stroke-width="0.5"/>
  <line x1="239.5" y1="210" x2="239.5" y2="360" stroke="#e5e7eb" stroke-width="0.5"/>
  <line x1="245.2" y1="210" x2="245.2" y2="360" stroke="#e5e7eb" stroke-width="0.5"/>
  <line x1="250.4" y1="210" x2="250.4" y2="360" stroke="#e5e7eb" stroke-width="0.5"/>
  <line x1="285.0" y1="210" x2="285.0" y2="360" stroke="#e5e7eb" stroke-width="0.5"/>
  <line x1="302.6" y1="210" x2="302.6" y2="360" stroke="#e5e7eb" stroke-width="0.5"/>
  <line x1="315.1" y1="210" x2="315.1" y2="360" stroke="#e5e7eb" stroke-width="0.5"/>
  <line x1="324.8" y1="210" x2="324.8" y2="360" stroke="#e5e7eb" stroke-width="0.5"/>
  <line x1="332.7" y1="210" x2="332.7" y2="360" stroke="#e5e7eb" stroke-width="0.5"/>
  <line x1="339.4" y1="210" x2="339.4" y2="360" stroke="#e5e7eb" stroke-width="0.5"/>
  <line x1="345.2" y1="210" x2="345.2" y2="360" stroke="#e5e7eb" stroke-width="0.5"/>
  <line x1="350.3" y1="210" x2="350.3" y2="360" stroke="#e5e7eb" stroke-width="0.5"/>
  <line x1="385.0" y1="210" x2="385.0" y2="360" stroke="#e5e7eb" stroke-width="0.5"/>
  <line x1="155.0" y1="210" x2="155.0" y2="360" stroke="#e5e7eb" stroke-width="0.5"/>
  <text x="155.0" y="372" text-anchor="middle" font-size="8" fill="#6b7280">100</text>
  <line x1="254.9" y1="210" x2="254.9" y2="360" stroke="#e5e7eb" stroke-width="0.5"/>
  <text x="254.9" y="372" text-anchor="middle" font-size="8" fill="#6b7280">1k</text>
  <line x1="354.9" y1="210" x2="354.9" y2="360" stroke="#e5e7eb" stroke-width="0.5"/>
  <text x="354.9" y="372" text-anchor="middle" font-size="8" fill="#6b7280">10k</text>
  <line x1="55" y1="329.2" x2="385" y2="329.2" stroke="#e5e7eb" stroke-width="0.5"/>
  <text x="51" y="332.2" text-anchor="end" font-size="8" fill="#6b7280">-2000</text>
  <text x="51" y="288.0" text-anchor="end" font-size="8" fill="#6b7280">0</text>
  <line x1="55" y1="240.8" x2="385" y2="240.8" stroke="#e5e7eb" stroke-width="0.5"/>
  <text x="51" y="243.8" text-anchor="end" font-size="8" fill="#6b7280">2000</text>
  <defs><linearGradient id="g120" x1="0" y1="360" x2="0" y2="285.0" gradientUnits="userSpaceOnUse">
    <stop offset="0%" stop-color="#2ecc71" stop-opacity="0.15"/>
    <stop offset="100%" stop-color="#2ecc71" stop-opacity="0.02"/>
  </linearGradient></defs>
  <path d="M58.2,285.0 58.2,285.0 88.3,285.0 105.9,285.0 118.4,285.0 128.1,285.0 136.0,285.0 142.7,285.0 148.5,285.0 153.6,285.0 158.2,285.0 162.3,285.0 166.1,285.0 169.6,285.0 172.8,285.0 175.8,285.0 178.6,285.0 181.2,285.0 183.7,285.0 186.0,285.0 188.3,285.0 190.4,285.0 192.4,285.0 194.3,285.0 196.2,285.0 198.0,285.0 199.7,285.0 201.3,285.0 202.9,285.0 204.4,285.0 205.9,285.0 207.3,285.0 208.7,285.0 210.0,285.0 211.3,285.0 212.6,285.0 213.8,285.0 215.0,285.0 216.1,285.0 217.3,285.0 218.4,285.0 219.4,285.0 220.5,285.0 221.5,285.0 222.5,285.0 223.5,285.0 224.4,285.0 225.4,285.0 226.3,285.0 227.2,285.0 228.1,285.0 228.9,285.0 229.8,285.0 230.6,285.0 231.4,285.0 233.0,285.0 234.5,285.0 236.0,285.0 237.4,285.0 238.8,285.0 240.1,285.0 241.4,285.0 242.7,285.0 243.9,285.0 245.1,285.0 246.2,285.1 247.4,285.1 248.5,285.1 249.5,285.2 250.6,285.2 251.6,285.3 252.6,285.3 253.6,285.4 254.5,285.4 255.5,285.5 256.4,285.5 257.3,285.6 258.1,285.6 259.0,285.6 259.8,285.6 260.7,285.6 261.5,285.6 262.7,285.6 263.8,285.6 265.0,285.6 266.1,285.6 267.1,285.6 268.2,285.6 269.2,285.5 270.2,285.5 271.2,285.5 272.1,285.5 273.1,285.5 274.0,285.5 274.9,285.5 275.7,285.4 276.6,285.4 277.5,285.4 278.3,285.4 279.1,285.4 280.1,285.4 281.2,285.4 282.2,285.4 283.2,285.4 284.1,285.4 285.1,285.3 286.0,285.3 286.9,285.3 287.8,285.3 288.7,285.3 289.5,285.3 290.4,285.3 291.2,285.3 292.0,285.3 293.0,285.3 293.9,285.3 294.9,285.3 295.8,285.3 296.7,285.3 297.6,285.3 298.4,285.2 299.3,285.2 300.1,285.2 300.9,285.2 301.7,285.2 302.7,285.2 303.6,285.2 304.5,285.2 305.4,285.2 306.3,285.2 307.1,285.2 308.0,285.2 308.8,285.2 309.6,285.2 310.5,285.2 311.4,285.2 312.3,285.2 313.2,285.2 314.0,285.2 314.8,285.2 315.6,285.2 316.4,285.2 317.3,285.2 318.2,285.2 319.1,285.2 319.9,285.2 320.8,285.1 321.6,285.1 322.5,285.1 323.3,285.1 324.2,285.1 325.1,285.1 325.9,285.1 326.7,285.1 327.6,285.1 328.5,285.1 329.3,285.1 330.1,285.1 331.0,285.1 331.8,285.1 332.6,285.1 333.5,285.1 334.3,285.1 335.1,285.1 335.9,285.1 336.8,285.1 337.6,285.1 338.5,285.1 339.3,285.1 340.1,285.1 341.0,285.1 341.8,285.1 342.6,285.1 343.5,285.1 344.3,285.1 345.2,285.1 346.0,285.1 346.8,285.1 347.7,285.1 348.5,285.1 349.3,285.1 350.1,285.1 351.0,285.1 351.8,285.1 352.6,285.1 353.4,285.1 354.3,285.1 355.1,285.1 355.9,285.1 356.7,285.1 357.6,285.1 358.4,285.1 359.2,285.1 360.1,285.1 360.9,285.1 361.7,285.1 362.5,285.1 363.3,285.1 364.1,285.1 365.0,285.1 365.8,285.1 366.6,285.1 367.4,285.1 368.3,285.1 369.1,285.1 369.9,285.1 370.7,285.1 371.5,285.1 372.3,285.1 373.1,285.1 373.9,285.1 374.8,285.1 375.6,285.1 376.4,285.1 377.2,285.1 378.0,285.1 378.8,285.1 379.6,285.2 380.4,285.2 381.3,285.2 382.1,285.2 382.9,285.2 383.7,285.2 384.5,285.3 L384.5,285.0 L58.2,285.0 Z" fill="url(#g120)"/>
  <defs><clipPath id="pc121"><rect x="55" y="210" width="330" height="150"/></clipPath></defs>
  <polyline points="58.2,285.0 88.3,285.0 105.9,285.0 118.4,285.0 128.1,285.0 136.0,285.0 142.7,285.0 148.5,285.0 153.6,285.0 158.2,285.0 162.3,285.0 166.1,285.0 169.6,285.0 172.8,285.0 175.8,285.0 178.6,285.0 181.2,285.0 183.7,285.0 186.0,285.0 188.3,285.0 190.4,285.0 192.4,285.0 194.3,285.0 196.2,285.0 198.0,285.0 199.7,285.0 201.3,285.0 202.9,285.0 204.4,285.0 205.9,285.0 207.3,285.0 208.7,285.0 210.0,285.0 211.3,285.0 212.6,285.0 213.8,285.0 215.0,285.0 216.1,285.0 217.3,285.0 218.4,285.0 219.4,285.0 220.5,285.0 221.5,285.0 222.5,285.0 223.5,285.0 224.4,285.0 225.4,285.0 226.3,285.0 227.2,285.0 228.1,285.0 228.9,285.0 229.8,285.0 230.6,285.0 231.4,285.0 233.0,285.0 234.5,285.0 236.0,285.0 237.4,285.0 238.8,285.0 240.1,285.0 241.4,285.0 242.7,285.0 243.9,285.0 245.1,285.0 246.2,285.1 247.4,285.1 248.5,285.1 249.5,285.2 250.6,285.2 251.6,285.3 252.6,285.3 253.6,285.4 254.5,285.4 255.5,285.5 256.4,285.5 257.3,285.6 258.1,285.6 259.0,285.6 259.8,285.6 260.7,285.6 261.5,285.6 262.7,285.6 263.8,285.6 265.0,285.6 266.1,285.6 267.1,285.6 268.2,285.6 269.2,285.5 270.2,285.5 271.2,285.5 272.1,285.5 273.1,285.5 274.0,285.5 274.9,285.5 275.7,285.4 276.6,285.4 277.5,285.4 278.3,285.4 279.1,285.4 280.1,285.4 281.2,285.4 282.2,285.4 283.2,285.4 284.1,285.4 285.1,285.3 286.0,285.3 286.9,285.3 287.8,285.3 288.7,285.3 289.5,285.3 290.4,285.3 291.2,285.3 292.0,285.3 293.0,285.3 293.9,285.3 294.9,285.3 295.8,285.3 296.7,285.3 297.6,285.3 298.4,285.2 299.3,285.2 300.1,285.2 300.9,285.2 301.7,285.2 302.7,285.2 303.6,285.2 304.5,285.2 305.4,285.2 306.3,285.2 307.1,285.2 308.0,285.2 308.8,285.2 309.6,285.2 310.5,285.2 311.4,285.2 312.3,285.2 313.2,285.2 314.0,285.2 314.8,285.2 315.6,285.2 316.4,285.2 317.3,285.2 318.2,285.2 319.1,285.2 319.9,285.2 320.8,285.1 321.6,285.1 322.5,285.1 323.3,285.1 324.2,285.1 325.1,285.1 325.9,285.1 326.7,285.1 327.6,285.1 328.5,285.1 329.3,285.1 330.1,285.1 331.0,285.1 331.8,285.1 332.6,285.1 333.5,285.1 334.3,285.1 335.1,285.1 335.9,285.1 336.8,285.1 337.6,285.1 338.5,285.1 339.3,285.1 340.1,285.1 341.0,285.1 341.8,285.1 342.6,285.1 343.5,285.1 344.3,285.1 345.2,285.1 346.0,285.1 346.8,285.1 347.7,285.1 348.5,285.1 349.3,285.1 350.1,285.1 351.0,285.1 351.8,285.1 352.6,285.1 353.4,285.1 354.3,285.1 355.1,285.1 355.9,285.1 356.7,285.1 357.6,285.1 358.4,285.1 359.2,285.1 360.1,285.1 360.9,285.1 361.7,285.1 362.5,285.1 363.3,285.1 364.1,285.1 365.0,285.1 365.8,285.1 366.6,285.1 367.4,285.1 368.3,285.1 369.1,285.1 369.9,285.1 370.7,285.1 371.5,285.1 372.3,285.1 373.1,285.1 373.9,285.1 374.8,285.1 375.6,285.1 376.4,285.1 377.2,285.1 378.0,285.1 378.8,285.1 379.6,285.2 380.4,285.2 381.3,285.2 382.1,285.2 382.9,285.2 383.7,285.2 384.5,285.3" fill="none" stroke="#2ecc71" stroke-width="1.5" stroke-linejoin="round" clip-path="url(#pc121)"/>
  <line x1="445" y1="210" x2="445" y2="360" stroke="#d1d5db"/>
  <line x1="445" y1="285.0" x2="775" y2="285.0" stroke="#d1d5db"/>
  <text x="610" y="388" text-anchor="middle" font-size="9" fill="#6b7280">Samples</text>
  <text x="419" y="285" text-anchor="middle" font-size="9" fill="#6b7280" transform="rotate(-90 419 285)">Impulse response</text>
  <line x1="445.0" y1="210" x2="445.0" y2="360" stroke="#e5e7eb" stroke-width="0.5"/>
  <text x="445.0" y="372" text-anchor="middle" font-size="8" fill="#6b7280">0</text>
  <line x1="527.5" y1="210" x2="527.5" y2="360" stroke="#e5e7eb" stroke-width="0.5"/>
  <text x="527.5" y="372" text-anchor="middle" font-size="8" fill="#6b7280">32</text>
  <line x1="610.0" y1="210" x2="610.0" y2="360" stroke="#e5e7eb" stroke-width="0.5"/>
  <text x="610.0" y="372" text-anchor="middle" font-size="8" fill="#6b7280">64</text>
  <line x1="692.5" y1="210" x2="692.5" y2="360" stroke="#e5e7eb" stroke-width="0.5"/>
  <text x="692.5" y="372" text-anchor="middle" font-size="8" fill="#6b7280">96</text>
  <line x1="775.0" y1="210" x2="775.0" y2="360" stroke="#e5e7eb" stroke-width="0.5"/>
  <text x="775.0" y="372" text-anchor="middle" font-size="8" fill="#6b7280">128</text>
  <line x1="445" y1="344.6" x2="775" y2="344.6" stroke="#e5e7eb" stroke-width="0.5"/>
  <text x="441" y="347.6" text-anchor="end" font-size="8" fill="#6b7280">-0.04</text>
  <text x="441" y="288.0" text-anchor="end" font-size="8" fill="#6b7280">0</text>
  <line x1="445" y1="225.4" x2="775" y2="225.4" stroke="#e5e7eb" stroke-width="0.5"/>
  <text x="441" y="228.4" text-anchor="end" font-size="8" fill="#6b7280">0.04</text>
  <defs><linearGradient id="g122" x1="0" y1="210" x2="0" y2="285.0" gradientUnits="userSpaceOnUse">
    <stop offset="0%" stop-color="#f39c12" stop-opacity="0.15"/>
    <stop offset="100%" stop-color="#f39c12" stop-opacity="0.02"/>
  </linearGradient></defs>
  <defs><linearGradient id="g123" x1="0" y1="360" x2="0" y2="285.0" gradientUnits="userSpaceOnUse">
    <stop offset="0%" stop-color="#f39c12" stop-opacity="0.15"/>
    <stop offset="100%" stop-color="#f39c12" stop-opacity="0.02"/>
  </linearGradient></defs>
  <defs><clipPath id="c124"><rect x="445" y="210" width="330" height="75.0"/></clipPath></defs>
  <defs><clipPath id="c125"><rect x="445" y="285.0" width="330" height="75.0"/></clipPath></defs>
  <path d="M445.0,285.0 445.0,285.0 447.6,284.9 450.2,284.6 452.7,283.9 455.3,282.7 457.9,281.0 460.5,278.6 463.0,275.6 465.6,272.0 468.2,267.9 470.8,263.4 473.4,258.4 475.9,253.2 478.5,247.9 481.1,242.6 483.7,237.3 486.3,232.2 488.8,227.5 491.4,223.2 494.0,219.4 496.6,216.1 499.1,213.5 501.7,211.6 504.3,210.4 506.9,210.0 509.5,210.3 512.0,211.3 514.6,213.1 517.2,215.5 519.8,218.5 522.3,222.1 524.9,226.1 527.5,230.6 530.1,235.4 532.7,240.5 535.2,245.8 537.8,251.1 540.4,256.5 543.0,261.8 545.5,267.0 548.1,272.0 550.7,276.7 553.3,281.1 555.9,285.2 558.4,288.8 561.0,292.1 563.6,294.9 566.2,297.2 568.8,299.1 571.3,300.5 573.9,301.5 576.5,302.1 579.1,302.3 581.6,302.1 584.2,301.6 586.8,300.7 589.4,299.6 592.0,298.3 594.5,296.8 597.1,295.2 599.7,293.5 602.3,291.7 604.8,290.0 607.4,288.2 610.0,286.5 612.6,284.9 615.2,283.4 617.7,282.0 620.3,280.8 622.9,279.7 625.5,278.8 628.0,278.1 630.6,277.6 633.2,277.3 635.8,277.1 638.4,277.1 640.9,277.2 643.5,277.5 646.1,278.0 648.7,278.5 651.3,279.1 653.8,279.8 656.4,280.6 659.0,281.4 661.6,282.2 664.1,283.1 666.7,283.9 669.3,284.7 671.9,285.4 674.5,286.1 677.0,286.8 679.6,287.3 682.2,287.8 684.8,288.3 687.3,288.6 689.9,288.8 692.5,289.0 695.1,289.1 697.7,289.1 700.2,289.0 702.8,288.9 705.4,288.7 708.0,288.4 710.5,288.1 713.1,287.8 715.7,287.4 718.3,287.0 720.9,286.6 723.4,286.2 726.0,285.8 728.6,285.4 731.2,285.1 733.8,284.7 736.3,284.4 738.9,284.1 741.5,283.8 744.1,283.6 746.6,283.5 749.2,283.3 751.8,283.2 754.4,283.2 757.0,283.2 759.5,283.2 762.1,283.2 764.7,283.3 767.3,283.4 769.8,283.5 772.4,283.7 L772.4,285.0 L445.0,285.0 Z" fill="url(#g122)" clip-path="url(#c124)"/>
  <path d="M445.0,285.0 445.0,285.0 447.6,284.9 450.2,284.6 452.7,283.9 455.3,282.7 457.9,281.0 460.5,278.6 463.0,275.6 465.6,272.0 468.2,267.9 470.8,263.4 473.4,258.4 475.9,253.2 478.5,247.9 481.1,242.6 483.7,237.3 486.3,232.2 488.8,227.5 491.4,223.2 494.0,219.4 496.6,216.1 499.1,213.5 501.7,211.6 504.3,210.4 506.9,210.0 509.5,210.3 512.0,211.3 514.6,213.1 517.2,215.5 519.8,218.5 522.3,222.1 524.9,226.1 527.5,230.6 530.1,235.4 532.7,240.5 535.2,245.8 537.8,251.1 540.4,256.5 543.0,261.8 545.5,267.0 548.1,272.0 550.7,276.7 553.3,281.1 555.9,285.2 558.4,288.8 561.0,292.1 563.6,294.9 566.2,297.2 568.8,299.1 571.3,300.5 573.9,301.5 576.5,302.1 579.1,302.3 581.6,302.1 584.2,301.6 586.8,300.7 589.4,299.6 592.0,298.3 594.5,296.8 597.1,295.2 599.7,293.5 602.3,291.7 604.8,290.0 607.4,288.2 610.0,286.5 612.6,284.9 615.2,283.4 617.7,282.0 620.3,280.8 622.9,279.7 625.5,278.8 628.0,278.1 630.6,277.6 633.2,277.3 635.8,277.1 638.4,277.1 640.9,277.2 643.5,277.5 646.1,278.0 648.7,278.5 651.3,279.1 653.8,279.8 656.4,280.6 659.0,281.4 661.6,282.2 664.1,283.1 666.7,283.9 669.3,284.7 671.9,285.4 674.5,286.1 677.0,286.8 679.6,287.3 682.2,287.8 684.8,288.3 687.3,288.6 689.9,288.8 692.5,289.0 695.1,289.1 697.7,289.1 700.2,289.0 702.8,288.9 705.4,288.7 708.0,288.4 710.5,288.1 713.1,287.8 715.7,287.4 718.3,287.0 720.9,286.6 723.4,286.2 726.0,285.8 728.6,285.4 731.2,285.1 733.8,284.7 736.3,284.4 738.9,284.1 741.5,283.8 744.1,283.6 746.6,283.5 749.2,283.3 751.8,283.2 754.4,283.2 757.0,283.2 759.5,283.2 762.1,283.2 764.7,283.3 767.3,283.4 769.8,283.5 772.4,283.7 L772.4,285.0 L445.0,285.0 Z" fill="url(#g123)" clip-path="url(#c125)"/>
  <defs><clipPath id="pc126"><rect x="445" y="210" width="330" height="150"/></clipPath></defs>
  <polyline points="445.0,285.0 447.6,284.9 450.2,284.6 452.7,283.9 455.3,282.7 457.9,281.0 460.5,278.6 463.0,275.6 465.6,272.0 468.2,267.9 470.8,263.4 473.4,258.4 475.9,253.2 478.5,247.9 481.1,242.6 483.7,237.3 486.3,232.2 488.8,227.5 491.4,223.2 494.0,219.4 496.6,216.1 499.1,213.5 501.7,211.6 504.3,210.4 506.9,210.0 509.5,210.3 512.0,211.3 514.6,213.1 517.2,215.5 519.8,218.5 522.3,222.1 524.9,226.1 527.5,230.6 530.1,235.4 532.7,240.5 535.2,245.8 537.8,251.1 540.4,256.5 543.0,261.8 545.5,267.0 548.1,272.0 550.7,276.7 553.3,281.1 555.9,285.2 558.4,288.8 561.0,292.1 563.6,294.9 566.2,297.2 568.8,299.1 571.3,300.5 573.9,301.5 576.5,302.1 579.1,302.3 581.6,302.1 584.2,301.6 586.8,300.7 589.4,299.6 592.0,298.3 594.5,296.8 597.1,295.2 599.7,293.5 602.3,291.7 604.8,290.0 607.4,288.2 610.0,286.5 612.6,284.9 615.2,283.4 617.7,282.0 620.3,280.8 622.9,279.7 625.5,278.8 628.0,278.1 630.6,277.6 633.2,277.3 635.8,277.1 638.4,277.1 640.9,277.2 643.5,277.5 646.1,278.0 648.7,278.5 651.3,279.1 653.8,279.8 656.4,280.6 659.0,281.4 661.6,282.2 664.1,283.1 666.7,283.9 669.3,284.7 671.9,285.4 674.5,286.1 677.0,286.8 679.6,287.3 682.2,287.8 684.8,288.3 687.3,288.6 689.9,288.8 692.5,289.0 695.1,289.1 697.7,289.1 700.2,289.0 702.8,288.9 705.4,288.7 708.0,288.4 710.5,288.1 713.1,287.8 715.7,287.4 718.3,287.0 720.9,286.6 723.4,286.2 726.0,285.8 728.6,285.4 731.2,285.1 733.8,284.7 736.3,284.4 738.9,284.1 741.5,283.8 744.1,283.6 746.6,283.5 749.2,283.3 751.8,283.2 754.4,283.2 757.0,283.2 759.5,283.2 762.1,283.2 764.7,283.3 767.3,283.4 769.8,283.5 772.4,283.7" fill="none" stroke="#f39c12" stroke-width="1.3" stroke-linejoin="round" clip-path="url(#pc126)"/>
</svg>
