<svg xmlns="http://www.w3.org/2000/svg" viewBox="0 0 800 240" style="font-family:system-ui,-apple-system,sans-serif">
  <line x1="55" y1="12" x2="55" y2="192" stroke="#d1d5db"/>
  <line x1="55" y1="192" x2="755" y2="192" stroke="#d1d5db"/>
  <text x="405" y="222" text-anchor="middle" font-size="10" fill="#6b7280">Frequency (Hz)</text>
  <text x="17" y="102" text-anchor="middle" font-size="10" fill="#6b7280" transform="rotate(-90 17 102)">Magnitude (dB)</text>
  <line x1="99.4" y1="12" x2="99.4" y2="192" stroke="#e5e7eb" stroke-width="0.5"/>
  <text x="99.4" y="205" text-anchor="middle" font-size="9" fill="#6b7280">31</text>
  <line x1="169.7" y1="12" x2="169.7" y2="192" stroke="#e5e7eb" stroke-width="0.5"/>
  <text x="169.7" y="205" text-anchor="middle" font-size="9" fill="#6b7280">62</text>
  <line x1="240.7" y1="12" x2="240.7" y2="192" stroke="#e5e7eb" stroke-width="0.5"/>
  <text x="240.7" y="205" text-anchor="middle" font-size="9" fill="#6b7280">125</text>
  <line x1="310.9" y1="12" x2="310.9" y2="192" stroke="#e5e7eb" stroke-width="0.5"/>
  <text x="310.9" y="205" text-anchor="middle" font-size="9" fill="#6b7280">250</text>
  <line x1="381.2" y1="12" x2="381.2" y2="192" stroke="#e5e7eb" stroke-width="0.5"/>
  <text x="381.2" y="205" text-anchor="middle" font-size="9" fill="#6b7280">500</text>
  <line x1="451.4" y1="12" x2="451.4" y2="192" stroke="#e5e7eb" stroke-width="0.5"/>
  <text x="451.4" y="205" text-anchor="middle" font-size="9" fill="#6b7280">1k</text>
  <line x1="521.7" y1="12" x2="521.7" y2="192" stroke="#e5e7eb" stroke-width="0.5"/>
  <text x="521.7" y="205" text-anchor="middle" font-size="9" fill="#6b7280">2k</text>
  <line x1="591.9" y1="12" x2="591.9" y2="192" stroke="#e5e7eb" stroke-width="0.5"/>
  <text x="591.9" y="205" text-anchor="middle" font-size="9" fill="#6b7280">4k</text>
  <line x1="662.1" y1="12" x2="662.1" y2="192" stroke="#e5e7eb" stroke-width="0.5"/>
  <text x="662.1" y="205" text-anchor="middle" font-size="9" fill="#6b7280">8k</text>
  <line x1="732.4" y1="12" x2="732.4" y2="192" stroke="#e5e7eb" stroke-width="0.5"/>
  <text x="732.4" y="205" text-anchor="middle" font-size="9" fill="#6b7280">16k</text>
  <line x1="55" y1="22.6" x2="755" y2="22.6" stroke="#e5e7eb" stroke-width="0.5"/>
  <text x="51" y="25.6" text-anchor="end" font-size="9" fill="#6b7280">0</text>
  <line x1="55" y1="64.9" x2="755" y2="64.9" stroke="#e5e7eb" stroke-width="0.5"/>
  <text x="51" y="67.9" text-anchor="end" font-size="9" fill="#6b7280">-20</text>
  <line x1="55" y1="107.3" x2="755" y2="107.3" stroke="#e5e7eb" stroke-width="0.5"/>
  <text x="51" y="110.3" text-anchor="end" font-size="9" fill="#6b7280">-40</text>
  <line x1="55" y1="149.6" x2="755" y2="149.6" stroke="#e5e7eb" stroke-width="0.5"/>
  <text x="51" y="152.6" text-anchor="end" font-size="9" fill="#6b7280">-60</text>
  <line x1="55" y1="192.0" x2="755" y2="192.0" stroke="#e5e7eb" stroke-width="0.5"/>
  <text x="51" y="195.0" text-anchor="end" font-size="9" fill="#6b7280">-80</text>
  <polyline points="132.7,22.6 203.0,22.6 244.1,22.6 273.2,22.6 295.8,22.6 314.3,22.7 329.9,22.8 343.4,22.9 355.4,23.0 366.1,23.1 375.7,23.3 384.5,23.4 392.6,23.5 400.2,23.6 407.1,23.7 413.7,23.7 419.8,23.7 425.6,23.7 431.1,23.9 436.3,24.3 441.2,25.1 446.0,26.5 450.5,28.5 454.8,31.0 458.9,33.9 462.9,37.0 466.7,40.2 470.4,43.4 474.0,46.6 477.4,49.6 480.7,52.6 483.9,55.4 487.0,58.2 490.1,60.8 493.0,63.4 495.9,65.8 498.6,68.2 501.3,70.5 504.0,72.7 506.5,74.8 509.0,76.9 511.5,78.9 513.9,80.8 516.2,82.7 518.5,84.6 520.7,86.4 522.9,88.2 525.0,89.9 527.1,91.5 529.2,93.2 531.2,94.8 533.1,96.3 535.1,97.9 537.0,99.4 538.8,100.8 540.6,102.3 542.4,103.7 544.2,105.1 545.9,106.4 547.6,107.7 549.3,109.1 551.0,110.3 552.6,111.6 554.2,112.9 555.7,114.1 557.3,115.3 558.8,116.5 560.3,117.6 561.8,118.8 563.2,119.9 564.7,121.0 566.1,122.1 567.5,123.2 568.9,124.3 570.2,125.4 571.6,126.4 572.9,127.4 574.2,128.4 575.5,129.4 576.8,130.4 578.0,131.4 579.3,132.4 580.5,133.3 581.7,134.3 582.9,135.2 584.1,136.1 585.3,137.1 586.4,138.0 587.6,138.8 588.7,139.7 589.8,140.6 590.9,141.5 592.0,142.3 593.1,143.2 594.2,144.0 595.3,144.9 596.3,145.7 597.3,146.5 598.4,147.3 599.4,148.1 600.4,148.9 601.4,149.7 602.4,150.5 603.4,151.2 604.3,152.0 605.3,152.8 606.2,153.5 607.2,154.3 608.1,155.0 609.1,155.7 610.0,156.5 610.9,157.2 611.8,157.9 612.7,158.6 613.6,159.3 614.4,160.0 615.3,160.7 616.2,161.4 617.0,162.1 617.9,162.8 618.7,163.5 619.5,164.1 620.4,164.8 621.2,165.5 622.0,166.1 622.8,166.8 623.6,167.4 624.4,168.1 625.2,168.7 626.0,169.4 626.8,170.0 627.5,170.6 628.3,171.3 629.0,171.9 629.8,172.5 630.6,173.1 631.3,173.7 632.0,174.3 632.8,175.0 633.5,175.6 634.2,176.2 634.9,176.8 635.6,177.3 636.3,177.9 637.0,178.5 637.7,179.1 638.4,179.7 639.1,180.3 639.8,180.8 640.5,181.4 641.2,182.0 641.8,182.6 642.5,183.1 643.1,183.7 643.8,184.2 644.5,184.8 645.1,185.4 645.7,185.9 646.4,186.5 647.0,187.0 647.7,187.5 648.3,188.1 648.9,188.6 649.5,189.2 650.1,189.7 650.8,190.2 651.4,190.8 652.0,191.3 652.6,191.8 653.2,192.0 653.8,192.0 654.3,192.0 654.9,192.0 655.5,192.0 656.1,192.0 656.7,192.0 657.3,192.0 657.8,192.0 658.4,192.0 659.0,192.0 659.5,192.0 660.1,192.0 660.6,192.0 661.2,192.0 661.7,192.0 662.3,192.0 662.8,192.0 663.4,192.0 663.9,192.0 664.4,192.0 665.0,192.0 665.5,192.0 666.0,192.0 666.5,192.0 667.1,192.0 667.6,192.0 668.1,192.0 668.6,192.0 669.1,192.0 669.6,192.0 670.1,192.0 670.6,192.0 671.1,192.0 671.6,192.0 672.1,192.0 672.6,192.0 673.1,192.0 673.6,192.0 674.1,192.0 674.6,192.0 675.1,192.0 675.5,192.0 676.0,192.0 676.5,192.0 677.0,192.0 677.4,192.0 677.9,192.0 678.4,192.0 678.8,192.0 679.3,192.0 679.8,192.0 680.2,192.0 680.7,192.0 681.1,192.0 681.6,192.0 682.0,192.0 682.5,192.0 682.9,192.0 683.4,192.0 683.8,192.0 684.2,192.0 684.7,192.0 685.1,192.0 685.5,192.0 686.0,192.0 686.4,192.0 686.8,192.0 687.3,192.0 687.7,192.0 688.1,192.0 688.5,192.0 688.9,192.0 689.4,192.0 689.8,192.0 690.2,192.0 690.6,192.0 691.0,192.0 691.4,192.0 691.8,192.0 692.2,192.0 692.6,192.0 693.1,192.0 693.5,192.0 693.9,192.0 694.3,192.0 694.6,192.0 695.0,192.0 695.4,192.0 695.8,192.0 696.2,192.0 696.6,192.0 697.0,192.0 697.4,192.0 697.8,192.0 698.1,192.0 698.5,192.0 698.9,192.0 699.3,192.0 699.7,192.0 700.0,192.0 700.4,192.0 700.8,192.0 701.2,192.0 701.5,192.0 701.9,192.0 702.3,192.0 702.6,192.0 703.0,192.0 703.4,192.0 703.7,192.0 704.1,192.0 704.5,192.0 704.8,192.0 705.2,192.0 705.5,192.0 705.9,192.0 706.2,192.0 706.6,192.0 706.9,192.0 707.3,192.0 707.6,192.0 708.0,192.0 708.3,192.0 708.7,192.0 709.0,192.0 709.4,192.0 709.7,192.0 710.0,192.0 710.4,192.0 710.7,192.0 711.1,192.0 711.4,192.0 711.7,192.0 712.1,192.0 712.4,192.0 712.7,192.0 713.1,192.0 713.4,192.0 713.7,192.0 714.0,192.0 714.4,192.0 714.7,192.0 715.0,192.0 715.3,192.0 715.7,192.0 716.0,192.0 716.3,192.0 716.6,192.0 716.9,192.0 717.3,192.0 717.6,192.0 717.9,192.0 718.2,192.0 718.5,192.0 718.8,192.0 719.1,192.0 719.5,192.0 719.8,192.0 720.1,192.0 720.4,192.0 720.7,192.0 721.0,192.0 721.3,192.0 721.6,192.0 721.9,192.0 722.2,192.0 722.5,192.0 722.8,192.0 723.1,192.0 723.4,192.0 723.7,192.0 724.0,192.0 724.3,192.0 724.6,192.0 724.9,192.0 725.2,192.0 725.5,192.0 725.8,192.0 726.1,192.0 726.3,192.0 726.6,192.0 726.9,192.0 727.2,192.0 727.5,192.0 727.8,192.0 728.1,192.0 728.3,192.0 728.6,192.0 728.9,192.0 729.2,192.0 729.5,192.0 729.8,192.0 730.0,192.0 730.3,192.0 730.6,192.0 730.9,192.0 731.1,192.0 731.4,192.0 731.7,192.0 732.0,192.0 732.2,192.0 732.5,192.0 732.8,192.0 733.1,192.0 733.3,192.0 733.6,192.0 733.9,192.0 734.1,192.0 734.4,192.0 734.7,192.0 734.9,192.0 735.2,192.0 735.5,192.0 735.7,192.0 736.0,192.0 736.3,192.0 736.5,192.0 736.8,192.0 737.0,192.0 737.3,192.0 737.6,192.0 737.8,192.0 738.1,192.0 738.3,192.0 738.6,192.0 738.9,192.0 739.1,192.0 739.4,192.0 739.6,192.0 739.9,192.0 740.1,192.0 740.4,192.0 740.6,192.0 740.9,192.0 741.1,192.0 741.4,192.0 741.6,192.0 741.9,192.0 742.1,192.0 742.4,192.0 742.6,192.0 742.9,192.0 743.1,192.0 743.4,192.0 743.6,192.0 743.8,192.0 744.1,192.0 744.3,192.0 744.6,192.0 744.8,192.0 745.1,192.0 745.3,192.0 745.5,192.0 745.8,192.0 746.0,192.0 746.3,192.0 746.5,192.0 746.7,192.0 747.0,192.0 747.2,192.0 747.4,192.0 747.7,192.0 747.9,192.0 748.1,192.0 748.4,192.0 748.6,192.0 748.8,192.0 749.1,192.0 749.3,192.0 749.5,192.0 749.8,192.0 750.0,192.0 750.2,192.0 750.4,192.0 750.7,192.0 750.9,192.0 751.1,192.0 751.4,192.0 751.6,192.0 751.8,192.0 752.0,192.0 752.3,192.0 752.5,192.0 752.7,192.0 752.9,192.0 753.2,192.0 753.4,192.0 753.6,192.0 753.8,192.0 754.0,192.0 754.3,192.0 754.5,192.0 754.7,192.0 754.9,192.0" fill="none" stroke="#4a90d9" stroke-width="1.8" stroke-linejoin="round"/>
  <text x="55" y="240" font-size="12" font-weight="600" fill="#6b7280">Legendre order 4, fc=1kHz</text>
  <rect x="529" y="19" width="202" height="102" fill="white" fill-opacity="0.85" rx="3"/>
  <text x="532" y="30" font-size="8" fill="#6b7280">Impulse response</text>
  <polyline points="530.0,70.0 531.6,69.9 533.1,69.7 534.7,69.3 536.3,68.5 537.8,67.3 539.4,65.7 540.9,63.7 542.5,61.4 544.1,58.6 545.6,55.6 547.2,52.3 548.8,48.8 550.3,45.3 551.9,41.7 553.4,38.2 555.0,34.8 556.6,31.7 558.1,28.8 559.7,26.2 561.3,24.1 562.8,22.4 564.4,21.1 565.9,20.3 567.5,20.0 569.1,20.2 570.6,20.9 572.2,22.0 573.8,23.6 575.3,25.7 576.9,28.0 578.4,30.7 580.0,33.7 581.6,37.0 583.1,40.3 584.7,43.8 586.3,47.4 587.8,51.0 589.4,54.5 590.9,58.0 592.5,61.3 594.1,64.5 595.6,67.4 597.2,70.1 598.8,72.6 600.3,74.7 601.9,76.6 603.4,78.1 605.0,79.4 606.6,80.4 608.1,81.0 609.7,81.4 611.3,81.5 612.8,81.4 614.4,81.0 615.9,80.5 617.5,79.8 619.1,78.9 620.6,77.9 622.2,76.8 623.8,75.7 625.3,74.5 626.9,73.3 628.4,72.1 630.0,71.0 631.6,69.9 633.1,68.9 634.7,68.0 636.3,67.2 637.8,66.5 639.4,65.9 640.9,65.4 642.5,65.1 644.1,64.8 645.6,64.7 647.2,64.7 648.8,64.8 650.3,65.0 651.9,65.3 653.4,65.7 655.0,66.1 656.6,66.6 658.1,67.1 659.7,67.6 661.3,68.1 662.8,68.7 664.4,69.3 665.9,69.8 667.5,70.3 669.1,70.8 670.6,71.2 672.2,71.6 673.8,71.9 675.3,72.2 676.9,72.4 678.4,72.6 680.0,72.7 681.6,72.7 683.1,72.7 684.7,72.7 686.3,72.6 687.8,72.4 689.4,72.3 690.9,72.1 692.5,71.8 694.1,71.6 695.6,71.3 697.2,71.1 698.8,70.8 700.3,70.5 701.9,70.3 703.4,70.0 705.0,69.8 706.6,69.6 708.1,69.4 709.7,69.2 711.3,69.1 712.8,69.0 714.4,68.9 715.9,68.8 717.5,68.8 719.1,68.8 720.6,68.8 722.2,68.8 723.8,68.9 725.3,68.9 726.9,69.0 728.4,69.1" fill="none" stroke="#4a90d9" stroke-width="1.3" stroke-linejoin="round"/>
</svg>
