<svg xmlns="http://www.w3.org/2000/svg" viewBox="0 0 800 240" style="font-family:system-ui,-apple-system,sans-serif">
  <line x1="55" y1="12" x2="55" y2="192" stroke="#d1d5db"/>
  <line x1="55" y1="192" x2="755" y2="192" stroke="#d1d5db"/>
  <text x="405" y="222" text-anchor="middle" font-size="10" fill="#6b7280">Frequency (Hz)</text>
  <text x="17" y="102" text-anchor="middle" font-size="10" fill="#6b7280" transform="rotate(-90 17 102)">Magnitude (dB)</text>
  <line x1="99.4" y1="12" x2="99.4" y2="192" stroke="#e5e7eb" stroke-width="0.5"/>
  <text x="99.4" y="205" text-anchor="middle" font-size="9" fill="#6b7280">31</text>
  <line x1="169.7" y1="12" x2="169.7" y2="192" stroke="#e5e7eb" stroke-width="0.5"/>
  <text x="169.7" y="205" text-anchor="middle" font-size="9" fill="#6b7280">62</text>
  <line x1="240.7" y1="12" x2="240.7" y2="192" stroke="#e5e7eb" stroke-width="0.5"/>
  <text x="240.7" y="205" text-anchor="middle" font-size="9" fill="#6b7280">125</text>
  <line x1="310.9" y1="12" x2="310.9" y2="192" stroke="#e5e7eb" stroke-width="0.5"/>
  <text x="310.9" y="205" text-anchor="middle" font-size="9" fill="#6b7280">250</text>
  <line x1="381.2" y1="12" x2="381.2" y2="192" stroke="#e5e7eb" stroke-width="0.5"/>
  <text x="381.2" y="205" text-anchor="middle" font-size="9" fill="#6b7280">500</text>
  <line x1="451.4" y1="12" x2="451.4" y2="192" stroke="#e5e7eb" stroke-width="0.5"/>
  <text x="451.4" y="205" text-anchor="middle" font-size="9" fill="#6b7280">1k</text>
  <line x1="521.7" y1="12" x2="521.7" y2="192" stroke="#e5e7eb" stroke-width="0.5"/>
  <text x="521.7" y="205" text-anchor="middle" font-size="9" fill="#6b7280">2k</text>
  <line x1="591.9" y1="12" x2="591.9" y2="192" stroke="#e5e7eb" stroke-width="0.5"/>
  <text x="591.9" y="205" text-anchor="middle" font-size="9" fill="#6b7280">4k</text>
  <line x1="662.1" y1="12" x2="662.1" y2="192" stroke="#e5e7eb" stroke-width="0.5"/>
  <text x="662.1" y="205" text-anchor="middle" font-size="9" fill="#6b7280">8k</text>
  <line x1="732.4" y1="12" x2="732.4" y2="192" stroke="#e5e7eb" stroke-width="0.5"/>
  <text x="732.4" y="205" text-anchor="middle" font-size="9" fill="#6b7280">16k</text>
  <line x1="55" y1="22.6" x2="755" y2="22.6" stroke="#e5e7eb" stroke-width="0.5"/>
  <text x="51" y="25.6" text-anchor="end" font-size="9" fill="#6b7280">0</text>
  <line x1="55" y1="64.9" x2="755" y2="64.9" stroke="#e5e7eb" stroke-width="0.5"/>
  <text x="51" y="67.9" text-anchor="end" font-size="9" fill="#6b7280">-20</text>
  <line x1="55" y1="107.3" x2="755" y2="107.3" stroke="#e5e7eb" stroke-width="0.5"/>
  <text x="51" y="110.3" text-anchor="end" font-size="9" fill="#6b7280">-40</text>
  <line x1="55" y1="149.6" x2="755" y2="149.6" stroke="#e5e7eb" stroke-width="0.5"/>
  <text x="51" y="152.6" text-anchor="end" font-size="9" fill="#6b7280">-60</text>
  <line x1="55" y1="192.0" x2="755" y2="192.0" stroke="#e5e7eb" stroke-width="0.5"/>
  <text x="51" y="195.0" text-anchor="end" font-size="9" fill="#6b7280">-80</text>
  <polyline points="132.7,22.6 203.0,22.7 244.1,22.7 273.2,22.9 295.8,23.0 314.3,23.2 329.9,23.4 343.4,23.6 355.4,23.9 366.1,24.2 375.7,24.4 384.5,24.8 392.6,25.1 400.2,25.4 407.1,25.8 413.7,26.2 419.8,26.5 425.6,26.9 431.1,27.3 436.3,27.7 441.2,28.1 446.0,28.5 450.5,28.9 454.8,29.3 458.9,29.6 462.9,30.0 466.7,30.4 470.4,30.8 474.0,31.2 477.4,31.6 480.7,32.0 483.9,32.3 487.0,32.7 490.1,33.1 493.0,33.5 495.9,33.8 498.6,34.2 501.3,34.5 504.0,34.9 506.5,35.2 509.0,35.6 511.5,35.9 513.9,36.2 516.2,36.5 518.5,36.9 520.7,37.2 522.9,37.5 525.0,37.8 527.1,38.1 529.2,38.4 531.2,38.7 533.1,39.0 535.1,39.3 537.0,39.6 538.8,39.9 540.6,40.1 542.4,40.4 544.2,40.7 545.9,41.0 547.6,41.2 549.3,41.5 551.0,41.7 552.6,42.0 554.2,42.3 555.7,42.5 557.3,42.8 558.8,43.0 560.3,43.2 561.8,43.5 563.2,43.7 564.7,43.9 566.1,44.2 567.5,44.4 568.9,44.6 570.2,44.8 571.6,45.1 572.9,45.3 574.2,45.5 575.5,45.7 576.8,45.9 578.0,46.1 579.3,46.3 580.5,46.5 581.7,46.7 582.9,46.9 584.1,47.1 585.3,47.3 586.4,47.5 587.6,47.7 588.7,47.9 589.8,48.1 590.9,48.2 592.0,48.4 593.1,48.6 594.2,48.8 595.3,49.0 596.3,49.1 597.3,49.3 598.4,49.5 599.4,49.6 600.4,49.8 601.4,50.0 602.4,50.1 603.4,50.3 604.3,50.5 605.3,50.6 606.2,50.8 607.2,50.9 608.1,51.1 609.1,51.2 610.0,51.4 610.9,51.6 611.8,51.7 612.7,51.9 613.6,52.0 614.4,52.1 615.3,52.3 616.2,52.4 617.0,52.6 617.9,52.7 618.7,52.9 619.5,53.0 620.4,53.1 621.2,53.3 622.0,53.4 622.8,53.5 623.6,53.7 624.4,53.8 625.2,53.9 626.0,54.1 626.8,54.2 627.5,54.3 628.3,54.5 629.0,54.6 629.8,54.7 630.6,54.8 631.3,55.0 632.0,55.1 632.8,55.2 633.5,55.3 634.2,55.4 634.9,55.6 635.6,55.7 636.3,55.8 637.0,55.9 637.7,56.0 638.4,56.1 639.1,56.2 639.8,56.4 640.5,56.5 641.2,56.6 641.8,56.7 642.5,56.8 643.1,56.9 643.8,57.0 644.5,57.1 645.1,57.2 645.7,57.3 646.4,57.4 647.0,57.5 647.7,57.6 648.3,57.7 648.9,57.8 649.5,57.9 650.1,58.0 650.8,58.1 651.4,58.2 652.0,58.3 652.6,58.4 653.2,58.5 653.8,58.6 654.3,58.7 654.9,58.8 655.5,58.9 656.1,59.0 656.7,59.1 657.3,59.2 657.8,59.3 658.4,59.4 659.0,59.5 659.5,59.6 660.1,59.6 660.6,59.7 661.2,59.8 661.7,59.9 662.3,60.0 662.8,60.1 663.4,60.2 663.9,60.3 664.4,60.3 665.0,60.4 665.5,60.5 666.0,60.6 666.5,60.7 667.1,60.7 667.6,60.8 668.1,60.9 668.6,61.0 669.1,61.1 669.6,61.2 670.1,61.2 670.6,61.3 671.1,61.4 671.6,61.5 672.1,61.5 672.6,61.6 673.1,61.7 673.6,61.8 674.1,61.8 674.6,61.9 675.1,62.0 675.5,62.1 676.0,62.1 676.5,62.2 677.0,62.3 677.4,62.4 677.9,62.4 678.4,62.5 678.8,62.6 679.3,62.6 679.8,62.7 680.2,62.8 680.7,62.8 681.1,62.9 681.6,63.0 682.0,63.0 682.5,63.1 682.9,63.2 683.4,63.2 683.8,63.3 684.2,63.4 684.7,63.4 685.1,63.5 685.5,63.6 686.0,63.6 686.4,63.7 686.8,63.8 687.3,63.8 687.7,63.9 688.1,63.9 688.5,64.0 688.9,64.1 689.4,64.1 689.8,64.2 690.2,64.2 690.6,64.3 691.0,64.4 691.4,64.4 691.8,64.5 692.2,64.5 692.6,64.6 693.1,64.7 693.5,64.7 693.9,64.8 694.3,64.8 694.6,64.9 695.0,64.9 695.4,65.0 695.8,65.0 696.2,65.1 696.6,65.2 697.0,65.2 697.4,65.3 697.8,65.3 698.1,65.4 698.5,65.4 698.9,65.5 699.3,65.5 699.7,65.6 700.0,65.6 700.4,65.7 700.8,65.7 701.2,65.8 701.5,65.8 701.9,65.9 702.3,65.9 702.6,66.0 703.0,66.0 703.4,66.1 703.7,66.1 704.1,66.2 704.5,66.2 704.8,66.3 705.2,66.3 705.5,66.4 705.9,66.4 706.2,66.5 706.6,66.5 706.9,66.6 707.3,66.6 707.6,66.6 708.0,66.7 708.3,66.7 708.7,66.8 709.0,66.8 709.4,66.9 709.7,66.9 710.0,67.0 710.4,67.0 710.7,67.0 711.1,67.1 711.4,67.1 711.7,67.2 712.1,67.2 712.4,67.2 712.7,67.3 713.1,67.3 713.4,67.4 713.7,67.4 714.0,67.4 714.4,67.5 714.7,67.5 715.0,67.6 715.3,67.6 715.7,67.6 716.0,67.7 716.3,67.7 716.6,67.8 716.9,67.8 717.3,67.8 717.6,67.9 717.9,67.9 718.2,67.9 718.5,68.0 718.8,68.0 719.1,68.1 719.5,68.1 719.8,68.1 720.1,68.2 720.4,68.2 720.7,68.2 721.0,68.3 721.3,68.3 721.6,68.3 721.9,68.4 722.2,68.4 722.5,68.4 722.8,68.5 723.1,68.5 723.4,68.5 723.7,68.6 724.0,68.6 724.3,68.6 724.6,68.7 724.9,68.7 725.2,68.7 725.5,68.8 725.8,68.8 726.1,68.8 726.3,68.9 726.6,68.9 726.9,68.9 727.2,68.9 727.5,69.0 727.8,69.0 728.1,69.0 728.3,69.1 728.6,69.1 728.9,69.1 729.2,69.1 729.5,69.2 729.8,69.2 730.0,69.2 730.3,69.3 730.6,69.3 730.9,69.3 731.1,69.3 731.4,69.4 731.7,69.4 732.0,69.4 732.2,69.4 732.5,69.5 732.8,69.5 733.1,69.5 733.3,69.5 733.6,69.6 733.9,69.6 734.1,69.6 734.4,69.6 734.7,69.7 734.9,69.7 735.2,69.7 735.5,69.7 735.7,69.8 736.0,69.8 736.3,69.8 736.5,69.8 736.8,69.9 737.0,69.9 737.3,69.9 737.6,69.9 737.8,69.9 738.1,70.0 738.3,70.0 738.6,70.0 738.9,70.0 739.1,70.0 739.4,70.1 739.6,70.1 739.9,70.1 740.1,70.1 740.4,70.1 740.6,70.2 740.9,70.2 741.1,70.2 741.4,70.2 741.6,70.2 741.9,70.3 742.1,70.3 742.4,70.3 742.6,70.3 742.9,70.3 743.1,70.4 743.4,70.4 743.6,70.4 743.8,70.4 744.1,70.4 744.3,70.4 744.6,70.5 744.8,70.5 745.1,70.5 745.3,70.5 745.5,70.5 745.8,70.5 746.0,70.6 746.3,70.6 746.5,70.6 746.7,70.6 747.0,70.6 747.2,70.6 747.4,70.6 747.7,70.7 747.9,70.7 748.1,70.7 748.4,70.7 748.6,70.7 748.8,70.7 749.1,70.7 749.3,70.7 749.5,70.8 749.8,70.8 750.0,70.8 750.2,70.8 750.4,70.8 750.7,70.8 750.9,70.8 751.1,70.8 751.4,70.9 751.6,70.9 751.8,70.9 752.0,70.9 752.3,70.9 752.5,70.9 752.7,70.9 752.9,70.9 753.2,70.9 753.4,70.9 753.6,71.0 753.8,71.0 754.0,71.0 754.3,71.0 754.5,71.0 754.7,71.0 754.9,71.0" fill="none" stroke="#4a90d9" stroke-width="1.8" stroke-linejoin="round"/>
  <text x="55" y="240" font-size="12" font-weight="600" fill="#6b7280">One-pole lowpass, fc=1kHz</text>
  <rect x="529" y="19" width="202" height="102" fill="white" fill-opacity="0.85" rx="3"/>
  <text x="532" y="30" font-size="8" fill="#6b7280">Impulse response</text>
  <polyline points="530.0,20.0 531.6,26.6 533.1,32.4 534.7,37.4 536.3,41.7 537.8,45.5 539.4,48.7 540.9,51.6 542.5,54.0 544.1,56.1 545.6,58.0 547.2,59.6 548.8,61.0 550.3,62.2 551.9,63.2 553.4,64.1 555.0,64.9 556.6,65.6 558.1,66.2 559.7,66.7 561.3,67.1 562.8,67.5 564.4,67.8 565.9,68.1 567.5,68.4 569.1,68.6 570.6,68.8 572.2,68.9 573.8,69.1 575.3,69.2 576.9,69.3 578.4,69.4 580.0,69.5 581.6,69.5 583.1,69.6 584.7,69.7 586.3,69.7 587.8,69.7 589.4,69.8 590.9,69.8 592.5,69.8 594.1,69.9 595.6,69.9 597.2,69.9 598.8,69.9 600.3,69.9 601.9,69.9 603.4,69.9 605.0,69.9 606.6,70.0 608.1,70.0 609.7,70.0 611.3,70.0 612.8,70.0 614.4,70.0 615.9,70.0 617.5,70.0 619.1,70.0 620.6,70.0 622.2,70.0 623.8,70.0 625.3,70.0 626.9,70.0 628.4,70.0 630.0,70.0 631.6,70.0 633.1,70.0 634.7,70.0 636.3,70.0 637.8,70.0 639.4,70.0 640.9,70.0 642.5,70.0 644.1,70.0 645.6,70.0 647.2,70.0 648.8,70.0 650.3,70.0 651.9,70.0 653.4,70.0 655.0,70.0 656.6,70.0 658.1,70.0 659.7,70.0 661.3,70.0 662.8,70.0 664.4,70.0 665.9,70.0 667.5,70.0 669.1,70.0 670.6,70.0 672.2,70.0 673.8,70.0 675.3,70.0 676.9,70.0 678.4,70.0 680.0,70.0 681.6,70.0 683.1,70.0 684.7,70.0 686.3,70.0 687.8,70.0 689.4,70.0 690.9,70.0 692.5,70.0 694.1,70.0 695.6,70.0 697.2,70.0 698.8,70.0 700.3,70.0 701.9,70.0 703.4,70.0 705.0,70.0 706.6,70.0 708.1,70.0 709.7,70.0 711.3,70.0 712.8,70.0 714.4,70.0 715.9,70.0 717.5,70.0 719.1,70.0 720.6,70.0 722.2,70.0 723.8,70.0 725.3,70.0 726.9,70.0 728.4,70.0" fill="none" stroke="#4a90d9" stroke-width="1.3" stroke-linejoin="round"/>
</svg>
