<svg xmlns="http://www.w3.org/2000/svg" viewBox="0 0 800 420" style="font-family:system-ui,-apple-system,sans-serif">
  <text x="55" y="416" font-size="11" font-weight="600" fill="#6b7280">One-pole lowpass, fc=1kHz</text>
  <line x1="55" y1="12" x2="55" y2="162" stroke="#d1d5db"/>
  <line x1="55" y1="42.0" x2="385" y2="42.0" stroke="#d1d5db"/>
  <text x="220" y="190" text-anchor="middle" font-size="9" fill="#6b7280">Hz</text>
  <text x="29" y="87" text-anchor="middle" font-size="9" fill="#6b7280" transform="rotate(-90 29 87)">dB</text>
  <line x1="85.1" y1="12" x2="85.1" y2="162" stroke="#e5e7eb" stroke-width="0.5"/>
  <line x1="102.7" y1="12" x2="102.7" y2="162" stroke="#e5e7eb" stroke-width="0.5"/>
  <line x1="115.2" y1="12" x2="115.2" y2="162" stroke="#e5e7eb" stroke-width="0.5"/>
  <line x1="124.9" y1="12" x2="124.9" y2="162" stroke="#e5e7eb" stroke-width="0.5"/>
  <line x1="132.8" y1="12" x2="132.8" y2="162" stroke="#e5e7eb" stroke-width="0.5"/>
  <line x1="139.5" y1="12" x2="139.5" y2="162" stroke="#e5e7eb" stroke-width="0.5"/>
  <line x1="145.3" y1="12" x2="145.3" y2="162" stroke="#e5e7eb" stroke-width="0.5"/>
  <line x1="150.4" y1="12" x2="150.4" y2="162" stroke="#e5e7eb" stroke-width="0.5"/>
  <line x1="185.1" y1="12" x2="185.1" y2="162" stroke="#e5e7eb" stroke-width="0.5"/>
  <line x1="202.7" y1="12" x2="202.7" y2="162" stroke="#e5e7eb" stroke-width="0.5"/>
  <line x1="215.2" y1="12" x2="215.2" y2="162" stroke="#e5e7eb" stroke-width="0.5"/>
  <line x1="224.8" y1="12" x2="224.8" y2="162" stroke="#e5e7eb" stroke-width="0.5"/>
  <line x1="232.8" y1="12" x2="232.8" y2="162" stroke="#e5e7eb" stroke-width="0.5"/>
  <line x1="239.5" y1="12" x2="239.5" y2="162" stroke="#e5e7eb" stroke-width="0.5"/>
  <line x1="245.2" y1="12" x2="245.2" y2="162" stroke="#e5e7eb" stroke-width="0.5"/>
  <line x1="250.4" y1="12" x2="250.4" y2="162" stroke="#e5e7eb" stroke-width="0.5"/>
  <line x1="285.0" y1="12" x2="285.0" y2="162" stroke="#e5e7eb" stroke-width="0.5"/>
  <line x1="302.6" y1="12" x2="302.6" y2="162" stroke="#e5e7eb" stroke-width="0.5"/>
  <line x1="315.1" y1="12" x2="315.1" y2="162" stroke="#e5e7eb" stroke-width="0.5"/>
  <line x1="324.8" y1="12" x2="324.8" y2="162" stroke="#e5e7eb" stroke-width="0.5"/>
  <line x1="332.7" y1="12" x2="332.7" y2="162" stroke="#e5e7eb" stroke-width="0.5"/>
  <line x1="339.4" y1="12" x2="339.4" y2="162" stroke="#e5e7eb" stroke-width="0.5"/>
  <line x1="345.2" y1="12" x2="345.2" y2="162" stroke="#e5e7eb" stroke-width="0.5"/>
  <line x1="350.3" y1="12" x2="350.3" y2="162" stroke="#e5e7eb" stroke-width="0.5"/>
  <line x1="385.0" y1="12" x2="385.0" y2="162" stroke="#e5e7eb" stroke-width="0.5"/>
  <line x1="155.0" y1="12" x2="155.0" y2="162" stroke="#e5e7eb" stroke-width="0.5"/>
  <text x="155.0" y="174" text-anchor="middle" font-size="8" fill="#6b7280">100</text>
  <line x1="254.9" y1="12" x2="254.9" y2="162" stroke="#e5e7eb" stroke-width="0.5"/>
  <text x="254.9" y="174" text-anchor="middle" font-size="8" fill="#6b7280">1k</text>
  <line x1="354.9" y1="12" x2="354.9" y2="162" stroke="#e5e7eb" stroke-width="0.5"/>
  <text x="354.9" y="174" text-anchor="middle" font-size="8" fill="#6b7280">10k</text>
  <line x1="55" y1="27.0" x2="385" y2="27.0" stroke="#e5e7eb" stroke-width="0.5"/>
  <line x1="55" y1="57.0" x2="385" y2="57.0" stroke="#e5e7eb" stroke-width="0.5"/>
  <line x1="55" y1="12.0" x2="385" y2="12.0" stroke="#e5e7eb" stroke-width="0.5"/>
  <text x="51" y="15.0" text-anchor="end" font-size="8" fill="#6b7280">+20</text>
  <text x="51" y="45.0" text-anchor="end" font-size="8" fill="#6b7280">0</text>
  <line x1="55" y1="72.0" x2="385" y2="72.0" stroke="#e5e7eb" stroke-width="0.5"/>
  <text x="51" y="75.0" text-anchor="end" font-size="8" fill="#6b7280">-20</text>
  <line x1="55" y1="102.0" x2="385" y2="102.0" stroke="#e5e7eb" stroke-width="0.5"/>
  <text x="51" y="105.0" text-anchor="end" font-size="8" fill="#6b7280">-40</text>
  <line x1="55" y1="132.0" x2="385" y2="132.0" stroke="#e5e7eb" stroke-width="0.5"/>
  <text x="51" y="135.0" text-anchor="end" font-size="8" fill="#6b7280">-60</text>
  <line x1="55" y1="162.0" x2="385" y2="162.0" stroke="#e5e7eb" stroke-width="0.5"/>
  <text x="51" y="165.0" text-anchor="end" font-size="8" fill="#6b7280">-80</text>
  <defs><linearGradient id="g321" x1="0" y1="12" x2="0" y2="162" gradientUnits="userSpaceOnUse">
    <stop offset="0%" stop-color="#4a90d9" stop-opacity="0.15"/>
    <stop offset="100%" stop-color="#4a90d9" stop-opacity="0.02"/>
  </linearGradient></defs>
  <path d="M58.2,42.0 58.2,42.0 88.3,42.0 105.9,42.0 118.4,42.0 128.1,42.0 136.0,42.0 142.7,42.0 148.5,42.0 153.6,42.1 158.2,42.1 162.3,42.1 166.1,42.1 169.6,42.1 172.8,42.1 175.8,42.2 178.6,42.2 181.2,42.2 183.7,42.2 186.0,42.3 188.3,42.3 190.4,42.3 192.4,42.4 194.3,42.4 196.2,42.4 198.0,42.5 199.7,42.5 201.3,42.5 202.9,42.6 204.4,42.6 205.9,42.6 207.3,42.7 208.7,42.7 210.0,42.8 211.3,42.8 212.6,42.9 213.8,42.9 215.0,43.0 216.1,43.0 217.3,43.1 218.4,43.1 219.4,43.2 220.5,43.2 221.5,43.3 222.5,43.3 223.5,43.4 224.4,43.4 225.4,43.5 226.3,43.5 227.2,43.6 228.1,43.7 228.9,43.7 229.8,43.8 230.6,43.8 231.4,43.9 233.0,44.0 234.5,44.1 236.0,44.3 237.4,44.4 238.8,44.5 240.1,44.7 241.4,44.8 242.7,44.9 243.9,45.1 245.1,45.2 246.2,45.3 247.4,45.5 248.5,45.6 249.5,45.7 250.6,45.9 251.6,46.0 252.6,46.2 253.6,46.3 254.5,46.4 255.5,46.6 256.4,46.7 257.3,46.9 258.1,47.0 259.0,47.1 259.8,47.3 260.7,47.4 261.5,47.6 262.7,47.8 263.8,48.0 265.0,48.2 266.1,48.4 267.1,48.6 268.2,48.8 269.2,49.0 270.2,49.2 271.2,49.4 272.1,49.6 273.1,49.8 274.0,50.0 274.9,50.1 275.7,50.3 276.6,50.5 277.5,50.7 278.3,50.9 279.1,51.1 280.1,51.3 281.2,51.5 282.2,51.8 283.2,52.0 284.1,52.2 285.1,52.5 286.0,52.7 286.9,52.9 287.8,53.1 288.7,53.3 289.5,53.5 290.4,53.7 291.2,53.9 292.0,54.1 293.0,54.4 293.9,54.6 294.9,54.9 295.8,55.1 296.7,55.3 297.6,55.6 298.4,55.8 299.3,56.0 300.1,56.2 300.9,56.5 301.7,56.7 302.7,56.9 303.6,57.2 304.5,57.4 305.4,57.6 306.3,57.9 307.1,58.1 308.0,58.3 308.8,58.5 309.6,58.8 310.5,59.0 311.4,59.3 312.3,59.5 313.2,59.7 314.0,60.0 314.8,60.2 315.6,60.4 316.4,60.6 317.3,60.9 318.2,61.1 319.1,61.4 319.9,61.6 320.8,61.8 321.6,62.1 322.5,62.3 323.3,62.5 324.2,62.8 325.1,63.0 325.9,63.2 326.7,63.5 327.6,63.7 328.5,64.0 329.3,64.2 330.1,64.4 331.0,64.6 331.8,64.9 332.6,65.1 333.5,65.3 334.3,65.6 335.1,65.8 335.9,66.0 336.8,66.2 337.6,66.5 338.5,66.7 339.3,66.9 340.1,67.1 341.0,67.4 341.8,67.6 342.6,67.8 343.5,68.0 344.3,68.2 345.2,68.5 346.0,68.7 346.8,68.9 347.7,69.1 348.5,69.3 349.3,69.5 350.1,69.8 351.0,70.0 351.8,70.2 352.6,70.4 353.4,70.6 354.3,70.8 355.1,71.0 355.9,71.2 356.7,71.4 357.6,71.6 358.4,71.8 359.2,72.0 360.1,72.2 360.9,72.4 361.7,72.5 362.5,72.7 363.3,72.9 364.1,73.1 365.0,73.3 365.8,73.4 366.6,73.6 367.4,73.8 368.3,73.9 369.1,74.1 369.9,74.3 370.7,74.4 371.5,74.6 372.3,74.7 373.1,74.8 373.9,75.0 374.8,75.1 375.6,75.2 376.4,75.4 377.2,75.5 378.0,75.6 378.8,75.7 379.6,75.8 380.4,75.9 381.3,76.0 382.1,76.1 382.9,76.1 383.7,76.2 384.5,76.3 L384.5,162.0 L58.2,162.0 Z" fill="url(#g321)"/>
  <defs><clipPath id="pc322"><rect x="55" y="12" width="330" height="150"/></clipPath></defs>
  <polyline points="58.2,42.0 88.3,42.0 105.9,42.0 118.4,42.0 128.1,42.0 136.0,42.0 142.7,42.0 148.5,42.0 153.6,42.1 158.2,42.1 162.3,42.1 166.1,42.1 169.6,42.1 172.8,42.1 175.8,42.2 178.6,42.2 181.2,42.2 183.7,42.2 186.0,42.3 188.3,42.3 190.4,42.3 192.4,42.4 194.3,42.4 196.2,42.4 198.0,42.5 199.7,42.5 201.3,42.5 202.9,42.6 204.4,42.6 205.9,42.6 207.3,42.7 208.7,42.7 210.0,42.8 211.3,42.8 212.6,42.9 213.8,42.9 215.0,43.0 216.1,43.0 217.3,43.1 218.4,43.1 219.4,43.2 220.5,43.2 221.5,43.3 222.5,43.3 223.5,43.4 224.4,43.4 225.4,43.5 226.3,43.5 227.2,43.6 228.1,43.7 228.9,43.7 229.8,43.8 230.6,43.8 231.4,43.9 233.0,44.0 234.5,44.1 236.0,44.3 237.4,44.4 238.8,44.5 240.1,44.7 241.4,44.8 242.7,44.9 243.9,45.1 245.1,45.2 246.2,45.3 247.4,45.5 248.5,45.6 249.5,45.7 250.6,45.9 251.6,46.0 252.6,46.2 253.6,46.3 254.5,46.4 255.5,46.6 256.4,46.7 257.3,46.9 258.1,47.0 259.0,47.1 259.8,47.3 260.7,47.4 261.5,47.6 262.7,47.8 263.8,48.0 265.0,48.2 266.1,48.4 267.1,48.6 268.2,48.8 269.2,49.0 270.2,49.2 271.2,49.4 272.1,49.6 273.1,49.8 274.0,50.0 274.9,50.1 275.7,50.3 276.6,50.5 277.5,50.7 278.3,50.9 279.1,51.1 280.1,51.3 281.2,51.5 282.2,51.8 283.2,52.0 284.1,52.2 285.1,52.5 286.0,52.7 286.9,52.9 287.8,53.1 288.7,53.3 289.5,53.5 290.4,53.7 291.2,53.9 292.0,54.1 293.0,54.4 293.9,54.6 294.9,54.9 295.8,55.1 296.7,55.3 297.6,55.6 298.4,55.8 299.3,56.0 300.1,56.2 300.9,56.5 301.7,56.7 302.7,56.9 303.6,57.2 304.5,57.4 305.4,57.6 306.3,57.9 307.1,58.1 308.0,58.3 308.8,58.5 309.6,58.8 310.5,59.0 311.4,59.3 312.3,59.5 313.2,59.7 314.0,60.0 314.8,60.2 315.6,60.4 316.4,60.6 317.3,60.9 318.2,61.1 319.1,61.4 319.9,61.6 320.8,61.8 321.6,62.1 322.5,62.3 323.3,62.5 324.2,62.8 325.1,63.0 325.9,63.2 326.7,63.5 327.6,63.7 328.5,64.0 329.3,64.2 330.1,64.4 331.0,64.6 331.8,64.9 332.6,65.1 333.5,65.3 334.3,65.6 335.1,65.8 335.9,66.0 336.8,66.2 337.6,66.5 338.5,66.7 339.3,66.9 340.1,67.1 341.0,67.4 341.8,67.6 342.6,67.8 343.5,68.0 344.3,68.2 345.2,68.5 346.0,68.7 346.8,68.9 347.7,69.1 348.5,69.3 349.3,69.5 350.1,69.8 351.0,70.0 351.8,70.2 352.6,70.4 353.4,70.6 354.3,70.8 355.1,71.0 355.9,71.2 356.7,71.4 357.6,71.6 358.4,71.8 359.2,72.0 360.1,72.2 360.9,72.4 361.7,72.5 362.5,72.7 363.3,72.9 364.1,73.1 365.0,73.3 365.8,73.4 366.6,73.6 367.4,73.8 368.3,73.9 369.1,74.1 369.9,74.3 370.7,74.4 371.5,74.6 372.3,74.7 373.1,74.8 373.9,75.0 374.8,75.1 375.6,75.2 376.4,75.4 377.2,75.5 378.0,75.6 378.8,75.7 379.6,75.8 380.4,75.9 381.3,76.0 382.1,76.1 382.9,76.1 383.7,76.2 384.5,76.3" fill="none" stroke="#4a90d9" stroke-width="1.5" stroke-linejoin="round" clip-path="url(#pc322)"/>
  <line x1="445" y1="12" x2="445" y2="162" stroke="#d1d5db"/>
  <line x1="445" y1="87.0" x2="775" y2="87.0" stroke="#d1d5db"/>
  <text x="610" y="190" text-anchor="middle" font-size="9" fill="#6b7280">Hz</text>
  <text x="419" y="87" text-anchor="middle" font-size="9" fill="#6b7280" transform="rotate(-90 419 87)">Phase (deg)</text>
  <line x1="475.1" y1="12" x2="475.1" y2="162" stroke="#e5e7eb" stroke-width="0.5"/>
  <line x1="492.7" y1="12" x2="492.7" y2="162" stroke="#e5e7eb" stroke-width="0.5"/>
  <line x1="505.2" y1="12" x2="505.2" y2="162" stroke="#e5e7eb" stroke-width="0.5"/>
  <line x1="514.9" y1="12" x2="514.9" y2="162" stroke="#e5e7eb" stroke-width="0.5"/>
  <line x1="522.8" y1="12" x2="522.8" y2="162" stroke="#e5e7eb" stroke-width="0.5"/>
  <line x1="529.5" y1="12" x2="529.5" y2="162" stroke="#e5e7eb" stroke-width="0.5"/>
  <line x1="535.3" y1="12" x2="535.3" y2="162" stroke="#e5e7eb" stroke-width="0.5"/>
  <line x1="540.4" y1="12" x2="540.4" y2="162" stroke="#e5e7eb" stroke-width="0.5"/>
  <line x1="575.1" y1="12" x2="575.1" y2="162" stroke="#e5e7eb" stroke-width="0.5"/>
  <line x1="592.7" y1="12" x2="592.7" y2="162" stroke="#e5e7eb" stroke-width="0.5"/>
  <line x1="605.2" y1="12" x2="605.2" y2="162" stroke="#e5e7eb" stroke-width="0.5"/>
  <line x1="614.8" y1="12" x2="614.8" y2="162" stroke="#e5e7eb" stroke-width="0.5"/>
  <line x1="622.8" y1="12" x2="622.8" y2="162" stroke="#e5e7eb" stroke-width="0.5"/>
  <line x1="629.5" y1="12" x2="629.5" y2="162" stroke="#e5e7eb" stroke-width="0.5"/>
  <line x1="635.2" y1="12" x2="635.2" y2="162" stroke="#e5e7eb" stroke-width="0.5"/>
  <line x1="640.4" y1="12" x2="640.4" y2="162" stroke="#e5e7eb" stroke-width="0.5"/>
  <line x1="675.0" y1="12" x2="675.0" y2="162" stroke="#e5e7eb" stroke-width="0.5"/>
  <line x1="692.6" y1="12" x2="692.6" y2="162" stroke="#e5e7eb" stroke-width="0.5"/>
  <line x1="705.1" y1="12" x2="705.1" y2="162" stroke="#e5e7eb" stroke-width="0.5"/>
  <line x1="714.8" y1="12" x2="714.8" y2="162" stroke="#e5e7eb" stroke-width="0.5"/>
  <line x1="722.7" y1="12" x2="722.7" y2="162" stroke="#e5e7eb" stroke-width="0.5"/>
  <line x1="729.4" y1="12" x2="729.4" y2="162" stroke="#e5e7eb" stroke-width="0.5"/>
  <line x1="735.2" y1="12" x2="735.2" y2="162" stroke="#e5e7eb" stroke-width="0.5"/>
  <line x1="740.3" y1="12" x2="740.3" y2="162" stroke="#e5e7eb" stroke-width="0.5"/>
  <line x1="775.0" y1="12" x2="775.0" y2="162" stroke="#e5e7eb" stroke-width="0.5"/>
  <line x1="545.0" y1="12" x2="545.0" y2="162" stroke="#e5e7eb" stroke-width="0.5"/>
  <text x="545.0" y="174" text-anchor="middle" font-size="8" fill="#6b7280">100</text>
  <line x1="644.9" y1="12" x2="644.9" y2="162" stroke="#e5e7eb" stroke-width="0.5"/>
  <text x="644.9" y="174" text-anchor="middle" font-size="8" fill="#6b7280">1k</text>
  <line x1="744.9" y1="12" x2="744.9" y2="162" stroke="#e5e7eb" stroke-width="0.5"/>
  <text x="744.9" y="174" text-anchor="middle" font-size="8" fill="#6b7280">10k</text>
  <line x1="445" y1="53.3" x2="775" y2="53.3" stroke="#e5e7eb" stroke-width="0.5"/>
  <line x1="445" y1="120.8" x2="775" y2="120.8" stroke="#e5e7eb" stroke-width="0.5"/>
  <line x1="445" y1="19.5" x2="775" y2="19.5" stroke="#e5e7eb" stroke-width="0.5"/>
  <text x="441" y="22.5" text-anchor="end" font-size="8" fill="#6b7280">180</text>
  <text x="441" y="90.0" text-anchor="end" font-size="8" fill="#6b7280">0</text>
  <line x1="445" y1="154.5" x2="775" y2="154.5" stroke="#e5e7eb" stroke-width="0.5"/>
  <text x="441" y="157.5" text-anchor="end" font-size="8" fill="#6b7280">-180</text>
  <defs><linearGradient id="g323" x1="0" y1="162" x2="0" y2="87.0" gradientUnits="userSpaceOnUse">
    <stop offset="0%" stop-color="#e74c3c" stop-opacity="0.15"/>
    <stop offset="100%" stop-color="#e74c3c" stop-opacity="0.02"/>
  </linearGradient></defs>
  <path d="M448.2,87.2 448.2,87.2 478.3,87.4 495.9,87.6 508.4,87.9 518.1,88.1 526.0,88.3 532.7,88.5 538.5,88.7 543.6,88.9 548.2,89.1 552.3,89.4 556.1,89.6 559.6,89.8 562.8,90.0 565.8,90.2 568.6,90.4 571.2,90.6 573.7,90.8 576.0,91.0 578.3,91.2 580.4,91.4 582.4,91.6 584.3,91.8 586.2,92.0 588.0,92.2 589.7,92.4 591.3,92.6 592.9,92.8 594.4,93.0 595.9,93.2 597.3,93.4 598.7,93.6 600.0,93.8 601.3,94.0 602.6,94.2 603.8,94.4 605.0,94.5 606.1,94.7 607.3,94.9 608.4,95.1 609.4,95.3 610.5,95.4 611.5,95.6 612.5,95.8 613.5,96.0 614.4,96.1 615.4,96.3 616.3,96.5 617.2,96.6 618.1,96.8 618.9,97.0 619.8,97.1 620.6,97.3 621.4,97.4 623.0,97.8 624.5,98.1 626.0,98.4 627.4,98.6 628.8,98.9 630.1,99.2 631.4,99.5 632.7,99.8 633.9,100.0 635.1,100.3 636.2,100.5 637.4,100.8 638.5,101.0 639.5,101.2 640.6,101.4 641.6,101.7 642.6,101.9 643.6,102.1 644.5,102.3 645.5,102.5 646.4,102.7 647.3,102.9 648.1,103.1 649.0,103.2 649.8,103.4 650.7,103.6 651.5,103.8 652.7,104.0 653.8,104.2 655.0,104.5 656.1,104.7 657.1,104.9 658.2,105.1 659.2,105.3 660.2,105.5 661.2,105.6 662.1,105.8 663.1,106.0 664.0,106.1 664.9,106.3 665.7,106.4 666.6,106.6 667.5,106.7 668.3,106.8 669.1,107.0 670.1,107.1 671.2,107.3 672.2,107.4 673.2,107.6 674.1,107.7 675.1,107.8 676.0,107.9 676.9,108.0 677.8,108.1 678.7,108.2 679.5,108.3 680.4,108.4 681.2,108.5 682.0,108.6 683.0,108.7 683.9,108.8 684.9,108.9 685.8,108.9 686.7,109.0 687.6,109.1 688.4,109.1 689.3,109.2 690.1,109.2 690.9,109.3 691.7,109.3 692.7,109.4 693.6,109.4 694.5,109.4 695.4,109.5 696.3,109.5 697.1,109.5 698.0,109.5 698.8,109.5 699.6,109.5 700.5,109.5 701.4,109.6 702.3,109.5 703.2,109.5 704.0,109.5 704.8,109.5 705.6,109.5 706.4,109.5 707.3,109.4 708.2,109.4 709.1,109.4 709.9,109.3 710.8,109.3 711.6,109.3 712.5,109.2 713.3,109.1 714.2,109.1 715.1,109.0 715.9,109.0 716.7,108.9 717.6,108.8 718.5,108.7 719.3,108.6 720.1,108.5 721.0,108.5 721.8,108.4 722.6,108.3 723.5,108.1 724.3,108.0 725.1,107.9 725.9,107.8 726.8,107.7 727.6,107.5 728.5,107.4 729.3,107.3 730.1,107.1 731.0,107.0 731.8,106.8 732.6,106.7 733.5,106.5 734.3,106.3 735.2,106.1 736.0,106.0 736.8,105.8 737.7,105.6 738.5,105.4 739.3,105.2 740.1,105.0 741.0,104.8 741.8,104.6 742.6,104.3 743.4,104.1 744.3,103.9 745.1,103.6 745.9,103.4 746.7,103.1 747.6,102.9 748.4,102.6 749.2,102.3 750.1,102.0 750.9,101.8 751.7,101.5 752.5,101.2 753.3,100.9 754.1,100.6 755.0,100.2 755.8,99.9 756.6,99.6 757.4,99.2 758.3,98.9 759.1,98.5 759.9,98.2 760.7,97.8 761.5,97.4 762.3,97.0 763.1,96.7 763.9,96.3 764.8,95.8 765.6,95.4 766.4,95.0 767.2,94.6 768.0,94.1 768.8,93.7 769.6,93.2 770.4,92.7 771.3,92.3 772.1,91.8 772.9,91.3 773.7,90.8 774.5,90.2 L774.5,87.0 L448.2,87.0 Z" fill="url(#g323)"/>
  <defs><clipPath id="pc324"><rect x="445" y="12" width="330" height="150"/></clipPath></defs>
  <polyline points="448.2,87.2 478.3,87.4 495.9,87.6 508.4,87.9 518.1,88.1 526.0,88.3 532.7,88.5 538.5,88.7 543.6,88.9 548.2,89.1 552.3,89.4 556.1,89.6 559.6,89.8 562.8,90.0 565.8,90.2 568.6,90.4 571.2,90.6 573.7,90.8 576.0,91.0 578.3,91.2 580.4,91.4 582.4,91.6 584.3,91.8 586.2,92.0 588.0,92.2 589.7,92.4 591.3,92.6 592.9,92.8 594.4,93.0 595.9,93.2 597.3,93.4 598.7,93.6 600.0,93.8 601.3,94.0 602.6,94.2 603.8,94.4 605.0,94.5 606.1,94.7 607.3,94.9 608.4,95.1 609.4,95.3 610.5,95.4 611.5,95.6 612.5,95.8 613.5,96.0 614.4,96.1 615.4,96.3 616.3,96.5 617.2,96.6 618.1,96.8 618.9,97.0 619.8,97.1 620.6,97.3 621.4,97.4 623.0,97.8 624.5,98.1 626.0,98.4 627.4,98.6 628.8,98.9 630.1,99.2 631.4,99.5 632.7,99.8 633.9,100.0 635.1,100.3 636.2,100.5 637.4,100.8 638.5,101.0 639.5,101.2 640.6,101.4 641.6,101.7 642.6,101.9 643.6,102.1 644.5,102.3 645.5,102.5 646.4,102.7 647.3,102.9 648.1,103.1 649.0,103.2 649.8,103.4 650.7,103.6 651.5,103.8 652.7,104.0 653.8,104.2 655.0,104.5 656.1,104.7 657.1,104.9 658.2,105.1 659.2,105.3 660.2,105.5 661.2,105.6 662.1,105.8 663.1,106.0 664.0,106.1 664.9,106.3 665.7,106.4 666.6,106.6 667.5,106.7 668.3,106.8 669.1,107.0 670.1,107.1 671.2,107.3 672.2,107.4 673.2,107.6 674.1,107.7 675.1,107.8 676.0,107.9 676.9,108.0 677.8,108.1 678.7,108.2 679.5,108.3 680.4,108.4 681.2,108.5 682.0,108.6 683.0,108.7 683.9,108.8 684.9,108.9 685.8,108.9 686.7,109.0 687.6,109.1 688.4,109.1 689.3,109.2 690.1,109.2 690.9,109.3 691.7,109.3 692.7,109.4 693.6,109.4 694.5,109.4 695.4,109.5 696.3,109.5 697.1,109.5 698.0,109.5 698.8,109.5 699.6,109.5 700.5,109.5 701.4,109.6 702.3,109.5 703.2,109.5 704.0,109.5 704.8,109.5 705.6,109.5 706.4,109.5 707.3,109.4 708.2,109.4 709.1,109.4 709.9,109.3 710.8,109.3 711.6,109.3 712.5,109.2 713.3,109.1 714.2,109.1 715.1,109.0 715.9,109.0 716.7,108.9 717.6,108.8 718.5,108.7 719.3,108.6 720.1,108.5 721.0,108.5 721.8,108.4 722.6,108.3 723.5,108.1 724.3,108.0 725.1,107.9 725.9,107.8 726.8,107.7 727.6,107.5 728.5,107.4 729.3,107.3 730.1,107.1 731.0,107.0 731.8,106.8 732.6,106.7 733.5,106.5 734.3,106.3 735.2,106.1 736.0,106.0 736.8,105.8 737.7,105.6 738.5,105.4 739.3,105.2 740.1,105.0 741.0,104.8 741.8,104.6 742.6,104.3 743.4,104.1 744.3,103.9 745.1,103.6 745.9,103.4 746.7,103.1 747.6,102.9 748.4,102.6 749.2,102.3 750.1,102.0 750.9,101.8 751.7,101.5 752.5,101.2 753.3,100.9 754.1,100.6 755.0,100.2 755.8,99.9 756.6,99.6 757.4,99.2 758.3,98.9 759.1,98.5 759.9,98.2 760.7,97.8 761.5,97.4 762.3,97.0 763.1,96.7 763.9,96.3 764.8,95.8 765.6,95.4 766.4,95.0 767.2,94.6 768.0,94.1 768.8,93.7 769.6,93.2 770.4,92.7 771.3,92.3 772.1,91.8 772.9,91.3 773.7,90.8 774.5,90.2" fill="none" stroke="#e74c3c" stroke-width="1.5" stroke-linejoin="round" clip-path="url(#pc324)"/>
  <line x1="55" y1="210" x2="55" y2="360" stroke="#d1d5db"/>
  <line x1="55" y1="285.0" x2="385" y2="285.0" stroke="#d1d5db"/>
  <text x="220" y="388" text-anchor="middle" font-size="9" fill="#6b7280">Hz</text>
  <text x="29" y="285" text-anchor="middle" font-size="9" fill="#6b7280" transform="rotate(-90 29 285)">Group delay</text>
  <line x1="85.1" y1="210" x2="85.1" y2="360" stroke="#e5e7eb" stroke-width="0.5"/>
  <line x1="102.7" y1="210" x2="102.7" y2="360" stroke="#e5e7eb" stroke-width="0.5"/>
  <line x1="115.2" y1="210" x2="115.2" y2="360" stroke="#e5e7eb" stroke-width="0.5"/>
  <line x1="124.9" y1="210" x2="124.9" y2="360" stroke="#e5e7eb" stroke-width="0.5"/>
  <line x1="132.8" y1="210" x2="132.8" y2="360" stroke="#e5e7eb" stroke-width="0.5"/>
  <line x1="139.5" y1="210" x2="139.5" y2="360" stroke="#e5e7eb" stroke-width="0.5"/>
  <line x1="145.3" y1="210" x2="145.3" y2="360" stroke="#e5e7eb" stroke-width="0.5"/>
  <line x1="150.4" y1="210" x2="150.4" y2="360" stroke="#e5e7eb" stroke-width="0.5"/>
  <line x1="185.1" y1="210" x2="185.1" y2="360" stroke="#e5e7eb" stroke-width="0.5"/>
  <line x1="202.7" y1="210" x2="202.7" y2="360" stroke="#e5e7eb" stroke-width="0.5"/>
  <line x1="215.2" y1="210" x2="215.2" y2="360" stroke="#e5e7eb" stroke-width="0.5"/>
  <line x1="224.8" y1="210" x2="224.8" y2="360" stroke="#e5e7eb" stroke-width="0.5"/>
  <line x1="232.8" y1="210" x2="232.8" y2="360" stroke="#e5e7eb" stroke-width="0.5"/>
  <line x1="239.5" y1="210" x2="239.5" y2="360" stroke="#e5e7eb" stroke-width="0.5"/>
  <line x1="245.2" y1="210" x2="245.2" y2="360" stroke="#e5e7eb" stroke-width="0.5"/>
  <line x1="250.4" y1="210" x2="250.4" y2="360" stroke="#e5e7eb" stroke-width="0.5"/>
  <line x1="285.0" y1="210" x2="285.0" y2="360" stroke="#e5e7eb" stroke-width="0.5"/>
  <line x1="302.6" y1="210" x2="302.6" y2="360" stroke="#e5e7eb" stroke-width="0.5"/>
  <line x1="315.1" y1="210" x2="315.1" y2="360" stroke="#e5e7eb" stroke-width="0.5"/>
  <line x1="324.8" y1="210" x2="324.8" y2="360" stroke="#e5e7eb" stroke-width="0.5"/>
  <line x1="332.7" y1="210" x2="332.7" y2="360" stroke="#e5e7eb" stroke-width="0.5"/>
  <line x1="339.4" y1="210" x2="339.4" y2="360" stroke="#e5e7eb" stroke-width="0.5"/>
  <line x1="345.2" y1="210" x2="345.2" y2="360" stroke="#e5e7eb" stroke-width="0.5"/>
  <line x1="350.3" y1="210" x2="350.3" y2="360" stroke="#e5e7eb" stroke-width="0.5"/>
  <line x1="385.0" y1="210" x2="385.0" y2="360" stroke="#e5e7eb" stroke-width="0.5"/>
  <line x1="155.0" y1="210" x2="155.0" y2="360" stroke="#e5e7eb" stroke-width="0.5"/>
  <text x="155.0" y="372" text-anchor="middle" font-size="8" fill="#6b7280">100</text>
  <line x1="254.9" y1="210" x2="254.9" y2="360" stroke="#e5e7eb" stroke-width="0.5"/>
  <text x="254.9" y="372" text-anchor="middle" font-size="8" fill="#6b7280">1k</text>
  <line x1="354.9" y1="210" x2="354.9" y2="360" stroke="#e5e7eb" stroke-width="0.5"/>
  <text x="354.9" y="372" text-anchor="middle" font-size="8" fill="#6b7280">10k</text>
  <line x1="55" y1="334.5" x2="385" y2="334.5" stroke="#e5e7eb" stroke-width="0.5"/>
  <text x="51" y="337.5" text-anchor="end" font-size="8" fill="#6b7280">-3</text>
  <text x="51" y="288.0" text-anchor="end" font-size="8" fill="#6b7280">0</text>
  <line x1="55" y1="235.5" x2="385" y2="235.5" stroke="#e5e7eb" stroke-width="0.5"/>
  <text x="51" y="238.5" text-anchor="end" font-size="8" fill="#6b7280">3</text>
  <defs><linearGradient id="g325" x1="0" y1="360" x2="0" y2="285.0" gradientUnits="userSpaceOnUse">
    <stop offset="0%" stop-color="#2ecc71" stop-opacity="0.15"/>
    <stop offset="100%" stop-color="#2ecc71" stop-opacity="0.02"/>
  </linearGradient></defs>
  <path d="M58.2,286.2 58.2,286.2 88.3,287.5 105.9,288.7 118.4,290.0 128.1,291.2 136.0,292.4 142.7,293.7 148.5,294.9 153.6,296.1 158.2,297.3 162.3,298.5 166.1,299.7 169.6,300.9 172.8,302.0 175.8,303.2 178.6,304.3 181.2,305.5 183.7,306.6 186.0,307.7 188.3,308.8 190.4,309.9 192.4,310.9 194.3,312.0 196.2,313.0 198.0,314.0 199.7,315.0 201.3,316.0 202.9,316.9 204.4,317.9 205.9,318.8 207.3,319.7 208.7,320.6 210.0,321.5 211.3,322.3 212.6,323.1 213.8,323.9 215.0,324.7 216.1,325.5 217.3,326.2 218.4,327.0 219.4,327.7 220.5,328.4 221.5,329.0 222.5,329.7 223.5,330.3 224.4,330.9 225.4,331.5 226.3,332.1 227.2,332.7 228.1,333.2 228.9,333.7 229.8,334.2 230.6,334.7 231.4,335.2 233.0,336.1 234.5,336.9 236.0,337.6 237.4,338.3 238.8,339.0 240.1,339.5 241.4,340.0 242.7,340.5 243.9,340.9 245.1,341.3 246.2,341.6 247.4,341.9 248.5,342.1 249.5,342.3 250.6,342.4 251.6,342.5 252.6,342.6 253.6,342.7 254.5,342.7 255.5,342.7 256.4,342.7 257.3,342.6 258.1,342.5 259.0,342.4 259.8,342.3 260.7,342.2 261.5,342.0 262.7,341.7 263.8,341.5 265.0,341.1 266.1,340.8 267.1,340.4 268.2,340.0 269.2,339.6 270.2,339.2 271.2,338.8 272.1,338.3 273.1,337.9 274.0,337.4 274.9,337.0 275.7,336.5 276.6,336.0 277.5,335.6 278.3,335.1 279.1,334.6 280.1,334.0 281.2,333.4 282.2,332.7 283.2,332.1 284.1,331.5 285.1,330.9 286.0,330.3 286.9,329.7 287.8,329.1 288.7,328.5 289.5,327.9 290.4,327.4 291.2,326.8 292.0,326.3 293.0,325.6 293.9,325.0 294.9,324.3 295.8,323.7 296.7,323.1 297.6,322.5 298.4,321.9 299.3,321.4 300.1,320.8 300.9,320.3 301.7,319.7 302.7,319.1 303.6,318.5 304.5,317.9 305.4,317.4 306.3,316.8 307.1,316.3 308.0,315.7 308.8,315.2 309.6,314.7 310.5,314.2 311.4,313.6 312.3,313.1 313.2,312.6 314.0,312.1 314.8,311.6 315.6,311.2 316.4,310.7 317.3,310.2 318.2,309.7 319.1,309.3 319.9,308.8 320.8,308.4 321.6,307.9 322.5,307.5 323.3,307.0 324.2,306.6 325.1,306.2 325.9,305.8 326.7,305.4 327.6,304.9 328.5,304.5 329.3,304.1 330.1,303.7 331.0,303.4 331.8,303.0 332.6,302.6 333.5,302.3 334.3,301.9 335.1,301.6 335.9,301.2 336.8,300.9 337.6,300.5 338.5,300.2 339.3,299.9 340.1,299.5 341.0,299.2 341.8,298.9 342.6,298.6 343.5,298.3 344.3,298.0 345.2,297.7 346.0,297.4 346.8,297.1 347.7,296.8 348.5,296.5 349.3,296.2 350.1,296.0 351.0,295.7 351.8,295.4 352.6,295.2 353.4,294.9 354.3,294.6 355.1,294.4 355.9,294.1 356.7,293.9 357.6,293.6 358.4,293.4 359.2,293.1 360.1,292.9 360.9,292.7 361.7,292.4 362.5,292.2 363.3,292.0 364.1,291.7 365.0,291.5 365.8,291.3 366.6,291.1 367.4,290.8 368.3,290.6 369.1,290.4 369.9,290.2 370.7,290.0 371.5,289.8 372.3,289.6 373.1,289.3 373.9,289.1 374.8,288.9 375.6,288.7 376.4,288.5 377.2,288.3 378.0,288.1 378.8,287.9 379.6,287.6 380.4,287.4 381.3,287.2 382.1,287.0 382.9,286.8 383.7,286.6 384.5,286.3 L384.5,285.0 L58.2,285.0 Z" fill="url(#g325)"/>
  <defs><clipPath id="pc326"><rect x="55" y="210" width="330" height="150"/></clipPath></defs>
  <polyline points="58.2,286.2 88.3,287.5 105.9,288.7 118.4,290.0 128.1,291.2 136.0,292.4 142.7,293.7 148.5,294.9 153.6,296.1 158.2,297.3 162.3,298.5 166.1,299.7 169.6,300.9 172.8,302.0 175.8,303.2 178.6,304.3 181.2,305.5 183.7,306.6 186.0,307.7 188.3,308.8 190.4,309.9 192.4,310.9 194.3,312.0 196.2,313.0 198.0,314.0 199.7,315.0 201.3,316.0 202.9,316.9 204.4,317.9 205.9,318.8 207.3,319.7 208.7,320.6 210.0,321.5 211.3,322.3 212.6,323.1 213.8,323.9 215.0,324.7 216.1,325.5 217.3,326.2 218.4,327.0 219.4,327.7 220.5,328.4 221.5,329.0 222.5,329.7 223.5,330.3 224.4,330.9 225.4,331.5 226.3,332.1 227.2,332.7 228.1,333.2 228.9,333.7 229.8,334.2 230.6,334.7 231.4,335.2 233.0,336.1 234.5,336.9 236.0,337.6 237.4,338.3 238.8,339.0 240.1,339.5 241.4,340.0 242.7,340.5 243.9,340.9 245.1,341.3 246.2,341.6 247.4,341.9 248.5,342.1 249.5,342.3 250.6,342.4 251.6,342.5 252.6,342.6 253.6,342.7 254.5,342.7 255.5,342.7 256.4,342.7 257.3,342.6 258.1,342.5 259.0,342.4 259.8,342.3 260.7,342.2 261.5,342.0 262.7,341.7 263.8,341.5 265.0,341.1 266.1,340.8 267.1,340.4 268.2,340.0 269.2,339.6 270.2,339.2 271.2,338.8 272.1,338.3 273.1,337.9 274.0,337.4 274.9,337.0 275.7,336.5 276.6,336.0 277.5,335.6 278.3,335.1 279.1,334.6 280.1,334.0 281.2,333.4 282.2,332.7 283.2,332.1 284.1,331.5 285.1,330.9 286.0,330.3 286.9,329.7 287.8,329.1 288.7,328.5 289.5,327.9 290.4,327.4 291.2,326.8 292.0,326.3 293.0,325.6 293.9,325.0 294.9,324.3 295.8,323.7 296.7,323.1 297.6,322.5 298.4,321.9 299.3,321.4 300.1,320.8 300.9,320.3 301.7,319.7 302.7,319.1 303.6,318.5 304.5,317.9 305.4,317.4 306.3,316.8 307.1,316.3 308.0,315.7 308.8,315.2 309.6,314.7 310.5,314.2 311.4,313.6 312.3,313.1 313.2,312.6 314.0,312.1 314.8,311.6 315.6,311.2 316.4,310.7 317.3,310.2 318.2,309.7 319.1,309.3 319.9,308.8 320.8,308.4 321.6,307.9 322.5,307.5 323.3,307.0 324.2,306.6 325.1,306.2 325.9,305.8 326.7,305.4 327.6,304.9 328.5,304.5 329.3,304.1 330.1,303.7 331.0,303.4 331.8,303.0 332.6,302.6 333.5,302.3 334.3,301.9 335.1,301.6 335.9,301.2 336.8,300.9 337.6,300.5 338.5,300.2 339.3,299.9 340.1,299.5 341.0,299.2 341.8,298.9 342.6,298.6 343.5,298.3 344.3,298.0 345.2,297.7 346.0,297.4 346.8,297.1 347.7,296.8 348.5,296.5 349.3,296.2 350.1,296.0 351.0,295.7 351.8,295.4 352.6,295.2 353.4,294.9 354.3,294.6 355.1,294.4 355.9,294.1 356.7,293.9 357.6,293.6 358.4,293.4 359.2,293.1 360.1,292.9 360.9,292.7 361.7,292.4 362.5,292.2 363.3,292.0 364.1,291.7 365.0,291.5 365.8,291.3 366.6,291.1 367.4,290.8 368.3,290.6 369.1,290.4 369.9,290.2 370.7,290.0 371.5,289.8 372.3,289.6 373.1,289.3 373.9,289.1 374.8,288.9 375.6,288.7 376.4,288.5 377.2,288.3 378.0,288.1 378.8,287.9 379.6,287.6 380.4,287.4 381.3,287.2 382.1,287.0 382.9,286.8 383.7,286.6 384.5,286.3" fill="none" stroke="#2ecc71" stroke-width="1.5" stroke-linejoin="round" clip-path="url(#pc326)"/>
  <line x1="445" y1="210" x2="445" y2="360" stroke="#d1d5db"/>
  <line x1="445" y1="285.0" x2="775" y2="285.0" stroke="#d1d5db"/>
  <text x="610" y="388" text-anchor="middle" font-size="9" fill="#6b7280">Samples</text>
  <text x="419" y="285" text-anchor="middle" font-size="9" fill="#6b7280" transform="rotate(-90 419 285)">Impulse response</text>
  <line x1="445.0" y1="210" x2="445.0" y2="360" stroke="#e5e7eb" stroke-width="0.5"/>
  <text x="445.0" y="372" text-anchor="middle" font-size="8" fill="#6b7280">0</text>
  <line x1="527.5" y1="210" x2="527.5" y2="360" stroke="#e5e7eb" stroke-width="0.5"/>
  <text x="527.5" y="372" text-anchor="middle" font-size="8" fill="#6b7280">32</text>
  <line x1="610.0" y1="210" x2="610.0" y2="360" stroke="#e5e7eb" stroke-width="0.5"/>
  <text x="610.0" y="372" text-anchor="middle" font-size="8" fill="#6b7280">64</text>
  <line x1="692.5" y1="210" x2="692.5" y2="360" stroke="#e5e7eb" stroke-width="0.5"/>
  <text x="692.5" y="372" text-anchor="middle" font-size="8" fill="#6b7280">96</text>
  <line x1="775.0" y1="210" x2="775.0" y2="360" stroke="#e5e7eb" stroke-width="0.5"/>
  <text x="775.0" y="372" text-anchor="middle" font-size="8" fill="#6b7280">128</text>
  <line x1="445" y1="335.8" x2="775" y2="335.8" stroke="#e5e7eb" stroke-width="0.5"/>
  <text x="441" y="338.8" text-anchor="end" font-size="8" fill="#6b7280">-0.09</text>
  <text x="441" y="288.0" text-anchor="end" font-size="8" fill="#6b7280">0</text>
  <line x1="445" y1="234.2" x2="775" y2="234.2" stroke="#e5e7eb" stroke-width="0.5"/>
  <text x="441" y="237.2" text-anchor="end" font-size="8" fill="#6b7280">0.09</text>
  <defs><linearGradient id="g327" x1="0" y1="210" x2="0" y2="285.0" gradientUnits="userSpaceOnUse">
    <stop offset="0%" stop-color="#f39c12" stop-opacity="0.15"/>
    <stop offset="100%" stop-color="#f39c12" stop-opacity="0.02"/>
  </linearGradient></defs>
  <path d="M445.0,210.0 445.0,210.0 447.6,220.0 450.2,228.6 452.7,236.1 455.3,242.6 457.9,248.2 460.5,253.1 463.0,257.3 465.6,261.0 468.2,264.2 470.8,267.0 473.4,269.4 475.9,271.4 478.5,273.2 481.1,274.8 483.7,276.2 486.3,277.3 488.8,278.3 491.4,279.2 494.0,280.0 496.6,280.7 499.1,281.2 501.7,281.7 504.3,282.2 506.9,282.5 509.5,282.9 512.0,283.2 514.6,283.4 517.2,283.6 519.8,283.8 522.3,284.0 524.9,284.1 527.5,284.2 530.1,284.3 532.7,284.4 535.2,284.5 537.8,284.6 540.4,284.6 543.0,284.7 545.5,284.7 548.1,284.7 550.7,284.8 553.3,284.8 555.9,284.8 558.4,284.9 561.0,284.9 563.6,284.9 566.2,284.9 568.8,284.9 571.3,284.9 573.9,284.9 576.5,284.9 579.1,285.0 581.6,285.0 584.2,285.0 586.8,285.0 589.4,285.0 592.0,285.0 594.5,285.0 597.1,285.0 599.7,285.0 602.3,285.0 604.8,285.0 607.4,285.0 610.0,285.0 612.6,285.0 615.2,285.0 617.7,285.0 620.3,285.0 622.9,285.0 625.5,285.0 628.0,285.0 630.6,285.0 633.2,285.0 635.8,285.0 638.4,285.0 640.9,285.0 643.5,285.0 646.1,285.0 648.7,285.0 651.3,285.0 653.8,285.0 656.4,285.0 659.0,285.0 661.6,285.0 664.1,285.0 666.7,285.0 669.3,285.0 671.9,285.0 674.5,285.0 677.0,285.0 679.6,285.0 682.2,285.0 684.8,285.0 687.3,285.0 689.9,285.0 692.5,285.0 695.1,285.0 697.7,285.0 700.2,285.0 702.8,285.0 705.4,285.0 708.0,285.0 710.5,285.0 713.1,285.0 715.7,285.0 718.3,285.0 720.9,285.0 723.4,285.0 726.0,285.0 728.6,285.0 731.2,285.0 733.8,285.0 736.3,285.0 738.9,285.0 741.5,285.0 744.1,285.0 746.6,285.0 749.2,285.0 751.8,285.0 754.4,285.0 757.0,285.0 759.5,285.0 762.1,285.0 764.7,285.0 767.3,285.0 769.8,285.0 772.4,285.0 L772.4,285.0 L445.0,285.0 Z" fill="url(#g327)"/>
  <defs><clipPath id="pc328"><rect x="445" y="210" width="330" height="150"/></clipPath></defs>
  <polyline points="445.0,210.0 447.6,220.0 450.2,228.6 452.7,236.1 455.3,242.6 457.9,248.2 460.5,253.1 463.0,257.3 465.6,261.0 468.2,264.2 470.8,267.0 473.4,269.4 475.9,271.4 478.5,273.2 481.1,274.8 483.7,276.2 486.3,277.3 488.8,278.3 491.4,279.2 494.0,280.0 496.6,280.7 499.1,281.2 501.7,281.7 504.3,282.2 506.9,282.5 509.5,282.9 512.0,283.2 514.6,283.4 517.2,283.6 519.8,283.8 522.3,284.0 524.9,284.1 527.5,284.2 530.1,284.3 532.7,284.4 535.2,284.5 537.8,284.6 540.4,284.6 543.0,284.7 545.5,284.7 548.1,284.7 550.7,284.8 553.3,284.8 555.9,284.8 558.4,284.9 561.0,284.9 563.6,284.9 566.2,284.9 568.8,284.9 571.3,284.9 573.9,284.9 576.5,284.9 579.1,285.0 581.6,285.0 584.2,285.0 586.8,285.0 589.4,285.0 592.0,285.0 594.5,285.0 597.1,285.0 599.7,285.0 602.3,285.0 604.8,285.0 607.4,285.0 610.0,285.0 612.6,285.0 615.2,285.0 617.7,285.0 620.3,285.0 622.9,285.0 625.5,285.0 628.0,285.0 630.6,285.0 633.2,285.0 635.8,285.0 638.4,285.0 640.9,285.0 643.5,285.0 646.1,285.0 648.7,285.0 651.3,285.0 653.8,285.0 656.4,285.0 659.0,285.0 661.6,285.0 664.1,285.0 666.7,285.0 669.3,285.0 671.9,285.0 674.5,285.0 677.0,285.0 679.6,285.0 682.2,285.0 684.8,285.0 687.3,285.0 689.9,285.0 692.5,285.0 695.1,285.0 697.7,285.0 700.2,285.0 702.8,285.0 705.4,285.0 708.0,285.0 710.5,285.0 713.1,285.0 715.7,285.0 718.3,285.0 720.9,285.0 723.4,285.0 726.0,285.0 728.6,285.0 731.2,285.0 733.8,285.0 736.3,285.0 738.9,285.0 741.5,285.0 744.1,285.0 746.6,285.0 749.2,285.0 751.8,285.0 754.4,285.0 757.0,285.0 759.5,285.0 762.1,285.0 764.7,285.0 767.3,285.0 769.8,285.0 772.4,285.0" fill="none" stroke="#f39c12" stroke-width="1.3" stroke-linejoin="round" clip-path="url(#pc328)"/>
</svg>
