<svg xmlns="http://www.w3.org/2000/svg" viewBox="0 0 800 420" style="font-family:system-ui,-apple-system,sans-serif">
  <text x="55" y="416" font-size="11" font-weight="600" fill="#6b7280">Raised cosine, β=0.35, 4 sps</text>
  <line x1="55" y1="12" x2="55" y2="162" stroke="#d1d5db"/>
  <line x1="55" y1="42.0" x2="385" y2="42.0" stroke="#d1d5db"/>
  <text x="220" y="190" text-anchor="middle" font-size="9" fill="#6b7280">Hz</text>
  <text x="29" y="87" text-anchor="middle" font-size="9" fill="#6b7280" transform="rotate(-90 29 87)">dB</text>
  <line x1="85.1" y1="12" x2="85.1" y2="162" stroke="#e5e7eb" stroke-width="0.5"/>
  <line x1="102.7" y1="12" x2="102.7" y2="162" stroke="#e5e7eb" stroke-width="0.5"/>
  <line x1="115.2" y1="12" x2="115.2" y2="162" stroke="#e5e7eb" stroke-width="0.5"/>
  <line x1="124.9" y1="12" x2="124.9" y2="162" stroke="#e5e7eb" stroke-width="0.5"/>
  <line x1="132.8" y1="12" x2="132.8" y2="162" stroke="#e5e7eb" stroke-width="0.5"/>
  <line x1="139.5" y1="12" x2="139.5" y2="162" stroke="#e5e7eb" stroke-width="0.5"/>
  <line x1="145.3" y1="12" x2="145.3" y2="162" stroke="#e5e7eb" stroke-width="0.5"/>
  <line x1="150.4" y1="12" x2="150.4" y2="162" stroke="#e5e7eb" stroke-width="0.5"/>
  <line x1="185.1" y1="12" x2="185.1" y2="162" stroke="#e5e7eb" stroke-width="0.5"/>
  <line x1="202.7" y1="12" x2="202.7" y2="162" stroke="#e5e7eb" stroke-width="0.5"/>
  <line x1="215.2" y1="12" x2="215.2" y2="162" stroke="#e5e7eb" stroke-width="0.5"/>
  <line x1="224.8" y1="12" x2="224.8" y2="162" stroke="#e5e7eb" stroke-width="0.5"/>
  <line x1="232.8" y1="12" x2="232.8" y2="162" stroke="#e5e7eb" stroke-width="0.5"/>
  <line x1="239.5" y1="12" x2="239.5" y2="162" stroke="#e5e7eb" stroke-width="0.5"/>
  <line x1="245.2" y1="12" x2="245.2" y2="162" stroke="#e5e7eb" stroke-width="0.5"/>
  <line x1="250.4" y1="12" x2="250.4" y2="162" stroke="#e5e7eb" stroke-width="0.5"/>
  <line x1="285.0" y1="12" x2="285.0" y2="162" stroke="#e5e7eb" stroke-width="0.5"/>
  <line x1="302.6" y1="12" x2="302.6" y2="162" stroke="#e5e7eb" stroke-width="0.5"/>
  <line x1="315.1" y1="12" x2="315.1" y2="162" stroke="#e5e7eb" stroke-width="0.5"/>
  <line x1="324.8" y1="12" x2="324.8" y2="162" stroke="#e5e7eb" stroke-width="0.5"/>
  <line x1="332.7" y1="12" x2="332.7" y2="162" stroke="#e5e7eb" stroke-width="0.5"/>
  <line x1="339.4" y1="12" x2="339.4" y2="162" stroke="#e5e7eb" stroke-width="0.5"/>
  <line x1="345.2" y1="12" x2="345.2" y2="162" stroke="#e5e7eb" stroke-width="0.5"/>
  <line x1="350.3" y1="12" x2="350.3" y2="162" stroke="#e5e7eb" stroke-width="0.5"/>
  <line x1="385.0" y1="12" x2="385.0" y2="162" stroke="#e5e7eb" stroke-width="0.5"/>
  <line x1="155.0" y1="12" x2="155.0" y2="162" stroke="#e5e7eb" stroke-width="0.5"/>
  <text x="155.0" y="174" text-anchor="middle" font-size="8" fill="#6b7280">100</text>
  <line x1="254.9" y1="12" x2="254.9" y2="162" stroke="#e5e7eb" stroke-width="0.5"/>
  <text x="254.9" y="174" text-anchor="middle" font-size="8" fill="#6b7280">1k</text>
  <line x1="354.9" y1="12" x2="354.9" y2="162" stroke="#e5e7eb" stroke-width="0.5"/>
  <text x="354.9" y="174" text-anchor="middle" font-size="8" fill="#6b7280">10k</text>
  <line x1="55" y1="27.0" x2="385" y2="27.0" stroke="#e5e7eb" stroke-width="0.5"/>
  <line x1="55" y1="57.0" x2="385" y2="57.0" stroke="#e5e7eb" stroke-width="0.5"/>
  <line x1="55" y1="12.0" x2="385" y2="12.0" stroke="#e5e7eb" stroke-width="0.5"/>
  <text x="51" y="15.0" text-anchor="end" font-size="8" fill="#6b7280">+20</text>
  <text x="51" y="45.0" text-anchor="end" font-size="8" fill="#6b7280">0</text>
  <line x1="55" y1="72.0" x2="385" y2="72.0" stroke="#e5e7eb" stroke-width="0.5"/>
  <text x="51" y="75.0" text-anchor="end" font-size="8" fill="#6b7280">-20</text>
  <line x1="55" y1="102.0" x2="385" y2="102.0" stroke="#e5e7eb" stroke-width="0.5"/>
  <text x="51" y="105.0" text-anchor="end" font-size="8" fill="#6b7280">-40</text>
  <line x1="55" y1="132.0" x2="385" y2="132.0" stroke="#e5e7eb" stroke-width="0.5"/>
  <text x="51" y="135.0" text-anchor="end" font-size="8" fill="#6b7280">-60</text>
  <line x1="55" y1="162.0" x2="385" y2="162.0" stroke="#e5e7eb" stroke-width="0.5"/>
  <text x="51" y="165.0" text-anchor="end" font-size="8" fill="#6b7280">-80</text>
  <defs><linearGradient id="g456" x1="0" y1="12" x2="0" y2="162" gradientUnits="userSpaceOnUse">
    <stop offset="0%" stop-color="#4a90d9" stop-opacity="0.15"/>
    <stop offset="100%" stop-color="#4a90d9" stop-opacity="0.02"/>
  </linearGradient></defs>
  <path d="M58.2,32.4 58.2,32.4 88.3,32.4 105.9,32.4 118.4,32.4 128.1,32.4 136.0,32.4 142.7,32.4 148.5,32.4 153.6,32.4 158.2,32.4 162.3,32.4 166.1,32.4 169.6,32.4 172.8,32.4 175.8,32.4 178.6,32.4 181.2,32.4 183.7,32.4 186.0,32.4 188.3,32.4 190.4,32.4 192.4,32.4 194.3,32.4 196.2,32.4 198.0,32.4 199.7,32.4 201.3,32.4 202.9,32.4 204.4,32.4 205.9,32.4 207.3,32.4 208.7,32.4 210.0,32.4 211.3,32.4 212.6,32.4 213.8,32.4 215.0,32.4 216.1,32.4 217.3,32.4 218.4,32.4 219.4,32.4 220.5,32.4 221.5,32.4 222.5,32.4 223.5,32.4 224.4,32.4 225.4,32.4 226.3,32.4 227.2,32.4 228.1,32.4 228.9,32.4 229.8,32.4 230.6,32.4 231.4,32.4 233.0,32.4 234.5,32.4 236.0,32.4 237.4,32.4 238.8,32.4 240.1,32.4 241.4,32.4 242.7,32.4 243.9,32.4 245.1,32.4 246.2,32.4 247.4,32.4 248.5,32.4 249.5,32.4 250.6,32.4 251.6,32.4 252.6,32.4 253.6,32.4 254.5,32.4 255.5,32.4 256.4,32.4 257.3,32.4 258.1,32.4 259.0,32.4 259.8,32.4 260.7,32.4 261.5,32.4 262.7,32.4 263.8,32.4 265.0,32.4 266.1,32.4 267.1,32.4 268.2,32.4 269.2,32.4 270.2,32.4 271.2,32.4 272.1,32.4 273.1,32.4 274.0,32.4 274.9,32.4 275.7,32.4 276.6,32.4 277.5,32.4 278.3,32.4 279.1,32.4 280.1,32.4 281.2,32.4 282.2,32.4 283.2,32.4 284.1,32.4 285.1,32.4 286.0,32.4 286.9,32.4 287.8,32.4 288.7,32.4 289.5,32.4 290.4,32.4 291.2,32.4 292.0,32.4 293.0,32.4 293.9,32.4 294.9,32.4 295.8,32.4 296.7,32.4 297.6,32.4 298.4,32.4 299.3,32.4 300.1,32.4 300.9,32.4 301.7,32.4 302.7,32.4 303.6,32.4 304.5,32.4 305.4,32.4 306.3,32.3 307.1,32.3 308.0,32.3 308.8,32.3 309.6,32.4 310.5,32.4 311.4,32.4 312.3,32.5 313.2,32.5 314.0,32.6 314.8,32.7 315.6,32.9 316.4,33.0 317.3,33.2 318.2,33.5 319.1,33.8 319.9,34.1 320.8,34.4 321.6,34.9 322.5,35.4 323.3,35.9 324.2,36.5 325.1,37.2 325.9,37.9 326.7,38.7 327.6,39.6 328.5,40.6 329.3,41.8 330.1,43.0 331.0,44.3 331.8,45.7 332.6,47.5 333.5,49.5 334.3,51.7 335.1,54.2 335.9,57.0 336.8,60.6 337.6,64.8 338.5,69.7 339.3,75.7 340.1,83.9 341.0,95.5 341.8,118.6 342.6,116.4 343.5,113.0 344.3,120.8 345.2,152.2 346.0,123.3 346.8,121.0 347.7,127.7 348.5,162.0 349.3,129.9 350.1,126.7 351.0,133.0 351.8,162.0 352.6,133.4 353.4,131.4 354.3,140.3 355.1,147.9 355.9,134.8 356.7,136.7 357.6,162.0 358.4,140.4 359.2,137.4 360.1,150.1 360.9,146.4 361.7,139.2 362.5,148.3 363.3,150.6 364.1,141.1 365.0,149.9 365.8,151.3 366.6,142.8 367.4,156.6 368.3,148.0 369.1,145.4 369.9,162.0 370.7,145.9 371.5,151.7 372.3,153.5 373.1,147.0 373.9,162.0 374.8,147.4 375.6,160.1 376.4,150.3 377.2,153.3 378.0,154.6 378.8,151.1 379.6,159.2 380.4,150.5 381.3,161.2 382.1,151.0 382.9,160.4 383.7,152.0 384.5,157.6 L384.5,162.0 L58.2,162.0 Z" fill="url(#g456)"/>
  <defs><clipPath id="pc457"><rect x="55" y="12" width="330" height="150"/></clipPath></defs>
  <polyline points="58.2,32.4 88.3,32.4 105.9,32.4 118.4,32.4 128.1,32.4 136.0,32.4 142.7,32.4 148.5,32.4 153.6,32.4 158.2,32.4 162.3,32.4 166.1,32.4 169.6,32.4 172.8,32.4 175.8,32.4 178.6,32.4 181.2,32.4 183.7,32.4 186.0,32.4 188.3,32.4 190.4,32.4 192.4,32.4 194.3,32.4 196.2,32.4 198.0,32.4 199.7,32.4 201.3,32.4 202.9,32.4 204.4,32.4 205.9,32.4 207.3,32.4 208.7,32.4 210.0,32.4 211.3,32.4 212.6,32.4 213.8,32.4 215.0,32.4 216.1,32.4 217.3,32.4 218.4,32.4 219.4,32.4 220.5,32.4 221.5,32.4 222.5,32.4 223.5,32.4 224.4,32.4 225.4,32.4 226.3,32.4 227.2,32.4 228.1,32.4 228.9,32.4 229.8,32.4 230.6,32.4 231.4,32.4 233.0,32.4 234.5,32.4 236.0,32.4 237.4,32.4 238.8,32.4 240.1,32.4 241.4,32.4 242.7,32.4 243.9,32.4 245.1,32.4 246.2,32.4 247.4,32.4 248.5,32.4 249.5,32.4 250.6,32.4 251.6,32.4 252.6,32.4 253.6,32.4 254.5,32.4 255.5,32.4 256.4,32.4 257.3,32.4 258.1,32.4 259.0,32.4 259.8,32.4 260.7,32.4 261.5,32.4 262.7,32.4 263.8,32.4 265.0,32.4 266.1,32.4 267.1,32.4 268.2,32.4 269.2,32.4 270.2,32.4 271.2,32.4 272.1,32.4 273.1,32.4 274.0,32.4 274.9,32.4 275.7,32.4 276.6,32.4 277.5,32.4 278.3,32.4 279.1,32.4 280.1,32.4 281.2,32.4 282.2,32.4 283.2,32.4 284.1,32.4 285.1,32.4 286.0,32.4 286.9,32.4 287.8,32.4 288.7,32.4 289.5,32.4 290.4,32.4 291.2,32.4 292.0,32.4 293.0,32.4 293.9,32.4 294.9,32.4 295.8,32.4 296.7,32.4 297.6,32.4 298.4,32.4 299.3,32.4 300.1,32.4 300.9,32.4 301.7,32.4 302.7,32.4 303.6,32.4 304.5,32.4 305.4,32.4 306.3,32.3 307.1,32.3 308.0,32.3 308.8,32.3 309.6,32.4 310.5,32.4 311.4,32.4 312.3,32.5 313.2,32.5 314.0,32.6 314.8,32.7 315.6,32.9 316.4,33.0 317.3,33.2 318.2,33.5 319.1,33.8 319.9,34.1 320.8,34.4 321.6,34.9 322.5,35.4 323.3,35.9 324.2,36.5 325.1,37.2 325.9,37.9 326.7,38.7 327.6,39.6 328.5,40.6 329.3,41.8 330.1,43.0 331.0,44.3 331.8,45.7 332.6,47.5 333.5,49.5 334.3,51.7 335.1,54.2 335.9,57.0 336.8,60.6 337.6,64.8 338.5,69.7 339.3,75.7 340.1,83.9 341.0,95.5 341.8,118.6 342.6,116.4 343.5,113.0 344.3,120.8 345.2,152.2 346.0,123.3 346.8,121.0 347.7,127.7 348.5,172.5 349.3,129.9 350.1,126.7 351.0,133.0 351.8,168.1 352.6,133.4 353.4,131.4 354.3,140.3 355.1,147.9 355.9,134.8 356.7,136.7 357.6,164.5 358.4,140.4 359.2,137.4 360.1,150.1 360.9,146.4 361.7,139.2 362.5,148.3 363.3,150.6 364.1,141.1 365.0,149.9 365.8,151.3 366.6,142.8 367.4,156.6 368.3,148.0 369.1,145.4 369.9,196.4 370.7,145.9 371.5,151.7 372.3,153.5 373.1,147.0 373.9,184.6 374.8,147.4 375.6,160.1 376.4,150.3 377.2,153.3 378.0,154.6 378.8,151.1 379.6,159.2 380.4,150.5 381.3,161.2 382.1,151.0 382.9,160.4 383.7,152.0 384.5,157.6" fill="none" stroke="#4a90d9" stroke-width="1.5" stroke-linejoin="round" clip-path="url(#pc457)"/>
  <line x1="445" y1="12" x2="445" y2="162" stroke="#d1d5db"/>
  <line x1="445" y1="87.0" x2="775" y2="87.0" stroke="#d1d5db"/>
  <text x="610" y="190" text-anchor="middle" font-size="9" fill="#6b7280">Hz</text>
  <text x="419" y="87" text-anchor="middle" font-size="9" fill="#6b7280" transform="rotate(-90 419 87)">Phase (deg)</text>
  <line x1="475.1" y1="12" x2="475.1" y2="162" stroke="#e5e7eb" stroke-width="0.5"/>
  <line x1="492.7" y1="12" x2="492.7" y2="162" stroke="#e5e7eb" stroke-width="0.5"/>
  <line x1="505.2" y1="12" x2="505.2" y2="162" stroke="#e5e7eb" stroke-width="0.5"/>
  <line x1="514.9" y1="12" x2="514.9" y2="162" stroke="#e5e7eb" stroke-width="0.5"/>
  <line x1="522.8" y1="12" x2="522.8" y2="162" stroke="#e5e7eb" stroke-width="0.5"/>
  <line x1="529.5" y1="12" x2="529.5" y2="162" stroke="#e5e7eb" stroke-width="0.5"/>
  <line x1="535.3" y1="12" x2="535.3" y2="162" stroke="#e5e7eb" stroke-width="0.5"/>
  <line x1="540.4" y1="12" x2="540.4" y2="162" stroke="#e5e7eb" stroke-width="0.5"/>
  <line x1="575.1" y1="12" x2="575.1" y2="162" stroke="#e5e7eb" stroke-width="0.5"/>
  <line x1="592.7" y1="12" x2="592.7" y2="162" stroke="#e5e7eb" stroke-width="0.5"/>
  <line x1="605.2" y1="12" x2="605.2" y2="162" stroke="#e5e7eb" stroke-width="0.5"/>
  <line x1="614.8" y1="12" x2="614.8" y2="162" stroke="#e5e7eb" stroke-width="0.5"/>
  <line x1="622.8" y1="12" x2="622.8" y2="162" stroke="#e5e7eb" stroke-width="0.5"/>
  <line x1="629.5" y1="12" x2="629.5" y2="162" stroke="#e5e7eb" stroke-width="0.5"/>
  <line x1="635.2" y1="12" x2="635.2" y2="162" stroke="#e5e7eb" stroke-width="0.5"/>
  <line x1="640.4" y1="12" x2="640.4" y2="162" stroke="#e5e7eb" stroke-width="0.5"/>
  <line x1="675.0" y1="12" x2="675.0" y2="162" stroke="#e5e7eb" stroke-width="0.5"/>
  <line x1="692.6" y1="12" x2="692.6" y2="162" stroke="#e5e7eb" stroke-width="0.5"/>
  <line x1="705.1" y1="12" x2="705.1" y2="162" stroke="#e5e7eb" stroke-width="0.5"/>
  <line x1="714.8" y1="12" x2="714.8" y2="162" stroke="#e5e7eb" stroke-width="0.5"/>
  <line x1="722.7" y1="12" x2="722.7" y2="162" stroke="#e5e7eb" stroke-width="0.5"/>
  <line x1="729.4" y1="12" x2="729.4" y2="162" stroke="#e5e7eb" stroke-width="0.5"/>
  <line x1="735.2" y1="12" x2="735.2" y2="162" stroke="#e5e7eb" stroke-width="0.5"/>
  <line x1="740.3" y1="12" x2="740.3" y2="162" stroke="#e5e7eb" stroke-width="0.5"/>
  <line x1="775.0" y1="12" x2="775.0" y2="162" stroke="#e5e7eb" stroke-width="0.5"/>
  <line x1="545.0" y1="12" x2="545.0" y2="162" stroke="#e5e7eb" stroke-width="0.5"/>
  <text x="545.0" y="174" text-anchor="middle" font-size="8" fill="#6b7280">100</text>
  <line x1="644.9" y1="12" x2="644.9" y2="162" stroke="#e5e7eb" stroke-width="0.5"/>
  <text x="644.9" y="174" text-anchor="middle" font-size="8" fill="#6b7280">1k</text>
  <line x1="744.9" y1="12" x2="744.9" y2="162" stroke="#e5e7eb" stroke-width="0.5"/>
  <text x="744.9" y="174" text-anchor="middle" font-size="8" fill="#6b7280">10k</text>
  <line x1="445" y1="53.3" x2="775" y2="53.3" stroke="#e5e7eb" stroke-width="0.5"/>
  <line x1="445" y1="120.8" x2="775" y2="120.8" stroke="#e5e7eb" stroke-width="0.5"/>
  <line x1="445" y1="19.5" x2="775" y2="19.5" stroke="#e5e7eb" stroke-width="0.5"/>
  <text x="441" y="22.5" text-anchor="end" font-size="8" fill="#6b7280">180</text>
  <text x="441" y="90.0" text-anchor="end" font-size="8" fill="#6b7280">0</text>
  <line x1="445" y1="154.5" x2="775" y2="154.5" stroke="#e5e7eb" stroke-width="0.5"/>
  <text x="441" y="157.5" text-anchor="end" font-size="8" fill="#6b7280">-180</text>
  <defs><linearGradient id="g458" x1="0" y1="12" x2="0" y2="87.0" gradientUnits="userSpaceOnUse">
    <stop offset="0%" stop-color="#e74c3c" stop-opacity="0.15"/>
    <stop offset="100%" stop-color="#e74c3c" stop-opacity="0.02"/>
  </linearGradient></defs>
  <defs><linearGradient id="g459" x1="0" y1="162" x2="0" y2="87.0" gradientUnits="userSpaceOnUse">
    <stop offset="0%" stop-color="#e74c3c" stop-opacity="0.15"/>
    <stop offset="100%" stop-color="#e74c3c" stop-opacity="0.02"/>
  </linearGradient></defs>
  <defs><clipPath id="c460"><rect x="445" y="12" width="330" height="75.0"/></clipPath></defs>
  <defs><clipPath id="c461"><rect x="445" y="87.0" width="330" height="75.0"/></clipPath></defs>
  <path d="M448.2,88.1 448.2,88.1 478.3,89.1 495.9,90.2 508.4,91.2 518.1,92.3 526.0,93.3 532.7,94.4 538.5,95.4 543.6,96.5 548.2,97.5 552.3,98.6 556.1,99.7 559.6,100.7 562.8,101.8 565.8,102.8 568.6,103.9 571.2,104.9 573.7,106.0 576.0,107.0 578.3,108.1 580.4,109.1 582.4,110.2 584.3,111.3 586.2,112.3 588.0,113.4 589.7,114.4 591.3,115.5 592.9,116.5 594.4,117.6 595.9,118.6 597.3,119.7 598.7,120.8 600.0,121.8 601.3,122.9 602.6,123.9 603.8,125.0 605.0,126.0 606.1,127.1 607.3,128.1 608.4,129.2 609.4,130.2 610.5,131.3 611.5,132.4 612.5,133.4 613.5,134.5 614.4,135.5 615.4,136.6 616.3,137.6 617.2,138.7 618.1,139.7 618.9,140.8 619.8,141.8 620.6,142.9 621.4,144.0 623.0,146.1 624.5,148.2 626.0,150.3 627.4,152.4 628.8,154.5 630.1,21.6 631.4,23.7 632.7,25.8 633.9,27.9 635.1,30.0 636.2,32.2 637.4,34.3 638.5,36.4 639.5,38.5 640.6,40.6 641.6,42.7 642.6,44.8 643.6,46.9 644.5,49.0 645.5,51.1 646.4,53.3 647.3,55.4 648.1,57.5 649.0,59.6 649.8,61.7 650.7,63.8 651.5,65.9 652.7,69.1 653.8,72.2 655.0,75.4 656.1,78.6 657.1,81.7 658.2,84.9 659.2,88.1 660.2,91.2 661.2,94.4 662.1,97.5 663.1,100.7 664.0,103.9 664.9,107.0 665.7,110.2 666.6,113.4 667.5,116.5 668.3,119.7 669.1,122.9 670.1,127.1 671.2,131.3 672.2,135.5 673.2,139.7 674.1,144.0 675.1,148.2 676.0,152.4 676.9,21.6 677.8,25.8 678.7,30.0 679.5,34.3 680.4,38.5 681.2,42.7 682.0,46.9 683.0,52.2 683.9,57.5 684.9,62.7 685.8,68.0 686.7,73.3 687.6,78.6 688.4,83.8 689.3,89.1 690.1,94.4 690.9,99.7 691.7,104.9 692.7,111.3 693.6,117.6 694.5,123.9 695.4,130.2 696.3,136.6 697.1,142.9 698.0,149.2 698.8,20.6 699.6,26.9 700.5,34.3 701.4,41.6 702.3,49.0 703.2,56.4 704.0,63.8 704.8,71.2 705.6,78.6 706.4,85.9 707.3,94.4 708.2,102.8 709.1,111.3 709.9,119.7 710.8,128.1 711.6,136.6 712.5,146.1 713.3,20.6 714.2,30.0 715.1,39.5 715.9,49.0 716.7,58.5 717.6,69.1 718.5,79.6 719.3,90.2 720.1,100.7 721.0,111.3 721.8,121.8 722.6,133.4 723.5,145.0 724.3,21.6 725.1,33.2 725.9,44.8 726.8,57.5 727.6,70.1 728.5,82.8 729.3,95.4 730.1,109.1 731.0,122.9 731.8,136.6 732.6,82.8 733.5,97.5 734.3,112.3 735.2,59.6 736.0,74.3 736.8,90.2 737.7,106.0 738.5,54.3 739.3,70.1 740.1,87.0 741.0,103.9 741.8,53.2 742.6,71.2 743.4,89.1 744.3,107.0 745.1,58.5 745.9,77.5 746.7,96.5 747.6,116.5 748.4,69.1 749.2,89.1 750.1,110.2 750.9,63.8 751.7,84.9 752.5,107.0 753.3,61.7 754.1,83.8 755.0,107.0 755.8,62.7 756.6,87.0 757.4,111.3 758.3,69.1 759.1,94.4 759.9,52.2 760.7,78.6 761.5,104.9 762.3,64.9 763.1,92.3 763.9,53.2 764.8,81.7 765.6,111.3 766.4,73.3 767.2,103.9 768.0,67.0 768.8,98.6 769.6,62.7 770.4,95.4 771.3,61.7 772.1,95.4 772.9,62.7 773.7,97.5 774.5,65.9 L774.5,87.0 L448.2,87.0 Z" fill="url(#g458)" clip-path="url(#c460)"/>
  <path d="M448.2,88.1 448.2,88.1 478.3,89.1 495.9,90.2 508.4,91.2 518.1,92.3 526.0,93.3 532.7,94.4 538.5,95.4 543.6,96.5 548.2,97.5 552.3,98.6 556.1,99.7 559.6,100.7 562.8,101.8 565.8,102.8 568.6,103.9 571.2,104.9 573.7,106.0 576.0,107.0 578.3,108.1 580.4,109.1 582.4,110.2 584.3,111.3 586.2,112.3 588.0,113.4 589.7,114.4 591.3,115.5 592.9,116.5 594.4,117.6 595.9,118.6 597.3,119.7 598.7,120.8 600.0,121.8 601.3,122.9 602.6,123.9 603.8,125.0 605.0,126.0 606.1,127.1 607.3,128.1 608.4,129.2 609.4,130.2 610.5,131.3 611.5,132.4 612.5,133.4 613.5,134.5 614.4,135.5 615.4,136.6 616.3,137.6 617.2,138.7 618.1,139.7 618.9,140.8 619.8,141.8 620.6,142.9 621.4,144.0 623.0,146.1 624.5,148.2 626.0,150.3 627.4,152.4 628.8,154.5 630.1,21.6 631.4,23.7 632.7,25.8 633.9,27.9 635.1,30.0 636.2,32.2 637.4,34.3 638.5,36.4 639.5,38.5 640.6,40.6 641.6,42.7 642.6,44.8 643.6,46.9 644.5,49.0 645.5,51.1 646.4,53.3 647.3,55.4 648.1,57.5 649.0,59.6 649.8,61.7 650.7,63.8 651.5,65.9 652.7,69.1 653.8,72.2 655.0,75.4 656.1,78.6 657.1,81.7 658.2,84.9 659.2,88.1 660.2,91.2 661.2,94.4 662.1,97.5 663.1,100.7 664.0,103.9 664.9,107.0 665.7,110.2 666.6,113.4 667.5,116.5 668.3,119.7 669.1,122.9 670.1,127.1 671.2,131.3 672.2,135.5 673.2,139.7 674.1,144.0 675.1,148.2 676.0,152.4 676.9,21.6 677.8,25.8 678.7,30.0 679.5,34.3 680.4,38.5 681.2,42.7 682.0,46.9 683.0,52.2 683.9,57.5 684.9,62.7 685.8,68.0 686.7,73.3 687.6,78.6 688.4,83.8 689.3,89.1 690.1,94.4 690.9,99.7 691.7,104.9 692.7,111.3 693.6,117.6 694.5,123.9 695.4,130.2 696.3,136.6 697.1,142.9 698.0,149.2 698.8,20.6 699.6,26.9 700.5,34.3 701.4,41.6 702.3,49.0 703.2,56.4 704.0,63.8 704.8,71.2 705.6,78.6 706.4,85.9 707.3,94.4 708.2,102.8 709.1,111.3 709.9,119.7 710.8,128.1 711.6,136.6 712.5,146.1 713.3,20.6 714.2,30.0 715.1,39.5 715.9,49.0 716.7,58.5 717.6,69.1 718.5,79.6 719.3,90.2 720.1,100.7 721.0,111.3 721.8,121.8 722.6,133.4 723.5,145.0 724.3,21.6 725.1,33.2 725.9,44.8 726.8,57.5 727.6,70.1 728.5,82.8 729.3,95.4 730.1,109.1 731.0,122.9 731.8,136.6 732.6,82.8 733.5,97.5 734.3,112.3 735.2,59.6 736.0,74.3 736.8,90.2 737.7,106.0 738.5,54.3 739.3,70.1 740.1,87.0 741.0,103.9 741.8,53.2 742.6,71.2 743.4,89.1 744.3,107.0 745.1,58.5 745.9,77.5 746.7,96.5 747.6,116.5 748.4,69.1 749.2,89.1 750.1,110.2 750.9,63.8 751.7,84.9 752.5,107.0 753.3,61.7 754.1,83.8 755.0,107.0 755.8,62.7 756.6,87.0 757.4,111.3 758.3,69.1 759.1,94.4 759.9,52.2 760.7,78.6 761.5,104.9 762.3,64.9 763.1,92.3 763.9,53.2 764.8,81.7 765.6,111.3 766.4,73.3 767.2,103.9 768.0,67.0 768.8,98.6 769.6,62.7 770.4,95.4 771.3,61.7 772.1,95.4 772.9,62.7 773.7,97.5 774.5,65.9 L774.5,87.0 L448.2,87.0 Z" fill="url(#g459)" clip-path="url(#c461)"/>
  <defs><clipPath id="pc462"><rect x="445" y="12" width="330" height="150"/></clipPath></defs>
  <polyline points="448.2,88.1 478.3,89.1 495.9,90.2 508.4,91.2 518.1,92.3 526.0,93.3 532.7,94.4 538.5,95.4 543.6,96.5 548.2,97.5 552.3,98.6 556.1,99.7 559.6,100.7 562.8,101.8 565.8,102.8 568.6,103.9 571.2,104.9 573.7,106.0 576.0,107.0 578.3,108.1 580.4,109.1 582.4,110.2 584.3,111.3 586.2,112.3 588.0,113.4 589.7,114.4 591.3,115.5 592.9,116.5 594.4,117.6 595.9,118.6 597.3,119.7 598.7,120.8 600.0,121.8 601.3,122.9 602.6,123.9 603.8,125.0 605.0,126.0 606.1,127.1 607.3,128.1 608.4,129.2 609.4,130.2 610.5,131.3 611.5,132.4 612.5,133.4 613.5,134.5 614.4,135.5 615.4,136.6 616.3,137.6 617.2,138.7 618.1,139.7 618.9,140.8 619.8,141.8 620.6,142.9 621.4,144.0 623.0,146.1 624.5,148.2 626.0,150.3 627.4,152.4 628.8,154.5 630.1,21.6 631.4,23.7 632.7,25.8 633.9,27.9 635.1,30.0 636.2,32.2 637.4,34.3 638.5,36.4 639.5,38.5 640.6,40.6 641.6,42.7 642.6,44.8 643.6,46.9 644.5,49.0 645.5,51.1 646.4,53.3 647.3,55.4 648.1,57.5 649.0,59.6 649.8,61.7 650.7,63.8 651.5,65.9 652.7,69.1 653.8,72.2 655.0,75.4 656.1,78.6 657.1,81.7 658.2,84.9 659.2,88.1 660.2,91.2 661.2,94.4 662.1,97.5 663.1,100.7 664.0,103.9 664.9,107.0 665.7,110.2 666.6,113.4 667.5,116.5 668.3,119.7 669.1,122.9 670.1,127.1 671.2,131.3 672.2,135.5 673.2,139.7 674.1,144.0 675.1,148.2 676.0,152.4 676.9,21.6 677.8,25.8 678.7,30.0 679.5,34.3 680.4,38.5 681.2,42.7 682.0,46.9 683.0,52.2 683.9,57.5 684.9,62.7 685.8,68.0 686.7,73.3 687.6,78.6 688.4,83.8 689.3,89.1 690.1,94.4 690.9,99.7 691.7,104.9 692.7,111.3 693.6,117.6 694.5,123.9 695.4,130.2 696.3,136.6 697.1,142.9 698.0,149.2 698.8,20.6 699.6,26.9 700.5,34.3 701.4,41.6 702.3,49.0 703.2,56.4 704.0,63.8 704.8,71.2 705.6,78.6 706.4,85.9 707.3,94.4 708.2,102.8 709.1,111.3 709.9,119.7 710.8,128.1 711.6,136.6 712.5,146.1 713.3,20.6 714.2,30.0 715.1,39.5 715.9,49.0 716.7,58.5 717.6,69.1 718.5,79.6 719.3,90.2 720.1,100.7 721.0,111.3 721.8,121.8 722.6,133.4 723.5,145.0 724.3,21.6 725.1,33.2 725.9,44.8 726.8,57.5 727.6,70.1 728.5,82.8 729.3,95.4 730.1,109.1 731.0,122.9 731.8,136.6 732.6,82.8 733.5,97.5 734.3,112.3 735.2,59.6 736.0,74.3 736.8,90.2 737.7,106.0 738.5,54.3 739.3,70.1 740.1,87.0 741.0,103.9 741.8,53.2 742.6,71.2 743.4,89.1 744.3,107.0 745.1,58.5 745.9,77.5 746.7,96.5 747.6,116.5 748.4,69.1 749.2,89.1 750.1,110.2 750.9,63.8 751.7,84.9 752.5,107.0 753.3,61.7 754.1,83.8 755.0,107.0 755.8,62.7 756.6,87.0 757.4,111.3 758.3,69.1 759.1,94.4 759.9,52.2 760.7,78.6 761.5,104.9 762.3,64.9 763.1,92.3 763.9,53.2 764.8,81.7 765.6,111.3 766.4,73.3 767.2,103.9 768.0,67.0 768.8,98.6 769.6,62.7 770.4,95.4 771.3,61.7 772.1,95.4 772.9,62.7 773.7,97.5 774.5,65.9" fill="none" stroke="#e74c3c" stroke-width="1.5" stroke-linejoin="round" clip-path="url(#pc462)"/>
  <line x1="55" y1="210" x2="55" y2="360" stroke="#d1d5db"/>
  <line x1="55" y1="285.0" x2="385" y2="285.0" stroke="#d1d5db"/>
  <text x="220" y="388" text-anchor="middle" font-size="9" fill="#6b7280">Hz</text>
  <text x="29" y="285" text-anchor="middle" font-size="9" fill="#6b7280" transform="rotate(-90 29 285)">Group delay</text>
  <line x1="85.1" y1="210" x2="85.1" y2="360" stroke="#e5e7eb" stroke-width="0.5"/>
  <line x1="102.7" y1="210" x2="102.7" y2="360" stroke="#e5e7eb" stroke-width="0.5"/>
  <line x1="115.2" y1="210" x2="115.2" y2="360" stroke="#e5e7eb" stroke-width="0.5"/>
  <line x1="124.9" y1="210" x2="124.9" y2="360" stroke="#e5e7eb" stroke-width="0.5"/>
  <line x1="132.8" y1="210" x2="132.8" y2="360" stroke="#e5e7eb" stroke-width="0.5"/>
  <line x1="139.5" y1="210" x2="139.5" y2="360" stroke="#e5e7eb" stroke-width="0.5"/>
  <line x1="145.3" y1="210" x2="145.3" y2="360" stroke="#e5e7eb" stroke-width="0.5"/>
  <line x1="150.4" y1="210" x2="150.4" y2="360" stroke="#e5e7eb" stroke-width="0.5"/>
  <line x1="185.1" y1="210" x2="185.1" y2="360" stroke="#e5e7eb" stroke-width="0.5"/>
  <line x1="202.7" y1="210" x2="202.7" y2="360" stroke="#e5e7eb" stroke-width="0.5"/>
  <line x1="215.2" y1="210" x2="215.2" y2="360" stroke="#e5e7eb" stroke-width="0.5"/>
  <line x1="224.8" y1="210" x2="224.8" y2="360" stroke="#e5e7eb" stroke-width="0.5"/>
  <line x1="232.8" y1="210" x2="232.8" y2="360" stroke="#e5e7eb" stroke-width="0.5"/>
  <line x1="239.5" y1="210" x2="239.5" y2="360" stroke="#e5e7eb" stroke-width="0.5"/>
  <line x1="245.2" y1="210" x2="245.2" y2="360" stroke="#e5e7eb" stroke-width="0.5"/>
  <line x1="250.4" y1="210" x2="250.4" y2="360" stroke="#e5e7eb" stroke-width="0.5"/>
  <line x1="285.0" y1="210" x2="285.0" y2="360" stroke="#e5e7eb" stroke-width="0.5"/>
  <line x1="302.6" y1="210" x2="302.6" y2="360" stroke="#e5e7eb" stroke-width="0.5"/>
  <line x1="315.1" y1="210" x2="315.1" y2="360" stroke="#e5e7eb" stroke-width="0.5"/>
  <line x1="324.8" y1="210" x2="324.8" y2="360" stroke="#e5e7eb" stroke-width="0.5"/>
  <line x1="332.7" y1="210" x2="332.7" y2="360" stroke="#e5e7eb" stroke-width="0.5"/>
  <line x1="339.4" y1="210" x2="339.4" y2="360" stroke="#e5e7eb" stroke-width="0.5"/>
  <line x1="345.2" y1="210" x2="345.2" y2="360" stroke="#e5e7eb" stroke-width="0.5"/>
  <line x1="350.3" y1="210" x2="350.3" y2="360" stroke="#e5e7eb" stroke-width="0.5"/>
  <line x1="385.0" y1="210" x2="385.0" y2="360" stroke="#e5e7eb" stroke-width="0.5"/>
  <line x1="155.0" y1="210" x2="155.0" y2="360" stroke="#e5e7eb" stroke-width="0.5"/>
  <text x="155.0" y="372" text-anchor="middle" font-size="8" fill="#6b7280">100</text>
  <line x1="254.9" y1="210" x2="254.9" y2="360" stroke="#e5e7eb" stroke-width="0.5"/>
  <text x="254.9" y="372" text-anchor="middle" font-size="8" fill="#6b7280">1k</text>
  <line x1="354.9" y1="210" x2="354.9" y2="360" stroke="#e5e7eb" stroke-width="0.5"/>
  <text x="354.9" y="372" text-anchor="middle" font-size="8" fill="#6b7280">10k</text>
  <line x1="55" y1="325.7" x2="385" y2="325.7" stroke="#e5e7eb" stroke-width="0.5"/>
  <text x="51" y="328.7" text-anchor="end" font-size="8" fill="#6b7280">-700</text>
  <text x="51" y="288.0" text-anchor="end" font-size="8" fill="#6b7280">0</text>
  <line x1="55" y1="244.3" x2="385" y2="244.3" stroke="#e5e7eb" stroke-width="0.5"/>
  <text x="51" y="247.3" text-anchor="end" font-size="8" fill="#6b7280">700</text>
  <defs><linearGradient id="g463" x1="0" y1="210" x2="0" y2="285.0" gradientUnits="userSpaceOnUse">
    <stop offset="0%" stop-color="#2ecc71" stop-opacity="0.15"/>
    <stop offset="100%" stop-color="#2ecc71" stop-opacity="0.02"/>
  </linearGradient></defs>
  <defs><linearGradient id="g464" x1="0" y1="360" x2="0" y2="285.0" gradientUnits="userSpaceOnUse">
    <stop offset="0%" stop-color="#2ecc71" stop-opacity="0.15"/>
    <stop offset="100%" stop-color="#2ecc71" stop-opacity="0.02"/>
  </linearGradient></defs>
  <defs><clipPath id="c465"><rect x="55" y="210" width="330" height="75.0"/></clipPath></defs>
  <defs><clipPath id="c466"><rect x="55" y="285.0" width="330" height="75.0"/></clipPath></defs>
  <path d="M58.2,283.1 58.2,283.1 88.3,283.1 105.9,283.1 118.4,283.1 128.1,283.1 136.0,283.1 142.7,283.1 148.5,283.1 153.6,283.1 158.2,283.1 162.3,283.1 166.1,283.1 169.6,283.1 172.8,283.1 175.8,283.1 178.6,283.1 181.2,283.1 183.7,283.1 186.0,283.1 188.3,283.1 190.4,283.1 192.4,283.1 194.3,283.1 196.2,283.1 198.0,283.1 199.7,283.1 201.3,283.1 202.9,283.1 204.4,283.1 205.9,283.1 207.3,283.1 208.7,283.1 210.0,283.1 211.3,283.1 212.6,283.1 213.8,283.1 215.0,283.1 216.1,283.1 217.3,283.1 218.4,283.1 219.4,283.1 220.5,283.1 221.5,283.1 222.5,283.1 223.5,283.1 224.4,283.1 225.4,283.1 226.3,283.1 227.2,283.1 228.1,283.1 228.9,283.1 229.8,283.1 230.6,283.1 231.4,283.1 233.0,283.1 234.5,283.1 236.0,283.1 237.4,283.1 238.8,283.1 240.1,283.1 241.4,283.1 242.7,283.1 243.9,283.1 245.1,283.1 246.2,283.1 247.4,283.1 248.5,283.1 249.5,283.1 250.6,283.1 251.6,283.1 252.6,283.1 253.6,283.1 254.5,283.1 255.5,283.1 256.4,283.1 257.3,283.1 258.1,283.1 259.0,283.1 259.8,283.1 260.7,283.1 261.5,283.1 262.7,283.1 263.8,283.1 265.0,283.1 266.1,283.1 267.1,283.1 268.2,283.1 269.2,283.1 270.2,283.1 271.2,283.1 272.1,283.1 273.1,283.1 274.0,283.1 274.9,283.1 275.7,283.1 276.6,283.1 277.5,283.1 278.3,283.1 279.1,283.1 280.1,283.1 281.2,283.1 282.2,283.1 283.2,283.1 284.1,283.1 285.1,283.1 286.0,283.1 286.9,283.1 287.8,283.1 288.7,283.1 289.5,283.1 290.4,283.1 291.2,283.1 292.0,283.1 293.0,283.1 293.9,283.1 294.9,283.1 295.8,283.1 296.7,283.1 297.6,283.1 298.4,283.1 299.3,283.1 300.1,283.1 300.9,283.1 301.7,283.1 302.7,283.1 303.6,283.1 304.5,283.1 305.4,283.1 306.3,283.1 307.1,283.1 308.0,283.1 308.8,283.1 309.6,283.1 310.5,283.1 311.4,283.1 312.3,283.1 313.2,283.1 314.0,283.1 314.8,283.1 315.6,283.1 316.4,283.1 317.3,283.1 318.2,283.1 319.1,283.1 319.9,283.1 320.8,283.1 321.6,283.1 322.5,283.1 323.3,283.1 324.2,283.1 325.1,283.1 325.9,283.1 326.7,283.1 327.6,283.1 328.5,283.1 329.3,283.1 330.1,283.1 331.0,283.1 331.8,283.1 332.6,283.1 333.5,283.1 334.3,283.1 335.1,283.1 335.9,283.1 336.8,283.1 337.6,283.1 338.5,283.1 339.3,283.1 340.1,283.1 341.0,283.1 341.8,283.1 342.6,283.1 343.5,283.1 344.3,283.1 345.2,283.1 346.0,283.1 346.8,283.1 347.7,283.1 348.5,342.7 349.3,283.1 350.1,283.1 351.0,283.1 351.8,283.1 352.6,283.1 353.4,283.1 354.3,283.1 355.1,283.1 355.9,283.1 356.7,283.1 357.6,283.1 358.4,283.1 359.2,283.1 360.1,283.1 360.9,283.1 361.7,283.1 362.5,283.1 363.3,283.1 364.1,283.1 365.0,283.1 365.8,283.1 366.6,283.1 367.4,283.1 368.3,283.1 369.1,283.1 369.9,342.7 370.7,283.1 371.5,283.1 372.3,283.1 373.1,283.1 373.9,283.1 374.8,283.1 375.6,283.1 376.4,283.1 377.2,283.1 378.0,283.1 378.8,283.1 379.6,283.1 380.4,283.1 381.3,283.1 382.1,283.1 382.9,283.1 383.7,283.1 384.5,283.1 L384.5,285.0 L58.2,285.0 Z" fill="url(#g463)" clip-path="url(#c465)"/>
  <path d="M58.2,283.1 58.2,283.1 88.3,283.1 105.9,283.1 118.4,283.1 128.1,283.1 136.0,283.1 142.7,283.1 148.5,283.1 153.6,283.1 158.2,283.1 162.3,283.1 166.1,283.1 169.6,283.1 172.8,283.1 175.8,283.1 178.6,283.1 181.2,283.1 183.7,283.1 186.0,283.1 188.3,283.1 190.4,283.1 192.4,283.1 194.3,283.1 196.2,283.1 198.0,283.1 199.7,283.1 201.3,283.1 202.9,283.1 204.4,283.1 205.9,283.1 207.3,283.1 208.7,283.1 210.0,283.1 211.3,283.1 212.6,283.1 213.8,283.1 215.0,283.1 216.1,283.1 217.3,283.1 218.4,283.1 219.4,283.1 220.5,283.1 221.5,283.1 222.5,283.1 223.5,283.1 224.4,283.1 225.4,283.1 226.3,283.1 227.2,283.1 228.1,283.1 228.9,283.1 229.8,283.1 230.6,283.1 231.4,283.1 233.0,283.1 234.5,283.1 236.0,283.1 237.4,283.1 238.8,283.1 240.1,283.1 241.4,283.1 242.7,283.1 243.9,283.1 245.1,283.1 246.2,283.1 247.4,283.1 248.5,283.1 249.5,283.1 250.6,283.1 251.6,283.1 252.6,283.1 253.6,283.1 254.5,283.1 255.5,283.1 256.4,283.1 257.3,283.1 258.1,283.1 259.0,283.1 259.8,283.1 260.7,283.1 261.5,283.1 262.7,283.1 263.8,283.1 265.0,283.1 266.1,283.1 267.1,283.1 268.2,283.1 269.2,283.1 270.2,283.1 271.2,283.1 272.1,283.1 273.1,283.1 274.0,283.1 274.9,283.1 275.7,283.1 276.6,283.1 277.5,283.1 278.3,283.1 279.1,283.1 280.1,283.1 281.2,283.1 282.2,283.1 283.2,283.1 284.1,283.1 285.1,283.1 286.0,283.1 286.9,283.1 287.8,283.1 288.7,283.1 289.5,283.1 290.4,283.1 291.2,283.1 292.0,283.1 293.0,283.1 293.9,283.1 294.9,283.1 295.8,283.1 296.7,283.1 297.6,283.1 298.4,283.1 299.3,283.1 300.1,283.1 300.9,283.1 301.7,283.1 302.7,283.1 303.6,283.1 304.5,283.1 305.4,283.1 306.3,283.1 307.1,283.1 308.0,283.1 308.8,283.1 309.6,283.1 310.5,283.1 311.4,283.1 312.3,283.1 313.2,283.1 314.0,283.1 314.8,283.1 315.6,283.1 316.4,283.1 317.3,283.1 318.2,283.1 319.1,283.1 319.9,283.1 320.8,283.1 321.6,283.1 322.5,283.1 323.3,283.1 324.2,283.1 325.1,283.1 325.9,283.1 326.7,283.1 327.6,283.1 328.5,283.1 329.3,283.1 330.1,283.1 331.0,283.1 331.8,283.1 332.6,283.1 333.5,283.1 334.3,283.1 335.1,283.1 335.9,283.1 336.8,283.1 337.6,283.1 338.5,283.1 339.3,283.1 340.1,283.1 341.0,283.1 341.8,283.1 342.6,283.1 343.5,283.1 344.3,283.1 345.2,283.1 346.0,283.1 346.8,283.1 347.7,283.1 348.5,342.7 349.3,283.1 350.1,283.1 351.0,283.1 351.8,283.1 352.6,283.1 353.4,283.1 354.3,283.1 355.1,283.1 355.9,283.1 356.7,283.1 357.6,283.1 358.4,283.1 359.2,283.1 360.1,283.1 360.9,283.1 361.7,283.1 362.5,283.1 363.3,283.1 364.1,283.1 365.0,283.1 365.8,283.1 366.6,283.1 367.4,283.1 368.3,283.1 369.1,283.1 369.9,342.7 370.7,283.1 371.5,283.1 372.3,283.1 373.1,283.1 373.9,283.1 374.8,283.1 375.6,283.1 376.4,283.1 377.2,283.1 378.0,283.1 378.8,283.1 379.6,283.1 380.4,283.1 381.3,283.1 382.1,283.1 382.9,283.1 383.7,283.1 384.5,283.1 L384.5,285.0 L58.2,285.0 Z" fill="url(#g464)" clip-path="url(#c466)"/>
  <defs><clipPath id="pc467"><rect x="55" y="210" width="330" height="150"/></clipPath></defs>
  <polyline points="58.2,283.1 88.3,283.1 105.9,283.1 118.4,283.1 128.1,283.1 136.0,283.1 142.7,283.1 148.5,283.1 153.6,283.1 158.2,283.1 162.3,283.1 166.1,283.1 169.6,283.1 172.8,283.1 175.8,283.1 178.6,283.1 181.2,283.1 183.7,283.1 186.0,283.1 188.3,283.1 190.4,283.1 192.4,283.1 194.3,283.1 196.2,283.1 198.0,283.1 199.7,283.1 201.3,283.1 202.9,283.1 204.4,283.1 205.9,283.1 207.3,283.1 208.7,283.1 210.0,283.1 211.3,283.1 212.6,283.1 213.8,283.1 215.0,283.1 216.1,283.1 217.3,283.1 218.4,283.1 219.4,283.1 220.5,283.1 221.5,283.1 222.5,283.1 223.5,283.1 224.4,283.1 225.4,283.1 226.3,283.1 227.2,283.1 228.1,283.1 228.9,283.1 229.8,283.1 230.6,283.1 231.4,283.1 233.0,283.1 234.5,283.1 236.0,283.1 237.4,283.1 238.8,283.1 240.1,283.1 241.4,283.1 242.7,283.1 243.9,283.1 245.1,283.1 246.2,283.1 247.4,283.1 248.5,283.1 249.5,283.1 250.6,283.1 251.6,283.1 252.6,283.1 253.6,283.1 254.5,283.1 255.5,283.1 256.4,283.1 257.3,283.1 258.1,283.1 259.0,283.1 259.8,283.1 260.7,283.1 261.5,283.1 262.7,283.1 263.8,283.1 265.0,283.1 266.1,283.1 267.1,283.1 268.2,283.1 269.2,283.1 270.2,283.1 271.2,283.1 272.1,283.1 273.1,283.1 274.0,283.1 274.9,283.1 275.7,283.1 276.6,283.1 277.5,283.1 278.3,283.1 279.1,283.1 280.1,283.1 281.2,283.1 282.2,283.1 283.2,283.1 284.1,283.1 285.1,283.1 286.0,283.1 286.9,283.1 287.8,283.1 288.7,283.1 289.5,283.1 290.4,283.1 291.2,283.1 292.0,283.1 293.0,283.1 293.9,283.1 294.9,283.1 295.8,283.1 296.7,283.1 297.6,283.1 298.4,283.1 299.3,283.1 300.1,283.1 300.9,283.1 301.7,283.1 302.7,283.1 303.6,283.1 304.5,283.1 305.4,283.1 306.3,283.1 307.1,283.1 308.0,283.1 308.8,283.1 309.6,283.1 310.5,283.1 311.4,283.1 312.3,283.1 313.2,283.1 314.0,283.1 314.8,283.1 315.6,283.1 316.4,283.1 317.3,283.1 318.2,283.1 319.1,283.1 319.9,283.1 320.8,283.1 321.6,283.1 322.5,283.1 323.3,283.1 324.2,283.1 325.1,283.1 325.9,283.1 326.7,283.1 327.6,283.1 328.5,283.1 329.3,283.1 330.1,283.1 331.0,283.1 331.8,283.1 332.6,283.1 333.5,283.1 334.3,283.1 335.1,283.1 335.9,283.1 336.8,283.1 337.6,283.1 338.5,283.1 339.3,283.1 340.1,283.1 341.0,283.1 341.8,283.1 342.6,283.1 343.5,283.1 344.3,283.1 345.2,283.1 346.0,283.1 346.8,283.1 347.7,283.1 348.5,342.7 349.3,283.1 350.1,283.1 351.0,283.1 351.8,283.1 352.6,283.1 353.4,283.1 354.3,283.1 355.1,283.1 355.9,283.1 356.7,283.1 357.6,283.1 358.4,283.1 359.2,283.1 360.1,283.1 360.9,283.1 361.7,283.1 362.5,283.1 363.3,283.1 364.1,283.1 365.0,283.1 365.8,283.1 366.6,283.1 367.4,283.1 368.3,283.1 369.1,283.1 369.9,342.7 370.7,283.1 371.5,283.1 372.3,283.1 373.1,283.1 373.9,283.1 374.8,283.1 375.6,283.1 376.4,283.1 377.2,283.1 378.0,283.1 378.8,283.1 379.6,283.1 380.4,283.1 381.3,283.1 382.1,283.1 382.9,283.1 383.7,283.1 384.5,283.1" fill="none" stroke="#2ecc71" stroke-width="1.5" stroke-linejoin="round" clip-path="url(#pc467)"/>
  <line x1="445" y1="210" x2="445" y2="360" stroke="#d1d5db"/>
  <line x1="445" y1="285.0" x2="775" y2="285.0" stroke="#d1d5db"/>
  <text x="610" y="388" text-anchor="middle" font-size="9" fill="#6b7280">Samples</text>
  <text x="419" y="285" text-anchor="middle" font-size="9" fill="#6b7280" transform="rotate(-90 419 285)">Impulse response</text>
  <line x1="445.0" y1="210" x2="445.0" y2="360" stroke="#e5e7eb" stroke-width="0.5"/>
  <text x="445.0" y="372" text-anchor="middle" font-size="8" fill="#6b7280">0</text>
  <line x1="597.3" y1="210" x2="597.3" y2="360" stroke="#e5e7eb" stroke-width="0.5"/>
  <text x="597.3" y="372" text-anchor="middle" font-size="8" fill="#6b7280">30</text>
  <line x1="749.6" y1="210" x2="749.6" y2="360" stroke="#e5e7eb" stroke-width="0.5"/>
  <text x="749.6" y="372" text-anchor="middle" font-size="8" fill="#6b7280">60</text>
  <line x1="445" y1="342.3" x2="775" y2="342.3" stroke="#e5e7eb" stroke-width="0.5"/>
  <text x="441" y="345.3" text-anchor="end" font-size="8" fill="#6b7280">-0.4</text>
  <text x="441" y="288.0" text-anchor="end" font-size="8" fill="#6b7280">0</text>
  <line x1="445" y1="227.7" x2="775" y2="227.7" stroke="#e5e7eb" stroke-width="0.5"/>
  <text x="441" y="230.7" text-anchor="end" font-size="8" fill="#6b7280">0.4</text>
  <defs><linearGradient id="g468" x1="0" y1="210" x2="0" y2="285.0" gradientUnits="userSpaceOnUse">
    <stop offset="0%" stop-color="#f39c12" stop-opacity="0.15"/>
    <stop offset="100%" stop-color="#f39c12" stop-opacity="0.02"/>
  </linearGradient></defs>
  <defs><linearGradient id="g469" x1="0" y1="360" x2="0" y2="285.0" gradientUnits="userSpaceOnUse">
    <stop offset="0%" stop-color="#f39c12" stop-opacity="0.15"/>
    <stop offset="100%" stop-color="#f39c12" stop-opacity="0.02"/>
  </linearGradient></defs>
  <defs><clipPath id="c470"><rect x="445" y="210" width="330" height="75.0"/></clipPath></defs>
  <defs><clipPath id="c471"><rect x="445" y="285.0" width="330" height="75.0"/></clipPath></defs>
  <path d="M445.0,285.0 445.0,285.0 450.1,285.0 455.2,285.0 460.2,285.0 465.3,285.0 470.4,285.0 475.5,285.1 480.5,285.1 485.6,285.0 490.7,284.8 495.8,284.7 500.8,284.8 505.9,285.0 511.0,285.2 516.1,285.1 521.2,285.0 526.2,285.0 531.3,285.4 536.4,286.0 541.5,286.1 546.5,285.0 551.6,282.7 556.7,280.7 561.8,281.0 566.8,285.0 571.9,291.7 577.0,297.2 582.1,296.2 587.2,285.0 592.2,263.9 597.3,238.6 602.4,218.0 607.5,210.0 612.5,218.0 617.6,238.6 622.7,263.9 627.8,285.0 632.8,296.2 637.9,297.2 643.0,291.7 648.1,285.0 653.2,281.0 658.2,280.7 663.3,282.7 668.4,285.0 673.5,286.1 678.5,286.0 683.6,285.4 688.7,285.0 693.8,285.0 698.8,285.1 703.9,285.2 709.0,285.0 714.1,284.8 719.2,284.7 724.2,284.8 729.3,285.0 734.4,285.1 739.5,285.1 744.5,285.0 749.6,285.0 754.7,285.0 759.8,285.0 764.8,285.0 769.9,285.0 L769.9,285.0 L445.0,285.0 Z" fill="url(#g468)" clip-path="url(#c470)"/>
  <path d="M445.0,285.0 445.0,285.0 450.1,285.0 455.2,285.0 460.2,285.0 465.3,285.0 470.4,285.0 475.5,285.1 480.5,285.1 485.6,285.0 490.7,284.8 495.8,284.7 500.8,284.8 505.9,285.0 511.0,285.2 516.1,285.1 521.2,285.0 526.2,285.0 531.3,285.4 536.4,286.0 541.5,286.1 546.5,285.0 551.6,282.7 556.7,280.7 561.8,281.0 566.8,285.0 571.9,291.7 577.0,297.2 582.1,296.2 587.2,285.0 592.2,263.9 597.3,238.6 602.4,218.0 607.5,210.0 612.5,218.0 617.6,238.6 622.7,263.9 627.8,285.0 632.8,296.2 637.9,297.2 643.0,291.7 648.1,285.0 653.2,281.0 658.2,280.7 663.3,282.7 668.4,285.0 673.5,286.1 678.5,286.0 683.6,285.4 688.7,285.0 693.8,285.0 698.8,285.1 703.9,285.2 709.0,285.0 714.1,284.8 719.2,284.7 724.2,284.8 729.3,285.0 734.4,285.1 739.5,285.1 744.5,285.0 749.6,285.0 754.7,285.0 759.8,285.0 764.8,285.0 769.9,285.0 L769.9,285.0 L445.0,285.0 Z" fill="url(#g469)" clip-path="url(#c471)"/>
  <defs><clipPath id="pc472"><rect x="445" y="210" width="330" height="150"/></clipPath></defs>
  <polyline points="445.0,285.0 450.1,285.0 455.2,285.0 460.2,285.0 465.3,285.0 470.4,285.0 475.5,285.1 480.5,285.1 485.6,285.0 490.7,284.8 495.8,284.7 500.8,284.8 505.9,285.0 511.0,285.2 516.1,285.1 521.2,285.0 526.2,285.0 531.3,285.4 536.4,286.0 541.5,286.1 546.5,285.0 551.6,282.7 556.7,280.7 561.8,281.0 566.8,285.0 571.9,291.7 577.0,297.2 582.1,296.2 587.2,285.0 592.2,263.9 597.3,238.6 602.4,218.0 607.5,210.0 612.5,218.0 617.6,238.6 622.7,263.9 627.8,285.0 632.8,296.2 637.9,297.2 643.0,291.7 648.1,285.0 653.2,281.0 658.2,280.7 663.3,282.7 668.4,285.0 673.5,286.1 678.5,286.0 683.6,285.4 688.7,285.0 693.8,285.0 698.8,285.1 703.9,285.2 709.0,285.0 714.1,284.8 719.2,284.7 724.2,284.8 729.3,285.0 734.4,285.1 739.5,285.1 744.5,285.0 749.6,285.0 754.7,285.0 759.8,285.0 764.8,285.0 769.9,285.0" fill="none" stroke="#f39c12" stroke-width="1.3" stroke-linejoin="round" clip-path="url(#pc472)"/>
</svg>
