<svg xmlns="http://www.w3.org/2000/svg" viewBox="0 0 800 240" style="font-family:system-ui,-apple-system,sans-serif">
  <line x1="55" y1="12" x2="55" y2="192" stroke="#d1d5db"/>
  <line x1="55" y1="192" x2="755" y2="192" stroke="#d1d5db"/>
  <text x="405" y="222" text-anchor="middle" font-size="10" fill="#6b7280">Frequency (Hz)</text>
  <text x="17" y="102" text-anchor="middle" font-size="10" fill="#6b7280" transform="rotate(-90 17 102)">Magnitude (dB)</text>
  <line x1="99.4" y1="12" x2="99.4" y2="192" stroke="#e5e7eb" stroke-width="0.5"/>
  <text x="99.4" y="205" text-anchor="middle" font-size="9" fill="#6b7280">31</text>
  <line x1="169.7" y1="12" x2="169.7" y2="192" stroke="#e5e7eb" stroke-width="0.5"/>
  <text x="169.7" y="205" text-anchor="middle" font-size="9" fill="#6b7280">62</text>
  <line x1="240.7" y1="12" x2="240.7" y2="192" stroke="#e5e7eb" stroke-width="0.5"/>
  <text x="240.7" y="205" text-anchor="middle" font-size="9" fill="#6b7280">125</text>
  <line x1="310.9" y1="12" x2="310.9" y2="192" stroke="#e5e7eb" stroke-width="0.5"/>
  <text x="310.9" y="205" text-anchor="middle" font-size="9" fill="#6b7280">250</text>
  <line x1="381.2" y1="12" x2="381.2" y2="192" stroke="#e5e7eb" stroke-width="0.5"/>
  <text x="381.2" y="205" text-anchor="middle" font-size="9" fill="#6b7280">500</text>
  <line x1="451.4" y1="12" x2="451.4" y2="192" stroke="#e5e7eb" stroke-width="0.5"/>
  <text x="451.4" y="205" text-anchor="middle" font-size="9" fill="#6b7280">1k</text>
  <line x1="521.7" y1="12" x2="521.7" y2="192" stroke="#e5e7eb" stroke-width="0.5"/>
  <text x="521.7" y="205" text-anchor="middle" font-size="9" fill="#6b7280">2k</text>
  <line x1="591.9" y1="12" x2="591.9" y2="192" stroke="#e5e7eb" stroke-width="0.5"/>
  <text x="591.9" y="205" text-anchor="middle" font-size="9" fill="#6b7280">4k</text>
  <line x1="662.1" y1="12" x2="662.1" y2="192" stroke="#e5e7eb" stroke-width="0.5"/>
  <text x="662.1" y="205" text-anchor="middle" font-size="9" fill="#6b7280">8k</text>
  <line x1="732.4" y1="12" x2="732.4" y2="192" stroke="#e5e7eb" stroke-width="0.5"/>
  <text x="732.4" y="205" text-anchor="middle" font-size="9" fill="#6b7280">16k</text>
  <line x1="55" y1="22.6" x2="755" y2="22.6" stroke="#e5e7eb" stroke-width="0.5"/>
  <text x="51" y="25.6" text-anchor="end" font-size="9" fill="#6b7280">0</text>
  <line x1="55" y1="64.9" x2="755" y2="64.9" stroke="#e5e7eb" stroke-width="0.5"/>
  <text x="51" y="67.9" text-anchor="end" font-size="9" fill="#6b7280">-20</text>
  <line x1="55" y1="107.3" x2="755" y2="107.3" stroke="#e5e7eb" stroke-width="0.5"/>
  <text x="51" y="110.3" text-anchor="end" font-size="9" fill="#6b7280">-40</text>
  <line x1="55" y1="149.6" x2="755" y2="149.6" stroke="#e5e7eb" stroke-width="0.5"/>
  <text x="51" y="152.6" text-anchor="end" font-size="9" fill="#6b7280">-60</text>
  <line x1="55" y1="192.0" x2="755" y2="192.0" stroke="#e5e7eb" stroke-width="0.5"/>
  <text x="51" y="195.0" text-anchor="end" font-size="9" fill="#6b7280">-80</text>
  <polyline points="132.7,18.5 203.0,18.6 244.1,18.7 273.2,18.9 295.8,19.1 314.3,19.3 329.9,19.6 343.4,19.9 355.4,20.2 366.1,20.5 375.7,20.9 384.5,21.2 392.6,21.6 400.2,21.9 407.1,22.2 413.7,22.5 419.8,22.8 425.6,23.1 431.1,23.2 436.3,23.4 441.2,23.5 446.0,23.6 450.5,23.6 454.8,23.6 458.9,23.5 462.9,23.5 466.7,23.4 470.4,23.2 474.0,23.1 477.4,22.9 480.7,22.8 483.9,22.6 487.0,22.5 490.1,22.4 493.0,22.3 495.9,22.2 498.6,22.1 501.3,22.0 504.0,22.0 506.5,22.0 509.0,22.0 511.5,22.1 513.9,22.1 516.2,22.2 518.5,22.3 520.7,22.4 522.9,22.4 525.0,22.5 527.1,22.6 529.2,22.7 531.2,22.8 533.1,22.9 535.1,22.9 537.0,23.0 538.8,23.0 540.6,23.0 542.4,23.0 544.2,23.0 545.9,22.9 547.6,22.9 549.3,22.8 551.0,22.8 552.6,22.7 554.2,22.6 555.7,22.6 557.3,22.5 558.8,22.4 560.3,22.4 561.8,22.3 563.2,22.3 564.7,22.3 566.1,22.3 567.5,22.3 568.9,22.3 570.2,22.3 571.6,22.3 572.9,22.4 574.2,22.4 575.5,22.5 576.8,22.5 578.0,22.6 579.3,22.7 580.5,22.7 581.7,22.8 582.9,22.8 584.1,22.8 585.3,22.8 586.4,22.9 587.6,22.9 588.7,22.8 589.8,22.8 590.9,22.8 592.0,22.8 593.1,22.7 594.2,22.7 595.3,22.6 596.3,22.6 597.3,22.5 598.4,22.5 599.4,22.5 600.4,22.4 601.4,22.4 602.4,22.4 603.4,22.4 604.3,22.4 605.3,22.4 606.2,22.4 607.2,22.4 608.1,22.4 609.1,22.5 610.0,22.5 610.9,22.5 611.8,22.6 612.7,22.6 613.6,22.7 614.4,22.7 615.3,22.7 616.2,22.7 617.0,22.8 617.9,22.8 618.7,22.8 619.5,22.8 620.4,22.8 621.2,22.7 622.0,22.7 622.8,22.7 623.6,22.7 624.4,22.6 625.2,22.6 626.0,22.6 626.8,22.5 627.5,22.5 628.3,22.5 629.0,22.5 629.8,22.4 630.6,22.4 631.3,22.4 632.0,22.4 632.8,22.4 633.5,22.5 634.2,22.5 634.9,22.5 635.6,22.5 636.3,22.5 637.0,22.6 637.7,22.6 638.4,22.6 639.1,22.6 639.8,22.6 640.5,22.7 641.2,22.7 641.8,22.7 642.5,22.8 643.1,22.8 643.8,22.8 644.5,22.9 645.1,23.0 645.7,23.0 646.4,23.1 647.0,23.3 647.7,23.4 648.3,23.6 648.9,23.8 649.5,24.1 650.1,24.4 650.8,24.8 651.4,25.2 652.0,25.6 652.6,26.1 653.2,26.7 653.8,27.3 654.3,28.0 654.9,28.8 655.5,29.6 656.1,30.6 656.7,31.6 657.3,32.7 657.8,33.8 658.4,35.1 659.0,36.5 659.5,37.9 660.1,39.5 660.6,41.2 661.2,43.0 661.7,44.9 662.3,46.9 662.8,49.0 663.4,51.3 663.9,53.6 664.4,56.2 665.0,58.8 665.5,61.6 666.0,64.6 666.5,67.7 667.1,71.0 667.6,74.4 668.1,78.0 668.6,81.7 669.1,85.6 669.6,89.7 670.1,93.9 670.6,98.4 671.1,103.0 671.6,107.8 672.1,113.0 672.6,118.6 673.1,125.0 673.6,132.8 674.1,143.9 674.6,167.7 675.1,162.1 675.5,144.7 676.0,136.5 676.5,131.3 677.0,127.6 677.4,124.9 677.9,122.9 678.4,121.5 678.8,120.7 679.3,120.5 679.8,120.8 680.2,121.6 680.7,123.2 681.1,125.6 681.6,129.2 682.0,134.4 682.5,143.0 682.9,161.5 683.4,165.7 683.8,144.0 684.2,134.7 684.7,128.9 685.1,125.0 685.5,122.3 686.0,120.6 686.4,119.6 686.8,119.3 687.3,119.7 687.7,120.7 688.1,122.6 688.5,125.5 688.9,129.7 689.4,136.3 689.8,147.7 690.2,189.8 690.6,151.7 691.0,138.1 691.4,130.8 691.8,126.2 692.2,123.0 692.6,120.9 693.1,119.6 693.5,119.1 693.9,119.2 694.3,120.1 694.6,121.7 695.0,124.2 695.4,127.9 695.8,133.5 696.2,142.7 696.6,163.6 697.0,161.0 697.4,141.9 697.8,133.2 698.1,127.8 698.5,124.2 698.9,121.8 699.3,120.3 699.7,119.5 700.0,119.5 700.4,120.1 700.8,121.5 701.2,123.7 701.5,127.0 701.9,132.0 702.3,139.7 702.6,154.6 703.0,177.8 703.4,146.5 703.7,136.0 704.1,129.8 704.5,125.7 704.8,123.0 705.2,121.3 705.5,120.3 705.9,120.0 706.2,120.5 706.6,121.6 706.9,123.6 707.3,126.5 707.6,130.9 708.0,137.5 708.3,149.1 708.7,192.0 709.0,152.8 709.4,139.4 709.7,132.2 710.0,127.6 710.4,124.6 710.7,122.5 711.1,121.3 711.4,120.9 711.7,121.1 712.1,122.0 712.4,123.7 712.7,126.3 713.1,130.2 713.4,136.0 713.7,145.4 714.0,168.1 714.4,161.3 714.7,143.4 715.0,135.0 715.3,129.8 715.7,126.3 716.0,123.9 716.3,122.5 716.6,121.8 716.9,121.8 717.3,122.5 717.6,124.0 717.9,126.3 718.2,129.7 718.5,134.8 718.8,142.8 719.1,158.5 719.5,176.2 719.8,148.3 720.1,138.1 720.4,132.1 720.7,128.2 721.0,125.5 721.3,123.9 721.6,123.0 721.9,122.8 722.2,123.3 722.5,124.5 722.8,126.5 723.1,129.6 723.4,134.0 723.7,140.9 724.0,153.2 724.3,192.0 724.6,154.2 724.9,141.6 725.2,134.7 725.5,130.2 725.8,127.3 726.1,125.3 726.3,124.2 726.6,123.8 726.9,124.1 727.2,125.1 727.5,126.9 727.8,129.6 728.1,133.6 728.3,139.6 728.6,149.6 728.9,175.7 729.2,161.8 729.5,145.5 729.8,137.5 730.0,132.5 730.3,129.1 730.6,126.9 730.9,125.6 731.1,125.0 731.4,125.1 731.7,125.9 732.0,127.4 732.2,129.9 732.5,133.5 732.8,138.9 733.1,147.5 733.3,165.8 733.6,171.7 733.9,149.6 734.1,140.3 734.4,134.7 734.7,131.0 734.9,128.5 735.2,127.0 735.5,126.2 735.7,126.1 736.0,126.8 736.3,128.1 736.5,130.4 736.8,133.7 737.0,138.6 737.3,146.2 737.6,160.8 737.8,187.3 738.1,153.9 738.3,143.2 738.6,136.9 738.9,132.9 739.1,130.2 739.4,128.4 739.6,127.5 739.9,127.3 740.1,127.8 740.4,129.0 740.6,131.0 740.9,134.1 741.1,138.6 741.4,145.6 741.6,158.0 741.9,192.0 742.1,158.2 742.4,145.9 742.6,139.1 742.9,134.7 743.1,131.8 743.4,129.9 743.6,128.8 743.8,128.5 744.1,128.8 744.3,129.9 744.6,131.8 744.8,134.7 745.1,139.0 745.3,145.5 745.5,156.7 745.8,192.0 746.0,162.2 746.3,148.3 746.5,141.0 746.7,136.4 747.0,133.3 747.2,131.3 747.4,130.1 747.7,129.7 747.9,130.0 748.1,131.0 748.4,132.8 748.6,135.6 748.8,139.7 749.1,145.9 749.3,156.5 749.5,187.1 749.8,165.2 750.0,150.3 750.2,142.6 750.4,137.8 750.7,134.6 750.9,132.5 751.1,131.3 751.4,130.8 751.6,131.1 751.8,132.0 752.0,133.8 752.3,136.6 752.5,140.7 752.7,146.9 752.9,157.4 753.2,187.6 753.4,166.3 753.6,151.3 753.8,143.6 754.0,138.8 754.3,135.6 754.5,133.5 754.7,132.2 754.9,131.8" fill="none" stroke="#4a90d9" stroke-width="1.8" stroke-linejoin="round"/>
  <text x="55" y="240" font-size="12" font-weight="600" fill="#6b7280">remez equiripple, 63 taps</text>
  <rect x="529" y="19" width="202" height="102" fill="white" fill-opacity="0.85" rx="3"/>
  <text x="532" y="30" font-size="8" fill="#6b7280">Coefficients</text>
  <polyline points="530.0,69.4 533.2,69.3 536.3,69.4 539.5,69.6 542.7,69.7 545.9,69.5 549.0,69.2 552.2,69.0 555.4,69.4 558.6,70.0 561.7,70.1 564.9,69.4 568.1,68.5 571.3,68.5 574.4,69.7 577.6,71.0 580.8,70.7 584.0,68.8 587.1,67.1 590.3,67.8 593.5,70.9 596.7,73.1 599.8,71.4 603.0,66.6 606.2,63.7 609.4,67.3 612.5,75.5 615.7,79.8 618.9,71.7 622.1,51.4 625.2,29.5 628.4,20.0 631.6,29.5 634.8,51.4 637.9,71.7 641.1,79.8 644.3,75.5 647.5,67.3 650.6,63.7 653.8,66.6 657.0,71.4 660.2,73.1 663.3,70.9 666.5,67.8 669.7,67.1 672.9,68.8 676.0,70.7 679.2,71.0 682.4,69.7 685.6,68.5 688.7,68.5 691.9,69.4 695.1,70.1 698.3,70.0 701.4,69.4 704.6,69.0 707.8,69.2 711.0,69.5 714.1,69.7 717.3,69.6 720.5,69.4 723.7,69.3 726.8,69.4" fill="none" stroke="#4a90d9" stroke-width="1.3" stroke-linejoin="round"/>
</svg>
