<svg xmlns="http://www.w3.org/2000/svg" viewBox="0 0 800 240" style="font-family:system-ui,-apple-system,sans-serif">
  <line x1="55" y1="12" x2="55" y2="192" stroke="#d1d5db"/>
  <line x1="55" y1="192" x2="755" y2="192" stroke="#d1d5db"/>
  <text x="405" y="222" text-anchor="middle" font-size="10" fill="#6b7280">Frequency (Hz)</text>
  <text x="17" y="102" text-anchor="middle" font-size="10" fill="#6b7280" transform="rotate(-90 17 102)">Magnitude (dB)</text>
  <line x1="99.4" y1="12" x2="99.4" y2="192" stroke="#e5e7eb" stroke-width="0.5"/>
  <text x="99.4" y="205" text-anchor="middle" font-size="9" fill="#6b7280">31</text>
  <line x1="169.7" y1="12" x2="169.7" y2="192" stroke="#e5e7eb" stroke-width="0.5"/>
  <text x="169.7" y="205" text-anchor="middle" font-size="9" fill="#6b7280">62</text>
  <line x1="240.7" y1="12" x2="240.7" y2="192" stroke="#e5e7eb" stroke-width="0.5"/>
  <text x="240.7" y="205" text-anchor="middle" font-size="9" fill="#6b7280">125</text>
  <line x1="310.9" y1="12" x2="310.9" y2="192" stroke="#e5e7eb" stroke-width="0.5"/>
  <text x="310.9" y="205" text-anchor="middle" font-size="9" fill="#6b7280">250</text>
  <line x1="381.2" y1="12" x2="381.2" y2="192" stroke="#e5e7eb" stroke-width="0.5"/>
  <text x="381.2" y="205" text-anchor="middle" font-size="9" fill="#6b7280">500</text>
  <line x1="451.4" y1="12" x2="451.4" y2="192" stroke="#e5e7eb" stroke-width="0.5"/>
  <text x="451.4" y="205" text-anchor="middle" font-size="9" fill="#6b7280">1k</text>
  <line x1="521.7" y1="12" x2="521.7" y2="192" stroke="#e5e7eb" stroke-width="0.5"/>
  <text x="521.7" y="205" text-anchor="middle" font-size="9" fill="#6b7280">2k</text>
  <line x1="591.9" y1="12" x2="591.9" y2="192" stroke="#e5e7eb" stroke-width="0.5"/>
  <text x="591.9" y="205" text-anchor="middle" font-size="9" fill="#6b7280">4k</text>
  <line x1="662.1" y1="12" x2="662.1" y2="192" stroke="#e5e7eb" stroke-width="0.5"/>
  <text x="662.1" y="205" text-anchor="middle" font-size="9" fill="#6b7280">8k</text>
  <line x1="732.4" y1="12" x2="732.4" y2="192" stroke="#e5e7eb" stroke-width="0.5"/>
  <text x="732.4" y="205" text-anchor="middle" font-size="9" fill="#6b7280">16k</text>
  <line x1="55" y1="22.6" x2="755" y2="22.6" stroke="#e5e7eb" stroke-width="0.5"/>
  <text x="51" y="25.6" text-anchor="end" font-size="9" fill="#6b7280">0</text>
  <line x1="55" y1="64.9" x2="755" y2="64.9" stroke="#e5e7eb" stroke-width="0.5"/>
  <text x="51" y="67.9" text-anchor="end" font-size="9" fill="#6b7280">-20</text>
  <line x1="55" y1="107.3" x2="755" y2="107.3" stroke="#e5e7eb" stroke-width="0.5"/>
  <text x="51" y="110.3" text-anchor="end" font-size="9" fill="#6b7280">-40</text>
  <line x1="55" y1="149.6" x2="755" y2="149.6" stroke="#e5e7eb" stroke-width="0.5"/>
  <text x="51" y="152.6" text-anchor="end" font-size="9" fill="#6b7280">-60</text>
  <line x1="55" y1="192.0" x2="755" y2="192.0" stroke="#e5e7eb" stroke-width="0.5"/>
  <text x="51" y="195.0" text-anchor="end" font-size="9" fill="#6b7280">-80</text>
  <polyline points="132.7,22.6 203.0,22.6 244.1,22.6 273.2,22.6 295.8,22.6 314.3,22.6 329.9,22.6 343.4,22.6 355.4,22.6 366.1,22.6 375.7,22.6 384.5,22.6 392.6,22.6 400.2,22.6 407.1,22.6 413.7,22.6 419.8,22.6 425.6,22.6 431.1,22.6 436.3,22.6 441.2,22.6 446.0,22.6 450.5,22.6 454.8,22.6 458.9,22.6 462.9,22.6 466.7,22.6 470.4,22.6 474.0,22.6 477.4,22.6 480.7,22.7 483.9,22.7 487.0,22.7 490.1,22.7 493.0,22.7 495.9,22.7 498.6,22.7 501.3,22.7 504.0,22.8 506.5,22.8 509.0,22.8 511.5,22.8 513.9,22.8 516.2,22.9 518.5,22.9 520.7,22.9 522.9,22.9 525.0,23.0 527.1,23.0 529.2,23.0 531.2,23.1 533.1,23.1 535.1,23.1 537.0,23.2 538.8,23.2 540.6,23.3 542.4,23.3 544.2,23.4 545.9,23.4 547.6,23.5 549.3,23.5 551.0,23.6 552.6,23.7 554.2,23.7 555.7,23.8 557.3,23.9 558.8,24.0 560.3,24.0 561.8,24.1 563.2,24.2 564.7,24.3 566.1,24.4 567.5,24.5 568.9,24.6 570.2,24.7 571.6,24.8 572.9,24.9 574.2,25.0 575.5,25.1 576.8,25.2 578.0,25.4 579.3,25.5 580.5,25.6 581.7,25.8 582.9,25.9 584.1,26.1 585.3,26.2 586.4,26.4 587.6,26.6 588.7,26.7 589.8,26.9 590.9,27.1 592.0,27.3 593.1,27.5 594.2,27.7 595.3,27.9 596.3,28.1 597.3,28.3 598.4,28.5 599.4,28.7 600.4,29.0 601.4,29.2 602.4,29.5 603.4,29.7 604.3,30.0 605.3,30.2 606.2,30.5 607.2,30.8 608.1,31.1 609.1,31.4 610.0,31.7 610.9,32.0 611.8,32.4 612.7,32.7 613.6,33.1 614.4,33.4 615.3,33.8 616.2,34.2 617.0,34.6 617.9,35.0 618.7,35.4 619.5,35.8 620.4,36.3 621.2,36.7 622.0,37.2 622.8,37.7 623.6,38.2 624.4,38.7 625.2,39.3 626.0,39.8 626.8,40.4 627.5,41.0 628.3,41.6 629.0,42.2 629.8,42.9 630.6,43.6 631.3,44.3 632.0,45.0 632.8,45.8 633.5,46.6 634.2,47.5 634.9,48.4 635.6,49.3 636.3,50.3 637.0,51.3 637.7,52.4 638.4,53.5 639.1,54.7 639.8,56.0 640.5,57.4 641.2,58.9 641.8,60.5 642.5,62.2 643.1,64.1 643.8,66.2 644.5,68.6 645.1,71.2 645.7,74.3 646.4,78.0 647.0,82.6 647.7,88.6 648.3,97.3 648.9,114.4 649.5,127.1 650.1,101.8 650.8,91.6 651.4,85.2 652.0,80.6 652.6,76.9 653.2,73.9 653.8,71.3 654.3,69.2 654.9,67.2 655.5,65.5 656.1,64.0 656.7,62.6 657.3,61.4 657.8,60.3 658.4,59.2 659.0,58.2 659.5,57.4 660.1,56.5 660.6,55.8 661.2,55.1 661.7,54.4 662.3,53.8 662.8,53.2 663.4,52.7 663.9,52.2 664.4,51.7 665.0,51.3 665.5,50.9 666.0,50.5 666.5,50.2 667.1,49.9 667.6,49.6 668.1,49.3 668.6,49.0 669.1,48.8 669.6,48.6 670.1,48.4 670.6,48.3 671.1,48.1 671.6,48.0 672.1,47.9 672.6,47.8 673.1,47.7 673.6,47.7 674.1,47.6 674.6,47.6 675.1,47.6 675.5,47.6 676.0,47.6 676.5,47.7 677.0,47.7 677.4,47.8 677.9,47.9 678.4,48.0 678.8,48.2 679.3,48.3 679.8,48.5 680.2,48.6 680.7,48.8 681.1,49.1 681.6,49.3 682.0,49.5 682.5,49.8 682.9,50.1 683.4,50.4 683.8,50.7 684.2,51.1 684.7,51.4 685.1,51.8 685.5,52.2 686.0,52.7 686.4,53.1 686.8,53.6 687.3,54.1 687.7,54.7 688.1,55.2 688.5,55.8 688.9,56.5 689.4,57.1 689.8,57.8 690.2,58.6 690.6,59.4 691.0,60.2 691.4,61.1 691.8,62.1 692.2,63.1 692.6,64.1 693.1,65.3 693.5,66.5 693.9,67.9 694.3,69.3 694.6,70.9 695.0,72.7 695.4,74.6 695.8,76.8 696.2,79.2 696.6,82.0 697.0,85.4 697.4,89.5 697.8,94.7 698.1,102.0 698.5,114.2 698.9,164.6 699.3,116.8 699.7,103.5 700.0,95.9 700.4,90.6 700.8,86.5 701.2,83.2 701.5,80.4 701.9,78.0 702.3,76.0 702.6,74.1 703.0,72.5 703.4,71.0 703.7,69.6 704.1,68.4 704.5,67.3 704.8,66.2 705.2,65.3 705.5,64.4 705.9,63.5 706.2,62.8 706.6,62.0 706.9,61.4 707.3,60.7 707.6,60.2 708.0,59.6 708.3,59.1 708.7,58.6 709.0,58.2 709.4,57.8 709.7,57.4 710.0,57.0 710.4,56.7 710.7,56.4 711.1,56.1 711.4,55.9 711.7,55.6 712.1,55.4 712.4,55.2 712.7,55.0 713.1,54.9 713.4,54.8 713.7,54.7 714.0,54.6 714.4,54.5 714.7,54.4 715.0,54.4 715.3,54.4 715.7,54.4 716.0,54.4 716.3,54.5 716.6,54.5 716.9,54.6 717.3,54.7 717.6,54.8 717.9,54.9 718.2,55.1 718.5,55.2 718.8,55.4 719.1,55.6 719.5,55.9 719.8,56.1 720.1,56.4 720.4,56.7 720.7,57.0 721.0,57.3 721.3,57.7 721.6,58.1 721.9,58.5 722.2,58.9 722.5,59.4 722.8,59.9 723.1,60.4 723.4,61.0 723.7,61.6 724.0,62.2 724.3,62.8 724.6,63.6 724.9,64.3 725.2,65.1 725.5,66.0 725.8,66.9 726.1,67.8 726.3,68.9 726.6,70.0 726.9,71.2 727.2,72.5 727.5,74.0 727.8,75.5 728.1,77.3 728.3,79.2 728.6,81.3 728.9,83.8 729.2,86.6 729.5,90.0 729.8,94.1 730.0,99.4 730.3,106.9 730.6,119.9 730.9,192.0 731.1,119.3 731.4,106.7 731.7,99.4 732.0,94.2 732.2,90.1 732.5,86.8 732.8,84.1 733.1,81.7 733.3,79.6 733.6,77.8 733.9,76.1 734.1,74.6 734.4,73.3 734.7,72.0 734.9,70.9 735.2,69.8 735.5,68.8 735.7,67.9 736.0,67.1 736.3,66.3 736.5,65.5 736.8,64.9 737.0,64.2 737.3,63.6 737.6,63.0 737.8,62.5 738.1,62.0 738.3,61.6 738.6,61.1 738.9,60.7 739.1,60.4 739.4,60.0 739.6,59.7 739.9,59.4 740.1,59.1 740.4,58.9 740.6,58.7 740.9,58.4 741.1,58.3 741.4,58.1 741.6,58.0 741.9,57.8 742.1,57.7 742.4,57.7 742.6,57.6 742.9,57.6 743.1,57.5 743.4,57.5 743.6,57.5 743.8,57.6 744.1,57.6 744.3,57.7 744.6,57.8 744.8,57.9 745.1,58.0 745.3,58.2 745.5,58.3 745.8,58.5 746.0,58.7 746.3,59.0 746.5,59.2 746.7,59.5 747.0,59.8 747.2,60.1 747.4,60.5 747.7,60.8 747.9,61.2 748.1,61.6 748.4,62.1 748.6,62.6 748.8,63.1 749.1,63.6 749.3,64.2 749.5,64.9 749.8,65.5 750.0,66.2 750.2,67.0 750.4,67.8 750.7,68.6 750.9,69.6 751.1,70.5 751.4,71.6 751.6,72.8 751.8,74.0 752.0,75.3 752.3,76.8 752.5,78.4 752.7,80.2 752.9,82.2 753.2,84.5 753.4,87.1 753.6,90.2 753.8,93.9 754.0,98.6 754.3,104.9 754.5,114.5 754.7,136.0 754.9,132.4" fill="none" stroke="#4a90d9" stroke-width="1.8" stroke-linejoin="round"/>
  <text x="55" y="240" font-size="12" font-weight="600" fill="#6b7280">Savitzky-Golay, window=11, degree=3</text>
  <rect x="529" y="19" width="202" height="102" fill="white" fill-opacity="0.85" rx="3"/>
  <text x="532" y="30" font-size="8" fill="#6b7280">Coefficients</text>
  <polyline points="530.0,70.0 536.5,70.0 542.9,70.0 549.4,70.0 555.8,70.0 562.3,70.0 568.7,70.0 575.2,70.0 581.6,70.0 588.1,70.0 594.5,90.2 601.0,64.9 607.4,45.3 613.9,31.2 620.3,22.8 626.8,20.0 633.2,22.8 639.7,31.2 646.1,45.3 652.6,64.9 659.0,90.2 665.5,70.0 671.9,70.0 678.4,70.0 684.8,70.0 691.3,70.0 697.7,70.0 704.2,70.0 710.6,70.0 717.1,70.0 723.5,70.0" fill="none" stroke="#4a90d9" stroke-width="1.3" stroke-linejoin="round"/>
</svg>
