<svg xmlns="http://www.w3.org/2000/svg" viewBox="0 0 800 420" style="font-family:system-ui,-apple-system,sans-serif">
  <text x="55" y="416" font-size="11" font-weight="600" fill="#6b7280">SVF bandpass, fc=1kHz, Q=1</text>
  <line x1="55" y1="12" x2="55" y2="162" stroke="#d1d5db"/>
  <line x1="55" y1="42.0" x2="385" y2="42.0" stroke="#d1d5db"/>
  <text x="220" y="190" text-anchor="middle" font-size="9" fill="#6b7280">Hz</text>
  <text x="29" y="87" text-anchor="middle" font-size="9" fill="#6b7280" transform="rotate(-90 29 87)">dB</text>
  <line x1="85.1" y1="12" x2="85.1" y2="162" stroke="#e5e7eb" stroke-width="0.5"/>
  <line x1="102.7" y1="12" x2="102.7" y2="162" stroke="#e5e7eb" stroke-width="0.5"/>
  <line x1="115.2" y1="12" x2="115.2" y2="162" stroke="#e5e7eb" stroke-width="0.5"/>
  <line x1="124.9" y1="12" x2="124.9" y2="162" stroke="#e5e7eb" stroke-width="0.5"/>
  <line x1="132.8" y1="12" x2="132.8" y2="162" stroke="#e5e7eb" stroke-width="0.5"/>
  <line x1="139.5" y1="12" x2="139.5" y2="162" stroke="#e5e7eb" stroke-width="0.5"/>
  <line x1="145.3" y1="12" x2="145.3" y2="162" stroke="#e5e7eb" stroke-width="0.5"/>
  <line x1="150.4" y1="12" x2="150.4" y2="162" stroke="#e5e7eb" stroke-width="0.5"/>
  <line x1="185.1" y1="12" x2="185.1" y2="162" stroke="#e5e7eb" stroke-width="0.5"/>
  <line x1="202.7" y1="12" x2="202.7" y2="162" stroke="#e5e7eb" stroke-width="0.5"/>
  <line x1="215.2" y1="12" x2="215.2" y2="162" stroke="#e5e7eb" stroke-width="0.5"/>
  <line x1="224.8" y1="12" x2="224.8" y2="162" stroke="#e5e7eb" stroke-width="0.5"/>
  <line x1="232.8" y1="12" x2="232.8" y2="162" stroke="#e5e7eb" stroke-width="0.5"/>
  <line x1="239.5" y1="12" x2="239.5" y2="162" stroke="#e5e7eb" stroke-width="0.5"/>
  <line x1="245.2" y1="12" x2="245.2" y2="162" stroke="#e5e7eb" stroke-width="0.5"/>
  <line x1="250.4" y1="12" x2="250.4" y2="162" stroke="#e5e7eb" stroke-width="0.5"/>
  <line x1="285.0" y1="12" x2="285.0" y2="162" stroke="#e5e7eb" stroke-width="0.5"/>
  <line x1="302.6" y1="12" x2="302.6" y2="162" stroke="#e5e7eb" stroke-width="0.5"/>
  <line x1="315.1" y1="12" x2="315.1" y2="162" stroke="#e5e7eb" stroke-width="0.5"/>
  <line x1="324.8" y1="12" x2="324.8" y2="162" stroke="#e5e7eb" stroke-width="0.5"/>
  <line x1="332.7" y1="12" x2="332.7" y2="162" stroke="#e5e7eb" stroke-width="0.5"/>
  <line x1="339.4" y1="12" x2="339.4" y2="162" stroke="#e5e7eb" stroke-width="0.5"/>
  <line x1="345.2" y1="12" x2="345.2" y2="162" stroke="#e5e7eb" stroke-width="0.5"/>
  <line x1="350.3" y1="12" x2="350.3" y2="162" stroke="#e5e7eb" stroke-width="0.5"/>
  <line x1="385.0" y1="12" x2="385.0" y2="162" stroke="#e5e7eb" stroke-width="0.5"/>
  <line x1="155.0" y1="12" x2="155.0" y2="162" stroke="#e5e7eb" stroke-width="0.5"/>
  <text x="155.0" y="174" text-anchor="middle" font-size="8" fill="#6b7280">100</text>
  <line x1="254.9" y1="12" x2="254.9" y2="162" stroke="#e5e7eb" stroke-width="0.5"/>
  <text x="254.9" y="174" text-anchor="middle" font-size="8" fill="#6b7280">1k</text>
  <line x1="354.9" y1="12" x2="354.9" y2="162" stroke="#e5e7eb" stroke-width="0.5"/>
  <text x="354.9" y="174" text-anchor="middle" font-size="8" fill="#6b7280">10k</text>
  <line x1="55" y1="27.0" x2="385" y2="27.0" stroke="#e5e7eb" stroke-width="0.5"/>
  <line x1="55" y1="57.0" x2="385" y2="57.0" stroke="#e5e7eb" stroke-width="0.5"/>
  <line x1="55" y1="12.0" x2="385" y2="12.0" stroke="#e5e7eb" stroke-width="0.5"/>
  <text x="51" y="15.0" text-anchor="end" font-size="8" fill="#6b7280">+20</text>
  <text x="51" y="45.0" text-anchor="end" font-size="8" fill="#6b7280">0</text>
  <line x1="55" y1="72.0" x2="385" y2="72.0" stroke="#e5e7eb" stroke-width="0.5"/>
  <text x="51" y="75.0" text-anchor="end" font-size="8" fill="#6b7280">-20</text>
  <line x1="55" y1="102.0" x2="385" y2="102.0" stroke="#e5e7eb" stroke-width="0.5"/>
  <text x="51" y="105.0" text-anchor="end" font-size="8" fill="#6b7280">-40</text>
  <line x1="55" y1="132.0" x2="385" y2="132.0" stroke="#e5e7eb" stroke-width="0.5"/>
  <text x="51" y="135.0" text-anchor="end" font-size="8" fill="#6b7280">-60</text>
  <line x1="55" y1="162.0" x2="385" y2="162.0" stroke="#e5e7eb" stroke-width="0.5"/>
  <text x="51" y="165.0" text-anchor="end" font-size="8" fill="#6b7280">-80</text>
  <defs><linearGradient id="g557" x1="0" y1="12" x2="0" y2="162" gradientUnits="userSpaceOnUse">
    <stop offset="0%" stop-color="#4a90d9" stop-opacity="0.15"/>
    <stop offset="100%" stop-color="#4a90d9" stop-opacity="0.02"/>
  </linearGradient></defs>
  <path d="M58.2,101.1 58.2,101.1 88.3,92.0 105.9,86.7 118.4,83.0 128.1,80.1 136.0,77.7 142.7,75.7 148.5,73.9 153.6,72.4 158.2,71.0 162.3,69.7 166.1,68.6 169.6,67.5 172.8,66.5 175.8,65.6 178.6,64.7 181.2,63.9 183.7,63.2 186.0,62.4 188.3,61.7 190.4,61.1 192.4,60.4 194.3,59.8 196.2,59.2 198.0,58.7 199.7,58.1 201.3,57.6 202.9,57.1 204.4,56.6 205.9,56.1 207.3,55.6 208.7,55.2 210.0,54.7 211.3,54.3 212.6,53.9 213.8,53.5 215.0,53.1 216.1,52.7 217.3,52.3 218.4,51.9 219.4,51.6 220.5,51.2 221.5,50.9 222.5,50.5 223.5,50.2 224.4,49.8 225.4,49.5 226.3,49.2 227.2,48.9 228.1,48.6 228.9,48.3 229.8,48.0 230.6,47.7 231.4,47.4 233.0,46.9 234.5,46.4 236.0,45.9 237.4,45.4 238.8,45.0 240.1,44.6 241.4,44.2 242.7,43.9 243.9,43.5 245.1,43.2 246.2,43.0 247.4,42.8 248.5,42.6 249.5,42.4 250.6,42.3 251.6,42.2 252.6,42.1 253.6,42.0 254.5,42.0 255.5,42.0 256.4,42.0 257.3,42.1 258.1,42.1 259.0,42.2 259.8,42.3 260.7,42.4 261.5,42.6 262.7,42.8 263.8,43.0 265.0,43.3 266.1,43.6 267.1,43.8 268.2,44.1 269.2,44.4 270.2,44.7 271.2,45.0 272.1,45.3 273.1,45.6 274.0,45.9 274.9,46.2 275.7,46.5 276.6,46.8 277.5,47.1 278.3,47.4 279.1,47.7 280.1,48.0 281.2,48.4 282.2,48.8 283.2,49.1 284.1,49.4 285.1,49.8 286.0,50.1 286.9,50.4 287.8,50.7 288.7,51.0 289.5,51.3 290.4,51.6 291.2,51.9 292.0,52.2 293.0,52.5 293.9,52.9 294.9,53.2 295.8,53.5 296.7,53.8 297.6,54.1 298.4,54.4 299.3,54.7 300.1,55.0 300.9,55.3 301.7,55.5 302.7,55.9 303.6,56.2 304.5,56.5 305.4,56.8 306.3,57.1 307.1,57.3 308.0,57.6 308.8,57.9 309.6,58.2 310.5,58.5 311.4,58.8 312.3,59.1 313.2,59.4 314.0,59.6 314.8,59.9 315.6,60.2 316.4,60.5 317.3,60.8 318.2,61.1 319.1,61.4 319.9,61.6 320.8,61.9 321.6,62.2 322.5,62.5 323.3,62.8 324.2,63.1 325.1,63.4 325.9,63.6 326.7,63.9 327.6,64.2 328.5,64.5 329.3,64.8 330.1,65.1 331.0,65.4 331.8,65.7 332.6,66.0 333.5,66.3 334.3,66.5 335.1,66.8 335.9,67.1 336.8,67.4 337.6,67.7 338.5,68.0 339.3,68.3 340.1,68.6 341.0,68.9 341.8,69.2 342.6,69.5 343.5,69.9 344.3,70.2 345.2,70.5 346.0,70.8 346.8,71.1 347.7,71.5 348.5,71.8 349.3,72.1 350.1,72.4 351.0,72.8 351.8,73.1 352.6,73.5 353.4,73.8 354.3,74.2 355.1,74.5 355.9,74.9 356.7,75.3 357.6,75.6 358.4,76.0 359.2,76.4 360.1,76.8 360.9,77.2 361.7,77.6 362.5,78.0 363.3,78.5 364.1,78.9 365.0,79.3 365.8,79.8 366.6,80.3 367.4,80.8 368.3,81.3 369.1,81.8 369.9,82.3 370.7,82.9 371.5,83.4 372.3,84.0 373.1,84.7 373.9,85.3 374.8,86.0 375.6,86.7 376.4,87.5 377.2,88.3 378.0,89.2 378.8,90.1 379.6,91.1 380.4,92.2 381.3,93.4 382.1,94.8 382.9,96.3 383.7,98.0 384.5,99.9 L384.5,162.0 L58.2,162.0 Z" fill="url(#g557)"/>
  <defs><clipPath id="pc558"><rect x="55" y="12" width="330" height="150"/></clipPath></defs>
  <polyline points="58.2,101.1 88.3,92.0 105.9,86.7 118.4,83.0 128.1,80.1 136.0,77.7 142.7,75.7 148.5,73.9 153.6,72.4 158.2,71.0 162.3,69.7 166.1,68.6 169.6,67.5 172.8,66.5 175.8,65.6 178.6,64.7 181.2,63.9 183.7,63.2 186.0,62.4 188.3,61.7 190.4,61.1 192.4,60.4 194.3,59.8 196.2,59.2 198.0,58.7 199.7,58.1 201.3,57.6 202.9,57.1 204.4,56.6 205.9,56.1 207.3,55.6 208.7,55.2 210.0,54.7 211.3,54.3 212.6,53.9 213.8,53.5 215.0,53.1 216.1,52.7 217.3,52.3 218.4,51.9 219.4,51.6 220.5,51.2 221.5,50.9 222.5,50.5 223.5,50.2 224.4,49.8 225.4,49.5 226.3,49.2 227.2,48.9 228.1,48.6 228.9,48.3 229.8,48.0 230.6,47.7 231.4,47.4 233.0,46.9 234.5,46.4 236.0,45.9 237.4,45.4 238.8,45.0 240.1,44.6 241.4,44.2 242.7,43.9 243.9,43.5 245.1,43.2 246.2,43.0 247.4,42.8 248.5,42.6 249.5,42.4 250.6,42.3 251.6,42.2 252.6,42.1 253.6,42.0 254.5,42.0 255.5,42.0 256.4,42.0 257.3,42.1 258.1,42.1 259.0,42.2 259.8,42.3 260.7,42.4 261.5,42.6 262.7,42.8 263.8,43.0 265.0,43.3 266.1,43.6 267.1,43.8 268.2,44.1 269.2,44.4 270.2,44.7 271.2,45.0 272.1,45.3 273.1,45.6 274.0,45.9 274.9,46.2 275.7,46.5 276.6,46.8 277.5,47.1 278.3,47.4 279.1,47.7 280.1,48.0 281.2,48.4 282.2,48.8 283.2,49.1 284.1,49.4 285.1,49.8 286.0,50.1 286.9,50.4 287.8,50.7 288.7,51.0 289.5,51.3 290.4,51.6 291.2,51.9 292.0,52.2 293.0,52.5 293.9,52.9 294.9,53.2 295.8,53.5 296.7,53.8 297.6,54.1 298.4,54.4 299.3,54.7 300.1,55.0 300.9,55.3 301.7,55.5 302.7,55.9 303.6,56.2 304.5,56.5 305.4,56.8 306.3,57.1 307.1,57.3 308.0,57.6 308.8,57.9 309.6,58.2 310.5,58.5 311.4,58.8 312.3,59.1 313.2,59.4 314.0,59.6 314.8,59.9 315.6,60.2 316.4,60.5 317.3,60.8 318.2,61.1 319.1,61.4 319.9,61.6 320.8,61.9 321.6,62.2 322.5,62.5 323.3,62.8 324.2,63.1 325.1,63.4 325.9,63.6 326.7,63.9 327.6,64.2 328.5,64.5 329.3,64.8 330.1,65.1 331.0,65.4 331.8,65.7 332.6,66.0 333.5,66.3 334.3,66.5 335.1,66.8 335.9,67.1 336.8,67.4 337.6,67.7 338.5,68.0 339.3,68.3 340.1,68.6 341.0,68.9 341.8,69.2 342.6,69.5 343.5,69.9 344.3,70.2 345.2,70.5 346.0,70.8 346.8,71.1 347.7,71.5 348.5,71.8 349.3,72.1 350.1,72.4 351.0,72.8 351.8,73.1 352.6,73.5 353.4,73.8 354.3,74.2 355.1,74.5 355.9,74.9 356.7,75.3 357.6,75.6 358.4,76.0 359.2,76.4 360.1,76.8 360.9,77.2 361.7,77.6 362.5,78.0 363.3,78.5 364.1,78.9 365.0,79.3 365.8,79.8 366.6,80.3 367.4,80.8 368.3,81.3 369.1,81.8 369.9,82.3 370.7,82.9 371.5,83.4 372.3,84.0 373.1,84.7 373.9,85.3 374.8,86.0 375.6,86.7 376.4,87.5 377.2,88.3 378.0,89.2 378.8,90.1 379.6,91.1 380.4,92.2 381.3,93.4 382.1,94.8 382.9,96.3 383.7,98.0 384.5,99.9" fill="none" stroke="#4a90d9" stroke-width="1.5" stroke-linejoin="round" clip-path="url(#pc558)"/>
  <line x1="445" y1="12" x2="445" y2="162" stroke="#d1d5db"/>
  <line x1="445" y1="87.0" x2="775" y2="87.0" stroke="#d1d5db"/>
  <text x="610" y="190" text-anchor="middle" font-size="9" fill="#6b7280">Hz</text>
  <text x="419" y="87" text-anchor="middle" font-size="9" fill="#6b7280" transform="rotate(-90 419 87)">Phase (deg)</text>
  <line x1="475.1" y1="12" x2="475.1" y2="162" stroke="#e5e7eb" stroke-width="0.5"/>
  <line x1="492.7" y1="12" x2="492.7" y2="162" stroke="#e5e7eb" stroke-width="0.5"/>
  <line x1="505.2" y1="12" x2="505.2" y2="162" stroke="#e5e7eb" stroke-width="0.5"/>
  <line x1="514.9" y1="12" x2="514.9" y2="162" stroke="#e5e7eb" stroke-width="0.5"/>
  <line x1="522.8" y1="12" x2="522.8" y2="162" stroke="#e5e7eb" stroke-width="0.5"/>
  <line x1="529.5" y1="12" x2="529.5" y2="162" stroke="#e5e7eb" stroke-width="0.5"/>
  <line x1="535.3" y1="12" x2="535.3" y2="162" stroke="#e5e7eb" stroke-width="0.5"/>
  <line x1="540.4" y1="12" x2="540.4" y2="162" stroke="#e5e7eb" stroke-width="0.5"/>
  <line x1="575.1" y1="12" x2="575.1" y2="162" stroke="#e5e7eb" stroke-width="0.5"/>
  <line x1="592.7" y1="12" x2="592.7" y2="162" stroke="#e5e7eb" stroke-width="0.5"/>
  <line x1="605.2" y1="12" x2="605.2" y2="162" stroke="#e5e7eb" stroke-width="0.5"/>
  <line x1="614.8" y1="12" x2="614.8" y2="162" stroke="#e5e7eb" stroke-width="0.5"/>
  <line x1="622.8" y1="12" x2="622.8" y2="162" stroke="#e5e7eb" stroke-width="0.5"/>
  <line x1="629.5" y1="12" x2="629.5" y2="162" stroke="#e5e7eb" stroke-width="0.5"/>
  <line x1="635.2" y1="12" x2="635.2" y2="162" stroke="#e5e7eb" stroke-width="0.5"/>
  <line x1="640.4" y1="12" x2="640.4" y2="162" stroke="#e5e7eb" stroke-width="0.5"/>
  <line x1="675.0" y1="12" x2="675.0" y2="162" stroke="#e5e7eb" stroke-width="0.5"/>
  <line x1="692.6" y1="12" x2="692.6" y2="162" stroke="#e5e7eb" stroke-width="0.5"/>
  <line x1="705.1" y1="12" x2="705.1" y2="162" stroke="#e5e7eb" stroke-width="0.5"/>
  <line x1="714.8" y1="12" x2="714.8" y2="162" stroke="#e5e7eb" stroke-width="0.5"/>
  <line x1="722.7" y1="12" x2="722.7" y2="162" stroke="#e5e7eb" stroke-width="0.5"/>
  <line x1="729.4" y1="12" x2="729.4" y2="162" stroke="#e5e7eb" stroke-width="0.5"/>
  <line x1="735.2" y1="12" x2="735.2" y2="162" stroke="#e5e7eb" stroke-width="0.5"/>
  <line x1="740.3" y1="12" x2="740.3" y2="162" stroke="#e5e7eb" stroke-width="0.5"/>
  <line x1="775.0" y1="12" x2="775.0" y2="162" stroke="#e5e7eb" stroke-width="0.5"/>
  <line x1="545.0" y1="12" x2="545.0" y2="162" stroke="#e5e7eb" stroke-width="0.5"/>
  <text x="545.0" y="174" text-anchor="middle" font-size="8" fill="#6b7280">100</text>
  <line x1="644.9" y1="12" x2="644.9" y2="162" stroke="#e5e7eb" stroke-width="0.5"/>
  <text x="644.9" y="174" text-anchor="middle" font-size="8" fill="#6b7280">1k</text>
  <line x1="744.9" y1="12" x2="744.9" y2="162" stroke="#e5e7eb" stroke-width="0.5"/>
  <text x="744.9" y="174" text-anchor="middle" font-size="8" fill="#6b7280">10k</text>
  <line x1="445" y1="53.3" x2="775" y2="53.3" stroke="#e5e7eb" stroke-width="0.5"/>
  <line x1="445" y1="120.8" x2="775" y2="120.8" stroke="#e5e7eb" stroke-width="0.5"/>
  <line x1="445" y1="19.5" x2="775" y2="19.5" stroke="#e5e7eb" stroke-width="0.5"/>
  <text x="441" y="22.5" text-anchor="end" font-size="8" fill="#6b7280">180</text>
  <text x="441" y="90.0" text-anchor="end" font-size="8" fill="#6b7280">0</text>
  <line x1="445" y1="154.5" x2="775" y2="154.5" stroke="#e5e7eb" stroke-width="0.5"/>
  <text x="441" y="157.5" text-anchor="end" font-size="8" fill="#6b7280">-180</text>
  <defs><linearGradient id="g559" x1="0" y1="12" x2="0" y2="87.0" gradientUnits="userSpaceOnUse">
    <stop offset="0%" stop-color="#e74c3c" stop-opacity="0.15"/>
    <stop offset="100%" stop-color="#e74c3c" stop-opacity="0.02"/>
  </linearGradient></defs>
  <defs><linearGradient id="g560" x1="0" y1="162" x2="0" y2="87.0" gradientUnits="userSpaceOnUse">
    <stop offset="0%" stop-color="#e74c3c" stop-opacity="0.15"/>
    <stop offset="100%" stop-color="#e74c3c" stop-opacity="0.02"/>
  </linearGradient></defs>
  <defs><clipPath id="c561"><rect x="445" y="12" width="330" height="75.0"/></clipPath></defs>
  <defs><clipPath id="c562"><rect x="445" y="87.0" width="330" height="75.0"/></clipPath></defs>
  <path d="M448.2,53.5 448.2,53.5 478.3,53.7 495.9,53.9 508.4,54.2 518.1,54.4 526.0,54.6 532.7,54.9 538.5,55.1 543.6,55.3 548.2,55.6 552.3,55.8 556.1,56.1 559.6,56.3 562.8,56.5 565.8,56.8 568.6,57.0 571.2,57.3 573.7,57.5 576.0,57.8 578.3,58.0 580.4,58.3 582.4,58.5 584.3,58.8 586.2,59.0 588.0,59.3 589.7,59.6 591.3,59.8 592.9,60.1 594.4,60.4 595.9,60.7 597.3,61.0 598.7,61.2 600.0,61.5 601.3,61.8 602.6,62.1 603.8,62.4 605.0,62.7 606.1,63.0 607.3,63.4 608.4,63.7 609.4,64.0 610.5,64.3 611.5,64.7 612.5,65.0 613.5,65.4 614.4,65.7 615.4,66.1 616.3,66.4 617.2,66.8 618.1,67.2 618.9,67.5 619.8,67.9 620.6,68.3 621.4,68.7 623.0,69.5 624.5,70.4 626.0,71.2 627.4,72.1 628.8,73.0 630.1,73.9 631.4,74.8 632.7,75.8 633.9,76.8 635.1,77.7 636.2,78.7 637.4,79.7 638.5,80.7 639.5,81.7 640.6,82.7 641.6,83.7 642.6,84.7 643.6,85.6 644.5,86.6 645.5,87.5 646.4,88.4 647.3,89.3 648.1,90.2 649.0,91.0 649.8,91.8 650.7,92.6 651.5,93.3 652.7,94.4 653.8,95.4 655.0,96.4 656.1,97.3 657.1,98.2 658.2,99.0 659.2,99.7 660.2,100.4 661.2,101.1 662.1,101.7 663.1,102.3 664.0,102.9 664.9,103.4 665.7,103.9 666.6,104.4 667.5,104.8 668.3,105.2 669.1,105.6 670.1,106.1 671.2,106.6 672.2,107.1 673.2,107.5 674.1,107.9 675.1,108.2 676.0,108.6 676.9,108.9 677.8,109.2 678.7,109.5 679.5,109.8 680.4,110.0 681.2,110.3 682.0,110.5 683.0,110.8 683.9,111.1 684.9,111.3 685.8,111.6 686.7,111.8 687.6,112.0 688.4,112.2 689.3,112.4 690.1,112.6 690.9,112.8 691.7,113.0 692.7,113.2 693.6,113.4 694.5,113.5 695.4,113.7 696.3,113.9 697.1,114.0 698.0,114.2 698.8,114.3 699.6,114.4 700.5,114.6 701.4,114.7 702.3,114.9 703.2,115.0 704.0,115.1 704.8,115.3 705.6,115.4 706.4,115.5 707.3,115.6 708.2,115.7 709.1,115.8 709.9,115.9 710.8,116.1 711.6,116.2 712.5,116.3 713.3,116.4 714.2,116.5 715.1,116.6 715.9,116.6 716.7,116.7 717.6,116.8 718.5,116.9 719.3,117.0 720.1,117.1 721.0,117.2 721.8,117.2 722.6,117.3 723.5,117.4 724.3,117.5 725.1,117.5 725.9,117.6 726.8,117.7 727.6,117.8 728.5,117.8 729.3,117.9 730.1,118.0 731.0,118.0 731.8,118.1 732.6,118.1 733.5,118.2 734.3,118.3 735.2,118.3 736.0,118.4 736.8,118.4 737.7,118.5 738.5,118.6 739.3,118.6 740.1,118.7 741.0,118.7 741.8,118.8 742.6,118.8 743.4,118.9 744.3,118.9 745.1,119.0 745.9,119.0 746.7,119.1 747.6,119.1 748.4,119.2 749.2,119.2 750.1,119.3 750.9,119.3 751.7,119.4 752.5,119.4 753.3,119.4 754.1,119.5 755.0,119.5 755.8,119.6 756.6,119.6 757.4,119.7 758.3,119.7 759.1,119.7 759.9,119.8 760.7,119.8 761.5,119.9 762.3,119.9 763.1,119.9 763.9,120.0 764.8,120.0 765.6,120.1 766.4,120.1 767.2,120.1 768.0,120.2 768.8,120.2 769.6,120.3 770.4,120.3 771.3,120.3 772.1,120.4 772.9,120.4 773.7,120.5 774.5,120.5 L774.5,87.0 L448.2,87.0 Z" fill="url(#g559)" clip-path="url(#c561)"/>
  <path d="M448.2,53.5 448.2,53.5 478.3,53.7 495.9,53.9 508.4,54.2 518.1,54.4 526.0,54.6 532.7,54.9 538.5,55.1 543.6,55.3 548.2,55.6 552.3,55.8 556.1,56.1 559.6,56.3 562.8,56.5 565.8,56.8 568.6,57.0 571.2,57.3 573.7,57.5 576.0,57.8 578.3,58.0 580.4,58.3 582.4,58.5 584.3,58.8 586.2,59.0 588.0,59.3 589.7,59.6 591.3,59.8 592.9,60.1 594.4,60.4 595.9,60.7 597.3,61.0 598.7,61.2 600.0,61.5 601.3,61.8 602.6,62.1 603.8,62.4 605.0,62.7 606.1,63.0 607.3,63.4 608.4,63.7 609.4,64.0 610.5,64.3 611.5,64.7 612.5,65.0 613.5,65.4 614.4,65.7 615.4,66.1 616.3,66.4 617.2,66.8 618.1,67.2 618.9,67.5 619.8,67.9 620.6,68.3 621.4,68.7 623.0,69.5 624.5,70.4 626.0,71.2 627.4,72.1 628.8,73.0 630.1,73.9 631.4,74.8 632.7,75.8 633.9,76.8 635.1,77.7 636.2,78.7 637.4,79.7 638.5,80.7 639.5,81.7 640.6,82.7 641.6,83.7 642.6,84.7 643.6,85.6 644.5,86.6 645.5,87.5 646.4,88.4 647.3,89.3 648.1,90.2 649.0,91.0 649.8,91.8 650.7,92.6 651.5,93.3 652.7,94.4 653.8,95.4 655.0,96.4 656.1,97.3 657.1,98.2 658.2,99.0 659.2,99.7 660.2,100.4 661.2,101.1 662.1,101.7 663.1,102.3 664.0,102.9 664.9,103.4 665.7,103.9 666.6,104.4 667.5,104.8 668.3,105.2 669.1,105.6 670.1,106.1 671.2,106.6 672.2,107.1 673.2,107.5 674.1,107.9 675.1,108.2 676.0,108.6 676.9,108.9 677.8,109.2 678.7,109.5 679.5,109.8 680.4,110.0 681.2,110.3 682.0,110.5 683.0,110.8 683.9,111.1 684.9,111.3 685.8,111.6 686.7,111.8 687.6,112.0 688.4,112.2 689.3,112.4 690.1,112.6 690.9,112.8 691.7,113.0 692.7,113.2 693.6,113.4 694.5,113.5 695.4,113.7 696.3,113.9 697.1,114.0 698.0,114.2 698.8,114.3 699.6,114.4 700.5,114.6 701.4,114.7 702.3,114.9 703.2,115.0 704.0,115.1 704.8,115.3 705.6,115.4 706.4,115.5 707.3,115.6 708.2,115.7 709.1,115.8 709.9,115.9 710.8,116.1 711.6,116.2 712.5,116.3 713.3,116.4 714.2,116.5 715.1,116.6 715.9,116.6 716.7,116.7 717.6,116.8 718.5,116.9 719.3,117.0 720.1,117.1 721.0,117.2 721.8,117.2 722.6,117.3 723.5,117.4 724.3,117.5 725.1,117.5 725.9,117.6 726.8,117.7 727.6,117.8 728.5,117.8 729.3,117.9 730.1,118.0 731.0,118.0 731.8,118.1 732.6,118.1 733.5,118.2 734.3,118.3 735.2,118.3 736.0,118.4 736.8,118.4 737.7,118.5 738.5,118.6 739.3,118.6 740.1,118.7 741.0,118.7 741.8,118.8 742.6,118.8 743.4,118.9 744.3,118.9 745.1,119.0 745.9,119.0 746.7,119.1 747.6,119.1 748.4,119.2 749.2,119.2 750.1,119.3 750.9,119.3 751.7,119.4 752.5,119.4 753.3,119.4 754.1,119.5 755.0,119.5 755.8,119.6 756.6,119.6 757.4,119.7 758.3,119.7 759.1,119.7 759.9,119.8 760.7,119.8 761.5,119.9 762.3,119.9 763.1,119.9 763.9,120.0 764.8,120.0 765.6,120.1 766.4,120.1 767.2,120.1 768.0,120.2 768.8,120.2 769.6,120.3 770.4,120.3 771.3,120.3 772.1,120.4 772.9,120.4 773.7,120.5 774.5,120.5 L774.5,87.0 L448.2,87.0 Z" fill="url(#g560)" clip-path="url(#c562)"/>
  <defs><clipPath id="pc563"><rect x="445" y="12" width="330" height="150"/></clipPath></defs>
  <polyline points="448.2,53.5 478.3,53.7 495.9,53.9 508.4,54.2 518.1,54.4 526.0,54.6 532.7,54.9 538.5,55.1 543.6,55.3 548.2,55.6 552.3,55.8 556.1,56.1 559.6,56.3 562.8,56.5 565.8,56.8 568.6,57.0 571.2,57.3 573.7,57.5 576.0,57.8 578.3,58.0 580.4,58.3 582.4,58.5 584.3,58.8 586.2,59.0 588.0,59.3 589.7,59.6 591.3,59.8 592.9,60.1 594.4,60.4 595.9,60.7 597.3,61.0 598.7,61.2 600.0,61.5 601.3,61.8 602.6,62.1 603.8,62.4 605.0,62.7 606.1,63.0 607.3,63.4 608.4,63.7 609.4,64.0 610.5,64.3 611.5,64.7 612.5,65.0 613.5,65.4 614.4,65.7 615.4,66.1 616.3,66.4 617.2,66.8 618.1,67.2 618.9,67.5 619.8,67.9 620.6,68.3 621.4,68.7 623.0,69.5 624.5,70.4 626.0,71.2 627.4,72.1 628.8,73.0 630.1,73.9 631.4,74.8 632.7,75.8 633.9,76.8 635.1,77.7 636.2,78.7 637.4,79.7 638.5,80.7 639.5,81.7 640.6,82.7 641.6,83.7 642.6,84.7 643.6,85.6 644.5,86.6 645.5,87.5 646.4,88.4 647.3,89.3 648.1,90.2 649.0,91.0 649.8,91.8 650.7,92.6 651.5,93.3 652.7,94.4 653.8,95.4 655.0,96.4 656.1,97.3 657.1,98.2 658.2,99.0 659.2,99.7 660.2,100.4 661.2,101.1 662.1,101.7 663.1,102.3 664.0,102.9 664.9,103.4 665.7,103.9 666.6,104.4 667.5,104.8 668.3,105.2 669.1,105.6 670.1,106.1 671.2,106.6 672.2,107.1 673.2,107.5 674.1,107.9 675.1,108.2 676.0,108.6 676.9,108.9 677.8,109.2 678.7,109.5 679.5,109.8 680.4,110.0 681.2,110.3 682.0,110.5 683.0,110.8 683.9,111.1 684.9,111.3 685.8,111.6 686.7,111.8 687.6,112.0 688.4,112.2 689.3,112.4 690.1,112.6 690.9,112.8 691.7,113.0 692.7,113.2 693.6,113.4 694.5,113.5 695.4,113.7 696.3,113.9 697.1,114.0 698.0,114.2 698.8,114.3 699.6,114.4 700.5,114.6 701.4,114.7 702.3,114.9 703.2,115.0 704.0,115.1 704.8,115.3 705.6,115.4 706.4,115.5 707.3,115.6 708.2,115.7 709.1,115.8 709.9,115.9 710.8,116.1 711.6,116.2 712.5,116.3 713.3,116.4 714.2,116.5 715.1,116.6 715.9,116.6 716.7,116.7 717.6,116.8 718.5,116.9 719.3,117.0 720.1,117.1 721.0,117.2 721.8,117.2 722.6,117.3 723.5,117.4 724.3,117.5 725.1,117.5 725.9,117.6 726.8,117.7 727.6,117.8 728.5,117.8 729.3,117.9 730.1,118.0 731.0,118.0 731.8,118.1 732.6,118.1 733.5,118.2 734.3,118.3 735.2,118.3 736.0,118.4 736.8,118.4 737.7,118.5 738.5,118.6 739.3,118.6 740.1,118.7 741.0,118.7 741.8,118.8 742.6,118.8 743.4,118.9 744.3,118.9 745.1,119.0 745.9,119.0 746.7,119.1 747.6,119.1 748.4,119.2 749.2,119.2 750.1,119.3 750.9,119.3 751.7,119.4 752.5,119.4 753.3,119.4 754.1,119.5 755.0,119.5 755.8,119.6 756.6,119.6 757.4,119.7 758.3,119.7 759.1,119.7 759.9,119.8 760.7,119.8 761.5,119.9 762.3,119.9 763.1,119.9 763.9,120.0 764.8,120.0 765.6,120.1 766.4,120.1 767.2,120.1 768.0,120.2 768.8,120.2 769.6,120.3 770.4,120.3 771.3,120.3 772.1,120.4 772.9,120.4 773.7,120.5 774.5,120.5" fill="none" stroke="#e74c3c" stroke-width="1.5" stroke-linejoin="round" clip-path="url(#pc563)"/>
  <line x1="55" y1="210" x2="55" y2="360" stroke="#d1d5db"/>
  <line x1="55" y1="285.0" x2="385" y2="285.0" stroke="#d1d5db"/>
  <text x="220" y="388" text-anchor="middle" font-size="9" fill="#6b7280">Hz</text>
  <text x="29" y="285" text-anchor="middle" font-size="9" fill="#6b7280" transform="rotate(-90 29 285)">Group delay</text>
  <line x1="85.1" y1="210" x2="85.1" y2="360" stroke="#e5e7eb" stroke-width="0.5"/>
  <line x1="102.7" y1="210" x2="102.7" y2="360" stroke="#e5e7eb" stroke-width="0.5"/>
  <line x1="115.2" y1="210" x2="115.2" y2="360" stroke="#e5e7eb" stroke-width="0.5"/>
  <line x1="124.9" y1="210" x2="124.9" y2="360" stroke="#e5e7eb" stroke-width="0.5"/>
  <line x1="132.8" y1="210" x2="132.8" y2="360" stroke="#e5e7eb" stroke-width="0.5"/>
  <line x1="139.5" y1="210" x2="139.5" y2="360" stroke="#e5e7eb" stroke-width="0.5"/>
  <line x1="145.3" y1="210" x2="145.3" y2="360" stroke="#e5e7eb" stroke-width="0.5"/>
  <line x1="150.4" y1="210" x2="150.4" y2="360" stroke="#e5e7eb" stroke-width="0.5"/>
  <line x1="185.1" y1="210" x2="185.1" y2="360" stroke="#e5e7eb" stroke-width="0.5"/>
  <line x1="202.7" y1="210" x2="202.7" y2="360" stroke="#e5e7eb" stroke-width="0.5"/>
  <line x1="215.2" y1="210" x2="215.2" y2="360" stroke="#e5e7eb" stroke-width="0.5"/>
  <line x1="224.8" y1="210" x2="224.8" y2="360" stroke="#e5e7eb" stroke-width="0.5"/>
  <line x1="232.8" y1="210" x2="232.8" y2="360" stroke="#e5e7eb" stroke-width="0.5"/>
  <line x1="239.5" y1="210" x2="239.5" y2="360" stroke="#e5e7eb" stroke-width="0.5"/>
  <line x1="245.2" y1="210" x2="245.2" y2="360" stroke="#e5e7eb" stroke-width="0.5"/>
  <line x1="250.4" y1="210" x2="250.4" y2="360" stroke="#e5e7eb" stroke-width="0.5"/>
  <line x1="285.0" y1="210" x2="285.0" y2="360" stroke="#e5e7eb" stroke-width="0.5"/>
  <line x1="302.6" y1="210" x2="302.6" y2="360" stroke="#e5e7eb" stroke-width="0.5"/>
  <line x1="315.1" y1="210" x2="315.1" y2="360" stroke="#e5e7eb" stroke-width="0.5"/>
  <line x1="324.8" y1="210" x2="324.8" y2="360" stroke="#e5e7eb" stroke-width="0.5"/>
  <line x1="332.7" y1="210" x2="332.7" y2="360" stroke="#e5e7eb" stroke-width="0.5"/>
  <line x1="339.4" y1="210" x2="339.4" y2="360" stroke="#e5e7eb" stroke-width="0.5"/>
  <line x1="345.2" y1="210" x2="345.2" y2="360" stroke="#e5e7eb" stroke-width="0.5"/>
  <line x1="350.3" y1="210" x2="350.3" y2="360" stroke="#e5e7eb" stroke-width="0.5"/>
  <line x1="385.0" y1="210" x2="385.0" y2="360" stroke="#e5e7eb" stroke-width="0.5"/>
  <line x1="155.0" y1="210" x2="155.0" y2="360" stroke="#e5e7eb" stroke-width="0.5"/>
  <text x="155.0" y="372" text-anchor="middle" font-size="8" fill="#6b7280">100</text>
  <line x1="254.9" y1="210" x2="254.9" y2="360" stroke="#e5e7eb" stroke-width="0.5"/>
  <text x="254.9" y="372" text-anchor="middle" font-size="8" fill="#6b7280">1k</text>
  <line x1="354.9" y1="210" x2="354.9" y2="360" stroke="#e5e7eb" stroke-width="0.5"/>
  <text x="354.9" y="372" text-anchor="middle" font-size="8" fill="#6b7280">10k</text>
  <line x1="55" y1="330.7" x2="385" y2="330.7" stroke="#e5e7eb" stroke-width="0.5"/>
  <text x="51" y="333.7" text-anchor="end" font-size="8" fill="#6b7280">-400</text>
  <text x="51" y="288.0" text-anchor="end" font-size="8" fill="#6b7280">0</text>
  <line x1="55" y1="239.3" x2="385" y2="239.3" stroke="#e5e7eb" stroke-width="0.5"/>
  <text x="51" y="242.3" text-anchor="end" font-size="8" fill="#6b7280">400</text>
  <defs><linearGradient id="g564" x1="0" y1="210" x2="0" y2="285.0" gradientUnits="userSpaceOnUse">
    <stop offset="0%" stop-color="#2ecc71" stop-opacity="0.15"/>
    <stop offset="100%" stop-color="#2ecc71" stop-opacity="0.02"/>
  </linearGradient></defs>
  <defs><linearGradient id="g565" x1="0" y1="360" x2="0" y2="285.0" gradientUnits="userSpaceOnUse">
    <stop offset="0%" stop-color="#2ecc71" stop-opacity="0.15"/>
    <stop offset="100%" stop-color="#2ecc71" stop-opacity="0.02"/>
  </linearGradient></defs>
  <defs><clipPath id="c566"><rect x="55" y="210" width="330" height="75.0"/></clipPath></defs>
  <defs><clipPath id="c567"><rect x="55" y="285.0" width="330" height="75.0"/></clipPath></defs>
  <path d="M58.2,342.7 58.2,342.7 88.3,284.2 105.9,284.2 118.4,284.2 128.1,284.2 136.0,284.2 142.7,284.2 148.5,284.2 153.6,284.2 158.2,284.2 162.3,284.2 166.1,284.2 169.6,284.2 172.8,284.2 175.8,284.2 178.6,284.2 181.2,284.1 183.7,284.1 186.0,284.1 188.3,284.1 190.4,284.1 192.4,284.1 194.3,284.1 196.2,284.1 198.0,284.1 199.7,284.1 201.3,284.1 202.9,284.0 204.4,284.0 205.9,284.0 207.3,284.0 208.7,284.0 210.0,284.0 211.3,284.0 212.6,284.0 213.8,283.9 215.0,283.9 216.1,283.9 217.3,283.9 218.4,283.9 219.4,283.9 220.5,283.8 221.5,283.8 222.5,283.8 223.5,283.8 224.4,283.8 225.4,283.8 226.3,283.7 227.2,283.7 228.1,283.7 228.9,283.7 229.8,283.7 230.6,283.6 231.4,283.6 233.0,283.6 234.5,283.5 236.0,283.5 237.4,283.5 238.8,283.4 240.1,283.4 241.4,283.4 242.7,283.3 243.9,283.3 245.1,283.3 246.2,283.3 247.4,283.3 248.5,283.3 249.5,283.3 250.6,283.3 251.6,283.3 252.6,283.3 253.6,283.3 254.5,283.4 255.5,283.4 256.4,283.4 257.3,283.5 258.1,283.5 259.0,283.6 259.8,283.6 260.7,283.7 261.5,283.7 262.7,283.8 263.8,283.9 265.0,283.9 266.1,284.0 267.1,284.0 268.2,284.1 269.2,284.2 270.2,284.2 271.2,284.3 272.1,284.3 273.1,284.3 274.0,284.4 274.9,284.4 275.7,284.4 276.6,284.5 277.5,284.5 278.3,284.5 279.1,284.5 280.1,284.6 281.2,284.6 282.2,284.6 283.2,284.7 284.1,284.7 285.1,284.7 286.0,284.7 286.9,284.7 287.8,284.7 288.7,284.8 289.5,284.8 290.4,284.8 291.2,284.8 292.0,284.8 293.0,284.8 293.9,284.8 294.9,284.8 295.8,284.8 296.7,284.8 297.6,284.9 298.4,284.9 299.3,284.9 300.1,284.9 300.9,284.9 301.7,284.9 302.7,284.9 303.6,284.9 304.5,284.9 305.4,284.9 306.3,284.9 307.1,284.9 308.0,284.9 308.8,284.9 309.6,284.9 310.5,284.9 311.4,284.9 312.3,284.9 313.2,284.9 314.0,284.9 314.8,284.9 315.6,284.9 316.4,284.9 317.3,284.9 318.2,285.0 319.1,285.0 319.9,285.0 320.8,285.0 321.6,285.0 322.5,285.0 323.3,285.0 324.2,285.0 325.1,285.0 325.9,285.0 326.7,285.0 327.6,285.0 328.5,285.0 329.3,285.0 330.1,285.0 331.0,285.0 331.8,285.0 332.6,285.0 333.5,285.0 334.3,285.0 335.1,285.0 335.9,285.0 336.8,285.0 337.6,285.0 338.5,285.0 339.3,285.0 340.1,285.0 341.0,285.0 341.8,285.0 342.6,285.0 343.5,285.0 344.3,285.0 345.2,285.0 346.0,285.0 346.8,285.0 347.7,285.0 348.5,285.0 349.3,285.0 350.1,285.0 351.0,285.0 351.8,285.0 352.6,285.0 353.4,285.0 354.3,285.0 355.1,285.0 355.9,285.0 356.7,285.0 357.6,285.0 358.4,285.0 359.2,285.0 360.1,285.0 360.9,285.0 361.7,285.0 362.5,285.0 363.3,285.0 364.1,285.0 365.0,285.0 365.8,285.0 366.6,285.0 367.4,285.0 368.3,285.0 369.1,285.0 369.9,285.0 370.7,285.0 371.5,285.0 372.3,285.0 373.1,285.0 373.9,285.0 374.8,285.0 375.6,285.0 376.4,285.0 377.2,285.0 378.0,285.0 378.8,285.0 379.6,285.0 380.4,285.0 381.3,285.0 382.1,285.0 382.9,285.0 383.7,285.0 384.5,285.0 L384.5,285.0 L58.2,285.0 Z" fill="url(#g564)" clip-path="url(#c566)"/>
  <path d="M58.2,342.7 58.2,342.7 88.3,284.2 105.9,284.2 118.4,284.2 128.1,284.2 136.0,284.2 142.7,284.2 148.5,284.2 153.6,284.2 158.2,284.2 162.3,284.2 166.1,284.2 169.6,284.2 172.8,284.2 175.8,284.2 178.6,284.2 181.2,284.1 183.7,284.1 186.0,284.1 188.3,284.1 190.4,284.1 192.4,284.1 194.3,284.1 196.2,284.1 198.0,284.1 199.7,284.1 201.3,284.1 202.9,284.0 204.4,284.0 205.9,284.0 207.3,284.0 208.7,284.0 210.0,284.0 211.3,284.0 212.6,284.0 213.8,283.9 215.0,283.9 216.1,283.9 217.3,283.9 218.4,283.9 219.4,283.9 220.5,283.8 221.5,283.8 222.5,283.8 223.5,283.8 224.4,283.8 225.4,283.8 226.3,283.7 227.2,283.7 228.1,283.7 228.9,283.7 229.8,283.7 230.6,283.6 231.4,283.6 233.0,283.6 234.5,283.5 236.0,283.5 237.4,283.5 238.8,283.4 240.1,283.4 241.4,283.4 242.7,283.3 243.9,283.3 245.1,283.3 246.2,283.3 247.4,283.3 248.5,283.3 249.5,283.3 250.6,283.3 251.6,283.3 252.6,283.3 253.6,283.3 254.5,283.4 255.5,283.4 256.4,283.4 257.3,283.5 258.1,283.5 259.0,283.6 259.8,283.6 260.7,283.7 261.5,283.7 262.7,283.8 263.8,283.9 265.0,283.9 266.1,284.0 267.1,284.0 268.2,284.1 269.2,284.2 270.2,284.2 271.2,284.3 272.1,284.3 273.1,284.3 274.0,284.4 274.9,284.4 275.7,284.4 276.6,284.5 277.5,284.5 278.3,284.5 279.1,284.5 280.1,284.6 281.2,284.6 282.2,284.6 283.2,284.7 284.1,284.7 285.1,284.7 286.0,284.7 286.9,284.7 287.8,284.7 288.7,284.8 289.5,284.8 290.4,284.8 291.2,284.8 292.0,284.8 293.0,284.8 293.9,284.8 294.9,284.8 295.8,284.8 296.7,284.8 297.6,284.9 298.4,284.9 299.3,284.9 300.1,284.9 300.9,284.9 301.7,284.9 302.7,284.9 303.6,284.9 304.5,284.9 305.4,284.9 306.3,284.9 307.1,284.9 308.0,284.9 308.8,284.9 309.6,284.9 310.5,284.9 311.4,284.9 312.3,284.9 313.2,284.9 314.0,284.9 314.8,284.9 315.6,284.9 316.4,284.9 317.3,284.9 318.2,285.0 319.1,285.0 319.9,285.0 320.8,285.0 321.6,285.0 322.5,285.0 323.3,285.0 324.2,285.0 325.1,285.0 325.9,285.0 326.7,285.0 327.6,285.0 328.5,285.0 329.3,285.0 330.1,285.0 331.0,285.0 331.8,285.0 332.6,285.0 333.5,285.0 334.3,285.0 335.1,285.0 335.9,285.0 336.8,285.0 337.6,285.0 338.5,285.0 339.3,285.0 340.1,285.0 341.0,285.0 341.8,285.0 342.6,285.0 343.5,285.0 344.3,285.0 345.2,285.0 346.0,285.0 346.8,285.0 347.7,285.0 348.5,285.0 349.3,285.0 350.1,285.0 351.0,285.0 351.8,285.0 352.6,285.0 353.4,285.0 354.3,285.0 355.1,285.0 355.9,285.0 356.7,285.0 357.6,285.0 358.4,285.0 359.2,285.0 360.1,285.0 360.9,285.0 361.7,285.0 362.5,285.0 363.3,285.0 364.1,285.0 365.0,285.0 365.8,285.0 366.6,285.0 367.4,285.0 368.3,285.0 369.1,285.0 369.9,285.0 370.7,285.0 371.5,285.0 372.3,285.0 373.1,285.0 373.9,285.0 374.8,285.0 375.6,285.0 376.4,285.0 377.2,285.0 378.0,285.0 378.8,285.0 379.6,285.0 380.4,285.0 381.3,285.0 382.1,285.0 382.9,285.0 383.7,285.0 384.5,285.0 L384.5,285.0 L58.2,285.0 Z" fill="url(#g565)" clip-path="url(#c567)"/>
  <defs><clipPath id="pc568"><rect x="55" y="210" width="330" height="150"/></clipPath></defs>
  <polyline points="58.2,342.7 88.3,284.2 105.9,284.2 118.4,284.2 128.1,284.2 136.0,284.2 142.7,284.2 148.5,284.2 153.6,284.2 158.2,284.2 162.3,284.2 166.1,284.2 169.6,284.2 172.8,284.2 175.8,284.2 178.6,284.2 181.2,284.1 183.7,284.1 186.0,284.1 188.3,284.1 190.4,284.1 192.4,284.1 194.3,284.1 196.2,284.1 198.0,284.1 199.7,284.1 201.3,284.1 202.9,284.0 204.4,284.0 205.9,284.0 207.3,284.0 208.7,284.0 210.0,284.0 211.3,284.0 212.6,284.0 213.8,283.9 215.0,283.9 216.1,283.9 217.3,283.9 218.4,283.9 219.4,283.9 220.5,283.8 221.5,283.8 222.5,283.8 223.5,283.8 224.4,283.8 225.4,283.8 226.3,283.7 227.2,283.7 228.1,283.7 228.9,283.7 229.8,283.7 230.6,283.6 231.4,283.6 233.0,283.6 234.5,283.5 236.0,283.5 237.4,283.5 238.8,283.4 240.1,283.4 241.4,283.4 242.7,283.3 243.9,283.3 245.1,283.3 246.2,283.3 247.4,283.3 248.5,283.3 249.5,283.3 250.6,283.3 251.6,283.3 252.6,283.3 253.6,283.3 254.5,283.4 255.5,283.4 256.4,283.4 257.3,283.5 258.1,283.5 259.0,283.6 259.8,283.6 260.7,283.7 261.5,283.7 262.7,283.8 263.8,283.9 265.0,283.9 266.1,284.0 267.1,284.0 268.2,284.1 269.2,284.2 270.2,284.2 271.2,284.3 272.1,284.3 273.1,284.3 274.0,284.4 274.9,284.4 275.7,284.4 276.6,284.5 277.5,284.5 278.3,284.5 279.1,284.5 280.1,284.6 281.2,284.6 282.2,284.6 283.2,284.7 284.1,284.7 285.1,284.7 286.0,284.7 286.9,284.7 287.8,284.7 288.7,284.8 289.5,284.8 290.4,284.8 291.2,284.8 292.0,284.8 293.0,284.8 293.9,284.8 294.9,284.8 295.8,284.8 296.7,284.8 297.6,284.9 298.4,284.9 299.3,284.9 300.1,284.9 300.9,284.9 301.7,284.9 302.7,284.9 303.6,284.9 304.5,284.9 305.4,284.9 306.3,284.9 307.1,284.9 308.0,284.9 308.8,284.9 309.6,284.9 310.5,284.9 311.4,284.9 312.3,284.9 313.2,284.9 314.0,284.9 314.8,284.9 315.6,284.9 316.4,284.9 317.3,284.9 318.2,285.0 319.1,285.0 319.9,285.0 320.8,285.0 321.6,285.0 322.5,285.0 323.3,285.0 324.2,285.0 325.1,285.0 325.9,285.0 326.7,285.0 327.6,285.0 328.5,285.0 329.3,285.0 330.1,285.0 331.0,285.0 331.8,285.0 332.6,285.0 333.5,285.0 334.3,285.0 335.1,285.0 335.9,285.0 336.8,285.0 337.6,285.0 338.5,285.0 339.3,285.0 340.1,285.0 341.0,285.0 341.8,285.0 342.6,285.0 343.5,285.0 344.3,285.0 345.2,285.0 346.0,285.0 346.8,285.0 347.7,285.0 348.5,285.0 349.3,285.0 350.1,285.0 351.0,285.0 351.8,285.0 352.6,285.0 353.4,285.0 354.3,285.0 355.1,285.0 355.9,285.0 356.7,285.0 357.6,285.0 358.4,285.0 359.2,285.0 360.1,285.0 360.9,285.0 361.7,285.0 362.5,285.0 363.3,285.0 364.1,285.0 365.0,285.0 365.8,285.0 366.6,285.0 367.4,285.0 368.3,285.0 369.1,285.0 369.9,285.0 370.7,285.0 371.5,285.0 372.3,285.0 373.1,285.0 373.9,285.0 374.8,285.0 375.6,285.0 376.4,285.0 377.2,285.0 378.0,285.0 378.8,285.0 379.6,285.0 380.4,285.0 381.3,285.0 382.1,285.0 382.9,285.0 383.7,285.0 384.5,285.0" fill="none" stroke="#2ecc71" stroke-width="1.5" stroke-linejoin="round" clip-path="url(#pc568)"/>
  <line x1="445" y1="210" x2="445" y2="360" stroke="#d1d5db"/>
  <line x1="445" y1="285.0" x2="775" y2="285.0" stroke="#d1d5db"/>
  <text x="610" y="388" text-anchor="middle" font-size="9" fill="#6b7280">Samples</text>
  <text x="419" y="285" text-anchor="middle" font-size="9" fill="#6b7280" transform="rotate(-90 419 285)">Impulse response</text>
  <line x1="445.0" y1="210" x2="445.0" y2="360" stroke="#e5e7eb" stroke-width="0.5"/>
  <text x="445.0" y="372" text-anchor="middle" font-size="8" fill="#6b7280">0</text>
  <line x1="561.0" y1="210" x2="561.0" y2="360" stroke="#e5e7eb" stroke-width="0.5"/>
  <text x="561.0" y="372" text-anchor="middle" font-size="8" fill="#6b7280">90</text>
  <line x1="677.0" y1="210" x2="677.0" y2="360" stroke="#e5e7eb" stroke-width="0.5"/>
  <text x="677.0" y="372" text-anchor="middle" font-size="8" fill="#6b7280">180</text>
  <line x1="445" y1="340.1" x2="775" y2="340.1" stroke="#e5e7eb" stroke-width="0.5"/>
  <text x="441" y="343.1" text-anchor="end" font-size="8" fill="#6b7280">-0.09</text>
  <text x="441" y="288.0" text-anchor="end" font-size="8" fill="#6b7280">0</text>
  <line x1="445" y1="229.9" x2="775" y2="229.9" stroke="#e5e7eb" stroke-width="0.5"/>
  <text x="441" y="232.9" text-anchor="end" font-size="8" fill="#6b7280">0.09</text>
  <defs><linearGradient id="g569" x1="0" y1="210" x2="0" y2="285.0" gradientUnits="userSpaceOnUse">
    <stop offset="0%" stop-color="#f39c12" stop-opacity="0.15"/>
    <stop offset="100%" stop-color="#f39c12" stop-opacity="0.02"/>
  </linearGradient></defs>
  <defs><linearGradient id="g570" x1="0" y1="360" x2="0" y2="285.0" gradientUnits="userSpaceOnUse">
    <stop offset="0%" stop-color="#f39c12" stop-opacity="0.15"/>
    <stop offset="100%" stop-color="#f39c12" stop-opacity="0.02"/>
  </linearGradient></defs>
  <defs><clipPath id="c571"><rect x="445" y="210" width="330" height="75.0"/></clipPath></defs>
  <defs><clipPath id="c572"><rect x="445" y="285.0" width="330" height="75.0"/></clipPath></defs>
  <path d="M445.0,244.4 445.0,244.4 446.3,210.0 447.6,222.1 448.9,233.8 450.2,245.0 451.4,255.4 452.7,265.0 454.0,273.7 455.3,281.4 456.6,288.2 457.9,294.1 459.2,298.9 460.5,302.9 461.8,306.0 463.0,308.3 464.3,309.9 465.6,310.8 466.9,311.0 468.2,310.8 469.5,310.1 470.8,309.0 472.1,307.6 473.4,305.9 474.6,304.1 475.9,302.2 477.2,300.2 478.5,298.1 479.8,296.1 481.1,294.2 482.4,292.3 483.7,290.6 485.0,288.9 486.3,287.4 487.5,286.1 488.8,284.9 490.1,283.9 491.4,283.0 492.7,282.3 494.0,281.7 495.3,281.3 496.6,281.0 497.9,280.8 499.1,280.7 500.4,280.7 501.7,280.8 503.0,281.0 504.3,281.2 505.6,281.4 506.9,281.7 508.2,282.0 509.5,282.4 510.7,282.7 512.0,283.0 513.3,283.4 514.6,283.7 515.9,284.0 517.2,284.2 518.5,284.5 519.8,284.7 521.1,284.9 522.3,285.1 523.6,285.3 524.9,285.4 526.2,285.5 527.5,285.6 528.8,285.6 530.1,285.7 531.4,285.7 532.7,285.7 533.9,285.7 535.2,285.7 536.5,285.6 537.8,285.6 539.1,285.6 540.4,285.5 541.7,285.5 543.0,285.4 544.3,285.3 545.5,285.3 546.8,285.2 548.1,285.2 549.4,285.1 550.7,285.1 552.0,285.1 553.3,285.0 554.6,285.0 555.9,285.0 557.1,284.9 558.4,284.9 559.7,284.9 561.0,284.9 562.3,284.9 563.6,284.9 564.9,284.9 566.2,284.9 567.5,284.9 568.8,284.9 570.0,284.9 571.3,284.9 572.6,284.9 573.9,284.9 575.2,284.9 576.5,284.9 577.8,284.9 579.1,285.0 580.4,285.0 581.6,285.0 582.9,285.0 584.2,285.0 585.5,285.0 586.8,285.0 588.1,285.0 589.4,285.0 590.7,285.0 592.0,285.0 593.2,285.0 594.5,285.0 595.8,285.0 597.1,285.0 598.4,285.0 599.7,285.0 601.0,285.0 602.3,285.0 603.6,285.0 604.8,285.0 606.1,285.0 607.4,285.0 608.7,285.0 610.0,285.0 611.3,285.0 612.6,285.0 613.9,285.0 615.2,285.0 616.4,285.0 617.7,285.0 619.0,285.0 620.3,285.0 621.6,285.0 622.9,285.0 624.2,285.0 625.5,285.0 626.8,285.0 628.0,285.0 629.3,285.0 630.6,285.0 631.9,285.0 633.2,285.0 634.5,285.0 635.8,285.0 637.1,285.0 638.4,285.0 639.6,285.0 640.9,285.0 642.2,285.0 643.5,285.0 644.8,285.0 646.1,285.0 647.4,285.0 648.7,285.0 650.0,285.0 651.3,285.0 652.5,285.0 653.8,285.0 655.1,285.0 656.4,285.0 657.7,285.0 659.0,285.0 660.3,285.0 661.6,285.0 662.9,285.0 664.1,285.0 665.4,285.0 666.7,285.0 668.0,285.0 669.3,285.0 670.6,285.0 671.9,285.0 673.2,285.0 674.5,285.0 675.7,285.0 677.0,285.0 678.3,285.0 679.6,285.0 680.9,285.0 682.2,285.0 683.5,285.0 684.8,285.0 686.1,285.0 687.3,285.0 688.6,285.0 689.9,285.0 691.2,285.0 692.5,285.0 693.8,285.0 695.1,285.0 696.4,285.0 697.7,285.0 698.9,285.0 700.2,285.0 701.5,285.0 702.8,285.0 704.1,285.0 705.4,285.0 706.7,285.0 708.0,285.0 709.3,285.0 710.5,285.0 711.8,285.0 713.1,285.0 714.4,285.0 715.7,285.0 717.0,285.0 718.3,285.0 719.6,285.0 720.9,285.0 722.1,285.0 723.4,285.0 724.7,285.0 726.0,285.0 727.3,285.0 728.6,285.0 729.9,285.0 731.2,285.0 732.5,285.0 733.8,285.0 735.0,285.0 736.3,285.0 737.6,285.0 738.9,285.0 740.2,285.0 741.5,285.0 742.8,285.0 744.1,285.0 745.4,285.0 746.6,285.0 747.9,285.0 749.2,285.0 750.5,285.0 751.8,285.0 753.1,285.0 754.4,285.0 755.7,285.0 757.0,285.0 758.2,285.0 759.5,285.0 760.8,285.0 762.1,285.0 763.4,285.0 764.7,285.0 766.0,285.0 767.3,285.0 768.6,285.0 769.8,285.0 771.1,285.0 772.4,285.0 773.7,285.0 L773.7,285.0 L445.0,285.0 Z" fill="url(#g569)" clip-path="url(#c571)"/>
  <path d="M445.0,244.4 445.0,244.4 446.3,210.0 447.6,222.1 448.9,233.8 450.2,245.0 451.4,255.4 452.7,265.0 454.0,273.7 455.3,281.4 456.6,288.2 457.9,294.1 459.2,298.9 460.5,302.9 461.8,306.0 463.0,308.3 464.3,309.9 465.6,310.8 466.9,311.0 468.2,310.8 469.5,310.1 470.8,309.0 472.1,307.6 473.4,305.9 474.6,304.1 475.9,302.2 477.2,300.2 478.5,298.1 479.8,296.1 481.1,294.2 482.4,292.3 483.7,290.6 485.0,288.9 486.3,287.4 487.5,286.1 488.8,284.9 490.1,283.9 491.4,283.0 492.7,282.3 494.0,281.7 495.3,281.3 496.6,281.0 497.9,280.8 499.1,280.7 500.4,280.7 501.7,280.8 503.0,281.0 504.3,281.2 505.6,281.4 506.9,281.7 508.2,282.0 509.5,282.4 510.7,282.7 512.0,283.0 513.3,283.4 514.6,283.7 515.9,284.0 517.2,284.2 518.5,284.5 519.8,284.7 521.1,284.9 522.3,285.1 523.6,285.3 524.9,285.4 526.2,285.5 527.5,285.6 528.8,285.6 530.1,285.7 531.4,285.7 532.7,285.7 533.9,285.7 535.2,285.7 536.5,285.6 537.8,285.6 539.1,285.6 540.4,285.5 541.7,285.5 543.0,285.4 544.3,285.3 545.5,285.3 546.8,285.2 548.1,285.2 549.4,285.1 550.7,285.1 552.0,285.1 553.3,285.0 554.6,285.0 555.9,285.0 557.1,284.9 558.4,284.9 559.7,284.9 561.0,284.9 562.3,284.9 563.6,284.9 564.9,284.9 566.2,284.9 567.5,284.9 568.8,284.9 570.0,284.9 571.3,284.9 572.6,284.9 573.9,284.9 575.2,284.9 576.5,284.9 577.8,284.9 579.1,285.0 580.4,285.0 581.6,285.0 582.9,285.0 584.2,285.0 585.5,285.0 586.8,285.0 588.1,285.0 589.4,285.0 590.7,285.0 592.0,285.0 593.2,285.0 594.5,285.0 595.8,285.0 597.1,285.0 598.4,285.0 599.7,285.0 601.0,285.0 602.3,285.0 603.6,285.0 604.8,285.0 606.1,285.0 607.4,285.0 608.7,285.0 610.0,285.0 611.3,285.0 612.6,285.0 613.9,285.0 615.2,285.0 616.4,285.0 617.7,285.0 619.0,285.0 620.3,285.0 621.6,285.0 622.9,285.0 624.2,285.0 625.5,285.0 626.8,285.0 628.0,285.0 629.3,285.0 630.6,285.0 631.9,285.0 633.2,285.0 634.5,285.0 635.8,285.0 637.1,285.0 638.4,285.0 639.6,285.0 640.9,285.0 642.2,285.0 643.5,285.0 644.8,285.0 646.1,285.0 647.4,285.0 648.7,285.0 650.0,285.0 651.3,285.0 652.5,285.0 653.8,285.0 655.1,285.0 656.4,285.0 657.7,285.0 659.0,285.0 660.3,285.0 661.6,285.0 662.9,285.0 664.1,285.0 665.4,285.0 666.7,285.0 668.0,285.0 669.3,285.0 670.6,285.0 671.9,285.0 673.2,285.0 674.5,285.0 675.7,285.0 677.0,285.0 678.3,285.0 679.6,285.0 680.9,285.0 682.2,285.0 683.5,285.0 684.8,285.0 686.1,285.0 687.3,285.0 688.6,285.0 689.9,285.0 691.2,285.0 692.5,285.0 693.8,285.0 695.1,285.0 696.4,285.0 697.7,285.0 698.9,285.0 700.2,285.0 701.5,285.0 702.8,285.0 704.1,285.0 705.4,285.0 706.7,285.0 708.0,285.0 709.3,285.0 710.5,285.0 711.8,285.0 713.1,285.0 714.4,285.0 715.7,285.0 717.0,285.0 718.3,285.0 719.6,285.0 720.9,285.0 722.1,285.0 723.4,285.0 724.7,285.0 726.0,285.0 727.3,285.0 728.6,285.0 729.9,285.0 731.2,285.0 732.5,285.0 733.8,285.0 735.0,285.0 736.3,285.0 737.6,285.0 738.9,285.0 740.2,285.0 741.5,285.0 742.8,285.0 744.1,285.0 745.4,285.0 746.6,285.0 747.9,285.0 749.2,285.0 750.5,285.0 751.8,285.0 753.1,285.0 754.4,285.0 755.7,285.0 757.0,285.0 758.2,285.0 759.5,285.0 760.8,285.0 762.1,285.0 763.4,285.0 764.7,285.0 766.0,285.0 767.3,285.0 768.6,285.0 769.8,285.0 771.1,285.0 772.4,285.0 773.7,285.0 L773.7,285.0 L445.0,285.0 Z" fill="url(#g570)" clip-path="url(#c572)"/>
  <defs><clipPath id="pc573"><rect x="445" y="210" width="330" height="150"/></clipPath></defs>
  <polyline points="445.0,244.4 446.3,210.0 447.6,222.1 448.9,233.8 450.2,245.0 451.4,255.4 452.7,265.0 454.0,273.7 455.3,281.4 456.6,288.2 457.9,294.1 459.2,298.9 460.5,302.9 461.8,306.0 463.0,308.3 464.3,309.9 465.6,310.8 466.9,311.0 468.2,310.8 469.5,310.1 470.8,309.0 472.1,307.6 473.4,305.9 474.6,304.1 475.9,302.2 477.2,300.2 478.5,298.1 479.8,296.1 481.1,294.2 482.4,292.3 483.7,290.6 485.0,288.9 486.3,287.4 487.5,286.1 488.8,284.9 490.1,283.9 491.4,283.0 492.7,282.3 494.0,281.7 495.3,281.3 496.6,281.0 497.9,280.8 499.1,280.7 500.4,280.7 501.7,280.8 503.0,281.0 504.3,281.2 505.6,281.4 506.9,281.7 508.2,282.0 509.5,282.4 510.7,282.7 512.0,283.0 513.3,283.4 514.6,283.7 515.9,284.0 517.2,284.2 518.5,284.5 519.8,284.7 521.1,284.9 522.3,285.1 523.6,285.3 524.9,285.4 526.2,285.5 527.5,285.6 528.8,285.6 530.1,285.7 531.4,285.7 532.7,285.7 533.9,285.7 535.2,285.7 536.5,285.6 537.8,285.6 539.1,285.6 540.4,285.5 541.7,285.5 543.0,285.4 544.3,285.3 545.5,285.3 546.8,285.2 548.1,285.2 549.4,285.1 550.7,285.1 552.0,285.1 553.3,285.0 554.6,285.0 555.9,285.0 557.1,284.9 558.4,284.9 559.7,284.9 561.0,284.9 562.3,284.9 563.6,284.9 564.9,284.9 566.2,284.9 567.5,284.9 568.8,284.9 570.0,284.9 571.3,284.9 572.6,284.9 573.9,284.9 575.2,284.9 576.5,284.9 577.8,284.9 579.1,285.0 580.4,285.0 581.6,285.0 582.9,285.0 584.2,285.0 585.5,285.0 586.8,285.0 588.1,285.0 589.4,285.0 590.7,285.0 592.0,285.0 593.2,285.0 594.5,285.0 595.8,285.0 597.1,285.0 598.4,285.0 599.7,285.0 601.0,285.0 602.3,285.0 603.6,285.0 604.8,285.0 606.1,285.0 607.4,285.0 608.7,285.0 610.0,285.0 611.3,285.0 612.6,285.0 613.9,285.0 615.2,285.0 616.4,285.0 617.7,285.0 619.0,285.0 620.3,285.0 621.6,285.0 622.9,285.0 624.2,285.0 625.5,285.0 626.8,285.0 628.0,285.0 629.3,285.0 630.6,285.0 631.9,285.0 633.2,285.0 634.5,285.0 635.8,285.0 637.1,285.0 638.4,285.0 639.6,285.0 640.9,285.0 642.2,285.0 643.5,285.0 644.8,285.0 646.1,285.0 647.4,285.0 648.7,285.0 650.0,285.0 651.3,285.0 652.5,285.0 653.8,285.0 655.1,285.0 656.4,285.0 657.7,285.0 659.0,285.0 660.3,285.0 661.6,285.0 662.9,285.0 664.1,285.0 665.4,285.0 666.7,285.0 668.0,285.0 669.3,285.0 670.6,285.0 671.9,285.0 673.2,285.0 674.5,285.0 675.7,285.0 677.0,285.0 678.3,285.0 679.6,285.0 680.9,285.0 682.2,285.0 683.5,285.0 684.8,285.0 686.1,285.0 687.3,285.0 688.6,285.0 689.9,285.0 691.2,285.0 692.5,285.0 693.8,285.0 695.1,285.0 696.4,285.0 697.7,285.0 698.9,285.0 700.2,285.0 701.5,285.0 702.8,285.0 704.1,285.0 705.4,285.0 706.7,285.0 708.0,285.0 709.3,285.0 710.5,285.0 711.8,285.0 713.1,285.0 714.4,285.0 715.7,285.0 717.0,285.0 718.3,285.0 719.6,285.0 720.9,285.0 722.1,285.0 723.4,285.0 724.7,285.0 726.0,285.0 727.3,285.0 728.6,285.0 729.9,285.0 731.2,285.0 732.5,285.0 733.8,285.0 735.0,285.0 736.3,285.0 737.6,285.0 738.9,285.0 740.2,285.0 741.5,285.0 742.8,285.0 744.1,285.0 745.4,285.0 746.6,285.0 747.9,285.0 749.2,285.0 750.5,285.0 751.8,285.0 753.1,285.0 754.4,285.0 755.7,285.0 757.0,285.0 758.2,285.0 759.5,285.0 760.8,285.0 762.1,285.0 763.4,285.0 764.7,285.0 766.0,285.0 767.3,285.0 768.6,285.0 769.8,285.0 771.1,285.0 772.4,285.0 773.7,285.0" fill="none" stroke="#f39c12" stroke-width="1.3" stroke-linejoin="round" clip-path="url(#pc573)"/>
</svg>
