<svg xmlns="http://www.w3.org/2000/svg" viewBox="0 0 820 378" style="font-family:system-ui,-apple-system,sans-serif">
  <text x="800" y="11" text-anchor="end" font-size="11" font-weight="600" fill="#6b7280">SVF lowpass, fc=1kHz, Q=1</text>
  <line x1="34" y1="16" x2="34" y2="171" stroke="#d1d5db"/>
  <line x1="34" y1="47.0" x2="399" y2="47.0" stroke="#d1d5db"/>
  <text x="216.5" y="197" text-anchor="middle" font-size="9" fill="#6b7280">Hz</text>
  <text x="12" y="93.5" text-anchor="middle" font-size="9" fill="#6b7280" transform="rotate(-90 12 93.5)">dB</text>
  <line x1="67.3" y1="16" x2="67.3" y2="171" stroke="#e5e7eb" stroke-width="0.5"/>
  <line x1="86.8" y1="16" x2="86.8" y2="171" stroke="#e5e7eb" stroke-width="0.5"/>
  <line x1="100.6" y1="16" x2="100.6" y2="171" stroke="#e5e7eb" stroke-width="0.5"/>
  <line x1="111.3" y1="16" x2="111.3" y2="171" stroke="#e5e7eb" stroke-width="0.5"/>
  <line x1="120.0" y1="16" x2="120.0" y2="171" stroke="#e5e7eb" stroke-width="0.5"/>
  <line x1="127.4" y1="16" x2="127.4" y2="171" stroke="#e5e7eb" stroke-width="0.5"/>
  <line x1="133.9" y1="16" x2="133.9" y2="171" stroke="#e5e7eb" stroke-width="0.5"/>
  <line x1="139.5" y1="16" x2="139.5" y2="171" stroke="#e5e7eb" stroke-width="0.5"/>
  <line x1="177.9" y1="16" x2="177.9" y2="171" stroke="#e5e7eb" stroke-width="0.5"/>
  <line x1="197.3" y1="16" x2="197.3" y2="171" stroke="#e5e7eb" stroke-width="0.5"/>
  <line x1="211.1" y1="16" x2="211.1" y2="171" stroke="#e5e7eb" stroke-width="0.5"/>
  <line x1="221.9" y1="16" x2="221.9" y2="171" stroke="#e5e7eb" stroke-width="0.5"/>
  <line x1="230.6" y1="16" x2="230.6" y2="171" stroke="#e5e7eb" stroke-width="0.5"/>
  <line x1="238.0" y1="16" x2="238.0" y2="171" stroke="#e5e7eb" stroke-width="0.5"/>
  <line x1="244.4" y1="16" x2="244.4" y2="171" stroke="#e5e7eb" stroke-width="0.5"/>
  <line x1="250.1" y1="16" x2="250.1" y2="171" stroke="#e5e7eb" stroke-width="0.5"/>
  <line x1="288.4" y1="16" x2="288.4" y2="171" stroke="#e5e7eb" stroke-width="0.5"/>
  <line x1="307.9" y1="16" x2="307.9" y2="171" stroke="#e5e7eb" stroke-width="0.5"/>
  <line x1="321.7" y1="16" x2="321.7" y2="171" stroke="#e5e7eb" stroke-width="0.5"/>
  <line x1="332.4" y1="16" x2="332.4" y2="171" stroke="#e5e7eb" stroke-width="0.5"/>
  <line x1="341.2" y1="16" x2="341.2" y2="171" stroke="#e5e7eb" stroke-width="0.5"/>
  <line x1="348.6" y1="16" x2="348.6" y2="171" stroke="#e5e7eb" stroke-width="0.5"/>
  <line x1="355.0" y1="16" x2="355.0" y2="171" stroke="#e5e7eb" stroke-width="0.5"/>
  <line x1="360.7" y1="16" x2="360.7" y2="171" stroke="#e5e7eb" stroke-width="0.5"/>
  <line x1="399.0" y1="16" x2="399.0" y2="171" stroke="#e5e7eb" stroke-width="0.5"/>
  <line x1="144.6" y1="16" x2="144.6" y2="171" stroke="#e5e7eb" stroke-width="0.5"/>
  <text x="144.6" y="183" text-anchor="middle" font-size="8" fill="#6b7280">100</text>
  <line x1="255.1" y1="16" x2="255.1" y2="171" stroke="#e5e7eb" stroke-width="0.5"/>
  <text x="255.1" y="183" text-anchor="middle" font-size="8" fill="#6b7280">1k</text>
  <line x1="365.7" y1="16" x2="365.7" y2="171" stroke="#e5e7eb" stroke-width="0.5"/>
  <text x="365.7" y="183" text-anchor="middle" font-size="8" fill="#6b7280">10k</text>
  <line x1="34" y1="31.5" x2="399" y2="31.5" stroke="#e5e7eb" stroke-width="0.5"/>
  <line x1="34" y1="62.5" x2="399" y2="62.5" stroke="#e5e7eb" stroke-width="0.5"/>
  <line x1="34" y1="16.0" x2="399" y2="16.0" stroke="#e5e7eb" stroke-width="0.5"/>
  <text x="30" y="19.0" text-anchor="end" font-size="8" fill="#6b7280">+20</text>
  <text x="30" y="50.0" text-anchor="end" font-size="8" fill="#6b7280">0</text>
  <line x1="34" y1="78.0" x2="399" y2="78.0" stroke="#e5e7eb" stroke-width="0.5"/>
  <text x="30" y="81.0" text-anchor="end" font-size="8" fill="#6b7280">-20</text>
  <line x1="34" y1="109.0" x2="399" y2="109.0" stroke="#e5e7eb" stroke-width="0.5"/>
  <text x="30" y="112.0" text-anchor="end" font-size="8" fill="#6b7280">-40</text>
  <line x1="34" y1="140.0" x2="399" y2="140.0" stroke="#e5e7eb" stroke-width="0.5"/>
  <text x="30" y="143.0" text-anchor="end" font-size="8" fill="#6b7280">-60</text>
  <line x1="34" y1="171.0" x2="399" y2="171.0" stroke="#e5e7eb" stroke-width="0.5"/>
  <text x="30" y="174.0" text-anchor="end" font-size="8" fill="#6b7280">-80</text>
  <line x1="255.1" y1="16" x2="255.1" y2="171" stroke="#d1d5db" stroke-width="1" stroke-dasharray="4 3"/>
  <defs><linearGradient id="g532" x1="0" y1="16" x2="0" y2="171" gradientUnits="userSpaceOnUse">
    <stop offset="0%" stop-color="#4a90d9" stop-opacity="0.15"/>
    <stop offset="100%" stop-color="#4a90d9" stop-opacity="0.02"/>
  </linearGradient></defs>
  <path d="M37.5,47.0 37.5,47.0 70.8,47.0 90.3,47.0 104.1,47.0 114.8,47.0 123.6,47.0 131.0,47.0 137.4,47.0 143.1,46.9 148.1,46.9 152.7,46.9 156.9,46.9 160.7,46.9 164.3,46.8 167.6,46.8 170.7,46.8 173.6,46.8 176.3,46.8 178.9,46.7 181.4,46.7 183.7,46.7 186.0,46.6 188.1,46.6 190.2,46.6 192.1,46.5 194.0,46.5 195.8,46.5 197.6,46.4 199.2,46.4 200.9,46.3 202.4,46.3 204.0,46.3 205.5,46.2 206.9,46.2 208.3,46.1 209.6,46.1 210.9,46.0 212.2,46.0 213.5,45.9 214.7,45.9 215.9,45.9 217.0,45.8 218.2,45.8 219.3,45.7 220.3,45.7 221.4,45.6 222.4,45.6 223.4,45.5 224.4,45.5 225.4,45.5 226.4,45.4 227.3,45.4 228.2,45.3 229.1,45.3 230.0,45.3 230.8,45.2 231.7,45.2 232.5,45.2 233.4,45.1 234.2,45.1 235.7,45.1 237.3,45.1 238.7,45.1 240.2,45.1 241.6,45.1 242.9,45.2 244.2,45.2 245.5,45.3 246.8,45.4 248.0,45.6 249.2,45.7 250.3,45.9 251.4,46.1 252.6,46.3 253.6,46.6 254.7,46.9 255.7,47.2 256.7,47.5 257.7,47.8 258.7,48.1 259.6,48.5 260.6,48.9 261.5,49.2 262.4,49.6 263.3,50.0 264.1,50.4 265.0,50.8 265.8,51.2 266.6,51.7 267.4,52.1 268.6,52.7 269.8,53.3 270.9,54.0 272.0,54.6 273.1,55.2 274.2,55.8 275.2,56.4 276.2,57.0 277.2,57.6 278.2,58.2 279.1,58.7 280.0,59.3 281.0,59.9 281.9,60.4 282.7,60.9 283.6,61.5 284.5,62.0 285.3,62.5 286.1,63.0 286.9,63.5 288.0,64.1 289.0,64.8 290.0,65.4 291.0,66.0 292.0,66.6 292.9,67.2 293.9,67.7 294.8,68.3 295.7,68.8 296.6,69.4 297.4,69.9 298.3,70.4 299.1,70.9 299.9,71.4 300.7,71.9 301.7,72.5 302.7,73.1 303.6,73.7 304.6,74.3 305.5,74.8 306.4,75.4 307.3,75.9 308.1,76.4 309.0,76.9 309.8,77.4 310.6,77.9 311.4,78.4 312.4,79.0 313.3,79.6 314.2,80.1 315.1,80.7 316.0,81.2 316.9,81.7 317.7,82.2 318.6,82.7 319.4,83.2 320.2,83.7 321.1,84.3 322.0,84.8 322.9,85.4 323.8,85.9 324.7,86.4 325.5,86.9 326.3,87.5 327.1,88.0 327.9,88.4 328.8,89.0 329.7,89.5 330.6,90.1 331.4,90.6 332.3,91.1 333.1,91.6 333.9,92.1 334.8,92.7 335.7,93.3 336.5,93.8 337.4,94.3 338.2,94.9 339.0,95.4 339.8,95.9 340.7,96.5 341.6,97.0 342.4,97.6 343.3,98.1 344.1,98.6 344.9,99.2 345.8,99.7 346.6,100.3 347.5,100.8 348.3,101.4 349.1,101.9 350.0,102.5 350.8,103.1 351.7,103.7 352.5,104.3 353.3,104.8 354.1,105.4 355.0,106.0 355.8,106.6 356.6,107.2 357.5,107.8 358.3,108.4 359.1,109.0 360.0,109.6 360.8,110.2 361.6,110.9 362.5,111.5 363.3,112.2 364.1,112.8 364.9,113.5 365.8,114.1 366.6,114.8 367.4,115.5 368.2,116.2 369.1,116.9 369.9,117.6 370.7,118.3 371.6,119.1 372.4,119.8 373.2,120.6 374.0,121.4 374.8,122.2 375.6,123.0 376.5,123.8 377.3,124.7 378.1,125.5 378.9,126.4 379.7,127.3 380.5,128.3 381.4,129.2 382.2,130.2 383.0,131.3 383.8,132.3 384.6,133.4 385.5,134.6 386.3,135.8 387.1,137.0 387.9,138.3 388.7,139.7 389.5,141.2 390.3,142.7 391.2,144.4 392.0,146.1 392.8,147.9 393.6,149.9 394.4,152.0 395.2,154.4 396.0,157.0 396.8,159.9 397.6,163.1 398.5,166.9 L398.5,171.0 L37.5,171.0 Z" fill="url(#g532)"/>
  <defs><clipPath id="pc533"><rect x="34" y="16" width="365" height="155"/></clipPath></defs>
  <polyline points="37.5,47.0 70.8,47.0 90.3,47.0 104.1,47.0 114.8,47.0 123.6,47.0 131.0,47.0 137.4,47.0 143.1,46.9 148.1,46.9 152.7,46.9 156.9,46.9 160.7,46.9 164.3,46.8 167.6,46.8 170.7,46.8 173.6,46.8 176.3,46.8 178.9,46.7 181.4,46.7 183.7,46.7 186.0,46.6 188.1,46.6 190.2,46.6 192.1,46.5 194.0,46.5 195.8,46.5 197.6,46.4 199.2,46.4 200.9,46.3 202.4,46.3 204.0,46.3 205.5,46.2 206.9,46.2 208.3,46.1 209.6,46.1 210.9,46.0 212.2,46.0 213.5,45.9 214.7,45.9 215.9,45.9 217.0,45.8 218.2,45.8 219.3,45.7 220.3,45.7 221.4,45.6 222.4,45.6 223.4,45.5 224.4,45.5 225.4,45.5 226.4,45.4 227.3,45.4 228.2,45.3 229.1,45.3 230.0,45.3 230.8,45.2 231.7,45.2 232.5,45.2 233.4,45.1 234.2,45.1 235.7,45.1 237.3,45.1 238.7,45.1 240.2,45.1 241.6,45.1 242.9,45.2 244.2,45.2 245.5,45.3 246.8,45.4 248.0,45.6 249.2,45.7 250.3,45.9 251.4,46.1 252.6,46.3 253.6,46.6 254.7,46.9 255.7,47.2 256.7,47.5 257.7,47.8 258.7,48.1 259.6,48.5 260.6,48.9 261.5,49.2 262.4,49.6 263.3,50.0 264.1,50.4 265.0,50.8 265.8,51.2 266.6,51.7 267.4,52.1 268.6,52.7 269.8,53.3 270.9,54.0 272.0,54.6 273.1,55.2 274.2,55.8 275.2,56.4 276.2,57.0 277.2,57.6 278.2,58.2 279.1,58.7 280.0,59.3 281.0,59.9 281.9,60.4 282.7,60.9 283.6,61.5 284.5,62.0 285.3,62.5 286.1,63.0 286.9,63.5 288.0,64.1 289.0,64.8 290.0,65.4 291.0,66.0 292.0,66.6 292.9,67.2 293.9,67.7 294.8,68.3 295.7,68.8 296.6,69.4 297.4,69.9 298.3,70.4 299.1,70.9 299.9,71.4 300.7,71.9 301.7,72.5 302.7,73.1 303.6,73.7 304.6,74.3 305.5,74.8 306.4,75.4 307.3,75.9 308.1,76.4 309.0,76.9 309.8,77.4 310.6,77.9 311.4,78.4 312.4,79.0 313.3,79.6 314.2,80.1 315.1,80.7 316.0,81.2 316.9,81.7 317.7,82.2 318.6,82.7 319.4,83.2 320.2,83.7 321.1,84.3 322.0,84.8 322.9,85.4 323.8,85.9 324.7,86.4 325.5,86.9 326.3,87.5 327.1,88.0 327.9,88.4 328.8,89.0 329.7,89.5 330.6,90.1 331.4,90.6 332.3,91.1 333.1,91.6 333.9,92.1 334.8,92.7 335.7,93.3 336.5,93.8 337.4,94.3 338.2,94.9 339.0,95.4 339.8,95.9 340.7,96.5 341.6,97.0 342.4,97.6 343.3,98.1 344.1,98.6 344.9,99.2 345.8,99.7 346.6,100.3 347.5,100.8 348.3,101.4 349.1,101.9 350.0,102.5 350.8,103.1 351.7,103.7 352.5,104.3 353.3,104.8 354.1,105.4 355.0,106.0 355.8,106.6 356.6,107.2 357.5,107.8 358.3,108.4 359.1,109.0 360.0,109.6 360.8,110.2 361.6,110.9 362.5,111.5 363.3,112.2 364.1,112.8 364.9,113.5 365.8,114.1 366.6,114.8 367.4,115.5 368.2,116.2 369.1,116.9 369.9,117.6 370.7,118.3 371.6,119.1 372.4,119.8 373.2,120.6 374.0,121.4 374.8,122.2 375.6,123.0 376.5,123.8 377.3,124.7 378.1,125.5 378.9,126.4 379.7,127.3 380.5,128.3 381.4,129.2 382.2,130.2 383.0,131.3 383.8,132.3 384.6,133.4 385.5,134.6 386.3,135.8 387.1,137.0 387.9,138.3 388.7,139.7 389.5,141.2 390.3,142.7 391.2,144.4 392.0,146.1 392.8,147.9 393.6,149.9 394.4,152.0 395.2,154.4 396.0,157.0 396.8,159.9 397.6,163.1 398.5,166.9" fill="none" stroke="#4a90d9" stroke-width="1.5" stroke-linejoin="round" clip-path="url(#pc533)"/>
  <line x1="435" y1="16" x2="435" y2="171" stroke="#d1d5db"/>
  <line x1="435" y1="93.5" x2="800" y2="93.5" stroke="#d1d5db"/>
  <text x="617.5" y="197" text-anchor="middle" font-size="9" fill="#6b7280">Hz</text>
  <text x="413" y="93.5" text-anchor="middle" font-size="9" fill="#6b7280" transform="rotate(-90 413 93.5)">Phase (deg)</text>
  <line x1="468.3" y1="16" x2="468.3" y2="171" stroke="#e5e7eb" stroke-width="0.5"/>
  <line x1="487.8" y1="16" x2="487.8" y2="171" stroke="#e5e7eb" stroke-width="0.5"/>
  <line x1="501.6" y1="16" x2="501.6" y2="171" stroke="#e5e7eb" stroke-width="0.5"/>
  <line x1="512.3" y1="16" x2="512.3" y2="171" stroke="#e5e7eb" stroke-width="0.5"/>
  <line x1="521.0" y1="16" x2="521.0" y2="171" stroke="#e5e7eb" stroke-width="0.5"/>
  <line x1="528.4" y1="16" x2="528.4" y2="171" stroke="#e5e7eb" stroke-width="0.5"/>
  <line x1="534.9" y1="16" x2="534.9" y2="171" stroke="#e5e7eb" stroke-width="0.5"/>
  <line x1="540.5" y1="16" x2="540.5" y2="171" stroke="#e5e7eb" stroke-width="0.5"/>
  <line x1="578.9" y1="16" x2="578.9" y2="171" stroke="#e5e7eb" stroke-width="0.5"/>
  <line x1="598.3" y1="16" x2="598.3" y2="171" stroke="#e5e7eb" stroke-width="0.5"/>
  <line x1="612.1" y1="16" x2="612.1" y2="171" stroke="#e5e7eb" stroke-width="0.5"/>
  <line x1="622.9" y1="16" x2="622.9" y2="171" stroke="#e5e7eb" stroke-width="0.5"/>
  <line x1="631.6" y1="16" x2="631.6" y2="171" stroke="#e5e7eb" stroke-width="0.5"/>
  <line x1="639.0" y1="16" x2="639.0" y2="171" stroke="#e5e7eb" stroke-width="0.5"/>
  <line x1="645.4" y1="16" x2="645.4" y2="171" stroke="#e5e7eb" stroke-width="0.5"/>
  <line x1="651.1" y1="16" x2="651.1" y2="171" stroke="#e5e7eb" stroke-width="0.5"/>
  <line x1="689.4" y1="16" x2="689.4" y2="171" stroke="#e5e7eb" stroke-width="0.5"/>
  <line x1="708.9" y1="16" x2="708.9" y2="171" stroke="#e5e7eb" stroke-width="0.5"/>
  <line x1="722.7" y1="16" x2="722.7" y2="171" stroke="#e5e7eb" stroke-width="0.5"/>
  <line x1="733.4" y1="16" x2="733.4" y2="171" stroke="#e5e7eb" stroke-width="0.5"/>
  <line x1="742.2" y1="16" x2="742.2" y2="171" stroke="#e5e7eb" stroke-width="0.5"/>
  <line x1="749.6" y1="16" x2="749.6" y2="171" stroke="#e5e7eb" stroke-width="0.5"/>
  <line x1="756.0" y1="16" x2="756.0" y2="171" stroke="#e5e7eb" stroke-width="0.5"/>
  <line x1="761.7" y1="16" x2="761.7" y2="171" stroke="#e5e7eb" stroke-width="0.5"/>
  <line x1="800.0" y1="16" x2="800.0" y2="171" stroke="#e5e7eb" stroke-width="0.5"/>
  <line x1="545.6" y1="16" x2="545.6" y2="171" stroke="#e5e7eb" stroke-width="0.5"/>
  <text x="545.6" y="183" text-anchor="middle" font-size="8" fill="#6b7280">100</text>
  <line x1="656.1" y1="16" x2="656.1" y2="171" stroke="#e5e7eb" stroke-width="0.5"/>
  <text x="656.1" y="183" text-anchor="middle" font-size="8" fill="#6b7280">1k</text>
  <line x1="766.7" y1="16" x2="766.7" y2="171" stroke="#e5e7eb" stroke-width="0.5"/>
  <text x="766.7" y="183" text-anchor="middle" font-size="8" fill="#6b7280">10k</text>
  <line x1="435" y1="58.6" x2="800" y2="58.6" stroke="#e5e7eb" stroke-width="0.5"/>
  <line x1="435" y1="128.4" x2="800" y2="128.4" stroke="#e5e7eb" stroke-width="0.5"/>
  <line x1="435" y1="23.8" x2="800" y2="23.8" stroke="#e5e7eb" stroke-width="0.5"/>
  <text x="431" y="26.8" text-anchor="end" font-size="8" fill="#6b7280">180</text>
  <text x="431" y="96.5" text-anchor="end" font-size="8" fill="#6b7280">0</text>
  <line x1="435" y1="163.3" x2="800" y2="163.3" stroke="#e5e7eb" stroke-width="0.5"/>
  <text x="431" y="166.3" text-anchor="end" font-size="8" fill="#6b7280">-180</text>
  <line x1="656.1" y1="16" x2="656.1" y2="171" stroke="#d1d5db" stroke-width="1" stroke-dasharray="4 3"/>
  <defs><linearGradient id="g534" x1="0" y1="171" x2="0" y2="93.5" gradientUnits="userSpaceOnUse">
    <stop offset="0%" stop-color="#e74c3c" stop-opacity="0.15"/>
    <stop offset="100%" stop-color="#e74c3c" stop-opacity="0.02"/>
  </linearGradient></defs>
  <path d="M438.5,93.7 438.5,93.7 471.8,94.0 491.3,94.2 505.1,94.5 515.8,94.7 524.6,94.9 532.0,95.2 538.4,95.4 544.1,95.7 549.1,95.9 553.7,96.1 557.9,96.4 561.7,96.6 565.3,96.9 568.6,97.1 571.7,97.4 574.6,97.6 577.3,97.9 579.9,98.2 582.4,98.4 584.7,98.7 587.0,98.9 589.1,99.2 591.2,99.5 593.1,99.8 595.0,100.0 596.8,100.3 598.6,100.6 600.2,100.9 601.9,101.2 603.4,101.5 605.0,101.8 606.5,102.1 607.9,102.4 609.3,102.7 610.6,103.0 611.9,103.3 613.2,103.6 614.5,103.9 615.7,104.3 616.9,104.6 618.0,105.0 619.2,105.3 620.3,105.7 621.3,106.0 622.4,106.4 623.4,106.7 624.4,107.1 625.4,107.5 626.4,107.9 627.4,108.3 628.3,108.7 629.2,109.1 630.1,109.5 631.0,109.9 631.8,110.3 632.7,110.7 633.5,111.2 634.4,111.6 635.2,112.1 636.7,113.0 638.3,113.9 639.7,114.8 641.2,115.8 642.6,116.8 643.9,117.8 645.2,118.8 646.5,119.8 647.8,120.9 649.0,121.9 650.2,122.9 651.3,124.0 652.4,125.0 653.6,126.0 654.6,127.0 655.7,128.0 656.7,128.9 657.7,129.8 658.7,130.8 659.7,131.6 660.6,132.5 661.6,133.3 662.5,134.1 663.4,134.9 664.3,135.7 665.1,136.4 666.0,137.1 666.8,137.8 667.6,138.4 668.4,139.0 669.6,139.9 670.8,140.7 671.9,141.5 673.0,142.2 674.1,142.9 675.2,143.6 676.2,144.2 677.2,144.8 678.2,145.3 679.2,145.8 680.1,146.3 681.0,146.8 682.0,147.2 682.9,147.6 683.7,148.0 684.6,148.4 685.5,148.8 686.3,149.1 687.1,149.4 687.9,149.7 689.0,150.1 690.0,150.5 691.0,150.8 692.0,151.2 693.0,151.5 693.9,151.8 694.9,152.1 695.8,152.3 696.7,152.6 697.6,152.8 698.4,153.0 699.3,153.3 700.1,153.5 700.9,153.7 701.7,153.9 702.7,154.1 703.7,154.3 704.6,154.5 705.6,154.7 706.5,154.9 707.4,155.1 708.3,155.3 709.1,155.5 710.0,155.6 710.8,155.8 711.6,155.9 712.4,156.1 713.4,156.2 714.3,156.4 715.2,156.5 716.1,156.7 717.0,156.8 717.9,156.9 718.7,157.1 719.6,157.2 720.4,157.3 721.2,157.4 722.1,157.5 723.0,157.7 723.9,157.8 724.8,157.9 725.7,158.0 726.5,158.1 727.3,158.2 728.1,158.3 728.9,158.4 729.8,158.5 730.7,158.6 731.6,158.7 732.4,158.8 733.3,158.9 734.1,159.0 734.9,159.0 735.8,159.1 736.7,159.2 737.5,159.3 738.4,159.4 739.2,159.5 740.0,159.5 740.8,159.6 741.7,159.7 742.6,159.7 743.4,159.8 744.3,159.9 745.1,160.0 745.9,160.0 746.8,160.1 747.6,160.2 748.5,160.2 749.3,160.3 750.1,160.3 751.0,160.4 751.8,160.5 752.7,160.5 753.5,160.6 754.3,160.6 755.1,160.7 756.0,160.8 756.8,160.8 757.6,160.9 758.5,160.9 759.3,161.0 760.1,161.0 761.0,161.1 761.8,161.1 762.6,161.2 763.5,161.2 764.3,161.3 765.1,161.3 765.9,161.4 766.8,161.4 767.6,161.5 768.4,161.5 769.2,161.5 770.1,161.6 770.9,161.6 771.7,161.7 772.6,161.7 773.4,161.8 774.2,161.8 775.0,161.8 775.8,161.9 776.6,161.9 777.5,162.0 778.3,162.0 779.1,162.0 779.9,162.1 780.7,162.1 781.5,162.2 782.4,162.2 783.2,162.2 784.0,162.3 784.8,162.3 785.6,162.4 786.5,162.4 787.3,162.4 788.1,162.5 788.9,162.5 789.7,162.5 790.5,162.6 791.3,162.6 792.2,162.7 793.0,162.7 793.8,162.7 794.6,162.8 795.4,162.8 796.2,162.8 797.0,162.9 797.8,162.9 798.6,163.0 799.5,163.0 L799.5,93.5 L438.5,93.5 Z" fill="url(#g534)"/>
  <defs><clipPath id="pc535"><rect x="435" y="16" width="365" height="155"/></clipPath></defs>
  <polyline points="438.5,93.7 471.8,94.0 491.3,94.2 505.1,94.5 515.8,94.7 524.6,94.9 532.0,95.2 538.4,95.4 544.1,95.7 549.1,95.9 553.7,96.1 557.9,96.4 561.7,96.6 565.3,96.9 568.6,97.1 571.7,97.4 574.6,97.6 577.3,97.9 579.9,98.2 582.4,98.4 584.7,98.7 587.0,98.9 589.1,99.2 591.2,99.5 593.1,99.8 595.0,100.0 596.8,100.3 598.6,100.6 600.2,100.9 601.9,101.2 603.4,101.5 605.0,101.8 606.5,102.1 607.9,102.4 609.3,102.7 610.6,103.0 611.9,103.3 613.2,103.6 614.5,103.9 615.7,104.3 616.9,104.6 618.0,105.0 619.2,105.3 620.3,105.7 621.3,106.0 622.4,106.4 623.4,106.7 624.4,107.1 625.4,107.5 626.4,107.9 627.4,108.3 628.3,108.7 629.2,109.1 630.1,109.5 631.0,109.9 631.8,110.3 632.7,110.7 633.5,111.2 634.4,111.6 635.2,112.1 636.7,113.0 638.3,113.9 639.7,114.8 641.2,115.8 642.6,116.8 643.9,117.8 645.2,118.8 646.5,119.8 647.8,120.9 649.0,121.9 650.2,122.9 651.3,124.0 652.4,125.0 653.6,126.0 654.6,127.0 655.7,128.0 656.7,128.9 657.7,129.8 658.7,130.8 659.7,131.6 660.6,132.5 661.6,133.3 662.5,134.1 663.4,134.9 664.3,135.7 665.1,136.4 666.0,137.1 666.8,137.8 667.6,138.4 668.4,139.0 669.6,139.9 670.8,140.7 671.9,141.5 673.0,142.2 674.1,142.9 675.2,143.6 676.2,144.2 677.2,144.8 678.2,145.3 679.2,145.8 680.1,146.3 681.0,146.8 682.0,147.2 682.9,147.6 683.7,148.0 684.6,148.4 685.5,148.8 686.3,149.1 687.1,149.4 687.9,149.7 689.0,150.1 690.0,150.5 691.0,150.8 692.0,151.2 693.0,151.5 693.9,151.8 694.9,152.1 695.8,152.3 696.7,152.6 697.6,152.8 698.4,153.0 699.3,153.3 700.1,153.5 700.9,153.7 701.7,153.9 702.7,154.1 703.7,154.3 704.6,154.5 705.6,154.7 706.5,154.9 707.4,155.1 708.3,155.3 709.1,155.5 710.0,155.6 710.8,155.8 711.6,155.9 712.4,156.1 713.4,156.2 714.3,156.4 715.2,156.5 716.1,156.7 717.0,156.8 717.9,156.9 718.7,157.1 719.6,157.2 720.4,157.3 721.2,157.4 722.1,157.5 723.0,157.7 723.9,157.8 724.8,157.9 725.7,158.0 726.5,158.1 727.3,158.2 728.1,158.3 728.9,158.4 729.8,158.5 730.7,158.6 731.6,158.7 732.4,158.8 733.3,158.9 734.1,159.0 734.9,159.0 735.8,159.1 736.7,159.2 737.5,159.3 738.4,159.4 739.2,159.5 740.0,159.5 740.8,159.6 741.7,159.7 742.6,159.7 743.4,159.8 744.3,159.9 745.1,160.0 745.9,160.0 746.8,160.1 747.6,160.2 748.5,160.2 749.3,160.3 750.1,160.3 751.0,160.4 751.8,160.5 752.7,160.5 753.5,160.6 754.3,160.6 755.1,160.7 756.0,160.8 756.8,160.8 757.6,160.9 758.5,160.9 759.3,161.0 760.1,161.0 761.0,161.1 761.8,161.1 762.6,161.2 763.5,161.2 764.3,161.3 765.1,161.3 765.9,161.4 766.8,161.4 767.6,161.5 768.4,161.5 769.2,161.5 770.1,161.6 770.9,161.6 771.7,161.7 772.6,161.7 773.4,161.8 774.2,161.8 775.0,161.8 775.8,161.9 776.6,161.9 777.5,162.0 778.3,162.0 779.1,162.0 779.9,162.1 780.7,162.1 781.5,162.2 782.4,162.2 783.2,162.2 784.0,162.3 784.8,162.3 785.6,162.4 786.5,162.4 787.3,162.4 788.1,162.5 788.9,162.5 789.7,162.5 790.5,162.6 791.3,162.6 792.2,162.7 793.0,162.7 793.8,162.7 794.6,162.8 795.4,162.8 796.2,162.8 797.0,162.9 797.8,162.9 798.6,163.0 799.5,163.0" fill="none" stroke="#e74c3c" stroke-width="1.5" stroke-linejoin="round" clip-path="url(#pc535)"/>
  <line x1="34" y1="207" x2="34" y2="362" stroke="#d1d5db"/>
  <line x1="34" y1="284.5" x2="399" y2="284.5" stroke="#d1d5db"/>
  <text x="216.5" y="388" text-anchor="middle" font-size="9" fill="#6b7280">Hz</text>
  <text x="12" y="284.5" text-anchor="middle" font-size="9" fill="#6b7280" transform="rotate(-90 12 284.5)">Group delay</text>
  <line x1="67.3" y1="207" x2="67.3" y2="362" stroke="#e5e7eb" stroke-width="0.5"/>
  <line x1="86.8" y1="207" x2="86.8" y2="362" stroke="#e5e7eb" stroke-width="0.5"/>
  <line x1="100.6" y1="207" x2="100.6" y2="362" stroke="#e5e7eb" stroke-width="0.5"/>
  <line x1="111.3" y1="207" x2="111.3" y2="362" stroke="#e5e7eb" stroke-width="0.5"/>
  <line x1="120.0" y1="207" x2="120.0" y2="362" stroke="#e5e7eb" stroke-width="0.5"/>
  <line x1="127.4" y1="207" x2="127.4" y2="362" stroke="#e5e7eb" stroke-width="0.5"/>
  <line x1="133.9" y1="207" x2="133.9" y2="362" stroke="#e5e7eb" stroke-width="0.5"/>
  <line x1="139.5" y1="207" x2="139.5" y2="362" stroke="#e5e7eb" stroke-width="0.5"/>
  <line x1="177.9" y1="207" x2="177.9" y2="362" stroke="#e5e7eb" stroke-width="0.5"/>
  <line x1="197.3" y1="207" x2="197.3" y2="362" stroke="#e5e7eb" stroke-width="0.5"/>
  <line x1="211.1" y1="207" x2="211.1" y2="362" stroke="#e5e7eb" stroke-width="0.5"/>
  <line x1="221.9" y1="207" x2="221.9" y2="362" stroke="#e5e7eb" stroke-width="0.5"/>
  <line x1="230.6" y1="207" x2="230.6" y2="362" stroke="#e5e7eb" stroke-width="0.5"/>
  <line x1="238.0" y1="207" x2="238.0" y2="362" stroke="#e5e7eb" stroke-width="0.5"/>
  <line x1="244.4" y1="207" x2="244.4" y2="362" stroke="#e5e7eb" stroke-width="0.5"/>
  <line x1="250.1" y1="207" x2="250.1" y2="362" stroke="#e5e7eb" stroke-width="0.5"/>
  <line x1="288.4" y1="207" x2="288.4" y2="362" stroke="#e5e7eb" stroke-width="0.5"/>
  <line x1="307.9" y1="207" x2="307.9" y2="362" stroke="#e5e7eb" stroke-width="0.5"/>
  <line x1="321.7" y1="207" x2="321.7" y2="362" stroke="#e5e7eb" stroke-width="0.5"/>
  <line x1="332.4" y1="207" x2="332.4" y2="362" stroke="#e5e7eb" stroke-width="0.5"/>
  <line x1="341.2" y1="207" x2="341.2" y2="362" stroke="#e5e7eb" stroke-width="0.5"/>
  <line x1="348.6" y1="207" x2="348.6" y2="362" stroke="#e5e7eb" stroke-width="0.5"/>
  <line x1="355.0" y1="207" x2="355.0" y2="362" stroke="#e5e7eb" stroke-width="0.5"/>
  <line x1="360.7" y1="207" x2="360.7" y2="362" stroke="#e5e7eb" stroke-width="0.5"/>
  <line x1="399.0" y1="207" x2="399.0" y2="362" stroke="#e5e7eb" stroke-width="0.5"/>
  <line x1="144.6" y1="207" x2="144.6" y2="362" stroke="#e5e7eb" stroke-width="0.5"/>
  <text x="144.6" y="374" text-anchor="middle" font-size="8" fill="#6b7280">100</text>
  <line x1="255.1" y1="207" x2="255.1" y2="362" stroke="#e5e7eb" stroke-width="0.5"/>
  <text x="255.1" y="374" text-anchor="middle" font-size="8" fill="#6b7280">1k</text>
  <line x1="365.7" y1="207" x2="365.7" y2="362" stroke="#e5e7eb" stroke-width="0.5"/>
  <text x="365.7" y="374" text-anchor="middle" font-size="8" fill="#6b7280">10k</text>
  <line x1="34" y1="323.8" x2="399" y2="323.8" stroke="#e5e7eb" stroke-width="0.5"/>
  <text x="30" y="326.8" text-anchor="end" font-size="8" fill="#6b7280">-10</text>
  <text x="30" y="287.5" text-anchor="end" font-size="8" fill="#6b7280">0</text>
  <line x1="34" y1="245.2" x2="399" y2="245.2" stroke="#e5e7eb" stroke-width="0.5"/>
  <text x="30" y="248.2" text-anchor="end" font-size="8" fill="#6b7280">10</text>
  <line x1="255.1" y1="207" x2="255.1" y2="362" stroke="#d1d5db" stroke-width="1" stroke-dasharray="4 3"/>
  <defs><linearGradient id="g536" x1="0" y1="207" x2="0" y2="284.5" gradientUnits="userSpaceOnUse">
    <stop offset="0%" stop-color="#2ecc71" stop-opacity="0.15"/>
    <stop offset="100%" stop-color="#2ecc71" stop-opacity="0.02"/>
  </linearGradient></defs>
  <path d="M37.5,256.9 37.5,256.9 70.8,256.9 90.3,256.9 104.1,256.8 114.8,256.8 123.6,256.7 131.0,256.6 137.4,256.5 143.1,256.4 148.1,256.3 152.7,256.1 156.9,256.0 160.7,255.8 164.3,255.7 167.6,255.5 170.7,255.3 173.6,255.1 176.3,254.8 178.9,254.6 181.4,254.3 183.7,254.0 186.0,253.8 188.1,253.5 190.2,253.1 192.1,252.8 194.0,252.5 195.8,252.1 197.6,251.7 199.2,251.3 200.9,250.9 202.4,250.5 204.0,250.1 205.5,249.6 206.9,249.1 208.3,248.6 209.6,248.1 210.9,247.6 212.2,247.1 213.5,246.6 214.7,246.0 215.9,245.4 217.0,244.8 218.2,244.2 219.3,243.6 220.3,243.0 221.4,242.4 222.4,241.7 223.4,241.0 224.4,240.4 225.4,239.7 226.4,239.0 227.3,238.3 228.2,237.6 229.1,236.9 230.0,236.2 230.8,235.5 231.7,234.8 232.5,234.2 233.4,233.5 234.2,232.8 235.7,231.5 237.3,230.2 238.7,229.1 240.2,228.0 241.6,227.1 242.9,226.3 244.2,225.7 245.5,225.2 246.8,224.9 248.0,224.9 249.2,225.0 250.3,225.4 251.4,225.9 252.6,226.6 253.6,227.5 254.7,228.6 255.7,229.8 256.7,231.1 257.7,232.5 258.7,234.0 259.6,235.5 260.6,237.1 261.5,238.7 262.4,240.3 263.3,241.9 264.1,243.5 265.0,245.1 265.8,246.6 266.6,248.1 267.4,249.5 268.6,251.6 269.8,253.6 270.9,255.4 272.0,257.1 273.1,258.7 274.2,260.2 275.2,261.6 276.2,262.9 277.2,264.1 278.2,265.2 279.1,266.3 280.0,267.2 281.0,268.1 281.9,269.0 282.7,269.7 283.6,270.4 284.5,271.1 285.3,271.7 286.1,272.3 286.9,272.9 288.0,273.5 289.0,274.2 290.0,274.7 291.0,275.3 292.0,275.7 292.9,276.2 293.9,276.6 294.8,277.0 295.7,277.3 296.6,277.7 297.4,278.0 298.3,278.3 299.1,278.5 299.9,278.8 300.7,279.0 301.7,279.3 302.7,279.5 303.6,279.8 304.6,280.0 305.5,280.2 306.4,280.4 307.3,280.6 308.1,280.7 309.0,280.9 309.8,281.0 310.6,281.2 311.4,281.3 312.4,281.4 313.3,281.6 314.2,281.7 315.1,281.8 316.0,281.9 316.9,282.0 317.7,282.1 318.6,282.2 319.4,282.3 320.2,282.4 321.1,282.5 322.0,282.5 322.9,282.6 323.8,282.7 324.7,282.8 325.5,282.8 326.3,282.9 327.1,282.9 327.9,283.0 328.8,283.0 329.7,283.1 330.6,283.2 331.4,283.2 332.3,283.3 333.1,283.3 333.9,283.3 334.8,283.4 335.7,283.4 336.5,283.5 337.4,283.5 338.2,283.5 339.0,283.6 339.8,283.6 340.7,283.6 341.6,283.7 342.4,283.7 343.3,283.7 344.1,283.7 344.9,283.8 345.8,283.8 346.6,283.8 347.5,283.8 348.3,283.9 349.1,283.9 350.0,283.9 350.8,283.9 351.7,283.9 352.5,284.0 353.3,284.0 354.1,284.0 355.0,284.0 355.8,284.0 356.6,284.0 357.5,284.0 358.3,284.1 359.1,284.1 360.0,284.1 360.8,284.1 361.6,284.1 362.5,284.1 363.3,284.1 364.1,284.1 364.9,284.2 365.8,284.2 366.6,284.2 367.4,284.2 368.2,284.2 369.1,284.2 369.9,284.2 370.7,284.2 371.6,284.2 372.4,284.2 373.2,284.2 374.0,284.2 374.8,284.3 375.6,284.3 376.5,284.3 377.3,284.3 378.1,284.3 378.9,284.3 379.7,284.3 380.5,284.3 381.4,284.3 382.2,284.3 383.0,284.3 383.8,284.3 384.6,284.3 385.5,284.3 386.3,284.3 387.1,284.3 387.9,284.3 388.7,284.3 389.5,284.3 390.3,284.3 391.2,284.3 392.0,284.3 392.8,284.3 393.6,284.3 394.4,284.3 395.2,284.4 396.0,284.4 396.8,284.4 397.6,284.4 398.5,284.4 L398.5,284.5 L37.5,284.5 Z" fill="url(#g536)"/>
  <defs><clipPath id="pc537"><rect x="34" y="207" width="365" height="155"/></clipPath></defs>
  <polyline points="37.5,256.9 70.8,256.9 90.3,256.9 104.1,256.8 114.8,256.8 123.6,256.7 131.0,256.6 137.4,256.5 143.1,256.4 148.1,256.3 152.7,256.1 156.9,256.0 160.7,255.8 164.3,255.7 167.6,255.5 170.7,255.3 173.6,255.1 176.3,254.8 178.9,254.6 181.4,254.3 183.7,254.0 186.0,253.8 188.1,253.5 190.2,253.1 192.1,252.8 194.0,252.5 195.8,252.1 197.6,251.7 199.2,251.3 200.9,250.9 202.4,250.5 204.0,250.1 205.5,249.6 206.9,249.1 208.3,248.6 209.6,248.1 210.9,247.6 212.2,247.1 213.5,246.6 214.7,246.0 215.9,245.4 217.0,244.8 218.2,244.2 219.3,243.6 220.3,243.0 221.4,242.4 222.4,241.7 223.4,241.0 224.4,240.4 225.4,239.7 226.4,239.0 227.3,238.3 228.2,237.6 229.1,236.9 230.0,236.2 230.8,235.5 231.7,234.8 232.5,234.2 233.4,233.5 234.2,232.8 235.7,231.5 237.3,230.2 238.7,229.1 240.2,228.0 241.6,227.1 242.9,226.3 244.2,225.7 245.5,225.2 246.8,224.9 248.0,224.9 249.2,225.0 250.3,225.4 251.4,225.9 252.6,226.6 253.6,227.5 254.7,228.6 255.7,229.8 256.7,231.1 257.7,232.5 258.7,234.0 259.6,235.5 260.6,237.1 261.5,238.7 262.4,240.3 263.3,241.9 264.1,243.5 265.0,245.1 265.8,246.6 266.6,248.1 267.4,249.5 268.6,251.6 269.8,253.6 270.9,255.4 272.0,257.1 273.1,258.7 274.2,260.2 275.2,261.6 276.2,262.9 277.2,264.1 278.2,265.2 279.1,266.3 280.0,267.2 281.0,268.1 281.9,269.0 282.7,269.7 283.6,270.4 284.5,271.1 285.3,271.7 286.1,272.3 286.9,272.9 288.0,273.5 289.0,274.2 290.0,274.7 291.0,275.3 292.0,275.7 292.9,276.2 293.9,276.6 294.8,277.0 295.7,277.3 296.6,277.7 297.4,278.0 298.3,278.3 299.1,278.5 299.9,278.8 300.7,279.0 301.7,279.3 302.7,279.5 303.6,279.8 304.6,280.0 305.5,280.2 306.4,280.4 307.3,280.6 308.1,280.7 309.0,280.9 309.8,281.0 310.6,281.2 311.4,281.3 312.4,281.4 313.3,281.6 314.2,281.7 315.1,281.8 316.0,281.9 316.9,282.0 317.7,282.1 318.6,282.2 319.4,282.3 320.2,282.4 321.1,282.5 322.0,282.5 322.9,282.6 323.8,282.7 324.7,282.8 325.5,282.8 326.3,282.9 327.1,282.9 327.9,283.0 328.8,283.0 329.7,283.1 330.6,283.2 331.4,283.2 332.3,283.3 333.1,283.3 333.9,283.3 334.8,283.4 335.7,283.4 336.5,283.5 337.4,283.5 338.2,283.5 339.0,283.6 339.8,283.6 340.7,283.6 341.6,283.7 342.4,283.7 343.3,283.7 344.1,283.7 344.9,283.8 345.8,283.8 346.6,283.8 347.5,283.8 348.3,283.9 349.1,283.9 350.0,283.9 350.8,283.9 351.7,283.9 352.5,284.0 353.3,284.0 354.1,284.0 355.0,284.0 355.8,284.0 356.6,284.0 357.5,284.0 358.3,284.1 359.1,284.1 360.0,284.1 360.8,284.1 361.6,284.1 362.5,284.1 363.3,284.1 364.1,284.1 364.9,284.2 365.8,284.2 366.6,284.2 367.4,284.2 368.2,284.2 369.1,284.2 369.9,284.2 370.7,284.2 371.6,284.2 372.4,284.2 373.2,284.2 374.0,284.2 374.8,284.3 375.6,284.3 376.5,284.3 377.3,284.3 378.1,284.3 378.9,284.3 379.7,284.3 380.5,284.3 381.4,284.3 382.2,284.3 383.0,284.3 383.8,284.3 384.6,284.3 385.5,284.3 386.3,284.3 387.1,284.3 387.9,284.3 388.7,284.3 389.5,284.3 390.3,284.3 391.2,284.3 392.0,284.3 392.8,284.3 393.6,284.3 394.4,284.3 395.2,284.4 396.0,284.4 396.8,284.4 397.6,284.4 398.5,284.4" fill="none" stroke="#2ecc71" stroke-width="1.5" stroke-linejoin="round" clip-path="url(#pc537)"/>
  <line x1="435" y1="207" x2="435" y2="362" stroke="#d1d5db"/>
  <line x1="435" y1="284.5" x2="800" y2="284.5" stroke="#d1d5db"/>
  <text x="617.5" y="388" text-anchor="middle" font-size="9" fill="#6b7280">Samples</text>
  <text x="413" y="284.5" text-anchor="middle" font-size="9" fill="#6b7280" transform="rotate(-90 413 284.5)">Impulse response</text>
  <line x1="435.0" y1="207" x2="435.0" y2="362" stroke="#e5e7eb" stroke-width="0.5"/>
  <text x="435.0" y="374" text-anchor="middle" font-size="8" fill="#6b7280">0</text>
  <line x1="563.3" y1="207" x2="563.3" y2="362" stroke="#e5e7eb" stroke-width="0.5"/>
  <text x="563.3" y="374" text-anchor="middle" font-size="8" fill="#6b7280">90</text>
  <line x1="691.6" y1="207" x2="691.6" y2="362" stroke="#e5e7eb" stroke-width="0.5"/>
  <text x="691.6" y="374" text-anchor="middle" font-size="8" fill="#6b7280">180</text>
  <line x1="435" y1="344.5" x2="800" y2="344.5" stroke="#e5e7eb" stroke-width="0.5"/>
  <text x="431" y="347.5" text-anchor="end" font-size="8" fill="#6b7280">-0.06</text>
  <text x="431" y="287.5" text-anchor="end" font-size="8" fill="#6b7280">0</text>
  <line x1="435" y1="224.5" x2="800" y2="224.5" stroke="#e5e7eb" stroke-width="0.5"/>
  <text x="431" y="227.5" text-anchor="end" font-size="8" fill="#6b7280">0.06</text>
  <defs><linearGradient id="g538" x1="0" y1="207" x2="0" y2="284.5" gradientUnits="userSpaceOnUse">
    <stop offset="0%" stop-color="#f39c12" stop-opacity="0.15"/>
    <stop offset="100%" stop-color="#f39c12" stop-opacity="0.02"/>
  </linearGradient></defs>
  <defs><linearGradient id="g539" x1="0" y1="362" x2="0" y2="284.5" gradientUnits="userSpaceOnUse">
    <stop offset="0%" stop-color="#f39c12" stop-opacity="0.15"/>
    <stop offset="100%" stop-color="#f39c12" stop-opacity="0.02"/>
  </linearGradient></defs>
  <defs><clipPath id="c540"><rect x="435" y="207" width="365" height="77.5"/></clipPath></defs>
  <defs><clipPath id="c541"><rect x="435" y="284.5" width="365" height="77.5"/></clipPath></defs>
  <path d="M435.0,279.8 435.0,279.8 436.4,266.3 437.9,250.2 439.3,237.0 440.7,226.3 442.1,218.2 443.6,212.4 445.0,208.8 446.4,207.0 447.8,207.0 449.3,208.4 450.7,211.1 452.1,214.8 453.5,219.4 455.0,224.5 456.4,230.2 457.8,236.1 459.2,242.1 460.7,248.1 462.1,254.1 463.5,259.8 464.9,265.2 466.4,270.3 467.8,274.9 469.2,279.2 470.6,282.9 472.1,286.2 473.5,289.1 474.9,291.4 476.3,293.4 477.8,294.9 479.2,296.0 480.6,296.7 482.1,297.1 483.5,297.2 484.9,297.1 486.3,296.7 487.8,296.2 489.2,295.5 490.6,294.7 492.0,293.8 493.5,292.9 494.9,291.9 496.3,290.9 497.7,289.9 499.2,288.9 500.6,288.0 502.0,287.2 503.4,286.4 504.9,285.7 506.3,285.0 507.7,284.4 509.1,283.9 510.6,283.5 512.0,283.2 513.4,282.9 514.8,282.7 516.3,282.5 517.7,282.5 519.1,282.4 520.5,282.4 522.0,282.5 523.4,282.5 524.8,282.6 526.3,282.8 527.7,282.9 529.1,283.1 530.5,283.2 532.0,283.4 533.4,283.5 534.8,283.7 536.2,283.9 537.7,284.0 539.1,284.1 540.5,284.3 541.9,284.4 543.4,284.5 544.8,284.6 546.2,284.6 547.6,284.7 549.1,284.7 550.5,284.8 551.9,284.8 553.3,284.8 554.8,284.8 556.2,284.8 557.6,284.8 559.0,284.8 560.5,284.8 561.9,284.8 563.3,284.8 564.7,284.7 566.2,284.7 567.6,284.7 569.0,284.7 570.4,284.6 571.9,284.6 573.3,284.6 574.7,284.6 576.2,284.5 577.6,284.5 579.0,284.5 580.4,284.5 581.9,284.5 583.3,284.5 584.7,284.5 586.1,284.5 587.6,284.5 589.0,284.4 590.4,284.4 591.8,284.4 593.3,284.4 594.7,284.4 596.1,284.4 597.5,284.5 599.0,284.5 600.4,284.5 601.8,284.5 603.2,284.5 604.7,284.5 606.1,284.5 607.5,284.5 608.9,284.5 610.4,284.5 611.8,284.5 613.2,284.5 614.6,284.5 616.1,284.5 617.5,284.5 618.9,284.5 620.4,284.5 621.8,284.5 623.2,284.5 624.6,284.5 626.1,284.5 627.5,284.5 628.9,284.5 630.3,284.5 631.8,284.5 633.2,284.5 634.6,284.5 636.0,284.5 637.5,284.5 638.9,284.5 640.3,284.5 641.7,284.5 643.2,284.5 644.6,284.5 646.0,284.5 647.4,284.5 648.9,284.5 650.3,284.5 651.7,284.5 653.1,284.5 654.6,284.5 656.0,284.5 657.4,284.5 658.8,284.5 660.3,284.5 661.7,284.5 663.1,284.5 664.6,284.5 666.0,284.5 667.4,284.5 668.8,284.5 670.3,284.5 671.7,284.5 673.1,284.5 674.5,284.5 676.0,284.5 677.4,284.5 678.8,284.5 680.2,284.5 681.7,284.5 683.1,284.5 684.5,284.5 685.9,284.5 687.4,284.5 688.8,284.5 690.2,284.5 691.6,284.5 693.1,284.5 694.5,284.5 695.9,284.5 697.3,284.5 698.8,284.5 700.2,284.5 701.6,284.5 703.0,284.5 704.5,284.5 705.9,284.5 707.3,284.5 708.8,284.5 710.2,284.5 711.6,284.5 713.0,284.5 714.5,284.5 715.9,284.5 717.3,284.5 718.7,284.5 720.2,284.5 721.6,284.5 723.0,284.5 724.4,284.5 725.9,284.5 727.3,284.5 728.7,284.5 730.1,284.5 731.6,284.5 733.0,284.5 734.4,284.5 735.8,284.5 737.3,284.5 738.7,284.5 740.1,284.5 741.5,284.5 743.0,284.5 744.4,284.5 745.8,284.5 747.2,284.5 748.7,284.5 750.1,284.5 751.5,284.5 752.9,284.5 754.4,284.5 755.8,284.5 757.2,284.5 758.7,284.5 760.1,284.5 761.5,284.5 762.9,284.5 764.4,284.5 765.8,284.5 767.2,284.5 768.6,284.5 770.1,284.5 771.5,284.5 772.9,284.5 774.3,284.5 775.8,284.5 777.2,284.5 778.6,284.5 780.0,284.5 781.5,284.5 782.9,284.5 784.3,284.5 785.7,284.5 787.2,284.5 788.6,284.5 790.0,284.5 791.4,284.5 792.9,284.5 794.3,284.5 795.7,284.5 797.1,284.5 798.6,284.5 L798.6,284.5 L435.0,284.5 Z" fill="url(#g538)" clip-path="url(#c540)"/>
  <path d="M435.0,279.8 435.0,279.8 436.4,266.3 437.9,250.2 439.3,237.0 440.7,226.3 442.1,218.2 443.6,212.4 445.0,208.8 446.4,207.0 447.8,207.0 449.3,208.4 450.7,211.1 452.1,214.8 453.5,219.4 455.0,224.5 456.4,230.2 457.8,236.1 459.2,242.1 460.7,248.1 462.1,254.1 463.5,259.8 464.9,265.2 466.4,270.3 467.8,274.9 469.2,279.2 470.6,282.9 472.1,286.2 473.5,289.1 474.9,291.4 476.3,293.4 477.8,294.9 479.2,296.0 480.6,296.7 482.1,297.1 483.5,297.2 484.9,297.1 486.3,296.7 487.8,296.2 489.2,295.5 490.6,294.7 492.0,293.8 493.5,292.9 494.9,291.9 496.3,290.9 497.7,289.9 499.2,288.9 500.6,288.0 502.0,287.2 503.4,286.4 504.9,285.7 506.3,285.0 507.7,284.4 509.1,283.9 510.6,283.5 512.0,283.2 513.4,282.9 514.8,282.7 516.3,282.5 517.7,282.5 519.1,282.4 520.5,282.4 522.0,282.5 523.4,282.5 524.8,282.6 526.3,282.8 527.7,282.9 529.1,283.1 530.5,283.2 532.0,283.4 533.4,283.5 534.8,283.7 536.2,283.9 537.7,284.0 539.1,284.1 540.5,284.3 541.9,284.4 543.4,284.5 544.8,284.6 546.2,284.6 547.6,284.7 549.1,284.7 550.5,284.8 551.9,284.8 553.3,284.8 554.8,284.8 556.2,284.8 557.6,284.8 559.0,284.8 560.5,284.8 561.9,284.8 563.3,284.8 564.7,284.7 566.2,284.7 567.6,284.7 569.0,284.7 570.4,284.6 571.9,284.6 573.3,284.6 574.7,284.6 576.2,284.5 577.6,284.5 579.0,284.5 580.4,284.5 581.9,284.5 583.3,284.5 584.7,284.5 586.1,284.5 587.6,284.5 589.0,284.4 590.4,284.4 591.8,284.4 593.3,284.4 594.7,284.4 596.1,284.4 597.5,284.5 599.0,284.5 600.4,284.5 601.8,284.5 603.2,284.5 604.7,284.5 606.1,284.5 607.5,284.5 608.9,284.5 610.4,284.5 611.8,284.5 613.2,284.5 614.6,284.5 616.1,284.5 617.5,284.5 618.9,284.5 620.4,284.5 621.8,284.5 623.2,284.5 624.6,284.5 626.1,284.5 627.5,284.5 628.9,284.5 630.3,284.5 631.8,284.5 633.2,284.5 634.6,284.5 636.0,284.5 637.5,284.5 638.9,284.5 640.3,284.5 641.7,284.5 643.2,284.5 644.6,284.5 646.0,284.5 647.4,284.5 648.9,284.5 650.3,284.5 651.7,284.5 653.1,284.5 654.6,284.5 656.0,284.5 657.4,284.5 658.8,284.5 660.3,284.5 661.7,284.5 663.1,284.5 664.6,284.5 666.0,284.5 667.4,284.5 668.8,284.5 670.3,284.5 671.7,284.5 673.1,284.5 674.5,284.5 676.0,284.5 677.4,284.5 678.8,284.5 680.2,284.5 681.7,284.5 683.1,284.5 684.5,284.5 685.9,284.5 687.4,284.5 688.8,284.5 690.2,284.5 691.6,284.5 693.1,284.5 694.5,284.5 695.9,284.5 697.3,284.5 698.8,284.5 700.2,284.5 701.6,284.5 703.0,284.5 704.5,284.5 705.9,284.5 707.3,284.5 708.8,284.5 710.2,284.5 711.6,284.5 713.0,284.5 714.5,284.5 715.9,284.5 717.3,284.5 718.7,284.5 720.2,284.5 721.6,284.5 723.0,284.5 724.4,284.5 725.9,284.5 727.3,284.5 728.7,284.5 730.1,284.5 731.6,284.5 733.0,284.5 734.4,284.5 735.8,284.5 737.3,284.5 738.7,284.5 740.1,284.5 741.5,284.5 743.0,284.5 744.4,284.5 745.8,284.5 747.2,284.5 748.7,284.5 750.1,284.5 751.5,284.5 752.9,284.5 754.4,284.5 755.8,284.5 757.2,284.5 758.7,284.5 760.1,284.5 761.5,284.5 762.9,284.5 764.4,284.5 765.8,284.5 767.2,284.5 768.6,284.5 770.1,284.5 771.5,284.5 772.9,284.5 774.3,284.5 775.8,284.5 777.2,284.5 778.6,284.5 780.0,284.5 781.5,284.5 782.9,284.5 784.3,284.5 785.7,284.5 787.2,284.5 788.6,284.5 790.0,284.5 791.4,284.5 792.9,284.5 794.3,284.5 795.7,284.5 797.1,284.5 798.6,284.5 L798.6,284.5 L435.0,284.5 Z" fill="url(#g539)" clip-path="url(#c541)"/>
  <defs><clipPath id="pc542"><rect x="435" y="207" width="365" height="155"/></clipPath></defs>
  <polyline points="435.0,279.8 436.4,266.3 437.9,250.2 439.3,237.0 440.7,226.3 442.1,218.2 443.6,212.4 445.0,208.8 446.4,207.0 447.8,207.0 449.3,208.4 450.7,211.1 452.1,214.8 453.5,219.4 455.0,224.5 456.4,230.2 457.8,236.1 459.2,242.1 460.7,248.1 462.1,254.1 463.5,259.8 464.9,265.2 466.4,270.3 467.8,274.9 469.2,279.2 470.6,282.9 472.1,286.2 473.5,289.1 474.9,291.4 476.3,293.4 477.8,294.9 479.2,296.0 480.6,296.7 482.1,297.1 483.5,297.2 484.9,297.1 486.3,296.7 487.8,296.2 489.2,295.5 490.6,294.7 492.0,293.8 493.5,292.9 494.9,291.9 496.3,290.9 497.7,289.9 499.2,288.9 500.6,288.0 502.0,287.2 503.4,286.4 504.9,285.7 506.3,285.0 507.7,284.4 509.1,283.9 510.6,283.5 512.0,283.2 513.4,282.9 514.8,282.7 516.3,282.5 517.7,282.5 519.1,282.4 520.5,282.4 522.0,282.5 523.4,282.5 524.8,282.6 526.3,282.8 527.7,282.9 529.1,283.1 530.5,283.2 532.0,283.4 533.4,283.5 534.8,283.7 536.2,283.9 537.7,284.0 539.1,284.1 540.5,284.3 541.9,284.4 543.4,284.5 544.8,284.6 546.2,284.6 547.6,284.7 549.1,284.7 550.5,284.8 551.9,284.8 553.3,284.8 554.8,284.8 556.2,284.8 557.6,284.8 559.0,284.8 560.5,284.8 561.9,284.8 563.3,284.8 564.7,284.7 566.2,284.7 567.6,284.7 569.0,284.7 570.4,284.6 571.9,284.6 573.3,284.6 574.7,284.6 576.2,284.5 577.6,284.5 579.0,284.5 580.4,284.5 581.9,284.5 583.3,284.5 584.7,284.5 586.1,284.5 587.6,284.5 589.0,284.4 590.4,284.4 591.8,284.4 593.3,284.4 594.7,284.4 596.1,284.4 597.5,284.5 599.0,284.5 600.4,284.5 601.8,284.5 603.2,284.5 604.7,284.5 606.1,284.5 607.5,284.5 608.9,284.5 610.4,284.5 611.8,284.5 613.2,284.5 614.6,284.5 616.1,284.5 617.5,284.5 618.9,284.5 620.4,284.5 621.8,284.5 623.2,284.5 624.6,284.5 626.1,284.5 627.5,284.5 628.9,284.5 630.3,284.5 631.8,284.5 633.2,284.5 634.6,284.5 636.0,284.5 637.5,284.5 638.9,284.5 640.3,284.5 641.7,284.5 643.2,284.5 644.6,284.5 646.0,284.5 647.4,284.5 648.9,284.5 650.3,284.5 651.7,284.5 653.1,284.5 654.6,284.5 656.0,284.5 657.4,284.5 658.8,284.5 660.3,284.5 661.7,284.5 663.1,284.5 664.6,284.5 666.0,284.5 667.4,284.5 668.8,284.5 670.3,284.5 671.7,284.5 673.1,284.5 674.5,284.5 676.0,284.5 677.4,284.5 678.8,284.5 680.2,284.5 681.7,284.5 683.1,284.5 684.5,284.5 685.9,284.5 687.4,284.5 688.8,284.5 690.2,284.5 691.6,284.5 693.1,284.5 694.5,284.5 695.9,284.5 697.3,284.5 698.8,284.5 700.2,284.5 701.6,284.5 703.0,284.5 704.5,284.5 705.9,284.5 707.3,284.5 708.8,284.5 710.2,284.5 711.6,284.5 713.0,284.5 714.5,284.5 715.9,284.5 717.3,284.5 718.7,284.5 720.2,284.5 721.6,284.5 723.0,284.5 724.4,284.5 725.9,284.5 727.3,284.5 728.7,284.5 730.1,284.5 731.6,284.5 733.0,284.5 734.4,284.5 735.8,284.5 737.3,284.5 738.7,284.5 740.1,284.5 741.5,284.5 743.0,284.5 744.4,284.5 745.8,284.5 747.2,284.5 748.7,284.5 750.1,284.5 751.5,284.5 752.9,284.5 754.4,284.5 755.8,284.5 757.2,284.5 758.7,284.5 760.1,284.5 761.5,284.5 762.9,284.5 764.4,284.5 765.8,284.5 767.2,284.5 768.6,284.5 770.1,284.5 771.5,284.5 772.9,284.5 774.3,284.5 775.8,284.5 777.2,284.5 778.6,284.5 780.0,284.5 781.5,284.5 782.9,284.5 784.3,284.5 785.7,284.5 787.2,284.5 788.6,284.5 790.0,284.5 791.4,284.5 792.9,284.5 794.3,284.5 795.7,284.5 797.1,284.5 798.6,284.5" fill="none" stroke="#f39c12" stroke-width="1.3" stroke-linejoin="round" clip-path="url(#pc542)"/>
</svg>
