<svg xmlns="http://www.w3.org/2000/svg" viewBox="0 0 800 420" style="font-family:system-ui,-apple-system,sans-serif">
  <text x="55" y="416" font-size="11" font-weight="600" fill="#6b7280">SVF lowpass, fc=1kHz, Q=1</text>
  <line x1="55" y1="12" x2="55" y2="162" stroke="#d1d5db"/>
  <line x1="55" y1="42.0" x2="385" y2="42.0" stroke="#d1d5db"/>
  <text x="220" y="190" text-anchor="middle" font-size="9" fill="#6b7280">Hz</text>
  <text x="29" y="87" text-anchor="middle" font-size="9" fill="#6b7280" transform="rotate(-90 29 87)">dB</text>
  <line x1="85.1" y1="12" x2="85.1" y2="162" stroke="#e5e7eb" stroke-width="0.5"/>
  <line x1="102.7" y1="12" x2="102.7" y2="162" stroke="#e5e7eb" stroke-width="0.5"/>
  <line x1="115.2" y1="12" x2="115.2" y2="162" stroke="#e5e7eb" stroke-width="0.5"/>
  <line x1="124.9" y1="12" x2="124.9" y2="162" stroke="#e5e7eb" stroke-width="0.5"/>
  <line x1="132.8" y1="12" x2="132.8" y2="162" stroke="#e5e7eb" stroke-width="0.5"/>
  <line x1="139.5" y1="12" x2="139.5" y2="162" stroke="#e5e7eb" stroke-width="0.5"/>
  <line x1="145.3" y1="12" x2="145.3" y2="162" stroke="#e5e7eb" stroke-width="0.5"/>
  <line x1="150.4" y1="12" x2="150.4" y2="162" stroke="#e5e7eb" stroke-width="0.5"/>
  <line x1="185.1" y1="12" x2="185.1" y2="162" stroke="#e5e7eb" stroke-width="0.5"/>
  <line x1="202.7" y1="12" x2="202.7" y2="162" stroke="#e5e7eb" stroke-width="0.5"/>
  <line x1="215.2" y1="12" x2="215.2" y2="162" stroke="#e5e7eb" stroke-width="0.5"/>
  <line x1="224.8" y1="12" x2="224.8" y2="162" stroke="#e5e7eb" stroke-width="0.5"/>
  <line x1="232.8" y1="12" x2="232.8" y2="162" stroke="#e5e7eb" stroke-width="0.5"/>
  <line x1="239.5" y1="12" x2="239.5" y2="162" stroke="#e5e7eb" stroke-width="0.5"/>
  <line x1="245.2" y1="12" x2="245.2" y2="162" stroke="#e5e7eb" stroke-width="0.5"/>
  <line x1="250.4" y1="12" x2="250.4" y2="162" stroke="#e5e7eb" stroke-width="0.5"/>
  <line x1="285.0" y1="12" x2="285.0" y2="162" stroke="#e5e7eb" stroke-width="0.5"/>
  <line x1="302.6" y1="12" x2="302.6" y2="162" stroke="#e5e7eb" stroke-width="0.5"/>
  <line x1="315.1" y1="12" x2="315.1" y2="162" stroke="#e5e7eb" stroke-width="0.5"/>
  <line x1="324.8" y1="12" x2="324.8" y2="162" stroke="#e5e7eb" stroke-width="0.5"/>
  <line x1="332.7" y1="12" x2="332.7" y2="162" stroke="#e5e7eb" stroke-width="0.5"/>
  <line x1="339.4" y1="12" x2="339.4" y2="162" stroke="#e5e7eb" stroke-width="0.5"/>
  <line x1="345.2" y1="12" x2="345.2" y2="162" stroke="#e5e7eb" stroke-width="0.5"/>
  <line x1="350.3" y1="12" x2="350.3" y2="162" stroke="#e5e7eb" stroke-width="0.5"/>
  <line x1="385.0" y1="12" x2="385.0" y2="162" stroke="#e5e7eb" stroke-width="0.5"/>
  <line x1="155.0" y1="12" x2="155.0" y2="162" stroke="#e5e7eb" stroke-width="0.5"/>
  <text x="155.0" y="174" text-anchor="middle" font-size="8" fill="#6b7280">100</text>
  <line x1="254.9" y1="12" x2="254.9" y2="162" stroke="#e5e7eb" stroke-width="0.5"/>
  <text x="254.9" y="174" text-anchor="middle" font-size="8" fill="#6b7280">1k</text>
  <line x1="354.9" y1="12" x2="354.9" y2="162" stroke="#e5e7eb" stroke-width="0.5"/>
  <text x="354.9" y="174" text-anchor="middle" font-size="8" fill="#6b7280">10k</text>
  <line x1="55" y1="27.0" x2="385" y2="27.0" stroke="#e5e7eb" stroke-width="0.5"/>
  <line x1="55" y1="57.0" x2="385" y2="57.0" stroke="#e5e7eb" stroke-width="0.5"/>
  <line x1="55" y1="12.0" x2="385" y2="12.0" stroke="#e5e7eb" stroke-width="0.5"/>
  <text x="51" y="15.0" text-anchor="end" font-size="8" fill="#6b7280">+20</text>
  <text x="51" y="45.0" text-anchor="end" font-size="8" fill="#6b7280">0</text>
  <line x1="55" y1="72.0" x2="385" y2="72.0" stroke="#e5e7eb" stroke-width="0.5"/>
  <text x="51" y="75.0" text-anchor="end" font-size="8" fill="#6b7280">-20</text>
  <line x1="55" y1="102.0" x2="385" y2="102.0" stroke="#e5e7eb" stroke-width="0.5"/>
  <text x="51" y="105.0" text-anchor="end" font-size="8" fill="#6b7280">-40</text>
  <line x1="55" y1="132.0" x2="385" y2="132.0" stroke="#e5e7eb" stroke-width="0.5"/>
  <text x="51" y="135.0" text-anchor="end" font-size="8" fill="#6b7280">-60</text>
  <line x1="55" y1="162.0" x2="385" y2="162.0" stroke="#e5e7eb" stroke-width="0.5"/>
  <text x="51" y="165.0" text-anchor="end" font-size="8" fill="#6b7280">-80</text>
  <defs><linearGradient id="g532" x1="0" y1="12" x2="0" y2="162" gradientUnits="userSpaceOnUse">
    <stop offset="0%" stop-color="#4a90d9" stop-opacity="0.15"/>
    <stop offset="100%" stop-color="#4a90d9" stop-opacity="0.02"/>
  </linearGradient></defs>
  <path d="M58.2,42.0 58.2,42.0 88.3,42.0 105.9,42.0 118.4,42.0 128.1,42.0 136.0,42.0 142.7,42.0 148.5,42.0 153.6,41.9 158.2,41.9 162.3,41.9 166.1,41.9 169.6,41.9 172.8,41.9 175.8,41.8 178.6,41.8 181.2,41.8 183.7,41.8 186.0,41.7 188.3,41.7 190.4,41.7 192.4,41.6 194.3,41.6 196.2,41.6 198.0,41.5 199.7,41.5 201.3,41.5 202.9,41.4 204.4,41.4 205.9,41.4 207.3,41.3 208.7,41.3 210.0,41.2 211.3,41.2 212.6,41.2 213.8,41.1 215.0,41.1 216.1,41.0 217.3,41.0 218.4,40.9 219.4,40.9 220.5,40.8 221.5,40.8 222.5,40.8 223.5,40.7 224.4,40.7 225.4,40.6 226.3,40.6 227.2,40.5 228.1,40.5 228.9,40.5 229.8,40.4 230.6,40.4 231.4,40.4 233.0,40.3 234.5,40.2 236.0,40.2 237.4,40.2 238.8,40.1 240.1,40.1 241.4,40.1 242.7,40.2 243.9,40.2 245.1,40.3 246.2,40.4 247.4,40.5 248.5,40.6 249.5,40.8 250.6,40.9 251.6,41.1 252.6,41.4 253.6,41.6 254.5,41.9 255.5,42.2 256.4,42.5 257.3,42.8 258.1,43.1 259.0,43.5 259.8,43.8 260.7,44.2 261.5,44.5 262.7,45.1 263.8,45.7 265.0,46.3 266.1,46.9 267.1,47.5 268.2,48.1 269.2,48.7 270.2,49.3 271.2,49.9 272.1,50.5 273.1,51.1 274.0,51.7 274.9,52.2 275.7,52.8 276.6,53.4 277.5,53.9 278.3,54.4 279.1,55.0 280.1,55.7 281.2,56.3 282.2,57.0 283.2,57.6 284.1,58.3 285.1,58.9 286.0,59.5 286.9,60.1 287.8,60.7 288.7,61.2 289.5,61.8 290.4,62.3 291.2,62.9 292.0,63.4 293.0,64.0 293.9,64.7 294.9,65.3 295.8,65.9 296.7,66.5 297.6,67.0 298.4,67.6 299.3,68.2 300.1,68.7 300.9,69.2 301.7,69.7 302.7,70.4 303.6,71.0 304.5,71.5 305.4,72.1 306.3,72.7 307.1,73.2 308.0,73.8 308.8,74.3 309.6,74.8 310.5,75.4 311.4,76.0 312.3,76.6 313.2,77.1 314.0,77.7 314.8,78.2 315.6,78.8 316.4,79.3 317.3,79.9 318.2,80.4 319.1,81.0 319.9,81.6 320.8,82.1 321.6,82.6 322.5,83.2 323.3,83.8 324.2,84.4 325.1,85.0 325.9,85.5 326.7,86.1 327.6,86.6 328.5,87.2 329.3,87.8 330.1,88.4 331.0,88.9 331.8,89.5 332.6,90.1 333.5,90.7 334.3,91.2 335.1,91.8 335.9,92.4 336.8,93.0 337.6,93.6 338.5,94.2 339.3,94.7 340.1,95.4 341.0,96.0 341.8,96.6 342.6,97.2 343.5,97.8 344.3,98.4 345.2,99.1 346.0,99.7 346.8,100.3 347.7,101.0 348.5,101.6 349.3,102.3 350.1,102.9 351.0,103.6 351.8,104.3 352.6,105.0 353.4,105.7 354.3,106.4 355.1,107.1 355.9,107.8 356.7,108.6 357.6,109.3 358.4,110.1 359.2,110.8 360.1,111.6 360.9,112.4 361.7,113.2 362.5,114.1 363.3,114.9 364.1,115.8 365.0,116.7 365.8,117.6 366.6,118.6 367.4,119.5 368.3,120.6 369.1,121.6 369.9,122.6 370.7,123.8 371.5,124.9 372.3,126.1 373.1,127.3 373.9,128.7 374.8,130.0 375.6,131.5 376.4,133.0 377.2,134.7 378.0,136.4 378.8,138.3 379.6,140.3 380.4,142.5 381.3,144.9 382.1,147.6 382.9,150.6 383.7,153.9 384.5,157.9 L384.5,162.0 L58.2,162.0 Z" fill="url(#g532)"/>
  <defs><clipPath id="pc533"><rect x="55" y="12" width="330" height="150"/></clipPath></defs>
  <polyline points="58.2,42.0 88.3,42.0 105.9,42.0 118.4,42.0 128.1,42.0 136.0,42.0 142.7,42.0 148.5,42.0 153.6,41.9 158.2,41.9 162.3,41.9 166.1,41.9 169.6,41.9 172.8,41.9 175.8,41.8 178.6,41.8 181.2,41.8 183.7,41.8 186.0,41.7 188.3,41.7 190.4,41.7 192.4,41.6 194.3,41.6 196.2,41.6 198.0,41.5 199.7,41.5 201.3,41.5 202.9,41.4 204.4,41.4 205.9,41.4 207.3,41.3 208.7,41.3 210.0,41.2 211.3,41.2 212.6,41.2 213.8,41.1 215.0,41.1 216.1,41.0 217.3,41.0 218.4,40.9 219.4,40.9 220.5,40.8 221.5,40.8 222.5,40.8 223.5,40.7 224.4,40.7 225.4,40.6 226.3,40.6 227.2,40.5 228.1,40.5 228.9,40.5 229.8,40.4 230.6,40.4 231.4,40.4 233.0,40.3 234.5,40.2 236.0,40.2 237.4,40.2 238.8,40.1 240.1,40.1 241.4,40.1 242.7,40.2 243.9,40.2 245.1,40.3 246.2,40.4 247.4,40.5 248.5,40.6 249.5,40.8 250.6,40.9 251.6,41.1 252.6,41.4 253.6,41.6 254.5,41.9 255.5,42.2 256.4,42.5 257.3,42.8 258.1,43.1 259.0,43.5 259.8,43.8 260.7,44.2 261.5,44.5 262.7,45.1 263.8,45.7 265.0,46.3 266.1,46.9 267.1,47.5 268.2,48.1 269.2,48.7 270.2,49.3 271.2,49.9 272.1,50.5 273.1,51.1 274.0,51.7 274.9,52.2 275.7,52.8 276.6,53.4 277.5,53.9 278.3,54.4 279.1,55.0 280.1,55.7 281.2,56.3 282.2,57.0 283.2,57.6 284.1,58.3 285.1,58.9 286.0,59.5 286.9,60.1 287.8,60.7 288.7,61.2 289.5,61.8 290.4,62.3 291.2,62.9 292.0,63.4 293.0,64.0 293.9,64.7 294.9,65.3 295.8,65.9 296.7,66.5 297.6,67.0 298.4,67.6 299.3,68.2 300.1,68.7 300.9,69.2 301.7,69.7 302.7,70.4 303.6,71.0 304.5,71.5 305.4,72.1 306.3,72.7 307.1,73.2 308.0,73.8 308.8,74.3 309.6,74.8 310.5,75.4 311.4,76.0 312.3,76.6 313.2,77.1 314.0,77.7 314.8,78.2 315.6,78.8 316.4,79.3 317.3,79.9 318.2,80.4 319.1,81.0 319.9,81.6 320.8,82.1 321.6,82.6 322.5,83.2 323.3,83.8 324.2,84.4 325.1,85.0 325.9,85.5 326.7,86.1 327.6,86.6 328.5,87.2 329.3,87.8 330.1,88.4 331.0,88.9 331.8,89.5 332.6,90.1 333.5,90.7 334.3,91.2 335.1,91.8 335.9,92.4 336.8,93.0 337.6,93.6 338.5,94.2 339.3,94.7 340.1,95.4 341.0,96.0 341.8,96.6 342.6,97.2 343.5,97.8 344.3,98.4 345.2,99.1 346.0,99.7 346.8,100.3 347.7,101.0 348.5,101.6 349.3,102.3 350.1,102.9 351.0,103.6 351.8,104.3 352.6,105.0 353.4,105.7 354.3,106.4 355.1,107.1 355.9,107.8 356.7,108.6 357.6,109.3 358.4,110.1 359.2,110.8 360.1,111.6 360.9,112.4 361.7,113.2 362.5,114.1 363.3,114.9 364.1,115.8 365.0,116.7 365.8,117.6 366.6,118.6 367.4,119.5 368.3,120.6 369.1,121.6 369.9,122.6 370.7,123.8 371.5,124.9 372.3,126.1 373.1,127.3 373.9,128.7 374.8,130.0 375.6,131.5 376.4,133.0 377.2,134.7 378.0,136.4 378.8,138.3 379.6,140.3 380.4,142.5 381.3,144.9 382.1,147.6 382.9,150.6 383.7,153.9 384.5,157.9" fill="none" stroke="#4a90d9" stroke-width="1.5" stroke-linejoin="round" clip-path="url(#pc533)"/>
  <line x1="445" y1="12" x2="445" y2="162" stroke="#d1d5db"/>
  <line x1="445" y1="87.0" x2="775" y2="87.0" stroke="#d1d5db"/>
  <text x="610" y="190" text-anchor="middle" font-size="9" fill="#6b7280">Hz</text>
  <text x="419" y="87" text-anchor="middle" font-size="9" fill="#6b7280" transform="rotate(-90 419 87)">Phase (deg)</text>
  <line x1="475.1" y1="12" x2="475.1" y2="162" stroke="#e5e7eb" stroke-width="0.5"/>
  <line x1="492.7" y1="12" x2="492.7" y2="162" stroke="#e5e7eb" stroke-width="0.5"/>
  <line x1="505.2" y1="12" x2="505.2" y2="162" stroke="#e5e7eb" stroke-width="0.5"/>
  <line x1="514.9" y1="12" x2="514.9" y2="162" stroke="#e5e7eb" stroke-width="0.5"/>
  <line x1="522.8" y1="12" x2="522.8" y2="162" stroke="#e5e7eb" stroke-width="0.5"/>
  <line x1="529.5" y1="12" x2="529.5" y2="162" stroke="#e5e7eb" stroke-width="0.5"/>
  <line x1="535.3" y1="12" x2="535.3" y2="162" stroke="#e5e7eb" stroke-width="0.5"/>
  <line x1="540.4" y1="12" x2="540.4" y2="162" stroke="#e5e7eb" stroke-width="0.5"/>
  <line x1="575.1" y1="12" x2="575.1" y2="162" stroke="#e5e7eb" stroke-width="0.5"/>
  <line x1="592.7" y1="12" x2="592.7" y2="162" stroke="#e5e7eb" stroke-width="0.5"/>
  <line x1="605.2" y1="12" x2="605.2" y2="162" stroke="#e5e7eb" stroke-width="0.5"/>
  <line x1="614.8" y1="12" x2="614.8" y2="162" stroke="#e5e7eb" stroke-width="0.5"/>
  <line x1="622.8" y1="12" x2="622.8" y2="162" stroke="#e5e7eb" stroke-width="0.5"/>
  <line x1="629.5" y1="12" x2="629.5" y2="162" stroke="#e5e7eb" stroke-width="0.5"/>
  <line x1="635.2" y1="12" x2="635.2" y2="162" stroke="#e5e7eb" stroke-width="0.5"/>
  <line x1="640.4" y1="12" x2="640.4" y2="162" stroke="#e5e7eb" stroke-width="0.5"/>
  <line x1="675.0" y1="12" x2="675.0" y2="162" stroke="#e5e7eb" stroke-width="0.5"/>
  <line x1="692.6" y1="12" x2="692.6" y2="162" stroke="#e5e7eb" stroke-width="0.5"/>
  <line x1="705.1" y1="12" x2="705.1" y2="162" stroke="#e5e7eb" stroke-width="0.5"/>
  <line x1="714.8" y1="12" x2="714.8" y2="162" stroke="#e5e7eb" stroke-width="0.5"/>
  <line x1="722.7" y1="12" x2="722.7" y2="162" stroke="#e5e7eb" stroke-width="0.5"/>
  <line x1="729.4" y1="12" x2="729.4" y2="162" stroke="#e5e7eb" stroke-width="0.5"/>
  <line x1="735.2" y1="12" x2="735.2" y2="162" stroke="#e5e7eb" stroke-width="0.5"/>
  <line x1="740.3" y1="12" x2="740.3" y2="162" stroke="#e5e7eb" stroke-width="0.5"/>
  <line x1="775.0" y1="12" x2="775.0" y2="162" stroke="#e5e7eb" stroke-width="0.5"/>
  <line x1="545.0" y1="12" x2="545.0" y2="162" stroke="#e5e7eb" stroke-width="0.5"/>
  <text x="545.0" y="174" text-anchor="middle" font-size="8" fill="#6b7280">100</text>
  <line x1="644.9" y1="12" x2="644.9" y2="162" stroke="#e5e7eb" stroke-width="0.5"/>
  <text x="644.9" y="174" text-anchor="middle" font-size="8" fill="#6b7280">1k</text>
  <line x1="744.9" y1="12" x2="744.9" y2="162" stroke="#e5e7eb" stroke-width="0.5"/>
  <text x="744.9" y="174" text-anchor="middle" font-size="8" fill="#6b7280">10k</text>
  <line x1="445" y1="53.3" x2="775" y2="53.3" stroke="#e5e7eb" stroke-width="0.5"/>
  <line x1="445" y1="120.8" x2="775" y2="120.8" stroke="#e5e7eb" stroke-width="0.5"/>
  <line x1="445" y1="19.5" x2="775" y2="19.5" stroke="#e5e7eb" stroke-width="0.5"/>
  <text x="441" y="22.5" text-anchor="end" font-size="8" fill="#6b7280">180</text>
  <text x="441" y="90.0" text-anchor="end" font-size="8" fill="#6b7280">0</text>
  <line x1="445" y1="154.5" x2="775" y2="154.5" stroke="#e5e7eb" stroke-width="0.5"/>
  <text x="441" y="157.5" text-anchor="end" font-size="8" fill="#6b7280">-180</text>
  <defs><linearGradient id="g534" x1="0" y1="162" x2="0" y2="87.0" gradientUnits="userSpaceOnUse">
    <stop offset="0%" stop-color="#e74c3c" stop-opacity="0.15"/>
    <stop offset="100%" stop-color="#e74c3c" stop-opacity="0.02"/>
  </linearGradient></defs>
  <path d="M448.2,87.2 448.2,87.2 478.3,87.5 495.9,87.7 508.4,87.9 518.1,88.2 526.0,88.4 532.7,88.6 538.5,88.9 543.6,89.1 548.2,89.3 552.3,89.6 556.1,89.8 559.6,90.0 562.8,90.3 565.8,90.5 568.6,90.8 571.2,91.0 573.7,91.3 576.0,91.5 578.3,91.8 580.4,92.0 582.4,92.3 584.3,92.5 586.2,92.8 588.0,93.1 589.7,93.3 591.3,93.6 592.9,93.9 594.4,94.1 595.9,94.4 597.3,94.7 598.7,95.0 600.0,95.3 601.3,95.6 602.6,95.9 603.8,96.2 605.0,96.5 606.1,96.8 607.3,97.1 608.4,97.4 609.4,97.8 610.5,98.1 611.5,98.4 612.5,98.8 613.5,99.1 614.4,99.5 615.4,99.8 616.3,100.2 617.2,100.5 618.1,100.9 618.9,101.3 619.8,101.7 620.6,102.1 621.4,102.5 623.0,103.3 624.5,104.1 626.0,105.0 627.4,105.8 628.8,106.7 630.1,107.7 631.4,108.6 632.7,109.5 633.9,110.5 635.1,111.5 636.2,112.5 637.4,113.5 638.5,114.5 639.5,115.5 640.6,116.5 641.6,117.5 642.6,118.4 643.6,119.4 644.5,120.3 645.5,121.3 646.4,122.2 647.3,123.1 648.1,123.9 649.0,124.7 649.8,125.6 650.7,126.3 651.5,127.1 652.7,128.2 653.8,129.2 655.0,130.2 656.1,131.1 657.1,131.9 658.2,132.7 659.2,133.5 660.2,134.2 661.2,134.8 662.1,135.5 663.1,136.1 664.0,136.6 664.9,137.1 665.7,137.6 666.6,138.1 667.5,138.6 668.3,139.0 669.1,139.4 670.1,139.9 671.2,140.4 672.2,140.8 673.2,141.2 674.1,141.6 675.1,142.0 676.0,142.3 676.9,142.6 677.8,143.0 678.7,143.2 679.5,143.5 680.4,143.8 681.2,144.0 682.0,144.3 683.0,144.6 683.9,144.8 684.9,145.1 685.8,145.3 686.7,145.6 687.6,145.8 688.4,146.0 689.3,146.2 690.1,146.4 690.9,146.6 691.7,146.7 692.7,146.9 693.6,147.1 694.5,147.3 695.4,147.5 696.3,147.6 697.1,147.8 698.0,147.9 698.8,148.1 699.6,148.2 700.5,148.4 701.4,148.5 702.3,148.6 703.2,148.8 704.0,148.9 704.8,149.0 705.6,149.1 706.4,149.2 707.3,149.4 708.2,149.5 709.1,149.6 709.9,149.7 710.8,149.8 711.6,149.9 712.5,150.0 713.3,150.1 714.2,150.2 715.1,150.3 715.9,150.4 716.7,150.5 717.6,150.6 718.5,150.7 719.3,150.8 720.1,150.8 721.0,150.9 721.8,151.0 722.6,151.1 723.5,151.1 724.3,151.2 725.1,151.3 725.9,151.4 726.8,151.4 727.6,151.5 728.5,151.6 729.3,151.6 730.1,151.7 731.0,151.8 731.8,151.8 732.6,151.9 733.5,152.0 734.3,152.0 735.2,152.1 736.0,152.1 736.8,152.2 737.7,152.3 738.5,152.3 739.3,152.4 740.1,152.4 741.0,152.5 741.8,152.5 742.6,152.6 743.4,152.6 744.3,152.7 745.1,152.7 745.9,152.8 746.7,152.8 747.6,152.9 748.4,152.9 749.2,153.0 750.1,153.0 750.9,153.1 751.7,153.1 752.5,153.1 753.3,153.2 754.1,153.2 755.0,153.3 755.8,153.3 756.6,153.4 757.4,153.4 758.3,153.4 759.1,153.5 759.9,153.5 760.7,153.6 761.5,153.6 762.3,153.6 763.1,153.7 763.9,153.7 764.8,153.8 765.6,153.8 766.4,153.8 767.2,153.9 768.0,153.9 768.8,154.0 769.6,154.0 770.4,154.0 771.3,154.1 772.1,154.1 772.9,154.2 773.7,154.2 774.5,154.2 L774.5,87.0 L448.2,87.0 Z" fill="url(#g534)"/>
  <defs><clipPath id="pc535"><rect x="445" y="12" width="330" height="150"/></clipPath></defs>
  <polyline points="448.2,87.2 478.3,87.5 495.9,87.7 508.4,87.9 518.1,88.2 526.0,88.4 532.7,88.6 538.5,88.9 543.6,89.1 548.2,89.3 552.3,89.6 556.1,89.8 559.6,90.0 562.8,90.3 565.8,90.5 568.6,90.8 571.2,91.0 573.7,91.3 576.0,91.5 578.3,91.8 580.4,92.0 582.4,92.3 584.3,92.5 586.2,92.8 588.0,93.1 589.7,93.3 591.3,93.6 592.9,93.9 594.4,94.1 595.9,94.4 597.3,94.7 598.7,95.0 600.0,95.3 601.3,95.6 602.6,95.9 603.8,96.2 605.0,96.5 606.1,96.8 607.3,97.1 608.4,97.4 609.4,97.8 610.5,98.1 611.5,98.4 612.5,98.8 613.5,99.1 614.4,99.5 615.4,99.8 616.3,100.2 617.2,100.5 618.1,100.9 618.9,101.3 619.8,101.7 620.6,102.1 621.4,102.5 623.0,103.3 624.5,104.1 626.0,105.0 627.4,105.8 628.8,106.7 630.1,107.7 631.4,108.6 632.7,109.5 633.9,110.5 635.1,111.5 636.2,112.5 637.4,113.5 638.5,114.5 639.5,115.5 640.6,116.5 641.6,117.5 642.6,118.4 643.6,119.4 644.5,120.3 645.5,121.3 646.4,122.2 647.3,123.1 648.1,123.9 649.0,124.7 649.8,125.6 650.7,126.3 651.5,127.1 652.7,128.2 653.8,129.2 655.0,130.2 656.1,131.1 657.1,131.9 658.2,132.7 659.2,133.5 660.2,134.2 661.2,134.8 662.1,135.5 663.1,136.1 664.0,136.6 664.9,137.1 665.7,137.6 666.6,138.1 667.5,138.6 668.3,139.0 669.1,139.4 670.1,139.9 671.2,140.4 672.2,140.8 673.2,141.2 674.1,141.6 675.1,142.0 676.0,142.3 676.9,142.6 677.8,143.0 678.7,143.2 679.5,143.5 680.4,143.8 681.2,144.0 682.0,144.3 683.0,144.6 683.9,144.8 684.9,145.1 685.8,145.3 686.7,145.6 687.6,145.8 688.4,146.0 689.3,146.2 690.1,146.4 690.9,146.6 691.7,146.7 692.7,146.9 693.6,147.1 694.5,147.3 695.4,147.5 696.3,147.6 697.1,147.8 698.0,147.9 698.8,148.1 699.6,148.2 700.5,148.4 701.4,148.5 702.3,148.6 703.2,148.8 704.0,148.9 704.8,149.0 705.6,149.1 706.4,149.2 707.3,149.4 708.2,149.5 709.1,149.6 709.9,149.7 710.8,149.8 711.6,149.9 712.5,150.0 713.3,150.1 714.2,150.2 715.1,150.3 715.9,150.4 716.7,150.5 717.6,150.6 718.5,150.7 719.3,150.8 720.1,150.8 721.0,150.9 721.8,151.0 722.6,151.1 723.5,151.1 724.3,151.2 725.1,151.3 725.9,151.4 726.8,151.4 727.6,151.5 728.5,151.6 729.3,151.6 730.1,151.7 731.0,151.8 731.8,151.8 732.6,151.9 733.5,152.0 734.3,152.0 735.2,152.1 736.0,152.1 736.8,152.2 737.7,152.3 738.5,152.3 739.3,152.4 740.1,152.4 741.0,152.5 741.8,152.5 742.6,152.6 743.4,152.6 744.3,152.7 745.1,152.7 745.9,152.8 746.7,152.8 747.6,152.9 748.4,152.9 749.2,153.0 750.1,153.0 750.9,153.1 751.7,153.1 752.5,153.1 753.3,153.2 754.1,153.2 755.0,153.3 755.8,153.3 756.6,153.4 757.4,153.4 758.3,153.4 759.1,153.5 759.9,153.5 760.7,153.6 761.5,153.6 762.3,153.6 763.1,153.7 763.9,153.7 764.8,153.8 765.6,153.8 766.4,153.8 767.2,153.9 768.0,153.9 768.8,154.0 769.6,154.0 770.4,154.0 771.3,154.1 772.1,154.1 772.9,154.2 773.7,154.2 774.5,154.2" fill="none" stroke="#e74c3c" stroke-width="1.5" stroke-linejoin="round" clip-path="url(#pc535)"/>
  <line x1="55" y1="210" x2="55" y2="360" stroke="#d1d5db"/>
  <line x1="55" y1="285.0" x2="385" y2="285.0" stroke="#d1d5db"/>
  <text x="220" y="388" text-anchor="middle" font-size="9" fill="#6b7280">Hz</text>
  <text x="29" y="285" text-anchor="middle" font-size="9" fill="#6b7280" transform="rotate(-90 29 285)">Group delay</text>
  <line x1="85.1" y1="210" x2="85.1" y2="360" stroke="#e5e7eb" stroke-width="0.5"/>
  <line x1="102.7" y1="210" x2="102.7" y2="360" stroke="#e5e7eb" stroke-width="0.5"/>
  <line x1="115.2" y1="210" x2="115.2" y2="360" stroke="#e5e7eb" stroke-width="0.5"/>
  <line x1="124.9" y1="210" x2="124.9" y2="360" stroke="#e5e7eb" stroke-width="0.5"/>
  <line x1="132.8" y1="210" x2="132.8" y2="360" stroke="#e5e7eb" stroke-width="0.5"/>
  <line x1="139.5" y1="210" x2="139.5" y2="360" stroke="#e5e7eb" stroke-width="0.5"/>
  <line x1="145.3" y1="210" x2="145.3" y2="360" stroke="#e5e7eb" stroke-width="0.5"/>
  <line x1="150.4" y1="210" x2="150.4" y2="360" stroke="#e5e7eb" stroke-width="0.5"/>
  <line x1="185.1" y1="210" x2="185.1" y2="360" stroke="#e5e7eb" stroke-width="0.5"/>
  <line x1="202.7" y1="210" x2="202.7" y2="360" stroke="#e5e7eb" stroke-width="0.5"/>
  <line x1="215.2" y1="210" x2="215.2" y2="360" stroke="#e5e7eb" stroke-width="0.5"/>
  <line x1="224.8" y1="210" x2="224.8" y2="360" stroke="#e5e7eb" stroke-width="0.5"/>
  <line x1="232.8" y1="210" x2="232.8" y2="360" stroke="#e5e7eb" stroke-width="0.5"/>
  <line x1="239.5" y1="210" x2="239.5" y2="360" stroke="#e5e7eb" stroke-width="0.5"/>
  <line x1="245.2" y1="210" x2="245.2" y2="360" stroke="#e5e7eb" stroke-width="0.5"/>
  <line x1="250.4" y1="210" x2="250.4" y2="360" stroke="#e5e7eb" stroke-width="0.5"/>
  <line x1="285.0" y1="210" x2="285.0" y2="360" stroke="#e5e7eb" stroke-width="0.5"/>
  <line x1="302.6" y1="210" x2="302.6" y2="360" stroke="#e5e7eb" stroke-width="0.5"/>
  <line x1="315.1" y1="210" x2="315.1" y2="360" stroke="#e5e7eb" stroke-width="0.5"/>
  <line x1="324.8" y1="210" x2="324.8" y2="360" stroke="#e5e7eb" stroke-width="0.5"/>
  <line x1="332.7" y1="210" x2="332.7" y2="360" stroke="#e5e7eb" stroke-width="0.5"/>
  <line x1="339.4" y1="210" x2="339.4" y2="360" stroke="#e5e7eb" stroke-width="0.5"/>
  <line x1="345.2" y1="210" x2="345.2" y2="360" stroke="#e5e7eb" stroke-width="0.5"/>
  <line x1="350.3" y1="210" x2="350.3" y2="360" stroke="#e5e7eb" stroke-width="0.5"/>
  <line x1="385.0" y1="210" x2="385.0" y2="360" stroke="#e5e7eb" stroke-width="0.5"/>
  <line x1="155.0" y1="210" x2="155.0" y2="360" stroke="#e5e7eb" stroke-width="0.5"/>
  <text x="155.0" y="372" text-anchor="middle" font-size="8" fill="#6b7280">100</text>
  <line x1="254.9" y1="210" x2="254.9" y2="360" stroke="#e5e7eb" stroke-width="0.5"/>
  <text x="254.9" y="372" text-anchor="middle" font-size="8" fill="#6b7280">1k</text>
  <line x1="354.9" y1="210" x2="354.9" y2="360" stroke="#e5e7eb" stroke-width="0.5"/>
  <text x="354.9" y="372" text-anchor="middle" font-size="8" fill="#6b7280">10k</text>
  <line x1="55" y1="323.1" x2="385" y2="323.1" stroke="#e5e7eb" stroke-width="0.5"/>
  <text x="51" y="326.1" text-anchor="end" font-size="8" fill="#6b7280">-10</text>
  <text x="51" y="288.0" text-anchor="end" font-size="8" fill="#6b7280">0</text>
  <line x1="55" y1="246.9" x2="385" y2="246.9" stroke="#e5e7eb" stroke-width="0.5"/>
  <text x="51" y="249.9" text-anchor="end" font-size="8" fill="#6b7280">10</text>
  <defs><linearGradient id="g536" x1="0" y1="210" x2="0" y2="285.0" gradientUnits="userSpaceOnUse">
    <stop offset="0%" stop-color="#2ecc71" stop-opacity="0.15"/>
    <stop offset="100%" stop-color="#2ecc71" stop-opacity="0.02"/>
  </linearGradient></defs>
  <path d="M58.2,258.3 58.2,258.3 88.3,258.3 105.9,258.3 118.4,258.2 128.1,258.2 136.0,258.1 142.7,258.0 148.5,257.9 153.6,257.8 158.2,257.7 162.3,257.6 166.1,257.4 169.6,257.3 172.8,257.1 175.8,256.9 178.6,256.7 181.2,256.5 183.7,256.3 186.0,256.0 188.3,255.8 190.4,255.5 192.4,255.2 194.3,255.0 196.2,254.6 198.0,254.3 199.7,254.0 201.3,253.6 202.9,253.3 204.4,252.9 205.9,252.5 207.3,252.1 208.7,251.7 210.0,251.2 211.3,250.8 212.6,250.3 213.8,249.8 215.0,249.3 216.1,248.8 217.3,248.3 218.4,247.7 219.4,247.2 220.5,246.6 221.5,246.0 222.5,245.4 223.5,244.8 224.4,244.2 225.4,243.6 226.3,242.9 227.2,242.3 228.1,241.6 228.9,241.0 229.8,240.3 230.6,239.6 231.4,239.0 233.0,237.6 234.5,236.3 236.0,235.0 237.4,233.7 238.8,232.5 240.1,231.4 241.4,230.3 242.7,229.4 243.9,228.7 245.1,228.1 246.2,227.6 247.4,227.4 248.5,227.3 249.5,227.4 250.6,227.8 251.6,228.3 252.6,229.0 253.6,229.9 254.5,230.9 255.5,232.0 256.4,233.3 257.3,234.7 258.1,236.1 259.0,237.6 259.8,239.1 260.7,240.7 261.5,242.2 262.7,244.6 263.8,246.8 265.0,249.1 266.1,251.2 267.1,253.2 268.2,255.1 269.2,256.8 270.2,258.5 271.2,260.1 272.1,261.5 273.1,262.9 274.0,264.1 274.9,265.3 275.7,266.4 276.6,267.4 277.5,268.3 278.3,269.2 279.1,270.0 280.1,270.9 281.2,271.8 282.2,272.7 283.2,273.4 284.1,274.1 285.1,274.7 286.0,275.3 286.9,275.8 287.8,276.3 288.7,276.7 289.5,277.2 290.4,277.5 291.2,277.9 292.0,278.2 293.0,278.6 293.9,279.0 294.9,279.3 295.8,279.6 296.7,279.8 297.6,280.1 298.4,280.3 299.3,280.5 300.1,280.7 300.9,280.9 301.7,281.1 302.7,281.3 303.6,281.5 304.5,281.7 305.4,281.8 306.3,282.0 307.1,282.1 308.0,282.2 308.8,282.3 309.6,282.4 310.5,282.6 311.4,282.7 312.3,282.8 313.2,282.9 314.0,283.0 314.8,283.0 315.6,283.1 316.4,283.2 317.3,283.3 318.2,283.3 319.1,283.4 319.9,283.5 320.8,283.5 321.6,283.6 322.5,283.7 323.3,283.7 324.2,283.8 325.1,283.8 325.9,283.9 326.7,283.9 327.6,283.9 328.5,284.0 329.3,284.0 330.1,284.1 331.0,284.1 331.8,284.1 332.6,284.2 333.5,284.2 334.3,284.2 335.1,284.3 335.9,284.3 336.8,284.3 337.6,284.3 338.5,284.4 339.3,284.4 340.1,284.4 341.0,284.4 341.8,284.4 342.6,284.5 343.5,284.5 344.3,284.5 345.2,284.5 346.0,284.5 346.8,284.6 347.7,284.6 348.5,284.6 349.3,284.6 350.1,284.6 351.0,284.6 351.8,284.6 352.6,284.6 353.4,284.7 354.3,284.7 355.1,284.7 355.9,284.7 356.7,284.7 357.6,284.7 358.4,284.7 359.2,284.7 360.1,284.7 360.9,284.7 361.7,284.7 362.5,284.8 363.3,284.8 364.1,284.8 365.0,284.8 365.8,284.8 366.6,284.8 367.4,284.8 368.3,284.8 369.1,284.8 369.9,284.8 370.7,284.8 371.5,284.8 372.3,284.8 373.1,284.8 373.9,284.8 374.8,284.8 375.6,284.8 376.4,284.8 377.2,284.8 378.0,284.8 378.8,284.8 379.6,284.9 380.4,284.9 381.3,284.9 382.1,284.9 382.9,284.9 383.7,284.9 384.5,284.9 L384.5,285.0 L58.2,285.0 Z" fill="url(#g536)"/>
  <defs><clipPath id="pc537"><rect x="55" y="210" width="330" height="150"/></clipPath></defs>
  <polyline points="58.2,258.3 88.3,258.3 105.9,258.3 118.4,258.2 128.1,258.2 136.0,258.1 142.7,258.0 148.5,257.9 153.6,257.8 158.2,257.7 162.3,257.6 166.1,257.4 169.6,257.3 172.8,257.1 175.8,256.9 178.6,256.7 181.2,256.5 183.7,256.3 186.0,256.0 188.3,255.8 190.4,255.5 192.4,255.2 194.3,255.0 196.2,254.6 198.0,254.3 199.7,254.0 201.3,253.6 202.9,253.3 204.4,252.9 205.9,252.5 207.3,252.1 208.7,251.7 210.0,251.2 211.3,250.8 212.6,250.3 213.8,249.8 215.0,249.3 216.1,248.8 217.3,248.3 218.4,247.7 219.4,247.2 220.5,246.6 221.5,246.0 222.5,245.4 223.5,244.8 224.4,244.2 225.4,243.6 226.3,242.9 227.2,242.3 228.1,241.6 228.9,241.0 229.8,240.3 230.6,239.6 231.4,239.0 233.0,237.6 234.5,236.3 236.0,235.0 237.4,233.7 238.8,232.5 240.1,231.4 241.4,230.3 242.7,229.4 243.9,228.7 245.1,228.1 246.2,227.6 247.4,227.4 248.5,227.3 249.5,227.4 250.6,227.8 251.6,228.3 252.6,229.0 253.6,229.9 254.5,230.9 255.5,232.0 256.4,233.3 257.3,234.7 258.1,236.1 259.0,237.6 259.8,239.1 260.7,240.7 261.5,242.2 262.7,244.6 263.8,246.8 265.0,249.1 266.1,251.2 267.1,253.2 268.2,255.1 269.2,256.8 270.2,258.5 271.2,260.1 272.1,261.5 273.1,262.9 274.0,264.1 274.9,265.3 275.7,266.4 276.6,267.4 277.5,268.3 278.3,269.2 279.1,270.0 280.1,270.9 281.2,271.8 282.2,272.7 283.2,273.4 284.1,274.1 285.1,274.7 286.0,275.3 286.9,275.8 287.8,276.3 288.7,276.7 289.5,277.2 290.4,277.5 291.2,277.9 292.0,278.2 293.0,278.6 293.9,279.0 294.9,279.3 295.8,279.6 296.7,279.8 297.6,280.1 298.4,280.3 299.3,280.5 300.1,280.7 300.9,280.9 301.7,281.1 302.7,281.3 303.6,281.5 304.5,281.7 305.4,281.8 306.3,282.0 307.1,282.1 308.0,282.2 308.8,282.3 309.6,282.4 310.5,282.6 311.4,282.7 312.3,282.8 313.2,282.9 314.0,283.0 314.8,283.0 315.6,283.1 316.4,283.2 317.3,283.3 318.2,283.3 319.1,283.4 319.9,283.5 320.8,283.5 321.6,283.6 322.5,283.7 323.3,283.7 324.2,283.8 325.1,283.8 325.9,283.9 326.7,283.9 327.6,283.9 328.5,284.0 329.3,284.0 330.1,284.1 331.0,284.1 331.8,284.1 332.6,284.2 333.5,284.2 334.3,284.2 335.1,284.3 335.9,284.3 336.8,284.3 337.6,284.3 338.5,284.4 339.3,284.4 340.1,284.4 341.0,284.4 341.8,284.4 342.6,284.5 343.5,284.5 344.3,284.5 345.2,284.5 346.0,284.5 346.8,284.6 347.7,284.6 348.5,284.6 349.3,284.6 350.1,284.6 351.0,284.6 351.8,284.6 352.6,284.6 353.4,284.7 354.3,284.7 355.1,284.7 355.9,284.7 356.7,284.7 357.6,284.7 358.4,284.7 359.2,284.7 360.1,284.7 360.9,284.7 361.7,284.7 362.5,284.8 363.3,284.8 364.1,284.8 365.0,284.8 365.8,284.8 366.6,284.8 367.4,284.8 368.3,284.8 369.1,284.8 369.9,284.8 370.7,284.8 371.5,284.8 372.3,284.8 373.1,284.8 373.9,284.8 374.8,284.8 375.6,284.8 376.4,284.8 377.2,284.8 378.0,284.8 378.8,284.8 379.6,284.9 380.4,284.9 381.3,284.9 382.1,284.9 382.9,284.9 383.7,284.9 384.5,284.9" fill="none" stroke="#2ecc71" stroke-width="1.5" stroke-linejoin="round" clip-path="url(#pc537)"/>
  <line x1="445" y1="210" x2="445" y2="360" stroke="#d1d5db"/>
  <line x1="445" y1="285.0" x2="775" y2="285.0" stroke="#d1d5db"/>
  <text x="610" y="388" text-anchor="middle" font-size="9" fill="#6b7280">Samples</text>
  <text x="419" y="285" text-anchor="middle" font-size="9" fill="#6b7280" transform="rotate(-90 419 285)">Impulse response</text>
  <line x1="445.0" y1="210" x2="445.0" y2="360" stroke="#e5e7eb" stroke-width="0.5"/>
  <text x="445.0" y="372" text-anchor="middle" font-size="8" fill="#6b7280">0</text>
  <line x1="561.0" y1="210" x2="561.0" y2="360" stroke="#e5e7eb" stroke-width="0.5"/>
  <text x="561.0" y="372" text-anchor="middle" font-size="8" fill="#6b7280">90</text>
  <line x1="677.0" y1="210" x2="677.0" y2="360" stroke="#e5e7eb" stroke-width="0.5"/>
  <text x="677.0" y="372" text-anchor="middle" font-size="8" fill="#6b7280">180</text>
  <line x1="445" y1="343.0" x2="775" y2="343.0" stroke="#e5e7eb" stroke-width="0.5"/>
  <text x="441" y="346.0" text-anchor="end" font-size="8" fill="#6b7280">-0.06</text>
  <text x="441" y="288.0" text-anchor="end" font-size="8" fill="#6b7280">0</text>
  <line x1="445" y1="227.0" x2="775" y2="227.0" stroke="#e5e7eb" stroke-width="0.5"/>
  <text x="441" y="230.0" text-anchor="end" font-size="8" fill="#6b7280">0.06</text>
  <defs><linearGradient id="g538" x1="0" y1="210" x2="0" y2="285.0" gradientUnits="userSpaceOnUse">
    <stop offset="0%" stop-color="#f39c12" stop-opacity="0.15"/>
    <stop offset="100%" stop-color="#f39c12" stop-opacity="0.02"/>
  </linearGradient></defs>
  <defs><linearGradient id="g539" x1="0" y1="360" x2="0" y2="285.0" gradientUnits="userSpaceOnUse">
    <stop offset="0%" stop-color="#f39c12" stop-opacity="0.15"/>
    <stop offset="100%" stop-color="#f39c12" stop-opacity="0.02"/>
  </linearGradient></defs>
  <defs><clipPath id="c540"><rect x="445" y="210" width="330" height="75.0"/></clipPath></defs>
  <defs><clipPath id="c541"><rect x="445" y="285.0" width="330" height="75.0"/></clipPath></defs>
  <path d="M445.0,280.4 445.0,280.4 446.3,267.4 447.6,251.8 448.9,239.0 450.2,228.7 451.4,220.9 452.7,215.3 454.0,211.7 455.3,210.0 456.6,210.0 457.9,211.4 459.2,214.0 460.5,217.6 461.8,222.0 463.0,227.0 464.3,232.4 465.6,238.1 466.9,244.0 468.2,249.8 469.5,255.5 470.8,261.1 472.1,266.3 473.4,271.2 474.6,275.8 475.9,279.8 477.2,283.5 478.5,286.7 479.8,289.4 481.1,291.7 482.4,293.6 483.7,295.0 485.0,296.1 486.3,296.8 487.5,297.2 488.8,297.3 490.1,297.2 491.4,296.9 492.7,296.3 494.0,295.7 495.3,294.9 496.6,294.0 497.9,293.1 499.1,292.1 500.4,291.2 501.7,290.2 503.0,289.3 504.3,288.4 505.6,287.6 506.9,286.8 508.2,286.1 509.5,285.5 510.7,284.9 512.0,284.5 513.3,284.0 514.6,283.7 515.9,283.4 517.2,283.2 518.5,283.1 519.8,283.0 521.1,283.0 522.3,283.0 523.6,283.0 524.9,283.1 526.2,283.2 527.5,283.3 528.8,283.5 530.1,283.6 531.4,283.8 532.7,283.9 533.9,284.1 535.2,284.2 536.5,284.4 537.8,284.5 539.1,284.7 540.4,284.8 541.7,284.9 543.0,285.0 544.3,285.1 545.5,285.1 546.8,285.2 548.1,285.2 549.4,285.3 550.7,285.3 552.0,285.3 553.3,285.3 554.6,285.3 555.9,285.3 557.1,285.3 558.4,285.3 559.7,285.3 561.0,285.3 562.3,285.2 563.6,285.2 564.9,285.2 566.2,285.2 567.5,285.1 568.8,285.1 570.0,285.1 571.3,285.1 572.6,285.0 573.9,285.0 575.2,285.0 576.5,285.0 577.8,285.0 579.1,285.0 580.4,285.0 581.6,285.0 582.9,285.0 584.2,284.9 585.5,284.9 586.8,284.9 588.1,284.9 589.4,284.9 590.7,284.9 592.0,285.0 593.2,285.0 594.5,285.0 595.8,285.0 597.1,285.0 598.4,285.0 599.7,285.0 601.0,285.0 602.3,285.0 603.6,285.0 604.8,285.0 606.1,285.0 607.4,285.0 608.7,285.0 610.0,285.0 611.3,285.0 612.6,285.0 613.9,285.0 615.2,285.0 616.4,285.0 617.7,285.0 619.0,285.0 620.3,285.0 621.6,285.0 622.9,285.0 624.2,285.0 625.5,285.0 626.8,285.0 628.0,285.0 629.3,285.0 630.6,285.0 631.9,285.0 633.2,285.0 634.5,285.0 635.8,285.0 637.1,285.0 638.4,285.0 639.6,285.0 640.9,285.0 642.2,285.0 643.5,285.0 644.8,285.0 646.1,285.0 647.4,285.0 648.7,285.0 650.0,285.0 651.3,285.0 652.5,285.0 653.8,285.0 655.1,285.0 656.4,285.0 657.7,285.0 659.0,285.0 660.3,285.0 661.6,285.0 662.9,285.0 664.1,285.0 665.4,285.0 666.7,285.0 668.0,285.0 669.3,285.0 670.6,285.0 671.9,285.0 673.2,285.0 674.5,285.0 675.7,285.0 677.0,285.0 678.3,285.0 679.6,285.0 680.9,285.0 682.2,285.0 683.5,285.0 684.8,285.0 686.1,285.0 687.3,285.0 688.6,285.0 689.9,285.0 691.2,285.0 692.5,285.0 693.8,285.0 695.1,285.0 696.4,285.0 697.7,285.0 698.9,285.0 700.2,285.0 701.5,285.0 702.8,285.0 704.1,285.0 705.4,285.0 706.7,285.0 708.0,285.0 709.3,285.0 710.5,285.0 711.8,285.0 713.1,285.0 714.4,285.0 715.7,285.0 717.0,285.0 718.3,285.0 719.6,285.0 720.9,285.0 722.1,285.0 723.4,285.0 724.7,285.0 726.0,285.0 727.3,285.0 728.6,285.0 729.9,285.0 731.2,285.0 732.5,285.0 733.8,285.0 735.0,285.0 736.3,285.0 737.6,285.0 738.9,285.0 740.2,285.0 741.5,285.0 742.8,285.0 744.1,285.0 745.4,285.0 746.6,285.0 747.9,285.0 749.2,285.0 750.5,285.0 751.8,285.0 753.1,285.0 754.4,285.0 755.7,285.0 757.0,285.0 758.2,285.0 759.5,285.0 760.8,285.0 762.1,285.0 763.4,285.0 764.7,285.0 766.0,285.0 767.3,285.0 768.6,285.0 769.8,285.0 771.1,285.0 772.4,285.0 773.7,285.0 L773.7,285.0 L445.0,285.0 Z" fill="url(#g538)" clip-path="url(#c540)"/>
  <path d="M445.0,280.4 445.0,280.4 446.3,267.4 447.6,251.8 448.9,239.0 450.2,228.7 451.4,220.9 452.7,215.3 454.0,211.7 455.3,210.0 456.6,210.0 457.9,211.4 459.2,214.0 460.5,217.6 461.8,222.0 463.0,227.0 464.3,232.4 465.6,238.1 466.9,244.0 468.2,249.8 469.5,255.5 470.8,261.1 472.1,266.3 473.4,271.2 474.6,275.8 475.9,279.8 477.2,283.5 478.5,286.7 479.8,289.4 481.1,291.7 482.4,293.6 483.7,295.0 485.0,296.1 486.3,296.8 487.5,297.2 488.8,297.3 490.1,297.2 491.4,296.9 492.7,296.3 494.0,295.7 495.3,294.9 496.6,294.0 497.9,293.1 499.1,292.1 500.4,291.2 501.7,290.2 503.0,289.3 504.3,288.4 505.6,287.6 506.9,286.8 508.2,286.1 509.5,285.5 510.7,284.9 512.0,284.5 513.3,284.0 514.6,283.7 515.9,283.4 517.2,283.2 518.5,283.1 519.8,283.0 521.1,283.0 522.3,283.0 523.6,283.0 524.9,283.1 526.2,283.2 527.5,283.3 528.8,283.5 530.1,283.6 531.4,283.8 532.7,283.9 533.9,284.1 535.2,284.2 536.5,284.4 537.8,284.5 539.1,284.7 540.4,284.8 541.7,284.9 543.0,285.0 544.3,285.1 545.5,285.1 546.8,285.2 548.1,285.2 549.4,285.3 550.7,285.3 552.0,285.3 553.3,285.3 554.6,285.3 555.9,285.3 557.1,285.3 558.4,285.3 559.7,285.3 561.0,285.3 562.3,285.2 563.6,285.2 564.9,285.2 566.2,285.2 567.5,285.1 568.8,285.1 570.0,285.1 571.3,285.1 572.6,285.0 573.9,285.0 575.2,285.0 576.5,285.0 577.8,285.0 579.1,285.0 580.4,285.0 581.6,285.0 582.9,285.0 584.2,284.9 585.5,284.9 586.8,284.9 588.1,284.9 589.4,284.9 590.7,284.9 592.0,285.0 593.2,285.0 594.5,285.0 595.8,285.0 597.1,285.0 598.4,285.0 599.7,285.0 601.0,285.0 602.3,285.0 603.6,285.0 604.8,285.0 606.1,285.0 607.4,285.0 608.7,285.0 610.0,285.0 611.3,285.0 612.6,285.0 613.9,285.0 615.2,285.0 616.4,285.0 617.7,285.0 619.0,285.0 620.3,285.0 621.6,285.0 622.9,285.0 624.2,285.0 625.5,285.0 626.8,285.0 628.0,285.0 629.3,285.0 630.6,285.0 631.9,285.0 633.2,285.0 634.5,285.0 635.8,285.0 637.1,285.0 638.4,285.0 639.6,285.0 640.9,285.0 642.2,285.0 643.5,285.0 644.8,285.0 646.1,285.0 647.4,285.0 648.7,285.0 650.0,285.0 651.3,285.0 652.5,285.0 653.8,285.0 655.1,285.0 656.4,285.0 657.7,285.0 659.0,285.0 660.3,285.0 661.6,285.0 662.9,285.0 664.1,285.0 665.4,285.0 666.7,285.0 668.0,285.0 669.3,285.0 670.6,285.0 671.9,285.0 673.2,285.0 674.5,285.0 675.7,285.0 677.0,285.0 678.3,285.0 679.6,285.0 680.9,285.0 682.2,285.0 683.5,285.0 684.8,285.0 686.1,285.0 687.3,285.0 688.6,285.0 689.9,285.0 691.2,285.0 692.5,285.0 693.8,285.0 695.1,285.0 696.4,285.0 697.7,285.0 698.9,285.0 700.2,285.0 701.5,285.0 702.8,285.0 704.1,285.0 705.4,285.0 706.7,285.0 708.0,285.0 709.3,285.0 710.5,285.0 711.8,285.0 713.1,285.0 714.4,285.0 715.7,285.0 717.0,285.0 718.3,285.0 719.6,285.0 720.9,285.0 722.1,285.0 723.4,285.0 724.7,285.0 726.0,285.0 727.3,285.0 728.6,285.0 729.9,285.0 731.2,285.0 732.5,285.0 733.8,285.0 735.0,285.0 736.3,285.0 737.6,285.0 738.9,285.0 740.2,285.0 741.5,285.0 742.8,285.0 744.1,285.0 745.4,285.0 746.6,285.0 747.9,285.0 749.2,285.0 750.5,285.0 751.8,285.0 753.1,285.0 754.4,285.0 755.7,285.0 757.0,285.0 758.2,285.0 759.5,285.0 760.8,285.0 762.1,285.0 763.4,285.0 764.7,285.0 766.0,285.0 767.3,285.0 768.6,285.0 769.8,285.0 771.1,285.0 772.4,285.0 773.7,285.0 L773.7,285.0 L445.0,285.0 Z" fill="url(#g539)" clip-path="url(#c541)"/>
  <defs><clipPath id="pc542"><rect x="445" y="210" width="330" height="150"/></clipPath></defs>
  <polyline points="445.0,280.4 446.3,267.4 447.6,251.8 448.9,239.0 450.2,228.7 451.4,220.9 452.7,215.3 454.0,211.7 455.3,210.0 456.6,210.0 457.9,211.4 459.2,214.0 460.5,217.6 461.8,222.0 463.0,227.0 464.3,232.4 465.6,238.1 466.9,244.0 468.2,249.8 469.5,255.5 470.8,261.1 472.1,266.3 473.4,271.2 474.6,275.8 475.9,279.8 477.2,283.5 478.5,286.7 479.8,289.4 481.1,291.7 482.4,293.6 483.7,295.0 485.0,296.1 486.3,296.8 487.5,297.2 488.8,297.3 490.1,297.2 491.4,296.9 492.7,296.3 494.0,295.7 495.3,294.9 496.6,294.0 497.9,293.1 499.1,292.1 500.4,291.2 501.7,290.2 503.0,289.3 504.3,288.4 505.6,287.6 506.9,286.8 508.2,286.1 509.5,285.5 510.7,284.9 512.0,284.5 513.3,284.0 514.6,283.7 515.9,283.4 517.2,283.2 518.5,283.1 519.8,283.0 521.1,283.0 522.3,283.0 523.6,283.0 524.9,283.1 526.2,283.2 527.5,283.3 528.8,283.5 530.1,283.6 531.4,283.8 532.7,283.9 533.9,284.1 535.2,284.2 536.5,284.4 537.8,284.5 539.1,284.7 540.4,284.8 541.7,284.9 543.0,285.0 544.3,285.1 545.5,285.1 546.8,285.2 548.1,285.2 549.4,285.3 550.7,285.3 552.0,285.3 553.3,285.3 554.6,285.3 555.9,285.3 557.1,285.3 558.4,285.3 559.7,285.3 561.0,285.3 562.3,285.2 563.6,285.2 564.9,285.2 566.2,285.2 567.5,285.1 568.8,285.1 570.0,285.1 571.3,285.1 572.6,285.0 573.9,285.0 575.2,285.0 576.5,285.0 577.8,285.0 579.1,285.0 580.4,285.0 581.6,285.0 582.9,285.0 584.2,284.9 585.5,284.9 586.8,284.9 588.1,284.9 589.4,284.9 590.7,284.9 592.0,285.0 593.2,285.0 594.5,285.0 595.8,285.0 597.1,285.0 598.4,285.0 599.7,285.0 601.0,285.0 602.3,285.0 603.6,285.0 604.8,285.0 606.1,285.0 607.4,285.0 608.7,285.0 610.0,285.0 611.3,285.0 612.6,285.0 613.9,285.0 615.2,285.0 616.4,285.0 617.7,285.0 619.0,285.0 620.3,285.0 621.6,285.0 622.9,285.0 624.2,285.0 625.5,285.0 626.8,285.0 628.0,285.0 629.3,285.0 630.6,285.0 631.9,285.0 633.2,285.0 634.5,285.0 635.8,285.0 637.1,285.0 638.4,285.0 639.6,285.0 640.9,285.0 642.2,285.0 643.5,285.0 644.8,285.0 646.1,285.0 647.4,285.0 648.7,285.0 650.0,285.0 651.3,285.0 652.5,285.0 653.8,285.0 655.1,285.0 656.4,285.0 657.7,285.0 659.0,285.0 660.3,285.0 661.6,285.0 662.9,285.0 664.1,285.0 665.4,285.0 666.7,285.0 668.0,285.0 669.3,285.0 670.6,285.0 671.9,285.0 673.2,285.0 674.5,285.0 675.7,285.0 677.0,285.0 678.3,285.0 679.6,285.0 680.9,285.0 682.2,285.0 683.5,285.0 684.8,285.0 686.1,285.0 687.3,285.0 688.6,285.0 689.9,285.0 691.2,285.0 692.5,285.0 693.8,285.0 695.1,285.0 696.4,285.0 697.7,285.0 698.9,285.0 700.2,285.0 701.5,285.0 702.8,285.0 704.1,285.0 705.4,285.0 706.7,285.0 708.0,285.0 709.3,285.0 710.5,285.0 711.8,285.0 713.1,285.0 714.4,285.0 715.7,285.0 717.0,285.0 718.3,285.0 719.6,285.0 720.9,285.0 722.1,285.0 723.4,285.0 724.7,285.0 726.0,285.0 727.3,285.0 728.6,285.0 729.9,285.0 731.2,285.0 732.5,285.0 733.8,285.0 735.0,285.0 736.3,285.0 737.6,285.0 738.9,285.0 740.2,285.0 741.5,285.0 742.8,285.0 744.1,285.0 745.4,285.0 746.6,285.0 747.9,285.0 749.2,285.0 750.5,285.0 751.8,285.0 753.1,285.0 754.4,285.0 755.7,285.0 757.0,285.0 758.2,285.0 759.5,285.0 760.8,285.0 762.1,285.0 763.4,285.0 764.7,285.0 766.0,285.0 767.3,285.0 768.6,285.0 769.8,285.0 771.1,285.0 772.4,285.0 773.7,285.0" fill="none" stroke="#f39c12" stroke-width="1.3" stroke-linejoin="round" clip-path="url(#pc542)"/>
</svg>
