<svg xmlns="http://www.w3.org/2000/svg" viewBox="0 0 800 240" style="font-family:system-ui,-apple-system,sans-serif">
  <line x1="55" y1="12" x2="55" y2="192" stroke="#d1d5db"/>
  <line x1="55" y1="192" x2="755" y2="192" stroke="#d1d5db"/>
  <text x="405" y="222" text-anchor="middle" font-size="10" fill="#6b7280">Frequency (Hz)</text>
  <text x="17" y="102" text-anchor="middle" font-size="10" fill="#6b7280" transform="rotate(-90 17 102)">Magnitude (dB)</text>
  <line x1="99.4" y1="12" x2="99.4" y2="192" stroke="#e5e7eb" stroke-width="0.5"/>
  <text x="99.4" y="205" text-anchor="middle" font-size="9" fill="#6b7280">31</text>
  <line x1="169.7" y1="12" x2="169.7" y2="192" stroke="#e5e7eb" stroke-width="0.5"/>
  <text x="169.7" y="205" text-anchor="middle" font-size="9" fill="#6b7280">62</text>
  <line x1="240.7" y1="12" x2="240.7" y2="192" stroke="#e5e7eb" stroke-width="0.5"/>
  <text x="240.7" y="205" text-anchor="middle" font-size="9" fill="#6b7280">125</text>
  <line x1="310.9" y1="12" x2="310.9" y2="192" stroke="#e5e7eb" stroke-width="0.5"/>
  <text x="310.9" y="205" text-anchor="middle" font-size="9" fill="#6b7280">250</text>
  <line x1="381.2" y1="12" x2="381.2" y2="192" stroke="#e5e7eb" stroke-width="0.5"/>
  <text x="381.2" y="205" text-anchor="middle" font-size="9" fill="#6b7280">500</text>
  <line x1="451.4" y1="12" x2="451.4" y2="192" stroke="#e5e7eb" stroke-width="0.5"/>
  <text x="451.4" y="205" text-anchor="middle" font-size="9" fill="#6b7280">1k</text>
  <line x1="521.7" y1="12" x2="521.7" y2="192" stroke="#e5e7eb" stroke-width="0.5"/>
  <text x="521.7" y="205" text-anchor="middle" font-size="9" fill="#6b7280">2k</text>
  <line x1="591.9" y1="12" x2="591.9" y2="192" stroke="#e5e7eb" stroke-width="0.5"/>
  <text x="591.9" y="205" text-anchor="middle" font-size="9" fill="#6b7280">4k</text>
  <line x1="662.1" y1="12" x2="662.1" y2="192" stroke="#e5e7eb" stroke-width="0.5"/>
  <text x="662.1" y="205" text-anchor="middle" font-size="9" fill="#6b7280">8k</text>
  <line x1="732.4" y1="12" x2="732.4" y2="192" stroke="#e5e7eb" stroke-width="0.5"/>
  <text x="732.4" y="205" text-anchor="middle" font-size="9" fill="#6b7280">16k</text>
  <line x1="55" y1="22.6" x2="755" y2="22.6" stroke="#e5e7eb" stroke-width="0.5"/>
  <text x="51" y="25.6" text-anchor="end" font-size="9" fill="#6b7280">0</text>
  <line x1="55" y1="64.9" x2="755" y2="64.9" stroke="#e5e7eb" stroke-width="0.5"/>
  <text x="51" y="67.9" text-anchor="end" font-size="9" fill="#6b7280">-20</text>
  <line x1="55" y1="107.3" x2="755" y2="107.3" stroke="#e5e7eb" stroke-width="0.5"/>
  <text x="51" y="110.3" text-anchor="end" font-size="9" fill="#6b7280">-40</text>
  <line x1="55" y1="149.6" x2="755" y2="149.6" stroke="#e5e7eb" stroke-width="0.5"/>
  <text x="51" y="152.6" text-anchor="end" font-size="9" fill="#6b7280">-60</text>
  <line x1="55" y1="192.0" x2="755" y2="192.0" stroke="#e5e7eb" stroke-width="0.5"/>
  <text x="51" y="195.0" text-anchor="end" font-size="9" fill="#6b7280">-80</text>
  <polyline points="132.7,22.6 203.0,22.7 244.1,22.7 273.2,22.9 295.8,23.0 314.3,23.3 329.9,23.5 343.4,23.9 355.4,24.3 366.1,24.8 375.7,25.5 384.5,26.3 392.6,27.3 400.2,28.5 407.1,29.9 413.7,31.8 419.8,34.0 425.6,36.9 431.1,40.6 436.3,45.5 441.2,52.4 446.0,63.6 450.5,95.4 454.8,72.5 458.9,57.9 462.9,50.3 466.7,45.3 470.4,41.7 474.0,39.0 477.4,36.8 480.7,35.1 483.9,33.6 487.0,32.5 490.1,31.4 493.0,30.6 495.9,29.9 498.6,29.2 501.3,28.7 504.0,28.2 506.5,27.8 509.0,27.4 511.5,27.1 513.9,26.8 516.2,26.5 518.5,26.2 520.7,26.0 522.9,25.8 525.0,25.6 527.1,25.5 529.2,25.3 531.2,25.2 533.1,25.0 535.1,24.9 537.0,24.8 538.8,24.7 540.6,24.6 542.4,24.5 544.2,24.4 545.9,24.4 547.6,24.3 549.3,24.2 551.0,24.1 552.6,24.1 554.2,24.0 555.7,24.0 557.3,23.9 558.8,23.9 560.3,23.8 561.8,23.8 563.2,23.7 564.7,23.7 566.1,23.7 567.5,23.6 568.9,23.6 570.2,23.6 571.6,23.5 572.9,23.5 574.2,23.5 575.5,23.5 576.8,23.4 578.0,23.4 579.3,23.4 580.5,23.4 581.7,23.3 582.9,23.3 584.1,23.3 585.3,23.3 586.4,23.3 587.6,23.2 588.7,23.2 589.8,23.2 590.9,23.2 592.0,23.2 593.1,23.2 594.2,23.2 595.3,23.1 596.3,23.1 597.3,23.1 598.4,23.1 599.4,23.1 600.4,23.1 601.4,23.1 602.4,23.1 603.4,23.0 604.3,23.0 605.3,23.0 606.2,23.0 607.2,23.0 608.1,23.0 609.1,23.0 610.0,23.0 610.9,23.0 611.8,23.0 612.7,23.0 613.6,23.0 614.4,22.9 615.3,22.9 616.2,22.9 617.0,22.9 617.9,22.9 618.7,22.9 619.5,22.9 620.4,22.9 621.2,22.9 622.0,22.9 622.8,22.9 623.6,22.9 624.4,22.9 625.2,22.9 626.0,22.9 626.8,22.9 627.5,22.9 628.3,22.8 629.0,22.8 629.8,22.8 630.6,22.8 631.3,22.8 632.0,22.8 632.8,22.8 633.5,22.8 634.2,22.8 634.9,22.8 635.6,22.8 636.3,22.8 637.0,22.8 637.7,22.8 638.4,22.8 639.1,22.8 639.8,22.8 640.5,22.8 641.2,22.8 641.8,22.8 642.5,22.8 643.1,22.8 643.8,22.8 644.5,22.8 645.1,22.8 645.7,22.8 646.4,22.8 647.0,22.8 647.7,22.8 648.3,22.8 648.9,22.7 649.5,22.7 650.1,22.7 650.8,22.7 651.4,22.7 652.0,22.7 652.6,22.7 653.2,22.7 653.8,22.7 654.3,22.7 654.9,22.7 655.5,22.7 656.1,22.7 656.7,22.7 657.3,22.7 657.8,22.7 658.4,22.7 659.0,22.7 659.5,22.7 660.1,22.7 660.6,22.7 661.2,22.7 661.7,22.7 662.3,22.7 662.8,22.7 663.4,22.7 663.9,22.7 664.4,22.7 665.0,22.7 665.5,22.7 666.0,22.7 666.5,22.7 667.1,22.7 667.6,22.7 668.1,22.7 668.6,22.7 669.1,22.7 669.6,22.7 670.1,22.7 670.6,22.7 671.1,22.7 671.6,22.7 672.1,22.7 672.6,22.7 673.1,22.7 673.6,22.7 674.1,22.7 674.6,22.7 675.1,22.7 675.5,22.7 676.0,22.7 676.5,22.7 677.0,22.7 677.4,22.7 677.9,22.7 678.4,22.7 678.8,22.7 679.3,22.7 679.8,22.7 680.2,22.7 680.7,22.7 681.1,22.7 681.6,22.7 682.0,22.7 682.5,22.7 682.9,22.7 683.4,22.7 683.8,22.7 684.2,22.7 684.7,22.7 685.1,22.7 685.5,22.7 686.0,22.6 686.4,22.6 686.8,22.6 687.3,22.6 687.7,22.6 688.1,22.6 688.5,22.6 688.9,22.6 689.4,22.6 689.8,22.6 690.2,22.6 690.6,22.6 691.0,22.6 691.4,22.6 691.8,22.6 692.2,22.6 692.6,22.6 693.1,22.6 693.5,22.6 693.9,22.6 694.3,22.6 694.6,22.6 695.0,22.6 695.4,22.6 695.8,22.6 696.2,22.6 696.6,22.6 697.0,22.6 697.4,22.6 697.8,22.6 698.1,22.6 698.5,22.6 698.9,22.6 699.3,22.6 699.7,22.6 700.0,22.6 700.4,22.6 700.8,22.6 701.2,22.6 701.5,22.6 701.9,22.6 702.3,22.6 702.6,22.6 703.0,22.6 703.4,22.6 703.7,22.6 704.1,22.6 704.5,22.6 704.8,22.6 705.2,22.6 705.5,22.6 705.9,22.6 706.2,22.6 706.6,22.6 706.9,22.6 707.3,22.6 707.6,22.6 708.0,22.6 708.3,22.6 708.7,22.6 709.0,22.6 709.4,22.6 709.7,22.6 710.0,22.6 710.4,22.6 710.7,22.6 711.1,22.6 711.4,22.6 711.7,22.6 712.1,22.6 712.4,22.6 712.7,22.6 713.1,22.6 713.4,22.6 713.7,22.6 714.0,22.6 714.4,22.6 714.7,22.6 715.0,22.6 715.3,22.6 715.7,22.6 716.0,22.6 716.3,22.6 716.6,22.6 716.9,22.6 717.3,22.6 717.6,22.6 717.9,22.6 718.2,22.6 718.5,22.6 718.8,22.6 719.1,22.6 719.5,22.6 719.8,22.6 720.1,22.6 720.4,22.6 720.7,22.6 721.0,22.6 721.3,22.6 721.6,22.6 721.9,22.6 722.2,22.6 722.5,22.6 722.8,22.6 723.1,22.6 723.4,22.6 723.7,22.6 724.0,22.6 724.3,22.6 724.6,22.6 724.9,22.6 725.2,22.6 725.5,22.6 725.8,22.6 726.1,22.6 726.3,22.6 726.6,22.6 726.9,22.6 727.2,22.6 727.5,22.6 727.8,22.6 728.1,22.6 728.3,22.6 728.6,22.6 728.9,22.6 729.2,22.6 729.5,22.6 729.8,22.6 730.0,22.6 730.3,22.6 730.6,22.6 730.9,22.6 731.1,22.6 731.4,22.6 731.7,22.6 732.0,22.6 732.2,22.6 732.5,22.6 732.8,22.6 733.1,22.6 733.3,22.6 733.6,22.6 733.9,22.6 734.1,22.6 734.4,22.6 734.7,22.6 734.9,22.6 735.2,22.6 735.5,22.6 735.7,22.6 736.0,22.6 736.3,22.6 736.5,22.6 736.8,22.6 737.0,22.6 737.3,22.6 737.6,22.6 737.8,22.6 738.1,22.6 738.3,22.6 738.6,22.6 738.9,22.6 739.1,22.6 739.4,22.6 739.6,22.6 739.9,22.6 740.1,22.6 740.4,22.6 740.6,22.6 740.9,22.6 741.1,22.6 741.4,22.6 741.6,22.6 741.9,22.6 742.1,22.6 742.4,22.6 742.6,22.6 742.9,22.6 743.1,22.6 743.4,22.6 743.6,22.6 743.8,22.6 744.1,22.6 744.3,22.6 744.6,22.6 744.8,22.6 745.1,22.6 745.3,22.6 745.5,22.6 745.8,22.6 746.0,22.6 746.3,22.6 746.5,22.6 746.7,22.6 747.0,22.6 747.2,22.6 747.4,22.6 747.7,22.6 747.9,22.6 748.1,22.6 748.4,22.6 748.6,22.6 748.8,22.6 749.1,22.6 749.3,22.6 749.5,22.6 749.8,22.6 750.0,22.6 750.2,22.6 750.4,22.6 750.7,22.6 750.9,22.6 751.1,22.6 751.4,22.6 751.6,22.6 751.8,22.6 752.0,22.6 752.3,22.6 752.5,22.6 752.7,22.6 752.9,22.6 753.2,22.6 753.4,22.6 753.6,22.6 753.8,22.6 754.0,22.6 754.3,22.6 754.5,22.6 754.7,22.6 754.9,22.6" fill="none" stroke="#4a90d9" stroke-width="1.8" stroke-linejoin="round"/>
  <text x="55" y="240" font-size="12" font-weight="600" fill="#6b7280">SVF notch, fc=1kHz, Q=1</text>
  <rect x="529" y="19" width="202" height="102" fill="white" fill-opacity="0.85" rx="3"/>
  <text x="532" y="30" font-size="8" fill="#6b7280">Coefficients</text>
  <polyline points="530.0,20.0 530.1,76.6 530.2,75.5 530.3,74.5 530.4,73.5 530.5,72.6 530.6,71.8 530.7,71.0 530.8,70.3 530.9,69.7 531.0,69.2 531.1,68.8 531.2,68.4 531.3,68.2 531.4,68.0 531.5,67.8 531.6,67.7 531.7,67.7 531.8,67.7 531.9,67.8 532.0,67.9 532.1,68.0 532.1,68.2 532.2,68.3 532.3,68.5 532.4,68.7 532.5,68.8 532.6,69.0 532.7,69.2 532.8,69.4 532.9,69.5 533.0,69.7 533.1,69.8 533.2,69.9 533.3,70.0 533.4,70.1 533.5,70.2 533.6,70.2 533.7,70.3 533.8,70.3 533.9,70.3 534.0,70.4 534.1,70.4 534.2,70.4 534.3,70.4 534.4,70.4 534.5,70.3 534.6,70.3 534.7,70.3 534.8,70.3 534.9,70.2 535.0,70.2 535.1,70.2 535.2,70.1 535.3,70.1 535.4,70.1 535.5,70.1 535.6,70.0 535.7,70.0 535.8,70.0 535.9,70.0 536.0,70.0 536.1,70.0 536.2,70.0 536.3,69.9 536.3,69.9 536.4,69.9 536.5,69.9 536.6,69.9 536.7,69.9 536.8,69.9 536.9,69.9 537.0,69.9 537.1,70.0 537.2,70.0 537.3,70.0 537.4,70.0 537.5,70.0 537.6,70.0 537.7,70.0 537.8,70.0 537.9,70.0 538.0,70.0 538.1,70.0 538.2,70.0 538.3,70.0 538.4,70.0 538.5,70.0 538.6,70.0 538.7,70.0 538.8,70.0 538.9,70.0 539.0,70.0 539.1,70.0 539.2,70.0 539.3,70.0 539.4,70.0 539.5,70.0 539.6,70.0 539.7,70.0 539.8,70.0 539.9,70.0 540.0,70.0 540.1,70.0 540.2,70.0 540.3,70.0 540.4,70.0 540.4,70.0 540.5,70.0 540.6,70.0 540.7,70.0 540.8,70.0 540.9,70.0 541.0,70.0 541.1,70.0 541.2,70.0 541.3,70.0 541.4,70.0 541.5,70.0 541.6,70.0 541.7,70.0 541.8,70.0 541.9,70.0 542.0,70.0 542.1,70.0 542.2,70.0 542.3,70.0 542.4,70.0 542.5,70.0 542.6,70.0 542.7,70.0 542.8,70.0 542.9,70.0 543.0,70.0 543.1,70.0 543.2,70.0 543.3,70.0 543.4,70.0 543.5,70.0 543.6,70.0 543.7,70.0 543.8,70.0 543.9,70.0 544.0,70.0 544.1,70.0 544.2,70.0 544.3,70.0 544.4,70.0 544.5,70.0 544.6,70.0 544.6,70.0 544.7,70.0 544.8,70.0 544.9,70.0 545.0,70.0 545.1,70.0 545.2,70.0 545.3,70.0 545.4,70.0 545.5,70.0 545.6,70.0 545.7,70.0 545.8,70.0 545.9,70.0 546.0,70.0 546.1,70.0 546.2,70.0 546.3,70.0 546.4,70.0 546.5,70.0 546.6,70.0 546.7,70.0 546.8,70.0 546.9,70.0 547.0,70.0 547.1,70.0 547.2,70.0 547.3,70.0 547.4,70.0 547.5,70.0 547.6,70.0 547.7,70.0 547.8,70.0 547.9,70.0 548.0,70.0 548.1,70.0 548.2,70.0 548.3,70.0 548.4,70.0 548.5,70.0 548.6,70.0 548.7,70.0 548.8,70.0 548.8,70.0 548.9,70.0 549.0,70.0 549.1,70.0 549.2,70.0 549.3,70.0 549.4,70.0 549.5,70.0 549.6,70.0 549.7,70.0 549.8,70.0 549.9,70.0 550.0,70.0 550.1,70.0 550.2,70.0 550.3,70.0 550.4,70.0 550.5,70.0 550.6,70.0 550.7,70.0 550.8,70.0 550.9,70.0 551.0,70.0 551.1,70.0 551.2,70.0 551.3,70.0 551.4,70.0 551.5,70.0 551.6,70.0 551.7,70.0 551.8,70.0 551.9,70.0 552.0,70.0 552.1,70.0 552.2,70.0 552.3,70.0 552.4,70.0 552.5,70.0 552.6,70.0 552.7,70.0 552.8,70.0 552.9,70.0 552.9,70.0 553.0,70.0 553.1,70.0 553.2,70.0 553.3,70.0 553.4,70.0 553.5,70.0 553.6,70.0 553.7,70.0 553.8,70.0 553.9,70.0 554.0,70.0 554.1,70.0 554.2,70.0 554.3,70.0 554.4,70.0 554.5,70.0 554.6,70.0 554.7,70.0 554.8,70.0 554.9,70.0 555.0,70.0 555.1,70.0 555.2,70.0 555.3,70.0 555.4,70.0 555.5,70.0 555.6,70.0 555.7,70.0 555.8,70.0 555.9,70.0 556.0,70.0 556.1,70.0 556.2,70.0 556.3,70.0 556.4,70.0 556.5,70.0 556.6,70.0 556.7,70.0 556.8,70.0 556.9,70.0 557.0,70.0 557.1,70.0 557.1,70.0 557.2,70.0 557.3,70.0 557.4,70.0 557.5,70.0 557.6,70.0 557.7,70.0 557.8,70.0 557.9,70.0 558.0,70.0 558.1,70.0 558.2,70.0 558.3,70.0 558.4,70.0 558.5,70.0 558.6,70.0 558.7,70.0 558.8,70.0 558.9,70.0 559.0,70.0 559.1,70.0 559.2,70.0 559.3,70.0 559.4,70.0 559.5,70.0 559.6,70.0 559.7,70.0 559.8,70.0 559.9,70.0 560.0,70.0 560.1,70.0 560.2,70.0 560.3,70.0 560.4,70.0 560.5,70.0 560.6,70.0 560.7,70.0 560.8,70.0 560.9,70.0 561.0,70.0 561.1,70.0 561.2,70.0 561.3,70.0 561.3,70.0 561.4,70.0 561.5,70.0 561.6,70.0 561.7,70.0 561.8,70.0 561.9,70.0 562.0,70.0 562.1,70.0 562.2,70.0 562.3,70.0 562.4,70.0 562.5,70.0 562.6,70.0 562.7,70.0 562.8,70.0 562.9,70.0 563.0,70.0 563.1,70.0 563.2,70.0 563.3,70.0 563.4,70.0 563.5,70.0 563.6,70.0 563.7,70.0 563.8,70.0 563.9,70.0 564.0,70.0 564.1,70.0 564.2,70.0 564.3,70.0 564.4,70.0 564.5,70.0 564.6,70.0 564.7,70.0 564.8,70.0 564.9,70.0 565.0,70.0 565.1,70.0 565.2,70.0 565.3,70.0 565.4,70.0 565.4,70.0 565.5,70.0 565.6,70.0 565.7,70.0 565.8,70.0 565.9,70.0 566.0,70.0 566.1,70.0 566.2,70.0 566.3,70.0 566.4,70.0 566.5,70.0 566.6,70.0 566.7,70.0 566.8,70.0 566.9,70.0 567.0,70.0 567.1,70.0 567.2,70.0 567.3,70.0 567.4,70.0 567.5,70.0 567.6,70.0 567.7,70.0 567.8,70.0 567.9,70.0 568.0,70.0 568.1,70.0 568.2,70.0 568.3,70.0 568.4,70.0 568.5,70.0 568.6,70.0 568.7,70.0 568.8,70.0 568.9,70.0 569.0,70.0 569.1,70.0 569.2,70.0 569.3,70.0 569.4,70.0 569.5,70.0 569.6,70.0 569.6,70.0 569.7,70.0 569.8,70.0 569.9,70.0 570.0,70.0 570.1,70.0 570.2,70.0 570.3,70.0 570.4,70.0 570.5,70.0 570.6,70.0 570.7,70.0 570.8,70.0 570.9,70.0 571.0,70.0 571.1,70.0 571.2,70.0 571.3,70.0 571.4,70.0 571.5,70.0 571.6,70.0 571.7,70.0 571.8,70.0 571.9,70.0 572.0,70.0 572.1,70.0 572.2,70.0 572.3,70.0 572.4,70.0 572.5,70.0 572.6,70.0 572.7,70.0 572.8,70.0 572.9,70.0 573.0,70.0 573.1,70.0 573.2,70.0 573.3,70.0 573.4,70.0 573.5,70.0 573.6,70.0 573.7,70.0 573.8,70.0 573.8,70.0 573.9,70.0 574.0,70.0 574.1,70.0 574.2,70.0 574.3,70.0 574.4,70.0 574.5,70.0 574.6,70.0 574.7,70.0 574.8,70.0 574.9,70.0 575.0,70.0 575.1,70.0 575.2,70.0 575.3,70.0 575.4,70.0 575.5,70.0 575.6,70.0 575.7,70.0 575.8,70.0 575.9,70.0 576.0,70.0 576.1,70.0 576.2,70.0 576.3,70.0 576.4,70.0 576.5,70.0 576.6,70.0 576.7,70.0 576.8,70.0 576.9,70.0 577.0,70.0 577.1,70.0 577.2,70.0 577.3,70.0 577.4,70.0 577.5,70.0 577.6,70.0 577.7,70.0 577.8,70.0 577.9,70.0 577.9,70.0 578.0,70.0 578.1,70.0 578.2,70.0 578.3,70.0 578.4,70.0 578.5,70.0 578.6,70.0 578.7,70.0 578.8,70.0 578.9,70.0 579.0,70.0 579.1,70.0 579.2,70.0 579.3,70.0 579.4,70.0 579.5,70.0 579.6,70.0 579.7,70.0 579.8,70.0 579.9,70.0 580.0,70.0 580.1,70.0 580.2,70.0 580.3,70.0 580.4,70.0 580.5,70.0 580.6,70.0 580.7,70.0 580.8,70.0 580.9,70.0 581.0,70.0 581.1,70.0 581.2,70.0 581.3,70.0 581.4,70.0 581.5,70.0 581.6,70.0 581.7,70.0 581.8,70.0 581.9,70.0 582.0,70.0 582.1,70.0 582.1,70.0 582.2,70.0 582.3,70.0 582.4,70.0 582.5,70.0 582.6,70.0 582.7,70.0 582.8,70.0 582.9,70.0 583.0,70.0 583.1,70.0 583.2,70.0 583.3,70.0 583.4,70.0 583.5,70.0 583.6,70.0 583.7,70.0 583.8,70.0 583.9,70.0 584.0,70.0 584.1,70.0 584.2,70.0 584.3,70.0 584.4,70.0 584.5,70.0 584.6,70.0 584.7,70.0 584.8,70.0 584.9,70.0 585.0,70.0 585.1,70.0 585.2,70.0 585.3,70.0 585.4,70.0 585.5,70.0 585.6,70.0 585.7,70.0 585.8,70.0 585.9,70.0 586.0,70.0 586.1,70.0 586.2,70.0 586.3,70.0 586.3,70.0 586.4,70.0 586.5,70.0 586.6,70.0 586.7,70.0 586.8,70.0 586.9,70.0 587.0,70.0 587.1,70.0 587.2,70.0 587.3,70.0 587.4,70.0 587.5,70.0 587.6,70.0 587.7,70.0 587.8,70.0 587.9,70.0 588.0,70.0 588.1,70.0 588.2,70.0 588.3,70.0 588.4,70.0 588.5,70.0 588.6,70.0 588.7,70.0 588.8,70.0 588.9,70.0 589.0,70.0 589.1,70.0 589.2,70.0 589.3,70.0 589.4,70.0 589.5,70.0 589.6,70.0 589.7,70.0 589.8,70.0 589.9,70.0 590.0,70.0 590.1,70.0 590.2,70.0 590.3,70.0 590.4,70.0 590.4,70.0 590.5,70.0 590.6,70.0 590.7,70.0 590.8,70.0 590.9,70.0 591.0,70.0 591.1,70.0 591.2,70.0 591.3,70.0 591.4,70.0 591.5,70.0 591.6,70.0 591.7,70.0 591.8,70.0 591.9,70.0 592.0,70.0 592.1,70.0 592.2,70.0 592.3,70.0 592.4,70.0 592.5,70.0 592.6,70.0 592.7,70.0 592.8,70.0 592.9,70.0 593.0,70.0 593.1,70.0 593.2,70.0 593.3,70.0 593.4,70.0 593.5,70.0 593.6,70.0 593.7,70.0 593.8,70.0 593.9,70.0 594.0,70.0 594.1,70.0 594.2,70.0 594.3,70.0 594.4,70.0 594.5,70.0 594.6,70.0 594.6,70.0 594.7,70.0 594.8,70.0 594.9,70.0 595.0,70.0 595.1,70.0 595.2,70.0 595.3,70.0 595.4,70.0 595.5,70.0 595.6,70.0 595.7,70.0 595.8,70.0 595.9,70.0 596.0,70.0 596.1,70.0 596.2,70.0 596.3,70.0 596.4,70.0 596.5,70.0 596.6,70.0 596.7,70.0 596.8,70.0 596.9,70.0 597.0,70.0 597.1,70.0 597.2,70.0 597.3,70.0 597.4,70.0 597.5,70.0 597.6,70.0 597.7,70.0 597.8,70.0 597.9,70.0 598.0,70.0 598.1,70.0 598.2,70.0 598.3,70.0 598.4,70.0 598.5,70.0 598.6,70.0 598.7,70.0 598.8,70.0 598.8,70.0 598.9,70.0 599.0,70.0 599.1,70.0 599.2,70.0 599.3,70.0 599.4,70.0 599.5,70.0 599.6,70.0 599.7,70.0 599.8,70.0 599.9,70.0 600.0,70.0 600.1,70.0 600.2,70.0 600.3,70.0 600.4,70.0 600.5,70.0 600.6,70.0 600.7,70.0 600.8,70.0 600.9,70.0 601.0,70.0 601.1,70.0 601.2,70.0 601.3,70.0 601.4,70.0 601.5,70.0 601.6,70.0 601.7,70.0 601.8,70.0 601.9,70.0 602.0,70.0 602.1,70.0 602.2,70.0 602.3,70.0 602.4,70.0 602.5,70.0 602.6,70.0 602.7,70.0 602.8,70.0 602.9,70.0 602.9,70.0 603.0,70.0 603.1,70.0 603.2,70.0 603.3,70.0 603.4,70.0 603.5,70.0 603.6,70.0 603.7,70.0 603.8,70.0 603.9,70.0 604.0,70.0 604.1,70.0 604.2,70.0 604.3,70.0 604.4,70.0 604.5,70.0 604.6,70.0 604.7,70.0 604.8,70.0 604.9,70.0 605.0,70.0 605.1,70.0 605.2,70.0 605.3,70.0 605.4,70.0 605.5,70.0 605.6,70.0 605.7,70.0 605.8,70.0 605.9,70.0 606.0,70.0 606.1,70.0 606.2,70.0 606.3,70.0 606.4,70.0 606.5,70.0 606.6,70.0 606.7,70.0 606.8,70.0 606.9,70.0 607.0,70.0 607.1,70.0 607.1,70.0 607.2,70.0 607.3,70.0 607.4,70.0 607.5,70.0 607.6,70.0 607.7,70.0 607.8,70.0 607.9,70.0 608.0,70.0 608.1,70.0 608.2,70.0 608.3,70.0 608.4,70.0 608.5,70.0 608.6,70.0 608.7,70.0 608.8,70.0 608.9,70.0 609.0,70.0 609.1,70.0 609.2,70.0 609.3,70.0 609.4,70.0 609.5,70.0 609.6,70.0 609.7,70.0 609.8,70.0 609.9,70.0 610.0,70.0 610.1,70.0 610.2,70.0 610.3,70.0 610.4,70.0 610.5,70.0 610.6,70.0 610.7,70.0 610.8,70.0 610.9,70.0 611.0,70.0 611.1,70.0 611.2,70.0 611.3,70.0 611.3,70.0 611.4,70.0 611.5,70.0 611.6,70.0 611.7,70.0 611.8,70.0 611.9,70.0 612.0,70.0 612.1,70.0 612.2,70.0 612.3,70.0 612.4,70.0 612.5,70.0 612.6,70.0 612.7,70.0 612.8,70.0 612.9,70.0 613.0,70.0 613.1,70.0 613.2,70.0 613.3,70.0 613.4,70.0 613.5,70.0 613.6,70.0 613.7,70.0 613.8,70.0 613.9,70.0 614.0,70.0 614.1,70.0 614.2,70.0 614.3,70.0 614.4,70.0 614.5,70.0 614.6,70.0 614.7,70.0 614.8,70.0 614.9,70.0 615.0,70.0 615.1,70.0 615.2,70.0 615.3,70.0 615.4,70.0 615.4,70.0 615.5,70.0 615.6,70.0 615.7,70.0 615.8,70.0 615.9,70.0 616.0,70.0 616.1,70.0 616.2,70.0 616.3,70.0 616.4,70.0 616.5,70.0 616.6,70.0 616.7,70.0 616.8,70.0 616.9,70.0 617.0,70.0 617.1,70.0 617.2,70.0 617.3,70.0 617.4,70.0 617.5,70.0 617.6,70.0 617.7,70.0 617.8,70.0 617.9,70.0 618.0,70.0 618.1,70.0 618.2,70.0 618.3,70.0 618.4,70.0 618.5,70.0 618.6,70.0 618.7,70.0 618.8,70.0 618.9,70.0 619.0,70.0 619.1,70.0 619.2,70.0 619.3,70.0 619.4,70.0 619.5,70.0 619.6,70.0 619.6,70.0 619.7,70.0 619.8,70.0 619.9,70.0 620.0,70.0 620.1,70.0 620.2,70.0 620.3,70.0 620.4,70.0 620.5,70.0 620.6,70.0 620.7,70.0 620.8,70.0 620.9,70.0 621.0,70.0 621.1,70.0 621.2,70.0 621.3,70.0 621.4,70.0 621.5,70.0 621.6,70.0 621.7,70.0 621.8,70.0 621.9,70.0 622.0,70.0 622.1,70.0 622.2,70.0 622.3,70.0 622.4,70.0 622.5,70.0 622.6,70.0 622.7,70.0 622.8,70.0 622.9,70.0 623.0,70.0 623.1,70.0 623.2,70.0 623.3,70.0 623.4,70.0 623.5,70.0 623.6,70.0 623.7,70.0 623.8,70.0 623.8,70.0 623.9,70.0 624.0,70.0 624.1,70.0 624.2,70.0 624.3,70.0 624.4,70.0 624.5,70.0 624.6,70.0 624.7,70.0 624.8,70.0 624.9,70.0 625.0,70.0 625.1,70.0 625.2,70.0 625.3,70.0 625.4,70.0 625.5,70.0 625.6,70.0 625.7,70.0 625.8,70.0 625.9,70.0 626.0,70.0 626.1,70.0 626.2,70.0 626.3,70.0 626.4,70.0 626.5,70.0 626.6,70.0 626.7,70.0 626.8,70.0 626.9,70.0 627.0,70.0 627.1,70.0 627.2,70.0 627.3,70.0 627.4,70.0 627.5,70.0 627.6,70.0 627.7,70.0 627.8,70.0 627.9,70.0 627.9,70.0 628.0,70.0 628.1,70.0 628.2,70.0 628.3,70.0 628.4,70.0 628.5,70.0 628.6,70.0 628.7,70.0 628.8,70.0 628.9,70.0 629.0,70.0 629.1,70.0 629.2,70.0 629.3,70.0 629.4,70.0 629.5,70.0 629.6,70.0 629.7,70.0 629.8,70.0 629.9,70.0 630.0,70.0 630.1,70.0 630.2,70.0 630.3,70.0 630.4,70.0 630.5,70.0 630.6,70.0 630.7,70.0 630.8,70.0 630.9,70.0 631.0,70.0 631.1,70.0 631.2,70.0 631.3,70.0 631.4,70.0 631.5,70.0 631.6,70.0 631.7,70.0 631.8,70.0 631.9,70.0 632.0,70.0 632.1,70.0 632.1,70.0 632.2,70.0 632.3,70.0 632.4,70.0 632.5,70.0 632.6,70.0 632.7,70.0 632.8,70.0 632.9,70.0 633.0,70.0 633.1,70.0 633.2,70.0 633.3,70.0 633.4,70.0 633.5,70.0 633.6,70.0 633.7,70.0 633.8,70.0 633.9,70.0 634.0,70.0 634.1,70.0 634.2,70.0 634.3,70.0 634.4,70.0 634.5,70.0 634.6,70.0 634.7,70.0 634.8,70.0 634.9,70.0 635.0,70.0 635.1,70.0 635.2,70.0 635.3,70.0 635.4,70.0 635.5,70.0 635.6,70.0 635.7,70.0 635.8,70.0 635.9,70.0 636.0,70.0 636.1,70.0 636.2,70.0 636.3,70.0 636.3,70.0 636.4,70.0 636.5,70.0 636.6,70.0 636.7,70.0 636.8,70.0 636.9,70.0 637.0,70.0 637.1,70.0 637.2,70.0 637.3,70.0 637.4,70.0 637.5,70.0 637.6,70.0 637.7,70.0 637.8,70.0 637.9,70.0 638.0,70.0 638.1,70.0 638.2,70.0 638.3,70.0 638.4,70.0 638.5,70.0 638.6,70.0 638.7,70.0 638.8,70.0 638.9,70.0 639.0,70.0 639.1,70.0 639.2,70.0 639.3,70.0 639.4,70.0 639.5,70.0 639.6,70.0 639.7,70.0 639.8,70.0 639.9,70.0 640.0,70.0 640.1,70.0 640.2,70.0 640.3,70.0 640.4,70.0 640.4,70.0 640.5,70.0 640.6,70.0 640.7,70.0 640.8,70.0 640.9,70.0 641.0,70.0 641.1,70.0 641.2,70.0 641.3,70.0 641.4,70.0 641.5,70.0 641.6,70.0 641.7,70.0 641.8,70.0 641.9,70.0 642.0,70.0 642.1,70.0 642.2,70.0 642.3,70.0 642.4,70.0 642.5,70.0 642.6,70.0 642.7,70.0 642.8,70.0 642.9,70.0 643.0,70.0 643.1,70.0 643.2,70.0 643.3,70.0 643.4,70.0 643.5,70.0 643.6,70.0 643.7,70.0 643.8,70.0 643.9,70.0 644.0,70.0 644.1,70.0 644.2,70.0 644.3,70.0 644.4,70.0 644.5,70.0 644.6,70.0 644.6,70.0 644.7,70.0 644.8,70.0 644.9,70.0 645.0,70.0 645.1,70.0 645.2,70.0 645.3,70.0 645.4,70.0 645.5,70.0 645.6,70.0 645.7,70.0 645.8,70.0 645.9,70.0 646.0,70.0 646.1,70.0 646.2,70.0 646.3,70.0 646.4,70.0 646.5,70.0 646.6,70.0 646.7,70.0 646.8,70.0 646.9,70.0 647.0,70.0 647.1,70.0 647.2,70.0 647.3,70.0 647.4,70.0 647.5,70.0 647.6,70.0 647.7,70.0 647.8,70.0 647.9,70.0 648.0,70.0 648.1,70.0 648.2,70.0 648.3,70.0 648.4,70.0 648.5,70.0 648.6,70.0 648.7,70.0 648.8,70.0 648.8,70.0 648.9,70.0 649.0,70.0 649.1,70.0 649.2,70.0 649.3,70.0 649.4,70.0 649.5,70.0 649.6,70.0 649.7,70.0 649.8,70.0 649.9,70.0 650.0,70.0 650.1,70.0 650.2,70.0 650.3,70.0 650.4,70.0 650.5,70.0 650.6,70.0 650.7,70.0 650.8,70.0 650.9,70.0 651.0,70.0 651.1,70.0 651.2,70.0 651.3,70.0 651.4,70.0 651.5,70.0 651.6,70.0 651.7,70.0 651.8,70.0 651.9,70.0 652.0,70.0 652.1,70.0 652.2,70.0 652.3,70.0 652.4,70.0 652.5,70.0 652.6,70.0 652.7,70.0 652.8,70.0 652.9,70.0 652.9,70.0 653.0,70.0 653.1,70.0 653.2,70.0 653.3,70.0 653.4,70.0 653.5,70.0 653.6,70.0 653.7,70.0 653.8,70.0 653.9,70.0 654.0,70.0 654.1,70.0 654.2,70.0 654.3,70.0 654.4,70.0 654.5,70.0 654.6,70.0 654.7,70.0 654.8,70.0 654.9,70.0 655.0,70.0 655.1,70.0 655.2,70.0 655.3,70.0 655.4,70.0 655.5,70.0 655.6,70.0 655.7,70.0 655.8,70.0 655.9,70.0 656.0,70.0 656.1,70.0 656.2,70.0 656.3,70.0 656.4,70.0 656.5,70.0 656.6,70.0 656.7,70.0 656.8,70.0 656.9,70.0 657.0,70.0 657.1,70.0 657.1,70.0 657.2,70.0 657.3,70.0 657.4,70.0 657.5,70.0 657.6,70.0 657.7,70.0 657.8,70.0 657.9,70.0 658.0,70.0 658.1,70.0 658.2,70.0 658.3,70.0 658.4,70.0 658.5,70.0 658.6,70.0 658.7,70.0 658.8,70.0 658.9,70.0 659.0,70.0 659.1,70.0 659.2,70.0 659.3,70.0 659.4,70.0 659.5,70.0 659.6,70.0 659.7,70.0 659.8,70.0 659.9,70.0 660.0,70.0 660.1,70.0 660.2,70.0 660.3,70.0 660.4,70.0 660.5,70.0 660.6,70.0 660.7,70.0 660.8,70.0 660.9,70.0 661.0,70.0 661.1,70.0 661.2,70.0 661.3,70.0 661.3,70.0 661.4,70.0 661.5,70.0 661.6,70.0 661.7,70.0 661.8,70.0 661.9,70.0 662.0,70.0 662.1,70.0 662.2,70.0 662.3,70.0 662.4,70.0 662.5,70.0 662.6,70.0 662.7,70.0 662.8,70.0 662.9,70.0 663.0,70.0 663.1,70.0 663.2,70.0 663.3,70.0 663.4,70.0 663.5,70.0 663.6,70.0 663.7,70.0 663.8,70.0 663.9,70.0 664.0,70.0 664.1,70.0 664.2,70.0 664.3,70.0 664.4,70.0 664.5,70.0 664.6,70.0 664.7,70.0 664.8,70.0 664.9,70.0 665.0,70.0 665.1,70.0 665.2,70.0 665.3,70.0 665.4,70.0 665.4,70.0 665.5,70.0 665.6,70.0 665.7,70.0 665.8,70.0 665.9,70.0 666.0,70.0 666.1,70.0 666.2,70.0 666.3,70.0 666.4,70.0 666.5,70.0 666.6,70.0 666.7,70.0 666.8,70.0 666.9,70.0 667.0,70.0 667.1,70.0 667.2,70.0 667.3,70.0 667.4,70.0 667.5,70.0 667.6,70.0 667.7,70.0 667.8,70.0 667.9,70.0 668.0,70.0 668.1,70.0 668.2,70.0 668.3,70.0 668.4,70.0 668.5,70.0 668.6,70.0 668.7,70.0 668.8,70.0 668.9,70.0 669.0,70.0 669.1,70.0 669.2,70.0 669.3,70.0 669.4,70.0 669.5,70.0 669.6,70.0 669.6,70.0 669.7,70.0 669.8,70.0 669.9,70.0 670.0,70.0 670.1,70.0 670.2,70.0 670.3,70.0 670.4,70.0 670.5,70.0 670.6,70.0 670.7,70.0 670.8,70.0 670.9,70.0 671.0,70.0 671.1,70.0 671.2,70.0 671.3,70.0 671.4,70.0 671.5,70.0 671.6,70.0 671.7,70.0 671.8,70.0 671.9,70.0 672.0,70.0 672.1,70.0 672.2,70.0 672.3,70.0 672.4,70.0 672.5,70.0 672.6,70.0 672.7,70.0 672.8,70.0 672.9,70.0 673.0,70.0 673.1,70.0 673.2,70.0 673.3,70.0 673.4,70.0 673.5,70.0 673.6,70.0 673.7,70.0 673.8,70.0 673.8,70.0 673.9,70.0 674.0,70.0 674.1,70.0 674.2,70.0 674.3,70.0 674.4,70.0 674.5,70.0 674.6,70.0 674.7,70.0 674.8,70.0 674.9,70.0 675.0,70.0 675.1,70.0 675.2,70.0 675.3,70.0 675.4,70.0 675.5,70.0 675.6,70.0 675.7,70.0 675.8,70.0 675.9,70.0 676.0,70.0 676.1,70.0 676.2,70.0 676.3,70.0 676.4,70.0 676.5,70.0 676.6,70.0 676.7,70.0 676.8,70.0 676.9,70.0 677.0,70.0 677.1,70.0 677.2,70.0 677.3,70.0 677.4,70.0 677.5,70.0 677.6,70.0 677.7,70.0 677.8,70.0 677.9,70.0 677.9,70.0 678.0,70.0 678.1,70.0 678.2,70.0 678.3,70.0 678.4,70.0 678.5,70.0 678.6,70.0 678.7,70.0 678.8,70.0 678.9,70.0 679.0,70.0 679.1,70.0 679.2,70.0 679.3,70.0 679.4,70.0 679.5,70.0 679.6,70.0 679.7,70.0 679.8,70.0 679.9,70.0 680.0,70.0 680.1,70.0 680.2,70.0 680.3,70.0 680.4,70.0 680.5,70.0 680.6,70.0 680.7,70.0 680.8,70.0 680.9,70.0 681.0,70.0 681.1,70.0 681.2,70.0 681.3,70.0 681.4,70.0 681.5,70.0 681.6,70.0 681.7,70.0 681.8,70.0 681.9,70.0 682.0,70.0 682.1,70.0 682.1,70.0 682.2,70.0 682.3,70.0 682.4,70.0 682.5,70.0 682.6,70.0 682.7,70.0 682.8,70.0 682.9,70.0 683.0,70.0 683.1,70.0 683.2,70.0 683.3,70.0 683.4,70.0 683.5,70.0 683.6,70.0 683.7,70.0 683.8,70.0 683.9,70.0 684.0,70.0 684.1,70.0 684.2,70.0 684.3,70.0 684.4,70.0 684.5,70.0 684.6,70.0 684.7,70.0 684.8,70.0 684.9,70.0 685.0,70.0 685.1,70.0 685.2,70.0 685.3,70.0 685.4,70.0 685.5,70.0 685.6,70.0 685.7,70.0 685.8,70.0 685.9,70.0 686.0,70.0 686.1,70.0 686.2,70.0 686.3,70.0 686.3,70.0 686.4,70.0 686.5,70.0 686.6,70.0 686.7,70.0 686.8,70.0 686.9,70.0 687.0,70.0 687.1,70.0 687.2,70.0 687.3,70.0 687.4,70.0 687.5,70.0 687.6,70.0 687.7,70.0 687.8,70.0 687.9,70.0 688.0,70.0 688.1,70.0 688.2,70.0 688.3,70.0 688.4,70.0 688.5,70.0 688.6,70.0 688.7,70.0 688.8,70.0 688.9,70.0 689.0,70.0 689.1,70.0 689.2,70.0 689.3,70.0 689.4,70.0 689.5,70.0 689.6,70.0 689.7,70.0 689.8,70.0 689.9,70.0 690.0,70.0 690.1,70.0 690.2,70.0 690.3,70.0 690.4,70.0 690.4,70.0 690.5,70.0 690.6,70.0 690.7,70.0 690.8,70.0 690.9,70.0 691.0,70.0 691.1,70.0 691.2,70.0 691.3,70.0 691.4,70.0 691.5,70.0 691.6,70.0 691.7,70.0 691.8,70.0 691.9,70.0 692.0,70.0 692.1,70.0 692.2,70.0 692.3,70.0 692.4,70.0 692.5,70.0 692.6,70.0 692.7,70.0 692.8,70.0 692.9,70.0 693.0,70.0 693.1,70.0 693.2,70.0 693.3,70.0 693.4,70.0 693.5,70.0 693.6,70.0 693.7,70.0 693.8,70.0 693.9,70.0 694.0,70.0 694.1,70.0 694.2,70.0 694.3,70.0 694.4,70.0 694.5,70.0 694.6,70.0 694.6,70.0 694.7,70.0 694.8,70.0 694.9,70.0 695.0,70.0 695.1,70.0 695.2,70.0 695.3,70.0 695.4,70.0 695.5,70.0 695.6,70.0 695.7,70.0 695.8,70.0 695.9,70.0 696.0,70.0 696.1,70.0 696.2,70.0 696.3,70.0 696.4,70.0 696.5,70.0 696.6,70.0 696.7,70.0 696.8,70.0 696.9,70.0 697.0,70.0 697.1,70.0 697.2,70.0 697.3,70.0 697.4,70.0 697.5,70.0 697.6,70.0 697.7,70.0 697.8,70.0 697.9,70.0 698.0,70.0 698.1,70.0 698.2,70.0 698.3,70.0 698.4,70.0 698.5,70.0 698.6,70.0 698.7,70.0 698.8,70.0 698.8,70.0 698.9,70.0 699.0,70.0 699.1,70.0 699.2,70.0 699.3,70.0 699.4,70.0 699.5,70.0 699.6,70.0 699.7,70.0 699.8,70.0 699.9,70.0 700.0,70.0 700.1,70.0 700.2,70.0 700.3,70.0 700.4,70.0 700.5,70.0 700.6,70.0 700.7,70.0 700.8,70.0 700.9,70.0 701.0,70.0 701.1,70.0 701.2,70.0 701.3,70.0 701.4,70.0 701.5,70.0 701.6,70.0 701.7,70.0 701.8,70.0 701.9,70.0 702.0,70.0 702.1,70.0 702.2,70.0 702.3,70.0 702.4,70.0 702.5,70.0 702.6,70.0 702.7,70.0 702.8,70.0 702.9,70.0 702.9,70.0 703.0,70.0 703.1,70.0 703.2,70.0 703.3,70.0 703.4,70.0 703.5,70.0 703.6,70.0 703.7,70.0 703.8,70.0 703.9,70.0 704.0,70.0 704.1,70.0 704.2,70.0 704.3,70.0 704.4,70.0 704.5,70.0 704.6,70.0 704.7,70.0 704.8,70.0 704.9,70.0 705.0,70.0 705.1,70.0 705.2,70.0 705.3,70.0 705.4,70.0 705.5,70.0 705.6,70.0 705.7,70.0 705.8,70.0 705.9,70.0 706.0,70.0 706.1,70.0 706.2,70.0 706.3,70.0 706.4,70.0 706.5,70.0 706.6,70.0 706.7,70.0 706.8,70.0 706.9,70.0 707.0,70.0 707.1,70.0 707.1,70.0 707.2,70.0 707.3,70.0 707.4,70.0 707.5,70.0 707.6,70.0 707.7,70.0 707.8,70.0 707.9,70.0 708.0,70.0 708.1,70.0 708.2,70.0 708.3,70.0 708.4,70.0 708.5,70.0 708.6,70.0 708.7,70.0 708.8,70.0 708.9,70.0 709.0,70.0 709.1,70.0 709.2,70.0 709.3,70.0 709.4,70.0 709.5,70.0 709.6,70.0 709.7,70.0 709.8,70.0 709.9,70.0 710.0,70.0 710.1,70.0 710.2,70.0 710.3,70.0 710.4,70.0 710.5,70.0 710.6,70.0 710.7,70.0 710.8,70.0 710.9,70.0 711.0,70.0 711.1,70.0 711.2,70.0 711.3,70.0 711.3,70.0 711.4,70.0 711.5,70.0 711.6,70.0 711.7,70.0 711.8,70.0 711.9,70.0 712.0,70.0 712.1,70.0 712.2,70.0 712.3,70.0 712.4,70.0 712.5,70.0 712.6,70.0 712.7,70.0 712.8,70.0 712.9,70.0 713.0,70.0 713.1,70.0 713.2,70.0 713.3,70.0 713.4,70.0 713.5,70.0 713.6,70.0 713.7,70.0 713.8,70.0 713.9,70.0 714.0,70.0 714.1,70.0 714.2,70.0 714.3,70.0 714.4,70.0 714.5,70.0 714.6,70.0 714.7,70.0 714.8,70.0 714.9,70.0 715.0,70.0 715.1,70.0 715.2,70.0 715.3,70.0 715.4,70.0 715.4,70.0 715.5,70.0 715.6,70.0 715.7,70.0 715.8,70.0 715.9,70.0 716.0,70.0 716.1,70.0 716.2,70.0 716.3,70.0 716.4,70.0 716.5,70.0 716.6,70.0 716.7,70.0 716.8,70.0 716.9,70.0 717.0,70.0 717.1,70.0 717.2,70.0 717.3,70.0 717.4,70.0 717.5,70.0 717.6,70.0 717.7,70.0 717.8,70.0 717.9,70.0 718.0,70.0 718.1,70.0 718.2,70.0 718.3,70.0 718.4,70.0 718.5,70.0 718.6,70.0 718.7,70.0 718.8,70.0 718.9,70.0 719.0,70.0 719.1,70.0 719.2,70.0 719.3,70.0 719.4,70.0 719.5,70.0 719.6,70.0 719.6,70.0 719.7,70.0 719.8,70.0 719.9,70.0 720.0,70.0 720.1,70.0 720.2,70.0 720.3,70.0 720.4,70.0 720.5,70.0 720.6,70.0 720.7,70.0 720.8,70.0 720.9,70.0 721.0,70.0 721.1,70.0 721.2,70.0 721.3,70.0 721.4,70.0 721.5,70.0 721.6,70.0 721.7,70.0 721.8,70.0 721.9,70.0 722.0,70.0 722.1,70.0 722.2,70.0 722.3,70.0 722.4,70.0 722.5,70.0 722.6,70.0 722.7,70.0 722.8,70.0 722.9,70.0 723.0,70.0 723.1,70.0 723.2,70.0 723.3,70.0 723.4,70.0 723.5,70.0 723.6,70.0 723.7,70.0 723.8,70.0 723.8,70.0 723.9,70.0 724.0,70.0 724.1,70.0 724.2,70.0 724.3,70.0 724.4,70.0 724.5,70.0 724.6,70.0 724.7,70.0 724.8,70.0 724.9,70.0 725.0,70.0 725.1,70.0 725.2,70.0 725.3,70.0 725.4,70.0 725.5,70.0 725.6,70.0 725.7,70.0 725.8,70.0 725.9,70.0 726.0,70.0 726.1,70.0 726.2,70.0 726.3,70.0 726.4,70.0 726.5,70.0 726.6,70.0 726.7,70.0 726.8,70.0 726.9,70.0 727.0,70.0 727.1,70.0 727.2,70.0 727.3,70.0 727.4,70.0 727.5,70.0 727.6,70.0 727.7,70.0 727.8,70.0 727.9,70.0 727.9,70.0 728.0,70.0 728.1,70.0 728.2,70.0 728.3,70.0 728.4,70.0 728.5,70.0 728.6,70.0 728.7,70.0 728.8,70.0 728.9,70.0 729.0,70.0 729.1,70.0 729.2,70.0 729.3,70.0 729.4,70.0 729.5,70.0 729.6,70.0 729.7,70.0 729.8,70.0 729.9,70.0" fill="none" stroke="#4a90d9" stroke-width="1.3" stroke-linejoin="round"/>
</svg>
